<?xml version="1.0" encoding="UTF-8"?>
<svg version="1.1" xmlns="http://www.w3.org/2000/svg" width="800" height="300">
<path d="M0 0 C264 0 528 0 800 0 C800 99 800 198 800 300 C536 300 272 300 0 300 C0 201 0 102 0 0 Z " fill="#FEFEFE" transform="translate(0,0)"/>
<path d="M0 0 C3.14191176 1.42913347 5.23623147 3.01004992 7 6 C7.26807264 9.17047455 6.81026667 11.93596639 6 15 C6.61746094 15.14953125 7.23492187 15.2990625 7.87109375 15.453125 C11.64153152 16.42167782 13.48773638 17.19219968 15.625 20.5625 C16.305625 21.7690625 16.305625 21.7690625 17 23 C17.66 23.33 18.32 23.66 19 24 C19 24.99 19 25.98 19 27 C19.66 27 20.32 27 21 27 C23.55806563 33.25833731 25.27808013 38.84515809 25.7265625 45.59375 C26.09860241 48.86770121 27.11242589 51.7451119 28.25 54.82421875 C29.00609076 57.01766954 29.47900937 59.1655152 29.9375 61.4375 C30.59849978 65.02626654 30.59849978 65.02626654 32.9375 66.3125 C33.618125 66.539375 34.29875 66.76625 35 67 C35.391875 67.4640625 35.78375 67.928125 36.1875 68.40625 C48.01992224 78.81062128 75.40225546 74.32679642 90 74 C90.33 73.01 90.66 72.02 91 71 C91.66418945 70.9498877 92.32837891 70.89977539 93.01269531 70.84814453 C108.69792021 69.72306461 108.69792021 69.72306461 124.2421875 67.44140625 C129.78401525 66.55439983 135.4011092 66.31473055 141 66 C141.13277344 65.23300781 141.26554688 64.46601563 141.40234375 63.67578125 C142.20153866 60.09768638 143.26582165 58.4537498 146 56 C148.80112571 55.57152953 151.14215347 55.76184612 154 56 C155.60725635 59.21451269 155.05748185 62.43612536 155 66 C155.928125 66.103125 156.85625 66.20625 157.8125 66.3125 C161 67 161 67 162.8125 68.0625 C164.80212335 71.30872758 165.51033274 74.27523379 165 78 C162.70708682 82.65204767 159.71432434 85.36245898 154.859375 87.16796875 C151.91312994 87.91151164 149.00064991 88.52699115 146 89 C146.33128906 89.58910156 146.66257813 90.17820312 147.00390625 90.78515625 C148.53517766 94.18998326 147.93627251 96.44216446 147 100 C144.35741344 103.57526417 142.73050201 104.7949468 138.4375 106 C135 106 135 106 133.0625 104.4375 C132.381875 103.963125 131.70125 103.48875 131 103 C129.10294361 103.46594367 127.20737586 103.94386615 125.3359375 104.50390625 C117.78284098 106.10799196 110.00931051 103.75180339 103 101 C102.43732422 101.85271484 102.43732422 101.85271484 101.86328125 102.72265625 C101.35152344 103.49480469 100.83976563 104.26695312 100.3125 105.0625 C99.76851562 105.88878906 99.22453125 106.71507812 98.6640625 107.56640625 C97.25013052 109.63419879 95.75580428 111.55108387 94.1875 113.5 C91.68714176 116.90304348 91.33783224 120.02424933 91.140625 124.1796875 C91 126 91 126 90 127 C87.54507499 127.18063984 85.14495751 127.27801743 82.6875 127.3125 C81.67139648 127.35600586 81.67139648 127.35600586 80.63476562 127.40039062 C77.24380163 127.44348205 75.34887177 127.25531327 72.58203125 125.23046875 C70.03428507 121.63846117 70 119.41277603 70 115 C71.3125 112.625 71.3125 112.625 74 111 C75.64262333 110.76770983 77.28910448 110.56198218 78.9375 110.375 C82.3251178 109.83537947 83.5816623 109.53380648 85.7265625 106.796875 C87.6725719 102.9048562 88.94350821 99.22596715 90 95 C57.66 95 25.32 95 -8 95 C-5.7747348 99.45053041 -4.00098756 102.27463613 -1 106 C-1 106.66 -1 107.32 -1 108 C-0.07316406 108.19335938 0.85367188 108.38671875 1.80859375 108.5859375 C3.60490234 108.97652344 3.60490234 108.97652344 5.4375 109.375 C7.22994141 109.75785156 7.22994141 109.75785156 9.05859375 110.1484375 C10.02925781 110.42945313 10.99992187 110.71046875 12 111 C13.84731376 114.69462752 13.33835422 118.95890146 13 123 C11.43358577 127.23853262 8.90772602 129.19266751 4.8984375 131.2734375 C0.66025196 132.89545913 -2.78952394 132.46358657 -6.9375 130.875 C-9 129 -9 129 -9.5 126.0625 C-8.97013347 122.81706751 -8.20261503 121.38616629 -6 119 C-7.36125 118.13375 -7.36125 118.13375 -8.75 117.25 C-12 115 -12 115 -13.8125 113.0625 C-16.55378882 110.47785625 -19.54270679 108.96201421 -22.87890625 107.24609375 C-25 106 -25 106 -28 103 C-34.435 103.495 -34.435 103.495 -41 104 C-41 73.97 -41 43.94 -41 13 C-35.75457401 11.25152467 -32.73430597 10.72851982 -27.375 10.75 C-25.43753906 10.74226562 -25.43753906 10.74226562 -23.4609375 10.734375 C-20.31589796 10.97575501 -18.61376712 11.32825047 -16 13 C-16.12375 11.4221875 -16.12375 11.4221875 -16.25 9.8125 C-15.96269651 5.43112175 -15.05154419 4.05154419 -12 1 C-8.22600007 -0.88699997 -4.10056515 -0.62240721 0 0 Z " fill="#FCFCFC" transform="translate(41,154)"/>
<path d="M0 0 C3 1.125 3 1.125 5 3.6875 C9.32001529 7.19751242 13.01420795 6.59726205 18.4296875 6.49609375 C22.01158558 6.23583078 22.01158558 6.23583078 25.37890625 5.11328125 C29.72194312 3.92796482 33.58676641 3.82463072 38.0625 3.875 C38.917229 3.87959229 39.77195801 3.88418457 40.65258789 3.88891602 C51.61101098 4.03859687 63.01807355 4.52413677 73.78515625 6.68359375 C80.82494371 8.0865849 88.40862453 7.17685983 95.53857422 6.76416016 C105.97627002 6.1740504 116.4101612 5.95654549 126.86279297 5.89282227 C128.52755234 5.88101202 130.19228348 5.86398605 131.85693359 5.84155273 C134.22511537 5.81141051 136.59258459 5.80161354 138.9609375 5.796875 C139.6675351 5.78456848 140.37413269 5.77226196 141.10214233 5.75958252 C146.17862453 5.78191008 149.57350682 6.81558656 154 9.125 C155.125 11.0625 155.125 11.0625 156 13.125 C157.65788785 14.46923339 159.32576317 15.80118483 161 17.125 C166.84894313 23.54457172 170.43621605 29.48716048 171.3125 38.25 C170.50377503 48.27818958 165.21584103 59.73516824 158.5 67.25 C153.59544727 70.92841455 147.51979135 70.25205331 141.61328125 70.1875 C140.79796432 70.18371338 139.9826474 70.17992676 139.1426239 70.17602539 C135.69405414 70.15997515 132.245609 70.13260761 128.79711914 70.10449219 C119.32798193 70.03416536 109.89614519 70.09692316 100.43473816 70.52130127 C85.70750233 71.18117987 71.09029734 71.04011423 56.35986328 70.51074219 C52.44729389 70.37314645 48.53447789 70.26017907 44.62109375 70.1484375 C42.09109647 70.06396567 39.56114587 69.97808136 37.03125 69.890625 C35.88217163 69.85922424 34.73309326 69.82782349 33.54919434 69.79547119 C23.3765977 69.39496198 11.83441329 68.06975681 4.34765625 60.44140625 C-1.82681152 52.93844664 -3.0637654 44.33844549 -4.4609375 34.97265625 C-4.94344294 32.42376882 -5.62919869 30.37782463 -6.625 28 C-8.28641092 23.3583262 -8.40171748 18.75701372 -8.5 13.875 C-8.5304541 13.09366699 -8.5609082 12.31233398 -8.59228516 11.50732422 C-8.59503932 7.23378247 -8.35530653 5.58571414 -5.65625 2.0859375 C-3 0.125 -3 0.125 0 0 Z " fill="#646464" transform="translate(433,214.875)"/>
<path d="M0 0 C3.14191176 1.42913347 5.23623147 3.01004992 7 6 C7.26807264 9.17047455 6.81026667 11.93596639 6 15 C6.61746094 15.14953125 7.23492187 15.2990625 7.87109375 15.453125 C11.64153152 16.42167782 13.48773638 17.19219968 15.625 20.5625 C16.305625 21.7690625 16.305625 21.7690625 17 23 C17.66 23.33 18.32 23.66 19 24 C19 24.99 19 25.98 19 27 C19.66 27 20.32 27 21 27 C23.55806563 33.25833731 25.27808013 38.84515809 25.7265625 45.59375 C26.09860241 48.86770121 27.11242589 51.7451119 28.25 54.82421875 C29.00609076 57.01766954 29.47900937 59.1655152 29.9375 61.4375 C30.59849978 65.02626654 30.59849978 65.02626654 32.9375 66.3125 C33.618125 66.539375 34.29875 66.76625 35 67 C35.391875 67.4640625 35.78375 67.928125 36.1875 68.40625 C48.01992224 78.81062128 75.40225546 74.32679642 90 74 C90.33 73.01 90.66 72.02 91 71 C91.66418945 70.9498877 92.32837891 70.89977539 93.01269531 70.84814453 C108.69792021 69.72306461 108.69792021 69.72306461 124.2421875 67.44140625 C129.78401525 66.55439983 135.4011092 66.31473055 141 66 C141.13277344 65.23300781 141.26554688 64.46601563 141.40234375 63.67578125 C142.20153866 60.09768638 143.26582165 58.4537498 146 56 C148.80112571 55.57152953 151.14215347 55.76184612 154 56 C155.60725635 59.21451269 155.05748185 62.43612536 155 66 C155.928125 66.103125 156.85625 66.20625 157.8125 66.3125 C161 67 161 67 162.8125 68.0625 C164.80212335 71.30872758 165.51033274 74.27523379 165 78 C162.70708682 82.65204767 159.71432434 85.36245898 154.859375 87.16796875 C151.91312994 87.91151164 149.00064991 88.52699115 146 89 C146.33128906 89.58910156 146.66257813 90.17820312 147.00390625 90.78515625 C148.53517766 94.18998326 147.93627251 96.44216446 147 100 C144.35741344 103.57526417 142.73050201 104.7949468 138.4375 106 C135 106 135 106 133.0625 104.4375 C132.381875 103.963125 131.70125 103.48875 131 103 C129.10294361 103.46594367 127.20737586 103.94386615 125.3359375 104.50390625 C117.78284098 106.10799196 110.00931051 103.75180339 103 101 C102.43732422 101.85271484 102.43732422 101.85271484 101.86328125 102.72265625 C101.35152344 103.49480469 100.83976563 104.26695312 100.3125 105.0625 C99.76851562 105.88878906 99.22453125 106.71507812 98.6640625 107.56640625 C97.25013052 109.63419879 95.75580428 111.55108387 94.1875 113.5 C91.68714176 116.90304348 91.33783224 120.02424933 91.140625 124.1796875 C91 126 91 126 90 127 C87.54507499 127.18063984 85.14495751 127.27801743 82.6875 127.3125 C81.67139648 127.35600586 81.67139648 127.35600586 80.63476562 127.40039062 C77.24380163 127.44348205 75.34887177 127.25531327 72.58203125 125.23046875 C70.03428507 121.63846117 70 119.41277603 70 115 C71.3125 112.625 71.3125 112.625 74 111 C75.64262333 110.76770983 77.28910448 110.56198218 78.9375 110.375 C82.3251178 109.83537947 83.5816623 109.53380648 85.7265625 106.796875 C87.6725719 102.9048562 88.94350821 99.22596715 90 95 C57.66 95 25.32 95 -8 95 C-5.7747348 99.45053041 -4.00098756 102.27463613 -1 106 C-1 106.66 -1 107.32 -1 108 C-0.07316406 108.19335938 0.85367188 108.38671875 1.80859375 108.5859375 C3.60490234 108.97652344 3.60490234 108.97652344 5.4375 109.375 C7.22994141 109.75785156 7.22994141 109.75785156 9.05859375 110.1484375 C10.02925781 110.42945313 10.99992187 110.71046875 12 111 C13.84731376 114.69462752 13.33835422 118.95890146 13 123 C11.43358577 127.23853262 8.90772602 129.19266751 4.8984375 131.2734375 C0.66025196 132.89545913 -2.78952394 132.46358657 -6.9375 130.875 C-9 129 -9 129 -9.5 126.0625 C-8.97013347 122.81706751 -8.20261503 121.38616629 -6 119 C-7.36125 118.13375 -7.36125 118.13375 -8.75 117.25 C-12 115 -12 115 -13.8125 113.0625 C-16.55378882 110.47785625 -19.54270679 108.96201421 -22.87890625 107.24609375 C-25 106 -25 106 -26.359375 104.328125 C-28.05474172 102.67929341 -28.05474172 102.67929341 -31.13671875 102.92578125 C-32.30847656 103.05339844 -33.48023438 103.18101562 -34.6875 103.3125 C-35.86699219 103.43238281 -37.04648437 103.55226563 -38.26171875 103.67578125 C-39.61716797 103.83626953 -39.61716797 103.83626953 -41 104 C-41 102.68 -41 101.36 -41 100 C-37.28825543 99.21858009 -33.59589384 98.81333879 -29.8125 98.625 C-28.97332031 98.57601562 -28.13414063 98.52703125 -27.26953125 98.4765625 C-25 99 -25 99 -23.5390625 101.33203125 C-23.03117187 102.21246094 -22.52328125 103.09289062 -22 104 C-19.45068158 105.72805533 -19.45068158 105.72805533 -16.5625 107.0625 C-12.65571868 108.98134089 -10.01194776 110.87391528 -7 114 C-5.03120677 115.06011943 -3.03564133 116.07470849 -1 117 C-1.39494173 119.86332753 -1.70312394 120.77509389 -4.0625 122.5625 C-4.701875 123.036875 -5.34125 123.51125 -6 124 C-6 124.99 -6 125.98 -6 127 C-0.50458112 128.10722149 -0.50458112 128.10722149 4.8125 126.9375 C7.56468184 124.49985323 8.71734522 122.44291546 10 119 C10.25196823 115.74899636 10.25196823 115.74899636 10 113 C9.46375 113.20625 8.9275 113.4125 8.375 113.625 C5.01398052 114.15568729 3.09268121 113.38855075 0 112 C-4.10281331 108.61517902 -6.72217242 104.51552726 -9.57421875 100.09375 C-11.15285907 97.7755275 -12.89969015 95.85796641 -15 94 C-14.505 92.515 -14.505 92.515 -14 91 C-3.08839739 90.86784824 7.82322381 90.73735798 18.73486996 90.60884857 C23.80445752 90.54909345 28.87403766 90.48881767 33.94360352 90.42724609 C45.32449932 90.2893283 56.70541924 90.16103957 68.08660889 90.04980469 C71.17086149 90.0194293 74.25501867 89.98541676 77.33917236 89.94628906 C80.91491415 89.9025866 84.49050676 89.87079848 88.06640625 89.84375 C89.05237289 89.8288855 90.03833954 89.814021 91.05418396 89.79870605 C91.93550491 89.79487915 92.81682587 89.79105225 93.72485352 89.78710938 C94.83426048 89.77617249 94.83426048 89.77617249 95.96607971 89.76501465 C98.32641105 90.03771132 99.947833 90.83145334 102 92 C102 92.66 102 93.32 102 94 C99.03 94 96.06 94 93 94 C92.84144531 94.67804688 92.68289062 95.35609375 92.51953125 96.0546875 C90.80682332 102.88659425 88.3858207 108.83057967 85 115 C84.38511719 114.90460938 83.77023438 114.80921875 83.13671875 114.7109375 C82.32847656 114.60007812 81.52023438 114.48921875 80.6875 114.375 C79.48673828 114.20097656 79.48673828 114.20097656 78.26171875 114.0234375 C75.71276785 113.78466593 75.71276785 113.78466593 73 116 C73.495 119.465 73.495 119.465 74 123 C80.93 123.495 80.93 123.495 88 124 C87.835 122.865625 87.67 121.73125 87.5 120.5625 C87.46206851 116.28382846 88.9628713 114.41739709 91.8125 111.3125 C92.87404297 110.25482422 92.87404297 110.25482422 93.95703125 109.17578125 C96.06488108 106.93090103 97.46266119 104.65620431 99 102 C99.66 101.34 100.32 100.68 101 100 C101.64767793 97.42938689 101.64767793 97.42938689 102 95 C102.99 95 103.98 95 105 95 C105.33 95.99 105.66 96.98 106 98 C111.60046254 100.65285068 115.83585811 101.50525753 122 101 C123.68236471 100.37400383 125.3523962 99.71247732 127 99 C129.625 98.6875 129.625 98.6875 132 99 C132.474375 99.495 132.94875 99.99 133.4375 100.5 C135.00729328 102.29783467 135.00729328 102.29783467 138 102.4375 C141.0535959 102.28308178 141.0535959 102.28308178 142.875 100.25 C144.2981424 97.82297795 144.2981424 97.82297795 144 94 C143.01 93.34 142.02 92.68 141 92 C141 90.68 141 89.36 141 88 C138.36 88.33 135.72 88.66 133 89 C132.67 90.32 132.34 91.64 132 93 C126.06 93.33 120.12 93.66 114 94 C114 94.66 114 95.32 114 96 C111.36 95.67 108.72 95.34 106 95 C106.33 94.01 106.66 93.02 107 92 C122.74487472 88.55580866 122.74487472 88.55580866 130 89 C130.99 87.02 130.99 87.02 132 85 C132.85980469 85.04640625 133.71960938 85.0928125 134.60546875 85.140625 C143.25733372 85.40480408 151.04608961 84.64757547 159 81 C161.34111027 78.17941514 161.34111027 78.17941514 160.6875 75 C160.04448305 71.97290882 160.04448305 71.97290882 159 69 C156.03 69 153.06 69 150 69 C150.33 68.29875 150.66 67.5975 151 66.875 C152.09044562 63.73996884 152.15322643 61.29436818 152 58 C149.08482708 59.07401108 147.22189824 59.77810176 145 62 C144.60235737 63.98821313 144.26224651 65.98944339 144 68 C138.80250858 70.03159274 133.87836582 70.54535612 128.375 71 C121.67785516 71.60208621 115.11946506 72.4214609 108.5 73.625 C104.9553851 74.15669224 101.57685191 74.13757123 98 74 C98 74.66 98 75.32 98 76 C88.39651274 77.80165925 78.94813099 78.21813072 69.1875 78.25 C68.04369873 78.25902344 66.89989746 78.26804687 65.72143555 78.27734375 C58.88780844 78.2535522 52.6425364 77.56218057 46 76 C44.700625 75.773125 43.40125 75.54625 42.0625 75.3125 C36.34765209 73.761327 31.31906817 71.05361049 27 67 C25.05265972 63.14873149 24.60896908 59.24500344 24 55 C23.53214948 52.43229866 23.03552045 49.8716382 22.52905273 47.3112793 C22.18289543 45.55365642 21.84983003 43.79339174 21.53149414 42.03051758 C19.90372895 33.38327981 16.25574087 26.28122251 10 20 C7.54281149 18.75470641 5.76203796 18.39457685 3 18 C3.08701172 16.98679688 3.08701172 16.98679688 3.17578125 15.953125 C3.5778262 10.21916951 3.5778262 10.21916951 0.875 5.375 C-2.46118639 3.77943259 -4.34744145 3.45600192 -8 4 C-10.24691185 5.12129853 -10.24691185 5.12129853 -12 7 C-12.48261667 9.50880616 -12.48261667 9.50880616 -12.25 12.1875 C-12.19585938 13.53908203 -12.19585938 13.53908203 -12.140625 14.91796875 C-12.09421875 15.60503906 -12.0478125 16.29210937 -12 17 C-13.485 16.7525 -13.485 16.7525 -15 16.5 C-19.39026164 15.94826155 -23.76861398 15.88706247 -28.1875 15.875 C-28.87650391 15.87048828 -29.56550781 15.86597656 -30.27539062 15.86132812 C-33.97595749 15.87207517 -37.40234538 16.11979712 -41 17 C-41 15.68 -41 14.36 -41 13 C-36.32339485 11.17568963 -32.38332981 10.72992653 -27.375 10.75 C-25.43753906 10.74226562 -25.43753906 10.74226562 -23.4609375 10.734375 C-20.31589796 10.97575501 -18.61376712 11.32825047 -16 13 C-16.12375 11.4221875 -16.12375 11.4221875 -16.25 9.8125 C-15.96269651 5.43112175 -15.05154419 4.05154419 -12 1 C-8.22600007 -0.88699997 -4.10056515 -0.62240721 0 0 Z " fill="#191919" transform="translate(41,154)"/>
<path d="M0 0 C3 1.125 3 1.125 5 3.6875 C9.32001529 7.19751242 13.01420795 6.59726205 18.4296875 6.49609375 C22.01158558 6.23583078 22.01158558 6.23583078 25.37890625 5.11328125 C29.72194312 3.92796482 33.58676641 3.82463072 38.0625 3.875 C38.917229 3.87959229 39.77195801 3.88418457 40.65258789 3.88891602 C51.61101098 4.03859687 63.01807355 4.52413677 73.78515625 6.68359375 C80.82494371 8.0865849 88.40862453 7.17685983 95.53857422 6.76416016 C105.97627002 6.1740504 116.4101612 5.95654549 126.86279297 5.89282227 C128.52755234 5.88101202 130.19228348 5.86398605 131.85693359 5.84155273 C134.22511537 5.81141051 136.59258459 5.80161354 138.9609375 5.796875 C139.6675351 5.78456848 140.37413269 5.77226196 141.10214233 5.75958252 C146.17862453 5.78191008 149.57350682 6.81558656 154 9.125 C155.125 11.0625 155.125 11.0625 156 13.125 C157.65788785 14.46923339 159.32576317 15.80118483 161 17.125 C166.84894313 23.54457172 170.43621605 29.48716048 171.3125 38.25 C170.50377503 48.27818958 165.21584103 59.73516824 158.5 67.25 C153.59544727 70.92841455 147.51979135 70.25205331 141.61328125 70.1875 C140.79796432 70.18371338 139.9826474 70.17992676 139.1426239 70.17602539 C135.69405414 70.15997515 132.245609 70.13260761 128.79711914 70.10449219 C119.32798193 70.03416536 109.89614519 70.09692316 100.43473816 70.52130127 C85.70750233 71.18117987 71.09029734 71.04011423 56.35986328 70.51074219 C52.44729389 70.37314645 48.53447789 70.26017907 44.62109375 70.1484375 C42.09109647 70.06396567 39.56114587 69.97808136 37.03125 69.890625 C35.88217163 69.85922424 34.73309326 69.82782349 33.54919434 69.79547119 C23.3765977 69.39496198 11.83441329 68.06975681 4.34765625 60.44140625 C-1.82681152 52.93844664 -3.0637654 44.33844549 -4.4609375 34.97265625 C-4.94344294 32.42376882 -5.62919869 30.37782463 -6.625 28 C-8.28641092 23.3583262 -8.40171748 18.75701372 -8.5 13.875 C-8.5304541 13.09366699 -8.5609082 12.31233398 -8.59228516 11.50732422 C-8.59503932 7.23378247 -8.35530653 5.58571414 -5.65625 2.0859375 C-3 0.125 -3 0.125 0 0 Z M-2 3.125 C-5.34219637 6.76799404 -5.86682069 9.94781704 -6.19921875 14.7578125 C-5.95003152 18.96956534 -5.0251107 22.72175764 -3.8125 26.75 C-3.60431641 27.46124023 -3.39613281 28.17248047 -3.18164062 28.90527344 C-2.48498439 31.15772482 -2.48498439 31.15772482 -1 34.125 C1.05763303 35.20031087 1.05763303 35.20031087 3 35.125 C3 33.805 3 32.485 3 31.125 C3.99 31.125 4.98 31.125 6 31.125 C6.1546875 30.01125 6.1546875 30.01125 6.3125 28.875 C7.04253504 25.95485982 8.06789398 24.39312446 10 22.125 C9.39050431 26.2695707 7.96084772 29.4386063 6 33.125 C5.690625 33.8675 5.38125 34.61 5.0625 35.375 C3.7196378 37.58677303 2.28882417 38.01750443 0 39.125 C-1.80310102 44.53430306 0.85118344 50.03032809 3 55.125 C4.89597259 57.55165194 6.29919246 58.5397434 9 60.125 C9.66 60.125 10.32 60.125 11 60.125 C11 60.785 11 61.445 11 62.125 C21.26154022 65.59645722 30.67541799 66.20126388 41.4375 66.25 C42.77143799 66.25713013 42.77143799 66.25713013 44.13232422 66.2644043 C45.39520264 66.26114136 45.39520264 66.26114136 46.68359375 66.2578125 C47.82139282 66.25612061 47.82139282 66.25612061 48.98217773 66.25439453 C51.20626495 66.197839 51.20626495 66.197839 54 65.125 C54.20086443 61.40900809 54.1519437 60.35291555 52 57.125 C52.875 54.4375 52.875 54.4375 54 52.125 C53.01 51.135 52.02 50.145 51 49.125 C51.680625 48.568125 52.36125 48.01125 53.0625 47.4375 C55.28097119 45.29246056 55.28097119 45.29246056 55 42.5 C54.20423043 39.98006227 54.20423043 39.98006227 51.9375 38.8125 C51.298125 38.585625 50.65875 38.35875 50 38.125 C50.495 37.135 50.495 37.135 51 36.125 C52.875 36.75 52.875 36.75 55 38.125 C57.27878599 42.7910856 56.96687605 46.11482411 56 51.125 C54.96234078 57.03965756 55.10030096 61.42590287 57 67.125 C58.95486328 67.10953125 58.95486328 67.10953125 60.94921875 67.09375 C65.58771764 67.09375 70.18493274 67.33249253 74.8125 67.625 C81.91885989 68.03528471 89.0067453 68.23457722 96.125 68.25 C97.43174683 68.25676758 97.43174683 68.25676758 98.76489258 68.26367188 C102.69673607 68.64435259 102.69673607 68.64435259 106 67.125 C108.67250538 67.10412105 111.32900188 67.1313335 114 67.1875 C120.31908812 67.26676106 125.88847363 66.90289858 132 65.125 C132.94125778 61.46455306 133.65698407 57.89817527 134 54.125 C133.34 53.135 132.68 52.145 132 51.125 C133.98 48.155 133.98 48.155 136 45.125 C134.02 43.145 134.02 43.145 132 41.125 C133.32 41.455 134.64 41.785 136 42.125 C136.625 44.5 136.625 44.5 137 47.125 C136.01 48.115 136.01 48.115 135 49.125 C135.165 50.218125 135.33 51.31125 135.5 52.4375 C136.03296631 56.36812655 135.48213276 57.6049347 134 61.125 C134.27701774 62.80194665 134.60458862 64.47196076 135 66.125 C146.213767 67.99624647 146.213767 67.99624647 156.609375 64.953125 C163.05860623 58.23794609 167.90754151 47.33286442 169 38.125 C167.48779932 29.66347263 161.28652745 21.7130244 155 16.125 C154.01 15.63 154.01 15.63 153 15.125 C152.61781233 16.78114657 152.28604898 18.44957024 152 20.125 C152.33 20.455 152.66 20.785 153 21.125 C153.2165625 22.73375 153.2165625 22.73375 153.4375 24.375 C153.82799456 28.02222987 153.82799456 28.02222987 155.125 30.8125 C156.11341176 33.42473109 155.95398577 34.54923842 155 37.125 C152.525 37.62 152.525 37.62 150 38.125 C151 36.125 151 36.125 154 34.125 C153.505 33.238125 153.01 32.35125 152.5 31.4375 C151.05621326 28.24913762 150.69840078 26.54312454 151 23.125 C149.68 22.795 148.36 22.465 147 22.125 C148.98 17.67 148.98 17.67 151 13.125 C145.21350937 9.83307915 141.17561486 8.54587548 134.5625 8.734375 C133.79695801 8.74003479 133.03141602 8.74569458 132.24267578 8.75152588 C129.82777979 8.77369165 127.41443777 8.82384461 125 8.875 C123.35028204 8.89509085 121.70054052 8.91333706 120.05078125 8.9296875 C116.03326695 8.97349057 112.01689574 9.04237398 108 9.125 C108 9.785 108 10.445 108 11.125 C108.99 11.8984375 108.99 11.8984375 110 12.6875 C112.61592046 15.87565306 112.36839565 17.90694411 112.23828125 21.90625 C112 24.125 112 24.125 111.41796875 26.25390625 C110.7829888 28.25792357 110.7829888 28.25792357 112 30.5625 C113.20265703 33.64430863 113.24108827 35.06364894 112 38.125 C109.4375 39.4375 109.4375 39.4375 107 40.125 C108.65 38.145 110.3 36.165 112 34.125 C111.484375 33.238125 110.96875 32.35125 110.4375 31.4375 C108.8982735 27.89058677 108.80781918 26.70154245 110 23.125 C110.33 22.465 110.66 21.805 111 21.125 C110.01 21.125 109.02 21.125 108 21.125 C108.33 20.526875 108.66 19.92875 109 19.3125 C110.20787988 17.07113529 110.20787988 17.07113529 110 14.125 C107.17159994 11.10586005 105.50626342 10.18930472 101.37109375 9.6640625 C100.07300781 9.69242188 98.77492188 9.72078125 97.4375 9.75 C96.13683594 9.76289063 94.83617187 9.77578125 93.49609375 9.7890625 C90.3697929 10.08946683 88.60753355 10.46626365 86 12.125 C86.99 13.61 86.99 13.61 88 15.125 C87.67873872 17.75934254 87.18644952 19.75210097 86 22.125 C85.98012522 23.72917883 86.0072121 25.33415101 86.0625 26.9375 C86.10140325 30.78336422 85.97921869 33.7163456 84 37.125 C83.01 37.62 83.01 37.62 82 38.125 C82.350625 37.01125 82.70125 35.8975 83.0625 34.75 C84.37239331 31.32235524 84.37239331 31.32235524 83 29.125 C83.27942455 27.44845271 83.60828247 25.77891846 84 24.125 C83.01 24.125 82.02 24.125 81 24.125 C82.11179163 20.78962511 83.47411298 19.48792656 86 17.125 C85.06231164 14.06991079 85.06231164 14.06991079 83 11.125 C80.19158076 10.27670567 78.0869318 9.88391153 75.21875 9.6640625 C74.45002563 9.58376801 73.68130127 9.50347351 72.88928223 9.42074585 C70.42796038 9.17084665 67.96495857 8.9606349 65.5 8.75 C63.87214879 8.58708532 62.24453837 8.42174521 60.6171875 8.25390625 C52.40218153 7.43603507 44.26393848 6.85612325 36 7.125 C36.495 8.115 36.495 8.115 37 9.125 C37.31337847 14.66135301 36.4386757 18.2476486 34 23.125 C34.185625 23.74375 34.37125 24.3625 34.5625 25 C35 27.125 35 27.125 34.0625 28.875 C32.44610496 32.2979542 32.87464081 35.36422443 33 39.125 C32.01 39.455 31.02 39.785 30 40.125 C29.67 39.795 29.34 39.465 29 39.125 C29.7734375 38.63 29.7734375 38.63 30.5625 38.125 C32.33834722 35.65425604 32.02853971 34.98054407 31.5625 32.0625 C31.2840625 30.1134375 31.2840625 30.1134375 31 28.125 C31.66 27.465 32.32 26.805 33 26.125 C32.6730244 23.50919521 32.17960932 21.48421863 31 19.125 C31.99 19.125 32.98 19.125 34 19.125 C35.4783226 16.16835481 35.06032783 13.38270263 35 10.125 C34.34 10.125 33.68 10.125 33 10.125 C33 9.465 33 8.805 33 8.125 C32.195625 8.23328125 32.195625 8.23328125 31.375 8.34375 C25.8169062 9.00194532 20.27974669 9.28786142 14.6875 9.375 C13.6655957 9.4069043 13.6655957 9.4069043 12.62304688 9.43945312 C8.2150567 9.46979327 5.48757498 8.84391092 2 6.125 C1.34 5.135 0.68 4.145 0 3.125 C-0.66 3.125 -1.32 3.125 -2 3.125 Z " fill="#0F0F0F" transform="translate(433,214.875)"/>
<path d="M0 0 C4.95 0.33 9.9 0.66 15 1 C15 1.33 15 1.66 15 2 C11.7 2 8.4 2 5 2 C7.30922787 6.86587301 9.5642345 10.82799903 13 15 C13 15.66 13 16.32 13 17 C13.92683594 17.19335938 14.85367188 17.38671875 15.80859375 17.5859375 C17.60490234 17.97652344 17.60490234 17.97652344 19.4375 18.375 C21.22994141 18.75785156 21.22994141 18.75785156 23.05859375 19.1484375 C24.02925781 19.42945313 24.99992187 19.71046875 26 20 C27.84731376 23.69462752 27.33835422 27.95890146 27 32 C25.43358577 36.23853262 22.90772602 38.19266751 18.8984375 40.2734375 C14.66025196 41.89545913 11.21047606 41.46358657 7.0625 39.875 C5 38 5 38 4.5 35.0625 C5.02986653 31.81706751 5.79738497 30.38616629 8 28 C6.63875 27.13375 6.63875 27.13375 5.25 26.25 C2 24 2 24 0.1875 22.0625 C-2.55378882 19.47785625 -5.54270679 17.96201421 -8.87890625 16.24609375 C-11 15 -11 15 -12.359375 13.328125 C-14.05474172 11.67929341 -14.05474172 11.67929341 -17.13671875 11.92578125 C-18.30847656 12.05339844 -19.48023438 12.18101562 -20.6875 12.3125 C-21.86699219 12.43238281 -23.04648437 12.55226563 -24.26171875 12.67578125 C-25.61716797 12.83626953 -25.61716797 12.83626953 -27 13 C-27 11.68 -27 10.36 -27 9 C-23.28825543 8.21858009 -19.59589384 7.81333879 -15.8125 7.625 C-14.55373047 7.55152344 -14.55373047 7.55152344 -13.26953125 7.4765625 C-11 8 -11 8 -9.5390625 10.33203125 C-9.03117187 11.21246094 -8.52328125 12.09289062 -8 13 C-5.45068158 14.72805533 -5.45068158 14.72805533 -2.5625 16.0625 C1.34428132 17.98134089 3.98805224 19.87391528 7 23 C8.96879323 24.06011943 10.96435867 25.07470849 13 26 C12.60505827 28.86332753 12.29687606 29.77509389 9.9375 31.5625 C9.298125 32.036875 8.65875 32.51125 8 33 C8 33.99 8 34.98 8 36 C13.49541888 37.10722149 13.49541888 37.10722149 18.8125 35.9375 C21.56468184 33.49985323 22.71734522 31.44291546 24 28 C24.25196823 24.74899636 24.25196823 24.74899636 24 22 C23.46375 22.20625 22.9275 22.4125 22.375 22.625 C19.01398052 23.15568729 17.09268121 22.38855075 14 21 C9.89718669 17.61517902 7.27782758 13.51552726 4.42578125 9.09375 C2.84714093 6.7755275 1.10030985 4.85796641 -1 3 C-0.67 2.01 -0.34 1.02 0 0 Z " fill="#141414" transform="translate(27,245)"/>
<path d="M0 0 C2.64 0 5.28 0 8 0 C8.1546875 0.928125 8.1546875 0.928125 8.3125 1.875 C8.87525373 4.36526484 8.87525373 4.36526484 12 6 C11.40425532 11.36170213 11.40425532 11.36170213 9.8125 13.875 C7.09975061 15.55877549 5.12124489 15.39015561 2 15 C1.525625 14.484375 1.05125 13.96875 0.5625 13.4375 C0.046875 12.963125 -0.46875 12.48875 -1 12 C-4.57443924 12.25531709 -7.60365077 12.86788359 -11 14 C-17.69756682 14.57737645 -22.07325495 13.07312706 -28 10 C-28 9.01 -28 8.02 -28 7 C-25.03 7.33 -22.06 7.66 -19 8 C-19 7.34 -19 6.68 -19 6 C-12.95170514 5.10395632 -7.1105424 4.88730557 -1 5 C-0.67 3.35 -0.34 1.7 0 0 Z " fill="#F5F5F5" transform="translate(174,242)"/>
<path d="M0 0 C3.96 0 7.92 0 12 0 C11.01 0.33 10.02 0.66 9 1 C9.12375 2.11375 9.12375 2.11375 9.25 3.25 C8.92270681 6.85022511 7.62028072 7.60431477 5 10 C4.54625 10.763125 4.0925 11.52625 3.625 12.3125 C2.17895659 14.70403334 0.78383446 16.31276866 -1.125 18.3125 C-4.48839253 22.09215398 -4.82512568 25.01608198 -5 30 C-6.93681161 30.08107583 -8.8745934 30.13922475 -10.8125 30.1875 C-11.89144531 30.22230469 -12.97039062 30.25710938 -14.08203125 30.29296875 C-17 30 -17 30 -18.84375 28.65625 C-20.34177261 26.51043382 -20.65285529 24.56887084 -21 22 C-18.55215494 19.74045071 -17.31369786 19.02560799 -13.9375 18.75 C-11 19 -11 19 -8 20 C-7.59007813 18.97519531 -7.18015625 17.95039063 -6.7578125 16.89453125 C-4.50520833 11.26302083 -2.25260417 5.63151042 0 0 Z " fill="#F5F5F5" transform="translate(134,248)"/>
<path d="M0 0 C-0.33 0.66 -0.66 1.32 -1 2 C-2.32 2 -3.64 2 -5 2 C-5 2.66 -5 3.32 -5 4 C-4.360625 4.2475 -3.72125 4.495 -3.0625 4.75 C-1 6 -1 6 -0.25 7.6875 C0.16708565 11.54554222 0.47927342 15.37047037 -0.625 19.125 C-1.21518521 21.13431286 -1.21518521 21.13431286 0.0625 23.375 C1 26 1 26 0.4375 29.1875 C-1 32 -1 32 -3.625 33.375 C-4.40875 33.58125 -5.1925 33.7875 -6 34 C-6 31 -6 31 -4 28.8125 C-3.01 27.9153125 -3.01 27.9153125 -2 27 C-2.515625 26.113125 -3.03125 25.22625 -3.5625 24.3125 C-5.08979002 20.79309257 -5.21675714 19.548875 -4 16 C-3.67 15.67 -3.34 15.34 -3 15 C-3.66 14.67 -4.32 14.34 -5 14 C-4.42415568 11.61435923 -3.77772405 9.33317216 -3 7 C-8.60944292 3.85871197 -14.68146331 2.77369837 -21 2 C-20.67 1.34 -20.34 0.68 -20 0 C-17.22949974 -0.1946838 -14.45886998 -0.38102792 -11.6875 -0.5625 C-10.90181641 -0.61857422 -10.11613281 -0.67464844 -9.30664062 -0.73242188 C-8.1706543 -0.80493164 -8.1706543 -0.80493164 -7.01171875 -0.87890625 C-6.31522217 -0.9260376 -5.61872559 -0.97316895 -4.90112305 -1.02172852 C-3 -1 -3 -1 0 0 Z " fill="#030303" transform="translate(546,222)"/>
<path d="M0 0 C0.99 0.33 1.98 0.66 3 1 C2.01 3.31 1.02 5.62 0 8 C-5.94 8.33 -11.88 8.66 -18 9 C-18 9.66 -18 10.32 -18 11 C-20.64 10.67 -23.28 10.34 -26 10 C-25.67 9.01 -25.34 8.02 -25 7 C-9.25512528 3.55580866 -9.25512528 3.55580866 -2 4 C-1.34 2.68 -0.68 1.36 0 0 Z " fill="#1A1A1A" transform="translate(173,239)"/>
<path d="M0 0 C0 0.99 0 1.98 0 3 C-9.58509917 5.3569916 -19.17876611 5.61683071 -29 6 C-26.21015014 2.95160361 -24.37077022 2.45023442 -20.25 1.875 C-18.64318359 1.64296875 -18.64318359 1.64296875 -17.00390625 1.40625 C-16.01261719 1.2721875 -15.02132812 1.138125 -14 1 C-12.1128125 0.690625 -12.1128125 0.690625 -10.1875 0.375 C-6.76502984 -0.02764355 -3.44294093 -0.0702641 0 0 Z " fill="#242424" transform="translate(182,220)"/>
<path d="M0 0 C0.99 0.33 1.98 0.66 3 1 C2.3897536 5.14967549 0.99267393 8.32121736 -1 12 C-1.7115625 13.3921875 -1.7115625 13.3921875 -2.4375 14.8125 C-4 17 -4 17 -6.1875 17.8125 C-6.785625 17.874375 -7.38375 17.93625 -8 18 C-7.67 20.31 -7.34 22.62 -7 25 C-8.32 24.34 -9.64 23.68 -11 23 C-11 19.7 -11 16.4 -11 13 C-8.03 13.495 -8.03 13.495 -5 14 C-5 12.68 -5 11.36 -5 10 C-4.01 10 -3.02 10 -2 10 C-2.226875 9.443125 -2.45375 8.88625 -2.6875 8.3125 C-3.12446199 5.07898125 -1.78001197 3.63441772 0 1 C0 0.67 0 0.34 0 0 Z " fill="#020202" transform="translate(441,236)"/>
<path d="M0 0 C0.66 0.33 1.32 0.66 2 1 C0.125 5.75 0.125 5.75 -1 8 C-0.7215625 8.928125 -0.7215625 8.928125 -0.4375 9.875 C0 12 0 12 -0.9375 13.75 C-2.55389504 17.1729542 -2.12535919 20.23922443 -2 24 C-3.98 24.99 -3.98 24.99 -6 26 C-6.66 25.34 -7.32 24.68 -8 24 C-7.484375 23.67 -6.96875 23.34 -6.4375 23 C-4.66165278 20.52925604 -4.97146029 19.85554407 -5.4375 16.9375 C-5.623125 15.638125 -5.80875 14.33875 -6 13 C-5.34 12.34 -4.68 11.68 -4 11 C-4.32326553 7.40320934 -4.32326553 7.40320934 -5 4 C-4.01 4 -3.02 4 -2 4 C-1.34 2.68 -0.68 1.36 0 0 Z " fill="#000000" transform="translate(469,230)"/>
<path d="M0 0 C0.33 0 0.66 0 1 0 C1.33 4.95 1.66 9.9 2 15 C2.66 15 3.32 15 4 15 C5.32 19.95 6.64 24.9 8 30 C7.34 30 6.68 30 6 30 C5.505 32.475 5.505 32.475 5 35 C4.67 35 4.34 35 4 35 C3.896875 33.865625 3.79375 32.73125 3.6875 31.5625 C3.32311188 28.47055962 2.63850392 25.98588199 1.4375 23.125 C-1.21119158 15.86038475 -0.22162454 7.60910911 0 0 Z " fill="#1C1C1C" transform="translate(425,220)"/>
<path d="M0 0 C3.3 0 6.6 0 10 0 C10 0.33 10 0.66 10 1 C16.6 1.33 23.2 1.66 30 2 C30 2.33 30 2.66 30 3 C19.77 3 9.54 3 -1 3 C-0.67 2.01 -0.34 1.02 0 0 Z " fill="#1F1F1F" transform="translate(546,221)"/>
<path d="M0 0 C0.66 0.66 1.32 1.32 2 2 C1.69903201 6.13830989 1.32101984 8.51847024 -1 12 C-1.66 12 -2.32 12 -3 12 C-2.835 10.906875 -2.67 9.81375 -2.5 8.6875 C-1.93281816 5.12474127 -1.93281816 5.12474127 -2 2 C-1.34 1.34 -0.68 0.68 0 0 Z " fill="#000000" transform="translate(518,241)"/>
<path d="M0 0 C-0.309375 0.639375 -0.61875 1.27875 -0.9375 1.9375 C-2.31935403 5.92049104 -2.6536543 9.81650849 -3 14 C-3.33 14 -3.66 14 -4 14 C-5 6.375 -5 6.375 -5 3 C-2.55555556 0 -2.55555556 0 0 0 Z " fill="#4A4A4A" transform="translate(135,266)"/>
<path d="M0 0 C0.99 0.33 1.98 0.66 3 1 C2.01 3.64 1.02 6.28 0 9 C-0.99 8.67 -1.98 8.34 -3 8 C-1.125 2.25 -1.125 2.25 0 0 Z " fill="#242424" transform="translate(129,255)"/>
<path d="M0 0 C2.4375 0.8125 2.4375 0.8125 5 2 C5.33 2.99 5.66 3.98 6 5 C3 5 3 5 0.8125 3 C0.214375 2.34 -0.38375 1.68 -1 1 C-0.67 0.67 -0.34 0.34 0 0 Z " fill="#000000" transform="translate(565,255)"/>
</svg>
