<?xml version="1.0" encoding="UTF-8"?>
<svg version="1.1" xmlns="http://www.w3.org/2000/svg" width="800" height="300">
<path d="M0 0 C264 0 528 0 800 0 C800 99 800 198 800 300 C536 300 272 300 0 300 C0 201 0 102 0 0 Z " fill="#FEFEFE" transform="translate(0,0)"/>
<path d="M0 0 C3 1.125 3 1.125 5 3.6875 C9.32001529 7.19751242 13.01420795 6.59726205 18.4296875 6.49609375 C22.01158558 6.23583078 22.01158558 6.23583078 25.37890625 5.11328125 C29.72194312 3.92796482 33.58676641 3.82463072 38.0625 3.875 C38.917229 3.87959229 39.77195801 3.88418457 40.65258789 3.88891602 C51.61101098 4.03859687 63.01807355 4.52413677 73.78515625 6.68359375 C80.82494371 8.0865849 88.40862453 7.17685983 95.53857422 6.76416016 C105.97627002 6.1740504 116.4101612 5.95654549 126.86279297 5.89282227 C128.52755234 5.88101202 130.19228348 5.86398605 131.85693359 5.84155273 C134.22511537 5.81141051 136.59258459 5.80161354 138.9609375 5.796875 C139.6675351 5.78456848 140.37413269 5.77226196 141.10214233 5.75958252 C146.17862453 5.78191008 149.57350682 6.81558656 154 9.125 C155.125 11.0625 155.125 11.0625 156 13.125 C157.65788785 14.46923339 159.32576317 15.80118483 161 17.125 C166.84894313 23.54457172 170.43621605 29.48716048 171.3125 38.25 C170.50377503 48.27818958 165.21584103 59.73516824 158.5 67.25 C153.59544727 70.92841455 147.51979135 70.25205331 141.61328125 70.1875 C140.79796432 70.18371338 139.9826474 70.17992676 139.1426239 70.17602539 C135.69405414 70.15997515 132.245609 70.13260761 128.79711914 70.10449219 C119.32798193 70.03416536 109.89614519 70.09692316 100.43473816 70.52130127 C85.70750233 71.18117987 71.09029734 71.04011423 56.35986328 70.51074219 C52.44729389 70.37314645 48.53447789 70.26017907 44.62109375 70.1484375 C42.09109647 70.06396567 39.56114587 69.97808136 37.03125 69.890625 C35.88217163 69.85922424 34.73309326 69.82782349 33.54919434 69.79547119 C23.3765977 69.39496198 11.83441329 68.06975681 4.34765625 60.44140625 C-1.82681152 52.93844664 -3.0637654 44.33844549 -4.4609375 34.97265625 C-4.94344294 32.42376882 -5.62919869 30.37782463 -6.625 28 C-8.28641092 23.3583262 -8.40171748 18.75701372 -8.5 13.875 C-8.5304541 13.09366699 -8.5609082 12.31233398 -8.59228516 11.50732422 C-8.59503932 7.23378247 -8.35530653 5.58571414 -5.65625 2.0859375 C-3 0.125 -3 0.125 0 0 Z " fill="#646464" transform="translate(433,214.875)"/>
<path d="M0 0 C2.21988256 1.46944439 4.01475245 2.83174852 5.76953125 4.8359375 C6.31279904 8.45772276 6.40855625 10.5578875 4.76953125 13.8359375 C5.49140625 13.8978125 6.21328125 13.9596875 6.95703125 14.0234375 C13.12284343 15.80467213 17.45005317 22.55363761 20.76953125 27.8359375 C23.76163051 34.15535045 24.69874038 41.21463159 26.0234375 48.0234375 C26.71829932 51.57414505 27.4217091 55.11661033 28.20703125 58.6484375 C28.41199219 59.60363281 28.61695313 60.55882812 28.828125 61.54296875 C29.57722508 63.99787462 29.57722508 63.99787462 31.8671875 65.16015625 C32.80884766 65.49466797 32.80884766 65.49466797 33.76953125 65.8359375 C33.76953125 66.4959375 33.76953125 67.1559375 33.76953125 67.8359375 C34.63578125 68.0215625 34.63578125 68.0215625 35.51953125 68.2109375 C37.76953125 68.8359375 37.76953125 68.8359375 39.54663086 69.8059082 C48.50270577 73.95590052 60.06283021 73.17335792 69.70703125 73.1484375 C70.98126953 73.16455078 72.25550781 73.18066406 73.56835938 73.19726562 C74.79876953 73.19791016 76.02917969 73.19855469 77.296875 73.19921875 C78.94804321 73.20369019 78.94804321 73.20369019 80.63256836 73.20825195 C84.23412879 72.78079615 86.54620891 71.4576764 89.76953125 69.8359375 C93.21362305 69.25170898 93.21362305 69.25170898 96.96875 68.95703125 C97.64444534 68.8994313 98.32014069 68.84183136 99.01631165 68.78248596 C101.1624522 68.60117662 103.30941566 68.43625662 105.45703125 68.2734375 C108.27405727 68.05011902 111.09035645 67.81919304 113.90625 67.58203125 C114.58563126 67.52549377 115.26501251 67.4689563 115.96498108 67.41070557 C120.88990683 66.97623797 125.68927649 66.23900613 130.52783203 65.23510742 C133.66180846 64.67705346 136.59587268 64.69488601 139.76953125 64.8359375 C139.85203125 64.1140625 139.93453125 63.3921875 140.01953125 62.6484375 C140.97588108 59.06212564 141.99588675 57.32510564 144.76953125 54.8359375 C147.72234733 54.21029132 149.68773417 54.43828626 152.76953125 54.8359375 C155.05966778 58.2711423 154.94796098 59.8212685 154.76953125 63.8359375 C156.16171875 64.42375 156.16171875 64.42375 157.58203125 65.0234375 C161.13438454 67.0434031 162.33392363 68.0357997 163.76953125 71.8359375 C163.70758765 74.6130757 163.28208665 77.08677674 162.76953125 79.8359375 C162.10953125 79.8359375 161.44953125 79.8359375 160.76953125 79.8359375 C160.57617188 80.43921875 160.3828125 81.0425 160.18359375 81.6640625 C158.11407353 84.84266262 155.67140879 85.34115719 152.14453125 86.5859375 C150.95601562 87.01390625 149.7675 87.441875 148.54296875 87.8828125 C147.62773437 88.19734375 146.7125 88.511875 145.76953125 88.8359375 C145.99640625 90.0528125 146.22328125 91.2696875 146.45703125 92.5234375 C146.83687722 95.59476349 146.82340128 96.70835059 145.58203125 99.6484375 C142.80292062 103.00253654 141.19334752 104.65796047 136.76953125 105.2109375 C133.76953125 104.8359375 133.76953125 104.8359375 131.89453125 103.2109375 C131.19328125 102.7571875 130.49203125 102.3034375 129.76953125 101.8359375 C127.87247486 102.30188117 125.97690711 102.77980365 124.10546875 103.33984375 C116.55237223 104.94392946 108.77884176 102.58774089 101.76953125 99.8359375 C101.46660156 100.33222656 101.16367188 100.82851562 100.8515625 101.33984375 C97.99293766 105.97521388 95.09614037 110.52033648 91.76953125 114.8359375 C91.10953125 114.8359375 90.44953125 114.8359375 89.76953125 114.8359375 C89.76953125 118.4659375 89.76953125 122.0959375 89.76953125 125.8359375 C87.18507352 125.9441241 84.60515773 126.02330987 82.01953125 126.0859375 C81.28992188 126.11945313 80.5603125 126.15296875 79.80859375 126.1875 C76.2907282 126.25146119 74.21062974 126.15341603 71.31640625 124.0703125 C68.8198911 120.46423506 68.76953125 118.23502577 68.76953125 113.8359375 C70.08203125 111.4609375 70.08203125 111.4609375 72.76953125 109.8359375 C74.41124297 109.57890183 76.05792561 109.35272969 77.70703125 109.1484375 C80.90651937 108.62934651 82.32131635 108.34093981 84.49609375 105.890625 C86.80023016 101.80785697 87.83761948 98.49549636 88.76953125 93.8359375 C56.42953125 93.8359375 24.08953125 93.8359375 -9.23046875 93.8359375 C-3.25337932 104.12089668 -3.25337932 104.12089668 6.45703125 109.0234375 C7.22402344 109.14074219 7.99101563 109.25804687 8.78125 109.37890625 C10.76953125 109.8359375 10.76953125 109.8359375 12.76953125 111.8359375 C13.39791999 116.53961207 13.4428242 121.82599808 10.76953125 125.8359375 C7.0632826 129.0367886 3.48677758 131.14321007 -1.48046875 131.2734375 C-7.32175506 130.5919541 -7.32175506 130.5919541 -9.23046875 128.8359375 C-10.16796875 125.4609375 -10.16796875 125.4609375 -10.23046875 121.8359375 C-8.79296875 119.3984375 -8.79296875 119.3984375 -7.23046875 117.8359375 C-8.13796875 117.2584375 -9.04546875 116.6809375 -9.98046875 116.0859375 C-13.23046875 113.8359375 -13.23046875 113.8359375 -15.04296875 111.8984375 C-17.8005738 109.29840988 -20.82097937 107.84459009 -24.20703125 106.1796875 C-26.52005565 104.64362496 -27.22531958 103.38663861 -28.23046875 100.8359375 C-31.69546875 101.3309375 -31.69546875 101.3309375 -35.23046875 101.8359375 C-35.23046875 71.4759375 -35.23046875 41.1159375 -35.23046875 9.8359375 C-21.23046875 9.8359375 -21.23046875 9.8359375 -17.23046875 11.8359375 C-17.35421875 10.258125 -17.35421875 10.258125 -17.48046875 8.6484375 C-17.19043292 4.22539105 -16.36165993 2.88015115 -13.23046875 -0.1640625 C-9.01423305 -3.36258613 -4.48983358 -2.34320562 0 0 Z " fill="#FCFCFC" transform="translate(35.23046875,155.1640625)"/>
<path d="M0 0 C2.21988256 1.46944439 4.01475245 2.83174852 5.76953125 4.8359375 C6.31279904 8.45772276 6.40855625 10.5578875 4.76953125 13.8359375 C5.49140625 13.8978125 6.21328125 13.9596875 6.95703125 14.0234375 C13.12284343 15.80467213 17.45005317 22.55363761 20.76953125 27.8359375 C23.76163051 34.15535045 24.69874038 41.21463159 26.0234375 48.0234375 C26.71829932 51.57414505 27.4217091 55.11661033 28.20703125 58.6484375 C28.41199219 59.60363281 28.61695313 60.55882812 28.828125 61.54296875 C29.57722508 63.99787462 29.57722508 63.99787462 31.8671875 65.16015625 C32.80884766 65.49466797 32.80884766 65.49466797 33.76953125 65.8359375 C33.76953125 66.4959375 33.76953125 67.1559375 33.76953125 67.8359375 C34.63578125 68.0215625 34.63578125 68.0215625 35.51953125 68.2109375 C37.76953125 68.8359375 37.76953125 68.8359375 39.54663086 69.8059082 C48.50270577 73.95590052 60.06283021 73.17335792 69.70703125 73.1484375 C70.98126953 73.16455078 72.25550781 73.18066406 73.56835938 73.19726562 C74.79876953 73.19791016 76.02917969 73.19855469 77.296875 73.19921875 C78.94804321 73.20369019 78.94804321 73.20369019 80.63256836 73.20825195 C84.23412879 72.78079615 86.54620891 71.4576764 89.76953125 69.8359375 C93.21362305 69.25170898 93.21362305 69.25170898 96.96875 68.95703125 C97.64444534 68.8994313 98.32014069 68.84183136 99.01631165 68.78248596 C101.1624522 68.60117662 103.30941566 68.43625662 105.45703125 68.2734375 C108.27405727 68.05011902 111.09035645 67.81919304 113.90625 67.58203125 C114.58563126 67.52549377 115.26501251 67.4689563 115.96498108 67.41070557 C120.88990683 66.97623797 125.68927649 66.23900613 130.52783203 65.23510742 C133.66180846 64.67705346 136.59587268 64.69488601 139.76953125 64.8359375 C139.85203125 64.1140625 139.93453125 63.3921875 140.01953125 62.6484375 C140.97588108 59.06212564 141.99588675 57.32510564 144.76953125 54.8359375 C147.72234733 54.21029132 149.68773417 54.43828626 152.76953125 54.8359375 C155.05966778 58.2711423 154.94796098 59.8212685 154.76953125 63.8359375 C156.16171875 64.42375 156.16171875 64.42375 157.58203125 65.0234375 C161.13438454 67.0434031 162.33392363 68.0357997 163.76953125 71.8359375 C163.70758765 74.6130757 163.28208665 77.08677674 162.76953125 79.8359375 C162.10953125 79.8359375 161.44953125 79.8359375 160.76953125 79.8359375 C160.57617188 80.43921875 160.3828125 81.0425 160.18359375 81.6640625 C158.11407353 84.84266262 155.67140879 85.34115719 152.14453125 86.5859375 C150.95601562 87.01390625 149.7675 87.441875 148.54296875 87.8828125 C147.62773437 88.19734375 146.7125 88.511875 145.76953125 88.8359375 C145.99640625 90.0528125 146.22328125 91.2696875 146.45703125 92.5234375 C146.83687722 95.59476349 146.82340128 96.70835059 145.58203125 99.6484375 C142.80292062 103.00253654 141.19334752 104.65796047 136.76953125 105.2109375 C133.76953125 104.8359375 133.76953125 104.8359375 131.89453125 103.2109375 C131.19328125 102.7571875 130.49203125 102.3034375 129.76953125 101.8359375 C127.87247486 102.30188117 125.97690711 102.77980365 124.10546875 103.33984375 C116.55237223 104.94392946 108.77884176 102.58774089 101.76953125 99.8359375 C101.46660156 100.33222656 101.16367188 100.82851562 100.8515625 101.33984375 C97.99293766 105.97521388 95.09614037 110.52033648 91.76953125 114.8359375 C91.10953125 114.8359375 90.44953125 114.8359375 89.76953125 114.8359375 C89.76953125 118.4659375 89.76953125 122.0959375 89.76953125 125.8359375 C87.18507352 125.9441241 84.60515773 126.02330987 82.01953125 126.0859375 C81.28992188 126.11945313 80.5603125 126.15296875 79.80859375 126.1875 C76.2907282 126.25146119 74.21062974 126.15341603 71.31640625 124.0703125 C68.8198911 120.46423506 68.76953125 118.23502577 68.76953125 113.8359375 C70.08203125 111.4609375 70.08203125 111.4609375 72.76953125 109.8359375 C74.41124297 109.57890183 76.05792561 109.35272969 77.70703125 109.1484375 C80.90651937 108.62934651 82.32131635 108.34093981 84.49609375 105.890625 C86.80023016 101.80785697 87.83761948 98.49549636 88.76953125 93.8359375 C56.42953125 93.8359375 24.08953125 93.8359375 -9.23046875 93.8359375 C-3.25337932 104.12089668 -3.25337932 104.12089668 6.45703125 109.0234375 C7.22402344 109.14074219 7.99101563 109.25804687 8.78125 109.37890625 C10.76953125 109.8359375 10.76953125 109.8359375 12.76953125 111.8359375 C13.39791999 116.53961207 13.4428242 121.82599808 10.76953125 125.8359375 C7.0632826 129.0367886 3.48677758 131.14321007 -1.48046875 131.2734375 C-7.32175506 130.5919541 -7.32175506 130.5919541 -9.23046875 128.8359375 C-10.16796875 125.4609375 -10.16796875 125.4609375 -10.23046875 121.8359375 C-8.79296875 119.3984375 -8.79296875 119.3984375 -7.23046875 117.8359375 C-8.13796875 117.2584375 -9.04546875 116.6809375 -9.98046875 116.0859375 C-13.23046875 113.8359375 -13.23046875 113.8359375 -15.04296875 111.8984375 C-17.8005738 109.29840988 -20.82097937 107.84459009 -24.20703125 106.1796875 C-26.52005565 104.64362496 -27.22531958 103.38663861 -28.23046875 100.8359375 C-31.69546875 101.3309375 -31.69546875 101.3309375 -35.23046875 101.8359375 C-35.23046875 100.5159375 -35.23046875 99.1959375 -35.23046875 97.8359375 C-31.93046875 97.8359375 -28.63046875 97.8359375 -25.23046875 97.8359375 C-24.90046875 99.1559375 -24.57046875 100.4759375 -24.23046875 101.8359375 C-22.15705009 103.33535891 -20.197834 104.5938248 -17.98046875 105.8359375 C-13.78053966 108.26847561 -9.97363761 110.74798537 -6.23046875 113.8359375 C-4.58019935 114.8627718 -2.91803008 115.87161674 -1.23046875 116.8359375 C-2.5110936 118.5434373 -3.84814432 120.20967346 -5.23046875 121.8359375 C-5.89046875 121.8359375 -6.55046875 121.8359375 -7.23046875 121.8359375 C-7.23046875 123.4859375 -7.23046875 125.1359375 -7.23046875 126.8359375 C-2.03837471 127.04785971 1.89627025 126.4272064 6.76953125 124.8359375 C8.20919916 118.38717656 8.20919916 118.38717656 8.76953125 111.8359375 C7.59390625 111.9596875 6.41828125 112.0834375 5.20703125 112.2109375 C0.69189177 112.20296022 -1.44461064 110.69633814 -4.62890625 107.62109375 C-8.17705785 103.66620282 -10.86068146 99.57551209 -13.23046875 94.8359375 C-14.77169995 93.12672161 -14.77169995 93.12672161 -16.23046875 91.8359375 C-15.90046875 91.1759375 -15.57046875 90.5159375 -15.23046875 89.8359375 C-4.33613775 89.70371107 6.55821262 89.57321858 17.45258904 89.44478607 C22.51430127 89.38506294 27.57600573 89.32479912 32.63769531 89.26318359 C44.02410114 89.12489291 55.4105304 88.99632156 66.79724121 88.88574219 C69.94028407 88.85507817 73.08324234 88.82092294 76.22619629 88.78222656 C79.95151633 88.73665439 83.67683834 88.70657945 87.40234375 88.6796875 C88.44405731 88.664823 89.48577087 88.6499585 90.55905151 88.63464355 C91.48847565 88.63081665 92.41789978 88.62698975 93.37548828 88.62304688 C94.55499557 88.61210999 94.55499557 88.61210999 95.7583313 88.60095215 C97.76953125 88.8359375 97.76953125 88.8359375 100.76953125 90.8359375 C100.76953125 91.4959375 100.76953125 92.1559375 100.76953125 92.8359375 C97.79953125 92.8359375 94.82953125 92.8359375 91.76953125 92.8359375 C91.66769531 93.66351563 91.56585938 94.49109375 91.4609375 95.34375 C90.66009109 99.38870303 89.2903287 102.91984013 87.70703125 106.7109375 C87.42537109 107.39929688 87.14371094 108.08765625 86.85351562 108.796875 C86.16437859 110.47883659 85.46772327 112.15771447 84.76953125 113.8359375 C80.47953125 113.8359375 76.18953125 113.8359375 71.76953125 113.8359375 C72.75953125 116.4759375 73.74953125 119.1159375 74.76953125 121.8359375 C78.72953125 122.1659375 82.68953125 122.4959375 86.76953125 122.8359375 C86.76953125 120.1959375 86.76953125 117.5559375 86.76953125 114.8359375 C87.42953125 114.8359375 88.08953125 114.8359375 88.76953125 114.8359375 C88.76953125 114.1759375 88.76953125 113.5159375 88.76953125 112.8359375 C89.42953125 112.8359375 90.08953125 112.8359375 90.76953125 112.8359375 C91.03765625 112.0728125 91.30578125 111.3096875 91.58203125 110.5234375 C92.75478616 107.86930796 93.72634487 106.79739642 95.76953125 104.8359375 C98.14462202 101.32080316 99.543804 97.89026609 100.76953125 93.8359375 C102.08953125 93.8359375 103.40953125 93.8359375 104.76953125 93.8359375 C105.09953125 92.8459375 105.42953125 91.8559375 105.76953125 90.8359375 C106.76855469 90.70316406 107.76757812 90.57039063 108.796875 90.43359375 C110.73240234 90.16869141 110.73240234 90.16869141 112.70703125 89.8984375 C114.63869141 89.63740234 114.63869141 89.63740234 116.609375 89.37109375 C119.62419438 89.17431327 119.62419438 89.17431327 120.76953125 87.8359375 C123.44011976 87.69478589 126.09385363 87.79346643 128.76953125 87.8359375 C129.09953125 86.8459375 129.42953125 85.8559375 129.76953125 84.8359375 C132.50286711 83.46926957 134.59338143 83.85118391 137.64453125 83.9609375 C148.9575789 84.03888561 148.9575789 84.03888561 158.625 79.0234375 C160.01620896 76.36447157 159.93167141 75.02007664 159.45703125 72.0859375 C159.23015625 70.6834375 159.00328125 69.2809375 158.76953125 67.8359375 C155.46953125 67.8359375 152.16953125 67.8359375 148.76953125 67.8359375 C149.09953125 67.1346875 149.42953125 66.4334375 149.76953125 65.7109375 C150.85997687 62.57590634 150.92275768 60.13030568 150.76953125 56.8359375 C148.29997731 57.25216348 148.29997731 57.25216348 145.76953125 58.8359375 C144.90450888 60.85717788 144.33558423 62.82071843 143.8359375 64.9609375 C142.76953125 66.8359375 142.76953125 66.8359375 140.44921875 67.98828125 C135.12049673 69.21581063 129.76320826 69.80267867 124.33203125 70.3984375 C122.12492712 70.64909871 119.91789377 70.90038401 117.7109375 71.15234375 C116.67670654 71.26860107 115.64247559 71.3848584 114.5769043 71.50463867 C112.29685921 71.77370739 110.03120095 72.07747887 107.76171875 72.421875 C104.03657608 72.93736472 100.52428043 72.90181029 96.76953125 72.8359375 C96.76953125 73.4959375 96.76953125 74.1559375 96.76953125 74.8359375 C76.54030997 78.63103429 48.75653361 81.21552821 30.78515625 69.43359375 C26.2928735 65.87285025 24.32209453 63.64297779 23.42578125 57.85546875 C23.23113281 56.69080078 23.03648438 55.52613281 22.8359375 54.32617188 C22.64902344 53.11251953 22.46210937 51.89886719 22.26953125 50.6484375 C20.37148813 38.52059648 17.90490689 27.66806416 8.76953125 18.8359375 C6.31326532 17.60302581 4.52521487 17.22960659 1.76953125 16.8359375 C1.85654297 15.82273438 1.85654297 15.82273438 1.9453125 14.7890625 C2.31237404 9.07962785 2.31237404 9.07962785 -0.23046875 4.1484375 C-4.48562776 2.28680543 -6.72636349 2.72837063 -11.23046875 3.8359375 C-13.36633553 7.03973767 -13.4617905 7.85533717 -13.35546875 11.5234375 C-13.32839844 12.73580078 -13.32839844 12.73580078 -13.30078125 13.97265625 C-13.27757813 14.58753906 -13.254375 15.20242187 -13.23046875 15.8359375 C-18.98046875 15.9609375 -18.98046875 15.9609375 -21.23046875 14.8359375 C-23.60170121 14.60563794 -25.97788818 14.42473808 -28.35546875 14.2734375 C-29.63679688 14.18964844 -30.918125 14.10585937 -32.23828125 14.01953125 C-33.71941406 13.92865234 -33.71941406 13.92865234 -35.23046875 13.8359375 C-35.23046875 12.5159375 -35.23046875 11.1959375 -35.23046875 9.8359375 C-32.98073428 9.7817995 -30.73062492 9.74308259 -28.48046875 9.7109375 C-27.2275 9.68773437 -25.97453125 9.66453125 -24.68359375 9.640625 C-21.50226383 9.82056448 -19.86524979 10.14595168 -17.23046875 11.8359375 C-17.35421875 10.258125 -17.35421875 10.258125 -17.48046875 8.6484375 C-17.19043292 4.22539105 -16.36165993 2.88015115 -13.23046875 -0.1640625 C-9.01423305 -3.36258613 -4.48983358 -2.34320562 0 0 Z " fill="#1C1C1C" transform="translate(35.23046875,155.1640625)"/>
<path d="M0 0 C3 1.125 3 1.125 5 3.6875 C9.32001529 7.19751242 13.01420795 6.59726205 18.4296875 6.49609375 C22.01158558 6.23583078 22.01158558 6.23583078 25.37890625 5.11328125 C29.72194312 3.92796482 33.58676641 3.82463072 38.0625 3.875 C38.917229 3.87959229 39.77195801 3.88418457 40.65258789 3.88891602 C51.61101098 4.03859687 63.01807355 4.52413677 73.78515625 6.68359375 C80.82494371 8.0865849 88.40862453 7.17685983 95.53857422 6.76416016 C105.97627002 6.1740504 116.4101612 5.95654549 126.86279297 5.89282227 C128.52755234 5.88101202 130.19228348 5.86398605 131.85693359 5.84155273 C134.22511537 5.81141051 136.59258459 5.80161354 138.9609375 5.796875 C139.6675351 5.78456848 140.37413269 5.77226196 141.10214233 5.75958252 C146.17862453 5.78191008 149.57350682 6.81558656 154 9.125 C155.125 11.0625 155.125 11.0625 156 13.125 C157.65788785 14.46923339 159.32576317 15.80118483 161 17.125 C166.84894313 23.54457172 170.43621605 29.48716048 171.3125 38.25 C170.50377503 48.27818958 165.21584103 59.73516824 158.5 67.25 C153.59544727 70.92841455 147.51979135 70.25205331 141.61328125 70.1875 C140.79796432 70.18371338 139.9826474 70.17992676 139.1426239 70.17602539 C135.69405414 70.15997515 132.245609 70.13260761 128.79711914 70.10449219 C119.32798193 70.03416536 109.89614519 70.09692316 100.43473816 70.52130127 C85.70750233 71.18117987 71.09029734 71.04011423 56.35986328 70.51074219 C52.44729389 70.37314645 48.53447789 70.26017907 44.62109375 70.1484375 C42.09109647 70.06396567 39.56114587 69.97808136 37.03125 69.890625 C35.88217163 69.85922424 34.73309326 69.82782349 33.54919434 69.79547119 C23.3765977 69.39496198 11.83441329 68.06975681 4.34765625 60.44140625 C-1.82681152 52.93844664 -3.0637654 44.33844549 -4.4609375 34.97265625 C-4.94344294 32.42376882 -5.62919869 30.37782463 -6.625 28 C-8.28641092 23.3583262 -8.40171748 18.75701372 -8.5 13.875 C-8.5304541 13.09366699 -8.5609082 12.31233398 -8.59228516 11.50732422 C-8.59503932 7.23378247 -8.35530653 5.58571414 -5.65625 2.0859375 C-3 0.125 -3 0.125 0 0 Z M-2 3.125 C-5.34219637 6.76799404 -5.86682069 9.94781704 -6.19921875 14.7578125 C-5.95003152 18.96956534 -5.0251107 22.72175764 -3.8125 26.75 C-3.60431641 27.46124023 -3.39613281 28.17248047 -3.18164062 28.90527344 C-2.48498439 31.15772482 -2.48498439 31.15772482 -1 34.125 C1.05763303 35.20031087 1.05763303 35.20031087 3 35.125 C3 33.805 3 32.485 3 31.125 C3.99 31.125 4.98 31.125 6 31.125 C6.1546875 30.01125 6.1546875 30.01125 6.3125 28.875 C7.04253504 25.95485982 8.06789398 24.39312446 10 22.125 C9.39050431 26.2695707 7.96084772 29.4386063 6 33.125 C5.690625 33.8675 5.38125 34.61 5.0625 35.375 C3.7196378 37.58677303 2.28882417 38.01750443 0 39.125 C-1.80310102 44.53430306 0.85118344 50.03032809 3 55.125 C4.89597259 57.55165194 6.29919246 58.5397434 9 60.125 C9.66 60.125 10.32 60.125 11 60.125 C11 60.785 11 61.445 11 62.125 C21.26154022 65.59645722 30.67541799 66.20126388 41.4375 66.25 C42.77143799 66.25713013 42.77143799 66.25713013 44.13232422 66.2644043 C45.39520264 66.26114136 45.39520264 66.26114136 46.68359375 66.2578125 C47.82139282 66.25612061 47.82139282 66.25612061 48.98217773 66.25439453 C51.20626495 66.197839 51.20626495 66.197839 54 65.125 C54.20086443 61.40900809 54.1519437 60.35291555 52 57.125 C52.875 54.4375 52.875 54.4375 54 52.125 C53.01 51.135 52.02 50.145 51 49.125 C51.680625 48.568125 52.36125 48.01125 53.0625 47.4375 C55.28097119 45.29246056 55.28097119 45.29246056 55 42.5 C54.20423043 39.98006227 54.20423043 39.98006227 51.9375 38.8125 C51.298125 38.585625 50.65875 38.35875 50 38.125 C50.495 37.135 50.495 37.135 51 36.125 C52.875 36.75 52.875 36.75 55 38.125 C57.27878599 42.7910856 56.96687605 46.11482411 56 51.125 C54.96234078 57.03965756 55.10030096 61.42590287 57 67.125 C58.95486328 67.10953125 58.95486328 67.10953125 60.94921875 67.09375 C65.58771764 67.09375 70.18493274 67.33249253 74.8125 67.625 C81.91885989 68.03528471 89.0067453 68.23457722 96.125 68.25 C97.43174683 68.25676758 97.43174683 68.25676758 98.76489258 68.26367188 C102.69673607 68.64435259 102.69673607 68.64435259 106 67.125 C108.67250538 67.10412105 111.32900188 67.1313335 114 67.1875 C120.31908812 67.26676106 125.88847363 66.90289858 132 65.125 C132.94125778 61.46455306 133.65698407 57.89817527 134 54.125 C133.34 53.135 132.68 52.145 132 51.125 C133.98 48.155 133.98 48.155 136 45.125 C134.02 43.145 134.02 43.145 132 41.125 C133.32 41.455 134.64 41.785 136 42.125 C136.625 44.5 136.625 44.5 137 47.125 C136.01 48.115 136.01 48.115 135 49.125 C135.165 50.218125 135.33 51.31125 135.5 52.4375 C136.03296631 56.36812655 135.48213276 57.6049347 134 61.125 C134.27701774 62.80194665 134.60458862 64.47196076 135 66.125 C146.213767 67.99624647 146.213767 67.99624647 156.609375 64.953125 C163.05860623 58.23794609 167.90754151 47.33286442 169 38.125 C167.48779932 29.66347263 161.28652745 21.7130244 155 16.125 C154.01 15.63 154.01 15.63 153 15.125 C152.61781233 16.78114657 152.28604898 18.44957024 152 20.125 C152.33 20.455 152.66 20.785 153 21.125 C153.2165625 22.73375 153.2165625 22.73375 153.4375 24.375 C153.82799456 28.02222987 153.82799456 28.02222987 155.125 30.8125 C156.11341176 33.42473109 155.95398577 34.54923842 155 37.125 C152.525 37.62 152.525 37.62 150 38.125 C151 36.125 151 36.125 154 34.125 C153.505 33.238125 153.01 32.35125 152.5 31.4375 C151.05621326 28.24913762 150.69840078 26.54312454 151 23.125 C149.68 22.795 148.36 22.465 147 22.125 C148.98 17.67 148.98 17.67 151 13.125 C145.21350937 9.83307915 141.17561486 8.54587548 134.5625 8.734375 C133.79695801 8.74003479 133.03141602 8.74569458 132.24267578 8.75152588 C129.82777979 8.77369165 127.41443777 8.82384461 125 8.875 C123.35028204 8.89509085 121.70054052 8.91333706 120.05078125 8.9296875 C116.03326695 8.97349057 112.01689574 9.04237398 108 9.125 C108 9.785 108 10.445 108 11.125 C108.99 11.8984375 108.99 11.8984375 110 12.6875 C112.61592046 15.87565306 112.36839565 17.90694411 112.23828125 21.90625 C112 24.125 112 24.125 111.41796875 26.25390625 C110.7829888 28.25792357 110.7829888 28.25792357 112 30.5625 C113.20265703 33.64430863 113.24108827 35.06364894 112 38.125 C109.4375 39.4375 109.4375 39.4375 107 40.125 C108.65 38.145 110.3 36.165 112 34.125 C111.484375 33.238125 110.96875 32.35125 110.4375 31.4375 C108.8982735 27.89058677 108.80781918 26.70154245 110 23.125 C110.33 22.465 110.66 21.805 111 21.125 C110.01 21.125 109.02 21.125 108 21.125 C108.33 20.526875 108.66 19.92875 109 19.3125 C110.20787988 17.07113529 110.20787988 17.07113529 110 14.125 C107.17159994 11.10586005 105.50626342 10.18930472 101.37109375 9.6640625 C100.07300781 9.69242188 98.77492188 9.72078125 97.4375 9.75 C96.13683594 9.76289063 94.83617187 9.77578125 93.49609375 9.7890625 C90.3697929 10.08946683 88.60753355 10.46626365 86 12.125 C86.99 13.61 86.99 13.61 88 15.125 C87.67873872 17.75934254 87.18644952 19.75210097 86 22.125 C85.98012522 23.72917883 86.0072121 25.33415101 86.0625 26.9375 C86.10140325 30.78336422 85.97921869 33.7163456 84 37.125 C83.01 37.62 83.01 37.62 82 38.125 C82.350625 37.01125 82.70125 35.8975 83.0625 34.75 C84.37239331 31.32235524 84.37239331 31.32235524 83 29.125 C83.27942455 27.44845271 83.60828247 25.77891846 84 24.125 C83.01 24.125 82.02 24.125 81 24.125 C82.11179163 20.78962511 83.47411298 19.48792656 86 17.125 C85.06231164 14.06991079 85.06231164 14.06991079 83 11.125 C80.19158076 10.27670567 78.0869318 9.88391153 75.21875 9.6640625 C74.45002563 9.58376801 73.68130127 9.50347351 72.88928223 9.42074585 C70.42796038 9.17084665 67.96495857 8.9606349 65.5 8.75 C63.87214879 8.58708532 62.24453837 8.42174521 60.6171875 8.25390625 C52.40218153 7.43603507 44.26393848 6.85612325 36 7.125 C36.495 8.115 36.495 8.115 37 9.125 C37.31337847 14.66135301 36.4386757 18.2476486 34 23.125 C34.185625 23.74375 34.37125 24.3625 34.5625 25 C35 27.125 35 27.125 34.0625 28.875 C32.44610496 32.2979542 32.87464081 35.36422443 33 39.125 C32.01 39.455 31.02 39.785 30 40.125 C29.67 39.795 29.34 39.465 29 39.125 C29.7734375 38.63 29.7734375 38.63 30.5625 38.125 C32.33834722 35.65425604 32.02853971 34.98054407 31.5625 32.0625 C31.2840625 30.1134375 31.2840625 30.1134375 31 28.125 C31.66 27.465 32.32 26.805 33 26.125 C32.6730244 23.50919521 32.17960932 21.48421863 31 19.125 C31.99 19.125 32.98 19.125 34 19.125 C35.4783226 16.16835481 35.06032783 13.38270263 35 10.125 C34.34 10.125 33.68 10.125 33 10.125 C33 9.465 33 8.805 33 8.125 C32.195625 8.23328125 32.195625 8.23328125 31.375 8.34375 C25.8169062 9.00194532 20.27974669 9.28786142 14.6875 9.375 C13.6655957 9.4069043 13.6655957 9.4069043 12.62304688 9.43945312 C8.2150567 9.46979327 5.48757498 8.84391092 2 6.125 C1.34 5.135 0.68 4.145 0 3.125 C-0.66 3.125 -1.32 3.125 -2 3.125 Z " fill="#0F0F0F" transform="translate(433,214.875)"/>
<path d="M0 0 C3.72532004 -0.04557218 7.45064205 -0.07564711 11.17614746 -0.10253906 C12.7387178 -0.12483582 12.7387178 -0.12483582 14.33285522 -0.14758301 C15.26227936 -0.15140991 16.19170349 -0.15523682 17.14929199 -0.15917969 C18.32879929 -0.17011658 18.32879929 -0.17011658 19.53213501 -0.18127441 C21.54333496 0.05371094 21.54333496 0.05371094 24.54333496 2.05371094 C24.54333496 2.71371094 24.54333496 3.37371094 24.54333496 4.05371094 C21.57333496 4.05371094 18.60333496 4.05371094 15.54333496 4.05371094 C15.44149902 4.88128906 15.33966309 5.70886719 15.23474121 6.56152344 C14.4338948 10.60647647 13.06413241 14.13761357 11.48083496 17.92871094 C11.1991748 18.61707031 10.91751465 19.30542969 10.62731934 20.01464844 C9.9381823 21.69661002 9.24152698 23.37548791 8.54333496 25.05371094 C4.25333496 25.05371094 -0.03666504 25.05371094 -4.45666504 25.05371094 C-4.95166504 26.53871094 -4.95166504 26.53871094 -5.45666504 28.05371094 C-6.11666504 28.71371094 -6.77666504 29.37371094 -7.45666504 30.05371094 C-7.09319307 23.63237278 -7.09319307 23.63237278 -4.39416504 21.17871094 C-1.67247832 20.13636283 -0.26961643 19.9925208 2.54333496 19.92871094 C5.40290088 19.68005303 6.25061764 19.40036879 8.13317871 17.17089844 C10.47898172 13.05044446 11.59978867 9.7714424 12.54333496 5.05371094 C-19.79666504 5.05371094 -52.13666504 5.05371094 -85.45666504 5.05371094 C-79.47957561 15.33867012 -79.47957561 15.33867012 -69.76916504 20.24121094 C-69.00217285 20.35851562 -68.23518066 20.47582031 -67.44494629 20.59667969 C-65.45666504 21.05371094 -65.45666504 21.05371094 -63.45666504 23.05371094 C-62.8282763 27.75738551 -62.78337209 33.04377152 -65.45666504 37.05371094 C-69.16291368 40.25456204 -72.73941871 42.36098351 -77.70666504 42.49121094 C-83.54795135 41.80972754 -83.54795135 41.80972754 -85.45666504 40.05371094 C-86.39416504 36.67871094 -86.39416504 36.67871094 -86.45666504 33.05371094 C-85.01916504 30.61621094 -85.01916504 30.61621094 -83.45666504 29.05371094 C-84.36416504 28.47621094 -85.27166504 27.89871094 -86.20666504 27.30371094 C-89.45666504 25.05371094 -89.45666504 25.05371094 -91.26916504 23.11621094 C-94.02677009 20.51618332 -97.04717566 19.06236352 -100.43322754 17.39746094 C-102.74625194 15.8613984 -103.45151587 14.60441205 -104.45666504 12.05371094 C-106.76666504 12.38371094 -109.07666504 12.71371094 -111.45666504 13.05371094 C-111.45666504 11.73371094 -111.45666504 10.41371094 -111.45666504 9.05371094 C-108.15666504 9.05371094 -104.85666504 9.05371094 -101.45666504 9.05371094 C-101.12666504 10.37371094 -100.79666504 11.69371094 -100.45666504 13.05371094 C-98.38324638 14.55313234 -96.42403029 15.81159824 -94.20666504 17.05371094 C-90.00673595 19.48624905 -86.1998339 21.96575881 -82.45666504 25.05371094 C-80.80639563 26.08054523 -79.14422637 27.08939018 -77.45666504 28.05371094 C-78.73728989 29.76121073 -80.07434061 31.4274469 -81.45666504 33.05371094 C-82.11666504 33.05371094 -82.77666504 33.05371094 -83.45666504 33.05371094 C-83.45666504 34.70371094 -83.45666504 36.35371094 -83.45666504 38.05371094 C-78.264571 38.26563314 -74.32992604 37.64497984 -69.45666504 36.05371094 C-68.01699713 29.60495 -68.01699713 29.60495 -67.45666504 23.05371094 C-68.63229004 23.17746094 -69.80791504 23.30121094 -71.01916504 23.42871094 C-75.53430452 23.42073366 -77.67080692 21.91411158 -80.85510254 18.83886719 C-84.40325414 14.88397626 -87.08687774 10.79328553 -89.45666504 6.05371094 C-90.99789624 4.34449505 -90.99789624 4.34449505 -92.45666504 3.05371094 C-92.12666504 2.39371094 -91.79666504 1.73371094 -91.45666504 1.05371094 C-80.56233404 0.92148451 -69.66798367 0.79099202 -58.77360725 0.66255951 C-53.71189502 0.60283638 -48.65019056 0.54257256 -43.58850098 0.48095703 C-32.20209515 0.34266635 -20.81566589 0.214095 -9.42895508 0.10351562 C-6.28591222 0.07285161 -3.14295395 0.03869637 0 0 Z " fill="#212121" transform="translate(111.4566650390625,243.9462890625)"/>
<path d="M0 0 C2.21988256 1.46944439 4.01475245 2.83174852 5.76953125 4.8359375 C6.31279904 8.45772276 6.40855625 10.5578875 4.76953125 13.8359375 C5.49140625 13.8978125 6.21328125 13.9596875 6.95703125 14.0234375 C13.12284343 15.80467213 17.45005317 22.55363761 20.76953125 27.8359375 C23.76163051 34.15535045 24.69874038 41.21463159 26.0234375 48.0234375 C26.71829932 51.57414505 27.4217091 55.11661033 28.20703125 58.6484375 C28.41199219 59.60363281 28.61695313 60.55882812 28.828125 61.54296875 C29.57722508 63.99787462 29.57722508 63.99787462 31.8671875 65.16015625 C32.80884766 65.49466797 32.80884766 65.49466797 33.76953125 65.8359375 C33.76953125 66.4959375 33.76953125 67.1559375 33.76953125 67.8359375 C34.63578125 68.0215625 34.63578125 68.0215625 35.51953125 68.2109375 C37.76953125 68.8359375 37.76953125 68.8359375 39.54663086 69.8059082 C48.50270577 73.95590052 60.06283021 73.17335792 69.70703125 73.1484375 C70.98126953 73.16455078 72.25550781 73.18066406 73.56835938 73.19726562 C74.79876953 73.19791016 76.02917969 73.19855469 77.296875 73.19921875 C78.94804321 73.20369019 78.94804321 73.20369019 80.63256836 73.20825195 C84.23539325 72.78064607 86.54357164 71.4566423 89.76953125 69.8359375 C93.30883789 69.2199707 93.30883789 69.2199707 97.1796875 68.88671875 C97.86961288 68.82437546 98.55953827 68.76203217 99.27037048 68.69779968 C101.45677075 68.50327601 103.6441851 68.32586958 105.83203125 68.1484375 C107.30413104 68.01864642 108.77613788 67.88779657 110.24804688 67.75585938 C121.71859564 66.75092116 121.71859564 66.75092116 126.76953125 66.8359375 C126.43953125 67.8259375 126.10953125 68.8159375 125.76953125 69.8359375 C122.43758626 70.34548657 119.10379491 70.84180764 115.76953125 71.3359375 C114.83496094 71.47902344 113.90039062 71.62210937 112.9375 71.76953125 C107.48012734 72.5709636 102.28482664 72.99203077 96.76953125 72.8359375 C96.76953125 73.4959375 96.76953125 74.1559375 96.76953125 74.8359375 C76.54030997 78.63103429 48.75653361 81.21552821 30.78515625 69.43359375 C26.2928735 65.87285025 24.32209453 63.64297779 23.42578125 57.85546875 C23.23113281 56.69080078 23.03648438 55.52613281 22.8359375 54.32617188 C22.64902344 53.11251953 22.46210937 51.89886719 22.26953125 50.6484375 C20.37148813 38.52059648 17.90490689 27.66806416 8.76953125 18.8359375 C6.31326532 17.60302581 4.52521487 17.22960659 1.76953125 16.8359375 C1.85654297 15.82273438 1.85654297 15.82273438 1.9453125 14.7890625 C2.31237404 9.07962785 2.31237404 9.07962785 -0.23046875 4.1484375 C-4.48562776 2.28680543 -6.72636349 2.72837063 -11.23046875 3.8359375 C-13.36633553 7.03973767 -13.4617905 7.85533717 -13.35546875 11.5234375 C-13.32839844 12.73580078 -13.32839844 12.73580078 -13.30078125 13.97265625 C-13.27757813 14.58753906 -13.254375 15.20242187 -13.23046875 15.8359375 C-18.98046875 15.9609375 -18.98046875 15.9609375 -21.23046875 14.8359375 C-23.60170121 14.60563794 -25.97788818 14.42473808 -28.35546875 14.2734375 C-29.63679688 14.18964844 -30.918125 14.10585937 -32.23828125 14.01953125 C-33.71941406 13.92865234 -33.71941406 13.92865234 -35.23046875 13.8359375 C-35.23046875 12.5159375 -35.23046875 11.1959375 -35.23046875 9.8359375 C-32.98073428 9.7817995 -30.73062492 9.74308259 -28.48046875 9.7109375 C-27.2275 9.68773437 -25.97453125 9.66453125 -24.68359375 9.640625 C-21.50226383 9.82056448 -19.86524979 10.14595168 -17.23046875 11.8359375 C-17.35421875 10.258125 -17.35421875 10.258125 -17.48046875 8.6484375 C-17.19043292 4.22539105 -16.36165993 2.88015115 -13.23046875 -0.1640625 C-9.01423305 -3.36258613 -4.48983358 -2.34320562 0 0 Z " fill="#191919" transform="translate(35.23046875,155.1640625)"/>
<path d="M0 0 C5.17171717 -0.51717172 5.17171717 -0.51717172 8 0 C10.5625 2.625 10.5625 2.625 12 6 C11.93639485 9.2438629 11.54367354 11.1415681 9.8125 13.875 C7.19985125 15.49664405 5.00479298 15.20031953 2 15 C1.34 13.68 0.68 12.36 0 11 C-0.75023437 11.22816406 -1.50046875 11.45632812 -2.2734375 11.69140625 C-10.35873994 13.96221537 -17.25904898 15.08601845 -25.125 11.625 C-25.74375 11.08875 -26.3625 10.5525 -27 10 C-27 9.01 -27 8.02 -27 7 C-21.17204106 6.25813825 -15.33974409 5.57949141 -9.5 4.9375 C-8.67757812 4.84662109 -7.85515625 4.75574219 -7.0078125 4.66210938 C-5.00526445 4.44089767 -3.00264019 4.220376 -1 4 C-0.67 2.68 -0.34 1.36 0 0 Z " fill="#F4F4F4" transform="translate(167,242)"/>
<path d="M0 0 C3.3 0 6.6 0 10 0 C10.33 1.32 10.66 2.64 11 4 C13.07341866 5.49942141 15.03263475 6.7578873 17.25 8 C21.44992909 10.43253811 25.25683114 12.91204787 29 16 C30.6502694 17.0268343 32.31243867 18.03567924 34 19 C32.71937515 20.7074998 31.38232443 22.37373596 30 24 C29.34 24 28.68 24 28 24 C28 25.65 28 27.3 28 29 C33.19209404 29.21192221 37.126739 28.5912689 42 27 C42.0825 26.278125 42.165 25.55625 42.25 24.8125 C43.14750201 21.44686746 44.7114278 19.58387184 47 17 C47.62467866 25.12082262 47.62467866 25.12082262 45.3125 28.375 C44.549375 28.91125 43.78625 29.4475 43 30 C42.2575 30.5775 41.515 31.155 40.75 31.75 C36.32271846 33.7624007 32.31848883 33.53503588 27.5625 32.4375 C26 31 26 31 25.0625 27.625 C25 24 25 24 26.4375 21.5625 C26.953125 21.046875 27.46875 20.53125 28 20 C27.0925 19.4225 26.185 18.845 25.25 18.25 C22 16 22 16 20.1875 14.0625 C17.42989495 11.46247238 14.40948938 10.00865259 11.0234375 8.34375 C8.7104131 6.80768746 8.00514917 5.55070111 7 3 C4.69 3.33 2.38 3.66 0 4 C0 2.68 0 1.36 0 0 Z " fill="#1D1D1D" transform="translate(0,253)"/>
<path d="M0 0 C-0.33 0.66 -0.66 1.32 -1 2 C-2.32 2 -3.64 2 -5 2 C-5 2.66 -5 3.32 -5 4 C-4.360625 4.2475 -3.72125 4.495 -3.0625 4.75 C-1 6 -1 6 -0.25 7.6875 C0.16708565 11.54554222 0.47927342 15.37047037 -0.625 19.125 C-1.21518521 21.13431286 -1.21518521 21.13431286 0.0625 23.375 C1 26 1 26 0.4375 29.1875 C-1 32 -1 32 -3.625 33.375 C-4.40875 33.58125 -5.1925 33.7875 -6 34 C-6 31 -6 31 -4 28.8125 C-3.01 27.9153125 -3.01 27.9153125 -2 27 C-2.515625 26.113125 -3.03125 25.22625 -3.5625 24.3125 C-5.08979002 20.79309257 -5.21675714 19.548875 -4 16 C-3.67 15.67 -3.34 15.34 -3 15 C-3.66 14.67 -4.32 14.34 -5 14 C-4.42415568 11.61435923 -3.77772405 9.33317216 -3 7 C-8.60944292 3.85871197 -14.68146331 2.77369837 -21 2 C-20.67 1.34 -20.34 0.68 -20 0 C-17.22949974 -0.1946838 -14.45886998 -0.38102792 -11.6875 -0.5625 C-10.90181641 -0.61857422 -10.11613281 -0.67464844 -9.30664062 -0.73242188 C-8.1706543 -0.80493164 -8.1706543 -0.80493164 -7.01171875 -0.87890625 C-6.31522217 -0.9260376 -5.61872559 -0.97316895 -4.90112305 -1.02172852 C-3 -1 -3 -1 0 0 Z " fill="#030303" transform="translate(546,222)"/>
<path d="M0 0 C1.27875 0.165 2.5575 0.33 3.875 0.5 C6.16513653 3.9352048 6.05342973 5.485331 5.875 9.5 C2.875 7.5 2.875 7.5 2.1875 4.875 C2.084375 4.09125 1.98125 3.3075 1.875 2.5 C-0.59455394 2.91622598 -0.59455394 2.91622598 -3.125 4.5 C-3.96545464 6.36866661 -3.96545464 6.36866661 -4.5625 8.5 C-5.83006951 12.33041497 -5.83006951 12.33041497 -8.625 13.9375 C-13.44283318 14.71179462 -18.25777917 15.17089966 -23.125 15.5 C-23.125 14.18 -23.125 12.86 -23.125 11.5 C-18.505 11.17 -13.885 10.84 -9.125 10.5 C-8.795 8.85 -8.465 7.2 -8.125 5.5 C-5.95000583 1.58501049 -4.42040753 0.16847288 0 0 Z " fill="#151515" transform="translate(184.125,209.5)"/>
<path d="M0 0 C0.99 0.33 1.98 0.66 3 1 C1.17272355 7.63079863 -1.08515322 13.7682586 -4 20 C-8.29 20 -12.58 20 -17 20 C-17.33 20.99 -17.66 21.98 -18 23 C-18.66 23.66 -19.32 24.32 -20 25 C-19.63652803 18.57866184 -19.63652803 18.57866184 -16.9375 16.125 C-14.21581328 15.0826519 -12.81295139 14.93880986 -10 14.875 C-7.14043408 14.62634209 -6.29271732 14.34665786 -4.41015625 12.1171875 C-2.14423733 8.13705165 -0.76235778 4.52599774 0 0 Z " fill="#131313" transform="translate(124,249)"/>
<path d="M0 0 C0.66 0.33 1.32 0.66 2 1 C1.01 3.31 0.02 5.62 -1 8 C-4.39545545 8.33725829 -7.7914184 8.66911121 -11.1875 9 C-12.14720703 9.09539062 -13.10691406 9.19078125 -14.09570312 9.2890625 C-15.49272461 9.42441406 -15.49272461 9.42441406 -16.91796875 9.5625 C-18.19837036 9.68818359 -18.19837036 9.68818359 -19.50463867 9.81640625 C-22.01288921 10.00094831 -24.48595597 10.03149938 -27 10 C-26.67 9.01 -26.34 8.02 -26 7 C-25.00097656 6.86722656 -24.00195312 6.73445312 -22.97265625 6.59765625 C-21.68230469 6.42105469 -20.39195312 6.24445313 -19.0625 6.0625 C-17.77472656 5.88847656 -16.48695313 5.71445313 -15.16015625 5.53515625 C-12.14533687 5.33837577 -12.14533687 5.33837577 -11 4 C-8.32941149 3.85884839 -5.67567762 3.95752893 -3 4 C-2.67 3.01 -2.34 2.02 -2 1 C-1.34 0.67 -0.68 0.34 0 0 Z " fill="#101010" transform="translate(167,239)"/>
<path d="M0 0 C0.33 0 0.66 0 1 0 C1.62467866 8.12082262 1.62467866 8.12082262 -0.6875 11.375 C-1.450625 11.91125 -2.21375 12.4475 -3 13 C-3.7425 13.5775 -4.485 14.155 -5.25 14.75 C-9.13081421 16.51400646 -11.73892526 16.33818053 -16 16 C-18.5 15 -18.5 15 -20 14 C-20 12.02 -20 10.04 -20 8 C-19.525625 8.680625 -19.05125 9.36125 -18.5625 10.0625 C-15.59990604 12.30251007 -14.97996023 12.20482459 -11.4375 11.8125 C-8.80226017 11.40810401 -6.5421393 10.84737977 -4 10 C-3.896875 9.278125 -3.79375 8.55625 -3.6875 7.8125 C-2.93659472 4.74061475 -1.78158272 2.59814146 0 0 Z " fill="#151515" transform="translate(46,270)"/>
<path d="M0 0 C0.99 0.33 1.98 0.66 3 1 C2.3897536 5.14967549 0.99267393 8.32121736 -1 12 C-1.7115625 13.3921875 -1.7115625 13.3921875 -2.4375 14.8125 C-4 17 -4 17 -6.1875 17.8125 C-6.785625 17.874375 -7.38375 17.93625 -8 18 C-7.67 20.31 -7.34 22.62 -7 25 C-8.32 24.34 -9.64 23.68 -11 23 C-11 19.7 -11 16.4 -11 13 C-8.03 13.495 -8.03 13.495 -5 14 C-5 12.68 -5 11.36 -5 10 C-4.01 10 -3.02 10 -2 10 C-2.226875 9.443125 -2.45375 8.88625 -2.6875 8.3125 C-3.12446199 5.07898125 -1.78001197 3.63441772 0 1 C0 0.67 0 0.34 0 0 Z " fill="#020202" transform="translate(441,236)"/>
<path d="M0 0 C0.66 0.99 1.32 1.98 2 3 C6.63908179 3.61854424 9.21981549 2.66836554 13 0 C12.63802104 2.62434747 12.17343943 3.82013689 10.3125 5.75 C7.2912009 7.38313465 5.39266095 7.42408262 2 7 C1.38640625 6.49082031 0.7728125 5.98164063 0.140625 5.45703125 C-2.62134029 3.57708042 -3.99283493 3.84106821 -7.25 4.3125 C-8.14203125 4.43238281 -9.0340625 4.55226563 -9.953125 4.67578125 C-10.62859375 4.78277344 -11.3040625 4.88976562 -12 5 C-9.05170868 0.57756302 -5.27882025 -0.71335409 0 0 Z " fill="#131313" transform="translate(167,253)"/>
<path d="M0 0 C0.66 0.33 1.32 0.66 2 1 C0.125 5.75 0.125 5.75 -1 8 C-0.7215625 8.928125 -0.7215625 8.928125 -0.4375 9.875 C0 12 0 12 -0.9375 13.75 C-2.55389504 17.1729542 -2.12535919 20.23922443 -2 24 C-3.98 24.99 -3.98 24.99 -6 26 C-6.66 25.34 -7.32 24.68 -8 24 C-7.484375 23.67 -6.96875 23.34 -6.4375 23 C-4.66165278 20.52925604 -4.97146029 19.85554407 -5.4375 16.9375 C-5.623125 15.638125 -5.80875 14.33875 -6 13 C-5.34 12.34 -4.68 11.68 -4 11 C-4.32326553 7.40320934 -4.32326553 7.40320934 -5 4 C-4.01 4 -3.02 4 -2 4 C-1.34 2.68 -0.68 1.36 0 0 Z " fill="#000000" transform="translate(469,230)"/>
<path d="M0 0 C0.33 0 0.66 0 1 0 C1.33 4.95 1.66 9.9 2 15 C2.66 15 3.32 15 4 15 C5.32 19.95 6.64 24.9 8 30 C7.34 30 6.68 30 6 30 C5.505 32.475 5.505 32.475 5 35 C4.67 35 4.34 35 4 35 C3.896875 33.865625 3.79375 32.73125 3.6875 31.5625 C3.32311188 28.47055962 2.63850392 25.98588199 1.4375 23.125 C-1.21119158 15.86038475 -0.22162454 7.60910911 0 0 Z " fill="#1C1C1C" transform="translate(425,220)"/>
<path d="M0 0 C0.66 0 1.32 0 2 0 C2 3.3 2 6.6 2 10 C-0.60478883 10.0809313 -3.20706653 10.14045434 -5.8125 10.1875 C-6.91948242 10.22520508 -6.91948242 10.22520508 -8.04882812 10.26367188 C-13.48575047 10.33747625 -13.48575047 10.33747625 -16 8.6875 C-17.50580734 6.14645011 -17.19214994 3.88224911 -17 1 C-14 3 -14 3 -13.1953125 5.078125 C-12.60363281 6.02945312 -12.60363281 6.02945312 -12 7 C-9.1213065 7.70535611 -9.1213065 7.70535611 -5.875 7.75 C-4.23144531 7.83507812 -4.23144531 7.83507812 -2.5546875 7.921875 C-1.71164063 7.94765625 -0.86859375 7.9734375 0 8 C0 5.36 0 2.72 0 0 Z " fill="#111111" transform="translate(122,270)"/>
<path d="M0 0 C-0.33 0.99 -0.66 1.98 -1 3 C-10.4994651 4.61693023 -19.36774517 5.26349633 -29 5 C-28.67 4.34 -28.34 3.68 -28 3 C-25.85449219 2.49755859 -25.85449219 2.49755859 -23.046875 2.1484375 C-22.03496094 2.01953125 -21.02304688 1.890625 -19.98046875 1.7578125 C-18.91441406 1.63148438 -17.84835938 1.50515625 -16.75 1.375 C-15.69941406 1.2409375 -14.64882812 1.106875 -13.56640625 0.96875 C-9.01122508 0.4029607 -4.59592692 -0.07802049 0 0 Z " fill="#0A0A0A" transform="translate(162,222)"/>
<path d="M0 0 C0.33 0 0.66 0 1 0 C1 1.98 1 3.96 1 6 C-0.7491497 6.33776684 -2.49936145 6.67003671 -4.25 7 C-5.71179688 7.2784375 -5.71179688 7.2784375 -7.203125 7.5625 C-10 8 -10 8 -14 8 C-14 6.68 -14 5.36 -14 4 C-9.38 3.67 -4.76 3.34 0 3 C0 2.01 0 1.02 0 0 Z " fill="#333333" transform="translate(175,217)"/>
<path d="M0 0 C0.33 0.99 0.66 1.98 1 3 C-0.14453125 5.04296875 -0.14453125 5.04296875 -1.8125 7.1875 C-2.35519531 7.90292969 -2.89789063 8.61835938 -3.45703125 9.35546875 C-3.96621094 9.89816406 -4.47539063 10.44085938 -5 11 C-5.66 11 -6.32 11 -7 11 C-7 14.63 -7 18.26 -7 22 C-12.28 22 -17.56 22 -23 22 C-23 21.67 -23 21.34 -23 21 C-18.05 21 -13.1 21 -8 21 C-8 17.04 -8 13.08 -8 9 C-7.34 9 -6.68 9 -6 9 C-5.7525 8.2575 -5.505 7.515 -5.25 6.75 C-3.90852699 3.79875938 -2.39094474 2.15185026 0 0 Z " fill="#2C2C2C" transform="translate(132,259)"/>
<path d="M0 0 C3.3 0 6.6 0 10 0 C10 0.33 10 0.66 10 1 C16.6 1.33 23.2 1.66 30 2 C30 2.33 30 2.66 30 3 C19.77 3 9.54 3 -1 3 C-0.67 2.01 -0.34 1.02 0 0 Z " fill="#1F1F1F" transform="translate(546,221)"/>
<path d="M0 0 C0 0.33 0 0.66 0 1 C-2.31 1.33 -4.62 1.66 -7 2 C-5.35 2.33 -3.7 2.66 -2 3 C-2 3.33 -2 3.66 -2 4 C-6.455 4.495 -6.455 4.495 -11 5 C-11.33 5.99 -11.66 6.98 -12 8 C-12.66 8.66 -13.32 9.32 -14 10 C-13.63768116 3.59903382 -13.63768116 3.59903382 -10.9375 1.0625 C-7.07163509 -0.33579156 -4.09806991 -0.20837644 0 0 Z " fill="#424242" transform="translate(118,264)"/>
<path d="M0 0 C0.33 0 0.66 0 1 0 C1.33872513 1.41538717 1.67074624 2.83237963 2 4.25 C2.185625 5.03890625 2.37125 5.8278125 2.5625 6.640625 C3 9 3 9 3 13 C2.34 13 1.68 13 1 13 C0.67 13.66 0.34 14.32 0 15 C-0.36552803 13.58622218 -0.71695495 12.16879424 -1.0625 10.75 C-1.25972656 9.96109375 -1.45695312 9.1721875 -1.66015625 8.359375 C-2.13314515 5.07563594 -1.46415031 2.92830061 0 0 Z " fill="#262626" transform="translate(59,198)"/>
<path d="M0 0 C0.66 0.66 1.32 1.32 2 2 C1.69903201 6.13830989 1.32101984 8.51847024 -1 12 C-1.66 12 -2.32 12 -3 12 C-2.835 10.906875 -2.67 9.81375 -2.5 8.6875 C-1.93281816 5.12474127 -1.93281816 5.12474127 -2 2 C-1.34 1.34 -0.68 0.68 0 0 Z " fill="#000000" transform="translate(518,241)"/>
<path d="M0 0 C0.99 0.33 1.98 0.66 3 1 C2.60446947 2.6510403 2.18286103 4.2958515 1.75 5.9375 C1.40195313 7.31228516 1.40195313 7.31228516 1.046875 8.71484375 C0 11 0 11 -2.109375 11.81640625 C-2.73328125 11.87699219 -3.3571875 11.93757813 -4 12 C-3.71125 11.319375 -3.4225 10.63875 -3.125 9.9375 C-1.87402645 6.67106907 -0.92552045 3.37153877 0 0 Z " fill="#2D2D2D" transform="translate(124,249)"/>
<path d="M0 0 C0.66 0.66 1.32 1.32 2 2 C-1.3 2.66 -4.6 3.32 -8 4 C-5.68460883 -0.63078234 -4.96616141 -1.65538714 0 0 Z " fill="#2F2F2F" transform="translate(188,239)"/>
<path d="M0 0 C2.4375 0.8125 2.4375 0.8125 5 2 C5.33 2.99 5.66 3.98 6 5 C3 5 3 5 0.8125 3 C0.214375 2.34 -0.38375 1.68 -1 1 C-0.67 0.67 -0.34 0.34 0 0 Z " fill="#000000" transform="translate(565,255)"/>
</svg>
