<?xml version="1.0" encoding="UTF-8"?>
<svg version="1.1" xmlns="http://www.w3.org/2000/svg" width="800" height="300">
<path d="M0 0 C264 0 528 0 800 0 C800 99 800 198 800 300 C536 300 272 300 0 300 C0 201 0 102 0 0 Z " fill="#FEFEFE" transform="translate(0,0)"/>
<path d="M0 0 C2.9594334 2.14954731 4.73016275 3.81146955 5.47875977 7.47680664 C5.53604248 8.36360107 5.5933252 9.25039551 5.65234375 10.1640625 C5.71752197 11.0600415 5.7827002 11.95602051 5.84985352 12.87915039 C5.88651123 13.55969482 5.92316895 14.24023926 5.9609375 14.94140625 C7.03069824 14.93355103 7.03069824 14.93355103 8.12207031 14.92553711 C11.48501634 14.90421506 14.84794813 14.89157629 18.2109375 14.87890625 C19.33113281 14.87052734 20.45132813 14.86214844 21.60546875 14.85351562 C32.12170388 14.82414067 42.40561644 15.4136402 52.9609375 15.94140625 C52.9609375 41.68140625 52.9609375 67.42140625 52.9609375 93.94140625 C32.1709375 93.94140625 11.3809375 93.94140625 -10.0390625 93.94140625 C-4.06197307 104.22636543 -4.06197307 104.22636543 5.6484375 109.12890625 C6.41542969 109.24621094 7.18242188 109.36351562 7.97265625 109.484375 C9.9609375 109.94140625 9.9609375 109.94140625 11.9609375 111.94140625 C12.56385382 116.36540266 12.42860763 120.59685462 10.9609375 124.81640625 C7.10535258 128.91296522 2.80069221 130.69194798 -2.7265625 131.44140625 C-6.69301693 130.84269615 -8.37473606 129.92868135 -11.0390625 126.94140625 C-11.68153803 123.17833526 -11.2000836 122.18293791 -9.0390625 118.94140625 C-8.3790625 118.94140625 -7.7190625 118.94140625 -7.0390625 118.94140625 C-7.0390625 118.28140625 -7.0390625 117.62140625 -7.0390625 116.94140625 C-8.2146875 116.57015625 -8.2146875 116.57015625 -9.4140625 116.19140625 C-12.0390625 114.94140625 -12.0390625 114.94140625 -12.9765625 112.94140625 C-13.89733879 110.65350439 -13.89733879 110.65350439 -16.6640625 110.06640625 C-21.41786809 108.48180439 -25.4865804 105.49388835 -29.0390625 101.94140625 C-33.52258056 101.74917824 -33.52258056 101.74917824 -37.93457031 102.41577148 C-40.42779891 103.03850016 -42.83761311 103.2610979 -45.3984375 103.4765625 C-46.43226563 103.56357422 -47.46609375 103.65058594 -48.53125 103.74023438 C-49.60632813 103.82724609 -50.68140625 103.91425781 -51.7890625 104.00390625 C-53.37847656 104.14022461 -53.37847656 104.14022461 -55 104.27929688 C-60.7020873 104.74975445 -66.31802235 105.04504828 -72.0390625 104.94140625 C-71.9153125 106.08609375 -71.9153125 106.08609375 -71.7890625 107.25390625 C-72.0390625 109.94140625 -72.0390625 109.94140625 -73.6015625 111.75390625 C-77.09780337 113.45720309 -79.18228971 113.52972752 -83.0390625 112.94140625 C-85.97117095 111.38408017 -88.10295949 109.64735438 -90.0390625 106.94140625 C-90.43810688 103.79893176 -90.48000741 101.9467939 -90.0390625 98.94140625 C-89.9565625 97.68328125 -89.8740625 96.42515625 -89.7890625 95.12890625 C-89.0390625 91.94140625 -89.0390625 91.94140625 -87.4140625 89.94140625 C-83.99301047 88.50096329 -81.64186555 89.20863275 -78.0390625 89.94140625 C-76.09 90.21984375 -76.09 90.21984375 -74.1015625 90.50390625 C-73.0909375 90.64828125 -72.0803125 90.79265625 -71.0390625 90.94140625 C-71.69132813 90.503125 -72.34359375 90.06484375 -73.015625 89.61328125 C-79.83022671 84.66817205 -85.36214121 79.47001951 -87.0390625 70.94140625 C-88.41191054 55.63611179 -88.69405621 40.05117613 -80.0390625 26.94140625 C-75.34308567 21.98454182 -67.7262024 18.34678669 -61.0390625 16.94140625 C-60.94625 15.20890625 -60.94625 15.20890625 -60.8515625 13.44140625 C-60.22121141 8.53867557 -58.47833459 4.537428 -55.0390625 0.94140625 C-52.0390625 0.06640625 -52.0390625 0.06640625 -49.0390625 0.94140625 C-45.68607608 4.00282864 -44.14968529 5.74668009 -43.7265625 10.31640625 C-43.8296875 11.18265625 -43.9328125 12.04890625 -44.0390625 12.94140625 C-43.1934375 12.44640625 -42.3478125 11.95140625 -41.4765625 11.44140625 C-35.53128589 8.86022649 -28.37373745 9.38522612 -22.0390625 9.94140625 C-19.58203125 10.9609375 -19.58203125 10.9609375 -18.0390625 11.94140625 C-18.1215625 10.88953125 -18.2040625 9.83765625 -18.2890625 8.75390625 C-17.99902667 4.3308598 -17.17025368 2.9856199 -14.0390625 -0.05859375 C-9.81045639 -3.38106998 -4.48222133 -2.32697698 0 0 Z " fill="#FCFCFC" transform="translate(747.0390625,155.05859375)"/>
<path d="M0 0 C2.9594334 2.14954731 4.73016275 3.81146955 5.47875977 7.47680664 C5.53604248 8.36360107 5.5933252 9.25039551 5.65234375 10.1640625 C5.71752197 11.0600415 5.7827002 11.95602051 5.84985352 12.87915039 C5.88651123 13.55969482 5.92316895 14.24023926 5.9609375 14.94140625 C7.03069824 14.93355103 7.03069824 14.93355103 8.12207031 14.92553711 C23.10608332 14.83053414 38.00523497 14.9864241 52.9609375 15.94140625 C52.9609375 16.60140625 52.9609375 17.26140625 52.9609375 17.94140625 C35.94004477 18.11048797 18.96644481 17.58629488 1.9609375 16.94140625 C1 10.22265625 1 10.22265625 0.6484375 7.69140625 C-0.38498529 5.06087552 -1.54517075 4.25398086 -4.0390625 2.94140625 C-8.82102771 2.31889627 -8.82102771 2.31889627 -12.9765625 4.37890625 C-14.56109458 8.20042479 -14.27452645 11.86003116 -14.0390625 15.94140625 C-15.0496875 15.77640625 -16.0603125 15.61140625 -17.1015625 15.44140625 C-26.99893487 14.21082709 -37.16991682 14.64100117 -47.0390625 15.94140625 C-47.09513672 15.01908203 -47.09513672 15.01908203 -47.15234375 14.078125 C-47.25095703 12.86576172 -47.25095703 12.86576172 -47.3515625 11.62890625 C-47.40957031 10.82839844 -47.46757813 10.02789062 -47.52734375 9.203125 C-48.13207257 6.53031594 -48.84368498 5.55274034 -51.0390625 3.94140625 C-52.0290625 3.94140625 -53.0190625 3.94140625 -54.0390625 3.94140625 C-57.21598407 9.19023319 -57.69604215 13.95629254 -58.0390625 19.94140625 C-58.65652344 20.07675781 -59.27398438 20.21210938 -59.91015625 20.3515625 C-68.57148385 22.55314806 -75.30595343 26.5047443 -79.9765625 34.31640625 C-85.16768406 43.95440255 -86.32119959 58.57357026 -83.45605469 69.07910156 C-80.88210399 76.04410987 -76.84858953 83.42855501 -70.0390625 86.94140625 C-63.4175992 89.33085425 -56.96022158 89.33895471 -49.98242188 89.5078125 C-48.68594727 89.55228516 -48.68594727 89.55228516 -47.36328125 89.59765625 C-46.1889856 89.62569336 -46.1889856 89.62569336 -44.9909668 89.65429688 C-43.0390625 89.94140625 -43.0390625 89.94140625 -41.0390625 91.94140625 C-45.52191383 92.53889128 -50.00590027 93.12658805 -54.49121094 93.70532227 C-56.01630056 93.90349318 -57.54104804 94.10431616 -59.06542969 94.30786133 C-61.25891526 94.60027841 -63.45346171 94.88307887 -65.6484375 95.1640625 C-66.3277533 95.2567189 -67.00706909 95.34937531 -67.70697021 95.44483948 C-73.00272267 96.10774549 -75.61308099 95.89206059 -80.0390625 92.94140625 C-83.16428083 92.77441393 -83.16428083 92.77441393 -86.0390625 92.94140625 C-87.34339403 100.21483581 -87.34339403 100.21483581 -85.4765625 107.12890625 C-82.45084901 109.37879577 -80.72679918 109.36046724 -77.0390625 108.94140625 C-76.3790625 106.63140625 -75.7190625 104.32140625 -75.0390625 101.94140625 C-70.60172484 101.46072858 -66.16416373 100.98214398 -61.7265625 100.50390625 C-60.48326172 100.36919922 -59.23996094 100.23449219 -57.95898438 100.09570312 C-36.52727074 97.78940323 -36.52727074 97.78940323 -30.3515625 97.87890625 C-29.52269531 97.88792969 -28.69382812 97.89695312 -27.83984375 97.90625 C-26.94845703 97.92365234 -26.94845703 97.92365234 -26.0390625 97.94140625 C-26.00296875 98.51890625 -25.966875 99.09640625 -25.9296875 99.69140625 C-24.58956158 103.07698751 -21.83090415 104.23744244 -18.7890625 105.94140625 C-14.58638901 108.37553388 -10.80760712 110.88477041 -7.0390625 113.94140625 C-4.359598 115.18157294 -4.359598 115.18157294 -2.0390625 115.94140625 C-2.43709811 118.82716444 -2.82915319 119.76330138 -5.1015625 121.69140625 C-5.7409375 122.10390625 -6.3803125 122.51640625 -7.0390625 122.94140625 C-6.7090625 124.26140625 -6.3790625 125.58140625 -6.0390625 126.94140625 C-4.60069499 126.82681932 -3.16335284 126.69931509 -1.7265625 126.56640625 C-0.52580078 126.46199219 -0.52580078 126.46199219 0.69921875 126.35546875 C3.23318191 126.04576199 3.23318191 126.04576199 5.9609375 123.94140625 C7.93552804 120.20007681 8.1558482 117.13198637 7.9609375 112.94140625 C6.7440625 112.85890625 5.5271875 112.77640625 4.2734375 112.69140625 C0.10988386 112.1553579 -2.05629727 111.00702607 -5.0390625 107.94140625 C-6.39917859 105.9595228 -7.73697454 103.96188756 -9.0390625 101.94140625 C-9.6990625 101.61140625 -10.3590625 101.28140625 -11.0390625 100.94140625 C-12.05597514 98.94995234 -13.05548898 96.94953551 -14.0390625 94.94140625 C-14.6990625 94.28140625 -15.3590625 93.62140625 -16.0390625 92.94140625 C-16.0390625 91.95140625 -16.0390625 90.96140625 -16.0390625 89.94140625 C6.7309375 89.94140625 29.5009375 89.94140625 52.9609375 89.94140625 C52.9609375 91.26140625 52.9609375 92.58140625 52.9609375 93.94140625 C32.1709375 93.94140625 11.3809375 93.94140625 -10.0390625 93.94140625 C-4.06197307 104.22636543 -4.06197307 104.22636543 5.6484375 109.12890625 C6.41542969 109.24621094 7.18242188 109.36351562 7.97265625 109.484375 C9.9609375 109.94140625 9.9609375 109.94140625 11.9609375 111.94140625 C12.56385382 116.36540266 12.42860763 120.59685462 10.9609375 124.81640625 C7.10535258 128.91296522 2.80069221 130.69194798 -2.7265625 131.44140625 C-6.69301693 130.84269615 -8.37473606 129.92868135 -11.0390625 126.94140625 C-11.68153803 123.17833526 -11.2000836 122.18293791 -9.0390625 118.94140625 C-8.3790625 118.94140625 -7.7190625 118.94140625 -7.0390625 118.94140625 C-7.0390625 118.28140625 -7.0390625 117.62140625 -7.0390625 116.94140625 C-8.2146875 116.57015625 -8.2146875 116.57015625 -9.4140625 116.19140625 C-12.0390625 114.94140625 -12.0390625 114.94140625 -12.9765625 112.94140625 C-13.89733879 110.65350439 -13.89733879 110.65350439 -16.6640625 110.06640625 C-21.41786809 108.48180439 -25.4865804 105.49388835 -29.0390625 101.94140625 C-33.52258056 101.74917824 -33.52258056 101.74917824 -37.93457031 102.41577148 C-40.42779891 103.03850016 -42.83761311 103.2610979 -45.3984375 103.4765625 C-46.43226563 103.56357422 -47.46609375 103.65058594 -48.53125 103.74023438 C-49.60632813 103.82724609 -50.68140625 103.91425781 -51.7890625 104.00390625 C-53.37847656 104.14022461 -53.37847656 104.14022461 -55 104.27929688 C-60.7020873 104.74975445 -66.31802235 105.04504828 -72.0390625 104.94140625 C-71.9153125 106.08609375 -71.9153125 106.08609375 -71.7890625 107.25390625 C-72.0390625 109.94140625 -72.0390625 109.94140625 -73.6015625 111.75390625 C-77.09780337 113.45720309 -79.18228971 113.52972752 -83.0390625 112.94140625 C-85.97117095 111.38408017 -88.10295949 109.64735438 -90.0390625 106.94140625 C-90.43810688 103.79893176 -90.48000741 101.9467939 -90.0390625 98.94140625 C-89.9565625 97.68328125 -89.8740625 96.42515625 -89.7890625 95.12890625 C-89.0390625 91.94140625 -89.0390625 91.94140625 -87.4140625 89.94140625 C-83.99301047 88.50096329 -81.64186555 89.20863275 -78.0390625 89.94140625 C-76.09 90.21984375 -76.09 90.21984375 -74.1015625 90.50390625 C-73.0909375 90.64828125 -72.0803125 90.79265625 -71.0390625 90.94140625 C-71.69132813 90.503125 -72.34359375 90.06484375 -73.015625 89.61328125 C-79.83022671 84.66817205 -85.36214121 79.47001951 -87.0390625 70.94140625 C-88.41191054 55.63611179 -88.69405621 40.05117613 -80.0390625 26.94140625 C-75.34308567 21.98454182 -67.7262024 18.34678669 -61.0390625 16.94140625 C-60.94625 15.20890625 -60.94625 15.20890625 -60.8515625 13.44140625 C-60.22121141 8.53867557 -58.47833459 4.537428 -55.0390625 0.94140625 C-52.0390625 0.06640625 -52.0390625 0.06640625 -49.0390625 0.94140625 C-45.68607608 4.00282864 -44.14968529 5.74668009 -43.7265625 10.31640625 C-43.8296875 11.18265625 -43.9328125 12.04890625 -44.0390625 12.94140625 C-43.1934375 12.44640625 -42.3478125 11.95140625 -41.4765625 11.44140625 C-35.53128589 8.86022649 -28.37373745 9.38522612 -22.0390625 9.94140625 C-19.58203125 10.9609375 -19.58203125 10.9609375 -18.0390625 11.94140625 C-18.1215625 10.88953125 -18.2040625 9.83765625 -18.2890625 8.75390625 C-17.99902667 4.3308598 -17.17025368 2.9856199 -14.0390625 -0.05859375 C-9.81045639 -3.38106998 -4.48222133 -2.32697698 0 0 Z " fill="#101010" transform="translate(747.0390625,155.05859375)"/>
<path d="M0 0 C22.77 0 45.54 0 69 0 C69 1.32 69 2.64 69 4 C48.21 4 27.42 4 6 4 C11.97708943 14.28495918 11.97708943 14.28495918 21.6875 19.1875 C22.45449219 19.30480469 23.22148438 19.42210937 24.01171875 19.54296875 C26 20 26 20 28 22 C28.60291632 26.42399641 28.46767013 30.65544837 27 34.875 C23.14441508 38.97155897 18.83975471 40.75054173 13.3125 41.5 C9.34604557 40.9012899 7.66432644 39.9872751 5 37 C4.6875 34.25 4.6875 34.25 5 32 C5.99 32 6.98 32 8 32 C8.66 33.65 9.32 35.3 10 37 C11.43836751 36.88541307 12.87570966 36.75790884 14.3125 36.625 C15.51326172 36.52058594 15.51326172 36.52058594 16.73828125 36.4140625 C19.27224441 36.10435574 19.27224441 36.10435574 22 34 C23.97459054 30.25867056 24.1949107 27.19058012 24 23 C22.783125 22.9175 21.56625 22.835 20.3125 22.75 C16.14894636 22.21395165 13.98276523 21.06561982 11 18 C9.63988391 16.01811655 8.30208796 14.02048131 7 12 C6.34 11.67 5.68 11.34 5 11 C3.98308736 9.00854609 2.98357352 7.00812926 2 5 C1.34 4.34 0.68 3.68 0 3 C0 2.01 0 1.02 0 0 Z " fill="#171717" transform="translate(731,245)"/>
<path d="M0 0 C0.10795898 0.61875 0.21591797 1.2375 0.32714844 1.875 C1.39798544 5.25691775 4.31155562 6.35395676 7.25 8 C11.45267349 10.43412763 15.23145538 12.94336416 19 16 C21.6794645 17.24016669 21.6794645 17.24016669 24 18 C23.8125 19.8125 23.8125 19.8125 23 22 C18.82142857 25 18.82142857 25 16 25 C16.33 23.68 16.66 22.36 17 21 C17.66 21 18.32 21 19 21 C19 20.34 19 19.68 19 19 C18.21625 18.7525 17.4325 18.505 16.625 18.25 C14 17 14 17 13.0625 15 C12.14172371 12.71209814 12.14172371 12.71209814 9.375 12.125 C4.62119441 10.54039814 0.5524821 7.5524821 -3 4 C-7.47781966 3.8023803 -7.47781966 3.8023803 -11.87963867 4.48583984 C-16.55772936 5.62021624 -21.52032568 5.43868333 -26.3125 5.625 C-27.42818359 5.6765625 -28.54386719 5.728125 -29.69335938 5.78125 C-35.2818213 6.00651106 -40.50088758 6.06332044 -46 5 C-46 4.67 -46 4.34 -46 4 C-41.86148407 3.41725232 -37.72133529 2.84839974 -33.5793457 2.29101562 C-32.17781266 2.10058734 -30.77674247 1.9067129 -29.3762207 1.70898438 C-19.50833587 0.31904156 -9.97139968 -0.25934824 0 0 Z " fill="#131313" transform="translate(721,253)"/>
<path d="M0 0 C1.56139206 0.0001133 1.56139206 0.0001133 3.15432739 0.00022888 C4.28144135 0.00539017 5.4085553 0.01055145 6.56982422 0.01586914 C7.72118866 0.01728409 8.8725531 0.01869904 10.05880737 0.02015686 C13.74740158 0.02576823 17.43593576 0.03832269 21.12451172 0.05102539 C23.62060459 0.05603892 26.11669842 0.06060208 28.61279297 0.06469727 C34.7417198 0.07574136 40.87061147 0.0924906 46.99951172 0.11352539 C46.99951172 1.43352539 46.99951172 2.75352539 46.99951172 4.11352539 C26.53951172 4.11352539 6.07951172 4.11352539 -15.00048828 4.11352539 C-15.33048828 3.45352539 -15.66048828 2.79352539 -16.00048828 2.11352539 C-15.06076172 2.02264648 -15.06076172 2.02264648 -14.10205078 1.92993164 C-12.87615234 1.80424805 -12.87615234 1.80424805 -11.62548828 1.67602539 C-10.81337891 1.59481445 -10.00126953 1.51360352 -9.16455078 1.42993164 C-5.82746141 0.94201785 -3.51953864 -0.0085013 0 0 Z " fill="#2C2C2C" transform="translate(753.00048828125,244.886474609375)"/>
<path d="M0 0 C0.66 0.66 1.32 1.32 2 2 C-0.08058657 4.08058657 -4.41960849 3.38043408 -7.23828125 3.5234375 C-10.28462043 4.04911413 -11.71491661 4.97002093 -14 7 C-13.59573665 12.86181863 -12.7971314 16.2823519 -9 21 C-5.81175432 22.59412284 -2.37103338 22.10174735 1.125 22.0625 C2.25615234 22.05573242 2.25615234 22.05573242 3.41015625 22.04882812 C5.27347127 22.03703499 7.13674555 22.01909942 9 22 C9 22.99 9 23.98 9 25 C1.59069115 26.9120797 -5.25148781 26.83738929 -12 23 C-15.59985578 19.30541117 -16.90465862 16.51701249 -17.09765625 11.421875 C-17.08025391 10.09929687 -17.08025391 10.09929687 -17.0625 8.75 C-17.05347656 7.85796875 -17.04445313 6.9659375 -17.03515625 6.046875 C-17.02355469 5.37140625 -17.01195312 4.6959375 -17 4 C-11.43890122 0.13140954 -6.78760781 -1.06715589 0 0 Z " fill="#0C0C0C" transform="translate(699,193)"/>
<path d="M0 0 C0.66 0.33 1.32 0.66 2 1 C0.91430728 4.03993963 0.08521464 4.94964589 -2.75 6.625 C-6.78932835 9.06047739 -8.52242626 12.89655638 -10.703125 16.953125 C-11.13109375 17.62859375 -11.5590625 18.3040625 -12 19 C-12.66 19 -13.32 19 -14 19 C-14.66 19.66 -15.32 20.32 -16 21 C-14.70290342 14.90928565 -11.967321 8.91813797 -7.5 4.5625 C-6.675 4.046875 -5.85 3.53125 -5 3 C-3.6696875 2.1028125 -3.6696875 2.1028125 -2.3125 1.1875 C-1.549375 0.795625 -0.78625 0.40375 0 0 Z " fill="#202020" transform="translate(677,175)"/>
<path d="M0 0 C0.99 0 1.98 0 3 0 C3.17942163 3.94727588 3.09350689 6.5980513 1 10 C-1.31 9.67 -3.62 9.34 -6 9 C-6.33 6.36 -6.66 3.72 -7 1 C-6.01 1 -5.02 1 -4 1 C-3.814375 2.2065625 -3.814375 2.2065625 -3.625 3.4375 C-3.41875 4.283125 -3.2125 5.12875 -3 6 C-2.34 6.33 -1.68 6.66 -1 7 C-0.67 4.69 -0.34 2.38 0 0 Z " fill="#1D1D1D" transform="translate(762,207)"/>
<path d="M0 0 C-0.33 0.99 -0.66 1.98 -1 3 C-9.17413104 4.18896451 -16.84317822 4.3883952 -25 3 C-25 2.67 -25 2.34 -25 2 C-8.29157175 -0.29612756 -8.29157175 -0.29612756 0 0 Z " fill="#1F1F1F" transform="translate(700,255)"/>
<path d="M0 0 C12.87 0.495 12.87 0.495 26 1 C26 1.66 26 2.32 26 3 C17.75 3 9.5 3 1 3 C0.67 2.01 0.34 1.02 0 0 Z " fill="#020202" transform="translate(687,228)"/>
<path d="M0 0 C0.66 0 1.32 0 2 0 C2.25 7.625 2.25 7.625 0 11 C-4.875 10.125 -4.875 10.125 -6 9 C-6.04080783 7.00041636 -6.04254356 4.99954746 -6 3 C-5.34 3 -4.68 3 -4 3 C-3.34 4.32 -2.68 5.64 -2 7 C-1.34 4.69 -0.68 2.38 0 0 Z " fill="#0C0C0C" transform="translate(731,221)"/>
<path d="M0 0 C0.66 0 1.32 0 2 0 C1.125 6.875 1.125 6.875 0 8 C-2.5 8.125 -2.5 8.125 -5 8 C-6 7 -6 7 -6.0625 4.4375 C-6.041875 3.633125 -6.02125 2.82875 -6 2 C-5.01 2 -4.02 2 -3 2 C-3 2.99 -3 3.98 -3 5 C-2.34 5 -1.68 5 -1 5 C-0.67 3.35 -0.34 1.7 0 0 Z " fill="#111111" transform="translate(671,206)"/>
<path d="M0 0 C1.62463842 -0.05395478 3.24978541 -0.09277195 4.875 -0.125 C5.77992188 -0.14820313 6.68484375 -0.17140625 7.6171875 -0.1953125 C10 0 10 0 12 2 C10.18884044 3.81115956 7.38721773 3.38199448 4.9375 3.5625 C3.83277344 3.64628906 2.72804688 3.73007813 1.58984375 3.81640625 C0.73519531 3.87699219 -0.11945312 3.93757812 -1 4 C-0.67 2.68 -0.34 1.36 0 0 Z " fill="#383838" transform="translate(689,193)"/>
<path d="M0 0 C0.66 0.33 1.32 0.66 2 1 C1.67 1.99 1.34 2.98 1 4 C0.34 4 -0.32 4 -1 4 C-1.33 6.64 -1.66 9.28 -2 12 C-2.99 12 -3.98 12 -5 12 C-4.64989059 3.64989059 -4.64989059 3.64989059 -1.9375 0.9375 C-1.298125 0.628125 -0.65875 0.31875 0 0 Z " fill="#181818" transform="translate(662,244)"/>
<path d="M0 0 C0.33 0 0.66 0 1 0 C1 2.97 1 5.94 1 9 C-3.95 10.485 -3.95 10.485 -9 12 C-8.67 10.68 -8.34 9.36 -8 8 C-5.69 7.34 -3.38 6.68 -1 6 C-0.67 4.02 -0.34 2.04 0 0 Z " fill="#070707" transform="translate(687,166)"/>
<path d="M0 0 C2.31 0 4.62 0 7 0 C7 0.99 7 1.98 7 3 C4.36 3.33 1.72 3.66 -1 4 C-0.67 2.68 -0.34 1.36 0 0 Z " fill="#242424" transform="translate(701,215)"/>
<path d="M0 0 C2.875 -0.125 2.875 -0.125 6 0 C6.66 0.66 7.32 1.32 8 2 C4.52176885 3.15941038 2.54104422 2.70820884 -1 2 C-0.67 1.34 -0.34 0.68 0 0 Z " fill="#090909" transform="translate(693,193)"/>
</svg>
