<?xml version="1.0" encoding="UTF-8"?>
<svg version="1.1" xmlns="http://www.w3.org/2000/svg" width="800" height="300">
<path d="M0 0 C264 0 528 0 800 0 C800 99 800 198 800 300 C536 300 272 300 0 300 C0 201 0 102 0 0 Z " fill="#FEFEFE" transform="translate(0,0)"/>
<path d="M0 0 C2.6875 -0.3125 2.6875 -0.3125 6 0 C6.65484375 0.82371094 7.3096875 1.64742187 7.984375 2.49609375 C12.5652212 6.2996202 16.79729447 5.57827168 22.5625 5.375 C23.56474609 5.36082031 24.56699219 5.34664062 25.59960938 5.33203125 C30.47519469 5.2414631 35.34076995 5.04623593 40.20825195 4.75537109 C54.45235002 3.91878154 68.67682983 3.84573931 82.94213867 3.86962891 C85.67653585 3.87416195 88.4108666 3.87421517 91.14526367 3.86962891 C100.43094505 3.85414611 109.7147567 3.89399703 119 4 C120.89718781 4.01987976 120.89718781 4.01987976 122.83270264 4.04016113 C126.4714204 4.08922994 130.10817747 4.16795371 133.74609375 4.2578125 C135.34216209 4.27822098 135.34216209 4.27822098 136.97047424 4.29904175 C147.76141846 4.63593906 157.23194941 7.126133 165.1015625 14.796875 C168.08119031 18.25471468 170.07594107 21.88307979 172 26 C172.5878125 27.06347656 172.5878125 27.06347656 173.1875 28.1484375 C176.97476175 35.43365628 176.77162077 42.60176161 175.375 50.5625 C169.6875 64.78125 169.6875 64.78125 163.4375 67.625 C157.70072769 69.69064707 152.18507829 70.14951793 146.12109375 70.1328125 C145.35992249 70.13413177 144.59875122 70.13545105 143.81451416 70.1368103 C141.35546728 70.1387179 138.89653518 70.13241583 136.4375 70.125 C135.60618561 70.12411377 134.77487122 70.12322754 133.91836548 70.12231445 C121.58858811 70.10680173 109.30284848 69.87542505 97 69 C97 68.34 97 67.68 97 67 C96.29617188 67.16242188 95.59234375 67.32484375 94.8671875 67.4921875 C87.40965184 68.81300444 79.59253259 68.08414043 72.08203125 67.5078125 C66.67319889 67.13155169 61.29977248 66.9117425 55.87890625 66.859375 C21.79509958 66.48121764 21.79509958 66.48121764 10.8125 58.25 C9.32421875 56.69140625 9.32421875 56.69140625 8 55 C7.51144531 54.41089844 7.02289063 53.82179688 6.51953125 53.21484375 C2.55488966 47.4511211 2.40935902 41.64162749 2.45166016 34.85229492 C2.47029608 32.43228376 2.47029608 32.43228376 2 29 C0.13377036 27.1371129 0.13377036 27.1371129 -2 26 C-3.20745835 22.37762495 -3.22246029 19.0229405 -3.25 15.25 C-3.270625 14.5590625 -3.29125 13.868125 -3.3125 13.15625 C-3.35088173 8.05147958 -2.27330153 4.57053254 0 0 Z " fill="#656565" transform="translate(428,216)"/>
<path d="M0 0 C2.21988256 1.46944439 4.01475245 2.83174852 5.76953125 4.8359375 C6.31279904 8.45772276 6.40855625 10.5578875 4.76953125 13.8359375 C5.49140625 13.8978125 6.21328125 13.9596875 6.95703125 14.0234375 C13.12284343 15.80467213 17.45005317 22.55363761 20.76953125 27.8359375 C23.76163051 34.15535045 24.69874038 41.21463159 26.0234375 48.0234375 C26.71829932 51.57414505 27.4217091 55.11661033 28.20703125 58.6484375 C28.41199219 59.60363281 28.61695313 60.55882812 28.828125 61.54296875 C29.57722508 63.99787462 29.57722508 63.99787462 31.8671875 65.16015625 C32.49496094 65.38316406 33.12273438 65.60617188 33.76953125 65.8359375 C33.76953125 66.4959375 33.76953125 67.1559375 33.76953125 67.8359375 C34.63578125 68.0215625 34.63578125 68.0215625 35.51953125 68.2109375 C37.76953125 68.8359375 37.76953125 68.8359375 39.54663086 69.8059082 C48.50270577 73.95590052 60.06283021 73.17335792 69.70703125 73.1484375 C70.98126953 73.16455078 72.25550781 73.18066406 73.56835938 73.19726562 C74.79876953 73.19791016 76.02917969 73.19855469 77.296875 73.19921875 C78.94804321 73.20369019 78.94804321 73.20369019 80.63256836 73.20825195 C84.23013689 72.78126993 86.56371292 71.47772344 89.76953125 69.8359375 C92.71386719 69.32763672 92.71386719 69.32763672 95.75390625 69.140625 C96.85347656 69.06457031 97.95304687 68.98851562 99.0859375 68.91015625 C100.21902344 68.84441406 101.35210937 68.77867187 102.51953125 68.7109375 C104.78538183 68.5659841 107.0510237 68.41771782 109.31640625 68.265625 C110.31510742 68.20616699 111.31380859 68.14670898 112.34277344 68.08544922 C114.77658807 67.97965425 114.77658807 67.97965425 116.76953125 66.8359375 C119.33293336 66.43821826 121.88330309 66.08674075 124.45703125 65.7734375 C125.15248047 65.68255859 125.84792969 65.59167969 126.56445312 65.49804688 C131.0022651 64.94694604 135.29819804 64.74803449 139.76953125 64.8359375 C139.85203125 64.1140625 139.93453125 63.3921875 140.01953125 62.6484375 C140.97588108 59.06212564 141.99588675 57.32510564 144.76953125 54.8359375 C147.72234733 54.21029132 149.68773417 54.43828626 152.76953125 54.8359375 C155.05966778 58.2711423 154.94796098 59.8212685 154.76953125 63.8359375 C156.16171875 64.42375 156.16171875 64.42375 157.58203125 65.0234375 C161.10688188 67.02776433 162.31805737 68.07918157 163.76953125 71.8359375 C163.70184372 75.62643936 163.11893489 78.15301221 161.39453125 81.5234375 C157.40774186 85.0356091 152.76128742 86.21955931 147.76953125 87.8359375 C146.77953125 88.3309375 146.77953125 88.3309375 145.76953125 88.8359375 C145.99640625 90.0528125 146.22328125 91.2696875 146.45703125 92.5234375 C146.83687722 95.59476349 146.82340128 96.70835059 145.58203125 99.6484375 C142.80292062 103.00253654 141.19334752 104.65796047 136.76953125 105.2109375 C133.76953125 104.8359375 133.76953125 104.8359375 131.89453125 103.2109375 C129.63665187 101.39506831 129.63665187 101.39506831 125.95703125 102.6484375 C125.25578125 102.8546875 124.55453125 103.0609375 123.83203125 103.2734375 C116.70245993 105.21786604 108.28363632 103.09299003 101.76953125 99.8359375 C101.46660156 100.33222656 101.16367188 100.82851562 100.8515625 101.33984375 C97.99293766 105.97521388 95.09614037 110.52033648 91.76953125 114.8359375 C91.10953125 114.8359375 90.44953125 114.8359375 89.76953125 114.8359375 C89.76953125 118.4659375 89.76953125 122.0959375 89.76953125 125.8359375 C87.18507352 125.9441241 84.60515773 126.02330987 82.01953125 126.0859375 C81.28992188 126.11945313 80.5603125 126.15296875 79.80859375 126.1875 C76.2907282 126.25146119 74.21062974 126.15341603 71.31640625 124.0703125 C68.8198911 120.46423506 68.76953125 118.23502577 68.76953125 113.8359375 C70.08203125 111.4609375 70.08203125 111.4609375 72.76953125 109.8359375 C74.41124297 109.57890183 76.05792561 109.35272969 77.70703125 109.1484375 C80.90651937 108.62934651 82.32131635 108.34093981 84.49609375 105.890625 C86.80023016 101.80785697 87.83761948 98.49549636 88.76953125 93.8359375 C56.42953125 93.8359375 24.08953125 93.8359375 -9.23046875 93.8359375 C-4.95812113 102.49934274 -4.95812113 102.49934274 2.60546875 108.015625 C4.52718789 108.50488158 6.46455019 108.93776861 8.4140625 109.30078125 C10.76953125 109.8359375 10.76953125 109.8359375 12.76953125 111.8359375 C13.39791999 116.53961207 13.4428242 121.82599808 10.76953125 125.8359375 C7.0632826 129.0367886 3.48677758 131.14321007 -1.48046875 131.2734375 C-7.32175506 130.5919541 -7.32175506 130.5919541 -9.23046875 128.8359375 C-10.16796875 125.4609375 -10.16796875 125.4609375 -10.23046875 121.8359375 C-8.79296875 119.3984375 -8.79296875 119.3984375 -7.23046875 117.8359375 C-7.95234375 117.4440625 -8.67421875 117.0521875 -9.41796875 116.6484375 C-12.45913977 114.68857173 -14.67911209 112.38729416 -17.23046875 109.8359375 C-18.55046875 109.1759375 -19.87046875 108.5159375 -21.23046875 107.8359375 C-21.23046875 75.8259375 -21.23046875 43.8159375 -21.23046875 10.8359375 C-19.91046875 11.1659375 -18.59046875 11.4959375 -17.23046875 11.8359375 C-17.31296875 10.7840625 -17.39546875 9.7321875 -17.48046875 8.6484375 C-17.19043292 4.22539105 -16.36165993 2.88015115 -13.23046875 -0.1640625 C-9.01423305 -3.36258613 -4.48983358 -2.34320562 0 0 Z " fill="#FCFCFC" transform="translate(21.23046875,155.1640625)"/>
<path d="M0 0 C2.21988256 1.46944439 4.01475245 2.83174852 5.76953125 4.8359375 C6.31279904 8.45772276 6.40855625 10.5578875 4.76953125 13.8359375 C5.49140625 13.8978125 6.21328125 13.9596875 6.95703125 14.0234375 C13.12284343 15.80467213 17.45005317 22.55363761 20.76953125 27.8359375 C23.76163051 34.15535045 24.69874038 41.21463159 26.0234375 48.0234375 C26.71829932 51.57414505 27.4217091 55.11661033 28.20703125 58.6484375 C28.41199219 59.60363281 28.61695313 60.55882812 28.828125 61.54296875 C29.57722508 63.99787462 29.57722508 63.99787462 31.8671875 65.16015625 C32.49496094 65.38316406 33.12273438 65.60617188 33.76953125 65.8359375 C33.76953125 66.4959375 33.76953125 67.1559375 33.76953125 67.8359375 C34.63578125 68.0215625 34.63578125 68.0215625 35.51953125 68.2109375 C37.76953125 68.8359375 37.76953125 68.8359375 39.54663086 69.8059082 C48.50270577 73.95590052 60.06283021 73.17335792 69.70703125 73.1484375 C70.98126953 73.16455078 72.25550781 73.18066406 73.56835938 73.19726562 C74.79876953 73.19791016 76.02917969 73.19855469 77.296875 73.19921875 C78.94804321 73.20369019 78.94804321 73.20369019 80.63256836 73.20825195 C84.23013689 72.78126993 86.56371292 71.47772344 89.76953125 69.8359375 C92.71386719 69.32763672 92.71386719 69.32763672 95.75390625 69.140625 C96.85347656 69.06457031 97.95304687 68.98851562 99.0859375 68.91015625 C100.21902344 68.84441406 101.35210937 68.77867187 102.51953125 68.7109375 C104.78538183 68.5659841 107.0510237 68.41771782 109.31640625 68.265625 C110.31510742 68.20616699 111.31380859 68.14670898 112.34277344 68.08544922 C114.77658807 67.97965425 114.77658807 67.97965425 116.76953125 66.8359375 C119.33293336 66.43821826 121.88330309 66.08674075 124.45703125 65.7734375 C125.15248047 65.68255859 125.84792969 65.59167969 126.56445312 65.49804688 C131.0022651 64.94694604 135.29819804 64.74803449 139.76953125 64.8359375 C139.85203125 64.1140625 139.93453125 63.3921875 140.01953125 62.6484375 C140.97588108 59.06212564 141.99588675 57.32510564 144.76953125 54.8359375 C147.72234733 54.21029132 149.68773417 54.43828626 152.76953125 54.8359375 C155.05966778 58.2711423 154.94796098 59.8212685 154.76953125 63.8359375 C156.16171875 64.42375 156.16171875 64.42375 157.58203125 65.0234375 C161.10688188 67.02776433 162.31805737 68.07918157 163.76953125 71.8359375 C163.70184372 75.62643936 163.11893489 78.15301221 161.39453125 81.5234375 C157.40774186 85.0356091 152.76128742 86.21955931 147.76953125 87.8359375 C146.77953125 88.3309375 146.77953125 88.3309375 145.76953125 88.8359375 C145.99640625 90.0528125 146.22328125 91.2696875 146.45703125 92.5234375 C146.83687722 95.59476349 146.82340128 96.70835059 145.58203125 99.6484375 C142.80292062 103.00253654 141.19334752 104.65796047 136.76953125 105.2109375 C133.76953125 104.8359375 133.76953125 104.8359375 131.89453125 103.2109375 C129.63665187 101.39506831 129.63665187 101.39506831 125.95703125 102.6484375 C125.25578125 102.8546875 124.55453125 103.0609375 123.83203125 103.2734375 C116.70245993 105.21786604 108.28363632 103.09299003 101.76953125 99.8359375 C101.46660156 100.33222656 101.16367188 100.82851562 100.8515625 101.33984375 C97.99293766 105.97521388 95.09614037 110.52033648 91.76953125 114.8359375 C91.10953125 114.8359375 90.44953125 114.8359375 89.76953125 114.8359375 C89.76953125 118.4659375 89.76953125 122.0959375 89.76953125 125.8359375 C87.18507352 125.9441241 84.60515773 126.02330987 82.01953125 126.0859375 C81.28992188 126.11945313 80.5603125 126.15296875 79.80859375 126.1875 C76.2907282 126.25146119 74.21062974 126.15341603 71.31640625 124.0703125 C68.8198911 120.46423506 68.76953125 118.23502577 68.76953125 113.8359375 C70.08203125 111.4609375 70.08203125 111.4609375 72.76953125 109.8359375 C74.41124297 109.57890183 76.05792561 109.35272969 77.70703125 109.1484375 C80.90651937 108.62934651 82.32131635 108.34093981 84.49609375 105.890625 C86.80023016 101.80785697 87.83761948 98.49549636 88.76953125 93.8359375 C56.42953125 93.8359375 24.08953125 93.8359375 -9.23046875 93.8359375 C-4.95812113 102.49934274 -4.95812113 102.49934274 2.60546875 108.015625 C4.52718789 108.50488158 6.46455019 108.93776861 8.4140625 109.30078125 C10.76953125 109.8359375 10.76953125 109.8359375 12.76953125 111.8359375 C13.39791999 116.53961207 13.4428242 121.82599808 10.76953125 125.8359375 C7.0632826 129.0367886 3.48677758 131.14321007 -1.48046875 131.2734375 C-7.32175506 130.5919541 -7.32175506 130.5919541 -9.23046875 128.8359375 C-10.16796875 125.4609375 -10.16796875 125.4609375 -10.23046875 121.8359375 C-8.79296875 119.3984375 -8.79296875 119.3984375 -7.23046875 117.8359375 C-7.95234375 117.4440625 -8.67421875 117.0521875 -9.41796875 116.6484375 C-12.45913977 114.68857173 -14.67911209 112.38729416 -17.23046875 109.8359375 C-19.39667419 108.54073755 -19.39667419 108.54073755 -21.23046875 107.8359375 C-21.23046875 106.8459375 -21.23046875 105.8559375 -21.23046875 104.8359375 C-15.8973552 106.06665601 -12.5109356 108.77914006 -8.35546875 112.1484375 C-6.09394685 113.94435195 -3.76223328 115.4475505 -1.23046875 116.8359375 C-2.5110936 118.5434373 -3.84814432 120.20967346 -5.23046875 121.8359375 C-5.89046875 121.8359375 -6.55046875 121.8359375 -7.23046875 121.8359375 C-7.23046875 123.4859375 -7.23046875 125.1359375 -7.23046875 126.8359375 C-2.03837471 127.04785971 1.89627025 126.4272064 6.76953125 124.8359375 C8.20919916 118.38717656 8.20919916 118.38717656 8.76953125 111.8359375 C7.59390625 111.9596875 6.41828125 112.0834375 5.20703125 112.2109375 C0.69189177 112.20296022 -1.44461064 110.69633814 -4.62890625 107.62109375 C-7.69874806 104.19934324 -10.34137368 100.66352181 -12.35546875 96.5234375 C-13.24348263 94.47819829 -13.24348263 94.47819829 -16.23046875 92.8359375 C-15.90046875 91.8459375 -15.57046875 90.8559375 -15.23046875 89.8359375 C-4.33613775 89.70371107 6.55821262 89.57321858 17.45258904 89.44478607 C22.51430127 89.38506294 27.57600573 89.32479912 32.63769531 89.26318359 C44.02410114 89.12489291 55.4105304 88.99632156 66.79724121 88.88574219 C69.94028407 88.85507817 73.08324234 88.82092294 76.22619629 88.78222656 C79.95151633 88.73665439 83.67683834 88.70657945 87.40234375 88.6796875 C88.44405731 88.664823 89.48577087 88.6499585 90.55905151 88.63464355 C91.48847565 88.63081665 92.41789978 88.62698975 93.37548828 88.62304688 C94.16182648 88.61575562 94.94816467 88.60846436 95.7583313 88.60095215 C97.76953125 88.8359375 97.76953125 88.8359375 100.76953125 90.8359375 C100.76953125 91.4959375 100.76953125 92.1559375 100.76953125 92.8359375 C97.79953125 92.8359375 94.82953125 92.8359375 91.76953125 92.8359375 C91.66769531 93.66351563 91.56585938 94.49109375 91.4609375 95.34375 C90.66009109 99.38870303 89.2903287 102.91984013 87.70703125 106.7109375 C87.42537109 107.39929688 87.14371094 108.08765625 86.85351562 108.796875 C86.16437859 110.47883659 85.46772327 112.15771447 84.76953125 113.8359375 C80.47953125 113.8359375 76.18953125 113.8359375 71.76953125 113.8359375 C72.75953125 116.4759375 73.74953125 119.1159375 74.76953125 121.8359375 C78.72953125 122.1659375 82.68953125 122.4959375 86.76953125 122.8359375 C86.76953125 120.1959375 86.76953125 117.5559375 86.76953125 114.8359375 C87.42953125 114.8359375 88.08953125 114.8359375 88.76953125 114.8359375 C88.76953125 114.1759375 88.76953125 113.5159375 88.76953125 112.8359375 C89.42953125 112.8359375 90.08953125 112.8359375 90.76953125 112.8359375 C91.03765625 112.0728125 91.30578125 111.3096875 91.58203125 110.5234375 C92.75478616 107.86930796 93.72634487 106.79739642 95.76953125 104.8359375 C98.14462202 101.32080316 99.543804 97.89026609 100.76953125 93.8359375 C102.08953125 93.8359375 103.40953125 93.8359375 104.76953125 93.8359375 C105.26453125 92.3509375 105.26453125 92.3509375 105.76953125 90.8359375 C106.60097656 90.70316406 107.43242187 90.57039063 108.2890625 90.43359375 C109.37574219 90.25699219 110.46242187 90.08039063 111.58203125 89.8984375 C113.20044922 89.63740234 113.20044922 89.63740234 114.8515625 89.37109375 C117.81886481 88.89721829 117.81886481 88.89721829 120.76953125 87.8359375 C122.16392789 87.76928374 123.56123 87.75055551 124.95703125 87.7734375 C126.21515625 87.7940625 127.47328125 87.8146875 128.76953125 87.8359375 C129.09953125 86.8459375 129.42953125 85.8559375 129.76953125 84.8359375 C132.50286711 83.46926957 134.59338143 83.85118391 137.64453125 83.9609375 C148.9575789 84.03888561 148.9575789 84.03888561 158.625 79.0234375 C160.01620896 76.36447157 159.93167141 75.02007664 159.45703125 72.0859375 C159.23015625 70.6834375 159.00328125 69.2809375 158.76953125 67.8359375 C155.79953125 67.8359375 152.82953125 67.8359375 149.76953125 67.8359375 C149.76953125 64.72125545 150.24780833 61.90105967 150.76953125 58.8359375 C150.76953125 58.1759375 150.76953125 57.5159375 150.76953125 56.8359375 C148.29997731 57.25216348 148.29997731 57.25216348 145.76953125 58.8359375 C144.90450888 60.85717788 144.33558423 62.82071843 143.8359375 64.9609375 C142.17988601 67.87267638 139.93119471 67.95017078 136.76953125 68.8359375 C134.34351833 69.24881091 131.90677848 69.60135996 129.46484375 69.90625 C128.78203339 69.99220428 128.09922302 70.07815857 127.39572144 70.16671753 C125.95900793 70.34606318 124.52191311 70.52237784 123.08447266 70.69580078 C120.90675653 70.95945738 118.7307593 71.23485357 116.5546875 71.51171875 C115.14982667 71.68560086 113.74488112 71.85880016 112.33984375 72.03125 C110.44903076 72.26352295 110.44903076 72.26352295 108.52001953 72.50048828 C104.56380629 72.85433785 100.73851193 72.89253518 96.76953125 72.8359375 C96.76953125 73.4959375 96.76953125 74.1559375 96.76953125 74.8359375 C88.17088745 76.6228922 79.8749151 77.12430082 71.10180664 77.04174805 C69.04626459 77.02311325 66.99116584 77.02124165 64.93554688 77.02148438 C54.91021088 76.97661713 54.91021088 76.97661713 53.76953125 75.8359375 C51.45891715 75.58847818 49.14589375 75.36341174 46.83203125 75.1484375 C37.89893111 74.13449609 30.72999243 70.75917945 24.76953125 63.8359375 C23.91992188 61.04614258 23.91992188 61.04614258 23.42578125 57.85546875 C23.23113281 56.69080078 23.03648438 55.52613281 22.8359375 54.32617188 C22.64902344 53.11251953 22.46210937 51.89886719 22.26953125 50.6484375 C20.37148813 38.52059648 17.90490689 27.66806416 8.76953125 18.8359375 C6.31326532 17.60302581 4.52521487 17.22960659 1.76953125 16.8359375 C1.82753906 16.16046875 1.88554687 15.485 1.9453125 14.7890625 C2.31237404 9.07962785 2.31237404 9.07962785 -0.23046875 4.1484375 C-4.48562776 2.28680543 -6.72636349 2.72837063 -11.23046875 3.8359375 C-13.36633553 7.03973767 -13.4617905 7.85533717 -13.35546875 11.5234375 C-13.33742188 12.33167969 -13.319375 13.13992187 -13.30078125 13.97265625 C-13.27757812 14.58753906 -13.254375 15.20242187 -13.23046875 15.8359375 C-15.87046875 15.5059375 -18.51046875 15.1759375 -21.23046875 14.8359375 C-21.23046875 13.5159375 -21.23046875 12.1959375 -21.23046875 10.8359375 C-19.91046875 11.1659375 -18.59046875 11.4959375 -17.23046875 11.8359375 C-17.31296875 10.7840625 -17.39546875 9.7321875 -17.48046875 8.6484375 C-17.19043292 4.22539105 -16.36165993 2.88015115 -13.23046875 -0.1640625 C-9.01423305 -3.36258613 -4.48983358 -2.34320562 0 0 Z " fill="#212121" transform="translate(21.23046875,155.1640625)"/>
<path d="M0 0 C2.6875 -0.3125 2.6875 -0.3125 6 0 C6.65484375 0.82371094 7.3096875 1.64742187 7.984375 2.49609375 C12.5652212 6.2996202 16.79729447 5.57827168 22.5625 5.375 C23.56474609 5.36082031 24.56699219 5.34664062 25.59960938 5.33203125 C30.47519469 5.2414631 35.34076995 5.04623593 40.20825195 4.75537109 C54.45235002 3.91878154 68.67682983 3.84573931 82.94213867 3.86962891 C85.67653585 3.87416195 88.4108666 3.87421517 91.14526367 3.86962891 C100.43094505 3.85414611 109.7147567 3.89399703 119 4 C120.89718781 4.01987976 120.89718781 4.01987976 122.83270264 4.04016113 C126.4714204 4.08922994 130.10817747 4.16795371 133.74609375 4.2578125 C135.34216209 4.27822098 135.34216209 4.27822098 136.97047424 4.29904175 C147.76141846 4.63593906 157.23194941 7.126133 165.1015625 14.796875 C168.08119031 18.25471468 170.07594107 21.88307979 172 26 C172.5878125 27.06347656 172.5878125 27.06347656 173.1875 28.1484375 C176.97476175 35.43365628 176.77162077 42.60176161 175.375 50.5625 C169.6875 64.78125 169.6875 64.78125 163.4375 67.625 C157.70072769 69.69064707 152.18507829 70.14951793 146.12109375 70.1328125 C145.35992249 70.13413177 144.59875122 70.13545105 143.81451416 70.1368103 C141.35546728 70.1387179 138.89653518 70.13241583 136.4375 70.125 C135.60618561 70.12411377 134.77487122 70.12322754 133.91836548 70.12231445 C121.58858811 70.10680173 109.30284848 69.87542505 97 69 C97 68.34 97 67.68 97 67 C96.29617188 67.16242188 95.59234375 67.32484375 94.8671875 67.4921875 C87.40965184 68.81300444 79.59253259 68.08414043 72.08203125 67.5078125 C66.67319889 67.13155169 61.29977248 66.9117425 55.87890625 66.859375 C21.79509958 66.48121764 21.79509958 66.48121764 10.8125 58.25 C9.32421875 56.69140625 9.32421875 56.69140625 8 55 C7.51144531 54.41089844 7.02289063 53.82179688 6.51953125 53.21484375 C2.55488966 47.4511211 2.40935902 41.64162749 2.45166016 34.85229492 C2.47029608 32.43228376 2.47029608 32.43228376 2 29 C0.13377036 27.1371129 0.13377036 27.1371129 -2 26 C-3.20745835 22.37762495 -3.22246029 19.0229405 -3.25 15.25 C-3.270625 14.5590625 -3.29125 13.868125 -3.3125 13.15625 C-3.35088173 8.05147958 -2.27330153 4.57053254 0 0 Z M3 3 C-0.71059486 9.13054803 -1.71075839 15.44620807 -0.3125 22.4375 C0.78058442 25.09159104 0.78058442 25.09159104 3 26.3125 C6.24734023 29.05244332 6.35310018 32.93985245 7 37 C9.64573501 34.77122275 9.64573501 34.77122275 12 32 C11.95502158 29.72476911 11.95502158 29.72476911 11 28 C12.32 27.34 13.64 26.68 15 26 C14.67 24.35 14.34 22.7 14 21 C14.99 21.99 15.98 22.98 17 24 C15.39680795 28.66383143 13.08350522 33.14135949 10 37 C9.30648438 37.30550781 8.61296875 37.61101562 7.8984375 37.92578125 C5.77741393 38.86585583 5.77741393 38.86585583 5.07421875 41.29296875 C4.97884902 44.77145414 5.96425246 46.39079722 7.8125 49.3125 C8.35519531 50.19550781 8.89789063 51.07851563 9.45703125 51.98828125 C9.96621094 52.65214844 10.47539062 53.31601562 11 54 C11.66 54 12.32 54 13 54 C13.33 54.99 13.66 55.98 14 57 C16.36401089 58.26080581 18.47896761 59.14504119 21 60 C21.81339844 60.28230469 22.62679688 60.56460938 23.46484375 60.85546875 C33.75725957 63.93020167 46.48210319 64.63478627 57 62 C57.53394179 60.5882217 58.05165104 59.17029756 58.5625 57.75 C58.85253906 56.96109375 59.14257812 56.1721875 59.44140625 55.359375 C60.0610168 52.74227867 59.94248701 51.4926979 59 49 C58.34 48.01 57.68 47.02 57 46 C57.53625 45.443125 58.0725 44.88625 58.625 44.3125 C59.07875 43.549375 59.5325 42.78625 60 42 C59.26145768 39.36186139 59.26145768 39.36186139 58 37 C58 36.34 58 35.68 58 35 C58.99 35.33 59.98 35.66 61 36 C61.94002987 40.38680608 61.74651537 43.61422219 61 48 C61.185625 48.804375 61.37125 49.60875 61.5625 50.4375 C62.16494838 53.96612624 61.00559799 56.60610677 60 60 C60.33 60.99 60.66 61.98 61 63 C62.06927734 63.09087891 62.06927734 63.09087891 63.16015625 63.18359375 C71.41188054 63.9054808 71.41188054 63.9054808 75.5 64.5625 C82.43977973 65.42997247 89.12334905 65.23427068 96 64 C96.66 64.33 97.32 64.66 98 65 C100.56845219 65.03037021 103.120762 64.93311185 105.6875 64.83984375 C108 65 108 65 110 67 C112.52377655 67.27808217 112.52377655 67.27808217 115.4453125 67.1953125 C116.52167969 67.18886719 117.59804688 67.18242187 118.70703125 67.17578125 C119.83496094 67.15902344 120.96289062 67.14226562 122.125 67.125 C123.26066406 67.11597656 124.39632812 67.10695313 125.56640625 67.09765625 C128.37781299 67.07403098 131.18880298 67.04109013 134 67 C134 66.34 134 65.68 134 65 C134.99 64.67 135.98 64.34 137 64 C138.56028793 61.15102982 139.46843274 58.20059445 140 55 C139.01919106 52.38017854 139.01919106 52.38017854 137 51 C136.34 51 135.68 51 135 51 C135.66 50.236875 136.32 49.47375 137 48.6875 C139.29850538 46.15722061 139.29850538 46.15722061 139 43 C137.56249809 41.31201173 137.56249809 41.31201173 136 40 C137.32 40.33 138.64 40.66 140 41 C140.90594807 43.61718331 140.98235878 45.10143704 140.5 47.875 C139.82038781 50.94518924 139.82038781 50.94518924 140.5625 53.75 C141.18730226 58.39138818 140.07980006 62.48447249 139 67 C149.65771916 67.35857747 158.40464935 67.06190317 166.59375 59.53515625 C171.66979043 54.24761413 174.03554301 48.43102855 173.9765625 41.078125 C172.70835554 30.19972752 166.40917284 21.74595342 159 14 C158.01 13.67 157.02 13.34 156 13 C154.39819908 16.38766195 154.39819908 16.38766195 154.125 20.0625 C154.8950733 22.17907441 154.8950733 22.17907441 157.0625 23.5625 C160.20275922 27.5131487 159.47149501 32.13046134 159 37 C158.67 37.66 158.34 38.32 158 39 C157.01 39.33 156.02 39.66 155 40 C155.165 38.9275 155.33 37.855 155.5 36.75 C156.3352003 30.76189263 156.3352003 30.76189263 155 25 C152.50965614 23.70339566 152.50965614 23.70339566 150 23 C150.99 19.7 151.98 16.4 153 13 C146.68439027 7.21069108 141.08633074 7.22890562 132.75 7.1875 C130.97496094 7.14979492 130.97496094 7.14979492 129.1640625 7.11132812 C125.10889692 7.03050193 121.05589005 7 117 7 C116.97111854 10.31248187 116.95324201 13.62493167 116.9375 16.9375 C116.92493164 18.35579102 116.92493164 18.35579102 116.91210938 19.80273438 C116.90727539 21.15141602 116.90727539 21.15141602 116.90234375 22.52734375 C116.89448853 23.77632446 116.89448853 23.77632446 116.88647461 25.05053711 C116.78356708 27.00516798 116.78356708 27.00516798 118 28 C118.26293056 32.03160191 118.29404844 33.55892734 116 37 C113.875 37.6875 113.875 37.6875 112 38 C113.75 34.125 113.75 34.125 116 33 C115.89171875 31.86111328 115.89171875 31.86111328 115.78125 30.69921875 C115.6884375 29.70535156 115.595625 28.71148437 115.5 27.6875 C115.4071875 26.70136719 115.314375 25.71523437 115.21875 24.69921875 C115 22 115 22 115 19 C114.34 19 113.68 19 113 19 C113.556875 17.63875 113.556875 17.63875 114.125 16.25 C115.25131743 13.16467339 115.25131743 13.16467339 114.375 10.75 C112.21694327 8.00338235 109.96584178 7.12449559 106.52636719 6.68115234 C105.62563477 6.64973145 104.72490234 6.61831055 103.796875 6.5859375 C102.8171875 6.54726562 101.8375 6.50859375 100.828125 6.46875 C99.30445313 6.42234375 99.30445313 6.42234375 97.75 6.375 C96.203125 6.31699219 96.203125 6.31699219 94.625 6.2578125 C92.0835106 6.16368326 89.54202567 6.07805021 87 6 C87.495 6.99 87.495 6.99 88 8 C88.66 8 89.32 8 90 8 C90.67228569 12.48190462 91.12701027 15.63283522 90 20 C90.29235267 22.33882138 90.62599214 24.67284 91 27 C91 28.32 91 29.64 91 31 C90.01 30.01 90.01 30.01 89 29 C89.2784375 27.824375 89.2784375 27.824375 89.5625 26.625 C90.29178752 23.94859806 90.29178752 23.94859806 88.6875 21.6875 C88.130625 21.130625 87.57375 20.57375 87 20 C86.34 20 85.68 20 85 20 C85.680625 19.443125 86.36125 18.88625 87.0625 18.3125 C89.25510881 16.18317288 89.25510881 16.18317288 89.0625 13.5 C87.56544541 9.97751862 86.33969805 8.96356171 83 7 C79.03453696 6.4431461 75.1217931 6.53050618 71.125 6.625 C70.0119751 6.63789063 68.8989502 6.65078125 67.75219727 6.6640625 C59.38070792 6.81952868 51.23850267 7.4996548 43 9 C43.04253906 10.093125 43.08507812 11.18625 43.12890625 12.3125 C43 16 43 16 40.9375 19 C38.43457181 22.87550172 39.20915027 24.57124149 40 29 C39.125 32.1875 39.125 32.1875 38 35 C37.65023242 36.32911682 37.30903983 37.66082739 37 39 C35.79371992 36.66785852 34.8345262 34.50357861 34 32 C34.639375 31.7525 35.27875 31.505 35.9375 31.25 C38.12493715 30.18550582 38.12493715 30.18550582 38.875 28.125 C39.02904228 25.50628117 38.24534014 24.27091436 37 22 C37 21.01 37 20.02 37 19 C39 17.3125 39 17.3125 41 16 C40.81171228 13.55519921 40.81171228 13.55519921 40 11 C36.96969085 8.99095526 34.40823739 8.73084337 30.82421875 8.65625 C29.83099609 8.62660156 28.83777344 8.59695312 27.81445312 8.56640625 C26.26661133 8.53353516 26.26661133 8.53353516 24.6875 8.5 C8.56797015 8.15378142 8.56797015 8.15378142 4.0625 4.375 C3.711875 3.92125 3.36125 3.4675 3 3 Z " fill="#111111" transform="translate(428,216)"/>
<path d="M0 0 C2.21988256 1.46944439 4.01475245 2.83174852 5.76953125 4.8359375 C6.31279904 8.45772276 6.40855625 10.5578875 4.76953125 13.8359375 C5.49140625 13.8978125 6.21328125 13.9596875 6.95703125 14.0234375 C13.12284343 15.80467213 17.45005317 22.55363761 20.76953125 27.8359375 C23.76163051 34.15535045 24.69874038 41.21463159 26.0234375 48.0234375 C26.71829932 51.57414505 27.4217091 55.11661033 28.20703125 58.6484375 C28.41199219 59.60363281 28.61695313 60.55882812 28.828125 61.54296875 C29.57722508 63.99787462 29.57722508 63.99787462 31.8671875 65.16015625 C32.49496094 65.38316406 33.12273438 65.60617188 33.76953125 65.8359375 C33.76953125 66.4959375 33.76953125 67.1559375 33.76953125 67.8359375 C34.63578125 68.0215625 34.63578125 68.0215625 35.51953125 68.2109375 C37.76953125 68.8359375 37.76953125 68.8359375 39.54663086 69.8059082 C48.50270577 73.95590052 60.06283021 73.17335792 69.70703125 73.1484375 C70.98126953 73.16455078 72.25550781 73.18066406 73.56835938 73.19726562 C74.79876953 73.19791016 76.02917969 73.19855469 77.296875 73.19921875 C78.94804321 73.20369019 78.94804321 73.20369019 80.63256836 73.20825195 C84.23013689 72.78126993 86.56371292 71.47772344 89.76953125 69.8359375 C92.71386719 69.32763672 92.71386719 69.32763672 95.75390625 69.140625 C96.85347656 69.06457031 97.95304687 68.98851562 99.0859375 68.91015625 C100.21902344 68.84441406 101.35210937 68.77867187 102.51953125 68.7109375 C104.78538183 68.5659841 107.0510237 68.41771782 109.31640625 68.265625 C110.31510742 68.20616699 111.31380859 68.14670898 112.34277344 68.08544922 C114.77658807 67.97965425 114.77658807 67.97965425 116.76953125 66.8359375 C119.33293336 66.43821826 121.88330309 66.08674075 124.45703125 65.7734375 C125.15248047 65.68255859 125.84792969 65.59167969 126.56445312 65.49804688 C131.0022651 64.94694604 135.29819804 64.74803449 139.76953125 64.8359375 C139.85203125 64.1140625 139.93453125 63.3921875 140.01953125 62.6484375 C140.97588108 59.06212564 141.99588675 57.32510564 144.76953125 54.8359375 C147.72234733 54.21029132 149.68773417 54.43828626 152.76953125 54.8359375 C155.05966778 58.2711423 154.94796098 59.8212685 154.76953125 63.8359375 C156.16171875 64.42375 156.16171875 64.42375 157.58203125 65.0234375 C161.10688188 67.02776433 162.31805737 68.07918157 163.76953125 71.8359375 C163.69971973 75.74538251 163.13859794 78.18638012 161.20703125 81.5859375 C157.10265368 85.37459372 152.80237322 86.72703525 147.26953125 87.0234375 C146.44453125 86.9615625 145.61953125 86.8996875 144.76953125 86.8359375 C147.45034877 82.81471122 149.82628886 82.83884699 154.359375 81.77734375 C157.31000469 80.62482875 158.29380873 79.6239636 159.76953125 76.8359375 C159.91926565 74.46152012 159.91926565 74.46152012 159.45703125 72.0859375 C159.23015625 70.6834375 159.00328125 69.2809375 158.76953125 67.8359375 C155.79953125 67.8359375 152.82953125 67.8359375 149.76953125 67.8359375 C149.76953125 64.72125545 150.24780833 61.90105967 150.76953125 58.8359375 C150.76953125 58.1759375 150.76953125 57.5159375 150.76953125 56.8359375 C148.29997731 57.25216348 148.29997731 57.25216348 145.76953125 58.8359375 C144.90450888 60.85717788 144.33558423 62.82071843 143.8359375 64.9609375 C142.17988601 67.87267638 139.93119471 67.95017078 136.76953125 68.8359375 C134.34351833 69.24881091 131.90677848 69.60135996 129.46484375 69.90625 C128.78203339 69.99220428 128.09922302 70.07815857 127.39572144 70.16671753 C125.95900793 70.34606318 124.52191311 70.52237784 123.08447266 70.69580078 C120.90675653 70.95945738 118.7307593 71.23485357 116.5546875 71.51171875 C115.14982667 71.68560086 113.74488112 71.85880016 112.33984375 72.03125 C110.44903076 72.26352295 110.44903076 72.26352295 108.52001953 72.50048828 C104.56380629 72.85433785 100.73851193 72.89253518 96.76953125 72.8359375 C96.76953125 73.4959375 96.76953125 74.1559375 96.76953125 74.8359375 C88.17088745 76.6228922 79.8749151 77.12430082 71.10180664 77.04174805 C69.04626459 77.02311325 66.99116584 77.02124165 64.93554688 77.02148438 C54.91021088 76.97661713 54.91021088 76.97661713 53.76953125 75.8359375 C51.45891715 75.58847818 49.14589375 75.36341174 46.83203125 75.1484375 C37.89893111 74.13449609 30.72999243 70.75917945 24.76953125 63.8359375 C23.91992188 61.04614258 23.91992188 61.04614258 23.42578125 57.85546875 C23.23113281 56.69080078 23.03648438 55.52613281 22.8359375 54.32617188 C22.64902344 53.11251953 22.46210937 51.89886719 22.26953125 50.6484375 C20.37148813 38.52059648 17.90490689 27.66806416 8.76953125 18.8359375 C6.31326532 17.60302581 4.52521487 17.22960659 1.76953125 16.8359375 C1.82753906 16.16046875 1.88554687 15.485 1.9453125 14.7890625 C2.31237404 9.07962785 2.31237404 9.07962785 -0.23046875 4.1484375 C-4.48562776 2.28680543 -6.72636349 2.72837063 -11.23046875 3.8359375 C-13.36633553 7.03973767 -13.4617905 7.85533717 -13.35546875 11.5234375 C-13.33742188 12.33167969 -13.319375 13.13992187 -13.30078125 13.97265625 C-13.27757812 14.58753906 -13.254375 15.20242187 -13.23046875 15.8359375 C-15.87046875 15.5059375 -18.51046875 15.1759375 -21.23046875 14.8359375 C-21.23046875 13.5159375 -21.23046875 12.1959375 -21.23046875 10.8359375 C-19.91046875 11.1659375 -18.59046875 11.4959375 -17.23046875 11.8359375 C-17.31296875 10.7840625 -17.39546875 9.7321875 -17.48046875 8.6484375 C-17.19043292 4.22539105 -16.36165993 2.88015115 -13.23046875 -0.1640625 C-9.01423305 -3.36258613 -4.48983358 -2.34320562 0 0 Z " fill="#191919" transform="translate(21.23046875,155.1640625)"/>
<path d="M0 0 C1.05960938 0.00676758 1.05960938 0.00676758 2.140625 0.01367188 C3.88545275 0.02546125 5.630237 0.04339676 7.375 0.0625 C7.045 0.7225 6.715 1.3825 6.375 2.0625 C7.365 3.0525 7.365 3.0525 8.375 4.0625 C7.715 4.3925 7.055 4.7225 6.375 5.0625 C6.601875 6.279375 6.82875 7.49625 7.0625 8.75 C7.44234597 11.82132599 7.42887003 12.93491309 6.1875 15.875 C3.40838937 19.22909904 1.79881627 20.88452297 -2.625 21.4375 C-5.625 21.0625 -5.625 21.0625 -7.5 19.4375 C-9.75787938 17.62163081 -9.75787938 17.62163081 -13.4375 18.875 C-14.13875 19.08125 -14.84 19.2875 -15.5625 19.5 C-22.69207132 21.44442854 -31.11089493 19.31955253 -37.625 16.0625 C-38.07939453 16.80693359 -38.07939453 16.80693359 -38.54296875 17.56640625 C-41.40159359 22.20177638 -44.29839088 26.74689898 -47.625 31.0625 C-48.285 31.0625 -48.945 31.0625 -49.625 31.0625 C-49.625 34.6925 -49.625 38.3225 -49.625 42.0625 C-52.20945773 42.1706866 -54.78937352 42.24987237 -57.375 42.3125 C-58.10460937 42.34601563 -58.83421875 42.37953125 -59.5859375 42.4140625 C-63.14982986 42.47886054 -65.20032585 42.37038876 -68.125 40.25 C-70.08195658 37.39610498 -69.93286236 35.44898598 -69.625 32.0625 C-66.625 34.0625 -66.625 34.0625 -65.8203125 36.140625 C-65.42585938 36.77484375 -65.03140625 37.4090625 -64.625 38.0625 C-61.7463065 38.76785611 -61.7463065 38.76785611 -58.5 38.8125 C-56.85644531 38.89757812 -56.85644531 38.89757812 -55.1796875 38.984375 C-54.33664063 39.01015625 -53.49359375 39.0359375 -52.625 39.0625 C-52.625 36.4225 -52.625 33.7825 -52.625 31.0625 C-51.965 31.0625 -51.305 31.0625 -50.625 31.0625 C-50.625 30.4025 -50.625 29.7425 -50.625 29.0625 C-49.965 29.0625 -49.305 29.0625 -48.625 29.0625 C-48.356875 28.299375 -48.08875 27.53625 -47.8125 26.75 C-46.63974509 24.09587046 -45.66818638 23.02395892 -43.625 21.0625 C-41.24990923 17.54736566 -39.85072725 14.11682859 -38.625 10.0625 C-37.305 10.0625 -35.985 10.0625 -34.625 10.0625 C-34.295 9.0725 -33.965 8.0825 -33.625 7.0625 C-32.37783203 6.86333984 -32.37783203 6.86333984 -31.10546875 6.66015625 C-30.01878906 6.48355469 -28.93210938 6.30695313 -27.8125 6.125 C-26.73355469 5.95097656 -25.65460938 5.77695313 -24.54296875 5.59765625 C-21.57566644 5.12378079 -21.57566644 5.12378079 -18.625 4.0625 C-17.23060336 3.99584624 -15.83330125 3.97711801 -14.4375 4 C-12.5503125 4.0309375 -12.5503125 4.0309375 -10.625 4.0625 C-10.295 3.0725 -9.965 2.0825 -9.625 1.0625 C-6.55966836 -0.47016582 -3.35745728 -0.04026471 0 0 Z " fill="#242424" transform="translate(160.625,238.9375)"/>
<path d="M0 0 C2.64 0 5.28 0 8 0 C8 1.32 8 2.64 8 4 C9.32 4.66 10.64 5.32 12 6 C11.40425532 11.36170213 11.40425532 11.36170213 9.8125 13.875 C7.19985125 15.49664405 5.00479298 15.20031953 2 15 C1.34 13.68 0.68 12.36 0 11 C-0.75023437 11.22816406 -1.50046875 11.45632812 -2.2734375 11.69140625 C-10.35873994 13.96221537 -17.25904898 15.08601845 -25.125 11.625 C-25.74375 11.08875 -26.3625 10.5525 -27 10 C-27 9.01 -27 8.02 -27 7 C-18.42 6.01 -9.84 5.02 -1 4 C-0.67 2.68 -0.34 1.36 0 0 Z " fill="#F7F7F7" transform="translate(153,242)"/>
<path d="M0 0 C2.21988256 1.46944439 4.01475245 2.83174852 5.76953125 4.8359375 C6.31279904 8.45772276 6.40855625 10.5578875 4.76953125 13.8359375 C5.49140625 13.8978125 6.21328125 13.9596875 6.95703125 14.0234375 C10.71090744 15.10789062 12.18676562 16.93032617 14.76953125 19.8359375 C15.25164063 20.33867187 15.73375 20.84140625 16.23046875 21.359375 C17.64453125 22.8984375 17.64453125 22.8984375 19.76953125 25.8359375 C19.58203125 28.2109375 19.58203125 28.2109375 18.76953125 29.8359375 C16.03634229 27.18083965 13.68205528 24.71853554 11.39453125 21.6484375 C8.162483 18.18552866 6.31679345 17.72755754 1.76953125 16.8359375 C1.82753906 16.16046875 1.88554687 15.485 1.9453125 14.7890625 C2.31237404 9.07962785 2.31237404 9.07962785 -0.23046875 4.1484375 C-4.48562776 2.28680543 -6.72636349 2.72837063 -11.23046875 3.8359375 C-13.36633553 7.03973767 -13.4617905 7.85533717 -13.35546875 11.5234375 C-13.33742188 12.33167969 -13.319375 13.13992187 -13.30078125 13.97265625 C-13.27757812 14.58753906 -13.254375 15.20242187 -13.23046875 15.8359375 C-15.87046875 15.5059375 -18.51046875 15.1759375 -21.23046875 14.8359375 C-21.23046875 13.5159375 -21.23046875 12.1959375 -21.23046875 10.8359375 C-19.91046875 11.1659375 -18.59046875 11.4959375 -17.23046875 11.8359375 C-17.31296875 10.7840625 -17.39546875 9.7321875 -17.48046875 8.6484375 C-17.19043292 4.22539105 -16.36165993 2.88015115 -13.23046875 -0.1640625 C-9.01423305 -3.36258613 -4.48983358 -2.34320562 0 0 Z " fill="#141414" transform="translate(21.23046875,155.1640625)"/>
<path d="M0 0 C5.33311355 1.23071851 8.71953315 3.94320256 12.875 7.3125 C15.1365219 9.10841445 17.46823547 10.611613 20 12 C18.71937515 13.7074998 17.38232443 15.37373596 16 17 C15.34 17 14.68 17 14 17 C14 18.65 14 20.3 14 22 C19.19209404 22.21192221 23.126739 21.5912689 28 20 C28.0825 19.278125 28.165 18.55625 28.25 17.8125 C29.14750201 14.44686746 30.7114278 12.58387184 33 10 C33.62467866 18.12082262 33.62467866 18.12082262 31.3125 21.375 C30.1678125 22.179375 30.1678125 22.179375 29 23 C28.2575 23.5775 27.515 24.155 26.75 24.75 C22.32271846 26.7624007 18.31848883 26.53503588 13.5625 25.4375 C12 24 12 24 11.0625 20.625 C11 17 11 17 12.4375 14.5625 C12.953125 14.046875 13.46875 13.53125 14 13 C12.9171875 12.4121875 12.9171875 12.4121875 11.8125 11.8125 C8.77132898 9.85263423 6.55135666 7.55135666 4 5 C1.83379456 3.70480005 1.83379456 3.70480005 0 3 C0 2.01 0 1.02 0 0 Z " fill="#161616" transform="translate(0,260)"/>
<path d="M0 0 C1.27875 0.165 2.5575 0.33 3.875 0.5 C6.16513653 3.9352048 6.05342973 5.485331 5.875 9.5 C6.803125 9.891875 7.73125 10.28375 8.6875 10.6875 C12.21235063 12.69182683 13.42352612 13.74324407 14.875 17.5 C14.80518848 21.40944501 14.24406669 23.85044262 12.3125 27.25 C8.20812243 31.03865622 3.90784197 32.39109775 -1.625 32.6875 C-2.45 32.625625 -3.275 32.56375 -4.125 32.5 C-1.44418248 28.47877372 0.93175761 28.50290949 5.46484375 27.44140625 C8.41547344 26.28889125 9.39927748 25.2880261 10.875 22.5 C11.0247344 20.12558262 11.0247344 20.12558262 10.5625 17.75 C10.335625 16.3475 10.10875 14.945 9.875 13.5 C6.905 13.5 3.935 13.5 0.875 13.5 C0.875 10.38531795 1.35327708 7.56512217 1.875 4.5 C1.875 3.84 1.875 3.18 1.875 2.5 C-0.59455394 2.91622598 -0.59455394 2.91622598 -3.125 4.5 C-4.46719295 7.0690412 -5.32925705 9.71813439 -6.125 12.5 C-6.785 12.5 -7.445 12.5 -8.125 12.5 C-8.43288712 8.57443924 -8.43354114 6.1042264 -6.625 2.5625 C-3.97351075 0.37502137 -3.27972729 0.13715223 0 0 Z " fill="#141414" transform="translate(170.125,209.5)"/>
<path d="M0 0 C0.99 0.33 1.98 0.66 3 1 C1.17272355 7.63079863 -1.08515322 13.7682586 -4 20 C-8.29 20 -12.58 20 -17 20 C-17.33 20.99 -17.66 21.98 -18 23 C-18.66 23.66 -19.32 24.32 -20 25 C-19.63652803 18.57866184 -19.63652803 18.57866184 -16.9375 16.125 C-14.21581328 15.0826519 -12.81295139 14.93880986 -10 14.875 C-7.14043408 14.62634209 -6.29271732 14.34665786 -4.41015625 12.1171875 C-2.14423733 8.13705165 -0.76235778 4.52599774 0 0 Z " fill="#101010" transform="translate(110,249)"/>
<path d="M0 0 C0.66 0.33 1.32 0.66 2 1 C1.01 3.31 0.02 5.62 -1 8 C-3.83275953 8.33896268 -6.66604661 8.67129694 -9.5 9 C-10.68722656 9.14308594 -10.68722656 9.14308594 -11.8984375 9.2890625 C-16.97029404 9.87107882 -21.89493859 10.09367085 -27 10 C-26.67 9.01 -26.34 8.02 -26 7 C-24.75283203 6.80083984 -24.75283203 6.80083984 -23.48046875 6.59765625 C-22.39378906 6.42105469 -21.30710938 6.24445313 -20.1875 6.0625 C-19.10855469 5.88847656 -18.02960938 5.71445313 -16.91796875 5.53515625 C-13.95066644 5.06128079 -13.95066644 5.06128079 -11 4 C-9.60560336 3.93334624 -8.20830125 3.91461801 -6.8125 3.9375 C-4.9253125 3.9684375 -4.9253125 3.9684375 -3 4 C-2.67 3.01 -2.34 2.02 -2 1 C-1.34 0.67 -0.68 0.34 0 0 Z " fill="#171717" transform="translate(153,239)"/>
<path d="M0 0 C1.32 0.66 2.64 1.32 4 2 C2.8656185 9.94067053 -2.50728227 15.50728227 -8 21 C-8.66 21.33 -9.32 21.66 -10 22 C-10 18.04 -10 14.08 -10 10 C-9.34 10 -8.68 10 -8 10 C-7.34 11.32 -6.68 12.64 -6 14 C-4.37168238 12.19038423 -4.37168238 12.19038423 -3 10 C-3.33 9.01 -3.66 8.02 -4 7 C-2.35 6.34 -0.7 5.68 1 5 C0.67 3.35 0.34 1.7 0 0 Z " fill="#010101" transform="translate(442,237)"/>
<path d="M0 0 C0.33 0 0.66 0 1 0 C1 1.98 1 3.96 1 6 C-2.06147257 6.50642925 -5.12432299 7.00399322 -8.1875 7.5 C-9.05181641 7.64308594 -9.91613281 7.78617188 -10.80664062 7.93359375 C-14.90526577 8.59314262 -18.83226024 9.20709266 -23 9 C-23 7.68 -23 6.36 -23 5 C-20.47980028 4.66114962 -17.95901484 4.32879665 -15.4375 4 C-14.38079102 3.85691406 -14.38079102 3.85691406 -13.30273438 3.7109375 C-8.82632145 3.13333583 -4.51338762 2.90510617 0 3 C0 2.01 0 1.02 0 0 Z " fill="#323232" transform="translate(161,217)"/>
<path d="M0 0 C2.36448858 2.8349591 3.47375007 5.00696057 4.16796875 8.625 C4.33876953 9.49640625 4.50957031 10.3678125 4.68554688 11.265625 C4.85119141 12.16796875 5.01683594 13.0703125 5.1875 14 C5.36474609 14.90234375 5.54199219 15.8046875 5.72460938 16.734375 C6.46631952 20.60615921 7 24.03594815 7 28 C6.34 28 5.68 28 5 28 C4.67 28.66 4.34 29.32 4 30 C3.1871695 26.10423555 2.37479359 22.20837643 1.5625 18.3125 C1.33240234 17.20970703 1.10230469 16.10691406 0.86523438 14.97070312 C0.53168945 13.3706543 0.53168945 13.3706543 0.19140625 11.73828125 C-0.01282959 10.75899658 -0.21706543 9.77971191 -0.42749023 8.77075195 C-0.96228542 6.18252569 -1.48486931 3.59220381 -2 1 C-1.34 0.67 -0.68 0.34 0 0 Z " fill="#161616" transform="translate(41,183)"/>
<path d="M0 0 C4.29 0 8.58 0 13 0 C12.67 0.66 12.34 1.32 12 2 C12.66 2.66 13.32 3.32 14 4 C13.01 4.495 13.01 4.495 12 5 C12.20625 6.258125 12.4125 7.51625 12.625 8.8125 C13.21335669 12.4014758 13.16617415 12.75073878 11 16 C10.34 15.67 9.68 15.34 9 15 C9.0928125 13.576875 9.0928125 13.576875 9.1875 12.125 C9.125625 11.09375 9.06375 10.0625 9 9 C8.01 8.34 7.02 7.68 6 7 C6 5.68 6 4.36 6 3 C3.69 3 1.38 3 -1 3 C-0.67 2.01 -0.34 1.02 0 0 Z " fill="#272727" transform="translate(155,239)"/>
<path d="M0 0 C0.66 0.99 1.32 1.98 2 3 C6.63908179 3.61854424 9.21981549 2.66836554 13 0 C12.63802104 2.62434747 12.17343943 3.82013689 10.3125 5.75 C7.2912009 7.38313465 5.39266095 7.42408262 2 7 C1.38640625 6.49082031 0.7728125 5.98164063 0.140625 5.45703125 C-2.62134029 3.57708042 -3.99283493 3.84106821 -7.25 4.3125 C-8.14203125 4.43238281 -9.0340625 4.55226563 -9.953125 4.67578125 C-10.62859375 4.78277344 -11.3040625 4.88976562 -12 5 C-9.234375 1.09375 -9.234375 1.09375 -7.125 0.25 C-4.66234358 -0.03972428 -2.47454711 -0.26047864 0 0 Z " fill="#161616" transform="translate(153,253)"/>
<path d="M0 0 C0.66 0.33 1.32 0.66 2 1 C1.319375 1.845625 0.63875 2.69125 -0.0625 3.5625 C-2.43065395 7.76406347 -1.82658451 9.37112672 -1 14 C-1.875 17.1875 -1.875 17.1875 -3 20 C-3.34976758 21.32911682 -3.69096017 22.66082739 -4 24 C-4.99 24 -5.98 24 -7 24 C-7 23.01 -7 22.02 -7 21 C-7.66 20.34 -8.32 19.68 -9 19 C-8.13375 18.154375 -7.2675 17.30875 -6.375 16.4375 C-4.93020894 14.85540789 -4.93020894 14.85540789 -4 13 C-4.53219091 9.17352608 -4.53219091 9.17352608 -6 6 C-4.02 4.02 -2.04 2.04 0 0 Z " fill="#000000" transform="translate(470,231)"/>
<path d="M0 0 C0.66 0 1.32 0 2 0 C2 3.3 2 6.6 2 10 C-0.60478883 10.0809313 -3.20706653 10.14045434 -5.8125 10.1875 C-6.91948242 10.22520508 -6.91948242 10.22520508 -8.04882812 10.26367188 C-13.48575047 10.33747625 -13.48575047 10.33747625 -16 8.6875 C-17.50580734 6.14645011 -17.19214994 3.88224911 -17 1 C-14 3 -14 3 -13.1953125 5.078125 C-12.60363281 6.02945312 -12.60363281 6.02945312 -12 7 C-9.1213065 7.70535611 -9.1213065 7.70535611 -5.875 7.75 C-4.23144531 7.83507812 -4.23144531 7.83507812 -2.5546875 7.921875 C-1.71164063 7.94765625 -0.86859375 7.9734375 0 8 C0 5.36 0 2.72 0 0 Z " fill="#111111" transform="translate(108,270)"/>
<path d="M0 0 C1.65 0.33 3.3 0.66 5 1 C5.90594807 3.61718331 5.98235878 5.10143704 5.5 7.875 C4.96376636 11.22646028 5.41081278 13.68582189 6 17 C5.67 17.99 5.34 18.98 5 20 C4.01 19.67 3.02 19.34 2 19 C2.2475 18.4225 2.495 17.845 2.75 17.25 C2.8325 16.5075 2.915 15.765 3 15 C1.14567913 12.72855926 1.14567913 12.72855926 -1 11 C0.33333333 8.33333333 1.66666667 5.66666667 3 3 C2.01 2.67 1.02 2.34 0 2 C0 1.34 0 0.68 0 0 Z " fill="#000000" transform="translate(564,256)"/>
<path d="M0 0 C0.33 0.99 0.66 1.98 1 3 C-0.14453125 5.04296875 -0.14453125 5.04296875 -1.8125 7.1875 C-2.35519531 7.90292969 -2.89789063 8.61835938 -3.45703125 9.35546875 C-3.96621094 9.89816406 -4.47539063 10.44085938 -5 11 C-5.66 11 -6.32 11 -7 11 C-7 14.63 -7 18.26 -7 22 C-12.28 22 -17.56 22 -23 22 C-23 21.67 -23 21.34 -23 21 C-18.05 21 -13.1 21 -8 21 C-8 17.04 -8 13.08 -8 9 C-7.34 9 -6.68 9 -6 9 C-5.7525 8.2575 -5.505 7.515 -5.25 6.75 C-3.90852699 3.79875938 -2.39094474 2.15185026 0 0 Z " fill="#2C2C2C" transform="translate(118,259)"/>
<path d="M0 0 C-0.33 0.66 -0.66 1.32 -1 2 C-5.07657438 3.20255163 -9.08964742 3.10196591 -13.3125 3.0625 C-14.56675781 3.05347656 -15.82101563 3.04445312 -17.11328125 3.03515625 C-18.06589844 3.02355469 -19.01851563 3.01195312 -20 3 C-19.67 2.34 -19.34 1.68 -19 1 C-16.35350385 0.493791 -13.79556542 0.11206777 -11.125 -0.1875 C-10.02478516 -0.32961914 -10.02478516 -0.32961914 -8.90234375 -0.47460938 C-5.55009285 -0.87455916 -3.24049693 -1.08016564 0 0 Z " fill="#0A0A0A" transform="translate(139,224)"/>
<path d="M0 0 C0.66 0.33 1.32 0.66 2 1 C1.814375 1.515625 1.62875 2.03125 1.4375 2.5625 C0.83752918 5.1713937 0.83752918 5.1713937 1.5 8.5 C1.93772143 11.56405002 2.02210188 13.16082812 1 16 C0.01 15.67 -0.98 15.34 -2 15 C-1.773125 14.113125 -1.54625 13.22625 -1.3125 12.3125 C-0.94548054 8.42209376 -1.73118159 7.08559304 -4 4 C-2.68 2.68 -1.36 1.36 0 0 Z " fill="#000000" transform="translate(518,231)"/>
<path d="M0 0 C0 0.33 0 0.66 0 1 C-2.31 1.33 -4.62 1.66 -7 2 C-5.35 2.33 -3.7 2.66 -2 3 C-2 3.33 -2 3.66 -2 4 C-6.455 4.495 -6.455 4.495 -11 5 C-11.33 5.99 -11.66 6.98 -12 8 C-12.66 8.66 -13.32 9.32 -14 10 C-13.63768116 3.59903382 -13.63768116 3.59903382 -10.9375 1.0625 C-7.07163509 -0.33579156 -4.09806991 -0.20837644 0 0 Z " fill="#424242" transform="translate(104,264)"/>
<path d="M0 0 C0.33 0 0.66 0 1 0 C1.33872513 1.41538717 1.67074624 2.83237963 2 4.25 C2.185625 5.03890625 2.37125 5.8278125 2.5625 6.640625 C3 9 3 9 3 13 C2.34 13 1.68 13 1 13 C0.67 13.66 0.34 14.32 0 15 C-0.36552803 13.58622218 -0.71695495 12.16879424 -1.0625 10.75 C-1.25972656 9.96109375 -1.45695312 9.1721875 -1.66015625 8.359375 C-2.13314515 5.07563594 -1.46415031 2.92830061 0 0 Z " fill="#262626" transform="translate(45,198)"/>
<path d="M0 0 C0.99 0.33 1.98 0.66 3 1 C2.57316761 2.58624235 2.13303842 4.1689098 1.6875 5.75 C1.44386719 6.63171875 1.20023437 7.5134375 0.94921875 8.421875 C-0.02125331 11.05772505 -1.21005644 12.85407326 -3 15 C-3.66 14.67 -4.32 14.34 -5 14 C-4.731875 13.360625 -4.46375 12.72125 -4.1875 12.0625 C-2.64635858 8.08797739 -1.32390688 4.05115505 0 0 Z " fill="#282828" transform="translate(110,249)"/>
<path d="M0 0 C3 3.625 3 3.625 3 7 C2.34 7 1.68 7 1 7 C0.67 7.66 0.34 8.32 0 9 C-0.66 6.36 -1.32 3.72 -2 1 C-1.34 0.67 -0.68 0.34 0 0 Z " fill="#272727" transform="translate(41,183)"/>
<path d="M0 0 C0.33 0 0.66 0 1 0 C1 2.97 1 5.94 1 9 C0.01 9 -0.98 9 -2 9 C-1.125 1.125 -1.125 1.125 0 0 Z " fill="#000000" transform="translate(602,255)"/>
</svg>
