<?xml version="1.0" encoding="UTF-8"?>
<svg version="1.1" xmlns="http://www.w3.org/2000/svg" width="800" height="300">
<path d="M0 0 C264 0 528 0 800 0 C800 99 800 198 800 300 C536 300 272 300 0 300 C0 201 0 102 0 0 Z " fill="#FEFEFE" transform="translate(0,0)"/>
<path d="M0 0 C2.6875 -0.3125 2.6875 -0.3125 6 0 C6.65484375 0.82371094 7.3096875 1.64742187 7.984375 2.49609375 C12.5652212 6.2996202 16.79729447 5.57827168 22.5625 5.375 C23.56474609 5.36082031 24.56699219 5.34664062 25.59960938 5.33203125 C30.47519469 5.2414631 35.34076995 5.04623593 40.20825195 4.75537109 C54.45235002 3.91878154 68.67682983 3.84573931 82.94213867 3.86962891 C85.67653585 3.87416195 88.4108666 3.87421517 91.14526367 3.86962891 C100.43094505 3.85414611 109.7147567 3.89399703 119 4 C120.89718781 4.01987976 120.89718781 4.01987976 122.83270264 4.04016113 C126.4714204 4.08922994 130.10817747 4.16795371 133.74609375 4.2578125 C135.34216209 4.27822098 135.34216209 4.27822098 136.97047424 4.29904175 C147.76141846 4.63593906 157.23194941 7.126133 165.1015625 14.796875 C168.08119031 18.25471468 170.07594107 21.88307979 172 26 C172.5878125 27.06347656 172.5878125 27.06347656 173.1875 28.1484375 C176.97476175 35.43365628 176.77162077 42.60176161 175.375 50.5625 C169.6875 64.78125 169.6875 64.78125 163.4375 67.625 C157.70072769 69.69064707 152.18507829 70.14951793 146.12109375 70.1328125 C145.35992249 70.13413177 144.59875122 70.13545105 143.81451416 70.1368103 C141.35546728 70.1387179 138.89653518 70.13241583 136.4375 70.125 C135.60618561 70.12411377 134.77487122 70.12322754 133.91836548 70.12231445 C121.58858811 70.10680173 109.30284848 69.87542505 97 69 C97 68.34 97 67.68 97 67 C96.29617188 67.16242188 95.59234375 67.32484375 94.8671875 67.4921875 C87.40965184 68.81300444 79.59253259 68.08414043 72.08203125 67.5078125 C66.67319889 67.13155169 61.29977248 66.9117425 55.87890625 66.859375 C21.79509958 66.48121764 21.79509958 66.48121764 10.8125 58.25 C9.32421875 56.69140625 9.32421875 56.69140625 8 55 C7.51144531 54.41089844 7.02289063 53.82179688 6.51953125 53.21484375 C2.55488966 47.4511211 2.40935902 41.64162749 2.45166016 34.85229492 C2.47029608 32.43228376 2.47029608 32.43228376 2 29 C0.13377036 27.1371129 0.13377036 27.1371129 -2 26 C-3.20745835 22.37762495 -3.22246029 19.0229405 -3.25 15.25 C-3.270625 14.5590625 -3.29125 13.868125 -3.3125 13.15625 C-3.35088173 8.05147958 -2.27330153 4.57053254 0 0 Z " fill="#656565" transform="translate(428,216)"/>
<path d="M0 0 C2.95827103 1.56844181 5.12167858 3.20836633 7 6 C7.55918564 9.09315301 7.43441341 11.89704705 7 15 C7.721875 15.226875 8.44375 15.45375 9.1875 15.6875 C16.13267435 18.92858136 21.41518808 26.66112693 24.00927734 33.76318359 C24.96937849 36.89995564 25.62413711 39.93775178 26.18359375 43.16796875 C26.38919922 44.30814453 26.59480469 45.44832031 26.80664062 46.62304688 C27.22910721 49.01004847 27.6457245 51.39809231 28.05664062 53.78710938 C28.26353516 54.92341797 28.47042969 56.05972656 28.68359375 57.23046875 C28.86462646 58.26582764 29.04565918 59.30118652 29.23217773 60.36791992 C30.04513809 63.15473252 30.73982426 64.23914461 33 66 C33.99 66.495 33.99 66.495 35 67 C35 67.66 35 68.32 35 69 C35.86625 69.185625 35.86625 69.185625 36.75 69.375 C39 70 39 70 40.77294922 70.96948242 C49.45658899 74.9876411 60.52006472 74.28735605 69.875 74.1875 C71.63070312 74.1865332 71.63070312 74.1865332 73.421875 74.18554688 C81.7692417 74.18993726 81.7692417 74.18993726 90 73 C90.33 72.34 90.66 71.68 91 71 C92.89160156 70.63696289 92.89160156 70.63696289 95.390625 70.47265625 C96.31818604 70.4041748 97.24574707 70.33569336 98.20141602 70.26513672 C99.20744873 70.1982666 100.21348145 70.13139648 101.25 70.0625 C110.29316689 69.38222094 119.21238753 68.37292576 128.17089844 66.96508789 C132.49874871 66.29751226 136.60269899 65.84320807 141 66 C141.0825 65.46375 141.165 64.9275 141.25 64.375 C142.33860106 60.92776329 143.59053237 58.71837373 146 56 C148.99604761 55.25840406 150.84613762 55.54218127 154 56 C156.4294516 59.6441774 156.16179575 61.71241272 156 66 C157.11375 66.0928125 157.11375 66.0928125 158.25 66.1875 C161.97501049 67.28807128 163.0467078 68.67216884 165 72 C165.64098532 75.46132073 165.6349196 77.7034835 164.0703125 80.8984375 C159.80810825 86.87561151 153.93403087 87.82188796 147 89 C147.33 89.99 147.66 90.98 148 92 C148.37066773 97.00401435 148.09881835 99.98301324 145 104 C141.30513897 106.46324069 139.36706908 106.38991688 135 106 C134.505 105.484375 134.01 104.96875 133.5 104.4375 C133.005 103.963125 132.51 103.48875 132 103 C128.49653238 103.26949751 125.22956625 103.94598441 121.8125 104.75 C115.28238176 105.17820447 108.46630271 103.64420181 103 100 C102.62875 101.051875 102.62875 101.051875 102.25 102.125 C100.83046505 105.38993039 99.02868562 108.07630602 97 111 C96.29875 112.11375 95.5975 113.2275 94.875 114.375 C94.25625 115.24125 93.6375 116.1075 93 117 C92.34 117 91.68 117 91 117 C91 120.3 91 123.6 91 127 C88.58265458 127.08117951 86.16805051 127.14056926 83.75 127.1875 C83.06808594 127.21263672 82.38617188 127.23777344 81.68359375 127.26367188 C78.61988071 127.30828906 76.3357466 127.16356886 73.5625 125.8125 C71.5261095 123.45028702 71.41041832 121.90055266 71.25 118.8125 C71.19328125 117.91144531 71.1365625 117.01039063 71.078125 116.08203125 C71.05234375 115.39496094 71.0265625 114.70789063 71 114 C75.90924297 110.07260562 78.73920552 109.56822107 85 110 C85.12375 109.42378906 85.2475 108.84757812 85.375 108.25390625 C86.01484803 105.9464543 86.89027909 104.05494542 88 101.9375 C89.21973475 99.60116984 90.16101823 97.5169453 91 95 C58.33 95 25.66 95 -8 95 C-2.02291057 105.28495918 -2.02291057 105.28495918 7.6875 110.1875 C8.45449219 110.30480469 9.22148437 110.42210937 10.01171875 110.54296875 C12 111 12 111 14 113 C14.60291632 117.42399641 14.46767013 121.65544837 13 125.875 C9.12262456 129.9947114 4.82555672 131.78701838 -0.75 132.4375 C-4.25548886 131.96560727 -5.7735729 131.76076961 -8 129 C-8.52238806 123.04477612 -8.52238806 123.04477612 -7 120 C-6.34 120 -5.68 120 -5 120 C-5 119.34 -5 118.68 -5 118 C-6.1446875 117.62875 -6.1446875 117.62875 -7.3125 117.25 C-10.34509102 115.83949255 -11.27171811 114.81746525 -13 112 C-13.38311005 109.79827785 -13.38311005 109.79827785 -13.39440918 107.36314392 C-13.40575897 106.4364238 -13.41710876 105.50970367 -13.42880249 104.55490112 C-13.42587189 103.54541412 -13.42294128 102.53592712 -13.41992188 101.49584961 C-13.42839142 100.42719162 -13.43686096 99.35853363 -13.44558716 98.25749207 C-13.46900203 94.72232188 -13.46997838 91.18758564 -13.46875 87.65234375 C-13.47584764 85.1990186 -13.48354605 82.74569512 -13.49182129 80.29237366 C-13.50527558 75.15019108 -13.50683 70.00816207 -13.50097656 64.8659668 C-13.49507258 58.26562019 -13.52569758 51.66600715 -13.56609344 45.06580257 C-13.59189597 40.00012722 -13.59485474 34.9346304 -13.59120178 29.86889839 C-13.59289928 27.43474035 -13.60260186 25.0005746 -13.62034607 22.56648064 C-13.6423931 19.16873348 -13.63290613 15.77249628 -13.61523438 12.37475586 C-13.62849762 11.36324463 -13.64176086 10.3517334 -13.65542603 9.30957031 C-13.62466559 6.77410044 -13.55603309 4.47347246 -13 2 C-9.07171239 -1.66868671 -4.95478516 -1.65471127 0 0 Z " fill="#FCFCFC" transform="translate(13,154)"/>
<path d="M0 0 C2.95827103 1.56844181 5.12167858 3.20836633 7 6 C7.55918564 9.09315301 7.43441341 11.89704705 7 15 C7.721875 15.226875 8.44375 15.45375 9.1875 15.6875 C16.13267435 18.92858136 21.41518808 26.66112693 24.00927734 33.76318359 C24.96937849 36.89995564 25.62413711 39.93775178 26.18359375 43.16796875 C26.38919922 44.30814453 26.59480469 45.44832031 26.80664062 46.62304688 C27.22910721 49.01004847 27.6457245 51.39809231 28.05664062 53.78710938 C28.26353516 54.92341797 28.47042969 56.05972656 28.68359375 57.23046875 C28.86462646 58.26582764 29.04565918 59.30118652 29.23217773 60.36791992 C30.04513809 63.15473252 30.73982426 64.23914461 33 66 C33.99 66.495 33.99 66.495 35 67 C35 67.66 35 68.32 35 69 C35.86625 69.185625 35.86625 69.185625 36.75 69.375 C39 70 39 70 40.77294922 70.96948242 C49.45658899 74.9876411 60.52006472 74.28735605 69.875 74.1875 C71.63070312 74.1865332 71.63070312 74.1865332 73.421875 74.18554688 C81.7692417 74.18993726 81.7692417 74.18993726 90 73 C90.33 72.34 90.66 71.68 91 71 C92.89160156 70.63696289 92.89160156 70.63696289 95.390625 70.47265625 C96.31818604 70.4041748 97.24574707 70.33569336 98.20141602 70.26513672 C99.20744873 70.1982666 100.21348145 70.13139648 101.25 70.0625 C110.29316689 69.38222094 119.21238753 68.37292576 128.17089844 66.96508789 C132.49874871 66.29751226 136.60269899 65.84320807 141 66 C141.0825 65.46375 141.165 64.9275 141.25 64.375 C142.33860106 60.92776329 143.59053237 58.71837373 146 56 C148.99604761 55.25840406 150.84613762 55.54218127 154 56 C156.4294516 59.6441774 156.16179575 61.71241272 156 66 C157.11375 66.0928125 157.11375 66.0928125 158.25 66.1875 C161.97501049 67.28807128 163.0467078 68.67216884 165 72 C165.64098532 75.46132073 165.6349196 77.7034835 164.0703125 80.8984375 C159.80810825 86.87561151 153.93403087 87.82188796 147 89 C147.33 89.99 147.66 90.98 148 92 C148.37066773 97.00401435 148.09881835 99.98301324 145 104 C141.30513897 106.46324069 139.36706908 106.38991688 135 106 C134.505 105.484375 134.01 104.96875 133.5 104.4375 C133.005 103.963125 132.51 103.48875 132 103 C128.49653238 103.26949751 125.22956625 103.94598441 121.8125 104.75 C115.28238176 105.17820447 108.46630271 103.64420181 103 100 C102.62875 101.051875 102.62875 101.051875 102.25 102.125 C100.83046505 105.38993039 99.02868562 108.07630602 97 111 C96.29875 112.11375 95.5975 113.2275 94.875 114.375 C94.25625 115.24125 93.6375 116.1075 93 117 C92.34 117 91.68 117 91 117 C91 120.3 91 123.6 91 127 C88.58265458 127.08117951 86.16805051 127.14056926 83.75 127.1875 C83.06808594 127.21263672 82.38617188 127.23777344 81.68359375 127.26367188 C78.61988071 127.30828906 76.3357466 127.16356886 73.5625 125.8125 C71.5261095 123.45028702 71.41041832 121.90055266 71.25 118.8125 C71.19328125 117.91144531 71.1365625 117.01039063 71.078125 116.08203125 C71.05234375 115.39496094 71.0265625 114.70789063 71 114 C75.90924297 110.07260562 78.73920552 109.56822107 85 110 C85.12375 109.42378906 85.2475 108.84757812 85.375 108.25390625 C86.01484803 105.9464543 86.89027909 104.05494542 88 101.9375 C89.21973475 99.60116984 90.16101823 97.5169453 91 95 C58.33 95 25.66 95 -8 95 C-2.02291057 105.28495918 -2.02291057 105.28495918 7.6875 110.1875 C8.45449219 110.30480469 9.22148437 110.42210937 10.01171875 110.54296875 C12 111 12 111 14 113 C14.60291632 117.42399641 14.46767013 121.65544837 13 125.875 C9.12262456 129.9947114 4.82555672 131.78701838 -0.75 132.4375 C-4.25548886 131.96560727 -5.7735729 131.76076961 -8 129 C-8.52238806 123.04477612 -8.52238806 123.04477612 -7 120 C-6.34 120 -5.68 120 -5 120 C-5 119.34 -5 118.68 -5 118 C-6.1446875 117.62875 -6.1446875 117.62875 -7.3125 117.25 C-10.35263637 115.83598308 -11.28412299 114.83797556 -13 112 C-13.34057617 109.61816406 -13.34057617 109.61816406 -13.29296875 107.015625 C-13.28330078 106.08105469 -13.27363281 105.14648438 -13.26367188 104.18359375 C-13.23853516 103.21550781 -13.21339844 102.24742187 -13.1875 101.25 C-13.17396484 100.26644531 -13.16042969 99.28289062 -13.14648438 98.26953125 C-13.11118726 95.84579585 -13.06188054 93.42317855 -13 91 C-2.07112578 90.8679226 8.85776624 90.73743473 19.78668213 90.60884857 C24.86414503 90.54906153 29.94160084 90.48877393 35.01904297 90.42724609 C73.81968351 89.95788351 73.81968351 89.95788351 88.5625 89.90625 C89.50109863 89.8997644 90.43969727 89.89327881 91.40673828 89.88659668 C92.66139893 89.88569031 92.66139893 89.88569031 93.94140625 89.88476562 C94.63951416 89.88271118 95.33762207 89.88065674 96.05688477 89.87854004 C98.13859555 90.00866331 99.99613651 90.43453118 102 91 C102 91.99 102 92.98 102 94 C99.36 94.33 96.72 94.66 94 95 C90.04 104.9 90.04 104.9 86 115 C82.37 115 78.74 115 75 115 C73.74961947 118.69756695 73.74961947 118.69756695 74.5234375 121.203125 C75.94791972 123.32291716 75.94791972 123.32291716 79.0390625 123.609375 C80.22242187 123.65578125 81.40578125 123.7021875 82.625 123.75 C84.40777344 123.83507812 84.40777344 123.83507812 86.2265625 123.921875 C87.14179687 123.94765625 88.05703125 123.9734375 89 124 C88.835 122.865625 88.67 121.73125 88.5 120.5625 C88.46206851 116.28382846 89.9628713 114.41739709 92.8125 111.3125 C93.52019531 110.60738281 94.22789063 109.90226562 94.95703125 109.17578125 C98.01968148 105.91402948 99.992757 102.30330443 101.6875 98.1875 C102.120625 97.135625 102.55375 96.08375 103 95 C103.99 95 104.98 95 106 95 C106.2784375 95.928125 106.2784375 95.928125 106.5625 96.875 C108.77267991 100.14222247 111.2176961 100.25594022 115 101 C119.91940197 101.34522119 123.38551901 100.60503687 128 99 C130.75 98.6875 130.75 98.6875 133 99 C133.99 100.485 133.99 100.485 135 102 C138.10294377 102.39612048 140.1109399 102.55183041 142.8125 100.875 C144.42228269 98.33323785 144.67109009 95.9601892 145 93 C144.01 92.67 143.02 92.34 142 92 C141.67 91.01 141.34 90.02 141 89 C138.69 89 136.38 89 134 89 C133.67 90.32 133.34 91.64 133 93 C129.97961911 93.33794471 126.95880244 93.67048433 123.9375 94 C123.08994141 94.09539062 122.24238281 94.19078125 121.36914062 94.2890625 C116.54527411 94.81056158 111.85163736 95.10532727 107 95 C107 94.01 107 93.02 107 92 C107.99902344 91.86722656 108.99804688 91.73445313 110.02734375 91.59765625 C111.31769531 91.42105469 112.60804687 91.24445313 113.9375 91.0625 C115.86916016 90.80146484 115.86916016 90.80146484 117.83984375 90.53515625 C120.85466313 90.33837577 120.85466313 90.33837577 122 89 C124.67058851 88.85884839 127.32432238 88.95752893 130 89 C130.33 88.01 130.66 87.02 131 86 C133.73333586 84.63333207 135.82385018 85.01524641 138.875 85.125 C150.18804765 85.20294811 150.18804765 85.20294811 159.85546875 80.1875 C161.24667771 77.52853407 161.16214016 76.18413914 160.6875 73.25 C160.460625 71.8475 160.23375 70.445 160 69 C157.03 69 154.06 69 151 69 C151.33 65.7 151.66 62.4 152 59 C148.0285831 59.62841973 148.0285831 59.62841973 146 62 C145.60235737 63.98821313 145.26224651 65.98944339 145 68 C130.8585056 70.5963576 116.8019189 72.956111 102.4140625 73.65625 C101.61742188 73.7696875 100.82078125 73.883125 100 74 C99.67 74.66 99.34 75.32 99 76 C89.35121206 78.54992438 79.01396903 78.18123997 69.125 78.1875 C67.85809326 78.18830566 66.59118652 78.18911133 65.28588867 78.18994141 C56.13393571 78.13393571 56.13393571 78.13393571 55 77 C51.28147216 76.53690344 47.56112745 76.16258476 43.83203125 75.79296875 C39.66334276 74.93033494 37.36421307 73.55099322 34 71 C32.9275 70.29875 31.855 69.5975 30.75 68.875 C28 67 28 67 26 65 C25.62109375 62.65234375 25.62109375 62.65234375 25.4375 59.9375 C25.46018047 56.66160436 25.46018047 56.66160436 24 54 C23.85884839 51.32941149 23.95752893 48.67567762 24 46 C23.34 46 22.68 46 22 46 C21.87882812 45.27554688 21.75765625 44.55109375 21.6328125 43.8046875 C20.37894711 36.2520907 20.37894711 36.2520907 18 29 C17.34 28.67 16.68 28.34 16 28 C15.00975966 26.24312198 14.02194748 24.48385766 13.09765625 22.69140625 C11.95248983 20.68233132 11.95248983 20.68233132 9 19 C7.0103005 18.60986284 5.00980131 18.26797351 3 18 C3.05800781 17.32453125 3.11601562 16.6490625 3.17578125 15.953125 C3.56667289 10.24137107 3.56667289 10.24137107 0.9375 5.375 C-2.64747959 3.69692445 -5.08440825 3.55672546 -9 4 C-11.58926331 6.58926331 -11.37398043 8.02705279 -11.625 11.625 C-11.69976562 12.62789062 -11.77453125 13.63078125 -11.8515625 14.6640625 C-11.90054687 15.43492187 -11.94953125 16.20578125 -12 17 C-12.33 17 -12.66 17 -13 17 C-13.13501894 14.56065775 -13.23403897 12.12875896 -13.3125 9.6875 C-13.35439453 8.99720703 -13.39628906 8.30691406 -13.43945312 7.59570312 C-13.48828125 5.57421875 -13.48828125 5.57421875 -13 2 C-8.93390827 -1.52906075 -4.99168941 -1.6670359 0 0 Z " fill="#151515" transform="translate(13,154)"/>
<path d="M0 0 C2.6875 -0.3125 2.6875 -0.3125 6 0 C6.65484375 0.82371094 7.3096875 1.64742187 7.984375 2.49609375 C12.5652212 6.2996202 16.79729447 5.57827168 22.5625 5.375 C23.56474609 5.36082031 24.56699219 5.34664062 25.59960938 5.33203125 C30.47519469 5.2414631 35.34076995 5.04623593 40.20825195 4.75537109 C54.45235002 3.91878154 68.67682983 3.84573931 82.94213867 3.86962891 C85.67653585 3.87416195 88.4108666 3.87421517 91.14526367 3.86962891 C100.43094505 3.85414611 109.7147567 3.89399703 119 4 C120.89718781 4.01987976 120.89718781 4.01987976 122.83270264 4.04016113 C126.4714204 4.08922994 130.10817747 4.16795371 133.74609375 4.2578125 C135.34216209 4.27822098 135.34216209 4.27822098 136.97047424 4.29904175 C147.76141846 4.63593906 157.23194941 7.126133 165.1015625 14.796875 C168.08119031 18.25471468 170.07594107 21.88307979 172 26 C172.5878125 27.06347656 172.5878125 27.06347656 173.1875 28.1484375 C176.97476175 35.43365628 176.77162077 42.60176161 175.375 50.5625 C169.6875 64.78125 169.6875 64.78125 163.4375 67.625 C157.70072769 69.69064707 152.18507829 70.14951793 146.12109375 70.1328125 C145.35992249 70.13413177 144.59875122 70.13545105 143.81451416 70.1368103 C141.35546728 70.1387179 138.89653518 70.13241583 136.4375 70.125 C135.60618561 70.12411377 134.77487122 70.12322754 133.91836548 70.12231445 C121.58858811 70.10680173 109.30284848 69.87542505 97 69 C97 68.34 97 67.68 97 67 C96.29617188 67.16242188 95.59234375 67.32484375 94.8671875 67.4921875 C87.40965184 68.81300444 79.59253259 68.08414043 72.08203125 67.5078125 C66.67319889 67.13155169 61.29977248 66.9117425 55.87890625 66.859375 C21.79509958 66.48121764 21.79509958 66.48121764 10.8125 58.25 C9.32421875 56.69140625 9.32421875 56.69140625 8 55 C7.51144531 54.41089844 7.02289063 53.82179688 6.51953125 53.21484375 C2.55488966 47.4511211 2.40935902 41.64162749 2.45166016 34.85229492 C2.47029608 32.43228376 2.47029608 32.43228376 2 29 C0.13377036 27.1371129 0.13377036 27.1371129 -2 26 C-3.20745835 22.37762495 -3.22246029 19.0229405 -3.25 15.25 C-3.270625 14.5590625 -3.29125 13.868125 -3.3125 13.15625 C-3.35088173 8.05147958 -2.27330153 4.57053254 0 0 Z M3 3 C-0.71059486 9.13054803 -1.71075839 15.44620807 -0.3125 22.4375 C0.78058442 25.09159104 0.78058442 25.09159104 3 26.3125 C6.24734023 29.05244332 6.35310018 32.93985245 7 37 C9.64573501 34.77122275 9.64573501 34.77122275 12 32 C11.95502158 29.72476911 11.95502158 29.72476911 11 28 C12.32 27.34 13.64 26.68 15 26 C14.67 24.35 14.34 22.7 14 21 C14.99 21.99 15.98 22.98 17 24 C15.39680795 28.66383143 13.08350522 33.14135949 10 37 C9.30648438 37.30550781 8.61296875 37.61101562 7.8984375 37.92578125 C5.77741393 38.86585583 5.77741393 38.86585583 5.07421875 41.29296875 C4.97884902 44.77145414 5.96425246 46.39079722 7.8125 49.3125 C8.35519531 50.19550781 8.89789063 51.07851563 9.45703125 51.98828125 C9.96621094 52.65214844 10.47539062 53.31601562 11 54 C11.66 54 12.32 54 13 54 C13.33 54.99 13.66 55.98 14 57 C16.36401089 58.26080581 18.47896761 59.14504119 21 60 C21.81339844 60.28230469 22.62679688 60.56460938 23.46484375 60.85546875 C33.75725957 63.93020167 46.48210319 64.63478627 57 62 C57.53394179 60.5882217 58.05165104 59.17029756 58.5625 57.75 C58.85253906 56.96109375 59.14257812 56.1721875 59.44140625 55.359375 C60.0610168 52.74227867 59.94248701 51.4926979 59 49 C58.34 48.01 57.68 47.02 57 46 C57.53625 45.443125 58.0725 44.88625 58.625 44.3125 C59.07875 43.549375 59.5325 42.78625 60 42 C59.26145768 39.36186139 59.26145768 39.36186139 58 37 C58 36.34 58 35.68 58 35 C58.99 35.33 59.98 35.66 61 36 C61.94002987 40.38680608 61.74651537 43.61422219 61 48 C61.185625 48.804375 61.37125 49.60875 61.5625 50.4375 C62.16494838 53.96612624 61.00559799 56.60610677 60 60 C60.33 60.99 60.66 61.98 61 63 C62.06927734 63.09087891 62.06927734 63.09087891 63.16015625 63.18359375 C71.41188054 63.9054808 71.41188054 63.9054808 75.5 64.5625 C82.43977973 65.42997247 89.12334905 65.23427068 96 64 C96.66 64.33 97.32 64.66 98 65 C100.56845219 65.03037021 103.120762 64.93311185 105.6875 64.83984375 C108 65 108 65 110 67 C112.52377655 67.27808217 112.52377655 67.27808217 115.4453125 67.1953125 C116.52167969 67.18886719 117.59804688 67.18242187 118.70703125 67.17578125 C119.83496094 67.15902344 120.96289062 67.14226562 122.125 67.125 C123.26066406 67.11597656 124.39632812 67.10695313 125.56640625 67.09765625 C128.37781299 67.07403098 131.18880298 67.04109013 134 67 C134 66.34 134 65.68 134 65 C134.99 64.67 135.98 64.34 137 64 C138.56028793 61.15102982 139.46843274 58.20059445 140 55 C139.01919106 52.38017854 139.01919106 52.38017854 137 51 C136.34 51 135.68 51 135 51 C135.66 50.236875 136.32 49.47375 137 48.6875 C139.29850538 46.15722061 139.29850538 46.15722061 139 43 C137.56249809 41.31201173 137.56249809 41.31201173 136 40 C137.32 40.33 138.64 40.66 140 41 C140.90594807 43.61718331 140.98235878 45.10143704 140.5 47.875 C139.82038781 50.94518924 139.82038781 50.94518924 140.5625 53.75 C141.18730226 58.39138818 140.07980006 62.48447249 139 67 C149.65771916 67.35857747 158.40464935 67.06190317 166.59375 59.53515625 C171.66979043 54.24761413 174.03554301 48.43102855 173.9765625 41.078125 C172.70835554 30.19972752 166.40917284 21.74595342 159 14 C158.01 13.67 157.02 13.34 156 13 C154.39819908 16.38766195 154.39819908 16.38766195 154.125 20.0625 C154.8950733 22.17907441 154.8950733 22.17907441 157.0625 23.5625 C160.20275922 27.5131487 159.47149501 32.13046134 159 37 C158.67 37.66 158.34 38.32 158 39 C157.01 39.33 156.02 39.66 155 40 C155.165 38.9275 155.33 37.855 155.5 36.75 C156.3352003 30.76189263 156.3352003 30.76189263 155 25 C152.50965614 23.70339566 152.50965614 23.70339566 150 23 C150.99 19.7 151.98 16.4 153 13 C146.68439027 7.21069108 141.08633074 7.22890562 132.75 7.1875 C130.97496094 7.14979492 130.97496094 7.14979492 129.1640625 7.11132812 C125.10889692 7.03050193 121.05589005 7 117 7 C116.97111854 10.31248187 116.95324201 13.62493167 116.9375 16.9375 C116.92493164 18.35579102 116.92493164 18.35579102 116.91210938 19.80273438 C116.90727539 21.15141602 116.90727539 21.15141602 116.90234375 22.52734375 C116.89448853 23.77632446 116.89448853 23.77632446 116.88647461 25.05053711 C116.78356708 27.00516798 116.78356708 27.00516798 118 28 C118.26293056 32.03160191 118.29404844 33.55892734 116 37 C113.875 37.6875 113.875 37.6875 112 38 C113.75 34.125 113.75 34.125 116 33 C115.89171875 31.86111328 115.89171875 31.86111328 115.78125 30.69921875 C115.6884375 29.70535156 115.595625 28.71148437 115.5 27.6875 C115.4071875 26.70136719 115.314375 25.71523437 115.21875 24.69921875 C115 22 115 22 115 19 C114.34 19 113.68 19 113 19 C113.556875 17.63875 113.556875 17.63875 114.125 16.25 C115.25131743 13.16467339 115.25131743 13.16467339 114.375 10.75 C112.21694327 8.00338235 109.96584178 7.12449559 106.52636719 6.68115234 C105.62563477 6.64973145 104.72490234 6.61831055 103.796875 6.5859375 C102.8171875 6.54726562 101.8375 6.50859375 100.828125 6.46875 C99.30445313 6.42234375 99.30445313 6.42234375 97.75 6.375 C96.203125 6.31699219 96.203125 6.31699219 94.625 6.2578125 C92.0835106 6.16368326 89.54202567 6.07805021 87 6 C87.495 6.99 87.495 6.99 88 8 C88.66 8 89.32 8 90 8 C90.67228569 12.48190462 91.12701027 15.63283522 90 20 C90.29235267 22.33882138 90.62599214 24.67284 91 27 C91 28.32 91 29.64 91 31 C90.01 30.01 90.01 30.01 89 29 C89.2784375 27.824375 89.2784375 27.824375 89.5625 26.625 C90.29178752 23.94859806 90.29178752 23.94859806 88.6875 21.6875 C88.130625 21.130625 87.57375 20.57375 87 20 C86.34 20 85.68 20 85 20 C85.680625 19.443125 86.36125 18.88625 87.0625 18.3125 C89.25510881 16.18317288 89.25510881 16.18317288 89.0625 13.5 C87.56544541 9.97751862 86.33969805 8.96356171 83 7 C79.03453696 6.4431461 75.1217931 6.53050618 71.125 6.625 C70.0119751 6.63789063 68.8989502 6.65078125 67.75219727 6.6640625 C59.38070792 6.81952868 51.23850267 7.4996548 43 9 C43.04253906 10.093125 43.08507812 11.18625 43.12890625 12.3125 C43 16 43 16 40.9375 19 C38.43457181 22.87550172 39.20915027 24.57124149 40 29 C39.125 32.1875 39.125 32.1875 38 35 C37.65023242 36.32911682 37.30903983 37.66082739 37 39 C35.79371992 36.66785852 34.8345262 34.50357861 34 32 C34.639375 31.7525 35.27875 31.505 35.9375 31.25 C38.12493715 30.18550582 38.12493715 30.18550582 38.875 28.125 C39.02904228 25.50628117 38.24534014 24.27091436 37 22 C37 21.01 37 20.02 37 19 C39 17.3125 39 17.3125 41 16 C40.81171228 13.55519921 40.81171228 13.55519921 40 11 C36.96969085 8.99095526 34.40823739 8.73084337 30.82421875 8.65625 C29.83099609 8.62660156 28.83777344 8.59695312 27.81445312 8.56640625 C26.26661133 8.53353516 26.26661133 8.53353516 24.6875 8.5 C8.56797015 8.15378142 8.56797015 8.15378142 4.0625 4.375 C3.711875 3.92125 3.36125 3.4675 3 3 Z " fill="#111111" transform="translate(428,216)"/>
<path d="M0 0 C0.93859863 -0.0064856 1.87719727 -0.01297119 2.84423828 -0.01965332 C4.09889893 -0.02055969 4.09889893 -0.02055969 5.37890625 -0.02148438 C6.42606812 -0.02456604 6.42606812 -0.02456604 7.49438477 -0.02770996 C9.57609555 0.10241331 11.43363651 0.52828118 13.4375 1.09375 C13.4375 2.08375 13.4375 3.07375 13.4375 4.09375 C10.7975 4.42375 8.1575 4.75375 5.4375 5.09375 C2.7975 11.69375 0.1575 18.29375 -2.5625 25.09375 C-6.5225 25.09375 -10.4825 25.09375 -14.5625 25.09375 C-14.2325 23.77375 -13.9025 22.45375 -13.5625 21.09375 C-10.34798731 19.48649365 -7.12637464 20.03626815 -3.5625 20.09375 C-3.376875 19.22943359 -3.376875 19.22943359 -3.1875 18.34765625 C-2.54765197 16.0402043 -1.67222091 14.14869542 -0.5625 12.03125 C0.65723475 9.69491984 1.59851823 7.6106953 2.4375 5.09375 C-30.2325 5.09375 -62.9025 5.09375 -96.5625 5.09375 C-90.58541057 15.37870918 -90.58541057 15.37870918 -80.875 20.28125 C-80.10800781 20.39855469 -79.34101562 20.51585937 -78.55078125 20.63671875 C-76.5625 21.09375 -76.5625 21.09375 -74.5625 23.09375 C-73.95958368 27.51774641 -74.09482987 31.74919837 -75.5625 35.96875 C-79.43987544 40.0884614 -83.73694328 41.88076838 -89.3125 42.53125 C-92.81798886 42.05935727 -94.3360729 41.85451961 -96.5625 39.09375 C-97.08488806 33.13852612 -97.08488806 33.13852612 -95.5625 30.09375 C-94.9025 30.09375 -94.2425 30.09375 -93.5625 30.09375 C-93.5625 29.43375 -93.5625 28.77375 -93.5625 28.09375 C-94.325625 27.84625 -95.08875 27.59875 -95.875 27.34375 C-98.91513637 25.92973308 -99.84662299 24.93172556 -101.5625 22.09375 C-101.90307617 19.71191406 -101.90307617 19.71191406 -101.85546875 17.109375 C-101.84580078 16.17480469 -101.83613281 15.24023438 -101.82617188 14.27734375 C-101.80103516 13.30925781 -101.77589844 12.34117187 -101.75 11.34375 C-101.73646484 10.36019531 -101.72292969 9.37664062 -101.70898438 8.36328125 C-101.67368726 5.93954585 -101.62438054 3.51692855 -101.5625 1.09375 C-90.63362578 0.9616726 -79.70473376 0.83118473 -68.77581787 0.70259857 C-63.69835497 0.64281153 -58.62089916 0.58252393 -53.54345703 0.52099609 C-14.74281649 0.05163351 -14.74281649 0.05163351 0 0 Z " fill="#212121" transform="translate(101.5625,243.90625)"/>
<path d="M0 0 C2.31 0 4.62 0 7 0 C7.28875 0.639375 7.5775 1.27875 7.875 1.9375 C8.82823451 4.15206079 8.82823451 4.15206079 11 5 C11.32152515 8.53677664 11.4131192 10.3962104 9.375 13.375 C6.33871982 15.45245486 4.60745994 15.54896129 1 15 C0.34 14.01 -0.32 13.02 -1 12 C-2.258125 12.144375 -3.51625 12.28875 -4.8125 12.4375 C-5.87404297 12.55931641 -5.87404297 12.55931641 -6.95703125 12.68359375 C-9.19396393 12.97170735 -9.19396393 12.97170735 -12 14 C-17.25582975 14.41222194 -22.49480687 13.94485795 -27 11 C-27.7265625 8.890625 -27.7265625 8.890625 -28 7 C-28.99 7 -29.98 7 -31 7 C-31.103125 7.928125 -31.20625 8.85625 -31.3125 9.8125 C-32.04746414 13.22006102 -32.51102506 13.79821448 -35 16 C-35.6496875 17.11375 -35.6496875 17.11375 -36.3125 18.25 C-37.78852961 20.65538159 -39.19893413 22.29449781 -41.125 24.3125 C-44.48839253 28.09215398 -44.82512568 31.01608198 -45 36 C-47.10241603 36.13496251 -49.2072961 36.23197307 -51.3125 36.3125 C-52.48425781 36.37050781 -53.65601562 36.42851562 -54.86328125 36.48828125 C-58 36 -58 36 -59.93359375 33.62109375 C-61 31 -61 31 -60.75 28.75 C-60 27 -60 27 -59 26 C-57.52351124 25.90176004 -56.04224583 25.87026481 -54.5625 25.875 C-53.35787109 25.87113281 -53.35787109 25.87113281 -52.12890625 25.8671875 C-50 26 -50 26 -48 27 C-47.608125 25.7625 -47.21625 24.525 -46.8125 23.25 C-44.86118823 17.36792078 -42.43753821 11.69401218 -40 6 C-37.36 6 -34.72 6 -32 6 C-31.67 5.34 -31.34 4.68 -31 4 C-31 4.66 -31 5.32 -31 6 C-29.68 5.67 -28.36 5.34 -27 5 C-27 5.66 -27 6.32 -27 7 C-26.12859375 6.855625 -25.2571875 6.71125 -24.359375 6.5625 C-16.49559833 5.33697636 -8.95464935 4.73775881 -1 5 C-0.67 3.35 -0.34 1.7 0 0 Z " fill="#F4F4F4" transform="translate(147,242)"/>
<path d="M0 0 C2 1.8125 2 1.8125 4 4 C4 4.99 4 5.98 4 7 C4.99 7.33 5.98 7.66 7 8 C8.28125 9.55859375 8.28125 9.55859375 9.5 11.4375 C11.25977667 14.13920842 12.1990713 15.1327142 15 17 C17.01658904 17.41516798 17.01658904 17.41516798 19.125 17.5625 C23 18 23 18 24 19 C24.45018887 23.83953034 23.70098064 26.94852904 21 31 C16.97410526 33.68392983 13.81663681 34.54734509 9 34 C8.34 33.34 7.68 32.68 7 32 C7.125 30.0625 7.125 30.0625 8 28 C9.31337396 26.9739266 10.64664105 25.97272675 12 25 C12.33 24.01 12.66 23.02 13 22 C11.96875 21.773125 10.9375 21.54625 9.875 21.3125 C2.08497696 18.90092464 2.08497696 18.90092464 0 15 C-0.5116302 9.94832499 -0.34357225 5.058147 0 0 Z " fill="#F6F6F6" transform="translate(0,249)"/>
<path d="M0 0 C6.93 0.495 6.93 0.495 14 1 C14 1.33 14 1.66 14 2 C11.36 2.33 8.72 2.66 6 3 C6.86095213 8.94266958 9.55707458 13.00523054 14 17 C16.8878159 18.19564317 19.57609929 18.89348056 22.64453125 19.46484375 C25 20 25 20 27 22 C27.60291632 26.42399641 27.46767013 30.65544837 26 34.875 C22.12262456 38.9947114 17.82555672 40.78701838 12.25 41.4375 C8.74451114 40.96560727 7.2264271 40.76076961 5 38 C4.47761194 32.04477612 4.47761194 32.04477612 6 29 C6.66 29 7.32 29 8 29 C8 28.34 8 27.68 8 27 C7.236875 26.7525 6.47375 26.505 5.6875 26.25 C2.73919055 24.87869328 1.64165468 23.7648921 0 21 C0 20.34 0 19.68 0 19 C2.17503665 20.00983845 4.03589517 21.02778981 5.9375 22.5 C8.19232577 24.13987329 10.38678522 25.05633911 13 26 C12.60196439 28.88575819 12.20990931 29.82189513 9.9375 31.75 C9.298125 32.1625 8.65875 32.575 8 33 C8.33 34.32 8.66 35.64 9 37 C10.43836751 36.88541307 11.87570966 36.75790884 13.3125 36.625 C14.51326172 36.52058594 14.51326172 36.52058594 15.73828125 36.4140625 C18.27224441 36.10435574 18.27224441 36.10435574 21 34 C22.97459054 30.25867056 23.1949107 27.19058012 23 23 C21.783125 22.9175 20.56625 22.835 19.3125 22.75 C15.14894636 22.21395165 12.98276523 21.06561982 10 18 C8.63988391 16.01811655 7.30208796 14.02048131 6 12 C5.34 11.67 4.68 11.34 4 11 C1.83572625 7.1908782 0.87397771 4.36988856 0 0 Z " fill="#161616" transform="translate(0,245)"/>
<path d="M0 0 C0.99 0 1.98 0 3 0 C3.185625 0.61875 3.37125 1.2375 3.5625 1.875 C5.77267991 5.14222247 8.2176961 5.25594022 12 6 C16.91940197 6.34522119 20.38551901 5.60503687 25 4 C27.75 3.6875 27.75 3.6875 30 4 C30.66 4.99 31.32 5.98 32 7 C35.97475764 7.61829563 37.5419102 7.31867116 40.875 5 C41.926875 4.01 41.926875 4.01 43 3 C43.495 4.485 43.495 4.485 44 6 C41.18565365 9.4113289 39.83940026 10.88422065 35.375 11.5 C32 11 32 11 30.5 9.4375 C30.005 8.963125 29.51 8.48875 29 8 C25.49653238 8.26949751 22.22956625 8.94598441 18.8125 9.75 C12.28238176 10.17820447 5.46630271 8.64420181 0 5 C-0.2475 5.70125 -0.495 6.4025 -0.75 7.125 C-2.16953495 10.38993039 -3.97131438 13.07630602 -6 16 C-6.70125 17.11375 -7.4025 18.2275 -8.125 19.375 C-8.74375 20.24125 -9.3625 21.1075 -10 22 C-10.66 22 -11.32 22 -12 22 C-12 25.3 -12 28.6 -12 32 C-14.41734542 32.08117951 -16.83194949 32.14056926 -19.25 32.1875 C-19.93191406 32.21263672 -20.61382812 32.23777344 -21.31640625 32.26367188 C-24.38011929 32.30828906 -26.6642534 32.16356886 -29.4375 30.8125 C-31.4738905 28.45028702 -31.58958168 26.90055266 -31.75 23.8125 C-31.80671875 22.91144531 -31.8634375 22.01039063 -31.921875 21.08203125 C-31.96054688 20.05142578 -31.96054688 20.05142578 -32 19 C-30.68 18.34 -29.36 17.68 -28 17 C-28.20625 18.0725 -28.4125 19.145 -28.625 20.25 C-29.13086111 24.56223487 -29.13086111 24.56223487 -27 28 C-23.89069059 28.70672206 -23.89069059 28.70672206 -20.375 28.75 C-18.59222656 28.83507812 -18.59222656 28.83507812 -16.7734375 28.921875 C-15.40058594 28.96054687 -15.40058594 28.96054687 -14 29 C-14.165 27.865625 -14.33 26.73125 -14.5 25.5625 C-14.53793149 21.28382846 -13.0371287 19.41739709 -10.1875 16.3125 C-9.47980469 15.60738281 -8.77210937 14.90226562 -8.04296875 14.17578125 C-4.98031852 10.91402948 -3.007243 7.30330443 -1.3125 3.1875 C-0.879375 2.135625 -0.44625 1.08375 0 0 Z " fill="#151515" transform="translate(116,249)"/>
<path d="M0 0 C0.66 0.33 1.32 0.66 2 1 C-4.84553928 12.69152241 -4.84553928 12.69152241 -9 18 C-9.66 18 -10.32 18 -11 18 C-11 21.3 -11 24.6 -11 28 C-13.41734542 28.08117951 -15.83194949 28.14056926 -18.25 28.1875 C-18.93191406 28.21263672 -19.61382812 28.23777344 -20.31640625 28.26367188 C-23.38011929 28.30828906 -25.6642534 28.16356886 -28.4375 26.8125 C-30.4738905 24.45028702 -30.58958168 22.90055266 -30.75 19.8125 C-30.80671875 18.91144531 -30.8634375 18.01039063 -30.921875 17.08203125 C-30.96054688 16.05142578 -30.96054688 16.05142578 -31 15 C-29.68 14.34 -28.36 13.68 -27 13 C-27.20625 14.0725 -27.4125 15.145 -27.625 16.25 C-28.13086111 20.56223487 -28.13086111 20.56223487 -26 24 C-22.89069059 24.70672206 -22.89069059 24.70672206 -19.375 24.75 C-17.59222656 24.83507812 -17.59222656 24.83507812 -15.7734375 24.921875 C-14.40058594 24.96054687 -14.40058594 24.96054687 -13 25 C-13.165 23.865625 -13.33 22.73125 -13.5 21.5625 C-13.53793149 17.28382846 -12.0371287 15.41739709 -9.1875 12.3125 C-8.47980469 11.60738281 -7.77210937 10.90226562 -7.04296875 10.17578125 C-4.9283333 7.92367428 -3.51307987 5.68365742 -2 3 C-1.34 2.01 -0.68 1.02 0 0 Z " fill="#0E0E0E" transform="translate(115,253)"/>
<path d="M0 0 C0 2.31 0 4.62 0 7 C-10.96823696 9.0361826 -21.91627746 10.73201021 -33 12 C-33 11.34 -33 10.68 -33 10 C-36.96 10 -40.92 10 -45 10 C-45 9.67 -45 9.34 -45 9 C-44.23300781 8.96261719 -43.46601562 8.92523438 -42.67578125 8.88671875 C-34.12419176 8.38017861 -25.74865123 7.32966584 -17.28637695 6.01635742 C-12.80875508 5.33535509 -8.54663949 4.82800541 -4 5 C-3.814375 4.0409375 -3.814375 4.0409375 -3.625 3.0625 C-3.41875 2.381875 -3.2125 1.70125 -3 1 C-1 0 -1 0 0 0 Z " fill="#111111" transform="translate(158,215)"/>
<path d="M0 0 C2.17503665 1.00983845 4.03589517 2.02778981 5.9375 3.5 C8.19232577 5.13987329 10.38678522 6.05633911 13 7 C12.60196439 9.88575819 12.20990931 10.82189513 9.9375 12.75 C9.298125 13.1625 8.65875 13.575 8 14 C8.33 15.32 8.66 16.64 9 18 C9.61488281 17.9278125 10.22976563 17.855625 10.86328125 17.78125 C11.67152344 17.6884375 12.47976563 17.595625 13.3125 17.5 C14.11300781 17.4071875 14.91351563 17.314375 15.73828125 17.21875 C18 17 18 17 21 17 C20.1875 18.9375 20.1875 18.9375 19 21 C14.67655213 22.44114929 10.80662161 22.78750173 6.5625 20.9375 C4.20802405 18.01794982 4.67013648 15.62849877 5 12 C5.33 11.34 5.66 10.68 6 10 C6.66 10 7.32 10 8 10 C8 9.34 8 8.68 8 8 C7.236875 7.7525 6.47375 7.505 5.6875 7.25 C2.73919055 5.87869328 1.64165468 4.7648921 0 2 C0 1.34 0 0.68 0 0 Z " fill="#0E0E0E" transform="translate(0,264)"/>
<path d="M0 0 C1.32 0.66 2.64 1.32 4 2 C2.8656185 9.94067053 -2.50728227 15.50728227 -8 21 C-8.66 21.33 -9.32 21.66 -10 22 C-10 18.04 -10 14.08 -10 10 C-9.34 10 -8.68 10 -8 10 C-7.34 11.32 -6.68 12.64 -6 14 C-4.37168238 12.19038423 -4.37168238 12.19038423 -3 10 C-3.33 9.01 -3.66 8.02 -4 7 C-2.35 6.34 -0.7 5.68 1 5 C0.67 3.35 0.34 1.7 0 0 Z " fill="#010101" transform="translate(442,237)"/>
<path d="M0 0 C0.99 0.33 1.98 0.66 3 1 C1.35 4.96 -0.3 8.92 -2 13 C-5.96 13 -9.92 13 -14 13 C-13.67 11.68 -13.34 10.36 -13 9 C-9.78548731 7.39274365 -6.56387464 7.94251815 -3 8 C-2.87625 7.4225 -2.7525 6.845 -2.625 6.25 C-1.99351176 3.97664233 -1.11141809 2.0746471 0 0 Z " fill="#272727" transform="translate(101,256)"/>
<path d="M0 0 C0.66 0.33 1.32 0.66 2 1 C1.319375 1.845625 0.63875 2.69125 -0.0625 3.5625 C-2.43065395 7.76406347 -1.82658451 9.37112672 -1 14 C-1.875 17.1875 -1.875 17.1875 -3 20 C-3.34976758 21.32911682 -3.69096017 22.66082739 -4 24 C-4.99 24 -5.98 24 -7 24 C-7 23.01 -7 22.02 -7 21 C-7.66 20.34 -8.32 19.68 -9 19 C-8.13375 18.154375 -7.2675 17.30875 -6.375 16.4375 C-4.93020894 14.85540789 -4.93020894 14.85540789 -4 13 C-4.53219091 9.17352608 -4.53219091 9.17352608 -6 6 C-4.02 4.02 -2.04 2.04 0 0 Z " fill="#000000" transform="translate(470,231)"/>
<path d="M0 0 C4.27587998 -0.08384078 7.76358987 0.15271797 12 1 C12.33 5.29 12.66 9.58 13 14 C12.01 14 11.02 14 10 14 C10 12.02 10 10.04 10 8 C9.01 7.67 8.02 7.34 7 7 C6.67 6.01 6.34 5.02 6 4 C3.69 3.67 1.38 3.34 -1 3 C-0.67 2.01 -0.34 1.02 0 0 Z " fill="#1B1B1B" transform="translate(148,239)"/>
<path d="M0 0 C1.65 0.33 3.3 0.66 5 1 C5.90594807 3.61718331 5.98235878 5.10143704 5.5 7.875 C4.96376636 11.22646028 5.41081278 13.68582189 6 17 C5.67 17.99 5.34 18.98 5 20 C4.01 19.67 3.02 19.34 2 19 C2.2475 18.4225 2.495 17.845 2.75 17.25 C2.8325 16.5075 2.915 15.765 3 15 C1.14567913 12.72855926 1.14567913 12.72855926 -1 11 C0.33333333 8.33333333 1.66666667 5.66666667 3 3 C2.01 2.67 1.02 2.34 0 2 C0 1.34 0 0.68 0 0 Z " fill="#000000" transform="translate(564,256)"/>
<path d="M0 0 C0.99 0 1.98 0 3 0 C3.18304688 0.62390625 3.36609375 1.2478125 3.5546875 1.890625 C4.91662203 4.34008964 4.91662203 4.34008964 8.2578125 5.046875 C9.53398438 5.27890625 10.81015625 5.5109375 12.125 5.75 C13.40632812 5.99234375 14.68765625 6.2346875 16.0078125 6.484375 C16.99523437 6.65453125 17.98265625 6.8246875 19 7 C19 7.99 19 8.98 19 10 C12.3259584 9.55197406 4.95319619 8.95319619 0 4 C0 2.68 0 1.36 0 0 Z " fill="#060606" transform="translate(116,249)"/>
<path d="M0 0 C0.66 0.33 1.32 0.66 2 1 C-5.15430742 13.21886868 -5.15430742 13.21886868 -9 18 C-9.99 18 -10.98 18 -12 18 C-10.34540386 14.08913641 -7.70698566 11.23517798 -5 8 C-3.96642853 6.35394174 -2.95939668 4.69036558 -2 3 C-1.34 2.01 -0.68 1.02 0 0 Z " fill="#242424" transform="translate(115,253)"/>
<path d="M0 0 C0.66 0.33 1.32 0.66 2 1 C1.814375 1.515625 1.62875 2.03125 1.4375 2.5625 C0.83752918 5.1713937 0.83752918 5.1713937 1.5 8.5 C1.93772143 11.56405002 2.02210188 13.16082812 1 16 C0.01 15.67 -0.98 15.34 -2 15 C-1.773125 14.113125 -1.54625 13.22625 -1.3125 12.3125 C-0.94548054 8.42209376 -1.73118159 7.08559304 -4 4 C-2.68 2.68 -1.36 1.36 0 0 Z " fill="#000000" transform="translate(518,231)"/>
<path d="M0 0 C0 2.31 0 4.62 0 7 C-1.32 7.33 -2.64 7.66 -4 8 C-4 7.34 -4 6.68 -4 6 C-5.98 6 -7.96 6 -10 6 C-10 5.67 -10 5.34 -10 5 C-8.02 5 -6.04 5 -4 5 C-3.814375 4.0409375 -3.814375 4.0409375 -3.625 3.0625 C-3.41875 2.381875 -3.2125 1.70125 -3 1 C-1 0 -1 0 0 0 Z " fill="#2F2F2F" transform="translate(158,215)"/>
<path d="M0 0 C-0.33 0.99 -0.66 1.98 -1 3 C-2.98 3.33 -4.96 3.66 -7 4 C-7 3.34 -7 2.68 -7 2 C-10.96 2 -14.92 2 -19 2 C-19 1.67 -19 1.34 -19 1 C-16.77100213 0.83109082 -14.54179338 0.66496313 -12.3125 0.5 C-10.45044922 0.36078125 -10.45044922 0.36078125 -8.55078125 0.21875 C-5.68500671 0.04220063 -2.86900043 -0.04388528 0 0 Z " fill="#363636" transform="translate(132,223)"/>
<path d="M0 0 C2.97 0 5.94 0 9 0 C8.67 0.99 8.34 1.98 8 3 C3.545 3.495 3.545 3.495 -1 4 C-0.67 2.68 -0.34 1.36 0 0 Z " fill="#1C1C1C" transform="translate(132,222)"/>
<path d="M0 0 C0.33 0 0.66 0 1 0 C1 2.97 1 5.94 1 9 C0.01 9 -0.98 9 -2 9 C-1.125 1.125 -1.125 1.125 0 0 Z " fill="#000000" transform="translate(602,255)"/>
</svg>
