<?xml version="1.0" encoding="UTF-8"?>
<svg version="1.1" xmlns="http://www.w3.org/2000/svg" width="800" height="300">
<path d="M0 0 C264 0 528 0 800 0 C800 99 800 198 800 300 C536 300 272 300 0 300 C0 201 0 102 0 0 Z " fill="#FEFEFE" transform="translate(0,0)"/>
<path d="M0 0 C2.6875 -0.3125 2.6875 -0.3125 6 0 C6.65484375 0.82371094 7.3096875 1.64742187 7.984375 2.49609375 C12.5652212 6.2996202 16.79729447 5.57827168 22.5625 5.375 C23.56474609 5.36082031 24.56699219 5.34664062 25.59960938 5.33203125 C30.47519469 5.2414631 35.34076995 5.04623593 40.20825195 4.75537109 C54.45235002 3.91878154 68.67682983 3.84573931 82.94213867 3.86962891 C85.67653585 3.87416195 88.4108666 3.87421517 91.14526367 3.86962891 C100.43094505 3.85414611 109.7147567 3.89399703 119 4 C120.89718781 4.01987976 120.89718781 4.01987976 122.83270264 4.04016113 C126.4714204 4.08922994 130.10817747 4.16795371 133.74609375 4.2578125 C135.34216209 4.27822098 135.34216209 4.27822098 136.97047424 4.29904175 C147.76141846 4.63593906 157.23194941 7.126133 165.1015625 14.796875 C168.08119031 18.25471468 170.07594107 21.88307979 172 26 C172.5878125 27.06347656 172.5878125 27.06347656 173.1875 28.1484375 C176.97476175 35.43365628 176.77162077 42.60176161 175.375 50.5625 C169.6875 64.78125 169.6875 64.78125 163.4375 67.625 C157.70072769 69.69064707 152.18507829 70.14951793 146.12109375 70.1328125 C145.35992249 70.13413177 144.59875122 70.13545105 143.81451416 70.1368103 C141.35546728 70.1387179 138.89653518 70.13241583 136.4375 70.125 C135.60618561 70.12411377 134.77487122 70.12322754 133.91836548 70.12231445 C121.58858811 70.10680173 109.30284848 69.87542505 97 69 C97 68.34 97 67.68 97 67 C96.29617188 67.16242188 95.59234375 67.32484375 94.8671875 67.4921875 C87.40965184 68.81300444 79.59253259 68.08414043 72.08203125 67.5078125 C66.67319889 67.13155169 61.29977248 66.9117425 55.87890625 66.859375 C21.79509958 66.48121764 21.79509958 66.48121764 10.8125 58.25 C9.32421875 56.69140625 9.32421875 56.69140625 8 55 C7.51144531 54.41089844 7.02289063 53.82179688 6.51953125 53.21484375 C2.55488966 47.4511211 2.40935902 41.64162749 2.45166016 34.85229492 C2.47029608 32.43228376 2.47029608 32.43228376 2 29 C0.13377036 27.1371129 0.13377036 27.1371129 -2 26 C-3.20745835 22.37762495 -3.22246029 19.0229405 -3.25 15.25 C-3.270625 14.5590625 -3.29125 13.868125 -3.3125 13.15625 C-3.35088173 8.05147958 -2.27330153 4.57053254 0 0 Z " fill="#656565" transform="translate(428,216)"/>
<path d="M0 0 C6.79056047 0 6.79056047 0 9.8125 2.3125 C10.39644531 2.74175781 10.98039063 3.17101562 11.58203125 3.61328125 C14.08948496 6.06547428 14.00458596 8.27057157 14.0625 11.6875 C14.041875 12.780625 14.02125 13.87375 14 15 C14.5775 15.25136719 15.155 15.50273437 15.75 15.76171875 C22.05767813 19.23313189 26.08155089 25.13731884 28.25 31.875 C29.52922683 36.62322187 30.49280362 41.41408295 31.43823242 46.23657227 C33.14321288 57.6017095 33.14321288 57.6017095 39 67 C46.09160447 71.01175702 54.04630666 71.28570071 62 71.6015625 C62.95547226 71.64217804 63.91094452 71.68279358 64.89537048 71.72463989 C76.77477955 72.17712088 88.65961068 72.01352665 100.54370117 71.82861328 C131.14603134 71.38201045 131.14603134 71.38201045 145 76 C145 76.66 145 77.32 145 78 C148.43793339 77.81870185 148.43793339 77.81870185 152 77 C153.24174796 75.0998823 153.24174796 75.0998823 154 73 C156.42027298 71.24738853 157.57146151 70.95819137 160.5625 71.25 C163 72 163 72 166 74 C166.22265625 76.71484375 166.22265625 76.71484375 166.0625 79.9375 C165.74889245 84.77777569 165.74889245 84.77777569 168 89 C168.66992163 93.22985401 168.68330476 96.8326877 166.5 100.5625 C162.2715635 102.99385099 158.31963339 102.59913742 153.76171875 101.421875 C150.82085787 100.46698407 147.94877506 99.37527614 145.07421875 98.23828125 C137.03774978 95.093576 128.70231981 92.40666001 120 93 C120.28427417 94.58467728 120.57774818 96.1677057 120.875 97.75 C121.03742188 98.63171875 121.19984375 99.5134375 121.3671875 100.421875 C121.99365633 102.9741554 122.49225591 104.8454004 124 107 C126.29814274 108.02195506 126.29814274 108.02195506 128.9375 108.5625 C132.48311949 109.4032139 134.79504869 109.98870727 137 113 C137.55218463 118.61387712 137.12509183 122.13874605 134 127 C130.44223788 129.37184142 128.71979393 129.29824394 124.5 129.3125 C123.3553125 129.32925781 122.210625 129.34601563 121.03125 129.36328125 C118 129 118 129 116.08984375 127.79296875 C114.24787708 124.76263649 114.99503998 121.79531813 115.28515625 118.375 C115.25839849 115.82417737 115.25839849 115.82417737 112.99609375 114.375 C112.33738281 113.92125 111.67867188 113.4675 111 113 C111 112.01 111 111.02 111 110 C110.34 110 109.68 110 109 110 C107.68 107.03 106.36 104.06 105 101 C103.700625 101.28875 102.40125 101.5775 101.0625 101.875 C93.375 103.58333333 85.6875 105.29166667 78 107 C77.95875 107.721875 77.9175 108.44375 77.875 109.1875 C76.67670118 113.03917478 74.46156072 115.11046798 71 117 C66.70631061 117.67795096 64.8124795 117.51221534 61.125 115.1875 C57.72711744 111.68967972 57.84095511 108.62121116 57.8125 103.9375 C57.79832031 102.87402344 57.78414062 101.81054688 57.76953125 100.71484375 C58 98 58 98 60 96 C64.13997567 95.8028583 67.07703567 95.69234522 71 97 C77.90874351 97.69087435 79.88171804 96.16368087 87 93 C67.2 93.66 47.4 94.32 27 95 C27 97.97 27 100.94 27 104 C26.05965682 108.49275076 23.41642494 111.06635831 19.9453125 113.8984375 C18 115 18 115 14.1875 115 C11 114 11 114 9 112 C8.60235737 110.01178687 8.26224651 108.01055661 8 106 C5.36 105.34 2.72 104.68 0 104 C0 69.68 0 35.36 0 0 Z " fill="#FBFBFB" transform="translate(0,155)"/>
<path d="M0 0 C5.12270843 -0.62472054 7.60458135 0.68946046 11.58203125 3.61328125 C14.08948496 6.06547428 14.00458596 8.27057157 14.0625 11.6875 C14.041875 12.780625 14.02125 13.87375 14 15 C14.5775 15.25136719 15.155 15.50273437 15.75 15.76171875 C22.05767813 19.23313189 26.08155089 25.13731884 28.25 31.875 C29.52922683 36.62322187 30.49280362 41.41408295 31.43823242 46.23657227 C33.14321288 57.6017095 33.14321288 57.6017095 39 67 C46.09160447 71.01175702 54.04630666 71.28570071 62 71.6015625 C62.95547226 71.64217804 63.91094452 71.68279358 64.89537048 71.72463989 C76.77477955 72.17712088 88.65961068 72.01352665 100.54370117 71.82861328 C131.14603134 71.38201045 131.14603134 71.38201045 145 76 C145 76.66 145 77.32 145 78 C148.43793339 77.81870185 148.43793339 77.81870185 152 77 C153.24174796 75.0998823 153.24174796 75.0998823 154 73 C156.42027298 71.24738853 157.57146151 70.95819137 160.5625 71.25 C163 72 163 72 166 74 C166.22265625 76.71484375 166.22265625 76.71484375 166.0625 79.9375 C165.74889245 84.77777569 165.74889245 84.77777569 168 89 C168.66992163 93.22985401 168.68330476 96.8326877 166.5 100.5625 C162.2715635 102.99385099 158.31963339 102.59913742 153.76171875 101.421875 C150.82085787 100.46698407 147.94877506 99.37527614 145.07421875 98.23828125 C137.03774978 95.093576 128.70231981 92.40666001 120 93 C120.28427417 94.58467728 120.57774818 96.1677057 120.875 97.75 C121.03742188 98.63171875 121.19984375 99.5134375 121.3671875 100.421875 C121.99365633 102.9741554 122.49225591 104.8454004 124 107 C126.29814274 108.02195506 126.29814274 108.02195506 128.9375 108.5625 C132.48311949 109.4032139 134.79504869 109.98870727 137 113 C137.55218463 118.61387712 137.12509183 122.13874605 134 127 C130.44223788 129.37184142 128.71979393 129.29824394 124.5 129.3125 C123.3553125 129.32925781 122.210625 129.34601563 121.03125 129.36328125 C118 129 118 129 116.08984375 127.79296875 C114.24787708 124.76263649 114.99503998 121.79531813 115.28515625 118.375 C115.25839849 115.82417737 115.25839849 115.82417737 112.99609375 114.375 C112.33738281 113.92125 111.67867188 113.4675 111 113 C111 112.01 111 111.02 111 110 C110.34 110 109.68 110 109 110 C107.68 107.03 106.36 104.06 105 101 C103.700625 101.28875 102.40125 101.5775 101.0625 101.875 C93.375 103.58333333 85.6875 105.29166667 78 107 C77.95875 107.721875 77.9175 108.44375 77.875 109.1875 C76.67670118 113.03917478 74.46156072 115.11046798 71 117 C66.70631061 117.67795096 64.8124795 117.51221534 61.125 115.1875 C57.72711744 111.68967972 57.84095511 108.62121116 57.8125 103.9375 C57.79832031 102.87402344 57.78414062 101.81054688 57.76953125 100.71484375 C58 98 58 98 60 96 C64.13997567 95.8028583 67.07703567 95.69234522 71 97 C77.90874351 97.69087435 79.88171804 96.16368087 87 93 C67.2 93.66 47.4 94.32 27 95 C27 97.97 27 100.94 27 104 C26.05965682 108.49275076 23.41642494 111.06635831 19.9453125 113.8984375 C18 115 18 115 14.1875 115 C11 114 11 114 9 112 C8.60235737 110.01178687 8.26224651 108.01055661 8 106 C5.36 105.34 2.72 104.68 0 104 C0 100.04 0 96.08 0 92 C3.3 92 6.6 92 10 92 C10.33 91.01 10.66 90.02 11 89 C17.625 88.875 17.625 88.875 21 90 C23.68234468 90.0861117 26.33784933 90.11561487 29.01977539 90.09765625 C29.83630081 90.09619598 30.65282623 90.09473572 31.49409485 90.0932312 C33.26690843 90.08942563 35.03971821 90.0833095 36.81251717 90.07516479 C39.61512639 90.06242056 42.4176884 90.05589073 45.22032166 90.05102539 C51.1677356 90.03958793 57.11511071 90.02034032 63.0625 90 C69.95625465 89.97643824 76.84998714 89.95603683 83.74377251 89.94406128 C86.51028772 89.93755845 89.27673542 89.92505112 92.04322815 89.91235352 C93.73202454 89.90872238 95.42082156 89.90537047 97.10961914 89.90234375 C97.88317749 89.89717743 98.65673584 89.89201111 99.45373535 89.88668823 C104.77231312 89.88615656 104.77231312 89.88615656 107 91 C107 91.66 107 92.32 107 93 C105.94941406 93.09796875 104.89882812 93.1959375 103.81640625 93.296875 C95.8577239 94.11521682 89.12399175 95.1436243 82 99 C75.74339091 102.07825167 75.74339091 102.07825167 72.625 101.75 C71 101 71 101 70 100 C67.32941149 99.85884839 64.67567762 99.95752893 62 100 C60.53154579 105.47332932 61.55961274 108.11922548 64 113 C67.53164047 113.32105822 69.35715051 113.48213712 72.25 111.3125 C74.15045246 109.10693567 74.15045246 109.10693567 74.6875 106.375 C76 104 76 104 77.83984375 103.34375 C79.41117223 103.02142621 80.98877869 102.72873715 82.5703125 102.4609375 C84.87813216 102.02311962 86.82924511 101.380507 89 100.5 C92.5525788 99.08889585 96.0744861 98.2471279 99.82421875 97.52734375 C102.33322863 96.91923543 104.62430502 96.00270138 107 95 C107.20753906 95.60585937 107.41507812 96.21171875 107.62890625 96.8359375 C109.83995482 102.84924951 112.63428295 107.67548123 116.51171875 112.7734375 C118.64336299 115.96251156 119.20100285 117.91960966 118.5 121.6875 C118.335 122.450625 118.17 123.21375 118 124 C119.81119819 125.81119819 122.49781392 125.21518878 124.9375 125.25 C126.01902344 125.27578125 127.10054688 125.3015625 128.21484375 125.328125 C129.13394531 125.21984375 130.05304688 125.1115625 131 125 C133.69461986 120.95807022 133.23200889 118.7948504 133 114 C131.09332232 112.09332232 127.8107733 112.15828186 125.2265625 111.6953125 C122.67758191 110.89931505 121.61953688 110.10388435 120 108 C119.3125 104.8125 119.3125 104.8125 119 102 C118.34 102 117.68 102 117 102 C116.80598367 100.18818595 116.61995625 98.37551468 116.4375 96.5625 C116.28087891 95.04849609 116.28087891 95.04849609 116.12109375 93.50390625 C116.06115234 92.26447266 116.06115234 92.26447266 116 91 C117.6432459 89.3567541 119.48442813 89.78928737 121.75 89.75 C131.31032403 89.83702506 140.18340465 92.50376391 149 96 C153.84397202 97.61465734 157.8854907 98.30687056 163 98 C164.20561184 97.01732141 164.20561184 97.01732141 164.09765625 95.15234375 C164.08605469 94.42144531 164.07445312 93.69054687 164.0625 92.9375 C164.0315625 90.9884375 164.0315625 90.9884375 164 89 C162.68 89 161.36 89 160 89 C159.68321793 84.35386292 160.22517144 82.6193416 163 79 C162.78282648 76.79199472 162.78282648 76.79199472 162 75 C159.59122743 75.11341534 159.59122743 75.11341534 157 76 C156.54625 76.845625 156.0925 77.69125 155.625 78.5625 C155.08875 79.366875 154.5525 80.17125 154 81 C149.1427225 81.76192588 145.60711223 80.64721427 141.20275879 78.83335876 C134.60675487 76.33792544 128.08942338 75.71671167 121.09375 75.83984375 C120.26298447 75.8454985 119.43221893 75.85115326 118.57627869 75.85697937 C116.80178511 75.86947109 115.02731688 75.88617707 113.25289917 75.90679932 C108.56585245 75.95906986 103.87869749 75.97312591 99.19140625 75.98828125 C98.24846207 75.99180603 97.30551788 75.99533081 96.33399963 75.9989624 C88.06607919 76.02051188 79.80565203 75.91588052 71.54101562 75.68362427 C70.15585093 75.6450202 68.77059087 75.60967799 67.38525391 75.57785034 C58.49485419 75.36864683 50.6582029 74.36683172 42.125 71.875 C39.05938278 70.86518504 39.05938278 70.86518504 36 71 C35.525625 70.030625 35.05125 69.06125 34.5625 68.0625 C33.29806053 65.19522563 33.29806053 65.19522563 32 64 C31.95936168 62.33382885 31.957279 60.66611905 32 59 C31.34 59 30.68 59 30 59 C29.82984375 57.83984375 29.6596875 56.6796875 29.484375 55.484375 C26.62692788 35.21052766 26.62692788 35.21052766 15 19 C13.67823702 18.62339474 12.34491776 18.28299311 11 18 C10.97421875 17.24074219 10.9484375 16.48148438 10.921875 15.69921875 C10.86515625 14.70535156 10.8084375 13.71148437 10.75 12.6875 C10.70359375 11.70136719 10.6571875 10.71523437 10.609375 9.69921875 C10.23399333 6.90298222 10.23399333 6.90298222 8.15625 5.1875 C5.46993123 3.70807807 3.02823907 3.34411808 0 3 C0 2.01 0 1.02 0 0 Z " fill="#111111" transform="translate(0,155)"/>
<path d="M0 0 C2.6875 -0.3125 2.6875 -0.3125 6 0 C6.65484375 0.82371094 7.3096875 1.64742187 7.984375 2.49609375 C12.5652212 6.2996202 16.79729447 5.57827168 22.5625 5.375 C23.56474609 5.36082031 24.56699219 5.34664062 25.59960938 5.33203125 C30.47519469 5.2414631 35.34076995 5.04623593 40.20825195 4.75537109 C54.45235002 3.91878154 68.67682983 3.84573931 82.94213867 3.86962891 C85.67653585 3.87416195 88.4108666 3.87421517 91.14526367 3.86962891 C100.43094505 3.85414611 109.7147567 3.89399703 119 4 C120.89718781 4.01987976 120.89718781 4.01987976 122.83270264 4.04016113 C126.4714204 4.08922994 130.10817747 4.16795371 133.74609375 4.2578125 C135.34216209 4.27822098 135.34216209 4.27822098 136.97047424 4.29904175 C147.76141846 4.63593906 157.23194941 7.126133 165.1015625 14.796875 C168.08119031 18.25471468 170.07594107 21.88307979 172 26 C172.5878125 27.06347656 172.5878125 27.06347656 173.1875 28.1484375 C176.97476175 35.43365628 176.77162077 42.60176161 175.375 50.5625 C169.6875 64.78125 169.6875 64.78125 163.4375 67.625 C157.70072769 69.69064707 152.18507829 70.14951793 146.12109375 70.1328125 C145.35992249 70.13413177 144.59875122 70.13545105 143.81451416 70.1368103 C141.35546728 70.1387179 138.89653518 70.13241583 136.4375 70.125 C135.60618561 70.12411377 134.77487122 70.12322754 133.91836548 70.12231445 C121.58858811 70.10680173 109.30284848 69.87542505 97 69 C97 68.34 97 67.68 97 67 C96.29617188 67.16242188 95.59234375 67.32484375 94.8671875 67.4921875 C87.40965184 68.81300444 79.59253259 68.08414043 72.08203125 67.5078125 C66.67319889 67.13155169 61.29977248 66.9117425 55.87890625 66.859375 C21.79509958 66.48121764 21.79509958 66.48121764 10.8125 58.25 C9.32421875 56.69140625 9.32421875 56.69140625 8 55 C7.51144531 54.41089844 7.02289063 53.82179688 6.51953125 53.21484375 C2.55488966 47.4511211 2.40935902 41.64162749 2.45166016 34.85229492 C2.47029608 32.43228376 2.47029608 32.43228376 2 29 C0.13377036 27.1371129 0.13377036 27.1371129 -2 26 C-3.20745835 22.37762495 -3.22246029 19.0229405 -3.25 15.25 C-3.270625 14.5590625 -3.29125 13.868125 -3.3125 13.15625 C-3.35088173 8.05147958 -2.27330153 4.57053254 0 0 Z M3 3 C-0.71059486 9.13054803 -1.71075839 15.44620807 -0.3125 22.4375 C0.78058442 25.09159104 0.78058442 25.09159104 3 26.3125 C6.24734023 29.05244332 6.35310018 32.93985245 7 37 C9.64573501 34.77122275 9.64573501 34.77122275 12 32 C11.95502158 29.72476911 11.95502158 29.72476911 11 28 C12.32 27.34 13.64 26.68 15 26 C14.67 24.35 14.34 22.7 14 21 C14.99 21.99 15.98 22.98 17 24 C15.39680795 28.66383143 13.08350522 33.14135949 10 37 C9.30648438 37.30550781 8.61296875 37.61101562 7.8984375 37.92578125 C5.77741393 38.86585583 5.77741393 38.86585583 5.07421875 41.29296875 C4.97884902 44.77145414 5.96425246 46.39079722 7.8125 49.3125 C8.35519531 50.19550781 8.89789063 51.07851563 9.45703125 51.98828125 C9.96621094 52.65214844 10.47539062 53.31601562 11 54 C11.66 54 12.32 54 13 54 C13.33 54.99 13.66 55.98 14 57 C16.36401089 58.26080581 18.47896761 59.14504119 21 60 C21.81339844 60.28230469 22.62679688 60.56460938 23.46484375 60.85546875 C33.75725957 63.93020167 46.48210319 64.63478627 57 62 C57.53394179 60.5882217 58.05165104 59.17029756 58.5625 57.75 C58.85253906 56.96109375 59.14257812 56.1721875 59.44140625 55.359375 C60.0610168 52.74227867 59.94248701 51.4926979 59 49 C58.34 48.01 57.68 47.02 57 46 C57.53625 45.443125 58.0725 44.88625 58.625 44.3125 C59.07875 43.549375 59.5325 42.78625 60 42 C59.26145768 39.36186139 59.26145768 39.36186139 58 37 C58 36.34 58 35.68 58 35 C58.99 35.33 59.98 35.66 61 36 C61.94002987 40.38680608 61.74651537 43.61422219 61 48 C61.185625 48.804375 61.37125 49.60875 61.5625 50.4375 C62.16494838 53.96612624 61.00559799 56.60610677 60 60 C60.33 60.99 60.66 61.98 61 63 C62.06927734 63.09087891 62.06927734 63.09087891 63.16015625 63.18359375 C71.41188054 63.9054808 71.41188054 63.9054808 75.5 64.5625 C82.43977973 65.42997247 89.12334905 65.23427068 96 64 C96.66 64.33 97.32 64.66 98 65 C100.56845219 65.03037021 103.120762 64.93311185 105.6875 64.83984375 C108 65 108 65 110 67 C112.52377655 67.27808217 112.52377655 67.27808217 115.4453125 67.1953125 C116.52167969 67.18886719 117.59804688 67.18242187 118.70703125 67.17578125 C119.83496094 67.15902344 120.96289062 67.14226562 122.125 67.125 C123.26066406 67.11597656 124.39632812 67.10695313 125.56640625 67.09765625 C128.37781299 67.07403098 131.18880298 67.04109013 134 67 C134 66.34 134 65.68 134 65 C134.99 64.67 135.98 64.34 137 64 C138.56028793 61.15102982 139.46843274 58.20059445 140 55 C139.01919106 52.38017854 139.01919106 52.38017854 137 51 C136.34 51 135.68 51 135 51 C135.66 50.236875 136.32 49.47375 137 48.6875 C139.29850538 46.15722061 139.29850538 46.15722061 139 43 C137.56249809 41.31201173 137.56249809 41.31201173 136 40 C137.32 40.33 138.64 40.66 140 41 C140.90594807 43.61718331 140.98235878 45.10143704 140.5 47.875 C139.82038781 50.94518924 139.82038781 50.94518924 140.5625 53.75 C141.18730226 58.39138818 140.07980006 62.48447249 139 67 C149.65771916 67.35857747 158.40464935 67.06190317 166.59375 59.53515625 C171.66979043 54.24761413 174.03554301 48.43102855 173.9765625 41.078125 C172.70835554 30.19972752 166.40917284 21.74595342 159 14 C158.01 13.67 157.02 13.34 156 13 C154.39819908 16.38766195 154.39819908 16.38766195 154.125 20.0625 C154.8950733 22.17907441 154.8950733 22.17907441 157.0625 23.5625 C160.20275922 27.5131487 159.47149501 32.13046134 159 37 C158.67 37.66 158.34 38.32 158 39 C157.01 39.33 156.02 39.66 155 40 C155.165 38.9275 155.33 37.855 155.5 36.75 C156.3352003 30.76189263 156.3352003 30.76189263 155 25 C152.50965614 23.70339566 152.50965614 23.70339566 150 23 C150.99 19.7 151.98 16.4 153 13 C146.68439027 7.21069108 141.08633074 7.22890562 132.75 7.1875 C130.97496094 7.14979492 130.97496094 7.14979492 129.1640625 7.11132812 C125.10889692 7.03050193 121.05589005 7 117 7 C116.97111854 10.31248187 116.95324201 13.62493167 116.9375 16.9375 C116.92493164 18.35579102 116.92493164 18.35579102 116.91210938 19.80273438 C116.90727539 21.15141602 116.90727539 21.15141602 116.90234375 22.52734375 C116.89448853 23.77632446 116.89448853 23.77632446 116.88647461 25.05053711 C116.78356708 27.00516798 116.78356708 27.00516798 118 28 C118.26293056 32.03160191 118.29404844 33.55892734 116 37 C113.875 37.6875 113.875 37.6875 112 38 C113.75 34.125 113.75 34.125 116 33 C115.89171875 31.86111328 115.89171875 31.86111328 115.78125 30.69921875 C115.6884375 29.70535156 115.595625 28.71148437 115.5 27.6875 C115.4071875 26.70136719 115.314375 25.71523437 115.21875 24.69921875 C115 22 115 22 115 19 C114.34 19 113.68 19 113 19 C113.556875 17.63875 113.556875 17.63875 114.125 16.25 C115.25131743 13.16467339 115.25131743 13.16467339 114.375 10.75 C112.21694327 8.00338235 109.96584178 7.12449559 106.52636719 6.68115234 C105.62563477 6.64973145 104.72490234 6.61831055 103.796875 6.5859375 C102.8171875 6.54726562 101.8375 6.50859375 100.828125 6.46875 C99.30445313 6.42234375 99.30445313 6.42234375 97.75 6.375 C96.203125 6.31699219 96.203125 6.31699219 94.625 6.2578125 C92.0835106 6.16368326 89.54202567 6.07805021 87 6 C87.495 6.99 87.495 6.99 88 8 C88.66 8 89.32 8 90 8 C90.67228569 12.48190462 91.12701027 15.63283522 90 20 C90.29235267 22.33882138 90.62599214 24.67284 91 27 C91 28.32 91 29.64 91 31 C90.01 30.01 90.01 30.01 89 29 C89.2784375 27.824375 89.2784375 27.824375 89.5625 26.625 C90.29178752 23.94859806 90.29178752 23.94859806 88.6875 21.6875 C88.130625 21.130625 87.57375 20.57375 87 20 C86.34 20 85.68 20 85 20 C85.680625 19.443125 86.36125 18.88625 87.0625 18.3125 C89.25510881 16.18317288 89.25510881 16.18317288 89.0625 13.5 C87.56544541 9.97751862 86.33969805 8.96356171 83 7 C79.03453696 6.4431461 75.1217931 6.53050618 71.125 6.625 C70.0119751 6.63789063 68.8989502 6.65078125 67.75219727 6.6640625 C59.38070792 6.81952868 51.23850267 7.4996548 43 9 C43.04253906 10.093125 43.08507812 11.18625 43.12890625 12.3125 C43 16 43 16 40.9375 19 C38.43457181 22.87550172 39.20915027 24.57124149 40 29 C39.125 32.1875 39.125 32.1875 38 35 C37.65023242 36.32911682 37.30903983 37.66082739 37 39 C35.79371992 36.66785852 34.8345262 34.50357861 34 32 C34.639375 31.7525 35.27875 31.505 35.9375 31.25 C38.12493715 30.18550582 38.12493715 30.18550582 38.875 28.125 C39.02904228 25.50628117 38.24534014 24.27091436 37 22 C37 21.01 37 20.02 37 19 C39 17.3125 39 17.3125 41 16 C40.81171228 13.55519921 40.81171228 13.55519921 40 11 C36.96969085 8.99095526 34.40823739 8.73084337 30.82421875 8.65625 C29.83099609 8.62660156 28.83777344 8.59695312 27.81445312 8.56640625 C26.26661133 8.53353516 26.26661133 8.53353516 24.6875 8.5 C8.56797015 8.15378142 8.56797015 8.15378142 4.0625 4.375 C3.711875 3.92125 3.36125 3.4675 3 3 Z " fill="#111111" transform="translate(428,216)"/>
<path d="M0 0 C6.625 -0.125 6.625 -0.125 10 1 C12.68234468 1.0861117 15.33784933 1.11561487 18.01977539 1.09765625 C19.24456352 1.09546585 19.24456352 1.09546585 20.49409485 1.0932312 C22.26690843 1.08942563 24.03971821 1.0833095 25.81251717 1.07516479 C28.61512639 1.06242056 31.4176884 1.05589073 34.22032166 1.05102539 C40.1677356 1.03958793 46.11511071 1.02034032 52.0625 1 C58.95625465 0.97643824 65.84998714 0.95603683 72.74377251 0.94406128 C75.51028772 0.93755845 78.27673542 0.92505112 81.04322815 0.91235352 C82.73202454 0.90872238 84.42082156 0.90537047 86.10961914 0.90234375 C86.88317749 0.89717743 87.65673584 0.89201111 88.45373535 0.88668823 C93.77231312 0.88615656 93.77231312 0.88615656 96 2 C96 2.66 96 3.32 96 4 C94.94941406 4.09796875 93.89882812 4.1959375 92.81640625 4.296875 C84.8577239 5.11521682 78.12399175 6.1436243 71 10 C64.74339091 13.07825167 64.74339091 13.07825167 61.625 12.75 C60 12 60 12 59 11 C56.32941149 10.85884839 53.67567762 10.95752893 51 11 C49.53154579 16.47332932 50.55961274 19.11922548 53 24 C56.53164047 24.32105822 58.35715051 24.48213712 61.25 22.3125 C63.15045246 20.10693567 63.15045246 20.10693567 63.6875 17.375 C65 15 65 15 66.83984375 14.34375 C68.41093873 14.02147411 69.9885997 13.73014701 71.5703125 13.46484375 C73.89608412 13.01988101 75.8234289 12.35096056 78 11.4375 C82.25301844 9.73972248 86.45661641 9.30499566 91 9 C90 12 90 12 88 13.0625 C84.04544352 14.2982989 80.05258225 15.15163335 76 16 C74.31202069 16.37283658 72.62449842 16.74774996 70.9375 17.125 C69.625 17.41666667 68.3125 17.70833333 67 18 C66.95875 18.721875 66.9175 19.44375 66.875 20.1875 C65.67670118 24.03917478 63.46156072 26.11046798 60 28 C55.70631061 28.67795096 53.8124795 28.51221534 50.125 26.1875 C46.72711744 22.68967972 46.84095511 19.62121116 46.8125 14.9375 C46.79832031 13.87402344 46.78414062 12.81054688 46.76953125 11.71484375 C47 9 47 9 49 7 C53.13997567 6.8028583 56.07703567 6.69234522 60 8 C66.90874351 8.69087435 68.88171804 7.16368087 76 4 C56.2 4.66 36.4 5.32 16 6 C16 8.97 16 11.94 16 15 C15.05965682 19.49275076 12.41642494 22.06635831 8.9453125 24.8984375 C7 26 7 26 3.1875 26 C0 25 0 25 -2 23 C-2.39764263 21.01178687 -2.73775349 19.01055661 -3 17 C-5.64 16.34 -8.28 15.68 -11 15 C-11 11.04 -11 7.08 -11 3 C-7.7 3 -4.4 3 -1 3 C-0.67 2.01 -0.34 1.02 0 0 Z " fill="#161616" transform="translate(11,244)"/>
<path d="M0 0 C5.12270843 -0.62472054 7.60458135 0.68946046 11.58203125 3.61328125 C14.08948496 6.06547428 14.00458596 8.27057157 14.0625 11.6875 C14.041875 12.780625 14.02125 13.87375 14 15 C14.5775 15.25136719 15.155 15.50273437 15.75 15.76171875 C22.05767813 19.23313189 26.08155089 25.13731884 28.25 31.875 C29.52922683 36.62322187 30.49280362 41.41408295 31.43823242 46.23657227 C33.14321288 57.6017095 33.14321288 57.6017095 39 67 C51.9492372 74.32544989 70.33575699 72.04014218 84.62109375 71.9453125 C86.03152199 71.93794067 86.03152199 71.93794067 87.47044373 71.93041992 C92.25719699 71.90480723 97.0426017 71.86230507 101.82885742 71.78808594 C103.61767128 71.77226905 105.40648962 71.75694843 107.1953125 71.7421875 C108.02361069 71.72350616 108.85190887 71.70482483 109.70530701 71.68557739 C113.17161206 71.67030523 115.53100589 71.7211896 118.55029297 73.51611328 C119.02869629 74.0057959 119.50709961 74.49547852 120 75 C106.77352312 75.91367749 93.66040564 76.07513237 80.40771484 75.75805664 C77.34354746 75.68676825 74.27937922 75.63289816 71.21484375 75.58007812 C69.23435242 75.53749605 67.25388229 75.49391309 65.2734375 75.44921875 C64.37329926 75.43453049 63.47316101 75.41984222 62.54574585 75.40470886 C55.42308592 75.21317845 48.93940492 73.87967024 42.125 71.875 C39.05938278 70.86518504 39.05938278 70.86518504 36 71 C35.525625 70.030625 35.05125 69.06125 34.5625 68.0625 C33.29806053 65.19522563 33.29806053 65.19522563 32 64 C31.95936168 62.33382885 31.957279 60.66611905 32 59 C31.34 59 30.68 59 30 59 C29.82984375 57.83984375 29.6596875 56.6796875 29.484375 55.484375 C26.62692788 35.21052766 26.62692788 35.21052766 15 19 C13.67823702 18.62339474 12.34491776 18.28299311 11 18 C10.97421875 17.24074219 10.9484375 16.48148438 10.921875 15.69921875 C10.86515625 14.70535156 10.8084375 13.71148437 10.75 12.6875 C10.70359375 11.70136719 10.6571875 10.71523437 10.609375 9.69921875 C10.23399333 6.90298222 10.23399333 6.90298222 8.15625 5.1875 C5.46993123 3.70807807 3.02823907 3.34411808 0 3 C0 2.01 0 1.02 0 0 Z " fill="#191919" transform="translate(0,155)"/>
<path d="M0 0 C4.20965814 -0.41271158 6.35587659 -0.42484735 9.9375 1.9375 C12.70477383 6.04648236 12.47138774 9.19184502 12 14 C11.34 14 10.68 14 10 14 C9.731875 14.61875 9.46375 15.2375 9.1875 15.875 C8 18 8 18 5 20 C0.45945946 19.45945946 0.45945946 19.45945946 -1 18 C-0.71269945 15.66055264 -0.38063221 13.3260857 0 11 C-0.78246094 10.93941406 -1.56492187 10.87882812 -2.37109375 10.81640625 C-3.38300781 10.73261719 -4.39492187 10.64882813 -5.4375 10.5625 C-6.95150391 10.44068359 -6.95150391 10.44068359 -8.49609375 10.31640625 C-11 10 -11 10 -12 9 C-12.04092937 6.66702567 -12.04241723 4.33294775 -12 2 C-8.04 2.33 -4.08 2.66 0 3 C0 2.01 0 1.02 0 0 Z " fill="#F6F6F6" transform="translate(12,247)"/>
<path d="M0 0 C10.01875543 0.40692424 19.24020175 1.60892462 29 4 C29 4.66 29 5.32 29 6 C34.445 5.01 34.445 5.01 40 4 C39.34 5.65 38.68 7.3 38 9 C33.0144501 9.31159687 29.67697823 8.66037403 25.07421875 6.79296875 C16.82702088 3.64008519 7.70430058 3.07800297 -1 2 C-0.67 1.34 -0.34 0.68 0 0 Z " fill="#060606" transform="translate(116,227)"/>
<path d="M0 0 C1.32 0.66 2.64 1.32 4 2 C2.8656185 9.94067053 -2.50728227 15.50728227 -8 21 C-8.66 21.33 -9.32 21.66 -10 22 C-10 18.04 -10 14.08 -10 10 C-9.34 10 -8.68 10 -8 10 C-7.34 11.32 -6.68 12.64 -6 14 C-4.37168238 12.19038423 -4.37168238 12.19038423 -3 10 C-3.33 9.01 -3.66 8.02 -4 7 C-2.35 6.34 -0.7 5.68 1 5 C0.67 3.35 0.34 1.7 0 0 Z " fill="#010101" transform="translate(442,237)"/>
<path d="M0 0 C3.95831809 -0.02892857 7.91660917 -0.04677427 11.875 -0.0625 C13.56689453 -0.07506836 13.56689453 -0.07506836 15.29296875 -0.08789062 C16.36933594 -0.09111328 17.44570312 -0.09433594 18.5546875 -0.09765625 C19.54968262 -0.10289307 20.54467773 -0.10812988 21.56982422 -0.11352539 C24 0 24 0 26 1 C26 1.66 26 2.32 26 3 C24.91460937 3.13277344 23.82921875 3.26554688 22.7109375 3.40234375 C21.26561678 3.58066254 19.82030474 3.75905169 18.375 3.9375 C17.66214844 4.02451172 16.94929688 4.11152344 16.21484375 4.20117188 C12.12408039 4.70782605 8.06157365 5.2889043 4 6 C4.66 5.01 5.32 4.02 6 3 C3.69 2.67 1.38 2.34 -1 2 C-0.67 1.34 -0.34 0.68 0 0 Z " fill="#0C0C0C" transform="translate(81,245)"/>
<path d="M0 0 C-1.84136386 3.68272773 -6.26452895 4.70812421 -10 6 C-15.82630589 6.63559701 -21.33239658 5.2772064 -27 4 C-26.015625 2.54296875 -26.015625 2.54296875 -24 1 C-21.18686612 0.61771728 -18.57177583 0.3969121 -15.75 0.3125 C-15.01136719 0.27833984 -14.27273437 0.24417969 -13.51171875 0.20898438 C-9.00584992 0.01428634 -4.50952881 -0.02982493 0 0 Z " fill="#D6D6D6" transform="translate(88,247)"/>
<path d="M0 0 C0.66 0.33 1.32 0.66 2 1 C1.319375 1.845625 0.63875 2.69125 -0.0625 3.5625 C-2.43065395 7.76406347 -1.82658451 9.37112672 -1 14 C-1.875 17.1875 -1.875 17.1875 -3 20 C-3.34976758 21.32911682 -3.69096017 22.66082739 -4 24 C-4.99 24 -5.98 24 -7 24 C-7 23.01 -7 22.02 -7 21 C-7.66 20.34 -8.32 19.68 -9 19 C-8.13375 18.154375 -7.2675 17.30875 -6.375 16.4375 C-4.93020894 14.85540789 -4.93020894 14.85540789 -4 13 C-4.53219091 9.17352608 -4.53219091 9.17352608 -6 6 C-4.02 4.02 -2.04 2.04 0 0 Z " fill="#000000" transform="translate(470,231)"/>
<path d="M0 0 C5.94 0.99 5.94 0.99 12 2 C12 4.31 12 6.62 12 9 C14.76264289 9.59732819 17.16032769 10 20 10 C19.34 11.32 18.68 12.64 18 14 C11.25 13.25 11.25 13.25 9 11 C8.60235737 9.01178687 8.26224651 7.01055661 8 5 C5.36 4.34 2.72 3.68 0 3 C0 2.01 0 1.02 0 0 Z " fill="#080808" transform="translate(0,256)"/>
<path d="M0 0 C1.65 0.33 3.3 0.66 5 1 C5.90594807 3.61718331 5.98235878 5.10143704 5.5 7.875 C4.96376636 11.22646028 5.41081278 13.68582189 6 17 C5.67 17.99 5.34 18.98 5 20 C4.01 19.67 3.02 19.34 2 19 C2.2475 18.4225 2.495 17.845 2.75 17.25 C2.8325 16.5075 2.915 15.765 3 15 C1.14567913 12.72855926 1.14567913 12.72855926 -1 11 C0.33333333 8.33333333 1.66666667 5.66666667 3 3 C2.01 2.67 1.02 2.34 0 2 C0 1.34 0 0.68 0 0 Z " fill="#000000" transform="translate(564,256)"/>
<path d="M0 0 C1.98 0.66 3.96 1.32 6 2 C6 2.33 6 2.66 6 3 C4.35 3 2.7 3 1 3 C1 3.99 1 4.98 1 6 C-0.43739513 6.02712066 -1.87493863 6.04645067 -3.3125 6.0625 C-4.51326172 6.07990234 -4.51326172 6.07990234 -5.73828125 6.09765625 C-8 6 -8 6 -11 5 C-11 4.34 -11 3.68 -11 3 C-7.7 3 -4.4 3 -1 3 C-0.67 2.01 -0.34 1.02 0 0 Z " fill="#1F1F1F" transform="translate(11,244)"/>
<path d="M0 0 C-2.45091043 2.68433048 -4.28241384 3.91789741 -8.04296875 4.09765625 C-8.75066406 4.08605469 -9.45835938 4.07445312 -10.1875 4.0625 C-12.0746875 4.0315625 -12.0746875 4.0315625 -14 4 C-13.67 3.01 -13.34 2.02 -13 1 C-11.39796533 0.63631108 -9.79325797 0.28438048 -8.1875 -0.0625 C-7.29417969 -0.25972656 -6.40085937 -0.45695313 -5.48046875 -0.66015625 C-3 -1 -3 -1 0 0 Z " fill="#222222" transform="translate(102,254)"/>
<path d="M0 0 C0.66 0.33 1.32 0.66 2 1 C1.814375 1.515625 1.62875 2.03125 1.4375 2.5625 C0.83752918 5.1713937 0.83752918 5.1713937 1.5 8.5 C1.93772143 11.56405002 2.02210188 13.16082812 1 16 C0.01 15.67 -0.98 15.34 -2 15 C-1.773125 14.113125 -1.54625 13.22625 -1.3125 12.3125 C-0.94548054 8.42209376 -1.73118159 7.08559304 -4 4 C-2.68 2.68 -1.36 1.36 0 0 Z " fill="#000000" transform="translate(518,231)"/>
<path d="M0 0 C0 0.66 0 1.32 0 2 C-4.455 3.485 -4.455 3.485 -9 5 C-7 1 -7 1 -4.5 -0.3125 C-2 -1 -2 -1 0 0 Z " fill="#111111" transform="translate(89,257)"/>
<path d="M0 0 C0.33 0 0.66 0 1 0 C1 2.97 1 5.94 1 9 C0.01 9 -0.98 9 -2 9 C-1.125 1.125 -1.125 1.125 0 0 Z " fill="#000000" transform="translate(602,255)"/>
</svg>
