<?xml version="1.0" encoding="UTF-8"?>
<svg version="1.1" xmlns="http://www.w3.org/2000/svg" width="800" height="300">
<path d="M0 0 C264 0 528 0 800 0 C800 99 800 198 800 300 C536 300 272 300 0 300 C0 201 0 102 0 0 Z " fill="#FEFEFE" transform="translate(0,0)"/>
<path d="M0 0 C2.6875 -0.3125 2.6875 -0.3125 6 0 C6.65484375 0.82371094 7.3096875 1.64742187 7.984375 2.49609375 C12.5652212 6.2996202 16.79729447 5.57827168 22.5625 5.375 C23.56474609 5.36082031 24.56699219 5.34664062 25.59960938 5.33203125 C30.47519469 5.2414631 35.34076995 5.04623593 40.20825195 4.75537109 C54.45235002 3.91878154 68.67682983 3.84573931 82.94213867 3.86962891 C85.67653585 3.87416195 88.4108666 3.87421517 91.14526367 3.86962891 C100.43094505 3.85414611 109.7147567 3.89399703 119 4 C120.89718781 4.01987976 120.89718781 4.01987976 122.83270264 4.04016113 C126.4714204 4.08922994 130.10817747 4.16795371 133.74609375 4.2578125 C135.34216209 4.27822098 135.34216209 4.27822098 136.97047424 4.29904175 C147.76141846 4.63593906 157.23194941 7.126133 165.1015625 14.796875 C168.08119031 18.25471468 170.07594107 21.88307979 172 26 C172.5878125 27.06347656 172.5878125 27.06347656 173.1875 28.1484375 C176.97476175 35.43365628 176.77162077 42.60176161 175.375 50.5625 C169.6875 64.78125 169.6875 64.78125 163.4375 67.625 C157.70072769 69.69064707 152.18507829 70.14951793 146.12109375 70.1328125 C145.35992249 70.13413177 144.59875122 70.13545105 143.81451416 70.1368103 C141.35546728 70.1387179 138.89653518 70.13241583 136.4375 70.125 C135.60618561 70.12411377 134.77487122 70.12322754 133.91836548 70.12231445 C121.58858811 70.10680173 109.30284848 69.87542505 97 69 C97 68.34 97 67.68 97 67 C96.29617188 67.16242188 95.59234375 67.32484375 94.8671875 67.4921875 C87.40965184 68.81300444 79.59253259 68.08414043 72.08203125 67.5078125 C66.67319889 67.13155169 61.29977248 66.9117425 55.87890625 66.859375 C21.79509958 66.48121764 21.79509958 66.48121764 10.8125 58.25 C9.32421875 56.69140625 9.32421875 56.69140625 8 55 C7.51144531 54.41089844 7.02289063 53.82179688 6.51953125 53.21484375 C2.55488966 47.4511211 2.40935902 41.64162749 2.45166016 34.85229492 C2.47029608 32.43228376 2.47029608 32.43228376 2 29 C0.13377036 27.1371129 0.13377036 27.1371129 -2 26 C-3.20745835 22.37762495 -3.22246029 19.0229405 -3.25 15.25 C-3.270625 14.5590625 -3.29125 13.868125 -3.3125 13.15625 C-3.35088173 8.05147958 -2.27330153 4.57053254 0 0 Z " fill="#656565" transform="translate(428,216)"/>
<path d="M0 0 C3.74751238 1.87375619 5.35093021 3.15200472 8.0625 6.1875 C8.73410156 6.92355469 9.40570313 7.65960938 10.09765625 8.41796875 C15.61618497 15.90820999 16.41848644 24.70327872 17.9296875 33.6640625 C19.15641987 40.34652565 20.54228319 46.67383681 25 52 C27.99548425 53.64557618 27.99548425 53.64557618 31.25 54 C32.83554688 54.2784375 32.83554688 54.2784375 34.453125 54.5625 C35.29359375 54.706875 36.1340625 54.85125 37 55 C37.33 55.33 37.66 55.66 38 56 C41.1439404 56.25322654 44.26417187 56.43707011 47.4140625 56.5703125 C48.88318588 56.6346196 48.88318588 56.6346196 50.38198853 56.70022583 C57.9116303 56.99395968 65.42646366 57.04754167 72.9609375 56.9921875 C74.60681854 56.9804953 74.60681854 56.9804953 76.28594971 56.96856689 C80.78568913 56.93209293 85.28519139 56.88982627 89.78466797 56.82861328 C119.56878766 56.44780784 119.56878766 56.44780784 133 62 C135.54290625 62.58350505 135.54290625 62.58350505 138 62 C138.9590625 60.7934375 138.9590625 60.7934375 139.9375 59.5625 C142 57 142 57 145 56 C148 56 148 56 150.1796875 57.125 C152 59 152 59 152.3203125 61.8125 C152.25585938 62.864375 152.19140625 63.91625 152.125 65 C151.75969575 69.80540566 151.75969575 69.80540566 154 74 C154.3359375 76.12109375 154.3359375 76.12109375 154.375 78.4375 C154.40335938 79.19933594 154.43171875 79.96117187 154.4609375 80.74609375 C153.80749212 83.94133091 152.60730279 85.08363245 150 87 C141.42271479 88.19739879 133.91533104 84.96347838 126.296875 81.43359375 C119.6839279 78.5580587 113.15552702 77.68889013 106 78 C107.03837833 86.14659558 107.03837833 86.14659558 111 93 C113.01325322 93.2876076 115.03039646 93.5693432 117.05859375 93.71875 C119 94 119 94 121.5 95.5625 C123.62205027 99.01083169 123.62781268 102.11354057 123 106 C121.43564712 110.0226217 120.61276337 111.59149109 117 114 C114.22265625 114.3359375 114.22265625 114.3359375 111.0625 114.375 C110.02222656 114.40335937 108.98195313 114.43171875 107.91015625 114.4609375 C105 114 105 114 102.61328125 112.2421875 C100.74710134 109.64851373 100.69167955 108.83879705 101.125 105.75 C101.41880065 99.98771629 98.60232566 97.18896394 95 93 C92 88.5 92 88.5 92 85 C91.38253906 85.19335938 90.76507813 85.38671875 90.12890625 85.5859375 C84.45800253 87.32950303 78.80354736 88.78085203 73 90 C71.31207728 90.37309267 69.6245647 90.74804648 67.9375 91.125 C66.625 91.41666667 65.3125 91.70833333 64 92 C63.95875 92.721875 63.9175 93.44375 63.875 94.1875 C62.67456278 98.04604822 60.45742554 100.09725574 57 102 C53.4375 102.6875 53.4375 102.6875 50 102 C45.87101904 98.40958177 44.30457003 95.40860769 43.91796875 89.96484375 C44.05142432 86.76826507 44.66944673 83.33055327 47 81 C48.47648876 80.90176004 49.95775417 80.87026481 51.4375 80.875 C52.64212891 80.87113281 52.64212891 80.87113281 53.87109375 80.8671875 C56 81 56 81 58 82 C64.34308621 82.7735471 66.39202494 80.93687781 73 78 C53.2 78.66 33.4 79.32 13 80 C13 82.97 13 85.94 13 89 C12.03641121 93.6038131 9.27282855 95.87155741 5.8515625 98.86328125 C4 100 4 100 0 100 C0 67 0 34 0 0 Z " fill="#F9F9F9" transform="translate(0,170)"/>
<path d="M0 0 C2.6875 -0.3125 2.6875 -0.3125 6 0 C6.65484375 0.82371094 7.3096875 1.64742187 7.984375 2.49609375 C12.5652212 6.2996202 16.79729447 5.57827168 22.5625 5.375 C23.56474609 5.36082031 24.56699219 5.34664062 25.59960938 5.33203125 C30.47519469 5.2414631 35.34076995 5.04623593 40.20825195 4.75537109 C54.45235002 3.91878154 68.67682983 3.84573931 82.94213867 3.86962891 C85.67653585 3.87416195 88.4108666 3.87421517 91.14526367 3.86962891 C100.43094505 3.85414611 109.7147567 3.89399703 119 4 C120.89718781 4.01987976 120.89718781 4.01987976 122.83270264 4.04016113 C126.4714204 4.08922994 130.10817747 4.16795371 133.74609375 4.2578125 C135.34216209 4.27822098 135.34216209 4.27822098 136.97047424 4.29904175 C147.76141846 4.63593906 157.23194941 7.126133 165.1015625 14.796875 C168.08119031 18.25471468 170.07594107 21.88307979 172 26 C172.5878125 27.06347656 172.5878125 27.06347656 173.1875 28.1484375 C176.97476175 35.43365628 176.77162077 42.60176161 175.375 50.5625 C169.6875 64.78125 169.6875 64.78125 163.4375 67.625 C157.70072769 69.69064707 152.18507829 70.14951793 146.12109375 70.1328125 C145.35992249 70.13413177 144.59875122 70.13545105 143.81451416 70.1368103 C141.35546728 70.1387179 138.89653518 70.13241583 136.4375 70.125 C135.60618561 70.12411377 134.77487122 70.12322754 133.91836548 70.12231445 C121.58858811 70.10680173 109.30284848 69.87542505 97 69 C97 68.34 97 67.68 97 67 C96.29617188 67.16242188 95.59234375 67.32484375 94.8671875 67.4921875 C87.40965184 68.81300444 79.59253259 68.08414043 72.08203125 67.5078125 C66.67319889 67.13155169 61.29977248 66.9117425 55.87890625 66.859375 C21.79509958 66.48121764 21.79509958 66.48121764 10.8125 58.25 C9.32421875 56.69140625 9.32421875 56.69140625 8 55 C7.51144531 54.41089844 7.02289063 53.82179688 6.51953125 53.21484375 C2.55488966 47.4511211 2.40935902 41.64162749 2.45166016 34.85229492 C2.47029608 32.43228376 2.47029608 32.43228376 2 29 C0.13377036 27.1371129 0.13377036 27.1371129 -2 26 C-3.20745835 22.37762495 -3.22246029 19.0229405 -3.25 15.25 C-3.270625 14.5590625 -3.29125 13.868125 -3.3125 13.15625 C-3.35088173 8.05147958 -2.27330153 4.57053254 0 0 Z M3 3 C-0.71059486 9.13054803 -1.71075839 15.44620807 -0.3125 22.4375 C0.78058442 25.09159104 0.78058442 25.09159104 3 26.3125 C6.24734023 29.05244332 6.35310018 32.93985245 7 37 C9.64573501 34.77122275 9.64573501 34.77122275 12 32 C11.95502158 29.72476911 11.95502158 29.72476911 11 28 C12.32 27.34 13.64 26.68 15 26 C14.67 24.35 14.34 22.7 14 21 C14.99 21.99 15.98 22.98 17 24 C15.39680795 28.66383143 13.08350522 33.14135949 10 37 C9.30648438 37.30550781 8.61296875 37.61101562 7.8984375 37.92578125 C5.77741393 38.86585583 5.77741393 38.86585583 5.07421875 41.29296875 C4.97884902 44.77145414 5.96425246 46.39079722 7.8125 49.3125 C8.35519531 50.19550781 8.89789063 51.07851563 9.45703125 51.98828125 C9.96621094 52.65214844 10.47539062 53.31601562 11 54 C11.66 54 12.32 54 13 54 C13.33 54.99 13.66 55.98 14 57 C16.36401089 58.26080581 18.47896761 59.14504119 21 60 C21.81339844 60.28230469 22.62679688 60.56460938 23.46484375 60.85546875 C33.75725957 63.93020167 46.48210319 64.63478627 57 62 C57.53394179 60.5882217 58.05165104 59.17029756 58.5625 57.75 C58.85253906 56.96109375 59.14257812 56.1721875 59.44140625 55.359375 C60.0610168 52.74227867 59.94248701 51.4926979 59 49 C58.34 48.01 57.68 47.02 57 46 C57.53625 45.443125 58.0725 44.88625 58.625 44.3125 C59.07875 43.549375 59.5325 42.78625 60 42 C59.26145768 39.36186139 59.26145768 39.36186139 58 37 C58 36.34 58 35.68 58 35 C58.99 35.33 59.98 35.66 61 36 C61.94002987 40.38680608 61.74651537 43.61422219 61 48 C61.185625 48.804375 61.37125 49.60875 61.5625 50.4375 C62.16494838 53.96612624 61.00559799 56.60610677 60 60 C60.33 60.99 60.66 61.98 61 63 C62.06927734 63.09087891 62.06927734 63.09087891 63.16015625 63.18359375 C71.41188054 63.9054808 71.41188054 63.9054808 75.5 64.5625 C82.43977973 65.42997247 89.12334905 65.23427068 96 64 C96.66 64.33 97.32 64.66 98 65 C100.56845219 65.03037021 103.120762 64.93311185 105.6875 64.83984375 C108 65 108 65 110 67 C112.52377655 67.27808217 112.52377655 67.27808217 115.4453125 67.1953125 C116.52167969 67.18886719 117.59804688 67.18242187 118.70703125 67.17578125 C119.83496094 67.15902344 120.96289062 67.14226562 122.125 67.125 C123.26066406 67.11597656 124.39632812 67.10695313 125.56640625 67.09765625 C128.37781299 67.07403098 131.18880298 67.04109013 134 67 C134 66.34 134 65.68 134 65 C134.99 64.67 135.98 64.34 137 64 C138.56028793 61.15102982 139.46843274 58.20059445 140 55 C139.01919106 52.38017854 139.01919106 52.38017854 137 51 C136.34 51 135.68 51 135 51 C135.66 50.236875 136.32 49.47375 137 48.6875 C139.29850538 46.15722061 139.29850538 46.15722061 139 43 C137.56249809 41.31201173 137.56249809 41.31201173 136 40 C137.32 40.33 138.64 40.66 140 41 C140.90594807 43.61718331 140.98235878 45.10143704 140.5 47.875 C139.82038781 50.94518924 139.82038781 50.94518924 140.5625 53.75 C141.18730226 58.39138818 140.07980006 62.48447249 139 67 C149.65771916 67.35857747 158.40464935 67.06190317 166.59375 59.53515625 C171.66979043 54.24761413 174.03554301 48.43102855 173.9765625 41.078125 C172.70835554 30.19972752 166.40917284 21.74595342 159 14 C158.01 13.67 157.02 13.34 156 13 C154.39819908 16.38766195 154.39819908 16.38766195 154.125 20.0625 C154.8950733 22.17907441 154.8950733 22.17907441 157.0625 23.5625 C160.20275922 27.5131487 159.47149501 32.13046134 159 37 C158.67 37.66 158.34 38.32 158 39 C157.01 39.33 156.02 39.66 155 40 C155.165 38.9275 155.33 37.855 155.5 36.75 C156.3352003 30.76189263 156.3352003 30.76189263 155 25 C152.50965614 23.70339566 152.50965614 23.70339566 150 23 C150.99 19.7 151.98 16.4 153 13 C146.68439027 7.21069108 141.08633074 7.22890562 132.75 7.1875 C130.97496094 7.14979492 130.97496094 7.14979492 129.1640625 7.11132812 C125.10889692 7.03050193 121.05589005 7 117 7 C116.97111854 10.31248187 116.95324201 13.62493167 116.9375 16.9375 C116.92493164 18.35579102 116.92493164 18.35579102 116.91210938 19.80273438 C116.90727539 21.15141602 116.90727539 21.15141602 116.90234375 22.52734375 C116.89448853 23.77632446 116.89448853 23.77632446 116.88647461 25.05053711 C116.78356708 27.00516798 116.78356708 27.00516798 118 28 C118.26293056 32.03160191 118.29404844 33.55892734 116 37 C113.875 37.6875 113.875 37.6875 112 38 C113.75 34.125 113.75 34.125 116 33 C115.89171875 31.86111328 115.89171875 31.86111328 115.78125 30.69921875 C115.6884375 29.70535156 115.595625 28.71148437 115.5 27.6875 C115.4071875 26.70136719 115.314375 25.71523437 115.21875 24.69921875 C115 22 115 22 115 19 C114.34 19 113.68 19 113 19 C113.556875 17.63875 113.556875 17.63875 114.125 16.25 C115.25131743 13.16467339 115.25131743 13.16467339 114.375 10.75 C112.21694327 8.00338235 109.96584178 7.12449559 106.52636719 6.68115234 C105.62563477 6.64973145 104.72490234 6.61831055 103.796875 6.5859375 C102.8171875 6.54726562 101.8375 6.50859375 100.828125 6.46875 C99.30445313 6.42234375 99.30445313 6.42234375 97.75 6.375 C96.203125 6.31699219 96.203125 6.31699219 94.625 6.2578125 C92.0835106 6.16368326 89.54202567 6.07805021 87 6 C87.495 6.99 87.495 6.99 88 8 C88.66 8 89.32 8 90 8 C90.67228569 12.48190462 91.12701027 15.63283522 90 20 C90.29235267 22.33882138 90.62599214 24.67284 91 27 C91 28.32 91 29.64 91 31 C90.01 30.01 90.01 30.01 89 29 C89.2784375 27.824375 89.2784375 27.824375 89.5625 26.625 C90.29178752 23.94859806 90.29178752 23.94859806 88.6875 21.6875 C88.130625 21.130625 87.57375 20.57375 87 20 C86.34 20 85.68 20 85 20 C85.680625 19.443125 86.36125 18.88625 87.0625 18.3125 C89.25510881 16.18317288 89.25510881 16.18317288 89.0625 13.5 C87.56544541 9.97751862 86.33969805 8.96356171 83 7 C79.03453696 6.4431461 75.1217931 6.53050618 71.125 6.625 C70.0119751 6.63789063 68.8989502 6.65078125 67.75219727 6.6640625 C59.38070792 6.81952868 51.23850267 7.4996548 43 9 C43.04253906 10.093125 43.08507812 11.18625 43.12890625 12.3125 C43 16 43 16 40.9375 19 C38.43457181 22.87550172 39.20915027 24.57124149 40 29 C39.125 32.1875 39.125 32.1875 38 35 C37.65023242 36.32911682 37.30903983 37.66082739 37 39 C35.79371992 36.66785852 34.8345262 34.50357861 34 32 C34.639375 31.7525 35.27875 31.505 35.9375 31.25 C38.12493715 30.18550582 38.12493715 30.18550582 38.875 28.125 C39.02904228 25.50628117 38.24534014 24.27091436 37 22 C37 21.01 37 20.02 37 19 C39 17.3125 39 17.3125 41 16 C40.81171228 13.55519921 40.81171228 13.55519921 40 11 C36.96969085 8.99095526 34.40823739 8.73084337 30.82421875 8.65625 C29.83099609 8.62660156 28.83777344 8.59695312 27.81445312 8.56640625 C26.26661133 8.53353516 26.26661133 8.53353516 24.6875 8.5 C8.56797015 8.15378142 8.56797015 8.15378142 4.0625 4.375 C3.711875 3.92125 3.36125 3.4675 3 3 Z " fill="#111111" transform="translate(428,216)"/>
<path d="M0 0 C3.47930192 1.47111423 5.55609792 3.38168187 8.0625 6.1875 C8.73410156 6.92355469 9.40570313 7.65960938 10.09765625 8.41796875 C15.61618497 15.90820999 16.41848644 24.70327872 17.9296875 33.6640625 C19.15641987 40.34652565 20.54228319 46.67383681 25 52 C27.99548425 53.64557618 27.99548425 53.64557618 31.25 54 C32.83554688 54.2784375 32.83554688 54.2784375 34.453125 54.5625 C35.29359375 54.706875 36.1340625 54.85125 37 55 C37.33 55.33 37.66 55.66 38 56 C41.1439404 56.25322654 44.26417187 56.43707011 47.4140625 56.5703125 C48.88318588 56.6346196 48.88318588 56.6346196 50.38198853 56.70022583 C57.9116303 56.99395968 65.42646366 57.04754167 72.9609375 56.9921875 C74.60681854 56.9804953 74.60681854 56.9804953 76.28594971 56.96856689 C80.78568913 56.93209293 85.28519139 56.88982627 89.78466797 56.82861328 C119.56878766 56.44780784 119.56878766 56.44780784 133 62 C135.54290625 62.58350505 135.54290625 62.58350505 138 62 C138.9590625 60.7934375 138.9590625 60.7934375 139.9375 59.5625 C142 57 142 57 145 56 C148 56 148 56 150.1796875 57.125 C152 59 152 59 152.3203125 61.8125 C152.25585938 62.864375 152.19140625 63.91625 152.125 65 C151.75969575 69.80540566 151.75969575 69.80540566 154 74 C154.3359375 76.12109375 154.3359375 76.12109375 154.375 78.4375 C154.40335938 79.19933594 154.43171875 79.96117187 154.4609375 80.74609375 C153.80749212 83.94133091 152.60730279 85.08363245 150 87 C141.42271479 88.19739879 133.91533104 84.96347838 126.296875 81.43359375 C119.6839279 78.5580587 113.15552702 77.68889013 106 78 C107.03837833 86.14659558 107.03837833 86.14659558 111 93 C113.01325322 93.2876076 115.03039646 93.5693432 117.05859375 93.71875 C119 94 119 94 121.5 95.5625 C123.62205027 99.01083169 123.62781268 102.11354057 123 106 C121.43564712 110.0226217 120.61276337 111.59149109 117 114 C114.22265625 114.3359375 114.22265625 114.3359375 111.0625 114.375 C110.02222656 114.40335937 108.98195313 114.43171875 107.91015625 114.4609375 C105 114 105 114 102.61328125 112.2421875 C100.74710134 109.64851373 100.69167955 108.83879705 101.125 105.75 C101.41880065 99.98771629 98.60232566 97.18896394 95 93 C92 88.5 92 88.5 92 85 C91.38253906 85.19335938 90.76507813 85.38671875 90.12890625 85.5859375 C84.45800253 87.32950303 78.80354736 88.78085203 73 90 C71.31207728 90.37309267 69.6245647 90.74804648 67.9375 91.125 C66.625 91.41666667 65.3125 91.70833333 64 92 C63.95875 92.721875 63.9175 93.44375 63.875 94.1875 C62.67456278 98.04604822 60.45742554 100.09725574 57 102 C53.4375 102.6875 53.4375 102.6875 50 102 C45.87101904 98.40958177 44.30457003 95.40860769 43.91796875 89.96484375 C44.05142432 86.76826507 44.66944673 83.33055327 47 81 C48.47648876 80.90176004 49.95775417 80.87026481 51.4375 80.875 C52.64212891 80.87113281 52.64212891 80.87113281 53.87109375 80.8671875 C56 81 56 81 58 82 C64.34308621 82.7735471 66.39202494 80.93687781 73 78 C53.2 78.66 33.4 79.32 13 80 C13 82.97 13 85.94 13 89 C12.03641121 93.6038131 9.27282855 95.87155741 5.8515625 98.86328125 C4 100 4 100 0 100 C0 91.42 0 82.84 0 74 C2.31 74.33 4.62 74.66 7 75 C8.35469008 75.07615626 9.71188281 75.12227061 11.06871033 75.12025452 C11.79353607 75.12162918 12.51836182 75.12300385 13.26515198 75.12442017 C14.03479782 75.12082489 14.80444366 75.11722961 15.59741211 75.11352539 C16.42748779 75.11367142 17.25756348 75.11381744 18.11279297 75.1139679 C20.83433723 75.11327574 23.55581156 75.1055162 26.27734375 75.09765625 C28.17305972 75.09578959 30.06877617 75.09436686 31.9644928 75.09336853 C36.93748319 75.08956287 41.91044407 75.07974935 46.88342285 75.06866455 C51.96459555 75.05840838 57.04577305 75.05386192 62.12695312 75.04882812 C72.08464834 75.03812524 82.04232171 75.02107238 92 75 C92.33 75.99 92.66 76.98 93 78 C92.030625 78.06316406 91.06125 78.12632812 90.0625 78.19140625 C81.29338809 78.93614084 74.12529098 80.74346215 66.23046875 84.69946289 C61.46925826 87.04523895 61.46925826 87.04523895 58.609375 86.76953125 C57 86 57 86 56 85 C53.32941149 84.85884839 50.67567762 84.95752893 48 85 C47.97287934 86.43739513 47.95354933 87.87493863 47.9375 89.3125 C47.92589844 90.11300781 47.91429687 90.91351563 47.90234375 91.73828125 C47.90342145 94.16861334 47.90342145 94.16861334 49 97 C51.87470493 98.43735246 53.81894588 98.38172649 57 98 C59.90436867 95.17412778 61.15887273 92.89750061 62 89 C62.72445312 88.80664062 63.44890625 88.61328125 64.1953125 88.4140625 C70.19869983 86.80433442 70.19869983 86.80433442 76.125 84.9375 C79.30364506 83.90098531 82.4781097 83.21649147 85.75390625 82.5625 C88.28143883 81.92951793 90.60168625 81.01159103 93 80 C93.27972656 80.76183594 93.55945313 81.52367187 93.84765625 82.30859375 C95.9720586 87.7801252 97.99164177 92.30631753 101.875 96.75 C104.93994513 100.37100429 104.93994513 100.37100429 105.22265625 103.33203125 C104.9375 105.5625 104.9375 105.5625 104 109 C106.88415883 110.44207941 109.41721528 110.09394887 112.625 110.0625 C114.40777344 110.04896484 114.40777344 110.04896484 116.2265625 110.03515625 C117.59941406 110.01775391 117.59941406 110.01775391 119 110 C119.22162329 108.37675914 119.42689803 106.751279 119.625 105.125 C119.79902344 103.76761719 119.79902344 103.76761719 119.9765625 102.3828125 C119.98429687 101.59648437 119.99203125 100.81015625 120 100 C117.63288209 97.63288209 116.89980191 97.77762608 113.6875 97.4375 C110.70599663 96.83158157 109.35691711 96.3945735 107.296875 94.1171875 C104.45608907 89.30091251 103.41012606 85.54481502 104 80 C103.34 80 102.68 80 102 80 C102.33 78.35 102.66 76.7 103 75 C113.56672799 74.62558838 123.24873018 75.39495423 132.84765625 80.046875 C138.69426593 82.63593627 144.67464603 83.269164 151 83 C151 80.36 151 77.72 151 75 C149.35 74.34 147.7 73.68 146 73 C146.54723683 69.62537285 147.0549 67.91765 149 65 C148.6878236 62.35367713 148.6878236 62.35367713 148 60 C145.59122743 60.11341534 145.59122743 60.11341534 143 61 C142.54625 61.845625 142.0925 62.69125 141.625 63.5625 C141.08875 64.366875 140.5525 65.17125 140 66 C135.1427225 66.76192588 131.60711223 65.64721427 127.20275879 63.83335876 C120.60677471 61.33793295 114.08941002 60.71666521 107.09375 60.83984375 C105.84766968 60.84839386 105.84766968 60.84839386 104.57641602 60.8571167 C102.80196829 60.86968069 101.02754596 60.88643192 99.25317383 60.90707397 C94.5647336 60.95888712 89.87618153 60.97044867 85.1875 60.984375 C83.77277405 60.98935249 83.77277405 60.98935249 82.32946777 60.99443054 C74.08235737 61.01632655 65.84053128 60.94756466 57.59594727 60.73855591 C56.21764517 60.70498137 54.83921036 60.67641498 53.46069336 60.65328979 C46.28107746 60.52846832 39.82883846 60.07725619 33.01953125 57.69921875 C29.75114641 56.56761162 26.45372521 56 23 56 C17.51274393 47.40141317 15.61181666 38.74915544 13.91333008 28.80664062 C12.13362926 18.953781 9.02441998 11.12780156 1.35546875 4.47265625 C-0 3 -0 3 0 0 Z " fill="#0B0B0B" transform="translate(0,170)"/>
<path d="M0 0 C2.31 0.33 4.62 0.66 7 1 C8.35469008 1.07615626 9.71188281 1.12227061 11.06871033 1.12025452 C11.79353607 1.12162918 12.51836182 1.12300385 13.26515198 1.12442017 C14.03479782 1.12082489 14.80444366 1.11722961 15.59741211 1.11352539 C16.42748779 1.11367142 17.25756348 1.11381744 18.11279297 1.1139679 C20.83433723 1.11327574 23.55581156 1.1055162 26.27734375 1.09765625 C28.17305972 1.09578959 30.06877617 1.09436686 31.9644928 1.09336853 C36.93748319 1.08956287 41.91044407 1.07974935 46.88342285 1.06866455 C51.96459555 1.05840838 57.04577305 1.05386192 62.12695312 1.04882812 C72.08464834 1.03812524 82.04232171 1.02107238 92 1 C92.495 2.485 92.495 2.485 93 4 C91.91460937 4.13277344 90.82921875 4.26554688 89.7109375 4.40234375 C88.26561678 4.58066254 86.82030474 4.75905169 85.375 4.9375 C84.66214844 5.02451172 83.94929688 5.11152344 83.21484375 5.20117188 C79.12408039 5.70782605 75.06157365 6.2889043 71 7 C71.66 6.01 72.32 5.02 73 4 C53.2 4.66 33.4 5.32 13 6 C13 8.97 13 11.94 13 15 C12.03641121 19.6038131 9.27282855 21.87155741 5.8515625 24.86328125 C4 26 4 26 0 26 C0 17.42 0 8.84 0 0 Z " fill="#101010" transform="translate(0,244)"/>
<path d="M0 0 C0.66 0.33 1.32 0.66 2 1 C1 4 1 4 -1.14453125 5.203125 C-2.02496094 5.54859375 -2.90539062 5.8940625 -3.8125 6.25 C-5.12154297 6.78367188 -5.12154297 6.78367188 -6.45703125 7.328125 C-9.15388385 8.04065748 -10.42909008 7.99370001 -13 7 C-13.33 6.67 -13.66 6.34 -14 6 C-16.67058851 5.85884839 -19.32432238 5.95752893 -22 6 C-22.02712066 7.43739513 -22.04645067 8.87493863 -22.0625 10.3125 C-22.07410156 11.11300781 -22.08570313 11.91351563 -22.09765625 12.73828125 C-22.09657855 15.16861334 -22.09657855 15.16861334 -21 18 C-18.12529507 19.43735246 -16.18105412 19.38172649 -13 19 C-10.09563133 16.17412778 -8.84112727 13.89750061 -8 10 C-7.27554688 9.80664062 -6.55109375 9.61328125 -5.8046875 9.4140625 C0.3042559 7.77741909 0.3042559 7.77741909 6.3125 5.8125 C9.32210549 4.90261927 11.87317567 4.8511036 15 5 C14.67 5.99 14.34 6.98 14 8 C11.8125 8.87890625 11.8125 8.87890625 9 9.5625 C8.01386719 9.80742187 7.02773437 10.05234375 6.01171875 10.3046875 C5.01785156 10.53414063 4.02398437 10.76359375 3 11 C1.64841797 11.31324219 1.64841797 11.31324219 0.26953125 11.6328125 C-1.81691785 12.10383917 -3.90802236 12.5541687 -6 13 C-6.04125 13.721875 -6.0825 14.44375 -6.125 15.1875 C-7.32543722 19.04604822 -9.54257446 21.09725574 -13 23 C-16.5625 23.6875 -16.5625 23.6875 -20 23 C-24.12898096 19.40958177 -25.69542997 16.40860769 -26.08203125 10.96484375 C-25.94857568 7.76826507 -25.33055327 4.33055327 -23 2 C-21.52351124 1.90176004 -20.04224583 1.87026481 -18.5625 1.875 C-17.35787109 1.87113281 -17.35787109 1.87113281 -16.12890625 1.8671875 C-14 2 -14 2 -12 3 C-7.07579986 3.44765456 -4.31871543 2.25751034 0 0 Z " fill="#101010" transform="translate(70,249)"/>
<path d="M0 0 C5.41710471 1.08342094 7.40069381 1.88650721 11 6 C11.50046793 9.25009763 11.06896415 11.90504097 10 15 C7.75 18.0625 7.75 18.0625 5 20 C3.35 20 1.7 20 0 20 C0 13.4 0 6.8 0 0 Z " fill="#F5F5F5" transform="translate(0,246)"/>
<path d="M0 0 C8.25 0 16.5 0 25 0 C25.33 0.99 25.66 1.98 26 3 C24.91460937 3.13277344 23.82921875 3.26554688 22.7109375 3.40234375 C21.26561678 3.58066254 19.82030474 3.75905169 18.375 3.9375 C17.66214844 4.02451172 16.94929688 4.11152344 16.21484375 4.20117188 C12.12408039 4.70782605 8.06157365 5.2889043 4 6 C4.66 5.01 5.32 4.02 6 3 C3.69 3 1.38 3 -1 3 C-0.67 2.01 -0.34 1.02 0 0 Z " fill="#0D0D0D" transform="translate(67,245)"/>
<path d="M0 0 C1.32 0.66 2.64 1.32 4 2 C2.8656185 9.94067053 -2.50728227 15.50728227 -8 21 C-8.66 21.33 -9.32 21.66 -10 22 C-10 18.04 -10 14.08 -10 10 C-9.34 10 -8.68 10 -8 10 C-7.34 11.32 -6.68 12.64 -6 14 C-4.37168238 12.19038423 -4.37168238 12.19038423 -3 10 C-3.33 9.01 -3.66 8.02 -4 7 C-2.35 6.34 -0.7 5.68 1 5 C0.67 3.35 0.34 1.7 0 0 Z " fill="#010101" transform="translate(442,237)"/>
<path d="M0 0 C-1.82960928 3.65921857 -6.28647024 4.70272388 -10 6 C-13.26033542 6.29639413 -15.09261897 6.45369052 -18 5 C-19.53668865 4.77532169 -21.07968054 4.59203195 -22.625 4.4375 C-23.44226562 4.35371094 -24.25953125 4.26992187 -25.1015625 4.18359375 C-25.72804687 4.12300781 -26.35453125 4.06242188 -27 4 C-26.015625 2.54296875 -26.015625 2.54296875 -24 1 C-21.18686612 0.61771728 -18.57177583 0.3969121 -15.75 0.3125 C-15.01136719 0.27833984 -14.27273437 0.24417969 -13.51171875 0.20898438 C-9.00584992 0.01428634 -4.50952881 -0.02982493 0 0 Z " fill="#D7D7D7" transform="translate(74,247)"/>
<path d="M0 0 C0.66 0.33 1.32 0.66 2 1 C1.319375 1.845625 0.63875 2.69125 -0.0625 3.5625 C-2.43065395 7.76406347 -1.82658451 9.37112672 -1 14 C-1.875 17.1875 -1.875 17.1875 -3 20 C-3.34976758 21.32911682 -3.69096017 22.66082739 -4 24 C-4.99 24 -5.98 24 -7 24 C-7 23.01 -7 22.02 -7 21 C-7.66 20.34 -8.32 19.68 -9 19 C-8.13375 18.154375 -7.2675 17.30875 -6.375 16.4375 C-4.93020894 14.85540789 -4.93020894 14.85540789 -4 13 C-4.53219091 9.17352608 -4.53219091 9.17352608 -6 6 C-4.02 4.02 -2.04 2.04 0 0 Z " fill="#000000" transform="translate(470,231)"/>
<path d="M0 0 C1.65 0.33 3.3 0.66 5 1 C5.90594807 3.61718331 5.98235878 5.10143704 5.5 7.875 C4.96376636 11.22646028 5.41081278 13.68582189 6 17 C5.67 17.99 5.34 18.98 5 20 C4.01 19.67 3.02 19.34 2 19 C2.2475 18.4225 2.495 17.845 2.75 17.25 C2.8325 16.5075 2.915 15.765 3 15 C1.14567913 12.72855926 1.14567913 12.72855926 -1 11 C0.33333333 8.33333333 1.66666667 5.66666667 3 3 C2.01 2.67 1.02 2.34 0 2 C0 1.34 0 0.68 0 0 Z " fill="#000000" transform="translate(564,256)"/>
<path d="M0 0 C-0.33 0.99 -0.66 1.98 -1 3 C-3.2578125 3.87890625 -3.2578125 3.87890625 -6.125 4.5625 C-7.11371094 4.80742187 -8.10242188 5.05234375 -9.12109375 5.3046875 C-10.07113281 5.53414063 -11.02117187 5.76359375 -12 6 C-13.39825062 6.38720786 -14.79462914 6.78136517 -16.1875 7.1875 C-17.115625 7.455625 -18.04375 7.72375 -19 8 C-18.85546875 6.140625 -18.85546875 6.140625 -18 4 C-15.48828125 2.734375 -15.48828125 2.734375 -12.3125 1.75 C-11.27738281 1.41484375 -10.24226563 1.0796875 -9.17578125 0.734375 C-5.99908308 -0.00021203 -3.24736123 -0.13632101 0 0 Z " fill="#272727" transform="translate(85,254)"/>
<path d="M0 0 C5.61 0 11.22 0 17 0 C16.67 0.99 16.34 1.98 16 3 C10.39 3 4.78 3 -1 3 C-0.67 2.01 -0.34 1.02 0 0 Z " fill="#1E1E1E" transform="translate(50,245)"/>
<path d="M0 0 C0.66 0.33 1.32 0.66 2 1 C1.814375 1.515625 1.62875 2.03125 1.4375 2.5625 C0.83752918 5.1713937 0.83752918 5.1713937 1.5 8.5 C1.93772143 11.56405002 2.02210188 13.16082812 1 16 C0.01 15.67 -0.98 15.34 -2 15 C-1.773125 14.113125 -1.54625 13.22625 -1.3125 12.3125 C-0.94548054 8.42209376 -1.73118159 7.08559304 -4 4 C-2.68 2.68 -1.36 1.36 0 0 Z " fill="#000000" transform="translate(518,231)"/>
<path d="M0 0 C1.58246707 -0.08153933 3.16616273 -0.13943557 4.75 -0.1875 C6.07257813 -0.23970703 6.07257813 -0.23970703 7.421875 -0.29296875 C10 0 10 0 14 3 C9.38 3 4.76 3 0 3 C0 2.01 0 1.02 0 0 Z " fill="#272727" transform="translate(92,227)"/>
<path d="M0 0 C0.66 0.33 1.32 0.66 2 1 C1 4 1 4 -0.84765625 4.94921875 C-1.57855469 5.19285156 -2.30945313 5.43648437 -3.0625 5.6875 C-4.16271484 6.06455078 -4.16271484 6.06455078 -5.28515625 6.44921875 C-5.85105469 6.63097656 -6.41695312 6.81273437 -7 7 C-6.68359375 5.11328125 -6.68359375 5.11328125 -6 3 C-3.0625 1.1875 -3.0625 1.1875 0 0 Z " fill="#1F1F1F" transform="translate(70,249)"/>
<path d="M0 0 C0 0.66 0 1.32 0 2 C-4.455 3.485 -4.455 3.485 -9 5 C-8.67 3.68 -8.34 2.36 -8 1 C-2.71910112 -1.35955056 -2.71910112 -1.35955056 0 0 Z " fill="#1C1C1C" transform="translate(75,257)"/>
<path d="M0 0 C1.65 0 3.3 0 5 0 C4.67 1.32 4.34 2.64 4 4 C2.68 4 1.36 4 0 4 C0 2.68 0 1.36 0 0 Z " fill="#1C1C1C" transform="translate(0,266)"/>
<path d="M0 0 C0.33 0 0.66 0 1 0 C1 2.97 1 5.94 1 9 C0.01 9 -0.98 9 -2 9 C-1.125 1.125 -1.125 1.125 0 0 Z " fill="#000000" transform="translate(602,255)"/>
</svg>
