<?xml version="1.0" encoding="UTF-8"?>
<svg version="1.1" xmlns="http://www.w3.org/2000/svg" width="800" height="300">
<path d="M0 0 C264 0 528 0 800 0 C800 99 800 198 800 300 C536 300 272 300 0 300 C0 201 0 102 0 0 Z " fill="#FEFEFE" transform="translate(0,0)"/>
<path d="M0 0 C2.8125 -0.1875 2.8125 -0.1875 6 0 C7 1 8 2 9 3 C15.47083003 5.07525149 21.41141432 5.24994212 28.16796875 5.16015625 C29.2571611 5.15463745 30.34635345 5.14911865 31.46855164 5.14343262 C33.8178252 5.13109227 36.16707948 5.11448167 38.51629639 5.09402466 C44.77770738 5.04025787 51.03917966 5.01861565 57.30078125 5 C59.23244141 4.9937838 59.23244141 4.9937838 61.203125 4.98744202 C77.41229646 4.95866797 93.61370822 5.33435472 109.81713867 5.73266602 C110.89429642 5.75735962 111.97145416 5.78205322 113.08125305 5.80749512 C115.09527242 5.85391321 117.10919602 5.90477372 119.12297058 5.96081543 C120.44631157 5.99096741 120.44631157 5.99096741 121.79638672 6.02172852 C122.56457733 6.04171402 123.33276794 6.06169952 124.12423706 6.08229065 C126.0924287 6.12361173 126.0924287 6.12361173 128 5 C131.03566911 4.76089183 134.08095166 4.81479913 137.125 4.8125 C138.37023437 4.79413086 138.37023437 4.79413086 139.640625 4.77539062 C146.3283327 4.75966717 153.1906553 5.34226445 159 9 C159.42667969 9.46148437 159.85335937 9.92296875 160.29296875 10.3984375 C162.9975484 12.93591497 166.33120593 14.35011728 169.625 16.01171875 C174.01917804 19.69039741 174.99427916 24.83672162 175.6171875 30.3671875 C175.72209306 31.86858663 175.80765993 33.37144759 175.875 34.875 C175.91254395 35.66366455 175.95008789 36.4523291 175.98876953 37.26489258 C176.27663329 46.52514559 174.29214193 54.04285919 168 61 C162.69554711 66.38085279 158.19286413 67.70523678 150.71362305 67.88330078 C149.57062744 67.88056152 148.42763184 67.87782227 147.25 67.875 C146.0535083 67.8941748 144.8570166 67.91334961 143.62426758 67.93310547 C140.0824586 67.98283335 136.54211111 67.99384427 133 68 C131.18616451 68.02360067 129.37235524 68.04939485 127.55859375 68.078125 C114.02532285 68.24209193 100.1544274 68.25064747 86.72265625 66.47265625 C78.59603524 65.44083973 70.49840803 65.91088485 62.375 66.78125 C56.14473547 67.35509015 49.86288457 66.66520367 43.63769531 66.25537109 C41.63908688 66.12591247 39.63984991 66.00628024 37.640625 65.88671875 C36.36960937 65.80292969 35.09859375 65.71914063 33.7890625 65.6328125 C32.63100098 65.55949707 31.47293945 65.48618164 30.27978516 65.41064453 C26.94747647 64.99342381 24.14301003 64.16096136 21 63 C19.865625 62.62875 18.73125 62.2575 17.5625 61.875 C10.70420537 58.84035636 6.45523899 52.07424207 3.69140625 45.35546875 C2.95117812 42.83367463 2.71897532 40.55745849 2.5625 37.9375 C2.27383191 33.27551038 0.83709453 30.65071581 -1.7890625 26.86328125 C-4.96470506 21.97688932 -6.0453083 15.71367548 -5 10 C-3.57222581 6.52259876 -1.86966857 3.25856521 0 0 Z " fill="#646464" transform="translate(429,216)"/>
<path d="M0 0 C5.64179104 5.64179104 5.64179104 5.64179104 7 10.5 C7.3196875 11.62664062 7.639375 12.75328125 7.96875 13.9140625 C8.77512027 17.02142295 9.50271082 20.14412251 10.21875 23.2734375 C10.43144531 24.19705078 10.64414063 25.12066406 10.86328125 26.07226562 C11.2794342 27.90410454 11.68361004 29.7387166 12.07421875 31.57617188 C13.29572911 37.04017629 14.63869165 41.4687663 18 46 C20.7728402 47.39446864 20.7728402 47.39446864 23.875 47.8125 C29.88367688 48.95737577 29.88367688 48.95737577 32.79899597 50.02563477 C36.15992763 51.04868095 38.78367361 51.22952325 42.28637695 51.1953125 C43.51238113 51.18870605 44.73838531 51.18209961 46.00154114 51.17529297 C47.31716537 51.15869629 48.63278961 51.14209961 49.98828125 51.125 C51.3738689 51.11616789 52.7594647 51.10854035 54.14506531 51.10205078 C59.26833551 51.07546696 64.39136117 51.02752965 69.51446533 50.97924805 C111.25323648 50.59285338 111.25323648 50.59285338 126 56 C128.71658257 56.67154684 128.71658257 56.67154684 131 56 C131.9590625 54.7934375 131.9590625 54.7934375 132.9375 53.5625 C135 51 135 51 138 50 C141 50 141 50 143.1796875 51.125 C145 53 145 53 145.3203125 55.8125 C145.25585938 56.864375 145.19140625 57.91625 145.125 59 C144.75969575 63.80540566 144.75969575 63.80540566 147 68 C147.3359375 70.12109375 147.3359375 70.12109375 147.375 72.4375 C147.40335938 73.19933594 147.43171875 73.96117187 147.4609375 74.74609375 C146.80749212 77.94133091 145.60730279 79.08363245 143 81 C134.42271479 82.19739879 126.91533104 78.96347838 119.296875 75.43359375 C112.6839279 72.5580587 106.15552702 71.68889013 99 72 C100.03837833 80.14659558 100.03837833 80.14659558 104 87 C106.01325322 87.2876076 108.03039646 87.5693432 110.05859375 87.71875 C112 88 112 88 114.5 89.5625 C116.62205027 93.01083169 116.62781268 96.11354057 116 100 C114.43564712 104.0226217 113.61276337 105.59149109 110 108 C107.22265625 108.3359375 107.22265625 108.3359375 104.0625 108.375 C103.02222656 108.40335937 101.98195313 108.43171875 100.91015625 108.4609375 C98 108 98 108 95.61328125 106.2421875 C93.74710134 103.64851373 93.69167955 102.83879705 94.125 99.75 C94.41880065 93.98771629 91.60232566 91.18896394 88 87 C85 82.5 85 82.5 85 79 C84.38253906 79.19335938 83.76507813 79.38671875 83.12890625 79.5859375 C77.45800253 81.32950303 71.80354736 82.78085203 66 84 C64.31207728 84.37309267 62.6245647 84.74804648 60.9375 85.125 C59.625 85.41666667 58.3125 85.70833333 57 86 C56.95875 86.721875 56.9175 87.44375 56.875 88.1875 C55.67456278 92.04604822 53.45742554 94.09725574 50 96 C46.4375 96.6875 46.4375 96.6875 43 96 C38.87101904 92.40958177 37.30457003 89.40860769 36.91796875 83.96484375 C37.05142432 80.76826507 37.66944673 77.33055327 40 75 C43.2116934 74.8633322 46.19106959 74.87472906 49.37109375 75.3671875 C50.61052734 75.55667969 50.61052734 75.55667969 51.875 75.75 C52.63554688 75.88921875 53.39609375 76.0284375 54.1796875 76.171875 C58.2081007 76.09141108 58.2081007 76.09141108 66 72 C46.2 72.66 26.4 73.32 6 74 C6 76.97 6 79.94 6 83 C4.81585154 87.53923577 4.00308541 87.99768594 0 91 C0 60.97 0 30.94 0 0 Z " fill="#F9F9F9" transform="translate(0,176)"/>
<path d="M0 0 C2.8125 -0.1875 2.8125 -0.1875 6 0 C7 1 8 2 9 3 C15.47083003 5.07525149 21.41141432 5.24994212 28.16796875 5.16015625 C29.2571611 5.15463745 30.34635345 5.14911865 31.46855164 5.14343262 C33.8178252 5.13109227 36.16707948 5.11448167 38.51629639 5.09402466 C44.77770738 5.04025787 51.03917966 5.01861565 57.30078125 5 C59.23244141 4.9937838 59.23244141 4.9937838 61.203125 4.98744202 C77.41229646 4.95866797 93.61370822 5.33435472 109.81713867 5.73266602 C110.89429642 5.75735962 111.97145416 5.78205322 113.08125305 5.80749512 C115.09527242 5.85391321 117.10919602 5.90477372 119.12297058 5.96081543 C120.44631157 5.99096741 120.44631157 5.99096741 121.79638672 6.02172852 C122.56457733 6.04171402 123.33276794 6.06169952 124.12423706 6.08229065 C126.0924287 6.12361173 126.0924287 6.12361173 128 5 C131.03566911 4.76089183 134.08095166 4.81479913 137.125 4.8125 C138.37023437 4.79413086 138.37023437 4.79413086 139.640625 4.77539062 C146.3283327 4.75966717 153.1906553 5.34226445 159 9 C159.42667969 9.46148437 159.85335937 9.92296875 160.29296875 10.3984375 C162.9975484 12.93591497 166.33120593 14.35011728 169.625 16.01171875 C174.01917804 19.69039741 174.99427916 24.83672162 175.6171875 30.3671875 C175.72209306 31.86858663 175.80765993 33.37144759 175.875 34.875 C175.91254395 35.66366455 175.95008789 36.4523291 175.98876953 37.26489258 C176.27663329 46.52514559 174.29214193 54.04285919 168 61 C162.69554711 66.38085279 158.19286413 67.70523678 150.71362305 67.88330078 C149.57062744 67.88056152 148.42763184 67.87782227 147.25 67.875 C146.0535083 67.8941748 144.8570166 67.91334961 143.62426758 67.93310547 C140.0824586 67.98283335 136.54211111 67.99384427 133 68 C131.18616451 68.02360067 129.37235524 68.04939485 127.55859375 68.078125 C114.02532285 68.24209193 100.1544274 68.25064747 86.72265625 66.47265625 C78.59603524 65.44083973 70.49840803 65.91088485 62.375 66.78125 C56.14473547 67.35509015 49.86288457 66.66520367 43.63769531 66.25537109 C41.63908688 66.12591247 39.63984991 66.00628024 37.640625 65.88671875 C36.36960937 65.80292969 35.09859375 65.71914063 33.7890625 65.6328125 C32.63100098 65.55949707 31.47293945 65.48618164 30.27978516 65.41064453 C26.94747647 64.99342381 24.14301003 64.16096136 21 63 C19.865625 62.62875 18.73125 62.2575 17.5625 61.875 C10.70420537 58.84035636 6.45523899 52.07424207 3.69140625 45.35546875 C2.95117812 42.83367463 2.71897532 40.55745849 2.5625 37.9375 C2.27383191 33.27551038 0.83709453 30.65071581 -1.7890625 26.86328125 C-4.96470506 21.97688932 -6.0453083 15.71367548 -5 10 C-3.57222581 6.52259876 -1.86966857 3.25856521 0 0 Z M2 3 C-1.20056327 7.39571031 -3.17210159 11.0337393 -2.6875 16.5703125 C-0.75050496 24.17301803 1.40130732 28.68547017 8 33 C8.309375 32.05125 8.61875 31.1025 8.9375 30.125 C10 27 10 27 11 25 C10.67 24.34 10.34 23.68 10 23 C12.31 23.33 14.62 23.66 17 24 C17 24.66 17 25.32 17 26 C16.401875 26.185625 15.80375 26.37125 15.1875 26.5625 C11.99950687 28.65746692 11.45644444 31.54094446 10 35 C7.8125 36.9375 7.8125 36.9375 6 38 C6.43386428 44.79720708 8.71901136 50.62717707 13.53515625 55.578125 C25.47522139 64.94952365 42.73368679 63.15052382 57 63 C56.98710937 61.8965625 56.97421875 60.793125 56.9609375 59.65625 C57 56 57 56 57.625 53.5 C58.20619921 50.81449175 58.20619921 50.81449175 57 47.5625 C55.9369034 43.77521835 56.32627014 41.78973046 57 38 C56.17657468 35.68019054 56.17657468 35.68019054 55 34 C57.92512762 36.43505389 57.92512762 36.43505389 58.2578125 38.9453125 C58.21398437 39.66460937 58.17015625 40.38390625 58.125 41.125 C57.96429211 45.84675096 58.3919686 50.32341282 59 55 C59.17893286 56.42571265 59.3572786 57.85149906 59.53515625 59.27734375 C59.68855469 60.50582031 59.84195313 61.73429687 60 63 C61.31613281 62.90460938 62.63226563 62.80921875 63.98828125 62.7109375 C80.13303317 61.64939006 80.13303317 61.64939006 87.84765625 63.453125 C102.6439952 66.02002395 120.17962869 66.37125941 135 64 C137.44251927 57.47348346 138.25867587 53.77602761 136 47 C136.9375 44.1875 136.9375 44.1875 138 42 C137.67 41.34 137.34 40.68 137 40 C136.01 40 135.02 40 134 40 C134 39.01 134 38.02 134 37 C135.9375 37.625 135.9375 37.625 138 39 C139.0723094 42.79432556 138.93231135 45.27075458 138 49 C138.165 49.886875 138.33 50.77375 138.5 51.6875 C139.14190299 55.94010731 138.61116813 59.76883603 138 64 C142.67661056 64.08468711 147.17531996 64.1216741 151.8125 63.4375 C155 63 155 63 157.5 63.8125 C160.60164164 64.04512312 161.18668047 63.41175287 163.5625 61.5 C166.91032743 58.34098713 169.11705826 55.18047615 171 51 C171.32226562 50.35546875 171.64453125 49.7109375 171.9765625 49.046875 C175.54148085 40.6770667 173.41424912 31.35760137 170.5625 23 C167.88947491 17.47850029 162.37709586 15.36406801 157 13 C155.91599105 18.7175801 155.91599105 18.7175801 157.25 24.25 C158.42159507 30.10797537 155.88541581 34.90217422 153 40 C152.01 40.66 151.02 41.32 150 42 C150.52851562 41.04738281 151.05703125 40.09476562 151.6015625 39.11328125 C152.27698801 37.84685843 152.95141527 36.57990285 153.625 35.3125 C153.975625 34.68666016 154.32625 34.06082031 154.6875 33.41601562 C156.32195389 30.29420869 157.16831634 28.6373228 156.25 25.16015625 C155.63125 24.09087891 155.63125 24.09087891 155 23 C154.07556986 20.22670957 154.0267192 18.50124151 154.1875 15.5 C154.2816013 12.06955642 154.2816013 12.06955642 152.65625 9.80078125 C148.45579586 6.95312043 144.2592073 7.53860246 139.3125 7.6875 C138.33732422 7.69716797 137.36214844 7.70683594 136.35742188 7.71679688 C131.83867632 7.38617701 131.83867632 7.38617701 128 9 C125.98035801 9.07244053 123.95832876 9.08377188 121.9375 9.0625 C120.83277344 9.05347656 119.72804688 9.04445312 118.58984375 9.03515625 C117.73519531 9.02355469 116.88054687 9.01195312 116 9 C116.01160156 9.61746094 116.02320313 10.23492187 116.03515625 10.87109375 C116.08894661 15.91970297 115.92444046 20.82368002 115.27734375 25.83203125 C115.0915947 27.28401325 114.9381839 28.74047797 114.81640625 30.19921875 C114.44335142 34.31804865 113.90156943 36.97227538 111 40 C111 37.59411466 111.70979414 35.99839035 112.5625 33.75 C113.96505902 29.6916695 113.84584573 27.22922865 113 23 C113.350625 22.01 113.70125 21.02 114.0625 20 C115.41997215 15.65608912 113.96348052 12.92696104 112 9 C104.74 9 97.48 9 90 9 C88.53691078 15.88512576 87.86947155 21.09121505 89 28 C88.67 28.66 88.34 29.32 88 30 C87.34 29.67 86.68 29.34 86 29 C86.495 28.505 86.495 28.505 87 28 C87.13961241 24.92852697 87.04131994 22.20659968 86.4375 19.1875 C86.293125 18.465625 86.14875 17.74375 86 17 C86.33 16.67 86.66 16.34 87 16 C87.04063832 14.33382885 87.042721 12.66611905 87 11 C86.34 11 85.68 11 85 11 C84.505 9.515 84.505 9.515 84 8 C78.21590487 7.97529951 72.43184038 7.95713977 66.64770508 7.94506836 C64.67960068 7.9400365 62.71150003 7.93321042 60.7434082 7.92456055 C57.91616899 7.91244483 55.08897916 7.90676024 52.26171875 7.90234375 C50.93970711 7.89460182 50.93970711 7.89460182 49.59098816 7.88670349 C48.3600518 7.88659019 48.3600518 7.88659019 47.10424805 7.88647461 C46.38254929 7.884254 45.66085052 7.88203339 44.9172821 7.87974548 C42.77773199 7.93174401 42.77773199 7.93174401 40 9 C39.19078631 11.69737896 38.54117383 14.25209793 38 17 C37.7215625 18.2065625 37.7215625 18.2065625 37.4375 19.4375 C36.97731213 21.91344677 36.97731213 21.91344677 36.82421875 24.09375 C36.40332248 29.04547086 35.57856056 32.62765819 33 37 C32.01 37 31.02 37 30 37 C30.639375 36.29875 31.27875 35.5975 31.9375 34.875 C34.20191565 31.71854182 34.59487586 29.80816696 35 26 C35.20625 25.319375 35.4125 24.63875 35.625 23.9375 C36.15393796 21.88232882 36.15393796 21.88232882 35.4375 19.375 C35.293125 18.59125 35.14875 17.8075 35 17 C35.66 16.34 36.32 15.68 37 15 C36.67801034 11.90073181 36.67801034 11.90073181 36 9 C34.51113281 8.94392578 34.51113281 8.94392578 32.9921875 8.88671875 C10.69180146 7.87331587 10.69180146 7.87331587 2 3 Z " fill="#101010" transform="translate(429,216)"/>
<path d="M0 0 C7.3073754 5.48053155 8.2874704 14.83314212 10.21875 23.2734375 C10.43144531 24.19705078 10.64414063 25.12066406 10.86328125 26.07226562 C11.2794342 27.90410454 11.68361004 29.7387166 12.07421875 31.57617188 C13.29572911 37.04017629 14.63869165 41.4687663 18 46 C20.7728402 47.39446864 20.7728402 47.39446864 23.875 47.8125 C29.88367688 48.95737577 29.88367688 48.95737577 32.79899597 50.02563477 C36.15992763 51.04868095 38.78367361 51.22952325 42.28637695 51.1953125 C43.51238113 51.18870605 44.73838531 51.18209961 46.00154114 51.17529297 C47.31716537 51.15869629 48.63278961 51.14209961 49.98828125 51.125 C51.3738689 51.11616789 52.7594647 51.10854035 54.14506531 51.10205078 C59.26833551 51.07546696 64.39136117 51.02752965 69.51446533 50.97924805 C111.25323648 50.59285338 111.25323648 50.59285338 126 56 C128.71658257 56.67154684 128.71658257 56.67154684 131 56 C131.9590625 54.7934375 131.9590625 54.7934375 132.9375 53.5625 C135 51 135 51 138 50 C141 50 141 50 143.1796875 51.125 C145 53 145 53 145.3203125 55.8125 C145.25585938 56.864375 145.19140625 57.91625 145.125 59 C144.75969575 63.80540566 144.75969575 63.80540566 147 68 C147.3359375 70.12109375 147.3359375 70.12109375 147.375 72.4375 C147.40335938 73.19933594 147.43171875 73.96117187 147.4609375 74.74609375 C146.80749212 77.94133091 145.60730279 79.08363245 143 81 C134.42271479 82.19739879 126.91533104 78.96347838 119.296875 75.43359375 C112.6839279 72.5580587 106.15552702 71.68889013 99 72 C100.03837833 80.14659558 100.03837833 80.14659558 104 87 C106.01325322 87.2876076 108.03039646 87.5693432 110.05859375 87.71875 C112 88 112 88 114.5 89.5625 C116.62205027 93.01083169 116.62781268 96.11354057 116 100 C114.43564712 104.0226217 113.61276337 105.59149109 110 108 C107.22265625 108.3359375 107.22265625 108.3359375 104.0625 108.375 C103.02222656 108.40335937 101.98195313 108.43171875 100.91015625 108.4609375 C98 108 98 108 95.61328125 106.2421875 C93.74710134 103.64851373 93.69167955 102.83879705 94.125 99.75 C94.41880065 93.98771629 91.60232566 91.18896394 88 87 C85 82.5 85 82.5 85 79 C84.38253906 79.19335938 83.76507813 79.38671875 83.12890625 79.5859375 C77.45800253 81.32950303 71.80354736 82.78085203 66 84 C64.31207728 84.37309267 62.6245647 84.74804648 60.9375 85.125 C59.625 85.41666667 58.3125 85.70833333 57 86 C56.95875 86.721875 56.9175 87.44375 56.875 88.1875 C55.67456278 92.04604822 53.45742554 94.09725574 50 96 C46.4375 96.6875 46.4375 96.6875 43 96 C38.87101904 92.40958177 37.30457003 89.40860769 36.91796875 83.96484375 C37.05142432 80.76826507 37.66944673 77.33055327 40 75 C43.2116934 74.8633322 46.19106959 74.87472906 49.37109375 75.3671875 C50.61052734 75.55667969 50.61052734 75.55667969 51.875 75.75 C52.63554688 75.88921875 53.39609375 76.0284375 54.1796875 76.171875 C58.2081007 76.09141108 58.2081007 76.09141108 66 72 C46.2 72.66 26.4 73.32 6 74 C6 76.97 6 79.94 6 83 C4.81585154 87.53923577 4.00308541 87.99768594 0 91 C0 84.07 0 77.14 0 70 C28.34070421 69.21818747 56.64869295 68.85821074 85 69 C85.33 69.99 85.66 70.98 86 72 C85.030625 72.06316406 84.06125 72.12632812 83.0625 72.19140625 C74.29338809 72.93614084 67.12529098 74.74346215 59.23046875 78.69946289 C54.46925826 81.04523895 54.46925826 81.04523895 51.609375 80.76953125 C50 80 50 80 49 79 C46.32941149 78.85884839 43.67567762 78.95752893 41 79 C39.8899384 83.66225873 40.0546671 86.5974045 42 91 C44.7459726 92.3729863 46.9589047 92.12412634 50 92 C50.99 91.67 51.98 91.34 53 91 C53.33 88.69 53.66 86.38 54 84 C54.87011719 83.71125 55.74023438 83.4225 56.63671875 83.125 C58.72586629 82.42619107 60.81236543 81.71934474 62.89453125 81 C68.21356365 79.17714552 73.43573733 77.53621916 78.96484375 76.4921875 C81.42273742 75.89776408 83.67220504 74.97969805 86 74 C86.20753906 74.60585937 86.41507812 75.21171875 86.62890625 75.8359375 C88.83995482 81.84924951 91.63428295 86.67548123 95.51171875 91.7734375 C97.65167615 94.97494857 98.16596977 96.95676143 97.5625 100.75 C97.376875 101.4925 97.19125 102.235 97 103 C99.88415883 104.44207941 102.41721528 104.09394887 105.625 104.0625 C107.40777344 104.04896484 107.40777344 104.04896484 109.2265625 104.03515625 C110.59941406 104.01775391 110.59941406 104.01775391 112 104 C112.22162329 102.37675914 112.42689803 100.751279 112.625 99.125 C112.79902344 97.76761719 112.79902344 97.76761719 112.9765625 96.3828125 C112.98429687 95.59648437 112.99203125 94.81015625 113 94 C110.63288209 91.63288209 109.89980191 91.77762608 106.6875 91.4375 C103.70599663 90.83158157 102.35691711 90.3945735 100.296875 88.1171875 C97.45608907 83.30091251 96.41012606 79.54481502 97 74 C96.34 74 95.68 74 95 74 C95.33 72.35 95.66 70.7 96 69 C107.15142052 68.71447287 115.65682257 69.33802866 125.7421875 74.046875 C131.68325925 76.55487069 137.6062109 77.27207613 144 77 C144 74.36 144 71.72 144 69 C142.35 68.34 140.7 67.68 139 67 C139.54723683 63.62537285 140.0549 61.91765 142 59 C141.6878236 56.35367713 141.6878236 56.35367713 141 54 C138.59122743 54.11341534 138.59122743 54.11341534 136 55 C135.54625 55.845625 135.0925 56.69125 134.625 57.5625 C134.08875 58.366875 133.5525 59.17125 133 60 C128.1427225 60.76192588 124.60711223 59.64721427 120.20275879 57.83335876 C113.60677471 55.33793295 107.08941002 54.71666521 100.09375 54.83984375 C98.84766968 54.84839386 98.84766968 54.84839386 97.57641602 54.8571167 C95.80196829 54.86968069 94.02754596 54.88643192 92.25317383 54.90707397 C87.5647336 54.95888712 82.87618153 54.97044867 78.1875 54.984375 C76.77277405 54.98935249 76.77277405 54.98935249 75.32946777 54.99443054 C67.08235737 55.01632655 58.84053128 54.94756466 50.59594727 54.73855591 C49.21764517 54.70498137 47.83921036 54.67641498 46.46069336 54.65328979 C39.28107746 54.52846832 32.82883846 54.07725619 26.01953125 51.69921875 C22.75114641 50.56761162 19.45372521 50 16 50 C10.51274393 41.40141317 8.61181666 32.74915544 6.91333008 22.80664062 C5.79534342 16.61719267 4.13364079 11.63711001 1.00805664 6.16064453 C0 4 0 4 0 0 Z " fill="#090909" transform="translate(0,176)"/>
<path d="M0 0 C0.495 1.485 0.495 1.485 1 3 C0.030625 3.06316406 -0.93875 3.12632812 -1.9375 3.19140625 C-10.70661191 3.93614084 -17.87470902 5.74346215 -25.76953125 9.69946289 C-30.53074174 12.04523895 -30.53074174 12.04523895 -33.390625 11.76953125 C-35 11 -35 11 -36 10 C-38.67058851 9.85884839 -41.32432238 9.95752893 -44 10 C-45.1100616 14.66225873 -44.9453329 17.5974045 -43 22 C-40.2540274 23.3729863 -38.0410953 23.12412634 -35 23 C-34.01 22.67 -33.02 22.34 -32 22 C-31.67 19.69 -31.34 17.38 -31 15 C-30.13375 14.71382813 -29.2675 14.42765625 -28.375 14.1328125 C-26.24354353 13.41739308 -24.11758424 12.6851798 -22 11.9296875 C-20.515 11.40761719 -20.515 11.40761719 -19 10.875 C-18.01 10.52179688 -17.02 10.16859375 -16 9.8046875 C-12.86950797 8.96499823 -10.22549825 8.85600454 -7 9 C-7.33 9.99 -7.66 10.98 -8 12 C-10.1875 12.87890625 -10.1875 12.87890625 -13 13.5625 C-13.98613281 13.80742187 -14.97226563 14.05234375 -15.98828125 14.3046875 C-16.98214844 14.53414063 -17.97601563 14.76359375 -19 15 C-19.90105469 15.20882813 -20.80210938 15.41765625 -21.73046875 15.6328125 C-23.81691785 16.10383917 -25.90802236 16.5541687 -28 17 C-28.04125 17.721875 -28.0825 18.44375 -28.125 19.1875 C-29.32543722 23.04604822 -31.54257446 25.09725574 -35 27 C-38.5625 27.6875 -38.5625 27.6875 -42 27 C-46.12898096 23.40958177 -47.69542997 20.40860769 -48.08203125 14.96484375 C-47.94857568 11.76826507 -47.33055327 8.33055327 -45 6 C-41.7883066 5.8633322 -38.80893041 5.87472906 -35.62890625 6.3671875 C-34.80261719 6.49351562 -33.97632813 6.61984375 -33.125 6.75 C-31.98417969 6.95882812 -31.98417969 6.95882812 -30.8203125 7.171875 C-26.7918993 7.09141108 -26.7918993 7.09141108 -19 3 C-38.8 3.66 -58.6 4.32 -79 5 C-79 7.97 -79 10.94 -79 14 C-80.18414846 18.53923577 -80.99691459 18.99768594 -85 22 C-85 15.07 -85 8.14 -85 1 C-56.65929579 0.21818747 -28.35130705 -0.14178926 0 0 Z " fill="#0C0C0C" transform="translate(85,245)"/>
<path d="M0 0 C14.19 0 28.38 0 43 0 C43 0.99 43 1.98 43 3 C30.79 3.33 18.58 3.66 6 4 C6 6.97 6 9.94 6 13 C4.81585154 17.53923577 4.00308541 17.99768594 0 21 C0 14.07 0 7.14 0 0 Z " fill="#121212" transform="translate(0,246)"/>
<path d="M0 0 C0.33 0.99 0.66 1.98 1 3 C1.66 3 2.32 3 3 3 C3.21914063 3.95261719 3.43828125 4.90523437 3.6640625 5.88671875 C5.38891549 13.98459627 5.38891549 13.98459627 10.25 20.375 C11.1575 20.91125 12.065 21.4475 13 22 C13.144375 21.2575 13.28875 20.515 13.4375 19.75 C13.90187492 17.47972261 14.41863569 15.24240521 15 13 C17.31 13.33 19.62 13.66 22 14 C22 14.66 22 15.32 22 16 C21.38125 16.4125 20.7625 16.825 20.125 17.25 C17.36840385 19.52013801 17.04983163 21.64053879 16 25 C14.5 26.875 14.5 26.875 13 28 C12.34 28 11.68 28 11 28 C10.01 30.475 10.01 30.475 9 33 C8.67 33 8.34 33 8 33 C7.98582031 32.3709375 7.97164063 31.741875 7.95703125 31.09375 C7.63073728 25.23809599 6.53814961 21.66177502 3.2109375 16.86328125 C-0.21664757 11.58922294 -0.21195647 6.04075942 0 0 Z " fill="#131313" transform="translate(424,226)"/>
<path d="M0 0 C0.33 0 0.66 0 1 0 C1.50588674 8.09418785 -0.88682972 14.6430856 -6 21 C-9.37910814 24.64092766 -12.09547378 26.90897485 -17.1875 27.15234375 C-20.16546891 26.90300909 -23.06154998 26.53871584 -26 26 C-25 24 -25 24 -22.25 22.8125 C-19 22 -19 22 -16.5 22.6875 C-13.74666541 23.30521575 -13.74666541 23.30521575 -10.9375 21 C-5.5370475 15.94573035 -3.49663324 10.00430842 -1.61328125 3.0390625 C-1 1 -1 1 0 0 Z " fill="#060606" transform="translate(603,256)"/>
<path d="M0 0 C-1.57580002 3.15160003 -4.24356244 3.88962537 -7.39453125 5.2421875 C-11.74463405 6.50743479 -15.61217625 5.79384969 -20 5 C-21.37445667 4.80855782 -22.74939966 4.62054359 -24.125 4.4375 C-25.07375 4.293125 -26.0225 4.14875 -27 4 C-26.015625 2.54296875 -26.015625 2.54296875 -24 1 C-21.18686612 0.61771728 -18.57177583 0.3969121 -15.75 0.3125 C-15.01136719 0.27833984 -14.27273437 0.24417969 -13.51171875 0.20898438 C-9.00584992 0.01428634 -4.50952881 -0.02982493 0 0 Z " fill="#D4D4D4" transform="translate(67,247)"/>
<path d="M0 0 C0.66 0.66 1.32 1.32 2 2 C1.67 2.680625 1.34 3.36125 1 4.0625 C-0.18453566 6.99578446 -0.18453566 6.99578446 0.0625 10.25 C-0.02360065 15.41603921 -1.03554646 20.83957907 -4.60546875 24.765625 C-5.06566406 25.17296875 -5.52585937 25.5803125 -6 26 C-6.99 25.67 -7.98 25.34 -9 25 C-8.360625 24.13375 -7.72125 23.2675 -7.0625 22.375 C-4.99019986 18.98396341 -4.42247465 16.88676677 -4 13 C-3.79375 12.319375 -3.5875 11.63875 -3.375 10.9375 C-2.83067246 8.89287506 -2.83067246 8.89287506 -3.6875 6.5 C-3.790625 5.675 -3.89375 4.85 -4 4 C-2.0625 1.6875 -2.0625 1.6875 0 0 Z " fill="#000000" transform="translate(467,229)"/>
<path d="M0 0 C2.60427663 2.60427663 2.50528695 4.39566205 3 8 C3.32871094 9.1446875 3.32871094 9.1446875 3.6640625 10.3125 C4.10572171 13.84577369 3.19396203 15.92627731 1.8125 19.1875 C1.38582031 20.23292969 0.95914063 21.27835938 0.51953125 22.35546875 C-1.09002716 25.15667966 -2.00308155 25.95396637 -5 27 C-4.00734643 24.46170776 -2.98445893 21.96695587 -1.82421875 19.5 C-0.69196301 17.00981554 0.30720879 14.64839171 1 12 C-0.20968895 9.2332494 -0.20968895 9.2332494 -2 7 C-1.58333333 1.58333333 -1.58333333 1.58333333 0 0 Z " fill="#000000" transform="translate(584,231)"/>
<path d="M0 0 C2 2 2 2 2.01171875 4.3203125 C1.90472656 5.24585938 1.79773438 6.17140625 1.6875 7.125 C1.51927734 8.60226563 1.51927734 8.60226563 1.34765625 10.109375 C1.23292969 11.06328125 1.11820313 12.0171875 1 13 C0.93683594 13.76828125 0.87367188 14.5365625 0.80859375 15.328125 C0.42512106 19.6034375 -0.49052942 22.50856266 -3 26 C-3.99 25.34 -4.98 24.68 -6 24 C-5.34 23.34 -4.68 22.68 -4 22 C-3.27982196 19.71171706 -3.27982196 19.71171706 -2.8125 17.125 C-2.63332031 16.26132813 -2.45414063 15.39765625 -2.26953125 14.5078125 C-1.85548873 12.05460461 -1.85548873 12.05460461 -2.5390625 9.9453125 C-3.13919757 7.41253908 -2.55294951 6.12707883 -1.5625 3.75 C-1.27503906 3.04359375 -0.98757813 2.3371875 -0.69140625 1.609375 C-0.34916016 0.81273437 -0.34916016 0.81273437 0 0 Z " fill="#000000" transform="translate(544,231)"/>
<path d="M0 0 C-0.33 0.99 -0.66 1.98 -1 3 C-3.2578125 3.87890625 -3.2578125 3.87890625 -6.125 4.5625 C-7.11371094 4.80742187 -8.10242188 5.05234375 -9.12109375 5.3046875 C-10.07113281 5.53414063 -11.02117187 5.76359375 -12 6 C-13.39825062 6.38720786 -14.79462914 6.78136517 -16.1875 7.1875 C-17.115625 7.455625 -18.04375 7.72375 -19 8 C-18.85546875 6.140625 -18.85546875 6.140625 -18 4 C-15.48828125 2.734375 -15.48828125 2.734375 -12.3125 1.75 C-11.27738281 1.41484375 -10.24226563 1.0796875 -9.17578125 0.734375 C-5.99908308 -0.00021203 -3.24736123 -0.13632101 0 0 Z " fill="#242424" transform="translate(78,254)"/>
<path d="M0 0 C1.875 0.1875 1.875 0.1875 4 1 C6.38879811 4.98133018 5.79447983 7.58622317 5 12 C5.2644354 14.34214207 5.58244638 16.68025766 6 19 C5.01 18.67 4.02 18.34 3 18 C0.62790698 11.22259136 0.62790698 11.22259136 1.875 7.125 C2.24625 6.42375 2.6175 5.7225 3 5 C3 4.34 3 3.68 3 3 C2.01 3 1.02 3 0 3 C0 2.01 0 1.02 0 0 Z " fill="#000000" transform="translate(563,253)"/>
<path d="M0 0 C5.61 0 11.22 0 17 0 C16.67 0.99 16.34 1.98 16 3 C10.39 3 4.78 3 -1 3 C-0.67 2.01 -0.34 1.02 0 0 Z " fill="#1E1E1E" transform="translate(43,245)"/>
<path d="M0 0 C0.99 0.33 1.98 0.66 3 1 C4.00344253 7.30735307 4.50873071 13.63440427 5 20 C4.01 19.67 3.02 19.34 2 19 C-0.08254633 13.95301272 -0.10550722 9.28186783 1 4 C0.6422386 1.72349255 0.6422386 1.72349255 0 0 Z " fill="#000000" transform="translate(484,250)"/>
<path d="M0 0 C0.66 0.33 1.32 0.66 2 1 C1.814375 1.66 1.62875 2.32 1.4375 3 C1.03842212 5.73653403 1.13760553 7.4471767 1.5625 10.125 C2 14 2 14 0 17 C-0.99 16.67 -1.98 16.34 -3 16 C-2.67 15.34 -2.34 14.68 -2 14 C-1.86270799 10.91092972 -1.91919487 8.31587458 -2.6875 5.3125 C-2.790625 4.549375 -2.89375 3.78625 -3 3 C-1.5625 1.1875 -1.5625 1.1875 0 0 Z " fill="#000000" transform="translate(517,230)"/>
<path d="M0 0 C1.32 0.99 2.64 1.98 4 3 C4.27734375 5.19140625 4.27734375 5.19140625 3.9375 7.5625 C3.84339844 8.34753906 3.74929688 9.13257813 3.65234375 9.94140625 C3 12 3 12 0 14 C0 9.38 0 4.76 0 0 Z " fill="#E7E7E7" transform="translate(0,249)"/>
<path d="M0 0 C1.58246707 -0.08153933 3.16616273 -0.13943557 4.75 -0.1875 C6.07257813 -0.23970703 6.07257813 -0.23970703 7.421875 -0.29296875 C10 0 10 0 14 3 C9.38 3 4.76 3 0 3 C0 2.01 0 1.02 0 0 Z " fill="#272727" transform="translate(85,227)"/>
<path d="M0 0 C0.66 0.33 1.32 0.66 2 1 C1 4 1 4 -0.84765625 4.94921875 C-1.57855469 5.19285156 -2.30945312 5.43648437 -3.0625 5.6875 C-4.16271484 6.06455078 -4.16271484 6.06455078 -5.28515625 6.44921875 C-5.85105469 6.63097656 -6.41695312 6.81273437 -7 7 C-6.68359375 5.11328125 -6.68359375 5.11328125 -6 3 C-3.0625 1.1875 -3.0625 1.1875 0 0 Z " fill="#1D1D1D" transform="translate(63,249)"/>
<path d="M0 0 C0.33 0 0.66 0 1 0 C1.33 5.94 1.66 11.88 2 18 C-0.49059397 13.01881207 -1.2136995 10.24901803 -0.5625 4.75 C-0.46066406 3.85796875 -0.35882812 2.9659375 -0.25390625 2.046875 C-0.17011719 1.37140625 -0.08632813 0.6959375 0 0 Z " fill="#242424" transform="translate(603,242)"/>
<path d="M0 0 C0.33 0 0.66 0 1 0 C1.3125 2.25 1.3125 2.25 1 5 C-1.5 7.3125 -1.5 7.3125 -4 9 C-3.47181039 5.19703482 -2.56226812 2.88255163 0 0 Z " fill="#090909" transform="translate(4,258)"/>
<path d="M0 0 C1.98 0 3.96 0 6 0 C5.67 0.99 5.34 1.98 5 3 C3.02 3 1.04 3 -1 3 C-0.67 2.01 -0.34 1.02 0 0 Z " fill="#1B1B1B" transform="translate(72,254)"/>
</svg>
