<?xml version="1.0" encoding="UTF-8"?>
<svg version="1.1" xmlns="http://www.w3.org/2000/svg" width="800" height="300">
<path d="M0 0 C264 0 528 0 800 0 C800 99 800 198 800 300 C536 300 272 300 0 300 C0 201 0 102 0 0 Z " fill="#FEFEFE" transform="translate(0,0)"/>
<path d="M0 0 C2.8125 -0.1875 2.8125 -0.1875 6 0 C7 1 8 2 9 3 C15.47083003 5.07525149 21.41141432 5.24994212 28.16796875 5.16015625 C29.2571611 5.15463745 30.34635345 5.14911865 31.46855164 5.14343262 C33.8178252 5.13109227 36.16707948 5.11448167 38.51629639 5.09402466 C44.77770738 5.04025787 51.03917966 5.01861565 57.30078125 5 C59.23244141 4.9937838 59.23244141 4.9937838 61.203125 4.98744202 C77.41229646 4.95866797 93.61370822 5.33435472 109.81713867 5.73266602 C110.89429642 5.75735962 111.97145416 5.78205322 113.08125305 5.80749512 C115.09527242 5.85391321 117.10919602 5.90477372 119.12297058 5.96081543 C120.44631157 5.99096741 120.44631157 5.99096741 121.79638672 6.02172852 C122.56457733 6.04171402 123.33276794 6.06169952 124.12423706 6.08229065 C126.0924287 6.12361173 126.0924287 6.12361173 128 5 C131.03566911 4.76089183 134.08095166 4.81479913 137.125 4.8125 C138.37023437 4.79413086 138.37023437 4.79413086 139.640625 4.77539062 C146.3283327 4.75966717 153.1906553 5.34226445 159 9 C159.42667969 9.46148437 159.85335937 9.92296875 160.29296875 10.3984375 C162.9975484 12.93591497 166.33120593 14.35011728 169.625 16.01171875 C174.01917804 19.69039741 174.99427916 24.83672162 175.6171875 30.3671875 C175.72209306 31.86858663 175.80765993 33.37144759 175.875 34.875 C175.91254395 35.66366455 175.95008789 36.4523291 175.98876953 37.26489258 C176.27663329 46.52514559 174.29214193 54.04285919 168 61 C162.69554711 66.38085279 158.19286413 67.70523678 150.71362305 67.88330078 C149.57062744 67.88056152 148.42763184 67.87782227 147.25 67.875 C146.0535083 67.8941748 144.8570166 67.91334961 143.62426758 67.93310547 C140.0824586 67.98283335 136.54211111 67.99384427 133 68 C131.18616451 68.02360067 129.37235524 68.04939485 127.55859375 68.078125 C114.02532285 68.24209193 100.1544274 68.25064747 86.72265625 66.47265625 C78.59603524 65.44083973 70.49840803 65.91088485 62.375 66.78125 C56.14473547 67.35509015 49.86288457 66.66520367 43.63769531 66.25537109 C41.63908688 66.12591247 39.63984991 66.00628024 37.640625 65.88671875 C36.36960937 65.80292969 35.09859375 65.71914063 33.7890625 65.6328125 C32.63100098 65.55949707 31.47293945 65.48618164 30.27978516 65.41064453 C26.94747647 64.99342381 24.14301003 64.16096136 21 63 C19.865625 62.62875 18.73125 62.2575 17.5625 61.875 C10.70420537 58.84035636 6.45523899 52.07424207 3.69140625 45.35546875 C2.95117812 42.83367463 2.71897532 40.55745849 2.5625 37.9375 C2.27383191 33.27551038 0.83709453 30.65071581 -1.7890625 26.86328125 C-4.96470506 21.97688932 -6.0453083 15.71367548 -5 10 C-3.57222581 6.52259876 -1.86966857 3.25856521 0 0 Z " fill="#646464" transform="translate(429,216)"/>
<path d="M0 0 C2.69282475 4.03923713 3.13300939 6.95536152 3.0625 11.75 C3.05347656 12.54921875 3.04445312 13.3484375 3.03515625 14.171875 C3.01775391 15.07679688 3.01775391 15.07679688 3 16 C3.66 16 4.32 16 5 16 C5.03738281 16.59167969 5.07476563 17.18335938 5.11328125 17.79296875 C5.52093883 22.69285299 6.19397011 25.85195582 9 30 C9 30.99 9 31.98 9 33 C9.66 33 10.32 33 11 33 C11 33.99 11 34.98 11 36 C13.05078125 36.16276042 15.1015625 36.32552083 17.15234375 36.48828125 C20 37 20 37 21.69985962 37.7008667 C28.48209545 40.47906235 35.15785658 40.33795863 42.3651104 40.19492912 C44.60978352 40.15134993 46.85387434 40.12849679 49.09889221 40.11073303 C55.47609046 40.05623094 61.85260942 39.96221153 68.22924805 39.86303711 C72.90144117 39.79306702 77.57345832 39.74282883 82.24609375 39.71484375 C82.99563702 39.71025524 83.74518028 39.70566673 84.51743698 39.70093918 C95.73413558 39.665883 106.26975843 40.51488929 117 44 C117 44.66 117 45.32 117 46 C119.64 46 122.28 46 125 46 C125.2475 45.21625 125.495 44.4325 125.75 43.625 C127 41 127 41 128.8125 39.625 C131.58655849 38.83241186 133.26560485 39.1365068 136 40 C138 42 138 42 138.08984375 44.71484375 C137.98839819 46.86080745 137.88423764 49.00664454 137.77734375 51.15234375 C138.03594269 54.45968807 138.62814644 54.88292354 141 57 C141.60972411 61.72536184 141.61207942 63.8891892 139.3125 68.0625 C133.90356495 71.22621673 128.97777388 70.30682936 123 69 C119.34567535 67.6316057 115.83991903 66.07521828 112.30078125 64.43359375 C106.06756435 61.72638594 99.79115937 60.64257056 93 61 C93.4452885 66.27315333 94.08373163 71.01770224 96 76 C96.59167969 76.01417969 97.18335937 76.02835937 97.79296875 76.04296875 C102.09944984 76.30290317 104.47515126 76.62510804 108.0625 79.1875 C110.39232918 82.5695101 110.65743278 83.97322425 110 88 C108.35989542 92.18226667 106.8623603 94.69590231 103 97 C100.125 97.43359375 100.125 97.43359375 97 97.4375 C95.96875 97.45683594 94.9375 97.47617187 93.875 97.49609375 C90.30482364 96.8800443 89.10662099 95.91568558 87 93 C86.8203125 90.921875 86.8203125 90.921875 87.125 88.75 C87.41880065 82.98771629 84.60232566 80.18896394 81 76 C78 71.5 78 71.5 78 68 C77.195625 68.28875 76.39125 68.5775 75.5625 68.875 C72.95612496 69.6980658 70.53448319 70.33244605 67.875 70.875 C64.07709833 71.70821312 60.34901406 72.69259722 56.625 73.8125 C55.12839844 74.25529297 55.12839844 74.25529297 53.6015625 74.70703125 C50.40569859 76.29536602 49.60706003 77.87353776 48 81 C45.14630258 83.93296679 43.55516717 84.90086301 39.5 85.625 C35.71004733 84.94822274 34.18493094 83.98320369 31.94140625 80.84375 C29.65365476 76.36317447 29.65276618 72.36413286 30.875 67.5625 C32 65 32 65 33 64 C34.47648876 63.90176004 35.95775417 63.87026481 37.4375 63.875 C38.64212891 63.87113281 38.64212891 63.87113281 39.87109375 63.8671875 C42 64 42 64 44 65 C49.37093842 65.48826713 50.74006214 64.62996893 56 62 C37.52 62 19.04 62 0 62 C0 41.54 0 21.08 0 0 Z " fill="#FAFAFA" transform="translate(0,187)"/>
<path d="M0 0 C2.8125 -0.1875 2.8125 -0.1875 6 0 C7 1 8 2 9 3 C15.47083003 5.07525149 21.41141432 5.24994212 28.16796875 5.16015625 C29.2571611 5.15463745 30.34635345 5.14911865 31.46855164 5.14343262 C33.8178252 5.13109227 36.16707948 5.11448167 38.51629639 5.09402466 C44.77770738 5.04025787 51.03917966 5.01861565 57.30078125 5 C59.23244141 4.9937838 59.23244141 4.9937838 61.203125 4.98744202 C77.41229646 4.95866797 93.61370822 5.33435472 109.81713867 5.73266602 C110.89429642 5.75735962 111.97145416 5.78205322 113.08125305 5.80749512 C115.09527242 5.85391321 117.10919602 5.90477372 119.12297058 5.96081543 C120.44631157 5.99096741 120.44631157 5.99096741 121.79638672 6.02172852 C122.56457733 6.04171402 123.33276794 6.06169952 124.12423706 6.08229065 C126.0924287 6.12361173 126.0924287 6.12361173 128 5 C131.03566911 4.76089183 134.08095166 4.81479913 137.125 4.8125 C138.37023437 4.79413086 138.37023437 4.79413086 139.640625 4.77539062 C146.3283327 4.75966717 153.1906553 5.34226445 159 9 C159.42667969 9.46148437 159.85335937 9.92296875 160.29296875 10.3984375 C162.9975484 12.93591497 166.33120593 14.35011728 169.625 16.01171875 C174.01917804 19.69039741 174.99427916 24.83672162 175.6171875 30.3671875 C175.72209306 31.86858663 175.80765993 33.37144759 175.875 34.875 C175.91254395 35.66366455 175.95008789 36.4523291 175.98876953 37.26489258 C176.27663329 46.52514559 174.29214193 54.04285919 168 61 C162.69554711 66.38085279 158.19286413 67.70523678 150.71362305 67.88330078 C149.57062744 67.88056152 148.42763184 67.87782227 147.25 67.875 C146.0535083 67.8941748 144.8570166 67.91334961 143.62426758 67.93310547 C140.0824586 67.98283335 136.54211111 67.99384427 133 68 C131.18616451 68.02360067 129.37235524 68.04939485 127.55859375 68.078125 C114.02532285 68.24209193 100.1544274 68.25064747 86.72265625 66.47265625 C78.59603524 65.44083973 70.49840803 65.91088485 62.375 66.78125 C56.14473547 67.35509015 49.86288457 66.66520367 43.63769531 66.25537109 C41.63908688 66.12591247 39.63984991 66.00628024 37.640625 65.88671875 C36.36960937 65.80292969 35.09859375 65.71914063 33.7890625 65.6328125 C32.63100098 65.55949707 31.47293945 65.48618164 30.27978516 65.41064453 C26.94747647 64.99342381 24.14301003 64.16096136 21 63 C19.865625 62.62875 18.73125 62.2575 17.5625 61.875 C10.70420537 58.84035636 6.45523899 52.07424207 3.69140625 45.35546875 C2.95117812 42.83367463 2.71897532 40.55745849 2.5625 37.9375 C2.27383191 33.27551038 0.83709453 30.65071581 -1.7890625 26.86328125 C-4.96470506 21.97688932 -6.0453083 15.71367548 -5 10 C-3.57222581 6.52259876 -1.86966857 3.25856521 0 0 Z M2 3 C-1.20056327 7.39571031 -3.17210159 11.0337393 -2.6875 16.5703125 C-0.75050496 24.17301803 1.40130732 28.68547017 8 33 C8.309375 32.05125 8.61875 31.1025 8.9375 30.125 C10 27 10 27 11 25 C10.67 24.34 10.34 23.68 10 23 C12.31 23.33 14.62 23.66 17 24 C17 24.66 17 25.32 17 26 C16.401875 26.185625 15.80375 26.37125 15.1875 26.5625 C11.99950687 28.65746692 11.45644444 31.54094446 10 35 C7.8125 36.9375 7.8125 36.9375 6 38 C6.43386428 44.79720708 8.71901136 50.62717707 13.53515625 55.578125 C25.47522139 64.94952365 42.73368679 63.15052382 57 63 C56.98710937 61.8965625 56.97421875 60.793125 56.9609375 59.65625 C57 56 57 56 57.625 53.5 C58.20619921 50.81449175 58.20619921 50.81449175 57 47.5625 C55.9369034 43.77521835 56.32627014 41.78973046 57 38 C56.17657468 35.68019054 56.17657468 35.68019054 55 34 C57.92512762 36.43505389 57.92512762 36.43505389 58.2578125 38.9453125 C58.21398437 39.66460937 58.17015625 40.38390625 58.125 41.125 C57.96429211 45.84675096 58.3919686 50.32341282 59 55 C59.17893286 56.42571265 59.3572786 57.85149906 59.53515625 59.27734375 C59.68855469 60.50582031 59.84195313 61.73429687 60 63 C61.31613281 62.90460938 62.63226563 62.80921875 63.98828125 62.7109375 C80.13303317 61.64939006 80.13303317 61.64939006 87.84765625 63.453125 C102.6439952 66.02002395 120.17962869 66.37125941 135 64 C137.44251927 57.47348346 138.25867587 53.77602761 136 47 C136.9375 44.1875 136.9375 44.1875 138 42 C137.67 41.34 137.34 40.68 137 40 C136.01 40 135.02 40 134 40 C134 39.01 134 38.02 134 37 C135.9375 37.625 135.9375 37.625 138 39 C139.0723094 42.79432556 138.93231135 45.27075458 138 49 C138.165 49.886875 138.33 50.77375 138.5 51.6875 C139.14190299 55.94010731 138.61116813 59.76883603 138 64 C142.67661056 64.08468711 147.17531996 64.1216741 151.8125 63.4375 C155 63 155 63 157.5 63.8125 C160.60164164 64.04512312 161.18668047 63.41175287 163.5625 61.5 C166.91032743 58.34098713 169.11705826 55.18047615 171 51 C171.32226562 50.35546875 171.64453125 49.7109375 171.9765625 49.046875 C175.54148085 40.6770667 173.41424912 31.35760137 170.5625 23 C167.88947491 17.47850029 162.37709586 15.36406801 157 13 C155.91599105 18.7175801 155.91599105 18.7175801 157.25 24.25 C158.42159507 30.10797537 155.88541581 34.90217422 153 40 C152.01 40.66 151.02 41.32 150 42 C150.52851562 41.04738281 151.05703125 40.09476562 151.6015625 39.11328125 C152.27698801 37.84685843 152.95141527 36.57990285 153.625 35.3125 C153.975625 34.68666016 154.32625 34.06082031 154.6875 33.41601562 C156.32195389 30.29420869 157.16831634 28.6373228 156.25 25.16015625 C155.63125 24.09087891 155.63125 24.09087891 155 23 C154.07556986 20.22670957 154.0267192 18.50124151 154.1875 15.5 C154.2816013 12.06955642 154.2816013 12.06955642 152.65625 9.80078125 C148.45579586 6.95312043 144.2592073 7.53860246 139.3125 7.6875 C138.33732422 7.69716797 137.36214844 7.70683594 136.35742188 7.71679688 C131.83867632 7.38617701 131.83867632 7.38617701 128 9 C125.98035801 9.07244053 123.95832876 9.08377188 121.9375 9.0625 C120.83277344 9.05347656 119.72804688 9.04445312 118.58984375 9.03515625 C117.73519531 9.02355469 116.88054687 9.01195312 116 9 C116.01160156 9.61746094 116.02320313 10.23492187 116.03515625 10.87109375 C116.08894661 15.91970297 115.92444046 20.82368002 115.27734375 25.83203125 C115.0915947 27.28401325 114.9381839 28.74047797 114.81640625 30.19921875 C114.44335142 34.31804865 113.90156943 36.97227538 111 40 C111 37.59411466 111.70979414 35.99839035 112.5625 33.75 C113.96505902 29.6916695 113.84584573 27.22922865 113 23 C113.350625 22.01 113.70125 21.02 114.0625 20 C115.41997215 15.65608912 113.96348052 12.92696104 112 9 C104.74 9 97.48 9 90 9 C88.53691078 15.88512576 87.86947155 21.09121505 89 28 C88.67 28.66 88.34 29.32 88 30 C87.34 29.67 86.68 29.34 86 29 C86.495 28.505 86.495 28.505 87 28 C87.13961241 24.92852697 87.04131994 22.20659968 86.4375 19.1875 C86.293125 18.465625 86.14875 17.74375 86 17 C86.33 16.67 86.66 16.34 87 16 C87.04063832 14.33382885 87.042721 12.66611905 87 11 C86.34 11 85.68 11 85 11 C84.505 9.515 84.505 9.515 84 8 C78.21590487 7.97529951 72.43184038 7.95713977 66.64770508 7.94506836 C64.67960068 7.9400365 62.71150003 7.93321042 60.7434082 7.92456055 C57.91616899 7.91244483 55.08897916 7.90676024 52.26171875 7.90234375 C50.93970711 7.89460182 50.93970711 7.89460182 49.59098816 7.88670349 C48.3600518 7.88659019 48.3600518 7.88659019 47.10424805 7.88647461 C46.38254929 7.884254 45.66085052 7.88203339 44.9172821 7.87974548 C42.77773199 7.93174401 42.77773199 7.93174401 40 9 C39.19078631 11.69737896 38.54117383 14.25209793 38 17 C37.7215625 18.2065625 37.7215625 18.2065625 37.4375 19.4375 C36.97731213 21.91344677 36.97731213 21.91344677 36.82421875 24.09375 C36.40332248 29.04547086 35.57856056 32.62765819 33 37 C32.01 37 31.02 37 30 37 C30.639375 36.29875 31.27875 35.5975 31.9375 34.875 C34.20191565 31.71854182 34.59487586 29.80816696 35 26 C35.20625 25.319375 35.4125 24.63875 35.625 23.9375 C36.15393796 21.88232882 36.15393796 21.88232882 35.4375 19.375 C35.293125 18.59125 35.14875 17.8075 35 17 C35.66 16.34 36.32 15.68 37 15 C36.67801034 11.90073181 36.67801034 11.90073181 36 9 C34.51113281 8.94392578 34.51113281 8.94392578 32.9921875 8.88671875 C10.69180146 7.87331587 10.69180146 7.87331587 2 3 Z " fill="#101010" transform="translate(429,216)"/>
<path d="M0 0 C2.69282475 4.03923713 3.13300939 6.95536152 3.0625 11.75 C3.05347656 12.54921875 3.04445312 13.3484375 3.03515625 14.171875 C3.01775391 15.07679688 3.01775391 15.07679688 3 16 C3.66 16 4.32 16 5 16 C5.03738281 16.59167969 5.07476563 17.18335938 5.11328125 17.79296875 C5.52093883 22.69285299 6.19397011 25.85195582 9 30 C9 30.99 9 31.98 9 33 C9.66 33 10.32 33 11 33 C11 33.99 11 34.98 11 36 C13.05078125 36.16276042 15.1015625 36.32552083 17.15234375 36.48828125 C20 37 20 37 21.69985962 37.7008667 C28.48209545 40.47906235 35.15785658 40.33795863 42.3651104 40.19492912 C44.60978352 40.15134993 46.85387434 40.12849679 49.09889221 40.11073303 C55.47609046 40.05623094 61.85260942 39.96221153 68.22924805 39.86303711 C72.90144117 39.79306702 77.57345832 39.74282883 82.24609375 39.71484375 C82.99563702 39.71025524 83.74518028 39.70566673 84.51743698 39.70093918 C95.73413558 39.665883 106.26975843 40.51488929 117 44 C117 44.66 117 45.32 117 46 C119.64 46 122.28 46 125 46 C125.2475 45.21625 125.495 44.4325 125.75 43.625 C127 41 127 41 128.8125 39.625 C131.58655849 38.83241186 133.26560485 39.1365068 136 40 C138 42 138 42 138.08984375 44.71484375 C137.98839819 46.86080745 137.88423764 49.00664454 137.77734375 51.15234375 C138.03594269 54.45968807 138.62814644 54.88292354 141 57 C141.60972411 61.72536184 141.61207942 63.8891892 139.3125 68.0625 C133.90356495 71.22621673 128.97777388 70.30682936 123 69 C119.34567535 67.6316057 115.83991903 66.07521828 112.30078125 64.43359375 C106.06756435 61.72638594 99.79115937 60.64257056 93 61 C93.4452885 66.27315333 94.08373163 71.01770224 96 76 C96.59167969 76.01417969 97.18335937 76.02835937 97.79296875 76.04296875 C102.09944984 76.30290317 104.47515126 76.62510804 108.0625 79.1875 C110.39232918 82.5695101 110.65743278 83.97322425 110 88 C108.35989542 92.18226667 106.8623603 94.69590231 103 97 C100.125 97.43359375 100.125 97.43359375 97 97.4375 C95.96875 97.45683594 94.9375 97.47617187 93.875 97.49609375 C90.30482364 96.8800443 89.10662099 95.91568558 87 93 C86.8203125 90.921875 86.8203125 90.921875 87.125 88.75 C87.41880065 82.98771629 84.60232566 80.18896394 81 76 C78 71.5 78 71.5 78 68 C77.195625 68.28875 76.39125 68.5775 75.5625 68.875 C72.95612496 69.6980658 70.53448319 70.33244605 67.875 70.875 C64.07709833 71.70821312 60.34901406 72.69259722 56.625 73.8125 C55.12839844 74.25529297 55.12839844 74.25529297 53.6015625 74.70703125 C50.40569859 76.29536602 49.60706003 77.87353776 48 81 C45.14630258 83.93296679 43.55516717 84.90086301 39.5 85.625 C35.71004733 84.94822274 34.18493094 83.98320369 31.94140625 80.84375 C29.65365476 76.36317447 29.65276618 72.36413286 30.875 67.5625 C32 65 32 65 33 64 C34.47648876 63.90176004 35.95775417 63.87026481 37.4375 63.875 C38.64212891 63.87113281 38.64212891 63.87113281 39.87109375 63.8671875 C42 64 42 64 44 65 C49.37093842 65.48826713 50.74006214 64.62996893 56 62 C37.52 62 19.04 62 0 62 C0 61.01 0 60.02 0 59 C26.00668845 58.09508469 51.97880921 57.87426573 78 58 C78.33 58.99 78.66 59.98 79 61 C77.94941406 61.09796875 76.89882812 61.1959375 75.81640625 61.296875 C67.90791587 62.10995901 61.03718091 63.0434734 54 67 C48.53536021 70.04758757 48.53536021 70.04758757 45.1875 69.75 C43 69 43 69 42 68 C39.32941149 67.85884839 36.67567762 67.95752893 34 68 C33.60690192 73.92637982 33.60690192 73.92637982 35.125 79.5625 C37.81063541 81.62148715 39.69962146 81.34378943 43 81 C43.99 80.67 44.98 80.34 46 80 C46.33 77.69 46.66 75.38 47 73 C47.59425781 72.83395264 48.18851563 72.66790527 48.80078125 72.49682617 C51.53487783 71.73065194 54.26743347 70.95911258 57 70.1875 C57.93457031 69.92646484 58.86914062 69.66542969 59.83203125 69.39648438 C65.33934767 67.83671993 70.66667858 66.07737631 76 64 C76.99 63.67 77.98 63.34 79 63 C79.79664062 64.66289062 79.79664062 64.66289062 80.609375 66.359375 C81.32248498 67.82312706 82.03605071 69.28665714 82.75 70.75 C83.09804687 71.47960937 83.44609375 72.20921875 83.8046875 72.9609375 C85.39864392 76.20788576 86.64567145 78.6602329 89.28125 81.1875 C91 83 91 83 91.171875 85.578125 C90.78125 88.05208333 90.390625 90.52604167 90 93 C94.62 93 99.24 93 104 93 C105.87404046 88.31489886 106.19157797 85.88523811 106 81 C105.39671875 80.97421875 104.7934375 80.9484375 104.171875 80.921875 C97.64560658 80.45872047 97.64560658 80.45872047 94.625 78.3125 C90.9528339 73.08672517 89.61268279 69.45528689 90 63 C89.34 63 88.68 63 88 63 C88.33 61.35 88.66 59.7 89 58 C99.50240362 57.62191347 107.87113721 58.31190229 117.5625 62.5625 C123.96695281 65.24072572 130.08497086 66.29425656 137 66 C137 63.36 137 60.72 137 58 C135.35 57.34 133.7 56.68 132 56 C132.54723683 52.62537285 133.0549 50.91765 135 48 C134.6878236 45.35367713 134.6878236 45.35367713 134 43 C131.59122743 43.11341534 131.59122743 43.11341534 129 44 C128.54625 44.845625 128.0925 45.69125 127.625 46.5625 C127.08875 47.366875 126.5525 48.17125 126 49 C121.1427225 49.76192588 117.60711223 48.64721427 113.20275879 46.83335876 C106.6067951 44.33794066 100.08939652 43.71661713 93.09375 43.83984375 C92.26316574 43.84558914 91.43258148 43.85133453 90.576828 43.85725403 C88.80251769 43.86989067 87.02823281 43.88668738 85.2539978 43.90734863 C80.56137656 43.95872447 75.86864033 43.96777063 71.17578125 43.98046875 C70.23201126 43.98358063 69.28824127 43.9866925 68.31587219 43.98989868 C60.12902257 44.01203472 51.94571225 43.97939275 43.76074219 43.79348755 C41.75609204 43.75143876 39.75106435 43.72876926 37.74609375 43.70678711 C30.24315604 43.5110711 23.89117458 42.3868586 16.81567383 39.84863281 C14.0393652 39.01186451 11.87811332 38.83517848 9 39 C1.81682919 26.09818835 -0.59629262 14.7306363 0 0 Z " fill="#141414" transform="translate(0,187)"/>
<path d="M0 0 C2.64 0 5.28 0 8 0 C7.01 1.485 7.01 1.485 6 3 C6.33 3.66 6.66 4.32 7 5 C5.11157486 5.87042243 3.21388098 6.72075474 1.3125 7.5625 C0.25675781 8.03816406 -0.79898438 8.51382813 -1.88671875 9.00390625 C-5.18110559 10.0579447 -6.75609068 10.06961334 -10 9 C-10.33 8.67 -10.66 8.34 -11 8 C-13.67058851 7.85884839 -16.32432238 7.95752893 -19 8 C-19.39309808 13.92637982 -19.39309808 13.92637982 -17.875 19.5625 C-15.18936459 21.62148715 -13.30037854 21.34378943 -10 21 C-9.01 20.67 -8.02 20.34 -7 20 C-6.67 17.69 -6.34 15.38 -6 13 C0.28571429 10.57142857 0.28571429 10.57142857 4 12 C1.94766315 14.2477975 0.99332739 15.0022242 -2 16 C-2.680625 17.1446875 -2.680625 17.1446875 -3.375 18.3125 C-5.2740874 21.45329839 -6.86870559 23.07852388 -10 25 C-13.5 25.625 -13.5 25.625 -17 25 C-21.12898096 21.40958177 -22.69542997 18.40860769 -23.08203125 12.96484375 C-22.94857568 9.76826507 -22.33055327 6.33055327 -20 4 C-18.52351124 3.90176004 -17.04224583 3.87026481 -15.5625 3.875 C-14.35787109 3.87113281 -14.35787109 3.87113281 -13.12890625 3.8671875 C-11 4 -11 4 -9 5 C-4.13241177 5.44250802 -1.21610247 4.40920141 3 2 C2.01 1.34 1.02 0.68 0 0 Z " fill="#131313" transform="translate(53,247)"/>
<path d="M0 0 C0.33 0.99 0.66 1.98 1 3 C1.66 3 2.32 3 3 3 C3.21914063 3.95261719 3.43828125 4.90523437 3.6640625 5.88671875 C5.38891549 13.98459627 5.38891549 13.98459627 10.25 20.375 C11.1575 20.91125 12.065 21.4475 13 22 C13.144375 21.2575 13.28875 20.515 13.4375 19.75 C13.90187492 17.47972261 14.41863569 15.24240521 15 13 C17.31 13.33 19.62 13.66 22 14 C22 14.66 22 15.32 22 16 C21.38125 16.4125 20.7625 16.825 20.125 17.25 C17.36840385 19.52013801 17.04983163 21.64053879 16 25 C14.5 26.875 14.5 26.875 13 28 C12.34 28 11.68 28 11 28 C10.01 30.475 10.01 30.475 9 33 C8.67 33 8.34 33 8 33 C7.98582031 32.3709375 7.97164063 31.741875 7.95703125 31.09375 C7.63073728 25.23809599 6.53814961 21.66177502 3.2109375 16.86328125 C-0.21664757 11.58922294 -0.21195647 6.04075942 0 0 Z " fill="#131313" transform="translate(424,226)"/>
<path d="M0 0 C0.33 0 0.66 0 1 0 C1.50588674 8.09418785 -0.88682972 14.6430856 -6 21 C-9.37910814 24.64092766 -12.09547378 26.90897485 -17.1875 27.15234375 C-20.16546891 26.90300909 -23.06154998 26.53871584 -26 26 C-25 24 -25 24 -22.25 22.8125 C-19 22 -19 22 -16.5 22.6875 C-13.74666541 23.30521575 -13.74666541 23.30521575 -10.9375 21 C-5.5370475 15.94573035 -3.49663324 10.00430842 -1.61328125 3.0390625 C-1 1 -1 1 0 0 Z " fill="#060606" transform="translate(603,256)"/>
<path d="M0 0 C0.66 0.66 1.32 1.32 2 2 C1.67 2.680625 1.34 3.36125 1 4.0625 C-0.18453566 6.99578446 -0.18453566 6.99578446 0.0625 10.25 C-0.02360065 15.41603921 -1.03554646 20.83957907 -4.60546875 24.765625 C-5.06566406 25.17296875 -5.52585937 25.5803125 -6 26 C-6.99 25.67 -7.98 25.34 -9 25 C-8.360625 24.13375 -7.72125 23.2675 -7.0625 22.375 C-4.99019986 18.98396341 -4.42247465 16.88676677 -4 13 C-3.79375 12.319375 -3.5875 11.63875 -3.375 10.9375 C-2.83067246 8.89287506 -2.83067246 8.89287506 -3.6875 6.5 C-3.790625 5.675 -3.89375 4.85 -4 4 C-2.0625 1.6875 -2.0625 1.6875 0 0 Z " fill="#000000" transform="translate(467,229)"/>
<path d="M0 0 C1.40668945 0.01450195 1.40668945 0.01450195 2.84179688 0.02929688 C3.81826172 0.05443359 4.79472656 0.07957031 5.80078125 0.10546875 C6.78884766 0.11900391 7.77691406 0.13253906 8.79492188 0.14648438 C11.23492356 0.18184672 13.67382844 0.23119842 16.11328125 0.29296875 C12.87953456 3.6178069 10.74700916 5.19494508 5.98828125 5.48046875 C3.11328125 5.29296875 3.11328125 5.29296875 1.11328125 4.29296875 C-0.4234074 4.06829044 -1.96639929 3.8850007 -3.51171875 3.73046875 C-4.32898437 3.64667969 -5.14625 3.56289062 -5.98828125 3.4765625 C-6.61476562 3.41597656 -7.24125 3.35539063 -7.88671875 3.29296875 C-5.42854811 0.24399315 -3.85656876 -0.07011943 0 0 Z " fill="#E2E2E2" transform="translate(40.88671875,247.70703125)"/>
<path d="M0 0 C2.60427663 2.60427663 2.50528695 4.39566205 3 8 C3.32871094 9.1446875 3.32871094 9.1446875 3.6640625 10.3125 C4.10572171 13.84577369 3.19396203 15.92627731 1.8125 19.1875 C1.38582031 20.23292969 0.95914063 21.27835938 0.51953125 22.35546875 C-1.09002716 25.15667966 -2.00308155 25.95396637 -5 27 C-4.00734643 24.46170776 -2.98445893 21.96695587 -1.82421875 19.5 C-0.69196301 17.00981554 0.30720879 14.64839171 1 12 C-0.20968895 9.2332494 -0.20968895 9.2332494 -2 7 C-1.58333333 1.58333333 -1.58333333 1.58333333 0 0 Z " fill="#000000" transform="translate(584,231)"/>
<path d="M0 0 C2 2 2 2 2.01171875 4.3203125 C1.90472656 5.24585938 1.79773438 6.17140625 1.6875 7.125 C1.51927734 8.60226563 1.51927734 8.60226563 1.34765625 10.109375 C1.23292969 11.06328125 1.11820313 12.0171875 1 13 C0.93683594 13.76828125 0.87367188 14.5365625 0.80859375 15.328125 C0.42512106 19.6034375 -0.49052942 22.50856266 -3 26 C-3.99 25.34 -4.98 24.68 -6 24 C-5.34 23.34 -4.68 22.68 -4 22 C-3.27982196 19.71171706 -3.27982196 19.71171706 -2.8125 17.125 C-2.63332031 16.26132813 -2.45414063 15.39765625 -2.26953125 14.5078125 C-1.85548873 12.05460461 -1.85548873 12.05460461 -2.5390625 9.9453125 C-3.13919757 7.41253908 -2.55294951 6.12707883 -1.5625 3.75 C-1.27503906 3.04359375 -0.98757813 2.3371875 -0.69140625 1.609375 C-0.34916016 0.81273437 -0.34916016 0.81273437 0 0 Z " fill="#000000" transform="translate(544,231)"/>
<path d="M0 0 C1.875 0.1875 1.875 0.1875 4 1 C6.38879811 4.98133018 5.79447983 7.58622317 5 12 C5.2644354 14.34214207 5.58244638 16.68025766 6 19 C5.01 18.67 4.02 18.34 3 18 C0.62790698 11.22259136 0.62790698 11.22259136 1.875 7.125 C2.24625 6.42375 2.6175 5.7225 3 5 C3 4.34 3 3.68 3 3 C2.01 3 1.02 3 0 3 C0 2.01 0 1.02 0 0 Z " fill="#000000" transform="translate(563,253)"/>
<path d="M0 0 C0.99 0.33 1.98 0.66 3 1 C4.00344253 7.30735307 4.50873071 13.63440427 5 20 C4.01 19.67 3.02 19.34 2 19 C-0.08254633 13.95301272 -0.10550722 9.28186783 1 4 C0.6422386 1.72349255 0.6422386 1.72349255 0 0 Z " fill="#000000" transform="translate(484,250)"/>
<path d="M0 0 C0.66 0.33 1.32 0.66 2 1 C1.814375 1.66 1.62875 2.32 1.4375 3 C1.03842212 5.73653403 1.13760553 7.4471767 1.5625 10.125 C2 14 2 14 0 17 C-0.99 16.67 -1.98 16.34 -3 16 C-2.67 15.34 -2.34 14.68 -2 14 C-1.86270799 10.91092972 -1.91919487 8.31587458 -2.6875 5.3125 C-2.790625 4.549375 -2.89375 3.78625 -3 3 C-1.5625 1.1875 -1.5625 1.1875 0 0 Z " fill="#000000" transform="translate(517,230)"/>
<path d="M0 0 C0.33 0 0.66 0 1 0 C1.33 5.94 1.66 11.88 2 18 C-0.49059397 13.01881207 -1.2136995 10.24901803 -0.5625 4.75 C-0.46066406 3.85796875 -0.35882812 2.9659375 -0.25390625 2.046875 C-0.17011719 1.37140625 -0.08632813 0.6959375 0 0 Z " fill="#242424" transform="translate(603,242)"/>
<path d="M0 0 C2.64 0 5.28 0 8 0 C7.01 1.485 7.01 1.485 6 3 C6.33 3.66 6.66 4.32 7 5 C5.35 5.33 3.7 5.66 2 6 C2.33 4.68 2.66 3.36 3 2 C2.01 1.34 1.02 0.68 0 0 Z " fill="#5A5A5A" transform="translate(53,247)"/>
</svg>
