<?xml version="1.0" encoding="UTF-8"?>
<svg version="1.1" xmlns="http://www.w3.org/2000/svg" width="800" height="300">
<path d="M0 0 C264 0 528 0 800 0 C800 99 800 198 800 300 C536 300 272 300 0 300 C0 201 0 102 0 0 Z " fill="#FEFEFE" transform="translate(0,0)"/>
<path d="M0 0 C2.8125 -0.1875 2.8125 -0.1875 6 0 C7 1 8 2 9 3 C15.47083003 5.07525149 21.41141432 5.24994212 28.16796875 5.16015625 C29.2571611 5.15463745 30.34635345 5.14911865 31.46855164 5.14343262 C33.8178252 5.13109227 36.16707948 5.11448167 38.51629639 5.09402466 C44.77770738 5.04025787 51.03917966 5.01861565 57.30078125 5 C59.23244141 4.9937838 59.23244141 4.9937838 61.203125 4.98744202 C77.41229646 4.95866797 93.61370822 5.33435472 109.81713867 5.73266602 C110.89429642 5.75735962 111.97145416 5.78205322 113.08125305 5.80749512 C115.09527242 5.85391321 117.10919602 5.90477372 119.12297058 5.96081543 C120.44631157 5.99096741 120.44631157 5.99096741 121.79638672 6.02172852 C122.56457733 6.04171402 123.33276794 6.06169952 124.12423706 6.08229065 C126.0924287 6.12361173 126.0924287 6.12361173 128 5 C131.03566911 4.76089183 134.08095166 4.81479913 137.125 4.8125 C138.37023437 4.79413086 138.37023437 4.79413086 139.640625 4.77539062 C146.3283327 4.75966717 153.1906553 5.34226445 159 9 C159.42667969 9.46148437 159.85335937 9.92296875 160.29296875 10.3984375 C162.9975484 12.93591497 166.33120593 14.35011728 169.625 16.01171875 C174.01917804 19.69039741 174.99427916 24.83672162 175.6171875 30.3671875 C175.72209306 31.86858663 175.80765993 33.37144759 175.875 34.875 C175.91254395 35.66366455 175.95008789 36.4523291 175.98876953 37.26489258 C176.27663329 46.52514559 174.29214193 54.04285919 168 61 C162.69554711 66.38085279 158.19286413 67.70523678 150.71362305 67.88330078 C149.57062744 67.88056152 148.42763184 67.87782227 147.25 67.875 C146.0535083 67.8941748 144.8570166 67.91334961 143.62426758 67.93310547 C140.0824586 67.98283335 136.54211111 67.99384427 133 68 C131.18616451 68.02360067 129.37235524 68.04939485 127.55859375 68.078125 C114.02532285 68.24209193 100.1544274 68.25064747 86.72265625 66.47265625 C78.59603524 65.44083973 70.49840803 65.91088485 62.375 66.78125 C56.14473547 67.35509015 49.86288457 66.66520367 43.63769531 66.25537109 C41.63908688 66.12591247 39.63984991 66.00628024 37.640625 65.88671875 C36.36960937 65.80292969 35.09859375 65.71914063 33.7890625 65.6328125 C32.63100098 65.55949707 31.47293945 65.48618164 30.27978516 65.41064453 C26.94747647 64.99342381 24.14301003 64.16096136 21 63 C19.865625 62.62875 18.73125 62.2575 17.5625 61.875 C10.70420537 58.84035636 6.45523899 52.07424207 3.69140625 45.35546875 C2.95117812 42.83367463 2.71897532 40.55745849 2.5625 37.9375 C2.27383191 33.27551038 0.83709453 30.65071581 -1.7890625 26.86328125 C-4.96470506 21.97688932 -6.0453083 15.71367548 -5 10 C-3.57222581 6.52259876 -1.86966857 3.25856521 0 0 Z " fill="#646464" transform="translate(429,216)"/>
<path d="M0 0 C2.29166667 1.375 4.58333333 2.75 6.875 4.125 C9.8410744 5.34632475 12.82932932 5.56266611 16 6 C17.35931641 6.49113281 17.35931641 6.49113281 18.74609375 6.9921875 C22.46587193 8.14429166 25.80112385 8.41945219 29.6875 8.625 C30.99074219 8.69976562 32.29398438 8.77453125 33.63671875 8.8515625 C41.82853968 9.17531225 49.87643889 9.00805346 58.04394531 8.28735352 C105.03260372 4.15636674 105.03260372 4.15636674 121 12 C121.13019531 11.06929687 121.26039062 10.13859375 121.39453125 9.1796875 C122.12457977 5.34575528 123.13170235 3.63573298 126 1 C129.1614213 0.48384958 131.00259784 0.28488147 133.65625 2.1875 C135.93518272 5.26140925 135.42128875 8.69592209 135.49609375 12.40625 C136.13831349 15.71193922 137.33350037 16.11930577 140 18 C140.35948527 21.77459531 140.2732868 24.70188769 139.5 28.375 C136.20743508 31.94194533 130.4523177 32.11818352 125.8125 32.375 C121.93933109 32.30278838 118.8307689 31.3437007 115.1875 30.0625 C106.34187901 27.08236817 97.25885586 27.18462325 88 27 C88.64219502 28.98035021 89.28885644 30.95925256 89.9375 32.9375 C90.47697266 34.59072266 90.47697266 34.59072266 91.02734375 36.27734375 C91.73856668 38.88123475 91.73856668 38.88123475 93 40 C95.25543624 40.24261665 97.50945523 40.38332133 99.7734375 40.5234375 C102.48949551 41.10476921 103.39924985 41.7418885 105 44 C105.94239319 48.17867366 105.93786082 52.31497673 103.828125 56.10546875 C100.06342205 60.65610195 96.43445379 63.6087485 90.5 64.5625 C87 64 87 64 84.0625 61.4375 C81.58491231 58.00137019 81.5328977 55.20392074 82 51 C82.23332031 50.35804688 82.46664062 49.71609375 82.70703125 49.0546875 C83.22863849 46.89472739 83.22863849 46.89472739 81.78515625 44.859375 C81.21667969 44.16328125 80.64820312 43.4671875 80.0625 42.75 C79.49660156 42.04359375 78.93070312 41.3371875 78.34765625 40.609375 C77.90292969 40.07828125 77.45820312 39.5471875 77 39 C73.27037715 40.24320762 72.32521873 41.7955123 69.9375 44.875 C68.89916016 46.20144531 68.89916016 46.20144531 67.83984375 47.5546875 C64.73595664 51.20123621 64.73595664 51.20123621 64.375 55.6875 C64.58125 56.450625 64.7875 57.21375 65 58 C60.06822262 62.81149013 60.06822262 62.81149013 55.8125 63.5625 C50.98655667 62.85047557 43.5895895 61.5895895 40 58 C39.50681837 53.72575917 39.5475449 51.66454343 42 48.0625 C46.03031789 45.29165645 48.19839142 45.59308402 53 46 C53.24492188 45.30519531 53.48984375 44.61039062 53.7421875 43.89453125 C55.20250025 40.53399786 57.06281778 37.71425133 59.125 34.6875 C59.84945312 33.61886719 60.57390625 32.55023438 61.3203125 31.44921875 C61.87460937 30.64097656 62.42890625 29.83273438 63 29 C61.16514038 29.24447876 61.16514038 29.24447876 59.29321289 29.49389648 C53.29683611 30.15665353 47.33518189 30.12506794 41.30859375 30.09765625 C40.12274185 30.0962413 38.93688995 30.09482635 37.71510315 30.09336853 C33.95587561 30.08780509 30.19670931 30.0752594 26.4375 30.0625 C23.87695399 30.05748027 21.31640704 30.0529182 18.75585938 30.04882812 C12.50386411 30.0387018 6.25199999 30.01911927 0 30 C0 20.1 0 10.2 0 0 Z " fill="#F9F9F9" transform="translate(0,219)"/>
<path d="M0 0 C2.8125 -0.1875 2.8125 -0.1875 6 0 C7 1 8 2 9 3 C15.47083003 5.07525149 21.41141432 5.24994212 28.16796875 5.16015625 C29.2571611 5.15463745 30.34635345 5.14911865 31.46855164 5.14343262 C33.8178252 5.13109227 36.16707948 5.11448167 38.51629639 5.09402466 C44.77770738 5.04025787 51.03917966 5.01861565 57.30078125 5 C59.23244141 4.9937838 59.23244141 4.9937838 61.203125 4.98744202 C77.41229646 4.95866797 93.61370822 5.33435472 109.81713867 5.73266602 C110.89429642 5.75735962 111.97145416 5.78205322 113.08125305 5.80749512 C115.09527242 5.85391321 117.10919602 5.90477372 119.12297058 5.96081543 C120.44631157 5.99096741 120.44631157 5.99096741 121.79638672 6.02172852 C122.56457733 6.04171402 123.33276794 6.06169952 124.12423706 6.08229065 C126.0924287 6.12361173 126.0924287 6.12361173 128 5 C131.03566911 4.76089183 134.08095166 4.81479913 137.125 4.8125 C138.37023437 4.79413086 138.37023437 4.79413086 139.640625 4.77539062 C146.3283327 4.75966717 153.1906553 5.34226445 159 9 C159.42667969 9.46148437 159.85335937 9.92296875 160.29296875 10.3984375 C162.9975484 12.93591497 166.33120593 14.35011728 169.625 16.01171875 C174.01917804 19.69039741 174.99427916 24.83672162 175.6171875 30.3671875 C175.72209306 31.86858663 175.80765993 33.37144759 175.875 34.875 C175.91254395 35.66366455 175.95008789 36.4523291 175.98876953 37.26489258 C176.27663329 46.52514559 174.29214193 54.04285919 168 61 C162.69554711 66.38085279 158.19286413 67.70523678 150.71362305 67.88330078 C149.57062744 67.88056152 148.42763184 67.87782227 147.25 67.875 C146.0535083 67.8941748 144.8570166 67.91334961 143.62426758 67.93310547 C140.0824586 67.98283335 136.54211111 67.99384427 133 68 C131.18616451 68.02360067 129.37235524 68.04939485 127.55859375 68.078125 C114.02532285 68.24209193 100.1544274 68.25064747 86.72265625 66.47265625 C78.59603524 65.44083973 70.49840803 65.91088485 62.375 66.78125 C56.14473547 67.35509015 49.86288457 66.66520367 43.63769531 66.25537109 C41.63908688 66.12591247 39.63984991 66.00628024 37.640625 65.88671875 C36.36960937 65.80292969 35.09859375 65.71914063 33.7890625 65.6328125 C32.63100098 65.55949707 31.47293945 65.48618164 30.27978516 65.41064453 C26.94747647 64.99342381 24.14301003 64.16096136 21 63 C19.865625 62.62875 18.73125 62.2575 17.5625 61.875 C10.70420537 58.84035636 6.45523899 52.07424207 3.69140625 45.35546875 C2.95117812 42.83367463 2.71897532 40.55745849 2.5625 37.9375 C2.27383191 33.27551038 0.83709453 30.65071581 -1.7890625 26.86328125 C-4.96470506 21.97688932 -6.0453083 15.71367548 -5 10 C-3.57222581 6.52259876 -1.86966857 3.25856521 0 0 Z M2 3 C-1.20056327 7.39571031 -3.17210159 11.0337393 -2.6875 16.5703125 C-0.75050496 24.17301803 1.40130732 28.68547017 8 33 C8.309375 32.05125 8.61875 31.1025 8.9375 30.125 C10 27 10 27 11 25 C10.67 24.34 10.34 23.68 10 23 C12.31 23.33 14.62 23.66 17 24 C17 24.66 17 25.32 17 26 C16.401875 26.185625 15.80375 26.37125 15.1875 26.5625 C11.99950687 28.65746692 11.45644444 31.54094446 10 35 C7.8125 36.9375 7.8125 36.9375 6 38 C6.43386428 44.79720708 8.71901136 50.62717707 13.53515625 55.578125 C25.47522139 64.94952365 42.73368679 63.15052382 57 63 C56.98710937 61.8965625 56.97421875 60.793125 56.9609375 59.65625 C57 56 57 56 57.625 53.5 C58.20619921 50.81449175 58.20619921 50.81449175 57 47.5625 C55.9369034 43.77521835 56.32627014 41.78973046 57 38 C56.17657468 35.68019054 56.17657468 35.68019054 55 34 C57.92512762 36.43505389 57.92512762 36.43505389 58.2578125 38.9453125 C58.21398437 39.66460937 58.17015625 40.38390625 58.125 41.125 C57.96429211 45.84675096 58.3919686 50.32341282 59 55 C59.17893286 56.42571265 59.3572786 57.85149906 59.53515625 59.27734375 C59.68855469 60.50582031 59.84195313 61.73429687 60 63 C61.31613281 62.90460938 62.63226563 62.80921875 63.98828125 62.7109375 C80.13303317 61.64939006 80.13303317 61.64939006 87.84765625 63.453125 C102.6439952 66.02002395 120.17962869 66.37125941 135 64 C137.44251927 57.47348346 138.25867587 53.77602761 136 47 C136.9375 44.1875 136.9375 44.1875 138 42 C137.67 41.34 137.34 40.68 137 40 C136.01 40 135.02 40 134 40 C134 39.01 134 38.02 134 37 C135.9375 37.625 135.9375 37.625 138 39 C139.0723094 42.79432556 138.93231135 45.27075458 138 49 C138.165 49.886875 138.33 50.77375 138.5 51.6875 C139.14190299 55.94010731 138.61116813 59.76883603 138 64 C142.67661056 64.08468711 147.17531996 64.1216741 151.8125 63.4375 C155 63 155 63 157.5 63.8125 C160.60164164 64.04512312 161.18668047 63.41175287 163.5625 61.5 C166.91032743 58.34098713 169.11705826 55.18047615 171 51 C171.32226562 50.35546875 171.64453125 49.7109375 171.9765625 49.046875 C175.54148085 40.6770667 173.41424912 31.35760137 170.5625 23 C167.88947491 17.47850029 162.37709586 15.36406801 157 13 C155.91599105 18.7175801 155.91599105 18.7175801 157.25 24.25 C158.42159507 30.10797537 155.88541581 34.90217422 153 40 C152.01 40.66 151.02 41.32 150 42 C150.52851562 41.04738281 151.05703125 40.09476562 151.6015625 39.11328125 C152.27698801 37.84685843 152.95141527 36.57990285 153.625 35.3125 C153.975625 34.68666016 154.32625 34.06082031 154.6875 33.41601562 C156.32195389 30.29420869 157.16831634 28.6373228 156.25 25.16015625 C155.63125 24.09087891 155.63125 24.09087891 155 23 C154.07556986 20.22670957 154.0267192 18.50124151 154.1875 15.5 C154.2816013 12.06955642 154.2816013 12.06955642 152.65625 9.80078125 C148.45579586 6.95312043 144.2592073 7.53860246 139.3125 7.6875 C138.33732422 7.69716797 137.36214844 7.70683594 136.35742188 7.71679688 C131.83867632 7.38617701 131.83867632 7.38617701 128 9 C125.98035801 9.07244053 123.95832876 9.08377188 121.9375 9.0625 C120.83277344 9.05347656 119.72804688 9.04445312 118.58984375 9.03515625 C117.73519531 9.02355469 116.88054687 9.01195312 116 9 C116.01160156 9.61746094 116.02320313 10.23492187 116.03515625 10.87109375 C116.08894661 15.91970297 115.92444046 20.82368002 115.27734375 25.83203125 C115.0915947 27.28401325 114.9381839 28.74047797 114.81640625 30.19921875 C114.44335142 34.31804865 113.90156943 36.97227538 111 40 C111 37.59411466 111.70979414 35.99839035 112.5625 33.75 C113.96505902 29.6916695 113.84584573 27.22922865 113 23 C113.350625 22.01 113.70125 21.02 114.0625 20 C115.41997215 15.65608912 113.96348052 12.92696104 112 9 C104.74 9 97.48 9 90 9 C88.53691078 15.88512576 87.86947155 21.09121505 89 28 C88.67 28.66 88.34 29.32 88 30 C87.34 29.67 86.68 29.34 86 29 C86.495 28.505 86.495 28.505 87 28 C87.13961241 24.92852697 87.04131994 22.20659968 86.4375 19.1875 C86.293125 18.465625 86.14875 17.74375 86 17 C86.33 16.67 86.66 16.34 87 16 C87.04063832 14.33382885 87.042721 12.66611905 87 11 C86.34 11 85.68 11 85 11 C84.505 9.515 84.505 9.515 84 8 C78.21590487 7.97529951 72.43184038 7.95713977 66.64770508 7.94506836 C64.67960068 7.9400365 62.71150003 7.93321042 60.7434082 7.92456055 C57.91616899 7.91244483 55.08897916 7.90676024 52.26171875 7.90234375 C50.93970711 7.89460182 50.93970711 7.89460182 49.59098816 7.88670349 C48.3600518 7.88659019 48.3600518 7.88659019 47.10424805 7.88647461 C46.38254929 7.884254 45.66085052 7.88203339 44.9172821 7.87974548 C42.77773199 7.93174401 42.77773199 7.93174401 40 9 C39.19078631 11.69737896 38.54117383 14.25209793 38 17 C37.7215625 18.2065625 37.7215625 18.2065625 37.4375 19.4375 C36.97731213 21.91344677 36.97731213 21.91344677 36.82421875 24.09375 C36.40332248 29.04547086 35.57856056 32.62765819 33 37 C32.01 37 31.02 37 30 37 C30.639375 36.29875 31.27875 35.5975 31.9375 34.875 C34.20191565 31.71854182 34.59487586 29.80816696 35 26 C35.20625 25.319375 35.4125 24.63875 35.625 23.9375 C36.15393796 21.88232882 36.15393796 21.88232882 35.4375 19.375 C35.293125 18.59125 35.14875 17.8075 35 17 C35.66 16.34 36.32 15.68 37 15 C36.67801034 11.90073181 36.67801034 11.90073181 36 9 C34.51113281 8.94392578 34.51113281 8.94392578 32.9921875 8.88671875 C10.69180146 7.87331587 10.69180146 7.87331587 2 3 Z " fill="#101010" transform="translate(429,216)"/>
<path d="M0 0 C0.7425 0.45375 1.485 0.9075 2.25 1.375 C3.1575 1.91125 4.065 2.4475 5 3 C5.61875 3.37125 6.2375 3.7425 6.875 4.125 C9.8410744 5.34632475 12.82932932 5.56266611 16 6 C17.35931641 6.49113281 17.35931641 6.49113281 18.74609375 6.9921875 C22.46587193 8.14429166 25.80112385 8.41945219 29.6875 8.625 C30.99074219 8.69976562 32.29398438 8.77453125 33.63671875 8.8515625 C41.82853968 9.17531225 49.87643889 9.00805346 58.04394531 8.28735352 C105.03260372 4.15636674 105.03260372 4.15636674 121 12 C121.13019531 11.06929687 121.26039062 10.13859375 121.39453125 9.1796875 C122.12457977 5.34575528 123.13170235 3.63573298 126 1 C129.1614213 0.48384958 131.00259784 0.28488147 133.65625 2.1875 C135.93518272 5.26140925 135.42128875 8.69592209 135.49609375 12.40625 C136.13831349 15.71193922 137.33350037 16.11930577 140 18 C140.35948527 21.77459531 140.2732868 24.70188769 139.5 28.375 C136.20743508 31.94194533 130.4523177 32.11818352 125.8125 32.375 C121.93933109 32.30278838 118.8307689 31.3437007 115.1875 30.0625 C106.34187901 27.08236817 97.25885586 27.18462325 88 27 C88.64219502 28.98035021 89.28885644 30.95925256 89.9375 32.9375 C90.47697266 34.59072266 90.47697266 34.59072266 91.02734375 36.27734375 C91.73856668 38.88123475 91.73856668 38.88123475 93 40 C95.25543624 40.24261665 97.50945523 40.38332133 99.7734375 40.5234375 C102.48949551 41.10476921 103.39924985 41.7418885 105 44 C105.94239319 48.17867366 105.93786082 52.31497673 103.828125 56.10546875 C100.06342205 60.65610195 96.43445379 63.6087485 90.5 64.5625 C87 64 87 64 84.0625 61.4375 C81.58491231 58.00137019 81.5328977 55.20392074 82 51 C82.23332031 50.35804688 82.46664062 49.71609375 82.70703125 49.0546875 C83.22863849 46.89472739 83.22863849 46.89472739 81.78515625 44.859375 C81.21667969 44.16328125 80.64820312 43.4671875 80.0625 42.75 C79.49660156 42.04359375 78.93070312 41.3371875 78.34765625 40.609375 C77.90292969 40.07828125 77.45820312 39.5471875 77 39 C73.27037715 40.24320762 72.32521873 41.7955123 69.9375 44.875 C68.89916016 46.20144531 68.89916016 46.20144531 67.83984375 47.5546875 C64.73595664 51.20123621 64.73595664 51.20123621 64.375 55.6875 C64.58125 56.450625 64.7875 57.21375 65 58 C60.06822262 62.81149013 60.06822262 62.81149013 55.8125 63.5625 C50.98655667 62.85047557 43.5895895 61.5895895 40 58 C39.50681837 53.72575917 39.5475449 51.66454343 42 48.0625 C46.03031789 45.29165645 48.19839142 45.59308402 53 46 C53.24492188 45.30519531 53.48984375 44.61039062 53.7421875 43.89453125 C55.20250025 40.53399786 57.06281778 37.71425133 59.125 34.6875 C59.84945312 33.61886719 60.57390625 32.55023438 61.3203125 31.44921875 C61.87460937 30.64097656 62.42890625 29.83273438 63 29 C61.16514038 29.24447876 61.16514038 29.24447876 59.29321289 29.49389648 C53.29683611 30.15665353 47.33518189 30.12506794 41.30859375 30.09765625 C40.12274185 30.0962413 38.93688995 30.09482635 37.71510315 30.09336853 C33.95587561 30.08780509 30.19670931 30.0752594 26.4375 30.0625 C23.87695399 30.05748027 21.31640704 30.0529182 18.75585938 30.04882812 C12.50388563 30.03784765 6.25194719 30.02114623 0 30 C0 29.01 0 28.02 0 27 C7.45226188 26.71168758 14.9046663 26.42729527 22.35717773 26.14550781 C24.88748487 26.04938549 27.41775924 25.95239664 29.94799805 25.85449219 C33.60457019 25.71316146 37.26125246 25.57504479 40.91796875 25.4375 C42.58909981 25.37187866 42.58909981 25.37187866 44.29399109 25.30493164 C51.86592005 25.02423489 59.42316845 24.95111315 67 25 C67.495 25.99 67.495 25.99 68 27 C67.64695801 27.48879639 67.29391602 27.97759277 66.93017578 28.48120117 C65.32301736 30.71277843 63.7239655 32.95004599 62.125 35.1875 C61.56941406 35.95642578 61.01382813 36.72535156 60.44140625 37.51757812 C57.80230073 41.22186479 55.38842177 44.61504771 54 49 C53.37351563 49.04898438 52.74703125 49.09796875 52.1015625 49.1484375 C51.28429688 49.22320312 50.46703125 49.29796875 49.625 49.375 C48.81289063 49.44460938 48.00078125 49.51421875 47.1640625 49.5859375 C44.79665809 49.82892588 44.79665809 49.82892588 43 52 C42.3574765 54.06874034 42.3574765 54.06874034 42 56 C42.7734375 56.185625 42.7734375 56.185625 43.5625 56.375 C45.53616913 56.88106901 47.49085084 57.46080844 49.4375 58.0625 C52.52042218 58.87379531 54.85034148 59.1908884 58 59 C59.21690533 57.23470405 59.21690533 57.23470405 60 55 C59.10318584 52.87269715 59.10318584 52.87269715 58 51 C58.50789063 50.6596875 59.01578125 50.319375 59.5390625 49.96875 C66.13467158 45.32465072 71.53838915 39.87715472 74 32 C74.99 32 75.98 32 77 32 C78.6484375 34.01171875 78.6484375 34.01171875 80.375 36.6875 C82.37438331 39.68657496 84.24720294 42.46248183 86.875 44.9375 C89 47 89 47 90 50 C88.68 50.99 87.36 51.98 86 53 C86.27540704 56.81813447 86.27540704 56.81813447 88 60 C91.49734228 59.61140641 94.65788261 59.11403913 98 58 C99.20882096 55.99983534 99.20882096 55.99983534 100 54 C100.66 54 101.32 54 102 54 C101.505 50.04 101.505 50.04 101 46 C100.33613281 46.020625 99.67226562 46.04125 98.98828125 46.0625 C91.98337186 45.89888168 91.98337186 45.89888168 89.36328125 43.50390625 C88.01602861 41.39165211 86.98978303 39.30199539 86 37 C85.39671875 35.68902344 85.39671875 35.68902344 84.78125 34.3515625 C81.82213376 27.53359873 81.82213376 27.53359873 83 24 C95.14756627 23.58837909 106.08425285 23.44479404 117.7578125 27.09765625 C123.73610915 28.76149544 129.35289914 28.98617483 135.1875 26.8125 C137.20008168 25.1107595 137.20008168 25.1107595 137.625 22.5 C137.41875 21.675 137.2125 20.85 137 20 C136.175 19.62875 135.35 19.2575 134.5 18.875 C133.675 18.25625 132.85 17.6375 132 17 C131.53322527 13.3042424 131.71678182 9.7070113 132 6 C130.02 5.01 130.02 5.01 128 4 C125.50494038 6.49505962 125.64051624 7.67328888 125.375 11.125 C125.30023438 12.03507813 125.22546875 12.94515625 125.1484375 13.8828125 C125.07496094 14.93082031 125.07496094 14.93082031 125 16 C123.31074322 15.74034932 121.62364695 15.46663334 119.9375 15.1875 C118.99777344 15.03667969 118.05804688 14.88585937 117.08984375 14.73046875 C114 14 114 14 111.01953125 12.4453125 C105.30526743 9.89896729 98.87280873 10.60681822 92.75 10.6875 C91.36751463 10.69551387 89.98502757 10.70324086 88.60253906 10.71069336 C78.48889978 10.802304 68.46766989 11.48886176 58.390625 12.34936523 C48.81589503 13.12316032 39.54966743 12.95138506 30 12 C29.32549805 11.93796387 28.65099609 11.87592773 27.95605469 11.81201172 C5.68039581 9.68039581 5.68039581 9.68039581 0 4 C0 2.68 0 1.36 0 0 Z " fill="#141414" transform="translate(0,219)"/>
<path d="M0 0 C0.33 0.99 0.66 1.98 1 3 C1.66 3 2.32 3 3 3 C3.21914063 3.95261719 3.43828125 4.90523437 3.6640625 5.88671875 C5.38891549 13.98459627 5.38891549 13.98459627 10.25 20.375 C11.1575 20.91125 12.065 21.4475 13 22 C13.144375 21.2575 13.28875 20.515 13.4375 19.75 C13.90187492 17.47972261 14.41863569 15.24240521 15 13 C17.31 13.33 19.62 13.66 22 14 C22 14.66 22 15.32 22 16 C21.38125 16.4125 20.7625 16.825 20.125 17.25 C17.36840385 19.52013801 17.04983163 21.64053879 16 25 C14.5 26.875 14.5 26.875 13 28 C12.34 28 11.68 28 11 28 C10.01 30.475 10.01 30.475 9 33 C8.67 33 8.34 33 8 33 C7.98582031 32.3709375 7.97164063 31.741875 7.95703125 31.09375 C7.63073728 25.23809599 6.53814961 21.66177502 3.2109375 16.86328125 C-0.21664757 11.58922294 -0.21195647 6.04075942 0 0 Z " fill="#131313" transform="translate(424,226)"/>
<path d="M0 0 C0.33 0 0.66 0 1 0 C1.50588674 8.09418785 -0.88682972 14.6430856 -6 21 C-9.37910814 24.64092766 -12.09547378 26.90897485 -17.1875 27.15234375 C-20.16546891 26.90300909 -23.06154998 26.53871584 -26 26 C-25 24 -25 24 -22.25 22.8125 C-19 22 -19 22 -16.5 22.6875 C-13.74666541 23.30521575 -13.74666541 23.30521575 -10.9375 21 C-5.5370475 15.94573035 -3.49663324 10.00430842 -1.61328125 3.0390625 C-1 1 -1 1 0 0 Z " fill="#060606" transform="translate(603,256)"/>
<path d="M0 0 C0.66 0.66 1.32 1.32 2 2 C1.67 2.680625 1.34 3.36125 1 4.0625 C-0.18453566 6.99578446 -0.18453566 6.99578446 0.0625 10.25 C-0.02360065 15.41603921 -1.03554646 20.83957907 -4.60546875 24.765625 C-5.06566406 25.17296875 -5.52585937 25.5803125 -6 26 C-6.99 25.67 -7.98 25.34 -9 25 C-8.360625 24.13375 -7.72125 23.2675 -7.0625 22.375 C-4.99019986 18.98396341 -4.42247465 16.88676677 -4 13 C-3.79375 12.319375 -3.5875 11.63875 -3.375 10.9375 C-2.83067246 8.89287506 -2.83067246 8.89287506 -3.6875 6.5 C-3.790625 5.675 -3.89375 4.85 -4 4 C-2.0625 1.6875 -2.0625 1.6875 0 0 Z " fill="#000000" transform="translate(467,229)"/>
<path d="M0 0 C2.60427663 2.60427663 2.50528695 4.39566205 3 8 C3.32871094 9.1446875 3.32871094 9.1446875 3.6640625 10.3125 C4.10572171 13.84577369 3.19396203 15.92627731 1.8125 19.1875 C1.38582031 20.23292969 0.95914063 21.27835938 0.51953125 22.35546875 C-1.09002716 25.15667966 -2.00308155 25.95396637 -5 27 C-4.00734643 24.46170776 -2.98445893 21.96695587 -1.82421875 19.5 C-0.69196301 17.00981554 0.30720879 14.64839171 1 12 C-0.20968895 9.2332494 -0.20968895 9.2332494 -2 7 C-1.58333333 1.58333333 -1.58333333 1.58333333 0 0 Z " fill="#000000" transform="translate(584,231)"/>
<path d="M0 0 C2 2 2 2 2.01171875 4.3203125 C1.90472656 5.24585938 1.79773438 6.17140625 1.6875 7.125 C1.51927734 8.60226563 1.51927734 8.60226563 1.34765625 10.109375 C1.23292969 11.06328125 1.11820313 12.0171875 1 13 C0.93683594 13.76828125 0.87367188 14.5365625 0.80859375 15.328125 C0.42512106 19.6034375 -0.49052942 22.50856266 -3 26 C-3.99 25.34 -4.98 24.68 -6 24 C-5.34 23.34 -4.68 22.68 -4 22 C-3.27982196 19.71171706 -3.27982196 19.71171706 -2.8125 17.125 C-2.63332031 16.26132813 -2.45414063 15.39765625 -2.26953125 14.5078125 C-1.85548873 12.05460461 -1.85548873 12.05460461 -2.5390625 9.9453125 C-3.13919757 7.41253908 -2.55294951 6.12707883 -1.5625 3.75 C-1.27503906 3.04359375 -0.98757813 2.3371875 -0.69140625 1.609375 C-0.34916016 0.81273437 -0.34916016 0.81273437 0 0 Z " fill="#000000" transform="translate(544,231)"/>
<path d="M0 0 C1.875 0.1875 1.875 0.1875 4 1 C6.38879811 4.98133018 5.79447983 7.58622317 5 12 C5.2644354 14.34214207 5.58244638 16.68025766 6 19 C5.01 18.67 4.02 18.34 3 18 C0.62790698 11.22259136 0.62790698 11.22259136 1.875 7.125 C2.24625 6.42375 2.6175 5.7225 3 5 C3 4.34 3 3.68 3 3 C2.01 3 1.02 3 0 3 C0 2.01 0 1.02 0 0 Z " fill="#000000" transform="translate(563,253)"/>
<path d="M0 0 C0.99 0.33 1.98 0.66 3 1 C4.00344253 7.30735307 4.50873071 13.63440427 5 20 C4.01 19.67 3.02 19.34 2 19 C-0.08254633 13.95301272 -0.10550722 9.28186783 1 4 C0.6422386 1.72349255 0.6422386 1.72349255 0 0 Z " fill="#000000" transform="translate(484,250)"/>
<path d="M0 0 C0.66 0.33 1.32 0.66 2 1 C1.814375 1.66 1.62875 2.32 1.4375 3 C1.03842212 5.73653403 1.13760553 7.4471767 1.5625 10.125 C2 14 2 14 0 17 C-0.99 16.67 -1.98 16.34 -3 16 C-2.67 15.34 -2.34 14.68 -2 14 C-1.86270799 10.91092972 -1.91919487 8.31587458 -2.6875 5.3125 C-2.790625 4.549375 -2.89375 3.78625 -3 3 C-1.5625 1.1875 -1.5625 1.1875 0 0 Z " fill="#000000" transform="translate(517,230)"/>
<path d="M0 0 C0.33 0 0.66 0 1 0 C1.33 5.94 1.66 11.88 2 18 C-0.49059397 13.01881207 -1.2136995 10.24901803 -0.5625 4.75 C-0.46066406 3.85796875 -0.35882812 2.9659375 -0.25390625 2.046875 C-0.17011719 1.37140625 -0.08632813 0.6959375 0 0 Z " fill="#242424" transform="translate(603,242)"/>
</svg>
