<?xml version="1.0" encoding="UTF-8"?>
<svg version="1.1" xmlns="http://www.w3.org/2000/svg" width="800" height="300">
<path d="M0 0 C264 0 528 0 800 0 C800 99 800 198 800 300 C536 300 272 300 0 300 C0 201 0 102 0 0 Z " fill="#FEFEFE" transform="translate(0,0)"/>
<path d="M0 0 C0.66 0 1.32 0 2 0 C2 17.82 2 35.64 2 54 C-7.23202172 42.45997284 -9.55390619 27.53158426 -8 13 C-7.08595597 9.94849917 -5.86188928 7.57118043 -4 5 C-3.29875 4.01 -2.5975 3.02 -1.875 2 C-1.25625 1.34 -0.6375 0.68 0 0 Z " fill="#F8F8F8" transform="translate(798,185)"/>
<path d="M0 0 C0.66 0 1.32 0 2 0 C1.48795378 4.48040441 -0.21959908 6.5455625 -3 10 C-8.06672168 20.89345162 -3.76861792 33.30034385 0 44 C0.35400879 44.67498535 0.70801758 45.3499707 1.07275391 46.04541016 C2.34846963 48.7345571 2.13334295 51.06645513 2 54 C-7.0176275 43.42760914 -8.65127922 29.80472438 -8.35546875 16.32421875 C-7.87358833 11.81784248 -6.64005953 8.6457965 -4 5 C-3.29875 4.01 -2.5975 3.02 -1.875 2 C-1.25625 1.34 -0.6375 0.68 0 0 Z " fill="#0E0E0E" transform="translate(798,185)"/>
<path d="M0 0 C0.66 0 1.32 0 2 0 C1.58682778 4.82034262 -0.38019915 6.90992611 -4 10 C-4.66 10 -5.32 10 -6 10 C-4.63312778 6.01328937 -2.84804907 3.11505367 0 0 Z " fill="#171717" transform="translate(798,185)"/>
</svg>
