<?xml version="1.0" encoding="UTF-8"?>
<svg version="1.1" xmlns="http://www.w3.org/2000/svg" width="800" height="300">
<path d="M0 0 C264 0 528 0 800 0 C800 99 800 198 800 300 C536 300 272 300 0 300 C0 201 0 102 0 0 Z " fill="#FEFEFE" transform="translate(0,0)"/>
<path d="M0 0 C4.45764736 2.26792585 4.45764736 2.26792585 6 5 C6.45678711 7.7175293 6.45678711 7.7175293 6.65234375 10.69921875 C6.72316162 11.69139404 6.79397949 12.68356934 6.86694336 13.70581055 C6.91085205 14.46289307 6.95476074 15.21997559 7 16 C7.70680908 15.99476318 8.41361816 15.98952637 9.1418457 15.98413086 C12.53205366 15.96257888 15.92224735 15.95010317 19.3125 15.9375 C20.42173828 15.92912109 21.53097656 15.92074219 22.67382812 15.91210938 C35.82081295 15.87609024 48.82164219 16.51191267 62 17 C62 42.74 62 68.48 62 95 C38.57 95 15.14 95 -9 95 C-3.42410722 104.81390544 -3.42410722 104.81390544 5.5625 109.0625 C6.32691406 109.17722656 7.09132813 109.29195313 7.87890625 109.41015625 C10.45741053 110.12719888 11.44694566 110.82377652 13 113 C13.76129634 117.40357688 13.46435076 121.66499157 12 125.875 C8.33947519 129.76430762 4.0768999 131.71493531 -1.1875 132.4375 C-4.55485577 131.9136891 -6.43259397 131.26535826 -9 129 C-9.608676 125.42402849 -9.44405832 123.70309234 -7.5 120.625 C-7.005 120.08875 -6.51 119.5525 -6 119 C-7.36125 118.13375 -7.36125 118.13375 -8.75 117.25 C-12 115 -12 115 -13.8125 113.0625 C-16.55378882 110.47785625 -19.54270679 108.96201421 -22.87890625 107.24609375 C-25 106 -25 106 -26.33984375 104.34765625 C-29.78511709 101.55090495 -34.75312005 102.97454591 -38.90234375 103.40234375 C-40.24797977 103.57626949 -41.59304143 103.75469512 -42.9375 103.9375 C-44.27994792 104.11328125 -45.62239583 104.2890625 -46.96484375 104.46484375 C-48.99659087 104.73267168 -51.02750546 105.00384215 -53.05712891 105.28735352 C-57.23542712 105.85075889 -61.286003 106.11038633 -65.5 106.0625 C-67.06234375 106.04896484 -67.06234375 106.04896484 -68.65625 106.03515625 C-69.4296875 106.02355469 -70.203125 106.01195312 -71 106 C-70.95166016 107.18142578 -70.95166016 107.18142578 -70.90234375 108.38671875 C-71 111 -71 111 -72.5625 112.8125 C-76.00570514 114.48995891 -78.20740642 114.52311636 -82 114 C-84.97046873 112.20976215 -87.42502414 110.14995172 -89 107 C-89.04003069 101.57984419 -88.83046319 96.59941058 -86.3125 91.75 C-84 90 -84 90 -80.9375 89.5625 C-78 90 -78 90 -75 92 C-71.87478167 92.16699232 -71.87478167 92.16699232 -69 92 C-69.72445312 91.58492188 -70.44890625 91.16984375 -71.1953125 90.7421875 C-78.70006872 85.9591562 -83.24901998 80.97977733 -85.57519531 72.234375 C-88.11582969 58.87122224 -87.43378169 42.69781812 -80.125 31 C-75.31597162 24.45830698 -68.88471281 20.2211782 -61 18.25 C-60.34 18.1675 -59.68 18.085 -59 18 C-59.0825 17.01 -59.165 16.02 -59.25 15 C-59.27825307 10.38533109 -57.35366383 6.87551072 -55 3 C-54 2 -54 2 -51.25 1.625 C-48 2 -48 2 -45.1875 4.0625 C-42.6474352 7.47344416 -42.24692316 9.80230628 -42 14 C-41.17757812 13.51144531 -40.35515625 13.02289063 -39.5078125 12.51953125 C-35.50486673 10.78551577 -32.15002124 10.58835758 -27.875 10.6875 C-27.17246094 10.68427734 -26.46992187 10.68105469 -25.74609375 10.67773438 C-22.01728278 10.71650273 -19.16465713 10.942153 -16 13 C-16.0825 11.7625 -16.165 10.525 -16.25 9.25 C-16.26153532 5.99127351 -16.19423516 5.25250571 -14.125 2.5625 C-9.65228933 -0.72625785 -5.41349627 -0.68808605 0 0 Z " fill="#FBFBFB" transform="translate(738,154)"/>
<path d="M0 0 C4.45764736 2.26792585 4.45764736 2.26792585 6 5 C6.45678711 7.7175293 6.45678711 7.7175293 6.65234375 10.69921875 C6.72316162 11.69139404 6.79397949 12.68356934 6.86694336 13.70581055 C6.91085205 14.46289307 6.95476074 15.21997559 7 16 C7.70680908 15.99476318 8.41361816 15.98952637 9.1418457 15.98413086 C26.79293641 15.87192066 44.36487416 16.20417579 62 17 C62 17.99 62 18.98 62 20 C42.53 19.34 23.06 18.68 3 18 C2.505 12.555 2.505 12.555 2 7 C-0.72295168 4.27704832 -2.34484122 4.07861905 -6.125 3.625 C-8.94553784 3.75813821 -8.94553784 3.75813821 -10.63671875 5.19921875 C-12.42064638 7.55563891 -12.49739365 9.25986226 -12.6875 12.1875 C-12.75324219 13.08855469 -12.81898438 13.98960937 -12.88671875 14.91796875 C-12.92410156 15.60503906 -12.96148438 16.29210937 -13 17 C-14.99954746 17.04254356 -17.00041636 17.04080783 -19 17 C-19.33 16.67 -19.66 16.34 -20 16 C-22.69785797 15.89864401 -25.36477074 15.86138656 -28.0625 15.875 C-28.80177734 15.87113281 -29.54105469 15.86726562 -30.30273438 15.86328125 C-35.28457841 15.87199839 -40.06824587 16.294664 -45 17 C-45.0825 15.7625 -45.165 14.525 -45.25 13.25 C-45.63475459 10.01117036 -45.90024003 9.12092117 -48.0625 6.5 C-48.701875 6.005 -49.34125 5.51 -50 5 C-53.18421647 5.7152516 -53.18421647 5.7152516 -54.625 8.5 C-56.27050724 12.68856388 -56.71250682 16.53889892 -57 21 C-57.61746094 21.13535156 -58.23492188 21.27070313 -58.87109375 21.41015625 C-67.53242135 23.61174181 -74.26689093 27.56333805 -78.9375 35.375 C-82.78182672 42.51249549 -83.36209402 50.60596464 -83.375 58.5625 C-83.39949219 59.36107422 -83.42398438 60.15964844 -83.44921875 60.98242188 C-83.47821092 66.91132012 -82.04265662 70.95226484 -79 76 C-78.1028125 77.546875 -78.1028125 77.546875 -77.1875 79.125 C-72.73257702 84.98004163 -68.36654126 88.62659167 -61 90 C-57.52393825 90.35362759 -54.05356732 90.50435836 -50.5625 90.625 C-49.64017578 90.66367188 -48.71785156 90.70234375 -47.76757812 90.7421875 C-45.51190857 90.83568676 -43.25623084 90.9214391 -41 91 C-40.67 91.66 -40.34 92.32 -40 93 C-47.66230789 94.03521013 -55.32894688 95.0317959 -63 96 C-64.09828125 96.14284424 -64.09828125 96.14284424 -65.21875 96.28857422 C-66.89366095 96.50186366 -68.5717135 96.69013923 -70.25 96.875 C-71.12140625 96.97554688 -71.9928125 97.07609375 -72.890625 97.1796875 C-75.59858866 96.94900911 -76.2369906 95.98022832 -78 94 C-80.54258463 93.49985047 -80.54258463 93.49985047 -83 94 C-85.37065478 97.55598216 -86.33042466 100.75404316 -86 105 C-84.10350449 108.14658666 -84.10350449 108.14658666 -81 110 C-77.78938212 110.41890218 -77.78938212 110.41890218 -75 110 C-74.855625 109.401875 -74.71125 108.80375 -74.5625 108.1875 C-74.1127561 106.43849596 -73.57107659 104.71322977 -73 103 C-68.09375875 102.42152816 -63.18655938 101.8522845 -58.27832031 101.29101562 C-56.61397511 101.09944557 -54.9499016 100.90549769 -53.28613281 100.70898438 C-43.82436158 99.59315576 -34.54832054 98.65848034 -25 99 C-25 99.99 -25 100.98 -25 102 C-22.95656352 103.45703304 -20.98615675 104.70646462 -18.8125 105.9375 C-14.61677846 108.36512484 -10.76611257 110.93680912 -7 114 C-5.02288349 115.04451438 -3.02749004 116.05698138 -1 117 C-1.39494173 119.86332753 -1.70312394 120.77509389 -4.0625 122.5625 C-4.701875 123.036875 -5.34125 123.51125 -6 124 C-6 124.99 -6 125.98 -6 127 C0.06050614 128.0812391 0.06050614 128.0812391 6 127 C6 126.34 6 125.68 6 125 C6.66 125 7.32 125 8 125 C8.144375 124.278125 8.28875 123.55625 8.4375 122.8125 C8.95833333 120.20833333 9.47916667 117.60416667 10 115 C9.46375 114.87625 8.9275 114.7525 8.375 114.625 C7.59125 114.41875 6.8075 114.2125 6 114 C4.5459375 113.62875 4.5459375 113.62875 3.0625 113.25 C-3.1428385 110.71720878 -6.07748914 105.51503621 -9.57421875 100.09375 C-11.15285907 97.7755275 -12.89969015 95.85796641 -15 94 C-14.505 92.515 -14.505 92.515 -14 91 C11.08 91 36.16 91 62 91 C62 92.32 62 93.64 62 95 C38.57 95 15.14 95 -9 95 C-3.42410722 104.81390544 -3.42410722 104.81390544 5.5625 109.0625 C6.32691406 109.17722656 7.09132813 109.29195313 7.87890625 109.41015625 C10.45741053 110.12719888 11.44694566 110.82377652 13 113 C13.76129634 117.40357688 13.46435076 121.66499157 12 125.875 C8.33947519 129.76430762 4.0768999 131.71493531 -1.1875 132.4375 C-4.55485577 131.9136891 -6.43259397 131.26535826 -9 129 C-9.608676 125.42402849 -9.44405832 123.70309234 -7.5 120.625 C-7.005 120.08875 -6.51 119.5525 -6 119 C-7.36125 118.13375 -7.36125 118.13375 -8.75 117.25 C-12 115 -12 115 -13.8125 113.0625 C-16.55378882 110.47785625 -19.54270679 108.96201421 -22.87890625 107.24609375 C-25 106 -25 106 -26.33984375 104.34765625 C-29.78511709 101.55090495 -34.75312005 102.97454591 -38.90234375 103.40234375 C-40.24797977 103.57626949 -41.59304143 103.75469512 -42.9375 103.9375 C-44.27994792 104.11328125 -45.62239583 104.2890625 -46.96484375 104.46484375 C-48.99659087 104.73267168 -51.02750546 105.00384215 -53.05712891 105.28735352 C-57.23542712 105.85075889 -61.286003 106.11038633 -65.5 106.0625 C-67.06234375 106.04896484 -67.06234375 106.04896484 -68.65625 106.03515625 C-69.4296875 106.02355469 -70.203125 106.01195312 -71 106 C-70.95166016 107.18142578 -70.95166016 107.18142578 -70.90234375 108.38671875 C-71 111 -71 111 -72.5625 112.8125 C-76.00570514 114.48995891 -78.20740642 114.52311636 -82 114 C-84.97046873 112.20976215 -87.42502414 110.14995172 -89 107 C-89.04003069 101.57984419 -88.83046319 96.59941058 -86.3125 91.75 C-84 90 -84 90 -80.9375 89.5625 C-78 90 -78 90 -75 92 C-71.87478167 92.16699232 -71.87478167 92.16699232 -69 92 C-69.72445312 91.58492188 -70.44890625 91.16984375 -71.1953125 90.7421875 C-78.70006872 85.9591562 -83.24901998 80.97977733 -85.57519531 72.234375 C-88.11582969 58.87122224 -87.43378169 42.69781812 -80.125 31 C-75.31597162 24.45830698 -68.88471281 20.2211782 -61 18.25 C-60.34 18.1675 -59.68 18.085 -59 18 C-59.0825 17.01 -59.165 16.02 -59.25 15 C-59.27825307 10.38533109 -57.35366383 6.87551072 -55 3 C-54 2 -54 2 -51.25 1.625 C-48 2 -48 2 -45.1875 4.0625 C-42.6474352 7.47344416 -42.24692316 9.80230628 -42 14 C-41.17757812 13.51144531 -40.35515625 13.02289063 -39.5078125 12.51953125 C-35.50486673 10.78551577 -32.15002124 10.58835758 -27.875 10.6875 C-27.17246094 10.68427734 -26.46992187 10.68105469 -25.74609375 10.67773438 C-22.01728278 10.71650273 -19.16465713 10.942153 -16 13 C-16.0825 11.7625 -16.165 10.525 -16.25 9.25 C-16.26153532 5.99127351 -16.19423516 5.25250571 -14.125 2.5625 C-9.65228933 -0.72625785 -5.41349627 -0.68808605 0 0 Z " fill="#101010" transform="translate(738,154)"/>
<path d="M0 0 C25.08 0 50.16 0 76 0 C76 1.32 76 2.64 76 4 C52.57 4 29.14 4 5 4 C10.57589278 13.81390544 10.57589278 13.81390544 19.5625 18.0625 C20.32691406 18.17722656 21.09132813 18.29195313 21.87890625 18.41015625 C24.45741053 19.12719888 25.44694566 19.82377652 27 22 C27.76129634 26.40357688 27.46435076 30.66499157 26 34.875 C22.33947519 38.76430762 18.0768999 40.71493531 12.8125 41.4375 C9.44514423 40.9136891 7.56740603 40.26535826 5 38 C4.391324 34.42402849 4.55594168 32.70309234 6.5 29.625 C6.995 29.08875 7.49 28.5525 8 28 C6.63875 27.13375 6.63875 27.13375 5.25 26.25 C2 24 2 24 0.1875 22.0625 C-2.55378882 19.47785625 -5.54270679 17.96201421 -8.87890625 16.24609375 C-11 15 -11 15 -12.33984375 13.34765625 C-15.41774727 10.8491228 -19.22911938 11.82230219 -22.98535156 12.19921875 C-25.0361047 12.44083332 -27.07999555 12.71393132 -29.125 13 C-33.43109382 13.59560924 -37.64145033 14.1356747 -42 14 C-41.67 12.68 -41.34 11.36 -41 10 C-37.87588408 9.65802981 -34.75060292 9.32807747 -31.625 9 C-30.75488281 8.90460938 -29.88476562 8.80921875 -28.98828125 8.7109375 C-22.96970497 8.08678885 -17.04920988 7.88276094 -11 8 C-11 8.99 -11 9.98 -11 11 C-8.95656352 12.45703304 -6.98615675 13.70646462 -4.8125 14.9375 C-0.61677846 17.36512484 3.23388743 19.93680912 7 23 C8.97711651 24.04451438 10.97250996 25.05698138 13 26 C12.60505827 28.86332753 12.29687606 29.77509389 9.9375 31.5625 C9.298125 32.036875 8.65875 32.51125 8 33 C8 33.99 8 34.98 8 36 C14.06050614 37.0812391 14.06050614 37.0812391 20 36 C20 35.34 20 34.68 20 34 C20.66 34 21.32 34 22 34 C22.2165625 32.9171875 22.2165625 32.9171875 22.4375 31.8125 C22.95833333 29.20833333 23.47916667 26.60416667 24 24 C23.46375 23.87625 22.9275 23.7525 22.375 23.625 C21.59125 23.41875 20.8075 23.2125 20 23 C19.030625 22.7525 18.06125 22.505 17.0625 22.25 C10.8571615 19.71720878 7.92251086 14.51503621 4.42578125 9.09375 C2.84714093 6.7755275 1.10030985 4.85796641 -1 3 C-0.67 2.01 -0.34 1.02 0 0 Z " fill="#101010" transform="translate(724,245)"/>
<path d="M0 0 C1.06367294 0.00222061 2.12734589 0.00444122 3.22325134 0.00672913 C5.02500572 0.00684242 5.02500572 0.00684242 6.86315918 0.00695801 C8.17042465 0.01211929 9.47769012 0.01728058 10.8245697 0.02259827 C12.16835477 0.02446253 13.51214052 0.02588639 14.85592651 0.02688599 C18.39873622 0.0307105 21.94150515 0.0405402 25.48429871 0.05158997 C29.09706572 0.06180552 32.7098393 0.06638392 36.32261658 0.07142639 C43.41573225 0.08216254 50.50882019 0.09923816 57.60191345 0.12025452 C57.60191345 1.44025452 57.60191345 2.76025452 57.60191345 4.12025452 C34.50191345 4.12025452 11.40191345 4.12025452 -12.39808655 4.12025452 C-12.72808655 3.46025452 -13.05808655 2.80025452 -13.39808655 2.12025452 C-12.68781311 2.05966858 -11.97753967 1.99908264 -11.2457428 1.93666077 C-9.86709045 1.81097717 -9.86709045 1.81097717 -8.46058655 1.68275452 C-7.54406311 1.60154358 -6.62753967 1.52033264 -5.6832428 1.43666077 C-2.9991493 1.06501705 -2.74327838 0.13756452 0 0 Z " fill="#2B2B2B" transform="translate(742.3980865478516,244.87974548339844)"/>
<path d="M0 0 C0 0.99 0 1.98 0 3 C2.04343648 4.45703304 4.01384325 5.70646462 6.1875 6.9375 C10.38322154 9.36512484 14.23388743 11.93680912 18 15 C19.97711651 16.04451438 21.97250996 17.05698138 24 18 C23.8125 19.8125 23.8125 19.8125 23 22 C20.4375 23.75 20.4375 23.75 18 25 C18 21 18 21 19 20 C17.63875 19.13375 17.63875 19.13375 16.25 18.25 C13 16 13 16 11.1875 14.0625 C8.44621118 11.47785625 5.45729321 9.96201421 2.12109375 8.24609375 C0 7 0 7 -1.33984375 5.34765625 C-4.41774727 2.8491228 -8.22911938 3.82230219 -11.98535156 4.19921875 C-14.0361047 4.44083332 -16.07999555 4.71393132 -18.125 5 C-22.43109382 5.59560924 -26.64145033 6.1356747 -31 6 C-30.67 4.68 -30.34 3.36 -30 2 C-19.90994238 0.53235526 -10.2165875 -0.28734152 0 0 Z " fill="#121212" transform="translate(713,253)"/>
<path d="M0 0 C1.50433594 0.01353516 1.50433594 0.01353516 3.0390625 0.02734375 C3.80992187 0.03894531 4.58078125 0.05054688 5.375 0.0625 C5.705 1.0525 6.035 2.0425 6.375 3.0625 C5.14523437 3.11857422 5.14523437 3.11857422 3.890625 3.17578125 C2.81296875 3.24152344 1.7353125 3.30726563 0.625 3.375 C-0.44234375 3.43300781 -1.5096875 3.49101562 -2.609375 3.55078125 C-5.8071068 4.09340154 -7.25098691 4.91321145 -9.625 7.0625 C-9.07402718 14.06730391 -9.07402718 14.06730391 -5.625 20.0625 C-1.4844667 22.22669889 2.0662138 22.27387918 6.6875 22.1875 C7.94175781 22.16945312 9.19601562 22.15140625 10.48828125 22.1328125 C11.44089844 22.10960937 12.39351562 22.08640625 13.375 22.0625 C13.375 23.0525 13.375 24.0425 13.375 25.0625 C7.6075928 26.70654251 1.19255638 27.02763949 -4.5 24.9375 C-9.020409 22.2252546 -10.97906689 19.00029932 -12.625 14.0625 C-13.01957593 11.00171818 -13.13257589 8.11347245 -12.625 5.0625 C-8.61180415 0.83808332 -5.66155708 -0.06583206 0 0 Z " fill="#0C0C0C" transform="translate(686.625,192.9375)"/>
<path d="M0 0 C12.87 0.495 12.87 0.495 26 1 C26 1.66 26 2.32 26 3 C17.75 3 9.5 3 1 3 C0.67 2.01 0.34 1.02 0 0 Z " fill="#000000" transform="translate(679,228)"/>
<path d="M0 0 C0.99 0 1.98 0 3 0 C3.17942163 3.94727588 3.09350689 6.5980513 1 10 C-1.375 10.1875 -1.375 10.1875 -4 10 C-6.29013653 6.5647952 -6.17842973 5.014669 -6 1 C-5.34 1 -4.68 1 -4 1 C-3.67 2.65 -3.34 4.3 -3 6 C-2.01 6.33 -1.02 6.66 0 7 C0 4.69 0 2.38 0 0 Z " fill="#030303" transform="translate(754,207)"/>
<path d="M0 0 C0.66 0 1.32 0 2 0 C2.25 7.625 2.25 7.625 0 11 C-4.875 10.125 -4.875 10.125 -6 9 C-6.04080783 7.00041636 -6.04254356 4.99954746 -6 3 C-5.34 3 -4.68 3 -4 3 C-3.67 4.32 -3.34 5.64 -3 7 C-2.34 7 -1.68 7 -1 7 C-0.67 4.69 -0.34 2.38 0 0 Z " fill="#010101" transform="translate(723,221)"/>
<path d="M0 0 C0.66 0 1.32 0 2 0 C1.125 6.875 1.125 6.875 0 8 C-1.66617115 8.04063832 -3.33388095 8.042721 -5 8 C-5.33 6.02 -5.66 4.04 -6 2 C-5.01 2 -4.02 2 -3 2 C-3 2.99 -3 3.98 -3 5 C-2.34 5 -1.68 5 -1 5 C-0.67 3.35 -0.34 1.7 0 0 Z " fill="#040404" transform="translate(663,206)"/>
<path d="M0 0 C2.97 0 5.94 0 9 0 C8.67 0.99 8.34 1.98 8 3 C3.545 3.495 3.545 3.495 -1 4 C-0.67 2.68 -0.34 1.36 0 0 Z " fill="#2A2A2A" transform="translate(683,255)"/>
<path d="M0 0 C2.31 0 4.62 0 7 0 C7 0.99 7 1.98 7 3 C4.69 3.33 2.38 3.66 0 4 C-0.33 3.34 -0.66 2.68 -1 2 C-0.67 1.34 -0.34 0.68 0 0 Z " fill="#242424" transform="translate(693,215)"/>
<path d="M0 0 C2.31 0 4.62 0 7 0 C7.33 0.99 7.66 1.98 8 3 C5.03 3 2.06 3 -1 3 C-0.67 2.01 -0.34 1.02 0 0 Z " fill="#282828" transform="translate(685,193)"/>
<path d="M0 0 C0.33 0 0.66 0 1 0 C0.67 3.3 0.34 6.6 0 10 C-0.66 9.67 -1.32 9.34 -2 9 C-1.125 1.125 -1.125 1.125 0 0 Z " fill="#020202" transform="translate(655,193)"/>
<path d="M0 0 C2.31 0 4.62 0 7 0 C6.67 0.99 6.34 1.98 6 3 C3.69 3 1.38 3 -1 3 C-0.67 2.01 -0.34 1.02 0 0 Z " fill="#1C1C1C" transform="translate(676,256)"/>
</svg>
