<?xml version="1.0" encoding="UTF-8"?>
<svg version="1.1" xmlns="http://www.w3.org/2000/svg" width="800" height="300">
<path d="M0 0 C264 0 528 0 800 0 C800 99 800 198 800 300 C536 300 272 300 0 300 C0 201 0 102 0 0 Z " fill="#FEFEFE" transform="translate(0,0)"/>
<path d="M0 0 C2.8125 -0.1875 2.8125 -0.1875 6 0 C7 1 8 2 9 3 C15.47083003 5.07525149 21.41141432 5.24994212 28.16796875 5.16015625 C29.2571611 5.15463745 30.34635345 5.14911865 31.46855164 5.14343262 C33.8178252 5.13109227 36.16707948 5.11448167 38.51629639 5.09402466 C44.77770738 5.04025787 51.03917966 5.01861565 57.30078125 5 C59.23244141 4.9937838 59.23244141 4.9937838 61.203125 4.98744202 C77.41229646 4.95866797 93.61370822 5.33435472 109.81713867 5.73266602 C110.89429642 5.75735962 111.97145416 5.78205322 113.08125305 5.80749512 C115.09527242 5.85391321 117.10919602 5.90477372 119.12297058 5.96081543 C120.44631157 5.99096741 120.44631157 5.99096741 121.79638672 6.02172852 C122.56457733 6.04171402 123.33276794 6.06169952 124.12423706 6.08229065 C126.0924287 6.12361173 126.0924287 6.12361173 128 5 C131.03566911 4.76089183 134.08095166 4.81479913 137.125 4.8125 C138.37023437 4.79413086 138.37023437 4.79413086 139.640625 4.77539062 C146.3283327 4.75966717 153.1906553 5.34226445 159 9 C159.42667969 9.46148437 159.85335937 9.92296875 160.29296875 10.3984375 C162.9975484 12.93591497 166.33120593 14.35011728 169.625 16.01171875 C174.01917804 19.69039741 174.99427916 24.83672162 175.6171875 30.3671875 C175.72209306 31.86858663 175.80765993 33.37144759 175.875 34.875 C175.91254395 35.66366455 175.95008789 36.4523291 175.98876953 37.26489258 C176.27663329 46.52514559 174.29214193 54.04285919 168 61 C162.69554711 66.38085279 158.19286413 67.70523678 150.71362305 67.88330078 C149.57062744 67.88056152 148.42763184 67.87782227 147.25 67.875 C146.0535083 67.8941748 144.8570166 67.91334961 143.62426758 67.93310547 C140.0824586 67.98283335 136.54211111 67.99384427 133 68 C131.18616451 68.02360067 129.37235524 68.04939485 127.55859375 68.078125 C114.02532285 68.24209193 100.1544274 68.25064747 86.72265625 66.47265625 C78.59603524 65.44083973 70.49840803 65.91088485 62.375 66.78125 C56.14473547 67.35509015 49.86288457 66.66520367 43.63769531 66.25537109 C41.63908688 66.12591247 39.63984991 66.00628024 37.640625 65.88671875 C36.36960937 65.80292969 35.09859375 65.71914063 33.7890625 65.6328125 C32.63100098 65.55949707 31.47293945 65.48618164 30.27978516 65.41064453 C26.94747647 64.99342381 24.14301003 64.16096136 21 63 C19.865625 62.62875 18.73125 62.2575 17.5625 61.875 C10.70420537 58.84035636 6.45523899 52.07424207 3.69140625 45.35546875 C2.95117812 42.83367463 2.71897532 40.55745849 2.5625 37.9375 C2.27383191 33.27551038 0.83709453 30.65071581 -1.7890625 26.86328125 C-4.96470506 21.97688932 -6.0453083 15.71367548 -5 10 C-3.57222581 6.52259876 -1.86966857 3.25856521 0 0 Z " fill="#646464" transform="translate(429,216)"/>
<path d="M0 0 C3.125 0.375 3.125 0.375 5.5 1.75 C7.37465743 4.77829278 7.23154586 5.90187594 7.0625 9.375 C6.87830151 11.99142136 6.87830151 11.99142136 7.125 14.375 C9.54380929 16.64377535 9.54380929 16.64377535 12.125 18.375 C12.88499656 22.25942688 12.25139393 24.10704488 10.5625 27.6875 C8.125 30.375 8.125 30.375 4.9375 31.25 C3.0503125 31.311875 3.0503125 31.311875 1.125 31.375 C0.13693359 31.46587891 0.13693359 31.46587891 -0.87109375 31.55859375 C-5.60432223 31.84519291 -9.22452141 31.01468578 -13.6875 29.4375 C-22.53312099 26.45736817 -31.61614414 26.55962325 -40.875 26.375 C-40.59785156 27.13425781 -40.32070312 27.89351562 -40.03515625 28.67578125 C-39.67292969 29.66964844 -39.31070313 30.66351563 -38.9375 31.6875 C-38.57785156 32.67363281 -38.21820313 33.65976563 -37.84765625 34.67578125 C-37.16614035 36.5670563 -36.5107189 38.46784329 -35.875 40.375 C-34.95267578 40.32279297 -34.95267578 40.32279297 -34.01171875 40.26953125 C-33.20347656 40.24246094 -32.39523438 40.21539062 -31.5625 40.1875 C-30.36173828 40.13529297 -30.36173828 40.13529297 -29.13671875 40.08203125 C-26.875 40.375 -26.875 40.375 -25.12890625 41.5625 C-22.93865463 44.72847118 -23.10991202 47.75098205 -23.1796875 51.50390625 C-24.45226398 56.75864621 -28.55649761 59.45962113 -32.875 62.375 C-36.05378694 63.96439347 -38.3706772 63.79076711 -41.875 63.375 C-45.65712285 60.07570134 -46.7201105 58.68049722 -47.3125 53.6875 C-46.875 50.375 -46.875 50.375 -44.875 47.375 C-45.83229916 46.24911986 -46.79087895 45.1243285 -47.75 44 C-48.28367187 43.37351562 -48.81734375 42.74703125 -49.3671875 42.1015625 C-50.48932007 40.81663349 -51.66871975 39.58128025 -52.875 38.375 C-53.535 38.375 -54.195 38.375 -54.875 38.375 C-55.11863281 38.94476563 -55.36226562 39.51453125 -55.61328125 40.1015625 C-57.0948878 42.7712065 -58.9159343 44.58443814 -61.0625 46.75 C-63.24993966 49.03499389 -63.24993966 49.03499389 -64.875 51.375 C-64.56696545 54.56022204 -64.56696545 54.56022204 -63.875 57.375 C-66.90351262 60.85778951 -68.53235957 62.13806345 -73.0625 62.9375 C-77.88844333 62.22547557 -85.2854105 60.9645895 -88.875 57.375 C-89.36567382 53.1224936 -89.35242748 51.061302 -86.875 47.5 C-83.875 45.375 -83.875 45.375 -80.0625 45.375 C-77.93574124 45.3880238 -77.93574124 45.3880238 -75.875 44.375 C-72.68470231 40.30442685 -70.3149755 35.92274776 -67.875 31.375 C-67.215 30.385 -66.555 29.395 -65.875 28.375 C-67.80460571 28.61947876 -67.80460571 28.61947876 -69.77319336 28.86889648 C-74.6997557 29.41415505 -79.55170329 29.50350688 -84.50390625 29.47265625 C-85.37901352 29.4712413 -86.25412079 29.46982635 -87.15574646 29.46836853 C-89.91636762 29.46282719 -92.67690388 29.45028612 -95.4375 29.4375 C-97.32356653 29.4324774 -99.20963434 29.42791583 -101.09570312 29.42382812 C-105.68886011 29.41373327 -110.28183643 29.39414705 -114.875 29.375 C-114.875 21.455 -114.875 13.535 -114.875 5.375 C-110.42 6.365 -110.42 6.365 -105.875 7.375 C-103.42257525 7.64410665 -100.96292462 7.85575062 -98.5 8 C-97.31664063 8.07476562 -96.13328125 8.14953125 -94.9140625 8.2265625 C-85.4751882 8.63439288 -76.2206327 8.15873432 -66.8125 7.375 C-57.09904248 6.6294595 -47.43046805 6.15874919 -37.6875 6.125 C-36.63232178 6.11597656 -35.57714355 6.10695312 -34.48999023 6.09765625 C-25.21704695 6.13348506 -17.44536905 7.94685238 -8.875 11.375 C-8.60945313 10.74851563 -8.34390625 10.12203125 -8.0703125 9.4765625 C-7.71710938 8.65929687 -7.36390625 7.84203125 -7 7 C-6.65195313 6.18789062 -6.30390625 5.37578125 -5.9453125 4.5390625 C-4.3709171 1.35579589 -3.57803008 0.46669958 0 0 Z " fill="#F9F9F9" transform="translate(114.875,219.625)"/>
<path d="M0 0 C2.8125 -0.1875 2.8125 -0.1875 6 0 C7 1 8 2 9 3 C15.47083003 5.07525149 21.41141432 5.24994212 28.16796875 5.16015625 C29.2571611 5.15463745 30.34635345 5.14911865 31.46855164 5.14343262 C33.8178252 5.13109227 36.16707948 5.11448167 38.51629639 5.09402466 C44.77770738 5.04025787 51.03917966 5.01861565 57.30078125 5 C59.23244141 4.9937838 59.23244141 4.9937838 61.203125 4.98744202 C77.41229646 4.95866797 93.61370822 5.33435472 109.81713867 5.73266602 C110.89429642 5.75735962 111.97145416 5.78205322 113.08125305 5.80749512 C115.09527242 5.85391321 117.10919602 5.90477372 119.12297058 5.96081543 C120.44631157 5.99096741 120.44631157 5.99096741 121.79638672 6.02172852 C122.56457733 6.04171402 123.33276794 6.06169952 124.12423706 6.08229065 C126.0924287 6.12361173 126.0924287 6.12361173 128 5 C131.03566911 4.76089183 134.08095166 4.81479913 137.125 4.8125 C138.37023437 4.79413086 138.37023437 4.79413086 139.640625 4.77539062 C146.3283327 4.75966717 153.1906553 5.34226445 159 9 C159.42667969 9.46148437 159.85335937 9.92296875 160.29296875 10.3984375 C162.9975484 12.93591497 166.33120593 14.35011728 169.625 16.01171875 C174.01917804 19.69039741 174.99427916 24.83672162 175.6171875 30.3671875 C175.72209306 31.86858663 175.80765993 33.37144759 175.875 34.875 C175.91254395 35.66366455 175.95008789 36.4523291 175.98876953 37.26489258 C176.27663329 46.52514559 174.29214193 54.04285919 168 61 C162.69554711 66.38085279 158.19286413 67.70523678 150.71362305 67.88330078 C149.57062744 67.88056152 148.42763184 67.87782227 147.25 67.875 C146.0535083 67.8941748 144.8570166 67.91334961 143.62426758 67.93310547 C140.0824586 67.98283335 136.54211111 67.99384427 133 68 C131.18616451 68.02360067 129.37235524 68.04939485 127.55859375 68.078125 C114.02532285 68.24209193 100.1544274 68.25064747 86.72265625 66.47265625 C78.59603524 65.44083973 70.49840803 65.91088485 62.375 66.78125 C56.14473547 67.35509015 49.86288457 66.66520367 43.63769531 66.25537109 C41.63908688 66.12591247 39.63984991 66.00628024 37.640625 65.88671875 C36.36960937 65.80292969 35.09859375 65.71914063 33.7890625 65.6328125 C32.63100098 65.55949707 31.47293945 65.48618164 30.27978516 65.41064453 C26.94747647 64.99342381 24.14301003 64.16096136 21 63 C19.865625 62.62875 18.73125 62.2575 17.5625 61.875 C10.70420537 58.84035636 6.45523899 52.07424207 3.69140625 45.35546875 C2.95117812 42.83367463 2.71897532 40.55745849 2.5625 37.9375 C2.27383191 33.27551038 0.83709453 30.65071581 -1.7890625 26.86328125 C-4.96470506 21.97688932 -6.0453083 15.71367548 -5 10 C-3.57222581 6.52259876 -1.86966857 3.25856521 0 0 Z M2 3 C-1.20056327 7.39571031 -3.17210159 11.0337393 -2.6875 16.5703125 C-0.75050496 24.17301803 1.40130732 28.68547017 8 33 C8.309375 32.05125 8.61875 31.1025 8.9375 30.125 C10 27 10 27 11 25 C10.67 24.34 10.34 23.68 10 23 C12.31 23.33 14.62 23.66 17 24 C17 24.66 17 25.32 17 26 C16.401875 26.185625 15.80375 26.37125 15.1875 26.5625 C11.99950687 28.65746692 11.45644444 31.54094446 10 35 C7.8125 36.9375 7.8125 36.9375 6 38 C6.43386428 44.79720708 8.71901136 50.62717707 13.53515625 55.578125 C25.47522139 64.94952365 42.73368679 63.15052382 57 63 C56.98710937 61.8965625 56.97421875 60.793125 56.9609375 59.65625 C57 56 57 56 57.625 53.5 C58.20619921 50.81449175 58.20619921 50.81449175 57 47.5625 C55.9369034 43.77521835 56.32627014 41.78973046 57 38 C56.17657468 35.68019054 56.17657468 35.68019054 55 34 C57.92512762 36.43505389 57.92512762 36.43505389 58.2578125 38.9453125 C58.21398437 39.66460937 58.17015625 40.38390625 58.125 41.125 C57.96429211 45.84675096 58.3919686 50.32341282 59 55 C59.17893286 56.42571265 59.3572786 57.85149906 59.53515625 59.27734375 C59.68855469 60.50582031 59.84195313 61.73429687 60 63 C61.31613281 62.90460938 62.63226563 62.80921875 63.98828125 62.7109375 C80.13303317 61.64939006 80.13303317 61.64939006 87.84765625 63.453125 C102.6439952 66.02002395 120.17962869 66.37125941 135 64 C137.44251927 57.47348346 138.25867587 53.77602761 136 47 C136.9375 44.1875 136.9375 44.1875 138 42 C137.67 41.34 137.34 40.68 137 40 C136.01 40 135.02 40 134 40 C134 39.01 134 38.02 134 37 C135.9375 37.625 135.9375 37.625 138 39 C139.0723094 42.79432556 138.93231135 45.27075458 138 49 C138.165 49.886875 138.33 50.77375 138.5 51.6875 C139.14190299 55.94010731 138.61116813 59.76883603 138 64 C142.67661056 64.08468711 147.17531996 64.1216741 151.8125 63.4375 C155 63 155 63 157.5 63.8125 C160.60164164 64.04512312 161.18668047 63.41175287 163.5625 61.5 C166.91032743 58.34098713 169.11705826 55.18047615 171 51 C171.32226562 50.35546875 171.64453125 49.7109375 171.9765625 49.046875 C175.54148085 40.6770667 173.41424912 31.35760137 170.5625 23 C167.88947491 17.47850029 162.37709586 15.36406801 157 13 C155.91599105 18.7175801 155.91599105 18.7175801 157.25 24.25 C158.42159507 30.10797537 155.88541581 34.90217422 153 40 C152.01 40.66 151.02 41.32 150 42 C150.52851562 41.04738281 151.05703125 40.09476562 151.6015625 39.11328125 C152.27698801 37.84685843 152.95141527 36.57990285 153.625 35.3125 C153.975625 34.68666016 154.32625 34.06082031 154.6875 33.41601562 C156.32195389 30.29420869 157.16831634 28.6373228 156.25 25.16015625 C155.63125 24.09087891 155.63125 24.09087891 155 23 C154.07556986 20.22670957 154.0267192 18.50124151 154.1875 15.5 C154.2816013 12.06955642 154.2816013 12.06955642 152.65625 9.80078125 C148.45579586 6.95312043 144.2592073 7.53860246 139.3125 7.6875 C138.33732422 7.69716797 137.36214844 7.70683594 136.35742188 7.71679688 C131.83867632 7.38617701 131.83867632 7.38617701 128 9 C125.98035801 9.07244053 123.95832876 9.08377188 121.9375 9.0625 C120.83277344 9.05347656 119.72804688 9.04445312 118.58984375 9.03515625 C117.73519531 9.02355469 116.88054687 9.01195312 116 9 C116.01160156 9.61746094 116.02320313 10.23492187 116.03515625 10.87109375 C116.08894661 15.91970297 115.92444046 20.82368002 115.27734375 25.83203125 C115.0915947 27.28401325 114.9381839 28.74047797 114.81640625 30.19921875 C114.44335142 34.31804865 113.90156943 36.97227538 111 40 C111 37.59411466 111.70979414 35.99839035 112.5625 33.75 C113.96505902 29.6916695 113.84584573 27.22922865 113 23 C113.350625 22.01 113.70125 21.02 114.0625 20 C115.41997215 15.65608912 113.96348052 12.92696104 112 9 C104.74 9 97.48 9 90 9 C88.53691078 15.88512576 87.86947155 21.09121505 89 28 C88.67 28.66 88.34 29.32 88 30 C87.34 29.67 86.68 29.34 86 29 C86.495 28.505 86.495 28.505 87 28 C87.13961241 24.92852697 87.04131994 22.20659968 86.4375 19.1875 C86.293125 18.465625 86.14875 17.74375 86 17 C86.33 16.67 86.66 16.34 87 16 C87.04063832 14.33382885 87.042721 12.66611905 87 11 C86.34 11 85.68 11 85 11 C84.505 9.515 84.505 9.515 84 8 C78.21590487 7.97529951 72.43184038 7.95713977 66.64770508 7.94506836 C64.67960068 7.9400365 62.71150003 7.93321042 60.7434082 7.92456055 C57.91616899 7.91244483 55.08897916 7.90676024 52.26171875 7.90234375 C50.93970711 7.89460182 50.93970711 7.89460182 49.59098816 7.88670349 C48.3600518 7.88659019 48.3600518 7.88659019 47.10424805 7.88647461 C46.38254929 7.884254 45.66085052 7.88203339 44.9172821 7.87974548 C42.77773199 7.93174401 42.77773199 7.93174401 40 9 C39.19078631 11.69737896 38.54117383 14.25209793 38 17 C37.7215625 18.2065625 37.7215625 18.2065625 37.4375 19.4375 C36.97731213 21.91344677 36.97731213 21.91344677 36.82421875 24.09375 C36.40332248 29.04547086 35.57856056 32.62765819 33 37 C32.01 37 31.02 37 30 37 C30.639375 36.29875 31.27875 35.5975 31.9375 34.875 C34.20191565 31.71854182 34.59487586 29.80816696 35 26 C35.20625 25.319375 35.4125 24.63875 35.625 23.9375 C36.15393796 21.88232882 36.15393796 21.88232882 35.4375 19.375 C35.293125 18.59125 35.14875 17.8075 35 17 C35.66 16.34 36.32 15.68 37 15 C36.67801034 11.90073181 36.67801034 11.90073181 36 9 C34.51113281 8.94392578 34.51113281 8.94392578 32.9921875 8.88671875 C10.69180146 7.87331587 10.69180146 7.87331587 2 3 Z " fill="#101010" transform="translate(429,216)"/>
<path d="M0 0 C3.125 0.375 3.125 0.375 5.5 1.75 C7.37465743 4.77829278 7.23154586 5.90187594 7.0625 9.375 C6.87830151 11.99142136 6.87830151 11.99142136 7.125 14.375 C9.54380929 16.64377535 9.54380929 16.64377535 12.125 18.375 C12.88499656 22.25942688 12.25139393 24.10704488 10.5625 27.6875 C8.125 30.375 8.125 30.375 4.9375 31.25 C3.0503125 31.311875 3.0503125 31.311875 1.125 31.375 C0.13693359 31.46587891 0.13693359 31.46587891 -0.87109375 31.55859375 C-5.60432223 31.84519291 -9.22452141 31.01468578 -13.6875 29.4375 C-22.53312099 26.45736817 -31.61614414 26.55962325 -40.875 26.375 C-40.59785156 27.13425781 -40.32070312 27.89351562 -40.03515625 28.67578125 C-39.67292969 29.66964844 -39.31070313 30.66351563 -38.9375 31.6875 C-38.57785156 32.67363281 -38.21820313 33.65976563 -37.84765625 34.67578125 C-37.16614035 36.5670563 -36.5107189 38.46784329 -35.875 40.375 C-34.95267578 40.32279297 -34.95267578 40.32279297 -34.01171875 40.26953125 C-33.20347656 40.24246094 -32.39523438 40.21539062 -31.5625 40.1875 C-30.36173828 40.13529297 -30.36173828 40.13529297 -29.13671875 40.08203125 C-26.875 40.375 -26.875 40.375 -25.12890625 41.5625 C-22.93865463 44.72847118 -23.10991202 47.75098205 -23.1796875 51.50390625 C-24.45226398 56.75864621 -28.55649761 59.45962113 -32.875 62.375 C-36.05378694 63.96439347 -38.3706772 63.79076711 -41.875 63.375 C-45.65712285 60.07570134 -46.7201105 58.68049722 -47.3125 53.6875 C-46.875 50.375 -46.875 50.375 -44.875 47.375 C-45.83229916 46.24911986 -46.79087895 45.1243285 -47.75 44 C-48.28367187 43.37351562 -48.81734375 42.74703125 -49.3671875 42.1015625 C-50.48932007 40.81663349 -51.66871975 39.58128025 -52.875 38.375 C-53.535 38.375 -54.195 38.375 -54.875 38.375 C-55.11863281 38.94476563 -55.36226562 39.51453125 -55.61328125 40.1015625 C-57.0948878 42.7712065 -58.9159343 44.58443814 -61.0625 46.75 C-63.24993966 49.03499389 -63.24993966 49.03499389 -64.875 51.375 C-64.56696545 54.56022204 -64.56696545 54.56022204 -63.875 57.375 C-66.90351262 60.85778951 -68.53235957 62.13806345 -73.0625 62.9375 C-77.88844333 62.22547557 -85.2854105 60.9645895 -88.875 57.375 C-89.36567382 53.1224936 -89.35242748 51.061302 -86.875 47.5 C-83.875 45.375 -83.875 45.375 -80.0625 45.375 C-77.93574124 45.3880238 -77.93574124 45.3880238 -75.875 44.375 C-72.68470231 40.30442685 -70.3149755 35.92274776 -67.875 31.375 C-67.215 30.385 -66.555 29.395 -65.875 28.375 C-67.80460571 28.61947876 -67.80460571 28.61947876 -69.77319336 28.86889648 C-74.6997557 29.41415505 -79.55170329 29.50350688 -84.50390625 29.47265625 C-85.37901352 29.4712413 -86.25412079 29.46982635 -87.15574646 29.46836853 C-89.91636762 29.46282719 -92.67690388 29.45028612 -95.4375 29.4375 C-97.32356653 29.4324774 -99.20963434 29.42791583 -101.09570312 29.42382812 C-105.68883417 29.41287707 -110.28190275 29.39565384 -114.875 29.375 C-114.875 28.385 -114.875 27.395 -114.875 26.375 C-109.2742144 26.08594703 -103.6732269 25.80130829 -98.07202148 25.52050781 C-96.17222246 25.42467369 -94.27248066 25.32769741 -92.37280273 25.22949219 C-81.86488286 24.68707652 -71.40016892 24.19833322 -60.875 24.375 C-61.75939295 28.74473214 -64.12151435 31.74287042 -66.75 35.25 C-69.31995057 38.69388188 -71.62747508 41.81402968 -73.37109375 45.765625 C-74.875 48.375 -74.875 48.375 -77.35546875 49.1796875 C-78.24878906 49.20289063 -79.14210937 49.22609375 -80.0625 49.25 C-81.41408203 49.30800781 -81.41408203 49.30800781 -82.79296875 49.3671875 C-83.48003906 49.36976563 -84.16710937 49.37234375 -84.875 49.375 C-84.875 51.355 -84.875 53.335 -84.875 55.375 C-78.85018874 57.86802535 -74.31747295 59.52249098 -67.875 57.375 C-68.390625 56.611875 -68.90625 55.84875 -69.4375 55.0625 C-69.911875 54.175625 -70.38625 53.28875 -70.875 52.375 C-69.875 49.375 -69.875 49.375 -67.3125 47.875 C-61.23854682 44.11003144 -56.82618457 36.75919519 -53.875 30.375 C-49.69853116 34.3194428 -46.22620818 38.3347816 -43.875 43.625 C-42.59317647 45.86819118 -41.23253848 46.43198461 -38.875 47.375 C-38.875 48.035 -38.875 48.695 -38.875 49.375 C-40.875 51 -40.875 51 -42.875 52.375 C-42.38 55.345 -42.38 55.345 -41.875 58.375 C-38.33777016 59.27987275 -36.5035798 59.66071809 -33.125 58.125 C-30.66418149 56.40135231 -30.66418149 56.40135231 -28.875 53.375 C-28.215 53.375 -27.555 53.375 -26.875 53.375 C-27.37 49.415 -27.37 49.415 -27.875 45.375 C-28.52726562 45.44203125 -29.17953125 45.5090625 -29.8515625 45.578125 C-32.88477704 45.63181021 -35.02493153 45.45282859 -37.875 44.375 C-40.70368258 40.70646116 -42.26188216 36.69261904 -43.875 32.375 C-44.38353516 31.10076172 -44.38353516 31.10076172 -44.90234375 29.80078125 C-45.60092935 28.00763757 -46.24550242 26.19354857 -46.875 24.375 C-43.99757552 21.49757552 -35.16892661 23.06536612 -31.2890625 23.04492188 C-24.11402863 23.10853033 -18.67423259 23.91494309 -11.98828125 26.484375 C-5.79132162 28.25715643 0.73900309 27.67011667 7.125 27.375 C7.455 24.735 7.785 22.095 8.125 19.375 C6.8875 18.9728125 6.8875 18.9728125 5.625 18.5625 C3.125 16.375 3.125 16.375 2.79296875 13.7265625 C2.81095038 10.92862123 2.91187688 8.16454481 3.125 5.375 C1.805 4.715 0.485 4.055 -0.875 3.375 C-3.29185712 7.60449995 -4.22333144 10.49835991 -3.875 15.375 C-5.56425678 15.11534932 -7.25135305 14.84163334 -8.9375 14.5625 C-9.87722656 14.41167969 -10.81695312 14.26085937 -11.78515625 14.10546875 C-14.875 13.375 -14.875 13.375 -17.86328125 11.8203125 C-23.53862683 9.28716099 -29.91668305 9.98040601 -36 10.0625 C-37.34553907 10.07116639 -38.69107948 10.07962807 -40.03662109 10.08789062 C-49.60164746 10.18234618 -59.04068249 10.88526534 -68.546875 11.921875 C-78.00787655 12.94971691 -87.22956426 12.26418823 -96.6875 11.5 C-97.67927246 11.42168945 -98.67104492 11.34337891 -99.69287109 11.26269531 C-104.99858812 10.79462293 -109.81611576 10.05423912 -114.875 8.375 C-114.545 7.385 -114.215 6.395 -113.875 5.375 C-112.3590625 5.8390625 -112.3590625 5.8390625 -110.8125 6.3125 C-96.6967392 9.8414402 -81.14928011 8.56930996 -66.8125 7.375 C-57.09904248 6.6294595 -47.43046805 6.15874919 -37.6875 6.125 C-36.63232178 6.11597656 -35.57714355 6.10695312 -34.48999023 6.09765625 C-25.21704695 6.13348506 -17.44536905 7.94685238 -8.875 11.375 C-8.60945313 10.74851563 -8.34390625 10.12203125 -8.0703125 9.4765625 C-7.71710938 8.65929687 -7.36390625 7.84203125 -7 7 C-6.65195313 6.18789062 -6.30390625 5.37578125 -5.9453125 4.5390625 C-4.3709171 1.35579589 -3.57803008 0.46669958 0 0 Z " fill="#111111" transform="translate(114.875,219.625)"/>
<path d="M0 0 C3.125 0.375 3.125 0.375 5.5 1.75 C7.37465743 4.77829278 7.23154586 5.90187594 7.0625 9.375 C6.87830151 11.99142136 6.87830151 11.99142136 7.125 14.375 C9.54380929 16.64377535 9.54380929 16.64377535 12.125 18.375 C12.4375 21.625 12.4375 21.625 12.125 24.375 C10.64 23.88 10.64 23.88 9.125 23.375 C8.815625 22.570625 8.50625 21.76625 8.1875 20.9375 C7.25304732 17.89324821 7.25304732 17.89324821 3.125 16.375 C3.125 12.745 3.125 9.115 3.125 5.375 C1.805 4.715 0.485 4.055 -0.875 3.375 C-3.29185712 7.60449995 -4.22333144 10.49835991 -3.875 15.375 C-5.56425678 15.11534932 -7.25135305 14.84163334 -8.9375 14.5625 C-9.87722656 14.41167969 -10.81695312 14.26085937 -11.78515625 14.10546875 C-14.875 13.375 -14.875 13.375 -17.86328125 11.8203125 C-23.53862683 9.28716099 -29.91668305 9.98040601 -36 10.0625 C-37.34553907 10.07116639 -38.69107948 10.07962807 -40.03662109 10.08789062 C-49.60164746 10.18234618 -59.04068249 10.88526534 -68.546875 11.921875 C-78.00787655 12.94971691 -87.22956426 12.26418823 -96.6875 11.5 C-97.67927246 11.42168945 -98.67104492 11.34337891 -99.69287109 11.26269531 C-104.99858812 10.79462293 -109.81611576 10.05423912 -114.875 8.375 C-114.545 7.385 -114.215 6.395 -113.875 5.375 C-112.3590625 5.8390625 -112.3590625 5.8390625 -110.8125 6.3125 C-96.6967392 9.8414402 -81.14928011 8.56930996 -66.8125 7.375 C-57.09904248 6.6294595 -47.43046805 6.15874919 -37.6875 6.125 C-36.63232178 6.11597656 -35.57714355 6.10695312 -34.48999023 6.09765625 C-25.21704695 6.13348506 -17.44536905 7.94685238 -8.875 11.375 C-8.60945313 10.74851563 -8.34390625 10.12203125 -8.0703125 9.4765625 C-7.71710938 8.65929687 -7.36390625 7.84203125 -7 7 C-6.65195313 6.18789062 -6.30390625 5.37578125 -5.9453125 4.5390625 C-4.3709171 1.35579589 -3.57803008 0.46669958 0 0 Z " fill="#181818" transform="translate(114.875,219.625)"/>
<path d="M0 0 C0.33 0.99 0.66 1.98 1 3 C1.66 3 2.32 3 3 3 C3.21914063 3.95261719 3.43828125 4.90523437 3.6640625 5.88671875 C5.38891549 13.98459627 5.38891549 13.98459627 10.25 20.375 C11.1575 20.91125 12.065 21.4475 13 22 C13.144375 21.2575 13.28875 20.515 13.4375 19.75 C13.90187492 17.47972261 14.41863569 15.24240521 15 13 C17.31 13.33 19.62 13.66 22 14 C22 14.66 22 15.32 22 16 C21.38125 16.4125 20.7625 16.825 20.125 17.25 C17.36840385 19.52013801 17.04983163 21.64053879 16 25 C14.5 26.875 14.5 26.875 13 28 C12.34 28 11.68 28 11 28 C10.01 30.475 10.01 30.475 9 33 C8.67 33 8.34 33 8 33 C7.98582031 32.3709375 7.97164063 31.741875 7.95703125 31.09375 C7.63073728 25.23809599 6.53814961 21.66177502 3.2109375 16.86328125 C-0.21664757 11.58922294 -0.21195647 6.04075942 0 0 Z " fill="#131313" transform="translate(424,226)"/>
<path d="M0 0 C0.33 0 0.66 0 1 0 C1.50588674 8.09418785 -0.88682972 14.6430856 -6 21 C-9.37910814 24.64092766 -12.09547378 26.90897485 -17.1875 27.15234375 C-20.16546891 26.90300909 -23.06154998 26.53871584 -26 26 C-25 24 -25 24 -22.25 22.8125 C-19 22 -19 22 -16.5 22.6875 C-13.74666541 23.30521575 -13.74666541 23.30521575 -10.9375 21 C-5.5370475 15.94573035 -3.49663324 10.00430842 -1.61328125 3.0390625 C-1 1 -1 1 0 0 Z " fill="#060606" transform="translate(603,256)"/>
<path d="M0 0 C0.66 0 1.32 0 2 0 C1.39971596 1.69170958 0.70710678 3.35008418 0 5 C-0.29519531 5.75925781 -0.59039062 6.51851563 -0.89453125 7.30078125 C-2.06172983 9.88676537 -3.09632753 11.8872285 -5 14 C-8.37107956 15.05830216 -11.4864798 15.17055923 -15 15 C-15.103125 15.94875 -15.20625 16.8975 -15.3125 17.875 C-16 21 -16 21 -19 23 C-19.41454364 18.77165483 -19.46495343 16.66837056 -17 13.125 C-14 11 -14 11 -10.0625 10.8125 C-7.96819513 10.80929368 -7.96819513 10.80929368 -6 10 C-4.04843418 7.50371142 -2.64713409 4.98158271 -1.2265625 2.15234375 C-0.82179688 1.44207031 -0.41703125 0.73179687 0 0 Z " fill="#121212" transform="translate(45,254)"/>
<path d="M0 0 C0.66 0.66 1.32 1.32 2 2 C1.67 2.680625 1.34 3.36125 1 4.0625 C-0.18453566 6.99578446 -0.18453566 6.99578446 0.0625 10.25 C-0.02360065 15.41603921 -1.03554646 20.83957907 -4.60546875 24.765625 C-5.06566406 25.17296875 -5.52585937 25.5803125 -6 26 C-6.99 25.67 -7.98 25.34 -9 25 C-8.360625 24.13375 -7.72125 23.2675 -7.0625 22.375 C-4.99019986 18.98396341 -4.42247465 16.88676677 -4 13 C-3.79375 12.319375 -3.5875 11.63875 -3.375 10.9375 C-2.83067246 8.89287506 -2.83067246 8.89287506 -3.6875 6.5 C-3.790625 5.675 -3.89375 4.85 -4 4 C-2.0625 1.6875 -2.0625 1.6875 0 0 Z " fill="#000000" transform="translate(467,229)"/>
<path d="M0 0 C2.60427663 2.60427663 2.50528695 4.39566205 3 8 C3.32871094 9.1446875 3.32871094 9.1446875 3.6640625 10.3125 C4.10572171 13.84577369 3.19396203 15.92627731 1.8125 19.1875 C1.38582031 20.23292969 0.95914063 21.27835938 0.51953125 22.35546875 C-1.09002716 25.15667966 -2.00308155 25.95396637 -5 27 C-4.00734643 24.46170776 -2.98445893 21.96695587 -1.82421875 19.5 C-0.69196301 17.00981554 0.30720879 14.64839171 1 12 C-0.20968895 9.2332494 -0.20968895 9.2332494 -2 7 C-1.58333333 1.58333333 -1.58333333 1.58333333 0 0 Z " fill="#000000" transform="translate(584,231)"/>
<path d="M0 0 C2 2 2 2 2.01171875 4.3203125 C1.90472656 5.24585938 1.79773438 6.17140625 1.6875 7.125 C1.51927734 8.60226563 1.51927734 8.60226563 1.34765625 10.109375 C1.23292969 11.06328125 1.11820313 12.0171875 1 13 C0.93683594 13.76828125 0.87367188 14.5365625 0.80859375 15.328125 C0.42512106 19.6034375 -0.49052942 22.50856266 -3 26 C-3.99 25.34 -4.98 24.68 -6 24 C-5.34 23.34 -4.68 22.68 -4 22 C-3.27982196 19.71171706 -3.27982196 19.71171706 -2.8125 17.125 C-2.63332031 16.26132813 -2.45414063 15.39765625 -2.26953125 14.5078125 C-1.85548873 12.05460461 -1.85548873 12.05460461 -2.5390625 9.9453125 C-3.13919757 7.41253908 -2.55294951 6.12707883 -1.5625 3.75 C-1.27503906 3.04359375 -0.98757813 2.3371875 -0.69140625 1.609375 C-0.34916016 0.81273437 -0.34916016 0.81273437 0 0 Z " fill="#000000" transform="translate(544,231)"/>
<path d="M0 0 C1.875 0.1875 1.875 0.1875 4 1 C6.38879811 4.98133018 5.79447983 7.58622317 5 12 C5.2644354 14.34214207 5.58244638 16.68025766 6 19 C5.01 18.67 4.02 18.34 3 18 C0.62790698 11.22259136 0.62790698 11.22259136 1.875 7.125 C2.24625 6.42375 2.6175 5.7225 3 5 C3 4.34 3 3.68 3 3 C2.01 3 1.02 3 0 3 C0 2.01 0 1.02 0 0 Z " fill="#000000" transform="translate(563,253)"/>
<path d="M0 0 C0.99 0.33 1.98 0.66 3 1 C4.00344253 7.30735307 4.50873071 13.63440427 5 20 C4.01 19.67 3.02 19.34 2 19 C-0.08254633 13.95301272 -0.10550722 9.28186783 1 4 C0.6422386 1.72349255 0.6422386 1.72349255 0 0 Z " fill="#000000" transform="translate(484,250)"/>
<path d="M0 0 C0.33 0 0.66 0 1 0 C0.94199219 0.67546875 0.88398437 1.3509375 0.82421875 2.046875 C0.68629339 4.77385643 0.63572473 7.29150621 1 10 C3.41880929 12.26877535 3.41880929 12.26877535 6 14 C6.3125 17.25 6.3125 17.25 6 20 C5.01 19.67 4.02 19.34 3 19 C2.690625 18.195625 2.38125 17.39125 2.0625 16.5625 C1.23391841 13.85842507 1.23391841 13.85842507 -1.125 12.6875 C-1.74375 12.460625 -2.3625 12.23375 -3 12 C-3 10.68 -3 9.36 -3 8 C-2.34 7.67 -1.68 7.34 -1 7 C-0.59270772 4.67843403 -0.25561323 2.3431213 0 0 Z " fill="#242424" transform="translate(121,224)"/>
<path d="M0 0 C0.66 0.33 1.32 0.66 2 1 C1.814375 1.66 1.62875 2.32 1.4375 3 C1.03842212 5.73653403 1.13760553 7.4471767 1.5625 10.125 C2 14 2 14 0 17 C-0.99 16.67 -1.98 16.34 -3 16 C-2.67 15.34 -2.34 14.68 -2 14 C-1.86270799 10.91092972 -1.91919487 8.31587458 -2.6875 5.3125 C-2.790625 4.549375 -2.89375 3.78625 -3 3 C-1.5625 1.1875 -1.5625 1.1875 0 0 Z " fill="#000000" transform="translate(517,230)"/>
<path d="M0 0 C1.75 0.9375 1.75 0.9375 2.75 2.9375 C0.77 3.2675 -1.21 3.5975 -3.25 3.9375 C-3.353125 4.88625 -3.45625 5.835 -3.5625 6.8125 C-4.25 9.9375 -4.25 9.9375 -7.25 11.9375 C-7.68497796 7.50072479 -7.72502251 5.57086334 -5 1.9375 C-2.25 -0.0625 -2.25 -0.0625 0 0 Z " fill="#2D2D2D" transform="translate(33.25,265.0625)"/>
<path d="M0 0 C0.33 0 0.66 0 1 0 C1.33 5.94 1.66 11.88 2 18 C-0.49059397 13.01881207 -1.2136995 10.24901803 -0.5625 4.75 C-0.46066406 3.85796875 -0.35882812 2.9659375 -0.25390625 2.046875 C-0.17011719 1.37140625 -0.08632813 0.6959375 0 0 Z " fill="#242424" transform="translate(603,242)"/>
<path d="M0 0 C1.32 0.33 2.64 0.66 4 1 C2.8141763 4.37503669 1.72426311 6.64722731 -1 9 C-1 5 -1 5 1 2 C0.67 1.34 0.34 0.68 0 0 Z " fill="#202020" transform="translate(48,246)"/>
</svg>
