<?xml version="1.0" encoding="UTF-8"?>
<svg version="1.1" xmlns="http://www.w3.org/2000/svg" width="800" height="300">
<path d="M0 0 C264 0 528 0 800 0 C800 99 800 198 800 300 C536 300 272 300 0 300 C0 201 0 102 0 0 Z " fill="#FEFEFE" transform="translate(0,0)"/>
<path d="M0 0 C3 1.125 3 1.125 5 3.6875 C9.32001529 7.19751242 13.01420795 6.59726205 18.4296875 6.49609375 C22.01158558 6.23583078 22.01158558 6.23583078 25.37890625 5.11328125 C29.72194312 3.92796482 33.58676641 3.82463072 38.0625 3.875 C38.917229 3.87959229 39.77195801 3.88418457 40.65258789 3.88891602 C51.61101098 4.03859687 63.01807355 4.52413677 73.78515625 6.68359375 C80.82494371 8.0865849 88.40862453 7.17685983 95.53857422 6.76416016 C105.97627002 6.1740504 116.4101612 5.95654549 126.86279297 5.89282227 C128.52755234 5.88101202 130.19228348 5.86398605 131.85693359 5.84155273 C134.22511537 5.81141051 136.59258459 5.80161354 138.9609375 5.796875 C139.6675351 5.78456848 140.37413269 5.77226196 141.10214233 5.75958252 C146.17862453 5.78191008 149.57350682 6.81558656 154 9.125 C155.125 11.0625 155.125 11.0625 156 13.125 C157.65788785 14.46923339 159.32576317 15.80118483 161 17.125 C166.84894313 23.54457172 170.43621605 29.48716048 171.3125 38.25 C170.50377503 48.27818958 165.21584103 59.73516824 158.5 67.25 C153.59544727 70.92841455 147.51979135 70.25205331 141.61328125 70.1875 C140.79796432 70.18371338 139.9826474 70.17992676 139.1426239 70.17602539 C135.69405414 70.15997515 132.245609 70.13260761 128.79711914 70.10449219 C119.32798193 70.03416536 109.89614519 70.09692316 100.43473816 70.52130127 C85.70750233 71.18117987 71.09029734 71.04011423 56.35986328 70.51074219 C52.44729389 70.37314645 48.53447789 70.26017907 44.62109375 70.1484375 C42.09109647 70.06396567 39.56114587 69.97808136 37.03125 69.890625 C35.88217163 69.85922424 34.73309326 69.82782349 33.54919434 69.79547119 C23.3765977 69.39496198 11.83441329 68.06975681 4.34765625 60.44140625 C-1.82681152 52.93844664 -3.0637654 44.33844549 -4.4609375 34.97265625 C-4.94344294 32.42376882 -5.62919869 30.37782463 -6.625 28 C-8.28641092 23.3583262 -8.40171748 18.75701372 -8.5 13.875 C-8.5304541 13.09366699 -8.5609082 12.31233398 -8.59228516 11.50732422 C-8.59503932 7.23378247 -8.35530653 5.58571414 -5.65625 2.0859375 C-3 0.125 -3 0.125 0 0 Z " fill="#646464" transform="translate(433,214.875)"/>
<path d="M0 0 C2.4294516 3.6441774 2.16179575 5.71241272 2 10 C3.11375 10.0928125 3.11375 10.0928125 4.25 10.1875 C7.97501049 11.28807128 9.0467078 12.67216884 11 16 C11.64098532 19.46132073 11.6349196 21.7034835 10.0703125 24.8984375 C5.80810825 30.87561151 -0.06596913 31.82188796 -7 33 C-6.67 33.66 -6.34 34.32 -6 35 C-5.65291524 40.29304255 -5.48648106 43.73358414 -9 48 C-11.75455442 50.16429276 -13.05436738 49.99625053 -16.625 49.75 C-20 49 -20 49 -22 47 C-25.47481123 47.34066777 -28.78978418 47.95053745 -32.1875 48.75 C-38.71761824 49.17820447 -45.53369729 47.64420181 -51 44 C-51.268125 44.721875 -51.53625 45.44375 -51.8125 46.1875 C-53.00022534 49.00053369 -54.36578786 51.42297317 -56 54 C-56.66 55.093125 -57.32 56.18625 -58 57.3125 C-58.66 58.199375 -59.32 59.08625 -60 60 C-60.99 60 -61.98 60 -63 60 C-63 63.63 -63 67.26 -63 71 C-65.4178712 71.10826289 -67.83087556 71.18739789 -70.25 71.25 C-70.93191406 71.28351563 -71.61382812 71.31703125 -72.31640625 71.3515625 C-75.72777891 71.41780275 -77.63171119 71.26849442 -80.421875 69.234375 C-82.96211332 65.63779996 -83 63.41294208 -83 59 C-81.6875 56.5 -81.6875 56.5 -79 55 C-75.63893125 54.68440669 -72.36446981 54.76885322 -69 55 C-68.7525 54.21625 -68.505 53.4325 -68.25 52.625 C-66.65947992 48.01249178 -64.83309919 43.52164468 -63 39 C-69.93 38.67 -76.86 38.34 -84 38 C-84 31.73 -84 25.46 -84 19 C-74.6875 18.125 -74.6875 18.125 -71.7644043 17.86376953 C-71.00039307 17.78755371 -70.23638184 17.71133789 -69.44921875 17.6328125 C-68.66893311 17.55949707 -67.88864746 17.48618164 -67.0847168 17.41064453 C-64.70505767 17.08029789 -64.70505767 17.08029789 -62 15 C-59.97314453 14.63696289 -59.97314453 14.63696289 -57.6328125 14.47265625 C-56.7569751 14.4041748 -55.8811377 14.33569336 -54.97875977 14.26513672 C-54.03701904 14.1982666 -53.09527832 14.13139648 -52.125 14.0625 C-43.34163002 13.36414591 -34.67035856 12.33973138 -25.96728516 10.96508789 C-21.24307953 10.23796288 -16.78067511 9.85844569 -12 10 C-11.9175 9.0925 -11.835 8.185 -11.75 7.25 C-10.19190563 0.49825771 -6.6501055 -0.86205071 0 0 Z " fill="#F7F7F7" transform="translate(84,210)"/>
<path d="M0 0 C3 1.125 3 1.125 5 3.6875 C9.32001529 7.19751242 13.01420795 6.59726205 18.4296875 6.49609375 C22.01158558 6.23583078 22.01158558 6.23583078 25.37890625 5.11328125 C29.72194312 3.92796482 33.58676641 3.82463072 38.0625 3.875 C38.917229 3.87959229 39.77195801 3.88418457 40.65258789 3.88891602 C51.61101098 4.03859687 63.01807355 4.52413677 73.78515625 6.68359375 C80.82494371 8.0865849 88.40862453 7.17685983 95.53857422 6.76416016 C105.97627002 6.1740504 116.4101612 5.95654549 126.86279297 5.89282227 C128.52755234 5.88101202 130.19228348 5.86398605 131.85693359 5.84155273 C134.22511537 5.81141051 136.59258459 5.80161354 138.9609375 5.796875 C139.6675351 5.78456848 140.37413269 5.77226196 141.10214233 5.75958252 C146.17862453 5.78191008 149.57350682 6.81558656 154 9.125 C155.125 11.0625 155.125 11.0625 156 13.125 C157.65788785 14.46923339 159.32576317 15.80118483 161 17.125 C166.84894313 23.54457172 170.43621605 29.48716048 171.3125 38.25 C170.50377503 48.27818958 165.21584103 59.73516824 158.5 67.25 C153.59544727 70.92841455 147.51979135 70.25205331 141.61328125 70.1875 C140.79796432 70.18371338 139.9826474 70.17992676 139.1426239 70.17602539 C135.69405414 70.15997515 132.245609 70.13260761 128.79711914 70.10449219 C119.32798193 70.03416536 109.89614519 70.09692316 100.43473816 70.52130127 C85.70750233 71.18117987 71.09029734 71.04011423 56.35986328 70.51074219 C52.44729389 70.37314645 48.53447789 70.26017907 44.62109375 70.1484375 C42.09109647 70.06396567 39.56114587 69.97808136 37.03125 69.890625 C35.88217163 69.85922424 34.73309326 69.82782349 33.54919434 69.79547119 C23.3765977 69.39496198 11.83441329 68.06975681 4.34765625 60.44140625 C-1.82681152 52.93844664 -3.0637654 44.33844549 -4.4609375 34.97265625 C-4.94344294 32.42376882 -5.62919869 30.37782463 -6.625 28 C-8.28641092 23.3583262 -8.40171748 18.75701372 -8.5 13.875 C-8.5304541 13.09366699 -8.5609082 12.31233398 -8.59228516 11.50732422 C-8.59503932 7.23378247 -8.35530653 5.58571414 -5.65625 2.0859375 C-3 0.125 -3 0.125 0 0 Z M-2 3.125 C-5.34219637 6.76799404 -5.86682069 9.94781704 -6.19921875 14.7578125 C-5.95003152 18.96956534 -5.0251107 22.72175764 -3.8125 26.75 C-3.60431641 27.46124023 -3.39613281 28.17248047 -3.18164062 28.90527344 C-2.48498439 31.15772482 -2.48498439 31.15772482 -1 34.125 C1.05763303 35.20031087 1.05763303 35.20031087 3 35.125 C3 33.805 3 32.485 3 31.125 C3.99 31.125 4.98 31.125 6 31.125 C6.1546875 30.01125 6.1546875 30.01125 6.3125 28.875 C7.04253504 25.95485982 8.06789398 24.39312446 10 22.125 C9.39050431 26.2695707 7.96084772 29.4386063 6 33.125 C5.690625 33.8675 5.38125 34.61 5.0625 35.375 C3.7196378 37.58677303 2.28882417 38.01750443 0 39.125 C-1.80310102 44.53430306 0.85118344 50.03032809 3 55.125 C4.89597259 57.55165194 6.29919246 58.5397434 9 60.125 C9.66 60.125 10.32 60.125 11 60.125 C11 60.785 11 61.445 11 62.125 C21.26154022 65.59645722 30.67541799 66.20126388 41.4375 66.25 C42.77143799 66.25713013 42.77143799 66.25713013 44.13232422 66.2644043 C45.39520264 66.26114136 45.39520264 66.26114136 46.68359375 66.2578125 C47.82139282 66.25612061 47.82139282 66.25612061 48.98217773 66.25439453 C51.20626495 66.197839 51.20626495 66.197839 54 65.125 C54.20086443 61.40900809 54.1519437 60.35291555 52 57.125 C52.875 54.4375 52.875 54.4375 54 52.125 C53.01 51.135 52.02 50.145 51 49.125 C51.680625 48.568125 52.36125 48.01125 53.0625 47.4375 C55.28097119 45.29246056 55.28097119 45.29246056 55 42.5 C54.20423043 39.98006227 54.20423043 39.98006227 51.9375 38.8125 C51.298125 38.585625 50.65875 38.35875 50 38.125 C50.495 37.135 50.495 37.135 51 36.125 C52.875 36.75 52.875 36.75 55 38.125 C57.27878599 42.7910856 56.96687605 46.11482411 56 51.125 C54.96234078 57.03965756 55.10030096 61.42590287 57 67.125 C58.95486328 67.10953125 58.95486328 67.10953125 60.94921875 67.09375 C65.58771764 67.09375 70.18493274 67.33249253 74.8125 67.625 C81.91885989 68.03528471 89.0067453 68.23457722 96.125 68.25 C97.43174683 68.25676758 97.43174683 68.25676758 98.76489258 68.26367188 C102.69673607 68.64435259 102.69673607 68.64435259 106 67.125 C108.67250538 67.10412105 111.32900188 67.1313335 114 67.1875 C120.31908812 67.26676106 125.88847363 66.90289858 132 65.125 C132.94125778 61.46455306 133.65698407 57.89817527 134 54.125 C133.34 53.135 132.68 52.145 132 51.125 C133.98 48.155 133.98 48.155 136 45.125 C134.02 43.145 134.02 43.145 132 41.125 C133.32 41.455 134.64 41.785 136 42.125 C136.625 44.5 136.625 44.5 137 47.125 C136.01 48.115 136.01 48.115 135 49.125 C135.165 50.218125 135.33 51.31125 135.5 52.4375 C136.03296631 56.36812655 135.48213276 57.6049347 134 61.125 C134.27701774 62.80194665 134.60458862 64.47196076 135 66.125 C146.213767 67.99624647 146.213767 67.99624647 156.609375 64.953125 C163.05860623 58.23794609 167.90754151 47.33286442 169 38.125 C167.48779932 29.66347263 161.28652745 21.7130244 155 16.125 C154.01 15.63 154.01 15.63 153 15.125 C152.61781233 16.78114657 152.28604898 18.44957024 152 20.125 C152.33 20.455 152.66 20.785 153 21.125 C153.2165625 22.73375 153.2165625 22.73375 153.4375 24.375 C153.82799456 28.02222987 153.82799456 28.02222987 155.125 30.8125 C156.11341176 33.42473109 155.95398577 34.54923842 155 37.125 C152.525 37.62 152.525 37.62 150 38.125 C151 36.125 151 36.125 154 34.125 C153.505 33.238125 153.01 32.35125 152.5 31.4375 C151.05621326 28.24913762 150.69840078 26.54312454 151 23.125 C149.68 22.795 148.36 22.465 147 22.125 C148.98 17.67 148.98 17.67 151 13.125 C145.21350937 9.83307915 141.17561486 8.54587548 134.5625 8.734375 C133.79695801 8.74003479 133.03141602 8.74569458 132.24267578 8.75152588 C129.82777979 8.77369165 127.41443777 8.82384461 125 8.875 C123.35028204 8.89509085 121.70054052 8.91333706 120.05078125 8.9296875 C116.03326695 8.97349057 112.01689574 9.04237398 108 9.125 C108 9.785 108 10.445 108 11.125 C108.99 11.8984375 108.99 11.8984375 110 12.6875 C112.61592046 15.87565306 112.36839565 17.90694411 112.23828125 21.90625 C112 24.125 112 24.125 111.41796875 26.25390625 C110.7829888 28.25792357 110.7829888 28.25792357 112 30.5625 C113.20265703 33.64430863 113.24108827 35.06364894 112 38.125 C109.4375 39.4375 109.4375 39.4375 107 40.125 C108.65 38.145 110.3 36.165 112 34.125 C111.484375 33.238125 110.96875 32.35125 110.4375 31.4375 C108.8982735 27.89058677 108.80781918 26.70154245 110 23.125 C110.33 22.465 110.66 21.805 111 21.125 C110.01 21.125 109.02 21.125 108 21.125 C108.33 20.526875 108.66 19.92875 109 19.3125 C110.20787988 17.07113529 110.20787988 17.07113529 110 14.125 C107.17159994 11.10586005 105.50626342 10.18930472 101.37109375 9.6640625 C100.07300781 9.69242188 98.77492188 9.72078125 97.4375 9.75 C96.13683594 9.76289063 94.83617187 9.77578125 93.49609375 9.7890625 C90.3697929 10.08946683 88.60753355 10.46626365 86 12.125 C86.99 13.61 86.99 13.61 88 15.125 C87.67873872 17.75934254 87.18644952 19.75210097 86 22.125 C85.98012522 23.72917883 86.0072121 25.33415101 86.0625 26.9375 C86.10140325 30.78336422 85.97921869 33.7163456 84 37.125 C83.01 37.62 83.01 37.62 82 38.125 C82.350625 37.01125 82.70125 35.8975 83.0625 34.75 C84.37239331 31.32235524 84.37239331 31.32235524 83 29.125 C83.27942455 27.44845271 83.60828247 25.77891846 84 24.125 C83.01 24.125 82.02 24.125 81 24.125 C82.11179163 20.78962511 83.47411298 19.48792656 86 17.125 C85.06231164 14.06991079 85.06231164 14.06991079 83 11.125 C80.19158076 10.27670567 78.0869318 9.88391153 75.21875 9.6640625 C74.45002563 9.58376801 73.68130127 9.50347351 72.88928223 9.42074585 C70.42796038 9.17084665 67.96495857 8.9606349 65.5 8.75 C63.87214879 8.58708532 62.24453837 8.42174521 60.6171875 8.25390625 C52.40218153 7.43603507 44.26393848 6.85612325 36 7.125 C36.495 8.115 36.495 8.115 37 9.125 C37.31337847 14.66135301 36.4386757 18.2476486 34 23.125 C34.185625 23.74375 34.37125 24.3625 34.5625 25 C35 27.125 35 27.125 34.0625 28.875 C32.44610496 32.2979542 32.87464081 35.36422443 33 39.125 C32.01 39.455 31.02 39.785 30 40.125 C29.67 39.795 29.34 39.465 29 39.125 C29.7734375 38.63 29.7734375 38.63 30.5625 38.125 C32.33834722 35.65425604 32.02853971 34.98054407 31.5625 32.0625 C31.2840625 30.1134375 31.2840625 30.1134375 31 28.125 C31.66 27.465 32.32 26.805 33 26.125 C32.6730244 23.50919521 32.17960932 21.48421863 31 19.125 C31.99 19.125 32.98 19.125 34 19.125 C35.4783226 16.16835481 35.06032783 13.38270263 35 10.125 C34.34 10.125 33.68 10.125 33 10.125 C33 9.465 33 8.805 33 8.125 C32.195625 8.23328125 32.195625 8.23328125 31.375 8.34375 C25.8169062 9.00194532 20.27974669 9.28786142 14.6875 9.375 C13.6655957 9.4069043 13.6655957 9.4069043 12.62304688 9.43945312 C8.2150567 9.46979327 5.48757498 8.84391092 2 6.125 C1.34 5.135 0.68 4.145 0 3.125 C-0.66 3.125 -1.32 3.125 -2 3.125 Z " fill="#0F0F0F" transform="translate(433,214.875)"/>
<path d="M0 0 C2.4294516 3.6441774 2.16179575 5.71241272 2 10 C3.11375 10.0928125 3.11375 10.0928125 4.25 10.1875 C7.97501049 11.28807128 9.0467078 12.67216884 11 16 C11.64098532 19.46132073 11.6349196 21.7034835 10.0703125 24.8984375 C5.80810825 30.87561151 -0.06596913 31.82188796 -7 33 C-6.67 33.66 -6.34 34.32 -6 35 C-5.65291524 40.29304255 -5.48648106 43.73358414 -9 48 C-11.75455442 50.16429276 -13.05436738 49.99625053 -16.625 49.75 C-20 49 -20 49 -22 47 C-25.47481123 47.34066777 -28.78978418 47.95053745 -32.1875 48.75 C-38.71761824 49.17820447 -45.53369729 47.64420181 -51 44 C-51.1875 41.375 -51.1875 41.375 -51 39 C-50.01 39 -49.02 39 -48 39 C-47.814375 39.61875 -47.62875 40.2375 -47.4375 40.875 C-45.21655969 44.15812915 -42.81113595 44.26236078 -39 45 C-34.18650477 45.43759048 -30.44378888 44.92163843 -26 43 C-23.375 42.6875 -23.375 42.6875 -21 43 C-20.319375 43.7734375 -20.319375 43.7734375 -19.625 44.5625 C-17.91638213 46.40632507 -17.91638213 46.40632507 -14.4375 45.875 C-10.74557606 45.34366067 -10.74557606 45.34366067 -9 42 C-9 40.68 -9 39.36 -9 38 C-10.485 37.01 -10.485 37.01 -12 36 C-12 34.68 -12 33.36 -12 32 C-14.31 32 -16.62 32 -19 32 C-19.66 33.65 -20.32 35.3 -21 37 C-24.02038089 37.33794471 -27.04119756 37.67048433 -30.0625 38 C-30.91005859 38.09539062 -31.75761719 38.19078125 -32.63085938 38.2890625 C-37.45472589 38.81056158 -42.14836264 39.10532727 -47 39 C-46.67 38.01 -46.34 37.02 -46 36 C-44.125 35.6875 -42.25 35.375 -40.375 35.0625 C-39.33085938 34.88847656 -38.28671875 34.71445313 -37.2109375 34.53515625 C-36.15132812 34.35855469 -35.09171875 34.18195313 -34 34 C-32.9378125 33.814375 -31.875625 33.62875 -30.78125 33.4375 C-28.13339658 33.02098373 -25.67462044 32.92133469 -23 33 C-22.34 31.68 -21.68 30.36 -21 29 C-20.05640625 29.04640625 -19.1128125 29.0928125 -18.140625 29.140625 C-9.53743447 29.38248176 -1.87204942 29.00978326 6 25 C8.34111027 22.17941514 8.34111027 22.17941514 7.6875 19 C7.04448305 15.97290882 7.04448305 15.97290882 6 13 C3.03 13 0.06 13 -3 13 C-2.67 12.29875 -2.34 11.5975 -2 10.875 C-0.90955438 7.73996884 -0.84677357 5.29436818 -1 2 C-3.91517292 3.07401108 -5.77810176 3.77810176 -8 6 C-8.39764263 7.98821313 -8.73775349 9.98944339 -9 12 C-20.92689344 14.30843099 -32.90526351 15.97771334 -44.96142578 17.46582031 C-51.19922273 18.25961716 -57.29711568 19.23024617 -63.43359375 20.61328125 C-68.40522762 21.72461644 -72.79157276 22.34311512 -77.875 22.1875 C-79.04804687 22.16042969 -80.22109375 22.13335937 -81.4296875 22.10546875 C-82.27789062 22.07066406 -83.12609375 22.03585938 -84 22 C-84 21.01 -84 20.02 -84 19 C-83.44014404 18.9498877 -82.88028809 18.89977539 -82.3034668 18.84814453 C-79.76392044 18.61586413 -77.22579309 18.37058215 -74.6875 18.125 C-73.80642578 18.04636719 -72.92535156 17.96773437 -72.01757812 17.88671875 C-70.74624023 17.76103516 -70.74624023 17.76103516 -69.44921875 17.6328125 C-68.66893311 17.55949707 -67.88864746 17.48618164 -67.0847168 17.41064453 C-64.70505767 17.08029789 -64.70505767 17.08029789 -62 15 C-59.97314453 14.63696289 -59.97314453 14.63696289 -57.6328125 14.47265625 C-56.7569751 14.4041748 -55.8811377 14.33569336 -54.97875977 14.26513672 C-54.03701904 14.1982666 -53.09527832 14.13139648 -52.125 14.0625 C-43.34163002 13.36414591 -34.67035856 12.33973138 -25.96728516 10.96508789 C-21.24307953 10.23796288 -16.78067511 9.85844569 -12 10 C-11.9175 9.0925 -11.835 8.185 -11.75 7.25 C-10.19190563 0.49825771 -6.6501055 -0.86205071 0 0 Z " fill="#0C0C0C" transform="translate(84,210)"/>
<path d="M0 0 C2.33944736 0.28730055 4.6739143 0.61936779 7 1 C7.1546875 1.928125 7.1546875 1.928125 7.3125 2.875 C7.87525373 5.36526484 7.87525373 5.36526484 11 7 C10.65544802 10.10096781 10.15182706 11.79937138 8.25 14.3125 C6 16 6 16 3.4375 16.4375 C1 16 1 16 -0.375 14.4375 C-0.91125 13.963125 -1.4475 13.48875 -2 13 C-5.57443924 13.25531709 -8.60365077 13.86788359 -12 15 C-18.21481787 15.42134358 -22.28374518 14.4498235 -28 12 C-28 11.01 -28 10.02 -28 9 C-19.26891394 6.32721855 -11.1056973 5.86543304 -2 6 C-1.855625 5.195625 -1.71125 4.39125 -1.5625 3.5625 C-1 1 -1 1 0 0 Z " fill="#F1F1F1" transform="translate(65,241)"/>
<path d="M0 0 C1.5778125 -0.00193359 1.5778125 -0.00193359 3.1875 -0.00390625 C4.280625 -0.00003906 5.37375 0.00382813 6.5 0.0078125 C7.593125 0.00394531 8.68625 0.00007812 9.8125 -0.00390625 C10.864375 -0.00261719 11.91625 -0.00132812 13 0 C14.43859375 0.00169189 14.43859375 0.00169189 15.90625 0.00341797 C18.25803316 0.12074149 20.25052606 0.46499992 22.5 1.1328125 C22.5 2.1228125 22.5 3.1128125 22.5 4.1328125 C19.86 4.1328125 17.22 4.1328125 14.5 4.1328125 C14.108125 5.3703125 13.71625 6.6078125 13.3125 7.8828125 C11.36118823 13.76489172 8.93753821 19.43880032 6.5 25.1328125 C2.87 25.1328125 -0.76 25.1328125 -4.5 25.1328125 C-5.75038053 28.83037945 -5.75038053 28.83037945 -4.9765625 31.3359375 C-3.55208028 33.45572966 -3.55208028 33.45572966 -0.4609375 33.7421875 C0.72242188 33.78859375 1.90578125 33.835 3.125 33.8828125 C4.90777344 33.96789062 4.90777344 33.96789062 6.7265625 34.0546875 C7.64179688 34.08046875 8.55703125 34.10625 9.5 34.1328125 C9.335 32.9984375 9.17 31.8640625 9 30.6953125 C8.96206851 26.41664096 10.4628713 24.55020959 13.3125 21.4453125 C14.02019531 20.74019531 14.72789063 20.03507812 15.45703125 19.30859375 C17.59666913 17.18631119 17.59666913 17.18631119 19.07421875 14.48828125 C20.5 12.1328125 20.5 12.1328125 23.5 10.1328125 C22.16046765 13.73924574 20.55940535 16.88528868 18.5 20.1328125 C17.84 21.2259375 17.18 22.3190625 16.5 23.4453125 C15.51 24.775625 15.51 24.775625 14.5 26.1328125 C13.51 26.1328125 12.52 26.1328125 11.5 26.1328125 C11.5 29.7628125 11.5 33.3928125 11.5 37.1328125 C9.0821288 37.24107539 6.66912444 37.32021039 4.25 37.3828125 C3.22712891 37.43308594 3.22712891 37.43308594 2.18359375 37.484375 C-1.22777891 37.55061525 -3.13171119 37.40130692 -5.921875 35.3671875 C-8.46211332 31.77061246 -8.5 29.54575458 -8.5 25.1328125 C-7.1875 22.6328125 -7.1875 22.6328125 -4.5 21.1328125 C-1.13893125 20.81721919 2.13553019 20.90166572 5.5 21.1328125 C5.87125 19.9571875 5.87125 19.9571875 6.25 18.7578125 C7.84052008 14.14530428 9.66690081 9.65445718 11.5 5.1328125 C4.57 4.8028125 -2.36 4.4728125 -9.5 4.1328125 C-9.5 3.1428125 -9.5 2.1528125 -9.5 1.1328125 C-6.27376992 0.17502545 -3.35907209 0.00395052 0 0 Z " fill="#101010" transform="translate(9.5,243.8671875)"/>
<path d="M0 0 C7.26 0 14.52 0 22 0 C21.01 2.97 20.02 5.94 19 9 C18.73058594 9.8559375 18.46117188 10.711875 18.18359375 11.59375 C17.33326503 13.76631761 16.61149651 15.29654309 15 17 C12.36231624 17.68111242 10.0603483 17.81453208 7.33984375 17.76953125 C4.94380548 17.79893059 4.94380548 17.79893059 3.234375 19.34375 C1.64031529 21.48261492 1.35336944 23.38506617 1 26 C0.67 26 0.34 26 0 26 C0 17.42 0 8.84 0 0 Z " fill="#F5F5F5" transform="translate(0,248)"/>
<path d="M0 0 C-0.33 0.99 -0.66 1.98 -1 3 C-2.52584717 3.20363159 -2.52584717 3.20363159 -4.08251953 3.41137695 C-7.92637722 3.92586058 -11.76921625 4.44764942 -15.61181641 4.97143555 C-17.26194572 5.1953748 -18.91233057 5.41744062 -20.56298828 5.63745117 C-28.67377568 6.71971125 -36.70134487 7.85545031 -44.6875 9.65625 C-49.57249188 10.75698825 -53.87617298 11.34052532 -58.875 11.1875 C-60.63457031 11.14689453 -60.63457031 11.14689453 -62.4296875 11.10546875 C-63.27789062 11.07066406 -64.12609375 11.03585938 -65 11 C-65 10.01 -65 9.02 -65 8 C-64.44014404 7.9498877 -63.88028809 7.89977539 -63.3034668 7.84814453 C-60.76392044 7.61586413 -58.22579309 7.37058215 -55.6875 7.125 C-54.80642578 7.04636719 -53.92535156 6.96773437 -53.01757812 6.88671875 C-51.74624023 6.76103516 -51.74624023 6.76103516 -50.44921875 6.6328125 C-49.27879028 6.52283936 -49.27879028 6.52283936 -48.0847168 6.41064453 C-45.70505767 6.08029789 -45.70505767 6.08029789 -43 4 C-40.86206055 3.62109375 -40.86206055 3.62109375 -38.38671875 3.4375 C-37.4747876 3.3638623 -36.56285645 3.29022461 -35.62329102 3.21435547 C-34.65447998 3.14361816 -33.68566895 3.07288086 -32.6875 3 C-25.05171609 2.38406045 -17.53421028 1.60992078 -9.97265625 0.3671875 C-6.62495047 -0.04632675 -3.36977561 -0.05904488 0 0 Z " fill="#1D1D1D" transform="translate(65,221)"/>
<path d="M0 0 C-0.33 0.66 -0.66 1.32 -1 2 C-2.32 2 -3.64 2 -5 2 C-5 2.66 -5 3.32 -5 4 C-4.360625 4.2475 -3.72125 4.495 -3.0625 4.75 C-1 6 -1 6 -0.25 7.6875 C0.16708565 11.54554222 0.47927342 15.37047037 -0.625 19.125 C-1.21518521 21.13431286 -1.21518521 21.13431286 0.0625 23.375 C1 26 1 26 0.4375 29.1875 C-1 32 -1 32 -3.625 33.375 C-4.40875 33.58125 -5.1925 33.7875 -6 34 C-6 31 -6 31 -4 28.8125 C-3.01 27.9153125 -3.01 27.9153125 -2 27 C-2.515625 26.113125 -3.03125 25.22625 -3.5625 24.3125 C-5.08979002 20.79309257 -5.21675714 19.548875 -4 16 C-3.67 15.67 -3.34 15.34 -3 15 C-3.66 14.67 -4.32 14.34 -5 14 C-4.42415568 11.61435923 -3.77772405 9.33317216 -3 7 C-8.60944292 3.85871197 -14.68146331 2.77369837 -21 2 C-20.67 1.34 -20.34 0.68 -20 0 C-17.22949974 -0.1946838 -14.45886998 -0.38102792 -11.6875 -0.5625 C-10.90181641 -0.61857422 -10.11613281 -0.67464844 -9.30664062 -0.73242188 C-8.1706543 -0.80493164 -8.1706543 -0.80493164 -7.01171875 -0.87890625 C-6.31522217 -0.9260376 -5.61872559 -0.97316895 -4.90112305 -1.02172852 C-3 -1 -3 -1 0 0 Z " fill="#030303" transform="translate(546,222)"/>
<path d="M0 0 C1.5778125 -0.00193359 1.5778125 -0.00193359 3.1875 -0.00390625 C4.280625 -0.00003906 5.37375 0.00382813 6.5 0.0078125 C7.593125 0.00394531 8.68625 0.00007812 9.8125 -0.00390625 C10.864375 -0.00261719 11.91625 -0.00132812 13 0 C14.43859375 0.00169189 14.43859375 0.00169189 15.90625 0.00341797 C18.25803316 0.12074149 20.25052606 0.46499992 22.5 1.1328125 C22.5 2.1228125 22.5 3.1128125 22.5 4.1328125 C15.20541526 5.09294244 8.21100191 5.12136869 0.875 4.6953125 C-0.12917969 4.64310547 -1.13335937 4.59089844 -2.16796875 4.53710938 C-4.61242295 4.40906654 -7.05628782 4.27420283 -9.5 4.1328125 C-9.5 3.1428125 -9.5 2.1528125 -9.5 1.1328125 C-6.27376992 0.17502545 -3.35907209 0.00395052 0 0 Z " fill="#090909" transform="translate(9.5,243.8671875)"/>
<path d="M0 0 C1.8871875 0.061875 1.8871875 0.061875 3.8125 0.125 C3.203125 2.015625 3.203125 2.015625 1.8125 4.125 C-7.14891754 7.517175 -16.75001657 7.51225236 -26.1875 7.125 C-26.1875 6.135 -26.1875 5.145 -26.1875 4.125 C-25.62764404 4.0748877 -25.06778809 4.02477539 -24.4909668 3.97314453 C-21.95142044 3.74086413 -19.41329309 3.49558215 -16.875 3.25 C-15.99392578 3.17136719 -15.11285156 3.09273437 -14.20507812 3.01171875 C-12.93374023 2.88603516 -12.93374023 2.88603516 -11.63671875 2.7578125 C-10.46629028 2.64783936 -10.46629028 2.64783936 -9.2722168 2.53564453 C-5.62341078 1.81690794 -3.92127895 -0.12856652 0 0 Z " fill="#0F0F0F" transform="translate(26.1875,224.875)"/>
<path d="M0 0 C0.99 0.33 1.98 0.66 3 1 C2.3897536 5.14967549 0.99267393 8.32121736 -1 12 C-1.7115625 13.3921875 -1.7115625 13.3921875 -2.4375 14.8125 C-4 17 -4 17 -6.1875 17.8125 C-6.785625 17.874375 -7.38375 17.93625 -8 18 C-7.67 20.31 -7.34 22.62 -7 25 C-8.32 24.34 -9.64 23.68 -11 23 C-11 19.7 -11 16.4 -11 13 C-8.03 13.495 -8.03 13.495 -5 14 C-5 12.68 -5 11.36 -5 10 C-4.01 10 -3.02 10 -2 10 C-2.226875 9.443125 -2.45375 8.88625 -2.6875 8.3125 C-3.12446199 5.07898125 -1.78001197 3.63441772 0 1 C0 0.67 0 0.34 0 0 Z " fill="#020202" transform="translate(441,236)"/>
<path d="M0 0 C0.66 0.33 1.32 0.66 2 1 C0.125 5.75 0.125 5.75 -1 8 C-0.7215625 8.928125 -0.7215625 8.928125 -0.4375 9.875 C0 12 0 12 -0.9375 13.75 C-2.55389504 17.1729542 -2.12535919 20.23922443 -2 24 C-3.98 24.99 -3.98 24.99 -6 26 C-6.66 25.34 -7.32 24.68 -8 24 C-7.484375 23.67 -6.96875 23.34 -6.4375 23 C-4.66165278 20.52925604 -4.97146029 19.85554407 -5.4375 16.9375 C-5.623125 15.638125 -5.80875 14.33875 -6 13 C-5.34 12.34 -4.68 11.68 -4 11 C-4.32326553 7.40320934 -4.32326553 7.40320934 -5 4 C-4.01 4 -3.02 4 -2 4 C-1.34 2.68 -0.68 1.36 0 0 Z " fill="#000000" transform="translate(469,230)"/>
<path d="M0 0 C0.33 0 0.66 0 1 0 C1.33 4.95 1.66 9.9 2 15 C2.66 15 3.32 15 4 15 C5.32 19.95 6.64 24.9 8 30 C7.34 30 6.68 30 6 30 C5.505 32.475 5.505 32.475 5 35 C4.67 35 4.34 35 4 35 C3.896875 33.865625 3.79375 32.73125 3.6875 31.5625 C3.32311188 28.47055962 2.63850392 25.98588199 1.4375 23.125 C-1.21119158 15.86038475 -0.22162454 7.60910911 0 0 Z " fill="#1C1C1C" transform="translate(425,220)"/>
<path d="M0 0 C0.99 0 1.98 0 3 0 C3.18304688 0.62390625 3.36609375 1.2478125 3.5546875 1.890625 C4.91662203 4.34008964 4.91662203 4.34008964 8.2578125 5.046875 C9.53398438 5.27890625 10.81015625 5.5109375 12.125 5.75 C13.40632813 5.99234375 14.68765625 6.2346875 16.0078125 6.484375 C16.99523437 6.65453125 17.98265625 6.8246875 19 7 C18.67 7.99 18.34 8.98 18 10 C5.33029613 8.25740319 5.33029613 8.25740319 0 5 C0 3.35 0 1.7 0 0 Z " fill="#020202" transform="translate(33,249)"/>
<path d="M0 0 C0.33 0.99 0.66 1.98 1 3 C-3.51217573 9.18335192 -9.77535116 9.69892854 -17 11 C-16.37109375 9.12890625 -16.37109375 9.12890625 -15 7 C-12.28515625 5.83984375 -12.28515625 5.83984375 -9.0625 4.9375 C-3.89064665 3.50226796 -3.89064665 3.50226796 0 0 Z " fill="#131313" transform="translate(93,232)"/>
<path d="M0 0 C3.3 0 6.6 0 10 0 C10 0.33 10 0.66 10 1 C16.6 1.33 23.2 1.66 30 2 C30 2.33 30 2.66 30 3 C19.77 3 9.54 3 -1 3 C-0.67 2.01 -0.34 1.02 0 0 Z " fill="#1F1F1F" transform="translate(546,221)"/>
<path d="M0 0 C4.62 0 9.24 0 14 0 C13.67 0.99 13.34 1.98 13 3 C8.38 3.33 3.76 3.66 -1 4 C-0.67 2.68 -0.34 1.36 0 0 Z " fill="#2A2A2A" transform="translate(30,224)"/>
<path d="M0 0 C0.33 0.66 0.66 1.32 1 2 C-0.39374137 4.82566744 -2.26155675 7.37529156 -4 10 C-4.66 11.134375 -5.32 12.26875 -6 13.4375 C-8 16 -8 16 -10.75 16.875 C-11.4925 16.91625 -12.235 16.9575 -13 17 C-11.57703109 15.10270812 -10.15397863 13.20547983 -8.73046875 11.30859375 C-7.58556873 9.78119892 -6.44231245 8.25257048 -5.30078125 6.72265625 C-4.76839844 6.00980469 -4.23601563 5.29695313 -3.6875 4.5625 C-3.19636719 3.90378906 -2.70523437 3.24507813 -2.19921875 2.56640625 C-1 1 -1 1 0 0 Z " fill="#181818" transform="translate(32,254)"/>
<path d="M0 0 C0.66 0.66 1.32 1.32 2 2 C1.69903201 6.13830989 1.32101984 8.51847024 -1 12 C-1.66 12 -2.32 12 -3 12 C-2.835 10.906875 -2.67 9.81375 -2.5 8.6875 C-1.93281816 5.12474127 -1.93281816 5.12474127 -2 2 C-1.34 1.34 -0.68 0.68 0 0 Z " fill="#000000" transform="translate(518,241)"/>
<path d="M0 0 C2.4375 0.8125 2.4375 0.8125 5 2 C5.33 2.99 5.66 3.98 6 5 C3 5 3 5 0.8125 3 C0.214375 2.34 -0.38375 1.68 -1 1 C-0.67 0.67 -0.34 0.34 0 0 Z " fill="#000000" transform="translate(565,255)"/>
</svg>
