<?xml version="1.0" encoding="UTF-8"?>
<svg version="1.1" xmlns="http://www.w3.org/2000/svg" width="800" height="300">
<path d="M0 0 C264 0 528 0 800 0 C800 99 800 198 800 300 C536 300 272 300 0 300 C0 201 0 102 0 0 Z " fill="#FEFEFE" transform="translate(0,0)"/>
<path d="M0 0 C2.6875 -0.3125 2.6875 -0.3125 6 0 C6.65484375 0.82371094 7.3096875 1.64742187 7.984375 2.49609375 C12.5652212 6.2996202 16.79729447 5.57827168 22.5625 5.375 C23.56474609 5.36082031 24.56699219 5.34664062 25.59960938 5.33203125 C30.47519469 5.2414631 35.34076995 5.04623593 40.20825195 4.75537109 C54.45235002 3.91878154 68.67682983 3.84573931 82.94213867 3.86962891 C85.67653585 3.87416195 88.4108666 3.87421517 91.14526367 3.86962891 C100.43094505 3.85414611 109.7147567 3.89399703 119 4 C120.89718781 4.01987976 120.89718781 4.01987976 122.83270264 4.04016113 C126.4714204 4.08922994 130.10817747 4.16795371 133.74609375 4.2578125 C135.34216209 4.27822098 135.34216209 4.27822098 136.97047424 4.29904175 C147.76141846 4.63593906 157.23194941 7.126133 165.1015625 14.796875 C168.08119031 18.25471468 170.07594107 21.88307979 172 26 C172.5878125 27.06347656 172.5878125 27.06347656 173.1875 28.1484375 C176.97476175 35.43365628 176.77162077 42.60176161 175.375 50.5625 C169.6875 64.78125 169.6875 64.78125 163.4375 67.625 C157.70072769 69.69064707 152.18507829 70.14951793 146.12109375 70.1328125 C145.35992249 70.13413177 144.59875122 70.13545105 143.81451416 70.1368103 C141.35546728 70.1387179 138.89653518 70.13241583 136.4375 70.125 C135.60618561 70.12411377 134.77487122 70.12322754 133.91836548 70.12231445 C121.58858811 70.10680173 109.30284848 69.87542505 97 69 C97 68.34 97 67.68 97 67 C96.29617188 67.16242188 95.59234375 67.32484375 94.8671875 67.4921875 C87.40965184 68.81300444 79.59253259 68.08414043 72.08203125 67.5078125 C66.67319889 67.13155169 61.29977248 66.9117425 55.87890625 66.859375 C21.79509958 66.48121764 21.79509958 66.48121764 10.8125 58.25 C9.32421875 56.69140625 9.32421875 56.69140625 8 55 C7.51144531 54.41089844 7.02289063 53.82179688 6.51953125 53.21484375 C2.55488966 47.4511211 2.40935902 41.64162749 2.45166016 34.85229492 C2.47029608 32.43228376 2.47029608 32.43228376 2 29 C0.13377036 27.1371129 0.13377036 27.1371129 -2 26 C-3.20745835 22.37762495 -3.22246029 19.0229405 -3.25 15.25 C-3.270625 14.5590625 -3.29125 13.868125 -3.3125 13.15625 C-3.35088173 8.05147958 -2.27330153 4.57053254 0 0 Z " fill="#656565" transform="translate(428,216)"/>
<path d="M0 0 C2.4294516 3.6441774 2.16179575 5.71241272 2 10 C3.11375 10.0928125 3.11375 10.0928125 4.25 10.1875 C7.97501049 11.28807128 9.0467078 12.67216884 11 16 C11.64098532 19.46132073 11.6349196 21.7034835 10.0703125 24.8984375 C5.80810825 30.87561151 -0.06596913 31.82188796 -7 33 C-6.67 33.66 -6.34 34.32 -6 35 C-5.65291524 40.29304255 -5.48648106 43.73358414 -9 48 C-11.75455442 50.16429276 -13.05436738 49.99625053 -16.625 49.75 C-20 49 -20 49 -22 47 C-25.47481123 47.34066777 -28.78978418 47.95053745 -32.1875 48.75 C-38.71761824 49.17820447 -45.53369729 47.64420181 -51 44 C-51.268125 44.721875 -51.53625 45.44375 -51.8125 46.1875 C-54.0606586 51.51208616 -57.13984313 55.74392961 -61 60 C-61.66 60 -62.32 60 -63 60 C-63 63.63 -63 67.26 -63 71 C-65.31 71 -67.62 71 -70 71 C-70 53.51 -70 36.02 -70 18 C-67.69 17.34 -65.38 16.68 -63 16 C-62.67 15.67 -62.34 15.34 -62 15 C-60.61526175 14.80803005 -59.22209112 14.67619424 -57.828125 14.5703125 C-56.94584229 14.4986084 -56.06355957 14.4269043 -55.15454102 14.35302734 C-54.19604248 14.27777832 -53.23754395 14.2025293 -52.25 14.125 C-43.43069029 13.38963448 -34.70930715 12.34548762 -25.96777344 10.96533203 C-21.24341569 10.23785958 -16.78086171 9.85844016 -12 10 C-11.9175 9.0925 -11.835 8.185 -11.75 7.25 C-10.19190563 0.49825771 -6.6501055 -0.86205071 0 0 Z " fill="#F8F8F8" transform="translate(70,210)"/>
<path d="M0 0 C2.6875 -0.3125 2.6875 -0.3125 6 0 C6.65484375 0.82371094 7.3096875 1.64742187 7.984375 2.49609375 C12.5652212 6.2996202 16.79729447 5.57827168 22.5625 5.375 C23.56474609 5.36082031 24.56699219 5.34664062 25.59960938 5.33203125 C30.47519469 5.2414631 35.34076995 5.04623593 40.20825195 4.75537109 C54.45235002 3.91878154 68.67682983 3.84573931 82.94213867 3.86962891 C85.67653585 3.87416195 88.4108666 3.87421517 91.14526367 3.86962891 C100.43094505 3.85414611 109.7147567 3.89399703 119 4 C120.89718781 4.01987976 120.89718781 4.01987976 122.83270264 4.04016113 C126.4714204 4.08922994 130.10817747 4.16795371 133.74609375 4.2578125 C135.34216209 4.27822098 135.34216209 4.27822098 136.97047424 4.29904175 C147.76141846 4.63593906 157.23194941 7.126133 165.1015625 14.796875 C168.08119031 18.25471468 170.07594107 21.88307979 172 26 C172.5878125 27.06347656 172.5878125 27.06347656 173.1875 28.1484375 C176.97476175 35.43365628 176.77162077 42.60176161 175.375 50.5625 C169.6875 64.78125 169.6875 64.78125 163.4375 67.625 C157.70072769 69.69064707 152.18507829 70.14951793 146.12109375 70.1328125 C145.35992249 70.13413177 144.59875122 70.13545105 143.81451416 70.1368103 C141.35546728 70.1387179 138.89653518 70.13241583 136.4375 70.125 C135.60618561 70.12411377 134.77487122 70.12322754 133.91836548 70.12231445 C121.58858811 70.10680173 109.30284848 69.87542505 97 69 C97 68.34 97 67.68 97 67 C96.29617188 67.16242188 95.59234375 67.32484375 94.8671875 67.4921875 C87.40965184 68.81300444 79.59253259 68.08414043 72.08203125 67.5078125 C66.67319889 67.13155169 61.29977248 66.9117425 55.87890625 66.859375 C21.79509958 66.48121764 21.79509958 66.48121764 10.8125 58.25 C9.32421875 56.69140625 9.32421875 56.69140625 8 55 C7.51144531 54.41089844 7.02289063 53.82179688 6.51953125 53.21484375 C2.55488966 47.4511211 2.40935902 41.64162749 2.45166016 34.85229492 C2.47029608 32.43228376 2.47029608 32.43228376 2 29 C0.13377036 27.1371129 0.13377036 27.1371129 -2 26 C-3.20745835 22.37762495 -3.22246029 19.0229405 -3.25 15.25 C-3.270625 14.5590625 -3.29125 13.868125 -3.3125 13.15625 C-3.35088173 8.05147958 -2.27330153 4.57053254 0 0 Z M3 3 C-0.71059486 9.13054803 -1.71075839 15.44620807 -0.3125 22.4375 C0.78058442 25.09159104 0.78058442 25.09159104 3 26.3125 C6.24734023 29.05244332 6.35310018 32.93985245 7 37 C9.64573501 34.77122275 9.64573501 34.77122275 12 32 C11.95502158 29.72476911 11.95502158 29.72476911 11 28 C12.32 27.34 13.64 26.68 15 26 C14.67 24.35 14.34 22.7 14 21 C14.99 21.99 15.98 22.98 17 24 C15.39680795 28.66383143 13.08350522 33.14135949 10 37 C9.30648438 37.30550781 8.61296875 37.61101562 7.8984375 37.92578125 C5.77741393 38.86585583 5.77741393 38.86585583 5.07421875 41.29296875 C4.97884902 44.77145414 5.96425246 46.39079722 7.8125 49.3125 C8.35519531 50.19550781 8.89789063 51.07851563 9.45703125 51.98828125 C9.96621094 52.65214844 10.47539062 53.31601562 11 54 C11.66 54 12.32 54 13 54 C13.33 54.99 13.66 55.98 14 57 C16.36401089 58.26080581 18.47896761 59.14504119 21 60 C21.81339844 60.28230469 22.62679688 60.56460938 23.46484375 60.85546875 C33.75725957 63.93020167 46.48210319 64.63478627 57 62 C57.53394179 60.5882217 58.05165104 59.17029756 58.5625 57.75 C58.85253906 56.96109375 59.14257812 56.1721875 59.44140625 55.359375 C60.0610168 52.74227867 59.94248701 51.4926979 59 49 C58.34 48.01 57.68 47.02 57 46 C57.53625 45.443125 58.0725 44.88625 58.625 44.3125 C59.07875 43.549375 59.5325 42.78625 60 42 C59.26145768 39.36186139 59.26145768 39.36186139 58 37 C58 36.34 58 35.68 58 35 C58.99 35.33 59.98 35.66 61 36 C61.94002987 40.38680608 61.74651537 43.61422219 61 48 C61.185625 48.804375 61.37125 49.60875 61.5625 50.4375 C62.16494838 53.96612624 61.00559799 56.60610677 60 60 C60.33 60.99 60.66 61.98 61 63 C62.06927734 63.09087891 62.06927734 63.09087891 63.16015625 63.18359375 C71.41188054 63.9054808 71.41188054 63.9054808 75.5 64.5625 C82.43977973 65.42997247 89.12334905 65.23427068 96 64 C96.66 64.33 97.32 64.66 98 65 C100.56845219 65.03037021 103.120762 64.93311185 105.6875 64.83984375 C108 65 108 65 110 67 C112.52377655 67.27808217 112.52377655 67.27808217 115.4453125 67.1953125 C116.52167969 67.18886719 117.59804688 67.18242187 118.70703125 67.17578125 C119.83496094 67.15902344 120.96289062 67.14226562 122.125 67.125 C123.26066406 67.11597656 124.39632812 67.10695313 125.56640625 67.09765625 C128.37781299 67.07403098 131.18880298 67.04109013 134 67 C134 66.34 134 65.68 134 65 C134.99 64.67 135.98 64.34 137 64 C138.56028793 61.15102982 139.46843274 58.20059445 140 55 C139.01919106 52.38017854 139.01919106 52.38017854 137 51 C136.34 51 135.68 51 135 51 C135.66 50.236875 136.32 49.47375 137 48.6875 C139.29850538 46.15722061 139.29850538 46.15722061 139 43 C137.56249809 41.31201173 137.56249809 41.31201173 136 40 C137.32 40.33 138.64 40.66 140 41 C140.90594807 43.61718331 140.98235878 45.10143704 140.5 47.875 C139.82038781 50.94518924 139.82038781 50.94518924 140.5625 53.75 C141.18730226 58.39138818 140.07980006 62.48447249 139 67 C149.65771916 67.35857747 158.40464935 67.06190317 166.59375 59.53515625 C171.66979043 54.24761413 174.03554301 48.43102855 173.9765625 41.078125 C172.70835554 30.19972752 166.40917284 21.74595342 159 14 C158.01 13.67 157.02 13.34 156 13 C154.39819908 16.38766195 154.39819908 16.38766195 154.125 20.0625 C154.8950733 22.17907441 154.8950733 22.17907441 157.0625 23.5625 C160.20275922 27.5131487 159.47149501 32.13046134 159 37 C158.67 37.66 158.34 38.32 158 39 C157.01 39.33 156.02 39.66 155 40 C155.165 38.9275 155.33 37.855 155.5 36.75 C156.3352003 30.76189263 156.3352003 30.76189263 155 25 C152.50965614 23.70339566 152.50965614 23.70339566 150 23 C150.99 19.7 151.98 16.4 153 13 C146.68439027 7.21069108 141.08633074 7.22890562 132.75 7.1875 C130.97496094 7.14979492 130.97496094 7.14979492 129.1640625 7.11132812 C125.10889692 7.03050193 121.05589005 7 117 7 C116.97111854 10.31248187 116.95324201 13.62493167 116.9375 16.9375 C116.92493164 18.35579102 116.92493164 18.35579102 116.91210938 19.80273438 C116.90727539 21.15141602 116.90727539 21.15141602 116.90234375 22.52734375 C116.89448853 23.77632446 116.89448853 23.77632446 116.88647461 25.05053711 C116.78356708 27.00516798 116.78356708 27.00516798 118 28 C118.26293056 32.03160191 118.29404844 33.55892734 116 37 C113.875 37.6875 113.875 37.6875 112 38 C113.75 34.125 113.75 34.125 116 33 C115.89171875 31.86111328 115.89171875 31.86111328 115.78125 30.69921875 C115.6884375 29.70535156 115.595625 28.71148437 115.5 27.6875 C115.4071875 26.70136719 115.314375 25.71523437 115.21875 24.69921875 C115 22 115 22 115 19 C114.34 19 113.68 19 113 19 C113.556875 17.63875 113.556875 17.63875 114.125 16.25 C115.25131743 13.16467339 115.25131743 13.16467339 114.375 10.75 C112.21694327 8.00338235 109.96584178 7.12449559 106.52636719 6.68115234 C105.62563477 6.64973145 104.72490234 6.61831055 103.796875 6.5859375 C102.8171875 6.54726562 101.8375 6.50859375 100.828125 6.46875 C99.30445313 6.42234375 99.30445313 6.42234375 97.75 6.375 C96.203125 6.31699219 96.203125 6.31699219 94.625 6.2578125 C92.0835106 6.16368326 89.54202567 6.07805021 87 6 C87.495 6.99 87.495 6.99 88 8 C88.66 8 89.32 8 90 8 C90.67228569 12.48190462 91.12701027 15.63283522 90 20 C90.29235267 22.33882138 90.62599214 24.67284 91 27 C91 28.32 91 29.64 91 31 C90.01 30.01 90.01 30.01 89 29 C89.2784375 27.824375 89.2784375 27.824375 89.5625 26.625 C90.29178752 23.94859806 90.29178752 23.94859806 88.6875 21.6875 C88.130625 21.130625 87.57375 20.57375 87 20 C86.34 20 85.68 20 85 20 C85.680625 19.443125 86.36125 18.88625 87.0625 18.3125 C89.25510881 16.18317288 89.25510881 16.18317288 89.0625 13.5 C87.56544541 9.97751862 86.33969805 8.96356171 83 7 C79.03453696 6.4431461 75.1217931 6.53050618 71.125 6.625 C70.0119751 6.63789063 68.8989502 6.65078125 67.75219727 6.6640625 C59.38070792 6.81952868 51.23850267 7.4996548 43 9 C43.04253906 10.093125 43.08507812 11.18625 43.12890625 12.3125 C43 16 43 16 40.9375 19 C38.43457181 22.87550172 39.20915027 24.57124149 40 29 C39.125 32.1875 39.125 32.1875 38 35 C37.65023242 36.32911682 37.30903983 37.66082739 37 39 C35.79371992 36.66785852 34.8345262 34.50357861 34 32 C34.639375 31.7525 35.27875 31.505 35.9375 31.25 C38.12493715 30.18550582 38.12493715 30.18550582 38.875 28.125 C39.02904228 25.50628117 38.24534014 24.27091436 37 22 C37 21.01 37 20.02 37 19 C39 17.3125 39 17.3125 41 16 C40.81171228 13.55519921 40.81171228 13.55519921 40 11 C36.96969085 8.99095526 34.40823739 8.73084337 30.82421875 8.65625 C29.83099609 8.62660156 28.83777344 8.59695312 27.81445312 8.56640625 C26.26661133 8.53353516 26.26661133 8.53353516 24.6875 8.5 C8.56797015 8.15378142 8.56797015 8.15378142 4.0625 4.375 C3.711875 3.92125 3.36125 3.4675 3 3 Z " fill="#111111" transform="translate(428,216)"/>
<path d="M0 0 C2.4294516 3.6441774 2.16179575 5.71241272 2 10 C3.11375 10.0928125 3.11375 10.0928125 4.25 10.1875 C7.97501049 11.28807128 9.0467078 12.67216884 11 16 C11.64098532 19.46132073 11.6349196 21.7034835 10.0703125 24.8984375 C5.80810825 30.87561151 -0.06596913 31.82188796 -7 33 C-6.67 33.66 -6.34 34.32 -6 35 C-5.65291524 40.29304255 -5.48648106 43.73358414 -9 48 C-11.75455442 50.16429276 -13.05436738 49.99625053 -16.625 49.75 C-20 49 -20 49 -22 47 C-25.47481123 47.34066777 -28.78978418 47.95053745 -32.1875 48.75 C-38.71761824 49.17820447 -45.53369729 47.64420181 -51 44 C-51.1875 41.375 -51.1875 41.375 -51 39 C-50.01 39 -49.02 39 -48 39 C-47.814375 39.61875 -47.62875 40.2375 -47.4375 40.875 C-45.21655969 44.15812915 -42.81113595 44.26236078 -39 45 C-34.18650477 45.43759048 -30.44378888 44.92163843 -26 43 C-23.1875 42.875 -23.1875 42.875 -21 43 C-20.67 43.99 -20.34 44.98 -20 46 C-14.95203239 46.44187074 -14.95203239 46.44187074 -10.5625 44.25 C-8.61973613 41.90897434 -8.61973613 41.90897434 -9 38 C-9.99 37.34 -10.98 36.68 -12 36 C-12 34.68 -12 33.36 -12 32 C-14.31 32 -16.62 32 -19 32 C-19.66 33.65 -20.32 35.3 -21 37 C-24.02038089 37.33794471 -27.04119756 37.67048433 -30.0625 38 C-30.91005859 38.09539062 -31.75761719 38.19078125 -32.63085938 38.2890625 C-37.45472589 38.81056158 -42.14836264 39.10532727 -47 39 C-46.67 38.01 -46.34 37.02 -46 36 C-44.125 35.6875 -42.25 35.375 -40.375 35.0625 C-39.33085938 34.88847656 -38.28671875 34.71445313 -37.2109375 34.53515625 C-36.15132812 34.35855469 -35.09171875 34.18195313 -34 34 C-32.9378125 33.814375 -31.875625 33.62875 -30.78125 33.4375 C-28.13339658 33.02098373 -25.67462044 32.92133469 -23 33 C-22.34 31.68 -21.68 30.36 -21 29 C-20.05640625 29.04640625 -19.1128125 29.0928125 -18.140625 29.140625 C-9.53743447 29.38248176 -1.87204942 29.00978326 6 25 C8.34111027 22.17941514 8.34111027 22.17941514 7.6875 19 C7.04448305 15.97290882 7.04448305 15.97290882 6 13 C3.03 13 0.06 13 -3 13 C-2.67 12.278125 -2.34 11.55625 -2 10.8125 C-0.99396471 7.98302573 -0.83022598 5.97104534 -1 3 C-3.99405579 3.46853622 -3.99405579 3.46853622 -7 5 C-8.23497401 8.53015795 -8.23497401 8.53015795 -9 12 C-23.1414944 14.5963576 -37.1980811 16.956111 -51.5859375 17.65625 C-52.78089844 17.82640625 -52.78089844 17.82640625 -54 18 C-54.33 18.66 -54.66 19.32 -55 20 C-57.54941373 20.31241371 -60.00361513 20.51303421 -62.5625 20.625 C-63.27341797 20.66367188 -63.98433594 20.70234375 -64.71679688 20.7421875 C-66.47742425 20.83671783 -68.23867728 20.91945817 -70 21 C-70 20.01 -70 19.02 -70 18 C-68.2984375 17.5359375 -68.2984375 17.5359375 -66.5625 17.0625 C-63.21224901 16.37075469 -63.21224901 16.37075469 -62 15 C-60.61526175 14.80803005 -59.22209112 14.67619424 -57.828125 14.5703125 C-56.94584229 14.4986084 -56.06355957 14.4269043 -55.15454102 14.35302734 C-54.19604248 14.27777832 -53.23754395 14.2025293 -52.25 14.125 C-43.43069029 13.38963448 -34.70930715 12.34548762 -25.96777344 10.96533203 C-21.24341569 10.23785958 -16.78086171 9.85844016 -12 10 C-11.9175 9.0925 -11.835 8.185 -11.75 7.25 C-10.19190563 0.49825771 -6.6501055 -0.86205071 0 0 Z " fill="#0D0D0D" transform="translate(70,210)"/>
<path d="M0 0 C16 0 16 0 19 2 C19 2.66 19 3.32 19 4 C19.99 4.33 20.98 4.66 22 5 C21.01 5 20.02 5 19 5 C19.103125 5.99 19.20625 6.98 19.3125 8 C19.3125 15.05657553 13.56627224 21.06348947 9 26 C8.34 26 7.68 26 7 26 C7 29.63 7 33.26 7 37 C4.69 37 2.38 37 0 37 C0 24.79 0 12.58 0 0 Z " fill="#F2F2F2" transform="translate(0,244)"/>
<path d="M0 0 C2.33944736 0.28730055 4.6739143 0.61936779 7 1 C7.1546875 1.928125 7.1546875 1.928125 7.3125 2.875 C7.87525373 5.36526484 7.87525373 5.36526484 11 7 C10.66333088 10.03002206 10.1094656 11.84001182 8.375 14.375 C6 16 6 16 2.3125 15.875 C1.219375 15.58625 0.12625 15.2975 -1 15 C-1.33 14.34 -1.66 13.68 -2 13 C-5.46941546 13.45822468 -8.67395049 13.89131683 -12 15 C-18.21481787 15.42134358 -22.28374518 14.4498235 -28 12 C-28 11.01 -28 10.02 -28 9 C-19.26891394 6.32721855 -11.1056973 5.86543304 -2 6 C-1.855625 5.195625 -1.71125 4.39125 -1.5625 3.5625 C-1 1 -1 1 0 0 Z " fill="#F1F1F1" transform="translate(51,241)"/>
<path d="M0 0 C2.59875 -0.020625 5.1975 -0.04125 7.875 -0.0625 C8.69210449 -0.071604 9.50920898 -0.08070801 10.35107422 -0.09008789 C15.77777778 -0.11111111 15.77777778 -0.11111111 18 1 C18 1.99 18 2.98 18 4 C15.36 4 12.72 4 10 4 C9.79375 5.051875 9.5875 6.10375 9.375 7.1875 C7.83402228 13.47604878 4.81159222 19.19998586 2 25 C1.34 25 0.68 25 0 25 C0 16.75 0 8.5 0 0 Z " fill="#111111" transform="translate(0,244)"/>
<path d="M0 0 C-0.33 0.99 -0.66 1.98 -1 3 C-4.22808268 3.48666173 -7.45742005 3.96427739 -10.6875 4.4375 C-12.11787598 4.64717407 -12.11787598 4.64717407 -13.57714844 4.86108398 C-19.99091436 5.77694894 -26.32148863 6.4174476 -32.796875 6.69140625 C-33.52390625 6.79324219 -34.2509375 6.89507812 -35 7 C-35.33 7.66 -35.66 8.32 -36 9 C-38.54941373 9.31241371 -41.00361513 9.51303421 -43.5625 9.625 C-44.62887695 9.68300781 -44.62887695 9.68300781 -45.71679688 9.7421875 C-47.47742425 9.83671783 -49.23867728 9.91945817 -51 10 C-51 9.01 -51 8.02 -51 7 C-49.865625 6.690625 -48.73125 6.38125 -47.5625 6.0625 C-44.21224901 5.37075469 -44.21224901 5.37075469 -43 4 C-41.53329141 3.79630609 -40.05815223 3.6525962 -38.58203125 3.53515625 C-37.20446655 3.41986572 -37.20446655 3.41986572 -35.79907227 3.30224609 C-34.81350342 3.22312988 -33.82793457 3.14401367 -32.8125 3.0625 C-25.14123972 2.41460834 -17.57141087 1.61603466 -9.97265625 0.3671875 C-6.62495047 -0.04632675 -3.36977561 -0.05904488 0 0 Z " fill="#1F1F1F" transform="translate(51,221)"/>
<path d="M0 0 C1.32 0.66 2.64 1.32 4 2 C2.8656185 9.94067053 -2.50728227 15.50728227 -8 21 C-8.66 21.33 -9.32 21.66 -10 22 C-10 18.04 -10 14.08 -10 10 C-9.34 10 -8.68 10 -8 10 C-7.34 11.32 -6.68 12.64 -6 14 C-4.37168238 12.19038423 -4.37168238 12.19038423 -3 10 C-3.33 9.01 -3.66 8.02 -4 7 C-2.35 6.34 -0.7 5.68 1 5 C0.67 3.35 0.34 1.7 0 0 Z " fill="#010101" transform="translate(442,237)"/>
<path d="M0 0 C0.33 0.66 0.66 1.32 1 2 C-1.43930572 7.15738924 -5.1444527 11.83184076 -9 16 C-9.66 16 -10.32 16 -11 16 C-11 19.63 -11 23.26 -11 27 C-13.31 27 -15.62 27 -18 27 C-18 26.01 -18 25.02 -18 24 C-16.35 24 -14.7 24 -13 24 C-13.165 22.865625 -13.33 21.73125 -13.5 20.5625 C-13.53793149 16.28382846 -12.0371287 14.41739709 -9.1875 11.3125 C-8.47980469 10.60738281 -7.77210937 9.90226562 -7.04296875 9.17578125 C-4.93511892 6.93090103 -3.53733881 4.65620431 -2 2 C-1.34 1.34 -0.68 0.68 0 0 Z " fill="#161616" transform="translate(18,254)"/>
<path d="M0 0 C2.31 0 4.62 0 7 0 C6.59683075 6.31631828 4.28767869 10.64993984 1 16 C0.67 16 0.34 16 0 16 C0 10.72 0 5.44 0 0 Z " fill="#F4F4F4" transform="translate(0,248)"/>
<path d="M0 0 C0.66 0.33 1.32 0.66 2 1 C1.319375 1.845625 0.63875 2.69125 -0.0625 3.5625 C-2.43065395 7.76406347 -1.82658451 9.37112672 -1 14 C-1.875 17.1875 -1.875 17.1875 -3 20 C-3.34976758 21.32911682 -3.69096017 22.66082739 -4 24 C-4.99 24 -5.98 24 -7 24 C-7 23.01 -7 22.02 -7 21 C-7.66 20.34 -8.32 19.68 -9 19 C-8.13375 18.154375 -7.2675 17.30875 -6.375 16.4375 C-4.93020894 14.85540789 -4.93020894 14.85540789 -4 13 C-4.53219091 9.17352608 -4.53219091 9.17352608 -6 6 C-4.02 4.02 -2.04 2.04 0 0 Z " fill="#000000" transform="translate(470,231)"/>
<path d="M0 0 C1.65 0.33 3.3 0.66 5 1 C5.90594807 3.61718331 5.98235878 5.10143704 5.5 7.875 C4.96376636 11.22646028 5.41081278 13.68582189 6 17 C5.67 17.99 5.34 18.98 5 20 C4.01 19.67 3.02 19.34 2 19 C2.2475 18.4225 2.495 17.845 2.75 17.25 C2.8325 16.5075 2.915 15.765 3 15 C1.14567913 12.72855926 1.14567913 12.72855926 -1 11 C0.33333333 8.33333333 1.66666667 5.66666667 3 3 C2.01 2.67 1.02 2.34 0 2 C0 1.34 0 0.68 0 0 Z " fill="#000000" transform="translate(564,256)"/>
<path d="M0 0 C0.99 0 1.98 0 3 0 C3.18304687 0.62390625 3.36609375 1.2478125 3.5546875 1.890625 C4.91662203 4.34008964 4.91662203 4.34008964 8.2578125 5.046875 C9.53398437 5.27890625 10.81015625 5.5109375 12.125 5.75 C13.40632813 5.99234375 14.68765625 6.2346875 16.0078125 6.484375 C16.99523437 6.65453125 17.98265625 6.8246875 19 7 C18.67 7.99 18.34 8.98 18 10 C5.33029613 8.25740319 5.33029613 8.25740319 0 5 C0 3.35 0 1.7 0 0 Z " fill="#030303" transform="translate(19,249)"/>
<path d="M0 0 C0.33 0.99 0.66 1.98 1 3 C-3.51217573 9.18335192 -9.77535116 9.69892854 -17 11 C-16.37109375 9.12890625 -16.37109375 9.12890625 -15 7 C-12.28515625 5.83984375 -12.28515625 5.83984375 -9.0625 4.9375 C-3.89064665 3.50226796 -3.89064665 3.50226796 0 0 Z " fill="#131313" transform="translate(79,232)"/>
<path d="M0 0 C0.66 0.33 1.32 0.66 2 1 C1.814375 1.515625 1.62875 2.03125 1.4375 2.5625 C0.83752918 5.1713937 0.83752918 5.1713937 1.5 8.5 C1.93772143 11.56405002 2.02210188 13.16082812 1 16 C0.01 15.67 -0.98 15.34 -2 15 C-1.773125 14.113125 -1.54625 13.22625 -1.3125 12.3125 C-0.94548054 8.42209376 -1.73118159 7.08559304 -4 4 C-2.68 2.68 -1.36 1.36 0 0 Z " fill="#000000" transform="translate(518,231)"/>
<path d="M0 0 C0.66 0 1.32 0 2 0 C2 3.3 2 6.6 2 10 C-0.31 10 -2.62 10 -5 10 C-5 9.01 -5 8.02 -5 7 C-3.35 7 -1.7 7 0 7 C0 4.69 0 2.38 0 0 Z " fill="#0D0D0D" transform="translate(5,271)"/>
<path d="M0 0 C0.93045933 2.55144824 1.08564091 3.74006478 0.22265625 6.359375 C-0.16019531 7.14828125 -0.54304687 7.9371875 -0.9375 8.75 C-1.50791016 9.94882812 -1.50791016 9.94882812 -2.08984375 11.171875 C-2.39019531 11.77515625 -2.69054687 12.3784375 -3 13 C-3.66 13 -4.32 13 -5 13 C-5.83861979 7.63283335 -2.92070405 4.20372761 0 0 Z " fill="#0B0B0B" transform="translate(5,256)"/>
<path d="M0 0 C0.33 0 0.66 0 1 0 C1 2.97 1 5.94 1 9 C0.01 9 -0.98 9 -2 9 C-1.125 1.125 -1.125 1.125 0 0 Z " fill="#000000" transform="translate(602,255)"/>
</svg>
