<?xml version="1.0" encoding="UTF-8"?>
<svg version="1.1" xmlns="http://www.w3.org/2000/svg" width="800" height="300">
<path d="M0 0 C264 0 528 0 800 0 C800 99 800 198 800 300 C536 300 272 300 0 300 C0 201 0 102 0 0 Z " fill="#FEFEFE" transform="translate(0,0)"/>
<path d="M0 0 C3.4249741 1.42754275 5.72163394 3.06853023 8 6 C8.33569336 8.54150391 8.33569336 8.54150391 8.21484375 11.2265625 C8.18382568 12.12197754 8.15280762 13.01739258 8.12084961 13.93994141 C8.08096924 14.61976074 8.04108887 15.29958008 8 16 C8.99737183 15.99214478 8.99737183 15.99214478 10.01489258 15.98413086 C30.38016898 15.84772926 50.62244647 16.41778418 71 17 C71 42.74 71 68.48 71 95 C45.26 95.33 19.52 95.66 -7 96 C-5.02 98.97 -3.04 101.94 -1 105 C-0.67 105.99 -0.34 106.98 0 108 C2.99271817 108.96083447 2.99271817 108.96083447 6.5 109.5625 C8.67905713 109.98173164 10.850677 110.44822488 13 111 C15.09367311 115.18734621 14.56014232 120.45039957 14 125 C11.75 127.5625 11.75 127.5625 9 129 C8.401875 129.5775 7.80375 130.155 7.1875 130.75 C3.87878494 132.64069432 0.66823459 132.52299582 -3 132 C-6 130.875 -6 130.875 -8 129 C-8.608676 125.42402849 -8.44405832 123.70309234 -6.5 120.625 C-6.005 120.08875 -5.51 119.5525 -5 119 C-6.36125 118.13375 -6.36125 118.13375 -7.75 117.25 C-11 115 -11 115 -12.8125 113.0625 C-15.55378882 110.47785625 -18.54270679 108.96201421 -21.87890625 107.24609375 C-24 106 -24 106 -25.23046875 104.39941406 C-27.00382589 102.7081297 -27.00382589 102.7081297 -29.90405273 102.93481445 C-31.06880127 103.0762085 -32.2335498 103.21760254 -33.43359375 103.36328125 C-34.72330078 103.50830078 -36.01300781 103.65332031 -37.34179688 103.80273438 C-38.70715859 103.97162996 -40.07239307 104.14155725 -41.4375 104.3125 C-50.66655027 105.42187433 -59.69491466 106.26567216 -69 106 C-69.13148438 106.78761719 -69.26296875 107.57523437 -69.3984375 108.38671875 C-70 111 -70 111 -71.625 112.8125 C-75.03215469 114.51607735 -77.23207391 114.51971394 -81 114 C-83.97046873 112.20976215 -86.42502414 110.14995172 -88 107 C-88.04003069 101.57984419 -87.83046319 96.59941058 -85.3125 91.75 C-83 90 -83 90 -79.9375 89.5625 C-77 90 -77 90 -74 92 C-70.87478167 92.16699232 -70.87478167 92.16699232 -68 92 C-68.64066406 91.58492188 -69.28132812 91.16984375 -69.94140625 90.7421875 C-77.45267101 85.39139084 -82.79881737 79.12374249 -85 70 C-86.81666829 55.97363085 -86.11856304 40.53667688 -77.53515625 28.83203125 C-72.59304707 22.93419612 -65.69244239 18.75048218 -58 18 C-58.0825 17.01 -58.165 16.02 -58.25 15 C-58.27825307 10.38533109 -56.35366383 6.87551072 -54 3 C-53 2 -53 2 -50.3125 1.5625 C-46.23535029 2.10099147 -44.88871224 3.36710743 -42.19140625 6.33203125 C-40.6503106 8.48956516 -40.15489396 10.36680276 -40 13 C-39.16726563 12.67515625 -38.33453125 12.3503125 -37.4765625 12.015625 C-33.62009989 10.88901795 -30.38660276 10.73392143 -26.375 10.75 C-24.43753906 10.74226562 -24.43753906 10.74226562 -22.4609375 10.734375 C-19.31589796 10.97575501 -17.61376712 11.32825047 -15 13 C-15.0825 11.948125 -15.165 10.89625 -15.25 9.8125 C-14.96269651 5.43112175 -14.05154419 4.05154419 -11 1 C-7.45168665 -0.77415668 -3.86515634 -0.61867003 0 0 Z " fill="#FCFCFC" transform="translate(729,154)"/>
<path d="M0 0 C3.4249741 1.42754275 5.72163394 3.06853023 8 6 C8.33569336 8.54150391 8.33569336 8.54150391 8.21484375 11.2265625 C8.18382568 12.12197754 8.15280762 13.01739258 8.12084961 13.93994141 C8.08096924 14.61976074 8.04108887 15.29958008 8 16 C8.99737183 15.99214478 8.99737183 15.99214478 10.01489258 15.98413086 C30.36414168 15.84783661 50.66395895 16.32571857 71 17 C71 17.99 71 18.98 71 20 C48.66439776 19.39706863 26.33132106 18.74549601 4 18 C4.03480469 17.31292969 4.06960938 16.62585938 4.10546875 15.91796875 C4.14607422 14.56638672 4.14607422 14.56638672 4.1875 13.1875 C4.22230469 12.29417969 4.25710938 11.40085938 4.29296875 10.48046875 C4.21175945 7.95340955 4.21175945 7.95340955 2.60717773 6.21435547 C-0.28420341 4.0296783 -3.45919624 3.91450776 -7 4 C-9.65459838 4.65756059 -9.65459838 4.65756059 -11 7 C-11.32168978 10.02924543 -11.22894709 12.96645108 -11 16 C-14.28696233 16.79953138 -15.71023192 17.09658936 -19 16 C-21.55335331 15.90245617 -24.07240454 15.85859213 -26.625 15.875 C-27.69717773 15.87790039 -27.69717773 15.87790039 -28.79101562 15.88085938 C-33.92333273 15.92273685 -38.91435453 16.27347922 -44 17 C-44.0825 15.7625 -44.165 14.525 -44.25 13.25 C-44.63475459 10.01117036 -44.90024003 9.12092117 -47.0625 6.5 C-47.701875 6.005 -48.34125 5.51 -49 5 C-52.17084359 5.71586975 -52.17084359 5.71586975 -53.625 8.4375 C-55.36660267 12.94983418 -55.72496585 17.2011283 -56 22 C-57.175625 22.0928125 -57.175625 22.0928125 -58.375 22.1875 C-64.39406284 23.53660029 -70.93420264 26.18083431 -75 31 C-76.13046906 32.82699707 -76.13046906 32.82699707 -77.0625 34.8125 C-77.54396484 35.78123047 -77.54396484 35.78123047 -78.03515625 36.76953125 C-80.93483151 43.47282911 -81.33557612 49.13832841 -81.3125 56.375 C-81.32861328 57.37789062 -81.34472656 58.38078125 -81.36132812 59.4140625 C-81.36783486 69.3563544 -78.73322638 76.58392283 -72 84 C-63.92748547 91.81530205 -53.50196222 91.21685888 -42.9296875 91.0703125 C-41.96289062 91.04710937 -40.99609375 91.02390625 -40 91 C-39.67 91.66 -39.34 92.32 -39 93 C-46.42482397 94.3779403 -53.74501035 95.30606728 -61.28515625 95.75390625 C-64.09387971 95.90390885 -64.09387971 95.90390885 -67 97 C-71.30379794 97.39849981 -73.31312143 97.46766201 -76.9375 95 C-77.9584375 94.01 -77.9584375 94.01 -79 93 C-81.03843011 93.61127543 -81.03843011 93.61127543 -83 95 C-84.10689982 98.63201504 -84.22887848 102.22071382 -84 106 C-82.66177841 108.84074462 -82.66177841 108.84074462 -80 110 C-76.832168 110.33448259 -76.832168 110.33448259 -74 110 C-73.4465236 107.92446352 -73 106.15634036 -73 104 C-70.02008474 102.51004237 -66.84353894 102.40288949 -63.5703125 102.02734375 C-62.82474091 101.93997452 -62.07916931 101.85260529 -61.31100464 101.7625885 C-59.72579555 101.57826258 -58.14034734 101.39598347 -56.5546875 101.21557617 C-54.16829606 100.94245521 -51.78342113 100.65816488 -49.3984375 100.37304688 C-42.63593917 99.58146103 -35.85931883 98.85446009 -29.0546875 98.56640625 C-28.13929199 98.52588135 -27.22389648 98.48535645 -26.28076172 98.44360352 C-24 99 -24 99 -22.34399414 101.42333984 C-21.90047607 102.2736377 -21.45695801 103.12393555 -21 104 C-18.45068158 105.72805533 -18.45068158 105.72805533 -15.5625 107.0625 C-11.65571868 108.98134089 -9.01194776 110.87391528 -6 114 C-4.03120677 115.06011943 -2.03564133 116.07470849 0 117 C0 117.99 0 118.98 0 120 C-1.66666667 121.33333333 -3.33333333 122.66666667 -5 124 C-5 124.99 -5 125.98 -5 127 C0.41735797 127.93402724 3.80451575 128.20808081 9 126 C10.43966791 119.55123906 10.43966791 119.55123906 11 113 C10.195625 113.309375 10.195625 113.309375 9.375 113.625 C6.01398052 114.15568729 4.09268121 113.38855075 1 112 C-3.10281331 108.61517902 -5.72217242 104.51552726 -8.57421875 100.09375 C-10.15285907 97.7755275 -11.89969015 95.85796641 -14 94 C-13.505 92.515 -13.505 92.515 -13 91 C14.72 91 42.44 91 71 91 C71 92.32 71 93.64 71 95 C45.26 95.33 19.52 95.66 -7 96 C-5.02 98.97 -3.04 101.94 -1 105 C-0.67 105.99 -0.34 106.98 0 108 C2.99271817 108.96083447 2.99271817 108.96083447 6.5 109.5625 C8.67905713 109.98173164 10.850677 110.44822488 13 111 C15.09367311 115.18734621 14.56014232 120.45039957 14 125 C11.75 127.5625 11.75 127.5625 9 129 C8.401875 129.5775 7.80375 130.155 7.1875 130.75 C3.87878494 132.64069432 0.66823459 132.52299582 -3 132 C-6 130.875 -6 130.875 -8 129 C-8.608676 125.42402849 -8.44405832 123.70309234 -6.5 120.625 C-6.005 120.08875 -5.51 119.5525 -5 119 C-6.36125 118.13375 -6.36125 118.13375 -7.75 117.25 C-11 115 -11 115 -12.8125 113.0625 C-15.55378882 110.47785625 -18.54270679 108.96201421 -21.87890625 107.24609375 C-24 106 -24 106 -25.23046875 104.39941406 C-27.00382589 102.7081297 -27.00382589 102.7081297 -29.90405273 102.93481445 C-31.06880127 103.0762085 -32.2335498 103.21760254 -33.43359375 103.36328125 C-34.72330078 103.50830078 -36.01300781 103.65332031 -37.34179688 103.80273438 C-38.70715859 103.97162996 -40.07239307 104.14155725 -41.4375 104.3125 C-50.66655027 105.42187433 -59.69491466 106.26567216 -69 106 C-69.13148438 106.78761719 -69.26296875 107.57523437 -69.3984375 108.38671875 C-70 111 -70 111 -71.625 112.8125 C-75.03215469 114.51607735 -77.23207391 114.51971394 -81 114 C-83.97046873 112.20976215 -86.42502414 110.14995172 -88 107 C-88.04003069 101.57984419 -87.83046319 96.59941058 -85.3125 91.75 C-83 90 -83 90 -79.9375 89.5625 C-77 90 -77 90 -74 92 C-70.87478167 92.16699232 -70.87478167 92.16699232 -68 92 C-68.64066406 91.58492188 -69.28132812 91.16984375 -69.94140625 90.7421875 C-77.45267101 85.39139084 -82.79881737 79.12374249 -85 70 C-86.81666829 55.97363085 -86.11856304 40.53667688 -77.53515625 28.83203125 C-72.59304707 22.93419612 -65.69244239 18.75048218 -58 18 C-58.0825 17.01 -58.165 16.02 -58.25 15 C-58.27825307 10.38533109 -56.35366383 6.87551072 -54 3 C-53 2 -53 2 -50.3125 1.5625 C-46.23535029 2.10099147 -44.88871224 3.36710743 -42.19140625 6.33203125 C-40.6503106 8.48956516 -40.15489396 10.36680276 -40 13 C-39.16726563 12.67515625 -38.33453125 12.3503125 -37.4765625 12.015625 C-33.62009989 10.88901795 -30.38660276 10.73392143 -26.375 10.75 C-24.43753906 10.74226562 -24.43753906 10.74226562 -22.4609375 10.734375 C-19.31589796 10.97575501 -17.61376712 11.32825047 -15 13 C-15.0825 11.948125 -15.165 10.89625 -15.25 9.8125 C-14.96269651 5.43112175 -14.05154419 4.05154419 -11 1 C-7.45168665 -0.77415668 -3.86515634 -0.61867003 0 0 Z " fill="#131313" transform="translate(729,154)"/>
<path d="M0 0 C27.72 0 55.44 0 84 0 C84 1.32 84 2.64 84 4 C58.26 4.33 32.52 4.66 6 5 C7.98 7.97 9.96 10.94 12 14 C12.495 15.485 12.495 15.485 13 17 C15.99271817 17.96083447 15.99271817 17.96083447 19.5 18.5625 C21.67905713 18.98173164 23.850677 19.44822488 26 20 C28.09367311 24.18734621 27.56014232 29.45039957 27 34 C24.75 36.5625 24.75 36.5625 22 38 C21.401875 38.5775 20.80375 39.155 20.1875 39.75 C16.87878494 41.64069432 13.66823459 41.52299582 10 41 C7 39.875 7 39.875 5 38 C4.391324 34.42402849 4.55594168 32.70309234 6.5 29.625 C6.995 29.08875 7.49 28.5525 8 28 C6.63875 27.13375 6.63875 27.13375 5.25 26.25 C2 24 2 24 0.1875 22.0625 C-2.55378882 19.47785625 -5.54270679 17.96201421 -8.87890625 16.24609375 C-11 15 -11 15 -12.21508789 13.39941406 C-15.00655459 11.21083697 -17.2323659 11.96021333 -20.6796875 12.36328125 C-21.32946564 12.43411423 -21.97924377 12.5049472 -22.64871216 12.57792664 C-24.72621359 12.80744289 -26.80027273 13.05923223 -28.875 13.3125 C-30.94289128 13.55032436 -33.01124268 13.78356078 -35.0798645 14.01493835 C-36.9628252 14.22789207 -38.84449624 14.45215851 -40.72607422 14.67700195 C-43.51658055 14.95230694 -46.19995526 15.06452478 -49 15 C-48.67 13.68 -48.34 12.36 -48 11 C-44.08484651 10.48766901 -40.16769535 9.99248492 -36.25 9.5 C-35.15816406 9.35691406 -34.06632813 9.21382812 -32.94140625 9.06640625 C-27.42601051 8.38106122 -21.91351409 7.82810186 -16.359375 7.59375 C-15.39999023 7.54927734 -14.44060547 7.50480469 -13.45214844 7.45898438 C-11 8 -11 8 -9.32495117 10.42163086 C-8.88771729 11.27249268 -8.4504834 12.12335449 -8 13 C-5.45068158 14.72805533 -5.45068158 14.72805533 -2.5625 16.0625 C1.34428132 17.98134089 3.98805224 19.87391528 7 23 C8.96879323 24.06011943 10.96435867 25.07470849 13 26 C13 26.99 13 27.98 13 29 C11.33333333 30.33333333 9.66666667 31.66666667 8 33 C8 33.99 8 34.98 8 36 C13.41735797 36.93402724 16.80451575 37.20808081 22 35 C23.43966791 28.55123906 23.43966791 28.55123906 24 22 C23.46375 22.20625 22.9275 22.4125 22.375 22.625 C19.01398052 23.15568729 17.09268121 22.38855075 14 21 C9.89718669 17.61517902 7.27782758 13.51552726 4.42578125 9.09375 C2.84714093 6.7755275 1.10030985 4.85796641 -1 3 C-0.67 2.01 -0.34 1.02 0 0 Z " fill="#1E1E1E" transform="translate(716,245)"/>
<path d="M0 0 C1.80868813 0.00333092 1.80868813 0.00333092 3.65391541 0.00672913 C4.31730423 0.0065831 4.98069305 0.00643707 5.66418457 0.00628662 C7.86644207 0.00698571 10.06861596 0.01477787 12.27085876 0.02259827 C13.79400588 0.02446246 15.31715359 0.02588636 16.84030151 0.02688599 C20.85657903 0.03071105 24.87282059 0.04054124 28.88908386 0.05158997 C32.98443617 0.06180433 37.07979427 0.06638366 41.17515564 0.07142639 C49.21618779 0.08216352 57.25719069 0.0992398 65.29820251 0.12025452 C65.29820251 1.44025452 65.29820251 2.76025452 65.29820251 4.12025452 C39.55820251 4.12025452 13.81820251 4.12025452 -12.70179749 4.12025452 C-13.03179749 3.46025452 -13.36179749 2.80025452 -13.70179749 2.12025452 C-12.99152405 2.05966858 -12.28125061 1.99908264 -11.54945374 1.93666077 C-10.17080139 1.81097717 -10.17080139 1.81097717 -8.76429749 1.68275452 C-7.84777405 1.60154358 -6.93125061 1.52033264 -5.98695374 1.43666077 C-3.1413834 1.04265872 -3.00609195 0.13379838 0 0 Z " fill="#2A2A2A" transform="translate(734.7017974853516,244.87974548339844)"/>
<path d="M0 0 C4.95 0.33 9.9 0.66 15 1 C15 1.33 15 1.66 15 2 C10.545 2.495 10.545 2.495 6 3 C6.97270601 6.71396841 8.12631819 9.376162 10.625 12.25 C13 15 13 15 13 17 C13.92683594 17.19335938 14.85367188 17.38671875 15.80859375 17.5859375 C17.00613281 17.84632813 18.20367188 18.10671875 19.4375 18.375 C21.22994141 18.75785156 21.22994141 18.75785156 23.05859375 19.1484375 C24.02925781 19.42945313 24.99992188 19.71046875 26 20 C28.09367311 24.18734621 27.56014232 29.45039957 27 34 C24.75 36.5625 24.75 36.5625 22 38 C21.401875 38.5775 20.80375 39.155 20.1875 39.75 C16.89611173 41.6307933 13.65306983 41.56423653 10 41 C7 39.5 7 39.5 5 38 C5.33 36.35 5.66 34.7 6 33 C6.66 33.99 7.32 34.98 8 36 C13.40534019 37.17115704 16.80744353 37.2068365 22 35 C23.43966791 28.55123906 23.43966791 28.55123906 24 22 C23.46375 22.20625 22.9275 22.4125 22.375 22.625 C19.01398052 23.15568729 17.09268121 22.38855075 14 21 C9.89718669 17.61517902 7.27782758 13.51552726 4.42578125 9.09375 C2.84714093 6.7755275 1.10030985 4.85796641 -1 3 C-0.67 2.01 -0.34 1.02 0 0 Z " fill="#141414" transform="translate(716,245)"/>
<path d="M0 0 C0.33 0.99 0.66 1.98 1 3 C0.08476563 3.13277344 -0.83046875 3.26554688 -1.7734375 3.40234375 C-2.96195313 3.57894531 -4.15046875 3.75554687 -5.375 3.9375 C-6.55835938 4.11152344 -7.74171875 4.28554687 -8.9609375 4.46484375 C-11.90702381 4.83462786 -11.90702381 4.83462786 -14 6 C-14.46651207 8.12576782 -14.46651207 8.12576782 -14.625 10.5625 C-14.69976563 11.38878906 -14.77453125 12.21507812 -14.8515625 13.06640625 C-14.90054688 13.70449219 -14.94953125 14.34257812 -15 15 C-14.34 15 -13.68 15 -13 15 C-13 15.99 -13 16.98 -13 18 C-12.34 18 -11.68 18 -11 18 C-11 18.99 -11 19.98 -11 21 C-6.84373632 22.00926479 -2.95634906 22.10239579 1.3125 22.0625 C2.56675781 22.05347656 3.82101562 22.04445312 5.11328125 22.03515625 C6.06589844 22.02355469 7.01851562 22.01195312 8 22 C8 22.99 8 23.98 8 25 C-7.40139096 26.77297566 -7.40139096 26.77297566 -13 23 C-16.45080535 18.64108798 -18.13921721 15.03913949 -18.25 9.5 C-18.27578125 8.7265625 -18.3015625 7.953125 -18.328125 7.15625 C-17.91786989 4.46028784 -17.11846448 3.6616392 -15 2 C-9.99343982 -0.26487246 -5.37723694 -0.21508948 0 0 Z " fill="#171717" transform="translate(684,193)"/>
<path d="M0 0 C12.87 0.495 12.87 0.495 26 1 C26 1.66 26 2.32 26 3 C17.75 3 9.5 3 1 3 C0.67 2.01 0.34 1.02 0 0 Z " fill="#020202" transform="translate(671,228)"/>
<path d="M0 0 C0.99 0 1.98 0 3 0 C3.25 6.625 3.25 6.625 1 10 C-1.5 10.375 -1.5 10.375 -4 10 C-6.29013653 6.5647952 -6.17842973 5.014669 -6 1 C-5.34 1 -4.68 1 -4 1 C-3.67 2.65 -3.34 4.3 -3 6 C-2.01 6.33 -1.02 6.66 0 7 C0 4.69 0 2.38 0 0 Z " fill="#0A0A0A" transform="translate(746,207)"/>
<path d="M0 0 C0.66 0 1.32 0 2 0 C2.25 7.625 2.25 7.625 0 11 C-4.875 10.125 -4.875 10.125 -6 9 C-6.04080783 7.00041636 -6.04254356 4.99954746 -6 3 C-5.34 3 -4.68 3 -4 3 C-3.67 4.65 -3.34 6.3 -3 8 C-2.34 7.67 -1.68 7.34 -1 7 C-0.59270772 4.67843403 -0.25561323 2.3431213 0 0 Z " fill="#080808" transform="translate(715,221)"/>
<path d="M0 0 C0.33 0 0.66 0 1 0 C1.33 3.63 1.66 7.26 2 11 C1.0925 11.144375 0.185 11.28875 -0.75 11.4375 C-3.21476956 11.86409473 -5.58847107 12.35074221 -8 13 C-8 11.68 -8 10.36 -8 9 C-5.36 8.34 -2.72 7.68 0 7 C0 4.69 0 2.38 0 0 Z " fill="#282828" transform="translate(671,165)"/>
<path d="M0 0 C0.66 0 1.32 0 2 0 C2.125 2.875 2.125 2.875 2 6 C0 8 0 8 -2.625 8.125 C-3.40875 8.08375 -4.1925 8.0425 -5 8 C-5.33 6.02 -5.66 4.04 -6 2 C-5.01 2 -4.02 2 -3 2 C-3 2.99 -3 3.98 -3 5 C-2.34 4.67 -1.68 4.34 -1 4 C-0.34786708 1.97536745 -0.34786708 1.97536745 0 0 Z " fill="#080808" transform="translate(655,206)"/>
<path d="M0 0 C0.66 0.33 1.32 0.66 2 1 C1.71125 1.515625 1.4225 2.03125 1.125 2.5625 C-0.15549263 5.14213157 -0.15549263 5.14213157 -0.9375 8.6875 C-1.288125 9.780625 -1.63875 10.87375 -2 12 C-2.99 12.33 -3.98 12.66 -5 13 C-4.74379316 11.3934324 -4.46944129 9.7897517 -4.1875 8.1875 C-4.03667969 7.29417969 -3.88585937 6.40085938 -3.73046875 5.48046875 C-2.94604607 2.81678744 -2.11372201 1.74309678 0 0 Z " fill="#1B1B1B" transform="translate(646,244)"/>
<path d="M0 0 C0.66 0.33 1.32 0.66 2 1 C1.07361787 3.38212548 0.16764006 5.69430342 -1.0625 7.9375 C-2.26138896 10.57505571 -2.61027831 13.14204094 -3 16 C-3.33 16 -3.66 16 -4 16 C-4.54330269 9.34454208 -3.77304004 5.54165256 0 0 Z " fill="#181818" transform="translate(676,156)"/>
<path d="M0 0 C0.33 0 0.66 0 1 0 C0.67 2.97 0.34 5.94 0 9 C-0.99 9.33 -1.98 9.66 -3 10 C-2.69201674 8.51988629 -2.378482 7.04092675 -2.0625 5.5625 C-1.88847656 4.73878906 -1.71445312 3.91507813 -1.53515625 3.06640625 C-1 1 -1 1 0 0 Z " fill="#020202" transform="translate(647,194)"/>
</svg>
