<?xml version="1.0" encoding="UTF-8"?>
<svg version="1.1" xmlns="http://www.w3.org/2000/svg" width="800" height="300">
<path d="M0 0 C264 0 528 0 800 0 C800 99 800 198 800 300 C536 300 272 300 0 300 C0 201 0 102 0 0 Z " fill="#FEFEFE" transform="translate(0,0)"/>
<path d="M0 0 C3 1.125 3 1.125 5 3.6875 C9.32001529 7.19751242 13.01420795 6.59726205 18.4296875 6.49609375 C22.01158558 6.23583078 22.01158558 6.23583078 25.37890625 5.11328125 C29.72194312 3.92796482 33.58676641 3.82463072 38.0625 3.875 C38.917229 3.87959229 39.77195801 3.88418457 40.65258789 3.88891602 C51.61101098 4.03859687 63.01807355 4.52413677 73.78515625 6.68359375 C80.82494371 8.0865849 88.40862453 7.17685983 95.53857422 6.76416016 C105.97627002 6.1740504 116.4101612 5.95654549 126.86279297 5.89282227 C128.52755234 5.88101202 130.19228348 5.86398605 131.85693359 5.84155273 C134.22511537 5.81141051 136.59258459 5.80161354 138.9609375 5.796875 C139.6675351 5.78456848 140.37413269 5.77226196 141.10214233 5.75958252 C146.17862453 5.78191008 149.57350682 6.81558656 154 9.125 C155.125 11.0625 155.125 11.0625 156 13.125 C157.65788785 14.46923339 159.32576317 15.80118483 161 17.125 C166.84894313 23.54457172 170.43621605 29.48716048 171.3125 38.25 C170.50377503 48.27818958 165.21584103 59.73516824 158.5 67.25 C153.59544727 70.92841455 147.51979135 70.25205331 141.61328125 70.1875 C140.79796432 70.18371338 139.9826474 70.17992676 139.1426239 70.17602539 C135.69405414 70.15997515 132.245609 70.13260761 128.79711914 70.10449219 C119.32798193 70.03416536 109.89614519 70.09692316 100.43473816 70.52130127 C85.70750233 71.18117987 71.09029734 71.04011423 56.35986328 70.51074219 C52.44729389 70.37314645 48.53447789 70.26017907 44.62109375 70.1484375 C42.09109647 70.06396567 39.56114587 69.97808136 37.03125 69.890625 C35.88217163 69.85922424 34.73309326 69.82782349 33.54919434 69.79547119 C23.3765977 69.39496198 11.83441329 68.06975681 4.34765625 60.44140625 C-1.82681152 52.93844664 -3.0637654 44.33844549 -4.4609375 34.97265625 C-4.94344294 32.42376882 -5.62919869 30.37782463 -6.625 28 C-8.28641092 23.3583262 -8.40171748 18.75701372 -8.5 13.875 C-8.5304541 13.09366699 -8.5609082 12.31233398 -8.59228516 11.50732422 C-8.59503932 7.23378247 -8.35530653 5.58571414 -5.65625 2.0859375 C-3 0.125 -3 0.125 0 0 Z " fill="#646464" transform="translate(433,214.875)"/>
<path d="M0 0 C3 1.125 3 1.125 5 3.6875 C9.32001529 7.19751242 13.01420795 6.59726205 18.4296875 6.49609375 C22.01158558 6.23583078 22.01158558 6.23583078 25.37890625 5.11328125 C29.72194312 3.92796482 33.58676641 3.82463072 38.0625 3.875 C38.917229 3.87959229 39.77195801 3.88418457 40.65258789 3.88891602 C51.61101098 4.03859687 63.01807355 4.52413677 73.78515625 6.68359375 C80.82494371 8.0865849 88.40862453 7.17685983 95.53857422 6.76416016 C105.97627002 6.1740504 116.4101612 5.95654549 126.86279297 5.89282227 C128.52755234 5.88101202 130.19228348 5.86398605 131.85693359 5.84155273 C134.22511537 5.81141051 136.59258459 5.80161354 138.9609375 5.796875 C139.6675351 5.78456848 140.37413269 5.77226196 141.10214233 5.75958252 C146.17862453 5.78191008 149.57350682 6.81558656 154 9.125 C155.125 11.0625 155.125 11.0625 156 13.125 C157.65788785 14.46923339 159.32576317 15.80118483 161 17.125 C166.84894313 23.54457172 170.43621605 29.48716048 171.3125 38.25 C170.50377503 48.27818958 165.21584103 59.73516824 158.5 67.25 C153.59544727 70.92841455 147.51979135 70.25205331 141.61328125 70.1875 C140.79796432 70.18371338 139.9826474 70.17992676 139.1426239 70.17602539 C135.69405414 70.15997515 132.245609 70.13260761 128.79711914 70.10449219 C119.32798193 70.03416536 109.89614519 70.09692316 100.43473816 70.52130127 C85.70750233 71.18117987 71.09029734 71.04011423 56.35986328 70.51074219 C52.44729389 70.37314645 48.53447789 70.26017907 44.62109375 70.1484375 C42.09109647 70.06396567 39.56114587 69.97808136 37.03125 69.890625 C35.88217163 69.85922424 34.73309326 69.82782349 33.54919434 69.79547119 C23.3765977 69.39496198 11.83441329 68.06975681 4.34765625 60.44140625 C-1.82681152 52.93844664 -3.0637654 44.33844549 -4.4609375 34.97265625 C-4.94344294 32.42376882 -5.62919869 30.37782463 -6.625 28 C-8.28641092 23.3583262 -8.40171748 18.75701372 -8.5 13.875 C-8.5304541 13.09366699 -8.5609082 12.31233398 -8.59228516 11.50732422 C-8.59503932 7.23378247 -8.35530653 5.58571414 -5.65625 2.0859375 C-3 0.125 -3 0.125 0 0 Z M-2 3.125 C-5.34219637 6.76799404 -5.86682069 9.94781704 -6.19921875 14.7578125 C-5.95003152 18.96956534 -5.0251107 22.72175764 -3.8125 26.75 C-3.60431641 27.46124023 -3.39613281 28.17248047 -3.18164062 28.90527344 C-2.48498439 31.15772482 -2.48498439 31.15772482 -1 34.125 C1.05763303 35.20031087 1.05763303 35.20031087 3 35.125 C3 33.805 3 32.485 3 31.125 C3.99 31.125 4.98 31.125 6 31.125 C6.1546875 30.01125 6.1546875 30.01125 6.3125 28.875 C7.04253504 25.95485982 8.06789398 24.39312446 10 22.125 C9.39050431 26.2695707 7.96084772 29.4386063 6 33.125 C5.690625 33.8675 5.38125 34.61 5.0625 35.375 C3.7196378 37.58677303 2.28882417 38.01750443 0 39.125 C-1.80310102 44.53430306 0.85118344 50.03032809 3 55.125 C4.89597259 57.55165194 6.29919246 58.5397434 9 60.125 C9.66 60.125 10.32 60.125 11 60.125 C11 60.785 11 61.445 11 62.125 C21.26154022 65.59645722 30.67541799 66.20126388 41.4375 66.25 C42.77143799 66.25713013 42.77143799 66.25713013 44.13232422 66.2644043 C45.39520264 66.26114136 45.39520264 66.26114136 46.68359375 66.2578125 C47.82139282 66.25612061 47.82139282 66.25612061 48.98217773 66.25439453 C51.20626495 66.197839 51.20626495 66.197839 54 65.125 C54.20086443 61.40900809 54.1519437 60.35291555 52 57.125 C52.875 54.4375 52.875 54.4375 54 52.125 C53.01 51.135 52.02 50.145 51 49.125 C51.680625 48.568125 52.36125 48.01125 53.0625 47.4375 C55.28097119 45.29246056 55.28097119 45.29246056 55 42.5 C54.20423043 39.98006227 54.20423043 39.98006227 51.9375 38.8125 C51.298125 38.585625 50.65875 38.35875 50 38.125 C50.495 37.135 50.495 37.135 51 36.125 C52.875 36.75 52.875 36.75 55 38.125 C57.27878599 42.7910856 56.96687605 46.11482411 56 51.125 C54.96234078 57.03965756 55.10030096 61.42590287 57 67.125 C58.95486328 67.10953125 58.95486328 67.10953125 60.94921875 67.09375 C65.58771764 67.09375 70.18493274 67.33249253 74.8125 67.625 C81.91885989 68.03528471 89.0067453 68.23457722 96.125 68.25 C97.43174683 68.25676758 97.43174683 68.25676758 98.76489258 68.26367188 C102.69673607 68.64435259 102.69673607 68.64435259 106 67.125 C108.67250538 67.10412105 111.32900188 67.1313335 114 67.1875 C120.31908812 67.26676106 125.88847363 66.90289858 132 65.125 C132.94125778 61.46455306 133.65698407 57.89817527 134 54.125 C133.34 53.135 132.68 52.145 132 51.125 C133.98 48.155 133.98 48.155 136 45.125 C134.02 43.145 134.02 43.145 132 41.125 C133.32 41.455 134.64 41.785 136 42.125 C136.625 44.5 136.625 44.5 137 47.125 C136.01 48.115 136.01 48.115 135 49.125 C135.165 50.218125 135.33 51.31125 135.5 52.4375 C136.03296631 56.36812655 135.48213276 57.6049347 134 61.125 C134.27701774 62.80194665 134.60458862 64.47196076 135 66.125 C146.213767 67.99624647 146.213767 67.99624647 156.609375 64.953125 C163.05860623 58.23794609 167.90754151 47.33286442 169 38.125 C167.48779932 29.66347263 161.28652745 21.7130244 155 16.125 C154.01 15.63 154.01 15.63 153 15.125 C152.61781233 16.78114657 152.28604898 18.44957024 152 20.125 C152.33 20.455 152.66 20.785 153 21.125 C153.2165625 22.73375 153.2165625 22.73375 153.4375 24.375 C153.82799456 28.02222987 153.82799456 28.02222987 155.125 30.8125 C156.11341176 33.42473109 155.95398577 34.54923842 155 37.125 C152.525 37.62 152.525 37.62 150 38.125 C151 36.125 151 36.125 154 34.125 C153.505 33.238125 153.01 32.35125 152.5 31.4375 C151.05621326 28.24913762 150.69840078 26.54312454 151 23.125 C149.68 22.795 148.36 22.465 147 22.125 C148.98 17.67 148.98 17.67 151 13.125 C145.21350937 9.83307915 141.17561486 8.54587548 134.5625 8.734375 C133.79695801 8.74003479 133.03141602 8.74569458 132.24267578 8.75152588 C129.82777979 8.77369165 127.41443777 8.82384461 125 8.875 C123.35028204 8.89509085 121.70054052 8.91333706 120.05078125 8.9296875 C116.03326695 8.97349057 112.01689574 9.04237398 108 9.125 C108 9.785 108 10.445 108 11.125 C108.99 11.8984375 108.99 11.8984375 110 12.6875 C112.61592046 15.87565306 112.36839565 17.90694411 112.23828125 21.90625 C112 24.125 112 24.125 111.41796875 26.25390625 C110.7829888 28.25792357 110.7829888 28.25792357 112 30.5625 C113.20265703 33.64430863 113.24108827 35.06364894 112 38.125 C109.4375 39.4375 109.4375 39.4375 107 40.125 C108.65 38.145 110.3 36.165 112 34.125 C111.484375 33.238125 110.96875 32.35125 110.4375 31.4375 C108.8982735 27.89058677 108.80781918 26.70154245 110 23.125 C110.33 22.465 110.66 21.805 111 21.125 C110.01 21.125 109.02 21.125 108 21.125 C108.33 20.526875 108.66 19.92875 109 19.3125 C110.20787988 17.07113529 110.20787988 17.07113529 110 14.125 C107.17159994 11.10586005 105.50626342 10.18930472 101.37109375 9.6640625 C100.07300781 9.69242188 98.77492188 9.72078125 97.4375 9.75 C96.13683594 9.76289063 94.83617187 9.77578125 93.49609375 9.7890625 C90.3697929 10.08946683 88.60753355 10.46626365 86 12.125 C86.99 13.61 86.99 13.61 88 15.125 C87.67873872 17.75934254 87.18644952 19.75210097 86 22.125 C85.98012522 23.72917883 86.0072121 25.33415101 86.0625 26.9375 C86.10140325 30.78336422 85.97921869 33.7163456 84 37.125 C83.01 37.62 83.01 37.62 82 38.125 C82.350625 37.01125 82.70125 35.8975 83.0625 34.75 C84.37239331 31.32235524 84.37239331 31.32235524 83 29.125 C83.27942455 27.44845271 83.60828247 25.77891846 84 24.125 C83.01 24.125 82.02 24.125 81 24.125 C82.11179163 20.78962511 83.47411298 19.48792656 86 17.125 C85.06231164 14.06991079 85.06231164 14.06991079 83 11.125 C80.19158076 10.27670567 78.0869318 9.88391153 75.21875 9.6640625 C74.45002563 9.58376801 73.68130127 9.50347351 72.88928223 9.42074585 C70.42796038 9.17084665 67.96495857 8.9606349 65.5 8.75 C63.87214879 8.58708532 62.24453837 8.42174521 60.6171875 8.25390625 C52.40218153 7.43603507 44.26393848 6.85612325 36 7.125 C36.495 8.115 36.495 8.115 37 9.125 C37.31337847 14.66135301 36.4386757 18.2476486 34 23.125 C34.185625 23.74375 34.37125 24.3625 34.5625 25 C35 27.125 35 27.125 34.0625 28.875 C32.44610496 32.2979542 32.87464081 35.36422443 33 39.125 C32.01 39.455 31.02 39.785 30 40.125 C29.67 39.795 29.34 39.465 29 39.125 C29.7734375 38.63 29.7734375 38.63 30.5625 38.125 C32.33834722 35.65425604 32.02853971 34.98054407 31.5625 32.0625 C31.2840625 30.1134375 31.2840625 30.1134375 31 28.125 C31.66 27.465 32.32 26.805 33 26.125 C32.6730244 23.50919521 32.17960932 21.48421863 31 19.125 C31.99 19.125 32.98 19.125 34 19.125 C35.4783226 16.16835481 35.06032783 13.38270263 35 10.125 C34.34 10.125 33.68 10.125 33 10.125 C33 9.465 33 8.805 33 8.125 C32.195625 8.23328125 32.195625 8.23328125 31.375 8.34375 C25.8169062 9.00194532 20.27974669 9.28786142 14.6875 9.375 C13.6655957 9.4069043 13.6655957 9.4069043 12.62304688 9.43945312 C8.2150567 9.46979327 5.48757498 8.84391092 2 6.125 C1.34 5.135 0.68 4.145 0 3.125 C-0.66 3.125 -1.32 3.125 -2 3.125 Z " fill="#0F0F0F" transform="translate(433,214.875)"/>
<path d="M0 0 C4 3 4 3 4.46875 5.59375 C4.5 8.5 4.5 8.5 4.53125 11.40625 C5.13297405 14.73578975 6.33767295 15.09165229 9 17 C9.76373842 20.04933797 9.55089123 22.91723494 9 26 C7.3125 28.5625 7.3125 28.5625 5 30 C3.35 30 1.7 30 0 30 C0 20.1 0 10.2 0 0 Z " fill="#0B0B0B" transform="translate(0,220)"/>
<path d="M0 0 C-0.33 0.66 -0.66 1.32 -1 2 C-2.32 2 -3.64 2 -5 2 C-5 2.66 -5 3.32 -5 4 C-4.360625 4.2475 -3.72125 4.495 -3.0625 4.75 C-1 6 -1 6 -0.25 7.6875 C0.16708565 11.54554222 0.47927342 15.37047037 -0.625 19.125 C-1.21518521 21.13431286 -1.21518521 21.13431286 0.0625 23.375 C1 26 1 26 0.4375 29.1875 C-1 32 -1 32 -3.625 33.375 C-4.40875 33.58125 -5.1925 33.7875 -6 34 C-6 31 -6 31 -4 28.8125 C-3.01 27.9153125 -3.01 27.9153125 -2 27 C-2.515625 26.113125 -3.03125 25.22625 -3.5625 24.3125 C-5.08979002 20.79309257 -5.21675714 19.548875 -4 16 C-3.67 15.67 -3.34 15.34 -3 15 C-3.66 14.67 -4.32 14.34 -5 14 C-4.42415568 11.61435923 -3.77772405 9.33317216 -3 7 C-8.60944292 3.85871197 -14.68146331 2.77369837 -21 2 C-20.67 1.34 -20.34 0.68 -20 0 C-17.22949974 -0.1946838 -14.45886998 -0.38102792 -11.6875 -0.5625 C-10.90181641 -0.61857422 -10.11613281 -0.67464844 -9.30664062 -0.73242188 C-8.1706543 -0.80493164 -8.1706543 -0.80493164 -7.01171875 -0.87890625 C-6.31522217 -0.9260376 -5.61872559 -0.97316895 -4.90112305 -1.02172852 C-3 -1 -3 -1 0 0 Z " fill="#030303" transform="translate(546,222)"/>
<path d="M0 0 C0.99 0.33 1.98 0.66 3 1 C2.3897536 5.14967549 0.99267393 8.32121736 -1 12 C-1.7115625 13.3921875 -1.7115625 13.3921875 -2.4375 14.8125 C-4 17 -4 17 -6.1875 17.8125 C-6.785625 17.874375 -7.38375 17.93625 -8 18 C-7.67 20.31 -7.34 22.62 -7 25 C-8.32 24.34 -9.64 23.68 -11 23 C-11 19.7 -11 16.4 -11 13 C-8.03 13.495 -8.03 13.495 -5 14 C-5 12.68 -5 11.36 -5 10 C-4.01 10 -3.02 10 -2 10 C-2.226875 9.443125 -2.45375 8.88625 -2.6875 8.3125 C-3.12446199 5.07898125 -1.78001197 3.63441772 0 1 C0 0.67 0 0.34 0 0 Z " fill="#020202" transform="translate(441,236)"/>
<path d="M0 0 C0.99 0.495 0.99 0.495 2 1 C2.14285714 8.42857143 2.14285714 8.42857143 1 12 C1.804375 12.309375 2.60875 12.61875 3.4375 12.9375 C6 14 6 14 7 15 C7.29718836 17.82328946 7.42837659 19.40027277 5.75 21.75 C4 23 4 23 0 24 C0 16.08 0 8.16 0 0 Z " fill="#F7F7F7" transform="translate(0,224)"/>
<path d="M0 0 C0.66 0.33 1.32 0.66 2 1 C0.125 5.75 0.125 5.75 -1 8 C-0.7215625 8.928125 -0.7215625 8.928125 -0.4375 9.875 C0 12 0 12 -0.9375 13.75 C-2.55389504 17.1729542 -2.12535919 20.23922443 -2 24 C-3.98 24.99 -3.98 24.99 -6 26 C-6.66 25.34 -7.32 24.68 -8 24 C-7.484375 23.67 -6.96875 23.34 -6.4375 23 C-4.66165278 20.52925604 -4.97146029 19.85554407 -5.4375 16.9375 C-5.623125 15.638125 -5.80875 14.33875 -6 13 C-5.34 12.34 -4.68 11.68 -4 11 C-4.32326553 7.40320934 -4.32326553 7.40320934 -5 4 C-4.01 4 -3.02 4 -2 4 C-1.34 2.68 -0.68 1.36 0 0 Z " fill="#000000" transform="translate(469,230)"/>
<path d="M0 0 C0.33 0 0.66 0 1 0 C1.33 4.95 1.66 9.9 2 15 C2.66 15 3.32 15 4 15 C5.32 19.95 6.64 24.9 8 30 C7.34 30 6.68 30 6 30 C5.505 32.475 5.505 32.475 5 35 C4.67 35 4.34 35 4 35 C3.896875 33.865625 3.79375 32.73125 3.6875 31.5625 C3.32311188 28.47055962 2.63850392 25.98588199 1.4375 23.125 C-1.21119158 15.86038475 -0.22162454 7.60910911 0 0 Z " fill="#1C1C1C" transform="translate(425,220)"/>
<path d="M0 0 C3.3 0 6.6 0 10 0 C10 0.33 10 0.66 10 1 C16.6 1.33 23.2 1.66 30 2 C30 2.33 30 2.66 30 3 C19.77 3 9.54 3 -1 3 C-0.67 2.01 -0.34 1.02 0 0 Z " fill="#1F1F1F" transform="translate(546,221)"/>
<path d="M0 0 C0.66 0.66 1.32 1.32 2 2 C1.69903201 6.13830989 1.32101984 8.51847024 -1 12 C-1.66 12 -2.32 12 -3 12 C-2.835 10.906875 -2.67 9.81375 -2.5 8.6875 C-1.93281816 5.12474127 -1.93281816 5.12474127 -2 2 C-1.34 1.34 -0.68 0.68 0 0 Z " fill="#000000" transform="translate(518,241)"/>
<path d="M0 0 C2.4375 0.8125 2.4375 0.8125 5 2 C5.33 2.99 5.66 3.98 6 5 C3 5 3 5 0.8125 3 C0.214375 2.34 -0.38375 1.68 -1 1 C-0.67 0.67 -0.34 0.34 0 0 Z " fill="#000000" transform="translate(565,255)"/>
</svg>
