<?xml version="1.0" encoding="UTF-8"?>
<svg version="1.1" xmlns="http://www.w3.org/2000/svg" width="800" height="300">
<path d="M0 0 C264 0 528 0 800 0 C800 99 800 198 800 300 C536 300 272 300 0 300 C0 201 0 102 0 0 Z " fill="#FEFEFE" transform="translate(0,0)"/>
<path d="M0 0 C4.60318234 0 6.47731945 0.51140732 9.875 3.6875 C12 7 12 7 13 13 C21.58 13 30.16 13 39 13 C39.66 10.03 40.32 7.06 41 4 C42.3125 1.4375 42.3125 1.4375 44 0 C45.65 0 47.3 0 49 0 C49 33.99 49 67.98 49 103 C44.50485101 102.35783586 40.03736502 101.69169073 35.5625 100.9375 C34.51191406 100.76089844 33.46132813 100.58429688 32.37890625 100.40234375 C31.59386719 100.26957031 30.80882812 100.13679688 30 100 C30.66 100.94875 31.32 101.8975 32 102.875 C34 106 34 106 34 108 C35.258125 108.103125 36.51625 108.20625 37.8125 108.3125 C40.33231669 108.51904235 41.66199559 108.74939719 43.70703125 110.265625 C45.28130077 112.37733397 45.58481583 113.83023917 45.875 116.4375 C45.97554687 117.19933594 46.07609375 117.96117187 46.1796875 118.74609375 C45.94204234 121.72699068 45.10543046 122.89912675 43 125 C38.38737996 126.85472484 33.99912259 127.1611488 29.125 126.375 C23.86666667 124.06133333 23.86666667 124.06133333 22 121 C22.00565453 119.26971342 22.07656445 117.53923591 22.1875 115.8125 C22.43047839 109.92615249 20.64084741 107.38631239 16.82421875 103.07421875 C14.1640849 100.04952694 11 96.1544285 11 92 C10.41621582 91.94054199 9.83243164 91.88108398 9.23095703 91.81982422 C-14.66151063 89.25840074 -14.66151063 89.25840074 -22.875 80 C-23.57625 79.01 -24.2775 78.02 -25 77 C-25.721875 76.071875 -26.44375 75.14375 -27.1875 74.1875 C-32.90820468 64.12695039 -32.6117659 49.07607733 -30.27734375 37.98828125 C-28.59663759 32.02075372 -26.94893226 27.80687097 -22 24 C-21.319375 23.195625 -21.319375 23.195625 -20.625 22.375 C-16.29456681 18.7107873 -11.54592144 17.59420087 -6 18 C-6.12375 16.5459375 -6.12375 16.5459375 -6.25 15.0625 C-6.26974681 10.22453098 -4.32570983 6.16760411 -2 2 C-1.34 1.34 -0.68 0.68 0 0 Z " fill="#FAFAFA" transform="translate(751,155)"/>
<path d="M0 0 C0 0.99 0 1.98 0 3 C-0.97839844 3.25523437 -0.97839844 3.25523437 -1.9765625 3.515625 C-10.70438755 5.79760769 -10.70438755 5.79760769 -17.1796875 11.75390625 C-21.03176636 18.93789273 -22.37706129 26.31129494 -22.3125 34.375 C-22.30686035 35.11741943 -22.3012207 35.85983887 -22.29541016 36.62475586 C-22.08212185 46.30614458 -19.7587612 53.84463668 -13 61 C-8.45453498 64.71386227 -4.37692611 67.2574556 1.51953125 67.94921875 C2.54111328 68.07490234 3.56269531 68.20058594 4.61523438 68.33007812 C6.19788086 68.50700195 6.19788086 68.50700195 7.8125 68.6875 C9.42415039 68.88182617 9.42415039 68.88182617 11.06835938 69.08007812 C13.711182 69.39721684 16.35479857 69.70347556 19 70 C19.26039063 70.87527344 19.52078125 71.75054687 19.7890625 72.65234375 C20.99529963 75.98700574 22.44393956 78.59844872 24.375 81.5625 C24.96023438 82.47128906 25.54546875 83.38007813 26.1484375 84.31640625 C27.98785408 87.05208719 27.98785408 87.05208719 30.171875 89.703125 C31.93614149 91.91976751 32.80597412 93.18662473 33 96 C32.34 96.66 31.68 97.32 31 98 C31.36681658 100.93453261 31.86437246 101.86437246 34 104 C38.08084268 104.99415421 41.90572635 105.25077104 46 104.3125 C48.09584162 103.15980177 48.09584162 103.15980177 49 101.1875 C49 97.90308864 48.17393737 96.44567955 46 94 C42.37400578 93.58274322 42.37400578 93.58274322 39 94 C38.5875 93.154375 38.175 92.30875 37.75 91.4375 C34.43607584 84.35185554 34.43607584 84.35185554 29 79 C28.8125 76.375 28.8125 76.375 29 74 C29.33 74.99 29.66 75.98 30 77 C30.969375 77.144375 31.93875 77.28875 32.9375 77.4375 C36 78 36 78 37 79 C40.22562564 79.54216024 43.46161415 79.96598652 46.703125 80.40234375 C49.72202191 80.94960824 52.21191149 81.74745648 55 83 C55 83.66 55 84.32 55 85 C48.64416673 84.13329546 42.32448699 83.06965872 36 82 C36.66 82.94875 37.32 83.8975 38 84.875 C40 88 40 88 40 90 C41.258125 90.103125 42.51625 90.20625 43.8125 90.3125 C46.33231669 90.51904235 47.66199559 90.74939719 49.70703125 92.265625 C51.28130077 94.37733397 51.58481583 95.83023917 51.875 98.4375 C51.97554687 99.19933594 52.07609375 99.96117187 52.1796875 100.74609375 C51.94204234 103.72699068 51.10543046 104.89912675 49 107 C44.38737996 108.85472484 39.99912259 109.1611488 35.125 108.375 C29.86666667 106.06133333 29.86666667 106.06133333 28 103 C28.00565453 101.26971342 28.07656445 99.53923591 28.1875 97.8125 C28.43047839 91.92615249 26.64084741 89.38631239 22.82421875 85.07421875 C20.1640849 82.04952694 17 78.1544285 17 74 C16.41621582 73.94054199 15.83243164 73.88108398 15.23095703 73.81982422 C-8.66151063 71.25840074 -8.66151063 71.25840074 -16.875 62 C-17.57625 61.01 -18.2775 60.02 -19 59 C-20.0828125 57.6078125 -20.0828125 57.6078125 -21.1875 56.1875 C-26.90820468 46.12695039 -26.6117659 31.07607733 -24.27734375 19.98828125 C-22.59663759 14.02075372 -20.94893226 9.80687097 -16 6 C-15.54625 5.46375 -15.0925 4.9275 -14.625 4.375 C-10.29456681 0.7107873 -5.54592144 -0.40579913 0 0 Z " fill="#090909" transform="translate(745,173)"/>
<path d="M0 0 C4.60318234 0 6.47731945 0.51140732 9.875 3.6875 C12 7 12 7 13 13 C21.58 13 30.16 13 39 13 C39.66 10.03 40.32 7.06 41 4 C42.3125 1.4375 42.3125 1.4375 44 0 C46.6875 -0.25 46.6875 -0.25 49 0 C49 0.66 49 1.32 49 2 C47.68 2 46.36 2 45 2 C44.79503906 2.84304687 44.59007812 3.68609375 44.37890625 4.5546875 C44.10949219 5.65039062 43.84007812 6.74609375 43.5625 7.875 C43.29566406 8.96554688 43.02882813 10.05609375 42.75390625 11.1796875 C42 14 42 14 41 16 C31.1 16 21.2 16 11 16 C9.515 11.545 9.515 11.545 8 7 C6.25213315 4.78625275 6.25213315 4.78625275 4 4 C1.93161504 4.0363856 1.93161504 4.0363856 0 5 C-1.14724066 7.17316366 -1.14724066 7.17316366 -1.75 9.8125 C-1.99234375 10.68519531 -2.2346875 11.55789062 -2.484375 12.45703125 C-3.1324807 15.2209178 -3.1324807 15.2209178 -3 19 C-3.66 19 -4.32 19 -5 19 C-6.45369052 16.09261897 -6.29639413 14.26033542 -6 11 C-4.54756856 6.904281 -3.09642272 3.09642272 0 0 Z " fill="#060606" transform="translate(751,155)"/>
<path d="M0 0 C0 0.99 0 1.98 0 3 C-1.22976563 3.19916016 -1.22976563 3.19916016 -2.484375 3.40234375 C-4.10085938 3.66724609 -4.10085938 3.66724609 -5.75 3.9375 C-7.35101562 4.19853516 -7.35101562 4.19853516 -8.984375 4.46484375 C-11.36347593 4.88704171 -13.66915211 5.37202884 -16 6 C-16.05416188 7.60379341 -16.09286638 9.20811406 -16.125 10.8125 C-16.15980469 12.15248047 -16.15980469 12.15248047 -16.1953125 13.51953125 C-16.18285827 16.25402714 -16.18285827 16.25402714 -14 19 C-11.23434618 19.92188461 -9.61716298 20.11785222 -6.76953125 20.09765625 C-5.96708984 20.09443359 -5.16464844 20.09121094 -4.33789062 20.08789062 C-3.50451172 20.07951172 -2.67113281 20.07113281 -1.8125 20.0625 C-0.5450293 20.05573242 -0.5450293 20.05573242 0.74804688 20.04882812 C2.83206155 20.03705403 4.91603977 20.0191189 7 20 C7 20.99 7 21.98 7 23 C-0.77330715 25.24683004 -9.78979377 24.85072553 -17 21 C-19.71829356 16.92255966 -19.37873269 13.77203186 -19 9 C-18.2094482 5.04724102 -17.23976045 4.18481535 -14 1.6875 C-9.49762064 -0.68267433 -4.95895843 -0.35920021 0 0 Z " fill="#070707" transform="translate(763,192)"/>
<path d="M0 0 C2.85423192 -0.02718316 5.70820015 -0.04692705 8.5625 -0.0625 C9.36236328 -0.07087891 10.16222656 -0.07925781 10.98632812 -0.08789062 C15.77163104 -0.10742247 20.28145051 0.19562982 25 1 C25 1.99 25 2.98 25 4 C24.06994141 3.89171875 24.06994141 3.89171875 23.12109375 3.78125 C15.05200562 2.93558138 7.10374993 2.90157389 -1 3 C-0.67 2.01 -0.34 1.02 0 0 Z " fill="#181818" transform="translate(749,228)"/>
<path d="M0 0 C0.91007813 0.00902344 1.82015625 0.01804688 2.7578125 0.02734375 C3.45648437 0.03894531 4.15515625 0.05054688 4.875 0.0625 C4.875 1.0525 4.875 2.0425 4.875 3.0625 C0.585 3.7225 -3.705 4.3825 -8.125 5.0625 C-7.795 3.7425 -7.465 2.4225 -7.125 1.0625 C-4.60024538 -0.19987731 -2.81299534 -0.03606404 0 0 Z " fill="#1A1A1A" transform="translate(758.125,191.9375)"/>
<path d="M0 0 C0.66 0 1.32 0 2 0 C2 0.99 2 1.98 2 3 C2.66 3 3.32 3 4 3 C4 2.01 4 1.02 4 0 C4.66 0 5.32 0 6 0 C5.67 2.31 5.34 4.62 5 7 C3.35 6.67 1.7 6.34 0 6 C0 4.02 0 2.04 0 0 Z " fill="#090909" transform="translate(772,237)"/>
<path d="M0 0 C1.85772162 0.08984301 3.71247985 0.24611861 5.5625 0.4375 C7.08037109 0.59025391 7.08037109 0.59025391 8.62890625 0.74609375 C9.80259766 0.87177734 9.80259766 0.87177734 11 1 C11 1.99 11 2.98 11 4 C2.42857143 3.14285714 2.42857143 3.14285714 -1 1 C-0.67 0.67 -0.34 0.34 0 0 Z " fill="#0A0A0A" transform="translate(763,228)"/>
<path d="M0 0 C0 0.99 0 1.98 0 3 C-2.97 3.66 -5.94 4.32 -9 5 C-8.67 3.68 -8.34 2.36 -8 1 C-5.29120665 -0.35439668 -2.99066732 -0.06501451 0 0 Z " fill="#181818" transform="translate(745,173)"/>
<path d="M0 0 C5.75 0.875 5.75 0.875 8 2 C8 2.99 8 3.98 8 5 C4.5625 4.1875 4.5625 4.1875 1 3 C0.67 2.01 0.34 1.02 0 0 Z " fill="#111111" transform="translate(792,244)"/>
<path d="M0 0 C1.65 0 3.3 0 5 0 C4.67 1.32 4.34 2.64 4 4 C2.68 4 1.36 4 0 4 C0 2.68 0 1.36 0 0 Z " fill="#080808" transform="translate(739,189)"/>
<path d="M0 0 C1.32 0 2.64 0 4 0 C4 1.32 4 2.64 4 4 C2.35 3.67 0.7 3.34 -1 3 C-0.67 2.01 -0.34 1.02 0 0 Z " fill="#151515" transform="translate(784,188)"/>
</svg>
