<?xml version="1.0" encoding="UTF-8"?>
<svg version="1.1" xmlns="http://www.w3.org/2000/svg" width="800" height="300">
<path d="M0 0 C264 0 528 0 800 0 C800 99 800 198 800 300 C536 300 272 300 0 300 C0 201 0 102 0 0 Z " fill="#FEFEFE" transform="translate(0,0)"/>
<path d="M0 0 C4.45764736 2.26792585 4.45764736 2.26792585 6 5 C6.45678711 7.7175293 6.45678711 7.7175293 6.65234375 10.69921875 C6.72316162 11.69139404 6.79397949 12.68356934 6.86694336 13.70581055 C6.91085205 14.46289307 6.95476074 15.21997559 7 16 C7.5863623 15.99476318 8.17272461 15.98952637 8.77685547 15.98413086 C34.19423133 15.79487801 59.58887366 16.45352416 85 17 C85 42.41 85 67.82 85 94 C78.26431878 94.61233466 71.84305615 95.14628267 65.13208008 95.11352539 C64.32092743 95.11367142 63.50977478 95.11381744 62.67404175 95.1139679 C60.03917602 95.11328089 57.40438436 95.10554642 54.76953125 95.09765625 C52.92437275 95.09578775 51.07921374 95.09436589 49.23405457 95.09336853 C44.41236974 95.08957737 39.59071574 95.0797767 34.76904297 95.06866455 C29.83496518 95.05837673 24.90088233 95.05385522 19.96679688 95.04882812 C10.31118448 95.0381509 0.65559482 95.02111606 -9 95 C-8.03857071 96.44975643 -7.07613932 97.89884835 -6.11328125 99.34765625 C-5.57743408 100.15468994 -5.04158691 100.96172363 -4.48950195 101.79321289 C-1.50831535 106.21002091 0.33699895 108.00054333 5.5625 109.0625 C6.32691406 109.17722656 7.09132813 109.29195313 7.87890625 109.41015625 C10.45741053 110.12719888 11.44694566 110.82377652 13 113 C13.76129634 117.40357688 13.46435076 121.66499157 12 125.875 C8.33947519 129.76430762 4.0768999 131.71493531 -1.1875 132.4375 C-4.55485577 131.9136891 -6.43259397 131.26535826 -9 129 C-9.608676 125.42402849 -9.44405832 123.70309234 -7.5 120.625 C-7.005 120.08875 -6.51 119.5525 -6 119 C-7.36125 118.13375 -7.36125 118.13375 -8.75 117.25 C-12 115 -12 115 -13.875 113 C-16.40578502 110.61808469 -18.99218294 109.4677162 -22.12109375 108.015625 C-24 107 -24 107 -26.0625 104.75 C-28.00120195 102.64614188 -28.00120195 102.64614188 -31.5 102.6875 C-34.75588451 102.88250959 -34.75588451 102.88250959 -36.88378906 103.48608398 C-39.38046544 104.09239499 -41.79907089 104.31973543 -44.359375 104.53515625 C-45.39320313 104.62216797 -46.42703125 104.70917969 -47.4921875 104.79882812 C-48.56726563 104.88583984 -49.64234375 104.97285156 -50.75 105.0625 C-52.33941406 105.19881836 -52.33941406 105.19881836 -53.9609375 105.33789062 C-59.6630248 105.8083482 -65.27895985 106.10364203 -71 106 C-70.87625 107.1446875 -70.87625 107.1446875 -70.75 108.3125 C-71 111 -71 111 -72.5625 112.8125 C-76.00570514 114.48995891 -78.20740642 114.52311636 -82 114 C-84.97046873 112.20976215 -87.42502414 110.14995172 -89 107 C-89.04003069 101.57984419 -88.83046319 96.59941058 -86.3125 91.75 C-84 90 -84 90 -80.9375 89.5625 C-78 90 -78 90 -75 92 C-71.87478167 92.16699232 -71.87478167 92.16699232 -69 92 C-69.72445312 91.58492188 -70.44890625 91.16984375 -71.1953125 90.7421875 C-78.70006872 85.9591562 -83.24901998 80.97977733 -85.57519531 72.234375 C-88.11582969 58.87122224 -87.43378169 42.69781812 -80.125 31 C-75.31597162 24.45830698 -68.88471281 20.2211782 -61 18.25 C-60.34 18.1675 -59.68 18.085 -59 18 C-59.0825 17.01 -59.165 16.02 -59.25 15 C-59.27825307 10.38533109 -57.35366383 6.87551072 -55 3 C-54 2 -54 2 -51.25 1.5625 C-48 2 -48 2 -45.125 4.625 C-42.86145693 8.220039 -42.50651825 9.85475329 -43 14 C-42.01386719 13.51144531 -41.02773438 13.02289063 -40.01171875 12.51953125 C-35.88101444 10.75309112 -32.25615514 10.58318885 -27.8125 10.6875 C-26.76545898 10.68266602 -26.76545898 10.68266602 -25.69726562 10.67773438 C-21.9831262 10.71660739 -19.15316698 10.95492271 -16 13 C-16.0825 11.7625 -16.165 10.525 -16.25 9.25 C-16.26153532 5.99127351 -16.19423516 5.25250571 -14.125 2.5625 C-9.65228933 -0.72625785 -5.41349627 -0.68808605 0 0 Z " fill="#FBFBFB" transform="translate(715,154)"/>
<path d="M0 0 C4.45764736 2.26792585 4.45764736 2.26792585 6 5 C6.45678711 7.7175293 6.45678711 7.7175293 6.65234375 10.69921875 C6.72316162 11.69139404 6.79397949 12.68356934 6.86694336 13.70581055 C6.91085205 14.46289307 6.95476074 15.21997559 7 16 C7.5863623 15.99476318 8.17272461 15.98952637 8.77685547 15.98413086 C34.19136385 15.79489936 59.59346656 16.43587392 85 17 C85 17.99 85 18.98 85 20 C66.24388026 20.14768934 47.55279722 19.74665533 28.8125 19 C26.28582524 18.90317635 23.75913251 18.80682042 21.23242188 18.7109375 C15.15473153 18.47931436 9.07728341 18.24205424 3 18 C2.95319092 17.23131592 2.90638184 16.46263184 2.8581543 15.6706543 C2.7485437 14.1688562 2.7485437 14.1688562 2.63671875 12.63671875 C2.56928467 11.64115967 2.50185059 10.64560059 2.43237305 9.61987305 C2.2289749 6.8042142 2.2289749 6.8042142 -0.1875 4.8125 C-3.41573862 3.87989773 -5.66245053 3.50291816 -9 4 C-11.60314994 5.3530128 -11.60314994 5.3530128 -13 8 C-12.97848419 10.77016045 -12.49493506 13.2553601 -12 16 C-13 17 -13 17 -16 17.125 C-19 17 -19 17 -20 16 C-22.69785797 15.89864401 -25.36477074 15.86138656 -28.0625 15.875 C-28.80177734 15.87113281 -29.54105469 15.86726562 -30.30273438 15.86328125 C-35.28457841 15.87199839 -40.06824587 16.294664 -45 17 C-45.0825 15.7625 -45.165 14.525 -45.25 13.25 C-45.63475459 10.01117036 -45.90024003 9.12092117 -48.0625 6.5 C-48.701875 6.005 -49.34125 5.51 -50 5 C-53.18421647 5.7152516 -53.18421647 5.7152516 -54.625 8.5 C-56.27050724 12.68856388 -56.71250682 16.53889892 -57 21 C-57.61746094 21.13535156 -58.23492188 21.27070313 -58.87109375 21.41015625 C-67.53242135 23.61174181 -74.26689093 27.56333805 -78.9375 35.375 C-82.78182672 42.51249549 -83.36209402 50.60596464 -83.375 58.5625 C-83.39949219 59.36107422 -83.42398438 60.15964844 -83.44921875 60.98242188 C-83.47821092 66.91132012 -82.04265662 70.95226484 -79 76 C-78.1028125 77.546875 -78.1028125 77.546875 -77.1875 79.125 C-72.73257702 84.98004163 -68.36654126 88.62659167 -61 90 C-57.52393825 90.35362759 -54.05356732 90.50435836 -50.5625 90.625 C-49.64017578 90.66367188 -48.71785156 90.70234375 -47.76757812 90.7421875 C-45.51190857 90.83568676 -43.25623084 90.9214391 -41 91 C-41 91.66 -41 92.32 -41 93 C-48.80065921 94.54696617 -56.65680546 95.49449185 -64.5625 96.3125 C-65.53848145 96.42513184 -66.51446289 96.53776367 -67.52001953 96.65380859 C-68.90423096 96.78843506 -68.90423096 96.78843506 -70.31640625 96.92578125 C-71.14599854 97.01255127 -71.97559082 97.09932129 -72.83032227 97.1887207 C-75.58400528 96.94920265 -76.20292005 96.00819914 -78 94 C-80.54258463 93.49985047 -80.54258463 93.49985047 -83 94 C-85.37065478 97.55598216 -86.33042466 100.75404316 -86 105 C-84.10350449 108.14658666 -84.10350449 108.14658666 -81 110 C-77.78938212 110.41890218 -77.78938212 110.41890218 -75 110 C-74.855625 109.401875 -74.71125 108.80375 -74.5625 108.1875 C-74.1127561 106.43849596 -73.57107659 104.71322977 -73 103 C-68.09375875 102.42152816 -63.18655938 101.8522845 -58.27832031 101.29101562 C-56.61397511 101.09944557 -54.9499016 100.90549769 -53.28613281 100.70898438 C-43.82436158 99.59315576 -34.54832054 98.65848034 -25 99 C-25 99.99 -25 100.98 -25 102 C-22.95656352 103.45703304 -20.98615675 104.70646462 -18.8125 105.9375 C-14.61677846 108.36512484 -10.76611257 110.93680912 -7 114 C-5.02288349 115.04451438 -3.02749004 116.05698138 -1 117 C-1.39494173 119.86332753 -1.70312394 120.77509389 -4.0625 122.5625 C-4.701875 123.036875 -5.34125 123.51125 -6 124 C-6 124.99 -6 125.98 -6 127 C-0.50458112 128.10722149 -0.50458112 128.10722149 4.8125 126.9375 C7.56468184 124.49985323 8.71734522 122.44291546 10 119 C10.25196823 115.74899636 10.25196823 115.74899636 10 113 C9.40832031 113.05800781 8.81664062 113.11601562 8.20703125 113.17578125 C1.73291984 113.54542872 1.73291984 113.54542872 -1.6875 111 C-2.450625 110.01 -3.21375 109.02 -4 108 C-4.515625 107.34902344 -5.03125 106.69804687 -5.5625 106.02734375 C-9.62745007 100.79958344 -9.62745007 100.79958344 -10.98828125 97.87890625 C-11.98896899 95.66818908 -11.98896899 95.66818908 -15 94 C-14.505 92.515 -14.505 92.515 -14 91 C35.005 90.505 35.005 90.505 85 90 C85 91.32 85 92.64 85 94 C74.93551092 95.2525025 64.89053806 95.127964 54.76953125 95.09765625 C52.92437275 95.09578775 51.07921374 95.09436589 49.23405457 95.09336853 C44.41236974 95.08957737 39.59071574 95.0797767 34.76904297 95.06866455 C29.83496518 95.05837673 24.90088233 95.05385522 19.96679688 95.04882812 C10.31118448 95.0381509 0.65559482 95.02111606 -9 95 C-8.03857071 96.44975643 -7.07613932 97.89884835 -6.11328125 99.34765625 C-5.57743408 100.15468994 -5.04158691 100.96172363 -4.48950195 101.79321289 C-1.50831535 106.21002091 0.33699895 108.00054333 5.5625 109.0625 C6.32691406 109.17722656 7.09132813 109.29195313 7.87890625 109.41015625 C10.45741053 110.12719888 11.44694566 110.82377652 13 113 C13.76129634 117.40357688 13.46435076 121.66499157 12 125.875 C8.33947519 129.76430762 4.0768999 131.71493531 -1.1875 132.4375 C-4.55485577 131.9136891 -6.43259397 131.26535826 -9 129 C-9.608676 125.42402849 -9.44405832 123.70309234 -7.5 120.625 C-7.005 120.08875 -6.51 119.5525 -6 119 C-7.36125 118.13375 -7.36125 118.13375 -8.75 117.25 C-12 115 -12 115 -13.875 113 C-16.40578502 110.61808469 -18.99218294 109.4677162 -22.12109375 108.015625 C-24 107 -24 107 -26.0625 104.75 C-28.00120195 102.64614188 -28.00120195 102.64614188 -31.5 102.6875 C-34.75588451 102.88250959 -34.75588451 102.88250959 -36.88378906 103.48608398 C-39.38046544 104.09239499 -41.79907089 104.31973543 -44.359375 104.53515625 C-45.39320313 104.62216797 -46.42703125 104.70917969 -47.4921875 104.79882812 C-48.56726563 104.88583984 -49.64234375 104.97285156 -50.75 105.0625 C-52.33941406 105.19881836 -52.33941406 105.19881836 -53.9609375 105.33789062 C-59.6630248 105.8083482 -65.27895985 106.10364203 -71 106 C-70.87625 107.1446875 -70.87625 107.1446875 -70.75 108.3125 C-71 111 -71 111 -72.5625 112.8125 C-76.00570514 114.48995891 -78.20740642 114.52311636 -82 114 C-84.97046873 112.20976215 -87.42502414 110.14995172 -89 107 C-89.04003069 101.57984419 -88.83046319 96.59941058 -86.3125 91.75 C-84 90 -84 90 -80.9375 89.5625 C-78 90 -78 90 -75 92 C-71.87478167 92.16699232 -71.87478167 92.16699232 -69 92 C-69.72445312 91.58492188 -70.44890625 91.16984375 -71.1953125 90.7421875 C-78.70006872 85.9591562 -83.24901998 80.97977733 -85.57519531 72.234375 C-88.11582969 58.87122224 -87.43378169 42.69781812 -80.125 31 C-75.31597162 24.45830698 -68.88471281 20.2211782 -61 18.25 C-60.34 18.1675 -59.68 18.085 -59 18 C-59.0825 17.01 -59.165 16.02 -59.25 15 C-59.27825307 10.38533109 -57.35366383 6.87551072 -55 3 C-54 2 -54 2 -51.25 1.5625 C-48 2 -48 2 -45.125 4.625 C-42.86145693 8.220039 -42.50651825 9.85475329 -43 14 C-42.01386719 13.51144531 -41.02773438 13.02289063 -40.01171875 12.51953125 C-35.88101444 10.75309112 -32.25615514 10.58318885 -27.8125 10.6875 C-26.76545898 10.68266602 -26.76545898 10.68266602 -25.69726562 10.67773438 C-21.9831262 10.71660739 -19.15316698 10.95492271 -16 13 C-16.0825 11.7625 -16.165 10.525 -16.25 9.25 C-16.26153532 5.99127351 -16.19423516 5.25250571 -14.125 2.5625 C-9.65228933 -0.72625785 -5.41349627 -0.68808605 0 0 Z " fill="#0D0D0D" transform="translate(715,154)"/>
<path d="M0 0 C0 1.32 0 2.64 0 4 C-10.06448908 5.2525025 -20.10946194 5.127964 -30.23046875 5.09765625 C-32.07562725 5.09578775 -33.92078626 5.09436589 -35.76594543 5.09336853 C-40.58763026 5.08957737 -45.40928426 5.0797767 -50.23095703 5.06866455 C-55.16503482 5.05837673 -60.09911767 5.05385522 -65.03320312 5.04882812 C-74.68881552 5.0381509 -84.34440518 5.02111606 -94 5 C-93.03857071 6.44975643 -92.07613932 7.89884835 -91.11328125 9.34765625 C-90.57743408 10.15468994 -90.04158691 10.96172363 -89.48950195 11.79321289 C-86.50831535 16.21002091 -84.66300105 18.00054333 -79.4375 19.0625 C-78.67308594 19.17722656 -77.90867187 19.29195313 -77.12109375 19.41015625 C-74.54258947 20.12719888 -73.55305434 20.82377652 -72 23 C-71.23870366 27.40357688 -71.53564924 31.66499157 -73 35.875 C-76.66052481 39.76430762 -80.9231001 41.71493531 -86.1875 42.4375 C-89.55485577 41.9136891 -91.43259397 41.26535826 -94 39 C-94.608676 35.42402849 -94.44405832 33.70309234 -92.5 30.625 C-92.005 30.08875 -91.51 29.5525 -91 29 C-92.36125 28.13375 -92.36125 28.13375 -93.75 27.25 C-97 25 -97 25 -98.875 23 C-101.40578502 20.61808469 -103.99218294 19.4677162 -107.12109375 18.015625 C-109 17 -109 17 -111.0625 14.75 C-113.00120195 12.64614188 -113.00120195 12.64614188 -116.5 12.6875 C-119.75499832 12.87714034 -119.75499832 12.87714034 -121.86621094 13.49975586 C-124.48022885 14.11258454 -126.95766048 14.21650863 -129.640625 14.31640625 C-131.24550781 14.37924805 -131.24550781 14.37924805 -132.8828125 14.44335938 C-133.99398437 14.48267578 -135.10515625 14.52199219 -136.25 14.5625 C-137.37664063 14.60568359 -138.50328125 14.64886719 -139.6640625 14.69335938 C-142.44258954 14.79932015 -145.22120391 14.90139142 -148 15 C-147.67 14.01 -147.34 13.02 -147 12 C-143.08484651 11.48766901 -139.16769535 10.99248492 -135.25 10.5 C-134.15816406 10.35691406 -133.06632813 10.21382812 -131.94140625 10.06640625 C-124.58673535 9.15251223 -117.40879583 8.81905248 -110 9 C-110 9.99 -110 10.98 -110 12 C-107.95656352 13.45703304 -105.98615675 14.70646462 -103.8125 15.9375 C-99.61677846 18.36512484 -95.76611257 20.93680912 -92 24 C-90.02288349 25.04451438 -88.02749004 26.05698138 -86 27 C-86.39494173 29.86332753 -86.70312394 30.77509389 -89.0625 32.5625 C-89.701875 33.036875 -90.34125 33.51125 -91 34 C-91 34.99 -91 35.98 -91 37 C-85.50458112 38.10722149 -85.50458112 38.10722149 -80.1875 36.9375 C-77.43531816 34.49985323 -76.28265478 32.44291546 -75 29 C-74.74803177 25.74899636 -74.74803177 25.74899636 -75 23 C-75.59167969 23.05800781 -76.18335938 23.11601562 -76.79296875 23.17578125 C-83.26708016 23.54542872 -83.26708016 23.54542872 -86.6875 21 C-87.450625 20.01 -88.21375 19.02 -89 18 C-89.515625 17.34902344 -90.03125 16.69804687 -90.5625 16.02734375 C-94.62745007 10.79958344 -94.62745007 10.79958344 -95.98828125 7.87890625 C-96.98896899 5.66818908 -96.98896899 5.66818908 -100 4 C-99.67 3.01 -99.34 2.02 -99 1 C-87.86386684 0.86879061 -76.72772503 0.73834404 -65.59157181 0.60884857 C-60.41960466 0.54868347 -55.24764076 0.48826397 -50.07568359 0.42724609 C-45.07658326 0.3682772 -40.0774753 0.30999875 -35.07836151 0.25218201 C-33.17917346 0.23009907 -31.27998819 0.20777498 -29.38080597 0.18519592 C-19.58688934 0.06891436 -9.79483705 -0.03934046 0 0 Z " fill="#131313" transform="translate(800,244)"/>
<path d="M0 0 C4.45764736 2.26792585 4.45764736 2.26792585 6 5 C6.45678711 7.7175293 6.45678711 7.7175293 6.65234375 10.69921875 C6.72316162 11.69139404 6.79397949 12.68356934 6.86694336 13.70581055 C6.91085205 14.46289307 6.95476074 15.21997559 7 16 C7.5863623 15.99476318 8.17272461 15.98952637 8.77685547 15.98413086 C34.19136385 15.79489936 59.59346656 16.43587392 85 17 C85 17.99 85 18.98 85 20 C66.24388026 20.14768934 47.55279722 19.74665533 28.8125 19 C26.28582524 18.90317635 23.75913251 18.80682042 21.23242188 18.7109375 C15.15473153 18.47931436 9.07728341 18.24205424 3 18 C2.95319092 17.23131592 2.90638184 16.46263184 2.8581543 15.6706543 C2.7485437 14.1688562 2.7485437 14.1688562 2.63671875 12.63671875 C2.56928467 11.64115967 2.50185059 10.64560059 2.43237305 9.61987305 C2.2289749 6.8042142 2.2289749 6.8042142 -0.1875 4.8125 C-3.41573862 3.87989773 -5.66245053 3.50291816 -9 4 C-11.60314994 5.3530128 -11.60314994 5.3530128 -13 8 C-12.97848419 10.77016045 -12.49493506 13.2553601 -12 16 C-13 17 -13 17 -16 17.125 C-19 17 -19 17 -20 16 C-22.69785797 15.89864401 -25.36477074 15.86138656 -28.0625 15.875 C-28.80177734 15.87113281 -29.54105469 15.86726562 -30.30273438 15.86328125 C-35.28457841 15.87199839 -40.06824587 16.294664 -45 17 C-45.12375 15.14375 -45.12375 15.14375 -45.25 13.25 C-45.63475459 10.01117036 -45.90024003 9.12092117 -48.0625 6.5 C-48.701875 6.005 -49.34125 5.51 -50 5 C-53.2985139 5.72268235 -53.2985139 5.72268235 -54.6875 9.0625 C-55.120625 10.031875 -55.55375 11.00125 -56 12 C-56.66 11.67 -57.32 11.34 -58 11 C-56.94124926 7.59687262 -55.99097846 4.98646769 -54 2 C-51.1875 1.4375 -51.1875 1.4375 -48 2 C-44.64701358 5.06142239 -43.11062279 6.80527384 -42.6875 11.375 C-42.8421875 12.674375 -42.8421875 12.674375 -43 14 C-42.01386719 13.51144531 -41.02773438 13.02289063 -40.01171875 12.51953125 C-35.88101444 10.75309112 -32.25615514 10.58318885 -27.8125 10.6875 C-26.76545898 10.68266602 -26.76545898 10.68266602 -25.69726562 10.67773438 C-21.9831262 10.71660739 -19.15316698 10.95492271 -16 13 C-16.0825 11.7625 -16.165 10.525 -16.25 9.25 C-16.26153532 5.99127351 -16.19423516 5.25250571 -14.125 2.5625 C-9.65228933 -0.72625785 -5.41349627 -0.68808605 0 0 Z " fill="#101010" transform="translate(715,154)"/>
<path d="M0 0 C0 1.32 0 2.64 0 4 C-9.99425704 5.23825838 -19.96186475 5.12813018 -30.01171875 5.09765625 C-31.834457 5.09578769 -33.65719576 5.09436586 -35.47993469 5.09336853 C-40.24243595 5.08957784 -45.00490597 5.07977759 -49.76739502 5.06866455 C-54.64114968 5.05837571 -59.51490945 5.053855 -64.38867188 5.04882812 C-73.92579486 5.03815173 -83.46289482 5.02111748 -93 5 C-93.33 4.34 -93.66 3.68 -94 3 C-93.28972656 2.93941406 -92.57945312 2.87882813 -91.84765625 2.81640625 C-90.46900391 2.69072266 -90.46900391 2.69072266 -89.0625 2.5625 C-88.14597656 2.48128906 -87.22945312 2.40007812 -86.28515625 2.31640625 C-84.03840268 2.23955024 -84.03840268 2.23955024 -83 1 C-80.85560343 0.87594499 -78.70713458 0.8219787 -76.55932617 0.79467773 C-75.88595215 0.78477814 -75.21257813 0.77487854 -74.51879883 0.76467896 C-72.27689185 0.73292705 -70.03496439 0.70822608 -67.79296875 0.68359375 C-66.23130257 0.66300909 -64.66964178 0.64201223 -63.10798645 0.62062073 C-58.97800314 0.56526603 -54.84796767 0.51597122 -50.71789551 0.46777344 C-47.38039605 0.42784388 -44.04295856 0.38372795 -40.70551586 0.33933926 C-36.69301782 0.28603442 -32.68049773 0.23451105 -28.66796875 0.18359375 C-27.91528402 0.17403593 -27.1625993 0.16447811 -26.38710594 0.15463066 C-17.5911569 0.04482615 -8.79681143 -0.02784614 0 0 Z " fill="#262626" transform="translate(800,244)"/>
<path d="M0 0 C0 5.94 0 11.88 0 18 C-9.1750503 18.48289738 -9.1750503 18.48289738 -12.5625 16.5 C-14.69471331 12.79180294 -15 10.31530349 -15 6 C-13.6875 3.625 -13.6875 3.625 -11 2 C-7.46886921 1.02473531 -3.68842503 0 0 0 Z " fill="#F8F8F8" transform="translate(800,263)"/>
<path d="M0 0 C4.95 0.33 9.9 0.66 15 1 C15 1.33 15 1.66 15 2 C10.545 2.495 10.545 2.495 6 3 C6.33153884 8.30462144 9.46112316 12.2456412 13 16 C15.74113223 17.67934979 17.27683599 18.0339974 20.5625 18.4375 C24.15570392 19.02547882 24.9217744 19.18974269 27 22 C27.76129634 26.40357688 27.46435076 30.66499157 26 34.875 C22.33947519 38.76430762 18.0768999 40.71493531 12.8125 41.4375 C9.48072276 40.91922354 7.57243713 40.19413755 5 38 C4.6875 35.3125 4.6875 35.3125 5 33 C5.99 32.505 5.99 32.505 7 32 C7.33 33.32 7.66 34.64 8 36 C13.49541888 37.10722149 13.49541888 37.10722149 18.8125 35.9375 C21.56468184 33.49985323 22.71734522 31.44291546 24 28 C24.25196823 24.74899636 24.25196823 24.74899636 24 22 C23.40832031 22.05800781 22.81664062 22.11601562 22.20703125 22.17578125 C15.73291984 22.54542872 15.73291984 22.54542872 12.3125 20 C11.549375 19.01 10.78625 18.02 10 17 C9.484375 16.34902344 8.96875 15.69804687 8.4375 15.02734375 C4.37254993 9.79958344 4.37254993 9.79958344 3.01171875 6.87890625 C2.01103101 4.66818908 2.01103101 4.66818908 -1 3 C-0.67 2.01 -0.34 1.02 0 0 Z " fill="#0D0D0D" transform="translate(701,245)"/>
<path d="M0 0 C1.50433594 0.01353516 1.50433594 0.01353516 3.0390625 0.02734375 C3.80992187 0.03894531 4.58078125 0.05054688 5.375 0.0625 C5.705 1.0525 6.035 2.0425 6.375 3.0625 C5.14523437 3.11857422 5.14523437 3.11857422 3.890625 3.17578125 C2.81296875 3.24152344 1.7353125 3.30726563 0.625 3.375 C-0.44234375 3.43300781 -1.5096875 3.49101562 -2.609375 3.55078125 C-5.8071068 4.09340154 -7.25098691 4.91321145 -9.625 7.0625 C-9.07402718 14.06730391 -9.07402718 14.06730391 -5.625 20.0625 C-1.4844667 22.22669889 2.0662138 22.27387918 6.6875 22.1875 C7.94175781 22.16945312 9.19601562 22.15140625 10.48828125 22.1328125 C11.44089844 22.10960937 12.39351562 22.08640625 13.375 22.0625 C13.375 23.0525 13.375 24.0425 13.375 25.0625 C7.6075928 26.70654251 1.19255638 27.02763949 -4.5 24.9375 C-9.020409 22.2252546 -10.97906689 19.00029932 -12.625 14.0625 C-13.01957593 11.00171818 -13.13257589 8.11347245 -12.625 5.0625 C-8.61180415 0.83808332 -5.66155708 -0.06583206 0 0 Z " fill="#0C0C0C" transform="translate(663.625,192.9375)"/>
<path d="M0 0 C16.5 0 33 0 50 0 C50 0.99 50 1.98 50 3 C33.30076403 3.12538412 16.67632874 2.90966192 0 2 C0 1.34 0 0.68 0 0 Z " fill="#1A1A1A" transform="translate(750,171)"/>
<path d="M0 0 C0 1.98 0 3.96 0 6 C-3.63 6 -7.26 6 -11 6 C-12.27785707 9.708229 -12.27785707 9.708229 -11.3828125 12.203125 C-10.11611239 14.23122867 -10.11611239 14.23122867 -7.6171875 14.609375 C-6.25980469 14.67898438 -6.25980469 14.67898438 -4.875 14.75 C-3.96492187 14.80671875 -3.05484375 14.8634375 -2.1171875 14.921875 C-1.41851563 14.94765625 -0.71984375 14.9734375 0 15 C0 15.99 0 16.98 0 18 C-8.94961571 18.61485909 -8.94961571 18.61485909 -12.5625 16.5 C-14.69471331 12.79180294 -15 10.31530349 -15 6 C-13.6875 3.625 -13.6875 3.625 -11 2 C-7.46886921 1.02473531 -3.68842503 0 0 0 Z " fill="#0D0D0D" transform="translate(800,263)"/>
<path d="M0 0 C12.87 0.495 12.87 0.495 26 1 C26 1.66 26 2.32 26 3 C17.75 3 9.5 3 1 3 C0.67 2.01 0.34 1.02 0 0 Z " fill="#000000" transform="translate(656,228)"/>
<path d="M0 0 C0.99 0 1.98 0 3 0 C3.17942163 3.94727588 3.09350689 6.5980513 1 10 C-1.375 10.1875 -1.375 10.1875 -4 10 C-6.29013653 6.5647952 -6.17842973 5.014669 -6 1 C-5.34 1 -4.68 1 -4 1 C-3.67 2.65 -3.34 4.3 -3 6 C-2.34 6 -1.68 6 -1 6 C-0.67 4.02 -0.34 2.04 0 0 Z " fill="#070707" transform="translate(731,207)"/>
<path d="M0 0 C0 1.98 0 3.96 0 6 C-3.96 6 -7.92 6 -12 6 C-11.67 4.68 -11.34 3.36 -11 2 C-9.35440244 1.66550467 -7.70851502 1.33243501 -6.0625 1 C-5.14597656 0.814375 -4.22945312 0.62875 -3.28515625 0.4375 C-1 0 -1 0 0 0 Z " fill="#2D2D2D" transform="translate(800,263)"/>
<path d="M0 0 C-0.33 0.99 -0.66 1.98 -1 3 C-8.92 3.495 -8.92 3.495 -17 4 C-16.67 3.01 -16.34 2.02 -16 1 C-10.61509359 0.08342019 -5.45769811 -0.11138159 0 0 Z " fill="#1D1D1D" transform="translate(669,255)"/>
<path d="M0 0 C0.66 0 1.32 0 2 0 C2.25 7.625 2.25 7.625 0 11 C-4.875 10.125 -4.875 10.125 -6 9 C-6.04080783 7.00041636 -6.04254356 4.99954746 -6 3 C-5.34 3 -4.68 3 -4 3 C-3.67 4.32 -3.34 5.64 -3 7 C-2.34 7 -1.68 7 -1 7 C-0.67 4.69 -0.34 2.38 0 0 Z " fill="#020202" transform="translate(700,221)"/>
<path d="M0 0 C0.66 0 1.32 0 2 0 C1.125 6.875 1.125 6.875 0 8 C-1.66617115 8.04063832 -3.33388095 8.042721 -5 8 C-5.33 6.02 -5.66 4.04 -6 2 C-5.01 2 -4.02 2 -3 2 C-3 2.99 -3 3.98 -3 5 C-2.34 4.67 -1.68 4.34 -1 4 C-0.34786708 1.97536745 -0.34786708 1.97536745 0 0 Z " fill="#020202" transform="translate(640,206)"/>
<path d="M0 0 C2.31 0 4.62 0 7 0 C7 0.99 7 1.98 7 3 C4.69 3.33 2.38 3.66 0 4 C-0.33 3.34 -0.66 2.68 -1 2 C-0.67 1.34 -0.34 0.68 0 0 Z " fill="#242424" transform="translate(670,215)"/>
<path d="M0 0 C2.31 0 4.62 0 7 0 C7.33 0.99 7.66 1.98 8 3 C5.03 3 2.06 3 -1 3 C-0.67 2.01 -0.34 1.02 0 0 Z " fill="#282828" transform="translate(662,193)"/>
<path d="M0 0 C0.66 0.33 1.32 0.66 2 1 C0.7508258 4.45925163 -0.67527795 7.14693203 -3 10 C-4 7 -4 7 -3.22265625 5.17578125 C-2.1484375 3.45052083 -1.07421875 1.72526042 0 0 Z " fill="#1D1D1D" transform="translate(661,156)"/>
<path d="M0 0 C0.33 0 0.66 0 1 0 C0.67 3.3 0.34 6.6 0 10 C-0.66 9.67 -1.32 9.34 -2 9 C-2.25 3.375 -2.25 3.375 0 0 Z " fill="#060606" transform="translate(632,193)"/>
</svg>
