<?xml version="1.0" encoding="UTF-8"?>
<svg version="1.1" xmlns="http://www.w3.org/2000/svg" width="800" height="300">
<path d="M0 0 C264 0 528 0 800 0 C800 99 800 198 800 300 C536 300 272 300 0 300 C0 201 0 102 0 0 Z " fill="#FEFEFE" transform="translate(0,0)"/>
<path d="M0 0 C8.08108108 1.05405405 8.08108108 1.05405405 11.125 4.1875 C13 7 13 7 14 13 C26.375 12.505 26.375 12.505 39 12 C39.99 9.03 40.98 6.06 42 3 C42.66 2.01 43.32 1.02 44 0 C49.45473727 -0.99327538 55.34155698 -0.98016153 60.1875 1.9375 C62.96456588 4.26969611 63.51115435 6.25587974 63.9375 9.8125 C63.96841334 11.20814648 63.99086 12.60404112 64 14 C65.03535385 13.99492432 66.0707077 13.98984863 67.13743591 13.98461914 C77.27904086 13.95038014 87.39902707 14.12009818 97.53515625 14.4375 C98.8681165 14.47744346 100.20108369 14.51715623 101.53405762 14.55664062 C106.37695544 14.70165844 111.21972082 14.85107273 116.0625 15 C126.931875 15.33 137.80125 15.66 149 16 C149 44.38 149 72.76 149 102 C143.555 102.99 143.555 102.99 138 104 C135.97843296 104.95564988 133.97033426 105.94274747 132 107 C130.68 107 129.36 107 128 107 C127.6596875 108.0828125 127.6596875 108.0828125 127.3125 109.1875 C125.66099387 112.7264417 124.11841749 114.62729104 121 117 C117.98395537 117.69554906 116.18311337 117.45473048 113 117 C109.21269327 114.40868487 107.91988299 111.43216352 107 107 C107.12328767 98.87671233 107.12328767 98.87671233 110 96 C114.13997567 95.8028583 117.07703567 95.69234522 121 97 C126.33295432 97.343491 126.33295432 97.343491 131 95 C131.99 95 132.98 95 134 95 C134 94.34 134 93.68 134 93 C133.40348633 93.06566162 132.80697266 93.13132324 132.19238281 93.19897461 C121.07118369 94.27838511 109.91403749 94.34837841 98.75 94.5625 C96.63671171 94.60577719 94.52343034 94.64939412 92.41015625 94.69335938 C87.27350905 94.79949206 82.1367898 94.90101973 77 95 C77.020625 96.2478125 77.04125 97.495625 77.0625 98.78125 C77.12456179 102.53598841 76.40450563 105.48873592 75 109 C74.34 109 73.68 109 73 109 C72.505 110.485 72.505 110.485 72 112 C68.89043581 114.56081757 67.38616355 115.01309029 63.3125 114.875 C60 114 60 114 58 111 C57.61500109 109.34450469 57.27206865 107.6777567 57 106 C54.1685963 105.18022393 51.33517098 104.36905726 48.5 103.5625 C47.70851563 103.33240234 46.91703125 103.10230469 46.1015625 102.86523438 C41.0598354 101.43950007 36.21491823 100.52029574 31 100 C32.42673359 102.88634122 33.90494836 105.54445319 36 108 C39.55652459 108.90137027 39.55652459 108.90137027 43 109 C44.875 110.0625 44.875 110.0625 46 112 C47.31966126 117.03120854 47.64086406 118.82508256 45.125 123.4375 C42.20137358 126.42627687 39.29124439 126.91672162 35.2109375 127.11328125 C32.1833545 126.95815774 29.7652099 126.22183693 27 125 C25.8553125 124.5359375 25.8553125 124.5359375 24.6875 124.0625 C23 123 23 123 22 120 C21.96045766 117.66700175 21.95598268 115.33291811 22 113 C22.66 113 23.32 113 24 113 C23.39671875 112.14277344 22.7934375 111.28554688 22.171875 110.40234375 C21.36403447 109.24777968 20.5567801 108.09280533 19.75 106.9375 C19.33395508 106.34348389 18.91791016 105.74946777 18.48925781 105.13745117 C16.3839547 102.10350865 14.43241599 99.10723132 12.75 95.8125 C10.64926259 92.43631488 9.73782641 92.13406162 6 91 C4.12852762 90.78290116 2.25588878 90.56948817 0.37792969 90.41845703 C-9.79544399 89.58871379 -16.89046453 86.5643032 -24 79 C-31.9392365 67.24992998 -32.54691748 53.01762423 -30.43359375 39.33203125 C-28.52881933 31.30405529 -25.95890101 26.14113719 -19.19140625 21.29296875 C-14.66346714 18.62140396 -10.24626376 18 -5 18 C-5.268125 17.05125 -5.53625 16.1025 -5.8125 15.125 C-6.63552328 9.76986185 -3.67819186 5.45228073 -1 1 C-0.67 0.67 -0.34 0.34 0 0 Z " fill="#FDFDFD" transform="translate(651,155)"/>
<path d="M0 0 C8.08108108 1.05405405 8.08108108 1.05405405 11.125 4.1875 C13 7 13 7 14 13 C26.375 12.505 26.375 12.505 39 12 C39.99 9.03 40.98 6.06 42 3 C42.66 2.01 43.32 1.02 44 0 C49.45473727 -0.99327538 55.34155698 -0.98016153 60.1875 1.9375 C62.96456588 4.26969611 63.51115435 6.25587974 63.9375 9.8125 C63.96841334 11.20814648 63.99086 12.60404112 64 14 C65.03535385 13.99492432 66.0707077 13.98984863 67.13743591 13.98461914 C77.27903753 13.95038015 87.39903917 14.12029754 97.53515625 14.4375 C99.03542935 14.48256212 100.53570927 14.52739788 102.03599548 14.57202148 C105.92057205 14.68815218 109.80505044 14.80728601 113.68951416 14.92712402 C117.67902067 15.04964443 121.66861555 15.16921608 125.65820312 15.2890625 C133.43888965 15.52321437 141.21947451 15.76055035 149 16 C149 16.99 149 17.98 149 19 C145.00220728 19.02521655 141.004447 19.04309666 137.0065918 19.05493164 C134.99851854 19.06227681 132.99046719 19.07499947 130.98242188 19.08789062 C124.61130903 19.10362177 118.2955506 19.00278744 111.9375 18.53125 C101.65888559 17.77039624 91.36448877 17.64241899 81.0625 17.4375 C79.01106113 17.39419058 76.95962875 17.35057291 74.90820312 17.30664062 C69.93886954 17.20087959 64.96946735 17.09926805 60 17 C60 13.37 60 9.74 60 6 C56.01774657 4.40709863 53.76460539 3.70116843 49.6875 3.375 C48.80449219 3.30023438 47.92148437 3.22546875 47.01171875 3.1484375 C46.34785156 3.09945312 45.68398438 3.05046875 45 3 C44.81824219 4.03060547 44.81824219 4.03060547 44.6328125 5.08203125 C44.46523438 5.98308594 44.29765625 6.88414062 44.125 7.8125 C43.96257812 8.70582031 43.80015625 9.59914062 43.6328125 10.51953125 C43 13 43 13 41 16 C38.11083984 16.34057617 38.11083984 16.34057617 34.4609375 16.29296875 C32.50800781 16.2784668 32.50800781 16.2784668 30.515625 16.26367188 C29.13541077 16.23860388 27.75520244 16.21320902 26.375 16.1875 C24.98699337 16.17245517 23.59897133 16.15876641 22.2109375 16.14648438 C18.80690491 16.1110257 15.40364378 16.06160298 12 16 C11.66226563 15.30132812 11.32453125 14.60265625 10.9765625 13.8828125 C10.53054688 12.97273437 10.08453125 12.06265625 9.625 11.125 C9.18414063 10.22007812 8.74328125 9.31515625 8.2890625 8.3828125 C7.09497301 5.90465528 7.09497301 5.90465528 5 4 C2.93125966 3.3574765 2.93125966 3.3574765 1 3 C-1.10575375 8.52760359 -2.37851209 13.06997733 -2 19 C-2.88042969 19.32613281 -3.76085937 19.65226562 -4.66796875 19.98828125 C-6.41013672 20.64376953 -6.41013672 20.64376953 -8.1875 21.3125 C-9.33605469 21.74175781 -10.48460937 22.17101562 -11.66796875 22.61328125 C-14.65931571 23.85821463 -17.23844135 25.32736856 -20 27 C-20.66 27 -21.32 27 -22 27 C-27.34215282 40.12311453 -29.97787954 55.31906642 -24.90625 69.03125 C-21.63994441 76.12701731 -16.25166502 81.9018073 -9 85 C-1.46957028 86.89499301 6.27386633 87.48762115 14 88 C14.20625 88.78375 14.4125 89.5675 14.625 90.375 C16.79690622 96.10093457 19.74170776 101.75837412 24.1171875 106.1015625 C26.49624527 108.50036349 27.12166281 110.7794303 28 114 C27.01 114.495 27.01 114.495 26 115 C26 116.65 26 118.3 26 120 C30.79196188 122.92192797 33.5442279 123.23526915 39 122 C39.99 121.67 40.98 121.34 42 121 C42.79953138 117.71303767 43.09658936 116.28976808 42 113 C40.1746875 112.9690625 40.1746875 112.9690625 38.3125 112.9375 C35.72784804 112.6178434 34.39462545 112.36257465 32.4609375 110.5859375 C29.85396672 106.95537083 27.99525962 102.99051923 26 99 C25.01 98.505 25.01 98.505 24 98 C23.375 94.9375 23.375 94.9375 23 92 C23.99 92.495 23.99 92.495 25 93 C25 93.66 25 94.32 25 95 C28.8705549 96.04744398 32.80843796 96.72105912 36.75 97.4375 C42.22538889 98.44746366 47.6157573 99.58309403 53 101 C55.99576119 101.68623282 58.99693142 102.34655452 62 103 C61.67 105.64 61.34 108.28 61 111 C64.87547487 111.45063661 66.55300187 111.30793205 69.8125 109.0625 C73.00733792 104.58972691 73 100.35758259 73 95 C69.34920174 93.38935371 65.9492568 92.55105909 62 92 C61.505 93.485 61.505 93.485 61 95 C53.30415843 95.42579451 47.93348093 94.46674047 41 91 C41 90.34 41 89.68 41 89 C41.68449219 89.14308594 42.36898437 89.28617187 43.07421875 89.43359375 C46.31053736 90.06011738 49.55335919 90.56869079 52.8125 91.0625 C53.97394531 91.23910156 55.13539063 91.41570312 56.33203125 91.59765625 C57.21246094 91.73042969 58.09289062 91.86320312 59 92 C59 91.34 59 90.68 59 90 C61.98997825 88.50501087 64.70042775 88.88422554 68 89 C69.485 89.495 69.485 89.495 71 90 C73.50980874 90.09085515 75.99119921 90.1260815 78.50073242 90.11352539 C79.26194901 90.11367142 80.02316559 90.11381744 80.80744934 90.1139679 C83.3234848 90.11327124 85.83944622 90.10549038 88.35546875 90.09765625 C90.09995992 90.09579119 91.8444516 90.0943677 93.58894348 90.09336853 C98.18058722 90.08955026 102.77219933 90.07972584 107.36383057 90.06866455 C112.04918998 90.05843561 116.73455451 90.05386773 121.41992188 90.04882812 C130.61329515 90.03810298 139.80664494 90.02103481 149 90 C149 93.96 149 97.92 149 102 C146.463125 102.4021875 146.463125 102.4021875 143.875 102.8125 C139.42548978 103.60644342 135.99659195 104.85548725 132 107 C130.68 107 129.36 107 128 107 C127.6596875 108.0828125 127.6596875 108.0828125 127.3125 109.1875 C125.66099387 112.7264417 124.11841749 114.62729104 121 117 C117.98395537 117.69554906 116.18311337 117.45473048 113 117 C109.21269327 114.40868487 107.91988299 111.43216352 107 107 C107.12328767 98.87671233 107.12328767 98.87671233 110 96 C114.13997567 95.8028583 117.07703567 95.69234522 121 97 C126.33295432 97.343491 126.33295432 97.343491 131 95 C131.99 95 132.98 95 134 95 C134 94.34 134 93.68 134 93 C133.40348633 93.06566162 132.80697266 93.13132324 132.19238281 93.19897461 C121.07118369 94.27838511 109.91403749 94.34837841 98.75 94.5625 C96.63671171 94.60577719 94.52343034 94.64939412 92.41015625 94.69335938 C87.27350905 94.79949206 82.1367898 94.90101973 77 95 C77.020625 96.2478125 77.04125 97.495625 77.0625 98.78125 C77.12456179 102.53598841 76.40450563 105.48873592 75 109 C74.34 109 73.68 109 73 109 C72.505 110.485 72.505 110.485 72 112 C68.89043581 114.56081757 67.38616355 115.01309029 63.3125 114.875 C60 114 60 114 58 111 C57.61500109 109.34450469 57.27206865 107.6777567 57 106 C54.1685963 105.18022393 51.33517098 104.36905726 48.5 103.5625 C47.70851563 103.33240234 46.91703125 103.10230469 46.1015625 102.86523438 C41.0598354 101.43950007 36.21491823 100.52029574 31 100 C32.42673359 102.88634122 33.90494836 105.54445319 36 108 C39.55652459 108.90137027 39.55652459 108.90137027 43 109 C44.875 110.0625 44.875 110.0625 46 112 C47.31966126 117.03120854 47.64086406 118.82508256 45.125 123.4375 C42.20137358 126.42627687 39.29124439 126.91672162 35.2109375 127.11328125 C32.1833545 126.95815774 29.7652099 126.22183693 27 125 C25.8553125 124.5359375 25.8553125 124.5359375 24.6875 124.0625 C23 123 23 123 22 120 C21.96045766 117.66700175 21.95598268 115.33291811 22 113 C22.66 113 23.32 113 24 113 C23.39671875 112.14277344 22.7934375 111.28554688 22.171875 110.40234375 C21.36403447 109.24777968 20.5567801 108.09280533 19.75 106.9375 C19.33395508 106.34348389 18.91791016 105.74946777 18.48925781 105.13745117 C16.3839547 102.10350865 14.43241599 99.10723132 12.75 95.8125 C10.64926259 92.43631488 9.73782641 92.13406162 6 91 C4.12852762 90.78290116 2.25588878 90.56948817 0.37792969 90.41845703 C-9.79544399 89.58871379 -16.89046453 86.5643032 -24 79 C-31.9392365 67.24992998 -32.54691748 53.01762423 -30.43359375 39.33203125 C-28.52881933 31.30405529 -25.95890101 26.14113719 -19.19140625 21.29296875 C-14.66346714 18.62140396 -10.24626376 18 -5 18 C-5.268125 17.05125 -5.53625 16.1025 -5.8125 15.125 C-6.63552328 9.76986185 -3.67819186 5.45228073 -1 1 C-0.67 0.67 -0.34 0.34 0 0 Z " fill="#191919" transform="translate(651,155)"/>
<path d="M0 0 C8.08108108 1.05405405 8.08108108 1.05405405 11.125 4.1875 C13 7 13 7 14 13 C26.375 12.505 26.375 12.505 39 12 C39.99 9.03 40.98 6.06 42 3 C42.66 2.01 43.32 1.02 44 0 C49.45473727 -0.99327538 55.34155698 -0.98016153 60.1875 1.9375 C62.96456588 4.26969611 63.51115435 6.25587974 63.9375 9.8125 C63.96841334 11.20814648 63.99086 12.60404112 64 14 C65.03535385 13.99492432 66.0707077 13.98984863 67.13743591 13.98461914 C77.27903753 13.95038015 87.39903917 14.12029754 97.53515625 14.4375 C99.03542935 14.48256212 100.53570927 14.52739788 102.03599548 14.57202148 C105.92057205 14.68815218 109.80505044 14.80728601 113.68951416 14.92712402 C117.67902067 15.04964443 121.66861555 15.16921608 125.65820312 15.2890625 C133.43888965 15.52321437 141.21947451 15.76055035 149 16 C149 16.99 149 17.98 149 19 C145.00220728 19.02521655 141.004447 19.04309666 137.0065918 19.05493164 C134.99851854 19.06227681 132.99046719 19.07499947 130.98242188 19.08789062 C124.61130903 19.10362177 118.2955506 19.00278744 111.9375 18.53125 C101.65888559 17.77039624 91.36448877 17.64241899 81.0625 17.4375 C79.01106113 17.39419058 76.95962875 17.35057291 74.90820312 17.30664062 C69.93886954 17.20087959 64.96946735 17.09926805 60 17 C60 13.37 60 9.74 60 6 C56.01774657 4.40709863 53.76460539 3.70116843 49.6875 3.375 C48.80449219 3.30023438 47.92148437 3.22546875 47.01171875 3.1484375 C46.34785156 3.09945312 45.68398438 3.05046875 45 3 C44.81824219 4.03060547 44.81824219 4.03060547 44.6328125 5.08203125 C44.46523438 5.98308594 44.29765625 6.88414062 44.125 7.8125 C43.96257812 8.70582031 43.80015625 9.59914062 43.6328125 10.51953125 C43 13 43 13 41 16 C38.11083984 16.34057617 38.11083984 16.34057617 34.4609375 16.29296875 C32.50800781 16.2784668 32.50800781 16.2784668 30.515625 16.26367188 C29.13541077 16.23860388 27.75520244 16.21320902 26.375 16.1875 C24.98699337 16.17245517 23.59897133 16.15876641 22.2109375 16.14648438 C18.80690491 16.1110257 15.40364378 16.06160298 12 16 C11.66226563 15.30132812 11.32453125 14.60265625 10.9765625 13.8828125 C10.53054688 12.97273437 10.08453125 12.06265625 9.625 11.125 C9.18414063 10.22007812 8.74328125 9.31515625 8.2890625 8.3828125 C7.09497301 5.90465528 7.09497301 5.90465528 5 4 C2.93125966 3.3574765 2.93125966 3.3574765 1 3 C-1.10575375 8.52760359 -2.37851209 13.06997733 -2 19 C-2.88042969 19.32613281 -3.76085937 19.65226562 -4.66796875 19.98828125 C-6.41013672 20.64376953 -6.41013672 20.64376953 -8.1875 21.3125 C-9.33605469 21.74175781 -10.48460937 22.17101562 -11.66796875 22.61328125 C-14.65931571 23.85821463 -17.23844135 25.32736856 -20 27 C-20.66 27 -21.32 27 -22 27 C-22.67271367 28.66423512 -23.33819169 30.3313982 -24 32 C-24.28101563 32.69996094 -24.56203125 33.39992187 -24.8515625 34.12109375 C-28.17193859 44.06545246 -27.26696276 54.65416619 -27 65 C-27.66 65 -28.32 65 -29 65 C-29.495 65.99 -29.495 65.99 -30 67 C-32.42983758 54.65485747 -32.56012438 39.70569199 -26.625 28.375 C-23.27460956 23.47827552 -18.48922672 20.13758125 -12.75 18.625 C-9 18 -9 18 -5 18 C-5.268125 17.05125 -5.53625 16.1025 -5.8125 15.125 C-6.63552328 9.76986185 -3.67819186 5.45228073 -1 1 C-0.67 0.67 -0.34 0.34 0 0 Z " fill="#1A1A1A" transform="translate(651,155)"/>
<path d="M0 0 C11.88 0 23.76 0 36 0 C36 3.96 36 7.92 36 12 C34.30875 12.268125 32.6175 12.53625 30.875 12.8125 C26.42548978 13.60644342 22.99659195 14.85548725 19 17 C17.68 17 16.36 17 15 17 C14.773125 17.721875 14.54625 18.44375 14.3125 19.1875 C12.66099387 22.7264417 11.11841749 24.62729104 8 27 C4.98395537 27.69554906 3.18311337 27.45473048 0 27 C-3.78730673 24.40868487 -5.08011701 21.43216352 -6 17 C-5.87671233 8.87671233 -5.87671233 8.87671233 -3 6 C1.13997567 5.8028583 4.07703567 5.69234522 8 7 C13.33295432 7.343491 13.33295432 7.343491 18 5 C18.99 5 19.98 5 21 5 C21 4.34 21 3.68 21 3 C10.605 3.495 10.605 3.495 0 4 C0 2.68 0 1.36 0 0 Z " fill="#393939" transform="translate(764,245)"/>
<path d="M0 0 C0 1.98 0 3.96 0 6 C-1.2375 6.2475 -2.475 6.495 -3.75 6.75 C-8.74573473 7.84256956 -13.49092317 9.47256594 -18.30078125 11.1953125 C-21 12 -21 12 -25 12 C-24.67 12.99 -24.34 13.98 -24 15 C-26.33333333 19.66666667 -26.33333333 19.66666667 -29 21 C-31.9375 21.3125 -31.9375 21.3125 -35 21 C-38.15183068 18.17422077 -38.66371829 15.11945096 -39 11 C-38.5625 8.125 -38.5625 8.125 -38 6 C-31.9453125 5.8046875 -31.9453125 5.8046875 -30 6 C-29.34 6.66 -28.68 7.32 -28 8 C-23.11035222 7.72322748 -20.05601983 6.63641289 -16 4 C-10.45728117 1.42659483 -6.10131673 0 0 0 Z " fill="#F6F6F6" transform="translate(800,248)"/>
<path d="M0 0 C18.00166827 -0.18878743 35.97421779 0.36566041 53.96417236 0.92712402 C57.92721586 1.0501097 61.89037036 1.16940923 65.85351562 1.2890625 C73.56912056 1.52253002 81.2845972 1.75993544 89 2 C89 2.99 89 3.98 89 5 C85.00220728 5.02521655 81.004447 5.04309666 77.0065918 5.05493164 C74.99851854 5.06227681 72.99046719 5.07499947 70.98242188 5.08789062 C64.61130903 5.10362177 58.2955506 5.00278744 51.9375 4.53125 C41.65888559 3.77039624 31.36448877 3.64241899 21.0625 3.4375 C19.01106113 3.39419058 16.95962875 3.35057291 14.90820312 3.30664062 C9.93886954 3.20087959 4.96946735 3.09926805 0 3 C0 2.01 0 1.02 0 0 Z " fill="#141414" transform="translate(711,169)"/>
<path d="M0 0 C1.46373047 0.02707031 1.46373047 0.02707031 2.95703125 0.0546875 C3.69308594 0.07789063 4.42914062 0.10109375 5.1875 0.125 C5.1875 1.115 5.1875 2.105 5.1875 3.125 C4.19169922 3.19847656 4.19169922 3.19847656 3.17578125 3.2734375 C-3.57801312 3.72239875 -3.57801312 3.72239875 -9.8125 6.125 C-10.98914871 9.65494613 -11.01100603 12.41955413 -10.8125 16.125 C-9.09023504 19.37349977 -9.09023504 19.37349977 -5.8125 20.125 C-4.40425107 20.20521999 -2.99252769 20.23265977 -1.58203125 20.22265625 C-0.77958984 20.21943359 0.02285156 20.21621094 0.84960938 20.21289062 C1.68298828 20.20451172 2.51636719 20.19613281 3.375 20.1875 C4.6424707 20.18073242 4.6424707 20.18073242 5.93554688 20.17382812 C8.01956155 20.16205403 10.10353977 20.1441189 12.1875 20.125 C12.1875 21.115 12.1875 22.105 12.1875 23.125 C4.71445502 25.61601499 -3.77360078 24.64513349 -11.10546875 22.07421875 C-12.8125 21.125 -12.8125 21.125 -14.8125 18.125 C-15.43739744 13.21771716 -15.21286451 8.52566827 -12.8125 4.125 C-9.04213149 0.35463149 -5.18226941 -0.12487396 0 0 Z " fill="#1E1E1E" transform="translate(658.8125,191.875)"/>
<path d="M0 0 C0 0.99 0 1.98 0 3 C-0.72445312 3.10957031 -1.44890625 3.21914063 -2.1953125 3.33203125 C-7.69420011 4.23384882 -12.05227112 5.34512109 -17 8 C-18.32 8 -19.64 8 -21 8 C-21.226875 8.721875 -21.45375 9.44375 -21.6875 10.1875 C-23.33900613 13.7264417 -24.88158251 15.62729104 -28 18 C-31.01604463 18.69554906 -32.81688663 18.45473048 -36 18 C-39.77209239 15.41909468 -41.0128925 12.39711523 -42 8 C-41.68989682 4.588865 -41.44323037 3.44323037 -39 1 C-38.79503906 1.85464844 -38.59007812 2.70929688 -38.37890625 3.58984375 C-38.10949219 4.69457031 -37.84007812 5.79929687 -37.5625 6.9375 C-37.16224609 8.59072266 -37.16224609 8.59072266 -36.75390625 10.27734375 C-36.27004275 12.89421254 -36.27004275 12.89421254 -35 14 C-30.87455729 14.40231439 -30.87455729 14.40231439 -27.1875 12.8125 C-25.7315304 10.59023062 -25.46292641 8.59493612 -25 6 C-23.86820313 5.65066406 -22.73640625 5.30132812 -21.5703125 4.94140625 C-20.08851369 4.48186105 -18.60674438 4.02222069 -17.125 3.5625 C-16.37863281 3.33240234 -15.63226562 3.10230469 -14.86328125 2.86523438 C-5.32729388 -0.09865359 -5.32729388 -0.09865359 0 0 Z " fill="#161616" transform="translate(800,254)"/>
<path d="M0 0 C3 1 3 1 4.10546875 3.0390625 C4.46253906 3.89242187 4.81960938 4.74578125 5.1875 5.625 C8.32449064 12.26021051 13.19459066 17.11091113 20 20 C27.20780863 21.78734963 34.61064336 22.45687514 42 23 C42 24.65 42 26.3 42 28 C41.17757812 27.79503906 40.35515625 27.59007812 39.5078125 27.37890625 C34.24822336 26.10955968 29.22945541 24.91212654 23.8125 24.6875 C16.22337633 24.09324562 10.04716206 19.44962972 5 14 C3.375 11.5 3.375 11.5 2 9 C1.608125 8.34 1.21625 7.68 0.8125 7 C-0.17691421 4.56451887 -0.14467909 2.60422365 0 0 Z " fill="#181818" transform="translate(622,220)"/>
<path d="M0 0 C0.33 0 0.66 0 1 0 C1.20625 0.78375 1.4125 1.5675 1.625 2.375 C3.79690622 8.10093457 6.74170776 13.75837412 11.1171875 18.1015625 C13.49624527 20.50036349 14.12166281 22.7794303 15 26 C14.34 26.33 13.68 26.66 13 27 C12.67 27.66 12.34 28.32 12 29 C11 31 11 31 9 32 C9 29.69 9 27.38 9 25 C9.66 25 10.32 25 11 25 C10.38511719 24.11957031 9.77023437 23.23914063 9.13671875 22.33203125 C8.32022829 21.15891277 7.50382675 19.9857324 6.6875 18.8125 C6.28337891 18.23435547 5.87925781 17.65621094 5.46289062 17.06054688 C-1.0557437 7.6800731 -1.0557437 7.6800731 -0.6875 3.1875 C-0.460625 2.135625 -0.23375 1.08375 0 0 Z " fill="#232323" transform="translate(664,243)"/>
<path d="M0 0 C5.45473727 -0.99327538 11.34155698 -0.98016153 16.1875 1.9375 C18.96456588 4.26969611 19.51115435 6.25587974 19.9375 9.8125 C19.98984122 11.20750721 20.02128711 12.60417351 20 14 C19.01 14.33 18.02 14.66 17 15 C16.67 12.03 16.34 9.06 16 6 C11.1956792 3.5978396 6.26896105 3.38877771 1 3 C0.67 3.99 0.34 4.98 0 6 C-0.33 5.67 -0.66 5.34 -1 5 C-1.66 5.66 -2.32 6.32 -3 7 C-2.38722388 4.03824877 -1.74627478 2.61941217 0 0 Z " fill="#242424" transform="translate(695,155)"/>
<path d="M0 0 C2.0078125 0.1328125 2.0078125 0.1328125 5.0078125 1.1328125 C8.85064934 1.27255202 12.3249494 1.31132869 16.0078125 0.1328125 C15.04409756 2.54209985 14.35571087 3.89288259 12.1953125 5.3828125 C9.62665269 6.26349586 7.70569974 6.41680063 5.0078125 6.1328125 C4.3478125 5.4728125 3.6878125 4.8128125 3.0078125 4.1328125 C0.35243878 3.56761247 -2.28363463 3.39493052 -4.9921875 3.1328125 C-4.9921875 4.7828125 -4.9921875 6.4328125 -4.9921875 8.1328125 C-5.9821875 7.4728125 -6.9721875 6.8128125 -7.9921875 6.1328125 C-6.88847213 -0.01645885 -6.36764969 0.02349686 0 0 Z " fill="#1D1D1D" transform="translate(766.9921875,250.8671875)"/>
<path d="M0 0 C3.02089478 -0.02716089 6.04154129 -0.04691657 9.0625 -0.0625 C9.91005859 -0.07087891 10.75761719 -0.07925781 11.63085938 -0.08789062 C16.5361722 -0.10683006 21.16444755 0.16673655 26 1 C26 1.99 26 2.98 26 4 C13.13 3.505 13.13 3.505 0 3 C0 2.01 0 1.02 0 0 Z " fill="#1A1A1A" transform="translate(649,228)"/>
<path d="M0 0 C0.68449219 0.14308594 1.36898437 0.28617188 2.07421875 0.43359375 C5.31053736 1.06011738 8.55335919 1.56869079 11.8125 2.0625 C13.55466797 2.32740234 13.55466797 2.32740234 15.33203125 2.59765625 C16.21246094 2.73042969 17.09289062 2.86320313 18 3 C18 2.34 18 1.68 18 1 C19.8125 0.3125 19.8125 0.3125 22 0 C23.75 1.4375 23.75 1.4375 25 3 C23.68 3 22.36 3 21 3 C20.67 3.99 20.34 4.98 20 6 C12.30415843 6.42579451 6.93348093 5.46674047 0 2 C0 1.34 0 0.68 0 0 Z " fill="#1C1C1C" transform="translate(692,244)"/>
<path d="M0 0 C0 0.66 0 1.32 0 2 C-7.57567321 6.43454041 -13.90988998 5.05463112 -22 3 C-22 2.67 -22 2.34 -22 2 C-14.58569409 0.16282685 -7.62314474 -0.23576736 0 0 Z " fill="#E8E8E8" transform="translate(785,248)"/>
<path d="M0 0 C5.94 0 11.88 0 18 0 C18 0.99 18 1.98 18 3 C8.58997722 5.11161731 8.58997722 5.11161731 4 6 C4.66 5.01 5.32 4.02 6 3 C3.69 2.67 1.38 2.34 -1 2 C-0.67 1.34 -0.34 0.68 0 0 Z " fill="#050505" transform="translate(782,245)"/>
<path d="M0 0 C0.99 0 1.98 0 3 0 C3.33 1.65 3.66 3.3 4 5 C4.66 3.68 5.32 2.36 6 1 C6.99 1 7.98 1 9 1 C8.45276317 4.37462715 7.9451 6.08235 6 9 C4.35 8.67 2.7 8.34 1 8 C0.67 5.36 0.34 2.72 0 0 Z " fill="#232323" transform="translate(755,216)"/>
<path d="M0 0 C0.99 0.33 1.98 0.66 3 1 C3.33 7.93 3.66 14.86 4 22 C3.34 22 2.68 22 2 22 C1.67 22.66 1.34 23.32 1 24 C-0.06309567 18.82682579 -0.11693938 13.87630664 -0.0625 8.625 C-0.05798828 7.79355469 -0.05347656 6.96210938 -0.04882812 6.10546875 C-0.03713164 4.07028103 -0.01919935 2.03513077 0 0 Z " fill="#2E2E2E" transform="translate(620,198)"/>
<path d="M0 0 C-0.14042877 1.64630328 -0.28749329 3.29204179 -0.4375 4.9375 C-0.51871094 5.85402344 -0.59992187 6.77054688 -0.68359375 7.71484375 C-1 10 -1 10 -2 11 C-2.23678716 13.69235776 -2.42198025 16.36498156 -2.5625 19.0625 C-2.60568359 19.82111328 -2.64886719 20.57972656 -2.69335938 21.36132812 C-2.79973633 23.24065438 -2.90039934 25.12030244 -3 27 C-3.33 27 -3.66 27 -4 27 C-4.02899599 23.22918278 -4.04679729 19.45839417 -4.0625 15.6875 C-4.07087891 14.61564453 -4.07925781 13.54378906 -4.08789062 12.43945312 C-4.09111328 11.41142578 -4.09433594 10.38339844 -4.09765625 9.32421875 C-4.10289307 8.37635498 -4.10812988 7.42849121 -4.11352539 6.4519043 C-4 4 -4 4 -3 1 C-1 0 -1 0 0 0 Z " fill="#111111" transform="translate(625,188)"/>
<path d="M0 0 C0.99 0 1.98 0 3 0 C3 1.32 3 2.64 3 4 C2.34 4 1.68 4 1 4 C0.67 4.99 0.34 5.98 0 7 C-1.99954746 7.04254356 -4.00041636 7.04080783 -6 7 C-7 6 -7 6 -7.0625 3.4375 C-7.041875 2.633125 -7.02125 1.82875 -7 1 C-6.01 1 -5.02 1 -4 1 C-4 1.99 -4 2.98 -4 4 C-3.01 4 -2.02 4 -1 4 C-0.67 2.68 -0.34 1.36 0 0 Z " fill="#232323" transform="translate(745,179)"/>
<path d="M0 0 C2.31 0 4.62 0 7 0 C6.67 1.98 6.34 3.96 6 6 C4.125 6.625 4.125 6.625 2 7 C0 5 0 5 -0.125 2.375 C-0.08375 1.59125 -0.0425 0.8075 0 0 Z " fill="#1E1E1E" transform="translate(672,237)"/>
<path d="M0 0 C3.63 0.33 7.26 0.66 11 1 C11 1.99 11 2.98 11 4 C7.04 3.67 3.08 3.34 -1 3 C-0.67 2.01 -0.34 1.02 0 0 Z " fill="#222222" transform="translate(664,228)"/>
<path d="M0 0 C2.625 0.9375 2.625 0.9375 5 2 C4.0409375 2.1546875 4.0409375 2.1546875 3.0625 2.3125 C2.381875 2.539375 1.70125 2.76625 1 3 C0.67 3.99 0.34 4.98 0 6 C-3.3 6 -6.6 6 -10 6 C-10 5.67 -10 5.34 -10 5 C-6.535 4.505 -6.535 4.505 -3 4 C-2.67 3.01 -2.34 2.02 -2 1 C-1.34 0.67 -0.68 0.34 0 0 Z " fill="#333333" transform="translate(712,244)"/>
<path d="M0 0 C1.98 0 3.96 0 6 0 C6 0.99 6 1.98 6 3 C4.02 3.33 2.04 3.66 0 4 C0 2.68 0 1.36 0 0 Z " fill="#1E1E1E" transform="translate(639,189)"/>
<path d="M0 0 C1.9375 0.375 1.9375 0.375 4 1 C4.33 1.66 4.66 2.32 5 3 C2.36 3.99 -0.28 4.98 -3 6 C-2 4 -1 2 0 0 Z " fill="#272727" transform="translate(634,175)"/>
<path d="M0 0 C0 1.32 0 2.64 0 4 C-2.97 3.505 -2.97 3.505 -6 3 C-6 2.34 -6 1.68 -6 1 C-4 0 -4 0 0 0 Z " fill="#282828" transform="translate(689,188)"/>
<path d="M0 0 C-0.33 0.66 -0.66 1.32 -1 2 C-3.64860427 2.59355614 -6.29197322 2.74209269 -9 3 C-6.27596221 -1.08605669 -4.4643819 -1.38549783 0 0 Z " fill="#070707" transform="translate(646,174)"/>
<path d="M0 0 C2 1.75 2 1.75 4 4 C4 5.32 4 6.64 4 8 C2.68 7.67 1.36 7.34 0 7 C0 4.69 0 2.38 0 0 Z " fill="#383838" transform="translate(645,166)"/>
<path d="M0 0 C0.99 0.33 1.98 0.66 3 1 C3 2.98 3 4.96 3 7 C2.01 7.33 1.02 7.66 0 8 C0 5.36 0 2.72 0 0 Z " fill="#1E1E1E" transform="translate(712,162)"/>
<path d="M0 0 C0.33 0 0.66 0 1 0 C1 2.97 1 5.94 1 9 C0.67 8.34 0.34 7.68 0 7 C-0.66 7 -1.32 7 -2 7 C-1.125 2.25 -1.125 2.25 0 0 Z " fill="#111111" transform="translate(760,255)"/>
</svg>
