<?xml version="1.0" encoding="UTF-8"?>
<svg version="1.1" xmlns="http://www.w3.org/2000/svg" width="800" height="300">
<path d="M0 0 C264 0 528 0 800 0 C800 99 800 198 800 300 C536 300 272 300 0 300 C0 201 0 102 0 0 Z " fill="#FEFEFE" transform="translate(0,0)"/>
<path d="M0 0 C4.37245784 0.39749617 7.52814947 1.27881985 11 4 C12.96457553 7.25171122 14 9.18692647 14 13 C22.58 13 31.16 13 40 13 C40.66 9.7 41.32 6.4 42 3 C42.66 2.01 43.32 1.02 44 0 C49.45473727 -0.99327538 55.34155698 -0.98016153 60.1875 1.9375 C62.96456588 4.26969611 63.51115435 6.25587974 63.9375 9.8125 C63.96841334 11.20814648 63.99086 12.60404112 64 14 C65.0415625 13.99419922 66.083125 13.98839844 67.15625 13.98242188 C77.12034216 13.94429696 87.04005005 14.1552325 97 14.5 C116.99377258 15.02615191 136.99930557 15 157 15 C157 44.04 157 73.08 157 103 C156.34 102.34 155.68 101.68 155 101 C153.07172094 101.12910158 153.07172094 101.12910158 150.9375 101.75 C149.72900391 102.05164063 149.72900391 102.05164063 148.49609375 102.359375 C147.67238281 102.57078125 146.84867188 102.7821875 146 103 C144.50134261 103.33931865 143.00135326 103.67281581 141.5 104 C140.76910156 104.16242188 140.03820312 104.32484375 139.28515625 104.4921875 C135.5234375 105.328125 131.76171875 106.1640625 128 107 C127.95875 107.721875 127.9175 108.44375 127.875 109.1875 C126.67670118 113.03917478 124.46156072 115.11046798 121 117 C116.70631061 117.67795096 114.8124795 117.51221534 111.125 115.1875 C107.72711744 111.68967972 107.84095511 108.62121116 107.8125 103.9375 C107.79832031 102.87402344 107.78414062 101.81054688 107.76953125 100.71484375 C108 98 108 98 110 96 C114.13997567 95.8028583 117.07703567 95.69234522 121 97 C127.90874351 97.69087435 129.88171804 96.16368087 137 93 C117.2 93.66 97.4 94.32 77 95 C77 97.97 77 100.94 77 104 C76.05965682 108.49275076 73.41642494 111.06635831 69.9453125 113.8984375 C68 115 68 115 64.1875 115 C61 114 61 114 59 112 C58.60235737 110.01178687 58.26224651 108.01055661 58 106 C49.05058909 103.48144994 40.22431907 101.30549022 31 100 C32.42673359 102.88634122 33.90494836 105.54445319 36 108 C39.55652459 108.90137027 39.55652459 108.90137027 43 109 C45.09807076 110.56365651 45.88333597 111.59905969 46.6171875 114.12109375 C46.70226562 114.88550781 46.78734375 115.64992188 46.875 116.4375 C46.97554687 117.19933594 47.07609375 117.96117187 47.1796875 118.74609375 C46.94204234 121.72699068 46.10543046 122.89912675 44 125 C38.18814266 127.33693564 32.79289053 127.43301402 27 125 C24.8046875 123.75 24.8046875 123.75 23 122 C22.75 119.51171875 22.75 119.51171875 23 116.6875 C23.19130762 111.50169707 22.46208099 109.03909449 19 105 C15 100.22222222 15 100.22222222 15 97 C14.34 97 13.68 97 13 97 C12.649375 96.21625 12.29875 95.4325 11.9375 94.625 C9.40889661 91.19915024 7.58373396 91.04834661 3.5234375 90.3125 C1.03096063 90.00383413 -1.43012841 89.87655503 -3.9375 89.75 C-9.93793657 89.23594391 -14.16231306 86.40270698 -19 83 C-19.99 82.319375 -20.98 81.63875 -22 80.9375 C-24.24676478 78.76094662 -24.97455557 76.9185726 -26 74 C-26.66 73.67 -27.32 73.34 -28 73 C-28 71.02 -28 69.04 -28 67 C-28.66 67 -29.32 67 -30 67 C-30.02927916 63.00001563 -30.04689219 59.00005924 -30.0625 55 C-30.07087891 53.87464844 -30.07925781 52.74929687 -30.08789062 51.58984375 C-30.10533416 45.62415603 -29.91781223 39.89712427 -29 34 C-28.34 34 -27.68 34 -27 34 C-27.144375 33.319375 -27.28875 32.63875 -27.4375 31.9375 C-26.73788229 27.24006683 -23.61983881 24.86748016 -20 22 C-15.00111643 19.27333623 -10.58076008 18.48954036 -5 18 C-5.20625 16.88625 -5.4125 15.7725 -5.625 14.625 C-5.74875 13.42875 -5.8725 12.2325 -6 11 C-5.34 10.34 -4.68 9.68 -4 9 C-3.4297902 7.66587276 -2.91269425 6.30834833 -2.4375 4.9375 C-1.09722222 1.09722222 -1.09722222 1.09722222 0 0 Z " fill="#FDFDFD" transform="translate(643,155)"/>
<path d="M0 0 C0 0.99 0 1.98 0 3 C-0.97839844 3.25523437 -0.97839844 3.25523437 -1.9765625 3.515625 C-10.70438755 5.79760769 -10.70438755 5.79760769 -17.1796875 11.75390625 C-21.03176636 18.93789273 -22.37706129 26.31129494 -22.3125 34.375 C-22.30686035 35.11741943 -22.3012207 35.85983887 -22.29541016 36.62475586 C-22.04841651 47.83606638 -18.60466859 55.39533141 -10.6875 63.3125 C-1.77159864 68.91085667 8.77518934 69.06244994 19 70 C19.27199219 70.886875 19.54398438 71.77375 19.82421875 72.6875 C22.0070763 78.83721164 25.52203861 84.46092504 29.8125 89.375 C31.79975605 91.75970726 32.65102136 92.97551847 33 96 C32.01 96.33 31.02 96.66 30 97 C30.93398606 100.14158949 31.66794941 101.7325148 34.25 103.8125 C37.49878952 105.21538638 39.49187143 105.43851607 43 105 C45.81780534 103.61114752 45.81780534 103.61114752 48 102 C47.505 98.535 47.505 98.535 47 95 C45.741875 94.95875 44.48375 94.9175 43.1875 94.875 C40.97265625 94.6171875 40.97265625 94.6171875 39 94 C37.125 91 37.125 91 36 88 C35.01 87.505 35.01 87.505 34 87 C33.690625 86.030625 33.38125 85.06125 33.0625 84.0625 C32.25255878 80.7319557 32.25255878 80.7319557 29 79 C28.3125 76.375 28.3125 76.375 28 74 C28.66 74 29.32 74 30 74 C30 74.99 30 75.98 30 77 C34.84293539 78.26246597 39.77678699 79.00584785 44.71289062 79.80664062 C48.74006561 80.49023321 52.21640623 81.41927039 56 83 C57.92792077 83.42148875 59.8665317 83.79676438 61.8125 84.125 C62.78832031 84.29257812 63.76414062 84.46015625 64.76953125 84.6328125 C65.87361328 84.81457031 65.87361328 84.81457031 67 85 C67 87.31 67 89.62 67 92 C69.239835 92.95020416 69.239835 92.95020416 72 93 C74.79197732 90.70817728 74.79197732 90.70817728 77 88 C77.33 87.67 77.66 87.34 78 87 C78.5531 81.46408851 78.5531 81.46408851 76.4375 76.5625 C73.31896306 74.56343786 70.65813817 74.28139524 67 74 C67 74.99 67 75.98 67 77 C54.35771221 77.40134247 54.35771221 77.40134247 49 75 C47.74609375 72.921875 47.74609375 72.921875 47 71 C49.38564077 71.57584432 51.66682784 72.22227595 54 73 C55.89212737 73.22179785 57.78884472 73.40614015 59.6875 73.5625 C61.17830078 73.68818359 61.17830078 73.68818359 62.69921875 73.81640625 C63.45847656 73.87699219 64.21773437 73.93757813 65 74 C65.495 72.515 65.495 72.515 66 71 C72.625 70.875 72.625 70.875 76 72 C78.68234468 72.0861117 81.33784933 72.11561487 84.01977539 72.09765625 C85.24456352 72.09546585 85.24456352 72.09546585 86.49409485 72.0932312 C88.26690843 72.08942563 90.03971821 72.0833095 91.81251717 72.07516479 C94.61512639 72.06242056 97.4176884 72.05589073 100.22032166 72.05102539 C106.1677356 72.03958793 112.11511071 72.02034032 118.0625 72 C124.95625465 71.97643824 131.84998714 71.95603683 138.74377251 71.94406128 C141.51028772 71.93755845 144.27673542 71.92505112 147.04322815 71.91235352 C148.73202454 71.90872238 150.42082156 71.90537047 152.10961914 71.90234375 C152.88317749 71.89717743 153.65673584 71.89201111 154.45373535 71.88668823 C159.77231312 71.88615656 159.77231312 71.88615656 162 73 C162 76.96 162 80.92 162 85 C161.34 84.34 160.68 83.68 160 83 C158.07172094 83.12910158 158.07172094 83.12910158 155.9375 83.75 C154.72900391 84.05164063 154.72900391 84.05164063 153.49609375 84.359375 C152.67238281 84.57078125 151.84867188 84.7821875 151 85 C149.50134261 85.33931865 148.00135326 85.67281581 146.5 86 C145.76910156 86.16242188 145.03820312 86.32484375 144.28515625 86.4921875 C140.5234375 87.328125 136.76171875 88.1640625 133 89 C132.95875 89.721875 132.9175 90.44375 132.875 91.1875 C131.67670118 95.03917478 129.46156072 97.11046798 126 99 C121.70631061 99.67795096 119.8124795 99.51221534 116.125 97.1875 C112.72711744 93.68967972 112.84095511 90.62121116 112.8125 85.9375 C112.79832031 84.87402344 112.78414062 83.81054688 112.76953125 82.71484375 C113 80 113 80 115 78 C119.13997567 77.8028583 122.07703567 77.69234522 126 79 C132.90874351 79.69087435 134.88171804 78.16368087 142 75 C122.2 75.66 102.4 76.32 82 77 C82 79.97 82 82.94 82 86 C81.05965682 90.49275076 78.41642494 93.06635831 74.9453125 95.8984375 C73 97 73 97 69.1875 97 C66 96 66 96 64 94 C63.60235737 92.01178687 63.26224651 90.01055661 63 88 C54.05058909 85.48144994 45.22431907 83.30549022 36 82 C37.42673359 84.88634122 38.90494836 87.54445319 41 90 C44.55652459 90.90137027 44.55652459 90.90137027 48 91 C50.09807076 92.56365651 50.88333597 93.59905969 51.6171875 96.12109375 C51.70226562 96.88550781 51.78734375 97.64992188 51.875 98.4375 C51.97554687 99.19933594 52.07609375 99.96117187 52.1796875 100.74609375 C51.94204234 103.72699068 51.10543046 104.89912675 49 107 C43.18814266 109.33693564 37.79289053 109.43301402 32 107 C29.8046875 105.75 29.8046875 105.75 28 104 C27.75 101.51171875 27.75 101.51171875 28 98.6875 C28.19130762 93.50169707 27.46208099 91.03909449 24 87 C20 82.22222222 20 82.22222222 20 79 C19.34 79 18.68 79 18 79 C17.649375 78.21625 17.29875 77.4325 16.9375 76.625 C14.40889661 73.19915024 12.58373396 73.04834661 8.5234375 72.3125 C6.03096063 72.00383413 3.56987159 71.87655503 1.0625 71.75 C-4.93793657 71.23594391 -9.16231306 68.40270698 -14 65 C-14.99 64.319375 -15.98 63.63875 -17 62.9375 C-19.24676478 60.76094662 -19.97455557 58.9185726 -21 56 C-21.66 55.67 -22.32 55.34 -23 55 C-23 53.02 -23 51.04 -23 49 C-23.66 49 -24.32 49 -25 49 C-25.02927916 45.00001563 -25.04689219 41.00005924 -25.0625 37 C-25.07087891 35.87464844 -25.07925781 34.74929687 -25.08789062 33.58984375 C-25.10533416 27.62415603 -24.91781223 21.89712427 -24 16 C-23.34 16 -22.68 16 -22 16 C-22.144375 15.319375 -22.28875 14.63875 -22.4375 13.9375 C-21.73937874 9.25011438 -18.6258569 6.84989531 -15 4 C-10.18891749 1.24510628 -5.50184838 0 0 0 Z " fill="#151515" transform="translate(638,173)"/>
<path d="M0 0 C0 0.99 0 1.98 0 3 C-0.97839844 3.25523437 -0.97839844 3.25523437 -1.9765625 3.515625 C-10.70438755 5.79760769 -10.70438755 5.79760769 -17.1796875 11.75390625 C-21.03176636 18.93789273 -22.37706129 26.31129494 -22.3125 34.375 C-22.30686035 35.11741943 -22.3012207 35.85983887 -22.29541016 36.62475586 C-22.04841651 47.83606638 -18.60466859 55.39533141 -10.6875 63.3125 C-1.77159864 68.91085667 8.77518934 69.06244994 19 70 C19.27199219 70.886875 19.54398438 71.77375 19.82421875 72.6875 C22.0070763 78.83721164 25.52203861 84.46092504 29.8125 89.375 C31.79975605 91.75970726 32.65102136 92.97551847 33 96 C32.01 96.33 31.02 96.66 30 97 C30.93398606 100.14158949 31.66794941 101.7325148 34.25 103.8125 C37.49878952 105.21538638 39.49187143 105.43851607 43 105 C45.81780534 103.61114752 45.81780534 103.61114752 48 102 C47.505 98.535 47.505 98.535 47 95 C45.741875 94.95875 44.48375 94.9175 43.1875 94.875 C40.97265625 94.6171875 40.97265625 94.6171875 39 94 C37.125 91 37.125 91 36 88 C35.01 87.505 35.01 87.505 34 87 C33.690625 86.030625 33.38125 85.06125 33.0625 84.0625 C32.25255878 80.7319557 32.25255878 80.7319557 29 79 C28.3125 76.375 28.3125 76.375 28 74 C28.66 74 29.32 74 30 74 C30 74.99 30 75.98 30 77 C34.84293539 78.26246597 39.77678699 79.00584785 44.71289062 79.80664062 C48.74006561 80.49023321 52.21640623 81.41927039 56 83 C57.92792077 83.42148875 59.8665317 83.79676438 61.8125 84.125 C62.78832031 84.29257812 63.76414062 84.46015625 64.76953125 84.6328125 C65.87361328 84.81457031 65.87361328 84.81457031 67 85 C67 87.31 67 89.62 67 92 C69.239835 92.95020416 69.239835 92.95020416 72 93 C74.64573501 90.77122275 74.64573501 90.77122275 77 88 C78.31175986 86.97186389 79.6369893 85.95915568 81 85 C81.30228029 88.06522825 81.34739659 89.52537505 79.49609375 92.0546875 C73.92021858 96.98515776 73.92021858 96.98515776 69.125 97.0625 C66 96 66 96 64 94 C63.60235737 92.01178687 63.26224651 90.01055661 63 88 C54.05058909 85.48144994 45.22431907 83.30549022 36 82 C37.42673359 84.88634122 38.90494836 87.54445319 41 90 C44.55652459 90.90137027 44.55652459 90.90137027 48 91 C50.09807076 92.56365651 50.88333597 93.59905969 51.6171875 96.12109375 C51.70226562 96.88550781 51.78734375 97.64992188 51.875 98.4375 C51.97554687 99.19933594 52.07609375 99.96117187 52.1796875 100.74609375 C51.94204234 103.72699068 51.10543046 104.89912675 49 107 C43.18814266 109.33693564 37.79289053 109.43301402 32 107 C29.8046875 105.75 29.8046875 105.75 28 104 C27.75 101.51171875 27.75 101.51171875 28 98.6875 C28.19130762 93.50169707 27.46208099 91.03909449 24 87 C20 82.22222222 20 82.22222222 20 79 C19.34 79 18.68 79 18 79 C17.649375 78.21625 17.29875 77.4325 16.9375 76.625 C14.40889661 73.19915024 12.58373396 73.04834661 8.5234375 72.3125 C6.03096063 72.00383413 3.56987159 71.87655503 1.0625 71.75 C-4.93793657 71.23594391 -9.16231306 68.40270698 -14 65 C-14.99 64.319375 -15.98 63.63875 -17 62.9375 C-19.24676478 60.76094662 -19.97455557 58.9185726 -21 56 C-21.66 55.67 -22.32 55.34 -23 55 C-23 53.02 -23 51.04 -23 49 C-23.66 49 -24.32 49 -25 49 C-25.02927916 45.00001563 -25.04689219 41.00005924 -25.0625 37 C-25.07087891 35.87464844 -25.07925781 34.74929687 -25.08789062 33.58984375 C-25.10533416 27.62415603 -24.91781223 21.89712427 -24 16 C-23.34 16 -22.68 16 -22 16 C-22.144375 15.319375 -22.28875 14.63875 -22.4375 13.9375 C-21.73937874 9.25011438 -18.6258569 6.84989531 -15 4 C-10.18891749 1.24510628 -5.50184838 0 0 0 Z " fill="#0F0F0F" transform="translate(638,173)"/>
<path d="M0 0 C4.37245784 0.39749617 7.52814947 1.27881985 11 4 C12.96457553 7.25171122 14 9.18692647 14 13 C22.58 13 31.16 13 40 13 C40.66 9.7 41.32 6.4 42 3 C42.66 2.01 43.32 1.02 44 0 C49.45473727 -0.99327538 55.34155698 -0.98016153 60.1875 1.9375 C62.96456588 4.26969611 63.51115435 6.25587974 63.9375 9.8125 C63.96841334 11.20814648 63.99086 12.60404112 64 14 C65.0415625 13.99419922 66.083125 13.98839844 67.15625 13.98242188 C76.41753083 13.94698608 85.64713553 14.10191614 94.90341187 14.42752075 C115.60120168 15.14304528 136.29259957 15.10242607 157 15 C157 15.99 157 16.98 157 18 C152.97165255 18.95820146 149.20990622 19.1289656 145.07421875 19.1328125 C144.07634087 19.13424759 144.07634087 19.13424759 143.05830383 19.13571167 C141.64881292 19.13639035 140.23931884 19.13455784 138.82983398 19.13037109 C136.73218213 19.12511202 134.63475377 19.13027742 132.53710938 19.13671875 C124.45420055 19.1408301 116.45701768 18.80906325 108.38989258 18.25390625 C99.44103586 17.69036158 90.46284848 17.62101144 81.5 17.4375 C79.50129563 17.39417689 77.50259763 17.35055894 75.50390625 17.30664062 C70.66933731 17.20103732 65.83470047 17.09939132 61 17 C61 13.37 61 9.74 61 6 C56.68554312 4.27421725 55.03046991 3.75918747 50.6875 3.875 C48.3671875 3.936875 48.3671875 3.936875 46 4 C44.68 7.96 43.36 11.92 42 16 C32.1 16 22.2 16 12 16 C10.68 12.7 9.36 9.4 8 6 C4.45562879 3.78520009 4.45562879 3.78520009 1 3 C0.49411853 4.91512272 -0.00448391 6.83216922 -0.5 8.75 C-0.7784375 9.81734375 -1.056875 10.8846875 -1.34375 11.984375 C-2.14175989 15.13705302 -2.14175989 15.13705302 -2 19 C-2.99 18.67 -3.98 18.34 -5 18 C-5.625 14.625 -5.625 14.625 -6 11 C-5.34 10.34 -4.68 9.68 -4 9 C-3.4297902 7.66587276 -2.91269425 6.30834833 -2.4375 4.9375 C-1.09722222 1.09722222 -1.09722222 1.09722222 0 0 Z " fill="#141414" transform="translate(643,155)"/>
<path d="M0 0 C0 0.66 0 1.32 0 2 C-5.62057288 5.13455026 -10.88778586 6.88980812 -17.16796875 8.2890625 C-20.01349366 8.93494982 -20.01349366 8.93494982 -22.66796875 10.07421875 C-25 11 -25 11 -28.125 11.1875 C-29.548125 11.5896875 -29.548125 11.5896875 -31 12 C-32.74570339 15.40663508 -32.74570339 15.40663508 -34 19 C-37.47042703 21.31361802 -38.91834173 21.51020728 -43 21 C-45.79574971 18.39706061 -46.73048837 15.77316288 -47 12 C-46.0625 8.6875 -46.0625 8.6875 -45 6 C-38.9453125 5.8046875 -38.9453125 5.8046875 -37 6 C-36.34 6.66 -35.68 7.32 -35 8 C-31.28053054 7.82288241 -28.4425838 6.81426505 -25.1875 5.125 C-16.65049727 0.70318762 -9.64085353 -0.44044509 0 0 Z " fill="#F6F6F6" transform="translate(800,248)"/>
<path d="M0 0 C0 0.99 0 1.98 0 3 C-1.22976563 3.19916016 -1.22976563 3.19916016 -2.484375 3.40234375 C-4.10085938 3.66724609 -4.10085938 3.66724609 -5.75 3.9375 C-7.35101562 4.19853516 -7.35101562 4.19853516 -8.984375 4.46484375 C-11.36347593 4.88704171 -13.66915211 5.37202884 -16 6 C-16.05416188 7.60379341 -16.09286638 9.20811406 -16.125 10.8125 C-16.15980469 12.15248047 -16.15980469 12.15248047 -16.1953125 13.51953125 C-16.18285827 16.25402714 -16.18285827 16.25402714 -14 19 C-11.23434618 19.92188461 -9.61716298 20.11785222 -6.76953125 20.09765625 C-5.96708984 20.09443359 -5.16464844 20.09121094 -4.33789062 20.08789062 C-3.50451172 20.07951172 -2.67113281 20.07113281 -1.8125 20.0625 C-0.5450293 20.05573242 -0.5450293 20.05573242 0.74804688 20.04882812 C2.83206155 20.03705403 4.91603977 20.0191189 7 20 C7 20.99 7 21.98 7 23 C-0.88641827 25.27952416 -9.64558541 24.72317239 -17 21 C-19.12224054 19.36640175 -19.89993448 18.57456975 -20.36328125 15.9140625 C-20.17231053 7.30568993 -20.17231053 7.30568993 -18 4 C-12.21537468 -0.55385398 -7.1785353 -0.46731875 0 0 Z " fill="#0A0A0A" transform="translate(656,192)"/>
<path d="M0 0 C3.95831809 -0.02892857 7.91660917 -0.04677427 11.875 -0.0625 C13.56689453 -0.07506836 13.56689453 -0.07506836 15.29296875 -0.08789062 C16.36933594 -0.09111328 17.44570313 -0.09433594 18.5546875 -0.09765625 C19.54968262 -0.10289307 20.54467773 -0.10812988 21.56982422 -0.11352539 C24 0 24 0 26 1 C26 1.66 26 2.32 26 3 C24.91460938 3.13277344 23.82921875 3.26554688 22.7109375 3.40234375 C21.26561678 3.58066254 19.82030474 3.75905169 18.375 3.9375 C17.66214844 4.02451172 16.94929687 4.11152344 16.21484375 4.20117188 C12.12408039 4.70782605 8.06157365 5.2889043 4 6 C4.66 5.01 5.32 4.02 6 3 C3.69 3 1.38 3 -1 3 C-0.67 2.01 -0.34 1.02 0 0 Z " fill="#0D0D0D" transform="translate(774,245)"/>
<path d="M0 0 C-1.84086141 3.68172282 -6.26463964 4.71026646 -10 6 C-15.56970322 6.59675392 -20.62784161 5.36435769 -26 4 C-25.34 3.01 -24.68 2.02 -24 1 C-21.20688036 0.61033155 -18.6162782 0.39545202 -15.8125 0.3125 C-15.06935547 0.27833984 -14.32621094 0.24417969 -13.56054688 0.20898438 C-9.03844234 0.01478357 -4.52572676 -0.0299717 0 0 Z " fill="#D6D6D6" transform="translate(781,247)"/>
<path d="M0 0 C0 0.99 0 1.98 0 3 C-1.22976563 3.19916016 -1.22976563 3.19916016 -2.484375 3.40234375 C-4.10085938 3.66724609 -4.10085938 3.66724609 -5.75 3.9375 C-7.35101562 4.19853516 -7.35101562 4.19853516 -8.984375 4.46484375 C-11.36347593 4.88704171 -13.66915211 5.37202884 -16 6 C-16.33 7.32 -16.66 8.64 -17 10 C-17.33 10 -17.66 10 -18 10 C-18.33 12.64 -18.66 15.28 -19 18 C-19.33 18 -19.66 18 -20 18 C-20.40547064 7.66049879 -20.40547064 7.66049879 -18 4 C-12.21537468 -0.55385398 -7.1785353 -0.46731875 0 0 Z " fill="#1D1D1D" transform="translate(656,192)"/>
<path d="M0 0 C3.02089478 -0.02716089 6.04154129 -0.04691657 9.0625 -0.0625 C9.91005859 -0.07087891 10.75761719 -0.07925781 11.63085938 -0.08789062 C16.5361722 -0.10683006 21.16444755 0.16673655 26 1 C26 1.99 26 2.98 26 4 C13.13 3.505 13.13 3.505 0 3 C0 2.01 0 1.02 0 0 Z " fill="#1A1A1A" transform="translate(641,228)"/>
<path d="M0 0 C0 0.99 0 1.98 0 3 C-0.97839844 3.25523437 -0.97839844 3.25523437 -1.9765625 3.515625 C-7.35774751 5.007753 -11.43885466 6.68280339 -16 10 C-17.98507948 11.02930047 -19.98114251 12.03863929 -22 13 C-19.66172831 7.63850836 -15.26821551 3.35094107 -9.8359375 1.10546875 C-6.48954054 0.23440287 -3.45927089 0 0 0 Z " fill="#101010" transform="translate(638,173)"/>
<path d="M0 0 C0.99 0 1.98 0 3 0 C3 1.65 3 3.3 3 5 C3.66 5 4.32 5 5 5 C5.33 3.68 5.66 2.36 6 1 C6.99 1 7.98 1 9 1 C8.25 6.75 8.25 6.75 6 9 C3.375 8.625 3.375 8.625 1 8 C0.67 5.36 0.34 2.72 0 0 Z " fill="#252525" transform="translate(747,216)"/>
<path d="M0 0 C5.61 0 11.22 0 17 0 C16.67 0.99 16.34 1.98 16 3 C10.39 3 4.78 3 -1 3 C-0.67 2.01 -0.34 1.02 0 0 Z " fill="#1D1D1D" transform="translate(757,245)"/>
<path d="M0 0 C0.99 0 1.98 0 3 0 C3 0.99 3 1.98 3 3 C3.66 3 4.32 3 5 3 C5 2.01 5 1.02 5 0 C5.66 0 6.32 0 7 0 C6.67 2.31 6.34 4.62 6 7 C1.125 6.125 1.125 6.125 0 5 C-0.04063832 3.33382885 -0.042721 1.66611905 0 0 Z " fill="#202020" transform="translate(664,237)"/>
<path d="M0 0 C0.66 0 1.32 0 2 0 C1.25 4.75 1.25 4.75 -1 7 C-3.5625 7.1875 -3.5625 7.1875 -6 7 C-7 6 -7 6 -7.0625 3.4375 C-7.041875 2.633125 -7.02125 1.82875 -7 1 C-6.34 1 -5.68 1 -5 1 C-5 1.99 -5 2.98 -5 4 C-1.72226496 3.24849977 -1.72226496 3.24849977 0 0 Z " fill="#0E0E0E" transform="translate(738,179)"/>
<path d="M0 0 C-0.33 4.29 -0.66 8.58 -1 13 C-1.99 12.67 -2.98 12.34 -4 12 C-4.75 8.8125 -4.75 8.8125 -5 5 C-1.80851064 0 -1.80851064 0 0 0 Z " fill="#1D1D1D" transform="translate(642,161)"/>
<path d="M0 0 C0.99 0.33 1.98 0.66 3 1 C2.01 2.485 2.01 2.485 1 4 C0.34 4 -0.32 4 -1 4 C-1.33 5.32 -1.66 6.64 -2 8 C-2.33 8 -2.66 8 -3 8 C-3.33 10.64 -3.66 13.28 -4 16 C-4.33 16 -4.66 16 -5 16 C-5.38647343 6.14492754 -5.38647343 6.14492754 -3 2 C-2.01 1.34 -1.02 0.68 0 0 Z " fill="#3B3B3B" transform="translate(641,194)"/>
<path d="M0 0 C0.33 0 0.66 0 1 0 C1.4375 2.125 1.4375 2.125 1 5 C-1.12689146 7.276147 -3.5023433 9.1458722 -6 11 C-6 7.41584854 -5.21108216 6.58796261 -3.0625 3.8125 C-2.51722656 3.09707031 -1.97195313 2.38164062 -1.41015625 1.64453125 C-0.94480469 1.10183594 -0.47945312 0.55914062 0 0 Z " fill="#161616" transform="translate(718,258)"/>
<path d="M0 0 C1.98 0.66 3.96 1.32 6 2 C6 2.33 6 2.66 6 3 C4.35 3 2.7 3 1 3 C1 3.99 1 4.98 1 6 C-1.97 6 -4.94 6 -8 6 C-8 5.67 -8 5.34 -8 5 C-7.05125 4.731875 -6.1025 4.46375 -5.125 4.1875 C-1.74732727 3.25013412 -1.74732727 3.25013412 0 0 Z " fill="#272727" transform="translate(704,244)"/>
<path d="M0 0 C0 2.64 0 5.28 0 8 C-0.66 7.34 -1.32 6.68 -2 6 C-3.32 6 -4.64 6 -6 6 C-5.6875 4.125 -5.6875 4.125 -5 2 C-2 0 -2 0 0 0 Z " fill="#0B0B0B" transform="translate(800,250)"/>
<path d="M0 0 C0.66 0.33 1.32 0.66 2 1 C-0.19471406 5.51135667 -2.41173718 7.06273348 -7 9 C-5.44499019 5.18315774 -2.96404505 2.80804268 0 0 Z " fill="#2A2A2A" transform="translate(623,177)"/>
<path d="M0 0 C0 0.66 0 1.32 0 2 C-4.455 3.485 -4.455 3.485 -9 5 C-7 1 -7 1 -4.5 -0.3125 C-2 -1 -2 -1 0 0 Z " fill="#111111" transform="translate(782,257)"/>
<path d="M0 0 C1.65 0 3.3 0 5 0 C4.67 1.32 4.34 2.64 4 4 C2.68 4 1.36 4 0 4 C0 2.68 0 1.36 0 0 Z " fill="#0A0A0A" transform="translate(632,189)"/>
<path d="M0 0 C1.32 0.33 2.64 0.66 4 1 C2.68 2.32 1.36 3.64 0 5 C-0.99 4.67 -1.98 4.34 -3 4 C-2.01 2.68 -1.02 1.36 0 0 Z " fill="#181818" transform="translate(626,175)"/>
<path d="M0 0 C0 1.32 0 2.64 0 4 C-1.65 3.67 -3.3 3.34 -5 3 C-5 2.34 -5 1.68 -5 1 C-3 0 -3 0 0 0 Z " fill="#121212" transform="translate(681,188)"/>
</svg>
