<?xml version="1.0" encoding="UTF-8"?>
<svg version="1.1" xmlns="http://www.w3.org/2000/svg" width="800" height="300">
<path d="M0 0 C264 0 528 0 800 0 C800 99 800 198 800 300 C536 300 272 300 0 300 C0 201 0 102 0 0 Z " fill="#FEFEFE" transform="translate(0,0)"/>
<path d="M0 0 C4.60318234 0 6.47731945 0.51140732 9.875 3.6875 C12 7 12 7 13 13 C21.58 12.67 30.16 12.34 39 12 C39.99 9.03 40.98 6.06 42 3 C42.66 2.01 43.32 1.02 44 0 C49.22662188 -0.94796573 53.80790294 -0.58559154 58.5625 1.75 C62.13043478 5.04347826 62.13043478 5.04347826 63 8 C63.02493572 9.99984455 63.02724543 12.00018559 63 14 C63.7935791 13.99476318 64.5871582 13.98952637 65.40478516 13.98413086 C91.99948502 13.83256678 91.99948502 13.83256678 103.625 14.5 C113.79072997 15.06840001 123.94645459 15.11395737 134.125 15.125 C134.93269836 15.12749756 135.74039673 15.12999512 136.5725708 15.13256836 C138.88436178 15.13846052 141.19602003 15.1369704 143.5078125 15.1328125 C144.55322205 15.13578842 144.55322205 15.13578842 145.61975098 15.13882446 C148.99741448 15.12266114 151.68725789 14.82818553 155 14 C157.97 14 160.94 14 164 14 C164 47.33 164 80.66 164 115 C159.62082208 110.62082208 157.62681979 108.25363958 155 103 C155 102.01 155 101.02 155 100 C154.38253906 100.19335938 153.76507812 100.38671875 153.12890625 100.5859375 C147.45800253 102.32950303 141.80354736 103.78085203 136 105 C134.31207728 105.37309267 132.6245647 105.74804648 130.9375 106.125 C129.625 106.41666667 128.3125 106.70833333 127 107 C126.95875 107.721875 126.9175 108.44375 126.875 109.1875 C125.67456278 113.04604822 123.45742554 115.09725574 120 117 C116.4375 117.6875 116.4375 117.6875 113 117 C108.87101904 113.40958177 107.30457003 110.40860769 106.91796875 104.96484375 C107.05142432 101.76826507 107.66944673 98.33055327 110 96 C111.47648876 95.90176004 112.95775417 95.87026481 114.4375 95.875 C115.64212891 95.87113281 115.64212891 95.87113281 116.87109375 95.8671875 C119 96 119 96 121 97 C127.34308621 97.7735471 129.39202494 95.93687781 136 93 C116.2 93.66 96.4 94.32 76 95 C76 97.97 76 100.94 76 104 C75.05965682 108.49275076 72.41642494 111.06635831 68.9453125 113.8984375 C67 115 67 115 63.1875 115 C60 114 60 114 58 112 C57.875 108.375 57.875 108.375 58 105 C56.72125 104.896875 55.4425 104.79375 54.125 104.6875 C50.54466251 104.30529757 47.3557703 103.5610245 43.9375 102.4375 C39.42320402 100.98218705 35.72253553 100.73763692 31 101 C31.495 101.78375 31.99 102.5675 32.5 103.375 C34 106 34 106 34 108 C35.258125 108.103125 36.51625 108.20625 37.8125 108.3125 C40.33231669 108.51904235 41.66199559 108.74939719 43.70703125 110.265625 C45.28130077 112.37733397 45.58481583 113.83023917 45.875 116.4375 C45.97554687 117.19933594 46.07609375 117.96117187 46.1796875 118.74609375 C45.94204234 121.72699068 45.10543046 122.89912675 43 125 C38.38737996 126.85472484 33.99912259 127.1611488 29.125 126.375 C23.86666667 124.06133333 23.86666667 124.06133333 22 121 C22.00565453 119.26971342 22.07656445 117.53923591 22.1875 115.8125 C22.43047839 109.92615249 20.64084741 107.38631239 16.82421875 103.07421875 C14.1640849 100.04952694 11 96.1544285 11 92 C10.41621582 91.94054199 9.83243164 91.88108398 9.23095703 91.81982422 C-14.66151063 89.25840074 -14.66151063 89.25840074 -22.875 80 C-23.57625 79.01 -24.2775 78.02 -25 77 C-25.721875 76.071875 -26.44375 75.14375 -27.1875 74.1875 C-32.90820468 64.12695039 -32.6117659 49.07607733 -30.27734375 37.98828125 C-28.59663759 32.02075372 -26.94893226 27.80687097 -22 24 C-21.319375 23.195625 -21.319375 23.195625 -20.625 22.375 C-16.29456681 18.7107873 -11.54592144 17.59420087 -6 18 C-6.12375 16.5459375 -6.12375 16.5459375 -6.25 15.0625 C-6.26974681 10.22453098 -4.32570983 6.16760411 -2 2 C-1.34 1.34 -0.68 0.68 0 0 Z " fill="#FCFCFC" transform="translate(636,155)"/>
<path d="M0 0 C0 0.99 0 1.98 0 3 C-0.97839844 3.25523437 -0.97839844 3.25523437 -1.9765625 3.515625 C-10.70438755 5.79760769 -10.70438755 5.79760769 -17.1796875 11.75390625 C-21.03176636 18.93789273 -22.37706129 26.31129494 -22.3125 34.375 C-22.30686035 35.11741943 -22.3012207 35.85983887 -22.29541016 36.62475586 C-22.08212185 46.30614458 -19.7587612 53.84463668 -13 61 C-8.45453498 64.71386227 -4.37692611 67.2574556 1.51953125 67.94921875 C2.54111328 68.07490234 3.56269531 68.20058594 4.61523438 68.33007812 C6.19788086 68.50700195 6.19788086 68.50700195 7.8125 68.6875 C9.42415039 68.88182617 9.42415039 68.88182617 11.06835938 69.08007812 C13.711182 69.39721684 16.35479857 69.70347556 19 70 C19.26039063 70.87527344 19.52078125 71.75054687 19.7890625 72.65234375 C20.99529963 75.98700574 22.44393956 78.59844872 24.375 81.5625 C24.96023438 82.47128906 25.54546875 83.38007813 26.1484375 84.31640625 C27.98785408 87.05208719 27.98785408 87.05208719 30.171875 89.703125 C31.93614149 91.91976751 32.80597412 93.18662473 33 96 C32.34 96.66 31.68 97.32 31 98 C31.36681658 100.93453261 31.86437246 101.86437246 34 104 C38.08084268 104.99415421 41.90572635 105.25077104 46 104.3125 C48.09584162 103.15980177 48.09584162 103.15980177 49 101.1875 C49 97.90308864 48.17393737 96.44567955 46 94 C42.37400578 93.58274322 42.37400578 93.58274322 39 94 C38.5875 93.154375 38.175 92.30875 37.75 91.4375 C34.43607584 84.35185554 34.43607584 84.35185554 29 79 C28.3125 76.375 28.3125 76.375 28 74 C28.66 74 29.32 74 30 74 C30 74.99 30 75.98 30 77 C30.969375 77.144375 31.93875 77.28875 32.9375 77.4375 C36 78 36 78 37 79 C38.95250863 79.32840359 40.91263633 79.6118124 42.875 79.875 C48.2690467 80.66249529 53.37875829 81.82181161 58.609375 83.3359375 C61.38152846 84.10598013 64.14975248 84.61483142 67 85 C67 87.31 67 89.62 67 92 C71.92290686 92.39739246 71.92290686 92.39739246 76.375 90.5625 C78.72161501 86.86206863 79.45787059 83.36985267 79 79 C76.29077413 75.61346767 74.43248137 75.0850783 70.1875 74.25 C69.135625 74.1675 68.08375 74.085 67 74 C67 74.99 67 75.98 67 77 C60.34656702 77.32194031 54.10348744 76.94275287 48 74 C47.67 73.01 47.34 72.02 47 71 C52.875 71.875 52.875 71.875 54 73 C55.84891946 73.23363881 57.70488031 73.41303635 59.5625 73.5625 C61.08037109 73.68818359 61.08037109 73.68818359 62.62890625 73.81640625 C63.41136719 73.87699219 64.19382812 73.93757813 65 74 C65.495 72.515 65.495 72.515 66 71 C67.47906892 70.97310784 68.95827483 70.95365379 70.4375 70.9375 C71.26121094 70.92589844 72.08492187 70.91429687 72.93359375 70.90234375 C75 71 75 71 76 72 C78.64738089 72.09511266 81.26859001 72.12555635 83.91625977 72.11352539 C84.74545929 72.11367142 85.57465881 72.11381744 86.4289856 72.1139679 C89.18315198 72.11326851 91.93725161 72.10547493 94.69140625 72.09765625 C96.59569766 72.09579216 98.49998955 72.09436822 100.40428162 72.09336853 C105.42667963 72.08954263 110.44904892 72.07971173 115.47143555 72.06866455 C120.5922812 72.05845198 125.71313148 72.05387124 130.83398438 72.04882812 C140.88933557 72.03808953 150.9446654 72.02101224 161 72 C161.33 72.99 161.66 73.98 162 75 C161.030625 75.06316406 160.06125 75.12632812 159.0625 75.19140625 C150.29338809 75.93614084 143.12529098 77.74346215 135.23046875 81.69946289 C130.46925826 84.04523895 130.46925826 84.04523895 127.609375 83.76953125 C126 83 126 83 125 82 C122.32941149 81.85884839 119.67567762 81.95752893 117 82 C116.97287934 83.43739513 116.95354933 84.87493863 116.9375 86.3125 C116.92009766 87.51326172 116.92009766 87.51326172 116.90234375 88.73828125 C116.90342145 91.16861334 116.90342145 91.16861334 118 94 C120.7459726 95.3729863 122.9589047 95.12412634 126 95 C126.99 94.67 127.98 94.34 129 94 C129.33 91.69 129.66 89.38 130 87 C130.87011719 86.71125 131.74023438 86.4225 132.63671875 86.125 C134.72586629 85.42619107 136.81236543 84.71934474 138.89453125 84 C144.21356365 82.17714552 149.43573733 80.53621916 154.96484375 79.4921875 C157.42273742 78.89776408 159.67220504 77.97969805 162 77 C162.32613281 77.81984375 162.65226563 78.6396875 162.98828125 79.484375 C163.42527344 80.56203125 163.86226562 81.6396875 164.3125 82.75 C164.74175781 83.81734375 165.17101562 84.8846875 165.61328125 85.984375 C166.84389045 88.98660211 166.84389045 88.98660211 168.73046875 91.140625 C170 93 170 93 169.6875 95.25 C169.3471875 96.11625 169.3471875 96.11625 169 97 C161 85 161 85 161 82 C160.38253906 82.19335938 159.76507812 82.38671875 159.12890625 82.5859375 C153.45800253 84.32950303 147.80354736 85.78085203 142 87 C140.31207728 87.37309267 138.6245647 87.74804648 136.9375 88.125 C135.625 88.41666667 134.3125 88.70833333 133 89 C132.95875 89.721875 132.9175 90.44375 132.875 91.1875 C131.67456278 95.04604822 129.45742554 97.09725574 126 99 C122.4375 99.6875 122.4375 99.6875 119 99 C114.87101904 95.40958177 113.30457003 92.40860769 112.91796875 86.96484375 C113.05142432 83.76826507 113.66944673 80.33055327 116 78 C117.47648876 77.90176004 118.95775417 77.87026481 120.4375 77.875 C121.64212891 77.87113281 121.64212891 77.87113281 122.87109375 77.8671875 C125 78 125 78 127 79 C133.34308621 79.7735471 135.39202494 77.93687781 142 75 C122.2 75.66 102.4 76.32 82 77 C82 79.97 82 82.94 82 86 C81.05965682 90.49275076 78.41642494 93.06635831 74.9453125 95.8984375 C73 97 73 97 69.1875 97 C66 96 66 96 64 94 C63.875 90.375 63.875 90.375 64 87 C62.72125 86.896875 61.4425 86.79375 60.125 86.6875 C56.54466251 86.30529757 53.3557703 85.5610245 49.9375 84.4375 C45.42320402 82.98218705 41.72253553 82.73763692 37 83 C37.495 83.78375 37.99 84.5675 38.5 85.375 C40 88 40 88 40 90 C41.258125 90.103125 42.51625 90.20625 43.8125 90.3125 C46.33231669 90.51904235 47.66199559 90.74939719 49.70703125 92.265625 C51.28130077 94.37733397 51.58481583 95.83023917 51.875 98.4375 C51.97554687 99.19933594 52.07609375 99.96117187 52.1796875 100.74609375 C51.94204234 103.72699068 51.10543046 104.89912675 49 107 C44.38737996 108.85472484 39.99912259 109.1611488 35.125 108.375 C29.86666667 106.06133333 29.86666667 106.06133333 28 103 C28.00565453 101.26971342 28.07656445 99.53923591 28.1875 97.8125 C28.43047839 91.92615249 26.64084741 89.38631239 22.82421875 85.07421875 C20.1640849 82.04952694 17 78.1544285 17 74 C16.41621582 73.94054199 15.83243164 73.88108398 15.23095703 73.81982422 C-8.66151063 71.25840074 -8.66151063 71.25840074 -16.875 62 C-17.57625 61.01 -18.2775 60.02 -19 59 C-20.0828125 57.6078125 -20.0828125 57.6078125 -21.1875 56.1875 C-26.90820468 46.12695039 -26.6117659 31.07607733 -24.27734375 19.98828125 C-22.59663759 14.02075372 -20.94893226 9.80687097 -16 6 C-15.54625 5.46375 -15.0925 4.9275 -14.625 4.375 C-10.29456681 0.7107873 -5.54592144 -0.40579913 0 0 Z " fill="#101010" transform="translate(630,173)"/>
<path d="M0 0 C0 0.99 0 1.98 0 3 C-0.97839844 3.25523437 -0.97839844 3.25523437 -1.9765625 3.515625 C-10.70438755 5.79760769 -10.70438755 5.79760769 -17.1796875 11.75390625 C-21.03176636 18.93789273 -22.37706129 26.31129494 -22.3125 34.375 C-22.30686035 35.11741943 -22.3012207 35.85983887 -22.29541016 36.62475586 C-22.08212185 46.30614458 -19.7587612 53.84463668 -13 61 C-8.45453498 64.71386227 -4.37692611 67.2574556 1.51953125 67.94921875 C2.54111328 68.07490234 3.56269531 68.20058594 4.61523438 68.33007812 C6.19788086 68.50700195 6.19788086 68.50700195 7.8125 68.6875 C9.42415039 68.88182617 9.42415039 68.88182617 11.06835938 69.08007812 C13.711182 69.39721684 16.35479857 69.70347556 19 70 C19.26039063 70.87527344 19.52078125 71.75054687 19.7890625 72.65234375 C20.99529963 75.98700574 22.44393956 78.59844872 24.375 81.5625 C24.96023438 82.47128906 25.54546875 83.38007813 26.1484375 84.31640625 C27.98785408 87.05208719 27.98785408 87.05208719 30.171875 89.703125 C31.93614149 91.91976751 32.80597412 93.18662473 33 96 C32.34 96.66 31.68 97.32 31 98 C31.36681658 100.93453261 31.86437246 101.86437246 34 104 C38.08084268 104.99415421 41.90572635 105.25077104 46 104.3125 C48.09584162 103.15980177 48.09584162 103.15980177 49 101.1875 C49 97.90308864 48.17393737 96.44567955 46 94 C42.37400578 93.58274322 42.37400578 93.58274322 39 94 C38.5875 93.154375 38.175 92.30875 37.75 91.4375 C34.43607584 84.35185554 34.43607584 84.35185554 29 79 C28.3125 76.375 28.3125 76.375 28 74 C28.66 74 29.32 74 30 74 C30 74.99 30 75.98 30 77 C30.969375 77.144375 31.93875 77.28875 32.9375 77.4375 C36 78 36 78 37 79 C38.95250863 79.32840359 40.91263633 79.6118124 42.875 79.875 C48.2690467 80.66249529 53.37875829 81.82181161 58.609375 83.3359375 C61.38152846 84.10598013 64.14975248 84.61483142 67 85 C67 87.31 67 89.62 67 92 C70.24606681 92.58661468 70.24606681 92.58661468 74 92 C75.89912427 90.32356065 77.32814219 88.56314529 78.8359375 86.53125 C79.22007812 86.0259375 79.60421875 85.520625 80 85 C80.33 85 80.66 85 81 85 C81.30228029 88.06522825 81.34739659 89.52537505 79.49609375 92.0546875 C73.92021858 96.98515776 73.92021858 96.98515776 69.125 97.0625 C66 96 66 96 64 94 C63.875 90.375 63.875 90.375 64 87 C62.72125 86.896875 61.4425 86.79375 60.125 86.6875 C56.54466251 86.30529757 53.3557703 85.5610245 49.9375 84.4375 C45.42320402 82.98218705 41.72253553 82.73763692 37 83 C37.495 83.78375 37.99 84.5675 38.5 85.375 C40 88 40 88 40 90 C41.258125 90.103125 42.51625 90.20625 43.8125 90.3125 C46.33231669 90.51904235 47.66199559 90.74939719 49.70703125 92.265625 C51.28130077 94.37733397 51.58481583 95.83023917 51.875 98.4375 C51.97554687 99.19933594 52.07609375 99.96117187 52.1796875 100.74609375 C51.94204234 103.72699068 51.10543046 104.89912675 49 107 C44.38737996 108.85472484 39.99912259 109.1611488 35.125 108.375 C29.86666667 106.06133333 29.86666667 106.06133333 28 103 C28.00565453 101.26971342 28.07656445 99.53923591 28.1875 97.8125 C28.43047839 91.92615249 26.64084741 89.38631239 22.82421875 85.07421875 C20.1640849 82.04952694 17 78.1544285 17 74 C16.41621582 73.94054199 15.83243164 73.88108398 15.23095703 73.81982422 C-8.66151063 71.25840074 -8.66151063 71.25840074 -16.875 62 C-17.57625 61.01 -18.2775 60.02 -19 59 C-20.0828125 57.6078125 -20.0828125 57.6078125 -21.1875 56.1875 C-26.90820468 46.12695039 -26.6117659 31.07607733 -24.27734375 19.98828125 C-22.59663759 14.02075372 -20.94893226 9.80687097 -16 6 C-15.54625 5.46375 -15.0925 4.9275 -14.625 4.375 C-10.29456681 0.7107873 -5.54592144 -0.40579913 0 0 Z " fill="#0A0A0A" transform="translate(630,173)"/>
<path d="M0 0 C4.60318234 0 6.47731945 0.51140732 9.875 3.6875 C12 7 12 7 13 13 C21.58 12.67 30.16 12.34 39 12 C39.99 9.03 40.98 6.06 42 3 C42.66 2.01 43.32 1.02 44 0 C49.22662188 -0.94796573 53.80790294 -0.58559154 58.5625 1.75 C62.13043478 5.04347826 62.13043478 5.04347826 63 8 C63.02493572 9.99984455 63.02724543 12.00018559 63 14 C63.7935791 13.99476318 64.5871582 13.98952637 65.40478516 13.98413086 C91.99948502 13.83256678 91.99948502 13.83256678 103.625 14.5 C113.79072997 15.06840001 123.94645459 15.11395737 134.125 15.125 C134.93269836 15.12749756 135.74039673 15.12999512 136.5725708 15.13256836 C138.88436178 15.13846052 141.19602003 15.1369704 143.5078125 15.1328125 C144.55322205 15.13578842 144.55322205 15.13578842 145.61975098 15.13882446 C148.90902008 15.12308414 151.84388831 14.93563706 155 14 C156.58211573 13.93451508 158.16670081 13.91421619 159.75 13.9375 C160.54921875 13.94652344 161.3484375 13.95554688 162.171875 13.96484375 C162.77515625 13.97644531 163.3784375 13.98804688 164 14 C164 14.99 164 15.98 164 17 C155.36620781 19.06457705 146.90305007 19.27934866 138.08325195 19.20581055 C135.80603896 19.1874479 133.52923287 19.18530235 131.25195312 19.18554688 C125.18168193 19.16530178 119.2688175 19.05239396 113.24369812 18.23680115 C108.53442197 17.73978152 103.79374299 17.75719786 99.0625 17.68359375 C97.94182129 17.66281265 96.82114258 17.64203156 95.66650391 17.62062073 C92.1110608 17.55559991 88.55554822 17.49646232 85 17.4375 C82.5794201 17.39426958 80.15884704 17.35065389 77.73828125 17.30664062 C71.8255928 17.19996761 65.91283631 17.09811589 60 17 C60.09155273 14.02148438 60.09155273 14.02148438 60.18310547 11.04296875 C60.12854994 8.70262665 60.12854994 8.70262665 58.125 6 C53.58233748 3.09269598 50.33216457 3.64452236 45 4 C43.68 7.96 42.36 11.92 41 16 C31.1 16 21.2 16 11 16 C9.515 11.545 9.515 11.545 8 7 C6.25213315 4.78625275 6.25213315 4.78625275 4 4 C1.93161504 4.0363856 1.93161504 4.0363856 0 5 C-1.14724066 7.17316366 -1.14724066 7.17316366 -1.75 9.8125 C-1.99234375 10.68519531 -2.2346875 11.55789062 -2.484375 12.45703125 C-3.1324807 15.2209178 -3.1324807 15.2209178 -3 19 C-3.66 19 -4.32 19 -5 19 C-6.45369052 16.09261897 -6.29639413 14.26033542 -6 11 C-4.54756856 6.904281 -3.09642272 3.09642272 0 0 Z " fill="#151515" transform="translate(636,155)"/>
<path d="M0 0 C4.60318234 0 6.47731945 0.51140732 9.875 3.6875 C12 7 12 7 13 13 C21.58 12.67 30.16 12.34 39 12 C39.99 9.36 40.98 6.72 42 4 C42.99 4 43.98 4 45 4 C43.68 7.96 42.36 11.92 41 16 C31.1 16 21.2 16 11 16 C9.515 11.545 9.515 11.545 8 7 C6.25213315 4.78625275 6.25213315 4.78625275 4 4 C1.93161504 4.0363856 1.93161504 4.0363856 0 5 C-1.14724066 7.17316366 -1.14724066 7.17316366 -1.75 9.8125 C-1.99234375 10.68519531 -2.2346875 11.55789062 -2.484375 12.45703125 C-3.1324807 15.2209178 -3.1324807 15.2209178 -3 19 C-3.66 19 -4.32 19 -5 19 C-6.45369052 16.09261897 -6.29639413 14.26033542 -6 11 C-4.54756856 6.904281 -3.09642272 3.09642272 0 0 Z " fill="#0F0F0F" transform="translate(636,155)"/>
<path d="M0 0 C0 0.99 0 1.98 0 3 C-1.24716797 3.16435547 -1.24716797 3.16435547 -2.51953125 3.33203125 C-3.60621094 3.49058594 -4.69289063 3.64914063 -5.8125 3.8125 C-6.89144531 3.96332031 -7.97039063 4.11414063 -9.08203125 4.26953125 C-12.09998784 5.02503042 -13.15496198 5.56651132 -15 8 C-16.36952673 10.73905345 -16.12621361 12.97087332 -16 16 C-14.71276828 18.57446343 -13.64012957 18.93916068 -11 20 C-8.8784414 20.27178081 -8.8784414 20.27178081 -6.671875 20.1953125 C-5.87265625 20.18886719 -5.0734375 20.18242187 -4.25 20.17578125 C-3.425 20.15902344 -2.6 20.14226562 -1.75 20.125 C-0.48929688 20.11146484 -0.48929688 20.11146484 0.796875 20.09765625 C2.86470604 20.07415817 4.93238995 20.03828908 7 20 C7 20.99 7 21.98 7 23 C-0.77330715 25.24683004 -9.78979377 24.85072553 -17 21 C-19.71829356 16.92255966 -19.37873269 13.77203186 -19 9 C-18.2094482 5.04724102 -17.23976045 4.18481535 -14 1.6875 C-9.49762064 -0.68267433 -4.95895843 -0.35920021 0 0 Z " fill="#0D0D0D" transform="translate(648,192)"/>
<path d="M0 0 C-1.82960928 3.65921857 -6.28647024 4.70272388 -10 6 C-13.26033542 6.29639413 -15.09261897 6.45369052 -18 5 C-19.53668865 4.77532169 -21.07968054 4.59203195 -22.625 4.4375 C-23.44226563 4.35371094 -24.25953125 4.26992187 -25.1015625 4.18359375 C-25.72804688 4.12300781 -26.35453125 4.06242188 -27 4 C-26.015625 2.54296875 -26.015625 2.54296875 -24 1 C-21.18686612 0.61771728 -18.57177583 0.3969121 -15.75 0.3125 C-15.01136719 0.27833984 -14.27273438 0.24417969 -13.51171875 0.20898438 C-9.00584992 0.01428634 -4.50952881 -0.02982493 0 0 Z " fill="#D7D7D7" transform="translate(773,247)"/>
<path d="M0 0 C2.85423192 -0.02718316 5.70820015 -0.04692705 8.5625 -0.0625 C9.36236328 -0.07087891 10.16222656 -0.07925781 10.98632812 -0.08789062 C15.77163104 -0.10742247 20.28145051 0.19562982 25 1 C25 1.99 25 2.98 25 4 C24.06994141 3.89171875 24.06994141 3.89171875 23.12109375 3.78125 C15.05200562 2.93558138 7.10374993 2.90157389 -1 3 C-0.67 2.01 -0.34 1.02 0 0 Z " fill="#181818" transform="translate(634,228)"/>
<path d="M0 0 C0.32613281 0.81984375 0.65226563 1.6396875 0.98828125 2.484375 C1.64376953 4.10085937 1.64376953 4.10085937 2.3125 5.75 C2.74175781 6.81734375 3.17101562 7.8846875 3.61328125 8.984375 C4.84389045 11.98660211 4.84389045 11.98660211 6.73046875 14.140625 C8 16 8 16 7.6875 18.25 C7.460625 18.8275 7.23375 19.405 7 20 C-1 8 -1 8 -1 5 C-3.64 5.66 -6.28 6.32 -9 7 C-7.4576387 2.93377477 -4.5679954 0 0 0 Z " fill="#080808" transform="translate(792,250)"/>
<path d="M0 0 C-0.33 0.99 -0.66 1.98 -1 3 C-3.2578125 3.87890625 -3.2578125 3.87890625 -6.125 4.5625 C-7.11371094 4.80742187 -8.10242188 5.05234375 -9.12109375 5.3046875 C-10.07113281 5.53414063 -11.02117188 5.76359375 -12 6 C-13.39825062 6.38720786 -14.79462914 6.78136517 -16.1875 7.1875 C-17.115625 7.455625 -18.04375 7.72375 -19 8 C-18.85546875 6.140625 -18.85546875 6.140625 -18 4 C-15.48828125 2.734375 -15.48828125 2.734375 -12.3125 1.75 C-11.27738281 1.41484375 -10.24226562 1.0796875 -9.17578125 0.734375 C-5.99908308 -0.00021203 -3.24736123 -0.13632101 0 0 Z " fill="#242424" transform="translate(784,254)"/>
<path d="M0 0 C5.61 0 11.22 0 17 0 C16.67 0.99 16.34 1.98 16 3 C10.39 3 4.78 3 -1 3 C-0.67 2.01 -0.34 1.02 0 0 Z " fill="#1E1E1E" transform="translate(749,245)"/>
<path d="M0 0 C0.79921875 0.00902344 1.5984375 0.01804688 2.421875 0.02734375 C3.02515625 0.03894531 3.6284375 0.05054688 4.25 0.0625 C4.25 1.0525 4.25 2.0425 4.25 3.0625 C-0.37 3.7225 -4.99 4.3825 -9.75 5.0625 C-9.42 3.7425 -9.09 2.4225 -8.75 1.0625 C-5.75519083 0.1901588 -3.11424089 -0.04579766 0 0 Z " fill="#262626" transform="translate(795.75,168.9375)"/>
<path d="M0 0 C5.875 0.875 5.875 0.875 7 2 C8.68183948 2.23287008 10.3712416 2.41264166 12.0625 2.5625 C13.44115234 2.68818359 13.44115234 2.68818359 14.84765625 2.81640625 C15.91306641 2.90728516 15.91306641 2.90728516 17 3 C17 3.99 17 4.98 17 6 C10.67721029 5.67373505 5.44535609 5.38495108 0 2 C0 1.34 0 0.68 0 0 Z " fill="#181818" transform="translate(677,244)"/>
<path d="M0 0 C0.66 0 1.32 0 2 0 C2 1.65 2 3.3 2 5 C2.99 5 3.98 5 5 5 C5.33 3.68 5.66 2.36 6 1 C6.66 1 7.32 1 8 1 C7.25 6.75 7.25 6.75 5 9 C2.9375 8.75 2.9375 8.75 1 8 C-0.35439668 5.29120665 -0.06501451 2.99066732 0 0 Z " fill="#040404" transform="translate(740,216)"/>
<path d="M0 0 C0.91007813 0.00902344 1.82015625 0.01804688 2.7578125 0.02734375 C3.45648437 0.03894531 4.15515625 0.05054688 4.875 0.0625 C4.875 1.0525 4.875 2.0425 4.875 3.0625 C0.585 3.7225 -3.705 4.3825 -8.125 5.0625 C-7.795 3.7425 -7.465 2.4225 -7.125 1.0625 C-4.60024538 -0.19987731 -2.81299534 -0.03606404 0 0 Z " fill="#1A1A1A" transform="translate(643.125,191.9375)"/>
<path d="M0 0 C0.66 0 1.32 0 2 0 C1.25 4.75 1.25 4.75 -1 7 C-3.5625 7.1875 -3.5625 7.1875 -6 7 C-7 6 -7 6 -7.0625 3.4375 C-7.041875 2.633125 -7.02125 1.82875 -7 1 C-6.34 1 -5.68 1 -5 1 C-5 1.99 -5 2.98 -5 4 C-1.87802522 2.6910428 -1.87802522 2.6910428 0 0 Z " fill="#090909" transform="translate(730,179)"/>
<path d="M0 0 C0.66 0 1.32 0 2 0 C2 0.99 2 1.98 2 3 C2.66 3 3.32 3 4 3 C4 2.01 4 1.02 4 0 C4.66 0 5.32 0 6 0 C5.67 2.31 5.34 4.62 5 7 C3.35 6.67 1.7 6.34 0 6 C0 4.02 0 2.04 0 0 Z " fill="#090909" transform="translate(657,237)"/>
<path d="M0 0 C1.85772162 0.08984301 3.71247985 0.24611861 5.5625 0.4375 C7.08037109 0.59025391 7.08037109 0.59025391 8.62890625 0.74609375 C9.80259766 0.87177734 9.80259766 0.87177734 11 1 C11 1.99 11 2.98 11 4 C2.42857143 3.14285714 2.42857143 3.14285714 -1 1 C-0.67 0.67 -0.34 0.34 0 0 Z " fill="#0A0A0A" transform="translate(648,228)"/>
<path d="M0 0 C0 0.99 0 1.98 0 3 C-2.97 3.66 -5.94 4.32 -9 5 C-8.67 3.68 -8.34 2.36 -8 1 C-5.29120665 -0.35439668 -2.99066732 -0.06501451 0 0 Z " fill="#181818" transform="translate(630,173)"/>
<path d="M0 0 C0.66 0.33 1.32 0.66 2 1 C1 4 1 4 -0.84765625 4.94921875 C-1.57855469 5.19285156 -2.30945313 5.43648437 -3.0625 5.6875 C-4.16271484 6.06455078 -4.16271484 6.06455078 -5.28515625 6.44921875 C-5.85105469 6.63097656 -6.41695312 6.81273437 -7 7 C-6.68359375 5.11328125 -6.68359375 5.11328125 -6 3 C-3.0625 1.1875 -3.0625 1.1875 0 0 Z " fill="#1F1F1F" transform="translate(769,249)"/>
<path d="M0 0 C1.65 0 3.3 0 5 0 C4.67 1.32 4.34 2.64 4 4 C2.68 4 1.36 4 0 4 C0 2.68 0 1.36 0 0 Z " fill="#080808" transform="translate(624,189)"/>
<path d="M0 0 C1.98 0 3.96 0 6 0 C5.67 0.99 5.34 1.98 5 3 C3.02 3 1.04 3 -1 3 C-0.67 2.01 -0.34 1.02 0 0 Z " fill="#1B1B1B" transform="translate(778,254)"/>
<path d="M0 0 C1.32 0 2.64 0 4 0 C4 1.32 4 2.64 4 4 C2.35 3.67 0.7 3.34 -1 3 C-0.67 2.01 -0.34 1.02 0 0 Z " fill="#121212" transform="translate(669,188)"/>
</svg>
