<?xml version="1.0" encoding="UTF-8"?>
<svg version="1.1" xmlns="http://www.w3.org/2000/svg" width="800" height="300">
<path d="M0 0 C264 0 528 0 800 0 C800 99 800 198 800 300 C536 300 272 300 0 300 C0 201 0 102 0 0 Z " fill="#FEFEFE" transform="translate(0,0)"/>
<path d="M0 0 C8.08108108 1.05405405 8.08108108 1.05405405 11.125 4.1875 C13 7 13 7 14 13 C26.375 12.505 26.375 12.505 39 12 C39.99 9.03 40.98 6.06 42 3 C42.66 2.01 43.32 1.02 44 0 C49.45473727 -0.99327538 55.34155698 -0.98016153 60.1875 1.9375 C62.91844323 4.3502008 63.40527679 6.09663011 63.67578125 9.69140625 C63.74321533 10.49908447 63.81064941 11.3067627 63.88012695 12.13891602 C63.91968506 12.75307373 63.95924316 13.36723145 64 14 C64.75804932 13.99476318 65.51609863 13.98952637 66.29711914 13.98413086 C91.72609359 13.8326652 91.72609359 13.8326652 104 14.5 C114.56212326 15.05800264 125.11348537 15.11382562 135.6875 15.125 C136.93213013 15.12874634 136.93213013 15.12874634 138.2019043 15.13256836 C140.57605174 15.13845837 142.95006987 15.13697169 145.32421875 15.1328125 C146.03986496 15.13479645 146.75551117 15.1367804 147.49284363 15.13882446 C150.91063099 15.12288158 153.65053608 14.83736598 157 14 C161.95 14 166.9 14 172 14 C172 51.95 172 89.9 172 129 C165.92458842 127.78491768 165.92458842 127.78491768 164 125 C163.8828125 122.94921875 163.8828125 122.94921875 164.125 120.6875 C164.2613242 116.84563614 164.16365112 116.22274736 161.75 112.9375 C161.07130859 112.24720703 161.07130859 112.24720703 160.37890625 111.54296875 C157.6904544 108.53464444 155 104.10584675 155 100 C153.60396057 100.41597563 152.20818801 100.83284683 150.8125 101.25 C149.90886719 101.51941406 149.00523437 101.78882813 148.07421875 102.06640625 C145.90529223 102.72507644 143.7416399 103.4012371 141.58203125 104.08984375 C140.44121094 104.45207031 139.30039062 104.81429687 138.125 105.1875 C137.05507813 105.53167969 135.98515625 105.87585938 134.8828125 106.23046875 C132 107 132 107 128 107 C127.6596875 108.0828125 127.6596875 108.0828125 127.3125 109.1875 C125.66099387 112.7264417 124.11841749 114.62729104 121 117 C117.98395537 117.69554906 116.18311337 117.45473048 113 117 C109.21269327 114.40868487 107.91988299 111.43216352 107 107 C107.12328767 98.87671233 107.12328767 98.87671233 110 96 C114.13997567 95.8028583 117.07703567 95.69234522 121 97 C126.33295432 97.343491 126.33295432 97.343491 131 95 C131.99 95 132.98 95 134 95 C134 94.34 134 93.68 134 93 C105.785 93.99 105.785 93.99 77 95 C77 97.64 77 100.28 77 103 C76 106.5 76 106.5 75 109 C74.34 109 73.68 109 73 109 C72.505 110.485 72.505 110.485 72 112 C70.4375 113.75 70.4375 113.75 68 115 C65.08331466 115.10396106 62.9102666 114.65715697 60 114 C57.70986347 110.5647952 57.82157027 109.014669 58 105 C56.72125 104.896875 55.4425 104.79375 54.125 104.6875 C49.67942162 104.20595383 45.68677855 103.06119265 41.44140625 101.69921875 C37.97026599 100.70508418 34.59051076 100.3324547 31 100 C32.42673359 102.88634122 33.90494836 105.54445319 36 108 C39.55652459 108.90137027 39.55652459 108.90137027 43 109 C44.875 110.0625 44.875 110.0625 46 112 C47.73178156 118.60241719 47.73178156 118.60241719 46.046875 121.8203125 C43.89451172 124.50428358 42.27955927 125.90681358 39 127 C33.53551206 127.42034523 29.83229849 126.60200688 25 124 C22.96341136 121.8476961 22.01530907 120.73866273 21.953125 117.73828125 C22.05109375 116.93777344 22.1490625 116.13726562 22.25 115.3125 C22.45680345 109.69571838 20.35288202 107.154255 16.75390625 103.0390625 C13.89771402 99.71850048 12.37121074 96.11363222 11 92 C10.41621582 91.94054199 9.83243164 91.88108398 9.23095703 91.81982422 C-14.55383368 89.26994438 -14.55383368 89.26994438 -22.875 80.0625 C-31.57041603 67.53087101 -32.76240964 54.29873575 -30.4296875 39.34375 C-28.25664412 30.10259708 -24.91691858 25.16863915 -17 20 C-12.94214581 17.82261483 -9.57260058 17.82068233 -5 18 C-5.268125 17.05125 -5.53625 16.1025 -5.8125 15.125 C-6.63552328 9.76986185 -3.67819186 5.45228073 -1 1 C-0.67 0.67 -0.34 0.34 0 0 Z " fill="#FDFDFD" transform="translate(628,155)"/>
<path d="M0 0 C8.08108108 1.05405405 8.08108108 1.05405405 11.125 4.1875 C13 7 13 7 14 13 C26.375 12.505 26.375 12.505 39 12 C39.99 9.03 40.98 6.06 42 3 C42.66 2.01 43.32 1.02 44 0 C49.45473727 -0.99327538 55.34155698 -0.98016153 60.1875 1.9375 C62.91844323 4.3502008 63.40527679 6.09663011 63.67578125 9.69140625 C63.74321533 10.49908447 63.81064941 11.3067627 63.88012695 12.13891602 C63.91968506 12.75307373 63.95924316 13.36723145 64 14 C64.75804932 13.99476318 65.51609863 13.98952637 66.29711914 13.98413086 C91.72609359 13.8326652 91.72609359 13.8326652 104 14.5 C114.56212326 15.05800264 125.11348537 15.11382562 135.6875 15.125 C136.93213013 15.12874634 136.93213013 15.12874634 138.2019043 15.13256836 C140.57605174 15.13845837 142.95006987 15.13697169 145.32421875 15.1328125 C146.03986496 15.13479645 146.75551117 15.1367804 147.49284363 15.13882446 C150.83189769 15.12324885 153.79129609 14.91287111 157 14 C159.59373914 13.93101758 162.15810197 13.90565248 164.75 13.9375 C165.44738281 13.94201172 166.14476562 13.94652344 166.86328125 13.95117188 C168.57555803 13.9628998 170.28779033 13.98083347 172 14 C172 14.99 172 15.98 172 17 C159.7472214 18.52988986 147.59550129 19.20111115 135.25 19.1875 C133.99759521 19.18814453 132.74519043 19.18878906 131.45483398 19.18945312 C124.23238387 19.14809335 117.05297031 18.85300451 109.84773254 18.38702393 C100.05457473 17.77922238 90.24569606 17.63921309 80.4375 17.4375 C78.44335313 17.39416662 76.44921243 17.35054847 74.45507812 17.30664062 C69.63678329 17.20115552 64.81842232 17.09948412 60 17 C60 13.37 60 9.74 60 6 C56.01774657 4.40709863 53.76460539 3.70116843 49.6875 3.375 C48.80449219 3.30023438 47.92148437 3.22546875 47.01171875 3.1484375 C46.34785156 3.09945312 45.68398438 3.05046875 45 3 C44.79503906 3.85464844 44.59007812 4.70929688 44.37890625 5.58984375 C44.10949219 6.69457031 43.84007812 7.79929688 43.5625 8.9375 C43.29566406 10.03964844 43.02882813 11.14179688 42.75390625 12.27734375 C42 15 42 15 41 16 C38.85441173 16.08775605 36.70595579 16.10695219 34.55859375 16.09765625 C33.25341797 16.09443359 31.94824219 16.09121094 30.60351562 16.08789062 C29.2148431 16.07953401 27.82617123 16.07106905 26.4375 16.0625 C25.04492344 16.05748666 23.65234519 16.05292347 22.25976562 16.04882812 C18.8398013 16.03699434 15.41992156 16.0205088 12 16 C11.74605469 15.38511719 11.49210938 14.77023438 11.23046875 14.13671875 C10.88628906 13.32847656 10.54210937 12.52023438 10.1875 11.6875 C9.85105469 10.88699219 9.51460937 10.08648437 9.16796875 9.26171875 C8.00272285 7.00527267 6.94130319 5.61775266 5 4 C2.89667109 3.28552357 2.89667109 3.28552357 1 3 C-1.10575375 8.52760359 -2.37851209 13.06997733 -2 19 C-2.94359375 19.36351562 -2.94359375 19.36351562 -3.90625 19.734375 C-15.56341644 23.70913906 -15.56341644 23.70913906 -24 32 C-28.54605431 42.74521927 -29.07512235 57.8699483 -25.046875 68.890625 C-21.10061292 76.8420486 -15.70911305 82.24423838 -7.31787109 85.31567383 C-3.27718928 86.50864108 0.81524298 86.8371632 5 87.1875 C5.87011719 87.26935547 6.74023438 87.35121094 7.63671875 87.43554688 C9.75691206 87.63358691 11.87835199 87.81820556 14 88 C14.27070312 88.88429688 14.54140625 89.76859375 14.8203125 90.6796875 C15.92029176 93.77565562 17.17934509 96.32233722 18.875 99.125 C19.36742187 99.95257813 19.85984375 100.78015625 20.3671875 101.6328125 C21.94214408 104.0716226 21.94214408 104.0716226 24.1171875 106.1015625 C26.49624527 108.50036349 27.12166281 110.7794303 28 114 C27.01 114.495 27.01 114.495 26 115 C26 116.65 26 118.3 26 120 C30.79196188 122.92192797 33.5442279 123.23526915 39 122 C39.99 121.67 40.98 121.34 42 121 C42.84454356 117.62182575 43.10844919 115.32534757 42 112 C40.824375 112.226875 39.64875 112.45375 38.4375 112.6875 C36.234375 112.71875 36.234375 112.71875 34 112 C31.78602476 109.38506861 30.19337057 106.69816742 28.54296875 103.69921875 C27.17267508 101.02749535 27.17267508 101.02749535 25.34375 99.34375 C23.24121248 97.24121248 23.31794201 94.86147811 23 92 C23.99 92.495 23.99 92.495 25 93 C25 93.66 25 94.32 25 95 C28.8705549 96.04744398 32.80843796 96.72105912 36.75 97.4375 C42.22538889 98.44746366 47.6157573 99.58309403 53 101 C55.99576119 101.68623282 58.99693142 102.34655452 62 103 C61.67 105.64 61.34 108.28 61 111 C67.36449114 110.31585953 67.36449114 110.31585953 72.0625 106.375 C73.18370599 102.33865845 73.21590947 99.17424975 73 95 C69.34920174 93.38935371 65.9492568 92.55105909 62 92 C61.505 93.485 61.505 93.485 61 95 C53.59307217 95.35271085 47.66226048 94.33113024 41 91 C41 90.34 41 89.68 41 89 C41.68449219 89.14308594 42.36898437 89.28617187 43.07421875 89.43359375 C46.31053736 90.06011738 49.55335919 90.56869079 52.8125 91.0625 C53.97394531 91.23910156 55.13539063 91.41570312 56.33203125 91.59765625 C57.21246094 91.73042969 58.09289062 91.86320312 59 92 C59 91.34 59 90.68 59 90 C61.98997825 88.50501087 64.70042775 88.88422554 68 89 C69.485 89.495 69.485 89.495 71 90 C73.68234468 90.0861117 76.33784933 90.11561487 79.01977539 90.09765625 C80.24456352 90.09546585 80.24456352 90.09546585 81.49409485 90.0932312 C83.26690843 90.08942563 85.03971821 90.0833095 86.81251717 90.07516479 C89.61512639 90.06242056 92.4176884 90.05589073 95.22032166 90.05102539 C101.1677356 90.03958793 107.11511071 90.02034032 113.0625 90 C119.95625465 89.97643824 126.84998714 89.95603683 133.74377251 89.94406128 C136.51028772 89.93755845 139.27673542 89.92505112 142.04322815 89.91235352 C143.73202454 89.90872238 145.42082156 89.90537047 147.10961914 89.90234375 C147.88317749 89.89717743 148.65673584 89.89201111 149.45373535 89.88668823 C154.77231312 89.88615656 154.77231312 89.88615656 157 91 C157 91.66 157 92.32 157 93 C155.93523437 93.06316406 154.87046875 93.12632812 153.7734375 93.19140625 C144.26723215 93.93332177 137.21702486 95.74130073 128.953125 100.5390625 C125.90888612 102.04507486 124.33027005 102.48708031 121 102 C120.01 101.34 119.02 100.68 118 100 C115.67612053 99.60612212 113.34206251 99.26513915 111 99 C110.65384002 104.65394631 111.56574762 108.03006806 114 113 C118.07922002 113.36223443 118.07922002 113.36223443 121.75 111.875 C123.40483154 109.39275268 124.17581408 106.85295126 125 104 C125.64066406 103.89042969 126.28132812 103.78085937 126.94140625 103.66796875 C131.00030159 102.92393875 134.5868191 102.18363596 138.375 100.5 C143.43970882 98.40425842 148.59412154 97.75451506 154 97 C154 96.34 154 95.68 154 95 C154.99 95 155.98 95 157 95 C157.20625 95.763125 157.4125 96.52625 157.625 97.3125 C159.83533203 103.24020862 162.540023 109.69648797 167.2109375 114.0703125 C169 116 169 116 169.171875 118.140625 C168.78125 120.09375 168.390625 122.046875 168 124 C169.32 124.66 170.64 125.32 172 126 C172 126.99 172 127.98 172 129 C168.31194771 128.50161455 166.29602626 127.99363895 164 125 C163.8828125 122.94921875 163.8828125 122.94921875 164.125 120.6875 C164.2613242 116.84563614 164.16365112 116.22274736 161.75 112.9375 C161.07130859 112.24720703 161.07130859 112.24720703 160.37890625 111.54296875 C157.6904544 108.53464444 155 104.10584675 155 100 C153.60396057 100.41597563 152.20818801 100.83284683 150.8125 101.25 C149.90886719 101.51941406 149.00523437 101.78882813 148.07421875 102.06640625 C145.90529223 102.72507644 143.7416399 103.4012371 141.58203125 104.08984375 C140.44121094 104.45207031 139.30039062 104.81429687 138.125 105.1875 C137.05507813 105.53167969 135.98515625 105.87585938 134.8828125 106.23046875 C132 107 132 107 128 107 C127.6596875 108.0828125 127.6596875 108.0828125 127.3125 109.1875 C125.66099387 112.7264417 124.11841749 114.62729104 121 117 C117.98395537 117.69554906 116.18311337 117.45473048 113 117 C109.21269327 114.40868487 107.91988299 111.43216352 107 107 C107.12328767 98.87671233 107.12328767 98.87671233 110 96 C114.13997567 95.8028583 117.07703567 95.69234522 121 97 C126.33295432 97.343491 126.33295432 97.343491 131 95 C131.99 95 132.98 95 134 95 C134 94.34 134 93.68 134 93 C105.785 93.99 105.785 93.99 77 95 C77 97.64 77 100.28 77 103 C76 106.5 76 106.5 75 109 C74.34 109 73.68 109 73 109 C72.505 110.485 72.505 110.485 72 112 C70.4375 113.75 70.4375 113.75 68 115 C65.08331466 115.10396106 62.9102666 114.65715697 60 114 C57.70986347 110.5647952 57.82157027 109.014669 58 105 C56.72125 104.896875 55.4425 104.79375 54.125 104.6875 C49.67942162 104.20595383 45.68677855 103.06119265 41.44140625 101.69921875 C37.97026599 100.70508418 34.59051076 100.3324547 31 100 C32.42673359 102.88634122 33.90494836 105.54445319 36 108 C39.55652459 108.90137027 39.55652459 108.90137027 43 109 C44.875 110.0625 44.875 110.0625 46 112 C47.73178156 118.60241719 47.73178156 118.60241719 46.046875 121.8203125 C43.89451172 124.50428358 42.27955927 125.90681358 39 127 C33.53551206 127.42034523 29.83229849 126.60200688 25 124 C22.96341136 121.8476961 22.01530907 120.73866273 21.953125 117.73828125 C22.05109375 116.93777344 22.1490625 116.13726562 22.25 115.3125 C22.45680345 109.69571838 20.35288202 107.154255 16.75390625 103.0390625 C13.89771402 99.71850048 12.37121074 96.11363222 11 92 C10.41621582 91.94054199 9.83243164 91.88108398 9.23095703 91.81982422 C-14.55383368 89.26994438 -14.55383368 89.26994438 -22.875 80.0625 C-31.57041603 67.53087101 -32.76240964 54.29873575 -30.4296875 39.34375 C-28.25664412 30.10259708 -24.91691858 25.16863915 -17 20 C-12.94214581 17.82261483 -9.57260058 17.82068233 -5 18 C-5.268125 17.05125 -5.53625 16.1025 -5.8125 15.125 C-6.63552328 9.76986185 -3.67819186 5.45228073 -1 1 C-0.67 0.67 -0.34 0.34 0 0 Z " fill="#1B1B1B" transform="translate(628,155)"/>
<path d="M0 0 C2.64 0 5.28 0 8 0 C7.01 1.485 7.01 1.485 6 3 C6.33 3.66 6.66 4.32 7 5 C5.39125 5.680625 5.39125 5.680625 3.75 6.375 C1.71546456 7.23702205 -0.19370454 8.10824666 -2.125 9.1875 C-4.56895621 10.24654769 -6.36195918 10.27056829 -9 10 C-9.99 9.34 -10.98 8.68 -12 8 C-14.32387947 7.60612212 -16.65793749 7.26513915 -19 7 C-19.34615998 12.65394631 -18.43425238 16.03006806 -16 21 C-11.92077998 21.36223443 -11.92077998 21.36223443 -8.25 19.875 C-6.59516846 17.39275268 -5.82418592 14.85295126 -5 12 C-4.35933594 11.89042969 -3.71867188 11.78085937 -3.05859375 11.66796875 C1.00030159 10.92393875 4.5868191 10.18363596 8.375 8.5 C13.43970882 6.40425842 18.59412154 5.75451506 24 5 C24 4.34 24 3.68 24 3 C24.99 3 25.98 3 27 3 C27.20625 3.763125 27.4125 4.52625 27.625 5.3125 C29.83533203 11.24020862 32.540023 17.69648797 37.2109375 22.0703125 C39 24 39 24 39.171875 26.140625 C38.78125 28.09375 38.390625 30.046875 38 32 C39.32 32.66 40.64 33.32 42 34 C42 34.99 42 35.98 42 37 C38.31194771 36.50161455 36.29602626 35.99363895 34 33 C33.8828125 30.94921875 33.8828125 30.94921875 34.125 28.6875 C34.2613242 24.84563614 34.16365112 24.22274736 31.75 20.9375 C31.29753906 20.47730469 30.84507812 20.01710938 30.37890625 19.54296875 C27.6904544 16.53464444 25 12.10584675 25 8 C23.60396057 8.41597563 22.20818801 8.83284683 20.8125 9.25 C19.90886719 9.51941406 19.00523437 9.78882813 18.07421875 10.06640625 C15.90529223 10.72507644 13.7416399 11.4012371 11.58203125 12.08984375 C10.44121094 12.45207031 9.30039062 12.81429688 8.125 13.1875 C7.05507813 13.53167969 5.98515625 13.87585938 4.8828125 14.23046875 C2 15 2 15 -2 15 C-2.226875 15.721875 -2.45375 16.44375 -2.6875 17.1875 C-4.33900613 20.7264417 -5.88158251 22.62729104 -9 25 C-12.01604463 25.69554906 -13.81688663 25.45473048 -17 25 C-20.78730673 22.40868487 -22.08011701 19.43216352 -23 15 C-22.87671233 6.87671233 -22.87671233 6.87671233 -20 4 C-15.86002433 3.8028583 -12.92296433 3.69234522 -9 5 C-3.66704568 5.343491 -3.66704568 5.343491 1 3 C1.99 3 2.98 3 4 3 C4 2.34 4 1.68 4 1 C2.68 0.67 1.36 0.34 0 0 Z " fill="#1D1D1D" transform="translate(758,247)"/>
<path d="M0 0 C1.46373047 0.02707031 1.46373047 0.02707031 2.95703125 0.0546875 C3.69308594 0.07789063 4.42914062 0.10109375 5.1875 0.125 C5.1875 1.115 5.1875 2.105 5.1875 3.125 C-2.2375 4.61 -2.2375 4.61 -9.8125 6.125 C-10.98914871 9.65494613 -11.01100603 12.41955413 -10.8125 16.125 C-9.09023504 19.37349977 -9.09023504 19.37349977 -5.8125 20.125 C-4.40425107 20.20521999 -2.99252769 20.23265977 -1.58203125 20.22265625 C-0.77958984 20.21943359 0.02285156 20.21621094 0.84960938 20.21289062 C1.68298828 20.20451172 2.51636719 20.19613281 3.375 20.1875 C4.6424707 20.18073242 4.6424707 20.18073242 5.93554688 20.17382812 C8.01956155 20.16205403 10.10353977 20.1441189 12.1875 20.125 C12.1875 21.115 12.1875 22.105 12.1875 23.125 C4.71445502 25.61601499 -3.77360078 24.64513349 -11.10546875 22.07421875 C-12.8125 21.125 -12.8125 21.125 -14.8125 18.125 C-15.43739744 13.21771716 -15.21286451 8.52566827 -12.8125 4.125 C-9.04213149 0.35463149 -5.18226941 -0.12487396 0 0 Z " fill="#1C1C1C" transform="translate(635.8125,191.875)"/>
<path d="M0 0 C0.69738281 0.00451172 1.39476562 0.00902344 2.11328125 0.01367188 C3.82555803 0.0253998 5.53779033 0.04333347 7.25 0.0625 C7.25 1.0525 7.25 2.0425 7.25 3.0625 C-5.16515424 4.61266419 -17.49604273 5.27979486 -30 5.3125 C-31.97915405 5.32603516 -31.97915405 5.32603516 -33.99829102 5.33984375 C-40.90302241 5.31871625 -47.08510472 4.89607381 -53.75 3.0625 C-53.42 2.4025 -53.09 1.7425 -52.75 1.0625 C-51.52893555 1.06773682 -50.30787109 1.07297363 -49.04980469 1.07836914 C-44.51742283 1.09647584 -39.98504416 1.10795279 -35.45263672 1.11743164 C-33.49136823 1.12245887 -31.53010348 1.12928157 -29.56884766 1.13793945 C-26.74901403 1.15007545 -23.92922998 1.15574444 -21.109375 1.16015625 C-20.23319519 1.16531754 -19.35701538 1.17047882 -18.45428467 1.17579651 C-17.63373596 1.17587204 -16.81318726 1.17594757 -15.96777344 1.17602539 C-15.24829529 1.178246 -14.52881714 1.18046661 -13.78753662 1.18275452 C-9.12546373 0.90760102 -4.76623263 -0.0585643 0 0 Z " fill="#111111" transform="translate(792.75,168.9375)"/>
<path d="M0 0 C0.71640656 -0.00095673 1.43281311 -0.00191345 2.17092896 -0.00289917 C3.66831552 -0.00357379 5.16570514 -0.00177018 6.66308594 0.00244141 C8.96035208 0.00784789 11.25742695 0.00244787 13.5546875 -0.00390625 C15.01562543 -0.00324627 16.47656324 -0.00196677 17.9375 0 C18.62391571 -0.00202423 19.31033142 -0.00404846 20.01754761 -0.00613403 C24.84032196 0.01781723 24.84032196 0.01781723 27.0703125 1.1328125 C27.0703125 1.7928125 27.0703125 2.4528125 27.0703125 3.1328125 C25.31654297 3.33197266 25.31654297 3.33197266 23.52734375 3.53515625 C21.97915411 3.71343263 20.43097772 3.89182411 18.8828125 4.0703125 C18.11388672 4.15732422 17.34496094 4.24433594 16.55273438 4.33398438 C12.68258422 4.78245671 8.87844626 5.2857126 5.0703125 6.1328125 C5.7303125 5.1428125 6.3903125 4.1528125 7.0703125 3.1328125 C-0.8496875 3.1328125 -8.7696875 3.1328125 -16.9296875 3.1328125 C-16.5996875 2.4728125 -16.2696875 1.8128125 -15.9296875 1.1328125 C-10.61569807 0.21404882 -5.38979023 -0.01618072 0 0 Z " fill="#101010" transform="translate(757.9296875,244.8671875)"/>
<path d="M0 0 C2.64 0 5.28 0 8 0 C7.01 1.485 7.01 1.485 6 3 C6.33 3.66 6.66 4.32 7 5 C5.39125 5.680625 5.39125 5.680625 3.75 6.375 C1.71546456 7.23702205 -0.19370454 8.10824666 -2.125 9.1875 C-4.56895621 10.24654769 -6.36195918 10.27056829 -9 10 C-9.99 9.34 -10.98 8.68 -12 8 C-14.32387947 7.60612212 -16.65793749 7.26513915 -19 7 C-19 8.65 -19 10.3 -19 12 C-19.99 11.34 -20.98 10.68 -22 10 C-21.125 5.125 -21.125 5.125 -20 4 C-12.70588235 3.76470588 -12.70588235 3.76470588 -9 5 C-3.66704568 5.343491 -3.66704568 5.343491 1 3 C1.99 3 2.98 3 4 3 C4 2.34 4 1.68 4 1 C2.68 0.67 1.36 0.34 0 0 Z " fill="#2A2A2A" transform="translate(758,247)"/>
<path d="M0 0 C0.185625 0.5775 0.37125 1.155 0.5625 1.75 C2.64765335 5.01371828 5.41315942 6.72981098 9 8 C12.67592612 7.81620369 15.5238878 7.15870407 19 6 C20.22520264 2.99152582 20.22520264 2.99152582 21 0 C21.66 0 22.32 0 23 0 C23.8125 2.125 23.8125 2.125 24 5 C20.1 10.63333333 20.1 10.63333333 16 12 C10.35750389 12.43403816 6.93272891 11.51472454 2 9 C0 7 0 7 -0.125 3.375 C-0.08375 2.26125 -0.0425 1.1475 0 0 Z " fill="#181818" transform="translate(651,270)"/>
<path d="M0 0 C0.33 0 0.66 0 1 0 C1.20625 0.78375 1.4125 1.5675 1.625 2.375 C3.79690622 8.10093457 6.74170776 13.75837412 11.1171875 18.1015625 C13.49624527 20.50036349 14.12166281 22.7794303 15 26 C14.34 26.33 13.68 26.66 13 27 C12.67 27.66 12.34 28.32 12 29 C11 31 11 31 9 32 C9.12181641 31.07380859 9.12181641 31.07380859 9.24609375 30.12890625 C9.65467848 24.65053551 9.19955376 21.58104108 5.6875 17.25 C4.46054814 15.83141469 3.23159344 14.41455743 2 13 C-0.47294647 9.13602113 -1.05923946 7.73456931 -0.6875 3.125 C-0.460625 2.09375 -0.23375 1.0625 0 0 Z " fill="#252525" transform="translate(641,243)"/>
<path d="M0 0 C0 6.6 0 13.2 0 20 C-4.64597917 14.19252604 -5.13456639 12.13201849 -5 5 C-5.66 5 -6.32 5 -7 5 C-7 3.68 -7 2.36 -7 1 C-2.25 0 -2.25 0 0 0 Z " fill="#686868" transform="translate(800,245)"/>
<path d="M0 0 C3.02089478 -0.02716089 6.04154129 -0.04691657 9.0625 -0.0625 C9.91005859 -0.07087891 10.75761719 -0.07925781 11.63085938 -0.08789062 C16.5361722 -0.10683006 21.16444755 0.16673655 26 1 C26 1.99 26 2.98 26 4 C17.09 3.67 8.18 3.34 -1 3 C-0.67 2.01 -0.34 1.02 0 0 Z " fill="#202020" transform="translate(626,228)"/>
<path d="M0 0 C2.15478516 -0.34057617 2.15478516 -0.34057617 4.7890625 -0.29296875 C5.73007812 -0.28330078 6.67109375 -0.27363281 7.640625 -0.26367188 C9.11789062 -0.2259668 9.11789062 -0.2259668 10.625 -0.1875 C12.11386719 -0.16719727 12.11386719 -0.16719727 13.6328125 -0.14648438 C16.08908072 -0.11105743 18.54427285 -0.06166196 21 0 C21 0.66 21 1.32 21 2 C13.17114574 6.58274396 6.41072793 4.89537531 -2 3 C-1.34 2.01 -0.68 1.02 0 0 Z " fill="#DCDCDC" transform="translate(741,248)"/>
<path d="M0 0 C2 1.75 2 1.75 4 4 C4 5.32 4 6.64 4 8 C0.66666667 9.33333333 -2.66666667 10.66666667 -6 12 C-6.87269531 12.39445313 -7.74539063 12.78890625 -8.64453125 13.1953125 C-11 14 -11 14 -14 13 C-11.77899091 9.49314354 -10.01512482 8.09503404 -6 7 C-3.6679198 6.92353835 -1.33154122 6.90856701 1 7 C0.67 4.69 0.34 2.38 0 0 Z " fill="#232323" transform="translate(622,166)"/>
<path d="M0 0 C1.46373047 0.02707031 1.46373047 0.02707031 2.95703125 0.0546875 C3.69308594 0.07789063 4.42914062 0.10109375 5.1875 0.125 C5.1875 1.115 5.1875 2.105 5.1875 3.125 C4.12789062 3.30675781 3.06828125 3.48851562 1.9765625 3.67578125 C0.58842035 3.9290234 -0.79959412 4.18296617 -2.1875 4.4375 C-3.23550781 4.61442383 -3.23550781 4.61442383 -4.3046875 4.79492188 C-6.16105026 5.14298989 -7.99048054 5.62752727 -9.8125 6.125 C-10.8025 7.61 -10.8025 7.61 -11.8125 9.125 C-12.4725 8.795 -13.1325 8.465 -13.8125 8.125 C-13.23905063 5.25775314 -12.9510485 4.2635485 -10.8125 2.125 C-7.0831766 0.28288171 -4.13515316 -0.09964224 0 0 Z " fill="#252525" transform="translate(635.8125,191.875)"/>
<path d="M0 0 C0.69738281 0.00451172 1.39476562 0.00902344 2.11328125 0.01367188 C3.82555803 0.0253998 5.53779033 0.04333347 7.25 0.0625 C7.25 1.0525 7.25 2.0425 7.25 3.0625 C-3.145 3.5575 -3.145 3.5575 -13.75 4.0625 C-11.75 1.0625 -11.75 1.0625 -10.109375 0.37890625 C-6.73895513 -0.07308714 -3.39237839 -0.04168329 0 0 Z " fill="#212121" transform="translate(792.75,168.9375)"/>
<path d="M0 0 C0.99 0 1.98 0 3 0 C3.33 1.65 3.66 3.3 4 5 C4.66 3.68 5.32 2.36 6 1 C6.99 1 7.98 1 9 1 C8.45276317 4.37462715 7.9451 6.08235 6 9 C4.35 8.67 2.7 8.34 1 8 C0.67 5.36 0.34 2.72 0 0 Z " fill="#222222" transform="translate(732,216)"/>
<path d="M0 0 C0.99 0.33 1.98 0.66 3 1 C3.33 7.93 3.66 14.86 4 22 C3.34 22 2.68 22 2 22 C1.67 22.66 1.34 23.32 1 24 C-0.06309567 18.82682579 -0.11693938 13.87630664 -0.0625 8.625 C-0.05798828 7.79355469 -0.05347656 6.96210938 -0.04882812 6.10546875 C-0.03713164 4.07028103 -0.01919935 2.03513077 0 0 Z " fill="#2E2E2E" transform="translate(597,198)"/>
<path d="M0 0 C0.99 0 1.98 0 3 0 C3 1.32 3 2.64 3 4 C2.34 4 1.68 4 1 4 C0.67 4.99 0.34 5.98 0 7 C-1.99954746 7.04254356 -4.00041636 7.04080783 -6 7 C-7 6 -7 6 -7.0625 3.4375 C-7.041875 2.633125 -7.02125 1.82875 -7 1 C-6.01 1 -5.02 1 -4 1 C-4 1.99 -4 2.98 -4 4 C-3.01 4 -2.02 4 -1 4 C-0.67 2.68 -0.34 1.36 0 0 Z " fill="#232323" transform="translate(722,179)"/>
<path d="M0 0 C-0.33 0.99 -0.66 1.98 -1 3 C-6.61 3 -12.22 3 -18 3 C-17.67 2.34 -17.34 1.68 -17 1 C-11.31648386 -0.0149136 -5.76082132 -0.12001711 0 0 Z " fill="#0A0A0A" transform="translate(759,245)"/>
<path d="M0 0 C1.04330452 2.71259175 1.05729472 3.83957479 0.0625 6.625 C-1.19042498 10.60487934 -1.44518684 14.23180504 -1.625 18.375 C-1.66367187 19.11105469 -1.70234375 19.84710938 -1.7421875 20.60546875 C-1.83557998 22.40327406 -1.9188371 24.20160108 -2 26 C-2.33 26 -2.66 26 -3 26 C-3 18.41 -3 10.82 -3 3 C-2.34 3 -1.68 3 -1 3 C-0.67 2.01 -0.34 1.02 0 0 Z " fill="#0E0E0E" transform="translate(601,189)"/>
<path d="M0 0 C2.31 0 4.62 0 7 0 C6.67 1.98 6.34 3.96 6 6 C4.125 6.625 4.125 6.625 2 7 C0 5 0 5 -0.125 2.375 C-0.08375 1.59125 -0.0425 0.8075 0 0 Z " fill="#1D1D1D" transform="translate(649,237)"/>
<path d="M0 0 C0.268125 0.969375 0.53625 1.93875 0.8125 2.9375 C1.204375 3.948125 1.59625 4.95875 2 6 C2.99 6.33 3.98 6.66 5 7 C5 7.99 5 8.98 5 10 C2.3364031 9.64005447 0.41816548 9.28838998 -1.8125 7.75 C-3.39364795 5.41988723 -3.22337696 3.75498245 -3 1 C-1 0 -1 0 0 0 Z " fill="#121212" transform="translate(795,274)"/>
<path d="M0 0 C2.625 0.9375 2.625 0.9375 5 2 C4.0409375 2.1546875 4.0409375 2.1546875 3.0625 2.3125 C2.381875 2.539375 1.70125 2.76625 1 3 C0.67 3.99 0.34 4.98 0 6 C-2.97 6 -5.94 6 -9 6 C-8.67 5.01 -8.34 4.02 -8 3 C-6.02 3 -4.04 3 -2 3 C-2 2.34 -2 1.68 -2 1 C-1.34 0.67 -0.68 0.34 0 0 Z " fill="#303030" transform="translate(689,244)"/>
<path d="M0 0 C0 1.32 0 2.64 0 4 C-0.99 4 -1.98 4 -3 4 C-3 5.98 -3 7.96 -3 10 C-3.33 10 -3.66 10 -4 10 C-4 8.35 -4 6.7 -4 5 C-4.99 5 -5.98 5 -7 5 C-7 3.68 -7 2.36 -7 1 C-2.25 0 -2.25 0 0 0 Z " fill="#191919" transform="translate(800,245)"/>
<path d="M0 0 C0.33 0 0.66 0 1 0 C1.433125 1.3303125 1.433125 1.3303125 1.875 2.6875 C2.83148748 5.50382424 3.86798946 8.25083156 5 11 C4.34 11 3.68 11 3 11 C2.67 11.66 2.34 12.32 2 13 C-0.91360308 8.22169095 -1.19876651 5.44893869 0 0 Z " fill="#2D2D2D" transform="translate(641,243)"/>
<path d="M0 0 C0 0.33 0 0.66 0 1 C-1.65 1.33 -3.3 1.66 -5 2 C-4.34 2.66 -3.68 3.32 -3 4 C-7.455 4.495 -7.455 4.495 -12 5 C-7.81374099 0.67419902 -6.05150555 -0.13155447 0 0 Z " fill="#363636" transform="translate(776,254)"/>
<path d="M0 0 C1.98 0 3.96 0 6 0 C6 0.99 6 1.98 6 3 C4.02 3.33 2.04 3.66 0 4 C0 2.68 0 1.36 0 0 Z " fill="#1E1E1E" transform="translate(616,189)"/>
<path d="M0 0 C2 1.75 2 1.75 4 4 C4 5.32 4 6.64 4 8 C2.68 7.67 1.36 7.34 0 7 C0 4.69 0 2.38 0 0 Z " fill="#2E2E2E" transform="translate(622,166)"/>
<path d="M0 0 C0 1.32 0 2.64 0 4 C-2.97 3.505 -2.97 3.505 -6 3 C-6 2.34 -6 1.68 -6 1 C-4 0 -4 0 0 0 Z " fill="#2B2B2B" transform="translate(666,188)"/>
<path d="M0 0 C0.33 0 0.66 0 1 0 C1 2.97 1 5.94 1 9 C0.67 8.34 0.34 7.68 0 7 C-0.66 7 -1.32 7 -2 7 C-1.125 2.25 -1.125 2.25 0 0 Z " fill="#111111" transform="translate(737,255)"/>
<path d="M0 0 C0.66 0.33 1.32 0.66 2 1 C2 1.66 2 2.32 2 3 C-0.31 3.33 -2.62 3.66 -5 4 C-3 1 -3 1 0 0 Z " fill="#0F0F0F" transform="translate(763,257)"/>
</svg>
