<?xml version="1.0" encoding="UTF-8"?>
<svg version="1.1" xmlns="http://www.w3.org/2000/svg" width="800" height="300">
<path d="M0 0 C264 0 528 0 800 0 C800 99 800 198 800 300 C536 300 272 300 0 300 C0 201 0 102 0 0 Z " fill="#FEFEFE" transform="translate(0,0)"/>
<path d="M0 0 C4.37356702 0.5085543 7.50480992 1.26052669 11 4 C12.96457553 7.25171122 14 9.18692647 14 13 C22.58 13 31.16 13 40 13 C40.66 9.7 41.32 6.4 42 3 C42.66 2.01 43.32 1.02 44 0 C49.45473727 -0.99327538 55.34155698 -0.98016153 60.1875 1.9375 C62.91844323 4.3502008 63.40527679 6.09663011 63.67578125 9.69140625 C63.74321533 10.49908447 63.81064941 11.3067627 63.88012695 12.13891602 C63.91968506 12.75307373 63.95924316 13.36723145 64 14 C64.75804932 13.99476318 65.51609863 13.98952637 66.29711914 13.98413086 C91.72609359 13.8326652 91.72609359 13.8326652 104 14.5 C114.56212326 15.05800264 125.11348537 15.11382562 135.6875 15.125 C136.93213013 15.12874634 136.93213013 15.12874634 138.2019043 15.13256836 C140.57605174 15.13845837 142.95006987 15.13697169 145.32421875 15.1328125 C146.03986496 15.13479645 146.75551117 15.1367804 147.49284363 15.13882446 C150.91063099 15.12288158 153.65053608 14.83736598 157 14 C164.59 14 172.18 14 180 14 C180 51.95 180 89.9 180 129 C176.04 129 172.08 129 168 129 C165 126 165 126 164.84765625 123.625 C164.9909029 121.87478637 165.13673719 120.1247826 165.28515625 118.375 C165.25839849 115.82417737 165.25839849 115.82417737 162.99609375 114.375 C162.33738281 113.92125 161.67867187 113.4675 161 113 C161 112.01 161 111.02 161 110 C160.34 110 159.68 110 159 110 C157.02 105.545 157.02 105.545 155 101 C153.700625 101.28875 152.40125 101.5775 151.0625 101.875 C143.375 103.58333333 135.6875 105.29166667 128 107 C127.95875 107.721875 127.9175 108.44375 127.875 109.1875 C126.67670118 113.03917478 124.46156072 115.11046798 121 117 C116.67054058 117.68359886 114.80949006 117.5279283 111.125 115.125 C107.63571837 111.63571837 107.83928988 109.3436096 107.8125 104.5 C107.79832031 103.3346875 107.78414062 102.169375 107.76953125 100.96875 C108 98 108 98 110 96 C114.13997567 95.8028583 117.07703567 95.69234522 121 97 C127.90874351 97.69087435 129.88171804 96.16368087 137 93 C117.2 93.66 97.4 94.32 77 95 C77 97.97 77 100.94 77 104 C76.05987349 108.49171553 73.4189323 111.07040258 69.94140625 113.89453125 C68 115 68 115 64.25 115.0625 C59.46431501 113.49794914 59.46431501 113.49794914 58 111 C57.95734973 109.00045481 57.95400405 106.99947102 58 105 C56.67935547 104.81824219 56.67935547 104.81824219 55.33203125 104.6328125 C54.17058594 104.46523438 53.00914062 104.29765625 51.8125 104.125 C50.66394531 103.96257812 49.51539063 103.80015625 48.33203125 103.6328125 C45.29473812 103.05597605 42.84460185 102.16029812 40 101 C37.5679241 100.55747943 37.5679241 100.55747943 35.1875 100.375 C34.39730469 100.30023438 33.60710937 100.22546875 32.79296875 100.1484375 C31.90544922 100.07496094 31.90544922 100.07496094 31 100 C32.42673359 102.88634122 33.90494836 105.54445319 36 108 C39.55652459 108.90137027 39.55652459 108.90137027 43 109 C45.09807076 110.56365651 45.88333597 111.59905969 46.6171875 114.12109375 C46.70226562 114.88550781 46.78734375 115.64992188 46.875 116.4375 C46.97554687 117.19933594 47.07609375 117.96117187 47.1796875 118.74609375 C46.94204234 121.72699068 46.10543046 122.89912675 44 125 C38.18814266 127.33693564 32.79289053 127.43301402 27 125 C24.80859375 123.71875 24.80859375 123.71875 23 122 C22.71484375 119.73046875 22.71484375 119.73046875 22.9375 117.1875 C23.17210628 110.97043353 21.48317361 107.73639837 17.4375 103 C14.99524406 99.99414653 13.97182848 97.71061785 13 94 C12.34 94 11.68 94 11 94 C10.67 93.34 10.34 92.68 10 92 C8.22403955 91.33975078 8.22403955 91.33975078 6.0625 90.9375 C5.24910156 90.76734375 4.43570313 90.5971875 3.59765625 90.421875 C1.05151963 90.0083671 -1.42637365 89.83249303 -4 89.6875 C-11.89151653 88.98902726 -18.43598081 84.42831141 -24 79 C-25.25 76.25 -25.25 76.25 -26 74 C-26.66 73.67 -27.32 73.34 -28 73 C-31.86477287 63.51535099 -31.56498911 53.050287 -31 43 C-30.505 42.505 -30.505 42.505 -30 42 C-29.76924918 40.65252916 -29.58846937 39.29622435 -29.4375 37.9375 C-29.2209375 35.9884375 -29.2209375 35.9884375 -29 34 C-28.34 34 -27.68 34 -27 34 C-27.144375 33.319375 -27.28875 32.63875 -27.4375 31.9375 C-26.84496419 27.9590453 -25.16300692 26.34930035 -22.2734375 23.6484375 C-17.14972579 19.93330633 -11.29234882 18 -5 18 C-5.103125 16.88625 -5.20625 15.7725 -5.3125 14.625 C-5.3625998 9.03386248 -2.71971933 4.74008226 0 0 Z " fill="#FCFCFC" transform="translate(620,155)"/>
<path d="M0 0 C0 0.99 0 1.98 0 3 C-0.97839844 3.25523437 -0.97839844 3.25523437 -1.9765625 3.515625 C-10.70438755 5.79760769 -10.70438755 5.79760769 -17.1796875 11.75390625 C-21.03176636 18.93789273 -22.37706129 26.31129494 -22.3125 34.375 C-22.30686035 35.11741943 -22.3012207 35.85983887 -22.29541016 36.62475586 C-22.04841651 47.83606638 -18.60466859 55.39533141 -10.6875 63.3125 C-1.77159864 68.91085667 8.77518934 69.06244994 19 70 C19.26039063 70.87527344 19.52078125 71.75054687 19.7890625 72.65234375 C20.99529963 75.98700574 22.44393956 78.59844872 24.375 81.5625 C24.96023438 82.47128906 25.54546875 83.38007813 26.1484375 84.31640625 C27.98640193 87.05300594 27.98640193 87.05300594 30.1796875 89.6953125 C31.93213442 91.91407577 32.59185964 93.24505259 33 96 C32.01 96.33 31.02 96.66 30 97 C30.93398606 100.14158949 31.66794941 101.7325148 34.25 103.8125 C37.49878952 105.21538638 39.49187143 105.43851607 43 105 C45.81780534 103.61114752 45.81780534 103.61114752 48 102 C47.505 98.535 47.505 98.535 47 95 C45.741875 94.95875 44.48375 94.9175 43.1875 94.875 C40.97265625 94.6171875 40.97265625 94.6171875 39 94 C37.125 91 37.125 91 36 88 C35.01 87.505 35.01 87.505 34 87 C33.690625 86.030625 33.38125 85.06125 33.0625 84.0625 C32.25255878 80.7319557 32.25255878 80.7319557 29 79 C28.3125 76.375 28.3125 76.375 28 74 C28.66 74 29.32 74 30 74 C30 74.99 30 75.98 30 77 C34.84293539 78.26246597 39.77678699 79.00584785 44.71289062 79.80664062 C48.74006561 80.49023321 52.21640623 81.41927039 56 83 C57.92792077 83.42148875 59.8665317 83.79676438 61.8125 84.125 C62.78832031 84.29257812 63.76414062 84.46015625 64.76953125 84.6328125 C65.87361328 84.81457031 65.87361328 84.81457031 67 85 C67 87.31 67 89.62 67 92 C69.239835 92.95020416 69.239835 92.95020416 72 93 C74.70848923 90.62494782 74.70848923 90.62494782 77 88 C77.66 88 78.32 88 79 88 C79.29352352 84.94735544 79.4095865 82.04564322 79 79 C76.23772878 75.65179246 74.44525847 75.08759183 70.1875 74.25 C69.135625 74.1675 68.08375 74.085 67 74 C67 74.99 67 75.98 67 77 C54.35771221 77.40134247 54.35771221 77.40134247 49 75 C47.74609375 72.921875 47.74609375 72.921875 47 71 C49.38564077 71.57584432 51.66682784 72.22227595 54 73 C55.89212737 73.22179785 57.78884472 73.40614015 59.6875 73.5625 C61.17830078 73.68818359 61.17830078 73.68818359 62.69921875 73.81640625 C63.45847656 73.87699219 64.21773437 73.93757813 65 74 C65.495 72.515 65.495 72.515 66 71 C72.625 70.875 72.625 70.875 76 72 C78.68234468 72.0861117 81.33784933 72.11561487 84.01977539 72.09765625 C85.24456352 72.09546585 85.24456352 72.09546585 86.49409485 72.0932312 C88.26690843 72.08942563 90.03971821 72.0833095 91.81251717 72.07516479 C94.61512639 72.06242056 97.4176884 72.05589073 100.22032166 72.05102539 C106.1677356 72.03958793 112.11511071 72.02034032 118.0625 72 C124.95625465 71.97643824 131.84998714 71.95603683 138.74377251 71.94406128 C141.51028772 71.93755845 144.27673542 71.92505112 147.04322815 71.91235352 C148.73202454 71.90872238 150.42082156 71.90537047 152.10961914 71.90234375 C152.88317749 71.89717743 153.65673584 71.89201111 154.45373535 71.88668823 C159.77231312 71.88615656 159.77231312 71.88615656 162 73 C162 73.66 162 74.32 162 75 C160.94941406 75.09796875 159.89882813 75.1959375 158.81640625 75.296875 C150.8577239 76.11521682 144.12399175 77.1436243 137 81 C130.74339091 84.07825167 130.74339091 84.07825167 127.625 83.75 C126 83 126 83 125 82 C122.32941149 81.85884839 119.67567762 81.95752893 117 82 C115.53154579 87.47332932 116.55961274 90.11922548 119 95 C122.53164047 95.32105822 124.35715051 95.48213712 127.25 93.3125 C129.15045246 91.10693567 129.15045246 91.10693567 129.6875 88.375 C131 86 131 86 132.83984375 85.34375 C134.41117223 85.02142621 135.98877869 84.72873715 137.5703125 84.4609375 C139.87813216 84.02311962 141.82924511 83.380507 144 82.5 C147.5525788 81.08889585 151.0744861 80.2471279 154.82421875 79.52734375 C157.33322863 78.91923543 159.62430502 78.00270138 162 77 C162.20753906 77.60585937 162.41507813 78.21171875 162.62890625 78.8359375 C164.83995482 84.84924951 167.63428295 89.67548123 171.51171875 94.7734375 C173.64336299 97.96251156 174.20100285 99.91960966 173.5 103.6875 C173.335 104.450625 173.17 105.21375 173 106 C174.73956658 107.73956658 177.1936622 107.37190386 179.5625 107.5625 C181.08037109 107.68818359 181.08037109 107.68818359 182.62890625 107.81640625 C183.41136719 107.87699219 184.19382812 107.93757813 185 108 C185 108.99 185 109.98 185 111 C183.06318839 111.08107583 181.1254066 111.13922475 179.1875 111.1875 C178.10855469 111.22230469 177.02960938 111.25710938 175.91796875 111.29296875 C173 111 173 111 171.109375 109.80078125 C169.2420115 106.76960318 169.99400208 103.80755438 170.28515625 100.375 C170.25839849 97.82417737 170.25839849 97.82417737 167.99609375 96.375 C167.33738281 95.92125 166.67867187 95.4675 166 95 C166 94.01 166 93.02 166 92 C165.34 92 164.68 92 164 92 C162.02 87.545 162.02 87.545 160 83 C158.700625 83.28875 157.40125 83.5775 156.0625 83.875 C148.375 85.58333333 140.6875 87.29166667 133 89 C132.95875 89.721875 132.9175 90.44375 132.875 91.1875 C131.67670118 95.03917478 129.46156072 97.11046798 126 99 C121.67054058 99.68359886 119.80949006 99.5279283 116.125 97.125 C112.63571837 93.63571837 112.83928988 91.3436096 112.8125 86.5 C112.79832031 85.3346875 112.78414062 84.169375 112.76953125 82.96875 C113 80 113 80 115 78 C119.13997567 77.8028583 122.07703567 77.69234522 126 79 C132.90874351 79.69087435 134.88171804 78.16368087 142 75 C122.2 75.66 102.4 76.32 82 77 C82 79.97 82 82.94 82 86 C81.05987349 90.49171553 78.4189323 93.07040258 74.94140625 95.89453125 C73 97 73 97 69.25 97.0625 C64.46431501 95.49794914 64.46431501 95.49794914 63 93 C62.95734973 91.00045481 62.95400405 88.99947102 63 87 C61.67935547 86.81824219 61.67935547 86.81824219 60.33203125 86.6328125 C59.17058594 86.46523438 58.00914062 86.29765625 56.8125 86.125 C55.66394531 85.96257812 54.51539063 85.80015625 53.33203125 85.6328125 C50.29473812 85.05597605 47.84460185 84.16029812 45 83 C42.5679241 82.55747943 42.5679241 82.55747943 40.1875 82.375 C39.39730469 82.30023438 38.60710937 82.22546875 37.79296875 82.1484375 C36.90544922 82.07496094 36.90544922 82.07496094 36 82 C37.42673359 84.88634122 38.90494836 87.54445319 41 90 C44.55652459 90.90137027 44.55652459 90.90137027 48 91 C50.09807076 92.56365651 50.88333597 93.59905969 51.6171875 96.12109375 C51.70226562 96.88550781 51.78734375 97.64992188 51.875 98.4375 C51.97554687 99.19933594 52.07609375 99.96117187 52.1796875 100.74609375 C51.94204234 103.72699068 51.10543046 104.89912675 49 107 C43.18814266 109.33693564 37.79289053 109.43301402 32 107 C29.80859375 105.71875 29.80859375 105.71875 28 104 C27.71484375 101.73046875 27.71484375 101.73046875 27.9375 99.1875 C28.17210628 92.97043353 26.48317361 89.73639837 22.4375 85 C19.99524406 81.99414653 18.97182848 79.71061785 18 76 C17.34 76 16.68 76 16 76 C15.67 75.34 15.34 74.68 15 74 C13.22403955 73.33975078 13.22403955 73.33975078 11.0625 72.9375 C10.24910156 72.76734375 9.43570313 72.5971875 8.59765625 72.421875 C6.05151963 72.0083671 3.57362635 71.83249303 1 71.6875 C-6.89151653 70.98902726 -13.43598081 66.42831141 -19 61 C-20.25 58.25 -20.25 58.25 -21 56 C-21.66 55.67 -22.32 55.34 -23 55 C-26.86477287 45.51535099 -26.56498911 35.050287 -26 25 C-25.67 24.67 -25.34 24.34 -25 24 C-24.76924918 22.65252916 -24.58846937 21.29622435 -24.4375 19.9375 C-24.293125 18.638125 -24.14875 17.33875 -24 16 C-23.34 16 -22.68 16 -22 16 C-22.144375 15.319375 -22.28875 14.63875 -22.4375 13.9375 C-21.84496419 9.9590453 -20.16300692 8.34930035 -17.2734375 5.6484375 C-12.14972579 1.93330633 -6.29234882 0 0 0 Z " fill="#121212" transform="translate(615,173)"/>
<path d="M0 0 C4.37356702 0.5085543 7.50480992 1.26052669 11 4 C12.96457553 7.25171122 14 9.18692647 14 13 C22.58 13 31.16 13 40 13 C40.66 9.7 41.32 6.4 42 3 C42.66 2.01 43.32 1.02 44 0 C49.45473727 -0.99327538 55.34155698 -0.98016153 60.1875 1.9375 C62.91844323 4.3502008 63.40527679 6.09663011 63.67578125 9.69140625 C63.74321533 10.49908447 63.81064941 11.3067627 63.88012695 12.13891602 C63.91968506 12.75307373 63.95924316 13.36723145 64 14 C64.75804932 13.99476318 65.51609863 13.98952637 66.29711914 13.98413086 C91.72609359 13.8326652 91.72609359 13.8326652 104 14.5 C114.56212326 15.05800264 125.11348537 15.11382562 135.6875 15.125 C136.93213013 15.12874634 136.93213013 15.12874634 138.2019043 15.13256836 C140.57605174 15.13845837 142.95006987 15.13697169 145.32421875 15.1328125 C146.03986496 15.13479645 146.75551117 15.1367804 147.49284363 15.13882446 C150.84203966 15.12320154 153.77607888 14.86324034 157 14 C158.80581755 13.92008896 160.61431809 13.89230177 162.421875 13.90234375 C163.44667969 13.90556641 164.47148438 13.90878906 165.52734375 13.91210938 C166.59082031 13.92048828 167.65429688 13.92886719 168.75 13.9375 C169.82894531 13.94201172 170.90789062 13.94652344 172.01953125 13.95117188 C174.67974383 13.96294273 177.33984365 13.97938601 180 14 C180 14.66 180 15.32 180 16 C179.43603516 16.01981934 178.87207031 16.03963867 178.29101562 16.06005859 C175.69360426 16.15631811 173.09688897 16.26558052 170.5 16.375 C169.1696875 16.42140625 169.1696875 16.42140625 167.8125 16.46875 C163.76295576 16.64740636 160.23668558 16.93405899 156.3125 18.02734375 C150.5475337 19.62419869 144.53661653 19.2589325 138.60351562 19.20581055 C136.5324231 19.18778223 134.46178722 19.18530007 132.390625 19.18554688 C124.32674289 19.16406767 116.3371028 18.79773897 108.28955078 18.24731445 C99.02212294 17.66597942 89.71930951 17.62408409 80.43725586 17.44775391 C77.78489626 17.39615987 75.13270061 17.33898789 72.48046875 17.28125 C71.26655708 17.26088684 71.26655708 17.26088684 70.02812195 17.2401123 C66.78036609 17.16761922 64.10159787 17.03386596 61 16 C60.97421875 15.38511719 60.9484375 14.77023438 60.921875 14.13671875 C60.86515625 13.32847656 60.8084375 12.52023438 60.75 11.6875 C60.70359375 10.88699219 60.6571875 10.08648437 60.609375 9.26171875 C60.16375386 6.88259622 60.16375386 6.88259622 58.28125 5.21875 C55.54899543 3.75905235 53.82670578 3.69105109 50.75 3.8125 C49.1825 3.874375 47.615 3.93625 46 4 C44.68 7.96 43.36 11.92 42 16 C32.1 16 22.2 16 12 16 C10.68 12.7 9.36 9.4 8 6 C4.45562879 3.78520009 4.45562879 3.78520009 1 3 C0.49411853 4.91512272 -0.00448391 6.83216922 -0.5 8.75 C-0.7784375 9.81734375 -1.056875 10.8846875 -1.34375 11.984375 C-2.14175989 15.13705302 -2.14175989 15.13705302 -2 19 C-2.99 18.67 -3.98 18.34 -5 18 C-5.67090715 10.75420281 -3.58125682 6.24161903 0 0 Z " fill="#181818" transform="translate(620,155)"/>
<path d="M0 0 C0 8.25 0 16.5 0 25 C-6 25 -6 25 -8.3125 23.375 C-10.31233339 20.56041967 -10.69029053 18.40680413 -11 15 C-11.66 15 -12.32 15 -13 15 C-13.33 11.37 -13.66 7.74 -14 4 C-12.39125 3.566875 -12.39125 3.566875 -10.75 3.125 C-7.18205 2.17134117 -7.18205 2.17134117 -4.75 0.875 C-3 0 -3 0 0 0 Z " fill="#F7F7F7" transform="translate(800,242)"/>
<path d="M0 0 C1.02480469 0.00322266 2.04960938 0.00644531 3.10546875 0.00976562 C4.16894531 0.01814453 5.23242188 0.02652344 6.328125 0.03515625 C7.40707031 0.03966797 8.48601563 0.04417969 9.59765625 0.04882812 C12.25786883 0.06059898 14.91796865 0.07704226 17.578125 0.09765625 C17.578125 0.75765625 17.578125 1.41765625 17.578125 2.09765625 C16.73217773 2.12738525 16.73217773 2.12738525 15.86914062 2.15771484 C13.27172926 2.25397436 10.67501397 2.36323677 8.078125 2.47265625 C6.7478125 2.5190625 6.7478125 2.5190625 5.390625 2.56640625 C1.35113727 2.74461894 -2.1688976 3.02691977 -6.08203125 4.12109375 C-11.97139 5.753802 -18.13963793 5.39432877 -24.20288086 5.35839844 C-26.35103702 5.34769778 -28.49835394 5.35832626 -30.64648438 5.37109375 C-37.84156651 5.37734409 -44.47145098 5.05464715 -51.421875 3.09765625 C-51.091875 2.43765625 -50.761875 1.77765625 -50.421875 1.09765625 C-49.20081055 1.10289307 -47.97974609 1.10812988 -46.72167969 1.11352539 C-42.18929783 1.13163209 -37.65691916 1.14310904 -33.12451172 1.15258789 C-31.16324323 1.15761512 -29.20197848 1.16443782 -27.24072266 1.1730957 C-24.42088903 1.1852317 -21.60110498 1.19090069 -18.78125 1.1953125 C-17.90507019 1.20047379 -17.02889038 1.20563507 -16.12615967 1.21095276 C-15.30561096 1.21102829 -14.48506226 1.21110382 -13.63964844 1.21118164 C-12.92017029 1.21340225 -12.20069214 1.21562286 -11.45941162 1.21791077 C-7.53137908 0.98608001 -4.0093375 -0.0222741 0 0 Z " fill="#101010" transform="translate(782.421875,168.90234375)"/>
<path d="M0 0 C0 0.99 0 1.98 0 3 C-1.22976563 3.19916016 -1.22976563 3.19916016 -2.484375 3.40234375 C-4.10085938 3.66724609 -4.10085938 3.66724609 -5.75 3.9375 C-7.35101562 4.19853516 -7.35101562 4.19853516 -8.984375 4.46484375 C-11.36347593 4.88704171 -13.66915211 5.37202884 -16 6 C-16.05416188 7.60379341 -16.09286638 9.20811406 -16.125 10.8125 C-16.15980469 12.15248047 -16.15980469 12.15248047 -16.1953125 13.51953125 C-16.18285827 16.25402714 -16.18285827 16.25402714 -14 19 C-11.23434618 19.92188461 -9.61716298 20.11785222 -6.76953125 20.09765625 C-5.96708984 20.09443359 -5.16464844 20.09121094 -4.33789062 20.08789062 C-3.50451172 20.07951172 -2.67113281 20.07113281 -1.8125 20.0625 C-0.5450293 20.05573242 -0.5450293 20.05573242 0.74804688 20.04882812 C2.83206155 20.03705403 4.91603977 20.0191189 7 20 C7 20.99 7 21.98 7 23 C-1.57723672 25.47343571 -9.77866878 23.99605997 -18 21 C-18 20.01 -18 19.02 -18 18 C-18.66 18 -19.32 18 -20 18 C-20.40547064 7.66049879 -20.40547064 7.66049879 -18 4 C-12.21537468 -0.55385398 -7.1785353 -0.46731875 0 0 Z " fill="#0C0C0C" transform="translate(633,192)"/>
<path d="M0 0 C0.20753906 0.60585937 0.41507813 1.21171875 0.62890625 1.8359375 C2.83995482 7.84924951 5.63428295 12.67548123 9.51171875 17.7734375 C11.64336299 20.96251156 12.20100285 22.91960966 11.5 26.6875 C11.335 27.450625 11.17 28.21375 11 29 C12.73956658 30.73956658 15.1936622 30.37190386 17.5625 30.5625 C18.57441406 30.64628906 19.58632813 30.73007812 20.62890625 30.81640625 C21.80259766 30.90728516 21.80259766 30.90728516 23 31 C23 31.99 23 32.98 23 34 C21.06318839 34.08107583 19.1254066 34.13922475 17.1875 34.1875 C16.10855469 34.22230469 15.02960937 34.25710938 13.91796875 34.29296875 C11 34 11 34 9.109375 32.80078125 C7.2420115 29.76960318 7.99400208 26.80755438 8.28515625 23.375 C8.25839849 20.82417737 8.25839849 20.82417737 5.99609375 19.375 C5.33738281 18.92125 4.67867187 18.4675 4 18 C4 17.01 4 16.02 4 15 C3.34 15 2.68 15 2 15 C0.68 12.03 -0.64 9.06 -2 6 C-3.32 6 -4.64 6 -6 6 C-5.6875 4.125 -5.6875 4.125 -5 2 C-2 0 -2 0 0 0 Z " fill="#0E0E0E" transform="translate(777,250)"/>
<path d="M0 0 C0 0.99 0 1.98 0 3 C-0.97839844 3.25523437 -0.97839844 3.25523437 -1.9765625 3.515625 C-10.70438755 5.79760769 -10.70438755 5.79760769 -17.1796875 11.75390625 C-19.62995553 16.3235667 -20.91755845 20.94860609 -22 26 C-22.66 26 -23.32 26 -24 26 C-24.33 31.61 -24.66 37.22 -25 43 C-25.33 43 -25.66 43 -26 43 C-26.02683987 40.02077407 -26.04676037 37.04178705 -26.0625 34.0625 C-26.07087891 33.21236328 -26.07925781 32.36222656 -26.08789062 31.48632812 C-26.09111328 30.67744141 -26.09433594 29.86855469 -26.09765625 29.03515625 C-26.10289307 28.2862915 -26.10812988 27.53742676 -26.11352539 26.76586914 C-26 25 -26 25 -25 24 C-24.76924918 22.65252916 -24.58846937 21.29622435 -24.4375 19.9375 C-24.293125 18.638125 -24.14875 17.33875 -24 16 C-23.34 16 -22.68 16 -22 16 C-22.144375 15.319375 -22.28875 14.63875 -22.4375 13.9375 C-21.84496419 9.9590453 -20.16300692 8.34930035 -17.2734375 5.6484375 C-12.14972579 1.93330633 -6.29234882 0 0 0 Z " fill="#363636" transform="translate(615,173)"/>
<path d="M0 0 C0 0.99 0 1.98 0 3 C-1.28913487 3.67154933 -2.58140204 4.33708859 -3.875 5 C-4.59429688 5.37125 -5.31359375 5.7425 -6.0546875 6.125 C-8 7 -8 7 -10 7 C-8.72861036 14.51018063 -8.72861036 14.51018063 -5 21 C-2.40877257 21.88658466 -2.40877257 21.88658466 0 22 C0 22.99 0 23.98 0 25 C-3.51387796 25.31944345 -5.37550387 25.43883512 -8.3125 23.375 C-10.31233339 20.56041967 -10.69029053 18.40680413 -11 15 C-11.66 15 -12.32 15 -13 15 C-13.33 11.37 -13.66 7.74 -14 4 C-12.39125 3.566875 -12.39125 3.566875 -10.75 3.125 C-7.18205 2.17134117 -7.18205 2.17134117 -4.75 0.875 C-3 0 -3 0 0 0 Z " fill="#1A1A1A" transform="translate(800,242)"/>
<path d="M0 0 C3.95831809 -0.02892857 7.91660917 -0.04677427 11.875 -0.0625 C13.56689453 -0.07506836 13.56689453 -0.07506836 15.29296875 -0.08789062 C16.36933594 -0.09111328 17.44570313 -0.09433594 18.5546875 -0.09765625 C19.54968262 -0.10289307 20.54467773 -0.10812988 21.56982422 -0.11352539 C24 0 24 0 26 1 C26 1.66 26 2.32 26 3 C24.91460938 3.13277344 23.82921875 3.26554688 22.7109375 3.40234375 C21.26561678 3.58066254 19.82030474 3.75905169 18.375 3.9375 C17.66214844 4.02451172 16.94929687 4.11152344 16.21484375 4.20117188 C12.12408039 4.70782605 8.06157365 5.2889043 4 6 C4.66 5.01 5.32 4.02 6 3 C3.69 3 1.38 3 -1 3 C-0.67 2.01 -0.34 1.02 0 0 Z " fill="#0E0E0E" transform="translate(751,245)"/>
<path d="M0 0 C-1.84136386 3.68272773 -6.26452895 4.70812421 -10 6 C-15.82630589 6.63559701 -21.33239658 5.2772064 -27 4 C-26.015625 2.54296875 -26.015625 2.54296875 -24 1 C-21.18686612 0.61771728 -18.57177583 0.3969121 -15.75 0.3125 C-15.01136719 0.27833984 -14.27273438 0.24417969 -13.51171875 0.20898438 C-9.00584992 0.01428634 -4.50952881 -0.02982493 0 0 Z " fill="#D5D5D5" transform="translate(758,247)"/>
<path d="M0 0 C0 0.99 0 1.98 0 3 C-1.22976563 3.19916016 -1.22976563 3.19916016 -2.484375 3.40234375 C-4.10085938 3.66724609 -4.10085938 3.66724609 -5.75 3.9375 C-7.35101562 4.19853516 -7.35101562 4.19853516 -8.984375 4.46484375 C-11.36347593 4.88704171 -13.66915211 5.37202884 -16 6 C-16.33 7.32 -16.66 8.64 -17 10 C-17.33 10 -17.66 10 -18 10 C-18.33 12.64 -18.66 15.28 -19 18 C-19.33 18 -19.66 18 -20 18 C-20.40547064 7.66049879 -20.40547064 7.66049879 -18 4 C-12.21537468 -0.55385398 -7.1785353 -0.46731875 0 0 Z " fill="#1D1D1D" transform="translate(633,192)"/>
<path d="M0 0 C3.02089478 -0.02716089 6.04154129 -0.04691657 9.0625 -0.0625 C9.91005859 -0.07087891 10.75761719 -0.07925781 11.63085938 -0.08789062 C16.5361722 -0.10683006 21.16444755 0.16673655 26 1 C26 1.99 26 2.98 26 4 C13.13 3.505 13.13 3.505 0 3 C0 2.01 0 1.02 0 0 Z " fill="#1A1A1A" transform="translate(618,228)"/>
<path d="M0 0 C1.02480469 0.00322266 2.04960938 0.00644531 3.10546875 0.00976562 C4.16894531 0.01814453 5.23242188 0.02652344 6.328125 0.03515625 C7.40707031 0.03966797 8.48601563 0.04417969 9.59765625 0.04882812 C12.25786883 0.06059898 14.91796865 0.07704226 17.578125 0.09765625 C17.578125 0.75765625 17.578125 1.41765625 17.578125 2.09765625 C17.01939697 2.11747559 16.46066895 2.13729492 15.88500977 2.15771484 C13.30315082 2.25417815 10.72197108 2.36335437 8.140625 2.47265625 C7.26212891 2.50359375 6.38363281 2.53453125 5.47851562 2.56640625 C-0.37770827 2.82572244 -5.73342923 3.6740981 -11.421875 5.09765625 C-10.671875 3.16015625 -10.671875 3.16015625 -9.421875 1.09765625 C-6.37406536 -0.17170897 -3.26761172 -0.0181534 0 0 Z " fill="#010101" transform="translate(782.421875,168.90234375)"/>
<path d="M0 0 C5.61 0 11.22 0 17 0 C16.67 0.99 16.34 1.98 16 3 C10.39 3 4.78 3 -1 3 C-0.67 2.01 -0.34 1.02 0 0 Z " fill="#1D1D1D" transform="translate(734,245)"/>
<path d="M0 0 C0.66 0 1.32 0 2 0 C2 1.65 2 3.3 2 5 C2.66 5 3.32 5 4 5 C4.33 3.68 4.66 2.36 5 1 C5.99 1 6.98 1 8 1 C7.25 6.75 7.25 6.75 5 9 C2.375 8.625 2.375 8.625 0 8 C0 5.36 0 2.72 0 0 Z " fill="#1B1B1B" transform="translate(725,216)"/>
<path d="M0 0 C0 0.99 0 1.98 0 3 C-1.56159059 3.48212214 -3.12431928 3.96055873 -4.6875 4.4375 C-5.55761719 4.70433594 -6.42773438 4.97117188 -7.32421875 5.24609375 C-9.87025921 5.96344529 -12.4003423 6.517541 -15 7 C-14.01269344 4.43087971 -13.46442081 3.24027949 -10.9765625 1.953125 C-9.81253906 1.60507813 -9.81253906 1.60507813 -8.625 1.25 C-7.85414063 1.00765625 -7.08328125 0.7653125 -6.2890625 0.515625 C-4 0 -4 0 0 0 Z " fill="#0D0D0D" transform="translate(615,173)"/>
<path d="M0 0 C-2.45091043 2.68433048 -4.28241384 3.91789741 -8.04296875 4.09765625 C-8.75066406 4.08605469 -9.45835937 4.07445312 -10.1875 4.0625 C-12.0746875 4.0315625 -12.0746875 4.0315625 -14 4 C-13.67 3.01 -13.34 2.02 -13 1 C-11.39796533 0.63631108 -9.79325797 0.28438048 -8.1875 -0.0625 C-7.29417969 -0.25972656 -6.40085937 -0.45695313 -5.48046875 -0.66015625 C-3 -1 -3 -1 0 0 Z " fill="#222222" transform="translate(772,254)"/>
<path d="M0 0 C0.66 0 1.32 0 2 0 C2 0.99 2 1.98 2 3 C2.99 3.33 3.98 3.66 5 4 C5.33 2.68 5.66 1.36 6 0 C6.33 0 6.66 0 7 0 C7.04254356 1.99954746 7.04080783 4.00041636 7 6 C6 7 6 7 3 7.125 C0 7 0 7 -1 6 C-1.125 3.5 -1.125 3.5 -1 1 C-0.67 0.67 -0.34 0.34 0 0 Z " fill="#070707" transform="translate(793,223)"/>
<path d="M0 0 C0.66 0 1.32 0 2 0 C1.25 4.75 1.25 4.75 -1 7 C-3.5625 7.1875 -3.5625 7.1875 -6 7 C-7 6 -7 6 -7.0625 3.4375 C-7.041875 2.633125 -7.02125 1.82875 -7 1 C-6.34 1 -5.68 1 -5 1 C-5 1.99 -5 2.98 -5 4 C-1.72226496 3.24849977 -1.72226496 3.24849977 0 0 Z " fill="#0E0E0E" transform="translate(715,179)"/>
<path d="M0 0 C0.99 0.33 1.98 0.66 3 1 C2.01 2.485 2.01 2.485 1 4 C0.34 4 -0.32 4 -1 4 C-1.33 5.32 -1.66 6.64 -2 8 C-2.33 8 -2.66 8 -3 8 C-3.33 10.64 -3.66 13.28 -4 16 C-4.33 16 -4.66 16 -5 16 C-5.38647343 6.14492754 -5.38647343 6.14492754 -3 2 C-2.01 1.34 -1.02 0.68 0 0 Z " fill="#3B3B3B" transform="translate(618,194)"/>
<path d="M0 0 C0.53109375 0.13277344 1.0621875 0.26554688 1.609375 0.40234375 C2.79273438 0.69818359 2.79273438 0.69818359 4 1 C6.08333333 1.52083333 8.16666667 2.04166667 10.25 2.5625 C11.86648438 2.96662109 11.86648438 2.96662109 13.515625 3.37890625 C14.33546875 3.58386719 15.1553125 3.78882813 16 4 C16 4.33 16 4.66 16 5 C4.89635502 5.38808856 4.89635502 5.38808856 1 3 C0.67 2.01 0.34 1.02 0 0 Z " fill="#040404" transform="translate(662,244)"/>
<path d="M0 0 C1.98 0.66 3.96 1.32 6 2 C6 2.33 6 2.66 6 3 C4.35 3 2.7 3 1 3 C1 3.99 1 4.98 1 6 C-1.97 6 -4.94 6 -8 6 C-7.67 5.01 -7.34 4.02 -7 3 C-5.02 3 -3.04 3 -1 3 C-0.67 2.01 -0.34 1.02 0 0 Z " fill="#2B2B2B" transform="translate(681,244)"/>
<path d="M0 0 C0.66 0 1.32 0 2 0 C2.33 0.99 2.66 1.98 3 3 C3.33 2.01 3.66 1.02 4 0 C4.66 0 5.32 0 6 0 C5.67 2.31 5.34 4.62 5 7 C3.35 6.67 1.7 6.34 0 6 C0 4.02 0 2.04 0 0 Z " fill="#0E0E0E" transform="translate(642,237)"/>
<path d="M0 0 C0.66 0.33 1.32 0.66 2 1 C-0.19471406 5.51135667 -2.41173718 7.06273348 -7 9 C-5.44499019 5.18315774 -2.96404505 2.80804268 0 0 Z " fill="#282828" transform="translate(600,177)"/>
<path d="M0 0 C0 0.66 0 1.32 0 2 C-4.455 3.485 -4.455 3.485 -9 5 C-7 1 -7 1 -4.5 -0.3125 C-2 -1 -2 -1 0 0 Z " fill="#111111" transform="translate(759,257)"/>
<path d="M0 0 C-1.97420135 2.52259061 -2.96745642 2.9929808 -6.1875 3.6875 C-7.5796875 3.8421875 -7.5796875 3.8421875 -9 4 C-8.25 2.0625 -8.25 2.0625 -7 0 C-4.04680182 -1.23843794 -3.12561472 -1.04187157 0 0 Z " fill="#0D0D0D" transform="translate(780,170)"/>
<path d="M0 0 C1.65 0 3.3 0 5 0 C4.67 1.32 4.34 2.64 4 4 C2.68 4 1.36 4 0 4 C0 2.68 0 1.36 0 0 Z " fill="#0A0A0A" transform="translate(609,189)"/>
<path d="M0 0 C0 1.32 0 2.64 0 4 C-1.65 3.67 -3.3 3.34 -5 3 C-5 2.34 -5 1.68 -5 1 C-3 0 -3 0 0 0 Z " fill="#121212" transform="translate(658,188)"/>
</svg>
