<?xml version="1.0" encoding="UTF-8"?>
<svg version="1.1" xmlns="http://www.w3.org/2000/svg" width="800" height="300">
<path d="M0 0 C264 0 528 0 800 0 C800 99 800 198 800 300 C536 300 272 300 0 300 C0 201 0 102 0 0 Z " fill="#FEFEFE" transform="translate(0,0)"/>
<path d="M0 0 C5.07739919 -0.4231166 8.5478232 0.33265962 13.203125 2.34375 C15 4 15 4 18 12 C30.375 11.505 30.375 11.505 43 11 C43.33 9.02 43.66 7.04 44 5 C45.375 2.125 45.375 2.125 48 0 C52.60783128 -0.97122276 56.93660328 -1.03901537 61.203125 1.109375 C65.56885427 4.52124745 66.65645301 7.59366975 68 13 C71.12497937 13.02956676 74.24992177 13.04698543 77.375 13.0625 C78.24511719 13.07087891 79.11523438 13.07925781 80.01171875 13.08789062 C80.88183594 13.09111328 81.75195312 13.09433594 82.6484375 13.09765625 C83.82672119 13.10551147 83.82672119 13.10551147 85.02880859 13.11352539 C87.63239674 13.01404565 90.16322946 12.78545078 92.75195312 12.5065918 C97.61921972 11.99995039 102.42925009 11.82393392 107.3203125 11.796875 C108.1738179 11.79004196 109.0273233 11.78320892 109.9066925 11.77616882 C112.64616928 11.75920751 115.38547383 11.75284565 118.125 11.75 C119.06207794 11.74799591 119.99915588 11.74599182 120.96463013 11.743927 C133.80881469 11.73720179 146.18918164 12.31283274 158.8984375 14.26953125 C164.8658129 15.18802785 170.82704208 15.4885649 176.85522461 15.70874023 C177.91882202 15.74849976 177.91882202 15.74849976 179.00390625 15.7890625 C179.61049072 15.80662598 180.2170752 15.82418945 180.84204102 15.84228516 C183.91789215 16.06708432 186.94912745 16.55562954 190 17 C190.20873181 30.16067464 190.36854753 43.32095417 190.46630955 56.4829483 C190.5132365 62.59502212 190.57686301 68.70596176 190.67895508 74.81738281 C190.77690365 80.71784062 190.83059143 86.61720919 190.85389519 92.51841736 C190.87049692 94.7671778 190.90291823 97.01588004 190.95157051 99.26417542 C191.31661385 116.83574201 191.31661385 116.83574201 188.06832886 122.17529297 C184.55269825 125.43838598 181.9405991 126.79620353 177.25 127.8125 C172.98306684 126.74576671 171.46444976 125.65933449 169 122 C168.57652941 118.94884011 168.75364721 116.06024906 169 113 C169.03620728 108.73134966 169.03620728 108.73134966 166.5 105.875 C164 103 164 103 164 101 C159.16019671 104.77740744 154.35670524 108.80156268 151 114 C150.96045766 116.33299825 150.95598268 118.66708189 151 121 C147.7459891 124.8234628 146.20515527 125.79914079 141.25 126.625 C135.95845347 126.31735195 131.51029759 123.58787566 127 121 C126.63432836 114.66169154 126.63432836 114.66169154 128.3125 111.625 C131.73085985 108.33324607 135.51834178 108.91544041 140 109 C140.10634766 108.21882813 140.10634766 108.21882813 140.21484375 107.421875 C141.34415605 103.93842413 143.44888755 101.19546298 145.5625 98.25 C146.19961914 97.34701172 146.19961914 97.34701172 146.84960938 96.42578125 C147.89435522 94.94670286 148.94646016 93.47282741 150 92 C148.75476563 92.16113281 147.50953125 92.32226562 146.2265625 92.48828125 C137.63422789 93.33729647 129.00010831 93.19426391 120.375 93.1875 C119.43555542 93.1882251 118.49611084 93.1889502 117.52819824 93.18969727 C94.32614713 93.18774678 71.16930656 92.14717662 48 91 C48.3609375 92.05960937 48.721875 93.11921875 49.09375 94.2109375 C49.56265793 95.59890499 50.03139931 96.98692875 50.5 98.375 C50.85771484 99.42300781 50.85771484 99.42300781 51.22265625 100.4921875 C53 105.7734375 53 105.7734375 53 108 C53.67546875 108.03738281 54.3509375 108.07476562 55.046875 108.11328125 C55.93890625 108.17902344 56.8309375 108.24476563 57.75 108.3125 C58.63171875 108.37050781 59.5134375 108.42851562 60.421875 108.48828125 C63.37638417 109.07470655 64.8336774 109.9276503 67 112 C67.625 114.875 67.625 114.875 67 118 C65.00707574 120.04402488 63.31459112 121.40752305 61 123 C60.33484375 123.54269531 59.6696875 124.08539063 58.984375 124.64453125 C53.72729034 128.68189663 49.8868308 129.61500059 43.28515625 129.30859375 C41 129 41 129 39 128 C37.75424694 124.26274081 37.51106557 120.91147543 38 117 C39.5 115 39.5 115 41 114 C39.515 113.01 39.515 113.01 38 112 C36.6484375 109.94140625 36.6484375 109.94140625 35.375 107.5625 C34.94960938 106.78003906 34.52421875 105.99757813 34.0859375 105.19140625 C33 103 33 103 32 100 C31.34 100 30.68 100 30 100 C29.62875 100.8353125 29.62875 100.8353125 29.25 101.6875 C27.76258717 104.43921374 26.0172356 106.60112523 24 109 C23.13568359 110.03833984 23.13568359 110.03833984 22.25390625 111.09765625 C21.63386719 111.82855469 21.01382813 112.55945313 20.375 113.3125 C19.78460937 114.00988281 19.19421875 114.70726562 18.5859375 115.42578125 C17 117 17 117 15 117 C15.33 117.66 15.66 118.32 16 119 C16.40609659 122.05732719 16.47507553 124.94833839 16 128 C13.26216018 130.91447465 10.53116764 131.2114019 6.6875 131.4375 C0.93150546 131.25461723 -3.93698606 129.06301394 -8 125 C-8.68512668 121.57436662 -8.69660102 118.423605 -8 115 C-5.14739786 111.30635711 -1.3873631 110.09078823 3 109.0625 C6.92464308 107.80538776 8.20215397 105.36621979 10.05078125 101.79272461 C11.44229402 98.88980277 12.74647136 95.9653787 14 93 C12.205625 93.0928125 12.205625 93.0928125 10.375 93.1875 C1.49825182 93.1454301 -8.41222559 91.90141512 -15.32421875 85.921875 C-25.12798479 74.67839506 -27.39187722 59.70458544 -27.28515625 45.3125 C-26.8896139 40.71770671 -25.75133262 38.6684435 -23 35 C-22.38125 33.948125 -21.7625 32.89625 -21.125 31.8125 C-18.70507341 28.60965599 -16.41085401 27.09898708 -13 25 C-10.92713433 23.41093409 -8.87469131 21.79955678 -6.83203125 20.171875 C-5 19 -5 19 -2 19 C-2.33 18.01 -2.66 17.02 -3 16 C-3.61767656 9.87074793 -2.79102638 5.46575999 0 0 Z " fill="#FBFBFB" transform="translate(610,156)"/>
<path d="M0 0 C5.77481791 -0.48123483 10.26953246 0.47661728 15 4 C16.93551992 7.11661994 17.20289203 9.34794339 17 13 C16.34 13 15.68 13 15 13 C14.505 9.535 14.505 9.535 14 6 C13.030625 5.690625 12.06125 5.38125 11.0625 5.0625 C8 4 8 4 7 3 C5.33382885 2.95936168 3.66611905 2.957279 2 3 C0.17144572 7.59232335 -0.12514462 10.97358268 0.375 15.875 C0.48585938 17.02742188 0.59671875 18.17984375 0.7109375 19.3671875 C0.80632813 20.23601562 0.90171875 21.10484375 1 22 C-0.2375 22.268125 -1.475 22.53625 -2.75 22.8125 C-10.85706723 25.52342106 -18.92295186 32.9220231 -22.75 40.5625 C-26.68099765 52.03294954 -22.40916427 64.56930147 -17.54296875 75.17578125 C-14.70365071 80.23261417 -12.14962828 83.11669686 -7 86 C-4.35850181 86.71563602 -1.93072079 87.26735351 0.75 87.6875 C1.44867187 87.80778564 2.14734375 87.92807129 2.8671875 88.05200195 C8.21951543 88.94755405 13.58500224 89.62251218 19 90 C19.33 90.99 19.66 91.98 20 93 C18.68 93 17.36 93 16 93 C15.76216797 93.81791016 15.76216797 93.81791016 15.51953125 94.65234375 C10.95530107 109.40413742 10.95530107 109.40413742 5.8515625 112.16015625 C3.58143237 112.91058133 1.33166434 113.47716749 -1 114 C-2.67363977 114.64896236 -4.34461042 115.30580437 -6 116 C-5.93919474 120.10068198 -5.93919474 120.10068198 -5 124 C-0.03206241 127.24436741 4.17047893 127.38863474 10 127 C10.99 126.67 11.98 126.34 13 126 C12.7525 124.91332031 12.7525 124.91332031 12.5 123.8046875 C11.97362345 120.72044988 11.6727166 118.11780499 12 115 C13.80877692 112.87512614 15.63168684 111.6970523 18.0078125 110.25 C20.64856359 108.59305814 21.56460893 106.74029204 23 104 C23.9502911 102.54325004 24.93222214 101.10686254 25.9375 99.6875 C26.42089844 98.99011719 26.90429688 98.29273438 27.40234375 97.57421875 C29 96 29 96 33 96 C34.67578125 98.125 34.67578125 98.125 36.3125 101 C39.41564646 106.19206108 42.85835223 110.60658033 47 115 C45.36587557 116.70840281 44.13093906 117.93453047 42 119 C41.957279 120.66611905 41.95936168 122.33382885 42 124 C43.19503907 125.40523661 43.19503907 125.40523661 46.625 125.375 C50.96600726 125.3594129 53.22131206 123.86063577 56.45703125 121.09375 C58 120 58 120 61 120 C61 119.34 61 118.68 61 118 C61.66 117.67 62.32 117.34 63 117 C63.495 115.515 63.495 115.515 64 114 C63.15695312 113.89042969 62.31390625 113.78085937 61.4453125 113.66796875 C59.80175781 113.43013672 59.80175781 113.43013672 58.125 113.1875 C56.48917969 112.96126953 56.48917969 112.96126953 54.8203125 112.73046875 C52 112 52 112 50 109 C48.94555413 105.76408919 48.02711392 102.50036078 47.09765625 99.2265625 C46.12720588 95.97642329 46.12720588 95.97642329 44.30859375 93.2734375 C43.87675781 92.52320313 43.44492187 91.77296875 43 91 C43.495 89.515 43.495 89.515 44 88 C56.49369371 87.88201129 68.95068345 88.05371306 81.4375 88.5 C99.15407984 89.12192263 116.75071359 89.26480769 134.45776367 88.3581543 C140.98163245 88.02527325 147.46658781 87.87594787 154 88 C153.52348911 93.03195503 151.07133249 96.09381415 148.125 100 C147.23003208 101.20704607 146.33676696 102.41535678 145.4453125 103.625 C145.01887451 104.19694092 144.59243652 104.76888184 144.15307617 105.3581543 C142.84388975 107.15480526 142.84388975 107.15480526 141.43359375 109.89453125 C140 112 140 112 138.02734375 112.63671875 C137.33769531 112.65347656 136.64804687 112.67023438 135.9375 112.6875 C131.99557113 112.5717978 131.99557113 112.5717978 130 115 C129.3574765 117.06874034 129.3574765 117.06874034 129 119 C137.37514394 121.8222318 137.37514394 121.8222318 146 121 C146 119.68 146 118.36 146 117 C146 113 146 113 147.28515625 111.6484375 C147.87167969 111.22820312 148.45820312 110.80796875 149.0625 110.375 C154.1818431 106.30871933 158.07997767 100.84004467 161 95 C164.34871805 96.37763717 165.66730527 97.6453924 167.375 100.8125 C169.73285449 104.84509227 172.2671904 107.22209518 176 110 C175.6875 111.875 175.6875 111.875 175 114 C174.01 114.66 173.02 115.32 172 116 C172.61277612 118.96175123 173.25372522 120.38058783 175 123 C178.05348938 123.49543371 179.53992168 123.27572069 182.203125 121.6796875 C186.64622027 117.83745852 186.64622027 117.83745852 189 112.5625 C189 111.716875 189 110.87125 189 110 C189.33 110 189.66 110 190 110 C190.59341327 113.16487079 190.7096331 115.84553506 190 119 C186.58149809 123.62637259 182.89076534 126.59033418 177.25 127.8125 C172.98306684 126.74576671 171.46444976 125.65933449 169 122 C168.57652941 118.94884011 168.75364721 116.06024906 169 113 C169.03620728 108.73134966 169.03620728 108.73134966 166.5 105.875 C164 103 164 103 164 101 C159.16019671 104.77740744 154.35670524 108.80156268 151 114 C150.96045766 116.33299825 150.95598268 118.66708189 151 121 C147.7459891 124.8234628 146.20515527 125.79914079 141.25 126.625 C135.95845347 126.31735195 131.51029759 123.58787566 127 121 C126.63432836 114.66169154 126.63432836 114.66169154 128.3125 111.625 C131.73085985 108.33324607 135.51834178 108.91544041 140 109 C140.10634766 108.21882813 140.10634766 108.21882813 140.21484375 107.421875 C141.34415605 103.93842413 143.44888755 101.19546298 145.5625 98.25 C146.19961914 97.34701172 146.19961914 97.34701172 146.84960938 96.42578125 C147.89435522 94.94670286 148.94646016 93.47282741 150 92 C148.75476563 92.16113281 147.50953125 92.32226562 146.2265625 92.48828125 C137.63422789 93.33729647 129.00010831 93.19426391 120.375 93.1875 C119.43555542 93.1882251 118.49611084 93.1889502 117.52819824 93.18969727 C94.32614713 93.18774678 71.16930656 92.14717662 48 91 C48.3609375 92.05960937 48.721875 93.11921875 49.09375 94.2109375 C49.56265793 95.59890499 50.03139931 96.98692875 50.5 98.375 C50.85771484 99.42300781 50.85771484 99.42300781 51.22265625 100.4921875 C53 105.7734375 53 105.7734375 53 108 C53.67546875 108.03738281 54.3509375 108.07476562 55.046875 108.11328125 C55.93890625 108.17902344 56.8309375 108.24476563 57.75 108.3125 C58.63171875 108.37050781 59.5134375 108.42851562 60.421875 108.48828125 C63.37638417 109.07470655 64.8336774 109.9276503 67 112 C67.625 114.875 67.625 114.875 67 118 C65.00707574 120.04402488 63.31459112 121.40752305 61 123 C60.33484375 123.54269531 59.6696875 124.08539063 58.984375 124.64453125 C53.72729034 128.68189663 49.8868308 129.61500059 43.28515625 129.30859375 C41 129 41 129 39 128 C37.75424694 124.26274081 37.51106557 120.91147543 38 117 C39.5 115 39.5 115 41 114 C39.515 113.01 39.515 113.01 38 112 C36.6484375 109.94140625 36.6484375 109.94140625 35.375 107.5625 C34.94960938 106.78003906 34.52421875 105.99757813 34.0859375 105.19140625 C33 103 33 103 32 100 C31.34 100 30.68 100 30 100 C29.62875 100.8353125 29.62875 100.8353125 29.25 101.6875 C27.76258717 104.43921374 26.0172356 106.60112523 24 109 C23.13568359 110.03833984 23.13568359 110.03833984 22.25390625 111.09765625 C21.63386719 111.82855469 21.01382813 112.55945313 20.375 113.3125 C19.78460937 114.00988281 19.19421875 114.70726562 18.5859375 115.42578125 C17 117 17 117 15 117 C15.33 117.66 15.66 118.32 16 119 C16.40609659 122.05732719 16.47507553 124.94833839 16 128 C13.26216018 130.91447465 10.53116764 131.2114019 6.6875 131.4375 C0.93150546 131.25461723 -3.93698606 129.06301394 -8 125 C-8.68512668 121.57436662 -8.69660102 118.423605 -8 115 C-5.14739786 111.30635711 -1.3873631 110.09078823 3 109.0625 C6.92464308 107.80538776 8.20215397 105.36621979 10.05078125 101.79272461 C11.44229402 98.88980277 12.74647136 95.9653787 14 93 C12.205625 93.0928125 12.205625 93.0928125 10.375 93.1875 C1.49825182 93.1454301 -8.41222559 91.90141512 -15.32421875 85.921875 C-25.12798479 74.67839506 -27.39187722 59.70458544 -27.28515625 45.3125 C-26.8896139 40.71770671 -25.75133262 38.6684435 -23 35 C-22.38125 33.948125 -21.7625 32.89625 -21.125 31.8125 C-18.70507341 28.60965599 -16.41085401 27.09898708 -13 25 C-10.92713433 23.41093409 -8.87469131 21.79955678 -6.83203125 20.171875 C-5 19 -5 19 -2 19 C-2.33 18.01 -2.66 17.02 -3 16 C-3.61767656 9.87074793 -2.79102638 5.46575999 0 0 Z " fill="#121212" transform="translate(610,156)"/>
<path d="M0 0 C4.36720238 0.86357109 7.28681841 2.85395906 9.765625 6.546875 C10.50231345 8.85905558 11.18035807 11.19180568 11.765625 13.546875 C14.89060437 13.57644176 18.01554677 13.59386043 21.140625 13.609375 C22.01074219 13.61775391 22.88085938 13.62613281 23.77734375 13.63476562 C24.64746094 13.63798828 25.51757812 13.64121094 26.4140625 13.64453125 C27.59234619 13.65238647 27.59234619 13.65238647 28.79443359 13.66040039 C31.39802174 13.56092065 33.92885446 13.33232578 36.51757812 13.0534668 C41.38484472 12.54682539 46.19487509 12.37080892 51.0859375 12.34375 C51.9394429 12.33691696 52.7929483 12.33008392 53.6723175 12.32304382 C56.41179428 12.30608251 59.15109883 12.29972065 61.890625 12.296875 C62.82770294 12.29487091 63.76478088 12.29286682 64.73025513 12.290802 C77.57443969 12.28407679 89.95480664 12.85970774 102.6640625 14.81640625 C108.6314379 15.73490285 114.59266708 16.0354399 120.62084961 16.25561523 C125.07284518 16.42204025 129.36467317 16.84133476 133.765625 17.546875 C133.765625 18.536875 133.765625 19.526875 133.765625 20.546875 C128.32102308 20.14140969 122.87670583 19.73236811 117.43261719 19.32006836 C115.58210451 19.18042229 113.73151891 19.04173892 111.88085938 18.90405273 C109.21464414 18.70552004 106.54871378 18.50348096 103.8828125 18.30078125 C103.06070282 18.2403212 102.23859314 18.17986115 101.39157104 18.11756897 C98.1978209 17.87206233 95.10077546 17.61105522 91.9519043 17.00805664 C86.87200142 16.27279218 81.79365962 16.40486499 76.66796875 16.4140625 C75.48328506 16.41310577 74.29860138 16.41214905 73.07801819 16.41116333 C70.56560208 16.41048328 68.05318421 16.41232539 65.54077148 16.41650391 C61.76867509 16.42178326 57.99670172 16.41659031 54.22460938 16.41015625 C47.07084714 16.406499 39.91877214 16.45376428 32.765625 16.546875 C31.68839172 16.56012817 30.61115845 16.57338135 29.50128174 16.58703613 C26.54775701 16.63496328 23.59698315 16.71297864 20.64453125 16.8046875 C19.77948471 16.81829315 18.91443817 16.8318988 18.0231781 16.84591675 C13.40629575 16.94917786 13.40629575 16.94917786 9.83569336 19.59326172 C9.4825708 20.2379541 9.12944824 20.88264648 8.765625 21.546875 C8.105625 21.546875 7.445625 21.546875 6.765625 21.546875 C6.86101563 20.79921875 6.95640625 20.0515625 7.0546875 19.28125 C7.16554688 18.29640625 7.27640625 17.3115625 7.390625 16.296875 C7.50664063 15.32234375 7.62265625 14.3478125 7.7421875 13.34375 C7.76720015 10.35890745 7.43421984 8.9897851 5.765625 6.546875 C1.77174508 4.00531505 -1.5094694 2.62243695 -6.234375 3.546875 C-9.75613241 7.53202155 -10.234375 9.11074687 -10.234375 14.546875 C-23.599375 15.041875 -23.599375 15.041875 -37.234375 15.546875 C-37.234375 14.886875 -37.234375 14.226875 -37.234375 13.546875 C-34.27929053 12.71316141 -31.53327887 12.36797966 -28.46875 12.23046875 C-27.13457031 12.16762695 -27.13457031 12.16762695 -25.7734375 12.10351562 C-24.39285156 12.04454102 -24.39285156 12.04454102 -22.984375 11.984375 C-22.04851563 11.94119141 -21.11265625 11.89800781 -20.1484375 11.85351562 C-17.84388859 11.7476945 -15.53923661 11.64560943 -13.234375 11.546875 C-13.09773437 10.61617187 -12.96109375 9.68546875 -12.8203125 8.7265625 C-11.37946278 0.90755136 -7.34250218 -0.35338246 0 0 Z " fill="#181818" transform="translate(666.234375,155.453125)"/>
<path d="M0 0 C0.02917234 3.87498404 0.04685673 7.74993958 0.0625 11.625 C0.07087891 12.71941406 0.07925781 13.81382812 0.08789062 14.94140625 C0.09272461 16.53662109 0.09272461 16.53662109 0.09765625 18.1640625 C0.10551147 19.62513428 0.10551147 19.62513428 0.11352539 21.11572266 C-0.00585494 24.14875321 -0.44133276 27.01915268 -1 30 C-1.33 30 -1.66 30 -2 30 C-2 27.36 -2 24.72 -2 22 C-5.63 22 -9.26 22 -13 22 C-14.1560727 19.7965194 -15.29984721 17.58796844 -16.4375 15.375 C-16.92573242 14.44880859 -16.92573242 14.44880859 -17.42382812 13.50390625 C-19.38259628 9.66714389 -20.53221258 6.28256092 -21 2 C-18 1 -18 1 -16.0546875 1.49609375 C-13.19432265 2.19759007 -10.9526314 1.31548045 -8.1953125 0.47265625 C-5.43208544 -0.12227342 -2.81760901 -0.0682327 0 0 Z " fill="#1B1B1B" transform="translate(800,242)"/>
<path d="M0 0 C4.36720238 0.86357109 7.28681841 2.85395906 9.765625 6.546875 C10.425625 8.856875 11.085625 11.166875 11.765625 13.546875 C17.705625 13.876875 23.645625 14.206875 29.765625 14.546875 C29.765625 14.876875 29.765625 15.206875 29.765625 15.546875 C23.825625 15.546875 17.885625 15.546875 11.765625 15.546875 C11.105625 17.196875 10.445625 18.846875 9.765625 20.546875 C8.775625 20.876875 7.785625 21.206875 6.765625 21.546875 C6.86101563 20.79921875 6.95640625 20.0515625 7.0546875 19.28125 C7.16554688 18.29640625 7.27640625 17.3115625 7.390625 16.296875 C7.50664063 15.32234375 7.62265625 14.3478125 7.7421875 13.34375 C7.76720015 10.35890745 7.43421984 8.9897851 5.765625 6.546875 C1.77174508 4.00531505 -1.5094694 2.62243695 -6.234375 3.546875 C-9.75613241 7.53202155 -10.234375 9.11074687 -10.234375 14.546875 C-23.599375 15.041875 -23.599375 15.041875 -37.234375 15.546875 C-37.234375 14.886875 -37.234375 14.226875 -37.234375 13.546875 C-34.27929053 12.71316141 -31.53327887 12.36797966 -28.46875 12.23046875 C-27.13457031 12.16762695 -27.13457031 12.16762695 -25.7734375 12.10351562 C-24.39285156 12.04454102 -24.39285156 12.04454102 -22.984375 11.984375 C-22.04851563 11.94119141 -21.11265625 11.89800781 -20.1484375 11.85351562 C-17.84388859 11.7476945 -15.53923661 11.64560943 -13.234375 11.546875 C-13.09773437 10.61617187 -12.96109375 9.68546875 -12.8203125 8.7265625 C-11.37946278 0.90755136 -7.34250218 -0.35338246 0 0 Z " fill="#060606" transform="translate(666.234375,155.453125)"/>
<path d="M0 0 C0 4.95 0 9.9 0 15 C-9.50268817 14.50635386 -9.50268817 14.50635386 -11.71875 12.25 C-13.03304676 9.94196667 -13.90453643 7.78531061 -14.6875 5.25 C-14.93886719 4.45078125 -15.19023438 3.6515625 -15.44921875 2.828125 C-15.63097656 2.22484375 -15.81273437 1.6215625 -16 1 C-14.45876053 0.82942804 -12.91697919 0.66375 -11.375 0.5 C-10.51648438 0.4071875 -9.65796875 0.314375 -8.7734375 0.21875 C-5.85710662 -0.01127046 -2.92538805 0 0 0 Z " fill="#FAFAFA" transform="translate(800,246)"/>
<path d="M0 0 C0.66 0.33 1.32 0.66 2 1 C1.34 1.66 0.68 2.32 0 3 C-0.02216617 6.32935866 0.19899728 9.61190784 0.41796875 12.93359375 C0 16 0 16 -2.2421875 17.8828125 C-7.00279636 19.8113311 -11.43008534 19.93411574 -16.2890625 18.16796875 C-19.30113904 16.7057425 -21.62151544 15.37848456 -24 13 C-24.26991906 10.31160615 -24.08737357 7.70858064 -24 5 C-23.34 4.67 -22.68 4.34 -22 4 C-21.979375 5.258125 -21.95875 6.51625 -21.9375 7.8125 C-21.72892971 10.01247726 -21.72892971 10.01247726 -21 12 C-16.03206241 15.24436741 -11.82952107 15.38863474 -6 15 C-5.01 14.67 -4.02 14.34 -3 14 C-3.11859375 13.24074219 -3.2371875 12.48148437 -3.359375 11.69921875 C-3.48828125 10.70535156 -3.6171875 9.71148437 -3.75 8.6875 C-3.88921875 7.70136719 -4.0284375 6.71523438 -4.171875 5.69921875 C-4 3 -4 3 -2.015625 1.14453125 C-1.35046875 0.76683594 -0.6853125 0.38914062 0 0 Z " fill="#0D0D0D" transform="translate(626,268)"/>
<path d="M0 0 C-2.44558634 2.44558634 -3.57408069 2.3351289 -6.9375 2.75 C-11.19451576 3.50081022 -11.19451576 3.50081022 -14.125 6.6875 C-15.29923323 11.1328115 -15.73268562 14.914664 -14.1875 19.3125 C-12.94032008 21.30067478 -12.94032008 21.30067478 -10 23 C-7.24582682 23.30066154 -4.57354853 23.50925299 -1.8125 23.625 C-1.06291016 23.66367188 -0.31332031 23.70234375 0.45898438 23.7421875 C2.30559199 23.83628216 4.1527619 23.91922319 6 24 C5.34 24.99 4.68 25.98 4 27 C1.60160083 26.93966291 -0.7908385 26.85255482 -3.1875 26.75 C-4.19780273 26.72873047 -4.19780273 26.72873047 -5.22851562 26.70703125 C-10.07339254 26.47069579 -12.58555088 25.42069126 -16 22 C-18.84589067 17.731164 -18.49928196 14.00842212 -18 9 C-16.7762146 5.45746332 -15.69083992 3.62803629 -12.9375 1.125 C-8.6406741 -0.5205929 -4.54770019 -0.23842312 0 0 Z " fill="#090909" transform="translate(625,193)"/>
<path d="M0 0 C0.66 0.33 1.32 0.66 2 1 C1.566875 1.77923828 1.566875 1.77923828 1.125 2.57421875 C0.75375 3.27160156 0.3825 3.96898437 0 4.6875 C-0.37125 5.37199219 -0.7425 6.05648437 -1.125 6.76171875 C-2.30341075 9.37559673 -2.30341075 9.37559673 -2 14 C-15.365 14.495 -15.365 14.495 -29 15 C-29 14.34 -29 13.68 -29 13 C-26.04491553 12.16628641 -23.29890387 11.82110466 -20.234375 11.68359375 C-18.90019531 11.62075195 -18.90019531 11.62075195 -17.5390625 11.55664062 C-16.15847656 11.49766602 -16.15847656 11.49766602 -14.75 11.4375 C-13.81414063 11.39431641 -12.87828125 11.35113281 -11.9140625 11.30664062 C-9.60951359 11.2008195 -7.30486161 11.09873443 -5 11 C-4.87753906 10.06929687 -4.75507812 9.13859375 -4.62890625 8.1796875 C-3.89766582 4.48260853 -2.50861092 2.75137972 0 0 Z " fill="#0F0F0F" transform="translate(658,156)"/>
<path d="M0 0 C0.66 0.33 1.32 0.66 2 1 C-0.18491374 5.5063846 -3.30409006 8.18478039 -7.05859375 11.3515625 C-9.15392452 13.13069648 -11.09673417 15.01743143 -13 17 C-13 12.15769617 -11.96788373 10.74890577 -9 7 C-7.04402816 5.60287726 -5.04563599 4.26220093 -3 3 C-1.20605554 1.37648891 -1.20605554 1.37648891 0 0 Z " fill="#0C0C0C" transform="translate(600,178)"/>
<path d="M0 0 C0.66 0 1.32 0 2 0 C2.25 7.625 2.25 7.625 0 11 C-2.5 11.375 -2.5 11.375 -5 11 C-7.4294516 7.3558226 -7.16179575 5.28758728 -7 1 C-6.34 1 -5.68 1 -5 1 C-4.67 3.31 -4.34 5.62 -4 8 C-3.01 7.67 -2.02 7.34 -1 7 C-0.67 4.69 -0.34 2.38 0 0 Z " fill="#020202" transform="translate(741,215)"/>
<path d="M0 0 C0.99 0 1.98 0 3 0 C3 2.64 3 5.28 3 8 C3.66 7.67 4.32 7.34 5 7 C5 5.02 5 3.04 5 1 C5.99 1 6.98 1 8 1 C8.1953125 7.0546875 8.1953125 7.0546875 8 9 C7.34 9.66 6.68 10.32 6 11 C3.06546739 10.63318342 2.13562754 10.13562754 0 8 C-0.26991906 5.31160615 -0.08737357 2.70858064 0 0 Z " fill="#030303" transform="translate(681,188)"/>
<path d="M0 0 C0.66 0 1.32 0 2 0 C2.1953125 6.0546875 2.1953125 6.0546875 2 8 C1.34 8.66 0.68 9.32 0 10 C-3.53571429 9.46428571 -3.53571429 9.46428571 -5 8 C-5.04080783 6.00041636 -5.04254356 3.99954746 -5 2 C-4.34 2 -3.68 2 -3 2 C-3 3.32 -3 4.64 -3 6 C-2.01 6 -1.02 6 0 6 C0 4.02 0 2.04 0 0 Z " fill="#020202" transform="translate(672,199)"/>
<path d="M0 0 C-2.85844182 2.85844182 -5.77691961 2.70789309 -9.6875 3.2421875 C-12.16625785 3.76562399 -12.16625785 3.76562399 -13.125 6.0078125 C-13.41375 6.66523438 -13.7025 7.32265625 -14 8 C-14.99 8.33 -15.98 8.66 -17 9 C-16.18221657 5.65452231 -15.54207779 3.50819792 -13 1.125 C-8.66810933 -0.499459 -4.57459564 -0.23983317 0 0 Z " fill="#141414" transform="translate(625,193)"/>
<path d="M0 0 C0.66 0 1.32 0 2 0 C2.33 1.65 2.66 3.3 3 5 C3.99 5 4.98 5 6 5 C6 3.35 6 1.7 6 0 C6.66 0 7.32 0 8 0 C8.125 2.875 8.125 2.875 8 6 C7.34 6.66 6.68 7.32 6 8 C3.06546739 7.63318342 2.13562754 7.13562754 0 5 C-0.125 2.375 -0.125 2.375 0 0 Z " fill="#1A1A1A" transform="translate(769,190)"/>
<path d="M0 0 C4.60470588 1.45411765 4.60470588 1.45411765 6.3125 3.8125 C7.09802451 6.31189617 7.14472595 8.39493282 7 11 C6.34 11 5.68 11 5 11 C4.67 8.69 4.34 6.38 4 4 C2.02 3.34 0.04 2.68 -2 2 C-1.34 1.34 -0.68 0.68 0 0 Z " fill="#262626" transform="translate(620,158)"/>
<path d="M0 0 C0.99 0.33 1.98 0.66 3 1 C0.525 5.455 0.525 5.455 -2 10 C-2.66 9.67 -3.32 9.34 -4 9 C-3.35455571 5.51460083 -1.89865603 2.97180943 0 0 Z " fill="#1F1F1F" transform="translate(754,256)"/>
<path d="M0 0 C0.33 0 0.66 0 1 0 C1.66 3.63 2.32 7.26 3 11 C2.01 10.67 1.02 10.34 0 10 C-1.49106457 7.01787087 -1.11941467 4.28390342 -1 1 C-0.67 0.67 -0.34 0.34 0 0 Z " fill="#060606" transform="translate(608,164)"/>
<path d="M0 0 C1.485 0.99 1.485 0.99 3 2 C2.67 3.65 2.34 5.3 2 7 C1.34 7 0.68 7 0 7 C-0.38133299 5.0085944 -0.71325582 3.00720923 -1 1 C-0.67 0.67 -0.34 0.34 0 0 Z " fill="#D5D5D5" transform="translate(684,189)"/>
<path d="M0 0 C-2 3 -2 3 -5.125 3.6875 C-6.07375 3.790625 -7.0225 3.89375 -8 4 C-7 1 -7 1 -5.125 -0.25 C-3 -1 -3 -1 0 0 Z " fill="#1C1C1C" transform="translate(620,264)"/>
<path d="M0 0 C1.670625 0.061875 1.670625 0.061875 3.375 0.125 C3.375 1.115 3.375 2.105 3.375 3.125 C0.405 2.795 -2.565 2.465 -5.625 2.125 C-3.625 0.125 -3.625 0.125 0 0 Z " fill="#0E0E0E" transform="translate(796.625,172.875)"/>
<path d="M0 0 C0.99 0.33 1.98 0.66 3 1 C2.34 2.98 1.68 4.96 1 7 C0.01 7 -0.98 7 -2 7 C-1.34 4.69 -0.68 2.38 0 0 Z " fill="#191919" transform="translate(609,158)"/>
</svg>
