<?xml version="1.0" encoding="UTF-8"?>
<svg version="1.1" xmlns="http://www.w3.org/2000/svg" width="800" height="300">
<path d="M0 0 C264 0 528 0 800 0 C800 99 800 198 800 300 C536 300 272 300 0 300 C0 201 0 102 0 0 Z " fill="#FEFEFE" transform="translate(0,0)"/>
<path d="M0 0 C0.33 0 0.66 0 1 0 C1 22.11 1 44.22 1 67 C-6.88392611 62.49489937 -6.88392611 62.49489937 -9.3125 57.5625 C-10.01826172 56.17224609 -10.01826172 56.17224609 -10.73828125 54.75390625 C-15.63297946 44.07043183 -19.96112846 30.26301722 -16.23828125 18.6171875 C-15.28164365 16.62828878 -14.22033954 14.83679972 -13 13 C-12.360625 11.906875 -11.72125 10.81375 -11.0625 9.6875 C-8.88846431 6.85466561 -7.09246719 5.70085696 -4 4 C-2.64802142 2.68557638 -1.30973998 1.3565164 0 0 Z " fill="#FCFCFC" transform="translate(799,178)"/>
<path d="M0 0 C0.33 1.32 0.66 2.64 1 4 C0.28972656 4.61488281 -0.42054688 5.22976562 -1.15234375 5.86328125 C-2.07144531 6.67152344 -2.99054687 7.47976562 -3.9375 8.3125 C-4.85402344 9.11300781 -5.77054688 9.91351563 -6.71484375 10.73828125 C-9.20513976 12.86238922 -9.20513976 12.86238922 -10 16 C-10.66 16 -11.32 16 -12 16 C-14.88368066 25.04638531 -13.76998406 36.46872132 -10 45 C-9.62488281 46.0003125 -9.24976563 47.000625 -8.86328125 48.03125 C-6.48381315 54.56554038 -6.48381315 54.56554038 -2.25 59.9375 C0.3110124 62.2850947 0.70842768 63.59832288 1 67 C-7.1154833 63.59149701 -9.70347567 57.32490807 -13.06640625 49.52734375 C-16.53336646 40.1418908 -19.37450081 28.42792561 -16.23828125 18.6171875 C-15.28164365 16.62828878 -14.22033954 14.83679972 -13 13 C-12.360625 11.906875 -11.72125 10.81375 -11.0625 9.6875 C-8.88846431 6.85466561 -7.09246719 5.70085696 -4 4 C-2.63015802 2.70420353 -1.2848951 1.38007251 0 0 Z " fill="#111111" transform="translate(799,178)"/>
</svg>
