<?xml version="1.0" encoding="UTF-8"?>
<svg version="1.1" xmlns="http://www.w3.org/2000/svg" width="800" height="300">
<path d="M0 0 C264 0 528 0 800 0 C800 99 800 198 800 300 C536 300 272 300 0 300 C0 201 0 102 0 0 Z " fill="#FEFEFE" transform="translate(0,0)"/>
<path d="M0 0 C4.56424354 1.62172756 7.5272917 5.83328741 10.1328125 9.7578125 C11.42444206 13.12504579 11.0725087 13.99902771 10.1328125 17.7578125 C47.7528125 17.7578125 85.3728125 17.7578125 124.1328125 17.7578125 C124.4628125 14.4578125 124.7928125 11.1578125 125.1328125 7.7578125 C126.70199742 6.18862758 128.27366409 6.47522307 130.4453125 6.3828125 C133.87214544 6.44264609 134.80659709 6.49851307 137.5703125 8.6953125 C139.29973253 12.08497575 140.03443456 15.13107498 140.640625 18.8671875 C140.88425781 19.80304688 140.88425781 19.80304688 141.1328125 20.7578125 C141.7928125 21.0878125 142.4528125 21.4178125 143.1328125 21.7578125 C143.1328125 22.4178125 143.1328125 23.0778125 143.1328125 23.7578125 C143.71289062 23.89316406 144.29296875 24.02851563 144.890625 24.16796875 C151.0743012 25.87205113 154.89093092 28.12112163 158.1328125 33.7578125 C159.09217877 36.32782214 159.84653392 38.85804707 160.4921875 41.5234375 C161.08354201 44.01312762 161.08354201 44.01312762 163.1328125 46.7578125 C163.37573242 49.10205078 163.37573242 49.10205078 163.36328125 51.828125 C163.36134766 52.80652344 163.35941406 53.78492188 163.35742188 54.79296875 C163.34517578 55.81261719 163.33292969 56.83226562 163.3203125 57.8828125 C163.3193457 59.42388672 163.3193457 59.42388672 163.31835938 60.99609375 C163.27305336 68.61757164 163.27305336 68.61757164 162.1328125 69.7578125 C162.0503125 70.8303125 161.9678125 71.9028125 161.8828125 73.0078125 C160.67132643 79.06524284 156.71815678 81.43895286 151.8828125 84.8203125 C145.31815286 89.0590828 138.40794124 91.79970307 130.98046875 94.14453125 C129.06931848 94.73011054 129.06931848 94.73011054 127.1328125 95.7578125 C128.339375 96.53125 128.339375 96.53125 129.5703125 97.3203125 C132.79728328 100.38987007 132.88177507 102.40649709 133.1328125 106.7578125 C133.69871094 106.96277344 134.26460937 107.16773438 134.84765625 107.37890625 C135.58113281 107.64832031 136.31460938 107.91773438 137.0703125 108.1953125 C137.80121094 108.46214844 138.53210938 108.72898437 139.28515625 109.00390625 C141.1328125 109.7578125 141.1328125 109.7578125 142.1328125 110.7578125 C142.70530952 114.86070782 142.33702278 116.45149708 140.0078125 119.9453125 C136.43233675 123.77187504 132.95690233 125.59198615 127.6953125 126.0703125 C123.87721613 125.73539177 120.76434621 124.94361942 117.1328125 123.7578125 C117.09039527 121.42486475 117.09188313 119.09078683 117.1328125 116.7578125 C117.4628125 116.4278125 117.7928125 116.0978125 118.1328125 115.7578125 C118.47638408 112.11595374 118.70438838 109.67681686 116.73828125 106.515625 C112.6696017 103.7706388 108.88748616 104.54600152 104.1328125 104.9453125 C102.72672729 105.03897095 102.72672729 105.03897095 101.29223633 105.13452148 C98.57031163 105.32090317 95.85198521 105.5352265 93.1328125 105.7578125 C91.78259954 105.86000401 90.43234525 105.96165244 89.08203125 106.0625 C86.42949143 106.27216183 83.78104351 106.50011714 81.1328125 106.7578125 C81.29007813 107.304375 81.44734375 107.8509375 81.609375 108.4140625 C82.60085792 112.85353826 82.70062858 117.24948967 82.1328125 121.7578125 C80.3203125 124.4453125 80.3203125 124.4453125 77.1328125 125.7578125 C70.82482231 126.56308784 65.5767993 126.33938276 60.1328125 122.7578125 C58.57247627 121.19747627 58.92573691 119.66834114 58.8828125 117.5078125 C58.93460785 113.42892853 59.4734808 110.987001 62.1328125 107.7578125 C64.7617406 105.37534641 65.52115428 104.7578125 69.1328125 104.7578125 C69.7928125 102.4478125 70.4528125 100.1378125 71.1328125 97.7578125 C69.8638916 97.78810547 68.5949707 97.81839844 67.28759766 97.84960938 C62.4902831 97.96356501 57.69290625 98.07469591 52.89550781 98.18505859 C50.83592005 98.23281436 48.7763489 98.28129324 46.71679688 98.33056641 C33.8527005 98.63774999 21.00067857 98.83061514 8.1328125 98.7578125 C9.1228125 100.1190625 9.1228125 100.1190625 10.1328125 101.5078125 C12.1328125 104.7578125 12.1328125 104.7578125 12.1328125 108.7578125 C13.5559375 108.9434375 13.5559375 108.9434375 15.0078125 109.1328125 C18.1328125 109.7578125 18.1328125 109.7578125 20.1328125 111.7578125 C20.62634211 115.45928459 20.42129709 117.26960781 18.5078125 120.5078125 C13.55581514 125.19917842 8.11609403 125.00430951 1.62109375 125.12109375 C-0.8671875 124.7578125 -0.8671875 124.7578125 -2.68359375 123.484375 C-4.70044854 120.5422964 -4.16925118 117.16975911 -3.8671875 113.7578125 C-3.3671875 111.2578125 -3.3671875 111.2578125 -2.8671875 109.7578125 C-7.55261312 107.9142469 -11.70327801 107.47943206 -16.6796875 107.5703125 C-17.43507813 107.57748291 -18.19046875 107.58465332 -18.96875 107.59204102 C-26.10389073 107.68805816 -33.23644197 107.93496177 -40.3671875 108.1953125 C-42.02391479 108.25392456 -42.02391479 108.25392456 -43.71411133 108.3137207 C-44.74431396 108.35585693 -45.7745166 108.39799316 -46.8359375 108.44140625 C-47.75826172 108.47806396 -48.68058594 108.51472168 -49.63085938 108.55249023 C-51.90353037 108.62449847 -51.90353037 108.62449847 -53.8671875 109.7578125 C-54.1971875 110.7478125 -54.5271875 111.7378125 -54.8671875 112.7578125 C-53.2171875 113.4178125 -51.5671875 114.0778125 -49.8671875 114.7578125 C-49.50897854 120.13094683 -49.50897854 120.13094683 -50.8671875 122.5078125 C-56.40925838 125.9716068 -64.48785638 127.02015364 -70.8671875 125.7578125 C-74.14633811 122.63481192 -75.084556 119.98109553 -75.3046875 115.5703125 C-74.8671875 111.7578125 -74.8671875 111.7578125 -73.5546875 109.9453125 C-72.719375 109.3575 -72.719375 109.3575 -71.8671875 108.7578125 C-69.73077223 106.80717247 -68.48728559 105.14506748 -66.9296875 102.6328125 C-64.8671875 99.7578125 -64.8671875 99.7578125 -62.6171875 98.8828125 C-62.0396875 98.8415625 -61.4621875 98.8003125 -60.8671875 98.7578125 C-60.8671875 98.0978125 -60.8671875 97.4378125 -60.8671875 96.7578125 C-62.1665625 96.3865625 -62.1665625 96.3865625 -63.4921875 96.0078125 C-67.07778814 94.67981226 -69.83046737 93.07150402 -72.8671875 90.7578125 C-72.8671875 90.0978125 -72.8671875 89.4378125 -72.8671875 88.7578125 C-73.48335937 88.50386719 -74.09953125 88.24992187 -74.734375 87.98828125 C-77.19297419 86.56985864 -77.80544682 85.60834193 -78.9921875 83.0703125 C-79.30414063 82.42707031 -79.61609375 81.78382813 -79.9375 81.12109375 C-82.83112078 73.76546108 -83.20311082 67.3874167 -83.1796875 59.5078125 C-83.19580078 58.43917969 -83.21191406 57.37054688 -83.22851562 56.26953125 C-83.23346026 48.13066907 -82.73460536 39.04704699 -77.6171875 32.3203125 C-74.59082603 29.50029385 -71.53659365 27.58195107 -67.8671875 25.7578125 C-67.02027344 25.31050781 -66.17335937 24.86320312 -65.30078125 24.40234375 C-58.28735557 20.7578125 -58.28735557 20.7578125 -54.8671875 20.7578125 C-55.1971875 20.0978125 -55.5271875 19.4378125 -55.8671875 18.7578125 C-56.242488 13.12830507 -55.97789391 9.66315722 -52.8671875 4.7578125 C-50.37963964 3.51403857 -48.64063449 3.62475015 -45.8671875 3.6328125 C-44.9803125 3.63023437 -44.0934375 3.62765625 -43.1796875 3.625 C-40.8671875 3.7578125 -40.8671875 3.7578125 -38.8671875 4.7578125 C-38.8671875 5.4178125 -38.8671875 6.0778125 -38.8671875 6.7578125 C-38.2071875 6.7578125 -37.5471875 6.7578125 -36.8671875 6.7578125 C-36.3721875 11.7078125 -36.3721875 11.7078125 -35.8671875 16.7578125 C-33.5778125 16.5103125 -33.5778125 16.5103125 -31.2421875 16.2578125 C-24.4476332 15.62885115 -17.68473857 15.66823884 -10.8671875 15.7578125 C-10.92519531 15.09394531 -10.98320312 14.43007812 -11.04296875 13.74609375 C-11.27606953 9.18397855 -11.38205994 6.56230069 -8.8671875 2.6328125 C-5.84856777 0.74617517 -3.60692931 -0.2057184 0 0 Z " fill="#FCFCFC" transform="translate(243.8671875,160.2421875)"/>
<path d="M0 0 C4.56424354 1.62172756 7.5272917 5.83328741 10.1328125 9.7578125 C11.42444206 13.12504579 11.0725087 13.99902771 10.1328125 17.7578125 C47.7528125 17.7578125 85.3728125 17.7578125 124.1328125 17.7578125 C124.4628125 14.4578125 124.7928125 11.1578125 125.1328125 7.7578125 C126.70199742 6.18862758 128.27366409 6.47522307 130.4453125 6.3828125 C133.87214544 6.44264609 134.80659709 6.49851307 137.5703125 8.6953125 C139.29973253 12.08497575 140.03443456 15.13107498 140.640625 18.8671875 C140.88425781 19.80304688 140.88425781 19.80304688 141.1328125 20.7578125 C141.7928125 21.0878125 142.4528125 21.4178125 143.1328125 21.7578125 C143.1328125 22.4178125 143.1328125 23.0778125 143.1328125 23.7578125 C143.71289062 23.89316406 144.29296875 24.02851563 144.890625 24.16796875 C151.0743012 25.87205113 154.89093092 28.12112163 158.1328125 33.7578125 C159.09217877 36.32782214 159.84653392 38.85804707 160.4921875 41.5234375 C161.08354201 44.01312762 161.08354201 44.01312762 163.1328125 46.7578125 C163.37573242 49.10205078 163.37573242 49.10205078 163.36328125 51.828125 C163.36134766 52.80652344 163.35941406 53.78492188 163.35742188 54.79296875 C163.34517578 55.81261719 163.33292969 56.83226562 163.3203125 57.8828125 C163.3193457 59.42388672 163.3193457 59.42388672 163.31835938 60.99609375 C163.27305336 68.61757164 163.27305336 68.61757164 162.1328125 69.7578125 C162.0503125 70.8303125 161.9678125 71.9028125 161.8828125 73.0078125 C160.67132643 79.06524284 156.71815678 81.43895286 151.8828125 84.8203125 C145.31815286 89.0590828 138.40794124 91.79970307 130.98046875 94.14453125 C129.06931848 94.73011054 129.06931848 94.73011054 127.1328125 95.7578125 C128.339375 96.53125 128.339375 96.53125 129.5703125 97.3203125 C132.79728328 100.38987007 132.88177507 102.40649709 133.1328125 106.7578125 C133.69871094 106.96277344 134.26460937 107.16773438 134.84765625 107.37890625 C135.58113281 107.64832031 136.31460938 107.91773438 137.0703125 108.1953125 C137.80121094 108.46214844 138.53210938 108.72898437 139.28515625 109.00390625 C141.1328125 109.7578125 141.1328125 109.7578125 142.1328125 110.7578125 C142.70530952 114.86070782 142.33702278 116.45149708 140.0078125 119.9453125 C136.43233675 123.77187504 132.95690233 125.59198615 127.6953125 126.0703125 C123.87721613 125.73539177 120.76434621 124.94361942 117.1328125 123.7578125 C117.09039527 121.42486475 117.09188313 119.09078683 117.1328125 116.7578125 C117.4628125 116.4278125 117.7928125 116.0978125 118.1328125 115.7578125 C118.47638408 112.11595374 118.70438838 109.67681686 116.73828125 106.515625 C112.6696017 103.7706388 108.88748616 104.54600152 104.1328125 104.9453125 C102.72672729 105.03897095 102.72672729 105.03897095 101.29223633 105.13452148 C98.57031163 105.32090317 95.85198521 105.5352265 93.1328125 105.7578125 C91.78259954 105.86000401 90.43234525 105.96165244 89.08203125 106.0625 C86.42949143 106.27216183 83.78104351 106.50011714 81.1328125 106.7578125 C81.29007813 107.304375 81.44734375 107.8509375 81.609375 108.4140625 C82.60085792 112.85353826 82.70062858 117.24948967 82.1328125 121.7578125 C80.3203125 124.4453125 80.3203125 124.4453125 77.1328125 125.7578125 C70.82482231 126.56308784 65.5767993 126.33938276 60.1328125 122.7578125 C58.57247627 121.19747627 58.92573691 119.66834114 58.8828125 117.5078125 C58.93460785 113.42892853 59.4734808 110.987001 62.1328125 107.7578125 C64.7617406 105.37534641 65.52115428 104.7578125 69.1328125 104.7578125 C69.7928125 102.4478125 70.4528125 100.1378125 71.1328125 97.7578125 C69.8638916 97.78810547 68.5949707 97.81839844 67.28759766 97.84960938 C62.4902831 97.96356501 57.69290625 98.07469591 52.89550781 98.18505859 C50.83592005 98.23281436 48.7763489 98.28129324 46.71679688 98.33056641 C33.8527005 98.63774999 21.00067857 98.83061514 8.1328125 98.7578125 C9.1228125 100.1190625 9.1228125 100.1190625 10.1328125 101.5078125 C12.1328125 104.7578125 12.1328125 104.7578125 12.1328125 108.7578125 C13.5559375 108.9434375 13.5559375 108.9434375 15.0078125 109.1328125 C18.1328125 109.7578125 18.1328125 109.7578125 20.1328125 111.7578125 C20.62634211 115.45928459 20.42129709 117.26960781 18.5078125 120.5078125 C13.55581514 125.19917842 8.11609403 125.00430951 1.62109375 125.12109375 C-0.8671875 124.7578125 -0.8671875 124.7578125 -2.68359375 123.484375 C-4.70044854 120.5422964 -4.16925118 117.16975911 -3.8671875 113.7578125 C-3.3671875 111.2578125 -3.3671875 111.2578125 -2.8671875 109.7578125 C-7.55261312 107.9142469 -11.70327801 107.47943206 -16.6796875 107.5703125 C-17.43507813 107.57748291 -18.19046875 107.58465332 -18.96875 107.59204102 C-26.10389073 107.68805816 -33.23644197 107.93496177 -40.3671875 108.1953125 C-42.02391479 108.25392456 -42.02391479 108.25392456 -43.71411133 108.3137207 C-44.74431396 108.35585693 -45.7745166 108.39799316 -46.8359375 108.44140625 C-47.75826172 108.47806396 -48.68058594 108.51472168 -49.63085938 108.55249023 C-51.90353037 108.62449847 -51.90353037 108.62449847 -53.8671875 109.7578125 C-54.1971875 110.7478125 -54.5271875 111.7378125 -54.8671875 112.7578125 C-53.2171875 113.4178125 -51.5671875 114.0778125 -49.8671875 114.7578125 C-49.50897854 120.13094683 -49.50897854 120.13094683 -50.8671875 122.5078125 C-56.40925838 125.9716068 -64.48785638 127.02015364 -70.8671875 125.7578125 C-74.14633811 122.63481192 -75.084556 119.98109553 -75.3046875 115.5703125 C-74.8671875 111.7578125 -74.8671875 111.7578125 -73.5546875 109.9453125 C-72.719375 109.3575 -72.719375 109.3575 -71.8671875 108.7578125 C-69.73077223 106.80717247 -68.48728559 105.14506748 -66.9296875 102.6328125 C-64.8671875 99.7578125 -64.8671875 99.7578125 -62.6171875 98.8828125 C-62.0396875 98.8415625 -61.4621875 98.8003125 -60.8671875 98.7578125 C-60.8671875 98.0978125 -60.8671875 97.4378125 -60.8671875 96.7578125 C-62.1665625 96.3865625 -62.1665625 96.3865625 -63.4921875 96.0078125 C-67.07778814 94.67981226 -69.83046737 93.07150402 -72.8671875 90.7578125 C-72.8671875 90.0978125 -72.8671875 89.4378125 -72.8671875 88.7578125 C-73.48335937 88.50386719 -74.09953125 88.24992187 -74.734375 87.98828125 C-77.19297419 86.56985864 -77.80544682 85.60834193 -78.9921875 83.0703125 C-79.30414063 82.42707031 -79.61609375 81.78382813 -79.9375 81.12109375 C-82.83112078 73.76546108 -83.20311082 67.3874167 -83.1796875 59.5078125 C-83.19580078 58.43917969 -83.21191406 57.37054688 -83.22851562 56.26953125 C-83.23346026 48.13066907 -82.73460536 39.04704699 -77.6171875 32.3203125 C-74.59082603 29.50029385 -71.53659365 27.58195107 -67.8671875 25.7578125 C-67.02027344 25.31050781 -66.17335937 24.86320312 -65.30078125 24.40234375 C-58.28735557 20.7578125 -58.28735557 20.7578125 -54.8671875 20.7578125 C-55.1971875 20.0978125 -55.5271875 19.4378125 -55.8671875 18.7578125 C-56.242488 13.12830507 -55.97789391 9.66315722 -52.8671875 4.7578125 C-50.37963964 3.51403857 -48.64063449 3.62475015 -45.8671875 3.6328125 C-44.9803125 3.63023437 -44.0934375 3.62765625 -43.1796875 3.625 C-40.8671875 3.7578125 -40.8671875 3.7578125 -38.8671875 4.7578125 C-38.8671875 5.4178125 -38.8671875 6.0778125 -38.8671875 6.7578125 C-38.2071875 6.7578125 -37.5471875 6.7578125 -36.8671875 6.7578125 C-36.3721875 11.7078125 -36.3721875 11.7078125 -35.8671875 16.7578125 C-33.5778125 16.5103125 -33.5778125 16.5103125 -31.2421875 16.2578125 C-24.4476332 15.62885115 -17.68473857 15.66823884 -10.8671875 15.7578125 C-10.92519531 15.09394531 -10.98320312 14.43007812 -11.04296875 13.74609375 C-11.27606953 9.18397855 -11.38205994 6.56230069 -8.8671875 2.6328125 C-5.84856777 0.74617517 -3.60692931 -0.2057184 0 0 Z M-7.8046875 5.3203125 C-9.65468923 9.56443411 -9.30833679 13.43436463 -7.8671875 17.7578125 C-14.8575108 18.77723465 -21.81160805 19.07381173 -28.8671875 19.3203125 C-30.02347656 19.36349609 -31.17976563 19.40667969 -32.37109375 19.45117188 C-35.20302604 19.55649167 -38.03503497 19.65862337 -40.8671875 19.7578125 C-40.8671875 19.0978125 -40.8671875 18.4378125 -40.8671875 17.7578125 C-39.8771875 17.7578125 -38.8871875 17.7578125 -37.8671875 17.7578125 C-38.17640634 16.29877992 -38.48967549 14.84060528 -38.8046875 13.3828125 C-38.97871094 12.57070312 -39.15273437 11.75859375 -39.33203125 10.921875 C-39.79049443 8.7283495 -39.79049443 8.7283495 -40.8671875 6.7578125 C-46.75025453 6.11983421 -46.75025453 6.11983421 -51.9296875 8.3203125 C-53.63648301 12.75798084 -53.3033079 17.26993626 -51.8671875 21.7578125 C-54.29325572 22.74541549 -56.71062576 23.70466045 -59.19140625 24.546875 C-66.35659932 27.08133999 -73.74109438 31.10875093 -78.0859375 37.5703125 C-80.63872434 44.71811566 -80.11882841 52.65120192 -80.1796875 60.1328125 C-80.20869141 61.31359375 -80.23769531 62.494375 -80.26757812 63.7109375 C-80.33002389 72.33806056 -79.07122632 80.27177192 -72.8671875 86.7578125 C-72.2071875 86.7578125 -71.5471875 86.7578125 -70.8671875 86.7578125 C-70.8671875 87.4178125 -70.8671875 88.0778125 -70.8671875 88.7578125 C-69.2839187 90.0219711 -69.2839187 90.0219711 -67.2421875 91.1953125 C-66.23285156 91.81212891 -66.23285156 91.81212891 -65.203125 92.44140625 C-64.43226563 92.87582031 -63.66140625 93.31023437 -62.8671875 93.7578125 C-61.9803125 94.29148437 -61.0934375 94.82515625 -60.1796875 95.375 C-55.89302523 97.1644793 -52.09252023 97.31691406 -47.4921875 97.4453125 C-46.66074219 97.47947266 -45.82929688 97.51363281 -44.97265625 97.54882812 C-42.93795399 97.63068396 -40.90259542 97.69593951 -38.8671875 97.7578125 C-38.5371875 98.4178125 -38.2071875 99.0778125 -37.8671875 99.7578125 C-38.44686279 99.74733887 -39.02653809 99.73686523 -39.6237793 99.72607422 C-42.26737071 99.68432635 -44.91089255 99.65842712 -47.5546875 99.6328125 C-48.46669922 99.61605469 -49.37871094 99.59929687 -50.31835938 99.58203125 C-56.84622907 99.46383573 -56.84622907 99.46383573 -62.8671875 101.7578125 C-63.75412053 103.79886889 -63.75412053 103.79886889 -63.8671875 105.7578125 C-64.5271875 105.7578125 -65.1871875 105.7578125 -65.8671875 105.7578125 C-66.1971875 107.7378125 -66.5271875 109.7178125 -66.8671875 111.7578125 C-68.5171875 111.7578125 -70.1671875 111.7578125 -71.8671875 111.7578125 C-72.2622618 116.23532119 -70.9342823 118.84064074 -68.8671875 122.7578125 C-66.59563252 122.67079124 -64.32488007 122.56261728 -62.0546875 122.4453125 C-60.79011719 122.38730469 -59.52554688 122.32929688 -58.22265625 122.26953125 C-54.92751468 122.03003641 -54.92751468 122.03003641 -52.91796875 120.33984375 C-51.68276235 118.79667987 -51.68276235 118.79667987 -51.8671875 116.7578125 C-54.68228743 114.4804624 -54.68228743 114.4804624 -57.8671875 114.7578125 C-57.2071875 112.1178125 -56.5471875 109.4778125 -55.8671875 106.7578125 C-45.55985354 104.18097901 -34.47635735 104.54835736 -23.89599609 104.51757812 C-21.84043616 104.50768373 -19.78580414 104.47641713 -17.73046875 104.4453125 C-16.41433594 104.44015625 -15.09820312 104.435 -13.7421875 104.4296875 C-12.56398438 104.4203418 -11.38578125 104.41099609 -10.171875 104.40136719 C-6.48355908 104.79919086 -4.09476607 105.98615252 -0.8671875 107.7578125 C-0.2071875 107.7578125 0.4528125 107.7578125 1.1328125 107.7578125 C1.4628125 109.4078125 1.7928125 111.0578125 2.1328125 112.7578125 C0.6478125 113.2528125 0.6478125 113.2528125 -0.8671875 113.7578125 C-0.90960473 116.09076025 -0.90811687 118.42483817 -0.8671875 120.7578125 C0.6743067 122.2993067 2.11725064 121.96427565 4.2578125 122.0078125 C8.98093604 121.94001647 12.05538812 121.17098203 16.1328125 118.7578125 C17.63733707 116.21412251 17.63733707 116.21412251 18.1328125 113.7578125 C16.17647275 111.34659391 16.17647275 111.34659391 12.5078125 111.6328125 C11.3940625 111.6740625 10.2803125 111.7153125 9.1328125 111.7578125 C9.1328125 109.7778125 9.1328125 107.7978125 9.1328125 105.7578125 C7.1528125 104.7678125 7.1528125 104.7678125 5.1328125 103.7578125 C5.1328125 102.7678125 5.1328125 101.7778125 5.1328125 100.7578125 C2.56387412 99.47334331 0.36704913 99.42804106 -2.4921875 99.1953125 C-3.49507813 99.11152344 -4.49796875 99.02773438 -5.53125 98.94140625 C-6.30210937 98.88082031 -7.07296875 98.82023437 -7.8671875 98.7578125 C-7.8671875 98.0978125 -7.8671875 97.4378125 -7.8671875 96.7578125 C-7.2071875 96.7578125 -6.5471875 96.7578125 -5.8671875 96.7578125 C-5.8671875 96.0978125 -5.8671875 95.4378125 -5.8671875 94.7578125 C-5.03815918 94.92079834 -4.20913086 95.08378418 -3.35498047 95.25170898 C0.43434414 95.80156688 4.12012429 95.88398736 7.9375 95.85546875 C8.6614798 95.8540538 9.38545959 95.85263885 10.13137817 95.85118103 C12.42356657 95.84562325 14.71565407 95.83307883 17.0078125 95.8203125 C18.57031108 95.81529203 20.13281121 95.81073009 21.6953125 95.80664062 C25.50785085 95.79566769 29.32031462 95.7784326 33.1328125 95.7578125 C33.1328125 93.7778125 33.1328125 91.7978125 33.1328125 89.7578125 C34.1228125 89.7578125 35.1128125 89.7578125 36.1328125 89.7578125 C35.6378125 91.7378125 35.6378125 91.7378125 35.1328125 93.7578125 C37.1128125 94.2528125 37.1128125 94.2528125 39.1328125 94.7578125 C40.1228125 92.7778125 40.1228125 92.7778125 41.1328125 90.7578125 C42.1228125 90.7578125 43.1128125 90.7578125 44.1328125 90.7578125 C43.6378125 92.7378125 43.6378125 92.7378125 43.1328125 94.7578125 C54.24781013 94.87965778 65.33619562 94.71596734 76.4453125 94.3203125 C77.60716064 94.28107666 78.76900879 94.24184082 79.96606445 94.20141602 C81.06909912 94.15944092 82.17213379 94.11746582 83.30859375 94.07421875 C84.28739502 94.03756104 85.26619629 94.00090332 86.2746582 93.96313477 C89.27486368 93.74760792 92.17499327 93.2966687 95.1328125 92.7578125 C95.1328125 93.7478125 95.1328125 94.7378125 95.1328125 95.7578125 C93.8746875 95.7165625 92.6165625 95.6753125 91.3203125 95.6328125 C85.81827667 95.66763551 80.36491131 95.93980753 75.1328125 97.7578125 C72.44408837 100.76662283 71.39450904 102.97272287 70.1328125 106.7578125 C68.15864982 107.80789903 66.15698384 108.80769126 64.1328125 109.7578125 C61.91911199 111.54439007 61.91911199 111.54439007 61.9375 113.921875 C61.96070313 114.73398437 61.98390625 115.54609375 62.0078125 116.3828125 C62.02585937 117.20007813 62.04390625 118.01734375 62.0625 118.859375 C62.08570313 119.48585938 62.10890625 120.11234375 62.1328125 120.7578125 C66.1114604 122.98585533 69.64613773 123.20476094 74.1328125 122.7578125 C77.50102522 121.85984137 77.50102522 121.85984137 80.1328125 120.7578125 C80.1328125 118.1178125 80.1328125 115.4778125 80.1328125 112.7578125 C78.8128125 112.4278125 77.4928125 112.0978125 76.1328125 111.7578125 C77.890625 106.484375 77.890625 106.484375 79.1328125 104.7578125 C85.2503798 102.11613571 91.56341165 102.06112167 98.1328125 101.7578125 C98.81359863 101.71849609 99.49438477 101.67917969 100.19580078 101.63867188 C102.32054371 101.52363647 104.44351655 101.44836612 106.5703125 101.3828125 C107.86839844 101.33382812 109.16648437 101.28484375 110.50390625 101.234375 C115.26613858 101.92128472 116.77665224 103.386466 120.1328125 106.7578125 C122.32499439 111.14217629 121.29055899 117.12682652 120.1328125 121.7578125 C124.02562703 123.05541734 128.09195529 123.44942075 132.1328125 122.7578125 C135.62856316 120.91027761 137.76325377 118.51372808 139.5078125 114.9453125 C139.7140625 114.2234375 139.9203125 113.5015625 140.1328125 112.7578125 C138.34623493 110.54411199 138.34623493 110.54411199 135.96875 110.5625 C135.15664063 110.58570313 134.34453125 110.60890625 133.5078125 110.6328125 C132.69054687 110.65085937 131.87328125 110.66890625 131.03125 110.6875 C130.40476562 110.71070313 129.77828125 110.73390625 129.1328125 110.7578125 C129.3596875 109.7059375 129.5865625 108.6540625 129.8203125 107.5703125 C130.36231072 103.87730874 130.36231072 103.87730874 129.2578125 100.9453125 C126.12350593 97.71882045 122.5510307 97.0794159 118.1328125 96.7578125 C115.92462359 97.16147462 115.92462359 97.16147462 114.1328125 97.7578125 C114.4628125 96.7678125 114.7928125 95.7778125 115.1328125 94.7578125 C117.43359375 93.94921875 117.43359375 93.94921875 120.4453125 93.3203125 C126.84022496 91.86796021 132.95063711 89.93253519 139.1328125 87.7578125 C139.88691406 87.5 140.64101563 87.2421875 141.41796875 86.9765625 C148.13761706 84.59425944 154.21844377 81.99180715 158.1328125 75.7578125 C162.01632091 64.95152822 162.20700417 50.36608702 157.8828125 39.6953125 C155.76827969 35.35529918 153.26889448 30.79698752 148.8203125 28.6328125 C146.00372866 27.66915625 146.00372866 27.66915625 142.5078125 26.9453125 C140.70703125 26.2109375 140.70703125 26.2109375 139.1328125 24.7578125 C137.97739017 21.41704081 137.31723372 18.17677783 136.73828125 14.69140625 C136.39054102 11.6491526 136.39054102 11.6491526 134.1328125 9.7578125 C131.04933424 9.59100141 131.04933424 9.59100141 128.1328125 9.7578125 C127.0937408 16.78563292 127.0937408 16.78563292 128.1328125 23.7578125 C127.4728125 24.0878125 126.8128125 24.4178125 126.1328125 24.7578125 C125.8028125 23.4378125 125.4728125 22.1178125 125.1328125 20.7578125 C123.87572983 20.76003311 122.61864716 20.76225372 121.32347107 20.76454163 C109.42278335 20.78489523 97.52209921 20.79984318 85.62139797 20.80962467 C79.50450853 20.81482262 73.38763325 20.8218636 67.27075195 20.83325195 C61.35740585 20.84419131 55.44407329 20.85011255 49.53071785 20.85268974 C47.2851242 20.85452421 45.03953122 20.85810608 42.79394341 20.86354256 C30.86226191 20.89125548 19.02486804 20.80823907 7.1328125 19.7578125 C7.596875 18.0253125 7.596875 18.0253125 8.0703125 16.2578125 C8.43858549 13.35312412 8.29063179 12.05069344 6.88671875 9.4453125 C3.90410944 5.72535434 2.14476456 3.96020291 -2.6171875 3.0078125 C-5.83868181 3.5021239 -5.83868181 3.5021239 -7.8046875 5.3203125 Z " fill="#171717" transform="translate(243.8671875,160.2421875)"/>
<path d="M0 0 C0.33 0 0.66 0 1 0 C1.0093457 0.6391333 1.01869141 1.2782666 1.02832031 1.93676758 C0.51384215 20.87529521 0.51384215 20.87529521 8.75 37.0625 C9.86375 38.0215625 9.86375 38.0215625 11 39 C11 39.66 11 40.32 11 41 C11.57492188 41.27714844 12.14984375 41.55429688 12.7421875 41.83984375 C15 43 15 43 16.9453125 44.25390625 C25.13681119 49.17174148 33.71289468 48.8887166 43 49 C43.33 49.99 43.66 50.98 44 52 C38.37464597 53.10789415 33.04842503 52.99479981 27.33984375 52.83984375 C24.02473104 52.99881407 21.89150929 53.39242694 19 55 C18.67 55.99 18.34 56.98 18 58 C17.34 58 16.68 58 16 58 C15.67 59.98 15.34 61.96 15 64 C13.35 64 11.7 64 10 64 C10.99 67.3 11.98 70.6 13 74 C20.92 73.505 20.92 73.505 29 73 C29.33 71.68 29.66 70.36 30 69 C28.02 68.34 26.04 67.68 24 67 C23.75 61.375 23.75 61.375 26 58 C35.37329745 54.46686605 47.99218205 55.76380815 57.86132812 55.70483398 C59.21462348 55.69318462 60.56786851 55.6725347 61.92089844 55.64331055 C69.94794517 55.4713573 76.25448332 55.34238134 83 60 C84 62.75 84 62.75 84 65 C83.01 65.495 83.01 65.495 82 66 C82 68.31 82 70.62 82 73 C88.10849414 73.37398944 92.64285578 73.1250008 98 70 C99.13306157 67.98366695 99.13306157 67.98366695 99 66 C97.03177114 64.03177114 93.65191291 64.33751619 91 64 C90.71125 62.865625 90.4225 61.73125 90.125 60.5625 C89.75375 59.386875 89.3825 58.21125 89 57 C88.34 56.67 87.68 56.34 87 56 C87 55.01 87 54.02 87 53 C86.22914063 52.93941406 85.45828125 52.87882812 84.6640625 52.81640625 C83.66117187 52.73261719 82.65828125 52.64882813 81.625 52.5625 C80.62726563 52.48128906 79.62953125 52.40007812 78.6015625 52.31640625 C76 52 76 52 74 51 C74 50.34 74 49.68 74 49 C74.66 49 75.32 49 76 49 C76 48.34 76 47.68 76 47 C95.305 47.495 95.305 47.495 115 48 C115 46.02 115 44.04 115 42 C115.99 42 116.98 42 118 42 C118 43.32 118 44.64 118 46 C119.97536745 45.65213292 119.97536745 45.65213292 122 45 C122.495 44.01 122.495 44.01 123 43 C123.99 43 124.98 43 126 43 C126 43.99 126 44.98 126 46 C128.31 46.33 130.62 46.66 133 47 C132.67 47.99 132.34 48.98 132 50 C117.9907504 50.67067454 104.02603124 51.15938672 90 51 C90.99 52.36125 90.99 52.36125 92 53.75 C94 57 94 57 94 61 C95.423125 61.185625 95.423125 61.185625 96.875 61.375 C100 62 100 62 102 64 C102.49352961 67.70147209 102.28848459 69.51179531 100.375 72.75 C95.42300264 77.44136592 89.98328153 77.24649701 83.48828125 77.36328125 C81 77 81 77 79.18359375 75.7265625 C77.16673896 72.7844839 77.69793632 69.41194661 78 66 C78.5 63.5 78.5 63.5 79 62 C74.31457438 60.1564344 70.16390949 59.72161956 65.1875 59.8125 C64.43210937 59.81967041 63.67671875 59.82684082 62.8984375 59.83422852 C55.76329677 59.93024566 48.63074553 60.17714927 41.5 60.4375 C40.39551514 60.47657471 39.29103027 60.51564941 38.15307617 60.5559082 C37.12287354 60.59804443 36.0926709 60.64018066 35.03125 60.68359375 C33.64776367 60.73858032 33.64776367 60.73858032 32.23632812 60.79467773 C29.96365713 60.86668597 29.96365713 60.86668597 28 62 C27.67 62.99 27.34 63.98 27 65 C28.65 65.66 30.3 66.32 32 67 C32.35820896 72.37313433 32.35820896 72.37313433 31 74.75 C25.45792912 78.2137943 17.37933112 79.26234114 11 78 C7.72084939 74.87699942 6.7826315 72.22328303 6.5625 67.8125 C7 64 7 64 8.3125 62.1875 C9.1478125 61.5996875 9.1478125 61.5996875 10 61 C12.13641527 59.04935997 13.37990191 57.38725498 14.9375 54.875 C17 52 17 52 19.25 51.125 C19.8275 51.08375 20.405 51.0425 21 51 C21 50.34 21 49.68 21 49 C20.13375 48.7525 19.2675 48.505 18.375 48.25 C14.78939936 46.92199976 12.03672013 45.31369152 9 43 C9 42.34 9 41.68 9 41 C8.38382813 40.74605469 7.76765625 40.49210937 7.1328125 40.23046875 C4.67421331 38.81204614 4.06174068 37.85052943 2.875 35.3125 C2.56304687 34.66925781 2.25109375 34.02601563 1.9296875 33.36328125 C-0.93057218 26.09245306 -1.27971729 19.91008065 -1.1875 12.125 C-1.18685547 11.06796875 -1.18621094 10.0109375 -1.18554688 8.921875 C-1.14053915 1.14053915 -1.14053915 1.14053915 0 0 Z " fill="#151515" transform="translate(162,208)"/>
<path d="M0 0 C4.56424354 1.62172756 7.5272917 5.83328741 10.1328125 9.7578125 C11.42444206 13.12504579 11.0725087 13.99902771 10.1328125 17.7578125 C34.5528125 17.7578125 58.9728125 17.7578125 84.1328125 17.7578125 C83.8028125 18.7478125 83.4728125 19.7378125 83.1328125 20.7578125 C68.73258613 21.55545115 54.36460078 21.866936 39.9453125 21.8828125 C39.1583902 21.88531006 38.3714679 21.88780762 37.56069946 21.89038086 C11.533569 21.95819075 11.533569 21.95819075 7.1328125 19.7578125 C7.3184375 17.994375 7.3184375 17.994375 7.5078125 16.1953125 C7.49977565 11.68663998 6.00876187 9.25434653 2.92578125 6.046875 C0.9813882 4.4484451 0.9813882 4.4484451 -2.6171875 4.1328125 C-3.6896875 4.3390625 -4.7621875 4.5453125 -5.8671875 4.7578125 C-8.32129108 8.43896787 -8.10006593 10.41074848 -7.8671875 14.7578125 C-7.3721875 16.2428125 -7.3721875 16.2428125 -6.8671875 17.7578125 C-10.4842615 21.3748865 -22.27629597 20.1609691 -27.1796875 20.3828125 C-28.66178711 20.46015625 -28.66178711 20.46015625 -30.17382812 20.5390625 C-31.12064453 20.58289063 -32.06746094 20.62671875 -33.04296875 20.671875 C-33.89802002 20.7126416 -34.75307129 20.7534082 -35.6340332 20.79541016 C-37.8671875 20.7578125 -37.8671875 20.7578125 -40.8671875 19.7578125 C-40.8671875 19.0978125 -40.8671875 18.4378125 -40.8671875 17.7578125 C-39.8771875 17.7578125 -38.8871875 17.7578125 -37.8671875 17.7578125 C-38.08375 17.13132813 -38.3003125 16.50484375 -38.5234375 15.859375 C-38.801875 15.04210937 -39.0803125 14.22484375 -39.3671875 13.3828125 C-39.645625 12.57070312 -39.9240625 11.75859375 -40.2109375 10.921875 C-40.8671875 8.7578125 -40.8671875 8.7578125 -40.8671875 6.7578125 C-42.32664038 6.84489919 -43.78484618 6.95308157 -45.2421875 7.0703125 C-46.05429688 7.12832031 -46.86640625 7.18632812 -47.703125 7.24609375 C-50.24640088 7.58771778 -50.24640088 7.58771778 -51.8671875 10.7578125 C-52.10906401 13.50299571 -52.10906401 13.50299571 -51.9921875 16.4453125 C-51.96511719 17.93611328 -51.96511719 17.93611328 -51.9375 19.45703125 C-51.91429687 20.21628906 -51.89109375 20.97554687 -51.8671875 21.7578125 C-53.40885417 22.52864583 -54.95052083 23.29947917 -56.4921875 24.0703125 C-57.41 24.53179687 -58.3278125 24.99328125 -59.2734375 25.46875 C-61.16458422 26.40862714 -63.07361462 27.31276898 -64.9921875 28.1953125 C-72.9526982 32.51258438 -72.9526982 32.51258438 -77.8671875 39.7578125 C-79.13852497 46.16501656 -79.19390706 52.68236092 -79.4296875 59.1953125 C-79.47287109 60.30841797 -79.51605469 61.42152344 -79.56054688 62.56835938 C-79.66598638 65.29807094 -79.76810779 68.02786393 -79.8671875 70.7578125 C-80.1971875 70.7578125 -80.5271875 70.7578125 -80.8671875 70.7578125 C-80.89224365 70.10184082 -80.9172998 69.44586914 -80.94311523 68.77001953 C-81.0589201 65.80741067 -81.18171636 62.84513219 -81.3046875 59.8828125 C-81.34400391 58.85027344 -81.38332031 57.81773437 -81.42382812 56.75390625 C-81.46572266 55.76777344 -81.50761719 54.78164062 -81.55078125 53.765625 C-81.58743896 52.85441895 -81.62409668 51.94321289 -81.66186523 51.00439453 C-81.73295815 48.72297769 -81.73295815 48.72297769 -82.8671875 46.7578125 C-81.76891659 39.89922274 -79.97252951 34.51506301 -74.8671875 29.7578125 C-72.52304913 28.24101708 -70.34665227 26.99040631 -67.8671875 25.7578125 C-67.02027344 25.31050781 -66.17335937 24.86320312 -65.30078125 24.40234375 C-58.28735557 20.7578125 -58.28735557 20.7578125 -54.8671875 20.7578125 C-55.1971875 20.0978125 -55.5271875 19.4378125 -55.8671875 18.7578125 C-56.242488 13.12830507 -55.97789391 9.66315722 -52.8671875 4.7578125 C-50.37963964 3.51403857 -48.64063449 3.62475015 -45.8671875 3.6328125 C-44.9803125 3.63023437 -44.0934375 3.62765625 -43.1796875 3.625 C-40.8671875 3.7578125 -40.8671875 3.7578125 -38.8671875 4.7578125 C-38.8671875 5.4178125 -38.8671875 6.0778125 -38.8671875 6.7578125 C-38.2071875 6.7578125 -37.5471875 6.7578125 -36.8671875 6.7578125 C-36.3721875 11.7078125 -36.3721875 11.7078125 -35.8671875 16.7578125 C-33.5778125 16.5103125 -33.5778125 16.5103125 -31.2421875 16.2578125 C-24.4476332 15.62885115 -17.68473857 15.66823884 -10.8671875 15.7578125 C-10.92519531 15.09394531 -10.98320312 14.43007812 -11.04296875 13.74609375 C-11.27606953 9.18397855 -11.38205994 6.56230069 -8.8671875 2.6328125 C-5.84856777 0.74617517 -3.60692931 -0.2057184 0 0 Z " fill="#202020" transform="translate(243.8671875,160.2421875)"/>
<path d="M0 0 C0 0.99 0 1.98 0 3 C-0.68707031 3.10957031 -1.37414062 3.21914062 -2.08203125 3.33203125 C-2.98308594 3.49058594 -3.88414062 3.64914063 -4.8125 3.8125 C-5.70582031 3.96332031 -6.59914062 4.11414063 -7.51953125 4.26953125 C-10.25618374 5.07544308 -11.3665932 5.67574245 -13 8 C-13.39966503 10.07728417 -13.39966503 10.07728417 -13.25 12.3125 C-13.23453125 13.05113281 -13.2190625 13.78976563 -13.203125 14.55078125 C-12.96799852 17.38586399 -12.46768488 20.19389069 -12 23 C-5.07 23.495 -5.07 23.495 2 24 C2 24.99 2 25.98 2 27 C0.10489301 27.08160748 -1.79124504 27.13946459 -3.6875 27.1875 C-5.27111328 27.23970703 -5.27111328 27.23970703 -6.88671875 27.29296875 C-10.40249014 26.96212452 -12.19619156 26.10786313 -15 24 C-17.72391921 18.81158246 -17.68930458 12.72384564 -17 7 C-15.01290724 3.10529819 -13.68899816 2.26794373 -9.625 0.6875 C-6.29993 0.05688328 -3.37134527 -0.16445587 0 0 Z " fill="#1A1A1A" transform="translate(205,202)"/>
<path d="M0 0 C0.99 0 1.98 0 3 0 C3 1.32 3 2.64 3 4 C4.97536745 3.65213292 4.97536745 3.65213292 7 3 C7.33 2.34 7.66 1.68 8 1 C8.99 1 9.98 1 11 1 C11 1.99 11 2.98 11 4 C13.31 4.33 15.62 4.66 18 5 C17.67 5.99 17.34 6.98 17 8 C9.08 8 1.16 8 -7 8 C-6.67 7.34 -6.34 6.68 -6 6 C-4.02 6 -2.04 6 0 6 C0 4.02 0 2.04 0 0 Z " fill="#040404" transform="translate(277,250)"/>
<path d="M0 0 C8.91 0 17.82 0 27 0 C27 0.66 27 1.32 27 2 C23.25291686 3.87354157 18.74852647 3.22800786 14.625 3.25 C13.18640625 3.2809375 13.18640625 3.2809375 11.71875 3.3125 C10.79320312 3.31765625 9.86765625 3.3228125 8.9140625 3.328125 C8.0679541 3.3374707 7.2218457 3.34681641 6.35009766 3.35644531 C4 3 4 3 0 0 Z " fill="#242424" transform="translate(192,236)"/>
<path d="M0 0 C0.66 0 1.32 0 2 0 C2.48514851 6.30693069 2.48514851 6.30693069 0.25 9.5 C-2 11 -2 11 -4.125 10.875 C-6 10 -6 10 -8 8 C-8.125 4.875 -8.125 4.875 -8 2 C-7.34 2 -6.68 2 -6 2 C-5.67 3.32 -5.34 4.64 -5 6 C-4.01 6 -3.02 6 -2 6 C-1.34 4.02 -0.68 2.04 0 0 Z " fill="#101010" transform="translate(366,239)"/>
<path d="M0 0 C0.99 0 1.98 0 3 0 C2.67 2.64 2.34 5.28 2 8 C2.99 8 3.98 8 5 8 C5.33 6.02 5.66 4.04 6 2 C6.66 2 7.32 2 8 2 C8.125 5.375 8.125 5.375 8 9 C6 11 6 11 3.375 11.125 C2.59125 11.08375 1.8075 11.0425 1 11 C-0.20272819 8.59454362 -0.10071472 7.05003047 -0.0625 4.375 C-0.05347656 3.55773437 -0.04445312 2.74046875 -0.03515625 1.8984375 C-0.02355469 1.27195313 -0.01195312 0.64546875 0 0 Z " fill="#0C0C0C" transform="translate(244,228)"/>
<path d="M0 0 C0.99 0.33 1.98 0.66 3 1 C3.125 3.875 3.125 3.875 3 7 C1 9 1 9 -2.125 9.125 C-3.07375 9.08375 -4.0225 9.0425 -5 9 C-5.66 6.36 -6.32 3.72 -7 1 C-6.01 1 -5.02 1 -4 1 C-4 2.65 -4 4.3 -4 6 C-2.68 6 -1.36 6 0 6 C0 4.02 0 2.04 0 0 Z " fill="#0F0F0F" transform="translate(194,247)"/>
<path d="M0 0 C0.66 0 1.32 0 2 0 C2.32728047 3.60008519 2.40422813 5.41611492 0.3125 8.4375 C-2 10 -2 10 -4.75 9.75 C-5.4925 9.5025 -6.235 9.255 -7 9 C-7 6.36 -7 3.72 -7 1 C-6.34 1 -5.68 1 -5 1 C-5 2.98 -5 4.96 -5 7 C-4.01 7 -3.02 7 -2 7 C-1.34 4.69 -0.68 2.38 0 0 Z " fill="#060606" transform="translate(359,200)"/>
<path d="M0 0 C0.66 0 1.32 0 2 0 C2.33 0.99 2.66 1.98 3 3 C3.99 3.33 4.98 3.66 6 4 C6.33 2.68 6.66 1.36 7 0 C7.66 0 8.32 0 9 0 C8.25 4.75 8.25 4.75 6 7 C3.375 7.125 3.375 7.125 1 7 C0.67 4.69 0.34 2.38 0 0 Z " fill="#080808" transform="translate(287,186)"/>
<path d="M0 0 C3.125 -0.1875 3.125 -0.1875 6 0 C6 0.99 6 1.98 6 3 C3.36 3 0.72 3 -2 3 C-1.34 2.01 -0.68 1.02 0 0 Z " fill="#090909" transform="translate(199,202)"/>
<path d="M0 0 C1.65 0 3.3 0 5 0 C5 0.99 5 1.98 5 3 C3.35 3.33 1.7 3.66 0 4 C0 2.68 0 1.36 0 0 Z " fill="#050505" transform="translate(181,199)"/>
</svg>
