<?xml version="1.0" encoding="UTF-8"?>
<svg version="1.1" xmlns="http://www.w3.org/2000/svg" width="800" height="300">
<path d="M0 0 C264 0 528 0 800 0 C800 99 800 198 800 300 C536 300 272 300 0 300 C0 201 0 102 0 0 Z " fill="#FEFEFE" transform="translate(0,0)"/>
<path d="M0 0 C5.87711622 -0.48975968 10.09611773 0.62928552 15 4 C16.99097846 6.98646769 17.94124926 9.59687262 19 13 C19.84256348 12.76228882 19.84256348 12.76228882 20.70214844 12.51977539 C23.09674429 11.97811638 25.31438553 11.79358526 27.765625 11.68359375 C29.09980469 11.62075195 29.09980469 11.62075195 30.4609375 11.55664062 C31.84152344 11.49766602 31.84152344 11.49766602 33.25 11.4375 C34.18585937 11.39431641 35.12171875 11.35113281 36.0859375 11.30664062 C38.39048641 11.2008195 40.69513839 11.09873443 43 11 C43.13664063 10.06929687 43.27328125 9.13859375 43.4140625 8.1796875 C44.15552124 4.15603809 44.79498103 2.59453917 48 0 C53.27606011 -1.03681688 58.38288225 -0.88403423 63.0625 1.9375 C65.7883535 4.29735184 66.51774831 6.17739897 67.18359375 9.69140625 C67.3427124 10.49908447 67.50183105 11.3067627 67.66577148 12.13891602 C67.77606689 12.75307373 67.8863623 13.36723145 68 14 C71.27116732 13.86111494 74.541834 13.71269508 77.8125 13.5625 C78.74126953 13.52318359 79.67003906 13.48386719 80.62695312 13.44335938 C81.51962891 13.40146484 82.41230469 13.35957031 83.33203125 13.31640625 C84.15421143 13.27974854 84.9763916 13.24309082 85.82348633 13.20532227 C88.17905178 13.06572228 88.17905178 13.06572228 91 12 C92.48344647 11.89884019 93.97092737 11.85169477 95.45776367 11.83886719 C96.36108932 11.82925964 97.26441498 11.8196521 98.19511414 11.80975342 C99.17615616 11.80550354 100.15719818 11.80125366 101.16796875 11.796875 C102.70763054 11.78832489 102.70763054 11.78832489 104.27839661 11.77960205 C106.46659312 11.77013717 108.65480398 11.76361219 110.84301758 11.75976562 C114.10200452 11.75024964 117.36030707 11.71932503 120.61914062 11.6875 C133.48658791 11.62375464 145.92605458 12.45370287 158.66259766 14.29150391 C165.34380902 15.23957325 172.02799433 15.55360196 178.765625 15.796875 C183.68999699 15.98850215 188.55691838 16.60529468 193.43359375 17.3046875 C196.25723514 17.26259713 196.25723514 17.26259713 198.12109375 14.53515625 C198.74113281 13.69855469 199.36117187 12.86195313 200 12 C203.625 11.5625 203.625 11.5625 207 12 C209 14 209 14 209.0546875 16.42578125 C208.93535963 18.34280941 208.81040274 20.25949588 208.6796875 22.17578125 C208.72478433 25.13044261 208.72478433 25.13044261 210.97583008 27.05053711 C213.88521232 31.28986251 213.66593802 34.97787269 213.70703125 40.015625 C213.72271652 40.98602722 213.73840179 41.95642944 213.75456238 42.95623779 C213.77915488 45.00702015 213.79276458 47.05795969 213.79614258 49.10888672 C213.81238358 52.22764338 213.89782913 55.33959858 213.98632812 58.45703125 C214.18637939 72.90793471 214.18637939 72.90793471 211.11474609 78.32446289 C208.84700299 80.65079367 206.77961294 82.33368534 204 84 C203.12899658 84.52859619 202.25799316 85.05719238 201.3605957 85.60180664 C192.89918886 90.38951548 184.57278851 91.359729 175 91 C175.64241894 92.813713 176.28903119 94.62594124 176.9375 96.4375 C177.47697266 97.95150391 177.47697266 97.95150391 178.02734375 99.49609375 C178.76877639 101.90313745 178.76877639 101.90313745 180 103 C182.25543624 103.24261665 184.50945523 103.38332133 186.7734375 103.5234375 C189.48949551 104.10476921 190.39924985 104.7418885 192 107 C192.94239319 111.17867366 192.93786082 115.31497673 190.828125 119.10546875 C187.06342205 123.65610195 183.43445379 126.6087485 177.5 127.5625 C174 127 174 127 171.0625 124.4375 C168.58491231 121.00137019 168.5328977 118.20392074 169 114 C169.23074219 113.35804688 169.46148438 112.71609375 169.69921875 112.0546875 C170.22178628 109.90491174 170.22178628 109.90491174 168.85546875 107.859375 C168.30503906 107.16328125 167.75460937 106.4671875 167.1875 105.75 C166.64480469 105.04359375 166.10210938 104.3371875 165.54296875 103.609375 C164.77919922 102.81273437 164.77919922 102.81273437 164 102 C163.34 102 162.68 102 162 102 C160.43802886 103.71641978 158.94860958 105.49938639 157.5 107.3125 C156.7059375 108.29863281 155.911875 109.28476562 155.09375 110.30078125 C152.94750264 113.00109783 152.94750264 113.00109783 151 116 C151.3121764 118.64632287 151.3121764 118.64632287 152 121 C147.10062893 125.77987421 147.10062893 125.77987421 142.875 126.625 C137.18618902 125.70744984 132.21273277 123.39665874 127 121 C126.58331531 116.74981621 126.55977918 114.64657432 129 111.0625 C133.03031789 108.29165645 135.19839142 108.59308402 140 109 C140.24492188 108.30519531 140.48984375 107.61039062 140.7421875 106.89453125 C142.20250025 103.53399786 144.06281778 100.71425133 146.125 97.6875 C146.84945312 96.61886719 147.57390625 95.55023438 148.3203125 94.44921875 C149.15175781 93.23685547 149.15175781 93.23685547 150 92 C148.71061523 92.16226074 147.42123047 92.32452148 146.09277344 92.49169922 C141.21887811 93.03066814 136.41533694 93.14460987 131.515625 93.1328125 C130.18702705 93.13479141 130.18702705 93.13479141 128.83158875 93.1368103 C125.97102269 93.1387144 123.11055601 93.13240899 120.25 93.125 C119.27112823 93.12411377 118.29225647 93.12322754 117.28372192 93.12231445 C104.00123706 93.10820854 90.75046941 92.90243772 77.47875977 92.3581543 C67.9804462 91.96896537 58.50474783 91.89347107 49 92 C50.26566466 97.22802185 51.62781159 102.15701026 54 107 C56.43313888 108.42556419 58.04825333 108.59704912 60.8359375 108.76953125 C63 109 63 109 66.125 111.3125 C68 114 68 114 67.9140625 116.44140625 C66.71702906 119.79207677 65.21143829 120.70619827 62.25 122.625 C61.38890625 123.19476563 60.5278125 123.76453125 59.640625 124.3515625 C58.76921875 124.89554687 57.8978125 125.43953125 57 126 C56.16210938 126.55945313 55.32421875 127.11890625 54.4609375 127.6953125 C51.81547589 129.09782707 50.33369631 129.35167341 47.375 129.25 C46.61960937 129.23453125 45.86421875 129.2190625 45.0859375 129.203125 C43 129 43 129 40 128 C37.52657734 124.28986601 37.61496514 122.38939738 38 118 C39.51953125 115.77734375 39.51953125 115.77734375 41 114 C40.50628906 113.39671875 40.01257813 112.7934375 39.50390625 112.171875 C38.86324219 111.37265625 38.22257813 110.5734375 37.5625 109.75 C36.92441406 108.96109375 36.28632812 108.1721875 35.62890625 107.359375 C34.09494695 105.13752508 33.42869754 103.63256518 33 101 C28.98052572 102.5162749 27.37553539 104.94379267 25 108.4375 C21.38806972 113.73546804 21.38806972 113.73546804 18.7421875 115.5390625 C18.16726563 116.02117187 17.59234375 116.50328125 17 117 C16.74137153 119.38601555 16.74137153 119.38601555 17.125 121.9375 C17.29804835 126.67902485 17.29804835 126.67902485 14.5625 129.625 C9.38914377 131.62173398 4.99594549 132.09595271 -0.28515625 130.1640625 C-3.30227336 128.70752321 -5.62027058 127.37972942 -8 125 C-8.68512668 121.57436662 -8.69660102 118.423605 -8 115 C-5.14912466 111.30859302 -1.30333997 110.06471109 3.0625 108.9375 C6.21972878 107.91170777 6.96654788 107.05220558 8.8046875 104.18359375 C10.29882051 101.15600845 11.66314782 98.09927667 13 95 C13.33 94.67 13.66 94.34 14 94 C13.00987915 93.85751831 13.00987915 93.85751831 11.99975586 93.7121582 C8.97569017 93.26545436 5.95696729 92.78925799 2.9375 92.3125 C1.89916016 92.16361328 0.86082031 92.01472656 -0.20898438 91.86132812 C-7.82339344 90.62851904 -12.83567549 88.93163925 -17.8203125 82.73828125 C-24.12060895 71.024257 -29.06205383 56.41280886 -27 43 C-26.03162557 40.02605822 -24.72365932 37.59737628 -23 35 C-22.38125 33.9275 -21.7625 32.855 -21.125 31.75 C-18.71737257 28.63424685 -16.3344341 27.06734914 -13 25 C-11.94625715 24.11840326 -10.9044393 23.22235797 -9.875 22.3125 C-7.22098673 20.1777502 -6.16696335 19.61844134 -3 19 C-3.05220703 17.82244141 -3.05220703 17.82244141 -3.10546875 16.62109375 C-3.27019021 10.22833246 -3.07880961 5.64448429 0 0 Z " fill="#FBFBFB" transform="translate(587,156)"/>
<path d="M0 0 C5.87711622 -0.48975968 10.09611773 0.62928552 15 4 C17.29013653 7.4352048 17.17842973 8.985331 17 13 C16.34 13 15.68 13 15 13 C14.814375 11.906875 14.62875 10.81375 14.4375 9.6875 C13.3364902 5.72410335 13.3364902 5.72410335 9.625 4.0625 C5.98983152 2.81248638 5.98983152 2.81248638 2 3 C0.17144572 7.59232335 -0.12514462 10.97358268 0.375 15.875 C0.48585938 17.02742188 0.59671875 18.17984375 0.7109375 19.3671875 C0.80632813 20.23601562 0.90171875 21.10484375 1 22 C-0.258125 22.28875 -1.51625 22.5775 -2.8125 22.875 C-9.45151423 25.04930355 -14.34507316 29.94607944 -19 35 C-19.33 35.99 -19.66 36.98 -20 38 C-20.66 38 -21.32 38 -22 38 C-22.144375 38.969375 -22.28875 39.93875 -22.4375 40.9375 C-23 44 -23 44 -24 45 C-25.25310212 56.90447013 -19.8251367 72.28075772 -13 82 C-8.707164 85.5247095 -4.64419835 86.84207308 0.75 87.6875 C1.44867187 87.80778564 2.14734375 87.92807129 2.8671875 88.05200195 C8.21951543 88.94755405 13.58500224 89.62251218 19 90 C19.33 90.99 19.66 91.98 20 93 C18.68 93 17.36 93 16 93 C15.88785156 93.51304687 15.77570312 94.02609375 15.66015625 94.5546875 C11.66706084 109.34567995 11.66706084 109.34567995 7.03515625 112.21875 C5 112.625 5 112.625 2.96875 112.8046875 C-0.46284582 113.14512359 -2.50140123 114.75126111 -5 117 C-5.91666667 120 -5.91666667 120 -5 123 C-2.78174689 125.80978728 -1.11309862 126.858204 2.453125 127.3125 C8.05455213 127.46291617 8.05455213 127.46291617 13 125 C12.67 121.7 12.34 118.4 12 115 C13.8871875 113.9171875 13.8871875 113.9171875 15.8125 112.8125 C19.40471051 110.5579483 21.01704473 108.79347964 23 105 C25.27210836 101.95167362 27.63374922 98.9756414 30 96 C31.82421875 96.21484375 31.82421875 96.21484375 34 97 C35.45703125 99.00390625 35.45703125 99.00390625 36.8125 101.5625 C39.33260141 106.07283534 42.16256842 109.63242097 45.77734375 113.30859375 C46.18082031 113.86675781 46.58429688 114.42492187 47 115 C46.505 116.485 46.505 116.485 46 118 C43.9375 118.6875 43.9375 118.6875 42 119 C41.957279 120.66611905 41.95936168 122.33382885 42 124 C43.16893124 125.36754688 43.16893124 125.36754688 46.375 125.5 C52.42780122 125.45605952 57.54518398 121.85196746 62 118 C62.87693705 115.88208613 62.87693705 115.88208613 63 114 C60.70370006 112.85185003 58.92301914 112.69230191 56.375 112.4375 C55.14910156 112.31181641 55.14910156 112.31181641 53.8984375 112.18359375 C53.27195312 112.12300781 52.64546875 112.06242187 52 112 C51.608125 110.9275 51.21625 109.855 50.8125 108.75 C49.04853246 104.00085664 47.02479259 99.37209404 44.98828125 94.734375 C44 92 44 92 44 88 C56.88924923 87.88264446 69.74395118 88.00358919 82.625 88.5 C99.57669983 89.13819474 116.39288231 89.22463233 133.33618164 88.3581543 C140.23353588 88.00884947 147.09281193 87.88270813 154 88 C154.33 88.66 154.66 89.32 155 90 C154.64695801 90.48879639 154.29391602 90.97759277 153.93017578 91.48120117 C152.32301736 93.71277843 150.7239655 95.95004599 149.125 98.1875 C148.56941406 98.95642578 148.01382813 99.72535156 147.44140625 100.51757812 C144.22554109 104.99073823 144.22554109 104.99073823 141.9375 109.96875 C141 112 141 112 138.6171875 112.92578125 C137.71226562 113.05339844 136.80734375 113.18101562 135.875 113.3125 C134.96492187 113.45300781 134.05484375 113.59351563 133.1171875 113.73828125 C132.41851563 113.82464844 131.71984375 113.91101563 131 114 C130.67 115.65 130.34 117.3 130 119 C131.55966218 119.508783 133.12289241 120.00663469 134.6875 120.5 C135.55761719 120.7784375 136.42773438 121.056875 137.32421875 121.34375 C139.99391677 121.99850805 142.26396684 122.11831495 145 122 C146.21690533 120.23470405 146.21690533 120.23470405 147 118 C146.10318584 115.87269715 146.10318584 115.87269715 145 114 C145.50789062 113.6596875 146.01578125 113.319375 146.5390625 112.96875 C153.13467158 108.32465072 158.53838915 102.87715472 161 95 C161.99 95 162.98 95 164 95 C165.6484375 97.01171875 165.6484375 97.01171875 167.375 99.6875 C169.37438331 102.68657496 171.24720294 105.46248183 173.875 107.9375 C176 110 176 110 177 113 C175.02 114.485 175.02 114.485 173 116 C173.27540704 119.81813447 173.27540704 119.81813447 175 123 C178.49734228 122.61140641 181.65788261 122.11403913 185 121 C186.1500831 119.03327085 186.1500831 119.03327085 187 117 C187.33 116.67 187.66 116.34 188 116 C188.04092937 113.66702567 188.04241723 111.33294775 188 109 C187.33613281 109.020625 186.67226563 109.04125 185.98828125 109.0625 C178.98337186 108.89888168 178.98337186 108.89888168 176.36328125 106.50390625 C175.01511953 104.39022683 173.98599978 102.30566488 173 100 C172.60941406 99.11441406 172.21882812 98.22882813 171.81640625 97.31640625 C169 90.60185986 169 90.60185986 169 88 C171.53665416 87.18827067 173.50250679 87.00614311 176.1953125 87.0390625 C186.45944965 86.93368122 197.01845624 84.75472419 205 78 C207.07378754 75.67126977 208.93274241 73.31001905 210.72265625 70.7578125 C211.14417969 70.17773438 211.56570313 69.59765625 212 69 C212.33 69 212.66 69 213 69 C213.31432917 72.52352858 213.4046227 74.40479414 211.3828125 77.37890625 C202.08700887 86.36913848 192.43815592 91.07014491 179.4375 91.125 C177.95808244 91.09347512 176.47870971 91.05556738 175 91 C175.64241894 92.813713 176.28903119 94.62594124 176.9375 96.4375 C177.47697266 97.95150391 177.47697266 97.95150391 178.02734375 99.49609375 C178.76877639 101.90313745 178.76877639 101.90313745 180 103 C182.25543624 103.24261665 184.50945523 103.38332133 186.7734375 103.5234375 C189.48949551 104.10476921 190.39924985 104.7418885 192 107 C192.94239319 111.17867366 192.93786082 115.31497673 190.828125 119.10546875 C187.06342205 123.65610195 183.43445379 126.6087485 177.5 127.5625 C174 127 174 127 171.0625 124.4375 C168.58491231 121.00137019 168.5328977 118.20392074 169 114 C169.23074219 113.35804688 169.46148438 112.71609375 169.69921875 112.0546875 C170.22178628 109.90491174 170.22178628 109.90491174 168.85546875 107.859375 C168.30503906 107.16328125 167.75460937 106.4671875 167.1875 105.75 C166.64480469 105.04359375 166.10210938 104.3371875 165.54296875 103.609375 C164.77919922 102.81273437 164.77919922 102.81273437 164 102 C163.34 102 162.68 102 162 102 C160.43802886 103.71641978 158.94860958 105.49938639 157.5 107.3125 C156.7059375 108.29863281 155.911875 109.28476562 155.09375 110.30078125 C152.94750264 113.00109783 152.94750264 113.00109783 151 116 C151.3121764 118.64632287 151.3121764 118.64632287 152 121 C147.10062893 125.77987421 147.10062893 125.77987421 142.875 126.625 C137.18618902 125.70744984 132.21273277 123.39665874 127 121 C126.58331531 116.74981621 126.55977918 114.64657432 129 111.0625 C133.03031789 108.29165645 135.19839142 108.59308402 140 109 C140.24492188 108.30519531 140.48984375 107.61039062 140.7421875 106.89453125 C142.20250025 103.53399786 144.06281778 100.71425133 146.125 97.6875 C146.84945312 96.61886719 147.57390625 95.55023438 148.3203125 94.44921875 C149.15175781 93.23685547 149.15175781 93.23685547 150 92 C148.71061523 92.16226074 147.42123047 92.32452148 146.09277344 92.49169922 C141.21887811 93.03066814 136.41533694 93.14460987 131.515625 93.1328125 C130.18702705 93.13479141 130.18702705 93.13479141 128.83158875 93.1368103 C125.97102269 93.1387144 123.11055601 93.13240899 120.25 93.125 C119.27112823 93.12411377 118.29225647 93.12322754 117.28372192 93.12231445 C104.00123706 93.10820854 90.75046941 92.90243772 77.47875977 92.3581543 C67.9804462 91.96896537 58.50474783 91.89347107 49 92 C50.26566466 97.22802185 51.62781159 102.15701026 54 107 C56.43313888 108.42556419 58.04825333 108.59704912 60.8359375 108.76953125 C63 109 63 109 66.125 111.3125 C68 114 68 114 67.9140625 116.44140625 C66.71702906 119.79207677 65.21143829 120.70619827 62.25 122.625 C61.38890625 123.19476563 60.5278125 123.76453125 59.640625 124.3515625 C58.76921875 124.89554687 57.8978125 125.43953125 57 126 C56.16210938 126.55945313 55.32421875 127.11890625 54.4609375 127.6953125 C51.81547589 129.09782707 50.33369631 129.35167341 47.375 129.25 C46.61960937 129.23453125 45.86421875 129.2190625 45.0859375 129.203125 C43 129 43 129 40 128 C37.52657734 124.28986601 37.61496514 122.38939738 38 118 C39.51953125 115.77734375 39.51953125 115.77734375 41 114 C40.50628906 113.39671875 40.01257813 112.7934375 39.50390625 112.171875 C38.86324219 111.37265625 38.22257813 110.5734375 37.5625 109.75 C36.92441406 108.96109375 36.28632812 108.1721875 35.62890625 107.359375 C34.09494695 105.13752508 33.42869754 103.63256518 33 101 C28.98052572 102.5162749 27.37553539 104.94379267 25 108.4375 C21.38806972 113.73546804 21.38806972 113.73546804 18.7421875 115.5390625 C18.16726563 116.02117187 17.59234375 116.50328125 17 117 C16.74137153 119.38601555 16.74137153 119.38601555 17.125 121.9375 C17.29804835 126.67902485 17.29804835 126.67902485 14.5625 129.625 C9.38914377 131.62173398 4.99594549 132.09595271 -0.28515625 130.1640625 C-3.30227336 128.70752321 -5.62027058 127.37972942 -8 125 C-8.68512668 121.57436662 -8.69660102 118.423605 -8 115 C-5.14912466 111.30859302 -1.30333997 110.06471109 3.0625 108.9375 C6.21972878 107.91170777 6.96654788 107.05220558 8.8046875 104.18359375 C10.29882051 101.15600845 11.66314782 98.09927667 13 95 C13.33 94.67 13.66 94.34 14 94 C13.00987915 93.85751831 13.00987915 93.85751831 11.99975586 93.7121582 C8.97569017 93.26545436 5.95696729 92.78925799 2.9375 92.3125 C1.89916016 92.16361328 0.86082031 92.01472656 -0.20898438 91.86132812 C-7.82339344 90.62851904 -12.83567549 88.93163925 -17.8203125 82.73828125 C-24.12060895 71.024257 -29.06205383 56.41280886 -27 43 C-26.03162557 40.02605822 -24.72365932 37.59737628 -23 35 C-22.38125 33.9275 -21.7625 32.855 -21.125 31.75 C-18.71737257 28.63424685 -16.3344341 27.06734914 -13 25 C-11.94625715 24.11840326 -10.9044393 23.22235797 -9.875 22.3125 C-7.22098673 20.1777502 -6.16696335 19.61844134 -3 19 C-3.05220703 17.82244141 -3.05220703 17.82244141 -3.10546875 16.62109375 C-3.27019021 10.22833246 -3.07880961 5.64448429 0 0 Z " fill="#121212" transform="translate(587,156)"/>
<path d="M0 0 C4.30348632 0.73548283 7.00595158 2.07867829 9.765625 5.47265625 C10.48999023 7.74047852 10.48999023 7.74047852 10.94921875 10.1640625 C11.1083374 10.97174072 11.26745605 11.77941895 11.43139648 12.61157227 C11.54169189 13.22572998 11.6519873 13.8398877 11.765625 14.47265625 C15.03679232 14.33377119 18.307459 14.18535133 21.578125 14.03515625 C22.50689453 13.99583984 23.43566406 13.95652344 24.39257812 13.91601562 C25.28525391 13.87412109 26.17792969 13.83222656 27.09765625 13.7890625 C27.91983643 13.75240479 28.7420166 13.71574707 29.58911133 13.67797852 C31.94467678 13.53837853 31.94467678 13.53837853 34.765625 12.47265625 C36.24907147 12.37149644 37.73655237 12.32435102 39.22338867 12.31152344 C40.12671432 12.30191589 41.03003998 12.29230835 41.96073914 12.28240967 C42.94178116 12.27815979 43.92282318 12.27390991 44.93359375 12.26953125 C46.47325554 12.26098114 46.47325554 12.26098114 48.04402161 12.2522583 C50.23221812 12.24279342 52.42042898 12.23626844 54.60864258 12.23242188 C57.86762952 12.22290589 61.12593207 12.19198128 64.38476562 12.16015625 C77.25221291 12.09641089 89.69167958 12.92635912 102.42822266 14.76416016 C109.10943402 15.7122295 115.79361933 16.02625821 122.53125 16.26953125 C127.45562199 16.4611584 132.32254338 17.07795093 137.19921875 17.77734375 C140.02286014 17.73525338 140.02286014 17.73525338 141.88671875 15.0078125 C142.50675781 14.17121094 143.12679687 13.33460938 143.765625 12.47265625 C147.390625 12.03515625 147.390625 12.03515625 150.765625 12.47265625 C152.765625 14.47265625 152.765625 14.47265625 152.8203125 16.8984375 C152.73136719 18.32736328 152.73136719 18.32736328 152.640625 19.78515625 C152.52014511 24.94571137 153.44264892 26.52662216 156.765625 30.47265625 C157.11650468 33.50157346 157.0036717 36.43756078 156.765625 39.47265625 C156.435625 39.47265625 156.105625 39.47265625 155.765625 39.47265625 C155.49298828 38.55033203 155.49298828 38.55033203 155.21484375 37.609375 C154.83779297 36.39701172 154.83779297 36.39701172 154.453125 35.16015625 C154.20949219 34.35964844 153.96585938 33.55914062 153.71484375 32.734375 C152.71775438 30.35859414 151.60195238 29.22668324 149.765625 27.47265625 C149.765625 26.81265625 149.765625 26.15265625 149.765625 25.47265625 C149.105625 25.47265625 148.445625 25.47265625 147.765625 25.47265625 C148.755625 22.17265625 149.745625 18.87265625 150.765625 15.47265625 C148.455625 15.47265625 146.145625 15.47265625 143.765625 15.47265625 C143.105625 17.45265625 142.445625 19.43265625 141.765625 21.47265625 C140.22371346 21.32943522 138.68210608 21.18293836 137.140625 21.03515625 C136.28210938 20.95394531 135.42359375 20.87273437 134.5390625 20.7890625 C132.69310036 20.57846682 130.85281293 20.31002274 129.02368164 19.98413086 C125.62777126 19.45101492 122.29400113 19.18238027 118.86328125 18.97265625 C117.56068359 18.89015625 116.25808594 18.80765625 114.91601562 18.72265625 C113.55340555 18.63899438 112.1907751 18.55566361 110.828125 18.47265625 C108.15211581 18.30921635 105.4764365 18.14195129 102.80078125 17.97265625 C101.6187915 17.90046875 100.43680176 17.82828125 99.21899414 17.75390625 C95.765625 17.47265625 95.765625 17.47265625 92.58813477 16.94970703 C87.24247841 16.28256693 81.95221012 16.33014211 76.5703125 16.33984375 C75.38704376 16.33888702 74.20377502 16.3379303 72.98464966 16.33694458 C70.47820991 16.33626514 67.97176838 16.33810294 65.46533203 16.34228516 C61.70210608 16.34756991 57.93900317 16.34236698 54.17578125 16.3359375 C40.00907757 16.33242759 25.9076539 16.62556242 11.765625 17.47265625 C11.105625 18.79265625 10.445625 20.11265625 9.765625 21.47265625 C8.775625 21.47265625 7.785625 21.47265625 6.765625 21.47265625 C6.86101563 20.725 6.95640625 19.97734375 7.0546875 19.20703125 C7.16554688 18.2221875 7.27640625 17.23734375 7.390625 16.22265625 C7.50664063 15.248125 7.62265625 14.27359375 7.7421875 13.26953125 C7.76720015 10.2846887 7.43421984 8.91556635 5.765625 6.47265625 C1.73923704 3.91040936 -1.4640319 2.73060288 -6.234375 3.47265625 C-9.99239442 6.71232816 -9.47811119 9.17880956 -10.234375 14.47265625 C-18.814375 14.80265625 -27.394375 15.13265625 -36.234375 15.47265625 C-36.234375 14.81265625 -36.234375 14.15265625 -36.234375 13.47265625 C-33.4441083 12.54256735 -31.46907958 12.28566856 -28.56640625 12.15625 C-27.67373047 12.11435547 -26.78105469 12.07246094 -25.86132812 12.02929688 C-24.93255859 11.98998047 -24.00378906 11.95066406 -23.046875 11.91015625 C-22.10650391 11.86697266 -21.16613281 11.82378906 -20.19726562 11.77929688 C-17.87644646 11.6732696 -15.55552175 11.57120596 -13.234375 11.47265625 C-13.09773437 10.54195312 -12.96109375 9.61125 -12.8203125 8.65234375 C-11.37303299 0.79844028 -7.35072256 -0.3832596 0 0 Z " fill="#111111" transform="translate(643.234375,155.52734375)"/>
<path d="M0 0 C4.63531806 0.79219419 6.47279633 2.03970721 9.765625 5.47265625 C10.425625 8.44265625 11.085625 11.41265625 11.765625 14.47265625 C18.365625 14.47265625 24.965625 14.47265625 31.765625 14.47265625 C31.765625 14.80265625 31.765625 15.13265625 31.765625 15.47265625 C30.92584106 15.47881958 30.92584106 15.47881958 30.0690918 15.48510742 C27.5293663 15.5180293 24.99204519 15.58866319 22.453125 15.66015625 C21.13151367 15.66885742 21.13151367 15.66885742 19.78320312 15.67773438 C17.34281756 15.76124567 15.1352474 15.87781277 12.765625 16.47265625 C10.79440606 18.89358444 10.79440606 18.89358444 9.765625 21.47265625 C8.775625 21.47265625 7.785625 21.47265625 6.765625 21.47265625 C6.86101563 20.725 6.95640625 19.97734375 7.0546875 19.20703125 C7.16554688 18.2221875 7.27640625 17.23734375 7.390625 16.22265625 C7.50664063 15.248125 7.62265625 14.27359375 7.7421875 13.26953125 C7.76720015 10.2846887 7.43421984 8.91556635 5.765625 6.47265625 C1.73923704 3.91040936 -1.4640319 2.73060288 -6.234375 3.47265625 C-9.99239442 6.71232816 -9.47811119 9.17880956 -10.234375 14.47265625 C-18.814375 14.80265625 -27.394375 15.13265625 -36.234375 15.47265625 C-36.234375 14.81265625 -36.234375 14.15265625 -36.234375 13.47265625 C-33.4441083 12.54256735 -31.46907958 12.28566856 -28.56640625 12.15625 C-27.67373047 12.11435547 -26.78105469 12.07246094 -25.86132812 12.02929688 C-24.93255859 11.98998047 -24.00378906 11.95066406 -23.046875 11.91015625 C-22.10650391 11.86697266 -21.16613281 11.82378906 -20.19726562 11.77929688 C-17.87644646 11.6732696 -15.55552175 11.57120596 -13.234375 11.47265625 C-13.09773437 10.54195312 -12.96109375 9.61125 -12.8203125 8.65234375 C-11.37303299 0.79844028 -7.35072256 -0.3832596 0 0 Z " fill="#0D0D0D" transform="translate(643.234375,155.52734375)"/>
<path d="M0 0 C0.9614241 -0.00315216 1.92284821 -0.00630432 2.91340637 -0.009552 C3.95091537 -0.00752777 4.98842438 -0.00550354 6.05737305 -0.00341797 C7.12650436 -0.00437469 8.19563568 -0.00533142 9.29716492 -0.00631714 C11.56090351 -0.00699805 13.82464406 -0.00514994 16.08837891 -0.00097656 C19.5448855 0.00435718 23.00126122 -0.00091644 26.45776367 -0.00732422 C28.65763375 -0.00666311 30.85750375 -0.00538128 33.05737305 -0.00341797 C34.08880936 -0.0054422 35.12024567 -0.00746643 36.18293762 -0.009552 C40.98635133 0.00604325 45.53487969 0.11999763 50.2565918 1.12939453 C50.2565918 1.78939453 50.2565918 2.44939453 50.2565918 3.12939453 C42.50517335 3.27440287 34.75370463 3.41646698 27.00219727 3.55664062 C24.37425563 3.60449145 21.74632544 3.65297606 19.1184082 3.70214844 C3.82939833 3.9877609 -11.45154826 4.2101377 -26.7434082 4.12939453 C-26.7434082 3.79939453 -26.7434082 3.46939453 -26.7434082 3.12939453 C-20.4734082 3.12939453 -14.2034082 3.12939453 -7.7434082 3.12939453 C-7.7434082 2.46939453 -7.7434082 1.80939453 -7.7434082 1.12939453 C-4.84640356 0.16372632 -3.01151871 0.00283302 0 0 Z " fill="#252525" transform="translate(682.743408203125,167.87060546875)"/>
<path d="M0 0 C0.98484375 0.02707031 1.9696875 0.05414063 2.984375 0.08203125 C3.73203125 0.11683594 4.4796875 0.15164062 5.25 0.1875 C4.92 0.8475 4.59 1.5075 4.25 2.1875 C1.52734375 2.8203125 1.52734375 2.8203125 -1.8125 3.3125 C-2.91722656 3.48007813 -4.02195312 3.64765625 -5.16015625 3.8203125 C-6.44212891 4.00207031 -6.44212891 4.00207031 -7.75 4.1875 C-9.17109687 8.62842772 -10.36394419 12.48059454 -9.75 17.1875 C-8.18138091 19.94710765 -6.9547339 21.81846036 -3.82763672 22.77636719 C-1.54903544 23.12739083 0.70009796 23.34171487 3 23.5 C3.79277344 23.57283203 4.58554687 23.64566406 5.40234375 23.72070312 C7.34982846 23.89668066 9.29979058 24.04485368 11.25 24.1875 C10.92 25.1775 10.59 26.1675 10.25 27.1875 C7.68508544 27.12721999 5.12578243 27.04012053 2.5625 26.9375 C1.84126953 26.92332031 1.12003906 26.90914062 0.37695312 26.89453125 C-4.54172599 26.66993403 -7.16496243 25.83239905 -10.75 22.1875 C-13.59316661 17.92275008 -13.25671891 14.19232365 -12.75 9.1875 C-10.30089725 2.45246744 -7.1974954 -0.25705341 0 0 Z " fill="#252525" transform="translate(596.75,192.8125)"/>
<path d="M0 0 C1.61841797 0.09087891 1.61841797 0.09087891 3.26953125 0.18359375 C4.34158813 0.24341431 4.34158813 0.24341431 5.43530273 0.30444336 C7.04032936 0.39428001 8.64530909 0.48495802 10.25024414 0.57641602 C14.51238784 0.81684463 18.77391091 1.0387436 23.0390625 1.21875 C31.50351958 1.58880836 39.71086625 2.08139151 48 4 C47.67 4.99 47.34 5.98 47 7 C46.07429199 6.80192749 46.07429199 6.80192749 45.12988281 6.59985352 C37.02945017 4.98552979 28.98671231 4.40457195 20.75 3.9375 C18.11953951 3.78372612 15.48946846 3.62492489 12.859375 3.46484375 C11.13412598 3.36610962 11.13412598 3.36610962 9.37402344 3.26538086 C5.88565402 2.99100622 2.45794027 2.53023583 -1 2 C-0.67 1.34 -0.34 0.68 0 0 Z " fill="#050505" transform="translate(733,170)"/>
<path d="M0 0 C5.87711622 -0.48975968 10.09611773 0.62928552 15 4 C17.29013653 7.4352048 17.17842973 8.985331 17 13 C16.34 13 15.68 13 15 13 C14.814375 11.906875 14.62875 10.81375 14.4375 9.6875 C13.3364902 5.72410335 13.3364902 5.72410335 9.625 4.0625 C5.98983152 2.81248638 5.98983152 2.81248638 2 3 C-0.10428384 8.12919186 -0.21755666 12.5610835 0 18 C-0.33 17.34 -0.66 16.68 -1 16 C-1.66 16 -2.32 16 -3 16 C-3.37952295 9.80112515 -2.8352113 5.5522888 0 0 Z " fill="#171717" transform="translate(587,156)"/>
<path d="M0 0 C1.49080078 0.02707031 1.49080078 0.02707031 3.01171875 0.0546875 C3.77097656 0.07789063 4.53023437 0.10109375 5.3125 0.125 C4.9825 0.785 4.6525 1.445 4.3125 2.125 C1.58984375 2.7578125 1.58984375 2.7578125 -1.75 3.25 C-2.85472656 3.41757813 -3.95945312 3.58515625 -5.09765625 3.7578125 C-6.37962891 3.93957031 -6.37962891 3.93957031 -7.6875 4.125 C-9.2787689 8.998261 -9.89942221 12.93290596 -9.6875 18.125 C-10.3475 18.125 -11.0075 18.125 -11.6875 18.125 C-12.25062292 6.21599299 -12.25062292 6.21599299 -8.6875 2.125 C-5.26655758 -0.15562828 -4.00562778 -0.09425007 0 0 Z " fill="#191919" transform="translate(596.6875,192.875)"/>
<path d="M0 0 C0.66 0 1.32 0 2 0 C2.05399736 1.45792884 2.09279177 2.91642712 2.125 4.375 C2.14820313 5.18710938 2.17140625 5.99921875 2.1953125 6.8359375 C2 9 2 9 0 11 C-2.5 11.3125 -2.5 11.3125 -5 11 C-7.4294516 7.3558226 -7.16179575 5.28758728 -7 1 C-6.34 1 -5.68 1 -5 1 C-4.67 3.31 -4.34 5.62 -4 8 C-3.01 7.67 -2.02 7.34 -1 7 C-0.67 4.69 -0.34 2.38 0 0 Z " fill="#060606" transform="translate(718,215)"/>
<path d="M0 0 C0.99 0 1.98 0 3 0 C3 2.64 3 5.28 3 8 C3.66 7.67 4.32 7.34 5 7 C5 5.02 5 3.04 5 1 C5.99 1 6.98 1 8 1 C8.1953125 7.0546875 8.1953125 7.0546875 8 9 C7.34 9.66 6.68 10.32 6 11 C3.06546739 10.63318342 2.13562754 10.13562754 0 8 C-0.26991906 5.31160615 -0.08737357 2.70858064 0 0 Z " fill="#040404" transform="translate(658,188)"/>
<path d="M0 0 C0.66 0 1.32 0 2 0 C0.49637741 3.78716158 -1.05487001 7.55245187 -2.625 11.3125 C-3.07101562 12.38113281 -3.51703125 13.44976562 -3.9765625 14.55078125 C-4.48316406 15.76314453 -4.48316406 15.76314453 -5 17 C-5.66 17 -6.32 17 -7 17 C-8 14 -8 14 -6.6015625 10.8984375 C-5.95299053 9.71824916 -5.29367954 8.54391309 -4.625 7.375 C-4.295 6.776875 -3.965 6.17875 -3.625 5.5625 C-1.1932398 1.1932398 -1.1932398 1.1932398 0 0 Z " fill="#222222" transform="translate(601,250)"/>
<path d="M0 0 C0.66 0 1.32 0 2 0 C2.1953125 6.0546875 2.1953125 6.0546875 2 8 C1.34 8.66 0.68 9.32 0 10 C-3.53571429 9.46428571 -3.53571429 9.46428571 -5 8 C-5.04080783 6.00041636 -5.04254356 3.99954746 -5 2 C-4.34 2 -3.68 2 -3 2 C-2.67 2.99 -2.34 3.98 -2 5 C-1.34 5.33 -0.68 5.66 0 6 C0 4.02 0 2.04 0 0 Z " fill="#050505" transform="translate(649,199)"/>
<path d="M0 0 C0 0.66 0 1.32 0 2 C-0.66386719 2.24234375 -1.32773437 2.4846875 -2.01171875 2.734375 C-6.95731756 4.61153659 -11.07130813 6.33322093 -15 10 C-14.68988845 6.92472717 -14.53019713 5.44365669 -12.109375 3.41796875 C-11.33078125 3.01191406 -10.5521875 2.60585938 -9.75 2.1875 C-8.98171875 1.76855469 -8.2134375 1.34960938 -7.421875 0.91796875 C-4.77939171 -0.08361766 -2.80172996 -0.17386622 0 0 Z " fill="#181818" transform="translate(594,265)"/>
<path d="M0 0 C0.99 0 1.98 0 3 0 C3 1.65 3 3.3 3 5 C6.27773504 4.24849977 6.27773504 4.24849977 8 1 C8.125 3.375 8.125 3.375 8 6 C7.34 6.66 6.68 7.32 6 8 C3.375 7.625 3.375 7.625 1 7 C0.67 4.69 0.34 2.38 0 0 Z " fill="#131313" transform="translate(782,221)"/>
<path d="M0 0 C3.15353929 0.84094381 5.46501019 1.50067618 7.875 3.75 C9.31217164 6.62434327 9.21618085 8.82934761 9 12 C8.34 12 7.68 12 7 12 C6.814375 10.906875 6.62875 9.81375 6.4375 8.6875 C5.42483472 5.0509502 5.42483472 5.0509502 3.30859375 3.8671875 C1.16349857 2.94073788 1.16349857 2.94073788 -2 2 C-1.34 1.34 -0.68 0.68 0 0 Z " fill="#252525" transform="translate(595,157)"/>
<path d="M0 0 C0.99 0.495 0.99 0.495 2 1 C2.625 3.5625 2.625 3.5625 3 6 C6.11332248 5.33131686 6.11332248 5.33131686 7.1875 2.9375 C7.455625 2.298125 7.72375 1.65875 8 1 C8.125 3.875 8.125 3.875 8 7 C7.34 7.66 6.68 8.32 6 9 C3.06546739 8.63318342 2.13562754 8.13562754 0 6 C-0.125 2.875 -0.125 2.875 0 0 Z " fill="#0F0F0F" transform="translate(746,189)"/>
<path d="M0 0 C0.66 0.33 1.32 0.66 2 1 C0.68 3.64 -0.64 6.28 -2 9 C-3.32 8.67 -4.64 8.34 -6 8 C-6 6 -6 6 -3.5625 3.4375 C-2.716875 2.633125 -1.87125 1.82875 -1 1 C-0.67 0.67 -0.34 0.34 0 0 Z " fill="#333333" transform="translate(787,168)"/>
<path d="M0 0 C1.32 0.33 2.64 0.66 4 1 C3.67 2.65 3.34 4.3 3 6 C2.34 6 1.68 6 1 6 C0.67 4.02 0.34 2.04 0 0 Z " fill="#D1D1D1" transform="translate(660,190)"/>
</svg>
