<?xml version="1.0" encoding="UTF-8"?>
<svg version="1.1" xmlns="http://www.w3.org/2000/svg" width="800" height="300">
<path d="M0 0 C264 0 528 0 800 0 C800 99 800 198 800 300 C536 300 272 300 0 300 C0 201 0 102 0 0 Z " fill="#FEFEFE" transform="translate(0,0)"/>
<path d="M0 0 C4.88023339 0.3200153 8.13596776 1.51359161 11.5625 5.0625 C13.06838287 7.69779503 13.95426603 10.3452081 14.8125 13.25 C15.43511719 13.09660156 16.05773437 12.94320312 16.69921875 12.78515625 C20.99524772 12.04669205 25.27491952 11.88537838 29.625 11.6875 C30.50865234 11.64431641 31.39230469 11.60113281 32.30273438 11.55664062 C34.47249623 11.45108464 36.6424791 11.35008929 38.8125 11.25 C38.93753906 10.31929687 39.06257812 9.38859375 39.19140625 8.4296875 C40.03210233 4.12574654 41.21232205 2.74808266 44.8125 0.25 C49.82978556 -0.7116464 53.66654827 -0.31255812 58.25 1.9375 C62.00173403 5.3232112 63.69081541 8.39279698 64.8125 13.25 C69.89626435 13.3512254 74.89225177 13.28425685 79.953125 12.765625 C88.73042749 12.01403321 97.50822018 11.9639106 106.3125 11.9375 C107.70899277 11.93207687 107.70899277 11.93207687 109.13369751 11.92654419 C136.73463279 11.88429682 164.39852807 14.10694121 191.8125 17.25 C192.1425 16.59 192.4725 15.93 192.8125 15.25 C193.4725 15.25 194.1325 15.25 194.8125 15.25 C194.8125 14.59 194.8125 13.93 194.8125 13.25 C197.61120027 11.85064987 199.71748792 11.99734595 202.8125 12.25 C204.6875 13.375 204.6875 13.375 205.8125 15.25 C206.06542101 18.22182182 206.1300425 20.46835693 205 23.25 C204.938125 23.91 204.87625 24.57 204.8125 25.25 C205.99836064 26.63915104 207.18973834 28.02399596 208.40942383 29.38354492 C213.95633459 36.76237435 214.49152346 45.9935436 214.4375 54.875 C214.46972656 55.94234375 214.50195312 57.0096875 214.53515625 58.109375 C214.54465427 65.8407612 212.7624899 70.35484103 207.8125 76.25 C207.16925781 77.05953125 206.52601563 77.8690625 205.86328125 78.703125 C198.61298878 86.19780935 188.60585156 90.92480979 178.09765625 91.36328125 C175.66495207 91.37351703 173.24336461 91.33966304 170.8125 91.25 C171.08964844 91.93707031 171.36679687 92.62414062 171.65234375 93.33203125 C172.01457031 94.23308594 172.37679687 95.13414062 172.75 96.0625 C173.10964844 96.95582031 173.46929688 97.84914063 173.83984375 98.76953125 C174.54863486 100.5770909 175.1985247 102.40807409 175.8125 104.25 C176.42738281 104.21519531 177.04226563 104.18039062 177.67578125 104.14453125 C178.48402344 104.11746094 179.29226563 104.09039062 180.125 104.0625 C181.32576172 104.01029297 181.32576172 104.01029297 182.55078125 103.95703125 C184.8125 104.25 184.8125 104.25 186.55859375 105.4375 C188.74884537 108.60347118 188.57758798 111.62598205 188.5078125 115.37890625 C187.23523602 120.63364621 183.13100239 123.33462113 178.8125 126.25 C175.63371306 127.83939347 173.3168228 127.66576711 169.8125 127.25 C166.03037715 123.95070134 164.9673895 122.55549722 164.375 117.5625 C164.8125 114.25 164.8125 114.25 166.8125 111.25 C165.85520084 110.12411986 164.89662105 108.9993285 163.9375 107.875 C163.40382813 107.24851562 162.87015625 106.62203125 162.3203125 105.9765625 C161.19817993 104.69163349 160.01878025 103.45628025 158.8125 102.25 C158.1525 102.25 157.4925 102.25 156.8125 102.25 C156.56886719 102.81976563 156.32523438 103.38953125 156.07421875 103.9765625 C154.5926122 106.6462065 152.7715657 108.45943814 150.625 110.625 C148.43756034 112.90999389 148.43756034 112.90999389 146.8125 115.25 C147.12053455 118.43522204 147.12053455 118.43522204 147.8125 121.25 C144.78398738 124.73278951 143.15514043 126.01306345 138.625 126.8125 C133.79905667 126.10047557 126.4020895 124.8395895 122.8125 121.25 C122.32182618 116.9974936 122.33507252 114.936302 124.8125 111.375 C127.8125 109.25 127.8125 109.25 131.625 109.25 C133.75175876 109.2630238 133.75175876 109.2630238 135.8125 108.25 C139.00279769 104.17942685 141.3725245 99.79774776 143.8125 95.25 C144.8025 93.765 144.8025 93.765 145.8125 92.25 C144.52311523 92.41226074 143.23373047 92.57452148 141.90527344 92.74169922 C137.03137811 93.28066814 132.22783694 93.39460987 127.328125 93.3828125 C125.99952705 93.38479141 125.99952705 93.38479141 124.64408875 93.3868103 C121.78352269 93.3887144 118.92305601 93.38240899 116.0625 93.375 C115.08362823 93.37411377 114.10475647 93.37322754 113.09622192 93.37231445 C99.81373706 93.35820854 86.56296941 93.15243772 73.29125977 92.6081543 C63.7929462 92.21896537 54.31724783 92.14347107 44.8125 92.25 C46.07816466 97.47802185 47.44031159 102.40701026 49.8125 107.25 C52.24563888 108.67556419 53.86075333 108.84704912 56.6484375 109.01953125 C58.8125 109.25 58.8125 109.25 61.9375 111.5625 C63.8125 114.25 63.8125 114.25 64 116.75 C62.33916593 120.24649279 59.93541909 122.12222494 56.8125 124.25 C56.12542969 124.72050781 55.43835938 125.19101562 54.73046875 125.67578125 C49.39025568 128.99587869 45.07435342 130.1301802 38.8125 129.25 C35.8125 128.25 35.8125 128.25 33.8125 125.25 C33.3632074 120.30778145 33.66660631 118.02673253 36.8125 114.25 C33.54529209 109.86105071 30.26351522 105.49740335 26.8125 101.25 C26.4825 101.91 26.1525 102.57 25.8125 103.25 C25.1525 103.25 24.4925 103.25 23.8125 103.25 C23.565 103.78625 23.3175 104.3225 23.0625 104.875 C18.8337766 112.90957447 18.8337766 112.90957447 14.8125 114.25 C14.3175 115.735 14.3175 115.735 13.8125 117.25 C13.1525 117.25 12.4925 117.25 11.8125 117.25 C12.1425 117.91 12.4725 118.57 12.8125 119.25 C12.88200541 120.79023996 12.89702357 122.33334988 12.875 123.875 C12.86597656 124.69226563 12.85695313 125.50953125 12.84765625 126.3515625 C12.83605469 126.97804688 12.82445312 127.60453125 12.8125 128.25 C7.80734695 131.33009418 3.55598265 132.28401488 -2.1875 131.25 C-10.3880814 127.84883721 -10.3880814 127.84883721 -12.1875 124.25 C-12.85808266 121.08687426 -13.01012766 118.39285951 -12.1875 115.25 C-8.7877772 111.67290036 -5.03924835 109.39729816 -0.09375 109.00390625 C3.10592068 108.52393213 3.10592068 108.52393213 4.7109375 105.30859375 C5.19820312 104.11363281 5.68546875 102.91867187 6.1875 101.6875 C6.69023438 100.48996094 7.19296875 99.29242188 7.7109375 98.05859375 C8.07445312 97.13175781 8.43796875 96.20492187 8.8125 95.25 C9.4725 95.25 10.1325 95.25 10.8125 95.25 C10.8125 94.59 10.8125 93.93 10.8125 93.25 C9.99007812 93.20101562 9.16765625 93.15203125 8.3203125 93.1015625 C-13.44489845 91.64384629 -13.44489845 91.64384629 -20.1875 85.25 C-28.62782642 73.8399291 -32.53870052 57.30978918 -31.1875 43.25 C-30.21268592 40.30625452 -28.84644328 37.85691087 -27.1875 35.25 C-26.73375 34.3425 -26.28 33.435 -25.8125 32.5 C-23.68198062 29.55005009 -21.27493391 28.17236451 -18.1875 26.25 C-16.14736782 24.69336735 -14.12769477 23.11421071 -12.1171875 21.51953125 C-10.12175661 20.20674777 -8.52106982 19.68041399 -6.1875 19.25 C-6.21070313 18.45335937 -6.23390625 17.65671875 -6.2578125 16.8359375 C-6.43977712 6.1520149 -6.43977712 6.1520149 -4.1875 1.25 C-3.1875 0.25 -3.1875 0.25 0 0 Z " fill="#FCFCFC" transform="translate(583.1875,155.75)"/>
<path d="M0 0 C4.91432378 0.32225074 8.12384767 1.56134767 11.625 5.0625 C13.09168267 7.76428386 13.46742025 10.2132982 13.8125 13.25 C13.1525 13.25 12.4925 13.25 11.8125 13.25 C11.44125 12.156875 11.07 11.06375 10.6875 9.9375 C9.38510133 6.89652197 8.86281813 6.28281617 5.9375 4.375 C3.20745733 3.39218464 0.67842693 2.67145984 -2.1875 2.25 C-2.96755058 5.13883138 -3.46863892 7.96555778 -3.8125 10.9375 C-3.95558594 12.11892578 -3.95558594 12.11892578 -4.1015625 13.32421875 C-4.14410156 14.27748047 -4.14410156 14.27748047 -4.1875 15.25 C-3.8575 15.58 -3.5275 15.91 -3.1875 16.25 C-3.14669217 18.24958364 -3.14495644 20.25045254 -3.1875 22.25 C-4.198125 22.45625 -5.20875 22.6625 -6.25 22.875 C-10.27299368 23.98704703 -12.73035014 26.16055231 -15.70703125 29.0078125 C-17.1875 30.25 -17.1875 30.25 -19.1875 30.25 C-19.1875 30.91 -19.1875 31.57 -19.1875 32.25 C-20.49950404 33.60432675 -21.83381404 34.93733482 -23.1875 36.25 C-23.5175 36.91 -23.8475 37.57 -24.1875 38.25 C-24.8475 38.25 -25.5075 38.25 -26.1875 38.25 C-29.28052399 52.55523595 -25.76779679 67.83293639 -18.69140625 80.5234375 C-14.49517668 85.34092704 -9.55849091 86.97816366 -3.4375 87.9375 C-2.73882813 88.05778564 -2.04015625 88.17807129 -1.3203125 88.30200195 C4.03201543 89.19755405 9.39750224 89.87251218 14.8125 90.25 C15.1425 91.24 15.4725 92.23 15.8125 93.25 C14.8225 93.58 13.8325 93.91 12.8125 94.25 C11.18534327 96.85604 11.18534327 96.85604 9.75 100 C9.24339844 101.04671875 8.73679687 102.0934375 8.21484375 103.171875 C6.78613003 106.16661479 6.78613003 106.16661479 5.8671875 109.0703125 C5.34511719 110.14925781 5.34511719 110.14925781 4.8125 111.25 C2.84358415 111.83099156 0.86688587 112.40215625 -1.14453125 112.8125 C-4.11798707 113.44926301 -5.95354868 114.15567064 -8.1875 116.25 C-8.90663365 119.06758922 -8.89231792 121.43072831 -8.1875 124.25 C-5.84910743 126.74428541 -4.05776214 127.1666625 -0.69921875 127.48828125 C1.86165388 127.55869598 4.27300211 127.59609086 6.8125 127.25 C7.4725 126.59 8.1325 125.93 8.8125 125.25 C8.83503443 122.80036823 8.83503443 122.80036823 8.4375 120.125 C8.32664062 119.21492188 8.21578125 118.30484375 8.1015625 117.3671875 C8.00617187 116.66851562 7.91078125 115.96984375 7.8125 115.25 C8.62654297 114.79560547 8.62654297 114.79560547 9.45703125 114.33203125 C13.88960809 111.73637814 16.39583049 109.87319385 18.8125 105.25 C19.92619042 103.62335364 21.07552217 102.02081505 22.25 100.4375 C22.82621094 99.64730469 23.40242187 98.85710937 23.99609375 98.04296875 C25.8125 96.25 25.8125 96.25 29.8125 96.25 C30.39257812 97.35408203 30.39257812 97.35408203 30.984375 98.48046875 C35.58757085 107.45414656 35.58757085 107.45414656 42.8125 114.25 C42.3175 116.23 42.3175 116.23 41.8125 118.25 C40.4925 118.25 39.1725 118.25 37.8125 118.25 C37.8125 120.23 37.8125 122.21 37.8125 124.25 C41.19744669 125.94247334 44.19745919 126.07133727 47.8125 125.25 C51.81770782 122.98687337 55.49226836 120.44206094 58.8125 117.25 C58.8125 116.26 58.8125 115.27 58.8125 114.25 C56.51620006 113.10185003 54.73551914 112.94230191 52.1875 112.6875 C50.96160156 112.56181641 50.96160156 112.56181641 49.7109375 112.43359375 C49.08445312 112.37300781 48.45796875 112.31242187 47.8125 112.25 C45.74600643 106.77379203 43.73900203 101.28032698 41.77734375 95.765625 C40.91083235 93.5063807 39.93747373 91.38995002 38.8125 89.25 C40.38734437 87.67515563 41.95375405 88.12021162 44.140625 88.1171875 C45.07076416 88.11525391 46.00090332 88.11332031 46.95922852 88.11132812 C48.4953479 88.1180957 48.4953479 88.1180957 50.0625 88.125 C51.12718506 88.12693359 52.19187012 88.12886719 53.28881836 88.13085938 C61.65815929 88.17439615 70.01214114 88.43188101 78.375 88.75 C95.69228813 89.40214885 112.89052807 89.4970866 130.19946289 88.6081543 C137.07991647 88.2576585 143.92210248 88.13299325 150.8125 88.25 C149.92810705 92.61973214 147.56598565 95.61787042 144.9375 99.125 C142.36754943 102.56888188 140.06002492 105.68902968 138.31640625 109.640625 C136.8125 112.25 136.8125 112.25 134.33203125 113.0546875 C133.43871094 113.07789063 132.54539062 113.10109375 131.625 113.125 C130.72394531 113.16367187 129.82289063 113.20234375 128.89453125 113.2421875 C128.20746094 113.24476563 127.52039063 113.24734375 126.8125 113.25 C126.8125 115.23 126.8125 117.21 126.8125 119.25 C132.83731126 121.74302535 137.37002705 123.39749098 143.8125 121.25 C143.0390625 120.1053125 143.0390625 120.1053125 142.25 118.9375 C141.775625 118.050625 141.30125 117.16375 140.8125 116.25 C141.8125 113.25 141.8125 113.25 144.375 111.75 C150.44895318 107.98503144 154.86131543 100.63419519 157.8125 94.25 C161.98896884 98.1944428 165.46129182 102.2097816 167.8125 107.5 C169.09432353 109.74319118 170.45496152 110.30698461 172.8125 111.25 C172.8125 111.91 172.8125 112.57 172.8125 113.25 C170.8125 114.875 170.8125 114.875 168.8125 116.25 C169.1425 118.23 169.4725 120.21 169.8125 122.25 C173.34972984 123.15487275 175.1839202 123.53571809 178.5625 122 C181.02331851 120.27635231 181.02331851 120.27635231 182.8125 117.25 C183.4725 117.25 184.1325 117.25 184.8125 117.25 C184.4825 114.61 184.1525 111.97 183.8125 109.25 C183.16023437 109.31703125 182.50796875 109.3840625 181.8359375 109.453125 C178.79762109 109.50690051 176.6652502 109.33737115 173.8125 108.25 C171.04226596 104.55445068 169.49989951 100.52369408 167.8125 96.25 C167.26464844 95.17105469 166.71679688 94.09210938 166.15234375 92.98046875 C164.8125 90.25 164.8125 90.25 164.8125 88.25 C167.34915416 87.43827067 169.31500679 87.25614311 172.0078125 87.2890625 C182.27675331 87.1836319 192.8340796 85.0106615 200.8125 78.25 C208.51932882 69.91587116 209.99356929 65.43119732 210 54.3125 C210.01224609 53.20197266 210.02449219 52.09144531 210.03710938 50.94726562 C210.03904297 49.88314453 210.04097656 48.81902344 210.04296875 47.72265625 C210.04707764 46.74562744 210.05118652 45.76859863 210.05541992 44.76196289 C209.98797166 42.00183677 209.98797166 42.00183677 207.8125 39.25 C207.52375 38.13625 207.235 37.0225 206.9375 35.875 C205.77894644 32.14188298 204.32232181 30.17812545 201.8125 27.25 C201.8125 26.59 201.8125 25.93 201.8125 25.25 C201.1525 25.25 200.4925 25.25 199.8125 25.25 C200.1425 24.528125 200.4725 23.80625 200.8125 23.0625 C201.81853529 20.23302573 201.98227402 18.22104534 201.8125 15.25 C199.40372743 15.36341534 199.40372743 15.36341534 196.8125 16.25 C195.80062105 17.90948148 194.7998454 19.57580562 193.8125 21.25 C190.55372621 21.25 188.17995333 20.97860877 185.05078125 20.31640625 C177.75128227 18.93994316 170.40156184 18.58864735 163 18.1875 C160.92426244 18.07111933 158.84868348 17.95272508 156.77326965 17.83070374 C154.90402216 17.72134107 153.03441566 17.61816534 151.16479492 17.51538086 C147.8125 17.25 147.8125 17.25 145.09306335 16.74050903 C141.36577735 16.18320614 137.72867131 16.11738808 133.97119141 16.13647461 C133.20953674 16.13632858 132.44788208 16.13618256 131.66314697 16.1360321 C129.16342246 16.13672482 126.66377388 16.14448701 124.1640625 16.15234375 C122.42385906 16.15421021 120.68365509 16.15563304 118.94345093 16.15663147 C114.37651097 16.16043869 109.80960311 16.17025358 105.24267578 16.18133545 C100.57715285 16.19158823 95.91162471 16.19613736 91.24609375 16.20117188 C82.10154844 16.21187753 72.9570269 16.2289323 63.8125 16.25 C63.1525 17.9 62.4925 19.55 61.8125 21.25 C60.8225 21.25 59.8325 21.25 58.8125 21.25 C59.33518466 18.48723823 59.92119587 15.9239124 60.8125 13.25 C59.36216646 8.47939414 59.36216646 8.47939414 55.99609375 5.04296875 C53.53298942 4.14849616 51.67393267 4.04819316 49.0625 4.125 C47.86367188 4.15207031 47.86367188 4.15207031 46.640625 4.1796875 C45.73570312 4.21449219 45.73570312 4.21449219 44.8125 4.25 C42.49028127 8.02360544 42.8125 9.26199411 42.8125 14.25 C29.4475 14.745 29.4475 14.745 15.8125 15.25 C15.8125 14.59 15.8125 13.93 15.8125 13.25 C18.69417681 12.44347492 21.37281547 12.07484994 24.359375 11.93359375 C25.20371094 11.89169922 26.04804687 11.84980469 26.91796875 11.80664062 C27.79066406 11.76732422 28.66335938 11.72800781 29.5625 11.6875 C30.89474609 11.62272461 30.89474609 11.62272461 32.25390625 11.55664062 C34.43995963 11.45086385 36.62612089 11.34877454 38.8125 11.25 C38.93753906 10.31929687 39.06257812 9.38859375 39.19140625 8.4296875 C40.03210233 4.12574654 41.21232205 2.74808266 44.8125 0.25 C49.82978556 -0.7116464 53.66654827 -0.31255812 58.25 1.9375 C62.00173403 5.3232112 63.69081541 8.39279698 64.8125 13.25 C69.89626435 13.3512254 74.89225177 13.28425685 79.953125 12.765625 C88.73042749 12.01403321 97.50822018 11.9639106 106.3125 11.9375 C107.70899277 11.93207687 107.70899277 11.93207687 109.13369751 11.92654419 C136.73463279 11.88429682 164.39852807 14.10694121 191.8125 17.25 C192.1425 16.59 192.4725 15.93 192.8125 15.25 C193.4725 15.25 194.1325 15.25 194.8125 15.25 C194.8125 14.59 194.8125 13.93 194.8125 13.25 C197.61120027 11.85064987 199.71748792 11.99734595 202.8125 12.25 C204.6875 13.375 204.6875 13.375 205.8125 15.25 C206.06542101 18.22182182 206.1300425 20.46835693 205 23.25 C204.938125 23.91 204.87625 24.57 204.8125 25.25 C205.99836064 26.63915104 207.18973834 28.02399596 208.40942383 29.38354492 C213.95633459 36.76237435 214.49152346 45.9935436 214.4375 54.875 C214.46972656 55.94234375 214.50195312 57.0096875 214.53515625 58.109375 C214.54465427 65.8407612 212.7624899 70.35484103 207.8125 76.25 C207.16925781 77.05953125 206.52601563 77.8690625 205.86328125 78.703125 C198.61298878 86.19780935 188.60585156 90.92480979 178.09765625 91.36328125 C175.66495207 91.37351703 173.24336461 91.33966304 170.8125 91.25 C171.08964844 91.93707031 171.36679687 92.62414062 171.65234375 93.33203125 C172.01457031 94.23308594 172.37679687 95.13414062 172.75 96.0625 C173.10964844 96.95582031 173.46929688 97.84914063 173.83984375 98.76953125 C174.54863486 100.5770909 175.1985247 102.40807409 175.8125 104.25 C176.42738281 104.21519531 177.04226563 104.18039062 177.67578125 104.14453125 C178.48402344 104.11746094 179.29226563 104.09039062 180.125 104.0625 C181.32576172 104.01029297 181.32576172 104.01029297 182.55078125 103.95703125 C184.8125 104.25 184.8125 104.25 186.55859375 105.4375 C188.74884537 108.60347118 188.57758798 111.62598205 188.5078125 115.37890625 C187.23523602 120.63364621 183.13100239 123.33462113 178.8125 126.25 C175.63371306 127.83939347 173.3168228 127.66576711 169.8125 127.25 C166.03037715 123.95070134 164.9673895 122.55549722 164.375 117.5625 C164.8125 114.25 164.8125 114.25 166.8125 111.25 C165.85520084 110.12411986 164.89662105 108.9993285 163.9375 107.875 C163.40382813 107.24851562 162.87015625 106.62203125 162.3203125 105.9765625 C161.19817993 104.69163349 160.01878025 103.45628025 158.8125 102.25 C158.1525 102.25 157.4925 102.25 156.8125 102.25 C156.56886719 102.81976563 156.32523438 103.38953125 156.07421875 103.9765625 C154.5926122 106.6462065 152.7715657 108.45943814 150.625 110.625 C148.43756034 112.90999389 148.43756034 112.90999389 146.8125 115.25 C147.12053455 118.43522204 147.12053455 118.43522204 147.8125 121.25 C144.78398738 124.73278951 143.15514043 126.01306345 138.625 126.8125 C133.79905667 126.10047557 126.4020895 124.8395895 122.8125 121.25 C122.32182618 116.9974936 122.33507252 114.936302 124.8125 111.375 C127.8125 109.25 127.8125 109.25 131.625 109.25 C133.75175876 109.2630238 133.75175876 109.2630238 135.8125 108.25 C139.00279769 104.17942685 141.3725245 99.79774776 143.8125 95.25 C144.8025 93.765 144.8025 93.765 145.8125 92.25 C144.52311523 92.41226074 143.23373047 92.57452148 141.90527344 92.74169922 C137.03137811 93.28066814 132.22783694 93.39460987 127.328125 93.3828125 C125.99952705 93.38479141 125.99952705 93.38479141 124.64408875 93.3868103 C121.78352269 93.3887144 118.92305601 93.38240899 116.0625 93.375 C115.08362823 93.37411377 114.10475647 93.37322754 113.09622192 93.37231445 C99.81373706 93.35820854 86.56296941 93.15243772 73.29125977 92.6081543 C63.7929462 92.21896537 54.31724783 92.14347107 44.8125 92.25 C46.07816466 97.47802185 47.44031159 102.40701026 49.8125 107.25 C52.24563888 108.67556419 53.86075333 108.84704912 56.6484375 109.01953125 C58.8125 109.25 58.8125 109.25 61.9375 111.5625 C63.8125 114.25 63.8125 114.25 64 116.75 C62.33916593 120.24649279 59.93541909 122.12222494 56.8125 124.25 C56.12542969 124.72050781 55.43835938 125.19101562 54.73046875 125.67578125 C49.39025568 128.99587869 45.07435342 130.1301802 38.8125 129.25 C35.8125 128.25 35.8125 128.25 33.8125 125.25 C33.3632074 120.30778145 33.66660631 118.02673253 36.8125 114.25 C33.54529209 109.86105071 30.26351522 105.49740335 26.8125 101.25 C26.4825 101.91 26.1525 102.57 25.8125 103.25 C25.1525 103.25 24.4925 103.25 23.8125 103.25 C23.565 103.78625 23.3175 104.3225 23.0625 104.875 C18.8337766 112.90957447 18.8337766 112.90957447 14.8125 114.25 C14.3175 115.735 14.3175 115.735 13.8125 117.25 C13.1525 117.25 12.4925 117.25 11.8125 117.25 C12.1425 117.91 12.4725 118.57 12.8125 119.25 C12.88200541 120.79023996 12.89702357 122.33334988 12.875 123.875 C12.86597656 124.69226563 12.85695313 125.50953125 12.84765625 126.3515625 C12.83605469 126.97804688 12.82445312 127.60453125 12.8125 128.25 C7.80734695 131.33009418 3.55598265 132.28401488 -2.1875 131.25 C-10.3880814 127.84883721 -10.3880814 127.84883721 -12.1875 124.25 C-12.85808266 121.08687426 -13.01012766 118.39285951 -12.1875 115.25 C-8.7877772 111.67290036 -5.03924835 109.39729816 -0.09375 109.00390625 C3.10592068 108.52393213 3.10592068 108.52393213 4.7109375 105.30859375 C5.19820312 104.11363281 5.68546875 102.91867187 6.1875 101.6875 C6.69023438 100.48996094 7.19296875 99.29242188 7.7109375 98.05859375 C8.07445312 97.13175781 8.43796875 96.20492187 8.8125 95.25 C9.4725 95.25 10.1325 95.25 10.8125 95.25 C10.8125 94.59 10.8125 93.93 10.8125 93.25 C9.99007812 93.20101562 9.16765625 93.15203125 8.3203125 93.1015625 C-13.44489845 91.64384629 -13.44489845 91.64384629 -20.1875 85.25 C-28.62782642 73.8399291 -32.53870052 57.30978918 -31.1875 43.25 C-30.21268592 40.30625452 -28.84644328 37.85691087 -27.1875 35.25 C-26.73375 34.3425 -26.28 33.435 -25.8125 32.5 C-23.68198062 29.55005009 -21.27493391 28.17236451 -18.1875 26.25 C-16.14736782 24.69336735 -14.12769477 23.11421071 -12.1171875 21.51953125 C-10.12175661 20.20674777 -8.52106982 19.68041399 -6.1875 19.25 C-6.21070313 18.45335937 -6.23390625 17.65671875 -6.2578125 16.8359375 C-6.43977712 6.1520149 -6.43977712 6.1520149 -4.1875 1.25 C-3.1875 0.25 -3.1875 0.25 0 0 Z " fill="#111111" transform="translate(583.1875,155.75)"/>
<path d="M0 0 C4.48035444 2.19944673 6.86312614 4.50131818 9 9 C9.35367418 10.32808263 9.69075297 11.66087523 10 13 C15.08376435 13.1012254 20.07975177 13.03425685 25.140625 12.515625 C33.91792749 11.76403321 42.69572018 11.7139106 51.5 11.6875 C52.43099518 11.68388458 53.36199036 11.68026917 54.32119751 11.67654419 C81.92213279 11.63429682 109.58602807 13.85694121 137 17 C137.33 16.34 137.66 15.68 138 15 C138.66 15 139.32 15 140 15 C140 14.34 140 13.68 140 13 C142.79870027 11.60064987 144.90498792 11.74734595 148 12 C149.875 13.125 149.875 13.125 151 15 C151.25292101 17.97182182 151.3175425 20.21835693 150.1875 23 C150.125625 23.66 150.06375 24.32 150 25 C151.18929802 26.39317768 152.38114005 27.78426653 153.5859375 29.1640625 C161.37248954 39.27367427 159.39367751 52.98829347 159 65 C158.01 65.33 157.02 65.66 156 66 C155.98018066 65.2886792 155.96036133 64.5773584 155.93994141 63.84448242 C155.84475133 60.62511184 155.73504771 57.4063955 155.625 54.1875 C155.57859375 52.50817383 155.57859375 52.50817383 155.53125 50.79492188 C155.49257813 49.72177734 155.45390625 48.64863281 155.4140625 47.54296875 C155.3826416 46.55321045 155.3512207 45.56345215 155.31884766 44.54370117 C155.16226567 41.75924906 155.16226567 41.75924906 153 39 C152.71125 37.88625 152.4225 36.7725 152.125 35.625 C150.96644644 31.89188298 149.50982181 29.92812545 147 27 C147 26.34 147 25.68 147 25 C146.34 25 145.68 25 145 25 C145.33 24.278125 145.66 23.55625 146 22.8125 C147.00603529 19.98302573 147.16977402 17.97104534 147 15 C144.59122743 15.11341534 144.59122743 15.11341534 142 16 C140.98812105 17.65948148 139.9873454 19.32580562 139 21 C135.74122621 21 133.36745333 20.72860877 130.23828125 20.06640625 C122.93878227 18.68994316 115.58906184 18.33864735 108.1875 17.9375 C106.11176244 17.82111933 104.03618348 17.70272508 101.96076965 17.58070374 C100.09152216 17.47134107 98.22191566 17.36816534 96.35229492 17.26538086 C93 17 93 17 90.28056335 16.49050903 C86.55327735 15.93320614 82.91617131 15.86738808 79.15869141 15.88647461 C78.39703674 15.88632858 77.63538208 15.88618256 76.85064697 15.8860321 C74.35092246 15.88672482 71.85127388 15.89448701 69.3515625 15.90234375 C67.61135906 15.90421021 65.87115509 15.90563304 64.13095093 15.90663147 C59.56401097 15.91043869 54.99710311 15.92025358 50.43017578 15.93133545 C45.76465285 15.94158823 41.09912471 15.94613736 36.43359375 15.95117188 C27.28904844 15.96187753 18.1445269 15.9789323 9 16 C8.34 17.65 7.68 19.3 7 21 C6.01 21 5.02 21 4 21 C4.52268466 18.23723823 5.10869587 15.6739124 6 13 C4.54966646 8.22939414 4.54966646 8.22939414 1.18359375 4.79296875 C-1.27951058 3.89849616 -3.13856733 3.79819316 -5.75 3.875 C-6.94882812 3.90207031 -6.94882812 3.90207031 -8.171875 3.9296875 C-9.07679688 3.96449219 -9.07679688 3.96449219 -10 4 C-12.32221873 7.77360544 -12 9.01199411 -12 14 C-25.365 14.495 -25.365 14.495 -39 15 C-39 14.34 -39 13.68 -39 13 C-36.11832319 12.19347492 -33.43968453 11.82484994 -30.453125 11.68359375 C-29.60878906 11.64169922 -28.76445313 11.59980469 -27.89453125 11.55664062 C-27.02183594 11.51732422 -26.14914062 11.47800781 -25.25 11.4375 C-23.91775391 11.37272461 -23.91775391 11.37272461 -22.55859375 11.30664062 C-20.37254037 11.20086385 -18.18637911 11.09877454 -16 11 C-15.81244141 9.60394531 -15.81244141 9.60394531 -15.62109375 8.1796875 C-13.95590859 -0.34522268 -7.48244548 -1.29503864 0 0 Z " fill="#111111" transform="translate(638,156)"/>
<path d="M0 0 C4.48035444 2.19944673 6.86312614 4.50131818 9 9 C9.35367418 10.32808263 9.69075297 11.66087523 10 13 C15.24695406 13.10447475 20.39928498 13.00825447 25.625 12.5 C33.08167563 11.80884599 40.51993504 11.91456779 48 12 C48 12.33 48 12.66 48 13 C61.365 13.495 61.365 13.495 75 14 C75 14.33 75 14.66 75 15 C68.97590184 15.14561626 62.95173536 15.28784207 56.92749023 15.42724609 C54.88840705 15.47487105 52.84934337 15.52334071 50.81030273 15.57275391 C36.87051462 15.90981269 22.9438389 16.06524705 9 16 C8.34 17.65 7.68 19.3 7 21 C6.01 21 5.02 21 4 21 C4.52268466 18.23723823 5.10869587 15.6739124 6 13 C4.54966646 8.22939414 4.54966646 8.22939414 1.18359375 4.79296875 C-1.27951058 3.89849616 -3.13856733 3.79819316 -5.75 3.875 C-6.94882812 3.90207031 -6.94882812 3.90207031 -8.171875 3.9296875 C-9.07679688 3.96449219 -9.07679688 3.96449219 -10 4 C-12.32221873 7.77360544 -12 9.01199411 -12 14 C-25.365 14.495 -25.365 14.495 -39 15 C-39 14.34 -39 13.68 -39 13 C-36.11832319 12.19347492 -33.43968453 11.82484994 -30.453125 11.68359375 C-29.60878906 11.64169922 -28.76445313 11.59980469 -27.89453125 11.55664062 C-27.02183594 11.51732422 -26.14914062 11.47800781 -25.25 11.4375 C-23.91775391 11.37272461 -23.91775391 11.37272461 -22.55859375 11.30664062 C-20.37254037 11.20086385 -18.18637911 11.09877454 -16 11 C-15.81244141 9.60394531 -15.81244141 9.60394531 -15.62109375 8.1796875 C-13.95590859 -0.34522268 -7.48244548 -1.29503864 0 0 Z " fill="#111111" transform="translate(638,156)"/>
<path d="M0 0 C0.33 0 0.66 0 1 0 C1.12913907 5.68211921 1.12913907 5.68211921 0.1875 8 C0.125625 8.66 0.06375 9.32 0 10 C1.18929802 11.39317768 2.38114005 12.78426653 3.5859375 14.1640625 C11.37248954 24.27367427 9.39367751 37.98829347 9 50 C7.515 50.495 7.515 50.495 6 51 C5.98018066 50.2886792 5.96036133 49.5773584 5.93994141 48.84448242 C5.84475133 45.62511184 5.73504771 42.4063955 5.625 39.1875 C5.5940625 38.06794922 5.563125 36.94839844 5.53125 35.79492188 C5.49257813 34.72177734 5.45390625 33.64863281 5.4140625 32.54296875 C5.3826416 31.55321045 5.3512207 30.56345215 5.31884766 29.54370117 C5.16226567 26.75924906 5.16226567 26.75924906 3 24 C2.71125 22.88625 2.4225 21.7725 2.125 20.625 C0.96644644 16.89188298 -0.49017819 14.92812545 -3 12 C-3 11.34 -3 10.68 -3 10 C-3.66 10 -4.32 10 -5 10 C-3.25 5.125 -3.25 5.125 -1 4 C-0.34786708 1.97536745 -0.34786708 1.97536745 0 0 Z " fill="#232323" transform="translate(788,171)"/>
<path d="M0 0 C1.26328125 0.02707031 2.5265625 0.05414063 3.828125 0.08203125 C4.79234375 0.11683594 5.7565625 0.15164062 6.75 0.1875 C6.75 0.8475 6.75 1.5075 6.75 2.1875 C5.94175781 2.20167969 5.13351562 2.21585938 4.30078125 2.23046875 C-2.41712918 2.51703359 -2.41712918 2.51703359 -8.5 5.125 C-10.92356313 9.36623547 -11.51454039 13.42687736 -10.25 18.1875 C-7.52017388 21.86366584 -6.01950539 23.0431679 -1.48046875 23.89453125 C-0.13365134 23.95365982 1.21443526 23.98838987 2.5625 24 C3.25537109 24.02513672 3.94824219 24.05027344 4.66210938 24.07617188 C6.35747122 24.13463263 8.05379287 24.16403047 9.75 24.1875 C9.42 25.1775 9.09 26.1675 8.75 27.1875 C6.18508544 27.12721999 3.62578243 27.04012053 1.0625 26.9375 C0.34126953 26.92332031 -0.37996094 26.90914062 -1.12304688 26.89453125 C-5.98095737 26.67270885 -8.79623567 25.92056283 -12.25 22.1875 C-12.25 21.1975 -12.25 20.2075 -12.25 19.1875 C-12.91 19.1875 -13.57 19.1875 -14.25 19.1875 C-14.25 15.8875 -14.25 12.5875 -14.25 9.1875 C-13.59 9.1875 -12.93 9.1875 -12.25 9.1875 C-12.1675 8.259375 -12.085 7.33125 -12 6.375 C-11.25 3.1875 -11.25 3.1875 -9.65625 1.5 C-6.33614668 -0.31096545 -3.75491376 -0.10430316 0 0 Z " fill="#282828" transform="translate(590.25,192.8125)"/>
<path d="M0 0 C0.66 0.33 1.32 0.66 2 1 C1.525625 1.433125 1.05125 1.86625 0.5625 2.3125 C-1.23686957 4.02309613 -1.23686957 4.02309613 -2 7 C-2.66 7 -3.32 7 -4 7 C-4 7.66 -4 8.32 -4 9 C-5.31200404 10.35432675 -6.64631404 11.68733482 -8 13 C-8.33 13.66 -8.66 14.32 -9 15 C-9.66 15 -10.32 15 -11 15 C-11.66 21.6 -12.32 28.2 -13 35 C-16.44013793 31.55986207 -16.43156565 30.94722407 -16.4375 26.3125 C-16.29871877 20.56695721 -15.04926921 16.79170876 -12 12 C-11.54625 11.0925 -11.0925 10.185 -10.625 9.25 C-8.52258523 6.33896416 -6.02685872 4.8917867 -3 3 C-1.20605554 1.37648891 -1.20605554 1.37648891 0 0 Z " fill="#191919" transform="translate(568,179)"/>
<path d="M0 0 C0 0.33 0 0.66 0 1 C13.365 1.495 13.365 1.495 27 2 C27 2.33 27 2.66 27 3 C20.95758757 3.14545116 14.91511013 3.28769306 8.87255859 3.42724609 C6.82664056 3.47491486 4.78074106 3.52338779 2.73486328 3.57275391 C-10.84641529 3.89977241 -24.4147692 4.0674577 -38 4 C-38 3.67 -38 3.34 -38 3 C-34.7 2.67 -31.4 2.34 -28 2 C-28 1.67 -28 1.34 -28 1 C-18.64087671 0.00736571 -9.39605802 -0.10731538 0 0 Z " fill="#434343" transform="translate(686,168)"/>
<path d="M0 0 C1 3 1 3 1 9 C-12.365 9.495 -12.365 9.495 -26 10 C-26 9.34 -26 8.68 -26 8 C-23.11832319 7.19347492 -20.43968453 6.82484994 -17.453125 6.68359375 C-16.60878906 6.64169922 -15.76445313 6.59980469 -14.89453125 6.55664062 C-14.02183594 6.51732422 -13.14914062 6.47800781 -12.25 6.4375 C-10.91775391 6.37272461 -10.91775391 6.37272461 -9.55859375 6.30664062 C-7.37254037 6.20086385 -5.18637911 6.09877454 -3 6 C-3 4.68 -3 3.36 -3 2 C-2.01 1.34 -1.02 0.68 0 0 Z " fill="#111111" transform="translate(625,161)"/>
<path d="M0 0 C0.66 0 1.32 0 2 0 C1.39971596 1.69170958 0.70710678 3.35008418 0 5 C-0.29519531 5.75925781 -0.59039063 6.51851563 -0.89453125 7.30078125 C-2.06172983 9.88676537 -3.09632753 11.8872285 -5 14 C-8.37107956 15.05830216 -11.4864798 15.17055923 -15 15 C-15.103125 15.94875 -15.20625 16.8975 -15.3125 17.875 C-16 21 -16 21 -19 23 C-19.41454364 18.77165483 -19.46495343 16.66837056 -17 13.125 C-14 11 -14 11 -10.0625 10.8125 C-7.96819513 10.80929368 -7.96819513 10.80929368 -6 10 C-4.04843418 7.50371142 -2.64713409 4.98158271 -1.2265625 2.15234375 C-0.82179688 1.44207031 -0.41703125 0.73179687 0 0 Z " fill="#121212" transform="translate(725,254)"/>
<path d="M0 0 C0.99 0 1.98 0 3 0 C3.125 6.625 3.125 6.625 2 10 C-0.31 10.33 -2.62 10.66 -5 11 C-7.09350689 7.5980513 -7.17942163 4.94727588 -7 1 C-6.01 1 -5.02 1 -4 1 C-3.67 2.98 -3.34 4.96 -3 7 C-2.34 7 -1.68 7 -1 7 C-0.67 4.69 -0.34 2.38 0 0 Z " fill="#191919" transform="translate(710,215)"/>
<path d="M0 0 C0.99 0 1.98 0 3 0 C3.66 2.31 4.32 4.62 5 7 C5 5.02 5 3.04 5 1 C6.32 1 7.64 1 9 1 C9.25 7.625 9.25 7.625 7 11 C4.625 10.6875 4.625 10.6875 2 10 C-0.4294516 6.3558226 -0.16179575 4.28758728 0 0 Z " fill="#1B1B1B" transform="translate(650,188)"/>
<path d="M0 0 C0.33 0 0.66 0 1 0 C1.12913907 5.68211921 1.12913907 5.68211921 0.1875 8 C-0.27123764 10.36069055 -0.27123764 10.36069055 2.375 12.875 C2.84035156 13.3803125 3.30570313 13.885625 3.78515625 14.40625 C5.58520299 16.76772612 5.79260321 19.09644496 6 22 C5.01 22.66 4.02 23.32 3 24 C2.7525 22.948125 2.505 21.89625 2.25 20.8125 C1.23318938 17.17261272 -0.53666746 14.87388796 -3 12 C-3 11.34 -3 10.68 -3 10 C-3.66 10 -4.32 10 -5 10 C-3.25 5.125 -3.25 5.125 -1 4 C-0.34786708 1.97536745 -0.34786708 1.97536745 0 0 Z " fill="#2C2C2C" transform="translate(788,171)"/>
<path d="M0 0 C0.66 1.32 1.32 2.64 2 4 C7.94 4.33 13.88 4.66 20 5 C20 5.33 20 5.66 20 6 C18.73542969 6.01417969 17.47085938 6.02835938 16.16796875 6.04296875 C14.50777588 6.08986685 12.84762073 6.13811426 11.1875 6.1875 C9.93743164 6.19620117 9.93743164 6.19620117 8.66210938 6.20507812 C6.33584096 6.28916012 4.25248393 6.4070003 2 7 C0.06544945 9.42988681 0.06544945 9.42988681 -1 12 C-1.99 12 -2.98 12 -4 12 C-2.13333333 2.13333333 -2.13333333 2.13333333 0 0 Z " fill="#0F0F0F" transform="translate(646,165)"/>
<path d="M0 0 C0.99 0 1.98 0 3 0 C3.25 6.625 3.25 6.625 1 10 C-0.65 9.67 -2.3 9.34 -4 9 C-4.33 6.69 -4.66 4.38 -5 2 C-4.01 2.33 -3.02 2.66 -2 3 C-2 3.99 -2 4.98 -2 6 C-1.34 6 -0.68 6 0 6 C0 4.02 0 2.04 0 0 Z " fill="#1C1C1C" transform="translate(641,199)"/>
<path d="M0 0 C5.24414718 -0.31464883 8.53939419 0.16143267 13 3 C16.02863655 6.02863655 16.52324497 8.80455575 17 13 C16.34 13 15.68 13 15 13 C14.62875 11.906875 14.2575 10.81375 13.875 9.6875 C12.57260133 6.64652197 12.05031813 6.03281617 9.125 4.125 C6.39495733 3.14218464 3.86592693 2.42145984 1 2 C0.67 2.99 0.34 3.98 0 5 C-0.66 4.67 -1.32 4.34 -2 4 C-1.34 2.68 -0.68 1.36 0 0 Z " fill="#101010" transform="translate(580,156)"/>
<path d="M0 0 C0.99 0 1.98 0 3 0 C3.33 1.65 3.66 3.3 4 5 C4.66 4.67 5.32 4.34 6 4 C6.33 3.01 6.66 2.02 7 1 C7.66 1 8.32 1 9 1 C8.25 5.75 8.25 5.75 6 8 C3.375 7.625 3.375 7.625 1 7 C0.67 4.69 0.34 2.38 0 0 Z " fill="#242424" transform="translate(774,221)"/>
<path d="M0 0 C0.99 0.33 1.98 0.66 3 1 C3.33 2.65 3.66 4.3 4 6 C6.51083114 4.74458443 6.87125446 3.49936512 8 1 C8.625 3.3125 8.625 3.3125 9 6 C8.01 7.485 8.01 7.485 7 9 C4.625 8.6875 4.625 8.6875 2 8 C-0.1519437 4.77208445 -0.20086443 3.71599191 0 0 Z " fill="#242424" transform="translate(738,189)"/>
<path d="M0 0 C1.75 0.9375 1.75 0.9375 2.75 2.9375 C0.77 3.2675 -1.21 3.5975 -3.25 3.9375 C-3.353125 4.88625 -3.45625 5.835 -3.5625 6.8125 C-4.25 9.9375 -4.25 9.9375 -7.25 11.9375 C-7.68497796 7.50072479 -7.72502251 5.57086334 -5 1.9375 C-2.25 -0.0625 -2.25 -0.0625 0 0 Z " fill="#2D2D2D" transform="translate(713.25,265.0625)"/>
<path d="M0 0 C1.98567708 0.5859375 3.97135417 1.171875 5.95703125 1.7578125 C5.95703125 2.0878125 5.95703125 2.4178125 5.95703125 2.7578125 C4.67828125 2.8815625 3.39953125 3.0053125 2.08203125 3.1328125 C-1.39087811 3.44823649 -1.39087811 3.44823649 -4.04296875 5.7578125 C-5.03296875 6.0878125 -6.02296875 6.4178125 -7.04296875 6.7578125 C-4.54669215 -0.53899601 -4.54669215 -0.53899601 0 0 Z " fill="#343434" transform="translate(630.04296875,156.2421875)"/>
<path d="M0 0 C-2.54456151 2.96865509 -5.48994665 4.3619751 -9 6 C-8.8125 4.1875 -8.8125 4.1875 -8 2 C-3.744 -1.248 -3.744 -1.248 0 0 Z " fill="#212121" transform="translate(583,266)"/>
<path d="M0 0 C4.875 0.875 4.875 0.875 6 2 C6.04063832 3.66617115 6.042721 5.33388095 6 7 C5.01 7.495 5.01 7.495 4 8 C3.67 6.35 3.34 4.7 3 3 C1.68 3 0.36 3 -1 3 C-0.67 2.01 -0.34 1.02 0 0 Z " fill="#080808" transform="translate(782,168)"/>
<path d="M0 0 C1.32 0.33 2.64 0.66 4 1 C2.8141763 4.37503669 1.72426311 6.64722731 -1 9 C-1 5 -1 5 1 2 C0.67 1.34 0.34 0.68 0 0 Z " fill="#202020" transform="translate(728,246)"/>
<path d="M0 0 C2.31 0 4.62 0 7 0 C6.67 0.99 6.34 1.98 6 3 C4.35 2.67 2.7 2.34 1 2 C0.67 2.99 0.34 3.98 0 5 C-0.66 4.67 -1.32 4.34 -2 4 C-1.34 2.68 -0.68 1.36 0 0 Z " fill="#202020" transform="translate(580,156)"/>
<path d="M0 0 C0.99 0 1.98 0 3 0 C3 2.31 3 4.62 3 7 C2.01 7 1.02 7 0 7 C0 4.69 0 2.38 0 0 Z " fill="#262626" transform="translate(710,215)"/>
<path d="M0 0 C0.33 0 0.66 0 1 0 C1.25 5.625 1.25 5.625 -1 9 C-1.99 9 -2.98 9 -4 9 C-3.625 7.0625 -3.625 7.0625 -3 5 C-2.34 4.67 -1.68 4.34 -1 4 C-0.34786708 1.97536745 -0.34786708 1.97536745 0 0 Z " fill="#1E1E1E" transform="translate(788,171)"/>
<path d="M0 0 C0.66 0 1.32 0 2 0 C1.67 1.65 1.34 3.3 1 5 C-0.98 5 -2.96 5 -5 5 C-4 3 -4 3 -1 2 C-0.67 1.34 -0.34 0.68 0 0 Z " fill="#181818" transform="translate(587,262)"/>
<path d="M0 0 C2.0625 2.25 2.0625 2.25 4 5 C3.75 7.3125 3.75 7.3125 3 9 C0.90250005 6.64031256 0.03094296 5.45383006 -0.1875 2.25 C-0.125625 1.5075 -0.06375 0.765 0 0 Z " fill="#121212" transform="translate(792,191)"/>
<path d="M0 0 C1.32 0 2.64 0 4 0 C4 2.31 4 4.62 4 7 C1 5 1 5 0.3125 2.375 C0.209375 1.59125 0.10625 0.8075 0 0 Z " fill="#2A2A2A" transform="translate(655,189)"/>
<path d="M0 0 C0.66 0.33 1.32 0.66 2 1 C0.68 2.65 -0.64 4.3 -2 6 C-2.99 5.67 -3.98 5.34 -5 5 C-4.67 4.34 -4.34 3.68 -4 3 C-3.34 3 -2.68 3 -2 3 C-2 2.34 -2 1.68 -2 1 C-1.34 0.67 -0.68 0.34 0 0 Z " fill="#333333" transform="translate(780,168)"/>
</svg>
