<?xml version="1.0" encoding="UTF-8"?>
<svg version="1.1" xmlns="http://www.w3.org/2000/svg" width="800" height="300">
<path d="M0 0 C264 0 528 0 800 0 C800 99 800 198 800 300 C536 300 272 300 0 300 C0 201 0 102 0 0 Z " fill="#FEFEFE" transform="translate(0,0)"/>
<path d="M0 0 C2.9594334 2.14954731 4.73016275 3.81146955 5.47875977 7.47680664 C5.53604248 8.36360107 5.5933252 9.25039551 5.65234375 10.1640625 C5.71752197 11.0600415 5.7827002 11.95602051 5.84985352 12.87915039 C5.88651123 13.55969482 5.92316895 14.24023926 5.9609375 14.94140625 C6.51962524 14.93944244 7.07831299 14.93747864 7.65393066 14.93545532 C29.29376295 14.8721669 50.93224039 15.03157738 72.57104492 15.22893906 C78.11472029 15.27942702 83.65836787 15.32588965 89.20214844 15.36328125 C94.64092221 15.40003423 100.07953602 15.44629115 105.51817322 15.49946976 C107.5754879 15.51797421 109.63283592 15.53309669 111.69020081 15.54475021 C114.53908052 15.56153551 117.38758489 15.59052697 120.23632812 15.62255859 C121.08079498 15.62471878 121.92526184 15.62687897 122.7953186 15.62910461 C126.69004797 15.68536131 128.64715681 15.73221912 131.9609375 17.94140625 C134.01808582 17.9275776 134.01808582 17.9275776 135.9609375 16.94140625 C136.3528125 16.28140625 136.7446875 15.62140625 137.1484375 14.94140625 C139.7234139 12.10005298 142.10467235 12.20655365 145.8046875 11.82421875 C147.9609375 11.94140625 147.9609375 11.94140625 150.9609375 13.94140625 C151.63699384 21.0399978 151.63699384 21.0399978 149.4609375 23.94140625 C148.9659375 24.27140625 148.4709375 24.60140625 147.9609375 24.94140625 C149.05081133 27.39362237 150.1431352 29.14854769 151.9296875 31.1796875 C158.33082747 39.88277588 157.60889074 53.16596741 156.75 63.47265625 C155.77586644 69.79370069 152.71810046 73.78600408 147.9609375 77.94140625 C144.06187711 80.77929914 140.06364608 83.40837107 135.9609375 85.94140625 C136.90195312 86.2353125 137.84296875 86.52921875 138.8125 86.83203125 C142.27300506 88.05136554 143.81935499 88.97613815 145.9609375 91.94140625 C146.48869837 95.48494351 146.19341125 97.42996399 144.7109375 100.69140625 C142.8296457 103.11021 141.86301323 104.0293253 138.9609375 104.94140625 C135.8984375 105.25390625 135.8984375 105.25390625 132.9609375 104.94140625 C132.4865625 104.42578125 132.0121875 103.91015625 131.5234375 103.37890625 C131.0078125 102.90453125 130.4921875 102.43015625 129.9609375 101.94140625 C126.45746988 102.21090376 123.19050375 102.88739066 119.7734375 103.69140625 C113.25214951 104.11903169 107.10884722 101.99070949 100.9609375 99.94140625 C100.65800781 100.52148438 100.35507812 101.1015625 100.04296875 101.69921875 C97.41981803 106.59038593 94.78968904 110.90569517 90.9609375 114.94140625 C90.3009375 114.94140625 89.6409375 114.94140625 88.9609375 114.94140625 C88.97253906 115.65167969 88.98414063 116.36195313 88.99609375 117.09375 C89.00511719 118.01285156 89.01414062 118.93195313 89.0234375 119.87890625 C89.03503906 120.79542969 89.04664063 121.71195312 89.05859375 122.65625 C88.9609375 124.94140625 88.9609375 124.94140625 87.9609375 125.94140625 C85.69275088 126.06757963 83.42010065 126.11720871 81.1484375 126.12890625 C79.90449219 126.14308594 78.66054688 126.15726563 77.37890625 126.171875 C74.22259103 125.95904917 72.52976764 125.71408564 69.9609375 123.94140625 C68.21491154 120.44935433 68.26559246 116.74217573 68.9609375 112.94140625 C71.56886787 110.26827762 73.39317985 109.10717274 77.140625 108.7109375 C79.08217272 108.69366394 81.02391395 108.80781842 82.9609375 108.94140625 C83.0846875 108.36519531 83.2084375 107.78898437 83.3359375 107.1953125 C83.97578553 104.88786055 84.85121659 102.99635167 85.9609375 100.87890625 C87.18067225 98.54257609 88.12195573 96.45835155 88.9609375 93.94140625 C56.2909375 93.94140625 23.6209375 93.94140625 -10.0390625 93.94140625 C-4.06197307 104.22636543 -4.06197307 104.22636543 5.6484375 109.12890625 C6.41542969 109.24621094 7.18242188 109.36351562 7.97265625 109.484375 C9.9609375 109.94140625 9.9609375 109.94140625 11.9609375 111.94140625 C12.56385382 116.36540266 12.42860763 120.59685462 10.9609375 124.81640625 C7.08356206 128.93611765 2.78649422 130.72842463 -2.7890625 131.37890625 C-6.29455136 130.90701352 -7.8126354 130.70217586 -10.0390625 127.94140625 C-10.56145056 121.98618237 -10.56145056 121.98618237 -9.0390625 118.94140625 C-8.3790625 118.94140625 -7.7190625 118.94140625 -7.0390625 118.94140625 C-7.0390625 118.28140625 -7.0390625 117.62140625 -7.0390625 116.94140625 C-8.2146875 116.57015625 -8.2146875 116.57015625 -9.4140625 116.19140625 C-12.0390625 114.94140625 -12.0390625 114.94140625 -12.9765625 112.94140625 C-14.57393502 109.9345874 -16.85859856 109.92001054 -20.0390625 108.94140625 C-25.46004152 105.64630135 -25.46004152 105.64630135 -27.4765625 103.19140625 C-30.11313384 101.08214918 -32.79850762 101.71399889 -36.0390625 101.94140625 C-36.66200195 102.1005249 -37.28494141 102.25964355 -37.92675781 102.42358398 C-40.42228652 103.03535194 -42.8379735 103.26112822 -45.3984375 103.4765625 C-46.43226563 103.56357422 -47.46609375 103.65058594 -48.53125 103.74023438 C-49.60632813 103.82724609 -50.68140625 103.91425781 -51.7890625 104.00390625 C-53.37847656 104.14022461 -53.37847656 104.14022461 -55 104.27929688 C-60.7020873 104.74975445 -66.31802235 105.04504828 -72.0390625 104.94140625 C-71.9153125 106.08609375 -71.9153125 106.08609375 -71.7890625 107.25390625 C-72.0390625 109.94140625 -72.0390625 109.94140625 -73.6015625 111.75390625 C-77.0604925 113.43902599 -79.22210061 113.4589604 -83.0390625 112.94140625 C-85.96727595 111.76214519 -88.08359245 110.44231899 -90.0390625 107.94140625 C-90.7398636 104.84282288 -90.4461405 102.06947928 -90.0390625 98.94140625 C-89.9565625 97.66265625 -89.8740625 96.38390625 -89.7890625 95.06640625 C-89.0390625 91.94140625 -89.0390625 91.94140625 -87.4140625 89.94140625 C-83.99301047 88.50096329 -81.64186555 89.20863275 -78.0390625 89.94140625 C-76.09 90.21984375 -76.09 90.21984375 -74.1015625 90.50390625 C-73.0909375 90.64828125 -72.0803125 90.79265625 -71.0390625 90.94140625 C-71.67972656 90.52632813 -72.32039062 90.11125 -72.98046875 89.68359375 C-80.47136994 84.34730348 -85.88229511 78.06088846 -88.0390625 68.94140625 C-89.12994004 59.76471122 -89.52166499 49.62267622 -86.0390625 40.94140625 C-85.74386719 40.02359375 -85.44867187 39.10578125 -85.14453125 38.16015625 C-82.14157579 29.26629666 -79.34372136 24.9395689 -70.9765625 20.62890625 C-67.69255266 19.05109068 -64.6159428 17.67050655 -61.0390625 16.94140625 C-60.94625 15.20890625 -60.94625 15.20890625 -60.8515625 13.44140625 C-60.22121141 8.53867557 -58.47833459 4.537428 -55.0390625 0.94140625 C-52.0390625 0.06640625 -52.0390625 0.06640625 -49.0390625 0.94140625 C-45.68607608 4.00282864 -44.14968529 5.74668009 -43.7265625 10.31640625 C-43.8296875 11.18265625 -43.9328125 12.04890625 -44.0390625 12.94140625 C-43.1934375 12.44640625 -42.3478125 11.95140625 -41.4765625 11.44140625 C-35.53128589 8.86022649 -28.37373745 9.38522612 -22.0390625 9.94140625 C-19.58203125 10.9609375 -19.58203125 10.9609375 -18.0390625 11.94140625 C-18.1215625 10.88953125 -18.2040625 9.83765625 -18.2890625 8.75390625 C-17.99902667 4.3308598 -17.17025368 2.9856199 -14.0390625 -0.05859375 C-9.81045639 -3.38106998 -4.48222133 -2.32697698 0 0 Z " fill="#FCFCFC" transform="translate(632.0390625,155.05859375)"/>
<path d="M0 0 C2.9594334 2.14954731 4.73016275 3.81146955 5.47875977 7.47680664 C5.53604248 8.36360107 5.5933252 9.25039551 5.65234375 10.1640625 C5.71752197 11.0600415 5.7827002 11.95602051 5.84985352 12.87915039 C5.88651123 13.55969482 5.92316895 14.24023926 5.9609375 14.94140625 C6.51962524 14.93944244 7.07831299 14.93747864 7.65393066 14.93545532 C29.29376295 14.8721669 50.93224039 15.03157738 72.57104492 15.22893906 C78.11472029 15.27942702 83.65836787 15.32588965 89.20214844 15.36328125 C94.64092221 15.40003423 100.07953602 15.44629115 105.51817322 15.49946976 C107.5754879 15.51797421 109.63283592 15.53309669 111.69020081 15.54475021 C114.53908052 15.56153551 117.38758489 15.59052697 120.23632812 15.62255859 C121.08079498 15.62471878 121.92526184 15.62687897 122.7953186 15.62910461 C126.69004797 15.68536131 128.64715681 15.73221912 131.9609375 17.94140625 C134.01808582 17.9275776 134.01808582 17.9275776 135.9609375 16.94140625 C136.3528125 16.28140625 136.7446875 15.62140625 137.1484375 14.94140625 C139.7234139 12.10005298 142.10467235 12.20655365 145.8046875 11.82421875 C147.9609375 11.94140625 147.9609375 11.94140625 150.9609375 13.94140625 C151.63699384 21.0399978 151.63699384 21.0399978 149.4609375 23.94140625 C148.9659375 24.27140625 148.4709375 24.60140625 147.9609375 24.94140625 C149.05081133 27.39362237 150.1431352 29.14854769 151.9296875 31.1796875 C158.33082747 39.88277588 157.60889074 53.16596741 156.75 63.47265625 C155.77586644 69.79370069 152.71810046 73.78600408 147.9609375 77.94140625 C144.06187711 80.77929914 140.06364608 83.40837107 135.9609375 85.94140625 C136.90195312 86.2353125 137.84296875 86.52921875 138.8125 86.83203125 C142.27300506 88.05136554 143.81935499 88.97613815 145.9609375 91.94140625 C146.48869837 95.48494351 146.19341125 97.42996399 144.7109375 100.69140625 C142.8296457 103.11021 141.86301323 104.0293253 138.9609375 104.94140625 C135.8984375 105.25390625 135.8984375 105.25390625 132.9609375 104.94140625 C132.4865625 104.42578125 132.0121875 103.91015625 131.5234375 103.37890625 C131.0078125 102.90453125 130.4921875 102.43015625 129.9609375 101.94140625 C126.45746988 102.21090376 123.19050375 102.88739066 119.7734375 103.69140625 C113.25214951 104.11903169 107.10884722 101.99070949 100.9609375 99.94140625 C100.65800781 100.52148438 100.35507812 101.1015625 100.04296875 101.69921875 C97.41981803 106.59038593 94.78968904 110.90569517 90.9609375 114.94140625 C90.3009375 114.94140625 89.6409375 114.94140625 88.9609375 114.94140625 C88.97253906 115.65167969 88.98414063 116.36195313 88.99609375 117.09375 C89.00511719 118.01285156 89.01414062 118.93195313 89.0234375 119.87890625 C89.03503906 120.79542969 89.04664063 121.71195312 89.05859375 122.65625 C88.9609375 124.94140625 88.9609375 124.94140625 87.9609375 125.94140625 C85.69275088 126.06757963 83.42010065 126.11720871 81.1484375 126.12890625 C79.90449219 126.14308594 78.66054688 126.15726563 77.37890625 126.171875 C74.22259103 125.95904917 72.52976764 125.71408564 69.9609375 123.94140625 C68.21491154 120.44935433 68.26559246 116.74217573 68.9609375 112.94140625 C71.56886787 110.26827762 73.39317985 109.10717274 77.140625 108.7109375 C79.08217272 108.69366394 81.02391395 108.80781842 82.9609375 108.94140625 C83.0846875 108.36519531 83.2084375 107.78898437 83.3359375 107.1953125 C83.97578553 104.88786055 84.85121659 102.99635167 85.9609375 100.87890625 C87.18067225 98.54257609 88.12195573 96.45835155 88.9609375 93.94140625 C56.2909375 93.94140625 23.6209375 93.94140625 -10.0390625 93.94140625 C-4.06197307 104.22636543 -4.06197307 104.22636543 5.6484375 109.12890625 C6.41542969 109.24621094 7.18242188 109.36351562 7.97265625 109.484375 C9.9609375 109.94140625 9.9609375 109.94140625 11.9609375 111.94140625 C12.56385382 116.36540266 12.42860763 120.59685462 10.9609375 124.81640625 C7.08356206 128.93611765 2.78649422 130.72842463 -2.7890625 131.37890625 C-6.29455136 130.90701352 -7.8126354 130.70217586 -10.0390625 127.94140625 C-10.56145056 121.98618237 -10.56145056 121.98618237 -9.0390625 118.94140625 C-8.3790625 118.94140625 -7.7190625 118.94140625 -7.0390625 118.94140625 C-7.0390625 118.28140625 -7.0390625 117.62140625 -7.0390625 116.94140625 C-8.2146875 116.57015625 -8.2146875 116.57015625 -9.4140625 116.19140625 C-12.0390625 114.94140625 -12.0390625 114.94140625 -12.9765625 112.94140625 C-14.57393502 109.9345874 -16.85859856 109.92001054 -20.0390625 108.94140625 C-25.46004152 105.64630135 -25.46004152 105.64630135 -27.4765625 103.19140625 C-30.11313384 101.08214918 -32.79850762 101.71399889 -36.0390625 101.94140625 C-36.66200195 102.1005249 -37.28494141 102.25964355 -37.92675781 102.42358398 C-40.42228652 103.03535194 -42.8379735 103.26112822 -45.3984375 103.4765625 C-46.43226563 103.56357422 -47.46609375 103.65058594 -48.53125 103.74023438 C-49.60632813 103.82724609 -50.68140625 103.91425781 -51.7890625 104.00390625 C-53.37847656 104.14022461 -53.37847656 104.14022461 -55 104.27929688 C-60.7020873 104.74975445 -66.31802235 105.04504828 -72.0390625 104.94140625 C-71.9153125 106.08609375 -71.9153125 106.08609375 -71.7890625 107.25390625 C-72.0390625 109.94140625 -72.0390625 109.94140625 -73.6015625 111.75390625 C-77.0604925 113.43902599 -79.22210061 113.4589604 -83.0390625 112.94140625 C-85.96727595 111.76214519 -88.08359245 110.44231899 -90.0390625 107.94140625 C-90.7398636 104.84282288 -90.4461405 102.06947928 -90.0390625 98.94140625 C-89.9565625 97.66265625 -89.8740625 96.38390625 -89.7890625 95.06640625 C-89.0390625 91.94140625 -89.0390625 91.94140625 -87.4140625 89.94140625 C-83.99301047 88.50096329 -81.64186555 89.20863275 -78.0390625 89.94140625 C-76.09 90.21984375 -76.09 90.21984375 -74.1015625 90.50390625 C-73.0909375 90.64828125 -72.0803125 90.79265625 -71.0390625 90.94140625 C-71.67972656 90.52632813 -72.32039062 90.11125 -72.98046875 89.68359375 C-80.47136994 84.34730348 -85.88229511 78.06088846 -88.0390625 68.94140625 C-89.12994004 59.76471122 -89.52166499 49.62267622 -86.0390625 40.94140625 C-85.74386719 40.02359375 -85.44867187 39.10578125 -85.14453125 38.16015625 C-82.14157579 29.26629666 -79.34372136 24.9395689 -70.9765625 20.62890625 C-67.69255266 19.05109068 -64.6159428 17.67050655 -61.0390625 16.94140625 C-60.94625 15.20890625 -60.94625 15.20890625 -60.8515625 13.44140625 C-60.22121141 8.53867557 -58.47833459 4.537428 -55.0390625 0.94140625 C-52.0390625 0.06640625 -52.0390625 0.06640625 -49.0390625 0.94140625 C-45.68607608 4.00282864 -44.14968529 5.74668009 -43.7265625 10.31640625 C-43.8296875 11.18265625 -43.9328125 12.04890625 -44.0390625 12.94140625 C-43.1934375 12.44640625 -42.3478125 11.95140625 -41.4765625 11.44140625 C-35.53128589 8.86022649 -28.37373745 9.38522612 -22.0390625 9.94140625 C-19.58203125 10.9609375 -19.58203125 10.9609375 -18.0390625 11.94140625 C-18.1215625 10.88953125 -18.2040625 9.83765625 -18.2890625 8.75390625 C-17.99902667 4.3308598 -17.17025368 2.9856199 -14.0390625 -0.05859375 C-9.81045639 -3.38106998 -4.48222133 -2.32697698 0 0 Z M-13.5390625 3.87890625 C-15.62279221 8.13318774 -14.94886655 11.40227517 -14.0390625 15.94140625 C-15.0496875 15.61140625 -16.0603125 15.28140625 -17.1015625 14.94140625 C-26.83036676 12.5221654 -37.42331867 13.40737493 -47.0390625 15.94140625 C-46.99265625 15.338125 -46.94625 14.73484375 -46.8984375 14.11328125 C-46.6170363 8.91758251 -46.6170363 8.91758251 -48.7890625 4.31640625 C-50.89424158 2.78841526 -50.89424158 2.78841526 -53.1015625 2.81640625 C-56.23484674 4.63573259 -56.84605693 6.54134038 -58.0390625 9.94140625 C-58.2737538 13.2919991 -58.21793623 16.58917998 -58.0390625 19.94140625 C-59.0084375 20.00328125 -59.9778125 20.06515625 -60.9765625 20.12890625 C-67.08114478 21.02044768 -72.7954185 24.16120099 -76.8515625 28.81640625 C-84.94117167 40.37299078 -86.99264453 52.95863562 -85.0390625 66.94140625 C-82.94014591 74.79652476 -78.44900838 81.50377909 -72.2265625 86.70703125 C-66.06424014 90.18434173 -59.48858379 90.32840983 -52.6015625 90.56640625 C-51.67923828 90.60507813 -50.75691406 90.64375 -49.80664062 90.68359375 C-47.55097107 90.77709301 -45.29529334 90.86284535 -43.0390625 90.94140625 C-50.66985042 92.38224527 -58.32077643 93.41142896 -66.0390625 94.25390625 C-66.95905029 94.36653809 -67.87903809 94.47916992 -68.8269043 94.59521484 C-69.7012915 94.68496582 -70.57567871 94.7747168 -71.4765625 94.8671875 C-72.25902344 94.95395752 -73.04148437 95.04072754 -73.84765625 95.13012695 C-76.66509037 94.88749364 -77.83917743 93.64480504 -80.0390625 91.94140625 C-83.23141522 92.16714516 -83.23141522 92.16714516 -86.0390625 92.94140625 C-88.04714088 99.46078616 -88.04714088 99.46078616 -87.26953125 106.0078125 C-85.08481561 108.88608866 -83.39556911 109.88548364 -79.8515625 110.44140625 C-76.91158867 110.19554813 -76.91158867 110.19554813 -75.0390625 107.94140625 C-74.87225141 104.85792799 -74.87225141 104.85792799 -75.0390625 101.94140625 C-74.31783203 101.9580835 -73.59660156 101.97476074 -72.85351562 101.99194336 C-65.29474587 102.08989587 -58.02518452 101.50360578 -50.5390625 100.50390625 C-42.38100207 99.44487853 -34.24362787 98.55638205 -26.0390625 97.94140625 C-26.5340625 99.42640625 -26.5340625 99.42640625 -27.0390625 100.94140625 C-26.4821875 101.30492187 -25.9253125 101.6684375 -25.3515625 102.04296875 C-21.42408964 104.63032418 -17.57567462 107.2547849 -13.8515625 110.12890625 C-8.47187156 114.35976669 -8.47187156 114.35976669 -2.0390625 115.94140625 C-3.26840265 119.62942669 -4.97765628 120.66497598 -8.0390625 122.94140625 C-7.54150158 125.69782041 -7.54150158 125.69782041 -6.0390625 127.94140625 C-4.03241136 127.91507461 -4.03241136 127.91507461 -1.7265625 127.62890625 C-0.94667969 127.55027344 -0.16679688 127.47164063 0.63671875 127.390625 C3.0968897 126.91512977 4.84771254 126.28534318 6.9609375 124.94140625 C8.23600614 122.11689656 8.23600614 122.11689656 8.9609375 118.94140625 C9.3321875 117.58015625 9.3321875 117.58015625 9.7109375 116.19140625 C9.7934375 115.44890625 9.8759375 114.70640625 9.9609375 113.94140625 C7.65964741 111.64011616 7.07150099 111.67012415 3.9609375 111.44140625 C0.18315972 111.16362847 0.18315972 111.16362847 -2.0390625 108.94140625 C-3.0290625 108.94140625 -4.0190625 108.94140625 -5.0390625 108.94140625 C-5.1421875 108.36390625 -5.2453125 107.78640625 -5.3515625 107.19140625 C-6.14802715 104.58479467 -7.22971527 102.96787515 -9.0390625 100.94140625 C-9.6990625 100.94140625 -10.3590625 100.94140625 -11.0390625 100.94140625 C-11.1215625 100.42578125 -11.2040625 99.91015625 -11.2890625 99.37890625 C-12.36046475 95.89684893 -14.17429855 93.0693974 -16.0390625 89.94140625 C-14.5540625 90.43640625 -14.5540625 90.43640625 -13.0390625 90.94140625 C-10.46206542 91.00379092 -7.91550197 91.00818835 -5.34008789 90.96313477 C-4.55557251 90.95352722 -3.77105713 90.94391968 -2.96276855 90.934021 C-0.35399747 90.90092013 2.25461116 90.8605423 4.86328125 90.8203125 C6.6976303 90.79595902 8.53198622 90.77211826 10.36634827 90.74876404 C15.22350781 90.68578638 20.08056523 90.61691826 24.93762207 90.54650879 C32.60376968 90.43620223 40.27002785 90.33372924 47.93629837 90.23237228 C49.80145162 90.20770326 51.6666021 90.18282445 53.53174973 90.15773392 C69.00923247 89.95110087 84.4820491 89.86756081 99.9609375 89.94140625 C99.9609375 90.93140625 99.9609375 91.92140625 99.9609375 92.94140625 C97.3209375 92.94140625 94.6809375 92.94140625 91.9609375 92.94140625 C88.99677931 99.86558605 86.23528954 106.75924192 83.9609375 113.94140625 C83.3009375 113.61140625 82.6409375 113.28140625 81.9609375 112.94140625 C80.46444388 112.82135172 78.96218957 112.76609174 77.4609375 112.75390625 C76.26984375 112.73263672 76.26984375 112.73263672 75.0546875 112.7109375 C72.74060433 112.74474322 72.74060433 112.74474322 70.9609375 114.94140625 C71.31357535 119.44457748 71.31357535 119.44457748 73.9609375 122.94140625 C77.08908264 123.18500698 77.08908264 123.18500698 80.5859375 123.06640625 C81.77445313 123.04835938 82.96296875 123.0303125 84.1875 123.01171875 C85.10273437 122.98851562 86.01796875 122.9653125 86.9609375 122.94140625 C86.9609375 121.80703125 86.9609375 120.67265625 86.9609375 119.50390625 C87.56115315 114.3747907 90.42454571 111.67831826 93.953125 108.1171875 C96.03401919 105.86221072 97.45441697 103.60579541 98.9609375 100.94140625 C99.9509375 99.45640625 99.9509375 99.45640625 100.9609375 97.94140625 C100.9609375 96.62140625 100.9609375 95.30140625 100.9609375 93.94140625 C101.9509375 93.94140625 102.9409375 93.94140625 103.9609375 93.94140625 C104.05117188 94.5653125 104.14140625 95.18921875 104.234375 95.83203125 C104.75355076 98.03947056 104.75355076 98.03947056 106.5625 98.98828125 C113.65683963 101.45349579 118.8189638 101.42557102 125.9609375 98.94140625 C128.7109375 98.62890625 128.7109375 98.62890625 130.9609375 98.94140625 C131.9509375 100.42640625 131.9509375 100.42640625 132.9609375 101.94140625 C135.8316611 102.69277793 135.8316611 102.69277793 138.9609375 101.94140625 C141.28812975 100.11627324 142.32556485 98.5183571 143.9609375 95.94140625 C144.04233341 93.09254946 143.27406543 92.29210953 141.3984375 90.19140625 C137.82094693 88.3567957 134.95465407 88.74172042 130.9609375 88.94140625 C130.9609375 89.93140625 130.9609375 90.92140625 130.9609375 91.94140625 C130.25710938 91.91820312 129.55328125 91.895 128.828125 91.87109375 C120.70230221 91.72258002 112.9704859 92.61438048 104.9609375 93.94140625 C104.9609375 92.95140625 104.9609375 91.96140625 104.9609375 90.94140625 C106.1365625 90.98265625 107.3121875 91.02390625 108.5234375 91.06640625 C116.21113867 91.0394791 122.96503462 87.82074891 129.9609375 84.94140625 C130.78335938 84.63976562 131.60578125 84.338125 132.453125 84.02734375 C137.0547311 82.03474796 140.92700184 78.88364975 144.9609375 75.94140625 C145.9096875 75.28140625 146.8584375 74.62140625 147.8359375 73.94140625 C152.03810527 69.98642482 154.15758278 65.98458662 154.45703125 60.26953125 C154.4633193 58.57672192 154.44294474 56.88364207 154.3984375 55.19140625 C154.38377441 54.30759277 154.36911133 53.4237793 154.35400391 52.51318359 C154.17129032 41.59629792 154.17129032 41.59629792 149.390625 32.12890625 C148.83632813 31.61328125 148.28203125 31.09765625 147.7109375 30.56640625 C146.3496875 29.26703125 146.3496875 29.26703125 144.9609375 27.94140625 C144.9609375 24.43552369 145.48466848 23.41767527 147.9609375 20.94140625 C148.12774859 17.85792799 148.12774859 17.85792799 147.9609375 14.94140625 C144.52863302 15.20534126 144.52863302 15.20534126 140.9609375 15.94140625 C140.3009375 16.93140625 139.6409375 17.92140625 138.9609375 18.94140625 C139.9509375 20.26140625 140.9409375 21.58140625 141.9609375 22.94140625 C139.98074007 22.46651727 138.00180115 21.98637766 136.0234375 21.50390625 C134.92128906 21.23707031 133.81914063 20.97023437 132.68359375 20.6953125 C129.9609375 19.94140625 129.9609375 19.94140625 128.9609375 18.94140625 C126.85461693 18.82258522 124.74432029 18.77395049 122.63476562 18.75195312 C121.97251984 18.74365982 121.31027405 18.73536652 120.62796021 18.7268219 C119.18040918 18.70936329 117.73282897 18.69421263 116.28523254 18.68104553 C113.96787474 18.65993476 111.65065167 18.63289449 109.33337402 18.60437012 C105.21329534 18.55464428 101.09317895 18.51021013 96.97302246 18.46746826 C89.68767148 18.39188527 82.40239335 18.31115328 75.1171875 18.22265625 C74.32855757 18.21324949 73.53992764 18.20384274 72.72739983 18.19415092 C61.85203012 18.06025017 50.99711752 17.76647056 40.1309967 17.27833557 C31.8794189 16.91247575 23.65788572 16.82224513 15.3984375 16.87890625 C13.42133789 16.88567383 13.42133789 16.88567383 11.40429688 16.89257812 C8.25645433 16.90402483 5.10872668 16.92021451 1.9609375 16.94140625 C1.9906665 16.25578613 2.02039551 15.57016602 2.05102539 14.86376953 C2.07414795 13.96384277 2.09727051 13.06391602 2.12109375 12.13671875 C2.15082275 11.24484863 2.18055176 10.35297852 2.21118164 9.43408203 C1.926759 6.60095503 1.47625235 5.71091462 -0.6015625 3.81640625 C-5.49169665 1.14906035 -8.95431876 0.32572985 -13.5390625 3.87890625 Z " fill="#1A1A1A" transform="translate(632.0390625,155.05859375)"/>
<path d="M0 0 C1 1 1 1 1.25 4.875 C1.2225573 8.70325694 1.2225573 8.70325694 -0.5 11 C-0.995 11.33 -1.49 11.66 -2 12 C-0.91012617 14.45221612 0.1821977 16.20714144 1.96875 18.23828125 C8.36988997 26.94136963 7.64795324 40.22456116 6.7890625 50.53125 C5.81492894 56.85229444 2.75716296 60.84459783 -2 65 C-5.89906039 67.83789289 -9.89729142 70.46696482 -14 73 C-13.05898438 73.29390625 -12.11796875 73.5878125 -11.1484375 73.890625 C-7.68793244 75.10995929 -6.14158251 76.0347319 -4 79 C-3.47223913 82.54353726 -3.76752625 84.48855774 -5.25 87.75 C-7.1312918 90.16880375 -8.09792427 91.08791905 -11 92 C-14.0625 92.3125 -14.0625 92.3125 -17 92 C-17.474375 91.484375 -17.94875 90.96875 -18.4375 90.4375 C-18.953125 89.963125 -19.46875 89.48875 -20 89 C-23.50346762 89.26949751 -26.77043375 89.94598441 -30.1875 90.75 C-35.77426205 91.11634505 -40.66012373 89.52137519 -46 88 C-47.33189667 87.66097176 -48.66462998 87.32507814 -50 87 C-49.67 85.02 -49.34 83.04 -49 81 C-48.01 81 -47.02 81 -46 81 C-45.7215625 81.928125 -45.7215625 81.928125 -45.4375 82.875 C-43.22732009 86.14222247 -40.7823039 86.25594022 -37 87 C-32.08059803 87.34522119 -28.61448099 86.60503687 -24 85 C-21.25 84.6875 -21.25 84.6875 -19 85 C-18.01 86.485 -18.01 86.485 -17 88 C-14.08559301 88.66721536 -14.08559301 88.66721536 -11 88 C-8.4482714 85.87314071 -8.4482714 85.87314071 -7 83 C-6.9046469 80.79649965 -6.9046469 80.79649965 -8 79 C-10.90092502 77.06604999 -11.89674737 76.69868059 -15.1875 76.375 C-16.445625 76.25125 -17.70375 76.1275 -19 76 C-19 76.99 -19 77.98 -19 79 C-22.02038089 79.33794471 -25.04119756 79.67048433 -28.0625 80 C-28.91005859 80.09539062 -29.75761719 80.19078125 -30.63085938 80.2890625 C-35.45472589 80.81056158 -40.14836264 81.10532727 -45 81 C-45 80.01 -45 79.02 -45 78 C-44.03578125 77.87882812 -43.0715625 77.75765625 -42.078125 77.6328125 C-40.81484375 77.46523437 -39.5515625 77.29765625 -38.25 77.125 C-36.99703125 76.96257812 -35.7440625 76.80015625 -34.453125 76.6328125 C-31.42176822 76.07729237 -29.62687925 75.47559266 -27 74 C-25.12665438 73.26659343 -23.25148277 72.53784229 -21.375 71.8125 C-11.82684946 67.86033513 -1.56280789 61.66241671 3 52 C3.44044646 48.78500235 3.42731582 45.61557444 3.375 42.375 C3.36484863 41.48216309 3.35469727 40.58932617 3.34423828 39.66943359 C3.22171436 28.70285557 3.22171436 28.70285557 -1.5703125 19.1875 C-2.12460937 18.671875 -2.67890625 18.15625 -3.25 17.625 C-4.61125 16.325625 -4.61125 16.325625 -6 15 C-6 11.49411744 -5.47626902 10.47626902 -3 8 C-2.60235737 6.01178687 -2.26224651 4.01055661 -2 2 C-4.31 2.66 -6.62 3.32 -9 4 C-9.15811388 7.05270463 -9.15811388 7.05270463 -8 10 C-15.47089334 9.24024813 -15.47089334 9.24024813 -18.20280457 7.99978638 C-21.57808353 6.79337874 -24.41008911 6.6797455 -27.9934082 6.58935547 C-28.67688828 6.56955627 -29.36036835 6.54975708 -30.06455994 6.52935791 C-32.3098291 6.46649479 -34.55518272 6.41676128 -36.80078125 6.3671875 C-38.36307395 6.32601652 -39.92534517 6.28402275 -41.4875946 6.24124146 C-45.58910672 6.13112856 -49.69081438 6.03216666 -53.79266357 5.93554688 C-57.98239437 5.83487562 -62.17184302 5.72362982 -66.36132812 5.61328125 C-74.57397982 5.39852057 -82.78686837 5.19554279 -91 5 C-91 4.67 -91 4.34 -91 4 C-81.82910742 3.97681556 -72.65822496 3.95905378 -63.48730946 3.94818783 C-59.2287524 3.94297236 -54.97021542 3.93589896 -50.71166992 3.92456055 C-46.60088084 3.9136842 -42.49011106 3.90771309 -38.3793087 3.90512276 C-36.81205631 3.90327707 -35.24480497 3.89967293 -33.67756081 3.89426994 C-31.4800858 3.88699652 -29.28269021 3.88601172 -27.08520508 3.88647461 C-25.83500076 3.884254 -24.58479645 3.88203339 -23.29670715 3.87974548 C-20.39576466 3.98556363 -17.81545765 4.32540867 -15 5 C-14.443125 4.195625 -13.88625 3.39125 -13.3125 2.5625 C-11 0 -11 0 -8.625 -0.875 C-5.59305085 -1.01937853 -2.95662241 -0.67195964 0 0 Z " fill="#111111" transform="translate(782,168)"/>
<path d="M0 0 C0.96938507 -0.00673233 1.93877014 -0.01346466 2.93753052 -0.020401 C4.25598465 -0.02178322 4.25598465 -0.02178322 5.60107422 -0.02319336 C6.72580643 -0.02687172 6.72580643 -0.02687172 7.8732605 -0.03062439 C10.00872836 0.09353072 11.89217584 0.50432335 13.9453125 1.08984375 C13.9453125 2.07984375 13.9453125 3.06984375 13.9453125 4.08984375 C11.3053125 4.41984375 8.6653125 4.74984375 5.9453125 5.08984375 C3.3053125 11.68984375 0.6653125 18.28984375 -2.0546875 25.08984375 C-5.6846875 25.08984375 -9.3146875 25.08984375 -13.0546875 25.08984375 C-14.30506803 28.7874107 -14.30506803 28.7874107 -13.53125 31.29296875 C-12.10676778 33.41276091 -12.10676778 33.41276091 -9.015625 33.69921875 C-7.83226562 33.745625 -6.64890625 33.79203125 -5.4296875 33.83984375 C-3.64691406 33.92492187 -3.64691406 33.92492187 -1.828125 34.01171875 C-0.91289063 34.0375 0.00234375 34.06328125 0.9453125 34.08984375 C0.7803125 32.95546875 0.6153125 31.82109375 0.4453125 30.65234375 C0.40738101 26.37367221 1.9081838 24.50724084 4.7578125 21.40234375 C5.46550781 20.69722656 6.17320312 19.99210937 6.90234375 19.265625 C9.00517976 17.02608454 10.38164765 14.71984738 11.9453125 12.08984375 C12.6053125 11.75984375 13.2653125 11.42984375 13.9453125 11.08984375 C12.56303273 17.07972275 9.10656736 21.6734176 4.9453125 26.08984375 C4.2853125 26.08984375 3.6253125 26.08984375 2.9453125 26.08984375 C2.95691406 26.80011719 2.96851563 27.51039063 2.98046875 28.2421875 C2.98949219 29.16128906 2.99851562 30.08039063 3.0078125 31.02734375 C3.01941406 31.94386719 3.03101563 32.86039062 3.04296875 33.8046875 C2.9453125 36.08984375 2.9453125 36.08984375 1.9453125 37.08984375 C-0.32287412 37.21601713 -2.59552435 37.26564621 -4.8671875 37.27734375 C-6.11113281 37.29152344 -7.35507812 37.30570312 -8.63671875 37.3203125 C-11.79303397 37.10748667 -13.48585736 36.86252314 -16.0546875 35.08984375 C-17.80071346 31.59779183 -17.75003254 27.89061323 -17.0546875 24.08984375 C-14.44675713 21.41671512 -12.62244515 20.25561024 -8.875 19.859375 C-6.93345228 19.84210144 -4.99171105 19.95625592 -3.0546875 20.08984375 C-2.8690625 19.22552734 -2.8690625 19.22552734 -2.6796875 18.34375 C-2.03983947 16.03629805 -1.16440841 14.14478917 -0.0546875 12.02734375 C1.16504725 9.69101359 2.10633073 7.60678905 2.9453125 5.08984375 C-29.3946875 5.08984375 -61.7346875 5.08984375 -95.0546875 5.08984375 C-95.3846875 4.42984375 -95.7146875 3.76984375 -96.0546875 3.08984375 C-95.11496094 2.99896484 -95.11496094 2.99896484 -94.15625 2.90625 C-92.93035156 2.78056641 -92.93035156 2.78056641 -91.6796875 2.65234375 C-90.86757813 2.57113281 -90.05546875 2.48992187 -89.21875 2.40625 C-87.01195945 2.19894261 -87.01195945 2.19894261 -85.0546875 1.08984375 C-82.93576983 0.96900813 -80.81309555 0.91237151 -78.69091797 0.88452148 C-78.03667343 0.87462189 -77.38242889 0.86472229 -76.70835876 0.85452271 C-74.52956803 0.82278417 -72.35075706 0.79804668 -70.171875 0.7734375 C-68.64038591 0.75282365 -67.10890194 0.73182617 -65.5774231 0.71046448 C-62.34754431 0.66640506 -59.11764652 0.62553789 -55.88769531 0.5871582 C-51.82224528 0.53881587 -47.75689272 0.48506385 -43.69153976 0.42920494 C-29.12845474 0.22956444 -14.56443991 0.05315489 0 0 Z " fill="#212121" transform="translate(718.0546875,243.91015625)"/>
<path d="M0 0 C1.32 0.33 2.64 0.66 4 1 C3.46375 1.7425 2.9275 2.485 2.375 3.25 C1.92125 4.1575 1.4675 5.065 1 6 C1.69140351 8.30287793 1.69140351 8.30287793 3 10 C-4.47089334 9.24024813 -4.47089334 9.24024813 -7.20280457 7.99978638 C-10.57808353 6.79337874 -13.41008911 6.6797455 -16.9934082 6.58935547 C-17.67688828 6.56955627 -18.36036835 6.54975708 -19.06455994 6.52935791 C-21.3098291 6.46649479 -23.55518272 6.41676128 -25.80078125 6.3671875 C-27.36307395 6.32601652 -28.92534517 6.28402275 -30.4875946 6.24124146 C-34.58910672 6.13112856 -38.69081438 6.03216666 -42.79266357 5.93554688 C-46.98239437 5.83487562 -51.17184302 5.72362982 -55.36132812 5.61328125 C-63.57397982 5.39852057 -71.78686837 5.19554279 -80 5 C-80 4.67 -80 4.34 -80 4 C-70.82910742 3.97681556 -61.65822496 3.95905378 -52.48730946 3.94818783 C-48.2287524 3.94297236 -43.97021542 3.93589896 -39.71166992 3.92456055 C-35.60088084 3.9136842 -31.49011106 3.90771309 -27.3793087 3.90512276 C-25.81205631 3.90327707 -24.24480497 3.89967293 -22.67756081 3.89426994 C-20.4800858 3.88699652 -18.28269021 3.88601172 -16.08520508 3.88647461 C-14.83500076 3.884254 -13.58479645 3.88203339 -12.29670715 3.87974548 C-9.39576466 3.98556363 -6.81545765 4.32540867 -4 5 C-2.68 3.35 -1.36 1.7 0 0 Z " fill="#060606" transform="translate(771,168)"/>
<path d="M0 0 C0.66 0.66 1.32 1.32 2 2 C-0.08058657 4.08058657 -4.41960849 3.38043408 -7.23828125 3.5234375 C-10.28462043 4.04911413 -11.71491661 4.97002093 -14 7 C-13.59573665 12.86181863 -12.7971314 16.2823519 -9 21 C-5.81175432 22.59412284 -2.37103338 22.10174735 1.125 22.0625 C2.25615234 22.05573242 2.25615234 22.05573242 3.41015625 22.04882812 C5.27347127 22.03703499 7.13674555 22.01909942 9 22 C9 22.99 9 23.98 9 25 C2.95996666 26.55871828 -2.76190771 26.63412615 -8.75 24.9375 C-12.78583173 22.53152339 -15.28989273 20.43703508 -17 16 C-17.39375072 11.96153104 -17.2986977 8.04237551 -17 4 C-11.43890122 0.13140954 -6.78760781 -1.06715589 0 0 Z " fill="#0F0F0F" transform="translate(584,193)"/>
<path d="M0 0 C0.33 0.66 0.66 1.32 1 2 C-1.25679511 6.66816522 -4.53163242 11.17283577 -8 15 C-8.66 15 -9.32 15 -10 15 C-9.98839844 15.71027344 -9.97679687 16.42054688 -9.96484375 17.15234375 C-9.95582031 18.07144531 -9.94679688 18.99054688 -9.9375 19.9375 C-9.92589844 20.85402344 -9.91429687 21.77054687 -9.90234375 22.71484375 C-10 25 -10 25 -11 26 C-13.26818662 26.12617338 -15.54083685 26.17580246 -17.8125 26.1875 C-19.05644531 26.20167969 -20.30039062 26.21585937 -21.58203125 26.23046875 C-24.73834647 26.01764292 -26.43116986 25.77267939 -29 24 C-30.20272819 21.59454362 -30.10071472 20.05003047 -30.0625 17.375 C-30.05347656 16.55773437 -30.04445313 15.74046875 -30.03515625 14.8984375 C-30.02355469 14.27195312 -30.01195312 13.64546875 -30 13 C-28.68 12.34 -27.36 11.68 -26 11 C-26.20625 12.0725 -26.4125 13.145 -26.625 14.25 C-27.13086111 18.56223487 -27.13086111 18.56223487 -25 22 C-21.89069059 22.70672206 -21.89069059 22.70672206 -18.375 22.75 C-16.59222656 22.83507812 -16.59222656 22.83507812 -14.7734375 22.921875 C-13.40058594 22.96054687 -13.40058594 22.96054687 -12 23 C-12.165 21.865625 -12.33 20.73125 -12.5 19.5625 C-12.53793149 15.28382846 -11.0371287 13.41739709 -8.1875 10.3125 C-7.47980469 9.60738281 -6.77210938 8.90226562 -6.04296875 8.17578125 C-3.93710735 5.93301873 -2.51322848 3.66746282 -1 1 C-0.67 0.67 -0.34 0.34 0 0 Z " fill="#121212" transform="translate(731,255)"/>
<path d="M0 0 C0.99 0.33 1.98 0.66 3 1 C1.35 4.96 -0.3 8.92 -2 13 C-5.96 13 -9.92 13 -14 13 C-13.67 11.68 -13.34 10.36 -13 9 C-9.78548731 7.39274365 -6.56387464 7.94251815 -3 8 C-2.87625 7.4225 -2.7525 6.845 -2.625 6.25 C-1.99351176 3.97664233 -1.11141809 2.0746471 0 0 Z " fill="#272727" transform="translate(718,256)"/>
<path d="M0 0 C0.99 0 1.98 0 3 0 C3.18304687 0.62390625 3.36609375 1.2478125 3.5546875 1.890625 C4.91662203 4.34008964 4.91662203 4.34008964 8.2578125 5.046875 C9.53398438 5.27890625 10.81015625 5.5109375 12.125 5.75 C13.40632812 5.99234375 14.68765625 6.2346875 16.0078125 6.484375 C16.99523437 6.65453125 17.98265625 6.8246875 19 7 C19 7.99 19 8.98 19 10 C12.44638413 9.47148259 6.11647732 8.53639635 0 6 C-1.24546405 3.50907189 -0.7767578 2.58919267 0 0 Z " fill="#0B0B0B" transform="translate(733,249)"/>
<path d="M0 0 C-0.33 0.99 -0.66 1.98 -1 3 C-8.7979791 4.13425151 -16.22450441 4.59497345 -24 3 C-24 2.67 -24 2.34 -24 2 C-15.97649696 0.81603117 -8.13544686 -0.28545428 0 0 Z " fill="#1E1E1E" transform="translate(585,255)"/>
<path d="M0 0 C0.99 0 1.98 0 3 0 C3.17942163 3.94727588 3.09350689 6.5980513 1 10 C-1.31 9.67 -3.62 9.34 -6 9 C-6 6.36 -6 3.72 -6 1 C-5.34 1 -4.68 1 -4 1 C-3.814375 2.2065625 -3.814375 2.2065625 -3.625 3.4375 C-3.41875 4.283125 -3.2125 5.12875 -3 6 C-2.34 6.33 -1.68 6.66 -1 7 C-0.67 4.69 -0.34 2.38 0 0 Z " fill="#141414" transform="translate(647,207)"/>
<path d="M0 0 C12.87 0.495 12.87 0.495 26 1 C26 1.66 26 2.32 26 3 C17.75 3 9.5 3 1 3 C0.67 2.01 0.34 1.02 0 0 Z " fill="#020202" transform="translate(572,228)"/>
<path d="M0 0 C0.309375 0.639375 0.61875 1.27875 0.9375 1.9375 C1.8345163 3.93610821 1.8345163 3.93610821 3 5 C4.46282033 4.90966647 5.92182192 4.75296509 7.375 4.5625 C9.9721428 4.22833993 12.37411693 4 15 4 C14.1875 5.9375 14.1875 5.9375 13 8 C8.65693925 9.44768692 4.75868747 9.85679646 0.5625 7.8125 C-1 6 -1 6 -1.3125 3.375 C-1 1 -1 1 0 0 Z " fill="#0D0D0D" transform="translate(623,277)"/>
<path d="M0 0 C0.66 0 1.32 0 2 0 C2.33 2.31 2.66 4.62 3 7 C3.66 7 4.32 7 5 7 C5 5.68 5 4.36 5 3 C5.99 3 6.98 3 8 3 C8.04254356 4.99954746 8.04080783 7.00041636 8 9 C7 10 7 10 4.5625 10.1875 C2 10 2 10 0 8 C-0.26991906 5.31160615 -0.08737357 2.70858064 0 0 Z " fill="#0F0F0F" transform="translate(715,192)"/>
<path d="M0 0 C0.66 0 1.32 0 2 0 C2.25 7.625 2.25 7.625 0 11 C-4.875 10.125 -4.875 10.125 -6 9 C-6.04080783 7.00041636 -6.04254356 4.99954746 -6 3 C-5.34 3 -4.68 3 -4 3 C-3.34 4.32 -2.68 5.64 -2 7 C-1.34 4.69 -0.68 2.38 0 0 Z " fill="#0C0C0C" transform="translate(616,221)"/>
<path d="M0 0 C0.66 0 1.32 0 2 0 C2 1.65 2 3.3 2 5 C2.66 5 3.32 5 4 5 C4.33 3.68 4.66 2.36 5 1 C5.66 1 6.32 1 7 1 C6.67 3.31 6.34 5.62 6 8 C4.34385343 8.38218767 2.67542976 8.71395102 1 9 C0 8 0 8 -0.09765625 6.15234375 C-0.06510417 4.1015625 -0.03255208 2.05078125 0 0 Z " fill="#0C0C0C" transform="translate(776,209)"/>
<path d="M0 0 C0.66 0 1.32 0 2 0 C1.125 6.875 1.125 6.875 0 8 C-2.5 8.125 -2.5 8.125 -5 8 C-6 7 -6 7 -6.0625 4.4375 C-6.041875 3.633125 -6.02125 2.82875 -6 2 C-5.01 2 -4.02 2 -3 2 C-3 2.99 -3 3.98 -3 5 C-2.34 5 -1.68 5 -1 5 C-0.67 3.35 -0.34 1.7 0 0 Z " fill="#111111" transform="translate(556,206)"/>
<path d="M0 0 C0.33 0.66 0.66 1.32 1 2 C-1.2419197 6.63739555 -4.48790703 11.26132039 -8 15 C-10.12109375 15.62890625 -10.12109375 15.62890625 -12 16 C-8 10.66666667 -4 5.33333333 0 0 Z " fill="#181818" transform="translate(731,255)"/>
<path d="M0 0 C0.66 0 1.32 0 2 0 C2.25 5.625 2.25 5.625 0 9 C-1.65 8.67 -3.3 8.34 -5 8 C-5 6.02 -5 4.04 -5 2 C-4.34 2 -3.68 2 -3 2 C-2.67 2.99 -2.34 3.98 -2 5 C-1.34 3.35 -0.68 1.7 0 0 Z " fill="#111111" transform="translate(734,199)"/>
<path d="M0 0 C0.66 0.33 1.32 0.66 2 1 C-1.38906482 5.99441132 -5.8122153 9.0355516 -11 12 C-8.69651345 6.62519804 -4.52853408 3.52219318 0 0 Z " fill="#1D1D1D" transform="translate(778,229)"/>
<path d="M0 0 C1.62463842 -0.05395478 3.24978541 -0.09277195 4.875 -0.125 C5.77992188 -0.14820313 6.68484375 -0.17140625 7.6171875 -0.1953125 C10 0 10 0 12 2 C10.18884044 3.81115956 7.38721773 3.38199448 4.9375 3.5625 C3.83277344 3.64628906 2.72804688 3.73007813 1.58984375 3.81640625 C0.73519531 3.87699219 -0.11945312 3.93757812 -1 4 C-0.67 2.68 -0.34 1.36 0 0 Z " fill="#383838" transform="translate(574,193)"/>
<path d="M0 0 C0.33 0 0.66 0 1 0 C1 2.97 1 5.94 1 9 C-3.95 10.485 -3.95 10.485 -9 12 C-8.67 10.68 -8.34 9.36 -8 8 C-5.69 7.34 -3.38 6.68 -1 6 C-0.67 4.02 -0.34 2.04 0 0 Z " fill="#070707" transform="translate(572,166)"/>
<path d="M0 0 C2.31 0 4.62 0 7 0 C7 0.99 7 1.98 7 3 C4.36 3.33 1.72 3.66 -1 4 C-0.67 2.68 -0.34 1.36 0 0 Z " fill="#242424" transform="translate(586,215)"/>
<path d="M0 0 C0.33 0 0.66 0 1 0 C0.67 3.3 0.34 6.6 0 10 C-0.99 10 -1.98 10 -3 10 C-2.69201674 8.51988629 -2.378482 7.04092675 -2.0625 5.5625 C-1.88847656 4.73878906 -1.71445312 3.91507813 -1.53515625 3.06640625 C-1 1 -1 1 0 0 Z " fill="#0B0B0B" transform="translate(548,193)"/>
<path d="M0 0 C2.875 -0.125 2.875 -0.125 6 0 C6.66 0.66 7.32 1.32 8 2 C4.52176885 3.15941038 2.54104422 2.70820884 -1 2 C-0.67 1.34 -0.34 0.68 0 0 Z " fill="#090909" transform="translate(578,193)"/>
</svg>
