<?xml version="1.0" encoding="UTF-8"?>
<svg version="1.1" xmlns="http://www.w3.org/2000/svg" width="800" height="300">
<path d="M0 0 C264 0 528 0 800 0 C800 99 800 198 800 300 C536 300 272 300 0 300 C0 201 0 102 0 0 Z " fill="#FEFEFE" transform="translate(0,0)"/>
<path d="M0 0 C2.9594334 2.14954731 4.73016275 3.81146955 5.47875977 7.47680664 C5.53604248 8.36360107 5.5933252 9.25039551 5.65234375 10.1640625 C5.71752197 11.0600415 5.7827002 11.95602051 5.84985352 12.87915039 C5.88651123 13.55969482 5.92316895 14.24023926 5.9609375 14.94140625 C7.2600708 14.93355103 7.2600708 14.93355103 8.58544922 14.92553711 C31.77359631 14.80800448 54.95469005 15.00690353 78.1400528 15.34712601 C80.317293 15.37863641 82.49454861 15.40872868 84.67181396 15.43844604 C111.35765756 15.8064277 111.35765756 15.8064277 122.625 16.4140625 C123.32064056 16.45115829 124.01628113 16.48825409 124.73300171 16.526474 C128.21820097 16.74189207 131.55627252 17.16251076 134.9609375 17.94140625 C135.3321875 17.32265625 135.7034375 16.70390625 136.0859375 16.06640625 C138.53221923 13.29395362 140.36641874 12.71669461 143.9609375 11.94140625 C149.48177083 12.46223958 149.48177083 12.46223958 150.9609375 13.94140625 C151.43618502 21.30774288 151.43618502 21.30774288 149.4609375 23.94140625 C148.9659375 24.27140625 148.4709375 24.60140625 147.9609375 24.94140625 C149.05081133 27.39362237 150.1431352 29.14854769 151.9296875 31.1796875 C158.33082747 39.88277588 157.60889074 53.16596741 156.75 63.47265625 C155.77586644 69.79370069 152.71810046 73.78600408 147.9609375 77.94140625 C144.06187711 80.77929914 140.06364608 83.40837107 135.9609375 85.94140625 C136.90195312 86.2353125 137.84296875 86.52921875 138.8125 86.83203125 C142.27300506 88.05136554 143.81935499 88.97613815 145.9609375 91.94140625 C146.48869837 95.48494351 146.19341125 97.42996399 144.7109375 100.69140625 C142.8296457 103.11021 141.86301323 104.0293253 138.9609375 104.94140625 C135.8984375 105.25390625 135.8984375 105.25390625 132.9609375 104.94140625 C132.4865625 104.42578125 132.0121875 103.91015625 131.5234375 103.37890625 C131.0078125 102.90453125 130.4921875 102.43015625 129.9609375 101.94140625 C126.45746988 102.21090376 123.19050375 102.88739066 119.7734375 103.69140625 C113.24331926 104.11961072 106.42724021 102.58560806 100.9609375 98.94140625 C100.5896875 99.99328125 100.5896875 99.99328125 100.2109375 101.06640625 C97.97612626 106.20647211 94.66188587 110.7469981 90.9609375 114.94140625 C90.3009375 114.94140625 89.6409375 114.94140625 88.9609375 114.94140625 C88.9609375 118.57140625 88.9609375 122.20140625 88.9609375 125.94140625 C86.5430663 126.04966914 84.13006194 126.12880414 81.7109375 126.19140625 C81.02902344 126.22492188 80.34710937 126.2584375 79.64453125 126.29296875 C76.26066169 126.35867496 74.31988752 126.19451203 71.5234375 124.22265625 C69.79365877 121.6971793 69.38913803 120.2208153 69.2109375 117.19140625 C69.15421875 116.3921875 69.0975 115.59296875 69.0390625 114.76953125 C69.00039063 113.86460937 69.00039063 113.86460937 68.9609375 112.94140625 C73.87018047 109.01401187 76.70014302 108.50962732 82.9609375 108.94140625 C83.0846875 108.36519531 83.2084375 107.78898437 83.3359375 107.1953125 C83.97578553 104.88786055 84.85121659 102.99635167 85.9609375 100.87890625 C87.18067225 98.54257609 88.12195573 96.45835155 88.9609375 93.94140625 C56.2909375 93.94140625 23.6209375 93.94140625 -10.0390625 93.94140625 C-4.06197307 104.22636543 -4.06197307 104.22636543 5.6484375 109.12890625 C6.41542969 109.24621094 7.18242188 109.36351562 7.97265625 109.484375 C9.9609375 109.94140625 9.9609375 109.94140625 11.9609375 111.94140625 C12.56385382 116.36540266 12.42860763 120.59685462 10.9609375 124.81640625 C7.48849306 128.50587847 3.65993813 130.83825973 -1.4921875 131.03515625 C-7.48675754 130.49371121 -7.48675754 130.49371121 -10.0390625 127.94140625 C-10.37777218 121.6188256 -10.37777218 121.6188256 -9.0390625 118.94140625 C-8.3790625 118.94140625 -7.7190625 118.94140625 -7.0390625 118.94140625 C-7.0390625 118.28140625 -7.0390625 117.62140625 -7.0390625 116.94140625 C-8.2146875 116.57015625 -8.2146875 116.57015625 -9.4140625 116.19140625 C-12.0390625 114.94140625 -12.0390625 114.94140625 -12.9765625 112.94140625 C-13.89733879 110.65350439 -13.89733879 110.65350439 -16.6640625 110.06640625 C-21.41786809 108.48180439 -25.4865804 105.49388835 -29.0390625 101.94140625 C-33.52258056 101.74917824 -33.52258056 101.74917824 -37.93457031 102.41577148 C-40.42779891 103.03850016 -42.83761311 103.2610979 -45.3984375 103.4765625 C-46.43226563 103.56357422 -47.46609375 103.65058594 -48.53125 103.74023438 C-49.60632813 103.82724609 -50.68140625 103.91425781 -51.7890625 104.00390625 C-53.37847656 104.14022461 -53.37847656 104.14022461 -55 104.27929688 C-60.7020873 104.74975445 -66.31802235 105.04504828 -72.0390625 104.94140625 C-71.9153125 106.08609375 -71.9153125 106.08609375 -71.7890625 107.25390625 C-72.0390625 109.94140625 -72.0390625 109.94140625 -73.6015625 111.75390625 C-77.0604925 113.43902599 -79.22210061 113.4589604 -83.0390625 112.94140625 C-85.96727595 111.76214519 -88.08359245 110.44231899 -90.0390625 107.94140625 C-90.7398636 104.84282288 -90.4461405 102.06947928 -90.0390625 98.94140625 C-89.9565625 97.66265625 -89.8740625 96.38390625 -89.7890625 95.06640625 C-89.0390625 91.94140625 -89.0390625 91.94140625 -87.4140625 89.94140625 C-83.99301047 88.50096329 -81.64186555 89.20863275 -78.0390625 89.94140625 C-76.09 90.21984375 -76.09 90.21984375 -74.1015625 90.50390625 C-73.0909375 90.64828125 -72.0803125 90.79265625 -71.0390625 90.94140625 C-71.69132813 90.503125 -72.34359375 90.06484375 -73.015625 89.61328125 C-79.85392717 84.65097348 -85.31303943 79.47595001 -87.0390625 70.94140625 C-88.53597915 56.45094914 -88.86268197 39.19016702 -79.90625 26.9140625 C-74.81068646 21.53067424 -68.19488902 18.49702071 -61.0390625 16.94140625 C-60.94625 15.20890625 -60.94625 15.20890625 -60.8515625 13.44140625 C-60.22121141 8.53867557 -58.47833459 4.537428 -55.0390625 0.94140625 C-52.0390625 0.06640625 -52.0390625 0.06640625 -49.0390625 0.94140625 C-45.68607608 4.00282864 -44.14968529 5.74668009 -43.7265625 10.31640625 C-43.8296875 11.18265625 -43.9328125 12.04890625 -44.0390625 12.94140625 C-43.1934375 12.44640625 -42.3478125 11.95140625 -41.4765625 11.44140625 C-35.53128589 8.86022649 -28.37373745 9.38522612 -22.0390625 9.94140625 C-19.58203125 10.9609375 -19.58203125 10.9609375 -18.0390625 11.94140625 C-18.1215625 10.88953125 -18.2040625 9.83765625 -18.2890625 8.75390625 C-17.99902667 4.3308598 -17.17025368 2.9856199 -14.0390625 -0.05859375 C-9.81045639 -3.38106998 -4.48222133 -2.32697698 0 0 Z " fill="#FCFCFC" transform="translate(609.0390625,155.05859375)"/>
<path d="M0 0 C2.9594334 2.14954731 4.73016275 3.81146955 5.47875977 7.47680664 C5.53604248 8.36360107 5.5933252 9.25039551 5.65234375 10.1640625 C5.71752197 11.0600415 5.7827002 11.95602051 5.84985352 12.87915039 C5.88651123 13.55969482 5.92316895 14.24023926 5.9609375 14.94140625 C7.2600708 14.93355103 7.2600708 14.93355103 8.58544922 14.92553711 C31.77359631 14.80800448 54.95469005 15.00690353 78.1400528 15.34712601 C80.317293 15.37863641 82.49454861 15.40872868 84.67181396 15.43844604 C111.35765756 15.8064277 111.35765756 15.8064277 122.625 16.4140625 C123.32064056 16.45115829 124.01628113 16.48825409 124.73300171 16.526474 C128.21820097 16.74189207 131.55627252 17.16251076 134.9609375 17.94140625 C135.3321875 17.32265625 135.7034375 16.70390625 136.0859375 16.06640625 C138.53221923 13.29395362 140.36641874 12.71669461 143.9609375 11.94140625 C149.48177083 12.46223958 149.48177083 12.46223958 150.9609375 13.94140625 C151.43618502 21.30774288 151.43618502 21.30774288 149.4609375 23.94140625 C148.9659375 24.27140625 148.4709375 24.60140625 147.9609375 24.94140625 C149.05081133 27.39362237 150.1431352 29.14854769 151.9296875 31.1796875 C158.33082747 39.88277588 157.60889074 53.16596741 156.75 63.47265625 C155.77586644 69.79370069 152.71810046 73.78600408 147.9609375 77.94140625 C144.06187711 80.77929914 140.06364608 83.40837107 135.9609375 85.94140625 C136.90195312 86.2353125 137.84296875 86.52921875 138.8125 86.83203125 C142.27300506 88.05136554 143.81935499 88.97613815 145.9609375 91.94140625 C146.48869837 95.48494351 146.19341125 97.42996399 144.7109375 100.69140625 C142.8296457 103.11021 141.86301323 104.0293253 138.9609375 104.94140625 C135.8984375 105.25390625 135.8984375 105.25390625 132.9609375 104.94140625 C132.4865625 104.42578125 132.0121875 103.91015625 131.5234375 103.37890625 C131.0078125 102.90453125 130.4921875 102.43015625 129.9609375 101.94140625 C126.45746988 102.21090376 123.19050375 102.88739066 119.7734375 103.69140625 C113.24331926 104.11961072 106.42724021 102.58560806 100.9609375 98.94140625 C100.5896875 99.99328125 100.5896875 99.99328125 100.2109375 101.06640625 C97.97612626 106.20647211 94.66188587 110.7469981 90.9609375 114.94140625 C90.3009375 114.94140625 89.6409375 114.94140625 88.9609375 114.94140625 C88.9609375 118.57140625 88.9609375 122.20140625 88.9609375 125.94140625 C86.5430663 126.04966914 84.13006194 126.12880414 81.7109375 126.19140625 C81.02902344 126.22492188 80.34710937 126.2584375 79.64453125 126.29296875 C76.26066169 126.35867496 74.31988752 126.19451203 71.5234375 124.22265625 C69.79365877 121.6971793 69.38913803 120.2208153 69.2109375 117.19140625 C69.15421875 116.3921875 69.0975 115.59296875 69.0390625 114.76953125 C69.00039063 113.86460937 69.00039063 113.86460937 68.9609375 112.94140625 C73.87018047 109.01401187 76.70014302 108.50962732 82.9609375 108.94140625 C83.0846875 108.36519531 83.2084375 107.78898437 83.3359375 107.1953125 C83.97578553 104.88786055 84.85121659 102.99635167 85.9609375 100.87890625 C87.18067225 98.54257609 88.12195573 96.45835155 88.9609375 93.94140625 C56.2909375 93.94140625 23.6209375 93.94140625 -10.0390625 93.94140625 C-4.06197307 104.22636543 -4.06197307 104.22636543 5.6484375 109.12890625 C6.41542969 109.24621094 7.18242188 109.36351562 7.97265625 109.484375 C9.9609375 109.94140625 9.9609375 109.94140625 11.9609375 111.94140625 C12.56385382 116.36540266 12.42860763 120.59685462 10.9609375 124.81640625 C7.48849306 128.50587847 3.65993813 130.83825973 -1.4921875 131.03515625 C-7.48675754 130.49371121 -7.48675754 130.49371121 -10.0390625 127.94140625 C-10.37777218 121.6188256 -10.37777218 121.6188256 -9.0390625 118.94140625 C-8.3790625 118.94140625 -7.7190625 118.94140625 -7.0390625 118.94140625 C-7.0390625 118.28140625 -7.0390625 117.62140625 -7.0390625 116.94140625 C-8.2146875 116.57015625 -8.2146875 116.57015625 -9.4140625 116.19140625 C-12.0390625 114.94140625 -12.0390625 114.94140625 -12.9765625 112.94140625 C-13.89733879 110.65350439 -13.89733879 110.65350439 -16.6640625 110.06640625 C-21.41786809 108.48180439 -25.4865804 105.49388835 -29.0390625 101.94140625 C-33.52258056 101.74917824 -33.52258056 101.74917824 -37.93457031 102.41577148 C-40.42779891 103.03850016 -42.83761311 103.2610979 -45.3984375 103.4765625 C-46.43226563 103.56357422 -47.46609375 103.65058594 -48.53125 103.74023438 C-49.60632813 103.82724609 -50.68140625 103.91425781 -51.7890625 104.00390625 C-53.37847656 104.14022461 -53.37847656 104.14022461 -55 104.27929688 C-60.7020873 104.74975445 -66.31802235 105.04504828 -72.0390625 104.94140625 C-71.9153125 106.08609375 -71.9153125 106.08609375 -71.7890625 107.25390625 C-72.0390625 109.94140625 -72.0390625 109.94140625 -73.6015625 111.75390625 C-77.0604925 113.43902599 -79.22210061 113.4589604 -83.0390625 112.94140625 C-85.96727595 111.76214519 -88.08359245 110.44231899 -90.0390625 107.94140625 C-90.7398636 104.84282288 -90.4461405 102.06947928 -90.0390625 98.94140625 C-89.9565625 97.66265625 -89.8740625 96.38390625 -89.7890625 95.06640625 C-89.0390625 91.94140625 -89.0390625 91.94140625 -87.4140625 89.94140625 C-83.99301047 88.50096329 -81.64186555 89.20863275 -78.0390625 89.94140625 C-76.09 90.21984375 -76.09 90.21984375 -74.1015625 90.50390625 C-73.0909375 90.64828125 -72.0803125 90.79265625 -71.0390625 90.94140625 C-71.69132813 90.503125 -72.34359375 90.06484375 -73.015625 89.61328125 C-79.85392717 84.65097348 -85.31303943 79.47595001 -87.0390625 70.94140625 C-88.53597915 56.45094914 -88.86268197 39.19016702 -79.90625 26.9140625 C-74.81068646 21.53067424 -68.19488902 18.49702071 -61.0390625 16.94140625 C-60.94625 15.20890625 -60.94625 15.20890625 -60.8515625 13.44140625 C-60.22121141 8.53867557 -58.47833459 4.537428 -55.0390625 0.94140625 C-52.0390625 0.06640625 -52.0390625 0.06640625 -49.0390625 0.94140625 C-45.68607608 4.00282864 -44.14968529 5.74668009 -43.7265625 10.31640625 C-43.8296875 11.18265625 -43.9328125 12.04890625 -44.0390625 12.94140625 C-43.1934375 12.44640625 -42.3478125 11.95140625 -41.4765625 11.44140625 C-35.53128589 8.86022649 -28.37373745 9.38522612 -22.0390625 9.94140625 C-19.58203125 10.9609375 -19.58203125 10.9609375 -18.0390625 11.94140625 C-18.1215625 10.88953125 -18.2040625 9.83765625 -18.2890625 8.75390625 C-17.99902667 4.3308598 -17.17025368 2.9856199 -14.0390625 -0.05859375 C-9.81045639 -3.38106998 -4.48222133 -2.32697698 0 0 Z M-13.5390625 3.87890625 C-15.62279221 8.13318774 -14.94886655 11.40227517 -14.0390625 15.94140625 C-15.0496875 15.61140625 -16.0603125 15.28140625 -17.1015625 14.94140625 C-26.83036676 12.5221654 -37.42331867 13.40737493 -47.0390625 15.94140625 C-46.99265625 15.338125 -46.94625 14.73484375 -46.8984375 14.11328125 C-46.6170363 8.91758251 -46.6170363 8.91758251 -48.7890625 4.31640625 C-50.89424158 2.78841526 -50.89424158 2.78841526 -53.1015625 2.81640625 C-56.20448711 4.61810441 -56.80557053 6.59335663 -58.0390625 9.94140625 C-58.55462228 13.26775827 -58.84652246 16.58191445 -59.0390625 19.94140625 C-60.3384375 20.12703125 -61.6378125 20.31265625 -62.9765625 20.50390625 C-70.84104493 22.29690932 -76.18341652 27.1266011 -80.4765625 33.81640625 C-86.10323033 43.27433794 -86.61856084 56.26549337 -85.0390625 66.94140625 C-83.25065306 72.97964839 -80.10332688 80.03119676 -75.0390625 83.94140625 C-74.0490625 83.94140625 -73.0590625 83.94140625 -72.0390625 83.94140625 C-71.760625 84.86953125 -71.760625 84.86953125 -71.4765625 85.81640625 C-69.71179341 88.42519534 -68.17524885 88.75489609 -65.20288086 89.53076172 C-61.03615393 90.32151369 -56.8316532 90.42022601 -52.6015625 90.56640625 C-51.67923828 90.60507813 -50.75691406 90.64375 -49.80664062 90.68359375 C-47.55097107 90.77709301 -45.29529334 90.86284535 -43.0390625 90.94140625 C-50.66985042 92.38224527 -58.32077643 93.41142896 -66.0390625 94.25390625 C-66.95905029 94.36653809 -67.87903809 94.47916992 -68.8269043 94.59521484 C-69.7012915 94.68496582 -70.57567871 94.7747168 -71.4765625 94.8671875 C-72.25902344 94.95395752 -73.04148437 95.04072754 -73.84765625 95.13012695 C-76.66509037 94.88749364 -77.83917743 93.64480504 -80.0390625 91.94140625 C-83.23141522 92.16714516 -83.23141522 92.16714516 -86.0390625 92.94140625 C-88.04714088 99.46078616 -88.04714088 99.46078616 -87.26953125 106.0078125 C-85.11943157 108.84048351 -83.38697534 109.87878194 -79.9140625 110.50390625 C-77.08365105 110.12382505 -77.08365105 110.12382505 -75.1015625 108.75390625 C-73.61734739 106.22200988 -74.38125956 104.71325173 -75.0390625 101.94140625 C-74.31783203 101.9580835 -73.59660156 101.97476074 -72.85351562 101.99194336 C-65.29474587 102.08989587 -58.02518452 101.50360578 -50.5390625 100.50390625 C-42.38100207 99.44487853 -34.24362787 98.55638205 -26.0390625 97.94140625 C-26.5340625 99.42640625 -26.5340625 99.42640625 -27.0390625 100.94140625 C-26.4821875 101.30492187 -25.9253125 101.6684375 -25.3515625 102.04296875 C-21.42408964 104.63032418 -17.57567462 107.2547849 -13.8515625 110.12890625 C-8.47187156 114.35976669 -8.47187156 114.35976669 -2.0390625 115.94140625 C-3.26840265 119.62942669 -4.97765628 120.66497598 -8.0390625 122.94140625 C-7.54150158 125.69782041 -7.54150158 125.69782041 -6.0390625 127.94140625 C-4.03241136 127.91507461 -4.03241136 127.91507461 -1.7265625 127.62890625 C-0.94667969 127.55027344 -0.16679688 127.47164063 0.63671875 127.390625 C3.09377341 126.91573208 4.84547768 126.27456255 6.9609375 124.94140625 C8.99663468 120.5646573 9.15211728 116.72090064 8.9609375 111.94140625 C8.36925781 111.92722656 7.77757812 111.91304688 7.16796875 111.8984375 C2.88462996 111.63989992 0.57951282 111.43626651 -2.8515625 108.69140625 C-4.32006777 106.84528534 -5.77830403 104.99095285 -7.2265625 103.12890625 C-7.8246875 102.40703125 -8.4228125 101.68515625 -9.0390625 100.94140625 C-9.6990625 100.94140625 -10.3590625 100.94140625 -11.0390625 100.94140625 C-11.1421875 100.17828125 -11.2453125 99.41515625 -11.3515625 98.62890625 C-12.10133442 95.69797967 -12.87379517 94.92623463 -15.0390625 92.94140625 C-15.3690625 91.95140625 -15.6990625 90.96140625 -16.0390625 89.94140625 C-14.5540625 90.43640625 -14.5540625 90.43640625 -13.0390625 90.94140625 C-10.46206542 91.00379092 -7.91550197 91.00818835 -5.34008789 90.96313477 C-4.55557251 90.95352722 -3.77105713 90.94391968 -2.96276855 90.934021 C-0.35399747 90.90092013 2.25461116 90.8605423 4.86328125 90.8203125 C6.6976303 90.79595902 8.53198622 90.77211826 10.36634827 90.74876404 C15.22350781 90.68578638 20.08056523 90.61691826 24.93762207 90.54650879 C32.60376968 90.43620223 40.27002785 90.33372924 47.93629837 90.23237228 C49.80145162 90.20770326 51.6666021 90.18282445 53.53174973 90.15773392 C69.00923247 89.95110087 84.4820491 89.86756081 99.9609375 89.94140625 C99.9609375 90.93140625 99.9609375 91.92140625 99.9609375 92.94140625 C97.3209375 92.94140625 94.6809375 92.94140625 91.9609375 92.94140625 C88.99677931 99.86558605 86.23528954 106.75924192 83.9609375 113.94140625 C83.3009375 113.61140625 82.6409375 113.28140625 81.9609375 112.94140625 C80.46444388 112.82135172 78.96218957 112.76609174 77.4609375 112.75390625 C76.26984375 112.73263672 76.26984375 112.73263672 75.0546875 112.7109375 C72.74060433 112.74474322 72.74060433 112.74474322 70.9609375 114.94140625 C71.31357535 119.44457748 71.31357535 119.44457748 73.9609375 122.94140625 C77.08908264 123.18500698 77.08908264 123.18500698 80.5859375 123.06640625 C81.77445313 123.04835938 82.96296875 123.0303125 84.1875 123.01171875 C85.10273437 122.98851562 86.01796875 122.9653125 86.9609375 122.94140625 C86.9609375 121.80703125 86.9609375 120.67265625 86.9609375 119.50390625 C87.56115315 114.3747907 90.42454571 111.67831826 93.953125 108.1171875 C96.03401919 105.86221072 97.45441697 103.60579541 98.9609375 100.94140625 C99.9509375 99.45640625 99.9509375 99.45640625 100.9609375 97.94140625 C100.9609375 96.62140625 100.9609375 95.30140625 100.9609375 93.94140625 C101.9509375 93.94140625 102.9409375 93.94140625 103.9609375 93.94140625 C104.05117188 94.5653125 104.14140625 95.18921875 104.234375 95.83203125 C104.75355076 98.03947056 104.75355076 98.03947056 106.5625 98.98828125 C113.65683963 101.45349579 118.8189638 101.42557102 125.9609375 98.94140625 C128.7109375 98.62890625 128.7109375 98.62890625 130.9609375 98.94140625 C131.9509375 100.42640625 131.9509375 100.42640625 132.9609375 101.94140625 C136.56839744 102.49036754 138.29965732 102.39386111 141.3359375 100.31640625 C143.43558203 97.24769501 143.58154565 95.58747914 142.9609375 91.94140625 C141.54045434 89.87384496 141.54045434 89.87384496 138.9609375 88.94140625 C136.24024162 88.7077587 133.70227599 88.80433933 130.9609375 88.94140625 C130.9609375 89.93140625 130.9609375 90.92140625 130.9609375 91.94140625 C130.25710938 91.91820312 129.55328125 91.895 128.828125 91.87109375 C120.70230221 91.72258002 112.9704859 92.61438048 104.9609375 93.94140625 C104.9609375 92.95140625 104.9609375 91.96140625 104.9609375 90.94140625 C106.1365625 90.98265625 107.3121875 91.02390625 108.5234375 91.06640625 C112.64776455 91.05917059 116.0283651 90.25226372 119.9609375 88.94140625 C120.69570313 88.71195312 121.43046875 88.4825 122.1875 88.24609375 C130.83913587 85.49724623 137.64108587 81.25044437 144.9609375 75.94140625 C145.9096875 75.28140625 146.8584375 74.62140625 147.8359375 73.94140625 C152.07836861 69.94852991 154.1692608 65.96897313 154.421875 60.19921875 C154.41398947 58.48805963 154.38495564 56.77688131 154.3359375 55.06640625 C154.33464844 54.21949219 154.33335937 53.37257812 154.33203125 52.5 C154.24201001 45.96845895 154.11552752 38.94158924 150.19921875 33.48828125 C149.56371094 32.8953125 148.92820312 32.30234375 148.2734375 31.69140625 C146.32421875 29.86328125 146.32421875 29.86328125 144.9609375 27.94140625 C145.17783798 24.57188255 145.55204766 23.35029609 147.9609375 20.94140625 C148.12774859 17.85792799 148.12774859 17.85792799 147.9609375 14.94140625 C144.52863302 15.20534126 144.52863302 15.20534126 140.9609375 15.94140625 C140.3009375 16.93140625 139.6409375 17.92140625 138.9609375 18.94140625 C139.9509375 20.26140625 140.9409375 21.58140625 141.9609375 22.94140625 C139.98074007 22.46651727 138.00180115 21.98637766 136.0234375 21.50390625 C134.92128906 21.23707031 133.81914063 20.97023437 132.68359375 20.6953125 C129.9609375 19.94140625 129.9609375 19.94140625 128.9609375 18.94140625 C126.84932125 18.82258423 124.73373879 18.77395041 122.61889648 18.75195312 C121.9550444 18.74365982 121.29119232 18.73536652 120.60722351 18.7268219 C119.15639623 18.70936431 117.70553984 18.69421335 116.25466728 18.68104553 C113.93338348 18.65994125 111.61223453 18.63290146 109.29103088 18.60437012 C104.32688742 18.54453983 99.36267401 18.49282229 94.3984375 18.44140625 C87.93874265 18.37328519 81.47910929 18.3011003 75.01953125 18.22265625 C74.23072948 18.21324949 73.44192772 18.20384274 72.62922287 18.19415092 C62.01068707 18.0633375 51.41433421 17.77866786 40.80577087 17.27833557 C32.51860461 16.89326657 24.25556347 16.82450154 15.9609375 16.87890625 C14.57682463 16.88395776 13.19270987 16.88851389 11.80859375 16.89257812 C8.52598873 16.90405576 5.24349192 16.92027253 1.9609375 16.94140625 C1.9906665 16.25578613 2.02039551 15.57016602 2.05102539 14.86376953 C2.07414795 13.96384277 2.09727051 13.06391602 2.12109375 12.13671875 C2.15082275 11.24484863 2.18055176 10.35297852 2.21118164 9.43408203 C1.926759 6.60095503 1.47625235 5.71091462 -0.6015625 3.81640625 C-5.49169665 1.14906035 -8.95431876 0.32572985 -13.5390625 3.87890625 Z " fill="#1A1A1A" transform="translate(609.0390625,155.05859375)"/>
<path d="M0 0 C1 1 1 1 1.25 4.875 C1.2225573 8.70325694 1.2225573 8.70325694 -0.5 11 C-0.995 11.33 -1.49 11.66 -2 12 C-0.91012617 14.45221612 0.1821977 16.20714144 1.96875 18.23828125 C8.36988997 26.94136963 7.64795324 40.22456116 6.7890625 50.53125 C5.81492894 56.85229444 2.75716296 60.84459783 -2 65 C-5.89906039 67.83789289 -9.89729142 70.46696482 -14 73 C-13.05898438 73.29390625 -12.11796875 73.5878125 -11.1484375 73.890625 C-7.68793244 75.10995929 -6.14158251 76.0347319 -4 79 C-3.47223913 82.54353726 -3.76752625 84.48855774 -5.25 87.75 C-7.1312918 90.16880375 -8.09792427 91.08791905 -11 92 C-14.0625 92.3125 -14.0625 92.3125 -17 92 C-17.474375 91.484375 -17.94875 90.96875 -18.4375 90.4375 C-18.953125 89.963125 -19.46875 89.48875 -20 89 C-23.50346762 89.26949751 -26.77043375 89.94598441 -30.1875 90.75 C-36.71761824 91.17820447 -43.53369729 89.64420181 -49 86 C-49.2475 86.70125 -49.495 87.4025 -49.75 88.125 C-51.98481124 93.26506586 -55.29905163 97.80559185 -59 102 C-59.66 102 -60.32 102 -61 102 C-61 105.63 -61 109.26 -61 113 C-63.4178712 113.10826289 -65.83087556 113.18739789 -68.25 113.25 C-68.93191406 113.28351563 -69.61382813 113.31703125 -70.31640625 113.3515625 C-73.70027581 113.41726871 -75.64104998 113.25310578 -78.4375 111.28125 C-80.16727873 108.75577305 -80.57179947 107.27940905 -80.75 104.25 C-80.80671875 103.45078125 -80.8634375 102.6515625 -80.921875 101.828125 C-80.96054687 100.92320312 -80.96054687 100.92320312 -81 100 C-79.02 99.01 -79.02 99.01 -77 98 C-77.20625 99.0725 -77.4125 100.145 -77.625 101.25 C-78.13086111 105.56223487 -78.13086111 105.56223487 -76 109 C-72.89069059 109.70672206 -72.89069059 109.70672206 -69.375 109.75 C-67.59222656 109.83507812 -67.59222656 109.83507812 -65.7734375 109.921875 C-64.85820313 109.94765625 -63.94296875 109.9734375 -63 110 C-63.165 108.865625 -63.33 107.73125 -63.5 106.5625 C-63.53793149 102.28382846 -62.0371287 100.41739709 -59.1875 97.3125 C-58.47980469 96.60738281 -57.77210938 95.90226562 -57.04296875 95.17578125 C-53.98031852 91.91402948 -52.007243 88.30330443 -50.3125 84.1875 C-49.879375 83.135625 -49.44625 82.08375 -49 81 C-48.01 81 -47.02 81 -46 81 C-45.7215625 81.928125 -45.7215625 81.928125 -45.4375 82.875 C-43.22732009 86.14222247 -40.7823039 86.25594022 -37 87 C-32.08059803 87.34522119 -28.61448099 86.60503687 -24 85 C-21.25 84.6875 -21.25 84.6875 -19 85 C-18.01 86.485 -18.01 86.485 -17 88 C-13.8694571 88.39964378 -11.86916239 88.52149743 -9.125 86.875 C-7.47850257 84.13083761 -7.60035622 82.1305429 -8 79 C-10.90092502 77.06604999 -11.89674737 76.69868059 -15.1875 76.375 C-16.445625 76.25125 -17.70375 76.1275 -19 76 C-19 76.99 -19 77.98 -19 79 C-22.02038089 79.33794471 -25.04119756 79.67048433 -28.0625 80 C-28.91005859 80.09539062 -29.75761719 80.19078125 -30.63085938 80.2890625 C-35.45472589 80.81056158 -40.14836264 81.10532727 -45 81 C-45 80.01 -45 79.02 -45 78 C-44.03578125 77.87882812 -43.0715625 77.75765625 -42.078125 77.6328125 C-40.81484375 77.46523437 -39.5515625 77.29765625 -38.25 77.125 C-36.99703125 76.96257812 -35.7440625 76.80015625 -34.453125 76.6328125 C-31.43395133 76.07952502 -29.62536467 75.45303202 -27 74 C-25.31566672 73.44856512 -23.62783844 72.9077429 -21.9375 72.375 C-12.62172964 69.04526682 -4.5031029 62.70831293 1.60546875 54.96484375 C3.60632435 50.71092387 3.39830739 46.89046387 3.3125 42.25 C3.31733398 40.96609375 3.31733398 40.96609375 3.32226562 39.65625 C3.26743176 33.07618663 3.18809484 26.04683715 -0.76171875 20.546875 C-1.39722656 19.95390625 -2.03273438 19.3609375 -2.6875 18.75 C-4.63671875 16.921875 -4.63671875 16.921875 -6 15 C-5.78309952 11.6304763 -5.40888984 10.40888984 -3 8 C-2.60235737 6.01178687 -2.26224651 4.01055661 -2 2 C-4.31 2.66 -6.62 3.32 -9 4 C-9.15811388 7.05270463 -9.15811388 7.05270463 -8 10 C-15.47089334 9.24024813 -15.47089334 9.24024813 -18.20280457 7.99978638 C-21.57808353 6.79337874 -24.41008911 6.6797455 -27.9934082 6.58935547 C-28.67688828 6.56955627 -29.36036835 6.54975708 -30.06455994 6.52935791 C-32.3098291 6.46649479 -34.55518272 6.41676128 -36.80078125 6.3671875 C-38.36307395 6.32601652 -39.92534517 6.28402275 -41.4875946 6.24124146 C-45.58910672 6.13112856 -49.69081438 6.03216666 -53.79266357 5.93554688 C-57.98239437 5.83487562 -62.17184302 5.72362982 -66.36132812 5.61328125 C-74.57397982 5.39852057 -82.78686837 5.19554279 -91 5 C-91 4.67 -91 4.34 -91 4 C-81.82910742 3.97681556 -72.65822496 3.95905378 -63.48730946 3.94818783 C-59.2287524 3.94297236 -54.97021542 3.93589896 -50.71166992 3.92456055 C-46.60088084 3.9136842 -42.49011106 3.90771309 -38.3793087 3.90512276 C-36.81205631 3.90327707 -35.24480497 3.89967293 -33.67756081 3.89426994 C-31.4800858 3.88699652 -29.28269021 3.88601172 -27.08520508 3.88647461 C-25.83500076 3.884254 -24.58479645 3.88203339 -23.29670715 3.87974548 C-20.39576466 3.98556363 -17.81545765 4.32540867 -15 5 C-14.443125 4.071875 -14.443125 4.071875 -13.875 3.125 C-9.96819189 -1.30271585 -5.45986756 -1.39671031 0 0 Z " fill="#0F0F0F" transform="translate(759,168)"/>
<path d="M0 0 C1.4537075 -0.0100985 1.4537075 -0.0100985 2.93678284 -0.020401 C3.81543503 -0.02132248 4.69408722 -0.02224396 5.59936523 -0.02319336 C6.72350075 -0.02687172 6.72350075 -0.02687172 7.87034607 -0.03062439 C10.00540152 0.09356619 11.88864746 0.50447762 13.94140625 1.08984375 C13.94140625 2.07984375 13.94140625 3.06984375 13.94140625 4.08984375 C11.30140625 4.41984375 8.66140625 4.74984375 5.94140625 5.08984375 C3.30140625 11.68984375 0.66140625 18.28984375 -2.05859375 25.08984375 C-6.01859375 25.08984375 -9.97859375 25.08984375 -14.05859375 25.08984375 C-13.72859375 23.76984375 -13.39859375 22.44984375 -13.05859375 21.08984375 C-9.84408106 19.4825874 -6.62246839 20.0323619 -3.05859375 20.08984375 C-2.87296875 19.22552734 -2.87296875 19.22552734 -2.68359375 18.34375 C-2.04374572 16.03629805 -1.16831466 14.14478917 -0.05859375 12.02734375 C1.161141 9.69101359 2.10242448 7.60678905 2.94140625 5.08984375 C-29.39859375 5.08984375 -61.73859375 5.08984375 -95.05859375 5.08984375 C-95.38859375 4.42984375 -95.71859375 3.76984375 -96.05859375 3.08984375 C-95.34832031 3.02925781 -94.63804687 2.96867188 -93.90625 2.90625 C-92.52759766 2.78056641 -92.52759766 2.78056641 -91.12109375 2.65234375 C-90.20457031 2.57113281 -89.28804687 2.48992187 -88.34375 2.40625 C-86.09699643 2.32939399 -86.09699643 2.32939399 -85.05859375 1.08984375 C-82.977749 0.96580294 -80.89270936 0.91182403 -78.80834961 0.88452148 C-77.82720184 0.86967209 -77.82720184 0.86967209 -76.82623291 0.85452271 C-74.6420053 0.82271519 -72.45775749 0.79802012 -70.2734375 0.7734375 C-68.74051909 0.75282956 -67.20760588 0.73183219 -65.67469788 0.71046448 C-62.438843 0.66636515 -59.2029691 0.62550521 -55.96704102 0.5871582 C-51.89371499 0.53885395 -47.82048732 0.48509938 -43.74725914 0.42920494 C-29.16560296 0.22955953 -14.58300864 0.05323324 0 0 Z " fill="#212121" transform="translate(695.05859375,243.91015625)"/>
<path d="M0 0 C1.17029393 3.51088179 0.76204861 4.13060123 -0.4375 7.5 C-4.0809931 20.41472906 -3.39012688 32.54285926 2.98046875 44.3125 C5.11089653 47.14757603 6.93126776 48.31244839 10 50 C10.66 50.99 11.32 51.98 12 53 C17.71932539 55.20956855 23.35664921 55.41486261 29.4375 55.625 C30.82098633 55.68300781 30.82098633 55.68300781 32.23242188 55.7421875 C34.48809143 55.83568676 36.74376916 55.9214391 39 56 C39.33 56.66 39.66 57.32 40 58 C35.65961508 58.59758371 31.3180387 59.18527477 26.97509766 59.76391602 C25.49849553 59.96206001 24.02225016 60.16288207 22.54638672 60.36645508 C20.42243613 60.65894524 18.29738024 60.94171579 16.171875 61.22265625 C14.8940918 61.39547119 13.61630859 61.56828613 12.29980469 61.74633789 C7.66918802 62.10230199 5.85247412 61.56831608 2 59 C-1.12521833 58.83300768 -1.12521833 58.83300768 -4 59 C-5.30433153 66.27342956 -5.30433153 66.27342956 -3.4375 73.1875 C-0.41178651 75.43738952 1.31226332 75.41906099 5 75 C6.4606285 72.35261084 7 71.10551666 7 68 C8.64666203 68.1135629 10.29236082 68.24117381 11.9375 68.375 C12.85402344 68.44460938 13.77054688 68.51421875 14.71484375 68.5859375 C15.46894531 68.72257812 16.22304688 68.85921875 17 69 C17.495 69.99 17.495 69.99 18 71 C15.36 71 12.72 71 10 71 C10.12375 72.1446875 10.12375 72.1446875 10.25 73.3125 C10 76 10 76 8.4375 77.8125 C4.97857 79.49761974 2.81696189 79.51755415 -1 79 C-3.92821345 77.82073894 -6.04452995 76.50091274 -8 74 C-8.7008011 70.90141663 -8.407078 68.12807303 -8 65 C-7.9175 63.72125 -7.835 62.4425 -7.75 61.125 C-7 58 -7 58 -5.375 56 C-1.95394797 54.55955704 0.39719695 55.2672265 4 56 C5.9490625 56.2784375 5.9490625 56.2784375 7.9375 56.5625 C8.948125 56.706875 9.95875 56.85125 11 57 C10.34773437 56.56171875 9.69546875 56.1234375 9.0234375 55.671875 C2.19861525 50.71934912 -3.30213416 45.53111112 -5 37 C-6.01942538 26.36728368 -6.96067954 13.16077069 -3 3 C-1.42773438 1.25512695 -1.42773438 1.25512695 0 0 Z " fill="#0F0F0F" transform="translate(527,189)"/>
<path d="M0 0 C0.99 0.495 0.99 0.495 2 1 C2 3 2 3 0.5 4.625 C0.005 5.07875 -0.49 5.5325 -1 6 C-0.01 7.98 -0.01 7.98 1 10 C-6.47089334 9.24024813 -6.47089334 9.24024813 -9.20280457 7.99978638 C-12.57808353 6.79337874 -15.41008911 6.6797455 -18.9934082 6.58935547 C-19.67688828 6.56955627 -20.36036835 6.54975708 -21.06455994 6.52935791 C-23.3098291 6.46649479 -25.55518272 6.41676128 -27.80078125 6.3671875 C-29.36307395 6.32601652 -30.92534517 6.28402275 -32.4875946 6.24124146 C-36.58910672 6.13112856 -40.69081438 6.03216666 -44.79266357 5.93554688 C-48.98239437 5.83487562 -53.17184302 5.72362982 -57.36132812 5.61328125 C-65.57397982 5.39852057 -73.78686837 5.19554279 -82 5 C-82 4.67 -82 4.34 -82 4 C-72.82910742 3.97681556 -63.65822496 3.95905378 -54.48730946 3.94818783 C-50.2287524 3.94297236 -45.97021542 3.93589896 -41.71166992 3.92456055 C-37.60088084 3.9136842 -33.49011106 3.90771309 -29.3793087 3.90512276 C-27.81205631 3.90327707 -26.24480497 3.89967293 -24.67756081 3.89426994 C-22.4800858 3.88699652 -20.28269021 3.88601172 -18.08520508 3.88647461 C-16.83500076 3.884254 -15.58479645 3.88203339 -14.29670715 3.87974548 C-11.39576466 3.98556363 -8.81545765 4.32540867 -6 5 C-5.566875 4.360625 -5.13375 3.72125 -4.6875 3.0625 C-3 1 -3 1 0 0 Z " fill="#040404" transform="translate(750,168)"/>
<path d="M0 0 C0.66 0.33 1.32 0.66 2 1 C2 1.66 2 2.32 2 3 C0.77023437 3.05607422 0.77023437 3.05607422 -0.484375 3.11328125 C-1.56203125 3.17902344 -2.6396875 3.24476563 -3.75 3.3125 C-4.81734375 3.37050781 -5.8846875 3.42851562 -6.984375 3.48828125 C-10.1821068 4.03090154 -11.62598691 4.85071145 -14 7 C-13.59573665 12.86181863 -12.7971314 16.2823519 -9 21 C-5.81175432 22.59412284 -2.37103338 22.10174735 1.125 22.0625 C2.25615234 22.05573242 2.25615234 22.05573242 3.41015625 22.04882812 C5.27347127 22.03703499 7.13674555 22.01909942 9 22 C9 22.99 9 23.98 9 25 C-6.24276957 26.7547155 -6.24276957 26.7547155 -12 23 C-16.02388997 18.86735625 -18.00420121 14.70492677 -18.625 9 C-18.54597841 6.39228756 -18.30542117 5.34525872 -16.5625 3.375 C-11.34840349 -0.32532655 -6.24564894 -0.8126309 0 0 Z " fill="#161616" transform="translate(561,193)"/>
<path d="M0 0 C0.99 0.33 1.98 0.66 3 1 C1.35 4.96 -0.3 8.92 -2 13 C-5.96 13 -9.92 13 -14 13 C-13.67 11.68 -13.34 10.36 -13 9 C-9.78548731 7.39274365 -6.56387464 7.94251815 -3 8 C-2.87625 7.4225 -2.7525 6.845 -2.625 6.25 C-1.99351176 3.97664233 -1.11141809 2.0746471 0 0 Z " fill="#272727" transform="translate(695,256)"/>
<path d="M0 0 C0.33 0.99 0.66 1.98 1 3 C-4.27030509 8.9178511 -10.21335234 12.96237418 -17 17 C-17 14 -17 14 -14.89453125 11.61328125 C-11.93742685 8.94350683 -8.89514242 6.54917079 -5.6875 4.1875 C-5.13771484 3.78080078 -4.58792969 3.37410156 -4.02148438 2.95507812 C-2.68374453 1.96631389 -1.34226377 0.98261415 0 0 Z " fill="#1D1D1D" transform="translate(762,224)"/>
<path d="M0 0 C0.99 0 1.98 0 3 0 C3.18304687 0.62390625 3.36609375 1.2478125 3.5546875 1.890625 C4.91662203 4.34008964 4.91662203 4.34008964 8.2578125 5.046875 C9.53398438 5.27890625 10.81015625 5.5109375 12.125 5.75 C13.40632812 5.99234375 14.68765625 6.2346875 16.0078125 6.484375 C16.99523437 6.65453125 17.98265625 6.8246875 19 7 C19 7.99 19 8.98 19 10 C12.3259584 9.55197406 4.95319619 8.95319619 0 4 C0 2.68 0 1.36 0 0 Z " fill="#0A0A0A" transform="translate(710,249)"/>
<path d="M0 0 C12.87 0.495 12.87 0.495 26 1 C26 1.66 26 2.32 26 3 C17.75 3 9.5 3 1 3 C0.67 2.01 0.34 1.02 0 0 Z " fill="#010101" transform="translate(549,228)"/>
<path d="M0 0 C0.99 0 1.98 0 3 0 C3.17942163 3.94727588 3.09350689 6.5980513 1 10 C-1.31 9.67 -3.62 9.34 -6 9 C-6 6.36 -6 3.72 -6 1 C-5.34 1 -4.68 1 -4 1 C-3.67 2.65 -3.34 4.3 -3 6 C-2.34 6 -1.68 6 -1 6 C-0.67 4.02 -0.34 2.04 0 0 Z " fill="#101010" transform="translate(624,207)"/>
<path d="M0 0 C0.309375 0.639375 0.61875 1.27875 0.9375 1.9375 C1.8345163 3.93610821 1.8345163 3.93610821 3 5 C4.46282033 4.90966647 5.92182192 4.75296509 7.375 4.5625 C9.9721428 4.22833993 12.37411693 4 15 4 C14.26953125 5.94140625 14.26953125 5.94140625 13 8 C8.88038691 9.48111826 5.00370805 9.36870908 0.9375 7.875 C-1 6 -1 6 -1.375 3.375 C-1 1 -1 1 0 0 Z " fill="#0E0E0E" transform="translate(600,277)"/>
<path d="M0 0 C0.66 0 1.32 0 2 0 C2.33 2.31 2.66 4.62 3 7 C3.66 7 4.32 7 5 7 C5 5.68 5 4.36 5 3 C5.99 3 6.98 3 8 3 C8.04254356 4.99954746 8.04080783 7.00041636 8 9 C7 10 7 10 4.5625 10.25 C3.716875 10.1675 2.87125 10.085 2 10 C-0.4294516 6.3558226 -0.16179575 4.28758728 0 0 Z " fill="#0D0D0D" transform="translate(692,192)"/>
<path d="M0 0 C0.66 0 1.32 0 2 0 C2.25 7.625 2.25 7.625 0 11 C-4.875 10.125 -4.875 10.125 -6 9 C-6.04080783 7.00041636 -6.04254356 4.99954746 -6 3 C-5.34 3 -4.68 3 -4 3 C-3.34 4.32 -2.68 5.64 -2 7 C-1.34 4.69 -0.68 2.38 0 0 Z " fill="#0C0C0C" transform="translate(593,221)"/>
<path d="M0 0 C0.66 0.33 1.32 0.66 2 1 C-6.82109942 16.33840655 -6.82109942 16.33840655 -11.1484375 17.65234375 C-11.75945313 17.76707031 -12.37046875 17.88179688 -13 18 C-12.64808594 17.53851563 -12.29617188 17.07703125 -11.93359375 16.6015625 C-7.81655641 11.16234345 -3.88391248 5.60754228 0 0 Z " fill="#1F1F1F" transform="translate(709,253)"/>
<path d="M0 0 C0.66 0 1.32 0 2 0 C2 1.65 2 3.3 2 5 C2.66 5 3.32 5 4 5 C4.33 3.68 4.66 2.36 5 1 C5.66 1 6.32 1 7 1 C6.67 3.31 6.34 5.62 6 8 C4.34385343 8.38218767 2.67542976 8.71395102 1 9 C0 8 0 8 -0.09765625 6.15234375 C-0.06510417 4.1015625 -0.03255208 2.05078125 0 0 Z " fill="#0C0C0C" transform="translate(753,209)"/>
<path d="M0 0 C0.99 0 1.98 0 3 0 C3.36253776 5.43806647 3.36253776 5.43806647 1.75 7.9375 C0 9 0 9 -2.1875 8.6875 C-2.785625 8.460625 -3.38375 8.23375 -4 8 C-4 6.02 -4 4.04 -4 2 C-3.34 2 -2.68 2 -2 2 C-1.67 2.99 -1.34 3.98 -1 5 C-0.67 3.35 -0.34 1.7 0 0 Z " fill="#171717" transform="translate(710,199)"/>
<path d="M0 0 C0.66 0 1.32 0 2 0 C1.125 6.875 1.125 6.875 0 8 C-1.66617115 8.04063832 -3.33388095 8.042721 -5 8 C-5.33 6.02 -5.66 4.04 -6 2 C-5.01 2 -4.02 2 -3 2 C-3 2.99 -3 3.98 -3 5 C-2.34 5 -1.68 5 -1 5 C-0.67 3.35 -0.34 1.7 0 0 Z " fill="#090909" transform="translate(533,206)"/>
<path d="M0 0 C1.62490954 -0.02698189 3.24994633 -0.04638757 4.875 -0.0625 C5.77992188 -0.07410156 6.68484375 -0.08570313 7.6171875 -0.09765625 C10 0 10 0 12 1 C12 1.66 12 2.32 12 3 C5.565 3.495 5.565 3.495 -1 4 C-0.67 2.68 -0.34 1.36 0 0 Z " fill="#383838" transform="translate(551,193)"/>
<path d="M0 0 C0.33 0 0.66 0 1 0 C1 3.3 1 6.6 1 10 C-2.3 10.66 -5.6 11.32 -9 12 C-8.67 10.68 -8.34 9.36 -8 8 C-5.69 7.34 -3.38 6.68 -1 6 C-0.67 4.02 -0.34 2.04 0 0 Z " fill="#0A0A0A" transform="translate(549,166)"/>
<path d="M0 0 C-0.33 0.99 -0.66 1.98 -1 3 C-6.15171623 3.09038099 -10.91913204 2.84681133 -16 2 C-16 1.67 -16 1.34 -16 1 C-10.62915894 0.31798844 -5.41499441 -0.11521265 0 0 Z " fill="#202020" transform="translate(553,256)"/>
<path d="M0 0 C0.66 0.33 1.32 0.66 2 1 C0.5361389 5.39158329 -1.97831338 5.87947433 -6 8 C-4.55746343 4.63408134 -2.66735273 2.48952921 0 0 Z " fill="#171717" transform="translate(750,233)"/>
<path d="M0 0 C5.75 -0.125 5.75 -0.125 8 1 C8 1.66 8 2.32 8 3 C5.03 2.67 2.06 2.34 -1 2 C-0.67 1.34 -0.34 0.68 0 0 Z " fill="#111111" transform="translate(555,193)"/>
</svg>
