<?xml version="1.0" encoding="UTF-8"?>
<svg version="1.1" xmlns="http://www.w3.org/2000/svg" width="800" height="300">
<path d="M0 0 C264 0 528 0 800 0 C800 99 800 198 800 300 C536 300 272 300 0 300 C0 201 0 102 0 0 Z " fill="#FEFEFE" transform="translate(0,0)"/>
<path d="M0 0 C3.20957234 1.43213722 5.09317544 3.05589089 7 6 C7.28076172 8.54150391 7.28076172 8.54150391 7.1796875 11.2265625 C7.14077393 12.56968506 7.14077393 12.56968506 7.10107422 13.93994141 C7.06771973 14.61976074 7.03436523 15.29958008 7 16 C7.86085205 15.99476318 8.7217041 15.98952637 9.60864258 15.98413086 C32.95665876 15.86518501 56.29783559 16.06860985 79.64312363 16.40571976 C81.85652095 16.43723687 84.06993349 16.4673277 86.28335571 16.49703979 C113.44419538 16.86536718 113.44419538 16.86536718 124.7578125 17.47265625 C125.45993866 17.50975204 126.16206482 17.54684784 126.88546753 17.58506775 C129.4658045 17.74440439 131.82880572 17.94963069 134.31591797 18.68139648 C134.87166504 18.78653564 135.42741211 18.8916748 136 19 C136.721875 18.21625 137.44375 17.4325 138.1875 16.625 C141.55896784 13.47829669 143.47831327 13.26398084 147.9140625 12.84765625 C150 13 150 13 153 15 C153.51842494 18.36976212 153.73797406 20.82385384 151.875 23.79296875 C150.65205959 25.25563328 149.33139628 26.63531882 148 28 C148.66 28 149.32 28 150 28 C158.67339569 37.32390037 158.41335109 47.83641746 158.07568359 59.98974609 C157.8219122 66.73024176 157.17788161 71.22689185 152.4375 76.25 C141.59756098 86 141.59756098 86 137 86 C137 86.66 137 87.32 137 88 C137.721875 87.9175 138.44375 87.835 139.1875 87.75 C143.08396638 88.09635257 144.4600728 89.02465671 147 92 C147.4192717 95.04496069 147.29355454 97.94703274 147 101 C146.34 101 145.68 101 145 101 C144.67 101.99 144.34 102.98 144 104 C141.27578219 106.09555216 139.86310689 105.9905591 136.375 105.75 C133 105 133 105 131 103 C129.10362476 103.24665337 129.10362476 103.24665337 127 103.9375 C118.54474057 106.02421467 110.97356076 104.06230957 103 101 C102.43732422 101.85271484 102.43732422 101.85271484 101.86328125 102.72265625 C101.35152344 103.49480469 100.83976563 104.26695312 100.3125 105.0625 C99.76851562 105.88878906 99.22453125 106.71507812 98.6640625 107.56640625 C97.25013052 109.63419879 95.75580428 111.55108387 94.1875 113.5 C91.68714176 116.90304348 91.33783224 120.02424933 91.140625 124.1796875 C91 126 91 126 90 127 C87.54507499 127.18063984 85.14495751 127.27801743 82.6875 127.3125 C81.67139648 127.35600586 81.67139648 127.35600586 80.63476562 127.40039062 C77.24380163 127.44348205 75.34887177 127.25531327 72.58203125 125.23046875 C70.03428507 121.63846117 70 119.41277603 70 115 C71.3125 112.625 71.3125 112.625 74 111 C75.64171172 110.74296433 77.28839436 110.51679219 78.9375 110.3125 C82.13698812 109.79340901 83.5517851 109.50500231 85.7265625 107.0546875 C88.03069891 102.97191947 89.06808823 99.65955886 90 95 C41.49 95.495 41.49 95.495 -8 96 C-6.02 98.97 -4.04 101.94 -2 105 C-1.67 105.99 -1.34 106.98 -1 108 C2.02282643 109.03547047 2.02282643 109.03547047 5.5625 109.6875 C6.76003906 109.93886719 7.95757813 110.19023437 9.19140625 110.44921875 C10.11824219 110.63097656 11.04507813 110.81273437 12 111 C12 111.66 12 112.32 12 113 C12.66 113 13.32 113 14 113 C14.5862069 122.96551724 14.5862069 122.96551724 11 127 C7.24656256 130.05178135 4.14647211 131.84454615 -0.6875 132.5 C-4.2949543 131.9554786 -6.29071982 131.46298198 -9 129 C-9.608676 125.42402849 -9.44405832 123.70309234 -7.5 120.625 C-7.005 120.08875 -6.51 119.5525 -6 119 C-7.36125 118.13375 -7.36125 118.13375 -8.75 117.25 C-12 115 -12 115 -13.8125 113.0625 C-16.55378882 110.47785625 -19.54270679 108.96201421 -22.87890625 107.24609375 C-25 106 -25 106 -26.25170898 104.4152832 C-28.86988439 102.29580787 -30.7924858 102.82893251 -34.09375 103.109375 C-35.28871094 103.20476562 -36.48367188 103.30015625 -37.71484375 103.3984375 C-38.96394531 103.51445312 -40.21304688 103.63046875 -41.5 103.75 C-42.74910156 103.85054688 -43.99820313 103.95109375 -45.28515625 104.0546875 C-51.74190567 104.5141573 -51.74190567 104.5141573 -58 106 C-60.06145107 106.068991 -62.12501401 106.08467727 -64.1875 106.0625 C-65.27417969 106.05347656 -66.36085938 106.04445313 -67.48046875 106.03515625 C-68.31191406 106.02355469 -69.14335938 106.01195312 -70 106 C-70.13148438 106.78761719 -70.26296875 107.57523437 -70.3984375 108.38671875 C-71 111 -71 111 -72.625 112.8125 C-76.03215469 114.51607735 -78.23207391 114.51971394 -82 114 C-84.97046873 112.20976215 -87.42502414 110.14995172 -89 107 C-89.04003069 101.57984419 -88.83046319 96.59941058 -86.3125 91.75 C-84 90 -84 90 -80.9375 89.5625 C-78 90 -78 90 -75 92 C-71.87478167 92.16699232 -71.87478167 92.16699232 -69 92 C-69.64066406 91.58492188 -70.28132812 91.16984375 -70.94140625 90.7421875 C-78.45267101 85.39139084 -83.79881737 79.12374249 -86 70 C-87.81666829 55.97363085 -87.11856304 40.53667688 -78.53515625 28.83203125 C-73.59304707 22.93419612 -66.69244239 18.75048218 -59 18 C-59.0825 17.01 -59.165 16.02 -59.25 15 C-59.27825307 10.38533109 -57.35366383 6.87551072 -55 3 C-54 2 -54 2 -51.3125 1.5625 C-47.25808778 2.09798841 -45.82265133 3.31506886 -43.125 6.265625 C-41.44046611 8.86261474 -41.57244318 11.00710226 -42 14 C-41.154375 13.505 -40.30875 13.01 -39.4375 12.5 C-33.49222339 9.91882024 -26.33467495 10.44381987 -20 11 C-17.54296875 12.01953125 -17.54296875 12.01953125 -16 13 C-16.0825 11.948125 -16.165 10.89625 -16.25 9.8125 C-15.96269651 5.43112175 -15.05154419 4.05154419 -12 1 C-8.22414664 -0.88792668 -4.10285645 -0.61756856 0 0 Z " fill="#FCFCFC" transform="translate(600,154)"/>
<path d="M0 0 C3.20957234 1.43213722 5.09317544 3.05589089 7 6 C7.28076172 8.54150391 7.28076172 8.54150391 7.1796875 11.2265625 C7.14077393 12.56968506 7.14077393 12.56968506 7.10107422 13.93994141 C7.06771973 14.61976074 7.03436523 15.29958008 7 16 C7.86085205 15.99476318 8.7217041 15.98952637 9.60864258 15.98413086 C32.95665876 15.86518501 56.29783559 16.06860985 79.64312363 16.40571976 C81.85652095 16.43723687 84.06993349 16.4673277 86.28335571 16.49703979 C113.44419538 16.86536718 113.44419538 16.86536718 124.7578125 17.47265625 C125.45993866 17.50975204 126.16206482 17.54684784 126.88546753 17.58506775 C129.4658045 17.74440439 131.82880572 17.94963069 134.31591797 18.68139648 C134.87166504 18.78653564 135.42741211 18.8916748 136 19 C136.721875 18.21625 137.44375 17.4325 138.1875 16.625 C141.55896784 13.47829669 143.47831327 13.26398084 147.9140625 12.84765625 C150 13 150 13 153 15 C153.51842494 18.36976212 153.73797406 20.82385384 151.875 23.79296875 C150.65205959 25.25563328 149.33139628 26.63531882 148 28 C148.66 28 149.32 28 150 28 C158.67339569 37.32390037 158.41335109 47.83641746 158.07568359 59.98974609 C157.8219122 66.73024176 157.17788161 71.22689185 152.4375 76.25 C141.59756098 86 141.59756098 86 137 86 C137 86.66 137 87.32 137 88 C137.721875 87.9175 138.44375 87.835 139.1875 87.75 C143.08396638 88.09635257 144.4600728 89.02465671 147 92 C147.4192717 95.04496069 147.29355454 97.94703274 147 101 C146.34 101 145.68 101 145 101 C144.67 101.99 144.34 102.98 144 104 C141.27578219 106.09555216 139.86310689 105.9905591 136.375 105.75 C133 105 133 105 131 103 C129.10362476 103.24665337 129.10362476 103.24665337 127 103.9375 C118.54474057 106.02421467 110.97356076 104.06230957 103 101 C102.43732422 101.85271484 102.43732422 101.85271484 101.86328125 102.72265625 C101.35152344 103.49480469 100.83976563 104.26695312 100.3125 105.0625 C99.76851562 105.88878906 99.22453125 106.71507812 98.6640625 107.56640625 C97.25013052 109.63419879 95.75580428 111.55108387 94.1875 113.5 C91.68714176 116.90304348 91.33783224 120.02424933 91.140625 124.1796875 C91 126 91 126 90 127 C87.54507499 127.18063984 85.14495751 127.27801743 82.6875 127.3125 C81.67139648 127.35600586 81.67139648 127.35600586 80.63476562 127.40039062 C77.24380163 127.44348205 75.34887177 127.25531327 72.58203125 125.23046875 C70.03428507 121.63846117 70 119.41277603 70 115 C71.3125 112.625 71.3125 112.625 74 111 C75.64171172 110.74296433 77.28839436 110.51679219 78.9375 110.3125 C82.13698812 109.79340901 83.5517851 109.50500231 85.7265625 107.0546875 C88.03069891 102.97191947 89.06808823 99.65955886 90 95 C41.49 95.495 41.49 95.495 -8 96 C-6.02 98.97 -4.04 101.94 -2 105 C-1.67 105.99 -1.34 106.98 -1 108 C2.02282643 109.03547047 2.02282643 109.03547047 5.5625 109.6875 C6.76003906 109.93886719 7.95757813 110.19023437 9.19140625 110.44921875 C10.11824219 110.63097656 11.04507813 110.81273437 12 111 C12 111.66 12 112.32 12 113 C12.66 113 13.32 113 14 113 C14.5862069 122.96551724 14.5862069 122.96551724 11 127 C7.24656256 130.05178135 4.14647211 131.84454615 -0.6875 132.5 C-4.2949543 131.9554786 -6.29071982 131.46298198 -9 129 C-9.608676 125.42402849 -9.44405832 123.70309234 -7.5 120.625 C-7.005 120.08875 -6.51 119.5525 -6 119 C-7.36125 118.13375 -7.36125 118.13375 -8.75 117.25 C-12 115 -12 115 -13.8125 113.0625 C-16.55378882 110.47785625 -19.54270679 108.96201421 -22.87890625 107.24609375 C-25 106 -25 106 -26.25170898 104.4152832 C-28.86988439 102.29580787 -30.7924858 102.82893251 -34.09375 103.109375 C-35.28871094 103.20476562 -36.48367188 103.30015625 -37.71484375 103.3984375 C-38.96394531 103.51445312 -40.21304688 103.63046875 -41.5 103.75 C-42.74910156 103.85054688 -43.99820313 103.95109375 -45.28515625 104.0546875 C-51.74190567 104.5141573 -51.74190567 104.5141573 -58 106 C-60.06145107 106.068991 -62.12501401 106.08467727 -64.1875 106.0625 C-65.27417969 106.05347656 -66.36085938 106.04445313 -67.48046875 106.03515625 C-68.31191406 106.02355469 -69.14335938 106.01195312 -70 106 C-70.13148438 106.78761719 -70.26296875 107.57523437 -70.3984375 108.38671875 C-71 111 -71 111 -72.625 112.8125 C-76.03215469 114.51607735 -78.23207391 114.51971394 -82 114 C-84.97046873 112.20976215 -87.42502414 110.14995172 -89 107 C-89.04003069 101.57984419 -88.83046319 96.59941058 -86.3125 91.75 C-84 90 -84 90 -80.9375 89.5625 C-78 90 -78 90 -75 92 C-71.87478167 92.16699232 -71.87478167 92.16699232 -69 92 C-69.64066406 91.58492188 -70.28132812 91.16984375 -70.94140625 90.7421875 C-78.45267101 85.39139084 -83.79881737 79.12374249 -86 70 C-87.81666829 55.97363085 -87.11856304 40.53667688 -78.53515625 28.83203125 C-73.59304707 22.93419612 -66.69244239 18.75048218 -59 18 C-59.0825 17.01 -59.165 16.02 -59.25 15 C-59.27825307 10.38533109 -57.35366383 6.87551072 -55 3 C-54 2 -54 2 -51.3125 1.5625 C-47.25808778 2.09798841 -45.82265133 3.31506886 -43.125 6.265625 C-41.44046611 8.86261474 -41.57244318 11.00710226 -42 14 C-41.154375 13.505 -40.30875 13.01 -39.4375 12.5 C-33.49222339 9.91882024 -26.33467495 10.44381987 -20 11 C-17.54296875 12.01953125 -17.54296875 12.01953125 -16 13 C-16.0825 11.948125 -16.165 10.89625 -16.25 9.8125 C-15.96269651 5.43112175 -15.05154419 4.05154419 -12 1 C-8.22414664 -0.88792668 -4.10285645 -0.61756856 0 0 Z M-13 7 C-13.4192717 10.04496069 -13.29355454 12.94703274 -13 16 C-13.99257813 15.83886719 -14.98515625 15.67773438 -16.0078125 15.51171875 C-19.96071825 14.95028292 -23.88594906 14.80865328 -27.875 14.8125 C-28.92010742 14.8115332 -28.92010742 14.8115332 -29.98632812 14.81054688 C-35.27769701 14.86469111 -39.9283778 15.55096509 -45 17 C-44.896875 15.783125 -44.79375 14.56625 -44.6875 13.3125 C-44.65408479 9.54994773 -44.90669702 9.11196358 -47.5 6 C-48.325 5.34 -49.15 4.68 -50 4 C-52.93576279 5.012332 -53.97512741 5.96357942 -55.75 8.5625 C-57.30903894 12.84985708 -57.27038392 16.49360134 -57 21 C-57.639375 21.0825 -58.27875 21.165 -58.9375 21.25 C-66.39125747 23.07540999 -73.88103293 26.30697478 -78.25390625 32.88671875 C-80.51358226 37.02027243 -81.47968325 40.20316746 -81 45 C-81.66 45 -82.32 45 -83 45 C-83.02912348 48.72915017 -83.04684037 52.4582709 -83.0625 56.1875 C-83.07087891 57.24259766 -83.07925781 58.29769531 -83.08789062 59.38476562 C-83.09272461 60.91713867 -83.09272461 60.91713867 -83.09765625 62.48046875 C-83.10289307 63.41785889 -83.10812988 64.35524902 -83.11352539 65.32104492 C-83.00082657 67.98049477 -82.59376649 70.40920573 -82 73 C-81.34 73 -80.68 73 -80 73 C-79.9175 73.53625 -79.835 74.0725 -79.75 74.625 C-77.51576787 81.70006842 -72.21723693 86.27162532 -66 90 C-58.18355523 93.03824137 -49.239271 92.1977425 -41 92 C-41.7113208 92.08564209 -42.4226416 92.17128418 -43.15551758 92.25952148 C-46.37491063 92.64896207 -49.59370181 93.0431743 -52.8125 93.4375 C-53.93205078 93.57220703 -55.05160156 93.70691406 -56.20507812 93.84570312 C-57.27822266 93.97783203 -58.35136719 94.10996094 -59.45703125 94.24609375 C-60.44678955 94.36654053 -61.43654785 94.4869873 -62.45629883 94.61108398 C-65.11412371 94.94403366 -65.11412371 94.94403366 -68 96 C-72.30379794 96.39849981 -74.31312143 96.46766201 -77.9375 94 C-78.618125 93.34 -79.29875 92.68 -80 92 C-83.16115776 93.36983503 -83.9927092 93.9890638 -86 97 C-86.8476609 101.76474651 -86.65866879 105.05074203 -83.875 109.0625 C-80.54330259 111.30777434 -78.93672752 111.61237984 -75 111 C-74.01 110.01 -74.01 110.01 -73 109 C-73.32041397 106.39719432 -73.32041397 106.39719432 -74 104 C-57.67638054 102.22209187 -41.35126986 100.50417526 -25 99 C-24.86948242 99.63156006 -24.73896484 100.26312012 -24.60449219 100.91381836 C-23.80307486 103.67961442 -22.71553965 104.15825467 -20.25 105.5625 C-19.528125 105.9853125 -18.80625 106.408125 -18.0625 106.84375 C-17.381875 107.2253125 -16.70125 107.606875 -16 108 C-13.30214103 109.53287442 -11.22167444 110.77117477 -9.0625 113 C-6.61538491 115.37296009 -4.08665282 116.59697599 -1 118 C-1.804375 118.7425 -2.60875 119.485 -3.4375 120.25 C-5.76988591 122.75304829 -6.63534394 123.7180955 -7 127 C-4.22862355 128.88453599 -2.92132313 128.99438022 0.5 128.75 C4.56308369 127.99887767 4.56308369 127.99887767 8 126 C10.64025411 121.26575125 11.41092983 118.25892028 10 113 C9.09507812 112.92652344 9.09507812 112.92652344 8.171875 112.8515625 C6.97304688 112.73941406 6.97304688 112.73941406 5.75 112.625 C4.96109375 112.55539062 4.1721875 112.48578125 3.359375 112.4140625 C0.82346675 111.969019 -0.85285884 111.42225162 -3 110 C-4.03125 108.23046875 -4.03125 108.23046875 -5 106 C-6.14489576 104.09094033 -7.31319795 102.19579393 -8.5 100.3125 C-9.1084375 99.33925781 -9.716875 98.36601562 -10.34375 97.36328125 C-11.78368551 94.9099091 -11.78368551 94.9099091 -14 94 C-14 93.34 -14 92.68 -14 92 C-3.08839739 91.86784824 7.82322381 91.73735798 18.73486996 91.60884857 C23.80445752 91.54909345 28.87403766 91.48881767 33.94360352 91.42724609 C72.66268996 90.95783328 72.66268996 90.95783328 88.12890625 90.90625 C89.1232518 90.8997644 90.11759735 90.89327881 91.14207458 90.88659668 C92.02661819 90.88599243 92.9111618 90.88538818 93.82250977 90.88476562 C94.93977196 90.88168396 94.93977196 90.88168396 96.0796051 90.87854004 C98 91 98 91 101 92 C101.33 92.66 101.66 93.32 102 94 C99.03 94 96.06 94 93 94 C92.59007812 95.10859375 92.18015625 96.2171875 91.7578125 97.359375 C91.21365899 98.82296029 90.66938165 100.28649955 90.125 101.75 C89.85558594 102.47960937 89.58617187 103.20921875 89.30859375 103.9609375 C88.02634981 107.40110416 86.75382129 110.76479567 85 114 C84.21753906 113.98839844 83.43507813 113.97679687 82.62890625 113.96484375 C81.11103516 113.95130859 81.11103516 113.95130859 79.5625 113.9375 C78.55316406 113.92589844 77.54382813 113.91429687 76.50390625 113.90234375 C74.05978933 113.71387324 74.05978933 113.71387324 73 115 C72.58119043 119.05832662 72.58119043 119.05832662 74.12890625 122.68359375 C76.83394418 124.58672065 78.92291068 124.29280933 82.1875 124.1875 C83.81751953 124.14689453 83.81751953 124.14689453 85.48046875 124.10546875 C86.31191406 124.07066406 87.14335938 124.03585937 88 124 C88 122.865625 88 121.73125 88 120.5625 C88.60021565 115.43338445 91.46360821 112.73691201 94.9921875 109.17578125 C97.06663274 106.92779293 98.46915101 104.63743412 100 102 C100.66 101.34 101.32 100.68 102 100 C102.16687448 97.41645782 102.16687448 97.41645782 102 95 C102.99 95 103.98 95 105 95 C105.13728516 95.93585938 105.13728516 95.93585938 105.27734375 96.890625 C105.88084822 99.46196337 105.88084822 99.46196337 109.5625 100.75 C115.78585806 102.79099377 120.94468976 102.61851253 127 100 C129.625 99.6875 129.625 99.6875 132 100 C132.45375 100.515625 132.9075 101.03125 133.375 101.5625 C135.07544706 103.39301907 135.07544706 103.39301907 138.5 102.9375 C141.97336139 102.283069 141.97336139 102.283069 144 100.25 C145.18351258 98.01985732 145.18351258 98.01985732 144.9375 95.4375 C143.76080551 92.37809433 142.9343683 91.46718415 140 90 C136.33285151 89.74936268 136.33285151 89.74936268 133 90 C132.67 90.99 132.34 91.98 132 93 C131.46375 92.97679687 130.9275 92.95359375 130.375 92.9296875 C122.13802201 92.74002024 114.13780076 93.86918898 106 95 C106.33 94.34 106.66 93.68 107 93 C109.33744294 92.53193355 111.69739079 92.17330206 114.0625 91.875 C115.35285156 91.70742187 116.64320313 91.53984375 117.97265625 91.3671875 C118.97167969 91.24601562 119.97070312 91.12484375 121 91 C121.33 90.01 121.66 89.02 122 88 C122.81404297 88.32677734 122.81404297 88.32677734 123.64453125 88.66015625 C130.56690406 89.65890656 139.56109044 82.28205926 145.09765625 78.4375 C150.12509885 74.638529 154.10050504 70.51620755 155.6875 64.3125 C156.62682502 54.35565474 157.10551462 40.29233151 150.4375 32.125 C148.20114199 29.99612842 148.20114199 29.99612842 146 29 C145.375 26.9375 145.375 26.9375 145 25 C145.9590625 24.5359375 145.9590625 24.5359375 146.9375 24.0625 C148.93610821 23.1654837 148.93610821 23.1654837 150 22 C150.16666667 19.5 150.16666667 19.5 150 17 C149.67 16.67 149.34 16.34 149 16 C145.51944126 16.17567358 145.51944126 16.17567358 142 17 C141.34 17.99 140.68 18.98 140 20 C140.66 20 141.32 20 142 20 C142.33 21.32 142.66 22.64 143 24 C142.24628113 23.71791183 141.49256226 23.43582367 140.71600342 23.14518738 C131.75300325 20.05825919 123.44953856 19.41134179 114.078125 19.42578125 C112.56474233 19.41327624 111.05137394 19.39892605 109.5380249 19.38285828 C105.57587677 19.34513523 101.61397615 19.32971609 97.65167236 19.32006836 C91.37444685 19.30028702 85.0973578 19.24351528 78.82031441 19.19343376 C76.52246618 19.17583365 74.22461028 19.16093666 71.92674255 19.14613342 C62.02897753 19.07454904 52.15621689 18.79620047 42.26753235 18.34640503 C33.81649364 17.96616994 25.39684623 17.88164855 16.9375 17.9375 C15.55794444 17.94255332 14.17838696 17.94710909 12.79882812 17.95117188 C9.53249842 17.96263268 6.26627854 17.9788348 3 18 C3.16628906 16.89011719 3.33257813 15.78023437 3.50390625 14.63671875 C4.19285096 10.62515773 4.19285096 10.62515773 3 7 C0.19199824 4.70254401 -1.97953949 3.19911425 -5.5625 2.5 C-9.12608096 3.23099097 -10.62608799 4.21913164 -13 7 Z " fill="#121212" transform="translate(600,154)"/>
<path d="M0 0 C3.52343021 -0.04377963 7.04671952 -0.07491375 10.5703125 -0.10186768 C12.09507202 -0.12453453 12.09507202 -0.12453453 13.65063477 -0.1476593 C14.57416748 -0.15180344 15.4977002 -0.15594757 16.44921875 -0.16021729 C17.24013916 -0.16790634 18.03105957 -0.1755954 18.84594727 -0.18351746 C21.27845732 0.07976982 22.90024542 0.83781873 25.0078125 2.05047607 C25.0078125 2.71047607 25.0078125 3.37047607 25.0078125 4.05047607 C22.0378125 4.05047607 19.0678125 4.05047607 16.0078125 4.05047607 C15.76998047 5.06754639 15.76998047 5.06754639 15.52734375 6.10516357 C13.80268414 12.98474501 11.35918169 18.80062543 8.0078125 25.05047607 C4.3778125 25.05047607 0.7478125 25.05047607 -2.9921875 25.05047607 C-2.9921875 27.69047607 -2.9921875 30.33047607 -2.9921875 33.05047607 C3.9378125 33.54547607 3.9378125 33.54547607 11.0078125 34.05047607 C10.8428125 32.91610107 10.6778125 31.78172607 10.5078125 30.61297607 C10.46988101 26.33430453 11.9706838 24.46787316 14.8203125 21.36297607 C15.52800781 20.65785889 16.23570312 19.9527417 16.96484375 19.22625732 C19.0770934 16.97669125 20.48141119 14.72167837 22.0078125 12.05047607 C23.31819184 10.36570264 24.64604328 8.69399065 26.0078125 7.05047607 C26.5028125 8.53547607 26.5028125 8.53547607 27.0078125 10.05047607 C25.2578125 12.42547607 25.2578125 12.42547607 23.0078125 15.05047607 C22.001385 16.71326934 21.00195843 18.38031092 20.0078125 20.05047607 C19.38326172 20.82004639 19.38326172 20.82004639 18.74609375 21.60516357 C15.39918717 25.76721932 14.40184748 28.89045331 14.1484375 34.23016357 C14.0078125 36.05047607 14.0078125 36.05047607 13.0078125 37.05047607 C10.55288749 37.23111591 8.15277001 37.32849351 5.6953125 37.36297607 C5.01791016 37.39197998 4.34050781 37.42098389 3.64257812 37.4508667 C0.25161413 37.49395813 -1.64331573 37.30578934 -4.41015625 35.28094482 C-6.95790243 31.68893724 -6.9921875 29.46325211 -6.9921875 25.05047607 C-5.6796875 22.67547607 -5.6796875 22.67547607 -2.9921875 21.05047607 C-1.35047578 20.7934404 0.29620686 20.56726827 1.9453125 20.36297607 C5.14480062 19.84388508 6.5595976 19.55547838 8.734375 17.10516357 C11.03851141 13.02239554 12.07590073 9.71003494 13.0078125 5.05047607 C-19.3321875 5.05047607 -51.6721875 5.05047607 -84.9921875 5.05047607 C-85.3221875 4.39047607 -85.6521875 3.73047607 -85.9921875 3.05047607 C-85.28191406 2.98989014 -84.57164062 2.9293042 -83.83984375 2.86688232 C-82.46119141 2.74119873 -82.46119141 2.74119873 -81.0546875 2.61297607 C-80.13816406 2.53176514 -79.22164062 2.4505542 -78.27734375 2.36688232 C-76.03059018 2.29002631 -76.03059018 2.29002631 -74.9921875 1.05047607 C-72.91663894 0.9264365 -70.83688494 0.87245649 -68.7578125 0.84515381 C-67.77907417 0.83030441 -67.77907417 0.83030441 -66.78056335 0.81515503 C-64.60114236 0.78334274 -62.4217012 0.75864819 -60.2421875 0.73406982 C-58.71166474 0.71345991 -57.18114716 0.69246249 -55.65063477 0.6710968 C-52.41897614 0.62699291 -49.18729842 0.58613602 -45.95556641 0.54779053 C-41.89126579 0.49952827 -37.82706514 0.44575022 -33.76286316 0.38985252 C-25.25611964 0.27304032 -16.7493379 0.17494599 -8.2421875 0.09313965 C-5.49469182 0.06652893 -2.74742213 0.03473762 0 0 Z " fill="#1E1E1E" transform="translate(676.9921875,243.94952392578125)"/>
<path d="M0 0 C4.95 0.33 9.9 0.66 15 1 C15 1.33 15 1.66 15 2 C10.545 2.495 10.545 2.495 6 3 C6.97270601 6.71396841 8.12631819 9.376162 10.625 12.25 C13 15 13 15 13 17 C17.29 17.99 21.58 18.98 26 20 C26 20.66 26 21.32 26 22 C26.66 22 27.32 22 28 22 C28.5862069 31.96551724 28.5862069 31.96551724 25 36 C21.24656256 39.05178135 18.14647211 40.84454615 13.3125 41.5 C9.7050457 40.9554786 7.70928018 40.46298198 5 38 C4.391324 34.42402849 4.55594168 32.70309234 6.5 29.625 C6.995 29.08875 7.49 28.5525 8 28 C6.63875 27.13375 6.63875 27.13375 5.25 26.25 C2 24 2 24 0.1875 22.0625 C-2.55378882 19.47785625 -5.54270679 17.96201421 -8.87890625 16.24609375 C-11 15 -11 15 -12.26269531 13.4152832 C-14.83776708 11.31751886 -16.66086783 11.82441256 -19.91796875 12.109375 C-21.09037109 12.20476562 -22.26277344 12.30015625 -23.47070312 12.3984375 C-25.31051758 12.57246094 -25.31051758 12.57246094 -27.1875 12.75 C-28.39470703 12.85054688 -29.60191406 12.95109375 -30.84570312 13.0546875 C-36.91625105 13.57245977 -42.96186848 14.18789763 -49 15 C-48.67 13.68 -48.34 12.36 -48 11 C-44.08484651 10.48766901 -40.16769535 9.99248492 -36.25 9.5 C-35.15816406 9.35691406 -34.06632813 9.21382812 -32.94140625 9.06640625 C-27.42601051 8.38106122 -21.91351409 7.82810186 -16.359375 7.59375 C-15.39999023 7.54927734 -14.44060547 7.50480469 -13.45214844 7.45898438 C-11 8 -11 8 -9.32495117 10.42163086 C-8.88771729 11.27249268 -8.4504834 12.12335449 -8 13 C-5.45068158 14.72805533 -5.45068158 14.72805533 -2.5625 16.0625 C1.34428132 17.98134089 3.98805224 19.87391528 7 23 C8.96879323 24.06011943 10.96435867 25.07470849 13 26 C13 26.99 13 27.98 13 29 C11.33333333 30.33333333 9.66666667 31.66666667 8 33 C8 33.99 8 34.98 8 36 C13.41735797 36.93402724 16.80451575 37.20808081 22 35 C23.43966791 28.55123906 23.43966791 28.55123906 24 22 C23.46375 22.20625 22.9275 22.4125 22.375 22.625 C19.01398052 23.15568729 17.09268121 22.38855075 14 21 C9.89718669 17.61517902 7.27782758 13.51552726 4.42578125 9.09375 C2.84714093 6.7755275 1.10030985 4.85796641 -1 3 C-0.67 2.01 -0.34 1.02 0 0 Z " fill="#1A1A1A" transform="translate(586,245)"/>
<path d="M0 0 C0.33 0 0.66 0 1 0 C1.14750782 4.49898855 1.07245389 8.43509279 -1.53125 12.234375 C-6.05543022 16.86627379 -11.31523712 20.88635394 -17 24 C-17.66 24 -18.32 24 -19 24 C-19 24.66 -19 25.32 -19 26 C-18.278125 25.9175 -17.55625 25.835 -16.8125 25.75 C-12.91603362 26.09635257 -11.5399272 27.02465671 -9 30 C-8.5807283 33.04496069 -8.70644546 35.94703274 -9 39 C-9.66 39 -10.32 39 -11 39 C-11.33 39.99 -11.66 40.98 -12 42 C-14.72421781 44.09555216 -16.13689311 43.9905591 -19.625 43.75 C-23 43 -23 43 -25 41 C-26.89637524 41.24665337 -26.89637524 41.24665337 -29 41.9375 C-36.90267773 43.8909709 -44.79634842 42.73046242 -52 39 C-53.5 35.8125 -53.5 35.8125 -54 33 C-53.01 33 -52.02 33 -51 33 C-50.67 33.99 -50.34 34.98 -50 36 C-44.39953746 38.65285068 -40.16414189 39.50525753 -34 39 C-32.31763529 38.37400383 -30.6476038 37.71247732 -29 37 C-26.375 36.6875 -26.375 36.6875 -24 37 C-23.319375 37.7734375 -23.319375 37.7734375 -22.625 38.5625 C-20.91638213 40.40632507 -20.91638213 40.40632507 -17.4375 39.875 C-13.74557606 39.34366067 -13.74557606 39.34366067 -12 36 C-12.08333333 33.41666667 -12.08333333 33.41666667 -13 31 C-16.6441774 28.5705484 -18.71241272 28.83820425 -23 29 C-23.33 29.66 -23.66 30.32 -24 31 C-25.74658203 31.41064453 -25.74658203 31.41064453 -28.0078125 31.6328125 C-29.24144531 31.75849609 -29.24144531 31.75849609 -30.5 31.88671875 C-31.36625 31.96535156 -32.2325 32.04398438 -33.125 32.125 C-33.96804688 32.21136719 -34.81109375 32.29773438 -35.6796875 32.38671875 C-40.47684613 32.85600601 -45.18100312 33.09141728 -50 33 C-49.67 32.01 -49.34 31.02 -49 30 C-48.00097656 29.87882812 -47.00195312 29.75765625 -45.97265625 29.6328125 C-44.68230469 29.46523437 -43.39195312 29.29765625 -42.0625 29.125 C-40.77472656 28.96257812 -39.48695313 28.80015625 -38.16015625 28.6328125 C-37.11730469 28.42398438 -36.07445312 28.21515625 -35 28 C-34.67 27.34 -34.34 26.68 -34 26 C-32.3438054 25.61802052 -30.67436188 25.29223483 -29 25 C-22.29443312 22.90380598 -16.84389106 19.77606206 -11.2265625 15.5859375 C-9 14 -9 14 -6.77734375 12.890625 C-2.62048465 10.80762747 -1.50429885 4.10263322 0 0 Z " fill="#0C0C0C" transform="translate(756,216)"/>
<path d="M0 0 C0.99 0.66 1.98 1.32 3 2 C3.51842494 5.36976212 3.73797406 7.82385384 1.875 10.79296875 C0.65205959 12.25563328 -0.66860372 13.63531882 -2 15 C-1.34 15 -0.68 15 0 15 C7.26643349 22.811416 8.17675947 30.5037561 8.0625 40.875 C8.05798828 41.65875 8.05347656 42.4425 8.04882812 43.25 C8.03714093 45.16670014 8.01920908 47.08336048 8 49 C6.515 49.495 6.515 49.495 5 50 C5.05220703 48.96166016 5.05220703 48.96166016 5.10546875 47.90234375 C5.33098068 39.75169844 5.67205929 27.025665 -0.109375 20.6875 C-0.73328125 20.130625 -1.3571875 19.57375 -2 19 C-2 18.34 -2 17.68 -2 17 C-3.485 16.505 -3.485 16.505 -5 16 C-5 14.68 -5 13.36 -5 12 C-4.34 11.525625 -3.68 11.05125 -3 10.5625 C-2.34 10.046875 -1.68 9.53125 -1 9 C-0.66574265 6.37374861 -0.66574265 6.37374861 -1 4 C-3.31 4.33 -5.62 4.66 -8 5 C-8 7.15634036 -7.5534764 8.92446352 -7 11 C-14.47653412 10.2396745 -14.47653412 10.2396745 -17.19706726 8.99404907 C-20.61790425 7.78086269 -23.45577941 7.71983184 -27.08520508 7.68115234 C-27.77843872 7.67110672 -28.47167236 7.6610611 -29.18591309 7.65071106 C-31.46377783 7.61996637 -33.74152551 7.60286855 -36.01953125 7.5859375 C-37.6042328 7.5672188 -39.18892446 7.54764486 -40.77360535 7.5272522 C-44.93441934 7.475999 -49.09526562 7.43633695 -53.25622559 7.39910889 C-57.50618432 7.35902642 -61.75600952 7.30795346 -66.00585938 7.2578125 C-74.33714825 7.16113391 -82.66850339 7.07670347 -91 7 C-91 6.01 -91 5.02 -91 4 C-83.49675235 3.97432986 -75.99351631 3.95700106 -68.49023438 3.94506836 C-65.94563372 3.94008588 -63.40103585 3.93329748 -60.85644531 3.92456055 C-36.40857172 3.84281117 -36.40857172 3.84281117 -25.4609375 4.44140625 C-24.38847275 4.49988991 -24.38847275 4.49988991 -23.29434204 4.55955505 C-20.66079948 4.72809086 -18.23121413 4.93148758 -15.69384766 5.68334961 C-15.13487793 5.78784424 -14.5759082 5.89233887 -14 6 C-11.39585286 3.64587234 -11.39585286 3.64587234 -9 1 C-5.74531799 -0.084894 -3.4103976 -0.21314985 0 0 Z " fill="#1D1D1D" transform="translate(750,167)"/>
<path d="M0 0 C0.79921875 0.00902344 1.5984375 0.01804688 2.421875 0.02734375 C3.02515625 0.03894531 3.6284375 0.05054688 4.25 0.0625 C4.58 1.0525 4.91 2.0425 5.25 3.0625 C4.33476563 3.19527344 3.41953125 3.32804688 2.4765625 3.46484375 C1.28804687 3.64144531 0.09953125 3.81804687 -1.125 4 C-2.30835938 4.17402344 -3.49171875 4.34804687 -4.7109375 4.52734375 C-7.65702381 4.89712786 -7.65702381 4.89712786 -9.75 6.0625 C-10.21651207 8.18826782 -10.21651207 8.18826782 -10.375 10.625 C-10.44976563 11.45128906 -10.52453125 12.27757812 -10.6015625 13.12890625 C-10.65054688 13.76699219 -10.69953125 14.40507812 -10.75 15.0625 C-10.09 15.0625 -9.43 15.0625 -8.75 15.0625 C-8.75 16.0525 -8.75 17.0425 -8.75 18.0625 C-8.09 18.0625 -7.43 18.0625 -6.75 18.0625 C-6.75 19.0525 -6.75 20.0425 -6.75 21.0625 C-2.59373632 22.07176479 1.29365094 22.16489579 5.5625 22.125 C6.81675781 22.11597656 8.07101562 22.10695312 9.36328125 22.09765625 C10.31589844 22.08605469 11.26851562 22.07445312 12.25 22.0625 C12.25 23.0525 12.25 24.0425 12.25 25.0625 C-3.15139096 26.83547566 -3.15139096 26.83547566 -8.75 23.0625 C-12.81771593 17.92433251 -14.16435802 13.65919718 -14.1015625 7.22265625 C-13.75 5.0625 -13.75 5.0625 -11.5 2.5625 C-7.56887795 0.41825161 -4.45089038 -0.06545427 0 0 Z " fill="#161616" transform="translate(549.75,192.9375)"/>
<path d="M0 0 C0.66 0.33 1.32 0.66 2 1 C0.18965517 5.65517241 0.18965517 5.65517241 -1.03125 7.875 C-2.10896621 10.23902266 -2.39735019 12.16996887 -2.625 14.75 C-2.69976563 15.54921875 -2.77453125 16.3484375 -2.8515625 17.171875 C-2.90054688 17.77515625 -2.94953125 18.3784375 -3 19 C-3.79664063 19.31453125 -4.59328125 19.6290625 -5.4140625 19.953125 C-15.29592717 23.94434042 -21.67698585 26.90715648 -26 37 C-26.85639285 40.35254676 -26.85639285 40.35254676 -27 43 C-28.625 41.375 -28.625 41.375 -30 39 C-28.8809638 32.84530091 -25.12785745 27.01586495 -20.625 22.75 C-15.55799681 19.37199787 -11.23498739 16.60829145 -5 16 C-5.12375 14.515 -5.12375 14.515 -5.25 13 C-5.27825307 8.38533109 -3.35366383 4.87551072 -1 1 C-0.67 0.67 -0.34 0.34 0 0 Z " fill="#181818" transform="translate(546,156)"/>
<path d="M0 0 C0.99 0 1.98 0 3 0 C0.60526316 9.39473684 0.60526316 9.39473684 -2 12 C-4.88812164 12.22385137 -7.61750518 12.12047102 -10.50390625 11.8828125 C-11.73947266 11.94082031 -11.73947266 11.94082031 -13 12 C-13.99 13.485 -13.99 13.485 -15 15 C-15.66 14.67 -16.32 14.34 -17 14 C-15.55614973 9.42780749 -15.55614973 9.42780749 -13.375 7.75 C-11.09272528 7.02928167 -9.30797006 6.88918356 -6.9375 6.75 C-4.85762222 6.62123313 -4.85762222 6.62123313 -3 6 C-0.91367303 3.08158143 -0.91367303 3.08158143 0 0 Z " fill="#272727" transform="translate(687,257)"/>
<path d="M0 0 C0.66 0.99 1.32 1.98 2 3 C1.401875 3.721875 0.80375 4.44375 0.1875 5.1875 C-1.7848444 7.72337137 -3.36031704 10.24533262 -5 13 C-5.41636719 13.51304687 -5.83273437 14.02609375 -6.26171875 14.5546875 C-10.0066658 19.21172767 -10.8519744 23.06551928 -11 29 C-11.33 29 -11.66 29 -12 29 C-13.37774541 18.49469125 -13.37774541 18.49469125 -11.57421875 16.1328125 C-10.64029297 15.13894531 -10.64029297 15.13894531 -9.6875 14.125 C-7.0459914 11.21774607 -4.87612883 8.47083834 -3 5 C-2 3.33333333 -1 1.66666667 0 0 Z " fill="#131313" transform="translate(702,251)"/>
<path d="M0 0 C12.87 0.495 12.87 0.495 26 1 C26 1.66 26 2.32 26 3 C17.75 3 9.5 3 1 3 C0.67 2.01 0.34 1.02 0 0 Z " fill="#020202" transform="translate(541,228)"/>
<path d="M0 0 C0.99 0 1.98 0 3 0 C3.25 6.625 3.25 6.625 1 10 C-1.5 10.375 -1.5 10.375 -4 10 C-6.29013653 6.5647952 -6.17842973 5.014669 -6 1 C-5.34 1 -4.68 1 -4 1 C-3.67 2.65 -3.34 4.3 -3 6 C-2.01 6.33 -1.02 6.66 0 7 C0 4.69 0 2.38 0 0 Z " fill="#0A0A0A" transform="translate(616,207)"/>
<path d="M0 0 C0.66 0 1.32 0 2 0 C2.25 7.625 2.25 7.625 0 11 C-4.875 10.125 -4.875 10.125 -6 9 C-6.04080783 7.00041636 -6.04254356 4.99954746 -6 3 C-5.01 3.33 -4.02 3.66 -3 4 C-3 5.32 -3 6.64 -3 8 C-2.34 7.67 -1.68 7.34 -1 7 C-0.59270772 4.67843403 -0.25561323 2.3431213 0 0 Z " fill="#0E0E0E" transform="translate(585,221)"/>
<path d="M0 0 C0.66 0 1.32 0 2 0 C2.66 1.98 3.32 3.96 4 6 C4.66 5.01 5.32 4.02 6 3 C6.66 3 7.32 3 8 3 C8.04254356 4.99954746 8.04080783 7.00041636 8 9 C7 10 7 10 4.4375 10.0625 C3.633125 10.041875 2.82875 10.02125 2 10 C-0.09350689 6.5980513 -0.17942163 3.94727588 0 0 Z " fill="#080808" transform="translate(684,192)"/>
<path d="M0 0 C0.66 0 1.32 0 2 0 C2.25 5.625 2.25 5.625 0 9 C-1.65 8.67 -3.3 8.34 -5 8 C-5 6.02 -5 4.04 -5 2 C-4.34 2 -3.68 2 -3 2 C-3 2.99 -3 3.98 -3 5 C-2.34 4.67 -1.68 4.34 -1 4 C-0.34786708 1.97536745 -0.34786708 1.97536745 0 0 Z " fill="#101010" transform="translate(703,199)"/>
<path d="M0 0 C0.66 0 1.32 0 2 0 C2.33 1.65 2.66 3.3 3 5 C3.66 3.68 4.32 2.36 5 1 C5.66 1 6.32 1 7 1 C6.67 3.31 6.34 5.62 6 8 C4.35 8.33 2.7 8.66 1 9 C-0.4783226 6.04335481 -0.06032783 3.25770263 0 0 Z " fill="#060606" transform="translate(745,209)"/>
<path d="M0 0 C0.66 0 1.32 0 2 0 C2 2.31 2 4.62 2 7 C-0.31 7.33 -2.62 7.66 -5 8 C-5.33 6.02 -5.66 4.04 -6 2 C-5.01 2 -4.02 2 -3 2 C-3 2.99 -3 3.98 -3 5 C-2.34 4.67 -1.68 4.34 -1 4 C-0.34786708 1.97536745 -0.34786708 1.97536745 0 0 Z " fill="#0C0C0C" transform="translate(525,206)"/>
<path d="M0 0 C-0.309375 0.639375 -0.61875 1.27875 -0.9375 1.9375 C-2.31935403 5.92049104 -2.6536543 9.81650849 -3 14 C-3.33 14 -3.66 14 -4 14 C-5 6.375 -5 6.375 -5 3 C-2.55555556 0 -2.55555556 0 0 0 Z " fill="#484848" transform="translate(694,266)"/>
<path d="M0 0 C0.66 0.33 1.32 0.66 2 1 C0.8141763 4.37503669 -0.27573689 6.64722731 -3 9 C-3.33 8.34 -3.66 7.68 -4 7 C-3.22265625 5.2734375 -3.22265625 5.2734375 -2.0625 3.375 C-1.381875 2.26125 -0.70125 1.1475 0 0 Z " fill="#202020" transform="translate(546,156)"/>
<path d="M0 0 C0.33 0 0.66 0 1 0 C0.67 2.97 0.34 5.94 0 9 C-0.99 9.33 -1.98 9.66 -3 10 C-2.69201674 8.51988629 -2.378482 7.04092675 -2.0625 5.5625 C-1.88847656 4.73878906 -1.71445312 3.91507813 -1.53515625 3.06640625 C-1 1 -1 1 0 0 Z " fill="#040404" transform="translate(517,194)"/>
<path d="M0 0 C1.09658936 3.28976808 0.79953138 4.71303767 0 8 C-0.99 8.33 -1.98 8.66 -3 9 C-2.4140625 2.84765625 -2.4140625 2.84765625 -2 1 C-1.34 0.67 -0.68 0.34 0 0 Z " fill="#050505" transform="translate(514,248)"/>
<path d="M0 0 C0.66 0.99 1.32 1.98 2 3 C-1.625 7.875 -1.625 7.875 -5 9 C-3.50163895 5.88801935 -1.80066242 2.9465385 0 0 Z " fill="#242424" transform="translate(702,251)"/>
</svg>
