<?xml version="1.0" encoding="UTF-8"?>
<svg version="1.1" xmlns="http://www.w3.org/2000/svg" width="800" height="300">
<path d="M0 0 C264 0 528 0 800 0 C800 99 800 198 800 300 C536 300 272 300 0 300 C0 201 0 102 0 0 Z " fill="#FEFEFE" transform="translate(0,0)"/>
<path d="M0 0 C8.08108108 1.05405405 8.08108108 1.05405405 11.125 4.1875 C13 7 13 7 14 13 C26.375 12.505 26.375 12.505 39 12 C39.99 9.03 40.98 6.06 42 3 C42.66 2.01 43.32 1.02 44 0 C49.45473727 -0.99327538 55.34155698 -0.98016153 60.1875 1.9375 C62.91844323 4.3502008 63.40527679 6.09663011 63.67578125 9.69140625 C63.74321533 10.49908447 63.81064941 11.3067627 63.88012695 12.13891602 C63.91968506 12.75307373 63.95924316 13.36723145 64 14 C64.75804932 13.99476318 65.51609863 13.98952637 66.29711914 13.98413086 C91.72609359 13.8326652 91.72609359 13.8326652 104 14.5 C114.56212326 15.05800264 125.11348537 15.11382562 135.6875 15.125 C136.93213013 15.12874634 136.93213013 15.12874634 138.2019043 15.13256836 C140.57605174 15.13845837 142.95006987 15.13697169 145.32421875 15.1328125 C146.03986496 15.13479645 146.75551117 15.1367804 147.49284363 15.13882446 C150.84124788 15.12320523 153.7777662 14.86994815 157 14 C160.99687025 13.77307845 164.99733351 13.81483528 169 13.8125 C170.07378906 13.80025391 171.14757812 13.78800781 172.25390625 13.77539062 C178.91767612 13.76336216 184.95579923 14.3872651 191.44140625 15.9597168 C194.16569941 16.29038801 194.16569941 16.29038801 196.17871094 14.07055664 C196.77973633 13.38727295 197.38076172 12.70398926 198 12 C200.578125 11.609375 200.578125 11.609375 203.25 11.75 C204.14203125 11.78609375 205.0340625 11.8221875 205.953125 11.859375 C206.96632813 11.92898437 206.96632813 11.92898437 208 12 C209.61930707 16.56350173 208.27853 19.41720691 206.3984375 23.62109375 C205.67795749 27.9227832 208.44159874 31.07884172 210.60546875 34.6484375 C215.91625645 43.80135063 216.86092523 52.86195829 214.19140625 63.1015625 C212.64931617 67.16980015 210.84755744 70.68158661 208 74 C207.34 74 206.68 74 206 74 C205.67 74.99 205.34 75.98 205 77 C202.81044722 78.45578844 200.67430184 79.7441185 198.375 81 C197.77042969 81.34289062 197.16585937 81.68578125 196.54296875 82.0390625 C192.46691965 84.31608779 188.304659 86.18313028 184 88 C180.8409567 89.56618432 177.70798704 91.17693517 174.57421875 92.79296875 C172 94 172 94 170 94 C171.19131697 101.5954719 171.19131697 101.5954719 175 108 C177.28323905 108.65723143 179.56188756 109.07378894 181.8984375 109.5 C184 110 184 110 186.125 111.5625 C187.52617767 115.46578064 186.9444268 119.01636517 186 123 C183.79452055 127.60273973 183.79452055 127.60273973 181 129 C178.87960174 129.17431846 176.75206692 129.26709071 174.625 129.3125 C172.91183594 129.36857422 172.91183594 129.36857422 171.1640625 129.42578125 C168 129 168 129 165.578125 127.24609375 C163.75551315 124.65202986 163.69458764 123.81806761 164.125 120.75 C164.37797139 115.78033629 162.66421927 113.56152211 159.53515625 109.85546875 C157.16653937 106.99263665 155 103.7920499 155 100 C154.35933594 100.20496094 153.71867188 100.40992188 153.05859375 100.62109375 C149.09854117 101.85455275 145.37187136 102.95041715 141.25 103.5 C137.67487086 104.05001987 135.19937106 105.3647659 132 107 C130.68 107 129.36 107 128 107 C127.6596875 108.0828125 127.6596875 108.0828125 127.3125 109.1875 C125.66099387 112.7264417 124.11841749 114.62729104 121 117 C117.98395537 117.69554906 116.18311337 117.45473048 113 117 C109.21269327 114.40868487 107.91988299 111.43216352 107 107 C107.12328767 98.87671233 107.12328767 98.87671233 110 96 C114.13997567 95.8028583 117.07703567 95.69234522 121 97 C126.79998915 97.43773503 128.44277013 96.77861493 134 94 C105.785 94.495 105.785 94.495 77 95 C77 97.64 77 100.28 77 103 C76 106.5 76 106.5 75 109 C74.34 109 73.68 109 73 109 C72.505 110.485 72.505 110.485 72 112 C68.89043581 114.56081757 67.38616355 115.01309029 63.3125 114.875 C60 114 60 114 58 111 C57.61500109 109.34450469 57.27206865 107.6777567 57 106 C54.1685963 105.18022393 51.33517098 104.36905726 48.5 103.5625 C47.70851563 103.33240234 46.91703125 103.10230469 46.1015625 102.86523438 C41.0598354 101.43950007 36.21491823 100.52029574 31 100 C32.42673359 102.88634122 33.90494836 105.54445319 36 108 C39.55652459 108.90137027 39.55652459 108.90137027 43 109 C44.875 110.0625 44.875 110.0625 46 112 C47.73178156 118.60241719 47.73178156 118.60241719 46.046875 121.8203125 C43.89451172 124.50428358 42.27955927 125.90681358 39 127 C32.49152453 127.50065196 28.6982657 125.84913285 23 123 C21.8422494 119.52674819 21.93133348 116.63932552 22 113 C22.66 113 23.32 113 24 113 C23.39671875 112.14277344 22.7934375 111.28554688 22.171875 110.40234375 C21.36403447 109.24777968 20.5567801 108.09280533 19.75 106.9375 C19.33395508 106.34348389 18.91791016 105.74946777 18.48925781 105.13745117 C16.3839547 102.10350865 14.43241599 99.10723132 12.75 95.8125 C10.64926259 92.43631488 9.73782641 92.13406162 6 91 C4.12852762 90.78290116 2.25588878 90.56948817 0.37792969 90.41845703 C-9.79544399 89.58871379 -16.89046453 86.5643032 -24 79 C-31.9392365 67.24992998 -32.54691748 53.01762423 -30.43359375 39.33203125 C-28.52881933 31.30405529 -25.95890101 26.14113719 -19.19140625 21.29296875 C-14.66346714 18.62140396 -10.24626376 18 -5 18 C-5.268125 17.05125 -5.53625 16.1025 -5.8125 15.125 C-6.63552328 9.76986185 -3.67819186 5.45228073 -1 1 C-0.67 0.67 -0.34 0.34 0 0 Z " fill="#FDFDFD" transform="translate(536,155)"/>
<path d="M0 0 C8.08108108 1.05405405 8.08108108 1.05405405 11.125 4.1875 C13 7 13 7 14 13 C26.375 12.505 26.375 12.505 39 12 C39.99 9.03 40.98 6.06 42 3 C42.66 2.01 43.32 1.02 44 0 C49.45473727 -0.99327538 55.34155698 -0.98016153 60.1875 1.9375 C62.91844323 4.3502008 63.40527679 6.09663011 63.67578125 9.69140625 C63.74321533 10.49908447 63.81064941 11.3067627 63.88012695 12.13891602 C63.91968506 12.75307373 63.95924316 13.36723145 64 14 C64.75804932 13.99476318 65.51609863 13.98952637 66.29711914 13.98413086 C91.72609359 13.8326652 91.72609359 13.8326652 104 14.5 C114.56212326 15.05800264 125.11348537 15.11382562 135.6875 15.125 C136.93213013 15.12874634 136.93213013 15.12874634 138.2019043 15.13256836 C140.57605174 15.13845837 142.95006987 15.13697169 145.32421875 15.1328125 C146.03986496 15.13479645 146.75551117 15.1367804 147.49284363 15.13882446 C150.84124788 15.12320523 153.7777662 14.86994815 157 14 C160.99687025 13.77307845 164.99733351 13.81483528 169 13.8125 C170.07378906 13.80025391 171.14757812 13.78800781 172.25390625 13.77539062 C178.91767612 13.76336216 184.95579923 14.3872651 191.44140625 15.9597168 C194.16569941 16.29038801 194.16569941 16.29038801 196.17871094 14.07055664 C196.77973633 13.38727295 197.38076172 12.70398926 198 12 C200.578125 11.609375 200.578125 11.609375 203.25 11.75 C204.14203125 11.78609375 205.0340625 11.8221875 205.953125 11.859375 C206.96632813 11.92898437 206.96632813 11.92898437 208 12 C209.61930707 16.56350173 208.27853 19.41720691 206.3984375 23.62109375 C205.67795749 27.9227832 208.44159874 31.07884172 210.60546875 34.6484375 C215.91625645 43.80135063 216.86092523 52.86195829 214.19140625 63.1015625 C212.64931617 67.16980015 210.84755744 70.68158661 208 74 C207.34 74 206.68 74 206 74 C205.67 74.99 205.34 75.98 205 77 C202.81044722 78.45578844 200.67430184 79.7441185 198.375 81 C197.77042969 81.34289062 197.16585937 81.68578125 196.54296875 82.0390625 C192.46691965 84.31608779 188.304659 86.18313028 184 88 C180.8409567 89.56618432 177.70798704 91.17693517 174.57421875 92.79296875 C172 94 172 94 170 94 C171.19131697 101.5954719 171.19131697 101.5954719 175 108 C177.28323905 108.65723143 179.56188756 109.07378894 181.8984375 109.5 C184 110 184 110 186.125 111.5625 C187.52617767 115.46578064 186.9444268 119.01636517 186 123 C183.79452055 127.60273973 183.79452055 127.60273973 181 129 C178.87960174 129.17431846 176.75206692 129.26709071 174.625 129.3125 C172.91183594 129.36857422 172.91183594 129.36857422 171.1640625 129.42578125 C168 129 168 129 165.578125 127.24609375 C163.75551315 124.65202986 163.69458764 123.81806761 164.125 120.75 C164.37797139 115.78033629 162.66421927 113.56152211 159.53515625 109.85546875 C157.16653937 106.99263665 155 103.7920499 155 100 C154.35933594 100.20496094 153.71867188 100.40992188 153.05859375 100.62109375 C149.09854117 101.85455275 145.37187136 102.95041715 141.25 103.5 C137.67487086 104.05001987 135.19937106 105.3647659 132 107 C130.68 107 129.36 107 128 107 C127.6596875 108.0828125 127.6596875 108.0828125 127.3125 109.1875 C125.66099387 112.7264417 124.11841749 114.62729104 121 117 C117.98395537 117.69554906 116.18311337 117.45473048 113 117 C109.21269327 114.40868487 107.91988299 111.43216352 107 107 C107.12328767 98.87671233 107.12328767 98.87671233 110 96 C114.13997567 95.8028583 117.07703567 95.69234522 121 97 C126.79998915 97.43773503 128.44277013 96.77861493 134 94 C105.785 94.495 105.785 94.495 77 95 C77 97.64 77 100.28 77 103 C76 106.5 76 106.5 75 109 C74.34 109 73.68 109 73 109 C72.505 110.485 72.505 110.485 72 112 C68.89043581 114.56081757 67.38616355 115.01309029 63.3125 114.875 C60 114 60 114 58 111 C57.61500109 109.34450469 57.27206865 107.6777567 57 106 C54.1685963 105.18022393 51.33517098 104.36905726 48.5 103.5625 C47.70851563 103.33240234 46.91703125 103.10230469 46.1015625 102.86523438 C41.0598354 101.43950007 36.21491823 100.52029574 31 100 C32.42673359 102.88634122 33.90494836 105.54445319 36 108 C39.55652459 108.90137027 39.55652459 108.90137027 43 109 C44.875 110.0625 44.875 110.0625 46 112 C47.73178156 118.60241719 47.73178156 118.60241719 46.046875 121.8203125 C43.89451172 124.50428358 42.27955927 125.90681358 39 127 C32.49152453 127.50065196 28.6982657 125.84913285 23 123 C21.8422494 119.52674819 21.93133348 116.63932552 22 113 C22.66 113 23.32 113 24 113 C23.39671875 112.14277344 22.7934375 111.28554688 22.171875 110.40234375 C21.36403447 109.24777968 20.5567801 108.09280533 19.75 106.9375 C19.33395508 106.34348389 18.91791016 105.74946777 18.48925781 105.13745117 C16.3839547 102.10350865 14.43241599 99.10723132 12.75 95.8125 C10.64926259 92.43631488 9.73782641 92.13406162 6 91 C4.12852762 90.78290116 2.25588878 90.56948817 0.37792969 90.41845703 C-9.79544399 89.58871379 -16.89046453 86.5643032 -24 79 C-31.9392365 67.24992998 -32.54691748 53.01762423 -30.43359375 39.33203125 C-28.52881933 31.30405529 -25.95890101 26.14113719 -19.19140625 21.29296875 C-14.66346714 18.62140396 -10.24626376 18 -5 18 C-5.268125 17.05125 -5.53625 16.1025 -5.8125 15.125 C-6.63552328 9.76986185 -3.67819186 5.45228073 -1 1 C-0.67 0.67 -0.34 0.34 0 0 Z M1 3 C-2.05498079 8.78217394 -3.64451156 12.5589964 -2 19 C-3.299375 19.226875 -4.59875 19.45375 -5.9375 19.6875 C-12.60147914 21.18820711 -17.83879187 24.02672302 -22.875 28.625 C-29.36004302 38.92477421 -29.46084615 52.41488239 -27.4609375 64.16796875 C-25.0902175 72.77811116 -20.19194174 78.82546997 -13 84 C-4.52349143 88.44007592 4.66762489 88.13791687 14 88 C13.93296875 88.71027344 13.8659375 89.42054688 13.796875 90.15234375 C14.05350345 93.75007717 15.26811481 95.5688541 17.25 98.5625 C17.85328125 99.49191406 18.4565625 100.42132813 19.078125 101.37890625 C20.88712882 103.8460639 22.83642905 105.84995137 25 108 C26.06011943 109.96879323 27.07470849 111.96435867 28 114 C27.01 114.33 26.02 114.66 25 115 C25 116.65 25 118.3 25 120 C29.90360711 123.35696669 29.90360711 123.35696669 35.6875 123.875 C39.60036106 122.94685815 39.60036106 122.94685815 43 121 C43.99764302 118.29211182 44.11190099 116.5754908 43.5625 113.75 C42.7890625 112.88375 42.7890625 112.88375 42 112 C40.80375 112.020625 39.6075 112.04125 38.375 112.0625 C36.23828125 111.93359375 36.23828125 111.93359375 34 111 C30.1656695 106.20213722 26.94760792 100.84282375 25 95 C25.886875 95.45375 26.77375 95.9075 27.6875 96.375 C32.23766563 98.35292914 36.92533779 98.85613502 41.81640625 99.47265625 C45 100 45 100 48.03515625 101.01953125 C51.05844637 102.01932812 53.70742159 102.39322597 56.875 102.625 C57.84179688 102.69976562 58.80859375 102.77453125 59.8046875 102.8515625 C60.89136719 102.92503906 60.89136719 102.92503906 62 103 C61.67 103.66 61.34 104.32 61 105 C60.960008 106.99960012 60.95653201 109.00047242 61 111 C63.74961511 111.94607807 63.74961511 111.94607807 67 112 C71.33506056 108.55165637 73.69113162 105.47094703 74.375 100 C73.91351426 96.30811405 72.86604482 95.27597677 70 93 C67.29120665 91.64560332 64.99066732 91.93498549 62 92 C61.67 92.66 61.34 93.32 61 94 C53.78528371 94.35482211 47.87581298 93.1591338 41 91 C41 90.34 41 89.68 41 89 C41.6290625 89.2165625 42.258125 89.433125 42.90625 89.65625 C48.51445928 91.48060724 53.10968596 92.32723967 59 92 C59 91.34 59 90.68 59 90 C60.43739513 89.97287934 61.87493863 89.95354933 63.3125 89.9375 C64.51326172 89.92009766 64.51326172 89.92009766 65.73828125 89.90234375 C68 90 68 90 71 91 C73.75370229 91.09133385 76.48158822 91.12600326 79.23510742 91.11352539 C80.07435257 91.11367142 80.91359772 91.11381744 81.77827454 91.1139679 C84.55403217 91.11327087 87.32972282 91.10548829 90.10546875 91.09765625 C92.02932193 91.09579132 93.95317559 91.09436777 95.87702942 91.09336853 C100.94214182 91.08954924 106.00722558 91.07972394 111.07232666 91.06866455 C116.24027112 91.05843781 121.40822021 91.0538682 126.57617188 91.04882812 C136.71746051 91.03810117 146.85872787 91.02103177 157 91 C157 91.66 157 92.32 157 93 C156.20335937 92.97679687 155.40671875 92.95359375 154.5859375 92.9296875 C146.59230963 92.76122919 146.59230963 92.76122919 139 95 C138.26910156 95.31453125 137.53820312 95.6290625 136.78515625 95.953125 C133.7758421 97.26025011 130.79518524 98.58179146 127.890625 100.109375 C125.44720612 101.26040703 123.669058 101.28095347 121 101 C120.34 100.34 119.68 99.68 119 99 C116.31160615 98.73008094 113.70858064 98.91262643 111 99 C109.67036453 104.92292164 110.28843945 107.78546048 113 113 C114.09923541 114.30746709 114.09923541 114.30746709 116.8125 114.3125 C120.0436513 114.26810313 120.0436513 114.26810313 122.3125 112.3125 C124.15705705 109.78477367 124.4907044 108.04064599 125 105 C125.64066406 104.89042969 126.28132812 104.78085937 126.94140625 104.66796875 C132.36847084 103.67314171 136.9199644 102.18967052 142 100 C145.97643597 98.89682735 149.98002849 97.93073232 154 97 C154 96.34 154 95.68 154 95 C154.99 95 155.98 95 157 95 C156.93296875 95.69996094 156.8659375 96.39992188 156.796875 97.12109375 C157.05704013 100.80843408 158.35067306 102.90626553 160.25 106.0625 C160.85328125 107.08472656 161.4565625 108.10695313 162.078125 109.16015625 C163.87162708 112.036317 163.87162708 112.036317 166.2578125 114.11328125 C168 116 168 116 168.1015625 118.0703125 C167.94429687 118.74835938 167.78703125 119.42640625 167.625 120.125 C167.41875 121.40375 167.2125 122.6825 167 124 C168.8628949 126.30060534 168.8628949 126.30060534 171.8203125 126.1953125 C172.91085937 126.17210937 174.00140625 126.14890625 175.125 126.125 C176.22070312 126.10695313 177.31640625 126.08890625 178.4453125 126.0703125 C179.28835938 126.04710937 180.13140625 126.02390625 181 126 C183.91360308 121.22169095 184.19876651 118.44893869 183 113 C182.40832031 112.92523438 181.81664062 112.85046875 181.20703125 112.7734375 C176.37526349 111.96945657 172.95940864 111.12950784 169.9296875 106.9296875 C168.11619103 103.16553936 167.54450423 99.112226 167 95 C166.34 95 165.68 95 165 95 C165 93.68 165 92.36 165 91 C166.216875 90.896875 167.43375 90.79375 168.6875 90.6875 C172.47871152 90.21526137 174.79719614 89.13520258 178 87 C179.70014957 86.26219924 181.40108345 85.5257984 183.11328125 84.81640625 C185.81045337 83.64930693 188.4078893 82.30291377 191.0234375 80.96484375 C192.84918602 80.07361868 194.73641435 79.3114219 196.625 78.5625 C203.64172802 75.31401481 208.26330734 70.429191 211.0859375 63.23046875 C213.72482288 53.90415163 212.62834444 44.4459916 208 36 C207.07439483 34.59625073 206.13727019 33.20001343 205.1875 31.8125 C203.23259171 28.83216436 202.99747564 28.14641288 203.0625 24.375 C203.94311626 21.20478145 204.8694354 18.0902099 206 15 C202.62599422 14.58274322 202.62599422 14.58274322 199 15 C196.99135641 17.3726974 196.99135641 17.3726974 196 20 C195.42169434 19.68272949 194.84338867 19.36545898 194.24755859 19.03857422 C187.17321844 15.76959279 177.97835608 16.84790966 170.375 16.875 C169.281875 16.87113281 168.18875 16.86726563 167.0625 16.86328125 C165.99773437 16.86457031 164.93296875 16.86585938 163.8359375 16.8671875 C162.88251465 16.86831543 161.9290918 16.86944336 160.94677734 16.87060547 C157.91097906 16.95414607 157.91097906 16.95414607 154.58032227 17.5 C150.96345127 18.00510411 147.52898915 18.12938772 143.87890625 18.1328125 C142.88527321 18.13424759 142.88527321 18.13424759 141.87156677 18.13571167 C140.47402857 18.13638814 139.07648713 18.13457128 137.67895508 18.13037109 C135.59904409 18.12509274 133.51935681 18.13029396 131.43945312 18.13671875 C123.36801802 18.14090953 115.37883042 17.81107931 107.32299805 17.25830078 C99.68708565 16.76873502 92.03391711 16.625589 84.38574219 16.44238281 C81.5798878 16.37389892 78.77436218 16.29646779 75.96875 16.21875 C74.17970086 16.17394237 72.3906387 16.12965136 70.6015625 16.0859375 C69.76525299 16.06203949 68.92894348 16.03814148 68.06729126 16.01351929 C63.90280539 15.80043431 63.90280539 15.80043431 60 17 C60.17789063 16.09507812 60.17789063 16.09507812 60.359375 15.171875 C60.75207846 12.73711355 61.03829111 10.46764949 61 8 C59.15014823 5.44848032 57.7804657 4.39023285 55 3 C53.29297265 2.93003986 51.58331997 2.91559846 49.875 2.9375 C48.26625 2.958125 46.6575 2.97875 45 3 C43.68 6.96 42.36 10.92 41 15 C31.43 15 21.86 15 12 15 C11.01 12.36 10.02 9.72 9 7 C7.22845348 4.47409152 7.22845348 4.47409152 5 3 C3.68 3 2.36 3 1 3 Z " fill="#1B1B1B" transform="translate(536,155)"/>
<path d="M0 0 C1.46373047 0.02707031 1.46373047 0.02707031 2.95703125 0.0546875 C3.69308594 0.07789063 4.42914062 0.10109375 5.1875 0.125 C5.1875 1.115 5.1875 2.105 5.1875 3.125 C4.19169922 3.19847656 4.19169922 3.19847656 3.17578125 3.2734375 C-3.57801312 3.72239875 -3.57801312 3.72239875 -9.8125 6.125 C-10.98914871 9.65494613 -11.01100603 12.41955413 -10.8125 16.125 C-9.09023504 19.37349977 -9.09023504 19.37349977 -5.8125 20.125 C-4.40425107 20.20521999 -2.99252769 20.23265977 -1.58203125 20.22265625 C-0.77958984 20.21943359 0.02285156 20.21621094 0.84960938 20.21289062 C1.68298828 20.20451172 2.51636719 20.19613281 3.375 20.1875 C4.6424707 20.18073242 4.6424707 20.18073242 5.93554688 20.17382812 C8.01956155 20.16205403 10.10353977 20.1441189 12.1875 20.125 C12.1875 21.115 12.1875 22.105 12.1875 23.125 C5.56833172 25.33138943 -2.96976447 25.13149169 -9.5625 22.8125 C-12.8125 21.125 -12.8125 21.125 -14.8125 18.125 C-15.43739744 13.21771716 -15.21286451 8.52566827 -12.8125 4.125 C-9.04213149 0.35463149 -5.18226941 -0.12487396 0 0 Z " fill="#1C1C1C" transform="translate(543.8125,191.875)"/>
<path d="M0 0 C0.66 0.33 1.32 0.66 2 1 C0.89184175 4.21365891 0.01470446 4.9914224 -3 6.75 C-6 8 -6 8 -8 8 C-6.80868303 15.5954719 -6.80868303 15.5954719 -3 22 C-0.71449708 22.65788308 1.56135109 23.07337361 3.90234375 23.48828125 C6 24 6 24 8.0625 25.75 C9.25500809 28.61201942 9.20925212 30.93096897 9 34 C7.515 33.505 7.515 33.505 6 33 C5.67 31.02 5.34 29.04 5 27 C4.12988281 27.01353516 4.12988281 27.01353516 3.2421875 27.02734375 C-0.35231896 26.89091859 -3.02335389 26.7817188 -5.8984375 24.48046875 C-10.28843646 19.39449435 -11.12774454 15.77046071 -11 9 C-11.66 9 -12.32 9 -13 9 C-13 7.68 -13 6.36 -13 5 C-12.39671875 4.80664062 -11.7934375 4.61328125 -11.171875 4.4140625 C-10.37265625 4.15367187 -9.5734375 3.89328125 -8.75 3.625 C-7.96109375 3.36976563 -7.1721875 3.11453125 -6.359375 2.8515625 C-3.98216847 2.05806266 -3.98216847 2.05806266 -1.828125 0.8359375 C-1.22484375 0.56007812 -0.6215625 0.28421875 0 0 Z " fill="#1C1C1C" transform="translate(714,241)"/>
<path d="M0 0 C19.8 0.495 19.8 0.495 40 1 C39.67 1.99 39.34 2.98 39 4 C34.58920774 4.04980916 30.17856888 4.08591133 25.76757812 4.10986328 C24.27015324 4.11985901 22.77274756 4.13346014 21.27539062 4.15087891 C19.11062857 4.17541288 16.94612677 4.18654744 14.78125 4.1953125 C13.48251953 4.20578613 12.18378906 4.21625977 10.84570312 4.22705078 C6.61709702 3.97739336 3.06767713 3.14353958 -1 2 C-0.67 1.34 -0.34 0.68 0 0 Z " fill="#121212" transform="translate(648,170)"/>
<path d="M0 0 C3.95831809 -0.02892857 7.91660917 -0.04677427 11.875 -0.0625 C13.56689453 -0.07506836 13.56689453 -0.07506836 15.29296875 -0.08789062 C16.36933594 -0.09111328 17.44570313 -0.09433594 18.5546875 -0.09765625 C19.54968262 -0.10289307 20.54467773 -0.10812988 21.56982422 -0.11352539 C24 0 24 0 26 1 C26 1.66 26 2.32 26 3 C24.36804688 3.11214844 24.36804688 3.11214844 22.703125 3.2265625 C12.84927206 4.05586384 5.5498743 5.76134869 -3 11 C-3.33 10.34 -3.66 9.68 -4 9 C-0.98112756 5.51668565 1.56909529 4.20842856 6 3 C3.69 2.67 1.38 2.34 -1 2 C-0.67 1.34 -0.34 0.68 0 0 Z " fill="#111111" transform="translate(667,245)"/>
<path d="M0 0 C0.33 0 0.66 0 1 0 C1.20625 0.78375 1.4125 1.5675 1.625 2.375 C3.79690622 8.10093457 6.74170776 13.75837412 11.1171875 18.1015625 C13.49624527 20.50036349 14.12166281 22.7794303 15 26 C14.34 26.33 13.68 26.66 13 27 C12.67 27.66 12.34 28.32 12 29 C11 31 11 31 9 32 C9 29.69 9 27.38 9 25 C9.66 25 10.32 25 11 25 C10.38511719 24.11957031 9.77023437 23.23914063 9.13671875 22.33203125 C8.32022829 21.15891277 7.50382675 19.9857324 6.6875 18.8125 C6.28337891 18.23435547 5.87925781 17.65621094 5.46289062 17.06054688 C-1.0557437 7.6800731 -1.0557437 7.6800731 -0.6875 3.1875 C-0.460625 2.135625 -0.23375 1.08375 0 0 Z " fill="#242424" transform="translate(549,243)"/>
<path d="M0 0 C0.33 0.66 0.66 1.32 1 2 C-0.51980469 2.27263672 -0.51980469 2.27263672 -2.0703125 2.55078125 C-3.42196353 2.80421582 -4.77352119 3.05814865 -6.125 3.3125 C-6.79015625 3.43044922 -7.4553125 3.54839844 -8.140625 3.66992188 C-12.54667864 4.51225566 -16.02304456 5.98898995 -20 8 C-21.32 8 -22.64 8 -24 8 C-24.33 8.66 -24.66 9.32 -25 10 C-25.99 10.33 -26.98 10.66 -28 11 C-28.042721 9.33388095 -28.04063832 7.66617115 -28 6 C-26.42184465 4.42184465 -24.54488353 4.49866574 -22.375 4.125 C-19.13519446 3.51119069 -16.2469866 2.81503868 -13.25 1.4375 C-8.86730144 -0.50100129 -4.61921216 -1.88190125 0 0 Z " fill="#272727" transform="translate(688,254)"/>
<path d="M0 0 C0.33 0 0.66 0 1 0 C1.29363808 4.99184736 1.07836372 7.97444744 -2 12 C-4.81207235 13.40603618 -7.24009466 13.24557505 -10.375 13.3125 C-12.08816406 13.36857422 -12.08816406 13.36857422 -13.8359375 13.42578125 C-17 13 -17 13 -19.3984375 11.15234375 C-21.32922899 8.55754836 -21.35133034 7.16197302 -21 4 C-20.01 3.67 -19.02 3.34 -18 3 C-17.34 4.98 -16.68 6.96 -16 9 C-12.04 9 -8.08 9 -4 9 C-2.68 6.03 -1.36 3.06 0 0 Z " fill="#0E0E0E" transform="translate(721,271)"/>
<path d="M0 0 C0.33 0 0.66 0 1 0 C1.1799928 5.21979128 0.97094808 9.07262981 -1 14 C-1.66 14 -2.32 14 -3 14 C-3.33 14.99 -3.66 15.98 -4 17 C-7.17360264 19.61355512 -8.58923992 20.02738401 -12.75 19.75 C-16 19 -16 19 -17 18 C-17.04092937 15.66702567 -17.04241723 13.33294775 -17 11 C-16.79375 11.639375 -16.5875 12.27875 -16.375 12.9375 C-15.10852594 15.27092448 -15.10852594 15.27092448 -12.1875 16.0625 C-8.81473876 16.32016485 -8.81473876 16.32016485 -6.1875 13.75 C-3.85710129 11.14313307 -3.85710129 11.14313307 -3 8 C-2.34 7.67 -1.68 7.34 -1 7 C-0.59270772 4.67843403 -0.25561323 2.3431213 0 0 Z " fill="#161616" transform="translate(612,250)"/>
<path d="M0 0 C3.02089478 -0.02716089 6.04154129 -0.04691657 9.0625 -0.0625 C9.91005859 -0.07087891 10.75761719 -0.07925781 11.63085938 -0.08789062 C16.5361722 -0.10683006 21.16444755 0.16673655 26 1 C26 1.99 26 2.98 26 4 C13.13 3.505 13.13 3.505 0 3 C0 2.01 0 1.02 0 0 Z " fill="#1A1A1A" transform="translate(534,228)"/>
<path d="M0 0 C5.94 0 11.88 0 18 0 C18 0.33 18 0.66 18 1 C20.31 1.33 22.62 1.66 25 2 C24.67 2.66 24.34 3.32 24 4 C16.08 4 8.16 4 0 4 C0 2.68 0 1.36 0 0 Z " fill="#3A3A3A" transform="translate(649,245)"/>
<path d="M0 0 C-1.56611066 3.13222131 -3.81701086 3.70322665 -7 5 C-12.58597592 5.52697886 -17.62164699 4.36593092 -23 3 C-23 2.67 -23 2.34 -23 2 C-15.27111181 0.04596958 -7.94957992 -0.22428282 0 0 Z " fill="#E9E9E9" transform="translate(671,248)"/>
<path d="M0 0 C0.66 0.33 1.32 0.66 2 1 C0.89184175 4.21365891 0.01470446 4.9914224 -3 6.75 C-6 8 -6 8 -8 8 C-7.938125 8.94875 -7.87625 9.8975 -7.8125 10.875 C-7.874375 11.90625 -7.93625 12.9375 -8 14 C-8.99 14.66 -9.98 15.32 -11 16 C-11 13.69 -11 11.38 -11 9 C-11.66 9 -12.32 9 -13 9 C-13 7.68 -13 6.36 -13 5 C-12.39671875 4.80664062 -11.7934375 4.61328125 -11.171875 4.4140625 C-10.37265625 4.15367187 -9.5734375 3.89328125 -8.75 3.625 C-7.96109375 3.36976563 -7.1721875 3.11453125 -6.359375 2.8515625 C-3.98216847 2.05806266 -3.98216847 2.05806266 -1.828125 0.8359375 C-1.22484375 0.56007812 -0.6215625 0.28421875 0 0 Z " fill="#292929" transform="translate(714,241)"/>
<path d="M0 0 C1.46373047 0.02707031 1.46373047 0.02707031 2.95703125 0.0546875 C3.69308594 0.07789063 4.42914062 0.10109375 5.1875 0.125 C5.1875 1.115 5.1875 2.105 5.1875 3.125 C4.19169922 3.19847656 4.19169922 3.19847656 3.17578125 3.2734375 C-3.56681906 3.74617876 -3.56681906 3.74617876 -9.8125 6.125 C-10.8025 7.61 -10.8025 7.61 -11.8125 9.125 C-12.4725 8.795 -13.1325 8.465 -13.8125 8.125 C-13.23905063 5.25775314 -12.9510485 4.2635485 -10.8125 2.125 C-7.0831766 0.28288171 -4.13515316 -0.09964224 0 0 Z " fill="#222222" transform="translate(543.8125,191.875)"/>
<path d="M0 0 C0.99 0 1.98 0 3 0 C5.80512399 5.5439852 6.3935213 9.77270879 6.1875 15.9375 C6.17396484 16.71673828 6.16042969 17.49597656 6.14648438 18.29882812 C6.11150224 20.19952404 6.05770959 22.09985834 6 24 C5.34 24.33 4.68 24.66 4 25 C3.96261719 24.11699219 3.92523437 23.23398438 3.88671875 22.32421875 C3.45872372 14.51121137 2.41614776 7.44598996 0 0 Z " fill="#161616" transform="translate(744,190)"/>
<path d="M0 0 C0.33 0.99 0.66 1.98 1 3 C-5 9 -5 9 -8.875 9.25 C-12.69612711 9.20891261 -12.69612711 9.20891261 -15 7.625 C-16 6 -16 6 -16 4 C-15.34773437 4.13019531 -14.69546875 4.26039063 -14.0234375 4.39453125 C-8.87374947 5.33393076 -8.87374947 5.33393076 -4 3.953125 C-2.174891 2.44533192 -2.174891 2.44533192 0 0 Z " fill="#101010" transform="translate(662,263)"/>
<path d="M0 0 C1.8125 0.8125 1.8125 0.8125 2.8125 2.8125 C2.29300781 3.04324219 1.77351562 3.27398437 1.23828125 3.51171875 C-3.44734524 5.70296367 -6.59442758 8.01410916 -10.1875 11.8125 C-11.1775 12.1425 -12.1675 12.4725 -13.1875 12.8125 C-11.78570868 8.35225488 -9.6323567 5.92927511 -6.1875 2.8125 C-5.1665625 1.884375 -5.1665625 1.884375 -4.125 0.9375 C-2.1875 -0.1875 -2.1875 -0.1875 0 0 Z " fill="#222222" transform="translate(521.1875,175.1875)"/>
<path d="M0 0 C1.32660757 3.9975108 0.19942777 6.18934007 -1.23046875 10.07421875 C-2.84492018 16.21241225 -2.77520721 22.68254754 -3 29 C-3.33 29 -3.66 29 -4 29 C-4.08736736 25.27098186 -4.14051482 21.54222835 -4.1875 17.8125 C-4.21263672 16.75740234 -4.23777344 15.70230469 -4.26367188 14.61523438 C-4.27333984 13.59365234 -4.28300781 12.57207031 -4.29296875 11.51953125 C-4.31653442 10.11344604 -4.31653442 10.11344604 -4.34057617 8.67895508 C-3.89633929 5.18461003 -2.50536206 2.50536206 0 0 Z " fill="#101010" transform="translate(510,186)"/>
<path d="M0 0 C0.99 0 1.98 0 3 0 C3.33 1.65 3.66 3.3 4 5 C4.66 3.68 5.32 2.36 6 1 C6.99 1 7.98 1 9 1 C8.45276317 4.37462715 7.9451 6.08235 6 9 C4.35 8.67 2.7 8.34 1 8 C0.67 5.36 0.34 2.72 0 0 Z " fill="#222222" transform="translate(640,216)"/>
<path d="M0 0 C0.99 0.33 1.98 0.66 3 1 C3.33 7.93 3.66 14.86 4 22 C3.34 22 2.68 22 2 22 C1.67 22.66 1.34 23.32 1 24 C-0.06309567 18.82682579 -0.11693938 13.87630664 -0.0625 8.625 C-0.05798828 7.79355469 -0.05347656 6.96210938 -0.04882812 6.10546875 C-0.03713164 4.07028103 -0.01919935 2.03513077 0 0 Z " fill="#2E2E2E" transform="translate(505,198)"/>
<path d="M0 0 C0.99 0 1.98 0 3 0 C3 0.99 3 1.98 3 3 C3.66 3.33 4.32 3.66 5 4 C5.33 2.68 5.66 1.36 6 0 C6.99 0.33 7.98 0.66 9 1 C8.34 2.98 7.68 4.96 7 7 C4.69 7 2.38 7 0 7 C-1.125 2.25 -1.125 2.25 0 0 Z " fill="#1B1B1B" transform="translate(708,223)"/>
<path d="M0 0 C0.99 0 1.98 0 3 0 C3 1.32 3 2.64 3 4 C2.34 4 1.68 4 1 4 C0.67 4.99 0.34 5.98 0 7 C-1.99954746 7.04254356 -4.00041636 7.04080783 -6 7 C-7 6 -7 6 -7.0625 3.4375 C-7.041875 2.633125 -7.02125 1.82875 -7 1 C-6.01 1 -5.02 1 -4 1 C-4 1.99 -4 2.98 -4 4 C-3.01 4 -2.02 4 -1 4 C-0.67 2.68 -0.34 1.36 0 0 Z " fill="#232323" transform="translate(630,179)"/>
<path d="M0 0 C0.99 0 1.98 0 3 0 C3.33 0.66 3.66 1.32 4 2 C5.32 1.67 6.64 1.34 8 1 C7.49396008 3.16874252 7.00016187 4.99967627 6 7 C4.33388095 7.042721 2.66617115 7.04063832 1 7 C0 6 0 6 -0.0625 2.9375 C-0.041875 1.968125 -0.02125 0.99875 0 0 Z " fill="#2A2A2A" transform="translate(730,189)"/>
<path d="M0 0 C2.31 0 4.62 0 7 0 C6.67 1.98 6.34 3.96 6 6 C4.125 6.625 4.125 6.625 2 7 C0 5 0 5 -0.125 2.375 C-0.08375 1.59125 -0.0425 0.8075 0 0 Z " fill="#1E1E1E" transform="translate(557,237)"/>
<path d="M0 0 C3.63 0.33 7.26 0.66 11 1 C11 1.99 11 2.98 11 4 C7.04 3.67 3.08 3.34 -1 3 C-0.67 2.01 -0.34 1.02 0 0 Z " fill="#222222" transform="translate(549,228)"/>
<path d="M0 0 C2.625 0.9375 2.625 0.9375 5 2 C4.0409375 2.1546875 4.0409375 2.1546875 3.0625 2.3125 C2.381875 2.539375 1.70125 2.76625 1 3 C0.67 3.99 0.34 4.98 0 6 C-2.97 6 -5.94 6 -9 6 C-9 5.67 -9 5.34 -9 5 C-7.02 4.67 -5.04 4.34 -3 4 C-2.67 3.01 -2.34 2.02 -2 1 C-1.34 0.67 -0.68 0.34 0 0 Z " fill="#2D2D2D" transform="translate(597,244)"/>
<path d="M0 0 C1.4540625 0.0309375 1.4540625 0.0309375 2.9375 0.0625 C3.2675 1.0525 3.5975 2.0425 3.9375 3.0625 C2.6175 3.0625 1.2975 3.0625 -0.0625 3.0625 C-0.3925 3.7225 -0.7225 4.3825 -1.0625 5.0625 C-2.0525 5.3925 -3.0425 5.7225 -4.0625 6.0625 C-4.105221 4.39638095 -4.10313832 2.72867115 -4.0625 1.0625 C-3.0625 0.0625 -3.0625 0.0625 0 0 Z " fill="#2F2F2F" transform="translate(664.0625,258.9375)"/>
<path d="M0 0 C1.98 0 3.96 0 6 0 C6 0.99 6 1.98 6 3 C4.02 3.33 2.04 3.66 0 4 C0 2.68 0 1.36 0 0 Z " fill="#1E1E1E" transform="translate(524,189)"/>
<path d="M0 0 C-0.33 0.66 -0.66 1.32 -1 2 C-3.64860427 2.59355614 -6.29197322 2.74209269 -9 3 C-8.67 2.01 -8.34 1.02 -8 0 C-5.04215769 -1.22393475 -3.00272755 -0.96516243 0 0 Z " fill="#090909" transform="translate(531,174)"/>
<path d="M0 0 C0 1.32 0 2.64 0 4 C-2.97 3.505 -2.97 3.505 -6 3 C-6 2.34 -6 1.68 -6 1 C-4 0 -4 0 0 0 Z " fill="#2B2B2B" transform="translate(574,188)"/>
<path d="M0 0 C0.33 0.99 0.66 1.98 1 3 C1.99 3.33 2.98 3.66 4 4 C4 5.32 4 6.64 4 8 C2.68 7.67 1.36 7.34 0 7 C0 4.69 0 2.38 0 0 Z " fill="#333333" transform="translate(530,166)"/>
<path d="M0 0 C0.99 0.33 1.98 0.66 3 1 C0.63707344 3.52588702 -0.66462511 4.88820837 -4 6 C-3.6875 4.125 -3.6875 4.125 -3 2 C-2.01 1.34 -1.02 0.68 0 0 Z " fill="#181818" transform="translate(667,250)"/>
<path d="M0 0 C0.66 0.33 1.32 0.66 2 1 C2 1.66 2 2.32 2 3 C-0.31 3.33 -2.62 3.66 -5 4 C-3 1 -3 1 0 0 Z " fill="#0F0F0F" transform="translate(671,257)"/>
<path d="M0 0 C0.66 0.33 1.32 0.66 2 1 C0.68 2.32 -0.64 3.64 -2 5 C-2.99 4.67 -3.98 4.34 -5 4 C-3.35 2.68 -1.7 1.36 0 0 Z " fill="#090909" transform="translate(718,240)"/>
</svg>
