<?xml version="1.0" encoding="UTF-8"?>
<svg version="1.1" xmlns="http://www.w3.org/2000/svg" width="800" height="300">
<path d="M0 0 C264 0 528 0 800 0 C800 99 800 198 800 300 C536 300 272 300 0 300 C0 201 0 102 0 0 Z " fill="#FEFEFE" transform="translate(0,0)"/>
<path d="M0 0 C0 28.71 0 57.42 0 87 C-3.3 87 -6.6 87 -10 87 C-10.103125 87.763125 -10.20625 88.52625 -10.3125 89.3125 C-11.35231317 93.3772242 -11.35231317 93.3772242 -14 95 C-20.52341816 95.85553025 -20.52341816 95.85553025 -23.8203125 93.9453125 C-25.99249062 92.17189171 -27.73772527 90.52454947 -29 88 C-29.11697217 82.34355994 -28.96841169 77.50958293 -25.875 72.6875 C-22.04659143 70.44039062 -20.26100457 70.97148165 -16 72 C-14.0509375 72.2784375 -14.0509375 72.2784375 -12.0625 72.5625 C-11.051875 72.706875 -10.04125 72.85125 -9 73 C-9.96099609 72.39478516 -9.96099609 72.39478516 -10.94140625 71.77734375 C-18.88202433 66.20352689 -23.77917188 59.41438006 -26 50 C-27.7819346 36.51116951 -27.00994278 21.28754003 -18.81640625 9.97265625 C-15.68538846 6.5723036 -11.96942242 4.3060454 -8 2 C-5 0 -5 0 0 0 Z " fill="#F9F9F9" transform="translate(800,173)"/>
<path d="M0 0 C0 0.99 0 1.98 0 3 C-9.41002278 7.22323462 -9.41002278 7.22323462 -14 9 C-14 9.66 -14 10.32 -14 11 C-14.66 11 -15.32 11 -16 11 C-16.433125 12.3921875 -16.433125 12.3921875 -16.875 13.8125 C-18 17 -18 17 -20 20 C-22.01640552 26.21605862 -22.36501976 32.51284365 -22.375 39 C-22.39949219 39.83789062 -22.42398438 40.67578125 -22.44921875 41.5390625 C-22.4893115 50.17236709 -19.25486151 57.19959099 -14 64 C-9.63100892 68.26969583 -5.69558507 70.13420489 0 72 C0 76.95 0 81.9 0 87 C-3.3 87 -6.6 87 -10 87 C-10.103125 87.763125 -10.20625 88.52625 -10.3125 89.3125 C-11.35231317 93.3772242 -11.35231317 93.3772242 -14 95 C-20.52341816 95.85553025 -20.52341816 95.85553025 -23.8203125 93.9453125 C-25.99249062 92.17189171 -27.73772527 90.52454947 -29 88 C-29.11697217 82.34355994 -28.96841169 77.50958293 -25.875 72.6875 C-22.04659143 70.44039062 -20.26100457 70.97148165 -16 72 C-14.0509375 72.2784375 -14.0509375 72.2784375 -12.0625 72.5625 C-11.051875 72.706875 -10.04125 72.85125 -9 73 C-9.96099609 72.39478516 -9.96099609 72.39478516 -10.94140625 71.77734375 C-18.88202433 66.20352689 -23.77917188 59.41438006 -26 50 C-27.7819346 36.51116951 -27.00994278 21.28754003 -18.81640625 9.97265625 C-15.68538846 6.5723036 -11.96942242 4.3060454 -8 2 C-4.77208445 -0.1519437 -3.71599191 -0.20086443 0 0 Z " fill="#101010" transform="translate(800,173)"/>
<path d="M0 0 C2 0.875 2 0.875 3.3125 2.4375 C6.0373442 4.75866357 8.52322794 4.10298505 12 3.875 C14.67810202 3.59408021 17.33233515 3.2494091 20 2.875 C20 5.515 20 8.155 20 10.875 C15.38 11.205 10.76 11.535 6 11.875 C6.33 13.525 6.66 15.175 7 16.875 C5 18.875 5 18.875 2.1875 19.3125 C-1 18.875 -1 18.875 -3.9375 17.0625 C-6.64642237 12.87598361 -6.21689617 10.22917751 -5.6875 5.3984375 C-4.79807091 2.13382845 -3.64775511 -0.22798469 0 0 Z " fill="#F6F6F6" transform="translate(780,246.125)"/>
<path d="M0 0 C0 0.99 0 1.98 0 3 C-9.41002278 7.22323462 -9.41002278 7.22323462 -14 9 C-14 9.66 -14 10.32 -14 11 C-14.66 11 -15.32 11 -16 11 C-16.433125 12.3921875 -16.433125 12.3921875 -16.875 13.8125 C-18 17 -18 17 -20 20 C-22.08320028 26.32513207 -22.28192139 32.65044209 -22.1875 39.25 C-22.18685547 40.12140625 -22.18621094 40.9928125 -22.18554688 41.890625 C-22.15703151 46.04753163 -22.04637509 49.94843563 -21 54 C-22.485 54.495 -22.485 54.495 -24 55 C-26.5585895 50.11727342 -26.34572274 45.31198969 -26.3125 39.9375 C-26.30686035 38.9980957 -26.3012207 38.05869141 -26.29541016 37.09082031 C-26.10607982 26.22963269 -24.61428163 16.2692736 -17 8 C-14.13854147 5.72550732 -11.15656991 3.8338168 -8 2 C-4.77208445 -0.1519437 -3.71599191 -0.20086443 0 0 Z " fill="#121212" transform="translate(800,173)"/>
<path d="M0 0 C0.99 0 1.98 0 3 0 C2.95359375 0.74765625 2.9071875 1.4953125 2.859375 2.265625 C2.51529879 8.25605818 2.51529879 8.25605818 4.625 13.6875 C7.59345714 15.32796316 9.65865579 15.30375856 13 15 C13.5534764 12.92446352 14 11.15634036 14 9 C16.76452033 7.61773984 19.0461363 7.90474613 22.125 7.9375 C23.22070312 7.94652344 24.31640625 7.95554687 25.4453125 7.96484375 C26.28835938 7.97644531 27.13140625 7.98804688 28 8 C28 8.99 28 9.98 28 11 C24.7 11 21.4 11 18 11 C17.896875 11.763125 17.79375 12.52625 17.6875 13.3125 C16.64768683 17.3772242 16.64768683 17.3772242 14 19 C7.47658184 19.85553025 7.47658184 19.85553025 4.1796875 17.9453125 C2.00750938 16.17189171 0.26227473 14.52454947 -1 12 C-0.91219597 9.95501575 -0.75758462 7.91255052 -0.5625 5.875 C-0.46066406 4.77929688 -0.35882812 3.68359375 -0.25390625 2.5546875 C-0.17011719 1.71164063 -0.08632813 0.86859375 0 0 Z " fill="#151515" transform="translate(772,249)"/>
<path d="M0 0 C0 0.99 0 1.98 0 3 C-9.41002278 7.22323462 -9.41002278 7.22323462 -14 9 C-14 9.66 -14 10.32 -14 11 C-14.66 11 -15.32 11 -16 11 C-16.268125 11.639375 -16.53625 12.27875 -16.8125 12.9375 C-18 15 -18 15 -21 16 C-19.74887842 10.62017721 -17.41020939 8.06291465 -13 5 C-12.34128906 4.53078125 -11.68257812 4.0615625 -11.00390625 3.578125 C-4.61537366 -0.72115213 -4.61537366 -0.72115213 0 0 Z " fill="#181818" transform="translate(800,173)"/>
<path d="M0 0 C0.99 0.33 1.98 0.66 3 1 C3.06058594 2.31355469 3.12117187 3.62710938 3.18359375 4.98046875 C3.26803256 6.71615541 3.35267888 8.45183198 3.4375 10.1875 C3.47681641 11.05181641 3.51613281 11.91613281 3.55664062 12.80664062 C3.76347016 16.95914122 4.00103531 20.94537862 5 25 C4.01 25.33 3.02 25.66 2 26 C0.40754605 22.48172372 -0.24261382 19.77302648 -0.1953125 15.91796875 C-0.18886719 14.98662109 -0.18242188 14.05527344 -0.17578125 13.09570312 C-0.15902344 12.13599609 -0.14226563 11.17628906 -0.125 10.1875 C-0.11597656 9.20845703 -0.10695313 8.22941406 -0.09765625 7.22070312 C-0.07417182 4.81354939 -0.0413284 2.40690257 0 0 Z " fill="#343434" transform="translate(774,202)"/>
<path d="M0 0 C0.66 0 1.32 0 2 0 C2 5.61 2 11.22 2 17 C-2.08305952 11.55592064 -2.31092462 8.52941694 -2 2 C-1.34 1.34 -0.68 0.68 0 0 Z " fill="#323232" transform="translate(798,196)"/>
<path d="M0 0 C1.09570312 0.00902344 2.19140625 0.01804687 3.3203125 0.02734375 C4.16335938 0.03894531 5.00640625 0.05054688 5.875 0.0625 C5.875 1.0525 5.875 2.0425 5.875 3.0625 C2.575 3.0625 -0.725 3.0625 -4.125 3.0625 C-4.455 4.3825 -4.785 5.7025 -5.125 7.0625 C-8.125 3.3125 -8.125 3.3125 -8.125 1.0625 C-5.36047967 -0.31976016 -3.0788637 -0.03275387 0 0 Z " fill="#1D1D1D" transform="translate(794.125,256.9375)"/>
<path d="M0 0 C0.99 0 1.98 0 3 0 C2.125 5.75 2.125 5.75 1 8 C-0.65 8 -2.3 8 -4 8 C-4.66 6.02 -5.32 4.04 -6 2 C-4.68 2 -3.36 2 -2 2 C-1.67 2.66 -1.34 3.32 -1 4 C-0.67 2.68 -0.34 1.36 0 0 Z " fill="#1C1C1C" transform="translate(785,206)"/>
<path d="M0 0 C0.99 0 1.98 0 3 0 C3.33 1.65 3.66 3.3 4 5 C3.01 5.33 2.02 5.66 1 6 C0.67 4.02 0.34 2.04 0 0 Z " fill="#242424" transform="translate(775,222)"/>
</svg>
