<?xml version="1.0" encoding="UTF-8"?>
<svg version="1.1" xmlns="http://www.w3.org/2000/svg" width="800" height="300">
<path d="M0 0 C264 0 528 0 800 0 C800 99 800 198 800 300 C536 300 272 300 0 300 C0 201 0 102 0 0 Z " fill="#FEFEFE" transform="translate(0,0)"/>
<path d="M0 0 C4.37356702 0.5085543 7.50480992 1.26052669 11 4 C12.96457553 7.25171122 14 9.18692647 14 13 C22.58 13 31.16 13 40 13 C40.66 9.7 41.32 6.4 42 3 C42.66 2.01 43.32 1.02 44 0 C49.45473727 -0.99327538 55.34155698 -0.98016153 60.1875 1.9375 C62.91844323 4.3502008 63.40527679 6.09663011 63.67578125 9.69140625 C63.74321533 10.49908447 63.81064941 11.3067627 63.88012695 12.13891602 C63.91968506 12.75307373 63.95924316 13.36723145 64 14 C64.75804932 13.99476318 65.51609863 13.98952637 66.29711914 13.98413086 C91.72609359 13.8326652 91.72609359 13.8326652 104 14.5 C114.56212326 15.05800264 125.11348537 15.11382562 135.6875 15.125 C136.93213013 15.12874634 136.93213013 15.12874634 138.2019043 15.13256836 C140.57605174 15.13845837 142.95006987 15.13697169 145.32421875 15.1328125 C146.03986496 15.13479645 146.75551117 15.1367804 147.49284363 15.13882446 C150.84105665 15.12320612 153.77804891 14.87090058 157 14 C160.97584126 13.77286361 164.95579107 13.81018084 168.9375 13.8125 C170.62153931 13.8115332 170.62153931 13.8115332 172.33959961 13.81054688 C180.07432275 13.8598376 187.42882032 14.31417073 195 16 C195.38929688 15.34644531 195.77859375 14.69289062 196.1796875 14.01953125 C198 12 198 12 200.4453125 11.57421875 C201.32960938 11.61160156 202.21390625 11.64898437 203.125 11.6875 C204.01445313 11.71199219 204.90390625 11.73648438 205.8203125 11.76171875 C208 12 208 12 209 13 C208.64467586 16.62430619 208.129985 19.68153675 206.75 23.0625 C205.72918313 27.06069942 207.02924185 28.44646294 209 32 C209.52980469 32.86238281 210.05960938 33.72476563 210.60546875 34.61328125 C216.1233564 44.0277513 216.62715625 53.53982163 214.33203125 64.0625 C211.10937558 73.29421231 205.10131814 77.70997793 196.5625 81.9375 C194.44885641 82.95222826 192.32929193 83.95319808 190.20654297 84.94873047 C187.94339328 86.0269693 185.70658388 87.1476999 183.47265625 88.28515625 C182.74425537 88.65584229 182.01585449 89.02652832 181.26538086 89.40844727 C179.86049521 90.12491171 178.45633552 90.84280183 177.05297852 91.56225586 C172.22232655 94 172.22232655 94 170 94 C171.19131697 101.5954719 171.19131697 101.5954719 175 108 C177.280248 108.69472977 179.48240327 109.12259511 181.84375 109.4453125 C184.43679865 110.11236487 185.41738568 110.85501015 187 113 C187.55218463 118.61387712 187.12509183 122.13874605 184 127 C180.44223788 129.37184142 178.71979393 129.29824394 174.5 129.3125 C173.3553125 129.32925781 172.210625 129.34601563 171.03125 129.36328125 C168 129 168 129 166.08984375 127.79296875 C164.24787708 124.76263649 164.99503998 121.79531813 165.28515625 118.375 C165.25839849 115.82417737 165.25839849 115.82417737 162.99609375 114.375 C162.33738281 113.92125 161.67867187 113.4675 161 113 C161 112.01 161 111.02 161 110 C160.34 110 159.68 110 159 110 C157.02 105.545 157.02 105.545 155 101 C153.700625 101.28875 152.40125 101.5775 151.0625 101.875 C143.375 103.58333333 135.6875 105.29166667 128 107 C127.95875 107.721875 127.9175 108.44375 127.875 109.1875 C126.67670118 113.03917478 124.46156072 115.11046798 121 117 C116.70631061 117.67795096 114.8124795 117.51221534 111.125 115.1875 C107.72711744 111.68967972 107.84095511 108.62121116 107.8125 103.9375 C107.79832031 102.87402344 107.78414062 101.81054688 107.76953125 100.71484375 C108 98 108 98 110 96 C114.13997567 95.8028583 117.07703567 95.69234522 121 97 C127.90874351 97.69087435 129.88171804 96.16368087 137 93 C117.2 93.66 97.4 94.32 77 95 C77 97.97 77 100.94 77 104 C76.05987349 108.49171553 73.4189323 111.07040258 69.94140625 113.89453125 C68 115 68 115 64.25 115.0625 C59.46431501 113.49794914 59.46431501 113.49794914 58 111 C57.95734973 109.00045481 57.95400405 106.99947102 58 105 C56.67935547 104.81824219 56.67935547 104.81824219 55.33203125 104.6328125 C54.17058594 104.46523438 53.00914062 104.29765625 51.8125 104.125 C50.66394531 103.96257812 49.51539063 103.80015625 48.33203125 103.6328125 C45.29473812 103.05597605 42.84460185 102.16029812 40 101 C37.5679241 100.55747943 37.5679241 100.55747943 35.1875 100.375 C34.39730469 100.30023438 33.60710938 100.22546875 32.79296875 100.1484375 C31.90544922 100.07496094 31.90544922 100.07496094 31 100 C32.42673359 102.88634122 33.90494836 105.54445319 36 108 C39.55652459 108.90137027 39.55652459 108.90137027 43 109 C45.09807076 110.56365651 45.88333597 111.59905969 46.6171875 114.12109375 C46.70226562 114.88550781 46.78734375 115.64992188 46.875 116.4375 C46.97554687 117.19933594 47.07609375 117.96117187 47.1796875 118.74609375 C46.94204234 121.72699068 46.10543046 122.89912675 44 125 C38.18814266 127.33693564 32.79289053 127.43301402 27 125 C24.8046875 123.75 24.8046875 123.75 23 122 C22.75 119.51171875 22.75 119.51171875 23 116.6875 C23.19130762 111.50169707 22.46208099 109.03909449 19 105 C15 100.22222222 15 100.22222222 15 97 C14.34 97 13.68 97 13 97 C12.649375 96.21625 12.29875 95.4325 11.9375 94.625 C9.40889661 91.19915024 7.58373396 91.04834661 3.5234375 90.3125 C1.03096063 90.00383413 -1.43012841 89.87655503 -3.9375 89.75 C-9.93793657 89.23594391 -14.16231306 86.40270698 -19 83 C-19.99 82.319375 -20.98 81.63875 -22 80.9375 C-24.24676478 78.76094662 -24.97455557 76.9185726 -26 74 C-26.66 73.67 -27.32 73.34 -28 73 C-33.23692498 62.06352415 -31.39034686 42.94269043 -28.10546875 31.46875 C-25.59928968 25.87191195 -21.83840899 23.00276854 -16.5625 20.125 C-12.62405477 18.88128045 -9.10629973 18.36020173 -5 18 C-5.103125 16.88625 -5.20625 15.7725 -5.3125 14.625 C-5.3625998 9.03386248 -2.71971933 4.74008226 0 0 Z " fill="#FCFCFC" transform="translate(528,155)"/>
<path d="M0 0 C4.37356702 0.5085543 7.50480992 1.26052669 11 4 C12.96457553 7.25171122 14 9.18692647 14 13 C22.58 13 31.16 13 40 13 C40.66 9.7 41.32 6.4 42 3 C42.66 2.01 43.32 1.02 44 0 C49.45473727 -0.99327538 55.34155698 -0.98016153 60.1875 1.9375 C62.91844323 4.3502008 63.40527679 6.09663011 63.67578125 9.69140625 C63.74321533 10.49908447 63.81064941 11.3067627 63.88012695 12.13891602 C63.91968506 12.75307373 63.95924316 13.36723145 64 14 C64.75804932 13.99476318 65.51609863 13.98952637 66.29711914 13.98413086 C91.72609359 13.8326652 91.72609359 13.8326652 104 14.5 C114.56212326 15.05800264 125.11348537 15.11382562 135.6875 15.125 C136.93213013 15.12874634 136.93213013 15.12874634 138.2019043 15.13256836 C140.57605174 15.13845837 142.95006987 15.13697169 145.32421875 15.1328125 C146.03986496 15.13479645 146.75551117 15.1367804 147.49284363 15.13882446 C150.84105665 15.12320612 153.77804891 14.87090058 157 14 C160.97584126 13.77286361 164.95579107 13.81018084 168.9375 13.8125 C170.62153931 13.8115332 170.62153931 13.8115332 172.33959961 13.81054688 C180.07432275 13.8598376 187.42882032 14.31417073 195 16 C195.38929688 15.34644531 195.77859375 14.69289062 196.1796875 14.01953125 C198 12 198 12 200.4453125 11.57421875 C201.32960938 11.61160156 202.21390625 11.64898437 203.125 11.6875 C204.01445313 11.71199219 204.90390625 11.73648438 205.8203125 11.76171875 C208 12 208 12 209 13 C208.64467586 16.62430619 208.129985 19.68153675 206.75 23.0625 C205.72918313 27.06069942 207.02924185 28.44646294 209 32 C209.52980469 32.86238281 210.05960938 33.72476563 210.60546875 34.61328125 C216.1233564 44.0277513 216.62715625 53.53982163 214.33203125 64.0625 C211.10937558 73.29421231 205.10131814 77.70997793 196.5625 81.9375 C194.44885641 82.95222826 192.32929193 83.95319808 190.20654297 84.94873047 C187.94339328 86.0269693 185.70658388 87.1476999 183.47265625 88.28515625 C182.74425537 88.65584229 182.01585449 89.02652832 181.26538086 89.40844727 C179.86049521 90.12491171 178.45633552 90.84280183 177.05297852 91.56225586 C172.22232655 94 172.22232655 94 170 94 C171.19131697 101.5954719 171.19131697 101.5954719 175 108 C177.280248 108.69472977 179.48240327 109.12259511 181.84375 109.4453125 C184.43679865 110.11236487 185.41738568 110.85501015 187 113 C187.55218463 118.61387712 187.12509183 122.13874605 184 127 C180.44223788 129.37184142 178.71979393 129.29824394 174.5 129.3125 C173.3553125 129.32925781 172.210625 129.34601563 171.03125 129.36328125 C168 129 168 129 166.08984375 127.79296875 C164.24787708 124.76263649 164.99503998 121.79531813 165.28515625 118.375 C165.25839849 115.82417737 165.25839849 115.82417737 162.99609375 114.375 C162.33738281 113.92125 161.67867187 113.4675 161 113 C161 112.01 161 111.02 161 110 C160.34 110 159.68 110 159 110 C157.02 105.545 157.02 105.545 155 101 C153.700625 101.28875 152.40125 101.5775 151.0625 101.875 C143.375 103.58333333 135.6875 105.29166667 128 107 C127.95875 107.721875 127.9175 108.44375 127.875 109.1875 C126.67670118 113.03917478 124.46156072 115.11046798 121 117 C116.70631061 117.67795096 114.8124795 117.51221534 111.125 115.1875 C107.72711744 111.68967972 107.84095511 108.62121116 107.8125 103.9375 C107.79832031 102.87402344 107.78414062 101.81054688 107.76953125 100.71484375 C108 98 108 98 110 96 C114.13997567 95.8028583 117.07703567 95.69234522 121 97 C127.90874351 97.69087435 129.88171804 96.16368087 137 93 C117.2 93.66 97.4 94.32 77 95 C77 97.97 77 100.94 77 104 C76.05987349 108.49171553 73.4189323 111.07040258 69.94140625 113.89453125 C68 115 68 115 64.25 115.0625 C59.46431501 113.49794914 59.46431501 113.49794914 58 111 C57.95734973 109.00045481 57.95400405 106.99947102 58 105 C56.67935547 104.81824219 56.67935547 104.81824219 55.33203125 104.6328125 C54.17058594 104.46523438 53.00914062 104.29765625 51.8125 104.125 C50.66394531 103.96257812 49.51539063 103.80015625 48.33203125 103.6328125 C45.29473812 103.05597605 42.84460185 102.16029812 40 101 C37.5679241 100.55747943 37.5679241 100.55747943 35.1875 100.375 C34.39730469 100.30023438 33.60710938 100.22546875 32.79296875 100.1484375 C31.90544922 100.07496094 31.90544922 100.07496094 31 100 C32.42673359 102.88634122 33.90494836 105.54445319 36 108 C39.55652459 108.90137027 39.55652459 108.90137027 43 109 C45.09807076 110.56365651 45.88333597 111.59905969 46.6171875 114.12109375 C46.70226562 114.88550781 46.78734375 115.64992188 46.875 116.4375 C46.97554687 117.19933594 47.07609375 117.96117187 47.1796875 118.74609375 C46.94204234 121.72699068 46.10543046 122.89912675 44 125 C38.18814266 127.33693564 32.79289053 127.43301402 27 125 C24.8046875 123.75 24.8046875 123.75 23 122 C22.75 119.51171875 22.75 119.51171875 23 116.6875 C23.19130762 111.50169707 22.46208099 109.03909449 19 105 C15 100.22222222 15 100.22222222 15 97 C14.34 97 13.68 97 13 97 C12.649375 96.21625 12.29875 95.4325 11.9375 94.625 C9.40889661 91.19915024 7.58373396 91.04834661 3.5234375 90.3125 C1.03096063 90.00383413 -1.43012841 89.87655503 -3.9375 89.75 C-9.93793657 89.23594391 -14.16231306 86.40270698 -19 83 C-19.99 82.319375 -20.98 81.63875 -22 80.9375 C-24.24676478 78.76094662 -24.97455557 76.9185726 -26 74 C-26.66 73.67 -27.32 73.34 -28 73 C-33.23692498 62.06352415 -31.39034686 42.94269043 -28.10546875 31.46875 C-25.59928968 25.87191195 -21.83840899 23.00276854 -16.5625 20.125 C-12.62405477 18.88128045 -9.10629973 18.36020173 -5 18 C-5.103125 16.88625 -5.20625 15.7725 -5.3125 14.625 C-5.3625998 9.03386248 -2.71971933 4.74008226 0 0 Z M1 3 C-2.73512552 10.70426512 -2.73512552 10.70426512 -2 19 C-2.99 18.67 -3.98 18.34 -5 18 C-5 18.99 -5 19.98 -5 21 C-6.7325 21.0928125 -6.7325 21.0928125 -8.5 21.1875 C-14.74241409 21.98440393 -19.19945289 24.95613571 -23.3125 29.625 C-28.89123407 40.78246814 -30.01631504 54.44599912 -26.875 66.5625 C-24.25238553 73.80239346 -19.31651656 79.66513569 -13 84 C-4.10816384 87.82909701 4.43763813 88.1392577 14 88 C13.92265625 88.70125 13.8453125 89.4025 13.765625 90.125 C14.07678336 93.94187583 15.56712496 95.87705469 17.75 99 C18.79414062 100.5159375 18.79414062 100.5159375 19.859375 102.0625 C21.2631144 103.98879932 22.71562742 105.88067529 24.21875 107.73046875 C25.94283031 109.9271588 26.59636363 111.27545449 27 114 C26.01 114.495 26.01 114.495 25 115 C25.50355538 118.72630982 26.05209511 120.62566937 29 123 C33.62269067 124.47045589 37.12746246 124.3826919 41.5625 122.4375 C44.28219966 120.19433956 44.28219966 120.19433956 44.5 116.875 C44.26313679 113.87947452 44.26313679 113.87947452 42 112 C40.700625 111.9175 39.40125 111.835 38.0625 111.75 C35.91015625 111.55078125 35.91015625 111.55078125 34 111 C32 107.9375 32 107.9375 31 105 C30.34 105 29.68 105 29 105 C28.896875 104.05125 28.79375 103.1025 28.6875 102.125 C28.31460705 98.70892499 28.31460705 98.70892499 25 97 C23.8125 94.375 23.8125 94.375 23 92 C23.66 92 24.32 92 25 92 C25 92.99 25 93.98 25 95 C30.74174823 98.00758241 36.28357198 98.73607774 42.6953125 99.47265625 C45.78092216 99.96504077 48.12462829 100.84154366 51 102 C52.92903132 102.2759478 54.8689032 102.48449903 56.8125 102.625 C57.78832031 102.69976562 58.76414062 102.77453125 59.76953125 102.8515625 C60.87361328 102.92503906 60.87361328 102.92503906 62 103 C61.67 105.31 61.34 107.62 61 110 C63.65956849 112.19345981 63.65956849 112.19345981 65.875 111.9375 C68.92362855 110.59251682 70.75845909 108.42328747 73 106 C73.33 105.67 73.66 105.34 74 105 C74.60480394 99.10878206 74.60480394 99.10878206 71.9375 94 C68.35342568 91.55977918 66.25018379 91.58331531 62 92 C62 92.99 62 93.98 62 95 C59.76980273 94.71632132 57.54086546 94.42272612 55.3125 94.125 C54.07113281 93.96257812 52.82976562 93.80015625 51.55078125 93.6328125 C48.40068066 93.07140843 45.85205309 92.42867224 43 91 C42.67 90.34 42.34 89.68 42 89 C42.928125 89.495 43.85625 89.99 44.8125 90.5 C49.73968438 92.659445 54.72281389 92.25765646 60 92 C60.33 91.34 60.66 90.68 61 90 C67.625 89.875 67.625 89.875 71 91 C73.75370229 91.09133385 76.48158822 91.12600326 79.23510742 91.11352539 C80.07435257 91.11367142 80.91359772 91.11381744 81.77827454 91.1139679 C84.55403217 91.11327087 87.32972282 91.10548829 90.10546875 91.09765625 C92.02932193 91.09579132 93.95317559 91.09436777 95.87702942 91.09336853 C100.94214182 91.08954924 106.00722558 91.07972394 111.07232666 91.06866455 C116.24027112 91.05843781 121.40822021 91.0538682 126.57617188 91.04882812 C136.71746051 91.03810117 146.85872787 91.02103177 157 91 C157 91.66 157 92.32 157 93 C156.27296875 92.95359375 155.5459375 92.9071875 154.796875 92.859375 C145.03207114 92.50884358 137.09738468 94.74314925 128.5 99.3125 C124.71485764 101.13747935 124.64042485 101.12223623 121 100 C119.41974995 99.78807905 117.83601539 99.60076629 116.25 99.4375 C115.05117188 99.31181641 115.05117188 99.31181641 113.828125 99.18359375 C113.22484375 99.12300781 112.6215625 99.06242187 112 99 C110.37405612 103.19322369 109.49248612 105.64871776 111.3125 109.875 C112.69344324 112.78884526 112.69344324 112.78884526 114 114 C116.83073436 114.50169415 116.83073436 114.50169415 120 114 C123.44391324 111.24486941 125.14785121 109.28823264 126 105 C126.8353125 104.83564453 126.8353125 104.83564453 127.6875 104.66796875 C132.31356805 103.70680934 136.57366783 102.46859568 140.95703125 100.71875 C143.18372234 99.93536346 145.37321757 99.45903123 147.6875 99 C151.28598057 98.2653621 153.96846854 97.15140942 157 95 C157.14308594 96.29357422 157.14308594 96.29357422 157.2890625 97.61328125 C158.07733987 101.36842673 159.40417088 103.90694268 161.375 107.1875 C162.28378906 108.72470703 162.28378906 108.72470703 163.2109375 110.29296875 C164.82027373 112.96534693 164.82027373 112.96534693 166.75390625 114.609375 C168 116 168 116 168.00390625 117.97265625 C167.78541016 119.00712891 167.78541016 119.00712891 167.5625 120.0625 C167.376875 121.361875 167.19125 122.66125 167 124 C169.68459392 126.68459392 171.19740198 126.32966548 174.9375 126.375 C175.99839844 126.40335937 177.05929687 126.43171875 178.15234375 126.4609375 C181.07321923 126.26277955 181.07321923 126.26277955 182.859375 124.234375 C184.70873535 120.61165541 184.32551043 118.03632936 184 114 C181.66315104 111.66315104 180.7415613 111.66253215 177.5625 111.1875 C173.24890322 110.33722371 173.24890322 110.33722371 171.0625 107.375 C170.711875 106.59125 170.36125 105.8075 170 105 C169.34 105 168.68 105 168 105 C168 101.7 168 98.4 168 95 C167.34 95 166.68 95 166 95 C166 93.68 166 92.36 166 91 C166.96035156 90.92394531 167.92070313 90.84789062 168.91015625 90.76953125 C173.85054755 90.06021181 178.00505761 87.88787847 182.4375 85.6875 C183.24509766 85.29626953 184.05269531 84.90503906 184.88476562 84.50195312 C187.26259773 83.34656815 189.63215483 82.17569571 192 81 C192.75619629 80.6277832 193.51239258 80.25556641 194.29150391 79.87207031 C199.44295285 77.39384942 199.44295285 77.39384942 204 74 C204 73.34 204 72.68 204 72 C204.99 71.67 205.98 71.34 207 71 C212.72085002 63.26002645 213.05281785 55.31025481 212 46 C210.56130238 40.58960818 208.79514713 35.33113892 205.3515625 30.859375 C203.24047655 27.95510647 203.68921404 25.48080272 204 22 C205 19.75 205 19.75 206 18 C206 17.01 206 16.02 206 15 C203.12586875 14.66602213 203.12586875 14.66602213 200 15 C197.95959224 17.04040776 197 18.08325244 197 21 C196.01 20.2884375 196.01 20.2884375 195 19.5625 C187.6748709 15.7473286 178.3584712 16.84903129 170.3125 16.875 C169.10271484 16.87113281 167.89292969 16.86726563 166.64648438 16.86328125 C165.48052734 16.86457031 164.31457031 16.86585938 163.11328125 16.8671875 C161.53220581 16.86887939 161.53220581 16.86887939 159.91918945 16.87060547 C157.06095386 16.92103668 157.06095386 16.92103668 154.55078125 17.5 C151.35424802 18.12657925 148.33145294 18.12978272 145.07421875 18.1328125 C144.07634087 18.13424759 144.07634087 18.13424759 143.05830383 18.13571167 C141.64881292 18.13639035 140.23931884 18.13455784 138.82983398 18.13037109 C136.73218213 18.12511202 134.63475377 18.13027742 132.53710938 18.13671875 C124.44402642 18.14083503 116.43595435 17.80976426 108.35864258 17.25390625 C99.58632912 16.69891406 90.7861278 16.6219876 82 16.4375 C80.04947264 16.39417298 78.09895172 16.35055495 76.1484375 16.30664062 C71.43235897 16.20108235 66.71621162 16.09942664 62 16 C61.92543579 15.07006226 61.92543579 15.07006226 61.84936523 14.12133789 C61.73637085 12.90305298 61.73637085 12.90305298 61.62109375 11.66015625 C61.55075928 10.85457275 61.4804248 10.04898926 61.40795898 9.21899414 C61.12997341 6.77334921 61.12997341 6.77334921 59.0625 4.4375 C54.69828756 2.38899212 50.74109877 2.66858339 46 3 C43.36157824 7.70327357 42.80868862 10.33917966 42 16 C32.1 16 22.2 16 12 16 C11.505 13.525 11.505 13.525 11 11 C9.33074369 7.13036036 8.54809863 5.36539909 5 3 C3.68 3 2.36 3 1 3 Z " fill="#161616" transform="translate(528,155)"/>
<path d="M0 0 C0.66 0.33 1.32 0.66 2 1 C-1.03941868 4.37713186 -4.0508641 6.26798794 -8.125 8.25 C-9.17945313 8.77078125 -10.23390625 9.2915625 -11.3203125 9.828125 C-14 11 -14 11 -16 11 C-14.80868303 18.5954719 -14.80868303 18.5954719 -11 25 C-8.719752 25.69472977 -6.51759673 26.12259511 -4.15625 26.4453125 C-1.56320135 27.11236487 -0.58261432 27.85501015 1 30 C1.55218463 35.61387712 1.12509183 39.13874605 -2 44 C-5.55776212 46.37184142 -7.28020607 46.29824394 -11.5 46.3125 C-12.6446875 46.32925781 -13.789375 46.34601563 -14.96875 46.36328125 C-18 46 -18 46 -19.91015625 44.79296875 C-21.75212292 41.76263649 -21.00496002 38.79531813 -20.71484375 35.375 C-20.74160151 32.82417737 -20.74160151 32.82417737 -23.00390625 31.375 C-23.66261719 30.92125 -24.32132813 30.4675 -25 30 C-25 29.01 -25 28.02 -25 27 C-25.66 27 -26.32 27 -27 27 C-28.32 24.03 -29.64 21.06 -31 18 C-32.32 18 -33.64 18 -35 18 C-34.8125 16.125 -34.8125 16.125 -34 14 C-31.44921875 12.8671875 -31.44921875 12.8671875 -29 12 C-28.79246094 12.60585937 -28.58492187 13.21171875 -28.37109375 13.8359375 C-26.16004518 19.84924951 -23.36571705 24.67548123 -19.48828125 29.7734375 C-17.35663701 32.96251156 -16.79899715 34.91960966 -17.5 38.6875 C-17.665 39.450625 -17.83 40.21375 -18 41 C-16.18880181 42.81119819 -13.50218608 42.21518878 -11.0625 42.25 C-9.98097656 42.27578125 -8.89945313 42.3015625 -7.78515625 42.328125 C-6.86605469 42.21984375 -5.94695313 42.1115625 -5 42 C-2.30538014 37.95807022 -2.76799111 35.7948504 -3 31 C-4.90667768 29.09332232 -8.1892267 29.15828186 -10.7734375 28.6953125 C-13.3142128 27.90187741 -14.41135657 27.12160768 -16 25 C-16 24.01 -16 23.02 -16 22 C-16.66 22 -17.32 22 -18 22 C-18 18.7 -18 15.4 -18 12 C-18.66 12 -19.32 12 -20 12 C-20 10.68 -20 9.36 -20 8 C-19.09121094 7.76216797 -19.09121094 7.76216797 -18.1640625 7.51953125 C-12.37272659 5.90686694 -7.29856259 3.79098067 -2.03125 0.890625 C-1.02578125 0.44976562 -1.02578125 0.44976562 0 0 Z " fill="#101010" transform="translate(714,238)"/>
<path d="M0 0 C0.98484375 0.01804688 1.9696875 0.03609375 2.984375 0.0546875 C4.10585938 0.08949219 4.10585938 0.08949219 5.25 0.125 C5.25 1.115 5.25 2.105 5.25 3.125 C4.02023437 3.32416016 4.02023437 3.32416016 2.765625 3.52734375 C1.14914062 3.79224609 1.14914062 3.79224609 -0.5 4.0625 C-2.10101562 4.32353516 -2.10101562 4.32353516 -3.734375 4.58984375 C-6.11347593 5.01204171 -8.41915211 5.49702884 -10.75 6.125 C-10.80416188 7.72879341 -10.84286638 9.33311406 -10.875 10.9375 C-10.90980469 12.27748047 -10.90980469 12.27748047 -10.9453125 13.64453125 C-10.93285827 16.37902714 -10.93285827 16.37902714 -8.75 19.125 C-5.98434618 20.04688461 -4.36716298 20.24285222 -1.51953125 20.22265625 C-0.71708984 20.21943359 0.08535156 20.21621094 0.91210938 20.21289062 C1.74548828 20.20451172 2.57886719 20.19613281 3.4375 20.1875 C4.7049707 20.18073242 4.7049707 20.18073242 5.99804688 20.17382812 C8.08206155 20.16205403 10.16603977 20.1441189 12.25 20.125 C12.25 21.115 12.25 22.105 12.25 23.125 C4.23726913 25.43564797 -5.24614645 24.87692677 -12.75 21.125 C-13.85826086 17.80021742 -13.98761378 15.12494522 -14.0625 11.625 C-14.09988281 10.4803125 -14.13726563 9.335625 -14.17578125 8.15625 C-13.75 5.125 -13.75 5.125 -11.98046875 3.34375 C-11.24441406 2.9415625 -10.50835938 2.539375 -9.75 2.125 C-9.12609375 1.73570312 -8.5021875 1.34640625 -7.859375 0.9453125 C-5.14050066 -0.11202752 -2.90733767 -0.06922233 0 0 Z " fill="#111111" transform="translate(535.75,191.875)"/>
<path d="M0 0 C-2.45261715 2.9689576 -4.23933971 3.45235304 -8 4 C-12.51692351 4.19514736 -17.03413235 4.18580907 -21.5546875 4.18530273 C-23.72936877 4.18747935 -25.90353395 4.20563346 -28.078125 4.22460938 C-35.29997724 4.25289258 -41.99853868 3.98584049 -49 2 C-48.67 1.34 -48.34 0.68 -48 0 C-46.77893555 0.00523682 -45.55787109 0.01047363 -44.29980469 0.01586914 C-39.76742283 0.03397584 -35.23504416 0.04545279 -30.70263672 0.05493164 C-28.74136823 0.05995887 -26.78010348 0.06678157 -24.81884766 0.07543945 C-21.99901403 0.08757545 -19.17922998 0.09324444 -16.359375 0.09765625 C-15.48319519 0.10281754 -14.60701538 0.10797882 -13.70428467 0.11329651 C-12.88373596 0.11337204 -12.06318726 0.11344757 -11.21777344 0.11352539 C-10.49829529 0.115746 -9.77881714 0.11796661 -9.03753662 0.12025452 C-6.96987599 0.06886515 -6.96987599 0.06886515 -4.92388916 -0.56959534 C-3 -1 -3 -1 0 0 Z " fill="#101010" transform="translate(688,170)"/>
<path d="M0 0 C3.95831809 -0.02892857 7.91660917 -0.04677427 11.875 -0.0625 C13.56689453 -0.07506836 13.56689453 -0.07506836 15.29296875 -0.08789062 C16.36933594 -0.09111328 17.44570313 -0.09433594 18.5546875 -0.09765625 C19.54968262 -0.10289307 20.54467773 -0.10812988 21.56982422 -0.11352539 C24 0 24 0 26 1 C26 1.66 26 2.32 26 3 C24.91460938 3.13277344 23.82921875 3.26554688 22.7109375 3.40234375 C21.26561678 3.58066254 19.82030474 3.75905169 18.375 3.9375 C17.66214844 4.02451172 16.94929687 4.11152344 16.21484375 4.20117188 C12.12408039 4.70782605 8.06157365 5.2889043 4 6 C4.66 5.01 5.32 4.02 6 3 C3.69 3 1.38 3 -1 3 C-0.67 2.01 -0.34 1.02 0 0 Z " fill="#0D0D0D" transform="translate(659,245)"/>
<path d="M0 0 C-1.84086141 3.68172282 -6.26463964 4.71026646 -10 6 C-15.56970322 6.59675392 -20.62784161 5.36435769 -26 4 C-25.34 3.01 -24.68 2.02 -24 1 C-21.20688036 0.61033155 -18.6162782 0.39545202 -15.8125 0.3125 C-15.06935547 0.27833984 -14.32621094 0.24417969 -13.56054688 0.20898438 C-9.03844234 0.01478357 -4.52572676 -0.0299717 0 0 Z " fill="#D6D6D6" transform="translate(666,247)"/>
<path d="M0 0 C3.02089478 -0.02716089 6.04154129 -0.04691657 9.0625 -0.0625 C9.91005859 -0.07087891 10.75761719 -0.07925781 11.63085938 -0.08789062 C16.5361722 -0.10683006 21.16444755 0.16673655 26 1 C26 1.99 26 2.98 26 4 C13.13 3.505 13.13 3.505 0 3 C0 2.01 0 1.02 0 0 Z " fill="#1A1A1A" transform="translate(526,228)"/>
<path d="M0 0 C0 0.99 0 1.98 0 3 C-0.97839844 3.25523437 -0.97839844 3.25523437 -1.9765625 3.515625 C-7.35774751 5.007753 -11.43885466 6.68280339 -16 10 C-17.98507948 11.02930047 -19.98114251 12.03863929 -22 13 C-19.66172831 7.63850836 -15.26821551 3.35094107 -9.8359375 1.10546875 C-6.48954054 0.23440287 -3.45927089 0 0 0 Z " fill="#101010" transform="translate(523,173)"/>
<path d="M0 0 C5.61 0 11.22 0 17 0 C16.67 0.99 16.34 1.98 16 3 C10.39 3 4.78 3 -1 3 C-0.67 2.01 -0.34 1.02 0 0 Z " fill="#1D1D1D" transform="translate(642,245)"/>
<path d="M0 0 C0.66 0 1.32 0 2 0 C2 1.65 2 3.3 2 5 C2.66 5 3.32 5 4 5 C4.33 3.68 4.66 2.36 5 1 C5.99 1 6.98 1 8 1 C7.25 6.75 7.25 6.75 5 9 C2.375 8.625 2.375 8.625 0 8 C0 5.36 0 2.72 0 0 Z " fill="#1B1B1B" transform="translate(633,216)"/>
<path d="M0 0 C0.66 0 1.32 0 2 0 C2 0.99 2 1.98 2 3 C2.99 3.33 3.98 3.66 5 4 C5.33 2.68 5.66 1.36 6 0 C6.66 0 7.32 0 8 0 C7.125 5.875 7.125 5.875 6 7 C3 7.125 3 7.125 0 7 C-1 6 -1 6 -1.125 3.5 C-1 1 -1 1 0 0 Z " fill="#090909" transform="translate(701,223)"/>
<path d="M0 0 C-2.45091043 2.68433048 -4.28241384 3.91789741 -8.04296875 4.09765625 C-8.75066406 4.08605469 -9.45835937 4.07445312 -10.1875 4.0625 C-12.0746875 4.0315625 -12.0746875 4.0315625 -14 4 C-13.67 3.01 -13.34 2.02 -13 1 C-11.39796533 0.63631108 -9.79325797 0.28438048 -8.1875 -0.0625 C-7.29417969 -0.25972656 -6.40085937 -0.45695313 -5.48046875 -0.66015625 C-3 -1 -3 -1 0 0 Z " fill="#222222" transform="translate(680,254)"/>
<path d="M0 0 C3.63 0 7.26 0 11 0 C11 0.99 11 1.98 11 3 C6.71 3.66 2.42 4.32 -2 5 C-1.34 3.35 -0.68 1.7 0 0 Z " fill="#1D1D1D" transform="translate(530,192)"/>
<path d="M0 0 C1.06489861 3.19469583 0.96436169 3.86645463 0.0625 6.9375 C-0.80459932 9.91779501 -1 11.7655389 -1 15 C-1.99 14.67 -2.98 14.34 -4 14 C-4.29787234 5.21276596 -4.29787234 5.21276596 -2 1 C-1.34 0.67 -0.68 0.34 0 0 Z " fill="#0E0E0E" transform="translate(527,159)"/>
<path d="M0 0 C0.66 0 1.32 0 2 0 C1.25 4.75 1.25 4.75 -1 7 C-3.5625 7.1875 -3.5625 7.1875 -6 7 C-7 6 -7 6 -7.0625 3.4375 C-7.041875 2.633125 -7.02125 1.82875 -7 1 C-6.34 1 -5.68 1 -5 1 C-5 1.99 -5 2.98 -5 4 C-1.72226496 3.24849977 -1.72226496 3.24849977 0 0 Z " fill="#0E0E0E" transform="translate(623,179)"/>
<path d="M0 0 C0.66 0 1.32 0 2 0 C2 0.99 2 1.98 2 3 C2.66 3 3.32 3 4 3 C4 2.01 4 1.02 4 0 C4.66 0 5.32 0 6 0 C5.67 2.31 5.34 4.62 5 7 C3.35 6.67 1.7 6.34 0 6 C0 4.02 0 2.04 0 0 Z " fill="#121212" transform="translate(550,237)"/>
<path d="M0 0 C0.66 0 1.32 0 2 0 C2.33 0.99 2.66 1.98 3 3 C3.33 2.34 3.66 1.68 4 1 C4.99 1 5.98 1 7 1 C6.49396008 3.16874252 6.00016187 4.99967627 5 7 C3.35 6.67 1.7 6.34 0 6 C0 4.02 0 2.04 0 0 Z " fill="#151515" transform="translate(723,189)"/>
<path d="M0 0 C0.33 0 0.66 0 1 0 C1.4375 2.125 1.4375 2.125 1 5 C-1.12689146 7.276147 -3.5023433 9.1458722 -6 11 C-6 7.41584854 -5.21108216 6.58796261 -3.0625 3.8125 C-2.51722656 3.09707031 -1.97195313 2.38164062 -1.41015625 1.64453125 C-0.94480469 1.10183594 -0.47945312 0.55914062 0 0 Z " fill="#161616" transform="translate(603,258)"/>
<path d="M0 0 C0.53109375 0.13277344 1.0621875 0.26554688 1.609375 0.40234375 C2.79273438 0.69818359 2.79273438 0.69818359 4 1 C6.08333333 1.52083333 8.16666667 2.04166667 10.25 2.5625 C11.86648438 2.96662109 11.86648438 2.96662109 13.515625 3.37890625 C14.33546875 3.58386719 15.1553125 3.78882813 16 4 C16 4.33 16 4.66 16 5 C9.86946489 5.32712342 5.37330889 5.39366878 0 2 C0 1.34 0 0.68 0 0 Z " fill="#030303" transform="translate(570,244)"/>
<path d="M0 0 C0.66 0.33 1.32 0.66 2 1 C-0.45699392 3.63249349 -2.56568654 5.78137264 -6 7 C-6.99 6.67 -7.98 6.34 -9 6 C-3.30379747 1.25316456 -3.30379747 1.25316456 0 0 Z " fill="#0A0A0A" transform="translate(714,238)"/>
<path d="M0 0 C0.66 0.33 1.32 0.66 2 1 C-0.19471406 5.51135667 -2.41173718 7.06273348 -7 9 C-5.44499019 5.18315774 -2.96404505 2.80804268 0 0 Z " fill="#282828" transform="translate(508,177)"/>
<path d="M0 0 C0 0.66 0 1.32 0 2 C-4.455 3.485 -4.455 3.485 -9 5 C-7 1 -7 1 -4.5 -0.3125 C-2 -1 -2 -1 0 0 Z " fill="#111111" transform="translate(667,257)"/>
<path d="M0 0 C-1.97420135 2.52259061 -2.96745642 2.9929808 -6.1875 3.6875 C-7.5796875 3.8421875 -7.5796875 3.8421875 -9 4 C-8.25 2.0625 -8.25 2.0625 -7 0 C-4.04680182 -1.23843794 -3.12561472 -1.04187157 0 0 Z " fill="#0D0D0D" transform="translate(688,170)"/>
<path d="M0 0 C0.66 0.33 1.32 0.66 2 1 C1.67 1.99 1.34 2.98 1 4 C-2.0625 5.1875 -2.0625 5.1875 -5 6 C-4.1875 3.5625 -4.1875 3.5625 -3 1 C-2.01 0.67 -1.02 0.34 0 0 Z " fill="#222222" transform="translate(720,235)"/>
<path d="M0 0 C1.65 0 3.3 0 5 0 C4.67 1.32 4.34 2.64 4 4 C2.68 4 1.36 4 0 4 C0 2.68 0 1.36 0 0 Z " fill="#0A0A0A" transform="translate(517,189)"/>
<path d="M0 0 C1.32 0.33 2.64 0.66 4 1 C2.68 2.32 1.36 3.64 0 5 C-0.99 4.67 -1.98 4.34 -3 4 C-2.01 2.68 -1.02 1.36 0 0 Z " fill="#181818" transform="translate(511,175)"/>
<path d="M0 0 C0 1.32 0 2.64 0 4 C-1.65 3.67 -3.3 3.34 -5 3 C-5 2.34 -5 1.68 -5 1 C-3 0 -3 0 0 0 Z " fill="#121212" transform="translate(566,188)"/>
</svg>
