<?xml version="1.0" encoding="UTF-8"?>
<svg version="1.1" xmlns="http://www.w3.org/2000/svg" width="800" height="300">
<path d="M0 0 C264 0 528 0 800 0 C800 99 800 198 800 300 C536 300 272 300 0 300 C0 201 0 102 0 0 Z " fill="#FEFEFE" transform="translate(0,0)"/>
<path d="M0 0 C3.80414376 0.21946983 6.51376957 0.73574433 9.875 2.5625 C12 5 12 5 13 13 C21.58 12.67 30.16 12.34 39 12 C39.99 9.03 40.98 6.06 42 3 C42.66 2.01 43.32 1.02 44 0 C49.29112132 -0.97398751 54.48473819 -0.70794276 59.1875 2 C60.115625 2.66 61.04375 3.32 62 4 C62 5.32 62 6.64 62 8 C62.66 8 63.32 8 64 8 C64 9.98 64 11.96 64 14 C64.76328613 13.99476318 65.52657227 13.98952637 66.31298828 13.98413086 C91.90114586 13.83261951 91.90114586 13.83261951 103.5625 14.5 C113.74910229 15.06691172 123.9256842 15.11393033 134.125 15.125 C134.93260773 15.12749756 135.74021545 15.12999512 136.57229614 15.13256836 C138.88417867 15.13846068 141.19592848 15.13697031 143.5078125 15.1328125 C144.20475723 15.13479645 144.90170197 15.1367804 145.61976624 15.13882446 C148.92970205 15.12298512 151.81276189 14.83749854 155 14 C156.97751674 13.90786886 158.95783942 13.86932867 160.9375 13.8671875 C162.07960938 13.86589844 163.22171875 13.86460937 164.3984375 13.86328125 C165.58695313 13.86714844 166.77546875 13.87101563 168 13.875 C169.78277344 13.86919922 169.78277344 13.86919922 171.6015625 13.86328125 C173.31472656 13.86521484 173.31472656 13.86521484 175.0625 13.8671875 C176.10535156 13.86831543 177.14820313 13.86944336 178.22265625 13.87060547 C180.66685513 13.98447901 182.66136445 14.33858713 185 15 C186.68388417 15.13832856 188.37322032 15.2194248 190.0625 15.25 C190.91972656 15.27578125 191.77695312 15.3015625 192.66015625 15.328125 C195.51333245 14.92801348 196.03334774 13.99259754 198 12 C200.2265625 11.671875 200.2265625 11.671875 202.625 11.75 C203.42164063 11.76546875 204.21828125 11.7809375 205.0390625 11.796875 C207 12 207 12 208 13 C207.9140625 14.92578125 207.9140625 14.92578125 207.625 17.3125 C207.48964844 18.48232422 207.48964844 18.48232422 207.3515625 19.67578125 C207 22 207 22 206.390625 24.12890625 C205.73488571 27.26989746 207.47542841 29.25577113 209 32 C209.65162109 32.92619141 209.65162109 32.92619141 210.31640625 33.87109375 C214.12742649 39.96221157 214.50713753 45.6110014 214.5625 52.625 C214.57692139 53.51968994 214.59134277 54.41437988 214.60620117 55.33618164 C214.48932148 63.09111344 212.17580389 68.56225116 207.25 74.5 C202.12637735 79.31773473 195.51426204 81.99330833 189.21533203 84.94873047 C185.44611702 86.73738375 181.72613692 88.62371234 178 90.5 C176.64605141 91.1775193 175.29190524 91.85464403 173.9375 92.53125 C172.968125 93.0159375 171.99875 93.500625 171 94 C170.979375 95.2478125 170.95875 96.495625 170.9375 97.78125 C170.92009766 98.8340918 170.92009766 98.8340918 170.90234375 99.90820312 C171.03847657 102.82416809 171.92263757 105.30659393 173 108 C173.59167969 108.01417969 174.18335938 108.02835937 174.79296875 108.04296875 C178.98947972 108.2962655 181.52327509 108.69489606 185.125 111 C187.43276309 114.69242094 187.38379643 116.64636675 186.65625 120.84375 C185.73162645 123.8817988 184.26337379 125.8052133 182 128 C179.31432703 129.34283649 177.12253147 129.24287519 174.125 129.3125 C172.55105469 129.36857422 172.55105469 129.36857422 170.9453125 129.42578125 C168 129 168 129 165.609375 127.24609375 C163.74919724 124.64997188 163.69185188 123.83756864 164.125 120.75 C164.41880065 114.98771629 161.60232566 112.18896394 158 108 C155 103.5 155 103.5 155 100 C154.195625 100.28875 153.39125 100.5775 152.5625 100.875 C149.95612496 101.6980658 147.53448319 102.33244605 144.875 102.875 C141.07709833 103.70821312 137.34901406 104.69259722 133.625 105.8125 C132.62726563 106.10769531 131.62953125 106.40289062 130.6015625 106.70703125 C127.40569859 108.29536602 126.60706003 109.87353776 125 113 C122.14630258 115.93296679 120.55516717 116.90086301 116.5 117.625 C112.71004733 116.94822274 111.18493094 115.98320369 108.94140625 112.84375 C106.65365476 108.36317447 106.65276618 104.36413286 107.875 99.5625 C109 97 109 97 110 96 C111.47648876 95.90176004 112.95775417 95.87026481 114.4375 95.875 C115.64212891 95.87113281 115.64212891 95.87113281 116.87109375 95.8671875 C119 96 119 96 121 97 C125.92122402 97.447384 128.69368636 96.28547372 133 94 C113.99076963 93.78261363 94.99830501 94.43360588 76 95 C76.07069702 96.21562622 76.07069702 96.21562622 76.14282227 97.45581055 C76.44362192 106.23849934 76.44362192 106.23849934 74.27734375 109.95703125 C67.95617363 114.96964528 67.95617363 114.96964528 63.0625 115.125 C60 114 60 114 58 112 C57.875 108.375 57.875 108.375 58 105 C56.72125 104.896875 55.4425 104.79375 54.125 104.6875 C50.54466251 104.30529757 47.3557703 103.5610245 43.9375 102.4375 C39.42320402 100.98218705 35.72253553 100.73763692 31 101 C33.18366764 105.38709904 33.18366764 105.38709904 37.19921875 107.890625 C37.99972656 108.11234375 38.80023437 108.3340625 39.625 108.5625 C43.83143545 109.75052446 43.83143545 109.75052446 45.5625 112.3125 C46.29190532 116.79313267 46.68126624 119.6670878 44.5625 123.8125 C40.90915522 126.93120896 37.71161665 127.14325861 33 127 C29.33233853 126.33861842 26.75594118 125.44581146 23.5625 123.5625 C21.70556092 120.51711991 21.96101117 119.36588223 22.1875 115.875 C22.47668613 108.88788996 19.2686168 105.21922954 15 100 C11 94.43227666 11 94.43227666 11 92 C10.41621582 91.94054199 9.83243164 91.88108398 9.23095703 91.81982422 C-14.66151063 89.25840074 -14.66151063 89.25840074 -22.875 80 C-23.57625 79.01 -24.2775 78.02 -25 77 C-25.721875 76.071875 -26.44375 75.14375 -27.1875 74.1875 C-30.9591228 67.55464611 -31.36498142 60.19157119 -31.3125 52.6875 C-31.30831055 51.8622583 -31.30412109 51.0370166 -31.29980469 50.18676758 C-31.13478427 41.20105481 -30.14298669 31.99617928 -24 25 C-19.700381 21.17215964 -15.66223455 19.28201537 -10 18 C-9.195625 17.79375 -8.39125 17.5875 -7.5625 17.375 C-7.046875 17.25125 -6.53125 17.1275 -6 17 C-6.103125 16.21625 -6.20625 15.4325 -6.3125 14.625 C-5.88272354 9.63959301 -3.63856553 3.63856553 0 0 Z " fill="#FCFCFC" transform="translate(521,155)"/>
<path d="M0 0 C3.80414376 0.21946983 6.51376957 0.73574433 9.875 2.5625 C12 5 12 5 13 13 C21.58 12.67 30.16 12.34 39 12 C39.99 9.03 40.98 6.06 42 3 C42.66 2.01 43.32 1.02 44 0 C49.29112132 -0.97398751 54.48473819 -0.70794276 59.1875 2 C60.115625 2.66 61.04375 3.32 62 4 C62 5.32 62 6.64 62 8 C62.66 8 63.32 8 64 8 C64 9.98 64 11.96 64 14 C64.76328613 13.99476318 65.52657227 13.98952637 66.31298828 13.98413086 C91.90114586 13.83261951 91.90114586 13.83261951 103.5625 14.5 C113.74910229 15.06691172 123.9256842 15.11393033 134.125 15.125 C134.93260773 15.12749756 135.74021545 15.12999512 136.57229614 15.13256836 C138.88417867 15.13846068 141.19592848 15.13697031 143.5078125 15.1328125 C144.20475723 15.13479645 144.90170197 15.1367804 145.61976624 15.13882446 C148.92970205 15.12298512 151.81276189 14.83749854 155 14 C156.97751674 13.90786886 158.95783942 13.86932867 160.9375 13.8671875 C162.07960938 13.86589844 163.22171875 13.86460937 164.3984375 13.86328125 C165.58695313 13.86714844 166.77546875 13.87101563 168 13.875 C169.78277344 13.86919922 169.78277344 13.86919922 171.6015625 13.86328125 C173.31472656 13.86521484 173.31472656 13.86521484 175.0625 13.8671875 C176.10535156 13.86831543 177.14820313 13.86944336 178.22265625 13.87060547 C180.66685513 13.98447901 182.66136445 14.33858713 185 15 C186.68388417 15.13832856 188.37322032 15.2194248 190.0625 15.25 C190.91972656 15.27578125 191.77695312 15.3015625 192.66015625 15.328125 C195.51333245 14.92801348 196.03334774 13.99259754 198 12 C200.2265625 11.671875 200.2265625 11.671875 202.625 11.75 C203.42164063 11.76546875 204.21828125 11.7809375 205.0390625 11.796875 C207 12 207 12 208 13 C207.9140625 14.92578125 207.9140625 14.92578125 207.625 17.3125 C207.48964844 18.48232422 207.48964844 18.48232422 207.3515625 19.67578125 C207 22 207 22 206.390625 24.12890625 C205.73488571 27.26989746 207.47542841 29.25577113 209 32 C209.65162109 32.92619141 209.65162109 32.92619141 210.31640625 33.87109375 C214.12742649 39.96221157 214.50713753 45.6110014 214.5625 52.625 C214.57692139 53.51968994 214.59134277 54.41437988 214.60620117 55.33618164 C214.48932148 63.09111344 212.17580389 68.56225116 207.25 74.5 C202.12637735 79.31773473 195.51426204 81.99330833 189.21533203 84.94873047 C185.44611702 86.73738375 181.72613692 88.62371234 178 90.5 C176.64605141 91.1775193 175.29190524 91.85464403 173.9375 92.53125 C172.968125 93.0159375 171.99875 93.500625 171 94 C170.979375 95.2478125 170.95875 96.495625 170.9375 97.78125 C170.92009766 98.8340918 170.92009766 98.8340918 170.90234375 99.90820312 C171.03847657 102.82416809 171.92263757 105.30659393 173 108 C173.59167969 108.01417969 174.18335938 108.02835937 174.79296875 108.04296875 C178.98947972 108.2962655 181.52327509 108.69489606 185.125 111 C187.43276309 114.69242094 187.38379643 116.64636675 186.65625 120.84375 C185.73162645 123.8817988 184.26337379 125.8052133 182 128 C179.31432703 129.34283649 177.12253147 129.24287519 174.125 129.3125 C172.55105469 129.36857422 172.55105469 129.36857422 170.9453125 129.42578125 C168 129 168 129 165.609375 127.24609375 C163.74919724 124.64997188 163.69185188 123.83756864 164.125 120.75 C164.41880065 114.98771629 161.60232566 112.18896394 158 108 C155 103.5 155 103.5 155 100 C154.195625 100.28875 153.39125 100.5775 152.5625 100.875 C149.95612496 101.6980658 147.53448319 102.33244605 144.875 102.875 C141.07709833 103.70821312 137.34901406 104.69259722 133.625 105.8125 C132.62726563 106.10769531 131.62953125 106.40289062 130.6015625 106.70703125 C127.40569859 108.29536602 126.60706003 109.87353776 125 113 C122.14630258 115.93296679 120.55516717 116.90086301 116.5 117.625 C112.71004733 116.94822274 111.18493094 115.98320369 108.94140625 112.84375 C106.65365476 108.36317447 106.65276618 104.36413286 107.875 99.5625 C109 97 109 97 110 96 C111.47648876 95.90176004 112.95775417 95.87026481 114.4375 95.875 C115.64212891 95.87113281 115.64212891 95.87113281 116.87109375 95.8671875 C119 96 119 96 121 97 C125.92122402 97.447384 128.69368636 96.28547372 133 94 C113.99076963 93.78261363 94.99830501 94.43360588 76 95 C76.07069702 96.21562622 76.07069702 96.21562622 76.14282227 97.45581055 C76.44362192 106.23849934 76.44362192 106.23849934 74.27734375 109.95703125 C67.95617363 114.96964528 67.95617363 114.96964528 63.0625 115.125 C60 114 60 114 58 112 C57.875 108.375 57.875 108.375 58 105 C56.72125 104.896875 55.4425 104.79375 54.125 104.6875 C50.54466251 104.30529757 47.3557703 103.5610245 43.9375 102.4375 C39.42320402 100.98218705 35.72253553 100.73763692 31 101 C33.18366764 105.38709904 33.18366764 105.38709904 37.19921875 107.890625 C37.99972656 108.11234375 38.80023437 108.3340625 39.625 108.5625 C43.83143545 109.75052446 43.83143545 109.75052446 45.5625 112.3125 C46.29190532 116.79313267 46.68126624 119.6670878 44.5625 123.8125 C40.90915522 126.93120896 37.71161665 127.14325861 33 127 C29.33233853 126.33861842 26.75594118 125.44581146 23.5625 123.5625 C21.70556092 120.51711991 21.96101117 119.36588223 22.1875 115.875 C22.47668613 108.88788996 19.2686168 105.21922954 15 100 C11 94.43227666 11 94.43227666 11 92 C10.41621582 91.94054199 9.83243164 91.88108398 9.23095703 91.81982422 C-14.66151063 89.25840074 -14.66151063 89.25840074 -22.875 80 C-23.57625 79.01 -24.2775 78.02 -25 77 C-25.721875 76.071875 -26.44375 75.14375 -27.1875 74.1875 C-30.9591228 67.55464611 -31.36498142 60.19157119 -31.3125 52.6875 C-31.30831055 51.8622583 -31.30412109 51.0370166 -31.29980469 50.18676758 C-31.13478427 41.20105481 -30.14298669 31.99617928 -24 25 C-18.64533168 20.23287633 -13.27110084 18 -6 18 C-6 18.99 -6 19.98 -6 21 C-6.65226563 21.17015625 -7.30453125 21.3403125 -7.9765625 21.515625 C-16.72007178 23.81461337 -16.72007178 23.81461337 -23.21484375 29.7890625 C-28.83535327 40.15000176 -28.57214885 55.79697483 -25.875 67.125 C-23.32100393 74.83428442 -18.98385355 80.36623588 -11.6875 84.0390625 C-6.29495373 85.96721131 -0.66964577 86.43955226 5 87 C6.79174386 87.20766843 8.58342398 87.4158886 10.375 87.625 C12.169375 87.810625 12.169375 87.810625 14 88 C14.25910156 88.86109375 14.51820313 89.7221875 14.78515625 90.609375 C16.0330399 94.09221426 17.57307574 97.05842643 19.4375 100.25 C20.03433594 101.28640625 20.63117187 102.3228125 21.24609375 103.390625 C22.89922544 106.20806577 22.89922544 106.20806577 26 108 C26.75 111.0625 26.75 111.0625 27 114 C26.67 114.33 26.34 114.66 26 115 C25.95936168 116.66617115 25.957279 118.33388095 26 120 C30.88227243 122.44113622 33.54195487 123.48855776 39 122 C39.99 121.67 40.98 121.34 42 121 C43.37001429 117.8033 42.8252404 115.30096158 42 112 C39.03 112 36.06 112 33 112 C32.649375 111.236875 32.29875 110.47375 31.9375 109.6875 C29.81788923 105.36556195 27.03132786 101.46067081 24.328125 97.48828125 C23.88984375 96.66714844 23.4515625 95.84601563 23 95 C23.495 93.515 23.495 93.515 24 92 C24.33 92.99 24.66 93.98 25 95 C26.81397492 95.75725557 26.81397492 95.75725557 29.04296875 96.09765625 C30.28336914 96.34032227 30.28336914 96.34032227 31.54882812 96.58789062 C32.41958984 96.74451172 33.29035156 96.90113281 34.1875 97.0625 C39.61818482 98.08614914 44.75890534 99.21482365 50 101 C51.57617035 101.24039076 53.16081258 101.43372102 54.75 101.5625 C58.8 101.9 58.8 101.9 61 103 C61 105.64 61 108.28 61 111 C67.36449114 110.31585953 67.36449114 110.31585953 72.0625 106.375 C73.18370599 102.33865845 73.21590947 99.17424975 73 95 C69.34920174 93.38935371 65.9492568 92.55105909 62 92 C61.505 93.485 61.505 93.485 61 95 C54.39246186 95.37244996 47.93772075 95.28671103 42 92 C41.67 91.01 41.34 90.02 41 89 C46.875 89.875 46.875 89.875 48 91 C49.84891946 91.23363881 51.70488031 91.41303635 53.5625 91.5625 C55.08037109 91.68818359 55.08037109 91.68818359 56.62890625 91.81640625 C57.41136719 91.87699219 58.19382812 91.93757813 59 92 C59 91.34 59 90.68 59 90 C61.42638018 88.78680991 62.41933755 89.0557745 65.07347107 89.43040466 C69.68330476 90.00308646 74.18383627 90.13540777 78.82446289 90.11352539 C79.65483063 90.11367142 80.48519836 90.11381744 81.34072876 90.1139679 C84.051399 90.11327815 86.7619982 90.10553028 89.47265625 90.09765625 C91.36551374 90.09578873 93.25837171 90.0943664 95.15122986 90.09336853 C100.10775105 90.08956966 105.06424245 90.07976211 110.02075195 90.06866455 C115.08870033 90.05839361 120.15665357 90.05385878 125.22460938 90.04882812 C135.1497526 90.03813724 145.07487381 90.02109276 155 90 C155.33 90.99 155.66 91.98 156 93 C155.01902344 93.06316406 154.03804687 93.12632812 153.02734375 93.19140625 C144.4478336 93.91430843 137.55643248 95.54528011 129.96264648 99.69946289 C127.12658812 101.21352604 125.38615515 102.03108207 122.13671875 101.76953125 C120 101 120 101 119 100 C116.32941149 99.85884839 113.67567762 99.95752893 111 100 C110.60690192 105.92637982 110.60690192 105.92637982 112.125 111.5625 C114.81063541 113.62148715 116.69962146 113.34378943 120 113 C120.99 112.67 121.98 112.34 123 112 C123.33 109.69 123.66 107.38 124 105 C125.10408203 104.70996094 125.10408203 104.70996094 126.23046875 104.4140625 C127.20628906 104.15367187 128.18210937 103.89328125 129.1875 103.625 C130.15042969 103.36976563 131.11335937 103.11453125 132.10546875 102.8515625 C134.96698331 102.05911275 134.96698331 102.05911275 137.51953125 100.9921875 C141.02511696 99.58995322 144.63051808 98.72469758 148.28125 97.78125 C150.9427916 97.01643919 153.44873422 96.07227112 156 95 C156.79664063 96.66289062 156.79664063 96.66289062 157.609375 98.359375 C158.32248498 99.82312706 159.03605071 101.28665714 159.75 102.75 C160.27207031 103.84441406 160.27207031 103.84441406 160.8046875 104.9609375 C162.39864392 108.20788576 163.64567145 110.6602329 166.28125 113.1875 C168 115 168 115 168.171875 117.578125 C167.78125 120.05208333 167.390625 122.52604167 167 125 C171.95 125 176.9 125 182 125 C182.165 123.39125 182.33 121.7825 182.5 120.125 C182.5928125 119.22007812 182.685625 118.31515625 182.78125 117.3828125 C183.03047295 115.06686789 183.03047295 115.06686789 183 113 C182.39671875 112.97421875 181.7934375 112.9484375 181.171875 112.921875 C174.64560658 112.45872047 174.64560658 112.45872047 171.625 110.3125 C167.9528339 105.08672517 166.61268279 101.45528689 167 95 C166.34 95 165.68 95 165 95 C165 93.68 165 92.36 165 91 C165.53222168 90.83491943 166.06444336 90.66983887 166.61279297 90.49975586 C172.64247466 88.56756741 178.3670961 86.18729789 184.125 83.5625 C184.97964844 83.18029297 185.83429688 82.79808594 186.71484375 82.40429688 C200.6723201 76.16128615 200.6723201 76.16128615 209.9375 64.4375 C212.8888918 54.84083611 211.52875118 45.49416325 207.3828125 36.55078125 C206.24092354 34.44441546 205.06302188 32.59313039 203.625 30.6875 C202 28 202 28 202.125 24.5 C202.93491049 21.26035804 203.85284873 18.13554681 205 15 C202.6704053 14.49758678 202.6704053 14.49758678 200 15 C198.61061923 16.96147874 197.2739589 18.96166576 196 21 C195.01 21 194.02 21 193 21 C193 20.34 193 19.68 193 19 C185.42036966 18.06702433 177.94438525 17.84759646 170.3125 17.875 C169.22388672 17.87113281 168.13527344 17.86726563 167.01367188 17.86328125 C165.95341797 17.86457031 164.89316406 17.86585938 163.80078125 17.8671875 C162.38019409 17.86887939 162.38019409 17.86887939 160.9309082 17.87060547 C157.90872606 17.95460438 157.90872606 17.95460438 154.58251953 18.5 C150.96489525 19.00489945 147.52970083 19.12938705 143.87890625 19.1328125 C142.88527321 19.13424759 142.88527321 19.13424759 141.87156677 19.13571167 C140.47402857 19.13638814 139.07648713 19.13457128 137.67895508 19.13037109 C135.59904409 19.12509274 133.51935681 19.13029396 131.43945312 19.13671875 C123.39068476 19.14083861 115.42737031 18.80624545 107.39428711 18.25390625 C98.44390806 17.69089999 89.46433979 17.62104197 80.5 17.4375 C78.50129563 17.39417689 76.50259763 17.35055894 74.50390625 17.30664062 C69.66933731 17.20103732 64.83470047 17.09939132 60 17 C60 13.37 60 9.74 60 6 C55.01770224 4.08373163 50.27315333 3.4452885 45 3 C44.79503906 3.85464844 44.59007812 4.70929688 44.37890625 5.58984375 C44.10949219 6.69457031 43.84007812 7.79929688 43.5625 8.9375 C43.29566406 10.03964844 43.02882813 11.14179688 42.75390625 12.27734375 C42 15 42 15 41 16 C38.78144736 16.08783542 36.56011504 16.10694609 34.33984375 16.09765625 C33.34314415 16.09553383 33.34314415 16.09553383 32.3263092 16.09336853 C30.19666101 16.08775518 28.06711661 16.07520054 25.9375 16.0625 C24.49674631 16.05748671 23.05599097 16.05292351 21.61523438 16.04882812 C18.07678898 16.03778145 14.53840461 16.02050792 11 16 C10.80664062 15.37424072 10.61328125 14.74848145 10.4140625 14.10375977 C10.15367187 13.28705811 9.89328125 12.47035645 9.625 11.62890625 C9.36976563 10.81752197 9.11453125 10.0061377 8.8515625 9.17016602 C7.77907149 6.43697434 6.65891299 5.24636547 4 4 C3.01 4 2.02 4 1 4 C-2.10190545 8.65285818 -3.33846504 13.41532676 -3 19 C-3.66 19 -4.32 19 -5 19 C-6.48251273 16.03497454 -6.35770302 14.33856155 -6 11 C-2.39322917 2.39322917 -2.39322917 2.39322917 0 0 Z " fill="#161616" transform="translate(521,155)"/>
<path d="M0 0 C2.64 0 5.28 0 8 0 C5.29952034 5.16613501 2.60608076 7.224079 -2.80859375 9.3828125 C-5.53845931 10.15165164 -7.36946856 10.0686534 -10 9 C-10.33 8.67 -10.66 8.34 -11 8 C-13.67058851 7.85884839 -16.32432238 7.95752893 -19 8 C-19.39309808 13.92637982 -19.39309808 13.92637982 -17.875 19.5625 C-15.18936459 21.62148715 -13.30037854 21.34378943 -10 21 C-9.01 20.67 -8.02 20.34 -7 20 C-6.67 17.69 -6.34 15.38 -6 13 C0.28571429 10.57142857 0.28571429 10.57142857 4 12 C1.94766315 14.2477975 0.99332739 15.0022242 -2 16 C-2.680625 17.1446875 -2.680625 17.1446875 -3.375 18.3125 C-5.2740874 21.45329839 -6.86870559 23.07852388 -10 25 C-13.5 25.625 -13.5 25.625 -17 25 C-21.12898096 21.40958177 -22.69542997 18.40860769 -23.08203125 12.96484375 C-22.94857568 9.76826507 -22.33055327 6.33055327 -20 4 C-18.52351124 3.90176004 -17.04224583 3.87026481 -15.5625 3.875 C-14.35787109 3.87113281 -14.35787109 3.87113281 -13.12890625 3.8671875 C-11 4 -11 4 -9 5 C-4.13241177 5.44250802 -1.21610247 4.40920141 3 2 C2.01 1.34 1.02 0.68 0 0 Z " fill="#121212" transform="translate(651,247)"/>
<path d="M0 0 C-0.226875 0.86625 -0.45375 1.7325 -0.6875 2.625 C-1.12260499 7.32413388 0.62538139 10.05432322 3.31640625 13.86328125 C7.11975359 19.96380704 7.50709051 25.60504326 7.5625 32.625 C7.57692139 33.51968994 7.59134277 34.41437988 7.60620117 35.33618164 C7.4914703 42.94853992 5.35501829 49.22125061 -0.125 54.6875 C-4.17792414 58.53733644 -8.91741173 60.78084174 -14 63 C-13.6953125 61.11328125 -13.6953125 61.11328125 -13 59 C-11.33940374 58.03685417 -9.67359045 57.0809933 -7.9765625 56.18359375 C-2.65158472 52.99492128 1.71572321 48.41019562 3.55859375 42.41796875 C5.58612227 31.3114187 3.89352752 21.61389106 -2.22265625 12.09765625 C-2.58230469 11.59105469 -2.94195313 11.08445313 -3.3125 10.5625 C-5.20149085 7.69403241 -5.63587703 6.3610643 -5 3 C-2.72413793 0 -2.72413793 0 0 0 Z " fill="#111111" transform="translate(728,175)"/>
<path d="M0 0 C0 0.99 0 1.98 0 3 C-0.88751953 3.07347656 -0.88751953 3.07347656 -1.79296875 3.1484375 C-8.13120946 3.696027 -8.13120946 3.696027 -14 6 C-15.00496852 9.01490557 -15.10335303 11.04181692 -15.0625 14.1875 C-15.04896484 15.53908203 -15.04896484 15.53908203 -15.03515625 16.91796875 C-15.02355469 17.60503906 -15.01195312 18.29210937 -15 19 C-12.14839609 19.81434143 -9.63373869 20.11881242 -6.671875 20.09765625 C-5.87265625 20.09443359 -5.0734375 20.09121094 -4.25 20.08789062 C-3.425 20.07951172 -2.6 20.07113281 -1.75 20.0625 C-0.90953125 20.05798828 -0.0690625 20.05347656 0.796875 20.04882812 C2.86461401 20.03707961 4.93231624 20.01914522 7 20 C7 20.99 7 21.98 7 23 C1.35974644 25.82012678 -7.34131329 24.50610206 -13.1875 22.6875 C-16.50405353 21.52455266 -16.92369374 21.11445939 -19 18 C-19.60174277 13.2745494 -19.6647713 8.05508675 -17 4 C-11.42352799 -0.2985305 -6.8955466 -0.49947621 0 0 Z " fill="#121212" transform="translate(533,192)"/>
<path d="M0 0 C0 0.99 0 1.98 0 3 C-0.97839844 3.25523437 -0.97839844 3.25523437 -1.9765625 3.515625 C-10.72007178 5.81461337 -10.72007178 5.81461337 -17.21484375 11.7890625 C-19.09518562 15.25531548 -19.98956626 17.91913854 -20.5 21.875 C-20.665 22.90625 -20.83 23.9375 -21 25 C-23.03125 26.1953125 -23.03125 26.1953125 -25 27 C-23.7553546 18.09095921 -22.47857349 10.47760251 -15.1875 4.625 C-10.33390626 1.29888734 -5.8942806 0 0 0 Z " fill="#121212" transform="translate(515,173)"/>
<path d="M0 0 C3.22914752 -0.02917228 6.45826083 -0.04685663 9.6875 -0.0625 C10.59951172 -0.07087891 11.51152344 -0.07925781 12.45117188 -0.08789062 C13.33740234 -0.09111328 14.22363281 -0.09433594 15.13671875 -0.09765625 C15.94842529 -0.10289307 16.76013184 -0.10812988 17.59643555 -0.11352539 C20.14864673 0.0070209 22.51026137 0.440051 25 1 C25 1.99 25 2.98 25 4 C12.13 3.505 12.13 3.505 -1 3 C-0.67 2.01 -0.34 1.02 0 0 Z " fill="#1B1B1B" transform="translate(519,228)"/>
<path d="M0 0 C1.40668945 0.01450195 1.40668945 0.01450195 2.84179688 0.02929688 C3.81826172 0.05443359 4.79472656 0.07957031 5.80078125 0.10546875 C6.78884766 0.11900391 7.77691406 0.13253906 8.79492188 0.14648438 C11.23492356 0.18184672 13.67382844 0.23119842 16.11328125 0.29296875 C12.87953456 3.6178069 10.74700916 5.19494508 5.98828125 5.48046875 C3.11328125 5.29296875 3.11328125 5.29296875 1.11328125 4.29296875 C-0.4234074 4.06829044 -1.96639929 3.8850007 -3.51171875 3.73046875 C-4.32898438 3.64667969 -5.14625 3.56289062 -5.98828125 3.4765625 C-6.61476563 3.41597656 -7.24125 3.35539063 -7.88671875 3.29296875 C-5.42854811 0.24399315 -3.85656876 -0.07011943 0 0 Z " fill="#E2E2E2" transform="translate(638.88671875,247.70703125)"/>
<path d="M0 0 C0 0.99 0 1.98 0 3 C-0.88751953 3.07347656 -0.88751953 3.07347656 -1.79296875 3.1484375 C-8.29022506 3.4861087 -8.29022506 3.4861087 -14 6 C-15.0369484 9.29094677 -15.57730897 12.58061883 -16 16 C-16.33 16 -16.66 16 -17 16 C-17.144375 15.21625 -17.28875 14.4325 -17.4375 13.625 C-17.87798925 11.03578982 -17.87798925 11.03578982 -19 9 C-18.20917288 5.2435712 -17.06907105 4.05324227 -14 1.6875 C-9.49762064 -0.68267433 -4.95895843 -0.35920021 0 0 Z " fill="#1C1C1C" transform="translate(533,192)"/>
<path d="M0 0 C5.875 0.875 5.875 0.875 7 2 C8.68183948 2.23287008 10.3712416 2.41264166 12.0625 2.5625 C13.44115234 2.68818359 13.44115234 2.68818359 14.84765625 2.81640625 C15.91306641 2.90728516 15.91306641 2.90728516 17 3 C17.33 3.99 17.66 4.98 18 6 C11.97322053 6.32873343 6.43037473 5.8874859 1 3 C0.67 2.01 0.34 1.02 0 0 Z " fill="#202020" transform="translate(562,244)"/>
<path d="M0 0 C0.66 0 1.32 0 2 0 C2.185625 0.9590625 2.185625 0.9590625 2.375 1.9375 C2.684375 2.9584375 2.684375 2.9584375 3 4 C3.66 4.33 4.32 4.66 5 5 C5.33 3.68 5.66 2.36 6 1 C6.66 1 7.32 1 8 1 C8.23053497 3.84326464 8.35903101 5.46145349 6.75 7.875 C5 9 5 9 2.875 8.8125 C1 8 1 8 0 6 C-0.039992 4.00039988 -0.04346799 1.99952758 0 0 Z " fill="#101010" transform="translate(625,216)"/>
<path d="M0 0 C0.66 0 1.32 0 2 0 C2 1.32 2 2.64 2 4 C2.99 4 3.98 4 5 4 C5.33 2.68 5.66 1.36 6 0 C6.66 0 7.32 0 8 0 C7.125 5.875 7.125 5.875 6 7 C4.00041636 7.04080783 1.99954746 7.04254356 0 7 C-1.125 2.25 -1.125 2.25 0 0 Z " fill="#040404" transform="translate(693,223)"/>
<path d="M0 0 C0.99 0 1.98 0 3 0 C3.33 0.66 3.66 1.32 4 2 C4.99 1.67 5.98 1.34 7 1 C6.67 2.65 6.34 4.3 6 6 C4.34385343 6.38218767 2.67542976 6.71395102 1 7 C0 6 0 6 -0.0625 2.9375 C-0.041875 1.968125 -0.02125 0.99875 0 0 Z " fill="#212121" transform="translate(715,189)"/>
<path d="M0 0 C0.66 0 1.32 0 2 0 C1.25 4.75 1.25 4.75 -1 7 C-3.5625 7.1875 -3.5625 7.1875 -6 7 C-7 6 -7 6 -7.0625 3.4375 C-7.041875 2.633125 -7.02125 1.82875 -7 1 C-6.34 1 -5.68 1 -5 1 C-5 1.99 -5 2.98 -5 4 C-3.68 4 -2.36 4 -1 4 C-0.67 2.68 -0.34 1.36 0 0 Z " fill="#080808" transform="translate(615,179)"/>
<path d="M0 0 C0.66 0 1.32 0 2 0 C2 0.99 2 1.98 2 3 C2.66 3 3.32 3 4 3 C4 2.01 4 1.02 4 0 C4.66 0 5.32 0 6 0 C6 1.98 6 3.96 6 6 C2.25 7.125 2.25 7.125 0 6 C0 4.02 0 2.04 0 0 Z " fill="#0D0D0D" transform="translate(542,237)"/>
<path d="M0 0 C0.33 0 0.66 0 1 0 C1.125 4.75 1.125 4.75 0 7 C-0.0396713 8.66619446 -0.04384447 10.33391013 0 12 C-0.66 12 -1.32 12 -2 12 C-3.40457737 9.19084526 -3.24895157 7.11189466 -3 4 C-1.5625 1.625 -1.5625 1.625 0 0 Z " fill="#0D0D0D" transform="translate(518,162)"/>
<path d="M0 0 C2.64 0 5.28 0 8 0 C4.55384615 5.78461538 4.55384615 5.78461538 1.75 6.875 C1.1725 6.91625 0.595 6.9575 0 7 C0.375 5.0625 0.375 5.0625 1 3 C1.66 2.67 2.32 2.34 3 2 C2.01 1.34 1.02 0.68 0 0 Z " fill="#494949" transform="translate(651,247)"/>
<path d="M0 0 C1.41687119 4.25061356 0.19320039 6.71851625 -1 11 C-2.5625 9.875 -2.5625 9.875 -4 8 C-3.875 4.9375 -3.875 4.9375 -3 2 C-2.01 1.34 -1.02 0.68 0 0 Z " fill="#282828" transform="translate(565,157)"/>
<path d="M0 0 C1.65 0 3.3 0 5 0 C4.67 1.32 4.34 2.64 4 4 C2.68 4 1.36 4 0 4 C0 2.68 0 1.36 0 0 Z " fill="#050505" transform="translate(509,189)"/>
</svg>
