<?xml version="1.0" encoding="UTF-8"?>
<svg version="1.1" xmlns="http://www.w3.org/2000/svg" width="800" height="300">
<path d="M0 0 C264 0 528 0 800 0 C800 99 800 198 800 300 C536 300 272 300 0 300 C0 201 0 102 0 0 Z " fill="#FEFEFE" transform="translate(0,0)"/>
<path d="M0 0 C8.08108108 1.05405405 8.08108108 1.05405405 11.125 4.1875 C13 7 13 7 14 13 C26.375 12.505 26.375 12.505 39 12 C39.99 9.03 40.98 6.06 42 3 C42.66 2.01 43.32 1.02 44 0 C49.45473727 -0.99327538 55.34155698 -0.98016153 60.1875 1.9375 C62.96456588 4.26969611 63.51115435 6.25587974 63.9375 9.8125 C63.96841334 11.20814648 63.99086 12.60404112 64 14 C65.02561035 13.99419922 66.0512207 13.98839844 67.10791016 13.98242188 C76.78168543 13.94501751 86.4319349 14.11534875 96.10012817 14.42779541 C109.92099894 14.86647081 123.73468347 15.10897493 137.5625 15.125 C138.31851501 15.12749756 139.07453003 15.12999512 139.85345459 15.13256836 C141.98698629 15.13841285 144.1203733 15.13700824 146.25390625 15.1328125 C147.46377197 15.13168457 148.6736377 15.13055664 149.92016602 15.12939453 C152.51997317 15.0201676 154.51545343 14.65046612 157 14 C160.99687025 13.77307845 164.99733351 13.81483528 169 13.8125 C170.07378906 13.80025391 171.14757812 13.78800781 172.25390625 13.77539062 C178.91767612 13.76336216 184.95579923 14.3872651 191.44140625 15.9597168 C194.16569941 16.29038801 194.16569941 16.29038801 196.17871094 14.07055664 C196.77973633 13.38727295 197.38076172 12.70398926 198 12 C200.578125 11.609375 200.578125 11.609375 203.25 11.75 C204.14203125 11.78609375 205.0340625 11.8221875 205.953125 11.859375 C206.96632813 11.92898437 206.96632813 11.92898437 208 12 C209.61930707 16.56350173 208.27853 19.41720691 206.3984375 23.62109375 C205.67795749 27.9227832 208.44159874 31.07884172 210.60546875 34.6484375 C215.91625645 43.80135063 216.86092523 52.86195829 214.19140625 63.1015625 C212.64931617 67.16980015 210.84755744 70.68158661 208 74 C207.34 74 206.68 74 206 74 C205.67 74.99 205.34 75.98 205 77 C202.81044722 78.45578844 200.67430184 79.7441185 198.375 81 C197.77042969 81.34289062 197.16585937 81.68578125 196.54296875 82.0390625 C192.46691965 84.31608779 188.304659 86.18313028 184 88 C180.8409567 89.56618432 177.70798704 91.17693517 174.57421875 92.79296875 C172 94 172 94 170 94 C170.39426385 99.71682581 170.88831732 103.68273319 175 108 C177.29939768 108.71518337 179.56237149 109.12497777 181.93359375 109.53515625 C184 110 184 110 186.125 111.5625 C187.52617767 115.46578064 186.9444268 119.01636517 186 123 C183.79452055 127.60273973 183.79452055 127.60273973 181 129 C178.87960174 129.17431846 176.75206692 129.26709071 174.625 129.3125 C172.91183594 129.36857422 172.91183594 129.36857422 171.1640625 129.42578125 C168 129 168 129 165.58203125 127.25390625 C163.75035706 124.64433586 163.6763958 123.72470974 164.0625 120.625 C164.24410208 116.78630766 164.17184896 116.23390553 161.75 112.9375 C161.07130859 112.24720703 161.07130859 112.24720703 160.37890625 111.54296875 C157.6904544 108.53464444 155 104.10584675 155 100 C154.29746094 100.31066406 153.59492187 100.62132812 152.87109375 100.94140625 C149.89494464 102.0387347 147.20065746 102.51342467 144.0625 102.9375 C139.49030809 103.63875643 136.07648895 104.75793108 132 107 C130.68 107 129.36 107 128 107 C127.6596875 108.0828125 127.6596875 108.0828125 127.3125 109.1875 C125.66099387 112.7264417 124.11841749 114.62729104 121 117 C117.98395537 117.69554906 116.18311337 117.45473048 113 117 C109.21269327 114.40868487 107.91988299 111.43216352 107 107 C107.12328767 98.87671233 107.12328767 98.87671233 110 96 C114.13997567 95.8028583 117.07703567 95.69234522 121 97 C126.33295432 97.343491 126.33295432 97.343491 131 95 C131.99 95 132.98 95 134 95 C134 94.34 134 93.68 134 93 C105.785 93.99 105.785 93.99 77 95 C77 97.64 77 100.28 77 103 C76 106.5 76 106.5 75 109 C74.34 109 73.68 109 73 109 C72.505 110.485 72.505 110.485 72 112 C68.89043581 114.56081757 67.38616355 115.01309029 63.3125 114.875 C60 114 60 114 58 111 C57.875 107.8125 57.875 107.8125 58 105 C56.72125 104.896875 55.4425 104.79375 54.125 104.6875 C49.67942162 104.20595383 45.68677855 103.06119265 41.44140625 101.69921875 C37.97026599 100.70508418 34.59051076 100.3324547 31 100 C32.42673359 102.88634122 33.90494836 105.54445319 36 108 C39.55652459 108.90137027 39.55652459 108.90137027 43 109 C44.875 110.0625 44.875 110.0625 46 112 C47.31966126 117.03120854 47.64086406 118.82508256 45.125 123.4375 C42.20137358 126.42627687 39.29124439 126.91672162 35.2109375 127.11328125 C32.1833545 126.95815774 29.7652099 126.22183693 27 125 C25.8553125 124.5359375 25.8553125 124.5359375 24.6875 124.0625 C23 123 23 123 22 120 C22.10584441 118.45689985 22.23320266 116.91521253 22.375 115.375 C22.46490139 109.76842217 20.34785191 107.1485034 16.75390625 103.0390625 C13.89771402 99.71850048 12.37121074 96.11363222 11 92 C10.41621582 91.94054199 9.83243164 91.88108398 9.23095703 91.81982422 C-14.55383368 89.26994438 -14.55383368 89.26994438 -22.875 80.0625 C-31.57041603 67.53087101 -32.76240964 54.29873575 -30.4296875 39.34375 C-28.54023073 31.30858647 -25.9596863 26.14169976 -19.19140625 21.29296875 C-14.66346714 18.62140396 -10.24626376 18 -5 18 C-5.268125 17.05125 -5.53625 16.1025 -5.8125 15.125 C-6.63552328 9.76986185 -3.67819186 5.45228073 -1 1 C-0.67 0.67 -0.34 0.34 0 0 Z " fill="#FDFDFD" transform="translate(513,155)"/>
<path d="M0 0 C8.08108108 1.05405405 8.08108108 1.05405405 11.125 4.1875 C13 7 13 7 14 13 C26.375 12.505 26.375 12.505 39 12 C39.99 9.03 40.98 6.06 42 3 C42.66 2.01 43.32 1.02 44 0 C49.45473727 -0.99327538 55.34155698 -0.98016153 60.1875 1.9375 C62.96456588 4.26969611 63.51115435 6.25587974 63.9375 9.8125 C63.96841334 11.20814648 63.99086 12.60404112 64 14 C65.02561035 13.99419922 66.0512207 13.98839844 67.10791016 13.98242188 C76.78168543 13.94501751 86.4319349 14.11534875 96.10012817 14.42779541 C109.92099894 14.86647081 123.73468347 15.10897493 137.5625 15.125 C138.31851501 15.12749756 139.07453003 15.12999512 139.85345459 15.13256836 C141.98698629 15.13841285 144.1203733 15.13700824 146.25390625 15.1328125 C147.46377197 15.13168457 148.6736377 15.13055664 149.92016602 15.12939453 C152.51997317 15.0201676 154.51545343 14.65046612 157 14 C160.99687025 13.77307845 164.99733351 13.81483528 169 13.8125 C170.07378906 13.80025391 171.14757812 13.78800781 172.25390625 13.77539062 C178.91767612 13.76336216 184.95579923 14.3872651 191.44140625 15.9597168 C194.16569941 16.29038801 194.16569941 16.29038801 196.17871094 14.07055664 C196.77973633 13.38727295 197.38076172 12.70398926 198 12 C200.578125 11.609375 200.578125 11.609375 203.25 11.75 C204.14203125 11.78609375 205.0340625 11.8221875 205.953125 11.859375 C206.96632813 11.92898437 206.96632813 11.92898437 208 12 C209.61930707 16.56350173 208.27853 19.41720691 206.3984375 23.62109375 C205.67795749 27.9227832 208.44159874 31.07884172 210.60546875 34.6484375 C215.91625645 43.80135063 216.86092523 52.86195829 214.19140625 63.1015625 C212.64931617 67.16980015 210.84755744 70.68158661 208 74 C207.34 74 206.68 74 206 74 C205.67 74.99 205.34 75.98 205 77 C202.81044722 78.45578844 200.67430184 79.7441185 198.375 81 C197.77042969 81.34289062 197.16585937 81.68578125 196.54296875 82.0390625 C192.46691965 84.31608779 188.304659 86.18313028 184 88 C180.8409567 89.56618432 177.70798704 91.17693517 174.57421875 92.79296875 C172 94 172 94 170 94 C170.39426385 99.71682581 170.88831732 103.68273319 175 108 C177.29939768 108.71518337 179.56237149 109.12497777 181.93359375 109.53515625 C184 110 184 110 186.125 111.5625 C187.52617767 115.46578064 186.9444268 119.01636517 186 123 C183.79452055 127.60273973 183.79452055 127.60273973 181 129 C178.87960174 129.17431846 176.75206692 129.26709071 174.625 129.3125 C172.91183594 129.36857422 172.91183594 129.36857422 171.1640625 129.42578125 C168 129 168 129 165.58203125 127.25390625 C163.75035706 124.64433586 163.6763958 123.72470974 164.0625 120.625 C164.24410208 116.78630766 164.17184896 116.23390553 161.75 112.9375 C161.07130859 112.24720703 161.07130859 112.24720703 160.37890625 111.54296875 C157.6904544 108.53464444 155 104.10584675 155 100 C154.29746094 100.31066406 153.59492187 100.62132812 152.87109375 100.94140625 C149.89494464 102.0387347 147.20065746 102.51342467 144.0625 102.9375 C139.49030809 103.63875643 136.07648895 104.75793108 132 107 C130.68 107 129.36 107 128 107 C127.6596875 108.0828125 127.6596875 108.0828125 127.3125 109.1875 C125.66099387 112.7264417 124.11841749 114.62729104 121 117 C117.98395537 117.69554906 116.18311337 117.45473048 113 117 C109.21269327 114.40868487 107.91988299 111.43216352 107 107 C107.12328767 98.87671233 107.12328767 98.87671233 110 96 C114.13997567 95.8028583 117.07703567 95.69234522 121 97 C126.33295432 97.343491 126.33295432 97.343491 131 95 C131.99 95 132.98 95 134 95 C134 94.34 134 93.68 134 93 C105.785 93.99 105.785 93.99 77 95 C77 97.64 77 100.28 77 103 C76 106.5 76 106.5 75 109 C74.34 109 73.68 109 73 109 C72.505 110.485 72.505 110.485 72 112 C68.89043581 114.56081757 67.38616355 115.01309029 63.3125 114.875 C60 114 60 114 58 111 C57.875 107.8125 57.875 107.8125 58 105 C56.72125 104.896875 55.4425 104.79375 54.125 104.6875 C49.67942162 104.20595383 45.68677855 103.06119265 41.44140625 101.69921875 C37.97026599 100.70508418 34.59051076 100.3324547 31 100 C32.42673359 102.88634122 33.90494836 105.54445319 36 108 C39.55652459 108.90137027 39.55652459 108.90137027 43 109 C44.875 110.0625 44.875 110.0625 46 112 C47.31966126 117.03120854 47.64086406 118.82508256 45.125 123.4375 C42.20137358 126.42627687 39.29124439 126.91672162 35.2109375 127.11328125 C32.1833545 126.95815774 29.7652099 126.22183693 27 125 C25.8553125 124.5359375 25.8553125 124.5359375 24.6875 124.0625 C23 123 23 123 22 120 C22.10584441 118.45689985 22.23320266 116.91521253 22.375 115.375 C22.46490139 109.76842217 20.34785191 107.1485034 16.75390625 103.0390625 C13.89771402 99.71850048 12.37121074 96.11363222 11 92 C10.41621582 91.94054199 9.83243164 91.88108398 9.23095703 91.81982422 C-14.55383368 89.26994438 -14.55383368 89.26994438 -22.875 80.0625 C-31.57041603 67.53087101 -32.76240964 54.29873575 -30.4296875 39.34375 C-28.54023073 31.30858647 -25.9596863 26.14169976 -19.19140625 21.29296875 C-14.66346714 18.62140396 -10.24626376 18 -5 18 C-5.268125 17.05125 -5.53625 16.1025 -5.8125 15.125 C-6.63552328 9.76986185 -3.67819186 5.45228073 -1 1 C-0.67 0.67 -0.34 0.34 0 0 Z M1 3 C-2.05498079 8.78217394 -3.64451156 12.5589964 -2 19 C-3.258125 19.20625 -4.51625 19.4125 -5.8125 19.625 C-12.24036536 21.08957692 -19.27998998 23.60699781 -23.515625 28.890625 C-27.3005794 36.0650908 -28.37248478 43.87645761 -28.3125 51.875 C-28.30686035 52.66438965 -28.3012207 53.4537793 -28.29541016 54.26708984 C-28.07154781 65.04129649 -25.24890838 72.93624446 -17.41796875 80.53515625 C-8.42662892 88.34282603 2.59301096 88.35833473 14 88 C13.93296875 88.71027344 13.8659375 89.42054688 13.796875 90.15234375 C14.05350345 93.75007717 15.26811481 95.5688541 17.25 98.5625 C17.85328125 99.49191406 18.4565625 100.42132813 19.078125 101.37890625 C20.88712882 103.8460639 22.83642905 105.84995137 25 108 C26.06011943 109.96879323 27.07470849 111.96435867 28 114 C27.01 114.33 26.02 114.66 25 115 C25 116.65 25 118.3 25 120 C29.90360711 123.35696669 29.90360711 123.35696669 35.6875 123.875 C39.60036106 122.94685815 39.60036106 122.94685815 43 121 C43.99764302 118.29211182 44.11190099 116.5754908 43.5625 113.75 C42.7890625 112.88375 42.7890625 112.88375 42 112 C40.80375 112.020625 39.6075 112.04125 38.375 112.0625 C36.234375 111.9453125 36.234375 111.9453125 34 111 C31.52751374 107.74081357 29.59951696 104.39967195 27.6640625 100.80859375 C26.84035156 99.41833984 26.84035156 99.41833984 26 98 C25.34 98 24.68 98 24 98 C24 96.35 24 94.7 24 93 C24.33 93.66 24.66 94.32 25 95 C30.64446345 98.15039821 36.34108937 98.72557363 42.69921875 99.53125 C46.25960927 100.03686759 49.55436948 100.98657926 53 102 C55.99244748 102.43095117 58.98819535 102.74047942 62 103 C61.67 103.66 61.34 104.32 61 105 C60.960008 106.99960012 60.95653201 109.00047242 61 111 C65.18774791 111.41056352 67.33324208 111.44933686 70.875 109.0625 C73.60260555 105.13153906 74.48216798 101.7770346 74 97 C72.15014823 94.44848032 70.7804657 93.39023285 68 92 C66.00039988 91.960008 63.99952758 91.95653201 62 92 C61.67 92.66 61.34 93.32 61 94 C53.7515055 94.41640288 47.83085645 93.44166784 41 91 C41 90.34 41 89.68 41 89 C42.11375 89.495 43.2275 89.99 44.375 90.5 C49.26619193 92.36706789 53.8307192 92.28600529 59 92 C59 91.34 59 90.68 59 90 C60.43739513 89.97287934 61.87493863 89.95354933 63.3125 89.9375 C64.51326172 89.92009766 64.51326172 89.92009766 65.73828125 89.90234375 C68 90 68 90 71 91 C73.69271286 91.09122131 76.35900425 91.12602134 79.05151367 91.11352539 C79.87125168 91.11367142 80.69098969 91.11381744 81.53556824 91.1139679 C84.24639528 91.11327096 86.9571537 91.10548878 89.66796875 91.09765625 C91.54698143 91.09579129 93.4259946 91.09436776 95.30500793 91.09336853 C100.25175315 91.08954948 105.19846902 91.07972438 110.14520264 91.06866455 C115.19250085 91.0584373 120.23980379 91.05386809 125.28710938 91.04882812 C135.19141914 91.03810159 145.09570713 91.02103248 155 91 C155.33 91.66 155.66 92.32 156 93 C155.27554688 92.97679687 154.55109375 92.95359375 153.8046875 92.9296875 C148.4292646 92.82934627 144.00340144 92.82460807 139 95 C138.2678125 95.31453125 137.535625 95.6290625 136.78125 95.953125 C133.77291606 97.26194561 130.79223069 98.5841155 127.88671875 100.109375 C125.43315858 101.26757732 123.68392669 101.27527453 121 101 C120.01 100.34 119.02 99.68 118 99 C115.66800612 98.92094936 113.33167378 98.91201231 111 99 C109.67036453 104.92292164 110.28843945 107.78546048 113 113 C114.09923541 114.30746709 114.09923541 114.30746709 116.8125 114.3125 C120.0436513 114.26810313 120.0436513 114.26810313 122.3125 112.3125 C124.15705705 109.78477367 124.4907044 108.04064599 125 105 C125.64066406 104.89042969 126.28132812 104.78085937 126.94140625 104.66796875 C132.36847084 103.67314171 136.9199644 102.18967052 142 100 C145.97643597 98.89682735 149.98002849 97.93073232 154 97 C154 96.34 154 95.68 154 95 C154.99 95 155.98 95 157 95 C157.10699219 95.87398438 157.21398437 96.74796875 157.32421875 97.6484375 C158.02354748 101.1167846 159.09878561 103.54465261 160.8125 106.625 C161.31394531 107.54539062 161.81539062 108.46578125 162.33203125 109.4140625 C163.90026132 112.07590762 163.90026132 112.07590762 166.22265625 114.078125 C168 116 168 116 168.1015625 118.0703125 C167.94429687 118.74835938 167.78703125 119.42640625 167.625 120.125 C167.41875 121.40375 167.2125 122.6825 167 124 C168.8628949 126.30060534 168.8628949 126.30060534 171.8203125 126.1953125 C172.91085937 126.17210937 174.00140625 126.14890625 175.125 126.125 C176.22070312 126.10695313 177.31640625 126.08890625 178.4453125 126.0703125 C179.28835938 126.04710937 180.13140625 126.02390625 181 126 C183.91360308 121.22169095 184.19876651 118.44893869 183 113 C182.38511719 112.86722656 181.77023437 112.73445313 181.13671875 112.59765625 C180.32847656 112.42105469 179.52023437 112.24445313 178.6875 112.0625 C177.88699219 111.88847656 177.08648438 111.71445312 176.26171875 111.53515625 C174 111 174 111 171 110 C168.50471221 105.44976932 167.92265536 100.05497351 167 95 C166.34 95 165.68 95 165 95 C165 93.68 165 92.36 165 91 C166.216875 90.896875 167.43375 90.79375 168.6875 90.6875 C172.47871152 90.21526137 174.79719614 89.13520258 178 87 C179.70014957 86.26219924 181.40108345 85.5257984 183.11328125 84.81640625 C185.81045337 83.64930693 188.4078893 82.30291377 191.0234375 80.96484375 C192.84918602 80.07361868 194.73641435 79.3114219 196.625 78.5625 C203.64017524 75.31473369 208.2747366 70.42838366 211.08203125 63.22265625 C214.03586521 52.85281361 212.04304892 43.30257329 207 34 C206.23099728 32.87993082 205.4433892 31.77200876 204.625 30.6875 C203 28 203 28 203.125 24.5 C203.93491049 21.26035804 204.85284873 18.13554681 206 15 C202.62599422 14.58274322 202.62599422 14.58274322 199 15 C196.99135641 17.3726974 196.99135641 17.3726974 196 20 C195.42169434 19.68272949 194.84338867 19.36545898 194.24755859 19.03857422 C187.17321844 15.76959279 177.97835608 16.84790966 170.375 16.875 C169.281875 16.87113281 168.18875 16.86726563 167.0625 16.86328125 C165.99773437 16.86457031 164.93296875 16.86585938 163.8359375 16.8671875 C162.88251465 16.86831543 161.9290918 16.86944336 160.94677734 16.87060547 C157.91354587 16.95370667 157.91354587 16.95370667 154.59619141 17.5 C150.89127776 18.0151163 147.36411796 18.12943958 143.625 18.1328125 C142.59451538 18.13424759 142.59451538 18.13424759 141.54321289 18.13571167 C140.09440011 18.13638826 138.6455842 18.13457053 137.19677734 18.13037109 C135.03345501 18.1250818 132.87034666 18.13029942 130.70703125 18.13671875 C122.79455427 18.14067875 114.97524107 17.84243356 107.08056641 17.25830078 C99.55305537 16.74267929 92.00262094 16.62221249 84.46118164 16.44238281 C81.6464534 16.37400283 78.83206018 16.29654513 76.01757812 16.21875 C74.22397186 16.17393457 72.43035239 16.12964347 70.63671875 16.0859375 C69.79727219 16.06203949 68.95782562 16.03814148 68.09294128 16.01351929 C63.91540242 15.79881981 63.91540242 15.79881981 60 17 C60.17789063 16.09507812 60.17789063 16.09507812 60.359375 15.171875 C60.75207846 12.73711355 61.03829111 10.46764949 61 8 C59.15014823 5.44848032 57.7804657 4.39023285 55 3 C53.29297265 2.93003986 51.58331997 2.91559846 49.875 2.9375 C48.26625 2.958125 46.6575 2.97875 45 3 C43.68 6.96 42.36 10.92 41 15 C31.43 15 21.86 15 12 15 C11.34 13.02 10.68 11.04 10 9 C8.53078352 6.57129521 7.04783902 5.04783902 5 3 C3.68 3 2.36 3 1 3 Z " fill="#1B1B1B" transform="translate(513,155)"/>
<path d="M0 0 C0.88171875 0.04640625 1.7634375 0.0928125 2.671875 0.140625 C3.56390625 0.17671875 4.4559375 0.2128125 5.375 0.25 C6.38820313 0.31960937 6.38820313 0.31960937 7.421875 0.390625 C9.04118207 4.95412673 7.700405 7.80783191 5.8203125 12.01171875 C5.09983249 16.3134082 7.86347374 19.46946672 10.02734375 23.0390625 C15.33813145 32.19197563 16.28280023 41.25258329 13.61328125 51.4921875 C12.07119117 55.56042515 10.26943244 59.07221161 7.421875 62.390625 C6.761875 62.390625 6.101875 62.390625 5.421875 62.390625 C5.091875 63.380625 4.761875 64.370625 4.421875 65.390625 C2.71484375 66.8125 2.71484375 66.8125 0.609375 68.140625 C-0.07769531 68.58921875 -0.76476562 69.0378125 -1.47265625 69.5 C-3.97747331 70.55955156 -5.07093735 70.31462224 -7.578125 69.390625 C-6.29095853 68.38483911 -4.99823842 67.38615702 -3.703125 66.390625 C-2.98382812 65.83375 -2.26453125 65.276875 -1.5234375 64.703125 C0.421875 63.390625 0.421875 63.390625 2.421875 63.390625 C2.751875 62.400625 3.081875 61.410625 3.421875 60.390625 C4.081875 60.390625 4.741875 60.390625 5.421875 60.390625 C6.131876 59.07985393 6.78227486 57.7371516 7.421875 56.390625 C7.958125 55.276875 8.494375 54.163125 9.046875 53.015625 C12.49124688 43.46370711 10.97509149 33.93756342 6.8046875 24.94140625 C5.66279854 22.83504046 4.48489688 20.98375539 3.046875 19.078125 C1.421875 16.390625 1.421875 16.390625 1.484375 12.890625 C2.41734629 9.40753219 3.66117013 6.52927281 5.421875 3.390625 C2.02106923 3.49470417 2.02106923 3.49470417 -1.578125 4.390625 C-3.56895677 6.8158038 -3.56895677 6.8158038 -4.578125 9.390625 C-5.14273438 9.07222656 -5.70734375 8.75382813 -6.2890625 8.42578125 C-8.71167608 7.33023074 -10.56574784 7.0354105 -13.203125 6.828125 C-17.38368056 6.48784722 -17.38368056 6.48784722 -19.578125 5.390625 C-21.24378249 5.23839527 -22.91468996 5.14145285 -24.5859375 5.07421875 C-25.57207031 5.03232422 -26.55820312 4.99042969 -27.57421875 4.94726562 C-29.12302734 4.88829102 -29.12302734 4.88829102 -30.703125 4.828125 C-32.26353516 4.76334961 -32.26353516 4.76334961 -33.85546875 4.69726562 C-36.42955028 4.5909962 -39.00373008 4.48895917 -41.578125 4.390625 C-41.248125 3.730625 -40.918125 3.070625 -40.578125 2.390625 C-17.62501327 1.99234623 -17.62501327 1.99234623 -8.8203125 4.34375 C-8.08039062 4.35921875 -7.34046875 4.3746875 -6.578125 4.390625 C-2.48273549 0.37617204 -2.48273549 0.37617204 0 0 Z " fill="#1C1C1C" transform="translate(713.578125,166.609375)"/>
<path d="M0 0 C1.46373047 0.02707031 1.46373047 0.02707031 2.95703125 0.0546875 C3.69308594 0.07789063 4.42914062 0.10109375 5.1875 0.125 C5.1875 1.115 5.1875 2.105 5.1875 3.125 C4.27226563 3.25777344 3.35703125 3.39054688 2.4140625 3.52734375 C1.22554687 3.70394531 0.03703125 3.88054687 -1.1875 4.0625 C-2.37085938 4.23652344 -3.55421875 4.41054687 -4.7734375 4.58984375 C-7.71952381 4.95962786 -7.71952381 4.95962786 -9.8125 6.125 C-10.98914871 9.65494613 -11.01100603 12.41955413 -10.8125 16.125 C-9.09023504 19.37349977 -9.09023504 19.37349977 -5.8125 20.125 C-4.40425107 20.20521999 -2.99252769 20.23265977 -1.58203125 20.22265625 C-0.77958984 20.21943359 0.02285156 20.21621094 0.84960938 20.21289062 C1.68298828 20.20451172 2.51636719 20.19613281 3.375 20.1875 C4.6424707 20.18073242 4.6424707 20.18073242 5.93554688 20.17382812 C8.01956155 20.16205403 10.10353977 20.1441189 12.1875 20.125 C12.1875 21.115 12.1875 22.105 12.1875 23.125 C4.71445502 25.61601499 -3.77360078 24.64513349 -11.10546875 22.07421875 C-12.8125 21.125 -12.8125 21.125 -14.8125 18.125 C-15.43739744 13.21771716 -15.21286451 8.52566827 -12.8125 4.125 C-9.04213149 0.35463149 -5.18226941 -0.12487396 0 0 Z " fill="#1E1E1E" transform="translate(520.8125,191.875)"/>
<path d="M0 0 C1.62567079 0.14715199 3.25586857 0.24721867 4.88671875 0.31640625 C5.82451172 0.35830078 6.76230469 0.40019531 7.72851562 0.44335938 C8.70498047 0.48267578 9.68144531 0.52199219 10.6875 0.5625 C12.16959961 0.62727539 12.16959961 0.62727539 13.68164062 0.69335938 C16.12095546 0.79941654 18.56037113 0.90147714 21 1 C21 1.33 21 1.66 21 2 C20.00987915 2.03758423 20.00987915 2.03758423 18.99975586 2.07592773 C15.97884631 2.19271752 12.95818578 2.31506446 9.9375 2.4375 C8.37999023 2.49647461 8.37999023 2.49647461 6.79101562 2.55664062 C5.26831055 2.61948242 5.26831055 2.61948242 3.71484375 2.68359375 C2.78792725 2.72025146 1.86101074 2.75690918 0.90600586 2.79467773 C-2.088038 2.9674644 -2.088038 2.9674644 -5.37866211 3.51147461 C-9.1813907 4.02446995 -12.82006164 4.12948742 -16.65625 4.1328125 C-17.36221313 4.13376923 -18.06817627 4.13472595 -18.79553223 4.13571167 C-20.27791433 4.13638768 -21.76029949 4.13457412 -23.24267578 4.13037109 C-25.49388363 4.12501455 -27.74489201 4.13033584 -29.99609375 4.13671875 C-31.44531293 4.13605787 -32.894532 4.13477649 -34.34375 4.1328125 C-35.64505859 4.13168457 -36.94636719 4.13055664 -38.28710938 4.12939453 C-41.95756919 4.00147872 -45.38154072 3.58884753 -49 3 C-48.67 2.01 -48.34 1.02 -48 0 C-46.77893555 0.00523682 -45.55787109 0.01047363 -44.29980469 0.01586914 C-39.76742283 0.03397584 -35.23504416 0.04545279 -30.70263672 0.05493164 C-28.74136823 0.05995887 -26.78010348 0.06678157 -24.81884766 0.07543945 C-21.99901403 0.08757545 -19.17922998 0.09324444 -16.359375 0.09765625 C-15.48319519 0.10281754 -14.60701538 0.10797882 -13.70428467 0.11329651 C-12.88373596 0.11337204 -12.06318726 0.11344757 -11.21777344 0.11352539 C-10.49829529 0.115746 -9.77881714 0.11796661 -9.03753662 0.12025452 C-6.96987599 0.06886515 -6.96987599 0.06886515 -4.92388916 -0.56959534 C-3 -1 -3 -1 0 0 Z " fill="#252525" transform="translate(673,170)"/>
<path d="M0 0 C0.88171875 0.04640625 1.7634375 0.0928125 2.671875 0.140625 C3.56390625 0.17671875 4.4559375 0.2128125 5.375 0.25 C6.38820313 0.31960937 6.38820313 0.31960937 7.421875 0.390625 C7.091875 2.040625 6.761875 3.690625 6.421875 5.390625 C5.926875 4.400625 5.926875 4.400625 5.421875 3.390625 C2.02106923 3.49470417 2.02106923 3.49470417 -1.578125 4.390625 C-3.56895677 6.8158038 -3.56895677 6.8158038 -4.578125 9.390625 C-5.14273438 9.07222656 -5.70734375 8.75382813 -6.2890625 8.42578125 C-8.71167608 7.33023074 -10.56574784 7.0354105 -13.203125 6.828125 C-17.38368056 6.48784722 -17.38368056 6.48784722 -19.578125 5.390625 C-21.24378249 5.23839527 -22.91468996 5.14145285 -24.5859375 5.07421875 C-25.57207031 5.03232422 -26.55820312 4.99042969 -27.57421875 4.94726562 C-29.12302734 4.88829102 -29.12302734 4.88829102 -30.703125 4.828125 C-32.26353516 4.76334961 -32.26353516 4.76334961 -33.85546875 4.69726562 C-36.42955028 4.5909962 -39.00373008 4.48895917 -41.578125 4.390625 C-41.248125 3.730625 -40.918125 3.070625 -40.578125 2.390625 C-17.62501327 1.99234623 -17.62501327 1.99234623 -8.8203125 4.34375 C-8.08039062 4.35921875 -7.34046875 4.3746875 -6.578125 4.390625 C-2.48273549 0.37617204 -2.48273549 0.37617204 0 0 Z " fill="#0C0C0C" transform="translate(713.578125,166.609375)"/>
<path d="M0 0 C17.35422229 -0.17412263 34.66023663 0.36646089 52 1 C51.67 1.99 51.34 2.98 51 4 C34.17 3.67 17.34 3.34 0 3 C0 2.01 0 1.02 0 0 Z " fill="#131313" transform="translate(573,169)"/>
<path d="M0 0 C0.7211499 0.00141495 1.4422998 0.0028299 2.18530273 0.00428772 C4.45691324 0.00982244 6.72842 0.02236202 9 0.03515625 C10.55338398 0.04017971 12.10676952 0.04474113 13.66015625 0.04882812 C17.44014328 0.05977036 21.22005414 0.07698865 25 0.09765625 C25.495 1.58265625 25.495 1.58265625 26 3.09765625 C24.35451172 3.29681641 24.35451172 3.29681641 22.67578125 3.5 C21.22134199 3.6782861 19.76691558 3.85667705 18.3125 4.03515625 C17.59126953 4.12216797 16.87003906 4.20917969 16.12695312 4.29882812 C12.37989416 4.7607943 8.69207089 5.28933304 5 6.09765625 C5.66 5.10765625 6.32 4.11765625 7 3.09765625 C-0.92 3.09765625 -8.84 3.09765625 -17 3.09765625 C-16.67 2.43765625 -16.34 1.77765625 -16 1.09765625 C-10.65838183 0.16968188 -5.4181106 -0.04109124 0 0 Z " fill="#0B0B0B" transform="translate(643,244.90234375)"/>
<path d="M0 0 C2.64 0 5.28 0 8 0 C7.01 1.485 7.01 1.485 6 3 C6.33 3.66 6.66 4.32 7 5 C5.39125 5.680625 5.39125 5.680625 3.75 6.375 C1.71546456 7.23702205 -0.19370454 8.10824666 -2.125 9.1875 C-4.56895621 10.24654769 -6.36195918 10.27056829 -9 10 C-9.99 9.34 -10.98 8.68 -12 8 C-14.32387947 7.60612212 -16.65793749 7.26513915 -19 7 C-19 8.65 -19 10.3 -19 12 C-19.99 11.34 -20.98 10.68 -22 10 C-21.125 5.125 -21.125 5.125 -20 4 C-12.70588235 3.76470588 -12.70588235 3.76470588 -9 5 C-3.66704568 5.343491 -3.66704568 5.343491 1 3 C1.99 3 2.98 3 4 3 C4 2.34 4 1.68 4 1 C2.68 0.67 1.36 0.34 0 0 Z " fill="#2A2A2A" transform="translate(643,247)"/>
<path d="M0 0 C0.33 0 0.66 0 1 0 C1.20625 0.78375 1.4125 1.5675 1.625 2.375 C3.79690622 8.10093457 6.74170776 13.75837412 11.1171875 18.1015625 C13.49624527 20.50036349 14.12166281 22.7794303 15 26 C14.34 26.33 13.68 26.66 13 27 C12.67 27.66 12.34 28.32 12 29 C11 31 11 31 9 32 C9.12181641 31.07380859 9.12181641 31.07380859 9.24609375 30.12890625 C9.65467848 24.65053551 9.19955376 21.58104108 5.6875 17.25 C4.46054814 15.83141469 3.23159344 14.41455743 2 13 C-0.47294647 9.13602113 -1.05923946 7.73456931 -0.6875 3.125 C-0.460625 2.09375 -0.23375 1.0625 0 0 Z " fill="#232323" transform="translate(526,243)"/>
<path d="M0 0 C0.66 1.98 1.32 3.96 2 6 C3.91541138 6.10841951 5.83259773 6.18578079 7.75 6.25 C8.81734375 6.29640625 9.8846875 6.3428125 10.984375 6.390625 C14.63802112 5.91735478 15.72228105 4.80844958 18 2 C17.6875 4.875 17.6875 4.875 17 8 C13.46763908 10.35490728 11.75279632 10.32743705 7.5625 10.375 C6.42941406 10.40335937 5.29632812 10.43171875 4.12890625 10.4609375 C0.39176421 9.91039723 -0.76506368 8.9907907 -3 6 C-3.25 3.25 -3.25 3.25 -3 1 C-1 0 -1 0 0 0 Z " fill="#0F0F0F" transform="translate(680,274)"/>
<path d="M0 0 C0.33 0 0.66 0 1 0 C1.20496094 0.85464844 1.40992188 1.70929688 1.62109375 2.58984375 C1.89050781 3.69457031 2.15992188 4.79929687 2.4375 5.9375 C2.83775391 7.59072266 2.83775391 7.59072266 3.24609375 9.27734375 C3.72995725 11.89421254 3.72995725 11.89421254 5 13 C9.86186074 13.45226612 12.79325038 12.40385693 17 10 C16.64978759 12.53903996 16.15988127 13.82093298 14.4375 15.75 C10.9394292 17.54388246 7.85371753 17.70572194 4 17 C0.22790761 14.41909468 -1.0128925 11.39711523 -2 7 C-1.6928475 4.29705798 -1.21121254 2.42242508 0 0 Z " fill="#141414" transform="translate(622,255)"/>
<path d="M0 0 C3.02089478 -0.02716089 6.04154129 -0.04691657 9.0625 -0.0625 C9.91005859 -0.07087891 10.75761719 -0.07925781 11.63085938 -0.08789062 C16.5361722 -0.10683006 21.16444755 0.16673655 26 1 C26 1.99 26 2.98 26 4 C17.09 3.67 8.18 3.34 -1 3 C-0.67 2.01 -0.34 1.02 0 0 Z " fill="#202020" transform="translate(511,228)"/>
<path d="M0 0 C0.33 0 0.66 0 1 0 C0.56744475 5.40694067 -0.58221513 8.75366122 -4 13 C-4.66 13 -5.32 13 -6 13 C-6.33 13.99 -6.66 14.98 -7 16 C-8.70703125 17.421875 -8.70703125 17.421875 -10.8125 18.75 C-11.49957031 19.19859375 -12.18664062 19.6471875 -12.89453125 20.109375 C-15.39934831 21.16892656 -16.49281235 20.92399724 -19 20 C-17.71283353 18.99421411 -16.42011342 17.99553202 -15.125 17 C-14.40570312 16.443125 -13.68640625 15.88625 -12.9453125 15.3125 C-11 14 -11 14 -9 14 C-8.67 13.01 -8.34 12.02 -8 11 C-7.34 11 -6.68 11 -6 11 C-5.731875 10.46375 -5.46375 9.9275 -5.1875 9.375 C-4.795625 8.59125 -4.40375 7.8075 -4 7 C-3.2265625 5.4221875 -3.2265625 5.4221875 -2.4375 3.8125 C-1 1 -1 1 0 0 Z " fill="#141414" transform="translate(725,216)"/>
<path d="M0 0 C2.15478516 -0.34057617 2.15478516 -0.34057617 4.7890625 -0.29296875 C5.73007812 -0.28330078 6.67109375 -0.27363281 7.640625 -0.26367188 C9.11789062 -0.2259668 9.11789062 -0.2259668 10.625 -0.1875 C12.11386719 -0.16719727 12.11386719 -0.16719727 13.6328125 -0.14648438 C16.08908072 -0.11105743 18.54427285 -0.06166196 21 0 C21 0.66 21 1.32 21 2 C13.17114574 6.58274396 6.41072793 4.89537531 -2 3 C-1.34 2.01 -0.68 1.02 0 0 Z " fill="#DCDCDC" transform="translate(626,248)"/>
<path d="M0 0 C6.02080285 -0.54514312 10.87251792 -0.65342442 15.7265625 3.2890625 C18.10452019 6.48398725 18.05896433 10.13362476 18 14 C17.01 14.33 16.02 14.66 15 15 C14.67 12.03 14.34 9.06 14 6 C9.1956792 3.5978396 4.26896105 3.38877771 -1 3 C-0.67 2.01 -0.34 1.02 0 0 Z " fill="#212121" transform="translate(559,155)"/>
<path d="M0 0 C0.68449219 0.14308594 1.36898437 0.28617188 2.07421875 0.43359375 C5.31053736 1.06011738 8.55335919 1.56869079 11.8125 2.0625 C13.55466797 2.32740234 13.55466797 2.32740234 15.33203125 2.59765625 C16.21246094 2.73042969 17.09289062 2.86320313 18 3 C18 2.34 18 1.68 18 1 C19.8125 0.3125 19.8125 0.3125 22 0 C23.75 1.4375 23.75 1.4375 25 3 C23.68 3 22.36 3 21 3 C20.67 3.99 20.34 4.98 20 6 C12.30415843 6.42579451 6.93348093 5.46674047 0 2 C0 1.34 0 0.68 0 0 Z " fill="#343434" transform="translate(554,244)"/>
<path d="M0 0 C0.66 0.33 1.32 0.66 2 1 C2 1.99 2 2.98 2 4 C1.46632813 4.23074219 0.93265625 4.46148437 0.3828125 4.69921875 C-4.81998866 6.97656943 -9.89364273 9.4283089 -14.93359375 12.046875 C-17 13 -17 13 -19 13 C-19 11.68 -19 10.36 -19 9 C-18.38253906 8.76925781 -17.76507812 8.53851563 -17.12890625 8.30078125 C-11.72142074 6.21844665 -6.76401413 3.87058718 -1.8125 0.85546875 C-1.214375 0.57316406 -0.61625 0.29085937 0 0 Z " fill="#262626" transform="translate(706,234)"/>
<path d="M0 0 C3.04064193 3.07273313 3.36526876 5.64063575 3.36132812 9.89257812 C3.34521484 10.60865234 3.32910156 11.32472656 3.3125 12.0625 C3.31572266 12.78244141 3.31894531 13.50238281 3.32226562 14.24414062 C3.28374156 18.01599709 3.13773952 19.79339072 1 23 C0.34 22.67 -0.32 22.34 -1 22 C-0.98839844 20.90300781 -0.97679687 19.80601562 -0.96484375 18.67578125 C-0.95546036 17.22135588 -0.94636075 15.76692865 -0.9375 14.3125 C-0.92912109 13.59126953 -0.92074219 12.87003906 -0.91210938 12.12695312 C-0.89456368 8.28444618 -1.06475779 4.73360474 -2 1 C-1.34 0.67 -0.68 0.34 0 0 Z " fill="#232323" transform="translate(725,195)"/>
<path d="M0 0 C0.99 0 1.98 0 3 0 C3.33 1.65 3.66 3.3 4 5 C4.66 3.68 5.32 2.36 6 1 C6.99 1 7.98 1 9 1 C8.45276317 4.37462715 7.9451 6.08235 6 9 C4.35 8.67 2.7 8.34 1 8 C0.67 5.36 0.34 2.72 0 0 Z " fill="#232323" transform="translate(617,216)"/>
<path d="M0 0 C0.99 0.33 1.98 0.66 3 1 C3.33 7.93 3.66 14.86 4 22 C3.34 22 2.68 22 2 22 C1.67 22.66 1.34 23.32 1 24 C-0.06309567 18.82682579 -0.11693938 13.87630664 -0.0625 8.625 C-0.05798828 7.79355469 -0.05347656 6.96210938 -0.04882812 6.10546875 C-0.03713164 4.07028103 -0.01919935 2.03513077 0 0 Z " fill="#2E2E2E" transform="translate(482,198)"/>
<path d="M0 0 C0.99 0 1.98 0 3 0 C3 0.99 3 1.98 3 3 C3.66 3.33 4.32 3.66 5 4 C5.33 2.68 5.66 1.36 6 0 C6.99 0.33 7.98 0.66 9 1 C8.34 2.98 7.68 4.96 7 7 C4.69 7 2.38 7 0 7 C-1.125 2.25 -1.125 2.25 0 0 Z " fill="#1D1D1D" transform="translate(685,223)"/>
<path d="M0 0 C-0.14042877 1.64630328 -0.28749329 3.29204179 -0.4375 4.9375 C-0.51871094 5.85402344 -0.59992188 6.77054688 -0.68359375 7.71484375 C-1 10 -1 10 -2 11 C-2.23678716 13.69235776 -2.42198025 16.36498156 -2.5625 19.0625 C-2.60568359 19.82111328 -2.64886719 20.57972656 -2.69335938 21.36132812 C-2.79973633 23.24065438 -2.90039934 25.12030244 -3 27 C-3.33 27 -3.66 27 -4 27 C-4.02899599 23.22918278 -4.04679729 19.45839417 -4.0625 15.6875 C-4.07087891 14.61564453 -4.07925781 13.54378906 -4.08789062 12.43945312 C-4.09111328 11.41142578 -4.09433594 10.38339844 -4.09765625 9.32421875 C-4.10289307 8.37635498 -4.10812988 7.42849121 -4.11352539 6.4519043 C-4 4 -4 4 -3 1 C-1 0 -1 0 0 0 Z " fill="#111111" transform="translate(487,188)"/>
<path d="M0 0 C0.99 0 1.98 0 3 0 C3 1.32 3 2.64 3 4 C2.34 4 1.68 4 1 4 C0.67 4.99 0.34 5.98 0 7 C-1.99954746 7.04254356 -4.00041636 7.04080783 -6 7 C-7 6 -7 6 -7.0625 3.4375 C-7.041875 2.633125 -7.02125 1.82875 -7 1 C-6.01 1 -5.02 1 -4 1 C-4 1.99 -4 2.98 -4 4 C-3.01 4 -2.02 4 -1 4 C-0.67 2.68 -0.34 1.36 0 0 Z " fill="#232323" transform="translate(607,179)"/>
<path d="M0 0 C0.99 0 1.98 0 3 0 C3.33 0.66 3.66 1.32 4 2 C5.32 1.67 6.64 1.34 8 1 C7.49396008 3.16874252 7.00016187 4.99967627 6 7 C4.33388095 7.042721 2.66617115 7.04063832 1 7 C0 6 0 6 -0.0625 2.9375 C-0.041875 1.968125 -0.02125 0.99875 0 0 Z " fill="#2A2A2A" transform="translate(707,189)"/>
<path d="M0 0 C2.31 0 4.62 0 7 0 C6.67 1.98 6.34 3.96 6 6 C4.125 6.625 4.125 6.625 2 7 C0 5 0 5 -0.125 2.375 C-0.08375 1.59125 -0.0425 0.8075 0 0 Z " fill="#1D1D1D" transform="translate(534,237)"/>
<path d="M0 0 C3.80718548 0.72753266 7.55485569 1.61276572 11.3125 2.5625 C12.38113281 2.83191406 13.44976563 3.10132813 14.55078125 3.37890625 C15.76314453 3.68634766 15.76314453 3.68634766 17 4 C17 4.33 17 4.66 17 5 C5.47835991 5.55353075 5.47835991 5.55353075 0 2 C0 1.34 0 0.68 0 0 Z " fill="#101010" transform="translate(554,244)"/>
<path d="M0 0 C1.4540625 0.0309375 1.4540625 0.0309375 2.9375 0.0625 C3.2675 1.0525 3.5975 2.0425 3.9375 3.0625 C2.6175 3.0625 1.2975 3.0625 -0.0625 3.0625 C-0.330625 3.701875 -0.59875 4.34125 -0.875 5 C-2.0625 7.0625 -2.0625 7.0625 -5.0625 8.0625 C-4.046875 0.08258929 -4.046875 0.08258929 0 0 Z " fill="#2A2A2A" transform="translate(641.0625,258.9375)"/>
<path d="M0 0 C-1.27192363 2.54384726 -2.19948469 2.69368156 -4.8125 3.6875 C-5.49957031 3.95949219 -6.18664062 4.23148437 -6.89453125 4.51171875 C-9.29376496 5.06812731 -10.6894364 4.77364938 -13 4 C-4.33663366 -1.44554455 -4.33663366 -1.44554455 0 0 Z " fill="#090909" transform="translate(656,256)"/>
<path d="M0 0 C0.33 0 0.66 0 1 0 C1.433125 1.3303125 1.433125 1.3303125 1.875 2.6875 C2.83148748 5.50382424 3.86798946 8.25083156 5 11 C4.34 11 3.68 11 3 11 C2.67 11.66 2.34 12.32 2 13 C-0.91360308 8.22169095 -1.19876651 5.44893869 0 0 Z " fill="#2D2D2D" transform="translate(526,243)"/>
<path d="M0 0 C1.98 0 3.96 0 6 0 C6 0.99 6 1.98 6 3 C4.02 3.33 2.04 3.66 0 4 C0 2.68 0 1.36 0 0 Z " fill="#1E1E1E" transform="translate(501,189)"/>
<path d="M0 0 C1.9375 0.375 1.9375 0.375 4 1 C4.33 1.66 4.66 2.32 5 3 C2.36 3.99 -0.28 4.98 -3 6 C-2 4 -1 2 0 0 Z " fill="#272727" transform="translate(496,175)"/>
<path d="M0 0 C0 1.32 0 2.64 0 4 C-2.97 3.505 -2.97 3.505 -6 3 C-6 2.34 -6 1.68 -6 1 C-4 0 -4 0 0 0 Z " fill="#282828" transform="translate(551,188)"/>
<path d="M0 0 C-0.33 0.66 -0.66 1.32 -1 2 C-3.64860427 2.59355614 -6.29197322 2.74209269 -9 3 C-6.27596221 -1.08605669 -4.4643819 -1.38549783 0 0 Z " fill="#070707" transform="translate(508,174)"/>
<path d="M0 0 C2 1.75 2 1.75 4 4 C4 5.32 4 6.64 4 8 C2.68 7.67 1.36 7.34 0 7 C0 4.69 0 2.38 0 0 Z " fill="#383838" transform="translate(507,166)"/>
</svg>
