<?xml version="1.0" encoding="UTF-8"?>
<svg version="1.1" xmlns="http://www.w3.org/2000/svg" width="800" height="300">
<path d="M0 0 C264 0 528 0 800 0 C800 99 800 198 800 300 C536 300 272 300 0 300 C0 201 0 102 0 0 Z " fill="#FEFEFE" transform="translate(0,0)"/>
<path d="M0 0 C5.87711622 -0.48975968 10.09611773 0.62928552 15 4 C17 7 17 7 18 12 C30.375 11.505 30.375 11.505 43 11 C43.33 9.02 43.66 7.04 44 5 C46.08177525 1.91091414 47.5970943 0.29434908 51.30859375 -0.484375 C56.44645691 -0.76590175 60.54715376 -0.14264406 64.54248047 3.24560547 C66.31311963 5.37689743 66.67706894 6.98464923 67.1875 9.69140625 C67.34605469 10.49908447 67.50460937 11.3067627 67.66796875 12.13891602 C67.83232422 13.06015259 67.83232422 13.06015259 68 14 C71.27116732 13.86111494 74.541834 13.71269508 77.8125 13.5625 C78.74126953 13.52318359 79.67003906 13.48386719 80.62695312 13.44335938 C81.51962891 13.40146484 82.41230469 13.35957031 83.33203125 13.31640625 C84.15421143 13.27974854 84.9763916 13.24309082 85.82348633 13.20532227 C88.17905178 13.06572228 88.17905178 13.06572228 91 12 C92.48344647 11.89884019 93.97092737 11.85169477 95.45776367 11.83886719 C96.36108932 11.82925964 97.26441498 11.8196521 98.19511414 11.80975342 C99.17615616 11.80550354 100.15719818 11.80125366 101.16796875 11.796875 C102.70763054 11.78832489 102.70763054 11.78832489 104.27839661 11.77960205 C106.46659312 11.77013717 108.65480398 11.76361219 110.84301758 11.75976562 C114.10200452 11.75024964 117.36030707 11.71932503 120.61914062 11.6875 C133.48989874 11.62379973 145.92930908 12.45700129 158.66870117 14.29760742 C163.81486601 15.02643131 168.93417648 15.36164652 174.125 15.5625 C181.86106996 15.8787834 189.35386707 16.71525009 197 18 C197.12375 17.38125 197.2475 16.7625 197.375 16.125 C198 14 198 14 200 12 C203.5 11.75 203.5 11.75 207 12 C209 14 209 14 209.0546875 16.42578125 C208.96574219 17.85470703 208.96574219 17.85470703 208.875 19.3125 C208.78166872 24.46572005 209.5207592 26.13417689 213 30 C214.18603844 32.82252354 215.18353299 35.67582025 216.16796875 38.57421875 C216.92976509 40.97022434 216.92976509 40.97022434 218 43 C218.32329317 46.68022212 218.32463514 50.36983973 218.375 54.0625 C218.43107422 55.58133789 218.43107422 55.58133789 218.48828125 57.13085938 C218.58871363 65.78478313 216.17995568 70.96458315 210.89453125 77.671875 C201.90579046 86.64375136 192.15324953 91.07134705 179.4375 91.125 C177.95808244 91.09347512 176.47870971 91.05556738 175 91 C175.64241894 92.813713 176.28903119 94.62594124 176.9375 96.4375 C177.47697266 97.95150391 177.47697266 97.95150391 178.02734375 99.49609375 C178.76877639 101.90313745 178.76877639 101.90313745 180 103 C182.25543624 103.24261665 184.50945523 103.38332133 186.7734375 103.5234375 C189.48949551 104.10476921 190.39924985 104.7418885 192 107 C192.94239319 111.17867366 192.93786082 115.31497673 190.828125 119.10546875 C187.06342205 123.65610195 183.43445379 126.6087485 177.5 127.5625 C174 127 174 127 171.0625 124.4375 C168.58491231 121.00137019 168.5328977 118.20392074 169 114 C169.23332031 113.35804688 169.46664062 112.71609375 169.70703125 112.0546875 C170.22863849 109.89472739 170.22863849 109.89472739 168.78515625 107.859375 C167.93244141 106.81523437 167.93244141 106.81523437 167.0625 105.75 C166.49660156 105.04359375 165.93070313 104.3371875 165.34765625 103.609375 C164.68056641 102.81273437 164.68056641 102.81273437 164 102 C160.27037715 103.24320762 159.32521873 104.7955123 156.9375 107.875 C156.24527344 108.75929688 155.55304688 109.64359375 154.83984375 110.5546875 C151.73595664 114.20123621 151.73595664 114.20123621 151.375 118.6875 C151.58125 119.450625 151.7875 120.21375 152 121 C147.06822262 125.81149013 147.06822262 125.81149013 142.8125 126.5625 C137.98655667 125.85047557 130.5895895 124.5895895 127 121 C126.50681837 116.72575917 126.5475449 114.66454343 129 111.0625 C133.03031789 108.29165645 135.19839142 108.59308402 140 109 C140.24492188 108.30519531 140.48984375 107.61039062 140.7421875 106.89453125 C142.20250025 103.53399786 144.06281778 100.71425133 146.125 97.6875 C146.84945312 96.61886719 147.57390625 95.55023438 148.3203125 94.44921875 C149.15175781 93.23685547 149.15175781 93.23685547 150 92 C148.71061523 92.16226074 147.42123047 92.32452148 146.09277344 92.49169922 C141.21887811 93.03066814 136.41533694 93.14460987 131.515625 93.1328125 C130.18702705 93.13479141 130.18702705 93.13479141 128.83158875 93.1368103 C125.97102269 93.1387144 123.11055601 93.13240899 120.25 93.125 C119.27112823 93.12411377 118.29225647 93.12322754 117.28372192 93.12231445 C104.00123706 93.10820854 90.75046941 92.90243772 77.47875977 92.3581543 C67.9804462 91.96896537 58.50474783 91.89347107 49 92 C50.26566466 97.22802185 51.62781159 102.15701026 54 107 C56.43313888 108.42556419 58.04825333 108.59704912 60.8359375 108.76953125 C63 109 63 109 66.125 111.3125 C68 114 68 114 67.9140625 116.44140625 C66.71702906 119.79207677 65.21143829 120.70619827 62.25 122.625 C61.38890625 123.19476563 60.5278125 123.76453125 59.640625 124.3515625 C58.76921875 124.89554687 57.8978125 125.43953125 57 126 C56.16210938 126.55945313 55.32421875 127.11890625 54.4609375 127.6953125 C51.81547589 129.09782707 50.33369631 129.35167341 47.375 129.25 C46.61960937 129.23453125 45.86421875 129.2190625 45.0859375 129.203125 C43 129 43 129 40 128 C37.52657734 124.28986601 37.61496514 122.38939738 38 118 C39.51953125 115.77734375 39.51953125 115.77734375 41 114 C40.4225 113.22914063 39.845 112.45828125 39.25 111.6640625 C38.5075 110.66117187 37.765 109.65828125 37 108.625 C36.2575 107.62726563 35.515 106.62953125 34.75 105.6015625 C33 103 33 103 33 101 C28.95944944 103.10690801 26.88736449 105.18025768 24.4375 109 C21.38256446 113.74114707 21.38256446 113.74114707 18.77734375 115.50390625 C17.89755859 116.24447266 17.89755859 116.24447266 17 117 C16.74137153 119.38601555 16.74137153 119.38601555 17.125 121.9375 C17.29804835 126.67902485 17.29804835 126.67902485 14.5625 129.625 C9.38914377 131.62173398 4.99594549 132.09595271 -0.28515625 130.1640625 C-3.30227336 128.70752321 -5.62027058 127.37972942 -8 125 C-8.68530813 121.57345936 -8.69462485 118.42466203 -8 115 C-5.60970207 111.77418759 -2.61077652 110.36977826 1.24609375 109.484375 C3.15342363 109.2259845 5.07790765 109.10116276 7 109 C7.2475 108.175 7.495 107.35 7.75 106.5 C11.22222222 96.77777778 11.22222222 96.77777778 14 94 C13.06317383 93.85751831 13.06317383 93.85751831 12.10742188 93.7121582 C9.23500407 93.26433955 6.36785177 92.78865096 3.5 92.3125 C2.51773437 92.16361328 1.53546875 92.01472656 0.5234375 91.86132812 C-6.91189334 90.59732188 -12.92760136 88.62305258 -17.91796875 82.73828125 C-24.08359964 70.95718346 -29.06287288 56.41813641 -27 43 C-26.03166192 40.02616985 -24.72504504 37.59645954 -23 35 C-22.360625 33.906875 -21.72125 32.81375 -21.0625 31.6875 C-18.86680576 28.82644388 -17.13029145 27.71420723 -14 26 C-13.01 25.154375 -12.02 24.30875 -11 23.4375 C-8.26201122 21.21288411 -6.25050584 20.19148609 -3 19 C-3.05220703 17.948125 -3.05220703 17.948125 -3.10546875 16.875 C-3.28894664 10.4445369 -2.6553877 5.86398118 0 0 Z " fill="#FBFBFB" transform="translate(495,156)"/>
<path d="M0 0 C5.87711622 -0.48975968 10.09611773 0.62928552 15 4 C17.29013653 7.4352048 17.17842973 8.985331 17 13 C16.34 13 15.68 13 15 13 C14.814375 11.906875 14.62875 10.81375 14.4375 9.6875 C13.3364902 5.72410335 13.3364902 5.72410335 9.625 4.0625 C5.98983152 2.81248638 5.98983152 2.81248638 2 3 C0.17144572 7.59232335 -0.12514462 10.97358268 0.375 15.875 C0.48585938 17.02742188 0.59671875 18.17984375 0.7109375 19.3671875 C0.80632812 20.23601562 0.90171875 21.10484375 1 22 C-0.258125 22.28875 -1.51625 22.5775 -2.8125 22.875 C-9.45151423 25.04930355 -14.34507316 29.94607944 -19 35 C-19.33 35.99 -19.66 36.98 -20 38 C-20.66 38 -21.32 38 -22 38 C-22.144375 38.598125 -22.28875 39.19625 -22.4375 39.8125 C-22.8872439 41.56150404 -23.42892341 43.28677023 -24 45 C-24.78016584 52.03239124 -23.11713916 57.97304517 -20.8125 64.5625 C-20.37454102 65.90344727 -20.37454102 65.90344727 -19.92773438 67.27148438 C-17.68116498 73.87591526 -15.20075176 80.39436289 -9.66796875 84.8984375 C-6.28376301 86.29572303 -2.90491956 87.02470567 0.6875 87.625 C1.39068359 87.74979736 2.09386719 87.87459473 2.81835938 88.00317383 C8.18821971 88.93034838 13.56198003 89.62090726 19 90 C19.33 90.99 19.66 91.98 20 93 C18.68 93 17.36 93 16 93 C15.88785156 93.51304687 15.77570313 94.02609375 15.66015625 94.5546875 C11.66706084 109.34567995 11.66706084 109.34567995 7.03515625 112.21875 C5 112.625 5 112.625 2.96875 112.8046875 C-0.46284582 113.14512359 -2.50140123 114.75126111 -5 117 C-5.91666667 120 -5.91666667 120 -5 123 C-3.26935144 125.62287639 -3.26935144 125.62287639 0 127 C3.70496355 127.42708514 7.30164757 127.51217119 11 127 C11.66 126.34 12.32 125.68 13 125 C13.02253443 122.55036823 13.02253443 122.55036823 12.625 119.875 C12.51414062 118.96492188 12.40328125 118.05484375 12.2890625 117.1171875 C12.19367188 116.41851562 12.09828125 115.71984375 12 115 C12.81404297 114.54560547 12.81404297 114.54560547 13.64453125 114.08203125 C18.07710809 111.48637814 20.58333049 109.62319385 23 105 C25.27210836 101.95167362 27.63374922 98.9756414 30 96 C31.7890625 96.18359375 31.7890625 96.18359375 34 97 C35.7109375 99.22265625 35.7109375 99.22265625 37.375 102.0625 C40.32631833 106.94524264 43.48677114 111.5087294 47 116 C46.67 116.66 46.34 117.32 46 118 C43.9375 118.625 43.9375 118.625 42 119 C41.957279 120.66611905 41.95936168 122.33382885 42 124 C43.16893124 125.36754688 43.16893124 125.36754688 46.375 125.5 C52.46825889 125.45584595 57.44654227 121.77155084 62 118 C63.3253291 115.89783075 63.3253291 115.89783075 64 114 C63.15695312 113.89042969 62.31390625 113.78085937 61.4453125 113.66796875 C59.80175781 113.43013672 59.80175781 113.43013672 58.125 113.1875 C56.48917969 112.96126953 56.48917969 112.96126953 54.8203125 112.73046875 C52 112 52 112 50 109 C49.30942378 106.93106719 48.66910233 104.84509238 48.0625 102.75 C46.64274348 97.99089107 45.0927928 93.49950453 43 89 C44.57484437 87.42515563 46.14125405 87.87021162 48.328125 87.8671875 C49.25834473 87.86525391 50.18856445 87.86332031 51.14697266 87.86132812 C52.17097168 87.86583984 53.1949707 87.87035156 54.25 87.875 C55.31395996 87.87693359 56.37791992 87.87886719 57.47412109 87.88085938 C65.86494347 87.92452998 74.2406285 88.18207753 82.625 88.5 C99.5768368 89.13704426 116.39273898 89.22463966 133.33618164 88.3581543 C140.23353588 88.00884947 147.09281193 87.88270813 154 88 C154.33 88.66 154.66 89.32 155 90 C154.52373169 90.6798999 154.52373169 90.6798999 154.0378418 91.37353516 C152.5836013 93.45450742 151.13552473 95.53969831 149.6875 97.625 C149.18798828 98.33785156 148.68847656 99.05070312 148.17382812 99.78515625 C145.96043685 102.98064828 144.03659954 105.91897118 142.4296875 109.4765625 C141 112 141 112 138.80859375 112.734375 C137.63490234 112.74210937 137.63490234 112.74210937 136.4375 112.75 C132.77590904 112.68932937 132.77590904 112.68932937 130 115 C129.3574765 117.06874034 129.3574765 117.06874034 129 119 C129.7734375 119.185625 129.7734375 119.185625 130.5625 119.375 C132.53616913 119.88106901 134.49085084 120.46080844 136.4375 121.0625 C139.52042218 121.87379531 141.85034148 122.1908884 145 122 C146.21690533 120.23470405 146.21690533 120.23470405 147 118 C146.10318584 115.87269715 146.10318584 115.87269715 145 114 C145.50789062 113.6596875 146.01578125 113.319375 146.5390625 112.96875 C153.13467158 108.32465072 158.53838915 102.87715472 161 95 C161.99 95 162.98 95 164 95 C165.6484375 97.01171875 165.6484375 97.01171875 167.375 99.6875 C169.37438331 102.68657496 171.24720294 105.46248183 173.875 107.9375 C176 110 176 110 177 113 C175.02 114.485 175.02 114.485 173 116 C173.27540704 119.81813447 173.27540704 119.81813447 175 123 C178.49734228 122.61140641 181.65788261 122.11403913 185 121 C186.20882096 118.99983534 186.20882096 118.99983534 187 117 C187.66 117 188.32 117 189 117 C188.67 114.36 188.34 111.72 188 109 C187.33613281 109.020625 186.67226563 109.04125 185.98828125 109.0625 C178.98337186 108.89888168 178.98337186 108.89888168 176.36328125 106.50390625 C175.01511953 104.39022683 173.98599978 102.30566488 173 100 C172.60941406 99.11441406 172.21882812 98.22882813 171.81640625 97.31640625 C169 90.60185986 169 90.60185986 169 88 C171.53665416 87.18827067 173.50250679 87.00614311 176.1953125 87.0390625 C186.46425331 86.9336319 197.0215796 84.7606615 205 78 C214.72960052 67.47845526 214.76481827 59.77860493 214.23974609 45.82763672 C213.62958011 38.63115771 211.2147691 32.0771359 206 27 C206 26.34 206 25.68 206 25 C205.34 25 204.68 25 204 25 C204.33 24.278125 204.66 23.55625 205 22.8125 C206.00603529 19.98302573 206.16977402 17.97104534 206 15 C204.02 15 202.04 15 200 15 C199.34 16.98 198.68 18.96 198 21 C197.19304687 20.87882812 196.38609375 20.75765625 195.5546875 20.6328125 C184.56238321 19.11582783 173.54465154 18.36741393 162.47412109 17.69775391 C161.22324707 17.62089355 159.97237305 17.5440332 158.68359375 17.46484375 C157.56525146 17.399021 156.44690918 17.33319824 155.29467773 17.26538086 C152 17 152 17 148.84448242 16.47924805 C143.49089196 15.81187661 138.19449051 15.85747161 132.8046875 15.8671875 C131.62141876 15.86623077 130.43815002 15.86527405 129.21902466 15.86428833 C126.71258491 15.86360889 124.20614338 15.86544669 121.69970703 15.86962891 C117.93648108 15.87491366 114.17337817 15.86971073 110.41015625 15.86328125 C103.27266723 15.8596259 96.13687255 15.90690475 89 16 C87.92383423 16.01325317 86.84766846 16.02650635 85.7388916 16.04016113 C82.78559243 16.08810243 79.83503999 16.16613123 76.8828125 16.2578125 C75.58487259 16.27822098 75.58487259 16.27822098 74.26071167 16.29904175 C69.64211303 16.40202493 69.64211303 16.40202493 66.06982422 19.04638672 C65.71678223 19.6910791 65.36374023 20.33577148 65 21 C64.34 21 63.68 21 63 21 C63.09539062 20.25234375 63.19078125 19.5046875 63.2890625 18.734375 C63.39992188 17.74953125 63.51078125 16.7646875 63.625 15.75 C63.79902344 14.28820312 63.79902344 14.28820312 63.9765625 12.796875 C64.00157515 9.81203245 63.66859484 8.4429101 62 6 C57.97361204 3.43775311 54.7703431 2.25794663 50 3 C46.24198058 6.23967191 46.75626381 8.70615331 46 14 C37.42 14.33 28.84 14.66 20 15 C20 14.34 20 13.68 20 13 C22.7902667 12.0699111 24.76529542 11.81301231 27.66796875 11.68359375 C28.56064453 11.64169922 29.45332031 11.59980469 30.37304688 11.55664062 C31.30181641 11.51732422 32.23058594 11.47800781 33.1875 11.4375 C34.12787109 11.39431641 35.06824219 11.35113281 36.03710938 11.30664062 C38.35792854 11.20061335 40.67885325 11.09854971 43 11 C43.12503906 10.06929687 43.25007812 9.13859375 43.37890625 8.1796875 C44.21960233 3.87574654 45.39982205 2.49808266 49 0 C54.01026504 -1.05122312 58.5682104 -0.72342807 63 1.9375 C65.77490218 4.29076462 66.51852092 6.1438874 67.1875 9.69140625 C67.34605469 10.49908447 67.50460937 11.3067627 67.66796875 12.13891602 C67.83232422 13.06015259 67.83232422 13.06015259 68 14 C71.27116732 13.86111494 74.541834 13.71269508 77.8125 13.5625 C78.74126953 13.52318359 79.67003906 13.48386719 80.62695312 13.44335938 C81.51962891 13.40146484 82.41230469 13.35957031 83.33203125 13.31640625 C84.15421143 13.27974854 84.9763916 13.24309082 85.82348633 13.20532227 C88.17905178 13.06572228 88.17905178 13.06572228 91 12 C92.48344647 11.89884019 93.97092737 11.85169477 95.45776367 11.83886719 C96.36108932 11.82925964 97.26441498 11.8196521 98.19511414 11.80975342 C99.17615616 11.80550354 100.15719818 11.80125366 101.16796875 11.796875 C102.70763054 11.78832489 102.70763054 11.78832489 104.27839661 11.77960205 C106.46659312 11.77013717 108.65480398 11.76361219 110.84301758 11.75976562 C114.10200452 11.75024964 117.36030707 11.71932503 120.61914062 11.6875 C133.48989874 11.62379973 145.92930908 12.45700129 158.66870117 14.29760742 C163.81486601 15.02643131 168.93417648 15.36164652 174.125 15.5625 C181.86106996 15.8787834 189.35386707 16.71525009 197 18 C197.12375 17.38125 197.2475 16.7625 197.375 16.125 C198 14 198 14 200 12 C203.5 11.75 203.5 11.75 207 12 C209 14 209 14 209.0546875 16.42578125 C208.96574219 17.85470703 208.96574219 17.85470703 208.875 19.3125 C208.78166872 24.46572005 209.5207592 26.13417689 213 30 C214.18603844 32.82252354 215.18353299 35.67582025 216.16796875 38.57421875 C216.92976509 40.97022434 216.92976509 40.97022434 218 43 C218.32329317 46.68022212 218.32463514 50.36983973 218.375 54.0625 C218.43107422 55.58133789 218.43107422 55.58133789 218.48828125 57.13085938 C218.58871363 65.78478313 216.17995568 70.96458315 210.89453125 77.671875 C201.90579046 86.64375136 192.15324953 91.07134705 179.4375 91.125 C177.95808244 91.09347512 176.47870971 91.05556738 175 91 C175.64241894 92.813713 176.28903119 94.62594124 176.9375 96.4375 C177.47697266 97.95150391 177.47697266 97.95150391 178.02734375 99.49609375 C178.76877639 101.90313745 178.76877639 101.90313745 180 103 C182.25543624 103.24261665 184.50945523 103.38332133 186.7734375 103.5234375 C189.48949551 104.10476921 190.39924985 104.7418885 192 107 C192.94239319 111.17867366 192.93786082 115.31497673 190.828125 119.10546875 C187.06342205 123.65610195 183.43445379 126.6087485 177.5 127.5625 C174 127 174 127 171.0625 124.4375 C168.58491231 121.00137019 168.5328977 118.20392074 169 114 C169.23332031 113.35804688 169.46664062 112.71609375 169.70703125 112.0546875 C170.22863849 109.89472739 170.22863849 109.89472739 168.78515625 107.859375 C167.93244141 106.81523437 167.93244141 106.81523437 167.0625 105.75 C166.49660156 105.04359375 165.93070313 104.3371875 165.34765625 103.609375 C164.68056641 102.81273437 164.68056641 102.81273437 164 102 C160.27037715 103.24320762 159.32521873 104.7955123 156.9375 107.875 C156.24527344 108.75929688 155.55304688 109.64359375 154.83984375 110.5546875 C151.73595664 114.20123621 151.73595664 114.20123621 151.375 118.6875 C151.58125 119.450625 151.7875 120.21375 152 121 C147.06822262 125.81149013 147.06822262 125.81149013 142.8125 126.5625 C137.98655667 125.85047557 130.5895895 124.5895895 127 121 C126.50681837 116.72575917 126.5475449 114.66454343 129 111.0625 C133.03031789 108.29165645 135.19839142 108.59308402 140 109 C140.24492188 108.30519531 140.48984375 107.61039062 140.7421875 106.89453125 C142.20250025 103.53399786 144.06281778 100.71425133 146.125 97.6875 C146.84945312 96.61886719 147.57390625 95.55023438 148.3203125 94.44921875 C149.15175781 93.23685547 149.15175781 93.23685547 150 92 C148.71061523 92.16226074 147.42123047 92.32452148 146.09277344 92.49169922 C141.21887811 93.03066814 136.41533694 93.14460987 131.515625 93.1328125 C130.18702705 93.13479141 130.18702705 93.13479141 128.83158875 93.1368103 C125.97102269 93.1387144 123.11055601 93.13240899 120.25 93.125 C119.27112823 93.12411377 118.29225647 93.12322754 117.28372192 93.12231445 C104.00123706 93.10820854 90.75046941 92.90243772 77.47875977 92.3581543 C67.9804462 91.96896537 58.50474783 91.89347107 49 92 C50.26566466 97.22802185 51.62781159 102.15701026 54 107 C56.43313888 108.42556419 58.04825333 108.59704912 60.8359375 108.76953125 C63 109 63 109 66.125 111.3125 C68 114 68 114 67.9140625 116.44140625 C66.71702906 119.79207677 65.21143829 120.70619827 62.25 122.625 C61.38890625 123.19476563 60.5278125 123.76453125 59.640625 124.3515625 C58.76921875 124.89554687 57.8978125 125.43953125 57 126 C56.16210938 126.55945313 55.32421875 127.11890625 54.4609375 127.6953125 C51.81547589 129.09782707 50.33369631 129.35167341 47.375 129.25 C46.61960937 129.23453125 45.86421875 129.2190625 45.0859375 129.203125 C43 129 43 129 40 128 C37.52657734 124.28986601 37.61496514 122.38939738 38 118 C39.51953125 115.77734375 39.51953125 115.77734375 41 114 C40.4225 113.22914063 39.845 112.45828125 39.25 111.6640625 C38.5075 110.66117187 37.765 109.65828125 37 108.625 C36.2575 107.62726563 35.515 106.62953125 34.75 105.6015625 C33 103 33 103 33 101 C28.95944944 103.10690801 26.88736449 105.18025768 24.4375 109 C21.38256446 113.74114707 21.38256446 113.74114707 18.77734375 115.50390625 C17.89755859 116.24447266 17.89755859 116.24447266 17 117 C16.74137153 119.38601555 16.74137153 119.38601555 17.125 121.9375 C17.29804835 126.67902485 17.29804835 126.67902485 14.5625 129.625 C9.38914377 131.62173398 4.99594549 132.09595271 -0.28515625 130.1640625 C-3.30227336 128.70752321 -5.62027058 127.37972942 -8 125 C-8.68530813 121.57345936 -8.69462485 118.42466203 -8 115 C-5.60970207 111.77418759 -2.61077652 110.36977826 1.24609375 109.484375 C3.15342363 109.2259845 5.07790765 109.10116276 7 109 C7.2475 108.175 7.495 107.35 7.75 106.5 C11.22222222 96.77777778 11.22222222 96.77777778 14 94 C13.06317383 93.85751831 13.06317383 93.85751831 12.10742188 93.7121582 C9.23500407 93.26433955 6.36785177 92.78865096 3.5 92.3125 C2.51773437 92.16361328 1.53546875 92.01472656 0.5234375 91.86132812 C-6.91189334 90.59732188 -12.92760136 88.62305258 -17.91796875 82.73828125 C-24.08359964 70.95718346 -29.06287288 56.41813641 -27 43 C-26.03166192 40.02616985 -24.72504504 37.59645954 -23 35 C-22.360625 33.906875 -21.72125 32.81375 -21.0625 31.6875 C-18.86680576 28.82644388 -17.13029145 27.71420723 -14 26 C-13.01 25.154375 -12.02 24.30875 -11 23.4375 C-8.26201122 21.21288411 -6.25050584 20.19148609 -3 19 C-3.05220703 17.948125 -3.05220703 17.948125 -3.10546875 16.875 C-3.28894664 10.4445369 -2.6553877 5.86398118 0 0 Z " fill="#151515" transform="translate(495,156)"/>
<path d="M0 0 C5.87711622 -0.48975968 10.09611773 0.62928552 15 4 C17.29013653 7.4352048 17.17842973 8.985331 17 13 C16.34 13 15.68 13 15 13 C14.814375 11.906875 14.62875 10.81375 14.4375 9.6875 C13.3364902 5.72410335 13.3364902 5.72410335 9.625 4.0625 C5.98983152 2.81248638 5.98983152 2.81248638 2 3 C0.17144572 7.59232335 -0.12514462 10.97358268 0.375 15.875 C0.48585938 17.02742188 0.59671875 18.17984375 0.7109375 19.3671875 C0.80632812 20.23601562 0.90171875 21.10484375 1 22 C-0.258125 22.28875 -1.51625 22.5775 -2.8125 22.875 C-9.45151423 25.04930355 -14.34507316 29.94607944 -19 35 C-19.33 35.99 -19.66 36.98 -20 38 C-20.66 38 -21.32 38 -22 38 C-22.144375 38.598125 -22.28875 39.19625 -22.4375 39.8125 C-22.8872439 41.56150404 -23.42892341 43.28677023 -24 45 C-24.78016584 52.03239124 -23.11713916 57.97304517 -20.8125 64.5625 C-20.37454102 65.90344727 -20.37454102 65.90344727 -19.92773438 67.27148438 C-17.68116498 73.87591526 -15.20075176 80.39436289 -9.66796875 84.8984375 C-6.28376301 86.29572303 -2.90491956 87.02470567 0.6875 87.625 C1.39068359 87.74979736 2.09386719 87.87459473 2.81835938 88.00317383 C8.18821971 88.93034838 13.56198003 89.62090726 19 90 C19.33 90.99 19.66 91.98 20 93 C18.68 93 17.36 93 16 93 C15.88785156 93.51304687 15.77570313 94.02609375 15.66015625 94.5546875 C11.66706084 109.34567995 11.66706084 109.34567995 7.03515625 112.21875 C5 112.625 5 112.625 2.96875 112.8046875 C-0.46284582 113.14512359 -2.50140123 114.75126111 -5 117 C-5.91666667 120 -5.91666667 120 -5 123 C-3.26935144 125.62287639 -3.26935144 125.62287639 0 127 C3.70496355 127.42708514 7.30164757 127.51217119 11 127 C11.66 126.34 12.32 125.68 13 125 C13.02253443 122.55036823 13.02253443 122.55036823 12.625 119.875 C12.51414062 118.96492188 12.40328125 118.05484375 12.2890625 117.1171875 C12.19367188 116.41851562 12.09828125 115.71984375 12 115 C12.81404297 114.54560547 12.81404297 114.54560547 13.64453125 114.08203125 C18.07710809 111.48637814 20.58333049 109.62319385 23 105 C25.27210836 101.95167362 27.63374922 98.9756414 30 96 C31.7890625 96.18359375 31.7890625 96.18359375 34 97 C35.7109375 99.22265625 35.7109375 99.22265625 37.375 102.0625 C40.32631833 106.94524264 43.48677114 111.5087294 47 116 C46.67 116.66 46.34 117.32 46 118 C43.9375 118.625 43.9375 118.625 42 119 C41.957279 120.66611905 41.95936168 122.33382885 42 124 C43.20708564 125.43072341 43.20708564 125.43072341 46.75 125.1875 C50.23584286 125.15615249 52.84479083 124.57760458 56 123 C54.25 127.875 54.25 127.875 52 129 C50.52331663 129.0952699 49.04224543 129.12985959 47.5625 129.125 C46.78003906 129.12757813 45.99757813 129.13015625 45.19140625 129.1328125 C43 129 43 129 40 128 C37.52657734 124.28986601 37.61496514 122.38939738 38 118 C39.51953125 115.77734375 39.51953125 115.77734375 41 114 C40.4225 113.22914063 39.845 112.45828125 39.25 111.6640625 C38.5075 110.66117187 37.765 109.65828125 37 108.625 C36.2575 107.62726563 35.515 106.62953125 34.75 105.6015625 C33 103 33 103 33 101 C28.95944944 103.10690801 26.88736449 105.18025768 24.4375 109 C21.38256446 113.74114707 21.38256446 113.74114707 18.77734375 115.50390625 C17.89755859 116.24447266 17.89755859 116.24447266 17 117 C16.74137153 119.38601555 16.74137153 119.38601555 17.125 121.9375 C17.29804835 126.67902485 17.29804835 126.67902485 14.5625 129.625 C9.38914377 131.62173398 4.99594549 132.09595271 -0.28515625 130.1640625 C-3.30227336 128.70752321 -5.62027058 127.37972942 -8 125 C-8.68530813 121.57345936 -8.69462485 118.42466203 -8 115 C-5.60970207 111.77418759 -2.61077652 110.36977826 1.24609375 109.484375 C3.15342363 109.2259845 5.07790765 109.10116276 7 109 C7.2475 108.175 7.495 107.35 7.75 106.5 C11.22222222 96.77777778 11.22222222 96.77777778 14 94 C13.06317383 93.85751831 13.06317383 93.85751831 12.10742188 93.7121582 C9.23500407 93.26433955 6.36785177 92.78865096 3.5 92.3125 C2.51773437 92.16361328 1.53546875 92.01472656 0.5234375 91.86132812 C-6.91189334 90.59732188 -12.92760136 88.62305258 -17.91796875 82.73828125 C-24.08359964 70.95718346 -29.06287288 56.41813641 -27 43 C-26.03166192 40.02616985 -24.72504504 37.59645954 -23 35 C-22.360625 33.906875 -21.72125 32.81375 -21.0625 31.6875 C-18.86680576 28.82644388 -17.13029145 27.71420723 -14 26 C-13.01 25.154375 -12.02 24.30875 -11 23.4375 C-8.26201122 21.21288411 -6.25050584 20.19148609 -3 19 C-3.05220703 17.948125 -3.05220703 17.948125 -3.10546875 16.875 C-3.28894664 10.4445369 -2.6553877 5.86398118 0 0 Z " fill="#0D0D0D" transform="translate(495,156)"/>
<path d="M0 0 C4.44555374 0.83786916 6.30045909 2.19848297 9.5078125 5.47265625 C10.1678125 8.44265625 10.8278125 11.41265625 11.5078125 14.47265625 C18.1078125 14.47265625 24.7078125 14.47265625 31.5078125 14.47265625 C31.5078125 14.80265625 31.5078125 15.13265625 31.5078125 15.47265625 C30.67588379 15.47881958 30.67588379 15.47881958 29.82714844 15.48510742 C27.3029685 15.51809806 24.78118554 15.58874003 22.2578125 15.66015625 C21.38511719 15.66595703 20.51242187 15.67175781 19.61328125 15.67773438 C14.19872918 15.77843385 14.19872918 15.77843385 10.0234375 19.0234375 C9.52328125 19.83167969 9.023125 20.63992187 8.5078125 21.47265625 C7.8478125 21.47265625 7.1878125 21.47265625 6.5078125 21.47265625 C6.60320313 20.725 6.69859375 19.97734375 6.796875 19.20703125 C6.90773438 18.2221875 7.01859375 17.23734375 7.1328125 16.22265625 C7.24882813 15.248125 7.36484375 14.27359375 7.484375 13.26953125 C7.50938765 10.2846887 7.17640734 8.91556635 5.5078125 6.47265625 C1.48142454 3.91040936 -1.7218444 2.73060288 -6.4921875 3.47265625 C-10.25020692 6.71232816 -9.73592369 9.17880956 -10.4921875 14.47265625 C-19.0721875 14.80265625 -27.6521875 15.13265625 -36.4921875 15.47265625 C-36.4921875 14.81265625 -36.4921875 14.15265625 -36.4921875 13.47265625 C-33.7019208 12.54256735 -31.72689208 12.28566856 -28.82421875 12.15625 C-27.93154297 12.11435547 -27.03886719 12.07246094 -26.11914062 12.02929688 C-25.19037109 11.98998047 -24.26160156 11.95066406 -23.3046875 11.91015625 C-22.36431641 11.86697266 -21.42394531 11.82378906 -20.45507812 11.77929688 C-18.13425896 11.6732696 -15.81333425 11.57120596 -13.4921875 11.47265625 C-13.30462891 10.07660156 -13.30462891 10.07660156 -13.11328125 8.65234375 C-11.66709758 1.24861098 -6.86067171 -0.39935253 0 0 Z " fill="#0E0E0E" transform="translate(551.4921875,155.52734375)"/>
<path d="M0 0 C0.93883026 -0.00637985 1.87766052 -0.0127597 2.84494019 -0.01933289 C4.36826462 -0.02100212 4.36826462 -0.02100212 5.92236328 -0.02270508 C7.50115768 -0.02769768 7.50115768 -0.02769768 9.11184692 -0.03279114 C11.34620731 -0.0378597 13.58057528 -0.04019949 15.81494141 -0.04003906 C19.19463065 -0.04220553 22.57398268 -0.06030623 25.95361328 -0.0793457 C47.00438298 -0.13259583 47.00438298 -0.13259583 57.36767578 2.14526367 C57.36767578 2.80526367 57.36767578 3.46526367 57.36767578 4.14526367 C29.64767578 4.14526367 1.92767578 4.14526367 -26.63232422 4.14526367 C-26.63232422 3.81526367 -26.63232422 3.48526367 -26.63232422 3.14526367 C-20.36232422 3.14526367 -14.09232422 3.14526367 -7.63232422 3.14526367 C-7.63232422 2.48526367 -7.63232422 1.82526367 -7.63232422 1.14526367 C-4.77216306 0.19187662 -2.96902258 0.01372449 0 0 Z " fill="#232323" transform="translate(590.63232421875,167.854736328125)"/>
<path d="M0 0 C1.50433594 0.01353516 1.50433594 0.01353516 3.0390625 0.02734375 C3.80992187 0.03894531 4.58078125 0.05054688 5.375 0.0625 C2.85019307 2.58730693 1.23676966 2.61988633 -2.25 3.1875 C-3.25289063 3.35507813 -4.25578125 3.52265625 -5.2890625 3.6953125 C-6.05992187 3.81648437 -6.83078125 3.93765625 -7.625 4.0625 C-9.04609687 8.50342772 -10.23894419 12.35559454 -9.625 17.0625 C-8.05638091 19.82210765 -6.8297339 21.69346036 -3.70263672 22.65136719 C-1.42403544 23.00239083 0.82509796 23.21671487 3.125 23.375 C3.91777344 23.44783203 4.71054687 23.52066406 5.52734375 23.59570312 C7.47482846 23.77168066 9.42479058 23.91985368 11.375 24.0625 C11.045 25.0525 10.715 26.0425 10.375 27.0625 C7.81008544 27.00221999 5.25078243 26.91512053 2.6875 26.8125 C1.96626953 26.79832031 1.24503906 26.78414062 0.50195312 26.76953125 C-4.41672599 26.54493403 -7.03996243 25.70739905 -10.625 22.0625 C-13.47332025 17.79001963 -13.37216094 14.07809521 -12.625 9.0625 C-9.69319935 2.37058326 -7.37083936 -0.08570743 0 0 Z " fill="#242424" transform="translate(504.625,192.9375)"/>
<path d="M0 0 C13.62665547 -0.27559528 27.67594638 -0.08399443 41 3 C41 3.66 41 4.32 41 5 C40.31647461 4.94013916 39.63294922 4.88027832 38.92871094 4.81860352 C30.37570521 4.08599531 21.81578222 3.49761799 13.25 2.9375 C11.85936877 2.84579754 10.46874373 2.7540012 9.078125 2.66210938 C5.71880935 2.44048786 2.35943504 2.21980304 -1 2 C-0.67 1.34 -0.34 0.68 0 0 Z " fill="#030303" transform="translate(648,171)"/>
<path d="M0 0 C5.87711622 -0.48975968 10.09611773 0.62928552 15 4 C17.29013653 7.4352048 17.17842973 8.985331 17 13 C16.34 13 15.68 13 15 13 C14.814375 11.906875 14.62875 10.81375 14.4375 9.6875 C13.3364902 5.72410335 13.3364902 5.72410335 9.625 4.0625 C5.98983152 2.81248638 5.98983152 2.81248638 2 3 C-0.10428384 8.12919186 -0.21755666 12.5610835 0 18 C-0.33 17.34 -0.66 16.68 -1 16 C-1.66 16 -2.32 16 -3 16 C-3.33266291 9.79029227 -2.45029331 5.71735105 0 0 Z " fill="#131313" transform="translate(495,156)"/>
<path d="M0 0 C0.66 0 1.32 0 2 0 C1.57074219 1.04607422 1.57074219 1.04607422 1.1328125 2.11328125 C0.3651626 4.06946495 -0.34712944 6.04811564 -1.0078125 8.04296875 C-3.9789642 16.4058258 -3.9789642 16.4058258 -6.859375 18.08203125 C-8.875 18.5 -8.875 18.5 -10.9375 18.71875 C-15.25116699 19.30697732 -18.97093413 21.97093413 -22 25 C-21.68988845 21.92472717 -21.53019713 20.44365669 -19.109375 18.41796875 C-17.94148438 17.80888672 -17.94148438 17.80888672 -16.75 17.1875 C-15.98171875 16.76855469 -15.2134375 16.34960938 -14.421875 15.91796875 C-11.77939171 14.91638234 -9.80172996 14.82613378 -7 15 C-6.7525 14.175 -6.505 13.35 -6.25 12.5 C-2.77777778 2.77777778 -2.77777778 2.77777778 0 0 Z " fill="#171717" transform="translate(509,250)"/>
<path d="M0 0 C1.50433594 0.01353516 1.50433594 0.01353516 3.0390625 0.02734375 C3.80992187 0.03894531 4.58078125 0.05054688 5.375 0.0625 C2.85019307 2.58730693 1.23676966 2.61988633 -2.25 3.1875 C-3.25289063 3.35507813 -4.25578125 3.52265625 -5.2890625 3.6953125 C-6.05992187 3.81648437 -6.83078125 3.93765625 -7.625 4.0625 C-9.2162689 8.935761 -9.83692221 12.87040596 -9.625 18.0625 C-10.285 18.0625 -10.945 18.0625 -11.625 18.0625 C-12.31367618 7.31149957 -12.31367618 7.31149957 -9.75 3.4375 C-6.5190757 -0.17353304 -4.70285759 -0.05468439 0 0 Z " fill="#1B1B1B" transform="translate(504.625,192.9375)"/>
<path d="M0 0 C0.66 0 1.32 0 2 0 C2.05399736 1.45792884 2.09279177 2.91642712 2.125 4.375 C2.14820313 5.18710938 2.17140625 5.99921875 2.1953125 6.8359375 C2 9 2 9 0 11 C-2.5 11.3125 -2.5 11.3125 -5 11 C-7.4294516 7.3558226 -7.16179575 5.28758728 -7 1 C-6.34 1 -5.68 1 -5 1 C-4.67 3.31 -4.34 5.62 -4 8 C-3.01 7.67 -2.02 7.34 -1 7 C-0.67 4.69 -0.34 2.38 0 0 Z " fill="#060606" transform="translate(626,215)"/>
<path d="M0 0 C0.99 0 1.98 0 3 0 C3 2.64 3 5.28 3 8 C3.66 7.67 4.32 7.34 5 7 C5 5.02 5 3.04 5 1 C5.99 1 6.98 1 8 1 C8.1953125 7.0546875 8.1953125 7.0546875 8 9 C7.34 9.66 6.68 10.32 6 11 C3.06546739 10.63318342 2.13562754 10.13562754 0 8 C-0.26991906 5.31160615 -0.08737357 2.70858064 0 0 Z " fill="#040404" transform="translate(566,188)"/>
<path d="M0 0 C0.66 0 1.32 0 2 0 C2.1953125 6.0546875 2.1953125 6.0546875 2 8 C1.34 8.66 0.68 9.32 0 10 C-3.53571429 9.46428571 -3.53571429 9.46428571 -5 8 C-5.04080783 6.00041636 -5.04254356 3.99954746 -5 2 C-4.34 2 -3.68 2 -3 2 C-2.67 2.99 -2.34 3.98 -2 5 C-1.34 5.33 -0.68 5.66 0 6 C0 4.02 0 2.04 0 0 Z " fill="#050505" transform="translate(557,199)"/>
<path d="M0 0 C0.99 0.33 1.98 0.66 3 1 C3 2.32 3 3.64 3 5 C6.27773504 4.24849977 6.27773504 4.24849977 8 1 C8.125 3.375 8.125 3.375 8 6 C7.34 6.66 6.68 7.32 6 8 C3.375 7.625 3.375 7.625 1 7 C0.67 4.69 0.34 2.38 0 0 Z " fill="#0E0E0E" transform="translate(690,221)"/>
<path d="M0 0 C3.15353929 0.84094381 5.46501019 1.50067618 7.875 3.75 C9.31217164 6.62434327 9.21618085 8.82934761 9 12 C8.34 12 7.68 12 7 12 C6.814375 10.906875 6.62875 9.81375 6.4375 8.6875 C5.42483472 5.0509502 5.42483472 5.0509502 3.30859375 3.8671875 C1.16349857 2.94073788 1.16349857 2.94073788 -2 2 C-1.34 1.34 -0.68 0.68 0 0 Z " fill="#252525" transform="translate(503,157)"/>
<path d="M0 0 C0.66 0 1.32 0 2 0 C2.33 1.65 2.66 3.3 3 5 C6.11332248 4.33131686 6.11332248 4.33131686 7.1875 1.9375 C7.455625 1.298125 7.72375 0.65875 8 0 C8.125 5.75 8.125 5.75 7 8 C2.25 7.25 2.25 7.25 0 5 C-0.125 2.375 -0.125 2.375 0 0 Z " fill="#131313" transform="translate(654,190)"/>
<path d="M0 0 C0.66 0 1.32 0 2 0 C0.41037341 4.03520597 -1.28232318 8.01811282 -3 12 C-3.99 12 -4.98 12 -6 12 C-2.28571429 2.28571429 -2.28571429 2.28571429 0 0 Z " fill="#202020" transform="translate(509,250)"/>
<path d="M0 0 C0.66 0.33 1.32 0.66 2 1 C0.68 3.64 -0.64 6.28 -2 9 C-3.32 8.67 -4.64 8.34 -6 8 C-6 7.34 -6 6.68 -6 6 C-5.01 6 -4.02 6 -3 6 C-2.87625 5.38125 -2.7525 4.7625 -2.625 4.125 C-2 2 -2 2 0 0 Z " fill="#2D2D2D" transform="translate(695,168)"/>
<path d="M0 0 C0.66 0 1.32 0 2 0 C1.67 4.29 1.34 8.58 1 13 C0.34 13 -0.32 13 -1 13 C-1.02696365 11.20841511 -1.04637917 9.41671527 -1.0625 7.625 C-1.07410156 6.62726563 -1.08570313 5.62953125 -1.09765625 4.6015625 C-1 2 -1 2 0 0 Z " fill="#111111" transform="translate(494,198)"/>
<path d="M0 0 C0.66 0.66 1.32 1.32 2 2 C1.625 4.625 1.625 4.625 1 7 C0.34 7 -0.32 7 -1 7 C-1.33 5.02 -1.66 3.04 -2 1 C-1.34 0.67 -0.68 0.34 0 0 Z " fill="#D5D5D5" transform="translate(570,189)"/>
</svg>
