<?xml version="1.0" encoding="UTF-8"?>
<svg version="1.1" xmlns="http://www.w3.org/2000/svg" width="800" height="300">
<path d="M0 0 C264 0 528 0 800 0 C800 99 800 198 800 300 C536 300 272 300 0 300 C0 201 0 102 0 0 Z " fill="#FEFEFE" transform="translate(0,0)"/>
<path d="M0 0 C4.19037881 0.27477894 6.33193115 0.92962077 9.8125 3.25 C12.24327022 6.42350556 14.0540099 9.67903107 15.8125 13.25 C16.38355469 13.105625 16.95460938 12.96125 17.54296875 12.8125 C24.68818996 11.17671009 31.50426241 11.04381148 38.8125 11.25 C38.93753906 10.31929687 39.06257812 9.38859375 39.19140625 8.4296875 C40.03210233 4.12574654 41.21232205 2.74808266 44.8125 0.25 C49.82978556 -0.7116464 53.66654827 -0.31255812 58.25 1.9375 C62.00173403 5.3232112 63.69081541 8.39279698 64.8125 13.25 C69.89626435 13.3512254 74.89225177 13.28425685 79.953125 12.765625 C88.73031285 12.01404303 97.50830197 11.96303071 106.3125 11.9375 C107.70949127 11.93257538 107.70949127 11.93257538 109.13470459 11.92755127 C125.79419024 11.90891768 142.33278434 12.82234415 158.9375 14.125 C160.06164307 14.21204193 161.18578613 14.29908386 162.34399414 14.38876343 C165.56616185 14.64263996 168.78710311 14.90797973 172.0078125 15.1796875 C172.95403473 15.25688522 173.90025696 15.33408295 174.87515259 15.41362 C180.9585689 15.95381211 186.84984671 16.93099461 192.8125 18.25 C192.8125 17.26 192.8125 16.27 192.8125 15.25 C193.4725 15.25 194.1325 15.25 194.8125 15.25 C194.8125 14.59 194.8125 13.93 194.8125 13.25 C197.61120027 11.85064987 199.71748792 11.99734595 202.8125 12.25 C204.6875 13.375 204.6875 13.375 205.8125 15.25 C206.06542101 18.22182182 206.1300425 20.46835693 205 23.25 C204.938125 23.91 204.87625 24.57 204.8125 25.25 C205.534375 26.075 206.25625 26.9 207 27.75 C213.93606916 35.69354289 214.24383968 45.36563228 214.4375 55.4375 C214.47270752 56.4589209 214.50791504 57.4803418 214.54418945 58.53271484 C214.53133079 66.08258628 212.60731339 70.47815608 207.8125 76.25 C207.16925781 77.05953125 206.52601563 77.8690625 205.86328125 78.703125 C198.61298878 86.19780935 188.60585156 90.92480979 178.09765625 91.36328125 C175.66495207 91.37351703 173.24336461 91.33966304 170.8125 91.25 C171.08964844 91.93707031 171.36679687 92.62414062 171.65234375 93.33203125 C172.01457031 94.23308594 172.37679687 95.13414062 172.75 96.0625 C173.10964844 96.95582031 173.46929688 97.84914063 173.83984375 98.76953125 C174.54863486 100.5770909 175.1985247 102.40807409 175.8125 104.25 C176.42738281 104.21519531 177.04226563 104.18039062 177.67578125 104.14453125 C178.48402344 104.11746094 179.29226563 104.09039062 180.125 104.0625 C181.32576172 104.01029297 181.32576172 104.01029297 182.55078125 103.95703125 C184.8125 104.25 184.8125 104.25 186.55859375 105.4375 C188.74884537 108.60347118 188.57758798 111.62598205 188.5078125 115.37890625 C187.23523602 120.63364621 183.13100239 123.33462113 178.8125 126.25 C175.63371306 127.83939347 173.3168228 127.66576711 169.8125 127.25 C166.03037715 123.95070134 164.9673895 122.55549722 164.375 117.5625 C164.8125 114.25 164.8125 114.25 166.8125 111.25 C165.85520084 110.12411986 164.89662105 108.9993285 163.9375 107.875 C163.40382813 107.24851562 162.87015625 106.62203125 162.3203125 105.9765625 C161.19817993 104.69163349 160.01878025 103.45628025 158.8125 102.25 C156.76888412 104.27260955 154.75464064 106.31436382 152.75 108.375 C151.87891602 109.22964844 151.87891602 109.22964844 150.99023438 110.1015625 C149.3965201 111.76128861 148.00658094 113.28131904 146.8125 115.25 C147.00225071 118.44549426 147.00225071 118.44549426 147.8125 121.25 C144.81670603 124.69516307 143.14314473 125.98387105 138.6875 126.875 C132.99868902 125.95744984 128.02523277 123.64665874 122.8125 121.25 C122.39795636 117.02165483 122.34754657 114.91837056 124.8125 111.375 C127.8125 109.25 127.8125 109.25 131.75 109.0625 C133.84689938 109.02958581 133.84689938 109.02958581 135.8125 108.25 C138.34388798 105.19148088 140.01576852 101.7743579 141.8125 98.25 C142.58263431 97.02783033 143.37043915 95.816309 144.1875 94.625 C144.72375 93.84125 145.26 93.0575 145.8125 92.25 C144.52311523 92.41226074 143.23373047 92.57452148 141.90527344 92.74169922 C137.03137811 93.28066814 132.22783694 93.39460987 127.328125 93.3828125 C125.99952705 93.38479141 125.99952705 93.38479141 124.64408875 93.3868103 C121.78352269 93.3887144 118.92305601 93.38240899 116.0625 93.375 C115.08362823 93.37411377 114.10475647 93.37322754 113.09622192 93.37231445 C99.81373706 93.35820854 86.56296941 93.15243772 73.29125977 92.6081543 C63.7929462 92.21896537 54.31724783 92.14347107 44.8125 92.25 C45.22822266 93.37148437 45.22822266 93.37148437 45.65234375 94.515625 C46.01457031 95.50046875 46.37679687 96.4853125 46.75 97.5 C47.28947266 98.96179688 47.28947266 98.96179688 47.83984375 100.453125 C48.62629655 102.71457161 49.28501601 104.91796552 49.8125 107.25 C50.70001953 107.37955078 50.70001953 107.37955078 51.60546875 107.51171875 C55.81995552 108.26111362 58.43736169 108.97239765 61.9375 111.5625 C63.8125 114.25 63.8125 114.25 64 116.75 C62.338581 120.24772421 59.93382369 122.11884412 56.8125 124.25 C56.13703125 124.72050781 55.4615625 125.19101562 54.765625 125.67578125 C49.23092299 129.15950326 44.32625768 130.489602 37.8125 129.25 C35.1875 127.6875 35.1875 127.6875 33.8125 125.25 C33.33715173 121.44721385 33.13344212 119.23645748 35.33984375 116.03125 C36.06880859 115.14953125 36.06880859 115.14953125 36.8125 114.25 C33.54529209 109.86105071 30.26351522 105.49740335 26.8125 101.25 C22.63432625 105.93656504 22.63432625 105.93656504 19.125 111.125 C17.8125 113.25 17.8125 113.25 14.8125 114.25 C14.3175 115.735 14.3175 115.735 13.8125 117.25 C13.1525 117.25 12.4925 117.25 11.8125 117.25 C12.1425 117.91 12.4725 118.57 12.8125 119.25 C12.88200541 120.79023996 12.89702357 122.33334988 12.875 123.875 C12.86597656 124.69226563 12.85695313 125.50953125 12.84765625 126.3515625 C12.83605469 126.97804688 12.82445312 127.60453125 12.8125 128.25 C7.80734695 131.33009418 3.55598265 132.28401488 -2.1875 131.25 C-10.3880814 127.84883721 -10.3880814 127.84883721 -12.1875 124.25 C-12.85808266 121.08687426 -13.01012766 118.39285951 -12.1875 115.25 C-8.7877772 111.67290036 -5.03924835 109.39729816 -0.09375 109.00390625 C3.10592068 108.52393213 3.10592068 108.52393213 4.7109375 105.30859375 C5.19820313 104.11363281 5.68546875 102.91867187 6.1875 101.6875 C6.69023437 100.48996094 7.19296875 99.29242188 7.7109375 98.05859375 C8.07445312 97.13175781 8.43796875 96.20492187 8.8125 95.25 C9.4725 95.25 10.1325 95.25 10.8125 95.25 C10.8125 94.59 10.8125 93.93 10.8125 93.25 C9.36230469 93.19392578 9.36230469 93.19392578 7.8828125 93.13671875 C-12.65274793 92.09977461 -12.65274793 92.09977461 -20.1875 85.25 C-28.43958451 73.51462353 -32.55968735 57.5281657 -31.1875 43.25 C-30.21268592 40.30625452 -28.84644328 37.85691087 -27.1875 35.25 C-26.73375 34.3425 -26.28 33.435 -25.8125 32.5 C-23.68019395 29.54757625 -21.27298005 28.19270966 -18.1875 26.25 C-15.85042741 24.4043119 -13.53867866 22.531798 -11.23828125 20.640625 C-9.1875 19.25 -9.1875 19.25 -6.1875 19.25 C-6.21070313 18.45335937 -6.23390625 17.65671875 -6.2578125 16.8359375 C-6.43977712 6.1520149 -6.43977712 6.1520149 -4.1875 1.25 C-3.1875 0.25 -3.1875 0.25 0 0 Z " fill="#FCFCFC" transform="translate(491.1875,155.75)"/>
<path d="M0 0 C4.94681067 0.32438103 8.11479987 1.60888987 11.6875 5.0625 C13.14782369 7.90201828 13.02707149 10.10295141 12.8125 13.25 C12.544375 12.6725 12.27625 12.095 12 11.5 C9.59237444 6.92030127 9.59237444 6.92030127 5.33203125 4.203125 C4.43871094 3.97109375 3.54539062 3.7390625 2.625 3.5 C1.72394531 3.25765625 0.82289063 3.0153125 -0.10546875 2.765625 C-0.79253906 2.59546875 -1.47960937 2.4253125 -2.1875 2.25 C-2.93802396 5.07248328 -3.49319258 7.85421384 -3.875 10.75 C-3.98199219 11.5028125 -4.08898437 12.255625 -4.19921875 13.03125 C-4.18547424 15.63354478 -3.40027697 16.98243232 -2.1875 19.25 C-2.1875 20.24 -2.1875 21.23 -2.1875 22.25 C-2.72117187 22.37375 -3.25484375 22.4975 -3.8046875 22.625 C-12.83269809 25.12410328 -19.64890211 30.78440635 -25.1875 38.25 C-30.48705918 49.37907427 -26.02244156 62.32201889 -22.1875 73.25 C-19.6208954 79.52031249 -17.1996747 82.8518143 -11.1875 86.25 C-8.54600181 86.96563602 -6.11822079 87.51735351 -3.4375 87.9375 C-2.73882812 88.05778564 -2.04015625 88.17807129 -1.3203125 88.30200195 C4.03201543 89.19755405 9.39750224 89.87251218 14.8125 90.25 C15.1425 91.24 15.4725 92.23 15.8125 93.25 C14.8225 93.58 13.8325 93.91 12.8125 94.25 C11.18534327 96.85604 11.18534327 96.85604 9.75 100 C9.24339844 101.04671875 8.73679687 102.0934375 8.21484375 103.171875 C6.78613003 106.16661479 6.78613003 106.16661479 5.8671875 109.0703125 C5.34511719 110.14925781 5.34511719 110.14925781 4.8125 111.25 C2.84358415 111.83099156 0.86688587 112.40215625 -1.14453125 112.8125 C-4.11798707 113.44926301 -5.95354868 114.15567064 -8.1875 116.25 C-8.90663365 119.06758922 -8.89231792 121.43072831 -8.1875 124.25 C-5.84910743 126.74428541 -4.05776214 127.1666625 -0.69921875 127.48828125 C1.86165388 127.55869598 4.27300211 127.59609086 6.8125 127.25 C9.12136319 125.3808634 9.12136319 125.3808634 9 122.375 C8.84544874 119.79914569 8.47941787 117.71492844 7.8125 115.25 C8.62654297 114.79560547 8.62654297 114.79560547 9.45703125 114.33203125 C13.88960809 111.73637814 16.39583049 109.87319385 18.8125 105.25 C19.92619042 103.62335364 21.07552217 102.02081505 22.25 100.4375 C22.82621094 99.64730469 23.40242187 98.85710937 23.99609375 98.04296875 C25.8125 96.25 25.8125 96.25 29.8125 96.25 C30.39257812 97.35408203 30.39257812 97.35408203 30.984375 98.48046875 C35.58757085 107.45414656 35.58757085 107.45414656 42.8125 114.25 C42.3175 116.23 42.3175 116.23 41.8125 118.25 C40.4925 118.25 39.1725 118.25 37.8125 118.25 C37.8125 120.23 37.8125 122.21 37.8125 124.25 C41.19744669 125.94247334 44.19745919 126.07133727 47.8125 125.25 C51.81770782 122.98687337 55.49226836 120.44206094 58.8125 117.25 C58.8125 116.26 58.8125 115.27 58.8125 114.25 C56.51620006 113.10185003 54.73551914 112.94230191 52.1875 112.6875 C50.96160156 112.56181641 50.96160156 112.56181641 49.7109375 112.43359375 C49.08445312 112.37300781 48.45796875 112.31242187 47.8125 112.25 C45.74600643 106.77379203 43.73900203 101.28032698 41.77734375 95.765625 C40.91083235 93.5063807 39.93747373 91.38995002 38.8125 89.25 C40.38734437 87.67515563 41.95375405 88.12021162 44.140625 88.1171875 C45.07076416 88.11525391 46.00090332 88.11332031 46.95922852 88.11132812 C48.4953479 88.1180957 48.4953479 88.1180957 50.0625 88.125 C51.12718506 88.12693359 52.19187012 88.12886719 53.28881836 88.13085938 C61.65815929 88.17439615 70.01214114 88.43188101 78.375 88.75 C95.69228813 89.40214885 112.89052807 89.4970866 130.19946289 88.6081543 C137.07991647 88.2576585 143.92210248 88.13299325 150.8125 88.25 C149.92810705 92.61973214 147.56598565 95.61787042 144.9375 99.125 C142.36754943 102.56888188 140.06002492 105.68902968 138.31640625 109.640625 C136.8125 112.25 136.8125 112.25 134.33203125 113.0546875 C133.43871094 113.07789063 132.54539062 113.10109375 131.625 113.125 C130.72394531 113.16367187 129.82289063 113.20234375 128.89453125 113.2421875 C128.20746094 113.24476563 127.52039063 113.24734375 126.8125 113.25 C126.8125 115.23 126.8125 117.21 126.8125 119.25 C132.83731126 121.74302535 137.37002705 123.39749098 143.8125 121.25 C143.0390625 120.1053125 143.0390625 120.1053125 142.25 118.9375 C141.775625 118.050625 141.30125 117.16375 140.8125 116.25 C141.8125 113.25 141.8125 113.25 144.375 111.75 C150.44895318 107.98503144 154.86131543 100.63419519 157.8125 94.25 C161.98896884 98.1944428 165.46129182 102.2097816 167.8125 107.5 C169.09432353 109.74319118 170.45496152 110.30698461 172.8125 111.25 C172.8125 111.91 172.8125 112.57 172.8125 113.25 C170.8125 114.875 170.8125 114.875 168.8125 116.25 C169.1425 118.23 169.4725 120.21 169.8125 122.25 C173.34972984 123.15487275 175.1839202 123.53571809 178.5625 122 C181.02331851 120.27635231 181.02331851 120.27635231 182.8125 117.25 C183.4725 117.25 184.1325 117.25 184.8125 117.25 C184.4825 114.61 184.1525 111.97 183.8125 109.25 C183.16023437 109.31703125 182.50796875 109.3840625 181.8359375 109.453125 C178.79762109 109.50690051 176.6652502 109.33737115 173.8125 108.25 C171.04226596 104.55445068 169.49989951 100.52369408 167.8125 96.25 C167.26464844 95.17105469 166.71679688 94.09210938 166.15234375 92.98046875 C164.8125 90.25 164.8125 90.25 164.8125 88.25 C167.34915416 87.43827067 169.31500679 87.25614311 172.0078125 87.2890625 C182.27675331 87.1836319 192.8340796 85.0106615 200.8125 78.25 C208.51932882 69.91587116 209.99356929 65.43119732 210 54.3125 C210.01224609 53.20197266 210.02449219 52.09144531 210.03710938 50.94726562 C210.03904297 49.88314453 210.04097656 48.81902344 210.04296875 47.72265625 C210.04707764 46.74562744 210.05118652 45.76859863 210.05541992 44.76196289 C209.98797166 42.00183677 209.98797166 42.00183677 207.8125 39.25 C206.99459435 36.95577466 206.29811769 34.63989767 205.59375 32.30859375 C204.90472971 30.06875758 204.90472971 30.06875758 202.8125 28.25 C202.8125 27.26 202.8125 26.27 202.8125 25.25 C201.8225 24.92 200.8325 24.59 199.8125 24.25 C200.1425 23.693125 200.4725 23.13625 200.8125 22.5625 C201.9434601 19.94715478 201.96912974 18.0693354 201.8125 15.25 C199.40372743 15.36341534 199.40372743 15.36341534 196.8125 16.25 C194.96815651 18.71115547 194.96815651 18.71115547 193.8125 21.25 C192.8225 20.92 191.8325 20.59 190.8125 20.25 C189.69875 20.25 188.585 20.25 187.4375 20.25 C183.8125 20.25 183.8125 20.25 181.52490234 19.78125 C178.27250295 19.1442364 175.09771036 18.94449865 171.7890625 18.75 C171.12466156 18.70939453 170.46026062 18.66878906 169.77572632 18.62695312 C167.66316556 18.4980383 165.55038089 18.373549 163.4375 18.25 C161.33177567 18.12624761 159.226146 18.00140345 157.12069702 17.87304688 C155.20514511 17.75631237 153.28934545 17.64366428 151.37353516 17.53125 C147.8125 17.25 147.8125 17.25 144.58137512 16.73951721 C140.67969439 16.23275065 136.87410354 16.11616754 132.94946289 16.13647461 C132.19741577 16.13632858 131.44536865 16.13618256 130.67053223 16.1360321 C128.20870989 16.13672338 125.74696521 16.14447869 123.28515625 16.15234375 C121.5688023 16.15421072 119.85244781 16.15563331 118.13609314 16.15663147 C113.63657133 16.16043467 109.13708221 16.17024602 104.63757324 16.18133545 C100.03898562 16.19159698 95.44039267 16.19613922 90.84179688 16.20117188 C81.83201695 16.21187041 72.8222612 16.22892023 63.8125 16.25 C63.1525 17.9 62.4925 19.55 61.8125 21.25 C60.8225 21.25 59.8325 21.25 58.8125 21.25 C59.33518466 18.48723823 59.92119587 15.9239124 60.8125 13.25 C59.3739469 8.48056343 59.3739469 8.48056343 55.99609375 5.07421875 C53.63230785 4.18198472 51.5756344 3.84674715 49.0625 3.625 C47.86367188 3.51285156 47.86367188 3.51285156 46.640625 3.3984375 C45.73570312 3.32496094 45.73570312 3.32496094 44.8125 3.25 C42.84146975 7.43843928 42.8125 9.24852013 42.8125 14.25 C29.4475 14.745 29.4475 14.745 15.8125 15.25 C15.8125 14.59 15.8125 13.93 15.8125 13.25 C23.54138819 11.29596958 30.86292008 11.02571718 38.8125 11.25 C38.93753906 10.31929687 39.06257812 9.38859375 39.19140625 8.4296875 C40.03210233 4.12574654 41.21232205 2.74808266 44.8125 0.25 C49.82978556 -0.7116464 53.66654827 -0.31255812 58.25 1.9375 C62.00173403 5.3232112 63.69081541 8.39279698 64.8125 13.25 C69.89626435 13.3512254 74.89225177 13.28425685 79.953125 12.765625 C88.73031285 12.01404303 97.50830197 11.96303071 106.3125 11.9375 C107.70949127 11.93257538 107.70949127 11.93257538 109.13470459 11.92755127 C125.79419024 11.90891768 142.33278434 12.82234415 158.9375 14.125 C160.06164307 14.21204193 161.18578613 14.29908386 162.34399414 14.38876343 C165.56616185 14.64263996 168.78710311 14.90797973 172.0078125 15.1796875 C172.95403473 15.25688522 173.90025696 15.33408295 174.87515259 15.41362 C180.9585689 15.95381211 186.84984671 16.93099461 192.8125 18.25 C192.8125 17.26 192.8125 16.27 192.8125 15.25 C193.4725 15.25 194.1325 15.25 194.8125 15.25 C194.8125 14.59 194.8125 13.93 194.8125 13.25 C197.61120027 11.85064987 199.71748792 11.99734595 202.8125 12.25 C204.6875 13.375 204.6875 13.375 205.8125 15.25 C206.06542101 18.22182182 206.1300425 20.46835693 205 23.25 C204.938125 23.91 204.87625 24.57 204.8125 25.25 C205.534375 26.075 206.25625 26.9 207 27.75 C213.93606916 35.69354289 214.24383968 45.36563228 214.4375 55.4375 C214.47270752 56.4589209 214.50791504 57.4803418 214.54418945 58.53271484 C214.53133079 66.08258628 212.60731339 70.47815608 207.8125 76.25 C207.16925781 77.05953125 206.52601563 77.8690625 205.86328125 78.703125 C198.61298878 86.19780935 188.60585156 90.92480979 178.09765625 91.36328125 C175.66495207 91.37351703 173.24336461 91.33966304 170.8125 91.25 C171.08964844 91.93707031 171.36679687 92.62414062 171.65234375 93.33203125 C172.01457031 94.23308594 172.37679687 95.13414062 172.75 96.0625 C173.10964844 96.95582031 173.46929688 97.84914063 173.83984375 98.76953125 C174.54863486 100.5770909 175.1985247 102.40807409 175.8125 104.25 C176.42738281 104.21519531 177.04226563 104.18039062 177.67578125 104.14453125 C178.48402344 104.11746094 179.29226563 104.09039062 180.125 104.0625 C181.32576172 104.01029297 181.32576172 104.01029297 182.55078125 103.95703125 C184.8125 104.25 184.8125 104.25 186.55859375 105.4375 C188.74884537 108.60347118 188.57758798 111.62598205 188.5078125 115.37890625 C187.23523602 120.63364621 183.13100239 123.33462113 178.8125 126.25 C175.63371306 127.83939347 173.3168228 127.66576711 169.8125 127.25 C166.03037715 123.95070134 164.9673895 122.55549722 164.375 117.5625 C164.8125 114.25 164.8125 114.25 166.8125 111.25 C165.85520084 110.12411986 164.89662105 108.9993285 163.9375 107.875 C163.40382813 107.24851562 162.87015625 106.62203125 162.3203125 105.9765625 C161.19817993 104.69163349 160.01878025 103.45628025 158.8125 102.25 C156.76888412 104.27260955 154.75464064 106.31436382 152.75 108.375 C151.87891602 109.22964844 151.87891602 109.22964844 150.99023438 110.1015625 C149.3965201 111.76128861 148.00658094 113.28131904 146.8125 115.25 C147.00225071 118.44549426 147.00225071 118.44549426 147.8125 121.25 C144.81670603 124.69516307 143.14314473 125.98387105 138.6875 126.875 C132.99868902 125.95744984 128.02523277 123.64665874 122.8125 121.25 C122.39795636 117.02165483 122.34754657 114.91837056 124.8125 111.375 C127.8125 109.25 127.8125 109.25 131.75 109.0625 C133.84689938 109.02958581 133.84689938 109.02958581 135.8125 108.25 C138.34388798 105.19148088 140.01576852 101.7743579 141.8125 98.25 C142.58263431 97.02783033 143.37043915 95.816309 144.1875 94.625 C144.72375 93.84125 145.26 93.0575 145.8125 92.25 C144.52311523 92.41226074 143.23373047 92.57452148 141.90527344 92.74169922 C137.03137811 93.28066814 132.22783694 93.39460987 127.328125 93.3828125 C125.99952705 93.38479141 125.99952705 93.38479141 124.64408875 93.3868103 C121.78352269 93.3887144 118.92305601 93.38240899 116.0625 93.375 C115.08362823 93.37411377 114.10475647 93.37322754 113.09622192 93.37231445 C99.81373706 93.35820854 86.56296941 93.15243772 73.29125977 92.6081543 C63.7929462 92.21896537 54.31724783 92.14347107 44.8125 92.25 C45.22822266 93.37148437 45.22822266 93.37148437 45.65234375 94.515625 C46.01457031 95.50046875 46.37679687 96.4853125 46.75 97.5 C47.28947266 98.96179688 47.28947266 98.96179688 47.83984375 100.453125 C48.62629655 102.71457161 49.28501601 104.91796552 49.8125 107.25 C50.70001953 107.37955078 50.70001953 107.37955078 51.60546875 107.51171875 C55.81995552 108.26111362 58.43736169 108.97239765 61.9375 111.5625 C63.8125 114.25 63.8125 114.25 64 116.75 C62.338581 120.24772421 59.93382369 122.11884412 56.8125 124.25 C56.13703125 124.72050781 55.4615625 125.19101562 54.765625 125.67578125 C49.23092299 129.15950326 44.32625768 130.489602 37.8125 129.25 C35.1875 127.6875 35.1875 127.6875 33.8125 125.25 C33.33715173 121.44721385 33.13344212 119.23645748 35.33984375 116.03125 C36.06880859 115.14953125 36.06880859 115.14953125 36.8125 114.25 C33.54529209 109.86105071 30.26351522 105.49740335 26.8125 101.25 C22.63432625 105.93656504 22.63432625 105.93656504 19.125 111.125 C17.8125 113.25 17.8125 113.25 14.8125 114.25 C14.3175 115.735 14.3175 115.735 13.8125 117.25 C13.1525 117.25 12.4925 117.25 11.8125 117.25 C12.1425 117.91 12.4725 118.57 12.8125 119.25 C12.88200541 120.79023996 12.89702357 122.33334988 12.875 123.875 C12.86597656 124.69226563 12.85695313 125.50953125 12.84765625 126.3515625 C12.83605469 126.97804688 12.82445312 127.60453125 12.8125 128.25 C7.80734695 131.33009418 3.55598265 132.28401488 -2.1875 131.25 C-10.3880814 127.84883721 -10.3880814 127.84883721 -12.1875 124.25 C-12.85808266 121.08687426 -13.01012766 118.39285951 -12.1875 115.25 C-8.7877772 111.67290036 -5.03924835 109.39729816 -0.09375 109.00390625 C3.10592068 108.52393213 3.10592068 108.52393213 4.7109375 105.30859375 C5.19820313 104.11363281 5.68546875 102.91867187 6.1875 101.6875 C6.69023437 100.48996094 7.19296875 99.29242188 7.7109375 98.05859375 C8.07445312 97.13175781 8.43796875 96.20492187 8.8125 95.25 C9.4725 95.25 10.1325 95.25 10.8125 95.25 C10.8125 94.59 10.8125 93.93 10.8125 93.25 C9.36230469 93.19392578 9.36230469 93.19392578 7.8828125 93.13671875 C-12.65274793 92.09977461 -12.65274793 92.09977461 -20.1875 85.25 C-28.43958451 73.51462353 -32.55968735 57.5281657 -31.1875 43.25 C-30.21268592 40.30625452 -28.84644328 37.85691087 -27.1875 35.25 C-26.73375 34.3425 -26.28 33.435 -25.8125 32.5 C-23.68019395 29.54757625 -21.27298005 28.19270966 -18.1875 26.25 C-15.85042741 24.4043119 -13.53867866 22.531798 -11.23828125 20.640625 C-9.1875 19.25 -9.1875 19.25 -6.1875 19.25 C-6.21070313 18.45335937 -6.23390625 17.65671875 -6.2578125 16.8359375 C-6.43977712 6.1520149 -6.43977712 6.1520149 -4.1875 1.25 C-3.1875 0.25 -3.1875 0.25 0 0 Z " fill="#111111" transform="translate(491.1875,155.75)"/>
<path d="M0 0 C4.48035444 2.19944673 6.86312614 4.50131818 9 9 C9.35367418 10.32808263 9.69075297 11.66087523 10 13 C15.08376435 13.1012254 20.07975177 13.03425685 25.140625 12.515625 C33.91781285 11.76404303 42.69580197 11.71303071 51.5 11.6875 C52.89699127 11.68257538 52.89699127 11.68257538 54.32220459 11.67755127 C70.98169024 11.65891768 87.52028434 12.57234415 104.125 13.875 C105.24914307 13.96204193 106.37328613 14.04908386 107.53149414 14.13876343 C110.75366185 14.39263996 113.97460311 14.65797973 117.1953125 14.9296875 C118.14153473 15.00688522 119.08775696 15.08408295 120.06265259 15.16362 C126.1460689 15.70381211 132.03734671 16.68099461 138 18 C138 17.01 138 16.02 138 15 C138.66 15 139.32 15 140 15 C140 14.34 140 13.68 140 13 C142.79870027 11.60064987 144.90498792 11.74734595 148 12 C149.875 13.125 149.875 13.125 151 15 C151.25292101 17.97182182 151.3175425 20.21835693 150.1875 23 C150.125625 23.66 150.06375 24.32 150 25 C151.19457521 26.36522881 152.38947057 27.73017875 153.5859375 29.09375 C161.14660259 39.2860278 159.41539519 53.03022793 159 65 C158.01 65.33 157.02 65.66 156 66 C155.98018066 65.2886792 155.96036133 64.5773584 155.93994141 63.84448242 C155.84475133 60.62511184 155.73504771 57.4063955 155.625 54.1875 C155.57859375 52.50817383 155.57859375 52.50817383 155.53125 50.79492188 C155.49257813 49.72177734 155.45390625 48.64863281 155.4140625 47.54296875 C155.3826416 46.55321045 155.3512207 45.56345215 155.31884766 44.54370117 C155.16226567 41.75924906 155.16226567 41.75924906 153 39 C152.18209435 36.70577466 151.48561769 34.38989767 150.78125 32.05859375 C150.09222971 29.81875758 150.09222971 29.81875758 148 28 C148 27.01 148 26.02 148 25 C147.01 24.67 146.02 24.34 145 24 C145.33 23.443125 145.66 22.88625 146 22.3125 C147.1309601 19.69715478 147.15662974 17.8193354 147 15 C144.59122743 15.11341534 144.59122743 15.11341534 142 16 C140.15565651 18.46115547 140.15565651 18.46115547 139 21 C138.01 20.67 137.02 20.34 136 20 C134.88625 20 133.7725 20 132.625 20 C129 20 129 20 126.71240234 19.53125 C123.46000295 18.8942364 120.28521036 18.69449865 116.9765625 18.5 C116.31216156 18.45939453 115.64776062 18.41878906 114.96322632 18.37695312 C112.85066556 18.2480383 110.73788089 18.123549 108.625 18 C106.51927567 17.87624761 104.413646 17.75140345 102.30819702 17.62304688 C100.39264511 17.50631237 98.47684545 17.39366428 96.56103516 17.28125 C93 17 93 17 89.76887512 16.48951721 C85.86719439 15.98275065 82.06160354 15.86616754 78.13696289 15.88647461 C77.38491577 15.88632858 76.63286865 15.88618256 75.85803223 15.8860321 C73.39620989 15.88672338 70.93446521 15.89447869 68.47265625 15.90234375 C66.7563023 15.90421072 65.03994781 15.90563331 63.32359314 15.90663147 C58.82407133 15.91043467 54.32458221 15.92024602 49.82507324 15.93133545 C45.22648562 15.94159698 40.62789267 15.94613922 36.02929688 15.95117188 C27.01951695 15.96187041 18.0097612 15.97892023 9 16 C8.34 17.65 7.68 19.3 7 21 C6.01 21 5.02 21 4 21 C4.52268466 18.23723823 5.10869587 15.6739124 6 13 C4.5614469 8.23056343 4.5614469 8.23056343 1.18359375 4.82421875 C-1.18019215 3.93198472 -3.2368656 3.59674715 -5.75 3.375 C-6.54921875 3.30023438 -7.3484375 3.22546875 -8.171875 3.1484375 C-8.77515625 3.09945312 -9.3784375 3.05046875 -10 3 C-11.97103025 7.18843928 -12 8.99852013 -12 14 C-25.365 14.495 -25.365 14.495 -39 15 C-39 14.34 -39 13.68 -39 13 C-31.27111181 11.04596958 -23.94957992 10.77571718 -16 11 C-15.81244141 9.60394531 -15.81244141 9.60394531 -15.62109375 8.1796875 C-13.95590859 -0.34522268 -7.48244548 -1.29503864 0 0 Z " fill="#111111" transform="translate(546,156)"/>
<path d="M0 0 C4.48035444 2.19944673 6.86312614 4.50131818 9 9 C9.35367418 10.32808263 9.69075297 11.66087523 10 13 C15.24695406 13.10447475 20.39928498 13.00825447 25.625 12.5 C33.08167563 11.80884599 40.51993504 11.91456779 48 12 C48 12.33 48 12.66 48 13 C61.365 13.495 61.365 13.495 75 14 C75 14.33 75 14.66 75 15 C68.97590184 15.14561626 62.95173536 15.28784207 56.92749023 15.42724609 C54.88840705 15.47487105 52.84934337 15.52334071 50.81030273 15.57275391 C36.87051462 15.90981269 22.9438389 16.06524705 9 16 C8.34 17.65 7.68 19.3 7 21 C6.01 21 5.02 21 4 21 C4.52268466 18.23723823 5.10869587 15.6739124 6 13 C4.5614469 8.23056343 4.5614469 8.23056343 1.18359375 4.82421875 C-1.18019215 3.93198472 -3.2368656 3.59674715 -5.75 3.375 C-6.54921875 3.30023438 -7.3484375 3.22546875 -8.171875 3.1484375 C-8.77515625 3.09945312 -9.3784375 3.05046875 -10 3 C-11.97103025 7.18843928 -12 8.99852013 -12 14 C-25.365 14.495 -25.365 14.495 -39 15 C-39 14.34 -39 13.68 -39 13 C-31.27111181 11.04596958 -23.94957992 10.77571718 -16 11 C-15.81244141 9.60394531 -15.81244141 9.60394531 -15.62109375 8.1796875 C-13.95590859 -0.34522268 -7.48244548 -1.29503864 0 0 Z " fill="#101010" transform="translate(546,156)"/>
<path d="M0 0 C4.94681067 0.32438103 8.11479987 1.60888987 11.6875 5.0625 C13.14782369 7.90201828 13.02707149 10.10295141 12.8125 13.25 C12.544375 12.6725 12.27625 12.095 12 11.5 C9.59237444 6.92030127 9.59237444 6.92030127 5.33203125 4.203125 C4.43871094 3.97109375 3.54539062 3.7390625 2.625 3.5 C1.72394531 3.25765625 0.82289063 3.0153125 -0.10546875 2.765625 C-0.79253906 2.59546875 -1.47960937 2.4253125 -2.1875 2.25 C-2.93802396 5.07248328 -3.49319258 7.85421384 -3.875 10.75 C-3.98199219 11.5028125 -4.08898437 12.255625 -4.19921875 13.03125 C-4.18547424 15.63354478 -3.40027697 16.98243232 -2.1875 19.25 C-2.1875 20.24 -2.1875 21.23 -2.1875 22.25 C-2.72117187 22.37375 -3.25484375 22.4975 -3.8046875 22.625 C-12.67702824 25.08101128 -19.91593379 30.71919112 -25.1875 38.25 C-27.07781968 42.70139796 -27.54037184 46.81740255 -27.8125 51.625 C-27.88726562 52.87023437 -27.96203125 54.11546875 -28.0390625 55.3984375 C-28.08804687 56.33945313 -28.13703125 57.28046875 -28.1875 58.25 C-30.49703344 56.45505757 -31.13846377 55.54819329 -31.62109375 52.61328125 C-31.62990446 45.7321132 -30.8829876 41.0571948 -27.1875 35.25 C-26.73375 34.3425 -26.28 33.435 -25.8125 32.5 C-23.68019395 29.54757625 -21.27298005 28.19270966 -18.1875 26.25 C-15.85042741 24.4043119 -13.53867866 22.531798 -11.23828125 20.640625 C-9.1875 19.25 -9.1875 19.25 -6.1875 19.25 C-6.21070313 18.45335937 -6.23390625 17.65671875 -6.2578125 16.8359375 C-6.43977712 6.1520149 -6.43977712 6.1520149 -4.1875 1.25 C-3.1875 0.25 -3.1875 0.25 0 0 Z " fill="#1A1A1A" transform="translate(491.1875,155.75)"/>
<path d="M0 0 C1.875 1.125 1.875 1.125 3 3 C3.25292101 5.97182182 3.3175425 8.21835693 2.1875 11 C2.125625 11.66 2.06375 12.32 2 13 C3.19457521 14.36522881 4.38947057 15.73017875 5.5859375 17.09375 C13.14660259 27.2860278 11.41539519 41.03022793 11 53 C9.515 53.495 9.515 53.495 8 54 C7.98018066 53.2886792 7.96036133 52.5773584 7.93994141 51.84448242 C7.84475133 48.62511184 7.73504771 45.4063955 7.625 42.1875 C7.5940625 41.06794922 7.563125 39.94839844 7.53125 38.79492188 C7.49257813 37.72177734 7.45390625 36.64863281 7.4140625 35.54296875 C7.36693115 34.0583313 7.36693115 34.0583313 7.31884766 32.54370117 C7.16226567 29.75924906 7.16226567 29.75924906 5 27 C4.18209435 24.70577466 3.48561769 22.38989767 2.78125 20.05859375 C2.09222971 17.81875758 2.09222971 17.81875758 0 16 C0 15.01 0 14.02 0 13 C-0.99 12.67 -1.98 12.34 -3 12 C-2.67 11.443125 -2.34 10.88625 -2 10.3125 C-0.8690399 7.69715478 -0.84337026 5.8193354 -1 3 C-3.40877257 3.11341534 -3.40877257 3.11341534 -6 4 C-7.84434349 6.46115547 -7.84434349 6.46115547 -9 9 C-10.32 8.67 -11.64 8.34 -13 8 C-13 7.34 -13 6.68 -13 6 C-12.01 6 -11.02 6 -10 6 C-10 5.01 -10 4.02 -10 3 C-9.34 3 -8.68 3 -8 3 C-8 2.34 -8 1.68 -8 1 C-5.20129973 -0.39935013 -3.09501208 -0.25265405 0 0 Z " fill="#1F1F1F" transform="translate(694,168)"/>
<path d="M0 0 C1.26328125 0.02707031 2.5265625 0.05414063 3.828125 0.08203125 C4.79234375 0.11683594 5.7565625 0.15164062 6.75 0.1875 C6.75 0.8475 6.75 1.5075 6.75 2.1875 C5.94175781 2.20167969 5.13351562 2.21585938 4.30078125 2.23046875 C-2.41712918 2.51703359 -2.41712918 2.51703359 -8.5 5.125 C-10.92149027 9.36260797 -11.375173 13.41521452 -10.25 18.1875 C-7.91469325 21.61541814 -6.46106424 22.14257468 -2.359375 23.015625 C-0.90807173 23.17394899 0.54530812 23.3141339 2 23.4375 C2.74507813 23.51484375 3.49015625 23.5921875 4.2578125 23.671875 C6.08699628 23.85948359 7.91835874 24.02563403 9.75 24.1875 C9.42 25.1775 9.09 26.1675 8.75 27.1875 C6.18508544 27.12721999 3.62578243 27.04012053 1.0625 26.9375 C0.34126953 26.92332031 -0.37996094 26.90914062 -1.12304688 26.89453125 C-5.98095737 26.67270885 -8.79623567 25.92056283 -12.25 22.1875 C-12.25 21.1975 -12.25 20.2075 -12.25 19.1875 C-12.91 19.1875 -13.57 19.1875 -14.25 19.1875 C-14.25 15.8875 -14.25 12.5875 -14.25 9.1875 C-13.59 9.1875 -12.93 9.1875 -12.25 9.1875 C-12.1675 8.259375 -12.085 7.33125 -12 6.375 C-11.25 3.1875 -11.25 3.1875 -9.65625 1.5 C-6.33614668 -0.31096545 -3.75491376 -0.10430316 0 0 Z " fill="#313131" transform="translate(498.25,192.8125)"/>
<path d="M0 0 C0 0.33 0 0.66 0 1 C13.365 1.495 13.365 1.495 27 2 C27 2.33 27 2.66 27 3 C20.95758757 3.14545116 14.91511013 3.28769306 8.87255859 3.42724609 C6.82664056 3.47491486 4.78074106 3.52338779 2.73486328 3.57275391 C-10.84641529 3.89977241 -24.4147692 4.0674577 -38 4 C-38 3.67 -38 3.34 -38 3 C-34.7 2.67 -31.4 2.34 -28 2 C-28 1.67 -28 1.34 -28 1 C-18.64087671 0.00736571 -9.39605802 -0.10731538 0 0 Z " fill="#434343" transform="translate(594,168)"/>
<path d="M0 0 C1.32 0.33 2.64 0.66 4 1 C2.53743342 5.1363211 0.48155363 8.45421154 -2 12.0625 C-4.78704745 16.02431296 -4.78704745 16.02431296 -6.93359375 20.33203125 C-8 22 -8 22 -10.34765625 22.5390625 C-11.24355469 22.56742187 -12.13945313 22.59578125 -13.0625 22.625 C-15.7061707 22.68478906 -15.7061707 22.68478906 -18 23 C-18.33 23.66 -18.66 24.32 -19 25 C-19.33 25 -19.66 25 -20 25 C-20.33 26.98 -20.66 28.96 -21 31 C-21.33 31 -21.66 31 -22 31 C-22.41454364 26.77165483 -22.46495343 24.66837056 -20 21.125 C-17 19 -17 19 -13.0625 18.8125 C-10.96560062 18.77958581 -10.96560062 18.77958581 -9 18 C-6.46861202 14.94148088 -4.79673148 11.5243579 -3 8 C-2.22986569 6.77783033 -1.44206085 5.566309 -0.625 4.375 C-0.08875 3.59125 0.4475 2.8075 1 2 C0.67 1.34 0.34 0.68 0 0 Z " fill="#121212" transform="translate(636,246)"/>
<path d="M0 0 C0.99 0 1.98 0 3 0 C3.28571429 7.42857143 3.28571429 7.42857143 1 11 C-0.98 11 -2.96 11 -5 11 C-7.09350689 7.5980513 -7.17942163 4.94727588 -7 1 C-6.01 1 -5.02 1 -4 1 C-3.67 2.98 -3.34 4.96 -3 7 C-2.34 7 -1.68 7 -1 7 C-0.67 4.69 -0.34 2.38 0 0 Z " fill="#191919" transform="translate(618,215)"/>
<path d="M0 0 C0.99 0 1.98 0 3 0 C3.66 2.31 4.32 4.62 5 7 C5.33 5.02 5.66 3.04 6 1 C6.99 1 7.98 1 9 1 C9.25 7.625 9.25 7.625 7 11 C4.625 10.6875 4.625 10.6875 2 10 C-0.4294516 6.3558226 -0.16179575 4.28758728 0 0 Z " fill="#1D1D1D" transform="translate(558,188)"/>
<path d="M0 0 C0.99 0.66 1.98 1.32 3 2 C3 2.99 3 3.98 3 5 C-10.365 5.495 -10.365 5.495 -24 6 C-24 5.34 -24 4.68 -24 4 C-21.00293305 3.13036913 -18.35043474 2.88236901 -15.234375 2.90234375 C-14.34492187 2.90556641 -13.45546875 2.90878906 -12.5390625 2.91210938 C-11.61867188 2.92048828 -10.69828125 2.92886719 -9.75 2.9375 C-8.81414063 2.94201172 -7.87828125 2.94652344 -6.9140625 2.95117188 C-4.60930959 2.96293082 -2.30468773 2.97936574 0 3 C0 2.01 0 1.02 0 0 Z " fill="#0B0B0B" transform="translate(531,165)"/>
<path d="M0 0 C1.27230469 0.01804688 2.54460937 0.03609375 3.85546875 0.0546875 C5.31919922 0.08949219 5.31919922 0.08949219 6.8125 0.125 C6.8125 0.785 6.8125 1.445 6.8125 2.125 C6.00425781 2.13917969 5.19601562 2.15335938 4.36328125 2.16796875 C-2.32918094 2.41809458 -2.32918094 2.41809458 -8.3125 5.125 C-10.72990729 8.99285166 -11.53423783 12.64966665 -12.1875 17.125 C-12.5175 17.125 -12.8475 17.125 -13.1875 17.125 C-13.50115567 11.16554222 -13.03752662 7.40282708 -10.1875 2.125 C-6.4507157 -0.36618953 -4.44298181 -0.0815226 0 0 Z " fill="#252525" transform="translate(498.1875,192.875)"/>
<path d="M0 0 C2.203125 0.55078125 2.203125 0.55078125 5.890625 1.86328125 C5.890625 2.19328125 5.890625 2.52328125 5.890625 2.86328125 C3.250625 2.86328125 0.610625 2.86328125 -2.109375 2.86328125 C-2.3775 3.60578125 -2.645625 4.34828125 -2.921875 5.11328125 C-4.13319534 7.91844414 -4.93090842 9.72112245 -7.109375 11.86328125 C-10.46484375 12.25390625 -10.46484375 12.25390625 -14.296875 12.11328125 C-15.56917969 12.0771875 -16.84148438 12.04109375 -18.15234375 12.00390625 C-19.12816406 11.9575 -20.10398437 11.91109375 -21.109375 11.86328125 C-21.109375 11.53328125 -21.109375 11.20328125 -21.109375 10.86328125 C-16.819375 10.86328125 -12.529375 10.86328125 -8.109375 10.86328125 C-7.779375 8.88328125 -7.449375 6.90328125 -7.109375 4.86328125 C-3.60521988 -0.23367166 -3.60521988 -0.23367166 0 0 Z " fill="#3B3B3B" transform="translate(538.109375,156.13671875)"/>
<path d="M0 0 C0.99 0 1.98 0 3 0 C3.25 6.625 3.25 6.625 1 10 C-0.65 9.67 -2.3 9.34 -4 9 C-4.33 6.69 -4.66 4.38 -5 2 C-4.01 2.33 -3.02 2.66 -2 3 C-2 3.99 -2 4.98 -2 6 C-1.34 6 -0.68 6 0 6 C0 4.02 0 2.04 0 0 Z " fill="#1C1C1C" transform="translate(549,199)"/>
<path d="M0 0 C0.99 0.33 1.98 0.66 3 1 C3.33 2.65 3.66 4.3 4 6 C6.51083114 4.74458443 6.87125446 3.49936512 8 1 C8.625 3.3125 8.625 3.3125 9 6 C8.01 7.485 8.01 7.485 7 9 C4.625 8.6875 4.625 8.6875 2 8 C-0.1519437 4.77208445 -0.20086443 3.71599191 0 0 Z " fill="#242424" transform="translate(646,189)"/>
<path d="M0 0 C1.98 0.99 1.98 0.99 4 2 C4 2.99 4 3.98 4 5 C4.66 4.67 5.32 4.34 6 4 C6.33 3.01 6.66 2.02 7 1 C7.66 1 8.32 1 9 1 C8.25 5.75 8.25 5.75 6 8 C3.375 7.625 3.375 7.625 1 7 C0.67 4.69 0.34 2.38 0 0 Z " fill="#202020" transform="translate(682,221)"/>
<path d="M0 0 C0.99 0.33 1.98 0.66 3 1 C2.66226562 1.66386719 2.32453125 2.32773438 1.9765625 3.01171875 C1.30753906 4.33623047 1.30753906 4.33623047 0.625 5.6875 C0.18414062 6.55761719 -0.25671875 7.42773438 -0.7109375 8.32421875 C-1.92664268 10.84772799 -2.99260958 13.38737532 -4 16 C-4.66 16 -5.32 16 -6 16 C-5.37183502 12.05050296 -4.1354471 8.80107972 -2.4375 5.1875 C-1.98246094 4.21167969 -1.52742188 3.23585937 -1.05859375 2.23046875 C-0.70925781 1.49441406 -0.35992187 0.75835937 0 0 Z " fill="#222222" transform="translate(500,251)"/>
<path d="M0 0 C1.75 0.9375 1.75 0.9375 2.75 2.9375 C1.780625 3.06125 0.81125 3.185 -0.1875 3.3125 C-1.198125 3.51875 -2.20875 3.725 -3.25 3.9375 C-3.58 4.5975 -3.91 5.2575 -4.25 5.9375 C-4.58 5.9375 -4.91 5.9375 -5.25 5.9375 C-5.58 7.9175 -5.91 9.8975 -6.25 11.9375 C-6.58 11.9375 -6.91 11.9375 -7.25 11.9375 C-7.68497796 7.50072479 -7.72502251 5.57086334 -5 1.9375 C-2.25 -0.0625 -2.25 -0.0625 0 0 Z " fill="#2C2C2C" transform="translate(621.25,265.0625)"/>
<path d="M0 0 C0.66 0.33 1.32 0.66 2 1 C2 3 2 3 0.625 4.4375 C0.08875 4.953125 -0.4475 5.46875 -1 6 C-1.99 7.485 -1.99 7.485 -3 9 C-4.32 8.67 -5.64 8.34 -7 8 C-7 7.34 -7 6.68 -7 6 C-6.01 6 -5.02 6 -4 6 C-4 5.01 -4 4.02 -4 3 C-3.34 3 -2.68 3 -2 3 C-2 2.34 -2 1.68 -2 1 C-1.34 0.67 -0.68 0.34 0 0 Z " fill="#232323" transform="translate(688,168)"/>
<path d="M0 0 C1.32 0.33 2.64 0.66 4 1 C2.54955729 5.10958767 0.48889248 8.43258745 -2 12 C-2.66 11.67 -3.32 11.34 -4 11 C-2.8834599 8.6810321 -1.70757679 6.54511944 -0.3125 4.375 C0.3371875 3.199375 0.3371875 3.199375 1 2 C0.67 1.34 0.34 0.68 0 0 Z " fill="#1D1D1D" transform="translate(636,246)"/>
<path d="M0 0 C3.15353929 0.84094381 5.46501019 1.50067618 7.875 3.75 C9.31217164 6.62434327 9.21618085 8.82934761 9 12 C8.731875 11.4225 8.46375 10.845 8.1875 10.25 C6.06657042 6.23139659 4.26934931 3.7666273 0 2 C0 1.34 0 0.68 0 0 Z " fill="#0F0F0F" transform="translate(495,157)"/>
<path d="M0 0 C4.70588235 0.70588235 4.70588235 0.70588235 6 2 C6.04063832 3.66617115 6.042721 5.33388095 6 7 C5.01 7.495 5.01 7.495 4 8 C3.9175 7.21625 3.835 6.4325 3.75 5.625 C3.27193661 2.85250896 3.27193661 2.85250896 0.9375 1.6875 C0.298125 1.460625 -0.34125 1.23375 -1 1 C-0.67 0.67 -0.34 0.34 0 0 Z " fill="#060606" transform="translate(690,168)"/>
<path d="M0 0 C2.31 0 4.62 0 7 0 C6.67 0.99 6.34 1.98 6 3 C4.35 2.67 2.7 2.34 1 2 C0.67 2.99 0.34 3.98 0 5 C-0.66 4.67 -1.32 4.34 -2 4 C-1.34 2.68 -0.68 1.36 0 0 Z " fill="#222222" transform="translate(488,156)"/>
<path d="M0 0 C0.99 0 1.98 0 3 0 C3 2.31 3 4.62 3 7 C2.01 7 1.02 7 0 7 C0 4.69 0 2.38 0 0 Z " fill="#262626" transform="translate(618,215)"/>
<path d="M0 0 C0.33 0 0.66 0 1 0 C1.125 2.875 1.125 2.875 1 6 C0.34 6.66 -0.32 7.32 -1 8 C-1.33 8.66 -1.66 9.32 -2 10 C-2.99 9.67 -3.98 9.34 -5 9 C-3.25 5.125 -3.25 5.125 -1 4 C-0.34786708 1.97536745 -0.34786708 1.97536745 0 0 Z " fill="#262626" transform="translate(696,171)"/>
</svg>
