<?xml version="1.0" encoding="UTF-8"?>
<svg version="1.1" xmlns="http://www.w3.org/2000/svg" width="800" height="300">
<path d="M0 0 C264 0 528 0 800 0 C800 99 800 198 800 300 C536 300 272 300 0 300 C0 201 0 102 0 0 Z " fill="#FEFEFE" transform="translate(0,0)"/>
<path d="M0 0 C5.07739919 -0.4231166 8.5478232 0.33265962 13.203125 2.34375 C15 4 15 4 18 12 C30.375 11.505 30.375 11.505 43 11 C43.33 9.02 43.66 7.04 44 5 C45.375 2.125 45.375 2.125 48 0 C52.60783128 -0.97122276 56.93660328 -1.03901537 61.203125 1.109375 C65.56885427 4.52124745 66.65645301 7.59366975 68 13 C71.12497937 13.02956676 74.24992177 13.04698543 77.375 13.0625 C78.24511719 13.07087891 79.11523438 13.07925781 80.01171875 13.08789062 C80.88183594 13.09111328 81.75195312 13.09433594 82.6484375 13.09765625 C83.82672119 13.10551147 83.82672119 13.10551147 85.02880859 13.11352539 C87.63239674 13.01404565 90.16322946 12.78545078 92.75195312 12.5065918 C97.61921972 11.99995039 102.42925009 11.82393392 107.3203125 11.796875 C108.1738179 11.79004196 109.0273233 11.78320892 109.9066925 11.77616882 C112.64616928 11.75920751 115.38547383 11.75284565 118.125 11.75 C119.06207794 11.74799591 119.99915588 11.74599182 120.96463013 11.743927 C134.71339344 11.73672816 147.87627111 12.57161977 161.47412109 14.66259766 C167.92944642 15.52488836 174.46091295 15.64004061 180.96240234 15.90283203 C184.93341579 16.09219979 188.88928024 16.45554448 192.84765625 16.81640625 C194.97210061 17.02833027 194.97210061 17.02833027 197 17 C197.28875 16.360625 197.5775 15.72125 197.875 15.0625 C199 13 199 13 201 12 C204 11.8125 204 11.8125 207 12 C209 14 209 14 209.1875 17.9375 C209.16190316 20.67636155 208.88664156 22.34007532 208 25 C208.763125 25.61875 209.52625 26.2375 210.3125 26.875 C213.49581161 30.00420433 214.32986218 33.55824461 215.421875 37.79296875 C215.92438316 40.02040955 215.92438316 40.02040955 217 42 C217.35263045 46.2010453 217.37115745 50.41110431 217.4375 54.625 C217.48326172 55.78902344 217.52902344 56.95304687 217.57617188 58.15234375 C217.66481443 64.95855064 217.20112427 69.23009168 212.59301758 74.39013672 C212.06732178 74.9213916 211.54162598 75.45264648 211 76 C210.24976563 76.86109375 209.49953125 77.7221875 208.7265625 78.609375 C200.62875886 86.85769544 192.79452919 90.63956848 181.140625 91.1171875 C178.75618773 91.1239232 176.38250476 91.09124486 174 91 C174.62146808 92.43903046 175.24732059 93.87616793 175.875 95.3125 C176.39707031 96.51326172 176.39707031 96.51326172 176.9296875 97.73828125 C178.02571894 100.1961834 178.02571894 100.1961834 180 103 C182.13048442 103.50631587 182.13048442 103.50631587 184.5 103.5625 C188.79245283 103.79245283 188.79245283 103.79245283 191 106 C191.84100236 110.9046067 192.30138309 115.97137342 189.5390625 120.27734375 C186.0549916 123.75406429 182.65008929 126.75092992 177.6875 127.5 C173.41410987 126.92055727 171.89298907 125.93829167 169.09765625 122.78515625 C167.25840531 119.79391895 167.4983081 117.38642031 168 114 C168.63013908 112.64902 169.29018342 111.31087095 170 110 C169.566875 109.51789063 169.13375 109.03578125 168.6875 108.5390625 C168.130625 107.90742188 167.57375 107.27578125 167 106.625 C166.443125 105.99851562 165.88625 105.37203125 165.3125 104.7265625 C164 103 164 103 164 101 C159.16019671 104.77740744 154.35670524 108.80156268 151 114 C150.96045766 116.33299825 150.95598268 118.66708189 151 121 C147.7459891 124.8234628 146.20515527 125.79914079 141.25 126.625 C135.95845347 126.31735195 131.51029759 123.58787566 127 121 C126.63432836 114.66169154 126.63432836 114.66169154 128.3125 111.625 C131.73085985 108.33324607 135.51834178 108.91544041 140 109 C140.10634766 108.21882813 140.10634766 108.21882813 140.21484375 107.421875 C141.34415605 103.93842413 143.44888755 101.19546298 145.5625 98.25 C146.19961914 97.34701172 146.19961914 97.34701172 146.84960938 96.42578125 C147.89435522 94.94670286 148.94646016 93.47282741 150 92 C148.75476563 92.16113281 147.50953125 92.32226562 146.2265625 92.48828125 C137.63422789 93.33729647 129.00010831 93.19426391 120.375 93.1875 C119.43555542 93.1882251 118.49611084 93.1889502 117.52819824 93.18969727 C94.32614713 93.18774678 71.16930656 92.14717662 48 91 C48.3609375 92.05960937 48.721875 93.11921875 49.09375 94.2109375 C49.56265793 95.59890499 50.03139931 96.98692875 50.5 98.375 C50.85771484 99.42300781 50.85771484 99.42300781 51.22265625 100.4921875 C53 105.7734375 53 105.7734375 53 108 C53.67546875 108.03738281 54.3509375 108.07476562 55.046875 108.11328125 C55.93890625 108.17902344 56.8309375 108.24476563 57.75 108.3125 C58.63171875 108.37050781 59.5134375 108.42851562 60.421875 108.48828125 C63.37638417 109.07470655 64.8336774 109.9276503 67 112 C67.625 114.875 67.625 114.875 67 118 C65.00707574 120.04402488 63.31459112 121.40752305 61 123 C60.33484375 123.54269531 59.6696875 124.08539063 58.984375 124.64453125 C53.72729034 128.68189663 49.8868308 129.61500059 43.28515625 129.30859375 C41 129 41 129 39 128 C39 127.01 39 126.02 39 125 C38.34 125 37.68 125 37 125 C36.75 121.75 36.75 121.75 37 118 C39.015625 115.765625 39.015625 115.765625 41 114 C40.4946875 113.37351562 39.989375 112.74703125 39.46875 112.1015625 C38.8190625 111.28429687 38.169375 110.46703125 37.5 109.625 C36.8503125 108.81289063 36.200625 108.00078125 35.53125 107.1640625 C34 105 34 105 34 103 C33.34 103 32.68 103 32 103 C32 102.01 32 101.02 32 100 C31.34 100 30.68 100 30 100 C29.62875 100.8353125 29.62875 100.8353125 29.25 101.6875 C27.76756602 104.43000286 26.00337342 106.60708175 24 109 C23.49726563 109.60714844 22.99453125 110.21429688 22.4765625 110.83984375 C18.25836268 115.87081866 18.25836268 115.87081866 16 117 C16.05800781 117.75925781 16.11601562 118.51851563 16.17578125 119.30078125 C16.54286397 127.38708907 16.54286397 127.38708907 14.0625 130.1875 C7.13284443 132.02598005 1.93147463 131.50807707 -4.37109375 128.0703125 C-6 127 -6 127 -8 125 C-8.68530813 121.57345936 -8.69462485 118.42466203 -8 115 C-5.60970207 111.77418759 -2.61077652 110.36977826 1.24609375 109.484375 C3.15342363 109.2259845 5.07790765 109.10116276 7 109 C7.3403125 107.824375 7.3403125 107.824375 7.6875 106.625 C9.40660933 101.87698375 11.68084721 97.47897448 14 93 C12.89205078 92.92652344 12.89205078 92.92652344 11.76171875 92.8515625 C8.50249356 92.61136547 5.25264254 92.31696285 2 92 C1.03320312 91.91234375 0.06640625 91.8246875 -0.9296875 91.734375 C-8.11708396 90.79777376 -13.06764282 88.37984926 -18 83 C-25.64875245 71.58423696 -28.42650041 56.51168363 -27 43 C-25.01069236 36.90000686 -21.9097631 32.14602217 -17 28 C-16.22011719 27.32710937 -15.44023437 26.65421875 -14.63671875 25.9609375 C-7.06935734 19.61556482 -7.06935734 19.61556482 -2 19 C-2.33 18.01 -2.66 17.02 -3 16 C-3.61767656 9.87074793 -2.79102638 5.46575999 0 0 Z " fill="#FBFBFB" transform="translate(480,156)"/>
<path d="M0 0 C5.77481791 -0.48123483 10.26953246 0.47661728 15 4 C16.93551992 7.11661994 17.20289203 9.34794339 17 13 C16.34 13 15.68 13 15 13 C14.505 9.535 14.505 9.535 14 6 C13.030625 5.690625 12.06125 5.38125 11.0625 5.0625 C8 4 8 4 7 3 C5.33382885 2.95936168 3.66611905 2.957279 2 3 C0.17144572 7.59232335 -0.12514462 10.97358268 0.375 15.875 C0.48585938 17.02742188 0.59671875 18.17984375 0.7109375 19.3671875 C0.80632812 20.23601562 0.90171875 21.10484375 1 22 C-0.2375 22.268125 -1.475 22.53625 -2.75 22.8125 C-10.85706723 25.52342106 -18.92295186 32.9220231 -22.75 40.5625 C-26.68099765 52.03294954 -22.40916427 64.56930147 -17.54296875 75.17578125 C-14.70365071 80.23261417 -12.14962828 83.11669686 -7 86 C-4.35850181 86.71563602 -1.93072079 87.26735351 0.75 87.6875 C1.44867188 87.80778564 2.14734375 87.92807129 2.8671875 88.05200195 C8.21951543 88.94755405 13.58500224 89.62251218 19 90 C19.33 90.99 19.66 91.98 20 93 C18.68 93 17.36 93 16 93 C15.76216797 93.81791016 15.76216797 93.81791016 15.51953125 94.65234375 C10.95530107 109.40413742 10.95530107 109.40413742 5.8515625 112.16015625 C3.58143237 112.91058133 1.33166434 113.47716749 -1 114 C-2.67363977 114.64896236 -4.34461042 115.30580437 -6 116 C-5.93919474 120.10068198 -5.93919474 120.10068198 -5 124 C-0.05428995 127.22985146 4.18971234 127.47625309 10 127 C11.98 126.01 11.98 126.01 14 125 C13.01 120.05 13.01 120.05 12 115 C13.258125 114.113125 14.51625 113.22625 15.8125 112.3125 C19.1586617 109.79848359 21.04345972 107.73521326 23 104 C23.9502911 102.54325004 24.93222214 101.10686254 25.9375 99.6875 C26.42089844 98.99011719 26.90429688 98.29273438 27.40234375 97.57421875 C29 96 29 96 33 96 C34.7109375 98.16015625 34.7109375 98.16015625 36.375 101.0625 C38.5180956 104.65901248 40.61912641 107.90178789 43.4375 111 C46 114 46 114 46 117 C44.02 117.99 44.02 117.99 42 119 C41.957279 120.66611905 41.95936168 122.33382885 42 124 C43.19503907 125.40523661 43.19503907 125.40523661 46.625 125.375 C50.96600726 125.3594129 53.22131206 123.86063577 56.45703125 121.09375 C58 120 58 120 61 120 C61 119.34 61 118.68 61 118 C61.66 117.67 62.32 117.34 63 117 C63.495 115.515 63.495 115.515 64 114 C63.15695312 113.89042969 62.31390625 113.78085937 61.4453125 113.66796875 C59.80175781 113.43013672 59.80175781 113.43013672 58.125 113.1875 C56.48917969 112.96126953 56.48917969 112.96126953 54.8203125 112.73046875 C52 112 52 112 50 109 C48.94555413 105.76408919 48.02711392 102.50036078 47.09765625 99.2265625 C46.12720588 95.97642329 46.12720588 95.97642329 44.30859375 93.2734375 C43.87675781 92.52320313 43.44492187 91.77296875 43 91 C43.495 89.515 43.495 89.515 44 88 C56.49369371 87.88201129 68.95068345 88.05371306 81.4375 88.5 C99.15407984 89.12192263 116.75071359 89.26480769 134.45776367 88.3581543 C140.98163245 88.02527325 147.46658781 87.87594787 154 88 C154 91.34050586 153.56494832 91.98685929 151.69921875 94.6171875 C151.21646484 95.30683594 150.73371094 95.99648437 150.23632812 96.70703125 C149.4696582 97.78017578 149.4696582 97.78017578 148.6875 98.875 C147.69007604 100.28812453 146.69394982 101.70216608 145.69921875 103.1171875 C144.9882605 104.11770142 144.9882605 104.11770142 144.26293945 105.13842773 C142.86288396 107.13489136 142.86288396 107.13489136 141.3984375 109.96484375 C140 112 140 112 138.02734375 112.63671875 C137.33769531 112.65347656 136.64804687 112.67023438 135.9375 112.6875 C131.99557113 112.5717978 131.99557113 112.5717978 130 115 C129.3574765 117.06874034 129.3574765 117.06874034 129 119 C137.37514394 121.8222318 137.37514394 121.8222318 146 121 C146 119.68 146 118.36 146 117 C146 113 146 113 147.28515625 111.6484375 C147.87167969 111.22820312 148.45820312 110.80796875 149.0625 110.375 C154.1818431 106.30871933 158.07997767 100.84004467 161 95 C164.34871805 96.37763717 165.66730527 97.6453924 167.375 100.8125 C169.73285449 104.84509227 172.2671904 107.22209518 176 110 C175.6875 111.875 175.6875 111.875 175 114 C174.01 114.66 173.02 115.32 172 116 C172.61277612 118.96175123 173.25372522 120.38058783 175 123 C177.77361813 123.71321609 179.36010066 123.35715312 181.84765625 121.96875 C184.76968443 119.80872917 186.67521538 118.16808503 187.66796875 114.59765625 C188.00572767 111.85597288 188.00572767 111.85597288 188 108 C184.37 108 180.74 108 177 108 C175.8439273 105.7965194 174.70015279 103.58796844 173.5625 101.375 C173.23701172 100.75753906 172.91152344 100.14007813 172.57617188 99.50390625 C170.61740372 95.66714389 169.46778742 92.28256092 169 88 C172 87 172 87 173.90991211 87.48168945 C176.38819628 88.09626687 177.95322173 87.81988153 180.44140625 87.29296875 C181.27220703 87.11830078 182.10300781 86.94363281 182.95898438 86.76367188 C184.24772461 86.4784668 184.24772461 86.4784668 185.5625 86.1875 C186.42552734 86.00896484 187.28855469 85.83042969 188.17773438 85.64648438 C192.05334273 84.81234023 194.65049169 84.23300554 198 82 C198.99 82 199.98 82 201 82 C201 81.34 201 80.68 201 80 C202.8386161 78.27087965 204.79526462 76.72584182 206.76171875 75.14453125 C211.37554026 70.7239588 214.21477068 67.31914196 214.6640625 60.7421875 C214.68446858 58.78652145 214.67019241 56.83025031 214.625 54.875 C214.61315674 53.85760742 214.60131348 52.84021484 214.58911133 51.79199219 C214.3082781 42.53702629 212.89641982 33.71440287 206 27 C206 26.34 206 25.68 206 25 C205.34 25 204.68 25 204 25 C204.350625 24.278125 204.70125 23.55625 205.0625 22.8125 C206.10409017 19.6877295 205.89096572 18.11838004 205 15 C202.54775306 15.10613836 202.54775306 15.10613836 200 16 C198.80781158 18.50091962 198.80781158 18.50091962 198 21 C197.19304687 20.87882812 196.38609375 20.75765625 195.5546875 20.6328125 C184.59146601 19.11984138 173.60298667 18.36993229 162.56201172 17.69775391 C161.31436035 17.62089355 160.06670898 17.5440332 158.78125 17.46484375 C157.66814453 17.399021 156.55503906 17.33319824 155.40820312 17.26538086 C153.04172653 17.08111438 150.68089951 16.81278586 148.33081055 16.47924805 C142.87539379 15.77414971 137.41823066 15.85704233 131.92578125 15.8671875 C130.7661235 15.86623077 129.60646576 15.86527405 128.41166687 15.86428833 C125.95828192 15.86360959 123.50489515 15.86544252 121.05151367 15.86962891 C117.36958569 15.874918 113.68778327 15.86970651 110.00585938 15.86328125 C103.00312076 15.8596195 96.00211433 15.90734175 89 16 C87.93199158 16.01325317 86.86398315 16.02650635 85.76361084 16.04016113 C82.81380371 16.08821397 79.86671261 16.16635229 76.91796875 16.2578125 C76.05053543 16.27141815 75.18310211 16.2850238 74.28938293 16.29904175 C69.65520994 16.39948813 69.65520994 16.39948813 66.06762695 19.04638672 C65.71531006 19.6910791 65.36299316 20.33577148 65 21 C64.34 21 63.68 21 63 21 C63.09539062 20.25234375 63.19078125 19.5046875 63.2890625 18.734375 C63.39992188 17.74953125 63.51078125 16.7646875 63.625 15.75 C63.79902344 14.28820312 63.79902344 14.28820312 63.9765625 12.796875 C64.00157515 9.81203245 63.66859484 8.4429101 62 6 C58.00612008 3.45844005 54.7249056 2.07556195 50 3 C46.47824259 6.98514655 46 8.56387187 46 14 C32.635 14.495 32.635 14.495 19 15 C19 14.34 19 13.68 19 13 C21.95508447 12.16628641 24.70109613 11.82110466 27.765625 11.68359375 C29.09980469 11.62075195 29.09980469 11.62075195 30.4609375 11.55664062 C31.84152344 11.49766602 31.84152344 11.49766602 33.25 11.4375 C34.18585937 11.39431641 35.12171875 11.35113281 36.0859375 11.30664062 C38.39048641 11.2008195 40.69513839 11.09873443 43 11 C43.13664063 10.06929687 43.27328125 9.13859375 43.4140625 8.1796875 C44.15552124 4.15603809 44.79498103 2.59453917 48 0 C52.60783128 -0.97122276 56.93660328 -1.03901537 61.203125 1.109375 C65.56885427 4.52124745 66.65645301 7.59366975 68 13 C71.12497937 13.02956676 74.24992177 13.04698543 77.375 13.0625 C78.24511719 13.07087891 79.11523438 13.07925781 80.01171875 13.08789062 C80.88183594 13.09111328 81.75195312 13.09433594 82.6484375 13.09765625 C83.82672119 13.10551147 83.82672119 13.10551147 85.02880859 13.11352539 C87.63239674 13.01404565 90.16322946 12.78545078 92.75195312 12.5065918 C97.61921972 11.99995039 102.42925009 11.82393392 107.3203125 11.796875 C108.1738179 11.79004196 109.0273233 11.78320892 109.9066925 11.77616882 C112.64616928 11.75920751 115.38547383 11.75284565 118.125 11.75 C119.06207794 11.74799591 119.99915588 11.74599182 120.96463013 11.743927 C134.71339344 11.73672816 147.87627111 12.57161977 161.47412109 14.66259766 C167.92944642 15.52488836 174.46091295 15.64004061 180.96240234 15.90283203 C184.93341579 16.09219979 188.88928024 16.45554448 192.84765625 16.81640625 C194.97210061 17.02833027 194.97210061 17.02833027 197 17 C197.28875 16.360625 197.5775 15.72125 197.875 15.0625 C199 13 199 13 201 12 C204 11.8125 204 11.8125 207 12 C209 14 209 14 209.1875 17.9375 C209.16190316 20.67636155 208.88664156 22.34007532 208 25 C208.763125 25.61875 209.52625 26.2375 210.3125 26.875 C213.49581161 30.00420433 214.32986218 33.55824461 215.421875 37.79296875 C215.92438316 40.02040955 215.92438316 40.02040955 217 42 C217.35263045 46.2010453 217.37115745 50.41110431 217.4375 54.625 C217.48326172 55.78902344 217.52902344 56.95304687 217.57617188 58.15234375 C217.66481443 64.95855064 217.20112427 69.23009168 212.59301758 74.39013672 C212.06732178 74.9213916 211.54162598 75.45264648 211 76 C210.24976563 76.86109375 209.49953125 77.7221875 208.7265625 78.609375 C200.62875886 86.85769544 192.79452919 90.63956848 181.140625 91.1171875 C178.75618773 91.1239232 176.38250476 91.09124486 174 91 C174.62146808 92.43903046 175.24732059 93.87616793 175.875 95.3125 C176.39707031 96.51326172 176.39707031 96.51326172 176.9296875 97.73828125 C178.02571894 100.1961834 178.02571894 100.1961834 180 103 C182.13048442 103.50631587 182.13048442 103.50631587 184.5 103.5625 C188.79245283 103.79245283 188.79245283 103.79245283 191 106 C191.84100236 110.9046067 192.30138309 115.97137342 189.5390625 120.27734375 C186.0549916 123.75406429 182.65008929 126.75092992 177.6875 127.5 C173.41410987 126.92055727 171.89298907 125.93829167 169.09765625 122.78515625 C167.25840531 119.79391895 167.4983081 117.38642031 168 114 C168.63013908 112.64902 169.29018342 111.31087095 170 110 C169.566875 109.51789063 169.13375 109.03578125 168.6875 108.5390625 C168.130625 107.90742188 167.57375 107.27578125 167 106.625 C166.443125 105.99851562 165.88625 105.37203125 165.3125 104.7265625 C164 103 164 103 164 101 C159.16019671 104.77740744 154.35670524 108.80156268 151 114 C150.96045766 116.33299825 150.95598268 118.66708189 151 121 C147.7459891 124.8234628 146.20515527 125.79914079 141.25 126.625 C135.95845347 126.31735195 131.51029759 123.58787566 127 121 C126.63432836 114.66169154 126.63432836 114.66169154 128.3125 111.625 C131.73085985 108.33324607 135.51834178 108.91544041 140 109 C140.10634766 108.21882813 140.10634766 108.21882813 140.21484375 107.421875 C141.34415605 103.93842413 143.44888755 101.19546298 145.5625 98.25 C146.19961914 97.34701172 146.19961914 97.34701172 146.84960938 96.42578125 C147.89435522 94.94670286 148.94646016 93.47282741 150 92 C148.75476563 92.16113281 147.50953125 92.32226562 146.2265625 92.48828125 C137.63422789 93.33729647 129.00010831 93.19426391 120.375 93.1875 C119.43555542 93.1882251 118.49611084 93.1889502 117.52819824 93.18969727 C94.32614713 93.18774678 71.16930656 92.14717662 48 91 C48.3609375 92.05960937 48.721875 93.11921875 49.09375 94.2109375 C49.56265793 95.59890499 50.03139931 96.98692875 50.5 98.375 C50.85771484 99.42300781 50.85771484 99.42300781 51.22265625 100.4921875 C53 105.7734375 53 105.7734375 53 108 C53.67546875 108.03738281 54.3509375 108.07476562 55.046875 108.11328125 C55.93890625 108.17902344 56.8309375 108.24476563 57.75 108.3125 C58.63171875 108.37050781 59.5134375 108.42851562 60.421875 108.48828125 C63.37638417 109.07470655 64.8336774 109.9276503 67 112 C67.625 114.875 67.625 114.875 67 118 C65.00707574 120.04402488 63.31459112 121.40752305 61 123 C60.33484375 123.54269531 59.6696875 124.08539063 58.984375 124.64453125 C53.72729034 128.68189663 49.8868308 129.61500059 43.28515625 129.30859375 C41 129 41 129 39 128 C39 127.01 39 126.02 39 125 C38.34 125 37.68 125 37 125 C36.75 121.75 36.75 121.75 37 118 C39.015625 115.765625 39.015625 115.765625 41 114 C40.4946875 113.37351562 39.989375 112.74703125 39.46875 112.1015625 C38.8190625 111.28429687 38.169375 110.46703125 37.5 109.625 C36.8503125 108.81289063 36.200625 108.00078125 35.53125 107.1640625 C34 105 34 105 34 103 C33.34 103 32.68 103 32 103 C32 102.01 32 101.02 32 100 C31.34 100 30.68 100 30 100 C29.62875 100.8353125 29.62875 100.8353125 29.25 101.6875 C27.76756602 104.43000286 26.00337342 106.60708175 24 109 C23.49726563 109.60714844 22.99453125 110.21429688 22.4765625 110.83984375 C18.25836268 115.87081866 18.25836268 115.87081866 16 117 C16.05800781 117.75925781 16.11601562 118.51851563 16.17578125 119.30078125 C16.54286397 127.38708907 16.54286397 127.38708907 14.0625 130.1875 C7.13284443 132.02598005 1.93147463 131.50807707 -4.37109375 128.0703125 C-6 127 -6 127 -8 125 C-8.68530813 121.57345936 -8.69462485 118.42466203 -8 115 C-5.60970207 111.77418759 -2.61077652 110.36977826 1.24609375 109.484375 C3.15342363 109.2259845 5.07790765 109.10116276 7 109 C7.3403125 107.824375 7.3403125 107.824375 7.6875 106.625 C9.40660933 101.87698375 11.68084721 97.47897448 14 93 C12.89205078 92.92652344 12.89205078 92.92652344 11.76171875 92.8515625 C8.50249356 92.61136547 5.25264254 92.31696285 2 92 C1.03320312 91.91234375 0.06640625 91.8246875 -0.9296875 91.734375 C-8.11708396 90.79777376 -13.06764282 88.37984926 -18 83 C-25.64875245 71.58423696 -28.42650041 56.51168363 -27 43 C-25.01069236 36.90000686 -21.9097631 32.14602217 -17 28 C-16.22011719 27.32710937 -15.44023437 26.65421875 -14.63671875 25.9609375 C-7.06935734 19.61556482 -7.06935734 19.61556482 -2 19 C-2.33 18.01 -2.66 17.02 -3 16 C-3.61767656 9.87074793 -2.79102638 5.46575999 0 0 Z " fill="#121212" transform="translate(480,156)"/>
<path d="M0 0 C1.60294922 0.04060547 1.60294922 0.04060547 3.23828125 0.08203125 C4.04652344 0.11683594 4.85476563 0.15164062 5.6875 0.1875 C5.3575 0.8475 5.0275 1.5075 4.6875 2.1875 C2.57113372 2.50233135 0.44301785 2.73996854 -1.6875 2.9375 C-6.879621 3.5087738 -6.879621 3.5087738 -10.625 6.875 C-11.54859301 11.32503907 -12.02992658 15.14559357 -10.5 19.5 C-9.25282008 21.48817478 -9.25282008 21.48817478 -6.3125 23.1875 C-3.55832682 23.48816154 -0.88604853 23.69675299 1.875 23.8125 C2.62458984 23.85117188 3.37417969 23.88984375 4.14648438 23.9296875 C5.99309199 24.02378216 7.8402619 24.10672319 9.6875 24.1875 C9.0275 25.1775 8.3675 26.1675 7.6875 27.1875 C5.28910083 27.12716291 2.8966615 27.04005482 0.5 26.9375 C-0.51030273 26.91623047 -0.51030273 26.91623047 -1.54101562 26.89453125 C-6.38589254 26.65819579 -8.89805088 25.60819126 -12.3125 22.1875 C-15.15839067 17.918664 -14.81178196 14.19592212 -14.3125 9.1875 C-13.063577 5.57219657 -12.15450468 3.8130739 -9.09375 1.5390625 C-5.81098724 -0.05621266 -3.62700143 -0.11957148 0 0 Z " fill="#111111" transform="translate(491.3125,192.8125)"/>
<path d="M0 0 C0.66 0.33 1.32 0.66 2 1 C1.34 1.66 0.68 2.32 0 3 C-0.02216617 6.32935866 0.19899728 9.61190784 0.41796875 12.93359375 C0 16 0 16 -2.2421875 17.8828125 C-7.00279636 19.8113311 -11.43008534 19.93411574 -16.2890625 18.16796875 C-19.30113904 16.7057425 -21.62151544 15.37848456 -24 13 C-24.26991906 10.31160615 -24.08737357 7.70858064 -24 5 C-23.34 4.67 -22.68 4.34 -22 4 C-21.979375 5.258125 -21.95875 6.51625 -21.9375 7.8125 C-21.72892971 10.01247726 -21.72892971 10.01247726 -21 12 C-16.05428995 15.22985146 -11.81028766 15.47625309 -6 15 C-4.68 14.34 -3.36 13.68 -2 13 C-2.66 9.7 -3.32 6.4 -4 3 C-2.68 2.01 -1.36 1.02 0 0 Z " fill="#090909" transform="translate(496,268)"/>
<path d="M0 0 C4.73225528 -0.02481819 9.46447221 -0.04291583 14.19677734 -0.05493164 C15.80485698 -0.05994375 17.4129321 -0.06675519 19.02099609 -0.07543945 C21.33952961 -0.08764226 23.65800259 -0.09325964 25.9765625 -0.09765625 C26.68930328 -0.10281754 27.40204407 -0.10797882 28.13638306 -0.11329651 C32.19856429 -0.11374755 36.01488106 0.21224393 40 1 C40 1.66 40 2.32 40 3 C26.47 3 12.94 3 -1 3 C-0.67 2.01 -0.34 1.02 0 0 Z " fill="#252525" transform="translate(586,168)"/>
<path d="M0 0 C1.49161005 0.09756294 2.98250427 0.20646406 4.47265625 0.32421875 C6.10801646 0.43701935 7.74343545 0.54897047 9.37890625 0.66015625 C10.22710938 0.72041992 11.0753125 0.78068359 11.94921875 0.84277344 C14.48788871 1.00863065 17.02459503 1.13204148 19.56640625 1.23828125 C28.03463656 1.59628229 36.24302111 2.09241556 44.53515625 4.01171875 C44.53515625 4.67171875 44.53515625 5.33171875 44.53515625 6.01171875 C43.84583008 5.95113281 43.15650391 5.89054688 42.44628906 5.828125 C32.74519032 4.99541266 23.03354308 4.37382186 13.31640625 3.76171875 C7.02202475 3.35398554 0.78108534 2.89946502 -5.46484375 2.01171875 C-3.46484375 0.01171875 -3.46484375 0.01171875 0 0 Z " fill="#000000" transform="translate(629.46484375,169.98828125)"/>
<path d="M0 0 C-0.33 0.99 -0.66 1.98 -1 3 C-12.88 3 -24.76 3 -37 3 C-37 2.67 -37 2.34 -37 2 C-33.01669261 1.71153244 -29.03313331 1.42685352 -25.04931641 1.14550781 C-23.03664439 1.00260187 -21.02417891 0.85679651 -19.01171875 0.7109375 C-12.65925596 0.26403057 -6.36855229 -0.12997045 0 0 Z " fill="#060606" transform="translate(586,168)"/>
<path d="M0 0 C0.66 0 1.32 0 2 0 C2.25 7.625 2.25 7.625 0 11 C-2.5 11.375 -2.5 11.375 -5 11 C-7.4294516 7.3558226 -7.16179575 5.28758728 -7 1 C-6.34 1 -5.68 1 -5 1 C-4.67 2.98 -4.34 4.96 -4 7 C-3.01 7.33 -2.02 7.66 -1 8 C-0.67 5.36 -0.34 2.72 0 0 Z " fill="#030303" transform="translate(611,215)"/>
<path d="M0 0 C0.99 0 1.98 0 3 0 C3 2.64 3 5.28 3 8 C3.66 7.67 4.32 7.34 5 7 C5 5.02 5 3.04 5 1 C5.99 1 6.98 1 8 1 C8.1953125 7.0546875 8.1953125 7.0546875 8 9 C7.34 9.66 6.68 10.32 6 11 C3.06546739 10.63318342 2.13562754 10.13562754 0 8 C-0.26991906 5.31160615 -0.08737357 2.70858064 0 0 Z " fill="#020202" transform="translate(551,188)"/>
<path d="M0 0 C0.66 0 1.32 0 2 0 C2.1953125 6.0546875 2.1953125 6.0546875 2 8 C1.34 8.66 0.68 9.32 0 10 C-3.53571429 9.46428571 -3.53571429 9.46428571 -5 8 C-5.04080783 6.00041636 -5.04254356 3.99954746 -5 2 C-4.34 2 -3.68 2 -3 2 C-3 3.32 -3 4.64 -3 6 C-2.01 6 -1.02 6 0 6 C0 4.02 0 2.04 0 0 Z " fill="#020202" transform="translate(542,199)"/>
<path d="M0 0 C0.74362793 0.05236816 1.48725586 0.10473633 2.25341797 0.15869141 C3.05908203 0.21025391 3.86474609 0.26181641 4.69482422 0.31494141 C5.95746094 0.41162109 5.95746094 0.41162109 7.24560547 0.51025391 C8.09509766 0.56697266 8.94458984 0.62369141 9.81982422 0.68212891 C11.92073997 0.82376368 14.02077881 0.97829717 16.12060547 1.13525391 C16.12060547 2.12525391 16.12060547 3.11525391 16.12060547 4.13525391 C9.52060547 3.47525391 2.92060547 2.81525391 -3.87939453 2.13525391 C-1.87939453 0.13525391 -1.87939453 0.13525391 0 0 Z " fill="#090909" transform="translate(627.87939453125,169.86474609375)"/>
<path d="M0 0 C0.66 0 1.32 0 2 0 C2.33 1.65 2.66 3.3 3 5 C3.99 5 4.98 5 6 5 C6 3.35 6 1.7 6 0 C6.66 0 7.32 0 8 0 C8.125 2.875 8.125 2.875 8 6 C7.34 6.66 6.68 7.32 6 8 C3.06546739 7.63318342 2.13562754 7.13562754 0 5 C-0.125 2.375 -0.125 2.375 0 0 Z " fill="#1A1A1A" transform="translate(639,190)"/>
<path d="M0 0 C0.66 0 1.32 0 2 0 C2.33 1.65 2.66 3.3 3 5 C3.99 5 4.98 5 6 5 C6.66 3.68 7.32 2.36 8 1 C7.67 2.98 7.34 4.96 7 7 C5.35 7.33 3.7 7.66 2 8 C-0.1519437 4.77208445 -0.20086443 3.71599191 0 0 Z " fill="#0E0E0E" transform="translate(675,221)"/>
<path d="M0 0 C0.66 0.33 1.32 0.66 2 1 C2 1.66 2 2.32 2 3 C1.01 3.33 0.02 3.66 -1 4 C-2.21869929 6.50447516 -2.21869929 6.50447516 -3 9 C-4.32 8.67 -5.64 8.34 -7 8 C-6.67 7.01 -6.34 6.02 -6 5 C-5.34 5 -4.68 5 -4 5 C-3.71125 4.360625 -3.4225 3.72125 -3.125 3.0625 C-2 1 -2 1 0 0 Z " fill="#222222" transform="translate(681,168)"/>
<path d="M0 0 C4.60470588 1.45411765 4.60470588 1.45411765 6.3125 3.8125 C7.09802451 6.31189617 7.14472595 8.39493282 7 11 C6.34 11 5.68 11 5 11 C4.67 8.69 4.34 6.38 4 4 C2.02 3.34 0.04 2.68 -2 2 C-1.34 1.34 -0.68 0.68 0 0 Z " fill="#262626" transform="translate(490,158)"/>
<path d="M0 0 C0.99 0 1.98 0 3 0 C3 2 3 2 1.6875 3.4375 C1.130625 3.953125 0.57375 4.46875 0 5 C-0.556875 5.556875 -1.11375 6.11375 -1.6875 6.6875 C-2.120625 7.120625 -2.55375 7.55375 -3 8 C-3.33 7.34 -3.66 6.68 -4 6 C-1.68421053 1.68421053 -1.68421053 1.68421053 0 0 Z " fill="#111111" transform="translate(482,194)"/>
<path d="M0 0 C0.33 0 0.66 0 1 0 C1.66 3.63 2.32 7.26 3 11 C2.01 10.67 1.02 10.34 0 10 C-1.49106457 7.01787087 -1.11941467 4.28390342 -1 1 C-0.67 0.67 -0.34 0.34 0 0 Z " fill="#060606" transform="translate(478,164)"/>
<path d="M0 0 C1.485 0.99 1.485 0.99 3 2 C2.67 3.65 2.34 5.3 2 7 C1.34 7 0.68 7 0 7 C-0.38133299 5.0085944 -0.71325582 3.00720923 -1 1 C-0.67 0.67 -0.34 0.34 0 0 Z " fill="#D8D8D8" transform="translate(554,189)"/>
<path d="M0 0 C0.598125 0.350625 1.19625 0.70125 1.8125 1.0625 C1.8125 1.3925 1.8125 1.7225 1.8125 2.0625 C-0.4975 2.7225 -2.8075 3.3825 -5.1875 4.0625 C-5.1875 2.7425 -5.1875 1.4225 -5.1875 0.0625 C-2.1875 -0.9375 -2.1875 -0.9375 0 0 Z " fill="#191919" transform="translate(615.1875,265.9375)"/>
<path d="M0 0 C0.99 0.33 1.98 0.66 3 1 C2.01 3.31 1.02 5.62 0 8 C-0.99 8 -1.98 8 -3 8 C-2.690625 7.236875 -2.38125 6.47375 -2.0625 5.6875 C-1.32106407 3.81210323 -0.63771783 1.91315348 0 0 Z " fill="#191919" transform="translate(491,254)"/>
</svg>
