<?xml version="1.0" encoding="UTF-8"?>
<svg version="1.1" xmlns="http://www.w3.org/2000/svg" width="800" height="300">
<path d="M0 0 C264 0 528 0 800 0 C800 99 800 198 800 300 C536 300 272 300 0 300 C0 201 0 102 0 0 Z " fill="#FEFEFE" transform="translate(0,0)"/>
<path d="M0 0 C4.73368209 0.6418552 8.08243391 1.83761012 11.4375 5.3125 C12.94338287 7.94779503 13.82926603 10.5952081 14.6875 13.5 C15.77804687 13.2834375 15.77804687 13.2834375 16.890625 13.0625 C24.24098796 11.70550991 31.22137397 11.26171938 38.6875 11.5 C38.749375 10.613125 38.81125 9.72625 38.875 8.8125 C39.93150371 4.50521566 41.03678504 3.03314916 44.6875 0.5 C49.70478556 -0.4616464 53.54154827 -0.06255812 58.125 2.1875 C61.87673403 5.5732112 63.56581541 8.64279698 64.6875 13.5 C67.97914829 13.52895225 71.27076399 13.5467823 74.5625 13.5625 C75.49964844 13.57087891 76.43679688 13.57925781 77.40234375 13.58789062 C78.29824219 13.59111328 79.19414063 13.59433594 80.1171875 13.59765625 C80.94460449 13.60289307 81.77202148 13.60812988 82.62451172 13.61352539 C84.75161757 13.63352138 84.75161757 13.63352138 86.6875 12.5 C89.36029212 12.36251069 92.00514044 12.28738471 94.6796875 12.26171875 C95.51289017 12.25215149 96.34609283 12.24258423 97.20454407 12.23272705 C99.99056685 12.2076724 102.77637741 12.19548299 105.5625 12.1875 C106.51847076 12.18388458 107.47444153 12.18026917 108.4593811 12.17654419 C136.24823316 12.13488863 164.08613796 14.33545661 191.6875 17.5 C192.0175 16.84 192.3475 16.18 192.6875 15.5 C193.3475 15.5 194.0075 15.5 194.6875 15.5 C194.6875 14.84 194.6875 14.18 194.6875 13.5 C197.48620027 12.10064987 199.59248792 12.24734595 202.6875 12.5 C204.5625 13.625 204.5625 13.625 205.6875 15.5 C205.94042101 18.47182182 206.0050425 20.71835693 204.875 23.5 C204.813125 24.16 204.75125 24.82 204.6875 25.5 C205.409375 26.325 206.13125 27.15 206.875 28 C213.81106916 35.94354289 214.11883968 45.61563228 214.3125 55.6875 C214.34770752 56.7089209 214.38291504 57.7303418 214.41918945 58.78271484 C214.40633079 66.33258628 212.48231339 70.72815608 207.6875 76.5 C207.04425781 77.30953125 206.40101563 78.1190625 205.73828125 78.953125 C198.48798878 86.44780935 188.48085156 91.17480979 177.97265625 91.61328125 C175.53995207 91.62351703 173.11836461 91.58966304 170.6875 91.5 C170.96464844 92.18707031 171.24179687 92.87414062 171.52734375 93.58203125 C171.88957031 94.48308594 172.25179687 95.38414062 172.625 96.3125 C172.98464844 97.20582031 173.34429688 98.09914063 173.71484375 99.01953125 C174.42363486 100.8270909 175.0735247 102.65807409 175.6875 104.5 C176.30238281 104.46519531 176.91726563 104.43039062 177.55078125 104.39453125 C178.35902344 104.36746094 179.16726563 104.34039062 180 104.3125 C181.20076172 104.26029297 181.20076172 104.26029297 182.42578125 104.20703125 C184.6875 104.5 184.6875 104.5 186.43359375 105.6875 C188.62384537 108.85347118 188.45258798 111.87598205 188.3828125 115.62890625 C187.11023602 120.88364621 183.00600239 123.58462113 178.6875 126.5 C175.50871306 128.08939347 173.1918228 127.91576711 169.6875 127.5 C165.90537715 124.20070134 164.8423895 122.80549722 164.25 117.8125 C164.6875 114.5 164.6875 114.5 166.6875 111.5 C165.73020084 110.37411986 164.77162105 109.2493285 163.8125 108.125 C163.27882813 107.49851562 162.74515625 106.87203125 162.1953125 106.2265625 C161.07317993 104.94163349 159.89378025 103.70628025 158.6875 102.5 C158.0275 102.5 157.3675 102.5 156.6875 102.5 C156.44386719 103.06976563 156.20023438 103.63953125 155.94921875 104.2265625 C154.4676122 106.8962065 152.6465657 108.70943814 150.5 110.875 C148.31256034 113.15999389 148.31256034 113.15999389 146.6875 115.5 C146.99553455 118.68522204 146.99553455 118.68522204 147.6875 121.5 C144.49703354 125.26311428 142.87049918 126.29949166 138 127.125 C132.44732418 126.80154316 127.55026021 124.00289128 122.6875 121.5 C122.27295636 117.27165483 122.22254657 115.16837056 124.6875 111.625 C127.6875 109.5 127.6875 109.5 131.5 109.5 C133.62675876 109.5130238 133.62675876 109.5130238 135.6875 108.5 C138.87779769 104.42942685 141.2475245 100.04774776 143.6875 95.5 C144.6775 94.015 144.6775 94.015 145.6875 92.5 C144.39811523 92.66226074 143.10873047 92.82452148 141.78027344 92.99169922 C136.90637811 93.53066814 132.10283694 93.64460987 127.203125 93.6328125 C125.87452705 93.63479141 125.87452705 93.63479141 124.51908875 93.6368103 C121.65852269 93.6387144 118.79805601 93.63240899 115.9375 93.625 C114.95862823 93.62411377 113.97975647 93.62322754 112.97122192 93.62231445 C99.68873706 93.60820854 86.43796941 93.40243772 73.16625977 92.8581543 C63.6679462 92.46896537 54.19224783 92.39347107 44.6875 92.5 C45.95316466 97.72802185 47.31531159 102.65701026 49.6875 107.5 C52.12063888 108.92556419 53.73575333 109.09704912 56.5234375 109.26953125 C58.6875 109.5 58.6875 109.5 61.8125 111.8125 C63.6875 114.5 63.6875 114.5 63.875 117 C62.21416593 120.49649279 59.81041909 122.37222494 56.6875 124.5 C56.00042969 124.97050781 55.31335938 125.44101562 54.60546875 125.92578125 C49.26525568 129.24587869 44.94935342 130.3801802 38.6875 129.5 C35.6875 128.5 35.6875 128.5 33.6875 125.5 C33.2382074 120.55778145 33.54160631 118.27673253 36.6875 114.5 C33.42029209 110.11105071 30.13851522 105.74740335 26.6875 101.5 C26.3575 102.16 26.0275 102.82 25.6875 103.5 C25.0275 103.5 24.3675 103.5 23.6875 103.5 C23.44 104.03625 23.1925 104.5725 22.9375 105.125 C18.7087766 113.15957447 18.7087766 113.15957447 14.6875 114.5 C14.1925 115.985 14.1925 115.985 13.6875 117.5 C13.0275 117.5 12.3675 117.5 11.6875 117.5 C12.0175 118.16 12.3475 118.82 12.6875 119.5 C12.75700541 121.04023996 12.77202357 122.58334988 12.75 124.125 C12.74097656 124.94226563 12.73195313 125.75953125 12.72265625 126.6015625 C12.71105469 127.22804688 12.69945312 127.85453125 12.6875 128.5 C7.68234695 131.58009418 3.43098265 132.53401488 -2.3125 131.5 C-10.5130814 128.09883721 -10.5130814 128.09883721 -12.3125 124.5 C-12.98308266 121.33687426 -13.13512766 118.64285951 -12.3125 115.5 C-8.9127772 111.92290036 -5.16424835 109.64729816 -0.21875 109.25390625 C2.98092068 108.77393213 2.98092068 108.77393213 4.5859375 105.55859375 C5.07320313 104.36363281 5.56046875 103.16867187 6.0625 101.9375 C6.56523437 100.73996094 7.06796875 99.54242188 7.5859375 98.30859375 C7.94945312 97.38175781 8.31296875 96.45492187 8.6875 95.5 C9.3475 95.5 10.0075 95.5 10.6875 95.5 C10.6875 94.84 10.6875 94.18 10.6875 93.5 C9.23730469 93.44392578 9.23730469 93.44392578 7.7578125 93.38671875 C-12.77774793 92.34977461 -12.77774793 92.34977461 -20.3125 85.5 C-28.56458451 73.76462353 -32.68468735 57.7781657 -31.3125 43.5 C-30.33768592 40.55625452 -28.97144328 38.10691087 -27.3125 35.5 C-26.85875 34.5925 -26.405 33.685 -25.9375 32.75 C-23.80698062 29.80005009 -21.39993391 28.42236451 -18.3125 26.5 C-16.27236782 24.94336735 -14.25269477 23.36421071 -12.2421875 21.76953125 C-10.24675661 20.45674777 -8.64606982 19.93041399 -6.3125 19.5 C-6.34730469 18.54738281 -6.38210938 17.59476563 -6.41796875 16.61328125 C-6.44503906 15.35902344 -6.47210938 14.10476562 -6.5 12.8125 C-6.53480469 11.57113281 -6.56960938 10.32976562 -6.60546875 9.05078125 C-6.18339073 3.93519559 -5.34559056 0.80688159 0 0 Z " fill="#FCFCFC" transform="translate(468.3125,155.5)"/>
<path d="M0 0 C4.76469129 0.64605984 8.07217662 1.88467662 11.5 5.3125 C12.96668267 8.01428386 13.34242025 10.4632982 13.6875 13.5 C13.0275 13.5 12.3675 13.5 11.6875 13.5 C11.31625 12.406875 10.945 11.31375 10.5625 10.1875 C9.26010133 7.14652197 8.73781813 6.53281617 5.8125 4.625 C3.08245733 3.64218464 0.55342693 2.92145984 -2.3125 2.5 C-2.456875 3.469375 -2.60125 4.43875 -2.75 5.4375 C-3.3125 8.5 -3.3125 8.5 -4.3125 9.5 C-4.47916667 12.5 -4.47916667 12.5 -4.3125 15.5 C-3.9825 15.83 -3.6525 16.16 -3.3125 16.5 C-3.27169217 18.49958364 -3.26995644 20.50045254 -3.3125 22.5 C-4.323125 22.70625 -5.33375 22.9125 -6.375 23.125 C-10.39799368 24.23704703 -12.85535014 26.41055231 -15.83203125 29.2578125 C-17.3125 30.5 -17.3125 30.5 -19.3125 30.5 C-19.3125 31.16 -19.3125 31.82 -19.3125 32.5 C-20.075625 33.221875 -20.83875 33.94375 -21.625 34.6875 C-25.9202211 39.18249883 -27.46709731 43.21660932 -27.8125 49.3125 C-27.51141061 59.67857757 -24.27192513 74.51021842 -17.3125 82.5 C-12.96047371 85.94985442 -8.96604353 87.34060842 -3.5625 88.1875 C-2.86382812 88.30778564 -2.16515625 88.42807129 -1.4453125 88.55200195 C3.90701543 89.44755405 9.27250224 90.12251218 14.6875 90.5 C15.0175 91.49 15.3475 92.48 15.6875 93.5 C14.6975 93.83 13.7075 94.16 12.6875 94.5 C11.06034327 97.10604 11.06034327 97.10604 9.625 100.25 C9.11839844 101.29671875 8.61179687 102.3434375 8.08984375 103.421875 C6.66113003 106.41661479 6.66113003 106.41661479 5.7421875 109.3203125 C5.22011719 110.39925781 5.22011719 110.39925781 4.6875 111.5 C2.71858415 112.08099156 0.74188587 112.65215625 -1.26953125 113.0625 C-4.24298707 113.69926301 -6.07854868 114.40567064 -8.3125 116.5 C-9.03163365 119.31758922 -9.01731792 121.68072831 -8.3125 124.5 C-5.97410743 126.99428541 -4.18276214 127.4166625 -0.82421875 127.73828125 C1.73665388 127.80869598 4.14800211 127.84609086 6.6875 127.5 C7.3475 126.84 8.0075 126.18 8.6875 125.5 C8.71003443 123.05036823 8.71003443 123.05036823 8.3125 120.375 C8.20164062 119.46492188 8.09078125 118.55484375 7.9765625 117.6171875 C7.88117188 116.91851562 7.78578125 116.21984375 7.6875 115.5 C8.50154297 115.04560547 8.50154297 115.04560547 9.33203125 114.58203125 C13.76460809 111.98637814 16.27083049 110.12319385 18.6875 105.5 C19.80119042 103.87335364 20.95052217 102.27081505 22.125 100.6875 C22.70121094 99.89730469 23.27742188 99.10710937 23.87109375 98.29296875 C25.6875 96.5 25.6875 96.5 29.6875 96.5 C30.26757812 97.60408203 30.26757812 97.60408203 30.859375 98.73046875 C35.46257085 107.70414656 35.46257085 107.70414656 42.6875 114.5 C42.1925 116.48 42.1925 116.48 41.6875 118.5 C40.3675 118.5 39.0475 118.5 37.6875 118.5 C37.6875 120.48 37.6875 122.46 37.6875 124.5 C41.07244669 126.19247334 44.07245919 126.32133727 47.6875 125.5 C51.69270782 123.23687337 55.36726836 120.69206094 58.6875 117.5 C58.6875 116.51 58.6875 115.52 58.6875 114.5 C56.39120006 113.35185003 54.61051914 113.19230191 52.0625 112.9375 C50.83660156 112.81181641 50.83660156 112.81181641 49.5859375 112.68359375 C48.95945312 112.62300781 48.33296875 112.56242187 47.6875 112.5 C45.62100643 107.02379203 43.61400203 101.53032698 41.65234375 96.015625 C40.78583235 93.7563807 39.81247373 91.63995002 38.6875 89.5 C40.26234437 87.92515563 41.82875405 88.37021162 44.015625 88.3671875 C44.94576416 88.36525391 45.87590332 88.36332031 46.83422852 88.36132812 C48.3703479 88.3680957 48.3703479 88.3680957 49.9375 88.375 C51.00218506 88.37693359 52.06687012 88.37886719 53.16381836 88.38085938 C61.53315929 88.42439615 69.88714114 88.68188101 78.25 89 C95.56728813 89.65214885 112.76552807 89.7470866 130.07446289 88.8581543 C136.95491647 88.5076585 143.79710248 88.38299325 150.6875 88.5 C149.80310705 92.86973214 147.44098565 95.86787042 144.8125 99.375 C142.24440216 102.81639912 139.93226789 105.9566278 138.16015625 109.890625 C136.6875 112.5 136.6875 112.5 134.42578125 113.3046875 C133.22501953 113.33949219 133.22501953 113.33949219 132 113.375 C131.19175781 113.41367187 130.38351562 113.45234375 129.55078125 113.4921875 C128.93589844 113.49476563 128.32101562 113.49734375 127.6875 113.5 C127.3575 115.48 127.0275 117.46 126.6875 119.5 C132.71231126 121.99302535 137.24502705 123.64749098 143.6875 121.5 C142.9140625 120.3553125 142.9140625 120.3553125 142.125 119.1875 C141.650625 118.300625 141.17625 117.41375 140.6875 116.5 C141.6875 113.5 141.6875 113.5 144.25 112 C150.32395318 108.23503144 154.73631543 100.88419519 157.6875 94.5 C161.86396884 98.4444428 165.33629182 102.4597816 167.6875 107.75 C168.96932353 109.99319118 170.32996152 110.55698461 172.6875 111.5 C172.6875 112.16 172.6875 112.82 172.6875 113.5 C170.6875 115.125 170.6875 115.125 168.6875 116.5 C169.0175 118.48 169.3475 120.46 169.6875 122.5 C173.22472984 123.40487275 175.0589202 123.78571809 178.4375 122.25 C180.89831851 120.52635231 180.89831851 120.52635231 182.6875 117.5 C183.3475 117.5 184.0075 117.5 184.6875 117.5 C184.3575 114.86 184.0275 112.22 183.6875 109.5 C183.03523437 109.56703125 182.38296875 109.6340625 181.7109375 109.703125 C178.67262109 109.75690051 176.5402502 109.58737115 173.6875 108.5 C170.91726596 104.80445068 169.37489951 100.77369408 167.6875 96.5 C167.13964844 95.42105469 166.59179688 94.34210938 166.02734375 93.23046875 C164.6875 90.5 164.6875 90.5 164.6875 88.5 C167.22415416 87.68827067 169.19000679 87.50614311 171.8828125 87.5390625 C182.15175331 87.4336319 192.7090796 85.2606615 200.6875 78.5 C208.21110816 70.36400513 209.86841895 65.97056257 209.875 55.125 C209.88724609 54.07054687 209.89949219 53.01609375 209.91210938 51.9296875 C209.91404297 50.91390625 209.91597656 49.898125 209.91796875 48.8515625 C209.92207764 47.92166504 209.92618652 46.99176758 209.93041992 46.03369141 C209.67535466 43.3733223 208.99406642 41.80179152 207.6875 39.5 C207.36134717 38.17468058 207.06908515 36.84052649 206.8125 35.5 C205.95599067 31.78385467 204.60195101 30.02585754 201.6875 27.5 C201.6875 26.84 201.6875 26.18 201.6875 25.5 C201.0275 25.5 200.3675 25.5 199.6875 25.5 C200.0175 24.778125 200.3475 24.05625 200.6875 23.3125 C201.69353529 20.48302573 201.85727402 18.47104534 201.6875 15.5 C199.27872743 15.61341534 199.27872743 15.61341534 196.6875 16.5 C194.98867552 18.99759982 194.98867552 18.99759982 193.6875 21.5 C193.0275 21.5 192.3675 21.5 191.6875 21.5 C192.0175 19.52 192.3475 17.54 192.6875 15.5 C193.3475 15.5 194.0075 15.5 194.6875 15.5 C194.6875 14.84 194.6875 14.18 194.6875 13.5 C197.48620027 12.10064987 199.59248792 12.24734595 202.6875 12.5 C204.5625 13.625 204.5625 13.625 205.6875 15.5 C205.94042101 18.47182182 206.0050425 20.71835693 204.875 23.5 C204.813125 24.16 204.75125 24.82 204.6875 25.5 C205.409375 26.325 206.13125 27.15 206.875 28 C213.81106916 35.94354289 214.11883968 45.61563228 214.3125 55.6875 C214.34770752 56.7089209 214.38291504 57.7303418 214.41918945 58.78271484 C214.40633079 66.33258628 212.48231339 70.72815608 207.6875 76.5 C207.04425781 77.30953125 206.40101563 78.1190625 205.73828125 78.953125 C198.48798878 86.44780935 188.48085156 91.17480979 177.97265625 91.61328125 C175.53995207 91.62351703 173.11836461 91.58966304 170.6875 91.5 C170.96464844 92.18707031 171.24179687 92.87414062 171.52734375 93.58203125 C171.88957031 94.48308594 172.25179687 95.38414062 172.625 96.3125 C172.98464844 97.20582031 173.34429688 98.09914063 173.71484375 99.01953125 C174.42363486 100.8270909 175.0735247 102.65807409 175.6875 104.5 C176.30238281 104.46519531 176.91726563 104.43039062 177.55078125 104.39453125 C178.35902344 104.36746094 179.16726563 104.34039062 180 104.3125 C181.20076172 104.26029297 181.20076172 104.26029297 182.42578125 104.20703125 C184.6875 104.5 184.6875 104.5 186.43359375 105.6875 C188.62384537 108.85347118 188.45258798 111.87598205 188.3828125 115.62890625 C187.11023602 120.88364621 183.00600239 123.58462113 178.6875 126.5 C175.50871306 128.08939347 173.1918228 127.91576711 169.6875 127.5 C165.90537715 124.20070134 164.8423895 122.80549722 164.25 117.8125 C164.6875 114.5 164.6875 114.5 166.6875 111.5 C165.73020084 110.37411986 164.77162105 109.2493285 163.8125 108.125 C163.27882813 107.49851562 162.74515625 106.87203125 162.1953125 106.2265625 C161.07317993 104.94163349 159.89378025 103.70628025 158.6875 102.5 C158.0275 102.5 157.3675 102.5 156.6875 102.5 C156.44386719 103.06976563 156.20023438 103.63953125 155.94921875 104.2265625 C154.4676122 106.8962065 152.6465657 108.70943814 150.5 110.875 C148.31256034 113.15999389 148.31256034 113.15999389 146.6875 115.5 C146.99553455 118.68522204 146.99553455 118.68522204 147.6875 121.5 C144.49703354 125.26311428 142.87049918 126.29949166 138 127.125 C132.44732418 126.80154316 127.55026021 124.00289128 122.6875 121.5 C122.27295636 117.27165483 122.22254657 115.16837056 124.6875 111.625 C127.6875 109.5 127.6875 109.5 131.5 109.5 C133.62675876 109.5130238 133.62675876 109.5130238 135.6875 108.5 C138.87779769 104.42942685 141.2475245 100.04774776 143.6875 95.5 C144.6775 94.015 144.6775 94.015 145.6875 92.5 C144.39811523 92.66226074 143.10873047 92.82452148 141.78027344 92.99169922 C136.90637811 93.53066814 132.10283694 93.64460987 127.203125 93.6328125 C125.87452705 93.63479141 125.87452705 93.63479141 124.51908875 93.6368103 C121.65852269 93.6387144 118.79805601 93.63240899 115.9375 93.625 C114.95862823 93.62411377 113.97975647 93.62322754 112.97122192 93.62231445 C99.68873706 93.60820854 86.43796941 93.40243772 73.16625977 92.8581543 C63.6679462 92.46896537 54.19224783 92.39347107 44.6875 92.5 C45.95316466 97.72802185 47.31531159 102.65701026 49.6875 107.5 C52.12063888 108.92556419 53.73575333 109.09704912 56.5234375 109.26953125 C58.6875 109.5 58.6875 109.5 61.8125 111.8125 C63.6875 114.5 63.6875 114.5 63.875 117 C62.21416593 120.49649279 59.81041909 122.37222494 56.6875 124.5 C56.00042969 124.97050781 55.31335938 125.44101562 54.60546875 125.92578125 C49.26525568 129.24587869 44.94935342 130.3801802 38.6875 129.5 C35.6875 128.5 35.6875 128.5 33.6875 125.5 C33.2382074 120.55778145 33.54160631 118.27673253 36.6875 114.5 C33.42029209 110.11105071 30.13851522 105.74740335 26.6875 101.5 C26.3575 102.16 26.0275 102.82 25.6875 103.5 C25.0275 103.5 24.3675 103.5 23.6875 103.5 C23.44 104.03625 23.1925 104.5725 22.9375 105.125 C18.7087766 113.15957447 18.7087766 113.15957447 14.6875 114.5 C14.1925 115.985 14.1925 115.985 13.6875 117.5 C13.0275 117.5 12.3675 117.5 11.6875 117.5 C12.0175 118.16 12.3475 118.82 12.6875 119.5 C12.75700541 121.04023996 12.77202357 122.58334988 12.75 124.125 C12.74097656 124.94226563 12.73195313 125.75953125 12.72265625 126.6015625 C12.71105469 127.22804688 12.69945312 127.85453125 12.6875 128.5 C7.68234695 131.58009418 3.43098265 132.53401488 -2.3125 131.5 C-10.5130814 128.09883721 -10.5130814 128.09883721 -12.3125 124.5 C-12.98308266 121.33687426 -13.13512766 118.64285951 -12.3125 115.5 C-8.9127772 111.92290036 -5.16424835 109.64729816 -0.21875 109.25390625 C2.98092068 108.77393213 2.98092068 108.77393213 4.5859375 105.55859375 C5.07320313 104.36363281 5.56046875 103.16867187 6.0625 101.9375 C6.56523437 100.73996094 7.06796875 99.54242188 7.5859375 98.30859375 C7.94945312 97.38175781 8.31296875 96.45492187 8.6875 95.5 C9.3475 95.5 10.0075 95.5 10.6875 95.5 C10.6875 94.84 10.6875 94.18 10.6875 93.5 C9.23730469 93.44392578 9.23730469 93.44392578 7.7578125 93.38671875 C-12.77774793 92.34977461 -12.77774793 92.34977461 -20.3125 85.5 C-28.56458451 73.76462353 -32.68468735 57.7781657 -31.3125 43.5 C-30.33768592 40.55625452 -28.97144328 38.10691087 -27.3125 35.5 C-26.85875 34.5925 -26.405 33.685 -25.9375 32.75 C-23.80698062 29.80005009 -21.39993391 28.42236451 -18.3125 26.5 C-16.27236782 24.94336735 -14.25269477 23.36421071 -12.2421875 21.76953125 C-10.24675661 20.45674777 -8.64606982 19.93041399 -6.3125 19.5 C-6.34730469 18.54738281 -6.38210938 17.59476563 -6.41796875 16.61328125 C-6.44503906 15.35902344 -6.47210938 14.10476562 -6.5 12.8125 C-6.53480469 11.57113281 -6.56960938 10.32976562 -6.60546875 9.05078125 C-6.18339073 3.93519559 -5.34559056 0.80688159 0 0 Z " fill="#111111" transform="translate(468.3125,155.5)"/>
<path d="M0 0 C4.48035444 2.19944673 6.86312614 4.50131818 9 9 C9.35367418 10.32808263 9.69075297 11.66087523 10 13 C13.29164829 13.02895225 16.58326399 13.0467823 19.875 13.0625 C20.81214844 13.07087891 21.74929688 13.07925781 22.71484375 13.08789062 C23.61074219 13.09111328 24.50664063 13.09433594 25.4296875 13.09765625 C26.25710449 13.10289307 27.08452148 13.10812988 27.93701172 13.11352539 C30.06411757 13.13352138 30.06411757 13.13352138 32 12 C34.67279121 11.86251074 37.31764159 11.78740165 39.9921875 11.76171875 C40.82543549 11.75210617 41.65868347 11.74249359 42.5171814 11.73258972 C45.30316181 11.7074249 48.08891798 11.69521849 50.875 11.6875 C51.83063843 11.68421692 52.78627686 11.68093384 53.77087402 11.67755127 C70.65702422 11.65903958 87.41900271 12.55652682 104.25 13.875 C105.38177673 13.96204193 106.51355347 14.04908386 107.67962646 14.13876343 C110.91758477 14.3919673 114.15420922 14.65752937 117.390625 14.9296875 C118.34722015 15.00688522 119.30381531 15.08408295 120.28939819 15.16362 C125.71787683 15.64560135 130.74944789 16.53178152 136 18 C135.67 18.99 135.34 19.98 135 21 C134.31212402 20.86795166 133.62424805 20.73590332 132.91552734 20.59985352 C124.50181715 19.08076933 116.15409722 18.42258713 107.625 17.9375 C104.99191371 17.78398309 102.35925002 17.62524415 99.7265625 17.46484375 C98.00300537 17.36610962 98.00300537 17.36610962 96.24462891 17.26538086 C93 17 93 17 90.28729248 16.49050903 C86.55765267 15.93399572 82.91840564 15.86737673 79.15869141 15.88647461 C78.39703674 15.88632858 77.63538208 15.88618256 76.85064697 15.8860321 C74.35092246 15.88672482 71.85127388 15.89448701 69.3515625 15.90234375 C67.61135906 15.90421021 65.87115509 15.90563304 64.13095093 15.90663147 C59.56401097 15.91043869 54.99710311 15.92025358 50.43017578 15.93133545 C45.76465285 15.94158823 41.09912471 15.94613736 36.43359375 15.95117188 C27.28904844 15.96187753 18.1445269 15.9789323 9 16 C8.34 17.65 7.68 19.3 7 21 C6.01 21 5.02 21 4 21 C4.52268466 18.23723823 5.10869587 15.6739124 6 13 C4.54966646 8.22939414 4.54966646 8.22939414 1.18359375 4.79296875 C-1.27951058 3.89849616 -3.13856733 3.79819316 -5.75 3.875 C-6.94882812 3.90207031 -6.94882812 3.90207031 -8.171875 3.9296875 C-9.07679688 3.96449219 -9.07679688 3.96449219 -10 4 C-12.32221873 7.77360544 -12 9.01199411 -12 14 C-25.365 14.495 -25.365 14.495 -39 15 C-39 14.34 -39 13.68 -39 13 C-31.2441657 11.29005228 -23.93396732 10.75076542 -16 11 C-15.938125 10.113125 -15.87625 9.22625 -15.8125 8.3125 C-13.72889774 -0.18218612 -7.74976775 -1.34130596 0 0 Z " fill="#101010" transform="translate(523,156)"/>
<path d="M0 0 C18.50993732 -0.67327696 36.80197348 0.45572494 55.25 1.875 C56.40995483 1.96213257 57.56990967 2.04926514 58.76501465 2.13903809 C62.12015858 2.39366267 65.474213 2.6593606 68.828125 2.9296875 C69.83556763 3.00688019 70.84301025 3.08407288 71.88098145 3.16360474 C77.45741268 3.63220496 82.61241322 4.47742113 88 6 C87.67 6.99 87.34 7.98 87 9 C86.30342285 8.86722656 85.6068457 8.73445312 84.88916016 8.59765625 C76.72647311 7.12936395 68.64894422 6.46483427 60.375 6 C52.18176522 5.51051424 44.01846176 4.98985557 35.875 3.9375 C23.6600328 2.38215948 11.29597222 2.32323244 -1 2 C-0.67 1.34 -0.34 0.68 0 0 Z " fill="#101010" transform="translate(571,168)"/>
<path d="M0 0 C1.875 1.125 1.875 1.125 3 3 C3.25292101 5.97182182 3.3175425 8.21835693 2.1875 11 C2.125625 11.66 2.06375 12.32 2 13 C3.19457521 14.36522881 4.38947057 15.73017875 5.5859375 17.09375 C13.14660259 27.2860278 11.41539519 41.03022793 11 53 C10.01 53 9.02 53 8 53 C7.98018066 52.35450195 7.96036133 51.70900391 7.93994141 51.04394531 C7.84453672 48.11222779 7.73492029 45.18120768 7.625 42.25 C7.5940625 41.23421875 7.563125 40.2184375 7.53125 39.171875 C7.49257813 38.1921875 7.45390625 37.2125 7.4140625 36.203125 C7.36693115 34.85202637 7.36693115 34.85202637 7.31884766 33.47363281 C6.98631193 30.89380738 6.25782803 29.25284457 5 27 C4.67384717 25.67468058 4.38158515 24.34052649 4.125 23 C3.26849067 19.28385467 1.91445101 17.52585754 -1 15 C-1 14.34 -1 13.68 -1 13 C-1.66 13 -2.32 13 -3 13 C-2.67 12.278125 -2.34 11.55625 -2 10.8125 C-0.99396471 7.98302573 -0.83022598 5.97104534 -1 3 C-3.40877257 3.11341534 -3.40877257 3.11341534 -6 4 C-7.69882448 6.49759982 -7.69882448 6.49759982 -9 9 C-9.66 9 -10.32 9 -11 9 C-10.67 7.02 -10.34 5.04 -10 3 C-9.34 3 -8.68 3 -8 3 C-8 2.34 -8 1.68 -8 1 C-5.20129973 -0.39935013 -3.09501208 -0.25265405 0 0 Z " fill="#2C2C2C" transform="translate(671,168)"/>
<path d="M0 0 C1.26328125 0.02707031 2.5265625 0.05414063 3.828125 0.08203125 C4.79234375 0.11683594 5.7565625 0.15164062 6.75 0.1875 C6.75 0.8475 6.75 1.5075 6.75 2.1875 C5.94175781 2.20167969 5.13351562 2.21585938 4.30078125 2.23046875 C-2.41712918 2.51703359 -2.41712918 2.51703359 -8.5 5.125 C-10.92356313 9.36623547 -11.51454039 13.42687736 -10.25 18.1875 C-7.52017388 21.86366584 -6.01950539 23.0431679 -1.48046875 23.89453125 C-0.13365134 23.95365982 1.21443526 23.98838987 2.5625 24 C3.25537109 24.02513672 3.94824219 24.05027344 4.66210938 24.07617188 C6.35747122 24.13463263 8.05379287 24.16403047 9.75 24.1875 C9.42 25.1775 9.09 26.1675 8.75 27.1875 C6.18508544 27.12721999 3.62578243 27.04012053 1.0625 26.9375 C0.34126953 26.92332031 -0.37996094 26.90914062 -1.12304688 26.89453125 C-5.98095737 26.67270885 -8.79623567 25.92056283 -12.25 22.1875 C-12.25 21.1975 -12.25 20.2075 -12.25 19.1875 C-12.91 19.1875 -13.57 19.1875 -14.25 19.1875 C-14.25 15.8875 -14.25 12.5875 -14.25 9.1875 C-13.59 9.1875 -12.93 9.1875 -12.25 9.1875 C-12.1675 8.259375 -12.085 7.33125 -12 6.375 C-11.25 3.1875 -11.25 3.1875 -9.65625 1.5 C-6.33614668 -0.31096545 -3.75491376 -0.10430316 0 0 Z " fill="#282828" transform="translate(475.25,192.8125)"/>
<path d="M0 0 C2.203125 0.55078125 2.203125 0.55078125 5.890625 1.86328125 C5.890625 2.19328125 5.890625 2.52328125 5.890625 2.86328125 C4.611875 2.94578125 3.333125 3.02828125 2.015625 3.11328125 C-1.23604955 3.4512031 -1.23604955 3.4512031 -3.609375 5.55078125 C-4.32070779 8.44637264 -4.32070779 8.44637264 -4.109375 13.86328125 C-17.474375 14.35828125 -17.474375 14.35828125 -31.109375 14.86328125 C-31.109375 14.20328125 -31.109375 13.54328125 -31.109375 12.86328125 C-23.3535407 11.15333353 -16.04334232 10.61404667 -8.109375 10.86328125 C-8.0475 9.97640625 -7.985625 9.08953125 -7.921875 8.17578125 C-6.88084879 3.93159746 -5.02664272 -0.32580092 0 0 Z " fill="#1A1A1A" transform="translate(515.109375,156.13671875)"/>
<path d="M0 0 C0.66 0.33 1.32 0.66 2 1 C1.525625 1.61875 1.05125 2.2375 0.5625 2.875 C-1.02417441 4.90705546 -1.02417441 4.90705546 -2 7 C-2.66 7 -3.32 7 -4 7 C-4 7.66 -4 8.32 -4 9 C-4.763125 9.721875 -5.52625 10.44375 -6.3125 11.1875 C-12.93226141 18.11515729 -12.63034271 25.80955484 -13 35 C-15.30953344 33.20505757 -15.95096377 32.29819329 -16.43359375 29.36328125 C-16.44240446 22.4821132 -15.6954876 17.8071948 -12 12 C-11.54625 11.0925 -11.0925 10.185 -10.625 9.25 C-8.52258523 6.33896416 -6.02685872 4.8917867 -3 3 C-1.20605554 1.37648891 -1.20605554 1.37648891 0 0 Z " fill="#1B1B1B" transform="translate(453,179)"/>
<path d="M0 0 C0.74507812 0.00902344 1.49015625 0.01804688 2.2578125 0.02734375 C4.08868059 0.05081642 5.91938238 0.08668475 7.75 0.125 C7.75 0.455 7.75 0.785 7.75 1.125 C21.115 1.62 21.115 1.62 34.75 2.125 C34.75 2.455 34.75 2.785 34.75 3.125 C28.70758757 3.27045116 22.66511013 3.41269306 16.62255859 3.55224609 C14.57664056 3.59991486 12.53074106 3.64838779 10.48486328 3.69775391 C-3.09641529 4.02477241 -16.6647692 4.1924577 -30.25 4.125 C-30.25 3.795 -30.25 3.465 -30.25 3.125 C-28.99703125 3.07601562 -27.7440625 3.02703125 -26.453125 2.9765625 C-24.80206179 2.90151417 -23.15102119 2.82596723 -21.5 2.75 C-20.675 2.7190625 -19.85 2.688125 -19 2.65625 C-18.20078125 2.61757812 -17.4015625 2.57890625 -16.578125 2.5390625 C-15.47839355 2.49193115 -15.47839355 2.49193115 -14.35644531 2.44384766 C-12.1940689 2.22725505 -12.1940689 2.22725505 -10.22265625 1.11132812 C-6.99053464 -0.50473268 -3.53275345 -0.08114098 0 0 Z " fill="#3E3E3E" transform="translate(563.25,167.875)"/>
<path d="M0 0 C1.32 0.33 2.64 0.66 4 1 C2.53743342 5.1363211 0.48155363 8.45421154 -2 12.0625 C-4.78299246 16.02790813 -4.78299246 16.02790813 -6.9609375 20.32421875 C-8 22 -8 22 -10.1640625 22.609375 C-10.97617187 22.65578125 -11.78828125 22.7021875 -12.625 22.75 C-13.44226563 22.80671875 -14.25953125 22.8634375 -15.1015625 22.921875 C-15.72804688 22.94765625 -16.35453125 22.9734375 -17 23 C-17.268125 23.94875 -17.53625 24.8975 -17.8125 25.875 C-19 29 -19 29 -22 31 C-22.41454364 26.77165483 -22.46495343 24.66837056 -20 21.125 C-17 19 -17 19 -13.1875 19 C-11.06074124 19.0130238 -11.06074124 19.0130238 -9 18 C-5.80970231 13.92942685 -3.4399755 9.54774776 -1 5 C-0.34 4.01 0.32 3.02 1 2 C0.67 1.34 0.34 0.68 0 0 Z " fill="#1D1D1D" transform="translate(613,246)"/>
<path d="M0 0 C0.99 0 1.98 0 3 0 C3.125 6.625 3.125 6.625 2 10 C-0.31 10.33 -2.62 10.66 -5 11 C-7.09350689 7.5980513 -7.17942163 4.94727588 -7 1 C-6.01 1 -5.02 1 -4 1 C-3.67 2.98 -3.34 4.96 -3 7 C-2.34 7 -1.68 7 -1 7 C-0.67 4.69 -0.34 2.38 0 0 Z " fill="#1C1C1C" transform="translate(595,215)"/>
<path d="M0 0 C0.99 0 1.98 0 3 0 C3.66 2.31 4.32 4.62 5 7 C5 5.02 5 3.04 5 1 C6.32 1 7.64 1 9 1 C9.25 7.625 9.25 7.625 7 11 C4.625 10.6875 4.625 10.6875 2 10 C-0.4294516 6.3558226 -0.16179575 4.28758728 0 0 Z " fill="#1B1B1B" transform="translate(535,188)"/>
<path d="M0 0 C1.06571651 3.19714952 1 5.65915058 1 9 C1.33 9.33 1.66 9.66 2 10 C2.04080783 11.99958364 2.04254356 14.00045254 2 16 C0.948125 16.2475 -0.10375 16.495 -1.1875 16.75 C-4.8133541 17.76700786 -7.19910772 19.45373429 -10 22 C-10.66 21.67 -11.32 21.34 -12 21 C-8.66437233 16.48709197 -6.66710699 14.31793186 -1 13 C-1.01160156 12.14535156 -1.02320313 11.29070312 -1.03515625 10.41015625 C-1.04417969 9.30542969 -1.05320312 8.20070312 -1.0625 7.0625 C-1.07410156 5.96035156 -1.08570313 4.85820312 -1.09765625 3.72265625 C-1 1 -1 1 0 0 Z " fill="#0A0A0A" transform="translate(463,162)"/>
<path d="M0 0 C0.99 0 1.98 0 3 0 C3.25 6.625 3.25 6.625 1 10 C-0.65 9.67 -2.3 9.34 -4 9 C-4.33 6.69 -4.66 4.38 -5 2 C-4.01 2.33 -3.02 2.66 -2 3 C-2 3.99 -2 4.98 -2 6 C-1.34 6 -0.68 6 0 6 C0 4.02 0 2.04 0 0 Z " fill="#1C1C1C" transform="translate(526,199)"/>
<path d="M0 0 C0.99 0 1.98 0 3 0 C3.33 1.65 3.66 3.3 4 5 C4.66 4.67 5.32 4.34 6 4 C6.33 3.01 6.66 2.02 7 1 C7.66 1 8.32 1 9 1 C8.25 5.75 8.25 5.75 6 8 C3.375 7.625 3.375 7.625 1 7 C0.67 4.69 0.34 2.38 0 0 Z " fill="#242424" transform="translate(659,221)"/>
<path d="M0 0 C0.99 0.33 1.98 0.66 3 1 C3.33 2.65 3.66 4.3 4 6 C6.51083114 4.74458443 6.87125446 3.49936512 8 1 C8.625 3.3125 8.625 3.3125 9 6 C8.01 7.485 8.01 7.485 7 9 C4.625 8.6875 4.625 8.6875 2 8 C-0.1519437 4.77208445 -0.20086443 3.71599191 0 0 Z " fill="#242424" transform="translate(623,189)"/>
<path d="M0 0 C1.98567708 0.5859375 3.97135417 1.171875 5.95703125 1.7578125 C5.95703125 2.0878125 5.95703125 2.4178125 5.95703125 2.7578125 C4.67828125 2.8815625 3.39953125 3.0053125 2.08203125 3.1328125 C-1.39087811 3.44823649 -1.39087811 3.44823649 -4.04296875 5.7578125 C-5.03296875 6.0878125 -6.02296875 6.4178125 -7.04296875 6.7578125 C-4.54669215 -0.53899601 -4.54669215 -0.53899601 0 0 Z " fill="#343434" transform="translate(515.04296875,156.2421875)"/>
<path d="M0 0 C-2.54456151 2.96865509 -5.48994665 4.3619751 -9 6 C-8.8125 4.1875 -8.8125 4.1875 -8 2 C-3.744 -1.248 -3.744 -1.248 0 0 Z " fill="#212121" transform="translate(468,266)"/>
<path d="M0 0 C4.70588235 0.70588235 4.70588235 0.70588235 6 2 C6.04063832 3.66617115 6.042721 5.33388095 6 7 C5.01 7.495 5.01 7.495 4 8 C3.9175 7.21625 3.835 6.4325 3.75 5.625 C3.27193661 2.85250896 3.27193661 2.85250896 0.9375 1.6875 C0.298125 1.460625 -0.34125 1.23375 -1 1 C-0.67 0.67 -0.34 0.34 0 0 Z " fill="#060606" transform="translate(667,168)"/>
<path d="M0 0 C2.0625 2.25 2.0625 2.25 4 5 C3.75 7.3125 3.75 7.3125 3 9 C2.34 8.67 1.68 8.34 1 8 C0.40644386 5.35139573 0.25790731 2.70802678 0 0 Z " fill="#161616" transform="translate(677,191)"/>
<path d="M0 0 C0.33 0 0.66 0 1 0 C1.25 5.625 1.25 5.625 -1 9 C-1.99 9 -2.98 9 -4 9 C-3.625 7.0625 -3.625 7.0625 -3 5 C-2.34 4.67 -1.68 4.34 -1 4 C-0.34786708 1.97536745 -0.34786708 1.97536745 0 0 Z " fill="#191919" transform="translate(673,171)"/>
<path d="M0 0 C0.66 0 1.32 0 2 0 C1.67 1.65 1.34 3.3 1 5 C-0.98 5 -2.96 5 -5 5 C-4 3 -4 3 -1 2 C-0.67 1.34 -0.34 0.68 0 0 Z " fill="#181818" transform="translate(472,262)"/>
<path d="M0 0 C0.66 0.33 1.32 0.66 2 1 C1.34 3.31 0.68 5.62 0 8 C-0.99 7.67 -1.98 7.34 -3 7 C-1.125 1.125 -1.125 1.125 0 0 Z " fill="#353535" transform="translate(465,156)"/>
<path d="M0 0 C1.32 0 2.64 0 4 0 C4 2.31 4 4.62 4 7 C1 5 1 5 0.3125 2.375 C0.209375 1.59125 0.10625 0.8075 0 0 Z " fill="#2A2A2A" transform="translate(540,189)"/>
</svg>
