<?xml version="1.0" encoding="UTF-8"?>
<svg version="1.1" xmlns="http://www.w3.org/2000/svg" width="800" height="300">
<path d="M0 0 C264 0 528 0 800 0 C800 99 800 198 800 300 C536 300 272 300 0 300 C0 201 0 102 0 0 Z " fill="#FEFEFE" transform="translate(0,0)"/>
<path d="M0 0 C0.33 0 0.66 0 1 0 C1 33.99 1 67.98 1 103 C-3.41529789 103.73588298 -6.98267011 104.11130367 -11.375 104.0625 C-12.96441406 104.04896484 -12.96441406 104.04896484 -14.5859375 104.03515625 C-15.78089844 104.01775391 -15.78089844 104.01775391 -17 104 C-16.95166016 105.18142578 -16.95166016 105.18142578 -16.90234375 106.38671875 C-17 109 -17 109 -18.5625 110.8125 C-22.00570514 112.48995891 -24.20740642 112.52311636 -28 112 C-30.97046873 110.20976215 -33.42502414 108.14995172 -35 105 C-35.04003069 99.57984419 -34.83046319 94.59941058 -32.3125 89.75 C-30 88 -30 88 -26.9375 87.5625 C-24 88 -24 88 -21 90 C-17.87478167 90.16699232 -17.87478167 90.16699232 -15 90 C-15.72445312 89.58492188 -16.44890625 89.16984375 -17.1953125 88.7421875 C-24.70006872 83.9591562 -29.24901998 78.97977733 -31.57519531 70.234375 C-34.11582969 56.87122224 -33.43378169 40.69781812 -26.125 29 C-21.31597162 22.45830698 -14.88471281 18.2211782 -7 16.25 C-6.34 16.1675 -5.68 16.085 -5 16 C-5.12375 14.515 -5.12375 14.515 -5.25 13 C-5.27825307 8.38533109 -3.35366383 4.87551072 -1 1 C-0.67 0.67 -0.34 0.34 0 0 Z " fill="#F7F7F7" transform="translate(799,156)"/>
<path d="M0 0 C0.6875 1.625 0.6875 1.625 1 4 C0.54625 4.886875 0.0925 5.77375 -0.375 6.6875 C-2.3931063 10.80133207 -2.70859368 14.47817774 -3 19 C-3.61746094 19.13535156 -4.23492188 19.27070313 -4.87109375 19.41015625 C-13.53242135 21.61174181 -20.26689093 25.56333805 -24.9375 33.375 C-28.78182672 40.51249549 -29.36209402 48.60596464 -29.375 56.5625 C-29.39949219 57.36107422 -29.42398438 58.15964844 -29.44921875 58.98242188 C-29.47821092 64.91132012 -28.04265662 68.95226484 -25 74 C-24.1028125 75.546875 -24.1028125 75.546875 -23.1875 77.125 C-18.09019669 83.82431292 -13.23092205 87.06755568 -4.78125 88.33203125 C-2.85803969 88.58597627 -0.92924471 88.79692161 1 89 C1 93.62 1 98.24 1 103 C-3.41529789 103.73588298 -6.98267011 104.11130367 -11.375 104.0625 C-12.96441406 104.04896484 -12.96441406 104.04896484 -14.5859375 104.03515625 C-15.78089844 104.01775391 -15.78089844 104.01775391 -17 104 C-16.95166016 105.18142578 -16.95166016 105.18142578 -16.90234375 106.38671875 C-17 109 -17 109 -18.5625 110.8125 C-22.00570514 112.48995891 -24.20740642 112.52311636 -28 112 C-30.97046873 110.20976215 -33.42502414 108.14995172 -35 105 C-35.04003069 99.57984419 -34.83046319 94.59941058 -32.3125 89.75 C-30 88 -30 88 -26.9375 87.5625 C-24 88 -24 88 -21 90 C-17.87478167 90.16699232 -17.87478167 90.16699232 -15 90 C-15.72445312 89.58492188 -16.44890625 89.16984375 -17.1953125 88.7421875 C-24.70006872 83.9591562 -29.24901998 78.97977733 -31.57519531 70.234375 C-34.11582969 56.87122224 -33.43378169 40.69781812 -26.125 29 C-21.31597162 22.45830698 -14.88471281 18.2211782 -7 16.25 C-6.34 16.1675 -5.68 16.085 -5 16 C-5.12375 14.515 -5.12375 14.515 -5.25 13 C-5.27825307 8.38533109 -3.35366383 4.87551072 -1 1 C-0.67 0.67 -0.34 0.34 0 0 Z " fill="#0F0F0F" transform="translate(799,156)"/>
<path d="M0 0 C2.4375 -0.375 2.4375 -0.375 5 0 C5.45632813 0.50917969 5.91265625 1.01835937 6.3828125 1.54296875 C7.89251064 3.21673507 7.89251064 3.21673507 10.05859375 3.07421875 C10.84363281 2.94660156 11.62867188 2.81898438 12.4375 2.6875 C18.31173881 1.88922826 24.0810159 1.90846932 30 2 C30 3.98 30 5.96 30 8 C23.33042073 9.64006048 16.84817102 10.51358785 10 11 C10.04125 11.78375 10.0825 12.5675 10.125 13.375 C10 16 10 16 8 18 C4.24036658 18.50128446 2.4657499 18.27944994 -0.8125 16.3125 C-3.29643153 13.68662953 -3.91462034 12.58594572 -4 9 C-3.07862416 5.45624677 -2.03834861 3.05752291 0 0 Z " fill="#F5F5F5" transform="translate(770,247)"/>
<path d="M0 0 C0 6.27 0 12.54 0 19 C-5.58831095 16.76467562 -6.03979237 16.07195623 -8.265625 11.02734375 C-9.21542262 8.40529606 -9.6847489 6.7389956 -9 4 C-5.79364489 0.70457948 -4.69279787 0 0 0 Z " fill="#F3F3F3" transform="translate(800,196)"/>
<path d="M0 0 C0 0.99 0 1.98 0 3 C-1.7015625 3.7115625 -1.7015625 3.7115625 -3.4375 4.4375 C-6.75740166 5.63622083 -6.75740166 5.63622083 -8 7 C-7.6600035 12.09994748 -7.26766949 15.88515694 -4 20 C-1.93299345 21.32793606 -1.93299345 21.32793606 0 22 C0 22.99 0 23.98 0 25 C-4.2726657 24.52525937 -6.273802 22.15665032 -9 19 C-11.48095113 14.74694091 -11.90748448 9.80697225 -11 5 C-7.48390996 1.29885259 -5.08162069 0 0 0 Z " fill="#0A0A0A" transform="translate(800,193)"/>
<path d="M0 0 C0.66 0 1.32 0 2 0 C1.125 6.875 1.125 6.875 0 8 C-1.66617115 8.04063832 -3.33388095 8.042721 -5 8 C-5.33 6.02 -5.66 4.04 -6 2 C-5.01 2 -4.02 2 -3 2 C-3 2.99 -3 3.98 -3 5 C-2.34 4.67 -1.68 4.34 -1 4 C-0.34786708 1.97536745 -0.34786708 1.97536745 0 0 Z " fill="#000000" transform="translate(778,206)"/>
<path d="M0 0 C0 1.32 0 2.64 0 4 C-3.3 4 -6.6 4 -10 4 C-9.67 3.01 -9.34 2.02 -9 1 C-2.25 0 -2.25 0 0 0 Z " fill="#252525" transform="translate(800,255)"/>
<path d="M0 0 C0.33 0 0.66 0 1 0 C0.67 3.3 0.34 6.6 0 10 C-0.66 9.67 -1.32 9.34 -2 9 C-1.125 1.125 -1.125 1.125 0 0 Z " fill="#020202" transform="translate(770,193)"/>
<path d="M0 0 C1.98 0 3.96 0 6 0 C6 0.99 6 1.98 6 3 C4.35 3 2.7 3 1 3 C0.67 2.01 0.34 1.02 0 0 Z " fill="#151515" transform="translate(794,228)"/>
</svg>
