<?xml version="1.0" encoding="UTF-8"?>
<svg version="1.1" xmlns="http://www.w3.org/2000/svg" width="800" height="300">
<path d="M0 0 C264 0 528 0 800 0 C800 99 800 198 800 300 C536 300 272 300 0 300 C0 201 0 102 0 0 Z " fill="#FEFEFE" transform="translate(0,0)"/>
<path d="M0 0 C4.17103079 2.52201862 6.72858881 5.70955665 9 10 C9 12.31 9 14.62 9 17 C46.29 17 83.58 17 122 17 C122.66 13.7 123.32 10.4 124 7 C125.57897833 5.42102167 127.19362572 5.75456491 129.375 5.6875 C133.6974418 5.75600145 133.6974418 5.75600145 135.9375 7.5625 C137.9142661 12.09743399 139 16.03872889 139 21 C139.99 21 140.98 21 142 21 C142 21.66 142 22.32 142 23 C142.66386719 23.21914062 143.32773437 23.43828125 144.01171875 23.6640625 C150.97390741 26.16435215 154.70149912 28.7064307 158.18359375 35.2109375 C161.2367983 42.41607766 161.38750478 49.44823947 161.4375 57.1875 C161.4475708 58.2089209 161.4576416 59.2303418 161.46801758 60.28271484 C161.38119234 67.87530467 160.6287695 74.8028479 155.6875 80.8125 C149.3623243 85.96089882 143.30737059 88.57356121 135.625 91.25 C134.60277344 91.61351562 133.58054687 91.97703125 132.52734375 92.3515625 C130.02073448 93.24176018 127.51170722 94.12431217 125 95 C125.63421875 95.29390625 126.2684375 95.5878125 126.921875 95.890625 C129.53905073 97.28776392 130.06751322 98.20253966 131 101 C131.125 104.25 131.125 104.25 131 107 C132.918125 107.185625 132.918125 107.185625 134.875 107.375 C138.75 107.75 138.75 107.75 141 110 C140.8826127 116.10413985 139.21471796 118.88107109 135 123 C130.91767838 125.15455863 127.79821769 125.11453854 123.25 124.6875 C122.10015625 124.58824219 120.9503125 124.48898437 119.765625 124.38671875 C117 124 117 124 116 123 C115.875 119.5 115.875 119.5 116 116 C116.33 115.67 116.66 115.34 117 115 C117.50070321 111.62642666 117.50070321 111.62642666 117 108 C114.34609365 105.20832756 112.81118009 104.07595101 108.94140625 103.71362305 C107.82636719 103.81199463 106.71132813 103.91036621 105.5625 104.01171875 C104.33789062 104.11033203 103.11328125 104.20894531 101.8515625 104.31054688 C100.58054687 104.43494141 99.30953125 104.55933594 98 104.6875 C96.72898437 104.79255859 95.45796875 104.89761719 94.1484375 105.00585938 C89.03320183 105.44469275 84.02137376 105.9042044 79 107 C79 107.66 79 108.32 79 109 C79.66 109.33 80.32 109.66 81 110 C81.08114106 111.77007714 81.13925505 113.54122098 81.1875 115.3125 C81.22230469 116.29863281 81.25710938 117.28476562 81.29296875 118.30078125 C81 121 81 121 79.67578125 122.79296875 C75.14058321 126.05957992 69.31809039 125.51514266 64 125 C60.3125 123.5625 60.3125 123.5625 58 121 C57.06052529 116.73255554 57.54444928 113.16418517 59.125 109.125 C61 107 61 107 64 105.625 C67.97467761 103.47204963 68.41046281 101.11576595 70 97 C68.69554932 97.06058594 67.39109863 97.12117188 66.04711914 97.18359375 C61.12509326 97.41115292 56.20284384 97.63353426 51.28051758 97.85449219 C49.16554618 97.950124 47.05063457 98.04708923 44.93579102 98.14550781 C32.2809807 98.73340609 19.66915418 99.15504021 7 99 C7.49113281 99.76699219 7.98226562 100.53398437 8.48828125 101.32421875 C10.12150505 104.21506708 10.27889792 105.7461909 10 109 C10.928125 108.938125 11.85625 108.87625 12.8125 108.8125 C16 109 16 109 17.875 110.1875 C19.44442256 112.71601412 19.48921715 114.0646971 19 117 C16.50143258 120.97919996 14.42217327 122.58692323 10 124 C6.9921875 124.30078125 6.9921875 124.30078125 3.875 124.3125 C2.84117187 124.32925781 1.80734375 124.34601563 0.7421875 124.36328125 C-2 124 -2 124 -3.8515625 122.7265625 C-6.18101264 119.22446398 -5.29191844 114.45959222 -4.5 110.5 C-4.335 110.005 -4.17 109.51 -4 109 C-8.09440713 107.03166451 -11.22670248 106.81180336 -15.7421875 106.98828125 C-17.05703125 107.03533203 -18.371875 107.08238281 -19.7265625 107.13085938 C-21.10937838 107.19132905 -22.49219087 107.25187614 -23.875 107.3125 C-25.21871532 107.36227324 -26.56246573 107.41110879 -27.90625 107.45898438 C-31.25734542 107.58290895 -34.60623008 107.73658133 -37.95544434 107.90338135 C-40.06400064 108.00302445 -42.172818 108.08229157 -44.28222656 108.16162109 C-45.64913175 108.22531642 -47.01599592 108.28989957 -48.3828125 108.35546875 C-49.60629395 108.40727295 -50.82977539 108.45907715 -52.09033203 108.51245117 C-53.05052246 108.67334229 -54.01071289 108.8342334 -55 109 C-55.66 109.99 -56.32 110.98 -57 112 C-55.7934375 112.4640625 -55.7934375 112.4640625 -54.5625 112.9375 C-52 114 -52 114 -51 115 C-51.25 118.4375 -51.25 118.4375 -52 122 C-55.58228251 124.38818834 -57.72000481 124.59238141 -62 125 C-62.83789062 125.08894531 -63.67578125 125.17789063 -64.5390625 125.26953125 C-67.14663057 125.43490799 -69.42701132 125.46090058 -72 125 C-75.27915061 121.87699942 -76.2173685 119.22328303 -76.4375 114.8125 C-76 111 -76 111 -74.6875 109 C-73 108 -73 108 -70 108 C-69.95875 107.319375 -69.9175 106.63875 -69.875 105.9375 C-68.62612319 101.74484213 -65.95973269 99.1407561 -63 96 C-64.051875 95.62875 -64.051875 95.62875 -65.125 95.25 C-72.20965108 92.16971692 -77.72856242 87.64839902 -81.14038086 80.66625977 C-84.00002014 73.31950496 -84.58011966 66.83948053 -84.4375 59 C-84.44458984 57.90171875 -84.45167969 56.8034375 -84.45898438 55.671875 C-84.39482861 47.34149544 -83.60880653 39.33641619 -79.2421875 32.078125 C-76.44696785 29.48743362 -73.44200797 27.58104474 -70.125 25.75 C-69.52558594 25.399375 -68.92617187 25.04875 -68.30859375 24.6875 C-64.55346357 22.56963916 -61.28407463 21.44543895 -57 21 C-57.02320313 20.26394531 -57.04640625 19.52789062 -57.0703125 18.76953125 C-57.08835938 17.79371094 -57.10640625 16.81789062 -57.125 15.8125 C-57.14820313 14.84957031 -57.17140625 13.88664063 -57.1953125 12.89453125 C-56.9885874 9.83086526 -56.3884844 7.72892436 -55 5 C-51.12383883 2.6743033 -47.44068988 2.59630092 -43 3 C-39.86350209 4.52586385 -39.1467716 5.66242532 -37.75 8.875 C-37.0590235 11.75406876 -36.94031614 14.06554356 -37 17 C-36.45214844 16.9278125 -35.90429688 16.855625 -35.33984375 16.78125 C-27.54010957 15.86811039 -19.84198809 15.90589614 -12 16 C-12.05800781 15.26394531 -12.11601562 14.52789062 -12.17578125 13.76953125 C-12.54247926 5.83837705 -12.54247926 5.83837705 -9.9375 1.8125 C-6.22994331 -0.47514136 -4.28868719 -0.6892533 0 0 Z " fill="#FBFBFB" transform="translate(245,161)"/>
<path d="M0 0 C4.17103079 2.52201862 6.72858881 5.70955665 9 10 C9 12.31 9 14.62 9 17 C46.29 17 83.58 17 122 17 C122.66 13.7 123.32 10.4 124 7 C125.57897833 5.42102167 127.19362572 5.75456491 129.375 5.6875 C133.6974418 5.75600145 133.6974418 5.75600145 135.9375 7.5625 C137.9142661 12.09743399 139 16.03872889 139 21 C139.99 21 140.98 21 142 21 C142 21.66 142 22.32 142 23 C142.66386719 23.21914062 143.32773437 23.43828125 144.01171875 23.6640625 C150.97390741 26.16435215 154.70149912 28.7064307 158.18359375 35.2109375 C161.2367983 42.41607766 161.38750478 49.44823947 161.4375 57.1875 C161.4475708 58.2089209 161.4576416 59.2303418 161.46801758 60.28271484 C161.38119234 67.87530467 160.6287695 74.8028479 155.6875 80.8125 C149.3623243 85.96089882 143.30737059 88.57356121 135.625 91.25 C134.60277344 91.61351562 133.58054687 91.97703125 132.52734375 92.3515625 C130.02073448 93.24176018 127.51170722 94.12431217 125 95 C125.63421875 95.29390625 126.2684375 95.5878125 126.921875 95.890625 C129.53905073 97.28776392 130.06751322 98.20253966 131 101 C131.125 104.25 131.125 104.25 131 107 C132.918125 107.185625 132.918125 107.185625 134.875 107.375 C138.75 107.75 138.75 107.75 141 110 C140.8826127 116.10413985 139.21471796 118.88107109 135 123 C130.91767838 125.15455863 127.79821769 125.11453854 123.25 124.6875 C122.10015625 124.58824219 120.9503125 124.48898437 119.765625 124.38671875 C117 124 117 124 116 123 C115.875 119.5 115.875 119.5 116 116 C116.33 115.67 116.66 115.34 117 115 C117.50070321 111.62642666 117.50070321 111.62642666 117 108 C114.34609365 105.20832756 112.81118009 104.07595101 108.94140625 103.71362305 C107.82636719 103.81199463 106.71132813 103.91036621 105.5625 104.01171875 C104.33789062 104.11033203 103.11328125 104.20894531 101.8515625 104.31054688 C100.58054687 104.43494141 99.30953125 104.55933594 98 104.6875 C96.72898437 104.79255859 95.45796875 104.89761719 94.1484375 105.00585938 C89.03320183 105.44469275 84.02137376 105.9042044 79 107 C79 107.66 79 108.32 79 109 C79.66 109.33 80.32 109.66 81 110 C81.08114106 111.77007714 81.13925505 113.54122098 81.1875 115.3125 C81.22230469 116.29863281 81.25710938 117.28476562 81.29296875 118.30078125 C81 121 81 121 79.67578125 122.79296875 C75.14058321 126.05957992 69.31809039 125.51514266 64 125 C60.3125 123.5625 60.3125 123.5625 58 121 C57.06052529 116.73255554 57.54444928 113.16418517 59.125 109.125 C61 107 61 107 64 105.625 C67.97467761 103.47204963 68.41046281 101.11576595 70 97 C68.69554932 97.06058594 67.39109863 97.12117188 66.04711914 97.18359375 C61.12509326 97.41115292 56.20284384 97.63353426 51.28051758 97.85449219 C49.16554618 97.950124 47.05063457 98.04708923 44.93579102 98.14550781 C32.2809807 98.73340609 19.66915418 99.15504021 7 99 C7.49113281 99.76699219 7.98226562 100.53398437 8.48828125 101.32421875 C10.12150505 104.21506708 10.27889792 105.7461909 10 109 C10.928125 108.938125 11.85625 108.87625 12.8125 108.8125 C16 109 16 109 17.875 110.1875 C19.44442256 112.71601412 19.48921715 114.0646971 19 117 C16.50143258 120.97919996 14.42217327 122.58692323 10 124 C6.9921875 124.30078125 6.9921875 124.30078125 3.875 124.3125 C2.84117187 124.32925781 1.80734375 124.34601563 0.7421875 124.36328125 C-2 124 -2 124 -3.8515625 122.7265625 C-6.18101264 119.22446398 -5.29191844 114.45959222 -4.5 110.5 C-4.335 110.005 -4.17 109.51 -4 109 C-8.09440713 107.03166451 -11.22670248 106.81180336 -15.7421875 106.98828125 C-17.05703125 107.03533203 -18.371875 107.08238281 -19.7265625 107.13085938 C-21.10937838 107.19132905 -22.49219087 107.25187614 -23.875 107.3125 C-25.21871532 107.36227324 -26.56246573 107.41110879 -27.90625 107.45898438 C-31.25734542 107.58290895 -34.60623008 107.73658133 -37.95544434 107.90338135 C-40.06400064 108.00302445 -42.172818 108.08229157 -44.28222656 108.16162109 C-45.64913175 108.22531642 -47.01599592 108.28989957 -48.3828125 108.35546875 C-49.60629395 108.40727295 -50.82977539 108.45907715 -52.09033203 108.51245117 C-53.05052246 108.67334229 -54.01071289 108.8342334 -55 109 C-55.66 109.99 -56.32 110.98 -57 112 C-55.7934375 112.4640625 -55.7934375 112.4640625 -54.5625 112.9375 C-52 114 -52 114 -51 115 C-51.25 118.4375 -51.25 118.4375 -52 122 C-55.58228251 124.38818834 -57.72000481 124.59238141 -62 125 C-62.83789062 125.08894531 -63.67578125 125.17789063 -64.5390625 125.26953125 C-67.14663057 125.43490799 -69.42701132 125.46090058 -72 125 C-75.27915061 121.87699942 -76.2173685 119.22328303 -76.4375 114.8125 C-76 111 -76 111 -74.6875 109 C-73 108 -73 108 -70 108 C-69.95875 107.319375 -69.9175 106.63875 -69.875 105.9375 C-68.62612319 101.74484213 -65.95973269 99.1407561 -63 96 C-64.051875 95.62875 -64.051875 95.62875 -65.125 95.25 C-72.20965108 92.16971692 -77.72856242 87.64839902 -81.14038086 80.66625977 C-84.00002014 73.31950496 -84.58011966 66.83948053 -84.4375 59 C-84.44458984 57.90171875 -84.45167969 56.8034375 -84.45898438 55.671875 C-84.39482861 47.34149544 -83.60880653 39.33641619 -79.2421875 32.078125 C-76.44696785 29.48743362 -73.44200797 27.58104474 -70.125 25.75 C-69.52558594 25.399375 -68.92617187 25.04875 -68.30859375 24.6875 C-64.55346357 22.56963916 -61.28407463 21.44543895 -57 21 C-57.02320313 20.26394531 -57.04640625 19.52789062 -57.0703125 18.76953125 C-57.08835938 17.79371094 -57.10640625 16.81789062 -57.125 15.8125 C-57.14820313 14.84957031 -57.17140625 13.88664063 -57.1953125 12.89453125 C-56.9885874 9.83086526 -56.3884844 7.72892436 -55 5 C-51.12383883 2.6743033 -47.44068988 2.59630092 -43 3 C-39.86350209 4.52586385 -39.1467716 5.66242532 -37.75 8.875 C-37.0590235 11.75406876 -36.94031614 14.06554356 -37 17 C-36.45214844 16.9278125 -35.90429688 16.855625 -35.33984375 16.78125 C-27.54010957 15.86811039 -19.84198809 15.90589614 -12 16 C-12.05800781 15.26394531 -12.11601562 14.52789062 -12.17578125 13.76953125 C-12.54247926 5.83837705 -12.54247926 5.83837705 -9.9375 1.8125 C-6.22994331 -0.47514136 -4.28868719 -0.6892533 0 0 Z M-10 7 C-10 10.63 -10 14.26 -10 18 C-25.84 18.495 -25.84 18.495 -42 19 C-42 18.34 -42 17.68 -42 17 C-41.01 17 -40.02 17 -39 17 C-39.28241641 15.53984709 -39.57626614 14.08190207 -39.875 12.625 C-40.03742188 11.81289062 -40.19984375 11.00078125 -40.3671875 10.1640625 C-40.86658932 7.81326077 -40.86658932 7.81326077 -43 6 C-48.17864961 5.47837391 -48.17864961 5.47837391 -52.9375 7.0625 C-55.38042388 11.51724354 -55.30823777 16.20312818 -54 21 C-56.8522169 22.87176734 -59.3642664 24.11932865 -62.625 25.1875 C-68.82254535 27.44222602 -75.50584487 31.43796614 -79.33203125 36.90234375 C-82.3448929 43.68499289 -82.21291944 50.92434467 -82.25 58.1875 C-82.270625 59.17814453 -82.29125 60.16878906 -82.3125 61.18945312 C-82.36732319 71.64012409 -80.52130987 79.39303973 -73.1875 87.0234375 C-70.04936741 89.85896445 -66.78560348 92.1185324 -63 94 C-62.2884375 94.35964844 -61.576875 94.71929687 -60.84375 95.08984375 C-56.81546392 96.37911663 -52.89400227 96.46563764 -48.6875 96.625 C-47.85154297 96.66367187 -47.01558594 96.70234375 -46.15429688 96.7421875 C-44.10320741 96.83595159 -42.05163485 96.91904245 -40 97 C-40 97.66 -40 98.32 -40 99 C-40.57967529 98.98428955 -41.15935059 98.9685791 -41.7565918 98.95239258 C-44.40012739 98.88977209 -47.04350655 98.85092482 -49.6875 98.8125 C-50.59951172 98.78736328 -51.51152344 98.76222656 -52.45117188 98.73632812 C-59.24060492 98.63628533 -59.24060492 98.63628533 -65 102 C-67.26937807 106.29228383 -67.26937807 106.29228383 -68 111 C-69.65 111 -71.3 111 -73 111 C-72.85892253 112.45880109 -72.71197585 113.91703551 -72.5625 115.375 C-72.48128906 116.18710937 -72.40007812 116.99921875 -72.31640625 117.8359375 C-72.10909886 120.04272805 -72.10909886 120.04272805 -71 122 C-68.91695462 122.05418326 -66.83350232 122.09287551 -64.75 122.125 C-63.58984375 122.14820313 -62.4296875 122.17140625 -61.234375 122.1953125 C-58.14783309 122.00892712 -56.48851839 121.78936323 -54 120 C-53.505 118.515 -53.505 118.515 -53 117 C-53.804375 116.67 -54.60875 116.34 -55.4375 116 C-58 114 -58 114 -58.5546875 112.01953125 C-58.7881295 110.02112624 -58.90116895 108.00956467 -59 106 C-49.84847651 105.09904386 -40.71280641 104.70147594 -31.52563477 104.44238281 C-29.17373098 104.37460319 -26.8222836 104.29686749 -24.47070312 104.21875 C-22.95314273 104.1738755 -21.43556496 104.12958387 -19.91796875 104.0859375 C-19.22616013 104.06203949 -18.5343515 104.03814148 -17.82157898 104.01351929 C-6.53568514 103.72570807 -6.53568514 103.72570807 -2.0625 107.4375 C0 110 0 110 0 112 C-0.99 112.66 -1.98 113.32 -3 114 C-3.41666667 116.5 -3.41666667 116.5 -3 119 C-0.33515635 121.66484365 1.09879828 121.32920836 4.8125 121.375 C8.74651302 121.30415943 10.71432623 121.14833061 14.25 119.3125 C16.20611527 117.11806824 16.20611527 117.11806824 16.375 114.3125 C16.23836166 112.04342781 16.23836166 112.04342781 15 111 C12.66702567 110.95907063 10.33294775 110.95758277 8 111 C8.103125 110.113125 8.20625 109.22625 8.3125 108.3125 C8.27891097 104.87324363 8.27891097 104.87324363 5.9375 102.25 C1.46987571 98.8279899 -2.43180177 98 -8 98 C-8.33 97.34 -8.66 96.68 -9 96 C-8.34 96 -7.68 96 -7 96 C-7 95.34 -7 94.68 -7 94 C-5.515 94.50660156 -5.515 94.50660156 -4 95.0234375 C2.86234991 96.73902498 9.99830279 95.94593098 17 95.625 C18.45698947 95.56665559 19.91402114 95.50935486 21.37109375 95.453125 C24.91463004 95.31412344 28.45738573 95.16097008 32 95 C32 93.02 32 91.04 32 89 C32.99 89 33.98 89 35 89 C34.67 90.65 34.34 92.3 34 94 C35.65 93.67 37.3 93.34 39 93 C39.495 91.515 39.495 91.515 40 90 C40.99 90 41.98 90 43 90 C42.505 91.98 42.505 91.98 42 94 C53.72679079 95.2052535 65.2588265 94.87892138 77 94.125 C77.72493652 94.07966125 78.44987305 94.03432251 79.19677734 93.98760986 C86.83861891 93.92550314 86.83861891 93.92550314 94 92 C94 92.99 94 93.98 94 95 C92.24623047 95.05607422 92.24623047 95.05607422 90.45703125 95.11328125 C88.90882325 95.1789628 87.36064758 95.24540939 85.8125 95.3125 C85.04357422 95.33505859 84.27464844 95.35761719 83.48242188 95.38085938 C78.91778935 95.59635705 75.66253329 95.98998701 72 99 C71.525625 100.155 71.05125 101.31 70.5625 102.5 C68.65205225 106.77940296 67.13198081 107.10617546 63 109 C60.94660788 111.60096335 60.10586197 113.36482815 59.5625 116.625 C59.80765395 119.07219556 59.80765395 119.07219556 61.5 120.75 C65.58999069 122.79499534 69.6624773 123.69113195 74.07421875 122.38671875 C75.75156588 121.66882779 77.38181053 120.84280701 79 120 C79.25015873 116.58357241 79.25015873 116.58357241 79 113 C78.01 112.34 77.02 111.68 76 111 C76.875 106.25 76.875 106.25 78 104 C80.68764244 103.53271671 83.28998222 103.19448204 86 102.9375 C86.80074951 102.85806152 87.60149902 102.77862305 88.42651367 102.69677734 C90.10590851 102.53517365 91.78587039 102.37937077 93.46630859 102.22900391 C95.12375807 102.07919782 96.78042376 101.92037769 98.43603516 101.75146484 C100.72675568 101.51922372 103.01814728 101.31763045 105.3125 101.125 C106.01052734 101.05144287 106.70855469 100.97788574 107.42773438 100.90209961 C111.0034761 100.64388072 112.80830908 100.88229505 115.89453125 102.77734375 C118.66495083 105.70196108 119.30847622 108.05831446 120 112 C119.6875 114.6875 119.6875 114.6875 119 117 C118.63215869 118.3242287 118.28797019 119.65613912 118 121 C119.78442106 122.78442106 122.27014155 122.2976921 124.6875 122.375 C130.05893122 122.33459856 130.05893122 122.33459856 134.625 119.8125 C136.83106594 117.20005349 138.06699649 115.26551229 139 112 C137.21342243 109.78629949 137.21342243 109.78629949 134.8359375 109.8046875 C134.02382813 109.82789063 133.21171875 109.85109375 132.375 109.875 C131.55773437 109.89304687 130.74046875 109.91109375 129.8984375 109.9296875 C129.27195312 109.95289063 128.64546875 109.97609375 128 110 C128.20625 108.9275 128.4125 107.855 128.625 106.75 C129.17448188 103.23091867 129.17448188 103.23091867 128.5 100.75 C126.06761934 97.91222256 123.52890181 97.09916614 120 96 C116.18334703 96.20969141 116.18334703 96.20969141 113 97 C113 96.01 113 95.02 113 94 C113.99773437 93.88140625 114.99546875 93.7628125 116.0234375 93.640625 C120.01273451 93.06757681 123.7955368 91.98556962 127.625 90.75 C128.6622522 90.41730103 128.6622522 90.41730103 129.72045898 90.07788086 C131.81755681 89.39649856 133.90944701 88.70118237 136 88 C137.82337891 87.39091797 137.82337891 87.39091797 139.68359375 86.76953125 C150.01913053 83.16069229 150.01913053 83.16069229 156.92382812 75.10498047 C159.05416801 68.95966002 159.45470828 63.34908349 159.375 56.875 C159.39240234 55.44994141 159.39240234 55.44994141 159.41015625 53.99609375 C159.38600381 48.19145817 158.65572678 44.16278692 156 39 C155.690625 38.13375 155.38125 37.2675 155.0625 36.375 C153.6575213 33.23445938 152.52652808 31.4032828 150 29 C148.14394835 28.30157464 146.26576035 27.66062288 144.375 27.0625 C139.18256616 25.32709771 139.18256616 25.32709771 137.5 22.3125 C137.335 21.219375 137.17 20.12625 137 19 C136.50455953 17.38780994 135.98223755 15.78370771 135.4375 14.1875 C135.18871094 13.41792969 134.93992187 12.64835938 134.68359375 11.85546875 C134.15155392 10.01186786 134.15155392 10.01186786 133 9 C130.66702567 8.95907063 128.33294775 8.95758277 126 9 C125.12976541 14.1343841 124.61074554 17.22149107 127 22 C127 22.66 127 23.32 127 24 C126.34 24 125.68 24 125 24 C124.67 22.68 124.34 21.36 124 20 C122.74069672 20.00222061 121.48139343 20.00444122 120.18392944 20.00672913 C108.26821404 20.02707364 96.35250219 20.04202637 84.4367733 20.05181217 C78.31200812 20.05701239 72.18725706 20.06405762 66.0625 20.07543945 C60.14267464 20.08637057 54.22286279 20.09229835 48.30302811 20.09487724 C46.05381686 20.09671317 43.80460628 20.10029797 41.55540085 20.10573006 C29.9913064 20.13252697 18.52149146 20.11629726 7 19 C7.144375 17.845 7.28875 16.69 7.4375 15.5 C7.4375 10.59708816 5.34476112 7.95007839 2.01171875 4.515625 C-0.09742985 2.69879545 -0.09742985 2.69879545 -3.75 2.25 C-7.47845106 2.74266079 -7.47845106 2.74266079 -10 7 Z " fill="#0E0E0E" transform="translate(245,161)"/>
<path d="M0 0 C4.3224418 0.06850145 4.3224418 0.06850145 6.5625 1.875 C8.5392661 6.40993399 9.625 10.35122889 9.625 15.3125 C10.615 15.3125 11.605 15.3125 12.625 15.3125 C12.625 15.9725 12.625 16.6325 12.625 17.3125 C13.28886719 17.53164062 13.95273437 17.75078125 14.63671875 17.9765625 C21.59890741 20.47685215 25.32649912 23.0189307 28.80859375 29.5234375 C31.8617983 36.72857766 32.01250478 43.76073947 32.0625 51.5 C32.0725708 52.5214209 32.0826416 53.5428418 32.09301758 54.59521484 C32.00619234 62.18780467 31.2537695 69.1153479 26.3125 75.125 C19.9873243 80.27339882 13.93237059 82.88606121 6.25 85.5625 C5.22777344 85.92601562 4.20554687 86.28953125 3.15234375 86.6640625 C0.64573448 87.55426018 -1.86329278 88.43681217 -4.375 89.3125 C-3.74078125 89.60640625 -3.1065625 89.9003125 -2.453125 90.203125 C0.16405073 91.60026392 0.69251322 92.51503966 1.625 95.3125 C1.75 98.5625 1.75 98.5625 1.625 101.3125 C3.543125 101.498125 3.543125 101.498125 5.5 101.6875 C9.375 102.0625 9.375 102.0625 11.625 104.3125 C11.54507433 108.46863496 10.88735742 111.40637706 8.375 114.6875 C5.59608473 117.34010094 4.3856782 118.0976041 0.625 118.3125 C1.03492188 117.86519531 1.44484375 117.41789062 1.8671875 116.95703125 C4.88140074 113.57505515 7.28550545 110.732832 8.625 106.3125 C7.04227399 104.72977399 5.24465997 104.96514253 3.0625 104.75 C2.23621094 104.66621094 1.40992188 104.58242188 0.55859375 104.49609375 C-0.07949219 104.43550781 -0.71757812 104.37492187 -1.375 104.3125 C-1.354375 103.219375 -1.33375 102.12625 -1.3125 101 C-1.18955548 97.36865809 -1.18955548 97.36865809 -2.375 94.3125 C-7.26260013 91.67319593 -10.73702751 90.96731801 -16.375 91.3125 C-16.375 90.3225 -16.375 89.3325 -16.375 88.3125 C-15.116875 87.94898438 -13.85875 87.58546875 -12.5625 87.2109375 C-4.14368678 84.75138824 4.25157437 82.23847413 12.5 79.25 C13.73492187 78.80527344 14.96984375 78.36054688 16.2421875 77.90234375 C21.6009723 75.38383865 25.3454246 72.82859515 27.4765625 67.1953125 C28.97569915 61.87899089 29.06761138 56.67904614 29 51.1875 C29.01160156 50.23746094 29.02320313 49.28742188 29.03515625 48.30859375 C29.01100416 42.50404204 28.28345103 38.47421329 25.625 33.3125 C25.295 32.425625 24.965 31.53875 24.625 30.625 C23.04181612 26.96388727 21.70626568 24.80413046 17.99609375 23.1171875 C17.02800781 22.81039062 16.05992187 22.50359375 15.0625 22.1875 C9.81286693 20.50036693 9.81286693 20.50036693 7.625 18.3125 C7.03525158 16.14256442 6.52391889 13.950799 6.0625 11.75 C5.51324577 7.71273354 5.51324577 7.71273354 3.625 4.3125 C1.29682036 3.94489269 -1.0368385 3.61008419 -3.375 3.3125 C-3.54587387 8.3532792 -3.43062293 11.65308802 -1.375 16.3125 C-1.705 16.9725 -2.035 17.6325 -2.375 18.3125 C-3.035 18.3125 -3.695 18.3125 -4.375 18.3125 C-4.705 17.3225 -5.035 16.3325 -5.375 15.3125 C-9.005 14.6525 -12.635 13.9925 -16.375 13.3125 C-16.045 12.6525 -15.715 11.9925 -15.375 11.3125 C-12.735 11.3125 -10.095 11.3125 -7.375 11.3125 C-7.24222656 10.60222656 -7.10945313 9.89195312 -6.97265625 9.16015625 C-6.79605469 8.24105469 -6.61945313 7.32195312 -6.4375 6.375 C-6.26347656 5.45847656 -6.08945312 4.54195312 -5.91015625 3.59765625 C-5.01471661 -0.22593637 -3.67910498 0.11311164 0 0 Z " fill="#080808" transform="translate(374.375,166.6875)"/>
<path d="M0 0 C0 0.33 0 0.66 0 1 C2.97 1.495 2.97 1.495 6 2 C6 2.33 6 2.66 6 3 C-23.00505575 3.94472462 -51.98094897 4.12159082 -81 4 C-81 3.34 -81 2.68 -81 2 C-84.63 2 -88.26 2 -92 2 C-92 1.67 -92 1.34 -92 1 C-82.85426336 0.82792828 -73.70842943 0.66148145 -64.5625 0.5 C-63.88999081 0.48812275 -63.21748161 0.4762455 -62.52459335 0.46400833 C-41.68193131 0.09762479 -20.84617251 -0.1580545 0 0 Z " fill="#1F1F1F" transform="translate(359,178)"/>
<path d="M0 0 C0 0.99 0 1.98 0 3 C-0.67546875 3.09796875 -1.3509375 3.1959375 -2.046875 3.296875 C-7.61307233 4.2293033 -7.61307233 4.2293033 -12.625 6.6875 C-14.60525389 10.01792699 -14.45386888 12.17453371 -14 16 C-13.16267366 18.45934708 -12.14738639 20.65741945 -11 23 C-6.71 23.33 -2.42 23.66 2 24 C2 24.99 2 25.98 2 27 C-0.08268593 27.08126087 -2.16628658 27.13930839 -4.25 27.1875 C-5.99023438 27.23970703 -5.99023438 27.23970703 -7.765625 27.29296875 C-11.26400813 26.97608622 -12.54125339 26.44134982 -15 24 C-17.58641918 18.82716164 -17.79691684 12.67267686 -17 7 C-14.71198041 3.0238684 -12.26041298 1.95885194 -8.07421875 0.52734375 C-5.3368871 -0.16858803 -2.80652014 -0.21048901 0 0 Z " fill="#111111" transform="translate(205,202)"/>
<path d="M0 0 C0.99 0 1.98 0 3 0 C2.67 1.65 2.34 3.3 2 5 C5.72614153 3.88145414 5.72614153 3.88145414 8 1 C8.99 1 9.98 1 11 1 C11 1.99 11 2.98 11 4 C13.64 4.33 16.28 4.66 19 5 C17.83276367 6.97558594 17.83276367 6.97558594 16 9 C13.5480957 9.45410156 13.5480957 9.45410156 10.67578125 9.390625 C9.64775391 9.37773437 8.61972656 9.36484375 7.56054688 9.3515625 C6.48869141 9.31804687 5.41683594 9.28453125 4.3125 9.25 C3.22904297 9.23195313 2.14558594 9.21390625 1.02929688 9.1953125 C-1.64802146 9.14813508 -4.32356909 9.08232249 -7 9 C-7 8.34 -7 7.68 -7 7 C-11.29 7 -15.58 7 -20 7 C-20 6.67 -20 6.34 -20 6 C-13.4 6 -6.8 6 0 6 C0 4.02 0 2.04 0 0 Z " fill="#272727" transform="translate(277,250)"/>
<path d="M0 0 C0.99 0 1.98 0 3 0 C2.67 1.32 2.34 2.64 2 4 C2.99 4 3.98 4 5 4 C5.33 6.31 5.66 8.62 6 11 C3.61435923 10.42415568 1.33317216 9.77772405 -1 9 C-1 9.99 -1 10.98 -1 12 C-1.99 12 -2.98 12 -4 12 C-3.67 10.68 -3.34 9.36 -3 8 C-4.32 8 -5.64 8 -7 8 C-7 7.34 -7 6.68 -7 6 C-6.34 6 -5.68 6 -5 6 C-5 4.68 -5 3.36 -5 2 C-3.68 2 -2.36 2 -1 2 C-0.67 1.34 -0.34 0.68 0 0 Z " fill="#080808" transform="translate(391,204)"/>
<path d="M0 0 C8.91 0 17.82 0 27 0 C26.67 0.99 26.34 1.98 26 3 C22.22918278 3.02899599 18.45839417 3.04679729 14.6875 3.0625 C13.0797168 3.07506836 13.0797168 3.07506836 11.43945312 3.08789062 C10.41142578 3.09111328 9.38339844 3.09433594 8.32421875 3.09765625 C7.37635498 3.10289307 6.42849121 3.10812988 5.4519043 3.11352539 C3 3 3 3 0 2 C0 1.34 0 0.68 0 0 Z " fill="#282828" transform="translate(192,236)"/>
<path d="M0 0 C0.66 0.99 1.32 1.98 2 3 C4.50917293 3.60208754 4.50917293 3.60208754 7.4453125 3.73046875 C8.52167969 3.81103516 9.59804688 3.89160156 10.70703125 3.97460938 C11.83496094 4.04486328 12.96289062 4.11511719 14.125 4.1875 C15.82849609 4.3102832 15.82849609 4.3102832 17.56640625 4.43554688 C20.37697146 4.63630153 23.18780091 4.82388184 26 5 C26 5.66 26 6.32 26 7 C17.28299826 7.14368684 8.68679101 6.71961582 0 6 C-0.38218767 4.34385343 -0.71395102 2.67542976 -1 1 C-0.67 0.67 -0.34 0.34 0 0 Z " fill="#020202" transform="translate(252,175)"/>
<path d="M0 0 C0.99 0.33 1.98 0.66 3 1 C2.125 7.875 2.125 7.875 1 9 C-0.99958364 9.04080783 -3.00045254 9.04254356 -5 9 C-7 3.25 -7 3.25 -7 1 C-6.01 1 -5.02 1 -4 1 C-4 2.65 -4 4.3 -4 6 C-2.68 6 -1.36 6 0 6 C0 4.02 0 2.04 0 0 Z " fill="#0C0C0C" transform="translate(194,247)"/>
<path d="M0 0 C0.99 0 1.98 0 3 0 C2.67 2.64 2.34 5.28 2 8 C2.99 8 3.98 8 5 8 C5.33 6.02 5.66 4.04 6 2 C6.66 2 7.32 2 8 2 C8.25 7.625 8.25 7.625 6 11 C3.4375 11.25 3.4375 11.25 1 11 C0 10 0 10 -0.09765625 7.71484375 C-0.08605469 6.79832031 -0.07445312 5.88179687 -0.0625 4.9375 C-0.05347656 4.01839844 -0.04445312 3.09929687 -0.03515625 2.15234375 C-0.02355469 1.44207031 -0.01195312 0.73179687 0 0 Z " fill="#080808" transform="translate(244,228)"/>
<path d="M0 0 C0.66 0 1.32 0 2 0 C1.56179109 4.55737263 1.14958831 7.57653445 -2 11 C-4.86724686 10.42655063 -5.8614515 10.1385485 -8 8 C-8.125 4.875 -8.125 4.875 -8 2 C-7.34 2 -6.68 2 -6 2 C-6 3.65 -6 5.3 -6 7 C-4.68 7 -3.36 7 -2 7 C-1.34 4.69 -0.68 2.38 0 0 Z " fill="#0B0B0B" transform="translate(366,239)"/>
<path d="M0 0 C0.66 0 1.32 0 2 0 C2.32728047 3.60008519 2.40422813 5.41611492 0.3125 8.4375 C-2 10 -2 10 -4.75 9.75 C-5.4925 9.5025 -6.235 9.255 -7 9 C-7 6.36 -7 3.72 -7 1 C-6.34 1 -5.68 1 -5 1 C-5 2.98 -5 4.96 -5 7 C-1.88794071 5.01487051 -1.88794071 5.01487051 -0.25 1.8125 C-0.1675 1.214375 -0.085 0.61625 0 0 Z " fill="#090909" transform="translate(359,200)"/>
<path d="M0 0 C0.66 0 1.32 0 2 0 C2.33 0.99 2.66 1.98 3 3 C3.99 2.67 4.98 2.34 6 2 C6.33 1.34 6.66 0.68 7 0 C7.66 0 8.32 0 9 0 C8.25 4.75 8.25 4.75 6 7 C3.375 7.125 3.375 7.125 1 7 C0.67 4.69 0.34 2.38 0 0 Z " fill="#0C0C0C" transform="translate(287,186)"/>
<path d="M0 0 C1.65 0 3.3 0 5 0 C4.67 1.32 4.34 2.64 4 4 C2.68 4 1.36 4 0 4 C0 2.68 0 1.36 0 0 Z " fill="#0A0A0A" transform="translate(181,199)"/>
</svg>
