<?xml version="1.0" encoding="UTF-8"?>
<svg version="1.1" xmlns="http://www.w3.org/2000/svg" width="800" height="300">
<path d="M0 0 C264 0 528 0 800 0 C800 99 800 198 800 300 C536 300 272 300 0 300 C0 201 0 102 0 0 Z " fill="#FEFEFE" transform="translate(0,0)"/>
<path d="M0 0 C3.20957234 1.43213722 5.09317544 3.05589089 7 6 C7.28076172 8.54150391 7.28076172 8.54150391 7.1796875 11.2265625 C7.14077393 12.56968506 7.14077393 12.56968506 7.10107422 13.93994141 C7.06771973 14.61976074 7.03436523 15.29958008 7 16 C7.9571138 15.99656334 7.9571138 15.99656334 8.93356323 15.99305725 C29.25037092 15.93140739 49.56100315 16.11577816 69.87597656 16.37231445 C74.27441566 16.42767039 78.67289829 16.47779734 83.07141304 16.52671719 C86.53434703 16.5660919 89.99723029 16.60905014 93.46010971 16.65294075 C95.08079401 16.6729306 96.70149395 16.6917 98.3222084 16.70907402 C106.85034461 16.80189948 115.36079778 17.00974761 123.87841797 17.45727539 C125.01152751 17.51432349 125.01152751 17.51432349 126.16752815 17.57252407 C131.60373993 17.8830633 131.60373993 17.8830633 134.31228638 18.68235779 C134.86923187 18.78717972 135.42617737 18.89200165 136 19 C139.15848783 16.67348492 139.15848783 16.67348492 142 14 C144.76250036 12.61874982 146.94731099 12.80920694 150 13 C152.39286884 15.39286884 152.32050616 16.09447094 152.375 19.375 C152.31898675 22.85342253 152.21688729 23.72211316 150 26.5625 C149.01 27.2740625 149.01 27.2740625 148 28 C148.66 28 149.32 28 150 28 C151.4375 29.43359375 151.4375 29.43359375 153 31.4375 C153.7734375 32.39462891 153.7734375 32.39462891 154.5625 33.37109375 C158.40856469 40.40479359 158.33916473 48.35340296 158.3125 56.1875 C158.32861328 57.14591797 158.34472656 58.10433594 158.36132812 59.09179688 C158.36575073 65.49131004 157.56285958 69.7599081 153.4921875 74.90625 C142.23529412 86 142.23529412 86 137 86 C137 86.66 137 87.32 137 88 C137.721875 87.9175 138.44375 87.835 139.1875 87.75 C143.08396638 88.09635257 144.4600728 89.02465671 147 92 C147.79203432 95.16813728 147.79477862 97.83215898 147 101 C145.22608299 103.62757673 143.87802625 104.34779974 141 106 C137.875 106.5 137.875 106.5 135 106 C134.401875 105.46375 133.80375 104.9275 133.1875 104.375 C131.15569779 102.76688761 131.15569779 102.76688761 129.10546875 103.28125 C128.00138672 103.57515625 128.00138672 103.57515625 126.875 103.875 C118.4958331 106.08655061 110.91846785 104.0411507 103 101 C102.43732422 101.85271484 102.43732422 101.85271484 101.86328125 102.72265625 C101.35152344 103.49480469 100.83976563 104.26695312 100.3125 105.0625 C99.76851562 105.88878906 99.22453125 106.71507812 98.6640625 107.56640625 C97.25013052 109.63419879 95.75580428 111.55108387 94.1875 113.5 C91.68714176 116.90304348 91.33783224 120.02424933 91.140625 124.1796875 C91 126 91 126 90 127 C87.54507499 127.18063984 85.14495751 127.27801743 82.6875 127.3125 C81.67139648 127.35600586 81.67139648 127.35600586 80.63476562 127.40039062 C77.24380163 127.44348205 75.34887177 127.25531327 72.58203125 125.23046875 C70.03428507 121.63846117 70 119.41277603 70 115 C71.3125 112.625 71.3125 112.625 74 111 C75.64262333 110.76770983 77.28910448 110.56198218 78.9375 110.375 C82.3251178 109.83537947 83.5816623 109.53380648 85.7265625 106.796875 C87.6725719 102.9048562 88.94350821 99.22596715 90 95 C57.66 95 25.32 95 -8 95 C-5.7747348 99.45053041 -4.00098756 102.27463613 -1 106 C-1 106.66 -1 107.32 -1 108 C3.29 108.99 7.58 109.98 12 111 C12 111.66 12 112.32 12 113 C12.66 113 13.32 113 14 113 C14.57904085 122.84369449 14.57904085 122.84369449 11 127 C7.62670451 130.22158643 4.63267401 132.31113203 -0.125 132.5 C-4.02483539 131.99679543 -6.13077439 131.68989901 -9 129 C-9.608676 125.42402849 -9.44405832 123.70309234 -7.5 120.625 C-7.005 120.08875 -6.51 119.5525 -6 119 C-7.36125 118.13375 -7.36125 118.13375 -8.75 117.25 C-12 115 -12 115 -13.8125 113.0625 C-16.55378882 110.47785625 -19.54270679 108.96201421 -22.87890625 107.24609375 C-25 106 -25 106 -26.23046875 104.39941406 C-28.00382589 102.7081297 -28.00382589 102.7081297 -30.90405273 102.93481445 C-32.06880127 103.0762085 -33.2335498 103.21760254 -34.43359375 103.36328125 C-35.72330078 103.50830078 -37.01300781 103.65332031 -38.34179688 103.80273438 C-39.70715859 103.97162996 -41.07239307 104.14155725 -42.4375 104.3125 C-51.66655027 105.42187433 -60.69491466 106.26567216 -70 106 C-70.13148438 106.78761719 -70.26296875 107.57523437 -70.3984375 108.38671875 C-71 111 -71 111 -72.625 112.8125 C-76.03215469 114.51607735 -78.23207391 114.51971394 -82 114 C-84.97046873 112.20976215 -87.42502414 110.14995172 -89 107 C-89.11697217 101.34355994 -88.96841169 96.50958293 -85.875 91.6875 C-83 90 -83 90 -79.25 90.125 C-76 91 -76 91 -75 92 C-73.00041636 92.04080783 -70.99954746 92.04254356 -69 92 C-69.64066406 91.58492188 -70.28132813 91.16984375 -70.94140625 90.7421875 C-78.45267101 85.39139084 -83.79881737 79.12374249 -86 70 C-87.81666829 55.97363085 -87.11856304 40.53667688 -78.53515625 28.83203125 C-76.55094892 26.46410952 -74.58287094 24.70091501 -72 23 C-71.4534375 22.63003906 -70.906875 22.26007813 -70.34375 21.87890625 C-66.41800886 19.39088171 -63.61950014 18.54931706 -59 19 C-59.0825 17.845 -59.165 16.69 -59.25 15.5 C-59.27604655 10.6292957 -57.53385113 7.0806197 -55 3 C-54 2 -54 2 -51.3125 1.5625 C-47.23535029 2.10099147 -45.88871224 3.36710743 -43.19140625 6.33203125 C-41.6503106 8.48956516 -41.15489396 10.36680276 -41 13 C-40.16726563 12.67515625 -39.33453125 12.3503125 -38.4765625 12.015625 C-34.62009989 10.88901795 -31.38660276 10.73392143 -27.375 10.75 C-25.43753906 10.74226562 -25.43753906 10.74226562 -23.4609375 10.734375 C-20.31589796 10.97575501 -18.61376712 11.32825047 -16 13 C-16.0825 11.948125 -16.165 10.89625 -16.25 9.8125 C-15.96269651 5.43112175 -15.05154419 4.05154419 -12 1 C-8.22414664 -0.88792668 -4.10285645 -0.61756856 0 0 Z " fill="#FCFCFC" transform="translate(508,154)"/>
<path d="M0 0 C3.20957234 1.43213722 5.09317544 3.05589089 7 6 C7.28076172 8.54150391 7.28076172 8.54150391 7.1796875 11.2265625 C7.14077393 12.56968506 7.14077393 12.56968506 7.10107422 13.93994141 C7.06771973 14.61976074 7.03436523 15.29958008 7 16 C7.9571138 15.99656334 7.9571138 15.99656334 8.93356323 15.99305725 C29.25037092 15.93140739 49.56100315 16.11577816 69.87597656 16.37231445 C74.27441566 16.42767039 78.67289829 16.47779734 83.07141304 16.52671719 C86.53434703 16.5660919 89.99723029 16.60905014 93.46010971 16.65294075 C95.08079401 16.6729306 96.70149395 16.6917 98.3222084 16.70907402 C106.85034461 16.80189948 115.36079778 17.00974761 123.87841797 17.45727539 C125.01152751 17.51432349 125.01152751 17.51432349 126.16752815 17.57252407 C131.60373993 17.8830633 131.60373993 17.8830633 134.31228638 18.68235779 C134.86923187 18.78717972 135.42617737 18.89200165 136 19 C139.15848783 16.67348492 139.15848783 16.67348492 142 14 C144.76250036 12.61874982 146.94731099 12.80920694 150 13 C152.39286884 15.39286884 152.32050616 16.09447094 152.375 19.375 C152.31898675 22.85342253 152.21688729 23.72211316 150 26.5625 C149.01 27.2740625 149.01 27.2740625 148 28 C148.66 28 149.32 28 150 28 C151.4375 29.43359375 151.4375 29.43359375 153 31.4375 C153.7734375 32.39462891 153.7734375 32.39462891 154.5625 33.37109375 C158.40856469 40.40479359 158.33916473 48.35340296 158.3125 56.1875 C158.32861328 57.14591797 158.34472656 58.10433594 158.36132812 59.09179688 C158.36575073 65.49131004 157.56285958 69.7599081 153.4921875 74.90625 C142.23529412 86 142.23529412 86 137 86 C137 86.66 137 87.32 137 88 C137.721875 87.9175 138.44375 87.835 139.1875 87.75 C143.08396638 88.09635257 144.4600728 89.02465671 147 92 C147.79203432 95.16813728 147.79477862 97.83215898 147 101 C145.22608299 103.62757673 143.87802625 104.34779974 141 106 C137.875 106.5 137.875 106.5 135 106 C134.401875 105.46375 133.80375 104.9275 133.1875 104.375 C131.15569779 102.76688761 131.15569779 102.76688761 129.10546875 103.28125 C128.00138672 103.57515625 128.00138672 103.57515625 126.875 103.875 C118.4958331 106.08655061 110.91846785 104.0411507 103 101 C102.43732422 101.85271484 102.43732422 101.85271484 101.86328125 102.72265625 C101.35152344 103.49480469 100.83976563 104.26695312 100.3125 105.0625 C99.76851562 105.88878906 99.22453125 106.71507812 98.6640625 107.56640625 C97.25013052 109.63419879 95.75580428 111.55108387 94.1875 113.5 C91.68714176 116.90304348 91.33783224 120.02424933 91.140625 124.1796875 C91 126 91 126 90 127 C87.54507499 127.18063984 85.14495751 127.27801743 82.6875 127.3125 C81.67139648 127.35600586 81.67139648 127.35600586 80.63476562 127.40039062 C77.24380163 127.44348205 75.34887177 127.25531327 72.58203125 125.23046875 C70.03428507 121.63846117 70 119.41277603 70 115 C71.3125 112.625 71.3125 112.625 74 111 C75.64262333 110.76770983 77.28910448 110.56198218 78.9375 110.375 C82.3251178 109.83537947 83.5816623 109.53380648 85.7265625 106.796875 C87.6725719 102.9048562 88.94350821 99.22596715 90 95 C57.66 95 25.32 95 -8 95 C-5.7747348 99.45053041 -4.00098756 102.27463613 -1 106 C-1 106.66 -1 107.32 -1 108 C3.29 108.99 7.58 109.98 12 111 C12 111.66 12 112.32 12 113 C12.66 113 13.32 113 14 113 C14.57904085 122.84369449 14.57904085 122.84369449 11 127 C7.62670451 130.22158643 4.63267401 132.31113203 -0.125 132.5 C-4.02483539 131.99679543 -6.13077439 131.68989901 -9 129 C-9.608676 125.42402849 -9.44405832 123.70309234 -7.5 120.625 C-7.005 120.08875 -6.51 119.5525 -6 119 C-7.36125 118.13375 -7.36125 118.13375 -8.75 117.25 C-12 115 -12 115 -13.8125 113.0625 C-16.55378882 110.47785625 -19.54270679 108.96201421 -22.87890625 107.24609375 C-25 106 -25 106 -26.23046875 104.39941406 C-28.00382589 102.7081297 -28.00382589 102.7081297 -30.90405273 102.93481445 C-32.06880127 103.0762085 -33.2335498 103.21760254 -34.43359375 103.36328125 C-35.72330078 103.50830078 -37.01300781 103.65332031 -38.34179688 103.80273438 C-39.70715859 103.97162996 -41.07239307 104.14155725 -42.4375 104.3125 C-51.66655027 105.42187433 -60.69491466 106.26567216 -70 106 C-70.13148438 106.78761719 -70.26296875 107.57523437 -70.3984375 108.38671875 C-71 111 -71 111 -72.625 112.8125 C-76.03215469 114.51607735 -78.23207391 114.51971394 -82 114 C-84.97046873 112.20976215 -87.42502414 110.14995172 -89 107 C-89.11697217 101.34355994 -88.96841169 96.50958293 -85.875 91.6875 C-83 90 -83 90 -79.25 90.125 C-76 91 -76 91 -75 92 C-73.00041636 92.04080783 -70.99954746 92.04254356 -69 92 C-69.64066406 91.58492188 -70.28132813 91.16984375 -70.94140625 90.7421875 C-78.45267101 85.39139084 -83.79881737 79.12374249 -86 70 C-87.81666829 55.97363085 -87.11856304 40.53667688 -78.53515625 28.83203125 C-76.55094892 26.46410952 -74.58287094 24.70091501 -72 23 C-71.4534375 22.63003906 -70.906875 22.26007813 -70.34375 21.87890625 C-66.41800886 19.39088171 -63.61950014 18.54931706 -59 19 C-59.0825 17.845 -59.165 16.69 -59.25 15.5 C-59.27604655 10.6292957 -57.53385113 7.0806197 -55 3 C-54 2 -54 2 -51.3125 1.5625 C-47.23535029 2.10099147 -45.88871224 3.36710743 -43.19140625 6.33203125 C-41.6503106 8.48956516 -41.15489396 10.36680276 -41 13 C-40.16726563 12.67515625 -39.33453125 12.3503125 -38.4765625 12.015625 C-34.62009989 10.88901795 -31.38660276 10.73392143 -27.375 10.75 C-25.43753906 10.74226562 -25.43753906 10.74226562 -23.4609375 10.734375 C-20.31589796 10.97575501 -18.61376712 11.32825047 -16 13 C-16.0825 11.948125 -16.165 10.89625 -16.25 9.8125 C-15.96269651 5.43112175 -15.05154419 4.05154419 -12 1 C-8.22414664 -0.88792668 -4.10285645 -0.61756856 0 0 Z M-13 7 C-13.40040892 10.80388473 -13.20776206 13.37671381 -12 17 C-12.99 16.67 -13.98 16.34 -15 16 C-24.60624214 13.60272032 -35.56422127 14.30406322 -45 17 C-44.896875 15.783125 -44.79375 14.56625 -44.6875 13.3125 C-44.65408479 9.54994773 -44.90669702 9.11196358 -47.5 6 C-48.325 5.34 -49.15 4.68 -50 4 C-52.93576279 5.012332 -53.97512741 5.96357942 -55.75 8.5625 C-57.30903894 12.84985708 -57.27038392 16.49360134 -57 21 C-58.175625 21.0928125 -58.175625 21.0928125 -59.375 21.1875 C-67.86043219 23.08940721 -74.43056804 26.994709 -79.125 34.3125 C-83.30545319 41.44690979 -83.28443686 48.58434291 -83.1875 56.625 C-83.1865332 58.16027344 -83.1865332 58.16027344 -83.18554688 59.7265625 C-83.15870789 64.30708273 -83.01118959 68.5164711 -82 73 C-81.34 73 -80.68 73 -80 73 C-79.9175 73.53625 -79.835 74.0725 -79.75 74.625 C-77.51576787 81.70006842 -72.21723693 86.27162532 -66 90 C-58.18355523 93.03824137 -49.239271 92.1977425 -41 92 C-48.07977236 93.46135582 -55.03245284 94.32883436 -62.25 94.75390625 C-65.08839777 94.90146001 -65.08839777 94.90146001 -68 96 C-72.30379794 96.39849981 -74.31312143 96.46766201 -77.9375 94 C-78.618125 93.34 -79.29875 92.68 -80 92 C-82.01432266 92.50256112 -82.01432266 92.50256112 -84 94 C-86.03705223 98.94712684 -86.39299801 102.8260074 -85 108 C-82.67991026 110.66380673 -81.39770636 110.96022936 -77.875 111.3125 C-74.87217348 111.28987808 -74.87217348 111.28987808 -73 109 C-73.32041397 106.39719432 -73.32041397 106.39719432 -74 104 C-57.67638054 102.22209187 -41.35126986 100.50417526 -25 99 C-24.86948242 99.63156006 -24.73896484 100.26312012 -24.60449219 100.91381836 C-23.80307486 103.67961442 -22.71553965 104.15825467 -20.25 105.5625 C-19.528125 105.9853125 -18.80625 106.408125 -18.0625 106.84375 C-17.381875 107.2253125 -16.70125 107.606875 -16 108 C-13.26612676 109.55333707 -11.19005729 110.80400342 -9 113.0625 C-6.79185467 115.20164079 -4.89268359 116.03577214 -2 117 C-2 117.99 -2 118.98 -2 120 C-4.5 122.1875 -4.5 122.1875 -7 124 C-6.67 125.32 -6.34 126.64 -6 128 C-0.19388201 129.24079022 -0.19388201 129.24079022 5.3125 127.4375 C8.29840763 124.72935122 9.70331936 122.81376658 11 119 C10.78892707 115.72114468 10.78892707 115.72114468 10 113 C9.09507812 112.92652344 9.09507812 112.92652344 8.171875 112.8515625 C6.97304688 112.73941406 6.97304688 112.73941406 5.75 112.625 C4.96109375 112.55539062 4.1721875 112.48578125 3.359375 112.4140625 C0.82346675 111.969019 -0.85285884 111.42225162 -3 110 C-4.03125 108.23046875 -4.03125 108.23046875 -5 106 C-6.14489576 104.09094033 -7.31319795 102.19579393 -8.5 100.3125 C-9.1084375 99.33925781 -9.716875 98.36601562 -10.34375 97.36328125 C-11.78368551 94.9099091 -11.78368551 94.9099091 -14 94 C-14 93.34 -14 92.68 -14 92 C-3.08839739 91.86784824 7.82322381 91.73735798 18.73486996 91.60884857 C23.80445752 91.54909345 28.87403766 91.48881767 33.94360352 91.42724609 C72.66268996 90.95783328 72.66268996 90.95783328 88.12890625 90.90625 C89.1232518 90.8997644 90.11759735 90.89327881 91.14207458 90.88659668 C92.02661819 90.88599243 92.9111618 90.88538818 93.82250977 90.88476562 C94.93977196 90.88168396 94.93977196 90.88168396 96.0796051 90.87854004 C98 91 98 91 101 92 C101.33 92.66 101.66 93.32 102 94 C99.03 94 96.06 94 93 94 C92.59007812 95.10859375 92.18015625 96.2171875 91.7578125 97.359375 C91.21365899 98.82296029 90.66938165 100.28649955 90.125 101.75 C89.85558594 102.47960937 89.58617187 103.20921875 89.30859375 103.9609375 C88.91220703 105.02441406 88.91220703 105.02441406 88.5078125 106.109375 C88.26691895 106.75874023 88.02602539 107.40810547 87.77783203 108.07714844 C86.96009365 110.09865109 85.97520962 112.04958075 85 114 C81.37 114 77.74 114 74 114 C71.59168065 117.69801273 71.59168065 117.69801273 72.75 120.6875 C73.78534865 123.13191422 73.78534865 123.13191422 76 124 C78.04055005 124.07065617 80.08334257 124.08421976 82.125 124.0625 C83.22070312 124.05347656 84.31640625 124.04445313 85.4453125 124.03515625 C86.28835938 124.02355469 87.13140625 124.01195312 88 124 C88 122.865625 88 121.73125 88 120.5625 C88.60021565 115.43338445 91.46360821 112.73691201 94.9921875 109.17578125 C97.06663274 106.92779293 98.46915101 104.63743412 100 102 C100.66 101.34 101.32 100.68 102 100 C102.16687448 97.41645782 102.16687448 97.41645782 102 95 C102.99 95 103.98 95 105 95 C105.13728516 95.93585938 105.13728516 95.93585938 105.27734375 96.890625 C105.88084822 99.46196337 105.88084822 99.46196337 109.5625 100.75 C114.97033956 102.52036608 119.70554933 102.76481689 125.1875 100.9375 C128.33467248 99.88844251 129.88249382 99.96083127 133 101 C133.66 101.66 134.32 102.32 135 103 C137.9149255 103.5838196 137.9149255 103.5838196 141 103 C143.5714939 100.9315113 143.5714939 100.9315113 145 98 C145 94.8270449 144.48654488 93.54268468 142.375 91.1875 C139.1686245 89.58431225 136.53249148 89.79620241 133 90 C132.67 90.99 132.34 91.98 132 93 C131.05640625 92.98259766 131.05640625 92.98259766 130.09375 92.96484375 C124.61930912 92.90713127 119.41542194 93.19771527 114 94 C114 94.66 114 95.32 114 96 C111.36 95.67 108.72 95.34 106 95 C107 93 107 93 110 92 C111.89212737 91.77820215 113.78884472 91.59385985 115.6875 91.4375 C116.68136719 91.35371094 117.67523437 91.26992187 118.69921875 91.18359375 C119.45847656 91.12300781 120.21773437 91.06242187 121 91 C121.33 90.01 121.66 89.02 122 88 C122.83337891 88.30744141 122.83337891 88.30744141 123.68359375 88.62109375 C130.28756508 89.70133864 137.77474041 83.63712693 142.875 80 C151.29311544 73.67626838 151.29311544 73.67626838 155.625 64.375 C156.71673164 54.54941527 156.64104068 42.61799219 151.7578125 33.7421875 C150.06290906 31.66618151 148.40158875 30.20079438 146 29 C145.375 26.9375 145.375 26.9375 145 25 C145.9590625 24.5359375 145.9590625 24.5359375 146.9375 24.0625 C148.93610821 23.1654837 148.93610821 23.1654837 150 22 C150.04063832 20.33382885 150.042721 18.66611905 150 17 C147.301935 16.00071667 146.11989571 15.96375246 143.3125 16.8125 C140.86223915 17.78271865 140.86223915 17.78271865 140 20 C140.66 20 141.32 20 142 20 C142.33 21.32 142.66 22.64 143 24 C142.24628113 23.71791183 141.49256226 23.43582367 140.71600342 23.14518738 C131.75300325 20.05825919 123.44953856 19.41134179 114.078125 19.42578125 C112.56474233 19.41327624 111.05137394 19.39892605 109.5380249 19.38285828 C105.57587677 19.34513523 101.61397615 19.32971609 97.65167236 19.32006836 C91.37444685 19.30028702 85.0973578 19.24351528 78.82031441 19.19343376 C76.52246618 19.17583365 74.22461028 19.16093666 71.92674255 19.14613342 C62.02897753 19.07454904 52.15621689 18.79620047 42.26753235 18.34640503 C33.81649364 17.96616994 25.39684623 17.88164855 16.9375 17.9375 C15.55794444 17.94255332 14.17838696 17.94710909 12.79882812 17.95117188 C9.53249842 17.96263268 6.26627854 17.9788348 3 18 C3.16757812 16.89011719 3.33515625 15.78023437 3.5078125 14.63671875 C4.15097685 10.64109957 4.15097685 10.64109957 3 7 C0.37186063 4.29677093 -1.25954841 3.1234086 -5 2.5 C-8.83417929 3.13902988 -10.44296344 4.06692865 -13 7 Z " fill="#151515" transform="translate(508,154)"/>
<path d="M0 0 C3.57574179 -0.04370246 7.1513344 -0.07549059 10.72723389 -0.10253906 C11.71320053 -0.11740356 12.69916718 -0.13226807 13.7150116 -0.14758301 C14.59633255 -0.15140991 15.4776535 -0.15523682 16.38568115 -0.15917969 C17.49508812 -0.17011658 17.49508812 -0.17011658 18.62690735 -0.18127441 C20.98723869 0.09142226 22.60866063 0.88516428 24.66082764 2.05371094 C24.66082764 2.71371094 24.66082764 3.37371094 24.66082764 4.05371094 C21.69082764 4.05371094 18.72082764 4.05371094 15.66082764 4.05371094 C15.50227295 4.73175781 15.34371826 5.40980469 15.18035889 6.10839844 C13.45569927 12.98797988 11.01219682 18.80386029 7.66082764 25.05371094 C4.03082764 25.05371094 0.40082764 25.05371094 -3.33917236 25.05371094 C-4.71127657 28.34312532 -4.71127657 28.34312532 -3.33917236 33.05371094 C3.59082764 33.54871094 3.59082764 33.54871094 10.66082764 34.05371094 C10.49582764 32.91933594 10.33082764 31.78496094 10.16082764 30.61621094 C10.12289615 26.33753939 11.62369894 24.47110802 14.47332764 21.36621094 C15.18102295 20.66109375 15.88871826 19.95597656 16.61785889 19.22949219 C18.73010854 16.97992611 20.13442632 14.72491323 21.66082764 12.05371094 C22.97120698 10.3689375 24.29905842 8.69722551 25.66082764 7.05371094 C25.99082764 8.04371094 26.32082764 9.03371094 26.66082764 10.05371094 C24.91082764 12.42871094 24.91082764 12.42871094 22.66082764 15.05371094 C21.65440013 16.71650421 20.65497356 18.38354578 19.66082764 20.05371094 C19.24446045 20.56675781 18.82809326 21.07980469 18.39910889 21.60839844 C15.05220231 25.77045418 14.05486262 28.89368818 13.80145264 34.23339844 C13.66082764 36.05371094 13.66082764 36.05371094 12.66082764 37.05371094 C10.20590262 37.23435078 7.80578515 37.33172837 5.34832764 37.36621094 C4.67092529 37.39521484 3.99352295 37.42421875 3.29559326 37.45410156 C-0.09537073 37.49719299 -1.99030059 37.30902421 -4.75714111 35.28417969 C-7.3048873 31.6921721 -7.33917236 29.46648697 -7.33917236 25.05371094 C-6.02667236 22.67871094 -6.02667236 22.67871094 -3.33917236 21.05371094 C-1.69654903 20.82142077 -0.05006789 20.61569312 1.59832764 20.42871094 C4.98594544 19.8890904 6.24248993 19.58751742 8.38739014 16.85058594 C10.33339954 12.95856714 11.60433585 9.27967809 12.66082764 5.05371094 C-19.67917236 5.05371094 -52.01917236 5.05371094 -85.33917236 5.05371094 C-83.11390716 9.50424134 -81.34015993 12.32834706 -78.33917236 16.05371094 C-78.33917236 16.71371094 -78.33917236 17.37371094 -78.33917236 18.05371094 C-74.04917236 19.04371094 -69.75917236 20.03371094 -65.33917236 21.05371094 C-65.33917236 21.71371094 -65.33917236 22.37371094 -65.33917236 23.05371094 C-64.67917236 23.05371094 -64.01917236 23.05371094 -63.33917236 23.05371094 C-62.76013151 32.89740543 -62.76013151 32.89740543 -66.33917236 37.05371094 C-69.71246785 40.27529737 -72.70649836 42.36484297 -77.46417236 42.55371094 C-81.36400775 42.05050637 -83.46994676 41.74360994 -86.33917236 39.05371094 C-86.94784837 35.47773942 -86.78323068 33.75680327 -84.83917236 30.67871094 C-84.34417236 30.14246094 -83.84917236 29.60621094 -83.33917236 29.05371094 C-84.70042236 28.18746094 -84.70042236 28.18746094 -86.08917236 27.30371094 C-89.33917236 25.05371094 -89.33917236 25.05371094 -91.15167236 23.11621094 C-93.89296119 20.53156719 -96.88187916 19.01572515 -100.21807861 17.29980469 C-102.33917236 16.05371094 -102.33917236 16.05371094 -103.55426025 14.453125 C-106.34572695 12.26454791 -108.57153826 13.01392427 -112.01885986 13.41699219 C-112.668638 13.48782516 -113.31841614 13.55865814 -113.98788452 13.63163757 C-116.06538595 13.86115383 -118.13944509 14.11294316 -120.21417236 14.36621094 C-122.28206365 14.6040353 -124.35041504 14.83727172 -126.41903687 15.06864929 C-128.30199756 15.28160301 -130.1836686 15.50586945 -132.06524658 15.73071289 C-134.85575291 16.00601788 -137.53912763 16.11823572 -140.33917236 16.05371094 C-140.00917236 14.73371094 -139.67917236 13.41371094 -139.33917236 12.05371094 C-135.42401887 11.54137995 -131.50686771 11.04619586 -127.58917236 10.55371094 C-126.49733643 10.410625 -125.40550049 10.26753906 -124.28057861 10.12011719 C-118.76518288 9.43477216 -113.25268646 8.8818128 -107.69854736 8.64746094 C-106.7391626 8.60298828 -105.77977783 8.55851563 -104.7913208 8.51269531 C-102.33917236 9.05371094 -102.33917236 9.05371094 -100.66412354 11.4753418 C-100.22688965 12.32620361 -99.78965576 13.17706543 -99.33917236 14.05371094 C-96.78985394 15.78176626 -96.78985394 15.78176626 -93.90167236 17.11621094 C-89.99489105 19.03505183 -87.35112012 20.92762621 -84.33917236 24.05371094 C-82.37037913 25.11383037 -80.37481369 26.12841942 -78.33917236 27.05371094 C-78.73411409 29.91703846 -79.0422963 30.82880483 -81.40167236 32.61621094 C-82.04104736 33.09058594 -82.68042236 33.56496094 -83.33917236 34.05371094 C-83.33917236 35.04371094 -83.33917236 36.03371094 -83.33917236 37.05371094 C-77.84375349 38.16093243 -77.84375349 38.16093243 -72.52667236 36.99121094 C-69.77449052 34.55356417 -68.62182714 32.4966264 -67.33917236 29.05371094 C-67.08720414 25.8027073 -67.08720414 25.8027073 -67.33917236 23.05371094 C-67.87542236 23.25996094 -68.41167236 23.46621094 -68.96417236 23.67871094 C-72.32519185 24.20939822 -74.24649116 23.44226168 -77.33917236 22.05371094 C-81.44198567 18.66888996 -84.06134478 14.5692382 -86.91339111 10.14746094 C-88.49203143 7.82923844 -90.23886251 5.91167734 -92.33917236 4.05371094 C-92.00917236 3.06371094 -91.67917236 2.07371094 -91.33917236 1.05371094 C-80.42756975 0.92155918 -69.51594856 0.79106892 -58.60430241 0.66255951 C-53.53471484 0.60280439 -48.4651347 0.54252861 -43.39556885 0.48095703 C-32.01467305 0.34303923 -20.63375312 0.21475051 -9.25256348 0.10351562 C-6.16831087 0.07314023 -3.0841537 0.0391277 0 0 Z " fill="#1D1D1D" transform="translate(585.3391723632813,243.9462890625)"/>
<path d="M0 0 C0.66 0 1.32 0 2 0 C-0.16945906 7.9546832 -7.5501951 12.6277534 -14.08203125 16.93359375 C-16 18 -16 18 -18 18 C-18 18.66 -18 19.32 -18 20 C-17.278125 19.9175 -16.55625 19.835 -15.8125 19.75 C-11.91603362 20.09635257 -10.5399272 21.02465671 -8 24 C-7.20796568 27.16813728 -7.20522138 29.83215898 -8 33 C-9.77391701 35.62757673 -11.12197375 36.34779974 -14 38 C-17.125 38.5 -17.125 38.5 -20 38 C-20.8971875 37.195625 -20.8971875 37.195625 -21.8125 36.375 C-23.84430221 34.76688761 -23.84430221 34.76688761 -25.89453125 35.28125 C-26.63058594 35.4771875 -27.36664062 35.673125 -28.125 35.875 C-35.95701024 37.94553144 -43.84518241 36.7051734 -51 33 C-52.5 29.8125 -52.5 29.8125 -53 27 C-52.01 27 -51.02 27 -50 27 C-49.67 27.99 -49.34 28.98 -49 30 C-42.458713 33.09850437 -36.87655195 34.29218398 -29.8125 31.9375 C-26.66532752 30.88844251 -25.11750618 30.96083127 -22 32 C-21.34 32.66 -20.68 33.32 -20 34 C-17.04230823 34.50010524 -17.04230823 34.50010524 -14 34 C-11.9214392 32.42304368 -11.9214392 32.42304368 -11 30 C-10.99364754 27.36462492 -10.99364754 27.36462492 -12 25 C-15.6441774 22.5705484 -17.71241272 22.83820425 -22 23 C-22.33 23.66 -22.66 24.32 -23 25 C-28.94 25.33 -34.88 25.66 -41 26 C-41 26.66 -41 27.32 -41 28 C-43.64 27.67 -46.28 27.34 -49 27 C-48.67 26.01 -48.34 25.02 -48 24 C-44.14155171 22.71385057 -40.44158462 22.62828672 -36.3984375 22.37890625 C-35.60695313 22.25386719 -34.81546875 22.12882812 -34 22 C-33.67 21.34 -33.34 20.68 -33 20 C-31.34428601 19.61594263 -29.67469622 19.29031267 -28 19 C-20.81659048 16.83026709 -15.25396509 13.28760746 -9.34765625 8.70703125 C-7 7 -7 7 -4 6 C-2.90833725 4.06669397 -2.90833725 4.06669397 -2 2 C-1.34 1.34 -0.68 0.68 0 0 Z " fill="#101010" transform="translate(663,222)"/>
<path d="M0 0 C0.33 0.99 0.66 1.98 1 3 C0.08476562 3.13277344 -0.83046875 3.26554688 -1.7734375 3.40234375 C-2.96195312 3.57894531 -4.15046875 3.75554687 -5.375 3.9375 C-6.55835938 4.11152344 -7.74171875 4.28554687 -8.9609375 4.46484375 C-11.90702381 4.83462786 -11.90702381 4.83462786 -14 6 C-14.46651207 8.12576782 -14.46651207 8.12576782 -14.625 10.5625 C-14.69976562 11.38878906 -14.77453125 12.21507812 -14.8515625 13.06640625 C-14.90054687 13.70449219 -14.94953125 14.34257812 -15 15 C-14.34 15 -13.68 15 -13 15 C-13 15.99 -13 16.98 -13 18 C-12.34 18 -11.68 18 -11 18 C-11 18.99 -11 19.98 -11 21 C-6.84373632 22.00926479 -2.95634906 22.10239579 1.3125 22.0625 C2.56675781 22.05347656 3.82101562 22.04445312 5.11328125 22.03515625 C6.06589844 22.02355469 7.01851563 22.01195312 8 22 C8 22.99 8 23.98 8 25 C-7.40139096 26.77297566 -7.40139096 26.77297566 -13 23 C-16.45080535 18.64108798 -18.13921721 15.03913949 -18.25 9.5 C-18.27578125 8.7265625 -18.3015625 7.953125 -18.328125 7.15625 C-17.91786989 4.46028784 -17.11846448 3.6616392 -15 2 C-9.99343982 -0.26487246 -5.37723694 -0.21508948 0 0 Z " fill="#181818" transform="translate(462,193)"/>
<path d="M0 0 C8.74507107 -0.10621544 17.30019136 -0.01286753 26 1 C26 1.66 26 2.32 26 3 C17.75 3 9.5 3 1 3 C0.67 2.01 0.34 1.02 0 0 Z " fill="#191919" transform="translate(449,228)"/>
<path d="M0 0 C0.66 0.99 1.32 1.98 2 3 C1.401875 3.721875 0.80375 4.44375 0.1875 5.1875 C-1.7848444 7.72337137 -3.36031704 10.24533262 -5 13 C-5.41636719 13.51304687 -5.83273437 14.02609375 -6.26171875 14.5546875 C-10.0066658 19.21172767 -10.8519744 23.06551928 -11 29 C-11.33 29 -11.66 29 -12 29 C-13.37774541 18.49469125 -13.37774541 18.49469125 -11.57421875 16.1328125 C-10.64029297 15.13894531 -10.64029297 15.13894531 -9.6875 14.125 C-7.0459914 11.21774607 -4.87612883 8.47083834 -3 5 C-2 3.33333333 -1 1.66666667 0 0 Z " fill="#1C1C1C" transform="translate(610,251)"/>
<path d="M0 0 C0.99 0 1.98 0 3 0 C3.33 1.98 3.66 3.96 4 6 C4.66 5.01 5.32 4.02 6 3 C6.99 3.33 7.98 3.66 9 4 C8.125 8.875 8.125 8.875 7 10 C5.33382885 10.04063832 3.66611905 10.042721 2 10 C-0.09350689 6.5980513 -0.17942163 3.94727588 0 0 Z " fill="#1D1D1D" transform="translate(592,192)"/>
<path d="M0 0 C0.99 0 1.98 0 3 0 C3.25 6.625 3.25 6.625 1 10 C-1.5 10.375 -1.5 10.375 -4 10 C-6.29013653 6.5647952 -6.17842973 5.014669 -6 1 C-5.34 1 -4.68 1 -4 1 C-3.67 2.65 -3.34 4.3 -3 6 C-2.01 6.33 -1.02 6.66 0 7 C0 4.69 0 2.38 0 0 Z " fill="#0A0A0A" transform="translate(524,207)"/>
<path d="M0 0 C0.66 0 1.32 0 2 0 C2.25 7.625 2.25 7.625 0 11 C-4.875 10.125 -4.875 10.125 -6 9 C-6.04080783 7.00041636 -6.04254356 4.99954746 -6 3 C-5.34 3 -4.68 3 -4 3 C-3.67 4.65 -3.34 6.3 -3 8 C-2.34 7.67 -1.68 7.34 -1 7 C-0.59270772 4.67843403 -0.25561323 2.3431213 0 0 Z " fill="#070707" transform="translate(493,221)"/>
<path d="M0 0 C0.66 0 1.32 0 2 0 C2.33 1.65 2.66 3.3 3 5 C3.66 3.68 4.32 2.36 5 1 C5.66 1 6.32 1 7 1 C7.125 3.875 7.125 3.875 7 7 C6.34 7.66 5.68 8.32 5 9 C3.68 9 2.36 9 1 9 C-0.4783226 6.04335481 -0.06032783 3.25770263 0 0 Z " fill="#0D0D0D" transform="translate(653,209)"/>
<path d="M0 0 C0.66 0 1.32 0 2 0 C2.25 5.625 2.25 5.625 0 9 C-1.65 8.67 -3.3 8.34 -5 8 C-5 6.02 -5 4.04 -5 2 C-4.34 2 -3.68 2 -3 2 C-3 2.99 -3 3.98 -3 5 C-2.34 4.67 -1.68 4.34 -1 4 C-0.34786708 1.97536745 -0.34786708 1.97536745 0 0 Z " fill="#101010" transform="translate(611,199)"/>
<path d="M0 0 C0.66 0 1.32 0 2 0 C2.125 2.875 2.125 2.875 2 6 C0 8 0 8 -2.625 8.125 C-3.40875 8.08375 -4.1925 8.0425 -5 8 C-5.33 6.02 -5.66 4.04 -6 2 C-5.01 2 -4.02 2 -3 2 C-3 2.99 -3 3.98 -3 5 C-2.34 4.67 -1.68 4.34 -1 4 C-0.34786708 1.97536745 -0.34786708 1.97536745 0 0 Z " fill="#080808" transform="translate(433,206)"/>
<path d="M0 0 C-0.309375 0.639375 -0.61875 1.27875 -0.9375 1.9375 C-2.31935403 5.92049104 -2.6536543 9.81650849 -3 14 C-3.33 14 -3.66 14 -4 14 C-5 6.375 -5 6.375 -5 3 C-2.55555556 0 -2.55555556 0 0 0 Z " fill="#4A4A4A" transform="translate(602,266)"/>
<path d="M0 0 C0.99 0.33 1.98 0.66 3 1 C2.01 3.64 1.02 6.28 0 9 C-0.99 8.67 -1.98 8.34 -3 8 C-1.125 2.25 -1.125 2.25 0 0 Z " fill="#242424" transform="translate(596,255)"/>
<path d="M0 0 C0 2.31 0 4.62 0 7 C-1.98 7.99 -1.98 7.99 -4 9 C-3.4140625 2.84765625 -3.4140625 2.84765625 -3 1 C-1 0 -1 0 0 0 Z " fill="#1A1A1A" transform="translate(423,248)"/>
<path d="M0 0 C0.33 0 0.66 0 1 0 C0.67 2.97 0.34 5.94 0 9 C-0.99 9.33 -1.98 9.66 -3 10 C-2.69201674 8.51988629 -2.378482 7.04092675 -2.0625 5.5625 C-1.88847656 4.73878906 -1.71445312 3.91507813 -1.53515625 3.06640625 C-1 1 -1 1 0 0 Z " fill="#020202" transform="translate(425,194)"/>
</svg>
