<?xml version="1.0" encoding="UTF-8"?>
<svg version="1.1" xmlns="http://www.w3.org/2000/svg" width="800" height="300">
<path d="M0 0 C264 0 528 0 800 0 C800 99 800 198 800 300 C536 300 272 300 0 300 C0 201 0 102 0 0 Z " fill="#FEFEFE" transform="translate(0,0)"/>
<path d="M0 0 C3.4249741 1.42754275 5.72163394 3.06853023 8 6 C8.33569336 8.54150391 8.33569336 8.54150391 8.21484375 11.2265625 C8.18382568 12.12197754 8.15280762 13.01739258 8.12084961 13.93994141 C8.08096924 14.61976074 8.04108887 15.29958008 8 16 C8.89638184 15.99476318 9.79276367 15.98952637 10.71630859 15.98413086 C34.22894404 15.86880128 57.73437989 16.06037804 81.24420929 16.40571976 C83.41879446 16.43722896 85.59339507 16.46732044 87.76800537 16.49703979 C114.38080642 16.86453774 114.38080642 16.86453774 125.66015625 17.47265625 C126.35604355 17.50975204 127.05193085 17.54684784 127.76890564 17.58506775 C131.25519781 17.80044519 134.59428626 18.22077139 138 19 C138.474375 18.195625 138.94875 17.39125 139.4375 16.5625 C142.61602277 13.38397723 144.54920585 13.24923049 148.87890625 12.84765625 C151 13 151 13 154 15 C154.42431591 18.81884318 154.5390434 21.12405448 152.5 24.4375 C151.7575 25.2109375 151.7575 25.2109375 151 26 C152.08980027 28.4520506 153.18051579 30.20487109 154.96875 32.234375 C161.03251372 40.49042252 161.07288745 53.77155624 159.61328125 63.60546875 C158.84052571 67.39506191 157.81982606 70.57444506 156 74 C155.34 74 154.68 74 154 74 C153.67 74.99 153.34 75.98 153 77 C150.890625 78.75390625 150.890625 78.75390625 148.25 80.5625 C147.38890625 81.16191406 146.5278125 81.76132813 145.640625 82.37890625 C143.14467925 83.91118064 140.74836645 85.00643587 138 86 C138 86.66 138 87.32 138 88 C138.886875 87.896875 139.77375 87.79375 140.6875 87.6875 C144 88 144 88 146.9375 90 C148.99868412 92.998086 149.36811321 93.59415087 149.1875 97 C148.5684465 100.08358726 147.61404122 101.85676585 145.3125 104 C141.69969293 106.18131748 140.12355079 106.71713927 136 106 C135.38125 105.46375 134.7625 104.9275 134.125 104.375 C131.86712062 102.55913081 131.86712062 102.55913081 128.1875 103.8125 C127.48625 104.01875 126.785 104.225 126.0625 104.4375 C118.93292868 106.38192854 110.51410507 104.25705253 104 101 C103.69707031 101.49628906 103.39414062 101.99257812 103.08203125 102.50390625 C100.22340641 107.13927638 97.32660912 111.68439898 94 116 C93.34 116 92.68 116 92 116 C92 119.63 92 123.26 92 127 C89.41554227 127.1081866 86.83562648 127.18737237 84.25 127.25 C83.52039063 127.28351563 82.79078125 127.31703125 82.0390625 127.3515625 C78.52119695 127.41552369 76.44109849 127.31747853 73.546875 125.234375 C71.05035985 121.62829756 71 119.39908827 71 115 C72.3125 112.625 72.3125 112.625 75 111 C76.64171172 110.74296433 78.28839436 110.51679219 79.9375 110.3125 C83.13698812 109.79340901 84.5517851 109.50500231 86.7265625 107.0546875 C89.03069891 102.97191947 90.06808823 99.65955886 91 95 C58.66 95 26.32 95 -7 95 C-2.72765238 103.66340524 -2.72765238 103.66340524 4.8359375 109.1796875 C6.75765664 109.66894408 8.69501894 110.10183111 10.64453125 110.46484375 C13 111 13 111 15 113 C15.62838874 117.70367457 15.67329295 122.99006058 13 127 C9.29375135 130.2008511 5.71724633 132.30727257 0.75 132.4375 C-5.09128631 131.7560166 -5.09128631 131.7560166 -7 130 C-7.9375 126.625 -7.9375 126.625 -8 123 C-6.5625 120.5625 -6.5625 120.5625 -5 119 C-6.0828125 118.4121875 -6.0828125 118.4121875 -7.1875 117.8125 C-10 116 -10 116 -12.25 113.625 C-15.28405646 110.7288552 -18.26647892 109.12771024 -22.01171875 107.30859375 C-24.3101428 105.79587851 -25.00118804 104.52640672 -26 102 C-26.64582031 102.12117188 -27.29164063 102.24234375 -27.95703125 102.3671875 C-41.48842487 104.77359129 -55.23873189 106.49441682 -69 106 C-69.14308594 106.78761719 -69.28617187 107.57523437 -69.43359375 108.38671875 C-70 111 -70 111 -71.0625 112.8125 C-74.24552437 114.76338591 -77.44930489 114.73693672 -81 114 C-84.02023186 112.25008025 -86.41553692 110.16892615 -88 107 C-88.11697217 101.34355994 -87.96841169 96.50958293 -84.875 91.6875 C-81.04659143 89.44039062 -79.26100457 89.97148165 -75 91 C-73.0509375 91.2784375 -73.0509375 91.2784375 -71.0625 91.5625 C-70.051875 91.706875 -69.04125 91.85125 -68 92 C-68.96099609 91.39478516 -68.96099609 91.39478516 -69.94140625 90.77734375 C-77.88202433 85.20352689 -82.77917188 78.41438006 -85 69 C-86.7819346 55.51116951 -86.00994278 40.28754003 -77.81640625 28.97265625 C-74.68538846 25.5723036 -70.96942242 23.3060454 -67 21 C-66.01 20.34 -65.02 19.68 -64 19 C-62.0103005 18.60986284 -60.00980131 18.26797351 -58 18 C-57.90203125 17.34773438 -57.8040625 16.69546875 -57.703125 16.0234375 C-56.75353864 10.47326894 -55.934985 6.15359528 -52 2 C-48.75 1.625 -48.75 1.625 -46 2 C-46 2.66 -46 3.32 -46 4 C-45.01 4.33 -44.02 4.66 -43 5 C-41.0549 7.91765 -40.54723683 9.62537285 -40 13 C-39.16726563 12.67515625 -38.33453125 12.3503125 -37.4765625 12.015625 C-33.62009989 10.88901795 -30.38660276 10.73392143 -26.375 10.75 C-24.43753906 10.74226562 -24.43753906 10.74226562 -22.4609375 10.734375 C-19.31589796 10.97575501 -17.61376712 11.32825047 -15 13 C-15.0825 11.948125 -15.165 10.89625 -15.25 9.8125 C-14.96269651 5.43112175 -14.05154419 4.05154419 -11 1 C-7.45168665 -0.77415668 -3.86515634 -0.61867003 0 0 Z " fill="#FDFDFD" transform="translate(499,154)"/>
<path d="M0 0 C3.4249741 1.42754275 5.72163394 3.06853023 8 6 C8.33569336 8.54150391 8.33569336 8.54150391 8.21484375 11.2265625 C8.18382568 12.12197754 8.15280762 13.01739258 8.12084961 13.93994141 C8.08096924 14.61976074 8.04108887 15.29958008 8 16 C8.89638184 15.99476318 9.79276367 15.98952637 10.71630859 15.98413086 C34.22894404 15.86880128 57.73437989 16.06037804 81.24420929 16.40571976 C83.41879446 16.43722896 85.59339507 16.46732044 87.76800537 16.49703979 C114.38080642 16.86453774 114.38080642 16.86453774 125.66015625 17.47265625 C126.35604355 17.50975204 127.05193085 17.54684784 127.76890564 17.58506775 C131.25519781 17.80044519 134.59428626 18.22077139 138 19 C138.474375 18.195625 138.94875 17.39125 139.4375 16.5625 C142.61602277 13.38397723 144.54920585 13.24923049 148.87890625 12.84765625 C151 13 151 13 154 15 C154.42431591 18.81884318 154.5390434 21.12405448 152.5 24.4375 C151.7575 25.2109375 151.7575 25.2109375 151 26 C152.08980027 28.4520506 153.18051579 30.20487109 154.96875 32.234375 C161.03251372 40.49042252 161.07288745 53.77155624 159.61328125 63.60546875 C158.84052571 67.39506191 157.81982606 70.57444506 156 74 C155.34 74 154.68 74 154 74 C153.67 74.99 153.34 75.98 153 77 C150.890625 78.75390625 150.890625 78.75390625 148.25 80.5625 C147.38890625 81.16191406 146.5278125 81.76132813 145.640625 82.37890625 C143.14467925 83.91118064 140.74836645 85.00643587 138 86 C138 86.66 138 87.32 138 88 C138.886875 87.896875 139.77375 87.79375 140.6875 87.6875 C144 88 144 88 146.9375 90 C148.99868412 92.998086 149.36811321 93.59415087 149.1875 97 C148.5684465 100.08358726 147.61404122 101.85676585 145.3125 104 C141.69969293 106.18131748 140.12355079 106.71713927 136 106 C135.38125 105.46375 134.7625 104.9275 134.125 104.375 C131.86712062 102.55913081 131.86712062 102.55913081 128.1875 103.8125 C127.48625 104.01875 126.785 104.225 126.0625 104.4375 C118.93292868 106.38192854 110.51410507 104.25705253 104 101 C103.69707031 101.49628906 103.39414062 101.99257812 103.08203125 102.50390625 C100.22340641 107.13927638 97.32660912 111.68439898 94 116 C93.34 116 92.68 116 92 116 C92 119.63 92 123.26 92 127 C89.41554227 127.1081866 86.83562648 127.18737237 84.25 127.25 C83.52039063 127.28351563 82.79078125 127.31703125 82.0390625 127.3515625 C78.52119695 127.41552369 76.44109849 127.31747853 73.546875 125.234375 C71.05035985 121.62829756 71 119.39908827 71 115 C72.3125 112.625 72.3125 112.625 75 111 C76.64171172 110.74296433 78.28839436 110.51679219 79.9375 110.3125 C83.13698812 109.79340901 84.5517851 109.50500231 86.7265625 107.0546875 C89.03069891 102.97191947 90.06808823 99.65955886 91 95 C58.66 95 26.32 95 -7 95 C-2.72765238 103.66340524 -2.72765238 103.66340524 4.8359375 109.1796875 C6.75765664 109.66894408 8.69501894 110.10183111 10.64453125 110.46484375 C13 111 13 111 15 113 C15.62838874 117.70367457 15.67329295 122.99006058 13 127 C9.29375135 130.2008511 5.71724633 132.30727257 0.75 132.4375 C-5.09128631 131.7560166 -5.09128631 131.7560166 -7 130 C-7.9375 126.625 -7.9375 126.625 -8 123 C-6.5625 120.5625 -6.5625 120.5625 -5 119 C-6.0828125 118.4121875 -6.0828125 118.4121875 -7.1875 117.8125 C-10 116 -10 116 -12.25 113.625 C-15.28405646 110.7288552 -18.26647892 109.12771024 -22.01171875 107.30859375 C-24.3101428 105.79587851 -25.00118804 104.52640672 -26 102 C-26.64582031 102.12117188 -27.29164063 102.24234375 -27.95703125 102.3671875 C-41.48842487 104.77359129 -55.23873189 106.49441682 -69 106 C-69.14308594 106.78761719 -69.28617187 107.57523437 -69.43359375 108.38671875 C-70 111 -70 111 -71.0625 112.8125 C-74.24552437 114.76338591 -77.44930489 114.73693672 -81 114 C-84.02023186 112.25008025 -86.41553692 110.16892615 -88 107 C-88.11697217 101.34355994 -87.96841169 96.50958293 -84.875 91.6875 C-81.04659143 89.44039062 -79.26100457 89.97148165 -75 91 C-73.0509375 91.2784375 -73.0509375 91.2784375 -71.0625 91.5625 C-70.051875 91.706875 -69.04125 91.85125 -68 92 C-68.96099609 91.39478516 -68.96099609 91.39478516 -69.94140625 90.77734375 C-77.88202433 85.20352689 -82.77917188 78.41438006 -85 69 C-86.7819346 55.51116951 -86.00994278 40.28754003 -77.81640625 28.97265625 C-74.68538846 25.5723036 -70.96942242 23.3060454 -67 21 C-66.01 20.34 -65.02 19.68 -64 19 C-62.0103005 18.60986284 -60.00980131 18.26797351 -58 18 C-57.90203125 17.34773438 -57.8040625 16.69546875 -57.703125 16.0234375 C-56.75353864 10.47326894 -55.934985 6.15359528 -52 2 C-48.75 1.625 -48.75 1.625 -46 2 C-46 2.66 -46 3.32 -46 4 C-45.01 4.33 -44.02 4.66 -43 5 C-41.0549 7.91765 -40.54723683 9.62537285 -40 13 C-39.16726563 12.67515625 -38.33453125 12.3503125 -37.4765625 12.015625 C-33.62009989 10.88901795 -30.38660276 10.73392143 -26.375 10.75 C-24.43753906 10.74226562 -24.43753906 10.74226562 -22.4609375 10.734375 C-19.31589796 10.97575501 -17.61376712 11.32825047 -15 13 C-15.0825 11.948125 -15.165 10.89625 -15.25 9.8125 C-14.96269651 5.43112175 -14.05154419 4.05154419 -11 1 C-7.45168665 -0.77415668 -3.86515634 -0.61867003 0 0 Z M-11 6 C-12.26026798 8.52053595 -11.91874445 9.8542098 -11.5625 12.625 C-11.40974609 13.85089844 -11.40974609 13.85089844 -11.25390625 15.1015625 C-11.17011719 15.72804687 -11.08632813 16.35453125 -11 17 C-12.010625 16.67 -13.02125 16.34 -14.0625 16 C-23.79130426 13.58075915 -34.38425617 14.46596868 -44 17 C-43.896875 15.783125 -43.79375 14.56625 -43.6875 13.3125 C-43.65408479 9.54994773 -43.90669702 9.11196358 -46.5 6 C-47.325 5.34 -48.15 4.68 -49 4 C-52.04627552 4.74119988 -52.04627552 4.74119988 -53.6875 6.875 C-55.64147424 11.52731963 -55.23543982 16.02088383 -55 21 C-55.845625 21.103125 -56.69125 21.20625 -57.5625 21.3125 C-63.16231909 22.43246382 -68.31144497 24.73221922 -73 28 C-73 28.66 -73 29.32 -73 30 C-73.66 30 -74.32 30 -75 30 C-75.80710015 31.30306627 -76.59470177 32.61820965 -77.375 33.9375 C-78.03628906 35.03384766 -78.03628906 35.03384766 -78.7109375 36.15234375 C-81.87999694 43.15308416 -82.36331384 50.4039958 -82.375 58 C-82.39949219 58.83789062 -82.42398437 59.67578125 -82.44921875 60.5390625 C-82.49166426 69.67899548 -78.79301748 78.00327928 -72.4375 84.62890625 C-65.61658482 90.94738795 -58.51664186 91.31556961 -49.5625 91.625 C-48.64017578 91.66367188 -47.71785156 91.70234375 -46.76757812 91.7421875 C-44.51190857 91.83568676 -42.25623084 91.9214391 -40 92 C-47.08783799 93.42736164 -54.02768828 94.32855376 -61.25 94.75390625 C-64.08839777 94.90146001 -64.08839777 94.90146001 -67 96 C-70.4375 96.3125 -70.4375 96.3125 -74 96 C-75.37195574 94.70644173 -76.71182656 93.37701298 -78 92 C-81.01811422 92.17753613 -81.83735215 92.83735215 -84 95 C-84.89281998 98.6717961 -85.21741919 102.227777 -85 106 C-83.16348401 109.33821811 -83.16348401 109.33821811 -80 111 C-76.87237733 111.58442963 -76.87237733 111.58442963 -74 111 C-73.01 110.01 -73.01 110.01 -72 109 C-72.32041397 106.39719432 -72.32041397 106.39719432 -73 104 C-56.34608557 102.17315821 -39.69137375 100.44772119 -23 99 C-23.495 100.485 -23.495 100.485 -24 102 C-23.443125 102.36351562 -22.88625 102.72703125 -22.3125 103.1015625 C-18.41072178 105.67199072 -14.58031775 108.27699107 -10.875 111.125 C-7.40412194 113.77346117 -3.83720086 115.9215162 0 118 C-1.2375 119.0828125 -1.2375 119.0828125 -2.5 120.1875 C-5.24407806 122.72917366 -5.24407806 122.72917366 -5.3125 125.8125 C-5.209375 126.534375 -5.10625 127.25625 -5 128 C0.64351606 129.26691177 4.02254133 129.06305149 9 126 C11.29926387 122.19184422 12.09122096 120.00343051 11.6875 115.5625 C11.460625 114.716875 11.23375 113.87125 11 113 C10.3709375 112.96003906 9.741875 112.92007813 9.09375 112.87890625 C2.14571809 112.03133007 -1.03603641 109.74459616 -5.3828125 104.32421875 C-7.22837304 101.6717827 -8.64274875 98.92880533 -10 96 C-11.485 95.01 -11.485 95.01 -13 94 C-13 93.34 -13 92.68 -13 92 C-2.105669 91.86777357 8.78868137 91.73728108 19.68305779 91.60884857 C24.74477002 91.54912544 29.80647448 91.48886162 34.86816406 91.42724609 C45.38044722 91.29962588 55.89271519 91.17990533 66.40530014 91.07980347 C71.11484324 91.03382121 75.8237635 90.97465237 80.53285789 90.89510345 C83.56604905 90.84644655 86.59942788 90.81534674 89.6328125 90.78125 C91.19538284 90.74638489 91.19538284 90.74638489 92.78952026 90.71081543 C94.18365646 90.70024109 94.18365646 90.70024109 95.60595703 90.68945312 C96.39229523 90.67692505 97.17863342 90.66439697 97.98880005 90.65148926 C100 91 100 91 103 94 C100.03 94 97.06 94 94 94 C93.74605469 94.79664063 93.49210938 95.59328125 93.23046875 96.4140625 C91.46639089 101.84504377 89.60982449 106.91084225 87 112 C87 112.99 87 113.98 87 115 C86.01 114.67 85.02 114.34 84 114 C78.85056722 113.5982661 78.85056722 113.5982661 74 115 C74.32960216 120.01535052 74.32960216 120.01535052 77 124 C79.89883083 124.24339551 79.89883083 124.24339551 83.125 124.125 C84.22070312 124.10695313 85.31640625 124.08890625 86.4453125 124.0703125 C87.28835938 124.04710937 88.13140625 124.02390625 89 124 C89 121.36 89 118.72 89 116 C89.66 116 90.32 116 91 116 C91 115.34 91 114.68 91 114 C91.66 114 92.32 114 93 114 C94.48540336 112.38500163 94.48540336 112.38500163 95.9375 110.3125 C96.46601562 109.58546875 96.99453125 108.8584375 97.5390625 108.109375 C99.13857683 105.7999158 100.59844243 103.43428421 102 101 C102.33 100.67 102.66 100.34 103 100 C103.04063832 98.33382885 103.042721 96.66611905 103 95 C104.32 95 105.64 95 107 95 C107.33 94.34 107.66 93.68 108 93 C110.33744294 92.53193355 112.69739079 92.17330206 115.0625 91.875 C116.35285156 91.70742187 117.64320313 91.53984375 118.97265625 91.3671875 C119.97167969 91.24601562 120.97070312 91.12484375 122 91 C122.33 90.01 122.66 89.02 123 88 C123.55429687 88.20625 124.10859375 88.4125 124.6796875 88.625 C131.02585891 89.65064386 138.35273955 83.92836941 143.375 80.5 C149.30595193 76.15752806 154.75870771 71.73947964 156.6875 64.375 C157.75249769 52.87302492 158.12051004 40.70301588 150.4375 31.42578125 C149.03721941 29.88846704 149.03721941 29.88846704 147 29 C146.375 26.9375 146.375 26.9375 146 25 C146.9590625 24.5359375 146.9590625 24.5359375 147.9375 24.0625 C149.93610821 23.1654837 149.93610821 23.1654837 151 22 C151.16666667 19.5 151.16666667 19.5 151 17 C149.95420381 15.73778302 149.95420381 15.73778302 147.625 15.8125 C144.76555137 15.79951452 144.76555137 15.79951452 142 18 C142.309375 18.61875 142.61875 19.2375 142.9375 19.875 C143.625 21.25 144.3125 22.625 145 24 C143.04096255 23.52372025 141.08278903 23.04388577 139.125 22.5625 C138.03445313 22.29566406 136.94390625 22.02882812 135.8203125 21.75390625 C133 21 133 21 131 20 C128.88625491 19.88430542 126.76888956 19.83299307 124.65209961 19.81054688 C123.99946136 19.80225357 123.34682312 19.79396027 122.67440796 19.78541565 C121.25088388 19.76798508 119.82733062 19.75282654 118.40376091 19.73963928 C116.1241284 19.71848821 113.84463062 19.69145242 111.56507874 19.66296387 C106.68927383 19.60320198 101.81339838 19.55145844 96.9375 19.5 C90.59238862 19.43179532 84.24733898 19.35953882 77.90234375 19.28125 C77.12594858 19.27184324 76.34955341 19.26243649 75.54963112 19.25274467 C64.7674946 19.1179272 54.0057752 18.82029218 43.23278809 18.33692932 C34.79390977 17.96428209 26.38434734 17.88173107 17.9375 17.9375 C16.55794444 17.94255332 15.17838696 17.94710909 13.79882812 17.95117188 C10.53249842 17.96263268 7.26627854 17.9788348 4 18 C4.16757812 16.89011719 4.33515625 15.78023437 4.5078125 14.63671875 C5.15097685 10.64109957 5.15097685 10.64109957 4 7 C1.558633 4.558633 -0.06917604 3.16289419 -3.5 2.5625 C-6.55933742 3.09788405 -8.49231495 4.18889413 -11 6 Z " fill="#1D1D1D" transform="translate(499,154)"/>
<path d="M0 0 C3.67330122 -0.04502749 7.34642012 -0.07636853 11.01989746 -0.10253906 C12.09190399 -0.11740356 13.16391052 -0.13226807 14.2684021 -0.14758301 C15.23972076 -0.15140991 16.21103943 -0.15523682 17.21179199 -0.15917969 C18.46767624 -0.17011658 18.46767624 -0.17011658 19.74893188 -0.18127441 C21.88708496 0.05371094 21.88708496 0.05371094 24.88708496 2.05371094 C24.88708496 2.71371094 24.88708496 3.37371094 24.88708496 4.05371094 C21.91708496 4.05371094 18.94708496 4.05371094 15.88708496 4.05371094 C15.78524902 4.88128906 15.68341309 5.70886719 15.57849121 6.56152344 C14.7776448 10.60647647 13.40788241 14.13761357 11.82458496 17.92871094 C11.5429248 18.61707031 11.26126465 19.30542969 10.97106934 20.01464844 C10.2819323 21.69661002 9.58527698 23.37548791 8.88708496 25.05371094 C4.59708496 25.05371094 0.30708496 25.05371094 -4.11291504 25.05371094 C-3.12291504 27.69371094 -2.13291504 30.33371094 -1.11291504 33.05371094 C2.84708496 33.38371094 6.80708496 33.71371094 10.88708496 34.05371094 C10.88708496 31.41371094 10.88708496 28.77371094 10.88708496 26.05371094 C11.54708496 26.05371094 12.20708496 26.05371094 12.88708496 26.05371094 C12.88708496 25.39371094 12.88708496 24.73371094 12.88708496 24.05371094 C13.54708496 24.05371094 14.20708496 24.05371094 14.88708496 24.05371094 C15.28927246 22.90902344 15.28927246 22.90902344 15.69958496 21.74121094 C16.87233987 19.0870814 17.84389858 18.01516986 19.88708496 16.05371094 C22.27102178 12.52548445 23.58916437 9.09230506 24.88708496 5.05371094 C26.24241333 4.93310303 26.24241333 4.93310303 27.62512207 4.81005859 C30.96736696 4.50815618 34.30861112 4.19788478 37.64953613 3.88183594 C39.09746625 3.74661561 40.54571547 3.61476913 41.9942627 3.48632812 C44.07274427 3.30144779 46.14978758 3.10458353 48.22692871 2.90527344 C50.10432739 2.7324585 50.10432739 2.7324585 52.01965332 2.55615234 C53.43903198 2.30744385 53.43903198 2.30744385 54.88708496 2.05371094 C55.21708496 1.39371094 55.54708496 0.73371094 55.88708496 0.05371094 C59.98633019 -0.26779849 62.23063582 -0.36013743 65.76208496 1.86621094 C67.88708496 4.05371094 67.88708496 4.05371094 68.88708496 7.05371094 C69.54708496 5.73371094 70.20708496 4.41371094 70.88708496 3.05371094 C70.65167425 9.99832704 70.65167425 9.99832704 68.69567871 12.69824219 C66.16263471 14.99319328 64.12491652 16.01565789 60.76208496 16.55371094 C57.88708496 16.05371094 57.88708496 16.05371094 56.01208496 14.42871094 C53.75420559 12.61284175 53.75420559 12.61284175 50.07458496 13.86621094 C49.37333496 14.07246094 48.67208496 14.27871094 47.94958496 14.49121094 C40.82001364 16.43563948 32.40119003 14.31076347 25.88708496 11.05371094 C25.58415527 11.55 25.28122559 12.04628906 24.96911621 12.55761719 C22.11049137 17.19298732 19.21369408 21.73810992 15.88708496 26.05371094 C15.22708496 26.05371094 14.56708496 26.05371094 13.88708496 26.05371094 C13.88708496 29.68371094 13.88708496 33.31371094 13.88708496 37.05371094 C11.30262723 37.16189754 8.72271144 37.24108331 6.13708496 37.30371094 C5.40747559 37.33722656 4.67786621 37.37074219 3.92614746 37.40527344 C0.40828191 37.46923463 -1.67181655 37.37118947 -4.56604004 35.28808594 C-7.06255519 31.68200849 -7.11291504 29.4527992 -7.11291504 25.05371094 C-5.80041504 22.67871094 -5.80041504 22.67871094 -3.11291504 21.05371094 C-1.47120332 20.79667526 0.17547932 20.57050313 1.82458496 20.36621094 C5.02407308 19.84711995 6.43887006 19.55871325 8.61364746 17.10839844 C10.91778388 13.02563041 11.95517319 9.7132698 12.88708496 5.05371094 C-19.45291504 5.05371094 -51.79291504 5.05371094 -85.11291504 5.05371094 C-85.44291504 4.39371094 -85.77291504 3.73371094 -86.11291504 3.05371094 C-82.48291504 3.05371094 -78.85291504 3.05371094 -75.11291504 3.05371094 C-75.11291504 2.39371094 -75.11291504 1.73371094 -75.11291504 1.05371094 C-66.30473621 0.92104062 -57.49652835 0.79053859 -48.68828011 0.66255951 C-44.59510894 0.60302504 -40.50194996 0.54283402 -36.40881348 0.48095703 C-26.35551189 0.32937659 -16.30216522 0.19298705 -6.24836731 0.07873535 C-4.16555056 0.05432775 -2.08277902 0.0274192 0 0 Z " fill="#222222" transform="translate(577.1129150390625,243.9462890625)"/>
<path d="M0 0 C1 1 1 1 1.25 4.3125 C0.99337817 8.09767206 0.56295176 9.33025858 -2 12 C-0.91019973 14.4520506 0.18051579 16.20487109 1.96875 18.234375 C8.03251372 26.49042252 8.07288745 39.77155624 6.61328125 49.60546875 C5.84052571 53.39506191 4.81982606 56.57444506 3 60 C2.34 60 1.68 60 1 60 C0.67 60.99 0.34 61.98 0 63 C-2.109375 64.75390625 -2.109375 64.75390625 -4.75 66.5625 C-5.61109375 67.16191406 -6.4721875 67.76132813 -7.359375 68.37890625 C-9.85532075 69.91118064 -12.25163355 71.00643587 -15 72 C-15 72.66 -15 73.32 -15 74 C-14.0925 73.9175 -13.185 73.835 -12.25 73.75 C-9 74 -9 74 -6.625 75.6875 C-4.72741996 78.38790237 -4.64117787 79.77060081 -5 83 C-5.99 83.495 -5.99 83.495 -7 84 C-7.4021875 82.824375 -7.4021875 82.824375 -7.8125 81.625 C-8.84814432 78.71885077 -8.84814432 78.71885077 -12 77 C-14.32387947 76.60612212 -16.65793749 76.26513915 -19 76 C-19.495 77.485 -19.495 77.485 -20 79 C-22.83275953 79.33896268 -25.66604661 79.67129694 -28.5 80 C-29.29148437 80.09539062 -30.08296875 80.19078125 -30.8984375 80.2890625 C-35.97029404 80.87107882 -40.89493859 81.09367085 -46 81 C-45.505 79.515 -45.505 79.515 -45 78 C-44.00097656 77.87882812 -43.00195312 77.75765625 -41.97265625 77.6328125 C-40.68230469 77.46523437 -39.39195312 77.29765625 -38.0625 77.125 C-36.77472656 76.96257812 -35.48695313 76.80015625 -34.16015625 76.6328125 C-32.59587891 76.31957031 -32.59587891 76.31957031 -31 76 C-30.67 75.34 -30.34 74.68 -30 74 C-28.3438054 73.61802052 -26.67436188 73.29223483 -25 73 C-15.0675551 69.89506765 -4.52540136 64.01437212 1.25 55.0625 C4.67040987 45.65637287 3.75173168 33.4720412 1 24 C-0.46950654 21.61838595 -2.00410309 19.99589691 -4 18 C-4 17.34 -4 16.68 -4 16 C-5.485 15.505 -5.485 15.505 -7 15 C-7 13.68 -7 12.36 -7 11 C-6.34 10.525625 -5.68 10.05125 -5 9.5625 C-4.34 9.046875 -3.68 8.53125 -3 8 C-2.66574265 5.37374861 -2.66574265 5.37374861 -3 3 C-6.04386724 2.91773332 -8.07175348 3.02391783 -11 4 C-10.505 4.61875 -10.01 5.2375 -9.5 5.875 C-8 8 -8 8 -8 10 C-9.39664108 9.88437394 -10.79231199 9.757008 -12.1875 9.625 C-13.35345703 9.52058594 -13.35345703 9.52058594 -14.54296875 9.4140625 C-17 9 -17 9 -19.22221375 7.99978638 C-22.5619169 6.79775375 -25.35355508 6.68016495 -28.90161133 6.58935547 C-29.57533783 6.56955627 -30.24906433 6.54975708 -30.94320679 6.52935791 C-33.15600843 6.46650452 -35.36889577 6.41676526 -37.58203125 6.3671875 C-39.121904 6.32601567 -40.66175497 6.28402188 -42.20158386 6.24124146 C-46.24390979 6.13113731 -50.28643397 6.03217162 -54.32910156 5.93554688 C-58.45851167 5.83486916 -62.5876358 5.72362676 -66.71679688 5.61328125 C-74.81095572 5.3985313 -82.90535467 5.19555122 -91 5 C-91 4.67 -91 4.34 -91 4 C-81.82910742 3.97681556 -72.65822496 3.95905378 -63.48730946 3.94818783 C-59.2287524 3.94297236 -54.97021542 3.93589896 -50.71166992 3.92456055 C-46.60088084 3.9136842 -42.49011106 3.90771309 -38.3793087 3.90512276 C-36.81205631 3.90327707 -35.24480497 3.89967293 -33.67756081 3.89426994 C-31.4800858 3.88699652 -29.28269021 3.88601172 -27.08520508 3.88647461 C-25.83500076 3.884254 -24.58479645 3.88203339 -23.29670715 3.87974548 C-20.39576466 3.98556363 -17.81545765 4.32540867 -15 5 C-14.443125 4.195625 -13.88625 3.39125 -13.3125 2.5625 C-11 0 -11 0 -8.625 -0.875 C-5.59305085 -1.01937853 -2.95662241 -0.67195964 0 0 Z " fill="#111111" transform="translate(652,168)"/>
<path d="M0 0 C0.99 0 1.98 0 3 0 C3.27972656 0.58007812 3.55945313 1.16015625 3.84765625 1.7578125 C7.27570744 8.43755211 10.84347738 13.48421602 18.07421875 16.12109375 C22.79517109 17.36275686 27.58094768 17.45717098 32.4375 17.625 C33.82098633 17.68300781 33.82098633 17.68300781 35.23242188 17.7421875 C37.48809143 17.83568676 39.74376916 17.9214391 42 18 C42.495 18.99 42.495 18.99 43 20 C35.57517603 21.3779403 28.25498965 22.30606728 20.71484375 22.75390625 C17.90612029 22.90390885 17.90612029 22.90390885 15 24 C11.5625 24.3125 11.5625 24.3125 8 24 C6.62804426 22.70644173 5.28817344 21.37701298 4 20 C1.78141747 20.13641377 1.78141747 20.13641377 0 21 C-1.97454988 26.89883171 -1.97454988 26.89883171 -2 33 C-0.47981752 35.43695474 -0.47981752 35.43695474 2 37 C5.167832 37.33448259 5.167832 37.33448259 8 37 C8.5534764 34.92446352 9 33.15634036 9 31 C12.82092412 29.62446732 16.08234111 30.18690098 20 31 C20.33 31.66 20.66 32.32 21 33 C18.36 33 15.72 33 13 33 C12.896875 33.763125 12.79375 34.52625 12.6875 35.3125 C11.64768683 39.3772242 11.64768683 39.3772242 9 41 C2.47658184 41.85553025 2.47658184 41.85553025 -0.8203125 39.9453125 C-2.99249062 38.17189171 -4.73772527 36.52454947 -6 34 C-6.11697217 28.34355994 -5.96841169 23.50958293 -2.875 18.6875 C0.95340857 16.44039062 2.73899543 16.97148165 7 18 C8.299375 18.185625 9.59875 18.37125 10.9375 18.5625 C11.948125 18.706875 12.95875 18.85125 14 19 C13.32453125 18.5153125 12.6490625 18.030625 11.953125 17.53125 C6.14959087 13.17021279 2.55198521 9.84396033 0 3 C0 2.01 0 1.02 0 0 Z " fill="#131313" transform="translate(417,227)"/>
<path d="M0 0 C4.24480464 -0.33292585 6.35542625 -0.43885872 9.9375 2 C10.9584375 2.99 10.9584375 2.99 12 4 C11.40425532 9.36170213 11.40425532 9.36170213 9.8125 11.875 C7.19985125 13.49664405 5.00479298 13.20031953 2 13 C1.34 11.68 0.68 10.36 0 9 C-0.75023437 9.22816406 -1.50046875 9.45632812 -2.2734375 9.69140625 C-10.35873994 11.96221537 -17.25904898 13.08601845 -25.125 9.625 C-25.74375 9.08875 -26.3625 8.5525 -27 8 C-27 7.01 -27 6.02 -27 5 C-25.82642944 4.87939209 -25.82642944 4.87939209 -24.62915039 4.75634766 C-21.10585324 4.38884058 -17.58424103 4.00711901 -14.0625 3.625 C-12.83080078 3.49867188 -11.59910156 3.37234375 -10.33007812 3.2421875 C-8.5753418 3.04882812 -8.5753418 3.04882812 -6.78515625 2.8515625 C-5.70113525 2.73635254 -4.61711426 2.62114258 -3.50024414 2.50244141 C-2.67516357 2.33663574 -1.85008301 2.17083008 -1 2 C-0.67 1.34 -0.34 0.68 0 0 Z " fill="#F7F7F7" transform="translate(633,244)"/>
<path d="M0 0 C0 2.31 0 4.62 0 7 C-0.66 7.33 -1.32 7.66 -2 8 C-2.495 5.525 -2.495 5.525 -3 3 C-6.04386724 2.91773332 -8.07175348 3.02391783 -11 4 C-10.505 4.61875 -10.01 5.2375 -9.5 5.875 C-8 8 -8 8 -8 10 C-9.39664108 9.88437394 -10.79231199 9.757008 -12.1875 9.625 C-13.35345703 9.52058594 -13.35345703 9.52058594 -14.54296875 9.4140625 C-17 9 -17 9 -19.22221375 7.99978638 C-22.5619169 6.79775375 -25.35355508 6.68016495 -28.90161133 6.58935547 C-29.57533783 6.56955627 -30.24906433 6.54975708 -30.94320679 6.52935791 C-33.15600843 6.46650452 -35.36889577 6.41676526 -37.58203125 6.3671875 C-39.121904 6.32601567 -40.66175497 6.28402188 -42.20158386 6.24124146 C-46.24390979 6.13113731 -50.28643397 6.03217162 -54.32910156 5.93554688 C-58.45851167 5.83486916 -62.5876358 5.72362676 -66.71679688 5.61328125 C-74.81095572 5.3985313 -82.90535467 5.19555122 -91 5 C-91 4.67 -91 4.34 -91 4 C-81.82910742 3.97681556 -72.65822496 3.95905378 -63.48730946 3.94818783 C-59.2287524 3.94297236 -54.97021542 3.93589896 -50.71166992 3.92456055 C-46.60088084 3.9136842 -42.49011106 3.90771309 -38.3793087 3.90512276 C-36.81205631 3.90327707 -35.24480497 3.89967293 -33.67756081 3.89426994 C-31.4800858 3.88699652 -29.28269021 3.88601172 -27.08520508 3.88647461 C-25.83500076 3.884254 -24.58479645 3.88203339 -23.29670715 3.87974548 C-20.39576466 3.98556363 -17.81545765 4.32540867 -15 5 C-14.443125 4.195625 -13.88625 3.39125 -13.3125 2.5625 C-11 0 -11 0 -8.625 -0.875 C-5.61245565 -1.01845449 -2.94601169 -0.6166071 0 0 Z " fill="#090909" transform="translate(652,168)"/>
<path d="M0 0 C0.33 0.99 0.66 1.98 1 3 C-0.24716797 3.05607422 -0.24716797 3.05607422 -1.51953125 3.11328125 C-2.60621094 3.17902344 -3.69289063 3.24476563 -4.8125 3.3125 C-6.43091797 3.39951172 -6.43091797 3.39951172 -8.08203125 3.48828125 C-10.97071555 3.78569481 -10.97071555 3.78569481 -12.890625 5.3046875 C-14.5367818 7.82029332 -14.06147856 10.06587358 -13.5859375 12.9296875 C-12.68360813 16.11791796 -11.05951797 18.44120495 -9 21 C-5.81175432 22.59412284 -2.37103338 22.10174735 1.125 22.0625 C2.25615234 22.05573242 2.25615234 22.05573242 3.41015625 22.04882812 C5.27347127 22.03703499 7.13674555 22.01909942 9 22 C9 22.99 9 23.98 9 25 C2.74566167 26.66782356 -3.54412763 26.56364284 -9.8125 25.125 C-15.04126619 21.63915587 -17.03596332 16.71475466 -18.5859375 10.7421875 C-18.8125 8.6875 -18.8125 8.6875 -18 5 C-13.06168079 -0.47075255 -6.92162069 -0.6382642 0 0 Z " fill="#202020" transform="translate(454,193)"/>
<path d="M0 0 C0.33 0 0.66 0 1 0 C1.36923077 6.4 1.36923077 6.4 -0.5 9.4375 C-0.995 9.953125 -1.49 10.46875 -2 11 C-0.91019973 13.4520506 0.18051579 15.20487109 1.96875 17.234375 C7.60061263 24.90237258 7.79034001 36.78800417 7 46 C6.48819756 49.07518905 5.80467472 51.98246979 5 55 C4.01 54.67 3.02 54.34 2 54 C2.165 52.906875 2.33 51.81375 2.5 50.6875 C3.59898195 41.62488077 4.72149837 29.03139391 -0.24609375 20.98046875 C-1.43438713 19.59693169 -2.71038456 18.28961544 -4 17 C-4 16.34 -4 15.68 -4 15 C-4.99 14.67 -5.98 14.34 -7 14 C-7 12.68 -7 11.36 -7 10 C-6.030625 9.38125 -5.06125 8.7625 -4.0625 8.125 C-0.70063643 6.28010482 -0.70063643 6.28010482 -0.125 2.75 C-0.08375 1.8425 -0.0425 0.935 0 0 Z " fill="#1D1D1D" transform="translate(652,169)"/>
<path d="M0 0 C0.99 0.33 1.98 0.66 3 1 C1.17272355 7.63079863 -1.08515322 13.7682586 -4 20 C-8.29 20 -12.58 20 -17 20 C-17.33 20.99 -17.66 21.98 -18 23 C-18.66 23.66 -19.32 24.32 -20 25 C-19.63652803 18.57866184 -19.63652803 18.57866184 -16.9375 16.125 C-14.21581328 15.0826519 -12.81295139 14.93880986 -10 14.875 C-7.14043408 14.62634209 -6.29271732 14.34665786 -4.41015625 12.1171875 C-2.14423733 8.13705165 -0.76235778 4.52599774 0 0 Z " fill="#101010" transform="translate(590,249)"/>
<path d="M0 0 C0.33 0 0.66 0 1 0 C1.62467866 8.12082262 1.62467866 8.12082262 -0.6875 11.375 C-1.450625 11.91125 -2.21375 12.4475 -3 13 C-3.7425 13.5775 -4.485 14.155 -5.25 14.75 C-9.13081421 16.51400646 -11.73892526 16.33818053 -16 16 C-18.5 15 -18.5 15 -20 14 C-19.67 12.02 -19.34 10.04 -19 8 C-18.67 9.32 -18.34 10.64 -18 12 C-12.80790596 12.21192221 -8.873261 11.5912689 -4 10 C-3.896875 9.278125 -3.79375 8.55625 -3.6875 7.8125 C-2.93659472 4.74061475 -1.78158272 2.59814146 0 0 Z " fill="#171717" transform="translate(512,270)"/>
<path d="M0 0 C0.33 0 0.66 0 1 0 C0.76458928 6.9446161 0.76458928 6.9446161 -1.19140625 9.64453125 C-3.72445025 11.93948234 -5.76216844 12.96194695 -9.125 13.5 C-12 13 -12 13 -13.8515625 11.44921875 C-16.61912702 9.58237068 -17.99466574 9.8413332 -21.25 10.3125 C-22.14203125 10.43238281 -23.0340625 10.55226563 -23.953125 10.67578125 C-24.62859375 10.78277344 -25.3040625 10.88976562 -26 11 C-23.63347921 7.17067834 -23.63347921 7.17067834 -20.73828125 6.390625 C-19.93777344 6.34421875 -19.13726563 6.2978125 -18.3125 6.25 C-17.50425781 6.19328125 -16.69601562 6.1365625 -15.86328125 6.078125 C-15.24839844 6.05234375 -14.63351562 6.0265625 -14 6 C-13.01 7.485 -13.01 7.485 -12 9 C-9.1284035 9.66790364 -9.1284035 9.66790364 -6 9 C-3.19259115 6.75407292 -1.38835844 5.10532787 -0.1875 1.6875 C-0.0946875 0.8521875 -0.0946875 0.8521875 0 0 Z " fill="#191919" transform="translate(647,247)"/>
<path d="M0 0 C0.33 0.99 0.66 1.98 1 3 C-0.24716797 3.05607422 -0.24716797 3.05607422 -1.51953125 3.11328125 C-2.60621094 3.17902344 -3.69289063 3.24476563 -4.8125 3.3125 C-6.43091797 3.39951172 -6.43091797 3.39951172 -8.08203125 3.48828125 C-10.96311696 3.7828754 -10.96311696 3.7828754 -12.84375 5.28125 C-14.22136717 7.3290593 -14.48681783 8.73917755 -14.6875 11.1875 C-14.790625 12.445625 -14.89375 13.70375 -15 15 C-15.99 14.34 -16.98 13.68 -18 13 C-18.8924831 8.05077555 -18.8924831 8.05077555 -18 5 C-13.14781155 -0.50966656 -6.86203406 -0.63276953 0 0 Z " fill="#1A1A1A" transform="translate(454,193)"/>
<path d="M0 0 C0.66 0 1.32 0 2 0 C2 3.3 2 6.6 2 10 C-0.60478883 10.0809313 -3.20706653 10.14045434 -5.8125 10.1875 C-6.91948242 10.22520508 -6.91948242 10.22520508 -8.04882812 10.26367188 C-13.48575047 10.33747625 -13.48575047 10.33747625 -16 8.6875 C-17.50580734 6.14645011 -17.19214994 3.88224911 -17 1 C-14 3 -14 3 -13.1953125 5.078125 C-12.60363281 6.02945312 -12.60363281 6.02945312 -12 7 C-9.1213065 7.70535611 -9.1213065 7.70535611 -5.875 7.75 C-4.23144531 7.83507812 -4.23144531 7.83507812 -2.5546875 7.921875 C-1.71164062 7.94765625 -0.86859375 7.9734375 0 8 C0 5.36 0 2.72 0 0 Z " fill="#111111" transform="translate(588,270)"/>
<path d="M0 0 C0.886875 0.165 1.77375 0.33 2.6875 0.5 C2.6875 1.16 2.6875 1.82 2.6875 2.5 C3.6775 2.83 4.6675 3.16 5.6875 3.5 C6.6775 4.985 6.6775 4.985 7.6875 6.5 C7.3575 7.49 7.0275 8.48 6.6875 9.5 C6.0275 9.5 5.3675 9.5 4.6875 9.5 C3.02083333 7.5 1.35416667 5.5 -0.3125 3.5 C-0.9725 3.5 -1.6325 3.5 -2.3125 3.5 C-5.7489867 9.13735071 -5.7489867 9.13735071 -7.3125 15.5 C-7.6425 15.5 -7.9725 15.5 -8.3125 15.5 C-8.88735945 9.98134928 -7.93357321 6.65909597 -4.82421875 2.03515625 C-3.3125 0.5 -3.3125 0.5 0 0 Z " fill="#141414" transform="translate(450.3125,155.5)"/>
<path d="M0 0 C1.32 0 2.64 0 4 0 C3.25 6.625 3.25 6.625 1 10 C-1.625 10.1875 -1.625 10.1875 -4 10 C-5.85776765 6.86501708 -6.20140476 4.62528568 -6 1 C-5.01 1 -4.02 1 -3 1 C-2.814375 2.2065625 -2.814375 2.2065625 -2.625 3.4375 C-2.41875 4.283125 -2.2125 5.12875 -2 6 C-1.34 6.33 -0.68 6.66 0 7 C0 4.69 0 2.38 0 0 Z " fill="#1D1D1D" transform="translate(516,207)"/>
<path d="M0 0 C0.99 0.33 1.98 0.66 3 1 C3.06058594 2.31355469 3.12117188 3.62710938 3.18359375 4.98046875 C3.26803256 6.71615541 3.35267888 8.45183198 3.4375 10.1875 C3.47681641 11.05181641 3.51613281 11.91613281 3.55664062 12.80664062 C3.76347016 16.95914122 4.00103531 20.94537862 5 25 C4.01 25.33 3.02 25.66 2 26 C0.40754605 22.48172372 -0.24261382 19.77302648 -0.1953125 15.91796875 C-0.18886719 14.98662109 -0.18242187 14.05527344 -0.17578125 13.09570312 C-0.15902344 12.13599609 -0.14226562 11.17628906 -0.125 10.1875 C-0.11597656 9.20845703 -0.10695313 8.22941406 -0.09765625 7.22070312 C-0.07417182 4.81354939 -0.0413284 2.40690257 0 0 Z " fill="#343434" transform="translate(414,202)"/>
<path d="M0 0 C0.99 0 1.98 0 3 0 C3.36923077 6.4 3.36923077 6.4 1.5 9.4375 C1.005 9.953125 0.51 10.46875 0 11 C-1.65 10.67 -3.3 10.34 -5 10 C-5.33 7.69 -5.66 5.38 -6 3 C-5.01 3.33 -4.02 3.66 -3 4 C-3 4.99 -3 5.98 -3 7 C-2.01 7 -1.02 7 0 7 C0 4.69 0 2.38 0 0 Z " fill="#212121" transform="translate(485,221)"/>
<path d="M0 0 C13.365 0.495 13.365 0.495 27 1 C27 1.66 27 2.32 27 3 C18.42 3 9.84 3 1 3 C0.67 2.01 0.34 1.02 0 0 Z " fill="#0A0A0A" transform="translate(441,228)"/>
<path d="M0 0 C1.08828929 3.26486787 0.89901381 4.36990083 0.125 7.625 C-0.05804688 8.42164063 -0.24109375 9.21828125 -0.4296875 10.0390625 C-1 12 -1 12 -2 13 C-2.15620555 14.41327947 -2.25056173 15.8335459 -2.31640625 17.25390625 C-2.35830078 18.10791016 -2.40019531 18.96191406 -2.44335938 19.84179688 C-2.48267578 20.73962891 -2.52199219 21.63746094 -2.5625 22.5625 C-2.60568359 23.46419922 -2.64886719 24.36589844 -2.69335938 25.29492188 C-2.79978142 27.52978485 -2.90179988 29.76476308 -3 32 C-3.33 32 -3.66 32 -4 32 C-4.05819473 27.93756043 -4.09366215 23.87522854 -4.125 19.8125 C-4.14175781 18.66201172 -4.15851563 17.51152344 -4.17578125 16.32617188 C-4.18222656 15.21435547 -4.18867188 14.10253906 -4.1953125 12.95703125 C-4.20578613 11.93585205 -4.21625977 10.91467285 -4.22705078 9.86254883 C-3.89826187 5.71733382 -2.94990272 2.94990272 0 0 Z " fill="#0F0F0F" transform="translate(419,190)"/>
<path d="M0 0 C0.33 0.99 0.66 1.98 1 3 C-0.14453125 5.04296875 -0.14453125 5.04296875 -1.8125 7.1875 C-2.35519531 7.90292969 -2.89789062 8.61835938 -3.45703125 9.35546875 C-3.96621094 9.89816406 -4.47539063 10.44085938 -5 11 C-5.66 11 -6.32 11 -7 11 C-7 14.63 -7 18.26 -7 22 C-12.28 22 -17.56 22 -23 22 C-23 21.67 -23 21.34 -23 21 C-18.05 21 -13.1 21 -8 21 C-8 17.04 -8 13.08 -8 9 C-7.34 9 -6.68 9 -6 9 C-5.7525 8.2575 -5.505 7.515 -5.25 6.75 C-3.90852699 3.79875938 -2.39094474 2.15185026 0 0 Z " fill="#2C2C2C" transform="translate(598,259)"/>
<path d="M0 0 C0.99 0 1.98 0 3 0 C3.33 2.31 3.66 4.62 4 7 C4.66 5.68 5.32 4.36 6 3 C6.99 3.33 7.98 3.66 9 4 C8.67 5.98 8.34 7.96 8 10 C5.6875 10.25 5.6875 10.25 3 10 C0.34684029 7.62130509 0.01896655 6.32875347 -0.1875 2.75 C-0.125625 1.8425 -0.06375 0.935 0 0 Z " fill="#1B1B1B" transform="translate(584,192)"/>
<path d="M0 0 C0.99 0 1.98 0 3 0 C2.125 6.75 2.125 6.75 1 9 C-0.66611905 9.042721 -2.33382885 9.04063832 -4 9 C-5 8 -5 8 -5.0625 4.9375 C-5.041875 3.968125 -5.02125 2.99875 -5 2 C-4.01 2 -3.02 2 -2 2 C-1.67 2.66 -1.34 3.32 -1 4 C-0.67 2.68 -0.34 1.36 0 0 Z " fill="#272727" transform="translate(603,199)"/>
<path d="M0 0 C0.99 0 1.98 0 3 0 C3.33 1.32 3.66 2.64 4 4 C4.33 3.01 4.66 2.02 5 1 C5.99 1 6.98 1 8 1 C7.125 6.75 7.125 6.75 6 9 C3.5625 8.625 3.5625 8.625 1 8 C-0.35439668 5.29120665 -0.06501451 2.99066732 0 0 Z " fill="#1E1E1E" transform="translate(645,209)"/>
<path d="M0 0 C-1.98 0.99 -1.98 0.99 -4 2 C-2.68 2.66 -1.36 3.32 0 4 C-1.97854258 4.19397476 -3.9578648 4.38001321 -5.9375 4.5625 C-7.59072266 4.71912109 -7.59072266 4.71912109 -9.27734375 4.87890625 C-10.17582031 4.91886719 -11.07429688 4.95882813 -12 5 C-12.33 4.67 -12.66 4.34 -13 4 C-15.32817964 3.63239269 -17.6618385 3.29758419 -20 3 C-20 2.67 -20 2.34 -20 2 C-17.60468244 1.66254646 -15.20885732 1.3299171 -12.8125 1 C-11.80219727 0.85691406 -11.80219727 0.85691406 -10.77148438 0.7109375 C-7.15335423 0.21675387 -3.65203599 -0.11346131 0 0 Z " fill="#424242" transform="translate(450,255)"/>
<path d="M0 0 C0.99 0 1.98 0 3 0 C2.125 5.75 2.125 5.75 1 8 C-0.65 8 -2.3 8 -4 8 C-4.66 6.02 -5.32 4.04 -6 2 C-4.68 2 -3.36 2 -2 2 C-1.67 2.66 -1.34 3.32 -1 4 C-0.67 2.68 -0.34 1.36 0 0 Z " fill="#1C1C1C" transform="translate(425,206)"/>
<path d="M0 0 C0 0.33 0 0.66 0 1 C-2.31 1.33 -4.62 1.66 -7 2 C-5.35 2.33 -3.7 2.66 -2 3 C-2 3.33 -2 3.66 -2 4 C-6.455 4.495 -6.455 4.495 -11 5 C-11.33 5.99 -11.66 6.98 -12 8 C-12.66 8.66 -13.32 9.32 -14 10 C-13.63768116 3.59903382 -13.63768116 3.59903382 -10.9375 1.0625 C-7.07163509 -0.33579156 -4.09806991 -0.20837644 0 0 Z " fill="#424242" transform="translate(584,264)"/>
<path d="M0 0 C0.33 0 0.66 0 1 0 C1.22424141 7.36259293 0.90120099 13.87049629 -1 21 C-1.99 20.67 -2.98 20.34 -4 20 C-3.4140625 13.84765625 -3.4140625 13.84765625 -3 12 C-2.34 11.67 -1.68 11.34 -1 11 C-0.5316735 8.41394668 -0.5316735 8.41394668 -0.375 5.4375 C-0.30023437 4.42558594 -0.22546875 3.41367188 -0.1484375 2.37109375 C-0.09945312 1.58863281 -0.05046875 0.80617187 0 0 Z " fill="#272727" transform="translate(658,203)"/>
<path d="M0 0 C0.99 0.33 1.98 0.66 3 1 C2.57316761 2.58624235 2.13303842 4.1689098 1.6875 5.75 C1.44386719 6.63171875 1.20023438 7.5134375 0.94921875 8.421875 C-0.02125331 11.05772505 -1.21005644 12.85407326 -3 15 C-3.66 14.67 -4.32 14.34 -5 14 C-4.731875 13.360625 -4.46375 12.72125 -4.1875 12.0625 C-2.64635858 8.08797739 -1.32390688 4.05115505 0 0 Z " fill="#282828" transform="translate(590,249)"/>
<path d="M0 0 C2.97 0.495 2.97 0.495 6 1 C6 3.31 6 5.62 6 8 C5.01 8.495 5.01 8.495 4 9 C3.67 7.35 3.34 5.7 3 4 C1.35 3.67 -0.3 3.34 -2 3 C-1.34 2.01 -0.68 1.02 0 0 Z " fill="#121212" transform="translate(646,167)"/>
<path d="M0 0 C0.80566406 0.07863281 1.61132812 0.15726562 2.44140625 0.23828125 C3.42947266 0.46064453 3.42947266 0.46064453 4.4375 0.6875 C4.7675 1.3475 5.0975 2.0075 5.4375 2.6875 C4.49777344 2.77837891 4.49777344 2.77837891 3.5390625 2.87109375 C2.72179687 2.95488281 1.90453125 3.03867187 1.0625 3.125 C0.25039063 3.20621094 -0.56171875 3.28742188 -1.3984375 3.37109375 C-3.60522805 3.57840114 -3.60522805 3.57840114 -5.5625 4.6875 C-5.8925 3.3675 -6.2225 2.0475 -6.5625 0.6875 C-4.07849398 -0.55450301 -2.74042364 -0.29471651 0 0 Z " fill="#101010" transform="translate(432.5625,257.3125)"/>
<path d="M0 0 C0.99 0 1.98 0 3 0 C3.33 1.65 3.66 3.3 4 5 C3.01 5.33 2.02 5.66 1 6 C0.67 4.02 0.34 2.04 0 0 Z " fill="#242424" transform="translate(415,222)"/>
</svg>
