<?xml version="1.0" encoding="UTF-8"?>
<svg version="1.1" xmlns="http://www.w3.org/2000/svg" width="800" height="300">
<path d="M0 0 C264 0 528 0 800 0 C800 99 800 198 800 300 C536 300 272 300 0 300 C0 201 0 102 0 0 Z " fill="#FEFEFE" transform="translate(0,0)"/>
<path d="M0 0 C4.45764736 2.26792585 4.45764736 2.26792585 6 5 C6.45678711 7.7175293 6.45678711 7.7175293 6.65234375 10.69921875 C6.72316162 11.69139404 6.79397949 12.68356934 6.86694336 13.70581055 C6.91085205 14.46289307 6.95476074 15.21997559 7 16 C8.46605682 15.99263573 8.46605682 15.99263573 9.96173096 15.98512268 C35.35766414 15.87003192 60.72571201 16.17164898 86.11376953 16.79956055 C90.90773885 16.91806551 95.70186639 17.02789932 100.49608994 17.13556576 C104.24499532 17.22065144 107.9937886 17.31003191 111.74256134 17.40075874 C113.51435498 17.44313729 115.28618065 17.48419906 117.0580368 17.5238781 C119.49813172 17.57916425 121.93801427 17.64023002 124.37792969 17.70288086 C125.09551956 17.71798706 125.81310944 17.73309326 126.55244446 17.74865723 C129.24906726 17.82270594 131.69933488 17.91282881 134.30059814 18.66700745 C134.86140076 18.77689499 135.42220337 18.88678253 136 19 C137.46753028 17.76075221 138.93177183 16.51632339 140.3515625 15.22265625 C143.08331123 13.19650139 145.67968768 13.0626474 149 13 C149.99 13.66 150.98 14.32 152 15 C152.67605634 22.09859155 152.67605634 22.09859155 150.5 25 C150.005 25.33 149.51 25.66 149 26 C150.218897 28.77022046 151.53132832 30.63759399 153.5 33 C159.88882081 41.85765717 159.05423137 56.47252576 157.4375 66.8125 C155.01016398 75.9694159 146.52160483 81.15711561 139 86 C139.763125 86.598125 140.52625 87.19625 141.3125 87.8125 C142.199375 88.534375 143.08625 89.25625 144 90 C144.598125 90.45375 145.19625 90.9075 145.8125 91.375 C147.69434706 93.95015913 147.37194989 95.90041759 147 99 C145.73711341 101.77835049 144.6477829 103.49102772 142.25 105.375 C138.93874186 106.29479393 136.31832284 105.73740508 133 105 C132.34 104.34 131.68 103.68 131 103 C127.52518877 103.34066777 124.21021582 103.95053745 120.8125 104.75 C114.28238176 105.17820447 107.46630271 103.64420181 102 100 C101.731875 100.721875 101.46375 101.44375 101.1875 102.1875 C98.9393414 107.51208616 95.86015687 111.74392961 92 116 C91.34 116 90.68 116 90 116 C90 119.63 90 123.26 90 127 C87.5821288 127.10826289 85.16912444 127.18739789 82.75 127.25 C82.06808594 127.28351563 81.38617187 127.31703125 80.68359375 127.3515625 C77.27222109 127.41780275 75.36828881 127.26849442 72.578125 125.234375 C70.03788668 121.63779996 70 119.41294208 70 115 C71.3125 112.625 71.3125 112.625 74 111 C75.64262333 110.76770983 77.28910448 110.56198218 78.9375 110.375 C82.29844304 109.8346714 83.57801948 109.52986242 85.7265625 106.83203125 C87.86043653 102.60795898 89.11245005 98.6353059 90 94 C88.61065247 94.1065818 88.61065247 94.1065818 87.1932373 94.21531677 C76.20876382 94.98789795 65.2895473 95.1311221 54.28125 95.09765625 C52.4432377 95.09578551 50.6052249 95.09436472 48.76721191 95.09336853 C43.98670007 95.08959491 39.20621979 95.07981025 34.42572021 95.06866455 C29.52470323 95.05833801 24.62368103 95.0538471 19.72265625 95.04882812 C10.14842381 95.03818203 0.57421456 95.02116957 -9 95 C-8.03857071 96.44975643 -7.07613932 97.89884835 -6.11328125 99.34765625 C-5.57743408 100.15468994 -5.04158691 100.96172363 -4.48950195 101.79321289 C-1.50831535 106.21002091 0.33699895 108.00054333 5.5625 109.0625 C6.32691406 109.17722656 7.09132813 109.29195313 7.87890625 109.41015625 C10.45741053 110.12719888 11.44694566 110.82377652 13 113 C13.76129634 117.40357688 13.46435076 121.66499157 12 125.875 C8.33947519 129.76430762 4.0768999 131.71493531 -1.1875 132.4375 C-4.55485577 131.9136891 -6.43259397 131.26535826 -9 129 C-9.608676 125.42402849 -9.44405832 123.70309234 -7.5 120.625 C-7.005 120.08875 -6.51 119.5525 -6 119 C-7.36125 118.13375 -7.36125 118.13375 -8.75 117.25 C-12 115 -12 115 -13.8125 113.0625 C-16.55378882 110.47785625 -19.54270679 108.96201421 -22.87890625 107.24609375 C-25 106 -25 106 -26.33984375 104.34765625 C-29.78511709 101.55090495 -34.75312005 102.97454591 -38.90234375 103.40234375 C-40.24797977 103.57626949 -41.59304143 103.75469512 -42.9375 103.9375 C-44.27994792 104.11328125 -45.62239583 104.2890625 -46.96484375 104.46484375 C-48.99659087 104.73267168 -51.02750546 105.00384215 -53.05712891 105.28735352 C-57.23542712 105.85075889 -61.286003 106.11038633 -65.5 106.0625 C-67.06234375 106.04896484 -67.06234375 106.04896484 -68.65625 106.03515625 C-69.4296875 106.02355469 -70.203125 106.01195312 -71 106 C-70.95166016 107.18142578 -70.95166016 107.18142578 -70.90234375 108.38671875 C-71 111 -71 111 -72.5625 112.8125 C-76.00570514 114.48995891 -78.20740642 114.52311636 -82 114 C-84.97046873 112.20976215 -87.42502414 110.14995172 -89 107 C-89.04003069 101.57984419 -88.83046319 96.59941058 -86.3125 91.75 C-84 90 -84 90 -80.9375 89.5625 C-78 90 -78 90 -75 92 C-71.87478167 92.16699232 -71.87478167 92.16699232 -69 92 C-69.72445313 91.58492188 -70.44890625 91.16984375 -71.1953125 90.7421875 C-78.70006872 85.9591562 -83.24901998 80.97977733 -85.57519531 72.234375 C-88.11582969 58.87122224 -87.43378169 42.69781812 -80.125 31 C-75.31597162 24.45830698 -68.88471281 20.2211782 -61 18.25 C-60.34 18.1675 -59.68 18.085 -59 18 C-59.0825 17.01 -59.165 16.02 -59.25 15 C-59.27825307 10.38533109 -57.35366383 6.87551072 -55 3 C-54 2 -54 2 -51.25 1.5625 C-48 2 -48 2 -45.1875 4.625 C-42.96814357 7.6125952 -42.26698768 10.26217243 -42 14 C-41.17886719 13.51144531 -40.35773438 13.02289063 -39.51171875 12.51953125 C-35.4900549 10.77934523 -32.10714065 10.58854515 -27.8125 10.6875 C-27.10158203 10.68427734 -26.39066406 10.68105469 -25.65820312 10.67773438 C-21.91356095 10.7164842 -20.18580976 10.87612683 -17 13 C-17.103125 11.948125 -17.20625 10.89625 -17.3125 9.8125 C-17 6 -17 6 -14.625 3.125 C-9.95212803 -0.65780112 -5.87568448 -0.74683279 0 0 Z " fill="#FBFBFB" transform="translate(493,154)"/>
<path d="M0 0 C4.45764736 2.26792585 4.45764736 2.26792585 6 5 C6.45678711 7.7175293 6.45678711 7.7175293 6.65234375 10.69921875 C6.72316162 11.69139404 6.79397949 12.68356934 6.86694336 13.70581055 C6.91085205 14.46289307 6.95476074 15.21997559 7 16 C8.46605682 15.99263573 8.46605682 15.99263573 9.96173096 15.98512268 C35.35766414 15.87003192 60.72571201 16.17164898 86.11376953 16.79956055 C90.90773885 16.91806551 95.70186639 17.02789932 100.49608994 17.13556576 C104.24499532 17.22065144 107.9937886 17.31003191 111.74256134 17.40075874 C113.51435498 17.44313729 115.28618065 17.48419906 117.0580368 17.5238781 C119.49813172 17.57916425 121.93801427 17.64023002 124.37792969 17.70288086 C125.09551956 17.71798706 125.81310944 17.73309326 126.55244446 17.74865723 C129.24906726 17.82270594 131.69933488 17.91282881 134.30059814 18.66700745 C134.86140076 18.77689499 135.42220337 18.88678253 136 19 C137.46753028 17.76075221 138.93177183 16.51632339 140.3515625 15.22265625 C143.08331123 13.19650139 145.67968768 13.0626474 149 13 C149.99 13.66 150.98 14.32 152 15 C152.67605634 22.09859155 152.67605634 22.09859155 150.5 25 C150.005 25.33 149.51 25.66 149 26 C150.218897 28.77022046 151.53132832 30.63759399 153.5 33 C159.88882081 41.85765717 159.05423137 56.47252576 157.4375 66.8125 C155.01016398 75.9694159 146.52160483 81.15711561 139 86 C139.763125 86.598125 140.52625 87.19625 141.3125 87.8125 C142.199375 88.534375 143.08625 89.25625 144 90 C144.598125 90.45375 145.19625 90.9075 145.8125 91.375 C147.69434706 93.95015913 147.37194989 95.90041759 147 99 C145.73711341 101.77835049 144.6477829 103.49102772 142.25 105.375 C138.93874186 106.29479393 136.31832284 105.73740508 133 105 C132.34 104.34 131.68 103.68 131 103 C127.52518877 103.34066777 124.21021582 103.95053745 120.8125 104.75 C114.28238176 105.17820447 107.46630271 103.64420181 102 100 C101.731875 100.721875 101.46375 101.44375 101.1875 102.1875 C98.9393414 107.51208616 95.86015687 111.74392961 92 116 C91.34 116 90.68 116 90 116 C90 119.63 90 123.26 90 127 C87.5821288 127.10826289 85.16912444 127.18739789 82.75 127.25 C82.06808594 127.28351563 81.38617187 127.31703125 80.68359375 127.3515625 C77.27222109 127.41780275 75.36828881 127.26849442 72.578125 125.234375 C70.03788668 121.63779996 70 119.41294208 70 115 C71.3125 112.625 71.3125 112.625 74 111 C75.64262333 110.76770983 77.28910448 110.56198218 78.9375 110.375 C82.29844304 109.8346714 83.57801948 109.52986242 85.7265625 106.83203125 C87.86043653 102.60795898 89.11245005 98.6353059 90 94 C88.61065247 94.1065818 88.61065247 94.1065818 87.1932373 94.21531677 C76.20876382 94.98789795 65.2895473 95.1311221 54.28125 95.09765625 C52.4432377 95.09578551 50.6052249 95.09436472 48.76721191 95.09336853 C43.98670007 95.08959491 39.20621979 95.07981025 34.42572021 95.06866455 C29.52470323 95.05833801 24.62368103 95.0538471 19.72265625 95.04882812 C10.14842381 95.03818203 0.57421456 95.02116957 -9 95 C-8.03857071 96.44975643 -7.07613932 97.89884835 -6.11328125 99.34765625 C-5.57743408 100.15468994 -5.04158691 100.96172363 -4.48950195 101.79321289 C-1.50831535 106.21002091 0.33699895 108.00054333 5.5625 109.0625 C6.32691406 109.17722656 7.09132813 109.29195313 7.87890625 109.41015625 C10.45741053 110.12719888 11.44694566 110.82377652 13 113 C13.76129634 117.40357688 13.46435076 121.66499157 12 125.875 C8.33947519 129.76430762 4.0768999 131.71493531 -1.1875 132.4375 C-4.55485577 131.9136891 -6.43259397 131.26535826 -9 129 C-9.608676 125.42402849 -9.44405832 123.70309234 -7.5 120.625 C-7.005 120.08875 -6.51 119.5525 -6 119 C-7.36125 118.13375 -7.36125 118.13375 -8.75 117.25 C-12 115 -12 115 -13.8125 113.0625 C-16.55378882 110.47785625 -19.54270679 108.96201421 -22.87890625 107.24609375 C-25 106 -25 106 -26.33984375 104.34765625 C-29.78511709 101.55090495 -34.75312005 102.97454591 -38.90234375 103.40234375 C-40.24797977 103.57626949 -41.59304143 103.75469512 -42.9375 103.9375 C-44.27994792 104.11328125 -45.62239583 104.2890625 -46.96484375 104.46484375 C-48.99659087 104.73267168 -51.02750546 105.00384215 -53.05712891 105.28735352 C-57.23542712 105.85075889 -61.286003 106.11038633 -65.5 106.0625 C-67.06234375 106.04896484 -67.06234375 106.04896484 -68.65625 106.03515625 C-69.4296875 106.02355469 -70.203125 106.01195312 -71 106 C-70.95166016 107.18142578 -70.95166016 107.18142578 -70.90234375 108.38671875 C-71 111 -71 111 -72.5625 112.8125 C-76.00570514 114.48995891 -78.20740642 114.52311636 -82 114 C-84.97046873 112.20976215 -87.42502414 110.14995172 -89 107 C-89.04003069 101.57984419 -88.83046319 96.59941058 -86.3125 91.75 C-84 90 -84 90 -80.9375 89.5625 C-78 90 -78 90 -75 92 C-71.87478167 92.16699232 -71.87478167 92.16699232 -69 92 C-69.72445313 91.58492188 -70.44890625 91.16984375 -71.1953125 90.7421875 C-78.70006872 85.9591562 -83.24901998 80.97977733 -85.57519531 72.234375 C-88.11582969 58.87122224 -87.43378169 42.69781812 -80.125 31 C-75.31597162 24.45830698 -68.88471281 20.2211782 -61 18.25 C-60.34 18.1675 -59.68 18.085 -59 18 C-59.0825 17.01 -59.165 16.02 -59.25 15 C-59.27825307 10.38533109 -57.35366383 6.87551072 -55 3 C-54 2 -54 2 -51.25 1.5625 C-48 2 -48 2 -45.1875 4.625 C-42.96814357 7.6125952 -42.26698768 10.26217243 -42 14 C-41.17886719 13.51144531 -40.35773438 13.02289063 -39.51171875 12.51953125 C-35.4900549 10.77934523 -32.10714065 10.58854515 -27.8125 10.6875 C-27.10158203 10.68427734 -26.39066406 10.68105469 -25.65820312 10.67773438 C-21.91356095 10.7164842 -20.18580976 10.87612683 -17 13 C-17.103125 11.948125 -17.20625 10.89625 -17.3125 9.8125 C-17 6 -17 6 -14.625 3.125 C-9.95212803 -0.65780112 -5.87568448 -0.74683279 0 0 Z M-14 8 C-14.11745427 10.88830721 -13.63072433 13.1374819 -13 16 C-14.99954746 16.04254356 -17.00041636 16.04080783 -19 16 C-19.495 15.505 -19.495 15.505 -20 15 C-22.69956731 14.87173327 -25.36230563 14.81477098 -28.0625 14.8125 C-29.17141602 14.79413086 -29.17141602 14.79413086 -30.30273438 14.77539062 C-35.5209834 14.76169443 -39.98355907 15.55941027 -45 17 C-44.896875 15.783125 -44.79375 14.56625 -44.6875 13.3125 C-44.65408479 9.54994773 -44.90669702 9.11196358 -47.5 6 C-48.325 5.34 -49.15 4.68 -50 4 C-52.93576279 5.012332 -53.97512741 5.96357942 -55.75 8.5625 C-57.30903894 12.84985708 -57.27038392 16.49360134 -57 21 C-57.61746094 21.06316406 -58.23492187 21.12632812 -58.87109375 21.19140625 C-67.16275861 22.39035322 -72.69259035 25.70815793 -77.82421875 32.3671875 C-83.13683346 40.62553773 -84.35929341 48.87938845 -84.375 58.5625 C-84.39949219 59.36107422 -84.42398437 60.15964844 -84.44921875 60.98242188 C-84.47822081 66.91334285 -83.03787215 70.94837051 -80 76 C-79.4225 77.010625 -78.845 78.02125 -78.25 79.0625 C-73.42729984 85.35880299 -68.87183974 89.30866094 -61 91 C-57.52369043 91.35114942 -54.05359168 91.50435752 -50.5625 91.625 C-49.64017578 91.66367188 -48.71785156 91.70234375 -47.76757812 91.7421875 C-45.51190857 91.83568676 -43.25623084 91.9214391 -41 92 C-48.81515808 93.49717405 -56.64959536 94.49374581 -64.5625 95.3125 C-65.53848145 95.42513184 -66.51446289 95.53776367 -67.52001953 95.65380859 C-68.90423096 95.78843506 -68.90423096 95.78843506 -70.31640625 95.92578125 C-71.14599854 96.01255127 -71.97559082 96.09932129 -72.83032227 96.1887207 C-75.58386892 95.94921451 -76.20787474 95.01353376 -78 93 C-80.5 92.41666667 -80.5 92.41666667 -83 93 C-86.14466651 95.69542844 -86.75556307 99.06215009 -87.140625 103.03125 C-86.91058949 106.25174707 -85.27488664 107.85510688 -83 110 C-80.23749964 111.38125018 -78.05268901 111.19079306 -75 111 C-72.71271266 109.16116119 -72.71271266 109.16116119 -72.875 106.375 C-72.91625 105.59125 -72.9575 104.8075 -73 104 C-68.09301872 103.44644512 -63.18578526 102.89519777 -58.27832031 102.34594727 C-56.61418925 102.15938333 -54.95012473 101.97222474 -53.28613281 101.78442383 C-43.8663818 100.72172629 -34.45507155 99.70337653 -25 99 C-25.495 100.485 -25.495 100.485 -26 102 C-25.04738281 102.60328125 -24.09476563 103.2065625 -23.11328125 103.828125 C-21.846258 104.63526573 -20.5793363 105.44256588 -19.3125 106.25 C-18.68666016 106.64574219 -18.06082031 107.04148437 -17.41601562 107.44921875 C-13.7613735 109.78359749 -10.38513619 112.28235546 -7 115 C-4.3205355 116.24016669 -4.3205355 116.24016669 -2 117 C-2 117.99 -2 118.98 -2 120 C-4.5 122.1875 -4.5 122.1875 -7 124 C-6.67 125.32 -6.34 126.64 -6 128 C-0.19388201 129.24079022 -0.19388201 129.24079022 5.3125 127.4375 C8.27762491 124.74820066 9.68974444 122.77661897 11 119 C10.79564192 116.21352443 10.79564192 116.21352443 10 114 C9.46375 113.87625 8.9275 113.7525 8.375 113.625 C5.53522296 112.87769025 2.77934321 111.94615939 0 111 C-1.485 110.505 -1.485 110.505 -3 110 C-3.96875 108.29296875 -3.96875 108.29296875 -5 106 C-6.14489576 104.09094033 -7.31319795 102.19579393 -8.5 100.3125 C-9.1084375 99.33925781 -9.716875 98.36601562 -10.34375 97.36328125 C-11.78368551 94.9099091 -11.78368551 94.9099091 -14 94 C-14 93.34 -14 92.68 -14 92 C-3.14021225 91.86762326 7.71959646 91.73712683 18.57943344 91.60884857 C23.62539503 91.54918961 28.67134812 91.48895011 33.71728516 91.42724609 C56.14567231 91.15340087 78.56960355 90.90391302 101 91 C101 91.99 101 92.98 101 94 C98.36 94 95.72 94 93 94 C90.03584181 100.9241798 87.27435204 107.81783567 85 115 C84.34 114.67 83.68 114.34 83 114 C81.50350638 113.87994547 80.00125207 113.82468549 78.5 113.8125 C77.30890625 113.79123047 77.30890625 113.79123047 76.09375 113.76953125 C73.77966683 113.80333697 73.77966683 113.80333697 72 116 C72.35263785 120.50317123 72.35263785 120.50317123 75 124 C78.12814514 124.24360073 78.12814514 124.24360073 81.625 124.125 C82.81351563 124.10695313 84.00203125 124.08890625 85.2265625 124.0703125 C86.14179687 124.04710937 87.05703125 124.02390625 88 124 C88 122.865625 88 121.73125 88 120.5625 C88.60021565 115.43338445 91.46360821 112.73691201 94.9921875 109.17578125 C97.06663274 106.92779293 98.46915101 104.63743412 100 102 C100.66 101.34 101.32 100.68 102 100 C102.16687448 97.41645782 102.16687448 97.41645782 102 95 C102.99 95 103.98 95 105 95 C105.13728516 95.93585938 105.13728516 95.93585938 105.27734375 96.890625 C105.88084822 99.46196337 105.88084822 99.46196337 109.5625 100.75 C115.78585806 102.79099377 120.94468976 102.61851253 127 100 C129.625 99.6875 129.625 99.6875 132 100 C132.45375 100.515625 132.9075 101.03125 133.375 101.5625 C135.07544706 103.39301907 135.07544706 103.39301907 138.5 102.9375 C141.97336139 102.283069 141.97336139 102.283069 144 100.25 C145.18351258 98.01985732 145.18351258 98.01985732 144.9375 95.4375 C143.76080551 92.37809433 142.9343683 91.46718415 140 90 C136.33285151 89.74936268 136.33285151 89.74936268 133 90 C132.67 90.99 132.34 91.98 132 93 C131.29617188 92.97679687 130.59234375 92.95359375 129.8671875 92.9296875 C121.74136471 92.78117377 114.0095484 93.67297423 106 95 C106.33 94.34 106.66 93.68 107 93 C109.6171875 92.40234375 109.6171875 92.40234375 112.875 91.9375 C116.07411626 91.47112281 118.92965786 91.02344738 122 90 C122 89.34 122 88.68 122 88 C122.54398438 88.2165625 123.08796875 88.433125 123.6484375 88.65625 C130.91908554 89.71906898 140.25795044 81.78139872 145.875 77.640625 C152.17765605 72.77460378 154.52700223 68.76463939 156 61 C157.01013213 52.69754414 156.31535632 40.47941476 151.2421875 33.625 C149.37850978 31.80828778 149.37850978 31.80828778 147.42578125 30.39453125 C146.95527344 29.93433594 146.48476563 29.47414062 146 29 C146 27.68 146 26.36 146 25 C146.99 24.2884375 146.99 24.2884375 148 23.5625 C148.66 23.046875 149.32 22.53125 150 22 C150.41717279 19.41537838 150.41717279 19.41537838 150 17 C149.67 16.67 149.34 16.34 149 16 C145.51944126 16.17567358 145.51944126 16.17567358 142 17 C141.34 17.99 140.68 18.98 140 20 C140.99 21.32 141.98 22.64 143 24 C142.24881897 23.71791183 141.49763794 23.43582367 140.72369385 23.14518738 C131.68168077 20.02525255 123.35926665 19.41136747 113.859375 19.42578125 C112.32357231 19.41327736 110.78778369 19.39892745 109.25201416 19.38285828 C105.23068273 19.3451286 101.20959521 19.32971462 97.18811035 19.32006836 C90.81604284 19.30028825 84.44410967 19.24353895 78.07222176 19.19343376 C75.74195864 19.17583851 73.41168793 19.16094117 71.08140564 19.14613342 C61.1122024 19.07498428 51.16802482 18.79988517 41.20796204 18.34640503 C32.94315838 17.97316513 24.71050021 17.88074591 16.4375 17.9375 C14.46040039 17.94426758 14.46040039 17.94426758 12.44335938 17.95117188 C9.29551683 17.96261858 6.14778918 17.97880826 3 18 C3.0304541 17.2371167 3.0609082 16.4742334 3.09228516 15.68823242 C3.11597168 14.69154541 3.1396582 13.6948584 3.1640625 12.66796875 C3.1945166 11.67821045 3.2249707 10.68845215 3.25634766 9.66870117 C3.25234994 6.69639346 3.25234994 6.69639346 0.375 4.3125 C-6.09732265 1.79548564 -9.86968094 1.99226318 -14 8 Z " fill="#0F0F0F" transform="translate(493,154)"/>
<path d="M0 0 C1 1 1 1 1.25 4.875 C1.2225573 8.70325694 1.2225573 8.70325694 -0.5 11 C-0.995 11.33 -1.49 11.66 -2 12 C-0.781103 14.77022046 0.53132832 16.63759399 2.5 19 C8.88882081 27.85765717 8.05423137 42.47252576 6.4375 52.8125 C4.01016398 61.9694159 -4.47839517 67.15711561 -12 72 C-11.236875 72.598125 -10.47375 73.19625 -9.6875 73.8125 C-8.800625 74.534375 -7.91375 75.25625 -7 76 C-6.401875 76.45375 -5.80375 76.9075 -5.1875 77.375 C-3.30565294 79.95015913 -3.62805011 81.90041759 -4 85 C-5.26288659 87.77835049 -6.3522171 89.49102772 -8.75 91.375 C-12.06125814 92.29479393 -14.68167716 91.73740508 -18 91 C-18.99 90.01 -18.99 90.01 -20 89 C-23.47481123 89.34066777 -26.78978418 89.95053745 -30.1875 90.75 C-36.71761824 91.17820447 -43.53369729 89.64420181 -49 86 C-49.1875 83.375 -49.1875 83.375 -49 81 C-48.01 81 -47.02 81 -46 81 C-45.814375 81.61875 -45.62875 82.2375 -45.4375 82.875 C-43.21655969 86.15812915 -40.81113595 86.26236078 -37 87 C-32.18650477 87.43759048 -28.44378888 86.92163843 -24 85 C-21.1875 84.875 -21.1875 84.875 -19 85 C-18.67 85.99 -18.34 86.98 -18 88 C-12.95121782 88.4181556 -12.95121782 88.4181556 -8.5 86.3125 C-6.75091398 84.09211769 -6.75091398 84.09211769 -7.0625 81.375 C-7.86655546 78.67710239 -7.86655546 78.67710239 -11 77 C-13.33199388 76.92094936 -15.66832622 76.91201231 -18 77 C-18.33 77.66 -18.66 78.32 -19 79 C-20.74658203 79.41064453 -20.74658203 79.41064453 -23.0078125 79.6328125 C-23.83023438 79.71660156 -24.65265625 79.80039063 -25.5 79.88671875 C-26.36625 79.96535156 -27.2325 80.04398437 -28.125 80.125 C-28.96804688 80.21136719 -29.81109375 80.29773438 -30.6796875 80.38671875 C-35.47684613 80.85600601 -40.18100312 81.09141728 -45 81 C-44.67 80.01 -44.34 79.02 -44 78 C-36.575 77.01 -36.575 77.01 -29 76 C-29 75.34 -29 74.68 -29 74 C-28.21625 73.938125 -27.4325 73.87625 -26.625 73.8125 C-18.47773523 71.98638893 -11.76699355 67.35444146 -5.12890625 62.453125 C-3 61 -3 61 0 60 C5.68784585 48.95888746 4.55921464 37.16792748 2.13671875 25.43359375 C0.72163161 21.15915528 -1.1892457 19.1558722 -4.6015625 16.35546875 C-6 15 -6 15 -6.125 12.1875 C-5 10 -5 10 -2 8 C-1.74969023 5.41619823 -1.74969023 5.41619823 -2 3 C-4.31 3.33 -6.62 3.66 -9 4 C-9.15811388 7.05270463 -9.15811388 7.05270463 -8 10 C-15.49281548 9.23801876 -15.49281548 9.23801876 -18.13085938 8 C-21.80510961 6.71938998 -25.29781289 6.64600197 -29.14453125 6.5859375 C-29.91431808 6.56657135 -30.68410492 6.5472052 -31.47721863 6.5272522 C-33.92220171 6.46774377 -36.36723262 6.42118705 -38.8125 6.375 C-40.47593134 6.33679369 -42.13934347 6.29774043 -43.80273438 6.2578125 C-47.86833241 6.16206617 -51.93402301 6.07792991 -56 6 C-56 5.34 -56 4.68 -56 4 C-50.80387722 3.97526018 -45.60778882 3.95712108 -40.41162109 3.94506836 C-38.64436241 3.94004313 -36.87710788 3.93322191 -35.10986328 3.92456055 C-32.56802343 3.91241572 -30.0262386 3.90675355 -27.484375 3.90234375 C-26.30134796 3.89460182 -26.30134796 3.89460182 -25.09442139 3.88670349 C-19.35532666 3.88611808 -19.35532666 3.88611808 -16.95465088 4.65553284 C-16.30961609 4.769207 -15.6645813 4.88288116 -15 5 C-11.84151217 2.67348492 -11.84151217 2.67348492 -9 0 C-5.90842747 -1.54578627 -3.31526981 -0.60277633 0 0 Z " fill="#080808" transform="translate(644,168)"/>
<path d="M0 0 C1.4537075 -0.0100985 1.4537075 -0.0100985 2.93678284 -0.020401 C3.81543503 -0.02132248 4.69408722 -0.02224396 5.59936523 -0.02319336 C6.72350075 -0.02687172 6.72350075 -0.02687172 7.87034607 -0.03062439 C10.00540152 0.09356619 11.88864746 0.50447762 13.94140625 1.08984375 C13.94140625 2.07984375 13.94140625 3.06984375 13.94140625 4.08984375 C11.30140625 4.08984375 8.66140625 4.08984375 5.94140625 4.08984375 C5.73515625 5.14171875 5.52890625 6.19359375 5.31640625 7.27734375 C3.77542853 13.56589253 0.75299847 19.28982961 -2.05859375 25.08984375 C-5.68859375 25.08984375 -9.31859375 25.08984375 -13.05859375 25.08984375 C-14.30897428 28.7874107 -14.30897428 28.7874107 -13.53515625 31.29296875 C-12.11067403 33.41276091 -12.11067403 33.41276091 -9.01953125 33.69921875 C-7.83617187 33.745625 -6.6528125 33.79203125 -5.43359375 33.83984375 C-3.65082031 33.92492187 -3.65082031 33.92492187 -1.83203125 34.01171875 C-0.91679688 34.0375 -0.0015625 34.06328125 0.94140625 34.08984375 C0.77640625 32.95546875 0.61140625 31.82109375 0.44140625 30.65234375 C0.40347476 26.37367221 1.90427755 24.50724084 4.75390625 21.40234375 C5.46160156 20.69722656 6.16929687 19.99210937 6.8984375 19.265625 C9.03807538 17.14334244 9.03807538 17.14334244 10.515625 14.4453125 C11.94140625 12.08984375 11.94140625 12.08984375 14.94140625 10.08984375 C12.62909483 16.31529758 9.37794806 21.19827202 4.94140625 26.08984375 C4.28140625 26.08984375 3.62140625 26.08984375 2.94140625 26.08984375 C2.94140625 29.71984375 2.94140625 33.34984375 2.94140625 37.08984375 C0.52353505 37.19810664 -1.88946931 37.27724164 -4.30859375 37.33984375 C-5.33146484 37.39011719 -5.33146484 37.39011719 -6.375 37.44140625 C-9.78637266 37.5076465 -11.69030494 37.35833817 -14.48046875 35.32421875 C-17.02070707 31.72764371 -17.05859375 29.50278583 -17.05859375 25.08984375 C-15.74609375 22.71484375 -15.74609375 22.71484375 -13.05859375 21.08984375 C-11.41597042 20.85755358 -9.76948927 20.65182593 -8.12109375 20.46484375 C-4.76015071 19.92451515 -3.48057427 19.61970617 -1.33203125 16.921875 C0.80184278 12.69780273 2.0538563 8.72514965 2.94140625 4.08984375 C2.01263672 4.16089828 1.08386719 4.23195282 0.12695312 4.30516052 C-10.78240052 5.07130124 -21.62562789 5.22116214 -32.55859375 5.1875 C-34.3741858 5.18562917 -36.18977836 5.18420842 -38.00537109 5.18321228 C-42.72669937 5.17943935 -47.44799567 5.16965532 -52.16931152 5.1585083 C-57.01000537 5.14818023 -61.85070451 5.14369053 -66.69140625 5.13867188 C-76.14714928 5.128027 -85.60286883 5.11101543 -95.05859375 5.08984375 C-95.38859375 4.42984375 -95.71859375 3.76984375 -96.05859375 3.08984375 C-95.34832031 3.02925781 -94.63804687 2.96867188 -93.90625 2.90625 C-92.52759766 2.78056641 -92.52759766 2.78056641 -91.12109375 2.65234375 C-90.20457031 2.57113281 -89.28804688 2.48992187 -88.34375 2.40625 C-86.09699643 2.32939399 -86.09699643 2.32939399 -85.05859375 1.08984375 C-82.977749 0.96580294 -80.89270936 0.91182403 -78.80834961 0.88452148 C-77.82720184 0.86967209 -77.82720184 0.86967209 -76.82623291 0.85452271 C-74.6420053 0.82271519 -72.45775749 0.79802012 -70.2734375 0.7734375 C-68.74051909 0.75282956 -67.20760588 0.73183219 -65.67469788 0.71046448 C-62.438843 0.66636515 -59.2029691 0.62550521 -55.96704102 0.5871582 C-51.89371499 0.53885395 -47.82048732 0.48509938 -43.74725914 0.42920494 C-29.16560296 0.22955953 -14.58300864 0.05323324 0 0 Z " fill="#212121" transform="translate(580.05859375,243.91015625)"/>
<path d="M0 0 C4.45764736 2.26792585 4.45764736 2.26792585 6 5 C6.45678711 7.7175293 6.45678711 7.7175293 6.65234375 10.69921875 C6.72316162 11.69139404 6.79397949 12.68356934 6.86694336 13.70581055 C6.91085205 14.46289307 6.95476074 15.21997559 7 16 C8.44052734 15.99214478 8.44052734 15.99214478 9.91015625 15.98413086 C38.28648883 15.84447313 66.63258528 16.30954506 95 17 C95 17.99 95 18.98 95 20 C64.29581959 20.38614138 33.67494342 19.26646796 3 18 C2.95319092 17.23131592 2.90638184 16.46263184 2.8581543 15.6706543 C2.7485437 14.1688562 2.7485437 14.1688562 2.63671875 12.63671875 C2.56928467 11.64115967 2.50185059 10.64560059 2.43237305 9.61987305 C2.2289749 6.8042142 2.2289749 6.8042142 -0.1875 4.8125 C-3.41573862 3.87989773 -5.66245053 3.50291816 -9 4 C-11.60314994 5.3530128 -11.60314994 5.3530128 -13 8 C-12.97848419 10.77016045 -12.49493506 13.2553601 -12 16 C-13 17 -13 17 -16 17.125 C-19 17 -19 17 -20 16 C-22.69785797 15.89864401 -25.36477074 15.86138656 -28.0625 15.875 C-28.80177734 15.87113281 -29.54105469 15.86726562 -30.30273438 15.86328125 C-35.28457841 15.87199839 -40.06824587 16.294664 -45 17 C-45.12375 15.14375 -45.12375 15.14375 -45.25 13.25 C-45.63475459 10.01117036 -45.90024003 9.12092117 -48.0625 6.5 C-48.701875 6.005 -49.34125 5.51 -50 5 C-53.0745356 5.7763932 -53.0745356 5.7763932 -55 8 C-55.66 8 -56.32 8 -57 8 C-55.125 3.125 -55.125 3.125 -54 2 C-51.25 1.5625 -51.25 1.5625 -48 2 C-43.96619688 5.76488291 -42.40183098 8.37436623 -42 14 C-41.17886719 13.51144531 -40.35773438 13.02289063 -39.51171875 12.51953125 C-35.4900549 10.77934523 -32.10714065 10.58854515 -27.8125 10.6875 C-27.10158203 10.68427734 -26.39066406 10.68105469 -25.65820312 10.67773438 C-21.91356095 10.7164842 -20.18580976 10.87612683 -17 13 C-17.1546875 11.4221875 -17.1546875 11.4221875 -17.3125 9.8125 C-17 6 -17 6 -14.625 3.125 C-9.95212803 -0.65780112 -5.87568448 -0.74683279 0 0 Z " fill="#191919" transform="translate(493,154)"/>
<path d="M0 0 C0 0.99 0 1.98 0 3 C2.04343648 4.45703304 4.01384325 5.70646462 6.1875 6.9375 C10.38322154 9.36512484 14.23388743 11.93680912 18 15 C19.97711651 16.04451438 21.97250996 17.05698138 24 18 C23.8125 19.8125 23.8125 19.8125 23 22 C20.4375 23.75 20.4375 23.75 18 25 C18 21 18 21 19 20 C17.63875 19.13375 17.63875 19.13375 16.25 18.25 C13 16 13 16 11.1875 14.0625 C8.44621118 11.47785625 5.45729321 9.96201421 2.12109375 8.24609375 C0 7 0 7 -1.33984375 5.34765625 C-4.41774727 2.8491228 -8.22911938 3.82230219 -11.98535156 4.19921875 C-14.0361047 4.44083332 -16.07999555 4.71393132 -18.125 5 C-22.43109382 5.59560924 -26.64145033 6.1356747 -31 6 C-30.67 4.68 -30.34 3.36 -30 2 C-19.90994238 0.53235526 -10.2165875 -0.28734152 0 0 Z " fill="#111111" transform="translate(468,253)"/>
<path d="M0 0 C0.33 0.66 0.66 1.32 1 2 C-1.43930572 7.15738924 -5.1444527 11.83184076 -9 16 C-9.66 16 -10.32 16 -11 16 C-11 19.63 -11 23.26 -11 27 C-13.4178712 27.10826289 -15.83087556 27.18739789 -18.25 27.25 C-19.27287109 27.30027344 -19.27287109 27.30027344 -20.31640625 27.3515625 C-23.72777891 27.41780275 -25.63171119 27.26849442 -28.421875 25.234375 C-30.96211332 21.63779996 -31 19.41294208 -31 15 C-29.6875 12.625 -29.6875 12.625 -27 11 C-24.45360836 10.35091978 -21.93948072 9.8752919 -19.33984375 9.4921875 C-16.74352283 9.09735466 -16.74352283 9.09735466 -14 7 C-14.875 12.75 -14.875 12.75 -16 15 C-19.63 15 -23.26 15 -27 15 C-28.25038053 18.69756695 -28.25038053 18.69756695 -27.4765625 21.203125 C-26.05208028 23.32291716 -26.05208028 23.32291716 -22.9609375 23.609375 C-21.18589844 23.67898438 -21.18589844 23.67898438 -19.375 23.75 C-17.59222656 23.83507812 -17.59222656 23.83507812 -15.7734375 23.921875 C-14.40058594 23.96054687 -14.40058594 23.96054687 -13 24 C-13.165 22.865625 -13.33 21.73125 -13.5 20.5625 C-13.53793149 16.28382846 -12.0371287 14.41739709 -9.1875 11.3125 C-8.47980469 10.60738281 -7.77210938 9.90226562 -7.04296875 9.17578125 C-4.93511892 6.93090103 -3.53733881 4.65620431 -2 2 C-1.34 1.34 -0.68 0.68 0 0 Z " fill="#0C0C0C" transform="translate(594,254)"/>
<path d="M0 0 C1.50433594 0.01353516 1.50433594 0.01353516 3.0390625 0.02734375 C3.80992187 0.03894531 4.58078125 0.05054688 5.375 0.0625 C5.705 1.0525 6.035 2.0425 6.375 3.0625 C5.14523437 3.11857422 5.14523437 3.11857422 3.890625 3.17578125 C2.81296875 3.24152344 1.7353125 3.30726563 0.625 3.375 C-0.44234375 3.43300781 -1.5096875 3.49101562 -2.609375 3.55078125 C-5.8071068 4.09340154 -7.25098691 4.91321145 -9.625 7.0625 C-9.07402718 14.06730391 -9.07402718 14.06730391 -5.625 20.0625 C-1.4844667 22.22669889 2.0662138 22.27387918 6.6875 22.1875 C7.94175781 22.16945312 9.19601562 22.15140625 10.48828125 22.1328125 C11.44089844 22.10960937 12.39351563 22.08640625 13.375 22.0625 C13.375 23.0525 13.375 24.0425 13.375 25.0625 C7.6075928 26.70654251 1.19255638 27.02763949 -4.5 24.9375 C-9.020409 22.2252546 -10.97906689 19.00029932 -12.625 14.0625 C-13.01957593 11.00171818 -13.13257589 8.11347245 -12.625 5.0625 C-8.61180415 0.83808332 -5.66155708 -0.06583206 0 0 Z " fill="#0C0C0C" transform="translate(441.625,192.9375)"/>
<path d="M0 0 C0.99 0 1.98 0 3 0 C3.18304687 0.62390625 3.36609375 1.2478125 3.5546875 1.890625 C4.91662203 4.34008964 4.91662203 4.34008964 8.2578125 5.046875 C9.53398438 5.27890625 10.81015625 5.5109375 12.125 5.75 C13.40632812 5.99234375 14.68765625 6.2346875 16.0078125 6.484375 C16.99523437 6.65453125 17.98265625 6.8246875 19 7 C18.67 7.99 18.34 8.98 18 10 C5.33029613 8.25740319 5.33029613 8.25740319 0 5 C0 3.35 0 1.7 0 0 Z " fill="#030303" transform="translate(595,249)"/>
<path d="M0 0 C0.625 1.75 0.625 1.75 1 4 C0.34 5.32 -0.32 6.64 -1 8 C-4.96 8 -8.92 8 -13 8 C-12.67 6.68 -12.34 5.36 -12 4 C-10.95199219 3.81824219 -10.95199219 3.81824219 -9.8828125 3.6328125 C-8.51769531 3.38144531 -8.51769531 3.38144531 -7.125 3.125 C-5.76761719 2.88136719 -5.76761719 2.88136719 -4.3828125 2.6328125 C-1.83494012 2.16955297 -1.83494012 2.16955297 0 0 Z " fill="#272727" transform="translate(579,261)"/>
<path d="M0 0 C12.87 0.495 12.87 0.495 26 1 C26 1.66 26 2.32 26 3 C17.75 3 9.5 3 1 3 C0.67 2.01 0.34 1.02 0 0 Z " fill="#000000" transform="translate(434,228)"/>
<path d="M0 0 C0.99 0 1.98 0 3 0 C3.17942163 3.94727588 3.09350689 6.5980513 1 10 C-1.375 10.1875 -1.375 10.1875 -4 10 C-6.29013653 6.5647952 -6.17842973 5.014669 -6 1 C-5.34 1 -4.68 1 -4 1 C-3.67 2.65 -3.34 4.3 -3 6 C-2.01 6.33 -1.02 6.66 0 7 C0 4.69 0 2.38 0 0 Z " fill="#040404" transform="translate(509,207)"/>
<path d="M0 0 C0.66 0 1.32 0 2 0 C2.25 7.625 2.25 7.625 0 11 C-4.875 10.125 -4.875 10.125 -6 9 C-6.04080783 7.00041636 -6.04254356 4.99954746 -6 3 C-5.34 3 -4.68 3 -4 3 C-3.67 4.32 -3.34 5.64 -3 7 C-2.34 7 -1.68 7 -1 7 C-0.67 4.69 -0.34 2.38 0 0 Z " fill="#020202" transform="translate(478,221)"/>
<path d="M0 0 C0.33 0.66 0.66 1.32 1 2 C-1.42953432 7.13672971 -5.10057047 11.90059973 -9 16 C-11.15234375 16.66015625 -11.15234375 16.66015625 -13 17 C-11.57703109 15.10270812 -10.15397863 13.20547983 -8.73046875 11.30859375 C-7.58556873 9.78119892 -6.44231245 8.25257048 -5.30078125 6.72265625 C-4.76839844 6.00980469 -4.23601563 5.29695313 -3.6875 4.5625 C-3.19636719 3.90378906 -2.70523438 3.24507813 -2.19921875 2.56640625 C-1 1 -1 1 0 0 Z " fill="#161616" transform="translate(594,254)"/>
<path d="M0 0 C0.66 0 1.32 0 2 0 C2.33 2.31 2.66 4.62 3 7 C3.66 6.67 4.32 6.34 5 6 C5.33 5.01 5.66 4.02 6 3 C6.66 3 7.32 3 8 3 C8.04254356 4.99954746 8.04080783 7.00041636 8 9 C7 10 7 10 4.4375 10.0625 C3.633125 10.041875 2.82875 10.02125 2 10 C-0.09350689 6.5980513 -0.17942163 3.94727588 0 0 Z " fill="#020202" transform="translate(577,192)"/>
<path d="M0 0 C0.66 0 1.32 0 2 0 C2.25 5.625 2.25 5.625 0 9 C-1.65 8.67 -3.3 8.34 -5 8 C-5 6.02 -5 4.04 -5 2 C-4.34 2 -3.68 2 -3 2 C-3 2.99 -3 3.98 -3 5 C-2.34 4.67 -1.68 4.34 -1 4 C-0.34786708 1.97536745 -0.34786708 1.97536745 0 0 Z " fill="#0D0D0D" transform="translate(596,199)"/>
<path d="M0 0 C0.66 0 1.32 0 2 0 C2 1.98 2 3.96 2 6 C2.66 6 3.32 6 4 6 C4.33 4.35 4.66 2.7 5 1 C5.66 1 6.32 1 7 1 C6.67 3.31 6.34 5.62 6 8 C4.35 8.33 2.7 8.66 1 9 C-0.4783226 6.04335481 -0.06032783 3.25770263 0 0 Z " fill="#020202" transform="translate(638,209)"/>
<path d="M0 0 C0.66 0 1.32 0 2 0 C1.125 6.875 1.125 6.875 0 8 C-1.66617115 8.04063832 -3.33388095 8.042721 -5 8 C-5.33 6.02 -5.66 4.04 -6 2 C-5.01 2 -4.02 2 -3 2 C-3 2.99 -3 3.98 -3 5 C-2.34 4.67 -1.68 4.34 -1 4 C-0.34786708 1.97536745 -0.34786708 1.97536745 0 0 Z " fill="#000000" transform="translate(418,206)"/>
<path d="M0 0 C0.66 0.33 1.32 0.66 2 1 C2 1.66 2 2.32 2 3 C0.25185388 4.39138161 -1.59672568 5.56294846 -3.46875 6.78125 C-3.9740625 7.1834375 -4.479375 7.585625 -5 8 C-5 8.66 -5 9.32 -5 10 C-5.99 10 -6.98 10 -8 10 C-7.45502261 6.18515827 -5.84708767 4.51213618 -3 2 C-2.01 1.34 -1.02 0.68 0 0 Z " fill="#202020" transform="translate(637,232)"/>
<path d="M0 0 C2.97 0 5.94 0 9 0 C8.67 0.99 8.34 1.98 8 3 C3.545 3.495 3.545 3.495 -1 4 C-0.67 2.68 -0.34 1.36 0 0 Z " fill="#2A2A2A" transform="translate(438,255)"/>
<path d="M0 0 C2.31 0 4.62 0 7 0 C7 0.99 7 1.98 7 3 C4.69 3.33 2.38 3.66 0 4 C-0.33 3.34 -0.66 2.68 -1 2 C-0.67 1.34 -0.34 0.68 0 0 Z " fill="#242424" transform="translate(448,215)"/>
<path d="M0 0 C2.31 0 4.62 0 7 0 C7.33 0.99 7.66 1.98 8 3 C5.03 3 2.06 3 -1 3 C-0.67 2.01 -0.34 1.02 0 0 Z " fill="#282828" transform="translate(440,193)"/>
<path d="M0 0 C0.33 0.66 0.66 1.32 1 2 C0.22265625 3.9453125 0.22265625 3.9453125 -0.9375 6.125 C-1.31777344 6.84945313 -1.69804688 7.57390625 -2.08984375 8.3203125 C-2.39019531 8.87460937 -2.69054687 9.42890625 -3 10 C-3.66 9.67 -4.32 9.34 -5 9 C-3.90931332 5.22454612 -3.0916909 2.52956528 0 0 Z " fill="#151515" transform="translate(584,252)"/>
<path d="M0 0 C0.33 0 0.66 0 1 0 C0.67 3.3 0.34 6.6 0 10 C-0.66 9.67 -1.32 9.34 -2 9 C-1.125 1.125 -1.125 1.125 0 0 Z " fill="#020202" transform="translate(410,193)"/>
<path d="M0 0 C2.31 0 4.62 0 7 0 C6.67 0.99 6.34 1.98 6 3 C3.69 3 1.38 3 -1 3 C-0.67 2.01 -0.34 1.02 0 0 Z " fill="#1C1C1C" transform="translate(431,256)"/>
</svg>
