<?xml version="1.0" encoding="UTF-8"?>
<svg version="1.1" xmlns="http://www.w3.org/2000/svg" width="800" height="300">
<path d="M0 0 C264 0 528 0 800 0 C800 99 800 198 800 300 C536 300 272 300 0 300 C0 201 0 102 0 0 Z " fill="#FEFEFE" transform="translate(0,0)"/>
<path d="M0 0 C3.4249741 1.42754275 5.72163394 3.06853023 8 6 C8.33569336 8.54150391 8.33569336 8.54150391 8.21484375 11.2265625 C8.18382568 12.12197754 8.15280762 13.01739258 8.12084961 13.93994141 C8.08096924 14.61976074 8.04108887 15.29958008 8 16 C8.86085205 15.99476318 9.7217041 15.98952637 10.60864258 15.98413086 C33.95665876 15.86518501 57.29783559 16.06860985 80.64312363 16.40571976 C82.85652095 16.43723687 85.06993349 16.4673277 87.28335571 16.49703979 C114.44419538 16.86536718 114.44419538 16.86536718 125.7578125 17.47265625 C126.45993866 17.50975204 127.16206482 17.54684784 127.88546753 17.58506775 C130.4658045 17.74440439 132.82880572 17.94963069 135.31591797 18.68139648 C135.87166504 18.78653564 136.42741211 18.8916748 137 19 C137.721875 18.21625 138.44375 17.4325 139.1875 16.625 C142.55896784 13.47829669 144.47831327 13.26398084 148.9140625 12.84765625 C151 13 151 13 154 15 C154.39507893 19.34586828 154.45331002 21.32003497 152 25 C151.34 25 150.68 25 150 25 C151.77631373 29.0289354 151.77631373 29.0289354 154.5 32.41015625 C159.92891282 38.16423833 159.3977223 48.34563668 159.27612305 55.78930664 C158.80789068 70.55930768 158.80789068 70.55930768 153.4375 76.25 C142.59756098 86 142.59756098 86 138 86 C138 86.66 138 87.32 138 88 C138.70125 87.896875 139.4025 87.79375 140.125 87.6875 C144.39878388 88.15204173 146.17568368 89.83945555 149 93 C149.23509259 97.3883951 148.47953729 99.35121425 145.875 102.875 C142.41707363 105.43085862 140.28447247 106 136 106 C135.38125 105.484375 134.7625 104.96875 134.125 104.4375 C132.15927458 102.75949367 132.15927458 102.75949367 130.109375 103.27734375 C129.37203125 103.47457031 128.6346875 103.67179687 127.875 103.875 C119.4958331 106.08655061 111.91846785 104.0411507 104 101 C103.41992188 101.87011719 103.41992188 101.87011719 102.828125 102.7578125 C101.75140073 104.3728989 100.67184988 105.98610359 99.58984375 107.59765625 C98.64298779 109.02840911 97.71212842 110.47028526 96.81640625 111.93359375 C95.8125 113.5625 95.8125 113.5625 94 116 C93.01 116 92.02 116 91 116 C91 119.63 91 123.26 91 127 C88.5821288 127.10826289 86.16912444 127.18739789 83.75 127.25 C83.06808594 127.28351563 82.38617187 127.31703125 81.68359375 127.3515625 C78.27222109 127.41780275 76.36828881 127.26849442 73.578125 125.234375 C71.03788668 121.63779996 71 119.41294208 71 115 C72.3125 112.625 72.3125 112.625 75 111 C76.64171172 110.74296433 78.28839436 110.51679219 79.9375 110.3125 C83.13698812 109.79340901 84.5517851 109.50500231 86.7265625 107.0546875 C89.03069891 102.97191947 90.06808823 99.65955886 91 95 C42.49 95.495 42.49 95.495 -7 96 C-5.02 98.97 -3.04 101.94 -1 105 C-0.67 105.99 -0.34 106.98 0 108 C2.99271817 108.96083447 2.99271817 108.96083447 6.5 109.5625 C8.67905713 109.98173164 10.850677 110.44822488 13 111 C14.84593445 114.69186889 14.34449699 118.96172979 14 123 C12.20212362 127.59457298 9.3604287 129.77864953 5 132 C1.06544361 132.69433348 -2.23870801 132.2854845 -6 130.875 C-8 129 -8 129 -8.5 126.0625 C-7.97013347 122.81706751 -7.20261503 121.38616629 -5 119 C-6.36125 118.13375 -6.36125 118.13375 -7.75 117.25 C-11 115 -11 115 -12.8125 113.0625 C-15.55378882 110.47785625 -18.54270679 108.96201421 -21.87890625 107.24609375 C-24 106 -24 106 -25.25170898 104.4152832 C-27.86988439 102.29580787 -29.7924858 102.82893251 -33.09375 103.109375 C-34.28871094 103.20476562 -35.48367188 103.30015625 -36.71484375 103.3984375 C-37.96394531 103.51445312 -39.21304688 103.63046875 -40.5 103.75 C-41.74910156 103.85054688 -42.99820313 103.95109375 -44.28515625 104.0546875 C-50.74190567 104.5141573 -50.74190567 104.5141573 -57 106 C-59.06145107 106.068991 -61.12501401 106.08467727 -63.1875 106.0625 C-64.27417969 106.05347656 -65.36085938 106.04445313 -66.48046875 106.03515625 C-67.31191406 106.02355469 -68.14335937 106.01195312 -69 106 C-69.13148438 106.78761719 -69.26296875 107.57523437 -69.3984375 108.38671875 C-70 111 -70 111 -71.625 112.8125 C-75.03215469 114.51607735 -77.23207391 114.51971394 -81 114 C-83.97046873 112.20976215 -86.42502414 110.14995172 -88 107 C-88.04003069 101.57984419 -87.83046319 96.59941058 -85.3125 91.75 C-83 90 -83 90 -79.9375 89.5625 C-77 90 -77 90 -74 92 C-70.87478167 92.16699232 -70.87478167 92.16699232 -68 92 C-68.64066406 91.58492188 -69.28132813 91.16984375 -69.94140625 90.7421875 C-77.45267101 85.39139084 -82.79881737 79.12374249 -85 70 C-86.8372363 55.81482673 -85.99913583 40.72535401 -77.5 28.83984375 C-73.02180639 23.3470594 -67.38075263 19.77104884 -60.4375 18.1875 C-59.633125 18.125625 -58.82875 18.06375 -58 18 C-58.0825 17.01 -58.165 16.02 -58.25 15 C-58.27825307 10.38533109 -56.35366383 6.87551072 -54 3 C-53 2 -53 2 -50.3125 1.5625 C-46.25808778 2.09798841 -44.82265133 3.31506886 -42.125 6.265625 C-40.44046611 8.86261474 -40.57244318 11.00710226 -41 14 C-40.154375 13.505 -39.30875 13.01 -38.4375 12.5 C-32.49222339 9.91882024 -25.33467495 10.44381987 -19 11 C-16.54296875 12.01953125 -16.54296875 12.01953125 -15 13 C-15.0825 11.948125 -15.165 10.89625 -15.25 9.8125 C-14.96269651 5.43112175 -14.05154419 4.05154419 -11 1 C-7.45168665 -0.77415668 -3.86515634 -0.61867003 0 0 Z " fill="#FCFCFC" transform="translate(484,154)"/>
<path d="M0 0 C3.4249741 1.42754275 5.72163394 3.06853023 8 6 C8.33569336 8.54150391 8.33569336 8.54150391 8.21484375 11.2265625 C8.18382568 12.12197754 8.15280762 13.01739258 8.12084961 13.93994141 C8.08096924 14.61976074 8.04108887 15.29958008 8 16 C8.86085205 15.99476318 9.7217041 15.98952637 10.60864258 15.98413086 C33.95665876 15.86518501 57.29783559 16.06860985 80.64312363 16.40571976 C82.85652095 16.43723687 85.06993349 16.4673277 87.28335571 16.49703979 C114.44419538 16.86536718 114.44419538 16.86536718 125.7578125 17.47265625 C126.45993866 17.50975204 127.16206482 17.54684784 127.88546753 17.58506775 C130.4658045 17.74440439 132.82880572 17.94963069 135.31591797 18.68139648 C135.87166504 18.78653564 136.42741211 18.8916748 137 19 C137.721875 18.21625 138.44375 17.4325 139.1875 16.625 C142.55896784 13.47829669 144.47831327 13.26398084 148.9140625 12.84765625 C151 13 151 13 154 15 C154.39507893 19.34586828 154.45331002 21.32003497 152 25 C151.34 25 150.68 25 150 25 C151.77631373 29.0289354 151.77631373 29.0289354 154.5 32.41015625 C159.92891282 38.16423833 159.3977223 48.34563668 159.27612305 55.78930664 C158.80789068 70.55930768 158.80789068 70.55930768 153.4375 76.25 C142.59756098 86 142.59756098 86 138 86 C138 86.66 138 87.32 138 88 C138.70125 87.896875 139.4025 87.79375 140.125 87.6875 C144.39878388 88.15204173 146.17568368 89.83945555 149 93 C149.23509259 97.3883951 148.47953729 99.35121425 145.875 102.875 C142.41707363 105.43085862 140.28447247 106 136 106 C135.38125 105.484375 134.7625 104.96875 134.125 104.4375 C132.15927458 102.75949367 132.15927458 102.75949367 130.109375 103.27734375 C129.37203125 103.47457031 128.6346875 103.67179687 127.875 103.875 C119.4958331 106.08655061 111.91846785 104.0411507 104 101 C103.41992188 101.87011719 103.41992188 101.87011719 102.828125 102.7578125 C101.75140073 104.3728989 100.67184988 105.98610359 99.58984375 107.59765625 C98.64298779 109.02840911 97.71212842 110.47028526 96.81640625 111.93359375 C95.8125 113.5625 95.8125 113.5625 94 116 C93.01 116 92.02 116 91 116 C91 119.63 91 123.26 91 127 C88.5821288 127.10826289 86.16912444 127.18739789 83.75 127.25 C83.06808594 127.28351563 82.38617187 127.31703125 81.68359375 127.3515625 C78.27222109 127.41780275 76.36828881 127.26849442 73.578125 125.234375 C71.03788668 121.63779996 71 119.41294208 71 115 C72.3125 112.625 72.3125 112.625 75 111 C76.64171172 110.74296433 78.28839436 110.51679219 79.9375 110.3125 C83.13698812 109.79340901 84.5517851 109.50500231 86.7265625 107.0546875 C89.03069891 102.97191947 90.06808823 99.65955886 91 95 C42.49 95.495 42.49 95.495 -7 96 C-5.02 98.97 -3.04 101.94 -1 105 C-0.67 105.99 -0.34 106.98 0 108 C2.99271817 108.96083447 2.99271817 108.96083447 6.5 109.5625 C8.67905713 109.98173164 10.850677 110.44822488 13 111 C14.84593445 114.69186889 14.34449699 118.96172979 14 123 C12.20212362 127.59457298 9.3604287 129.77864953 5 132 C1.06544361 132.69433348 -2.23870801 132.2854845 -6 130.875 C-8 129 -8 129 -8.5 126.0625 C-7.97013347 122.81706751 -7.20261503 121.38616629 -5 119 C-6.36125 118.13375 -6.36125 118.13375 -7.75 117.25 C-11 115 -11 115 -12.8125 113.0625 C-15.55378882 110.47785625 -18.54270679 108.96201421 -21.87890625 107.24609375 C-24 106 -24 106 -25.25170898 104.4152832 C-27.86988439 102.29580787 -29.7924858 102.82893251 -33.09375 103.109375 C-34.28871094 103.20476562 -35.48367188 103.30015625 -36.71484375 103.3984375 C-37.96394531 103.51445312 -39.21304688 103.63046875 -40.5 103.75 C-41.74910156 103.85054688 -42.99820313 103.95109375 -44.28515625 104.0546875 C-50.74190567 104.5141573 -50.74190567 104.5141573 -57 106 C-59.06145107 106.068991 -61.12501401 106.08467727 -63.1875 106.0625 C-64.27417969 106.05347656 -65.36085938 106.04445313 -66.48046875 106.03515625 C-67.31191406 106.02355469 -68.14335937 106.01195312 -69 106 C-69.13148438 106.78761719 -69.26296875 107.57523437 -69.3984375 108.38671875 C-70 111 -70 111 -71.625 112.8125 C-75.03215469 114.51607735 -77.23207391 114.51971394 -81 114 C-83.97046873 112.20976215 -86.42502414 110.14995172 -88 107 C-88.04003069 101.57984419 -87.83046319 96.59941058 -85.3125 91.75 C-83 90 -83 90 -79.9375 89.5625 C-77 90 -77 90 -74 92 C-70.87478167 92.16699232 -70.87478167 92.16699232 -68 92 C-68.64066406 91.58492188 -69.28132813 91.16984375 -69.94140625 90.7421875 C-77.45267101 85.39139084 -82.79881737 79.12374249 -85 70 C-86.8372363 55.81482673 -85.99913583 40.72535401 -77.5 28.83984375 C-73.02180639 23.3470594 -67.38075263 19.77104884 -60.4375 18.1875 C-59.633125 18.125625 -58.82875 18.06375 -58 18 C-58.0825 17.01 -58.165 16.02 -58.25 15 C-58.27825307 10.38533109 -56.35366383 6.87551072 -54 3 C-53 2 -53 2 -50.3125 1.5625 C-46.25808778 2.09798841 -44.82265133 3.31506886 -42.125 6.265625 C-40.44046611 8.86261474 -40.57244318 11.00710226 -41 14 C-40.154375 13.505 -39.30875 13.01 -38.4375 12.5 C-32.49222339 9.91882024 -25.33467495 10.44381987 -19 11 C-16.54296875 12.01953125 -16.54296875 12.01953125 -15 13 C-15.0825 11.948125 -15.165 10.89625 -15.25 9.8125 C-14.96269651 5.43112175 -14.05154419 4.05154419 -11 1 C-7.45168665 -0.77415668 -3.86515634 -0.61867003 0 0 Z M-12 8 C-12.41518709 10.80770268 -12.24244863 13.13910614 -12 16 C-12.99257813 15.83886719 -13.98515625 15.67773438 -15.0078125 15.51171875 C-18.96071825 14.95028292 -22.88594906 14.80865328 -26.875 14.8125 C-27.92010742 14.8115332 -27.92010742 14.8115332 -28.98632812 14.81054688 C-34.27769701 14.86469111 -38.9283778 15.55096509 -44 17 C-43.896875 15.783125 -43.79375 14.56625 -43.6875 13.3125 C-43.65408479 9.54994773 -43.90669702 9.11196358 -46.5 6 C-47.325 5.34 -48.15 4.68 -49 4 C-51.93576279 5.012332 -52.97512741 5.96357942 -54.75 8.5625 C-56.30903894 12.84985708 -56.27038392 16.49360134 -56 21 C-57.9490625 21.309375 -57.9490625 21.309375 -59.9375 21.625 C-66.93133135 23.2110027 -72.77940325 26.71577659 -76.875 32.6875 C-81.32436534 40.92421439 -82.27617342 48.95354981 -82.375 58.1875 C-82.38893799 59.03086914 -82.40287598 59.87423828 -82.41723633 60.74316406 C-82.34710918 70.0218059 -79.24988626 77.1407144 -73 84 C-64.27207873 92.48391487 -54.49416908 92.23061224 -42.9296875 92.0703125 C-41.96289062 92.04710937 -40.99609375 92.02390625 -40 92 C-47.07977236 93.46135582 -54.03245284 94.32883436 -61.25 94.75390625 C-64.08839777 94.90146001 -64.08839777 94.90146001 -67 96 C-71.30379794 96.39849981 -73.31312143 96.46766201 -76.9375 94 C-77.618125 93.34 -78.29875 92.68 -79 92 C-82.16115776 93.36983503 -82.9927092 93.9890638 -85 97 C-85.8476609 101.76474651 -85.65866879 105.05074203 -82.875 109.0625 C-79.54330259 111.30777434 -77.93672752 111.61237984 -74 111 C-73.01 110.01 -73.01 110.01 -72 109 C-72.32041397 106.39719432 -72.32041397 106.39719432 -73 104 C-56.67638054 102.22209187 -40.35126986 100.50417526 -24 99 C-23.86948242 99.63156006 -23.73896484 100.26312012 -23.60449219 100.91381836 C-22.80307486 103.67961442 -21.71553965 104.15825467 -19.25 105.5625 C-18.528125 105.9853125 -17.80625 106.408125 -17.0625 106.84375 C-16.381875 107.2253125 -15.70125 107.606875 -15 108 C-12.30214103 109.53287442 -10.22167444 110.77117477 -8.0625 113 C-5.61538491 115.37296009 -3.08665282 116.59697599 0 118 C-0.804375 118.7425 -1.60875 119.485 -2.4375 120.25 C-4.76988591 122.75304829 -5.63534394 123.7180955 -6 127 C-2.58044297 129.42218623 0.15505555 128.99895628 4.09765625 128.484375 C6.31011969 128.03320659 6.31011969 128.03320659 9 126 C11.56810865 121.23065537 12.41370507 118.26926434 11 113 C10.09507812 112.92652344 10.09507812 112.92652344 9.171875 112.8515625 C7.97304688 112.73941406 7.97304688 112.73941406 6.75 112.625 C5.96109375 112.55539062 5.1721875 112.48578125 4.359375 112.4140625 C1.82346675 111.969019 0.14714116 111.42225162 -2 110 C-3.03125 108.23046875 -3.03125 108.23046875 -4 106 C-5.14489576 104.09094033 -6.31319795 102.19579393 -7.5 100.3125 C-8.1084375 99.33925781 -8.716875 98.36601562 -9.34375 97.36328125 C-10.78368551 94.9099091 -10.78368551 94.9099091 -13 94 C-13 93.34 -13 92.68 -13 92 C-2.08839739 91.86784824 8.82322381 91.73735798 19.73486996 91.60884857 C24.80445752 91.54909345 29.87403766 91.48881767 34.94360352 91.42724609 C73.66268996 90.95783328 73.66268996 90.95783328 89.12890625 90.90625 C90.1232518 90.8997644 91.11759735 90.89327881 92.14207458 90.88659668 C93.02661819 90.88599243 93.9111618 90.88538818 94.82250977 90.88476562 C95.93977196 90.88168396 95.93977196 90.88168396 97.0796051 90.87854004 C99 91 99 91 102 92 C102.33 92.66 102.66 93.32 103 94 C100.03 94 97.06 94 94 94 C93.59007812 95.10859375 93.18015625 96.2171875 92.7578125 97.359375 C92.21365899 98.82296029 91.66938165 100.28649955 91.125 101.75 C90.85558594 102.47960937 90.58617187 103.20921875 90.30859375 103.9609375 C89.02634981 107.40110416 87.75382129 110.76479567 86 114 C85.21753906 113.98839844 84.43507813 113.97679687 83.62890625 113.96484375 C82.11103516 113.95130859 82.11103516 113.95130859 80.5625 113.9375 C79.55316406 113.92589844 78.54382813 113.91429687 77.50390625 113.90234375 C75.05978933 113.71387324 75.05978933 113.71387324 74 115 C73.58119043 119.05832662 73.58119043 119.05832662 75.12890625 122.68359375 C77.83394418 124.58672065 79.92291068 124.29280933 83.1875 124.1875 C84.81751953 124.14689453 84.81751953 124.14689453 86.48046875 124.10546875 C87.31191406 124.07066406 88.14335938 124.03585937 89 124 C89 122.865625 89 121.73125 89 120.5625 C89.60021565 115.43338445 92.46360821 112.73691201 95.9921875 109.17578125 C98.06663274 106.92779293 99.46915101 104.63743412 101 102 C101.66 101.34 102.32 100.68 103 100 C103.16687448 97.41645782 103.16687448 97.41645782 103 95 C103.99 95 104.98 95 106 95 C106.13728516 95.93585938 106.13728516 95.93585938 106.27734375 96.890625 C106.88084822 99.46196337 106.88084822 99.46196337 110.5625 100.75 C115.97033956 102.52036608 120.70554933 102.76481689 126.1875 100.9375 C129.33467248 99.88844251 130.88249382 99.96083127 134 101 C134.66 101.66 135.32 102.32 136 103 C139.73781379 102.8640795 142.13526148 102.75664621 145 100.25 C146.18351258 98.01985732 146.18351258 98.01985732 145.9375 95.4375 C144.76080551 92.37809433 143.9343683 91.46718415 141 90 C137.33285151 89.74936268 137.33285151 89.74936268 134 90 C133.67 90.99 133.34 91.98 133 93 C132.46375 92.97679687 131.9275 92.95359375 131.375 92.9296875 C123.13802201 92.74002024 115.13780076 93.86918898 107 95 C107.33 94.34 107.66 93.68 108 93 C110.33744294 92.53193355 112.69739079 92.17330206 115.0625 91.875 C116.35285156 91.70742187 117.64320313 91.53984375 118.97265625 91.3671875 C119.97167969 91.24601562 120.97070312 91.12484375 122 91 C122.33 90.01 122.66 89.02 123 88 C123.81404297 88.32677734 123.81404297 88.32677734 124.64453125 88.66015625 C131.56690406 89.65890656 140.56109044 82.28205926 146.09765625 78.4375 C151.12509885 74.638529 155.10050504 70.51620755 156.6875 64.3125 C157.62682502 54.35565474 158.10551462 40.29233151 151.4375 32.125 C149.20114199 29.99612842 149.20114199 29.99612842 147 29 C146.375 26.9375 146.375 26.9375 146 25 C146.9590625 24.5359375 146.9590625 24.5359375 147.9375 24.0625 C149.93610821 23.1654837 149.93610821 23.1654837 151 22 C151.16666667 19.5 151.16666667 19.5 151 17 C150.67 16.67 150.34 16.34 150 16 C146.51944126 16.17567358 146.51944126 16.17567358 143 17 C142.34 17.99 141.68 18.98 141 20 C141.66 20 142.32 20 143 20 C143.33 21.32 143.66 22.64 144 24 C143.24628113 23.71791183 142.49256226 23.43582367 141.71600342 23.14518738 C132.75300325 20.05825919 124.44953856 19.41134179 115.078125 19.42578125 C113.56474233 19.41327624 112.05137394 19.39892605 110.5380249 19.38285828 C106.57587677 19.34513523 102.61397615 19.32971609 98.65167236 19.32006836 C92.37444685 19.30028702 86.0973578 19.24351528 79.82031441 19.19343376 C77.52246618 19.17583365 75.22461028 19.16093666 72.92674255 19.14613342 C63.02897753 19.07454904 53.15621689 18.79620047 43.26753235 18.34640503 C34.81649364 17.96616994 26.39684623 17.88164855 17.9375 17.9375 C16.55794444 17.94255332 15.17838696 17.94710909 13.79882812 17.95117188 C10.53249842 17.96263268 7.26627854 17.9788348 4 18 C4.16628906 16.89011719 4.33257812 15.78023437 4.50390625 14.63671875 C5.19285096 10.62515773 5.19285096 10.62515773 4 7 C1.20028235 4.70932192 -1.01221104 3.21683172 -4.5625 2.4375 C-8.33347256 3.30772444 -9.74045065 4.90118946 -12 8 Z " fill="#131313" transform="translate(484,154)"/>
<path d="M0 0 C3.52343021 -0.04377963 7.04671952 -0.07491375 10.5703125 -0.10186768 C12.09507202 -0.12453453 12.09507202 -0.12453453 13.65063477 -0.1476593 C14.57416748 -0.15180344 15.4977002 -0.15594757 16.44921875 -0.16021729 C17.24013916 -0.16790634 18.03105957 -0.1755954 18.84594727 -0.18351746 C21.27845732 0.07976982 22.90024542 0.83781873 25.0078125 2.05047607 C25.0078125 2.71047607 25.0078125 3.37047607 25.0078125 4.05047607 C22.0378125 4.05047607 19.0678125 4.05047607 16.0078125 4.05047607 C15.76998047 5.06754639 15.76998047 5.06754639 15.52734375 6.10516357 C13.81463582 12.93707033 11.3936332 18.88105574 8.0078125 25.05047607 C7.23695313 25.01567139 6.46609375 24.9808667 5.671875 24.94500732 C4.16753906 24.90440186 4.16753906 24.90440186 2.6328125 24.86297607 C1.63507813 24.82817139 0.63734375 24.7933667 -0.390625 24.75750732 C-1.67839844 24.90252686 -1.67839844 24.90252686 -2.9921875 25.05047607 C-3.9821875 26.53547607 -3.9821875 26.53547607 -4.9921875 28.05047607 C-5.6521875 27.72047607 -6.3121875 27.39047607 -6.9921875 27.05047607 C-5.54833723 22.47828356 -5.54833723 22.47828356 -3.3671875 20.80047607 C-0.9921875 20.05047607 -0.9921875 20.05047607 2.9453125 19.98797607 C5.81640631 19.7040806 6.71121994 19.40158933 8.6015625 17.16375732 C10.94385689 13.04431515 12.06475123 9.7657824 13.0078125 5.05047607 C-19.3321875 5.05047607 -51.6721875 5.05047607 -84.9921875 5.05047607 C-85.3221875 4.39047607 -85.6521875 3.73047607 -85.9921875 3.05047607 C-85.28191406 2.98989014 -84.57164062 2.9293042 -83.83984375 2.86688232 C-82.46119141 2.74119873 -82.46119141 2.74119873 -81.0546875 2.61297607 C-80.13816406 2.53176514 -79.22164063 2.4505542 -78.27734375 2.36688232 C-76.03059018 2.29002631 -76.03059018 2.29002631 -74.9921875 1.05047607 C-72.91663894 0.9264365 -70.83688494 0.87245649 -68.7578125 0.84515381 C-67.77907417 0.83030441 -67.77907417 0.83030441 -66.78056335 0.81515503 C-64.60114236 0.78334274 -62.4217012 0.75864819 -60.2421875 0.73406982 C-58.71166474 0.71345991 -57.18114716 0.69246249 -55.65063477 0.6710968 C-52.41897614 0.62699291 -49.18729842 0.58613602 -45.95556641 0.54779053 C-41.89126579 0.49952827 -37.82706514 0.44575022 -33.76286316 0.38985252 C-25.25611964 0.27304032 -16.7493379 0.17494599 -8.2421875 0.09313965 C-5.49469182 0.06652893 -2.74742213 0.03473762 0 0 Z " fill="#212121" transform="translate(561.9921875,243.94952392578125)"/>
<path d="M0 0 C0.7109375 1.7578125 0.7109375 1.7578125 1 4 C-3.08585101 9.9017848 -9.75765826 14.58095805 -16 18 C-16.66 18 -17.32 18 -18 18 C-18 18.66 -18 19.32 -18 20 C-17.29875 19.896875 -16.5975 19.79375 -15.875 19.6875 C-11.60121612 20.15204173 -9.82431632 21.83945555 -7 25 C-6.76490741 29.3883951 -7.52046271 31.35121425 -10.125 34.875 C-13.58292637 37.43085862 -15.71552753 38 -20 38 C-20.61875 37.484375 -21.2375 36.96875 -21.875 36.4375 C-23.84072542 34.75949367 -23.84072542 34.75949367 -25.890625 35.27734375 C-26.99664063 35.57318359 -26.99664063 35.57318359 -28.125 35.875 C-36.5041669 38.08655061 -44.08153215 36.0411507 -52 33 C-52.58007812 33.87011719 -52.58007812 33.87011719 -53.171875 34.7578125 C-54.24859927 36.3728989 -55.32815012 37.98610359 -56.41015625 39.59765625 C-57.35701221 41.02840911 -58.28787158 42.47028526 -59.18359375 43.93359375 C-60.1875 45.5625 -60.1875 45.5625 -62 48 C-62.99 48 -63.98 48 -65 48 C-65 51.63 -65 55.26 -65 59 C-67.4178712 59.10826289 -69.83087556 59.18739789 -72.25 59.25 C-73.27287109 59.30027344 -73.27287109 59.30027344 -74.31640625 59.3515625 C-77.76474107 59.41852046 -79.63511791 59.27132258 -82.4375 57.1875 C-84.3706303 54.48111758 -84.70183526 52.27981213 -85 49 C-84.01 48.505 -84.01 48.505 -83 48 C-82.34 50.31 -81.68 52.62 -81 55 C-74.07 55.495 -74.07 55.495 -67 56 C-67.165 54.865625 -67.33 53.73125 -67.5 52.5625 C-67.53793149 48.28382846 -66.0371287 46.41739709 -63.1875 43.3125 C-62.47980469 42.60738281 -61.77210938 41.90226562 -61.04296875 41.17578125 C-58.93511892 38.93090103 -57.53733881 36.65620431 -56 34 C-55.34 33.34 -54.68 32.68 -54 32 C-53.35232207 29.42938689 -53.35232207 29.42938689 -53 27 C-52.01 27 -51.02 27 -50 27 C-49.505 28.485 -49.505 28.485 -49 30 C-42.458713 33.09850437 -36.87655195 34.29218398 -29.8125 31.9375 C-26.66532752 30.88844251 -25.11750618 30.96083127 -22 32 C-21.34 32.66 -20.68 33.32 -20 34 C-16.47105052 33.91256309 -16.47105052 33.91256309 -13 33 C-10.71861055 30.24301816 -10.71861055 30.24301816 -11.1875 27.4375 C-11.83372442 24.66744883 -11.83372442 24.66744883 -15 23 C-17.33199388 22.92094936 -19.66832622 22.91201231 -22 23 C-22.33 23.66 -22.66 24.32 -23 25 C-24.74658203 25.41064453 -24.74658203 25.41064453 -27.0078125 25.6328125 C-28.24144531 25.75849609 -28.24144531 25.75849609 -29.5 25.88671875 C-30.36625 25.96535156 -31.2325 26.04398438 -32.125 26.125 C-33.38957031 26.25455078 -33.38957031 26.25455078 -34.6796875 26.38671875 C-39.47684613 26.85600601 -44.18100312 27.09141728 -49 27 C-48.505 25.515 -48.505 25.515 -48 24 C-47.00097656 23.87882812 -46.00195312 23.75765625 -44.97265625 23.6328125 C-43.68230469 23.46523437 -42.39195312 23.29765625 -41.0625 23.125 C-39.77472656 22.96257812 -38.48695313 22.80015625 -37.16015625 22.6328125 C-36.11730469 22.42398438 -35.07445312 22.21515625 -34 22 C-33.67 21.34 -33.34 20.68 -33 20 C-31.3438054 19.61802052 -29.67436188 19.29223483 -28 19 C-21.29443312 16.90380598 -15.84389106 13.77606206 -10.2265625 9.5859375 C-8 8 -8 8 -5.78125 6.9140625 C-3.43760502 5.71140257 -3.03563209 4.36715906 -2 2 C-1.34 1.34 -0.68 0.68 0 0 Z " fill="#0E0E0E" transform="translate(640,222)"/>
<path d="M0 0 C0.99 0.66 1.98 1.32 3 2 C3.39507893 6.34586828 3.45331002 8.32003497 1 12 C0.34 12 -0.32 12 -1 12 C0.77631373 16.0289354 0.77631373 16.0289354 3.5 19.41015625 C9.42366204 25.68862097 8.34839967 37.03100295 8.203125 45.08203125 C8.02714222 48.47646835 7.64856383 51.66826482 7 55 C5.515 55.495 5.515 55.495 4 56 C4.165 54.88625 4.33 53.7725 4.5 52.625 C5.69239728 42.57729938 5.05727965 32.69659591 2 23 C-0.00219446 20.71492317 -0.00219446 20.71492317 -2 19 C-2 18.34 -2 17.68 -2 17 C-3.485 16.505 -3.485 16.505 -5 16 C-5 14.68 -5 13.36 -5 12 C-4.34 11.525625 -3.68 11.05125 -3 10.5625 C-2.34 10.046875 -1.68 9.53125 -1 9 C-0.66574265 6.37374861 -0.66574265 6.37374861 -1 4 C-3.31 4.33 -5.62 4.66 -8 5 C-8 7.15634036 -7.5534764 8.92446352 -7 11 C-14.47653412 10.2396745 -14.47653412 10.2396745 -17.19706726 8.99404907 C-20.61790425 7.78086269 -23.45577941 7.71983184 -27.08520508 7.68115234 C-27.77843872 7.67110672 -28.47167236 7.6610611 -29.18591309 7.65071106 C-31.46377783 7.61996637 -33.74152551 7.60286855 -36.01953125 7.5859375 C-37.6042328 7.5672188 -39.18892446 7.54764486 -40.77360535 7.5272522 C-44.93441934 7.475999 -49.09526562 7.43633695 -53.25622559 7.39910889 C-57.50618432 7.35902642 -61.75600952 7.30795346 -66.00585938 7.2578125 C-74.33714825 7.16113391 -82.66850339 7.07670347 -91 7 C-91 6.01 -91 5.02 -91 4 C-83.49675235 3.97432986 -75.99351631 3.95700106 -68.49023438 3.94506836 C-65.94563372 3.94008588 -63.40103585 3.93329748 -60.85644531 3.92456055 C-36.40857172 3.84281117 -36.40857172 3.84281117 -25.4609375 4.44140625 C-24.38847275 4.49988991 -24.38847275 4.49988991 -23.29434204 4.55955505 C-20.66079948 4.72809086 -18.23121413 4.93148758 -15.69384766 5.68334961 C-15.13487793 5.78784424 -14.5759082 5.89233887 -14 6 C-11.39585286 3.64587234 -11.39585286 3.64587234 -9 1 C-5.74531799 -0.084894 -3.4103976 -0.21314985 0 0 Z " fill="#1C1C1C" transform="translate(635,167)"/>
<path d="M0 0 C4.95 0.33 9.9 0.66 15 1 C15 1.33 15 1.66 15 2 C10.545 2.495 10.545 2.495 6 3 C6.97270601 6.71396841 8.12631819 9.376162 10.625 12.25 C13 15 13 15 13 17 C13.92683594 17.19335938 14.85367187 17.38671875 15.80859375 17.5859375 C17.00613281 17.84632813 18.20367187 18.10671875 19.4375 18.375 C21.22994141 18.75785156 21.22994141 18.75785156 23.05859375 19.1484375 C24.02925781 19.42945313 24.99992187 19.71046875 26 20 C27.84593445 23.69186889 27.34449699 27.96172979 27 32 C25.20212362 36.59457298 22.3604287 38.77864953 18 41 C13.92932689 41.71835408 10.7428689 41.37143445 7 39.5 C6.34 39.005 5.68 38.51 5 38 C5.33 36.35 5.66 34.7 6 33 C6.66 33.99 7.32 34.98 8 36 C13.40534019 37.17115704 16.80744353 37.2068365 22 35 C23.43966791 28.55123906 23.43966791 28.55123906 24 22 C23.46375 22.20625 22.9275 22.4125 22.375 22.625 C19.01398052 23.15568729 17.09268121 22.38855075 14 21 C9.89718669 17.61517902 7.27782758 13.51552726 4.42578125 9.09375 C2.84714093 6.7755275 1.10030985 4.85796641 -1 3 C-0.67 2.01 -0.34 1.02 0 0 Z " fill="#131313" transform="translate(471,245)"/>
<path d="M0 0 C0.33 0.99 0.66 1.98 1 3 C0.08476562 3.13277344 -0.83046875 3.26554688 -1.7734375 3.40234375 C-2.96195312 3.57894531 -4.15046875 3.75554687 -5.375 3.9375 C-6.55835938 4.11152344 -7.74171875 4.28554687 -8.9609375 4.46484375 C-11.90702381 4.83462786 -11.90702381 4.83462786 -14 6 C-14.46651207 8.12576782 -14.46651207 8.12576782 -14.625 10.5625 C-14.69976562 11.38878906 -14.77453125 12.21507812 -14.8515625 13.06640625 C-14.90054687 13.70449219 -14.94953125 14.34257812 -15 15 C-14.34 15 -13.68 15 -13 15 C-13 15.99 -13 16.98 -13 18 C-12.34 18 -11.68 18 -11 18 C-11 18.99 -11 19.98 -11 21 C-6.84373632 22.00926479 -2.95634906 22.10239579 1.3125 22.0625 C2.56675781 22.05347656 3.82101562 22.04445312 5.11328125 22.03515625 C6.06589844 22.02355469 7.01851563 22.01195312 8 22 C8 22.99 8 23.98 8 25 C-7.40139096 26.77297566 -7.40139096 26.77297566 -13 23 C-16.45080535 18.64108798 -18.13921721 15.03913949 -18.25 9.5 C-18.27578125 8.7265625 -18.3015625 7.953125 -18.328125 7.15625 C-17.91786989 4.46028784 -17.11846448 3.6616392 -15 2 C-9.99343982 -0.26487246 -5.37723694 -0.21508948 0 0 Z " fill="#151515" transform="translate(439,193)"/>
<path d="M0 0 C0.66 0.99 1.32 1.98 2 3 C1.401875 3.721875 0.80375 4.44375 0.1875 5.1875 C-1.78429175 7.72266082 -3.38086797 10.23398278 -5 13 C-7 16.3125 -7 16.3125 -9 19 C-9.99 19 -10.98 19 -12 19 C-12 22.63 -12 26.26 -12 30 C-14.4178712 30.10826289 -16.83087556 30.18739789 -19.25 30.25 C-20.27287109 30.30027344 -20.27287109 30.30027344 -21.31640625 30.3515625 C-24.76474107 30.41852046 -26.63511791 30.27132258 -29.4375 28.1875 C-31.3706303 25.48111758 -31.70183526 23.27981213 -32 20 C-31.34 19.67 -30.68 19.34 -30 19 C-29.34 21.31 -28.68 23.62 -28 26 C-21.07 26.495 -21.07 26.495 -14 27 C-14.165 25.865625 -14.33 24.73125 -14.5 23.5625 C-14.53793149 19.28382846 -13.0371287 17.41739709 -10.1875 14.3125 C-9.47980469 13.60738281 -8.77210938 12.90226562 -8.04296875 12.17578125 C-5.92799537 9.92331438 -4.50253223 7.69058096 -3 5 C-2 3.33333333 -1 1.66666667 0 0 Z " fill="#111111" transform="translate(587,251)"/>
<path d="M0 0 C0.99 0 1.98 0 3 0 C0.60526316 9.39473684 0.60526316 9.39473684 -2 12 C-4.88812164 12.22385137 -7.61750518 12.12047102 -10.50390625 11.8828125 C-11.73947266 11.94082031 -11.73947266 11.94082031 -13 12 C-13.99 13.485 -13.99 13.485 -15 15 C-15.66 14.67 -16.32 14.34 -17 14 C-15.55614973 9.42780749 -15.55614973 9.42780749 -13.375 7.75 C-11.09272528 7.02928167 -9.30797006 6.88918356 -6.9375 6.75 C-4.85762222 6.62123313 -4.85762222 6.62123313 -3 6 C-0.91367303 3.08158143 -0.91367303 3.08158143 0 0 Z " fill="#272727" transform="translate(572,257)"/>
<path d="M0 0 C0.99 0.33 1.98 0.66 3 1 C0.59829722 3.47032286 -1.67177708 5.77024395 -4.5 7.75 C-7.55706568 10.50135911 -9.00089322 13.40787167 -10.7890625 17.07421875 C-12 19 -12 19 -15 20 C-12.91347095 12.41262163 -8.98714057 5.7909984 -2.5 1.25 C-1.675 0.8375 -0.85 0.425 0 0 Z " fill="#0B0B0B" transform="translate(416,175)"/>
<path d="M0 0 C0.99 0 1.98 0 3 0 C3.36923077 6.4 3.36923077 6.4 1.5 9.4375 C1.005 9.953125 0.51 10.46875 0 11 C-4.875 10.125 -4.875 10.125 -6 9 C-6.04080783 7.00041636 -6.04254356 4.99954746 -6 3 C-5.01 3.33 -4.02 3.66 -3 4 C-3 5.32 -3 6.64 -3 8 C-2.34 7.67 -1.68 7.34 -1 7 C-0.59270772 4.67843403 -0.25561323 2.3431213 0 0 Z " fill="#1D1D1D" transform="translate(470,221)"/>
<path d="M0 0 C12.87 0.495 12.87 0.495 26 1 C26 1.66 26 2.32 26 3 C17.75 3 9.5 3 1 3 C0.67 2.01 0.34 1.02 0 0 Z " fill="#020202" transform="translate(426,228)"/>
<path d="M0 0 C0.99 0 1.98 0 3 0 C3.25 6.625 3.25 6.625 1 10 C-1.5 10.375 -1.5 10.375 -4 10 C-6.29013653 6.5647952 -6.17842973 5.014669 -6 1 C-5.34 1 -4.68 1 -4 1 C-3.67 2.65 -3.34 4.3 -3 6 C-2.01 6.33 -1.02 6.66 0 7 C0 4.69 0 2.38 0 0 Z " fill="#0A0A0A" transform="translate(501,207)"/>
<path d="M0 0 C0.66 0.99 1.32 1.98 2 3 C1.401875 3.721875 0.80375 4.44375 0.1875 5.1875 C-1.78429175 7.72266082 -3.38086797 10.23398278 -5 13 C-7.54071242 17.31921112 -9.07793526 19.63275979 -14 21 C-12.67688973 18.10688328 -11.19694261 15.91418867 -9.0625 13.5625 C-6.6773311 10.84734414 -4.75420466 8.17427511 -3 5 C-2 3.33333333 -1 1.66666667 0 0 Z " fill="#141414" transform="translate(587,251)"/>
<path d="M0 0 C0.66 0 1.32 0 2 0 C2.66 1.98 3.32 3.96 4 6 C4.66 5.01 5.32 4.02 6 3 C6.99 3.33 7.98 3.66 9 4 C8.125 8.875 8.125 8.875 7 10 C5.33382885 10.04063832 3.66611905 10.042721 2 10 C-0.09350689 6.5980513 -0.17942163 3.94727588 0 0 Z " fill="#121212" transform="translate(569,192)"/>
<path d="M0 0 C0.66 0 1.32 0 2 0 C1.84660156 1.1034375 1.69320313 2.206875 1.53515625 3.34375 C0.90498324 8.3851341 0.66239916 13.42686479 0.4375 18.5 C0.39431641 19.4178125 0.35113281 20.335625 0.30664062 21.28125 C0.20166544 23.52072061 0.09950752 25.76028092 0 28 C-0.33 28 -0.66 28 -1 28 C-1.06058594 26.72382813 -1.12117188 25.44765625 -1.18359375 24.1328125 C-1.26799568 22.46352984 -1.35264386 20.79425963 -1.4375 19.125 C-1.47681641 18.28324219 -1.51613281 17.44148438 -1.55664062 16.57421875 C-1.59853516 15.76855469 -1.64042969 14.96289062 -1.68359375 14.1328125 C-1.73858032 13.01737061 -1.73858032 13.01737061 -1.79467773 11.87939453 C-1.89955865 9.91135688 -1.89955865 9.91135688 -3 8 C-1.37209302 1.37209302 -1.37209302 1.37209302 0 0 Z " fill="#484848" transform="translate(402,194)"/>
<path d="M0 0 C0.66 0 1.32 0 2 0 C2.25 5.625 2.25 5.625 0 9 C-1.65 8.67 -3.3 8.34 -5 8 C-5 6.02 -5 4.04 -5 2 C-4.34 2 -3.68 2 -3 2 C-3 2.99 -3 3.98 -3 5 C-2.34 4.67 -1.68 4.34 -1 4 C-0.34786708 1.97536745 -0.34786708 1.97536745 0 0 Z " fill="#0F0F0F" transform="translate(588,199)"/>
<path d="M0 0 C0.33 0 0.66 0 1 0 C1.33 3.3 1.66 6.6 2 10 C-2.95 11.485 -2.95 11.485 -8 13 C-8 11.68 -8 10.36 -8 9 C-5.36 8.34 -2.72 7.68 0 7 C0 4.69 0 2.38 0 0 Z " fill="#232323" transform="translate(426,165)"/>
<path d="M0 0 C0.66 0 1.32 0 2 0 C2.33 1.65 2.66 3.3 3 5 C3.66 3.68 4.32 2.36 5 1 C5.66 1 6.32 1 7 1 C6.67 3.31 6.34 5.62 6 8 C4.35 8.33 2.7 8.66 1 9 C-0.4783226 6.04335481 -0.06032783 3.25770263 0 0 Z " fill="#060606" transform="translate(630,209)"/>
<path d="M0 0 C0.66 0 1.32 0 2 0 C2 2.31 2 4.62 2 7 C-0.31 7.33 -2.62 7.66 -5 8 C-5.33 6.02 -5.66 4.04 -6 2 C-5.01 2 -4.02 2 -3 2 C-3 2.99 -3 3.98 -3 5 C-2.34 4.67 -1.68 4.34 -1 4 C-0.34786708 1.97536745 -0.34786708 1.97536745 0 0 Z " fill="#0C0C0C" transform="translate(410,206)"/>
<path d="M0 0 C1.09658936 3.28976808 0.79953138 4.71303767 0 8 C-0.99 8.33 -1.98 8.66 -3 9 C-2.4140625 2.84765625 -2.4140625 2.84765625 -2 1 C-1.34 0.67 -0.68 0.34 0 0 Z " fill="#050505" transform="translate(399,248)"/>
<path d="M0 0 C0.66 0.99 1.32 1.98 2 3 C-1.625 7.875 -1.625 7.875 -5 9 C-3.50163895 5.88801935 -1.80066242 2.9465385 0 0 Z " fill="#242424" transform="translate(587,251)"/>
</svg>
