<?xml version="1.0" encoding="UTF-8"?>
<svg version="1.1" xmlns="http://www.w3.org/2000/svg" width="800" height="300">
<path d="M0 0 C264 0 528 0 800 0 C800 99 800 198 800 300 C536 300 272 300 0 300 C0 201 0 102 0 0 Z " fill="#FEFEFE" transform="translate(0,0)"/>
<path d="M0 0 C4.37356702 0.5085543 7.50480992 1.26052669 11 4 C12.96457553 7.25171122 14 9.18692647 14 13 C22.58 13 31.16 13 40 13 C40.66 9.7 41.32 6.4 42 3 C42.66 2.01 43.32 1.02 44 0 C49.45473727 -0.99327538 55.34155698 -0.98016153 60.1875 1.9375 C62.96456588 4.26969611 63.51115435 6.25587974 63.9375 9.8125 C63.96841334 11.20814648 63.99086 12.60404112 64 14 C65.55799316 13.99129883 65.55799316 13.99129883 67.14746094 13.98242188 C76.4860081 13.94662406 85.79780692 14.1033675 95.13082886 14.42779541 C108.89978595 14.89693256 122.6607668 15.11002455 136.4375 15.125 C137.24489624 15.12749756 138.05229248 15.12999512 138.88415527 15.13256836 C141.17151262 15.13842347 143.45873516 15.13699902 145.74609375 15.1328125 C147.05247803 15.13168457 148.3588623 15.13055664 149.70483398 15.12939453 C152.40552365 15.02334389 154.43085881 14.68472706 157 14 C160.97584126 13.77286361 164.95579107 13.81018084 168.9375 13.8125 C170.62153931 13.8115332 170.62153931 13.8115332 172.33959961 13.81054688 C180.07432275 13.8598376 187.42882032 14.31417073 195 16 C195.38929688 15.34644531 195.77859375 14.69289062 196.1796875 14.01953125 C198 12 198 12 200.4453125 11.57421875 C201.32960938 11.61160156 202.21390625 11.64898437 203.125 11.6875 C204.01445313 11.71199219 204.90390625 11.73648438 205.8203125 11.76171875 C208 12 208 12 209 13 C208.64467586 16.62430619 208.129985 19.68153675 206.75 23.0625 C205.72918313 27.06069942 207.02924185 28.44646294 209 32 C209.52980469 32.86238281 210.05960938 33.72476563 210.60546875 34.61328125 C216.1233564 44.0277513 216.62715625 53.53982163 214.33203125 64.0625 C211.10937558 73.29421231 205.10131814 77.70997793 196.5625 81.9375 C194.44885641 82.95222826 192.32929193 83.95319808 190.20654297 84.94873047 C187.94339328 86.0269693 185.70658388 87.1476999 183.47265625 88.28515625 C182.74425537 88.65584229 182.01585449 89.02652832 181.26538086 89.40844727 C179.86049521 90.12491171 178.45633552 90.84280183 177.05297852 91.56225586 C172.22232655 94 172.22232655 94 170 94 C171.19131697 101.5954719 171.19131697 101.5954719 175 108 C177.280248 108.69472977 179.48240327 109.12259511 181.84375 109.4453125 C184.43679865 110.11236487 185.41738568 110.85501015 187 113 C187.55218463 118.61387712 187.12509183 122.13874605 184 127 C180.42878282 129.38081145 178.73325367 129.26906871 174.5 129.25 C173.3553125 129.25515625 172.210625 129.2603125 171.03125 129.265625 C168 129 168 129 165 127 C164.82703173 124.16598141 165.07042188 121.45812578 165.28515625 118.62890625 C165.2926133 115.84998458 165.2926133 115.84998458 162.99609375 114.33984375 C162.33738281 113.89769531 161.67867187 113.45554687 161 113 C161 112.01 161 111.02 161 110 C160.34 110 159.68 110 159 110 C157.02 105.545 157.02 105.545 155 101 C153.700625 101.28875 152.40125 101.5775 151.0625 101.875 C143.375 103.58333333 135.6875 105.29166667 128 107 C127.95875 107.721875 127.9175 108.44375 127.875 109.1875 C126.67670118 113.03917478 124.46156072 115.11046798 121 117 C116.70631061 117.67795096 114.8124795 117.51221534 111.125 115.1875 C107.72711744 111.68967972 107.84095511 108.62121116 107.8125 103.9375 C107.79832031 102.87402344 107.78414062 101.81054688 107.76953125 100.71484375 C108 98 108 98 110 96 C114.13997567 95.8028583 117.07703567 95.69234522 121 97 C127.90874351 97.69087435 129.88171804 96.16368087 137 93 C117.2 93.66 97.4 94.32 77 95 C77 97.97 77 100.94 77 104 C76.05987349 108.49171553 73.4189323 111.07040258 69.94140625 113.89453125 C68 115 68 115 64.25 115.0625 C59.46431501 113.49794914 59.46431501 113.49794914 58 111 C57.95734973 109.00045481 57.95400405 106.99947102 58 105 C56.67935547 104.81824219 56.67935547 104.81824219 55.33203125 104.6328125 C54.17058594 104.46523438 53.00914062 104.29765625 51.8125 104.125 C50.66394531 103.96257812 49.51539063 103.80015625 48.33203125 103.6328125 C45.29473812 103.05597605 42.84460185 102.16029812 40 101 C37.5679241 100.55747943 37.5679241 100.55747943 35.1875 100.375 C34.39730469 100.30023438 33.60710937 100.22546875 32.79296875 100.1484375 C31.90544922 100.07496094 31.90544922 100.07496094 31 100 C32.42673359 102.88634122 33.90494836 105.54445319 36 108 C39.55652459 108.90137027 39.55652459 108.90137027 43 109 C45.09807076 110.56365651 45.88333597 111.59905969 46.6171875 114.12109375 C46.70226562 114.88550781 46.78734375 115.64992188 46.875 116.4375 C46.97554688 117.19933594 47.07609375 117.96117187 47.1796875 118.74609375 C46.94204234 121.72699068 46.10543046 122.89912675 44 125 C38.18814266 127.33693564 32.79289053 127.43301402 27 125 C24.8046875 123.75 24.8046875 123.75 23 122 C22.75 119.51171875 22.75 119.51171875 23 116.6875 C23.19130762 111.50169707 22.46208099 109.03909449 19 105 C16.68762377 102.18179147 14.70015181 99.52684952 13 96.3125 C10.75215694 92.57699309 10.75215694 92.57699309 7 91 C5.15823686 90.78045208 3.31495429 90.56644063 1.46606445 90.41845703 C-6.67345746 89.76273373 -12.38348446 88.03063166 -19 83 C-19.99 82.319375 -20.98 81.63875 -22 80.9375 C-24.26402543 78.74422536 -24.94615413 76.93571348 -26 74 C-26.515625 73.484375 -27.03125 72.96875 -27.5625 72.4375 C-31.63948051 68.36051949 -30.23726486 60.36572071 -30.25 55.0625 C-30.21204288 31.961465 -30.21204288 31.961465 -23.75 24.875 C-18.06720275 20.06189709 -12.23527827 18.63467353 -5 18 C-5.103125 16.88625 -5.20625 15.7725 -5.3125 14.625 C-5.3625998 9.03386248 -2.71971933 4.74008226 0 0 Z " fill="#FCFCFC" transform="translate(421,155)"/>
<path d="M0 0 C4.37356702 0.5085543 7.50480992 1.26052669 11 4 C12.96457553 7.25171122 14 9.18692647 14 13 C22.58 13 31.16 13 40 13 C40.66 9.7 41.32 6.4 42 3 C42.66 2.01 43.32 1.02 44 0 C49.45473727 -0.99327538 55.34155698 -0.98016153 60.1875 1.9375 C62.96456588 4.26969611 63.51115435 6.25587974 63.9375 9.8125 C63.96841334 11.20814648 63.99086 12.60404112 64 14 C65.55799316 13.99129883 65.55799316 13.99129883 67.14746094 13.98242188 C76.4860081 13.94662406 85.79780692 14.1033675 95.13082886 14.42779541 C108.89978595 14.89693256 122.6607668 15.11002455 136.4375 15.125 C137.24489624 15.12749756 138.05229248 15.12999512 138.88415527 15.13256836 C141.17151262 15.13842347 143.45873516 15.13699902 145.74609375 15.1328125 C147.05247803 15.13168457 148.3588623 15.13055664 149.70483398 15.12939453 C152.40552365 15.02334389 154.43085881 14.68472706 157 14 C160.97584126 13.77286361 164.95579107 13.81018084 168.9375 13.8125 C170.62153931 13.8115332 170.62153931 13.8115332 172.33959961 13.81054688 C180.07432275 13.8598376 187.42882032 14.31417073 195 16 C195.38929688 15.34644531 195.77859375 14.69289062 196.1796875 14.01953125 C198 12 198 12 200.4453125 11.57421875 C201.32960938 11.61160156 202.21390625 11.64898437 203.125 11.6875 C204.01445313 11.71199219 204.90390625 11.73648438 205.8203125 11.76171875 C208 12 208 12 209 13 C208.64467586 16.62430619 208.129985 19.68153675 206.75 23.0625 C205.72918313 27.06069942 207.02924185 28.44646294 209 32 C209.52980469 32.86238281 210.05960938 33.72476563 210.60546875 34.61328125 C216.1233564 44.0277513 216.62715625 53.53982163 214.33203125 64.0625 C211.10937558 73.29421231 205.10131814 77.70997793 196.5625 81.9375 C194.44885641 82.95222826 192.32929193 83.95319808 190.20654297 84.94873047 C187.94339328 86.0269693 185.70658388 87.1476999 183.47265625 88.28515625 C182.74425537 88.65584229 182.01585449 89.02652832 181.26538086 89.40844727 C179.86049521 90.12491171 178.45633552 90.84280183 177.05297852 91.56225586 C172.22232655 94 172.22232655 94 170 94 C171.19131697 101.5954719 171.19131697 101.5954719 175 108 C177.280248 108.69472977 179.48240327 109.12259511 181.84375 109.4453125 C184.43679865 110.11236487 185.41738568 110.85501015 187 113 C187.55218463 118.61387712 187.12509183 122.13874605 184 127 C180.42878282 129.38081145 178.73325367 129.26906871 174.5 129.25 C173.3553125 129.25515625 172.210625 129.2603125 171.03125 129.265625 C168 129 168 129 165 127 C164.82703173 124.16598141 165.07042188 121.45812578 165.28515625 118.62890625 C165.2926133 115.84998458 165.2926133 115.84998458 162.99609375 114.33984375 C162.33738281 113.89769531 161.67867187 113.45554687 161 113 C161 112.01 161 111.02 161 110 C160.34 110 159.68 110 159 110 C157.02 105.545 157.02 105.545 155 101 C153.700625 101.28875 152.40125 101.5775 151.0625 101.875 C143.375 103.58333333 135.6875 105.29166667 128 107 C127.95875 107.721875 127.9175 108.44375 127.875 109.1875 C126.67670118 113.03917478 124.46156072 115.11046798 121 117 C116.70631061 117.67795096 114.8124795 117.51221534 111.125 115.1875 C107.72711744 111.68967972 107.84095511 108.62121116 107.8125 103.9375 C107.79832031 102.87402344 107.78414062 101.81054688 107.76953125 100.71484375 C108 98 108 98 110 96 C114.13997567 95.8028583 117.07703567 95.69234522 121 97 C127.90874351 97.69087435 129.88171804 96.16368087 137 93 C117.2 93.66 97.4 94.32 77 95 C77 97.97 77 100.94 77 104 C76.05987349 108.49171553 73.4189323 111.07040258 69.94140625 113.89453125 C68 115 68 115 64.25 115.0625 C59.46431501 113.49794914 59.46431501 113.49794914 58 111 C57.95734973 109.00045481 57.95400405 106.99947102 58 105 C56.67935547 104.81824219 56.67935547 104.81824219 55.33203125 104.6328125 C54.17058594 104.46523438 53.00914062 104.29765625 51.8125 104.125 C50.66394531 103.96257812 49.51539063 103.80015625 48.33203125 103.6328125 C45.29473812 103.05597605 42.84460185 102.16029812 40 101 C37.5679241 100.55747943 37.5679241 100.55747943 35.1875 100.375 C34.39730469 100.30023438 33.60710937 100.22546875 32.79296875 100.1484375 C31.90544922 100.07496094 31.90544922 100.07496094 31 100 C32.42673359 102.88634122 33.90494836 105.54445319 36 108 C39.55652459 108.90137027 39.55652459 108.90137027 43 109 C45.09807076 110.56365651 45.88333597 111.59905969 46.6171875 114.12109375 C46.70226562 114.88550781 46.78734375 115.64992188 46.875 116.4375 C46.97554688 117.19933594 47.07609375 117.96117187 47.1796875 118.74609375 C46.94204234 121.72699068 46.10543046 122.89912675 44 125 C38.18814266 127.33693564 32.79289053 127.43301402 27 125 C24.8046875 123.75 24.8046875 123.75 23 122 C22.75 119.51171875 22.75 119.51171875 23 116.6875 C23.19130762 111.50169707 22.46208099 109.03909449 19 105 C16.68762377 102.18179147 14.70015181 99.52684952 13 96.3125 C10.75215694 92.57699309 10.75215694 92.57699309 7 91 C5.15823686 90.78045208 3.31495429 90.56644063 1.46606445 90.41845703 C-6.67345746 89.76273373 -12.38348446 88.03063166 -19 83 C-19.99 82.319375 -20.98 81.63875 -22 80.9375 C-24.26402543 78.74422536 -24.94615413 76.93571348 -26 74 C-26.515625 73.484375 -27.03125 72.96875 -27.5625 72.4375 C-31.63948051 68.36051949 -30.23726486 60.36572071 -30.25 55.0625 C-30.21204288 31.961465 -30.21204288 31.961465 -23.75 24.875 C-18.06720275 20.06189709 -12.23527827 18.63467353 -5 18 C-5.103125 16.88625 -5.20625 15.7725 -5.3125 14.625 C-5.3625998 9.03386248 -2.71971933 4.74008226 0 0 Z M1 3 C-2.73512552 10.70426512 -2.73512552 10.70426512 -2 19 C-2.99 18.67 -3.98 18.34 -5 18 C-5 18.99 -5 19.98 -5 21 C-6.7325 21.0928125 -6.7325 21.0928125 -8.5 21.1875 C-14.74241409 21.98440393 -19.19945289 24.95613571 -23.3125 29.625 C-28.89123407 40.78246814 -30.01631504 54.44599912 -26.875 66.5625 C-24.25238553 73.80239346 -19.31651656 79.66513569 -13 84 C-4.10816384 87.82909701 4.43763813 88.1392577 14 88 C13.92265625 88.70125 13.8453125 89.4025 13.765625 90.125 C14.07678336 93.94187583 15.56712496 95.87705469 17.75 99 C18.79414063 100.5159375 18.79414063 100.5159375 19.859375 102.0625 C21.2631144 103.98879932 22.71562742 105.88067529 24.21875 107.73046875 C25.94283031 109.9271588 26.59636363 111.27545449 27 114 C26.01 114.495 26.01 114.495 25 115 C25.34801553 117.57531492 25.70964005 119.54832896 27.125 121.75 C30.07947321 123.71964881 32.47428237 123.88247608 36 124 C38.8692228 123.16078068 41.84808634 122.15191366 44 120 C44.25005386 117.04182893 44.25005386 117.04182893 44 114 C42.005484 111.56489709 42.005484 111.56489709 38.0625 111.75 C35.91015625 111.55078125 35.91015625 111.55078125 34 111 C32 107.9375 32 107.9375 31 105 C30.34 105 29.68 105 29 105 C28.896875 104.05125 28.79375 103.1025 28.6875 102.125 C28.31460705 98.70892499 28.31460705 98.70892499 25 97 C23.8125 94.375 23.8125 94.375 23 92 C23.66 92 24.32 92 25 92 C25 92.99 25 93.98 25 95 C30.74174823 98.00758241 36.28357198 98.73607774 42.6953125 99.47265625 C45.78092216 99.96504077 48.12462829 100.84154366 51 102 C52.92903132 102.2759478 54.8689032 102.48449903 56.8125 102.625 C57.78832031 102.69976562 58.76414062 102.77453125 59.76953125 102.8515625 C60.87361328 102.92503906 60.87361328 102.92503906 62 103 C61.67 105.31 61.34 107.62 61 110 C63.65956849 112.19345981 63.65956849 112.19345981 65.875 111.9375 C68.92362855 110.59251682 70.75845909 108.42328747 73 106 C73.33 105.67 73.66 105.34 74 105 C74.60480394 99.10878206 74.60480394 99.10878206 71.9375 94 C68.35342568 91.55977918 66.25018379 91.58331531 62 92 C62 92.99 62 93.98 62 95 C59.76980273 94.71632132 57.54086546 94.42272612 55.3125 94.125 C54.07113281 93.96257812 52.82976562 93.80015625 51.55078125 93.6328125 C48.40068066 93.07140843 45.85205309 92.42867224 43 91 C42.67 90.34 42.34 89.68 42 89 C42.928125 89.495 43.85625 89.99 44.8125 90.5 C49.73968438 92.659445 54.72281389 92.25765646 60 92 C60.33 91.34 60.66 90.68 61 90 C67.625 89.875 67.625 89.875 71 91 C73.68761551 91.08611704 76.34844589 91.11561361 79.03564453 91.09765625 C80.2628421 91.09546585 80.2628421 91.09546585 81.51483154 91.0932312 C83.2909213 91.08942578 85.06700727 91.08330982 86.84308243 91.07516479 C89.6496176 91.06242371 92.45610564 91.05589169 95.26266479 91.05102539 C101.21679767 91.03958815 107.17089173 91.02033507 113.125 91 C120.02954704 90.97644918 126.93407212 90.95604919 133.83864975 90.94406128 C136.61130449 90.93755051 139.38389229 90.92504399 142.15652466 90.91235352 C143.84539734 90.90872315 145.53427066 90.90537115 147.22314453 90.90234375 C148.38887497 90.89459427 148.38887497 90.89459427 149.57815552 90.88668823 C151.38583165 90.88650718 153.19339972 90.93764275 155 91 C155.33 91.33 155.66 91.66 156 92 C155.02160156 92.09796875 154.04320312 92.1959375 153.03515625 92.296875 C145.38433323 93.16953525 138.85790914 94.35543165 132 98 C125.35202466 101.26427532 125.35202466 101.26427532 121 100 C119.41974995 99.78807905 117.83601539 99.60076629 116.25 99.4375 C115.05117188 99.31181641 115.05117188 99.31181641 113.828125 99.18359375 C113.22484375 99.12300781 112.6215625 99.06242187 112 99 C110.37405612 103.19322369 109.49248612 105.64871776 111.3125 109.875 C112.69344324 112.78884526 112.69344324 112.78884526 114 114 C116.83073436 114.50169415 116.83073436 114.50169415 120 114 C123.44391324 111.24486941 125.14785121 109.28823264 126 105 C126.8353125 104.83564453 126.8353125 104.83564453 127.6875 104.66796875 C132.31356805 103.70680934 136.57366783 102.46859568 140.95703125 100.71875 C143.18372234 99.93536346 145.37321757 99.45903123 147.6875 99 C151.28598057 98.2653621 153.96846854 97.15140942 157 95 C157.14308594 96.29357422 157.14308594 96.29357422 157.2890625 97.61328125 C158.07733987 101.36842673 159.40417088 103.90694268 161.375 107.1875 C162.28378906 108.72470703 162.28378906 108.72470703 163.2109375 110.29296875 C164.82027373 112.96534693 164.82027373 112.96534693 166.75390625 114.609375 C168 116 168 116 168.00390625 117.97265625 C167.78541016 119.00712891 167.78541016 119.00712891 167.5625 120.0625 C167.376875 121.361875 167.19125 122.66125 167 124 C169.68459392 126.68459392 171.19740198 126.32966548 174.9375 126.375 C175.99839844 126.40335937 177.05929687 126.43171875 178.15234375 126.4609375 C181.07321923 126.26277955 181.07321923 126.26277955 182.859375 124.234375 C184.70873535 120.61165541 184.32551043 118.03632936 184 114 C181.41735538 111.41735538 179.4099475 111.7016386 175.90625 111.33984375 C174 111 174 111 172.0625 109.625 C171 108 171 108 170 105 C169.34 105 168.68 105 168 105 C167.01 98.07 167.01 98.07 166 91 C169.465 90.505 169.465 90.505 173 90 C174.69036558 89.04060332 176.35394174 88.03357147 178 87 C179.51155628 86.37298406 181.03388028 85.77168588 182.5625 85.1875 C193.95427614 80.77943299 193.95427614 80.77943299 204 74 C204 73.34 204 72.68 204 72 C204.99 71.67 205.98 71.34 207 71 C212.72085002 63.26002645 213.05281785 55.31025481 212 46 C210.56130238 40.58960818 208.79514713 35.33113892 205.3515625 30.859375 C203.24047655 27.95510647 203.68921404 25.48080272 204 22 C205 19.75 205 19.75 206 18 C206 17.01 206 16.02 206 15 C203.12586875 14.66602213 203.12586875 14.66602213 200 15 C197.95959224 17.04040776 197 18.08325244 197 21 C196.01 20.2884375 196.01 20.2884375 195 19.5625 C187.6748709 15.7473286 178.3584712 16.84903129 170.3125 16.875 C169.10271484 16.87113281 167.89292969 16.86726563 166.64648438 16.86328125 C165.48052734 16.86457031 164.31457031 16.86585938 163.11328125 16.8671875 C161.53220581 16.86887939 161.53220581 16.86887939 159.91918945 16.87060547 C157.06095386 16.92103668 157.06095386 16.92103668 154.55078125 17.5 C151.35424802 18.12657925 148.33145294 18.12978272 145.07421875 18.1328125 C144.07634087 18.13424759 144.07634087 18.13424759 143.05830383 18.13571167 C141.64881292 18.13639035 140.23931884 18.13455784 138.82983398 18.13037109 C136.73218213 18.12511202 134.63475377 18.13027742 132.53710938 18.13671875 C124.44402642 18.14083503 116.43595435 17.80976426 108.35864258 17.25390625 C99.58632912 16.69891406 90.7861278 16.6219876 82 16.4375 C80.04947264 16.39417298 78.09895172 16.35055495 76.1484375 16.30664062 C71.43235897 16.20108235 66.71621162 16.09942664 62 16 C61.92543579 14.95416748 61.92543579 14.95416748 61.84936523 13.88720703 C61.73637085 12.52378174 61.73637085 12.52378174 61.62109375 11.1328125 C61.55075928 10.22934082 61.4804248 9.32586914 61.40795898 8.39501953 C61.19233637 5.82674295 61.19233637 5.82674295 59.0625 3.875 C54.68640217 2.62468633 50.51844483 2.76311066 46 3 C43.36157824 7.70327357 42.80868862 10.33917966 42 16 C32.1 16 22.2 16 12 16 C11.505 13.525 11.505 13.525 11 11 C9.33074369 7.13036036 8.54809863 5.36539909 5 3 C3.68 3 2.36 3 1 3 Z " fill="#141414" transform="translate(421,155)"/>
<path d="M0 0 C0.88429688 0.03738281 1.76859375 0.07476562 2.6796875 0.11328125 C3.56914063 0.13777344 4.45859375 0.16226563 5.375 0.1875 C7.5546875 0.42578125 7.5546875 0.42578125 8.5546875 1.42578125 C8.19936336 5.05008744 7.6846725 8.107318 6.3046875 11.48828125 C5.28387063 15.48648067 6.58392935 16.87224419 8.5546875 20.42578125 C9.08449219 21.28816406 9.61429688 22.15054688 10.16015625 23.0390625 C15.33530921 31.86876793 15.18813342 39.52525606 14.5546875 49.42578125 C13.5646875 49.42578125 12.5746875 49.42578125 11.5546875 49.42578125 C11.54050781 48.49378906 11.52632812 47.56179687 11.51171875 46.6015625 C11.14954774 36.92082916 9.99030535 27.25545043 3.9140625 19.26953125 C1.74571102 16.32854878 2.19327776 13.97964371 2.5546875 10.42578125 C3.38792892 7.96436693 4.40702009 5.76893555 5.5546875 3.42578125 C0.59954248 4.30050718 0.59954248 4.30050718 -2.8828125 7.55078125 C-3.16125 8.47890625 -3.16125 8.47890625 -3.4453125 9.42578125 C-7.3203125 8.55078125 -7.3203125 8.55078125 -8.4453125 7.42578125 C-15.4096905 6.29574395 -22.4032888 6.10930842 -29.4453125 5.86328125 C-30.60160156 5.82009766 -31.75789062 5.77691406 -32.94921875 5.73242188 C-35.78115104 5.62710208 -38.61315997 5.52497038 -41.4453125 5.42578125 C-41.1153125 4.43578125 -40.7853125 3.44578125 -40.4453125 2.42578125 C-16.86292766 2.0130022 -16.86292766 2.0130022 -5.4453125 4.42578125 C-4.86136719 3.44544922 -4.86136719 3.44544922 -4.265625 2.4453125 C-2.4453125 0.42578125 -2.4453125 0.42578125 0 0 Z " fill="#1C1C1C" transform="translate(621.4453125,166.57421875)"/>
<path d="M0 0 C0.20753906 0.60585937 0.41507813 1.21171875 0.62890625 1.8359375 C2.83995482 7.84924951 5.63428295 12.67548123 9.51171875 17.7734375 C11.64336299 20.96251156 12.20100285 22.91960966 11.5 26.6875 C11.335 27.450625 11.17 28.21375 11 29 C12.79061272 30.79061272 15.39677742 30.17289466 17.8125 30.1875 C19.39998047 30.20876953 19.39998047 30.20876953 21.01953125 30.23046875 C23.9204626 30.00615034 25.54818353 29.50196021 28 28 C27.6875 29.875 27.6875 29.875 27 32 C23.42878282 34.38081145 21.73325367 34.26906871 17.5 34.25 C16.3553125 34.25515625 15.210625 34.2603125 14.03125 34.265625 C11 34 11 34 8 32 C7.82703173 29.16598141 8.07042188 26.45812578 8.28515625 23.62890625 C8.2926133 20.84998458 8.2926133 20.84998458 5.99609375 19.33984375 C5.33738281 18.89769531 4.67867187 18.45554687 4 18 C4 17.01 4 16.02 4 15 C3.34 15 2.68 15 2 15 C0.68 12.03 -0.64 9.06 -2 6 C-3.32 6 -4.64 6 -6 6 C-5.6875 4.125 -5.6875 4.125 -5 2 C-2 0 -2 0 0 0 Z " fill="#0E0E0E" transform="translate(578,250)"/>
<path d="M0 0 C0.98484375 0.01804688 1.9696875 0.03609375 2.984375 0.0546875 C4.10585938 0.08949219 4.10585938 0.08949219 5.25 0.125 C5.25 1.115 5.25 2.105 5.25 3.125 C4.02023437 3.32416016 4.02023437 3.32416016 2.765625 3.52734375 C1.14914062 3.79224609 1.14914062 3.79224609 -0.5 4.0625 C-2.10101563 4.32353516 -2.10101563 4.32353516 -3.734375 4.58984375 C-6.11347593 5.01204171 -8.41915211 5.49702884 -10.75 6.125 C-10.80416188 7.72879341 -10.84286638 9.33311406 -10.875 10.9375 C-10.90980469 12.27748047 -10.90980469 12.27748047 -10.9453125 13.64453125 C-10.93285827 16.37902714 -10.93285827 16.37902714 -8.75 19.125 C-5.98434618 20.04688461 -4.36716298 20.24285222 -1.51953125 20.22265625 C-0.71708984 20.21943359 0.08535156 20.21621094 0.91210938 20.21289062 C1.74548828 20.20451172 2.57886719 20.19613281 3.4375 20.1875 C4.7049707 20.18073242 4.7049707 20.18073242 5.99804688 20.17382812 C8.08206155 20.16205403 10.16603977 20.1441189 12.25 20.125 C12.25 21.115 12.25 22.105 12.25 23.125 C4.23726913 25.43564797 -5.24614645 24.87692677 -12.75 21.125 C-13.85826086 17.80021742 -13.98761378 15.12494522 -14.0625 11.625 C-14.09988281 10.4803125 -14.13726562 9.335625 -14.17578125 8.15625 C-13.75 5.125 -13.75 5.125 -11.98046875 3.34375 C-11.24441406 2.9415625 -10.50835937 2.539375 -9.75 2.125 C-9.12609375 1.73570312 -8.5021875 1.34640625 -7.859375 0.9453125 C-5.14050066 -0.11202752 -2.90733767 -0.06922233 0 0 Z " fill="#111111" transform="translate(428.75,191.875)"/>
<path d="M0 0 C-2.45261715 2.9689576 -4.23933971 3.45235304 -8 4 C-12.51692351 4.19514736 -17.03413235 4.18580907 -21.5546875 4.18530273 C-23.72936877 4.18747935 -25.90353395 4.20563346 -28.078125 4.22460938 C-35.29997724 4.25289258 -41.99853868 3.98584049 -49 2 C-48.67 1.34 -48.34 0.68 -48 0 C-46.77893555 0.00523682 -45.55787109 0.01047363 -44.29980469 0.01586914 C-39.76742283 0.03397584 -35.23504416 0.04545279 -30.70263672 0.05493164 C-28.74136823 0.05995887 -26.78010348 0.06678157 -24.81884766 0.07543945 C-21.99901403 0.08757545 -19.17922998 0.09324444 -16.359375 0.09765625 C-15.48319519 0.10281754 -14.60701538 0.10797882 -13.70428467 0.11329651 C-12.88373596 0.11337204 -12.06318726 0.11344757 -11.21777344 0.11352539 C-10.49829529 0.115746 -9.77881714 0.11796661 -9.03753662 0.12025452 C-6.96987599 0.06886515 -6.96987599 0.06886515 -4.92388916 -0.56959534 C-3 -1 -3 -1 0 0 Z " fill="#0F0F0F" transform="translate(581,170)"/>
<path d="M0 0 C3.95827235 -0.05785647 7.9164367 -0.09354717 11.875 -0.125 C13.00292969 -0.14175781 14.13085938 -0.15851563 15.29296875 -0.17578125 C16.36933594 -0.18222656 17.44570313 -0.18867188 18.5546875 -0.1953125 C19.54968262 -0.20578613 20.54467773 -0.21625977 21.56982422 -0.22705078 C24 0 24 0 26 2 C24.0430319 3.9569681 20.49674732 3.67432829 17.8125 4 C13.19087384 4.57713966 8.58955692 5.20057484 4 6 C4.66 5.01 5.32 4.02 6 3 C3.69 3 1.38 3 -1 3 C-0.67 2.01 -0.34 1.02 0 0 Z " fill="#0C0C0C" transform="translate(552,245)"/>
<path d="M0 0 C-1.84086141 3.68172282 -6.26463964 4.71026646 -10 6 C-15.56970322 6.59675392 -20.62784161 5.36435769 -26 4 C-25.34 3.01 -24.68 2.02 -24 1 C-21.20688036 0.61033155 -18.6162782 0.39545202 -15.8125 0.3125 C-15.06935547 0.27833984 -14.32621094 0.24417969 -13.56054688 0.20898438 C-9.03844234 0.01478357 -4.52572676 -0.0299717 0 0 Z " fill="#D6D6D6" transform="translate(559,247)"/>
<path d="M0 0 C3.02089478 -0.02716089 6.04154129 -0.04691657 9.0625 -0.0625 C9.91005859 -0.07087891 10.75761719 -0.07925781 11.63085938 -0.08789062 C16.5361722 -0.10683006 21.16444755 0.16673655 26 1 C26 1.99 26 2.98 26 4 C13.13 3.505 13.13 3.505 0 3 C0 2.01 0 1.02 0 0 Z " fill="#1A1A1A" transform="translate(419,228)"/>
<path d="M0 0 C0 0.99 0 1.98 0 3 C-0.97839844 3.25523437 -0.97839844 3.25523437 -1.9765625 3.515625 C-7.35774751 5.007753 -11.43885466 6.68280339 -16 10 C-17.98507948 11.02930047 -19.98114251 12.03863929 -22 13 C-19.66172831 7.63850836 -15.26821551 3.35094107 -9.8359375 1.10546875 C-6.48954054 0.23440287 -3.45927089 0 0 0 Z " fill="#101010" transform="translate(416,173)"/>
<path d="M0 0 C5.61 0 11.22 0 17 0 C16.67 0.99 16.34 1.98 16 3 C10.39 3 4.78 3 -1 3 C-0.67 2.01 -0.34 1.02 0 0 Z " fill="#1D1D1D" transform="translate(535,245)"/>
<path d="M0 0 C0.66 0 1.32 0 2 0 C2 1.65 2 3.3 2 5 C2.99 5 3.98 5 5 5 C5 3.68 5 2.36 5 1 C5.99 1 6.98 1 8 1 C7.25 6.75 7.25 6.75 5 9 C2.375 8.625 2.375 8.625 0 8 C0 5.36 0 2.72 0 0 Z " fill="#121212" transform="translate(526,216)"/>
<path d="M0 0 C0.66 0 1.32 0 2 0 C2 0.99 2 1.98 2 3 C2.99 3.33 3.98 3.66 5 4 C5.33 2.68 5.66 1.36 6 0 C6.66 0 7.32 0 8 0 C7.125 5.875 7.125 5.875 6 7 C3 7.125 3 7.125 0 7 C-1 6 -1 6 -1.125 3.5 C-1 1 -1 1 0 0 Z " fill="#090909" transform="translate(594,223)"/>
<path d="M0 0 C-2.45091043 2.68433048 -4.28241384 3.91789741 -8.04296875 4.09765625 C-8.75066406 4.08605469 -9.45835937 4.07445312 -10.1875 4.0625 C-12.0746875 4.0315625 -12.0746875 4.0315625 -14 4 C-13.67 3.01 -13.34 2.02 -13 1 C-11.39796533 0.63631108 -9.79325797 0.28438048 -8.1875 -0.0625 C-7.29417969 -0.25972656 -6.40085937 -0.45695313 -5.48046875 -0.66015625 C-3 -1 -3 -1 0 0 Z " fill="#222222" transform="translate(573,254)"/>
<path d="M0 0 C3.63 0 7.26 0 11 0 C11 0.99 11 1.98 11 3 C6.71 3.66 2.42 4.32 -2 5 C-1.34 3.35 -0.68 1.7 0 0 Z " fill="#1D1D1D" transform="translate(423,192)"/>
<path d="M0 0 C1.06489861 3.19469583 0.96436169 3.86645463 0.0625 6.9375 C-0.80459932 9.91779501 -1 11.7655389 -1 15 C-1.99 14.67 -2.98 14.34 -4 14 C-4.29787234 5.21276596 -4.29787234 5.21276596 -2 1 C-1.34 0.67 -0.68 0.34 0 0 Z " fill="#0F0F0F" transform="translate(420,159)"/>
<path d="M0 0 C0.66 0 1.32 0 2 0 C1.25 4.75 1.25 4.75 -1 7 C-3.5625 7.1875 -3.5625 7.1875 -6 7 C-7 6 -7 6 -7.0625 3.4375 C-7.041875 2.633125 -7.02125 1.82875 -7 1 C-6.34 1 -5.68 1 -5 1 C-5 1.99 -5 2.98 -5 4 C-1.72226496 3.24849977 -1.72226496 3.24849977 0 0 Z " fill="#0E0E0E" transform="translate(516,179)"/>
<path d="M0 0 C0.66 0 1.32 0 2 0 C2.33 0.66 2.66 1.32 3 2 C4.32 1.67 5.64 1.34 7 1 C6.42655063 3.86724686 6.1385485 4.8614515 4 7 C1.875 6.625 1.875 6.625 0 6 C0 4.02 0 2.04 0 0 Z " fill="#1B1B1B" transform="translate(616,189)"/>
<path d="M0 0 C0.66 0 1.32 0 2 0 C2 0.99 2 1.98 2 3 C2.66 3 3.32 3 4 3 C4 2.01 4 1.02 4 0 C4.66 0 5.32 0 6 0 C5.67 2.31 5.34 4.62 5 7 C3.35 6.67 1.7 6.34 0 6 C0 4.02 0 2.04 0 0 Z " fill="#111111" transform="translate(443,237)"/>
<path d="M0 0 C0.33 0 0.66 0 1 0 C1.4375 2.125 1.4375 2.125 1 5 C-1.12689146 7.276147 -3.5023433 9.1458722 -6 11 C-6 7.41584854 -5.21108216 6.58796261 -3.0625 3.8125 C-2.51722656 3.09707031 -1.97195313 2.38164062 -1.41015625 1.64453125 C-0.94480469 1.10183594 -0.47945313 0.55914062 0 0 Z " fill="#171717" transform="translate(496,258)"/>
<path d="M0 0 C0.53109375 0.13277344 1.0621875 0.26554688 1.609375 0.40234375 C2.79273438 0.69818359 2.79273438 0.69818359 4 1 C6.08333333 1.52083333 8.16666667 2.04166667 10.25 2.5625 C11.86648438 2.96662109 11.86648438 2.96662109 13.515625 3.37890625 C14.33546875 3.58386719 15.1553125 3.78882813 16 4 C16 4.33 16 4.66 16 5 C9.86946489 5.32712342 5.37330889 5.39366878 0 2 C0 1.34 0 0.68 0 0 Z " fill="#030303" transform="translate(463,244)"/>
<path d="M0 0 C0.66 0.33 1.32 0.66 2 1 C-0.45699392 3.63249349 -2.56568654 5.78137264 -6 7 C-6.99 6.67 -7.98 6.34 -9 6 C-3.30379747 1.25316456 -3.30379747 1.25316456 0 0 Z " fill="#0C0C0C" transform="translate(607,238)"/>
<path d="M0 0 C0.66 0.33 1.32 0.66 2 1 C-0.19471406 5.51135667 -2.41173718 7.06273348 -7 9 C-5.44499019 5.18315774 -2.96404505 2.80804268 0 0 Z " fill="#282828" transform="translate(401,177)"/>
<path d="M0 0 C0 0.66 0 1.32 0 2 C-4.455 3.485 -4.455 3.485 -9 5 C-7 1 -7 1 -4.5 -0.3125 C-2 -1 -2 -1 0 0 Z " fill="#111111" transform="translate(560,257)"/>
<path d="M0 0 C0.66 0.33 1.32 0.66 2 1 C1.67 1.99 1.34 2.98 1 4 C-2.0625 5.1875 -2.0625 5.1875 -5 6 C-4.1875 3.5625 -4.1875 3.5625 -3 1 C-2.01 0.67 -1.02 0.34 0 0 Z " fill="#222222" transform="translate(613,235)"/>
<path d="M0 0 C1.65 0 3.3 0 5 0 C4.67 1.32 4.34 2.64 4 4 C2.68 4 1.36 4 0 4 C0 2.68 0 1.36 0 0 Z " fill="#0A0A0A" transform="translate(410,189)"/>
<path d="M0 0 C1.32 0.33 2.64 0.66 4 1 C2.68 2.32 1.36 3.64 0 5 C-0.99 4.67 -1.98 4.34 -3 4 C-2.01 2.68 -1.02 1.36 0 0 Z " fill="#181818" transform="translate(404,175)"/>
<path d="M0 0 C0 1.32 0 2.64 0 4 C-1.65 3.67 -3.3 3.34 -5 3 C-5 2.34 -5 1.68 -5 1 C-3 0 -3 0 0 0 Z " fill="#121212" transform="translate(459,188)"/>
</svg>
