<?xml version="1.0" encoding="UTF-8"?>
<svg version="1.1" xmlns="http://www.w3.org/2000/svg" width="800" height="300">
<path d="M0 0 C264 0 528 0 800 0 C800 99 800 198 800 300 C536 300 272 300 0 300 C0 201 0 102 0 0 Z " fill="#FEFEFE" transform="translate(0,0)"/>
<path d="M0 0 C4.60318234 0 6.47731945 0.51140732 9.875 3.6875 C12 7 12 7 13 13 C21.58 12.67 30.16 12.34 39 12 C39.99 9.03 40.98 6.06 42 3 C42.66 2.01 43.32 1.02 44 0 C49.22662188 -0.94796573 53.80790294 -0.58559154 58.5625 1.75 C62.13043478 5.04347826 62.13043478 5.04347826 63 8 C63.02493572 9.99984455 63.02724543 12.00018559 63 14 C63.7935791 13.99476318 64.5871582 13.98952637 65.40478516 13.98413086 C91.99948502 13.83256678 91.99948502 13.83256678 103.625 14.5 C113.79072997 15.06840001 123.94645459 15.11395737 134.125 15.125 C134.93269836 15.12749756 135.74039673 15.12999512 136.5725708 15.13256836 C138.88436178 15.13846052 141.19602003 15.1369704 143.5078125 15.1328125 C144.55322205 15.13578842 144.55322205 15.13578842 145.61975098 15.13882446 C148.9296919 15.12298522 151.81275681 14.83749988 155 14 C156.97751674 13.90786886 158.95783942 13.86932867 160.9375 13.8671875 C162.07960938 13.86589844 163.22171875 13.86460937 164.3984375 13.86328125 C165.58695313 13.86714844 166.77546875 13.87101563 168 13.875 C169.78277344 13.86919922 169.78277344 13.86919922 171.6015625 13.86328125 C173.31472656 13.86521484 173.31472656 13.86521484 175.0625 13.8671875 C176.10535156 13.86831543 177.14820313 13.86944336 178.22265625 13.87060547 C180.66685513 13.98447901 182.66136445 14.33858713 185 15 C186.68388417 15.13832856 188.37322032 15.2194248 190.0625 15.25 C190.91972656 15.27578125 191.77695312 15.3015625 192.66015625 15.328125 C195.51333245 14.92801348 196.03334774 13.99259754 198 12 C200.2265625 11.671875 200.2265625 11.671875 202.625 11.75 C203.42164063 11.76546875 204.21828125 11.7809375 205.0390625 11.796875 C207 12 207 12 208 13 C207.64467586 16.62430619 207.129985 19.68153675 205.75 23.0625 C204.72918313 27.06069942 206.02924185 28.44646294 208 32 C208.52980469 32.86238281 209.05960938 33.72476563 209.60546875 34.61328125 C215.1233564 44.0277513 215.62715625 53.53982163 213.33203125 64.0625 C210.10937558 73.29421231 204.10131814 77.70997793 195.5625 81.9375 C193.44885641 82.95222826 191.32929193 83.95319808 189.20654297 84.94873047 C186.94339328 86.0269693 184.70658388 87.1476999 182.47265625 88.28515625 C181.74425537 88.65584229 181.01585449 89.02652832 180.26538086 89.40844727 C178.86049521 90.12491171 177.45633552 90.84280183 176.05297852 91.56225586 C171.22232655 94 171.22232655 94 169 94 C170.19333846 101.58993615 170.19333846 101.58993615 174 108 C176.01325322 108.2876076 178.03039646 108.5693432 180.05859375 108.71875 C182 109 182 109 184.5 110.5625 C186.62205027 114.01083169 186.62781268 117.11354057 186 121 C184.43564712 125.0226217 183.61276337 126.59149109 180 129 C177.22265625 129.3359375 177.22265625 129.3359375 174.0625 129.375 C173.02222656 129.40335938 171.98195313 129.43171875 170.91015625 129.4609375 C168 129 168 129 165.61328125 127.2421875 C163.74710134 124.64851373 163.69167955 123.83879705 164.125 120.75 C164.41880065 114.98771629 161.60232566 112.18896394 158 108 C155 103.5 155 103.5 155 100 C154.38253906 100.19335938 153.76507812 100.38671875 153.12890625 100.5859375 C148.12854737 102.12333856 143.15753607 103.45119825 138.0390625 104.52734375 C135.75334032 105.02357346 135.75334032 105.02357346 132.625 106.125 C130 107 130 107 127 107 C126.95875 107.721875 126.9175 108.44375 126.875 109.1875 C125.67456278 113.04604822 123.45742554 115.09725574 120 117 C116.4375 117.6875 116.4375 117.6875 113 117 C108.87101904 113.40958177 107.30457003 110.40860769 106.91796875 104.96484375 C107.05142432 101.76826507 107.66944673 98.33055327 110 96 C111.47648876 95.90176004 112.95775417 95.87026481 114.4375 95.875 C115.64212891 95.87113281 115.64212891 95.87113281 116.87109375 95.8671875 C119 96 119 96 121 97 C127.34308621 97.7735471 129.39202494 95.93687781 136 93 C116.2 93.66 96.4 94.32 76 95 C76 97.97 76 100.94 76 104 C75.05965682 108.49275076 72.41642494 111.06635831 68.9453125 113.8984375 C67 115 67 115 63.1875 115 C60 114 60 114 58 112 C57.875 108.875 57.875 108.875 58 106 C57.13117188 105.80664062 56.26234375 105.61328125 55.3671875 105.4140625 C54.21476562 105.15367187 53.06234375 104.89328125 51.875 104.625 C50.73804688 104.36976563 49.60109375 104.11453125 48.4296875 103.8515625 C45 103 45 103 41.84375 101.90625 C38.02985478 100.69083284 34.97858679 100.86280735 31 101 C31.495 101.78375 31.99 102.5675 32.5 103.375 C34 106 34 106 34 108 C35.258125 108.103125 36.51625 108.20625 37.8125 108.3125 C40.33231669 108.51904235 41.66199559 108.74939719 43.70703125 110.265625 C45.28130077 112.37733397 45.58481583 113.83023917 45.875 116.4375 C45.97554688 117.19933594 46.07609375 117.96117187 46.1796875 118.74609375 C45.94204234 121.72699068 45.10543046 122.89912675 43 125 C38.38737996 126.85472484 33.99912259 127.1611488 29.125 126.375 C23.86666667 124.06133333 23.86666667 124.06133333 22 121 C22.00565453 119.26971342 22.07656445 117.53923591 22.1875 115.8125 C22.43047839 109.92615249 20.64084741 107.38631239 16.82421875 103.07421875 C14.1640849 100.04952694 11 96.1544285 11 92 C10.41621582 91.94054199 9.83243164 91.88108398 9.23095703 91.81982422 C-14.66151063 89.25840074 -14.66151063 89.25840074 -22.875 80 C-23.57625 79.01 -24.2775 78.02 -25 77 C-25.721875 76.071875 -26.44375 75.14375 -27.1875 74.1875 C-32.90820468 64.12695039 -32.6117659 49.07607733 -30.27734375 37.98828125 C-28.59663759 32.02075372 -26.94893226 27.80687097 -22 24 C-21.319375 23.195625 -21.319375 23.195625 -20.625 22.375 C-16.29456681 18.7107873 -11.54592144 17.59420087 -6 18 C-6.12375 16.5459375 -6.12375 16.5459375 -6.25 15.0625 C-6.26974681 10.22453098 -4.32570983 6.16760411 -2 2 C-1.34 1.34 -0.68 0.68 0 0 Z " fill="#FCFCFC" transform="translate(414,155)"/>
<path d="M0 0 C4.60318234 0 6.47731945 0.51140732 9.875 3.6875 C12 7 12 7 13 13 C21.58 12.67 30.16 12.34 39 12 C39.99 9.03 40.98 6.06 42 3 C42.66 2.01 43.32 1.02 44 0 C49.22662188 -0.94796573 53.80790294 -0.58559154 58.5625 1.75 C62.13043478 5.04347826 62.13043478 5.04347826 63 8 C63.02493572 9.99984455 63.02724543 12.00018559 63 14 C63.7935791 13.99476318 64.5871582 13.98952637 65.40478516 13.98413086 C91.99948502 13.83256678 91.99948502 13.83256678 103.625 14.5 C113.79072997 15.06840001 123.94645459 15.11395737 134.125 15.125 C134.93269836 15.12749756 135.74039673 15.12999512 136.5725708 15.13256836 C138.88436178 15.13846052 141.19602003 15.1369704 143.5078125 15.1328125 C144.55322205 15.13578842 144.55322205 15.13578842 145.61975098 15.13882446 C148.9296919 15.12298522 151.81275681 14.83749988 155 14 C156.97751674 13.90786886 158.95783942 13.86932867 160.9375 13.8671875 C162.07960938 13.86589844 163.22171875 13.86460937 164.3984375 13.86328125 C165.58695313 13.86714844 166.77546875 13.87101563 168 13.875 C169.78277344 13.86919922 169.78277344 13.86919922 171.6015625 13.86328125 C173.31472656 13.86521484 173.31472656 13.86521484 175.0625 13.8671875 C176.10535156 13.86831543 177.14820313 13.86944336 178.22265625 13.87060547 C180.66685513 13.98447901 182.66136445 14.33858713 185 15 C186.68388417 15.13832856 188.37322032 15.2194248 190.0625 15.25 C190.91972656 15.27578125 191.77695312 15.3015625 192.66015625 15.328125 C195.51333245 14.92801348 196.03334774 13.99259754 198 12 C200.2265625 11.671875 200.2265625 11.671875 202.625 11.75 C203.42164063 11.76546875 204.21828125 11.7809375 205.0390625 11.796875 C207 12 207 12 208 13 C207.64467586 16.62430619 207.129985 19.68153675 205.75 23.0625 C204.72918313 27.06069942 206.02924185 28.44646294 208 32 C208.52980469 32.86238281 209.05960938 33.72476563 209.60546875 34.61328125 C215.1233564 44.0277513 215.62715625 53.53982163 213.33203125 64.0625 C210.10937558 73.29421231 204.10131814 77.70997793 195.5625 81.9375 C193.44885641 82.95222826 191.32929193 83.95319808 189.20654297 84.94873047 C186.94339328 86.0269693 184.70658388 87.1476999 182.47265625 88.28515625 C181.74425537 88.65584229 181.01585449 89.02652832 180.26538086 89.40844727 C178.86049521 90.12491171 177.45633552 90.84280183 176.05297852 91.56225586 C171.22232655 94 171.22232655 94 169 94 C170.19333846 101.58993615 170.19333846 101.58993615 174 108 C176.01325322 108.2876076 178.03039646 108.5693432 180.05859375 108.71875 C182 109 182 109 184.5 110.5625 C186.62205027 114.01083169 186.62781268 117.11354057 186 121 C184.43564712 125.0226217 183.61276337 126.59149109 180 129 C177.22265625 129.3359375 177.22265625 129.3359375 174.0625 129.375 C173.02222656 129.40335938 171.98195313 129.43171875 170.91015625 129.4609375 C168 129 168 129 165.61328125 127.2421875 C163.74710134 124.64851373 163.69167955 123.83879705 164.125 120.75 C164.41880065 114.98771629 161.60232566 112.18896394 158 108 C155 103.5 155 103.5 155 100 C154.38253906 100.19335938 153.76507812 100.38671875 153.12890625 100.5859375 C148.12854737 102.12333856 143.15753607 103.45119825 138.0390625 104.52734375 C135.75334032 105.02357346 135.75334032 105.02357346 132.625 106.125 C130 107 130 107 127 107 C126.95875 107.721875 126.9175 108.44375 126.875 109.1875 C125.67456278 113.04604822 123.45742554 115.09725574 120 117 C116.4375 117.6875 116.4375 117.6875 113 117 C108.87101904 113.40958177 107.30457003 110.40860769 106.91796875 104.96484375 C107.05142432 101.76826507 107.66944673 98.33055327 110 96 C111.47648876 95.90176004 112.95775417 95.87026481 114.4375 95.875 C115.64212891 95.87113281 115.64212891 95.87113281 116.87109375 95.8671875 C119 96 119 96 121 97 C127.34308621 97.7735471 129.39202494 95.93687781 136 93 C116.2 93.66 96.4 94.32 76 95 C76 97.97 76 100.94 76 104 C75.05965682 108.49275076 72.41642494 111.06635831 68.9453125 113.8984375 C67 115 67 115 63.1875 115 C60 114 60 114 58 112 C57.875 108.875 57.875 108.875 58 106 C57.13117188 105.80664062 56.26234375 105.61328125 55.3671875 105.4140625 C54.21476562 105.15367187 53.06234375 104.89328125 51.875 104.625 C50.73804688 104.36976563 49.60109375 104.11453125 48.4296875 103.8515625 C45 103 45 103 41.84375 101.90625 C38.02985478 100.69083284 34.97858679 100.86280735 31 101 C31.495 101.78375 31.99 102.5675 32.5 103.375 C34 106 34 106 34 108 C35.258125 108.103125 36.51625 108.20625 37.8125 108.3125 C40.33231669 108.51904235 41.66199559 108.74939719 43.70703125 110.265625 C45.28130077 112.37733397 45.58481583 113.83023917 45.875 116.4375 C45.97554688 117.19933594 46.07609375 117.96117187 46.1796875 118.74609375 C45.94204234 121.72699068 45.10543046 122.89912675 43 125 C38.38737996 126.85472484 33.99912259 127.1611488 29.125 126.375 C23.86666667 124.06133333 23.86666667 124.06133333 22 121 C22.00565453 119.26971342 22.07656445 117.53923591 22.1875 115.8125 C22.43047839 109.92615249 20.64084741 107.38631239 16.82421875 103.07421875 C14.1640849 100.04952694 11 96.1544285 11 92 C10.41621582 91.94054199 9.83243164 91.88108398 9.23095703 91.81982422 C-14.66151063 89.25840074 -14.66151063 89.25840074 -22.875 80 C-23.57625 79.01 -24.2775 78.02 -25 77 C-25.721875 76.071875 -26.44375 75.14375 -27.1875 74.1875 C-32.90820468 64.12695039 -32.6117659 49.07607733 -30.27734375 37.98828125 C-28.59663759 32.02075372 -26.94893226 27.80687097 -22 24 C-21.319375 23.195625 -21.319375 23.195625 -20.625 22.375 C-16.29456681 18.7107873 -11.54592144 17.59420087 -6 18 C-6 18.99 -6 19.98 -6 21 C-6.65226562 21.17015625 -7.30453125 21.3403125 -7.9765625 21.515625 C-16.70438755 23.79760769 -16.70438755 23.79760769 -23.1796875 29.75390625 C-29.00152892 40.61142801 -29.96000511 54.59655393 -26.9375 66.5 C-24.18939738 74.03801981 -19.23307182 79.80797974 -12.40112305 83.91821289 C-7.81504399 85.98439655 -2.96124958 86.32506809 2 86.8125 C3.06089844 86.93302734 4.12179687 87.05355469 5.21484375 87.17773438 C7.80848236 87.46981079 10.40265349 87.74339699 13 88 C13.26167969 88.8765625 13.52335937 89.753125 13.79296875 90.65625 C14.9862994 93.96204625 16.40597418 96.55777834 18.3125 99.5 C18.92738281 100.45003906 19.54226563 101.40007812 20.17578125 102.37890625 C21.68602291 104.54886804 23.22706861 106.48578562 25 108.4375 C27 111 27 111 26.875 113.125 C26.58625 113.74375 26.2975 114.3625 26 115 C25.18553891 117.00572641 25.18553891 117.00572641 25 119 C26.56265693 121.02641317 27.60500342 121.8897856 30.0859375 122.58203125 C36.30795082 123.27930216 36.30795082 123.27930216 42 121 C43.17612195 119.21328929 43.17612195 119.21328929 43 117 C42.15254366 114.14298293 42.15254366 114.14298293 40 112 C36.37400578 111.58274322 36.37400578 111.58274322 33 112 C32.5875 111.154375 32.175 110.30875 31.75 109.4375 C28.43607584 102.35185554 28.43607584 102.35185554 23 97 C22.3125 94.375 22.3125 94.375 22 92 C22.66 92 23.32 92 24 92 C24 92.99 24 93.98 24 95 C24.969375 95.144375 25.93875 95.28875 26.9375 95.4375 C30 96 30 96 31 97 C32.95250863 97.32840359 34.91263633 97.6118124 36.875 97.875 C42.2690467 98.66249529 47.37875829 99.82181161 52.609375 101.3359375 C55.38152846 102.10598013 58.14975248 102.61483142 61 103 C61 105.31 61 107.62 61 110 C65.92290686 110.39739246 65.92290686 110.39739246 70.375 108.5625 C72.72161501 104.86206863 73.45787059 101.36985267 73 97 C70.29077413 93.61346767 68.43248137 93.0850783 64.1875 92.25 C63.135625 92.1675 62.08375 92.085 61 92 C61 92.99 61 93.98 61 95 C54.34656702 95.32194031 48.10348744 94.94275287 42 92 C41.67 91.01 41.34 90.02 41 89 C46.875 89.875 46.875 89.875 48 91 C49.84891946 91.23363881 51.70488031 91.41303635 53.5625 91.5625 C55.08037109 91.68818359 55.08037109 91.68818359 56.62890625 91.81640625 C57.41136719 91.87699219 58.19382812 91.93757813 59 92 C59.495 90.515 59.495 90.515 60 89 C61.47906892 88.97310784 62.95827483 88.95365379 64.4375 88.9375 C65.26121094 88.92589844 66.08492188 88.91429687 66.93359375 88.90234375 C69 89 69 89 70 90 C72.64738089 90.09511266 75.26859001 90.12555635 77.91625977 90.11352539 C78.74545929 90.11367142 79.57465881 90.11381744 80.4289856 90.1139679 C83.18315198 90.11326851 85.93725161 90.10547493 88.69140625 90.09765625 C90.59569766 90.09579216 92.49998955 90.09436822 94.40428162 90.09336853 C99.42667963 90.08954263 104.44904892 90.07971173 109.47143555 90.06866455 C114.5922812 90.05845198 119.71313148 90.05387124 124.83398438 90.04882812 C134.88933557 90.03808953 144.9446654 90.02101224 155 90 C155.33 90.99 155.66 91.98 156 93 C155.030625 93.06316406 154.06125 93.12632812 153.0625 93.19140625 C144.29338809 93.93614084 137.12529098 95.74346215 129.23046875 99.69946289 C124.46925826 102.04523895 124.46925826 102.04523895 121.609375 101.76953125 C120 101 120 101 119 100 C116.32941149 99.85884839 113.67567762 99.95752893 111 100 C110.97287934 101.43739513 110.95354933 102.87493863 110.9375 104.3125 C110.92009766 105.51326172 110.92009766 105.51326172 110.90234375 106.73828125 C110.90342145 109.16861334 110.90342145 109.16861334 112 112 C114.87470493 113.43735246 116.81894588 113.38172649 120 113 C122.90436867 110.17412778 124.15887273 107.89750061 125 104 C125.72445312 103.80664062 126.44890625 103.61328125 127.1953125 103.4140625 C133.19869983 101.80433442 133.19869983 101.80433442 139.125 99.9375 C142.30364506 98.90098531 145.4781097 98.21649147 148.75390625 97.5625 C151.28143883 96.92951793 153.60168625 96.01159103 156 95 C156.27972656 95.76183594 156.55945313 96.52367187 156.84765625 97.30859375 C158.9720586 102.7801252 160.99164177 107.30631753 164.875 111.75 C167.93994513 115.37100429 167.93994513 115.37100429 168.22265625 118.33203125 C167.9375 120.5625 167.9375 120.5625 167 124 C169.88415883 125.44207941 172.41721528 125.09394887 175.625 125.0625 C177.40777344 125.04896484 177.40777344 125.04896484 179.2265625 125.03515625 C180.14179687 125.02355469 181.05703125 125.01195312 182 125 C182.22162329 123.37675914 182.42689803 121.751279 182.625 120.125 C182.74101563 119.22007812 182.85703125 118.31515625 182.9765625 117.3828125 C182.98429688 116.59648437 182.99203125 115.81015625 183 115 C180.63288209 112.63288209 179.89980191 112.77762608 176.6875 112.4375 C173.70599663 111.83158157 172.35691711 111.3945735 170.296875 109.1171875 C167.45608907 104.30091251 166.41012606 100.54481502 167 95 C166.34 95 165.68 95 165 95 C165 93.68 165 92.36 165 91 C166.06347656 90.78601563 167.12695312 90.57203125 168.22265625 90.3515625 C174.29929278 88.82471565 179.8072521 86.07136352 185.4375 83.375 C187.05881836 82.63056641 187.05881836 82.63056641 188.71289062 81.87109375 C197.60724059 77.63157946 206.8019358 72.30040648 210.40625 62.60546875 C212.77662119 52.20390568 211.00564416 43.27391297 206 34 C205.25291816 32.85908907 204.48637978 31.7302602 203.6875 30.625 C201.62241853 27.41265105 201.44090339 25.75393441 202 22 C203.5 19.25 203.5 19.25 205 17 C205 16.34 205 15.68 205 15 C202.6704053 14.49758678 202.6704053 14.49758678 200 15 C198.61061923 16.96147874 197.2739589 18.96166576 196 21 C195.01 21 194.02 21 193 21 C193 20.34 193 19.68 193 19 C185.01051589 17.99111649 177.1083702 17.8488629 169.0625 17.875 C167.84498047 17.87113281 166.62746094 17.86726563 165.37304688 17.86328125 C164.20966797 17.86457031 163.04628906 17.86585938 161.84765625 17.8671875 C160.2699646 17.86887939 160.2699646 17.86887939 158.66040039 17.87060547 C155.89471948 17.88522265 155.89471948 17.88522265 153 19 C150.50724314 19.09672459 148.04338356 19.13998844 145.55078125 19.1328125 C144.45361031 19.13424759 144.45361031 19.13424759 143.33427429 19.13571167 C141.78510451 19.13639198 140.23593187 19.13454804 138.68676758 19.13037109 C136.33863746 19.12505913 133.99070199 19.13030109 131.64257812 19.13671875 C130.13281208 19.13605719 128.62304616 19.13477443 127.11328125 19.1328125 C126.07377068 19.13584885 126.07377068 19.13584885 125.01325989 19.13894653 C121.02245079 19.12018262 117.18374522 18.77666595 113.23381042 18.23803711 C108.52844307 17.73662838 103.7902298 17.75714321 99.0625 17.68359375 C97.94182129 17.66281265 96.82114258 17.64203156 95.66650391 17.62062073 C92.1110608 17.55559991 88.55554822 17.49646232 85 17.4375 C82.5794201 17.39426958 80.15884704 17.35065389 77.73828125 17.30664062 C71.8255928 17.19996761 65.91283631 17.09811589 60 17 C60.09155273 14.02148438 60.09155273 14.02148438 60.18310547 11.04296875 C60.12854994 8.70262665 60.12854994 8.70262665 58.125 6 C53.58233748 3.09269598 50.33216457 3.64452236 45 4 C43.68 7.96 42.36 11.92 41 16 C31.1 16 21.2 16 11 16 C10.01 13.03 9.02 10.06 8 7 C6.25213315 4.78625275 6.25213315 4.78625275 4 4 C1.93161504 4.0363856 1.93161504 4.0363856 0 5 C-1.14724066 7.17316366 -1.14724066 7.17316366 -1.75 9.8125 C-2.11351562 11.12154297 -2.11351562 11.12154297 -2.484375 12.45703125 C-3.1324807 15.2209178 -3.1324807 15.2209178 -3 19 C-3.66 19 -4.32 19 -5 19 C-6.45369052 16.09261897 -6.29639413 14.26033542 -6 11 C-4.54756856 6.904281 -3.09642272 3.09642272 0 0 Z " fill="#0B0B0B" transform="translate(414,155)"/>
<path d="M0 0 C0 0.99 0 1.98 0 3 C-0.97839844 3.25523437 -0.97839844 3.25523437 -1.9765625 3.515625 C-10.70438755 5.79760769 -10.70438755 5.79760769 -17.1796875 11.75390625 C-23.00152892 22.61142801 -23.96000511 36.59655393 -20.9375 48.5 C-18.18939738 56.03801981 -13.23307182 61.80797974 -6.40112305 65.91821289 C-1.81504399 67.98439655 3.03875042 68.32506809 8 68.8125 C9.06089844 68.93302734 10.12179687 69.05355469 11.21484375 69.17773438 C13.80848236 69.46981079 16.40265349 69.74339699 19 70 C19.26167969 70.8765625 19.52335937 71.753125 19.79296875 72.65625 C20.9862994 75.96204625 22.40597418 78.55777834 24.3125 81.5 C24.92738281 82.45003906 25.54226563 83.40007812 26.17578125 84.37890625 C27.68602291 86.54886804 29.22706861 88.48578562 31 90.4375 C33 93 33 93 32.875 95.125 C32.58625 95.74375 32.2975 96.3625 32 97 C31.18553891 99.00572641 31.18553891 99.00572641 31 101 C32.56265693 103.02641317 33.60500342 103.8897856 36.0859375 104.58203125 C42.30795082 105.27930216 42.30795082 105.27930216 48 103 C49.17612195 101.21328929 49.17612195 101.21328929 49 99 C48.15254366 96.14298293 48.15254366 96.14298293 46 94 C42.37400578 93.58274322 42.37400578 93.58274322 39 94 C38.5875 93.154375 38.175 92.30875 37.75 91.4375 C34.43607584 84.35185554 34.43607584 84.35185554 29 79 C28.3125 76.375 28.3125 76.375 28 74 C28.66 74 29.32 74 30 74 C30 74.99 30 75.98 30 77 C30.969375 77.144375 31.93875 77.28875 32.9375 77.4375 C36 78 36 78 37 79 C38.95250863 79.32840359 40.91263633 79.6118124 42.875 79.875 C48.2690467 80.66249529 53.37875829 81.82181161 58.609375 83.3359375 C61.38152846 84.10598013 64.14975248 84.61483142 67 85 C67 87.31 67 89.62 67 92 C70.24606681 92.58661468 70.24606681 92.58661468 74 92 C75.89912427 90.32356065 77.32814219 88.56314529 78.8359375 86.53125 C79.22007812 86.0259375 79.60421875 85.520625 80 85 C80.33 85 80.66 85 81 85 C81.30228029 88.06522825 81.34739659 89.52537505 79.49609375 92.0546875 C73.92021858 96.98515776 73.92021858 96.98515776 69.125 97.0625 C66 96 66 96 64 94 C63.875 90.875 63.875 90.875 64 88 C63.13117188 87.80664062 62.26234375 87.61328125 61.3671875 87.4140625 C60.21476562 87.15367187 59.06234375 86.89328125 57.875 86.625 C56.73804688 86.36976563 55.60109375 86.11453125 54.4296875 85.8515625 C51 85 51 85 47.84375 83.90625 C44.02985478 82.69083284 40.97858679 82.86280735 37 83 C37.495 83.78375 37.99 84.5675 38.5 85.375 C40 88 40 88 40 90 C41.258125 90.103125 42.51625 90.20625 43.8125 90.3125 C46.33231669 90.51904235 47.66199559 90.74939719 49.70703125 92.265625 C51.28130077 94.37733397 51.58481583 95.83023917 51.875 98.4375 C51.97554688 99.19933594 52.07609375 99.96117187 52.1796875 100.74609375 C51.94204234 103.72699068 51.10543046 104.89912675 49 107 C44.38737996 108.85472484 39.99912259 109.1611488 35.125 108.375 C29.86666667 106.06133333 29.86666667 106.06133333 28 103 C28.00565453 101.26971342 28.07656445 99.53923591 28.1875 97.8125 C28.43047839 91.92615249 26.64084741 89.38631239 22.82421875 85.07421875 C20.1640849 82.04952694 17 78.1544285 17 74 C16.41621582 73.94054199 15.83243164 73.88108398 15.23095703 73.81982422 C-8.66151063 71.25840074 -8.66151063 71.25840074 -16.875 62 C-17.57625 61.01 -18.2775 60.02 -19 59 C-20.0828125 57.6078125 -20.0828125 57.6078125 -21.1875 56.1875 C-26.90820468 46.12695039 -26.6117659 31.07607733 -24.27734375 19.98828125 C-22.59663759 14.02075372 -20.94893226 9.80687097 -16 6 C-15.54625 5.46375 -15.0925 4.9275 -14.625 4.375 C-10.29456681 0.7107873 -5.54592144 -0.40579913 0 0 Z " fill="#0A0A0A" transform="translate(408,173)"/>
<path d="M0 0 C4.60318234 0 6.47731945 0.51140732 9.875 3.6875 C12 7 12 7 13 13 C21.58 12.67 30.16 12.34 39 12 C39.99 9.03 40.98 6.06 42 3 C42.66 2.01 43.32 1.02 44 0 C49.22662188 -0.94796573 53.80790294 -0.58559154 58.5625 1.75 C62.13043478 5.04347826 62.13043478 5.04347826 63 8 C63.02493572 9.99984455 63.02724543 12.00018559 63 14 C63.7935791 13.99476318 64.5871582 13.98952637 65.40478516 13.98413086 C91.99530505 13.8325906 91.99530505 13.8325906 103.625 14.5 C113.70784848 15.06179232 123.77951834 15.11391188 133.875 15.125 C134.66561829 15.12749756 135.45623657 15.12999512 136.27081299 15.13256836 C138.55298148 15.13850857 140.83501721 15.13694904 143.1171875 15.1328125 C143.79348206 15.13479645 144.46977661 15.1367804 145.16656494 15.13882446 C149.86221839 15.11634365 154.3595166 14.65055921 159 14 C159 14.33 159 14.66 159 15 C165.93 15.33 172.86 15.66 180 16 C180 16.33 180 16.66 180 17 C179.2886792 17.02505615 178.5773584 17.0501123 177.84448242 17.07592773 C174.62530483 17.19188439 171.40642015 17.31461245 168.1875 17.4375 C166.50817383 17.49647461 166.50817383 17.49647461 164.79492188 17.55664062 C163.18520508 17.61948242 163.18520508 17.61948242 161.54296875 17.68359375 C160.55321045 17.72025146 159.56345215 17.75690918 158.54370117 17.79467773 C155.8781649 17.90790331 155.8781649 17.90790331 153 19 C150.50724314 19.09672459 148.04338356 19.13998844 145.55078125 19.1328125 C144.45361031 19.13424759 144.45361031 19.13424759 143.33427429 19.13571167 C141.78510451 19.13639198 140.23593187 19.13454804 138.68676758 19.13037109 C136.33863746 19.12505913 133.99070199 19.13030109 131.64257812 19.13671875 C130.13281208 19.13605719 128.62304616 19.13477443 127.11328125 19.1328125 C126.07377068 19.13584885 126.07377068 19.13584885 125.01325989 19.13894653 C121.02245079 19.12018262 117.18374522 18.77666595 113.23381042 18.23803711 C108.52844307 17.73662838 103.7902298 17.75714321 99.0625 17.68359375 C97.94182129 17.66281265 96.82114258 17.64203156 95.66650391 17.62062073 C92.1110608 17.55559991 88.55554822 17.49646232 85 17.4375 C82.5794201 17.39426958 80.15884704 17.35065389 77.73828125 17.30664062 C71.8255928 17.19996761 65.91283631 17.09811589 60 17 C60.09155273 14.02148438 60.09155273 14.02148438 60.18310547 11.04296875 C60.12854994 8.70262665 60.12854994 8.70262665 58.125 6 C53.58233748 3.09269598 50.33216457 3.64452236 45 4 C43.68 7.96 42.36 11.92 41 16 C31.1 16 21.2 16 11 16 C9.515 11.545 9.515 11.545 8 7 C6.25213315 4.78625275 6.25213315 4.78625275 4 4 C1.93161504 4.0363856 1.93161504 4.0363856 0 5 C-1.14724066 7.17316366 -1.14724066 7.17316366 -1.75 9.8125 C-1.99234375 10.68519531 -2.2346875 11.55789062 -2.484375 12.45703125 C-3.1324807 15.2209178 -3.1324807 15.2209178 -3 19 C-3.66 19 -4.32 19 -5 19 C-6.45369052 16.09261897 -6.29639413 14.26033542 -6 11 C-4.54756856 6.904281 -3.09642272 3.09642272 0 0 Z " fill="#131313" transform="translate(414,155)"/>
<path d="M0 0 C1.6586512 0.14298131 3.3210869 0.24541225 4.984375 0.31640625 C6.38623047 0.37924805 6.38623047 0.37924805 7.81640625 0.44335938 C8.78449219 0.48267578 9.75257813 0.52199219 10.75 0.5625 C11.73355469 0.60568359 12.71710937 0.64886719 13.73046875 0.69335938 C16.15351275 0.79922052 18.5766554 0.90130171 21 1 C21 1.33 21 1.66 21 2 C19.9330188 2.03758423 19.9330188 2.03758423 18.84448242 2.07592773 C15.62530483 2.19188439 12.40642015 2.31461245 9.1875 2.4375 C8.06794922 2.47681641 6.94839844 2.51613281 5.79492188 2.55664062 C4.18520508 2.61948242 4.18520508 2.61948242 2.54296875 2.68359375 C1.0583313 2.73858032 1.0583313 2.73858032 -0.45629883 2.79467773 C-3.1218351 2.90790331 -3.1218351 2.90790331 -6 4 C-8.48090632 4.10858756 -10.93281979 4.16402415 -13.4140625 4.16796875 C-14.14313812 4.17129715 -14.87221375 4.17462555 -15.62338257 4.17805481 C-17.1683489 4.18311652 -18.71332616 4.18546337 -20.25830078 4.18530273 C-22.59556746 4.18747267 -24.93234909 4.20558982 -27.26953125 4.22460938 C-34.74920729 4.25194693 -41.75580942 4.09700254 -49 2 C-48.67 1.34 -48.34 0.68 -48 0 C-46.80922852 0.00523682 -45.61845703 0.01047363 -44.39160156 0.01586914 C-39.9710363 0.03397788 -35.55047431 0.04545353 -31.12988281 0.05493164 C-29.21711679 0.05995841 -27.3043546 0.06678077 -25.39160156 0.07543945 C-22.6412664 0.08757748 -19.89098207 0.0932449 -17.140625 0.09765625 C-15.85916595 0.10539818 -15.85916595 0.10539818 -14.55181885 0.11329651 C-13.75129089 0.11337204 -12.95076294 0.11344757 -12.12597656 0.11352539 C-11.42426331 0.115746 -10.72255005 0.11796661 -9.99957275 0.12025452 C-1.40436672 -0.39666208 -1.40436672 -0.39666208 0 0 Z " fill="#101010" transform="translate(573,170)"/>
<path d="M0 0 C0 0.99 0 1.98 0 3 C-0.83144531 3.12117187 -1.66289062 3.24234375 -2.51953125 3.3671875 C-3.60621094 3.53476563 -4.69289063 3.70234375 -5.8125 3.875 C-6.89144531 4.03742188 -7.97039062 4.19984375 -9.08203125 4.3671875 C-12.17321793 4.85132338 -12.17321793 4.85132338 -15 7 C-15.61824717 9.12376704 -15.61824717 9.12376704 -15.75 11.5 C-15.82734375 12.2940625 -15.9046875 13.088125 -15.984375 13.90625 C-16.15884436 16.06054111 -16.15884436 16.06054111 -15 18 C-12.14561434 19.77251905 -10.0051311 20.24293044 -6.671875 20.1953125 C-5.87265625 20.18886719 -5.0734375 20.18242187 -4.25 20.17578125 C-3.425 20.15902344 -2.6 20.14226562 -1.75 20.125 C-0.48929687 20.11146484 -0.48929687 20.11146484 0.796875 20.09765625 C2.86470604 20.07415817 4.93238995 20.03828908 7 20 C7 20.99 7 21.98 7 23 C-0.77330715 25.24683004 -9.78979377 24.85072553 -17 21 C-19.8416328 16.73755081 -19.50403317 13.00032912 -19 8 C-17.66028209 4.50184767 -16.48161448 3.34065414 -13.4375 1.1875 C-8.88036758 -0.38678211 -4.77242384 -0.25465503 0 0 Z " fill="#0B0B0B" transform="translate(426,192)"/>
<path d="M0 0 C8.25 0 16.5 0 25 0 C25.33 0.99 25.66 1.98 26 3 C24.91460938 3.13277344 23.82921875 3.26554688 22.7109375 3.40234375 C21.26561678 3.58066254 19.82030474 3.75905169 18.375 3.9375 C17.66214844 4.02451172 16.94929687 4.11152344 16.21484375 4.20117188 C12.12408039 4.70782605 8.06157365 5.2889043 4 6 C4.66 5.01 5.32 4.02 6 3 C3.69 3 1.38 3 -1 3 C-0.67 2.01 -0.34 1.02 0 0 Z " fill="#0D0D0D" transform="translate(544,245)"/>
<path d="M0 0 C-1.82960928 3.65921857 -6.28647024 4.70272388 -10 6 C-13.26033542 6.29639413 -15.09261897 6.45369052 -18 5 C-19.53668865 4.77532169 -21.07968054 4.59203195 -22.625 4.4375 C-23.44226563 4.35371094 -24.25953125 4.26992187 -25.1015625 4.18359375 C-25.72804688 4.12300781 -26.35453125 4.06242188 -27 4 C-26.015625 2.54296875 -26.015625 2.54296875 -24 1 C-21.18686612 0.61771728 -18.57177583 0.3969121 -15.75 0.3125 C-15.01136719 0.27833984 -14.27273438 0.24417969 -13.51171875 0.20898438 C-9.00584992 0.01428634 -4.50952881 -0.02982493 0 0 Z " fill="#D8D8D8" transform="translate(551,247)"/>
<path d="M0 0 C2.85423192 -0.02718316 5.70820015 -0.04692705 8.5625 -0.0625 C9.36236328 -0.07087891 10.16222656 -0.07925781 10.98632812 -0.08789062 C15.77163104 -0.10742247 20.28145051 0.19562982 25 1 C25 1.99 25 2.98 25 4 C24.06994141 3.89171875 24.06994141 3.89171875 23.12109375 3.78125 C15.05200562 2.93558138 7.10374993 2.90157389 -1 3 C-0.67 2.01 -0.34 1.02 0 0 Z " fill="#1A1A1A" transform="translate(412,228)"/>
<path d="M0 0 C-0.33 0.99 -0.66 1.98 -1 3 C-3.2578125 3.87890625 -3.2578125 3.87890625 -6.125 4.5625 C-7.11371094 4.80742187 -8.10242188 5.05234375 -9.12109375 5.3046875 C-10.07113281 5.53414063 -11.02117188 5.76359375 -12 6 C-13.39825062 6.38720786 -14.79462914 6.78136517 -16.1875 7.1875 C-17.115625 7.455625 -18.04375 7.72375 -19 8 C-18.85546875 6.140625 -18.85546875 6.140625 -18 4 C-15.48828125 2.734375 -15.48828125 2.734375 -12.3125 1.75 C-11.27738281 1.41484375 -10.24226562 1.0796875 -9.17578125 0.734375 C-5.99908308 -0.00021203 -3.24736123 -0.13632101 0 0 Z " fill="#272727" transform="translate(562,254)"/>
<path d="M0 0 C5.61 0 11.22 0 17 0 C16.67 0.99 16.34 1.98 16 3 C10.39 3 4.78 3 -1 3 C-0.67 2.01 -0.34 1.02 0 0 Z " fill="#1E1E1E" transform="translate(527,245)"/>
<path d="M0 0 C1.6586512 0.14298131 3.3210869 0.24541225 4.984375 0.31640625 C6.38623047 0.37924805 6.38623047 0.37924805 7.81640625 0.44335938 C8.78449219 0.48267578 9.75257813 0.52199219 10.75 0.5625 C11.73355469 0.60568359 12.71710937 0.64886719 13.73046875 0.69335938 C16.15351275 0.79922052 18.5766554 0.90130171 21 1 C21 1.33 21 1.66 21 2 C20.30438965 2.02505615 19.6087793 2.0501123 18.89208984 2.07592773 C15.71956545 2.19245974 12.54729645 2.31492568 9.375 2.4375 C8.28058594 2.47681641 7.18617188 2.51613281 6.05859375 2.55664062 C4.46337891 2.61948242 4.46337891 2.61948242 2.8359375 2.68359375 C1.86188965 2.72025146 0.8878418 2.75690918 -0.11572266 2.79467773 C-3.1254852 3.00893288 -6.03295916 3.45931357 -9 4 C-8.67 2.68 -8.34 1.36 -8 0 C-4.8464199 -1.01365075 -3.15640781 -0.79549144 0 0 Z " fill="#4B4B4B" transform="translate(573,170)"/>
<path d="M0 0 C0.66 0.33 1.32 0.66 2 1 C2 1.66 2 2.32 2 3 C-3.61 5.64 -9.22 8.28 -15 11 C-12.65405652 6.30811303 -11.05140272 5.57900032 -6.5 3.1875 C-5.60861328 2.70120117 -5.60861328 2.70120117 -4.69921875 2.20507812 C-3.16854404 1.3982778 -1.58636235 0.69090255 0 0 Z " fill="#0D0D0D" transform="translate(601,237)"/>
<path d="M0 0 C0.66 0 1.32 0 2 0 C2 1.65 2 3.3 2 5 C2.99 5 3.98 5 5 5 C5.33 3.68 5.66 2.36 6 1 C6.66 1 7.32 1 8 1 C7.25 6.75 7.25 6.75 5 9 C2.9375 8.75 2.9375 8.75 1 8 C-0.35439668 5.29120665 -0.06501451 2.99066732 0 0 Z " fill="#070707" transform="translate(518,216)"/>
<path d="M0 0 C0.66 0 1.32 0 2 0 C2 0.99 2 1.98 2 3 C2.99 3.33 3.98 3.66 5 4 C5.33 2.68 5.66 1.36 6 0 C6.66 0 7.32 0 8 0 C7.125 5.875 7.125 5.875 6 7 C4.00041636 7.04080783 1.99954746 7.04254356 0 7 C-1.125 2.25 -1.125 2.25 0 0 Z " fill="#010101" transform="translate(586,223)"/>
<path d="M0 0 C0.91007812 0.00902344 1.82015625 0.01804688 2.7578125 0.02734375 C3.45648438 0.03894531 4.15515625 0.05054688 4.875 0.0625 C4.875 1.0525 4.875 2.0425 4.875 3.0625 C0.585 3.7225 -3.705 4.3825 -8.125 5.0625 C-7.795 3.7425 -7.465 2.4225 -7.125 1.0625 C-4.60024538 -0.19987731 -2.81299534 -0.03606404 0 0 Z " fill="#1A1A1A" transform="translate(421.125,191.9375)"/>
<path d="M0 0 C0.66 0 1.32 0 2 0 C1.25 4.75 1.25 4.75 -1 7 C-3.5625 7.1875 -3.5625 7.1875 -6 7 C-7 6 -7 6 -7.0625 3.4375 C-7.041875 2.633125 -7.02125 1.82875 -7 1 C-6.34 1 -5.68 1 -5 1 C-5 1.99 -5 2.98 -5 4 C-1.87802522 2.6910428 -1.87802522 2.6910428 0 0 Z " fill="#090909" transform="translate(508,179)"/>
<path d="M0 0 C0.66 0 1.32 0 2 0 C2 0.99 2 1.98 2 3 C2.66 3 3.32 3 4 3 C4 2.01 4 1.02 4 0 C4.66 0 5.32 0 6 0 C5.67 2.31 5.34 4.62 5 7 C3.35 6.67 1.7 6.34 0 6 C0 4.02 0 2.04 0 0 Z " fill="#090909" transform="translate(435,237)"/>
<path d="M0 0 C0.66 0 1.32 0 2 0 C2 1.32 2 2.64 2 4 C2.66 4 3.32 4 4 4 C4.33 3.01 4.66 2.02 5 1 C5.66 1 6.32 1 7 1 C6.49396008 3.16874252 6.00016187 4.99967627 5 7 C3.35 6.67 1.7 6.34 0 6 C0 4.02 0 2.04 0 0 Z " fill="#090909" transform="translate(608,189)"/>
<path d="M0 0 C1.85772162 0.08984301 3.71247985 0.24611861 5.5625 0.4375 C7.08037109 0.59025391 7.08037109 0.59025391 8.62890625 0.74609375 C9.80259766 0.87177734 9.80259766 0.87177734 11 1 C11 1.99 11 2.98 11 4 C2.42857143 3.14285714 2.42857143 3.14285714 -1 1 C-0.67 0.67 -0.34 0.34 0 0 Z " fill="#0C0C0C" transform="translate(426,228)"/>
<path d="M0 0 C0 0.99 0 1.98 0 3 C-2.97 3.66 -5.94 4.32 -9 5 C-8.67 3.68 -8.34 2.36 -8 1 C-5.29120665 -0.35439668 -2.99066732 -0.06501451 0 0 Z " fill="#161616" transform="translate(408,173)"/>
<path d="M0 0 C0.66 0.33 1.32 0.66 2 1 C1 4 1 4 -0.84765625 4.94921875 C-1.57855469 5.19285156 -2.30945313 5.43648437 -3.0625 5.6875 C-4.16271484 6.06455078 -4.16271484 6.06455078 -5.28515625 6.44921875 C-5.85105469 6.63097656 -6.41695312 6.81273437 -7 7 C-6.68359375 5.11328125 -6.68359375 5.11328125 -6 3 C-3.0625 1.1875 -3.0625 1.1875 0 0 Z " fill="#1F1F1F" transform="translate(547,249)"/>
<path d="M0 0 C1.65 0 3.3 0 5 0 C4.67 1.32 4.34 2.64 4 4 C2.68 4 1.36 4 0 4 C0 2.68 0 1.36 0 0 Z " fill="#080808" transform="translate(402,189)"/>
<path d="M0 0 C1.98 0 3.96 0 6 0 C5.67 0.99 5.34 1.98 5 3 C3.02 3 1.04 3 -1 3 C-0.67 2.01 -0.34 1.02 0 0 Z " fill="#1E1E1E" transform="translate(556,254)"/>
<path d="M0 0 C1.32 0 2.64 0 4 0 C4 1.32 4 2.64 4 4 C2.35 3.67 0.7 3.34 -1 3 C-0.67 2.01 -0.34 1.02 0 0 Z " fill="#151515" transform="translate(447,188)"/>
</svg>
