<?xml version="1.0" encoding="UTF-8"?>
<svg version="1.1" xmlns="http://www.w3.org/2000/svg" width="800" height="300">
<path d="M0 0 C264 0 528 0 800 0 C800 99 800 198 800 300 C536 300 272 300 0 300 C0 201 0 102 0 0 Z " fill="#FEFEFE" transform="translate(0,0)"/>
<path d="M0 0 C3.80414376 0.21946983 6.51376957 0.73574433 9.875 2.5625 C12 5 12 5 13 13 C21.58 12.67 30.16 12.34 39 12 C39.99 9.03 40.98 6.06 42 3 C42.66 2.01 43.32 1.02 44 0 C49.29112132 -0.97398751 54.48473819 -0.70794276 59.1875 2 C60.115625 2.66 61.04375 3.32 62 4 C62 5.32 62 6.64 62 8 C62.66 8 63.32 8 64 8 C64 9.98 64 11.96 64 14 C64.76328613 13.99476318 65.52657227 13.98952637 66.31298828 13.98413086 C91.90114586 13.83261951 91.90114586 13.83261951 103.5625 14.5 C113.74910229 15.06691172 123.9256842 15.11393033 134.125 15.125 C134.93260773 15.12749756 135.74021545 15.12999512 136.57229614 15.13256836 C138.88417867 15.13846068 141.19592848 15.13697031 143.5078125 15.1328125 C144.20475723 15.13479645 144.90170197 15.1367804 145.61976624 15.13882446 C148.92970205 15.12298512 151.81276189 14.83749854 155 14 C156.97751674 13.90786886 158.95783942 13.86932867 160.9375 13.8671875 C162.07960938 13.86589844 163.22171875 13.86460937 164.3984375 13.86328125 C165.58695313 13.86714844 166.77546875 13.87101563 168 13.875 C169.78277344 13.86919922 169.78277344 13.86919922 171.6015625 13.86328125 C173.31472656 13.86521484 173.31472656 13.86521484 175.0625 13.8671875 C176.10535156 13.86831543 177.14820313 13.86944336 178.22265625 13.87060547 C180.66685513 13.98447901 182.66136445 14.33858713 185 15 C186.68388417 15.13832856 188.37322032 15.2194248 190.0625 15.25 C190.91972656 15.27578125 191.77695312 15.3015625 192.66015625 15.328125 C195.51333245 14.92801348 196.03334774 13.99259754 198 12 C200.2265625 11.671875 200.2265625 11.671875 202.625 11.75 C203.42164063 11.76546875 204.21828125 11.7809375 205.0390625 11.796875 C207 12 207 12 208 13 C207.9140625 14.92578125 207.9140625 14.92578125 207.625 17.3125 C207.48964844 18.48232422 207.48964844 18.48232422 207.3515625 19.67578125 C207 22 207 22 206.2734375 23.91796875 C205.74145968 27.96859983 208.57349123 31.29641619 210.60546875 34.6484375 C215.97891037 43.90933194 216.58420576 52.58748167 214.3671875 62.9609375 C211.17606323 72.30431936 204.10892557 77.91091874 195.5625 82.28125 C194.386875 82.8484375 193.21125 83.415625 192 84 C191.15953125 84.40605469 190.3190625 84.81210938 189.453125 85.23046875 C183.31809188 88.18782587 177.16543028 91.10660075 171 94 C170.979375 95.2478125 170.95875 96.495625 170.9375 97.78125 C170.92009766 98.8340918 170.92009766 98.8340918 170.90234375 99.90820312 C171.03847657 102.82416809 171.92263757 105.30659393 173 108 C173.59167969 108.01417969 174.18335938 108.02835937 174.79296875 108.04296875 C179.0571005 108.30034701 181.48172976 108.64038392 185.0625 111.125 C187.44933686 114.66675792 187.41056352 116.81225209 187 121 C186.34 121 185.68 121 185 121 C184.9175 121.763125 184.835 122.52625 184.75 123.3125 C183.81705887 126.65553907 182.96274304 127.27007621 180 129 C177.125 129.43359375 177.125 129.43359375 174 129.4375 C172.96875 129.45683594 171.9375 129.47617187 170.875 129.49609375 C167.30482364 128.8800443 166.10662099 127.91568558 164 125 C163.8203125 122.921875 163.8203125 122.921875 164.125 120.75 C164.41880065 114.98771629 161.60232566 112.18896394 158 108 C155 103.5 155 103.5 155 100 C154.195625 100.28875 153.39125 100.5775 152.5625 100.875 C149.95612496 101.6980658 147.53448319 102.33244605 144.875 102.875 C141.07709833 103.70821312 137.34901406 104.69259722 133.625 105.8125 C132.62726563 106.10769531 131.62953125 106.40289062 130.6015625 106.70703125 C127.40569859 108.29536602 126.60706003 109.87353776 125 113 C122.14630258 115.93296679 120.55516717 116.90086301 116.5 117.625 C112.71004733 116.94822274 111.18493094 115.98320369 108.94140625 112.84375 C106.65365476 108.36317447 106.65276618 104.36413286 107.875 99.5625 C109 97 109 97 110 96 C111.47648876 95.90176004 112.95775417 95.87026481 114.4375 95.875 C115.64212891 95.87113281 115.64212891 95.87113281 116.87109375 95.8671875 C119 96 119 96 121 97 C127.50490904 97.81311363 130.15221445 95.73911422 137 93 C116.87 93.66 96.74 94.32 76 95 C76 98.96 76 102.92 76 107 C73.78260808 110.8062714 70.88270233 112.94771448 67 115 C63.0625 115.125 63.0625 115.125 60 114 C58 112 58 112 57.875 108.375 C57.91625 107.26125 57.9575 106.1475 58 105 C56.72125 104.896875 55.4425 104.79375 54.125 104.6875 C50.54466251 104.30529757 47.3557703 103.5610245 43.9375 102.4375 C39.42320402 100.98218705 35.72253553 100.73763692 31 101 C33.18366764 105.38709904 33.18366764 105.38709904 37.19921875 107.890625 C37.99972656 108.11234375 38.80023438 108.3340625 39.625 108.5625 C43.83143545 109.75052446 43.83143545 109.75052446 45.5625 112.3125 C46.29190532 116.79313267 46.68126624 119.6670878 44.5625 123.8125 C40.90915522 126.93120896 37.71161665 127.14325861 33 127 C29.33233853 126.33861842 26.75594118 125.44581146 23.5625 123.5625 C21.70556092 120.51711991 21.96101117 119.36588223 22.1875 115.875 C22.47668613 108.88788996 19.2686168 105.21922954 15 100 C11 94.43227666 11 94.43227666 11 92 C10.41621582 91.94054199 9.83243164 91.88108398 9.23095703 91.81982422 C-14.66151063 89.25840074 -14.66151063 89.25840074 -22.875 80 C-23.57625 79.01 -24.2775 78.02 -25 77 C-25.721875 76.071875 -26.44375 75.14375 -27.1875 74.1875 C-30.9591228 67.55464611 -31.36498142 60.19157119 -31.3125 52.6875 C-31.30831055 51.8622583 -31.30412109 51.0370166 -31.29980469 50.18676758 C-31.13478427 41.20105481 -30.14298669 31.99617928 -24 25 C-19.700381 21.17215964 -15.66223455 19.28201537 -10 18 C-9.195625 17.79375 -8.39125 17.5875 -7.5625 17.375 C-7.046875 17.25125 -6.53125 17.1275 -6 17 C-6.103125 16.21625 -6.20625 15.4325 -6.3125 14.625 C-5.88272354 9.63959301 -3.63856553 3.63856553 0 0 Z " fill="#FCFCFC" transform="translate(406,155)"/>
<path d="M0 0 C3.80414376 0.21946983 6.51376957 0.73574433 9.875 2.5625 C12 5 12 5 13 13 C21.58 12.67 30.16 12.34 39 12 C39.99 9.03 40.98 6.06 42 3 C42.66 2.01 43.32 1.02 44 0 C49.29112132 -0.97398751 54.48473819 -0.70794276 59.1875 2 C60.115625 2.66 61.04375 3.32 62 4 C62 5.32 62 6.64 62 8 C62.66 8 63.32 8 64 8 C64 9.98 64 11.96 64 14 C64.76328613 13.99476318 65.52657227 13.98952637 66.31298828 13.98413086 C91.90114586 13.83261951 91.90114586 13.83261951 103.5625 14.5 C113.74910229 15.06691172 123.9256842 15.11393033 134.125 15.125 C134.93260773 15.12749756 135.74021545 15.12999512 136.57229614 15.13256836 C138.88417867 15.13846068 141.19592848 15.13697031 143.5078125 15.1328125 C144.20475723 15.13479645 144.90170197 15.1367804 145.61976624 15.13882446 C148.92970205 15.12298512 151.81276189 14.83749854 155 14 C156.97751674 13.90786886 158.95783942 13.86932867 160.9375 13.8671875 C162.07960938 13.86589844 163.22171875 13.86460937 164.3984375 13.86328125 C165.58695313 13.86714844 166.77546875 13.87101563 168 13.875 C169.78277344 13.86919922 169.78277344 13.86919922 171.6015625 13.86328125 C173.31472656 13.86521484 173.31472656 13.86521484 175.0625 13.8671875 C176.10535156 13.86831543 177.14820313 13.86944336 178.22265625 13.87060547 C180.66685513 13.98447901 182.66136445 14.33858713 185 15 C186.68388417 15.13832856 188.37322032 15.2194248 190.0625 15.25 C190.91972656 15.27578125 191.77695312 15.3015625 192.66015625 15.328125 C195.51333245 14.92801348 196.03334774 13.99259754 198 12 C200.2265625 11.671875 200.2265625 11.671875 202.625 11.75 C203.42164063 11.76546875 204.21828125 11.7809375 205.0390625 11.796875 C207 12 207 12 208 13 C207.9140625 14.92578125 207.9140625 14.92578125 207.625 17.3125 C207.48964844 18.48232422 207.48964844 18.48232422 207.3515625 19.67578125 C207 22 207 22 206.2734375 23.91796875 C205.74145968 27.96859983 208.57349123 31.29641619 210.60546875 34.6484375 C215.97891037 43.90933194 216.58420576 52.58748167 214.3671875 62.9609375 C211.17606323 72.30431936 204.10892557 77.91091874 195.5625 82.28125 C194.386875 82.8484375 193.21125 83.415625 192 84 C191.15953125 84.40605469 190.3190625 84.81210938 189.453125 85.23046875 C183.31809188 88.18782587 177.16543028 91.10660075 171 94 C170.979375 95.2478125 170.95875 96.495625 170.9375 97.78125 C170.92009766 98.8340918 170.92009766 98.8340918 170.90234375 99.90820312 C171.03847657 102.82416809 171.92263757 105.30659393 173 108 C173.59167969 108.01417969 174.18335938 108.02835937 174.79296875 108.04296875 C179.0571005 108.30034701 181.48172976 108.64038392 185.0625 111.125 C187.44933686 114.66675792 187.41056352 116.81225209 187 121 C186.34 121 185.68 121 185 121 C184.9175 121.763125 184.835 122.52625 184.75 123.3125 C183.81705887 126.65553907 182.96274304 127.27007621 180 129 C177.125 129.43359375 177.125 129.43359375 174 129.4375 C172.96875 129.45683594 171.9375 129.47617187 170.875 129.49609375 C167.30482364 128.8800443 166.10662099 127.91568558 164 125 C163.8203125 122.921875 163.8203125 122.921875 164.125 120.75 C164.41880065 114.98771629 161.60232566 112.18896394 158 108 C155 103.5 155 103.5 155 100 C154.195625 100.28875 153.39125 100.5775 152.5625 100.875 C149.95612496 101.6980658 147.53448319 102.33244605 144.875 102.875 C141.07709833 103.70821312 137.34901406 104.69259722 133.625 105.8125 C132.62726563 106.10769531 131.62953125 106.40289062 130.6015625 106.70703125 C127.40569859 108.29536602 126.60706003 109.87353776 125 113 C122.14630258 115.93296679 120.55516717 116.90086301 116.5 117.625 C112.71004733 116.94822274 111.18493094 115.98320369 108.94140625 112.84375 C106.65365476 108.36317447 106.65276618 104.36413286 107.875 99.5625 C109 97 109 97 110 96 C111.47648876 95.90176004 112.95775417 95.87026481 114.4375 95.875 C115.64212891 95.87113281 115.64212891 95.87113281 116.87109375 95.8671875 C119 96 119 96 121 97 C127.50490904 97.81311363 130.15221445 95.73911422 137 93 C116.87 93.66 96.74 94.32 76 95 C76 98.96 76 102.92 76 107 C73.78260808 110.8062714 70.88270233 112.94771448 67 115 C63.0625 115.125 63.0625 115.125 60 114 C58 112 58 112 57.875 108.375 C57.91625 107.26125 57.9575 106.1475 58 105 C56.72125 104.896875 55.4425 104.79375 54.125 104.6875 C50.54466251 104.30529757 47.3557703 103.5610245 43.9375 102.4375 C39.42320402 100.98218705 35.72253553 100.73763692 31 101 C33.18366764 105.38709904 33.18366764 105.38709904 37.19921875 107.890625 C37.99972656 108.11234375 38.80023438 108.3340625 39.625 108.5625 C43.83143545 109.75052446 43.83143545 109.75052446 45.5625 112.3125 C46.29190532 116.79313267 46.68126624 119.6670878 44.5625 123.8125 C40.90915522 126.93120896 37.71161665 127.14325861 33 127 C29.33233853 126.33861842 26.75594118 125.44581146 23.5625 123.5625 C21.70556092 120.51711991 21.96101117 119.36588223 22.1875 115.875 C22.47668613 108.88788996 19.2686168 105.21922954 15 100 C11 94.43227666 11 94.43227666 11 92 C10.41621582 91.94054199 9.83243164 91.88108398 9.23095703 91.81982422 C-14.66151063 89.25840074 -14.66151063 89.25840074 -22.875 80 C-23.57625 79.01 -24.2775 78.02 -25 77 C-25.721875 76.071875 -26.44375 75.14375 -27.1875 74.1875 C-30.9591228 67.55464611 -31.36498142 60.19157119 -31.3125 52.6875 C-31.30831055 51.8622583 -31.30412109 51.0370166 -31.29980469 50.18676758 C-31.13478427 41.20105481 -30.14298669 31.99617928 -24 25 C-18.64533168 20.23287633 -13.27110084 18 -6 18 C-6 18.99 -6 19.98 -6 21 C-6.80824219 21.23074219 -7.61648438 21.46148437 -8.44921875 21.69921875 C-15.33331207 23.80015435 -20.2610006 25.31550731 -24.04833984 31.79296875 C-27.35416313 38.42639486 -27.69591222 44.47837753 -27.625 51.8125 C-27.61807129 52.96580811 -27.61114258 54.11911621 -27.60400391 55.30737305 C-27.34761015 65.29468896 -25.63636488 72.80357021 -18.25 80 C-7.9972211 86.3094024 2.22397416 87.08113145 14 88 C14.25910156 88.86109375 14.51820313 89.7221875 14.78515625 90.609375 C16.0330399 94.09221426 17.57307574 97.05842643 19.4375 100.25 C20.03433594 101.28640625 20.63117188 102.3228125 21.24609375 103.390625 C22.89922544 106.20806577 22.89922544 106.20806577 26 108 C26.8125 111 26.8125 111 27 114 C26.34 114.66 25.68 115.32 25 116 C24.77707415 118.03676643 24.77707415 118.03676643 26 120 C30.37304183 122.73315115 32.89028308 123.31176159 37.9375 122.1875 C39.29767357 121.81282781 40.65442318 121.42411605 42 121 C42.97591583 117.61682513 42.85856655 115.4342662 42 112 C39.03 112 36.06 112 33 112 C32.649375 111.236875 32.29875 110.47375 31.9375 109.6875 C29.81788923 105.36556195 27.03132786 101.46067081 24.328125 97.48828125 C23.88984375 96.66714844 23.4515625 95.84601563 23 95 C23.495 93.515 23.495 93.515 24 92 C24.99 92.66 25.98 93.32 27 94 C27 94.66 27 95.32 27 96 C27.82242188 96.10957031 28.64484375 96.21914062 29.4921875 96.33203125 C35.7590727 97.22213157 41.62530533 98.38388196 47.640625 100.33984375 C50.80364248 101.22486023 53.91971186 101.54397839 57.1875 101.7890625 C59 102 59 102 61 103 C61 105.64 61 108.28 61 111 C67.36449114 110.31585953 67.36449114 110.31585953 72.0625 106.375 C73.18370599 102.33865845 73.21590947 99.17424975 73 95 C69.37 94.01 65.74 93.02 62 92 C61.505 93.485 61.505 93.485 61 95 C54.34656702 95.32194031 48.10348744 94.94275287 42 92 C41.67 91.01 41.34 90.02 41 89 C46.875 89.875 46.875 89.875 48 91 C49.84891946 91.23363881 51.70488031 91.41303635 53.5625 91.5625 C55.08037109 91.68818359 55.08037109 91.68818359 56.62890625 91.81640625 C57.41136719 91.87699219 58.19382812 91.93757813 59 92 C59 91.34 59 90.68 59 90 C62.25303044 88.37348478 65.39225602 88.88546844 69 89 C69.33 89.33 69.66 89.66 70 90 C72.64738089 90.09511266 75.26859001 90.12555635 77.91625977 90.11352539 C78.74545929 90.11367142 79.57465881 90.11381744 80.4289856 90.1139679 C83.18315198 90.11326851 85.93725161 90.10547493 88.69140625 90.09765625 C90.59569766 90.09579216 92.49998955 90.09436822 94.40428162 90.09336853 C99.42667963 90.08954263 104.44904892 90.07971173 109.47143555 90.06866455 C114.5922812 90.05845198 119.71313148 90.05387124 124.83398438 90.04882812 C134.88933557 90.03808953 144.9446654 90.02101224 155 90 C155.33 90.99 155.66 91.98 156 93 C155.01902344 93.06316406 154.03804687 93.12632812 153.02734375 93.19140625 C144.4478336 93.91430843 137.55643248 95.54528011 129.96264648 99.69946289 C127.12658812 101.21352604 125.38615515 102.03108207 122.13671875 101.76953125 C120 101 120 101 119 100 C116.32941149 99.85884839 113.67567762 99.95752893 111 100 C110.60690192 105.92637982 110.60690192 105.92637982 112.125 111.5625 C114.81063541 113.62148715 116.69962146 113.34378943 120 113 C120.99 112.67 121.98 112.34 123 112 C123.33 109.69 123.66 107.38 124 105 C124.59425781 104.83395264 125.18851563 104.66790527 125.80078125 104.49682617 C128.53487783 103.73065194 131.26743347 102.95911258 134 102.1875 C134.93457031 101.92646484 135.86914062 101.66542969 136.83203125 101.39648438 C142.33934767 99.83671993 147.66667858 98.07737631 153 96 C153.99 95.67 154.98 95.34 156 95 C156.79664063 96.66289062 156.79664063 96.66289062 157.609375 98.359375 C158.32248498 99.82312706 159.03605071 101.28665714 159.75 102.75 C160.27207031 103.84441406 160.27207031 103.84441406 160.8046875 104.9609375 C162.39864392 108.20788576 163.64567145 110.6602329 166.28125 113.1875 C168 115 168 115 168.171875 117.578125 C167.78125 120.05208333 167.390625 122.52604167 167 125 C171.62 125 176.24 125 181 125 C182.87404046 120.31489886 183.19157797 117.88523811 183 113 C182.39671875 112.97421875 181.7934375 112.9484375 181.171875 112.921875 C174.64560658 112.45872047 174.64560658 112.45872047 171.625 110.3125 C167.9528339 105.08672517 166.61268279 101.45528689 167 95 C166.34 95 165.68 95 165 95 C165 93.68 165 92.36 165 91 C166.23878906 90.61070312 167.47757813 90.22140625 168.75390625 89.8203125 C182.99428798 85.05773617 200.5362232 79.11325757 209.23828125 66.15625 C212.58479182 59.19786678 212.1285188 49.85129433 210.015625 42.640625 C208.28089393 38.33592198 206.42451412 34.39734564 203.625 30.6875 C202 28 202 28 202.125 24.5 C202.93491049 21.26035804 203.85284873 18.13554681 205 15 C202.6704053 14.49758678 202.6704053 14.49758678 200 15 C198.61061923 16.96147874 197.2739589 18.96166576 196 21 C195.01 21 194.02 21 193 21 C193 20.34 193 19.68 193 19 C185.42036966 18.06702433 177.94438525 17.84759646 170.3125 17.875 C169.22388672 17.87113281 168.13527344 17.86726563 167.01367188 17.86328125 C165.95341797 17.86457031 164.89316406 17.86585938 163.80078125 17.8671875 C162.38019409 17.86887939 162.38019409 17.86887939 160.9309082 17.87060547 C157.90872606 17.95460438 157.90872606 17.95460438 154.58251953 18.5 C150.96489525 19.00489945 147.52970083 19.12938705 143.87890625 19.1328125 C142.88527321 19.13424759 142.88527321 19.13424759 141.87156677 19.13571167 C140.47402857 19.13638814 139.07648713 19.13457128 137.67895508 19.13037109 C135.59904409 19.12509274 133.51935681 19.13029396 131.43945312 19.13671875 C123.39068476 19.14083861 115.42737031 18.80624545 107.39428711 18.25390625 C98.44390806 17.69089999 89.46433979 17.62104197 80.5 17.4375 C78.50129563 17.39417689 76.50259763 17.35055894 74.50390625 17.30664062 C69.66933731 17.20103732 64.83470047 17.09939132 60 17 C60 13.37 60 9.74 60 6 C54.87080814 3.89571616 50.4389165 3.78244334 45 4 C44.81824219 4.92232422 44.81824219 4.92232422 44.6328125 5.86328125 C44.46523438 6.67152344 44.29765625 7.47976562 44.125 8.3125 C43.96257812 9.11300781 43.80015625 9.91351563 43.6328125 10.73828125 C43 13 43 13 41 16 C38.01904297 16.34057617 38.01904297 16.34057617 34.2421875 16.29296875 C33.57913605 16.28872391 32.91608459 16.28447906 32.23294067 16.28010559 C30.11321559 16.26329971 27.99443812 16.22564701 25.875 16.1875 C24.43881581 16.17245549 23.00261672 16.15876668 21.56640625 16.14648438 C18.04396236 16.1133909 14.52207364 16.0615968 11 16 C10.80664062 15.37424072 10.61328125 14.74848145 10.4140625 14.10375977 C10.15367187 13.28705811 9.89328125 12.47035645 9.625 11.62890625 C9.36976563 10.81752197 9.11453125 10.0061377 8.8515625 9.17016602 C7.77907149 6.43697434 6.65891299 5.24636547 4 4 C3.01 4 2.02 4 1 4 C-1.03993514 8.92984325 -2.40652968 12.57960425 -2 18 C-2.99 18.33 -3.98 18.66 -5 19 C-6.48251273 16.03497454 -6.35770302 14.33856155 -6 11 C-2.39322917 2.39322917 -2.39322917 2.39322917 0 0 Z " fill="#161616" transform="translate(406,155)"/>
<path d="M0 0 C0 0.99 0 1.98 0 3 C-0.88751953 3.07347656 -0.88751953 3.07347656 -1.79296875 3.1484375 C-8.13120946 3.696027 -8.13120946 3.696027 -14 6 C-15.00496852 9.01490557 -15.10335303 11.04181692 -15.0625 14.1875 C-15.04896484 15.53908203 -15.04896484 15.53908203 -15.03515625 16.91796875 C-15.02355469 17.60503906 -15.01195312 18.29210937 -15 19 C-12.14839609 19.81434143 -9.63373869 20.11881242 -6.671875 20.09765625 C-5.87265625 20.09443359 -5.0734375 20.09121094 -4.25 20.08789062 C-3.425 20.07951172 -2.6 20.07113281 -1.75 20.0625 C-0.90953125 20.05798828 -0.0690625 20.05347656 0.796875 20.04882812 C2.86461401 20.03707961 4.93231624 20.01914522 7 20 C7 20.99 7 21.98 7 23 C1.35974644 25.82012678 -7.34131329 24.50610206 -13.1875 22.6875 C-16.50405353 21.52455266 -16.92369374 21.11445939 -19 18 C-19.60174277 13.2745494 -19.6647713 8.05508675 -17 4 C-11.42352799 -0.2985305 -6.8955466 -0.49947621 0 0 Z " fill="#121212" transform="translate(418,192)"/>
<path d="M0 0 C0 0.99 0 1.98 0 3 C-0.80824219 3.23074219 -1.61648438 3.46148437 -2.44921875 3.69921875 C-10.82918433 6.12809501 -10.82918433 6.12809501 -17 12 C-19.37895817 16.47276724 -21.34660294 20.9361728 -22 26 C-22.99 26.33 -23.98 26.66 -25 27 C-23.7553546 18.09095921 -22.47857349 10.47760251 -15.1875 4.625 C-10.33390626 1.29888734 -5.8942806 0 0 0 Z " fill="#0D0D0D" transform="translate(400,173)"/>
<path d="M0 0 C-1.66546556 3.33093112 -5.06696522 3.8861962 -8.41796875 5.17578125 C-12.21214351 6.38693235 -15.38706853 6.80646574 -19 5 C-20.53668865 4.77532169 -22.07968054 4.59203195 -23.625 4.4375 C-24.44226563 4.35371094 -25.25953125 4.26992187 -26.1015625 4.18359375 C-26.72804688 4.12300781 -27.35453125 4.06242188 -28 4 C-27.01171875 2.54296875 -27.01171875 2.54296875 -25 1 C-22.20725416 0.6169113 -19.61415033 0.3968145 -16.8125 0.3125 C-16.08224609 0.27833984 -15.35199219 0.24417969 -14.59960938 0.20898438 C-9.73146417 -0.00229916 -4.87211047 -0.02758839 0 0 Z " fill="#D4D4D4" transform="translate(544,247)"/>
<path d="M0 0 C3.22914752 -0.02917228 6.45826083 -0.04685663 9.6875 -0.0625 C10.59951172 -0.07087891 11.51152344 -0.07925781 12.45117188 -0.08789062 C13.33740234 -0.09111328 14.22363281 -0.09433594 15.13671875 -0.09765625 C15.94842529 -0.10289307 16.76013184 -0.10812988 17.59643555 -0.11352539 C20.14864673 0.0070209 22.51026137 0.440051 25 1 C25 1.99 25 2.98 25 4 C12.13 3.505 12.13 3.505 -1 3 C-0.67 2.01 -0.34 1.02 0 0 Z " fill="#1A1A1A" transform="translate(404,228)"/>
<path d="M0 0 C0 0.99 0 1.98 0 3 C-0.88751953 3.07347656 -0.88751953 3.07347656 -1.79296875 3.1484375 C-8.29022506 3.4861087 -8.29022506 3.4861087 -14 6 C-15.0369484 9.29094677 -15.57730897 12.58061883 -16 16 C-16.33 16 -16.66 16 -17 16 C-17.144375 15.21625 -17.28875 14.4325 -17.4375 13.625 C-17.87798925 11.03578982 -17.87798925 11.03578982 -19 9 C-18.20917288 5.2435712 -17.06907105 4.05324227 -14 1.6875 C-9.49762064 -0.68267433 -4.95895843 -0.35920021 0 0 Z " fill="#1F1F1F" transform="translate(418,192)"/>
<path d="M0 0 C0.99 0 1.98 0 3 0 C3 1.65 3 3.3 3 5 C3.66 5 4.32 5 5 5 C5.33 3.68 5.66 2.36 6 1 C6.66 1 7.32 1 8 1 C8.23053497 3.84326464 8.35903101 5.46145349 6.75 7.875 C5 9 5 9 2.875 8.8125 C1 8 1 8 0 6 C-0.039992 4.00039988 -0.04346799 1.99952758 0 0 Z " fill="#1A1A1A" transform="translate(510,216)"/>
<path d="M0 0 C5.875 0.875 5.875 0.875 7 2 C8.68183948 2.23287008 10.3712416 2.41264166 12.0625 2.5625 C13.44115234 2.68818359 13.44115234 2.68818359 14.84765625 2.81640625 C15.91306641 2.90728516 15.91306641 2.90728516 17 3 C17.33 3.99 17.66 4.98 18 6 C12.05827036 6.38750411 6.44461879 5.53456392 1 3 C0.67 2.01 0.34 1.02 0 0 Z " fill="#1D1D1D" transform="translate(447,244)"/>
<path d="M0 0 C0.66 0 1.32 0 2 0 C2 1.32 2 2.64 2 4 C2.99 4 3.98 4 5 4 C5.33 2.68 5.66 1.36 6 0 C6.99 0.33 7.98 0.66 9 1 C8.01 2.98 7.02 4.96 6 7 C4.02 7 2.04 7 0 7 C-1.125 2.25 -1.125 2.25 0 0 Z " fill="#080808" transform="translate(578,223)"/>
<path d="M0 0 C0.66 0 1.32 0 2 0 C1.67 3.63 1.34 7.26 1 11 C0.01 11.33 -0.98 11.66 -2 12 C-3.40457737 9.19084526 -3.24895157 7.11189466 -3 4 C-1.625 1.625 -1.625 1.625 0 0 Z " fill="#222222" transform="translate(403,162)"/>
<path d="M0 0 C0.66 0 1.32 0 2 0 C1.25 4.75 1.25 4.75 -1 7 C-3.5625 7.1875 -3.5625 7.1875 -6 7 C-7 6 -7 6 -7.0625 3.4375 C-7.041875 2.633125 -7.02125 1.82875 -7 1 C-6.34 1 -5.68 1 -5 1 C-5 1.99 -5 2.98 -5 4 C-3.68 4 -2.36 4 -1 4 C-0.67 2.68 -0.34 1.36 0 0 Z " fill="#080808" transform="translate(500,179)"/>
<path d="M0 0 C0.66 0 1.32 0 2 0 C2.33 0.99 2.66 1.98 3 3 C3.33 2.01 3.66 1.02 4 0 C4.66 0 5.32 0 6 0 C6 1.98 6 3.96 6 6 C2.25 7.125 2.25 7.125 0 6 C0 4.02 0 2.04 0 0 Z " fill="#0B0B0B" transform="translate(427,237)"/>
<path d="M0 0 C0.66 0 1.32 0 2 0 C2 1.32 2 2.64 2 4 C2.66 4 3.32 4 4 4 C4.33 3.01 4.66 2.02 5 1 C5.66 1 6.32 1 7 1 C6.67 2.65 6.34 4.3 6 6 C4.34385343 6.38218767 2.67542976 6.71395102 1 7 C0 6 0 6 -0.0625 2.9375 C-0.041875 1.968125 -0.02125 0.99875 0 0 Z " fill="#111111" transform="translate(600,189)"/>
<path d="M0 0 C0.33 0.66 0.66 1.32 1 2 C-3.455 3.485 -3.455 3.485 -8 5 C-7.67 3.68 -7.34 2.36 -7 1 C-2.66666667 -1.33333333 -2.66666667 -1.33333333 0 0 Z " fill="#222222" transform="translate(600,236)"/>
<path d="M0 0 C1.65 0 3.3 0 5 0 C4.67 1.32 4.34 2.64 4 4 C2.68 4 1.36 4 0 4 C0 2.68 0 1.36 0 0 Z " fill="#050505" transform="translate(394,189)"/>
<path d="M0 0 C1.10844919 3.32534757 0.84454356 5.62182575 0 9 C-0.99 8.01 -1.98 7.02 -3 6 C-1.125 1.125 -1.125 1.125 0 0 Z " fill="#303030" transform="translate(449,159)"/>
</svg>
