<?xml version="1.0" encoding="UTF-8"?>
<svg version="1.1" xmlns="http://www.w3.org/2000/svg" width="800" height="300">
<path d="M0 0 C264 0 528 0 800 0 C800 99 800 198 800 300 C536 300 272 300 0 300 C0 201 0 102 0 0 Z " fill="#FEFEFE" transform="translate(0,0)"/>
<path d="M0 0 C4.37356702 0.5085543 7.50480992 1.26052669 11 4 C12.96457553 7.25171122 14 9.18692647 14 13 C22.58 13 31.16 13 40 13 C40.66 9.7 41.32 6.4 42 3 C42.66 2.01 43.32 1.02 44 0 C49.45473727 -0.99327538 55.34155698 -0.98016153 60.1875 1.9375 C62.91844323 4.3502008 63.40527679 6.09663011 63.67578125 9.69140625 C63.74321533 10.49908447 63.81064941 11.3067627 63.88012695 12.13891602 C63.91968506 12.75307373 63.95924316 13.36723145 64 14 C64.75804932 13.99476318 65.51609863 13.98952637 66.29711914 13.98413086 C91.72609359 13.8326652 91.72609359 13.8326652 104 14.5 C114.56212326 15.05800264 125.11348537 15.11382562 135.6875 15.125 C136.93213013 15.12874634 136.93213013 15.12874634 138.2019043 15.13256836 C140.57605174 15.13845837 142.95006987 15.13697169 145.32421875 15.1328125 C146.03986496 15.13479645 146.75551117 15.1367804 147.49284363 15.13882446 C150.84105665 15.12320612 153.77804891 14.87090058 157 14 C160.97584126 13.77286361 164.95579107 13.81018084 168.9375 13.8125 C170.62153931 13.8115332 170.62153931 13.8115332 172.33959961 13.81054688 C180.07432275 13.8598376 187.42882032 14.31417073 195 16 C195.38929688 15.34644531 195.77859375 14.69289062 196.1796875 14.01953125 C198 12 198 12 200.4453125 11.57421875 C201.32960938 11.61160156 202.21390625 11.64898437 203.125 11.6875 C204.01445313 11.71199219 204.90390625 11.73648438 205.8203125 11.76171875 C208 12 208 12 209 13 C208.64467586 16.62430619 208.129985 19.68153675 206.75 23.0625 C205.72918313 27.06069942 207.02924185 28.44646294 209 32 C209.52980469 32.86238281 210.05960938 33.72476563 210.60546875 34.61328125 C216.1233564 44.0277513 216.62715625 53.53982163 214.33203125 64.0625 C211.10937558 73.29421231 205.10131814 77.70997793 196.5625 81.9375 C194.44885641 82.95222826 192.32929193 83.95319808 190.20654297 84.94873047 C187.94339328 86.0269693 185.70658388 87.1476999 183.47265625 88.28515625 C182.74425537 88.65584229 182.01585449 89.02652832 181.26538086 89.40844727 C179.86049521 90.12491171 178.45633552 90.84280183 177.05297852 91.56225586 C172.22232655 94 172.22232655 94 170 94 C170.28482368 95.41805831 170.57818144 96.83440379 170.875 98.25 C171.03742188 99.03890625 171.19984375 99.8278125 171.3671875 100.640625 C172.02037156 103.07595322 172.56796699 104.91745357 174 107 C176.29814274 108.02195506 176.29814274 108.02195506 178.9375 108.5625 C182.48311949 109.4032139 184.79504869 109.98870727 187 113 C187.55218463 118.61387712 187.12509183 122.13874605 184 127 C180.44223788 129.37184142 178.71979393 129.29824394 174.5 129.3125 C173.3553125 129.32925781 172.210625 129.34601563 171.03125 129.36328125 C168 129 168 129 166.08984375 127.79296875 C164.24787708 124.76263649 164.99503998 121.79531813 165.28515625 118.375 C165.25839849 115.82417737 165.25839849 115.82417737 162.99609375 114.375 C162.33738281 113.92125 161.67867187 113.4675 161 113 C161 112.01 161 111.02 161 110 C160.34 110 159.68 110 159 110 C157.02 105.545 157.02 105.545 155 101 C153.700625 101.28875 152.40125 101.5775 151.0625 101.875 C143.375 103.58333333 135.6875 105.29166667 128 107 C127.95875 107.721875 127.9175 108.44375 127.875 109.1875 C126.67670118 113.03917478 124.46156072 115.11046798 121 117 C116.70631061 117.67795096 114.8124795 117.51221534 111.125 115.1875 C107.72711744 111.68967972 107.84095511 108.62121116 107.8125 103.9375 C107.79832031 102.87402344 107.78414062 101.81054688 107.76953125 100.71484375 C108 98 108 98 110 96 C114.13997567 95.8028583 117.07703567 95.69234522 121 97 C127.90874351 97.69087435 129.88171804 96.16368087 137 93 C117.2 93.66 97.4 94.32 77 95 C77 97.97 77 100.94 77 104 C76.05987349 108.49171553 73.4189323 111.07040258 69.94140625 113.89453125 C68 115 68 115 64.25 115.0625 C59.46431501 113.49794914 59.46431501 113.49794914 58 111 C57.95734973 109.00045481 57.95400405 106.99947102 58 105 C56.67935547 104.81824219 56.67935547 104.81824219 55.33203125 104.6328125 C54.17058594 104.46523438 53.00914062 104.29765625 51.8125 104.125 C50.66394531 103.96257812 49.51539063 103.80015625 48.33203125 103.6328125 C45.29473812 103.05597605 42.84460185 102.16029812 40 101 C37.5679241 100.55747943 37.5679241 100.55747943 35.1875 100.375 C34.39730469 100.30023438 33.60710937 100.22546875 32.79296875 100.1484375 C31.90544922 100.07496094 31.90544922 100.07496094 31 100 C32.42673359 102.88634122 33.90494836 105.54445319 36 108 C39.55652459 108.90137027 39.55652459 108.90137027 43 109 C45.09807076 110.56365651 45.88333597 111.59905969 46.6171875 114.12109375 C46.70226562 114.88550781 46.78734375 115.64992188 46.875 116.4375 C46.97554688 117.19933594 47.07609375 117.96117187 47.1796875 118.74609375 C46.94204234 121.72699068 46.10543046 122.89912675 44 125 C38.18814266 127.33693564 32.79289053 127.43301402 27 125 C24.80859375 123.71875 24.80859375 123.71875 23 122 C22.71484375 119.73046875 22.71484375 119.73046875 22.9375 117.1875 C23.17160526 110.9837107 21.3039361 107.4502766 17.3125 102.8125 C15 100 15 100 15 97 C14.34 97 13.68 97 13 97 C13 96.01 13 95.02 13 94 C12.34 94 11.68 94 11 94 C10.67 93.34 10.34 92.68 10 92 C8.22403955 91.33975078 8.22403955 91.33975078 6.0625 90.9375 C5.24910156 90.76734375 4.43570313 90.5971875 3.59765625 90.421875 C1.05151963 90.0083671 -1.42637365 89.83249303 -4 89.6875 C-11.89151653 88.98902726 -18.43598081 84.42831141 -24 79 C-25.25 76.25 -25.25 76.25 -26 74 C-26.66 73.67 -27.32 73.34 -28 73 C-29.90360607 68.52539811 -30.23659679 64.68182404 -30.1953125 59.8515625 C-30.1924826 59.19417084 -30.18965271 58.53677917 -30.18673706 57.85946655 C-30.17563447 55.78111767 -30.15054986 53.70321634 -30.125 51.625 C-30.11495731 50.20703752 -30.10583373 48.78906821 -30.09765625 47.37109375 C-30.07572805 43.91391963 -30.04126818 40.45700358 -30 37 C-29.34 37 -28.68 37 -28 37 C-27.979375 35.824375 -27.95875 34.64875 -27.9375 33.4375 C-27.33660144 28.91073085 -25.58316533 26.56929244 -22.23828125 23.54296875 C-17.0455123 19.96331127 -11.28231772 18 -5 18 C-5.103125 16.88625 -5.20625 15.7725 -5.3125 14.625 C-5.3625998 9.03386248 -2.71971933 4.74008226 0 0 Z " fill="#FDFDFD" transform="translate(398,155)"/>
<path d="M0 0 C4.37356702 0.5085543 7.50480992 1.26052669 11 4 C12.96457553 7.25171122 14 9.18692647 14 13 C22.58 13 31.16 13 40 13 C40.66 9.7 41.32 6.4 42 3 C42.66 2.01 43.32 1.02 44 0 C49.45473727 -0.99327538 55.34155698 -0.98016153 60.1875 1.9375 C62.91844323 4.3502008 63.40527679 6.09663011 63.67578125 9.69140625 C63.74321533 10.49908447 63.81064941 11.3067627 63.88012695 12.13891602 C63.91968506 12.75307373 63.95924316 13.36723145 64 14 C64.75804932 13.99476318 65.51609863 13.98952637 66.29711914 13.98413086 C91.72609359 13.8326652 91.72609359 13.8326652 104 14.5 C114.56212326 15.05800264 125.11348537 15.11382562 135.6875 15.125 C136.93213013 15.12874634 136.93213013 15.12874634 138.2019043 15.13256836 C140.57605174 15.13845837 142.95006987 15.13697169 145.32421875 15.1328125 C146.03986496 15.13479645 146.75551117 15.1367804 147.49284363 15.13882446 C150.84105665 15.12320612 153.77804891 14.87090058 157 14 C160.97584126 13.77286361 164.95579107 13.81018084 168.9375 13.8125 C170.62153931 13.8115332 170.62153931 13.8115332 172.33959961 13.81054688 C180.07432275 13.8598376 187.42882032 14.31417073 195 16 C195.38929688 15.34644531 195.77859375 14.69289062 196.1796875 14.01953125 C198 12 198 12 200.4453125 11.57421875 C201.32960938 11.61160156 202.21390625 11.64898437 203.125 11.6875 C204.01445313 11.71199219 204.90390625 11.73648438 205.8203125 11.76171875 C208 12 208 12 209 13 C208.64467586 16.62430619 208.129985 19.68153675 206.75 23.0625 C205.72918313 27.06069942 207.02924185 28.44646294 209 32 C209.52980469 32.86238281 210.05960938 33.72476563 210.60546875 34.61328125 C216.1233564 44.0277513 216.62715625 53.53982163 214.33203125 64.0625 C211.10937558 73.29421231 205.10131814 77.70997793 196.5625 81.9375 C194.44885641 82.95222826 192.32929193 83.95319808 190.20654297 84.94873047 C187.94339328 86.0269693 185.70658388 87.1476999 183.47265625 88.28515625 C182.74425537 88.65584229 182.01585449 89.02652832 181.26538086 89.40844727 C179.86049521 90.12491171 178.45633552 90.84280183 177.05297852 91.56225586 C172.22232655 94 172.22232655 94 170 94 C170.28482368 95.41805831 170.57818144 96.83440379 170.875 98.25 C171.03742188 99.03890625 171.19984375 99.8278125 171.3671875 100.640625 C172.02037156 103.07595322 172.56796699 104.91745357 174 107 C176.29814274 108.02195506 176.29814274 108.02195506 178.9375 108.5625 C182.48311949 109.4032139 184.79504869 109.98870727 187 113 C187.55218463 118.61387712 187.12509183 122.13874605 184 127 C180.44223788 129.37184142 178.71979393 129.29824394 174.5 129.3125 C173.3553125 129.32925781 172.210625 129.34601563 171.03125 129.36328125 C168 129 168 129 166.08984375 127.79296875 C164.24787708 124.76263649 164.99503998 121.79531813 165.28515625 118.375 C165.25839849 115.82417737 165.25839849 115.82417737 162.99609375 114.375 C162.33738281 113.92125 161.67867187 113.4675 161 113 C161 112.01 161 111.02 161 110 C160.34 110 159.68 110 159 110 C157.02 105.545 157.02 105.545 155 101 C153.700625 101.28875 152.40125 101.5775 151.0625 101.875 C143.375 103.58333333 135.6875 105.29166667 128 107 C127.95875 107.721875 127.9175 108.44375 127.875 109.1875 C126.67670118 113.03917478 124.46156072 115.11046798 121 117 C116.70631061 117.67795096 114.8124795 117.51221534 111.125 115.1875 C107.72711744 111.68967972 107.84095511 108.62121116 107.8125 103.9375 C107.79832031 102.87402344 107.78414062 101.81054688 107.76953125 100.71484375 C108 98 108 98 110 96 C114.13997567 95.8028583 117.07703567 95.69234522 121 97 C127.90874351 97.69087435 129.88171804 96.16368087 137 93 C117.2 93.66 97.4 94.32 77 95 C77 97.97 77 100.94 77 104 C76.05987349 108.49171553 73.4189323 111.07040258 69.94140625 113.89453125 C68 115 68 115 64.25 115.0625 C59.46431501 113.49794914 59.46431501 113.49794914 58 111 C57.95734973 109.00045481 57.95400405 106.99947102 58 105 C56.67935547 104.81824219 56.67935547 104.81824219 55.33203125 104.6328125 C54.17058594 104.46523438 53.00914062 104.29765625 51.8125 104.125 C50.66394531 103.96257812 49.51539063 103.80015625 48.33203125 103.6328125 C45.29473812 103.05597605 42.84460185 102.16029812 40 101 C37.5679241 100.55747943 37.5679241 100.55747943 35.1875 100.375 C34.39730469 100.30023438 33.60710937 100.22546875 32.79296875 100.1484375 C31.90544922 100.07496094 31.90544922 100.07496094 31 100 C32.42673359 102.88634122 33.90494836 105.54445319 36 108 C39.55652459 108.90137027 39.55652459 108.90137027 43 109 C45.09807076 110.56365651 45.88333597 111.59905969 46.6171875 114.12109375 C46.70226562 114.88550781 46.78734375 115.64992188 46.875 116.4375 C46.97554688 117.19933594 47.07609375 117.96117187 47.1796875 118.74609375 C46.94204234 121.72699068 46.10543046 122.89912675 44 125 C38.18814266 127.33693564 32.79289053 127.43301402 27 125 C24.80859375 123.71875 24.80859375 123.71875 23 122 C22.71484375 119.73046875 22.71484375 119.73046875 22.9375 117.1875 C23.17160526 110.9837107 21.3039361 107.4502766 17.3125 102.8125 C15 100 15 100 15 97 C14.34 97 13.68 97 13 97 C13 96.01 13 95.02 13 94 C12.34 94 11.68 94 11 94 C10.67 93.34 10.34 92.68 10 92 C8.22403955 91.33975078 8.22403955 91.33975078 6.0625 90.9375 C5.24910156 90.76734375 4.43570313 90.5971875 3.59765625 90.421875 C1.05151963 90.0083671 -1.42637365 89.83249303 -4 89.6875 C-11.89151653 88.98902726 -18.43598081 84.42831141 -24 79 C-25.25 76.25 -25.25 76.25 -26 74 C-26.66 73.67 -27.32 73.34 -28 73 C-29.90360607 68.52539811 -30.23659679 64.68182404 -30.1953125 59.8515625 C-30.1924826 59.19417084 -30.18965271 58.53677917 -30.18673706 57.85946655 C-30.17563447 55.78111767 -30.15054986 53.70321634 -30.125 51.625 C-30.11495731 50.20703752 -30.10583373 48.78906821 -30.09765625 47.37109375 C-30.07572805 43.91391963 -30.04126818 40.45700358 -30 37 C-29.34 37 -28.68 37 -28 37 C-27.979375 35.824375 -27.95875 34.64875 -27.9375 33.4375 C-27.33660144 28.91073085 -25.58316533 26.56929244 -22.23828125 23.54296875 C-17.0455123 19.96331127 -11.28231772 18 -5 18 C-5.103125 16.88625 -5.20625 15.7725 -5.3125 14.625 C-5.3625998 9.03386248 -2.71971933 4.74008226 0 0 Z M1 3 C-2.73512552 10.70426512 -2.73512552 10.70426512 -2 19 C-2.99 18.67 -3.98 18.34 -5 18 C-5 18.99 -5 19.98 -5 21 C-6.7325 21.0928125 -6.7325 21.0928125 -8.5 21.1875 C-14.74241409 21.98440393 -19.19945289 24.95613571 -23.3125 29.625 C-28.89123407 40.78246814 -30.01631504 54.44599912 -26.875 66.5625 C-24.25238553 73.80239346 -19.31651656 79.66513569 -13 84 C-4.10816384 87.82909701 4.43763813 88.1392577 14 88 C13.93425781 88.71285156 13.86851562 89.42570312 13.80078125 90.16015625 C14.05060949 93.72143325 15.21893905 95.47836254 17.1875 98.4375 C17.82300781 99.3965625 18.45851563 100.355625 19.11328125 101.34375 C20.62645362 103.47409619 22.16264884 105.4690494 23.875 107.4375 C25.82143264 109.78466877 26.65635116 111.02171009 27 114 C26.01 114.495 26.01 114.495 25 115 C25.50355538 118.72630982 26.05209511 120.62566937 29 123 C32.62256185 124.15231967 36.37156514 124.70830297 39.921875 123.1640625 C41.75289228 121.9785955 41.75289228 121.9785955 44 120 C43.81535634 115.65815798 43.81535634 115.65815798 42 112 C40.72125 111.938125 39.4425 111.87625 38.125 111.8125 C35.9453125 111.5859375 35.9453125 111.5859375 34 111 C32 107.9375 32 107.9375 31 105 C30.34 105 29.68 105 29 105 C28.896875 104.05125 28.79375 103.1025 28.6875 102.125 C28.31460705 98.70892499 28.31460705 98.70892499 25 97 C23.8125 94.375 23.8125 94.375 23 92 C23.66 92 24.32 92 25 92 C25 92.99 25 93.98 25 95 C30.74174823 98.00758241 36.28357198 98.73607774 42.6953125 99.47265625 C45.78092216 99.96504077 48.12462829 100.84154366 51 102 C52.92903132 102.2759478 54.8689032 102.48449903 56.8125 102.625 C57.78832031 102.69976562 58.76414062 102.77453125 59.76953125 102.8515625 C60.87361328 102.92503906 60.87361328 102.92503906 62 103 C61.67 105.31 61.34 107.62 61 110 C63.6718072 112.23784238 63.6718072 112.23784238 65.9375 111.8125 C68.34555934 110.86387056 70.0710164 109.72230679 72 108 C72 107.34 72 106.68 72 106 C72.66 106 73.32 106 74 106 C74.47138774 101.19184502 74.70477383 98.04648236 71.9375 93.9375 C68.35587659 91.57515265 66.20965814 91.58728842 62 92 C62 92.99 62 93.98 62 95 C59.76980273 94.71632132 57.54086546 94.42272612 55.3125 94.125 C54.07113281 93.96257812 52.82976562 93.80015625 51.55078125 93.6328125 C48.40068066 93.07140843 45.85205309 92.42867224 43 91 C42.67 90.34 42.34 89.68 42 89 C42.928125 89.495 43.85625 89.99 44.8125 90.5 C49.73968438 92.659445 54.72281389 92.25765646 60 92 C60.33 91.34 60.66 90.68 61 90 C67.625 89.875 67.625 89.875 71 91 C73.75370229 91.09133385 76.48158822 91.12600326 79.23510742 91.11352539 C80.07435257 91.11367142 80.91359772 91.11381744 81.77827454 91.1139679 C84.55403217 91.11327087 87.32972282 91.10548829 90.10546875 91.09765625 C92.02932193 91.09579132 93.95317559 91.09436777 95.87702942 91.09336853 C100.94214182 91.08954924 106.00722558 91.07972394 111.07232666 91.06866455 C116.24027112 91.05843781 121.40822021 91.0538682 126.57617188 91.04882812 C136.71746051 91.03810117 146.85872787 91.02103177 157 91 C157 91.66 157 92.32 157 93 C156.27296875 92.95359375 155.5459375 92.9071875 154.796875 92.859375 C145.03207114 92.50884358 137.09738468 94.74314925 128.5 99.3125 C125 101 125 101 122.84375 100.66796875 C121 100 121 100 120 99 C117.32941149 98.85884839 114.67567762 98.95752893 112 99 C110.37405612 103.19322369 109.49248612 105.64871776 111.3125 109.875 C112.69344324 112.78884526 112.69344324 112.78884526 114 114 C116.83073436 114.50169415 116.83073436 114.50169415 120 114 C123.44391324 111.24486941 125.14785121 109.28823264 126 105 C126.8353125 104.83564453 126.8353125 104.83564453 127.6875 104.66796875 C132.31356805 103.70680934 136.57366783 102.46859568 140.95703125 100.71875 C143.18372234 99.93536346 145.37321757 99.45903123 147.6875 99 C151.28598057 98.2653621 153.96846854 97.15140942 157 95 C157.14308594 96.29357422 157.14308594 96.29357422 157.2890625 97.61328125 C158.07733987 101.36842673 159.40417088 103.90694268 161.375 107.1875 C162.28378906 108.72470703 162.28378906 108.72470703 163.2109375 110.29296875 C164.82027373 112.96534693 164.82027373 112.96534693 166.75390625 114.609375 C168 116 168 116 168.00390625 117.97265625 C167.78541016 119.00712891 167.78541016 119.00712891 167.5625 120.0625 C167.376875 121.361875 167.19125 122.66125 167 124 C169.68459392 126.68459392 171.19740198 126.32966548 174.9375 126.375 C175.99839844 126.40335937 177.05929687 126.43171875 178.15234375 126.4609375 C181.07321923 126.26277955 181.07321923 126.26277955 182.859375 124.234375 C184.70873535 120.61165541 184.32551043 118.03632936 184 114 C181.47519307 111.47519307 179.86176966 111.44261367 176.375 110.875 C175.37210938 110.70742188 174.36921875 110.53984375 173.3359375 110.3671875 C172.56507813 110.24601562 171.79421875 110.12484375 171 110 C170.01 106.04 170.01 106.04 169 102 C168.34 102 167.68 102 167 102 C167.020625 100.9275 167.04125 99.855 167.0625 98.75 C167.0142016 95.85209576 166.86844115 93.71387859 166 91 C166.99257813 90.91363281 167.98515625 90.82726562 169.0078125 90.73828125 C173.44037682 90.10203333 176.9599597 88.27941987 180.875 86.1875 C182.28563201 85.45543678 183.69708545 84.72495413 185.109375 83.99609375 C185.78033203 83.64788574 186.45128906 83.29967773 187.14257812 82.94091797 C189.4315983 81.78136437 191.76255757 80.75042205 194.125 79.75 C197.74725559 78.17873366 200.86460788 76.41184009 204 74 C204 73.34 204 72.68 204 72 C204.99 71.67 205.98 71.34 207 71 C212.57431227 65.20271524 212.48796911 57.3073845 212.390625 49.72265625 C211.74108518 43.53254177 209.93740921 35.88172372 205.3515625 31.3828125 C204 30 204 30 203.6875 26.0625 C203.79854819 22.87132564 204.35680697 20.77288823 206 18 C206 17.01 206 16.02 206 15 C203.12586875 14.66602213 203.12586875 14.66602213 200 15 C197.95959224 17.04040776 197 18.08325244 197 21 C196.01 20.2884375 196.01 20.2884375 195 19.5625 C187.6748709 15.7473286 178.3584712 16.84903129 170.3125 16.875 C169.10271484 16.87113281 167.89292969 16.86726563 166.64648438 16.86328125 C165.48052734 16.86457031 164.31457031 16.86585938 163.11328125 16.8671875 C161.53220581 16.86887939 161.53220581 16.86887939 159.91918945 16.87060547 C157.06095386 16.92103668 157.06095386 16.92103668 154.55078125 17.5 C151.35424802 18.12657925 148.33145294 18.12978272 145.07421875 18.1328125 C144.07634087 18.13424759 144.07634087 18.13424759 143.05830383 18.13571167 C141.64881292 18.13639035 140.23931884 18.13455784 138.82983398 18.13037109 C136.73218213 18.12511202 134.63475377 18.13027742 132.53710938 18.13671875 C124.44402642 18.14083503 116.43595435 17.80976426 108.35864258 17.25390625 C99.58632912 16.69891406 90.7861278 16.6219876 82 16.4375 C80.04947264 16.39417298 78.09895172 16.35055495 76.1484375 16.30664062 C71.43235897 16.20108235 66.71621162 16.09942664 62 16 C61.92543579 15.07006226 61.92543579 15.07006226 61.84936523 14.12133789 C61.73637085 12.90305298 61.73637085 12.90305298 61.62109375 11.66015625 C61.55075928 10.85457275 61.4804248 10.04898926 61.40795898 9.21899414 C61.12997341 6.77334921 61.12997341 6.77334921 59.0625 4.4375 C54.69828756 2.38899212 50.74109877 2.66858339 46 3 C43.36157824 7.70327357 42.80868862 10.33917966 42 16 C32.1 16 22.2 16 12 16 C11.505 13.525 11.505 13.525 11 11 C9.33074369 7.13036036 8.54809863 5.36539909 5 3 C3.68 3 2.36 3 1 3 Z " fill="#131313" transform="translate(398,155)"/>
<path d="M0 0 C4.37356702 0.5085543 7.50480992 1.26052669 11 4 C12.96457553 7.25171122 14 9.18692647 14 13 C22.58 13 31.16 13 40 13 C40.66 9.7 41.32 6.4 42 3 C42.66 2.01 43.32 1.02 44 0 C49.45473727 -0.99327538 55.34155698 -0.98016153 60.1875 1.9375 C62.91844323 4.3502008 63.40527679 6.09663011 63.67578125 9.69140625 C63.74321533 10.49908447 63.81064941 11.3067627 63.88012695 12.13891602 C63.91968506 12.75307373 63.95924316 13.36723145 64 14 C64.75804932 13.99476318 65.51609863 13.98952637 66.29711914 13.98413086 C91.72609359 13.8326652 91.72609359 13.8326652 104 14.5 C114.56212326 15.05800264 125.11348537 15.11382562 135.6875 15.125 C136.93213013 15.12874634 136.93213013 15.12874634 138.2019043 15.13256836 C140.57605174 15.13845837 142.95006987 15.13697169 145.32421875 15.1328125 C146.03986496 15.13479645 146.75551117 15.1367804 147.49284363 15.13882446 C150.84105665 15.12320612 153.77804891 14.87090058 157 14 C160.97584126 13.77286361 164.95579107 13.81018084 168.9375 13.8125 C170.62153931 13.8115332 170.62153931 13.8115332 172.33959961 13.81054688 C180.07432275 13.8598376 187.42882032 14.31417073 195 16 C195.38929688 15.34644531 195.77859375 14.69289062 196.1796875 14.01953125 C198 12 198 12 200.4453125 11.57421875 C201.32960938 11.61160156 202.21390625 11.64898437 203.125 11.6875 C204.01445313 11.71199219 204.90390625 11.73648438 205.8203125 11.76171875 C208 12 208 12 209 13 C208.64467586 16.62430619 208.129985 19.68153675 206.75 23.0625 C205.72918313 27.06069942 207.02924185 28.44646294 209 32 C209.52980469 32.86238281 210.05960938 33.72476563 210.60546875 34.61328125 C216.1233564 44.0277513 216.62715625 53.53982163 214.33203125 64.0625 C211.10937558 73.29421231 205.10131814 77.70997793 196.5625 81.9375 C194.44885641 82.95222826 192.32929193 83.95319808 190.20654297 84.94873047 C187.94339328 86.0269693 185.70658388 87.1476999 183.47265625 88.28515625 C182.74425537 88.65584229 182.01585449 89.02652832 181.26538086 89.40844727 C179.86049521 90.12491171 178.45633552 90.84280183 177.05297852 91.56225586 C172.22232655 94 172.22232655 94 170 94 C170.28482368 95.41805831 170.57818144 96.83440379 170.875 98.25 C171.03742188 99.03890625 171.19984375 99.8278125 171.3671875 100.640625 C172.02037156 103.07595322 172.56796699 104.91745357 174 107 C176.29814274 108.02195506 176.29814274 108.02195506 178.9375 108.5625 C182.47082764 109.40029934 184.83201896 109.9676605 187 113 C187.39078556 115.72507798 187.13616953 118.23121956 187 121 C186.01 121 185.02 121 184 121 C183.855625 119.865625 183.71125 118.73125 183.5625 117.5625 C183.38828522 114.19222799 183.38828522 114.19222799 182 113 C179.75117405 112.50722937 177.4925691 112.10127459 175.2265625 111.6953125 C172.67758191 110.89931505 171.61953688 110.10388435 170 108 C169.3125 104.8125 169.3125 104.8125 169 102 C168.34 102 167.68 102 167 102 C166.67 98.37 166.34 94.74 166 91 C166.99257813 90.74992187 167.98515625 90.49984375 169.0078125 90.2421875 C173.23904667 89.03174394 176.98479281 87.15469369 180.875 85.125 C182.2843548 84.40338051 183.69450651 83.6833152 185.10546875 82.96484375 C185.77626465 82.62308105 186.44706055 82.28131836 187.13818359 81.92919922 C189.45637255 80.77223263 191.80926159 79.71473911 194.1875 78.6875 C201.62354412 75.42014728 206.97079532 71.51959223 210.375 63.9375 C212.15605565 52.7168494 211.33434534 43.17282197 206 33 C205.45730469 32.46246094 204.91460938 31.92492187 204.35546875 31.37109375 C203 30 203 30 202.625 26.25 C202.76838019 21.9485943 204.08847665 18.8230467 206 15 C201.04485498 15.87472593 201.04485498 15.87472593 197.5625 19.125 C197.376875 19.74375 197.19125 20.3625 197 21 C193.125 20.125 193.125 20.125 192 19 C184.79485931 17.75380027 177.60698254 17.85145675 170.3125 17.875 C169.10271484 17.87113281 167.89292969 17.86726563 166.64648438 17.86328125 C165.48052734 17.86457031 164.31457031 17.86585938 163.11328125 17.8671875 C161.53220581 17.86887939 161.53220581 17.86887939 159.91918945 17.87060547 C157.06095386 17.92103668 157.06095386 17.92103668 154.55078125 18.5 C151.35424802 19.12657925 148.33145294 19.12978272 145.07421875 19.1328125 C144.07634087 19.13424759 144.07634087 19.13424759 143.05830383 19.13571167 C141.64881292 19.13639035 140.23931884 19.13455784 138.82983398 19.13037109 C136.73218213 19.12511202 134.63475377 19.13027742 132.53710938 19.13671875 C124.45420055 19.1408301 116.45701768 18.80906325 108.38989258 18.25390625 C99.44103586 17.69036158 90.46284848 17.62101144 81.5 17.4375 C79.50129563 17.39417689 77.50259763 17.35055894 75.50390625 17.30664062 C70.66933731 17.20103732 65.83470047 17.09939132 61 17 C60.97421875 16.31292969 60.9484375 15.62585938 60.921875 14.91796875 C60.86515625 14.01691406 60.8084375 13.11585938 60.75 12.1875 C60.70359375 11.29417969 60.6571875 10.40085938 60.609375 9.48046875 C60.20363596 6.87183872 60.20363596 6.87183872 58.11425781 5.1940918 C55.47900263 3.70575079 53.75481761 3.69388878 50.75 3.8125 C49.1825 3.874375 47.615 3.93625 46 4 C44.68 7.96 43.36 11.92 42 16 C32.1 16 22.2 16 12 16 C10.68 12.7 9.36 9.4 8 6 C4.45562879 3.78520009 4.45562879 3.78520009 1 3 C0.49411853 4.91512272 -0.00448391 6.83216922 -0.5 8.75 C-0.7784375 9.81734375 -1.056875 10.8846875 -1.34375 11.984375 C-2.14175989 15.13705302 -2.14175989 15.13705302 -2 19 C-2.99 18.67 -3.98 18.34 -5 18 C-5.67090715 10.75420281 -3.58125682 6.24161903 0 0 Z " fill="#1A1A1A" transform="translate(398,155)"/>
<path d="M0 0 C0.20753906 0.60585937 0.41507813 1.21171875 0.62890625 1.8359375 C2.83995482 7.84924951 5.63428295 12.67548123 9.51171875 17.7734375 C11.64336299 20.96251156 12.20100285 22.91960966 11.5 26.6875 C11.335 27.450625 11.17 28.21375 11 29 C12.79309961 30.79309961 15.32375978 30.29807043 17.75 30.375 C22.03289289 30.42706631 22.03289289 30.42706631 25.90625 28.8828125 C27.42016161 27.39851547 27.42016161 27.39851547 29 25 C28.51339051 30.47435673 28.51339051 30.47435673 26.36328125 32.67578125 C23.25805221 34.41573603 20.98087863 34.39918688 17.4375 34.375 C16.30183594 34.38273437 15.16617188 34.39046875 13.99609375 34.3984375 C11 34 11 34 9.09375 32.7890625 C7.24405707 29.76349335 7.99512181 26.79435337 8.28515625 23.375 C8.25839849 20.82417737 8.25839849 20.82417737 5.99609375 19.375 C5.33738281 18.92125 4.67867187 18.4675 4 18 C4 17.01 4 16.02 4 15 C3.34 15 2.68 15 2 15 C0.68 12.03 -0.64 9.06 -2 6 C-3.32 6 -4.64 6 -6 6 C-5.6875 4.125 -5.6875 4.125 -5 2 C-2 0 -2 0 0 0 Z " fill="#0E0E0E" transform="translate(555,250)"/>
<path d="M0 0 C0 0.99 0 1.98 0 3 C-1.22976563 3.19916016 -1.22976563 3.19916016 -2.484375 3.40234375 C-4.10085938 3.66724609 -4.10085938 3.66724609 -5.75 3.9375 C-7.35101563 4.19853516 -7.35101563 4.19853516 -8.984375 4.46484375 C-11.36347593 4.88704171 -13.66915211 5.37202884 -16 6 C-16.05416188 7.60379341 -16.09286638 9.20811406 -16.125 10.8125 C-16.15980469 12.15248047 -16.15980469 12.15248047 -16.1953125 13.51953125 C-16.18285827 16.25402714 -16.18285827 16.25402714 -14 19 C-11.23434618 19.92188461 -9.61716298 20.11785222 -6.76953125 20.09765625 C-5.96708984 20.09443359 -5.16464844 20.09121094 -4.33789062 20.08789062 C-3.50451172 20.07951172 -2.67113281 20.07113281 -1.8125 20.0625 C-0.5450293 20.05573242 -0.5450293 20.05573242 0.74804688 20.04882812 C2.83206155 20.03705403 4.91603977 20.0191189 7 20 C7 20.99 7 21.98 7 23 C-0.88641827 25.27952416 -9.64558541 24.72317239 -17 21 C-19.12224054 19.36640175 -19.89993448 18.57456975 -20.36328125 15.9140625 C-20.17231053 7.30568993 -20.17231053 7.30568993 -18 4 C-12.21537468 -0.55385398 -7.1785353 -0.46731875 0 0 Z " fill="#0A0A0A" transform="translate(411,192)"/>
<path d="M0 0 C-2.45261715 2.9689576 -4.23933971 3.45235304 -8 4 C-12.51692351 4.19514736 -17.03413235 4.18580907 -21.5546875 4.18530273 C-23.72936877 4.18747935 -25.90353395 4.20563346 -28.078125 4.22460938 C-35.29997724 4.25289258 -41.99853868 3.98584049 -49 2 C-48.67 1.34 -48.34 0.68 -48 0 C-46.77893555 0.00523682 -45.55787109 0.01047363 -44.29980469 0.01586914 C-39.76742283 0.03397584 -35.23504416 0.04545279 -30.70263672 0.05493164 C-28.74136823 0.05995887 -26.78010348 0.06678157 -24.81884766 0.07543945 C-21.99901403 0.08757545 -19.17922998 0.09324444 -16.359375 0.09765625 C-15.48319519 0.10281754 -14.60701538 0.10797882 -13.70428467 0.11329651 C-12.88373596 0.11337204 -12.06318726 0.11344757 -11.21777344 0.11352539 C-10.49829529 0.115746 -9.77881714 0.11796661 -9.03753662 0.12025452 C-6.96987599 0.06886515 -6.96987599 0.06886515 -4.92388916 -0.56959534 C-3 -1 -3 -1 0 0 Z " fill="#101010" transform="translate(558,170)"/>
<path d="M0 0 C-2.5109982 3.06615086 -4.81454971 3.70096408 -8.625 4.5625 C-9.68460938 4.80742187 -10.74421875 5.05234375 -11.8359375 5.3046875 C-13.40214844 5.64886719 -13.40214844 5.64886719 -15 6 C-15.92039062 6.20882813 -16.84078125 6.41765625 -17.7890625 6.6328125 C-19.85706031 7.09893264 -21.92819413 7.55110873 -24 8 C-24.061875 8.7425 -24.12375 9.485 -24.1875 10.25 C-25.24185138 13.8185739 -26.99909773 14.92245228 -30 17 C-30.33 16.34 -30.66 15.68 -31 15 C-30.04060332 13.30963442 -29.03357147 11.64605826 -28 10 C-27.79375 9.113125 -27.5875 8.22625 -27.375 7.3125 C-26 5 -26 5 -24.15625 4.34765625 C-22.59057579 4.02326142 -21.01809676 3.73057811 -19.44140625 3.46484375 C-17.07150051 3.0136137 -15.04541108 2.3366877 -12.8125 1.4375 C-8.37012774 -0.30582138 -4.65654245 -1.55218082 0 0 Z " fill="#171717" transform="translate(550,254)"/>
<path d="M0 0 C3.95831809 -0.02892857 7.91660917 -0.04677427 11.875 -0.0625 C13.56689453 -0.07506836 13.56689453 -0.07506836 15.29296875 -0.08789062 C16.36933594 -0.09111328 17.44570313 -0.09433594 18.5546875 -0.09765625 C19.54968262 -0.10289307 20.54467773 -0.10812988 21.56982422 -0.11352539 C24 0 24 0 26 1 C26 1.66 26 2.32 26 3 C24.91460938 3.13277344 23.82921875 3.26554688 22.7109375 3.40234375 C21.26561678 3.58066254 19.82030474 3.75905169 18.375 3.9375 C17.66214844 4.02451172 16.94929687 4.11152344 16.21484375 4.20117188 C12.12408039 4.70782605 8.06157365 5.2889043 4 6 C4.66 5.01 5.32 4.02 6 3 C3.69 2.67 1.38 2.34 -1 2 C-0.67 1.34 -0.34 0.68 0 0 Z " fill="#0C0C0C" transform="translate(529,245)"/>
<path d="M0 0 C-1.84136386 3.68272773 -6.26452895 4.70812421 -10 6 C-15.82630589 6.63559701 -21.33239658 5.2772064 -27 4 C-26.015625 2.54296875 -26.015625 2.54296875 -24 1 C-21.18686612 0.61771728 -18.57177583 0.3969121 -15.75 0.3125 C-15.01136719 0.27833984 -14.27273438 0.24417969 -13.51171875 0.20898438 C-9.00584992 0.01428634 -4.50952881 -0.02982493 0 0 Z " fill="#D6D6D6" transform="translate(536,247)"/>
<path d="M0 0 C0 0.99 0 1.98 0 3 C-1.22976563 3.19916016 -1.22976563 3.19916016 -2.484375 3.40234375 C-4.10085938 3.66724609 -4.10085938 3.66724609 -5.75 3.9375 C-7.35101563 4.19853516 -7.35101563 4.19853516 -8.984375 4.46484375 C-11.36347593 4.88704171 -13.66915211 5.37202884 -16 6 C-16.33 7.32 -16.66 8.64 -17 10 C-17.33 10 -17.66 10 -18 10 C-18.33 12.64 -18.66 15.28 -19 18 C-19.33 18 -19.66 18 -20 18 C-20.40547064 7.66049879 -20.40547064 7.66049879 -18 4 C-12.21537468 -0.55385398 -7.1785353 -0.46731875 0 0 Z " fill="#1D1D1D" transform="translate(411,192)"/>
<path d="M0 0 C3.02089478 -0.02716089 6.04154129 -0.04691657 9.0625 -0.0625 C9.91005859 -0.07087891 10.75761719 -0.07925781 11.63085938 -0.08789062 C16.5361722 -0.10683006 21.16444755 0.16673655 26 1 C26 1.99 26 2.98 26 4 C13.13 3.505 13.13 3.505 0 3 C0 2.01 0 1.02 0 0 Z " fill="#1A1A1A" transform="translate(396,228)"/>
<path d="M0 0 C0.66 0 1.32 0 2 0 C2 1.65 2 3.3 2 5 C2.66 5 3.32 5 4 5 C4.33 3.68 4.66 2.36 5 1 C5.99 1 6.98 1 8 1 C7.25 6.75 7.25 6.75 5 9 C2.375 8.625 2.375 8.625 0 8 C0 5.36 0 2.72 0 0 Z " fill="#1B1B1B" transform="translate(503,216)"/>
<path d="M0 0 C0.66 0 1.32 0 2 0 C2 0.99 2 1.98 2 3 C2.99 3.33 3.98 3.66 5 4 C5.33 2.68 5.66 1.36 6 0 C6.66 0 7.32 0 8 0 C7.125 5.875 7.125 5.875 6 7 C3 7.125 3 7.125 0 7 C-1 6 -1 6 -1.125 3.5 C-1 1 -1 1 0 0 Z " fill="#090909" transform="translate(571,223)"/>
<path d="M0 0 C-2.45091043 2.68433048 -4.28241384 3.91789741 -8.04296875 4.09765625 C-8.75066406 4.08605469 -9.45835937 4.07445312 -10.1875 4.0625 C-12.0746875 4.0315625 -12.0746875 4.0315625 -14 4 C-13.67 3.01 -13.34 2.02 -13 1 C-11.39796533 0.63631108 -9.79325797 0.28438048 -8.1875 -0.0625 C-7.29417969 -0.25972656 -6.40085937 -0.45695313 -5.48046875 -0.66015625 C-3 -1 -3 -1 0 0 Z " fill="#222222" transform="translate(550,254)"/>
<path d="M0 0 C0.99 0 1.98 0 3 0 C3.33 0.99 3.66 1.98 4 3 C4.33 2.34 4.66 1.68 5 1 C5.99 1 6.98 1 8 1 C7.49396008 3.16874252 7.00016187 4.99967627 6 7 C3.03 6.505 3.03 6.505 0 6 C0 4.02 0 2.04 0 0 Z " fill="#272727" transform="translate(592,189)"/>
<path d="M0 0 C1.06489861 3.19469583 0.96436169 3.86645463 0.0625 6.9375 C-0.80459932 9.91779501 -1 11.7655389 -1 15 C-1.99 14.67 -2.98 14.34 -4 14 C-4.29787234 5.21276596 -4.29787234 5.21276596 -2 1 C-1.34 0.67 -0.68 0.34 0 0 Z " fill="#0E0E0E" transform="translate(397,159)"/>
<path d="M0 0 C0.66 0 1.32 0 2 0 C1.25 4.75 1.25 4.75 -1 7 C-3.5625 7.1875 -3.5625 7.1875 -6 7 C-7 6 -7 6 -7.0625 3.4375 C-7.041875 2.633125 -7.02125 1.82875 -7 1 C-6.34 1 -5.68 1 -5 1 C-5 1.99 -5 2.98 -5 4 C-1.72226496 3.24849977 -1.72226496 3.24849977 0 0 Z " fill="#0E0E0E" transform="translate(493,179)"/>
<path d="M0 0 C0.99 0.33 1.98 0.66 3 1 C2.01 2.485 2.01 2.485 1 4 C0.34 4 -0.32 4 -1 4 C-1.33 5.32 -1.66 6.64 -2 8 C-2.33 8 -2.66 8 -3 8 C-3.33 10.64 -3.66 13.28 -4 16 C-4.33 16 -4.66 16 -5 16 C-5.38647343 6.14492754 -5.38647343 6.14492754 -3 2 C-2.01 1.34 -1.02 0.68 0 0 Z " fill="#3B3B3B" transform="translate(396,194)"/>
<path d="M0 0 C0.66 0.33 1.32 0.66 2 1 C-0.98418329 4.32851213 -3.84562769 6.3205729 -8 8 C-8.99 7.67 -9.98 7.34 -11 7 C-7.54143152 4.05004453 -4.19978515 1.77324262 0 0 Z " fill="#0F0F0F" transform="translate(586,237)"/>
<path d="M0 0 C0.53109375 0.13277344 1.0621875 0.26554688 1.609375 0.40234375 C2.79273438 0.69818359 2.79273438 0.69818359 4 1 C6.08333333 1.52083333 8.16666667 2.04166667 10.25 2.5625 C11.86648438 2.96662109 11.86648438 2.96662109 13.515625 3.37890625 C14.33546875 3.58386719 15.1553125 3.78882813 16 4 C16 4.33 16 4.66 16 5 C4.89635502 5.38808856 4.89635502 5.38808856 1 3 C0.67 2.01 0.34 1.02 0 0 Z " fill="#060606" transform="translate(440,244)"/>
<path d="M0 0 C0.66 0 1.32 0 2 0 C2 0.99 2 1.98 2 3 C2.66 3 3.32 3 4 3 C4 2.01 4 1.02 4 0 C4.66 0 5.32 0 6 0 C5.67 2.31 5.34 4.62 5 7 C3.35 6.67 1.7 6.34 0 6 C0 4.02 0 2.04 0 0 Z " fill="#121212" transform="translate(420,237)"/>
<path d="M0 0 C1.98 0.66 3.96 1.32 6 2 C6 2.33 6 2.66 6 3 C4.35 3 2.7 3 1 3 C1 3.99 1 4.98 1 6 C-1.97 6 -4.94 6 -8 6 C-7.67 5.01 -7.34 4.02 -7 3 C-5.02 3 -3.04 3 -1 3 C-0.67 2.01 -0.34 1.02 0 0 Z " fill="#2B2B2B" transform="translate(459,244)"/>
<path d="M0 0 C0.33 0.99 0.66 1.98 1 3 C-1.31 5.31 -3.62 7.62 -6 10 C-6.99 9.67 -7.98 9.34 -9 9 C-6.03 6.03 -3.06 3.06 0 0 Z " fill="#161616" transform="translate(608,223)"/>
<path d="M0 0 C0.66 0.33 1.32 0.66 2 1 C-0.19471406 5.51135667 -2.41173718 7.06273348 -7 9 C-5.44499019 5.18315774 -2.96404505 2.80804268 0 0 Z " fill="#2A2A2A" transform="translate(378,177)"/>
<path d="M0 0 C0 0.66 0 1.32 0 2 C-4.455 3.485 -4.455 3.485 -9 5 C-7 1 -7 1 -4.5 -0.3125 C-2 -1 -2 -1 0 0 Z " fill="#111111" transform="translate(537,257)"/>
<path d="M0 0 C-1.97420135 2.52259061 -2.96745642 2.9929808 -6.1875 3.6875 C-7.5796875 3.8421875 -7.5796875 3.8421875 -9 4 C-8.25 2.0625 -8.25 2.0625 -7 0 C-4.04680182 -1.23843794 -3.12561472 -1.04187157 0 0 Z " fill="#0D0D0D" transform="translate(558,170)"/>
<path d="M0 0 C1.65 0 3.3 0 5 0 C4.67 1.32 4.34 2.64 4 4 C2.68 4 1.36 4 0 4 C0 2.68 0 1.36 0 0 Z " fill="#0A0A0A" transform="translate(387,189)"/>
<path d="M0 0 C0.66 0.33 1.32 0.66 2 1 C1.25 2.9375 1.25 2.9375 0 5 C-2.125 5.75 -2.125 5.75 -4 6 C-4 4.68 -4 3.36 -4 2 C-2.125 0.9375 -2.125 0.9375 0 0 Z " fill="#303030" transform="translate(591,234)"/>
<path d="M0 0 C0 1.32 0 2.64 0 4 C-1.65 3.67 -3.3 3.34 -5 3 C-5 2.34 -5 1.68 -5 1 C-3 0 -3 0 0 0 Z " fill="#121212" transform="translate(436,188)"/>
</svg>
