<?xml version="1.0" encoding="UTF-8"?>
<svg version="1.1" xmlns="http://www.w3.org/2000/svg" width="800" height="300">
<path d="M0 0 C264 0 528 0 800 0 C800 99 800 198 800 300 C536 300 272 300 0 300 C0 201 0 102 0 0 Z " fill="#FEFEFE" transform="translate(0,0)"/>
<path d="M0 0 C4.60318234 0 6.47731945 0.51140732 9.875 3.6875 C12 7 12 7 13 13 C21.58 13 30.16 13 39 13 C39.66 10.03 40.32 7.06 41 4 C42.29296875 1.46875 42.29296875 1.46875 44 0 C49.19462324 -1.10905614 53.82832598 -0.57555917 58.5625 1.75 C62.13043478 5.04347826 62.13043478 5.04347826 63 8 C63.02493572 9.99984455 63.02724543 12.00018559 63 14 C63.7935791 13.99476318 64.5871582 13.98952637 65.40478516 13.98413086 C91.99948502 13.83256678 91.99948502 13.83256678 103.625 14.5 C113.79072997 15.06840001 123.94645459 15.11395737 134.125 15.125 C134.93269836 15.12749756 135.74039673 15.12999512 136.5725708 15.13256836 C138.88436178 15.13846052 141.19602003 15.1369704 143.5078125 15.1328125 C144.55322205 15.13578842 144.55322205 15.13578842 145.61975098 15.13882446 C148.9296919 15.12298522 151.81275681 14.83749988 155 14 C156.97751674 13.90786886 158.95783942 13.86932867 160.9375 13.8671875 C162.07960938 13.86589844 163.22171875 13.86460937 164.3984375 13.86328125 C165.58695313 13.86714844 166.77546875 13.87101563 168 13.875 C169.78277344 13.86919922 169.78277344 13.86919922 171.6015625 13.86328125 C173.31472656 13.86521484 173.31472656 13.86521484 175.0625 13.8671875 C176.10535156 13.86831543 177.14820313 13.86944336 178.22265625 13.87060547 C180.66685513 13.98447901 182.66136445 14.33858713 185 15 C186.68388417 15.13832856 188.37322032 15.2194248 190.0625 15.25 C190.91972656 15.27578125 191.77695312 15.3015625 192.66015625 15.328125 C195.51333245 14.92801348 196.03334774 13.99259754 198 12 C200.2265625 11.671875 200.2265625 11.671875 202.625 11.75 C203.42164063 11.76546875 204.21828125 11.7809375 205.0390625 11.796875 C207 12 207 12 208 13 C207.55474003 16.63628974 206.95975399 20.19382157 206.21484375 23.78125 C205.61802251 28.64164101 207.44751794 31.40546195 209.9375 35.4375 C215.17506376 44.85930022 215.65213452 53.55106978 213.32421875 64.046875 C210.14414644 73.29290022 204.09088043 77.71514558 195.5625 81.9375 C193.44885641 82.95222826 191.32929193 83.95319808 189.20654297 84.94873047 C186.94339328 86.0269693 184.70658388 87.1476999 182.47265625 88.28515625 C181.74425537 88.65584229 181.01585449 89.02652832 180.26538086 89.40844727 C178.86049521 90.12491171 177.45633552 90.84280183 176.05297852 91.56225586 C171.22232655 94 171.22232655 94 169 94 C170.19333846 101.58993615 170.19333846 101.58993615 174 108 C176.01325322 108.2876076 178.03039646 108.5693432 180.05859375 108.71875 C182 109 182 109 184.5 110.5625 C186.62205027 114.01083169 186.62781268 117.11354057 186 121 C184.43564712 125.0226217 183.61276337 126.59149109 180 129 C177.22265625 129.3359375 177.22265625 129.3359375 174.0625 129.375 C173.02222656 129.40335938 171.98195313 129.43171875 170.91015625 129.4609375 C168 129 168 129 165.61328125 127.2421875 C163.74710134 124.64851373 163.69167955 123.83879705 164.125 120.75 C164.41880065 114.98771629 161.60232566 112.18896394 158 108 C155 103.5 155 103.5 155 100 C154.38253906 100.19335938 153.76507812 100.38671875 153.12890625 100.5859375 C147.45800253 102.32950303 141.80354736 103.78085203 136 105 C134.31207728 105.37309267 132.6245647 105.74804648 130.9375 106.125 C129.625 106.41666667 128.3125 106.70833333 127 107 C126.95875 107.721875 126.9175 108.44375 126.875 109.1875 C125.67456278 113.04604822 123.45742554 115.09725574 120 117 C116.4375 117.6875 116.4375 117.6875 113 117 C108.87101904 113.40958177 107.30457003 110.40860769 106.91796875 104.96484375 C107.05142432 101.76826507 107.66944673 98.33055327 110 96 C111.47648876 95.90176004 112.95775417 95.87026481 114.4375 95.875 C115.64212891 95.87113281 115.64212891 95.87113281 116.87109375 95.8671875 C119 96 119 96 121 97 C127.34308621 97.7735471 129.39202494 95.93687781 136 93 C116.2 93.66 96.4 94.32 76 95 C76 97.97 76 100.94 76 104 C75.05965682 108.49275076 72.41642494 111.06635831 68.9453125 113.8984375 C67 115 67 115 63.1875 115 C60 114 60 114 58 112 C57.875 108.375 57.875 108.375 58 105 C56.72125 104.896875 55.4425 104.79375 54.125 104.6875 C49.69602903 104.20850471 45.73561036 103.05768044 41.5078125 101.69921875 C37.69070116 100.63494627 33.94423559 100.31808352 30 100 C30.66 100.94875 31.32 101.8975 32 102.875 C34 106 34 106 34 108 C35.258125 108.103125 36.51625 108.20625 37.8125 108.3125 C40.33231669 108.51904235 41.66199559 108.74939719 43.70703125 110.265625 C45.28130077 112.37733397 45.58481583 113.83023917 45.875 116.4375 C45.97554688 117.19933594 46.07609375 117.96117187 46.1796875 118.74609375 C45.94204234 121.72699068 45.10543046 122.89912675 43 125 C38.38737996 126.85472484 33.99912259 127.1611488 29.125 126.375 C23.86666667 124.06133333 23.86666667 124.06133333 22 121 C22.00565453 119.26971342 22.07656445 117.53923591 22.1875 115.8125 C22.43047839 109.92615249 20.64084741 107.38631239 16.82421875 103.07421875 C14.1640849 100.04952694 11 96.1544285 11 92 C10.41621582 91.94054199 9.83243164 91.88108398 9.23095703 91.81982422 C-14.66151063 89.25840074 -14.66151063 89.25840074 -22.875 80 C-23.57625 79.01 -24.2775 78.02 -25 77 C-25.721875 76.071875 -26.44375 75.14375 -27.1875 74.1875 C-32.90820468 64.12695039 -32.6117659 49.07607733 -30.27734375 37.98828125 C-28.59663759 32.02075372 -26.94893226 27.80687097 -22 24 C-21.319375 23.195625 -21.319375 23.195625 -20.625 22.375 C-16.29456681 18.7107873 -11.54592144 17.59420087 -6 18 C-6.12375 16.5459375 -6.12375 16.5459375 -6.25 15.0625 C-6.26974681 10.22453098 -4.32570983 6.16760411 -2 2 C-1.34 1.34 -0.68 0.68 0 0 Z " fill="#FCFCFC" transform="translate(391,155)"/>
<path d="M0 0 C4.60318234 0 6.47731945 0.51140732 9.875 3.6875 C12 7 12 7 13 13 C21.58 13 30.16 13 39 13 C39.66 10.03 40.32 7.06 41 4 C42.29296875 1.46875 42.29296875 1.46875 44 0 C49.19462324 -1.10905614 53.82832598 -0.57555917 58.5625 1.75 C62.13043478 5.04347826 62.13043478 5.04347826 63 8 C63.02493572 9.99984455 63.02724543 12.00018559 63 14 C63.7935791 13.99476318 64.5871582 13.98952637 65.40478516 13.98413086 C91.99948502 13.83256678 91.99948502 13.83256678 103.625 14.5 C113.79072997 15.06840001 123.94645459 15.11395737 134.125 15.125 C134.93269836 15.12749756 135.74039673 15.12999512 136.5725708 15.13256836 C138.88436178 15.13846052 141.19602003 15.1369704 143.5078125 15.1328125 C144.55322205 15.13578842 144.55322205 15.13578842 145.61975098 15.13882446 C148.9296919 15.12298522 151.81275681 14.83749988 155 14 C156.97751674 13.90786886 158.95783942 13.86932867 160.9375 13.8671875 C162.07960938 13.86589844 163.22171875 13.86460937 164.3984375 13.86328125 C165.58695313 13.86714844 166.77546875 13.87101563 168 13.875 C169.78277344 13.86919922 169.78277344 13.86919922 171.6015625 13.86328125 C173.31472656 13.86521484 173.31472656 13.86521484 175.0625 13.8671875 C176.10535156 13.86831543 177.14820313 13.86944336 178.22265625 13.87060547 C180.66685513 13.98447901 182.66136445 14.33858713 185 15 C186.68388417 15.13832856 188.37322032 15.2194248 190.0625 15.25 C190.91972656 15.27578125 191.77695312 15.3015625 192.66015625 15.328125 C195.51333245 14.92801348 196.03334774 13.99259754 198 12 C200.2265625 11.671875 200.2265625 11.671875 202.625 11.75 C203.42164063 11.76546875 204.21828125 11.7809375 205.0390625 11.796875 C207 12 207 12 208 13 C207.55474003 16.63628974 206.95975399 20.19382157 206.21484375 23.78125 C205.61802251 28.64164101 207.44751794 31.40546195 209.9375 35.4375 C215.17506376 44.85930022 215.65213452 53.55106978 213.32421875 64.046875 C210.14414644 73.29290022 204.09088043 77.71514558 195.5625 81.9375 C193.44885641 82.95222826 191.32929193 83.95319808 189.20654297 84.94873047 C186.94339328 86.0269693 184.70658388 87.1476999 182.47265625 88.28515625 C181.74425537 88.65584229 181.01585449 89.02652832 180.26538086 89.40844727 C178.86049521 90.12491171 177.45633552 90.84280183 176.05297852 91.56225586 C171.22232655 94 171.22232655 94 169 94 C170.19333846 101.58993615 170.19333846 101.58993615 174 108 C176.01325322 108.2876076 178.03039646 108.5693432 180.05859375 108.71875 C182 109 182 109 184.5 110.5625 C186.62205027 114.01083169 186.62781268 117.11354057 186 121 C184.43564712 125.0226217 183.61276337 126.59149109 180 129 C177.22265625 129.3359375 177.22265625 129.3359375 174.0625 129.375 C173.02222656 129.40335938 171.98195313 129.43171875 170.91015625 129.4609375 C168 129 168 129 165.61328125 127.2421875 C163.74710134 124.64851373 163.69167955 123.83879705 164.125 120.75 C164.41880065 114.98771629 161.60232566 112.18896394 158 108 C155 103.5 155 103.5 155 100 C154.38253906 100.19335938 153.76507812 100.38671875 153.12890625 100.5859375 C147.45800253 102.32950303 141.80354736 103.78085203 136 105 C134.31207728 105.37309267 132.6245647 105.74804648 130.9375 106.125 C129.625 106.41666667 128.3125 106.70833333 127 107 C126.95875 107.721875 126.9175 108.44375 126.875 109.1875 C125.67456278 113.04604822 123.45742554 115.09725574 120 117 C116.4375 117.6875 116.4375 117.6875 113 117 C108.87101904 113.40958177 107.30457003 110.40860769 106.91796875 104.96484375 C107.05142432 101.76826507 107.66944673 98.33055327 110 96 C111.47648876 95.90176004 112.95775417 95.87026481 114.4375 95.875 C115.64212891 95.87113281 115.64212891 95.87113281 116.87109375 95.8671875 C119 96 119 96 121 97 C127.34308621 97.7735471 129.39202494 95.93687781 136 93 C116.2 93.66 96.4 94.32 76 95 C76 97.97 76 100.94 76 104 C75.05965682 108.49275076 72.41642494 111.06635831 68.9453125 113.8984375 C67 115 67 115 63.1875 115 C60 114 60 114 58 112 C57.875 108.375 57.875 108.375 58 105 C56.72125 104.896875 55.4425 104.79375 54.125 104.6875 C49.69602903 104.20850471 45.73561036 103.05768044 41.5078125 101.69921875 C37.69070116 100.63494627 33.94423559 100.31808352 30 100 C30.66 100.94875 31.32 101.8975 32 102.875 C34 106 34 106 34 108 C35.258125 108.103125 36.51625 108.20625 37.8125 108.3125 C40.33231669 108.51904235 41.66199559 108.74939719 43.70703125 110.265625 C45.28130077 112.37733397 45.58481583 113.83023917 45.875 116.4375 C45.97554688 117.19933594 46.07609375 117.96117187 46.1796875 118.74609375 C45.94204234 121.72699068 45.10543046 122.89912675 43 125 C38.38737996 126.85472484 33.99912259 127.1611488 29.125 126.375 C23.86666667 124.06133333 23.86666667 124.06133333 22 121 C22.00565453 119.26971342 22.07656445 117.53923591 22.1875 115.8125 C22.43047839 109.92615249 20.64084741 107.38631239 16.82421875 103.07421875 C14.1640849 100.04952694 11 96.1544285 11 92 C10.41621582 91.94054199 9.83243164 91.88108398 9.23095703 91.81982422 C-14.66151063 89.25840074 -14.66151063 89.25840074 -22.875 80 C-23.57625 79.01 -24.2775 78.02 -25 77 C-25.721875 76.071875 -26.44375 75.14375 -27.1875 74.1875 C-32.90820468 64.12695039 -32.6117659 49.07607733 -30.27734375 37.98828125 C-28.59663759 32.02075372 -26.94893226 27.80687097 -22 24 C-21.319375 23.195625 -21.319375 23.195625 -20.625 22.375 C-16.29456681 18.7107873 -11.54592144 17.59420087 -6 18 C-6 18.99 -6 19.98 -6 21 C-6.65226562 21.17015625 -7.30453125 21.3403125 -7.9765625 21.515625 C-16.70438755 23.79760769 -16.70438755 23.79760769 -23.1796875 29.75390625 C-27.03176636 36.93789273 -28.37706129 44.31129494 -28.3125 52.375 C-28.30686035 53.11741943 -28.3012207 53.85983887 -28.29541016 54.62475586 C-28.08212185 64.30614458 -25.7587612 71.84463668 -19 79 C-14.45453498 82.71386227 -10.37692611 85.2574556 -4.48046875 85.94921875 C-3.45888672 86.07490234 -2.43730469 86.20058594 -1.38476562 86.33007812 C0.19788086 86.50700195 0.19788086 86.50700195 1.8125 86.6875 C3.42415039 86.88182617 3.42415039 86.88182617 5.06835938 87.08007812 C7.711182 87.39721684 10.35479857 87.70347556 13 88 C13.26039063 88.87527344 13.52078125 89.75054687 13.7890625 90.65234375 C14.99529963 93.98700574 16.44393956 96.59844872 18.375 99.5625 C18.96023438 100.47128906 19.54546875 101.38007813 20.1484375 102.31640625 C21.98785408 105.05208719 21.98785408 105.05208719 24.171875 107.703125 C25.93614149 109.91976751 26.80597412 111.18662473 27 114 C26.34 114.66 25.68 115.32 25 116 C25.36681658 118.93453261 25.86437246 119.86437246 28 122 C32.08084268 122.99415421 35.90572635 123.25077104 40 122.3125 C42.09584162 121.15980177 42.09584162 121.15980177 43 119.1875 C43 115.90308864 42.17393737 114.44567955 40 112 C36.37400578 111.58274322 36.37400578 111.58274322 33 112 C32.5875 111.154375 32.175 110.30875 31.75 109.4375 C28.43607584 102.35185554 28.43607584 102.35185554 23 97 C22.8125 94.375 22.8125 94.375 23 92 C23.33 92.99 23.66 93.98 24 95 C24.969375 95.144375 25.93875 95.28875 26.9375 95.4375 C30 96 30 96 31 97 C34.19280616 97.54355355 37.39639601 97.96590986 40.60546875 98.40234375 C43.90424831 98.98314153 46.83624894 99.92020714 50 101 C51.95076535 101.41256395 53.90952599 101.78943127 55.875 102.125 C56.84179688 102.29257812 57.80859375 102.46015625 58.8046875 102.6328125 C59.89136719 102.81457031 59.89136719 102.81457031 61 103 C61 105.31 61 107.62 61 110 C65.92290686 110.39739246 65.92290686 110.39739246 70.375 108.5625 C72.72161501 104.86206863 73.45787059 101.36985267 73 97 C70.29077413 93.61346767 68.43248137 93.0850783 64.1875 92.25 C63.135625 92.1675 62.08375 92.085 61 92 C61 92.99 61 93.98 61 95 C54.34656702 95.32194031 48.10348744 94.94275287 42 92 C41.67 91.01 41.34 90.02 41 89 C43.38564077 89.57584432 45.66682784 90.22227595 48 91 C49.89212737 91.22179785 51.78884472 91.40614015 53.6875 91.5625 C55.17830078 91.68818359 55.17830078 91.68818359 56.69921875 91.81640625 C57.45847656 91.87699219 58.21773438 91.93757813 59 92 C59.495 90.515 59.495 90.515 60 89 C61.47906892 88.97310784 62.95827483 88.95365379 64.4375 88.9375 C65.26121094 88.92589844 66.08492188 88.91429687 66.93359375 88.90234375 C69 89 69 89 70 90 C72.64738089 90.09511266 75.26859001 90.12555635 77.91625977 90.11352539 C78.74545929 90.11367142 79.57465881 90.11381744 80.4289856 90.1139679 C83.18315198 90.11326851 85.93725161 90.10547493 88.69140625 90.09765625 C90.59569766 90.09579216 92.49998955 90.09436822 94.40428162 90.09336853 C99.42667963 90.08954263 104.44904892 90.07971173 109.47143555 90.06866455 C114.5922812 90.05845198 119.71313148 90.05387124 124.83398438 90.04882812 C134.88933557 90.03808953 144.9446654 90.02101224 155 90 C155.33 90.99 155.66 91.98 156 93 C155.030625 93.06316406 154.06125 93.12632812 153.0625 93.19140625 C144.29338809 93.93614084 137.12529098 95.74346215 129.23046875 99.69946289 C124.46925826 102.04523895 124.46925826 102.04523895 121.609375 101.76953125 C120 101 120 101 119 100 C116.32941149 99.85884839 113.67567762 99.95752893 111 100 C109.8899384 104.66225873 110.0546671 107.5974045 112 112 C114.7459726 113.3729863 116.9589047 113.12412634 120 113 C120.99 112.67 121.98 112.34 123 112 C123.33 109.69 123.66 107.38 124 105 C124.87011719 104.71125 125.74023438 104.4225 126.63671875 104.125 C128.72586629 103.42619107 130.81236543 102.71934474 132.89453125 102 C138.21356365 100.17714552 143.43573733 98.53621916 148.96484375 97.4921875 C151.42273742 96.89776408 153.67220504 95.97969805 156 95 C156.1959375 95.59425781 156.391875 96.18851562 156.59375 96.80078125 C158.51604233 102.12851388 160.76775119 106.18630403 164.3125 110.625 C167.91831239 115.31055658 167.91831239 115.31055658 168.29296875 118.47265625 C168 120.6875 168 120.6875 167 124 C169.88415883 125.44207941 172.41721528 125.09394887 175.625 125.0625 C177.40777344 125.04896484 177.40777344 125.04896484 179.2265625 125.03515625 C180.14179687 125.02355469 181.05703125 125.01195312 182 125 C182.22162329 123.37675914 182.42689803 121.751279 182.625 120.125 C182.74101563 119.22007812 182.85703125 118.31515625 182.9765625 117.3828125 C182.98429688 116.59648437 182.99203125 115.81015625 183 115 C180.63288209 112.63288209 179.89980191 112.77762608 176.6875 112.4375 C173.70599663 111.83158157 172.35691711 111.3945735 170.296875 109.1171875 C167.45608907 104.30091251 166.41012606 100.54481502 167 95 C166.34 95 165.68 95 165 95 C165 93.68 165 92.36 165 91 C166.06347656 90.78601563 167.12695312 90.57203125 168.22265625 90.3515625 C174.29929278 88.82471565 179.8072521 86.07136352 185.4375 83.375 C187.05881836 82.63056641 187.05881836 82.63056641 188.71289062 81.87109375 C197.60724059 77.63157946 206.8019358 72.30040648 210.40625 62.60546875 C212.77383637 52.21612591 211.01958539 43.25929169 206 34 C205.23099728 32.87993082 204.4433892 31.77200876 203.625 30.6875 C202 28 202 28 202.125 24.5 C202.93491049 21.26035804 203.85284873 18.13554681 205 15 C202.6704053 14.49758678 202.6704053 14.49758678 200 15 C198.61061923 16.96147874 197.2739589 18.96166576 196 21 C195.01 21 194.02 21 193 21 C193 20.34 193 19.68 193 19 C185.01051589 17.99111649 177.1083702 17.8488629 169.0625 17.875 C167.84498047 17.87113281 166.62746094 17.86726563 165.37304688 17.86328125 C164.20966797 17.86457031 163.04628906 17.86585938 161.84765625 17.8671875 C160.2699646 17.86887939 160.2699646 17.86887939 158.66040039 17.87060547 C155.89471948 17.88522265 155.89471948 17.88522265 153 19 C150.50724314 19.09672459 148.04338356 19.13998844 145.55078125 19.1328125 C144.45361031 19.13424759 144.45361031 19.13424759 143.33427429 19.13571167 C141.78510451 19.13639198 140.23593187 19.13454804 138.68676758 19.13037109 C136.33863746 19.12505913 133.99070199 19.13030109 131.64257812 19.13671875 C130.13281208 19.13605719 128.62304616 19.13477443 127.11328125 19.1328125 C126.07377068 19.13584885 126.07377068 19.13584885 125.01325989 19.13894653 C121.02245079 19.12018262 117.18374522 18.77666595 113.23381042 18.23803711 C108.52844307 17.73662838 103.7902298 17.75714321 99.0625 17.68359375 C97.94182129 17.66281265 96.82114258 17.64203156 95.66650391 17.62062073 C92.1110608 17.55559991 88.55554822 17.49646232 85 17.4375 C82.5794201 17.39426958 80.15884704 17.35065389 77.73828125 17.30664062 C71.8255928 17.19996761 65.91283631 17.09811589 60 17 C60.09155273 14.02148438 60.09155273 14.02148438 60.18310547 11.04296875 C60.12854994 8.70262665 60.12854994 8.70262665 58.125 6 C53.58233748 3.09269598 50.33216457 3.64452236 45 4 C43.68 7.96 42.36 11.92 41 16 C31.1 16 21.2 16 11 16 C10.01 13.03 9.02 10.06 8 7 C6.25213315 4.78625275 6.25213315 4.78625275 4 4 C1.93161504 4.0363856 1.93161504 4.0363856 0 5 C-1.14724066 7.17316366 -1.14724066 7.17316366 -1.75 9.8125 C-2.11351562 11.12154297 -2.11351562 11.12154297 -2.484375 12.45703125 C-3.1324807 15.2209178 -3.1324807 15.2209178 -3 19 C-3.66 19 -4.32 19 -5 19 C-6.45369052 16.09261897 -6.29639413 14.26033542 -6 11 C-4.54756856 6.904281 -3.09642272 3.09642272 0 0 Z " fill="#0A0A0A" transform="translate(391,155)"/>
<path d="M0 0 C4.60318234 0 6.47731945 0.51140732 9.875 3.6875 C12 7 12 7 13 13 C21.58 13 30.16 13 39 13 C39.66 10.03 40.32 7.06 41 4 C42.29296875 1.46875 42.29296875 1.46875 44 0 C49.19462324 -1.10905614 53.82832598 -0.57555917 58.5625 1.75 C62.13043478 5.04347826 62.13043478 5.04347826 63 8 C63.02493572 9.99984455 63.02724543 12.00018559 63 14 C63.7935791 13.99476318 64.5871582 13.98952637 65.40478516 13.98413086 C91.99530505 13.8325906 91.99530505 13.8325906 103.625 14.5 C113.70784848 15.06179232 123.77951834 15.11391188 133.875 15.125 C134.66561829 15.12749756 135.45623657 15.12999512 136.27081299 15.13256836 C138.55298148 15.13850857 140.83501721 15.13694904 143.1171875 15.1328125 C143.79348206 15.13479645 144.46977661 15.1367804 145.16656494 15.13882446 C149.86221839 15.11634365 154.3595166 14.65055921 159 14 C159 14.33 159 14.66 159 15 C165.93 15.33 172.86 15.66 180 16 C180 16.33 180 16.66 180 17 C179.2886792 17.02505615 178.5773584 17.0501123 177.84448242 17.07592773 C174.62530483 17.19188439 171.40642015 17.31461245 168.1875 17.4375 C166.50817383 17.49647461 166.50817383 17.49647461 164.79492188 17.55664062 C163.18520508 17.61948242 163.18520508 17.61948242 161.54296875 17.68359375 C160.55321045 17.72025146 159.56345215 17.75690918 158.54370117 17.79467773 C155.8781649 17.90790331 155.8781649 17.90790331 153 19 C150.50724314 19.09672459 148.04338356 19.13998844 145.55078125 19.1328125 C144.45361031 19.13424759 144.45361031 19.13424759 143.33427429 19.13571167 C141.78510451 19.13639198 140.23593187 19.13454804 138.68676758 19.13037109 C136.33863746 19.12505913 133.99070199 19.13030109 131.64257812 19.13671875 C130.13281208 19.13605719 128.62304616 19.13477443 127.11328125 19.1328125 C126.07377068 19.13584885 126.07377068 19.13584885 125.01325989 19.13894653 C121.02245079 19.12018262 117.18374522 18.77666595 113.23381042 18.23803711 C108.52844307 17.73662838 103.7902298 17.75714321 99.0625 17.68359375 C97.94182129 17.66281265 96.82114258 17.64203156 95.66650391 17.62062073 C92.1110608 17.55559991 88.55554822 17.49646232 85 17.4375 C82.5794201 17.39426958 80.15884704 17.35065389 77.73828125 17.30664062 C71.8255928 17.19996761 65.91283631 17.09811589 60 17 C60.09155273 14.02148438 60.09155273 14.02148438 60.18310547 11.04296875 C60.12854994 8.70262665 60.12854994 8.70262665 58.125 6 C53.58233748 3.09269598 50.33216457 3.64452236 45 4 C43.68 7.96 42.36 11.92 41 16 C31.1 16 21.2 16 11 16 C9.515 11.545 9.515 11.545 8 7 C6.25213315 4.78625275 6.25213315 4.78625275 4 4 C1.93161504 4.0363856 1.93161504 4.0363856 0 5 C-1.14724066 7.17316366 -1.14724066 7.17316366 -1.75 9.8125 C-1.99234375 10.68519531 -2.2346875 11.55789062 -2.484375 12.45703125 C-3.1324807 15.2209178 -3.1324807 15.2209178 -3 19 C-3.66 19 -4.32 19 -5 19 C-6.45369052 16.09261897 -6.29639413 14.26033542 -6 11 C-4.54756856 6.904281 -3.09642272 3.09642272 0 0 Z " fill="#181818" transform="translate(391,155)"/>
<path d="M0 0 C4.60318234 0 6.47731945 0.51140732 9.875 3.6875 C12 7 12 7 13 13 C21.58 13 30.16 13 39 13 C39.99 10.03 40.98 7.06 42 4 C42.99 4 43.98 4 45 4 C43.68 7.96 42.36 11.92 41 16 C31.1 16 21.2 16 11 16 C9.515 11.545 9.515 11.545 8 7 C6.25213315 4.78625275 6.25213315 4.78625275 4 4 C1.93161504 4.0363856 1.93161504 4.0363856 0 5 C-1.14724066 7.17316366 -1.14724066 7.17316366 -1.75 9.8125 C-1.99234375 10.68519531 -2.2346875 11.55789062 -2.484375 12.45703125 C-3.1324807 15.2209178 -3.1324807 15.2209178 -3 19 C-3.66 19 -4.32 19 -5 19 C-6.45369052 16.09261897 -6.29639413 14.26033542 -6 11 C-4.54756856 6.904281 -3.09642272 3.09642272 0 0 Z " fill="#0F0F0F" transform="translate(391,155)"/>
<path d="M0 0 C1.6586512 0.14298131 3.3210869 0.24541225 4.984375 0.31640625 C6.38623047 0.37924805 6.38623047 0.37924805 7.81640625 0.44335938 C8.78449219 0.48267578 9.75257813 0.52199219 10.75 0.5625 C11.73355469 0.60568359 12.71710937 0.64886719 13.73046875 0.69335938 C16.15351275 0.79922052 18.5766554 0.90130171 21 1 C21 1.33 21 1.66 21 2 C19.9330188 2.03758423 19.9330188 2.03758423 18.84448242 2.07592773 C15.62530483 2.19188439 12.40642015 2.31461245 9.1875 2.4375 C8.06794922 2.47681641 6.94839844 2.51613281 5.79492188 2.55664062 C4.18520508 2.61948242 4.18520508 2.61948242 2.54296875 2.68359375 C1.0583313 2.73858032 1.0583313 2.73858032 -0.45629883 2.79467773 C-3.1218351 2.90790331 -3.1218351 2.90790331 -6 4 C-8.48090632 4.10858756 -10.93281979 4.16402415 -13.4140625 4.16796875 C-14.14313812 4.17129715 -14.87221375 4.17462555 -15.62338257 4.17805481 C-17.1683489 4.18311652 -18.71332616 4.18546337 -20.25830078 4.18530273 C-22.59556746 4.18747267 -24.93234909 4.20558982 -27.26953125 4.22460938 C-34.74920729 4.25194693 -41.75580942 4.09700254 -49 2 C-48.67 1.34 -48.34 0.68 -48 0 C-46.80922852 0.00523682 -45.61845703 0.01047363 -44.39160156 0.01586914 C-39.9710363 0.03397788 -35.55047431 0.04545353 -31.12988281 0.05493164 C-29.21711679 0.05995841 -27.3043546 0.06678077 -25.39160156 0.07543945 C-22.6412664 0.08757748 -19.89098207 0.0932449 -17.140625 0.09765625 C-15.85916595 0.10539818 -15.85916595 0.10539818 -14.55181885 0.11329651 C-13.75129089 0.11337204 -12.95076294 0.11344757 -12.12597656 0.11352539 C-11.42426331 0.115746 -10.72255005 0.11796661 -9.99957275 0.12025452 C-1.40436672 -0.39666208 -1.40436672 -0.39666208 0 0 Z " fill="#101010" transform="translate(550,170)"/>
<path d="M0 0 C0 0.99 0 1.98 0 3 C-1.22976563 3.19916016 -1.22976563 3.19916016 -2.484375 3.40234375 C-4.10085938 3.66724609 -4.10085938 3.66724609 -5.75 3.9375 C-7.35101563 4.19853516 -7.35101563 4.19853516 -8.984375 4.46484375 C-11.36347593 4.88704171 -13.66915211 5.37202884 -16 6 C-16.05416188 7.60379341 -16.09286638 9.20811406 -16.125 10.8125 C-16.15980469 12.15248047 -16.15980469 12.15248047 -16.1953125 13.51953125 C-16.18285827 16.25402714 -16.18285827 16.25402714 -14 19 C-11.23434618 19.92188461 -9.61716298 20.11785222 -6.76953125 20.09765625 C-5.96708984 20.09443359 -5.16464844 20.09121094 -4.33789062 20.08789062 C-3.50451172 20.07951172 -2.67113281 20.07113281 -1.8125 20.0625 C-0.5450293 20.05573242 -0.5450293 20.05573242 0.74804688 20.04882812 C2.83206155 20.03705403 4.91603977 20.0191189 7 20 C7 20.99 7 21.98 7 23 C-0.77330715 25.24683004 -9.78979377 24.85072553 -17 21 C-19.71829356 16.92255966 -19.37873269 13.77203186 -19 9 C-18.2094482 5.04724102 -17.23976045 4.18481535 -14 1.6875 C-9.49762064 -0.68267433 -4.95895843 -0.35920021 0 0 Z " fill="#070707" transform="translate(403,192)"/>
<path d="M0 0 C8.25 0 16.5 0 25 0 C25.33 0.99 25.66 1.98 26 3 C24.91460938 3.13277344 23.82921875 3.26554688 22.7109375 3.40234375 C21.26561678 3.58066254 19.82030474 3.75905169 18.375 3.9375 C17.66214844 4.02451172 16.94929687 4.11152344 16.21484375 4.20117188 C12.12408039 4.70782605 8.06157365 5.2889043 4 6 C4.66 5.01 5.32 4.02 6 3 C3.69 3 1.38 3 -1 3 C-0.67 2.01 -0.34 1.02 0 0 Z " fill="#0D0D0D" transform="translate(521,245)"/>
<path d="M0 0 C-1.82960928 3.65921857 -6.28647024 4.70272388 -10 6 C-13.26033542 6.29639413 -15.09261897 6.45369052 -18 5 C-19.53668865 4.77532169 -21.07968054 4.59203195 -22.625 4.4375 C-23.44226563 4.35371094 -24.25953125 4.26992187 -25.1015625 4.18359375 C-25.72804688 4.12300781 -26.35453125 4.06242188 -27 4 C-26.015625 2.54296875 -26.015625 2.54296875 -24 1 C-21.18686612 0.61771728 -18.57177583 0.3969121 -15.75 0.3125 C-15.01136719 0.27833984 -14.27273438 0.24417969 -13.51171875 0.20898438 C-9.00584992 0.01428634 -4.50952881 -0.02982493 0 0 Z " fill="#D7D7D7" transform="translate(528,247)"/>
<path d="M0 0 C2.85423192 -0.02718316 5.70820015 -0.04692705 8.5625 -0.0625 C9.36236328 -0.07087891 10.16222656 -0.07925781 10.98632812 -0.08789062 C15.77163104 -0.10742247 20.28145051 0.19562982 25 1 C25 1.99 25 2.98 25 4 C24.06994141 3.89171875 24.06994141 3.89171875 23.12109375 3.78125 C15.05200562 2.93558138 7.10374993 2.90157389 -1 3 C-0.67 2.01 -0.34 1.02 0 0 Z " fill="#181818" transform="translate(389,228)"/>
<path d="M0 0 C-0.33 0.99 -0.66 1.98 -1 3 C-3.2578125 3.87890625 -3.2578125 3.87890625 -6.125 4.5625 C-7.11371094 4.80742187 -8.10242188 5.05234375 -9.12109375 5.3046875 C-10.07113281 5.53414063 -11.02117188 5.76359375 -12 6 C-13.39825062 6.38720786 -14.79462914 6.78136517 -16.1875 7.1875 C-17.115625 7.455625 -18.04375 7.72375 -19 8 C-18.85546875 6.140625 -18.85546875 6.140625 -18 4 C-15.48828125 2.734375 -15.48828125 2.734375 -12.3125 1.75 C-11.27738281 1.41484375 -10.24226562 1.0796875 -9.17578125 0.734375 C-5.99908308 -0.00021203 -3.24736123 -0.13632101 0 0 Z " fill="#272727" transform="translate(539,254)"/>
<path d="M0 0 C5.61 0 11.22 0 17 0 C16.67 0.99 16.34 1.98 16 3 C10.39 3 4.78 3 -1 3 C-0.67 2.01 -0.34 1.02 0 0 Z " fill="#1E1E1E" transform="translate(504,245)"/>
<path d="M0 0 C1.6586512 0.14298131 3.3210869 0.24541225 4.984375 0.31640625 C6.38623047 0.37924805 6.38623047 0.37924805 7.81640625 0.44335938 C8.78449219 0.48267578 9.75257813 0.52199219 10.75 0.5625 C11.73355469 0.60568359 12.71710937 0.64886719 13.73046875 0.69335938 C16.15351275 0.79922052 18.5766554 0.90130171 21 1 C21 1.33 21 1.66 21 2 C20.30438965 2.02505615 19.6087793 2.0501123 18.89208984 2.07592773 C15.71956545 2.19245974 12.54729645 2.31492568 9.375 2.4375 C8.28058594 2.47681641 7.18617188 2.51613281 6.05859375 2.55664062 C4.46337891 2.61948242 4.46337891 2.61948242 2.8359375 2.68359375 C1.86188965 2.72025146 0.8878418 2.75690918 -0.11572266 2.79467773 C-3.1254852 3.00893288 -6.03295916 3.45931357 -9 4 C-8.67 2.68 -8.34 1.36 -8 0 C-4.8464199 -1.01365075 -3.15640781 -0.79549144 0 0 Z " fill="#4B4B4B" transform="translate(550,170)"/>
<path d="M0 0 C0.66 0 1.32 0 2 0 C2 0.99 2 1.98 2 3 C2.99 3.33 3.98 3.66 5 4 C5.33 2.68 5.66 1.36 6 0 C6.66 0 7.32 0 8 0 C7.125 5.875 7.125 5.875 6 7 C4.00041636 7.04080783 1.99954746 7.04254356 0 7 C-1.125 2.25 -1.125 2.25 0 0 Z " fill="#010101" transform="translate(563,223)"/>
<path d="M0 0 C0.66 0 1.32 0 2 0 C2.185625 1.2065625 2.185625 1.2065625 2.375 2.4375 C2.58125 3.283125 2.7875 4.12875 3 5 C3.66 5.33 4.32 5.66 5 6 C5.33 4.35 5.66 2.7 6 1 C6.66 1 7.32 1 8 1 C7.25 6.75 7.25 6.75 5 9 C2.9375 8.75 2.9375 8.75 1 8 C-0.35439668 5.29120665 -0.06501451 2.99066732 0 0 Z " fill="#010101" transform="translate(495,216)"/>
<path d="M0 0 C0.91007812 0.00902344 1.82015625 0.01804688 2.7578125 0.02734375 C3.45648438 0.03894531 4.15515625 0.05054688 4.875 0.0625 C4.875 1.0525 4.875 2.0425 4.875 3.0625 C0.585 3.7225 -3.705 4.3825 -8.125 5.0625 C-7.795 3.7425 -7.465 2.4225 -7.125 1.0625 C-4.60024538 -0.19987731 -2.81299534 -0.03606404 0 0 Z " fill="#1A1A1A" transform="translate(398.125,191.9375)"/>
<path d="M0 0 C0.66 0 1.32 0 2 0 C1.25 4.75 1.25 4.75 -1 7 C-3.5625 7.1875 -3.5625 7.1875 -6 7 C-7 6 -7 6 -7.0625 3.4375 C-7.041875 2.633125 -7.02125 1.82875 -7 1 C-6.34 1 -5.68 1 -5 1 C-5 1.99 -5 2.98 -5 4 C-1.87802522 2.6910428 -1.87802522 2.6910428 0 0 Z " fill="#090909" transform="translate(485,179)"/>
<path d="M0 0 C0.66 0.33 1.32 0.66 2 1 C2 1.66 2 2.32 2 3 C-4.435 5.97 -4.435 5.97 -11 9 C-8.93905488 4.87810975 -8.32498924 4.24281077 -4.5 2.1875 C-3.7059375 1.74792969 -2.911875 1.30835938 -2.09375 0.85546875 C-1.4028125 0.57316406 -0.711875 0.29085937 0 0 Z " fill="#0E0E0E" transform="translate(578,237)"/>
<path d="M0 0 C0.53109375 0.13277344 1.0621875 0.26554688 1.609375 0.40234375 C2.79273438 0.69818359 2.79273438 0.69818359 4 1 C6.08333333 1.52083333 8.16666667 2.04166667 10.25 2.5625 C11.86648438 2.96662109 11.86648438 2.96662109 13.515625 3.37890625 C14.33546875 3.58386719 15.1553125 3.78882813 16 4 C16 4.33 16 4.66 16 5 C9.86946489 5.32712342 5.37330889 5.39366878 0 2 C0 1.34 0 0.68 0 0 Z " fill="#010101" transform="translate(432,244)"/>
<path d="M0 0 C0.66 0 1.32 0 2 0 C2 0.99 2 1.98 2 3 C2.66 3 3.32 3 4 3 C4 2.01 4 1.02 4 0 C4.66 0 5.32 0 6 0 C5.67 2.31 5.34 4.62 5 7 C3.35 6.67 1.7 6.34 0 6 C0 4.02 0 2.04 0 0 Z " fill="#090909" transform="translate(412,237)"/>
<path d="M0 0 C0.66 0 1.32 0 2 0 C2 1.32 2 2.64 2 4 C2.66 4 3.32 4 4 4 C4.33 3.01 4.66 2.02 5 1 C5.66 1 6.32 1 7 1 C6.49396008 3.16874252 6.00016187 4.99967627 5 7 C3.35 6.67 1.7 6.34 0 6 C0 4.02 0 2.04 0 0 Z " fill="#0B0B0B" transform="translate(585,189)"/>
<path d="M0 0 C1.85772162 0.08984301 3.71247985 0.24611861 5.5625 0.4375 C7.08037109 0.59025391 7.08037109 0.59025391 8.62890625 0.74609375 C9.80259766 0.87177734 9.80259766 0.87177734 11 1 C11 1.99 11 2.98 11 4 C2.42857143 3.14285714 2.42857143 3.14285714 -1 1 C-0.67 0.67 -0.34 0.34 0 0 Z " fill="#0A0A0A" transform="translate(403,228)"/>
<path d="M0 0 C0 0.99 0 1.98 0 3 C-2.97 3.66 -5.94 4.32 -9 5 C-8.67 3.68 -8.34 2.36 -8 1 C-5.29120665 -0.35439668 -2.99066732 -0.06501451 0 0 Z " fill="#181818" transform="translate(385,173)"/>
<path d="M0 0 C0.66 0.33 1.32 0.66 2 1 C1 4 1 4 -0.84765625 4.94921875 C-1.57855469 5.19285156 -2.30945313 5.43648437 -3.0625 5.6875 C-4.16271484 6.06455078 -4.16271484 6.06455078 -5.28515625 6.44921875 C-5.85105469 6.63097656 -6.41695312 6.81273437 -7 7 C-6.68359375 5.11328125 -6.68359375 5.11328125 -6 3 C-3.0625 1.1875 -3.0625 1.1875 0 0 Z " fill="#1F1F1F" transform="translate(524,249)"/>
<path d="M0 0 C0 0.66 0 1.32 0 2 C-4.455 3.485 -4.455 3.485 -9 5 C-8.67 3.68 -8.34 2.36 -8 1 C-2.71910112 -1.35955056 -2.71910112 -1.35955056 0 0 Z " fill="#1C1C1C" transform="translate(529,257)"/>
<path d="M0 0 C1.65 0 3.3 0 5 0 C4.67 1.32 4.34 2.64 4 4 C2.68 4 1.36 4 0 4 C0 2.68 0 1.36 0 0 Z " fill="#080808" transform="translate(379,189)"/>
<path d="M0 0 C1.32 0 2.64 0 4 0 C4 1.32 4 2.64 4 4 C2.35 3.67 0.7 3.34 -1 3 C-0.67 2.01 -0.34 1.02 0 0 Z " fill="#151515" transform="translate(424,188)"/>
</svg>
