<?xml version="1.0" encoding="UTF-8"?>
<svg version="1.1" xmlns="http://www.w3.org/2000/svg" width="800" height="300">
<path d="M0 0 C264 0 528 0 800 0 C800 99 800 198 800 300 C536 300 272 300 0 300 C0 201 0 102 0 0 Z " fill="#FEFEFE" transform="translate(0,0)"/>
<path d="M0 0 C2.9375 1.75 2.9375 1.75 5 5 C5.42016602 7.94238281 5.42016602 7.94238281 5.62890625 11.203125 C5.74020874 12.82976074 5.74020874 12.82976074 5.85375977 14.48925781 C5.90201904 15.31780273 5.95027832 16.14634766 6 17 C13.67876287 17.04733716 21.35748862 17.0823633 29.03636265 17.10362434 C32.60592024 17.11385291 36.1753748 17.12760231 39.74487305 17.15087891 C57.71451159 17.26496449 75.49516846 16.78034104 93.41772461 15.43310547 C101.06200878 14.88068007 108.57702782 14.45169801 116.125 16 C117.52105469 16.2784375 117.52105469 16.2784375 118.9453125 16.5625 C119.62335938 16.706875 120.30140625 16.85125 121 17 C120.9175 16.13375 120.835 15.2675 120.75 14.375 C121.07095167 10.0421524 122.00391825 8.14588584 125 5 C128.04960341 4.19004497 129.75658229 4.48517179 133 5 C136.132804 8.06127879 136.30826692 10.62335736 136.5625 14.875 C137.19017902 19.47716279 137.19017902 19.47716279 140.13671875 22.87109375 C141.88279274 23.83417492 143.65353327 24.75379089 145.4453125 25.62890625 C149.16187114 27.62357304 151.74914079 30.44986434 154 34 C154 34.66 154 35.32 154 36 C154.66 36 155.32 36 156 36 C160.16857445 47.91021273 163.24265955 61.77943743 157.515625 73.7578125 C149.40038214 85.76335219 135.9810922 90.21856322 123 95 C123.825 95.9075 124.65 96.815 125.5 97.75 C128.03294997 100.53624497 128 100.87258261 128 105 C129.175625 105.185625 129.175625 105.185625 130.375 105.375 C133 106 133 106 135 108 C135.37109375 110.0234375 135.37109375 110.0234375 135.4375 112.375 C135.47746094 113.14585937 135.51742187 113.91671875 135.55859375 114.7109375 C135 117 135 117 132.8828125 119.25390625 C129.47343963 121.31893291 127.40052694 121.56709215 123.4375 121.5625 C122.32246094 121.58441406 121.20742188 121.60632813 120.05859375 121.62890625 C117 121 117 121 114.62109375 118.6640625 C112.68115964 115.4760262 112.51053626 113.67097806 113 110 C113.66 109.34 114.32 108.68 115 108 C115 107.01 115 106.02 115 105 C110.24944568 104.95043165 105.49904312 104.91420091 100.74829102 104.89013672 C99.13335547 104.88010104 97.518438 104.86646949 95.90356445 104.84912109 C93.57759125 104.82476535 91.25185905 104.81349253 88.92578125 104.8046875 C88.20787918 104.79436493 87.48997711 104.78404236 86.75032043 104.77340698 C82.71500132 104.77251097 79.63178826 105.21042318 76 107 C76.350625 107.680625 76.70125 108.36125 77.0625 109.0625 C78.22620603 112.7087789 77.72845102 115.28489978 77 119 C72.03048293 120.98780683 68.27662529 121.5862917 63 121 C60 118.9375 60 118.9375 58 116 C57.46668549 112.20013411 57.49426051 109.98619201 59.25 106.5625 C61 105 61 105 65 105 C65.33 102.36 65.66 99.72 66 97 C65.06542969 97.15339844 64.13085938 97.30679688 63.16796875 97.46484375 C58.23280789 98.16492787 53.28921168 98.36239609 48.3125 98.5625 C47.28898438 98.6049585 46.26546875 98.64741699 45.2109375 98.69116211 C32.47748704 99.16599141 19.73993032 99.09233892 7 99 C7.27870337 100.46684995 7.57019487 101.93127471 7.8671875 103.39453125 C8.02815918 104.21026611 8.18913086 105.02600098 8.35498047 105.86645508 C9.19719584 108.65226891 10.67312882 109.37119017 13 111 C13.64613445 114.63450628 13.04042194 116.87873418 11.875 120.375 C7.64942894 124.2331301 3.85902508 123.63681584 -1.6875 123.6015625 C-5.49839775 122.90948909 -6.74747094 122.10693664 -9 119 C-9.375 115.375 -9.375 115.375 -9 112 C-8.34 111.34 -7.68 110.68 -7 110 C-7.16666667 107.91666667 -7.16666667 107.91666667 -8 106 C-20.28179499 99.8591025 -46.17772322 105.95255305 -59 109 C-56.69 109.99 -54.38 110.98 -52 112 C-52.61177078 118.48477026 -52.61177078 118.48477026 -54.28515625 120.70556641 C-56.39000339 122.29439037 -57.50879384 122.38613008 -60.125 122.3984375 C-60.91390625 122.40230469 -61.7028125 122.40617187 -62.515625 122.41015625 C-63.74539062 122.39275391 -63.74539062 122.39275391 -65 122.375 C-66.22976562 122.39240234 -66.22976562 122.39240234 -67.484375 122.41015625 C-68.27328125 122.40628906 -69.0621875 122.40242188 -69.875 122.3984375 C-70.59429687 122.39505371 -71.31359375 122.39166992 -72.0546875 122.38818359 C-74.5487765 121.89049264 -75.44170682 120.97300023 -77 119 C-77.66503176 115.94085393 -77.63298448 113.06620005 -77 110 C-75.36935236 108.94228261 -73.69719127 107.94726954 -72 107 C-71.06302366 104.71292592 -70.44324874 102.4616447 -69.87109375 100.05859375 C-69 98 -69 98 -66.91015625 96.72265625 C-65.96462891 96.36494141 -65.96462891 96.36494141 -65 96 C-65 95.34 -65 94.68 -65 94 C-65.86625 93.938125 -66.7325 93.87625 -67.625 93.8125 C-74.02152767 92.27259519 -76.91957737 88.42997725 -80.25 83.0625 C-87.37652465 70.97422835 -88.26206095 54.80664266 -87 41 C-86.02659905 37.79688752 -84.87675981 35.84195057 -83 33 C-82.55914062 32.17242187 -82.11828125 31.34484375 -81.6640625 30.4921875 C-77.97605755 24.96883736 -70.35032372 21.47681947 -64 20 C-61.125 19.875 -61.125 19.875 -59 20 C-59.05220703 19.12988281 -59.05220703 19.12988281 -59.10546875 18.2421875 C-59.28620827 13.02656133 -59.01116142 9.46482556 -56 5 C-53.6875 2.5625 -53.6875 2.5625 -51 1 C-46.40971134 1.09180577 -45.32072473 1.67927527 -42 5 C-41.34 8.3 -40.68 11.6 -40 15 C-26.635 14.01 -26.635 14.01 -13 13 C-12.67 10.03 -12.34 7.06 -12 4 C-9.16529895 -0.64890972 -5.08727652 -1.10022449 0 0 Z " fill="#FBFBFB" transform="translate(248,162)"/>
<path d="M0 0 C2.9375 1.75 2.9375 1.75 5 5 C5.42016602 7.94238281 5.42016602 7.94238281 5.62890625 11.203125 C5.74020874 12.82976074 5.74020874 12.82976074 5.85375977 14.48925781 C5.90201904 15.31780273 5.95027832 16.14634766 6 17 C13.67876287 17.04733716 21.35748862 17.0823633 29.03636265 17.10362434 C32.60592024 17.11385291 36.1753748 17.12760231 39.74487305 17.15087891 C57.71451159 17.26496449 75.49516846 16.78034104 93.41772461 15.43310547 C101.06200878 14.88068007 108.57702782 14.45169801 116.125 16 C117.52105469 16.2784375 117.52105469 16.2784375 118.9453125 16.5625 C119.62335938 16.706875 120.30140625 16.85125 121 17 C121 17.99 121 18.98 121 20 C119.741875 19.835 118.48375 19.67 117.1875 19.5 C109.36006751 18.64919212 101.6893662 18.92958332 93.84765625 19.50170898 C84.39725365 20.1327924 74.96747863 20.12680621 65.5 20.09765625 C63.68440795 20.09578542 61.86881539 20.09436467 60.05322266 20.09336853 C55.33189438 20.0895956 50.61059808 20.07981157 45.88928223 20.06866455 C41.04858838 20.05833648 36.20788924 20.05384678 31.3671875 20.04882812 C21.91144447 20.03818325 12.45572492 20.02117168 3 20 C2.95101562 19.09636719 2.90203125 18.19273437 2.8515625 17.26171875 C2.73941406 15.49248047 2.73941406 15.49248047 2.625 13.6875 C2.52058594 11.92986328 2.52058594 11.92986328 2.4140625 10.13671875 C2.21386253 6.84300113 2.21386253 6.84300113 0 4 C-1.97747122 3.63702064 -1.97747122 3.63702064 -4.125 3.8125 C-5.40375 3.874375 -6.6825 3.93625 -8 4 C-9.24253349 6.81640925 -10.0128977 9.10963044 -10.375 12.1875 C-11 15 -11 15 -12.6015625 16.13671875 C-15.76388992 17.27495061 -18.64515631 17.43629004 -22 17.625 C-22.65556885 17.66294678 -23.3111377 17.70089355 -23.98657227 17.73999023 C-29.99201947 18.06050363 -35.9883555 18.10075382 -42 18 C-42.13277344 17.31292969 -42.26554687 16.62585938 -42.40234375 15.91796875 C-42.57894531 15.01691406 -42.75554687 14.11585938 -42.9375 13.1875 C-43.11152344 12.29417969 -43.28554687 11.40085938 -43.46484375 10.48046875 C-43.97741153 7.88602829 -43.97741153 7.88602829 -45 5 C-49.37040662 4.58884308 -49.37040662 4.58884308 -53.125 6.59375 C-55.50761416 9.65143817 -55.79096953 11.9247461 -56.25 15.75 C-56.39953125 16.92046875 -56.5490625 18.0909375 -56.703125 19.296875 C-56.85007813 20.63492188 -56.85007813 20.63492188 -57 22 C-64.38555443 24.81993896 -64.38555443 24.81993896 -67.359375 25.69140625 C-75.09677637 27.96329424 -78.86805361 32.06423284 -83 39 C-86.59331779 50.08727659 -83.98741199 66.18755834 -79.86328125 76.97265625 C-76.11281074 84.05950746 -70.8036586 89.58511424 -63 92 C-58.57113842 92.77250109 -54.10709096 93.19457584 -49.6328125 93.60546875 C-46 94 -46 94 -44 95 C-44.495 96.485 -44.495 96.485 -45 98 C-46.62808594 97.82210937 -46.62808594 97.82210937 -48.2890625 97.640625 C-49.73426875 97.50924261 -51.17958806 97.37909984 -52.625 97.25 C-53.69427734 97.12818359 -53.69427734 97.12818359 -54.78515625 97.00390625 C-58.76397723 96.67537975 -60.71507449 96.86145824 -64.40625 98.65625 C-67.22605068 101.20426266 -68.01119327 102.60281601 -68.875 106.25 C-69.09929687 107.14203125 -69.32359375 108.0340625 -69.5546875 108.953125 C-69.70164063 109.62859375 -69.84859375 110.3040625 -70 111 C-72.475 111.495 -72.475 111.495 -75 112 C-74.34 113.98 -73.68 115.96 -73 118 C-67.72 118 -62.44 118 -57 118 C-56.34 116.68 -55.68 115.36 -55 114 C-57.31 113.34 -59.62 112.68 -62 112 C-62 110.35 -62 108.7 -62 107 C-51.33295351 101.06665803 -37.01251711 101.4710791 -25 101 C-24.31244629 100.97131836 -23.62489258 100.94263672 -22.91650391 100.91308594 C-20.88175666 100.83777789 -18.84824295 100.78876167 -16.8125 100.75 C-15.02779297 100.71132813 -15.02779297 100.71132813 -13.20703125 100.671875 C-9.65043912 101.03576506 -7.83784869 101.86654589 -5 104 C-2 108.24137931 -2 108.24137931 -2 111 C-3.98 111.99 -3.98 111.99 -6 113 C-5.62095792 116.29075996 -5.62095792 116.29075996 -4 119 C-1.81360547 119.07258946 0.37500389 119.08373783 2.5625 119.0625 C3.76003906 119.05347656 4.95757812 119.04445313 6.19140625 119.03515625 C7.58166016 119.01775391 7.58166016 119.01775391 9 119 C9.33 117.02 9.66 115.04 10 113 C9.34 112.566875 8.68 112.13375 8 111.6875 C7.34 111.130625 6.68 110.57375 6 110 C6 109.01 6 108.02 6 107 C5.34 107 4.68 107 4 107 C4 104.36 4 101.72 4 99 C-0.32448133 98.26167392 -4.65535464 97.60825035 -9 97 C-9 96.01 -9 95.02 -9 94 C-7.85660156 94.16242188 -6.71320313 94.32484375 -5.53515625 94.4921875 C1.80585775 95.30260566 9.18737115 95.15018614 16.5625 95.125 C17.7232605 95.12317215 17.7232605 95.12317215 18.9074707 95.12130737 C32.29131988 95.09664129 45.63516968 94.73454803 59 94 C60.3298291 93.92797363 60.3298291 93.92797363 61.68652344 93.85449219 C66.70532076 93.58301216 66.70532076 93.58301216 71.72387695 93.30712891 C77.15676853 93.01507001 82.55824975 92.91079098 88 93 C88 93.99 88 94.98 88 96 C87.05898438 96.04898438 86.11796875 96.09796875 85.1484375 96.1484375 C83.28058594 96.26058594 83.28058594 96.26058594 81.375 96.375 C79.53035156 96.47941406 79.53035156 96.47941406 77.6484375 96.5859375 C74.16346145 96.9814487 71.26950399 97.76261849 68 99 C67.95875 100.258125 67.9175 101.51625 67.875 102.8125 C67.62109375 105.01953125 67.62109375 105.01953125 67 107 C63.9375 109 63.9375 109 61 110 C61.57452746 113.93075644 61.57452746 113.93075644 64 117 C66.44012949 117.24287489 66.44012949 117.24287489 69.125 117.125 C70.03507813 117.10695313 70.94515625 117.08890625 71.8828125 117.0703125 C72.58148438 117.04710937 73.28015625 117.02390625 74 117 C74.04254356 115.00045254 74.04080783 112.99958364 74 111 C73.67 110.67 73.34 110.34 73 110 C72.95936168 108.33382885 72.957279 106.66611905 73 105 C78.39150048 101.42103306 82.07352443 100.41533078 88.48828125 100.5390625 C89.66489571 100.54043716 89.66489571 100.54043716 90.86528015 100.5418396 C92.50993973 100.54784406 94.15459 100.56349434 95.79907227 100.58837891 C98.32283456 100.62515058 100.84513697 100.62939601 103.36914062 100.62890625 C104.97136691 100.63872892 106.57358326 100.65038221 108.17578125 100.6640625 C108.93095535 100.66628815 109.68612946 100.66851379 110.46418762 100.67080688 C115.76775786 100.76775786 115.76775786 100.76775786 118 103 C118.40047444 105.32275177 118.7397104 107.65739357 119 110 C118.01 110.66 117.02 111.32 116 112 C116.66 113.65 117.32 115.3 118 117 C119.77049689 117.05410687 121.54146849 117.09284119 123.3125 117.125 C124.29863281 117.14820313 125.28476562 117.17140625 126.30078125 117.1953125 C129.22406527 117.20682639 129.22406527 117.20682639 132 115 C132.25030977 112.41619823 132.25030977 112.41619823 132 110 C131.071875 109.649375 130.14375 109.29875 129.1875 108.9375 C126 107 126 107 124.5625 103.5625 C122.14804026 98.05753178 118.50070635 97.06413036 113.0625 94.75 C112.381875 94.5025 111.70125 94.255 111 94 C111 93.34 111 92.68 111 92 C111.56847656 92.03480469 112.13695312 92.06960937 112.72265625 92.10546875 C118.27738102 92.30020868 121.92681502 91.48873226 127 89 C127.91652344 88.69964844 128.83304688 88.39929688 129.77734375 88.08984375 C139.99017554 84.63604973 148.96568368 80.2172524 155 71 C159.17993278 61.94347898 157.37467031 50.39266918 155 41 C154.34 41 153.68 41 153 41 C152.4121875 39.700625 152.4121875 39.700625 151.8125 38.375 C147.33580563 30.03908635 142.68236126 27.43645122 134 24 C134.02320313 23.41992188 134.04640625 22.83984375 134.0703125 22.2421875 C134.18250423 17.38588834 133.87514915 13.57067605 132 9 C130.02 9 128.04 9 126 9 C125.04738513 13.76307437 124.91666643 18.1666528 125 23 C124.34 23 123.68 23 123 23 C122.74965874 20.9399629 122.52556654 18.87672534 122.3125 16.8125 C122.12107422 15.08966797 122.12107422 15.08966797 121.92578125 13.33203125 C122.00987905 9.55648262 122.58369079 7.8803686 125 5 C126.9375 4.37109375 126.9375 4.37109375 129 4.4375 C129.680625 4.43621094 130.36125 4.43492187 131.0625 4.43359375 C133.87472114 5.25571485 134.5998974 6.4593883 136 9 C136.37890625 11.8046875 136.37890625 11.8046875 136.5625 14.875 C137.19017902 19.47716279 137.19017902 19.47716279 140.13671875 22.87109375 C141.88279274 23.83417492 143.65353327 24.75379089 145.4453125 25.62890625 C149.16187114 27.62357304 151.74914079 30.44986434 154 34 C154 34.66 154 35.32 154 36 C154.66 36 155.32 36 156 36 C160.16857445 47.91021273 163.24265955 61.77943743 157.515625 73.7578125 C149.40038214 85.76335219 135.9810922 90.21856322 123 95 C123.825 95.9075 124.65 96.815 125.5 97.75 C128.03294997 100.53624497 128 100.87258261 128 105 C129.175625 105.185625 129.175625 105.185625 130.375 105.375 C133 106 133 106 135 108 C135.37109375 110.0234375 135.37109375 110.0234375 135.4375 112.375 C135.47746094 113.14585937 135.51742187 113.91671875 135.55859375 114.7109375 C135 117 135 117 132.8828125 119.25390625 C129.47343963 121.31893291 127.40052694 121.56709215 123.4375 121.5625 C122.32246094 121.58441406 121.20742188 121.60632813 120.05859375 121.62890625 C117 121 117 121 114.62109375 118.6640625 C112.68115964 115.4760262 112.51053626 113.67097806 113 110 C113.66 109.34 114.32 108.68 115 108 C115 107.01 115 106.02 115 105 C110.24944568 104.95043165 105.49904312 104.91420091 100.74829102 104.89013672 C99.13335547 104.88010104 97.518438 104.86646949 95.90356445 104.84912109 C93.57759125 104.82476535 91.25185905 104.81349253 88.92578125 104.8046875 C88.20787918 104.79436493 87.48997711 104.78404236 86.75032043 104.77340698 C82.71500132 104.77251097 79.63178826 105.21042318 76 107 C76.350625 107.680625 76.70125 108.36125 77.0625 109.0625 C78.22620603 112.7087789 77.72845102 115.28489978 77 119 C72.03048293 120.98780683 68.27662529 121.5862917 63 121 C60 118.9375 60 118.9375 58 116 C57.46668549 112.20013411 57.49426051 109.98619201 59.25 106.5625 C61 105 61 105 65 105 C65.33 102.36 65.66 99.72 66 97 C65.06542969 97.15339844 64.13085938 97.30679688 63.16796875 97.46484375 C58.23280789 98.16492787 53.28921168 98.36239609 48.3125 98.5625 C47.28898438 98.6049585 46.26546875 98.64741699 45.2109375 98.69116211 C32.47748704 99.16599141 19.73993032 99.09233892 7 99 C7.27870337 100.46684995 7.57019487 101.93127471 7.8671875 103.39453125 C8.02815918 104.21026611 8.18913086 105.02600098 8.35498047 105.86645508 C9.19719584 108.65226891 10.67312882 109.37119017 13 111 C13.64613445 114.63450628 13.04042194 116.87873418 11.875 120.375 C7.64942894 124.2331301 3.85902508 123.63681584 -1.6875 123.6015625 C-5.49839775 122.90948909 -6.74747094 122.10693664 -9 119 C-9.375 115.375 -9.375 115.375 -9 112 C-8.34 111.34 -7.68 110.68 -7 110 C-7.16666667 107.91666667 -7.16666667 107.91666667 -8 106 C-20.28179499 99.8591025 -46.17772322 105.95255305 -59 109 C-56.69 109.99 -54.38 110.98 -52 112 C-52.61177078 118.48477026 -52.61177078 118.48477026 -54.28515625 120.70556641 C-56.39000339 122.29439037 -57.50879384 122.38613008 -60.125 122.3984375 C-60.91390625 122.40230469 -61.7028125 122.40617187 -62.515625 122.41015625 C-63.74539062 122.39275391 -63.74539062 122.39275391 -65 122.375 C-66.22976562 122.39240234 -66.22976562 122.39240234 -67.484375 122.41015625 C-68.27328125 122.40628906 -69.0621875 122.40242188 -69.875 122.3984375 C-70.59429687 122.39505371 -71.31359375 122.39166992 -72.0546875 122.38818359 C-74.5487765 121.89049264 -75.44170682 120.97300023 -77 119 C-77.66503176 115.94085393 -77.63298448 113.06620005 -77 110 C-75.36935236 108.94228261 -73.69719127 107.94726954 -72 107 C-71.06302366 104.71292592 -70.44324874 102.4616447 -69.87109375 100.05859375 C-69 98 -69 98 -66.91015625 96.72265625 C-65.96462891 96.36494141 -65.96462891 96.36494141 -65 96 C-65 95.34 -65 94.68 -65 94 C-65.86625 93.938125 -66.7325 93.87625 -67.625 93.8125 C-74.02152767 92.27259519 -76.91957737 88.42997725 -80.25 83.0625 C-87.37652465 70.97422835 -88.26206095 54.80664266 -87 41 C-86.02659905 37.79688752 -84.87675981 35.84195057 -83 33 C-82.55914062 32.17242187 -82.11828125 31.34484375 -81.6640625 30.4921875 C-77.97605755 24.96883736 -70.35032372 21.47681947 -64 20 C-61.125 19.875 -61.125 19.875 -59 20 C-59.05220703 19.12988281 -59.05220703 19.12988281 -59.10546875 18.2421875 C-59.28620827 13.02656133 -59.01116142 9.46482556 -56 5 C-53.6875 2.5625 -53.6875 2.5625 -51 1 C-46.40971134 1.09180577 -45.32072473 1.67927527 -42 5 C-41.34 8.3 -40.68 11.6 -40 15 C-26.635 14.01 -26.635 14.01 -13 13 C-12.67 10.03 -12.34 7.06 -12 4 C-9.16529895 -0.64890972 -5.08727652 -1.10022449 0 0 Z " fill="#0E0E0E" transform="translate(248,162)"/>
<path d="M0 0 C0.80888672 0.00451172 1.61777344 0.00902344 2.45117188 0.01367188 C4.40498151 0.02523288 6.35875193 0.04315596 8.3125 0.0625 C8.3125 1.0525 8.3125 2.0425 8.3125 3.0625 C7.3946875 3.09988281 6.476875 3.13726562 5.53125 3.17578125 C-1.47524653 3.55112928 -7.29438626 4.12166768 -13.6875 7.0625 C-13.6875 6.0725 -13.6875 5.0825 -13.6875 4.0625 C-14.62207031 4.21589844 -15.55664062 4.36929687 -16.51953125 4.52734375 C-21.45469211 5.22742787 -26.39828832 5.42489609 -31.375 5.625 C-32.91027344 5.68868774 -32.91027344 5.68868774 -34.4765625 5.75366211 C-47.21001296 6.22849141 -59.94756968 6.15483892 -72.6875 6.0625 C-72.40879663 7.52934995 -72.11730513 8.99377471 -71.8203125 10.45703125 C-71.57885498 11.68063354 -71.57885498 11.68063354 -71.33251953 12.92895508 C-70.49030416 15.71476891 -69.01437118 16.43369017 -66.6875 18.0625 C-65.98764924 21.99916052 -66.58067074 23.84884149 -68.375 27.4375 C-70.6875 30.0625 -70.6875 30.0625 -73.4375 30.4375 C-74.18 30.31375 -74.9225 30.19 -75.6875 30.0625 C-75.0275 28.7425 -74.3675 27.4225 -73.6875 26.0625 C-72.6975 26.0625 -71.7075 26.0625 -70.6875 26.0625 C-70.3575 24.0825 -70.0275 22.1025 -69.6875 20.0625 C-70.3475 19.629375 -71.0075 19.19625 -71.6875 18.75 C-72.3475 18.193125 -73.0075 17.63625 -73.6875 17.0625 C-73.6875 16.0725 -73.6875 15.0825 -73.6875 14.0625 C-74.3475 14.0625 -75.0075 14.0625 -75.6875 14.0625 C-75.6875 11.4225 -75.6875 8.7825 -75.6875 6.0625 C-80.01198133 5.32417392 -84.34285464 4.67075035 -88.6875 4.0625 C-88.6875 3.0725 -88.6875 2.0825 -88.6875 1.0625 C-86.97240234 1.30613281 -86.97240234 1.30613281 -85.22265625 1.5546875 C-77.88164618 2.36510523 -70.50012657 2.21271025 -63.125 2.1875 C-62.35381836 2.18628143 -61.58263672 2.18506287 -60.78808594 2.18380737 C-45.56332042 2.15563525 -30.29897345 2.02246748 -15.13671875 0.53125 C-10.07547751 0.05146691 -5.08062003 -0.05554925 0 0 Z " fill="#111111" transform="translate(327.6875,254.9375)"/>
<path d="M0 0 C1.0209375 0.03287109 1.0209375 0.03287109 2.0625 0.06640625 C2.743125 0.06511719 3.42375 0.06382812 4.125 0.0625 C6.93722114 0.8846211 7.6623974 2.08829455 9.0625 4.62890625 C9.44140625 7.43359375 9.44140625 7.43359375 9.625 10.50390625 C10.25267902 15.10606904 10.25267902 15.10606904 13.19921875 18.5 C14.94529274 19.46308117 16.71603327 20.38269714 18.5078125 21.2578125 C22.22437114 23.25247929 24.81164079 26.07877059 27.0625 29.62890625 C27.0625 30.28890625 27.0625 30.94890625 27.0625 31.62890625 C27.7225 31.62890625 28.3825 31.62890625 29.0625 31.62890625 C33.24190438 43.57006161 36.25930536 57.34720853 30.6015625 69.375 C26.76570015 74.99249384 21.29892373 79.85716237 15.0625 82.62890625 C16.63181613 78.77694848 19.11290318 76.51146678 22.0625 73.62890625 C28.2262138 67.31374985 30.12411876 62.24358388 30.3125 53.31640625 C30.23257515 47.56181696 29.47123831 42.2009694 28.0625 36.62890625 C27.4025 36.62890625 26.7425 36.62890625 26.0625 36.62890625 C25.670625 35.76265625 25.27875 34.89640625 24.875 34.00390625 C20.39830563 25.6679926 15.74486126 23.06535747 7.0625 19.62890625 C7.08570313 19.04882812 7.10890625 18.46875 7.1328125 17.87109375 C7.24500423 13.01479459 6.93764915 9.1995823 5.0625 4.62890625 C3.0825 4.62890625 1.1025 4.62890625 -0.9375 4.62890625 C-1.89011487 9.39198062 -2.02083357 13.79555905 -1.9375 18.62890625 C-2.5975 18.62890625 -3.2575 18.62890625 -3.9375 18.62890625 C-4.18784126 16.56886915 -4.41193346 14.50563159 -4.625 12.44140625 C-4.75261719 11.29285156 -4.88023437 10.14429688 -5.01171875 8.9609375 C-4.92122181 4.89810114 -4.22071913 1.37003181 0 0 Z " fill="#080808" transform="translate(374.9375,166.37109375)"/>
<path d="M0 0 C1.32 0.33 2.64 0.66 4 1 C4 2.98 4 4.96 4 7 C4.61875 7.04125 5.2375 7.0825 5.875 7.125 C8 8 8 8 9.3125 10.5 C10.16551682 14.8426311 9.90091214 18.67744176 9 23 C8.67 23.33 8.34 23.66 8 24 C7.76924918 25.34747084 7.58846937 26.70377565 7.4375 28.0625 C7.293125 29.361875 7.14875 30.66125 7 32 C6.34 32 5.68 32 5 32 C4.67 29.69 4.34 27.38 4 25 C3.54625 25.825 3.0925 26.65 2.625 27.5 C1.820625 28.7375 1.820625 28.7375 1 30 C0.34 30 -0.32 30 -1 30 C-0.88140625 29.20335937 -0.7628125 28.40671875 -0.640625 27.5859375 C0.46818504 20.65203201 0.46818504 20.65203201 -1.9375 14.375 C-2.618125 13.59125 -3.29875 12.8075 -4 12 C-4 11.34 -4 10.68 -4 10 C-2.68 9.67 -1.36 9.34 0 9 C0.93380961 4.46859347 0.93380961 4.46859347 0 0 Z " fill="#080808" transform="translate(389,196)"/>
<path d="M0 0 C10.395 0.99 10.395 0.99 21 2 C21 2.33 21 2.66 21 3 C28.59 3.33 36.18 3.66 44 4 C44 4.33 44 4.66 44 5 C34.76 5 25.52 5 16 5 C17.24033888 13.48487603 17.24033888 13.48487603 22 17 C22.69985076 20.93666052 22.10682926 22.78634149 20.3125 26.375 C18 29 18 29 15.25 29.375 C14.5075 29.25125 13.765 29.1275 13 29 C13.66 27.68 14.32 26.36 15 25 C15.99 25 16.98 25 18 25 C18.33 23.02 18.66 21.04 19 19 C18.34 18.566875 17.68 18.13375 17 17.6875 C16.34 17.130625 15.68 16.57375 15 16 C15 15.01 15 14.02 15 13 C14.34 13 13.68 13 13 13 C13 10.36 13 7.72 13 5 C8.67551867 4.26167392 4.34464536 3.60825035 0 3 C0 2.01 0 1.02 0 0 Z " fill="#1A1A1A" transform="translate(239,256)"/>
<path d="M0 0 C1.09570312 0.00902344 2.19140625 0.01804688 3.3203125 0.02734375 C4.16335937 0.03894531 5.00640625 0.05054688 5.875 0.0625 C5.875 1.0525 5.875 2.0425 5.875 3.0625 C5.11574219 3.07667969 4.35648438 3.09085938 3.57421875 3.10546875 C-2.41584957 3.18690628 -2.41584957 3.18690628 -7.3125 6.125 C-8.5825484 10.71671345 -8.8958454 14.91514495 -7.25 19.5 C-6.19425899 21.22143274 -6.19425899 21.22143274 -4.125 22.0625 C-2.0875237 22.29108114 -0.04459697 22.47274278 2 22.625 C3.64355469 22.75068359 3.64355469 22.75068359 5.3203125 22.87890625 C6.58488281 22.96978516 6.58488281 22.96978516 7.875 23.0625 C7.875 24.0525 7.875 25.0425 7.875 26.0625 C5.62606046 26.17073773 3.37562425 26.24819645 1.125 26.3125 C-0.75445312 26.38210937 -0.75445312 26.38210937 -2.671875 26.453125 C-6.125 26.0625 -6.125 26.0625 -8.515625 24.234375 C-11.29166395 20.48807001 -11.31269313 17.22551721 -11.375 12.6875 C-11.40078125 11.56601563 -11.4265625 10.44453125 -11.453125 9.2890625 C-11.09180751 5.73610717 -10.25054458 3.89999883 -8.125 1.0625 C-5.36047967 -0.31976016 -3.0788637 -0.03275387 0 0 Z " fill="#0C0C0C" transform="translate(200.125,202.9375)"/>
<path d="M0 0 C-0.33 0.99 -0.66 1.98 -1 3 C-9.25 3 -17.5 3 -26 3 C-26 2.34 -26 1.68 -26 1 C-17.3387414 -0.25981943 -8.72998757 -0.09020653 0 0 Z " fill="#161616" transform="translate(218,236)"/>
<path d="M0 0 C0.66 0 1.32 0 2 0 C1.67 1.98 1.34 3.96 1 6 C2.65 5.67 4.3 5.34 6 5 C6 3.35 6 1.7 6 0 C6.99 0.33 7.98 0.66 9 1 C9.1875 3.875 9.1875 3.875 9 7 C5.55892734 9.29404844 4.03160191 9.26293056 0 9 C-1 8 -1 8 -1.125 5.0625 C-1 2 -1 2 0 0 Z " fill="#0F0F0F" transform="translate(324,233)"/>
<path d="M0 0 C0.66 0 1.32 0 2 0 C2.33 1.98 2.66 3.96 3 6 C3.99 6 4.98 6 6 6 C6.33 4.02 6.66 2.04 7 0 C7.66 0 8.32 0 9 0 C9.75 1.6875 9.75 1.6875 10 4 C8.0625 6.75 8.0625 6.75 6 9 C3.13275314 8.42655063 2.1385485 8.1385485 0 6 C-0.125 2.875 -0.125 2.875 0 0 Z " fill="#050505" transform="translate(298,206)"/>
<path d="M0 0 C0.66 0 1.32 0 2 0 C2 1.65 2 3.3 2 5 C3.32 4.67 4.64 4.34 6 4 C6.33 2.68 6.66 1.36 7 0 C7.66 0 8.32 0 9 0 C9.125 2.875 9.125 2.875 9 6 C7 8 7 8 3.9375 8.1875 C1 8 1 8 0 7 C-0.04092937 4.66702567 -0.04241723 2.33294775 0 0 Z " fill="#080808" transform="translate(372,192)"/>
<path d="M0 0 C0.9101059 2.45728594 1.00713448 3.95821235 0.5625 6.5625 C-1.76294769 10.1901984 -4.97999353 10.85009117 -9 12 C-8.3125 9.5625 -8.3125 9.5625 -7 7 C-4.375 6.1875 -4.375 6.1875 -2 6 C-1.855625 5.195625 -1.71125 4.39125 -1.5625 3.5625 C-1 1 -1 1 0 0 Z " fill="#080808" transform="translate(315,261)"/>
<path d="M0 0 C0.66 0 1.32 0 2 0 C1.67 2.64 1.34 5.28 1 8 C-0.32 8.33 -1.64 8.66 -3 9 C-5.62386487 5.93882432 -6 5.26826873 -6 1 C-5.34 1 -4.68 1 -4 1 C-3.67 1.99 -3.34 2.98 -3 4 C-2.34 4.33 -1.68 4.66 -1 5 C-0.67 3.35 -0.34 1.7 0 0 Z " fill="#070707" transform="translate(172,212)"/>
<path d="M0 0 C1.90401138 1.90401138 2.93520439 3.33425686 3.19921875 6.046875 C3.1886578 8.03233273 3.09915043 10.0169914 3 12 C1.0625 11.5 1.0625 11.5 -1 10 C-1.80164631 7.35400659 -2.17261762 4.76188187 -2 2 C-1.34 1.34 -0.68 0.68 0 0 Z " fill="#666666" transform="translate(393,205)"/>
<path d="M0 0 C0.66 0 1.32 0 2 0 C1.67 2.64 1.34 5.28 1 8 C-0.65614657 8.38218767 -2.32457024 8.71395102 -4 9 C-5 8 -5 8 -5.0625 4.9375 C-5.041875 3.968125 -5.02125 2.99875 -5 2 C-4.34 2 -3.68 2 -3 2 C-3 3.32 -3 4.64 -3 6 C-2.34 6 -1.68 6 -1 6 C-0.67 4.02 -0.34 2.04 0 0 Z " fill="#050505" transform="translate(226,244)"/>
<path d="M0 0 C1.32 0 2.64 0 4 0 C3.67 1.32 3.34 2.64 3 4 C1.68 4 0.36 4 -1 4 C-0.67 2.68 -0.34 1.36 0 0 Z " fill="#050505" transform="translate(225,198)"/>
</svg>
