<?xml version="1.0" encoding="UTF-8"?>
<svg version="1.1" xmlns="http://www.w3.org/2000/svg" width="800" height="300">
<path d="M0 0 C264 0 528 0 800 0 C800 99 800 198 800 300 C536 300 272 300 0 300 C0 201 0 102 0 0 Z " fill="#FEFEFE" transform="translate(0,0)"/>
<path d="M0 0 C3.125 0.25 3.125 0.25 4.79776478 1.50817585 C6.42566909 3.6445892 6.49589142 4.70555534 6.48576355 7.3691864 C6.48988754 8.20631165 6.49401154 9.04343689 6.4982605 9.90592957 C6.48747467 10.82086685 6.47668884 11.73580414 6.46557617 12.6784668 C6.46623329 14.12752914 6.46623329 14.12752914 6.46690369 15.60586548 C6.4648111 18.80385441 6.44145761 22.00132123 6.41796875 25.19921875 C6.41237447 27.41453261 6.40810358 29.62985017 6.40510559 31.84516907 C6.39364361 37.67976097 6.36416462 43.51412932 6.33099365 49.34863281 C6.30032203 55.30075048 6.28660647 61.25290423 6.27148438 67.20507812 C6.23929635 78.88681704 6.18808353 90.56838994 6.125 102.25 C4.0398598 102.58172765 1.95423464 102.91040796 -0.1315918 103.23779297 C-1.29297165 103.42115204 -2.4543515 103.60451111 -3.65092468 103.79342651 C-7.02953648 104.2718845 -10.276585 104.45719072 -13.6875 104.375 C-14.68394531 104.35695313 -15.68039062 104.33890625 -16.70703125 104.3203125 C-17.42246094 104.29710937 -18.13789062 104.27390625 -18.875 104.25 C-19.00648438 105.03761719 -19.13796875 105.82523437 -19.2734375 106.63671875 C-19.875 109.25 -19.875 109.25 -21.5 111.0625 C-24.90715469 112.76607735 -27.10707391 112.76971394 -30.875 112.25 C-33.84546873 110.45976215 -36.30002414 108.39995172 -37.875 105.25 C-37.91503069 99.82984419 -37.70546319 94.84941058 -35.1875 90 C-32.875 88.25 -32.875 88.25 -29.8125 87.8125 C-26.875 88.25 -26.875 88.25 -23.875 90.25 C-20.74978167 90.41699232 -20.74978167 90.41699232 -17.875 90.25 C-18.51566406 89.83492188 -19.15632812 89.41984375 -19.81640625 88.9921875 C-27.32767101 83.64139084 -32.67381737 77.37374249 -34.875 68.25 C-36.7122363 54.06482673 -35.87413583 38.97535401 -27.375 27.08984375 C-22.89680639 21.5970594 -17.25575263 18.02104884 -10.3125 16.4375 C-9.508125 16.375625 -8.70375 16.31375 -7.875 16.25 C-7.99875 14.765 -7.99875 14.765 -8.125 13.25 C-8.15325307 8.63533109 -6.22866383 5.12551072 -3.875 1.25 C-2.875 0.25 -2.875 0.25 0 0 Z " fill="#F9F9F9" transform="translate(793.875,155.75)"/>
<path d="M0 0 C3.125 0.25 3.125 0.25 5.0625 1.5 C6.125 3.25 6.125 3.25 5.8125 5.4375 C5.4721875 6.3346875 5.4721875 6.3346875 5.125 7.25 C3.805 5.93 2.485 4.61 1.125 3.25 C-2.05921647 3.9652516 -2.05921647 3.9652516 -3.5 6.75 C-5.14550724 10.93856388 -5.58750682 14.78889892 -5.875 19.25 C-6.57625 19.46914062 -7.2775 19.68828125 -8 19.9140625 C-15.87658926 22.54672685 -23.11890137 25.45098861 -27.25 33.0625 C-30.3961463 40.65432896 -31.21872186 48.15110632 -31.1875 56.3125 C-31.20361328 57.15876953 -31.21972656 58.00503906 -31.23632812 58.87695312 C-31.24353972 68.23039673 -28.16398742 75.32321432 -21.875 82.25 C-15.3295917 88.58685363 -7.54850114 89.34107262 1.25 89.375 C2.85875 89.33375 4.4675 89.2925 6.125 89.25 C6.125 93.54 6.125 97.83 6.125 102.25 C-2.337808 103.72179269 -10.29059939 104.52841299 -18.875 104.25 C-19.00648438 105.03761719 -19.13796875 105.82523437 -19.2734375 106.63671875 C-19.875 109.25 -19.875 109.25 -21.5 111.0625 C-24.90715469 112.76607735 -27.10707391 112.76971394 -30.875 112.25 C-33.84546873 110.45976215 -36.30002414 108.39995172 -37.875 105.25 C-37.91503069 99.82984419 -37.70546319 94.84941058 -35.1875 90 C-32.875 88.25 -32.875 88.25 -29.8125 87.8125 C-26.875 88.25 -26.875 88.25 -23.875 90.25 C-20.74978167 90.41699232 -20.74978167 90.41699232 -17.875 90.25 C-18.51566406 89.83492188 -19.15632812 89.41984375 -19.81640625 88.9921875 C-27.32767101 83.64139084 -32.67381737 77.37374249 -34.875 68.25 C-36.7122363 54.06482673 -35.87413583 38.97535401 -27.375 27.08984375 C-22.89680639 21.5970594 -17.25575263 18.02104884 -10.3125 16.4375 C-9.508125 16.375625 -8.70375 16.31375 -7.875 16.25 C-7.99875 14.765 -7.99875 14.765 -8.125 13.25 C-8.15325307 8.63533109 -6.22866383 5.12551072 -3.875 1.25 C-2.875 0.25 -2.875 0.25 0 0 Z " fill="#0F0F0F" transform="translate(793.875,155.75)"/>
<path d="M0 0 C2.91517292 1.07401108 4.77810176 1.77810176 7 4 C10.693507 4.20146402 13.47940432 4.17353189 17 3 C18.55266653 2.8535286 20.10995662 2.75305926 21.66796875 2.68359375 C22.56064453 2.64169922 23.45332031 2.59980469 24.37304688 2.55664062 C25.30181641 2.51732422 26.23058594 2.47800781 27.1875 2.4375 C28.12787109 2.39431641 29.06824219 2.35113281 30.03710938 2.30664062 C32.35792854 2.20061335 34.67885325 2.09854971 37 2 C37 4.31 37 6.62 37 9 C27.43 9.99 17.86 10.98 8 12 C8.33 13.65 8.66 15.3 9 17 C7 19 7 19 4.1875 19.4375 C1 19 1 19 -1.875 17.0625 C-4.37207265 13.46377766 -4.66307242 11.44331861 -4.44140625 7.16015625 C-3.80033039 4.0228558 -2.26481484 2.19403937 0 0 Z " fill="#F7F7F7" transform="translate(763,246)"/>
<path d="M0 0 C0 6.6 0 13.2 0 20 C-7.875 20 -7.875 20 -12 18 C-12 17.01 -12 16.02 -12 15 C-12.66 15 -13.32 15 -14 15 C-14 14.01 -14 13.02 -14 12 C-14.66 12 -15.32 12 -16 12 C-16 9.03 -16 6.06 -16 3 C-10.0751875 -0.74198684 -7.99511749 0 0 0 Z " fill="#FBFBFB" transform="translate(800,196)"/>
<path d="M0 0 C0.33 0.99 0.66 1.98 1 3 C0.08476563 3.13277344 -0.83046875 3.26554688 -1.7734375 3.40234375 C-2.96195313 3.57894531 -4.15046875 3.75554687 -5.375 3.9375 C-6.55835938 4.11152344 -7.74171875 4.28554687 -8.9609375 4.46484375 C-11.90702381 4.83462786 -11.90702381 4.83462786 -14 6 C-14.46651207 8.12576782 -14.46651207 8.12576782 -14.625 10.5625 C-14.69976563 11.38878906 -14.77453125 12.21507812 -14.8515625 13.06640625 C-14.90054688 13.70449219 -14.94953125 14.34257812 -15 15 C-14.34 15 -13.68 15 -13 15 C-13 15.99 -13 16.98 -13 18 C-12.34 18 -11.68 18 -11 18 C-11 18.99 -11 19.98 -11 21 C-5.06 21.99 -5.06 21.99 1 23 C1 23.99 1 24.98 1 26 C-4.47416957 26.33515324 -8.20121835 25.7162915 -13 23 C-16.45080535 18.64108798 -18.13921721 15.03913949 -18.25 9.5 C-18.27578125 8.7265625 -18.3015625 7.953125 -18.328125 7.15625 C-17.91786989 4.46028784 -17.11846448 3.6616392 -15 2 C-9.99343982 -0.26487246 -5.37723694 -0.21508948 0 0 Z " fill="#171717" transform="translate(799,193)"/>
<path d="M0 0 C3.125 0.25 3.125 0.25 5.0625 1.5 C6.125 3.25 6.125 3.25 5.8125 5.4375 C5.4721875 6.3346875 5.4721875 6.3346875 5.125 7.25 C3.805 5.93 2.485 4.61 1.125 3.25 C-2.05921647 3.9652516 -2.05921647 3.9652516 -3.5 6.75 C-5.18188746 11.03116807 -5.52813799 14.67142147 -5.875 19.25 C-10.825 20.735 -10.825 20.735 -15.875 22.25 C-15.875 20.93 -15.875 19.61 -15.875 18.25 C-13.235 17.59 -10.595 16.93 -7.875 16.25 C-7.9575 15.26 -8.04 14.27 -8.125 13.25 C-8.15325307 8.63533109 -6.22866383 5.12551072 -3.875 1.25 C-2.875 0.25 -2.875 0.25 0 0 Z " fill="#131313" transform="translate(793.875,155.75)"/>
<path d="M0 0 C0.99 0.33 1.98 0.66 3 1 C0.59829722 3.47032286 -1.67177708 5.77024395 -4.5 7.75 C-7.55706568 10.50135911 -9.00089322 13.40787167 -10.7890625 17.07421875 C-12 19 -12 19 -15 20 C-12.91347095 12.41262163 -8.98714057 5.7909984 -2.5 1.25 C-1.675 0.8375 -0.85 0.425 0 0 Z " fill="#0B0B0B" transform="translate(776,175)"/>
<path d="M0 0 C0 0.99 0 1.98 0 3 C-2.06172613 3.33808686 -4.1244203 3.67027361 -6.1875 4 C-7.91033203 4.2784375 -7.91033203 4.2784375 -9.66796875 4.5625 C-12.50415393 4.93489477 -15.14719564 5.08596021 -18 5 C-17.67 3.68 -17.34 2.36 -17 1 C-11.29309366 0.00749455 -5.78591511 -0.10477512 0 0 Z " fill="#252525" transform="translate(800,255)"/>
<path d="M0 0 C0.66 0 1.32 0 2 0 C1.84660156 1.1034375 1.69320312 2.206875 1.53515625 3.34375 C0.90498324 8.3851341 0.66239916 13.42686479 0.4375 18.5 C0.39431641 19.4178125 0.35113281 20.335625 0.30664062 21.28125 C0.20166544 23.52072061 0.09950752 25.76028092 0 28 C-0.33 28 -0.66 28 -1 28 C-1.06058594 26.72382813 -1.12117187 25.44765625 -1.18359375 24.1328125 C-1.26799568 22.46352984 -1.35264386 20.79425963 -1.4375 19.125 C-1.47681641 18.28324219 -1.51613281 17.44148438 -1.55664062 16.57421875 C-1.59853516 15.76855469 -1.64042969 14.96289062 -1.68359375 14.1328125 C-1.73858032 13.01737061 -1.73858032 13.01737061 -1.79467773 11.87939453 C-1.89955865 9.91135688 -1.89955865 9.91135688 -3 8 C-1.37209302 1.37209302 -1.37209302 1.37209302 0 0 Z " fill="#484848" transform="translate(762,194)"/>
<path d="M0 0 C4.62 0 9.24 0 14 0 C14 0.99 14 1.98 14 3 C9.71 3 5.42 3 1 3 C0.67 2.01 0.34 1.02 0 0 Z " fill="#252525" transform="translate(786,228)"/>
<path d="M0 0 C0.33 0 0.66 0 1 0 C1.33 3.3 1.66 6.6 2 10 C-2.95 11.485 -2.95 11.485 -8 13 C-8 11.68 -8 10.36 -8 9 C-5.36 8.34 -2.72 7.68 0 7 C0 4.69 0 2.38 0 0 Z " fill="#232323" transform="translate(786,165)"/>
<path d="M0 0 C0.66 0 1.32 0 2 0 C2 2.31 2 4.62 2 7 C-0.31 7.33 -2.62 7.66 -5 8 C-5.33 6.02 -5.66 4.04 -6 2 C-5.01 2 -4.02 2 -3 2 C-3 2.99 -3 3.98 -3 5 C-2.34 4.67 -1.68 4.34 -1 4 C-0.34786708 1.97536745 -0.34786708 1.97536745 0 0 Z " fill="#0C0C0C" transform="translate(770,206)"/>
<path d="M0 0 C1.09658936 3.28976808 0.79953138 4.71303767 0 8 C-0.99 8.33 -1.98 8.66 -3 9 C-2.4140625 2.84765625 -2.4140625 2.84765625 -2 1 C-1.34 0.67 -0.68 0.34 0 0 Z " fill="#050505" transform="translate(759,248)"/>
</svg>
