<?xml version="1.0" encoding="UTF-8"?>
<svg version="1.1" xmlns="http://www.w3.org/2000/svg" width="800" height="300">
<path d="M0 0 C264 0 528 0 800 0 C800 99 800 198 800 300 C536 300 272 300 0 300 C0 201 0 102 0 0 Z " fill="#FEFEFE" transform="translate(0,0)"/>
<path d="M0 0 C5.77481791 -0.48123483 10.26953246 0.47661728 15 4 C16.93551992 7.11661994 17.20289203 9.34794339 17 13 C16.34 13 15.68 13 15 13 C14.62875 11.906875 14.2575 10.81375 13.875 9.6875 C12.57260133 6.64652197 12.05031813 6.03281617 9.125 4.125 C6.39495733 3.14218464 3.86592693 2.42145984 1 2 C-0.37004923 8.85024615 -0.37004923 15.14975385 1 22 C0.443125 22.13535156 -0.11375 22.27070313 -0.6875 22.41015625 C-6.46987964 24.04133429 -10.07758864 26.38479861 -14.37109375 30.57421875 C-16 32 -16 32 -18 32 C-18.28617187 32.57492188 -18.57234375 33.14984375 -18.8671875 33.7421875 C-19.58485299 35.17256906 -20.31750433 36.59561031 -21.0703125 38.0078125 C-26.45121835 48.80948276 -23.68018949 57.95943152 -20 69 C-19.67644531 69.97066406 -19.35289062 70.94132812 -19.01953125 71.94140625 C-16.65475751 78.41799065 -14.07527825 82.37191152 -7.8125 85.6875 C0.78078388 88.95849193 9.90627185 89.45836729 19 90 C18.505 91.98 18.505 91.98 18 94 C17.01 94 16.02 94 15 94 C14.82984375 94.556875 14.6596875 95.11375 14.484375 95.6875 C13.70421762 98.14416579 12.86668807 100.57252303 12 103 C11.73316406 103.76183594 11.46632813 104.52367187 11.19140625 105.30859375 C9.03358262 110.5353221 9.03358262 110.5353221 6.140625 111.8359375 C4.10120779 112.3036234 2.06275687 112.6528033 0 113 C-3.03824575 113.92020732 -3.03824575 113.92020732 -5 116 C-5.71913365 118.81758922 -5.70481792 121.18072831 -5 124 C-2.66160743 126.49428541 -0.87026214 126.9166625 2.48828125 127.23828125 C5.04915388 127.30869598 7.46050211 127.34609086 10 127 C10.66 126.34 11.32 125.68 12 125 C11.97595367 122.7227477 11.97595367 122.7227477 11.6875 120.1875 C11.58596167 115.44904449 11.58596167 115.44904449 13.33984375 113.546875 C14.56566181 112.78509748 15.80786515 112.04925812 17.0625 111.3359375 C20.10670327 109.23691024 21.65016114 106.32581623 23.578125 103.2265625 C25.48187586 100.24541418 27.67816529 97.66328099 30 95 C34.02207763 96.34069254 34.39126537 98.06976834 36.375 101.75 C39.12987893 106.75444663 39.12987893 106.75444663 42.875 111 C45.05799964 113.0545879 45.67396379 114.06567414 46 117 C45.175 117.4125 44.35 117.825 43.5 118.25 C42.2625 119.11625 42.2625 119.11625 41 120 C41 121.32 41 122.64 41 124 C44.38494669 125.69247334 47.38495919 125.82133727 51 125 C55.00520782 122.73687337 58.67976836 120.19206094 62 117 C62 116.01 62 115.02 62 114 C59.70370006 112.85185003 57.92301914 112.69230191 55.375 112.4375 C54.14910156 112.31181641 54.14910156 112.31181641 52.8984375 112.18359375 C52.27195312 112.12300781 51.64546875 112.06242187 51 112 C50.60167969 110.84242188 50.20335937 109.68484375 49.79296875 108.4921875 C49.25802501 106.95305112 48.72285685 105.41399273 48.1875 103.875 C47.92646484 103.11445313 47.66542969 102.35390625 47.39648438 101.5703125 C45.87195297 97.20375341 44.17844114 93.09520766 42 89 C43.53096502 87.46903498 44.90391174 87.87035203 47.0390625 87.8671875 C48.35100586 87.86428711 48.35100586 87.86428711 49.68945312 87.86132812 C50.65818359 87.86583984 51.62691406 87.87035156 52.625 87.875 C54.14383789 87.87790039 54.14383789 87.87790039 55.69335938 87.88085938 C64.3016275 87.92739055 72.8974794 88.19687416 81.5 88.5 C99.19604852 89.12035562 116.77115515 89.26376103 134.45776367 88.3581543 C140.98163245 88.02527325 147.46658781 87.87594787 154 88 C153.39874814 90.94452 152.51613203 93.02230229 150.8203125 95.49609375 C150.38589844 96.13740234 149.95148438 96.77871094 149.50390625 97.43945312 C149.04886719 98.09880859 148.59382812 98.75816406 148.125 99.4375 C147.2307258 100.7479854 146.33747391 102.05916908 145.4453125 103.37109375 C145.01887451 103.99056885 144.59243652 104.61004395 144.15307617 105.24829102 C142.86036731 107.15425203 142.86036731 107.15425203 141.43359375 109.9296875 C140 112 140 112 138.02734375 112.63671875 C137.33769531 112.65347656 136.64804687 112.67023438 135.9375 112.6875 C131.99557113 112.5717978 131.99557113 112.5717978 130 115 C130 116.32 130 117.64 130 119 C135.79622721 121.32637691 139.86090397 122.43680971 146 121 C145.835 120.4225 145.67 119.845 145.5 119.25 C145 117 145 117 145 113 C146.63282423 111.94564578 148.30628164 110.95346521 150 110 C152.21543928 107.71315915 152.21543928 107.71315915 154.1875 105.125 C154.86167969 104.28195312 155.53585937 103.43890625 156.23046875 102.5703125 C157.93273146 100.09771015 159.01315441 97.8238966 160 95 C160.99 95 161.98 95 163 95 C164.61328125 96.9765625 164.61328125 96.9765625 166.3125 99.625 C168.48767359 102.89238842 170.59367651 105.79095487 173.4375 108.5 C174.283125 109.325 175.12875 110.15 176 111 C176 111.66 176 112.32 176 113 C174 114.625 174 114.625 172 116 C172.33 117.98 172.66 119.96 173 122 C176.50928577 122.89772427 178.3470071 123.30371763 181.6875 121.75 C185.61535366 118.9615534 185.61535366 118.9615534 187.51171875 114.73828125 C187.56972656 113.93777344 187.62773438 113.13726562 187.6875 112.3125 C187.8421875 110.1778125 187.8421875 110.1778125 188 108 C184.37 108 180.74 108 177 108 C175.86988348 105.7941576 174.74584212 103.58554973 173.625 101.375 C173.30789063 100.75753906 172.99078125 100.14007813 172.6640625 99.50390625 C170.76407197 95.74350833 169.23211496 92.04482184 168 88 C170.50891408 87.1971475 172.44061053 87.0088788 175.1015625 87.0625 C185.81372341 86.89076195 196.63392971 84.6017682 204.859375 77.48828125 C211.71039707 69.52459319 213.91549092 64.25897066 213.5 53.625 C213.48453125 52.00658203 213.48453125 52.00658203 213.46875 50.35546875 C213.49582877 44.32616292 213.49582877 44.32616292 211 39 C210.47265625 37.09765625 210.47265625 37.09765625 210.0625 35.0625 C209.29568318 31.71917867 208.23954233 29.64673185 206 27 C206 26.34 206 25.68 206 25 C205.34 25 204.68 25 204 25 C204.144375 24.443125 204.28875 23.88625 204.4375 23.3125 C205.02769128 20.88615805 205.523429 18.45093655 206 16 C204.16299211 15.22757731 204.16299211 15.22757731 202 15 C199.74015575 16.73834173 198.60199072 18.59701393 197 21 C196.34 21 195.68 21 195 21 C195 19.68 195 18.36 195 17 C195.66 17 196.32 17 197 17 C197.28875 16.360625 197.5775 15.72125 197.875 15.0625 C199 13 199 13 201 12 C204 11.75 204 11.75 207 12 C209.45410358 15.68115537 209.23287843 17.65293598 209 22 C208.67 22.99 208.34 23.98 208 25 C208.763125 25.61875 209.52625 26.2375 210.3125 26.875 C213.49581161 30.00420433 214.32986218 33.55824461 215.421875 37.79296875 C215.92438316 40.02040955 215.92438316 40.02040955 217 42 C217.35211678 46.01330762 217.37118829 50.03577871 217.4375 54.0625 C217.48326172 55.17044922 217.52902344 56.27839844 217.57617188 57.41992188 C217.68446933 65.38213927 216.14707819 69.94216562 211 76 C210.37996094 76.79792969 209.75992188 77.59585938 209.12109375 78.41796875 C200.7223068 87.24546408 190.92423212 90.53245207 179.02929688 90.95092773 C177.35314635 90.98574453 175.67650657 90.99569575 174 91 C174.61855631 92.6274637 175.24507305 94.25190356 175.875 95.875 C176.39707031 97.23238281 176.39707031 97.23238281 176.9296875 98.6171875 C177.88530895 101.12217007 177.88530895 101.12217007 180 103 C182.00538329 103.22282037 184.01299827 103.44187467 186.02734375 103.55859375 C188.59558807 104.1332702 189.46158209 104.87131298 191 107 C191.95905909 110.8054973 191.92268566 114.19003391 191 118 C187.26120689 122.73730613 182.75848943 126.63567121 176.6875 127.4375 C173 127 173 127 170.0625 124.4375 C167.59152923 121.00740242 167.44581126 118.19600048 168 114 C168.99 112.515 168.99 112.515 170 111 C167.69 108.03 165.38 105.06 163 102 C156.25425226 107.29818857 156.25425226 107.29818857 151 114 C151 115.19625 151 116.3925 151 117.625 C151 121 151 121 148.4375 123.9375 C144.88555703 126.43793537 142.34311316 126.65146697 138 126 C133.8715602 124.60936764 129.89584278 122.94792139 126 121 C125.625 117.8125 125.625 117.8125 126 114 C129.27677199 110.32362167 130.62500165 109.09649111 135.5625 108.75 C139.06480071 108.37586367 139.06480071 108.37586367 140.5546875 105.94921875 C141.81077431 103.66768254 142.95457528 101.38472459 144 99 C144.66 99 145.32 99 146 99 C146.433125 98.1028125 146.433125 98.1028125 146.875 97.1875 C148 95 148 95 150 92 C148.75476563 92.16113281 147.50953125 92.32226562 146.2265625 92.48828125 C137.63422789 93.33729647 129.00010831 93.19426391 120.375 93.1875 C119.43555542 93.1882251 118.49611084 93.1889502 117.52819824 93.18969727 C94.32614713 93.18774678 71.16930656 92.14717662 48 91 C48.67476453 93.61915425 49.38274874 96.22060478 50.11328125 98.82421875 C50.29991333 99.56377808 50.48654541 100.3033374 50.67883301 101.06530762 C51.84913124 105.12180657 52.34245951 106.59796096 56.07617188 108.88085938 C59.16937947 109.86867783 59.16937947 109.86867783 62.35546875 110.39453125 C65 111 65 111 67 114 C67 116.375 67 116.375 66 119 C64.00877115 120.99122885 62.29550538 122.43597642 60 124 C59.31292969 124.47050781 58.62585938 124.94101562 57.91796875 125.42578125 C52.57775568 128.74587869 48.26185342 129.8801802 42 129 C39 128 39 128 37 125 C36.92094936 122.66800612 36.91201231 120.33167378 37 118 C38.32 117.34 39.64 116.68 41 116 C40.3503125 115.09636719 39.700625 114.19273437 39.03125 113.26171875 C38.18713141 112.07057362 37.34340155 110.87915294 36.5 109.6875 C36.07074219 109.09259766 35.64148438 108.49769531 35.19921875 107.88476562 C32 103.33984375 32 103.33984375 32 100 C28.33207571 103.45216403 25.41965171 107.07645874 22.4921875 111.171875 C21 113 21 113 18.125 114.8125 C15.39679717 117.62094409 15.69239006 118.91129924 15.6875 122.75 C15.76772791 124.50126074 15.86439136 126.25215533 16 128 C10.99395393 131.08064374 6.74197092 132.11649435 1 131 C-2.66035929 129.58577027 -5.42729061 127.99070108 -8 125 C-9.05806931 121.43951279 -8.96169993 118.57555102 -8 115 C-5.84157187 112.26599104 -4.03365056 111.27936502 -0.6875 110.375 C3.88966608 109.03534164 6.75720781 107.81779925 9.203125 103.6328125 C11.00090312 100.16901668 12.5394936 96.61741321 14 93 C13.45214844 93.04640625 12.90429688 93.0928125 12.33984375 93.140625 C2.30200471 93.59763231 -9.06825717 91.42200769 -17 85 C-18.828125 82.1953125 -18.828125 82.1953125 -20.25 79.125 C-20.72953125 78.11695313 -21.2090625 77.10890625 -21.703125 76.0703125 C-26.36130701 65.04220689 -29.73057333 51.2332789 -26.2421875 39.4375 C-23.41463883 33.55976103 -19.18008426 28.88333889 -14.125 24.8125 C-13.30257813 24.13832031 -12.48015625 23.46414062 -11.6328125 22.76953125 C-8.82521803 20.88252785 -6.24123021 19.92134095 -3 19 C-3.05220703 17.82244141 -3.05220703 17.82244141 -3.10546875 16.62109375 C-3.27019021 10.22833246 -3.07880961 5.64448429 0 0 Z " fill="#111111" transform="translate(373,156)"/>
<path d="M0 0 C4.48035444 2.19944673 6.86312614 4.50131818 9 9 C9.35367418 10.32808263 9.69075297 11.66087523 10 13 C13.29164829 13.02895225 16.58326399 13.0467823 19.875 13.0625 C20.81214844 13.07087891 21.74929688 13.07925781 22.71484375 13.08789062 C23.61074219 13.09111328 24.50664062 13.09433594 25.4296875 13.09765625 C26.25710449 13.10289307 27.08452148 13.10812988 27.93701172 13.11352539 C30.06411757 13.13352138 30.06411757 13.13352138 32 12 C34.67279121 11.86251074 37.31764159 11.78740165 39.9921875 11.76171875 C40.82543549 11.75210617 41.65868347 11.74249359 42.5171814 11.73258972 C45.30316181 11.7074249 48.08891798 11.69521849 50.875 11.6875 C51.83063843 11.68421692 52.78627686 11.68093384 53.77087402 11.67755127 C70.65702422 11.65903958 87.41900271 12.55652682 104.25 13.875 C105.38177673 13.96204193 106.51355347 14.04908386 107.67962646 14.13876343 C110.91758477 14.3919673 114.15420922 14.65752937 117.390625 14.9296875 C118.34722015 15.00688522 119.30381531 15.08408295 120.28939819 15.16362 C125.71787683 15.64560135 130.74944789 16.53178152 136 18 C136 18.66 136 19.32 136 20 C135.23341064 19.93941406 134.46682129 19.87882812 133.67700195 19.81640625 C123.91502739 19.05403833 114.1475677 18.39102443 104.37695312 17.75 C103.15298828 17.6675 101.92902344 17.585 100.66796875 17.5 C99.57766357 17.4278125 98.4873584 17.355625 97.36401367 17.28125 C95.02011419 17.08528714 92.6820129 16.81097232 90.35375977 16.47705078 C84.80791746 15.76402986 79.25475001 15.8571054 73.671875 15.8671875 C72.48764954 15.86623077 71.30342407 15.86527405 70.08331299 15.86428833 C67.57865343 15.86360956 65.07399209 15.86544267 62.56933594 15.86962891 C58.80399432 15.87492407 55.03877515 15.86970337 51.2734375 15.86328125 C44.18151374 15.85965013 37.09129261 15.90578003 30 16 C28.95835693 16.01325317 27.91671387 16.02650635 26.84350586 16.04016113 C24.02451162 16.08786082 21.20847362 16.16562953 18.390625 16.2578125 C17.572453 16.27141815 16.75428101 16.2850238 15.91131592 16.29904175 C13.41094517 16.35993438 13.41094517 16.35993438 10 17 C8.14441276 18.93457108 8.14441276 18.93457108 7 21 C6.01 21 5.02 21 4 21 C4.52268466 18.23723823 5.10869587 15.6739124 6 13 C5.72230092 10.6593935 5.39460023 8.32375692 5 6 C0.0585102 4.02340408 -3.75227983 3.3978026 -9 4 C-12.18926611 7.48825981 -12 9.13135166 -12 14 C-20.58 14.33 -29.16 14.66 -38 15 C-38.33 14.34 -38.66 13.68 -39 13 C-31.2441657 11.29005228 -23.93396732 10.75076542 -16 11 C-15.855625 10.236875 -15.71125 9.47375 -15.5625 8.6875 C-14.46376812 3.43800322 -14.46376812 3.43800322 -12.2421875 1.33984375 C-8.34642871 -0.98810967 -4.39323996 -0.62463127 0 0 Z " fill="#1D1D1D" transform="translate(431,156)"/>
<path d="M0 0 C4.48035444 2.19944673 6.86312614 4.50131818 9 9 C9.495 10.98 9.495 10.98 10 13 C15.94 13.33 21.88 13.66 28 14 C28 14.33 28 14.66 28 15 C22.06 15 16.12 15 10 15 C9.34 16.32 8.68 17.64 8 19 C7.67 19.66 7.34 20.32 7 21 C6.01 21 5.02 21 4 21 C4.52268466 18.23723823 5.10869587 15.6739124 6 13 C5.72230092 10.6593935 5.39460023 8.32375692 5 6 C0.0585102 4.02340408 -3.75227983 3.3978026 -9 4 C-12.18926611 7.48825981 -12 9.13135166 -12 14 C-20.58 14.33 -29.16 14.66 -38 15 C-38.33 14.34 -38.66 13.68 -39 13 C-31.2441657 11.29005228 -23.93396732 10.75076542 -16 11 C-15.855625 10.236875 -15.71125 9.47375 -15.5625 8.6875 C-14.46376812 3.43800322 -14.46376812 3.43800322 -12.2421875 1.33984375 C-8.34642871 -0.98810967 -4.39323996 -0.62463127 0 0 Z " fill="#131313" transform="translate(431,156)"/>
<path d="M0 0 C2.45410358 3.68115537 2.23287843 5.65293598 2 10 C1.67 10.99 1.34 11.98 1 13 C1.763125 13.61875 2.52625 14.2375 3.3125 14.875 C6.49581161 18.00420433 7.32986218 21.55824461 8.421875 25.79296875 C8.92438316 28.02040955 8.92438316 28.02040955 10 30 C10.084915 31.8863912 10.107193 33.77578515 10.09765625 35.6640625 C10.09443359 36.78554687 10.09121094 37.90703125 10.08789062 39.0625 C10.07951172 40.238125 10.07113281 41.41375 10.0625 42.625 C10.05798828 43.80835938 10.05347656 44.99171875 10.04882812 46.2109375 C10.03701467 49.14067507 10.02054258 52.07031272 10 55 C8.02 55.495 8.02 55.495 6 56 C6.01047363 55.22809326 6.02094727 54.45618652 6.03173828 53.66088867 C6.07326454 50.16979212 6.09931557 46.67874751 6.125 43.1875 C6.14175781 41.97255859 6.15851562 40.75761719 6.17578125 39.50585938 C6.18222656 38.34248047 6.18867187 37.17910156 6.1953125 35.98046875 C6.20578613 34.90692139 6.21625977 33.83337402 6.22705078 32.72729492 C6.20315543 29.78066259 6.20315543 29.78066259 4 27 C3.47265625 25.09765625 3.47265625 25.09765625 3.0625 23.0625 C2.29568318 19.71917867 1.23954233 17.64673185 -1 15 C-1 14.34 -1 13.68 -1 13 C-1.66 13 -2.32 13 -3 13 C-2.855625 12.443125 -2.71125 11.88625 -2.5625 11.3125 C-1.97230872 8.88615805 -1.476571 6.45093655 -1 4 C-2.83700789 3.22757731 -2.83700789 3.22757731 -5 3 C-7.25984425 4.73834173 -8.39800928 6.59701393 -10 9 C-10.66 9 -11.32 9 -12 9 C-12 7.68 -12 6.36 -12 5 C-11.34 5 -10.68 5 -10 5 C-9.71125 4.360625 -9.4225 3.72125 -9.125 3.0625 C-7.02490162 -0.78768037 -4.05205235 -0.33767103 0 0 Z " fill="#222222" transform="translate(580,168)"/>
<path d="M0 0 C5.77481791 -0.48123483 10.26953246 0.47661728 15 4 C16.93551992 7.11661994 17.20289203 9.34794339 17 13 C16.34 13 15.68 13 15 13 C14.62875 11.906875 14.2575 10.81375 13.875 9.6875 C12.57260133 6.64652197 12.05031813 6.03281617 9.125 4.125 C6.39495733 3.14218464 3.86592693 2.42145984 1 2 C-0.37004923 8.85024615 -0.37004923 15.14975385 1 22 C0.443125 22.13535156 -0.11375 22.27070313 -0.6875 22.41015625 C-6.46987964 24.04133429 -10.07758864 26.38479861 -14.37109375 30.57421875 C-16 32 -16 32 -18 32 C-18.2475 32.639375 -18.495 33.27875 -18.75 33.9375 C-20 36 -20 36 -22.125 36.75 C-22.74375 36.8325 -23.3625 36.915 -24 37 C-22.42525801 33.1347242 -20.02964023 30.832055 -17 28 C-16.37480469 27.40445313 -15.74960937 26.80890625 -15.10546875 26.1953125 C-11.26801011 22.65868714 -8.22717602 20.1761146 -3 19 C-3.05220703 17.82244141 -3.05220703 17.82244141 -3.10546875 16.62109375 C-3.27019021 10.22833246 -3.07880961 5.64448429 0 0 Z " fill="#0C0C0C" transform="translate(373,156)"/>
<path d="M0 0 C0 0.66 0 1.32 0 2 C-0.71027344 2.27714844 -1.42054688 2.55429687 -2.15234375 2.83984375 C-3.53099609 3.38318359 -3.53099609 3.38318359 -4.9375 3.9375 C-5.85402344 4.29714844 -6.77054687 4.65679687 -7.71484375 5.02734375 C-9.92418533 5.7996218 -9.92418533 5.7996218 -11 7 C-11.28309917 9.92535811 -11.47978275 12.15557372 -11 15 C-8.66160743 17.49428541 -6.87026214 17.9166625 -3.51171875 18.23828125 C-0.95084612 18.30869598 1.46050211 18.34609086 4 18 C6.25714799 16.20280375 6.25714799 16.20280375 6.0546875 13.72265625 C5.93504674 11.95145277 5.81005907 10.18060222 5.6796875 8.41015625 C6 6 6 6 8.0078125 4.18359375 C8.99394531 3.59771484 8.99394531 3.59771484 10 3 C10.66 3.33 11.32 3.66 12 4 C11.34 4.66 10.68 5.32 10 6 C9.75639927 9.12814514 9.75639927 9.12814514 9.875 12.625 C9.90207031 14.40777344 9.90207031 14.40777344 9.9296875 16.2265625 C9.95289063 17.14179688 9.97609375 18.05703125 10 19 C4.99395393 22.08064374 0.74197092 23.11649435 -5 22 C-8.66035929 20.58577027 -11.42729061 18.99070108 -14 16 C-15.0562633 12.44559015 -14.98643148 9.56585789 -14 6 C-10.16916893 1.62190735 -5.72272131 0 0 0 Z " fill="#090909" transform="translate(379,265)"/>
<path d="M0 0 C1.75570313 0.04060547 1.75570313 0.04060547 3.546875 0.08203125 C4.43890625 0.11683594 5.3309375 0.15164062 6.25 0.1875 C5.92 0.8475 5.59 1.5075 5.25 2.1875 C3.13363372 2.50233135 1.00551785 2.73996854 -1.125 2.9375 C-6.2909342 3.51444552 -6.2909342 3.51444552 -10.0625 6.8125 C-10.91800707 11.012262 -11.29488692 13.89651549 -10.75 18.1875 C-8.00230393 21.81256747 -6.49662571 23.04745932 -1.98046875 23.89453125 C-0.63365134 23.95365982 0.71443526 23.98838987 2.0625 24 C2.75537109 24.02513672 3.44824219 24.05027344 4.16210938 24.07617188 C5.85747122 24.13463263 7.55379287 24.16403047 9.25 24.1875 C8.92 25.1775 8.59 26.1675 8.25 27.1875 C5.68508544 27.12721999 3.12578243 27.04012053 0.5625 26.9375 C-0.15873047 26.92332031 -0.87996094 26.90914062 -1.62304688 26.89453125 C-6.51162977 26.67130829 -9.22941602 25.87637193 -12.75 22.1875 C-14.57486599 16.71290202 -14.46726665 11.1599833 -12.5 5.75 C-8.96117462 0.56814855 -6.21796425 -0.18653893 0 0 Z " fill="#171717" transform="translate(383.75,192.8125)"/>
<path d="M0 0 C0.66 0.33 1.32 0.66 2 1 C1.566875 1.804375 1.566875 1.804375 1.125 2.625 C-0.65946551 6.39220496 -2 9.80734719 -2 14 C-10.58 14.33 -19.16 14.66 -28 15 C-28.33 14.34 -28.66 13.68 -29 13 C-21.2441657 11.29005228 -13.93396732 10.75076542 -6 11 C-5.855625 10.236875 -5.71125 9.47375 -5.5625 8.6875 C-4.62559525 4.2111773 -3.76444884 2.5501105 0 0 Z " fill="#1C1C1C" transform="translate(421,156)"/>
<path d="M0 0 C0.74507813 0.00902344 1.49015625 0.01804688 2.2578125 0.02734375 C4.08868059 0.05081642 5.91938238 0.08668475 7.75 0.125 C7.42 1.115 7.09 2.105 6.75 3.125 C-5.6002912 4.02087605 -17.86922367 4.24022956 -30.25 4.125 C-30.25 3.795 -30.25 3.465 -30.25 3.125 C-28.99703125 3.07601562 -27.7440625 3.02703125 -26.453125 2.9765625 C-24.80206179 2.90151417 -23.15102119 2.82596723 -21.5 2.75 C-20.675 2.7190625 -19.85 2.688125 -19 2.65625 C-18.20078125 2.61757812 -17.4015625 2.57890625 -16.578125 2.5390625 C-15.47839355 2.49193115 -15.47839355 2.49193115 -14.35644531 2.44384766 C-12.1940689 2.22725505 -12.1940689 2.22725505 -10.22265625 1.11132812 C-6.99053464 -0.50473268 -3.53275345 -0.08114098 0 0 Z " fill="#252525" transform="translate(471.25,167.875)"/>
<path d="M0 0 C2.45811625 3.68717438 2.31118164 5.64345704 2 10 C1.01 11.485 1.01 11.485 0 13 C-0.99 13 -1.98 13 -3 13 C-2.855625 12.443125 -2.71125 11.88625 -2.5625 11.3125 C-1.97230872 8.88615805 -1.476571 6.45093655 -1 4 C-2.83700789 3.22757731 -2.83700789 3.22757731 -5 3 C-7.25984425 4.73834173 -8.39800928 6.59701393 -10 9 C-10.66 9 -11.32 9 -12 9 C-12 7.68 -12 6.36 -12 5 C-11.34 5 -10.68 5 -10 5 C-9.71125 4.360625 -9.4225 3.72125 -9.125 3.0625 C-7.02490162 -0.78768037 -4.05205235 -0.33767103 0 0 Z " fill="#0F0F0F" transform="translate(580,168)"/>
<path d="M0 0 C0.66 0.33 1.32 0.66 2 1 C-0.32216997 5.51533049 -2.98560245 8.01055501 -7 11 C-7.66 11 -8.32 11 -9 11 C-9.2475 11.639375 -9.495 12.27875 -9.75 12.9375 C-11 15 -11 15 -13.125 15.75 C-14.053125 15.87375 -14.053125 15.87375 -15 16 C-12.22625482 9.19171638 -5.43482117 4.67961029 0 0 Z " fill="#1D1D1D" transform="translate(364,177)"/>
<path d="M0 0 C0.99 0 1.98 0 3 0 C3 2.64 3 5.28 3 8 C3.66 8 4.32 8 5 8 C5 5.69 5 3.38 5 1 C5.99 1 6.98 1 8 1 C8.1953125 7.0546875 8.1953125 7.0546875 8 9 C7.34 9.66 6.68 10.32 6 11 C3.06546739 10.63318342 2.13562754 10.13562754 0 8 C-0.26991906 5.31160615 -0.08737357 2.70858064 0 0 Z " fill="#0F0F0F" transform="translate(444,188)"/>
<path d="M0 0 C0.66 0 1.32 0 2 0 C2.25 7.625 2.25 7.625 0 11 C-2.31 10.67 -4.62 10.34 -7 10 C-7 7.03 -7 4.06 -7 1 C-6.34 1 -5.68 1 -5 1 C-4.67 2.98 -4.34 4.96 -4 7 C-3.01 6.67 -2.02 6.34 -1 6 C-0.67 4.02 -0.34 2.04 0 0 Z " fill="#0C0C0C" transform="translate(504,215)"/>
<path d="M0 0 C-0.5 1.9375 -0.5 1.9375 -2 4 C-4.00124965 4.3227822 -6.00756504 4.63630773 -8.02734375 4.80859375 C-10.51704792 5.05016901 -12.06468183 5.37433274 -14 7 C-14.81584568 10.05908413 -14.81584568 10.05908413 -15 13 C-15.33 13 -15.66 13 -16 13 C-16.375 9.8125 -16.375 9.8125 -16 6 C-12.73967008 2.34206887 -11.10058955 1.24250278 -6.3125 0.1875 C-4.21076959 0.06853413 -2.10509468 0 0 0 Z " fill="#1D1D1D" transform="translate(515,264)"/>
<path d="M0 0 C0.66 0 1.32 0 2 0 C2.1953125 6.0546875 2.1953125 6.0546875 2 8 C1.34 8.66 0.68 9.32 0 10 C-3.53571429 9.46428571 -3.53571429 9.46428571 -5 8 C-5.04080783 6.00041636 -5.04254356 3.99954746 -5 2 C-4.34 2 -3.68 2 -3 2 C-3 3.32 -3 4.64 -3 6 C-2.34 5.67 -1.68 5.34 -1 5 C-0.34444881 2.47266765 -0.34444881 2.47266765 0 0 Z " fill="#080808" transform="translate(435,199)"/>
<path d="M0 0 C0.99 0 1.98 0 3 0 C3.33 1.65 3.66 3.3 4 5 C4.99 5 5.98 5 7 5 C7.33 3.68 7.66 2.36 8 1 C8.625 2.8125 8.625 2.8125 9 5 C8.01 6.485 8.01 6.485 7 8 C4.625 7.6875 4.625 7.6875 2 7 C0 4 0 4 0 0 Z " fill="#1C1C1C" transform="translate(567,221)"/>
<path d="M0 0 C0.66 0 1.32 0 2 0 C2.33 1.65 2.66 3.3 3 5 C3.66 4.67 4.32 4.34 5 4 C5.65213292 1.97536745 5.65213292 1.97536745 6 0 C6.66 0 7.32 0 8 0 C8.125 2.875 8.125 2.875 8 6 C7.34 6.66 6.68 7.32 6 8 C3.06546739 7.63318342 2.13562754 7.13562754 0 5 C-0.125 2.375 -0.125 2.375 0 0 Z " fill="#1D1D1D" transform="translate(532,190)"/>
<path d="M0 0 C3.37462715 0.54723683 5.08235 1.0549 8 3 C9.99767079 6.04907647 10.20016822 8.39697197 10 12 C9.34 12 8.68 12 8 12 C7.62875 10.906875 7.2575 9.81375 6.875 8.6875 C5.5201201 5.45411511 5.02341962 5.01423545 1.8125 3.0625 C0.884375 2.711875 -0.04375 2.36125 -1 2 C-0.67 1.34 -0.34 0.68 0 0 Z " fill="#262626" transform="translate(380,157)"/>
<path d="M0 0 C0.33 0.99 0.66 1.98 1 3 C-0.58203125 5.69921875 -0.58203125 5.69921875 -2.8125 8.6875 C-3.90498047 10.17830078 -3.90498047 10.17830078 -5.01953125 11.69921875 C-5.99986328 12.83810547 -5.99986328 12.83810547 -7 14 C-7.66 14 -8.32 14 -9 14 C-7.80100302 10.9168649 -6.52299523 7.93720508 -5 5 C-4.34 5 -3.68 5 -3 5 C-2.690625 4.360625 -2.38125 3.72125 -2.0625 3.0625 C-1 1 -1 1 0 0 Z " fill="#1B1B1B" transform="translate(522,250)"/>
<path d="M0 0 C2 3 2 3 2 6 C-1.3 6.66 -4.6 7.32 -8 8 C-5.76511761 3.53023521 -5.34120361 3.55838078 -1 2 C-0.67 1.34 -0.34 0.68 0 0 Z " fill="#131313" transform="translate(372,172)"/>
<path d="M0 0 C0.99 0.33 1.98 0.66 3 1 C1.68 3.64 0.36 6.28 -1 9 C-1.66 9 -2.32 9 -3 9 C-3 8.34 -3 7.68 -3 7 C-3.66 6.67 -4.32 6.34 -5 6 C-4.01 5.67 -3.02 5.34 -2 5 C-0.78130071 2.49552484 -0.78130071 2.49552484 0 0 Z " fill="#242424" transform="translate(382,258)"/>
<path d="M0 0 C0.66 0.33 1.32 0.66 2 1 C1.34 2.32 0.68 3.64 0 5 C-0.66 5 -1.32 5 -2 5 C-2.33 6.98 -2.66 8.96 -3 11 C-3.33 11 -3.66 11 -4 11 C-4.49230769 4.6 -4.49230769 4.6 -2 1.5625 C-1.34 1.046875 -0.68 0.53125 0 0 Z " fill="#3F3F3F" transform="translate(503,266)"/>
<path d="M0 0 C1.32 0.33 2.64 0.66 4 1 C3.67 2.32 3.34 3.64 3 5 C2.01 4.67 1.02 4.34 0 4 C0 2.68 0 1.36 0 0 Z " fill="#1E1E1E" transform="translate(411,190)"/>
</svg>
