<?xml version="1.0" encoding="UTF-8"?>
<svg version="1.1" xmlns="http://www.w3.org/2000/svg" width="800" height="300">
<path d="M0 0 C264 0 528 0 800 0 C800 99 800 198 800 300 C536 300 272 300 0 300 C0 201 0 102 0 0 Z " fill="#FEFEFE" transform="translate(0,0)"/>
<path d="M0 0 C5.74443119 -0.4787026 10.42332391 0.24795023 15 4 C16.53080867 6.67381248 17.1957631 8.98411162 18 12 C19.07314453 11.89171875 19.07314453 11.89171875 20.16796875 11.78125 C27.80033532 11.07034393 35.3373816 10.88876844 43 11 C43.13664062 10.06929687 43.27328125 9.13859375 43.4140625 8.1796875 C44.15552124 4.15603809 44.79498103 2.59453917 48 0 C52.60783128 -0.97122276 56.93660328 -1.03901537 61.203125 1.109375 C65.56885427 4.52124745 66.65645301 7.59366975 68 13 C71.12497937 13.02956676 74.24992177 13.04698543 77.375 13.0625 C78.24511719 13.07087891 79.11523438 13.07925781 80.01171875 13.08789062 C80.88183594 13.09111328 81.75195312 13.09433594 82.6484375 13.09765625 C83.82672119 13.10551147 83.82672119 13.10551147 85.02880859 13.11352539 C87.63239674 13.01404565 90.16322946 12.78545078 92.75195312 12.5065918 C97.61921972 11.99995039 102.42925009 11.82393392 107.3203125 11.796875 C108.1738179 11.79004196 109.0273233 11.78320892 109.9066925 11.77616882 C112.64616928 11.75920751 115.38547383 11.75284565 118.125 11.75 C119.06207794 11.74799591 119.99915588 11.74599182 120.96463013 11.743927 C134.71339344 11.73672816 147.87627111 12.57161977 161.47412109 14.66259766 C167.92944642 15.52488836 174.46091295 15.64004061 180.96240234 15.90283203 C184.93341579 16.09219979 188.88928024 16.45554448 192.84765625 16.81640625 C194.97210061 17.02833027 194.97210061 17.02833027 197 17 C197.28875 16.360625 197.5775 15.72125 197.875 15.0625 C199 13 199 13 201 12 C204 11.8125 204 11.8125 207 12 C209 14 209 14 209.1875 17.9375 C209.16190316 20.67636155 208.88664156 22.34007532 208 25 C208.763125 25.61875 209.52625 26.2375 210.3125 26.875 C213.49581161 30.00420433 214.32986218 33.55824461 215.421875 37.79296875 C215.92438316 40.02040955 215.92438316 40.02040955 217 42 C217.35263045 46.2010453 217.37115745 50.41110431 217.4375 54.625 C217.48326172 55.78902344 217.52902344 56.95304687 217.57617188 58.15234375 C217.66481443 64.95855064 217.20112427 69.23009168 212.59301758 74.39013672 C212.06732178 74.9213916 211.54162598 75.45264648 211 76 C210.24976563 76.86109375 209.49953125 77.7221875 208.7265625 78.609375 C200.62875886 86.85769544 192.79452919 90.63956848 181.140625 91.1171875 C178.75618773 91.1239232 176.38250476 91.09124486 174 91 C174.62146808 92.43903046 175.24732059 93.87616793 175.875 95.3125 C176.39707031 96.51326172 176.39707031 96.51326172 176.9296875 97.73828125 C178.02571894 100.1961834 178.02571894 100.1961834 180 103 C182.09843326 103.46930149 182.09843326 103.46930149 184.4375 103.5 C187.10554983 103.60549126 188.55030264 103.68037206 190.7421875 105.23828125 C192.84331881 108.18117013 192.70763407 110.82802701 192.625 114.35546875 C191.22632397 120.27361668 185.82919643 123.78053572 181 127 C177.06665768 127.43703804 174.66173912 127.30975023 171.0625 125.625 C167.92082673 121.62650674 168.64721716 117.89192208 169 113 C169.03620728 108.73134966 169.03620728 108.73134966 166.5 105.875 C164 103 164 103 164 101 C159.16019671 104.77740744 154.35670524 108.80156268 151 114 C150.96045766 116.33299825 150.95598268 118.66708189 151 121 C147.7459891 124.8234628 146.20515527 125.79914079 141.25 126.625 C135.95845347 126.31735195 131.51029759 123.58787566 127 121 C126.63432836 114.66169154 126.63432836 114.66169154 128.3125 111.625 C131.73085985 108.33324607 135.51834178 108.91544041 140 109 C140.25523437 108.29488281 140.51046875 107.58976562 140.7734375 106.86328125 C142.11550522 103.7303652 143.76729867 101.04285575 145.625 98.1875 C146.25664062 97.21167969 146.88828125 96.23585938 147.5390625 95.23046875 C148.02117187 94.49441406 148.50328125 93.75835937 149 93 C148.67 92.67 148.34 92.34 148 92 C146.09280078 92.23151662 144.18605413 92.4679791 142.28295898 92.73110962 C138.61697857 93.16289437 134.96886463 93.16224504 131.28125 93.16796875 C130.44519226 93.17202225 129.60913452 93.17607574 128.7477417 93.18025208 C125.99845607 93.18974507 123.24929993 93.1896363 120.5 93.1875 C119.5555603 93.1882251 118.61112061 93.1889502 117.63806152 93.18969727 C94.39912207 93.18775185 71.20615386 92.14900103 48 91 C48.3609375 92.05960937 48.721875 93.11921875 49.09375 94.2109375 C49.56265793 95.59890499 50.03139931 96.98692875 50.5 98.375 C50.85771484 99.42300781 50.85771484 99.42300781 51.22265625 100.4921875 C53 105.7734375 53 105.7734375 53 108 C53.67546875 108.03738281 54.3509375 108.07476562 55.046875 108.11328125 C55.93890625 108.17902344 56.8309375 108.24476563 57.75 108.3125 C58.63171875 108.37050781 59.5134375 108.42851562 60.421875 108.48828125 C63.37638417 109.07470655 64.8336774 109.9276503 67 112 C67.625 114.875 67.625 114.875 67 118 C65.00707574 120.04402488 63.31459112 121.40752305 61 123 C60.33484375 123.54269531 59.6696875 124.08539063 58.984375 124.64453125 C53.72729034 128.68189663 49.8868308 129.61500059 43.28515625 129.30859375 C41 129 41 129 39 128 C37.75424694 124.26274081 37.51106557 120.91147543 38 117 C39.5 115 39.5 115 41 114 C39.515 113.01 39.515 113.01 38 112 C34 106.3277592 34 106.3277592 34 103 C33.34 103 32.68 103 32 103 C32 102.01 32 101.02 32 100 C31.34 100 30.68 100 30 100 C29.62875 100.8353125 29.62875 100.8353125 29.25 101.6875 C25.79555004 108.07823243 20.18599516 113.92172581 15 119 C15.66 119 16.32 119 17 119 C17.29248736 121.92487357 17.5056137 124.1511658 17 127 C13.83543381 130.24570891 11.04714219 131.25475121 6.625 131.5 C0.91788435 131.24892554 -3.97050488 129.02949512 -8 125 C-8.81883392 121.52464382 -8.87433325 118.46553906 -8 115 C-4.47516165 111.10050422 -0.63166979 109.17175471 4.5625 108.625 C5.7690625 108.810625 5.7690625 108.810625 7 109 C7.3403125 107.824375 7.3403125 107.824375 7.6875 106.625 C9.40660933 101.87698375 11.68084721 97.47897448 14 93 C12.89205078 92.92652344 12.89205078 92.92652344 11.76171875 92.8515625 C-10.47264301 91.21294372 -10.47264301 91.21294372 -17 84 C-25.23676171 71.65402977 -28.70943772 56.77442599 -27 42 C-23.67210118 32.44260462 -15.19824454 25.48257604 -7 20 C-4.1875 19.265625 -4.1875 19.265625 -2 19 C-2.33 18.01 -2.66 17.02 -3 16 C-3.61767656 9.87074793 -2.79102638 5.46575999 0 0 Z " fill="#FBFBFB" transform="translate(365,156)"/>
<path d="M0 0 C5.77481791 -0.48123483 10.26953246 0.47661728 15 4 C16.93551992 7.11661994 17.20289203 9.34794339 17 13 C16.34 13 15.68 13 15 13 C14.505 9.535 14.505 9.535 14 6 C13.030625 5.690625 12.06125 5.38125 11.0625 5.0625 C8 4 8 4 7 3 C5.33382885 2.95936168 3.66611905 2.957279 2 3 C0.17144572 7.59232335 -0.12514462 10.97358268 0.375 15.875 C0.48585938 17.02742188 0.59671875 18.17984375 0.7109375 19.3671875 C0.80632812 20.23601562 0.90171875 21.10484375 1 22 C-0.2375 22.268125 -1.475 22.53625 -2.75 22.8125 C-10.85706723 25.52342106 -18.92295186 32.9220231 -22.75 40.5625 C-26.68099765 52.03294954 -22.40916427 64.56930147 -17.54296875 75.17578125 C-14.70365071 80.23261417 -12.14962828 83.11669686 -7 86 C-4.35850181 86.71563602 -1.93072079 87.26735351 0.75 87.6875 C1.44867188 87.80778564 2.14734375 87.92807129 2.8671875 88.05200195 C8.21951543 88.94755405 13.58500224 89.62251218 19 90 C19.33 90.99 19.66 91.98 20 93 C18.68 93 17.36 93 16 93 C15.8453125 93.77150391 15.8453125 93.77150391 15.6875 94.55859375 C13.98761676 100.59511092 11.0962632 108.9551982 5.7109375 112.51171875 C3.46481236 113.22161449 1.32708304 113.65637465 -1 114 C-2.67363977 114.64896236 -4.34461042 115.30580437 -6 116 C-5.93919474 120.10068198 -5.93919474 120.10068198 -5 124 C-0.03206241 127.24436741 4.17047893 127.38863474 10 127 C10.99 126.67 11.98 126.34 13 126 C12.7525 124.91332031 12.7525 124.91332031 12.5 123.8046875 C11.97362345 120.72044988 11.6727166 118.11780499 12 115 C13.80877692 112.87512614 15.63168684 111.6970523 18.0078125 110.25 C20.64856359 108.59305814 21.56460893 106.74029204 23 104 C23.9502911 102.54325004 24.93222214 101.10686254 25.9375 99.6875 C26.42089844 98.99011719 26.90429688 98.29273438 27.40234375 97.57421875 C29 96 29 96 33 96 C34.67578125 98.125 34.67578125 98.125 36.3125 101 C39.41564646 106.19206108 42.85835223 110.60658033 47 115 C45.36587557 116.70840281 44.13093906 117.93453047 42 119 C41.957279 120.66611905 41.95936168 122.33382885 42 124 C43.19503907 125.40523661 43.19503907 125.40523661 46.625 125.375 C50.96600726 125.3594129 53.22131206 123.86063577 56.45703125 121.09375 C58 120 58 120 61 120 C61 119.34 61 118.68 61 118 C61.66 117.67 62.32 117.34 63 117 C63.495 115.515 63.495 115.515 64 114 C62.75283203 113.87044922 62.75283203 113.87044922 61.48046875 113.73828125 C60.39378906 113.59777344 59.30710937 113.45726562 58.1875 113.3125 C57.10855469 113.18488281 56.02960938 113.05726563 54.91796875 112.92578125 C52 112 52 112 50.20703125 109.76171875 C49.00512743 107.01173169 48.18865968 104.41860532 47.5 101.5 C46.4872285 97.49201065 45.19690616 94.51504986 43 91 C43.495 89.515 43.495 89.515 44 88 C56.49369371 87.88201129 68.95068345 88.05371306 81.4375 88.5 C99.15407984 89.12192263 116.75071359 89.26480769 134.45776367 88.3581543 C140.98163245 88.02527325 147.46658781 87.87594787 154 88 C154 91.34050586 153.56494832 91.98685929 151.69921875 94.6171875 C151.21646484 95.30683594 150.73371094 95.99648437 150.23632812 96.70703125 C149.4696582 97.78017578 149.4696582 97.78017578 148.6875 98.875 C147.69007604 100.28812453 146.69394982 101.70216608 145.69921875 103.1171875 C144.9882605 104.11770142 144.9882605 104.11770142 144.26293945 105.13842773 C142.86288396 107.13489136 142.86288396 107.13489136 141.3984375 109.96484375 C140 112 140 112 138.02734375 112.63671875 C137.33769531 112.65347656 136.64804687 112.67023438 135.9375 112.6875 C131.99557113 112.5717978 131.99557113 112.5717978 130 115 C129.3574765 117.06874034 129.3574765 117.06874034 129 119 C137.37514394 121.8222318 137.37514394 121.8222318 146 121 C146 119.68 146 118.36 146 117 C146 113 146 113 147.28515625 111.6484375 C147.87167969 111.22820312 148.45820312 110.80796875 149.0625 110.375 C154.1818431 106.30871933 158.07997767 100.84004467 161 95 C164.34871805 96.37763717 165.66730527 97.6453924 167.375 100.8125 C169.73285449 104.84509227 172.2671904 107.22209518 176 110 C175.6875 111.875 175.6875 111.875 175 114 C174.01 114.66 173.02 115.32 172 116 C172.61277612 118.96175123 173.25372522 120.38058783 175 123 C177.77361813 123.71321609 179.36010066 123.35715312 181.84765625 121.96875 C184.76968443 119.80872917 186.67521538 118.16808503 187.66796875 114.59765625 C188.00572767 111.85597288 188.00572767 111.85597288 188 108 C184.37 108 180.74 108 177 108 C175.8439273 105.7965194 174.70015279 103.58796844 173.5625 101.375 C173.23701172 100.75753906 172.91152344 100.14007813 172.57617188 99.50390625 C170.61740372 95.66714389 169.46778742 92.28256092 169 88 C172 87 172 87 173.90991211 87.48168945 C176.38819628 88.09626687 177.95322173 87.81988153 180.44140625 87.29296875 C181.27220703 87.11830078 182.10300781 86.94363281 182.95898438 86.76367188 C184.24772461 86.4784668 184.24772461 86.4784668 185.5625 86.1875 C186.42552734 86.00896484 187.28855469 85.83042969 188.17773438 85.64648438 C192.05334273 84.81234023 194.65049169 84.23300554 198 82 C198.99 82 199.98 82 201 82 C201 81.34 201 80.68 201 80 C202.8386161 78.27087965 204.79526462 76.72584182 206.76171875 75.14453125 C211.37554026 70.7239588 214.21477068 67.31914196 214.6640625 60.7421875 C214.68446858 58.78652145 214.67019241 56.83025031 214.625 54.875 C214.61315674 53.85760742 214.60131348 52.84021484 214.58911133 51.79199219 C214.3082781 42.53702629 212.89641982 33.71440287 206 27 C206 26.34 206 25.68 206 25 C205.34 25 204.68 25 204 25 C204.350625 24.278125 204.70125 23.55625 205.0625 22.8125 C206.10409017 19.6877295 205.89096572 18.11838004 205 15 C202.54775306 15.10613836 202.54775306 15.10613836 200 16 C198.80781158 18.50091962 198.80781158 18.50091962 198 21 C197.10925781 20.87882812 196.21851563 20.75765625 195.30078125 20.6328125 C184.28025497 19.20659295 173.24417074 18.40068189 162.15551758 17.69775391 C160.95822021 17.62089355 159.76092285 17.5440332 158.52734375 17.46484375 C157.46249756 17.399021 156.39765137 17.33319824 155.30053711 17.26538086 C152.97532379 17.07842126 150.65605393 16.8084311 148.34667969 16.47924805 C142.88566481 15.77581636 137.42363321 15.85703235 131.92578125 15.8671875 C130.7661235 15.86623077 129.60646576 15.86527405 128.41166687 15.86428833 C125.95828192 15.86360959 123.50489515 15.86544252 121.05151367 15.86962891 C117.36958569 15.874918 113.68778327 15.86970651 110.00585938 15.86328125 C103.00312076 15.8596195 96.00211433 15.90734175 89 16 C87.93199158 16.01325317 86.86398315 16.02650635 85.76361084 16.04016113 C82.81380371 16.08821397 79.86671261 16.16635229 76.91796875 16.2578125 C76.05053543 16.27141815 75.18310211 16.2850238 74.28938293 16.29904175 C69.65520994 16.39948813 69.65520994 16.39948813 66.06762695 19.04638672 C65.71531006 19.6910791 65.36299316 20.33577148 65 21 C64.34 21 63.68 21 63 21 C63.09539062 20.25234375 63.19078125 19.5046875 63.2890625 18.734375 C63.39992188 17.74953125 63.51078125 16.7646875 63.625 15.75 C63.79902344 14.28820312 63.79902344 14.28820312 63.9765625 12.796875 C64.00157515 9.81203245 63.66859484 8.4429101 62 6 C58.00612008 3.45844005 54.7249056 2.07556195 50 3 C46.47824259 6.98514655 46 8.56387187 46 14 C32.635 14.495 32.635 14.495 19 15 C19 14.34 19 13.68 19 13 C27.07953776 11.18655665 34.73252149 10.76341079 43 11 C43.13664062 10.06929687 43.27328125 9.13859375 43.4140625 8.1796875 C44.15552124 4.15603809 44.79498103 2.59453917 48 0 C52.60783128 -0.97122276 56.93660328 -1.03901537 61.203125 1.109375 C65.56885427 4.52124745 66.65645301 7.59366975 68 13 C71.12497937 13.02956676 74.24992177 13.04698543 77.375 13.0625 C78.24511719 13.07087891 79.11523438 13.07925781 80.01171875 13.08789062 C80.88183594 13.09111328 81.75195312 13.09433594 82.6484375 13.09765625 C83.82672119 13.10551147 83.82672119 13.10551147 85.02880859 13.11352539 C87.63239674 13.01404565 90.16322946 12.78545078 92.75195312 12.5065918 C97.61921972 11.99995039 102.42925009 11.82393392 107.3203125 11.796875 C108.1738179 11.79004196 109.0273233 11.78320892 109.9066925 11.77616882 C112.64616928 11.75920751 115.38547383 11.75284565 118.125 11.75 C119.06207794 11.74799591 119.99915588 11.74599182 120.96463013 11.743927 C134.71339344 11.73672816 147.87627111 12.57161977 161.47412109 14.66259766 C167.92944642 15.52488836 174.46091295 15.64004061 180.96240234 15.90283203 C184.93341579 16.09219979 188.88928024 16.45554448 192.84765625 16.81640625 C194.97210061 17.02833027 194.97210061 17.02833027 197 17 C197.28875 16.360625 197.5775 15.72125 197.875 15.0625 C199 13 199 13 201 12 C204 11.8125 204 11.8125 207 12 C209 14 209 14 209.1875 17.9375 C209.16190316 20.67636155 208.88664156 22.34007532 208 25 C208.763125 25.61875 209.52625 26.2375 210.3125 26.875 C213.49581161 30.00420433 214.32986218 33.55824461 215.421875 37.79296875 C215.92438316 40.02040955 215.92438316 40.02040955 217 42 C217.35263045 46.2010453 217.37115745 50.41110431 217.4375 54.625 C217.48326172 55.78902344 217.52902344 56.95304687 217.57617188 58.15234375 C217.66481443 64.95855064 217.20112427 69.23009168 212.59301758 74.39013672 C212.06732178 74.9213916 211.54162598 75.45264648 211 76 C210.24976563 76.86109375 209.49953125 77.7221875 208.7265625 78.609375 C200.62875886 86.85769544 192.79452919 90.63956848 181.140625 91.1171875 C178.75618773 91.1239232 176.38250476 91.09124486 174 91 C174.62146808 92.43903046 175.24732059 93.87616793 175.875 95.3125 C176.39707031 96.51326172 176.39707031 96.51326172 176.9296875 97.73828125 C178.02571894 100.1961834 178.02571894 100.1961834 180 103 C182.09843326 103.46930149 182.09843326 103.46930149 184.4375 103.5 C187.10554983 103.60549126 188.55030264 103.68037206 190.7421875 105.23828125 C192.84331881 108.18117013 192.70763407 110.82802701 192.625 114.35546875 C191.22632397 120.27361668 185.82919643 123.78053572 181 127 C177.06665768 127.43703804 174.66173912 127.30975023 171.0625 125.625 C167.92082673 121.62650674 168.64721716 117.89192208 169 113 C169.03620728 108.73134966 169.03620728 108.73134966 166.5 105.875 C164 103 164 103 164 101 C159.16019671 104.77740744 154.35670524 108.80156268 151 114 C150.96045766 116.33299825 150.95598268 118.66708189 151 121 C147.7459891 124.8234628 146.20515527 125.79914079 141.25 126.625 C135.95845347 126.31735195 131.51029759 123.58787566 127 121 C126.63432836 114.66169154 126.63432836 114.66169154 128.3125 111.625 C131.73085985 108.33324607 135.51834178 108.91544041 140 109 C140.25523437 108.29488281 140.51046875 107.58976562 140.7734375 106.86328125 C142.11550522 103.7303652 143.76729867 101.04285575 145.625 98.1875 C146.25664062 97.21167969 146.88828125 96.23585938 147.5390625 95.23046875 C148.02117187 94.49441406 148.50328125 93.75835937 149 93 C148.67 92.67 148.34 92.34 148 92 C146.09280078 92.23151662 144.18605413 92.4679791 142.28295898 92.73110962 C138.61697857 93.16289437 134.96886463 93.16224504 131.28125 93.16796875 C130.44519226 93.17202225 129.60913452 93.17607574 128.7477417 93.18025208 C125.99845607 93.18974507 123.24929993 93.1896363 120.5 93.1875 C119.5555603 93.1882251 118.61112061 93.1889502 117.63806152 93.18969727 C94.39912207 93.18775185 71.20615386 92.14900103 48 91 C48.3609375 92.05960937 48.721875 93.11921875 49.09375 94.2109375 C49.56265793 95.59890499 50.03139931 96.98692875 50.5 98.375 C50.85771484 99.42300781 50.85771484 99.42300781 51.22265625 100.4921875 C53 105.7734375 53 105.7734375 53 108 C53.67546875 108.03738281 54.3509375 108.07476562 55.046875 108.11328125 C55.93890625 108.17902344 56.8309375 108.24476563 57.75 108.3125 C58.63171875 108.37050781 59.5134375 108.42851562 60.421875 108.48828125 C63.37638417 109.07470655 64.8336774 109.9276503 67 112 C67.625 114.875 67.625 114.875 67 118 C65.00707574 120.04402488 63.31459112 121.40752305 61 123 C60.33484375 123.54269531 59.6696875 124.08539063 58.984375 124.64453125 C53.72729034 128.68189663 49.8868308 129.61500059 43.28515625 129.30859375 C41 129 41 129 39 128 C37.75424694 124.26274081 37.51106557 120.91147543 38 117 C39.5 115 39.5 115 41 114 C39.515 113.01 39.515 113.01 38 112 C34 106.3277592 34 106.3277592 34 103 C33.34 103 32.68 103 32 103 C32 102.01 32 101.02 32 100 C31.34 100 30.68 100 30 100 C29.62875 100.8353125 29.62875 100.8353125 29.25 101.6875 C25.79555004 108.07823243 20.18599516 113.92172581 15 119 C15.66 119 16.32 119 17 119 C17.29248736 121.92487357 17.5056137 124.1511658 17 127 C13.83543381 130.24570891 11.04714219 131.25475121 6.625 131.5 C0.91788435 131.24892554 -3.97050488 129.02949512 -8 125 C-8.81883392 121.52464382 -8.87433325 118.46553906 -8 115 C-4.47516165 111.10050422 -0.63166979 109.17175471 4.5625 108.625 C5.7690625 108.810625 5.7690625 108.810625 7 109 C7.3403125 107.824375 7.3403125 107.824375 7.6875 106.625 C9.40660933 101.87698375 11.68084721 97.47897448 14 93 C12.89205078 92.92652344 12.89205078 92.92652344 11.76171875 92.8515625 C-10.47264301 91.21294372 -10.47264301 91.21294372 -17 84 C-25.23676171 71.65402977 -28.70943772 56.77442599 -27 42 C-23.67210118 32.44260462 -15.19824454 25.48257604 -7 20 C-4.1875 19.265625 -4.1875 19.265625 -2 19 C-2.33 18.01 -2.66 17.02 -3 16 C-3.61767656 9.87074793 -2.79102638 5.46575999 0 0 Z " fill="#121212" transform="translate(365,156)"/>
<path d="M0 0 C4.36720238 0.86357109 7.28681841 2.85395906 9.765625 6.546875 C10.425625 8.856875 11.085625 11.166875 11.765625 13.546875 C17.705625 13.876875 23.645625 14.206875 29.765625 14.546875 C29.765625 14.876875 29.765625 15.206875 29.765625 15.546875 C23.825625 15.546875 17.885625 15.546875 11.765625 15.546875 C11.105625 17.196875 10.445625 18.846875 9.765625 20.546875 C8.775625 20.876875 7.785625 21.206875 6.765625 21.546875 C6.86101562 20.79921875 6.95640625 20.0515625 7.0546875 19.28125 C7.16554688 18.29640625 7.27640625 17.3115625 7.390625 16.296875 C7.50664062 15.32234375 7.62265625 14.3478125 7.7421875 13.34375 C7.76720015 10.35890745 7.43421984 8.9897851 5.765625 6.546875 C1.77174508 4.00531505 -1.5094694 2.62243695 -6.234375 3.546875 C-9.75613241 7.53202155 -10.234375 9.11074687 -10.234375 14.546875 C-23.599375 15.041875 -23.599375 15.041875 -37.234375 15.546875 C-37.234375 14.886875 -37.234375 14.226875 -37.234375 13.546875 C-29.15483724 11.73343165 -21.50185351 11.31028579 -13.234375 11.546875 C-13.09773438 10.61617187 -12.96109375 9.68546875 -12.8203125 8.7265625 C-11.37946278 0.90755136 -7.34250218 -0.35338246 0 0 Z " fill="#171717" transform="translate(421.234375,155.453125)"/>
<path d="M0 0 C0.90385437 -0.00095673 1.80770874 -0.00191345 2.73895264 -0.00289917 C4.63130768 -0.00357412 6.52366514 -0.00176813 8.41601562 0.00244141 C11.30343819 0.00782474 14.19070702 0.00246017 17.078125 -0.00390625 C18.92708367 -0.00324584 20.77604225 -0.00196544 22.625 0 C23.90954071 -0.00303635 23.90954071 -0.00303635 25.22003174 -0.00613403 C29.60910109 0.01098556 33.72536361 0.25153223 38.046875 1.1328125 C38.046875 1.7928125 38.046875 2.4528125 38.046875 3.1328125 C30.31376963 3.27795954 22.58061131 3.42000065 14.84741211 3.56005859 C12.22630576 3.60787553 9.60521146 3.65635819 6.98413086 3.70556641 C-8.66355603 3.99882961 -24.30254862 4.21040263 -39.953125 4.1328125 C-39.953125 3.8028125 -39.953125 3.4728125 -39.953125 3.1328125 C-38.67695313 3.07222656 -37.40078125 3.01164063 -36.0859375 2.94921875 C-34.41665484 2.86481682 -32.74738463 2.78016864 -31.078125 2.6953125 C-30.23636719 2.65599609 -29.39460938 2.61667969 -28.52734375 2.57617188 C-27.72167969 2.53427734 -26.91601562 2.49238281 -26.0859375 2.44921875 C-25.34230957 2.41256104 -24.59868164 2.37590332 -23.83251953 2.33813477 C-21.86448188 2.23325385 -21.86448188 2.23325385 -19.953125 1.1328125 C-13.33607575 0.11811352 -6.68066965 -0.01594224 0 0 Z " fill="#252525" transform="translate(472.953125,167.8671875)"/>
<path d="M0 0 C1.74216797 0.04060547 1.74216797 0.04060547 3.51953125 0.08203125 C4.39996094 0.11683594 5.28039062 0.15164062 6.1875 0.1875 C3.46891403 2.90608597 1.53645865 2.58291524 -2.25 2.9375 C-7.40780984 3.51587957 -7.40780984 3.51587957 -11.125 6.875 C-12.04859301 11.32503907 -12.52992658 15.14559357 -11 19.5 C-9.75282008 21.48817478 -9.75282008 21.48817478 -6.8125 23.1875 C-4.05832682 23.48816154 -1.38604853 23.69675299 1.375 23.8125 C2.12458984 23.85117188 2.87417969 23.88984375 3.64648438 23.9296875 C5.49309199 24.02378216 7.3402619 24.10672319 9.1875 24.1875 C8.5275 25.1775 7.8675 26.1675 7.1875 27.1875 C4.78910083 27.12716291 2.3966615 27.04005482 0 26.9375 C-1.01030273 26.91623047 -1.01030273 26.91623047 -2.04101562 26.89453125 C-6.88589254 26.65819579 -9.39805088 25.60819126 -12.8125 22.1875 C-15.65839067 17.918664 -15.31178196 14.19592212 -14.8125 9.1875 C-13.57019617 5.59135733 -12.65332987 3.82112537 -9.625 1.5390625 C-6.19326497 -0.11007683 -3.78733062 -0.11476759 0 0 Z " fill="#131313" transform="translate(376.8125,192.8125)"/>
<path d="M0 0 C5.77481791 -0.48123483 10.26953246 0.47661728 15 4 C16.93551992 7.11661994 17.20289203 9.34794339 17 13 C16.34 13 15.68 13 15 13 C14.67 10.69 14.34 8.38 14 6 C13.030625 5.690625 12.06125 5.38125 11.0625 5.0625 C8 4 8 4 7 3 C5.33382885 2.95936168 3.66611905 2.957279 2 3 C0.17144572 7.59232335 -0.12514462 10.97358268 0.375 15.875 C0.48585938 17.02742188 0.59671875 18.17984375 0.7109375 19.3671875 C0.80632812 20.23601562 0.90171875 21.10484375 1 22 C-3.95 23.485 -3.95 23.485 -9 25 C-8.3125 22.5625 -8.3125 22.5625 -7 20 C-4.375 19.1875 -4.375 19.1875 -2 19 C-2.33 18.01 -2.66 17.02 -3 16 C-3.61767656 9.87074793 -2.79102638 5.46575999 0 0 Z " fill="#121212" transform="translate(365,156)"/>
<path d="M0 0 C1.49161005 0.09756294 2.98250427 0.20646406 4.47265625 0.32421875 C6.10801646 0.43701935 7.74343545 0.54897047 9.37890625 0.66015625 C10.22710938 0.72041992 11.0753125 0.78068359 11.94921875 0.84277344 C14.48788871 1.00863065 17.02459503 1.13204148 19.56640625 1.23828125 C28.03463656 1.59628229 36.24302111 2.09241556 44.53515625 4.01171875 C44.53515625 4.67171875 44.53515625 5.33171875 44.53515625 6.01171875 C43.38527222 5.92083984 43.38527222 5.92083984 42.2121582 5.828125 C32.45018364 5.06575708 22.68272395 4.40274318 12.91210938 3.76171875 C6.75407909 3.34664351 0.64791514 2.87072627 -5.46484375 2.01171875 C-3.46484375 0.01171875 -3.46484375 0.01171875 0 0 Z " fill="#040404" transform="translate(514.46484375,169.98828125)"/>
<path d="M0 0 C5.52215057 -0.14256843 8.51247823 0.87940255 12.671875 4.5078125 C14.08203125 6.50390625 14.08203125 6.50390625 16.08203125 13.50390625 C22.02203125 13.83390625 27.96203125 14.16390625 34.08203125 14.50390625 C34.08203125 14.83390625 34.08203125 15.16390625 34.08203125 15.50390625 C28.14203125 15.50390625 22.20203125 15.50390625 16.08203125 15.50390625 C15.09203125 17.97890625 15.09203125 17.97890625 14.08203125 20.50390625 C13.09203125 20.83390625 12.10203125 21.16390625 11.08203125 21.50390625 C11.17742187 20.75625 11.2728125 20.00859375 11.37109375 19.23828125 C11.53738281 17.76101562 11.53738281 17.76101562 11.70703125 16.25390625 C11.82304687 15.279375 11.9390625 14.30484375 12.05859375 13.30078125 C12.08359187 10.31767254 11.74156879 8.94954052 10.08203125 6.50390625 C5.27873601 3.30170942 1.65190982 3.21580908 -3.91796875 3.50390625 C-1.91796875 0.50390625 -1.91796875 0.50390625 0 0 Z " fill="#050505" transform="translate(416.91796875,155.49609375)"/>
<path d="M0 0 C-0.33 0.99 -0.66 1.98 -1 3 C-13.3491755 3.97815251 -25.61702895 4.11739981 -38 4 C-38 3.67 -38 3.34 -38 3 C-36.72382813 2.93941406 -35.44765625 2.87882813 -34.1328125 2.81640625 C-32.46352984 2.73200432 -30.79425963 2.64735614 -29.125 2.5625 C-28.28324219 2.52318359 -27.44148438 2.48386719 -26.57421875 2.44335938 C-25.76855469 2.40146484 -24.96289062 2.35957031 -24.1328125 2.31640625 C-23.38918457 2.27974854 -22.64555664 2.24309082 -21.87939453 2.20532227 C-19.91135688 2.10044135 -19.91135688 2.10044135 -18 1 C-12.01182317 0.09843434 -6.04499962 -0.11194444 0 0 Z " fill="#1B1B1B" transform="translate(471,168)"/>
<path d="M0 0 C0.66 0 1.32 0 2 0 C2.25 7.625 2.25 7.625 0 11 C-2.5 11.375 -2.5 11.375 -5 11 C-7.4294516 7.3558226 -7.16179575 5.28758728 -7 1 C-6.34 1 -5.68 1 -5 1 C-4.67 2.98 -4.34 4.96 -4 7 C-3.01 7.33 -2.02 7.66 -1 8 C-0.67 5.36 -0.34 2.72 0 0 Z " fill="#020202" transform="translate(496,215)"/>
<path d="M0 0 C0.99 0 1.98 0 3 0 C3 2.64 3 5.28 3 8 C3.66 7.67 4.32 7.34 5 7 C5 5.02 5 3.04 5 1 C5.99 1 6.98 1 8 1 C8.1953125 7.0546875 8.1953125 7.0546875 8 9 C7.34 9.66 6.68 10.32 6 11 C3.06546739 10.63318342 2.13562754 10.13562754 0 8 C-0.26991906 5.31160615 -0.08737357 2.70858064 0 0 Z " fill="#020202" transform="translate(436,188)"/>
<path d="M0 0 C0.66 0 1.32 0 2 0 C2.1953125 6.0546875 2.1953125 6.0546875 2 8 C1.34 8.66 0.68 9.32 0 10 C-3.53571429 9.46428571 -3.53571429 9.46428571 -5 8 C-5.04080783 6.00041636 -5.04254356 3.99954746 -5 2 C-4.34 2 -3.68 2 -3 2 C-3 3.32 -3 4.64 -3 6 C-2.01 6 -1.02 6 0 6 C0 4.02 0 2.04 0 0 Z " fill="#030303" transform="translate(427,199)"/>
<path d="M0 0 C0.66 0 1.32 0 2 0 C2.33 1.65 2.66 3.3 3 5 C3.99 5 4.98 5 6 5 C6 3.35 6 1.7 6 0 C6.66 0 7.32 0 8 0 C8.125 2.875 8.125 2.875 8 6 C7.34 6.66 6.68 7.32 6 8 C3.06546739 7.63318342 2.13562754 7.13562754 0 5 C-0.125 2.375 -0.125 2.375 0 0 Z " fill="#181818" transform="translate(524,190)"/>
<path d="M0 0 C0.66 0 1.32 0 2 0 C2.33 1.65 2.66 3.3 3 5 C3.99 5 4.98 5 6 5 C6.33 3.68 6.66 2.36 7 1 C7.625 2.8125 7.625 2.8125 8 5 C7.01 6.485 7.01 6.485 6 8 C4.35 7.67 2.7 7.34 1 7 C0.67 4.69 0.34 2.38 0 0 Z " fill="#121212" transform="translate(560,221)"/>
<path d="M0 0 C0.66 0 1.32 0 2 0 C0.41037341 4.03520597 -1.28232318 8.01811282 -3 12 C-3.99 12 -4.98 12 -6 12 C-2.28571429 2.28571429 -2.28571429 2.28571429 0 0 Z " fill="#202020" transform="translate(379,250)"/>
<path d="M0 0 C0.66 0.33 1.32 0.66 2 1 C1.54625 1.391875 1.0925 1.78375 0.625 2.1875 C-1.27642919 4.30832487 -2.06204028 6.33042235 -3 9 C-4.32 8.67 -5.64 8.34 -7 8 C-6.67 7.01 -6.34 6.02 -6 5 C-5.34 5 -4.68 5 -4 5 C-3.71125 4.360625 -3.4225 3.72125 -3.125 3.0625 C-2 1 -2 1 0 0 Z " fill="#1E1E1E" transform="translate(566,168)"/>
<path d="M0 0 C4.60470588 1.45411765 4.60470588 1.45411765 6.3125 3.8125 C7.09802451 6.31189617 7.14472595 8.39493282 7 11 C6.34 11 5.68 11 5 11 C4.67 8.69 4.34 6.38 4 4 C2.02 3.34 0.04 2.68 -2 2 C-1.34 1.34 -0.68 0.68 0 0 Z " fill="#282828" transform="translate(375,158)"/>
<path d="M0 0 C0.99 0.33 1.98 0.66 3 1 C1.02 3.97 -0.96 6.94 -3 10 C-3.66 9.34 -4.32 8.68 -5 8 C-3.35 5.36 -1.7 2.72 0 0 Z " fill="#1A1A1A" transform="translate(511,253)"/>
<path d="M0 0 C0.99 0 1.98 0 3 0 C3 2 3 2 1.6875 3.4375 C1.130625 3.953125 0.57375 4.46875 0 5 C-0.556875 5.556875 -1.11375 6.11375 -1.6875 6.6875 C-2.120625 7.120625 -2.55375 7.55375 -3 8 C-3.33 7.34 -3.66 6.68 -4 6 C-1.68421053 1.68421053 -1.68421053 1.68421053 0 0 Z " fill="#131313" transform="translate(367,194)"/>
<path d="M0 0 C0.625 1.875 0.625 1.875 1 4 C0.34 4.66 -0.32 5.32 -1 6 C-4.125 5.625 -4.125 5.625 -7 5 C-6.67 4.34 -6.34 3.68 -6 3 C-4.35 3 -2.7 3 -1 3 C-0.67 2.01 -0.34 1.02 0 0 Z " fill="#060606" transform="translate(506,262)"/>
<path d="M0 0 C0.33 0 0.66 0 1 0 C1.66 3.63 2.32 7.26 3 11 C2.01 10.67 1.02 10.34 0 10 C-1.49106457 7.01787087 -1.11941467 4.28390342 -1 1 C-0.67 0.67 -0.34 0.34 0 0 Z " fill="#060606" transform="translate(363,164)"/>
<path d="M0 0 C1.485 0.99 1.485 0.99 3 2 C2.67 3.65 2.34 5.3 2 7 C1.34 7 0.68 7 0 7 C-0.38133299 5.0085944 -0.71325582 3.00720923 -1 1 C-0.67 0.67 -0.34 0.34 0 0 Z " fill="#D8D8D8" transform="translate(439,189)"/>
<path d="M0 0 C0.598125 0.350625 1.19625 0.70125 1.8125 1.0625 C1.8125 1.3925 1.8125 1.7225 1.8125 2.0625 C-0.4975 2.7225 -2.8075 3.3825 -5.1875 4.0625 C-5.1875 2.7425 -5.1875 1.4225 -5.1875 0.0625 C-2.1875 -0.9375 -2.1875 -0.9375 0 0 Z " fill="#191919" transform="translate(500.1875,265.9375)"/>
<path d="M0 0 C0.33 0.99 0.66 1.98 1 3 C0.01 4.485 0.01 4.485 -1 6 C-3.625 6.1875 -3.625 6.1875 -6 6 C-5.67 5.34 -5.34 4.68 -5 4 C-4.01 4 -3.02 4 -2 4 C-1.34 2.68 -0.68 1.36 0 0 Z " fill="#0B0B0B" transform="translate(374,261)"/>
</svg>
