<?xml version="1.0" encoding="UTF-8"?>
<svg version="1.1" xmlns="http://www.w3.org/2000/svg" width="800" height="300">
<path d="M0 0 C264 0 528 0 800 0 C800 99 800 198 800 300 C536 300 272 300 0 300 C0 201 0 102 0 0 Z " fill="#FEFEFE" transform="translate(0,0)"/>
<path d="M0 0 C5.34133509 0.35025148 8.39692002 1.79616111 12.125 5.625 C13.84718033 8.30394719 14.29016148 10.1573422 14.8125 13.25 C15.45574219 13.105625 16.09898437 12.96125 16.76171875 12.8125 C24.18329771 11.28795311 31.25110122 11.03361657 38.8125 11.25 C38.93753906 10.31929687 39.06257813 9.38859375 39.19140625 8.4296875 C40.03210233 4.12574654 41.21232205 2.74808266 44.8125 0.25 C49.82978556 -0.7116464 53.66654827 -0.31255812 58.25 1.9375 C62.00173403 5.3232112 63.69081541 8.39279698 64.8125 13.25 C69.89626435 13.3512254 74.89225177 13.28425685 79.953125 12.765625 C88.73042749 12.01403321 97.50822018 11.9639106 106.3125 11.9375 C107.70899277 11.93207687 107.70899277 11.93207687 109.13369751 11.92654419 C136.73463279 11.88429682 164.39852807 14.10694121 191.8125 17.25 C192.1425 16.59 192.4725 15.93 192.8125 15.25 C193.4725 15.25 194.1325 15.25 194.8125 15.25 C194.8125 14.59 194.8125 13.93 194.8125 13.25 C197.61120027 11.85064987 199.71748792 11.99734595 202.8125 12.25 C204.6875 13.375 204.6875 13.375 205.8125 15.25 C206.06542101 18.22182182 206.1300425 20.46835693 205 23.25 C204.938125 23.91 204.87625 24.57 204.8125 25.25 C205.99836064 26.63915104 207.18973834 28.02399596 208.40942383 29.38354492 C213.95633459 36.76237435 214.49152346 45.9935436 214.4375 54.875 C214.46972656 55.94234375 214.50195312 57.0096875 214.53515625 58.109375 C214.54465427 65.8407612 212.7624899 70.35484103 207.8125 76.25 C207.16925781 77.05953125 206.52601563 77.8690625 205.86328125 78.703125 C198.61298878 86.19780935 188.60585156 90.92480979 178.09765625 91.36328125 C175.66495207 91.37351703 173.24336461 91.33966304 170.8125 91.25 C171.08964844 91.93707031 171.36679687 92.62414062 171.65234375 93.33203125 C172.01457031 94.23308594 172.37679687 95.13414062 172.75 96.0625 C173.10964844 96.95582031 173.46929688 97.84914063 173.83984375 98.76953125 C174.54863486 100.5770909 175.1985247 102.40807409 175.8125 104.25 C176.42738281 104.21519531 177.04226563 104.18039062 177.67578125 104.14453125 C178.48402344 104.11746094 179.29226563 104.09039062 180.125 104.0625 C181.32576172 104.01029297 181.32576172 104.01029297 182.55078125 103.95703125 C184.8125 104.25 184.8125 104.25 186.55859375 105.4375 C188.74884537 108.60347118 188.57758798 111.62598205 188.5078125 115.37890625 C187.23523602 120.63364621 183.13100239 123.33462113 178.8125 126.25 C175.63371306 127.83939347 173.3168228 127.66576711 169.8125 127.25 C166.03037715 123.95070134 164.9673895 122.55549722 164.375 117.5625 C164.8125 114.25 164.8125 114.25 166.8125 111.25 C165.85520084 110.12411986 164.89662105 108.9993285 163.9375 107.875 C163.40382813 107.24851562 162.87015625 106.62203125 162.3203125 105.9765625 C161.19817993 104.69163349 160.01878025 103.45628025 158.8125 102.25 C158.1525 102.25 157.4925 102.25 156.8125 102.25 C156.56886719 102.81976563 156.32523438 103.38953125 156.07421875 103.9765625 C154.5926122 106.6462065 152.7715657 108.45943814 150.625 110.625 C148.43756034 112.90999389 148.43756034 112.90999389 146.8125 115.25 C147.12053455 118.43522204 147.12053455 118.43522204 147.8125 121.25 C144.78398738 124.73278951 143.15514043 126.01306345 138.625 126.8125 C133.79905667 126.10047557 126.4020895 124.8395895 122.8125 121.25 C122.32182618 116.9974936 122.33507252 114.936302 124.8125 111.375 C127.83310271 109.23540641 128.43969423 109.02910717 131.875 108.875 C133.8240625 108.565625 133.8240625 108.565625 135.8125 108.25 C137.8800874 105.52488786 137.8800874 105.52488786 138.8046875 103.37109375 C140.00581497 100.84313943 141.49056359 98.62653662 143.0625 96.3125 C143.58328125 95.54035156 144.1040625 94.76820313 144.640625 93.97265625 C145.02734375 93.40417969 145.4140625 92.83570313 145.8125 92.25 C144.52311523 92.41226074 143.23373047 92.57452148 141.90527344 92.74169922 C137.03137811 93.28066814 132.22783694 93.39460987 127.328125 93.3828125 C125.99952705 93.38479141 125.99952705 93.38479141 124.64408875 93.3868103 C121.78352269 93.3887144 118.92305601 93.38240899 116.0625 93.375 C115.08362823 93.37411377 114.10475647 93.37322754 113.09622192 93.37231445 C99.81373706 93.35820854 86.56296941 93.15243772 73.29125977 92.6081543 C63.7929462 92.21896537 54.31724783 92.14347107 44.8125 92.25 C46.07816466 97.47802185 47.44031159 102.40701026 49.8125 107.25 C52.24563888 108.67556419 53.86075333 108.84704912 56.6484375 109.01953125 C58.8125 109.25 58.8125 109.25 61.9375 111.5625 C63.8125 114.25 63.8125 114.25 64 116.75 C62.33916593 120.24649279 59.93541909 122.12222494 56.8125 124.25 C56.12542969 124.72050781 55.43835938 125.19101562 54.73046875 125.67578125 C49.39025568 128.99587869 45.07435342 130.1301802 38.8125 129.25 C35.8125 128.25 35.8125 128.25 33.8125 125.25 C33.3632074 120.30778145 33.66660631 118.02673253 36.8125 114.25 C33.54529209 109.86105071 30.26351522 105.49740335 26.8125 101.25 C26.4825 101.91 26.1525 102.57 25.8125 103.25 C25.1525 103.25 24.4925 103.25 23.8125 103.25 C23.565 103.78625 23.3175 104.3225 23.0625 104.875 C18.8337766 112.90957447 18.8337766 112.90957447 14.8125 114.25 C14.3175 115.735 14.3175 115.735 13.8125 117.25 C13.1525 117.25 12.4925 117.25 11.8125 117.25 C12.1425 117.91 12.4725 118.57 12.8125 119.25 C12.88200541 120.79023996 12.89702357 122.33334988 12.875 123.875 C12.86597656 124.69226563 12.85695313 125.50953125 12.84765625 126.3515625 C12.83605469 126.97804688 12.82445312 127.60453125 12.8125 128.25 C7.80734695 131.33009418 3.55598265 132.28401488 -2.1875 131.25 C-10.3880814 127.84883721 -10.3880814 127.84883721 -12.1875 124.25 C-12.85808266 121.08687426 -13.01012766 118.39285951 -12.1875 115.25 C-8.7877772 111.67290036 -5.03924835 109.39729816 -0.09375 109.00390625 C3.10592068 108.52393213 3.10592068 108.52393213 4.7109375 105.30859375 C5.19820313 104.11363281 5.68546875 102.91867187 6.1875 101.6875 C6.69023437 100.48996094 7.19296875 99.29242188 7.7109375 98.05859375 C8.07445312 97.13175781 8.43796875 96.20492187 8.8125 95.25 C9.4725 95.25 10.1325 95.25 10.8125 95.25 C10.8125 94.59 10.8125 93.93 10.8125 93.25 C9.36230469 93.19392578 9.36230469 93.19392578 7.8828125 93.13671875 C-12.65274793 92.09977461 -12.65274793 92.09977461 -20.1875 85.25 C-28.43958451 73.51462353 -32.55968735 57.5281657 -31.1875 43.25 C-30.21268592 40.30625452 -28.84644328 37.85691087 -27.1875 35.25 C-26.73375 34.3425 -26.28 33.435 -25.8125 32.5 C-23.68198062 29.55005009 -21.27493391 28.17236451 -18.1875 26.25 C-16.14736782 24.69336735 -14.12769477 23.11421071 -12.1171875 21.51953125 C-10.12175661 20.20674777 -8.52106982 19.68041399 -6.1875 19.25 C-6.21070313 18.45335937 -6.23390625 17.65671875 -6.2578125 16.8359375 C-6.43977712 6.1520149 -6.43977712 6.1520149 -4.1875 1.25 C-3.1875 0.25 -3.1875 0.25 0 0 Z " fill="#FCFCFC" transform="translate(361.1875,155.75)"/>
<path d="M0 0 C4.94681067 0.32438103 8.11479987 1.60888987 11.6875 5.0625 C13.14782369 7.90201828 13.02707149 10.10295141 12.8125 13.25 C12.544375 12.6725 12.27625 12.095 12 11.5 C9.59237444 6.92030127 9.59237444 6.92030127 5.33203125 4.203125 C4.43871094 3.97109375 3.54539062 3.7390625 2.625 3.5 C1.72394531 3.25765625 0.82289063 3.0153125 -0.10546875 2.765625 C-0.79253906 2.59546875 -1.47960937 2.4253125 -2.1875 2.25 C-2.96755058 5.13883138 -3.46863892 7.96555778 -3.8125 10.9375 C-3.95558594 12.11892578 -3.95558594 12.11892578 -4.1015625 13.32421875 C-4.14410156 14.27748047 -4.14410156 14.27748047 -4.1875 15.25 C-3.8575 15.58 -3.5275 15.91 -3.1875 16.25 C-3.14669217 18.24958364 -3.14495644 20.25045254 -3.1875 22.25 C-4.198125 22.45625 -5.20875 22.6625 -6.25 22.875 C-10.27299368 23.98704703 -12.73035014 26.16055231 -15.70703125 29.0078125 C-17.1875 30.25 -17.1875 30.25 -19.1875 30.25 C-19.1875 30.91 -19.1875 31.57 -19.1875 32.25 C-20.49950404 33.60432675 -21.83381404 34.93733482 -23.1875 36.25 C-23.5175 36.91 -23.8475 37.57 -24.1875 38.25 C-24.8475 38.25 -25.5075 38.25 -26.1875 38.25 C-29.28052399 52.55523595 -25.76779679 67.83293639 -18.69140625 80.5234375 C-14.49517668 85.34092704 -9.55849091 86.97816366 -3.4375 87.9375 C-2.73882812 88.05778564 -2.04015625 88.17807129 -1.3203125 88.30200195 C4.03201543 89.19755405 9.39750224 89.87251218 14.8125 90.25 C15.1425 91.24 15.4725 92.23 15.8125 93.25 C14.8225 93.58 13.8325 93.91 12.8125 94.25 C11.18534327 96.85604 11.18534327 96.85604 9.75 100 C9.24339844 101.04671875 8.73679687 102.0934375 8.21484375 103.171875 C6.78613003 106.16661479 6.78613003 106.16661479 5.8671875 109.0703125 C5.34511719 110.14925781 5.34511719 110.14925781 4.8125 111.25 C2.84358415 111.83099156 0.86688587 112.40215625 -1.14453125 112.8125 C-4.11798707 113.44926301 -5.95354868 114.15567064 -8.1875 116.25 C-8.90636492 119.06653633 -8.89773502 121.43253877 -8.1875 124.25 C-5.30250415 127.22806023 -2.53921117 127.43924142 1.4375 127.5625 C4.94081715 127.54456493 5.73995875 127.29836083 8.8125 125.25 C9.12392059 121.66866323 8.73639881 118.69226816 7.8125 115.25 C8.62654297 114.79560547 8.62654297 114.79560547 9.45703125 114.33203125 C13.88960809 111.73637814 16.39583049 109.87319385 18.8125 105.25 C19.92619042 103.62335364 21.07552217 102.02081505 22.25 100.4375 C22.82621094 99.64730469 23.40242188 98.85710937 23.99609375 98.04296875 C25.8125 96.25 25.8125 96.25 29.8125 96.25 C30.39257812 97.35408203 30.39257812 97.35408203 30.984375 98.48046875 C35.58757085 107.45414656 35.58757085 107.45414656 42.8125 114.25 C42.3175 116.23 42.3175 116.23 41.8125 118.25 C40.4925 118.25 39.1725 118.25 37.8125 118.25 C37.8125 120.23 37.8125 122.21 37.8125 124.25 C41.19744669 125.94247334 44.19745919 126.07133727 47.8125 125.25 C51.81770782 122.98687337 55.49226836 120.44206094 58.8125 117.25 C58.8125 116.26 58.8125 115.27 58.8125 114.25 C56.51620006 113.10185003 54.73551914 112.94230191 52.1875 112.6875 C50.96160156 112.56181641 50.96160156 112.56181641 49.7109375 112.43359375 C49.08445312 112.37300781 48.45796875 112.31242187 47.8125 112.25 C45.74600643 106.77379203 43.73900203 101.28032698 41.77734375 95.765625 C40.91083235 93.5063807 39.93747373 91.38995002 38.8125 89.25 C40.38734437 87.67515563 41.95375405 88.12021162 44.140625 88.1171875 C45.07076416 88.11525391 46.00090332 88.11332031 46.95922852 88.11132812 C48.4953479 88.1180957 48.4953479 88.1180957 50.0625 88.125 C51.12718506 88.12693359 52.19187012 88.12886719 53.28881836 88.13085938 C61.65815929 88.17439615 70.01214114 88.43188101 78.375 88.75 C95.69228813 89.40214885 112.89052807 89.4970866 130.19946289 88.6081543 C137.07991647 88.2576585 143.92210248 88.13299325 150.8125 88.25 C149.92810705 92.61973214 147.56598565 95.61787042 144.9375 99.125 C142.36754943 102.56888188 140.06002492 105.68902968 138.31640625 109.640625 C136.8125 112.25 136.8125 112.25 134.33203125 113.0546875 C133.43871094 113.07789063 132.54539062 113.10109375 131.625 113.125 C130.72394531 113.16367187 129.82289063 113.20234375 128.89453125 113.2421875 C128.20746094 113.24476563 127.52039063 113.24734375 126.8125 113.25 C126.8125 115.23 126.8125 117.21 126.8125 119.25 C132.83731126 121.74302535 137.37002705 123.39749098 143.8125 121.25 C143.0390625 120.1053125 143.0390625 120.1053125 142.25 118.9375 C141.775625 118.050625 141.30125 117.16375 140.8125 116.25 C141.8125 113.25 141.8125 113.25 144.375 111.75 C150.44895318 107.98503144 154.86131543 100.63419519 157.8125 94.25 C161.98896884 98.1944428 165.46129182 102.2097816 167.8125 107.5 C169.09432353 109.74319118 170.45496152 110.30698461 172.8125 111.25 C172.8125 111.91 172.8125 112.57 172.8125 113.25 C170.8125 114.875 170.8125 114.875 168.8125 116.25 C169.1425 118.23 169.4725 120.21 169.8125 122.25 C173.34972984 123.15487275 175.1839202 123.53571809 178.5625 122 C181.02331851 120.27635231 181.02331851 120.27635231 182.8125 117.25 C183.4725 117.25 184.1325 117.25 184.8125 117.25 C184.4825 114.61 184.1525 111.97 183.8125 109.25 C183.16023437 109.31703125 182.50796875 109.3840625 181.8359375 109.453125 C178.79762109 109.50690051 176.6652502 109.33737115 173.8125 108.25 C171.04226596 104.55445068 169.49989951 100.52369408 167.8125 96.25 C167.26464844 95.17105469 166.71679688 94.09210938 166.15234375 92.98046875 C164.8125 90.25 164.8125 90.25 164.8125 88.25 C167.34915416 87.43827067 169.31500679 87.25614311 172.0078125 87.2890625 C182.27675331 87.1836319 192.8340796 85.0106615 200.8125 78.25 C208.51932882 69.91587116 209.99356929 65.43119732 210 54.3125 C210.01224609 53.20197266 210.02449219 52.09144531 210.03710938 50.94726562 C210.03904297 49.88314453 210.04097656 48.81902344 210.04296875 47.72265625 C210.04707764 46.74562744 210.05118652 45.76859863 210.05541992 44.76196289 C209.98797166 42.00183677 209.98797166 42.00183677 207.8125 39.25 C207.0294824 36.98703813 206.36182519 34.70482922 205.69140625 32.40625 C204.74093691 30.07443188 203.6065782 28.96911672 201.8125 27.25 C201.8125 26.59 201.8125 25.93 201.8125 25.25 C201.1525 25.25 200.4925 25.25 199.8125 25.25 C200.1425 24.528125 200.4725 23.80625 200.8125 23.0625 C201.81853529 20.23302573 201.98227402 18.22104534 201.8125 15.25 C199.40372743 15.36341534 199.40372743 15.36341534 196.8125 16.25 C195.11367552 18.74759982 195.11367552 18.74759982 193.8125 21.25 C193.1525 21.25 192.4925 21.25 191.8125 21.25 C192.1425 19.27 192.4725 17.29 192.8125 15.25 C193.4725 15.25 194.1325 15.25 194.8125 15.25 C194.8125 14.59 194.8125 13.93 194.8125 13.25 C197.61120027 11.85064987 199.71748792 11.99734595 202.8125 12.25 C204.6875 13.375 204.6875 13.375 205.8125 15.25 C206.06542101 18.22182182 206.1300425 20.46835693 205 23.25 C204.938125 23.91 204.87625 24.57 204.8125 25.25 C205.99836064 26.63915104 207.18973834 28.02399596 208.40942383 29.38354492 C213.95633459 36.76237435 214.49152346 45.9935436 214.4375 54.875 C214.46972656 55.94234375 214.50195312 57.0096875 214.53515625 58.109375 C214.54465427 65.8407612 212.7624899 70.35484103 207.8125 76.25 C207.16925781 77.05953125 206.52601563 77.8690625 205.86328125 78.703125 C198.61298878 86.19780935 188.60585156 90.92480979 178.09765625 91.36328125 C175.66495207 91.37351703 173.24336461 91.33966304 170.8125 91.25 C171.08964844 91.93707031 171.36679687 92.62414062 171.65234375 93.33203125 C172.01457031 94.23308594 172.37679687 95.13414062 172.75 96.0625 C173.10964844 96.95582031 173.46929688 97.84914063 173.83984375 98.76953125 C174.54863486 100.5770909 175.1985247 102.40807409 175.8125 104.25 C176.42738281 104.21519531 177.04226563 104.18039062 177.67578125 104.14453125 C178.48402344 104.11746094 179.29226563 104.09039062 180.125 104.0625 C181.32576172 104.01029297 181.32576172 104.01029297 182.55078125 103.95703125 C184.8125 104.25 184.8125 104.25 186.55859375 105.4375 C188.74884537 108.60347118 188.57758798 111.62598205 188.5078125 115.37890625 C187.23523602 120.63364621 183.13100239 123.33462113 178.8125 126.25 C175.63371306 127.83939347 173.3168228 127.66576711 169.8125 127.25 C166.03037715 123.95070134 164.9673895 122.55549722 164.375 117.5625 C164.8125 114.25 164.8125 114.25 166.8125 111.25 C165.85520084 110.12411986 164.89662105 108.9993285 163.9375 107.875 C163.40382813 107.24851562 162.87015625 106.62203125 162.3203125 105.9765625 C161.19817993 104.69163349 160.01878025 103.45628025 158.8125 102.25 C158.1525 102.25 157.4925 102.25 156.8125 102.25 C156.56886719 102.81976563 156.32523438 103.38953125 156.07421875 103.9765625 C154.5926122 106.6462065 152.7715657 108.45943814 150.625 110.625 C148.43756034 112.90999389 148.43756034 112.90999389 146.8125 115.25 C147.12053455 118.43522204 147.12053455 118.43522204 147.8125 121.25 C144.78398738 124.73278951 143.15514043 126.01306345 138.625 126.8125 C133.79905667 126.10047557 126.4020895 124.8395895 122.8125 121.25 C122.32182618 116.9974936 122.33507252 114.936302 124.8125 111.375 C127.83310271 109.23540641 128.43969423 109.02910717 131.875 108.875 C133.8240625 108.565625 133.8240625 108.565625 135.8125 108.25 C137.8800874 105.52488786 137.8800874 105.52488786 138.8046875 103.37109375 C140.00581497 100.84313943 141.49056359 98.62653662 143.0625 96.3125 C143.58328125 95.54035156 144.1040625 94.76820313 144.640625 93.97265625 C145.02734375 93.40417969 145.4140625 92.83570313 145.8125 92.25 C144.52311523 92.41226074 143.23373047 92.57452148 141.90527344 92.74169922 C137.03137811 93.28066814 132.22783694 93.39460987 127.328125 93.3828125 C125.99952705 93.38479141 125.99952705 93.38479141 124.64408875 93.3868103 C121.78352269 93.3887144 118.92305601 93.38240899 116.0625 93.375 C115.08362823 93.37411377 114.10475647 93.37322754 113.09622192 93.37231445 C99.81373706 93.35820854 86.56296941 93.15243772 73.29125977 92.6081543 C63.7929462 92.21896537 54.31724783 92.14347107 44.8125 92.25 C46.07816466 97.47802185 47.44031159 102.40701026 49.8125 107.25 C52.24563888 108.67556419 53.86075333 108.84704912 56.6484375 109.01953125 C58.8125 109.25 58.8125 109.25 61.9375 111.5625 C63.8125 114.25 63.8125 114.25 64 116.75 C62.33916593 120.24649279 59.93541909 122.12222494 56.8125 124.25 C56.12542969 124.72050781 55.43835938 125.19101562 54.73046875 125.67578125 C49.39025568 128.99587869 45.07435342 130.1301802 38.8125 129.25 C35.8125 128.25 35.8125 128.25 33.8125 125.25 C33.3632074 120.30778145 33.66660631 118.02673253 36.8125 114.25 C33.54529209 109.86105071 30.26351522 105.49740335 26.8125 101.25 C26.4825 101.91 26.1525 102.57 25.8125 103.25 C25.1525 103.25 24.4925 103.25 23.8125 103.25 C23.565 103.78625 23.3175 104.3225 23.0625 104.875 C18.8337766 112.90957447 18.8337766 112.90957447 14.8125 114.25 C14.3175 115.735 14.3175 115.735 13.8125 117.25 C13.1525 117.25 12.4925 117.25 11.8125 117.25 C12.1425 117.91 12.4725 118.57 12.8125 119.25 C12.88200541 120.79023996 12.89702357 122.33334988 12.875 123.875 C12.86597656 124.69226563 12.85695313 125.50953125 12.84765625 126.3515625 C12.83605469 126.97804688 12.82445312 127.60453125 12.8125 128.25 C7.80734695 131.33009418 3.55598265 132.28401488 -2.1875 131.25 C-10.3880814 127.84883721 -10.3880814 127.84883721 -12.1875 124.25 C-12.85808266 121.08687426 -13.01012766 118.39285951 -12.1875 115.25 C-8.7877772 111.67290036 -5.03924835 109.39729816 -0.09375 109.00390625 C3.10592068 108.52393213 3.10592068 108.52393213 4.7109375 105.30859375 C5.19820313 104.11363281 5.68546875 102.91867187 6.1875 101.6875 C6.69023437 100.48996094 7.19296875 99.29242188 7.7109375 98.05859375 C8.07445312 97.13175781 8.43796875 96.20492187 8.8125 95.25 C9.4725 95.25 10.1325 95.25 10.8125 95.25 C10.8125 94.59 10.8125 93.93 10.8125 93.25 C9.36230469 93.19392578 9.36230469 93.19392578 7.8828125 93.13671875 C-12.65274793 92.09977461 -12.65274793 92.09977461 -20.1875 85.25 C-28.43958451 73.51462353 -32.55968735 57.5281657 -31.1875 43.25 C-30.21268592 40.30625452 -28.84644328 37.85691087 -27.1875 35.25 C-26.73375 34.3425 -26.28 33.435 -25.8125 32.5 C-23.68198062 29.55005009 -21.27493391 28.17236451 -18.1875 26.25 C-16.14736782 24.69336735 -14.12769477 23.11421071 -12.1171875 21.51953125 C-10.12175661 20.20674777 -8.52106982 19.68041399 -6.1875 19.25 C-6.21070313 18.45335937 -6.23390625 17.65671875 -6.2578125 16.8359375 C-6.43977712 6.1520149 -6.43977712 6.1520149 -4.1875 1.25 C-3.1875 0.25 -3.1875 0.25 0 0 Z " fill="#111111" transform="translate(361.1875,155.75)"/>
<path d="M0 0 C4.48035444 2.19944673 6.86312614 4.50131818 9 9 C9.35367418 10.32808263 9.69075297 11.66087523 10 13 C15.08376435 13.1012254 20.07975177 13.03425685 25.140625 12.515625 C33.91781349 11.76404297 42.69580129 11.7130358 51.5 11.6875 C52.43066284 11.68421692 53.36132568 11.68093384 54.32019043 11.67755127 C71.02143464 11.65885558 87.6032353 12.57474621 104.25 13.875 C105.94902466 14.0055629 105.94902466 14.0055629 107.68237305 14.13876343 C110.9194211 14.39191915 114.15512735 14.65748621 117.390625 14.9296875 C118.8254422 15.04548409 118.8254422 15.04548409 120.28924561 15.16362 C125.71778144 15.64557946 130.74939605 16.53176703 136 18 C135.67 18.99 135.34 19.98 135 21 C134.38938721 20.86795166 133.77877441 20.73590332 133.1496582 20.59985352 C124.8704751 18.94037135 116.59889336 18.39337785 108.1875 17.9375 C106.11176244 17.82111933 104.03618348 17.70272508 101.96076965 17.58070374 C100.09152216 17.47134107 98.22191566 17.36816534 96.35229492 17.26538086 C93 17 93 17 90.28056335 16.49050903 C86.55327735 15.93320614 82.91617131 15.86738808 79.15869141 15.88647461 C78.39703674 15.88632858 77.63538208 15.88618256 76.85064697 15.8860321 C74.35092246 15.88672482 71.85127388 15.89448701 69.3515625 15.90234375 C67.61135906 15.90421021 65.87115509 15.90563304 64.13095093 15.90663147 C59.56401097 15.91043869 54.99710311 15.92025358 50.43017578 15.93133545 C45.76465285 15.94158823 41.09912471 15.94613736 36.43359375 15.95117188 C27.28904844 15.96187753 18.1445269 15.9789323 9 16 C8.34 17.65 7.68 19.3 7 21 C6.01 21 5.02 21 4 21 C4.52268466 18.23723823 5.10869587 15.6739124 6 13 C4.54966646 8.22939414 4.54966646 8.22939414 1.18359375 4.79296875 C-1.27951058 3.89849616 -3.13856733 3.79819316 -5.75 3.875 C-6.94882812 3.90207031 -6.94882812 3.90207031 -8.171875 3.9296875 C-9.07679688 3.96449219 -9.07679688 3.96449219 -10 4 C-12.32221873 7.77360544 -12 9.01199411 -12 14 C-25.365 14.495 -25.365 14.495 -39 15 C-39 14.34 -39 13.68 -39 13 C-31.27111181 11.04596958 -23.94957992 10.77571718 -16 11 C-15.81244141 9.60394531 -15.81244141 9.60394531 -15.62109375 8.1796875 C-13.95590859 -0.34522268 -7.48244548 -1.29503864 0 0 Z " fill="#1B1B1B" transform="translate(416,156)"/>
<path d="M0 0 C18.50993732 -0.67327696 36.80197348 0.45572494 55.25 1.875 C56.40995483 1.96213257 57.56990967 2.04926514 58.76501465 2.13903809 C62.12015858 2.39366267 65.474213 2.6593606 68.828125 2.9296875 C69.83556763 3.00688019 70.84301025 3.08407288 71.88098145 3.16360474 C77.45741268 3.63220496 82.61241322 4.47742113 88 6 C87.67 6.99 87.34 7.98 87 9 C86.38068604 8.86722656 85.76137207 8.73445312 85.12329102 8.59765625 C77.08172743 6.99300378 69.11533431 6.43989452 60.9375 6 C58.15850037 5.84030237 55.37994456 5.67399536 52.6015625 5.50390625 C51.92891861 5.46278214 51.25627472 5.42165802 50.56324768 5.37928772 C45.61908766 5.06560457 40.72373646 4.57532292 35.8125 3.9375 C23.61950216 2.3755684 11.27484698 2.32267711 -1 2 C-0.67 1.34 -0.34 0.68 0 0 Z " fill="#101010" transform="translate(464,168)"/>
<path d="M0 0 C1.875 1.125 1.875 1.125 3 3 C3.25292101 5.97182182 3.3175425 8.21835693 2.1875 11 C2.125625 11.66 2.06375 12.32 2 13 C3.18929802 14.39317768 4.38114005 15.78426653 5.5859375 17.1640625 C13.37248954 27.27367427 11.39367751 40.98829347 11 53 C10.01 53 9.02 53 8 53 C7.98018066 52.31897217 7.96036133 51.63794434 7.93994141 50.9362793 C7.84473017 47.85296083 7.73503534 44.77032351 7.625 41.6875 C7.5940625 40.61564453 7.563125 39.54378906 7.53125 38.43945312 C7.49257813 37.41142578 7.45390625 36.38339844 7.4140625 35.32421875 C7.36693115 33.9024231 7.36693115 33.9024231 7.31884766 32.4519043 C7.1510949 29.7469731 7.1510949 29.7469731 5 27 C4.2169824 24.73703813 3.54932519 22.45482922 2.87890625 20.15625 C1.92843691 17.82443188 0.7940782 16.71911672 -1 15 C-1 14.34 -1 13.68 -1 13 C-1.66 13 -2.32 13 -3 13 C-2.67 12.278125 -2.34 11.55625 -2 10.8125 C-0.99396471 7.98302573 -0.83022598 5.97104534 -1 3 C-3.40877257 3.11341534 -3.40877257 3.11341534 -6 4 C-7.69882448 6.49759982 -7.69882448 6.49759982 -9 9 C-9.66 9 -10.32 9 -11 9 C-10.67 7.02 -10.34 5.04 -10 3 C-9.34 3 -8.68 3 -8 3 C-8 2.34 -8 1.68 -8 1 C-5.20129973 -0.39935013 -3.09501208 -0.25265405 0 0 Z " fill="#2A2A2A" transform="translate(564,168)"/>
<path d="M0 0 C0.66 0 1.32 0 2 0 C1.67 1.65 1.34 3.3 1 5 C-0.216875 5.268125 -1.43375 5.53625 -2.6875 5.8125 C-7.75321333 7.08302104 -7.75321333 7.08302104 -12 10 C-12.71886492 12.81653633 -12.71023502 15.18253877 -12 18 C-9.11500415 20.97806023 -6.35171117 21.18924142 -2.375 21.3125 C1.12831715 21.29456493 1.92745875 21.04836083 5 19 C5.73343428 15.93443402 5.73343428 15.93443402 6 13 C6.99 13 7.98 13 9 13 C9 15.97 9 18.94 9 22 C3.99484695 25.08009418 -0.25651735 26.03401488 -6 25 C-14.2005814 21.59883721 -14.2005814 21.59883721 -16 18 C-16.67058266 14.83687426 -16.82262766 12.14285951 -16 9 C-11.82842703 4.61077974 -6.97499484 2.59749948 -1 2 C-0.67 1.34 -0.34 0.68 0 0 Z " fill="#141414" transform="translate(365,262)"/>
<path d="M0 0 C1.26328125 0.02707031 2.5265625 0.05414063 3.828125 0.08203125 C4.79234375 0.11683594 5.7565625 0.15164062 6.75 0.1875 C6.75 0.8475 6.75 1.5075 6.75 2.1875 C5.94175781 2.20167969 5.13351562 2.21585938 4.30078125 2.23046875 C-2.41712918 2.51703359 -2.41712918 2.51703359 -8.5 5.125 C-10.92149027 9.36260797 -11.375173 13.41521452 -10.25 18.1875 C-7.91469325 21.61541814 -6.46106424 22.14257468 -2.359375 23.015625 C-0.90807173 23.17394899 0.54530812 23.3141339 2 23.4375 C2.74507813 23.51484375 3.49015625 23.5921875 4.2578125 23.671875 C6.08699628 23.85948359 7.91835874 24.02563403 9.75 24.1875 C9.42 25.1775 9.09 26.1675 8.75 27.1875 C6.18508544 27.12721999 3.62578243 27.04012053 1.0625 26.9375 C0.34126953 26.92332031 -0.37996094 26.90914062 -1.12304688 26.89453125 C-5.98095737 26.67270885 -8.79623567 25.92056283 -12.25 22.1875 C-12.25 21.1975 -12.25 20.2075 -12.25 19.1875 C-12.91 19.1875 -13.57 19.1875 -14.25 19.1875 C-14.25 15.8875 -14.25 12.5875 -14.25 9.1875 C-13.59 9.1875 -12.93 9.1875 -12.25 9.1875 C-12.1675 8.259375 -12.085 7.33125 -12 6.375 C-11.25 3.1875 -11.25 3.1875 -9.65625 1.5 C-6.33614668 -0.31096545 -3.75491376 -0.10430316 0 0 Z " fill="#323232" transform="translate(368.25,192.8125)"/>
<path d="M0 0 C0 0.33 0 0.66 0 1 C13.365 1.495 13.365 1.495 27 2 C27 2.33 27 2.66 27 3 C20.95758757 3.14545116 14.91511013 3.28769306 8.87255859 3.42724609 C6.82664056 3.47491486 4.78074106 3.52338779 2.73486328 3.57275391 C-10.84641529 3.89977241 -24.4147692 4.0674577 -38 4 C-38 3.67 -38 3.34 -38 3 C-34.7 2.67 -31.4 2.34 -28 2 C-28 1.67 -28 1.34 -28 1 C-18.64087671 0.00736571 -9.39605802 -0.10731538 0 0 Z " fill="#434343" transform="translate(464,168)"/>
<path d="M0 0 C4.94681067 0.32438103 8.11479987 1.60888987 11.6875 5.0625 C13.14782369 7.90201828 13.02707149 10.10295141 12.8125 13.25 C12.544375 12.6725 12.27625 12.095 12 11.5 C9.59237444 6.92030127 9.59237444 6.92030127 5.33203125 4.203125 C4.43871094 3.97109375 3.54539062 3.7390625 2.625 3.5 C1.72394531 3.25765625 0.82289063 3.0153125 -0.10546875 2.765625 C-0.79253906 2.59546875 -1.47960937 2.4253125 -2.1875 2.25 C-2.96755058 5.13883138 -3.46863892 7.96555778 -3.8125 10.9375 C-3.95558594 12.11892578 -3.95558594 12.11892578 -4.1015625 13.32421875 C-4.12992187 13.95972656 -4.15828125 14.59523437 -4.1875 15.25 C-3.8575 15.58 -3.5275 15.91 -3.1875 16.25 C-3.14669217 18.24958364 -3.14495644 20.25045254 -3.1875 22.25 C-4.239375 22.4975 -5.29125 22.745 -6.375 23 C-10.0008541 24.01700786 -12.38660772 25.70373429 -15.1875 28.25 C-15.8475 27.92 -16.5075 27.59 -17.1875 27.25 C-13.85187233 22.73709197 -11.85460699 20.56793186 -6.1875 19.25 C-6.21070313 18.45335937 -6.23390625 17.65671875 -6.2578125 16.8359375 C-6.43977712 6.1520149 -6.43977712 6.1520149 -4.1875 1.25 C-3.1875 0.25 -3.1875 0.25 0 0 Z " fill="#090909" transform="translate(361.1875,155.75)"/>
<path d="M0 0 C6.06292614 -0.41813284 9.19707988 -0.13274522 14 4 C16.26243007 7.12059321 17.05137578 9.20550312 18 13 C23.94 13.33 29.88 13.66 36 14 C36 14.33 36 14.66 36 15 C34.10314453 15.02126953 34.10314453 15.02126953 32.16796875 15.04296875 C30.50777588 15.08986685 28.84762073 15.13811426 27.1875 15.1875 C25.93743164 15.19620117 25.93743164 15.19620117 24.66210938 15.20507812 C22.33584096 15.28916012 20.25248393 15.4070003 18 16 C16.06544945 18.42988681 16.06544945 18.42988681 15 21 C14.01 21 13.02 21 12 21 C12.52268466 18.23723823 13.10869587 15.6739124 14 13 C12.78746387 9.22766538 11.82538048 6.68781706 8.75 4.125 C5.50301635 2.79668851 2.48119843 2.34129396 -1 2 C-0.67 1.34 -0.34 0.68 0 0 Z " fill="#101010" transform="translate(408,156)"/>
<path d="M0 0 C1.32 0.33 2.64 0.66 4 1 C2.53743342 5.1363211 0.48155363 8.45421154 -2 12.0625 C-4.7851837 16.02038321 -4.7851837 16.02038321 -6.9296875 20.32421875 C-8 22 -8 22 -10.3828125 22.609375 C-11.28773438 22.65578125 -12.19265625 22.7021875 -13.125 22.75 C-14.03507812 22.80671875 -14.94515625 22.8634375 -15.8828125 22.921875 C-16.58148438 22.94765625 -17.28015625 22.9734375 -18 23 C-18.103125 23.94875 -18.20625 24.8975 -18.3125 25.875 C-19 29 -19 29 -22 31 C-22.41454364 26.77165483 -22.46495343 24.66837056 -20 21.125 C-16.97939729 18.98540641 -16.37280577 18.77910717 -12.9375 18.625 C-11.638125 18.41875 -10.33875 18.2125 -9 18 C-6.9324126 15.27488786 -6.9324126 15.27488786 -6.0078125 13.12109375 C-4.80668503 10.59313943 -3.32193641 8.37653662 -1.75 6.0625 C-1.22921875 5.29035156 -0.7084375 4.51820313 -0.171875 3.72265625 C0.40820312 2.86994141 0.40820312 2.86994141 1 2 C0.67 1.34 0.34 0.68 0 0 Z " fill="#1A1A1A" transform="translate(506,246)"/>
<path d="M0 0 C0.99 0 1.98 0 3 0 C3.125 6.625 3.125 6.625 2 10 C-0.31 10.33 -2.62 10.66 -5 11 C-7.09350689 7.5980513 -7.17942163 4.94727588 -7 1 C-6.01 1 -5.02 1 -4 1 C-3.67 2.98 -3.34 4.96 -3 7 C-2.34 7 -1.68 7 -1 7 C-0.67 4.69 -0.34 2.38 0 0 Z " fill="#1C1C1C" transform="translate(488,215)"/>
<path d="M0 0 C0.99 0 1.98 0 3 0 C3.66 2.31 4.32 4.62 5 7 C5.33 5.02 5.66 3.04 6 1 C6.99 1 7.98 1 9 1 C9.25 7.625 9.25 7.625 7 11 C4.625 10.6875 4.625 10.6875 2 10 C-0.4294516 6.3558226 -0.16179575 4.28758728 0 0 Z " fill="#1D1D1D" transform="translate(428,188)"/>
<path d="M0 0 C1.27230469 0.01804688 2.54460937 0.03609375 3.85546875 0.0546875 C5.31919922 0.08949219 5.31919922 0.08949219 6.8125 0.125 C6.8125 0.785 6.8125 1.445 6.8125 2.125 C6.00425781 2.13917969 5.19601562 2.15335938 4.36328125 2.16796875 C-2.32918094 2.41809458 -2.32918094 2.41809458 -8.3125 5.125 C-10.72990729 8.99285166 -11.53423783 12.64966665 -12.1875 17.125 C-12.5175 17.125 -12.8475 17.125 -13.1875 17.125 C-13.50115567 11.16554222 -13.03752662 7.40282708 -10.1875 2.125 C-6.4507157 -0.36618953 -4.44298181 -0.0815226 0 0 Z " fill="#252525" transform="translate(368.1875,192.875)"/>
<path d="M0 0 C0.99 0 1.98 0 3 0 C3.25 6.625 3.25 6.625 1 10 C-0.65 9.67 -2.3 9.34 -4 9 C-4.33 6.69 -4.66 4.38 -5 2 C-4.01 2.33 -3.02 2.66 -2 3 C-2 3.99 -2 4.98 -2 6 C-1.34 6 -0.68 6 0 6 C0 4.02 0 2.04 0 0 Z " fill="#1C1C1C" transform="translate(419,199)"/>
<path d="M0 0 C2 2 2 2 2.125 4.625 C2.08375 5.40875 2.0425 6.1925 2 7 C1.01 7.495 1.01 7.495 0 8 C-0.33 6.35 -0.66 4.7 -1 3 C-3.40877257 3.11341534 -3.40877257 3.11341534 -6 4 C-7.69882448 6.49759982 -7.69882448 6.49759982 -9 9 C-9.66 9 -10.32 9 -11 9 C-10.67 7.02 -10.34 5.04 -10 3 C-9.34 3 -8.68 3 -8 3 C-8 2.34 -8 1.68 -8 1 C-5.23749964 -0.38125018 -3.05268901 -0.19079306 0 0 Z " fill="#242424" transform="translate(564,168)"/>
<path d="M0 0 C5.24414718 -0.31464883 8.53939419 0.16143267 13 3 C15.60791476 5.52098427 15.97577002 6.58001368 16.1875 10.25 C16.0946875 11.61125 16.0946875 11.61125 16 13 C15.731875 12.4225 15.46375 11.845 15.1875 11.25 C12.77987444 6.67030127 12.77987444 6.67030127 8.51953125 3.953125 C7.62621094 3.72109375 6.73289062 3.4890625 5.8125 3.25 C4.91144531 3.00765625 4.01039063 2.7653125 3.08203125 2.515625 C2.39496094 2.34546875 1.70789063 2.1753125 1 2 C0.67 2.99 0.34 3.98 0 5 C-0.66 4.67 -1.32 4.34 -2 4 C-1.34 2.68 -0.68 1.36 0 0 Z " fill="#0F0F0F" transform="translate(358,156)"/>
<path d="M0 0 C0.66 0 1.32 0 2 0 C1.67 1.65 1.34 3.3 1 5 C-0.19625 5.268125 -1.3925 5.53625 -2.625 5.8125 C-6.37855376 6.74087006 -9.60088806 8.13048843 -13 10 C-12.8125 8.1875 -12.8125 8.1875 -12 6 C-8.45296068 3.26371252 -5.3475156 2.69165021 -1 2 C-0.67 1.34 -0.34 0.68 0 0 Z " fill="#1B1B1B" transform="translate(365,262)"/>
<path d="M0 0 C0.99 0 1.98 0 3 0 C3.33 1.65 3.66 3.3 4 5 C4.66 4.67 5.32 4.34 6 4 C6.33 3.01 6.66 2.02 7 1 C7.66 1 8.32 1 9 1 C8.25 5.75 8.25 5.75 6 8 C3.375 7.625 3.375 7.625 1 7 C0.67 4.69 0.34 2.38 0 0 Z " fill="#232323" transform="translate(552,221)"/>
<path d="M0 0 C0.99 0.33 1.98 0.66 3 1 C3.33 2.65 3.66 4.3 4 6 C6.51083114 4.74458443 6.87125446 3.49936512 8 1 C8.625 3.3125 8.625 3.3125 9 6 C8.01 7.485 8.01 7.485 7 9 C4.625 8.6875 4.625 8.6875 2 8 C-0.1519437 4.77208445 -0.20086443 3.71599191 0 0 Z " fill="#242424" transform="translate(516,189)"/>
<path d="M0 0 C1.75 0.9375 1.75 0.9375 2.75 2.9375 C0.77 3.2675 -1.21 3.5975 -3.25 3.9375 C-3.353125 4.88625 -3.45625 5.835 -3.5625 6.8125 C-4.25 9.9375 -4.25 9.9375 -7.25 11.9375 C-7.68497796 7.50072479 -7.72502251 5.57086334 -5 1.9375 C-2.25 -0.0625 -2.25 -0.0625 0 0 Z " fill="#2C2C2C" transform="translate(491.25,265.0625)"/>
<path d="M0 0 C1.98567708 0.5859375 3.97135417 1.171875 5.95703125 1.7578125 C5.95703125 2.0878125 5.95703125 2.4178125 5.95703125 2.7578125 C4.67828125 2.8815625 3.39953125 3.0053125 2.08203125 3.1328125 C-1.39087811 3.44823649 -1.39087811 3.44823649 -4.04296875 5.7578125 C-5.03296875 6.0878125 -6.02296875 6.4178125 -7.04296875 6.7578125 C-4.54669215 -0.53899601 -4.54669215 -0.53899601 0 0 Z " fill="#343434" transform="translate(408.04296875,156.2421875)"/>
<path d="M0 0 C0.33 0 0.66 0 1 0 C1.125 2.875 1.125 2.875 1 6 C0.34 6.66 -0.32 7.32 -1 8 C-1.69748583 9.31747324 -2.36959957 10.64914193 -3 12 C-3 11.34 -3 10.68 -3 10 C-3.66 10 -4.32 10 -5 10 C-3.25 5.125 -3.25 5.125 -1 4 C-0.34786708 1.97536745 -0.34786708 1.97536745 0 0 Z " fill="#373737" transform="translate(566,171)"/>
<path d="M0 0 C4.70588235 0.70588235 4.70588235 0.70588235 6 2 C6.04063832 3.66617115 6.042721 5.33388095 6 7 C5.01 7.495 5.01 7.495 4 8 C3.9175 7.21625 3.835 6.4325 3.75 5.625 C3.27193661 2.85250896 3.27193661 2.85250896 0.9375 1.6875 C0.298125 1.460625 -0.34125 1.23375 -1 1 C-0.67 0.67 -0.34 0.34 0 0 Z " fill="#060606" transform="translate(560,168)"/>
<path d="M0 0 C2.31 0 4.62 0 7 0 C6.67 0.99 6.34 1.98 6 3 C4.35 2.67 2.7 2.34 1 2 C0.67 2.99 0.34 3.98 0 5 C-0.66 4.67 -1.32 4.34 -2 4 C-1.34 2.68 -0.68 1.36 0 0 Z " fill="#222222" transform="translate(358,156)"/>
<path d="M0 0 C0.33 1.32 0.66 2.64 1 4 C-1.375 4.625 -1.375 4.625 -4 5 C-4.66 4.34 -5.32 3.68 -6 3 C-4.02 2.01 -2.04 1.02 0 0 Z " fill="#0F0F0F" transform="translate(498,263)"/>
<path d="M0 0 C2.0625 2.25 2.0625 2.25 4 5 C3.75 7.3125 3.75 7.3125 3 9 C0.90250005 6.64031256 0.03094296 5.45383006 -0.1875 2.25 C-0.125625 1.5075 -0.06375 0.765 0 0 Z " fill="#121212" transform="translate(570,191)"/>
<path d="M0 0 C0.99 0.33 1.98 0.66 3 1 C1.02 3.97 1.02 3.97 -1 7 C-1.66 6.67 -2.32 6.34 -3 6 C-1.125 1.125 -1.125 1.125 0 0 Z " fill="#212121" transform="translate(501,257)"/>
</svg>
