<?xml version="1.0" encoding="UTF-8"?>
<svg version="1.1" xmlns="http://www.w3.org/2000/svg" width="800" height="300">
<path d="M0 0 C264 0 528 0 800 0 C800 99 800 198 800 300 C536 300 272 300 0 300 C0 201 0 102 0 0 Z " fill="#FEFEFE" transform="translate(0,0)"/>
<path d="M0 0 C5.77481791 -0.48123483 10.26953246 0.47661728 15 4 C16.93551992 7.11661994 17.20289203 9.34794339 17 13 C16.34 13 15.68 13 15 13 C14.62875 11.906875 14.2575 10.81375 13.875 9.6875 C12.57260133 6.64652197 12.05031813 6.03281617 9.125 4.125 C6.39495733 3.14218464 3.86592693 2.42145984 1 2 C-0.37004923 8.85024615 -0.37004923 15.14975385 1 22 C0.443125 22.13535156 -0.11375 22.27070313 -0.6875 22.41015625 C-6.46987964 24.04133429 -10.07758864 26.38479861 -14.37109375 30.57421875 C-16 32 -16 32 -18 32 C-18.28617187 32.57492188 -18.57234375 33.14984375 -18.8671875 33.7421875 C-19.58485299 35.17256906 -20.31750433 36.59561031 -21.0703125 38.0078125 C-26.66120477 49.23101105 -23.43178545 59.64960578 -19.72753906 71.02441406 C-18.34479044 74.77917977 -16.34571274 77.78302252 -14 81 C-14 81.66 -14 82.32 -14 83 C-13.278125 83.28875 -12.55625 83.5775 -11.8125 83.875 C-10.13108181 84.54756728 -8.45950627 85.24708285 -6.8125 86 C1.51690239 88.96156529 10.23766623 89.47810551 19 90 C18.60573806 92.75983355 18.14406027 93.86010676 16.109375 95.8359375 C13.48347969 98.52991157 12.59275986 101.12592578 11.25 104.625 C8.59670215 110.64361993 8.59670215 110.64361993 6.01171875 112.1875 C3.9375 112.625 3.9375 112.625 0 113 C-3.03824575 113.92020732 -3.03824575 113.92020732 -5 116 C-5.71913365 118.81758922 -5.70481792 121.18072831 -5 124 C-2.66160743 126.49428541 -0.87026214 126.9166625 2.48828125 127.23828125 C5.04915388 127.30869598 7.46050211 127.34609086 10 127 C10.66 126.34 11.32 125.68 12 125 C11.97595367 122.7227477 11.97595367 122.7227477 11.6875 120.1875 C11.58596167 115.44904449 11.58596167 115.44904449 13.33984375 113.546875 C14.56566181 112.78509748 15.80786515 112.04925812 17.0625 111.3359375 C20.10670327 109.23691024 21.65016114 106.32581623 23.578125 103.2265625 C25.48187586 100.24541418 27.67816529 97.66328099 30 95 C33.60556713 96.20185571 33.72441649 96.8570662 35.375 100.125 C39.54082525 108.02341821 39.54082525 108.02341821 46 114 C45.75 115.875 45.75 115.875 45 118 C42.9375 119.25 42.9375 119.25 41 120 C41 121.32 41 122.64 41 124 C44.10136046 125.55068023 46.67150681 125.73509125 50 125 C55.06256093 122.39898729 59.81113701 119.78329448 63 115 C59.96474514 112.97649676 58.80573798 112.67875982 55.3125 112.375 C53.15625 112.1875 53.15625 112.1875 51 112 C50.59007812 110.81921875 50.18015625 109.6384375 49.7578125 108.421875 C49.21368147 106.86453448 48.6694029 105.3072455 48.125 103.75 C47.85558594 102.97269531 47.58617187 102.19539063 47.30859375 101.39453125 C47.04433594 100.64042969 46.78007812 99.88632813 46.5078125 99.109375 C46.14647217 98.07248535 46.14647217 98.07248535 45.77783203 97.01464844 C45.02773374 94.95423069 45.02773374 94.95423069 43.90576172 92.93066406 C43 91 43 91 43 88 C55.65845318 87.87931559 68.28650275 88.06322289 80.9375 88.5 C98.81310997 89.10593064 116.58917616 89.27301076 134.45800781 88.3581543 C140.9817933 88.02524689 147.46667047 87.87594944 154 88 C153.39874814 90.94452 152.51613203 93.02230229 150.8203125 95.49609375 C150.38589844 96.13740234 149.95148438 96.77871094 149.50390625 97.43945312 C149.04886719 98.09880859 148.59382812 98.75816406 148.125 99.4375 C147.2307258 100.7479854 146.33747391 102.05916908 145.4453125 103.37109375 C145.01887451 103.99056885 144.59243652 104.61004395 144.15307617 105.24829102 C142.86036731 107.15425203 142.86036731 107.15425203 141.43359375 109.9296875 C140 112 140 112 138.02734375 112.63671875 C137.33769531 112.65347656 136.64804687 112.67023438 135.9375 112.6875 C131.99557113 112.5717978 131.99557113 112.5717978 130 115 C130 116.32 130 117.64 130 119 C135.79622721 121.32637691 139.86090397 122.43680971 146 121 C145.835 120.4225 145.67 119.845 145.5 119.25 C145 117 145 117 145 113 C146.37084808 112.14321995 147.74556655 111.29215273 149.13671875 110.46875 C153.86778602 106.73943911 158.10085352 100.69743944 160 95 C160.99 95 161.98 95 163 95 C164.61328125 96.9765625 164.61328125 96.9765625 166.3125 99.625 C168.48767359 102.89238842 170.59367651 105.79095487 173.4375 108.5 C174.283125 109.325 175.12875 110.15 176 111 C176 111.66 176 112.32 176 113 C174 114.625 174 114.625 172 116 C172.33 117.98 172.66 119.96 173 122 C176.25639659 122.94271002 176.25639659 122.94271002 180 123 C182.79197732 120.70817728 182.79197732 120.70817728 185 118 C185.99 117.67 186.98 117.34 188 117 C188 114.03 188 111.06 188 108 C184.37 108 180.74 108 177 108 C175.86988348 105.7941576 174.74584212 103.58554973 173.625 101.375 C173.30789063 100.75753906 172.99078125 100.14007813 172.6640625 99.50390625 C170.76407197 95.74350833 169.23211496 92.04482184 168 88 C170.50891408 87.1971475 172.44061053 87.0088788 175.1015625 87.0625 C185.81372341 86.89076195 196.63392971 84.6017682 204.859375 77.48828125 C211.71039707 69.52459319 213.91549092 64.25897066 213.5 53.625 C213.48453125 52.00658203 213.48453125 52.00658203 213.46875 50.35546875 C213.49582877 44.32616292 213.49582877 44.32616292 211 39 C210.47265625 37.09765625 210.47265625 37.09765625 210.0625 35.0625 C209.29568318 31.71917867 208.23954233 29.64673185 206 27 C206 26.34 206 25.68 206 25 C205.34 25 204.68 25 204 25 C204.33 21.7 204.66 18.4 205 15 C202.59122743 15.11341534 202.59122743 15.11341534 200 16 C198.30117552 18.49759982 198.30117552 18.49759982 197 21 C196.34 21 195.68 21 195 21 C195 19.68 195 18.36 195 17 C195.66 17 196.32 17 197 17 C197.28875 16.360625 197.5775 15.72125 197.875 15.0625 C199 13 199 13 201 12 C204 11.75 204 11.75 207 12 C209.45410358 15.68115537 209.23287843 17.65293598 209 22 C208.67 22.99 208.34 23.98 208 25 C208.763125 25.61875 209.52625 26.2375 210.3125 26.875 C213.49581161 30.00420433 214.32986218 33.55824461 215.421875 37.79296875 C215.92438316 40.02040955 215.92438316 40.02040955 217 42 C217.35211678 46.01330762 217.37118829 50.03577871 217.4375 54.0625 C217.48326172 55.17044922 217.52902344 56.27839844 217.57617188 57.41992188 C217.68440243 65.37722017 216.1558601 69.95163882 211 76 C210.35675781 76.80953125 209.71351563 77.6190625 209.05078125 78.453125 C200.83329663 86.94760349 190.44265605 90.52376169 178.75390625 91.11328125 C177.16884988 91.12284899 175.58352205 91.07037876 174 91 C174.61855631 92.6274637 175.24507305 94.25190356 175.875 95.875 C176.39707031 97.23238281 176.39707031 97.23238281 176.9296875 98.6171875 C177.88530895 101.12217007 177.88530895 101.12217007 180 103 C182.00538329 103.22282037 184.01299827 103.44187467 186.02734375 103.55859375 C188.59558807 104.1332702 189.46158209 104.87131298 191 107 C191.95905909 110.8054973 191.92268566 114.19003391 191 118 C187.26120689 122.73730613 182.75848943 126.63567121 176.6875 127.4375 C173 127 173 127 170.0625 124.4375 C167.59152923 121.00740242 167.44581126 118.19600048 168 114 C168.99 112.515 168.99 112.515 170 111 C167.69 108.03 165.38 105.06 163 102 C156.25425226 107.29818857 156.25425226 107.29818857 151 114 C151 115.19625 151 116.3925 151 117.625 C151 121 151 121 148.4375 123.9375 C144.88555703 126.43793537 142.34311316 126.65146697 138 126 C133.8715602 124.60936764 129.89584278 122.94792139 126 121 C125.625 117.8125 125.625 117.8125 126 114 C129.25662215 110.34622881 130.50886249 109.1165215 135.44921875 108.73046875 C139.16296125 108.33196146 139.16296125 108.33196146 141.328125 105.41796875 C142.27945313 103.81888672 142.27945313 103.81888672 143.25 102.1875 C143.89453125 101.12917969 144.5390625 100.07085937 145.203125 98.98046875 C145.79609375 97.99691406 146.3890625 97.01335937 147 96 C147.98920659 94.65863946 148.9872459 93.32367175 150 92 C149.3884758 92.07064667 148.7769516 92.14129333 148.14689636 92.21408081 C142.23797301 92.85677668 136.42929619 93.14728284 130.48828125 93.1328125 C129.16987244 93.13485939 129.16987244 93.13485939 127.8248291 93.13694763 C124.98734671 93.13895908 122.14997161 93.13267958 119.3125 93.125 C118.34001312 93.12378143 117.36752625 93.12256287 116.36557007 93.12130737 C93.55498384 93.08783777 70.76123257 92.58956602 48 91 C49.6663945 101.00121192 49.6663945 101.00121192 55.41796875 108.58984375 C57.94157759 109.21981405 60.43083783 109.61073301 63 110 C65.6875 111.875 65.6875 111.875 67 114 C67.125 116.4375 67.125 116.4375 66 119 C64.00877115 120.99122885 62.29550538 122.43597642 60 124 C59.31292969 124.47050781 58.62585938 124.94101562 57.91796875 125.42578125 C52.57775568 128.74587869 48.26185342 129.8801802 42 129 C39 128 39 128 37 125 C36.92094936 122.66800612 36.91201231 120.33167378 37 118 C38.32 117.34 39.64 116.68 41 116 C39.57253413 113.68074204 38.13385146 111.36993512 36.6875 109.0625 C36.28337891 108.40314453 35.87925781 107.74378906 35.46289062 107.06445312 C33.05675299 103.0602014 33.05675299 103.0602014 29 101 C28.73960937 101.56589844 28.47921875 102.13179688 28.2109375 102.71484375 C26.88698788 105.2132648 25.35655073 107.32811904 23.625 109.5625 C23.03976562 110.32691406 22.45453125 111.09132813 21.8515625 111.87890625 C20 114 20 114 17.7890625 115.421875 C15.71606032 116.90718956 15.71606032 116.90718956 15.609375 119.69921875 C15.65578125 120.68535156 15.7021875 121.67148437 15.75 122.6875 C15.80414063 124.17830078 15.80414063 124.17830078 15.859375 125.69921875 C15.90578125 126.45847656 15.9521875 127.21773438 16 128 C10.99329643 131.08104835 6.74604585 131.92774699 1 131 C-2.50412767 129.58640304 -5.31679023 127.68320977 -8 125 C-8.56043191 121.61381138 -8.51194925 118.39097565 -8 115 C-5.84157187 112.26599104 -4.03365056 111.27936502 -0.6875 110.375 C3.88966608 109.03534164 6.75720781 107.81779925 9.203125 103.6328125 C11.00090312 100.16901668 12.5394936 96.61741321 14 93 C13.20078125 92.96261719 12.4015625 92.92523438 11.578125 92.88671875 C-9.75262854 91.60987787 -9.75262854 91.60987787 -16.4765625 84.90234375 C-26.07053299 72.9221806 -28.60465622 57.00618068 -27 42 C-24.86323328 34.86648648 -19.83588741 29.4114545 -14.125 24.8125 C-13.30257813 24.13832031 -12.48015625 23.46414062 -11.6328125 22.76953125 C-8.82521803 20.88252785 -6.24123021 19.92134095 -3 19 C-3.05220703 17.82244141 -3.05220703 17.82244141 -3.10546875 16.62109375 C-3.27019021 10.22833246 -3.07880961 5.64448429 0 0 Z " fill="#111111" transform="translate(350,156)"/>
<path d="M0 0 C4.48035444 2.19944673 6.86312614 4.50131818 9 9 C9.35367418 10.32808263 9.69075297 11.66087523 10 13 C15.08376435 13.1012254 20.07975177 13.03425685 25.140625 12.515625 C33.91781349 11.76404297 42.69580129 11.7130358 51.5 11.6875 C52.43066284 11.68421692 53.36132568 11.68093384 54.32019043 11.67755127 C71.02143464 11.65885558 87.6032353 12.57474621 104.25 13.875 C105.94902466 14.0055629 105.94902466 14.0055629 107.68237305 14.13876343 C110.9194211 14.39191915 114.15512735 14.65748621 117.390625 14.9296875 C118.8254422 15.04548409 118.8254422 15.04548409 120.28924561 15.16362 C125.71778144 15.64557946 130.74939605 16.53176703 136 18 C136 18.66 136 19.32 136 20 C135.31067383 19.93941406 134.62134766 19.87882812 133.91113281 19.81640625 C124.21003407 18.98369391 114.49838683 18.36210311 104.78125 17.75 C103.50765625 17.6675 102.2340625 17.585 100.921875 17.5 C99.78331055 17.4278125 98.64474609 17.355625 97.47167969 17.28125 C95.08650222 17.08802043 92.70685048 16.81533825 90.33789062 16.47705078 C84.79766284 15.76232708 79.24933179 15.85711518 73.671875 15.8671875 C72.48764954 15.86623077 71.30342407 15.86527405 70.08331299 15.86428833 C67.57865343 15.86360956 65.07399209 15.86544267 62.56933594 15.86962891 C58.80399432 15.87492407 55.03877515 15.86970337 51.2734375 15.86328125 C44.18151374 15.85965013 37.09129261 15.90578003 30 16 C28.95835693 16.01325317 27.91671387 16.02650635 26.84350586 16.04016113 C24.02451162 16.08786082 21.20847362 16.16562953 18.390625 16.2578125 C17.572453 16.27141815 16.75428101 16.2850238 15.91131592 16.29904175 C13.41094517 16.35993438 13.41094517 16.35993438 10 17 C8.14441276 18.93457108 8.14441276 18.93457108 7 21 C6.01 21 5.02 21 4 21 C4.875 16.125 4.875 16.125 6 15 C5.95142366 11.98826678 5.90288321 9.81022399 5 7 C1.77199378 4.48058051 -1.18424058 3.7954435 -5.1875 3.5 C-9.05737067 3.59126475 -9.05737067 3.59126475 -11 6.1875 C-12.27917472 9.28768083 -12.27917472 9.28768083 -12 14 C-25.365 14.495 -25.365 14.495 -39 15 C-39 14.34 -39 13.68 -39 13 C-30.92437827 11.56205146 -23.2056037 10.70400628 -15 11 C-14.9175 9.741875 -14.835 8.48375 -14.75 7.1875 C-14.56203306 4.32100424 -14.32388843 3.32243601 -12.2578125 1.265625 C-8.31670198 -0.94357882 -4.38452496 -0.62339217 0 0 Z " fill="#1C1C1C" transform="translate(408,156)"/>
<path d="M0 0 C4.48035444 2.19944673 6.86312614 4.50131818 9 9 C9.495 10.98 9.495 10.98 10 13 C15.94 13.33 21.88 13.66 28 14 C28 14.33 28 14.66 28 15 C22.06 15 16.12 15 10 15 C9.34 16.32 8.68 17.64 8 19 C7.67 19.66 7.34 20.32 7 21 C6.01 21 5.02 21 4 21 C4.875 16.125 4.875 16.125 6 15 C5.95142366 11.98826678 5.90288321 9.81022399 5 7 C1.77199378 4.48058051 -1.18424058 3.7954435 -5.1875 3.5 C-9.05737067 3.59126475 -9.05737067 3.59126475 -11 6.1875 C-12.27917472 9.28768083 -12.27917472 9.28768083 -12 14 C-25.365 14.495 -25.365 14.495 -39 15 C-39 14.34 -39 13.68 -39 13 C-30.92437827 11.56205146 -23.2056037 10.70400628 -15 11 C-14.9175 9.741875 -14.835 8.48375 -14.75 7.1875 C-14.56203306 4.32100424 -14.32388843 3.32243601 -12.2578125 1.265625 C-8.31670198 -0.94357882 -4.38452496 -0.62339217 0 0 Z " fill="#1D1D1D" transform="translate(408,156)"/>
<path d="M0 0 C5.77481791 -0.48123483 10.26953246 0.47661728 15 4 C16.93551992 7.11661994 17.20289203 9.34794339 17 13 C16.34 13 15.68 13 15 13 C14.62875 11.906875 14.2575 10.81375 13.875 9.6875 C12.57260133 6.64652197 12.05031813 6.03281617 9.125 4.125 C6.39495733 3.14218464 3.86592693 2.42145984 1 2 C-0.37004923 8.85024615 -0.37004923 15.14975385 1 22 C0.443125 22.13535156 -0.11375 22.27070313 -0.6875 22.41015625 C-6.46987964 24.04133429 -10.07758864 26.38479861 -14.37109375 30.57421875 C-16 32 -16 32 -18 32 C-18.268125 32.598125 -18.53625 33.19625 -18.8125 33.8125 C-19.99917406 35.99847854 -21.09599113 37.41332594 -23 39 C-23.66 39 -24.32 39 -25 39 C-22.88379502 32.82773548 -19.14937619 28.8586098 -14.125 24.8125 C-13.30257813 24.13832031 -12.48015625 23.46414062 -11.6328125 22.76953125 C-8.82521803 20.88252785 -6.24123021 19.92134095 -3 19 C-3.05220703 17.82244141 -3.05220703 17.82244141 -3.10546875 16.62109375 C-3.27019021 10.22833246 -3.07880961 5.64448429 0 0 Z " fill="#121212" transform="translate(350,156)"/>
<path d="M0 0 C1.75570313 0.04060547 1.75570313 0.04060547 3.546875 0.08203125 C4.43890625 0.11683594 5.3309375 0.15164062 6.25 0.1875 C5.92 0.8475 5.59 1.5075 5.25 2.1875 C3.13363372 2.50233135 1.00551785 2.73996854 -1.125 2.9375 C-6.2909342 3.51444552 -6.2909342 3.51444552 -10.0625 6.8125 C-10.91800707 11.012262 -11.29488692 13.89651549 -10.75 18.1875 C-8.00230393 21.81256747 -6.49662571 23.04745932 -1.98046875 23.89453125 C-0.63365134 23.95365982 0.71443526 23.98838987 2.0625 24 C2.75537109 24.02513672 3.44824219 24.05027344 4.16210938 24.07617188 C5.85747122 24.13463263 7.55379287 24.16403047 9.25 24.1875 C8.92 25.1775 8.59 26.1675 8.25 27.1875 C5.68508544 27.12721999 3.12578243 27.04012053 0.5625 26.9375 C-0.15873047 26.92332031 -0.87996094 26.90914062 -1.62304688 26.89453125 C-6.51162977 26.67130829 -9.22941602 25.87637193 -12.75 22.1875 C-14.57486599 16.71290202 -14.46726665 11.1599833 -12.5 5.75 C-8.96117462 0.56814855 -6.21796425 -0.18653893 0 0 Z " fill="#101010" transform="translate(360.75,192.8125)"/>
<path d="M0 0 C6.06292614 -0.41813284 9.19707988 -0.13274522 14 4 C16.26243007 7.12059321 17.05137578 9.20550312 18 13 C23.94 13.33 29.88 13.66 36 14 C36 14.33 36 14.66 36 15 C30.06 15 24.12 15 18 15 C17.34 16.32 16.68 17.64 16 19 C15.67 19.66 15.34 20.32 15 21 C14.01 21 13.02 21 12 21 C12.875 16.125 12.875 16.125 14 15 C14 11.91538704 13.98727874 9.85090603 13 7 C8.46632442 3.46373304 4.65685674 2.46178422 -1 2 C-0.67 1.34 -0.34 0.68 0 0 Z " fill="#090909" transform="translate(400,156)"/>
<path d="M0 0 C-0.33 0.99 -0.66 1.98 -1 3 C-13.3502912 3.89587605 -25.61922367 4.11522956 -38 4 C-38 3.67 -38 3.34 -38 3 C-34.7 2.67 -31.4 2.34 -28 2 C-28 1.67 -28 1.34 -28 1 C-18.64087671 0.00736571 -9.39605802 -0.10731538 0 0 Z " fill="#303030" transform="translate(456,168)"/>
<path d="M0 0 C0.66 0.33 1.32 0.66 2 1 C-0.32216997 5.51533049 -2.98560245 8.01055501 -7 11 C-7.66 11 -8.32 11 -9 11 C-9.268125 11.598125 -9.53625 12.19625 -9.8125 12.8125 C-10.99917406 14.99847854 -12.09599113 16.41332594 -14 18 C-14.66 18 -15.32 18 -16 18 C-13.81863628 11.63768916 -9.99538157 7.75957254 -4.75 3.6875 C-3.41195313 2.64142578 -3.41195313 2.64142578 -2.046875 1.57421875 C-1.37140625 1.05472656 -0.6959375 0.53523437 0 0 Z " fill="#1D1D1D" transform="translate(341,177)"/>
<path d="M0 0 C1.75570313 0.04060547 1.75570313 0.04060547 3.546875 0.08203125 C4.43890625 0.11683594 5.3309375 0.15164062 6.25 0.1875 C5.92 0.8475 5.59 1.5075 5.25 2.1875 C3.15328312 2.47700484 1.04638794 2.69437222 -1.0625 2.875 C-5.63739421 3.39175129 -5.63739421 3.39175129 -9.46484375 5.66015625 C-11.54241766 9.22731146 -12.35285225 13.11673558 -12.75 17.1875 C-13.08 17.1875 -13.41 17.1875 -13.75 17.1875 C-14.03971178 11.58640552 -13.90976306 8.03999327 -10.75 3.1875 C-7.33668077 -0.16260961 -4.67300308 -0.14019009 0 0 Z " fill="#1D1D1D" transform="translate(360.75,192.8125)"/>
<path d="M0 0 C0.99 0.33 1.98 0.66 3 1 C2 3.4375 2 3.4375 0 6 C-3.9375 6.6875 -3.9375 6.6875 -6.0625 6.84375 C-8.54947037 7.04431213 -10.0710872 7.37971325 -12 9 C-12.81584568 12.05908413 -12.81584568 12.05908413 -13 15 C-13.33 15 -13.66 15 -14 15 C-14.375 11.8125 -14.375 11.8125 -14 8 C-9.91799443 3.42018887 -7.15005947 2.60294701 -1 2 C-0.67 1.34 -0.34 0.68 0 0 Z " fill="#1D1D1D" transform="translate(490,262)"/>
<path d="M0 0 C0.99 0 1.98 0 3 0 C3 2.64 3 5.28 3 8 C3.66 8 4.32 8 5 8 C5 5.69 5 3.38 5 1 C5.99 1 6.98 1 8 1 C8.1953125 7.0546875 8.1953125 7.0546875 8 9 C7.34 9.66 6.68 10.32 6 11 C3.06546739 10.63318342 2.13562754 10.13562754 0 8 C-0.26991906 5.31160615 -0.08737357 2.70858064 0 0 Z " fill="#0F0F0F" transform="translate(421,188)"/>
<path d="M0 0 C0.66 0 1.32 0 2 0 C2.25 7.625 2.25 7.625 0 11 C-2.31 10.67 -4.62 10.34 -7 10 C-7 7.03 -7 4.06 -7 1 C-6.34 1 -5.68 1 -5 1 C-4.67 2.98 -4.34 4.96 -4 7 C-3.01 6.67 -2.02 6.34 -1 6 C-0.67 4.02 -0.34 2.04 0 0 Z " fill="#0C0C0C" transform="translate(481,215)"/>
<path d="M0 0 C0.66 0 1.32 0 2 0 C2.1953125 6.0546875 2.1953125 6.0546875 2 8 C1.34 8.66 0.68 9.32 0 10 C-3.53571429 9.46428571 -3.53571429 9.46428571 -5 8 C-5.04080783 6.00041636 -5.04254356 3.99954746 -5 2 C-4.34 2 -3.68 2 -3 2 C-3 3.32 -3 4.64 -3 6 C-2.34 5.67 -1.68 5.34 -1 5 C-0.34444881 2.47266765 -0.34444881 2.47266765 0 0 Z " fill="#080808" transform="translate(412,199)"/>
<path d="M0 0 C0.66 0 1.32 0 2 0 C2.33 1.65 2.66 3.3 3 5 C3.66 4.67 4.32 4.34 5 4 C5.65213292 1.97536745 5.65213292 1.97536745 6 0 C6.66 0 7.32 0 8 0 C8.125 2.875 8.125 2.875 8 6 C7.34 6.66 6.68 7.32 6 8 C3.06546739 7.63318342 2.13562754 7.13562754 0 5 C-0.125 2.375 -0.125 2.375 0 0 Z " fill="#1A1A1A" transform="translate(509,190)"/>
<path d="M0 0 C0.66 0 1.32 0 2 0 C2.33 1.65 2.66 3.3 3 5 C3.99 5 4.98 5 6 5 C6.33 3.68 6.66 2.36 7 1 C7.625 2.8125 7.625 2.8125 8 5 C7.01 6.485 7.01 6.485 6 8 C4.35 7.67 2.7 7.34 1 7 C0.67 4.69 0.34 2.38 0 0 Z " fill="#121212" transform="translate(545,221)"/>
<path d="M0 0 C3.37462715 0.54723683 5.08235 1.0549 8 3 C9.99767079 6.04907647 10.20016822 8.39697197 10 12 C9.34 12 8.68 12 8 12 C7.62875 10.906875 7.2575 9.81375 6.875 8.6875 C5.5201201 5.45411511 5.02341962 5.01423545 1.8125 3.0625 C0.884375 2.711875 -0.04375 2.36125 -1 2 C-0.67 1.34 -0.34 0.68 0 0 Z " fill="#272727" transform="translate(357,157)"/>
<path d="M0 0 C0 0.66 0 1.32 0 2 C-0.67546875 2.26554687 -1.3509375 2.53109375 -2.046875 2.8046875 C-3.38492187 3.33449219 -3.38492187 3.33449219 -4.75 3.875 C-5.63171875 4.22304688 -6.5134375 4.57109375 -7.421875 4.9296875 C-9.6740248 5.8646709 -11.83649459 6.87780794 -14 8 C-12.627162 4.63159336 -11.40170355 3.3079798 -8.125 1.75 C-7.44695312 1.41484375 -6.76890625 1.0796875 -6.0703125 0.734375 C-4 0 -4 0 0 0 Z " fill="#090909" transform="translate(356,265)"/>
<path d="M0 0 C0.99 0 1.98 0 3 0 C3.25 5.625 3.25 5.625 1 9 C0.01 9 -0.98 9 -2 9 C-1.34 6.03 -0.68 3.06 0 0 Z " fill="#1C1C1C" transform="translate(556,172)"/>
<path d="M0 0 C2.31 0 4.62 0 7 0 C7 0.66 7 1.32 7 2 C5.02 2 3.04 2 1 2 C0.67 3.98 0.34 5.96 0 8 C-0.66 7.67 -1.32 7.34 -2 7 C-1.125 2.25 -1.125 2.25 0 0 Z " fill="#0B0B0B" transform="translate(350,156)"/>
<path d="M0 0 C0.99 0.33 1.98 0.66 3 1 C1.68 3.64 0.36 6.28 -1 9 C-1.66 9 -2.32 9 -3 9 C-3 8.34 -3 7.68 -3 7 C-3.66 6.67 -4.32 6.34 -5 6 C-4.01 5.67 -3.02 5.34 -2 5 C-0.78130071 2.49552484 -0.78130071 2.49552484 0 0 Z " fill="#242424" transform="translate(359,258)"/>
<path d="M0 0 C0.66 0.33 1.32 0.66 2 1 C1.34 2.32 0.68 3.64 0 5 C-0.66 5 -1.32 5 -2 5 C-2.33 6.98 -2.66 8.96 -3 11 C-3.33 11 -3.66 11 -4 11 C-4.49230769 4.6 -4.49230769 4.6 -2 1.5625 C-1.34 1.046875 -0.68 0.53125 0 0 Z " fill="#3F3F3F" transform="translate(480,266)"/>
<path d="M0 0 C1.32 0.33 2.64 0.66 4 1 C3.67 2.32 3.34 3.64 3 5 C2.01 4.67 1.02 4.34 0 4 C0 2.68 0 1.36 0 0 Z " fill="#1E1E1E" transform="translate(388,190)"/>
</svg>
