<?xml version="1.0" encoding="UTF-8"?>
<svg version="1.1" xmlns="http://www.w3.org/2000/svg" width="800" height="300">
<path d="M0 0 C264 0 528 0 800 0 C800 99 800 198 800 300 C536 300 272 300 0 300 C0 201 0 102 0 0 Z " fill="#FEFEFE" transform="translate(0,0)"/>
<path d="M0 0 C4.45764736 2.26792585 4.45764736 2.26792585 6 5 C6.45678711 7.7175293 6.45678711 7.7175293 6.65234375 10.69921875 C6.72316162 11.69139404 6.79397949 12.68356934 6.86694336 13.70581055 C6.91085205 14.46289307 6.95476074 15.21997559 7 16 C7.64102158 15.99770889 8.28204315 15.99541779 8.94248962 15.99305725 C29.09568956 15.9321415 49.2424706 16.11396505 69.39379883 16.37231445 C73.7226369 16.42763245 78.05151881 16.4777794 82.38043308 16.52671719 C85.79279518 16.56613764 89.20510679 16.60908335 92.61741447 16.65294075 C94.21215259 16.67290142 95.80690617 16.6916734 97.40167427 16.70907402 C106.0667553 16.8050632 114.71531823 17.02788468 123.37084961 17.45727539 C124.17431352 17.49530746 124.97777742 17.53333952 125.80558872 17.57252407 C131.65005993 17.88602319 131.65005993 17.88602319 134.04946232 18.66751766 C134.69313975 18.77723683 135.33681719 18.88695601 136 19 C139.15848783 16.67348492 139.15848783 16.67348492 142 14 C144.76250036 12.61874982 146.94731099 12.80920694 150 13 C152 15 152 15 152.3125 18.9375 C152.25612142 21.76155426 152.23113287 22.69182284 150.5 25 C150.005 25.33 149.51 25.66 149 26 C150.08987383 28.45221612 151.1821977 30.20714144 152.96875 32.23828125 C159.36988997 40.94136963 158.64795324 54.22456116 157.7890625 64.53125 C156.63313428 72.03193976 152.18798096 76.55912957 146.31640625 81.0546875 C143.90776663 82.75610953 141.47924611 84.40370472 139 86 C139.763125 86.598125 140.52625 87.19625 141.3125 87.8125 C142.199375 88.534375 143.08625 89.25625 144 90 C144.598125 90.45375 145.19625 90.9075 145.8125 91.375 C147.69434706 93.95015913 147.37194989 95.90041759 147 99 C145.73711341 101.77835049 144.6477829 103.49102772 142.25 105.375 C138.93874186 106.29479393 136.31832284 105.73740508 133 105 C132.34 104.34 131.68 103.68 131 103 C127.52518877 103.34066777 124.21021582 103.95053745 120.8125 104.75 C114.28238176 105.17820447 107.46630271 103.64420181 102 100 C101.731875 100.721875 101.46375 101.44375 101.1875 102.1875 C99.99977466 105.00053369 98.63421214 107.42297317 97 110 C96.34 111.093125 95.68 112.18625 95 113.3125 C94.34 114.199375 93.68 115.08625 93 116 C92.01 116 91.02 116 90 116 C90 119.63 90 123.26 90 127 C87.5821288 127.10826289 85.16912444 127.18739789 82.75 127.25 C82.06808594 127.28351563 81.38617188 127.31703125 80.68359375 127.3515625 C77.27222109 127.41780275 75.36828881 127.26849442 72.578125 125.234375 C70.03788668 121.63779996 70 119.41294208 70 115 C71.375 112.5625 71.375 112.5625 74 111 C75.45763536 110.95030789 76.91652619 110.93257272 78.375 110.9375 C80.76784206 110.9047501 80.76784206 110.9047501 83 110 C86.59507313 105.4949706 88.61126949 100.55492203 90 95 C41.49 95.495 41.49 95.495 -8 96 C-3.93292139 104.02996331 -3.93292139 104.02996331 3 109 C4.175625 109.144375 5.35125 109.28875 6.5625 109.4375 C10.15570392 110.02547882 10.9217744 110.18974269 13 113 C13.76129634 117.40357688 13.46435076 121.66499157 12 125.875 C8.33947519 129.76430762 4.0768999 131.71493531 -1.1875 132.4375 C-4.55485577 131.9136891 -6.43259397 131.26535826 -9 129 C-9.608676 125.42402849 -9.44405832 123.70309234 -7.5 120.625 C-7.005 120.08875 -6.51 119.5525 -6 119 C-7.36125 118.13375 -7.36125 118.13375 -8.75 117.25 C-12 115 -12 115 -13.875 113 C-16.40578502 110.61808469 -18.99218294 109.4677162 -22.12109375 108.015625 C-24 107 -24 107 -26.0625 104.75 C-28.00120195 102.64614188 -28.00120195 102.64614188 -31.5 102.6875 C-34.75588451 102.88250959 -34.75588451 102.88250959 -36.88378906 103.48608398 C-39.38046544 104.09239499 -41.79907089 104.31973543 -44.359375 104.53515625 C-45.39320313 104.62216797 -46.42703125 104.70917969 -47.4921875 104.79882812 C-48.56726563 104.88583984 -49.64234375 104.97285156 -50.75 105.0625 C-52.33941406 105.19881836 -52.33941406 105.19881836 -53.9609375 105.33789062 C-59.6630248 105.8083482 -65.27895985 106.10364203 -71 106 C-70.87625 107.1446875 -70.87625 107.1446875 -70.75 108.3125 C-71 111 -71 111 -72.5625 112.8125 C-76.00570514 114.48995891 -78.20740642 114.52311636 -82 114 C-84.97046873 112.20976215 -87.42502414 110.14995172 -89 107 C-89.04003069 101.57984419 -88.83046319 96.59941058 -86.3125 91.75 C-84 90 -84 90 -80.9375 89.5625 C-78 90 -78 90 -75 92 C-71.87478167 92.16699232 -71.87478167 92.16699232 -69 92 C-69.72445313 91.58492188 -70.44890625 91.16984375 -71.1953125 90.7421875 C-78.70006872 85.9591562 -83.24901998 80.97977733 -85.57519531 72.234375 C-88.11582969 58.87122224 -87.43378169 42.69781812 -80.125 31 C-75.31597162 24.45830698 -68.88471281 20.2211782 -61 18.25 C-60.34 18.1675 -59.68 18.085 -59 18 C-59.0825 17.01 -59.165 16.02 -59.25 15 C-59.27825307 10.38533109 -57.35366383 6.87551072 -55 3 C-54 2 -54 2 -51.25 1.5625 C-48 2 -48 2 -45.1875 4.625 C-42.96814357 7.6125952 -42.26698768 10.26217243 -42 14 C-41.17757812 13.51144531 -40.35515625 13.02289063 -39.5078125 12.51953125 C-35.50486673 10.78551577 -32.15002124 10.58835758 -27.875 10.6875 C-27.17246094 10.68427734 -26.46992188 10.68105469 -25.74609375 10.67773438 C-22.01728278 10.71650273 -19.16465713 10.942153 -16 13 C-16.0825 11.7625 -16.165 10.525 -16.25 9.25 C-16.26153532 5.99127351 -16.19423516 5.25250571 -14.125 2.5625 C-9.65228933 -0.72625785 -5.41349627 -0.68808605 0 0 Z " fill="#FBFBFB" transform="translate(401,154)"/>
<path d="M0 0 C4.45764736 2.26792585 4.45764736 2.26792585 6 5 C6.45678711 7.7175293 6.45678711 7.7175293 6.65234375 10.69921875 C6.72316162 11.69139404 6.79397949 12.68356934 6.86694336 13.70581055 C6.91085205 14.46289307 6.95476074 15.21997559 7 16 C7.64102158 15.99770889 8.28204315 15.99541779 8.94248962 15.99305725 C29.09568956 15.9321415 49.2424706 16.11396505 69.39379883 16.37231445 C73.7226369 16.42763245 78.05151881 16.4777794 82.38043308 16.52671719 C85.79279518 16.56613764 89.20510679 16.60908335 92.61741447 16.65294075 C94.21215259 16.67290142 95.80690617 16.6916734 97.40167427 16.70907402 C106.0667553 16.8050632 114.71531823 17.02788468 123.37084961 17.45727539 C124.17431352 17.49530746 124.97777742 17.53333952 125.80558872 17.57252407 C131.65005993 17.88602319 131.65005993 17.88602319 134.04946232 18.66751766 C134.69313975 18.77723683 135.33681719 18.88695601 136 19 C139.15848783 16.67348492 139.15848783 16.67348492 142 14 C144.76250036 12.61874982 146.94731099 12.80920694 150 13 C152 15 152 15 152.3125 18.9375 C152.25612142 21.76155426 152.23113287 22.69182284 150.5 25 C150.005 25.33 149.51 25.66 149 26 C150.08987383 28.45221612 151.1821977 30.20714144 152.96875 32.23828125 C159.36988997 40.94136963 158.64795324 54.22456116 157.7890625 64.53125 C156.63313428 72.03193976 152.18798096 76.55912957 146.31640625 81.0546875 C143.90776663 82.75610953 141.47924611 84.40370472 139 86 C139.763125 86.598125 140.52625 87.19625 141.3125 87.8125 C142.199375 88.534375 143.08625 89.25625 144 90 C144.598125 90.45375 145.19625 90.9075 145.8125 91.375 C147.69434706 93.95015913 147.37194989 95.90041759 147 99 C145.73711341 101.77835049 144.6477829 103.49102772 142.25 105.375 C138.93874186 106.29479393 136.31832284 105.73740508 133 105 C132.34 104.34 131.68 103.68 131 103 C127.52518877 103.34066777 124.21021582 103.95053745 120.8125 104.75 C114.28238176 105.17820447 107.46630271 103.64420181 102 100 C101.731875 100.721875 101.46375 101.44375 101.1875 102.1875 C99.99977466 105.00053369 98.63421214 107.42297317 97 110 C96.34 111.093125 95.68 112.18625 95 113.3125 C94.34 114.199375 93.68 115.08625 93 116 C92.01 116 91.02 116 90 116 C90 119.63 90 123.26 90 127 C87.5821288 127.10826289 85.16912444 127.18739789 82.75 127.25 C82.06808594 127.28351563 81.38617188 127.31703125 80.68359375 127.3515625 C77.27222109 127.41780275 75.36828881 127.26849442 72.578125 125.234375 C70.03788668 121.63779996 70 119.41294208 70 115 C71.375 112.5625 71.375 112.5625 74 111 C75.45763536 110.95030789 76.91652619 110.93257272 78.375 110.9375 C80.76784206 110.9047501 80.76784206 110.9047501 83 110 C86.59507313 105.4949706 88.61126949 100.55492203 90 95 C41.49 95.495 41.49 95.495 -8 96 C-3.93292139 104.02996331 -3.93292139 104.02996331 3 109 C4.175625 109.144375 5.35125 109.28875 6.5625 109.4375 C10.15570392 110.02547882 10.9217744 110.18974269 13 113 C13.76129634 117.40357688 13.46435076 121.66499157 12 125.875 C8.33947519 129.76430762 4.0768999 131.71493531 -1.1875 132.4375 C-4.55485577 131.9136891 -6.43259397 131.26535826 -9 129 C-9.608676 125.42402849 -9.44405832 123.70309234 -7.5 120.625 C-7.005 120.08875 -6.51 119.5525 -6 119 C-7.36125 118.13375 -7.36125 118.13375 -8.75 117.25 C-12 115 -12 115 -13.875 113 C-16.40578502 110.61808469 -18.99218294 109.4677162 -22.12109375 108.015625 C-24 107 -24 107 -26.0625 104.75 C-28.00120195 102.64614188 -28.00120195 102.64614188 -31.5 102.6875 C-34.75588451 102.88250959 -34.75588451 102.88250959 -36.88378906 103.48608398 C-39.38046544 104.09239499 -41.79907089 104.31973543 -44.359375 104.53515625 C-45.39320313 104.62216797 -46.42703125 104.70917969 -47.4921875 104.79882812 C-48.56726563 104.88583984 -49.64234375 104.97285156 -50.75 105.0625 C-52.33941406 105.19881836 -52.33941406 105.19881836 -53.9609375 105.33789062 C-59.6630248 105.8083482 -65.27895985 106.10364203 -71 106 C-70.87625 107.1446875 -70.87625 107.1446875 -70.75 108.3125 C-71 111 -71 111 -72.5625 112.8125 C-76.00570514 114.48995891 -78.20740642 114.52311636 -82 114 C-84.97046873 112.20976215 -87.42502414 110.14995172 -89 107 C-89.04003069 101.57984419 -88.83046319 96.59941058 -86.3125 91.75 C-84 90 -84 90 -80.9375 89.5625 C-78 90 -78 90 -75 92 C-71.87478167 92.16699232 -71.87478167 92.16699232 -69 92 C-69.72445313 91.58492188 -70.44890625 91.16984375 -71.1953125 90.7421875 C-78.70006872 85.9591562 -83.24901998 80.97977733 -85.57519531 72.234375 C-88.11582969 58.87122224 -87.43378169 42.69781812 -80.125 31 C-75.31597162 24.45830698 -68.88471281 20.2211782 -61 18.25 C-60.34 18.1675 -59.68 18.085 -59 18 C-59.0825 17.01 -59.165 16.02 -59.25 15 C-59.27825307 10.38533109 -57.35366383 6.87551072 -55 3 C-54 2 -54 2 -51.25 1.5625 C-48 2 -48 2 -45.1875 4.625 C-42.96814357 7.6125952 -42.26698768 10.26217243 -42 14 C-41.17757812 13.51144531 -40.35515625 13.02289063 -39.5078125 12.51953125 C-35.50486673 10.78551577 -32.15002124 10.58835758 -27.875 10.6875 C-27.17246094 10.68427734 -26.46992188 10.68105469 -25.74609375 10.67773438 C-22.01728278 10.71650273 -19.16465713 10.942153 -16 13 C-16.0825 11.7625 -16.165 10.525 -16.25 9.25 C-16.26153532 5.99127351 -16.19423516 5.25250571 -14.125 2.5625 C-9.65228933 -0.72625785 -5.41349627 -0.68808605 0 0 Z M-14 8 C-14.11745427 10.88830721 -13.63072433 13.1374819 -13 16 C-14.99954746 16.04254356 -17.00041636 16.04080783 -19 16 C-19.495 15.505 -19.495 15.505 -20 15 C-22.69956731 14.87173327 -25.36230563 14.81477098 -28.0625 14.8125 C-29.17141602 14.79413086 -29.17141602 14.79413086 -30.30273438 14.77539062 C-35.5209834 14.76169443 -39.98355907 15.55941027 -45 17 C-44.896875 15.783125 -44.79375 14.56625 -44.6875 13.3125 C-44.65408479 9.54994773 -44.90669702 9.11196358 -47.5 6 C-48.325 5.34 -49.15 4.68 -50 4 C-52.93576279 5.012332 -53.97512741 5.96357942 -55.75 8.5625 C-57.30903894 12.84985708 -57.27038392 16.49360134 -57 21 C-57.61746094 21.06316406 -58.23492187 21.12632812 -58.87109375 21.19140625 C-67.16275861 22.39035322 -72.69259035 25.70815793 -77.82421875 32.3671875 C-83.13683346 40.62553773 -84.35929341 48.87938845 -84.375 58.5625 C-84.39949219 59.36107422 -84.42398437 60.15964844 -84.44921875 60.98242188 C-84.47822081 66.91334285 -83.03787215 70.94837051 -80 76 C-79.4225 77.010625 -78.845 78.02125 -78.25 79.0625 C-73.44827594 85.33141753 -68.86530636 89.37323985 -61 91 C-57.5147498 91.21793728 -54.0526889 91.19033111 -50.5625 91.125 C-49.64017578 91.11597656 -48.71785156 91.10695313 -47.76757812 91.09765625 C-45.51144191 91.0742766 -43.25586316 91.04150916 -41 91 C-41 91.66 -41 92.32 -41 93 C-41.61101562 93.04898438 -42.22203125 93.09796875 -42.8515625 93.1484375 C-44.22441406 93.26058594 -44.22441406 93.26058594 -45.625 93.375 C-46.69878906 93.46007812 -47.77257812 93.54515625 -48.87890625 93.6328125 C-52.12277452 93.9058236 -55.35469076 94.25573608 -58.58984375 94.6171875 C-59.57194824 94.72111816 -60.55405273 94.82504883 -61.56591797 94.93212891 C-63.55203489 95.142812 -65.53683792 95.36630284 -67.52001953 95.60302734 C-68.90423096 95.74538818 -68.90423096 95.74538818 -70.31640625 95.890625 C-71.14599854 95.98375977 -71.97559082 96.07689453 -72.83032227 96.17285156 C-75.59130283 95.95289272 -76.20628802 95.01820699 -78 93 C-80.5 92.41666667 -80.5 92.41666667 -83 93 C-86.14466651 95.69542844 -86.75556307 99.06215009 -87.140625 103.03125 C-86.91058949 106.25174707 -85.27488664 107.85510688 -83 110 C-80.23749964 111.38125018 -78.05268901 111.19079306 -75 111 C-72.71271266 109.16116119 -72.71271266 109.16116119 -72.875 106.375 C-72.91625 105.59125 -72.9575 104.8075 -73 104 C-68.09301872 103.44644512 -63.18578526 102.89519777 -58.27832031 102.34594727 C-56.61418925 102.15938333 -54.95012473 101.97222474 -53.28613281 101.78442383 C-43.8663818 100.72172629 -34.45507155 99.70337653 -25 99 C-25.495 100.485 -25.495 100.485 -26 102 C-25.04738281 102.60328125 -24.09476563 103.2065625 -23.11328125 103.828125 C-21.846258 104.63526573 -20.5793363 105.44256588 -19.3125 106.25 C-18.68666016 106.64574219 -18.06082031 107.04148437 -17.41601562 107.44921875 C-13.7613735 109.78359749 -10.38513619 112.28235546 -7 115 C-4.3205355 116.24016669 -4.3205355 116.24016669 -2 117 C-2 117.99 -2 118.98 -2 120 C-4.5 122.1875 -4.5 122.1875 -7 124 C-6.67 125.32 -6.34 126.64 -6 128 C-0.19388201 129.24079022 -0.19388201 129.24079022 5.3125 127.4375 C8.27762491 124.74820066 9.68974444 122.77661897 11 119 C10.79564192 116.21352443 10.79564192 116.21352443 10 114 C9.46375 113.87625 8.9275 113.7525 8.375 113.625 C5.53522296 112.87769025 2.77934321 111.94615939 0 111 C-1.485 110.505 -1.485 110.505 -3 110 C-3.96875 108.29296875 -3.96875 108.29296875 -5 106 C-6.14489576 104.09094033 -7.31319795 102.19579393 -8.5 100.3125 C-9.1084375 99.33925781 -9.716875 98.36601562 -10.34375 97.36328125 C-11.78368551 94.9099091 -11.78368551 94.9099091 -14 94 C-14 93.34 -14 92.68 -14 92 C-3.14021225 91.86762326 7.71959646 91.73712683 18.57943344 91.60884857 C23.62539503 91.54918961 28.67134812 91.48895011 33.71728516 91.42724609 C56.14567231 91.15340087 78.56960355 90.90391302 101 91 C101 91.99 101 92.98 101 94 C98.36 94 95.72 94 93 94 C92.76812988 94.57032959 92.53625977 95.14065918 92.29736328 95.72827148 C91.24688208 98.30092673 90.18609647 100.86920594 89.125 103.4375 C88.76019531 104.33533203 88.39539063 105.23316406 88.01953125 106.15820312 C87.66503906 107.01220703 87.31054688 107.86621094 86.9453125 108.74609375 C86.45828857 109.93223267 86.45828857 109.93223267 85.96142578 111.14233398 C85 113 85 113 83 114 C80.69116277 114.03015273 78.40065744 113.93346824 76.09375 113.83984375 C73.77744021 113.78848226 73.77744021 113.78848226 72 116 C72.35263785 120.50317123 72.35263785 120.50317123 75 124 C78.12814514 124.24360073 78.12814514 124.24360073 81.625 124.125 C82.81351563 124.10695313 84.00203125 124.08890625 85.2265625 124.0703125 C86.14179688 124.04710937 87.05703125 124.02390625 88 124 C88 122.865625 88 121.73125 88 120.5625 C88.60021565 115.43338445 91.46360821 112.73691201 94.9921875 109.17578125 C97.06663274 106.92779293 98.46915101 104.63743412 100 102 C100.66 101.34 101.32 100.68 102 100 C102.16687448 97.41645782 102.16687448 97.41645782 102 95 C102.99 95 103.98 95 105 95 C105.13728516 95.93585938 105.13728516 95.93585938 105.27734375 96.890625 C105.88084822 99.46196337 105.88084822 99.46196337 109.5625 100.75 C115.78585806 102.79099377 120.94468976 102.61851253 127 100 C129.625 99.6875 129.625 99.6875 132 100 C132.45375 100.515625 132.9075 101.03125 133.375 101.5625 C135.07544706 103.39301907 135.07544706 103.39301907 138.5 102.9375 C141.97336139 102.283069 141.97336139 102.283069 144 100.25 C145.18351258 98.01985732 145.18351258 98.01985732 144.9375 95.4375 C143.76080551 92.37809433 142.9343683 91.46718415 140 90 C136.33285151 89.74936268 136.33285151 89.74936268 133 90 C132.67 90.99 132.34 91.98 132 93 C131.29617188 92.97679687 130.59234375 92.95359375 129.8671875 92.9296875 C121.74136471 92.78117377 114.0095484 93.67297423 106 95 C106.33 94.34 106.66 93.68 107 93 C109.6171875 92.40234375 109.6171875 92.40234375 112.875 91.9375 C116.07411626 91.47112281 118.92965786 91.02344738 122 90 C122 89.34 122 88.68 122 88 C122.54398438 88.2165625 123.08796875 88.433125 123.6484375 88.65625 C130.92750319 89.72029947 140.22544632 81.77822612 145.87109375 77.6640625 C150.70420202 73.88625677 154.16950473 70.48808013 155.625 64.375 C156.68352103 54.84831072 157.18710282 41.65724115 151.2421875 33.625 C149.37850978 31.80828778 149.37850978 31.80828778 147.42578125 30.39453125 C146.95527344 29.93433594 146.48476563 29.47414062 146 29 C146 27.68 146 26.36 146 25 C146.99 24.2884375 146.99 24.2884375 148 23.5625 C148.66 23.046875 149.32 22.53125 150 22 C150.41717279 19.41537838 150.41717279 19.41537838 150 17 C149.67 16.67 149.34 16.34 149 16 C145.51944126 16.17567358 145.51944126 16.17567358 142 17 C141.34 17.99 140.68 18.98 140 20 C140.99 21.32 141.98 22.64 143 24 C142.24628113 23.71791183 141.49256226 23.43582367 140.71600342 23.14518738 C131.75300325 20.05825919 123.44953856 19.41134179 114.078125 19.42578125 C112.56474233 19.41327624 111.05137394 19.39892605 109.5380249 19.38285828 C105.57587677 19.34513523 101.61397615 19.32971609 97.65167236 19.32006836 C91.37444685 19.30028702 85.0973578 19.24351528 78.82031441 19.19343376 C76.52246618 19.17583365 74.22461028 19.16093666 71.92674255 19.14613342 C62.02897753 19.07454904 52.15621689 18.79620047 42.26753235 18.34640503 C33.81649364 17.96616994 25.39684623 17.88164855 16.9375 17.9375 C15.55794444 17.94255332 14.17838696 17.94710909 12.79882812 17.95117188 C9.53249842 17.96263268 6.26627854 17.9788348 3 18 C3.0304541 17.2371167 3.0609082 16.4742334 3.09228516 15.68823242 C3.11597168 14.69154541 3.1396582 13.6948584 3.1640625 12.66796875 C3.1945166 11.67821045 3.2249707 10.68845215 3.25634766 9.66870117 C3.25234994 6.69639346 3.25234994 6.69639346 0.375 4.3125 C-6.09732265 1.79548564 -9.86968094 1.99226318 -14 8 Z " fill="#0F0F0F" transform="translate(401,154)"/>
<path d="M0 0 C2 2 2 2 2.3125 5.9375 C2.25612142 8.76155426 2.23113287 9.69182284 0.5 12 C0.005 12.33 -0.49 12.66 -1 13 C0.08987383 15.45221612 1.1821977 17.20714144 2.96875 19.23828125 C9.36988997 27.94136963 8.64795324 41.22456116 7.7890625 51.53125 C6.63313428 59.03193976 2.18798096 63.55912957 -3.68359375 68.0546875 C-6.09223337 69.75610953 -8.52075389 71.40370472 -11 73 C-10.236875 73.598125 -9.47375 74.19625 -8.6875 74.8125 C-7.800625 75.534375 -6.91375 76.25625 -6 77 C-5.401875 77.45375 -4.80375 77.9075 -4.1875 78.375 C-2.30565294 80.95015913 -2.62805011 82.90041759 -3 86 C-4.26288659 88.77835049 -5.3522171 90.49102772 -7.75 92.375 C-11.06125814 93.29479393 -13.68167716 92.73740508 -17 92 C-17.66 91.34 -18.32 90.68 -19 90 C-22.47481123 90.34066777 -25.78978418 90.95053745 -29.1875 91.75 C-35.71761824 92.17820447 -42.53369729 90.64420181 -48 87 C-48.1875 84.375 -48.1875 84.375 -48 82 C-47.01 82 -46.02 82 -45 82 C-44.7215625 82.928125 -44.7215625 82.928125 -44.4375 83.875 C-42.21655969 87.15812915 -39.81113595 87.26236078 -36 88 C-31.18650477 88.43759048 -27.44378888 87.92163843 -23 86 C-20.1875 85.875 -20.1875 85.875 -18 86 C-17.67 86.99 -17.34 87.98 -17 89 C-11.95121782 89.4181556 -11.95121782 89.4181556 -7.5 87.3125 C-5.75091398 85.09211769 -5.75091398 85.09211769 -6.0625 82.375 C-6.86655546 79.67710239 -6.86655546 79.67710239 -10 78 C-12.33199388 77.92094936 -14.66832622 77.91201231 -17 78 C-17.33 78.66 -17.66 79.32 -18 80 C-19.74658203 80.41064453 -19.74658203 80.41064453 -22.0078125 80.6328125 C-22.83023438 80.71660156 -23.65265625 80.80039063 -24.5 80.88671875 C-25.36625 80.96535156 -26.2325 81.04398437 -27.125 81.125 C-27.96804688 81.21136719 -28.81109375 81.29773438 -29.6796875 81.38671875 C-34.47684613 81.85600601 -39.18100312 82.09141728 -44 82 C-43.505 80.515 -43.505 80.515 -43 79 C-35.575 78.01 -35.575 78.01 -28 77 C-28 76.34 -28 75.68 -28 75 C-27.21625 74.938125 -26.4325 74.87625 -25.625 74.8125 C-17.47773523 72.98638893 -10.76699355 68.35444146 -4.12890625 63.453125 C-2 62 -2 62 1 61 C6.68784585 49.95888746 5.55921464 38.16792748 3.13671875 26.43359375 C1.72163161 22.15915528 -0.1892457 20.1558722 -3.6015625 17.35546875 C-5 16 -5 16 -5.125 13.1875 C-4 11 -4 11 -1 9 C-0.74969023 6.41619823 -0.74969023 6.41619823 -1 4 C-3.31 4.33 -5.62 4.66 -8 5 C-8.15811388 8.05270463 -8.15811388 8.05270463 -7 11 C-14.47089334 10.24024813 -14.47089334 10.24024813 -17.20280457 8.99978638 C-20.57808353 7.79337874 -23.41008911 7.6797455 -26.9934082 7.58935547 C-27.67688828 7.56955627 -28.36036835 7.54975708 -29.06455994 7.52935791 C-31.3098291 7.46649479 -33.55518272 7.41676128 -35.80078125 7.3671875 C-37.36307395 7.32601652 -38.92534517 7.28402275 -40.4875946 7.24124146 C-44.58910672 7.13112856 -48.69081438 7.03216666 -52.79266357 6.93554688 C-56.98239437 6.83487562 -61.17184302 6.72362982 -65.36132812 6.61328125 C-73.57397982 6.39852057 -81.78686837 6.19554279 -90 6 C-90 5.67 -90 5.34 -90 5 C-80.68145282 4.9768313 -71.36291555 4.95906178 -62.04434586 4.94818783 C-57.71737908 4.94296893 -53.390432 4.93588926 -49.06347656 4.92456055 C-44.88785356 4.91369645 -40.71224951 4.90771567 -36.53661346 4.90512276 C-34.94341483 4.90327487 -33.35021724 4.89966645 -31.75702667 4.89426994 C-29.52582048 4.8870128 -27.29469266 4.88601104 -25.06347656 4.88647461 C-23.79328674 4.884254 -22.52309692 4.88203339 -21.2144165 4.87974548 C-18 5 -18 5 -15.75384521 5.65553284 C-15.17507629 5.769207 -14.59630737 5.88288116 -14 6 C-10.84151217 3.67348492 -10.84151217 3.67348492 -8 1 C-5.23749964 -0.38125018 -3.05268901 -0.19079306 0 0 Z " fill="#050505" transform="translate(551,167)"/>
<path d="M0 0 C1.4537075 -0.0100985 1.4537075 -0.0100985 2.93678284 -0.020401 C3.81543503 -0.02132248 4.69408722 -0.02224396 5.59936523 -0.02319336 C6.72350075 -0.02687172 6.72350075 -0.02687172 7.87034607 -0.03062439 C10.00540152 0.09356619 11.88864746 0.50447762 13.94140625 1.08984375 C13.94140625 2.07984375 13.94140625 3.06984375 13.94140625 4.08984375 C11.30140625 4.08984375 8.66140625 4.08984375 5.94140625 4.08984375 C5.77125 4.62351563 5.60109375 5.1571875 5.42578125 5.70703125 C4.02446681 10.01532777 2.54507477 14.28995808 0.94140625 18.52734375 C0.47734375 19.76291016 0.47734375 19.76291016 0.00390625 21.0234375 C-1.05859375 23.08984375 -1.05859375 23.08984375 -4.05859375 25.08984375 C-6.3203125 25.28515625 -6.3203125 25.28515625 -8.74609375 25.21484375 C-9.55433594 25.19679688 -10.36257813 25.17875 -11.1953125 25.16015625 C-11.81019531 25.13695312 -12.42507813 25.11375 -13.05859375 25.08984375 C-13.90445608 27.45825828 -14.12195668 28.82315201 -13.53515625 31.29296875 C-12.11067403 33.41276091 -12.11067403 33.41276091 -9.01953125 33.69921875 C-7.83617187 33.745625 -6.6528125 33.79203125 -5.43359375 33.83984375 C-3.65082031 33.92492187 -3.65082031 33.92492187 -1.83203125 34.01171875 C-0.91679687 34.0375 -0.0015625 34.06328125 0.94140625 34.08984375 C0.77640625 32.95546875 0.61140625 31.82109375 0.44140625 30.65234375 C0.40347476 26.37367221 1.90427755 24.50724084 4.75390625 21.40234375 C5.46160156 20.69722656 6.16929687 19.99210937 6.8984375 19.265625 C9.03807538 17.14334244 9.03807538 17.14334244 10.515625 14.4453125 C11.94140625 12.08984375 11.94140625 12.08984375 14.94140625 10.08984375 C13.6018739 13.69627699 12.0008116 16.84231993 9.94140625 20.08984375 C9.28140625 21.18296875 8.62140625 22.27609375 7.94140625 23.40234375 C7.28140625 24.28921875 6.62140625 25.17609375 5.94140625 26.08984375 C4.95140625 26.08984375 3.96140625 26.08984375 2.94140625 26.08984375 C2.94140625 29.71984375 2.94140625 33.34984375 2.94140625 37.08984375 C0.52353505 37.19810664 -1.88946931 37.27724164 -4.30859375 37.33984375 C-5.33146484 37.39011719 -5.33146484 37.39011719 -6.375 37.44140625 C-9.78637266 37.5076465 -11.69030494 37.35833817 -14.48046875 35.32421875 C-17.02070707 31.72764371 -17.05859375 29.50278583 -17.05859375 25.08984375 C-15.68359375 22.65234375 -15.68359375 22.65234375 -13.05859375 21.08984375 C-11.60095839 21.04015164 -10.14206756 21.02241647 -8.68359375 21.02734375 C-6.29075169 20.99459385 -6.29075169 20.99459385 -4.05859375 20.08984375 C-0.46352062 15.58481435 1.55267574 10.64476578 2.94140625 5.08984375 C-29.39859375 5.08984375 -61.73859375 5.08984375 -95.05859375 5.08984375 C-95.38859375 4.42984375 -95.71859375 3.76984375 -96.05859375 3.08984375 C-95.34832031 3.02925781 -94.63804687 2.96867188 -93.90625 2.90625 C-92.52759766 2.78056641 -92.52759766 2.78056641 -91.12109375 2.65234375 C-90.20457031 2.57113281 -89.28804688 2.48992187 -88.34375 2.40625 C-86.09699643 2.32939399 -86.09699643 2.32939399 -85.05859375 1.08984375 C-82.977749 0.96580294 -80.89270936 0.91182403 -78.80834961 0.88452148 C-77.82720184 0.86967209 -77.82720184 0.86967209 -76.82623291 0.85452271 C-74.6420053 0.82271519 -72.45775749 0.79802012 -70.2734375 0.7734375 C-68.74051909 0.75282956 -67.20760588 0.73183219 -65.67469788 0.71046448 C-62.438843 0.66636515 -59.2029691 0.62550521 -55.96704102 0.5871582 C-51.89371499 0.53885395 -47.82048732 0.48509938 -43.74725914 0.42920494 C-29.16560296 0.22955953 -14.58300864 0.05323324 0 0 Z " fill="#212121" transform="translate(488.05859375,243.91015625)"/>
<path d="M0 0 C4.45764736 2.26792585 4.45764736 2.26792585 6 5 C6.45678711 7.7175293 6.45678711 7.7175293 6.65234375 10.69921875 C6.72316162 11.69139404 6.79397949 12.68356934 6.86694336 13.70581055 C6.91085205 14.46289307 6.95476074 15.21997559 7 16 C7.63480286 15.99738159 8.26960571 15.99476318 8.92364502 15.99206543 C30.31283341 15.91756657 51.6936735 16.16969271 73.08044434 16.46356201 C77.60048632 16.52525814 82.12055686 16.58478817 86.640625 16.64453125 C95.42711171 16.76096871 104.21356534 16.87969882 113 17 C113 17.33 113 17.66 113 18 C106.73 18.33 100.46 18.66 94 19 C94 19.33 94 19.66 94 20 C63.63406371 20.41466089 33.3373601 19.21846032 3 18 C2.95319092 17.23131592 2.90638184 16.46263184 2.8581543 15.6706543 C2.7485437 14.1688562 2.7485437 14.1688562 2.63671875 12.63671875 C2.56928467 11.64115967 2.50185059 10.64560059 2.43237305 9.61987305 C2.2289749 6.8042142 2.2289749 6.8042142 -0.1875 4.8125 C-3.41573862 3.87989773 -5.66245053 3.50291816 -9 4 C-11.60314994 5.3530128 -11.60314994 5.3530128 -13 8 C-12.97848419 10.77016045 -12.49493506 13.2553601 -12 16 C-13 17 -13 17 -16 17.125 C-19 17 -19 17 -20 16 C-22.69785797 15.89864401 -25.36477074 15.86138656 -28.0625 15.875 C-28.80177734 15.87113281 -29.54105469 15.86726562 -30.30273438 15.86328125 C-35.28457841 15.87199839 -40.06824587 16.294664 -45 17 C-45.12375 15.14375 -45.12375 15.14375 -45.25 13.25 C-45.63475459 10.01117036 -45.90024003 9.12092117 -48.0625 6.5 C-48.701875 6.005 -49.34125 5.51 -50 5 C-53.2985139 5.72268235 -53.2985139 5.72268235 -54.6875 9.0625 C-55.120625 10.031875 -55.55375 11.00125 -56 12 C-56.66 11.67 -57.32 11.34 -58 11 C-56.94124926 7.59687262 -55.99097846 4.98646769 -54 2 C-51.1875 1.4375 -51.1875 1.4375 -48 2 C-43.96619688 5.76488291 -42.40183098 8.37436623 -42 14 C-41.17757813 13.51144531 -40.35515625 13.02289063 -39.5078125 12.51953125 C-35.50486673 10.78551577 -32.15002124 10.58835758 -27.875 10.6875 C-27.17246094 10.68427734 -26.46992188 10.68105469 -25.74609375 10.67773438 C-22.01728278 10.71650273 -19.16465713 10.942153 -16 13 C-16.0825 11.7625 -16.165 10.525 -16.25 9.25 C-16.26153532 5.99127351 -16.19423516 5.25250571 -14.125 2.5625 C-9.65228933 -0.72625785 -5.41349627 -0.68808605 0 0 Z " fill="#1A1A1A" transform="translate(401,154)"/>
<path d="M0 0 C0.66 0.33 1.32 0.66 2 1 C2 1.66 2 2.32 2 3 C0.46875 4.2890625 0.46875 4.2890625 -1.5 5.625 C-2.1496875 6.07101563 -2.799375 6.51703125 -3.46875 6.9765625 C-3.9740625 7.31429687 -4.479375 7.65203125 -5 8 C-4.236875 8.598125 -3.47375 9.19625 -2.6875 9.8125 C-1.800625 10.534375 -0.91375 11.25625 0 12 C0.598125 12.45375 1.19625 12.9075 1.8125 13.375 C3.69434706 15.95015913 3.37194989 17.90041759 3 21 C1.73711341 23.77835049 0.6477829 25.49102772 -1.75 27.375 C-5.06125814 28.29479393 -7.68167716 27.73740508 -11 27 C-11.66 26.34 -12.32 25.68 -13 25 C-16.47481123 25.34066777 -19.78978418 25.95053745 -23.1875 26.75 C-29.71761824 27.17820447 -36.53369729 25.64420181 -42 22 C-42.1875 19.375 -42.1875 19.375 -42 17 C-41.01 17 -40.02 17 -39 17 C-38.814375 17.61875 -38.62875 18.2375 -38.4375 18.875 C-36.21655969 22.15812915 -33.81113595 22.26236078 -30 23 C-25.18650477 23.43759048 -21.44378888 22.92163843 -17 21 C-14.1875 20.875 -14.1875 20.875 -12 21 C-11.67 21.99 -11.34 22.98 -11 24 C-5.95121782 24.4181556 -5.95121782 24.4181556 -1.5 22.3125 C0.24908602 20.09211769 0.24908602 20.09211769 -0.0625 17.375 C-0.86655546 14.67710239 -0.86655546 14.67710239 -4 13 C-6.33199388 12.92094936 -8.66832622 12.91201231 -11 13 C-11.33 13.66 -11.66 14.32 -12 15 C-13.74658203 15.41064453 -13.74658203 15.41064453 -16.0078125 15.6328125 C-16.83023438 15.71660156 -17.65265625 15.80039063 -18.5 15.88671875 C-19.36625 15.96535156 -20.2325 16.04398438 -21.125 16.125 C-22.38957031 16.25455078 -22.38957031 16.25455078 -23.6796875 16.38671875 C-28.47684613 16.85600601 -33.18100312 17.09141728 -38 17 C-37.67 16.01 -37.34 15.02 -37 14 C-32.05 13.34 -27.1 12.68 -22 12 C-22 11.34 -22 10.68 -22 10 C-21.21625 9.938125 -20.4325 9.87625 -19.625 9.8125 C-12.39566905 8.19213272 -5.9970822 4.26108472 0 0 Z " fill="#0A0A0A" transform="translate(545,232)"/>
<path d="M0 0 C0.99 0.33 1.98 0.66 3 1 C1.90711967 3.79657597 0.80142741 6.58681951 -0.3125 9.375 C-0.62123047 10.1690625 -0.92996094 10.963125 -1.24804688 11.78125 C-1.55419922 12.54179687 -1.86035156 13.30234375 -2.17578125 14.0859375 C-2.45333252 14.7876709 -2.73088379 15.4894043 -3.0168457 16.21240234 C-4 18 -4 18 -7 20 C-9.26171875 20.1953125 -9.26171875 20.1953125 -11.6875 20.125 C-12.49574219 20.10695313 -13.30398438 20.08890625 -14.13671875 20.0703125 C-14.75160156 20.04710937 -15.36648438 20.02390625 -16 20 C-16.84586233 22.36841453 -17.06336293 23.73330826 -16.4765625 26.203125 C-15.05208028 28.32291716 -15.05208028 28.32291716 -11.9609375 28.609375 C-10.18589844 28.67898438 -10.18589844 28.67898438 -8.375 28.75 C-6.59222656 28.83507812 -6.59222656 28.83507812 -4.7734375 28.921875 C-3.40058594 28.96054687 -3.40058594 28.96054687 -2 29 C-2.165 27.865625 -2.33 26.73125 -2.5 25.5625 C-2.53793149 21.28382846 -1.0371287 19.41739709 1.8125 16.3125 C2.52019531 15.60738281 3.22789062 14.90226562 3.95703125 14.17578125 C6.09666913 12.05349869 6.09666913 12.05349869 7.57421875 9.35546875 C9 7 9 7 12 5 C10.66046765 8.60643324 9.05940535 11.75247618 7 15 C6.34 16.093125 5.68 17.18625 5 18.3125 C4.01 19.6428125 4.01 19.6428125 3 21 C2.01 21 1.02 21 0 21 C0 24.63 0 28.26 0 32 C-2.4178712 32.10826289 -4.83087556 32.18739789 -7.25 32.25 C-8.27287109 32.30027344 -8.27287109 32.30027344 -9.31640625 32.3515625 C-12.72777891 32.41780275 -14.63171119 32.26849442 -17.421875 30.234375 C-19.96211332 26.63779996 -20 24.41294208 -20 20 C-18.625 17.5625 -18.625 17.5625 -16 16 C-14.54236464 15.95030789 -13.08347381 15.93257272 -11.625 15.9375 C-9.23215794 15.9047501 -9.23215794 15.9047501 -7 15 C-3.49003182 10.60161664 -1.15158904 5.50930666 0 0 Z " fill="#101010" transform="translate(491,249)"/>
<path d="M0 0 C1.50433594 0.01353516 1.50433594 0.01353516 3.0390625 0.02734375 C3.80992187 0.03894531 4.58078125 0.05054688 5.375 0.0625 C5.705 1.0525 6.035 2.0425 6.375 3.0625 C5.14523437 3.11857422 5.14523437 3.11857422 3.890625 3.17578125 C2.81296875 3.24152344 1.7353125 3.30726563 0.625 3.375 C-0.44234375 3.43300781 -1.5096875 3.49101562 -2.609375 3.55078125 C-5.8071068 4.09340154 -7.25098691 4.91321145 -9.625 7.0625 C-9.07402718 14.06730391 -9.07402718 14.06730391 -5.625 20.0625 C-1.4844667 22.22669889 2.0662138 22.27387918 6.6875 22.1875 C7.94175781 22.16945312 9.19601562 22.15140625 10.48828125 22.1328125 C11.44089844 22.10960937 12.39351563 22.08640625 13.375 22.0625 C13.375 23.0525 13.375 24.0425 13.375 25.0625 C7.6075928 26.70654251 1.19255638 27.02763949 -4.5 24.9375 C-9.020409 22.2252546 -10.97906689 19.00029932 -12.625 14.0625 C-13.01957593 11.00171818 -13.13257589 8.11347245 -12.625 5.0625 C-8.61180415 0.83808332 -5.66155708 -0.06583206 0 0 Z " fill="#0C0C0C" transform="translate(349.625,192.9375)"/>
<path d="M0 0 C0.99 0 1.98 0 3 0 C3.18304688 0.62390625 3.36609375 1.2478125 3.5546875 1.890625 C4.91662203 4.34008964 4.91662203 4.34008964 8.2578125 5.046875 C9.53398438 5.27890625 10.81015625 5.5109375 12.125 5.75 C13.40632812 5.99234375 14.68765625 6.2346875 16.0078125 6.484375 C16.99523437 6.65453125 17.98265625 6.8246875 19 7 C18.67 7.99 18.34 8.98 18 10 C5.33029613 8.25740319 5.33029613 8.25740319 0 5 C0 3.35 0 1.7 0 0 Z " fill="#040404" transform="translate(503,249)"/>
<path d="M0 0 C12.87 0.495 12.87 0.495 26 1 C26 1.66 26 2.32 26 3 C17.75 3 9.5 3 1 3 C0.67 2.01 0.34 1.02 0 0 Z " fill="#000000" transform="translate(342,228)"/>
<path d="M0 0 C0.99 0 1.98 0 3 0 C3.17942163 3.94727588 3.09350689 6.5980513 1 10 C-1.375 10.1875 -1.375 10.1875 -4 10 C-6.29013653 6.5647952 -6.17842973 5.014669 -6 1 C-5.34 1 -4.68 1 -4 1 C-3.67 2.65 -3.34 4.3 -3 6 C-2.34 6 -1.68 6 -1 6 C-0.67 4.02 -0.34 2.04 0 0 Z " fill="#070707" transform="translate(417,207)"/>
<path d="M0 0 C-0.33 0.99 -0.66 1.98 -1 3 C-8.92 3.495 -8.92 3.495 -17 4 C-16.67 3.01 -16.34 2.02 -16 1 C-10.61509359 0.08342019 -5.45769811 -0.11138159 0 0 Z " fill="#1E1E1E" transform="translate(355,255)"/>
<path d="M0 0 C0.33 0.66 0.66 1.32 1 2 C-0.39374137 4.82566744 -2.26155675 7.37529156 -4 10 C-4.66 11.134375 -5.32 12.26875 -6 13.4375 C-8 16 -8 16 -10.75 16.875 C-11.4925 16.91625 -12.235 16.9575 -13 17 C-11.57703109 15.10270812 -10.15397863 13.20547983 -8.73046875 11.30859375 C-7.58556873 9.78119892 -6.44231245 8.25257048 -5.30078125 6.72265625 C-4.76839844 6.00980469 -4.23601562 5.29695313 -3.6875 4.5625 C-3.19636719 3.90378906 -2.70523437 3.24507813 -2.19921875 2.56640625 C-1 1 -1 1 0 0 Z " fill="#191919" transform="translate(502,254)"/>
<path d="M0 0 C0.66 0 1.32 0 2 0 C2.25 7.625 2.25 7.625 0 11 C-4.875 10.125 -4.875 10.125 -6 9 C-6.04080783 7.00041636 -6.04254356 4.99954746 -6 3 C-5.34 3 -4.68 3 -4 3 C-3.67 4.32 -3.34 5.64 -3 7 C-2.34 7 -1.68 7 -1 7 C-0.67 4.69 -0.34 2.38 0 0 Z " fill="#010101" transform="translate(386,221)"/>
<path d="M0 0 C0.66 0 1.32 0 2 0 C2.33 2.31 2.66 4.62 3 7 C3.66 6.67 4.32 6.34 5 6 C5.33 5.01 5.66 4.02 6 3 C6.66 3 7.32 3 8 3 C8.04254356 4.99954746 8.04080783 7.00041636 8 9 C7 10 7 10 4.4375 10.0625 C3.633125 10.041875 2.82875 10.02125 2 10 C-0.09350689 6.5980513 -0.17942163 3.94727588 0 0 Z " fill="#020202" transform="translate(485,192)"/>
<path d="M0 0 C0.66 0 1.32 0 2 0 C2 1.98 2 3.96 2 6 C2.66 6 3.32 6 4 6 C4.33 4.35 4.66 2.7 5 1 C5.66 1 6.32 1 7 1 C6.67 3.31 6.34 5.62 6 8 C4.35 8.33 2.7 8.66 1 9 C-0.4783226 6.04335481 -0.06032783 3.25770263 0 0 Z " fill="#030303" transform="translate(546,209)"/>
<path d="M0 0 C0.66 0 1.32 0 2 0 C2.25 5.625 2.25 5.625 0 9 C-1.65 8.67 -3.3 8.34 -5 8 C-5 6.02 -5 4.04 -5 2 C-4.34 2 -3.68 2 -3 2 C-3 2.99 -3 3.98 -3 5 C-2.34 4.67 -1.68 4.34 -1 4 C-0.34786708 1.97536745 -0.34786708 1.97536745 0 0 Z " fill="#0D0D0D" transform="translate(504,199)"/>
<path d="M0 0 C0.66 0 1.32 0 2 0 C1.125 6.875 1.125 6.875 0 8 C-1.66617115 8.04063832 -3.33388095 8.042721 -5 8 C-5.33 6.02 -5.66 4.04 -6 2 C-5.01 2 -4.02 2 -3 2 C-3 2.99 -3 3.98 -3 5 C-2.34 4.67 -1.68 4.34 -1 4 C-0.34786708 1.97536745 -0.34786708 1.97536745 0 0 Z " fill="#020202" transform="translate(326,206)"/>
<path d="M0 0 C0.66 0.33 1.32 0.66 2 1 C2 1.66 2 2.32 2 3 C0.25185388 4.39138161 -1.59672568 5.56294846 -3.46875 6.78125 C-3.9740625 7.1834375 -4.479375 7.585625 -5 8 C-5 8.66 -5 9.32 -5 10 C-5.99 10 -6.98 10 -8 10 C-7.45502261 6.18515827 -5.84708767 4.51213618 -3 2 C-2.01 1.34 -1.02 0.68 0 0 Z " fill="#1E1E1E" transform="translate(545,232)"/>
<path d="M0 0 C0.99 0.33 1.98 0.66 3 1 C0.525 6.94 0.525 6.94 -2 13 C-2.66 12.67 -3.32 12.34 -4 12 C-2.66666667 8 -1.33333333 4 0 0 Z " fill="#111111" transform="translate(491,249)"/>
<path d="M0 0 C2.31 0 4.62 0 7 0 C7 0.99 7 1.98 7 3 C4.69 3.33 2.38 3.66 0 4 C-0.33 3.34 -0.66 2.68 -1 2 C-0.67 1.34 -0.34 0.68 0 0 Z " fill="#242424" transform="translate(356,215)"/>
<path d="M0 0 C2.31 0 4.62 0 7 0 C7.33 0.99 7.66 1.98 8 3 C5.03 3 2.06 3 -1 3 C-0.67 2.01 -0.34 1.02 0 0 Z " fill="#282828" transform="translate(348,193)"/>
<path d="M0 0 C0.66 0.33 1.32 0.66 2 1 C0.7508258 4.45925163 -0.67527795 7.14693203 -3 10 C-4 7 -4 7 -3.22265625 5.17578125 C-2.1484375 3.45052083 -1.07421875 1.72526042 0 0 Z " fill="#1D1D1D" transform="translate(347,156)"/>
<path d="M0 0 C0.33 0 0.66 0 1 0 C0.67 3.3 0.34 6.6 0 10 C-0.66 9.67 -1.32 9.34 -2 9 C-2.25 3.375 -2.25 3.375 0 0 Z " fill="#060606" transform="translate(318,193)"/>
</svg>
