<?xml version="1.0" encoding="UTF-8"?>
<svg version="1.1" xmlns="http://www.w3.org/2000/svg" width="800" height="300">
<path d="M0 0 C264 0 528 0 800 0 C800 99 800 198 800 300 C536 300 272 300 0 300 C0 201 0 102 0 0 Z " fill="#FEFEFE" transform="translate(0,0)"/>
<path d="M0 0 C2.9594334 2.14954731 4.73016275 3.81146955 5.47875977 7.47680664 C5.53604248 8.36360107 5.5933252 9.25039551 5.65234375 10.1640625 C5.71752197 11.0600415 5.7827002 11.95602051 5.84985352 12.87915039 C5.88651123 13.55969482 5.92316895 14.24023926 5.9609375 14.94140625 C6.62207047 14.93911514 7.28320343 14.93682404 7.96437073 14.9344635 C26.28044722 14.88024056 44.5853098 15.06085797 62.8984375 15.37890625 C64.23225821 15.40158339 65.56607983 15.42420655 66.89990234 15.44677734 C83.08814125 15.72175295 99.27579025 16.01944185 115.4609375 16.44140625 C116.19496796 16.45928192 116.92899841 16.47715759 117.68527222 16.49557495 C119.70436682 16.545711 121.72328724 16.60272473 123.7421875 16.66015625 C125.3828418 16.7055957 125.3828418 16.7055957 127.05664062 16.75195312 C129.77854023 16.92950811 132.30508571 17.334565 134.9609375 17.94140625 C135.4353125 17.13703125 135.9096875 16.33265625 136.3984375 15.50390625 C139.57696027 12.32538348 141.51014335 12.19063674 145.83984375 11.7890625 C147.9609375 11.94140625 147.9609375 11.94140625 150.9609375 13.94140625 C151.63699384 21.0399978 151.63699384 21.0399978 149.4609375 23.94140625 C148.9659375 24.27140625 148.4709375 24.60140625 147.9609375 24.94140625 C149.05081133 27.39362237 150.1431352 29.14854769 151.9296875 31.1796875 C158.33082747 39.88277588 157.60889074 53.16596741 156.75 63.47265625 C155.59407178 70.97334601 151.14891846 75.50053582 145.27734375 79.99609375 C142.86870413 81.69751578 140.44018361 83.34511097 137.9609375 84.94140625 C138.7240625 85.53953125 139.4871875 86.13765625 140.2734375 86.75390625 C141.1603125 87.47578125 142.0471875 88.19765625 142.9609375 88.94140625 C143.5590625 89.39515625 144.1571875 89.84890625 144.7734375 90.31640625 C146.65528456 92.89156538 146.33288739 94.84182384 145.9609375 97.94140625 C144.68404904 100.75056086 143.64993933 102.44247389 141.1484375 104.25390625 C138.25471767 105.16336105 135.9760512 105.26216303 132.9609375 104.94140625 C132.4865625 104.42578125 132.0121875 103.91015625 131.5234375 103.37890625 C131.0078125 102.90453125 130.4921875 102.43015625 129.9609375 101.94140625 C126.45746988 102.21090376 123.19050375 102.88739066 119.7734375 103.69140625 C113.25214951 104.11903169 107.10884722 101.99070949 100.9609375 99.94140625 C100.65800781 100.50988281 100.35507812 101.07835937 100.04296875 101.6640625 C97.31465117 106.69256167 94.50388449 111.44090602 90.9609375 115.94140625 C90.3009375 115.94140625 89.6409375 115.94140625 88.9609375 115.94140625 C88.97253906 116.57949219 88.98414063 117.21757812 88.99609375 117.875 C89.00511719 118.70128906 89.01414062 119.52757812 89.0234375 120.37890625 C89.03503906 121.20261719 89.04664063 122.02632813 89.05859375 122.875 C88.9609375 124.94140625 88.9609375 124.94140625 87.9609375 125.94140625 C85.71567282 126.12067477 83.46291011 126.2095209 81.2109375 126.25390625 C79.97859375 126.29128906 78.74625 126.32867187 77.4765625 126.3671875 C73.35789093 125.86837061 71.75863297 124.96919256 68.9609375 121.94140625 C67.98126946 118.83273894 68.1581533 116.08901337 68.9609375 112.94140625 C71.56886787 110.26827762 73.39317985 109.10717274 77.140625 108.7109375 C79.08217272 108.69366394 81.02391395 108.80781842 82.9609375 108.94140625 C83.1465625 108.07515625 83.1465625 108.07515625 83.3359375 107.19140625 C84.16642742 104.20164253 85.5731588 101.67134262 87.0234375 98.94140625 C87.95785239 96.94798781 88.45807559 95.07745683 88.9609375 92.94140625 C87.57158997 93.04798805 87.57158997 93.04798805 86.1541748 93.15672302 C75.16970132 93.9293042 64.2504848 94.07252835 53.2421875 94.0390625 C51.4041752 94.03719176 49.5661624 94.03577097 47.72814941 94.03477478 C42.94763757 94.03100116 38.16715729 94.0212165 33.38665771 94.0100708 C28.48564073 93.99974426 23.58461853 93.99525335 18.68359375 93.99023438 C9.10936131 93.97958828 -0.46484794 93.96257582 -10.0390625 93.94140625 C-9.08878881 95.38123201 -8.13659362 96.81978971 -7.18359375 98.2578125 C-6.65354736 99.05904541 -6.12350098 99.86027832 -5.57739258 100.68579102 C-2.35962204 105.40392814 0.0342136 107.94507629 5.6484375 109.12890625 C6.41542969 109.24621094 7.18242187 109.36351562 7.97265625 109.484375 C9.9609375 109.94140625 9.9609375 109.94140625 11.9609375 111.94140625 C12.56385382 116.36540266 12.42860763 120.59685462 10.9609375 124.81640625 C7.10535258 128.91296522 2.80069221 130.69194798 -2.7265625 131.44140625 C-6.69301693 130.84269615 -8.37473606 129.92868135 -11.0390625 126.94140625 C-11.68153803 123.17833526 -11.2000836 122.18293791 -9.0390625 118.94140625 C-8.3790625 118.94140625 -7.7190625 118.94140625 -7.0390625 118.94140625 C-7.0390625 118.28140625 -7.0390625 117.62140625 -7.0390625 116.94140625 C-8.2146875 116.57015625 -8.2146875 116.57015625 -9.4140625 116.19140625 C-12.0390625 114.94140625 -12.0390625 114.94140625 -12.9765625 112.94140625 C-13.89733879 110.65350439 -13.89733879 110.65350439 -16.6640625 110.06640625 C-21.41786809 108.48180439 -25.4865804 105.49388835 -29.0390625 101.94140625 C-33.52258056 101.74917824 -33.52258056 101.74917824 -37.93457031 102.41577148 C-40.42779891 103.03850016 -42.83761311 103.2610979 -45.3984375 103.4765625 C-46.43226563 103.56357422 -47.46609375 103.65058594 -48.53125 103.74023438 C-49.60632813 103.82724609 -50.68140625 103.91425781 -51.7890625 104.00390625 C-53.37847656 104.14022461 -53.37847656 104.14022461 -55 104.27929688 C-60.7020873 104.74975445 -66.31802235 105.04504828 -72.0390625 104.94140625 C-71.9153125 106.08609375 -71.9153125 106.08609375 -71.7890625 107.25390625 C-72.0390625 109.94140625 -72.0390625 109.94140625 -73.6015625 111.75390625 C-77.09780337 113.45720309 -79.18228971 113.52972752 -83.0390625 112.94140625 C-85.97117095 111.38408017 -88.10295949 109.64735438 -90.0390625 106.94140625 C-90.43810688 103.79893176 -90.48000741 101.9467939 -90.0390625 98.94140625 C-89.9565625 97.68328125 -89.8740625 96.42515625 -89.7890625 95.12890625 C-89.0390625 91.94140625 -89.0390625 91.94140625 -87.4140625 89.94140625 C-83.99301047 88.50096329 -81.64186555 89.20863275 -78.0390625 89.94140625 C-76.09 90.21984375 -76.09 90.21984375 -74.1015625 90.50390625 C-73.0909375 90.64828125 -72.0803125 90.79265625 -71.0390625 90.94140625 C-71.69132812 90.503125 -72.34359375 90.06484375 -73.015625 89.61328125 C-79.83022671 84.66817205 -85.36214121 79.47001951 -87.0390625 70.94140625 C-88.41191054 55.63611179 -88.69405621 40.05117613 -80.0390625 26.94140625 C-75.34308567 21.98454182 -67.7262024 18.34678669 -61.0390625 16.94140625 C-60.94625 15.20890625 -60.94625 15.20890625 -60.8515625 13.44140625 C-60.22121141 8.53867557 -58.47833459 4.537428 -55.0390625 0.94140625 C-52.0390625 0.06640625 -52.0390625 0.06640625 -49.0390625 0.94140625 C-45.68607608 4.00282864 -44.14968529 5.74668009 -43.7265625 10.31640625 C-43.8296875 11.18265625 -43.9328125 12.04890625 -44.0390625 12.94140625 C-43.1934375 12.44640625 -42.3478125 11.95140625 -41.4765625 11.44140625 C-35.53128589 8.86022649 -28.37373745 9.38522612 -22.0390625 9.94140625 C-19.58203125 10.9609375 -19.58203125 10.9609375 -18.0390625 11.94140625 C-18.1215625 10.88953125 -18.2040625 9.83765625 -18.2890625 8.75390625 C-17.99902667 4.3308598 -17.17025368 2.9856199 -14.0390625 -0.05859375 C-9.81045639 -3.38106998 -4.48222133 -2.32697698 0 0 Z " fill="#FCFCFC" transform="translate(387.0390625,155.05859375)"/>
<path d="M0 0 C2.9594334 2.14954731 4.73016275 3.81146955 5.47875977 7.47680664 C5.53604248 8.36360107 5.5933252 9.25039551 5.65234375 10.1640625 C5.71752197 11.0600415 5.7827002 11.95602051 5.84985352 12.87915039 C5.88651123 13.55969482 5.92316895 14.24023926 5.9609375 14.94140625 C6.62207047 14.93911514 7.28320343 14.93682404 7.96437073 14.9344635 C26.28044722 14.88024056 44.5853098 15.06085797 62.8984375 15.37890625 C64.23225821 15.40158339 65.56607983 15.42420655 66.89990234 15.44677734 C83.08814125 15.72175295 99.27579025 16.01944185 115.4609375 16.44140625 C116.19496796 16.45928192 116.92899841 16.47715759 117.68527222 16.49557495 C119.70436682 16.545711 121.72328724 16.60272473 123.7421875 16.66015625 C125.3828418 16.7055957 125.3828418 16.7055957 127.05664062 16.75195312 C129.77854023 16.92950811 132.30508571 17.334565 134.9609375 17.94140625 C135.4353125 17.13703125 135.9096875 16.33265625 136.3984375 15.50390625 C139.57696027 12.32538348 141.51014335 12.19063674 145.83984375 11.7890625 C147.9609375 11.94140625 147.9609375 11.94140625 150.9609375 13.94140625 C151.63699384 21.0399978 151.63699384 21.0399978 149.4609375 23.94140625 C148.9659375 24.27140625 148.4709375 24.60140625 147.9609375 24.94140625 C149.05081133 27.39362237 150.1431352 29.14854769 151.9296875 31.1796875 C158.33082747 39.88277588 157.60889074 53.16596741 156.75 63.47265625 C155.59407178 70.97334601 151.14891846 75.50053582 145.27734375 79.99609375 C142.86870413 81.69751578 140.44018361 83.34511097 137.9609375 84.94140625 C138.7240625 85.53953125 139.4871875 86.13765625 140.2734375 86.75390625 C141.1603125 87.47578125 142.0471875 88.19765625 142.9609375 88.94140625 C143.5590625 89.39515625 144.1571875 89.84890625 144.7734375 90.31640625 C146.65528456 92.89156538 146.33288739 94.84182384 145.9609375 97.94140625 C144.68404904 100.75056086 143.64993933 102.44247389 141.1484375 104.25390625 C138.25471767 105.16336105 135.9760512 105.26216303 132.9609375 104.94140625 C132.4865625 104.42578125 132.0121875 103.91015625 131.5234375 103.37890625 C131.0078125 102.90453125 130.4921875 102.43015625 129.9609375 101.94140625 C126.45746988 102.21090376 123.19050375 102.88739066 119.7734375 103.69140625 C113.25214951 104.11903169 107.10884722 101.99070949 100.9609375 99.94140625 C100.65800781 100.50988281 100.35507812 101.07835937 100.04296875 101.6640625 C97.31465117 106.69256167 94.50388449 111.44090602 90.9609375 115.94140625 C90.3009375 115.94140625 89.6409375 115.94140625 88.9609375 115.94140625 C88.97253906 116.57949219 88.98414063 117.21757812 88.99609375 117.875 C89.00511719 118.70128906 89.01414062 119.52757812 89.0234375 120.37890625 C89.03503906 121.20261719 89.04664063 122.02632813 89.05859375 122.875 C88.9609375 124.94140625 88.9609375 124.94140625 87.9609375 125.94140625 C85.71567282 126.12067477 83.46291011 126.2095209 81.2109375 126.25390625 C79.97859375 126.29128906 78.74625 126.32867187 77.4765625 126.3671875 C73.35789093 125.86837061 71.75863297 124.96919256 68.9609375 121.94140625 C67.98126946 118.83273894 68.1581533 116.08901337 68.9609375 112.94140625 C71.56886787 110.26827762 73.39317985 109.10717274 77.140625 108.7109375 C79.08217272 108.69366394 81.02391395 108.80781842 82.9609375 108.94140625 C83.1465625 108.07515625 83.1465625 108.07515625 83.3359375 107.19140625 C84.16642742 104.20164253 85.5731588 101.67134262 87.0234375 98.94140625 C87.95785239 96.94798781 88.45807559 95.07745683 88.9609375 92.94140625 C87.57158997 93.04798805 87.57158997 93.04798805 86.1541748 93.15672302 C75.16970132 93.9293042 64.2504848 94.07252835 53.2421875 94.0390625 C51.4041752 94.03719176 49.5661624 94.03577097 47.72814941 94.03477478 C42.94763757 94.03100116 38.16715729 94.0212165 33.38665771 94.0100708 C28.48564073 93.99974426 23.58461853 93.99525335 18.68359375 93.99023438 C9.10936131 93.97958828 -0.46484794 93.96257582 -10.0390625 93.94140625 C-9.08878881 95.38123201 -8.13659362 96.81978971 -7.18359375 98.2578125 C-6.65354736 99.05904541 -6.12350098 99.86027832 -5.57739258 100.68579102 C-2.35962204 105.40392814 0.0342136 107.94507629 5.6484375 109.12890625 C6.41542969 109.24621094 7.18242187 109.36351562 7.97265625 109.484375 C9.9609375 109.94140625 9.9609375 109.94140625 11.9609375 111.94140625 C12.56385382 116.36540266 12.42860763 120.59685462 10.9609375 124.81640625 C7.10535258 128.91296522 2.80069221 130.69194798 -2.7265625 131.44140625 C-6.69301693 130.84269615 -8.37473606 129.92868135 -11.0390625 126.94140625 C-11.68153803 123.17833526 -11.2000836 122.18293791 -9.0390625 118.94140625 C-8.3790625 118.94140625 -7.7190625 118.94140625 -7.0390625 118.94140625 C-7.0390625 118.28140625 -7.0390625 117.62140625 -7.0390625 116.94140625 C-8.2146875 116.57015625 -8.2146875 116.57015625 -9.4140625 116.19140625 C-12.0390625 114.94140625 -12.0390625 114.94140625 -12.9765625 112.94140625 C-13.89733879 110.65350439 -13.89733879 110.65350439 -16.6640625 110.06640625 C-21.41786809 108.48180439 -25.4865804 105.49388835 -29.0390625 101.94140625 C-33.52258056 101.74917824 -33.52258056 101.74917824 -37.93457031 102.41577148 C-40.42779891 103.03850016 -42.83761311 103.2610979 -45.3984375 103.4765625 C-46.43226563 103.56357422 -47.46609375 103.65058594 -48.53125 103.74023438 C-49.60632813 103.82724609 -50.68140625 103.91425781 -51.7890625 104.00390625 C-53.37847656 104.14022461 -53.37847656 104.14022461 -55 104.27929688 C-60.7020873 104.74975445 -66.31802235 105.04504828 -72.0390625 104.94140625 C-71.9153125 106.08609375 -71.9153125 106.08609375 -71.7890625 107.25390625 C-72.0390625 109.94140625 -72.0390625 109.94140625 -73.6015625 111.75390625 C-77.09780337 113.45720309 -79.18228971 113.52972752 -83.0390625 112.94140625 C-85.97117095 111.38408017 -88.10295949 109.64735438 -90.0390625 106.94140625 C-90.43810688 103.79893176 -90.48000741 101.9467939 -90.0390625 98.94140625 C-89.9565625 97.68328125 -89.8740625 96.42515625 -89.7890625 95.12890625 C-89.0390625 91.94140625 -89.0390625 91.94140625 -87.4140625 89.94140625 C-83.99301047 88.50096329 -81.64186555 89.20863275 -78.0390625 89.94140625 C-76.09 90.21984375 -76.09 90.21984375 -74.1015625 90.50390625 C-73.0909375 90.64828125 -72.0803125 90.79265625 -71.0390625 90.94140625 C-71.69132812 90.503125 -72.34359375 90.06484375 -73.015625 89.61328125 C-79.83022671 84.66817205 -85.36214121 79.47001951 -87.0390625 70.94140625 C-88.41191054 55.63611179 -88.69405621 40.05117613 -80.0390625 26.94140625 C-75.34308567 21.98454182 -67.7262024 18.34678669 -61.0390625 16.94140625 C-60.94625 15.20890625 -60.94625 15.20890625 -60.8515625 13.44140625 C-60.22121141 8.53867557 -58.47833459 4.537428 -55.0390625 0.94140625 C-52.0390625 0.06640625 -52.0390625 0.06640625 -49.0390625 0.94140625 C-45.68607608 4.00282864 -44.14968529 5.74668009 -43.7265625 10.31640625 C-43.8296875 11.18265625 -43.9328125 12.04890625 -44.0390625 12.94140625 C-43.1934375 12.44640625 -42.3478125 11.95140625 -41.4765625 11.44140625 C-35.53128589 8.86022649 -28.37373745 9.38522612 -22.0390625 9.94140625 C-19.58203125 10.9609375 -19.58203125 10.9609375 -18.0390625 11.94140625 C-18.1215625 10.88953125 -18.2040625 9.83765625 -18.2890625 8.75390625 C-17.99902667 4.3308598 -17.17025368 2.9856199 -14.0390625 -0.05859375 C-9.81045639 -3.38106998 -4.48222133 -2.32697698 0 0 Z M-13.5390625 3.87890625 C-15.62279221 8.13318774 -14.94886655 11.40227517 -14.0390625 15.94140625 C-15.0496875 15.61140625 -16.0603125 15.28140625 -17.1015625 14.94140625 C-26.83036676 12.5221654 -37.42331867 13.40737493 -47.0390625 15.94140625 C-46.99265625 15.338125 -46.94625 14.73484375 -46.8984375 14.11328125 C-46.6170363 8.91758251 -46.6170363 8.91758251 -48.7890625 4.31640625 C-50.89424158 2.78841526 -50.89424158 2.78841526 -53.1015625 2.81640625 C-56.23484674 4.63573259 -56.84605693 6.54134038 -58.0390625 9.94140625 C-58.2737538 13.2919991 -58.21793623 16.58917998 -58.0390625 19.94140625 C-59.0084375 20.00328125 -59.9778125 20.06515625 -60.9765625 20.12890625 C-67.08114478 21.02044768 -72.7954185 24.16120099 -76.8515625 28.81640625 C-84.94117167 40.37299078 -86.99264453 52.95863562 -85.0390625 66.94140625 C-82.94014591 74.79652476 -78.44900838 81.50377909 -72.2265625 86.70703125 C-66.06424014 90.18434173 -59.48858379 90.32840983 -52.6015625 90.56640625 C-51.67923828 90.60507813 -50.75691406 90.64375 -49.80664062 90.68359375 C-47.55097107 90.77709301 -45.29529334 90.86284535 -43.0390625 90.94140625 C-50.66985042 92.38224527 -58.32077643 93.41142896 -66.0390625 94.25390625 C-66.95905029 94.36653809 -67.87903809 94.47916992 -68.8269043 94.59521484 C-69.7012915 94.68496582 -70.57567871 94.7747168 -71.4765625 94.8671875 C-72.25902344 94.95395752 -73.04148437 95.04072754 -73.84765625 95.13012695 C-76.66509037 94.88749364 -77.83917743 93.64480504 -80.0390625 91.94140625 C-83.23141522 92.16714516 -83.23141522 92.16714516 -86.0390625 92.94140625 C-88.04714088 99.46078616 -88.04714088 99.46078616 -87.26953125 106.0078125 C-85.08481561 108.88608866 -83.39556911 109.88548364 -79.8515625 110.44140625 C-76.91158867 110.19554813 -76.91158867 110.19554813 -75.0390625 107.94140625 C-74.87225141 104.85792799 -74.87225141 104.85792799 -75.0390625 101.94140625 C-74.31783203 101.9580835 -73.59660156 101.97476074 -72.85351562 101.99194336 C-65.29474587 102.08989587 -58.02518452 101.50360578 -50.5390625 100.50390625 C-42.38100207 99.44487853 -34.24362787 98.55638205 -26.0390625 97.94140625 C-26.5340625 99.42640625 -26.5340625 99.42640625 -27.0390625 100.94140625 C-26.4821875 101.30492187 -25.9253125 101.6684375 -25.3515625 102.04296875 C-21.42408964 104.63032418 -17.57567462 107.2547849 -13.8515625 110.12890625 C-8.47187156 114.35976669 -8.47187156 114.35976669 -2.0390625 115.94140625 C-3.26840265 119.62942669 -4.97765628 120.66497598 -8.0390625 122.94140625 C-7.54150158 125.69782041 -7.54150158 125.69782041 -6.0390625 127.94140625 C-1.99694279 127.90861015 1.78451216 127.5447013 5.3984375 125.69140625 C8.1940973 122.56026727 8.90859365 119.84869957 9.1484375 115.69140625 C9.26974716 113.03109299 9.26974716 113.03109299 7.9609375 111.94140625 C6.7234375 111.85890625 5.4859375 111.77640625 4.2109375 111.69140625 C-0.31233596 111.17446071 -2.1333282 109.49285928 -5.0390625 105.94140625 C-5.7609375 105.01328125 -6.4828125 104.08515625 -7.2265625 103.12890625 C-7.8246875 102.40703125 -8.4228125 101.68515625 -9.0390625 100.94140625 C-9.6990625 100.94140625 -10.3590625 100.94140625 -11.0390625 100.94140625 C-11.1421875 100.17828125 -11.2453125 99.41515625 -11.3515625 98.62890625 C-12.10133442 95.69797967 -12.87379517 94.92623463 -15.0390625 92.94140625 C-15.3690625 91.95140625 -15.6990625 90.96140625 -16.0390625 89.94140625 C-14.5540625 90.43640625 -14.5540625 90.43640625 -13.0390625 90.94140625 C-10.46206542 91.00379092 -7.91550197 91.00818835 -5.34008789 90.96313477 C-4.55557251 90.95352722 -3.77105713 90.94391968 -2.96276855 90.934021 C-0.35399747 90.90092013 2.25461116 90.8605423 4.86328125 90.8203125 C6.6976303 90.79595902 8.53198622 90.77211826 10.36634827 90.74876404 C15.22350781 90.68578638 20.08056523 90.61691826 24.93762207 90.54650879 C32.60376968 90.43620223 40.27002785 90.33372924 47.93629837 90.23237228 C49.80145162 90.20770326 51.6666021 90.18282445 53.53174973 90.15773392 C69.00923247 89.95110087 84.4820491 89.86756081 99.9609375 89.94140625 C99.9609375 90.93140625 99.9609375 91.92140625 99.9609375 92.94140625 C97.3209375 92.94140625 94.6809375 92.94140625 91.9609375 92.94140625 C88.99677931 99.86558605 86.23528954 106.75924192 83.9609375 113.94140625 C83.3009375 113.61140625 82.6409375 113.28140625 81.9609375 112.94140625 C80.46444388 112.82135172 78.96218957 112.76609174 77.4609375 112.75390625 C76.26984375 112.73263672 76.26984375 112.73263672 75.0546875 112.7109375 C72.74060433 112.74474322 72.74060433 112.74474322 70.9609375 114.94140625 C71.31357535 119.44457748 71.31357535 119.44457748 73.9609375 122.94140625 C77.08908264 123.18500698 77.08908264 123.18500698 80.5859375 123.06640625 C81.77445313 123.04835938 82.96296875 123.0303125 84.1875 123.01171875 C85.10273438 122.98851562 86.01796875 122.9653125 86.9609375 122.94140625 C86.9609375 121.80703125 86.9609375 120.67265625 86.9609375 119.50390625 C87.56115315 114.3747907 90.42454571 111.67831826 93.953125 108.1171875 C96.03401919 105.86221072 97.45441697 103.60579541 98.9609375 100.94140625 C99.9509375 99.45640625 99.9509375 99.45640625 100.9609375 97.94140625 C100.9609375 96.62140625 100.9609375 95.30140625 100.9609375 93.94140625 C101.9509375 93.94140625 102.9409375 93.94140625 103.9609375 93.94140625 C104.05117188 94.5653125 104.14140625 95.18921875 104.234375 95.83203125 C104.75355076 98.03947056 104.75355076 98.03947056 106.5625 98.98828125 C113.65683963 101.45349579 118.8189638 101.42557102 125.9609375 98.94140625 C128.7109375 98.62890625 128.7109375 98.62890625 130.9609375 98.94140625 C131.9509375 100.42640625 131.9509375 100.42640625 132.9609375 101.94140625 C136.56839744 102.49036754 138.29965732 102.39386111 141.3359375 100.31640625 C143.43558203 97.24769501 143.58154565 95.58747914 142.9609375 91.94140625 C141.54045434 89.87384496 141.54045434 89.87384496 138.9609375 88.94140625 C136.24024162 88.7077587 133.70227599 88.80433933 130.9609375 88.94140625 C130.9609375 89.93140625 130.9609375 90.92140625 130.9609375 91.94140625 C130.25710938 91.91820312 129.55328125 91.895 128.828125 91.87109375 C120.70230221 91.72258002 112.9704859 92.61438048 104.9609375 93.94140625 C104.9609375 92.95140625 104.9609375 91.96140625 104.9609375 90.94140625 C106.1365625 90.98265625 107.3121875 91.02390625 108.5234375 91.06640625 C112.64776455 91.05917059 116.0283651 90.25226372 119.9609375 88.94140625 C120.69570313 88.71195312 121.43046875 88.4825 122.1875 88.24609375 C130.83913587 85.49724623 137.64108587 81.25044437 144.9609375 75.94140625 C145.9096875 75.28140625 146.8584375 74.62140625 147.8359375 73.94140625 C152.07836861 69.94852991 154.1692608 65.96897313 154.421875 60.19921875 C154.41398947 58.48805963 154.38495564 56.77688131 154.3359375 55.06640625 C154.33464844 54.21949219 154.33335937 53.37257812 154.33203125 52.5 C154.24201001 45.96845895 154.11552752 38.94158924 150.19921875 33.48828125 C149.56371094 32.8953125 148.92820312 32.30234375 148.2734375 31.69140625 C146.32421875 29.86328125 146.32421875 29.86328125 144.9609375 27.94140625 C145.17783798 24.57188255 145.55204766 23.35029609 147.9609375 20.94140625 C148.12774859 17.85792799 148.12774859 17.85792799 147.9609375 14.94140625 C144.52863302 15.20534126 144.52863302 15.20534126 140.9609375 15.94140625 C140.3009375 16.93140625 139.6409375 17.92140625 138.9609375 18.94140625 C139.9509375 20.26140625 140.9409375 21.58140625 141.9609375 22.94140625 C139.98074007 22.46651727 138.00180115 21.98637766 136.0234375 21.50390625 C134.92128906 21.23707031 133.81914063 20.97023437 132.68359375 20.6953125 C129.9609375 19.94140625 129.9609375 19.94140625 128.9609375 18.94140625 C126.85461693 18.82258522 124.74432029 18.77395049 122.63476562 18.75195312 C121.97251984 18.74365982 121.31027405 18.73536652 120.62796021 18.7268219 C119.18040918 18.70936329 117.73282897 18.69421263 116.28523254 18.68104553 C113.96787474 18.65993476 111.65065167 18.63289449 109.33337402 18.60437012 C105.21329534 18.55464428 101.09317895 18.51021013 96.97302246 18.46746826 C89.68767148 18.39188527 82.40239335 18.31115328 75.1171875 18.22265625 C74.32855757 18.21324949 73.53992764 18.20384274 72.72739983 18.19415092 C61.85203012 18.06025017 50.99711752 17.76647056 40.1309967 17.27833557 C31.8794189 16.91247575 23.65788572 16.82224513 15.3984375 16.87890625 C13.42133789 16.88567383 13.42133789 16.88567383 11.40429688 16.89257812 C8.25645433 16.90402483 5.10872668 16.92021451 1.9609375 16.94140625 C1.9906665 16.25578613 2.02039551 15.57016602 2.05102539 14.86376953 C2.07414795 13.96384277 2.09727051 13.06391602 2.12109375 12.13671875 C2.15082275 11.24484863 2.18055176 10.35297852 2.21118164 9.43408203 C1.926759 6.60095503 1.47625235 5.71091462 -0.6015625 3.81640625 C-5.49169665 1.14906035 -8.95431876 0.32572985 -13.5390625 3.87890625 Z " fill="#161616" transform="translate(387.0390625,155.05859375)"/>
<path d="M0 0 C1 1 1 1 1.25 4.875 C1.2225573 8.70325694 1.2225573 8.70325694 -0.5 11 C-0.995 11.33 -1.49 11.66 -2 12 C-0.91012617 14.45221612 0.1821977 16.20714144 1.96875 18.23828125 C8.36988997 26.94136963 7.64795324 40.22456116 6.7890625 50.53125 C5.63313428 58.03193976 1.18798096 62.55912957 -4.68359375 67.0546875 C-7.09223337 68.75610953 -9.52075389 70.40370472 -12 72 C-11.236875 72.598125 -10.47375 73.19625 -9.6875 73.8125 C-8.800625 74.534375 -7.91375 75.25625 -7 76 C-6.401875 76.45375 -5.80375 76.9075 -5.1875 77.375 C-3.30565294 79.95015913 -3.62805011 81.90041759 -4 85 C-5.27688846 87.80915461 -6.31099817 89.50106764 -8.8125 91.3125 C-11.70621983 92.2219548 -13.9848863 92.32075678 -17 92 C-17.474375 91.484375 -17.94875 90.96875 -18.4375 90.4375 C-18.953125 89.963125 -19.46875 89.48875 -20 89 C-23.50346762 89.26949751 -26.77043375 89.94598441 -30.1875 90.75 C-35.77426205 91.11634505 -40.66012373 89.52137519 -46 88 C-47.33189667 87.66097176 -48.66462998 87.32507814 -50 87 C-49.67 85.02 -49.34 83.04 -49 81 C-48.01 81 -47.02 81 -46 81 C-45.7215625 81.928125 -45.7215625 81.928125 -45.4375 82.875 C-43.22732009 86.14222247 -40.7823039 86.25594022 -37 87 C-32.08059803 87.34522119 -28.61448099 86.60503687 -24 85 C-21.25 84.6875 -21.25 84.6875 -19 85 C-18.01 86.485 -18.01 86.485 -17 88 C-13.8694571 88.39964378 -11.86916239 88.52149743 -9.125 86.875 C-7.47850257 84.13083761 -7.60035622 82.1305429 -8 79 C-10.90092502 77.06604999 -11.89674737 76.69868059 -15.1875 76.375 C-16.445625 76.25125 -17.70375 76.1275 -19 76 C-19 76.99 -19 77.98 -19 79 C-22.02038089 79.33794471 -25.04119756 79.67048433 -28.0625 80 C-28.91005859 80.09539062 -29.75761719 80.19078125 -30.63085938 80.2890625 C-35.45472589 80.81056158 -40.14836264 81.10532727 -45 81 C-45 80.01 -45 79.02 -45 78 C-44.03578125 77.87882812 -43.0715625 77.75765625 -42.078125 77.6328125 C-40.81484375 77.46523437 -39.5515625 77.29765625 -38.25 77.125 C-36.99703125 76.96257812 -35.7440625 76.80015625 -34.453125 76.6328125 C-31.43395133 76.07952502 -29.62536467 75.45303202 -27 74 C-25.31566672 73.44856512 -23.62783844 72.9077429 -21.9375 72.375 C-12.62172964 69.04526682 -4.5031029 62.70831293 1.60546875 54.96484375 C3.60632435 50.71092387 3.39830739 46.89046387 3.3125 42.25 C3.31733398 40.96609375 3.31733398 40.96609375 3.32226562 39.65625 C3.26743176 33.07618663 3.18809484 26.04683715 -0.76171875 20.546875 C-1.39722656 19.95390625 -2.03273438 19.3609375 -2.6875 18.75 C-4.63671875 16.921875 -4.63671875 16.921875 -6 15 C-5.78309952 11.6304763 -5.40888984 10.40888984 -3 8 C-2.60235737 6.01178687 -2.26224651 4.01055661 -2 2 C-4.31 2.66 -6.62 3.32 -9 4 C-9.15811388 7.05270463 -9.15811388 7.05270463 -8 10 C-15.47089334 9.24024813 -15.47089334 9.24024813 -18.20280457 7.99978638 C-21.57808353 6.79337874 -24.41008911 6.6797455 -27.9934082 6.58935547 C-28.67688828 6.56955627 -29.36036835 6.54975708 -30.06455994 6.52935791 C-32.3098291 6.46649479 -34.55518272 6.41676128 -36.80078125 6.3671875 C-38.36307395 6.32601652 -39.92534517 6.28402275 -41.4875946 6.24124146 C-45.58910672 6.13112856 -49.69081438 6.03216666 -53.79266357 5.93554688 C-57.98239437 5.83487562 -62.17184302 5.72362982 -66.36132812 5.61328125 C-74.57397982 5.39852057 -82.78686837 5.19554279 -91 5 C-91 4.67 -91 4.34 -91 4 C-81.82910742 3.97681556 -72.65822496 3.95905378 -63.48730946 3.94818783 C-59.2287524 3.94297236 -54.97021542 3.93589896 -50.71166992 3.92456055 C-46.60088084 3.9136842 -42.49011106 3.90771309 -38.3793087 3.90512276 C-36.81205631 3.90327707 -35.24480497 3.89967293 -33.67756081 3.89426994 C-31.4800858 3.88699652 -29.28269021 3.88601172 -27.08520508 3.88647461 C-25.83500076 3.884254 -24.58479645 3.88203339 -23.29670715 3.87974548 C-20.39576466 3.98556363 -17.81545765 4.32540867 -15 5 C-14.443125 4.195625 -13.88625 3.39125 -13.3125 2.5625 C-11 0 -11 0 -8.625 -0.875 C-5.59305085 -1.01937853 -2.95662241 -0.67195964 0 0 Z " fill="#101010" transform="translate(537,168)"/>
<path d="M0 0 C0.96938507 -0.00673233 1.93877014 -0.01346466 2.93753052 -0.020401 C4.25598465 -0.02178322 4.25598465 -0.02178322 5.60107422 -0.02319336 C6.72580643 -0.02687172 6.72580643 -0.02687172 7.8732605 -0.03062439 C10.00872836 0.09353072 11.89217584 0.50432335 13.9453125 1.08984375 C13.9453125 2.07984375 13.9453125 3.06984375 13.9453125 4.08984375 C11.3053125 4.41984375 8.6653125 4.74984375 5.9453125 5.08984375 C3.3053125 11.68984375 0.6653125 18.28984375 -2.0546875 25.08984375 C-5.6846875 25.08984375 -9.3146875 25.08984375 -13.0546875 25.08984375 C-14.30506803 28.7874107 -14.30506803 28.7874107 -13.53125 31.29296875 C-12.10676778 33.41276091 -12.10676778 33.41276091 -9.015625 33.69921875 C-7.83226562 33.745625 -6.64890625 33.79203125 -5.4296875 33.83984375 C-3.64691406 33.92492187 -3.64691406 33.92492187 -1.828125 34.01171875 C-0.91289062 34.0375 0.00234375 34.06328125 0.9453125 34.08984375 C0.7803125 32.95546875 0.6153125 31.82109375 0.4453125 30.65234375 C0.40738101 26.37367221 1.9081838 24.50724084 4.7578125 21.40234375 C5.46550781 20.69722656 6.17320312 19.99210937 6.90234375 19.265625 C9.00517976 17.02608454 10.38164765 14.71984738 11.9453125 12.08984375 C12.6053125 11.75984375 13.2653125 11.42984375 13.9453125 11.08984375 C13.32695717 15.10915338 11.24665112 17.80221715 8.9453125 21.08984375 C7.8934375 22.76046875 7.8934375 22.76046875 6.8203125 24.46484375 C6.2015625 25.33109375 5.5828125 26.19734375 4.9453125 27.08984375 C4.2853125 27.08984375 3.6253125 27.08984375 2.9453125 27.08984375 C2.95691406 27.72792969 2.96851563 28.36601562 2.98046875 29.0234375 C2.98949219 29.84972656 2.99851562 30.67601562 3.0078125 31.52734375 C3.01941406 32.35105469 3.03101563 33.17476563 3.04296875 34.0234375 C2.9453125 36.08984375 2.9453125 36.08984375 1.9453125 37.08984375 C-0.29995218 37.26911227 -2.55271489 37.3579584 -4.8046875 37.40234375 C-6.65320313 37.45841797 -6.65320313 37.45841797 -8.5390625 37.515625 C-12.65773407 37.01680811 -14.25699203 36.11763006 -17.0546875 33.08984375 C-18.03435554 29.98117644 -17.8574717 27.23745087 -17.0546875 24.08984375 C-14.44675713 21.41671512 -12.62244515 20.25561024 -8.875 19.859375 C-6.93345228 19.84210144 -4.99171105 19.95625592 -3.0546875 20.08984375 C-2.8690625 19.22359375 -2.8690625 19.22359375 -2.6796875 18.33984375 C-1.84919758 15.35008003 -0.4424662 12.81978012 1.0078125 10.08984375 C1.94222739 8.09642531 2.44245059 6.22589433 2.9453125 4.08984375 C2.01654297 4.16089828 1.08777344 4.23195282 0.13085938 4.30516052 C-10.77849427 5.07130124 -21.62172164 5.22116214 -32.5546875 5.1875 C-34.37027955 5.18562917 -36.18587211 5.18420842 -38.00146484 5.18321228 C-42.72279312 5.17943935 -47.44408942 5.16965532 -52.16540527 5.1585083 C-57.00609912 5.14818023 -61.84679826 5.14369053 -66.6875 5.13867188 C-76.14324303 5.128027 -85.59896258 5.11101543 -95.0546875 5.08984375 C-95.3846875 4.42984375 -95.7146875 3.76984375 -96.0546875 3.08984375 C-95.11496094 2.99896484 -95.11496094 2.99896484 -94.15625 2.90625 C-92.93035156 2.78056641 -92.93035156 2.78056641 -91.6796875 2.65234375 C-90.86757813 2.57113281 -90.05546875 2.48992187 -89.21875 2.40625 C-87.01195945 2.19894261 -87.01195945 2.19894261 -85.0546875 1.08984375 C-82.93576983 0.96900813 -80.81309555 0.91237151 -78.69091797 0.88452148 C-78.03667343 0.87462189 -77.38242889 0.86472229 -76.70835876 0.85452271 C-74.52956803 0.82278417 -72.35075706 0.79804668 -70.171875 0.7734375 C-68.64038591 0.75282365 -67.10890194 0.73182617 -65.5774231 0.71046448 C-62.34754431 0.66640506 -59.11764652 0.62553789 -55.88769531 0.5871582 C-51.82224528 0.53881587 -47.75689272 0.48506385 -43.69153976 0.42920494 C-29.12845474 0.22956444 -14.56443991 0.05315489 0 0 Z " fill="#212121" transform="translate(473.0546875,243.91015625)"/>
<path d="M0 0 C0.33 0 0.66 0 1 0 C0.835 1.258125 0.67 2.51625 0.5 3.8125 C0.3129249 5.87324912 0.15026239 7.93624002 0 10 C-0.05285156 10.69722168 -0.10570312 11.39444336 -0.16015625 12.11279297 C-1.02305539 25.08117141 0.14847585 34.82334591 8.77734375 45.12109375 C15.85975459 51.81806727 24.88193293 51.34438485 34.05664062 51.56640625 C35.35311523 51.61087891 35.35311523 51.61087891 36.67578125 51.65625 C37.8500769 51.68428711 37.8500769 51.68428711 39.0480957 51.71289062 C41 52 41 52 43 54 C38.51714867 54.59748503 34.03316223 55.1851818 29.54785156 55.76391602 C28.02276194 55.96208693 26.49801446 56.16290991 24.97363281 56.36645508 C22.78014724 56.65887216 20.58560079 56.94167262 18.390625 57.22265625 C17.7113092 57.31531265 17.03199341 57.40796906 16.33209229 57.50343323 C11.03633983 58.16633924 8.42598151 57.95065434 4 55 C0.87478167 54.83300768 0.87478167 54.83300768 -2 55 C-3.30433153 62.27342956 -3.30433153 62.27342956 -1.4375 69.1875 C1.58821349 71.43738952 3.31226332 71.41906099 7 71 C7.66 68.69 8.32 66.38 9 64 C10.64666203 64.1135629 12.29236082 64.24117381 13.9375 64.375 C14.85402344 64.44460938 15.77054687 64.51421875 16.71484375 64.5859375 C17.46894531 64.72257812 18.22304688 64.85921875 19 65 C19.495 65.99 19.495 65.99 20 67 C17.36 67 14.72 67 12 67 C12.12375 68.1446875 12.12375 68.1446875 12.25 69.3125 C12 72 12 72 10.4375 73.8125 C6.94125913 75.51579684 4.85677279 75.58832127 1 75 C-1.93210845 73.44267392 -4.06389699 71.70594813 -6 69 C-6.39904438 65.85752551 -6.44094491 64.00538765 -6 61 C-5.9175 59.741875 -5.835 58.48375 -5.75 57.1875 C-5 54 -5 54 -3.375 52 C0.04605203 50.55955704 2.39719695 51.2672265 6 52 C7.9490625 52.2784375 7.9490625 52.2784375 9.9375 52.5625 C10.948125 52.706875 11.95875 52.85125 13 53 C12.34773438 52.56171875 11.69546875 52.1234375 11.0234375 51.671875 C4.20174942 46.72162348 -1.30910915 41.5301093 -3 33 C-3.98705933 22.58811607 -4.66260557 10.94730377 -1 1 C-0.67 0.67 -0.34 0.34 0 0 Z " fill="#0E0E0E" transform="translate(303,193)"/>
<path d="M0 0 C1.32 0.33 2.64 0.66 4 1 C4 3 4 3 2.5 4.625 C2.005 5.07875 1.51 5.5325 1 6 C1.99 7.98 1.99 7.98 3 10 C-4.47089334 9.24024813 -4.47089334 9.24024813 -7.20280457 7.99978638 C-10.57808353 6.79337874 -13.41008911 6.6797455 -16.9934082 6.58935547 C-17.67688828 6.56955627 -18.36036835 6.54975708 -19.06455994 6.52935791 C-21.3098291 6.46649479 -23.55518272 6.41676128 -25.80078125 6.3671875 C-27.36307395 6.32601652 -28.92534517 6.28402275 -30.4875946 6.24124146 C-34.58910672 6.13112856 -38.69081438 6.03216666 -42.79266357 5.93554688 C-46.98239437 5.83487562 -51.17184302 5.72362982 -55.36132812 5.61328125 C-63.57397982 5.39852057 -71.78686837 5.19554279 -80 5 C-80 4.67 -80 4.34 -80 4 C-70.82910742 3.97681556 -61.65822496 3.95905378 -52.48730946 3.94818783 C-48.2287524 3.94297236 -43.97021542 3.93589896 -39.71166992 3.92456055 C-35.60088084 3.9136842 -31.49011106 3.90771309 -27.3793087 3.90512276 C-25.81205631 3.90327707 -24.24480497 3.89967293 -22.67756081 3.89426994 C-20.4800858 3.88699652 -18.28269021 3.88601172 -16.08520508 3.88647461 C-14.83500076 3.884254 -13.58479645 3.88203339 -12.29670715 3.87974548 C-9.39576466 3.98556363 -6.81545765 4.32540867 -4 5 C-2.68 3.35 -1.36 1.7 0 0 Z " fill="#060606" transform="translate(526,168)"/>
<path d="M0 0 C0.66 0.66 1.32 1.32 2 2 C-0.08058657 4.08058657 -4.41960849 3.38043408 -7.23828125 3.5234375 C-10.28462043 4.04911413 -11.71491661 4.97002093 -14 7 C-13.59573665 12.86181863 -12.7971314 16.2823519 -9 21 C-5.81175432 22.59412284 -2.37103338 22.10174735 1.125 22.0625 C2.25615234 22.05573242 2.25615234 22.05573242 3.41015625 22.04882812 C5.27347127 22.03703499 7.13674555 22.01909942 9 22 C9 22.99 9 23.98 9 25 C1.59069115 26.9120797 -5.25148781 26.83738929 -12 23 C-15.59985578 19.30541117 -16.90465862 16.51701249 -17.09765625 11.421875 C-17.08025391 10.09929687 -17.08025391 10.09929687 -17.0625 8.75 C-17.05347656 7.85796875 -17.04445313 6.9659375 -17.03515625 6.046875 C-17.02355469 5.37140625 -17.01195312 4.6959375 -17 4 C-11.43890122 0.13140954 -6.78760781 -1.06715589 0 0 Z " fill="#0C0C0C" transform="translate(339,193)"/>
<path d="M0 0 C0.33 0.99 0.66 1.98 1 3 C-0.3567482 5.3632729 -1.72775351 7.48791953 -3.3125 9.6875 C-3.72951172 10.29400391 -4.14652344 10.90050781 -4.57617188 11.52539062 C-5.65862011 13.06015375 -6.82397149 14.53570872 -8 16 C-8.66 16 -9.32 16 -10 16 C-9.98839844 16.63808594 -9.97679687 17.27617187 -9.96484375 17.93359375 C-9.95582031 18.75988281 -9.94679688 19.58617187 -9.9375 20.4375 C-9.92589844 21.26121094 -9.91429687 22.08492188 -9.90234375 22.93359375 C-10 25 -10 25 -11 26 C-13.24526468 26.17926852 -15.49802739 26.26811465 -17.75 26.3125 C-18.98234375 26.34988281 -20.2146875 26.38726562 -21.484375 26.42578125 C-25.60404701 25.9268432 -27.22572576 25.05747048 -30 22 C-30.48828125 19.640625 -30.48828125 19.640625 -30.3125 17.25 C-30.26738281 16.45078125 -30.22226562 15.6515625 -30.17578125 14.828125 C-30.11777344 14.22484375 -30.05976563 13.6215625 -30 13 C-28.68 12.34 -27.36 11.68 -26 11 C-26.20625 12.0725 -26.4125 13.145 -26.625 14.25 C-27.13086111 18.56223487 -27.13086111 18.56223487 -25 22 C-21.89069059 22.70672206 -21.89069059 22.70672206 -18.375 22.75 C-16.59222656 22.83507812 -16.59222656 22.83507812 -14.7734375 22.921875 C-13.40058594 22.96054687 -13.40058594 22.96054687 -12 23 C-12.165 21.865625 -12.33 20.73125 -12.5 19.5625 C-12.53793149 15.28382846 -11.0371287 13.41739709 -8.1875 10.3125 C-7.47980469 9.60738281 -6.77210938 8.90226562 -6.04296875 8.17578125 C-3.93710735 5.93301873 -2.51322848 3.66746282 -1 1 C-0.67 0.67 -0.34 0.34 0 0 Z " fill="#0F0F0F" transform="translate(486,255)"/>
<path d="M0 0 C0.33 0 0.66 0 1 0 C1.31735018 5.28916975 0.95931725 8.56102413 -2 13 C-5.67177321 16.71312201 -9.71106905 19.84860463 -14 22.8125 C-14.99 23.534375 -15.98 24.25625 -17 25 C-17 25.66 -17 26.32 -17 27 C-17.99 27 -18.98 27 -20 27 C-19.52136334 22.69227005 -17.13951465 20.80552373 -14 18 C-12.65004336 17.03574526 -11.2956254 16.07771483 -9.9375 15.125 C-4.53267058 11.16552986 -2.27384586 6.25307611 0 0 Z " fill="#121212" transform="translate(542,215)"/>
<path d="M0 0 C0.66 0.33 1.32 0.66 2 1 C0.91430728 4.03993963 0.08521464 4.94964589 -2.75 6.625 C-6.78932835 9.06047739 -8.52242626 12.89655638 -10.703125 16.953125 C-11.13109375 17.62859375 -11.5590625 18.3040625 -12 19 C-12.66 19 -13.32 19 -14 19 C-14.66 19.66 -15.32 20.32 -16 21 C-14.70290342 14.90928565 -11.967321 8.91813797 -7.5 4.5625 C-6.675 4.046875 -5.85 3.53125 -5 3 C-3.6696875 2.1028125 -3.6696875 2.1028125 -2.3125 1.1875 C-1.549375 0.795625 -0.78625 0.40375 0 0 Z " fill="#202020" transform="translate(317,175)"/>
<path d="M0 0 C0.99 0.33 1.98 0.66 3 1 C1.35 4.96 -0.3 8.92 -2 13 C-5.96 13 -9.92 13 -14 13 C-13.67 11.68 -13.34 10.36 -13 9 C-9.78548731 7.39274365 -6.56387464 7.94251815 -3 8 C-2.87625 7.4225 -2.7525 6.845 -2.625 6.25 C-1.99351176 3.97664233 -1.11141809 2.0746471 0 0 Z " fill="#272727" transform="translate(473,256)"/>
<path d="M0 0 C0.99 0 1.98 0 3 0 C3.18304688 0.62390625 3.36609375 1.2478125 3.5546875 1.890625 C4.91662203 4.34008964 4.91662203 4.34008964 8.2578125 5.046875 C9.53398437 5.27890625 10.81015625 5.5109375 12.125 5.75 C13.40632813 5.99234375 14.68765625 6.2346875 16.0078125 6.484375 C16.99523437 6.65453125 17.98265625 6.8246875 19 7 C19 7.99 19 8.98 19 10 C12.44638413 9.47148259 6.11647732 8.53639635 0 6 C-1.24546405 3.50907189 -0.7767578 2.58919267 0 0 Z " fill="#0B0B0B" transform="translate(488,249)"/>
<path d="M0 0 C0.99 0 1.98 0 3 0 C3.17942163 3.94727588 3.09350689 6.5980513 1 10 C-1.31 9.67 -3.62 9.34 -6 9 C-6.33 6.36 -6.66 3.72 -7 1 C-6.01 1 -5.02 1 -4 1 C-3.814375 2.2065625 -3.814375 2.2065625 -3.625 3.4375 C-3.41875 4.283125 -3.2125 5.12875 -3 6 C-2.34 6.33 -1.68 6.66 -1 7 C-0.67 4.69 -0.34 2.38 0 0 Z " fill="#1D1D1D" transform="translate(402,207)"/>
<path d="M0 0 C-0.33 0.99 -0.66 1.98 -1 3 C-9.17413104 4.18896451 -16.84317822 4.3883952 -25 3 C-25 2.67 -25 2.34 -25 2 C-8.29157175 -0.29612756 -8.29157175 -0.29612756 0 0 Z " fill="#1F1F1F" transform="translate(340,255)"/>
<path d="M0 0 C12.87 0.495 12.87 0.495 26 1 C26 1.66 26 2.32 26 3 C17.75 3 9.5 3 1 3 C0.67 2.01 0.34 1.02 0 0 Z " fill="#020202" transform="translate(327,228)"/>
<path d="M0 0 C0.66 0 1.32 0 2 0 C2.33 2.31 2.66 4.62 3 7 C3.66 7 4.32 7 5 7 C5 5.68 5 4.36 5 3 C5.99 3 6.98 3 8 3 C8.04254356 4.99954746 8.04080783 7.00041636 8 9 C7 10 7 10 4.5625 10.25 C3.716875 10.1675 2.87125 10.085 2 10 C-0.4294516 6.3558226 -0.16179575 4.28758728 0 0 Z " fill="#0D0D0D" transform="translate(470,192)"/>
<path d="M0 0 C0.66 0 1.32 0 2 0 C2.25 7.625 2.25 7.625 0 11 C-4.875 10.125 -4.875 10.125 -6 9 C-6.04080783 7.00041636 -6.04254356 4.99954746 -6 3 C-5.34 3 -4.68 3 -4 3 C-3.34 4.32 -2.68 5.64 -2 7 C-1.34 4.69 -0.68 2.38 0 0 Z " fill="#0C0C0C" transform="translate(371,221)"/>
<path d="M0 0 C0.66 0 1.32 0 2 0 C2 1.65 2 3.3 2 5 C2.66 5 3.32 5 4 5 C4.33 3.68 4.66 2.36 5 1 C5.66 1 6.32 1 7 1 C6.67 3.31 6.34 5.62 6 8 C4.34385343 8.38218767 2.67542976 8.71395102 1 9 C0 8 0 8 -0.09765625 6.15234375 C-0.06510417 4.1015625 -0.03255208 2.05078125 0 0 Z " fill="#0C0C0C" transform="translate(531,209)"/>
<path d="M0 0 C0.99 0 1.98 0 3 0 C3.25 5.625 3.25 5.625 1 9 C-0.65 8.67 -2.3 8.34 -4 8 C-4 6.02 -4 4.04 -4 2 C-3.34 2 -2.68 2 -2 2 C-1.67 2.99 -1.34 3.98 -1 5 C-0.67 3.35 -0.34 1.7 0 0 Z " fill="#1A1A1A" transform="translate(488,199)"/>
<path d="M0 0 C0.33 0.99 0.66 1.98 1 3 C-0.3333826 5.36881909 -1.68068973 7.48617267 -3.25 9.6875 C-3.65863281 10.29400391 -4.06726563 10.90050781 -4.48828125 11.52539062 C-5.703125 13.26171875 -5.703125 13.26171875 -8 16 C-8.99 16 -9.98 16 -11 16 C-9.34540386 12.08913641 -6.70698566 9.23517798 -4 6 C-2.9731657 4.3497306 -1.96432076 2.68756133 -1 1 C-0.67 0.67 -0.34 0.34 0 0 Z " fill="#202020" transform="translate(486,255)"/>
<path d="M0 0 C0.66 0 1.32 0 2 0 C1.125 6.875 1.125 6.875 0 8 C-2.5 8.125 -2.5 8.125 -5 8 C-6 7 -6 7 -6.0625 4.4375 C-6.041875 3.633125 -6.02125 2.82875 -6 2 C-5.01 2 -4.02 2 -3 2 C-3 2.99 -3 3.98 -3 5 C-2.34 5 -1.68 5 -1 5 C-0.67 3.35 -0.34 1.7 0 0 Z " fill="#111111" transform="translate(311,206)"/>
<path d="M0 0 C0.66 0.33 1.32 0.66 2 1 C0.32702416 3.46543808 -1.19529845 5.15242806 -3.5625 7 C-5.92366378 8.93736516 -6.90137958 10.20351167 -8 13 C-8.99 13 -9.98 13 -11 13 C-10.40675216 7.66076941 -6.09491702 4.9002651 -2.1875 1.6875 C-1.465625 1.130625 -0.74375 0.57375 0 0 Z " fill="#252525" transform="translate(533,229)"/>
<path d="M0 0 C1.62463842 -0.05395478 3.24978541 -0.09277195 4.875 -0.125 C5.77992188 -0.14820313 6.68484375 -0.17140625 7.6171875 -0.1953125 C10 0 10 0 12 2 C10.18884044 3.81115956 7.38721773 3.38199448 4.9375 3.5625 C3.83277344 3.64628906 2.72804688 3.73007813 1.58984375 3.81640625 C0.73519531 3.87699219 -0.11945313 3.93757812 -1 4 C-0.67 2.68 -0.34 1.36 0 0 Z " fill="#383838" transform="translate(329,193)"/>
<path d="M0 0 C0.66 0.33 1.32 0.66 2 1 C1.67 1.99 1.34 2.98 1 4 C0.34 4 -0.32 4 -1 4 C-1.33 6.64 -1.66 9.28 -2 12 C-2.99 12 -3.98 12 -5 12 C-4.64989059 3.64989059 -4.64989059 3.64989059 -1.9375 0.9375 C-1.298125 0.628125 -0.65875 0.31875 0 0 Z " fill="#181818" transform="translate(302,244)"/>
<path d="M0 0 C0.33 0 0.66 0 1 0 C1 2.97 1 5.94 1 9 C-3.95 10.485 -3.95 10.485 -9 12 C-8.67 10.68 -8.34 9.36 -8 8 C-5.69 7.34 -3.38 6.68 -1 6 C-0.67 4.02 -0.34 2.04 0 0 Z " fill="#070707" transform="translate(327,166)"/>
<path d="M0 0 C2.31 0 4.62 0 7 0 C7 0.99 7 1.98 7 3 C4.36 3.33 1.72 3.66 -1 4 C-0.67 2.68 -0.34 1.36 0 0 Z " fill="#242424" transform="translate(341,215)"/>
<path d="M0 0 C2.875 -0.125 2.875 -0.125 6 0 C6.66 0.66 7.32 1.32 8 2 C4.52176885 3.15941038 2.54104422 2.70820884 -1 2 C-0.67 1.34 -0.34 0.68 0 0 Z " fill="#090909" transform="translate(333,193)"/>
</svg>
