<?xml version="1.0" encoding="UTF-8"?>
<svg version="1.1" xmlns="http://www.w3.org/2000/svg" width="800" height="300">
<path d="M0 0 C264 0 528 0 800 0 C800 99 800 198 800 300 C536 300 272 300 0 300 C0 201 0 102 0 0 Z " fill="#FEFEFE" transform="translate(0,0)"/>
<path d="M0 0 C3.4249741 1.42754275 5.72163394 3.06853023 8 6 C8.33569336 8.54150391 8.33569336 8.54150391 8.21484375 11.2265625 C8.18382568 12.12197754 8.15280762 13.01739258 8.12084961 13.93994141 C8.08096924 14.61976074 8.04108887 15.29958008 8 16 C8.89638184 15.99476318 9.79276367 15.98952637 10.71630859 15.98413086 C34.22894404 15.86880128 57.73437989 16.06037804 81.24420929 16.40571976 C83.41879446 16.43722896 85.59339507 16.46732044 87.76800537 16.49703979 C114.38080642 16.86453774 114.38080642 16.86453774 125.66015625 17.47265625 C126.35604355 17.50975204 127.05193085 17.54684784 127.76890564 17.58506775 C131.25519781 17.80044519 134.59428626 18.22077139 138 19 C138.474375 18.195625 138.94875 17.39125 139.4375 16.5625 C142.62241504 13.37758496 144.53670151 13.28214457 148.87890625 12.9453125 C151 13 151 13 154 14 C154.36923077 21.38461538 154.36923077 21.38461538 152.5 24.5 C151.7575 25.2425 151.7575 25.2425 151 26 C152.08980027 28.4520506 153.18051579 30.20487109 154.96875 32.234375 C161.03251372 40.49042252 161.07288745 53.77155624 159.61328125 63.60546875 C158.84052571 67.39506191 157.81982606 70.57444506 156 74 C155.34 74 154.68 74 154 74 C153.67 74.99 153.34 75.98 153 77 C150.890625 78.75390625 150.890625 78.75390625 148.25 80.5625 C147.38890625 81.16191406 146.5278125 81.76132813 145.640625 82.37890625 C143.14467925 83.91118064 140.74836645 85.00643587 138 86 C138 86.66 138 87.32 138 88 C138.886875 87.896875 139.77375 87.79375 140.6875 87.6875 C144 88 144 88 146.9375 90 C148.99868412 92.998086 149.36811321 93.59415087 149.1875 97 C148.5684465 100.08358726 147.61404122 101.85676585 145.3125 104 C141.69969293 106.18131748 140.12355079 106.71713927 136 106 C135.38125 105.46375 134.7625 104.9275 134.125 104.375 C133.42375 103.92125 132.7225 103.4675 132 103 C130.10294361 103.46594367 128.20737586 103.94386615 126.3359375 104.50390625 C118.78284098 106.10799196 111.00931051 103.75180339 104 101 C103.69707031 101.49628906 103.39414062 101.99257812 103.08203125 102.50390625 C100.22340641 107.13927638 97.32660912 111.68439898 94 116 C93.34 116 92.68 116 92 116 C92 119.63 92 123.26 92 127 C89.41554227 127.1081866 86.83562648 127.18737237 84.25 127.25 C83.52039063 127.28351563 82.79078125 127.31703125 82.0390625 127.3515625 C78.52119695 127.41552369 76.44109849 127.31747853 73.546875 125.234375 C71.05035985 121.62829756 71 119.39908827 71 115 C72.3125 112.625 72.3125 112.625 75 111 C76.64171172 110.74296433 78.28839436 110.51679219 79.9375 110.3125 C83.13698812 109.79340901 84.5517851 109.50500231 86.7265625 107.0546875 C89.03069891 102.97191947 90.06808823 99.65955886 91 95 C58.66 95 26.32 95 -7 95 C-1.02291057 105.28495918 -1.02291057 105.28495918 8.6875 110.1875 C9.45449219 110.30480469 10.22148437 110.42210937 11.01171875 110.54296875 C13 111 13 111 15 113 C15.62838874 117.70367457 15.67329295 122.99006058 13 127 C9.29375135 130.2008511 5.71724633 132.30727257 0.75 132.4375 C-5.09128631 131.7560166 -5.09128631 131.7560166 -7 130 C-7.9375 126.625 -7.9375 126.625 -8 123 C-6.5625 120.5625 -6.5625 120.5625 -5 119 C-6.36125 118.13375 -6.36125 118.13375 -7.75 117.25 C-11 115 -11 115 -12.8125 113.0625 C-15.57010505 110.46247238 -18.59051062 109.00865259 -21.9765625 107.34375 C-24.31497951 105.79082442 -24.856718 104.50767947 -26 102 C-26.53512207 102.13784912 -27.07024414 102.27569824 -27.62158203 102.41772461 C-33.40547091 103.81717343 -38.93818398 104.37053671 -44.875 104.5625 C-46.53920455 104.62248283 -48.20328223 104.68612736 -49.8671875 104.75390625 C-50.59019043 104.77783447 -51.31319336 104.8017627 -52.05810547 104.82641602 C-54.21668843 104.94417012 -54.21668843 104.94417012 -57 106 C-59.06145107 106.068991 -61.12501401 106.08467727 -63.1875 106.0625 C-64.27417969 106.05347656 -65.36085938 106.04445313 -66.48046875 106.03515625 C-67.31191406 106.02355469 -68.14335937 106.01195312 -69 106 C-69.14308594 106.78761719 -69.28617187 107.57523437 -69.43359375 108.38671875 C-70 111 -70 111 -71.0625 112.8125 C-74.24552437 114.76338591 -77.44930489 114.73693672 -81 114 C-84.02023186 112.25008025 -86.41553692 110.16892615 -88 107 C-88.11697217 101.34355994 -87.96841169 96.50958293 -84.875 91.6875 C-81.04659143 89.44039062 -79.26100457 89.97148165 -75 91 C-73.0509375 91.2784375 -73.0509375 91.2784375 -71.0625 91.5625 C-70.051875 91.706875 -69.04125 91.85125 -68 92 C-68.96099609 91.39478516 -68.96099609 91.39478516 -69.94140625 90.77734375 C-77.88202433 85.20352689 -82.77917188 78.41438006 -85 69 C-86.7819346 55.51116951 -86.00994278 40.28754003 -77.81640625 28.97265625 C-74.68538846 25.5723036 -70.96942242 23.3060454 -67 21 C-66.01 20.34 -65.02 19.68 -64 19 C-62.34450469 18.61500109 -60.6777567 18.27206865 -59 18 C-58.95875 17.030625 -58.9175 16.06125 -58.875 15.0625 C-58.13230461 9.95777673 -55.55989175 5.68264664 -52 2 C-48.625 1.4375 -48.625 1.4375 -46 2 C-46 2.66 -46 3.32 -46 4 C-45.01 4.33 -44.02 4.66 -43 5 C-40.70986347 8.4352048 -40.82157027 9.985331 -41 14 C-40.154375 13.505 -39.30875 13.01 -38.4375 12.5 C-32.49222339 9.91882024 -25.33467495 10.44381987 -19 11 C-16.54296875 12.01953125 -16.54296875 12.01953125 -15 13 C-15.0825 11.948125 -15.165 10.89625 -15.25 9.8125 C-14.96269651 5.43112175 -14.05154419 4.05154419 -11 1 C-7.45168665 -0.77415668 -3.86515634 -0.61867003 0 0 Z " fill="#FCFCFC" transform="translate(369,154)"/>
<path d="M0 0 C3.4249741 1.42754275 5.72163394 3.06853023 8 6 C8.33569336 8.54150391 8.33569336 8.54150391 8.21484375 11.2265625 C8.18382568 12.12197754 8.15280762 13.01739258 8.12084961 13.93994141 C8.08096924 14.61976074 8.04108887 15.29958008 8 16 C8.89638184 15.99476318 9.79276367 15.98952637 10.71630859 15.98413086 C34.22894404 15.86880128 57.73437989 16.06037804 81.24420929 16.40571976 C83.41879446 16.43722896 85.59339507 16.46732044 87.76800537 16.49703979 C114.38080642 16.86453774 114.38080642 16.86453774 125.66015625 17.47265625 C126.35604355 17.50975204 127.05193085 17.54684784 127.76890564 17.58506775 C131.25519781 17.80044519 134.59428626 18.22077139 138 19 C138.474375 18.195625 138.94875 17.39125 139.4375 16.5625 C142.62241504 13.37758496 144.53670151 13.28214457 148.87890625 12.9453125 C151 13 151 13 154 14 C154.36923077 21.38461538 154.36923077 21.38461538 152.5 24.5 C151.7575 25.2425 151.7575 25.2425 151 26 C152.08980027 28.4520506 153.18051579 30.20487109 154.96875 32.234375 C161.03251372 40.49042252 161.07288745 53.77155624 159.61328125 63.60546875 C158.84052571 67.39506191 157.81982606 70.57444506 156 74 C155.34 74 154.68 74 154 74 C153.67 74.99 153.34 75.98 153 77 C150.890625 78.75390625 150.890625 78.75390625 148.25 80.5625 C147.38890625 81.16191406 146.5278125 81.76132813 145.640625 82.37890625 C143.14467925 83.91118064 140.74836645 85.00643587 138 86 C138 86.66 138 87.32 138 88 C138.886875 87.896875 139.77375 87.79375 140.6875 87.6875 C144 88 144 88 146.9375 90 C148.99868412 92.998086 149.36811321 93.59415087 149.1875 97 C148.5684465 100.08358726 147.61404122 101.85676585 145.3125 104 C141.69969293 106.18131748 140.12355079 106.71713927 136 106 C135.38125 105.46375 134.7625 104.9275 134.125 104.375 C133.42375 103.92125 132.7225 103.4675 132 103 C130.10294361 103.46594367 128.20737586 103.94386615 126.3359375 104.50390625 C118.78284098 106.10799196 111.00931051 103.75180339 104 101 C103.69707031 101.49628906 103.39414062 101.99257812 103.08203125 102.50390625 C100.22340641 107.13927638 97.32660912 111.68439898 94 116 C93.34 116 92.68 116 92 116 C92 119.63 92 123.26 92 127 C89.41554227 127.1081866 86.83562648 127.18737237 84.25 127.25 C83.52039063 127.28351563 82.79078125 127.31703125 82.0390625 127.3515625 C78.52119695 127.41552369 76.44109849 127.31747853 73.546875 125.234375 C71.05035985 121.62829756 71 119.39908827 71 115 C72.3125 112.625 72.3125 112.625 75 111 C76.64171172 110.74296433 78.28839436 110.51679219 79.9375 110.3125 C83.13698812 109.79340901 84.5517851 109.50500231 86.7265625 107.0546875 C89.03069891 102.97191947 90.06808823 99.65955886 91 95 C58.66 95 26.32 95 -7 95 C-1.02291057 105.28495918 -1.02291057 105.28495918 8.6875 110.1875 C9.45449219 110.30480469 10.22148437 110.42210937 11.01171875 110.54296875 C13 111 13 111 15 113 C15.62838874 117.70367457 15.67329295 122.99006058 13 127 C9.29375135 130.2008511 5.71724633 132.30727257 0.75 132.4375 C-5.09128631 131.7560166 -5.09128631 131.7560166 -7 130 C-7.9375 126.625 -7.9375 126.625 -8 123 C-6.5625 120.5625 -6.5625 120.5625 -5 119 C-6.36125 118.13375 -6.36125 118.13375 -7.75 117.25 C-11 115 -11 115 -12.8125 113.0625 C-15.57010505 110.46247238 -18.59051062 109.00865259 -21.9765625 107.34375 C-24.31497951 105.79082442 -24.856718 104.50767947 -26 102 C-26.53512207 102.13784912 -27.07024414 102.27569824 -27.62158203 102.41772461 C-33.40547091 103.81717343 -38.93818398 104.37053671 -44.875 104.5625 C-46.53920455 104.62248283 -48.20328223 104.68612736 -49.8671875 104.75390625 C-50.59019043 104.77783447 -51.31319336 104.8017627 -52.05810547 104.82641602 C-54.21668843 104.94417012 -54.21668843 104.94417012 -57 106 C-59.06145107 106.068991 -61.12501401 106.08467727 -63.1875 106.0625 C-64.27417969 106.05347656 -65.36085938 106.04445313 -66.48046875 106.03515625 C-67.31191406 106.02355469 -68.14335937 106.01195312 -69 106 C-69.14308594 106.78761719 -69.28617187 107.57523437 -69.43359375 108.38671875 C-70 111 -70 111 -71.0625 112.8125 C-74.24552437 114.76338591 -77.44930489 114.73693672 -81 114 C-84.02023186 112.25008025 -86.41553692 110.16892615 -88 107 C-88.11697217 101.34355994 -87.96841169 96.50958293 -84.875 91.6875 C-81.04659143 89.44039062 -79.26100457 89.97148165 -75 91 C-73.0509375 91.2784375 -73.0509375 91.2784375 -71.0625 91.5625 C-70.051875 91.706875 -69.04125 91.85125 -68 92 C-68.96099609 91.39478516 -68.96099609 91.39478516 -69.94140625 90.77734375 C-77.88202433 85.20352689 -82.77917188 78.41438006 -85 69 C-86.7819346 55.51116951 -86.00994278 40.28754003 -77.81640625 28.97265625 C-74.68538846 25.5723036 -70.96942242 23.3060454 -67 21 C-66.01 20.34 -65.02 19.68 -64 19 C-62.34450469 18.61500109 -60.6777567 18.27206865 -59 18 C-58.95875 17.030625 -58.9175 16.06125 -58.875 15.0625 C-58.13230461 9.95777673 -55.55989175 5.68264664 -52 2 C-48.625 1.4375 -48.625 1.4375 -46 2 C-46 2.66 -46 3.32 -46 4 C-45.01 4.33 -44.02 4.66 -43 5 C-40.70986347 8.4352048 -40.82157027 9.985331 -41 14 C-40.154375 13.505 -39.30875 13.01 -38.4375 12.5 C-32.49222339 9.91882024 -25.33467495 10.44381987 -19 11 C-16.54296875 12.01953125 -16.54296875 12.01953125 -15 13 C-15.0825 11.948125 -15.165 10.89625 -15.25 9.8125 C-14.96269651 5.43112175 -14.05154419 4.05154419 -11 1 C-7.45168665 -0.77415668 -3.86515634 -0.61867003 0 0 Z M-11 6 C-12.26026798 8.52053595 -11.91874445 9.8542098 -11.5625 12.625 C-11.40974609 13.85089844 -11.40974609 13.85089844 -11.25390625 15.1015625 C-11.17011719 15.72804687 -11.08632813 16.35453125 -11 17 C-12.010625 16.67 -13.02125 16.34 -14.0625 16 C-23.79130426 13.58075915 -34.38425617 14.46596868 -44 17 C-43.896875 15.783125 -43.79375 14.56625 -43.6875 13.3125 C-43.65408479 9.54994773 -43.90669702 9.11196358 -46.5 6 C-47.325 5.34 -48.15 4.68 -49 4 C-52.55880453 5.18626818 -53.45068551 6.65244194 -55.21484375 9.87890625 C-56.56952474 13.53856683 -56.31351396 17.15945395 -56 21 C-56.680625 21.103125 -57.36125 21.20625 -58.0625 21.3125 C-63.42248092 22.56696362 -68.48135934 24.85064439 -73 28 C-73 28.66 -73 29.32 -73 30 C-73.66 30 -74.32 30 -75 30 C-75.80710015 31.30306627 -76.59470177 32.61820965 -77.375 33.9375 C-78.03628906 35.03384766 -78.03628906 35.03384766 -78.7109375 36.15234375 C-81.87999694 43.15308416 -82.36331384 50.4039958 -82.375 58 C-82.39949219 58.83789062 -82.42398437 59.67578125 -82.44921875 60.5390625 C-82.49166426 69.67899548 -78.79301748 78.00327928 -72.4375 84.62890625 C-65.61658482 90.94738795 -58.51664186 91.31556961 -49.5625 91.625 C-48.64017578 91.66367188 -47.71785156 91.70234375 -46.76757812 91.7421875 C-44.51190857 91.83568676 -42.25623084 91.9214391 -40 92 C-47.08783799 93.42736164 -54.02768828 94.32855376 -61.25 94.75390625 C-64.08839777 94.90146001 -64.08839777 94.90146001 -67 96 C-70.4375 96.3125 -70.4375 96.3125 -74 96 C-75.37195574 94.70644173 -76.71182656 93.37701298 -78 92 C-81.01811422 92.17753613 -81.83735215 92.83735215 -84 95 C-84.89281998 98.6717961 -85.21741919 102.227777 -85 106 C-83.16348401 109.33821811 -83.16348401 109.33821811 -80 111 C-76.87237733 111.58442963 -76.87237733 111.58442963 -74 111 C-71.64046906 108.64046906 -71.50858587 107.22104383 -71 104 C-66.09301872 103.44644512 -61.18578526 102.89519777 -56.27832031 102.34594727 C-54.61418925 102.15938333 -52.95012473 101.97222474 -51.28613281 101.78442383 C-41.8663818 100.72172629 -32.45507155 99.70337653 -23 99 C-23.495 100.485 -23.495 100.485 -24 102 C-23.443125 102.36351562 -22.88625 102.72703125 -22.3125 103.1015625 C-18.41072178 105.67199072 -14.58031775 108.27699107 -10.875 111.125 C-7.40412194 113.77346117 -3.83720086 115.9215162 0 118 C-1.2375 119.0828125 -1.2375 119.0828125 -2.5 120.1875 C-5.24407806 122.72917366 -5.24407806 122.72917366 -5.3125 125.8125 C-5.209375 126.534375 -5.10625 127.25625 -5 128 C0.64351606 129.26691177 4.02254133 129.06305149 9 126 C11.29926387 122.19184422 12.09122096 120.00343051 11.6875 115.5625 C11.460625 114.716875 11.23375 113.87125 11 113 C10.3709375 112.96003906 9.741875 112.92007813 9.09375 112.87890625 C2.14621167 112.03139028 -1.03262688 109.74401874 -5.3828125 104.328125 C-7.22410128 101.67738077 -8.61700371 98.91157113 -10 96 C-11.485 95.505 -11.485 95.505 -13 95 C-13 94.01 -13 93.02 -13 92 C-2.105669 91.86777357 8.78868137 91.73728108 19.68305779 91.60884857 C24.74477002 91.54912544 29.80647448 91.48886162 34.86816406 91.42724609 C45.38044722 91.29962588 55.89271519 91.17990533 66.40530014 91.07980347 C71.11484324 91.03382121 75.8237635 90.97465237 80.53285789 90.89510345 C83.56604905 90.84644655 86.59942788 90.81534674 89.6328125 90.78125 C91.19538284 90.74638489 91.19538284 90.74638489 92.78952026 90.71081543 C94.18365646 90.70024109 94.18365646 90.70024109 95.60595703 90.68945312 C96.39229523 90.67692505 97.17863342 90.66439697 97.98880005 90.65148926 C100 91 100 91 103 94 C100.03 94 97.06 94 94 94 C93.74605469 94.79664063 93.49210938 95.59328125 93.23046875 96.4140625 C91.46639089 101.84504377 89.60982449 106.91084225 87 112 C87 112.99 87 113.98 87 115 C86.01 114.67 85.02 114.34 84 114 C78.85056722 113.5982661 78.85056722 113.5982661 74 115 C74.32960216 120.01535052 74.32960216 120.01535052 77 124 C79.89883083 124.24339551 79.89883083 124.24339551 83.125 124.125 C84.22070312 124.10695313 85.31640625 124.08890625 86.4453125 124.0703125 C87.28835938 124.04710937 88.13140625 124.02390625 89 124 C89 121.36 89 118.72 89 116 C89.66 116 90.32 116 91 116 C91 115.34 91 114.68 91 114 C91.66 114 92.32 114 93 114 C94.48540336 112.38500163 94.48540336 112.38500163 95.9375 110.3125 C96.46601563 109.58546875 96.99453125 108.8584375 97.5390625 108.109375 C99.13857683 105.7999158 100.59844243 103.43428421 102 101 C102.33 100.67 102.66 100.34 103 100 C103.04063832 98.33382885 103.042721 96.66611905 103 95 C104.32 95 105.64 95 107 95 C107.33 94.34 107.66 93.68 108 93 C110.33744294 92.53193355 112.69739079 92.17330206 115.0625 91.875 C116.35285156 91.70742187 117.64320313 91.53984375 118.97265625 91.3671875 C119.97167969 91.24601562 120.97070312 91.12484375 122 91 C122.33 90.01 122.66 89.02 123 88 C123.55429687 88.20625 124.10859375 88.4125 124.6796875 88.625 C131.02585891 89.65064386 138.35273955 83.92836941 143.375 80.5 C149.30595193 76.15752806 154.75870771 71.73947964 156.6875 64.375 C157.75249769 52.87302492 158.12051004 40.70301588 150.4375 31.42578125 C149.03721941 29.88846704 149.03721941 29.88846704 147 29 C146.375 26.9375 146.375 26.9375 146 25 C146.9590625 24.5359375 146.9590625 24.5359375 147.9375 24.0625 C149.93610821 23.1654837 149.93610821 23.1654837 151 22 C151.16666667 19.5 151.16666667 19.5 151 17 C149.95420381 15.73778302 149.95420381 15.73778302 147.625 15.8125 C144.76555137 15.79951452 144.76555137 15.79951452 142 18 C142.309375 18.61875 142.61875 19.2375 142.9375 19.875 C143.625 21.25 144.3125 22.625 145 24 C143.01980257 23.52511102 141.04086365 23.04497141 139.0625 22.5625 C137.96035156 22.29566406 136.85820312 22.02882812 135.72265625 21.75390625 C133 21 133 21 132 20 C129.89367943 19.88117897 127.78338279 19.83254424 125.67382812 19.81054688 C125.01158234 19.80225357 124.34933655 19.79396027 123.66702271 19.78541565 C122.21947168 19.76795704 120.77189147 19.75280638 119.32429504 19.73963928 C117.00693724 19.71852851 114.68971417 19.69148824 112.37243652 19.66296387 C108.25235784 19.61323803 104.13224145 19.56880388 100.01208496 19.52606201 C92.72673397 19.45047902 85.44145592 19.36974193 78.15625 19.28125 C77.3674539 19.27184324 76.5786578 19.26243649 75.76595879 19.25274467 C64.9020473 19.11901849 54.05876646 18.82500254 43.20411682 18.33692932 C34.77480251 17.96355366 26.3748294 17.88179391 17.9375 17.9375 C16.55794444 17.94255332 15.17838696 17.94710909 13.79882812 17.95117188 C10.53249842 17.96263268 7.26627854 17.9788348 4 18 C4.16757812 16.89011719 4.33515625 15.78023437 4.5078125 14.63671875 C5.15097685 10.64109957 5.15097685 10.64109957 4 7 C1.558633 4.558633 -0.06917604 3.16289419 -3.5 2.5625 C-6.55933742 3.09788405 -8.49231495 4.18889413 -11 6 Z " fill="#1D1D1D" transform="translate(369,154)"/>
<path d="M0 0 C3.67306899 -0.04394654 7.34599801 -0.07503655 11.01922607 -0.10186768 C12.62760597 -0.12453453 12.62760597 -0.12453453 14.26847839 -0.1476593 C15.24011429 -0.15180344 16.21175018 -0.15594757 17.21282959 -0.16021729 C18.05048355 -0.16790634 18.88813751 -0.1755954 19.75117493 -0.18351746 C21.89031982 0.05047607 21.89031982 0.05047607 24.89031982 2.05047607 C24.89031982 2.71047607 24.89031982 3.37047607 24.89031982 4.05047607 C21.92031982 4.05047607 18.95031982 4.05047607 15.89031982 4.05047607 C15.78848389 4.8780542 15.68664795 5.70563232 15.58172607 6.55828857 C14.78087967 10.60324161 13.41111727 14.13437871 11.82781982 17.92547607 C11.54615967 18.61383545 11.26449951 19.30219482 10.9743042 20.01141357 C10.28516716 21.69337516 9.58851185 23.37225304 8.89031982 25.05047607 C4.60031982 25.05047607 0.31031982 25.05047607 -4.10968018 25.05047607 C-3.11968018 27.69047607 -2.12968018 30.33047607 -1.10968018 33.05047607 C2.85031982 33.38047607 6.81031982 33.71047607 10.89031982 34.05047607 C10.89031982 31.41047607 10.89031982 28.77047607 10.89031982 26.05047607 C11.55031982 26.05047607 12.21031982 26.05047607 12.89031982 26.05047607 C12.89031982 25.39047607 12.89031982 24.73047607 12.89031982 24.05047607 C13.55031982 24.05047607 14.21031982 24.05047607 14.89031982 24.05047607 C15.29250732 22.90578857 15.29250732 22.90578857 15.70281982 21.73797607 C16.87557474 19.08384653 17.84713344 18.011935 19.89031982 16.05047607 C22.27425664 12.52224958 23.59239923 9.0890702 24.89031982 5.05047607 C26.24564819 4.92986816 26.24564819 4.92986816 27.62835693 4.80682373 C30.97060182 4.50492132 34.31184598 4.19464992 37.652771 3.87860107 C39.10070111 3.74338075 40.54895034 3.61153427 41.99749756 3.48309326 C44.07597914 3.29821293 46.15302244 3.10134867 48.23016357 2.90203857 C50.10756226 2.72922363 50.10756226 2.72922363 52.02288818 2.55291748 C53.44226685 2.30420898 53.44226685 2.30420898 54.89031982 2.05047607 C55.22031982 1.39047607 55.55031982 0.73047607 55.89031982 0.05047607 C60.13512447 -0.28244978 62.24574608 -0.38838265 65.82781982 2.05047607 C66.50844482 2.71047607 67.18906982 3.37047607 67.89031982 4.05047607 C67.29457514 9.4121782 67.29457514 9.4121782 65.70281982 11.92547607 C63.09017107 13.54712013 60.89511281 13.25079561 57.89031982 13.05047607 C56.90031982 11.07047607 56.90031982 11.07047607 55.89031982 9.05047607 C52.59031982 10.04047607 49.29031982 11.03047607 45.89031982 12.05047607 C45.89031982 13.04047607 45.89031982 14.03047607 45.89031982 15.05047607 C38.77547295 14.66481148 32.53590116 13.65948208 25.89031982 11.05047607 C25.58739014 11.54676514 25.28446045 12.0430542 24.97235107 12.55438232 C22.11372623 17.18975245 19.21692895 21.73487505 15.89031982 26.05047607 C15.23031982 26.05047607 14.57031982 26.05047607 13.89031982 26.05047607 C13.89031982 29.68047607 13.89031982 33.31047607 13.89031982 37.05047607 C11.30586209 37.15866268 8.7259463 37.23784844 6.14031982 37.30047607 C5.41071045 37.3339917 4.68110107 37.36750732 3.92938232 37.40203857 C0.41151677 37.46599977 -1.66858169 37.3679546 -4.56280518 35.28485107 C-7.05932033 31.67877363 -7.10968018 29.44956434 -7.10968018 25.05047607 C-5.79718018 22.67547607 -5.79718018 22.67547607 -3.10968018 21.05047607 C-1.46796845 20.7934404 0.17871418 20.56726827 1.82781982 20.36297607 C5.02730794 19.84388508 6.44210492 19.55547838 8.61688232 17.10516357 C10.92101874 13.02239554 11.95840805 9.71003494 12.89031982 5.05047607 C-19.44968018 5.05047607 -51.78968018 5.05047607 -85.10968018 5.05047607 C-85.10968018 4.39047607 -85.10968018 3.73047607 -85.10968018 3.05047607 C-84.15255127 2.95959717 -84.15255127 2.95959717 -83.17608643 2.86688232 C-81.93665283 2.74119873 -81.93665283 2.74119873 -80.67218018 2.61297607 C-79.43661377 2.49115967 -79.43661377 2.49115967 -78.17608643 2.36688232 C-76.12305992 2.26116793 -76.12305992 2.26116793 -75.10968018 1.05047607 C-73.03942784 0.92643774 -70.96495946 0.87245663 -68.89117432 0.84515381 C-67.91484543 0.83030441 -67.91484543 0.83030441 -66.91879272 0.81515503 C-64.74417835 0.78333794 -62.56954383 0.75864392 -60.39483643 0.73406982 C-58.86670932 0.71345792 -57.33858736 0.69246047 -55.81047058 0.6710968 C-52.5830082 0.62698833 -49.35552666 0.5861345 -46.12799072 0.54779053 C-42.07272051 0.49957043 -38.01755179 0.44577981 -33.96238136 0.38985252 C-25.44793248 0.27264616 -16.93344544 0.17440218 -8.4185791 0.09313965 C-5.61232096 0.06625731 -2.80616527 0.03524546 0 0 Z " fill="#222222" transform="translate(447.10968017578125,243.94952392578125)"/>
<path d="M0 0 C0.36923077 7.38461538 0.36923077 7.38461538 -1.5 10.5 C-1.995 10.995 -2.49 11.49 -3 12 C-1.91019973 14.4520506 -0.81948421 16.20487109 0.96875 18.234375 C7.03251372 26.49042252 7.07288745 39.77155624 5.61328125 49.60546875 C4.84052571 53.39506191 3.81982606 56.57444506 2 60 C1.34 60 0.68 60 0 60 C-0.33 60.99 -0.66 61.98 -1 63 C-3.109375 64.75390625 -3.109375 64.75390625 -5.75 66.5625 C-6.61109375 67.16191406 -7.4721875 67.76132813 -8.359375 68.37890625 C-10.85532075 69.91118064 -13.25163355 71.00643587 -16 72 C-16 72.66 -16 73.32 -16 74 C-15.113125 73.896875 -14.22625 73.79375 -13.3125 73.6875 C-10 74 -10 74 -7.0625 76 C-5.00131588 78.998086 -4.63188679 79.59415087 -4.8125 83 C-5.4315535 86.08358726 -6.38595878 87.85676585 -8.6875 90 C-12.30030707 92.18131748 -13.87644921 92.71713927 -18 92 C-18.61101562 91.48824219 -19.22203125 90.97648437 -19.8515625 90.44921875 C-22.61912702 88.58237068 -23.99466574 88.8413332 -27.25 89.3125 C-28.14203125 89.43238281 -29.0340625 89.55226563 -29.953125 89.67578125 C-30.96632813 89.83626953 -30.96632813 89.83626953 -32 90 C-29.74035542 86.61053312 -28.79270862 86.14663284 -25 85 C-22.3125 84.6875 -22.3125 84.6875 -20 85 C-19.01 86.485 -19.01 86.485 -18 88 C-15.04253508 88.58345476 -15.04253508 88.58345476 -12 88 C-9.9214392 86.42304368 -9.9214392 86.42304368 -9 84 C-8.99364754 81.36462492 -8.99364754 81.36462492 -10 79 C-13.44450737 76.70366176 -15.93812283 76.45983515 -20 76 C-20.495 77.485 -20.495 77.485 -21 79 C-23.83275953 79.33896268 -26.66604661 79.67129694 -29.5 80 C-30.29148437 80.09539062 -31.08296875 80.19078125 -31.8984375 80.2890625 C-36.97029404 80.87107882 -41.89493859 81.09367085 -47 81 C-46.505 79.515 -46.505 79.515 -46 78 C-45.00097656 77.87882812 -44.00195312 77.75765625 -42.97265625 77.6328125 C-41.68230469 77.46523437 -40.39195312 77.29765625 -39.0625 77.125 C-37.77472656 76.96257812 -36.48695313 76.80015625 -35.16015625 76.6328125 C-33.59587891 76.31957031 -33.59587891 76.31957031 -32 76 C-31.67 75.34 -31.34 74.68 -31 74 C-29.3438054 73.61802052 -27.67436188 73.29223483 -26 73 C-16.0675551 69.89506765 -5.52540136 64.01437212 0.25 55.0625 C3.67040987 45.65637287 2.75173168 33.4720412 0 24 C-1.46950654 21.61838595 -3.00410309 19.99589691 -5 18 C-5 17.34 -5 16.68 -5 16 C-6.485 15.505 -6.485 15.505 -8 15 C-8 13.68 -8 12.36 -8 11 C-7.34 10.525625 -6.68 10.05125 -6 9.5625 C-5.34 9.046875 -4.68 8.53125 -4 8 C-3.66574265 5.37374861 -3.66574265 5.37374861 -4 3 C-7.04386724 2.91773332 -9.07175348 3.02391783 -12 4 C-11.505 4.61875 -11.01 5.2375 -10.5 5.875 C-9 8 -9 8 -9 10 C-10.41750563 9.88490339 -11.83401169 9.75746342 -13.25 9.625 C-14.03890625 9.55539063 -14.8278125 9.48578125 -15.640625 9.4140625 C-18 9 -18 9 -19.71746826 7.99978638 C-22.82580204 6.63828515 -25.49035617 6.67470326 -28.87988281 6.58935547 C-29.56321686 6.56955627 -30.2465509 6.54975708 -30.95059204 6.52935791 C-33.20129711 6.46636204 -35.45208652 6.41670817 -37.703125 6.3671875 C-39.26684722 6.32602802 -40.8305477 6.28403453 -42.39422607 6.24124146 C-46.50397093 6.1310099 -50.6139131 6.03209988 -54.72399902 5.93554688 C-58.92034402 5.83496276 -63.11640354 5.72367129 -67.3125 5.61328125 C-75.54142507 5.39837522 -83.77058945 5.19542917 -92 5 C-92 4.67 -92 4.34 -92 4 C-82.82910742 3.97681556 -73.65822496 3.95905378 -64.48730946 3.94818783 C-60.2287524 3.94297236 -55.97021542 3.93589896 -51.71166992 3.92456055 C-47.60088084 3.9136842 -43.49011106 3.90771309 -39.3793087 3.90512276 C-37.81205631 3.90327707 -36.24480497 3.89967293 -34.67756081 3.89426994 C-32.4800858 3.88699652 -30.28269021 3.88601172 -28.08520508 3.88647461 C-26.83500076 3.884254 -25.58479645 3.88203339 -24.29670715 3.87974548 C-21.39576466 3.98556363 -18.81545765 4.32540867 -16 5 C-15.443125 4.195625 -14.88625 3.39125 -14.3125 2.5625 C-12 0 -12 0 -9.6875 -0.875 C-6.35328896 -1.03007958 -3.28046804 -0.57890612 0 0 Z " fill="#111111" transform="translate(523,168)"/>
<path d="M0 0 C4.95 0.33 9.9 0.66 15 1 C15 1.33 15 1.66 15 2 C10.545 2.495 10.545 2.495 6 3 C8.02729762 8.49019355 10.64864113 13.02534888 15 17 C17.88743352 18.19713153 20.5759171 18.89344663 23.64453125 19.46484375 C26 20 26 20 28 22 C28.62838874 26.70367457 28.67329295 31.99006058 26 36 C22.29375135 39.2008511 18.71724633 41.30727257 13.75 41.4375 C7.90871369 40.7560166 7.90871369 40.7560166 6 39 C5.0625 35.625 5.0625 35.625 5 32 C6.4375 29.5625 6.4375 29.5625 8 28 C6.63875 27.13375 6.63875 27.13375 5.25 26.25 C2 24 2 24 0.1875 22.0625 C-2.57010505 19.46247238 -5.59051062 18.00865259 -8.9765625 16.34375 C-11.31497951 14.79082442 -11.856718 13.50767947 -13 11 C-13.53802246 11.13784912 -14.07604492 11.27569824 -14.63037109 11.41772461 C-20.33000678 12.79263134 -25.77527536 13.36908169 -31.625 13.5625 C-38.34819552 13.80563995 -38.34819552 13.80563995 -45.0234375 14.58984375 C-46.00570313 14.72519531 -46.98796875 14.86054688 -48 15 C-48.33 14.67 -48.66 14.34 -49 14 C-51.32817964 13.63239269 -53.6618385 13.29758419 -56 13 C-56 12.67 -56 12.34 -56 12 C-51.86148407 11.41725232 -47.72133529 10.84839974 -43.5793457 10.29101562 C-42.17781266 10.10058734 -40.77674247 9.9067129 -39.3762207 9.70898438 C-29.50833587 8.31904156 -19.97139968 7.74065176 -10 8 C-9.89204102 8.61875 -9.78408203 9.2375 -9.67285156 9.875 C-8.60201456 13.25691775 -5.68844438 14.35395676 -2.75 16 C1.44992909 18.43253811 5.25683114 20.91204787 9 24 C10.6502694 25.0268343 12.31243867 26.03567924 14 27 C12.71937515 28.7074998 11.38232443 30.37373596 10 32 C9.34 32 8.68 32 8 32 C8 33.65 8 35.3 8 37 C13.19209404 37.21192221 17.126739 36.5912689 22 35 C23.43966791 28.55123906 23.43966791 28.55123906 24 22 C22.824375 22.12375 21.64875 22.2475 20.4375 22.375 C15.92236052 22.36702272 13.78585811 20.86040064 10.6015625 17.78515625 C7.0534109 13.83026532 4.36978729 9.73957459 2 5 C0.4587688 3.29078411 0.4587688 3.29078411 -1 2 C-0.67 1.34 -0.34 0.68 0 0 Z " fill="#1E1E1E" transform="translate(356,245)"/>
<path d="M0 0 C0.0093457 0.589021 0.01869141 1.17804199 0.02832031 1.78491211 C0.08263875 4.50323016 0.1661584 7.21993848 0.25 9.9375 C0.26417969 10.86369141 0.27835937 11.78988281 0.29296875 12.74414062 C0.65209435 22.97922026 4.42929108 31.53086239 11.8125 38.75 C18.19710251 43.25677825 24.85660922 43.36302537 32.4375 43.625 C33.82098633 43.68300781 33.82098633 43.68300781 35.23242188 43.7421875 C37.48809143 43.83568676 39.74376916 43.9214391 42 44 C42.33 44.66 42.66 45.32 43 46 C35.57517603 47.3779403 28.25498965 48.30606728 20.71484375 48.75390625 C17.90612029 48.90390885 17.90612029 48.90390885 15 50 C11.5625 50.3125 11.5625 50.3125 8 50 C6.62804426 48.70644173 5.28817344 47.37701298 4 46 C1.78141747 46.13641377 1.78141747 46.13641377 0 47 C-1.97454988 52.89883171 -1.97454988 52.89883171 -2 59 C-0.47981752 61.43695474 -0.47981752 61.43695474 2 63 C5.167832 63.33448259 5.167832 63.33448259 8 63 C8.12375 61.824375 8.12375 61.824375 8.25 60.625 C9 58 9 58 10.625 56.625 C13.99440092 55.73831555 16.63365602 56.23780891 20 57 C20.33 57.66 20.66 58.32 21 59 C18.36 59 15.72 59 13 59 C12.896875 59.763125 12.79375 60.52625 12.6875 61.3125 C11.64768683 65.3772242 11.64768683 65.3772242 9 67 C2.47658184 67.85553025 2.47658184 67.85553025 -0.8203125 65.9453125 C-2.99249062 64.17189171 -4.73772527 62.52454947 -6 60 C-6.11697217 54.34355994 -5.96841169 49.50958293 -2.875 44.6875 C0.95340857 42.44039062 2.73899543 42.97148165 7 44 C8.9490625 44.2784375 8.9490625 44.2784375 10.9375 44.5625 C11.948125 44.706875 12.95875 44.85125 14 45 C13.35933594 44.59652344 12.71867187 44.19304687 12.05859375 43.77734375 C4.17799772 38.24565861 -0.88525627 31.40147909 -3 22 C-3.73451329 15.01152377 -3.46017114 7.99965822 -3 1 C-1 0 -1 0 0 0 Z " fill="#151515" transform="translate(287,201)"/>
<path d="M0 0 C4.24480464 -0.33292585 6.35542625 -0.43885872 9.9375 2 C10.9584375 2.99 10.9584375 2.99 12 4 C11.40425532 9.36170213 11.40425532 9.36170213 9.8125 11.875 C7.19985125 13.49664405 5.00479298 13.20031953 2 13 C1.34 11.68 0.68 10.36 0 9 C-0.75023437 9.22816406 -1.50046875 9.45632812 -2.2734375 9.69140625 C-10.35873994 11.96221537 -17.25904898 13.08601845 -25.125 9.625 C-25.74375 9.08875 -26.3625 8.5525 -27 8 C-27 7.01 -27 6.02 -27 5 C-25.82642944 4.87939209 -25.82642944 4.87939209 -24.62915039 4.75634766 C-21.10585324 4.38884058 -17.58424103 4.00711901 -14.0625 3.625 C-12.83080078 3.49867188 -11.59910156 3.37234375 -10.33007812 3.2421875 C-8.5753418 3.04882812 -8.5753418 3.04882812 -6.78515625 2.8515625 C-5.70113525 2.73635254 -4.61711426 2.62114258 -3.50024414 2.50244141 C-2.67516357 2.33663574 -1.85008301 2.17083008 -1 2 C-0.67 1.34 -0.34 0.68 0 0 Z " fill="#F5F5F5" transform="translate(503,244)"/>
<path d="M0 0 C1 1 1 1 1.0625 4.0625 C1.041875 5.031875 1.02125 6.00125 1 7 C0.34 7.33 -0.32 7.66 -1 8 C-1.495 5.525 -1.495 5.525 -2 3 C-5.04386724 2.91773332 -7.07175348 3.02391783 -10 4 C-9.505 4.61875 -9.01 5.2375 -8.5 5.875 C-7 8 -7 8 -7 10 C-8.41750563 9.88490339 -9.83401169 9.75746342 -11.25 9.625 C-12.03890625 9.55539063 -12.8278125 9.48578125 -13.640625 9.4140625 C-16 9 -16 9 -17.71746826 7.99978638 C-20.82580204 6.63828515 -23.49035617 6.67470326 -26.87988281 6.58935547 C-27.56321686 6.56955627 -28.2465509 6.54975708 -28.95059204 6.52935791 C-31.20129711 6.46636204 -33.45208652 6.41670817 -35.703125 6.3671875 C-37.26684722 6.32602802 -38.8305477 6.28403453 -40.39422607 6.24124146 C-44.50397093 6.1310099 -48.6139131 6.03209988 -52.72399902 5.93554688 C-56.92034402 5.83496276 -61.11640354 5.72367129 -65.3125 5.61328125 C-73.54142507 5.39837522 -81.77058945 5.19542917 -90 5 C-90 4.67 -90 4.34 -90 4 C-80.82910742 3.97681556 -71.65822496 3.95905378 -62.48730946 3.94818783 C-58.2287524 3.94297236 -53.97021542 3.93589896 -49.71166992 3.92456055 C-45.60088084 3.9136842 -41.49011106 3.90771309 -37.3793087 3.90512276 C-35.81205631 3.90327707 -34.24480497 3.89967293 -32.67756081 3.89426994 C-30.4800858 3.88699652 -28.28269021 3.88601172 -26.08520508 3.88647461 C-24.83500076 3.884254 -23.58479645 3.88203339 -22.29670715 3.87974548 C-19.39576466 3.98556363 -16.81545765 4.32540867 -14 5 C-13.443125 4.195625 -12.88625 3.39125 -12.3125 2.5625 C-10 0 -10 0 -7.5625 -0.875 C-4.83327008 -1.00813317 -2.62931008 -0.73036391 0 0 Z " fill="#090909" transform="translate(521,168)"/>
<path d="M0 0 C0.33 0.99 0.66 1.98 1 3 C-0.24716797 3.05607422 -0.24716797 3.05607422 -1.51953125 3.11328125 C-2.60621094 3.17902344 -3.69289063 3.24476563 -4.8125 3.3125 C-6.43091797 3.39951172 -6.43091797 3.39951172 -8.08203125 3.48828125 C-10.97071555 3.78569481 -10.97071555 3.78569481 -12.890625 5.3046875 C-14.5367818 7.82029332 -14.06147856 10.06587358 -13.5859375 12.9296875 C-12.68360813 16.11791796 -11.05951797 18.44120495 -9 21 C-5.81175432 22.59412284 -2.37103338 22.10174735 1.125 22.0625 C2.25615234 22.05573242 2.25615234 22.05573242 3.41015625 22.04882812 C5.27347127 22.03703499 7.13674555 22.01909942 9 22 C9 22.99 9 23.98 9 25 C2.74566167 26.66782356 -3.54412763 26.56364284 -9.8125 25.125 C-15.04126619 21.63915587 -17.03596332 16.71475466 -18.5859375 10.7421875 C-18.8125 8.6875 -18.8125 8.6875 -18 5 C-13.06168079 -0.47075255 -6.92162069 -0.6382642 0 0 Z " fill="#1E1E1E" transform="translate(324,193)"/>
<path d="M0 0 C0.66 0 1.32 0 2 0 C2.36923077 7.38461538 2.36923077 7.38461538 0.5 10.5 C0.005 10.995 -0.49 11.49 -1 12 C0.08980027 14.4520506 1.18051579 16.20487109 2.96875 18.234375 C8.60061263 25.90237258 8.79034001 37.78800417 8 47 C7.48819756 50.07518905 6.80467472 52.98246979 6 56 C5.01 55.67 4.02 55.34 3 55 C3.165 53.906875 3.33 52.81375 3.5 51.6875 C4.59898195 42.62488077 5.72149837 30.03139391 0.75390625 21.98046875 C-0.43438713 20.59693169 -1.71038456 19.28961544 -3 18 C-3 17.34 -3 16.68 -3 16 C-3.99 15.67 -4.98 15.34 -6 15 C-6 13.68 -6 12.36 -6 11 C-4.515 10.1028125 -4.515 10.1028125 -3 9.1875 C-2.01 8.465625 -1.02 7.74375 0 7 C0.50125283 3.33142278 0.50125283 3.33142278 0 0 Z " fill="#171717" transform="translate(521,168)"/>
<path d="M0 0 C0.99 0.33 1.98 0.66 3 1 C1.17272355 7.63079863 -1.08515322 13.7682586 -4 20 C-8.29 20 -12.58 20 -17 20 C-17.33 20.99 -17.66 21.98 -18 23 C-18.66 23.66 -19.32 24.32 -20 25 C-19.63652803 18.57866184 -19.63652803 18.57866184 -16.9375 16.125 C-14.21581328 15.0826519 -12.81295139 14.93880986 -10 14.875 C-7.14043408 14.62634209 -6.29271732 14.34665786 -4.41015625 12.1171875 C-2.14423733 8.13705165 -0.76235778 4.52599774 0 0 Z " fill="#131313" transform="translate(460,249)"/>
<path d="M0 0 C0.33 0 0.66 0 1 0 C1.62467866 8.12082262 1.62467866 8.12082262 -0.6875 11.375 C-1.450625 11.91125 -2.21375 12.4475 -3 13 C-3.7425 13.5775 -4.485 14.155 -5.25 14.75 C-9.13081421 16.51400646 -11.73892526 16.33818053 -16 16 C-18.5 15 -18.5 15 -20 14 C-19.67 12.02 -19.34 10.04 -19 8 C-18.67 9.32 -18.34 10.64 -18 12 C-12.80790596 12.21192221 -8.873261 11.5912689 -4 10 C-3.896875 9.278125 -3.79375 8.55625 -3.6875 7.8125 C-2.93659472 4.74061475 -1.78158272 2.59814146 0 0 Z " fill="#171717" transform="translate(382,270)"/>
<path d="M0 0 C0.33 0 0.66 0 1 0 C0.76458928 6.9446161 0.76458928 6.9446161 -1.19140625 9.64453125 C-3.72445025 11.93948234 -5.76216844 12.96194695 -9.125 13.5 C-12 13 -12 13 -13.8515625 11.44921875 C-16.61912702 9.58237068 -17.99466574 9.8413332 -21.25 10.3125 C-22.14203125 10.43238281 -23.0340625 10.55226563 -23.953125 10.67578125 C-24.62859375 10.78277344 -25.3040625 10.88976562 -26 11 C-23.74035542 7.61053312 -22.79270862 7.14663284 -19 6 C-16.3125 5.6875 -16.3125 5.6875 -14 6 C-13.01 7.485 -13.01 7.485 -12 9 C-9.1284035 9.66790364 -9.1284035 9.66790364 -6 9 C-3.19259115 6.75407292 -1.38835844 5.10532787 -0.1875 1.6875 C-0.0946875 0.8521875 -0.0946875 0.8521875 0 0 Z " fill="#171717" transform="translate(517,247)"/>
<path d="M0 0 C0.66 0 1.32 0 2 0 C2.36923077 7.38461538 2.36923077 7.38461538 0.5 10.5 C0.005 10.995 -0.49 11.49 -1 12 C0.1357441 14.55542423 1.34872527 16.43077828 3.125 18.625 C5 21 5 21 5 23 C4.01 23.33 3.02 23.66 2 24 C-3 18.25 -3 18.25 -3 16 C-3.99 15.67 -4.98 15.34 -6 15 C-6 13.68 -6 12.36 -6 11 C-4.515 10.1028125 -4.515 10.1028125 -3 9.1875 C-2.01 8.465625 -1.02 7.74375 0 7 C0.50125283 3.33142278 0.50125283 3.33142278 0 0 Z " fill="#262626" transform="translate(521,168)"/>
<path d="M0 0 C0.66 0 1.32 0 2 0 C2 3.3 2 6.6 2 10 C-0.60478883 10.0809313 -3.20706653 10.14045434 -5.8125 10.1875 C-6.91948242 10.22520508 -6.91948242 10.22520508 -8.04882812 10.26367188 C-13.48575047 10.33747625 -13.48575047 10.33747625 -16 8.6875 C-17.50580734 6.14645011 -17.19214994 3.88224911 -17 1 C-14 3 -14 3 -13.1953125 5.078125 C-12.60363281 6.02945312 -12.60363281 6.02945312 -12 7 C-9.1213065 7.70535611 -9.1213065 7.70535611 -5.875 7.75 C-4.23144531 7.83507812 -4.23144531 7.83507812 -2.5546875 7.921875 C-1.71164062 7.94765625 -0.86859375 7.9734375 0 8 C0 5.36 0 2.72 0 0 Z " fill="#111111" transform="translate(458,270)"/>
<path d="M0 0 C0.886875 0.165 1.77375 0.33 2.6875 0.5 C2.6875 1.16 2.6875 1.82 2.6875 2.5 C3.6775 2.83 4.6675 3.16 5.6875 3.5 C6.6775 4.985 6.6775 4.985 7.6875 6.5 C7.3575 7.49 7.0275 8.48 6.6875 9.5 C6.0275 9.5 5.3675 9.5 4.6875 9.5 C3.02083333 7.5 1.35416667 5.5 -0.3125 3.5 C-0.9725 3.5 -1.6325 3.5 -2.3125 3.5 C-5.05772883 7.92778844 -6.79724397 11.21862571 -7.3125 16.5 C-7.6425 16.5 -7.9725 16.5 -8.3125 16.5 C-8.84080939 10.58293486 -8.20110751 6.9540603 -4.82421875 2 C-3.3125 0.5 -3.3125 0.5 0 0 Z " fill="#131313" transform="translate(320.3125,155.5)"/>
<path d="M0 0 C1.32 0 2.64 0 4 0 C3.25 6.625 3.25 6.625 1 10 C-1.625 10.1875 -1.625 10.1875 -4 10 C-5.85776765 6.86501708 -6.20140476 4.62528568 -6 1 C-5.01 1 -4.02 1 -3 1 C-2.814375 2.2065625 -2.814375 2.2065625 -2.625 3.4375 C-2.41875 4.283125 -2.2125 5.12875 -2 6 C-1.34 6.33 -0.68 6.66 0 7 C0 4.69 0 2.38 0 0 Z " fill="#1C1C1C" transform="translate(386,207)"/>
<path d="M0 0 C0.99 0 1.98 0 3 0 C3.36923077 6.4 3.36923077 6.4 1.5 9.4375 C1.005 9.953125 0.51 10.46875 0 11 C-1.65 10.67 -3.3 10.34 -5 10 C-5.33 7.69 -5.66 5.38 -6 3 C-5.01 3.33 -4.02 3.66 -3 4 C-3 4.99 -3 5.98 -3 7 C-2.01 7 -1.02 7 0 7 C0 4.69 0 2.38 0 0 Z " fill="#212121" transform="translate(355,221)"/>
<path d="M0 0 C13.365 0.495 13.365 0.495 27 1 C27 1.66 27 2.32 27 3 C18.42 3 9.84 3 1 3 C0.67 2.01 0.34 1.02 0 0 Z " fill="#0A0A0A" transform="translate(311,228)"/>
<path d="M0 0 C0.99 0 1.98 0 3 0 C3.33 2.31 3.66 4.62 4 7 C4.66 5.68 5.32 4.36 6 3 C6.99 3.33 7.98 3.66 9 4 C8.67 5.98 8.34 7.96 8 10 C6.02 10 4.04 10 2 10 C-0.09350689 6.5980513 -0.17942163 3.94727588 0 0 Z " fill="#1F1F1F" transform="translate(454,192)"/>
<path d="M0 0 C0.33 0.99 0.66 1.98 1 3 C-0.14453125 5.04296875 -0.14453125 5.04296875 -1.8125 7.1875 C-2.35519531 7.90292969 -2.89789063 8.61835938 -3.45703125 9.35546875 C-3.96621094 9.89816406 -4.47539062 10.44085938 -5 11 C-5.66 11 -6.32 11 -7 11 C-7 14.63 -7 18.26 -7 22 C-12.28 22 -17.56 22 -23 22 C-23 21.67 -23 21.34 -23 21 C-18.05 21 -13.1 21 -8 21 C-8 17.04 -8 13.08 -8 9 C-7.34 9 -6.68 9 -6 9 C-5.7525 8.2575 -5.505 7.515 -5.25 6.75 C-3.90852699 3.79875938 -2.39094474 2.15185026 0 0 Z " fill="#2C2C2C" transform="translate(468,259)"/>
<path d="M0 0 C0.99 0 1.98 0 3 0 C3.33 1.32 3.66 2.64 4 4 C4.33 3.01 4.66 2.02 5 1 C5.99 1 6.98 1 8 1 C7.125 6.75 7.125 6.75 6 9 C3.5625 8.625 3.5625 8.625 1 8 C-0.35439668 5.29120665 -0.06501451 2.99066732 0 0 Z " fill="#202020" transform="translate(515,209)"/>
<path d="M0 0 C0.99 0 1.98 0 3 0 C2.25 6.75 2.25 6.75 0 9 C-2.625 8.625 -2.625 8.625 -5 8 C-5 6.02 -5 4.04 -5 2 C-4.01 2 -3.02 2 -2 2 C-1.67 2.66 -1.34 3.32 -1 4 C-0.67 2.68 -0.34 1.36 0 0 Z " fill="#242424" transform="translate(473,199)"/>
<path d="M0 0 C0.99 0 1.98 0 3 0 C2.125 5.75 2.125 5.75 1 8 C-0.65 8 -2.3 8 -4 8 C-4.66 6.02 -5.32 4.04 -6 2 C-4.68 2 -3.36 2 -2 2 C-1.67 2.66 -1.34 3.32 -1 4 C-0.67 2.68 -0.34 1.36 0 0 Z " fill="#1C1C1C" transform="translate(295,206)"/>
<path d="M0 0 C-0.639375 0.28875 -1.27875 0.5775 -1.9375 0.875 C-4.15206079 1.82823451 -4.15206079 1.82823451 -5 4 C-8.5 4.6875 -8.5 4.6875 -12 5 C-12.33 4.67 -12.66 4.34 -13 4 C-15.32817964 3.63239269 -17.6618385 3.29758419 -20 3 C-20 2.67 -20 2.34 -20 2 C-17.60468244 1.66254646 -15.20885732 1.3299171 -12.8125 1 C-11.80219727 0.85691406 -11.80219727 0.85691406 -10.77148438 0.7109375 C-7.15335423 0.21675387 -3.65203599 -0.11346131 0 0 Z " fill="#3A3A3A" transform="translate(320,255)"/>
<path d="M0 0 C0 0.33 0 0.66 0 1 C-2.31 1.33 -4.62 1.66 -7 2 C-5.35 2.33 -3.7 2.66 -2 3 C-2 3.33 -2 3.66 -2 4 C-6.455 4.495 -6.455 4.495 -11 5 C-11.33 5.99 -11.66 6.98 -12 8 C-12.66 8.66 -13.32 9.32 -14 10 C-13.63768116 3.59903382 -13.63768116 3.59903382 -10.9375 1.0625 C-7.07163509 -0.33579156 -4.09806991 -0.20837644 0 0 Z " fill="#424242" transform="translate(454,264)"/>
<path d="M0 0 C0.33 0 0.66 0 1 0 C1.22424141 7.36259293 0.90120099 13.87049629 -1 21 C-1.99 20.67 -2.98 20.34 -4 20 C-3.4140625 13.84765625 -3.4140625 13.84765625 -3 12 C-2.34 11.67 -1.68 11.34 -1 11 C-0.5316735 8.41394668 -0.5316735 8.41394668 -0.375 5.4375 C-0.30023437 4.42558594 -0.22546875 3.41367188 -0.1484375 2.37109375 C-0.09945312 1.58863281 -0.05046875 0.80617187 0 0 Z " fill="#272727" transform="translate(528,203)"/>
<path d="M0 0 C0.80308594 0.09796875 1.60617187 0.1959375 2.43359375 0.296875 C3.64208984 0.42835938 3.64208984 0.42835938 4.875 0.5625 C5.53371094 0.72234375 6.19242187 0.8821875 6.87109375 1.046875 C7.20109375 1.706875 7.53109375 2.366875 7.87109375 3.046875 C4.90109375 3.046875 1.93109375 3.046875 -1.12890625 3.046875 C-1.45890625 4.036875 -1.78890625 5.026875 -2.12890625 6.046875 C-2.78890625 4.726875 -3.44890625 3.406875 -4.12890625 2.046875 C-2.12890625 0.046875 -2.12890625 0.046875 0 0 Z " fill="#080808" transform="translate(300.12890625,256.953125)"/>
<path d="M0 0 C0.99 0.33 1.98 0.66 3 1 C2.60446947 2.6510403 2.18286103 4.2958515 1.75 5.9375 C1.40195312 7.31228516 1.40195312 7.31228516 1.046875 8.71484375 C0 11 0 11 -2.109375 11.81640625 C-2.73328125 11.87699219 -3.3571875 11.93757813 -4 12 C-3.71125 11.319375 -3.4225 10.63875 -3.125 9.9375 C-1.87402645 6.67106907 -0.92552045 3.37153877 0 0 Z " fill="#2D2D2D" transform="translate(460,249)"/>
<path d="M0 0 C0.99 0 1.98 0 3 0 C3.33 1.65 3.66 3.3 4 5 C2.68 4.67 1.36 4.34 0 4 C0 2.68 0 1.36 0 0 Z " fill="#212121" transform="translate(285,222)"/>
</svg>
