<?xml version="1.0" encoding="UTF-8"?>
<svg version="1.1" xmlns="http://www.w3.org/2000/svg" width="800" height="300">
<path d="M0 0 C264 0 528 0 800 0 C800 99 800 198 800 300 C536 300 272 300 0 300 C0 201 0 102 0 0 Z " fill="#FEFEFE" transform="translate(0,0)"/>
<path d="M0 0 C2.61593153 1.83115207 2.96989455 2.90968366 4 6 C4.068991 8.06145107 4.08467727 10.12501401 4.0625 12.1875 C4.05347656 13.27417969 4.04445313 14.36085937 4.03515625 15.48046875 C4.02355469 16.31191406 4.01195312 17.14335937 4 18 C15.4331541 18.02340956 26.86630228 18.04105823 38.29947567 18.05181217 C43.61119891 18.05697952 48.92290549 18.06396193 54.23461914 18.07543945 C87.13086728 18.18291415 87.13086728 18.18291415 120 17 C120.07347656 16.06027344 120.07347656 16.06027344 120.1484375 15.1015625 C120.22320312 14.28429687 120.29796875 13.46703125 120.375 12.625 C120.44460938 11.81289062 120.51421875 11.00078125 120.5859375 10.1640625 C121 8 121 8 123 6 C128.68348624 5.4587156 128.68348624 5.4587156 131 6 C134.21885105 9.07187155 134.45257949 11.92746256 134.6875 16.25 C134.75324219 17.32765625 134.81898438 18.4053125 134.88671875 19.515625 C134.94279297 20.74539062 134.94279297 20.74539062 135 22 C135.87011719 22.23783203 135.87011719 22.23783203 136.7578125 22.48046875 C142.27475562 24.12826859 145.95745989 25.85886135 150 30 C150.71162443 31.64797236 151.39031953 33.31165408 152 35 C152.99 35.33 153.98 35.66 155 36 C156.70974964 39.17611855 157.80463098 42.60130248 159 46 C159.433125 47.175625 159.86625 48.35125 160.3125 49.5625 C161.20078844 54.00394221 160.84030924 57.57954971 160 62 C159.83628906 62.86882812 159.67257812 63.73765625 159.50390625 64.6328125 C157.56476844 73.08793512 153.82199104 80.82856062 147.0625 86.4375 C145.5465625 87.2109375 145.5465625 87.2109375 144 88 C143.40574219 88.33257812 142.81148437 88.66515625 142.19921875 89.0078125 C137.02829775 91.80570563 131.65976297 93.46908051 126 95 C126 99.41789639 126.66937956 101.30315379 129 105 C130.65816784 105.68753301 132.32459336 106.35561283 134 107 C135.95482793 110.10995352 136.00332654 111.93568682 135.8125 115.625 C134.7210697 120.15863356 134.7210697 120.15863356 132 122 C129.25527967 122.3258438 126.80270623 122.46448502 124.0625 122.4375 C123.34642578 122.45748047 122.63035156 122.47746094 121.89257812 122.49804688 C118.37188533 122.49478395 116.3585308 122.26262521 113.48828125 120.16015625 C112 118 112 118 112.125 115 C112.87097448 112.44237321 113.67350255 110.29926225 115 108 C111.72108075 106.36054037 108.09386466 106.87969822 104.4921875 106.90234375 C103.23125778 106.90446617 103.23125778 106.90446617 101.94485474 106.90663147 C99.25486725 106.91223763 96.56496241 106.92479114 93.875 106.9375 C92.05338662 106.94251421 90.23177193 106.94707725 88.41015625 106.95117188 C83.94007223 106.96220906 79.47005014 106.9794778 75 107 C75.32234619 107.61875 75.64469238 108.2375 75.97680664 108.875 C77.58436181 112.21362089 77.75055264 115.38099867 77 119 C73.77716867 122.30764268 71.29202443 123.92686654 66.6875 124.1875 C63.18990905 124.00965639 61.05082964 123.65616466 58 122 C55.52551429 118.28827144 55.33977709 115.30367527 56 111 C57.82308568 107.42135033 59.16834573 105.4950323 62.625 103.4375 C65.54144586 101.67228277 66.04737555 100.20428224 67 97 C66.42142242 97.06597885 65.84284485 97.1319577 65.24673462 97.19993591 C58.38419191 97.93926735 51.54453309 98.29009378 44.6484375 98.53515625 C42.93837021 98.59962196 42.93837021 98.59962196 41.1937561 98.66539001 C37.5876055 98.80067055 33.98131398 98.93165485 30.375 99.0625 C27.91535396 99.15401192 25.45571841 99.24580599 22.99609375 99.33789062 C16.99751315 99.56185615 10.99881123 99.78230392 5 100 C5.66 100.66 6.32 101.32 7 102 C7.28875 102.94875 7.5775 103.8975 7.875 104.875 C8.76164023 108.07822177 8.76164023 108.07822177 11.125 110 C13 112 13 112 13.625 114.9375 C12.92412101 118.37180703 11.81761531 119.99966002 8.98046875 122.08203125 C5.06495144 123.896916 1.18418571 123.7240521 -3 123 C-6.125 121.5625 -6.125 121.5625 -8 119 C-8.39335991 115.95277188 -8.29353124 113.05272491 -8 110 C-7.01 110 -6.02 110 -5 110 C-5.66 108.68 -6.32 107.36 -7 106 C-8.62490954 105.97301811 -10.24994633 105.95361243 -11.875 105.9375 C-13.23238281 105.92009766 -13.23238281 105.92009766 -14.6171875 105.90234375 C-17.0168585 105.83750743 -17.0168585 105.83750743 -19 107 C-21.98573146 107.22752882 -24.95507874 107.40170938 -27.9453125 107.53515625 C-28.8303244 107.57813339 -29.7153363 107.62111053 -30.62716675 107.66539001 C-33.45959511 107.80196541 -36.29227206 107.93230098 -39.125 108.0625 C-41.04298834 108.15388669 -42.96095742 108.2456784 -44.87890625 108.33789062 C-49.58572681 108.56329754 -54.29277969 108.78310796 -59 109 C-59 109.66 -59 110.32 -59 111 C-58.34 111.4125 -57.68 111.825 -57 112.25 C-55 114 -55 114 -54.5 116.9375 C-55 120 -55 120 -56.375 122.375 C-60.95332703 125.20920245 -65.96459362 124.5049762 -71.13671875 123.64453125 C-74.80143153 122.74563944 -75.84621078 122.23068383 -78 119 C-78.3359375 116.625 -78.3359375 116.625 -78.375 114 C-78.40335938 113.13375 -78.43171875 112.2675 -78.4609375 111.375 C-77.85007657 108.22751317 -76.56817632 107.79582809 -74 106 C-72.68373295 103.75778328 -72.68373295 103.75778328 -71.75 101.3125 C-71.24726563 100.10013672 -71.24726563 100.10013672 -70.734375 98.86328125 C-70.49203125 98.24839844 -70.2496875 97.63351562 -70 97 C-70.66386719 96.42894531 -71.32773438 95.85789062 -72.01171875 95.26953125 C-79.01371534 88.83996066 -82.4211822 83.10416648 -85 74 C-85.32871094 72.8965625 -85.65742188 71.793125 -85.99609375 70.65625 C-89.21143588 58.19501293 -89.2175986 44.53734902 -83 33 C-82.46375 31.906875 -81.9275 30.81375 -81.375 29.6875 C-75.7950232 23.37331573 -66.17879689 20.14122747 -58 19 C-58.33 18.67 -58.66 18.34 -59 18 C-59.60272147 12.09332959 -58.2473274 7.85913954 -55 3 C-51.86967764 1.43483882 -48.40926916 1.459663 -45 2 C-42.04080924 3.57505315 -41.16446139 4.46394896 -40.171875 7.69921875 C-40.03265625 8.68535156 -39.8934375 9.67148438 -39.75 10.6875 C-39.60046875 11.68136719 -39.4509375 12.67523438 -39.296875 13.69921875 C-39.14992188 14.83810547 -39.14992188 14.83810547 -39 16 C-38.11699219 15.9278125 -37.23398438 15.855625 -36.32421875 15.78125 C-28.86283421 15.20421489 -21.48302669 14.86255665 -14 15 C-13.99742187 14.33613281 -13.99484375 13.67226562 -13.9921875 12.98828125 C-13.63653877 4.86763531 -13.63653877 4.86763531 -10.375 1.875 C-6.48650774 -0.28527348 -4.3791549 -0.66100451 0 0 Z " fill="#FBFBFB" transform="translate(248,161)"/>
<path d="M0 0 C2.61593153 1.83115207 2.96989455 2.90968366 4 6 C4.068991 8.06145107 4.08467727 10.12501401 4.0625 12.1875 C4.05347656 13.27417969 4.04445313 14.36085937 4.03515625 15.48046875 C4.02355469 16.31191406 4.01195312 17.14335937 4 18 C15.4331541 18.02340956 26.86630228 18.04105823 38.29947567 18.05181217 C43.61119891 18.05697952 48.92290549 18.06396193 54.23461914 18.07543945 C87.13086728 18.18291415 87.13086728 18.18291415 120 17 C120.07347656 16.06027344 120.07347656 16.06027344 120.1484375 15.1015625 C120.22320312 14.28429687 120.29796875 13.46703125 120.375 12.625 C120.44460938 11.81289062 120.51421875 11.00078125 120.5859375 10.1640625 C121 8 121 8 123 6 C128.68348624 5.4587156 128.68348624 5.4587156 131 6 C134.21885105 9.07187155 134.45257949 11.92746256 134.6875 16.25 C134.75324219 17.32765625 134.81898438 18.4053125 134.88671875 19.515625 C134.94279297 20.74539062 134.94279297 20.74539062 135 22 C135.87011719 22.23783203 135.87011719 22.23783203 136.7578125 22.48046875 C142.27475562 24.12826859 145.95745989 25.85886135 150 30 C150.71162443 31.64797236 151.39031953 33.31165408 152 35 C152.99 35.33 153.98 35.66 155 36 C156.70974964 39.17611855 157.80463098 42.60130248 159 46 C159.433125 47.175625 159.86625 48.35125 160.3125 49.5625 C161.20078844 54.00394221 160.84030924 57.57954971 160 62 C159.83628906 62.86882812 159.67257812 63.73765625 159.50390625 64.6328125 C157.56476844 73.08793512 153.82199104 80.82856062 147.0625 86.4375 C145.5465625 87.2109375 145.5465625 87.2109375 144 88 C143.40574219 88.33257812 142.81148437 88.66515625 142.19921875 89.0078125 C137.02829775 91.80570563 131.65976297 93.46908051 126 95 C126 99.41789639 126.66937956 101.30315379 129 105 C130.65816784 105.68753301 132.32459336 106.35561283 134 107 C135.95482793 110.10995352 136.00332654 111.93568682 135.8125 115.625 C134.7210697 120.15863356 134.7210697 120.15863356 132 122 C129.25527967 122.3258438 126.80270623 122.46448502 124.0625 122.4375 C123.34642578 122.45748047 122.63035156 122.47746094 121.89257812 122.49804688 C118.37188533 122.49478395 116.3585308 122.26262521 113.48828125 120.16015625 C112 118 112 118 112.125 115 C112.87097448 112.44237321 113.67350255 110.29926225 115 108 C111.72108075 106.36054037 108.09386466 106.87969822 104.4921875 106.90234375 C103.23125778 106.90446617 103.23125778 106.90446617 101.94485474 106.90663147 C99.25486725 106.91223763 96.56496241 106.92479114 93.875 106.9375 C92.05338662 106.94251421 90.23177193 106.94707725 88.41015625 106.95117188 C83.94007223 106.96220906 79.47005014 106.9794778 75 107 C75.32234619 107.61875 75.64469238 108.2375 75.97680664 108.875 C77.58436181 112.21362089 77.75055264 115.38099867 77 119 C73.77716867 122.30764268 71.29202443 123.92686654 66.6875 124.1875 C63.18990905 124.00965639 61.05082964 123.65616466 58 122 C55.52551429 118.28827144 55.33977709 115.30367527 56 111 C57.82308568 107.42135033 59.16834573 105.4950323 62.625 103.4375 C65.54144586 101.67228277 66.04737555 100.20428224 67 97 C66.42142242 97.06597885 65.84284485 97.1319577 65.24673462 97.19993591 C58.38419191 97.93926735 51.54453309 98.29009378 44.6484375 98.53515625 C42.93837021 98.59962196 42.93837021 98.59962196 41.1937561 98.66539001 C37.5876055 98.80067055 33.98131398 98.93165485 30.375 99.0625 C27.91535396 99.15401192 25.45571841 99.24580599 22.99609375 99.33789062 C16.99751315 99.56185615 10.99881123 99.78230392 5 100 C5.66 100.66 6.32 101.32 7 102 C7.28875 102.94875 7.5775 103.8975 7.875 104.875 C8.76164023 108.07822177 8.76164023 108.07822177 11.125 110 C13 112 13 112 13.625 114.9375 C12.92412101 118.37180703 11.81761531 119.99966002 8.98046875 122.08203125 C5.06495144 123.896916 1.18418571 123.7240521 -3 123 C-6.125 121.5625 -6.125 121.5625 -8 119 C-8.39335991 115.95277188 -8.29353124 113.05272491 -8 110 C-7.01 110 -6.02 110 -5 110 C-5.66 108.68 -6.32 107.36 -7 106 C-8.62490954 105.97301811 -10.24994633 105.95361243 -11.875 105.9375 C-13.23238281 105.92009766 -13.23238281 105.92009766 -14.6171875 105.90234375 C-17.0168585 105.83750743 -17.0168585 105.83750743 -19 107 C-21.98573146 107.22752882 -24.95507874 107.40170938 -27.9453125 107.53515625 C-28.8303244 107.57813339 -29.7153363 107.62111053 -30.62716675 107.66539001 C-33.45959511 107.80196541 -36.29227206 107.93230098 -39.125 108.0625 C-41.04298834 108.15388669 -42.96095742 108.2456784 -44.87890625 108.33789062 C-49.58572681 108.56329754 -54.29277969 108.78310796 -59 109 C-59 109.66 -59 110.32 -59 111 C-58.34 111.4125 -57.68 111.825 -57 112.25 C-55 114 -55 114 -54.5 116.9375 C-55 120 -55 120 -56.375 122.375 C-60.95332703 125.20920245 -65.96459362 124.5049762 -71.13671875 123.64453125 C-74.80143153 122.74563944 -75.84621078 122.23068383 -78 119 C-78.3359375 116.625 -78.3359375 116.625 -78.375 114 C-78.40335938 113.13375 -78.43171875 112.2675 -78.4609375 111.375 C-77.85007657 108.22751317 -76.56817632 107.79582809 -74 106 C-72.68373295 103.75778328 -72.68373295 103.75778328 -71.75 101.3125 C-71.24726563 100.10013672 -71.24726563 100.10013672 -70.734375 98.86328125 C-70.49203125 98.24839844 -70.2496875 97.63351562 -70 97 C-70.66386719 96.42894531 -71.32773438 95.85789062 -72.01171875 95.26953125 C-79.01371534 88.83996066 -82.4211822 83.10416648 -85 74 C-85.32871094 72.8965625 -85.65742188 71.793125 -85.99609375 70.65625 C-89.21143588 58.19501293 -89.2175986 44.53734902 -83 33 C-82.46375 31.906875 -81.9275 30.81375 -81.375 29.6875 C-77.9170675 25.77457638 -73.75058284 24.02027868 -69 22 C-67.72382813 21.43925781 -67.72382813 21.43925781 -66.421875 20.8671875 C-63.22309859 19.72181917 -60.36833257 19.86790853 -57 20 C-57.33 20.99 -57.66 21.98 -58 23 C-60.984375 24.0625 -60.984375 24.0625 -64.75 25 C-72.61683213 26.86746403 -72.61683213 26.86746403 -78.51171875 32.05078125 C-79.09373047 33.17033203 -79.09373047 33.17033203 -79.6875 34.3125 C-80.08324219 35.05113281 -80.47898438 35.78976563 -80.88671875 36.55078125 C-87.28348925 50.62367634 -84.88651803 64.32150871 -79.79296875 78.31640625 C-76.69555959 85.54369428 -73.61885756 91.2753238 -66.02832031 94.37548828 C-62.42467726 95.48503558 -58.81012373 95.5751034 -55.0625 95.6875 C-54.28326172 95.72166016 -53.50402344 95.75582031 -52.70117188 95.79101562 C-50.80125607 95.8726071 -48.90065597 95.93799885 -47 96 C-47 97.32 -47 98.64 -47 100 C-47.55985596 99.98428955 -48.11971191 99.9685791 -48.6965332 99.95239258 C-51.2350859 99.89000152 -53.77347729 99.85099782 -56.3125 99.8125 C-57.19357422 99.78736328 -58.07464844 99.76222656 -58.98242188 99.73632812 C-59.82998047 99.72666016 -60.67753906 99.71699219 -61.55078125 99.70703125 C-62.33106689 99.6913208 -63.11135254 99.67561035 -63.9152832 99.65942383 C-66.57540135 100.09400221 -67.37113602 100.88510646 -69 103 C-69.495 104.19625 -69.99 105.3925 -70.5 106.625 C-70.995 107.73875 -71.49 108.8525 -72 110 C-73.485 110.495 -73.485 110.495 -75 111 C-75.25015873 114.41642759 -75.25015873 114.41642759 -75 118 C-70.12206417 121.25195722 -65.77608621 121.11325659 -60 121 C-59.34 119.35 -58.68 117.7 -58 116 C-59.98 115.34 -61.96 114.68 -64 114 C-62.25 107.25 -62.25 107.25 -60 105 C-57.00397025 104.69513686 -54.08649318 104.50760045 -51.08203125 104.40234375 C-50.19142502 104.36315323 -49.30081879 104.32396271 -48.38322449 104.28358459 C-45.52661306 104.15927276 -42.66968578 104.04775206 -39.8125 103.9375 C-36.97330311 103.82161933 -34.13426163 103.7030012 -31.29533386 103.58070374 C-29.52802191 103.50523824 -27.760533 103.43377668 -25.99287415 103.3669281 C-21.26421005 103.17222752 -16.68622484 102.70473496 -12 102 C-8.31318127 102.31078968 -4.94527487 102.90348115 -2.4375 105.8125 C-1.90387016 108.48064918 -2.27665605 110.39596178 -3 113 C-3.99 113 -4.98 113 -6 113 C-5.67 114.65 -5.34 116.3 -5 118 C-1.29522166 119.23492611 2.1453282 119.43432922 6 119 C8.5404226 117.93190172 8.5404226 117.93190172 10 116 C10 114.68 10 113.36 10 112 C8.35 111.67 6.7 111.34 5 111 C4.938125 109.906875 4.87625 108.81375 4.8125 107.6875 C4.37830854 103.98186636 4.37830854 103.98186636 2 102.25 C-1.93493209 100.61044496 -5.92636775 99.25137723 -10 98 C-10 97.34 -10 96.68 -10 96 C-8.78755615 95.97494385 -7.5751123 95.9498877 -6.32592773 95.92407227 C-0.69638146 95.80675934 4.9330725 95.68537081 10.5625 95.5625 C11.57817047 95.54043488 12.59384094 95.51836975 13.64028931 95.49563599 C24.49599371 95.25699585 35.34335037 95.01131973 46.1875 94.4375 C60.77437556 93.67517943 75.39837198 93.9130298 90 94 C90 94.66 90 95.32 90 96 C88.80761719 96.06058594 87.61523438 96.12117188 86.38671875 96.18359375 C84.82030075 96.26801149 83.25389512 96.35265887 81.6875 96.4375 C80.90181641 96.47681641 80.11613281 96.51613281 79.30664062 96.55664062 C78.54931641 96.59853516 77.79199219 96.64042969 77.01171875 96.68359375 C76.31522217 96.72025146 75.61872559 96.75690918 74.90112305 96.79467773 C72.7783428 96.95581153 72.7783428 96.95581153 70 98 C69.31122719 99.73833138 68.6241099 101.47738171 67.953125 103.22265625 C66.39592242 106.12645613 63.76691832 107.35162313 61 109 C58.68432616 112.47351075 58.40412423 113.91399472 59 118 C60.9254644 120.2236068 60.9254644 120.2236068 64 121 C68.01379668 120.60859726 71.11898875 119.88101125 74 117 C73.64676787 114.38608224 72.98039362 111.92513926 72.3125 109.375 C72 107 72 107 74 104 C78.13818562 102.69548984 82.44581869 102.82292428 86.75 102.796875 C87.85359863 102.78832489 87.85359863 102.78832489 88.97949219 102.77960205 C90.52928241 102.7701912 92.07909228 102.76363371 93.62890625 102.75976562 C95.9925416 102.75003072 98.35531723 102.71896 100.71875 102.6875 C102.22916154 102.68097165 103.73957925 102.67572052 105.25 102.671875 C105.9522168 102.6595282 106.65443359 102.6471814 107.37792969 102.63446045 C111.76849656 102.65429895 114.4561788 103.39879403 118 106 C117.11811024 112.5511811 117.11811024 112.5511811 116.375 115.375 C116.25125 115.91125 116.1275 116.4475 116 117 C117.13312756 118.35860893 117.13312756 118.35860893 120.125 118.1328125 C121.40375 118.13023437 122.6825 118.12765625 124 118.125 C125.27875 118.12757813 126.5575 118.13015625 127.875 118.1328125 C130.86687244 118.35860893 130.86687244 118.35860893 132 117 C132.07148199 115.64756083 132.08399454 114.29165633 132.0625 112.9375 C132.0315625 110.9884375 132.0315625 110.9884375 132 109 C130.02 109 128.04 109 126 109 C125.49384702 107.73160474 124.99530901 106.46016898 124.5 105.1875 C124.08234375 104.12595703 124.08234375 104.12595703 123.65625 103.04296875 C123 101 123 101 123 98 C122.21753906 97.81824219 121.43507813 97.63648438 120.62890625 97.44921875 C119.61699219 97.19785156 118.60507812 96.94648438 117.5625 96.6875 C116.55316406 96.44386719 115.54382813 96.20023437 114.50390625 95.94921875 C113.67761719 95.63597656 112.85132813 95.32273437 112 95 C111.67 94.01 111.34 93.02 111 92 C111.7734375 92.02320313 112.546875 92.04640625 113.34375 92.0703125 C127.31276392 92.31234987 139.06367163 88.43044142 149.5078125 78.6796875 C151.33760286 76.61997584 152.350532 74.67905549 153 72 C152.38125 72.185625 151.7625 72.37125 151.125 72.5625 C149 73 149 73 147 72 C146.67 73.65 146.34 75.3 146 77 C145.34 77 144.68 77 144 77 C144 73.7 144 70.4 144 67 C143.34 66.67 142.68 66.34 142 66 C142 61.05 142 56.1 142 51 C141.01 51.33 140.02 51.66 139 52 C139.375 49.5625 139.375 49.5625 140 47 C140.66 46.67 141.32 46.34 142 46 C142.53417154 42.63471927 143 39.40372484 143 36 C145.31 36.33 147.62 36.66 150 37 C146.40923335 31.1650042 143.32649463 28.52820145 137 26 C136.0925 25.63519531 135.185 25.27039063 134.25 24.89453125 C133.5075 24.59933594 132.765 24.30414063 132 24 C131.93941406 23.15695313 131.87882813 22.31390625 131.81640625 21.4453125 C131.73261719 20.34960938 131.64882813 19.25390625 131.5625 18.125 C131.48128906 17.03445312 131.40007812 15.94390625 131.31640625 14.8203125 C131.16998297 12.05271029 131.16998297 12.05271029 130 10 C128.02 10 126.04 10 124 10 C123.67 14.29 123.34 18.58 123 23 C121.35 22.67 119.7 22.34 118 22 C115.6663101 21.91867572 113.33044685 21.89245403 110.99536133 21.90234375 C110.30797379 21.90380402 109.62058624 21.90526428 108.91236877 21.9067688 C107.42013136 21.91056695 105.92789842 21.91667524 104.43567848 21.92483521 C102.03577912 21.93774888 99.63593619 21.94415714 97.23600769 21.94897461 C91.24859766 21.9622707 85.2612381 21.98590423 79.27386475 22.01037598 C61.23959343 22.08308951 43.20771625 22.14253295 25.17767906 21.68161011 C23.71165472 21.64436834 22.24555718 21.60988775 20.77939796 21.57839966 C18.75983776 21.53330134 16.74061047 21.47397825 14.72143555 21.4140625 C13.58707565 21.3826416 12.45271576 21.3512207 11.28398132 21.31884766 C7.61265065 20.96239155 4.51001707 20.11015626 1 19 C1.02320313 18.25234375 1.04640625 17.5046875 1.0703125 16.734375 C1.08835937 15.74953125 1.10640625 14.7646875 1.125 13.75 C1.14820313 12.77546875 1.17140625 11.8009375 1.1953125 10.796875 C0.99862781 7.9803502 0.44568916 6.39050964 -1 4 C-3.87450983 3.74951364 -3.87450983 3.74951364 -7 4 C-11.19112459 7.62191461 -11.19112459 7.62191461 -12 18 C-21.9 18.33 -31.8 18.66 -42 19 C-42.66 15.04 -43.32 11.08 -44 7 C-46.28705831 5.85647084 -47.59264762 5.89665561 -50.125 5.9375 C-52.043125 5.9684375 -52.043125 5.9684375 -54 6 C-55.75747614 10.50353262 -56.19294408 14.17639811 -56 19 C-56.99 18.67 -57.98 18.34 -59 18 C-59.49196648 12.09640219 -58.31411786 7.95908147 -55 3 C-51.86967764 1.43483882 -48.40926916 1.459663 -45 2 C-42.04080924 3.57505315 -41.16446139 4.46394896 -40.171875 7.69921875 C-40.03265625 8.68535156 -39.8934375 9.67148438 -39.75 10.6875 C-39.60046875 11.68136719 -39.4509375 12.67523438 -39.296875 13.69921875 C-39.14992188 14.83810547 -39.14992188 14.83810547 -39 16 C-38.11699219 15.9278125 -37.23398438 15.855625 -36.32421875 15.78125 C-28.86283421 15.20421489 -21.48302669 14.86255665 -14 15 C-13.99742187 14.33613281 -13.99484375 13.67226562 -13.9921875 12.98828125 C-13.63653877 4.86763531 -13.63653877 4.86763531 -10.375 1.875 C-6.48650774 -0.28527348 -4.3791549 -0.66100451 0 0 Z " fill="#0C0C0C" transform="translate(248,161)"/>
<path d="M0 0 C2.61593153 1.83115207 2.96989455 2.90968366 4 6 C4.068991 8.06145107 4.08467727 10.12501401 4.0625 12.1875 C4.05347656 13.27417969 4.04445312 14.36085937 4.03515625 15.48046875 C4.02355469 16.31191406 4.01195312 17.14335937 4 18 C15.4331541 18.02340956 26.86630228 18.04105823 38.29947567 18.05181217 C43.61119891 18.05697952 48.92290549 18.06396193 54.23461914 18.07543945 C87.13086728 18.18291415 87.13086728 18.18291415 120 17 C120.07347656 16.06027344 120.07347656 16.06027344 120.1484375 15.1015625 C120.22320312 14.28429687 120.29796875 13.46703125 120.375 12.625 C120.44460938 11.81289062 120.51421875 11.00078125 120.5859375 10.1640625 C121 8 121 8 123 6 C128.68348624 5.4587156 128.68348624 5.4587156 131 6 C134.21885105 9.07187155 134.45257949 11.92746256 134.6875 16.25 C134.75324219 17.32765625 134.81898438 18.4053125 134.88671875 19.515625 C134.94279297 20.74539062 134.94279297 20.74539062 135 22 C135.87011719 22.23783203 135.87011719 22.23783203 136.7578125 22.48046875 C142.27475562 24.12826859 145.95745989 25.85886135 150 30 C150.71162443 31.64797236 151.39031953 33.31165408 152 35 C152.99 35.33 153.98 35.66 155 36 C156.70974964 39.17611855 157.80463098 42.60130248 159 46 C159.433125 47.175625 159.86625 48.35125 160.3125 49.5625 C161.20078844 54.00394221 160.84030924 57.57954971 160 62 C159.83628906 62.86882812 159.67257812 63.73765625 159.50390625 64.6328125 C157.63990208 72.76033378 153.93441474 81.68200005 146.8125 86.5625 C145.884375 87.036875 144.95625 87.51125 144 88 C143.21625 88.4125 142.4325 88.825 141.625 89.25 C141.08875 89.4975 140.5525 89.745 140 90 C141.91125774 85.30873101 145.5149033 82.3578027 149.1875 79 C151.19274447 76.78731645 152.06170175 74.81489475 153 72 C152.38125 72.185625 151.7625 72.37125 151.125 72.5625 C149 73 149 73 147 72 C146.67 73.65 146.34 75.3 146 77 C145.34 77 144.68 77 144 77 C144 73.7 144 70.4 144 67 C143.34 66.67 142.68 66.34 142 66 C142 61.05 142 56.1 142 51 C141.01 51.33 140.02 51.66 139 52 C139.375 49.5625 139.375 49.5625 140 47 C140.66 46.67 141.32 46.34 142 46 C142.53417154 42.63471927 143 39.40372484 143 36 C145.31 36.33 147.62 36.66 150 37 C146.40923335 31.1650042 143.32649463 28.52820145 137 26 C136.0925 25.63519531 135.185 25.27039063 134.25 24.89453125 C133.5075 24.59933594 132.765 24.30414063 132 24 C131.93941406 23.15695313 131.87882813 22.31390625 131.81640625 21.4453125 C131.73261719 20.34960938 131.64882813 19.25390625 131.5625 18.125 C131.48128906 17.03445312 131.40007812 15.94390625 131.31640625 14.8203125 C131.16998297 12.05271029 131.16998297 12.05271029 130 10 C128.02 10 126.04 10 124 10 C123.67 14.29 123.34 18.58 123 23 C121.35 22.67 119.7 22.34 118 22 C115.6663101 21.91867572 113.33044685 21.89245403 110.99536133 21.90234375 C110.30797379 21.90380402 109.62058624 21.90526428 108.91236877 21.9067688 C107.42013136 21.91056695 105.92789842 21.91667524 104.43567848 21.92483521 C102.03577912 21.93774888 99.63593619 21.94415714 97.23600769 21.94897461 C91.24859766 21.9622707 85.2612381 21.98590423 79.27386475 22.01037598 C61.23959343 22.08308951 43.20771625 22.14253295 25.17767906 21.68161011 C23.71165472 21.64436834 22.24555718 21.60988775 20.77939796 21.57839966 C18.75983776 21.53330134 16.74061047 21.47397825 14.72143555 21.4140625 C13.58707565 21.3826416 12.45271576 21.3512207 11.28398132 21.31884766 C7.61265065 20.96239155 4.51001707 20.11015626 1 19 C1.02320313 18.25234375 1.04640625 17.5046875 1.0703125 16.734375 C1.08835938 15.74953125 1.10640625 14.7646875 1.125 13.75 C1.14820313 12.77546875 1.17140625 11.8009375 1.1953125 10.796875 C0.99862781 7.9803502 0.44568916 6.39050964 -1 4 C-3.87450983 3.74951364 -3.87450983 3.74951364 -7 4 C-11.19112459 7.62191461 -11.19112459 7.62191461 -12 18 C-21.9 18.33 -31.8 18.66 -42 19 C-42.66 15.04 -43.32 11.08 -44 7 C-46.28705831 5.85647084 -47.59264762 5.89665561 -50.125 5.9375 C-51.40375 5.958125 -52.6825 5.97875 -54 6 C-55.75747614 10.50353262 -56.19294408 14.17639811 -56 19 C-56.99 18.67 -57.98 18.34 -59 18 C-59.49196648 12.09640219 -58.31411786 7.95908147 -55 3 C-51.86967764 1.43483882 -48.40926916 1.459663 -45 2 C-42.04080924 3.57505315 -41.16446139 4.46394896 -40.171875 7.69921875 C-40.03265625 8.68535156 -39.8934375 9.67148438 -39.75 10.6875 C-39.60046875 11.68136719 -39.4509375 12.67523438 -39.296875 13.69921875 C-39.14992187 14.83810547 -39.14992187 14.83810547 -39 16 C-38.11699219 15.9278125 -37.23398438 15.855625 -36.32421875 15.78125 C-28.86283421 15.20421489 -21.48302669 14.86255665 -14 15 C-13.99742187 14.33613281 -13.99484375 13.67226562 -13.9921875 12.98828125 C-13.63653877 4.86763531 -13.63653877 4.86763531 -10.375 1.875 C-6.48650774 -0.28527348 -4.3791549 -0.66100451 0 0 Z " fill="#080808" transform="translate(248,161)"/>
<path d="M0 0 C2.61593153 1.83115207 2.96989455 2.90968366 4 6 C4.068991 8.06145107 4.08467727 10.12501401 4.0625 12.1875 C4.05347656 13.27417969 4.04445312 14.36085937 4.03515625 15.48046875 C4.02355469 16.31191406 4.01195312 17.14335937 4 18 C4.74233887 17.99476318 5.48467773 17.98952637 6.24951172 17.98413086 C23.86596659 17.8772907 41.39984289 18.16136623 59 19 C59 19.33 59 19.66 59 20 C77.315 20.495 77.315 20.495 96 21 C96 21.33 96 21.66 96 22 C43.41014168 22.19430727 43.41014168 22.19430727 22.0625 21.625 C21.37488586 21.60962189 20.68727173 21.59424377 19.9788208 21.57839966 C7.22153931 21.28092201 7.22153931 21.28092201 1 19 C1.02320313 18.25234375 1.04640625 17.5046875 1.0703125 16.734375 C1.08835938 15.74953125 1.10640625 14.7646875 1.125 13.75 C1.14820313 12.77546875 1.17140625 11.8009375 1.1953125 10.796875 C0.99862781 7.9803502 0.44568916 6.39050964 -1 4 C-3.87450983 3.74951364 -3.87450983 3.74951364 -7 4 C-11.19112459 7.62191461 -11.19112459 7.62191461 -12 18 C-21.9 18.33 -31.8 18.66 -42 19 C-42.66 15.04 -43.32 11.08 -44 7 C-46.28705831 5.85647084 -47.59264762 5.89665561 -50.125 5.9375 C-51.40375 5.958125 -52.6825 5.97875 -54 6 C-55.75747614 10.50353262 -56.19294408 14.17639811 -56 19 C-56.99 18.67 -57.98 18.34 -59 18 C-59.49196648 12.09640219 -58.31411786 7.95908147 -55 3 C-51.86967764 1.43483882 -48.40926916 1.459663 -45 2 C-42.04080924 3.57505315 -41.16446139 4.46394896 -40.171875 7.69921875 C-40.03265625 8.68535156 -39.8934375 9.67148438 -39.75 10.6875 C-39.60046875 11.68136719 -39.4509375 12.67523438 -39.296875 13.69921875 C-39.14992187 14.83810547 -39.14992187 14.83810547 -39 16 C-38.11699219 15.9278125 -37.23398438 15.855625 -36.32421875 15.78125 C-28.86283421 15.20421489 -21.48302669 14.86255665 -14 15 C-13.99742187 14.33613281 -13.99484375 13.67226562 -13.9921875 12.98828125 C-13.63653877 4.86763531 -13.63653877 4.86763531 -10.375 1.875 C-6.48650774 -0.28527348 -4.3791549 -0.66100451 0 0 Z " fill="#1B1B1B" transform="translate(248,161)"/>
<path d="M0 0 C10.23 0 20.46 0 31 0 C31 0.33 31 0.66 31 1 C35.29 1.33 39.58 1.66 44 2 C44 2.33 44 2.66 44 3 C34.43 3.33 24.86 3.66 15 4 C15.66 4.66 16.32 5.32 17 6 C17.433125 7.423125 17.433125 7.423125 17.875 8.875 C18.76164023 12.07822177 18.76164023 12.07822177 21.125 14 C23 16 23 16 23.625 18.9375 C22.92412101 22.37180703 21.81761531 23.99966002 18.98046875 26.08203125 C15.06495144 27.896916 11.18418571 27.7240521 7 27 C3.875 25.5625 3.875 25.5625 2 23 C1.60664009 19.95277188 1.70646876 17.05272491 2 14 C2.99 14 3.98 14 5 14 C4.34 12.68 3.68 11.36 3 10 C1.37509046 9.97301811 -0.24994633 9.95361243 -1.875 9.9375 C-2.77992188 9.92589844 -3.68484375 9.91429687 -4.6171875 9.90234375 C-7.0168585 9.83750743 -7.0168585 9.83750743 -9 11 C-11.55157655 11.0716735 -14.07472971 11.09308442 -16.625 11.0625 C-17.33140625 11.05798828 -18.0378125 11.05347656 -18.765625 11.04882812 C-20.51045275 11.03703875 -22.255237 11.01910324 -24 11 C-23.67 10.01 -23.34 9.02 -23 8 C-22.07058594 7.93941406 -21.14117187 7.87882812 -20.18359375 7.81640625 C-12.62301764 7.33658281 -12.62301764 7.33658281 -5.125 6.3125 C-0.8435216 5.88435216 1.93327145 6.55252035 6 8 C7.5625 9.8125 7.5625 9.8125 8 12 C7.625 14.75 7.625 14.75 7 17 C6.01 17 5.02 17 4 17 C4.33 18.65 4.66 20.3 5 22 C8.70477834 23.23492611 12.1453282 23.43432922 16 23 C18.5404226 21.93190172 18.5404226 21.93190172 20 20 C20 18.68 20 17.36 20 16 C17.525 15.505 17.525 15.505 15 15 C14.938125 13.906875 14.87625 12.81375 14.8125 11.6875 C14.37830854 7.98186636 14.37830854 7.98186636 12 6.25 C8.06506791 4.61044496 4.07363225 3.25137723 0 2 C0 1.34 0 0.68 0 0 Z " fill="#151515" transform="translate(238,257)"/>
<path d="M0 0 C7.37953046 2.79225477 7.37953046 2.79225477 8.94921875 5.84765625 C10.7171597 11.1514791 12.27738458 16.42411495 11 22 C8.66577595 25.91973472 6.36024431 28.54658523 2 30 C-1.02201236 24.38769133 -2.27800652 19.3854863 -2.25 13 C-2.25515625 11.824375 -2.2603125 10.64875 -2.265625 9.4375 C-1.99850304 5.98062755 -1.23880483 3.22482527 0 0 Z " fill="#656565" transform="translate(395,201)"/>
<path d="M0 0 C2.95919076 1.57505315 3.83553861 2.46394896 4.828125 5.69921875 C4.96734375 6.68535156 5.1065625 7.67148438 5.25 8.6875 C5.39953125 9.68136719 5.5490625 10.67523438 5.703125 11.69921875 C5.85007813 12.83810547 5.85007813 12.83810547 6 14 C6.88300781 13.9278125 7.76601562 13.855625 8.67578125 13.78125 C16.13716579 13.20421489 23.51697331 12.86255665 31 13 C31.33 11.35 31.66 9.7 32 8 C32.33 8 32.66 8 33 8 C33 10.64 33 13.28 33 16 C23.1 16.33 13.2 16.66 3 17 C2.34 13.04 1.68 9.08 1 5 C-1.28705831 3.85647084 -2.59264762 3.89665561 -5.125 3.9375 C-6.40375 3.958125 -7.6825 3.97875 -9 4 C-10.75747614 8.50353262 -11.19294408 12.17639811 -11 17 C-11.99 16.67 -12.98 16.34 -14 16 C-14.49196648 10.09640219 -13.31411786 5.95908147 -10 1 C-6.86967764 -0.56516118 -3.40926916 -0.540337 0 0 Z " fill="#090909" transform="translate(203,163)"/>
<path d="M0 0 C0.33 0.99 0.66 1.98 1 3 C-0.051875 3.103125 -1.10375 3.20625 -2.1875 3.3125 C-5.91274033 3.98426465 -8.02032107 4.72142199 -11 7 C-11.89816754 9.69450262 -12.25217363 11.63611405 -12.375 14.4375 C-12.42398438 15.19933594 -12.47296875 15.96117187 -12.5234375 16.74609375 C-12.15153342 19.20887173 -12.15153342 19.20887173 -9.9296875 21.1875 C-6.50387041 23.30693884 -3.71195962 23.90355483 0.25 24.5625 C4.015625 25.19140625 4.015625 25.19140625 7 26 C7.33 26.99 7.66 27.98 8 29 C-7.39411971 27.18515926 -7.39411971 27.18515926 -13 24 C-15.37310654 20.44034019 -15.26915041 18.78037776 -15.25 14.5625 C-15.25515625 13.42941406 -15.2603125 12.29632813 -15.265625 11.12890625 C-15.00876186 8.10320956 -14.69980507 6.47701858 -13 4 C-8.4549309 0.8534137 -5.65444353 -0.55165303 0 0 Z " fill="#090909" transform="translate(203,201)"/>
<path d="M0 0 C12.87 0.495 12.87 0.495 26 1 C26 1.66 26 2.32 26 3 C22.04168191 3.02892857 18.08339083 3.04677427 14.125 3.0625 C12.43310547 3.07506836 12.43310547 3.07506836 10.70703125 3.08789062 C9.63066406 3.09111328 8.55429688 3.09433594 7.4453125 3.09765625 C6.45031738 3.10289307 5.45532227 3.10812988 4.43017578 3.11352539 C2 3 2 3 0 2 C0 1.34 0 0.68 0 0 Z " fill="#060606" transform="translate(192,235)"/>
<path d="M0 0 C0.66 0 1.32 0 2 0 C2.25 5.625 2.25 5.625 0 9 C-3.5 9.3125 -3.5 9.3125 -7 9 C-7.66 8.34 -8.32 7.68 -9 7 C-9 5.68 -9 4.36 -9 3 C-8.01 3.33 -7.02 3.66 -6 4 C-6 4.66 -6 5.32 -6 6 C-4.35 5.67 -2.7 5.34 -1 5 C-0.67 3.35 -0.34 1.7 0 0 Z " fill="#090909" transform="translate(330,185)"/>
<path d="M0 0 C0.66 0 1.32 0 2 0 C2 1.32 2 2.64 2 4 C3.98 4 5.96 4 8 4 C8 2.68 8 1.36 8 0 C8.66 0 9.32 0 10 0 C10.04254356 1.99954746 10.04080783 4.00041636 10 6 C9 7 9 7 6.93359375 7.09765625 C6.10988281 7.08605469 5.28617187 7.07445312 4.4375 7.0625 C3.61121094 7.05347656 2.78492188 7.04445312 1.93359375 7.03515625 C1.29550781 7.02355469 0.65742188 7.01195312 0 7 C0 4.69 0 2.38 0 0 Z " fill="#0B0B0B" transform="translate(254,202)"/>
<path d="M0 0 C0.66 0 1.32 0 2 0 C2 1.65 2 3.3 2 5 C5.12197478 3.6910428 5.12197478 3.6910428 7 1 C7.66 1 8.32 1 9 1 C8.75 3.375 8.75 3.375 8 6 C5.09557968 8.17831524 2.54875053 8.19715281 -1 8 C-0.67 5.36 -0.34 2.72 0 0 Z " fill="#070707" transform="translate(268,233)"/>
<path d="M0 0 C0.66 0 1.32 0 2 0 C2.125 3.375 2.125 3.375 2 7 C0 9 0 9 -2.5625 9.1875 C-5 9 -5 9 -6 8 C-6.04080783 6.00041636 -6.04254356 3.99954746 -6 2 C-5.34 2 -4.68 2 -4 2 C-4 3.32 -4 4.64 -4 6 C-3.01 5.67 -2.02 5.34 -1 5 C-0.67 3.35 -0.34 1.7 0 0 Z " fill="#0C0C0C" transform="translate(176,230)"/>
<path d="M0 0 C0.66 0 1.32 0 2 0 C1.5020163 3.73487777 1.12508244 5.81237635 -1 9 C-2.65 8.67 -4.3 8.34 -6 8 C-6.33 6.35 -6.66 4.7 -7 3 C-6.01 3 -5.02 3 -4 3 C-4 3.99 -4 4.98 -4 6 C-1.7522025 3.94766315 -0.9977758 2.99332739 0 0 Z " fill="#050505" transform="translate(383,232)"/>
<path d="M0 0 C0.66 0 1.32 0 2 0 C1.34 2.31 0.68 4.62 0 7 C-1.9914056 7.38133299 -3.99279077 7.71325582 -6 8 C-7 7 -7 7 -7.0625 3.9375 C-7.041875 2.968125 -7.02125 1.99875 -7 1 C-6.34 1 -5.68 1 -5 1 C-5 2.32 -5 3.64 -5 5 C-1.88667752 4.33131686 -1.88667752 4.33131686 -0.8125 1.9375 C-0.544375 1.298125 -0.27625 0.65875 0 0 Z " fill="#0A0A0A" transform="translate(351,248)"/>
<path d="M0 0 C0.33 0 0.66 0 1 0 C1 2.64 1 5.28 1 8 C-2.96 7.67 -6.92 7.34 -11 7 C-10.67 6.34 -10.34 5.68 -10 5 C-7.03 5 -4.06 5 -1 5 C-0.67 3.35 -0.34 1.7 0 0 Z " fill="#020202" transform="translate(235,171)"/>
<path d="M0 0 C1.134375 0.020625 2.26875 0.04125 3.4375 0.0625 C3.1075 1.0525 2.7775 2.0425 2.4375 3.0625 C0.37109375 3.79296875 0.37109375 3.79296875 -2.125 4.25 C-2.95128906 4.40855469 -3.77757812 4.56710938 -4.62890625 4.73046875 C-5.58603516 4.89482422 -5.58603516 4.89482422 -6.5625 5.0625 C-4.14811644 0.07277397 -4.14811644 0.07277397 0 0 Z " fill="#171717" transform="translate(187.5625,180.9375)"/>
<path d="M0 0 C1.32 0 2.64 0 4 0 C3.67 1.65 3.34 3.3 3 5 C2.01 5 1.02 5 0 5 C0 3.35 0 1.7 0 0 Z " fill="#020202" transform="translate(181,199)"/>
<path d="M0 0 C1.65 0 3.3 0 5 0 C4.34 1.32 3.68 2.64 3 4 C2.01 4 1.02 4 0 4 C0 2.68 0 1.36 0 0 Z " fill="#060606" transform="translate(224,199)"/>
</svg>
