<?xml version="1.0" encoding="UTF-8"?>
<svg version="1.1" xmlns="http://www.w3.org/2000/svg" width="800" height="300">
<path d="M0 0 C264 0 528 0 800 0 C800 99 800 198 800 300 C536 300 272 300 0 300 C0 201 0 102 0 0 Z " fill="#FEFEFE" transform="translate(0,0)"/>
<path d="M0 0 C8.08108108 1.05405405 8.08108108 1.05405405 11.125 4.1875 C13 7 13 7 14 13 C26.375 12.505 26.375 12.505 39 12 C39.99 9.03 40.98 6.06 42 3 C42.66 2.01 43.32 1.02 44 0 C49.45473727 -0.99327538 55.34155698 -0.98016153 60.1875 1.9375 C62.96456588 4.26969611 63.51115435 6.25587974 63.9375 9.8125 C63.96841334 11.20814648 63.99086 12.60404112 64 14 C65.55799316 13.99129883 65.55799316 13.99129883 67.14746094 13.98242188 C76.4860081 13.94662406 85.79780692 14.1033675 95.13082886 14.42779541 C108.89978595 14.89693256 122.6607668 15.11002455 136.4375 15.125 C137.24489624 15.12749756 138.05229248 15.12999512 138.88415527 15.13256836 C141.17151262 15.13842347 143.45873516 15.13699902 145.74609375 15.1328125 C147.05247803 15.13168457 148.3588623 15.13055664 149.70483398 15.12939453 C152.40584333 15.02333134 154.43046844 14.68403344 157 14 C160.99687025 13.77307845 164.99733351 13.81483528 169 13.8125 C170.07378906 13.80025391 171.14757812 13.78800781 172.25390625 13.77539062 C178.91767612 13.76336216 184.95579923 14.3872651 191.44140625 15.9597168 C194.16569941 16.29038801 194.16569941 16.29038801 196.17871094 14.07055664 C196.77973633 13.38727295 197.38076172 12.70398926 198 12 C200.578125 11.609375 200.578125 11.609375 203.25 11.75 C204.14203125 11.78609375 205.0340625 11.8221875 205.953125 11.859375 C206.96632813 11.92898437 206.96632813 11.92898437 208 12 C209.61930707 16.56350173 208.27853 19.41720691 206.3984375 23.62109375 C205.67795749 27.9227832 208.44159874 31.07884172 210.60546875 34.6484375 C215.91625645 43.80135063 216.86092523 52.86195829 214.19140625 63.1015625 C212.64931617 67.16980015 210.84755744 70.68158661 208 74 C207.34 74 206.68 74 206 74 C205.67 74.99 205.34 75.98 205 77 C202.81044722 78.45578844 200.67430184 79.7441185 198.375 81 C197.77042969 81.34289062 197.16585937 81.68578125 196.54296875 82.0390625 C192.46691965 84.31608779 188.304659 86.18313028 184 88 C180.8409567 89.56618432 177.70798704 91.17693517 174.57421875 92.79296875 C172 94 172 94 170 94 C170.39426385 99.71682581 170.88831732 103.68273319 175 108 C177.29939768 108.71518337 179.56237149 109.12497777 181.93359375 109.53515625 C184 110 184 110 186.125 111.5625 C187.52617767 115.46578064 186.9444268 119.01636517 186 123 C183.79452055 127.60273973 183.79452055 127.60273973 181 129 C178.87960174 129.17431846 176.75206692 129.26709071 174.625 129.3125 C172.91183594 129.36857422 172.91183594 129.36857422 171.1640625 129.42578125 C168 129 168 129 165.58203125 127.25390625 C163.75035706 124.64433586 163.6763958 123.72470974 164.0625 120.625 C164.24410208 116.78630766 164.17184896 116.23390553 161.75 112.9375 C161.07130859 112.24720703 161.07130859 112.24720703 160.37890625 111.54296875 C157.6904544 108.53464444 155 104.10584675 155 100 C154.35933594 100.20496094 153.71867188 100.40992188 153.05859375 100.62109375 C149.09854117 101.85455275 145.37187136 102.95041715 141.25 103.5 C137.67487086 104.05001987 135.19937106 105.3647659 132 107 C130.68 107 129.36 107 128 107 C127.6596875 108.0828125 127.6596875 108.0828125 127.3125 109.1875 C125.66099387 112.7264417 124.11841749 114.62729104 121 117 C117.98395537 117.69554906 116.18311337 117.45473048 113 117 C109.21269327 114.40868487 107.91988299 111.43216352 107 107 C107.12328767 98.87671233 107.12328767 98.87671233 110 96 C114.13997567 95.8028583 117.07703567 95.69234522 121 97 C126.33295432 97.343491 126.33295432 97.343491 131 95 C131.99 95 132.98 95 134 95 C134 94.34 134 93.68 134 93 C133.40348633 93.06566162 132.80697266 93.13132324 132.19238281 93.19897461 C121.07118369 94.27838511 109.91403749 94.34837841 98.75 94.5625 C96.63671171 94.60577719 94.52343034 94.64939412 92.41015625 94.69335938 C87.27350905 94.79949206 82.1367898 94.90101973 77 95 C77.020625 96.2478125 77.04125 97.495625 77.0625 98.78125 C77.12456179 102.53598841 76.40450563 105.48873592 75 109 C74.34 109 73.68 109 73 109 C72.505 110.485 72.505 110.485 72 112 C68.89043581 114.56081757 67.38616355 115.01309029 63.3125 114.875 C60 114 60 114 58 111 C57.61500109 109.34450469 57.27206865 107.6777567 57 106 C54.1685963 105.18022393 51.33517098 104.36905726 48.5 103.5625 C47.70851563 103.33240234 46.91703125 103.10230469 46.1015625 102.86523438 C41.0598354 101.43950007 36.21491823 100.52029574 31 100 C32.42673359 102.88634122 33.90494836 105.54445319 36 108 C39.55652459 108.90137027 39.55652459 108.90137027 43 109 C44.875 110.0625 44.875 110.0625 46 112 C47.31966126 117.03120854 47.64086406 118.82508256 45.125 123.4375 C42.20137358 126.42627687 39.29124439 126.91672162 35.2109375 127.11328125 C32.1833545 126.95815774 29.7652099 126.22183693 27 125 C25.8553125 124.5359375 25.8553125 124.5359375 24.6875 124.0625 C23 123 23 123 22 120 C21.96045766 117.66700175 21.95598268 115.33291811 22 113 C22.66 113 23.32 113 24 113 C23.39671875 112.14277344 22.7934375 111.28554688 22.171875 110.40234375 C21.36403447 109.24777968 20.5567801 108.09280533 19.75 106.9375 C19.33395508 106.34348389 18.91791016 105.74946777 18.48925781 105.13745117 C16.3839547 102.10350865 14.43241599 99.10723132 12.75 95.8125 C10.64926259 92.43631488 9.73782641 92.13406162 6 91 C4.12852762 90.78290116 2.25588878 90.56948817 0.37792969 90.41845703 C-9.79544399 89.58871379 -16.89046453 86.5643032 -24 79 C-31.9392365 67.24992998 -32.54691748 53.01762423 -30.43359375 39.33203125 C-28.52881933 31.30405529 -25.95890101 26.14113719 -19.19140625 21.29296875 C-14.66346714 18.62140396 -10.24626376 18 -5 18 C-5.268125 17.05125 -5.53625 16.1025 -5.8125 15.125 C-6.63552328 9.76986185 -3.67819186 5.45228073 -1 1 C-0.67 0.67 -0.34 0.34 0 0 Z " fill="#FDFDFD" transform="translate(291,155)"/>
<path d="M0 0 C8.08108108 1.05405405 8.08108108 1.05405405 11.125 4.1875 C13 7 13 7 14 13 C26.375 12.505 26.375 12.505 39 12 C39.99 9.03 40.98 6.06 42 3 C42.66 2.01 43.32 1.02 44 0 C49.45473727 -0.99327538 55.34155698 -0.98016153 60.1875 1.9375 C62.96456588 4.26969611 63.51115435 6.25587974 63.9375 9.8125 C63.96841334 11.20814648 63.99086 12.60404112 64 14 C65.55799316 13.99129883 65.55799316 13.99129883 67.14746094 13.98242188 C76.4860081 13.94662406 85.79780692 14.1033675 95.13082886 14.42779541 C108.89978595 14.89693256 122.6607668 15.11002455 136.4375 15.125 C137.24489624 15.12749756 138.05229248 15.12999512 138.88415527 15.13256836 C141.17151262 15.13842347 143.45873516 15.13699902 145.74609375 15.1328125 C147.05247803 15.13168457 148.3588623 15.13055664 149.70483398 15.12939453 C152.40584333 15.02333134 154.43046844 14.68403344 157 14 C160.99687025 13.77307845 164.99733351 13.81483528 169 13.8125 C170.07378906 13.80025391 171.14757812 13.78800781 172.25390625 13.77539062 C178.91767612 13.76336216 184.95579923 14.3872651 191.44140625 15.9597168 C194.16569941 16.29038801 194.16569941 16.29038801 196.17871094 14.07055664 C196.77973633 13.38727295 197.38076172 12.70398926 198 12 C200.578125 11.609375 200.578125 11.609375 203.25 11.75 C204.14203125 11.78609375 205.0340625 11.8221875 205.953125 11.859375 C206.96632813 11.92898437 206.96632813 11.92898437 208 12 C209.61930707 16.56350173 208.27853 19.41720691 206.3984375 23.62109375 C205.67795749 27.9227832 208.44159874 31.07884172 210.60546875 34.6484375 C215.91625645 43.80135063 216.86092523 52.86195829 214.19140625 63.1015625 C212.64931617 67.16980015 210.84755744 70.68158661 208 74 C207.34 74 206.68 74 206 74 C205.67 74.99 205.34 75.98 205 77 C202.81044722 78.45578844 200.67430184 79.7441185 198.375 81 C197.77042969 81.34289062 197.16585937 81.68578125 196.54296875 82.0390625 C192.46691965 84.31608779 188.304659 86.18313028 184 88 C180.8409567 89.56618432 177.70798704 91.17693517 174.57421875 92.79296875 C172 94 172 94 170 94 C170.39426385 99.71682581 170.88831732 103.68273319 175 108 C177.29939768 108.71518337 179.56237149 109.12497777 181.93359375 109.53515625 C184 110 184 110 186.125 111.5625 C187.52617767 115.46578064 186.9444268 119.01636517 186 123 C183.79452055 127.60273973 183.79452055 127.60273973 181 129 C178.87960174 129.17431846 176.75206692 129.26709071 174.625 129.3125 C172.91183594 129.36857422 172.91183594 129.36857422 171.1640625 129.42578125 C168 129 168 129 165.58203125 127.25390625 C163.75035706 124.64433586 163.6763958 123.72470974 164.0625 120.625 C164.24410208 116.78630766 164.17184896 116.23390553 161.75 112.9375 C161.07130859 112.24720703 161.07130859 112.24720703 160.37890625 111.54296875 C157.6904544 108.53464444 155 104.10584675 155 100 C154.35933594 100.20496094 153.71867188 100.40992188 153.05859375 100.62109375 C149.09854117 101.85455275 145.37187136 102.95041715 141.25 103.5 C137.67487086 104.05001987 135.19937106 105.3647659 132 107 C130.68 107 129.36 107 128 107 C127.6596875 108.0828125 127.6596875 108.0828125 127.3125 109.1875 C125.66099387 112.7264417 124.11841749 114.62729104 121 117 C117.98395537 117.69554906 116.18311337 117.45473048 113 117 C109.21269327 114.40868487 107.91988299 111.43216352 107 107 C107.12328767 98.87671233 107.12328767 98.87671233 110 96 C114.13997567 95.8028583 117.07703567 95.69234522 121 97 C126.33295432 97.343491 126.33295432 97.343491 131 95 C131.99 95 132.98 95 134 95 C134 94.34 134 93.68 134 93 C133.40348633 93.06566162 132.80697266 93.13132324 132.19238281 93.19897461 C121.07118369 94.27838511 109.91403749 94.34837841 98.75 94.5625 C96.63671171 94.60577719 94.52343034 94.64939412 92.41015625 94.69335938 C87.27350905 94.79949206 82.1367898 94.90101973 77 95 C77.020625 96.2478125 77.04125 97.495625 77.0625 98.78125 C77.12456179 102.53598841 76.40450563 105.48873592 75 109 C74.34 109 73.68 109 73 109 C72.505 110.485 72.505 110.485 72 112 C68.89043581 114.56081757 67.38616355 115.01309029 63.3125 114.875 C60 114 60 114 58 111 C57.61500109 109.34450469 57.27206865 107.6777567 57 106 C54.1685963 105.18022393 51.33517098 104.36905726 48.5 103.5625 C47.70851563 103.33240234 46.91703125 103.10230469 46.1015625 102.86523438 C41.0598354 101.43950007 36.21491823 100.52029574 31 100 C32.42673359 102.88634122 33.90494836 105.54445319 36 108 C39.55652459 108.90137027 39.55652459 108.90137027 43 109 C44.875 110.0625 44.875 110.0625 46 112 C47.31966126 117.03120854 47.64086406 118.82508256 45.125 123.4375 C42.20137358 126.42627687 39.29124439 126.91672162 35.2109375 127.11328125 C32.1833545 126.95815774 29.7652099 126.22183693 27 125 C25.8553125 124.5359375 25.8553125 124.5359375 24.6875 124.0625 C23 123 23 123 22 120 C21.96045766 117.66700175 21.95598268 115.33291811 22 113 C22.66 113 23.32 113 24 113 C23.39671875 112.14277344 22.7934375 111.28554688 22.171875 110.40234375 C21.36403447 109.24777968 20.5567801 108.09280533 19.75 106.9375 C19.33395508 106.34348389 18.91791016 105.74946777 18.48925781 105.13745117 C16.3839547 102.10350865 14.43241599 99.10723132 12.75 95.8125 C10.64926259 92.43631488 9.73782641 92.13406162 6 91 C4.12852762 90.78290116 2.25588878 90.56948817 0.37792969 90.41845703 C-9.79544399 89.58871379 -16.89046453 86.5643032 -24 79 C-31.9392365 67.24992998 -32.54691748 53.01762423 -30.43359375 39.33203125 C-28.52881933 31.30405529 -25.95890101 26.14113719 -19.19140625 21.29296875 C-14.66346714 18.62140396 -10.24626376 18 -5 18 C-5.268125 17.05125 -5.53625 16.1025 -5.8125 15.125 C-6.63552328 9.76986185 -3.67819186 5.45228073 -1 1 C-0.67 0.67 -0.34 0.34 0 0 Z M1 3 C-2.05498079 8.78217394 -3.64451156 12.5589964 -2 19 C-3.258125 19.20625 -4.51625 19.4125 -5.8125 19.625 C-12.24036536 21.08957692 -19.27998998 23.60699781 -23.515625 28.890625 C-27.30105879 36.0659995 -28.37078783 43.87585214 -28.3125 51.875 C-28.30831055 52.66293945 -28.30412109 53.45087891 -28.29980469 54.26269531 C-28.11515425 63.7977298 -26.14746693 71.97989308 -19.10546875 78.84765625 C-9.24608424 87.7558571 1.00685937 88.40816149 14 88 C13.93296875 88.71027344 13.8659375 89.42054688 13.796875 90.15234375 C14.05350345 93.75007717 15.26811481 95.5688541 17.25 98.5625 C17.85328125 99.49191406 18.4565625 100.42132813 19.078125 101.37890625 C20.88712882 103.8460639 22.83642905 105.84995137 25 108 C26.06011943 109.96879323 27.07470849 111.96435867 28 114 C27.01 114.33 26.02 114.66 25 115 C25 116.65 25 118.3 25 120 C29.90360711 123.35696669 29.90360711 123.35696669 35.6875 123.875 C39.60036106 122.94685815 39.60036106 122.94685815 43 121 C43.99764302 118.29211182 44.11190099 116.5754908 43.5625 113.75 C42.7890625 112.88375 42.7890625 112.88375 42 112 C40.80375 112.020625 39.6075 112.04125 38.375 112.0625 C36.234375 111.9453125 36.234375 111.9453125 34 111 C31.52751374 107.74081357 29.59951696 104.39967195 27.6640625 100.80859375 C26.84035156 99.41833984 26.84035156 99.41833984 26 98 C25.34 98 24.68 98 24 98 C24 96.35 24 94.7 24 93 C24.33 93.66 24.66 94.32 25 95 C30.42453086 97.95883501 35.77359817 98.69716489 41.85546875 99.53125 C44.39679852 99.91008177 46.77706157 100.38851277 49.25 101.0625 C53.49427633 102.12356908 57.65087074 102.6174377 62 103 C61.67 103.66 61.34 104.32 61 105 C60.960008 106.99960012 60.95653201 109.00047242 61 111 C63.74961511 111.94607807 63.74961511 111.94607807 67 112 C71.33506056 108.55165637 73.69113162 105.47094703 74.375 100 C73.91351426 96.30811405 72.86604482 95.27597677 70 93 C67.29120665 91.64560332 64.99066732 91.93498549 62 92 C61.67 92.66 61.34 93.32 61 94 C53.7515055 94.41640288 47.83085645 93.44166784 41 91 C41 90.34 41 89.68 41 89 C41.6290625 89.2165625 42.258125 89.433125 42.90625 89.65625 C48.51445928 91.48060724 53.10968596 92.32723967 59 92 C59 91.34 59 90.68 59 90 C60.43739513 89.97287934 61.87493863 89.95354933 63.3125 89.9375 C64.51326172 89.92009766 64.51326172 89.92009766 65.73828125 89.90234375 C68 90 68 90 71 91 C73.69271286 91.09122131 76.35900425 91.12602134 79.05151367 91.11352539 C79.87125168 91.11367142 80.69098969 91.11381744 81.53556824 91.1139679 C84.24639528 91.11327096 86.9571537 91.10548878 89.66796875 91.09765625 C91.54698143 91.09579129 93.4259946 91.09436776 95.30500793 91.09336853 C100.25175315 91.08954948 105.19846902 91.07972438 110.14520264 91.06866455 C115.19250085 91.0584373 120.23980379 91.05386809 125.28710938 91.04882812 C135.19141914 91.03810159 145.09570713 91.02103248 155 91 C155.33 91.66 155.66 92.32 156 93 C155.27554688 92.97679687 154.55109375 92.95359375 153.8046875 92.9296875 C148.4292646 92.82934627 144.00340144 92.82460807 139 95 C138.2678125 95.31453125 137.535625 95.6290625 136.78125 95.953125 C133.77389462 97.26151987 130.79404977 98.58238864 127.890625 100.109375 C125.44720612 101.26040703 123.669058 101.28095347 121 101 C120.34 100.34 119.68 99.68 119 99 C116.31160615 98.73008094 113.70858064 98.91262643 111 99 C109.67036453 104.92292164 110.28843945 107.78546048 113 113 C114.09923541 114.30746709 114.09923541 114.30746709 116.8125 114.3125 C120.0436513 114.26810313 120.0436513 114.26810313 122.3125 112.3125 C124.15705705 109.78477367 124.4907044 108.04064599 125 105 C125.64066406 104.89042969 126.28132812 104.78085937 126.94140625 104.66796875 C132.36847084 103.67314171 136.9199644 102.18967052 142 100 C145.97643597 98.89682735 149.98002849 97.93073232 154 97 C154 96.34 154 95.68 154 95 C154.99 95 155.98 95 157 95 C156.92136719 95.68835938 156.84273437 96.37671875 156.76171875 97.0859375 C157.07507236 100.91809803 158.7645822 103.48318566 160.8125 106.625 C161.16892578 107.19734375 161.52535156 107.7696875 161.89257812 108.359375 C163.36654754 110.68527169 164.75463765 112.7744595 166.7890625 114.64453125 C168 116 168 116 168.00390625 117.97265625 C167.78541016 119.00712891 167.78541016 119.00712891 167.5625 120.0625 C167.376875 121.361875 167.19125 122.66125 167 124 C168.8628949 126.30060534 168.8628949 126.30060534 171.8203125 126.1953125 C172.91085937 126.17210937 174.00140625 126.14890625 175.125 126.125 C176.22070312 126.10695313 177.31640625 126.08890625 178.4453125 126.0703125 C179.28835938 126.04710937 180.13140625 126.02390625 181 126 C183.91360308 121.22169095 184.19876651 118.44893869 183 113 C182.40832031 112.92523438 181.81664062 112.85046875 181.20703125 112.7734375 C176.37526349 111.96945657 172.95940864 111.12950784 169.9296875 106.9296875 C168.11619103 103.16553936 167.54450423 99.112226 167 95 C166.34 95 165.68 95 165 95 C165 93.68 165 92.36 165 91 C166.216875 90.896875 167.43375 90.79375 168.6875 90.6875 C172.47871152 90.21526137 174.79719614 89.13520258 178 87 C179.70014957 86.26219924 181.40108345 85.5257984 183.11328125 84.81640625 C185.81045337 83.64930693 188.4078893 82.30291377 191.0234375 80.96484375 C192.84918602 80.07361868 194.73641435 79.3114219 196.625 78.5625 C203.64172802 75.31401481 208.26330734 70.429191 211.0859375 63.23046875 C213.72482288 53.90415163 212.62834444 44.4459916 208 36 C207.07439483 34.59625073 206.13727019 33.20001343 205.1875 31.8125 C203.23259171 28.83216436 202.99747564 28.14641288 203.0625 24.375 C203.94311626 21.20478145 204.8694354 18.0902099 206 15 C202.62599422 14.58274322 202.62599422 14.58274322 199 15 C196.99135641 17.3726974 196.99135641 17.3726974 196 20 C195.13217896 19.52409424 195.13217896 19.52409424 194.24682617 19.03857422 C187.191764 15.77743823 177.79080044 16.84824352 170.1875 16.875 C169.06923828 16.87113281 167.95097656 16.86726563 166.79882812 16.86328125 C165.72439453 16.86457031 164.64996094 16.86585938 163.54296875 16.8671875 C162.57383545 16.86831543 161.60470215 16.86944336 160.60620117 16.87060547 C158.09698113 16.90407305 158.09698113 16.90407305 156.12353516 17.5 C152.93201345 18.2514643 149.7408508 18.14226936 146.48046875 18.1328125 C145.74484207 18.13376923 145.00921539 18.13472595 144.251297 18.13571167 C142.6903983 18.13639162 141.12949676 18.13455019 139.56860352 18.13037109 C137.23381786 18.12510448 134.89923213 18.13027798 132.56445312 18.13671875 C124.36167731 18.14054016 116.2539783 17.8692116 108.07006836 17.25830078 C100.40466404 16.72976824 92.71375795 16.62084396 85.03393555 16.44238281 C82.14678252 16.37403611 79.25995838 16.29657088 76.37304688 16.21875 C74.53386741 16.17393217 72.69467503 16.12964104 70.85546875 16.0859375 C69.56348824 16.05009048 69.56348824 16.05009048 68.2454071 16.01351929 C63.99026024 15.78920792 63.99026024 15.78920792 60 17 C60.17789063 16.09507812 60.17789063 16.09507812 60.359375 15.171875 C60.75207846 12.73711355 61.03829111 10.46764949 61 8 C59.15014823 5.44848032 57.7804657 4.39023285 55 3 C53.29297265 2.93003986 51.58331997 2.91559846 49.875 2.9375 C48.26625 2.958125 46.6575 2.97875 45 3 C43.68 6.96 42.36 10.92 41 15 C31.43 15 21.86 15 12 15 C11.01 12.36 10.02 9.72 9 7 C7.22845348 4.47409152 7.22845348 4.47409152 5 3 C3.68 3 2.36 3 1 3 Z " fill="#1B1B1B" transform="translate(291,155)"/>
<path d="M0 0 C0.88171875 0.04640625 1.7634375 0.0928125 2.671875 0.140625 C3.56390625 0.17671875 4.4559375 0.2128125 5.375 0.25 C6.38820313 0.31960937 6.38820313 0.31960937 7.421875 0.390625 C9.04118207 4.95412673 7.700405 7.80783191 5.8203125 12.01171875 C5.09983249 16.3134082 7.86347374 19.46946672 10.02734375 23.0390625 C15.33813145 32.19197563 16.28280023 41.25258329 13.61328125 51.4921875 C12.07119117 55.56042515 10.26943244 59.07221161 7.421875 62.390625 C6.761875 62.390625 6.101875 62.390625 5.421875 62.390625 C5.091875 63.380625 4.761875 64.370625 4.421875 65.390625 C2.71484375 66.8125 2.71484375 66.8125 0.609375 68.140625 C-0.07769531 68.58921875 -0.76476562 69.0378125 -1.47265625 69.5 C-3.97747331 70.55955156 -5.07093735 70.31462224 -7.578125 69.390625 C-6.29095853 68.38483911 -4.99823842 67.38615702 -3.703125 66.390625 C-2.98382813 65.83375 -2.26453125 65.276875 -1.5234375 64.703125 C0.421875 63.390625 0.421875 63.390625 2.421875 63.390625 C2.751875 62.400625 3.081875 61.410625 3.421875 60.390625 C4.081875 60.390625 4.741875 60.390625 5.421875 60.390625 C6.131876 59.07985393 6.78227486 57.7371516 7.421875 56.390625 C7.958125 55.276875 8.494375 54.163125 9.046875 53.015625 C12.17226513 44.42480906 11.39012985 34.85255382 7.6484375 26.62890625 C6.41931848 24.38595975 5.05337491 22.3126556 3.609375 20.203125 C1.67348341 17.24270001 1.421875 16.50417554 1.421875 12.765625 C2.4252401 9.37926778 3.69579209 6.4675554 5.421875 3.390625 C2.02106923 3.49470417 2.02106923 3.49470417 -1.578125 4.390625 C-3.56895677 6.8158038 -3.56895677 6.8158038 -4.578125 9.390625 C-5.14273438 9.07222656 -5.70734375 8.75382813 -6.2890625 8.42578125 C-8.71167608 7.33023074 -10.56574784 7.0354105 -13.203125 6.828125 C-17.38368056 6.48784722 -17.38368056 6.48784722 -19.578125 5.390625 C-21.24378249 5.23839527 -22.91468996 5.14145285 -24.5859375 5.07421875 C-25.57207031 5.03232422 -26.55820312 4.99042969 -27.57421875 4.94726562 C-29.12302734 4.88829102 -29.12302734 4.88829102 -30.703125 4.828125 C-32.26353516 4.76334961 -32.26353516 4.76334961 -33.85546875 4.69726562 C-36.42955028 4.5909962 -39.00373008 4.48895917 -41.578125 4.390625 C-41.248125 3.730625 -40.918125 3.070625 -40.578125 2.390625 C-17.62501327 1.99234623 -17.62501327 1.99234623 -8.8203125 4.34375 C-8.08039063 4.35921875 -7.34046875 4.3746875 -6.578125 4.390625 C-2.48273549 0.37617204 -2.48273549 0.37617204 0 0 Z " fill="#1F1F1F" transform="translate(491.578125,166.609375)"/>
<path d="M0 0 C1.46373047 0.02707031 1.46373047 0.02707031 2.95703125 0.0546875 C3.69308594 0.07789063 4.42914063 0.10109375 5.1875 0.125 C5.1875 1.115 5.1875 2.105 5.1875 3.125 C4.19169922 3.19847656 4.19169922 3.19847656 3.17578125 3.2734375 C-3.57801312 3.72239875 -3.57801312 3.72239875 -9.8125 6.125 C-10.98914871 9.65494613 -11.01100603 12.41955413 -10.8125 16.125 C-9.09023504 19.37349977 -9.09023504 19.37349977 -5.8125 20.125 C-4.40425107 20.20521999 -2.99252769 20.23265977 -1.58203125 20.22265625 C-0.77958984 20.21943359 0.02285156 20.21621094 0.84960938 20.21289062 C1.68298828 20.20451172 2.51636719 20.19613281 3.375 20.1875 C4.6424707 20.18073242 4.6424707 20.18073242 5.93554688 20.17382812 C8.01956155 20.16205403 10.10353977 20.1441189 12.1875 20.125 C12.1875 21.115 12.1875 22.105 12.1875 23.125 C4.71445502 25.61601499 -3.77360078 24.64513349 -11.10546875 22.07421875 C-12.8125 21.125 -12.8125 21.125 -14.8125 18.125 C-15.43739744 13.21771716 -15.21286451 8.52566827 -12.8125 4.125 C-9.04213149 0.35463149 -5.18226941 -0.12487396 0 0 Z " fill="#1E1E1E" transform="translate(298.8125,191.875)"/>
<path d="M0 0 C3 1 3 1 4.10546875 3.0390625 C4.46253906 3.89242187 4.81960938 4.74578125 5.1875 5.625 C8.32449064 12.26021051 13.19459066 17.11091113 20 20 C27.20780863 21.78734963 34.61064336 22.45687514 42 23 C42 24.65 42 26.3 42 28 C41.17757812 27.79503906 40.35515625 27.59007812 39.5078125 27.37890625 C34.24822336 26.10955968 29.22945541 24.91212654 23.8125 24.6875 C16.22337633 24.09324562 10.04716206 19.44962972 5 14 C3.375 11.5 3.375 11.5 2 9 C1.608125 8.34 1.21625 7.68 0.8125 7 C-0.17691421 4.56451887 -0.14467909 2.60422365 0 0 Z " fill="#181818" transform="translate(262,220)"/>
<path d="M0 0 C1.62567079 0.14715199 3.25586857 0.24721867 4.88671875 0.31640625 C5.82451172 0.35830078 6.76230469 0.40019531 7.72851562 0.44335938 C8.70498047 0.48267578 9.68144531 0.52199219 10.6875 0.5625 C12.16959961 0.62727539 12.16959961 0.62727539 13.68164062 0.69335938 C16.12095546 0.79941654 18.56037113 0.90147714 21 1 C21 1.33 21 1.66 21 2 C20.32420898 2.02505615 19.64841797 2.0501123 18.95214844 2.07592773 C15.8845832 2.19210742 12.81730842 2.31473437 9.75 2.4375 C8.68652344 2.47681641 7.62304688 2.51613281 6.52734375 2.55664062 C5.50253906 2.59853516 4.47773438 2.64042969 3.421875 2.68359375 C2.00793457 2.73858032 2.00793457 2.73858032 0.56542969 2.79467773 C-1.90573665 2.91191395 -1.90573665 2.91191395 -3.85351562 3.50927734 C-7.13126806 4.25862702 -10.42025949 4.16279705 -13.765625 4.16796875 C-14.89396759 4.17296135 -14.89396759 4.17296135 -16.04510498 4.17805481 C-17.63536978 4.18310918 -19.22564515 4.1854636 -20.81591797 4.18530273 C-23.22772109 4.18747989 -25.63905954 4.20562526 -28.05078125 4.22460938 C-29.60156095 4.22754562 -31.1523428 4.22952887 -32.703125 4.23046875 C-33.41486877 4.23765427 -34.12661255 4.24483978 -34.85992432 4.25224304 C-39.86361968 4.22984161 -44.18315346 3.36364723 -49 2 C-48.67 1.34 -48.34 0.68 -48 0 C-46.77893555 0.00523682 -45.55787109 0.01047363 -44.29980469 0.01586914 C-39.76742283 0.03397584 -35.23504416 0.04545279 -30.70263672 0.05493164 C-28.74136823 0.05995887 -26.78010348 0.06678157 -24.81884766 0.07543945 C-21.99901403 0.08757545 -19.17922998 0.09324444 -16.359375 0.09765625 C-15.48319519 0.10281754 -14.60701538 0.10797882 -13.70428467 0.11329651 C-12.88373596 0.11337204 -12.06318726 0.11344757 -11.21777344 0.11352539 C-10.49829529 0.115746 -9.77881714 0.11796661 -9.03753662 0.12025452 C-6.96987599 0.06886515 -6.96987599 0.06886515 -4.92388916 -0.56959534 C-3 -1 -3 -1 0 0 Z " fill="#121212" transform="translate(451,170)"/>
<path d="M0 0 C11.84368284 -0.11883294 23.68543974 -0.03012865 35.52609253 0.26345825 C36.9240337 0.29612166 38.32210306 0.32369922 39.72024536 0.34616089 C41.70180564 0.37937764 43.68298311 0.43342748 45.6640625 0.48828125 C46.81342285 0.51446533 47.9627832 0.54064941 49.14697266 0.56762695 C52 1 52 1 55 4 C36.85 3.67 18.7 3.34 0 3 C0 2.01 0 1.02 0 0 Z " fill="#151515" transform="translate(351,169)"/>
<path d="M0 0 C0.88171875 0.04640625 1.7634375 0.0928125 2.671875 0.140625 C3.56390625 0.17671875 4.4559375 0.2128125 5.375 0.25 C6.38820313 0.31960937 6.38820313 0.31960937 7.421875 0.390625 C7.091875 1.710625 6.761875 3.030625 6.421875 4.390625 C4.5346875 4.2359375 4.5346875 4.2359375 2.609375 4.078125 C0.43046177 3.99480932 0.43046177 3.99480932 -1.578125 4.390625 C-3.66029376 6.7456213 -3.66029376 6.7456213 -4.578125 9.390625 C-5.14273438 9.07222656 -5.70734375 8.75382813 -6.2890625 8.42578125 C-8.71167608 7.33023074 -10.56574784 7.0354105 -13.203125 6.828125 C-17.38368056 6.48784722 -17.38368056 6.48784722 -19.578125 5.390625 C-21.24378249 5.23839527 -22.91468996 5.14145285 -24.5859375 5.07421875 C-25.57207031 5.03232422 -26.55820312 4.99042969 -27.57421875 4.94726562 C-29.12302734 4.88829102 -29.12302734 4.88829102 -30.703125 4.828125 C-32.26353516 4.76334961 -32.26353516 4.76334961 -33.85546875 4.69726562 C-36.42955028 4.5909962 -39.00373008 4.48895917 -41.578125 4.390625 C-41.248125 3.730625 -40.918125 3.070625 -40.578125 2.390625 C-17.62501327 1.99234623 -17.62501327 1.99234623 -8.8203125 4.34375 C-8.08039063 4.35921875 -7.34046875 4.3746875 -6.578125 4.390625 C-2.48273549 0.37617204 -2.48273549 0.37617204 0 0 Z " fill="#0C0C0C" transform="translate(491.578125,166.609375)"/>
<path d="M0 0 C0.33 0 0.66 0 1 0 C1.20625 0.78375 1.4125 1.5675 1.625 2.375 C3.79690622 8.10093457 6.74170776 13.75837412 11.1171875 18.1015625 C13.49624527 20.50036349 14.12166281 22.7794303 15 26 C14.34 26.33 13.68 26.66 13 27 C12.67 27.66 12.34 28.32 12 29 C11 31 11 31 9 32 C9 29.69 9 27.38 9 25 C9.66 25 10.32 25 11 25 C10.38511719 24.11957031 9.77023437 23.23914063 9.13671875 22.33203125 C8.32022829 21.15891277 7.50382675 19.9857324 6.6875 18.8125 C6.28337891 18.23435547 5.87925781 17.65621094 5.46289062 17.06054688 C-1.0557437 7.6800731 -1.0557437 7.6800731 -0.6875 3.1875 C-0.460625 2.135625 -0.23375 1.08375 0 0 Z " fill="#232323" transform="translate(304,243)"/>
<path d="M0 0 C0.33 0 0.66 0 1 0 C1.29363808 4.99184736 1.07836372 7.97444744 -2 12 C-4.81207235 13.40603618 -7.24009466 13.24557505 -10.375 13.3125 C-12.08816406 13.36857422 -12.08816406 13.36857422 -13.8359375 13.42578125 C-17 13 -17 13 -19.3984375 11.15234375 C-21.32922899 8.55754836 -21.35133034 7.16197302 -21 4 C-20.01 3.67 -19.02 3.34 -18 3 C-17.34 4.98 -16.68 6.96 -16 9 C-12.04 9 -8.08 9 -4 9 C-2.68 6.03 -1.36 3.06 0 0 Z " fill="#101010" transform="translate(476,271)"/>
<path d="M0 0 C5.45473727 -0.99327538 11.34155698 -0.98016153 16.1875 1.9375 C18.96456588 4.26969611 19.51115435 6.25587974 19.9375 9.8125 C19.98984122 11.20750721 20.02128711 12.60417351 20 14 C19.01 14.33 18.02 14.66 17 15 C16.67 12.03 16.34 9.06 16 6 C11.1956792 3.5978396 6.26896105 3.38877771 1 3 C0.67 3.99 0.34 4.98 0 6 C-0.33 5.67 -0.66 5.34 -1 5 C-1.66 5.66 -2.32 6.32 -3 7 C-2.38722388 4.03824877 -1.74627478 2.61941217 0 0 Z " fill="#242424" transform="translate(335,155)"/>
<path d="M0 0 C1.00819769 2.01639538 2.01397858 4.0297536 2.97265625 6.0703125 C5.20558943 10.38409001 5.20558943 10.38409001 9.22265625 12.8203125 C10.80178147 13.10275766 12.38539543 13.3613391 13.97265625 13.59375 C16 14 16 14 18.0625 15.75 C19.25500809 18.61201942 19.20925212 20.93096897 19 24 C18.01 23.67 17.02 23.34 16 23 C15.67 21.02 15.34 19.04 15 17 C14.12988281 17.01353516 14.12988281 17.01353516 13.2421875 17.02734375 C8.67763137 16.85410152 5.68354983 16.37059851 2.4375 13 C-0.68326254 8.8647747 -0.61111861 4.99080195 0 0 Z " fill="#1B1B1B" transform="translate(459,251)"/>
<path d="M0 0 C7.92 0 15.84 0 24 0 C24.33 0.99 24.66 1.98 25 3 C23.35451172 3.19916016 23.35451172 3.19916016 21.67578125 3.40234375 C20.22134199 3.58062985 18.76691558 3.7590208 17.3125 3.9375 C16.59126953 4.02451172 15.87003906 4.11152344 15.12695312 4.20117188 C11.37989416 4.66313805 7.69207089 5.19167679 4 6 C4.66 5.01 5.32 4.02 6 3 C3.69 2.67 1.38 2.34 -1 2 C-0.67 1.34 -0.34 0.68 0 0 Z " fill="#0C0C0C" transform="translate(422,245)"/>
<path d="M0 0 C5.94 0 11.88 0 18 0 C18 0.33 18 0.66 18 1 C20.31 1.33 22.62 1.66 25 2 C24.01 3.485 24.01 3.485 23 5 C23.33 5.66 23.66 6.32 24 7 C22.35 7.33 20.7 7.66 19 8 C18.67 7.01 18.34 6.02 18 5 C18.99 5 19.98 5 21 5 C21 4.34 21 3.68 21 3 C10.605 3.495 10.605 3.495 0 4 C0 2.68 0 1.36 0 0 Z " fill="#393939" transform="translate(404,245)"/>
<path d="M0 0 C2.0078125 0.1328125 2.0078125 0.1328125 5.0078125 1.1328125 C8.85064934 1.27255202 12.3249494 1.31132869 16.0078125 0.1328125 C15.04409756 2.54209985 14.35571087 3.89288259 12.1953125 5.3828125 C9.62665269 6.26349586 7.70569974 6.41680063 5.0078125 6.1328125 C4.3478125 5.4728125 3.6878125 4.8128125 3.0078125 4.1328125 C0.35243878 3.56761247 -2.28363463 3.39493052 -4.9921875 3.1328125 C-4.9921875 4.7828125 -4.9921875 6.4328125 -4.9921875 8.1328125 C-5.9821875 7.4728125 -6.9721875 6.8128125 -7.9921875 6.1328125 C-6.88847213 -0.01645885 -6.36764969 0.02349686 0 0 Z " fill="#1D1D1D" transform="translate(406.9921875,250.8671875)"/>
<path d="M0 0 C0.33 0 0.66 0 1 0 C0.56744475 5.40694067 -0.58221513 8.75366122 -4 13 C-4.66 13 -5.32 13 -6 13 C-6.33 13.99 -6.66 14.98 -7 16 C-8.70703125 17.421875 -8.70703125 17.421875 -10.8125 18.75 C-11.49957031 19.19859375 -12.18664062 19.6471875 -12.89453125 20.109375 C-15.39934831 21.16892656 -16.49281235 20.92399724 -19 20 C-17.71283353 18.99421411 -16.42011342 17.99553202 -15.125 17 C-14.40570313 16.443125 -13.68640625 15.88625 -12.9453125 15.3125 C-11 14 -11 14 -9 14 C-8.67 13.01 -8.34 12.02 -8 11 C-7.34 11 -6.68 11 -6 11 C-5.731875 10.46375 -5.46375 9.9275 -5.1875 9.375 C-4.795625 8.59125 -4.40375 7.8075 -4 7 C-3.2265625 5.4221875 -3.2265625 5.4221875 -2.4375 3.8125 C-1 1 -1 1 0 0 Z " fill="#131313" transform="translate(503,216)"/>
<path d="M0 0 C3.02089478 -0.02716089 6.04154129 -0.04691657 9.0625 -0.0625 C9.91005859 -0.07087891 10.75761719 -0.07925781 11.63085938 -0.08789062 C16.5361722 -0.10683006 21.16444755 0.16673655 26 1 C26 1.99 26 2.98 26 4 C13.13 3.505 13.13 3.505 0 3 C0 2.01 0 1.02 0 0 Z " fill="#1A1A1A" transform="translate(289,228)"/>
<path d="M0 0 C0.68449219 0.14308594 1.36898438 0.28617188 2.07421875 0.43359375 C5.31053736 1.06011738 8.55335919 1.56869079 11.8125 2.0625 C13.55466797 2.32740234 13.55466797 2.32740234 15.33203125 2.59765625 C16.21246094 2.73042969 17.09289062 2.86320313 18 3 C18 2.34 18 1.68 18 1 C19.8125 0.3125 19.8125 0.3125 22 0 C23.75 1.4375 23.75 1.4375 25 3 C23.68 3 22.36 3 21 3 C20.67 3.99 20.34 4.98 20 6 C12.30415843 6.42579451 6.93348093 5.46674047 0 2 C0 1.34 0 0.68 0 0 Z " fill="#1C1C1C" transform="translate(332,244)"/>
<path d="M0 0 C0 0.66 0 1.32 0 2 C-7.57567321 6.43454041 -13.90988998 5.05463112 -22 3 C-22 2.67 -22 2.34 -22 2 C-14.58569409 0.16282685 -7.62314474 -0.23576736 0 0 Z " fill="#E8E8E8" transform="translate(425,248)"/>
<path d="M0 0 C0.66 0.33 1.32 0.66 2 1 C2 1.99 2 2.98 2 4 C1.41992188 4.25394531 0.83984375 4.50789062 0.2421875 4.76953125 C-0.53898437 5.11371094 -1.32015625 5.45789063 -2.125 5.8125 C-2.94484375 6.1734375 -3.7646875 6.534375 -4.609375 6.90625 C-6.56649383 7.80166384 -8.4789002 8.79422418 -10.375 9.8125 C-13 11 -13 11 -16 10 C-11.30665522 5.79217365 -5.75353924 2.54786359 0 0 Z " fill="#202020" transform="translate(484,234)"/>
<path d="M0 0 C0.99 0 1.98 0 3 0 C3.33 1.65 3.66 3.3 4 5 C4.66 3.68 5.32 2.36 6 1 C6.99 1 7.98 1 9 1 C8.45276317 4.37462715 7.9451 6.08235 6 9 C4.35 8.67 2.7 8.34 1 8 C0.67 5.36 0.34 2.72 0 0 Z " fill="#232323" transform="translate(395,216)"/>
<path d="M0 0 C0.99 0.33 1.98 0.66 3 1 C3.33 7.93 3.66 14.86 4 22 C3.34 22 2.68 22 2 22 C1.67 22.66 1.34 23.32 1 24 C-0.06309567 18.82682579 -0.11693938 13.87630664 -0.0625 8.625 C-0.05798828 7.79355469 -0.05347656 6.96210938 -0.04882812 6.10546875 C-0.03713164 4.07028103 -0.01919935 2.03513077 0 0 Z " fill="#2E2E2E" transform="translate(260,198)"/>
<path d="M0 0 C0.99 0 1.98 0 3 0 C3 0.99 3 1.98 3 3 C3.66 3.33 4.32 3.66 5 4 C5.33 2.68 5.66 1.36 6 0 C6.99 0.33 7.98 0.66 9 1 C8.34 2.98 7.68 4.96 7 7 C4.69 7 2.38 7 0 7 C-1.125 2.25 -1.125 2.25 0 0 Z " fill="#1B1B1B" transform="translate(463,223)"/>
<path d="M0 0 C1.62567079 0.14715199 3.25586857 0.24721867 4.88671875 0.31640625 C5.82451172 0.35830078 6.76230469 0.40019531 7.72851562 0.44335938 C8.70498047 0.48267578 9.68144531 0.52199219 10.6875 0.5625 C12.16959961 0.62727539 12.16959961 0.62727539 13.68164062 0.69335938 C16.12095546 0.79941654 18.56037113 0.90147714 21 1 C21 1.33 21 1.66 21 2 C20.00987915 2.03758423 20.00987915 2.03758423 18.99975586 2.07592773 C15.97884631 2.19271752 12.95818578 2.31506446 9.9375 2.4375 C8.37999023 2.49647461 8.37999023 2.49647461 6.79101562 2.55664062 C1.45969359 2.77666344 -3.73689893 3.1116184 -9 4 C-8.25 2.0625 -8.25 2.0625 -7 0 C-4.04680182 -1.23843794 -3.12561472 -1.04187157 0 0 Z " fill="#4B4B4B" transform="translate(451,170)"/>
<path d="M0 0 C-0.14042877 1.64630328 -0.28749329 3.29204179 -0.4375 4.9375 C-0.51871094 5.85402344 -0.59992188 6.77054688 -0.68359375 7.71484375 C-1 10 -1 10 -2 11 C-2.23678716 13.69235776 -2.42198025 16.36498156 -2.5625 19.0625 C-2.60568359 19.82111328 -2.64886719 20.57972656 -2.69335938 21.36132812 C-2.79973633 23.24065438 -2.90039934 25.12030244 -3 27 C-3.33 27 -3.66 27 -4 27 C-4.02899599 23.22918278 -4.04679729 19.45839417 -4.0625 15.6875 C-4.07087891 14.61564453 -4.07925781 13.54378906 -4.08789062 12.43945312 C-4.09111328 11.41142578 -4.09433594 10.38339844 -4.09765625 9.32421875 C-4.10289307 8.37635498 -4.10812988 7.42849121 -4.11352539 6.4519043 C-4 4 -4 4 -3 1 C-1 0 -1 0 0 0 Z " fill="#111111" transform="translate(265,188)"/>
<path d="M0 0 C0.99 0 1.98 0 3 0 C3 1.32 3 2.64 3 4 C2.34 4 1.68 4 1 4 C0.67 4.99 0.34 5.98 0 7 C-1.99954746 7.04254356 -4.00041636 7.04080783 -6 7 C-7 6 -7 6 -7.0625 3.4375 C-7.041875 2.633125 -7.02125 1.82875 -7 1 C-6.01 1 -5.02 1 -4 1 C-4 1.99 -4 2.98 -4 4 C-3.01 4 -2.02 4 -1 4 C-0.67 2.68 -0.34 1.36 0 0 Z " fill="#232323" transform="translate(385,179)"/>
<path d="M0 0 C0.99 0 1.98 0 3 0 C3.33 0.66 3.66 1.32 4 2 C5.32 1.67 6.64 1.34 8 1 C7.49396008 3.16874252 7.00016187 4.99967627 6 7 C4.33388095 7.042721 2.66617115 7.04063832 1 7 C0 6 0 6 -0.0625 2.9375 C-0.041875 1.968125 -0.02125 0.99875 0 0 Z " fill="#292929" transform="translate(485,189)"/>
<path d="M0 0 C2.31 0 4.62 0 7 0 C6.67 1.98 6.34 3.96 6 6 C4.125 6.625 4.125 6.625 2 7 C0 5 0 5 -0.125 2.375 C-0.08375 1.59125 -0.0425 0.8075 0 0 Z " fill="#1E1E1E" transform="translate(312,237)"/>
<path d="M0 0 C3.63 0.33 7.26 0.66 11 1 C11 1.99 11 2.98 11 4 C7.04 3.67 3.08 3.34 -1 3 C-0.67 2.01 -0.34 1.02 0 0 Z " fill="#222222" transform="translate(304,228)"/>
<path d="M0 0 C-2 3 -2 3 -3.9453125 3.51171875 C-4.66460937 3.56972656 -5.38390625 3.62773437 -6.125 3.6875 C-8.043125 3.8421875 -8.043125 3.8421875 -10 4 C-10 2.68 -10 1.36 -10 0 C-6.33694766 -0.74926071 -3.57644848 -1.2380014 0 0 Z " fill="#2E2E2E" transform="translate(443,254)"/>
<path d="M0 0 C-1.27192363 2.54384726 -2.19948469 2.69368156 -4.8125 3.6875 C-5.49957031 3.95949219 -6.18664062 4.23148437 -6.89453125 4.51171875 C-9.29376496 5.06812731 -10.6894364 4.77364938 -13 4 C-4.33663366 -1.44554455 -4.33663366 -1.44554455 0 0 Z " fill="#090909" transform="translate(434,256)"/>
<path d="M0 0 C2.625 0.9375 2.625 0.9375 5 2 C4.0409375 2.1546875 4.0409375 2.1546875 3.0625 2.3125 C2.381875 2.539375 1.70125 2.76625 1 3 C0.67 3.99 0.34 4.98 0 6 C-3.3 6 -6.6 6 -10 6 C-10 5.67 -10 5.34 -10 5 C-6.535 4.505 -6.535 4.505 -3 4 C-2.67 3.01 -2.34 2.02 -2 1 C-1.34 0.67 -0.68 0.34 0 0 Z " fill="#333333" transform="translate(352,244)"/>
<path d="M0 0 C1.98 0 3.96 0 6 0 C6 0.99 6 1.98 6 3 C4.02 3.33 2.04 3.66 0 4 C0 2.68 0 1.36 0 0 Z " fill="#1E1E1E" transform="translate(279,189)"/>
<path d="M0 0 C1.9375 0.375 1.9375 0.375 4 1 C4.33 1.66 4.66 2.32 5 3 C2.36 3.99 -0.28 4.98 -3 6 C-2 4 -1 2 0 0 Z " fill="#272727" transform="translate(274,175)"/>
<path d="M0 0 C0 1.32 0 2.64 0 4 C-2.97 3.505 -2.97 3.505 -6 3 C-6 2.34 -6 1.68 -6 1 C-4 0 -4 0 0 0 Z " fill="#282828" transform="translate(329,188)"/>
<path d="M0 0 C-0.33 0.66 -0.66 1.32 -1 2 C-3.64860427 2.59355614 -6.29197322 2.74209269 -9 3 C-6.27596221 -1.08605669 -4.4643819 -1.38549783 0 0 Z " fill="#070707" transform="translate(286,174)"/>
<path d="M0 0 C2 1.75 2 1.75 4 4 C4 5.32 4 6.64 4 8 C2.68 7.67 1.36 7.34 0 7 C0 4.69 0 2.38 0 0 Z " fill="#383838" transform="translate(285,166)"/>
<path d="M0 0 C0.99 0.33 1.98 0.66 3 1 C3 2.98 3 4.96 3 7 C2.01 7.33 1.02 7.66 0 8 C0 5.36 0 2.72 0 0 Z " fill="#1E1E1E" transform="translate(352,162)"/>
<path d="M0 0 C0.33 0 0.66 0 1 0 C1 2.97 1 5.94 1 9 C0.67 8.34 0.34 7.68 0 7 C-0.66 7 -1.32 7 -2 7 C-1.125 2.25 -1.125 2.25 0 0 Z " fill="#111111" transform="translate(400,255)"/>
<path d="M0 0 C0.99 0 1.98 0 3 0 C3.66 2.31 4.32 4.62 5 7 C3.0625 6.3125 3.0625 6.3125 1 5 C0.25 2.375 0.25 2.375 0 0 Z " fill="#111111" transform="translate(499,190)"/>
</svg>
