<?xml version="1.0" encoding="UTF-8"?>
<svg version="1.1" xmlns="http://www.w3.org/2000/svg" width="800" height="300">
<path d="M0 0 C264 0 528 0 800 0 C800 99 800 198 800 300 C536 300 272 300 0 300 C0 201 0 102 0 0 Z " fill="#FEFEFE" transform="translate(0,0)"/>
<path d="M0 0 C3.80414376 0.21946983 6.51376957 0.73574433 9.875 2.5625 C12 5 12 5 13 13 C21.58 12.67 30.16 12.34 39 12 C39.99 9.03 40.98 6.06 42 3 C42.66 2.01 43.32 1.02 44 0 C48.99378685 -0.9192543 54.44077462 -0.67982652 59.125 1.375 C62.40176437 4.36682834 62.40121096 4.95974601 62.6796875 9.1640625 C62.74655762 10.06850098 62.81342773 10.97293945 62.88232422 11.90478516 C62.94057373 12.9419165 62.94057373 12.9419165 63 14 C63.7935791 13.99476318 64.5871582 13.98952637 65.40478516 13.98413086 C91.99948502 13.83256678 91.99948502 13.83256678 103.625 14.5 C113.79072997 15.06840001 123.94645459 15.11395737 134.125 15.125 C134.93269836 15.12749756 135.74039673 15.12999512 136.5725708 15.13256836 C138.88436178 15.13846052 141.19602003 15.1369704 143.5078125 15.1328125 C144.55322205 15.13578842 144.55322205 15.13578842 145.61975098 15.13882446 C148.9296919 15.12298522 151.81275681 14.83749988 155 14 C156.97751674 13.90786886 158.95783942 13.86932867 160.9375 13.8671875 C162.07960938 13.86589844 163.22171875 13.86460937 164.3984375 13.86328125 C165.58695313 13.86714844 166.77546875 13.87101563 168 13.875 C169.78277344 13.86919922 169.78277344 13.86919922 171.6015625 13.86328125 C173.31472656 13.86521484 173.31472656 13.86521484 175.0625 13.8671875 C176.10535156 13.86831543 177.14820313 13.86944336 178.22265625 13.87060547 C180.66685513 13.98447901 182.66136445 14.33858713 185 15 C186.68388417 15.13832856 188.37322032 15.2194248 190.0625 15.25 C190.91972656 15.27578125 191.77695312 15.3015625 192.66015625 15.328125 C195.51333245 14.92801348 196.03334774 13.99259754 198 12 C200.2265625 11.671875 200.2265625 11.671875 202.625 11.75 C203.42164063 11.76546875 204.21828125 11.7809375 205.0390625 11.796875 C207 12 207 12 208 13 C207.9140625 14.92578125 207.9140625 14.92578125 207.625 17.3125 C207.48964844 18.48232422 207.48964844 18.48232422 207.3515625 19.67578125 C207 22 207 22 206.2734375 23.91796875 C205.74145968 27.96859983 208.57349123 31.29641619 210.60546875 34.6484375 C215.97891037 43.90933194 216.58420576 52.58748167 214.3671875 62.9609375 C211.09703798 72.5356996 204.25340898 77.68218437 195.5 82 C193.4056268 83.00141883 191.30465584 83.98690849 189.19921875 84.96484375 C185.43070981 86.73865347 181.71909098 88.62539068 178 90.5 C176.64608254 91.17758151 175.29193935 91.85471232 173.9375 92.53125 C172.968125 93.0159375 171.99875 93.500625 171 94 C170.979375 95.2478125 170.95875 96.495625 170.9375 97.78125 C170.92009766 98.8340918 170.92009766 98.8340918 170.90234375 99.90820312 C171.03847657 102.82416809 171.92263757 105.30659393 173 108 C173.59167969 108.01417969 174.18335938 108.02835937 174.79296875 108.04296875 C178.98947972 108.2962655 181.52327509 108.69489606 185.125 111 C187.43276309 114.69242094 187.38379643 116.64636675 186.65625 120.84375 C185.73162645 123.8817988 184.26337379 125.8052133 182 128 C179.31432703 129.34283649 177.12253147 129.24287519 174.125 129.3125 C172.55105469 129.36857422 172.55105469 129.36857422 170.9453125 129.42578125 C168 129 168 129 165.609375 127.24609375 C163.74919724 124.64997188 163.69185188 123.83756864 164.125 120.75 C164.41880065 114.98771629 161.60232566 112.18896394 158 108 C155 103.5 155 103.5 155 100 C154.38125 100.28875 153.7625 100.5775 153.125 100.875 C150.48330853 101.82600893 148.18047603 102.38029257 145.4375 102.875 C141.40858713 103.65537502 137.49270588 104.62772849 133.5625 105.8125 C132.07943359 106.25529297 132.07943359 106.25529297 130.56640625 106.70703125 C127.40498783 108.29977021 126.59850221 109.89958182 125 113 C122.14630258 115.93296679 120.55516717 116.90086301 116.5 117.625 C112.71004733 116.94822274 111.18493094 115.98320369 108.94140625 112.84375 C106.65365476 108.36317447 106.65276618 104.36413286 107.875 99.5625 C109 97 109 97 110 96 C111.47648876 95.90176004 112.95775417 95.87026481 114.4375 95.875 C115.64212891 95.87113281 115.64212891 95.87113281 116.87109375 95.8671875 C119 96 119 96 121 97 C127.50490904 97.81311363 130.15221445 95.73911422 137 93 C116.87 93.66 96.74 94.32 76 95 C76 98.96 76 102.92 76 107 C73.78260808 110.8062714 70.88270233 112.94771448 67 115 C63.0625 115.125 63.0625 115.125 60 114 C58 112 58 112 57.875 108.375 C57.91625 107.26125 57.9575 106.1475 58 105 C56.72125 104.896875 55.4425 104.79375 54.125 104.6875 C50.54466251 104.30529757 47.3557703 103.5610245 43.9375 102.4375 C39.42320402 100.98218705 35.72253553 100.73763692 31 101 C33.18366764 105.38709904 33.18366764 105.38709904 37.19921875 107.890625 C37.99972656 108.11234375 38.80023438 108.3340625 39.625 108.5625 C43.83143545 109.75052446 43.83143545 109.75052446 45.5625 112.3125 C46.79479598 119.88231815 46.79479598 119.88231815 44 123.8125 C40.38164041 126.4508872 37.38721513 127.15013284 33 127 C29.3619437 126.33302301 26.73638534 125.43427853 23.5625 123.5625 C21.70556092 120.51711991 21.96101117 119.36588223 22.1875 115.875 C22.47668613 108.88788996 19.2686168 105.21922954 15 100 C11 94.43227666 11 94.43227666 11 92 C10.41621582 91.94054199 9.83243164 91.88108398 9.23095703 91.81982422 C-14.66151063 89.25840074 -14.66151063 89.25840074 -22.875 80 C-23.57625 79.01 -24.2775 78.02 -25 77 C-25.721875 76.071875 -26.44375 75.14375 -27.1875 74.1875 C-30.9591228 67.55464611 -31.36498142 60.19157119 -31.3125 52.6875 C-31.30831055 51.8622583 -31.30412109 51.0370166 -31.29980469 50.18676758 C-31.13478427 41.20105481 -30.14298669 31.99617928 -24 25 C-19.700381 21.17215964 -15.66223455 19.28201537 -10 18 C-9.195625 17.79375 -8.39125 17.5875 -7.5625 17.375 C-7.046875 17.25125 -6.53125 17.1275 -6 17 C-6.103125 16.21625 -6.20625 15.4325 -6.3125 14.625 C-5.88272354 9.63959301 -3.63856553 3.63856553 0 0 Z " fill="#FCFCFC" transform="translate(276,155)"/>
<path d="M0 0 C3.80414376 0.21946983 6.51376957 0.73574433 9.875 2.5625 C12 5 12 5 13 13 C21.58 12.67 30.16 12.34 39 12 C39.99 9.03 40.98 6.06 42 3 C42.66 2.01 43.32 1.02 44 0 C48.99378685 -0.9192543 54.44077462 -0.67982652 59.125 1.375 C62.40176437 4.36682834 62.40121096 4.95974601 62.6796875 9.1640625 C62.74655762 10.06850098 62.81342773 10.97293945 62.88232422 11.90478516 C62.94057373 12.9419165 62.94057373 12.9419165 63 14 C63.7935791 13.99476318 64.5871582 13.98952637 65.40478516 13.98413086 C91.99948502 13.83256678 91.99948502 13.83256678 103.625 14.5 C113.79072997 15.06840001 123.94645459 15.11395737 134.125 15.125 C134.93269836 15.12749756 135.74039673 15.12999512 136.5725708 15.13256836 C138.88436178 15.13846052 141.19602003 15.1369704 143.5078125 15.1328125 C144.55322205 15.13578842 144.55322205 15.13578842 145.61975098 15.13882446 C148.9296919 15.12298522 151.81275681 14.83749988 155 14 C156.97751674 13.90786886 158.95783942 13.86932867 160.9375 13.8671875 C162.07960938 13.86589844 163.22171875 13.86460937 164.3984375 13.86328125 C165.58695313 13.86714844 166.77546875 13.87101563 168 13.875 C169.78277344 13.86919922 169.78277344 13.86919922 171.6015625 13.86328125 C173.31472656 13.86521484 173.31472656 13.86521484 175.0625 13.8671875 C176.10535156 13.86831543 177.14820313 13.86944336 178.22265625 13.87060547 C180.66685513 13.98447901 182.66136445 14.33858713 185 15 C186.68388417 15.13832856 188.37322032 15.2194248 190.0625 15.25 C190.91972656 15.27578125 191.77695312 15.3015625 192.66015625 15.328125 C195.51333245 14.92801348 196.03334774 13.99259754 198 12 C200.2265625 11.671875 200.2265625 11.671875 202.625 11.75 C203.42164063 11.76546875 204.21828125 11.7809375 205.0390625 11.796875 C207 12 207 12 208 13 C207.9140625 14.92578125 207.9140625 14.92578125 207.625 17.3125 C207.48964844 18.48232422 207.48964844 18.48232422 207.3515625 19.67578125 C207 22 207 22 206.2734375 23.91796875 C205.74145968 27.96859983 208.57349123 31.29641619 210.60546875 34.6484375 C215.97891037 43.90933194 216.58420576 52.58748167 214.3671875 62.9609375 C211.09703798 72.5356996 204.25340898 77.68218437 195.5 82 C193.4056268 83.00141883 191.30465584 83.98690849 189.19921875 84.96484375 C185.43070981 86.73865347 181.71909098 88.62539068 178 90.5 C176.64608254 91.17758151 175.29193935 91.85471232 173.9375 92.53125 C172.968125 93.0159375 171.99875 93.500625 171 94 C170.979375 95.2478125 170.95875 96.495625 170.9375 97.78125 C170.92009766 98.8340918 170.92009766 98.8340918 170.90234375 99.90820312 C171.03847657 102.82416809 171.92263757 105.30659393 173 108 C173.59167969 108.01417969 174.18335938 108.02835937 174.79296875 108.04296875 C178.98947972 108.2962655 181.52327509 108.69489606 185.125 111 C187.43276309 114.69242094 187.38379643 116.64636675 186.65625 120.84375 C185.73162645 123.8817988 184.26337379 125.8052133 182 128 C179.31432703 129.34283649 177.12253147 129.24287519 174.125 129.3125 C172.55105469 129.36857422 172.55105469 129.36857422 170.9453125 129.42578125 C168 129 168 129 165.609375 127.24609375 C163.74919724 124.64997188 163.69185188 123.83756864 164.125 120.75 C164.41880065 114.98771629 161.60232566 112.18896394 158 108 C155 103.5 155 103.5 155 100 C154.38125 100.28875 153.7625 100.5775 153.125 100.875 C150.48330853 101.82600893 148.18047603 102.38029257 145.4375 102.875 C141.40858713 103.65537502 137.49270588 104.62772849 133.5625 105.8125 C132.07943359 106.25529297 132.07943359 106.25529297 130.56640625 106.70703125 C127.40498783 108.29977021 126.59850221 109.89958182 125 113 C122.14630258 115.93296679 120.55516717 116.90086301 116.5 117.625 C112.71004733 116.94822274 111.18493094 115.98320369 108.94140625 112.84375 C106.65365476 108.36317447 106.65276618 104.36413286 107.875 99.5625 C109 97 109 97 110 96 C111.47648876 95.90176004 112.95775417 95.87026481 114.4375 95.875 C115.64212891 95.87113281 115.64212891 95.87113281 116.87109375 95.8671875 C119 96 119 96 121 97 C127.50490904 97.81311363 130.15221445 95.73911422 137 93 C116.87 93.66 96.74 94.32 76 95 C76 98.96 76 102.92 76 107 C73.78260808 110.8062714 70.88270233 112.94771448 67 115 C63.0625 115.125 63.0625 115.125 60 114 C58 112 58 112 57.875 108.375 C57.91625 107.26125 57.9575 106.1475 58 105 C56.72125 104.896875 55.4425 104.79375 54.125 104.6875 C50.54466251 104.30529757 47.3557703 103.5610245 43.9375 102.4375 C39.42320402 100.98218705 35.72253553 100.73763692 31 101 C33.18366764 105.38709904 33.18366764 105.38709904 37.19921875 107.890625 C37.99972656 108.11234375 38.80023438 108.3340625 39.625 108.5625 C43.83143545 109.75052446 43.83143545 109.75052446 45.5625 112.3125 C46.79479598 119.88231815 46.79479598 119.88231815 44 123.8125 C40.38164041 126.4508872 37.38721513 127.15013284 33 127 C29.3619437 126.33302301 26.73638534 125.43427853 23.5625 123.5625 C21.70556092 120.51711991 21.96101117 119.36588223 22.1875 115.875 C22.47668613 108.88788996 19.2686168 105.21922954 15 100 C11 94.43227666 11 94.43227666 11 92 C10.41621582 91.94054199 9.83243164 91.88108398 9.23095703 91.81982422 C-14.66151063 89.25840074 -14.66151063 89.25840074 -22.875 80 C-23.57625 79.01 -24.2775 78.02 -25 77 C-25.721875 76.071875 -26.44375 75.14375 -27.1875 74.1875 C-30.9591228 67.55464611 -31.36498142 60.19157119 -31.3125 52.6875 C-31.30831055 51.8622583 -31.30412109 51.0370166 -31.29980469 50.18676758 C-31.13478427 41.20105481 -30.14298669 31.99617928 -24 25 C-18.64533168 20.23287633 -13.27110084 18 -6 18 C-6 18.99 -6 19.98 -6 21 C-6.65226562 21.17015625 -7.30453125 21.3403125 -7.9765625 21.515625 C-15.58080816 23.59602681 -15.58080816 23.59602681 -22 28 C-26.11657682 35.80958303 -27.1677852 43.18960458 -27.125 51.875 C-27.12886719 52.65230469 -27.13273438 53.42960937 -27.13671875 54.23046875 C-27.1189884 64.78002476 -25.17515432 72.53733711 -17.75 80.375 C-7.63870632 86.34985535 2.50129797 87.10277068 14 88 C14.25910156 88.86109375 14.51820313 89.7221875 14.78515625 90.609375 C16.0330399 94.09221426 17.57307574 97.05842643 19.4375 100.25 C20.03433594 101.28640625 20.63117188 102.3228125 21.24609375 103.390625 C22.89922544 106.20806577 22.89922544 106.20806577 26 108 C26.75 111.0625 26.75 111.0625 27 114 C26.67 114.33 26.34 114.66 26 115 C25.95936168 116.66617115 25.957279 118.33388095 26 120 C31.3938615 122.98383828 34.34291158 123.17766208 40.27734375 121.54296875 C40.84582031 121.36378906 41.41429687 121.18460937 42 121 C42.97591583 117.61682513 42.85856655 115.4342662 42 112 C39.03 112 36.06 112 33 112 C32.649375 111.236875 32.29875 110.47375 31.9375 109.6875 C29.81788923 105.36556195 27.03132786 101.46067081 24.328125 97.48828125 C23.88984375 96.66714844 23.4515625 95.84601563 23 95 C23.495 93.515 23.495 93.515 24 92 C24.33 92.99 24.66 93.98 25 95 C26.81397492 95.75725557 26.81397492 95.75725557 29.04296875 96.09765625 C30.28336914 96.34032227 30.28336914 96.34032227 31.54882812 96.58789062 C32.41958984 96.74451172 33.29035156 96.90113281 34.1875 97.0625 C39.61818482 98.08614914 44.75890534 99.21482365 50 101 C51.57617035 101.24039076 53.16081258 101.43372102 54.75 101.5625 C58.8 101.9 58.8 101.9 61 103 C61 105.64 61 108.28 61 111 C64.46941546 110.54177532 67.67395049 110.10868317 71 109 C73.2012966 104.24983365 73.1765235 100.11918146 73 95 C69.34920174 93.38935371 65.9492568 92.55105909 62 92 C61.505 93.485 61.505 93.485 61 95 C54.34656702 95.32194031 48.10348744 94.94275287 42 92 C41.67 91.01 41.34 90.02 41 89 C46.875 89.875 46.875 89.875 48 91 C49.84891946 91.23363881 51.70488031 91.41303635 53.5625 91.5625 C55.08037109 91.68818359 55.08037109 91.68818359 56.62890625 91.81640625 C57.41136719 91.87699219 58.19382812 91.93757813 59 92 C59 91.34 59 90.68 59 90 C62.25303044 88.37348478 65.39225602 88.88546844 69 89 C69.33 89.33 69.66 89.66 70 90 C72.64738089 90.09511266 75.26859001 90.12555635 77.91625977 90.11352539 C78.74545929 90.11367142 79.57465881 90.11381744 80.4289856 90.1139679 C83.18315198 90.11326851 85.93725161 90.10547493 88.69140625 90.09765625 C90.59569766 90.09579216 92.49998955 90.09436822 94.40428162 90.09336853 C99.42667963 90.08954263 104.44904892 90.07971173 109.47143555 90.06866455 C114.5922812 90.05845198 119.71313148 90.05387124 124.83398438 90.04882812 C134.88933557 90.03808953 144.9446654 90.02101224 155 90 C155.33 90.99 155.66 91.98 156 93 C155.00742187 93.06316406 154.01484375 93.12632812 152.9921875 93.19140625 C143.78919104 93.95955729 137.00122741 95.92526272 128.98828125 100.5390625 C125.95085347 102.02402719 124.3179589 102.49972761 121 102 C120.34 101.34 119.68 100.68 119 100 C116.31160615 99.73008094 113.70858064 99.91262643 111 100 C110.60690192 105.92637982 110.60690192 105.92637982 112.125 111.5625 C114.81063541 113.62148715 116.69962146 113.34378943 120 113 C120.99 112.67 121.98 112.34 123 112 C123.33 109.69 123.66 107.38 124 105 C125.10408203 104.70996094 125.10408203 104.70996094 126.23046875 104.4140625 C127.20628906 104.15367187 128.18210937 103.89328125 129.1875 103.625 C130.15042969 103.36976563 131.11335937 103.11453125 132.10546875 102.8515625 C134.96698331 102.05911275 134.96698331 102.05911275 137.51953125 100.9921875 C141.02511696 99.58995322 144.63051808 98.72469758 148.28125 97.78125 C150.9427916 97.01643919 153.44873422 96.07227112 156 95 C156.79664063 96.66289062 156.79664063 96.66289062 157.609375 98.359375 C158.32248498 99.82312706 159.03605071 101.28665714 159.75 102.75 C160.27207031 103.84441406 160.27207031 103.84441406 160.8046875 104.9609375 C162.39864392 108.20788576 163.64567145 110.6602329 166.28125 113.1875 C168 115 168 115 168.171875 117.578125 C167.78125 120.05208333 167.390625 122.52604167 167 125 C171.95 125 176.9 125 182 125 C182.165 123.39125 182.33 121.7825 182.5 120.125 C182.5928125 119.22007812 182.685625 118.31515625 182.78125 117.3828125 C183.03047295 115.06686789 183.03047295 115.06686789 183 113 C182.39671875 112.97421875 181.7934375 112.9484375 181.171875 112.921875 C174.64560658 112.45872047 174.64560658 112.45872047 171.625 110.3125 C167.9528339 105.08672517 166.61268279 101.45528689 167 95 C166.34 95 165.68 95 165 95 C165 93.68 165 92.36 165 91 C166.16015625 90.74734375 167.3203125 90.4946875 168.515625 90.234375 C172.9344856 89.12674503 176.73304841 87.36394882 180.75 85.25 C182.14946172 84.5268058 183.54920403 83.80415434 184.94921875 83.08203125 C185.63290527 82.72705566 186.3165918 82.37208008 187.02099609 82.00634766 C189.83352359 80.57614308 192.70344776 79.27172438 195.5625 77.9375 C201.87060003 74.75773762 206.90235498 70.96723859 209.9375 64.4375 C212.8888918 54.84083611 211.52875118 45.49416325 207.3828125 36.55078125 C206.24092354 34.44441546 205.06302188 32.59313039 203.625 30.6875 C202 28 202 28 202.125 24.5 C202.93491049 21.26035804 203.85284873 18.13554681 205 15 C202.6704053 14.49758678 202.6704053 14.49758678 200 15 C198.61061923 16.96147874 197.2739589 18.96166576 196 21 C195.01 21 194.02 21 193 21 C193 20.34 193 19.68 193 19 C185.42036966 18.06702433 177.94438525 17.84759646 170.3125 17.875 C169.22388672 17.87113281 168.13527344 17.86726563 167.01367188 17.86328125 C165.95341797 17.86457031 164.89316406 17.86585938 163.80078125 17.8671875 C162.38019409 17.86887939 162.38019409 17.86887939 160.9309082 17.87060547 C157.90872606 17.95460438 157.90872606 17.95460438 154.58251953 18.5 C150.96489525 19.00489945 147.52970083 19.12938705 143.87890625 19.1328125 C142.88527321 19.13424759 142.88527321 19.13424759 141.87156677 19.13571167 C140.47402857 19.13638814 139.07648713 19.13457128 137.67895508 19.13037109 C135.59904409 19.12509274 133.51935681 19.13029396 131.43945312 19.13671875 C123.39068476 19.14083861 115.42737031 18.80624545 107.39428711 18.25390625 C98.44390806 17.69089999 89.46433979 17.62104197 80.5 17.4375 C78.50129563 17.39417689 76.50259763 17.35055894 74.50390625 17.30664062 C69.66933731 17.20103732 64.83470047 17.09939132 60 17 C60 13.37 60 9.74 60 6 C55.01770224 4.08373163 50.27315333 3.4452885 45 3 C44.79503906 3.85464844 44.59007812 4.70929688 44.37890625 5.58984375 C44.10949219 6.69457031 43.84007812 7.79929688 43.5625 8.9375 C43.29566406 10.03964844 43.02882813 11.14179688 42.75390625 12.27734375 C42 15 42 15 41 16 C38.78144736 16.08783542 36.56011504 16.10694609 34.33984375 16.09765625 C33.34314415 16.09553383 33.34314415 16.09553383 32.3263092 16.09336853 C30.19666101 16.08775518 28.06711661 16.07520054 25.9375 16.0625 C24.49674631 16.05748671 23.05599097 16.05292351 21.61523438 16.04882812 C18.07678898 16.03778145 14.53840461 16.02050792 11 16 C10.80664062 15.37424072 10.61328125 14.74848145 10.4140625 14.10375977 C10.15367187 13.28705811 9.89328125 12.47035645 9.625 11.62890625 C9.36976563 10.81752197 9.11453125 10.0061377 8.8515625 9.17016602 C7.77907149 6.43697434 6.65891299 5.24636547 4 4 C3.01 4 2.02 4 1 4 C-2.10190545 8.65285818 -3.33846504 13.41532676 -3 19 C-3.66 19 -4.32 19 -5 19 C-6.48251273 16.03497454 -6.35770302 14.33856155 -6 11 C-2.39322917 2.39322917 -2.39322917 2.39322917 0 0 Z " fill="#161616" transform="translate(276,155)"/>
<path d="M0 0 C0 0.99 0 1.98 0 3 C-0.97839844 3.25523437 -0.97839844 3.25523437 -1.9765625 3.515625 C-9.58080816 5.59602681 -9.58080816 5.59602681 -16 10 C-20.11657682 17.80958303 -21.1677852 25.18960458 -21.125 33.875 C-21.12886719 34.65230469 -21.13273438 35.42960937 -21.13671875 36.23046875 C-21.1189884 46.78002476 -19.17515432 54.53733711 -11.75 62.375 C-1.63870632 68.34985535 8.50129797 69.10277068 20 70 C20.25910156 70.86109375 20.51820313 71.7221875 20.78515625 72.609375 C22.0330399 76.09221426 23.57307574 79.05842643 25.4375 82.25 C26.03433594 83.28640625 26.63117188 84.3228125 27.24609375 85.390625 C28.89922544 88.20806577 28.89922544 88.20806577 32 90 C32.75 93.0625 32.75 93.0625 33 96 C32.67 96.33 32.34 96.66 32 97 C31.95936168 98.66617115 31.957279 100.33388095 32 102 C37.3938615 104.98383828 40.34291158 105.17766208 46.27734375 103.54296875 C46.84582031 103.36378906 47.41429687 103.18460937 48 103 C48.97591583 99.61682513 48.85856655 97.4342662 48 94 C45.03 94 42.06 94 39 94 C38.649375 93.236875 38.29875 92.47375 37.9375 91.6875 C35.81788923 87.36556195 33.03132786 83.46067081 30.328125 79.48828125 C29.88984375 78.66714844 29.4515625 77.84601563 29 77 C29.495 75.515 29.495 75.515 30 74 C30.33 74.99 30.66 75.98 31 77 C35.95 77.99 40.9 78.98 46 80 C46 80.66 46 81.32 46 82 C41.545 82.495 41.545 82.495 37 83 C39.18366764 87.38709904 39.18366764 87.38709904 43.19921875 89.890625 C43.99972656 90.11234375 44.80023438 90.3340625 45.625 90.5625 C49.83143545 91.75052446 49.83143545 91.75052446 51.5625 94.3125 C52.79479598 101.88231815 52.79479598 101.88231815 50 105.8125 C46.38164041 108.4508872 43.38721513 109.15013284 39 109 C35.3619437 108.33302301 32.73638534 107.43427853 29.5625 105.5625 C27.70556092 102.51711991 27.96101117 101.36588223 28.1875 97.875 C28.47668613 90.88788996 25.2686168 87.21922954 21 82 C17 76.43227666 17 76.43227666 17 74 C16.41621582 73.94054199 15.83243164 73.88108398 15.23095703 73.81982422 C-8.66151063 71.25840074 -8.66151063 71.25840074 -16.875 62 C-17.57625 61.01 -18.2775 60.02 -19 59 C-20.0828125 57.6078125 -20.0828125 57.6078125 -21.1875 56.1875 C-24.9591228 49.55464611 -25.36498142 42.19157119 -25.3125 34.6875 C-25.30831055 33.8622583 -25.30412109 33.0370166 -25.29980469 32.18676758 C-25.13478427 23.20105481 -24.14298669 13.99617928 -18 7 C-12.64533168 2.23287633 -7.27110084 0 0 0 Z " fill="#161616" transform="translate(270,173)"/>
<path d="M0 0 C3.80414376 0.21946983 6.51376957 0.73574433 9.875 2.5625 C12.8543641 5.98000588 12.57362983 8.53218495 13 13 C17.27161792 12.91930249 21.54178934 12.80644255 25.8125 12.6875 C27.02744141 12.66494141 28.24238281 12.64238281 29.49414062 12.61914062 C30.65751953 12.58369141 31.82089844 12.54824219 33.01953125 12.51171875 C34.62985229 12.47244263 34.62985229 12.47244263 36.27270508 12.43237305 C39.26779328 11.95754526 40.1852342 11.36552932 42 9 C42.04254356 10.99954746 42.04080783 13.00041636 42 15 C41 16 41 16 38.13256836 16.11352539 C36.88096924 16.10828857 35.62937012 16.10305176 34.33984375 16.09765625 C33.34314415 16.09553383 33.34314415 16.09553383 32.3263092 16.09336853 C30.19666101 16.08775518 28.06711661 16.07520054 25.9375 16.0625 C24.49674631 16.05748671 23.05599097 16.05292351 21.61523438 16.04882812 C18.07678898 16.03778145 14.53840461 16.02050792 11 16 C10.80664062 15.37424072 10.61328125 14.74848145 10.4140625 14.10375977 C10.02347656 12.87870728 10.02347656 12.87870728 9.625 11.62890625 C9.36976563 10.81752197 9.11453125 10.0061377 8.8515625 9.17016602 C7.77907149 6.43697434 6.65891299 5.24636547 4 4 C3.01 4 2.02 4 1 4 C-2.10190545 8.65285818 -3.33846504 13.41532676 -3 19 C-3.66 19 -4.32 19 -5 19 C-6.48251273 16.03497454 -6.35770302 14.33856155 -6 11 C-2.39322917 2.39322917 -2.39322917 2.39322917 0 0 Z " fill="#141414" transform="translate(276,155)"/>
<path d="M0 0 C0 0.99 0 1.98 0 3 C-0.58007812 3.03738281 -1.16015625 3.07476562 -1.7578125 3.11328125 C-6.81678864 3.53903667 -10.54279158 4.37138991 -15 7 C-15 10.96 -15 14.92 -15 19 C-11.85309225 19.78672694 -9.8062379 20.12004456 -6.671875 20.09765625 C-5.87265625 20.09443359 -5.0734375 20.09121094 -4.25 20.08789062 C-3.425 20.07951172 -2.6 20.07113281 -1.75 20.0625 C-0.90953125 20.05798828 -0.0690625 20.05347656 0.796875 20.04882812 C2.86461401 20.03707961 4.93231624 20.01914522 7 20 C7 20.99 7 21.98 7 23 C1.35974644 25.82012678 -7.34131329 24.50610206 -13.1875 22.6875 C-16.50405353 21.52455266 -16.92369374 21.11445939 -19 18 C-19.60174277 13.2745494 -19.6647713 8.05508675 -17 4 C-11.42352799 -0.2985305 -6.8955466 -0.49947621 0 0 Z " fill="#121212" transform="translate(288,192)"/>
<path d="M0 0 C0 0.99 0 1.98 0 3 C-0.97839844 3.25523437 -0.97839844 3.25523437 -1.9765625 3.515625 C-9.58080816 5.59602681 -9.58080816 5.59602681 -16 10 C-20.05424576 17.69133439 -21.12554286 25.26676439 -21.5625 33.8125 C-21.60568359 34.60076172 -21.64886719 35.38902344 -21.69335938 36.20117188 C-21.79878321 38.13394215 -21.89983094 40.06695026 -22 42 C-22.33 42 -22.66 42 -23 42 C-23.06058594 40.94039062 -23.12117187 39.88078125 -23.18359375 38.7890625 C-23.26800127 37.40102779 -23.35264917 36.01300768 -23.4375 34.625 C-23.49647461 33.57699219 -23.49647461 33.57699219 -23.55664062 32.5078125 C-23.74280134 28.62639508 -23.74280134 28.62639508 -25 25 C-23.66117238 16.64171171 -21.55550666 9.58153984 -14.6875 4.25 C-10.0398434 1.14823776 -5.57971923 0 0 0 Z " fill="#242424" transform="translate(270,173)"/>
<path d="M0 0 C-1.66546556 3.33093112 -5.06696522 3.8861962 -8.41796875 5.17578125 C-12.21214351 6.38693235 -15.38706853 6.80646574 -19 5 C-20.53668865 4.77532169 -22.07968054 4.59203195 -23.625 4.4375 C-24.44226563 4.35371094 -25.25953125 4.26992187 -26.1015625 4.18359375 C-26.72804688 4.12300781 -27.35453125 4.06242188 -28 4 C-27.01171875 2.54296875 -27.01171875 2.54296875 -25 1 C-22.20725416 0.6169113 -19.61415033 0.3968145 -16.8125 0.3125 C-16.08224609 0.27833984 -15.35199219 0.24417969 -14.59960938 0.20898438 C-9.73146417 -0.00229916 -4.87211047 -0.02758839 0 0 Z " fill="#D4D4D4" transform="translate(414,247)"/>
<path d="M0 0 C3.22914752 -0.02917228 6.45826083 -0.04685663 9.6875 -0.0625 C10.59951172 -0.07087891 11.51152344 -0.07925781 12.45117188 -0.08789062 C13.33740234 -0.09111328 14.22363281 -0.09433594 15.13671875 -0.09765625 C15.94842529 -0.10289307 16.76013184 -0.10812988 17.59643555 -0.11352539 C20.14864673 0.0070209 22.51026137 0.440051 25 1 C25 1.99 25 2.98 25 4 C12.13 3.505 12.13 3.505 -1 3 C-0.67 2.01 -0.34 1.02 0 0 Z " fill="#1B1B1B" transform="translate(274,228)"/>
<path d="M0 0 C0 0.99 0 1.98 0 3 C-0.58007812 3.03738281 -1.16015625 3.07476562 -1.7578125 3.11328125 C-8.85583614 3.67792714 -8.85583614 3.67792714 -15 7 C-15.80019484 10.00339796 -15.98700219 12.90002173 -16 16 C-16.33 16 -16.66 16 -17 16 C-17.144375 15.21625 -17.28875 14.4325 -17.4375 13.625 C-17.87798925 11.03578982 -17.87798925 11.03578982 -19 9 C-18.20917288 5.2435712 -17.06907105 4.05324227 -14 1.6875 C-9.49762064 -0.68267433 -4.95895843 -0.35920021 0 0 Z " fill="#1C1C1C" transform="translate(288,192)"/>
<path d="M0 0 C0.99 0 1.98 0 3 0 C3 1.65 3 3.3 3 5 C3.66 5 4.32 5 5 5 C5.33 3.68 5.66 2.36 6 1 C6.66 1 7.32 1 8 1 C8.23053497 3.84326464 8.35903101 5.46145349 6.75 7.875 C5 9 5 9 2.875 8.8125 C1 8 1 8 0 6 C-0.039992 4.00039988 -0.04346799 1.99952758 0 0 Z " fill="#1B1B1B" transform="translate(380,216)"/>
<path d="M0 0 C5.875 0.875 5.875 0.875 7 2 C8.68183948 2.23287008 10.3712416 2.41264166 12.0625 2.5625 C13.44115234 2.68818359 13.44115234 2.68818359 14.84765625 2.81640625 C15.91306641 2.90728516 15.91306641 2.90728516 17 3 C17.33 3.99 17.66 4.98 18 6 C12.05827036 6.38750411 6.44461879 5.53456392 1 3 C0.67 2.01 0.34 1.02 0 0 Z " fill="#1B1B1B" transform="translate(317,244)"/>
<path d="M0 0 C0.66 0 1.32 0 2 0 C2 1.32 2 2.64 2 4 C2.99 4 3.98 4 5 4 C5.33 2.68 5.66 1.36 6 0 C6.66 0 7.32 0 8 0 C8.125 2.375 8.125 2.375 8 5 C6 7 6 7 2.875 7.125 C1.451875 7.063125 1.451875 7.063125 0 7 C-1.125 2.25 -1.125 2.25 0 0 Z " fill="#0D0D0D" transform="translate(448,223)"/>
<path d="M0 0 C0.99 0 1.98 0 3 0 C3.33 0.66 3.66 1.32 4 2 C4.99 1.67 5.98 1.34 7 1 C6.67 2.65 6.34 4.3 6 6 C4.34385343 6.38218767 2.67542976 6.71395102 1 7 C0 6 0 6 -0.0625 2.9375 C-0.041875 1.968125 -0.02125 0.99875 0 0 Z " fill="#1F1F1F" transform="translate(470,189)"/>
<path d="M0 0 C0.66 0 1.32 0 2 0 C1.25 4.75 1.25 4.75 -1 7 C-3.5625 7.1875 -3.5625 7.1875 -6 7 C-7 6 -7 6 -7.0625 3.4375 C-7.041875 2.633125 -7.02125 1.82875 -7 1 C-6.34 1 -5.68 1 -5 1 C-5 1.99 -5 2.98 -5 4 C-3.68 4 -2.36 4 -1 4 C-0.67 2.68 -0.34 1.36 0 0 Z " fill="#080808" transform="translate(370,179)"/>
<path d="M0 0 C0.66 0 1.32 0 2 0 C2 0.99 2 1.98 2 3 C2.66 3 3.32 3 4 3 C4 2.01 4 1.02 4 0 C4.66 0 5.32 0 6 0 C6 1.98 6 3.96 6 6 C2.25 7.125 2.25 7.125 0 6 C0 4.02 0 2.04 0 0 Z " fill="#0D0D0D" transform="translate(297,237)"/>
<path d="M0 0 C0.33 0 0.66 0 1 0 C1.125 4.75 1.125 4.75 0 7 C-0.0396713 8.66619446 -0.04384447 10.33391013 0 12 C-0.66 12 -1.32 12 -2 12 C-3.40457737 9.19084526 -3.24895157 7.11189466 -3 4 C-1.5625 1.625 -1.5625 1.625 0 0 Z " fill="#0D0D0D" transform="translate(273,162)"/>
<path d="M0 0 C1.41687119 4.25061356 0.19320039 6.71851625 -1 11 C-2.5625 9.875 -2.5625 9.875 -4 8 C-3.875 4.9375 -3.875 4.9375 -3 2 C-2.01 1.34 -1.02 0.68 0 0 Z " fill="#282828" transform="translate(320,157)"/>
<path d="M0 0 C1.65 0 3.3 0 5 0 C4.67 1.32 4.34 2.64 4 4 C2.68 4 1.36 4 0 4 C0 2.68 0 1.36 0 0 Z " fill="#050505" transform="translate(264,189)"/>
</svg>
