<?xml version="1.0" encoding="UTF-8"?>
<svg version="1.1" xmlns="http://www.w3.org/2000/svg" width="800" height="300">
<path d="M0 0 C264 0 528 0 800 0 C800 99 800 198 800 300 C536 300 272 300 0 300 C0 201 0 102 0 0 Z " fill="#FEFEFE" transform="translate(0,0)"/>
<path d="M0 0 C4.88023339 0.3200153 8.13596776 1.51359161 11.5625 5.0625 C13.06838287 7.69779503 13.95426603 10.3452081 14.8125 13.25 C15.45574219 13.105625 16.09898437 12.96125 16.76171875 12.8125 C24.18329771 11.28795311 31.25110122 11.03361657 38.8125 11.25 C38.93753906 10.31929687 39.06257813 9.38859375 39.19140625 8.4296875 C40.03210233 4.12574654 41.21232205 2.74808266 44.8125 0.25 C49.82978556 -0.7116464 53.66654827 -0.31255812 58.25 1.9375 C62.00173403 5.3232112 63.69081541 8.39279698 64.8125 13.25 C69.89626435 13.3512254 74.89225177 13.28425685 79.953125 12.765625 C88.73042749 12.01403321 97.50822018 11.9639106 106.3125 11.9375 C107.70899277 11.93207687 107.70899277 11.93207687 109.13369751 11.92654419 C136.73463279 11.88429682 164.39852807 14.10694121 191.8125 17.25 C192.1425 16.59 192.4725 15.93 192.8125 15.25 C193.4725 15.25 194.1325 15.25 194.8125 15.25 C194.8125 14.59 194.8125 13.93 194.8125 13.25 C197.61120027 11.85064987 199.71748792 11.99734595 202.8125 12.25 C204.6875 13.375 204.6875 13.375 205.8125 15.25 C206.06542101 18.22182182 206.1300425 20.46835693 205 23.25 C204.938125 23.91 204.87625 24.57 204.8125 25.25 C205.99836064 26.63915104 207.18973834 28.02399596 208.40942383 29.38354492 C213.95633459 36.76237435 214.49152346 45.9935436 214.4375 54.875 C214.46972656 55.94234375 214.50195312 57.0096875 214.53515625 58.109375 C214.54465427 65.8407612 212.7624899 70.35484103 207.8125 76.25 C207.16925781 77.05953125 206.52601563 77.8690625 205.86328125 78.703125 C198.61298878 86.19780935 188.60585156 90.92480979 178.09765625 91.36328125 C175.66495207 91.37351703 173.24336461 91.33966304 170.8125 91.25 C171.08964844 91.93707031 171.36679687 92.62414062 171.65234375 93.33203125 C172.01457031 94.23308594 172.37679687 95.13414062 172.75 96.0625 C173.10964844 96.95582031 173.46929687 97.84914063 173.83984375 98.76953125 C174.54863486 100.5770909 175.1985247 102.40807409 175.8125 104.25 C176.42738281 104.21519531 177.04226563 104.18039062 177.67578125 104.14453125 C178.48402344 104.11746094 179.29226563 104.09039062 180.125 104.0625 C181.32576172 104.01029297 181.32576172 104.01029297 182.55078125 103.95703125 C184.8125 104.25 184.8125 104.25 186.55859375 105.4375 C188.74884537 108.60347118 188.57758798 111.62598205 188.5078125 115.37890625 C187.23523602 120.63364621 183.13100239 123.33462113 178.8125 126.25 C175.63371306 127.83939347 173.3168228 127.66576711 169.8125 127.25 C166.03037715 123.95070134 164.9673895 122.55549722 164.375 117.5625 C164.8125 114.25 164.8125 114.25 166.8125 111.25 C165.85520084 110.12411986 164.89662105 108.9993285 163.9375 107.875 C163.40382813 107.24851562 162.87015625 106.62203125 162.3203125 105.9765625 C161.19817993 104.69163349 160.01878025 103.45628025 158.8125 102.25 C158.1525 102.25 157.4925 102.25 156.8125 102.25 C156.56886719 102.81976563 156.32523438 103.38953125 156.07421875 103.9765625 C154.5926122 106.6462065 152.7715657 108.45943814 150.625 110.625 C148.43756034 112.90999389 148.43756034 112.90999389 146.8125 115.25 C147.12053455 118.43522204 147.12053455 118.43522204 147.8125 121.25 C144.81670603 124.69516307 143.14314473 125.98387105 138.6875 126.875 C132.99868902 125.95744984 128.02523277 123.64665874 122.8125 121.25 C122.39795636 117.02165483 122.34754657 114.91837056 124.8125 111.375 C127.8125 109.25 127.8125 109.25 131.6875 109.1875 C133.80045892 109.18677094 133.80045892 109.18677094 135.8125 108.25 C138.70221179 104.5249809 140.76048171 100.48159448 142.8125 96.25 C143.20695313 95.46238281 143.60140625 94.67476563 144.0078125 93.86328125 C144.27335938 93.33089844 144.53890625 92.79851562 144.8125 92.25 C143.68610107 92.41226074 142.55970215 92.57452148 141.39916992 92.74169922 C136.72945378 93.32230108 132.12653492 93.39406037 127.42578125 93.3828125 C126.53863434 93.38413177 125.65148743 93.38545105 124.73745728 93.3868103 C121.866602 93.38871752 118.9958453 93.38240286 116.125 93.375 C115.14363068 93.37411377 114.16226135 93.37322754 113.15115356 93.37231445 C99.85041514 93.35821794 86.58144647 93.15322394 73.29150391 92.6081543 C63.79310744 92.2189907 54.31733018 92.14347015 44.8125 92.25 C46.07816466 97.47802185 47.44031159 102.40701026 49.8125 107.25 C52.24563888 108.67556419 53.86075333 108.84704912 56.6484375 109.01953125 C58.8125 109.25 58.8125 109.25 61.9375 111.5625 C63.8125 114.25 63.8125 114.25 64 116.75 C62.338581 120.24772421 59.93382369 122.11884412 56.8125 124.25 C56.13703125 124.72050781 55.4615625 125.19101562 54.765625 125.67578125 C49.23092299 129.15950326 44.32625768 130.489602 37.8125 129.25 C35.1875 127.6875 35.1875 127.6875 33.8125 125.25 C33.33715173 121.44721385 33.13344212 119.23645748 35.33984375 116.03125 C36.06880859 115.14953125 36.06880859 115.14953125 36.8125 114.25 C33.54529209 109.86105071 30.26351522 105.49740335 26.8125 101.25 C22.63432625 105.93656504 22.63432625 105.93656504 19.125 111.125 C17.8125 113.25 17.8125 113.25 14.8125 114.25 C14.3175 115.735 14.3175 115.735 13.8125 117.25 C13.1525 117.25 12.4925 117.25 11.8125 117.25 C12.1425 117.91 12.4725 118.57 12.8125 119.25 C12.88200541 120.79023996 12.89702357 122.33334988 12.875 123.875 C12.86597656 124.69226563 12.85695313 125.50953125 12.84765625 126.3515625 C12.83605469 126.97804688 12.82445312 127.60453125 12.8125 128.25 C7.80734695 131.33009418 3.55598265 132.28401488 -2.1875 131.25 C-10.3880814 127.84883721 -10.3880814 127.84883721 -12.1875 124.25 C-12.85808266 121.08687426 -13.01012766 118.39285951 -12.1875 115.25 C-8.7877772 111.67290036 -5.03924835 109.39729816 -0.09375 109.00390625 C3.10592068 108.52393213 3.10592068 108.52393213 4.7109375 105.30859375 C5.19820313 104.11363281 5.68546875 102.91867187 6.1875 101.6875 C6.69023437 100.48996094 7.19296875 99.29242188 7.7109375 98.05859375 C8.07445312 97.13175781 8.43796875 96.20492187 8.8125 95.25 C9.4725 95.25 10.1325 95.25 10.8125 95.25 C10.8125 94.59 10.8125 93.93 10.8125 93.25 C9.99007812 93.20101562 9.16765625 93.15203125 8.3203125 93.1015625 C-13.44489845 91.64384629 -13.44489845 91.64384629 -20.1875 85.25 C-28.62782642 73.8399291 -32.53870052 57.30978918 -31.1875 43.25 C-30.21268592 40.30625452 -28.84644328 37.85691087 -27.1875 35.25 C-26.73375 34.3425 -26.28 33.435 -25.8125 32.5 C-23.68019395 29.54757625 -21.27298005 28.19270966 -18.1875 26.25 C-15.85042741 24.4043119 -13.53867866 22.531798 -11.23828125 20.640625 C-9.1875 19.25 -9.1875 19.25 -6.1875 19.25 C-6.21070313 18.45335937 -6.23390625 17.65671875 -6.2578125 16.8359375 C-6.43977712 6.1520149 -6.43977712 6.1520149 -4.1875 1.25 C-3.1875 0.25 -3.1875 0.25 0 0 Z " fill="#FCFCFC" transform="translate(269.1875,155.75)"/>
<path d="M0 0 C4.91432378 0.32225074 8.12384767 1.56134767 11.625 5.0625 C13.09168267 7.76428386 13.46742025 10.2132982 13.8125 13.25 C13.1525 13.25 12.4925 13.25 11.8125 13.25 C11.44125 12.156875 11.07 11.06375 10.6875 9.9375 C9.38510133 6.89652197 8.86281813 6.28281617 5.9375 4.375 C3.20745733 3.39218464 0.67842693 2.67145984 -2.1875 2.25 C-2.93802396 5.07248328 -3.49319258 7.85421384 -3.875 10.75 C-3.98199219 11.5028125 -4.08898437 12.255625 -4.19921875 13.03125 C-4.18547424 15.63354478 -3.40027697 16.98243232 -2.1875 19.25 C-2.1875 20.24 -2.1875 21.23 -2.1875 22.25 C-2.72117187 22.37375 -3.25484375 22.4975 -3.8046875 22.625 C-12.83269809 25.12410328 -19.64890211 30.78440635 -25.1875 38.25 C-30.48705918 49.37907427 -26.02244156 62.32201889 -22.1875 73.25 C-19.6208954 79.52031249 -17.1996747 82.8518143 -11.1875 86.25 C-8.54600181 86.96563602 -6.11822079 87.51735351 -3.4375 87.9375 C-2.73882812 88.05778564 -2.04015625 88.17807129 -1.3203125 88.30200195 C4.03201543 89.19755405 9.39750224 89.87251218 14.8125 90.25 C15.1425 91.24 15.4725 92.23 15.8125 93.25 C14.8225 93.58 13.8325 93.91 12.8125 94.25 C11.18534327 96.85604 11.18534327 96.85604 9.75 100 C9.24339844 101.04671875 8.73679687 102.0934375 8.21484375 103.171875 C6.78613003 106.16661479 6.78613003 106.16661479 5.8671875 109.0703125 C5.34511719 110.14925781 5.34511719 110.14925781 4.8125 111.25 C2.84358415 111.83099156 0.86688587 112.40215625 -1.14453125 112.8125 C-4.11798707 113.44926301 -5.95354868 114.15567064 -8.1875 116.25 C-8.90636492 119.06653633 -8.89773502 121.43253877 -8.1875 124.25 C-5.30250415 127.22806023 -2.53921117 127.43924142 1.4375 127.5625 C4.94081715 127.54456493 5.73995875 127.29836083 8.8125 125.25 C9.12392059 121.66866323 8.73639881 118.69226816 7.8125 115.25 C8.62654297 114.79560547 8.62654297 114.79560547 9.45703125 114.33203125 C13.88960809 111.73637814 16.39583049 109.87319385 18.8125 105.25 C19.92619042 103.62335364 21.07552217 102.02081505 22.25 100.4375 C22.82621094 99.64730469 23.40242188 98.85710937 23.99609375 98.04296875 C25.8125 96.25 25.8125 96.25 29.8125 96.25 C30.39257812 97.35408203 30.39257812 97.35408203 30.984375 98.48046875 C35.58757085 107.45414656 35.58757085 107.45414656 42.8125 114.25 C42.3175 116.23 42.3175 116.23 41.8125 118.25 C40.4925 118.25 39.1725 118.25 37.8125 118.25 C37.8125 120.23 37.8125 122.21 37.8125 124.25 C41.19744669 125.94247334 44.19745919 126.07133727 47.8125 125.25 C51.81770782 122.98687337 55.49226836 120.44206094 58.8125 117.25 C58.8125 116.26 58.8125 115.27 58.8125 114.25 C56.51620006 113.10185003 54.73551914 112.94230191 52.1875 112.6875 C50.96160156 112.56181641 50.96160156 112.56181641 49.7109375 112.43359375 C49.08445312 112.37300781 48.45796875 112.31242187 47.8125 112.25 C45.74600643 106.77379203 43.73900203 101.28032698 41.77734375 95.765625 C40.91083235 93.5063807 39.93747373 91.38995002 38.8125 89.25 C40.38734437 87.67515563 41.95375405 88.12021162 44.140625 88.1171875 C45.07076416 88.11525391 46.00090332 88.11332031 46.95922852 88.11132812 C48.4953479 88.1180957 48.4953479 88.1180957 50.0625 88.125 C51.12718506 88.12693359 52.19187012 88.12886719 53.28881836 88.13085938 C61.65815929 88.17439615 70.01214114 88.43188101 78.375 88.75 C95.69228813 89.40214885 112.89052807 89.4970866 130.19946289 88.6081543 C137.07991647 88.2576585 143.92210248 88.13299325 150.8125 88.25 C149.92810705 92.61973214 147.56598565 95.61787042 144.9375 99.125 C142.36754943 102.56888188 140.06002492 105.68902968 138.31640625 109.640625 C136.8125 112.25 136.8125 112.25 134.33203125 113.0546875 C133.43871094 113.07789063 132.54539062 113.10109375 131.625 113.125 C130.72394531 113.16367187 129.82289063 113.20234375 128.89453125 113.2421875 C128.20746094 113.24476563 127.52039063 113.24734375 126.8125 113.25 C126.8125 115.23 126.8125 117.21 126.8125 119.25 C132.83731126 121.74302535 137.37002705 123.39749098 143.8125 121.25 C143.0390625 120.1053125 143.0390625 120.1053125 142.25 118.9375 C141.775625 118.050625 141.30125 117.16375 140.8125 116.25 C141.8125 113.25 141.8125 113.25 144.375 111.75 C150.44895318 107.98503144 154.86131543 100.63419519 157.8125 94.25 C161.98896884 98.1944428 165.46129182 102.2097816 167.8125 107.5 C169.09432353 109.74319118 170.45496152 110.30698461 172.8125 111.25 C172.8125 111.91 172.8125 112.57 172.8125 113.25 C170.8125 114.875 170.8125 114.875 168.8125 116.25 C169.1425 118.23 169.4725 120.21 169.8125 122.25 C173.34972984 123.15487275 175.1839202 123.53571809 178.5625 122 C181.02331851 120.27635231 181.02331851 120.27635231 182.8125 117.25 C183.4725 117.25 184.1325 117.25 184.8125 117.25 C184.4825 114.61 184.1525 111.97 183.8125 109.25 C183.16023437 109.31703125 182.50796875 109.3840625 181.8359375 109.453125 C178.79762109 109.50690051 176.6652502 109.33737115 173.8125 108.25 C171.04226596 104.55445068 169.49989951 100.52369408 167.8125 96.25 C167.26464844 95.17105469 166.71679688 94.09210938 166.15234375 92.98046875 C164.8125 90.25 164.8125 90.25 164.8125 88.25 C167.34915416 87.43827067 169.31500679 87.25614311 172.0078125 87.2890625 C182.27675331 87.1836319 192.8340796 85.0106615 200.8125 78.25 C208.51932882 69.91587116 209.99356929 65.43119732 210 54.3125 C210.01224609 53.20197266 210.02449219 52.09144531 210.03710938 50.94726562 C210.03904297 49.88314453 210.04097656 48.81902344 210.04296875 47.72265625 C210.04707764 46.74562744 210.05118652 45.76859863 210.05541992 44.76196289 C209.98797166 42.00183677 209.98797166 42.00183677 207.8125 39.25 C207.565 38.21875 207.3175 37.1875 207.0625 36.125 C205.77698566 31.20421968 202.75106293 27.3251769 199.8125 23.25 C200.8025 21.765 200.8025 21.765 201.8125 20.25 C201.97963569 17.62468476 201.97963569 17.62468476 201.8125 15.25 C199.40372743 15.36341534 199.40372743 15.36341534 196.8125 16.25 C195.13291203 18.74345452 195.13291203 18.74345452 193.8125 21.25 C193.00554687 21.12882812 192.19859375 21.00765625 191.3671875 20.8828125 C180.34580132 19.36181441 169.29881144 18.61492734 158.19873047 17.94775391 C156.31758545 17.83246338 156.31758545 17.83246338 154.3984375 17.71484375 C153.2748584 17.649021 152.1512793 17.58319824 150.99365234 17.51538086 C147.8125 17.25 147.8125 17.25 145.10375977 16.74050903 C141.37273268 16.18445979 137.73222276 16.11737004 133.97119141 16.13647461 C133.20953674 16.13632858 132.44788208 16.13618256 131.66314697 16.1360321 C129.16342246 16.13672482 126.66377388 16.14448701 124.1640625 16.15234375 C122.42385906 16.15421021 120.68365509 16.15563304 118.94345093 16.15663147 C114.37651097 16.16043869 109.80960311 16.17025358 105.24267578 16.18133545 C100.57715285 16.19158823 95.91162471 16.19613736 91.24609375 16.20117188 C82.10154844 16.21187753 72.9570269 16.2289323 63.8125 16.25 C63.1525 17.9 62.4925 19.55 61.8125 21.25 C60.8225 21.25 59.8325 21.25 58.8125 21.25 C59.33518466 18.48723823 59.92119587 15.9239124 60.8125 13.25 C59.3739469 8.48056343 59.3739469 8.48056343 55.99609375 5.07421875 C53.63230785 4.18198472 51.5756344 3.84674715 49.0625 3.625 C47.86367188 3.51285156 47.86367188 3.51285156 46.640625 3.3984375 C45.73570312 3.32496094 45.73570312 3.32496094 44.8125 3.25 C42.84146975 7.43843928 42.8125 9.24852013 42.8125 14.25 C29.4475 14.745 29.4475 14.745 15.8125 15.25 C15.8125 14.59 15.8125 13.93 15.8125 13.25 C23.54138819 11.29596958 30.86292008 11.02571718 38.8125 11.25 C38.93753906 10.31929687 39.06257813 9.38859375 39.19140625 8.4296875 C40.03210233 4.12574654 41.21232205 2.74808266 44.8125 0.25 C49.82978556 -0.7116464 53.66654827 -0.31255812 58.25 1.9375 C62.00173403 5.3232112 63.69081541 8.39279698 64.8125 13.25 C69.89626435 13.3512254 74.89225177 13.28425685 79.953125 12.765625 C88.73042749 12.01403321 97.50822018 11.9639106 106.3125 11.9375 C107.70899277 11.93207687 107.70899277 11.93207687 109.13369751 11.92654419 C136.73463279 11.88429682 164.39852807 14.10694121 191.8125 17.25 C192.1425 16.59 192.4725 15.93 192.8125 15.25 C193.4725 15.25 194.1325 15.25 194.8125 15.25 C194.8125 14.59 194.8125 13.93 194.8125 13.25 C197.61120027 11.85064987 199.71748792 11.99734595 202.8125 12.25 C204.6875 13.375 204.6875 13.375 205.8125 15.25 C206.06542101 18.22182182 206.1300425 20.46835693 205 23.25 C204.938125 23.91 204.87625 24.57 204.8125 25.25 C205.99836064 26.63915104 207.18973834 28.02399596 208.40942383 29.38354492 C213.95633459 36.76237435 214.49152346 45.9935436 214.4375 54.875 C214.46972656 55.94234375 214.50195312 57.0096875 214.53515625 58.109375 C214.54465427 65.8407612 212.7624899 70.35484103 207.8125 76.25 C207.16925781 77.05953125 206.52601563 77.8690625 205.86328125 78.703125 C198.61298878 86.19780935 188.60585156 90.92480979 178.09765625 91.36328125 C175.66495207 91.37351703 173.24336461 91.33966304 170.8125 91.25 C171.08964844 91.93707031 171.36679687 92.62414062 171.65234375 93.33203125 C172.01457031 94.23308594 172.37679687 95.13414062 172.75 96.0625 C173.10964844 96.95582031 173.46929687 97.84914063 173.83984375 98.76953125 C174.54863486 100.5770909 175.1985247 102.40807409 175.8125 104.25 C176.42738281 104.21519531 177.04226563 104.18039062 177.67578125 104.14453125 C178.48402344 104.11746094 179.29226563 104.09039062 180.125 104.0625 C181.32576172 104.01029297 181.32576172 104.01029297 182.55078125 103.95703125 C184.8125 104.25 184.8125 104.25 186.55859375 105.4375 C188.74884537 108.60347118 188.57758798 111.62598205 188.5078125 115.37890625 C187.23523602 120.63364621 183.13100239 123.33462113 178.8125 126.25 C175.63371306 127.83939347 173.3168228 127.66576711 169.8125 127.25 C166.03037715 123.95070134 164.9673895 122.55549722 164.375 117.5625 C164.8125 114.25 164.8125 114.25 166.8125 111.25 C165.85520084 110.12411986 164.89662105 108.9993285 163.9375 107.875 C163.40382813 107.24851562 162.87015625 106.62203125 162.3203125 105.9765625 C161.19817993 104.69163349 160.01878025 103.45628025 158.8125 102.25 C158.1525 102.25 157.4925 102.25 156.8125 102.25 C156.56886719 102.81976563 156.32523438 103.38953125 156.07421875 103.9765625 C154.5926122 106.6462065 152.7715657 108.45943814 150.625 110.625 C148.43756034 112.90999389 148.43756034 112.90999389 146.8125 115.25 C147.12053455 118.43522204 147.12053455 118.43522204 147.8125 121.25 C144.81670603 124.69516307 143.14314473 125.98387105 138.6875 126.875 C132.99868902 125.95744984 128.02523277 123.64665874 122.8125 121.25 C122.39795636 117.02165483 122.34754657 114.91837056 124.8125 111.375 C127.8125 109.25 127.8125 109.25 131.6875 109.1875 C133.80045892 109.18677094 133.80045892 109.18677094 135.8125 108.25 C138.70221179 104.5249809 140.76048171 100.48159448 142.8125 96.25 C143.20695313 95.46238281 143.60140625 94.67476563 144.0078125 93.86328125 C144.27335938 93.33089844 144.53890625 92.79851562 144.8125 92.25 C143.68610107 92.41226074 142.55970215 92.57452148 141.39916992 92.74169922 C136.72945378 93.32230108 132.12653492 93.39406037 127.42578125 93.3828125 C126.53863434 93.38413177 125.65148743 93.38545105 124.73745728 93.3868103 C121.866602 93.38871752 118.9958453 93.38240286 116.125 93.375 C115.14363068 93.37411377 114.16226135 93.37322754 113.15115356 93.37231445 C99.85041514 93.35821794 86.58144647 93.15322394 73.29150391 92.6081543 C63.79310744 92.2189907 54.31733018 92.14347015 44.8125 92.25 C46.07816466 97.47802185 47.44031159 102.40701026 49.8125 107.25 C52.24563888 108.67556419 53.86075333 108.84704912 56.6484375 109.01953125 C58.8125 109.25 58.8125 109.25 61.9375 111.5625 C63.8125 114.25 63.8125 114.25 64 116.75 C62.338581 120.24772421 59.93382369 122.11884412 56.8125 124.25 C56.13703125 124.72050781 55.4615625 125.19101562 54.765625 125.67578125 C49.23092299 129.15950326 44.32625768 130.489602 37.8125 129.25 C35.1875 127.6875 35.1875 127.6875 33.8125 125.25 C33.33715173 121.44721385 33.13344212 119.23645748 35.33984375 116.03125 C36.06880859 115.14953125 36.06880859 115.14953125 36.8125 114.25 C33.54529209 109.86105071 30.26351522 105.49740335 26.8125 101.25 C22.63432625 105.93656504 22.63432625 105.93656504 19.125 111.125 C17.8125 113.25 17.8125 113.25 14.8125 114.25 C14.3175 115.735 14.3175 115.735 13.8125 117.25 C13.1525 117.25 12.4925 117.25 11.8125 117.25 C12.1425 117.91 12.4725 118.57 12.8125 119.25 C12.88200541 120.79023996 12.89702357 122.33334988 12.875 123.875 C12.86597656 124.69226563 12.85695313 125.50953125 12.84765625 126.3515625 C12.83605469 126.97804688 12.82445312 127.60453125 12.8125 128.25 C7.80734695 131.33009418 3.55598265 132.28401488 -2.1875 131.25 C-10.3880814 127.84883721 -10.3880814 127.84883721 -12.1875 124.25 C-12.85808266 121.08687426 -13.01012766 118.39285951 -12.1875 115.25 C-8.7877772 111.67290036 -5.03924835 109.39729816 -0.09375 109.00390625 C3.10592068 108.52393213 3.10592068 108.52393213 4.7109375 105.30859375 C5.19820313 104.11363281 5.68546875 102.91867187 6.1875 101.6875 C6.69023437 100.48996094 7.19296875 99.29242188 7.7109375 98.05859375 C8.07445312 97.13175781 8.43796875 96.20492187 8.8125 95.25 C9.4725 95.25 10.1325 95.25 10.8125 95.25 C10.8125 94.59 10.8125 93.93 10.8125 93.25 C9.99007812 93.20101562 9.16765625 93.15203125 8.3203125 93.1015625 C-13.44489845 91.64384629 -13.44489845 91.64384629 -20.1875 85.25 C-28.62782642 73.8399291 -32.53870052 57.30978918 -31.1875 43.25 C-30.21268592 40.30625452 -28.84644328 37.85691087 -27.1875 35.25 C-26.73375 34.3425 -26.28 33.435 -25.8125 32.5 C-23.68019395 29.54757625 -21.27298005 28.19270966 -18.1875 26.25 C-15.85042741 24.4043119 -13.53867866 22.531798 -11.23828125 20.640625 C-9.1875 19.25 -9.1875 19.25 -6.1875 19.25 C-6.21070313 18.45335937 -6.23390625 17.65671875 -6.2578125 16.8359375 C-6.43977712 6.1520149 -6.43977712 6.1520149 -4.1875 1.25 C-3.1875 0.25 -3.1875 0.25 0 0 Z " fill="#111111" transform="translate(269.1875,155.75)"/>
<path d="M0 0 C4.48035444 2.19944673 6.86312614 4.50131818 9 9 C9.35367418 10.32808263 9.69075297 11.66087523 10 13 C15.08376435 13.1012254 20.07975177 13.03425685 25.140625 12.515625 C33.91792749 11.76403321 42.69572018 11.7139106 51.5 11.6875 C52.43099518 11.68388458 53.36199036 11.68026917 54.32119751 11.67654419 C81.92213279 11.63429682 109.58602807 13.85694121 137 17 C137.33 16.34 137.66 15.68 138 15 C138.66 15 139.32 15 140 15 C140 14.34 140 13.68 140 13 C142.79870027 11.60064987 144.90498792 11.74734595 148 12 C149.875 13.125 149.875 13.125 151 15 C151.25292101 17.97182182 151.3175425 20.21835693 150.1875 23 C150.125625 23.66 150.06375 24.32 150 25 C151.18929802 26.39317768 152.38114005 27.78426653 153.5859375 29.1640625 C161.37248954 39.27367427 159.39367751 52.98829347 159 65 C158.01 65.33 157.02 65.66 156 66 C155.98018066 65.2886792 155.96036133 64.5773584 155.93994141 63.84448242 C155.84475133 60.62511184 155.73504771 57.4063955 155.625 54.1875 C155.57859375 52.50817383 155.57859375 52.50817383 155.53125 50.79492188 C155.49257813 49.72177734 155.45390625 48.64863281 155.4140625 47.54296875 C155.3826416 46.55321045 155.3512207 45.56345215 155.31884766 44.54370117 C155.16226567 41.75924906 155.16226567 41.75924906 153 39 C152.7525 37.96875 152.505 36.9375 152.25 35.875 C150.96448566 30.95421968 147.93856293 27.0751769 145 23 C145.99 21.515 145.99 21.515 147 20 C147.16713569 17.37468476 147.16713569 17.37468476 147 15 C144.59122743 15.11341534 144.59122743 15.11341534 142 16 C140.32041203 18.49345452 140.32041203 18.49345452 139 21 C138.19304687 20.87882812 137.38609375 20.75765625 136.5546875 20.6328125 C125.53330132 19.11181441 114.48631144 18.36492734 103.38623047 17.69775391 C101.50508545 17.58246338 101.50508545 17.58246338 99.5859375 17.46484375 C98.4623584 17.399021 97.3387793 17.33319824 96.18115234 17.26538086 C93 17 93 17 90.29125977 16.49050903 C86.56023268 15.93445979 82.91972276 15.86737004 79.15869141 15.88647461 C78.39703674 15.88632858 77.63538208 15.88618256 76.85064697 15.8860321 C74.35092246 15.88672482 71.85127388 15.89448701 69.3515625 15.90234375 C67.61135906 15.90421021 65.87115509 15.90563304 64.13095093 15.90663147 C59.56401097 15.91043869 54.99710311 15.92025358 50.43017578 15.93133545 C45.76465285 15.94158823 41.09912471 15.94613736 36.43359375 15.95117188 C27.28904844 15.96187753 18.1445269 15.9789323 9 16 C8.34 17.65 7.68 19.3 7 21 C6.01 21 5.02 21 4 21 C4.52268466 18.23723823 5.10869587 15.6739124 6 13 C4.5614469 8.23056343 4.5614469 8.23056343 1.18359375 4.82421875 C-1.18019215 3.93198472 -3.2368656 3.59674715 -5.75 3.375 C-6.54921875 3.30023438 -7.3484375 3.22546875 -8.171875 3.1484375 C-8.77515625 3.09945312 -9.3784375 3.05046875 -10 3 C-11.97103025 7.18843928 -12 8.99852013 -12 14 C-25.365 14.495 -25.365 14.495 -39 15 C-39 14.34 -39 13.68 -39 13 C-31.27111181 11.04596958 -23.94957992 10.77571718 -16 11 C-15.81244141 9.60394531 -15.81244141 9.60394531 -15.62109375 8.1796875 C-13.95590859 -0.34522268 -7.48244548 -1.29503864 0 0 Z " fill="#252525" transform="translate(324,156)"/>
<path d="M0 0 C4.48035444 2.19944673 6.86312614 4.50131818 9 9 C9.35367418 10.32808263 9.69075297 11.66087523 10 13 C15.24695406 13.10447475 20.39928498 13.00825447 25.625 12.5 C33.08167563 11.80884599 40.51993504 11.91456779 48 12 C48 12.33 48 12.66 48 13 C61.365 13.495 61.365 13.495 75 14 C75 14.33 75 14.66 75 15 C68.97590184 15.14561626 62.95173536 15.28784207 56.92749023 15.42724609 C54.88840705 15.47487105 52.84934337 15.52334071 50.81030273 15.57275391 C36.87051462 15.90981269 22.9438389 16.06524705 9 16 C8.34 17.65 7.68 19.3 7 21 C6.01 21 5.02 21 4 21 C4.52268466 18.23723823 5.10869587 15.6739124 6 13 C4.5614469 8.23056343 4.5614469 8.23056343 1.18359375 4.82421875 C-1.18019215 3.93198472 -3.2368656 3.59674715 -5.75 3.375 C-6.54921875 3.30023438 -7.3484375 3.22546875 -8.171875 3.1484375 C-8.77515625 3.09945312 -9.3784375 3.05046875 -10 3 C-11.97103025 7.18843928 -12 8.99852013 -12 14 C-25.365 14.495 -25.365 14.495 -39 15 C-39 14.34 -39 13.68 -39 13 C-31.27111181 11.04596958 -23.94957992 10.77571718 -16 11 C-15.81244141 9.60394531 -15.81244141 9.60394531 -15.62109375 8.1796875 C-13.95590859 -0.34522268 -7.48244548 -1.29503864 0 0 Z " fill="#101010" transform="translate(324,156)"/>
<path d="M0 0 C4.91432378 0.32225074 8.12384767 1.56134767 11.625 5.0625 C13.09168267 7.76428386 13.46742025 10.2132982 13.8125 13.25 C13.1525 13.25 12.4925 13.25 11.8125 13.25 C11.44125 12.156875 11.07 11.06375 10.6875 9.9375 C9.38510133 6.89652197 8.86281813 6.28281617 5.9375 4.375 C3.20745733 3.39218464 0.67842693 2.67145984 -2.1875 2.25 C-2.93802396 5.07248328 -3.49319258 7.85421384 -3.875 10.75 C-3.98199219 11.5028125 -4.08898437 12.255625 -4.19921875 13.03125 C-4.18547424 15.63354478 -3.40027697 16.98243232 -2.1875 19.25 C-2.1875 20.24 -2.1875 21.23 -2.1875 22.25 C-2.72117187 22.37375 -3.25484375 22.4975 -3.8046875 22.625 C-12.67702824 25.08101128 -19.91593379 30.71919112 -25.1875 38.25 C-27.07781968 42.70139796 -27.54037184 46.81740255 -27.8125 51.625 C-27.88726562 52.87023437 -27.96203125 54.11546875 -28.0390625 55.3984375 C-28.08804688 56.33945313 -28.13703125 57.28046875 -28.1875 58.25 C-30.49703344 56.45505757 -31.13846377 55.54819329 -31.62109375 52.61328125 C-31.62990446 45.7321132 -30.8829876 41.0571948 -27.1875 35.25 C-26.73375 34.3425 -26.28 33.435 -25.8125 32.5 C-23.68019395 29.54757625 -21.27298005 28.19270966 -18.1875 26.25 C-15.85042741 24.4043119 -13.53867866 22.531798 -11.23828125 20.640625 C-9.1875 19.25 -9.1875 19.25 -6.1875 19.25 C-6.21070313 18.45335937 -6.23390625 17.65671875 -6.2578125 16.8359375 C-6.43977712 6.1520149 -6.43977712 6.1520149 -4.1875 1.25 C-3.1875 0.25 -3.1875 0.25 0 0 Z " fill="#181818" transform="translate(269.1875,155.75)"/>
<path d="M0 0 C18.53020099 -0.67401403 36.84400232 0.45718676 55.3125 1.875 C56.47672485 1.96213257 57.64094971 2.04926514 58.8404541 2.13903809 C62.20303541 2.39331119 65.56447523 2.65912287 68.92578125 2.9296875 C70.44468712 3.04547653 70.44468712 3.04547653 71.99427795 3.16360474 C77.2499491 3.60521568 81.99047551 4.33524019 87 6 C87 6.66 87 7.32 87 8 C86.30342285 7.93868896 85.6068457 7.87737793 84.88916016 7.81420898 C77.99538307 7.22190761 71.10025353 6.73629868 64.19482422 6.30249023 C44.84302994 5.08666422 44.84302994 5.08666422 35.875 3.9375 C23.65968227 2.38361329 11.29620623 2.32323859 -1 2 C-0.67 1.34 -0.34 0.68 0 0 Z " fill="#111111" transform="translate(372,168)"/>
<path d="M0 0 C1.26328125 0.02707031 2.5265625 0.05414063 3.828125 0.08203125 C4.79234375 0.11683594 5.7565625 0.15164062 6.75 0.1875 C6.75 0.8475 6.75 1.5075 6.75 2.1875 C5.94175781 2.20167969 5.13351562 2.21585938 4.30078125 2.23046875 C-2.41712918 2.51703359 -2.41712918 2.51703359 -8.5 5.125 C-10.92356313 9.36623547 -11.51454039 13.42687736 -10.25 18.1875 C-7.52017388 21.86366584 -6.01950539 23.0431679 -1.48046875 23.89453125 C-0.13365134 23.95365982 1.21443526 23.98838987 2.5625 24 C3.25537109 24.02513672 3.94824219 24.05027344 4.66210938 24.07617188 C6.35747122 24.13463263 8.05379287 24.16403047 9.75 24.1875 C9.42 25.1775 9.09 26.1675 8.75 27.1875 C6.18508544 27.12721999 3.62578243 27.04012053 1.0625 26.9375 C0.34126953 26.92332031 -0.37996094 26.90914062 -1.12304688 26.89453125 C-5.98095737 26.67270885 -8.79623567 25.92056283 -12.25 22.1875 C-12.25 21.1975 -12.25 20.2075 -12.25 19.1875 C-12.91 19.1875 -13.57 19.1875 -14.25 19.1875 C-14.25 15.8875 -14.25 12.5875 -14.25 9.1875 C-13.59 9.1875 -12.93 9.1875 -12.25 9.1875 C-12.1675 8.259375 -12.085 7.33125 -12 6.375 C-11.25 3.1875 -11.25 3.1875 -9.65625 1.5 C-6.33614668 -0.31096545 -3.75491376 -0.10430316 0 0 Z " fill="#2A2A2A" transform="translate(276.25,192.8125)"/>
<path d="M0 0 C0 0.33 0 0.66 0 1 C13.365 1.495 13.365 1.495 27 2 C27 2.33 27 2.66 27 3 C20.95758757 3.14545116 14.91511013 3.28769306 8.87255859 3.42724609 C6.82664056 3.47491486 4.78074106 3.52338779 2.73486328 3.57275391 C-10.84641529 3.89977241 -24.4147692 4.0674577 -38 4 C-38 3.67 -38 3.34 -38 3 C-34.7 2.67 -31.4 2.34 -28 2 C-28 1.67 -28 1.34 -28 1 C-18.64087671 0.00736571 -9.39605802 -0.10731538 0 0 Z " fill="#434343" transform="translate(372,168)"/>
<path d="M0 0 C1.32 0.33 2.64 0.66 4 1 C2.53743342 5.1363211 0.48155363 8.45421154 -2 12.0625 C-4.7851837 16.02038321 -4.7851837 16.02038321 -6.9296875 20.32421875 C-8 22 -8 22 -10.3828125 22.609375 C-11.28773438 22.65578125 -12.19265625 22.7021875 -13.125 22.75 C-14.03507812 22.80671875 -14.94515625 22.8634375 -15.8828125 22.921875 C-16.58148438 22.94765625 -17.28015625 22.9734375 -18 23 C-18.103125 23.94875 -18.20625 24.8975 -18.3125 25.875 C-19 29 -19 29 -22 31 C-22.41454364 26.77165483 -22.46495343 24.66837056 -20 21.125 C-17 19 -17 19 -13.125 18.9375 C-11.00925507 18.937292 -11.00925507 18.937292 -9 18 C-6.81210098 15.1291981 -5.18873584 12.18991004 -3.54296875 8.98046875 C-2.20975015 6.40516294 -0.81367614 4.24939413 1 2 C0.67 1.34 0.34 0.68 0 0 Z " fill="#1E1E1E" transform="translate(414,246)"/>
<path d="M0 0 C4.91432378 0.32225074 8.12384767 1.56134767 11.625 5.0625 C13.09168267 7.76428386 13.46742025 10.2132982 13.8125 13.25 C13.1525 13.25 12.4925 13.25 11.8125 13.25 C11.44125 12.156875 11.07 11.06375 10.6875 9.9375 C9.38510133 6.89652197 8.86281813 6.28281617 5.9375 4.375 C3.20745733 3.39218464 0.67842693 2.67145984 -2.1875 2.25 C-3.1755383 5.86457345 -3.5548245 9.40756127 -3.90625 13.12890625 C-4.1875 15.25 -4.1875 15.25 -5.1875 18.25 C-7.38406797 13.85686406 -6.47794809 8.33433952 -5.25 3.75 C-3.78232759 0.29665314 -3.78232759 0.29665314 0 0 Z " fill="#101010" transform="translate(269.1875,155.75)"/>
<path d="M0 0 C0.99 0 1.98 0 3 0 C3.28571429 7.42857143 3.28571429 7.42857143 1 11 C-0.98 11 -2.96 11 -5 11 C-7.09350689 7.5980513 -7.17942163 4.94727588 -7 1 C-6.01 1 -5.02 1 -4 1 C-3.67 2.98 -3.34 4.96 -3 7 C-2.34 7 -1.68 7 -1 7 C-0.67 4.69 -0.34 2.38 0 0 Z " fill="#1A1A1A" transform="translate(396,215)"/>
<path d="M0 0 C0.99 0 1.98 0 3 0 C3.66 2.31 4.32 4.62 5 7 C5.33 5.02 5.66 3.04 6 1 C6.99 1 7.98 1 9 1 C9.25 7.625 9.25 7.625 7 11 C4.625 10.6875 4.625 10.6875 2 10 C-0.4294516 6.3558226 -0.16179575 4.28758728 0 0 Z " fill="#1D1D1D" transform="translate(336,188)"/>
<path d="M0 0 C0.99 0.66 1.98 1.32 3 2 C3 2.99 3 3.98 3 5 C-10.365 5.495 -10.365 5.495 -24 6 C-24 5.34 -24 4.68 -24 4 C-21.00293305 3.13036913 -18.35043474 2.88236901 -15.234375 2.90234375 C-14.34492188 2.90556641 -13.45546875 2.90878906 -12.5390625 2.91210938 C-11.61867188 2.92048828 -10.69828125 2.92886719 -9.75 2.9375 C-8.81414062 2.94201172 -7.87828125 2.94652344 -6.9140625 2.95117188 C-4.60930959 2.96293082 -2.30468773 2.97936574 0 3 C0 2.01 0 1.02 0 0 Z " fill="#0B0B0B" transform="translate(309,165)"/>
<path d="M0 0 C1.27230469 0.01804688 2.54460937 0.03609375 3.85546875 0.0546875 C5.31919922 0.08949219 5.31919922 0.08949219 6.8125 0.125 C6.8125 0.785 6.8125 1.445 6.8125 2.125 C6.00425781 2.13917969 5.19601562 2.15335938 4.36328125 2.16796875 C-2.32918094 2.41809458 -2.32918094 2.41809458 -8.3125 5.125 C-10.72990729 8.99285166 -11.53423783 12.64966665 -12.1875 17.125 C-12.5175 17.125 -12.8475 17.125 -13.1875 17.125 C-13.50115567 11.16554222 -13.03752662 7.40282708 -10.1875 2.125 C-6.4507157 -0.36618953 -4.44298181 -0.0815226 0 0 Z " fill="#232323" transform="translate(276.1875,192.875)"/>
<path d="M0 0 C2.203125 0.55078125 2.203125 0.55078125 5.890625 1.86328125 C5.890625 2.19328125 5.890625 2.52328125 5.890625 2.86328125 C3.250625 2.86328125 0.610625 2.86328125 -2.109375 2.86328125 C-2.3775 3.60578125 -2.645625 4.34828125 -2.921875 5.11328125 C-4.13319534 7.91844414 -4.93090842 9.72112245 -7.109375 11.86328125 C-10.46484375 12.25390625 -10.46484375 12.25390625 -14.296875 12.11328125 C-15.56917969 12.0771875 -16.84148437 12.04109375 -18.15234375 12.00390625 C-19.12816406 11.9575 -20.10398437 11.91109375 -21.109375 11.86328125 C-21.109375 11.53328125 -21.109375 11.20328125 -21.109375 10.86328125 C-16.819375 10.86328125 -12.529375 10.86328125 -8.109375 10.86328125 C-7.779375 8.88328125 -7.449375 6.90328125 -7.109375 4.86328125 C-3.60521988 -0.23367166 -3.60521988 -0.23367166 0 0 Z " fill="#3B3B3B" transform="translate(316.109375,156.13671875)"/>
<path d="M0 0 C0.99 0 1.98 0 3 0 C3.33 1.98 3.66 3.96 4 6 C3.12988281 6.25523437 3.12988281 6.25523437 2.2421875 6.515625 C-2.80356871 8.08097511 -6.75955006 9.84684491 -11 13 C-9.43903239 9.16853404 -7.08588695 6.71851946 -4 4 C-1.6875 3.1875 -1.6875 3.1875 0 3 C0 2.01 0 1.02 0 0 Z " fill="#2A2A2A" transform="translate(263,172)"/>
<path d="M0 0 C0.99 0 1.98 0 3 0 C3.25 6.625 3.25 6.625 1 10 C-0.65 9.67 -2.3 9.34 -4 9 C-4.33 6.69 -4.66 4.38 -5 2 C-4.01 2.33 -3.02 2.66 -2 3 C-2 3.99 -2 4.98 -2 6 C-1.34 6 -0.68 6 0 6 C0 4.02 0 2.04 0 0 Z " fill="#1C1C1C" transform="translate(327,199)"/>
<path d="M0 0 C0.99 0.33 1.98 0.66 3 1 C3.33 2.65 3.66 4.3 4 6 C6.51083114 4.74458443 6.87125446 3.49936512 8 1 C8.625 3.3125 8.625 3.3125 9 6 C8.01 7.485 8.01 7.485 7 9 C4.625 8.6875 4.625 8.6875 2 8 C-0.1519437 4.77208445 -0.20086443 3.71599191 0 0 Z " fill="#242424" transform="translate(424,189)"/>
<path d="M0 0 C1.98 0.99 1.98 0.99 4 2 C4 2.99 4 3.98 4 5 C4.66 4.67 5.32 4.34 6 4 C6.33 3.01 6.66 2.02 7 1 C7.66 1 8.32 1 9 1 C8.25 5.75 8.25 5.75 6 8 C3.375 7.625 3.375 7.625 1 7 C0.67 4.69 0.34 2.38 0 0 Z " fill="#212121" transform="translate(460,221)"/>
<path d="M0 0 C1.75 0.9375 1.75 0.9375 2.75 2.9375 C0.77 3.2675 -1.21 3.5975 -3.25 3.9375 C-3.353125 4.88625 -3.45625 5.835 -3.5625 6.8125 C-4.25 9.9375 -4.25 9.9375 -7.25 11.9375 C-7.68497796 7.50072479 -7.72502251 5.57086334 -5 1.9375 C-2.25 -0.0625 -2.25 -0.0625 0 0 Z " fill="#2E2E2E" transform="translate(399.25,265.0625)"/>
<path d="M0 0 C0.66 0.33 1.32 0.66 2 1 C0.35 3.64 -1.3 6.28 -3 9 C-4.32 8.67 -5.64 8.34 -7 8 C-7 6 -7 6 -5.625 4.375 C-4 3 -4 3 -2 3 C-2 2.34 -2 1.68 -2 1 C-1.34 0.67 -0.68 0.34 0 0 Z " fill="#2F2F2F" transform="translate(466,168)"/>
<path d="M0 0 C0.66 0 1.32 0 2 0 C1.34 2.31 0.68 4.62 0 7 C-2.375 7.625 -2.375 7.625 -5 8 C-5.66 7.34 -6.32 6.68 -7 6 C-6.21625 5.7525 -5.4325 5.505 -4.625 5.25 C-1.67682892 3.84610901 -1.0975223 2.99324263 0 0 Z " fill="#111111" transform="translate(407,260)"/>
<path d="M0 0 C-2.54456151 2.96865509 -5.48994665 4.3619751 -9 6 C-8.8125 4.1875 -8.8125 4.1875 -8 2 C-3.744 -1.248 -3.744 -1.248 0 0 Z " fill="#212121" transform="translate(269,266)"/>
<path d="M0 0 C4.875 0.875 4.875 0.875 6 2 C6.04063832 3.66617115 6.042721 5.33388095 6 7 C5.01 7.495 5.01 7.495 4 8 C3.67 6.35 3.34 4.7 3 3 C1.68 3 0.36 3 -1 3 C-0.67 2.01 -0.34 1.02 0 0 Z " fill="#080808" transform="translate(468,168)"/>
<path d="M0 0 C0.33 0 0.66 0 1 0 C1.25 5.625 1.25 5.625 -1 9 C-2.32 8.67 -3.64 8.34 -5 8 C-4.0409375 7.13375 -4.0409375 7.13375 -3.0625 6.25 C-1.01776132 4.01937599 -0.41794801 2.92563609 0 0 Z " fill="#1F1F1F" transform="translate(474,171)"/>
<path d="M0 0 C0.99 0 1.98 0 3 0 C3 2.31 3 4.62 3 7 C2.01 7 1.02 7 0 7 C0 4.69 0 2.38 0 0 Z " fill="#262626" transform="translate(396,215)"/>
<path d="M0 0 C2.0625 2.25 2.0625 2.25 4 5 C3.75 7.3125 3.75 7.3125 3 9 C1.5 7.875 1.5 7.875 0 6 C-0.1875 2.8125 -0.1875 2.8125 0 0 Z " fill="#111111" transform="translate(478,191)"/>
<path d="M0 0 C0.66 0 1.32 0 2 0 C1.67 1.65 1.34 3.3 1 5 C-0.98 5 -2.96 5 -5 5 C-4 3 -4 3 -1 2 C-0.67 1.34 -0.34 0.68 0 0 Z " fill="#181818" transform="translate(273,262)"/>
</svg>
