<?xml version="1.0" encoding="UTF-8"?>
<svg version="1.1" xmlns="http://www.w3.org/2000/svg" width="800" height="300">
<path d="M0 0 C264 0 528 0 800 0 C800 99 800 198 800 300 C536 300 272 300 0 300 C0 201 0 102 0 0 Z " fill="#FEFEFE" transform="translate(0,0)"/>
<path d="M0 0 C5.77481791 -0.48123483 10.26953246 0.47661728 15 4 C16.93551992 7.11661994 17.20289203 9.34794339 17 13 C16.34 13 15.68 13 15 13 C14.62875 11.906875 14.2575 10.81375 13.875 9.6875 C12.57260133 6.64652197 12.05031813 6.03281617 9.125 4.125 C6.39495733 3.14218464 3.86592693 2.42145984 1 2 C-0.37004923 8.85024615 -0.37004923 15.14975385 1 22 C0.443125 22.13535156 -0.11375 22.27070313 -0.6875 22.41015625 C-6.46987964 24.04133429 -10.07758864 26.38479861 -14.37109375 30.57421875 C-16 32 -16 32 -18 32 C-18.28617188 32.57492188 -18.57234375 33.14984375 -18.8671875 33.7421875 C-19.58485299 35.17256906 -20.31750433 36.59561031 -21.0703125 38.0078125 C-25.89415517 47.69123 -24.29630573 56.10120885 -21.265625 66.23046875 C-18.47669192 74.53701327 -16.0287164 81.71172089 -8 86 C-5.27866284 86.81612367 -2.5581395 87.27646851 0.25 87.6875 C0.99564209 87.80778564 1.74128418 87.92807129 2.50952148 88.05200195 C7.98913078 88.91388955 13.46971994 89.56108888 19 90 C18.60573806 92.75983355 18.14406027 93.86010676 16.109375 95.8359375 C13.48347969 98.52991157 12.59275986 101.12592578 11.25 104.625 C8.59670215 110.64361993 8.59670215 110.64361993 6.01171875 112.1875 C3.9375 112.625 3.9375 112.625 0 113 C-3.03824575 113.92020732 -3.03824575 113.92020732 -5 116 C-5.71886492 118.81653633 -5.71023502 121.18253877 -5 124 C-2.11500415 126.97806023 0.64828883 127.18924142 4.625 127.3125 C8.12831715 127.29456493 8.92745875 127.04836083 12 125 C12.09780806 122.72156883 12.09780806 122.72156883 11.75 120.1875 C11.60061737 115.4344162 11.60061737 115.4344162 13.3359375 113.546875 C14.56345266 112.78570839 15.8068918 112.04981152 17.0625 111.3359375 C20.10670327 109.23691024 21.65016114 106.32581623 23.578125 103.2265625 C25.48187586 100.24541418 27.67816529 97.66328099 30 95 C33.90186951 96.30062317 34.12119896 97.64630456 35.9375 101.25 C38.67311011 106.47068166 41.0188708 110.6792472 46 114 C45.75 115.875 45.75 115.875 45 118 C42.9375 119.25 42.9375 119.25 41 120 C41 121.32 41 122.64 41 124 C44.10136046 125.55068023 46.67150681 125.73509125 50 125 C55.06256093 122.39898729 59.81113701 119.78329448 63 115 C59.96474514 112.97649676 58.80573798 112.67875982 55.3125 112.375 C53.15625 112.1875 53.15625 112.1875 51 112 C50.59007812 110.80761719 50.18015625 109.61523438 49.7578125 108.38671875 C49.21376431 106.82023516 48.6694812 105.25383314 48.125 103.6875 C47.85558594 102.90181641 47.58617187 102.11613281 47.30859375 101.30664062 C47.04433594 100.54931641 46.78007812 99.79199219 46.5078125 99.01171875 C46.26691895 98.31522217 46.02602539 97.61872559 45.77783203 96.90112305 C44.96234576 94.72867697 44.96234576 94.72867697 43 92 C43 90.68 43 89.36 43 88 C55.84782546 87.88540096 68.65923341 88.04015746 81.5 88.5 C99.19575778 89.1228583 116.77145781 89.26374553 134.45776367 88.3581543 C140.98163245 88.02527325 147.46658781 87.87594787 154 88 C153.39874814 90.94452 152.51613203 93.02230229 150.8203125 95.49609375 C150.38589844 96.13740234 149.95148438 96.77871094 149.50390625 97.43945312 C149.04886719 98.09880859 148.59382812 98.75816406 148.125 99.4375 C147.2307258 100.7479854 146.33747391 102.05916908 145.4453125 103.37109375 C145.01887451 103.99056885 144.59243652 104.61004395 144.15307617 105.24829102 C142.86036731 107.15425203 142.86036731 107.15425203 141.43359375 109.9296875 C140 112 140 112 138.02734375 112.63671875 C137.33769531 112.65347656 136.64804687 112.67023438 135.9375 112.6875 C131.99557113 112.5717978 131.99557113 112.5717978 130 115 C130 116.32 130 117.64 130 119 C135.79622721 121.32637691 139.86090397 122.43680971 146 121 C145.835 120.4225 145.67 119.845 145.5 119.25 C145 117 145 117 145 113 C146.63282423 111.94564578 148.30628164 110.95346521 150 110 C152.21543928 107.71315915 152.21543928 107.71315915 154.1875 105.125 C154.86167969 104.28195312 155.53585937 103.43890625 156.23046875 102.5703125 C157.93273146 100.09771015 159.01315441 97.8238966 160 95 C160.99 95 161.98 95 163 95 C164.61328125 96.9765625 164.61328125 96.9765625 166.3125 99.625 C168.48767359 102.89238842 170.59367651 105.79095487 173.4375 108.5 C174.283125 109.325 175.12875 110.15 176 111 C176 111.66 176 112.32 176 113 C174 114.625 174 114.625 172 116 C172.33 117.98 172.66 119.96 173 122 C176.53722984 122.90487275 178.3714202 123.28571809 181.75 121.75 C184.21081851 120.02635231 184.21081851 120.02635231 186 117 C186.66 117 187.32 117 188 117 C188 114.03 188 111.06 188 108 C184.37 108 180.74 108 177 108 C175.86988348 105.7941576 174.74584212 103.58554973 173.625 101.375 C173.30789063 100.75753906 172.99078125 100.14007813 172.6640625 99.50390625 C170.76407197 95.74350833 169.23211496 92.04482184 168 88 C170.50891408 87.1971475 172.44061053 87.0088788 175.1015625 87.0625 C185.81372341 86.89076195 196.63392971 84.6017682 204.859375 77.48828125 C205.56578125 76.66714844 206.2721875 75.84601563 207 75 C207.52150635 74.39397949 208.0430127 73.78795898 208.58032227 73.16357422 C213.5150221 66.75885556 213.77697207 61.3987023 213.4375 53.5 C213.41880859 52.40429688 213.40011719 51.30859375 213.38085938 50.1796875 C213.70929355 45.23548758 213.70929355 45.23548758 212 41 C211.9175 39.96875 211.835 38.9375 211.75 37.875 C210.93728537 33.67597442 209.67934615 31.72485628 207.05859375 28.48046875 C206 27 206 27 206 25 C205.34 25 204.68 25 204 25 C204.144375 24.443125 204.28875 23.88625 204.4375 23.3125 C205.02769128 20.88615805 205.523429 18.45093655 206 16 C204.16299211 15.22757731 204.16299211 15.22757731 202 15 C199.74015575 16.73834173 198.60199072 18.59701393 197 21 C196.34 21 195.68 21 195 21 C195 19.68 195 18.36 195 17 C195.66 17 196.32 17 197 17 C197.28875 16.360625 197.5775 15.72125 197.875 15.0625 C199 13 199 13 201 12 C204 11.75 204 11.75 207 12 C209.45410358 15.68115537 209.23287843 17.65293598 209 22 C208.67 22.99 208.34 23.98 208 25 C208.763125 25.61875 209.52625 26.2375 210.3125 26.875 C213.49581161 30.00420433 214.32986218 33.55824461 215.421875 37.79296875 C215.92438316 40.02040955 215.92438316 40.02040955 217 42 C217.35211678 46.01330762 217.37118829 50.03577871 217.4375 54.0625 C217.48326172 55.17044922 217.52902344 56.27839844 217.57617188 57.41992188 C217.68446933 65.38213927 216.14707819 69.94216562 211 76 C210.37996094 76.79792969 209.75992188 77.59585938 209.12109375 78.41796875 C200.7223068 87.24546408 190.92423212 90.53245207 179.02929688 90.95092773 C177.35314635 90.98574453 175.67650657 90.99569575 174 91 C174.61855631 92.6274637 175.24507305 94.25190356 175.875 95.875 C176.39707031 97.23238281 176.39707031 97.23238281 176.9296875 98.6171875 C177.88530895 101.12217007 177.88530895 101.12217007 180 103 C182.00538329 103.22282037 184.01299827 103.44187467 186.02734375 103.55859375 C188.59558807 104.1332702 189.46158209 104.87131298 191 107 C191.95905909 110.8054973 191.92268566 114.19003391 191 118 C187.26120689 122.73730613 182.75848943 126.63567121 176.6875 127.4375 C173 127 173 127 170.0625 124.4375 C167.59152923 121.00740242 167.44581126 118.19600048 168 114 C168.99 112.515 168.99 112.515 170 111 C167.69 108.03 165.38 105.06 163 102 C156.25425226 107.29818857 156.25425226 107.29818857 151 114 C151 115.19625 151 116.3925 151 117.625 C151 121 151 121 148.4375 123.9375 C144.88555703 126.43793537 142.34311316 126.65146697 138 126 C133.8715602 124.60936764 129.89584278 122.94792139 126 121 C125.625 117.8125 125.625 117.8125 126 114 C129.25662215 110.34622881 130.50886249 109.1165215 135.44921875 108.73046875 C139.16296125 108.33196146 139.16296125 108.33196146 141.328125 105.41796875 C142.27945313 103.81888672 142.27945313 103.81888672 143.25 102.1875 C143.89453125 101.12917969 144.5390625 100.07085937 145.203125 98.98046875 C145.79609375 97.99691406 146.3890625 97.01335937 147 96 C147.98920659 94.65863946 148.9872459 93.32367175 150 92 C149.3884758 92.07064667 148.7769516 92.14129333 148.14689636 92.21408081 C142.23797301 92.85677668 136.42929619 93.14728284 130.48828125 93.1328125 C129.16987244 93.13485939 129.16987244 93.13485939 127.8248291 93.13694763 C124.98734671 93.13895908 122.14997161 93.13267958 119.3125 93.125 C118.34001312 93.12378143 117.36752625 93.12256287 116.36557007 93.12130737 C93.55498384 93.08783777 70.76123257 92.58956602 48 91 C48.3609375 92.05960937 48.721875 93.11921875 49.09375 94.2109375 C49.56265793 95.59890499 50.03139931 96.98692875 50.5 98.375 C50.85771484 99.42300781 50.85771484 99.42300781 51.22265625 100.4921875 C53 105.7734375 53 105.7734375 53 108 C53.68707031 108.13277344 54.37414062 108.26554687 55.08203125 108.40234375 C56.43361328 108.66724609 56.43361328 108.66724609 57.8125 108.9375 C59.15248047 109.19853516 59.15248047 109.19853516 60.51953125 109.46484375 C63 110 63 110 66 111 C66.9375 114.125 66.9375 114.125 67 118 C65.10749405 120.61555639 62.67510166 122.23598369 60 124 C59.2884375 124.48984375 58.576875 124.9796875 57.84375 125.484375 C52.55706469 128.79786086 48.20456589 129.87212773 42 129 C39 128 39 128 37 125 C36.92094936 122.66800612 36.91201231 120.33167378 37 118 C38.32 117.34 39.64 116.68 41 116 C40.3503125 115.01257813 39.700625 114.02515625 39.03125 113.0078125 C38.18726167 111.71369707 37.34352465 110.41941771 36.5 109.125 C36.07074219 108.47402344 35.64148438 107.82304687 35.19921875 107.15234375 C32 102.2265625 32 102.2265625 32 100 C28.10179659 103.66194866 24.92423715 107.61292617 21.74609375 111.9140625 C20 114 20 114 17.80078125 115.41796875 C15.71572761 116.90462645 15.71572761 116.90462645 15.609375 119.69921875 C15.65578125 120.68535156 15.7021875 121.67148437 15.75 122.6875 C15.80414063 124.17830078 15.80414063 124.17830078 15.859375 125.69921875 C15.90578125 126.45847656 15.9521875 127.21773438 16 128 C10.99329643 131.08104835 6.74604585 131.92774699 1 131 C-2.50412767 129.58640304 -5.31679023 127.68320977 -8 125 C-8.56043191 121.61381138 -8.51194925 118.39097565 -8 115 C-5.84157187 112.26599104 -4.03365056 111.27936502 -0.6875 110.375 C3.88966608 109.03534164 6.75720781 107.81779925 9.203125 103.6328125 C11.00090312 100.16901668 12.5394936 96.61741321 14 93 C13.45214844 93.04640625 12.90429688 93.0928125 12.33984375 93.140625 C2.30200471 93.59763231 -9.06825717 91.42200769 -17 85 C-18.828125 82.1953125 -18.828125 82.1953125 -20.25 79.125 C-20.72953125 78.11695313 -21.2090625 77.10890625 -21.703125 76.0703125 C-26.36130701 65.04220689 -29.73057333 51.2332789 -26.2421875 39.4375 C-23.41463883 33.55976103 -19.18008426 28.88333889 -14.125 24.8125 C-13.30257812 24.13832031 -12.48015625 23.46414062 -11.6328125 22.76953125 C-8.82521803 20.88252785 -6.24123021 19.92134095 -3 19 C-3.05220703 17.82244141 -3.05220703 17.82244141 -3.10546875 16.62109375 C-3.27019021 10.22833246 -3.07880961 5.64448429 0 0 Z " fill="#111111" transform="translate(258,156)"/>
<path d="M0 0 C4.48035444 2.19944673 6.86312614 4.50131818 9 9 C9.35367418 10.32808263 9.69075297 11.66087523 10 13 C15.08376435 13.1012254 20.07975177 13.03425685 25.140625 12.515625 C33.91781349 11.76404297 42.69580129 11.7130358 51.5 11.6875 C52.43066284 11.68421692 53.36132568 11.68093384 54.32019043 11.67755127 C71.02143464 11.65885558 87.6032353 12.57474621 104.25 13.875 C105.94902466 14.0055629 105.94902466 14.0055629 107.68237305 14.13876343 C110.9194211 14.39191915 114.15512735 14.65748621 117.390625 14.9296875 C118.8254422 15.04548409 118.8254422 15.04548409 120.28924561 15.16362 C125.71778144 15.64557946 130.74939605 16.53176703 136 18 C136 18.66 136 19.32 136 20 C135.31067383 19.93941406 134.62134766 19.87882812 133.91113281 19.81640625 C124.21003407 18.98369391 114.49838683 18.36210311 104.78125 17.75 C103.50765625 17.6675 102.2340625 17.585 100.921875 17.5 C99.78331055 17.4278125 98.64474609 17.355625 97.47167969 17.28125 C95.08650222 17.08802043 92.70685048 16.81533825 90.33789062 16.47705078 C84.79766284 15.76232708 79.24933179 15.85711518 73.671875 15.8671875 C72.48764954 15.86623077 71.30342407 15.86527405 70.08331299 15.86428833 C67.57865343 15.86360956 65.07399209 15.86544267 62.56933594 15.86962891 C58.80399432 15.87492407 55.03877515 15.86970337 51.2734375 15.86328125 C44.18151374 15.85965013 37.09129261 15.90578003 30 16 C28.95835693 16.01325317 27.91671387 16.02650635 26.84350586 16.04016113 C24.02451162 16.08786082 21.20847362 16.16562953 18.390625 16.2578125 C17.572453 16.27141815 16.75428101 16.2850238 15.91131592 16.29904175 C13.41094517 16.35993438 13.41094517 16.35993438 10 17 C8.14441276 18.93457108 8.14441276 18.93457108 7 21 C6.01 21 5.02 21 4 21 C4.52268466 18.23723823 5.10869587 15.6739124 6 13 C5.72230092 10.6593935 5.39460023 8.32375692 5 6 C0.0585102 4.02340408 -3.75227983 3.3978026 -9 4 C-12.18926611 7.48825981 -12 9.13135166 -12 14 C-25.365 14.495 -25.365 14.495 -39 15 C-39 14.34 -39 13.68 -39 13 C-33.88763219 10.92565268 -29.53669107 10.75575935 -24.125 10.875 C-22.949375 10.88853516 -22.949375 10.88853516 -21.75 10.90234375 C-19.83319945 10.92571937 -17.91655809 10.96158347 -16 11 C-15.855625 10.236875 -15.71125 9.47375 -15.5625 8.6875 C-14.46376812 3.43800322 -14.46376812 3.43800322 -12.2421875 1.33984375 C-8.34642871 -0.98810967 -4.39323996 -0.62463127 0 0 Z " fill="#1C1C1C" transform="translate(316,156)"/>
<path d="M0 0 C2.45410358 3.68115537 2.23287843 5.65293598 2 10 C1.67 10.99 1.34 11.98 1 13 C1.763125 13.61875 2.52625 14.2375 3.3125 14.875 C6.49581161 18.00420433 7.32986218 21.55824461 8.421875 25.79296875 C8.92438316 28.02040955 8.92438316 28.02040955 10 30 C10.084915 31.8863912 10.107193 33.77578515 10.09765625 35.6640625 C10.09443359 36.78554687 10.09121094 37.90703125 10.08789062 39.0625 C10.07951172 40.238125 10.07113281 41.41375 10.0625 42.625 C10.05798828 43.80835938 10.05347656 44.99171875 10.04882812 46.2109375 C10.03701467 49.14067507 10.02054258 52.07031272 10 55 C8.02 55.495 8.02 55.495 6 56 C6.00523682 55.21761963 6.01047363 54.43523926 6.01586914 53.62915039 C6.03657106 50.10694167 6.04963838 46.5847457 6.0625 43.0625 C6.07087891 41.83080078 6.07925781 40.59910156 6.08789062 39.33007812 C6.09111328 38.16025391 6.09433594 36.99042969 6.09765625 35.78515625 C6.10289307 34.70113525 6.10812988 33.61711426 6.11352539 32.50024414 C6.28426897 30.05950052 6.28426897 30.05950052 5 29 C4.9175 27.96875 4.835 26.9375 4.75 25.875 C3.93728537 21.67597442 2.67934615 19.72485628 0.05859375 16.48046875 C-1 15 -1 15 -1 13 C-1.66 13 -2.32 13 -3 13 C-2.855625 12.443125 -2.71125 11.88625 -2.5625 11.3125 C-1.97230872 8.88615805 -1.476571 6.45093655 -1 4 C-2.83700789 3.22757731 -2.83700789 3.22757731 -5 3 C-7.25984425 4.73834173 -8.39800928 6.59701393 -10 9 C-10.66 9 -11.32 9 -12 9 C-12 7.68 -12 6.36 -12 5 C-11.34 5 -10.68 5 -10 5 C-9.71125 4.360625 -9.4225 3.72125 -9.125 3.0625 C-7.02490162 -0.78768037 -4.05205235 -0.33767103 0 0 Z " fill="#1F1F1F" transform="translate(465,168)"/>
<path d="M0 0 C5.77481791 -0.48123483 10.26953246 0.47661728 15 4 C16.93551992 7.11661994 17.20289203 9.34794339 17 13 C16.34 13 15.68 13 15 13 C14.62875 11.906875 14.2575 10.81375 13.875 9.6875 C12.57260133 6.64652197 12.05031813 6.03281617 9.125 4.125 C6.39495733 3.14218464 3.86592693 2.42145984 1 2 C-0.37004923 8.85024615 -0.37004923 15.14975385 1 22 C0.443125 22.13535156 -0.11375 22.27070313 -0.6875 22.41015625 C-6.46987964 24.04133429 -10.07758864 26.38479861 -14.37109375 30.57421875 C-16 32 -16 32 -18 32 C-18.2475 32.639375 -18.495 33.27875 -18.75 33.9375 C-20 36 -20 36 -22.125 36.75 C-22.74375 36.8325 -23.3625 36.915 -24 37 C-22.42525801 33.1347242 -20.02964023 30.832055 -17 28 C-16.37480469 27.40445313 -15.74960938 26.80890625 -15.10546875 26.1953125 C-11.26801011 22.65868714 -8.22717602 20.1761146 -3 19 C-3.05220703 17.82244141 -3.05220703 17.82244141 -3.10546875 16.62109375 C-3.27019021 10.22833246 -3.07880961 5.64448429 0 0 Z " fill="#121212" transform="translate(258,156)"/>
<path d="M0 0 C0 0.66 0 1.32 0 2 C-0.71027344 2.27714844 -1.42054688 2.55429687 -2.15234375 2.83984375 C-3.53099609 3.38318359 -3.53099609 3.38318359 -4.9375 3.9375 C-5.85402344 4.29714844 -6.77054687 4.65679687 -7.71484375 5.02734375 C-9.92418533 5.7996218 -9.92418533 5.7996218 -11 7 C-11.28309837 9.9253498 -11.48539109 12.15617925 -11 15 C-8.11500415 17.97806023 -5.35171117 18.18924142 -1.375 18.3125 C2.12831715 18.29456493 2.92745875 18.04836083 6 16 C6.1724908 13.42148362 5.93084363 10.98320748 5.71484375 8.41015625 C6 6 6 6 8.00390625 4.18359375 C8.99197266 3.59771484 8.99197266 3.59771484 10 3 C10.66 3.33 11.32 3.66 12 4 C11.34 4.66 10.68 5.32 10 6 C9.75639927 9.12814514 9.75639927 9.12814514 9.875 12.625 C9.90207031 14.40777344 9.90207031 14.40777344 9.9296875 16.2265625 C9.95289063 17.14179688 9.97609375 18.05703125 10 19 C4.99329643 22.08104835 0.74604585 22.92774699 -5 22 C-8.50412767 20.58640304 -11.31679023 18.68320977 -14 16 C-14.56002608 12.6162635 -14.53691637 9.38586037 -14 6 C-10.16916893 1.62190735 -5.72272131 0 0 0 Z " fill="#0B0B0B" transform="translate(264,265)"/>
<path d="M0 0 C1.75570313 0.04060547 1.75570313 0.04060547 3.546875 0.08203125 C4.43890625 0.11683594 5.3309375 0.15164062 6.25 0.1875 C5.92 0.8475 5.59 1.5075 5.25 2.1875 C3.13363372 2.50233135 1.00551785 2.73996854 -1.125 2.9375 C-6.2909342 3.51444552 -6.2909342 3.51444552 -10.0625 6.8125 C-10.91800707 11.012262 -11.29488692 13.89651549 -10.75 18.1875 C-8.00230393 21.81256747 -6.49662571 23.04745932 -1.98046875 23.89453125 C-0.63365134 23.95365982 0.71443526 23.98838987 2.0625 24 C2.75537109 24.02513672 3.44824219 24.05027344 4.16210938 24.07617188 C5.85747122 24.13463263 7.55379287 24.16403047 9.25 24.1875 C8.92 25.1775 8.59 26.1675 8.25 27.1875 C5.68508544 27.12721999 3.12578243 27.04012053 0.5625 26.9375 C-0.15873047 26.92332031 -0.87996094 26.90914062 -1.62304688 26.89453125 C-6.51162977 26.67130829 -9.22941602 25.87637193 -12.75 22.1875 C-14.57486599 16.71290202 -14.46726665 11.1599833 -12.5 5.75 C-8.96117462 0.56814855 -6.21796425 -0.18653893 0 0 Z " fill="#171717" transform="translate(268.75,192.8125)"/>
<path d="M0 0 C0.66 0.33 1.32 0.66 2 1 C1.566875 1.804375 1.566875 1.804375 1.125 2.625 C-0.65946551 6.39220496 -2 9.80734719 -2 14 C-15.365 14.495 -15.365 14.495 -29 15 C-29 14.34 -29 13.68 -29 13 C-23.88763219 10.92565268 -19.53669107 10.75575935 -14.125 10.875 C-12.949375 10.88853516 -12.949375 10.88853516 -11.75 10.90234375 C-9.83319945 10.92571937 -7.91655809 10.96158347 -6 11 C-5.855625 10.236875 -5.71125 9.47375 -5.5625 8.6875 C-4.62559525 4.2111773 -3.76444884 2.5501105 0 0 Z " fill="#242424" transform="translate(306,156)"/>
<path d="M0 0 C6.06292614 -0.41813284 9.19707988 -0.13274522 14 4 C16.26243007 7.12059321 17.05137578 9.20550312 18 13 C23.94 13.33 29.88 13.66 36 14 C36 14.33 36 14.66 36 15 C30.06 15 24.12 15 18 15 C17.34 16.32 16.68 17.64 16 19 C15.67 19.66 15.34 20.32 15 21 C14.01 21 13.02 21 12 21 C12.52268466 18.23723823 13.10869587 15.6739124 14 13 C13.72230092 10.6593935 13.39460023 8.32375692 13 6 C8.67435795 4.41744803 4.571279 3.54855348 0 3 C0 2.01 0 1.02 0 0 Z " fill="#131313" transform="translate(308,156)"/>
<path d="M0 0 C-0.33 0.99 -0.66 1.98 -1 3 C-13.3502912 3.89587605 -25.61922367 4.11522956 -38 4 C-38 3.67 -38 3.34 -38 3 C-34.7 2.67 -31.4 2.34 -28 2 C-28 1.67 -28 1.34 -28 1 C-18.64087671 0.00736571 -9.39605802 -0.10731538 0 0 Z " fill="#303030" transform="translate(364,168)"/>
<path d="M0 0 C2.45811625 3.68717438 2.31118164 5.64345704 2 10 C1.01 11.485 1.01 11.485 0 13 C-0.99 13 -1.98 13 -3 13 C-2.855625 12.443125 -2.71125 11.88625 -2.5625 11.3125 C-1.97230872 8.88615805 -1.476571 6.45093655 -1 4 C-2.83700789 3.22757731 -2.83700789 3.22757731 -5 3 C-7.25984425 4.73834173 -8.39800928 6.59701393 -10 9 C-10.66 9 -11.32 9 -12 9 C-12 7.68 -12 6.36 -12 5 C-11.34 5 -10.68 5 -10 5 C-9.71125 4.360625 -9.4225 3.72125 -9.125 3.0625 C-7.02490162 -0.78768037 -4.05205235 -0.33767103 0 0 Z " fill="#101010" transform="translate(465,168)"/>
<path d="M0 0 C1.32 0 2.64 0 4 0 C4 2.64 4 5.28 4 8 C4.66 8 5.32 8 6 8 C6 5.69 6 3.38 6 1 C6.99 1 7.98 1 9 1 C9.1953125 7.0546875 9.1953125 7.0546875 9 9 C8.34 9.66 7.68 10.32 7 11 C3.98694043 10.61121812 2.60314689 9.73543126 0 8 C-0.40843923 5.28796348 -0.13336867 2.7562858 0 0 Z " fill="#1E1E1E" transform="translate(328,188)"/>
<path d="M0 0 C0.66 0.33 1.32 0.66 2 1 C-0.32216997 5.51533049 -2.98560245 8.01055501 -7 11 C-7.66 11 -8.32 11 -9 11 C-9.2475 11.639375 -9.495 12.27875 -9.75 12.9375 C-11 15 -11 15 -13.125 15.75 C-14.053125 15.87375 -14.053125 15.87375 -15 16 C-12.22625482 9.19171638 -5.43482117 4.67961029 0 0 Z " fill="#1E1E1E" transform="translate(249,177)"/>
<path d="M0 0 C0.99 0.33 1.98 0.66 3 1 C2 3.4375 2 3.4375 0 6 C-3.9375 6.6875 -3.9375 6.6875 -6.0625 6.84375 C-8.54947037 7.04431213 -10.0710872 7.37971325 -12 9 C-12.81584568 12.05908413 -12.81584568 12.05908413 -13 15 C-13.33 15 -13.66 15 -14 15 C-14.375 11.8125 -14.375 11.8125 -14 8 C-9.91799443 3.42018887 -7.15005947 2.60294701 -1 2 C-0.67 1.34 -0.34 0.68 0 0 Z " fill="#1D1D1D" transform="translate(398,262)"/>
<path d="M0 0 C0.66 0 1.32 0 2 0 C2.25 7.625 2.25 7.625 0 11 C-2.31 10.67 -4.62 10.34 -7 10 C-7 7.03 -7 4.06 -7 1 C-6.34 1 -5.68 1 -5 1 C-4.67 2.98 -4.34 4.96 -4 7 C-3.01 6.67 -2.02 6.34 -1 6 C-0.67 4.02 -0.34 2.04 0 0 Z " fill="#0D0D0D" transform="translate(389,215)"/>
<path d="M0 0 C0.66 0 1.32 0 2 0 C2.1953125 6.0546875 2.1953125 6.0546875 2 8 C1.34 8.66 0.68 9.32 0 10 C-3.53571429 9.46428571 -3.53571429 9.46428571 -5 8 C-5.04080783 6.00041636 -5.04254356 3.99954746 -5 2 C-4.34 2 -3.68 2 -3 2 C-3 3.32 -3 4.64 -3 6 C-2.34 5.67 -1.68 5.34 -1 5 C-0.34444881 2.47266765 -0.34444881 2.47266765 0 0 Z " fill="#080808" transform="translate(320,199)"/>
<path d="M0 0 C0.99 0 1.98 0 3 0 C3.33 1.65 3.66 3.3 4 5 C4.99 5 5.98 5 7 5 C7.33 3.68 7.66 2.36 8 1 C8.625 2.8125 8.625 2.8125 9 5 C8.01 6.485 8.01 6.485 7 8 C4.03 7.505 4.03 7.505 1 7 C0.67 4.69 0.34 2.38 0 0 Z " fill="#111111" transform="translate(452,221)"/>
<path d="M0 0 C0.66 0 1.32 0 2 0 C2.33 1.65 2.66 3.3 3 5 C3.66 4.67 4.32 4.34 5 4 C5.65213292 1.97536745 5.65213292 1.97536745 6 0 C6.66 0 7.32 0 8 0 C8.125 2.875 8.125 2.875 8 6 C7.34 6.66 6.68 7.32 6 8 C3.06546739 7.63318342 2.13562754 7.13562754 0 5 C-0.125 2.375 -0.125 2.375 0 0 Z " fill="#1D1D1D" transform="translate(417,190)"/>
<path d="M0 0 C3.37462715 0.54723683 5.08235 1.0549 8 3 C9.99767079 6.04907647 10.20016822 8.39697197 10 12 C9.34 12 8.68 12 8 12 C7.62875 10.906875 7.2575 9.81375 6.875 8.6875 C5.5201201 5.45411511 5.02341962 5.01423545 1.8125 3.0625 C0.884375 2.711875 -0.04375 2.36125 -1 2 C-0.67 1.34 -0.34 0.68 0 0 Z " fill="#262626" transform="translate(265,157)"/>
<path d="M0 0 C2.31 0 4.62 0 7 0 C7 0.66 7 1.32 7 2 C5.02 2 3.04 2 1 2 C0.67 3.98 0.34 5.96 0 8 C-0.66 7.67 -1.32 7.34 -2 7 C-1.125 2.25 -1.125 2.25 0 0 Z " fill="#0B0B0B" transform="translate(258,156)"/>
<path d="M0 0 C0.99 0.33 1.98 0.66 3 1 C1.68 3.64 0.36 6.28 -1 9 C-1.66 9 -2.32 9 -3 9 C-3 8.34 -3 7.68 -3 7 C-3.66 6.67 -4.32 6.34 -5 6 C-4.01 5.67 -3.02 5.34 -2 5 C-0.78130071 2.49552484 -0.78130071 2.49552484 0 0 Z " fill="#242424" transform="translate(267,258)"/>
<path d="M0 0 C0.66 0.33 1.32 0.66 2 1 C1.34 2.32 0.68 3.64 0 5 C-0.66 5 -1.32 5 -2 5 C-2.33 6.98 -2.66 8.96 -3 11 C-3.33 11 -3.66 11 -4 11 C-4.49230769 4.6 -4.49230769 4.6 -2 1.5625 C-1.34 1.046875 -0.68 0.53125 0 0 Z " fill="#3F3F3F" transform="translate(388,266)"/>
<path d="M0 0 C0.99 0 1.98 0 3 0 C3.33 1.65 3.66 3.3 4 5 C3.34 5 2.68 5 2 5 C1.67 5.66 1.34 6.32 1 7 C0.67 4.69 0.34 2.38 0 0 Z " fill="#353535" transform="translate(452,221)"/>
<path d="M0 0 C1.32 0.33 2.64 0.66 4 1 C3.67 2.32 3.34 3.64 3 5 C2.01 4.67 1.02 4.34 0 4 C0 2.68 0 1.36 0 0 Z " fill="#1E1E1E" transform="translate(296,190)"/>
</svg>
