<?xml version="1.0" encoding="UTF-8"?>
<svg version="1.1" xmlns="http://www.w3.org/2000/svg" width="800" height="300">
<path d="M0 0 C264 0 528 0 800 0 C800 99 800 198 800 300 C536 300 272 300 0 300 C0 201 0 102 0 0 Z " fill="#FEFEFE" transform="translate(0,0)"/>
<path d="M0 0 C5.87711622 -0.48975968 10.09611773 0.62928552 15 4 C16.99097846 6.98646769 17.94124926 9.59687262 19 13 C19.84256348 12.76228882 19.84256348 12.76228882 20.70214844 12.51977539 C23.09674429 11.97811638 25.31438553 11.79358526 27.765625 11.68359375 C29.09980469 11.62075195 29.09980469 11.62075195 30.4609375 11.55664062 C31.84152344 11.49766602 31.84152344 11.49766602 33.25 11.4375 C34.18585938 11.39431641 35.12171875 11.35113281 36.0859375 11.30664062 C38.39048641 11.2008195 40.69513839 11.09873443 43 11 C43.12503906 10.06929687 43.25007813 9.13859375 43.37890625 8.1796875 C44.21960233 3.87574654 45.39982205 2.49808266 49 0 C54.01026504 -1.05122312 58.5682104 -0.72342807 63 1.9375 C65.77490218 4.29076462 66.51852092 6.1438874 67.1875 9.69140625 C67.34605469 10.49908447 67.50460937 11.3067627 67.66796875 12.13891602 C67.83232422 13.06015259 67.83232422 13.06015259 68 14 C71.27116732 13.86111494 74.541834 13.71269508 77.8125 13.5625 C78.74126953 13.52318359 79.67003906 13.48386719 80.62695312 13.44335938 C81.51962891 13.40146484 82.41230469 13.35957031 83.33203125 13.31640625 C84.15421143 13.27974854 84.9763916 13.24309082 85.82348633 13.20532227 C88.17905178 13.06572228 88.17905178 13.06572228 91 12 C92.48344647 11.89884019 93.97092737 11.85169477 95.45776367 11.83886719 C96.36108932 11.82925964 97.26441498 11.8196521 98.19511414 11.80975342 C99.17615616 11.80550354 100.15719818 11.80125366 101.16796875 11.796875 C102.70763054 11.78832489 102.70763054 11.78832489 104.27839661 11.77960205 C106.46659312 11.77013717 108.65480398 11.76361219 110.84301758 11.75976562 C114.10200452 11.75024964 117.36030707 11.71932503 120.61914062 11.6875 C133.48989874 11.62379973 145.92930908 12.45700129 158.66870117 14.29760742 C163.81486601 15.02643131 168.93417648 15.36164652 174.125 15.5625 C181.86106996 15.8787834 189.35386707 16.71525009 197 18 C197.12375 17.38125 197.2475 16.7625 197.375 16.125 C198 14 198 14 200 12 C203.5 11.75 203.5 11.75 207 12 C209 14 209 14 209.0546875 16.42578125 C208.96574219 17.85470703 208.96574219 17.85470703 208.875 19.3125 C208.78166872 24.46572005 209.5207592 26.13417689 213 30 C214.18603844 32.82252354 215.18353299 35.67582025 216.16796875 38.57421875 C216.92976509 40.97022434 216.92976509 40.97022434 218 43 C218.35102313 46.84647454 218.37113888 50.70211366 218.4375 54.5625 C218.48326172 55.62275391 218.52902344 56.68300781 218.57617188 57.77539062 C218.68696696 65.5840356 217.03128893 70.05752653 212 76 C211.34515625 76.80953125 210.6903125 77.6190625 210.015625 78.453125 C202.3687886 86.23530364 193.17266949 90.66759128 182.21484375 91.11328125 C179.80546827 91.12344739 177.40748083 91.09046901 175 91 C175.64241894 92.813713 176.28903119 94.62594124 176.9375 96.4375 C177.47697266 97.95150391 177.47697266 97.95150391 178.02734375 99.49609375 C178.76877639 101.90313745 178.76877639 101.90313745 180 103 C182.25543624 103.24261665 184.50945523 103.38332133 186.7734375 103.5234375 C189.48949551 104.10476921 190.39924985 104.7418885 192 107 C192.94239319 111.17867366 192.93786082 115.31497673 190.828125 119.10546875 C187.06342205 123.65610195 183.43445379 126.6087485 177.5 127.5625 C174 127 174 127 171.0625 124.4375 C168.58491231 121.00137019 168.5328977 118.20392074 169 114 C169.23332031 113.35804688 169.46664062 112.71609375 169.70703125 112.0546875 C170.22863849 109.89472739 170.22863849 109.89472739 168.78515625 107.859375 C167.93244141 106.81523437 167.93244141 106.81523437 167.0625 105.75 C166.49660156 105.04359375 165.93070313 104.3371875 165.34765625 103.609375 C164.68056641 102.81273437 164.68056641 102.81273437 164 102 C160.27037715 103.24320762 159.32521873 104.7955123 156.9375 107.875 C156.24527344 108.75929688 155.55304688 109.64359375 154.83984375 110.5546875 C153.50451974 112.32944934 152.23199273 114.1520109 151 116 C151.20625 116.61875 151.4125 117.2375 151.625 117.875 C152 120 152 120 150.1875 122.6875 C147.62906678 125.3921294 146.78782499 125.89724022 143.125 126.375 C137.37207306 126.35057144 132.12307278 123.35543576 127 121 C126.58331531 116.74981621 126.55977918 114.64657432 129 111.0625 C133.03031789 108.29165645 135.19839142 108.59308402 140 109 C140.24492187 108.30519531 140.48984375 107.61039062 140.7421875 106.89453125 C142.20250025 103.53399786 144.06281778 100.71425133 146.125 97.6875 C146.84945312 96.61886719 147.57390625 95.55023438 148.3203125 94.44921875 C149.15175781 93.23685547 149.15175781 93.23685547 150 92 C148.71061523 92.16226074 147.42123047 92.32452148 146.09277344 92.49169922 C141.21887811 93.03066814 136.41533694 93.14460987 131.515625 93.1328125 C130.18702705 93.13479141 130.18702705 93.13479141 128.83158875 93.1368103 C125.97102269 93.1387144 123.11055601 93.13240899 120.25 93.125 C119.27112823 93.12411377 118.29225647 93.12322754 117.28372192 93.12231445 C104.00123706 93.10820854 90.75046941 92.90243772 77.47875977 92.3581543 C67.9804462 91.96896537 58.50474783 91.89347107 49 92 C50.26566466 97.22802185 51.62781159 102.15701026 54 107 C56.43313888 108.42556419 58.04825333 108.59704912 60.8359375 108.76953125 C63 109 63 109 66.125 111.3125 C68 114 68 114 67.9140625 116.44140625 C66.71702906 119.79207677 65.21143829 120.70619827 62.25 122.625 C61.38890625 123.19476563 60.5278125 123.76453125 59.640625 124.3515625 C58.76921875 124.89554687 57.8978125 125.43953125 57 126 C56.16210938 126.55945313 55.32421875 127.11890625 54.4609375 127.6953125 C51.81547589 129.09782707 50.33369631 129.35167341 47.375 129.25 C46.61960937 129.23453125 45.86421875 129.2190625 45.0859375 129.203125 C43 129 43 129 40 128 C37.52657734 124.28986601 37.61496514 122.38939738 38 118 C39.51953125 115.77734375 39.51953125 115.77734375 41 114 C40.4225 113.22914063 39.845 112.45828125 39.25 111.6640625 C38.5075 110.66117187 37.765 109.65828125 37 108.625 C36.2575 107.62726563 35.515 106.62953125 34.75 105.6015625 C33 103 33 103 33 101 C28.95944944 103.10690801 26.88736449 105.18025768 24.4375 109 C21.38256446 113.74114707 21.38256446 113.74114707 18.77734375 115.50390625 C17.89755859 116.24447266 17.89755859 116.24447266 17 117 C16.74137153 119.38601555 16.74137153 119.38601555 17.125 121.9375 C17.29804835 126.67902485 17.29804835 126.67902485 14.5625 129.625 C9.38914377 131.62173398 4.99594549 132.09595271 -0.28515625 130.1640625 C-3.30227336 128.70752321 -5.62027058 127.37972942 -8 125 C-8.68530813 121.57345936 -8.69462485 118.42466203 -8 115 C-5.60970207 111.77418759 -2.61077652 110.36977826 1.24609375 109.484375 C3.15342363 109.2259845 5.07790765 109.10116276 7 109 C7.3403125 107.824375 7.3403125 107.824375 7.6875 106.625 C9.40660933 101.87698375 11.68084721 97.47897448 14 93 C13.27296875 92.96261719 12.5459375 92.92523438 11.796875 92.88671875 C-9.15754698 91.51662193 -9.15754698 91.51662193 -16 85 C-24.11083492 73.89213822 -29.101704 56.67071685 -27 43 C-26.03162557 40.02605822 -24.72365932 37.59737628 -23 35 C-22.38125 33.9275 -21.7625 32.855 -21.125 31.75 C-18.72263534 28.6410575 -16.33685883 27.04297479 -13 25 C-12.154375 24.29875 -11.30875 23.5975 -10.4375 22.875 C-8.00207104 21.00159311 -5.85445724 20.07338991 -3 19 C-3.05220703 17.948125 -3.05220703 17.948125 -3.10546875 16.875 C-3.28894664 10.4445369 -2.6553877 5.86398118 0 0 Z " fill="#FBFBFB" transform="translate(250,156)"/>
<path d="M0 0 C5.87711622 -0.48975968 10.09611773 0.62928552 15 4 C17.29013653 7.4352048 17.17842973 8.985331 17 13 C16.34 13 15.68 13 15 13 C14.814375 11.906875 14.62875 10.81375 14.4375 9.6875 C13.3364902 5.72410335 13.3364902 5.72410335 9.625 4.0625 C5.98983152 2.81248638 5.98983152 2.81248638 2 3 C0.17144572 7.59232335 -0.12514462 10.97358268 0.375 15.875 C0.48585937 17.02742188 0.59671875 18.17984375 0.7109375 19.3671875 C0.80632812 20.23601562 0.90171875 21.10484375 1 22 C-0.258125 22.28875 -1.51625 22.5775 -2.8125 22.875 C-12.10118333 26.00057591 -19.01520518 33.68428179 -23.29296875 42.28515625 C-25.51504599 50.8174418 -23.06749883 58.13720195 -20.25 66.25 C-19.90195313 67.3121875 -19.55390625 68.374375 -19.1953125 69.46875 C-17.05276508 75.78529721 -15.1920553 80.59359686 -9.73046875 84.7109375 C-6.34180395 86.31073633 -2.97884478 87.01235275 0.6875 87.625 C1.39068359 87.74979736 2.09386719 87.87459473 2.81835938 88.00317383 C8.18821971 88.93034838 13.56198003 89.62090726 19 90 C19.33 90.99 19.66 91.98 20 93 C18.68 93 17.36 93 16 93 C15.88785156 93.51304687 15.77570313 94.02609375 15.66015625 94.5546875 C11.66706084 109.34567995 11.66706084 109.34567995 7.03515625 112.21875 C5 112.625 5 112.625 2.96875 112.8046875 C-0.46284582 113.14512359 -2.50140123 114.75126111 -5 117 C-5.50169415 120.16926564 -5.50169415 120.16926564 -5 123 C0.360543 126.57369533 3.5502423 127.64497577 10 127 C10.99 126.34 11.98 125.68 13 125 C12.67 121.7 12.34 118.4 12 115 C17.75 111 17.75 111 20 111 C20.24492187 110.28457031 20.48984375 109.56914062 20.7421875 108.83203125 C22.15359676 105.65416879 23.91281519 103.36353001 26.125 100.6875 C26.84945312 99.80449219 27.57390625 98.92148438 28.3203125 98.01171875 C28.87460937 97.34785156 29.42890625 96.68398437 30 96 C31.82421875 96.21484375 31.82421875 96.21484375 34 97 C35.45703125 99.00390625 35.45703125 99.00390625 36.8125 101.5625 C39.33260141 106.07283534 42.16256842 109.63242097 45.77734375 113.30859375 C46.18082031 113.86675781 46.58429688 114.42492187 47 115 C46.505 116.485 46.505 116.485 46 118 C43.9375 118.6875 43.9375 118.6875 42 119 C41.957279 120.66611905 41.95936168 122.33382885 42 124 C43.22820201 125.42759955 43.22820201 125.42759955 46.875 125.5625 C53.49238296 125.54122224 58.33642271 121.35544807 63 117 C63.495 115.515 63.495 115.515 64 114 C63.15695312 113.89042969 62.31390625 113.78085937 61.4453125 113.66796875 C59.80175781 113.43013672 59.80175781 113.43013672 58.125 113.1875 C56.48917969 112.96126953 56.48917969 112.96126953 54.8203125 112.73046875 C52 112 52 112 50 109 C49.30942378 106.93106719 48.66910233 104.84509238 48.0625 102.75 C46.64274348 97.99089107 45.0927928 93.49950453 43 89 C44.57484437 87.42515563 46.14125405 87.87021162 48.328125 87.8671875 C49.25834473 87.86525391 50.18856445 87.86332031 51.14697266 87.86132812 C52.17097168 87.86583984 53.1949707 87.87035156 54.25 87.875 C55.31395996 87.87693359 56.37791992 87.87886719 57.47412109 87.88085938 C65.86494347 87.92452998 74.2406285 88.18207753 82.625 88.5 C99.5768368 89.13704426 116.39273898 89.22463966 133.33618164 88.3581543 C140.23353588 88.00884947 147.09281193 87.88270813 154 88 C154.33 88.66 154.66 89.32 155 90 C154.52373169 90.6798999 154.52373169 90.6798999 154.0378418 91.37353516 C152.5836013 93.45450742 151.13552473 95.53969831 149.6875 97.625 C149.18798828 98.33785156 148.68847656 99.05070312 148.17382812 99.78515625 C145.96328995 102.97652925 144.04680797 105.89486026 142.4609375 109.45703125 C141 112 141 112 138.58984375 112.84765625 C137.71457031 112.91855469 136.83929688 112.98945313 135.9375 113.0625 C133.30813242 113.3766042 133.30813242 113.3766042 131 114 C129.24431996 116.45748398 129.24431996 116.45748398 129 119 C129.804375 119.185625 129.804375 119.185625 130.625 119.375 C133 120 133 120 135.875 121.0625 C139.0896374 122.02689122 141.66557386 122.1587822 145 122 C146.21690533 120.23470405 146.21690533 120.23470405 147 118 C146.10318584 115.87269715 146.10318584 115.87269715 145 114 C145.50789062 113.6596875 146.01578125 113.319375 146.5390625 112.96875 C153.13467158 108.32465072 158.53838915 102.87715472 161 95 C161.99 95 162.98 95 164 95 C165.6484375 97.01171875 165.6484375 97.01171875 167.375 99.6875 C169.37438331 102.68657496 171.24720294 105.46248183 173.875 107.9375 C176 110 176 110 177 113 C175.02 114.485 175.02 114.485 173 116 C173.27540704 119.81813447 173.27540704 119.81813447 175 123 C178.49734228 122.61140641 181.65788261 122.11403913 185 121 C186.20882096 118.99983534 186.20882096 118.99983534 187 117 C187.66 117 188.32 117 189 117 C188.67 114.36 188.34 111.72 188 109 C187.33613281 109.020625 186.67226563 109.04125 185.98828125 109.0625 C178.98337186 108.89888168 178.98337186 108.89888168 176.36328125 106.50390625 C175.01511953 104.39022683 173.98599978 102.30566488 173 100 C172.60941406 99.11441406 172.21882812 98.22882813 171.81640625 97.31640625 C169 90.60185986 169 90.60185986 169 88 C171.53665416 87.18827067 173.50250679 87.00614311 176.1953125 87.0390625 C186.46425331 86.9336319 197.0215796 84.7606615 205 78 C214.72960052 67.47845526 214.76481827 59.77860493 214.23974609 45.82763672 C213.62958011 38.63115771 211.2147691 32.0771359 206 27 C206 26.34 206 25.68 206 25 C205.34 25 204.68 25 204 25 C204.99 21.7 205.98 18.4 207 15 C204.69 15 202.38 15 200 15 C199.34 16.98 198.68 18.96 198 21 C197.19304687 20.87882812 196.38609375 20.75765625 195.5546875 20.6328125 C184.56238321 19.11582783 173.54465154 18.36741393 162.47412109 17.69775391 C161.22324707 17.62089355 159.97237305 17.5440332 158.68359375 17.46484375 C157.56525146 17.399021 156.44690918 17.33319824 155.29467773 17.26538086 C152 17 152 17 148.84448242 16.47924805 C143.49089196 15.81187661 138.19449051 15.85747161 132.8046875 15.8671875 C131.62141876 15.86623077 130.43815002 15.86527405 129.21902466 15.86428833 C126.71258491 15.86360889 124.20614338 15.86544669 121.69970703 15.86962891 C117.93648108 15.87491366 114.17337817 15.86971073 110.41015625 15.86328125 C103.27266723 15.8596259 96.13687255 15.90690475 89 16 C87.92383423 16.01325317 86.84766846 16.02650635 85.7388916 16.04016113 C82.78559243 16.08810243 79.83503999 16.16613123 76.8828125 16.2578125 C75.58487259 16.27822098 75.58487259 16.27822098 74.26071167 16.29904175 C69.64211303 16.40202493 69.64211303 16.40202493 66.06982422 19.04638672 C65.71678223 19.6910791 65.36374023 20.33577148 65 21 C64.34 21 63.68 21 63 21 C63.09539062 20.25234375 63.19078125 19.5046875 63.2890625 18.734375 C63.39992188 17.74953125 63.51078125 16.7646875 63.625 15.75 C63.79902344 14.28820312 63.79902344 14.28820312 63.9765625 12.796875 C64.00157515 9.81203245 63.66859484 8.4429101 62 6 C57.97361204 3.43775311 54.7703431 2.25794663 50 3 C46.24198058 6.23967191 46.75626381 8.70615331 46 14 C37.42 14.33 28.84 14.66 20 15 C20 14.34 20 13.68 20 13 C22.7902667 12.0699111 24.76529542 11.81301231 27.66796875 11.68359375 C28.56064453 11.64169922 29.45332031 11.59980469 30.37304688 11.55664062 C31.30181641 11.51732422 32.23058594 11.47800781 33.1875 11.4375 C34.12787109 11.39431641 35.06824219 11.35113281 36.03710938 11.30664062 C38.35792854 11.20061335 40.67885325 11.09854971 43 11 C43.12503906 10.06929687 43.25007813 9.13859375 43.37890625 8.1796875 C44.21960233 3.87574654 45.39982205 2.49808266 49 0 C54.01026504 -1.05122312 58.5682104 -0.72342807 63 1.9375 C65.77490218 4.29076462 66.51852092 6.1438874 67.1875 9.69140625 C67.34605469 10.49908447 67.50460937 11.3067627 67.66796875 12.13891602 C67.83232422 13.06015259 67.83232422 13.06015259 68 14 C71.27116732 13.86111494 74.541834 13.71269508 77.8125 13.5625 C78.74126953 13.52318359 79.67003906 13.48386719 80.62695312 13.44335938 C81.51962891 13.40146484 82.41230469 13.35957031 83.33203125 13.31640625 C84.15421143 13.27974854 84.9763916 13.24309082 85.82348633 13.20532227 C88.17905178 13.06572228 88.17905178 13.06572228 91 12 C92.48344647 11.89884019 93.97092737 11.85169477 95.45776367 11.83886719 C96.36108932 11.82925964 97.26441498 11.8196521 98.19511414 11.80975342 C99.17615616 11.80550354 100.15719818 11.80125366 101.16796875 11.796875 C102.70763054 11.78832489 102.70763054 11.78832489 104.27839661 11.77960205 C106.46659312 11.77013717 108.65480398 11.76361219 110.84301758 11.75976562 C114.10200452 11.75024964 117.36030707 11.71932503 120.61914062 11.6875 C133.48989874 11.62379973 145.92930908 12.45700129 158.66870117 14.29760742 C163.81486601 15.02643131 168.93417648 15.36164652 174.125 15.5625 C181.86106996 15.8787834 189.35386707 16.71525009 197 18 C197.12375 17.38125 197.2475 16.7625 197.375 16.125 C198 14 198 14 200 12 C203.5 11.75 203.5 11.75 207 12 C209 14 209 14 209.0546875 16.42578125 C208.96574219 17.85470703 208.96574219 17.85470703 208.875 19.3125 C208.78166872 24.46572005 209.5207592 26.13417689 213 30 C214.18603844 32.82252354 215.18353299 35.67582025 216.16796875 38.57421875 C216.92976509 40.97022434 216.92976509 40.97022434 218 43 C218.35102313 46.84647454 218.37113888 50.70211366 218.4375 54.5625 C218.48326172 55.62275391 218.52902344 56.68300781 218.57617188 57.77539062 C218.68696696 65.5840356 217.03128893 70.05752653 212 76 C211.34515625 76.80953125 210.6903125 77.6190625 210.015625 78.453125 C202.3687886 86.23530364 193.17266949 90.66759128 182.21484375 91.11328125 C179.80546827 91.12344739 177.40748083 91.09046901 175 91 C175.64241894 92.813713 176.28903119 94.62594124 176.9375 96.4375 C177.47697266 97.95150391 177.47697266 97.95150391 178.02734375 99.49609375 C178.76877639 101.90313745 178.76877639 101.90313745 180 103 C182.25543624 103.24261665 184.50945523 103.38332133 186.7734375 103.5234375 C189.48949551 104.10476921 190.39924985 104.7418885 192 107 C192.94239319 111.17867366 192.93786082 115.31497673 190.828125 119.10546875 C187.06342205 123.65610195 183.43445379 126.6087485 177.5 127.5625 C174 127 174 127 171.0625 124.4375 C168.58491231 121.00137019 168.5328977 118.20392074 169 114 C169.23332031 113.35804688 169.46664062 112.71609375 169.70703125 112.0546875 C170.22863849 109.89472739 170.22863849 109.89472739 168.78515625 107.859375 C167.93244141 106.81523437 167.93244141 106.81523437 167.0625 105.75 C166.49660156 105.04359375 165.93070313 104.3371875 165.34765625 103.609375 C164.68056641 102.81273437 164.68056641 102.81273437 164 102 C160.27037715 103.24320762 159.32521873 104.7955123 156.9375 107.875 C156.24527344 108.75929688 155.55304688 109.64359375 154.83984375 110.5546875 C153.50451974 112.32944934 152.23199273 114.1520109 151 116 C151.20625 116.61875 151.4125 117.2375 151.625 117.875 C152 120 152 120 150.1875 122.6875 C147.62906678 125.3921294 146.78782499 125.89724022 143.125 126.375 C137.37207306 126.35057144 132.12307278 123.35543576 127 121 C126.58331531 116.74981621 126.55977918 114.64657432 129 111.0625 C133.03031789 108.29165645 135.19839142 108.59308402 140 109 C140.24492187 108.30519531 140.48984375 107.61039062 140.7421875 106.89453125 C142.20250025 103.53399786 144.06281778 100.71425133 146.125 97.6875 C146.84945312 96.61886719 147.57390625 95.55023438 148.3203125 94.44921875 C149.15175781 93.23685547 149.15175781 93.23685547 150 92 C148.71061523 92.16226074 147.42123047 92.32452148 146.09277344 92.49169922 C141.21887811 93.03066814 136.41533694 93.14460987 131.515625 93.1328125 C130.18702705 93.13479141 130.18702705 93.13479141 128.83158875 93.1368103 C125.97102269 93.1387144 123.11055601 93.13240899 120.25 93.125 C119.27112823 93.12411377 118.29225647 93.12322754 117.28372192 93.12231445 C104.00123706 93.10820854 90.75046941 92.90243772 77.47875977 92.3581543 C67.9804462 91.96896537 58.50474783 91.89347107 49 92 C50.26566466 97.22802185 51.62781159 102.15701026 54 107 C56.43313888 108.42556419 58.04825333 108.59704912 60.8359375 108.76953125 C63 109 63 109 66.125 111.3125 C68 114 68 114 67.9140625 116.44140625 C66.71702906 119.79207677 65.21143829 120.70619827 62.25 122.625 C61.38890625 123.19476563 60.5278125 123.76453125 59.640625 124.3515625 C58.76921875 124.89554687 57.8978125 125.43953125 57 126 C56.16210938 126.55945313 55.32421875 127.11890625 54.4609375 127.6953125 C51.81547589 129.09782707 50.33369631 129.35167341 47.375 129.25 C46.61960937 129.23453125 45.86421875 129.2190625 45.0859375 129.203125 C43 129 43 129 40 128 C37.52657734 124.28986601 37.61496514 122.38939738 38 118 C39.51953125 115.77734375 39.51953125 115.77734375 41 114 C40.4225 113.22914063 39.845 112.45828125 39.25 111.6640625 C38.5075 110.66117187 37.765 109.65828125 37 108.625 C36.2575 107.62726563 35.515 106.62953125 34.75 105.6015625 C33 103 33 103 33 101 C28.95944944 103.10690801 26.88736449 105.18025768 24.4375 109 C21.38256446 113.74114707 21.38256446 113.74114707 18.77734375 115.50390625 C17.89755859 116.24447266 17.89755859 116.24447266 17 117 C16.74137153 119.38601555 16.74137153 119.38601555 17.125 121.9375 C17.29804835 126.67902485 17.29804835 126.67902485 14.5625 129.625 C9.38914377 131.62173398 4.99594549 132.09595271 -0.28515625 130.1640625 C-3.30227336 128.70752321 -5.62027058 127.37972942 -8 125 C-8.68530813 121.57345936 -8.69462485 118.42466203 -8 115 C-5.60970207 111.77418759 -2.61077652 110.36977826 1.24609375 109.484375 C3.15342363 109.2259845 5.07790765 109.10116276 7 109 C7.3403125 107.824375 7.3403125 107.824375 7.6875 106.625 C9.40660933 101.87698375 11.68084721 97.47897448 14 93 C13.27296875 92.96261719 12.5459375 92.92523438 11.796875 92.88671875 C-9.15754698 91.51662193 -9.15754698 91.51662193 -16 85 C-24.11083492 73.89213822 -29.101704 56.67071685 -27 43 C-26.03162557 40.02605822 -24.72365932 37.59737628 -23 35 C-22.38125 33.9275 -21.7625 32.855 -21.125 31.75 C-18.72263534 28.6410575 -16.33685883 27.04297479 -13 25 C-12.154375 24.29875 -11.30875 23.5975 -10.4375 22.875 C-8.00207104 21.00159311 -5.85445724 20.07338991 -3 19 C-3.05220703 17.948125 -3.05220703 17.948125 -3.10546875 16.875 C-3.28894664 10.4445369 -2.6553877 5.86398118 0 0 Z " fill="#161616" transform="translate(250,156)"/>
<path d="M0 0 C5.87711622 -0.48975968 10.09611773 0.62928552 15 4 C17.29013653 7.4352048 17.17842973 8.985331 17 13 C16.34 13 15.68 13 15 13 C14.814375 11.906875 14.62875 10.81375 14.4375 9.6875 C13.3364902 5.72410335 13.3364902 5.72410335 9.625 4.0625 C5.98983152 2.81248638 5.98983152 2.81248638 2 3 C0.17144572 7.59232335 -0.12514462 10.97358268 0.375 15.875 C0.48585937 17.02742188 0.59671875 18.17984375 0.7109375 19.3671875 C0.80632812 20.23601562 0.90171875 21.10484375 1 22 C-0.258125 22.28875 -1.51625 22.5775 -2.8125 22.875 C-12.10118333 26.00057591 -19.01520518 33.68428179 -23.29296875 42.28515625 C-25.51504599 50.8174418 -23.06749883 58.13720195 -20.25 66.25 C-19.90195313 67.3121875 -19.55390625 68.374375 -19.1953125 69.46875 C-17.05276508 75.78529721 -15.1920553 80.59359686 -9.73046875 84.7109375 C-6.34180395 86.31073633 -2.97884478 87.01235275 0.6875 87.625 C1.39068359 87.74979736 2.09386719 87.87459473 2.81835938 88.00317383 C8.18821971 88.93034838 13.56198003 89.62090726 19 90 C19.33 90.99 19.66 91.98 20 93 C18.68 93 17.36 93 16 93 C15.88785156 93.51304687 15.77570313 94.02609375 15.66015625 94.5546875 C11.66706084 109.34567995 11.66706084 109.34567995 7.03515625 112.21875 C5 112.625 5 112.625 2.96875 112.8046875 C-0.46284582 113.14512359 -2.50140123 114.75126111 -5 117 C-5.50169415 120.16926564 -5.50169415 120.16926564 -5 123 C0.360543 126.57369533 3.5502423 127.64497577 10 127 C10.99 126.34 11.98 125.68 13 125 C12.67 121.7 12.34 118.4 12 115 C17.75 111 17.75 111 20 111 C20.24492187 110.28457031 20.48984375 109.56914062 20.7421875 108.83203125 C22.15359676 105.65416879 23.91281519 103.36353001 26.125 100.6875 C26.84945312 99.80449219 27.57390625 98.92148438 28.3203125 98.01171875 C28.87460937 97.34785156 29.42890625 96.68398437 30 96 C31.82421875 96.21484375 31.82421875 96.21484375 34 97 C35.45703125 99.00390625 35.45703125 99.00390625 36.8125 101.5625 C39.33260141 106.07283534 42.16256842 109.63242097 45.77734375 113.30859375 C46.18082031 113.86675781 46.58429688 114.42492187 47 115 C46.505 116.485 46.505 116.485 46 118 C43.9375 118.6875 43.9375 118.6875 42 119 C41.957279 120.66611905 41.95936168 122.33382885 42 124 C43.57027317 125.57027317 45.14269947 125.16974386 47.3125 125.1875 C48.09238281 125.20167969 48.87226563 125.21585937 49.67578125 125.23046875 C52.2032668 124.97984413 53.81718031 124.26373772 56 123 C54.25 127.875 54.25 127.875 52 129 C50.52331663 129.0952699 49.04224543 129.12985959 47.5625 129.125 C46.78003906 129.12757813 45.99757813 129.13015625 45.19140625 129.1328125 C43 129 43 129 40 128 C37.52657734 124.28986601 37.61496514 122.38939738 38 118 C39.51953125 115.77734375 39.51953125 115.77734375 41 114 C40.4225 113.22914063 39.845 112.45828125 39.25 111.6640625 C38.5075 110.66117187 37.765 109.65828125 37 108.625 C36.2575 107.62726563 35.515 106.62953125 34.75 105.6015625 C33 103 33 103 33 101 C28.95944944 103.10690801 26.88736449 105.18025768 24.4375 109 C21.38256446 113.74114707 21.38256446 113.74114707 18.77734375 115.50390625 C17.89755859 116.24447266 17.89755859 116.24447266 17 117 C16.74137153 119.38601555 16.74137153 119.38601555 17.125 121.9375 C17.29804835 126.67902485 17.29804835 126.67902485 14.5625 129.625 C9.38914377 131.62173398 4.99594549 132.09595271 -0.28515625 130.1640625 C-3.30227336 128.70752321 -5.62027058 127.37972942 -8 125 C-8.68530813 121.57345936 -8.69462485 118.42466203 -8 115 C-5.60970207 111.77418759 -2.61077652 110.36977826 1.24609375 109.484375 C3.15342363 109.2259845 5.07790765 109.10116276 7 109 C7.3403125 107.824375 7.3403125 107.824375 7.6875 106.625 C9.40660933 101.87698375 11.68084721 97.47897448 14 93 C13.27296875 92.96261719 12.5459375 92.92523438 11.796875 92.88671875 C-9.15754698 91.51662193 -9.15754698 91.51662193 -16 85 C-24.11083492 73.89213822 -29.101704 56.67071685 -27 43 C-26.03162557 40.02605822 -24.72365932 37.59737628 -23 35 C-22.38125 33.9275 -21.7625 32.855 -21.125 31.75 C-18.72263534 28.6410575 -16.33685883 27.04297479 -13 25 C-12.154375 24.29875 -11.30875 23.5975 -10.4375 22.875 C-8.00207104 21.00159311 -5.85445724 20.07338991 -3 19 C-3.05220703 17.948125 -3.05220703 17.948125 -3.10546875 16.875 C-3.28894664 10.4445369 -2.6553877 5.86398118 0 0 Z " fill="#0D0D0D" transform="translate(250,156)"/>
<path d="M0 0 C4.44555374 0.83786916 6.30045909 2.19848297 9.5078125 5.47265625 C10.1678125 8.44265625 10.8278125 11.41265625 11.5078125 14.47265625 C18.1078125 14.47265625 24.7078125 14.47265625 31.5078125 14.47265625 C31.5078125 14.80265625 31.5078125 15.13265625 31.5078125 15.47265625 C30.67588379 15.47881958 30.67588379 15.47881958 29.82714844 15.48510742 C27.3029685 15.51809806 24.78118554 15.58874003 22.2578125 15.66015625 C21.38511719 15.66595703 20.51242187 15.67175781 19.61328125 15.67773438 C14.19872918 15.77843385 14.19872918 15.77843385 10.0234375 19.0234375 C9.52328125 19.83167969 9.023125 20.63992187 8.5078125 21.47265625 C7.8478125 21.47265625 7.1878125 21.47265625 6.5078125 21.47265625 C6.60320312 20.725 6.69859375 19.97734375 6.796875 19.20703125 C6.90773438 18.2221875 7.01859375 17.23734375 7.1328125 16.22265625 C7.24882812 15.248125 7.36484375 14.27359375 7.484375 13.26953125 C7.50938765 10.2846887 7.17640734 8.91556635 5.5078125 6.47265625 C1.48142454 3.91040936 -1.7218444 2.73060288 -6.4921875 3.47265625 C-10.25020692 6.71232816 -9.73592369 9.17880956 -10.4921875 14.47265625 C-19.0721875 14.80265625 -27.6521875 15.13265625 -36.4921875 15.47265625 C-36.4921875 14.81265625 -36.4921875 14.15265625 -36.4921875 13.47265625 C-33.7019208 12.54256735 -31.72689208 12.28566856 -28.82421875 12.15625 C-27.93154297 12.11435547 -27.03886719 12.07246094 -26.11914062 12.02929688 C-25.19037109 11.98998047 -24.26160156 11.95066406 -23.3046875 11.91015625 C-22.36431641 11.86697266 -21.42394531 11.82378906 -20.45507812 11.77929688 C-18.13425896 11.6732696 -15.81333425 11.57120596 -13.4921875 11.47265625 C-13.30462891 10.07660156 -13.30462891 10.07660156 -13.11328125 8.65234375 C-11.66709758 1.24861098 -6.86067171 -0.39935253 0 0 Z " fill="#0D0D0D" transform="translate(306.4921875,155.52734375)"/>
<path d="M0 0 C0.9614241 -0.00315216 1.92284821 -0.00630432 2.91340637 -0.009552 C3.95091537 -0.00752777 4.98842438 -0.00550354 6.05737305 -0.00341797 C7.12650436 -0.00437469 8.19563568 -0.00533142 9.29716492 -0.00631714 C11.56090351 -0.00699805 13.82464406 -0.00514994 16.08837891 -0.00097656 C19.5448855 0.00435718 23.00126122 -0.00091644 26.45776367 -0.00732422 C28.65763375 -0.00666311 30.85750375 -0.00538128 33.05737305 -0.00341797 C34.08880936 -0.0054422 35.12024567 -0.00746643 36.18293762 -0.009552 C40.98635133 0.00604325 45.53487969 0.11999763 50.2565918 1.12939453 C50.2565918 1.78939453 50.2565918 2.44939453 50.2565918 3.12939453 C42.50517335 3.27440287 34.75370463 3.41646698 27.00219727 3.55664062 C24.37425563 3.60449145 21.74632544 3.65297606 19.1184082 3.70214844 C3.82939833 3.9877609 -11.45154826 4.2101377 -26.7434082 4.12939453 C-26.7434082 3.79939453 -26.7434082 3.46939453 -26.7434082 3.12939453 C-20.4734082 3.12939453 -14.2034082 3.12939453 -7.7434082 3.12939453 C-7.7434082 2.46939453 -7.7434082 1.80939453 -7.7434082 1.12939453 C-4.84640356 0.16372632 -3.01151871 0.00283302 0 0 Z " fill="#262626" transform="translate(345.743408203125,167.87060546875)"/>
<path d="M0 0 C1.50433594 0.01353516 1.50433594 0.01353516 3.0390625 0.02734375 C3.80992187 0.03894531 4.58078125 0.05054688 5.375 0.0625 C2.85019307 2.58730693 1.23676966 2.61988633 -2.25 3.1875 C-3.25289063 3.35507813 -4.25578125 3.52265625 -5.2890625 3.6953125 C-6.05992187 3.81648437 -6.83078125 3.93765625 -7.625 4.0625 C-9.04609687 8.50342772 -10.23894419 12.35559454 -9.625 17.0625 C-8.05476352 19.7351564 -6.77551933 21.63301375 -3.79638672 22.74511719 C-1.66046381 23.2235882 0.4570412 23.5743202 2.625 23.875 C3.37007813 23.99552734 4.11515625 24.11605469 4.8828125 24.24023438 C6.71062338 24.53315279 8.54251435 24.80041194 10.375 25.0625 C10.375 25.7225 10.375 26.3825 10.375 27.0625 C7.81008544 27.00221999 5.25078243 26.91512053 2.6875 26.8125 C1.96626953 26.79832031 1.24503906 26.78414062 0.50195312 26.76953125 C-4.41672599 26.54493403 -7.03996243 25.70739905 -10.625 22.0625 C-13.47332025 17.79001963 -13.37216094 14.07809521 -12.625 9.0625 C-9.69319935 2.37058326 -7.37083936 -0.08570743 0 0 Z " fill="#1E1E1E" transform="translate(259.625,192.9375)"/>
<path d="M0 0 C1.61841797 0.09087891 1.61841797 0.09087891 3.26953125 0.18359375 C3.98415527 0.22347412 4.6987793 0.26335449 5.43505859 0.30444336 C7.04089697 0.39431622 8.64669048 0.48499393 10.25244141 0.57641602 C14.50214288 0.81598051 18.75127448 1.03789383 23.00390625 1.21875 C31.80291622 1.60588542 40.34581922 2.22079716 49 4 C48.67 4.66 48.34 5.32 48 6 C47.31139893 5.93941406 46.62279785 5.87882813 45.91333008 5.81640625 C36.84560751 5.03761102 27.76941059 4.44234942 18.6862793 3.875 C16.73210517 3.75243022 14.77815847 3.62625153 12.82421875 3.5 C11.10851685 3.39171875 11.10851685 3.39171875 9.3581543 3.28125 C5.87824839 2.98980314 2.45151742 2.52640507 -1 2 C-0.67 1.34 -0.34 0.68 0 0 Z " fill="#040404" transform="translate(396,170)"/>
<path d="M0 0 C5.87711622 -0.48975968 10.09611773 0.62928552 15 4 C17.29013653 7.4352048 17.17842973 8.985331 17 13 C16.34 13 15.68 13 15 13 C14.814375 11.906875 14.62875 10.81375 14.4375 9.6875 C13.3364902 5.72410335 13.3364902 5.72410335 9.625 4.0625 C5.98983152 2.81248638 5.98983152 2.81248638 2 3 C-0.10428384 8.12919186 -0.21755666 12.5610835 0 18 C-0.33 17.34 -0.66 16.68 -1 16 C-1.66 16 -2.32 16 -3 16 C-3.33266291 9.79029227 -2.45029331 5.71735105 0 0 Z " fill="#131313" transform="translate(250,156)"/>
<path d="M0 0 C0.66 0.99 1.32 1.98 2 3 C1.57847656 3.83144531 1.15695312 4.66289062 0.72265625 5.51953125 C0.17480469 6.60621094 -0.37304688 7.69289063 -0.9375 8.8125 C-1.75541016 10.43091797 -1.75541016 10.43091797 -2.58984375 12.08203125 C-4.0585207 14.96211527 -4.0585207 14.96211527 -5 18 C-6.92470397 18.49776827 -8.85287333 18.98627145 -10.796875 19.40234375 C-15.11588732 20.57399071 -18.83476463 22.83476463 -22 26 C-21.68988845 22.92472717 -21.53019713 21.44365669 -19.109375 19.41796875 C-17.94148437 18.80888672 -17.94148437 18.80888672 -16.75 18.1875 C-15.98171875 17.76855469 -15.2134375 17.34960938 -14.421875 16.91796875 C-11.77939171 15.91638234 -9.80172996 15.82613378 -7 16 C-6.6596875 14.824375 -6.6596875 14.824375 -6.3125 13.625 C-4.59339067 8.87698375 -2.31915279 4.47897448 0 0 Z " fill="#171717" transform="translate(264,249)"/>
<path d="M0 0 C1.50433594 0.01353516 1.50433594 0.01353516 3.0390625 0.02734375 C3.80992187 0.03894531 4.58078125 0.05054688 5.375 0.0625 C2.85019307 2.58730693 1.23676966 2.61988633 -2.25 3.1875 C-3.25289063 3.35507813 -4.25578125 3.52265625 -5.2890625 3.6953125 C-6.05992187 3.81648437 -6.83078125 3.93765625 -7.625 4.0625 C-9.2162689 8.935761 -9.83692221 12.87040596 -9.625 18.0625 C-10.285 18.0625 -10.945 18.0625 -11.625 18.0625 C-12.31367618 7.31149957 -12.31367618 7.31149957 -9.75 3.4375 C-6.5190757 -0.17353304 -4.70285759 -0.05468439 0 0 Z " fill="#1B1B1B" transform="translate(259.625,192.9375)"/>
<path d="M0 0 C0.66 0 1.32 0 2 0 C2.05399736 1.45792884 2.09279177 2.91642712 2.125 4.375 C2.14820313 5.18710938 2.17140625 5.99921875 2.1953125 6.8359375 C2 9 2 9 0 11 C-2.5 11.3125 -2.5 11.3125 -5 11 C-7.4294516 7.3558226 -7.16179575 5.28758728 -7 1 C-6.34 1 -5.68 1 -5 1 C-4.67 3.31 -4.34 5.62 -4 8 C-3.01 7.67 -2.02 7.34 -1 7 C-0.67 4.69 -0.34 2.38 0 0 Z " fill="#060606" transform="translate(381,215)"/>
<path d="M0 0 C0.99 0 1.98 0 3 0 C3 2.64 3 5.28 3 8 C3.66 7.67 4.32 7.34 5 7 C5 5.02 5 3.04 5 1 C5.99 1 6.98 1 8 1 C8.1953125 7.0546875 8.1953125 7.0546875 8 9 C7.34 9.66 6.68 10.32 6 11 C3.06546739 10.63318342 2.13562754 10.13562754 0 8 C-0.26991906 5.31160615 -0.08737357 2.70858064 0 0 Z " fill="#040404" transform="translate(321,188)"/>
<path d="M0 0 C0.66 0 1.32 0 2 0 C2.1953125 6.0546875 2.1953125 6.0546875 2 8 C1.34 8.66 0.68 9.32 0 10 C-3.53571429 9.46428571 -3.53571429 9.46428571 -5 8 C-5.04080783 6.00041636 -5.04254356 3.99954746 -5 2 C-4.01 2.33 -3.02 2.66 -2 3 C-2 3.99 -2 4.98 -2 6 C-1.34 6 -0.68 6 0 6 C0 4.02 0 2.04 0 0 Z " fill="#0D0D0D" transform="translate(312,199)"/>
<path d="M0 0 C0.99 0 1.98 0 3 0 C3 1.65 3 3.3 3 5 C6.27773504 4.24849977 6.27773504 4.24849977 8 1 C8.125 3.375 8.125 3.375 8 6 C7.34 6.66 6.68 7.32 6 8 C3.375 7.625 3.375 7.625 1 7 C0.67 4.69 0.34 2.38 0 0 Z " fill="#161616" transform="translate(445,221)"/>
<path d="M0 0 C3.15353929 0.84094381 5.46501019 1.50067618 7.875 3.75 C9.31217164 6.62434327 9.21618085 8.82934761 9 12 C8.34 12 7.68 12 7 12 C6.814375 10.906875 6.62875 9.81375 6.4375 8.6875 C5.42483472 5.0509502 5.42483472 5.0509502 3.30859375 3.8671875 C1.16349857 2.94073788 1.16349857 2.94073788 -2 2 C-1.34 1.34 -0.68 0.68 0 0 Z " fill="#252525" transform="translate(258,157)"/>
<path d="M0 0 C0.66 0 1.32 0 2 0 C2.33 1.65 2.66 3.3 3 5 C6.11332248 4.33131686 6.11332248 4.33131686 7.1875 1.9375 C7.455625 1.298125 7.72375 0.65875 8 0 C8.125 2.875 8.125 2.875 8 6 C7.34 6.66 6.68 7.32 6 8 C3.06546739 7.63318342 2.13562754 7.13562754 0 5 C-0.125 2.375 -0.125 2.375 0 0 Z " fill="#0D0D0D" transform="translate(409,190)"/>
<path d="M0 0 C0.66 0.99 1.32 1.98 2 3 C0.35 6.3 -1.3 9.6 -3 13 C-3.99 13 -4.98 13 -6 13 C-4.31326082 8.50202887 -2.18326108 4.27113698 0 0 Z " fill="#222222" transform="translate(264,249)"/>
<path d="M0 0 C0.66 0.33 1.32 0.66 2 1 C0.68 3.64 -0.64 6.28 -2 9 C-3.32 8.67 -4.64 8.34 -6 8 C-5.67 7.34 -5.34 6.68 -5 6 C-4.34 6 -3.68 6 -3 6 C-2.87625 5.38125 -2.7525 4.7625 -2.625 4.125 C-2 2 -2 2 0 0 Z " fill="#2C2C2C" transform="translate(450,168)"/>
<path d="M0 0 C0.66 0 1.32 0 2 0 C0.7580393 3.43927579 -0.55740284 6.25207819 -3 9 C-3.66 9 -4.32 9 -5 9 C-3.7580393 5.56072421 -2.44259716 2.74792181 0 0 Z " fill="#0C0C0C" transform="translate(396,254)"/>
<path d="M0 0 C0.66 0 1.32 0 2 0 C1.67 4.29 1.34 8.58 1 13 C0.34 13 -0.32 13 -1 13 C-1.02696365 11.20841511 -1.04637917 9.41671527 -1.0625 7.625 C-1.07410156 6.62726563 -1.08570313 5.62953125 -1.09765625 4.6015625 C-1 2 -1 2 0 0 Z " fill="#111111" transform="translate(249,198)"/>
<path d="M0 0 C0.66 0.66 1.32 1.32 2 2 C1.625 4.625 1.625 4.625 1 7 C0.34 7 -0.32 7 -1 7 C-1.33 5.02 -1.66 3.04 -2 1 C-1.34 0.67 -0.68 0.34 0 0 Z " fill="#D5D5D5" transform="translate(325,189)"/>
</svg>
