<?xml version="1.0" encoding="UTF-8"?>
<svg version="1.1" xmlns="http://www.w3.org/2000/svg" width="800" height="300">
<path d="M0 0 C264 0 528 0 800 0 C800 99 800 198 800 300 C536 300 272 300 0 300 C0 201 0 102 0 0 Z " fill="#FEFEFE" transform="translate(0,0)"/>
<path d="M0 0 C0.33 0 0.66 0 1 0 C1 8.25 1 16.5 1 25 C-2.0188127 20.47178095 -2.15331783 16.3597642 -2.1875 11 C-2.20167969 9.989375 -2.21585938 8.97875 -2.23046875 7.9375 C-1.99304931 4.9114081 -1.27324223 2.73772243 0 0 Z " fill="#1C1C1C" transform="translate(799,194)"/>
</svg>
