<?xml version="1.0" encoding="UTF-8"?>
<svg version="1.1" xmlns="http://www.w3.org/2000/svg" width="800" height="300">
<path d="M0 0 C264 0 528 0 800 0 C800 99 800 198 800 300 C536 300 272 300 0 300 C0 201 0 102 0 0 Z " fill="#FEFEFE" transform="translate(0,0)"/>
<path d="M0 0 C0.77085937 0.05542969 1.54171875 0.11085937 2.3359375 0.16796875 C5.49723094 1.05809404 6.70489529 2.14689187 8.625 4.8125 C8.98828125 8.203125 8.98828125 8.203125 8.9375 12.0625 C9.06060606 18.35686717 10.25351441 21.97785537 14.8359375 26.39453125 C18.80552753 29.5407347 21.19909418 30.42047806 26.16015625 30.33203125 C30.06660695 29.50864307 32.45653596 27.19158751 35.4296875 24.6328125 C42.13945794 19.06919502 49.12762479 17.68053138 57.72216797 17.69897461 C58.90293915 17.69905014 60.08371033 17.69912567 61.30026245 17.69920349 C63.18964035 17.70694542 63.18964035 17.70694542 65.1171875 17.71484375 C66.41826447 17.7162587 67.71934143 17.71767365 69.05984497 17.71913147 C72.50229853 17.72293156 75.94470925 17.73274017 79.387146 17.74383545 C82.90652894 17.75410375 86.42591887 17.75864066 89.9453125 17.76367188 C96.83855916 17.77436491 103.73177752 17.79141089 110.625 17.8125 C110.625 17.1525 110.625 16.4925 110.625 15.8125 C114.255 16.1425 117.885 16.4725 121.625 16.8125 C120.635 14.8325 120.635 14.8325 119.625 12.8125 C119.1875 10.25 119.1875 10.25 119.625 7.8125 C122.30895008 5.44430876 123.98963244 4.83953692 127.5625 4.6875 C131.84057204 6.25903667 134.20223129 9.00078246 136.625 12.8125 C137.29296875 15.04296875 137.29296875 15.04296875 137.625 16.8125 C138.49511719 16.97685547 138.49511719 16.97685547 139.3828125 17.14453125 C146.47228596 18.58348378 152.26524448 20.75050868 157.625 25.8125 C158.9375 28.5625 158.9375 28.5625 159.625 30.8125 C160.6975 30.895 161.77 30.9775 162.875 31.0625 C172.12067314 32.25919174 180.82404821 35.27312328 187.625 41.8125 C191.26873707 47.2781056 190.86672028 53.18288806 190.9375 59.5625 C190.96650391 60.4184375 190.99550781 61.274375 191.02539062 62.15625 C191.12162095 71.92732935 187.06027802 79.63800898 180.75 87 C173.68302242 93.02771617 166.19900017 92.26537681 157.390625 92.33984375 C151.55090241 92.46332047 147.8038714 92.92457027 142.625 95.8125 C138.9765625 96.32421875 138.9765625 96.32421875 135.25 96.5 C134.00476563 96.56574219 132.75953125 96.63148438 131.4765625 96.69921875 C130.53554688 96.73660156 129.59453125 96.77398437 128.625 96.8125 C128.91375 97.36679687 129.2025 97.92109375 129.5 98.4921875 C129.87125 99.21664062 130.2425 99.94109375 130.625 100.6875 C130.99625 101.40679687 131.3675 102.12609375 131.75 102.8671875 C132.625 104.8125 132.625 104.8125 132.625 106.8125 C133.8315625 107.2765625 133.8315625 107.2765625 135.0625 107.75 C137.625 108.8125 137.625 108.8125 138.625 109.8125 C138.609375 111.9921875 138.609375 111.9921875 138.375 114.6875 C138.30796875 115.57179688 138.2409375 116.45609375 138.171875 117.3671875 C137.54654525 120.16330479 136.88545534 121.10101239 134.625 122.8125 C131.59263557 123.82328814 129.30446833 124.0438039 126.125 124.125 C124.68640625 124.18107422 124.68640625 124.18107422 123.21875 124.23828125 C120.625 123.8125 120.625 123.8125 118.796875 122.0078125 C116.38158464 117.48316855 117.60319335 112.61663932 118.625 107.8125 C104.90322326 103.45207903 91.68249693 105.18832705 77.625 106.8125 C77.80289063 108.16794922 77.80289063 108.16794922 77.984375 109.55078125 C78.17773438 111.32001953 78.17773438 111.32001953 78.375 113.125 C78.51421875 114.29675781 78.6534375 115.46851563 78.796875 116.67578125 C78.625 119.8125 78.625 119.8125 76.984375 121.69921875 C72.64762323 123.74553374 68.296845 123.53560803 63.625 122.8125 C60.9375 120.9375 60.9375 120.9375 59.625 117.8125 C58.93701178 113.2333096 58.62370265 109.31444603 61.25 105.375 C63.625 103.8125 63.625 103.8125 66.75 102.3125 C69.89080846 100.67381733 70.28579024 99.92456839 71.625 96.8125 C70.43938477 96.94962402 69.25376953 97.08674805 68.03222656 97.22802734 C55.13711441 98.65471709 42.34109169 99.2201912 29.375 99.4375 C27.44269375 99.47583425 25.51040175 99.51489382 23.578125 99.5546875 C18.92720403 99.64893609 14.2762047 99.73354635 9.625 99.8125 C10.12 100.67875 10.12 100.67875 10.625 101.5625 C11.625 103.8125 11.625 103.8125 11.625 107.8125 C12.5840625 108.2765625 12.5840625 108.2765625 13.5625 108.75 C15.625 109.8125 15.625 109.8125 16.625 110.8125 C16.609375 112.7734375 16.609375 112.7734375 16.375 115.1875 C16.27445313 116.37472656 16.27445313 116.37472656 16.171875 117.5859375 C15.49615869 120.33706818 15.00192254 121.2524908 12.625 122.8125 C9.41015625 123.24609375 9.41015625 123.24609375 5.6875 123.25 C4.46160156 123.26933594 3.23570312 123.28867187 1.97265625 123.30859375 C-1.375 122.8125 -1.375 122.8125 -3.79296875 120.96875 C-5.93270218 118.05237259 -5.80979024 116.36328695 -5.375 112.8125 C-4.375 109.9375 -4.375 109.9375 -3.375 107.8125 C-8.4022271 105.01781996 -13.36361991 105.80909564 -18.890625 106.203125 C-19.90219666 106.26779968 -20.91376831 106.33247437 -21.95599365 106.39910889 C-24.08789919 106.53827774 -26.2194358 106.68320206 -28.35058594 106.83349609 C-31.62610434 107.06257723 -34.90250827 107.268876 -38.1796875 107.47265625 C-40.25009072 107.61062443 -42.32040722 107.74990166 -44.390625 107.890625 C-45.37597229 107.95219788 -46.36131958 108.01377075 -47.37652588 108.07720947 C-48.28126648 108.14357605 -49.18600708 108.20994263 -50.11816406 108.27832031 C-51.3179892 108.36064911 -51.3179892 108.36064911 -52.54205322 108.44464111 C-53.14692566 108.56603455 -53.7517981 108.68742798 -54.375 108.8125 C-54.705 109.4725 -55.035 110.1325 -55.375 110.8125 C-54.735625 111.01875 -54.09625 111.225 -53.4375 111.4375 C-51.375 112.8125 -51.375 112.8125 -50.625 115.9375 C-50.5425 116.88625 -50.46 117.835 -50.375 118.8125 C-58.44867956 125.35872667 -58.44867956 125.35872667 -64.23828125 125.1875 C-68.07006329 124.51501175 -70.8416994 122.74117121 -73.375 119.8125 C-74.4444038 116.22685195 -74.72698547 114.02844981 -73.6875 110.4375 C-72.0568563 108.4186078 -70.905472 108.14989627 -68.375 107.8125 C-68.2925 106.925625 -68.21 106.03875 -68.125 105.125 C-67.2815914 101.39994536 -65.91947236 99.60321162 -63.375 96.8125 C-66.12757673 94.72032446 -66.12757673 94.72032446 -68.98828125 92.78125 C-75.80314627 88.30852262 -80.56194382 82.37171513 -82.84375 74.48046875 C-84.92277641 64.03947584 -84.48173034 54.18091793 -82.375 43.8125 C-82.22933594 42.95527344 -82.08367187 42.09804687 -81.93359375 41.21484375 C-81.00596694 36.20900175 -79.57341226 32.91399337 -76.375 28.8125 C-73.38671875 26.765625 -73.38671875 26.765625 -70.0625 25.0625 C-68.97324219 24.49015625 -67.88398438 23.9178125 -66.76171875 23.328125 C-63.29868522 21.77834759 -60.03874328 20.75977963 -56.375 19.8125 C-56.28863281 19.08804688 -56.20226562 18.36359375 -56.11328125 17.6171875 C-55.19045059 11.26743526 -54.44182084 6.97855269 -49.375 2.8125 C-45.44218339 2.18044019 -43.26379036 2.37843959 -39.6875 4.125 C-38.924375 4.681875 -38.16125 5.23875 -37.375 5.8125 C-36.611875 6.225 -35.84875 6.6375 -35.0625 7.0625 C-33.375 8.8125 -33.375 8.8125 -33.26953125 12.421875 C-33.30433594 13.54078125 -33.33914062 14.6596875 -33.375 15.8125 C-32.71902832 15.80726318 -32.06305664 15.80202637 -31.38720703 15.79663086 C-28.42481437 15.77588728 -25.46243697 15.76284824 -22.5 15.75 C-20.95119141 15.73743164 -20.95119141 15.73743164 -19.37109375 15.72460938 C-18.38496094 15.72138672 -17.39882812 15.71816406 -16.3828125 15.71484375 C-15.47160645 15.70960693 -14.56040039 15.70437012 -13.62158203 15.69897461 C-11.375 15.8125 -11.375 15.8125 -9.375 16.8125 C-9.42720703 15.95978516 -9.42720703 15.95978516 -9.48046875 15.08984375 C-9.67677282 9.49050374 -9.05363939 5.75768042 -6.375 0.8125 C-3.9523097 -0.39884515 -2.67949901 -0.23590274 0 0 Z " fill="#FBFBFB" transform="translate(244.375,161.1875)"/>
<path d="M0 0 C0.77085937 0.05542969 1.54171875 0.11085937 2.3359375 0.16796875 C5.49723094 1.05809404 6.70489529 2.14689187 8.625 4.8125 C8.98828125 8.203125 8.98828125 8.203125 8.9375 12.0625 C9.06060606 18.35686717 10.25351441 21.97785537 14.8359375 26.39453125 C18.80552753 29.5407347 21.19909418 30.42047806 26.16015625 30.33203125 C30.06660695 29.50864307 32.45653596 27.19158751 35.4296875 24.6328125 C42.13945794 19.06919502 49.12762479 17.68053138 57.72216797 17.69897461 C58.90293915 17.69905014 60.08371033 17.69912567 61.30026245 17.69920349 C63.18964035 17.70694542 63.18964035 17.70694542 65.1171875 17.71484375 C66.41826447 17.7162587 67.71934143 17.71767365 69.05984497 17.71913147 C72.50229853 17.72293156 75.94470925 17.73274017 79.387146 17.74383545 C82.90652894 17.75410375 86.42591887 17.75864066 89.9453125 17.76367188 C96.83855916 17.77436491 103.73177752 17.79141089 110.625 17.8125 C110.625 17.1525 110.625 16.4925 110.625 15.8125 C114.255 16.1425 117.885 16.4725 121.625 16.8125 C120.635 14.8325 120.635 14.8325 119.625 12.8125 C119.1875 10.25 119.1875 10.25 119.625 7.8125 C122.30895008 5.44430876 123.98963244 4.83953692 127.5625 4.6875 C131.84057204 6.25903667 134.20223129 9.00078246 136.625 12.8125 C137.29296875 15.04296875 137.29296875 15.04296875 137.625 16.8125 C138.49511719 16.97685547 138.49511719 16.97685547 139.3828125 17.14453125 C146.47228596 18.58348378 152.26524448 20.75050868 157.625 25.8125 C158.9375 28.5625 158.9375 28.5625 159.625 30.8125 C160.6975 30.895 161.77 30.9775 162.875 31.0625 C172.12067314 32.25919174 180.82404821 35.27312328 187.625 41.8125 C191.26873707 47.2781056 190.86672028 53.18288806 190.9375 59.5625 C190.96650391 60.4184375 190.99550781 61.274375 191.02539062 62.15625 C191.12162095 71.92732935 187.06027802 79.63800898 180.75 87 C173.68302242 93.02771617 166.19900017 92.26537681 157.390625 92.33984375 C151.55090241 92.46332047 147.8038714 92.92457027 142.625 95.8125 C138.9765625 96.32421875 138.9765625 96.32421875 135.25 96.5 C134.00476563 96.56574219 132.75953125 96.63148438 131.4765625 96.69921875 C130.53554688 96.73660156 129.59453125 96.77398437 128.625 96.8125 C128.91375 97.36679687 129.2025 97.92109375 129.5 98.4921875 C129.87125 99.21664062 130.2425 99.94109375 130.625 100.6875 C130.99625 101.40679687 131.3675 102.12609375 131.75 102.8671875 C132.625 104.8125 132.625 104.8125 132.625 106.8125 C133.8315625 107.2765625 133.8315625 107.2765625 135.0625 107.75 C137.625 108.8125 137.625 108.8125 138.625 109.8125 C138.609375 111.9921875 138.609375 111.9921875 138.375 114.6875 C138.30796875 115.57179688 138.2409375 116.45609375 138.171875 117.3671875 C137.54654525 120.16330479 136.88545534 121.10101239 134.625 122.8125 C131.59263557 123.82328814 129.30446833 124.0438039 126.125 124.125 C124.68640625 124.18107422 124.68640625 124.18107422 123.21875 124.23828125 C120.625 123.8125 120.625 123.8125 118.796875 122.0078125 C116.38158464 117.48316855 117.60319335 112.61663932 118.625 107.8125 C104.90322326 103.45207903 91.68249693 105.18832705 77.625 106.8125 C77.80289063 108.16794922 77.80289063 108.16794922 77.984375 109.55078125 C78.17773438 111.32001953 78.17773438 111.32001953 78.375 113.125 C78.51421875 114.29675781 78.6534375 115.46851563 78.796875 116.67578125 C78.625 119.8125 78.625 119.8125 76.984375 121.69921875 C72.64762323 123.74553374 68.296845 123.53560803 63.625 122.8125 C60.9375 120.9375 60.9375 120.9375 59.625 117.8125 C58.93701178 113.2333096 58.62370265 109.31444603 61.25 105.375 C63.625 103.8125 63.625 103.8125 66.75 102.3125 C69.89080846 100.67381733 70.28579024 99.92456839 71.625 96.8125 C70.43938477 96.94962402 69.25376953 97.08674805 68.03222656 97.22802734 C55.13711441 98.65471709 42.34109169 99.2201912 29.375 99.4375 C27.44269375 99.47583425 25.51040175 99.51489382 23.578125 99.5546875 C18.92720403 99.64893609 14.2762047 99.73354635 9.625 99.8125 C10.12 100.67875 10.12 100.67875 10.625 101.5625 C11.625 103.8125 11.625 103.8125 11.625 107.8125 C12.5840625 108.2765625 12.5840625 108.2765625 13.5625 108.75 C15.625 109.8125 15.625 109.8125 16.625 110.8125 C16.609375 112.7734375 16.609375 112.7734375 16.375 115.1875 C16.27445313 116.37472656 16.27445313 116.37472656 16.171875 117.5859375 C15.49615869 120.33706818 15.00192254 121.2524908 12.625 122.8125 C9.41015625 123.24609375 9.41015625 123.24609375 5.6875 123.25 C4.46160156 123.26933594 3.23570312 123.28867187 1.97265625 123.30859375 C-1.375 122.8125 -1.375 122.8125 -3.79296875 120.96875 C-5.93270218 118.05237259 -5.80979024 116.36328695 -5.375 112.8125 C-4.375 109.9375 -4.375 109.9375 -3.375 107.8125 C-8.4022271 105.01781996 -13.36361991 105.80909564 -18.890625 106.203125 C-19.90219666 106.26779968 -20.91376831 106.33247437 -21.95599365 106.39910889 C-24.08789919 106.53827774 -26.2194358 106.68320206 -28.35058594 106.83349609 C-31.62610434 107.06257723 -34.90250827 107.268876 -38.1796875 107.47265625 C-40.25009072 107.61062443 -42.32040722 107.74990166 -44.390625 107.890625 C-45.37597229 107.95219788 -46.36131958 108.01377075 -47.37652588 108.07720947 C-48.28126648 108.14357605 -49.18600708 108.20994263 -50.11816406 108.27832031 C-51.3179892 108.36064911 -51.3179892 108.36064911 -52.54205322 108.44464111 C-53.14692566 108.56603455 -53.7517981 108.68742798 -54.375 108.8125 C-54.705 109.4725 -55.035 110.1325 -55.375 110.8125 C-54.735625 111.01875 -54.09625 111.225 -53.4375 111.4375 C-51.375 112.8125 -51.375 112.8125 -50.625 115.9375 C-50.5425 116.88625 -50.46 117.835 -50.375 118.8125 C-58.44867956 125.35872667 -58.44867956 125.35872667 -64.23828125 125.1875 C-68.07006329 124.51501175 -70.8416994 122.74117121 -73.375 119.8125 C-74.4444038 116.22685195 -74.72698547 114.02844981 -73.6875 110.4375 C-72.0568563 108.4186078 -70.905472 108.14989627 -68.375 107.8125 C-68.2925 106.925625 -68.21 106.03875 -68.125 105.125 C-67.2815914 101.39994536 -65.91947236 99.60321162 -63.375 96.8125 C-66.12757673 94.72032446 -66.12757673 94.72032446 -68.98828125 92.78125 C-75.80314627 88.30852262 -80.56194382 82.37171513 -82.84375 74.48046875 C-84.92277641 64.03947584 -84.48173034 54.18091793 -82.375 43.8125 C-82.22933594 42.95527344 -82.08367187 42.09804687 -81.93359375 41.21484375 C-81.00596694 36.20900175 -79.57341226 32.91399337 -76.375 28.8125 C-73.38671875 26.765625 -73.38671875 26.765625 -70.0625 25.0625 C-68.97324219 24.49015625 -67.88398438 23.9178125 -66.76171875 23.328125 C-63.29868522 21.77834759 -60.03874328 20.75977963 -56.375 19.8125 C-56.28863281 19.08804688 -56.20226562 18.36359375 -56.11328125 17.6171875 C-55.19045059 11.26743526 -54.44182084 6.97855269 -49.375 2.8125 C-45.44218339 2.18044019 -43.26379036 2.37843959 -39.6875 4.125 C-38.924375 4.681875 -38.16125 5.23875 -37.375 5.8125 C-36.611875 6.225 -35.84875 6.6375 -35.0625 7.0625 C-33.375 8.8125 -33.375 8.8125 -33.26953125 12.421875 C-33.30433594 13.54078125 -33.33914062 14.6596875 -33.375 15.8125 C-32.71902832 15.80726318 -32.06305664 15.80202637 -31.38720703 15.79663086 C-28.42481437 15.77588728 -25.46243697 15.76284824 -22.5 15.75 C-20.95119141 15.73743164 -20.95119141 15.73743164 -19.37109375 15.72460938 C-18.38496094 15.72138672 -17.39882812 15.71816406 -16.3828125 15.71484375 C-15.47160645 15.70960693 -14.56040039 15.70437012 -13.62158203 15.69897461 C-11.375 15.8125 -11.375 15.8125 -9.375 16.8125 C-9.42720703 15.95978516 -9.42720703 15.95978516 -9.48046875 15.08984375 C-9.67677282 9.49050374 -9.05363939 5.75768042 -6.375 0.8125 C-3.9523097 -0.39884515 -2.67949901 -0.23590274 0 0 Z M-4.375 2.8125 C-8.11698684 8.7373125 -7.375 10.81738251 -7.375 18.8125 C-16.615 18.8125 -25.855 18.8125 -35.375 18.8125 C-35.375 16.1725 -35.375 13.5325 -35.375 10.8125 C-37.98204063 7.63516924 -40.50009056 6.57054331 -44.4375 5.8125 C-48.25859156 5.50137199 -48.25859156 5.50137199 -50.8125 7.125 C-53.13492427 11.11956974 -53.41490573 15.23132195 -53.375 19.8125 C-53.045 20.4725 -52.715 21.1325 -52.375 21.8125 C-53.04144531 21.94785156 -53.70789063 22.08320313 -54.39453125 22.22265625 C-63.91172185 24.44555252 -72.72645777 28.53701565 -78.375 36.8125 C-83.0936747 49.36526784 -84.4621867 65.42622822 -79.03125 77.8984375 C-74.74459304 85.27876671 -68.96878563 90.01560718 -61.375 93.8125 C-59.2952694 94.01932404 -57.21073188 94.17916554 -55.125 94.3125 C-50.81094493 94.59082613 -46.629562 95.03894327 -42.375 95.8125 C-42.375 96.4725 -42.375 97.1325 -42.375 97.8125 C-43.61636719 97.74289062 -44.85773438 97.67328125 -46.13671875 97.6015625 C-47.77859158 97.54526972 -49.42052311 97.49067119 -51.0625 97.4375 C-51.87912109 97.38722656 -52.69574219 97.33695312 -53.53710938 97.28515625 C-58.06794539 97.12247547 -58.06794539 97.12247547 -62.02661133 99.03857422 C-64.2722812 101.62863707 -65.94985261 104.33455734 -66.6875 107.6875 C-66.914375 108.71875 -67.14125 109.75 -67.375 110.8125 C-68.014375 110.915625 -68.65375 111.01875 -69.3125 111.125 C-69.993125 111.351875 -70.67375 111.57875 -71.375 111.8125 C-72.74545508 114.78086334 -72.74545508 114.78086334 -71.1875 117.375 C-69.25839423 119.96931466 -68.43054052 120.87886262 -65.375 121.8125 C-61.04065556 122.28533757 -59.08442609 122.29551351 -55.4375 119.8125 C-54.4165625 118.8225 -54.4165625 118.8225 -53.375 117.8125 C-53.72286708 115.83713255 -53.72286708 115.83713255 -54.375 113.8125 C-55.035 113.4825 -55.695 113.1525 -56.375 112.8125 C-56.41754356 110.81295254 -56.41580783 108.81208364 -56.375 106.8125 C-54.44263176 104.88013176 -50.8720607 105.44570393 -48.2265625 105.3125 C-47.49940033 105.27189453 -46.77223816 105.23128906 -46.02304077 105.18945312 C-43.68224495 105.05938633 -41.34117207 104.93559305 -39 104.8125 C-35.95037333 104.648452 -32.90093242 104.48124785 -29.8515625 104.3125 C-28.74551666 104.25266434 -28.74551666 104.25266434 -27.61712646 104.19161987 C-22.56150582 103.9087359 -17.53525709 103.48619136 -12.50341797 102.91064453 C-9.46870457 102.77070936 -7.11865265 103.57785631 -4.375 104.8125 C-2.89 105.3075 -2.89 105.3075 -1.375 105.8125 C-1.25 108.6875 -1.25 108.6875 -1.375 111.8125 C-2.035 112.4725 -2.695 113.1325 -3.375 113.8125 C-3.08516731 117.11933466 -3.08516731 117.11933466 -1.375 119.8125 C0.74384707 120.01679655 2.8722027 120.12643738 5 120.1875 C6.74410156 120.26097656 6.74410156 120.26097656 8.5234375 120.3359375 C11.79901973 120.13209366 11.79901973 120.13209366 13.58203125 117.4296875 C14.90737272 114.89730565 14.90737272 114.89730565 13.9375 112.5625 C12.72748645 110.67740423 12.72748645 110.67740423 10.625 109.8125 C9.78678177 107.81569741 9.15924909 105.78605001 8.50390625 103.72265625 C7.66540098 101.46098147 7.66540098 101.46098147 4.625 99.8125 C2.10915109 99.57099227 2.10915109 99.57099227 -0.5625 99.6875 C-1.46355469 99.70554687 -2.36460937 99.72359375 -3.29296875 99.7421875 C-3.98003906 99.76539063 -4.66710937 99.78859375 -5.375 99.8125 C-5.375 98.4925 -5.375 97.1725 -5.375 95.8125 C-3.46714722 95.88150513 -3.46714722 95.88150513 -1.52075195 95.9519043 C21.80400648 96.76494696 44.51110571 97.28892986 67.68359375 94.17041016 C72.25770216 93.61383289 76.83652918 93.34516859 81.4375 93.125 C82.56055542 93.07110107 82.56055542 93.07110107 83.70629883 93.01611328 C85.34560008 92.94209968 86.98526395 92.87615776 88.625 92.8125 C88.295 93.4725 87.965 94.1325 87.625 94.8125 C85.69860715 95.15348028 83.75710046 95.41102341 81.8125 95.625 C76.95115452 96.28060964 76.95115452 96.28060964 73.125 99.1875 C72.63 100.05375 72.135 100.92 71.625 101.8125 C68.83503334 104.96246236 66.58756114 106.42024879 62.625 107.8125 C61.25124631 108.96895826 61.25124631 108.96895826 61.375 112.125 C61.64020794 116.0368171 61.91186737 117.1228577 64.625 119.8125 C67.097385 120.33243463 67.097385 120.33243463 69.75 120.125 C70.63945312 120.10050781 71.52890625 120.07601562 72.4453125 120.05078125 C74.60089735 120.04529487 74.60089735 120.04529487 75.625 118.8125 C75.8750773 116.35440002 75.8750773 116.35440002 75.625 113.8125 C74.965 113.1525 74.305 112.4925 73.625 111.8125 C74.02032025 109.36151444 74.83801426 107.17345721 75.625 104.8125 C76.924375 104.68875 78.22375 104.565 79.5625 104.4375 C82.81374884 104.08697473 85.89305301 103.54802147 89.0625 102.75 C98.10334837 100.66966638 106.62850113 102.12872904 115.625 103.8125 C117.62436811 104.14960276 119.62420583 104.48396723 121.625 104.8125 C120.75 112.6875 120.75 112.6875 119.625 113.8125 C119.3749227 116.27059998 119.3749227 116.27059998 119.625 118.8125 C122.12509087 121.31259087 123.0462859 121.10962739 126.5 121.125 C127.79550781 121.15013672 127.79550781 121.15013672 129.1171875 121.17578125 C132.11599241 120.74137493 133.45218831 119.89742268 135.625 117.8125 C136.70075878 114.85888827 136.70075878 114.85888827 136.625 111.8125 C135.56154948 109.83220318 135.56154948 109.83220318 133.625 108.8125 C132.305 108.8125 130.985 108.8125 129.625 108.8125 C129.563125 107.760625 129.50125 106.70875 129.4375 105.625 C128.46437586 101.05880212 127.23088069 99.69720455 123.625 96.8125 C121.64049844 95.78208573 119.64300895 94.77564063 117.625 93.8125 C117.295 93.1525 116.965 92.4925 116.625 91.8125 C117.18654785 91.97331055 117.7480957 92.13412109 118.32666016 92.29980469 C122.49849943 93.2304253 126.74201161 93.03916856 131 93.0625 C131.93328125 93.083125 132.8665625 93.10375 133.828125 93.125 C139.14072718 93.15509973 143.10956242 92.96006886 147.625 89.8125 C148.96390227 86.88353116 148.96390227 86.88353116 147.625 84.375 C146.50187559 81.49699369 146.61979012 80.64536421 147.625 77.8125 C148.91675597 73.79370366 148.76232387 70.00087797 148.625 65.8125 C148.295 65.4825 147.965 65.1525 147.625 64.8125 C147.74468419 62.99629249 147.9222282 61.18381664 148.125 59.375 C148.60591925 54.34338236 148.49258759 49.76896736 147.78125 44.7734375 C147.625 42.8125 147.625 42.8125 148.625 40.8125 C149.09088282 34.93084264 149.09088282 34.93084264 146.625 29.8125 C147.3675 30.18375 148.11 30.555 148.875 30.9375 C151.56783647 32.10765863 151.56783647 32.10765863 153.9375 30.9375 C154.494375 30.56625 155.05125 30.195 155.625 29.8125 C153.91512227 24.68286682 148.69228262 22.87135208 144.0625 20.5 C140.86681904 19.59865409 137.92615204 19.68304306 134.625 19.8125 C134.810625 18.7915625 134.810625 18.7915625 135 17.75 C134.43489217 13.32332201 131.99363915 10.64215688 128.625 7.8125 C125.94835354 6.97544699 125.94835354 6.97544699 123.625 7.8125 C122.965 8.8025 122.305 9.7925 121.625 10.8125 C122.26042814 13.15279384 122.26042814 13.15279384 123.5 15.5 C123.88929688 16.30824219 124.27859375 17.11648437 124.6796875 17.94921875 C124.99164063 18.56410156 125.30359375 19.17898437 125.625 19.8125 C124.7554921 19.82280746 123.88598419 19.83311493 122.99012756 19.84373474 C114.76654478 19.9420096 106.54302864 20.04456456 98.31955814 20.15183926 C94.09253937 20.20683186 89.86551346 20.26021184 85.63842773 20.30981445 C81.55350152 20.35780977 77.46865157 20.41016125 73.38381767 20.46544075 C71.8310583 20.48570622 70.27827816 20.50444361 68.72548103 20.52157402 C53.58970295 19.99845322 53.58970295 19.99845322 39.875 25.125 C38.99328125 25.71925781 38.1115625 26.31351563 37.203125 26.92578125 C34.5790478 28.78824401 34.5790478 28.78824401 32.12890625 31 C28.49573441 33.6299403 25.79119503 33.5498885 21.41796875 33.40234375 C16.61397307 32.38779361 13.75486252 29.44432161 10.625 25.8125 C10.06554687 25.22984375 9.50609375 24.6471875 8.9296875 24.046875 C6.5146324 19.91091238 7.25418404 15.02099822 7.2265625 10.34375 C6.94160765 6.68909675 6.94160765 6.68909675 4.29296875 4.359375 C1.15136224 2.53788718 -0.80110353 2.48004451 -4.375 2.8125 Z " fill="#0F0F0F" transform="translate(244.375,161.1875)"/>
<path d="M0 0 C5.16866757 0.65537354 10.1381778 1.66213129 15.1875 2.9375 C15.88552734 3.10701172 16.58355469 3.27652344 17.30273438 3.45117188 C20.7488079 4.31350997 23.91165788 5.22041268 27 7 C26.34 8.98 25.68 10.96 25 13 C24.34 13 23.68 13 23 13 C23.37904208 16.29075996 23.37904208 16.29075996 25 19 C24.62206515 22.90532683 24.23947487 26.2815754 23 30 C20.9375 30.6875 20.9375 30.6875 19 31 C19 31.66 19 32.32 19 33 C22.465 32.505 22.465 32.505 26 32 C26.36664185 30.12739946 26.71774366 28.25175307 27.0625 26.375 C27.25972656 25.33085937 27.45695312 24.28671875 27.66015625 23.2109375 C28.14963493 19.98359531 28.14963493 19.98359531 27.4375 16.75 C27.2209375 15.38875 27.2209375 15.38875 27 14 C28.9375 11.625 28.9375 11.625 31 10 C36.12284887 14.44878981 37.68595828 18.02961542 38.21875 24.765625 C38.50605036 34.10288673 37.01378714 42.62826092 31 50 C30.34 50 29.68 50 29 50 C28.79375 50.598125 28.5875 51.19625 28.375 51.8125 C26.34331555 55.04472526 24.61210496 55.73259475 21 57 C17.31809298 57.2380325 13.68359909 57.17697006 10 57 C10.391875 55.96875 10.78375 54.9375 11.1875 53.875 C12.17791868 49.15146478 11.16237658 48.15841649 9 44 C8.73689428 40.9817306 8.81869755 38.02170742 9 35 C7.02 34.34 5.04 33.68 3 33 C3.680625 33.680625 4.36125 34.36125 5.0625 35.0625 C7 38 7 38 6.75 41.8125 C6.5025 42.864375 6.255 43.91625 6 45 C6.99 45.66 7.98 46.32 9 47 C9.4375 49.875 9.4375 49.875 9 53 C7.25 55.375 7.25 55.375 5 57 C3.68 57 2.36 57 1 57 C0.855625 55.9275 0.71125 54.855 0.5625 53.75 C0.12784959 50.27441393 0.12784959 50.27441393 -0.56640625 48.06640625 C-1.08370862 45.60106434 -0.84514861 43.67806096 -0.5 41.1875 C0.00209549 36.89458357 -0.37690528 33.28377617 -1 29 C-0.81021499 26.68304136 -0.51520996 24.40980915 -0.15625 22.11328125 C0.11353197 20.01614312 0.11353197 20.01614312 -0.49609375 18.10546875 C-1.16990449 15.29008899 -0.85341005 12.8731857 -0.5625 10 C-0.22872077 6.61995718 0 3.40328047 0 0 Z " fill="#656565" transform="translate(395,193)"/>
<path d="M0 0 C3.57415845 3.18349462 6.10546401 6.23264938 7 11 C7.58007812 11.10957031 8.16015625 11.21914062 8.7578125 11.33203125 C15.84728596 12.77098378 21.64024448 14.93800868 27 20 C28.3125 22.75 28.3125 22.75 29 25 C30.0725 25.0825 31.145 25.165 32.25 25.25 C41.49567314 26.44669174 50.19904821 29.46062328 57 36 C60.64373707 41.4656056 60.24172028 47.37038806 60.3125 53.75 C60.34150391 54.6059375 60.37050781 55.461875 60.40039062 56.34375 C60.49662095 66.11482935 56.43527802 73.82550898 50.125 81.1875 C43.05802242 87.21521617 35.57400017 86.45287681 26.765625 86.52734375 C20.92590241 86.65082047 17.1788714 87.11207027 12 90 C8.3515625 90.51171875 8.3515625 90.51171875 4.625 90.6875 C3.37976563 90.75324219 2.13453125 90.81898438 0.8515625 90.88671875 C-0.08945312 90.92410156 -1.03046875 90.96148437 -2 91 C-1.71125 91.55429687 -1.4225 92.10859375 -1.125 92.6796875 C-0.75375 93.40414062 -0.3825 94.12859375 0 94.875 C0.37125 95.59429687 0.7425 96.31359375 1.125 97.0546875 C2 99 2 99 2 101 C2.804375 101.309375 3.60875 101.61875 4.4375 101.9375 C7 103 7 103 8 104 C7.984375 106.1796875 7.984375 106.1796875 7.75 108.875 C7.68296875 109.75929688 7.6159375 110.64359375 7.546875 111.5546875 C6.92154525 114.35080479 6.26045534 115.28851239 4 117 C0.96763557 118.01078814 -1.32053167 118.2313039 -4.5 118.3125 C-5.4590625 118.34988281 -6.418125 118.38726562 -7.40625 118.42578125 C-10 118 -10 118 -11.83203125 116.15234375 C-13.2244331 113.58641258 -13.23980468 111.87765619 -13 109 C-12.34 108.67 -11.68 108.34 -11 108 C-10.34 109.98 -9.68 111.96 -9 114 C-7.39620659 114.05416188 -5.79188594 114.09286638 -4.1875 114.125 C-3.29417969 114.14820313 -2.40085937 114.17140625 -1.48046875 114.1953125 C1.25402714 114.18285827 1.25402714 114.18285827 4 112 C4.91115 109.03344954 4.91115 109.03344954 5 106 C3.21895929 103.8359984 3.21895929 103.8359984 0.94921875 103.640625 C0.30597656 103.42921875 -0.33726562 103.2178125 -1 103 C-1.73046875 101.109375 -1.73046875 101.109375 -2.1875 98.75 C-3.05527777 95.66129946 -3.54758752 94.33664087 -6.15234375 92.3984375 C-7.75643347 91.57231862 -9.38565188 90.79267636 -11.0390625 90.0703125 C-13 89 -13 89 -14 86 C-12.91114502 86.02356567 -12.91114502 86.02356567 -11.80029297 86.04760742 C-8.49194212 86.11020355 -5.18371619 86.14906912 -1.875 86.1875 C-0.16183594 86.22520508 -0.16183594 86.22520508 1.5859375 86.26367188 C9.76483064 86.35426259 9.76483064 86.35426259 17 83 C16.83242188 82.33613281 16.66484375 81.67226562 16.4921875 80.98828125 C15.30160356 75.82657241 14.68406509 72.88919591 17 68 C17.23449967 65.27980385 17.1370366 62.7407321 17 60 C16.67 59.67 16.34 59.34 16 59 C16.11968419 57.18379249 16.2972282 55.37131664 16.5 53.5625 C16.98091925 48.53088236 16.86758759 43.95646736 16.15625 38.9609375 C16 37 16 37 17 35 C17.21377721 29.39296787 17.21377721 29.39296787 16 24 C17.98 24.495 17.98 24.495 20 25 C20.78033014 30.96652432 20.8692421 36.02396056 20 42 C20.19574502 44.27961386 20.50408629 46.53003427 20.8125 48.796875 C21.08012614 51.94148215 20.47802392 54.89284453 20 58 C20.165 58.763125 20.33 59.52625 20.5 60.3125 C21.08411167 63.45210025 20.84347148 66.08069496 20.5 69.25 C20.29471151 71.16291545 20.11780914 73.07971099 20 75 C20.33 75.33 20.66 75.66 21 76 C21.04092937 78.33297433 21.04241723 80.66705225 21 83 C23.91517292 81.92598892 25.77810176 81.22189824 28 79 C28.4167552 76.04211431 28.4167552 76.04211431 28 73 C27.484375 72.525625 26.96875 72.05125 26.4375 71.5625 C25.963125 71.046875 25.48875 70.53125 25 70 C25.3125 66.3125 25.3125 66.3125 26 63 C24.515 62.01 24.515 62.01 23 61 C23 60.34 23 59.68 23 59 C24.65 59 26.3 59 28 59 C29.71054394 61.6727249 29.99860221 63.07408286 29.9375 66.3125 C29.75978527 70.10110504 29.75978527 70.10110504 31.625 73.625 C33 77 33 77 32.1875 79.9375 C31.795625 80.618125 31.40375 81.29875 31 82 C37.96541522 82.50453712 42.31356464 82.20796217 48 78 C55.54765112 70.03303493 57.45495962 59.9227647 57.1875 49.2578125 C56.73313385 43.78648673 55.12865399 40.57816679 51 37 C49.38297258 38.23052583 49.38297258 38.23052583 48 40 C47.9690437 41.9998386 47.9690437 41.9998386 48.5 44.125 C49.25425043 49.24552237 48.55692409 53.45975837 46 58 C43.4375 59.625 43.4375 59.625 41 60 C40.34 59.67 39.68 59.34 39 59 C39 58.34 39 57.68 39 57 C40.32 56.67 41.64 56.34 43 56 C43.22304441 54.25181409 43.4278645 52.50129677 43.625 50.75 C43.79902344 49.28820312 43.79902344 49.28820312 43.9765625 47.796875 C44.00144803 44.82720122 43.3873638 43.54913999 42 41 C42.495 40.01 42.495 40.01 43 39 C43.66 39 44.32 39 45 39 C45.99 36.03 45.99 36.03 47 33 C46.25556641 32.81630859 46.25556641 32.81630859 45.49609375 32.62890625 C43.42285281 32.10654038 41.35347009 31.56888965 39.28515625 31.02734375 C37.87764559 30.66390203 36.47009229 30.30062545 35.0625 29.9375 C34.35931641 29.75123047 33.65613281 29.56496094 32.93164062 29.37304688 C29.21064717 28.42100263 25.84535386 27.76672022 22 28 C22 26.68 22 25.36 22 24 C22.99 24 23.98 24 25 24 C19.40474575 17.50228539 12.45906807 14.71992069 4 14 C3.7525 13.113125 3.505 12.22625 3.25 11.3125 C1.92564102 7.80294869 0.68884535 5.6120212 -2 3 C-4.66928121 2.58129447 -4.66928121 2.58129447 -7 3 C-7.33 3.66 -7.66 4.32 -8 5 C-7.01712992 7.00847365 -6.01622658 9.00819591 -5 11 C-5 11.99 -5 12.98 -5 14 C-28.1 14 -51.2 14 -75 14 C-74.67 13.34 -74.34 12.68 -74 12 C-56.18 12 -38.36 12 -20 12 C-20 11.34 -20 10.68 -20 10 C-14.555 10.495 -14.555 10.495 -9 11 C-9.99 9.02 -9.99 9.02 -11 7 C-11.4375 4.4375 -11.4375 4.4375 -11 2 C-7.3201371 -1.24693786 -4.57207748 -1.67953867 0 0 Z " fill="#0B0B0B" transform="translate(375,167)"/>
<path d="M0 0 C0.77085937 0.05542969 1.54171875 0.11085937 2.3359375 0.16796875 C5.49723094 1.05809404 6.70489529 2.14689187 8.625 4.8125 C8.98828125 8.203125 8.98828125 8.203125 8.9375 12.0625 C9.06060606 18.35686717 10.25351441 21.97785537 14.8359375 26.39453125 C18.80552753 29.5407347 21.19909418 30.42047806 26.16015625 30.33203125 C30.06967545 29.5079963 32.46297741 27.18065917 35.44921875 24.6328125 C41.96747045 19.17948163 48.26544194 18.11983669 56.625 17.8125 C56.625 18.1425 56.625 18.4725 56.625 18.8125 C75.765 19.1425 94.905 19.4725 114.625 19.8125 C114.625 20.1425 114.625 20.4725 114.625 20.8125 C113.89330093 20.82280746 113.16160187 20.83311493 112.4077301 20.84373474 C105.4791601 20.94211023 98.55066316 21.0446778 91.62222385 21.15183926 C88.06108485 21.20677423 84.49993733 21.26014358 80.9387207 21.30981445 C76.83536777 21.36711795 72.73215013 21.43144774 68.62890625 21.49609375 C67.36293106 21.51280624 66.09695587 21.52951874 64.7926178 21.54673767 C51.68958283 21.34772121 51.68958283 21.34772121 39.875 26.125 C38.99328125 26.71925781 38.1115625 27.31351563 37.203125 27.92578125 C34.5790478 29.78824401 34.5790478 29.78824401 32.12890625 32 C28.49428581 34.6309889 25.78922565 34.5517451 21.4140625 34.3984375 C16.58967968 33.3849117 13.77764868 30.44260995 10.625 26.8125 C9.90183594 26.06613281 9.17867187 25.31976563 8.43359375 24.55078125 C5.47247272 20.06752889 6.13486601 15.44295009 6.09375 10.2109375 C5.95915145 6.78891252 5.95915145 6.78891252 3.796875 4.89453125 C1.10040554 3.55114629 -1.39558888 3.15106945 -4.375 2.8125 C-6.45886889 8.09163453 -6.95410004 13.20788469 -7.375 18.8125 C-9.49972576 18.86636629 -11.62483652 18.90523071 -13.75 18.9375 C-14.93335938 18.96070313 -16.11671875 18.98390625 -17.3359375 19.0078125 C-20.375 18.8125 -20.375 18.8125 -22.375 16.8125 C-18.48335652 15.51528551 -15.48070774 15.68216007 -11.375 15.8125 C-10.715 16.1425 -10.055 16.4725 -9.375 16.8125 C-9.40980469 16.24402344 -9.44460937 15.67554688 -9.48046875 15.08984375 C-9.67677282 9.49050374 -9.05363939 5.75768042 -6.375 0.8125 C-3.9523097 -0.39884515 -2.67949901 -0.23590274 0 0 Z " fill="#0B0B0B" transform="translate(244.375,161.1875)"/>
<path d="M0 0 C-0.33 0.99 -0.66 1.98 -1 3 C-2.96134888 3.55571552 -4.92846548 4.10069675 -6.921875 4.52734375 C-9.40467642 5.09204107 -11.67057249 5.98087547 -14 7 C-15.27870002 12.69602737 -14.76677133 15.86171038 -12 21 C-10.90556565 22.80358459 -10.90556565 22.80358459 -9 24 C-5.56919882 24.36398618 -5.56919882 24.36398618 -1.8125 24.1875 C-0.54019531 24.16042969 0.73210937 24.13335937 2.04296875 24.10546875 C3.01878906 24.07066406 3.99460938 24.03585938 5 24 C4.67 25.32 4.34 26.64 4 28 C-7.5073517 28.41676525 -7.5073517 28.41676525 -13 26 C-16.88254463 21.91311091 -17.76092249 17.86400114 -18.09765625 12.40234375 C-17.95585904 8.91413246 -17.05244181 6.80500381 -15 4 C-10.51455984 0.38672876 -5.62235328 0 0 0 Z " fill="#0D0D0D" transform="translate(206,201)"/>
<path d="M0 0 C2.31 0.33 4.62 0.66 7 1 C6.67 1.99 6.34 2.98 6 4 C-14.13 4 -34.26 4 -55 4 C-54.67 3.34 -54.34 2.68 -54 2 C-36.18 2 -18.36 2 0 2 C0 1.34 0 0.68 0 0 Z " fill="#010101" transform="translate(355,177)"/>
<path d="M0 0 C0 2.64 0 5.28 0 8 C-1.98 8.99 -1.98 8.99 -4 10 C-3.67 7.69 -3.34 5.38 -3 3 C-13.19521708 0.02122353 -22.46546602 -0.34063763 -33 0 C-32.67 -0.99 -32.34 -1.98 -32 -3 C-22.57643872 -6.57516689 -8.99895321 -3.49959292 0 0 Z " fill="#151515" transform="translate(366,266)"/>
<path d="M0 0 C0 0.33 0 0.66 0 1 C19.14 1.33 38.28 1.66 58 2 C58 2.33 58 2.66 58 3 C23.35 3.495 23.35 3.495 -12 4 C-10 1 -10 1 -7.6875 0.3125 C-5.09355691 0.01087871 -2.60858859 -0.0745311 0 0 Z " fill="#474747" transform="translate(301,179)"/>
<path d="M0 0 C1.31157516 2.62315032 0.89649988 4.23033436 0.5625 7.125 C0.46066406 8.03507813 0.35882813 8.94515625 0.25390625 9.8828125 C0.17011719 10.58148438 0.08632812 11.28015625 0 12 C-2.12472576 12.05386629 -4.24983652 12.09273071 -6.375 12.125 C-8.15003906 12.15980469 -8.15003906 12.15980469 -9.9609375 12.1953125 C-13 12 -13 12 -15 10 C-11.10835652 8.70278551 -8.10570774 8.86966007 -4 9 C-3.34 9.33 -2.68 9.66 -2 10 C-2.04125 8.72125 -2.0825 7.4425 -2.125 6.125 C-2.1953125 3.9453125 -2.1953125 3.9453125 -2 2 C-1.34 1.34 -0.68 0.68 0 0 Z " fill="#020202" transform="translate(237,168)"/>
<path d="M0 0 C7.92 0.33 15.84 0.66 24 1 C24 1.99 24 2.98 24 4 C12.615 3.505 12.615 3.505 1 3 C0.67 2.01 0.34 1.02 0 0 Z " fill="#010101" transform="translate(194,234)"/>
<path d="M0 0 C0.66 0 1.32 0 2 0 C2.05395478 1.62463842 2.09277195 3.24978541 2.125 4.875 C2.14820313 5.77992188 2.17140625 6.68484375 2.1953125 7.6171875 C2 10 2 10 0 12 C-2.5625 12.1875 -2.5625 12.1875 -5 12 C-6 11 -6 11 -6.0625 7.4375 C-6.041875 6.303125 -6.02125 5.16875 -6 4 C-5.34 4 -4.68 4 -4 4 C-4 5.65 -4 7.3 -4 9 C-3.01 8.67 -2.02 8.34 -1 8 C-0.67 5.36 -0.34 2.72 0 0 Z " fill="#070707" transform="translate(242,215)"/>
<path d="M0 0 C0.99 0 1.98 0 3 0 C2.67 2.64 2.34 5.28 2 8 C3.32 8 4.64 8 6 8 C6.33 6.35 6.66 4.7 7 3 C7.66 3 8.32 3 9 3 C8.125 8.75 8.125 8.75 7 11 C4.625 11.125 4.625 11.125 2 11 C0 9 0 9 -0.1953125 6.8359375 C-0.17210937 6.02382812 -0.14890625 5.21171875 -0.125 4.375 C-0.10695313 3.55773437 -0.08890625 2.74046875 -0.0703125 1.8984375 C-0.04710937 1.27195313 -0.02390625 0.64546875 0 0 Z " fill="#050505" transform="translate(310,229)"/>
<path d="M0 0 C0.66 0 1.32 0 2 0 C1.67 1.98 1.34 3.96 1 6 C1.66 6 2.32 6 3 6 C3.33 4.02 3.66 2.04 4 0 C4.66 0 5.32 0 6 0 C5.25 6.75 5.25 6.75 3 9 C0.875 8.625 0.875 8.625 -1 8 C-1.04241723 5.66705225 -1.04092937 3.33297433 -1 1 C-0.67 0.67 -0.34 0.34 0 0 Z " fill="#070707" transform="translate(171,208)"/>
<path d="M0 0 C0.66 0 1.32 0 2 0 C2 1.98 2 3.96 2 6 C5.24849977 4.27773504 5.24849977 4.27773504 6 1 C6.66 1 7.32 1 8 1 C7.6875 3.875 7.6875 3.875 7 7 C4 9 4 9 0 9 C0 6.03 0 3.06 0 0 Z " fill="#070707" transform="translate(282,208)"/>
<path d="M0 0 C-0.66 1.32 -1.32 2.64 -2 4 C-5.3 4 -8.6 4 -12 4 C-11.67 3.01 -11.34 2.02 -11 1 C-7.50970582 -0.47666292 -3.72563614 -0.07164685 0 0 Z " fill="#2A2A2A" transform="translate(345,262)"/>
<path d="M0 0 C0.66 0 1.32 0 2 0 C2.33 1.98 2.66 3.96 3 6 C3.66 5.67 4.32 5.34 5 5 C5.65213292 2.97536745 5.65213292 2.97536745 6 1 C6.66 1 7.32 1 8 1 C7.67 3.31 7.34 5.62 7 8 C5.68 8.33 4.36 8.66 3 9 C0.90250005 6.64031256 0.03094296 5.45383006 -0.1875 2.25 C-0.125625 1.5075 -0.06375 0.765 0 0 Z " fill="#080808" transform="translate(353,222)"/>
<path d="M0 0 C0.66 0 1.32 0 2 0 C2 1.98 2 3.96 2 6 C2.66 6 3.32 6 4 6 C4 4.35 4 2.7 4 1 C4.66 1 5.32 1 6 1 C6 3.31 6 5.62 6 8 C4.34385343 8.38218767 2.67542976 8.71395102 1 9 C0 8 0 8 -0.09765625 6.15234375 C-0.06510417 4.1015625 -0.03255208 2.05078125 0 0 Z " fill="#090909" transform="translate(362,190)"/>
<path d="M0 0 C1.32 0.33 2.64 0.66 4 1 C3.67 2.32 3.34 3.64 3 5 C2.01 5 1.02 5 0 5 C0 3.35 0 1.7 0 0 Z " fill="#050505" transform="translate(224,199)"/>
<path d="M0 0 C0.99 0.33 1.98 0.66 3 1 C3 2.32 3 3.64 3 5 C1.68 4.67 0.36 4.34 -1 4 C-0.67 2.68 -0.34 1.36 0 0 Z " fill="#060606" transform="translate(182,199)"/>
</svg>
