<?xml version="1.0" encoding="UTF-8"?>
<svg version="1.1" xmlns="http://www.w3.org/2000/svg" width="800" height="300">
<path d="M0 0 C264 0 528 0 800 0 C800 99 800 198 800 300 C536 300 272 300 0 300 C0 201 0 102 0 0 Z " fill="#FEFEFE" transform="translate(0,0)"/>
<path d="M0 0 C3.20957234 1.43213722 5.09317544 3.05589089 7 6 C7.28076172 8.54150391 7.28076172 8.54150391 7.1796875 11.2265625 C7.14077393 12.56968506 7.14077393 12.56968506 7.10107422 13.93994141 C7.06771973 14.61976074 7.03436523 15.29958008 7 16 C7.9571138 15.99656334 7.9571138 15.99656334 8.93356323 15.99305725 C29.25037092 15.93140739 49.56100315 16.11577816 69.87597656 16.37231445 C74.27441566 16.42767039 78.67289829 16.47779734 83.07141304 16.52671719 C86.53434703 16.5660919 89.99723029 16.60905014 93.46010971 16.65294075 C95.08079401 16.6729306 96.70149395 16.6917 98.3222084 16.70907402 C106.85034461 16.80189948 115.36079778 17.00974761 123.87841797 17.45727539 C125.01152751 17.51432349 125.01152751 17.51432349 126.16752815 17.57252407 C131.60373993 17.8830633 131.60373993 17.8830633 134.31228638 18.68235779 C134.86923187 18.78717972 135.42617737 18.89200165 136 19 C139.15848783 16.67348492 139.15848783 16.67348492 142 14 C144.76250036 12.61874982 146.94731099 12.80920694 150 13 C152.39286884 15.39286884 152.32050616 16.09447094 152.375 19.375 C152.31898675 22.85342253 152.21688729 23.72211316 150 26.5625 C149.01 27.2740625 149.01 27.2740625 148 28 C148.66 28 149.32 28 150 28 C157.80803862 36.39364151 158.19119855 44.91592726 158.25 56 C158.2809375 57.45792969 158.2809375 57.45792969 158.3125 58.9453125 C158.3477884 65.42073405 157.61421501 69.69498206 153.4921875 74.90625 C142.23529412 86 142.23529412 86 137 86 C137 86.66 137 87.32 137 88 C137.721875 87.9175 138.44375 87.835 139.1875 87.75 C143.04601863 88.09297943 144.4555019 89.09200217 147 92 C147.78770351 96.96253214 147.82957539 98.81848354 144.9375 102.9375 C141.44107491 105.39243677 139.26096263 106 135 106 C133.65210653 105.01971384 132.31787285 104.02028865 131 103 C127.98266875 103.2413865 125.70716958 103.64641521 123 105 C115.93207115 104.95167228 109.55364684 103.5729132 103 101 C102.43732422 101.85271484 102.43732422 101.85271484 101.86328125 102.72265625 C101.35152344 103.49480469 100.83976563 104.26695312 100.3125 105.0625 C99.76851562 105.88878906 99.22453125 106.71507812 98.6640625 107.56640625 C97.25013052 109.63419879 95.75580428 111.55108387 94.1875 113.5 C91.68714176 116.90304348 91.33783224 120.02424933 91.140625 124.1796875 C91 126 91 126 90 127 C87.54507499 127.18063984 85.14495751 127.27801743 82.6875 127.3125 C81.67139648 127.35600586 81.67139648 127.35600586 80.63476562 127.40039062 C77.24380163 127.44348205 75.34887177 127.25531327 72.58203125 125.23046875 C70.03428507 121.63846117 70 119.41277603 70 115 C71.3125 112.625 71.3125 112.625 74 111 C75.64262333 110.76770983 77.28910448 110.56198218 78.9375 110.375 C82.3251178 109.83537947 83.5816623 109.53380648 85.7265625 106.796875 C87.6725719 102.9048562 88.94350821 99.22596715 90 95 C57.66 95 25.32 95 -8 95 C-5.7747348 99.45053041 -4.00098756 102.27463613 -1 106 C-1 106.66 -1 107.32 -1 108 C3.29 108.99 7.58 109.98 12 111 C12 111.66 12 112.32 12 113 C12.66 113 13.32 113 14 113 C14.5862069 122.96551724 14.5862069 122.96551724 11 127 C7.24656256 130.05178135 4.14647211 131.84454615 -0.6875 132.5 C-4.2949543 131.9554786 -6.29071982 131.46298198 -9 129 C-9.608676 125.42402849 -9.44405832 123.70309234 -7.5 120.625 C-7.005 120.08875 -6.51 119.5525 -6 119 C-7.36125 118.13375 -7.36125 118.13375 -8.75 117.25 C-12 115 -12 115 -13.8125 113.0625 C-16.55378882 110.47785625 -19.54270679 108.96201421 -22.87890625 107.24609375 C-25 106 -25 106 -26.23046875 104.39941406 C-28.00382589 102.7081297 -28.00382589 102.7081297 -30.90405273 102.93481445 C-32.06880127 103.0762085 -33.2335498 103.21760254 -34.43359375 103.36328125 C-35.72330078 103.50830078 -37.01300781 103.65332031 -38.34179688 103.80273438 C-39.70715859 103.97162996 -41.07239307 104.14155725 -42.4375 104.3125 C-51.66655027 105.42187433 -60.69491466 106.26567216 -70 106 C-70.13148438 106.78761719 -70.26296875 107.57523437 -70.3984375 108.38671875 C-71 111 -71 111 -72.625 112.8125 C-76.03215469 114.51607735 -78.23207391 114.51971394 -82 114 C-84.97046873 112.20976215 -87.42502414 110.14995172 -89 107 C-89.11697217 101.34355994 -88.96841169 96.50958293 -85.875 91.6875 C-83 90 -83 90 -79.25 90.125 C-76 91 -76 91 -75 92 C-73.00041636 92.04080783 -70.99954746 92.04254356 -69 92 C-69.64066406 91.58492188 -70.28132813 91.16984375 -70.94140625 90.7421875 C-78.45267101 85.39139084 -83.79881737 79.12374249 -86 70 C-87.81666829 55.97363085 -87.11856304 40.53667688 -78.53515625 28.83203125 C-76.55094892 26.46410952 -74.58287094 24.70091501 -72 23 C-71.4534375 22.63003906 -70.906875 22.26007813 -70.34375 21.87890625 C-66.41800886 19.39088171 -63.61950014 18.54931706 -59 19 C-59.0825 17.845 -59.165 16.69 -59.25 15.5 C-59.27604655 10.6292957 -57.53385113 7.0806197 -55 3 C-54 2 -54 2 -51.3125 1.5625 C-47.23535029 2.10099147 -45.88871224 3.36710743 -43.19140625 6.33203125 C-41.6503106 8.48956516 -41.15489396 10.36680276 -41 13 C-40.16726562 12.67515625 -39.33453125 12.3503125 -38.4765625 12.015625 C-34.62009989 10.88901795 -31.38660276 10.73392143 -27.375 10.75 C-25.43753906 10.74226562 -25.43753906 10.74226562 -23.4609375 10.734375 C-20.31589796 10.97575501 -18.61376712 11.32825047 -16 13 C-16.0825 11.948125 -16.165 10.89625 -16.25 9.8125 C-15.96269651 5.43112175 -15.05154419 4.05154419 -12 1 C-8.22414664 -0.88792668 -4.10285645 -0.61756856 0 0 Z " fill="#FCFCFC" transform="translate(286,154)"/>
<path d="M0 0 C3.20957234 1.43213722 5.09317544 3.05589089 7 6 C7.28076172 8.54150391 7.28076172 8.54150391 7.1796875 11.2265625 C7.14077393 12.56968506 7.14077393 12.56968506 7.10107422 13.93994141 C7.06771973 14.61976074 7.03436523 15.29958008 7 16 C7.9571138 15.99656334 7.9571138 15.99656334 8.93356323 15.99305725 C29.25037092 15.93140739 49.56100315 16.11577816 69.87597656 16.37231445 C74.27441566 16.42767039 78.67289829 16.47779734 83.07141304 16.52671719 C86.53434703 16.5660919 89.99723029 16.60905014 93.46010971 16.65294075 C95.08079401 16.6729306 96.70149395 16.6917 98.3222084 16.70907402 C106.85034461 16.80189948 115.36079778 17.00974761 123.87841797 17.45727539 C125.01152751 17.51432349 125.01152751 17.51432349 126.16752815 17.57252407 C131.60373993 17.8830633 131.60373993 17.8830633 134.31228638 18.68235779 C134.86923187 18.78717972 135.42617737 18.89200165 136 19 C139.15848783 16.67348492 139.15848783 16.67348492 142 14 C144.76250036 12.61874982 146.94731099 12.80920694 150 13 C152.39286884 15.39286884 152.32050616 16.09447094 152.375 19.375 C152.31898675 22.85342253 152.21688729 23.72211316 150 26.5625 C149.01 27.2740625 149.01 27.2740625 148 28 C148.66 28 149.32 28 150 28 C157.80803862 36.39364151 158.19119855 44.91592726 158.25 56 C158.2809375 57.45792969 158.2809375 57.45792969 158.3125 58.9453125 C158.3477884 65.42073405 157.61421501 69.69498206 153.4921875 74.90625 C142.23529412 86 142.23529412 86 137 86 C137 86.66 137 87.32 137 88 C137.721875 87.9175 138.44375 87.835 139.1875 87.75 C143.04601863 88.09297943 144.4555019 89.09200217 147 92 C147.78770351 96.96253214 147.82957539 98.81848354 144.9375 102.9375 C141.44107491 105.39243677 139.26096263 106 135 106 C133.65210653 105.01971384 132.31787285 104.02028865 131 103 C127.98266875 103.2413865 125.70716958 103.64641521 123 105 C115.93207115 104.95167228 109.55364684 103.5729132 103 101 C102.43732422 101.85271484 102.43732422 101.85271484 101.86328125 102.72265625 C101.35152344 103.49480469 100.83976563 104.26695312 100.3125 105.0625 C99.76851562 105.88878906 99.22453125 106.71507812 98.6640625 107.56640625 C97.25013052 109.63419879 95.75580428 111.55108387 94.1875 113.5 C91.68714176 116.90304348 91.33783224 120.02424933 91.140625 124.1796875 C91 126 91 126 90 127 C87.54507499 127.18063984 85.14495751 127.27801743 82.6875 127.3125 C81.67139648 127.35600586 81.67139648 127.35600586 80.63476562 127.40039062 C77.24380163 127.44348205 75.34887177 127.25531327 72.58203125 125.23046875 C70.03428507 121.63846117 70 119.41277603 70 115 C71.3125 112.625 71.3125 112.625 74 111 C75.64262333 110.76770983 77.28910448 110.56198218 78.9375 110.375 C82.3251178 109.83537947 83.5816623 109.53380648 85.7265625 106.796875 C87.6725719 102.9048562 88.94350821 99.22596715 90 95 C57.66 95 25.32 95 -8 95 C-5.7747348 99.45053041 -4.00098756 102.27463613 -1 106 C-1 106.66 -1 107.32 -1 108 C3.29 108.99 7.58 109.98 12 111 C12 111.66 12 112.32 12 113 C12.66 113 13.32 113 14 113 C14.5862069 122.96551724 14.5862069 122.96551724 11 127 C7.24656256 130.05178135 4.14647211 131.84454615 -0.6875 132.5 C-4.2949543 131.9554786 -6.29071982 131.46298198 -9 129 C-9.608676 125.42402849 -9.44405832 123.70309234 -7.5 120.625 C-7.005 120.08875 -6.51 119.5525 -6 119 C-7.36125 118.13375 -7.36125 118.13375 -8.75 117.25 C-12 115 -12 115 -13.8125 113.0625 C-16.55378882 110.47785625 -19.54270679 108.96201421 -22.87890625 107.24609375 C-25 106 -25 106 -26.23046875 104.39941406 C-28.00382589 102.7081297 -28.00382589 102.7081297 -30.90405273 102.93481445 C-32.06880127 103.0762085 -33.2335498 103.21760254 -34.43359375 103.36328125 C-35.72330078 103.50830078 -37.01300781 103.65332031 -38.34179688 103.80273438 C-39.70715859 103.97162996 -41.07239307 104.14155725 -42.4375 104.3125 C-51.66655027 105.42187433 -60.69491466 106.26567216 -70 106 C-70.13148438 106.78761719 -70.26296875 107.57523437 -70.3984375 108.38671875 C-71 111 -71 111 -72.625 112.8125 C-76.03215469 114.51607735 -78.23207391 114.51971394 -82 114 C-84.97046873 112.20976215 -87.42502414 110.14995172 -89 107 C-89.11697217 101.34355994 -88.96841169 96.50958293 -85.875 91.6875 C-83 90 -83 90 -79.25 90.125 C-76 91 -76 91 -75 92 C-73.00041636 92.04080783 -70.99954746 92.04254356 -69 92 C-69.64066406 91.58492188 -70.28132813 91.16984375 -70.94140625 90.7421875 C-78.45267101 85.39139084 -83.79881737 79.12374249 -86 70 C-87.81666829 55.97363085 -87.11856304 40.53667688 -78.53515625 28.83203125 C-76.55094892 26.46410952 -74.58287094 24.70091501 -72 23 C-71.4534375 22.63003906 -70.906875 22.26007813 -70.34375 21.87890625 C-66.41800886 19.39088171 -63.61950014 18.54931706 -59 19 C-59.0825 17.845 -59.165 16.69 -59.25 15.5 C-59.27604655 10.6292957 -57.53385113 7.0806197 -55 3 C-54 2 -54 2 -51.3125 1.5625 C-47.23535029 2.10099147 -45.88871224 3.36710743 -43.19140625 6.33203125 C-41.6503106 8.48956516 -41.15489396 10.36680276 -41 13 C-40.16726562 12.67515625 -39.33453125 12.3503125 -38.4765625 12.015625 C-34.62009989 10.88901795 -31.38660276 10.73392143 -27.375 10.75 C-25.43753906 10.74226562 -25.43753906 10.74226562 -23.4609375 10.734375 C-20.31589796 10.97575501 -18.61376712 11.32825047 -16 13 C-16.0825 11.948125 -16.165 10.89625 -16.25 9.8125 C-15.96269651 5.43112175 -15.05154419 4.05154419 -12 1 C-8.22414664 -0.88792668 -4.10285645 -0.61756856 0 0 Z M-13 7 C-13.40040892 10.80388473 -13.20776206 13.37671381 -12 17 C-12.99 16.67 -13.98 16.34 -15 16 C-24.60624214 13.60272032 -35.56422127 14.30406322 -45 17 C-44.896875 15.783125 -44.79375 14.56625 -44.6875 13.3125 C-44.65408479 9.54994773 -44.90669702 9.11196358 -47.5 6 C-48.325 5.34 -49.15 4.68 -50 4 C-52.93576279 5.012332 -53.97512741 5.96357942 -55.75 8.5625 C-57.30903894 12.84985708 -57.27038392 16.49360134 -57 21 C-57.639375 21.0825 -58.27875 21.165 -58.9375 21.25 C-66.55587432 23.11572432 -73.94874841 26.460333 -78.44140625 33.14453125 C-81.79152663 38.89986626 -83.12448363 43.65685816 -83.1328125 50.34375 C-83.13410156 51.34277344 -83.13539063 52.34179688 -83.13671875 53.37109375 C-83.13285156 54.40363281 -83.12898437 55.43617188 -83.125 56.5 C-83.12886719 57.53253906 -83.13273438 58.56507813 -83.13671875 59.62890625 C-83.13542969 60.62792969 -83.13414062 61.62695312 -83.1328125 62.65625 C-83.13168457 63.56181641 -83.13055664 64.46738281 -83.12939453 65.40039062 C-82.99882431 68.02362019 -82.58070158 70.44191438 -82 73 C-81.34 73 -80.68 73 -80 73 C-79.9175 73.53625 -79.835 74.0725 -79.75 74.625 C-77.51576787 81.70006842 -72.21723693 86.27162532 -66 90 C-58.18355523 93.03824137 -49.239271 92.1977425 -41 92 C-41.7113208 92.08564209 -42.4226416 92.17128418 -43.15551758 92.25952148 C-46.37491063 92.64896207 -49.59370181 93.0431743 -52.8125 93.4375 C-53.93205078 93.57220703 -55.05160156 93.70691406 -56.20507812 93.84570312 C-57.27822266 93.97783203 -58.35136719 94.10996094 -59.45703125 94.24609375 C-60.44678955 94.36654053 -61.43654785 94.4869873 -62.45629883 94.61108398 C-65.11412371 94.94403366 -65.11412371 94.94403366 -68 96 C-72.30379794 96.39849981 -74.31312143 96.46766201 -77.9375 94 C-78.618125 93.34 -79.29875 92.68 -80 92 C-83.16115776 93.36983503 -83.9927092 93.9890638 -86 97 C-86.8476609 101.76474651 -86.65866879 105.05074203 -83.875 109.0625 C-80.54330259 111.30777434 -78.93672752 111.61237984 -75 111 C-74.01 110.01 -74.01 110.01 -73 109 C-73.32041397 106.39719432 -73.32041397 106.39719432 -74 104 C-57.67638054 102.22209187 -41.35126986 100.50417526 -25 99 C-24.86948242 99.63156006 -24.73896484 100.26312012 -24.60449219 100.91381836 C-23.80307486 103.67961442 -22.71553965 104.15825467 -20.25 105.5625 C-19.528125 105.9853125 -18.80625 106.408125 -18.0625 106.84375 C-17.381875 107.2253125 -16.70125 107.606875 -16 108 C-13.26612676 109.55333707 -11.19005729 110.80400342 -9 113.0625 C-6.79185467 115.20164079 -4.89268359 116.03577214 -2 117 C-2 117.99 -2 118.98 -2 120 C-4.5 122.1875 -4.5 122.1875 -7 124 C-6.67 125.32 -6.34 126.64 -6 128 C-0.19388201 129.24079022 -0.19388201 129.24079022 5.3125 127.4375 C8.29840763 124.72935122 9.70331936 122.81376658 11 119 C10.78892707 115.72114468 10.78892707 115.72114468 10 113 C9.09507812 112.92652344 9.09507812 112.92652344 8.171875 112.8515625 C6.97304688 112.73941406 6.97304688 112.73941406 5.75 112.625 C4.96109375 112.55539062 4.1721875 112.48578125 3.359375 112.4140625 C0.82346675 111.969019 -0.85285884 111.42225162 -3 110 C-4.03125 108.23046875 -4.03125 108.23046875 -5 106 C-6.14489576 104.09094033 -7.31319795 102.19579393 -8.5 100.3125 C-9.1084375 99.33925781 -9.716875 98.36601562 -10.34375 97.36328125 C-11.78368551 94.9099091 -11.78368551 94.9099091 -14 94 C-14 93.34 -14 92.68 -14 92 C-3.08839739 91.86784824 7.82322381 91.73735798 18.73486996 91.60884857 C23.80445752 91.54909345 28.87403766 91.48881767 33.94360352 91.42724609 C72.66268996 90.95783328 72.66268996 90.95783328 88.12890625 90.90625 C89.1232518 90.8997644 90.11759735 90.89327881 91.14207458 90.88659668 C92.02661819 90.88599243 92.9111618 90.88538818 93.82250977 90.88476562 C94.93977196 90.88168396 94.93977196 90.88168396 96.0796051 90.87854004 C98 91 98 91 101 92 C101.33 92.66 101.66 93.32 102 94 C99.03 94 96.06 94 93 94 C92.67386719 94.85722656 92.34773437 95.71445313 92.01171875 96.59765625 C89.77619878 102.44693711 87.53104094 108.27185473 85 114 C81.37 114 77.74 114 74 114 C71.59168065 117.69801273 71.59168065 117.69801273 72.75 120.6875 C73.78534865 123.13191422 73.78534865 123.13191422 76 124 C78.04055005 124.07065617 80.08334257 124.08421976 82.125 124.0625 C83.22070312 124.05347656 84.31640625 124.04445313 85.4453125 124.03515625 C86.28835938 124.02355469 87.13140625 124.01195312 88 124 C88 122.865625 88 121.73125 88 120.5625 C88.60021565 115.43338445 91.46360821 112.73691201 94.9921875 109.17578125 C97.06663274 106.92779293 98.46915101 104.63743412 100 102 C100.66 101.34 101.32 100.68 102 100 C102.16687448 97.41645782 102.16687448 97.41645782 102 95 C102.99 95 103.98 95 105 95 C105.13728516 95.93585938 105.13728516 95.93585938 105.27734375 96.890625 C105.88084822 99.46196337 105.88084822 99.46196337 109.5625 100.75 C115.78585806 102.79099377 120.94468976 102.61851253 127 100 C129.625 99.6875 129.625 99.6875 132 100 C132.45375 100.515625 132.9075 101.03125 133.375 101.5625 C135.07544706 103.39301907 135.07544706 103.39301907 138.5 102.9375 C141.97336139 102.283069 141.97336139 102.283069 144 100.25 C145.18351258 98.01985732 145.18351258 98.01985732 144.9375 95.4375 C143.76080551 92.37809433 142.9343683 91.46718415 140 90 C136.33285151 89.74936268 136.33285151 89.74936268 133 90 C132.67 90.99 132.34 91.98 132 93 C131.05640625 92.98259766 131.05640625 92.98259766 130.09375 92.96484375 C124.61930912 92.90713127 119.41542194 93.19771527 114 94 C114 94.66 114 95.32 114 96 C111.36 95.67 108.72 95.34 106 95 C106.33 94.34 106.66 93.68 107 93 C109.5315866 92.36198164 111.99839502 91.83312632 114.5625 91.375 C115.27341797 91.2409375 115.98433594 91.106875 116.71679688 90.96875 C118.47642553 90.63808153 120.23804548 90.31804233 122 90 C122 89.34 122 88.68 122 88 C122.55429687 88.20625 123.10859375 88.4125 123.6796875 88.625 C130.02585891 89.65064386 137.35273955 83.92836941 142.375 80.5 C148.32603418 76.14282442 153.79361082 71.71588497 155.6875 64.3125 C156.62682502 54.35565474 157.10551462 40.29233151 150.4375 32.125 C148.20114199 29.99612842 148.20114199 29.99612842 146 29 C146 27.68 146 26.36 146 25 C146.99 24.2884375 146.99 24.2884375 148 23.5625 C148.66 23.046875 149.32 22.53125 150 22 C150.33425735 19.37374861 150.33425735 19.37374861 150 17 C147.301935 16.00071667 146.11989571 15.96375246 143.3125 16.8125 C140.86223915 17.78271865 140.86223915 17.78271865 140 20 C140.66 20 141.32 20 142 20 C142.33 21.32 142.66 22.64 143 24 C142.24628113 23.71791183 141.49256226 23.43582367 140.71600342 23.14518738 C131.75300325 20.05825919 123.44953856 19.41134179 114.078125 19.42578125 C112.56474233 19.41327624 111.05137394 19.39892605 109.5380249 19.38285828 C105.57587677 19.34513523 101.61397615 19.32971609 97.65167236 19.32006836 C91.37444685 19.30028702 85.0973578 19.24351528 78.82031441 19.19343376 C76.52246618 19.17583365 74.22461028 19.16093666 71.92674255 19.14613342 C62.02897753 19.07454904 52.15621689 18.79620047 42.26753235 18.34640503 C33.81649364 17.96616994 25.39684623 17.88164855 16.9375 17.9375 C15.55794444 17.94255332 14.17838696 17.94710909 12.79882812 17.95117188 C9.53249842 17.96263268 6.26627854 17.9788348 3 18 C3.16757812 16.89011719 3.33515625 15.78023437 3.5078125 14.63671875 C4.15097685 10.64109957 4.15097685 10.64109957 3 7 C0.37186063 4.29677093 -1.25954841 3.1234086 -5 2.5 C-8.83417929 3.13902988 -10.44296344 4.06692865 -13 7 Z " fill="#111111" transform="translate(286,154)"/>
<path d="M0 0 C3.57574179 -0.04370246 7.1513344 -0.07549059 10.72723389 -0.10253906 C11.71320053 -0.11740356 12.69916718 -0.13226807 13.7150116 -0.14758301 C14.59633255 -0.15140991 15.4776535 -0.15523682 16.38568115 -0.15917969 C17.49508812 -0.17011658 17.49508812 -0.17011658 18.62690735 -0.18127441 C20.98723869 0.09142226 22.60866063 0.88516428 24.66082764 2.05371094 C24.66082764 2.71371094 24.66082764 3.37371094 24.66082764 4.05371094 C21.69082764 4.05371094 18.72082764 4.05371094 15.66082764 4.05371094 C15.24832764 5.31183594 14.83582764 6.56996094 14.41082764 7.86621094 C13.82797016 9.59553806 13.24458906 11.32468875 12.66082764 13.05371094 C12.33598389 14.04757812 12.01114014 15.04144531 11.67645264 16.06542969 C11.34129639 17.0515625 11.00614014 18.03769531 10.66082764 19.05371094 C10.35145264 19.98183594 10.04207764 20.90996094 9.72332764 21.86621094 C9.37270264 22.58808594 9.02207764 23.30996094 8.66082764 24.05371094 C5.19930072 25.20755324 2.51776692 25.04596725 -1.08526611 24.89355469 C-3.61026424 25.07297396 -5.16730156 25.79214589 -7.33917236 27.05371094 C-7.04040642 24.1656401 -6.55849956 23.23316046 -4.27667236 21.36621094 C-1.42543094 20.092252 -0.3184972 20.00247493 2.66082764 19.99121094 C4.75133207 19.9178347 4.75133207 19.9178347 6.66082764 19.05371094 C9.81791592 14.80288937 11.38712926 10.14850443 12.66082764 5.05371094 C-19.67917236 5.05371094 -52.01917236 5.05371094 -85.33917236 5.05371094 C-83.11390716 9.50424134 -81.34015993 12.32834706 -78.33917236 16.05371094 C-78.33917236 16.71371094 -78.33917236 17.37371094 -78.33917236 18.05371094 C-74.04917236 19.04371094 -69.75917236 20.03371094 -65.33917236 21.05371094 C-65.33917236 21.71371094 -65.33917236 22.37371094 -65.33917236 23.05371094 C-64.67917236 23.05371094 -64.01917236 23.05371094 -63.33917236 23.05371094 C-62.75296547 33.01922818 -62.75296547 33.01922818 -66.33917236 37.05371094 C-70.09260981 40.10549228 -73.19270025 41.89825709 -78.02667236 42.55371094 C-81.63412666 42.00918953 -83.62989219 41.51669292 -86.33917236 39.05371094 C-86.94784837 35.47773942 -86.78323068 33.75680327 -84.83917236 30.67871094 C-84.34417236 30.14246094 -83.84917236 29.60621094 -83.33917236 29.05371094 C-84.70042236 28.18746094 -84.70042236 28.18746094 -86.08917236 27.30371094 C-89.33917236 25.05371094 -89.33917236 25.05371094 -91.15167236 23.11621094 C-93.89296119 20.53156719 -96.88187916 19.01572515 -100.21807861 17.29980469 C-102.33917236 16.05371094 -102.33917236 16.05371094 -103.55426025 14.453125 C-106.34572695 12.26454791 -108.57153826 13.01392427 -112.01885986 13.41699219 C-112.668638 13.48782516 -113.31841614 13.55865814 -113.98788452 13.63163757 C-116.06538595 13.86115383 -118.13944509 14.11294316 -120.21417236 14.36621094 C-122.28206365 14.6040353 -124.35041504 14.83727172 -126.41903687 15.06864929 C-128.30199756 15.28160301 -130.1836686 15.50586945 -132.06524658 15.73071289 C-134.85575291 16.00601788 -137.53912763 16.11823572 -140.33917236 16.05371094 C-140.00917236 14.73371094 -139.67917236 13.41371094 -139.33917236 12.05371094 C-135.42401887 11.54137995 -131.50686771 11.04619586 -127.58917236 10.55371094 C-126.49733643 10.410625 -125.40550049 10.26753906 -124.28057861 10.12011719 C-118.76518288 9.43477216 -113.25268646 8.8818128 -107.69854736 8.64746094 C-106.7391626 8.60298828 -105.77977783 8.55851563 -104.7913208 8.51269531 C-102.33917236 9.05371094 -102.33917236 9.05371094 -100.66412354 11.4753418 C-100.22688965 12.32620361 -99.78965576 13.17706543 -99.33917236 14.05371094 C-96.78985394 15.78176626 -96.78985394 15.78176626 -93.90167236 17.11621094 C-89.99489105 19.03505183 -87.35112012 20.92762621 -84.33917236 24.05371094 C-82.37037913 25.11383037 -80.37481369 26.12841942 -78.33917236 27.05371094 C-78.73411409 29.91703846 -79.0422963 30.82880483 -81.40167236 32.61621094 C-82.04104736 33.09058594 -82.68042236 33.56496094 -83.33917236 34.05371094 C-83.33917236 35.04371094 -83.33917236 36.03371094 -83.33917236 37.05371094 C-77.84375349 38.16093243 -77.84375349 38.16093243 -72.52667236 36.99121094 C-69.77449052 34.55356417 -68.62182714 32.4966264 -67.33917236 29.05371094 C-67.08720414 25.8027073 -67.08720414 25.8027073 -67.33917236 23.05371094 C-67.87542236 23.25996094 -68.41167236 23.46621094 -68.96417236 23.67871094 C-72.32519185 24.20939822 -74.24649116 23.44226168 -77.33917236 22.05371094 C-81.44198567 18.66888996 -84.06134478 14.5692382 -86.91339111 10.14746094 C-88.49203143 7.82923844 -90.23886251 5.91167734 -92.33917236 4.05371094 C-92.00917236 3.06371094 -91.67917236 2.07371094 -91.33917236 1.05371094 C-80.42756975 0.92155918 -69.51594856 0.79106892 -58.60430241 0.66255951 C-53.53471484 0.60280439 -48.4651347 0.54252861 -43.39556885 0.48095703 C-32.01467305 0.34303923 -20.63375312 0.21475051 -9.25256348 0.10351562 C-6.16831087 0.07314023 -3.0841537 0.0391277 0 0 Z " fill="#212121" transform="translate(363.33917236328125,243.9462890625)"/>
<path d="M0 0 C4.95 0.33 9.9 0.66 15 1 C15 1.33 15 1.66 15 2 C11.7 2 8.4 2 5 2 C7.30922787 6.86587301 9.5642345 10.82799903 13 15 C13 15.66 13 16.32 13 17 C17.29 17.99 21.58 18.98 26 20 C26 20.66 26 21.32 26 22 C26.66 22 27.32 22 28 22 C28.5862069 31.96551724 28.5862069 31.96551724 25 36 C21.24656256 39.05178135 18.14647211 40.84454615 13.3125 41.5 C9.7050457 40.9554786 7.70928018 40.46298198 5 38 C4.391324 34.42402849 4.55594168 32.70309234 6.5 29.625 C6.995 29.08875 7.49 28.5525 8 28 C6.63875 27.13375 6.63875 27.13375 5.25 26.25 C2 24 2 24 0.1875 22.0625 C-2.55378882 19.47785625 -5.54270679 17.96201421 -8.87890625 16.24609375 C-11 15 -11 15 -12.21508789 13.39941406 C-15.00655459 11.21083697 -17.2323659 11.96021333 -20.6796875 12.36328125 C-21.32946564 12.43411423 -21.97924377 12.5049472 -22.64871216 12.57792664 C-24.72621359 12.80744289 -26.80027273 13.05923223 -28.875 13.3125 C-30.94289128 13.55032436 -33.01124268 13.78356078 -35.0798645 14.01493835 C-36.9628252 14.22789207 -38.84449624 14.45215851 -40.72607422 14.67700195 C-43.51658055 14.95230694 -46.19995526 15.06452478 -49 15 C-48.67 13.68 -48.34 12.36 -48 11 C-44.08484651 10.48766901 -40.16769535 9.99248492 -36.25 9.5 C-35.15816406 9.35691406 -34.06632813 9.21382812 -32.94140625 9.06640625 C-27.42601051 8.38106122 -21.91351409 7.82810186 -16.359375 7.59375 C-15.39999023 7.54927734 -14.44060547 7.50480469 -13.45214844 7.45898438 C-11 8 -11 8 -9.32495117 10.42163086 C-8.88771729 11.27249268 -8.4504834 12.12335449 -8 13 C-5.45068158 14.72805533 -5.45068158 14.72805533 -2.5625 16.0625 C1.34428132 17.98134089 3.98805224 19.87391528 7 23 C8.96879323 24.06011943 10.96435867 25.07470849 13 26 C12.60505827 28.86332753 12.29687606 29.77509389 9.9375 31.5625 C9.298125 32.036875 8.65875 32.51125 8 33 C8 33.99 8 34.98 8 36 C13.49541888 37.10722149 13.49541888 37.10722149 18.8125 35.9375 C21.56468184 33.49985323 22.71734522 31.44291546 24 28 C24.25196823 24.74899636 24.25196823 24.74899636 24 22 C23.46375 22.20625 22.9275 22.4125 22.375 22.625 C19.01398052 23.15568729 17.09268121 22.38855075 14 21 C9.89718669 17.61517902 7.27782758 13.51552726 4.42578125 9.09375 C2.84714093 6.7755275 1.10030985 4.85796641 -1 3 C-0.67 2.01 -0.34 1.02 0 0 Z " fill="#1B1B1B" transform="translate(272,245)"/>
<path d="M0 0 C2.39286884 2.39286884 2.32050616 3.09447094 2.375 6.375 C2.31898675 9.85342253 2.21688729 10.72211316 0 13.5625 C-0.66 14.036875 -1.32 14.51125 -2 15 C-1.34 15 -0.68 15 0 15 C7.95266638 23.54911636 8.15700427 32.10718341 8.0625 43.375 C8.05798828 44.39722656 8.05347656 45.41945312 8.04882812 46.47265625 C8.037103 48.98183194 8.02069176 51.4908849 8 54 C6.02 54.99 6.02 54.99 4 56 C4.165 54.88625 4.33 53.7725 4.5 52.625 C5.69239728 42.57729938 5.05727965 32.69659591 2 23 C-0.00219446 20.71492317 -0.00219446 20.71492317 -2 19 C-2 18.34 -2 17.68 -2 17 C-3.485 16.505 -3.485 16.505 -5 16 C-4.6875 13.625 -4.6875 13.625 -4 11 C-3.01 10.34 -2.02 9.68 -1 9 C-0.74969023 6.41619823 -0.74969023 6.41619823 -1 4 C-3.31 4.33 -5.62 4.66 -8 5 C-8 7.15634036 -7.5534764 8.92446352 -7 11 C-14.47653412 10.2396745 -14.47653412 10.2396745 -17.19706726 8.99404907 C-20.61790425 7.78086269 -23.45577941 7.71983184 -27.08520508 7.68115234 C-27.77843872 7.67110672 -28.47167236 7.6610611 -29.18591309 7.65071106 C-31.46377783 7.61996637 -33.74152551 7.60286855 -36.01953125 7.5859375 C-37.6042328 7.5672188 -39.18892446 7.54764486 -40.77360535 7.5272522 C-44.93441934 7.475999 -49.09526562 7.43633695 -53.25622559 7.39910889 C-57.50618432 7.35902642 -61.75600952 7.30795346 -66.00585938 7.2578125 C-74.33714825 7.16113391 -82.66850339 7.07670347 -91 7 C-91 6.01 -91 5.02 -91 4 C-83.49675235 3.97432986 -75.99351631 3.95700106 -68.49023438 3.94506836 C-65.94563372 3.94008588 -63.40103585 3.93329748 -60.85644531 3.92456055 C-36.40857172 3.84281117 -36.40857172 3.84281117 -25.4609375 4.44140625 C-24.38847275 4.49988991 -24.38847275 4.49988991 -23.29434204 4.55955505 C-20.67165981 4.72739584 -18.25313364 4.92383132 -15.72900391 5.68334961 C-15.15843262 5.78784424 -14.58786133 5.89233887 -14 6 C-10.84151217 3.67348492 -10.84151217 3.67348492 -8 1 C-5.23749964 -0.38125018 -3.05268901 -0.19079306 0 0 Z " fill="#1C1C1C" transform="translate(436,167)"/>
<path d="M0 0 C0.79921875 0.00902344 1.5984375 0.01804688 2.421875 0.02734375 C3.02515625 0.03894531 3.6284375 0.05054688 4.25 0.0625 C4.58 1.0525 4.91 2.0425 5.25 3.0625 C4.33476562 3.19527344 3.41953125 3.32804688 2.4765625 3.46484375 C1.28804687 3.64144531 0.09953125 3.81804687 -1.125 4 C-2.30835938 4.17402344 -3.49171875 4.34804687 -4.7109375 4.52734375 C-7.65702381 4.89712786 -7.65702381 4.89712786 -9.75 6.0625 C-10.21651207 8.18826782 -10.21651207 8.18826782 -10.375 10.625 C-10.44976562 11.45128906 -10.52453125 12.27757812 -10.6015625 13.12890625 C-10.65054688 13.76699219 -10.69953125 14.40507812 -10.75 15.0625 C-10.09 15.0625 -9.43 15.0625 -8.75 15.0625 C-8.75 16.0525 -8.75 17.0425 -8.75 18.0625 C-8.09 18.0625 -7.43 18.0625 -6.75 18.0625 C-6.75 19.0525 -6.75 20.0425 -6.75 21.0625 C-2.59373632 22.07176479 1.29365094 22.16489579 5.5625 22.125 C6.81675781 22.11597656 8.07101563 22.10695312 9.36328125 22.09765625 C10.31589844 22.08605469 11.26851562 22.07445312 12.25 22.0625 C12.25 23.0525 12.25 24.0425 12.25 25.0625 C-3.15139096 26.83547566 -3.15139096 26.83547566 -8.75 23.0625 C-12.81771593 17.92433251 -14.16435802 13.65919718 -14.1015625 7.22265625 C-13.75 5.0625 -13.75 5.0625 -11.5 2.5625 C-7.56887795 0.41825161 -4.45089038 -0.06545427 0 0 Z " fill="#191919" transform="translate(235.75,192.9375)"/>
<path d="M0 0 C0.66 0.99 1.32 1.98 2 3 C1.401875 3.721875 0.80375 4.44375 0.1875 5.1875 C-1.7848444 7.72337137 -3.36031704 10.24533262 -5 13 C-5.41636719 13.51304687 -5.83273437 14.02609375 -6.26171875 14.5546875 C-10.0066658 19.21172767 -10.8519744 23.06551928 -11 29 C-11.33 29 -11.66 29 -12 29 C-13.37774541 18.49469125 -13.37774541 18.49469125 -11.57421875 16.1328125 C-10.64029297 15.13894531 -10.64029297 15.13894531 -9.6875 14.125 C-7.0459914 11.21774607 -4.87612883 8.47083834 -3 5 C-2 3.33333333 -1 1.66666667 0 0 Z " fill="#1A1A1A" transform="translate(388,251)"/>
<path d="M0 0 C12.87 0.495 12.87 0.495 26 1 C26 1.66 26 2.32 26 3 C17.75 3 9.5 3 1 3 C0.67 2.01 0.34 1.02 0 0 Z " fill="#020202" transform="translate(227,228)"/>
<path d="M0 0 C0.99 0 1.98 0 3 0 C3.25 6.625 3.25 6.625 1 10 C-1.5 10.375 -1.5 10.375 -4 10 C-6.29013653 6.5647952 -6.17842973 5.014669 -6 1 C-5.34 1 -4.68 1 -4 1 C-3.67 2.65 -3.34 4.3 -3 6 C-2.01 6.33 -1.02 6.66 0 7 C0 4.69 0 2.38 0 0 Z " fill="#0A0A0A" transform="translate(302,207)"/>
<path d="M0 0 C0.66 0 1.32 0 2 0 C2.25 7.625 2.25 7.625 0 11 C-4.875 10.125 -4.875 10.125 -6 9 C-6.04080783 7.00041636 -6.04254356 4.99954746 -6 3 C-5.01 3.33 -4.02 3.66 -3 4 C-3 5.32 -3 6.64 -3 8 C-2.34 7.67 -1.68 7.34 -1 7 C-0.59270772 4.67843403 -0.25561323 2.3431213 0 0 Z " fill="#0D0D0D" transform="translate(271,221)"/>
<path d="M0 0 C0.66 0 1.32 0 2 0 C2.66 1.98 3.32 3.96 4 6 C4.66 5.01 5.32 4.02 6 3 C6.66 3 7.32 3 8 3 C8.04254356 4.99954746 8.04080783 7.00041636 8 9 C7 10 7 10 4.4375 10.0625 C3.633125 10.041875 2.82875 10.02125 2 10 C-0.09350689 6.5980513 -0.17942163 3.94727588 0 0 Z " fill="#080808" transform="translate(370,192)"/>
<path d="M0 0 C0.66 0 1.32 0 2 0 C2 1.65 2 3.3 2 5 C2.66 4.67 3.32 4.34 4 4 C4.33 3.01 4.66 2.02 5 1 C5.66 1 6.32 1 7 1 C7.125 3.875 7.125 3.875 7 7 C6.34 7.66 5.68 8.32 5 9 C3.68 9 2.36 9 1 9 C-0.4783226 6.04335481 -0.06032783 3.25770263 0 0 Z " fill="#0F0F0F" transform="translate(431,209)"/>
<path d="M0 0 C0.66 0 1.32 0 2 0 C2.25 5.625 2.25 5.625 0 9 C-1.65 8.67 -3.3 8.34 -5 8 C-5 6.02 -5 4.04 -5 2 C-4.34 2 -3.68 2 -3 2 C-3 2.99 -3 3.98 -3 5 C-2.34 4.67 -1.68 4.34 -1 4 C-0.34786708 1.97536745 -0.34786708 1.97536745 0 0 Z " fill="#111111" transform="translate(389,199)"/>
<path d="M0 0 C0.66 0 1.32 0 2 0 C2.125 2.875 2.125 2.875 2 6 C0 8 0 8 -2.625 8.125 C-3.40875 8.08375 -4.1925 8.0425 -5 8 C-5.33 6.02 -5.66 4.04 -6 2 C-5.01 2 -4.02 2 -3 2 C-3 2.99 -3 3.98 -3 5 C-2.34 4.67 -1.68 4.34 -1 4 C-0.34786708 1.97536745 -0.34786708 1.97536745 0 0 Z " fill="#080808" transform="translate(211,206)"/>
<path d="M0 0 C1.43343546 2.86687092 0.56303792 4.50563683 -0.25 7.5625 C-0.62898437 9.04943359 -0.62898437 9.04943359 -1.015625 10.56640625 C-1.34046875 11.36949219 -1.6653125 12.17257813 -2 13 C-2.99 13.33 -3.98 13.66 -5 14 C-4.74412595 12.22694336 -4.46972261 10.45655392 -4.1875 8.6875 C-4.03667969 7.70136719 -3.88585937 6.71523437 -3.73046875 5.69921875 C-2.96563295 2.87300731 -2.24741238 1.8040872 0 0 Z " fill="#050505" transform="translate(205,190)"/>
<path d="M0 0 C-0.309375 0.639375 -0.61875 1.27875 -0.9375 1.9375 C-2.31935403 5.92049104 -2.6536543 9.81650849 -3 14 C-3.33 14 -3.66 14 -4 14 C-5 6.375 -5 6.375 -5 3 C-2.55555556 0 -2.55555556 0 0 0 Z " fill="#484848" transform="translate(380,266)"/>
<path d="M0 0 C0.66 0 1.32 0 2 0 C1.11223998 3.69900008 0.05418136 7.34550461 -1 11 C-1.99 10.67 -2.98 10.34 -4 10 C-2.8905928 6.51329166 -1.73662334 3.22515763 0 0 Z " fill="#181818" transform="translate(375,253)"/>
<path d="M0 0 C1.09658936 3.28976808 0.79953138 4.71303767 0 8 C-0.99 8.33 -1.98 8.66 -3 9 C-2.4140625 2.84765625 -2.4140625 2.84765625 -2 1 C-1.34 0.67 -0.68 0.34 0 0 Z " fill="#050505" transform="translate(200,248)"/>
</svg>
