<?xml version="1.0" encoding="UTF-8"?>
<svg version="1.1" xmlns="http://www.w3.org/2000/svg" width="800" height="300">
<path d="M0 0 C264 0 528 0 800 0 C800 99 800 198 800 300 C536 300 272 300 0 300 C0 201 0 102 0 0 Z " fill="#FEFEFE" transform="translate(0,0)"/>
<path d="M0 0 C3.25 0.375 3.25 0.375 6.125 2.4375 C8.72048413 6.02537512 8.6747346 8.0427071 8.25 12.375 C8.91 12.045 9.57 11.715 10.25 11.375 C13.25 10.375 13.25 10.375 21.25 10.375 C21.25 40.075 21.25 69.775 21.25 100.375 C11.11621094 102.62695312 11.11621094 102.62695312 6.40234375 103.0078125 C5.38462891 103.09160156 4.36691406 103.17539062 3.31835938 103.26171875 C2.28517578 103.34035156 1.25199219 103.41898437 0.1875 103.5 C-1.36807617 103.62955078 -1.36807617 103.62955078 -2.95507812 103.76171875 C-8.57322605 104.21060058 -14.11453301 104.46971373 -19.75 104.375 C-19.62625 105.5196875 -19.62625 105.5196875 -19.5 106.6875 C-19.75 109.375 -19.75 109.375 -21.3125 111.1875 C-24.75570514 112.86495891 -26.95740642 112.89811636 -30.75 112.375 C-33.72046873 110.58476215 -36.17502414 108.52495172 -37.75 105.375 C-37.79003069 99.95484419 -37.58046319 94.97441058 -35.0625 90.125 C-32.75 88.375 -32.75 88.375 -29.6875 87.9375 C-26.75 88.375 -26.75 88.375 -23.75 90.375 C-20.62478167 90.54199232 -20.62478167 90.54199232 -17.75 90.375 C-18.47445312 89.95992188 -19.19890625 89.54484375 -19.9453125 89.1171875 C-27.45006872 84.3341562 -31.99901998 79.35477733 -34.32519531 70.609375 C-36.86582969 57.24622224 -36.18378169 41.07281812 -28.875 29.375 C-24.06597162 22.83330698 -17.63471281 18.5961782 -9.75 16.625 C-9.09 16.5425 -8.43 16.46 -7.75 16.375 C-7.87375 14.89 -7.87375 14.89 -8 13.375 C-8.02825307 8.76033109 -6.10366383 5.25051072 -3.75 1.375 C-2.75 0.375 -2.75 0.375 0 0 Z " fill="#F9F9F9" transform="translate(778.75,155.625)"/>
<path d="M0 0 C3.25 0.375 3.25 0.375 6.125 2.4375 C8.72048413 6.02537512 8.6747346 8.0427071 8.25 12.375 C8.91 12.045 9.57 11.715 10.25 11.375 C14.11061033 10.08812989 17.19150283 10.23742382 21.25 10.375 C21.25 11.365 21.25 12.355 21.25 13.375 C19.68883181 13.71451619 18.12598662 14.04632544 16.5625 14.375 C15.25732422 14.6534375 15.25732422 14.6534375 13.92578125 14.9375 C11.31287036 15.36472047 8.89186962 15.45116201 6.25 15.375 C6.1675 14.1375 6.085 12.9 6 11.625 C5.61524541 8.38617036 5.34975997 7.49592117 3.1875 4.875 C2.548125 4.38 1.90875 3.885 1.25 3.375 C-1.93421647 4.0902516 -1.93421647 4.0902516 -3.375 6.875 C-5.02050724 11.06356388 -5.46250682 14.91389892 -5.75 19.375 C-6.36746094 19.51035156 -6.98492188 19.64570313 -7.62109375 19.78515625 C-16.28242135 21.98674181 -23.01689093 25.93833805 -27.6875 33.75 C-31.53182672 40.88749549 -32.11209402 48.98096464 -32.125 56.9375 C-32.14949219 57.73607422 -32.17398438 58.53464844 -32.19921875 59.35742188 C-32.22821092 65.28632012 -30.79265662 69.32726484 -27.75 74.375 C-26.8528125 75.921875 -26.8528125 75.921875 -25.9375 77.5 C-21.48257702 83.35504163 -17.11654126 87.00159167 -9.75 88.375 C-6.27393825 88.72862759 -2.80356732 88.87935836 0.6875 89 C1.60982422 89.03867188 2.53214844 89.07734375 3.48242188 89.1171875 C5.73809143 89.21068676 7.99376916 89.2964391 10.25 89.375 C10.25 90.035 10.25 90.695 10.25 91.375 C2.9218153 92.41475712 -4.41090839 93.41520155 -11.75 94.375 C-12.46655762 94.47022949 -13.18311523 94.56545898 -13.92138672 94.66357422 C-15.59105152 94.87837719 -17.26417013 95.06591303 -18.9375 95.25 C-19.81792969 95.35054688 -20.69835937 95.45109375 -21.60546875 95.5546875 C-24.34166836 95.32542487 -24.97215694 94.37762781 -26.75 92.375 C-29.29258463 91.87485047 -29.29258463 91.87485047 -31.75 92.375 C-34.12065478 95.93098216 -35.08042466 99.12904316 -34.75 103.375 C-32.85350449 106.52158666 -32.85350449 106.52158666 -29.75 108.375 C-26.53938212 108.79390218 -26.53938212 108.79390218 -23.75 108.375 C-23.605625 107.776875 -23.46125 107.17875 -23.3125 106.5625 C-22.8627561 104.81349596 -22.32107659 103.08822977 -21.75 101.375 C-16.75177992 100.80032505 -11.75300527 100.23083718 -6.75366211 99.66601562 C-5.05526021 99.47340835 -3.3570145 99.27941839 -1.65893555 99.08398438 C0.79077407 98.80229292 3.24101406 98.525683 5.69140625 98.25 C6.81839684 98.11875732 6.81839684 98.11875732 7.96815491 97.98486328 C12.42729712 97.48903931 16.76320895 97.29224651 21.25 97.375 C21.25 98.365 21.25 99.355 21.25 100.375 C14.23228263 102.11662329 7.39035323 102.9518103 0.1875 103.5 C-1.36807617 103.62955078 -1.36807617 103.62955078 -2.95507812 103.76171875 C-8.57322605 104.21060058 -14.11453301 104.46971373 -19.75 104.375 C-19.62625 105.5196875 -19.62625 105.5196875 -19.5 106.6875 C-19.75 109.375 -19.75 109.375 -21.3125 111.1875 C-24.75570514 112.86495891 -26.95740642 112.89811636 -30.75 112.375 C-33.72046873 110.58476215 -36.17502414 108.52495172 -37.75 105.375 C-37.79003069 99.95484419 -37.58046319 94.97441058 -35.0625 90.125 C-32.75 88.375 -32.75 88.375 -29.6875 87.9375 C-26.75 88.375 -26.75 88.375 -23.75 90.375 C-20.62478167 90.54199232 -20.62478167 90.54199232 -17.75 90.375 C-18.47445312 89.95992188 -19.19890625 89.54484375 -19.9453125 89.1171875 C-27.45006872 84.3341562 -31.99901998 79.35477733 -34.32519531 70.609375 C-36.86582969 57.24622224 -36.18378169 41.07281812 -28.875 29.375 C-24.06597162 22.83330698 -17.63471281 18.5961782 -9.75 16.625 C-9.09 16.5425 -8.43 16.46 -7.75 16.375 C-7.87375 14.89 -7.87375 14.89 -8 13.375 C-8.02825307 8.76033109 -6.10366383 5.25051072 -3.75 1.375 C-2.75 0.375 -2.75 0.375 0 0 Z " fill="#0E0E0E" transform="translate(778.75,155.625)"/>
<path d="M0 0 C1.50433594 0.01353516 1.50433594 0.01353516 3.0390625 0.02734375 C3.80992187 0.03894531 4.58078125 0.05054688 5.375 0.0625 C5.705 1.0525 6.035 2.0425 6.375 3.0625 C5.14523437 3.11857422 5.14523437 3.11857422 3.890625 3.17578125 C2.81296875 3.24152344 1.7353125 3.30726563 0.625 3.375 C-0.44234375 3.43300781 -1.5096875 3.49101562 -2.609375 3.55078125 C-5.8071068 4.09340154 -7.25098691 4.91321145 -9.625 7.0625 C-9.07402718 14.06730391 -9.07402718 14.06730391 -5.625 20.0625 C-1.4844667 22.22669889 2.0662138 22.27387918 6.6875 22.1875 C7.94175781 22.16945312 9.19601562 22.15140625 10.48828125 22.1328125 C11.44089844 22.10960937 12.39351562 22.08640625 13.375 22.0625 C13.375 23.0525 13.375 24.0425 13.375 25.0625 C7.6075928 26.70654251 1.19255638 27.02763949 -4.5 24.9375 C-9.020409 22.2252546 -10.97906689 19.00029932 -12.625 14.0625 C-13.01957593 11.00171818 -13.13257589 8.11347245 -12.625 5.0625 C-8.61180415 0.83808332 -5.66155708 -0.06583206 0 0 Z " fill="#0C0C0C" transform="translate(778.625,192.9375)"/>
<path d="M0 0 C0 0.99 0 1.98 0 3 C-7.23278998 4.87094252 -14.10889237 5.40934408 -21.5625 5.625 C-23.21862305 5.68300781 -23.21862305 5.68300781 -24.90820312 5.7421875 C-27.60531125 5.83559384 -30.3024277 5.92136476 -33 6 C-32.67 5.01 -32.34 4.02 -32 3 C-28.35547656 2.49013736 -24.70921254 1.99394154 -21.0625 1.5 C-19.53012695 1.28537109 -19.53012695 1.28537109 -17.96679688 1.06640625 C-11.91392631 0.25419998 -6.10659056 -0.15282396 0 0 Z " fill="#181818" transform="translate(800,253)"/>
<path d="M0 0 C3.05806198 0.24795097 4.79080517 0.85299823 7.3125 2.625 C9.5917588 5.83284572 9.29559984 8.15720211 9 12 C9.66 11.67 10.32 11.34 11 11 C14.86061033 9.71312989 17.94150283 9.86242382 22 10 C22 10.99 22 11.98 22 13 C20.43883181 13.33951619 18.87598662 13.67132544 17.3125 14 C16.00732422 14.2784375 16.00732422 14.2784375 14.67578125 14.5625 C12.06287036 14.98972047 9.64186962 15.07616201 7 15 C6.9175 13.7625 6.835 12.525 6.75 11.25 C6.36830497 8.16372307 6.11351268 7.14378273 4.125 4.625 C2.46282218 3.35392285 0.74104853 2.16069902 -1 1 C-0.67 0.67 -0.34 0.34 0 0 Z " fill="#070707" transform="translate(778,156)"/>
<path d="M0 0 C12.87 0.495 12.87 0.495 26 1 C26 1.66 26 2.32 26 3 C17.75 3 9.5 3 1 3 C0.67 2.01 0.34 1.02 0 0 Z " fill="#000000" transform="translate(771,228)"/>
<path d="M0 0 C-0.33 0.99 -0.66 1.98 -1 3 C-8.92 3.495 -8.92 3.495 -17 4 C-16.67 3.01 -16.34 2.02 -16 1 C-10.61509359 0.08342019 -5.45769811 -0.11138159 0 0 Z " fill="#1E1E1E" transform="translate(784,255)"/>
<path d="M0 0 C0.66 0 1.32 0 2 0 C1.125 6.875 1.125 6.875 0 8 C-1.66617115 8.04063832 -3.33388095 8.042721 -5 8 C-5.33 6.02 -5.66 4.04 -6 2 C-5.01 2 -4.02 2 -3 2 C-3 2.99 -3 3.98 -3 5 C-2.34 4.67 -1.68 4.34 -1 4 C-0.34786708 1.97536745 -0.34786708 1.97536745 0 0 Z " fill="#040404" transform="translate(755,206)"/>
<path d="M0 0 C2.31 0 4.62 0 7 0 C7 0.99 7 1.98 7 3 C4.69 3.33 2.38 3.66 0 4 C-0.33 3.34 -0.66 2.68 -1 2 C-0.67 1.34 -0.34 0.68 0 0 Z " fill="#242424" transform="translate(785,215)"/>
<path d="M0 0 C2.31 0 4.62 0 7 0 C7.33 0.99 7.66 1.98 8 3 C5.03 3 2.06 3 -1 3 C-0.67 2.01 -0.34 1.02 0 0 Z " fill="#282828" transform="translate(777,193)"/>
<path d="M0 0 C0.66 0.33 1.32 0.66 2 1 C0.7508258 4.45925163 -0.67527795 7.14693203 -3 10 C-4 7 -4 7 -3.22265625 5.17578125 C-2.1484375 3.45052083 -1.07421875 1.72526042 0 0 Z " fill="#1D1D1D" transform="translate(776,156)"/>
<path d="M0 0 C0.33 0 0.66 0 1 0 C0.67 3.3 0.34 6.6 0 10 C-0.66 9.67 -1.32 9.34 -2 9 C-2.25 3.375 -2.25 3.375 0 0 Z " fill="#060606" transform="translate(747,193)"/>
</svg>
