<?xml version="1.0" encoding="UTF-8"?>
<svg version="1.1" xmlns="http://www.w3.org/2000/svg" width="800" height="300">
<path d="M0 0 C264 0 528 0 800 0 C800 99 800 198 800 300 C536 300 272 300 0 300 C0 201 0 102 0 0 Z " fill="#FEFEFE" transform="translate(0,0)"/>
<path d="M0 0 C3.4249741 1.42754275 5.72163394 3.06853023 8 6 C8.33569336 8.54150391 8.33569336 8.54150391 8.21484375 11.2265625 C8.18382568 12.12197754 8.15280762 13.01739258 8.12084961 13.93994141 C8.08096924 14.61976074 8.04108887 15.29958008 8 16 C8.58865341 15.99803619 9.17730682 15.99607239 9.78379822 15.99404907 C31.75409073 15.93290331 53.72283948 16.08679471 75.69211769 16.28753281 C81.22676681 16.33803982 86.76138774 16.38450711 92.29614258 16.421875 C97.72958546 16.45862606 103.16286814 16.50487956 108.59617424 16.55806351 C110.65069782 16.57656544 112.70525474 16.59168883 114.75982857 16.60334396 C117.60380993 16.62012802 120.44741516 16.64911821 123.29125977 16.68115234 C124.13415558 16.68331253 124.97705139 16.68547272 125.8454895 16.68769836 C129.73715447 16.7440161 131.68868403 16.79245602 135 19 C135.99 19 136.98 19 138 19 C138.53625 18.195625 139.0725 17.39125 139.625 16.5625 C142.6512005 13.29738893 144.5958516 13.24490415 148.87890625 12.84765625 C151 13 151 13 154 15 C154.42431591 18.81884318 154.5390434 21.12405448 152.5 24.4375 C151.7575 25.2109375 151.7575 25.2109375 151 26 C152.29351266 28.72476047 153.75958894 31.10576122 155.5 33.5625 C161.27227436 42.77430067 161.27103509 55.61046502 159.125 66 C158.43202053 68.90391398 157.40049261 71.36377861 156 74 C155.34 74 154.68 74 154 74 C153.67 74.99 153.34 75.98 153 77 C150.890625 78.75390625 150.890625 78.75390625 148.25 80.5625 C147.38890625 81.16191406 146.5278125 81.76132813 145.640625 82.37890625 C143.14467925 83.91118064 140.74836645 85.00643587 138 86 C138 86.66 138 87.32 138 88 C138.886875 87.896875 139.77375 87.79375 140.6875 87.6875 C144 88 144 88 146.9375 90.0625 C149 93 149 93 149.125 96.5 C147.82715071 100.53775335 146.19915329 102.2807197 143 105 C142.67 105.33 142.34 105.66 142 106 C139.1875 106.25 139.1875 106.25 136 106 C135.38125 105.46375 134.7625 104.9275 134.125 104.375 C133.42375 103.92125 132.7225 103.4675 132 103 C130.10294361 103.46594367 128.20737586 103.94386615 126.3359375 104.50390625 C118.78284098 106.10799196 111.00931051 103.75180339 104 101 C103.69707031 101.49628906 103.39414062 101.99257812 103.08203125 102.50390625 C100.22340641 107.13927638 97.32660912 111.68439898 94 116 C93.34 116 92.68 116 92 116 C92.01160156 116.71027344 92.02320313 117.42054688 92.03515625 118.15234375 C92.04417969 119.07144531 92.05320312 119.99054688 92.0625 120.9375 C92.07410156 121.85402344 92.08570313 122.77054687 92.09765625 123.71484375 C92 126 92 126 91 127 C88.54507499 127.18063984 86.14495751 127.27801743 83.6875 127.3125 C82.67139648 127.35600586 82.67139648 127.35600586 81.63476562 127.40039062 C78.24380163 127.44348205 76.34887177 127.25531327 73.58203125 125.23046875 C71.03428507 121.63846117 71 119.41277603 71 115 C72.3125 112.625 72.3125 112.625 75 111 C76.64171172 110.74296433 78.28839436 110.51679219 79.9375 110.3125 C83.13698812 109.79340901 84.5517851 109.50500231 86.7265625 107.0546875 C89.03069891 102.97191947 90.06808823 99.65955886 91 95 C58.66 95 26.32 95 -7 95 C-2.72765238 103.66340524 -2.72765238 103.66340524 4.8359375 109.1796875 C6.75765664 109.66894408 8.69501894 110.10183111 10.64453125 110.46484375 C13 111 13 111 15 113 C15.62838874 117.70367457 15.67329295 122.99006058 13 127 C9.29375135 130.2008511 5.71724633 132.30727257 0.75 132.4375 C-5.09128631 131.7560166 -5.09128631 131.7560166 -7 130 C-7.9375 126.625 -7.9375 126.625 -8 123 C-6.5625 120.5625 -6.5625 120.5625 -5 119 C-6.0828125 118.4121875 -6.0828125 118.4121875 -7.1875 117.8125 C-10 116 -10 116 -12.25 113.625 C-15.28405646 110.7288552 -18.26647892 109.12771024 -22.01171875 107.30859375 C-24.3101428 105.79587851 -25.00118804 104.52640672 -26 102 C-26.64582031 102.12117188 -27.29164063 102.24234375 -27.95703125 102.3671875 C-41.48842487 104.77359129 -55.23873189 106.49441682 -69 106 C-69.14308594 106.78761719 -69.28617188 107.57523437 -69.43359375 108.38671875 C-70 111 -70 111 -71.0625 112.8125 C-74.24552437 114.76338591 -77.44930489 114.73693672 -81 114 C-84.02023186 112.25008025 -86.41553692 110.16892615 -88 107 C-88.11697217 101.34355994 -87.96841169 96.50958293 -84.875 91.6875 C-81.04659143 89.44039062 -79.26100457 89.97148165 -75 91 C-73.0509375 91.2784375 -73.0509375 91.2784375 -71.0625 91.5625 C-70.051875 91.706875 -69.04125 91.85125 -68 92 C-68.96099609 91.39478516 -68.96099609 91.39478516 -69.94140625 90.77734375 C-77.88202433 85.20352689 -82.77917188 78.41438006 -85 69 C-86.7819346 55.51116951 -86.00994278 40.28754003 -77.81640625 28.97265625 C-74.68538846 25.5723036 -70.96942242 23.3060454 -67 21 C-66.01 20.34 -65.02 19.68 -64 19 C-62.34450469 18.61500109 -60.6777567 18.27206865 -59 18 C-58.95875 17.030625 -58.9175 16.06125 -58.875 15.0625 C-58.13230461 9.95777673 -55.55989175 5.68264664 -52 2 C-48.625 1.4375 -48.625 1.4375 -46 2 C-46 2.66 -46 3.32 -46 4 C-45.01 4.33 -44.02 4.66 -43 5 C-41.0549 7.91765 -40.54723683 9.62537285 -40 13 C-39.16726562 12.67515625 -38.33453125 12.3503125 -37.4765625 12.015625 C-33.62009989 10.88901795 -30.38660276 10.73392143 -26.375 10.75 C-24.43753906 10.74226562 -24.43753906 10.74226562 -22.4609375 10.734375 C-19.31589796 10.97575501 -17.61376712 11.32825047 -15 13 C-15.0825 11.948125 -15.165 10.89625 -15.25 9.8125 C-14.96269651 5.43112175 -14.05154419 4.05154419 -11 1 C-7.45168665 -0.77415668 -3.86515634 -0.61867003 0 0 Z " fill="#FCFCFC" transform="translate(277,154)"/>
<path d="M0 0 C3.4249741 1.42754275 5.72163394 3.06853023 8 6 C8.33569336 8.54150391 8.33569336 8.54150391 8.21484375 11.2265625 C8.18382568 12.12197754 8.15280762 13.01739258 8.12084961 13.93994141 C8.08096924 14.61976074 8.04108887 15.29958008 8 16 C8.58865341 15.99803619 9.17730682 15.99607239 9.78379822 15.99404907 C31.75409073 15.93290331 53.72283948 16.08679471 75.69211769 16.28753281 C81.22676681 16.33803982 86.76138774 16.38450711 92.29614258 16.421875 C97.72958546 16.45862606 103.16286814 16.50487956 108.59617424 16.55806351 C110.65069782 16.57656544 112.70525474 16.59168883 114.75982857 16.60334396 C117.60380993 16.62012802 120.44741516 16.64911821 123.29125977 16.68115234 C124.13415558 16.68331253 124.97705139 16.68547272 125.8454895 16.68769836 C129.73715447 16.7440161 131.68868403 16.79245602 135 19 C135.99 19 136.98 19 138 19 C138.53625 18.195625 139.0725 17.39125 139.625 16.5625 C142.6512005 13.29738893 144.5958516 13.24490415 148.87890625 12.84765625 C151 13 151 13 154 15 C154.42431591 18.81884318 154.5390434 21.12405448 152.5 24.4375 C151.7575 25.2109375 151.7575 25.2109375 151 26 C152.29351266 28.72476047 153.75958894 31.10576122 155.5 33.5625 C161.27227436 42.77430067 161.27103509 55.61046502 159.125 66 C158.43202053 68.90391398 157.40049261 71.36377861 156 74 C155.34 74 154.68 74 154 74 C153.67 74.99 153.34 75.98 153 77 C150.890625 78.75390625 150.890625 78.75390625 148.25 80.5625 C147.38890625 81.16191406 146.5278125 81.76132813 145.640625 82.37890625 C143.14467925 83.91118064 140.74836645 85.00643587 138 86 C138 86.66 138 87.32 138 88 C138.886875 87.896875 139.77375 87.79375 140.6875 87.6875 C144 88 144 88 146.9375 90.0625 C149 93 149 93 149.125 96.5 C147.82715071 100.53775335 146.19915329 102.2807197 143 105 C142.67 105.33 142.34 105.66 142 106 C139.1875 106.25 139.1875 106.25 136 106 C135.38125 105.46375 134.7625 104.9275 134.125 104.375 C133.42375 103.92125 132.7225 103.4675 132 103 C130.10294361 103.46594367 128.20737586 103.94386615 126.3359375 104.50390625 C118.78284098 106.10799196 111.00931051 103.75180339 104 101 C103.69707031 101.49628906 103.39414062 101.99257812 103.08203125 102.50390625 C100.22340641 107.13927638 97.32660912 111.68439898 94 116 C93.34 116 92.68 116 92 116 C92.01160156 116.71027344 92.02320313 117.42054688 92.03515625 118.15234375 C92.04417969 119.07144531 92.05320312 119.99054688 92.0625 120.9375 C92.07410156 121.85402344 92.08570313 122.77054687 92.09765625 123.71484375 C92 126 92 126 91 127 C88.54507499 127.18063984 86.14495751 127.27801743 83.6875 127.3125 C82.67139648 127.35600586 82.67139648 127.35600586 81.63476562 127.40039062 C78.24380163 127.44348205 76.34887177 127.25531327 73.58203125 125.23046875 C71.03428507 121.63846117 71 119.41277603 71 115 C72.3125 112.625 72.3125 112.625 75 111 C76.64171172 110.74296433 78.28839436 110.51679219 79.9375 110.3125 C83.13698812 109.79340901 84.5517851 109.50500231 86.7265625 107.0546875 C89.03069891 102.97191947 90.06808823 99.65955886 91 95 C58.66 95 26.32 95 -7 95 C-2.72765238 103.66340524 -2.72765238 103.66340524 4.8359375 109.1796875 C6.75765664 109.66894408 8.69501894 110.10183111 10.64453125 110.46484375 C13 111 13 111 15 113 C15.62838874 117.70367457 15.67329295 122.99006058 13 127 C9.29375135 130.2008511 5.71724633 132.30727257 0.75 132.4375 C-5.09128631 131.7560166 -5.09128631 131.7560166 -7 130 C-7.9375 126.625 -7.9375 126.625 -8 123 C-6.5625 120.5625 -6.5625 120.5625 -5 119 C-6.0828125 118.4121875 -6.0828125 118.4121875 -7.1875 117.8125 C-10 116 -10 116 -12.25 113.625 C-15.28405646 110.7288552 -18.26647892 109.12771024 -22.01171875 107.30859375 C-24.3101428 105.79587851 -25.00118804 104.52640672 -26 102 C-26.64582031 102.12117188 -27.29164063 102.24234375 -27.95703125 102.3671875 C-41.48842487 104.77359129 -55.23873189 106.49441682 -69 106 C-69.14308594 106.78761719 -69.28617188 107.57523437 -69.43359375 108.38671875 C-70 111 -70 111 -71.0625 112.8125 C-74.24552437 114.76338591 -77.44930489 114.73693672 -81 114 C-84.02023186 112.25008025 -86.41553692 110.16892615 -88 107 C-88.11697217 101.34355994 -87.96841169 96.50958293 -84.875 91.6875 C-81.04659143 89.44039062 -79.26100457 89.97148165 -75 91 C-73.0509375 91.2784375 -73.0509375 91.2784375 -71.0625 91.5625 C-70.051875 91.706875 -69.04125 91.85125 -68 92 C-68.96099609 91.39478516 -68.96099609 91.39478516 -69.94140625 90.77734375 C-77.88202433 85.20352689 -82.77917188 78.41438006 -85 69 C-86.7819346 55.51116951 -86.00994278 40.28754003 -77.81640625 28.97265625 C-74.68538846 25.5723036 -70.96942242 23.3060454 -67 21 C-66.01 20.34 -65.02 19.68 -64 19 C-62.34450469 18.61500109 -60.6777567 18.27206865 -59 18 C-58.95875 17.030625 -58.9175 16.06125 -58.875 15.0625 C-58.13230461 9.95777673 -55.55989175 5.68264664 -52 2 C-48.625 1.4375 -48.625 1.4375 -46 2 C-46 2.66 -46 3.32 -46 4 C-45.01 4.33 -44.02 4.66 -43 5 C-41.0549 7.91765 -40.54723683 9.62537285 -40 13 C-39.16726562 12.67515625 -38.33453125 12.3503125 -37.4765625 12.015625 C-33.62009989 10.88901795 -30.38660276 10.73392143 -26.375 10.75 C-24.43753906 10.74226562 -24.43753906 10.74226562 -22.4609375 10.734375 C-19.31589796 10.97575501 -17.61376712 11.32825047 -15 13 C-15.0825 11.948125 -15.165 10.89625 -15.25 9.8125 C-14.96269651 5.43112175 -14.05154419 4.05154419 -11 1 C-7.45168665 -0.77415668 -3.86515634 -0.61867003 0 0 Z M-11 6 C-12.26026798 8.52053595 -11.91874445 9.8542098 -11.5625 12.625 C-11.40974609 13.85089844 -11.40974609 13.85089844 -11.25390625 15.1015625 C-11.17011719 15.72804687 -11.08632813 16.35453125 -11 17 C-12.010625 16.67 -13.02125 16.34 -14.0625 16 C-23.79130426 13.58075915 -34.38425617 14.46596868 -44 17 C-43.896875 15.783125 -43.79375 14.56625 -43.6875 13.3125 C-43.65408479 9.54994773 -43.90669702 9.11196358 -46.5 6 C-47.325 5.34 -48.15 4.68 -49 4 C-52.55880453 5.18626818 -53.45068551 6.65244194 -55.21484375 9.87890625 C-56.56952474 13.53856683 -56.31351396 17.15945395 -56 21 C-56.680625 21.103125 -57.36125 21.20625 -58.0625 21.3125 C-63.42248092 22.56696362 -68.48135934 24.85064439 -73 28 C-73 28.66 -73 29.32 -73 30 C-73.66 30 -74.32 30 -75 30 C-75.80710015 31.30306627 -76.59470177 32.61820965 -77.375 33.9375 C-78.03628906 35.03384766 -78.03628906 35.03384766 -78.7109375 36.15234375 C-81.87999694 43.15308416 -82.36331384 50.4039958 -82.375 58 C-82.39949219 58.83789062 -82.42398438 59.67578125 -82.44921875 60.5390625 C-82.49166426 69.67899548 -78.79301748 78.00327928 -72.4375 84.62890625 C-65.61658482 90.94738795 -58.51664186 91.31556961 -49.5625 91.625 C-48.64017578 91.66367188 -47.71785156 91.70234375 -46.76757812 91.7421875 C-44.51190857 91.83568676 -42.25623084 91.9214391 -40 92 C-40.7113208 92.08564209 -41.4226416 92.17128418 -42.15551758 92.25952148 C-45.37491063 92.64896207 -48.59370181 93.0431743 -51.8125 93.4375 C-52.93205078 93.57220703 -54.05160156 93.70691406 -55.20507812 93.84570312 C-56.27822266 93.97783203 -57.35136719 94.10996094 -58.45703125 94.24609375 C-59.44678955 94.36654053 -60.43654785 94.4869873 -61.45629883 94.61108398 C-64.11412371 94.94403366 -64.11412371 94.94403366 -67 96 C-70.4375 96.3125 -70.4375 96.3125 -74 96 C-75.37195574 94.70644173 -76.71182656 93.37701298 -78 92 C-81.01811422 92.17753613 -81.83735215 92.83735215 -84 95 C-84.89281998 98.6717961 -85.21741919 102.227777 -85 106 C-83.16348401 109.33821811 -83.16348401 109.33821811 -80 111 C-76.87237733 111.58442963 -76.87237733 111.58442963 -74 111 C-73.01 110.01 -73.01 110.01 -72 109 C-72.32041397 106.39719432 -72.32041397 106.39719432 -73 104 C-56.34608557 102.17315821 -39.69137375 100.44772119 -23 99 C-23.495 100.485 -23.495 100.485 -24 102 C-23.443125 102.36351562 -22.88625 102.72703125 -22.3125 103.1015625 C-18.41072178 105.67199072 -14.58031775 108.27699107 -10.875 111.125 C-7.40412194 113.77346117 -3.83720086 115.9215162 0 118 C-1.2375 119.0828125 -1.2375 119.0828125 -2.5 120.1875 C-5.24407806 122.72917366 -5.24407806 122.72917366 -5.3125 125.8125 C-5.209375 126.534375 -5.10625 127.25625 -5 128 C0.64351606 129.26691177 4.02254133 129.06305149 9 126 C11.29926387 122.19184422 12.09122096 120.00343051 11.6875 115.5625 C11.460625 114.716875 11.23375 113.87125 11 113 C10.3709375 112.96003906 9.741875 112.92007813 9.09375 112.87890625 C2.17899934 112.03538998 -0.9892954 109.78982086 -5.3125 104.39453125 C-7.44939694 101.36231407 -9.23416849 98.25999664 -11 95 C-11.66 94.67 -12.32 94.34 -13 94 C-13 93.34 -13 92.68 -13 92 C-2.105669 91.86777357 8.78868137 91.73728108 19.68305779 91.60884857 C24.74477002 91.54912544 29.80647448 91.48886162 34.86816406 91.42724609 C45.38044722 91.29962588 55.89271519 91.17990533 66.40530014 91.07980347 C71.11484324 91.03382121 75.8237635 90.97465237 80.53285789 90.89510345 C83.56604905 90.84644655 86.59942788 90.81534674 89.6328125 90.78125 C91.19538284 90.74638489 91.19538284 90.74638489 92.78952026 90.71081543 C94.18365646 90.70024109 94.18365646 90.70024109 95.60595703 90.68945312 C96.39229523 90.67692505 97.17863342 90.66439697 97.98880005 90.65148926 C100 91 100 91 103 94 C100.03 94 97.06 94 94 94 C93.74605469 94.79664063 93.49210938 95.59328125 93.23046875 96.4140625 C91.46639089 101.84504377 89.60982449 106.91084225 87 112 C87 112.99 87 113.98 87 115 C86.01 114.67 85.02 114.34 84 114 C78.85056722 113.5982661 78.85056722 113.5982661 74 115 C74.32960216 120.01535052 74.32960216 120.01535052 77 124 C79.89883083 124.24339551 79.89883083 124.24339551 83.125 124.125 C84.22070312 124.10695313 85.31640625 124.08890625 86.4453125 124.0703125 C87.28835938 124.04710937 88.13140625 124.02390625 89 124 C89 121.36 89 118.72 89 116 C89.66 116 90.32 116 91 116 C91 115.34 91 114.68 91 114 C91.66 114 92.32 114 93 114 C94.48540336 112.38500163 94.48540336 112.38500163 95.9375 110.3125 C96.46601563 109.58546875 96.99453125 108.8584375 97.5390625 108.109375 C99.13857683 105.7999158 100.59844243 103.43428421 102 101 C102.33 100.67 102.66 100.34 103 100 C103.04063832 98.33382885 103.042721 96.66611905 103 95 C104.32 95 105.64 95 107 95 C107.0928125 95.62261719 107.185625 96.24523437 107.28125 96.88671875 C107.88116499 99.45084604 107.88116499 99.45084604 111.5 100.8125 C118.96806732 103.26191958 126.59726818 100.80255645 134 99 C134.66 100.32 135.32 101.64 136 103 C138.83151973 103.41809201 138.83151973 103.41809201 142 103 C144.5714939 100.9315113 144.5714939 100.9315113 146 98 C145.86850174 95.24875747 145.86850174 95.24875747 145 93 C144.01 92.67 143.02 92.34 142 92 C142 91.34 142 90.68 142 90 C139.36 90 136.72 90 134 90 C133.67 90.66 133.34 91.32 133 92 C130.10617685 92.4832983 127.2895566 92.84501897 124.375 93.125 C123.57964844 93.21136719 122.78429687 93.29773438 121.96484375 93.38671875 C117.28426069 93.870917 112.7044202 94.08828671 108 94 C108 93.67 108 93.34 108 93 C108.83144531 92.86722656 109.66289062 92.73445313 110.51953125 92.59765625 C111.60621094 92.42105469 112.69289063 92.24445313 113.8125 92.0625 C115.43091797 91.80146484 115.43091797 91.80146484 117.08203125 91.53515625 C120.04933356 91.06128079 120.04933356 91.06128079 123 90 C123 89.34 123 88.68 123 88 C123.55429687 88.20625 124.10859375 88.4125 124.6796875 88.625 C131.02585891 89.65064386 138.35273955 83.92836941 143.375 80.5 C149.30595193 76.15752806 154.75870771 71.73947964 156.6875 64.375 C157.75249769 52.87302492 158.12051004 40.70301588 150.4375 31.42578125 C149.03721941 29.88846704 149.03721941 29.88846704 147 29 C146.375 26.9375 146.375 26.9375 146 25 C146.9590625 24.5359375 146.9590625 24.5359375 147.9375 24.0625 C149.93610821 23.1654837 149.93610821 23.1654837 151 22 C151.16666667 19.5 151.16666667 19.5 151 17 C149.95420381 15.73778302 149.95420381 15.73778302 147.625 15.8125 C144.76555137 15.79951452 144.76555137 15.79951452 142 18 C142.309375 18.61875 142.61875 19.2375 142.9375 19.875 C143.625 21.25 144.3125 22.625 145 24 C143.01980257 23.52511102 141.04086365 23.04497141 139.0625 22.5625 C137.96035156 22.29566406 136.85820312 22.02882812 135.72265625 21.75390625 C133 21 133 21 132 20 C129.88838375 19.88117798 127.77280129 19.83254416 125.65795898 19.81054688 C124.9941069 19.80225357 124.33025482 19.79396027 123.64628601 19.78541565 C122.19545873 19.76795806 120.74460234 19.7528071 119.29372978 19.73963928 C116.97244598 19.718535 114.65129703 19.69149521 112.33009338 19.66296387 C107.36594992 19.60313358 102.40173651 19.55141604 97.4375 19.5 C90.97780514 19.43187894 84.51817185 19.35968953 78.05859375 19.28125 C77.26962582 19.27184324 76.48065788 19.26243649 75.66778183 19.25274467 C65.06069722 19.12210506 54.47598792 18.8372089 43.87889099 18.33692932 C35.41471499 17.94403758 26.97157293 17.88316876 18.5 17.9375 C17.06770999 17.94255016 15.63541815 17.94710656 14.203125 17.95117188 C10.80204324 17.96184231 7.40103506 17.97888968 4 18 C4.16757812 16.89011719 4.33515625 15.78023437 4.5078125 14.63671875 C5.15097685 10.64109957 5.15097685 10.64109957 4 7 C1.558633 4.558633 -0.06917604 3.16289419 -3.5 2.5625 C-6.55933742 3.09788405 -8.49231495 4.18889413 -11 6 Z " fill="#1D1D1D" transform="translate(277,154)"/>
<path d="M0 0 C3.67306899 -0.04394654 7.34599801 -0.07503655 11.01922607 -0.10186768 C12.62760597 -0.12453453 12.62760597 -0.12453453 14.26847839 -0.1476593 C15.24011429 -0.15180344 16.21175018 -0.15594757 17.21282959 -0.16021729 C18.05048355 -0.16790634 18.88813751 -0.1755954 19.75117493 -0.18351746 C21.89031982 0.05047607 21.89031982 0.05047607 24.89031982 2.05047607 C24.89031982 2.71047607 24.89031982 3.37047607 24.89031982 4.05047607 C21.92031982 4.05047607 18.95031982 4.05047607 15.89031982 4.05047607 C15.78848389 4.8780542 15.68664795 5.70563232 15.58172607 6.55828857 C14.78087967 10.60324161 13.41111727 14.13437871 11.82781982 17.92547607 C11.54615967 18.61383545 11.26449951 19.30219482 10.9743042 20.01141357 C10.28516716 21.69337516 9.58851185 23.37225304 8.89031982 25.05047607 C4.60031982 25.05047607 0.31031982 25.05047607 -4.10968018 25.05047607 C-3.11968018 27.69047607 -2.12968018 30.33047607 -1.10968018 33.05047607 C2.85031982 33.38047607 6.81031982 33.71047607 10.89031982 34.05047607 C10.89031982 31.41047607 10.89031982 28.77047607 10.89031982 26.05047607 C11.55031982 26.05047607 12.21031982 26.05047607 12.89031982 26.05047607 C12.89031982 25.39047607 12.89031982 24.73047607 12.89031982 24.05047607 C13.55031982 24.05047607 14.21031982 24.05047607 14.89031982 24.05047607 C15.29250732 22.90578857 15.29250732 22.90578857 15.70281982 21.73797607 C16.87557474 19.08384653 17.84713344 18.011935 19.89031982 16.05047607 C22.26541059 12.53534174 23.66459258 9.10480466 24.89031982 5.05047607 C26.21031982 5.05047607 27.53031982 5.05047607 28.89031982 5.05047607 C29.16875732 5.97860107 29.16875732 5.97860107 29.45281982 6.92547607 C30.80845073 9.34199935 30.80845073 9.34199935 33.95281982 10.36297607 C38.58382991 11.17156514 42.29070587 10.75224139 46.89031982 10.05047607 C48.57702488 9.8559547 50.26452745 9.66820195 51.95281982 9.48797607 C53.25219482 9.34360107 54.55156982 9.19922607 55.89031982 9.05047607 C56.88031982 10.53547607 56.88031982 10.53547607 57.89031982 12.05047607 C60.76191632 12.71837971 60.76191632 12.71837971 63.89031982 12.05047607 C67.09702886 9.42680505 69.32266263 6.89836192 70.89031982 3.05047607 C70.6315888 7.44890342 70.32925093 9.5457053 67.39031982 12.92547607 C66.56531982 13.62672607 65.74031982 14.32797607 64.89031982 15.05047607 C64.56031982 15.38047607 64.23031982 15.71047607 63.89031982 16.05047607 C61.07781982 16.30047607 61.07781982 16.30047607 57.89031982 16.05047607 C56.96219482 15.24610107 56.96219482 15.24610107 56.01531982 14.42547607 C55.31406982 13.97172607 54.61281982 13.51797607 53.89031982 13.05047607 C51.99326344 13.51641975 50.09769568 13.99434222 48.22625732 14.55438232 C40.67316081 16.15846804 32.89963034 13.80227946 25.89031982 11.05047607 C25.58739014 11.54676514 25.28446045 12.0430542 24.97235107 12.55438232 C22.11372623 17.18975245 19.21692895 21.73487505 15.89031982 26.05047607 C15.23031982 26.05047607 14.57031982 26.05047607 13.89031982 26.05047607 C13.90192139 26.76074951 13.91352295 27.47102295 13.92547607 28.20281982 C13.93449951 29.12192139 13.94352295 30.04102295 13.95281982 30.98797607 C13.96442139 31.90449951 13.97602295 32.82102295 13.98797607 33.76531982 C13.89031982 36.05047607 13.89031982 36.05047607 12.89031982 37.05047607 C10.43539481 37.23111591 8.03527734 37.32849351 5.57781982 37.36297607 C4.90041748 37.39197998 4.22301514 37.42098389 3.52508545 37.4508667 C0.13412146 37.49395813 -1.7608084 37.30578934 -4.52764893 35.28094482 C-7.07539511 31.68893724 -7.10968018 29.46325211 -7.10968018 25.05047607 C-5.79718018 22.67547607 -5.79718018 22.67547607 -3.10968018 21.05047607 C-1.46796845 20.7934404 0.17871418 20.56726827 1.82781982 20.36297607 C5.02730794 19.84388508 6.44210492 19.55547838 8.61688232 17.10516357 C10.92101874 13.02239554 11.95840805 9.71003494 12.89031982 5.05047607 C-19.44968018 5.05047607 -51.78968018 5.05047607 -85.10968018 5.05047607 C-85.43968018 4.39047607 -85.76968018 3.73047607 -86.10968018 3.05047607 C-85.39940674 2.98989014 -84.6891333 2.9293042 -83.95733643 2.86688232 C-82.57868408 2.74119873 -82.57868408 2.74119873 -81.17218018 2.61297607 C-80.25565674 2.53176514 -79.3391333 2.4505542 -78.39483643 2.36688232 C-76.14808286 2.29002631 -76.14808286 2.29002631 -75.10968018 1.05047607 C-73.03942784 0.92643774 -70.96495946 0.87245663 -68.89117432 0.84515381 C-67.91484543 0.83030441 -67.91484543 0.83030441 -66.91879272 0.81515503 C-64.74417835 0.78333794 -62.56954383 0.75864392 -60.39483643 0.73406982 C-58.86670932 0.71345792 -57.33858736 0.69246047 -55.81047058 0.6710968 C-52.5830082 0.62698833 -49.35552666 0.5861345 -46.12799072 0.54779053 C-42.07272051 0.49957043 -38.01755179 0.44577981 -33.96238136 0.38985252 C-25.44793248 0.27264616 -16.93344544 0.17440218 -8.4185791 0.09313965 C-5.61232096 0.06625731 -2.80616527 0.03524546 0 0 Z " fill="#222222" transform="translate(355.10968017578125,243.94952392578125)"/>
<path d="M0 0 C1 1 1 1 1.25 4.3125 C0.99337817 8.09767206 0.56295176 9.33025858 -2 12 C-0.70648734 14.72476047 0.75958894 17.10576122 2.5 19.5625 C8.27227436 28.77430067 8.27103509 41.61046502 6.125 52 C5.43202053 54.90391398 4.40049261 57.36377861 3 60 C2.34 60 1.68 60 1 60 C0.67 60.99 0.34 61.98 0 63 C-2.109375 64.75390625 -2.109375 64.75390625 -4.75 66.5625 C-5.61109375 67.16191406 -6.4721875 67.76132813 -7.359375 68.37890625 C-9.85532075 69.91118064 -12.25163355 71.00643587 -15 72 C-15 72.66 -15 73.32 -15 74 C-14.0925 73.9175 -13.185 73.835 -12.25 73.75 C-9 74 -9 74 -6.625 75.6875 C-4.72741996 78.38790237 -4.64117787 79.77060081 -5 83 C-5.99 83.495 -5.99 83.495 -7 84 C-7.28875 83.195625 -7.5775 82.39125 -7.875 81.5625 C-8.73262568 78.8673532 -8.73262568 78.8673532 -11 78 C-11 77.34 -11 76.68 -11 76 C-13.64 76 -16.28 76 -19 76 C-19.495 77.485 -19.495 77.485 -20 79 C-22.85366354 79.33821197 -25.70780596 79.6706978 -28.5625 80 C-29.36236328 80.09539062 -30.16222656 80.19078125 -30.98632812 80.2890625 C-35.69452167 80.82714176 -40.26147265 81.10176703 -45 81 C-45 80.01 -45 79.02 -45 78 C-37.575 77.01 -37.575 77.01 -30 76 C-30 75.34 -30 74.68 -30 74 C-29.27167969 73.86851562 -28.54335938 73.73703125 -27.79296875 73.6015625 C-17.0775779 71.29363216 -7.16868586 65.28879303 0 57 C5.34056342 48.72212671 3.43256936 35.91038149 1.765625 26.7421875 C0.29139034 21.46202052 -2.41531146 18.05645903 -7 15 C-7 13.68 -7 12.36 -7 11 C-6.34 10.525625 -5.68 10.05125 -5 9.5625 C-4.34 9.046875 -3.68 8.53125 -3 8 C-2.66574265 5.37374861 -2.66574265 5.37374861 -3 3 C-6.04386724 2.91773332 -8.07175348 3.02391783 -11 4 C-10.505 4.61875 -10.01 5.2375 -9.5 5.875 C-8 8 -8 8 -8 10 C-9.41750563 9.88490339 -10.83401169 9.75746342 -12.25 9.625 C-13.03890625 9.55539063 -13.8278125 9.48578125 -14.640625 9.4140625 C-17 9 -17 9 -18.71746826 7.99978638 C-21.82580204 6.63828515 -24.49035617 6.67470326 -27.87988281 6.58935547 C-28.56321686 6.56955627 -29.2465509 6.54975708 -29.95059204 6.52935791 C-32.20129711 6.46636204 -34.45208652 6.41670817 -36.703125 6.3671875 C-38.26684722 6.32602802 -39.8305477 6.28403453 -41.39422607 6.24124146 C-45.50397093 6.1310099 -49.6139131 6.03209988 -53.72399902 5.93554688 C-57.92034402 5.83496276 -62.11640354 5.72367129 -66.3125 5.61328125 C-74.54142507 5.39837522 -82.77058945 5.19542917 -91 5 C-91 4.67 -91 4.34 -91 4 C-81.82910742 3.97681556 -72.65822496 3.95905378 -63.48730946 3.94818783 C-59.2287524 3.94297236 -54.97021542 3.93589896 -50.71166992 3.92456055 C-46.60088084 3.9136842 -42.49011106 3.90771309 -38.3793087 3.90512276 C-36.81205631 3.90327707 -35.24480497 3.89967293 -33.67756081 3.89426994 C-31.4800858 3.88699652 -29.28269021 3.88601172 -27.08520508 3.88647461 C-25.83500076 3.884254 -24.58479645 3.88203339 -23.29670715 3.87974548 C-20.39576466 3.98556363 -17.81545765 4.32540867 -15 5 C-14.443125 4.195625 -13.88625 3.39125 -13.3125 2.5625 C-11 0 -11 0 -8.625 -0.875 C-5.59305085 -1.01937853 -2.95662241 -0.67195964 0 0 Z " fill="#111111" transform="translate(430,168)"/>
<path d="M0 0 C0.99 0 1.98 0 3 0 C3.27972656 0.58007812 3.55945313 1.16015625 3.84765625 1.7578125 C7.27570744 8.43755211 10.84347738 13.48421602 18.07421875 16.12109375 C22.79517109 17.36275686 27.58094768 17.45717098 32.4375 17.625 C33.82098633 17.68300781 33.82098633 17.68300781 35.23242188 17.7421875 C37.48809143 17.83568676 39.74376916 17.9214391 42 18 C42.495 18.99 42.495 18.99 43 20 C42.25838623 20.08564209 41.51677246 20.17128418 40.75268555 20.25952148 C37.39723147 20.64888351 34.04236938 21.04313318 30.6875 21.4375 C29.52025391 21.57220703 28.35300781 21.70691406 27.15039062 21.84570312 C25.47299805 22.04389648 25.47299805 22.04389648 23.76171875 22.24609375 C22.73006592 22.36654053 21.69841309 22.4869873 20.63549805 22.61108398 C17.89982186 22.93653488 17.89982186 22.93653488 15 24 C11.5625 24.3125 11.5625 24.3125 8 24 C6.62804426 22.70644173 5.28817344 21.37701298 4 20 C1.78141747 20.13641377 1.78141747 20.13641377 0 21 C-1.97454988 26.89883171 -1.97454988 26.89883171 -2 33 C-0.47981752 35.43695474 -0.47981752 35.43695474 2 37 C5.167832 37.33448259 5.167832 37.33448259 8 37 C8.5534764 34.92446352 9 33.15634036 9 31 C12.82092412 29.62446732 16.08234111 30.18690098 20 31 C20.33 31.66 20.66 32.32 21 33 C18.36 33 15.72 33 13 33 C12.896875 33.763125 12.79375 34.52625 12.6875 35.3125 C11.64768683 39.3772242 11.64768683 39.3772242 9 41 C2.47658184 41.85553025 2.47658184 41.85553025 -0.8203125 39.9453125 C-2.99249062 38.17189171 -4.73772527 36.52454947 -6 34 C-6.11697217 28.34355994 -5.96841169 23.50958293 -2.875 18.6875 C0.95340857 16.44039062 2.73899543 16.97148165 7 18 C8.299375 18.185625 9.59875 18.37125 10.9375 18.5625 C11.948125 18.706875 12.95875 18.85125 14 19 C13.32453125 18.5153125 12.6490625 18.030625 11.953125 17.53125 C6.14959087 13.17021279 2.55198521 9.84396033 0 3 C0 2.01 0 1.02 0 0 Z " fill="#0F0F0F" transform="translate(195,227)"/>
<path d="M0 0 C0.33 0 0.66 0 1 0 C0.74126898 4.39842734 0.43893111 6.49522922 -2.5 9.875 C-3.7375 10.926875 -3.7375 10.926875 -5 12 C-5.33 12.33 -5.66 12.66 -6 13 C-8.8125 13.25 -8.8125 13.25 -12 13 C-12.61875 12.46375 -13.2375 11.9275 -13.875 11.375 C-14.57625 10.92125 -15.2775 10.4675 -16 10 C-17.89705639 10.46594367 -19.79262414 10.94386615 -21.6640625 11.50390625 C-29.21715902 13.10799196 -36.99068949 10.75180339 -44 8 C-44.45439453 8.74443359 -44.45439453 8.74443359 -44.91796875 9.50390625 C-47.77659359 14.13927638 -50.67339088 18.68439898 -54 23 C-54.66 23 -55.32 23 -56 23 C-55.98839844 23.71027344 -55.97679687 24.42054688 -55.96484375 25.15234375 C-55.95582031 26.07144531 -55.94679688 26.99054688 -55.9375 27.9375 C-55.92589844 28.85402344 -55.91429687 29.77054687 -55.90234375 30.71484375 C-56 33 -56 33 -57 34 C-59.45492501 34.18063984 -61.85504249 34.27801743 -64.3125 34.3125 C-64.98990234 34.34150391 -65.66730469 34.37050781 -66.36523438 34.40039062 C-69.78018143 34.44378682 -71.66938683 34.23944567 -74.46484375 32.21484375 C-76.61570986 29.11168577 -76.28316807 26.68118496 -76 23 C-75.34 22.67 -74.68 22.34 -74 22 C-73.01 24.64 -72.02 27.28 -71 30 C-67.04 30.33 -63.08 30.66 -59 31 C-59 28.36 -59 25.72 -59 23 C-58.34 23 -57.68 23 -57 23 C-57 22.34 -57 21.68 -57 21 C-56.34 21 -55.68 21 -55 21 C-54.731875 20.236875 -54.46375 19.47375 -54.1875 18.6875 C-53.01474509 16.03337046 -52.04318638 14.96145892 -50 13 C-47.62490923 9.48486566 -46.22572725 6.05432859 -45 2 C-43.68 2 -42.36 2 -41 2 C-40.814375 2.61875 -40.62875 3.2375 -40.4375 3.875 C-39.08186909 6.29152327 -39.08186909 6.29152327 -35.9375 7.3125 C-31.30648991 8.12108906 -27.59961395 7.70176531 -23 7 C-21.31329495 6.80547863 -19.62579237 6.61772587 -17.9375 6.4375 C-16.638125 6.293125 -15.33875 6.14875 -14 6 C-13.34 6.99 -12.68 7.98 -12 9 C-9.1284035 9.66790364 -9.1284035 9.66790364 -6 9 C-3.19259115 6.75407292 -1.38835844 5.10532787 -0.1875 1.6875 C-0.0946875 0.8521875 -0.0946875 0.8521875 0 0 Z " fill="#1A1A1A" transform="translate(425,247)"/>
<path d="M0 0 C4.95 0.33 9.9 0.66 15 1 C15 1.33 15 1.66 15 2 C11.37 2 7.74 2 4 2 C10.90252212 13.12339904 10.90252212 13.12339904 21.6875 19.1875 C22.45449219 19.30480469 23.22148437 19.42210937 24.01171875 19.54296875 C26 20 26 20 28 22 C28.62838874 26.70367457 28.67329295 31.99006058 26 36 C22.29375135 39.2008511 18.71724633 41.30727257 13.75 41.4375 C10.55445053 41.0646859 8.63650871 40.75767247 6 39 C6 37.35 6 35.7 6 34 C6.474375 34.515625 6.94875 35.03125 7.4375 35.5625 C11.30458836 37.73184225 14.76476641 36.8423669 19 36 C20.485 35.505 20.485 35.505 22 35 C23.43966791 28.55123906 23.43966791 28.55123906 24 22 C22.824375 22.12375 21.64875 22.2475 20.4375 22.375 C15.8648084 22.38309326 13.73825525 20.75678407 10.53125 17.64453125 C7.60825945 14.50529905 5.33446462 11.68230782 3.4375 7.8125 C2.1645271 4.75692522 2.1645271 4.75692522 -1 3 C-0.67 2.01 -0.34 1.02 0 0 Z " fill="#1F1F1F" transform="translate(264,245)"/>
<path d="M0 0 C0 2.31 0 4.62 0 7 C-0.66 7.33 -1.32 7.66 -2 8 C-2.495 5.525 -2.495 5.525 -3 3 C-6.04386724 2.91773332 -8.07175348 3.02391783 -11 4 C-10.505 4.61875 -10.01 5.2375 -9.5 5.875 C-8 8 -8 8 -8 10 C-9.41750563 9.88490339 -10.83401169 9.75746342 -12.25 9.625 C-13.03890625 9.55539063 -13.8278125 9.48578125 -14.640625 9.4140625 C-17 9 -17 9 -18.71746826 7.99978638 C-21.82580204 6.63828515 -24.49035617 6.67470326 -27.87988281 6.58935547 C-28.56321686 6.56955627 -29.2465509 6.54975708 -29.95059204 6.52935791 C-32.20129711 6.46636204 -34.45208652 6.41670817 -36.703125 6.3671875 C-38.26684722 6.32602802 -39.8305477 6.28403453 -41.39422607 6.24124146 C-45.50397093 6.1310099 -49.6139131 6.03209988 -53.72399902 5.93554688 C-57.92034402 5.83496276 -62.11640354 5.72367129 -66.3125 5.61328125 C-74.54142507 5.39837522 -82.77058945 5.19542917 -91 5 C-91 4.67 -91 4.34 -91 4 C-81.82910742 3.97681556 -72.65822496 3.95905378 -63.48730946 3.94818783 C-59.2287524 3.94297236 -54.97021542 3.93589896 -50.71166992 3.92456055 C-46.60088084 3.9136842 -42.49011106 3.90771309 -38.3793087 3.90512276 C-36.81205631 3.90327707 -35.24480497 3.89967293 -33.67756081 3.89426994 C-31.4800858 3.88699652 -29.28269021 3.88601172 -27.08520508 3.88647461 C-25.83500076 3.884254 -24.58479645 3.88203339 -23.29670715 3.87974548 C-20.39576466 3.98556363 -17.81545765 4.32540867 -15 5 C-14.443125 4.195625 -13.88625 3.39125 -13.3125 2.5625 C-11 0 -11 0 -8.625 -0.875 C-5.61245565 -1.01845449 -2.94601169 -0.6166071 0 0 Z " fill="#080808" transform="translate(430,168)"/>
<path d="M0 0 C0.33 0.99 0.66 1.98 1 3 C-0.24716797 3.05607422 -0.24716797 3.05607422 -1.51953125 3.11328125 C-2.60621094 3.17902344 -3.69289062 3.24476563 -4.8125 3.3125 C-6.43091797 3.39951172 -6.43091797 3.39951172 -8.08203125 3.48828125 C-10.97071555 3.78569481 -10.97071555 3.78569481 -12.890625 5.3046875 C-14.5367818 7.82029332 -14.06147856 10.06587358 -13.5859375 12.9296875 C-12.68360813 16.11791796 -11.05951797 18.44120495 -9 21 C-5.81175432 22.59412284 -2.37103338 22.10174735 1.125 22.0625 C2.25615234 22.05573242 2.25615234 22.05573242 3.41015625 22.04882812 C5.27347127 22.03703499 7.13674555 22.01909942 9 22 C9 22.99 9 23.98 9 25 C2.99284953 26.60190679 -3.94469769 27.0207743 -9.875 24.9375 C-14.65740046 21.97241171 -16.22561101 18.32316697 -18 13 C-18.74792244 7.84764543 -18.74792244 7.84764543 -18 5 C-13.15811332 -0.51473741 -6.85448693 -0.63207359 0 0 Z " fill="#252525" transform="translate(232,193)"/>
<path d="M0 0 C0.33 0 0.66 0 1 0 C1.36923077 6.4 1.36923077 6.4 -0.5 9.4375 C-0.995 9.953125 -1.49 10.46875 -2 11 C-0.70648734 13.72476047 0.75958894 16.10576122 2.5 18.5625 C8.32330006 27.85573107 8.29207549 40.80468457 6 51.25 C5.67 52.4875 5.34 53.725 5 55 C4.01 54.67 3.02 54.34 2 54 C2.165 52.906875 2.33 51.81375 2.5 50.6875 C3.72438223 40.59078274 4.57020191 27.59702506 -1.4375 18.875 C-3.86576736 15.9074484 -3.86576736 15.9074484 -7 14 C-7 12.68 -7 11.36 -7 10 C-6.030625 9.38125 -5.06125 8.7625 -4.0625 8.125 C-0.70063643 6.28010482 -0.70063643 6.28010482 -0.125 2.75 C-0.08375 1.8425 -0.0425 0.935 0 0 Z " fill="#1C1C1C" transform="translate(430,169)"/>
<path d="M0 0 C0.66 0.33 1.32 0.66 2 1 C1.52433594 1.5465625 1.04867187 2.093125 0.55859375 2.65625 C-2.13700171 6.70977701 -2.23197049 11.22285766 -2 16 C-0.66177841 18.84074462 -0.66177841 18.84074462 2 20 C5.167832 20.33448259 5.167832 20.33448259 8 20 C8.5534764 17.92446352 9 16.15634036 9 14 C12.82092412 12.62446732 16.08234111 13.18690098 20 14 C20.33 14.66 20.66 15.32 21 16 C18.36 16 15.72 16 13 16 C12.896875 16.763125 12.79375 17.52625 12.6875 18.3125 C11.64768683 22.3772242 11.64768683 22.3772242 9 24 C2.47658184 24.85553025 2.47658184 24.85553025 -0.8203125 22.9453125 C-2.99249062 21.17189171 -4.73772527 19.52454947 -6 17 C-6.20800287 6.94157557 -6.20800287 6.94157557 -3.81640625 3.09765625 C-2.4375 1.75 -2.4375 1.75 0 0 Z " fill="#161616" transform="translate(195,244)"/>
<path d="M0 0 C0.99 0.33 1.98 0.66 3 1 C1.17778624 7.61242722 -1.05223604 13.80520671 -4 20 C-5.13888672 19.98259766 -5.13888672 19.98259766 -6.30078125 19.96484375 C-7.29464844 19.95582031 -8.28851563 19.94679688 -9.3125 19.9375 C-10.29863281 19.92589844 -11.28476562 19.91429687 -12.30078125 19.90234375 C-15.09963849 19.87670138 -15.09963849 19.87670138 -18 21 C-19.20882096 23.00016466 -19.20882096 23.00016466 -20 25 C-19.63652803 18.57866184 -19.63652803 18.57866184 -16.9375 16.125 C-14.21581328 15.0826519 -12.81295139 14.93880986 -10 14.875 C-7.14043408 14.62634209 -6.29271732 14.34665786 -4.41015625 12.1171875 C-2.14423733 8.13705165 -0.76235778 4.52599774 0 0 Z " fill="#101010" transform="translate(368,249)"/>
<path d="M0 0 C0.33 0 0.66 0 1 0 C1.62467866 8.12082262 1.62467866 8.12082262 -0.6875 11.375 C-1.450625 11.91125 -2.21375 12.4475 -3 13 C-3.7425 13.5775 -4.485 14.155 -5.25 14.75 C-9.13081421 16.51400646 -11.73892526 16.33818053 -16 16 C-18.5 15 -18.5 15 -20 14 C-20 12.35 -20 10.7 -20 9 C-19.525625 9.515625 -19.05125 10.03125 -18.5625 10.5625 C-14.69541164 12.73184225 -11.23523359 11.8423669 -7 11 C-6.01 10.67 -5.02 10.34 -4 10 C-3.896875 9.278125 -3.79375 8.55625 -3.6875 7.8125 C-2.93659472 4.74061475 -1.78158272 2.59814146 0 0 Z " fill="#141414" transform="translate(290,270)"/>
<path d="M0 0 C2 4 2 4 2.6875 6.09375 C3.89568588 8.31462728 3.89568588 8.31462728 6.8203125 8.609375 C7.91085937 8.65578125 9.00140625 8.7021875 10.125 8.75 C11.76855469 8.83507812 11.76855469 8.83507812 13.4453125 8.921875 C14.28835938 8.94765625 15.13140625 8.9734375 16 9 C16 6.36 16 3.72 16 1 C16.66 1 17.32 1 18 1 C18 4.63 18 8.26 18 12 C15.5821288 12.10826289 13.16912444 12.18739789 10.75 12.25 C9.72712891 12.30027344 9.72712891 12.30027344 8.68359375 12.3515625 C5.24629982 12.41830607 3.35214689 12.25504141 0.53515625 10.21484375 C-1.63275803 7.08708956 -1.35009882 4.71104751 -1 1 C-0.67 0.67 -0.34 0.34 0 0 Z " fill="#181818" transform="translate(350,269)"/>
<path d="M0 0 C0.33 0.99 0.66 1.98 1 3 C-0.24716797 3.05607422 -0.24716797 3.05607422 -1.51953125 3.11328125 C-2.60621094 3.17902344 -3.69289062 3.24476563 -4.8125 3.3125 C-6.43091797 3.39951172 -6.43091797 3.39951172 -8.08203125 3.48828125 C-10.96311696 3.7828754 -10.96311696 3.7828754 -12.84375 5.28125 C-14.22136717 7.3290593 -14.48681783 8.73917755 -14.6875 11.1875 C-14.790625 12.445625 -14.89375 13.70375 -15 15 C-15.99 14.34 -16.98 13.68 -18 13 C-18.8924831 8.05077555 -18.8924831 8.05077555 -18 5 C-13.14781155 -0.50966656 -6.86203406 -0.63276953 0 0 Z " fill="#1A1A1A" transform="translate(232,193)"/>
<path d="M0 0 C1.32 0 2.64 0 4 0 C3.25 6.625 3.25 6.625 1 10 C-1.625 10.1875 -1.625 10.1875 -4 10 C-5.85776765 6.86501708 -6.20140476 4.62528568 -6 1 C-5.01 1 -4.02 1 -3 1 C-2.814375 2.2065625 -2.814375 2.2065625 -2.625 3.4375 C-2.41875 4.283125 -2.2125 5.12875 -2 6 C-1.34 6.33 -0.68 6.66 0 7 C0 4.69 0 2.38 0 0 Z " fill="#1D1D1D" transform="translate(294,207)"/>
<path d="M0 0 C13.365 0.495 13.365 0.495 27 1 C27 1.66 27 2.32 27 3 C18.42 3 9.84 3 1 3 C0.67 2.01 0.34 1.02 0 0 Z " fill="#0A0A0A" transform="translate(219,228)"/>
<path d="M0 0 C0.99 0.33 1.98 0.66 3 1 C3.06058594 2.31355469 3.12117187 3.62710938 3.18359375 4.98046875 C3.26803256 6.71615541 3.35267888 8.45183198 3.4375 10.1875 C3.47681641 11.05181641 3.51613281 11.91613281 3.55664062 12.80664062 C3.76347016 16.95914122 4.00103531 20.94537862 5 25 C3.0625 24.6875 3.0625 24.6875 1 24 C0.01956036 21.05868109 -0.11621202 19.17498335 -0.09765625 16.11328125 C-0.09443359 15.17548828 -0.09121094 14.23769531 -0.08789062 13.27148438 C-0.07532227 11.80678711 -0.07532227 11.80678711 -0.0625 10.3125 C-0.05798828 9.32443359 -0.05347656 8.33636719 -0.04882812 7.31835938 C-0.03704303 4.87884526 -0.02059011 2.43945311 0 0 Z " fill="#343434" transform="translate(192,202)"/>
<path d="M0 0 C0.33 0 0.66 0 1 0 C1.75650322 6.05202579 -0.66122612 9.27309459 -4 14 C-4.45375 14.68191406 -4.9075 15.36382812 -5.375 16.06640625 C-6.52111938 17.7548857 -7.75412225 19.38372616 -9 21 C-9.66 21 -10.32 21 -11 21 C-11 24.3 -11 27.6 -11 31 C-11.33 31 -11.66 31 -12 31 C-12 27.04 -12 23.08 -12 19 C-11.34 19 -10.68 19 -10 19 C-9.5978125 17.8553125 -9.5978125 17.8553125 -9.1875 16.6875 C-8.01474509 14.03337046 -7.04318638 12.96145892 -5 11 C-2.62490923 7.48486566 -1.22572725 4.05432859 0 0 Z " fill="#212121" transform="translate(380,249)"/>
<path d="M0 0 C0.99 0 1.98 0 3 0 C3.36923077 6.4 3.36923077 6.4 1.5 9.4375 C1.005 9.953125 0.51 10.46875 0 11 C-1.65 10.67 -3.3 10.34 -5 10 C-5.33 7.69 -5.66 5.38 -6 3 C-3 4 -3 4 -1 7 C-0.67 4.69 -0.34 2.38 0 0 Z " fill="#191919" transform="translate(263,221)"/>
<path d="M0 0 C1.08828929 3.26486787 0.89901381 4.36990083 0.125 7.625 C-0.05804688 8.42164063 -0.24109375 9.21828125 -0.4296875 10.0390625 C-1 12 -1 12 -2 13 C-2.15620555 14.41327947 -2.25056173 15.8335459 -2.31640625 17.25390625 C-2.35830078 18.10791016 -2.40019531 18.96191406 -2.44335938 19.84179688 C-2.48267578 20.73962891 -2.52199219 21.63746094 -2.5625 22.5625 C-2.60568359 23.46419922 -2.64886719 24.36589844 -2.69335938 25.29492188 C-2.79978142 27.52978485 -2.90179988 29.76476308 -3 32 C-3.33 32 -3.66 32 -4 32 C-4.05819473 27.93756043 -4.09366215 23.87522854 -4.125 19.8125 C-4.14175781 18.66201172 -4.15851563 17.51152344 -4.17578125 16.32617188 C-4.18222656 15.21435547 -4.18867188 14.10253906 -4.1953125 12.95703125 C-4.20578613 11.93585205 -4.21625977 10.91467285 -4.22705078 9.86254883 C-3.89826187 5.71733382 -2.94990272 2.94990272 0 0 Z " fill="#0F0F0F" transform="translate(197,190)"/>
<path d="M0 0 C0.99 0 1.98 0 3 0 C3.33 2.31 3.66 4.62 4 7 C4.66 5.68 5.32 4.36 6 3 C6.99 3.33 7.98 3.66 9 4 C8.67 5.98 8.34 7.96 8 10 C5.6875 10.25 5.6875 10.25 3 10 C0.34684029 7.62130509 0.01896655 6.32875347 -0.1875 2.75 C-0.125625 1.8425 -0.06375 0.935 0 0 Z " fill="#1D1D1D" transform="translate(362,192)"/>
<path d="M0 0 C0.99 0 1.98 0 3 0 C3.33 1.32 3.66 2.64 4 4 C4.33 3.01 4.66 2.02 5 1 C5.99 1 6.98 1 8 1 C7.125 6.75 7.125 6.75 6 9 C4.35 9 2.7 9 1 9 C0.67 6.03 0.34 3.06 0 0 Z " fill="#232323" transform="translate(423,209)"/>
<path d="M0 0 C0.99 0 1.98 0 3 0 C2.125 6.75 2.125 6.75 1 9 C-0.66611905 9.042721 -2.33382885 9.04063832 -4 9 C-5 8 -5 8 -5.0625 4.9375 C-5.041875 3.968125 -5.02125 2.99875 -5 2 C-4.01 2 -3.02 2 -2 2 C-1.67 2.66 -1.34 3.32 -1 4 C-0.67 2.68 -0.34 1.36 0 0 Z " fill="#262626" transform="translate(381,199)"/>
<path d="M0 0 C-1.98 0.99 -1.98 0.99 -4 2 C-2.68 2.66 -1.36 3.32 0 4 C-1.97854258 4.19397476 -3.9578648 4.38001321 -5.9375 4.5625 C-7.59072266 4.71912109 -7.59072266 4.71912109 -9.27734375 4.87890625 C-10.17582031 4.91886719 -11.07429687 4.95882813 -12 5 C-12.33 4.67 -12.66 4.34 -13 4 C-15.32817964 3.63239269 -17.6618385 3.29758419 -20 3 C-20 2.67 -20 2.34 -20 2 C-17.60468244 1.66254646 -15.20885732 1.3299171 -12.8125 1 C-11.80219727 0.85691406 -11.80219727 0.85691406 -10.77148438 0.7109375 C-7.15335423 0.21675387 -3.65203599 -0.11346131 0 0 Z " fill="#424242" transform="translate(228,255)"/>
<path d="M0 0 C0.99 0 1.98 0 3 0 C2.125 6.875 2.125 6.875 1 8 C-0.66617115 8.04063832 -2.33388095 8.042721 -4 8 C-4.66 6.02 -5.32 4.04 -6 2 C-4.68 2 -3.36 2 -2 2 C-1.67 2.66 -1.34 3.32 -1 4 C-0.67 2.68 -0.34 1.36 0 0 Z " fill="#1E1E1E" transform="translate(203,206)"/>
<path d="M0 0 C0.33 0 0.66 0 1 0 C1.22424141 7.36259293 0.90120099 13.87049629 -1 21 C-1.99 20.67 -2.98 20.34 -4 20 C-3.4140625 13.84765625 -3.4140625 13.84765625 -3 12 C-2.34 11.67 -1.68 11.34 -1 11 C-0.5316735 8.41394668 -0.5316735 8.41394668 -0.375 5.4375 C-0.30023438 4.42558594 -0.22546875 3.41367188 -0.1484375 2.37109375 C-0.09945313 1.58863281 -0.05046875 0.80617187 0 0 Z " fill="#272727" transform="translate(436,203)"/>
<path d="M0 0 C0 0.33 0 0.66 0 1 C-2.31 1.33 -4.62 1.66 -7 2 C-5.35 2.33 -3.7 2.66 -2 3 C-2 3.33 -2 3.66 -2 4 C-2.69867188 4.09796875 -3.39734375 4.1959375 -4.1171875 4.296875 C-5.02726562 4.44640625 -5.93734375 4.5959375 -6.875 4.75 C-7.77992188 4.88921875 -8.68484375 5.0284375 -9.6171875 5.171875 C-12.16214243 5.77983843 -12.16214243 5.77983843 -13.3203125 8.078125 C-13.54460937 8.71234375 -13.76890625 9.3465625 -14 10 C-13.63768116 3.59903382 -13.63768116 3.59903382 -10.9375 1.0625 C-7.07163509 -0.33579156 -4.09806991 -0.20837644 0 0 Z " fill="#4A4A4A" transform="translate(362,264)"/>
<path d="M0 0 C0.99 0.33 1.98 0.66 3 1 C2.57316761 2.58624235 2.13303842 4.1689098 1.6875 5.75 C1.44386719 6.63171875 1.20023437 7.5134375 0.94921875 8.421875 C-0.02125331 11.05772505 -1.21005644 12.85407326 -3 15 C-3.66 14.67 -4.32 14.34 -5 14 C-4.731875 13.360625 -4.46375 12.72125 -4.1875 12.0625 C-2.64635858 8.08797739 -1.32390688 4.05115505 0 0 Z " fill="#2A2A2A" transform="translate(368,249)"/>
<path d="M0 0 C2.97 0.495 2.97 0.495 6 1 C6 3.31 6 5.62 6 8 C5.01 8.495 5.01 8.495 4 9 C3.67 7.35 3.34 5.7 3 4 C1.35 3.67 -0.3 3.34 -2 3 C-1.34 2.01 -0.68 1.02 0 0 Z " fill="#121212" transform="translate(424,167)"/>
<path d="M0 0 C0.80566406 0.07863281 1.61132812 0.15726562 2.44140625 0.23828125 C3.42947266 0.46064453 3.42947266 0.46064453 4.4375 0.6875 C4.7675 1.3475 5.0975 2.0075 5.4375 2.6875 C2.4675 2.6875 -0.5025 2.6875 -3.5625 2.6875 C-3.8925 3.6775 -4.2225 4.6675 -4.5625 5.6875 C-6.5625 2.6875 -6.5625 2.6875 -6.5625 0.6875 C-4.07849398 -0.55450301 -2.74042364 -0.29471651 0 0 Z " fill="#0F0F0F" transform="translate(210.5625,257.3125)"/>
<path d="M0 0 C0.99 0 1.98 0 3 0 C3 2.31 3 4.62 3 7 C2.01 7 1.02 7 0 7 C0 4.69 0 2.38 0 0 Z " fill="#262626" transform="translate(263,221)"/>
<path d="M0 0 C0.33 0 0.66 0 1 0 C1.34833144 4.87664009 0.41685712 7.77050005 -2 12 C-2.66 10.68 -3.32 9.36 -4 8 C-3.525625 7.608125 -3.05125 7.21625 -2.5625 6.8125 C-0.64820367 4.59191626 -0.38733012 2.86624291 0 0 Z " fill="#3D3D3D" transform="translate(380,249)"/>
<path d="M0 0 C0.99 0 1.98 0 3 0 C3.33 1.65 3.66 3.3 4 5 C2.68 4.67 1.36 4.34 0 4 C0 2.68 0 1.36 0 0 Z " fill="#212121" transform="translate(193,222)"/>
<path d="M0 0 C0 0.99 0 1.98 0 3 C-2.64 3 -5.28 3 -8 3 C-7.67 2.34 -7.34 1.68 -7 1 C-4.61370553 0.38812962 -2.46459429 0 0 0 Z " fill="#121212" transform="translate(241,215)"/>
</svg>
