<?xml version="1.0" encoding="UTF-8"?>
<svg version="1.1" xmlns="http://www.w3.org/2000/svg" width="800" height="300">
<path d="M0 0 C264 0 528 0 800 0 C800 99 800 198 800 300 C536 300 272 300 0 300 C0 201 0 102 0 0 Z " fill="#FEFEFE" transform="translate(0,0)"/>
<path d="M0 0 C4.80436782 -0.38434943 8.09024857 -0.47968712 12.4375 1.8125 C15 4 15 4 17 7 C17.125 10.1875 17.125 10.1875 17 13 C16.773125 12.443125 16.54625 11.88625 16.3125 11.3125 C14.5465145 8.20100174 12.79958693 6.25184166 10 4 C7.26715505 3.30031057 4.84202784 3.14450989 2 3 C0.17144572 7.59232335 -0.12514462 10.97358268 0.375 15.875 C0.48585937 17.02742188 0.59671875 18.17984375 0.7109375 19.3671875 C0.80632812 20.23601562 0.90171875 21.10484375 1 22 C-0.258125 22.28875 -1.51625 22.5775 -2.8125 22.875 C-9.57698287 25.12269209 -14.17701282 29.92565192 -19 35 C-19.52335938 35.54398438 -20.04671875 36.08796875 -20.5859375 36.6484375 C-24.86616643 42.38576564 -23.55943365 51.24586205 -23 58 C-22.37349201 61.22892578 -21.32570846 63.99999043 -20 67 C-19.62488281 68.0003125 -19.24976563 69.000625 -18.86328125 70.03125 C-16.00684678 77.45617747 -13.64614579 81.56923614 -7 86 C-5.0212616 86.4311386 -3.02335142 86.77707052 -1.01953125 87.0703125 C0.14384766 87.24433594 1.30722656 87.41835937 2.50585938 87.59765625 C4.32827148 87.85869141 4.32827148 87.85869141 6.1875 88.125 C7.41404297 88.30675781 8.64058594 88.48851562 9.90429688 88.67578125 C12.93527203 89.123941 15.96710493 89.56505607 19 90 C19.33 90.99 19.66 91.98 20 93 C19.10474609 93.26683594 19.10474609 93.26683594 18.19140625 93.5390625 C14.95230818 95.69846121 14.26018761 98.87128494 12.9375 102.375 C11.2261525 106.50025838 10.0052493 109.33639487 6.20703125 111.84375 C3.46730404 112.79921629 0.85137552 113.48239362 -2 114 C-3.485 114.495 -3.485 114.495 -5 115 C-4.93993922 116.45947705 -4.8511311 117.91779272 -4.75 119.375 C-4.70359375 120.18710937 -4.6571875 120.99921875 -4.609375 121.8359375 C-4.20348362 124.11588172 -4.20348362 124.11588172 -2.30078125 125.27734375 C0.42966371 126.1349538 2.70260601 126.23030113 5.5625 126.1875 C6.51253906 126.18105469 7.46257812 126.17460937 8.44140625 126.16796875 C11.1204942 126.10061434 11.1204942 126.10061434 14 125 C13.01 120.05 13.01 120.05 12 115 C13.19625 114.195625 14.3925 113.39125 15.625 112.5625 C19.63576355 109.57214273 22.06672643 106.35142884 24.6796875 102.125 C26.2601082 99.58136432 28.07726086 97.29249667 30 95 C31.8125 95.171875 31.8125 95.171875 34 96 C35.5625 98.328125 35.5625 98.328125 37 101.25 C39.70129673 106.49609517 42.01055399 110.67370266 47 114 C47 114.99 47 115.98 47 117 C45.35 117.66 43.7 118.32 42 119 C42 120.65 42 122.3 42 124 C48.71150362 124.61888865 52.91797659 124.14247628 58.40625 120.09375 C60 119 60 119 62 119 C62 118.34 62 117.68 62 117 C62.66 117 63.32 117 64 117 C63.67 116.01 63.34 115.02 63 114 C60.70370006 112.85185003 58.92301914 112.69230191 56.375 112.4375 C55.14910156 112.31181641 55.14910156 112.31181641 53.8984375 112.18359375 C53.27195312 112.12300781 52.64546875 112.06242187 52 112 C51.608125 110.9275 51.21625 109.855 50.8125 108.75 C49.03313309 103.99083203 47.06328071 99.31643102 45.0859375 94.63671875 C44.32299233 92.78424396 43.63354149 90.90062446 43 89 C43.33 88.34 43.66 87.68 44 87 C47.24998112 86.97090237 50.49992857 86.95316839 53.75 86.9375 C54.67039062 86.92912109 55.59078125 86.92074219 56.5390625 86.91210938 C57.87324219 86.90727539 57.87324219 86.90727539 59.234375 86.90234375 C60.05131836 86.89710693 60.86826172 86.89187012 61.70996094 86.88647461 C64 87 64 87 65.92749023 87.48632812 C68.61136734 88.15152749 71.16252811 88.2197147 73.92578125 88.31640625 C75.10333984 88.35846191 76.28089844 88.40051758 77.49414062 88.44384766 C78.75419922 88.48300293 80.01425781 88.5221582 81.3125 88.5625 C83.2625293 88.6251001 83.2625293 88.6251001 85.25195312 88.68896484 C108.23865646 89.37879119 131.08378178 88.99826022 154 87 C154.33 88.32 154.66 89.64 155 91 C154.34 91 153.68 91 153 91 C152.62875 92.06734375 152.62875 92.06734375 152.25 93.15625 C150.4120386 97.33761217 147.63599459 100.66759531 144.875 104.28125 C143.12672215 106.81625288 142.00733417 109.10391425 141 112 C140.37351562 112.04898438 139.74703125 112.09796875 139.1015625 112.1484375 C137.87566406 112.26058594 137.87566406 112.26058594 136.625 112.375 C135.81289063 112.44460938 135.00078125 112.51421875 134.1640625 112.5859375 C131.79665809 112.82892588 131.79665809 112.82892588 130 115 C130 115.99 130 116.98 130 118 C131.72290605 118.70304222 133.45367466 119.38683491 135.1875 120.0625 C136.15042969 120.44535156 137.11335937 120.82820313 138.10546875 121.22265625 C141.20934675 122.05622133 142.94919117 121.88679818 146 121 C146 117.88742431 145.82638376 115.89234315 145 113 C145.825 112.54625 146.65 112.0925 147.5 111.625 C153.66153307 107.53198161 158.56896106 100.93342229 161 94 C164.73114155 95.24371385 165.38510331 96.60048718 167.5625 99.8125 C168.16191406 100.68519531 168.76132812 101.55789063 169.37890625 102.45703125 C171 105 171 105 172.08203125 107.24609375 C173.28311403 109.5409285 174.64385328 110.05754131 177 111 C176.319375 111.515625 175.63875 112.03125 174.9375 112.5625 C172.57571378 114.97254504 172.57571378 114.97254504 173.25 118.75 C173.62125 120.35875 173.62125 120.35875 174 122 C176.75706416 122.86382428 176.75706416 122.86382428 180 123 C182.75503458 121.3293081 182.75503458 121.3293081 185 119 C185.598125 118.566875 186.19625 118.13375 186.8125 117.6875 C188.73503334 114.95547893 188.18260931 112.2260978 188 109 C187.31292969 108.98582031 186.62585938 108.97164063 185.91796875 108.95703125 C183.19987372 108.81315498 180.6587572 108.58940087 178 108 C176.0625 105.75 176.0625 105.75 175 103 C174.505 102.278125 174.01 101.55625 173.5 100.8125 C171.33033377 96.74437583 170.21366679 92.43289642 169 88 C171.86894172 87.20924385 174.59876987 86.80174675 177.5625 86.5625 C190.96881886 85.27723344 199.52132276 83.40420256 208.625 73 C209.40875 72.01 210.1925 71.02 211 70 C211.53367187 69.3296875 212.06734375 68.659375 212.6171875 67.96875 C214.68437544 63.53071939 214.53061131 59.34107717 214.5 54.5 C214.49718018 53.5205542 214.49436035 52.5411084 214.49145508 51.53198242 C214.31247181 43.47108168 213.39547144 34.33370837 207.33203125 28.35546875 C206 27 206 27 206 24 C205.34 23.67 204.68 23.34 204 23 C204.99 21.515 204.99 21.515 206 20 C206.16713569 17.37468476 206.16713569 17.37468476 206 15 C204.02 15 202.04 15 200 15 C199.34 16.98 198.68 18.96 198 21 C197.34 21 196.68 21 196 21 C196 20.34 196 19.68 196 19 C195.34 19.33 194.68 19.66 194 20 C192.25840525 19.93350442 190.51936325 19.79458729 188.78515625 19.62109375 C184.16968188 19.19125148 179.56017399 18.82372554 174.93359375 18.53515625 C173.1079187 18.41986572 173.1079187 18.41986572 171.24536133 18.30224609 C169.36046997 18.18357178 169.36046997 18.18357178 167.4375 18.0625 C159.03405322 17.53135026 150.67094468 16.90906328 142.3125 15.875 C124.36022331 13.80343184 106.10456138 14.84861886 88.0909729 15.63879395 C86.36902984 15.71270074 84.64682227 15.78069123 82.92440796 15.84265137 C80.50035007 15.93297178 78.07884038 16.04884382 75.65625 16.171875 C74.92622269 16.19499756 74.19619537 16.21812012 73.44404602 16.24194336 C69.27465761 16.47388921 69.27465761 16.47388921 66.14648438 19.05175781 C65.57897461 20.0161377 65.57897461 20.0161377 65 21 C64.34 21 63.68 21 63 21 C63.10699219 20.26394531 63.21398437 19.52789062 63.32421875 18.76953125 C64.12452821 12.7606363 64.12452821 12.7606363 62.875 6.9375 C59.84463757 3.80612548 57.1642904 3.19008823 52.9375 2.5 C49.72563798 2.73112284 49.72563798 2.73112284 47.5625 5.75 C45.75099645 8.75491319 45.75099645 8.75491319 46.3125 11.3125 C46.539375 11.869375 46.76625 12.42625 47 13 C46 14 46 14 43.49975586 14.11352539 C42.41573486 14.10828857 41.33171387 14.10305176 40.21484375 14.09765625 C39.04501953 14.09443359 37.87519531 14.09121094 36.66992188 14.08789062 C35.43822266 14.07951172 34.20652344 14.07113281 32.9375 14.0625 C31.08415039 14.05573242 31.08415039 14.05573242 29.19335938 14.04882812 C26.12885883 14.03699608 23.06445279 14.02051173 20 14 C22.93261364 11.46755376 24.67444168 10.62853598 28.546875 10.70703125 C29.39121094 10.71669922 30.23554688 10.72636719 31.10546875 10.73632812 C32.41451172 10.7740332 32.41451172 10.7740332 33.75 10.8125 C34.63816406 10.82603516 35.52632812 10.83957031 36.44140625 10.85351562 C38.62822578 10.88878691 40.81379966 10.93807248 43 11 C43.13664062 10.06929687 43.27328125 9.13859375 43.4140625 8.1796875 C44.15552124 4.15603809 44.79498103 2.59453917 48 0 C53.33777445 -1.04894458 58.38751386 -0.89374123 63.0625 2.0625 C66.53209532 4.58198609 67.00907268 7.97465411 68 12 C82.54124087 12.13997154 82.54124087 12.13997154 97.0625 11.5 C104.74716026 10.96656635 112.42312525 10.85322642 120.125 10.8125 C121.84021851 10.79316406 121.84021851 10.79316406 123.59008789 10.7734375 C130.89963672 10.76508313 137.88355453 11.44789344 145.11230469 12.4987793 C152.59728802 13.46377997 160.13519779 13.7307424 167.66870117 14.10449219 C169.75991253 14.21035172 171.85066889 14.3226814 173.94140625 14.4375 C174.61611969 14.47190186 175.29083313 14.50630371 175.98599243 14.54174805 C181.8138795 14.88297674 187.41056641 15.87233385 193.12475586 17.0859375 C194.07358643 17.05757812 195.02241699 17.02921875 196 17 C198.19590634 14.61429075 198.19590634 14.61429075 200 12 C203.625 11.5625 203.625 11.5625 207 12 C209 14 209 14 209.0546875 16.4609375 C208.96574219 17.90339844 208.96574219 17.90339844 208.875 19.375 C208.61636061 23.64016787 208.61636061 23.64016787 210.8125 27.0625 C211.534375 27.701875 212.25625 28.34125 213 29 C213.92997476 31.52481836 214.62287293 34.05417939 215.2890625 36.66015625 C215.94861561 39.23584574 215.94861561 39.23584574 218 42 C218.5177571 45.85729039 218.46283645 49.73676407 218.5 53.625 C218.54125 54.68074219 218.5825 55.73648438 218.625 56.82421875 C218.70207186 64.59884279 217.0079817 69.08779939 212 75 C211.27296875 75.88171875 210.5459375 76.7634375 209.796875 77.671875 C199.49485738 88.13117533 189.06960824 90.11485641 175 92 C176.29058356 95.93660413 177.66577671 99.56037442 180 103 C182.48989122 103.94624588 184.26835111 104.01947571 186.9140625 103.875 C189 104 189 104 190.734375 105.203125 C192.83266447 108.18217795 192.6480157 110.8741248 192.5546875 114.42578125 C191.57558179 118.96965917 188.53500932 121.23347097 185 124 C184.34 124.639375 183.68 125.27875 183 125.9375 C179.7786426 127.64884612 177.57206274 127.56400991 174 127 C170.99805812 124.44515585 169.2809595 122.8802674 168.6953125 118.9609375 C168.68786097 116.97137835 168.84006978 114.98313476 169 113 C169 108.86356447 168.84767359 108.30197567 166.5 105.25 C166.0359375 104.63640625 165.571875 104.0228125 165.09375 103.390625 C164.7328125 102.93171875 164.371875 102.4728125 164 102 C158.37119511 104.34210042 154.38892175 109.05659458 151 114 C150.52392574 116.93406636 150.94936088 118.15709415 152 121 C146.46310575 125.83005668 146.46310575 125.83005668 142.84765625 126.25 C137.07385064 125.76293028 132.12180913 123.6032836 127 121 C126.69504492 117.11182268 126.70766055 114.5973893 128.4375 111.0625 C132.14857783 108.07553492 135.40861439 108.55852061 140 109 C140.24492187 108.30519531 140.48984375 107.61039062 140.7421875 106.89453125 C142.20250025 103.53399786 144.06281778 100.71425133 146.125 97.6875 C146.84945312 96.61886719 147.57390625 95.55023438 148.3203125 94.44921875 C149.15175781 93.23685547 149.15175781 93.23685547 150 92 C148.40865234 92.10828125 148.40865234 92.10828125 146.78515625 92.21875 C123.89635371 93.63559184 100.93628957 93.26294432 78.03466797 92.3581543 C68.35089396 91.98067891 58.68962294 91.891399 49 92 C49.41572266 93.12148437 49.41572266 93.12148437 49.83984375 94.265625 C50.20207031 95.25046875 50.56429687 96.2353125 50.9375 97.25 C51.47697266 98.71179688 51.47697266 98.71179688 52.02734375 100.203125 C52.81379655 102.46457161 53.47251601 104.66796552 54 107 C54.88751953 107.12955078 54.88751953 107.12955078 55.79296875 107.26171875 C61.27081776 108.23575715 64.54739505 109.32227717 68 114 C68 118 68 118 66.56640625 119.52734375 C64.39737902 121.05369624 62.22337701 122.55351013 60 124 C58.88431641 124.74056641 58.88431641 124.74056641 57.74609375 125.49609375 C52.55454366 128.68325406 49.07504587 129.62845302 43 129 C40 128 40 128 38 125 C37.69921875 123.0625 37.69921875 123.0625 37.6875 121 C37.66236328 119.9790625 37.66236328 119.9790625 37.63671875 118.9375 C38.09834658 116.47548493 39.11898959 115.58818821 41 114 C39.73253547 112.2267539 38.46089765 110.45649025 37.1875 108.6875 C36.12595703 107.20830078 36.12595703 107.20830078 35.04296875 105.69921875 C33.45369163 103.59942813 31.92542371 101.77965031 30 100 C29.73832031 100.56847656 29.47664063 101.13695312 29.20703125 101.72265625 C25.94282612 107.88133453 21.05732093 113.24918337 16 118 C16.33 118.33 16.66 118.66 17 119 C17.34428787 122.00022282 17.57410078 124.10135391 17 127 C13.87276988 130.2074155 11.06180763 131.26320527 6.6875 131.5625 C1.30299804 131.34309754 -4.16009168 128.83990832 -8 125 C-8.43120906 121.61808892 -8.45424433 118.37979409 -8 115 C-5.83338877 112.25562577 -3.98139472 111.29066266 -0.65234375 110.3046875 C3.76211648 108.93307542 6.29049881 108.05285418 8.9453125 104.11328125 C10.41556955 101.11239428 11.7328279 98.09077771 13 95 C13.33 94.67 13.66 94.34 14 94 C13.06317383 93.85751831 13.06317383 93.85751831 12.10742188 93.7121582 C9.23500407 93.26433955 6.36785177 92.78865096 3.5 92.3125 C2.51773438 92.16361328 1.53546875 92.01472656 0.5234375 91.86132812 C-6.91189334 90.59732188 -12.92760136 88.62305258 -17.91796875 82.73828125 C-24.08359964 70.95718346 -29.06287288 56.41813641 -27 43 C-26.03162557 40.02605822 -24.72365932 37.59737628 -23 35 C-22.38125 33.9275 -21.7625 32.855 -21.125 31.75 C-18.71207116 28.62738621 -16.33309773 27.09135544 -13 25 C-11.2011281 23.45866724 -9.44794045 21.88013258 -7.7109375 20.26953125 C-5.81635664 18.86373495 -4.30338465 18.4174256 -2 18 C-2.33 17.01 -2.66 16.02 -3 15 C-3.40013509 8.99797364 -2.68407013 5.36814025 0 0 Z " fill="#151515" transform="translate(188,156)"/>
<path d="M0 0 C4.09540952 0.71149064 7.2325768 2.12030277 9.765625 5.48046875 C10.50798056 7.79083606 11.18555643 10.12411365 11.765625 12.48046875 C26.30686587 12.62044029 26.30686587 12.62044029 40.828125 11.98046875 C48.51278526 11.4470351 56.18875025 11.33369517 63.890625 11.29296875 C65.60584351 11.27363281 65.60584351 11.27363281 67.35571289 11.25390625 C74.64453238 11.24557558 81.6082666 11.92253651 88.81640625 12.97045898 C95.91801637 13.88757468 103.05648037 14.21805246 110.203125 14.60546875 C111.72463902 14.69218969 113.24612371 14.77942697 114.76757812 14.8671875 C118.43327669 15.07753556 122.09931598 15.28100717 125.765625 15.48046875 C125.765625 15.81046875 125.765625 16.14046875 125.765625 16.48046875 C122.795625 16.48046875 119.825625 16.48046875 116.765625 16.48046875 C116.765625 17.14046875 116.765625 17.80046875 116.765625 18.48046875 C109.95405505 18.69207512 103.36122976 18.1902499 96.59570312 17.4128418 C80.93979787 15.61614609 65.52831171 14.9800969 49.765625 15.48046875 C48.99476563 15.50345032 48.22390625 15.52643188 47.4296875 15.55010986 C42.24075516 15.70705372 37.05415253 15.89625447 31.86767578 16.12026978 C30.14101584 16.19339523 28.41411153 16.26097352 26.68701172 16.32284546 C24.26395082 16.41317011 21.8434589 16.5291403 19.421875 16.65234375 C18.32691711 16.68703514 18.32691711 16.68703514 17.20983887 16.72242737 C13.04035858 16.95432405 13.04035858 16.95432405 9.91210938 19.53222656 C9.34459961 20.49660645 9.34459961 20.49660645 8.765625 21.48046875 C8.105625 21.48046875 7.445625 21.48046875 6.765625 21.48046875 C6.87261719 20.74441406 6.97960937 20.00835937 7.08984375 19.25 C7.89015321 13.24110505 7.89015321 13.24110505 6.640625 7.41796875 C3.61026257 4.28659423 0.9299154 3.67055698 -3.296875 2.98046875 C-6.50873702 3.21159159 -6.50873702 3.21159159 -8.671875 6.23046875 C-10.48337855 9.23538194 -10.48337855 9.23538194 -9.921875 11.79296875 C-9.5815625 12.62828125 -9.5815625 12.62828125 -9.234375 13.48046875 C-10.234375 14.48046875 -10.234375 14.48046875 -12.73461914 14.59399414 C-13.81864014 14.58875732 -14.90266113 14.58352051 -16.01953125 14.578125 C-17.18935547 14.57490234 -18.35917969 14.57167969 -19.56445312 14.56835938 C-21.41200195 14.55579102 -21.41200195 14.55579102 -23.296875 14.54296875 C-25.15022461 14.53620117 -25.15022461 14.53620117 -27.04101562 14.52929688 C-30.10551617 14.51746483 -33.16992221 14.50098048 -36.234375 14.48046875 C-33.30176136 11.94802251 -31.55993332 11.10900473 -27.6875 11.1875 C-26.84316406 11.19716797 -25.99882812 11.20683594 -25.12890625 11.21679688 C-23.81986328 11.25450195 -23.81986328 11.25450195 -22.484375 11.29296875 C-21.59621094 11.30650391 -20.70804688 11.32003906 -19.79296875 11.33398438 C-17.60614922 11.36925566 -15.42057534 11.41854123 -13.234375 11.48046875 C-13.09773438 10.54976562 -12.96109375 9.6190625 -12.8203125 8.66015625 C-11.37192876 0.8002605 -7.35059376 -0.36359889 0 0 Z " fill="#252525" transform="translate(244.234375,155.51953125)"/>
<path d="M0 0 C4.22225195 0.72159956 7.13721008 2.02581273 9.765625 5.47265625 C10.90242988 8.53486038 11.32589435 11.19910588 11.765625 14.47265625 C17.705625 14.47265625 23.645625 14.47265625 29.765625 14.47265625 C29.765625 14.80265625 29.765625 15.13265625 29.765625 15.47265625 C23.825625 15.47265625 17.885625 15.47265625 11.765625 15.47265625 C11.105625 17.12265625 10.445625 18.77265625 9.765625 20.47265625 C8.775625 20.80265625 7.785625 21.13265625 6.765625 21.47265625 C6.87261719 20.73660156 6.97960937 20.00054687 7.08984375 19.2421875 C7.89015321 13.23329255 7.89015321 13.23329255 6.640625 7.41015625 C3.61026257 4.27878173 0.9299154 3.66274448 -3.296875 2.97265625 C-6.50873702 3.20377909 -6.50873702 3.20377909 -8.671875 6.22265625 C-10.48337855 9.22756944 -10.48337855 9.22756944 -9.921875 11.78515625 C-9.5815625 12.62046875 -9.5815625 12.62046875 -9.234375 13.47265625 C-10.234375 14.47265625 -10.234375 14.47265625 -12.73461914 14.58618164 C-13.81864014 14.58094482 -14.90266113 14.57570801 -16.01953125 14.5703125 C-17.18935547 14.56708984 -18.35917969 14.56386719 -19.56445312 14.56054688 C-21.41200195 14.54797852 -21.41200195 14.54797852 -23.296875 14.53515625 C-25.15022461 14.52838867 -25.15022461 14.52838867 -27.04101562 14.52148438 C-30.10551617 14.50965233 -33.16992221 14.49316798 -36.234375 14.47265625 C-33.30176136 11.94021001 -31.55993332 11.10119223 -27.6875 11.1796875 C-26.84316406 11.18935547 -25.99882812 11.19902344 -25.12890625 11.20898438 C-23.81986328 11.24668945 -23.81986328 11.24668945 -22.484375 11.28515625 C-21.59621094 11.29869141 -20.70804688 11.31222656 -19.79296875 11.32617188 C-17.60614922 11.36144316 -15.42057534 11.41072873 -13.234375 11.47265625 C-13.09773438 10.54195312 -12.96109375 9.61125 -12.8203125 8.65234375 C-11.37303299 0.79844028 -7.35072256 -0.3832596 0 0 Z " fill="#0B0B0B" transform="translate(244.234375,155.52734375)"/>
<path d="M0 0 C4.80436782 -0.38434943 8.09024857 -0.47968712 12.4375 1.8125 C15 4 15 4 17 7 C17.125 10.1875 17.125 10.1875 17 13 C16.773125 12.443125 16.54625 11.88625 16.3125 11.3125 C14.5465145 8.20100174 12.79958693 6.25184166 10 4 C7.26715505 3.30031057 4.84202784 3.14450989 2 3 C0.17144572 7.59232335 -0.12514462 10.97358268 0.375 15.875 C0.48585937 17.02742188 0.59671875 18.17984375 0.7109375 19.3671875 C0.80632812 20.23601562 0.90171875 21.10484375 1 22 C-0.258125 22.28875 -1.51625 22.5775 -2.8125 22.875 C-10.48726098 25.42515792 -17.27093181 31.80181958 -21.625 38.5625 C-23.29104708 42.72761769 -23.7979186 46.54410517 -24 51 C-24.33 51 -24.66 51 -25 51 C-25.144375 50.236875 -25.28875 49.47375 -25.4375 48.6875 C-25.9632594 45.91827092 -25.9632594 45.91827092 -27 43 C-24.33080971 35.31993715 -19.84121458 29.29252679 -13 25 C-11.2011281 23.45866724 -9.44794045 21.88013258 -7.7109375 20.26953125 C-5.81635664 18.86373495 -4.30338465 18.4174256 -2 18 C-2.33 17.01 -2.66 16.02 -3 15 C-3.40013509 8.99797364 -2.68407013 5.36814025 0 0 Z " fill="#171717" transform="translate(188,156)"/>
<path d="M0 0 C0.70189453 0.01353516 1.40378906 0.02707031 2.12695312 0.04101562 C3.85579829 0.07629818 5.58424765 0.13010417 7.3125 0.1875 C4.1029611 2.04645279 1.41479928 2.49106865 -2.25 2.875 C-5.14216998 3.29117951 -5.14216998 3.29117951 -7.6875 4.1875 C-10.4630047 8.31110699 -11.54467026 12.25877102 -10.6875 17.1875 C-8.02972039 20.61939018 -5.95387636 22.42333677 -1.69921875 23.11328125 C-0.25997539 23.26443466 1.18180569 23.39295342 2.625 23.5 C3.36556641 23.57283203 4.10613281 23.64566406 4.86914062 23.72070312 C6.6817851 23.89612033 8.49700541 24.04456447 10.3125 24.1875 C9.9825 25.1775 9.6525 26.1675 9.3125 27.1875 C6.74758544 27.12721999 4.18828243 27.04012053 1.625 26.9375 C0.90376953 26.92332031 0.18253906 26.90914062 -0.56054688 26.89453125 C-5.46159737 26.67073899 -8.16011229 25.87849568 -11.6875 22.1875 C-14.3703048 18.08629387 -14.23149679 13.93510836 -13.6875 9.1875 C-10.7040113 1.51567191 -8.10971414 -0.29531172 0 0 Z " fill="#2F2F2F" transform="translate(198.6875,192.8125)"/>
<path d="M0 0 C2.2421875 -0.328125 2.2421875 -0.328125 4.875 -0.25 C6.17050781 -0.22679687 6.17050781 -0.22679687 7.4921875 -0.203125 C10 0 10 0 11.68115234 0.47924805 C14.9634133 1.21635719 18.2604639 1.35086658 21.609375 1.53515625 C22.69958954 1.59962196 22.69958954 1.59962196 23.81182861 1.66539001 C26.12436122 1.8013162 28.43715666 1.93197891 30.75 2.0625 C32.32163484 2.1539494 33.89324973 2.24574238 35.46484375 2.33789062 C39.30967602 2.5625755 43.15475251 2.78254157 47 3 C47 3.33 47 3.66 47 4 C44.03 4 41.06 4 38 4 C38 4.66 38 5.32 38 6 C29.38869827 6.27720435 20.92380945 5.40875573 12.375 4.5 C10.97530859 4.355003 9.57556919 4.21046844 8.17578125 4.06640625 C4.783356 3.71546571 1.39148585 3.35988674 -2 3 C-1.34 2.01 -0.68 1.02 0 0 Z " fill="#2E2E2E" transform="translate(323,168)"/>
<path d="M0 0 C0.66 0.33 1.32 0.66 2 1 C2 1.66 2 2.32 2 3 C1.34 3 0.68 3 0 3 C-0.66 4.98 -1.32 6.96 -2 9 C-2.66 9 -3.32 9 -4 9 C-4 8.34 -4 7.68 -4 7 C-4.99 7.495 -4.99 7.495 -6 8 C-7.8572818 7.93625554 -9.71236878 7.79985276 -11.5625 7.625 C-13.16544922 7.47611328 -13.16544922 7.47611328 -14.80078125 7.32421875 C-18.8711323 6.91171675 -22.93633901 6.47409378 -27 6 C-27 5.34 -27 4.68 -27 4 C-24.47909222 3.9727633 -21.95848543 3.95304793 -19.4375 3.9375 C-18.38079102 3.92493164 -18.38079102 3.92493164 -17.30273438 3.91210938 C-13.77028374 3.8958308 -10.63241266 4.06225269 -7.125 4.65625 C-5.578125 4.82640625 -5.578125 4.82640625 -4 5 C-1.50789479 2.69931981 -1.50789479 2.69931981 0 0 Z " fill="#0E0E0E" transform="translate(388,168)"/>
<path d="M0 0 C4.45831922 -0.02933699 8.91661318 -0.04691123 13.375 -0.0625 C14.62667969 -0.07087891 15.87835938 -0.07925781 17.16796875 -0.08789062 C24.1800701 -0.10624691 31.04232614 0.09958321 38 1 C38 1.33 38 1.66 38 2 C25.31799345 2.93078947 12.71362727 3.11185009 0 3 C0 2.01 0 1.02 0 0 Z " fill="#515151" transform="translate(256,169)"/>
<path d="M0 0 C0.91120605 0.01047363 1.82241211 0.02094727 2.76123047 0.03173828 C3.74736328 0.03818359 4.73349609 0.04462891 5.74951172 0.05126953 C7.29832031 0.07640625 7.29832031 0.07640625 8.87841797 0.10205078 C9.91869141 0.11107422 10.95896484 0.12009766 12.03076172 0.12939453 C14.60520889 0.15301331 17.17920009 0.18594929 19.75341797 0.22705078 C19.75341797 1.21705078 19.75341797 2.20705078 19.75341797 3.22705078 C17.06584842 3.25425902 14.37855999 3.27398958 11.69091797 3.28955078 C10.93875 3.29792969 10.18658203 3.30630859 9.41162109 3.31494141 C4.74708679 3.3351342 0.35418624 3.00301037 -4.24658203 2.22705078 C-2.24658203 0.22705078 -2.24658203 0.22705078 0 0 Z " fill="#3A3A3A" transform="translate(194.24658203125,226.77294921875)"/>
<path d="M0 0 C0.66 0 1.32 0 2 0 C2.33 2.31 2.66 4.62 3 7 C2.443125 7.14695313 1.88625 7.29390625 1.3125 7.4453125 C-4.77945028 9.23585194 -9.15870791 11.92381674 -14 16 C-11.62798579 11.05655445 -8.71251605 6.94532253 -4 4 C-1.75 3.3125 -1.75 3.3125 0 3 C0 2.01 0 1.02 0 0 Z " fill="#121212" transform="translate(186,171)"/>
<path d="M0 0 C1.26328125 0.02707031 2.5265625 0.05414063 3.828125 0.08203125 C4.79234375 0.11683594 5.7565625 0.15164062 6.75 0.1875 C6.75 0.5175 6.75 0.8475 6.75 1.1875 C9.39 1.5175 12.03 1.8475 14.75 2.1875 C14.75 2.5175 14.75 2.8475 14.75 3.1875 C6.17 3.1875 -2.41 3.1875 -11.25 3.1875 C-6.71532336 -0.21350748 -5.4587218 -0.15163116 0 0 Z " fill="#333333" transform="translate(219.25,166.8125)"/>
<path d="M0 0 C0.66 0 1.32 0 2 0 C2.05399736 1.45792884 2.09279177 2.91642712 2.125 4.375 C2.14820313 5.18710938 2.17140625 5.99921875 2.1953125 6.8359375 C2 9 2 9 0 11 C-2.5 11.3125 -2.5 11.3125 -5 11 C-7.4294516 7.3558226 -7.16179575 5.28758728 -7 1 C-6.34 1 -5.68 1 -5 1 C-4.34 2.98 -3.68 4.96 -3 7 C-2.34 7 -1.68 7 -1 7 C-0.67 4.69 -0.34 2.38 0 0 Z " fill="#0F0F0F" transform="translate(319,215)"/>
<path d="M0 0 C0.99 0 1.98 0 3 0 C3.33 2.31 3.66 4.62 4 7 C4.5534764 4.92446352 5 3.15634036 5 1 C5.99 1 6.98 1 8 1 C8.1953125 7.0546875 8.1953125 7.0546875 8 9 C7.34 9.66 6.68 10.32 6 11 C3.06546739 10.63318342 2.13562754 10.13562754 0 8 C-0.26991906 5.31160615 -0.08737357 2.70858064 0 0 Z " fill="#101010" transform="translate(259,188)"/>
<path d="M0 0 C2.4609375 -0.328125 2.4609375 -0.328125 5.375 -0.25 C6.33148438 -0.23453125 7.28796875 -0.2190625 8.2734375 -0.203125 C10.65092983 -0.02600523 12.72022692 0.33011407 15 1 C14.67 1.99 14.34 2.98 14 4 C8.72 3.67 3.44 3.34 -2 3 C-1.34 2.01 -0.68 1.02 0 0 Z " fill="#303030" transform="translate(194,216)"/>
<path d="M0 0 C0.66 0 1.32 0 2 0 C2.1953125 6.0546875 2.1953125 6.0546875 2 8 C1.34 8.66 0.68 9.32 0 10 C-3.53571429 9.46428571 -3.53571429 9.46428571 -5 8 C-5.04080783 6.00041636 -5.04254356 3.99954746 -5 2 C-4.34 2 -3.68 2 -3 2 C-2.01 3.485 -2.01 3.485 -1 5 C-0.67 3.35 -0.34 1.7 0 0 Z " fill="#111111" transform="translate(250,199)"/>
<path d="M0 0 C2.375 -0.125 2.375 -0.125 5 0 C7 2 7 2 7.25 5.8125 C7.17480324 9.25275166 6.55549361 11.88901279 5 15 C4.67 14.01 4.34 13.02 4 12 C3.34 11.67 2.68 11.34 2 11 C2.66 10.01 3.32 9.02 4 8 C4.16713569 5.37468476 4.16713569 5.37468476 4 3 C2.35 2.67 0.7 2.34 -1 2 C-0.67 1.34 -0.34 0.68 0 0 Z " fill="#050505" transform="translate(390,168)"/>
<path d="M0 0 C0.33 0 0.66 0 1 0 C1.226875 1.051875 1.45375 2.10375 1.6875 3.1875 C2.80130821 7.17461053 4.92289072 9.23849167 8 12 C8.33 12.66 8.66 13.32 9 14 C5.83062828 13.71827807 3.64582019 13.51665615 1.125 11.5 C-0.57333168 7.72592959 -0.235105 4.07515329 0 0 Z " fill="#0E0E0E" transform="translate(186,204)"/>
<path d="M0 0 C0.99 0.33 1.98 0.66 3 1 C3 2.32 3 3.64 3 5 C6.27773504 4.24849977 6.27773504 4.24849977 8 1 C7.67 2.98 7.34 4.96 7 7 C5.35 7.33 3.7 7.66 2 8 C0.23537317 4.91190305 0 3.76687864 0 0 Z " fill="#0F0F0F" transform="translate(383,221)"/>
<path d="M0 0 C0.99 0.33 1.98 0.66 3 1 C3 2.65 3 4.3 3 6 C6.11332248 5.33131686 6.11332248 5.33131686 7.1875 2.9375 C7.455625 2.298125 7.72375 1.65875 8 1 C8.04254356 2.99954746 8.04080783 5.00041636 8 7 C7 8 7 8 4.5625 8.25 C3.716875 8.1675 2.87125 8.085 2 8 C-0.1519437 4.77208445 -0.20086443 3.71599191 0 0 Z " fill="#090909" transform="translate(347,189)"/>
<path d="M0 0 C0.99 0.33 1.98 0.66 3 1 C2.67 1.86625 2.34 2.7325 2 3.625 C1.01268659 6.95718275 0.83579026 9.55159538 1 13 C0.01 13 -0.98 13 -2 13 C-2.16682272 8.07872966 -2.24828052 4.49656104 0 0 Z " fill="#212121" transform="translate(187,158)"/>
<path d="M0 0 C0.80050781 0.12761719 1.60101563 0.25523437 2.42578125 0.38671875 C3.23402344 0.50660156 4.04226563 0.62648437 4.875 0.75 C5.48988281 0.85699219 6.10476563 0.96398437 6.73828125 1.07421875 C5.74828125 1.40421875 4.75828125 1.73421875 3.73828125 2.07421875 C3.73828125 2.73421875 3.73828125 3.39421875 3.73828125 4.07421875 C0.76828125 3.74421875 -2.20171875 3.41421875 -5.26171875 3.07421875 C-2.26171875 0.07421875 -2.26171875 0.07421875 0 0 Z " fill="#3D3D3D" transform="translate(375.26171875,171.92578125)"/>
<path d="M0 0 C-1 2 -1 2 -3.06640625 2.8515625 C-4.30197266 3.23441406 -4.30197266 3.23441406 -5.5625 3.625 C-6.80193359 4.01558594 -6.80193359 4.01558594 -8.06640625 4.4140625 C-8.70449219 4.60742188 -9.34257812 4.80078125 -10 5 C-9 2 -9 2 -7.25 0.8125 C-4.70039426 -0.10819096 -2.69076919 -0.14948718 0 0 Z " fill="#070707" transform="translate(194,265)"/>
<path d="M0 0 C1 3 1 3 0 6 C-0.66 6 -1.32 6 -2 6 C-2 8.31 -2 10.62 -2 13 C-2.33 13 -2.66 13 -3 13 C-3.4726477 4.80743982 -3.4726477 4.80743982 -1.5 1.4375 C-0.7575 0.7259375 -0.7575 0.7259375 0 0 Z " fill="#222222" transform="translate(188,198)"/>
<path d="M0 0 C0.66 0.33 1.32 0.66 2 1 C-0.07143201 5.03384128 -1.96615872 6.92856799 -6 9 C-4.47291037 5.56404834 -2.40072955 2.88087546 0 0 Z " fill="#0A0A0A" transform="translate(178,178)"/>
<path d="M0 0 C0.66 0.66 1.32 1.32 2 2 C1.625 4.625 1.625 4.625 1 7 C-0.5 5.6875 -0.5 5.6875 -2 4 C-2 3.01 -2 2.02 -2 1 C-1.34 0.67 -0.68 0.34 0 0 Z " fill="#DEDEDE" transform="translate(263,189)"/>
<path d="M0 0 C0.99 0.33 1.98 0.66 3 1 C3 2.65 3 4.3 3 6 C2.01 6.495 2.01 6.495 1 7 C0.67 4.69 0.34 2.38 0 0 Z " fill="#2A2A2A" transform="translate(347,189)"/>
</svg>
