<?xml version="1.0" encoding="UTF-8"?>
<svg version="1.1" xmlns="http://www.w3.org/2000/svg" width="800" height="300">
<path d="M0 0 C264 0 528 0 800 0 C800 99 800 198 800 300 C536 300 272 300 0 300 C0 201 0 102 0 0 Z " fill="#FEFEFE" transform="translate(0,0)"/>
<path d="M0 0 C0.7528125 -0.00515625 1.505625 -0.0103125 2.28125 -0.015625 C4.78574692 0.28420914 6.37827333 0.89393991 8.5 2.25 C10.75957408 6.99510556 10.56343511 11.12232863 10.5 16.25 C11.62036652 16.24000725 11.62036652 16.24000725 12.7633667 16.22981262 C80.87141474 15.65054414 80.87141474 15.65054414 109.31152344 18.88769531 C116.64736982 19.72126316 123.99298747 20.42211171 131.375 20.625 C133.22738281 20.69847656 133.22738281 20.69847656 135.1171875 20.7734375 C139.39899421 20.11089466 140.77439922 18.51870942 143.5 15.25 C145.39488952 13.35511048 148.07139146 14.06980888 150.58984375 14.01953125 C152.5 14.25 152.5 14.25 154.5 16.25 C154.51953125 18.7890625 154.51953125 18.7890625 154.3125 21.875 C154.19132372 28.1988872 155.75980588 31.35087249 159.5 36.25 C162.32758973 40.2736118 163.0608983 43.5708408 163.625 48.4375 C164.03820185 52.99823064 164.03820185 52.99823064 165.5 57.25 C165.29825661 59.69431124 165.02957262 62.07524037 164.6875 64.5 C164.51605469 65.80453125 164.34460938 67.1090625 164.16796875 68.453125 C163.09151843 74.57189523 162.02543562 78.61791649 157.01953125 82.6015625 C153.64781948 84.80755067 150.15159647 86.67359098 146.5625 88.5 C145.89460449 88.84144043 145.22670898 89.18288086 144.53857422 89.53466797 C137.8501127 92.80961781 131.53455341 94.54623985 124 94.375 C122.9584375 94.35695313 121.916875 94.33890625 120.84375 94.3203125 C120.0703125 94.29710937 119.296875 94.27390625 118.5 94.25 C119.43188881 95.8574328 120.37074435 97.46082799 121.3125 99.0625 C121.83457031 99.95582031 122.35664063 100.84914063 122.89453125 101.76953125 C125.91965653 106.44338661 128.21423501 107.56305373 133.5 109.25 C135.5 111.25 135.5 111.25 135.65234375 113.421875 C135.12781354 119.71623757 134.1000902 122.86896171 129.5 127.25 C125.83218328 129.69521115 122.76546767 129.97237759 118.5 129.25 C116.06880377 127.37984906 114.85930827 125.96861655 113.5 123.25 C113.23529412 115.04411765 113.23529412 115.04411765 114.5 111.25 C113.1078125 110.0125 113.1078125 110.0125 111.6875 108.75 C111.16542969 108.2859375 110.64335937 107.821875 110.10546875 107.34375 C108.410552 105.96848759 108.410552 105.96848759 105.5 106.25 C103.69504547 107.9115027 103.69504547 107.9115027 102 110.0625 C98.57695656 114.18366414 98.57695656 114.18366414 96.7734375 115.73828125 C95.29414502 117.18739556 95.29414502 117.18739556 95.3828125 119.3359375 C95.46273437 120.09132813 95.54265625 120.84671875 95.625 121.625 C95.72544534 125.24694085 95.59715903 126.09642605 93.5625 129.3125 C89.40839153 131.94060944 86.28422118 131.8948677 81.5 131.25 C78.18091112 130.43866716 76.6741637 129.39736929 74.0625 127.1875 C72.03601751 123.37771293 72.62268746 121.40244929 73.62890625 117.3359375 C74.63645267 114.92324786 75.41331744 113.82985156 77.5 112.25 C78.43070313 112.02570313 79.36140625 111.80140625 80.3203125 111.5703125 C84.98014102 109.63539599 86.73056462 106.28567415 89.375 102.125 C89.87257813 101.37089844 90.37015625 100.61679688 90.8828125 99.83984375 C92.10339454 97.98549796 93.3052706 96.12102952 94.5 94.25 C93.60784286 94.3917012 92.71568573 94.5334024 91.79649353 94.67939758 C82.19058188 96.09681113 72.77331538 96.53174415 63.06640625 96.48046875 C61.53433776 96.47927104 60.00226852 96.47882503 58.47019958 96.4790802 C55.28436574 96.47753102 52.09864675 96.46936549 48.9128418 96.45581055 C44.87808688 96.43883815 40.84345745 96.43499697 36.808671 96.43575573 C33.65206253 96.43548064 30.49548018 96.42994564 27.33888054 96.42275429 C25.85329319 96.41962583 24.36770296 96.41761427 22.8821125 96.41686058 C12.71889606 96.40605304 2.63638627 95.9894732 -7.5 95.25 C-7.06856689 96.13204102 -6.63713379 97.01408203 -6.19262695 97.92285156 C-5.16357422 100.02669271 -4.13452148 102.13053385 -3.10546875 104.234375 C-0.49980506 109.12871167 1.1551994 111.5129398 6.5 113.25 C9.5 114.25 9.5 114.25 10.5 116.25 C11.02499368 119.99995483 11.30572852 123.66194587 9.55859375 127.10546875 C6.29038487 131.25476215 2.90543454 132.95657111 -2.25390625 133.5859375 C-9.74303178 133.6900978 -9.74303178 133.6900978 -13.1875 131.6875 C-14.98977149 128.34042438 -14.90182085 126.0003279 -14.5 122.25 C-13.5 119.8125 -13.5 119.8125 -12.5 118.25 C-11.84 118.25 -11.18 118.25 -10.5 118.25 C-11.139375 117.156875 -11.77875 116.06375 -12.4375 114.9375 C-13.76601325 112.6661709 -14.65813297 110.77560108 -15.5 108.25 C-18.74804899 106.62597551 -21.95475405 105.92811751 -25.5 105.25 C-27.03376229 107.17841458 -28.5517182 109.11621794 -30.0625 111.0625 C-30.71895508 111.88331055 -30.71895508 111.88331055 -31.38867188 112.72070312 C-32.50588139 114.1721958 -33.51128867 115.70810571 -34.5 117.25 C-34.17 118.24 -33.84 119.23 -33.5 120.25 C-33.0625 123.625 -33.0625 123.625 -33.5 127.25 C-35.70655574 129.91144569 -38.40831884 131.70415942 -41.5 133.25 C-46.38813255 133.66294636 -51.1934812 133.83391128 -55.5 131.25 C-58.15144583 128.95685766 -59.34879825 127.30169217 -59.8515625 123.8046875 C-60.07073997 116.97033563 -60.07073997 116.97033563 -58.12890625 114.51953125 C-55.09129825 112.15209097 -52.32668157 111.25 -48.5 111.25 C-48.09974609 110.38568359 -48.09974609 110.38568359 -47.69140625 109.50390625 C-46.07275071 106.44172839 -43.97323706 103.86994256 -41.83984375 101.15234375 C-40.31914723 99.1870042 -40.31914723 99.1870042 -39.5 96.25 C-40.17466309 96.23130859 -40.84932617 96.21261719 -41.54443359 96.19335938 C-64.81586893 95.38114846 -64.81586893 95.38114846 -71.86328125 88.3203125 C-72.40339844 87.63710937 -72.94351563 86.95390625 -73.5 86.25 C-74.0259375 85.63769531 -74.551875 85.02539062 -75.09375 84.39453125 C-82.62227568 72.91352958 -81.34069618 57.56601901 -79.2421875 44.6875 C-77.87319931 38.34692312 -76.41136526 31.88911927 -71.453125 27.39453125 C-66.43912387 24.30832711 -62.29915719 23.72280389 -56.5 24.25 C-56.83 23.445625 -57.16 22.64125 -57.5 21.8125 C-59.15133153 15.92963141 -59.60213825 11.27058679 -56.625 5.8125 C-52.87802788 1.29409245 -52.87802788 1.29409245 -50.22265625 0.984375 C-49.34480469 0.98953125 -48.46695313 0.9946875 -47.5625 1 C-46.68722656 0.99484375 -45.81195313 0.9896875 -44.91015625 0.984375 C-42.5 1.25 -42.5 1.25 -39.5 3.25 C-37.50154161 7.24691678 -36.5 9.74726263 -36.5 14.25 C-24.125 13.755 -24.125 13.755 -11.5 13.25 C-11.17 10.94 -10.84 8.63 -10.5 6.25 C-9.5815917 3.63606867 -9.07507682 2.5995565 -6.70703125 1.16015625 C-4.29799287 0.1666944 -2.59453276 -0.01777077 0 0 Z " fill="#FBFBFB" transform="translate(242.5,152.75)"/>
<path d="M0 0 C0.7528125 -0.00515625 1.505625 -0.0103125 2.28125 -0.015625 C4.78574692 0.28420914 6.37827333 0.89393991 8.5 2.25 C10.75957408 6.99510556 10.56343511 11.12232863 10.5 16.25 C11.62036652 16.24000725 11.62036652 16.24000725 12.7633667 16.22981262 C80.87141474 15.65054414 80.87141474 15.65054414 109.31152344 18.88769531 C116.64736982 19.72126316 123.99298747 20.42211171 131.375 20.625 C133.22738281 20.69847656 133.22738281 20.69847656 135.1171875 20.7734375 C139.39899421 20.11089466 140.77439922 18.51870942 143.5 15.25 C145.39488952 13.35511048 148.07139146 14.06980888 150.58984375 14.01953125 C152.5 14.25 152.5 14.25 154.5 16.25 C154.51953125 18.7890625 154.51953125 18.7890625 154.3125 21.875 C154.19132372 28.1988872 155.75980588 31.35087249 159.5 36.25 C162.32758973 40.2736118 163.0608983 43.5708408 163.625 48.4375 C164.03820185 52.99823064 164.03820185 52.99823064 165.5 57.25 C165.29825661 59.69431124 165.02957262 62.07524037 164.6875 64.5 C164.51605469 65.80453125 164.34460938 67.1090625 164.16796875 68.453125 C163.09151843 74.57189523 162.02543562 78.61791649 157.01953125 82.6015625 C153.64781948 84.80755067 150.15159647 86.67359098 146.5625 88.5 C145.89460449 88.84144043 145.22670898 89.18288086 144.53857422 89.53466797 C137.8501127 92.80961781 131.53455341 94.54623985 124 94.375 C122.9584375 94.35695313 121.916875 94.33890625 120.84375 94.3203125 C120.0703125 94.29710937 119.296875 94.27390625 118.5 94.25 C119.43188881 95.8574328 120.37074435 97.46082799 121.3125 99.0625 C121.83457031 99.95582031 122.35664063 100.84914063 122.89453125 101.76953125 C125.91965653 106.44338661 128.21423501 107.56305373 133.5 109.25 C135.5 111.25 135.5 111.25 135.65234375 113.421875 C135.12781354 119.71623757 134.1000902 122.86896171 129.5 127.25 C125.83218328 129.69521115 122.76546767 129.97237759 118.5 129.25 C116.06880377 127.37984906 114.85930827 125.96861655 113.5 123.25 C113.23529412 115.04411765 113.23529412 115.04411765 114.5 111.25 C113.1078125 110.0125 113.1078125 110.0125 111.6875 108.75 C111.16542969 108.2859375 110.64335937 107.821875 110.10546875 107.34375 C108.410552 105.96848759 108.410552 105.96848759 105.5 106.25 C103.69504547 107.9115027 103.69504547 107.9115027 102 110.0625 C98.57695656 114.18366414 98.57695656 114.18366414 96.7734375 115.73828125 C95.29414502 117.18739556 95.29414502 117.18739556 95.3828125 119.3359375 C95.46273437 120.09132813 95.54265625 120.84671875 95.625 121.625 C95.72544534 125.24694085 95.59715903 126.09642605 93.5625 129.3125 C89.40839153 131.94060944 86.28422118 131.8948677 81.5 131.25 C78.18091112 130.43866716 76.6741637 129.39736929 74.0625 127.1875 C72.03601751 123.37771293 72.62268746 121.40244929 73.62890625 117.3359375 C74.63645267 114.92324786 75.41331744 113.82985156 77.5 112.25 C78.43070313 112.02570313 79.36140625 111.80140625 80.3203125 111.5703125 C84.98014102 109.63539599 86.73056462 106.28567415 89.375 102.125 C89.87257813 101.37089844 90.37015625 100.61679688 90.8828125 99.83984375 C92.10339454 97.98549796 93.3052706 96.12102952 94.5 94.25 C93.60784286 94.3917012 92.71568573 94.5334024 91.79649353 94.67939758 C82.19058188 96.09681113 72.77331538 96.53174415 63.06640625 96.48046875 C61.53433776 96.47927104 60.00226852 96.47882503 58.47019958 96.4790802 C55.28436574 96.47753102 52.09864675 96.46936549 48.9128418 96.45581055 C44.87808688 96.43883815 40.84345745 96.43499697 36.808671 96.43575573 C33.65206253 96.43548064 30.49548018 96.42994564 27.33888054 96.42275429 C25.85329319 96.41962583 24.36770296 96.41761427 22.8821125 96.41686058 C12.71889606 96.40605304 2.63638627 95.9894732 -7.5 95.25 C-7.06856689 96.13204102 -6.63713379 97.01408203 -6.19262695 97.92285156 C-5.16357422 100.02669271 -4.13452148 102.13053385 -3.10546875 104.234375 C-0.49980506 109.12871167 1.1551994 111.5129398 6.5 113.25 C9.5 114.25 9.5 114.25 10.5 116.25 C11.02499368 119.99995483 11.30572852 123.66194587 9.55859375 127.10546875 C6.29038487 131.25476215 2.90543454 132.95657111 -2.25390625 133.5859375 C-9.74303178 133.6900978 -9.74303178 133.6900978 -13.1875 131.6875 C-14.98977149 128.34042438 -14.90182085 126.0003279 -14.5 122.25 C-13.5 119.8125 -13.5 119.8125 -12.5 118.25 C-11.84 118.25 -11.18 118.25 -10.5 118.25 C-11.139375 117.156875 -11.77875 116.06375 -12.4375 114.9375 C-13.76601325 112.6661709 -14.65813297 110.77560108 -15.5 108.25 C-18.74804899 106.62597551 -21.95475405 105.92811751 -25.5 105.25 C-27.03376229 107.17841458 -28.5517182 109.11621794 -30.0625 111.0625 C-30.71895508 111.88331055 -30.71895508 111.88331055 -31.38867188 112.72070312 C-32.50588139 114.1721958 -33.51128867 115.70810571 -34.5 117.25 C-34.17 118.24 -33.84 119.23 -33.5 120.25 C-33.0625 123.625 -33.0625 123.625 -33.5 127.25 C-35.70655574 129.91144569 -38.40831884 131.70415942 -41.5 133.25 C-46.38813255 133.66294636 -51.1934812 133.83391128 -55.5 131.25 C-58.15144583 128.95685766 -59.34879825 127.30169217 -59.8515625 123.8046875 C-60.07073997 116.97033563 -60.07073997 116.97033563 -58.12890625 114.51953125 C-55.09129825 112.15209097 -52.32668157 111.25 -48.5 111.25 C-48.09974609 110.38568359 -48.09974609 110.38568359 -47.69140625 109.50390625 C-46.07275071 106.44172839 -43.97323706 103.86994256 -41.83984375 101.15234375 C-40.31914723 99.1870042 -40.31914723 99.1870042 -39.5 96.25 C-40.17466309 96.23130859 -40.84932617 96.21261719 -41.54443359 96.19335938 C-64.81586893 95.38114846 -64.81586893 95.38114846 -71.86328125 88.3203125 C-72.40339844 87.63710937 -72.94351563 86.95390625 -73.5 86.25 C-74.0259375 85.63769531 -74.551875 85.02539062 -75.09375 84.39453125 C-82.62227568 72.91352958 -81.34069618 57.56601901 -79.2421875 44.6875 C-77.87319931 38.34692312 -76.41136526 31.88911927 -71.453125 27.39453125 C-66.43912387 24.30832711 -62.29915719 23.72280389 -56.5 24.25 C-56.83 23.445625 -57.16 22.64125 -57.5 21.8125 C-59.15133153 15.92963141 -59.60213825 11.27058679 -56.625 5.8125 C-52.87802788 1.29409245 -52.87802788 1.29409245 -50.22265625 0.984375 C-49.34480469 0.98953125 -48.46695313 0.9946875 -47.5625 1 C-46.68722656 0.99484375 -45.81195313 0.9896875 -44.91015625 0.984375 C-42.5 1.25 -42.5 1.25 -39.5 3.25 C-37.50154161 7.24691678 -36.5 9.74726263 -36.5 14.25 C-24.125 13.755 -24.125 13.755 -11.5 13.25 C-11.17 10.94 -10.84 8.63 -10.5 6.25 C-9.5815917 3.63606867 -9.07507682 2.5995565 -6.70703125 1.16015625 C-4.29799287 0.1666944 -2.59453276 -0.01777077 0 0 Z M-7 4.6875 C-9.16805571 8.39126183 -9.31914662 12.01803097 -9.5 16.25 C-10.08523437 16.23839844 -10.67046875 16.22679687 -11.2734375 16.21484375 C-20.37350836 16.11919736 -29.42180265 16.69072712 -38.5 17.25 C-38.64566406 16.15429688 -38.79132813 15.05859375 -38.94140625 13.9296875 C-39.43591052 10.67218387 -40.03449966 8.18100069 -41.5 5.25 C-44.98928518 3.50535741 -48.70256091 3.54851924 -52.5 4.25 C-55.55896902 7.30896902 -56.39048694 9.28263467 -56.875 13.5625 C-56.43385951 17.90038145 -55.57205165 22.02879664 -54.5 26.25 C-55.21285156 26.26417969 -55.92570312 26.27835938 -56.66015625 26.29296875 C-64.38175701 26.67358348 -64.38175701 26.67358348 -71 30.28515625 C-76.75154228 37.81907752 -78.27511967 48.01585144 -78.5 57.25 C-78.561875 58.04535156 -78.62375 58.84070313 -78.6875 59.66015625 C-79.11375407 67.85222668 -77.26849583 76.7888842 -72.921875 83.79296875 C-66.5636896 90.24345039 -61.30770221 92.90944937 -52.17773438 93.1328125 C-51.10845703 93.13023437 -50.03917969 93.12765625 -48.9375 93.125 C-47.83341797 93.145625 -46.72933594 93.16625 -45.59179688 93.1875 C-42.8937668 93.23421914 -40.19834827 93.25447646 -37.5 93.25 C-37.91111453 99.13267516 -39.52311632 102.41739768 -43.0625 107.0625 C-46.23947285 110.7885847 -46.23947285 110.7885847 -47.5 115.25 C-48.593125 115.20875 -49.68625 115.1675 -50.8125 115.125 C-54.58892229 114.92925334 -54.58892229 114.92925334 -57.5 117.25 C-58.12233079 121.99527226 -58.17071133 124.13985712 -55.6875 128.25 C-51.01012724 131.18482212 -46.87855967 130.97683239 -41.5 130.25 C-38.35060538 129.36672853 -38.35060538 129.36672853 -36.5 127.25 C-35.46398336 124.00381454 -35.06996212 122.19608334 -36.49609375 119.05859375 C-36.82738281 118.46175781 -37.15867188 117.86492187 -37.5 117.25 C-33.69577518 112.13589557 -29.81706463 107.09847424 -25.8203125 102.1328125 C-24.30861794 100.36035079 -24.30861794 100.36035079 -24.5 98.25 C-23.51 98.25 -22.52 98.25 -21.5 98.25 C-21.45875 98.9925 -21.4175 99.735 -21.375 100.5 C-20.14754648 104.35771107 -17.84947194 105.03808457 -14.5 107.25 C-11.20673132 110.91508934 -8.43250157 114.3351682 -7.5 119.25 C-8.4590625 119.559375 -8.4590625 119.559375 -9.4375 119.875 C-11.80199095 121.14148939 -11.80199095 121.14148939 -12.4375 124.1875 C-12.80435688 127.17696696 -12.80435688 127.17696696 -11.3046875 128.91796875 C-7.84777597 131.46949869 -3.59777648 130.72796771 0.5 130.25 C4.61275909 128.70771534 6.05780938 127.91328593 8.5 124.25 C9 121.25 9 121.25 8.5 118.25 C5.66746984 115.09063943 2.60303158 114.71625359 -1.5 114.25 C-1.61472656 113.68152344 -1.72945313 113.11304688 -1.84765625 112.52734375 C-2.56783354 110.0131919 -3.619946 108.06837138 -4.9375 105.8125 C-9.5 97.78197254 -9.5 97.78197254 -9.5 93.25 C-8.42941345 93.25444122 -7.3588269 93.25888245 -6.25579834 93.26345825 C3.92153002 93.30431591 14.09884137 93.33413201 24.27623367 93.35362434 C29.5062939 93.36398296 34.73628699 93.37799402 39.96630859 93.40087891 C45.03029778 93.42289412 50.09422312 93.43462786 55.15825653 93.43975449 C57.07316846 93.44339955 58.98807761 93.45051406 60.90296173 93.46146011 C73.898162 93.5326694 86.59395188 92.78449761 99.5 91.25 C97.78735155 94.12161811 96.0757204 96.94395811 94.125 99.66015625 C93.69703125 100.25763672 93.2690625 100.85511719 92.828125 101.47070312 C92.38984375 102.07849609 91.9515625 102.68628906 91.5 103.3125 C91.06171875 103.92416016 90.6234375 104.53582031 90.171875 105.16601562 C89.32629836 106.34396501 88.47741001 107.51954629 87.62475586 108.69238281 C86.69065729 109.98596842 85.78146832 111.297498 84.87890625 112.61328125 C82.8567575 115.0135088 80.44980236 115.37133547 77.5 116.25 C75.219279 118.12424716 75.219279 118.12424716 75.125 121.125 C75.26926872 124.26603121 75.26926872 124.26603121 77 126.5625 C80.40671679 128.86203383 83.39218527 129.61986071 87.5 129.25 C89.87918905 128.17083197 91.4584071 126.93431414 93.5 125.25 C93.19191406 124.08855469 92.88382813 122.92710937 92.56640625 121.73046875 C92.21747286 118.93592463 92.23185948 117.68292079 93.72998047 115.26416016 C95.55592045 113.26348908 97.44972875 111.40246747 99.4375 109.5625 C100.76992265 108.29906184 102.09206223 107.02466706 103.40234375 105.73828125 C103.99523193 105.18696533 104.58812012 104.63564941 105.19897461 104.06762695 C106.89521585 101.69785475 106.7416294 100.09805805 106.5 97.25 C107.82 97.58 109.14 97.91 110.5 98.25 C110.0978125 99.054375 110.0978125 99.054375 109.6875 99.875 C109.21747878 102.5892053 109.21747878 102.5892053 111.8125 105.5 C112.699375 106.4075 113.58625 107.315 114.5 108.25 C115.16 108.25 115.82 108.25 116.5 108.25 C117.125 111.0625 117.125 111.0625 117.5 114.25 C116.84 115.24 116.18 116.23 115.5 117.25 C115.73212966 122.29001408 115.73212966 122.29001408 118.5 126.25 C121.66221406 126.72433211 123.48121727 126.98369302 126.5 126.25 C130.20268466 123.49875465 132.14197793 120.34512633 133.5625 116 C133.73017351 113.30075147 133.73017351 113.30075147 132.4375 111.5 C130.47164033 110.07304299 130.47164033 110.07304299 127.6875 109.625 C122.84899484 107.5378017 121.0983452 103.67794921 118.5 99.25 C117.901875 98.321875 117.30375 97.39375 116.6875 96.4375 C115.55675925 94.35455651 114.92995163 92.57173882 114.5 90.25 C115.21929687 90.40984375 115.93859375 90.5696875 116.6796875 90.734375 C129.80461515 93.13394626 141.48524523 89.33804461 152.5 82.25 C156.89304518 79.2020566 160.53312049 76.49861548 162 71.1875 C162.42931197 67.80666826 162.67000223 64.65004453 162.5 61.25 C161.84 61.25 161.18 61.25 160.5 61.25 C160.83 60.26 161.16 59.27 161.5 58.25 C162.33992328 48.17092061 159.23641698 39.52526181 153.5 31.25 C151.42983052 29.90973346 151.42983052 29.90973346 149.5 29.25 C150.015625 28.198125 150.53125 27.14625 151.0625 26.0625 C152.49688183 22.76476233 152.66452107 20.7435632 151.5 17.25 C148.12563814 16.91619186 148.12563814 16.91619186 144.5 17.25 C142.37105376 18.86548201 142.37105376 18.86548201 141.5 21.25 C141.89688858 23.35928803 141.89688858 23.35928803 142.5 25.25 C141.93909668 25.11722656 141.37819336 24.98445313 140.80029297 24.84765625 C133.43318749 23.22727744 126.14429332 22.68288043 118.625 22.25 C104.72249323 21.42319894 104.72249323 21.42319894 99.44140625 20.76416016 C82.29779033 18.67166196 65.06867685 18.80296186 47.82312012 18.64910889 C43.49138209 18.6085226 39.1597643 18.55768502 34.828125 18.5078125 C26.38550002 18.41206748 17.94281349 18.32735184 9.5 18.25 C9.33564453 17.00283203 9.33564453 17.00283203 9.16796875 15.73046875 C9.00941406 14.64378906 8.85085937 13.55710938 8.6875 12.4375 C8.53667969 11.35855469 8.38585937 10.27960938 8.23046875 9.16796875 C7.47898709 6.16606072 6.9608412 5.05081298 4.5 3.25 C0.36880873 2.40550234 -3.33525192 2.58026986 -7 4.6875 Z " fill="#0F0F0F" transform="translate(242.5,152.75)"/>
<path d="M0 0 C6.93 0.495 6.93 0.495 14 1 C13.67 1.99 13.34 2.98 13 4 C10.03 4 7.06 4 4 4 C4.93188881 5.6074328 5.87074435 7.21082799 6.8125 8.8125 C7.59560547 10.15248047 7.59560547 10.15248047 8.39453125 11.51953125 C11.41965653 16.19338661 13.71423501 17.31305373 19 19 C21 21 21 21 21.15234375 23.171875 C20.62781354 29.46623757 19.6000902 32.61896171 15 37 C11.33218328 39.44521115 8.26546767 39.72237759 4 39 C1.56880377 37.12984906 0.35930827 35.71861655 -1 33 C-1.26470588 24.79411765 -1.26470588 24.79411765 0 21 C-0.928125 20.175 -1.85625 19.35 -2.8125 18.5 C-3.59560547 17.80390625 -3.59560547 17.80390625 -4.39453125 17.09375 C-6.089448 15.71848759 -6.089448 15.71848759 -9 16 C-10.80495453 17.6615027 -10.80495453 17.6615027 -12.5 19.8125 C-15.92304344 23.93366414 -15.92304344 23.93366414 -17.7265625 25.48828125 C-19.20585498 26.93739556 -19.20585498 26.93739556 -19.1171875 29.0859375 C-19.03726563 29.84132813 -18.95734375 30.59671875 -18.875 31.375 C-18.77455466 34.99694085 -18.90284097 35.84642605 -20.9375 39.0625 C-25.09160847 41.69060944 -28.21577882 41.6448677 -33 41 C-36.31908888 40.18866716 -37.8258363 39.14736929 -40.4375 36.9375 C-42.46398249 33.12771293 -41.87731254 31.15244929 -40.87109375 27.0859375 C-39.86354733 24.67324786 -39.08668256 23.57985156 -37 22 C-36.06929688 21.77570313 -35.13859375 21.55140625 -34.1796875 21.3203125 C-29.51985898 19.38539599 -27.76943538 16.03567415 -25.125 11.875 C-24.62742187 11.12089844 -24.12984375 10.36679688 -23.6171875 9.58984375 C-22.39663396 7.73554125 -21.19189707 5.8727993 -20 4 C-20.88816406 4.16371094 -21.77632813 4.32742187 -22.69140625 4.49609375 C-28.40994221 5.31302746 -34.174698 5.10509035 -39.9375 5.0625 C-41.67870117 5.05573242 -41.67870117 5.05573242 -43.45507812 5.04882812 C-46.30343934 5.03710647 -49.15169222 5.0206976 -52 5 C-51.67 4.34 -51.34 3.68 -51 3 C-48.8737793 2.58935547 -48.8737793 2.58935547 -46.07421875 2.3671875 C-45.04876953 2.28339844 -44.02332031 2.19960937 -42.96679688 2.11328125 C-41.34354492 1.99533203 -41.34354492 1.99533203 -39.6875 1.875 C-38.64787109 1.78863281 -37.60824219 1.70226562 -36.53710938 1.61328125 C-29.34637613 1.05157487 -22.21075176 0.89820115 -15 1 C-15.60759452 4.18876894 -16.64886707 6.18302906 -18.6171875 8.75 C-19.14183594 9.4409375 -19.66648437 10.131875 -20.20703125 10.84375 C-21.03267578 11.91109375 -21.03267578 11.91109375 -21.875 13 C-22.41769531 13.7115625 -22.96039063 14.423125 -23.51953125 15.15625 C-24.53467534 16.48660999 -25.55244495 17.8149738 -26.57373047 19.140625 C-27.58061102 20.45325805 -28.54774122 21.7968455 -29.48486328 23.16015625 C-31.59249033 25.71946619 -33.87043307 26.11555717 -37 27 C-38.31968178 28.10528442 -38.31968178 28.10528442 -38.25 30.875 C-38.2248937 33.88642454 -38.2248937 33.88642454 -37 35.8125 C-33.85637062 37.67902995 -30.59832393 38.14701323 -27 38 C-24.05544266 36.72104942 -24.05544266 36.72104942 -22 35 C-22.30679687 33.83855469 -22.61359375 32.67710937 -22.9296875 31.48046875 C-23.27674906 28.6960049 -23.26429979 27.43238425 -21.78613281 25.01416016 C-19.97793182 23.01093692 -18.09926622 21.15224329 -16.125 19.3125 C-14.80658893 18.04656937 -13.4963327 16.77207817 -12.1953125 15.48828125 C-11.60766113 14.93696533 -11.02000977 14.38564941 -10.41455078 13.81762695 C-8.6828965 11.59253788 -8.3638925 9.76528712 -8 7 C-6.68 7.33 -5.36 7.66 -4 8 C-3.938125 8.9075 -3.87625 9.815 -3.8125 10.75 C-2.8027715 14.78891402 -1.32744013 15.64644478 2 18 C4 21 4 21 3.6875 22.8125 C3.460625 23.534375 3.23375 24.25625 3 25 C1.97189977 29.24476807 1.97189977 29.24476807 2.9375 33.375 C3.288125 33.91125 3.63875 34.4475 4 35 C6.92881679 35.29784578 9.14443371 35.50765623 12 35 C15.27276459 32.07540186 16.72261358 29.96160624 17.9375 25.75 C17.958125 24.8425 17.97875 23.935 18 23 C16.1273267 20.77211785 16.1273267 20.77211785 13.25 20.375 C8.58447977 18.40112606 6.68610532 15.17251753 4 11 C3.58234375 10.35933594 3.1646875 9.71867188 2.734375 9.05859375 C0.67281298 5.69766694 0 4.03618921 0 0 Z " fill="#070707" transform="translate(357,243)"/>
<path d="M0 0 C1.28132812 0.00902344 2.56265625 0.01804688 3.8828125 0.02734375 C4.87023437 0.03894531 5.85765625 0.05054688 6.875 0.0625 C6.545 1.0525 6.215 2.0425 5.875 3.0625 C4.98296875 3.07667969 4.0909375 3.09085938 3.171875 3.10546875 C1.41617188 3.17701172 1.41617188 3.17701172 -0.375 3.25 C-2.11523438 3.30220703 -2.11523438 3.30220703 -3.890625 3.35546875 C-7.26077235 3.80016541 -7.26077235 3.80016541 -9.515625 6.328125 C-11.86650708 10.32234213 -11.96901964 13.55543514 -11.125 18.0625 C-8.50400757 21.71316802 -5.18904707 23.70026657 -0.765625 24.4765625 C0.02328125 24.54617187 0.8121875 24.61578125 1.625 24.6875 C2.42421875 24.76226562 3.2234375 24.83703125 4.046875 24.9140625 C4.65015625 24.96304688 5.2534375 25.01203125 5.875 25.0625 C5.875 25.7225 5.875 26.3825 5.875 27.0625 C-1.08734306 27.63842911 -5.84947032 27.40991051 -11.6640625 23.3515625 C-13.88104306 21.39540318 -14.11238667 20.19295785 -14.3984375 17.234375 C-14.70634921 6.86011905 -14.70634921 6.86011905 -11.75 3.3125 C-7.62263988 -0.22523725 -5.3983078 -0.04907553 0 0 Z " fill="#0D0D0D" transform="translate(201.125,193.9375)"/>
<path d="M0 0 C1.66362417 0.34820041 3.32995171 0.68404492 5 1 C5 1.33 5 1.66 5 2 C4.30132812 2.08636719 3.60265625 2.17273438 2.8828125 2.26171875 C0.16723354 2.68097952 -2.3819849 3.1620615 -5 4 C-6.75548759 6.18031152 -6.75548759 6.18031152 -7 9 C-7.33 10.98 -7.66 12.96 -8 15 C-14.6 15 -21.2 15 -28 15 C-27.67 14.34 -27.34 13.68 -27 13 C-21.31648386 11.9850864 -15.76082132 11.87998289 -10 12 C-9.87625 10.9275 -9.7525 9.855 -9.625 8.75 C-8.74712644 3.48275862 -8.74712644 3.48275862 -7 1 C-4.0449252 -1.00182486 -3.50436101 -1.16812034 0 0 Z " fill="#090909" transform="translate(241,154)"/>
<path d="M0 0 C0.66 0.33 1.32 0.66 2 1 C2 1.66 2 2.32 2 3 C-5.37484982 6.72731977 -11.67404102 9.7177641 -20 10 C-19 7 -19 7 -16.9375 5.9375 C-14.63954796 5.20411105 -12.40562611 4.61012717 -10.0625 4.0625 C-7.23149047 3.39889852 -5.29328697 2.64664349 -2.625 1.3125 C-1.325625 0.6628125 -1.325625 0.6628125 0 0 Z " fill="#181818" transform="translate(390,237)"/>
<path d="M0 0 C0.99 0 1.98 0 3 0 C3 2.31 3 4.62 3 7 C4.65 6.67 6.3 6.34 8 6 C8.33 4.02 8.66 2.04 9 0 C9.99 0 10.98 0 12 0 C11.40140845 6.34507042 11.40140845 6.34507042 9.8125 8.9375 C7.19357381 10.47273259 4.97085195 10.1980568 2 10 C0.68373308 6.38026598 0 3.90432869 0 0 Z " fill="#0A0A0A" transform="translate(320,215)"/>
<path d="M0 0 C0.66 0 1.32 0 2 0 C2 2.64 2 5.28 2 8 C3.32 8 4.64 8 6 8 C6.66 6.35 7.32 4.7 8 3 C8.66 3 9.32 3 10 3 C10.36337162 6.27034459 10.28544288 7.60883753 8.3125 10.3125 C6 12 6 12 3.375 12.4375 C2.59125 12.293125 1.8075 12.14875 1 12 C-1.23551759 8.64672361 -1.17283528 8.09256343 -0.625 4.3125 C-0.51414062 3.50425781 -0.40328125 2.69601563 -0.2890625 1.86328125 C-0.19367188 1.24839844 -0.09828125 0.63351563 0 0 Z " fill="#090909" transform="translate(298,223)"/>
<path d="M0 0 C0.99 0 1.98 0 3 0 C3 2.31 3 4.62 3 7 C3.99 6.67 4.98 6.34 6 6 C6.73323796 3.98491642 6.73323796 3.98491642 7 2 C7.99 2 8.98 2 10 2 C9.25 7.75 9.25 7.75 7 10 C4.375 10.125 4.375 10.125 2 10 C-0.09350689 6.5980513 -0.17942163 3.94727588 0 0 Z " fill="#050505" transform="translate(378,200)"/>
<path d="M0 0 C7.92 0.33 15.84 0.66 24 1 C24 1.66 24 2.32 24 3 C7.1070615 3.18451025 7.1070615 3.18451025 0 2 C0 1.34 0 0.68 0 0 Z " fill="#020202" transform="translate(192,227)"/>
<path d="M0 0 C0.66 0 1.32 0 2 0 C2.125 6.625 2.125 6.625 1 10 C-0.99954746 10.04254356 -3.00041636 10.04080783 -5 10 C-6 9 -6 9 -6.09765625 7.15234375 C-6.06510417 5.1015625 -6.03255208 3.05078125 -6 1 C-5.34 1 -4.68 1 -4 1 C-4 2.98 -4 4.96 -4 7 C-3.01 6.67 -2.02 6.34 -1 6 C-0.67 4.02 -0.34 2.04 0 0 Z " fill="#0A0A0A" transform="translate(241,216)"/>
<path d="M0 0 C0.66 0 1.32 0 2 0 C2.33 1.98 2.66 3.96 3 6 C3.66 6 4.32 6 5 6 C5.33 4.35 5.66 2.7 6 1 C6.66 1 7.32 1 8 1 C8.125 4.375 8.125 4.375 8 8 C7.34 8.66 6.68 9.32 6 10 C1.44444444 9.44444444 1.44444444 9.44444444 0 8 C-0.14115161 5.32941149 -0.04247107 2.67567762 0 0 Z " fill="#040404" transform="translate(285,187)"/>
<path d="M0 0 C0.66 0.33 1.32 0.66 2 1 C1.401875 1.825 0.80375 2.65 0.1875 3.5 C-1.52067499 6.02015958 -2.58675132 8.43196534 -3.5625 11.3125 C-4.036875 12.529375 -4.51125 13.74625 -5 15 C-5.99 15.33 -6.98 15.66 -8 16 C-5.00040139 5.04401927 -5.00040139 5.04401927 -2 1 C-1.34 0.67 -0.68 0.34 0 0 Z " fill="#040404" transform="translate(172,180)"/>
<path d="M0 0 C0.66 0 1.32 0 2 0 C2.185625 0.9590625 2.185625 0.9590625 2.375 1.9375 C2.684375 2.9584375 2.684375 2.9584375 3 4 C3.66 4.33 4.32 4.66 5 5 C5.33 3.35 5.66 1.7 6 0 C6.66 0 7.32 0 8 0 C8.23053497 2.84326464 8.35903101 4.46145349 6.75 6.875 C5 8 5 8 2.8125 7.6875 C2.214375 7.460625 1.61625 7.23375 1 7 C0.67 4.69 0.34 2.38 0 0 Z " fill="#050505" transform="translate(173,218)"/>
<path d="M0 0 C0.89203125 0.20367187 1.7840625 0.40734375 2.703125 0.6171875 C3.37859375 0.78476563 4.0540625 0.95234375 4.75 1.125 C4.75 1.455 4.75 1.785 4.75 2.125 C4.00234375 2.17398438 3.2546875 2.22296875 2.484375 2.2734375 C1.49953125 2.34820312 0.5146875 2.42296875 -0.5 2.5 C-1.96179688 2.60441406 -1.96179688 2.60441406 -3.453125 2.7109375 C-6.14633189 3.10965249 -7.91963279 3.76007063 -10.25 5.125 C-10 3.25 -10 3.25 -9.25 1.125 C-5.93584738 -1.16477817 -3.82796236 -0.90662266 0 0 Z " fill="#2D2D2D" transform="translate(183.25,177.875)"/>
<path d="M0 0 C-0.33 1.32 -0.66 2.64 -1 4 C-2.32 4 -3.64 4 -5 4 C-5 3.01 -5 2.02 -5 1 C-3 0 -3 0 0 0 Z " fill="#090909" transform="translate(186,191)"/>
</svg>
