<?xml version="1.0" encoding="UTF-8"?>
<svg version="1.1" xmlns="http://www.w3.org/2000/svg" width="800" height="300">
<path d="M0 0 C264 0 528 0 800 0 C800 99 800 198 800 300 C536 300 272 300 0 300 C0 201 0 102 0 0 Z " fill="#FEFEFE" transform="translate(0,0)"/>
<path d="M0 0 C2.171875 1.609375 2.171875 1.609375 4 4 C4.43231348 7.63228091 4.37429275 11.12990132 4.3359375 14.78515625 C4.55507812 15.84605469 4.77421875 16.90695313 5 18 C7.8282084 19.86983944 7.8282084 19.86983944 11 21 C14.91953216 24.72833547 16.52096504 28.13370717 18.4375 33.1875 C20.26717539 37.79800508 20.26717539 37.79800508 23.75 41.25 C29.36020667 42.54466308 33.81091172 43.25256442 38.94921875 40.3125 C42.07489691 37.94322795 44.634166 35.42335751 47.3125 32.5625 C56.35426002 23.20505985 66.36848267 19.18258801 79.34838867 18.93652344 C83.25339493 18.93754056 87.15773206 18.9604771 91.0625 19 C93.72010116 19.02682833 96.37743101 19.04662509 99.03515625 19.0625 C100.2044165 19.07410156 101.37367676 19.08570313 102.57836914 19.09765625 C106.11816566 18.99662745 109.49927817 18.51008469 113 18 C115.4375 18.4375 115.4375 18.4375 117 19 C116.98839844 18.07316406 116.97679687 17.14632812 116.96484375 16.19140625 C116.95582031 14.99386719 116.94679688 13.79632813 116.9375 12.5625 C116.92589844 11.36753906 116.91429687 10.17257813 116.90234375 8.94140625 C117 6 117 6 118 5 C122.66723483 4.57570592 125.27023038 5.15359687 129 8 C132.96319399 12.07030734 132.96319399 12.07030734 133.10546875 15.6640625 C133.07066406 16.43492187 133.03585937 17.20578125 133 18 C133.73605469 18.08636719 134.47210938 18.17273438 135.23046875 18.26171875 C142.44841347 19.30102651 145.75123659 20.75239319 150.2578125 26.64453125 C152.782662 28.6089321 154.70098303 28.2652231 157.875 28.25 C164.68128754 28.58426908 170.60844574 30.15853907 177.0625 32.3125 C177.96661621 32.60866211 178.87073242 32.90482422 179.80224609 33.20996094 C184.57378054 34.86271112 188.23848489 36.51336484 192 40 C192.804375 40.598125 193.60875 41.19625 194.4375 41.8125 C200.03418972 46.59016196 203.19698547 51.17526898 206 58 C206.80480975 59.16604449 207.63973169 60.31174829 208.5 61.4375 C214.81843859 70.16114482 215.06529587 79.57806935 214 90 C212.40419945 97.90874737 208.41201219 102.34967196 202 107 C201.21625 107.61875 200.4325 108.2375 199.625 108.875 C193.23835008 111.61213568 184.6863171 111.92135549 178 110 C175.70789171 108.52864665 173.98997132 106.89521078 172 105 C171.01 104.67 170.02 104.34 169 104 C168.505 103.113125 168.01 102.22625 167.5 101.3125 C163.62575747 95.08067577 154.80433247 91.83900878 148 90 C148 90.66 148 91.32 148 92 C142.88731328 95.40845782 137.63415271 95.11919012 131.625 95.0625 C130.37976563 95.05347656 129.13453125 95.04445313 127.8515625 95.03515625 C126.91054688 95.02355469 125.96953125 95.01195312 125 95 C125 98.63 125 102.26 125 106 C125.886875 105.9175 126.77375 105.835 127.6875 105.75 C131.79836847 106.06025422 133.26513033 106.94338095 136 110 C136.74469524 113.88896403 136.37054076 115.43780022 134.1875 118.75 C131.6058014 121.40546141 129.96097447 122.89592822 126.22265625 123.30078125 C125.17980469 123.30464844 124.13695312 123.30851562 123.0625 123.3125 C122.02222656 123.32925781 120.98195313 123.34601563 119.91015625 123.36328125 C116.63107305 122.95394603 115.2841711 122.36403722 113 120 C112.04642135 117.23242978 112.0947029 114.9831412 112 112 C112.66 111.34 113.32 110.68 114 110 C114.16687448 107.41645782 114.16687448 107.41645782 114 105 C104.1682155 101.7227385 91.48578292 103.96938008 81.4375 105.375 C80.51533691 105.50100586 79.59317383 105.62701172 78.64306641 105.75683594 C75.29050847 106.23548844 75.29050847 106.23548844 72 107 C71.67 107.66 71.34 108.32 71 109 C72.32 109.66 73.64 110.32 75 111 C75.48828125 116.859375 75.48828125 116.859375 75 119 C72.33798992 121.81975883 70.65206995 122.8914547 66.80859375 123.53125 C65.69613281 123.5209375 64.58367187 123.510625 63.4375 123.5 C62.32246094 123.5103125 61.20742188 123.520625 60.05859375 123.53125 C56.36981309 122.89054225 55.17806518 122.01054683 53 119 C52.05796793 114.85357537 52.57800526 111.02167148 54.1875 107.125 C56.2458062 104.71181342 58.15568373 103.38569254 61 102 C61.66 102 62.32 102 63 102 C63.33 100.35 63.66 98.7 64 97 C42.88 97 21.76 97 0 97 C1.65 97.99 3.3 98.98 5 100 C5.36760731 102.32817964 5.70241581 104.6618385 6 107 C6.97066406 107.46792969 6.97066406 107.46792969 7.9609375 107.9453125 C10 109 10 109 10.78515625 110.98828125 C11.27083887 115.05843843 11.33622087 117.34100709 9.4375 121.0625 C3.98129938 124.13781308 -1.86969232 123.73812323 -8 123 C-10 121 -10 121 -10.01171875 118.90625 C-9.85123047 117.71515625 -9.85123047 117.71515625 -9.6875 116.5 C-9.53861328 115.30890625 -9.53861328 115.30890625 -9.38671875 114.09375 C-9 112 -9 112 -8 110 C-7.34 110 -6.68 110 -6 110 C-6 109.01 -6 108.02 -6 107 C-11.94075217 106.97511607 -17.8814734 106.9570535 -23.82226562 106.94506836 C-25.83952361 106.94006716 -27.85677803 106.93326406 -29.87402344 106.92456055 C-32.78842048 106.91230913 -35.70276923 106.90672941 -38.6171875 106.90234375 C-39.50614716 106.89718246 -40.39510681 106.89202118 -41.31100464 106.88670349 C-47.22596313 106.88618408 -53.15085562 107.04661708 -59 108 C-59.33 108.33 -59.66 108.66 -60 109 C-58.515 109.99 -58.515 109.99 -57 111 C-56.37767834 114.91173615 -56.86195597 116.74363251 -58.75 120.25 C-61.94117647 124.1503268 -61.94117647 124.1503268 -65 125 C-69.88097387 125.47235231 -72.02670088 125.52269768 -76.375 123.1875 C-79 121 -79 121 -81 118 C-81.33700842 114.29290742 -81.46997177 111.87280471 -79.6875 108.5625 C-78 107 -78 107 -75 107 C-73.22738797 98.72362985 -73.22738797 98.72362985 -75.3515625 91.05078125 C-77.16127328 89.66783122 -77.16127328 89.66783122 -79.07543945 88.51391602 C-84.68966284 84.09760253 -85.83915527 75.38500667 -86.75 68.6875 C-86.86851318 67.8330127 -86.98702637 66.97852539 -87.10913086 66.09814453 C-90.57294903 38.87994374 -90.57294903 38.87994374 -83.91015625 29.98046875 C-77.84766659 23.69481996 -72.10878038 19.16479937 -63.125 18.875 C-62.09375 18.91625 -61.0625 18.9575 -60 19 C-60.08121094 18.443125 -60.16242188 17.88625 -60.24609375 17.3125 C-60.56170572 13.49939217 -60.60735671 10.95646726 -58.51171875 7.65625 C-52.99835526 1.35526316 -52.99835526 1.35526316 -48.1875 0.5 C-44.57327199 1.06693773 -44.21998885 1.45668153 -42.125 4.25 C-40.06947851 7.2751071 -40 8.0805578 -40 12 C-31.09 12 -22.18 12 -13 12 C-12.67 9.36 -12.34 6.72 -12 4 C-8.26007906 -0.70506183 -5.79997749 -1.50799415 0 0 Z " fill="#FBFBFB" transform="translate(250,162)"/>
<path d="M0 0 C2.171875 1.609375 2.171875 1.609375 4 4 C4.43231348 7.63228091 4.37429275 11.12990132 4.3359375 14.78515625 C4.55507812 15.84605469 4.77421875 16.90695313 5 18 C7.8282084 19.86983944 7.8282084 19.86983944 11 21 C14.91953216 24.72833547 16.52096504 28.13370717 18.4375 33.1875 C20.26717539 37.79800508 20.26717539 37.79800508 23.75 41.25 C29.36020667 42.54466308 33.81091172 43.25256442 38.94921875 40.3125 C42.07489691 37.94322795 44.634166 35.42335751 47.3125 32.5625 C56.35426002 23.20505985 66.36848267 19.18258801 79.34838867 18.93652344 C83.25339493 18.93754056 87.15773206 18.9604771 91.0625 19 C93.72010116 19.02682833 96.37743101 19.04662509 99.03515625 19.0625 C100.2044165 19.07410156 101.37367676 19.08570313 102.57836914 19.09765625 C106.11816566 18.99662745 109.49927817 18.51008469 113 18 C115.4375 18.4375 115.4375 18.4375 117 19 C116.98839844 18.07316406 116.97679687 17.14632812 116.96484375 16.19140625 C116.95582031 14.99386719 116.94679688 13.79632813 116.9375 12.5625 C116.92589844 11.36753906 116.91429687 10.17257813 116.90234375 8.94140625 C117 6 117 6 118 5 C122.66723483 4.57570592 125.27023038 5.15359687 129 8 C132.96319399 12.07030734 132.96319399 12.07030734 133.10546875 15.6640625 C133.07066406 16.43492187 133.03585937 17.20578125 133 18 C133.73605469 18.08636719 134.47210938 18.17273438 135.23046875 18.26171875 C142.44841347 19.30102651 145.75123659 20.75239319 150.2578125 26.64453125 C152.782662 28.6089321 154.70098303 28.2652231 157.875 28.25 C164.68128754 28.58426908 170.60844574 30.15853907 177.0625 32.3125 C177.96661621 32.60866211 178.87073242 32.90482422 179.80224609 33.20996094 C184.57378054 34.86271112 188.23848489 36.51336484 192 40 C192.804375 40.598125 193.60875 41.19625 194.4375 41.8125 C200.03418972 46.59016196 203.19698547 51.17526898 206 58 C206.80480975 59.16604449 207.63973169 60.31174829 208.5 61.4375 C214.81843859 70.16114482 215.06529587 79.57806935 214 90 C212.40419945 97.90874737 208.41201219 102.34967196 202 107 C201.21625 107.61875 200.4325 108.2375 199.625 108.875 C193.23835008 111.61213568 184.6863171 111.92135549 178 110 C175.70789171 108.52864665 173.98997132 106.89521078 172 105 C171.01 104.67 170.02 104.34 169 104 C168.505 103.113125 168.01 102.22625 167.5 101.3125 C163.62575747 95.08067577 154.80433247 91.83900878 148 90 C148 90.66 148 91.32 148 92 C142.88731328 95.40845782 137.63415271 95.11919012 131.625 95.0625 C130.37976563 95.05347656 129.13453125 95.04445313 127.8515625 95.03515625 C126.91054688 95.02355469 125.96953125 95.01195312 125 95 C125 98.63 125 102.26 125 106 C125.886875 105.9175 126.77375 105.835 127.6875 105.75 C131.79836847 106.06025422 133.26513033 106.94338095 136 110 C136.74469524 113.88896403 136.37054076 115.43780022 134.1875 118.75 C131.6058014 121.40546141 129.96097447 122.89592822 126.22265625 123.30078125 C125.17980469 123.30464844 124.13695312 123.30851562 123.0625 123.3125 C122.02222656 123.32925781 120.98195313 123.34601563 119.91015625 123.36328125 C116.63107305 122.95394603 115.2841711 122.36403722 113 120 C112.04642135 117.23242978 112.0947029 114.9831412 112 112 C112.66 111.34 113.32 110.68 114 110 C114.16687448 107.41645782 114.16687448 107.41645782 114 105 C104.1682155 101.7227385 91.48578292 103.96938008 81.4375 105.375 C80.51533691 105.50100586 79.59317383 105.62701172 78.64306641 105.75683594 C75.29050847 106.23548844 75.29050847 106.23548844 72 107 C71.67 107.66 71.34 108.32 71 109 C72.32 109.66 73.64 110.32 75 111 C75.48828125 116.859375 75.48828125 116.859375 75 119 C72.33798992 121.81975883 70.65206995 122.8914547 66.80859375 123.53125 C65.69613281 123.5209375 64.58367187 123.510625 63.4375 123.5 C62.32246094 123.5103125 61.20742188 123.520625 60.05859375 123.53125 C56.36981309 122.89054225 55.17806518 122.01054683 53 119 C52.05796793 114.85357537 52.57800526 111.02167148 54.1875 107.125 C56.2458062 104.71181342 58.15568373 103.38569254 61 102 C61.66 102 62.32 102 63 102 C63.33 100.35 63.66 98.7 64 97 C42.88 97 21.76 97 0 97 C1.65 97.99 3.3 98.98 5 100 C5.36760731 102.32817964 5.70241581 104.6618385 6 107 C6.97066406 107.46792969 6.97066406 107.46792969 7.9609375 107.9453125 C10 109 10 109 10.78515625 110.98828125 C11.27083887 115.05843843 11.33622087 117.34100709 9.4375 121.0625 C3.98129938 124.13781308 -1.86969232 123.73812323 -8 123 C-10 121 -10 121 -10.01171875 118.90625 C-9.85123047 117.71515625 -9.85123047 117.71515625 -9.6875 116.5 C-9.53861328 115.30890625 -9.53861328 115.30890625 -9.38671875 114.09375 C-9 112 -9 112 -8 110 C-7.34 110 -6.68 110 -6 110 C-6 109.01 -6 108.02 -6 107 C-11.94075217 106.97511607 -17.8814734 106.9570535 -23.82226562 106.94506836 C-25.83952361 106.94006716 -27.85677803 106.93326406 -29.87402344 106.92456055 C-32.78842048 106.91230913 -35.70276923 106.90672941 -38.6171875 106.90234375 C-39.50614716 106.89718246 -40.39510681 106.89202118 -41.31100464 106.88670349 C-47.22596313 106.88618408 -53.15085562 107.04661708 -59 108 C-59.33 108.33 -59.66 108.66 -60 109 C-58.515 109.99 -58.515 109.99 -57 111 C-56.37767834 114.91173615 -56.86195597 116.74363251 -58.75 120.25 C-61.94117647 124.1503268 -61.94117647 124.1503268 -65 125 C-69.88097387 125.47235231 -72.02670088 125.52269768 -76.375 123.1875 C-79 121 -79 121 -81 118 C-81.33700842 114.29290742 -81.46997177 111.87280471 -79.6875 108.5625 C-78 107 -78 107 -75 107 C-73.22738797 98.72362985 -73.22738797 98.72362985 -75.3515625 91.05078125 C-77.16127328 89.66783122 -77.16127328 89.66783122 -79.07543945 88.51391602 C-84.68966284 84.09760253 -85.83915527 75.38500667 -86.75 68.6875 C-86.86851318 67.8330127 -86.98702637 66.97852539 -87.10913086 66.09814453 C-90.57294903 38.87994374 -90.57294903 38.87994374 -83.91015625 29.98046875 C-77.84766659 23.69481996 -72.10878038 19.16479937 -63.125 18.875 C-62.09375 18.91625 -61.0625 18.9575 -60 19 C-60.33 19.99 -60.66 20.98 -61 22 C-63.4765625 22.73828125 -63.4765625 22.73828125 -66.625 23.3125 C-72.53535195 24.67966326 -76.11104044 26.33531713 -80 31 C-80.5053125 31.59167969 -81.010625 32.18335938 -81.53125 32.79296875 C-88.93646138 43.4276751 -85.06178917 60.59510687 -83 72.546875 C-81.95849741 77.74136919 -80.07518924 81.67811242 -77 86 C-75.9790625 85.01 -75.9790625 85.01 -74.9375 84 C-71.29704773 81.5213942 -69.32351988 81.43954372 -65 82 C-63.0625 83.5 -63.0625 83.5 -62 85 C-59.4636387 83.98545548 -58.20648539 83.3146444 -56.6875 81 C-56.3471875 80.01 -56.3471875 80.01 -56 79 C-56.495 78.01 -56.495 78.01 -57 77 C-57.039992 75.00039988 -57.04346799 72.99952758 -57 71 C-52.75321538 69.96699834 -48.73753272 69.8663954 -44.375 69.875 C-43.06273437 69.87242187 -41.75046875 69.86984375 -40.3984375 69.8671875 C-37 70 -37 70 -34 71 C-34 73.97 -34 76.94 -34 80 C-36.95799003 81.47899501 -39.6483576 81.13178874 -42.9375 81.125 C-44.18402344 81.12757813 -45.43054688 81.13015625 -46.71484375 81.1328125 C-50 81 -50 81 -53 80 C-52.34 81.010625 -51.68 82.02125 -51 83.0625 C-48.83350533 86.81015569 -48.74982139 89.66357077 -49 94 C-48.67 94.99 -48.34 95.98 -48 97 C-48.27571139 99.00875442 -48.60235737 101.01178687 -49 103 C-48.18958252 102.99476318 -47.37916504 102.98952637 -46.54418945 102.98413086 C-43.4707873 102.9668535 -40.39741029 102.95443745 -37.32397461 102.94506836 C-35.36635673 102.93770264 -33.40876129 102.92498174 -31.45117188 102.91210938 C-7.71389779 102.85170919 -7.71389779 102.85170919 -3 106 C-2.25 108.625 -2.25 108.625 -2 111 C-3.65 111.66 -5.3 112.32 -7 113 C-7.33 115.31 -7.66 117.62 -8 120 C-5.87465341 119.85930804 -3.74972471 119.71229079 -1.625 119.5625 C-0.44164062 119.48128906 0.74171875 119.40007812 1.9609375 119.31640625 C4.91518901 119.18915064 4.91518901 119.18915064 7 118 C7.25015873 114.58357241 7.25015873 114.58357241 7 111 C5.515 110.01 5.515 110.01 4 109 C3.62875 107.2984375 3.62875 107.2984375 3.25 105.5625 C2.33829801 101.73745249 2.33829801 101.73745249 -1.1875 100.125 C-4.81565185 99.05439781 -8.24060336 98.3836119 -12 98 C-12 97.01 -12 96.02 -12 95 C-11.01 95 -10.02 95 -9 95 C-9 94.34 -9 93.68 -9 93 C-8.12525528 93.00222061 -7.25051056 93.00444122 -6.34925842 93.00672913 C1.87675346 93.02672978 10.10275723 93.04197298 18.3287878 93.05181217 C22.55831371 93.05704056 26.7878196 93.0641374 31.01733398 93.07543945 C35.09568543 93.08626991 39.17401757 93.09227717 43.25238228 93.09487724 C44.81177639 93.09673121 46.3711694 93.10035127 47.93055534 93.10573006 C50.10729162 93.11294262 52.28394714 93.11399085 54.46069336 93.11352539 C55.70201523 93.115746 56.9433371 93.11796661 58.22227478 93.12025452 C60.907817 93.31747011 60.907817 93.31747011 62 92 C71.46747473 90.75245575 80.52690619 91.06420806 90 92 C89.67 92.99 89.34 93.98 89 95 C82.07 95 75.14 95 68 95 C67.01 98.63 66.02 102.26 65 106 C62.36 106.66 59.72 107.32 57 108 C56.77825067 109.45635371 56.57301302 110.91522956 56.375 112.375 C56.25898438 113.18710937 56.14296875 113.99921875 56.0234375 114.8359375 C56.01570312 115.55007813 56.00796875 116.26421875 56 117 C57.85637822 119.28027649 57.85637822 119.28027649 60.75 119.265625 C61.8225 119.26046875 62.895 119.2553125 64 119.25 C65.0725 119.25515625 66.145 119.2603125 67.25 119.265625 C70.14362178 119.28027649 70.14362178 119.28027649 72 117 C72 115.68 72 114.36 72 113 C70.68 112.34 69.36 111.68 68 111 C68.75 105.25 68.75 105.25 71 103 C74.27590532 102.16063083 77.64938528 101.81379437 81 101.375 C81.98154053 101.24456299 82.96308105 101.11412598 83.97436523 100.97973633 C90.34300607 100.19092431 96.64487046 99.71040086 103.0625 99.6875 C103.79275391 99.68218262 104.52300781 99.67686523 105.27539062 99.67138672 C109.44708892 99.72741565 113.88074286 99.88074286 117 103 C117.04063832 104.66617115 117.042721 106.33388095 117 108 C117.66 108 118.32 108 119 108 C118.43628586 111.26954202 117.50037734 112.82575883 115 115 C115.67638011 118.10815785 115.67638011 118.10815785 118.0625 119.25 C121.93693322 120.23921699 125.18045894 120.25453545 129 119 C131.69246306 116.37657446 132.81498784 114.55503647 134 111 C130.37 110.01 126.74 109.02 123 108 C122.77213542 105.20052083 122.54427083 102.40104167 122.31640625 99.6015625 C122.15034374 97.02072387 122.15034374 97.02072387 121 95 C119.11235097 94.31527335 119.11235097 94.31527335 116.9375 93.875 C116.20402344 93.70742187 115.47054687 93.53984375 114.71484375 93.3671875 C114.14894531 93.24601562 113.58304688 93.12484375 113 93 C113.33 92.01 113.66 91.02 114 90 C115.0828125 90.15339844 116.165625 90.30679688 117.28125 90.46484375 C122.67337423 91.13885928 128.07348656 91.34529703 133.5 91.5625 C134.51320313 91.60568359 135.52640625 91.64886719 136.5703125 91.69335938 C139.0467679 91.79849192 141.52330749 91.90063837 144 92 C145.09179141 87.01502235 145.09179141 87.01502235 143.5625 82.375 C141.45800855 77.82929848 141.86517563 73.96613616 142.08984375 69.0234375 C142.21399451 66.06529666 142.21399451 66.06529666 140.96484375 63.9296875 C139.64614457 61.29228914 140.14012864 59.62635553 140.625 56.75 C141.24081533 51.68136612 140.55512434 48.95534368 137.71484375 44.75390625 C137 43 137 43 137.78125 40.89453125 C139 39 139 39 140.5625 37.125 C142.38826462 34.42604361 142.60640053 32.21439565 143 29 C143.32635698 27.33195323 143.65725594 25.66475686 144 24 C142.56359829 23.80426392 141.12580496 23.61872184 139.6875 23.4375 C138.88699219 23.33308594 138.08648437 23.22867188 137.26171875 23.12109375 C134.83182884 22.85244822 134.83182884 22.85244822 132 24 C131.89042969 23.38511719 131.78085937 22.77023438 131.66796875 22.13671875 C131.50941406 21.32847656 131.35085938 20.52023438 131.1875 19.6875 C130.96126953 18.48673828 130.96126953 18.48673828 130.73046875 17.26171875 C129.91786593 14.74569185 128.89891233 13.77405234 127 12 C127 11.34 127 10.68 127 10 C124.36 9.34 121.72 8.68 119 8 C119.14230808 9.41702513 119.28900746 10.8336096 119.4375 12.25 C119.51871094 13.03890625 119.59992188 13.8278125 119.68359375 14.640625 C119.94871809 16.9987921 119.94871809 16.9987921 120.59765625 19.234375 C120.73042969 19.81703125 120.86320313 20.3996875 121 21 C118.84019945 23.15980055 113.809544 22.18683428 110.8046875 22.2109375 C108.87108607 22.23905982 106.93749246 22.26772446 105.00390625 22.296875 C101.96110714 22.33773753 98.91844576 22.37461809 95.87548828 22.40136719 C72.77887594 21.89858414 72.77887594 21.89858414 53 32 C51.7509277 33.02196824 50.50094365 34.04282325 49.25 35.0625 C47.15174826 36.87182768 45.6456379 38.46174456 43.9375 40.6875 C41.01081003 44.18064609 38.19284128 45.66518699 33.671875 46.35546875 C28.33863863 46.65812173 24.16701224 45.9811685 19.74609375 42.89453125 C16.80601367 39.70451148 15.5761598 35.90259226 14.203125 31.83984375 C12.90870541 28.7845092 11.3856664 27.25034498 9 25 C9 24.34 9 23.68 9 23 C8.2575 22.731875 7.515 22.46375 6.75 22.1875 C4.13363446 21.05770579 2.19812889 19.79106798 0 18 C0.165 17.505 0.33 17.01 0.5 16.5 C1.3386134 12.30693301 1.95347117 7.8508558 -0.0625 3.9375 C-3.1415866 2.44761939 -5.74856958 3.32517482 -9 4 C-9.66 7.63 -10.32 11.26 -11 15 C-25.355 15.495 -25.355 15.495 -40 16 C-40 16.66 -40 17.32 -40 18 C-40.99 17.67 -41.98 17.34 -43 17 C-42.938125 15.948125 -42.87625 14.89625 -42.8125 13.8125 C-43.0077786 9.84183507 -43.70325068 8.15803031 -46 5 C-50.82665723 5.19437702 -50.82665723 5.19437702 -54.6875 7.71875 C-56.20536955 10.35695184 -56.48865048 12.22748731 -56.6875 15.25 C-56.75324219 16.14203125 -56.81898438 17.0340625 -56.88671875 17.953125 C-56.92410156 18.62859375 -56.96148437 19.3040625 -57 20 C-57.66 20 -58.32 20 -59 20 C-59.91501926 10.62952503 -59.91501926 10.62952503 -57.734375 6.74609375 C-54.81104529 3.34736818 -52.69897016 1.30203914 -48.1875 0.5 C-44.57327199 1.06693773 -44.21998885 1.45668153 -42.125 4.25 C-40.06947851 7.2751071 -40 8.0805578 -40 12 C-31.09 12 -22.18 12 -13 12 C-12.67 9.36 -12.34 6.72 -12 4 C-8.26007906 -0.70506183 -5.79997749 -1.50799415 0 0 Z " fill="#0C0C0C" transform="translate(250,162)"/>
<path d="M0 0 C1.89575251 -0.02721176 3.79161979 -0.04649136 5.6875 -0.0625 C6.74324219 -0.07410156 7.79898437 -0.08570313 8.88671875 -0.09765625 C11.72410262 -0.00865425 14.2438919 0.35060162 17 1 C16.835 1.721875 16.67 2.44375 16.5 3.1875 C15.9019605 5.94545588 15.9019605 5.94545588 16.125 8.5625 C15.97046704 11.57589279 14.9711947 12.78240596 13 15 C13.53625 15.86625 14.0725 16.7325 14.625 17.625 C16 21 16 21 15.375 24.125 C14.13242486 26.72311166 12.85481 28.80795182 11 31 C13.50358872 30.51792644 13.50358872 30.51792644 16 29 C17.71534622 25.10148586 18.15188989 22.07938577 17.5 17.9375 C16.96923701 13.75774142 17.49351033 11.84991805 19 8 C19.36920191 6.00630969 19.71325582 4.00720923 20 2 C33.56794262 4.15274246 43.82346879 9.73102459 53 20 C54.0625 22.375 54.0625 22.375 55 25 C55.79269558 26.28327991 56.60761953 27.55294769 57.4375 28.8125 C59.95801659 32.72750359 61.50615189 36.59707925 63 41 C61.02 41.99 59.04 42.98 57 44 C57.1546875 45.6396875 57.1546875 45.6396875 57.3125 47.3125 C57.209375 48.529375 57.10625 49.74625 57 51 C54.60259082 52.95578117 53.12413392 54 50 54 C49.67 55.65 49.34 57.3 49 59 C48.34 59 47.68 59 47 59 C47 59.99 47 60.98 47 62 C48.91466367 61.87822312 48.91466367 61.87822312 51 61 C52.0064275 59.33720673 53.00585407 57.67016516 54 56 C55.299375 55.319375 55.299375 55.319375 56.625 54.625 C59.41618344 53.11301436 59.41618344 53.11301436 59.8125 49.3125 C59.874375 48.219375 59.93625 47.12625 60 46 C61.65 45.34 63.3 44.68 65 44 C67.25577623 53.30507696 64.89182268 59.53528567 61 68 C60.34 68 59.68 68 59 68 C59 68.66 59 69.32 59 70 C58.34 70 57.68 70 57 70 C57 70.66 57 71.32 57 72 C55.730447 72.64834654 54.45930294 73.29357815 53.1875 73.9375 C52.12595703 74.47697266 52.12595703 74.47697266 51.04296875 75.02734375 C46.86005693 77.01882567 43.60916272 77.38409689 39 77 C36.46207651 75.87148645 34.33911345 74.52758429 32 73 C32 68.88339203 32.81131903 65.91565497 34 62 C34.144375 61.2575 34.28875 60.515 34.4375 59.75 C35 58 35 58 36.5 56.625 C38.66876959 54.27549961 38.73428076 52.12220105 39 49 C38.67 48.34 38.34 47.68 38 47 C37.01 47.495 37.01 47.495 36 48 C36.268125 48.556875 36.53625 49.11375 36.8125 49.6875 C37 52 37 52 34.6875 54.75 C32 57 32 57 30 57 C30.37125 58.0725 30.7425 59.145 31.125 60.25 C32 64 32 64 31.5 66.375 C30 68 30 68 27.1875 69.125 C26.135625 69.08375 25.08375 69.0425 24 69 C22.80298834 67.6034864 21.61796531 66.1916897 20.54296875 64.69921875 C16.28045065 60.00505325 9.1981818 57.48933014 3 57 C0.49781611 49.77671442 -1.16768513 43.7705395 -0.83984375 36.0859375 C-0.85259049 33.69095708 -0.85259049 33.69095708 -3 31 C-2.87109375 28.546875 -2.87109375 28.546875 -2.4375 25.75 C-1.80591972 20.3780194 -2.66241032 17.77257893 -5 13 C-4.56442804 9.9694007 -3.34838509 7.50784679 -1.9375 4.8125 C-0.56508881 2.52069257 -0.56508881 2.52069257 0 0 Z " fill="#656565" transform="translate(396,193)"/>
<path d="M0 0 C-0.33 0.99 -0.66 1.98 -1 3 C-3.4765625 3.73828125 -3.4765625 3.73828125 -6.625 4.3125 C-12.53535195 5.67966326 -16.11104044 7.33531713 -20 12 C-20.5053125 12.59167969 -21.010625 13.18335938 -21.53125 13.79296875 C-28.93646138 24.4276751 -25.06178917 41.59510687 -23 53.546875 C-21.95849741 58.74136919 -20.07518924 62.67811242 -17 67 C-15.9790625 66.01 -15.9790625 66.01 -14.9375 65 C-11.29704773 62.5213942 -9.32351988 62.43954372 -5 63 C-3.0625 64.5 -3.0625 64.5 -2 66 C0.5363613 64.98545548 1.79351461 64.3146444 3.3125 62 C3.539375 61.34 3.76625 60.68 4 60 C3.67 59.34 3.34 58.68 3 58 C2.960008 56.00039988 2.95653201 53.99952758 3 52 C7.24678462 50.96699834 11.26246728 50.8663954 15.625 50.875 C16.93726563 50.87242187 18.24953125 50.86984375 19.6015625 50.8671875 C23 51 23 51 26 52 C26 54.97 26 57.94 26 61 C23.04200997 62.47899501 20.3516424 62.13178874 17.0625 62.125 C15.81597656 62.12757813 14.56945312 62.13015625 13.28515625 62.1328125 C10 62 10 62 7 61 C7.66 62.010625 8.32 63.02125 9 64.0625 C11.16649467 67.81015569 11.25017861 70.66357077 11 75 C11.33 75.99 11.66 76.98 12 78 C11.72428861 80.00875442 11.39764263 82.01178687 11 84 C11.81041748 83.99476318 12.62083496 83.98952637 13.45581055 83.98413086 C16.5292127 83.9668535 19.60258971 83.95443745 22.67602539 83.94506836 C24.63364327 83.93770264 26.59123871 83.92498174 28.54882812 83.91210938 C52.28610221 83.85170919 52.28610221 83.85170919 57 87 C57.75 89.625 57.75 89.625 58 92 C55.69 92.99 53.38 93.98 51 95 C51.495 93.02 51.495 93.02 52 91 C52.66 91 53.32 91 54 91 C54 90.01 54 89.02 54 88 C48.05924783 87.97511607 42.1185266 87.9570535 36.17773438 87.94506836 C34.16047639 87.94006716 32.14322197 87.93326406 30.12597656 87.92456055 C27.21157952 87.91230913 24.29723077 87.90672941 21.3828125 87.90234375 C20.49385284 87.89718246 19.60489319 87.89202118 18.68899536 87.88670349 C12.77403687 87.88618408 6.84914438 88.04661708 1 89 C0.67 89.33 0.34 89.66 0 90 C1.485 90.99 1.485 90.99 3 92 C3.62232166 95.91173615 3.13804403 97.74363251 1.25 101.25 C-1.94117647 105.1503268 -1.94117647 105.1503268 -5 106 C-9.88097387 106.47235231 -12.02670088 106.52269768 -16.375 104.1875 C-19 102 -19 102 -21 99 C-21.33700842 95.29290742 -21.46997177 92.87280471 -19.6875 89.5625 C-18 88 -18 88 -15 88 C-13.22738797 79.72362985 -13.22738797 79.72362985 -15.3515625 72.05078125 C-17.16127328 70.66783122 -17.16127328 70.66783122 -19.07543945 69.51391602 C-24.68966284 65.09760253 -25.83915527 56.38500667 -26.75 49.6875 C-26.92776978 48.40576904 -26.92776978 48.40576904 -27.10913086 47.09814453 C-30.57294903 19.87994374 -30.57294903 19.87994374 -23.91015625 10.98046875 C-16.76486557 3.57216123 -10.53389606 -0.42135584 0 0 Z " fill="#0A0A0A" transform="translate(190,181)"/>
<path d="M0 0 C1.9375 0.625 1.9375 0.625 4 2 C5.27294962 6.30844485 4.75687286 9.64798105 4 14 C4.185625 14.7425 4.37125 15.485 4.5625 16.25 C4.706875 16.8275 4.85125 17.405 5 18 C3 20 3 20 -0.625 20.125 C-1.73875 20.08375 -2.8525 20.0425 -4 20 C-4 18.68 -4 17.36 -4 16 C-4.721875 16.350625 -5.44375 16.70125 -6.1875 17.0625 C-9.37605276 18.12535092 -10.86992077 18.1843543 -14 17 C-15.3125 14.9375 -15.3125 14.9375 -16 13 C-14.35 11.35 -12.7 9.7 -11 8 C-12.65 7.67 -14.3 7.34 -16 7 C-16.625 5.125 -16.625 5.125 -17 3 C-15 1 -15 1 -12.375 0.875 C-11.59125 0.91625 -10.8075 0.9575 -10 1 C-9.34 2.32 -8.68 3.64 -8 5 C-3.17557816 3.73053486 -3.17557816 3.73053486 0 0 Z " fill="#F2F2F2" transform="translate(194,246)"/>
<path d="M0 0 C3.3 0.33 6.6 0.66 10 1 C9.125 6.75 9.125 6.75 8 9 C9.65 9 11.3 9 13 9 C13.33 9.99 13.66 10.98 14 12 C12.16425689 15.59805649 10.74085672 17.58841293 7.1875 19.5625 C2.27097417 20.23731727 -0.95667105 18.34093462 -5 15.6875 C-6 14 -6 14 -6 10.9375 C-5 8 -5 8 -2.4375 6.625 C-1.633125 6.41875 -0.82875 6.2125 0 6 C0 4.02 0 2.04 0 0 Z " fill="#EFEFEF" transform="translate(177,265)"/>
<path d="M0 0 C1.31226563 -0.00257813 2.62453125 -0.00515625 3.9765625 -0.0078125 C7.375 0.125 7.375 0.125 10.375 1.125 C10.375 4.095 10.375 7.065 10.375 10.125 C6.96487813 11.83006094 3.19640181 11.39362177 -0.5625 11.4375 C-1.38685547 11.46650391 -2.21121094 11.49550781 -3.06054688 11.52539062 C-9.09993917 11.58916975 -9.09993917 11.58916975 -11.6796875 9.30859375 C-12.90460184 6.47914285 -12.83285753 4.17357708 -12.625 1.125 C-8.37821538 0.09199834 -4.36253272 -0.0086046 0 0 Z " fill="#0F0F0F" transform="translate(205.625,231.875)"/>
<path d="M0 0 C-0.33 0.99 -0.66 1.98 -1 3 C-2.093125 3.28875 -3.18625 3.5775 -4.3125 3.875 C-8.65172657 5.19883184 -9.82025377 6.05968951 -12 10 C-12.85286967 13.05150121 -13.43177288 15.84805799 -13 19 C-11.5385104 21.87911687 -11.5385104 21.87911687 -9 24 C-5.73001925 24.6030807 -5.73001925 24.6030807 -2.25 24.3125 C-1.07953125 24.26738281 0.0909375 24.22226563 1.296875 24.17578125 C2.18890625 24.11777344 3.0809375 24.05976563 4 24 C3.67 25.32 3.34 26.64 3 28 C-8.1541427 29.04259791 -8.1541427 29.04259791 -12.19921875 26.7578125 C-15.23576279 23.56686791 -16.34554018 20.76607207 -16.5 16.375 C-15.99170868 9.69944061 -13.48271275 5.81071612 -9 1 C-5.8035914 -0.06546953 -3.34252724 -0.07427838 0 0 Z " fill="#0C0C0C" transform="translate(205,201)"/>
<path d="M0 0 C0 0.33 0 0.66 0 1 C-0.63091553 1.08040527 -1.26183105 1.16081055 -1.91186523 1.24365234 C-4.75505572 1.61134472 -7.5962012 1.99297663 -10.4375 2.375 C-11.43072266 2.50132812 -12.42394531 2.62765625 -13.44726562 2.7578125 C-14.39150391 2.88671875 -15.33574219 3.015625 -16.30859375 3.1484375 C-17.18314209 3.26364746 -18.05769043 3.37885742 -18.95874023 3.49755859 C-19.96916382 3.74626709 -19.96916382 3.74626709 -21 4 C-21.33 4.66 -21.66 5.32 -22 6 C-20.68 6.66 -19.36 7.32 -18 8 C-17.55958549 13.28497409 -17.55958549 13.28497409 -18 16 C-20.5 18.5 -20.5 18.5 -23 20 C-23 17 -23 17 -21 14 C-21 12.68 -21 11.36 -21 10 C-22.32 9.34 -23.64 8.68 -25 8 C-24.25 2.25 -24.25 2.25 -22 0 C-14.31688009 -2.18823035 -7.64037375 -2.19745263 0 0 Z " fill="#161616" transform="translate(343,265)"/>
<path d="M0 0 C1.41152344 -0.02126953 1.41152344 -0.02126953 2.8515625 -0.04296875 C5.375 0.1875 5.375 0.1875 8.375 2.1875 C8.375 3.1775 8.375 4.1675 8.375 5.1875 C2.81156791 6.27599758 -3.1226547 6.84725681 -8.625 5.1875 C-9.91796875 3.13671875 -9.91796875 3.13671875 -10.625 1.1875 C-7.03614625 0.37185142 -3.67914195 0.02533844 0 0 Z " fill="#E9E9E9" transform="translate(205.625,234.8125)"/>
<path d="M0 0 C1.81171098 0.15306901 3.6283794 0.24946661 5.4453125 0.31640625 C6.52167969 0.35830078 7.59804688 0.40019531 8.70703125 0.44335938 C10.39892578 0.50233398 10.39892578 0.50233398 12.125 0.5625 C13.26066406 0.60568359 14.39632812 0.64886719 15.56640625 0.69335938 C18.37747768 0.7996604 21.18863945 0.90169405 24 1 C24 1.33 24 1.66 24 2 C23.29093506 2.01458252 22.58187012 2.02916504 21.85131836 2.04418945 C0.93812123 1.68738316 0.93812123 1.68738316 -19 7 C-18.72265625 5.10546875 -18.72265625 5.10546875 -18 3 C-13.03340491 0.64740232 -5.28543928 -2.64271964 0 0 Z " fill="#252525" transform="translate(328,182)"/>
<path d="M0 0 C0.66 0.33 1.32 0.66 2 1 C-6.5 9.5 -6.5 9.5 -8.30078125 11.2890625 C-9.79144347 12.79000515 -11.24292978 14.32964581 -12.6875 15.875 C-14.92100425 17.92740931 -16.03488028 18.67054225 -19 19 C-14.64002249 11.46912976 -7.86560705 3.87291311 0 0 Z " fill="#050505" transform="translate(308,186)"/>
<path d="M0 0 C0.66 0 1.32 0 2 0 C1.67 1.32 1.34 2.64 1 4 C2.65 3.67 4.3 3.34 6 3 C6.33 2.01 6.66 1.02 7 0 C7.66 0 8.32 0 9 0 C9.125 2.375 9.125 2.375 9 5 C7 7 7 7 3.4375 7.1875 C0 7 0 7 -1 6 C-1.125 3.5 -1.125 3.5 -1 1 C-0.67 0.67 -0.34 0.34 0 0 Z " fill="#0B0B0B" transform="translate(224,244)"/>
<path d="M0 0 C0.99 0 1.98 0 3 0 C3 1.65 3 3.3 3 5 C4.32 5 5.64 5 7 5 C7 4.01 7 3.02 7 2 C7.99 2 8.98 2 10 2 C9.34 3.98 8.68 5.96 8 8 C5.6875 8.25 5.6875 8.25 3 8 C1.1875 6.25 1.1875 6.25 0 4 C0 2.68 0 1.36 0 0 Z " fill="#060606" transform="translate(331,219)"/>
<path d="M0 0 C0.66 0 1.32 0 2 0 C2.33 1.65 2.66 3.3 3 5 C3.66 5 4.32 5 5 5 C5.33 3.68 5.66 2.36 6 1 C6.66 1 7.32 1 8 1 C8.23053497 3.84326464 8.35903101 5.46145349 6.75 7.875 C5 9 5 9 2.875 8.75 C1 8 1 8 0 7 C-0.04092937 4.66702567 -0.04241723 2.33294775 0 0 Z " fill="#020202" transform="translate(291,229)"/>
<path d="M0 0 C0.66 0 1.32 0 2 0 C2 1.65 2 3.3 2 5 C2.45375 4.505 2.9075 4.01 3.375 3.5 C5 2 5 2 7 2 C6.67 3.98 6.34 5.96 6 8 C3.625 8.1875 3.625 8.1875 1 8 C-1 5 -1 5 -0.625 2.3125 C-0.41875 1.549375 -0.2125 0.78625 0 0 Z " fill="#0D0D0D" transform="translate(241,190)"/>
<path d="M0 0 C0.66 0 1.32 0 2 0 C2 1.98 2 3.96 2 6 C2.61875 5.505 3.2375 5.01 3.875 4.5 C6 3 6 3 8 3 C7.42655063 5.86724686 7.1385485 6.8614515 5 9 C2.375 8.625 2.375 8.625 0 8 C0 5.36 0 2.72 0 0 Z " fill="#040404" transform="translate(376,213)"/>
<path d="M0 0 C0.66 0 1.32 0 2 0 C2.125 2.375 2.125 2.375 2 5 C0 7 0 7 -3.125 7.125 C-4.548125 7.063125 -4.548125 7.063125 -6 7 C-6 5.02 -6 3.04 -6 1 C-5.34 1 -4.68 1 -4 1 C-4 1.99 -4 2.98 -4 4 C-2.68 4 -1.36 4 0 4 C0 2.68 0 1.36 0 0 Z " fill="#080808" transform="translate(325,204)"/>
<path d="M0 0 C-0.33 0.99 -0.66 1.98 -1 3 C-4.63 3.66 -8.26 4.32 -12 5 C-11 2 -11 2 -9.375 0.8125 C-6.19617272 -0.27499354 -3.33338467 -0.1282071 0 0 Z " fill="#1B1B1B" transform="translate(190,181)"/>
<path d="M0 0 C-0.33 1.32 -0.66 2.64 -1 4 C-3.97 3.505 -3.97 3.505 -7 3 C-6.67 2.34 -6.34 1.68 -6 1 C-3.911361 0.32624548 -2.19636905 0 0 0 Z " fill="#050505" transform="translate(209,225)"/>
<path d="M0 0 C0 1.32 0 2.64 0 4 C-1.65 4.33 -3.3 4.66 -5 5 C-4.625 3.0625 -4.625 3.0625 -4 1 C-2 0 -2 0 0 0 Z " fill="#080808" transform="translate(229,199)"/>
</svg>
