<?xml version="1.0" encoding="UTF-8"?>
<svg version="1.1" xmlns="http://www.w3.org/2000/svg" width="800" height="300">
<path d="M0 0 C264 0 528 0 800 0 C800 99 800 198 800 300 C536 300 272 300 0 300 C0 201 0 102 0 0 Z " fill="#FEFEFE" transform="translate(0,0)"/>
<path d="M0 0 C2.86168158 2.45286993 3.4108461 4.20354522 4.1875 7.875 C4.21457272 10.20817627 4.21790816 12.54186482 4.1875 14.875 C4.92188293 14.86833817 5.65626587 14.86167633 6.41290283 14.85481262 C15.75435876 14.77401305 25.09576176 14.71962205 34.4375 14.6875 C35.17958836 14.68493195 35.92167671 14.68236389 36.68625259 14.67971802 C58.64945646 14.61254393 80.39375002 15.01761084 102.2331543 17.59960938 C106.70883827 18.01681221 110.86039164 18.20641796 115.1875 16.875 C115.1875 17.535 115.1875 18.195 115.1875 18.875 C117.8275 18.875 120.4675 18.875 123.1875 18.875 C123.3421875 17.4828125 123.3421875 17.4828125 123.5 16.0625 C124.1875 12.875 124.1875 12.875 125.3125 10.9375 C127.1875 9.875 127.1875 9.875 130.6875 9.875 C134.1875 10.875 134.1875 10.875 136.0625 12.8125 C137.638982 17.10403432 137.93172042 21.33270748 138.1875 25.875 C137.1975 26.205 136.2075 26.535 135.1875 26.875 C135.12691406 26.18792969 135.06632813 25.50085938 135.00390625 24.79296875 C134.92011719 23.89191406 134.83632813 22.99085938 134.75 22.0625 C134.66878906 21.16917969 134.58757812 20.27585938 134.50390625 19.35546875 C134.25260233 16.74756441 134.25260233 16.74756441 133.1875 13.875 C131.2075 13.545 129.2275 13.215 127.1875 12.875 C126.5275 17.165 125.8675 21.455 125.1875 25.875 C124.5275 25.875 123.8675 25.875 123.1875 25.875 C123.1875 24.225 123.1875 22.575 123.1875 20.875 C122.259375 21.04 121.33125 21.205 120.375 21.375 C113.10825581 22.38564864 105.86519733 22.01493571 98.59375 21.21875 C76.87218562 18.8553292 55.26244369 18.61438605 33.4375 18.6875 C32.666409 18.69006805 31.89531799 18.69263611 31.1008606 18.69528198 C21.46286081 18.72975708 11.82519436 18.7904577 2.1875 18.875 C0.77115167 16.04230334 0.8411995 13.40033562 0.625 10.25 C0.54121094 9.06148437 0.45742187 7.87296875 0.37109375 6.6484375 C0.31050781 5.73320312 0.24992187 4.81796875 0.1875 3.875 C-3.90637383 2.51037539 -7.80660802 2.22582042 -11.9609375 3.5703125 C-14.02929324 4.7552283 -14.02929324 4.7552283 -14.60546875 7.22265625 C-14.73566406 8.11855469 -14.86585938 9.01445312 -15 9.9375 C-15.74809322 14.81059322 -15.74809322 14.81059322 -16.8125 15.875 C-19.01695169 15.875 -21.22147988 15.86949367 -23.42578125 15.84375 C-30.56269379 15.90960386 -37.69006471 16.44051593 -44.8125 16.875 C-45.48845315 15.46274074 -46.15290059 14.04497095 -46.8125 12.625 C-47.18375 11.83609375 -47.555 11.0471875 -47.9375 10.234375 C-48.8125 7.875 -48.8125 7.875 -48.8125 3.875 C-52.4425 3.875 -56.0725 3.875 -59.8125 3.875 C-62.33835624 10.18964061 -62.44451942 14.88024263 -60.75 21.3125 C-60.2859375 23.0759375 -60.2859375 23.0759375 -59.8125 24.875 C-61.40632511 26.46882511 -63.23332961 26.07096531 -65.4375 26.1875 C-70.31866788 26.67561679 -74.25028313 27.31278313 -77.8125 30.875 C-84.55143695 41.66997423 -85.48788578 58.33506058 -83.08984375 70.55859375 C-81.3862454 77.18676384 -80.05418134 81.2779764 -74.8125 85.875 C-73.68352295 86.9117688 -73.68352295 86.9117688 -72.53173828 87.96948242 C-69.34933308 90.19956616 -67.48460875 90.47566352 -63.63671875 90.703125 C-62.47978516 90.78046875 -61.32285156 90.8578125 -60.13085938 90.9375 C-58.33358398 91.0303125 -58.33358398 91.0303125 -56.5 91.125 C-55.28248047 91.20234375 -54.06496094 91.2796875 -52.81054688 91.359375 C-49.81179624 91.5475319 -46.81305678 91.71879707 -43.8125 91.875 C-43.4825 93.525 -43.1525 95.175 -42.8125 96.875 C-43.8025 96.875 -44.7925 96.875 -45.8125 96.875 C-45.8125 96.215 -45.8125 95.555 -45.8125 94.875 C-51.53036443 97.46503653 -51.53036443 97.46503653 -55.8125 101.875 C-55.99172858 103.36949059 -56.11110485 104.87174061 -56.1875 106.375 C-56.3359375 108.76953125 -56.3359375 108.76953125 -56.8125 110.875 C-59.8125 113.0625 -59.8125 113.0625 -62.8125 114.875 C-64.05304276 118.96182027 -64.05304276 118.96182027 -62.8125 122.875 C-57.90607516 124.51047495 -54.13072976 124.45022753 -49.375 122.375 C-48.529375 121.88 -47.68375 121.385 -46.8125 120.875 C-46.8125 119.225 -46.8125 117.575 -46.8125 115.875 C-47.8025 115.38 -47.8025 115.38 -48.8125 114.875 C-49.28359413 110.16405875 -49.2389434 106.77709182 -47.1875 102.4375 C-42.83146003 97.95664513 -35.68162998 98.08793896 -29.8125 97.875 C-24.19632899 98.16208861 -20.25050715 100.51179464 -16.2265625 104.296875 C-14.33671311 106.40598869 -13.38311433 108.09325513 -12.8125 110.875 C-13.125 113.375 -13.125 113.375 -13.8125 115.875 C-14.53447162 118.48111077 -14.53447162 118.48111077 -14.8125 120.875 C-12.44209692 123.24540308 -11.74947247 123.21965793 -8.5 123.3125 C-4.76756296 123.23436525 -3.94950727 122.97775545 -0.8125 120.625 C0.94731787 118.20525043 1.86217334 116.80293994 2.1875 113.875 C0.2075 113.38 0.2075 113.38 -1.8125 112.875 C-1.93367188 112.27171875 -2.05484375 111.6684375 -2.1796875 111.046875 C-2.34726563 110.24765625 -2.51484375 109.4484375 -2.6875 108.625 C-2.84992188 107.83609375 -3.01234375 107.0471875 -3.1796875 106.234375 C-3.83842493 103.7783416 -4.34411111 101.96047256 -5.8125 99.875 C-8.37196179 98.775784 -8.37196179 98.775784 -11.3125 98.1875 C-16.74782338 96.90733831 -16.74782338 96.90733831 -18.8125 95.875 C-16.9375 92 -16.9375 92 -15.8125 90.875 C-13.85636512 90.77330491 -11.89627112 90.74539113 -9.9375 90.75 C-8.86757812 90.74742187 -7.79765625 90.74484375 -6.6953125 90.7421875 C-3.66474695 90.8458487 -0.73389669 91.06622795 2.27758789 91.37280273 C7.73973358 91.87832685 13.14596173 92.03560734 18.62890625 92.04296875 C20.06619331 92.049049 20.06619331 92.049049 21.53251648 92.05525208 C24.60504585 92.06462158 27.6774584 92.06465861 30.75 92.0625 C31.7970813 92.0632251 32.8441626 92.0639502 33.92297363 92.06469727 C48.05220905 92.06361502 62.01073735 91.73226061 76.078125 90.3125 C81.45259373 89.77963246 86.79154237 89.78147353 92.1875 89.875 C92.1875 91.195 92.1875 92.515 92.1875 93.875 C91.5275 94.535 90.8675 95.195 90.1875 95.875 C89.38828125 95.83761719 88.5890625 95.80023438 87.765625 95.76171875 C85.10047282 95.5995091 85.10047282 95.5995091 83.421875 97.51953125 C82.68710937 98.59267578 82.68710937 98.59267578 81.9375 99.6875 C81.43734375 100.39519531 80.9371875 101.10289062 80.421875 101.83203125 C79.04074487 103.94869343 79.04074487 103.94869343 78.1875 106.875 C77.28 106.978125 76.3725 107.08125 75.4375 107.1875 C72.0545193 107.90313053 70.44713751 108.26772595 68.1875 110.875 C67.43704494 114.28956334 67.43704494 114.28956334 68.1875 117.875 C70.63348887 121.25621991 72.08046559 122.64436783 76.1875 123.5 C80.17357969 122.66956673 81.65005435 120.99243323 84.1875 117.875 C84.5175 116.885 84.8475 115.895 85.1875 114.875 C84.1975 114.545 83.2075 114.215 82.1875 113.875 C82.60806625 109.10858246 84.7647528 106.06139381 88.1875 102.875 C91.63247117 100.43962888 95.07304891 98.82448871 99.1875 97.875 C99.5175 97.215 99.8475 96.555 100.1875 95.875 C107.20154022 98.28607632 113.35315158 101.86986785 117.41796875 108.19140625 C118.59374818 110.76379678 118.08848683 112.23639572 117.1875 114.875 C116.97534381 116.30906843 116.78924951 117.74715817 116.625 119.1875 C116.480625 120.404375 116.33625 121.62125 116.1875 122.875 C119.56684773 123.16031078 122.81651843 123.30245994 126.1875 122.875 C128.66731735 120.90908798 128.66731735 120.90908798 129.1875 117.875 C128.85823042 114.63714972 128.85823042 114.63714972 127.1875 111.875 C126.383125 111.606875 125.57875 111.33875 124.75 111.0625 C122.1875 109.875 122.1875 109.875 121.3359375 107.90234375 C120.85970656 106.29310184 120.3883945 104.68239655 119.921875 103.0703125 C118.93169585 100.11030888 117.75831382 98.63784376 115.1875 96.875 C113.19198218 96.51580679 111.19201121 96.18003431 109.1875 95.875 C107.1875 92.875 107.1875 92.875 107.5625 90.6875 C107.76875 90.089375 107.975 89.49125 108.1875 88.875 C108.868125 89.04 109.54875 89.205 110.25 89.375 C122.96084818 91.53854863 135.61190747 86.60329576 146.1875 79.875 C146.81527344 79.5553125 147.44304687 79.235625 148.08984375 78.90625 C151.34436315 76.93284948 152.2136076 74.7819294 153.2109375 71.2265625 C154.02989608 67.46391275 154.64102173 63.68596686 155.1875 59.875 C154.5275 59.875 153.8675 59.875 153.1875 59.875 C153.21070313 59.08996094 153.23390625 58.30492187 153.2578125 57.49609375 C153.42947313 47.50299286 151.58493726 39.40354728 146.1875 30.875 C144.86858696 29.85605635 143.53787402 28.85186631 142.1875 27.875 C142.1875 27.215 142.1875 26.555 142.1875 25.875 C145.33404808 26.46040429 147.53600292 27.06967722 149.59375 29.61328125 C150.86336161 31.66865858 152.03583415 33.75149653 153.1875 35.875 C153.70699219 36.64972656 154.22648438 37.42445313 154.76171875 38.22265625 C156.44778907 41.35920898 156.86698269 43.9763631 157.3125 47.5 C157.74329299 50.80274629 158.13351107 53.71303322 159.1875 56.875 C159.13988067 64.13694729 158.61080878 72.90183334 153.6796875 78.625 C149.91892661 81.99787972 145.69657943 84.61604827 141.1875 86.875 C140.37410156 87.2875 139.56070313 87.7 138.72265625 88.125 C132.05155171 91.34091266 125.41856721 93.32278138 118.1875 94.875 C118.80625 95.6175 119.425 96.36 120.0625 97.125 C123.1147408 101.07495868 124.1875 102.81553359 124.1875 107.875 C125.3321875 107.9678125 125.3321875 107.9678125 126.5 108.0625 C129.1875 108.875 129.1875 108.875 131 111.0625 C132.40352264 114.38663257 132.69851799 116.29787408 132.1875 119.875 C130.68737532 122.4397293 129.29566535 124.76683465 127.1875 126.875 C125.21130553 127.00014928 123.23011827 127.0507276 121.25 127.0625 C120.16847656 127.07667969 119.08695313 127.09085938 117.97265625 127.10546875 C115.1875 126.875 115.1875 126.875 113.1875 124.875 C112.9740894 120.67792495 113.07929371 117.35776651 114 113.25 C114.52495196 109.71012064 114.52495196 109.71012064 112.125 106.625 C109.38560583 103.84057469 107.00412056 101.97594824 103.1875 100.875 C99.97704915 101.43753917 97.15302401 102.5454385 94.1875 103.875 C92.7334375 104.5246875 92.7334375 104.5246875 91.25 105.1875 C88.4219112 107.50139083 87.93884601 109.32318248 87.1875 112.875 C87.249375 114.050625 87.31125 115.22625 87.375 116.4375 C87.1875 119.875 87.1875 119.875 84.875 122.6875 C79.83318911 126.79129956 79.83318911 126.79129956 75.8125 127.3125 C71.25855148 126.76288552 70.03393724 125.37205147 67.1875 121.875 C64.37051035 117.64951553 64.39714296 113.8371385 65.1875 108.875 C67.72159475 105.89371206 69.49180481 105.05957219 73.25 104.0625 C77.5318239 102.33154991 78.20740319 99.98186746 80.1875 95.875 C80.5175 95.215 80.8475 94.555 81.1875 93.875 C80.64601318 93.93558594 80.10452637 93.99617188 79.54663086 94.05859375 C63.41997244 95.76877268 47.39090867 96.07395196 31.1875 96.0625 C30.1862912 96.0632251 29.1850824 96.0639502 28.15353394 96.06469727 C15.46468623 96.06365974 2.84795177 95.73345292 -9.8125 94.875 C-8.93766968 95.42752441 -8.93766968 95.42752441 -8.04516602 95.99121094 C-2.86716237 99.33648439 -0.99020601 101.96081786 0.53515625 107.8828125 C1.40200846 110.53008573 2.74464738 111.61145554 5.1875 112.875 C4.92876898 117.27342734 4.62643111 119.37022922 1.6875 122.75 C0.45 123.801875 0.45 123.801875 -0.8125 124.875 C-1.1425 125.205 -1.4725 125.535 -1.8125 125.875 C-3.93369924 126.02693163 -6.06105315 126.09683514 -8.1875 126.125 C-9.93160156 126.16367187 -9.93160156 126.16367187 -11.7109375 126.203125 C-14.8125 125.875 -14.8125 125.875 -16.7421875 124.8515625 C-18.45201131 121.69400467 -17.81172419 118.46772102 -17.5625 115 C-17.28732247 109.66334336 -17.28732247 109.66334336 -19.078125 104.74609375 C-23.03292898 101.76217633 -27.88991338 100.56733834 -32.8125 100.875 C-39.36317555 102.03385907 -39.36317555 102.03385907 -44.59375 105.81640625 C-46.08369759 108.33308054 -46.05220201 109.99857583 -45.8125 112.875 C-44.8225 113.37 -44.8225 113.37 -43.8125 113.875 C-43.44740793 121.29853883 -43.44740793 121.29853883 -45 123.75 C-50.39112253 127.09621398 -55.55177929 127.56724229 -61.8125 126.875 C-65.55436551 125.39126898 -65.55436551 125.39126898 -66.8125 122.875 C-67.19184197 117.84871884 -66.83698301 114.94641944 -63.8125 110.875 C-62.8225 109.885 -62.8225 109.885 -61.8125 108.875 C-60.8225 108.875 -59.8325 108.875 -58.8125 108.875 C-58.915625 107.67875 -59.01875 106.4825 -59.125 105.25 C-59.15605513 101.75940321 -58.5739318 100.03775632 -56.3125 97.375 C-55.075 96.1375 -55.075 96.1375 -53.8125 94.875 C-54.76769531 94.895625 -55.72289062 94.91625 -56.70703125 94.9375 C-66.55235699 94.78044595 -72.49297722 92.9803543 -79.8125 85.875 C-86.64832767 78.42110473 -88.46478364 67.81633378 -88.0703125 57.94140625 C-86.08907227 34.37665502 -86.08907227 34.37665502 -79.4375 27.375 C-78.57125 26.88 -77.705 26.385 -76.8125 25.875 C-75.86375 25.2975 -74.915 24.72 -73.9375 24.125 C-70.35944602 22.69377841 -67.63197914 22.64583125 -63.8125 22.875 C-64.1425 22.05 -64.4725 21.225 -64.8125 20.375 C-66.41270748 14.77427382 -66.84699858 10.76563534 -64 5.5625 C-59.47138063 -0.00123237 -59.47138063 -0.00123237 -56.69140625 -0.5234375 C-50.56455521 -0.46144575 -50.56455521 -0.46144575 -47.4375 0.9375 C-44.11285903 4.901495 -42.8125 8.75178027 -42.8125 13.875 C-41.7503125 13.730625 -40.688125 13.58625 -39.59375 13.4375 C-38.1667021 13.24973054 -36.73961671 13.06224581 -35.3125 12.875 C-34.26835937 12.73191406 -34.26835937 12.73191406 -33.203125 12.5859375 C-28.36549871 11.9588378 -23.69068804 11.78710472 -18.8125 11.875 C-18.71453125 11.26011719 -18.6165625 10.64523438 -18.515625 10.01171875 C-17.28563196 3.36339428 -17.28563196 3.36339428 -14.875 0.875 C-9.86714481 -1.553051 -5.23581348 -2.09432539 0 0 Z " fill="#0E0E0E" transform="translate(248.8125,158.125)"/>
<path d="M0 0 C2.86168158 2.45286993 3.4108461 4.20354522 4.1875 7.875 C4.21457272 10.20817627 4.21790816 12.54186482 4.1875 14.875 C4.92188293 14.86833817 5.65626587 14.86167633 6.41290283 14.85481262 C15.75435876 14.77401305 25.09576176 14.71962205 34.4375 14.6875 C35.17958836 14.68493195 35.92167671 14.68236389 36.68625259 14.67971802 C58.64945646 14.61254393 80.39375002 15.01761084 102.2331543 17.59960938 C106.70883827 18.01681221 110.86039164 18.20641796 115.1875 16.875 C115.1875 17.535 115.1875 18.195 115.1875 18.875 C117.8275 18.875 120.4675 18.875 123.1875 18.875 C123.3421875 17.4828125 123.3421875 17.4828125 123.5 16.0625 C124.1875 12.875 124.1875 12.875 125.3125 10.9375 C127.1875 9.875 127.1875 9.875 130.6875 9.875 C134.1875 10.875 134.1875 10.875 136.0625 12.8125 C137.638982 17.10403432 137.93172042 21.33270748 138.1875 25.875 C137.1975 26.205 136.2075 26.535 135.1875 26.875 C135.12691406 26.18792969 135.06632813 25.50085938 135.00390625 24.79296875 C134.92011719 23.89191406 134.83632813 22.99085938 134.75 22.0625 C134.66878906 21.16917969 134.58757812 20.27585938 134.50390625 19.35546875 C134.25260233 16.74756441 134.25260233 16.74756441 133.1875 13.875 C131.2075 13.545 129.2275 13.215 127.1875 12.875 C126.5275 17.165 125.8675 21.455 125.1875 25.875 C124.5275 25.875 123.8675 25.875 123.1875 25.875 C123.1875 24.225 123.1875 22.575 123.1875 20.875 C122.259375 21.04 121.33125 21.205 120.375 21.375 C113.10825581 22.38564864 105.86519733 22.01493571 98.59375 21.21875 C76.87218562 18.8553292 55.26244369 18.61438605 33.4375 18.6875 C32.666409 18.69006805 31.89531799 18.69263611 31.1008606 18.69528198 C21.46286081 18.72975708 11.82519436 18.7904577 2.1875 18.875 C0.77115167 16.04230334 0.8411995 13.40033562 0.625 10.25 C0.54121094 9.06148437 0.45742187 7.87296875 0.37109375 6.6484375 C0.31050781 5.73320312 0.24992187 4.81796875 0.1875 3.875 C-3.90637383 2.51037539 -7.80660802 2.22582042 -11.9609375 3.5703125 C-14.02929324 4.7552283 -14.02929324 4.7552283 -14.60546875 7.22265625 C-14.73566406 8.11855469 -14.86585938 9.01445312 -15 9.9375 C-15.74809322 14.81059322 -15.74809322 14.81059322 -16.8125 15.875 C-19.01695169 15.875 -21.22147988 15.86949367 -23.42578125 15.84375 C-30.56269379 15.90960386 -37.69006471 16.44051593 -44.8125 16.875 C-45.48845315 15.46274074 -46.15290059 14.04497095 -46.8125 12.625 C-47.18375 11.83609375 -47.555 11.0471875 -47.9375 10.234375 C-48.8125 7.875 -48.8125 7.875 -48.8125 3.875 C-52.4425 3.875 -56.0725 3.875 -59.8125 3.875 C-62.33835624 10.18964061 -62.44451942 14.88024263 -60.75 21.3125 C-60.2859375 23.0759375 -60.2859375 23.0759375 -59.8125 24.875 C-61.40632511 26.46882511 -63.23332961 26.07096531 -65.4375 26.1875 C-70.31866788 26.67561679 -74.25028313 27.31278313 -77.8125 30.875 C-84.55143695 41.66997423 -85.48788578 58.33506058 -83.08984375 70.55859375 C-81.38188918 77.20371256 -80.01529792 81.21857741 -74.8125 85.875 C-74.090625 86.6175 -73.36875 87.36 -72.625 88.125 C-68.55026618 90.66038993 -64.53261205 90.69169468 -59.8125 90.875 C-59.8125 91.205 -59.8125 91.535 -59.8125 91.875 C-61.4625 91.875 -63.1125 91.875 -64.8125 91.875 C-64.8125 92.535 -64.8125 93.195 -64.8125 93.875 C-72.28431515 93.11256988 -77.47763611 88.84942683 -82.23828125 83.17578125 C-90.14476453 70.56814574 -88.62911483 54.7671172 -85.8125 40.875 C-84.44012266 35.70803093 -83.16077625 31.29423816 -79.4375 27.375 C-78.57125 26.88 -77.705 26.385 -76.8125 25.875 C-75.86375 25.2975 -74.915 24.72 -73.9375 24.125 C-70.35944602 22.69377841 -67.63197914 22.64583125 -63.8125 22.875 C-64.1425 22.05 -64.4725 21.225 -64.8125 20.375 C-66.41270748 14.77427382 -66.84699858 10.76563534 -64 5.5625 C-59.47138063 -0.00123237 -59.47138063 -0.00123237 -56.69140625 -0.5234375 C-50.56455521 -0.46144575 -50.56455521 -0.46144575 -47.4375 0.9375 C-44.11285903 4.901495 -42.8125 8.75178027 -42.8125 13.875 C-41.7503125 13.730625 -40.688125 13.58625 -39.59375 13.4375 C-38.1667021 13.24973054 -36.73961671 13.06224581 -35.3125 12.875 C-34.26835937 12.73191406 -34.26835937 12.73191406 -33.203125 12.5859375 C-28.36549871 11.9588378 -23.69068804 11.78710472 -18.8125 11.875 C-18.71453125 11.26011719 -18.6165625 10.64523438 -18.515625 10.01171875 C-17.28563196 3.36339428 -17.28563196 3.36339428 -14.875 0.875 C-9.86714481 -1.553051 -5.23581348 -2.09432539 0 0 Z " fill="#1D1D1D" transform="translate(248.8125,158.125)"/>
<path d="M0 0 C6.93 0 13.86 0 21 0 C21.33 1.65 21.66 3.3 22 5 C21.01 5 20.02 5 19 5 C19 4.34 19 3.68 19 3 C13.28213557 5.59003653 13.28213557 5.59003653 9 10 C8.82077142 11.49449059 8.70139515 12.99674061 8.625 14.5 C8.4765625 16.89453125 8.4765625 16.89453125 8 19 C5 21.1875 5 21.1875 2 23 C0.75945724 27.08682027 0.75945724 27.08682027 2 31 C6.90642484 32.63547495 10.68177024 32.57522753 15.4375 30.5 C16.283125 30.005 17.12875 29.51 18 29 C18 27.35 18 25.7 18 24 C17.34 23.67 16.68 23.34 16 23 C15.52890587 18.28905875 15.5735566 14.90209182 17.625 10.5625 C21.98103997 6.08164513 29.13087002 6.21293896 35 6 C40.61617101 6.28708861 44.56199285 8.63679464 48.5859375 12.421875 C50.47578689 14.53098869 51.42938567 16.21825513 52 19 C51.6875 21.5 51.6875 21.5 51 24 C50.27802838 26.60611077 50.27802838 26.60611077 50 29 C52.39763185 31.39763185 53.33273498 31.34280586 56.625 31.625 C57.44226563 31.69976562 58.25953125 31.77453125 59.1015625 31.8515625 C59.72804687 31.90054687 60.35453125 31.94953125 61 32 C61 32.66 61 33.32 61 34 C59.22992286 34.08114106 57.45877902 34.13925505 55.6875 34.1875 C54.70136719 34.22230469 53.71523437 34.25710938 52.69921875 34.29296875 C50 34 50 34 48.12890625 32.98046875 C46.33581453 29.83480265 46.99925523 26.61387842 47.25 23.125 C47.52517753 17.78834336 47.52517753 17.78834336 45.734375 12.87109375 C41.77957102 9.88717633 36.92258662 8.69233834 32 9 C25.44932445 10.15885907 25.44932445 10.15885907 20.21875 13.94140625 C18.72880241 16.45808054 18.76029799 18.12357583 19 21 C19.66 21.33 20.32 21.66 21 22 C21.36509207 29.42353883 21.36509207 29.42353883 19.8125 31.875 C14.42137747 35.22121398 9.26072071 35.69224229 3 35 C-0.74186551 33.51626898 -0.74186551 33.51626898 -2 31 C-2.37934197 25.97371884 -2.02448301 23.07141944 1 19 C1.66 18.34 2.32 17.68 3 17 C3.99 17 4.98 17 6 17 C5.896875 15.80375 5.79375 14.6075 5.6875 13.375 C5.65644487 9.88440321 6.2385682 8.16275632 8.5 5.5 C9.325 4.675 10.15 3.85 11 3 C7.37 2.67 3.74 2.34 0 2 C0 1.34 0 0.68 0 0 Z " fill="#0C0C0C" transform="translate(184,250)"/>
<path d="M0 0 C7.20540717 0.0169539 14.28387654 0.3291243 21.4453125 1.1328125 C21.4453125 1.4628125 21.4453125 1.7928125 21.4453125 2.1328125 C19.4653125 2.1328125 17.4853125 2.1328125 15.4453125 2.1328125 C15.4453125 2.7928125 15.4453125 3.4528125 15.4453125 4.1328125 C11.4853125 4.1328125 7.5253125 4.1328125 3.4453125 4.1328125 C5.3325 5.339375 5.3325 5.339375 7.2578125 6.5703125 C11.41500636 9.63889145 12.53094701 12.24101117 13.79296875 17.140625 C14.65982096 19.78789823 16.00245988 20.86926804 18.4453125 22.1328125 C18.1917272 26.44376258 17.8607134 28.62995878 15.0703125 32.0078125 C12.4453125 34.1328125 12.4453125 34.1328125 9.4453125 35.1328125 C10.47152112 32.922517 11.50248044 31.05963753 13.0078125 29.1328125 C14.47725236 27.08837444 15.00695898 25.58759222 15.4453125 23.1328125 C14.1253125 22.8028125 12.8053125 22.4728125 11.4453125 22.1328125 C11.32414062 21.52953125 11.20296875 20.92625 11.078125 20.3046875 C10.91054687 19.50546875 10.74296875 18.70625 10.5703125 17.8828125 C10.32667969 16.69945312 10.32667969 16.69945312 10.078125 15.4921875 C9.41938757 13.0361541 8.91370139 11.21828506 7.4453125 9.1328125 C4.88585071 8.0335965 4.88585071 8.0335965 1.9453125 7.4453125 C-3.49001088 6.16515081 -3.49001088 6.16515081 -5.5546875 5.1328125 C-3.15031592 0.16377789 -3.15031592 0.16377789 0 0 Z " fill="#1D1D1D" transform="translate(235.5546875,248.8671875)"/>
<path d="M0 0 C3.14654808 0.58540429 5.34850292 1.19467722 7.40625 3.73828125 C8.67586161 5.79365858 9.84833415 7.87649653 11 10 C11.51949219 10.77472656 12.03898437 11.54945313 12.57421875 12.34765625 C14.26028907 15.48420898 14.67948269 18.1013631 15.125 21.625 C15.55579299 24.92774629 15.94601107 27.83803322 17 31 C16.86294822 37.52577344 15.77256867 43.73692402 14 50 C13.01 49.34 12.02 48.68 11 48 C11.66 43.38 12.32 38.76 13 34 C12.34 34 11.68 34 11 34 C11.02320313 33.21496094 11.04640625 32.42992187 11.0703125 31.62109375 C11.24197313 21.62799286 9.39743726 13.52854728 4 5 C2.68108696 3.98105635 1.35037402 2.97686631 0 2 C0 1.34 0 0.68 0 0 Z " fill="#1C1C1C" transform="translate(391,184)"/>
<path d="M0 0 C1.18851563 0.00902344 2.37703125 0.01804688 3.6015625 0.02734375 C4.51679688 0.03894531 5.43203125 0.05054688 6.375 0.0625 C6.375 1.0525 6.375 2.0425 6.375 3.0625 C5.48296875 3.08828125 4.5909375 3.1140625 3.671875 3.140625 C2.50140625 3.19734375 1.3309375 3.2540625 0.125 3.3125 C-1.61523438 3.38210937 -1.61523438 3.38210937 -3.390625 3.453125 C-6.64596632 3.84509996 -6.64596632 3.84509996 -9.03125 5.6875 C-11.17128492 8.87657164 -11.02717791 11.00805221 -10.875 14.8125 C-10.83890625 15.98296875 -10.8028125 17.1534375 -10.765625 18.359375 C-10.71921875 19.25140625 -10.6728125 20.1434375 -10.625 21.0625 C-9.84125 21.371875 -9.0575 21.68125 -8.25 22 C-5.625 23.0625 -5.625 23.0625 -3.625 24.0625 C-2.08831135 24.28717831 -0.54531946 24.47046805 1 24.625 C1.81726563 24.70878906 2.63453125 24.79257813 3.4765625 24.87890625 C4.41628906 24.96978516 4.41628906 24.96978516 5.375 25.0625 C5.375 26.0525 5.375 27.0425 5.375 28.0625 C-1.82889756 28.87463041 -6.03722334 27.84341307 -11.91015625 23.5703125 C-14.17630074 21.5777572 -14.57386719 20.48903826 -14.93359375 17.48828125 C-15.32440934 8.04949266 -15.32440934 8.04949266 -11.75 3.875 C-7.91045117 0.06327399 -5.39184402 -0.05286122 0 0 Z " fill="#1B1B1B" transform="translate(200.625,197.9375)"/>
<path d="M0 0 C3.5 1 3.5 1 5.375 2.9375 C6.951482 7.22903432 7.24422042 11.45770748 7.5 16 C6.51 16.33 5.52 16.66 4.5 17 C4.43941406 16.31292969 4.37882812 15.62585938 4.31640625 14.91796875 C4.23261719 14.01691406 4.14882813 13.11585938 4.0625 12.1875 C3.98128906 11.29417969 3.90007812 10.40085938 3.81640625 9.48046875 C3.56510233 6.87256441 3.56510233 6.87256441 2.5 4 C0.52 3.67 -1.46 3.34 -3.5 3 C-4.16 7.29 -4.82 11.58 -5.5 16 C-6.16 16 -6.82 16 -7.5 16 C-7.5 14.35 -7.5 12.7 -7.5 11 C-8.428125 11.165 -9.35625 11.33 -10.3125 11.5 C-18.05611089 12.5972728 -25.79582425 12.16289445 -33.5 11 C-33.5 10.34 -33.5 9.68 -33.5 9 C-32.53578125 8.93941406 -31.5715625 8.87882813 -30.578125 8.81640625 C-29.31484375 8.73261719 -28.0515625 8.64882812 -26.75 8.5625 C-25.49703125 8.48128906 -24.2440625 8.40007812 -22.953125 8.31640625 C-20.31682447 8.07484478 -18.01962706 7.75716066 -15.5 7 C-15.5 7.66 -15.5 8.32 -15.5 9 C-12.86 9 -10.22 9 -7.5 9 C-7.396875 8.071875 -7.29375 7.14375 -7.1875 6.1875 C-6.5 3 -6.5 3 -5.375 1.0625 C-3.5 0 -3.5 0 0 0 Z " fill="#070707" transform="translate(379.5,168)"/>
<path d="M0 0 C2.96205176 0.38167999 4.22159893 0.97530184 6.15234375 3.27734375 C9.24442776 9.141641 9.24442776 9.141641 8.96484375 12.58984375 C8.15234375 14.27734375 8.15234375 14.27734375 6.15234375 16.27734375 C4.97568406 12.27670079 3.9715447 8.37334851 3.15234375 4.27734375 C-0.47765625 4.27734375 -4.10765625 4.27734375 -7.84765625 4.27734375 C-10.63975925 11.25760126 -10.05053579 17.06006649 -8.84765625 24.27734375 C-12.14765625 24.27734375 -15.44765625 24.27734375 -18.84765625 24.27734375 C-18.84765625 23.94734375 -18.84765625 23.61734375 -18.84765625 23.27734375 C-16.53765625 23.27734375 -14.22765625 23.27734375 -11.84765625 23.27734375 C-12.17765625 22.45234375 -12.50765625 21.62734375 -12.84765625 20.77734375 C-14.44786373 15.17661757 -14.88215483 11.16797909 -12.03515625 5.96484375 C-7.99287406 0.99861134 -6.47578976 -0.26239018 0 0 Z " fill="#181818" transform="translate(196.84765625,157.72265625)"/>
<path d="M0 0 C6.93 0 13.86 0 21 0 C21.33 1.65 21.66 3.3 22 5 C21.01 5 20.02 5 19 5 C19 4.34 19 3.68 19 3 C13.28213557 5.59003653 13.28213557 5.59003653 9 10 C8.38379765 12.99298284 8.13033972 15.95005066 8 19 C6.35 19.33 4.7 19.66 3 20 C3.66 19.01 4.32 18.02 5 17 C5.103125 15.741875 5.20625 14.48375 5.3125 13.1875 C5.76599126 8.46944672 7.74435192 6.33912624 11 3 C7.37 2.67 3.74 2.34 0 2 C0 1.34 0 0.68 0 0 Z " fill="#050505" transform="translate(184,250)"/>
<path d="M0 0 C0 1.65 0 3.3 0 5 C-1.27875 4.979375 -2.5575 4.95875 -3.875 4.9375 C-11.92837935 4.92586217 -19.96483175 5.50983723 -28 6 C-27.67 4.68 -27.34 3.36 -27 2 C-25.87722656 1.93941406 -24.75445312 1.87882813 -23.59765625 1.81640625 C-15.80820257 1.38433499 -7.75739311 0 0 0 Z " fill="#111111" transform="translate(232,169)"/>
<path d="M0 0 C11.05994427 -0.10611887 21.9760632 -0.00708069 33 1 C33 1.33 33 1.66 33 2 C30.36 2 27.72 2 25 2 C25 2.66 25 3.32 25 4 C21.77053202 3.86040799 18.54151309 3.71221895 15.3125 3.5625 C14.40048828 3.52318359 13.48847656 3.48386719 12.54882812 3.44335938 C11.21948242 3.38051758 11.21948242 3.38051758 9.86328125 3.31640625 C9.05157471 3.27974854 8.23986816 3.24309082 7.40356445 3.20532227 C4.87855515 2.98962569 2.47399303 2.54100548 0 2 C0 1.34 0 0.68 0 0 Z " fill="#252525" transform="translate(321,175)"/>
<path d="M0 0 C0 0.99 0 1.98 0 3 C-0.88042969 3.00257813 -1.76085937 3.00515625 -2.66796875 3.0078125 C-9.03590917 3.06343401 -9.03590917 3.06343401 -14.94140625 5.0859375 C-18.59971974 9.03910014 -18.8748743 13.88122141 -19 19 C-19.33 19 -19.66 19 -20 19 C-21.02403597 8.0444406 -21.02403597 8.0444406 -18.8984375 3.80078125 C-13.70247635 -1.48476544 -6.9064036 -0.56082074 0 0 Z " fill="#1A1A1A" transform="translate(207,198)"/>
<path d="M0 0 C7.59 0.33 15.18 0.66 23 1 C23 1.99 23 2.98 23 4 C7.25512528 4.18451025 7.25512528 4.18451025 0 3 C0 2.01 0 1.02 0 0 Z " fill="#343434" transform="translate(192,231)"/>
<path d="M0 0 C0.99 0.33 1.98 0.66 3 1 C3.391875 1.886875 3.78375 2.77375 4.1875 3.6875 C6.61796159 8.12937809 9.48930505 10.70323546 14 13 C17.34807189 13.72866998 20.57791873 13.98597508 24 14 C24 14.33 24 14.66 24 15 C22.35 15 20.7 15 19 15 C19 15.66 19 16.32 19 17 C14.14554935 16.52518512 11.54089332 15.30316512 7.8125 12.1875 C6.97332031 11.50042969 6.13414062 10.81335938 5.26953125 10.10546875 C3.16558738 8.15361721 1.48075218 6.45505818 0 4 C0 2.68 0 1.36 0 0 Z " fill="#141414" transform="translate(165,235)"/>
<path d="M0 0 C1.32 0.33 2.64 0.66 4 1 C4 2.98 4 4.96 4 7 C5.32 6.67 6.64 6.34 8 6 C8.33 4.02 8.66 2.04 9 0 C10.32 0 11.64 0 13 0 C12.68657358 3.44769066 12.32465015 5.55940337 10.25 8.375 C7.58988985 10.29619066 6.20935531 10.35659503 3 10 C0.96564469 6.27034861 0 4.33094958 0 0 Z " fill="#121212" transform="translate(319,220)"/>
<path d="M0 0 C0.99 0 1.98 0 3 0 C3 2.64 3 5.28 3 8 C3.99 8 4.98 8 6 8 C6.66 6.35 7.32 4.7 8 3 C8.99 3 9.98 3 11 3 C10.65544802 6.10096781 10.15182706 7.79937138 8.25 10.3125 C5.58761061 12.30929204 4.25047681 12.36116409 1 12 C-1.83022097 8.00439392 -0.76210446 4.57262677 0 0 Z " fill="#1F1F1F" transform="translate(297,228)"/>
<path d="M0 0 C0.99 0 1.98 0 3 0 C2.85950482 1.47968324 2.71245174 2.95874516 2.5625 4.4375 C2.48128906 5.26121094 2.40007812 6.08492187 2.31640625 6.93359375 C2 9 2 9 1 10 C-1.4375 10.25 -1.4375 10.25 -4 10 C-6.29013653 6.5647952 -6.17842973 5.014669 -6 1 C-5.01 1 -4.02 1 -3 1 C-3 2.98 -3 4.96 -3 7 C-2.34 6.67 -1.68 6.34 -1 6 C-0.34227572 2.97065509 -0.34227572 2.97065509 0 0 Z " fill="#1D1D1D" transform="translate(240,221)"/>
<path d="M0 0 C0.99 0.33 1.98 0.66 3 1 C3.13277344 2.01320312 3.26554688 3.02640625 3.40234375 4.0703125 C3.58067584 5.42188204 3.75906425 6.77344414 3.9375 8.125 C4.02451172 8.79015625 4.11152344 9.4553125 4.20117188 10.140625 C4.72630558 14.10830188 5.31814014 18.05626998 6 22 C5.01 22.33 4.02 22.66 3 23 C0.41283102 15.1768938 -0.38750039 8.2236194 0 0 Z " fill="#262626" transform="translate(161,213)"/>
<path d="M0 0 C0.99 0 1.98 0 3 0 C3.33 1.98 3.66 3.96 4 6 C4.33 6 4.66 6 5 6 C5.33 4.35 5.66 2.7 6 1 C6.99 1 7.98 1 9 1 C9.125 3.875 9.125 3.875 9 7 C7 9 7 9 4.5 9.25 C2 9 2 9 0 7 C-0.125 3.375 -0.125 3.375 0 0 Z " fill="#191919" transform="translate(284,192)"/>
<path d="M0 0 C0.66 0.33 1.32 0.66 2 1 C2 1.99 2 2.98 2 4 C1.01 4.66 0.02 5.32 -1 6 C-2.25885413 10.35757199 -2.02043112 12.95913777 0 17 C-1.9375 16.625 -1.9375 16.625 -4 16 C-5.53214888 12.93570224 -5.22938548 10.3834358 -5 7 C-3.59539303 4.12694028 -2.25489001 2.25489001 0 0 Z " fill="#171717" transform="translate(187,267)"/>
<path d="M0 0 C0.99 0 1.98 0 3 0 C3 1.32 3 2.64 3 4 C3.66 3.67 4.32 3.34 5 3 C5.33 2.01 5.66 1.02 6 0 C6.99 0 7.98 0 9 0 C8.25 4.75 8.25 4.75 6 7 C3.375 6.625 3.375 6.625 1 6 C0.67 4.02 0.34 2.04 0 0 Z " fill="#171717" transform="translate(172,223)"/>
<path d="M0 0 C0.33 0 0.66 0 1 0 C1.22262303 6.7281627 0.95021536 12.53991163 -1 19 C-1.99 18.34 -2.98 17.68 -4 17 C-3.7168444 14.91549283 -3.42314331 12.83241633 -3.125 10.75 C-2.96257812 9.58984375 -2.80015625 8.4296875 -2.6328125 7.234375 C-2.08179569 4.41806687 -1.44203518 2.44782443 0 0 Z " fill="#2B2B2B" transform="translate(406,215)"/>
<path d="M0 0 C0.99 0.33 1.98 0.66 3 1 C3.73046875 2.890625 3.73046875 2.890625 4.1875 5.25 C4.34605469 6.01828125 4.50460938 6.7865625 4.66796875 7.578125 C5 10 5 10 5 15 C1.7 15 -1.6 15 -5 15 C-5 14.67 -5 14.34 -5 14 C-2.69 14 -0.38 14 2 14 C1.67 13.175 1.34 12.35 1 11.5 C-0.16782809 7.4126017 -0.1458885 4.23076656 0 0 Z " fill="#393939" transform="translate(183,167)"/>
<path d="M0 0 C6.27 0 12.54 0 19 0 C19 0.33 19 0.66 19 1 C16.36 1 13.72 1 11 1 C11 1.66 11 2.32 11 3 C7.37 2.67 3.74 2.34 0 2 C0 1.34 0 0.68 0 0 Z " fill="#2B2B2B" transform="translate(321,175)"/>
<path d="M0 0 C0.28875 0.598125 0.5775 1.19625 0.875 1.8125 C2.04742026 4.19327792 2.04742026 4.19327792 4 7 C3.64111965 9.96076291 3.15341979 10.84658021 1 13 C0.32741333 10.66836622 -0.33847444 8.3347961 -1 6 C-1.2475 5.236875 -1.495 4.47375 -1.75 3.6875 C-1.8325 3.130625 -1.915 2.57375 -2 2 C-1.34 1.34 -0.68 0.68 0 0 Z " fill="#202020" transform="translate(202,161)"/>
<path d="M0 0 C0.33 0.99 0.66 1.98 1 3 C1.66 3.33 2.32 3.66 3 4 C2 5 2 5 -0.50390625 5.09765625 C-2.01791016 5.08025391 -2.01791016 5.08025391 -3.5625 5.0625 C-4.57441406 5.05347656 -5.58632812 5.04445312 -6.62890625 5.03515625 C-7.41136719 5.02355469 -8.19382813 5.01195312 -9 5 C-8.67 4.34 -8.34 3.68 -8 3 C-5.36 3 -2.72 3 0 3 C0 2.01 0 1.02 0 0 Z " fill="#060606" transform="translate(186,179)"/>
<path d="M0 0 C0 0.99 0 1.98 0 3 C-3.3 3 -6.6 3 -10 3 C-5.78492722 -0.16130459 -4.93928888 -0.3367697 0 0 Z " fill="#373737" transform="translate(206,223)"/>
<path d="M0 0 C1.65 0 3.3 0 5 0 C4.67 1.32 4.34 2.64 4 4 C2.35 4 0.7 4 -1 4 C-0.67 2.68 -0.34 1.36 0 0 Z " fill="#2B2B2B" transform="translate(181,196)"/>
<path d="M0 0 C2.97 0.33 5.94 0.66 9 1 C9 1.66 9 2.32 9 3 C6.03 3 3.06 3 0 3 C0 2.01 0 1.02 0 0 Z " fill="#050505" transform="translate(187,282)"/>
<path d="M0 0 C1.32 0.33 2.64 0.66 4 1 C4 2.65 4 4.3 4 6 C3.01 6.33 2.02 6.66 1 7 C0.67 4.69 0.34 2.38 0 0 Z " fill="#282828" transform="translate(319,220)"/>
<path d="M0 0 C0.99 0.33 1.98 0.66 3 1 C0.63707344 3.52588702 -0.66462511 4.88820837 -4 6 C-3.6875 4.125 -3.6875 4.125 -3 2 C-2.01 1.34 -1.02 0.68 0 0 Z " fill="#141414" transform="translate(236,158)"/>
<path d="M0 0 C0.66 0.33 1.32 0.66 2 1 C2 1.66 2 2.32 2 3 C-1.465 4.485 -1.465 4.485 -5 6 C-4.75 4.125 -4.75 4.125 -4 2 C-2.0625 0.6875 -2.0625 0.6875 0 0 Z " fill="#181818" transform="translate(388,242)"/>
<path d="M0 0 C1.9375 0.3125 1.9375 0.3125 4 1 C4.33 1.99 4.66 2.98 5 4 C3.68 4.33 2.36 4.66 1 5 C0.67 3.35 0.34 1.7 0 0 Z " fill="#222222" transform="translate(226,194)"/>
</svg>
