<?xml version="1.0" encoding="UTF-8"?>
<svg version="1.1" xmlns="http://www.w3.org/2000/svg" width="800" height="300">
<path d="M0 0 C264 0 528 0 800 0 C800 99 800 198 800 300 C536 300 272 300 0 300 C0 201 0 102 0 0 Z " fill="#FEFEFE" transform="translate(0,0)"/>
<path d="M0 0 C3.80414376 0.21946983 6.51376957 0.73574433 9.875 2.5625 C12 5 12 5 13 13 C19.93 13 26.86 13 34 13 C34 50.62 34 88.24 34 127 C26 125 26 125 23.5 123.5625 C21.72453094 120.52940702 21.96879775 119.32077542 22.1875 115.875 C22.47668613 108.88788996 19.2686168 105.21922954 15 100 C11 94.43227666 11 94.43227666 11 92 C10.41621582 91.94054199 9.83243164 91.88108398 9.23095703 91.81982422 C-14.66151063 89.25840074 -14.66151063 89.25840074 -22.875 80 C-23.57625 79.01 -24.2775 78.02 -25 77 C-25.721875 76.071875 -26.44375 75.14375 -27.1875 74.1875 C-30.9591228 67.55464611 -31.36498142 60.19157119 -31.3125 52.6875 C-31.30831055 51.8622583 -31.30412109 51.0370166 -31.29980469 50.18676758 C-31.13478427 41.20105481 -30.14298669 31.99617928 -24 25 C-18.81473621 20.05624164 -12.8689232 18.52780751 -6 17 C-6.103125 16.21625 -6.20625 15.4325 -6.3125 14.625 C-5.88272354 9.63959301 -3.63856553 3.63856553 0 0 Z " fill="#FBFBFB" transform="translate(766,155)"/>
<path d="M0 0 C0 0.99 0 1.98 0 3 C-0.80824219 3.23074219 -1.61648438 3.46148437 -2.44921875 3.69921875 C-9.33331207 5.80015435 -14.2610006 7.31550731 -18.04833984 13.79296875 C-21.35416313 20.42639486 -21.69591222 26.47837753 -21.625 33.8125 C-21.61807129 34.96580811 -21.61114258 36.11911621 -21.60400391 37.30737305 C-21.34761015 47.29468896 -19.63636488 54.80357021 -12.25 62 C-1.9972211 68.3094024 8.22397416 69.08113145 20 70 C20.25910156 70.86109375 20.51820313 71.7221875 20.78515625 72.609375 C22.0330399 76.09221426 23.57307574 79.05842643 25.4375 82.25 C26.03433594 83.28640625 26.63117187 84.3228125 27.24609375 85.390625 C28.89922544 88.20806577 28.89922544 88.20806577 32 90 C32.8125 93 32.8125 93 33 96 C32.34 96.66 31.68 97.32 31 98 C31.01097807 100.04645462 31.01097807 100.04645462 32 102 C33.83983424 103.34231442 33.83983424 103.34231442 36.0625 104.25 C36.79597656 104.58515625 37.52945313 104.9203125 38.28515625 105.265625 C39.13400391 105.62914062 39.13400391 105.62914062 40 106 C39.505 107.485 39.505 107.485 39 109 C35.56890908 108.20820979 32.60550177 107.35709079 29.5625 105.5625 C27.70556092 102.51711991 27.96101117 101.36588223 28.1875 97.875 C28.47668613 90.88788996 25.2686168 87.21922954 21 82 C17 76.43227666 17 76.43227666 17 74 C16.41621582 73.94054199 15.83243164 73.88108398 15.23095703 73.81982422 C-8.66151063 71.25840074 -8.66151063 71.25840074 -16.875 62 C-17.57625 61.01 -18.2775 60.02 -19 59 C-20.0828125 57.6078125 -20.0828125 57.6078125 -21.1875 56.1875 C-24.9591228 49.55464611 -25.36498142 42.19157119 -25.3125 34.6875 C-25.30831055 33.8622583 -25.30412109 33.0370166 -25.29980469 32.18676758 C-25.13478427 23.20105481 -24.14298669 13.99617928 -18 7 C-12.64533168 2.23287633 -7.27110084 0 0 0 Z " fill="#171717" transform="translate(760,173)"/>
<path d="M0 0 C3.80414376 0.21946983 6.51376957 0.73574433 9.875 2.5625 C12 5 12 5 13 13 C19.93 13 26.86 13 34 13 C34 13.99 34 14.98 34 16 C26.41 16 18.82 16 11 16 C9.515 11.545 9.515 11.545 8 7 C6.17728073 4.87644433 6.17728073 4.87644433 4 4 C3.01 4 2.02 4 1 4 C-1.03993514 8.92984325 -2.40652968 12.57960425 -2 18 C-2.99 18.33 -3.98 18.66 -5 19 C-6.48251273 16.03497454 -6.35770302 14.33856155 -6 11 C-2.39322917 2.39322917 -2.39322917 2.39322917 0 0 Z " fill="#161616" transform="translate(766,155)"/>
<path d="M0 0 C0 0.99 0 1.98 0 3 C-0.88751953 3.07347656 -0.88751953 3.07347656 -1.79296875 3.1484375 C-8.13120946 3.696027 -8.13120946 3.696027 -14 6 C-15.00496852 9.01490557 -15.10335303 11.04181692 -15.0625 14.1875 C-15.04896484 15.53908203 -15.04896484 15.53908203 -15.03515625 16.91796875 C-15.02355469 17.60503906 -15.01195312 18.29210937 -15 19 C-12.14839609 19.81434143 -9.63373869 20.11881242 -6.671875 20.09765625 C-5.87265625 20.09443359 -5.0734375 20.09121094 -4.25 20.08789062 C-3.425 20.07951172 -2.6 20.07113281 -1.75 20.0625 C-0.90953125 20.05798828 -0.0690625 20.05347656 0.796875 20.04882812 C2.86461401 20.03707961 4.93231624 20.01914522 7 20 C7 20.99 7 21.98 7 23 C1.35974644 25.82012678 -7.34131329 24.50610206 -13.1875 22.6875 C-16.50405353 21.52455266 -16.92369374 21.11445939 -19 18 C-19.60174277 13.2745494 -19.6647713 8.05508675 -17 4 C-11.42352799 -0.2985305 -6.8955466 -0.49947621 0 0 Z " fill="#121212" transform="translate(778,192)"/>
<path d="M0 0 C0 0.99 0 1.98 0 3 C-0.80824219 3.23074219 -1.61648438 3.46148437 -2.44921875 3.69921875 C-10.82918433 6.12809501 -10.82918433 6.12809501 -17 12 C-19.37895817 16.47276724 -21.34660294 20.9361728 -22 26 C-22.99 26.33 -23.98 26.66 -25 27 C-23.7553546 18.09095921 -22.47857349 10.47760251 -15.1875 4.625 C-10.33390626 1.29888734 -5.8942806 0 0 0 Z " fill="#0D0D0D" transform="translate(760,173)"/>
<path d="M0 0 C1.98 0.99 1.98 0.99 4 2 C4 2.66 4 3.32 4 4 C6.31 4.33 8.62 4.66 11 5 C11 9.95 11 14.9 11 20 C8.71486141 17.71486141 7.56783203 15.4824496 6.0625 12.625 C4.60449569 9.85814783 3.23566211 7.30151688 1.30859375 4.8359375 C0 3 0 3 0 0 Z " fill="#5A5A5A" transform="translate(789,247)"/>
<path d="M0 0 C2.85423192 -0.02718316 5.70820015 -0.04692705 8.5625 -0.0625 C9.36236328 -0.07087891 10.16222656 -0.07925781 10.98632812 -0.08789062 C15.77163104 -0.10742247 20.28145051 0.19562982 25 1 C25 1.99 25 2.98 25 4 C12.13 3.505 12.13 3.505 -1 3 C-0.67 2.01 -0.34 1.02 0 0 Z " fill="#171717" transform="translate(764,228)"/>
<path d="M0 0 C0 0.99 0 1.98 0 3 C-0.88751953 3.07347656 -0.88751953 3.07347656 -1.79296875 3.1484375 C-8.29022506 3.4861087 -8.29022506 3.4861087 -14 6 C-15.0369484 9.29094677 -15.57730897 12.58061883 -16 16 C-16.33 16 -16.66 16 -17 16 C-17.144375 15.21625 -17.28875 14.4325 -17.4375 13.625 C-17.87798925 11.03578982 -17.87798925 11.03578982 -19 9 C-18.20917288 5.2435712 -17.06907105 4.05324227 -14 1.6875 C-9.49762064 -0.68267433 -4.95895843 -0.35920021 0 0 Z " fill="#1F1F1F" transform="translate(778,192)"/>
<path d="M0 0 C0.66 0 1.32 0 2 0 C1.67 3.63 1.34 7.26 1 11 C0.01 11.33 -0.98 11.66 -2 12 C-3.40457737 9.19084526 -3.24895157 7.11189466 -3 4 C-1.625 1.625 -1.625 1.625 0 0 Z " fill="#222222" transform="translate(763,162)"/>
<path d="M0 0 C2.93752254 0.30388164 3.84080893 0.80669656 5.75 3.125 C7.2577334 6.59278683 7.22019353 9.25670998 7 13 C4.93414468 10.93414468 3.78817712 9.04537166 2.375 6.5 C1.92898438 5.7059375 1.48296875 4.911875 1.0234375 4.09375 C0 2 0 2 0 0 Z " fill="#161616" transform="translate(793,254)"/>
<path d="M0 0 C0.66 0 1.32 0 2 0 C2.33 0.99 2.66 1.98 3 3 C3.33 2.01 3.66 1.02 4 0 C4.66 0 5.32 0 6 0 C6 1.98 6 3.96 6 6 C2.25 7.125 2.25 7.125 0 6 C0 4.02 0 2.04 0 0 Z " fill="#0B0B0B" transform="translate(787,237)"/>
<path d="M0 0 C1.65 0 3.3 0 5 0 C4.67 1.32 4.34 2.64 4 4 C2.68 4 1.36 4 0 4 C0 2.68 0 1.36 0 0 Z " fill="#050505" transform="translate(754,189)"/>
</svg>
