<?xml version="1.0" encoding="UTF-8"?>
<svg version="1.1" xmlns="http://www.w3.org/2000/svg" width="800" height="300">
<path d="M0 0 C264 0 528 0 800 0 C800 99 800 198 800 300 C536 300 272 300 0 300 C0 201 0 102 0 0 Z " fill="#FEFEFE" transform="translate(0,0)"/>
<path d="M0 0 C4.50960266 1.32635372 6.96400759 4.78503067 9.32421875 8.68359375 C10.46800152 12.47237417 10.57047997 13.9448101 9.32421875 17.68359375 C47.27421875 17.68359375 85.22421875 17.68359375 124.32421875 17.68359375 C124.65421875 14.38359375 124.98421875 11.08359375 125.32421875 7.68359375 C126.90319708 6.10461542 128.51784447 6.43815866 130.69921875 6.37109375 C131.49070312 6.33371094 132.2821875 6.29632813 133.09765625 6.2578125 C135.32421875 6.68359375 135.32421875 6.68359375 137.015625 8.37890625 C138.42496242 10.86102289 139.17336211 13.11142265 139.88671875 15.87109375 C140.52212392 18.47155177 140.52212392 18.47155177 141.32421875 20.68359375 C141.98421875 21.01359375 142.64421875 21.34359375 143.32421875 21.68359375 C143.32421875 22.34359375 143.32421875 23.00359375 143.32421875 23.68359375 C143.90429688 23.81894531 144.484375 23.95429688 145.08203125 24.09375 C151.36821878 25.82608221 154.96331276 28.04462686 158.32421875 33.68359375 C162.57309913 41.41364404 162.70007991 49.23706583 162.76171875 57.87109375 C162.77187012 58.89259521 162.78202148 59.91409668 162.79248047 60.96655273 C162.70585859 68.48740552 161.86659603 75.29375738 157.26171875 81.43359375 C149.99033057 87.00316767 141.5371805 89.80796998 132.95019531 92.71655273 C129.3590223 93.70406425 129.3590223 93.70406425 126.32421875 95.68359375 C126.9584375 95.92207031 127.59265625 96.16054688 128.24609375 96.40625 C130.32421875 97.68359375 130.32421875 97.68359375 131.08984375 99.7421875 C131.2496875 100.52722656 131.40953125 101.31226563 131.57421875 102.12109375 C132.5516702 105.63641104 132.5516702 105.63641104 135.25390625 107.90625 C137.26358114 108.61786086 139.25847518 109.164842 141.32421875 109.68359375 C141.65421875 110.01359375 141.98421875 110.34359375 142.32421875 110.68359375 C142.02009675 115.95504179 141.13233627 118.97839832 137.32421875 122.68359375 C132.86344135 125.55831696 129.58770949 126.14530346 124.32421875 125.68359375 C121.92901372 125.13625197 119.66467835 124.44782545 117.32421875 123.68359375 C117.28180152 121.350646 117.28328938 119.01656808 117.32421875 116.68359375 C117.65421875 116.35359375 117.98421875 116.02359375 118.32421875 115.68359375 C118.83098933 110.76217994 118.83098933 110.76217994 116.71875 106.4765625 C108.87010401 100.59968075 90.71467797 105.4788613 81.32421875 106.68359375 C80.99421875 107.67359375 80.66421875 108.66359375 80.32421875 109.68359375 C80.98421875 110.01359375 81.64421875 110.34359375 82.32421875 110.68359375 C82.432371 112.4530847 82.50987958 114.22446862 82.57421875 115.99609375 C82.620625 116.98222656 82.66703125 117.96835937 82.71484375 118.984375 C82.32421875 121.68359375 82.32421875 121.68359375 80.49609375 123.4765625 C75.88961023 126.03664057 71.47791875 126.3395192 66.32421875 125.68359375 C63.70670837 124.59177248 61.68708957 123.29235686 59.32421875 121.68359375 C58.74736866 111.87714214 58.74736866 111.87714214 62.32421875 107.68359375 C66.56559806 104.68359375 66.56559806 104.68359375 69.32421875 104.68359375 C69.98421875 102.37359375 70.64421875 100.06359375 71.32421875 97.68359375 C50.32271205 98.30813655 29.32285657 98.9686976 8.32421875 99.68359375 C8.81921875 100.42609375 9.31421875 101.16859375 9.82421875 101.93359375 C11.32421875 104.68359375 11.32421875 104.68359375 11.32421875 108.68359375 C12.43796875 108.80734375 13.55171875 108.93109375 14.69921875 109.05859375 C18.32421875 109.68359375 18.32421875 109.68359375 20.32421875 111.68359375 C20.81774836 115.38506584 20.61270334 117.19538906 18.69921875 120.43359375 C13.74722139 125.12495967 8.30750028 124.93009076 1.8125 125.046875 C-0.67578125 124.68359375 -0.67578125 124.68359375 -2.4921875 123.41015625 C-4.50904229 120.46807765 -3.97784493 117.09554036 -3.67578125 113.68359375 C-3.17578125 111.18359375 -3.17578125 111.18359375 -2.67578125 109.68359375 C-10.52513905 104.45068855 -22.59344788 106.78722301 -31.64624023 107.29785156 C-34.13146069 107.43459402 -36.61708654 107.54781391 -39.10351562 107.66015625 C-40.68887854 107.74467161 -42.27416903 107.83055908 -43.859375 107.91796875 C-44.97027748 107.96506989 -44.97027748 107.96506989 -46.10362244 108.01312256 C-50.18270286 108.26002758 -50.18270286 108.26002758 -53.66430664 110.23144531 C-53.99809326 110.7106543 -54.33187988 111.18986328 -54.67578125 111.68359375 C-53.83015625 112.19921875 -52.98453125 112.71484375 -52.11328125 113.24609375 C-49.67578125 115.68359375 -49.67578125 115.68359375 -49.61328125 119.30859375 C-50.67578125 122.68359375 -50.67578125 122.68359375 -52.2421875 123.83203125 C-55.67134832 125.03196232 -59.08053113 125.39050271 -62.67578125 125.68359375 C-63.38734375 125.77253906 -64.09890625 125.86148438 -64.83203125 125.953125 C-66.92578125 126.12109375 -66.92578125 126.12109375 -70.67578125 125.68359375 C-73.4844473 122.56384127 -75.24480911 119.82106392 -75.17578125 115.55859375 C-74.67578125 111.68359375 -74.67578125 111.68359375 -72.80078125 109.18359375 C-70.67578125 107.68359375 -70.67578125 107.68359375 -68.67578125 107.68359375 C-68.40765625 106.75546875 -68.13953125 105.82734375 -67.86328125 104.87109375 C-66.7660088 101.9257835 -66.14220956 100.53341498 -63.67578125 98.68359375 C-63.01578125 98.68359375 -62.35578125 98.68359375 -61.67578125 98.68359375 C-63.89927664 96.27657176 -66.18919556 94.68328012 -68.98828125 92.99609375 C-76.61269242 87.96274264 -80.67063583 81.54412483 -82.67578125 72.68359375 C-83.08710217 68.38300506 -83.09570166 64.12594458 -83.05078125 59.80859375 C-83.06238281 58.70128906 -83.07398438 57.59398437 -83.0859375 56.453125 C-83.05621947 48.02311171 -82.63443319 37.56858237 -76.45703125 31.08984375 C-70.51985715 26.40260104 -63.89889933 22.87959388 -56.67578125 20.68359375 C-56.55460937 19.77996094 -56.4334375 18.87632812 -56.30859375 17.9453125 C-56.14101562 16.76582031 -55.9734375 15.58632812 -55.80078125 14.37109375 C-55.63835937 13.19933594 -55.4759375 12.02757812 -55.30859375 10.8203125 C-54.67578125 7.68359375 -54.67578125 7.68359375 -52.67578125 4.68359375 C-49.91530582 3.76343527 -48.04215856 3.4909213 -45.17578125 3.43359375 C-44.015625 3.39492187 -44.015625 3.39492187 -42.83203125 3.35546875 C-40.12955008 3.76671589 -39.33086288 4.54848845 -37.67578125 6.68359375 C-36.20266662 10.32761414 -35.67578125 12.7113615 -35.67578125 16.68359375 C-35.04414063 16.61140625 -34.4125 16.53921875 -33.76171875 16.46484375 C-26.05009546 15.66479061 -18.42397942 15.58179261 -10.67578125 15.68359375 C-10.7221875 15.01972656 -10.76859375 14.35585937 -10.81640625 13.671875 C-10.98876994 9.45512054 -11.02263071 6.43761432 -9.23828125 2.55859375 C-6.03262104 0.21298872 -3.93290625 -0.21452216 0 0 Z " fill="#FBFBFB" transform="translate(243.67578125,160.31640625)"/>
<path d="M0 0 C4.50960266 1.32635372 6.96400759 4.78503067 9.32421875 8.68359375 C10.46800152 12.47237417 10.57047997 13.9448101 9.32421875 17.68359375 C47.27421875 17.68359375 85.22421875 17.68359375 124.32421875 17.68359375 C124.65421875 14.38359375 124.98421875 11.08359375 125.32421875 7.68359375 C126.90319708 6.10461542 128.51784447 6.43815866 130.69921875 6.37109375 C131.49070312 6.33371094 132.2821875 6.29632813 133.09765625 6.2578125 C135.32421875 6.68359375 135.32421875 6.68359375 137.015625 8.37890625 C138.42496242 10.86102289 139.17336211 13.11142265 139.88671875 15.87109375 C140.52212392 18.47155177 140.52212392 18.47155177 141.32421875 20.68359375 C141.98421875 21.01359375 142.64421875 21.34359375 143.32421875 21.68359375 C143.32421875 22.34359375 143.32421875 23.00359375 143.32421875 23.68359375 C143.90429688 23.81894531 144.484375 23.95429688 145.08203125 24.09375 C151.36821878 25.82608221 154.96331276 28.04462686 158.32421875 33.68359375 C162.57309913 41.41364404 162.70007991 49.23706583 162.76171875 57.87109375 C162.77187012 58.89259521 162.78202148 59.91409668 162.79248047 60.96655273 C162.70585859 68.48740552 161.86659603 75.29375738 157.26171875 81.43359375 C149.99033057 87.00316767 141.5371805 89.80796998 132.95019531 92.71655273 C129.3590223 93.70406425 129.3590223 93.70406425 126.32421875 95.68359375 C126.9584375 95.92207031 127.59265625 96.16054688 128.24609375 96.40625 C130.32421875 97.68359375 130.32421875 97.68359375 131.08984375 99.7421875 C131.2496875 100.52722656 131.40953125 101.31226563 131.57421875 102.12109375 C132.5516702 105.63641104 132.5516702 105.63641104 135.25390625 107.90625 C137.26358114 108.61786086 139.25847518 109.164842 141.32421875 109.68359375 C141.65421875 110.01359375 141.98421875 110.34359375 142.32421875 110.68359375 C142.02009675 115.95504179 141.13233627 118.97839832 137.32421875 122.68359375 C132.86344135 125.55831696 129.58770949 126.14530346 124.32421875 125.68359375 C121.92901372 125.13625197 119.66467835 124.44782545 117.32421875 123.68359375 C117.28180152 121.350646 117.28328938 119.01656808 117.32421875 116.68359375 C117.65421875 116.35359375 117.98421875 116.02359375 118.32421875 115.68359375 C118.83098933 110.76217994 118.83098933 110.76217994 116.71875 106.4765625 C108.87010401 100.59968075 90.71467797 105.4788613 81.32421875 106.68359375 C80.99421875 107.67359375 80.66421875 108.66359375 80.32421875 109.68359375 C80.98421875 110.01359375 81.64421875 110.34359375 82.32421875 110.68359375 C82.432371 112.4530847 82.50987958 114.22446862 82.57421875 115.99609375 C82.620625 116.98222656 82.66703125 117.96835937 82.71484375 118.984375 C82.32421875 121.68359375 82.32421875 121.68359375 80.49609375 123.4765625 C75.88961023 126.03664057 71.47791875 126.3395192 66.32421875 125.68359375 C63.70670837 124.59177248 61.68708957 123.29235686 59.32421875 121.68359375 C58.74736866 111.87714214 58.74736866 111.87714214 62.32421875 107.68359375 C66.56559806 104.68359375 66.56559806 104.68359375 69.32421875 104.68359375 C69.98421875 102.37359375 70.64421875 100.06359375 71.32421875 97.68359375 C50.32271205 98.30813655 29.32285657 98.9686976 8.32421875 99.68359375 C8.81921875 100.42609375 9.31421875 101.16859375 9.82421875 101.93359375 C11.32421875 104.68359375 11.32421875 104.68359375 11.32421875 108.68359375 C12.43796875 108.80734375 13.55171875 108.93109375 14.69921875 109.05859375 C18.32421875 109.68359375 18.32421875 109.68359375 20.32421875 111.68359375 C20.81774836 115.38506584 20.61270334 117.19538906 18.69921875 120.43359375 C13.74722139 125.12495967 8.30750028 124.93009076 1.8125 125.046875 C-0.67578125 124.68359375 -0.67578125 124.68359375 -2.4921875 123.41015625 C-4.50904229 120.46807765 -3.97784493 117.09554036 -3.67578125 113.68359375 C-3.17578125 111.18359375 -3.17578125 111.18359375 -2.67578125 109.68359375 C-10.52513905 104.45068855 -22.59344788 106.78722301 -31.64624023 107.29785156 C-34.13146069 107.43459402 -36.61708654 107.54781391 -39.10351562 107.66015625 C-40.68887854 107.74467161 -42.27416903 107.83055908 -43.859375 107.91796875 C-44.97027748 107.96506989 -44.97027748 107.96506989 -46.10362244 108.01312256 C-50.18270286 108.26002758 -50.18270286 108.26002758 -53.66430664 110.23144531 C-53.99809326 110.7106543 -54.33187988 111.18986328 -54.67578125 111.68359375 C-53.83015625 112.19921875 -52.98453125 112.71484375 -52.11328125 113.24609375 C-49.67578125 115.68359375 -49.67578125 115.68359375 -49.61328125 119.30859375 C-50.67578125 122.68359375 -50.67578125 122.68359375 -52.2421875 123.83203125 C-55.67134832 125.03196232 -59.08053113 125.39050271 -62.67578125 125.68359375 C-63.38734375 125.77253906 -64.09890625 125.86148438 -64.83203125 125.953125 C-66.92578125 126.12109375 -66.92578125 126.12109375 -70.67578125 125.68359375 C-73.4844473 122.56384127 -75.24480911 119.82106392 -75.17578125 115.55859375 C-74.67578125 111.68359375 -74.67578125 111.68359375 -72.80078125 109.18359375 C-70.67578125 107.68359375 -70.67578125 107.68359375 -68.67578125 107.68359375 C-68.40765625 106.75546875 -68.13953125 105.82734375 -67.86328125 104.87109375 C-66.7660088 101.9257835 -66.14220956 100.53341498 -63.67578125 98.68359375 C-63.01578125 98.68359375 -62.35578125 98.68359375 -61.67578125 98.68359375 C-63.89927664 96.27657176 -66.18919556 94.68328012 -68.98828125 92.99609375 C-76.61269242 87.96274264 -80.67063583 81.54412483 -82.67578125 72.68359375 C-83.08710217 68.38300506 -83.09570166 64.12594458 -83.05078125 59.80859375 C-83.06238281 58.70128906 -83.07398438 57.59398437 -83.0859375 56.453125 C-83.05621947 48.02311171 -82.63443319 37.56858237 -76.45703125 31.08984375 C-70.51985715 26.40260104 -63.89889933 22.87959388 -56.67578125 20.68359375 C-56.55460937 19.77996094 -56.4334375 18.87632812 -56.30859375 17.9453125 C-56.14101562 16.76582031 -55.9734375 15.58632812 -55.80078125 14.37109375 C-55.63835937 13.19933594 -55.4759375 12.02757812 -55.30859375 10.8203125 C-54.67578125 7.68359375 -54.67578125 7.68359375 -52.67578125 4.68359375 C-49.91530582 3.76343527 -48.04215856 3.4909213 -45.17578125 3.43359375 C-44.015625 3.39492187 -44.015625 3.39492187 -42.83203125 3.35546875 C-40.12955008 3.76671589 -39.33086288 4.54848845 -37.67578125 6.68359375 C-36.20266662 10.32761414 -35.67578125 12.7113615 -35.67578125 16.68359375 C-35.04414063 16.61140625 -34.4125 16.53921875 -33.76171875 16.46484375 C-26.05009546 15.66479061 -18.42397942 15.58179261 -10.67578125 15.68359375 C-10.7221875 15.01972656 -10.76859375 14.35585937 -10.81640625 13.671875 C-10.98876994 9.45512054 -11.02263071 6.43761432 -9.23828125 2.55859375 C-6.03262104 0.21298872 -3.93290625 -0.21452216 0 0 Z M-6.98828125 4.74609375 C-9.69378755 9.4556788 -9.03889476 13.61901752 -7.67578125 18.68359375 C-8.71734375 18.67199219 -9.75890625 18.66039062 -10.83203125 18.6484375 C-20.82482687 18.57331252 -30.71193451 18.93261741 -40.67578125 19.68359375 C-39.68578125 18.69359375 -38.69578125 17.70359375 -37.67578125 16.68359375 C-38.15128686 15.20324611 -38.63129341 13.72434354 -39.11328125 12.24609375 C-39.38011719 11.42238281 -39.64695313 10.59867188 -39.921875 9.75 C-40.49733619 7.72139787 -40.49733619 7.72139787 -41.67578125 6.68359375 C-44.72849239 6.2579169 -47.62762436 6.21211625 -50.67578125 6.68359375 C-53.04387154 8.57364983 -53.04387154 8.57364983 -53.67578125 11.68359375 C-53.63548064 15.19646319 -53.26600247 18.50315131 -51.67578125 21.68359375 C-54.10184947 22.67119674 -56.51921951 23.6304417 -59 24.47265625 C-66.27248336 27.04507185 -73.56622496 30.99028829 -77.93359375 37.58203125 C-80.99994526 44.39945354 -80.88844023 51.55692074 -80.92578125 58.87109375 C-80.94640625 59.86173828 -80.96703125 60.85238281 -80.98828125 61.87304688 C-81.03892918 71.52780822 -79.57233924 79.72130726 -72.77734375 86.86328125 C-69.0880565 90.05883489 -64.98233229 92.4185066 -60.67578125 94.68359375 C-60.05695068 95.03035156 -59.43812012 95.37710938 -58.80053711 95.734375 C-56.50655074 96.75919621 -54.84643902 96.99056556 -52.34765625 97.09765625 C-51.5484375 97.13632812 -50.74921875 97.175 -49.92578125 97.21484375 C-49.10078125 97.24578125 -48.27578125 97.27671875 -47.42578125 97.30859375 C-46.5853125 97.34726562 -45.74484375 97.3859375 -44.87890625 97.42578125 C-42.81154743 97.51975211 -40.74369498 97.60274939 -38.67578125 97.68359375 C-38.34578125 98.34359375 -38.01578125 99.00359375 -37.67578125 99.68359375 C-38.31604248 99.66264648 -38.95630371 99.64169922 -39.6159668 99.62011719 C-42.531577 99.53670091 -45.44693577 99.48485406 -48.36328125 99.43359375 C-49.37068359 99.40007812 -50.37808594 99.3665625 -51.41601562 99.33203125 C-57.36660803 99.24098132 -57.36660803 99.24098132 -62.80078125 101.43359375 C-64.69580223 103.70761892 -65.4602709 105.05353727 -65.98828125 107.93359375 C-66.21515625 109.17109375 -66.44203125 110.40859375 -66.67578125 111.68359375 C-68.32578125 111.68359375 -69.97578125 111.68359375 -71.67578125 111.68359375 C-71.53470378 113.14239484 -71.3877571 114.60062926 -71.23828125 116.05859375 C-71.15707031 116.87070312 -71.07585937 117.6828125 -70.9921875 118.51953125 C-70.78488011 120.7263218 -70.78488011 120.7263218 -69.67578125 122.68359375 C-67.21704357 122.54300899 -64.7589295 122.39636376 -62.30078125 122.24609375 C-61.60210937 122.20677734 -60.9034375 122.16746094 -60.18359375 122.12695312 C-56.30217633 121.94079241 -56.30217633 121.94079241 -52.67578125 120.68359375 C-53.00578125 119.03359375 -53.33578125 117.38359375 -53.67578125 115.68359375 C-54.99578125 115.35359375 -56.31578125 115.02359375 -57.67578125 114.68359375 C-57.67578125 112.04359375 -57.67578125 109.40359375 -57.67578125 106.68359375 C-46.26075608 105.16340015 -34.89395687 104.45251858 -23.38186646 104.3840332 C-22.00086437 104.37544662 -20.61988391 104.36182175 -19.23898315 104.34301758 C-17.27273465 104.31906749 -15.30623787 104.31932131 -13.33984375 104.3203125 C-12.1998291 104.31733154 -11.05981445 104.31435059 -9.88525391 104.3112793 C-6.21247977 104.73733898 -3.82256588 105.76656414 -0.67578125 107.68359375 C1.19921875 110.37109375 1.19921875 110.37109375 2.32421875 112.68359375 C0.34421875 113.67359375 0.34421875 113.67359375 -1.67578125 114.68359375 C-1.84265573 117.10005157 -1.84265573 117.10005157 -1.67578125 119.68359375 C0.69749594 122.05687094 1.27395981 121.97937555 4.51171875 121.99609375 C9.18647306 121.86770793 12.33642527 121.17596468 16.32421875 118.68359375 C17.47025712 115.64907404 17.47025712 115.64907404 17.32421875 112.68359375 C16.13997549 111.26781898 16.13997549 111.26781898 12.76171875 111.62109375 C11.62734375 111.64171875 10.49296875 111.66234375 9.32421875 111.68359375 C9.32421875 109.70359375 9.32421875 107.72359375 9.32421875 105.68359375 C7.34421875 104.69359375 7.34421875 104.69359375 5.32421875 103.68359375 C5.32421875 102.69359375 5.32421875 101.70359375 5.32421875 100.68359375 C-1.07793196 98.93413195 -1.07793196 98.93413195 -7.67578125 98.68359375 C-7.67578125 98.02359375 -7.67578125 97.36359375 -7.67578125 96.68359375 C-7.01578125 96.68359375 -6.35578125 96.68359375 -5.67578125 96.68359375 C-5.67578125 96.02359375 -5.67578125 95.36359375 -5.67578125 94.68359375 C-5.01578125 95.01359375 -4.35578125 95.34359375 -3.67578125 95.68359375 C-0.90417499 95.7704282 1.8419664 95.79915165 4.61328125 95.78125 C5.43170502 95.77983505 6.25012878 95.7784201 7.09335327 95.77696228 C9.712012 95.77135665 12.33058579 95.75880323 14.94921875 95.74609375 C16.72265502 95.74107947 18.49609262 95.73651644 20.26953125 95.73242188 C24.62112657 95.72138539 28.97265825 95.704117 33.32421875 95.68359375 C33.32421875 93.70359375 33.32421875 91.72359375 33.32421875 89.68359375 C34.31421875 89.68359375 35.30421875 89.68359375 36.32421875 89.68359375 C35.82921875 91.66359375 35.82921875 91.66359375 35.32421875 93.68359375 C37.30421875 94.17859375 37.30421875 94.17859375 39.32421875 94.68359375 C40.31421875 92.70359375 40.31421875 92.70359375 41.32421875 90.68359375 C42.31421875 90.68359375 43.30421875 90.68359375 44.32421875 90.68359375 C43.82921875 92.66359375 43.82921875 92.66359375 43.32421875 94.68359375 C53.87833853 94.79560681 64.40234509 94.67763121 74.94921875 94.24609375 C75.94308594 94.20685791 76.93695313 94.16762207 77.9609375 94.12719727 C83.78872182 93.8717905 89.53404695 93.39393441 95.32421875 92.68359375 C95.32421875 93.67359375 95.32421875 94.66359375 95.32421875 95.68359375 C94.31101562 95.64878906 93.2978125 95.61398438 92.25390625 95.578125 C90.90236045 95.5499678 89.55079656 95.52266972 88.19921875 95.49609375 C87.5340625 95.47095703 86.86890625 95.44582031 86.18359375 95.41992188 C81.4595913 95.35045125 78.27283908 96.07656697 74.32421875 98.68359375 C73.00725205 100.56729846 73.00725205 100.56729846 72.32421875 102.68359375 C70.49575608 106.88370256 68.52044231 107.80868535 64.32421875 109.68359375 C62.22543386 112.34205462 61.4025836 114.00965604 61.01171875 117.37109375 C61.11234036 119.87574417 61.11234036 119.87574417 63.32421875 121.68359375 C69.05809663 123.80725222 74.77746723 122.84817971 80.32421875 120.68359375 C80.55850188 115.89386165 80.55850188 115.89386165 78.32421875 111.68359375 C77.66421875 111.68359375 77.00421875 111.68359375 76.32421875 111.68359375 C78.08203125 106.41015625 78.08203125 106.41015625 79.32421875 104.68359375 C85.43882844 102.04319411 91.75677596 101.97961056 98.32421875 101.68359375 C99.01032227 101.64959473 99.69642578 101.6155957 100.40332031 101.58056641 C102.54363287 101.4846952 104.6824212 101.42287564 106.82421875 101.37109375 C108.78875 101.31501953 108.78875 101.31501953 110.79296875 101.2578125 C114.90663673 101.75381893 116.47478987 102.72901989 119.32421875 105.68359375 C121.08472577 110.08486131 121.67648131 113.13507423 120.32421875 117.68359375 C120.13859375 118.44671875 119.95296875 119.20984375 119.76171875 119.99609375 C119.61734375 120.55296875 119.47296875 121.10984375 119.32421875 121.68359375 C124.71055751 123.47904 129.59982906 123.52952077 134.63671875 121.05859375 C137.55367364 118.48081966 138.86026011 116.26215932 140.32421875 112.68359375 C138.53764118 110.46989324 138.53764118 110.46989324 136.16015625 110.48828125 C135.34804688 110.51148438 134.5359375 110.5346875 133.69921875 110.55859375 C132.88195312 110.57664062 132.0646875 110.5946875 131.22265625 110.61328125 C130.59617187 110.63648438 129.9696875 110.6596875 129.32421875 110.68359375 C129.55109375 109.63171875 129.77796875 108.57984375 130.01171875 107.49609375 C130.56949748 103.80442268 130.56949748 103.80442268 129.38671875 100.93359375 C126.51802396 97.80410852 123.49515455 96.43014257 119.32421875 95.68359375 C116.39545291 96.33296888 116.39545291 96.33296888 114.32421875 97.68359375 C114.32421875 96.69359375 114.32421875 95.70359375 114.32421875 94.68359375 C114.98679687 94.56371094 115.649375 94.44382812 116.33203125 94.3203125 C129.45759496 91.52727479 147.84161666 87.55515689 157.32421875 77.68359375 C160.60276157 71.44833307 160.87052659 64.78479447 160.82421875 57.87109375 C160.81781372 56.42186523 160.81781372 56.42186523 160.8112793 54.94335938 C160.58940811 45.61692949 158.42897368 38.54656693 152.76171875 30.99609375 C150.28594658 28.64728426 149.55386375 28.15854154 146.32421875 27.68359375 C141.46177255 26.65992087 141.46177255 26.65992087 139.32421875 24.68359375 C138.20163355 21.37218413 137.57159396 18.16694509 137.02734375 14.71484375 C136.31208352 11.63127743 135.890154 10.46776985 133.32421875 8.68359375 C130.69851171 8.43289462 130.69851171 8.43289462 128.32421875 8.68359375 C126.46930175 12.50254051 126.17365784 14.60433235 127.32421875 18.68359375 C127.50984375 19.44671875 127.69546875 20.20984375 127.88671875 20.99609375 C128.03109375 21.55296875 128.17546875 22.10984375 128.32421875 22.68359375 C127.66421875 23.01359375 127.00421875 23.34359375 126.32421875 23.68359375 C125.99421875 22.69359375 125.66421875 21.70359375 125.32421875 20.68359375 C122.64318057 19.67505161 120.1027613 19.55989433 117.25952148 19.56835938 C116.07979515 19.56926575 116.07979515 19.56926575 114.87623596 19.57019043 C114.03278122 19.57667603 113.18932648 19.58316162 112.3203125 19.58984375 C111.43435898 19.59342896 110.54840546 19.59701416 109.63560486 19.60070801 C101.07970404 19.65177362 92.52967846 19.86870395 83.97744751 20.11138916 C69.03077553 20.52795856 54.08927146 20.79155093 39.13671875 20.80859375 C38.01428268 20.81234009 38.01428268 20.81234009 36.86917114 20.81616211 C26.97548898 20.84357413 17.18878217 20.46960761 7.32421875 19.68359375 C7.65421875 18.54921875 7.98421875 17.41484375 8.32421875 16.24609375 C8.74135676 13.09501071 8.46007628 11.90737938 6.78515625 9.1484375 C3.06363023 4.40265895 3.06363023 4.40265895 -2.3046875 2.3046875 C-4.88708592 2.49871142 -4.88708592 2.49871142 -6.98828125 4.74609375 Z " fill="#111111" transform="translate(243.67578125,160.31640625)"/>
<path d="M0 0 C1.18722656 -0.05607422 1.18722656 -0.05607422 2.3984375 -0.11328125 C4.625 0.3125 4.625 0.3125 6.31640625 2.0078125 C7.72574367 4.48992914 8.47414336 6.7403289 9.1875 9.5 C9.82290517 12.10045802 9.82290517 12.10045802 10.625 14.3125 C11.285 14.6425 11.945 14.9725 12.625 15.3125 C12.625 15.9725 12.625 16.6325 12.625 17.3125 C13.20507812 17.44785156 13.78515625 17.58320313 14.3828125 17.72265625 C20.66900003 19.45498846 24.26409401 21.67353311 27.625 27.3125 C31.87388038 35.04255029 32.00086116 42.86597208 32.0625 51.5 C32.07265137 52.52150146 32.08280273 53.54300293 32.09326172 54.59545898 C32.00663984 62.11631177 31.16737728 68.92266363 26.5625 75.0625 C19.29111182 80.63207392 10.83796175 83.43687623 2.25097656 86.34545898 C-1.34019645 87.3329705 -1.34019645 87.3329705 -4.375 89.3125 C-3.42367188 89.67021484 -3.42367188 89.67021484 -2.453125 90.03515625 C-0.375 91.3125 -0.375 91.3125 0.390625 93.37109375 C0.55046875 94.15613281 0.7103125 94.94117188 0.875 95.75 C1.85245145 99.26531729 1.85245145 99.26531729 4.5546875 101.53515625 C6.56436239 102.24676711 8.55925643 102.79374825 10.625 103.3125 C10.955 103.6425 11.285 103.9725 11.625 104.3125 C11.320878 109.58394804 10.43311752 112.60730457 6.625 116.3125 C2.1642226 119.18722321 -1.11150926 119.77420971 -6.375 119.3125 C-8.77020503 118.76515822 -11.0345404 118.0767317 -13.375 117.3125 C-13.41741723 114.97955225 -13.41592937 112.64547433 -13.375 110.3125 C-13.045 109.9825 -12.715 109.6525 -12.375 109.3125 C-11.88870487 104.30435049 -11.88870487 104.30435049 -14.0625 99.9375 C-16.56618187 98.17815598 -18.35700506 97.64783277 -21.375 97.3125 C-21.045 96.3225 -20.715 95.3325 -20.375 94.3125 C-15.96010474 94.81705946 -13.48030159 96.12327134 -10.375 99.3125 C-8.63353598 103.66616005 -7.91758728 106.81881079 -9.375 111.3125 C-10.02894794 112.65211723 -10.69385668 113.98650377 -11.375 115.3125 C-9.47989301 115.39410748 -7.58375496 115.45196459 -5.6875 115.5 C-4.10388672 115.55220703 -4.10388672 115.55220703 -2.48828125 115.60546875 C1.04575328 115.2729059 2.81649331 114.44854734 5.625 112.3125 C7.45129794 109.24569201 7.45129794 109.24569201 8.625 106.3125 C7.04227399 104.72977399 5.24465997 104.96514253 3.0625 104.75 C1.82306641 104.62431641 1.82306641 104.62431641 0.55859375 104.49609375 C-0.07949219 104.43550781 -0.71757812 104.37492187 -1.375 104.3125 C-1.33375 103.24 -1.2925 102.1675 -1.25 101.0625 C-1.24674445 96.74063856 -1.24674445 96.74063856 -3.375 93.3125 C-7.05512456 91.31944378 -10.18028287 90.1880503 -14.375 90.625 C-15.035 90.851875 -15.695 91.07875 -16.375 91.3125 C-16.375 90.3225 -16.375 89.3325 -16.375 88.3125 C-14.74985351 87.7707845 -13.12469973 87.22909089 -11.49951172 86.6875 C-10.11429053 86.22565026 -8.72920124 85.76340475 -7.34423828 85.30078125 C-4.50959508 84.35434938 -1.67491861 83.40970864 1.16796875 82.48828125 C5.60551422 81.04795223 9.99667988 79.48626098 14.375 77.875 C15.44234375 77.48441406 16.5096875 77.09382813 17.609375 76.69140625 C22.5653626 74.42526166 25.46973151 72.40118197 27.40625 67.23828125 C28.92137814 62.00488313 29.16132791 56.92323821 29.125 51.5 C29.12072998 50.53457275 29.11645996 49.56914551 29.11206055 48.57446289 C28.90042952 39.6837164 27.27341393 31.95778196 21.0625 25.1875 C17.69598456 22.59787274 15.23070146 21.45064244 11.0625 20.5 C9.234375 19.765625 9.234375 19.765625 7.625 18.3125 C6.4652801 14.97181432 5.80961876 11.73265454 5.23046875 8.24609375 C4.88272852 5.2038401 4.88272852 5.2038401 2.625 3.3125 C0.04145782 3.14562552 0.04145782 3.14562552 -2.375 3.3125 C-2.684375 5.230625 -2.684375 5.230625 -3 7.1875 C-3.11601562 7.90679687 -3.23203125 8.62609375 -3.3515625 9.3671875 C-3.35929687 10.00914062 -3.36703125 10.65109375 -3.375 11.3125 C-2.715 11.9725 -2.055 12.6325 -1.375 13.3125 C-1.75 15.4375 -1.75 15.4375 -2.375 17.3125 C-3.035 17.3125 -3.695 17.3125 -4.375 17.3125 C-4.705 16.6525 -5.035 15.9925 -5.375 15.3125 C-8.37506495 14.25210337 -11.19947451 14.19557606 -14.359375 14.21484375 C-15.29394531 14.21806641 -16.22851562 14.22128906 -17.19140625 14.22460938 C-18.64353516 14.23717773 -18.64353516 14.23717773 -20.125 14.25 C-21.10855469 14.25451172 -22.09210938 14.25902344 -23.10546875 14.26367188 C-25.52870791 14.27543517 -27.95182273 14.29187316 -30.375 14.3125 C-30.045 13.3225 -29.715 12.3325 -29.375 11.3125 C-21.785 11.3125 -14.195 11.3125 -6.375 11.3125 C-6.045 8.0125 -5.715 4.7125 -5.375 1.3125 C-3.79602167 -0.26647833 -2.18137428 0.06706491 0 0 Z " fill="#0B0B0B" transform="translate(374.375,166.6875)"/>
<path d="M0 0 C4.50960266 1.32635372 6.96400759 4.78503067 9.32421875 8.68359375 C10.46800152 12.47237417 10.57047997 13.9448101 9.32421875 17.68359375 C39.68421875 17.68359375 70.04421875 17.68359375 101.32421875 17.68359375 C100.99421875 18.67359375 100.66421875 19.66359375 100.32421875 20.68359375 C79.90929365 21.273557 59.49868551 21.78531288 39.07421875 21.80859375 C38.31742828 21.81109131 37.56063782 21.81358887 36.78091431 21.81616211 C11.72621219 21.88459047 11.72621219 21.88459047 7.32421875 19.68359375 C7.46859375 18.52859375 7.61296875 17.37359375 7.76171875 16.18359375 C7.77936306 11.24318649 5.50741852 8.73645623 2.34375 5.15234375 C0.38397987 3.50457975 0.38397987 3.50457975 -2.2265625 3.21484375 C-4.76774095 3.46054563 -4.76774095 3.46054563 -6.31713867 5.35351562 C-8.00952754 8.25597014 -7.98235269 10.09959335 -7.86328125 13.43359375 C-7.83621094 14.4184375 -7.80914062 15.40328125 -7.78125 16.41796875 C-7.72904297 17.53945312 -7.72904297 17.53945312 -7.67578125 18.68359375 C-11.89279357 18.99440106 -16.11027525 19.29734101 -20.32836914 19.59301758 C-21.76309417 19.69469867 -23.1976689 19.79852429 -24.63208008 19.90454102 C-26.69446582 20.05659645 -28.75726992 20.20091951 -30.8203125 20.34375 C-32.06143799 20.43277588 -33.30256348 20.52180176 -34.58129883 20.61352539 C-37.67578125 20.68359375 -37.67578125 20.68359375 -40.67578125 19.68359375 C-40.34578125 18.69359375 -40.01578125 17.70359375 -39.67578125 16.68359375 C-39.01578125 16.68359375 -38.35578125 16.68359375 -37.67578125 16.68359375 C-38.99578125 13.71359375 -40.31578125 10.74359375 -41.67578125 7.68359375 C-44.64578125 7.68359375 -47.61578125 7.68359375 -50.67578125 7.68359375 C-52.71957956 11.77119038 -52.8617213 12.6704494 -52.30078125 16.93359375 C-52.18992188 17.825625 -52.0790625 18.71765625 -51.96484375 19.63671875 C-51.86945313 20.3121875 -51.7740625 20.98765625 -51.67578125 21.68359375 C-58.34244792 25.01692708 -65.00911458 28.35026042 -71.67578125 31.68359375 C-70.37358974 28.778705 -69.13069186 26.72568307 -66.67578125 24.68359375 C-64.99859088 24.18886337 -63.3095597 23.73328791 -61.61328125 23.30859375 C-58.87326248 22.44207046 -58.87326248 22.44207046 -56.67578125 20.68359375 C-55.52934565 17.28787765 -55.18401532 14.25063331 -54.95703125 10.6796875 C-54.67578125 7.68359375 -54.67578125 7.68359375 -52.67578125 4.68359375 C-49.91530582 3.76343527 -48.04215856 3.4909213 -45.17578125 3.43359375 C-44.015625 3.39492187 -44.015625 3.39492187 -42.83203125 3.35546875 C-40.12955008 3.76671589 -39.33086288 4.54848845 -37.67578125 6.68359375 C-36.20266662 10.32761414 -35.67578125 12.7113615 -35.67578125 16.68359375 C-35.04414063 16.61140625 -34.4125 16.53921875 -33.76171875 16.46484375 C-26.05009546 15.66479061 -18.42397942 15.58179261 -10.67578125 15.68359375 C-10.7221875 15.01972656 -10.76859375 14.35585937 -10.81640625 13.671875 C-10.98876994 9.45512054 -11.02263071 6.43761432 -9.23828125 2.55859375 C-6.03262104 0.21298872 -3.93290625 -0.21452216 0 0 Z " fill="#111111" transform="translate(243.67578125,160.31640625)"/>
<path d="M0 0 C0.66 0.33 1.32 0.66 2 1 C1 4 1 4 -1.375 6.0625 C-7.41271892 12.81899498 -7.47894143 21.82666504 -7.375 30.5 C-7.38660156 31.46808594 -7.39820313 32.43617188 -7.41015625 33.43359375 C-7.37464999 42.25098187 -6.12623793 50.77923272 0.12109375 57.40234375 C3.741942 60.48119393 7.81838966 62.77118789 12 65 C12.61955566 65.34748291 13.23911133 65.69496582 13.87744141 66.05297852 C16.1699604 67.07583119 17.83135053 67.30705788 20.328125 67.4140625 C21.12734375 67.45273437 21.9265625 67.49140625 22.75 67.53125 C23.575 67.5621875 24.4 67.593125 25.25 67.625 C26.09046875 67.66367187 26.9309375 67.70234375 27.796875 67.7421875 C29.86423382 67.83615836 31.93208627 67.91915564 34 68 C34.33 68.99 34.66 69.98 35 71 C29.56099724 72.12354987 24.33642887 71.97722644 18.83398438 71.609375 C14.87731851 71.48913444 13.22842721 71.81903421 10.0859375 74.30859375 C7.87897388 77.15615543 6.88824563 79.52776708 6 83 C4.35 83 2.7 83 1 83 C1.66 86.63 2.32 90.26 3 94 C11.415 93.01 11.415 93.01 20 92 C19.34 90.35 18.68 88.7 18 87 C16.515 86.505 16.515 86.505 15 86 C15 83.36 15 80.72 15 78 C17.97 77.505 17.97 77.505 21 77 C20.01 78.98 19.02 80.96 18 83 C18.845625 83.515625 19.69125 84.03125 20.5625 84.5625 C23 87 23 87 23.0625 90.625 C22 94 22 94 20.43359375 95.1484375 C17.00443293 96.34836857 13.59525012 96.70690896 10 97 C9.2884375 97.08894531 8.576875 97.17789063 7.84375 97.26953125 C5.75 97.4375 5.75 97.4375 2 97 C-0.80866605 93.88024752 -2.56902786 91.13747017 -2.5 86.875 C-2 83 -2 83 -0.125 80.5 C2 79 2 79 4 79 C4.268125 78.071875 4.53625 77.14375 4.8125 76.1875 C5.90977245 73.24218975 6.53357169 71.84982123 9 70 C9.66 70 10.32 70 11 70 C8.77650461 67.59297801 6.48658569 65.99968637 3.6875 64.3125 C-3.93691117 59.27914889 -7.99485458 52.86053108 -10 44 C-10.41132092 39.69941131 -10.41992041 35.44235083 -10.375 31.125 C-10.38660156 30.01769531 -10.39820313 28.91039062 -10.41015625 27.76953125 C-10.38053364 19.36658557 -9.91386225 10.18003037 -4.4375 3.375 C-2 1 -2 1 0 0 Z " fill="#080808" transform="translate(171,189)"/>
<path d="M0 0 C1.18722656 -0.05607422 1.18722656 -0.05607422 2.3984375 -0.11328125 C4.625 0.3125 4.625 0.3125 6.31640625 2.0078125 C7.72574367 4.48992914 8.47414336 6.7403289 9.1875 9.5 C9.82290517 12.10045802 9.82290517 12.10045802 10.625 14.3125 C11.285 14.6425 11.945 14.9725 12.625 15.3125 C12.625 15.9725 12.625 16.6325 12.625 17.3125 C13.20507812 17.44785156 13.78515625 17.58320313 14.3828125 17.72265625 C20.66900003 19.45498846 24.26409401 21.67353311 27.625 27.3125 C31.87388038 35.04255029 32.00086116 42.86597208 32.0625 51.5 C32.07265137 52.52150146 32.08280273 53.54300293 32.09326172 54.59545898 C32.00406725 62.3396747 31.1766151 69.17205065 26.1875 75.3125 C23.84684827 77.13935013 22.53395308 77.98928299 19.625 78.3125 C21.1120675 75.63577849 22.40988388 73.50806011 24.6875 71.4375 C30.60041486 64.95236757 29.16218114 53.90332437 29.0078125 45.7421875 C28.63301293 37.9091461 26.46861448 31.08050057 21.0625 25.1875 C17.69598456 22.59787274 15.23070146 21.45064244 11.0625 20.5 C9.234375 19.765625 9.234375 19.765625 7.625 18.3125 C6.4652801 14.97181432 5.80961876 11.73265454 5.23046875 8.24609375 C4.88272852 5.2038401 4.88272852 5.2038401 2.625 3.3125 C0.04145782 3.14562552 0.04145782 3.14562552 -2.375 3.3125 C-2.684375 5.230625 -2.684375 5.230625 -3 7.1875 C-3.11601562 7.90679687 -3.23203125 8.62609375 -3.3515625 9.3671875 C-3.35929687 10.00914062 -3.36703125 10.65109375 -3.375 11.3125 C-2.715 11.9725 -2.055 12.6325 -1.375 13.3125 C-1.75 15.4375 -1.75 15.4375 -2.375 17.3125 C-3.035 17.3125 -3.695 17.3125 -4.375 17.3125 C-4.705 16.6525 -5.035 15.9925 -5.375 15.3125 C-8.37506495 14.25210337 -11.19947451 14.19557606 -14.359375 14.21484375 C-15.29394531 14.21806641 -16.22851562 14.22128906 -17.19140625 14.22460938 C-18.64353516 14.23717773 -18.64353516 14.23717773 -20.125 14.25 C-21.10855469 14.25451172 -22.09210938 14.25902344 -23.10546875 14.26367188 C-25.52870791 14.27543517 -27.95182273 14.29187316 -30.375 14.3125 C-30.045 13.3225 -29.715 12.3325 -29.375 11.3125 C-21.785 11.3125 -14.195 11.3125 -6.375 11.3125 C-6.045 8.0125 -5.715 4.7125 -5.375 1.3125 C-3.79602167 -0.26647833 -2.18137428 0.06706491 0 0 Z " fill="#050505" transform="translate(374.375,166.6875)"/>
<path d="M0 0 C21.78 0 43.56 0 66 0 C65.67 0.99 65.34 1.98 65 3 C20.65594855 4.20900322 20.65594855 4.20900322 -1 4 C-0.67 2.68 -0.34 1.36 0 0 Z " fill="#2D2D2D" transform="translate(279,178)"/>
<path d="M0 0 C0.66 0.33 1.32 0.66 2 1 C0.35 4.96 -1.3 8.92 -3 13 C-4.65 13 -6.3 13 -8 13 C-7.34 16.63 -6.68 20.26 -6 24 C2.415 23.01 2.415 23.01 11 22 C10.34 20.35 9.68 18.7 9 17 C8.01 16.67 7.02 16.34 6 16 C6 13.36 6 10.72 6 8 C7.98 7.67 9.96 7.34 12 7 C11.01 8.98 10.02 10.96 9 13 C9.845625 13.515625 10.69125 14.03125 11.5625 14.5625 C14 17 14 17 14.0625 20.625 C13 24 13 24 11.43359375 25.1484375 C8.00443293 26.34836857 4.59525012 26.70690896 1 27 C0.2884375 27.08894531 -0.423125 27.17789062 -1.15625 27.26953125 C-3.25 27.4375 -3.25 27.4375 -7 27 C-9.80866605 23.88024752 -11.56902786 21.13747017 -11.5 16.875 C-11 13 -11 13 -9.125 10.5 C-7 9 -7 9 -5 9 C-4.5978125 7.6078125 -4.5978125 7.6078125 -4.1875 6.1875 C-3.08851629 3.23759634 -2.37581439 1.94384814 0 0 Z " fill="#0E0E0E" transform="translate(180,259)"/>
<path d="M0 0 C0 0.99 0 1.98 0 3 C-0.84304687 3.18175781 -1.68609375 3.36351562 -2.5546875 3.55078125 C-4.19824219 3.92783203 -4.19824219 3.92783203 -5.875 4.3125 C-7.51082031 4.67794922 -7.51082031 4.67794922 -9.1796875 5.05078125 C-12.29442353 5.77902058 -12.29442353 5.77902058 -14 9 C-14.3597865 13.76717107 -13.97969257 17.62383748 -12 22 C-8.99221479 23.00259507 -6.46179353 23.30314642 -3.3125 23.5625 C-2.31863281 23.64628906 -1.32476562 23.73007813 -0.30078125 23.81640625 C0.83810547 23.90728516 0.83810547 23.90728516 2 24 C2 24.99 2 25.98 2 27 C0.10489301 27.08160748 -1.79124504 27.13946459 -3.6875 27.1875 C-5.27111328 27.23970703 -5.27111328 27.23970703 -6.88671875 27.29296875 C-10.40249014 26.96212452 -12.19619156 26.10786313 -15 24 C-17.6957771 18.86518648 -17.85513667 12.66636016 -17 7 C-14.75 3.9375 -14.75 3.9375 -12 2 C-11.401875 1.566875 -10.80375 1.13375 -10.1875 0.6875 C-6.77467976 -0.38510065 -3.56579746 -0.11885992 0 0 Z " fill="#101010" transform="translate(205,202)"/>
<path d="M0 0 C-0.33 0.99 -0.66 1.98 -1 3 C-12.88 3.66 -24.76 4.32 -37 5 C-36.67 3.68 -36.34 2.36 -36 1 C-23.99494383 -0.14724086 -12.04750524 -0.1063689 0 0 Z " fill="#1E1E1E" transform="translate(228,264)"/>
<path d="M0 0 C-0.33 0.99 -0.66 1.98 -1 3 C-1.64960693 3.0501123 -2.29921387 3.10022461 -2.96850586 3.15185547 C-5.95872901 3.3863098 -8.94807452 3.63059304 -11.9375 3.875 C-13.46987305 3.99294922 -13.46987305 3.99294922 -15.03320312 4.11328125 C-21.19036192 4.62473853 -27.00219266 5.51149307 -33 7 C-31.34277344 3.15136719 -31.34277344 3.15136719 -28.2578125 1.7890625 C-19.08375276 -0.43295197 -9.38761725 -0.15223163 0 0 Z " fill="#1C1C1C" transform="translate(354,261)"/>
<path d="M0 0 C0.99 0 1.98 0 3 0 C3 1.32 3 2.64 3 4 C4.97536745 3.65213292 4.97536745 3.65213292 7 3 C7.33 2.34 7.66 1.68 8 1 C8.99 1 9.98 1 11 1 C11 1.99 11 2.98 11 4 C13.31 4.33 15.62 4.66 18 5 C17.67 5.99 17.34 6.98 17 8 C9.08 8 1.16 8 -7 8 C-6.67 7.34 -6.34 6.68 -6 6 C-4.02 6 -2.04 6 0 6 C0 4.02 0 2.04 0 0 Z " fill="#060606" transform="translate(277,250)"/>
<path d="M0 0 C8.91 0 17.82 0 27 0 C27 0.66 27 1.32 27 2 C23.25291686 3.87354157 18.74852647 3.22800786 14.625 3.25 C13.18640625 3.2809375 13.18640625 3.2809375 11.71875 3.3125 C10.79320312 3.31765625 9.86765625 3.3228125 8.9140625 3.328125 C8.0679541 3.3374707 7.2218457 3.34681641 6.35009766 3.35644531 C4 3 4 3 0 0 Z " fill="#232323" transform="translate(192,236)"/>
<path d="M0 0 C5.94 0 11.88 0 18 0 C17.67 0.99 17.34 1.98 17 3 C11.06 3 5.12 3 -1 3 C-0.67 2.01 -0.34 1.02 0 0 Z " fill="#1D1D1D" transform="translate(327,178)"/>
<path d="M0 0 C3.0625 -0.5 3.0625 -0.5 7 0 C11.02356157 3.17774411 13.61016051 6.54459923 14.9375 11.5 C14.958125 12.325 14.97875 13.15 15 14 C13.06987181 12.14410751 11.23460033 10.30774819 9.609375 8.17578125 C6.51327009 3.95607347 6.51327009 3.95607347 1.625 2.5625 C0.75875 2.706875 -0.1075 2.85125 -1 3 C-0.67 2.01 -0.34 1.02 0 0 Z " fill="#050505" transform="translate(239,161)"/>
<path d="M0 0 C0.66 0 1.32 0 2 0 C1.56179109 4.55737263 1.14958831 7.57653445 -2 11 C-4.86724686 10.42655063 -5.8614515 10.1385485 -8 8 C-8.125 4.875 -8.125 4.875 -8 2 C-7.34 2 -6.68 2 -6 2 C-6 3.65 -6 5.3 -6 7 C-4.68 7 -3.36 7 -2 7 C-1.34 4.69 -0.68 2.38 0 0 Z " fill="#080808" transform="translate(366,239)"/>
<path d="M0 0 C0.99 0.33 1.98 0.66 3 1 C2.125 7.875 2.125 7.875 1 9 C-0.99958364 9.04080783 -3.00045254 9.04254356 -5 9 C-5.66 6.36 -6.32 3.72 -7 1 C-6.01 1 -5.02 1 -4 1 C-4 2.65 -4 4.3 -4 6 C-2.68 6 -1.36 6 0 6 C0 4.02 0 2.04 0 0 Z " fill="#0B0B0B" transform="translate(194,247)"/>
<path d="M0 0 C0.99 0 1.98 0 3 0 C2.67 2.64 2.34 5.28 2 8 C2.99 8 3.98 8 5 8 C5.33 6.02 5.66 4.04 6 2 C6.66 2 7.32 2 8 2 C8.25 7.625 8.25 7.625 6 11 C3.375 11.1875 3.375 11.1875 1 11 C-0.20272819 8.59454362 -0.10071472 7.05003047 -0.0625 4.375 C-0.05347656 3.55773437 -0.04445312 2.74046875 -0.03515625 1.8984375 C-0.02355469 1.27195313 -0.01195312 0.64546875 0 0 Z " fill="#0B0B0B" transform="translate(244,228)"/>
<path d="M0 0 C0 0.66 0 1.32 0 2 C-5.28 3.98 -10.56 5.96 -16 8 C-15.67 6.68 -15.34 5.36 -15 4 C-12.12890625 2.48046875 -12.12890625 2.48046875 -8.5625 1.1875 C-6.80099609 0.52814453 -6.80099609 0.52814453 -5.00390625 -0.14453125 C-2 -1 -2 -1 0 0 Z " fill="#141414" transform="translate(395,244)"/>
<path d="M0 0 C2 1.3125 2 1.3125 4 4 C4.46970575 7.69756739 4.50438177 11.30511027 4 15 C3.34 15.66 2.68 16.32 2 17 C1.01 16.67 0.02 16.34 -1 16 C-0.67 15.34 -0.34 14.68 0 14 C0.66 14 1.32 14 2 14 C1.71848913 12.68528432 1.42446661 11.37324233 1.125 10.0625 C0.96257812 9.33160156 0.80015625 8.60070312 0.6328125 7.84765625 C0.17038477 5.79299706 0.17038477 5.79299706 -2 5 C-1.125 1.125 -1.125 1.125 0 0 Z " fill="#090909" transform="translate(322,267)"/>
<path d="M0 0 C0.66 0 1.32 0 2 0 C2.32728047 3.60008519 2.40422813 5.41611492 0.3125 8.4375 C-2 10 -2 10 -4.75 9.75 C-5.4925 9.5025 -6.235 9.255 -7 9 C-7 6.36 -7 3.72 -7 1 C-6.34 1 -5.68 1 -5 1 C-5 2.98 -5 4.96 -5 7 C-1.88794071 5.01487051 -1.88794071 5.01487051 -0.25 1.8125 C-0.1675 1.214375 -0.085 0.61625 0 0 Z " fill="#050505" transform="translate(359,200)"/>
<path d="M0 0 C0.66 0 1.32 0 2 0 C2.33 0.99 2.66 1.98 3 3 C3.99 2.67 4.98 2.34 6 2 C6.33 1.34 6.66 0.68 7 0 C7.66 0 8.32 0 9 0 C8.25 4.75 8.25 4.75 6 7 C3.375 7.125 3.375 7.125 1 7 C0.67 4.69 0.34 2.38 0 0 Z " fill="#050505" transform="translate(287,186)"/>
<path d="M0 0 C0 0.99 0 1.98 0 3 C-3.63 3.66 -7.26 4.32 -11 5 C-10.67 3.68 -10.34 2.36 -10 1 C-6.78548731 -0.60725635 -3.56387464 -0.05748185 0 0 Z " fill="#1E1E1E" transform="translate(205,202)"/>
<path d="M0 0 C3.63 0 7.26 0 11 0 C10.67 0.99 10.34 1.98 10 3 C6.37 3 2.74 3 -1 3 C-0.67 2.01 -0.34 1.02 0 0 Z " fill="#1E1E1E" transform="translate(295,255)"/>
<path d="M0 0 C0 0.33 0 0.66 0 1 C-1.8871875 1.12375 -1.8871875 1.12375 -3.8125 1.25 C-7.33811212 1.66557143 -7.33811212 1.66557143 -10 4.0625 C-10.33 4.701875 -10.66 5.34125 -11 6 C-11.625 4.1875 -11.625 4.1875 -12 2 C-8.43294024 -3.35058964 -5.52365393 -1.77173805 0 0 Z " fill="#202020" transform="translate(201,166)"/>
<path d="M0 0 C0.66 0.33 1.32 0.66 2 1 C2 1.66 2 2.32 2 3 C-0.97 4.65 -3.94 6.3 -7 8 C-5.06904938 4.13809876 -3.82753337 1.91376669 0 0 Z " fill="#1A1A1A" transform="translate(179,184)"/>
<path d="M0 0 C1.65 0 3.3 0 5 0 C5 0.99 5 1.98 5 3 C3.35 3.33 1.7 3.66 0 4 C0 2.68 0 1.36 0 0 Z " fill="#050505" transform="translate(181,199)"/>
<path d="M0 0 C1.98 0.495 1.98 0.495 4 1 C3.67 1.99 3.34 2.98 3 4 C1.68 4 0.36 4 -1 4 C-0.67 2.68 -0.34 1.36 0 0 Z " fill="#0F0F0F" transform="translate(225,199)"/>
</svg>
