<?xml version="1.0" encoding="UTF-8"?>
<svg version="1.1" xmlns="http://www.w3.org/2000/svg" width="800" height="300">
<path d="M0 0 C264 0 528 0 800 0 C800 99 800 198 800 300 C536 300 272 300 0 300 C0 201 0 102 0 0 Z " fill="#FEFEFE" transform="translate(0,0)"/>
<path d="M0 0 C3.80414376 0.21946983 6.51376957 0.73574433 9.875 2.5625 C12 5 12 5 13 13 C21.58 12.67 30.16 12.34 39 12 C39.99 9.03 40.98 6.06 42 3 C42.66 2.01 43.32 1.02 44 0 C46.53125 -0.328125 46.53125 -0.328125 49.5 -0.25 C50.96953125 -0.22679687 50.96953125 -0.22679687 52.46875 -0.203125 C55 0 55 0 57 1 C57 35.32 57 69.64 57 105 C44.73913043 102.95652174 44.73913043 102.95652174 39 101 C36.33582691 100.56573003 33.68709522 100.27797537 31 100 C33.01541486 104.98536618 33.01541486 104.98536618 37.19921875 107.95703125 C38.79988618 108.39779475 40.40143688 108.83536467 42.00390625 109.26953125 C44 110 44 110 45.5625 112.3125 C46.79479598 119.88231815 46.79479598 119.88231815 44 123.8125 C40.38164041 126.4508872 37.38721513 127.15013284 33 127 C29.3619437 126.33302301 26.73638534 125.43427853 23.5625 123.5625 C21.70556092 120.51711991 21.96101117 119.36588223 22.1875 115.875 C22.47668613 108.88788996 19.2686168 105.21922954 15 100 C11 94.43227666 11 94.43227666 11 92 C10.41621582 91.94054199 9.83243164 91.88108398 9.23095703 91.81982422 C-14.66151063 89.25840074 -14.66151063 89.25840074 -22.875 80 C-23.57625 79.01 -24.2775 78.02 -25 77 C-25.721875 76.071875 -26.44375 75.14375 -27.1875 74.1875 C-30.95935621 67.55423563 -31.36421704 60.19187335 -31.3125 52.6875 C-31.30903564 51.8629834 -31.30557129 51.0384668 -31.30200195 50.18896484 C-31.13920689 40.98789599 -30.0689519 31.18850265 -23.34375 24.3046875 C-17.94565374 20.11887557 -12.64919587 18.39339766 -6 17 C-6.103125 16.21625 -6.20625 15.4325 -6.3125 14.625 C-5.88272354 9.63959301 -3.63856553 3.63856553 0 0 Z " fill="#FBFBFB" transform="translate(743,155)"/>
<path d="M0 0 C0 0.99 0 1.98 0 3 C-0.97839844 3.25523437 -0.97839844 3.25523437 -1.9765625 3.515625 C-7.2459727 4.97675939 -11.81421138 6.32467341 -16 10 C-17.80765878 13.43983432 -17.80765878 13.43983432 -19 17 C-19.34957764 17.63284912 -19.69915527 18.26569824 -20.05932617 18.91772461 C-21.85024758 22.88210786 -21.33734229 27.28039827 -21.3125 31.5625 C-21.30686035 32.55523926 -21.3012207 33.54797852 -21.29541016 34.57080078 C-21.12034641 45.12142505 -19.89266406 54.35072205 -12 62 C-5.19163624 67.49151974 2.53468132 68.16319838 11 69 C12.79174386 69.20766843 14.58342398 69.4158886 16.375 69.625 C18.169375 69.810625 18.169375 69.810625 20 70 C20.25910156 70.86109375 20.51820313 71.7221875 20.78515625 72.609375 C22.0330399 76.09221426 23.57307574 79.05842643 25.4375 82.25 C26.03433594 83.28640625 26.63117187 84.3228125 27.24609375 85.390625 C28.89922544 88.20806577 28.89922544 88.20806577 32 90 C32.75 93.0625 32.75 93.0625 33 96 C32.67 96.33 32.34 96.66 32 97 C31.95936168 98.66617115 31.957279 100.33388095 32 102 C37.14368472 104.62432894 40.19423062 105.56309176 46 104 C48.12870693 103.03882095 48.12870693 103.03882095 49 101 C48.76522801 97.35458155 48.76522801 97.35458155 48 94 C45.03 94 42.06 94 39 94 C38.649375 93.236875 38.29875 92.47375 37.9375 91.6875 C35.81788923 87.36556195 33.03132786 83.46067081 30.328125 79.48828125 C29.88984375 78.66714844 29.4515625 77.84601563 29 77 C29.495 75.515 29.495 75.515 30 74 C30.33 74.99 30.66 75.98 31 77 C32.81397492 77.75725557 32.81397492 77.75725557 35.04296875 78.09765625 C36.28336914 78.34032227 36.28336914 78.34032227 37.54882812 78.58789062 C38.41958984 78.74451172 39.29035156 78.90113281 40.1875 79.0625 C45.61279449 80.0851331 50.77482192 81.17545788 56 83 C58.32694964 83.37531446 60.65976685 83.71917202 63 84 C63 84.99 63 85.98 63 87 C56.79901132 86.05680755 50.94563548 85.02692119 45 83 C42.33582691 82.56573003 39.68709522 82.27797537 37 82 C39.01541486 86.98536618 39.01541486 86.98536618 43.19921875 89.95703125 C44.79988618 90.39779475 46.40143688 90.83536467 48.00390625 91.26953125 C50 92 50 92 51.5625 94.3125 C52.79479598 101.88231815 52.79479598 101.88231815 50 105.8125 C46.38164041 108.4508872 43.38721513 109.15013284 39 109 C35.3619437 108.33302301 32.73638534 107.43427853 29.5625 105.5625 C27.70556092 102.51711991 27.96101117 101.36588223 28.1875 97.875 C28.47668613 90.88788996 25.2686168 87.21922954 21 82 C17 76.43227666 17 76.43227666 17 74 C16.41621582 73.94054199 15.83243164 73.88108398 15.23095703 73.81982422 C-8.66151063 71.25840074 -8.66151063 71.25840074 -16.875 62 C-17.57625 61.01 -18.2775 60.02 -19 59 C-20.0828125 57.6078125 -20.0828125 57.6078125 -21.1875 56.1875 C-24.95935621 49.55423563 -25.36421704 42.19187335 -25.3125 34.6875 C-25.30903564 33.8629834 -25.30557129 33.0384668 -25.30200195 32.18896484 C-25.14840997 23.50804784 -23.99594926 15.29624244 -19 8 C-13.47012073 2.67448583 -7.76318832 0 0 0 Z " fill="#1A1A1A" transform="translate(737,173)"/>
<path d="M0 0 C3.80414376 0.21946983 6.51376957 0.73574433 9.875 2.5625 C12 5 12 5 13 13 C21.58 12.67 30.16 12.34 39 12 C39.99 9.03 40.98 6.06 42 3 C42.66 2.01 43.32 1.02 44 0 C46.53125 -0.328125 46.53125 -0.328125 49.5 -0.25 C50.96953125 -0.22679687 50.96953125 -0.22679687 52.46875 -0.203125 C55 0 55 0 57 1 C57 1.99 57 2.98 57 4 C53.04 3.67 49.08 3.34 45 3 C44.79503906 3.85464844 44.59007812 4.70929688 44.37890625 5.58984375 C44.10949219 6.69457031 43.84007812 7.79929688 43.5625 8.9375 C43.29566406 10.03964844 43.02882813 11.14179688 42.75390625 12.27734375 C42 15 42 15 41 16 C38.78144736 16.08783542 36.56011504 16.10694609 34.33984375 16.09765625 C33.34314415 16.09553383 33.34314415 16.09553383 32.3263092 16.09336853 C30.19666101 16.08775518 28.06711661 16.07520054 25.9375 16.0625 C24.49674631 16.05748671 23.05599097 16.05292351 21.61523438 16.04882812 C18.07678898 16.03778145 14.53840461 16.02050792 11 16 C10.80664062 15.37424072 10.61328125 14.74848145 10.4140625 14.10375977 C10.02347656 12.87870728 10.02347656 12.87870728 9.625 11.62890625 C9.36976563 10.81752197 9.11453125 10.0061377 8.8515625 9.17016602 C7.77907149 6.43697434 6.65891299 5.24636547 4 4 C3.01 4 2.02 4 1 4 C0.79503906 4.55429688 0.59007812 5.10859375 0.37890625 5.6796875 C0.10949219 6.40414062 -0.15992188 7.12859375 -0.4375 7.875 C-0.83775391 8.95394531 -0.83775391 8.95394531 -1.24609375 10.0546875 C-2 12 -2 12 -3 14 C-3.0396713 15.66619446 -3.04384447 17.33391013 -3 19 C-3.66 19 -4.32 19 -5 19 C-6.48251273 16.03497454 -6.35770302 14.33856155 -6 11 C-2.39322917 2.39322917 -2.39322917 2.39322917 0 0 Z " fill="#141414" transform="translate(743,155)"/>
<path d="M0 0 C0 0.99 0 1.98 0 3 C-0.88751953 3.07347656 -0.88751953 3.07347656 -1.79296875 3.1484375 C-8.13120946 3.696027 -8.13120946 3.696027 -14 6 C-15.00496852 9.01490557 -15.10335303 11.04181692 -15.0625 14.1875 C-15.04896484 15.53908203 -15.04896484 15.53908203 -15.03515625 16.91796875 C-15.02355469 17.60503906 -15.01195312 18.29210937 -15 19 C-12.14839609 19.81434143 -9.63373869 20.11881242 -6.671875 20.09765625 C-5.87265625 20.09443359 -5.0734375 20.09121094 -4.25 20.08789062 C-3.425 20.07951172 -2.6 20.07113281 -1.75 20.0625 C-0.90953125 20.05798828 -0.0690625 20.05347656 0.796875 20.04882812 C2.86461401 20.03707961 4.93231624 20.01914522 7 20 C7 20.99 7 21.98 7 23 C1.35974644 25.82012678 -7.34131329 24.50610206 -13.1875 22.6875 C-16.50405353 21.52455266 -16.92369374 21.11445939 -19 18 C-19.60174277 13.2745494 -19.6647713 8.05508675 -17 4 C-11.42352799 -0.2985305 -6.8955466 -0.49947621 0 0 Z " fill="#121212" transform="translate(755,192)"/>
<path d="M0 0 C0 0.99 0 1.98 0 3 C-0.97839844 3.25523437 -0.97839844 3.25523437 -1.9765625 3.515625 C-7.2459727 4.97675939 -11.81421138 6.32467341 -16 10 C-17.65977219 13.13512524 -18.70759802 16.04234483 -19.73828125 19.41796875 C-19.98964844 20.22878906 -20.24101563 21.03960937 -20.5 21.875 C-20.82484375 23.01582031 -20.82484375 23.01582031 -21.15625 24.1796875 C-21.4346875 24.78039062 -21.713125 25.38109375 -22 26 C-22.99 26.33 -23.98 26.66 -25 27 C-23.7553546 18.09095921 -22.47857349 10.47760251 -15.1875 4.625 C-10.33390626 1.29888734 -5.8942806 0 0 0 Z " fill="#101010" transform="translate(737,173)"/>
<path d="M0 0 C0.99 0.495 0.99 0.495 2 1 C2 1.66 2 2.32 2 3 C2.54414551 3.11069824 3.08829102 3.22139648 3.64892578 3.33544922 C6.14174567 3.84482619 8.6333635 4.35986694 11.125 4.875 C11.9809375 5.04902344 12.836875 5.22304687 13.71875 5.40234375 C18.27090883 6.34779212 22.59859799 7.48046835 27 9 C29.32694964 9.37531446 31.65976685 9.71917202 34 10 C34 10.99 34 11.98 34 13 C22.89694915 11.31118644 22.89694915 11.31118644 18.9375 9.9375 C15.95041363 8.98417456 13.55564681 8.83677299 10.4375 8.6875 C6.36594584 8.38241079 5.20998708 8.15646096 1.8125 5.625 C0 3 0 3 0 0 Z " fill="#1B1B1B" transform="translate(766,247)"/>
<path d="M0 0 C2.85423192 -0.02718316 5.70820015 -0.04692705 8.5625 -0.0625 C9.36236328 -0.07087891 10.16222656 -0.07925781 10.98632812 -0.08789062 C15.77163104 -0.10742247 20.28145051 0.19562982 25 1 C25 1.99 25 2.98 25 4 C12.13 3.505 12.13 3.505 -1 3 C-0.67 2.01 -0.34 1.02 0 0 Z " fill="#191919" transform="translate(741,228)"/>
<path d="M0 0 C0 0.99 0 1.98 0 3 C-0.88751953 3.07347656 -0.88751953 3.07347656 -1.79296875 3.1484375 C-8.29022506 3.4861087 -8.29022506 3.4861087 -14 6 C-15.0369484 9.29094677 -15.57730897 12.58061883 -16 16 C-16.33 16 -16.66 16 -17 16 C-17.144375 15.21625 -17.28875 14.4325 -17.4375 13.625 C-17.87798925 11.03578982 -17.87798925 11.03578982 -19 9 C-18.20917288 5.2435712 -17.06907105 4.05324227 -14 1.6875 C-9.49762064 -0.68267433 -4.95895843 -0.35920021 0 0 Z " fill="#1D1D1D" transform="translate(755,192)"/>
<path d="M0 0 C2.53125 -0.328125 2.53125 -0.328125 5.5 -0.25 C6.96953125 -0.22679687 6.96953125 -0.22679687 8.46875 -0.203125 C11 0 11 0 13 1 C13 1.99 13 2.98 13 4 C9.04 3.67 5.08 3.34 1 3 C0.34 6.3 -0.32 9.6 -1 13 C-1.99 12.01 -2.98 11.02 -4 10 C-2.99806563 6.20696275 -2.18975773 3.28463659 0 0 Z " fill="#202020" transform="translate(787,155)"/>
<path d="M0 0 C5.875 0.875 5.875 0.875 7 2 C8.51469448 2.23192865 10.03754562 2.41215238 11.5625 2.5625 C12.38878906 2.64628906 13.21507812 2.73007813 14.06640625 2.81640625 C14.70449219 2.87699219 15.34257813 2.93757812 16 3 C16 3.99 16 4.98 16 6 C10.01488629 5.65697965 5.24882694 5.17692157 0 2 C0 1.34 0 0.68 0 0 Z " fill="#1C1C1C" transform="translate(784,244)"/>
<path d="M0 0 C5.68099789 0.9212429 11.33935016 1.96254994 17 3 C17 3.99 17 4.98 17 6 C4.33029613 4.07289294 4.33029613 4.07289294 -1 2 C-0.67 1.34 -0.34 0.68 0 0 Z " fill="#0C0C0C" transform="translate(783,254)"/>
<path d="M0 0 C0.66 0 1.32 0 2 0 C1.125 4.75 1.125 4.75 0 7 C-0.0396713 8.66619446 -0.04384447 10.33391013 0 12 C-0.66 12 -1.32 12 -2 12 C-3.40457737 9.19084526 -3.24895157 7.11189466 -3 4 C-1.625 1.625 -1.625 1.625 0 0 Z " fill="#1A1A1A" transform="translate(740,162)"/>
<path d="M0 0 C0.66 0 1.32 0 2 0 C2 0.99 2 1.98 2 3 C2.66 3 3.32 3 4 3 C4 2.01 4 1.02 4 0 C4.66 0 5.32 0 6 0 C6 1.98 6 3.96 6 6 C2.25 7.125 2.25 7.125 0 6 C0 4.02 0 2.04 0 0 Z " fill="#0F0F0F" transform="translate(764,237)"/>
<path d="M0 0 C1.41687119 4.25061356 0.19320039 6.71851625 -1 11 C-2.5625 9.875 -2.5625 9.875 -4 8 C-3.875 4.9375 -3.875 4.9375 -3 2 C-2.01 1.34 -1.02 0.68 0 0 Z " fill="#282828" transform="translate(787,157)"/>
<path d="M0 0 C1.65 0 3.3 0 5 0 C4.67 1.32 4.34 2.64 4 4 C2.68 4 1.36 4 0 4 C0 2.68 0 1.36 0 0 Z " fill="#050505" transform="translate(731,189)"/>
</svg>
