<?xml version="1.0" encoding="UTF-8"?>
<svg version="1.1" xmlns="http://www.w3.org/2000/svg" width="800" height="300">
<path d="M0 0 C264 0 528 0 800 0 C800 99 800 198 800 300 C536 300 272 300 0 300 C0 201 0 102 0 0 Z " fill="#FEFEFE" transform="translate(0,0)"/>
<path d="M0 0 C1.73656702 4.82379729 2.08542638 8.91102874 2 14 C6.29161047 14.05783842 10.58312145 14.0935412 14.875 14.125 C16.09832031 14.14175781 17.32164062 14.15851563 18.58203125 14.17578125 C20.33193359 14.18544922 20.33193359 14.18544922 22.1171875 14.1953125 C23.19597168 14.20578613 24.27475586 14.21625977 25.38623047 14.22705078 C28.16044022 14.26839977 28.16044022 14.26839977 30 12 C30.4823072 10.55586631 30.91457802 9.09462596 31.3125 7.625 C32.672255 3.40296072 33.95253475 1.16492327 38 -1 C41.3125 -1.25 41.3125 -1.25 44 -1 C47.11647527 4.06427231 47.5729774 8.21513205 47 14 C46.67 14.99 46.34 15.98 46 17 C46.9075 17.2475 47.815 17.495 48.75 17.75 C54.62905454 20.01117482 56.74940685 23.98723621 59.4375 29.5 C59.7375293 30.11367432 60.03755859 30.72734863 60.34667969 31.35961914 C62.69772838 36.2266914 64.83466306 41.17171878 66.859375 46.18359375 C69.45043466 52.58138146 72.30773877 58.66524246 75.5625 64.75 C75.96146484 65.50410156 76.36042969 66.25820312 76.77148438 67.03515625 C80.06241456 73.2214457 82.10244846 76.65036507 88.84814453 79.19287109 C95.11197045 80.79691513 101.52272808 80.44649581 107.9375 80.3125 C109.34048144 80.30097487 110.74347839 80.29119979 112.14648438 80.28320312 C131.98422409 80.96535107 131.98422409 80.96535107 149.375 73.3125 C155.83309796 64.40928403 157.28351348 52.4672035 158.26269531 41.82397461 C158.81769782 36.31073462 160.07541747 32.6610534 163 28 C165.1368827 24.5378033 165.1864625 21.91121898 165.0625 17.875 C164.90277778 12.19444444 164.90277778 12.19444444 166 10 C172.02020906 8.52334495 172.02020906 8.52334495 175.3125 10.125 C178.07872615 13.19858461 179 15.89028695 179 20 C179.66 20 180.32 20 181 20 C181 20.66 181 21.32 181 22 C181.721875 22.12375 182.44375 22.2475 183.1875 22.375 C186 23 186 23 188.5625 24.125 C191.41086161 25.14748878 192.15334652 24.74750253 195 24 C201.3117333 23.48313365 206.65398475 23.87468373 212.55859375 26.15625 C215.48248432 27.16674658 218.40279241 27.71620658 221.4375 28.3125 C230.68600127 30.41297074 237.22559547 35.33770725 244.5625 41.0625 C257.71520418 51.32187471 271.31028331 55.38443171 287.89257812 56.64550781 C328.24434709 59.75050641 328.24434709 59.75050641 341.25 74.5625 C345.98780839 81.16159026 344.49034643 91.45872342 343.65625 99.18359375 C342.42787728 106.56406653 340.83395236 112.92965397 335 118 C332.44140625 119.23046875 332.44140625 119.23046875 329.5625 120.1875 C328.17224609 120.67283203 328.17224609 120.67283203 326.75390625 121.16796875 C315.36057357 123.69323395 303.41361185 123.15673052 291.80126953 123.13037109 C289.03282049 123.12506293 286.26453754 123.13031829 283.49609375 123.13671875 C234.19839018 123.15641201 234.19839018 123.15641201 221 111 C216.74343105 106.6589334 213.42243734 102.12109393 210.25 96.9375 C205.98995184 90.36437882 200.30875371 85.54096374 192.671875 83.32421875 C191.84429687 83.16373047 191.84429687 83.16373047 191 83 C191.0309375 84.7015625 191.0309375 84.7015625 191.0625 86.4375 C191 90 191 90 190 91 C188.00041636 91.04080783 185.99954746 91.04254356 184 91 C184 90.34 184 89.68 184 89 C185.32 88.67 186.64 88.34 188 88 C188 87.01 188 86.02 188 85 C187.21689453 85.66128906 187.21689453 85.66128906 186.41796875 86.3359375 C183.51083485 88.33664677 180.62479895 89.41580688 177.3125 90.625 C173.36914009 91.8177082 173.36914009 91.8177082 170 94 C170.49113281 94.39832031 170.98226562 94.79664063 171.48828125 95.20703125 C173.43183425 97.5121755 173.316536 98.7196719 173.1875 101.6875 C173.14689453 102.89986328 173.14689453 102.89986328 173.10546875 104.13671875 C173.07066406 104.75160156 173.03585937 105.36648438 173 106 C175.97 106.495 175.97 106.495 179 107 C179.78034682 114.95953757 179.78034682 114.95953757 176.75 119 C172.93032619 121.77794459 169.96856342 122.14039195 165.3125 122.125 C164.52488281 122.12757813 163.73726562 122.13015625 162.92578125 122.1328125 C161 122 161 122 160 121 C159.92728259 118.64686445 159.91629132 116.29166332 159.9375 113.9375 C159.94652344 112.64714844 159.95554687 111.35679687 159.96484375 110.02734375 C159.98224609 108.52880859 159.98224609 108.52880859 160 107 C160.66 107 161.32 107 162 107 C162 106.34 162 105.68 162 105 C143.11031081 100.95411386 143.11031081 100.95411386 124 102 C121.2299003 103.96509909 121.2299003 103.96509909 119 106 C118.34 106 117.68 106 117 106 C117 106.66 117 107.32 117 108 C117.66 108 118.32 108 119 108 C120.5214596 111.04291919 120.57627079 112.60640537 120 116 C117.29617208 119.5044419 114.19815328 122.44650817 109.828125 123.546875 C106.84453055 123.6590402 104.46526088 123.23469643 101.80078125 121.890625 C99.13910676 119.09615547 99.43348953 116.91890636 99.4375 113.125 C99.63648242 105.42040074 99.63648242 105.42040074 102.375 102.625 C105 101 105 101 107 101 C107 99.68 107 98.36 107 97 C105.97642647 96.96574669 105.97642647 96.96574669 104.93217468 96.93080139 C97.84334581 96.69270394 90.75475058 96.4483935 83.66625977 96.20043945 C81.01917941 96.10866794 78.37204325 96.01849205 75.72485352 95.92993164 C71.92448448 95.80251713 68.12435172 95.66940516 64.32421875 95.53515625 C62.54285774 95.47727684 62.54285774 95.47727684 60.72550964 95.41822815 C59.62459488 95.37826218 58.52368011 95.3382962 57.3894043 95.29711914 C56.41899704 95.26380997 55.44858978 95.23050079 54.44877625 95.19618225 C52 95 52 95 49 94 C49.99 95.0828125 49.99 95.0828125 51 96.1875 C53.1535853 99.21597933 53.41176754 100.39703406 53 104 C53.804375 104.309375 54.60875 104.61875 55.4375 104.9375 C58 106 58 106 59 107 C59.55720584 110.78103961 59.84003776 114.47978241 57.953125 117.89453125 C56.17734309 120.04113821 54.5058873 121.74705635 52 123 C50.21247508 123.14754174 48.4183716 123.2211522 46.625 123.25 C45.66851562 123.27578125 44.71203125 123.3015625 43.7265625 123.328125 C40.47318508 122.93660107 39.16372346 122.47355241 37 120 C36.609375 116.86328125 36.609375 116.86328125 36.75 113.3125 C36.78609375 112.13300781 36.8221875 110.95351563 36.859375 109.73828125 C36.90578125 108.83464844 36.9521875 107.93101562 37 107 C26.95503582 101.39350837 14.50930892 104.06355726 3.5625 105.4375 C1.86577148 105.63956055 1.86577148 105.63956055 0.13476562 105.84570312 C-4.93360943 106.45724926 -9.96778256 107.13559002 -15 108 C-14.67 108.99 -14.34 109.98 -14 111 C-13.76171875 113.375 -13.76171875 113.375 -13.6875 116 C-13.65011719 116.86625 -13.61273438 117.7325 -13.57421875 118.625 C-14 121 -14 121 -15.6796875 122.78515625 C-19.92648586 125.00864832 -24.34161795 124.60731499 -29 124 C-32.125 122.4375 -32.125 122.4375 -34 120 C-35 116.4375 -35 116.4375 -35 113 C-34.2884375 112.30390625 -34.2884375 112.30390625 -33.5625 111.59375 C-31.50853083 109.49870145 -31.4149293 107.93674981 -31 105.0625 C-30.4267003 101.10314898 -29.37827503 99.16448165 -27 96 C-27.22573891 92.80764728 -27.22573891 92.80764728 -28 90 C-29.98 89.34 -31.96 88.68 -34 88 C-34 87.34 -34 86.68 -34 86 C-34.61488281 85.76023437 -35.22976562 85.52046875 -35.86328125 85.2734375 C-38.51004968 83.69602158 -39.03817458 82.44905675 -40.1875 79.625 C-40.67283203 78.46871094 -40.67283203 78.46871094 -41.16796875 77.2890625 C-43.39896229 71.15121174 -43.18376653 65.29007252 -43.1875 58.8125 C-43.19974609 57.71357422 -43.21199219 56.61464844 -43.22460938 55.48242188 C-43.24162162 45.97257425 -42.3285335 36.17141031 -37 28 C-32.09190601 23.1746267 -26.74745107 19.14141325 -19.6875 18.875 C-18.800625 18.91625 -17.91375 18.9575 -17 19 C-17.33 19.99 -17.66 20.98 -18 22 C-19.78515625 22.484375 -19.78515625 22.484375 -22.0625 22.75 C-27.77221682 23.87739631 -31.3523798 26.50236875 -35 31 C-41.46453978 42.82674475 -42.72607614 61.09529947 -39.05859375 74.03515625 C-36.07587854 81.58077122 -31.9282423 84.95852532 -25 89 C-24.505 89.495 -24.505 89.495 -24 90 C-20.9964046 90.28627309 -17.99259893 90.44865755 -14.98046875 90.62109375 C-12.16293188 90.97928651 -10.41252004 91.55716114 -8 93 C-8 93.66 -8 94.32 -8 95 C-9.42892578 94.87818359 -9.42892578 94.87818359 -10.88671875 94.75390625 C-17.69193461 94.16230121 -17.69193461 94.16230121 -23.97265625 96.20703125 C-27.04042587 100.21295671 -27.81894616 104.84635761 -28.4453125 109.765625 C-29.08506411 112.34265259 -29.98664158 113.32401515 -32 115 C-30.91744593 117.55690423 -30.91744593 117.55690423 -29 120 C-24.43040668 121.52319777 -21.39234325 120.77785322 -17 119 C-16.76571687 114.2102679 -16.76571687 114.2102679 -19 110 C-18.8125 107.9375 -18.8125 107.9375 -18 106 C-15.05588588 104.03725725 -13.86781734 103.64523348 -10.5 103.18359375 C-9.17754272 102.9976062 -9.17754272 102.9976062 -7.82836914 102.80786133 C-6.42832642 102.62453247 -6.42832642 102.62453247 -5 102.4375 C-4.04536865 102.30819092 -3.0907373 102.17888184 -2.10717773 102.0456543 C29.89582939 97.77731228 29.89582939 97.77731228 38 103 C40 105.0625 40 105.0625 41 108 C40.93257181 111.3817831 40.53779663 114.66306913 40 118 C44.32056706 120.22574667 47.31898822 120.27663958 52 119 C54.80432309 116.41139407 55.91031421 115.00896512 56.25 111.1875 C56.1675 110.465625 56.085 109.74375 56 109 C53.69 108.34 51.38 107.68 49 107 C49.37125 105.6696875 49.37125 105.6696875 49.75 104.3125 C50.31318202 100.95572333 50.31318202 100.95572333 48.4375 98.25 C45.71416239 95.7361499 43.56581457 94.89145364 40 94 C40.495 92.515 40.495 92.515 41 91 C41.70332962 91.07064667 42.40665924 91.14129333 43.13130188 91.21408081 C51.1181477 91.95540014 59.02508136 92.14605633 67.04296875 92.1328125 C68.33318436 92.13376923 69.62339996 92.13472595 70.95271301 92.13571167 C73.65444159 92.13717091 76.35613669 92.13508813 79.05786133 92.13037109 C82.52582735 92.12461138 85.99371703 92.12800282 89.46168041 92.13394356 C92.78044949 92.1384065 96.09919751 92.13529369 99.41796875 92.1328125 C101.28958931 92.13584885 101.28958931 92.13584885 103.19902039 92.13894653 C104.91264519 92.13421829 104.91264519 92.13421829 106.66088867 92.12939453 C107.67060226 92.12859894 108.68031586 92.12780334 109.72062683 92.12698364 C111.96629411 92.25593262 111.96629411 92.25593262 113 91 C114.68608966 90.92794489 116.37500659 90.91613932 118.0625 90.9375 C119.44115234 90.95103516 119.44115234 90.95103516 120.84765625 90.96484375 C121.91306641 90.98224609 121.91306641 90.98224609 123 91 C123.33 92.32 123.66 93.64 124 95 C122.80375 94.938125 121.6075 94.87625 120.375 94.8125 C116.23802523 94.82719618 113.44575692 95.5627573 110 98 C109.33652369 100.48400985 109.33652369 100.48400985 109 103 C105.79310345 106 105.79310345 106 103 106 C103 109.96 103 113.92 103 118 C105.82001327 119.41000664 107.87007255 119.24548451 111 119 C113.85688329 117.9529689 113.85688329 117.9529689 116 116 C116.88658466 113.40877257 116.88658466 113.40877257 117 111 C115.35 110.67 113.7 110.34 112 110 C112 107.8125 112 107.8125 113 105 C115.46012984 102.94189138 118.14299402 101.4424623 121 100 C122.07894531 99.45214844 123.15789062 98.90429688 124.26953125 98.33984375 C128.42431576 96.84760177 131.7536835 96.78320615 136.0625 97.1875 C136.79839355 97.24647461 137.53428711 97.30544922 138.29248047 97.36621094 C140.53084957 97.55623839 142.76480343 97.77603141 145 98 C146.31097656 98.11472656 147.62195313 98.22945313 148.97265625 98.34765625 C156.07233063 99.12975942 160.65600201 100.1649542 166 105 C165.01 106.98 165.01 106.98 164 109 C163.34 109 162.68 109 162 109 C162.33 111.97 162.66 114.94 163 118 C169.11355631 118.58041511 169.11355631 118.58041511 174.5 116.3125 C176.1175594 113.81876259 176.67357189 111.93785297 177 109 C174.69 108.67 172.38 108.34 170 108 C170 104.37 170 100.74 170 97 C166.04 96.01 162.08 95.02 158 94 C157.67 92.68 157.34 91.36 157 90 C158.134375 90.04125 159.26875 90.0825 160.4375 90.125 C169.05292004 90.07965568 177.72925567 87.70080095 185 83 C186.40542699 80.07088857 186.40542699 80.07088857 186 77 C186.04125 76.071875 186.0825 75.14375 186.125 74.1875 C186.24477314 72.02290152 186.24477314 72.02290152 185 71 C184.70613847 67.27775401 184.85190829 66.22213757 187 63 C187.06220318 60.61083618 187.06220318 60.61083618 186.6875 58.0625 C186.58824219 57.20785156 186.48898437 56.35320312 186.38671875 55.47265625 C186.05940177 53.02665343 186.05940177 53.02665343 185.359375 50.82421875 C185.18148437 49.92123047 185.18148437 49.92123047 185 49 C185.7734375 47.88625 185.7734375 47.88625 186.5625 46.75 C188.44264086 43.15320879 187.63196456 41.65152259 186.48828125 37.92578125 C185.5723292 34.31326637 186.85878052 31.42365843 188 28 C187.24074219 27.81566406 186.48148438 27.63132813 185.69921875 27.44140625 C177.67010403 25.09827939 177.67010403 25.09827939 175.63671875 21.765625 C174.93842425 19.51675862 174.44053007 17.31043964 174 15 C172.93354885 13.70366379 172.93354885 13.70366379 170.4375 13.9375 C169.633125 13.958125 168.82875 13.97875 168 14 C167.9288406 17.55796992 167.87331992 20.5656683 168.875 24 C169.02479383 27.59505184 168.42600362 28.07421732 166.125 30.6875 C165.57070313 31.24824219 165.01640625 31.80898437 164.4453125 32.38671875 C161.75630762 35.3882296 161.88773775 38.35580697 161.9375 42.1875 C161.94652344 43.08855469 161.95554687 43.98960937 161.96484375 44.91796875 C161.97644531 45.60503906 161.98804688 46.29210937 162 47 C161.34 47 160.68 47 160 47 C160.103125 48.010625 160.20625 49.02125 160.3125 50.0625 C160.296673 58.94144606 156.4290079 69.78691068 150.62890625 76.48828125 C140.60943754 85.78692488 122.992432 84.33783222 110.07836914 84.26074219 C107.90679028 84.24984591 105.73601005 84.26081358 103.56445312 84.2734375 C102.15624821 84.27211827 100.74804378 84.26956081 99.33984375 84.265625 C98.09581787 84.26336914 96.85179199 84.26111328 95.57006836 84.25878906 C89.19161657 83.79642437 83.83658355 82.23201061 79 78 C76.37922726 74.14763919 74.17137209 70.11899624 72 66 C71.52175781 65.10023438 71.04351562 64.20046875 70.55078125 63.2734375 C68.35387673 59.01157468 66.48506728 54.75824928 64.8671875 50.25 C59.05549446 33.69161573 59.05549446 33.69161573 48 21 C45.85266073 20.29485154 45.85266073 20.29485154 44 20 C44.01160156 19.11957031 44.02320313 18.23914063 44.03515625 17.33203125 C44.04417969 16.17058594 44.05320312 15.00914062 44.0625 13.8125 C44.07410156 12.66394531 44.08570313 11.51539063 44.09765625 10.33203125 C44.01192832 7.40699414 43.67849023 4.83683709 43 2 C40.0957107 2.10792821 40.0957107 2.10792821 37 3 C33.78525915 6.78880172 33.10407201 11.2682628 32 16 C31 17 31 17 28.04077148 17.11352539 C26.74727783 17.10828857 25.45378418 17.10305176 24.12109375 17.09765625 C23.09110008 17.09553383 23.09110008 17.09553383 22.04029846 17.09336853 C19.83932199 17.08775479 17.63844591 17.07520007 15.4375 17.0625 C13.94856917 17.05748676 12.45963676 17.05292355 10.97070312 17.04882812 C7.31376925 17.03778093 3.65689442 17.02050713 0 17 C-0.19916016 15.73542969 -0.19916016 15.73542969 -0.40234375 14.4453125 C-0.57894531 13.34960938 -0.75554687 12.25390625 -0.9375 11.125 C-1.11152344 10.03445312 -1.28554687 8.94390625 -1.46484375 7.8203125 C-1.85551159 5.06178454 -1.85551159 5.06178454 -3 3 C-4.27875 3.103125 -5.5575 3.20625 -6.875 3.3125 C-7.59429687 3.37050781 -8.31359375 3.42851562 -9.0546875 3.48828125 C-11.39519216 3.87393036 -11.39519216 3.87393036 -13 7 C-13.24246783 10.20379124 -13.24246783 10.20379124 -13.125 13.6875 C-13.09792969 15.45673828 -13.09792969 15.45673828 -13.0703125 17.26171875 C-13.04710937 18.16535156 -13.02390625 19.06898438 -13 20 C-13.99 20 -14.98 20 -16 20 C-16.08117951 17.58265458 -16.14056926 15.16805051 -16.1875 12.75 C-16.21263672 12.06808594 -16.23777344 11.38617188 -16.26367188 10.68359375 C-16.30968538 7.52399974 -16.20961915 5.36892971 -14.6328125 2.59375 C-10.7614206 -1.18502486 -4.93472278 -2.46736139 0 0 Z " fill="#666666" transform="translate(205,162)"/>
<path d="M0 0 C3.4833281 5.66040816 3 7.51799117 3 15 C18.345 14.505 18.345 14.505 34 14 C34.99 10.7 35.98 7.4 37 4 C37.99 2.68 38.98 1.36 40 0 C43.1875 -0.25 43.1875 -0.25 46 0 C48.06440531 4.1839665 48.0902668 7.20635871 47.625 11.8125 C47.51414062 12.97394531 47.40328125 14.13539063 47.2890625 15.33203125 C47.19367188 16.21246094 47.09828125 17.09289062 47 18 C48.0828125 18.12375 48.0828125 18.12375 49.1875 18.25 C53.92761464 19.51403057 56.32007424 21.88215595 58.84375 26.03125 C59.3903125 27.1759375 59.936875 28.320625 60.5 29.5 C60.79479248 30.11222412 61.08958496 30.72444824 61.39331055 31.35522461 C64.48756099 37.8586085 67.32628153 44.48960375 69.83203125 51.2421875 C71.62064491 55.46546925 73.75206233 59.49920967 75.875 63.5625 C76.52662109 64.83770508 76.52662109 64.83770508 77.19140625 66.13867188 C80.46299027 72.40183948 83.57288615 76.70806364 90 80 C96.07657638 81.56890541 102.36718881 81.18599139 108.59741211 81.18530273 C110.76762537 81.18745549 112.93730071 81.20553629 115.10742188 81.22460938 C134.68257554 81.9427802 134.68257554 81.9427802 152 75 C159.39615034 66.97882287 162.16541681 55.64093563 163 45 C163.66 45 164.32 45 165 45 C164.67 44.01 164.34 43.02 164 42 C163.41144422 35.87901994 164.6704815 32.94671319 168 28 C168.54785156 27.57460937 169.09570312 27.14921875 169.66015625 26.7109375 C171.77977927 24.00424687 171.01492154 21.69301157 170.625 18.375 C170.38612369 16.25321634 170.170038 14.12840665 170 12 C171 11 171 11 173.3125 10.5625 C176 11 176 11 178.3125 13.6875 C179.95386636 16.90944137 180.41451116 18.47665512 180 22 C180.86625 22.103125 181.7325 22.20625 182.625 22.3125 C186.16683123 23.03398414 188.84312042 24.27123261 192 26 C191.649375 26.53625 191.29875 27.0725 190.9375 27.625 C189.38418294 31.5600699 190.77113419 35.06546462 191.75 39.0625 C192 42 192 42 190.4375 44.375 C188.79005 47.38338696 188.94185301 47.79482217 189.8125 50.9375 C190.02003906 51.62070313 190.22757813 52.30390625 190.44140625 53.0078125 C191.21069838 55.75144179 191.26292574 58.17354833 191 61 C190.34 61.99 189.68 62.98 189 64 C188.74969023 66.58380177 188.74969023 66.58380177 189 69 C189.33 69.33 189.66 69.66 190 70 C190.23828125 71.92578125 190.23828125 71.92578125 190.3125 74.3125 C190.34988281 75.09238281 190.38726562 75.87226563 190.42578125 76.67578125 C189.83371525 79.90770117 188.53405237 80.95572245 186 83 C178.43920247 87.22448175 170.65977598 89.19745418 162 89 C161.34 88.67 160.68 88.34 160 88 C160.33 88.99 160.66 89.98 161 91 C163.23236116 91.91849826 163.23236116 91.91849826 165.875 92.5 C169.42390744 93.36912019 171.78636186 93.98337548 174 97 C174.43076923 103.13846154 174.43076923 103.13846154 173 106 C175.31 106.33 177.62 106.66 180 107 C180.50709429 110.54966001 180.13037986 111.81073891 178.0625 114.8125 C174.0321941 117.69128993 170.82285029 117.69751967 166 117 C164.41132134 115.41132134 164.79205961 113.75310484 164.75 111.5625 C164.71132813 110.35787109 164.71132813 110.35787109 164.671875 109.12890625 C164.78015625 108.42636719 164.8884375 107.72382813 165 107 C165.99 106.34 166.98 105.68 168 105 C167.27987913 101.87656701 167.27987913 101.87656701 164.78076172 100.37182617 C161.89007617 98.94577156 159.69539703 98.42580736 156.5078125 98.05078125 C154.95513672 97.86225586 154.95513672 97.86225586 153.37109375 97.66992188 C152.29988281 97.55197266 151.22867188 97.43402344 150.125 97.3125 C148.52978516 97.11817383 148.52978516 97.11817383 146.90234375 96.91992188 C134.98379784 95.52078822 128.29072392 96.05974433 118 103 C117.34 103 116.68 103 116 103 C115.67 104.65 115.34 106.3 115 108 C116.65 108 118.3 108 120 108 C120.8125 109.6875 120.8125 109.6875 121 112 C118.8386373 114.51185394 116.98037561 116.50981219 114 118 C109.94857881 118.25860135 108.45662331 118.30441554 105 116 C104.28250983 112.62181711 104.41386095 109.39427793 105 106 C107.375 102.875 107.375 102.875 110 101 C110.66 101 111.32 101 112 101 C111.896875 100.236875 111.79375 99.47375 111.6875 98.6875 C112 96 112 96 114.125 94.25 C118.53775406 92.33141128 122.35977996 91.39376999 127 93 C126.67 92.01 126.34 91.02 126 90 C124.35425434 89.97311849 122.70838587 89.95365877 121.0625 89.9375 C120.14597656 89.92589844 119.22945312 89.91429687 118.28515625 89.90234375 C116.03406673 89.74050951 116.03406673 89.74050951 115 91 C113.22252978 91.09902268 111.44111447 91.12799182 109.66088867 91.12939453 C107.94726387 91.13412277 107.94726387 91.13412277 106.19902039 91.13894653 C104.32739983 91.13591019 104.32739983 91.13591019 102.41796875 91.1328125 C101.13827713 91.13376923 99.85858551 91.13472595 98.54011536 91.13571167 C95.81880497 91.13719027 93.09752729 91.13503279 90.3762207 91.13037109 C86.92135278 91.12473608 83.46656361 91.12791159 80.01169872 91.13394356 C76.68878287 91.13847917 73.36588683 91.13527652 70.04296875 91.1328125 C68.204748 91.13584885 68.204748 91.13584885 66.32939148 91.13894653 C58.83746553 91.11888371 51.45480669 90.74880573 44 90 C43.67 90.66 43.34 91.32 43 92 C43.886875 92.04125 44.77375 92.0825 45.6875 92.125 C50.37252576 93.36255397 51.50180461 94.86236388 54 99 C53.3125 102.375 53.3125 102.375 52 105 C53.134375 105.144375 54.26875 105.28875 55.4375 105.4375 C59 106 59 106 60 107 C60.63694209 110.71549555 59.9918628 112.01282225 57.9375 115.25 C55.74851249 117.64304566 54.84116893 118.04909324 51.5625 119.0625 C47.56780053 118.99241755 45.38119982 118.06170721 42 116 C41.92313646 113.30977614 41.97016795 111.10848017 42.6875 108.5 C43.21412485 105.91256732 43.21412485 105.91256732 41.9375 103.3125 C39.04369567 99.8586045 35.66615309 99.18327684 31.265625 98.69921875 C22.95636793 98.66692889 14.81457607 99.44540696 6.5625 100.375 C5.43682617 100.50092529 4.31115234 100.62685059 3.15136719 100.7565918 C-6.20022067 101.82670909 -6.20022067 101.82670909 -15 105 C-14.62095792 108.29075996 -14.62095792 108.29075996 -13 111 C-12.8125 113.9375 -12.8125 113.9375 -13 117 C-15.48259432 119.48259432 -17.54005148 119.68317674 -20.96484375 120.03125 C-24.04473497 119.983958 -25.68807649 118.97193476 -28 117 C-29.3125 114.8125 -29.3125 114.8125 -30 113 C-29.34 112.01 -28.68 111.02 -28 110 C-27.34 110 -26.68 110 -26 110 C-26.0825 109.01 -26.165 108.02 -26.25 107 C-26.2608659 101.65397899 -23.73588072 97.56385014 -20.8125 93.24609375 C-17.88439909 91.23302438 -15.25993374 91.96459384 -11.8125 92.3125 C-10.54019531 92.43238281 -9.26789063 92.55226563 -7.95703125 92.67578125 C-6.98121094 92.78277344 -6.00539062 92.88976562 -5 93 C-5.33 92.34 -5.66 91.68 -6 91 C-10.03484579 89.6550514 -13.95607846 89.67361399 -18.1875 89.4765625 C-21.31543034 88.94655208 -22.01279055 88.34905953 -24 86 C-24.969375 85.54625 -25.93875 85.0925 -26.9375 84.625 C-32.75719568 81.53699821 -34.83425431 76.75640211 -37.14892578 70.85083008 C-38.58784519 66.0309041 -38.50013173 61.36709729 -38.375 56.375 C-38.37371094 55.39015625 -38.37242187 54.4053125 -38.37109375 53.390625 C-38.25549347 43.75726811 -36.65632434 33.55380182 -30.27734375 25.9453125 C-25.51057838 21.37755721 -21.49427549 19.91325749 -15 19 C-14.67 14.38 -14.34 9.76 -14 5 C-13.67 5 -13.34 5 -13 5 C-13 9.29 -13 13.58 -13 18 C-12.01 18 -11.02 18 -10 18 C-10.33 17.01 -10.66 16.02 -11 15 C-11.14252401 13.35823305 -11.22026755 11.71017345 -11.25 10.0625 C-11.27578125 9.20785156 -11.3015625 8.35320312 -11.328125 7.47265625 C-10.93069787 4.47775895 -10.07538822 3.16751994 -8 1 C-5.07175348 0.02391783 -3.04386724 -0.08226668 0 0 Z " fill="#F9F9F9" transform="translate(202,164)"/>
<path d="M0 0 C1.73656702 4.82379729 2.08542638 8.91102874 2 14 C6.29161047 14.05783842 10.58312145 14.0935412 14.875 14.125 C16.09832031 14.14175781 17.32164062 14.15851563 18.58203125 14.17578125 C20.33193359 14.18544922 20.33193359 14.18544922 22.1171875 14.1953125 C23.19597168 14.20578613 24.27475586 14.21625977 25.38623047 14.22705078 C28.16044022 14.26839977 28.16044022 14.26839977 30 12 C30.4823072 10.55586631 30.91457802 9.09462596 31.3125 7.625 C32.672255 3.40296072 33.95253475 1.16492327 38 -1 C41.3125 -1.25 41.3125 -1.25 44 -1 C47.11647527 4.06427231 47.5729774 8.21513205 47 14 C46.67 14.99 46.34 15.98 46 17 C46.9075 17.2475 47.815 17.495 48.75 17.75 C54.62905454 20.01117482 56.74940685 23.98723621 59.4375 29.5 C59.7375293 30.11367432 60.03755859 30.72734863 60.34667969 31.35961914 C62.69772838 36.2266914 64.83466306 41.17171878 66.859375 46.18359375 C69.45043466 52.58138146 72.30773877 58.66524246 75.5625 64.75 C75.96146484 65.50410156 76.36042969 66.25820312 76.77148438 67.03515625 C80.06241456 73.2214457 82.10244846 76.65036507 88.84814453 79.19287109 C95.11197045 80.79691513 101.52272808 80.44649581 107.9375 80.3125 C109.34048144 80.30097487 110.74347839 80.29119979 112.14648438 80.28320312 C131.98422409 80.96535107 131.98422409 80.96535107 149.375 73.3125 C155.83309796 64.40928403 157.28351348 52.4672035 158.26269531 41.82397461 C158.81769782 36.31073462 160.07541747 32.6610534 163 28 C165.1368827 24.5378033 165.1864625 21.91121898 165.0625 17.875 C164.90277778 12.19444444 164.90277778 12.19444444 166 10 C172.02020906 8.52334495 172.02020906 8.52334495 175.3125 10.125 C178.07872615 13.19858461 179 15.89028695 179 20 C179.66 20 180.32 20 181 20 C181 20.66 181 21.32 181 22 C181.721875 22.12375 182.44375 22.2475 183.1875 22.375 C186 23 186 23 188.5625 24.125 C191.41086161 25.14748878 192.15334652 24.74750253 195 24 C201.3117333 23.48313365 206.65398475 23.87468373 212.55859375 26.15625 C215.48248432 27.16674658 218.40279241 27.71620658 221.4375 28.3125 C230.68600127 30.41297074 237.22559547 35.33770725 244.5625 41.0625 C257.71520418 51.32187471 271.31028331 55.38443171 287.89257812 56.64550781 C328.24434709 59.75050641 328.24434709 59.75050641 341.25 74.5625 C345.98780839 81.16159026 344.49034643 91.45872342 343.65625 99.18359375 C342.42787728 106.56406653 340.83395236 112.92965397 335 118 C332.44140625 119.23046875 332.44140625 119.23046875 329.5625 120.1875 C328.17224609 120.67283203 328.17224609 120.67283203 326.75390625 121.16796875 C315.36057357 123.69323395 303.41361185 123.15673052 291.80126953 123.13037109 C289.03282049 123.12506293 286.26453754 123.13031829 283.49609375 123.13671875 C234.19839018 123.15641201 234.19839018 123.15641201 221 111 C216.74343105 106.6589334 213.42243734 102.12109393 210.25 96.9375 C205.98995184 90.36437882 200.30875371 85.54096374 192.671875 83.32421875 C191.84429687 83.16373047 191.84429687 83.16373047 191 83 C191.0309375 84.7015625 191.0309375 84.7015625 191.0625 86.4375 C191 90 191 90 190 91 C188.00041636 91.04080783 185.99954746 91.04254356 184 91 C184 90.34 184 89.68 184 89 C185.32 88.67 186.64 88.34 188 88 C188 87.01 188 86.02 188 85 C187.21689453 85.66128906 187.21689453 85.66128906 186.41796875 86.3359375 C183.51083485 88.33664677 180.62479895 89.41580688 177.3125 90.625 C173.36914009 91.8177082 173.36914009 91.8177082 170 94 C170.49113281 94.39832031 170.98226562 94.79664063 171.48828125 95.20703125 C173.43183425 97.5121755 173.316536 98.7196719 173.1875 101.6875 C173.14689453 102.89986328 173.14689453 102.89986328 173.10546875 104.13671875 C173.07066406 104.75160156 173.03585937 105.36648438 173 106 C175.97 106.495 175.97 106.495 179 107 C179.78034682 114.95953757 179.78034682 114.95953757 176.75 119 C172.93032619 121.77794459 169.96856342 122.14039195 165.3125 122.125 C164.52488281 122.12757813 163.73726562 122.13015625 162.92578125 122.1328125 C161 122 161 122 160 121 C159.92728259 118.64686445 159.91629132 116.29166332 159.9375 113.9375 C159.94652344 112.64714844 159.95554687 111.35679687 159.96484375 110.02734375 C159.98224609 108.52880859 159.98224609 108.52880859 160 107 C160.66 107 161.32 107 162 107 C162 106.34 162 105.68 162 105 C143.11031081 100.95411386 143.11031081 100.95411386 124 102 C121.2299003 103.96509909 121.2299003 103.96509909 119 106 C118.34 106 117.68 106 117 106 C117 106.66 117 107.32 117 108 C117.66 108 118.32 108 119 108 C120.5214596 111.04291919 120.57627079 112.60640537 120 116 C117.29617208 119.5044419 114.19815328 122.44650817 109.828125 123.546875 C106.84453055 123.6590402 104.46526088 123.23469643 101.80078125 121.890625 C99.13910676 119.09615547 99.43348953 116.91890636 99.4375 113.125 C99.63648242 105.42040074 99.63648242 105.42040074 102.375 102.625 C105 101 105 101 107 101 C107 99.68 107 98.36 107 97 C105.97642647 96.96574669 105.97642647 96.96574669 104.93217468 96.93080139 C97.84334581 96.69270394 90.75475058 96.4483935 83.66625977 96.20043945 C81.01917941 96.10866794 78.37204325 96.01849205 75.72485352 95.92993164 C71.92448448 95.80251713 68.12435172 95.66940516 64.32421875 95.53515625 C62.54285774 95.47727684 62.54285774 95.47727684 60.72550964 95.41822815 C59.62459488 95.37826218 58.52368011 95.3382962 57.3894043 95.29711914 C56.41899704 95.26380997 55.44858978 95.23050079 54.44877625 95.19618225 C52 95 52 95 49 94 C49.99 95.0828125 49.99 95.0828125 51 96.1875 C53.1535853 99.21597933 53.41176754 100.39703406 53 104 C53.804375 104.309375 54.60875 104.61875 55.4375 104.9375 C58 106 58 106 59 107 C59.55720584 110.78103961 59.84003776 114.47978241 57.953125 117.89453125 C56.17734309 120.04113821 54.5058873 121.74705635 52 123 C50.21247508 123.14754174 48.4183716 123.2211522 46.625 123.25 C45.66851562 123.27578125 44.71203125 123.3015625 43.7265625 123.328125 C40.47318508 122.93660107 39.16372346 122.47355241 37 120 C36.609375 116.86328125 36.609375 116.86328125 36.75 113.3125 C36.78609375 112.13300781 36.8221875 110.95351563 36.859375 109.73828125 C36.90578125 108.83464844 36.9521875 107.93101562 37 107 C26.95503582 101.39350837 14.50930892 104.06355726 3.5625 105.4375 C1.86577148 105.63956055 1.86577148 105.63956055 0.13476562 105.84570312 C-4.93360943 106.45724926 -9.96778256 107.13559002 -15 108 C-14.67 108.99 -14.34 109.98 -14 111 C-13.76171875 113.375 -13.76171875 113.375 -13.6875 116 C-13.65011719 116.86625 -13.61273438 117.7325 -13.57421875 118.625 C-14 121 -14 121 -15.6796875 122.78515625 C-19.92648586 125.00864832 -24.34161795 124.60731499 -29 124 C-32.125 122.4375 -32.125 122.4375 -34 120 C-35 116.4375 -35 116.4375 -35 113 C-34.2884375 112.30390625 -34.2884375 112.30390625 -33.5625 111.59375 C-31.50853083 109.49870145 -31.4149293 107.93674981 -31 105.0625 C-30.4267003 101.10314898 -29.37827503 99.16448165 -27 96 C-27.22573891 92.80764728 -27.22573891 92.80764728 -28 90 C-29.98 89.34 -31.96 88.68 -34 88 C-34 87.34 -34 86.68 -34 86 C-34.61488281 85.76023437 -35.22976562 85.52046875 -35.86328125 85.2734375 C-38.51004968 83.69602158 -39.03817458 82.44905675 -40.1875 79.625 C-40.67283203 78.46871094 -40.67283203 78.46871094 -41.16796875 77.2890625 C-43.39896229 71.15121174 -43.18376653 65.29007252 -43.1875 58.8125 C-43.19974609 57.71357422 -43.21199219 56.61464844 -43.22460938 55.48242188 C-43.24162162 45.97257425 -42.3285335 36.17141031 -37 28 C-32.09190601 23.1746267 -26.74745107 19.14141325 -19.6875 18.875 C-18.800625 18.91625 -17.91375 18.9575 -17 19 C-17.33 19.99 -17.66 20.98 -18 22 C-19.78515625 22.484375 -19.78515625 22.484375 -22.0625 22.75 C-27.77221682 23.87739631 -31.3523798 26.50236875 -35 31 C-41.46453978 42.82674475 -42.72607614 61.09529947 -39.05859375 74.03515625 C-36.07587854 81.58077122 -31.9282423 84.95852532 -25 89 C-24.505 89.495 -24.505 89.495 -24 90 C-20.9964046 90.28627309 -17.99259893 90.44865755 -14.98046875 90.62109375 C-12.16293188 90.97928651 -10.41252004 91.55716114 -8 93 C-8 93.66 -8 94.32 -8 95 C-9.42892578 94.87818359 -9.42892578 94.87818359 -10.88671875 94.75390625 C-17.69193461 94.16230121 -17.69193461 94.16230121 -23.97265625 96.20703125 C-27.04042587 100.21295671 -27.81894616 104.84635761 -28.4453125 109.765625 C-29.08506411 112.34265259 -29.98664158 113.32401515 -32 115 C-30.91744593 117.55690423 -30.91744593 117.55690423 -29 120 C-24.43040668 121.52319777 -21.39234325 120.77785322 -17 119 C-16.76571687 114.2102679 -16.76571687 114.2102679 -19 110 C-18.8125 107.9375 -18.8125 107.9375 -18 106 C-15.05588588 104.03725725 -13.86781734 103.64523348 -10.5 103.18359375 C-9.17754272 102.9976062 -9.17754272 102.9976062 -7.82836914 102.80786133 C-6.42832642 102.62453247 -6.42832642 102.62453247 -5 102.4375 C-4.04536865 102.30819092 -3.0907373 102.17888184 -2.10717773 102.0456543 C29.89582939 97.77731228 29.89582939 97.77731228 38 103 C40 105.0625 40 105.0625 41 108 C40.93257181 111.3817831 40.53779663 114.66306913 40 118 C44.32056706 120.22574667 47.31898822 120.27663958 52 119 C54.80432309 116.41139407 55.91031421 115.00896512 56.25 111.1875 C56.1675 110.465625 56.085 109.74375 56 109 C53.69 108.34 51.38 107.68 49 107 C49.37125 105.6696875 49.37125 105.6696875 49.75 104.3125 C50.31318202 100.95572333 50.31318202 100.95572333 48.4375 98.25 C45.71416239 95.7361499 43.56581457 94.89145364 40 94 C40.495 92.515 40.495 92.515 41 91 C41.70332962 91.07064667 42.40665924 91.14129333 43.13130188 91.21408081 C51.1181477 91.95540014 59.02508136 92.14605633 67.04296875 92.1328125 C68.33318436 92.13376923 69.62339996 92.13472595 70.95271301 92.13571167 C73.65444159 92.13717091 76.35613669 92.13508813 79.05786133 92.13037109 C82.52582735 92.12461138 85.99371703 92.12800282 89.46168041 92.13394356 C92.78044949 92.1384065 96.09919751 92.13529369 99.41796875 92.1328125 C101.28958931 92.13584885 101.28958931 92.13584885 103.19902039 92.13894653 C104.91264519 92.13421829 104.91264519 92.13421829 106.66088867 92.12939453 C107.67060226 92.12859894 108.68031586 92.12780334 109.72062683 92.12698364 C111.96629411 92.25593262 111.96629411 92.25593262 113 91 C114.68608966 90.92794489 116.37500659 90.91613932 118.0625 90.9375 C119.44115234 90.95103516 119.44115234 90.95103516 120.84765625 90.96484375 C121.91306641 90.98224609 121.91306641 90.98224609 123 91 C123.33 92.32 123.66 93.64 124 95 C122.80375 94.938125 121.6075 94.87625 120.375 94.8125 C116.23802523 94.82719618 113.44575692 95.5627573 110 98 C109.33652369 100.48400985 109.33652369 100.48400985 109 103 C105.79310345 106 105.79310345 106 103 106 C103 109.96 103 113.92 103 118 C105.82001327 119.41000664 107.87007255 119.24548451 111 119 C113.85688329 117.9529689 113.85688329 117.9529689 116 116 C116.88658466 113.40877257 116.88658466 113.40877257 117 111 C115.35 110.67 113.7 110.34 112 110 C112 107.8125 112 107.8125 113 105 C115.46012984 102.94189138 118.14299402 101.4424623 121 100 C122.07894531 99.45214844 123.15789062 98.90429688 124.26953125 98.33984375 C128.42431576 96.84760177 131.7536835 96.78320615 136.0625 97.1875 C136.79839355 97.24647461 137.53428711 97.30544922 138.29248047 97.36621094 C140.53084957 97.55623839 142.76480343 97.77603141 145 98 C146.31097656 98.11472656 147.62195313 98.22945313 148.97265625 98.34765625 C156.07233063 99.12975942 160.65600201 100.1649542 166 105 C165.01 106.98 165.01 106.98 164 109 C163.34 109 162.68 109 162 109 C162.33 111.97 162.66 114.94 163 118 C169.11355631 118.58041511 169.11355631 118.58041511 174.5 116.3125 C176.1175594 113.81876259 176.67357189 111.93785297 177 109 C174.69 108.67 172.38 108.34 170 108 C170 104.37 170 100.74 170 97 C166.04 96.01 162.08 95.02 158 94 C157.67 92.68 157.34 91.36 157 90 C158.134375 90.04125 159.26875 90.0825 160.4375 90.125 C169.05292004 90.07965568 177.72925567 87.70080095 185 83 C186.40542699 80.07088857 186.40542699 80.07088857 186 77 C186.04125 76.071875 186.0825 75.14375 186.125 74.1875 C186.24477314 72.02290152 186.24477314 72.02290152 185 71 C184.70613847 67.27775401 184.85190829 66.22213757 187 63 C187.06220318 60.61083618 187.06220318 60.61083618 186.6875 58.0625 C186.58824219 57.20785156 186.48898437 56.35320312 186.38671875 55.47265625 C186.05940177 53.02665343 186.05940177 53.02665343 185.359375 50.82421875 C185.18148437 49.92123047 185.18148437 49.92123047 185 49 C185.7734375 47.88625 185.7734375 47.88625 186.5625 46.75 C188.44264086 43.15320879 187.63196456 41.65152259 186.48828125 37.92578125 C185.5723292 34.31326637 186.85878052 31.42365843 188 28 C187.24074219 27.81566406 186.48148438 27.63132813 185.69921875 27.44140625 C177.67010403 25.09827939 177.67010403 25.09827939 175.63671875 21.765625 C174.93842425 19.51675862 174.44053007 17.31043964 174 15 C172.93354885 13.70366379 172.93354885 13.70366379 170.4375 13.9375 C169.633125 13.958125 168.82875 13.97875 168 14 C167.9288406 17.55796992 167.87331992 20.5656683 168.875 24 C169.02479383 27.59505184 168.42600362 28.07421732 166.125 30.6875 C165.57070313 31.24824219 165.01640625 31.80898437 164.4453125 32.38671875 C161.75630762 35.3882296 161.88773775 38.35580697 161.9375 42.1875 C161.94652344 43.08855469 161.95554687 43.98960937 161.96484375 44.91796875 C161.97644531 45.60503906 161.98804688 46.29210937 162 47 C161.34 47 160.68 47 160 47 C160.103125 48.010625 160.20625 49.02125 160.3125 50.0625 C160.296673 58.94144606 156.4290079 69.78691068 150.62890625 76.48828125 C140.60943754 85.78692488 122.992432 84.33783222 110.07836914 84.26074219 C107.90679028 84.24984591 105.73601005 84.26081358 103.56445312 84.2734375 C102.15624821 84.27211827 100.74804378 84.26956081 99.33984375 84.265625 C98.09581787 84.26336914 96.85179199 84.26111328 95.57006836 84.25878906 C89.19161657 83.79642437 83.83658355 82.23201061 79 78 C76.37922726 74.14763919 74.17137209 70.11899624 72 66 C71.52175781 65.10023438 71.04351562 64.20046875 70.55078125 63.2734375 C68.35387673 59.01157468 66.48506728 54.75824928 64.8671875 50.25 C59.05549446 33.69161573 59.05549446 33.69161573 48 21 C45.85266073 20.29485154 45.85266073 20.29485154 44 20 C44.01160156 19.11957031 44.02320313 18.23914063 44.03515625 17.33203125 C44.04417969 16.17058594 44.05320312 15.00914062 44.0625 13.8125 C44.07410156 12.66394531 44.08570313 11.51539063 44.09765625 10.33203125 C44.01192832 7.40699414 43.67849023 4.83683709 43 2 C40.0957107 2.10792821 40.0957107 2.10792821 37 3 C33.78525915 6.78880172 33.10407201 11.2682628 32 16 C31 17 31 17 28.04077148 17.11352539 C26.74727783 17.10828857 25.45378418 17.10305176 24.12109375 17.09765625 C23.09110008 17.09553383 23.09110008 17.09553383 22.04029846 17.09336853 C19.83932199 17.08775479 17.63844591 17.07520007 15.4375 17.0625 C13.94856917 17.05748676 12.45963676 17.05292355 10.97070312 17.04882812 C7.31376925 17.03778093 3.65689442 17.02050713 0 17 C-0.19916016 15.73542969 -0.19916016 15.73542969 -0.40234375 14.4453125 C-0.57894531 13.34960938 -0.75554687 12.25390625 -0.9375 11.125 C-1.11152344 10.03445312 -1.28554687 8.94390625 -1.46484375 7.8203125 C-1.85551159 5.06178454 -1.85551159 5.06178454 -3 3 C-4.27875 3.103125 -5.5575 3.20625 -6.875 3.3125 C-7.59429687 3.37050781 -8.31359375 3.42851562 -9.0546875 3.48828125 C-11.39519216 3.87393036 -11.39519216 3.87393036 -13 7 C-13.24246783 10.20379124 -13.24246783 10.20379124 -13.125 13.6875 C-13.09792969 15.45673828 -13.09792969 15.45673828 -13.0703125 17.26171875 C-13.04710937 18.16535156 -13.02390625 19.06898438 -13 20 C-13.99 20 -14.98 20 -16 20 C-16.08117951 17.58265458 -16.14056926 15.16805051 -16.1875 12.75 C-16.21263672 12.06808594 -16.23777344 11.38617188 -16.26367188 10.68359375 C-16.30968538 7.52399974 -16.20961915 5.36892971 -14.6328125 2.59375 C-10.7614206 -1.18502486 -4.93472278 -2.46736139 0 0 Z M194.6875 27.1875 C191.84936536 27.76763129 191.84936536 27.76763129 190.2734375 30.16796875 C188.68568921 33.69900406 189.07260078 35.39424551 189.9375 39.125 C190.65234375 42.2578125 190.65234375 42.2578125 191 45 C190.34 45.99 189.68 46.98 189 48 C189.0434633 50.63097824 189.18266453 53.13972264 189.4375 55.75 C189.93923607 61.07535713 189.82140592 65.67349852 189 71 C189.07793699 73.59810062 189.07793699 73.59810062 189.4375 75.9375 C189.53933594 76.70964844 189.64117187 77.48179687 189.74609375 78.27734375 C189.82988281 78.84582031 189.91367187 79.41429687 190 80 C190.90878906 80.185625 190.90878906 80.185625 191.8359375 80.375 C202.1660161 82.91778858 209.41753532 89.0680565 215 98 C216.485 97.505 216.485 97.505 218 97 C218.93786082 91.94990405 218.93786082 91.94990405 218 87 C219.98 86.505 219.98 86.505 222 86 C222.72256829 81.51866426 222.72256829 81.51866426 223 77 C224.98 76.505 224.98 76.505 227 76 C226.505 73.03 226.505 73.03 226 70 C226.66 70 227.32 70 228 70 C230.19298246 74.38596491 230.19298246 74.38596491 229.3125 77.1875 C228 79 228 79 225 81 C224.63239269 83.32817964 224.29758419 85.6618385 224 88 C223.01 88.495 223.01 88.495 222 89 C221.60539977 91.32375692 221.27769908 93.6593935 221 96 C220.625 98.375 220.625 98.375 220 100 C218.515 100.495 218.515 100.495 217 101 C220.92924017 108.48426699 228.13586877 112.42391252 235 117 C237.08874767 117.43598689 239.19785249 117.77751353 241.3125 118.0625 C242.42238281 118.21847656 243.53226562 118.37445313 244.67578125 118.53515625 C256.98788151 119.94834232 269.29059128 120.24234165 281.67089844 120.29516602 C283.57136404 120.30681022 285.47179395 120.32745195 287.37207031 120.35668945 C290.15451681 120.39928763 292.93601848 120.41550666 295.71875 120.42578125 C296.98446838 120.45204338 296.98446838 120.45204338 298.27575684 120.47883606 C303.64204658 120.45909406 306.78106299 119.63837603 311 116 C312.05845809 113.46650198 312.05845809 113.46650198 312 111 C311.67 110.34 311.34 109.68 311 109 C310.34 109 309.68 109 309 109 C311.0072908 105.9890638 311.83884224 105.36983503 315 104 C315.020625 102.741875 315.04125 101.48375 315.0625 100.1875 C315.07410156 99.47980469 315.08570313 98.77210938 315.09765625 98.04296875 C315.08263217 95.79694539 315.08263217 95.79694539 314 93 C315.485 93.495 315.485 93.495 317 94 C318.0321957 97.09658709 318.03606873 98.79603027 317.75 102 C317.68296875 102.86625 317.6159375 103.7325 317.546875 104.625 C316.91440056 107.37174613 316.00092641 108.10907216 314 110 C313.59270772 112.32156597 313.25561323 114.6568787 313 117 C312.67 117.66 312.34 118.32 312 119 C320.93451795 119.69770639 328.60594741 118.11245392 336 112.875 C341.57293503 104.8639059 342.2162531 94.52543425 342 85 C340.89582645 80.13364238 340.0022607 77.12676617 336 74 C335.34 74 334.68 74 334 74 C333.67 73.34 333.34 72.68 333 72 C331.7472952 73.03125019 331.7472952 73.03125019 331.8671875 75.2578125 C331.86987109 81.65335891 331.86987109 81.65335891 332.5625 88 C333 91 333 91 332 94 C329.03 94.495 329.03 94.495 326 95 C326 94.01 326 93.02 326 92 C327.32 91.67 328.64 91.34 330 91 C330.33 89.68 330.66 88.36 331 87 C329.68 86.34 328.36 85.68 327 85 C327.350625 84.443125 327.70125 83.88625 328.0625 83.3125 C329.23765314 81.03208841 329.23765314 81.03208841 328.5 78.625 C327.85617889 75.24493917 328.7534929 73.15292971 330 70 C318.73992099 60.64379908 301.69965681 60.60644963 287.85595703 59.28320312 C284.22692111 58.92333976 280.61565908 58.47447288 277 58 C277.495 58.99 277.495 58.99 278 60 C278.99 60 279.98 60 281 60 C280.09666856 73.85748861 280.09666856 73.85748861 279.375 78.1875 C278.78080003 81.07379225 278.78080003 81.07379225 280 84 C279.5625 86.6875 279.5625 86.6875 279 89 C274.545 89.495 274.545 89.495 270 90 C270 89.01 270 88.02 270 87 C270.969375 87.020625 271.93875 87.04125 272.9375 87.0625 C275.87465895 87.35618499 275.87465895 87.35618499 277 86 C277 84.01949658 276.99661244 82.03884236 276.96484375 80.05859375 C277 78 277 78 277.5625 75.3125 C278.16549567 72.96304701 278.16549567 72.96304701 277.4375 70.5 C276.89550909 67.40290907 277.64756483 65.78442535 279 63 C278.195625 62.54625 277.39125 62.0925 276.5625 61.625 C274 60 274 60 273 58 C271.02810003 57.05019424 271.02810003 57.05019424 268.6875 56.3125 C267.90761719 56.04050781 267.12773437 55.76851562 266.32421875 55.48828125 C263.81725489 54.96160817 262.39867657 55.1821446 260 56 C260.04125 56.763125 260.0825 57.52625 260.125 58.3125 C260 61 260 61 258 64 C258.20625 64.598125 258.4125 65.19625 258.625 65.8125 C259.21821685 69.27293164 256.89427191 71.15859214 255 74 C254.20317197 77.73225344 254.20317197 77.73225344 254 81 C252.02 81.66 250.04 82.32 248 83 C247.67 82.34 247.34 81.68 247 81 C247.804375 80.566875 248.60875 80.13375 249.4375 79.6875 C252.27846354 78.19525998 252.27846354 78.19525998 253 75 C252.61067144 72.85744207 252.61067144 72.85744207 252 71 C253.32 70.34 254.64 69.68 256 69 C255.773125 67.9275 255.54625 66.855 255.3125 65.75 C255 62 255 62 256.5625 59.9375 C258.32686834 58.00603564 258.32686834 58.00603564 257.75 55.0625 C255.5762626 51.25845954 253.59437221 50.44665055 249.7578125 48.546875 C246.42600406 46.67804194 243.53161864 44.38286786 240.5625 42 C233.81054645 36.658389 226.85055412 31.69872796 218 31 C217.90912109 31.92232422 217.90912109 31.92232422 217.81640625 32.86328125 C217.73261719 33.67152344 217.64882813 34.47976562 217.5625 35.3125 C217.48128906 36.11300781 217.40007812 36.91351563 217.31640625 37.73828125 C217 40 217 40 216 43 C215.80386563 44.45466326 215.63963394 45.91383052 215.5 47.375 C214.42181559 57.60945817 214.42181559 57.60945817 212 61 C209.375 61.75 209.375 61.75 207 62 C208 60 208 60 211 59 C210.938125 58.13375 210.87625 57.2675 210.8125 56.375 C211 53 211 53 212.5625 50.0625 C214.36287448 46.22691959 213.59866441 44.11581782 213 40 C213.97691857 38.31970006 214.97388051 36.65071396 216 35 C215.30859649 32.69712207 215.30859649 32.69712207 214 31 C213.34 31 212.68 31 212 31 C212 30.34 212 29.68 212 29 C205.98701221 26.59480488 201.00457285 26.82992984 194.6875 27.1875 Z " fill="#0D0D0D" transform="translate(205,162)"/>
<path d="M0 0 C-0.33 0.99 -0.66 1.98 -1 3 C-2.78515625 3.484375 -2.78515625 3.484375 -5.0625 3.75 C-10.77221682 4.87739631 -14.3523798 7.50236875 -18 12 C-24.46453978 23.82674475 -25.72607614 42.09529947 -22.05859375 55.03515625 C-19.07587854 62.58077122 -14.9282423 65.95852532 -8 70 C-7.505 70.495 -7.505 70.495 -7 71 C-3.9964046 71.28627309 -0.99259893 71.44865755 2.01953125 71.62109375 C4.83706812 71.97928651 6.58747996 72.55716114 9 74 C9 74.66 9 75.32 9 76 C7.57107422 75.87818359 7.57107422 75.87818359 6.11328125 75.75390625 C-0.69193461 75.16230121 -0.69193461 75.16230121 -6.97265625 77.20703125 C-10.04042587 81.21295671 -10.81894616 85.84635761 -11.4453125 90.765625 C-12.08506411 93.34265259 -12.98664158 94.32401515 -15 96 C-13.91744593 98.55690423 -13.91744593 98.55690423 -12 101 C-7.43040668 102.52319777 -4.39234325 101.77785322 0 100 C0.23428313 95.2102679 0.23428313 95.2102679 -2 91 C-1.8125 88.9375 -1.8125 88.9375 -1 87 C1.90092502 85.06604999 2.89674737 84.69868059 6.1875 84.375 C7.445625 84.25125 8.70375 84.1275 10 84 C9.375 85.9375 9.375 85.9375 8 88 C4.875 88.75 4.875 88.75 2 89 C2.33 89.99 2.66 90.98 3 92 C3.23828125 94.375 3.23828125 94.375 3.3125 97 C3.34988281 97.86625 3.38726562 98.7325 3.42578125 99.625 C3 102 3 102 1.3203125 103.78515625 C-2.92648586 106.00864832 -7.34161795 105.60731499 -12 105 C-15.125 103.4375 -15.125 103.4375 -17 101 C-18 97.4375 -18 97.4375 -18 94 C-17.2884375 93.30390625 -17.2884375 93.30390625 -16.5625 92.59375 C-14.50853083 90.49870145 -14.4149293 88.93674981 -14 86.0625 C-13.4267003 82.10314898 -12.37827503 80.16448165 -10 77 C-10.22573891 73.80764728 -10.22573891 73.80764728 -11 71 C-12.98 70.34 -14.96 69.68 -17 69 C-17 68.34 -17 67.68 -17 67 C-17.61488281 66.76023437 -18.22976562 66.52046875 -18.86328125 66.2734375 C-21.51004968 64.69602158 -22.03817458 63.44905675 -23.1875 60.625 C-23.67283203 59.46871094 -23.67283203 59.46871094 -24.16796875 58.2890625 C-26.39896229 52.15121174 -26.18376653 46.29007252 -26.1875 39.8125 C-26.19974609 38.71357422 -26.21199219 37.61464844 -26.22460938 36.48242188 C-26.24162162 26.97257425 -25.3285335 17.17141031 -20 9 C-14.11824203 3.21737279 -8.40268623 -0.39082262 0 0 Z " fill="#060606" transform="translate(188,181)"/>
<path d="M0 0 C1.6875 1.625 1.6875 1.625 3 4 C2.8125 7.1875 2.8125 7.1875 2 10 C-1.36021957 11.68010978 -5.12097812 11.18459558 -8.8125 11.1875 C-9.62009766 11.19974609 -10.42769531 11.21199219 -11.25976562 11.22460938 C-15.61237387 11.23530374 -19.05919997 11.08266249 -23 9 C-24 8 -24 8 -24.0625 4.9375 C-24.041875 3.968125 -24.02125 2.99875 -24 2 C-21.66817606 0.83408803 -20.09891157 0.80053449 -17.5 0.68359375 C-16.1696875 0.62075195 -16.1696875 0.62075195 -14.8125 0.55664062 C-13.884375 0.51732422 -12.95625 0.47800781 -12 0.4375 C-11.071875 0.39431641 -10.14375 0.35113281 -9.1875 0.30664062 C-2.49007937 0 -2.49007937 0 0 0 Z " fill="#0E0E0E" transform="translate(217,232)"/>
<path d="M0 0 C2 2.0625 2 2.0625 3 5 C2.93257181 8.3817831 2.53779663 11.66306913 2 15 C6.33356768 17.23244396 9.30328735 17.25804803 14 16 C16.91886589 13.58363062 16.91886589 13.58363062 19 11 C19.495 12.485 19.495 12.485 20 14 C16.83636364 18.58181818 16.83636364 18.58181818 14 20 C12.21247508 20.14754174 10.4183716 20.2211522 8.625 20.25 C7.66851562 20.27578125 6.71203125 20.3015625 5.7265625 20.328125 C2.47318508 19.93660107 1.16372346 19.47355241 -1 17 C-1.390625 13.86328125 -1.390625 13.86328125 -1.25 10.3125 C-1.21390625 9.13300781 -1.1778125 7.95351563 -1.140625 6.73828125 C-1.09421875 5.83464844 -1.0478125 4.93101562 -1 4 C-10.75169705 -1.44280765 -21.8765499 0.99672727 -32.453125 2.5546875 C-36.99512655 3.1249388 -41.43237676 3.19345228 -46 3 C-45.67 2.01 -45.34 1.02 -45 0 C-9.1176342 -5.87580871 -9.1176342 -5.87580871 0 0 Z " fill="#121212" transform="translate(243,265)"/>
<path d="M0 0 C1.73656702 4.82379729 2.08542638 8.91102874 2 14 C6.29161047 14.05783842 10.58312145 14.0935412 14.875 14.125 C16.09832031 14.14175781 17.32164062 14.15851563 18.58203125 14.17578125 C20.33193359 14.18544922 20.33193359 14.18544922 22.1171875 14.1953125 C23.19597168 14.20578613 24.27475586 14.21625977 25.38623047 14.22705078 C28.16044022 14.26839977 28.16044022 14.26839977 30 12 C30.4823072 10.55586631 30.91457802 9.09462596 31.3125 7.625 C32.63011173 3.4072841 34.16151403 1.38608587 38 -1 C38.66 -0.67 39.32 -0.34 40 0 C39.59007812 0.4846875 39.18015625 0.969375 38.7578125 1.46875 C34.89207416 6.27780248 33.16623355 9.95678977 32 16 C31 17 31 17 28.04077148 17.11352539 C26.74727783 17.10828857 25.45378418 17.10305176 24.12109375 17.09765625 C23.09110008 17.09553383 23.09110008 17.09553383 22.04029846 17.09336853 C19.83932199 17.08775479 17.63844591 17.07520007 15.4375 17.0625 C13.94856917 17.05748676 12.45963676 17.05292355 10.97070312 17.04882812 C7.31376925 17.03778093 3.65689442 17.02050713 0 17 C-0.13277344 16.15695313 -0.26554688 15.31390625 -0.40234375 14.4453125 C-0.57894531 13.34960938 -0.75554687 12.25390625 -0.9375 11.125 C-1.11152344 10.03445312 -1.28554687 8.94390625 -1.46484375 7.8203125 C-1.85551159 5.06178454 -1.85551159 5.06178454 -3 3 C-4.27875 3.103125 -5.5575 3.20625 -6.875 3.3125 C-7.95394531 3.39951172 -7.95394531 3.39951172 -9.0546875 3.48828125 C-11.39519216 3.87393036 -11.39519216 3.87393036 -13 7 C-13.24246783 10.20379124 -13.24246783 10.20379124 -13.125 13.6875 C-13.10695312 14.86699219 -13.08890625 16.04648438 -13.0703125 17.26171875 C-13.04710937 18.16535156 -13.02390625 19.06898438 -13 20 C-13.99 20 -14.98 20 -16 20 C-16.08117951 17.58265458 -16.14056926 15.16805051 -16.1875 12.75 C-16.21263672 12.06808594 -16.23777344 11.38617188 -16.26367188 10.68359375 C-16.30968538 7.52399974 -16.20961915 5.36892971 -14.6328125 2.59375 C-10.7614206 -1.18502486 -4.93472278 -2.46736139 0 0 Z " fill="#080808" transform="translate(205,162)"/>
<path d="M0 0 C1.12414307 0.07492676 1.12414307 0.07492676 2.27099609 0.15136719 C23.47181884 1.66795514 23.47181884 1.66795514 30.125 7.6875 C29.465 9.0075 28.805 10.3275 28.125 11.6875 C27.465 11.6875 26.805 11.6875 26.125 11.6875 C26.62 16.1425 26.62 16.1425 27.125 20.6875 C29.435 21.0175 31.745 21.3475 34.125 21.6875 C34.125 22.6775 34.125 23.6675 34.125 24.6875 C32.64593108 24.71439216 31.16672517 24.73384621 29.6875 24.75 C28.45193359 24.76740234 28.45193359 24.76740234 27.19140625 24.78515625 C25.125 24.6875 25.125 24.6875 24.125 23.6875 C24.05228259 21.33436445 24.04129132 18.97916332 24.0625 16.625 C24.07152344 15.33464844 24.08054687 14.04429687 24.08984375 12.71484375 C24.10144531 11.71582031 24.11304688 10.71679688 24.125 9.6875 C24.785 9.6875 25.445 9.6875 26.125 9.6875 C26.125 9.0275 26.125 8.3675 26.125 7.6875 C7.23567469 3.64394316 7.23567469 3.64394316 -11.875 4.6875 C-14.7624873 6.61143551 -14.7624873 6.61143551 -16.875 8.6875 C-16.875 5.6875 -16.875 5.6875 -14.625 3.0625 C-9.98186686 -0.94747862 -5.91181821 -0.3982532 0 0 Z " fill="#131313" transform="translate(340.875,259.3125)"/>
<path d="M0 0 C0 0.66 0 1.32 0 2 C-2.73996241 3.64397745 -4.28477284 4.01498804 -7.5625 4.1875 C-11.27304573 4.64143198 -11.27304573 4.64143198 -12.9375 8.0625 C-14.50510807 12.7653242 -14.65589588 17.35282311 -13.45703125 22.19140625 C-12.01221874 24.39126779 -12.01221874 24.39126779 -8.5234375 24.609375 C-7.141427 24.67581781 -5.7583219 24.7219252 -4.375 24.75 C-3.31539062 24.79447266 -3.31539062 24.79447266 -2.234375 24.83984375 C-0.49019953 24.91055357 1.25490827 24.95754035 3 25 C3 25.66 3 26.32 3 27 C0.72923158 27.02699725 -1.54162821 27.04639453 -3.8125 27.0625 C-5.70935547 27.07990234 -5.70935547 27.07990234 -7.64453125 27.09765625 C-11.18616286 26.99458199 -13.14719735 26.8708196 -15.6640625 24.30078125 C-18.44407615 19.51297996 -17.75229503 12.97335656 -16.42578125 7.73046875 C-15.09288349 4.38059344 -14.04174362 3.02782908 -11 1 C-7.24939968 0.31807267 -3.81686772 0 0 0 Z " fill="#0A0A0A" transform="translate(208,201)"/>
<path d="M0 0 C2.93756119 -0.0269501 5.87487555 -0.04681474 8.8125 -0.0625 C9.64587891 -0.07087891 10.47925781 -0.07925781 11.33789062 -0.08789062 C12.14033203 -0.09111328 12.94277344 -0.09433594 13.76953125 -0.09765625 C14.87711792 -0.10551147 14.87711792 -0.10551147 16.00708008 -0.11352539 C18 0 18 0 21 1 C21 1.99 21 2.98 21 4 C14.86373626 7.06813187 6.25526725 4.88838257 0 3 C0 2.01 0 1.02 0 0 Z " fill="#E6E6E6" transform="translate(196,236)"/>
<path d="M0 0 C0.99 0 1.98 0 3 0 C2.25 7.75 2.25 7.75 0 10 C-4.55555556 9.44444444 -4.55555556 9.44444444 -6 8 C-6.04063832 6.33382885 -6.042721 4.66611905 -6 3 C-5.01 3 -4.02 3 -3 3 C-3 3.99 -3 4.98 -3 6 C-2.34 6 -1.68 6 -1 6 C-0.67 4.02 -0.34 2.04 0 0 Z " fill="#070707" transform="translate(382,224)"/>
<path d="M0 0 C0.66 0 1.32 0 2 0 C2 2.31 2 4.62 2 7 C2.66 7 3.32 7 4 7 C4.33 5.02 4.66 3.04 5 1 C5.66 1 6.32 1 7 1 C6.125 7.75 6.125 7.75 5 10 C3.35 9.67 1.7 9.34 0 9 C-0.87890625 2.84765625 -0.87890625 2.84765625 -1 1 C-0.67 0.67 -0.34 0.34 0 0 Z " fill="#0A0A0A" transform="translate(242,201)"/>
<path d="M0 0 C0.66 0 1.32 0 2 0 C2 1.98 2 3.96 2 6 C2.66 6 3.32 6 4 6 C4.33 4.35 4.66 2.7 5 1 C5.66 1 6.32 1 7 1 C6.25 6.75 6.25 6.75 4 9 C2.68 9 1.36 9 0 9 C-0.87890625 2.84765625 -0.87890625 2.84765625 -1 1 C-0.67 0.67 -0.34 0.34 0 0 Z " fill="#060606" transform="translate(171,230)"/>
<path d="M0 0 C-0.66 1.32 -1.32 2.64 -2 4 C-5.3 4 -8.6 4 -12 4 C-11.67 3.01 -11.34 2.02 -11 1 C-7.50970582 -0.47666292 -3.72563614 -0.07164685 0 0 Z " fill="#2A2A2A" transform="translate(209,264)"/>
<path d="M0 0 C0.99 0 1.98 0 3 0 C3 1.32 3 2.64 3 4 C3.66 4.33 4.32 4.66 5 5 C5 3.68 5 2.36 5 1 C5.66 1 6.32 1 7 1 C6.67 3.31 6.34 5.62 6 8 C1.125 7.125 1.125 7.125 0 6 C-0.04080783 4.00041636 -0.04254356 1.99954746 0 0 Z " fill="#080808" transform="translate(259,232)"/>
<path d="M0 0 C2.50357861 0.8345262 4.66785852 1.79371992 7 3 C5.948125 3.0825 4.89625 3.165 3.8125 3.25 C-0.27047209 4.05320762 -2.0122727 5.19334709 -5 8 C-5 5 -5 5 -2.5 2.3125 C-1.675 1.549375 -0.85 0.78625 0 0 Z " fill="#191919" transform="translate(329,260)"/>
<path d="M0 0 C1.67542976 0.28604898 3.34385343 0.61781233 5 1 C5 1.99 5 2.98 5 4 C3.35 4.33 1.7 4.66 0 5 C-0.5625 3.0625 -0.5625 3.0625 -1 1 C-0.67 0.67 -0.34 0.34 0 0 Z " fill="#040404" transform="translate(182,199)"/>
<path d="M0 0 C1.36125 0.12375 1.36125 0.12375 2.75 0.25 C2.42 1.24 2.09 2.23 1.75 3.25 C-2.705 3.745 -2.705 3.745 -7.25 4.25 C-4.83923194 1.28290085 -3.90322061 0.30024774 0 0 Z " fill="#141414" transform="translate(185.25,180.75)"/>
<path d="M0 0 C0 1.65 0 3.3 0 5 C-1.32 4.67 -2.64 4.34 -4 4 C-4 3.01 -4 2.02 -4 1 C-2 0 -2 0 0 0 Z " fill="#060606" transform="translate(228,199)"/>
</svg>
