<?xml version="1.0" encoding="UTF-8"?>
<svg version="1.1" xmlns="http://www.w3.org/2000/svg" width="800" height="300">
<path d="M0 0 C264 0 528 0 800 0 C800 99 800 198 800 300 C536 300 272 300 0 300 C0 201 0 102 0 0 Z " fill="#FEFEFE" transform="translate(0,0)"/>
<path d="M0 0 C0.309375 0.969375 0.61875 1.93875 0.9375 2.9375 C1.69523342 5.84065792 1.69523342 5.84065792 3 7 C3 8.98 3 10.96 3 13 C10.92 13 18.84 13 27 13 C27.99 9.7 28.98 6.4 30 3 C33 0 33 0 34.9375 -0.328125 C35.618125 -0.30234375 36.29875 -0.2765625 37 -0.25 C37.680625 -0.23453125 38.36125 -0.2190625 39.0625 -0.203125 C41 0 41 0 44 1 C45.89192715 4.56459121 46.1362909 7.45745616 46.125 11.4375 C46.40974504 15.56659623 46.40974504 15.56659623 48.69921875 18.87109375 C50.75430445 20.33358542 52.85956922 21.66696157 55 23 C62.15465511 30.36508614 67.05691225 41.53026696 69.1875 51.4375 C70.47306606 56.86850101 72.51393638 61.59879629 75 66.5625 C75.34442139 67.25335693 75.68884277 67.94421387 76.04370117 68.65600586 C78.5401744 73.49041759 80.06518529 76.27918668 85.1875 78.1875 C86.115625 78.455625 87.04375 78.72375 88 79 C88 79.66 88 80.32 88 81 C92.87482574 80.88127872 97.7494672 80.7570007 102.62402344 80.62768555 C104.28056031 80.58450951 105.93713672 80.54282303 107.59375 80.50268555 C109.9818918 80.4445607 112.3698377 80.38099052 114.7578125 80.31640625 C115.49242706 80.29969376 116.22704163 80.28298126 116.98391724 80.26576233 C121.08046448 80.14908423 124.96980377 79.71621276 129 79 C130.6191617 78.88602871 132.24085535 78.80298054 133.86328125 78.75390625 C134.75080078 78.72103516 135.63832031 78.68816406 136.55273438 78.65429688 C138.38074591 78.59349253 140.20887632 78.53615489 142.03710938 78.48242188 C151.91359991 78.40491586 151.91359991 78.40491586 160.69360352 74.64794922 C162.86126672 71.91355814 163.11430278 68.5401649 163.75 65.1875 C165.66402159 56.1165751 168.75957581 45.29410735 176 39 C175.71125 38.46375 175.4225 37.9275 175.125 37.375 C172.47857478 31.78810232 171.76994087 28.15029565 173 22 C175.1875 21.25 175.1875 21.25 178 21 C181.31800613 22.97500365 182.75869621 24.44844848 184.3125 28 C186.39935562 31.70996554 188.28538334 32.48116027 192.09375 34.109375 C194 35 194 35 195.9375 36.9375 C198.63691744 38.32810899 199.52735653 37.77999152 202.375 36.875 C205.06923867 35.8679302 207.28736721 34.82366103 209.75 33.3125 C219.46241264 29.39017951 229.71286558 32.37284165 239.03125 36.078125 C243.75828435 38.18648975 247.27962238 41.19726025 250.82421875 44.94921875 C258.57815788 52.2576892 273.49286513 55.38836355 283.875 55.1875 C285.23238281 55.08501953 285.23238281 55.08501953 286.6171875 54.98046875 C289.77189369 54.99868299 292.44775717 55.40146555 295.5390625 55.9765625 C301.0629919 56.95680671 306.34699912 57.16328554 311.94726562 57.17529297 C328.59837334 57.23250541 349.7219968 58.4704616 364 68 C365.51171875 69.76171875 365.51171875 69.76171875 366.6875 71.6875 C367.28111328 72.62142578 367.28111328 72.62142578 367.88671875 73.57421875 C370.72843551 79.76617 371.32328167 85.79472712 371.25 92.5 C371.25773437 93.20769531 371.26546875 93.91539062 371.2734375 94.64453125 C371.25247626 100.37742916 371.0997078 106.9002922 366.875 111.125 C365.92625 111.74375 364.9775 112.3625 364 113 C362.11806436 114.51119029 360.2366326 116.02300535 358.35546875 117.53515625 C350.4437631 122.45537121 342.7272784 122.5329767 333.64453125 122.6796875 C332.22888892 122.7122553 330.81326492 122.74562845 329.3976593 122.77975464 C314.21716974 123.1206157 299.03239068 123.15116866 283.84881592 123.12695312 C280.91968278 123.12430614 277.99057904 123.12920608 275.06145 123.13394356 C272.18817103 123.1375743 269.31490892 123.13640099 266.44162941 123.13381577 C264.45715409 123.13284689 262.47267805 123.13582411 260.48820496 123.13894653 C253.26929399 123.12025266 246.17503903 122.80824252 239 122 C238.67 121.01 238.34 120.02 238 119 C235.66775751 117.92611878 235.66775751 117.92611878 233 117 C231.49230132 116.15306666 230.01200061 115.25557972 228.5625 114.3125 C227.84191406 113.85488281 227.12132812 113.39726562 226.37890625 112.92578125 C219.71867806 107.53416795 215.79069307 100.53148163 211.70117188 93.140625 C209.25761336 88.83255026 206.90968532 85.16528123 203 82 C199.5190036 82 197.92397409 82.20913976 194.8046875 83.35546875 C194.0103833 83.64607178 193.2160791 83.9366748 192.39770508 84.23608398 C191.5652124 84.55005127 190.73271973 84.86401855 189.875 85.1875 C188.60209106 85.66135132 188.60209106 85.66135132 187.3034668 86.14477539 C181.33972035 88.40109658 175.57568242 90.88965788 170 94 C170.495 94.886875 170.99 95.77375 171.5 96.6875 C172.94378674 99.87586238 173.30159922 101.58187546 173 105 C173.78375 104.938125 174.5675 104.87625 175.375 104.8125 C176.674375 104.9053125 176.674375 104.9053125 178 105 C180.38313638 108.57470457 180.64837918 109.78553535 180 114 C178.52849983 117.10511476 176.90322533 119.1393694 174 121 C169.39035818 121.85026331 164.18273334 122.49053461 160.15234375 119.73828125 C158.68602794 117.52638113 158.6610923 116.19861333 158.75 113.5625 C158.77320313 112.41974609 158.77320313 112.41974609 158.796875 111.25390625 C159 109 159 109 159.578125 106.77734375 C159.71734375 106.19082031 159.8565625 105.60429687 160 105 C156.52323621 101.52323621 145.69619863 102.88457976 141.0625 102.8125 C129.60796325 102.55095313 129.60796325 102.55095313 119.6640625 107.078125 C118.84035156 108.02945313 118.84035156 108.02945313 118 109 C118.33 109.33 118.66 109.66 119 110 C119.35010591 113.71112269 119.47959996 116.14980006 117.625 119.4375 C113.52692301 121.87683154 109.63122135 121.98759486 105 121 C102.28936067 119.24499626 101.64188715 117.95539687 100 115 C99.44526676 111.53291728 99.58845691 109.80142602 101.1875 106.6875 C103.40664722 104.62139742 105.02545866 104.32157204 108 104 C108.185625 103.13375 108.185625 103.13375 108.375 102.25 C109.00725613 99.97387794 109.91863468 98.09239794 111 96 C109.8097522 96.09849243 109.8097522 96.09849243 108.59545898 96.19897461 C96.09605891 97.13856505 83.59177357 97.33526837 71.0625 97.5625 C68.81835312 97.605797 66.57421241 97.6494144 64.33007812 97.69335938 C58.88678416 97.79926343 53.44342776 97.90122511 48 98 C48.76584697 99.30992722 49.54271206 100.6134172 50.32421875 101.9140625 C50.75565186 102.64061035 51.18708496 103.3671582 51.6315918 104.11572266 C52.95791647 106.25171676 52.95791647 106.25171676 55.8125 107.375 C58 109 58 109 58.41796875 111.25390625 C58.53298112 115.01645362 58.55958437 117.86534103 56.87109375 121.2890625 C54.15972646 123.76835034 52.17944932 123.49908257 48.5625 123.4375 C47.42941406 123.43621094 46.29632813 123.43492187 45.12890625 123.43359375 C41.77683512 122.96907453 40.32699448 122.42865929 38 120 C37.57797696 115.52655575 38.14245601 111.39491296 39 107 C35.28831487 104.44665814 32.80095658 103.61711085 28.30859375 103.6015625 C27.20781494 103.59543945 26.10703613 103.58931641 24.97290039 103.58300781 C23.80621826 103.59686523 22.63953613 103.61072266 21.4375 103.625 C20.2405249 103.63370117 19.0435498 103.64240234 17.81030273 103.65136719 C10.33312007 103.77300413 2.96878941 104.20501351 -4.4375 105.25 C-5.6596521 105.41363037 -5.6596521 105.41363037 -6.90649414 105.58056641 C-11.48025522 106.32888413 -14.12827542 107.29356081 -17 111 C-16.67 111.556875 -16.34 112.11375 -16 112.6875 C-14.8690399 115.30284522 -14.84337026 117.1806646 -15 120 C-18.40059484 122.05674531 -21.1186371 122.2978388 -25.0625 122.3125 C-26.10535156 122.32925781 -27.14820313 122.34601563 -28.22265625 122.36328125 C-31 122 -31 122 -32.859375 120.7109375 C-34.70180693 117.9472896 -34.1820162 115.21561961 -34 112 C-32.02 111.01 -32.02 111.01 -30 110 C-30.05800781 109.443125 -30.11601562 108.88625 -30.17578125 108.3125 C-30.55173978 101.95343005 -29.11696269 97.89045265 -25 93 C-24.01 92.505 -24.01 92.505 -23 92 C-24.03060547 91.29423828 -24.03060547 91.29423828 -25.08203125 90.57421875 C-25.98308594 89.95160156 -26.88414062 89.32898438 -27.8125 88.6875 C-28.70582031 88.07261719 -29.59914062 87.45773438 -30.51953125 86.82421875 C-35.27205534 83.32905537 -37.02524637 80.0651207 -39.125 74.5625 C-39.38925781 73.89412109 -39.65351563 73.22574219 -39.92578125 72.53710938 C-44.36707951 61.16332779 -45.43493151 46.55337206 -40.8125 35.0625 C-37.11108102 27.78373195 -32.56487698 22.42977969 -25 19 C-22.26865337 18.36718375 -19.81640241 18.1508787 -17 18 C-17.05800781 17.20335937 -17.11601562 16.40671875 -17.17578125 15.5859375 C-17.59042106 5.8478253 -17.59042106 5.8478253 -14.75 2.3125 C-9.70418433 -1.93057227 -6.26176205 -0.93926431 0 0 Z " fill="#656565" transform="translate(206,162)"/>
<path d="M0 0 C3 9 3 9 3 14 C12.57 14 22.14 14 32 14 C32.33 11.03 32.66 8.06 33 5 C34.125 2.4375 34.125 2.4375 36 1 C39.5 0.4375 39.5 0.4375 43 1 C45.91429411 4.6914392 46.29514126 7.50757419 46.3125 12.125 C46.43814998 15.25675031 46.43814998 15.25675031 47 18 C49.66516956 19.95811161 49.66516956 19.95811161 53 21 C61.9215421 28.50275239 67.17358636 40.7921529 69.3046875 51.90625 C71.31066756 60.83173433 76.48983874 71.48983874 83 78 C84.65816784 78.68753301 86.32459336 79.35561283 88 80 C88.33 80.33 88.66 80.66 89 81 C91.35491976 81.10103679 93.6798021 81.13970657 96.03515625 81.1328125 C96.7472374 81.13376923 97.45931854 81.13472595 98.19297791 81.13571167 C99.70702197 81.13639397 101.22106893 81.13453626 102.73510742 81.13037109 C105.02855221 81.12507834 107.32179617 81.13028554 109.61523438 81.13671875 C111.08854209 81.1360569 112.56184969 81.13477354 114.03515625 81.1328125 C115.05126732 81.13584885 115.05126732 81.13584885 116.08790588 81.13894653 C120.81746342 81.11624994 125.32216366 80.61680206 130 80 C131.83053733 79.88954324 133.66292913 79.80465188 135.49609375 79.75390625 C136.46740234 79.72103516 137.43871094 79.68816406 138.43945312 79.65429688 C140.43413254 79.593222 142.42893098 79.53591487 144.42382812 79.48242188 C154.97211097 79.27823245 154.97211097 79.27823245 164.484375 75.296875 C166.46926109 72.28885176 166.77540112 69.81714644 167.25 66.25 C168.24829272 60.05996893 170.15823011 54.83360377 173 49.25 C173.34450195 48.57098633 173.68900391 47.89197266 174.04394531 47.19238281 C176.15474274 43.19947455 177.91229607 40.04385196 182 38 C182.33 37.01 182.66 36.02 183 35 C182.01 34.67 181.02 34.34 180 34 C177.65735794 30.75634176 176.56410871 27.94876098 176 24 C178.3125 23.3125 178.3125 23.3125 181 23 C182.6875 24 182.6875 24 184 26 C184.185625 27.155 184.37125 28.31 184.5625 29.5 C185.5862073 33.12246674 185.5862073 33.12246674 188.27734375 34.05078125 C190.06680965 34.55142092 191.87142249 35.00122377 193.6875 35.39453125 C196 36 196 36 198 38 C198.125 40.625 198.125 40.625 198 43 C196.35 43.66 194.7 44.32 193 45 C193.71329649 47.98552315 193.71329649 47.98552315 195.58203125 49.37890625 C197 51 197 51 197.07421875 53.33984375 C196.94660156 54.19707031 196.81898438 55.05429688 196.6875 55.9375 C196.24975256 59.05821563 196 61.82277648 196 65 C196.639375 65.639375 197.27875 66.27875 197.9375 66.9375 C200.308527 69.308527 200.63641288 70.72771592 201 74 C200.34 74 199.68 74 199 74 C198.76587402 74.61206299 198.53174805 75.22412598 198.29052734 75.85473633 C196.64748899 78.58598454 195.27402735 79.11298905 192.3515625 80.32421875 C191.42859375 80.71287109 190.505625 81.10152344 189.5546875 81.50195312 C188.58789062 81.89318359 187.62109375 82.28441406 186.625 82.6875 C185.6659375 83.09033203 184.706875 83.49316406 183.71875 83.90820312 C177.44049885 86.51831172 172.6001171 88.13695779 165.75 88.0625 C164.67234375 88.05347656 163.5946875 88.04445313 162.484375 88.03515625 C161.25460937 88.01775391 161.25460937 88.01775391 160 88 C160 88.99 160 89.98 160 91 C160.886875 90.9175 161.77375 90.835 162.6875 90.75 C166.79068934 91.05967467 168.15799111 92.07904641 171 95 C172.84553067 98.4274141 173.2208542 101.13505158 173 105 C175.97 105.495 175.97 105.495 179 106 C179.8125 108.1875 179.8125 108.1875 180 111 C178.1875 113.8125 178.1875 113.8125 175 116 C171.61010357 116.52070509 168.38553979 116.56925005 165 116 C164.34 115.34 163.68 114.68 163 114 C163.375 110.375 163.375 110.375 164 107 C165.32 107 166.64 107 168 107 C168 105.35 168 103.7 168 102 C166.7934375 101.5359375 166.7934375 101.5359375 165.5625 101.0625 C163 100 163 100 162 99 C157.72168976 98.58046463 153.41957155 98.48131177 149.125 98.3125 C147.93390625 98.25255859 146.7428125 98.19261719 145.515625 98.13085938 C136.76209963 97.78129299 127.42023094 97.42387698 119.8125 102.375 C118.884375 103.24125 117.95625 104.1075 117 105 C117 106.32 117 107.64 117 109 C117.66 109.33 118.32 109.66 119 110 C118.42655063 112.86724686 118.1385485 113.8614515 116 116 C109.025 116.675 109.025 116.675 105.4375 114.3125 C104 112 104 112 103.9375 109.4375 C105.32751701 106.24863745 106.89004164 105.44120022 110 104 C110.66 104 111.32 104 112 104 C112.0825 103.2575 112.165 102.515 112.25 101.75 C113.21824599 98.19976471 113.99744303 97.17052311 117 95 C120.40841146 94.36063945 123.78877428 94.30332421 127.25 94.25 C128.18585938 94.22035156 129.12171875 94.19070313 130.0859375 94.16015625 C132.39071092 94.08960196 134.69448168 94.03683748 137 94 C137.33 93.34 137.66 92.68 138 92 C105.98986772 91.81748609 74.00285577 92.34567825 42 93 C41.67 93.66 41.34 94.32 41 95 C42.36125 95.37125 42.36125 95.37125 43.75 95.75 C47.21512044 97.08273863 48.78603464 98.04804619 51 101 C51.2165625 102.546875 51.2165625 102.546875 51.4375 104.125 C51.7159375 105.548125 51.7159375 105.548125 52 107 C54.42885788 108.38858872 54.42885788 108.38858872 57 109 C58 110 58 110 58.3125 112.875 C58 116 58 116 56.4375 117.875 C53.07352674 119.42760304 50.66991425 119.38630676 47 119 C44.0625 117.5 44.0625 117.5 42 116 C42.5021314 112.26988106 43.05566525 108.64243404 44 105 C44 104.34 44 103.68 44 103 C37.02301702 99.26568836 29.54980952 98.6330552 21.75 98.6875 C20.47322388 98.69487183 20.47322388 98.69487183 19.1706543 98.70239258 C12.66875973 98.8181269 6.25992392 99.35071895 -0.1875 100.1875 C-1.03538086 100.28828857 -1.88326172 100.38907715 -2.75683594 100.49291992 C-8.98074413 101.40512913 -13.70650202 103.64211879 -19 107 C-17.77992056 109.6905528 -17.77992056 109.6905528 -16 112 C-15.95936168 113.66617115 -15.957279 115.33388095 -16 117 C-19.06429776 118.53214888 -21.6165642 118.22938548 -25 118 C-27.9375 116.75 -27.9375 116.75 -30 115 C-30 113.68 -30 112.36 -30 111 C-28.02 110.505 -28.02 110.505 -26 110 C-26.04640625 109.34773438 -26.0928125 108.69546875 -26.140625 108.0234375 C-26.38506001 102.10461838 -26.06978448 98.65118227 -22 94 C-18.86556646 91.91037764 -18.12996308 91.74632446 -14.5625 91.8125 C-13.80066406 91.81894531 -13.03882813 91.82539063 -12.25390625 91.83203125 C-10.06062143 91.99548229 -8.11129193 92.39883487 -6 93 C-6 92.01 -6 91.02 -6 90 C-7.01707031 89.87044922 -7.01707031 89.87044922 -8.0546875 89.73828125 C-17.20933751 88.35620805 -25.81930953 85.74545927 -31.6875 78.16015625 C-38.85384232 66.36555118 -41.35915559 52.11400367 -38.2109375 38.6171875 C-35.07476916 29.83112812 -31.40699847 24.32209326 -23 20 C-20.57341574 19.31729128 -18.24782477 18.84476885 -15.75 18.51953125 C-15.1725 18.34808594 -14.595 18.17664063 -14 18 C-12.97007387 14.9102216 -13.0656943 13.30927742 -13.3125 10.125 C-13.35242969 5.57301518 -13.35242969 5.57301518 -11.9140625 3.234375 C-8.1750797 -0.20786313 -4.8817217 -0.48817217 0 0 Z " fill="#F9F9F9" transform="translate(204,164)"/>
<path d="M0 0 C0.309375 0.969375 0.61875 1.93875 0.9375 2.9375 C1.69523342 5.84065792 1.69523342 5.84065792 3 7 C3 8.98 3 10.96 3 13 C10.92 13 18.84 13 27 13 C27.99 9.7 28.98 6.4 30 3 C33 0 33 0 34.9375 -0.328125 C35.618125 -0.30234375 36.29875 -0.2765625 37 -0.25 C37.680625 -0.23453125 38.36125 -0.2190625 39.0625 -0.203125 C41 0 41 0 44 1 C45.89192715 4.56459121 46.1362909 7.45745616 46.125 11.4375 C46.40974504 15.56659623 46.40974504 15.56659623 48.69921875 18.87109375 C50.75430445 20.33358542 52.85956922 21.66696157 55 23 C62.15465511 30.36508614 67.05691225 41.53026696 69.1875 51.4375 C70.47306606 56.86850101 72.51393638 61.59879629 75 66.5625 C75.34442139 67.25335693 75.68884277 67.94421387 76.04370117 68.65600586 C78.5401744 73.49041759 80.06518529 76.27918668 85.1875 78.1875 C86.115625 78.455625 87.04375 78.72375 88 79 C88 79.66 88 80.32 88 81 C92.87482574 80.88127872 97.7494672 80.7570007 102.62402344 80.62768555 C104.28056031 80.58450951 105.93713672 80.54282303 107.59375 80.50268555 C109.9818918 80.4445607 112.3698377 80.38099052 114.7578125 80.31640625 C115.49242706 80.29969376 116.22704163 80.28298126 116.98391724 80.26576233 C121.08046448 80.14908423 124.96980377 79.71621276 129 79 C130.6191617 78.88602871 132.24085535 78.80298054 133.86328125 78.75390625 C134.75080078 78.72103516 135.63832031 78.68816406 136.55273438 78.65429688 C138.38074591 78.59349253 140.20887632 78.53615489 142.03710938 78.48242188 C151.91359991 78.40491586 151.91359991 78.40491586 160.69360352 74.64794922 C162.86126672 71.91355814 163.11430278 68.5401649 163.75 65.1875 C165.66402159 56.1165751 168.75957581 45.29410735 176 39 C175.71125 38.46375 175.4225 37.9275 175.125 37.375 C172.47857478 31.78810232 171.76994087 28.15029565 173 22 C175.1875 21.25 175.1875 21.25 178 21 C181.31800613 22.97500365 182.75869621 24.44844848 184.3125 28 C186.39935562 31.70996554 188.28538334 32.48116027 192.09375 34.109375 C194 35 194 35 195.9375 36.9375 C198.63691744 38.32810899 199.52735653 37.77999152 202.375 36.875 C205.06923867 35.8679302 207.28736721 34.82366103 209.75 33.3125 C219.46241264 29.39017951 229.71286558 32.37284165 239.03125 36.078125 C243.75828435 38.18648975 247.27962238 41.19726025 250.82421875 44.94921875 C258.57815788 52.2576892 273.49286513 55.38836355 283.875 55.1875 C285.23238281 55.08501953 285.23238281 55.08501953 286.6171875 54.98046875 C289.77189369 54.99868299 292.44775717 55.40146555 295.5390625 55.9765625 C301.0629919 56.95680671 306.34699912 57.16328554 311.94726562 57.17529297 C328.59837334 57.23250541 349.7219968 58.4704616 364 68 C365.51171875 69.76171875 365.51171875 69.76171875 366.6875 71.6875 C367.28111328 72.62142578 367.28111328 72.62142578 367.88671875 73.57421875 C370.72843551 79.76617 371.32328167 85.79472712 371.25 92.5 C371.25773437 93.20769531 371.26546875 93.91539062 371.2734375 94.64453125 C371.25247626 100.37742916 371.0997078 106.9002922 366.875 111.125 C365.92625 111.74375 364.9775 112.3625 364 113 C362.11806436 114.51119029 360.2366326 116.02300535 358.35546875 117.53515625 C350.4437631 122.45537121 342.7272784 122.5329767 333.64453125 122.6796875 C332.22888892 122.7122553 330.81326492 122.74562845 329.3976593 122.77975464 C314.21716974 123.1206157 299.03239068 123.15116866 283.84881592 123.12695312 C280.91968278 123.12430614 277.99057904 123.12920608 275.06145 123.13394356 C272.18817103 123.1375743 269.31490892 123.13640099 266.44162941 123.13381577 C264.45715409 123.13284689 262.47267805 123.13582411 260.48820496 123.13894653 C253.26929399 123.12025266 246.17503903 122.80824252 239 122 C238.67 121.01 238.34 120.02 238 119 C235.66775751 117.92611878 235.66775751 117.92611878 233 117 C231.49230132 116.15306666 230.01200061 115.25557972 228.5625 114.3125 C227.84191406 113.85488281 227.12132812 113.39726562 226.37890625 112.92578125 C219.71867806 107.53416795 215.79069307 100.53148163 211.70117188 93.140625 C209.25761336 88.83255026 206.90968532 85.16528123 203 82 C199.5190036 82 197.92397409 82.20913976 194.8046875 83.35546875 C194.0103833 83.64607178 193.2160791 83.9366748 192.39770508 84.23608398 C191.5652124 84.55005127 190.73271973 84.86401855 189.875 85.1875 C188.60209106 85.66135132 188.60209106 85.66135132 187.3034668 86.14477539 C181.33972035 88.40109658 175.57568242 90.88965788 170 94 C170.495 94.886875 170.99 95.77375 171.5 96.6875 C172.94378674 99.87586238 173.30159922 101.58187546 173 105 C173.78375 104.938125 174.5675 104.87625 175.375 104.8125 C176.674375 104.9053125 176.674375 104.9053125 178 105 C180.38313638 108.57470457 180.64837918 109.78553535 180 114 C178.52849983 117.10511476 176.90322533 119.1393694 174 121 C169.39035818 121.85026331 164.18273334 122.49053461 160.15234375 119.73828125 C158.68602794 117.52638113 158.6610923 116.19861333 158.75 113.5625 C158.77320313 112.41974609 158.77320313 112.41974609 158.796875 111.25390625 C159 109 159 109 159.578125 106.77734375 C159.71734375 106.19082031 159.8565625 105.60429687 160 105 C156.52323621 101.52323621 145.69619863 102.88457976 141.0625 102.8125 C129.60796325 102.55095313 129.60796325 102.55095313 119.6640625 107.078125 C118.84035156 108.02945313 118.84035156 108.02945313 118 109 C118.33 109.33 118.66 109.66 119 110 C119.35010591 113.71112269 119.47959996 116.14980006 117.625 119.4375 C113.52692301 121.87683154 109.63122135 121.98759486 105 121 C102.28936067 119.24499626 101.64188715 117.95539687 100 115 C99.44526676 111.53291728 99.58845691 109.80142602 101.1875 106.6875 C103.40664722 104.62139742 105.02545866 104.32157204 108 104 C108.185625 103.13375 108.185625 103.13375 108.375 102.25 C109.00725613 99.97387794 109.91863468 98.09239794 111 96 C109.8097522 96.09849243 109.8097522 96.09849243 108.59545898 96.19897461 C96.09605891 97.13856505 83.59177357 97.33526837 71.0625 97.5625 C68.81835312 97.605797 66.57421241 97.6494144 64.33007812 97.69335938 C58.88678416 97.79926343 53.44342776 97.90122511 48 98 C48.76584697 99.30992722 49.54271206 100.6134172 50.32421875 101.9140625 C50.75565186 102.64061035 51.18708496 103.3671582 51.6315918 104.11572266 C52.95791647 106.25171676 52.95791647 106.25171676 55.8125 107.375 C58 109 58 109 58.41796875 111.25390625 C58.53298112 115.01645362 58.55958437 117.86534103 56.87109375 121.2890625 C54.15972646 123.76835034 52.17944932 123.49908257 48.5625 123.4375 C47.42941406 123.43621094 46.29632813 123.43492187 45.12890625 123.43359375 C41.77683512 122.96907453 40.32699448 122.42865929 38 120 C37.57797696 115.52655575 38.14245601 111.39491296 39 107 C35.28831487 104.44665814 32.80095658 103.61711085 28.30859375 103.6015625 C27.20781494 103.59543945 26.10703613 103.58931641 24.97290039 103.58300781 C23.80621826 103.59686523 22.63953613 103.61072266 21.4375 103.625 C20.2405249 103.63370117 19.0435498 103.64240234 17.81030273 103.65136719 C10.33312007 103.77300413 2.96878941 104.20501351 -4.4375 105.25 C-5.6596521 105.41363037 -5.6596521 105.41363037 -6.90649414 105.58056641 C-11.48025522 106.32888413 -14.12827542 107.29356081 -17 111 C-16.67 111.556875 -16.34 112.11375 -16 112.6875 C-14.8690399 115.30284522 -14.84337026 117.1806646 -15 120 C-18.40059484 122.05674531 -21.1186371 122.2978388 -25.0625 122.3125 C-26.10535156 122.32925781 -27.14820313 122.34601563 -28.22265625 122.36328125 C-31 122 -31 122 -32.859375 120.7109375 C-34.70180693 117.9472896 -34.1820162 115.21561961 -34 112 C-32.02 111.01 -32.02 111.01 -30 110 C-30.05800781 109.443125 -30.11601562 108.88625 -30.17578125 108.3125 C-30.55173978 101.95343005 -29.11696269 97.89045265 -25 93 C-24.01 92.505 -24.01 92.505 -23 92 C-24.03060547 91.29423828 -24.03060547 91.29423828 -25.08203125 90.57421875 C-25.98308594 89.95160156 -26.88414062 89.32898438 -27.8125 88.6875 C-28.70582031 88.07261719 -29.59914062 87.45773438 -30.51953125 86.82421875 C-35.27205534 83.32905537 -37.02524637 80.0651207 -39.125 74.5625 C-39.38925781 73.89412109 -39.65351563 73.22574219 -39.92578125 72.53710938 C-44.36707951 61.16332779 -45.43493151 46.55337206 -40.8125 35.0625 C-37.11108102 27.78373195 -32.56487698 22.42977969 -25 19 C-22.26865337 18.36718375 -19.81640241 18.1508787 -17 18 C-17.05800781 17.20335937 -17.11601562 16.40671875 -17.17578125 15.5859375 C-17.59042106 5.8478253 -17.59042106 5.8478253 -14.75 2.3125 C-9.70418433 -1.93057227 -6.26176205 -0.93926431 0 0 Z M-13.91015625 5.08984375 C-16.27992385 9.24330739 -15.39715463 14.38859349 -15 19 C-17.57692507 20.05498275 -20.06054725 21.01651289 -22.75 21.75 C-28.60493898 24.00189961 -33.49995864 26.31552883 -36.65234375 31.95703125 C-37.89850722 34.94421152 -39.00476814 37.92100142 -40 41 C-40.33 41.99 -40.66 42.98 -41 44 C-41.51797343 53.3334827 -41.74122809 62.27046778 -38 71 C-37.47212891 72.29357422 -37.47212891 72.29357422 -36.93359375 73.61328125 C-33.38219795 81.52480655 -29.01614432 85.88462568 -21.0625 89.3125 C-16.68899629 90.92661086 -12.63931203 91.65634726 -8 92 C-8 92.99 -8 93.98 -8 95 C-8.56847656 94.84273438 -9.13695312 94.68546875 -9.72265625 94.5234375 C-13.51165541 93.65255262 -17.14974704 93.37433389 -21 94 C-24.09632649 96.43753362 -25.82300487 98.73450731 -28 102 C-28.24150773 104.51584891 -28.24150773 104.51584891 -28.125 107.1875 C-28.09792969 108.53908203 -28.09792969 108.53908203 -28.0703125 109.91796875 C-28.04710937 110.60503906 -28.02390625 111.29210937 -28 112 C-29.98 112.495 -29.98 112.495 -32 113 C-31.81171228 115.44480079 -31.81171228 115.44480079 -31 118 C-27.70893799 120.65816547 -24.06309884 120.22572771 -20 120 C-19.01 119.505 -19.01 119.505 -18 119 C-17.65099442 115.28263359 -17.65099442 115.28263359 -19.5 112.1875 C-19.995 111.795625 -20.49 111.40375 -21 111 C-20 108 -20 108 -18.49511719 106.89355469 C-13.15038792 104.22788771 -8.15653013 103.00304369 -2.25 102.25 C-0.89213379 102.06787964 -0.89213379 102.06787964 0.49316406 101.88208008 C6.91242322 101.0921799 13.28379467 100.71935323 19.75 100.6875 C20.54631836 100.68202148 21.34263672 100.67654297 22.16308594 100.67089844 C29.14999065 100.75614044 35.78445747 101.67323643 42 105 C42.15266459 107.74796255 42.24574881 109.537414 40.9375 112 C39.79658925 114.02886641 39.79658925 114.02886641 40.125 116.625 C40.79218534 119.06161633 40.79218534 119.06161633 42.625 120.3125 C46.79868525 121.52067204 50.45104884 121.71490054 54.4375 119.875 C56.25763262 118.01184014 56.25763262 118.01184014 56.5 115 C56.28577545 111.92250157 56.28577545 111.92250157 54.125 110.125 C52.1061412 108.84403743 52.1061412 108.84403743 50 109 C49.9175 108.0925 49.835 107.185 49.75 106.25 C48.87949417 102.47780806 48.05769172 101.31392887 45 99 C41.86649283 97.73215876 41.86649283 97.73215876 39 97 C39.33 96.34 39.66 95.68 40 95 C72.00285577 94.34567825 103.98986772 93.81748609 136 94 C135.67 94.66 135.34 95.32 135 96 C134.42032471 95.99887207 133.84064941 95.99774414 133.2434082 95.99658203 C130.59860966 96.00874202 127.95666162 96.06644417 125.3125 96.125 C124.40048828 96.12242187 123.48847656 96.11984375 122.54882812 96.1171875 C117.58888271 96.19033402 117.58888271 96.19033402 113.23974609 98.28808594 C110.95435205 100.89512804 110 102.50377091 110 106 C109.05125 106.268125 108.1025 106.53625 107.125 106.8125 C103.74732727 107.74986588 103.74732727 107.74986588 102 111 C102.21850915 113.33076432 102.85194813 114.75614986 104.0625 116.75 C107.18115189 118.76203348 110.40071672 118.56238801 114 118 C116.07006533 116.8511303 116.07006533 116.8511303 117 115 C117 114.01 117 113.02 117 112 C116.34 111.67 115.68 111.34 115 111 C115 109.68 115 108.36 115 107 C122.93428379 99.59466846 132.98876425 99.69427551 143.36914062 100.03320312 C145.13547852 100.10958008 145.13547852 100.10958008 146.9375 100.1875 C148.14212891 100.21908203 149.34675781 100.25066406 150.58789062 100.28320312 C151.74353516 100.32767578 152.89917969 100.37214844 154.08984375 100.41796875 C155.65013306 100.47633911 155.65013306 100.47633911 157.24194336 100.53588867 C160.3134694 101.05274899 161.64436477 102.03615169 164 104 C164.66 104 165.32 104 166 104 C166 105.65 166 107.3 166 109 C164.68 109 163.36 109 162 109 C161.32326553 112.40320934 161.32326553 112.40320934 161 116 C163.47035712 118.47035712 164.3960007 118.35042281 167.8125 118.4375 C171.7319022 118.3579759 172.82914944 118.11725039 176.1875 115.8125 C178.29158091 113.1615292 178.29158091 113.1615292 177.8125 110.1875 C177.4103125 109.1046875 177.4103125 109.1046875 177 108 C174.03 107.505 174.03 107.505 171 107 C170.896875 105.948125 170.79375 104.89625 170.6875 103.8125 C170.0131324 100.07282514 169.24078691 98.01644392 167 95 C163.5647952 92.70986347 162.014669 92.82157027 158 93 C158 92.01 158 91.02 158 90 C158.680625 90.06960937 159.36125 90.13921875 160.0625 90.2109375 C169.764443 90.75280134 177.28926434 87.83355307 186 84 C187.58748047 83.30390625 187.58748047 83.30390625 189.20703125 82.59375 C192.70721455 80.97832729 192.70721455 80.97832729 196 79 C196.33 78.01 196.66 77.02 197 76 C197.66 76 198.32 76 199 76 C197.79157144 71.56909529 196.48331435 69.01887244 193 66 C193.33 64.96875 193.66 63.9375 194 62.875 C194.95381654 59.4851772 195.40221786 56.53951715 195 53 C193.62485459 51.2912354 193.62485459 51.2912354 192 50 C191.67 49.01 191.34 48.02 191 47 C192.65 46.34 194.3 45.68 196 45 C196.33425735 42.62625139 196.33425735 42.62625139 196 40 C192.85285804 36.45946529 188.44967918 35.96409716 184 35 C183.5978125 33.3603125 183.5978125 33.3603125 183.1875 31.6875 C182.01576549 27.58301409 182.01576549 27.58301409 179 25 C176.34533951 25.23043864 176.34533951 25.23043864 174 26 C175.48888213 32.01819201 175.48888213 32.01819201 179 37 C179.66 37 180.32 37 181 37 C180.67 37.99 180.34 38.98 180 40 C179.10667969 40.34998047 179.10667969 40.34998047 178.1953125 40.70703125 C174.69691151 42.76747739 173.57527095 46.1027082 171.875 49.6875 C171.52824219 50.38294922 171.18148437 51.07839844 170.82421875 51.79492188 C167.9258707 57.74153253 166.14467195 63.64287083 165.125 70.1875 C164.52892759 73.14097156 164.0490743 74.92148112 162.4375 77.5 C155.70066085 81.64574717 147.10873754 81.35679644 139.4375 81.5625 C137.45693199 81.6231428 135.47645623 81.68688668 133.49609375 81.75390625 C132.63169678 81.77783447 131.7672998 81.8017627 130.87670898 81.82641602 C128.62788297 81.96211281 126.38586966 82.21178996 124.15209961 82.50488281 C120.12486438 83.02962517 116.12859303 83.16127092 112.0703125 83.16796875 C111.35390594 83.17129715 110.63749939 83.17462555 109.89938354 83.17805481 C108.40200435 83.18307354 106.90461416 83.18546472 105.40722656 83.18530273 C103.10984437 83.18751459 100.81292413 83.20579107 98.515625 83.22460938 C97.05468913 83.22753929 95.593751 83.22952677 94.1328125 83.23046875 C93.44639679 83.23765427 92.75998108 83.24483978 92.05276489 83.25224304 C87.22886021 83.22886021 87.22886021 83.22886021 85 81 C84.19691406 80.71382813 83.39382813 80.42765625 82.56640625 80.1328125 C75.23654819 76.89741092 71.25080842 65.26444479 68.375 58.125 C67.30230902 55.24040611 66.8137045 52.60821039 66.4375 49.5625 C65.45583523 44.21325891 63.00762449 39.90421701 60.3125 35.25 C59.90249756 34.5288501 59.49249512 33.8077002 59.07006836 33.06469727 C55.62459375 27.33284308 51.50994298 22.16998099 45 20 C44.94392578 18.78763672 44.94392578 18.78763672 44.88671875 17.55078125 C44.82097656 16.48214844 44.75523437 15.41351563 44.6875 14.3125 C44.62949219 13.25675781 44.57148438 12.20101562 44.51171875 11.11328125 C43.95171018 7.70620622 43.1237854 5.71290069 41 3 C37.5 2.25 37.5 2.25 34 3 C31.91313108 4.36073536 31.91313108 4.36073536 31 7 C30.67 9.97 30.34 12.94 30 16 C20.43 16 10.86 16 1 16 C1 13.69 1 11.38 1 9 C0.34 8.34 -0.32 7.68 -1 7 C-1.625 4.375 -1.625 4.375 -2 2 C-6.77720592 1.52227941 -10.21946922 1.73200383 -13.91015625 5.08984375 Z M199 44 C198.67 44.99 198.34 45.98 198 47 C197.01 47.495 197.01 47.495 196 48 C196.08378906 48.71285156 196.16757812 49.42570312 196.25390625 50.16015625 C197.18728032 58.93859842 197.18728032 58.93859842 196.375 63 C196.25125 63.99 196.1275 64.98 196 66 C196.98196131 67.01771901 197.98406194 68.01619623 199 69 C199.73828125 70.8671875 199.73828125 70.8671875 200.3125 72.875 C201.60253893 76.57714298 203.20919356 78.24590682 206.39453125 80.61328125 C211.95897161 85.41954969 215.22259194 93.08829439 218.5078125 99.51953125 C220.0633645 102.10533104 221.78723691 103.9629284 224 106 C226.97 105.01 226.97 105.01 230 104 C231.02703748 98.44506076 231.02703748 98.44506076 230 93 C230.61359375 92.97035156 231.2271875 92.94070312 231.859375 92.91015625 C234.33791025 92.14729048 234.33791025 92.14729048 235.265625 89.05859375 C235.59046875 87.86363281 235.9153125 86.66867188 236.25 85.4375 C236.58515625 84.23996094 236.9203125 83.04242188 237.265625 81.80859375 C237.50796875 80.88175781 237.7503125 79.95492187 238 79 C237.01 78.01 236.02 77.02 235 76 C236.65 76 238.3 76 240 76 C239.51234983 81.36415189 238.49026611 85.96650548 236.62109375 91.01953125 C235.85038036 93.13115979 235.85038036 93.13115979 236 96 C235.01 96.33 234.02 96.66 233 97 C233 99.97 233 102.94 233 106 C229.535 106.99 229.535 106.99 226 108 C228.18637694 111.34345305 230.1502719 112.86883911 233.75 114.5625 C234.56984375 114.95566406 235.3896875 115.34882813 236.234375 115.75390625 C237.14703125 116.16511719 238.0596875 116.57632813 239 117 C239.95221436 117.51393311 240.90442871 118.02786621 241.88549805 118.55737305 C247.24583338 120.83166994 252.87252048 120.38887703 258.59765625 120.328125 C260.43558998 120.32531525 260.43558998 120.32531525 262.31065369 120.32244873 C264.90708127 120.31573507 267.50349885 120.30183429 270.09985352 120.28125 C273.99700766 120.25051648 277.89375305 120.2403118 281.79101562 120.234375 C289.1951807 120.21287787 296.5968841 120.12305275 304 120 C305.11848328 119.98461182 306.23696655 119.96922363 307.38934326 119.95336914 C310.46767161 119.90314095 313.54370897 119.82458912 316.62109375 119.734375 C317.97183739 119.71470673 317.97183739 119.71470673 319.34986877 119.69464111 C324.32757583 119.51066509 324.32757583 119.51066509 328.59790039 117.07910156 C330.22620171 115.13855045 330.22620171 115.13855045 329.8125 113 C329.4103125 112.01 329.4103125 112.01 329 111 C328.7834375 109.9171875 328.7834375 109.9171875 328.5625 108.8125 C328.376875 108.214375 328.19125 107.61625 328 107 C327.34 106.67 326.68 106.34 326 106 C326 105.34 326 104.68 326 104 C326.99 103.34 327.98 102.68 329 102 C329.72382467 99.94074861 329.72382467 99.94074861 330 98 C329.030625 97.401875 328.06125 96.80375 327.0625 96.1875 C324 94 324 94 323 91 C329.52941176 93.17647059 329.52941176 93.17647059 331.5 96.625 C332.04385368 100.29601236 331.69257912 103.24543592 331.16015625 106.88671875 C330.94909708 109.67167019 331.76579886 111.53159771 333 114 C333 114.99 333 115.98 333 117 C332.34 117 331.68 117 331 117 C331 117.66 331 118.32 331 119 C344.95800457 119.59069925 354.43613625 117.24161549 365.17578125 108.16015625 C369.41117598 103.14479589 369.28660603 95.12403647 368.8125 88.8125 C367.75368471 81.2304089 365.92938954 74.18821585 360 69 C356.39338521 67.6570574 352.77063203 66.75280569 349 66 C349.99233395 68.53129254 350.98271323 70.96715514 352.25 73.375 C353.12247878 76.42867572 352.46976278 77.77537435 351.44921875 80.6875 C350.41578187 86.00745335 351.45077287 91.64874646 352 97 C350.02 97 348.04 97 346 97 C346.70125 96.360625 347.4025 95.72125 348.125 95.0625 C350.2670472 91.56382291 350.1270455 90.99604005 349.25 87.1875 C348.85646757 85.78496871 348.44703306 84.38640659 348 83 C347.34 83 346.68 83 346 83 C347.75 79.125 347.75 79.125 350 78 C349.39597825 72.80541297 348.2649917 68.97201858 344.23144531 65.46020508 C336.14531679 60.16883367 325.52909185 60.60781415 316.25 60.8125 C315.0640625 60.82603516 313.878125 60.83957031 312.65625 60.85351562 C309.77033307 60.88842591 306.88542736 60.93745461 304 61 C303.81824219 62.17369141 303.81824219 62.17369141 303.6328125 63.37109375 C303 66 303 66 300.875 68.0625 C300.25625 68.701875 299.6375 69.34125 299 70 C299.08456716 72.70614924 299.77683036 73.75782564 301.60546875 75.7421875 C303.53195865 78.86126639 302.96327779 80.58470659 302.25 84.125 C302.04890625 85.17945313 301.8478125 86.23390625 301.640625 87.3203125 C301 90 301 90 300 92 C297.4375 92.625 297.4375 92.625 295 93 C295.9590625 92.2265625 295.9590625 92.2265625 296.9375 91.4375 C300.45779161 87.27715537 300.15943515 82.26136009 300 77 C298.515 76.505 298.515 76.505 297 76 C295.99150451 72.79115073 295.74831573 71.49138358 297.3125 68.4375 C297.869375 67.633125 298.42625 66.82875 299 66 C299.68106716 64.67396465 300.35040754 63.34173465 301 62 C298.48159185 61.322781 295.96091276 60.65808826 293.4375 60 C292.73302734 59.80921875 292.02855469 59.6184375 291.30273438 59.421875 C286.72939791 58.24165914 282.72223635 57.80143027 278 58 C277.67 58.66 277.34 59.32 277 60 C277.495 61.485 277.495 61.485 278 63 C277.5359375 63.8353125 277.5359375 63.8353125 277.0625 64.6875 C275.70553022 67.17332345 275.70553022 67.17332345 276.1875 70.9375 C276.25 73.0625 276.25 73.0625 276 75 C274.3777546 76.70993434 272.70586575 78.37347684 271 80 C269.72876818 82.92979207 268.82594831 85.91780267 268 89 C266.35 89 264.7 89 263 89 C263 88.34 263 87.68 263 87 C264.32 86.67 265.64 86.34 267 86 C266.896875 85.071875 266.79375 84.14375 266.6875 83.1875 C266.790625 82.135625 266.89375 81.08375 267 80 C269.375 78.4375 269.375 78.4375 272 77 C273.45291273 74.53744315 273.45291273 74.53744315 274 72 C273.67 71.34 273.34 70.68 273 70 C272.34 70 271.68 70 271 70 C272.32 67.36 273.64 64.72 275 62 C271.68594155 56.81849592 268.24000728 55.63068518 262.625 53.9375 C255.55134457 51.74540366 250.02758131 49.01799752 244.5 43.9375 C241.52813875 41.35270236 238.72425035 39.40693902 235 38 C232.70112992 38.19530151 232.70112992 38.19530151 231 39 C230.855625 40.216875 230.71125 41.43375 230.5625 42.6875 C229.14431899 53.99299929 229.14431899 53.99299929 226.4375 56.375 C224.47340281 58.59528378 224.92608953 60.11749161 225 63 C222.64046906 65.35953094 221.22104383 65.49141413 218 66 C219.63412443 64.29159719 220.86906094 63.06546953 223 62 C222.938125 60.88625 222.87625 59.7725 222.8125 58.625 C222.9053125 56.830625 222.9053125 56.830625 223 55 C223.99 54.34 224.98 53.68 226 53 C225.7525 52.0925 225.505 51.185 225.25 50.25 C225.1675 49.1775 225.085 48.105 225 47 C226.31266518 45.64631404 227.64567325 44.31200404 229 43 C228.85974801 40.29294488 228.85974801 40.29294488 228 38 C226.68 37.67 225.36 37.34 224 37 C224 36.34 224 35.68 224 35 C214.72673341 34.22722778 205.2208457 36.65456205 199 44 Z " fill="#0C0C0C" transform="translate(206,162)"/>
<path d="M0 0 C0.680625 0.01546875 1.36125 0.0309375 2.0625 0.046875 C4 0.25 4 0.25 7 1.25 C8.89192715 4.81459121 9.1362909 7.70745616 9.125 11.6875 C9.40974504 15.81659623 9.40974504 15.81659623 11.69921875 19.12109375 C13.75430445 20.58358542 15.85956922 21.91696157 18 23.25 C25.15465511 30.61508614 30.05691225 41.78026696 32.1875 51.6875 C33.47306606 57.11850101 35.51393638 61.84879629 38 66.8125 C38.34442139 67.50335693 38.68884277 68.19421387 39.04370117 68.90600586 C41.5401744 73.74041759 43.06518529 76.52918668 48.1875 78.4375 C49.5796875 78.8396875 49.5796875 78.8396875 51 79.25 C51 79.91 51 80.57 51 81.25 C55.87482574 81.13127872 60.7494672 81.0070007 65.62402344 80.87768555 C67.28056031 80.83450951 68.93713672 80.79282303 70.59375 80.75268555 C72.9818918 80.6945607 75.3698377 80.63099052 77.7578125 80.56640625 C78.49242706 80.54969376 79.22704163 80.53298126 79.98391724 80.51576233 C84.07693206 80.39918484 87.97594019 79.99386852 92 79.25 C94.67810075 79.13803927 97.31732686 79.20374701 100 79.25 C100 79.58 100 79.91 100 80.25 C106.93 80.745 106.93 80.745 114 81.25 C114 81.58 114 81.91 114 82.25 C113.34515625 82.27505615 112.6903125 82.3001123 112.015625 82.32592773 C109.01026764 82.44292655 106.00514515 82.56517635 103 82.6875 C101.97003906 82.72681641 100.94007813 82.76613281 99.87890625 82.80664062 C98.86699219 82.84853516 97.85507812 82.89042969 96.8125 82.93359375 C95.89082031 82.97025146 94.96914063 83.00690918 94.01953125 83.04467773 C91.71678864 83.20125976 89.4206318 83.45796377 87.13232422 83.75927734 C83.1119395 84.28157779 79.12147418 84.41128267 75.0703125 84.41796875 C74.35390594 84.42129715 73.63749939 84.42462555 72.89938354 84.42805481 C71.40200435 84.43307354 69.90461416 84.43546472 68.40722656 84.43530273 C66.10984437 84.43751459 63.81292413 84.45579107 61.515625 84.47460938 C60.05468913 84.47753929 58.593751 84.47952677 57.1328125 84.48046875 C56.44639679 84.48765427 55.75998108 84.49483978 55.05276489 84.50224304 C50.22886021 84.47886021 50.22886021 84.47886021 48 82.25 C47.2575 82.04375 46.515 81.8375 45.75 81.625 C37.108438 77.304219 32.75942622 64.89353625 29.5859375 56.27734375 C28.96087151 54.11461544 28.71608342 52.04493203 28.4375 49.8125 C27.45723647 44.43361806 24.96743608 40.10997623 22.25 35.4375 C21.83161865 34.70797119 21.4132373 33.97844238 20.98217773 33.22680664 C17.83995433 28.01535804 14.48442977 23.66008697 8.6640625 21.3046875 C8.11492187 20.95664063 7.56578125 20.60859375 7 20.25 C6.4609375 17.5703125 6.4609375 17.5703125 6.375 14.375 C6.24902734 10.43108678 6.0594323 7.66041988 4 4.25 C0.58357241 3.99984127 0.58357241 3.99984127 -3 4.25 C-5.27702174 7.66553261 -5.71824212 10.32030029 -6.4375 14.2890625 C-6.623125 14.93617188 -6.80875 15.58328125 -7 16.25 C-10.3282731 17.91413655 -13.99733973 17.06867406 -17.625 16.8125 C-18.42679688 16.76029297 -19.22859375 16.70808594 -20.0546875 16.65429688 C-22.03679103 16.52451629 -24.01844499 16.38790265 -26 16.25 C-25.67 15.26 -25.34 14.27 -25 13.25 C-20.05 13.25 -15.1 13.25 -10 13.25 C-9.566875 11.661875 -9.13375 10.07375 -8.6875 8.4375 C-7.26474101 3.22071702 -5.88680144 -0.2229849 0 0 Z " fill="#101010" transform="translate(243,161.75)"/>
<path d="M0 0 C1.19689453 0.03480469 1.19689453 0.03480469 2.41796875 0.0703125 C6.23540158 0.27424881 8.30138538 0.45330158 11.44140625 2.76171875 C12.875 4.875 12.875 4.875 12.6875 7.5625 C11.875 9.875 11.875 9.875 10.875 10.875 C7.09004445 11.12752843 3.29238304 11.06022639 -0.5 11.0625 C-2.10101563 11.08086914 -2.10101563 11.08086914 -3.734375 11.09960938 C-5.26964844 11.10250977 -5.26964844 11.10250977 -6.8359375 11.10546875 C-7.77743652 11.10957764 -8.71893555 11.11368652 -9.68896484 11.11791992 C-12.125 10.875 -12.125 10.875 -15.125 8.875 C-15.3125 5.25 -15.3125 5.25 -15.125 1.875 C-9.89181402 -0.29567843 -5.53569123 -0.32509769 0 0 Z " fill="#080808" transform="translate(209.125,233.125)"/>
<path d="M0 0 C2 1 2 1 3.4375 4.375 C4.68679568 7.91541401 4.68679568 7.91541401 6.75 9.6875 C7.1625 10.120625 7.575 10.55375 8 11 C7.6875 13.1875 7.6875 13.1875 7 15 C6.38125 15.061875 5.7625 15.12375 5.125 15.1875 C4.42375 15.455625 3.7225 15.72375 3 16 C2.28437241 17.64623795 1.62747307 19.31818557 1 21 C0.02083333 22.95833333 -0.95833333 24.91666667 -1.9375 26.875 C-4.89338631 33.14376372 -6.13746264 38.88964906 -7.06640625 45.6875 C-8.20787198 49.73755413 -9.73730458 51.39367649 -13 54 C-15.95648563 54.99167628 -18.66148389 55.11755459 -21.765625 55.09765625 C-22.65507812 55.09443359 -23.54453125 55.09121094 -24.4609375 55.08789062 C-25.84152344 55.07532227 -25.84152344 55.07532227 -27.25 55.0625 C-28.65378906 55.05573242 -28.65378906 55.05573242 -30.0859375 55.04882812 C-32.39069041 55.03706918 -34.69531227 55.02063426 -37 55 C-36.67 54.34 -36.34 53.68 -36 53 C-33.375 52.65625 -33.375 52.65625 -30 52.5 C-20.78871315 52.18676771 -20.78871315 52.18676771 -12.3671875 48.91796875 C-10.27305833 45.98020469 -9.90938901 42.66511536 -9.25 39.1875 C-7.33597841 30.1165751 -4.24042419 19.29410735 3 13 C2.71125 12.505 2.4225 12.01 2.125 11.5 C0.57405952 8.05346561 -0.21144587 4.70013862 -1 1 C-0.67 0.67 -0.34 0.34 0 0 Z " fill="#070707" transform="translate(379,188)"/>
<path d="M0 0 C0.90105469 0.00902344 1.80210937 0.01804688 2.73046875 0.02734375 C3.41753906 0.03894531 4.10460937 0.05054688 4.8125 0.0625 C4.4825 1.0525 4.1525 2.0425 3.8125 3.0625 C3.14863281 3.08828125 2.48476562 3.1140625 1.80078125 3.140625 C-2.24166857 3.40028601 -5.53200888 3.76819787 -9.25 5.4375 C-12.32782225 9.60745273 -12.4440011 13.97774283 -12.1875 19.0625 C-10.95473021 22.41837333 -10.1054112 23.52255223 -7.0625 25.3125 C-3.13932434 26.33593713 0.77839411 26.72852173 4.8125 27.0625 C4.8125 27.7225 4.8125 28.3825 4.8125 29.0625 C-7.00271135 29.75076474 -7.00271135 29.75076474 -10.8125 27.3125 C-14.21356597 24.0904375 -15.12087459 22.30478629 -15.375 17.56640625 C-14.87969467 7.15467542 -14.87969467 7.15467542 -12.8828125 4.00390625 C-8.89377273 0.65986048 -5.02718531 -0.06528812 0 0 Z " fill="#0C0C0C" transform="translate(206.1875,199.9375)"/>
<path d="M0 0 C1.21171875 -0.02578125 2.4234375 -0.0515625 3.671875 -0.078125 C7.5248711 0.27520652 9.93175572 1.31605395 13.25 3.25 C12.92 4.24 12.59 5.23 12.25 6.25 C9.52056463 6.30416741 6.79221436 6.34375225 4.0625 6.375 C2.90911133 6.40013672 2.90911133 6.40013672 1.73242188 6.42578125 C-2.5649434 6.46266851 -5.82901831 6.2458504 -9.75 4.25 C-9.42 3.26 -9.09 2.27 -8.75 1.25 C-5.83999203 -0.20500399 -3.2410667 0.04102616 0 0 Z " fill="#DADADA" transform="translate(205.75,235.75)"/>
<path d="M0 0 C11.88 0 23.76 0 36 0 C36 0.33 36 0.66 36 1 C33.03 1 30.06 1 27 1 C27 1.66 27 2.32 27 3 C19.08 3 11.16 3 3 3 C3 2.34 3 1.68 3 1 C2.01 0.67 1.02 0.34 0 0 Z " fill="#242424" transform="translate(251,256)"/>
<path d="M0 0 C0 0.33 0 0.66 0 1 C6.93 1.495 6.93 1.495 14 2 C14 2.33 14 2.66 14 3 C0.635 3.495 0.635 3.495 -13 4 C-12.67 3.01 -12.34 2.02 -12 1 C-8.32433144 -0.61729417 -3.92760325 -0.06546005 0 0 Z " fill="#2A2A2A" transform="translate(343,241)"/>
<path d="M0 0 C0.99 0 1.98 0 3 0 C2.67 1.32 2.34 2.64 2 4 C2.99 4 3.98 4 5 4 C5 2.68 5 1.36 5 0 C5.66 0 6.32 0 7 0 C7.04254356 1.99954746 7.04080783 4.00041636 7 6 C6 7 6 7 3.5 7.125 C1 7 1 7 0 6 C-0.04080783 4.00041636 -0.04254356 1.99954746 0 0 Z " fill="#0B0B0B" transform="translate(222,216)"/>
<path d="M0 0 C0.66 0 1.32 0 2 0 C2 1.65 2 3.3 2 5 C2.99 5 3.98 5 5 5 C5 3.68 5 2.36 5 1 C5.66 1 6.32 1 7 1 C7 2.98 7 4.96 7 7 C4.625 7.625 4.625 7.625 2 8 C0 6 0 6 -0.125 2.875 C-0.08375 1.92625 -0.0425 0.9775 0 0 Z " fill="#080808" transform="translate(179,228)"/>
<path d="M0 0 C1.98 0.495 1.98 0.495 4 1 C3.67 2.32 3.34 3.64 3 5 C1.68 5 0.36 5 -1 5 C-0.67 3.35 -0.34 1.7 0 0 Z " fill="#050505" transform="translate(182,197)"/>
<path d="M0 0 C2.475 0.495 2.475 0.495 5 1 C5 1.99 5 2.98 5 4 C3.35 3.67 1.7 3.34 0 3 C0 2.01 0 1.02 0 0 Z " fill="#0E0E0E" transform="translate(223,198)"/>
</svg>
