<?xml version="1.0" encoding="UTF-8"?>
<svg version="1.1" xmlns="http://www.w3.org/2000/svg" width="800" height="300">
<path d="M0 0 C264 0 528 0 800 0 C800 99 800 198 800 300 C536 300 272 300 0 300 C0 201 0 102 0 0 Z " fill="#FEFEFE" transform="translate(0,0)"/>
<path d="M0 0 C8.08108108 1.05405405 8.08108108 1.05405405 11.125 4.1875 C13 7 13 7 14 13 C26.375 12.505 26.375 12.505 39 12 C39.66 9.36 40.32 6.72 41 4 C41.33 4 41.66 4 42 4 C42 44.26 42 84.52 42 126 C35.527168 128.15761067 30.86800119 126.87647117 25 124 C23 123 23 123 22 120 C22.10584441 118.45689985 22.23320266 116.91521253 22.375 115.375 C22.45617867 109.79802536 20.40127059 107.20158035 16.82421875 103.109375 C14.18465322 100.05720073 11 96.16253948 11 92 C10.41621582 91.94054199 9.83243164 91.88108398 9.23095703 91.81982422 C-14.55383368 89.26994438 -14.55383368 89.26994438 -22.875 80.0625 C-31.57041603 67.53087101 -32.76240964 54.29873575 -30.4296875 39.34375 C-28.54023073 31.30858647 -25.9596863 26.14169976 -19.19140625 21.29296875 C-14.66346714 18.62140396 -10.24626376 18 -5 18 C-5.268125 17.05125 -5.53625 16.1025 -5.8125 15.125 C-6.63552328 9.76986185 -3.67819186 5.45228073 -1 1 C-0.67 0.67 -0.34 0.34 0 0 Z " fill="#FCFCFC" transform="translate(758,155)"/>
<path d="M0 0 C8.08108108 1.05405405 8.08108108 1.05405405 11.125 4.1875 C13 7 13 7 14 13 C26.375 12.505 26.375 12.505 39 12 C39.66 9.36 40.32 6.72 41 4 C41.33 4 41.66 4 42 4 C42.02687279 5.81242052 42.04633715 7.62495233 42.0625 9.4375 C42.07410156 10.44683594 42.08570313 11.45617187 42.09765625 12.49609375 C42 15 42 15 41 16 C38.85441173 16.08775605 36.70595579 16.10695219 34.55859375 16.09765625 C33.25341797 16.09443359 31.94824219 16.09121094 30.60351562 16.08789062 C29.2148431 16.07953401 27.82617123 16.07106905 26.4375 16.0625 C25.04492344 16.05748666 23.65234519 16.05292347 22.25976562 16.04882812 C18.8398013 16.03699434 15.41992156 16.0205088 12 16 C11.66226563 15.30132812 11.32453125 14.60265625 10.9765625 13.8828125 C10.53054688 12.97273437 10.08453125 12.06265625 9.625 11.125 C9.18414063 10.22007812 8.74328125 9.31515625 8.2890625 8.3828125 C7.09497301 5.90465528 7.09497301 5.90465528 5 4 C2.93125966 3.3574765 2.93125966 3.3574765 1 3 C-1.10575375 8.52760359 -2.37851209 13.06997733 -2 19 C-2.88042969 19.32613281 -3.76085937 19.65226562 -4.66796875 19.98828125 C-6.41013672 20.64376953 -6.41013672 20.64376953 -8.1875 21.3125 C-9.33605469 21.74175781 -10.48460937 22.17101562 -11.66796875 22.61328125 C-14.65931571 23.85821463 -17.23844135 25.32736856 -20 27 C-20.66 27 -21.32 27 -22 27 C-27.28455795 39.98163149 -30.01973872 55.28562048 -25.046875 68.890625 C-21.10061292 76.8420486 -15.70911305 82.24423838 -7.31787109 85.31567383 C-3.27718928 86.50864108 0.81524298 86.8371632 5 87.1875 C5.87011719 87.26935547 6.74023438 87.35121094 7.63671875 87.43554688 C9.75691206 87.63358691 11.87835199 87.81820556 14 88 C14.27070312 88.88429688 14.54140625 89.76859375 14.8203125 90.6796875 C15.92029176 93.77565562 17.17934509 96.32233722 18.875 99.125 C19.36742187 99.95257813 19.85984375 100.78015625 20.3671875 101.6328125 C21.94214408 104.0716226 21.94214408 104.0716226 24.1171875 106.1015625 C26.49624527 108.50036349 27.12166281 110.7794303 28 114 C27.01 114.495 27.01 114.495 26 115 C26 116.65 26 118.3 26 120 C31.51648654 123.62926746 35.78630501 123.01924246 42 122 C42 123.32 42 124.64 42 126 C35.527168 128.15761067 30.86800119 126.87647117 25 124 C23 123 23 123 22 120 C22.10584441 118.45689985 22.23320266 116.91521253 22.375 115.375 C22.45617867 109.79802536 20.40127059 107.20158035 16.82421875 103.109375 C14.18465322 100.05720073 11 96.16253948 11 92 C10.41621582 91.94054199 9.83243164 91.88108398 9.23095703 91.81982422 C-14.55383368 89.26994438 -14.55383368 89.26994438 -22.875 80.0625 C-31.57041603 67.53087101 -32.76240964 54.29873575 -30.4296875 39.34375 C-28.54023073 31.30858647 -25.9596863 26.14169976 -19.19140625 21.29296875 C-14.66346714 18.62140396 -10.24626376 18 -5 18 C-5.268125 17.05125 -5.53625 16.1025 -5.8125 15.125 C-6.63552328 9.76986185 -3.67819186 5.45228073 -1 1 C-0.67 0.67 -0.34 0.34 0 0 Z " fill="#1B1B1B" transform="translate(758,155)"/>
<path d="M0 0 C0.99 0.495 0.99 0.495 2 1 C2 1.66 2 2.32 2 3 C5.54558268 3.97415762 9.11614542 4.51742181 12.75 5.0625 C14.8125 5.371875 16.875 5.68125 19 6 C19 10.62 19 15.24 19 20 C13.88775999 20.60653695 13.88775999 20.60653695 11 20 C7.13477594 16.61547639 5.25425469 11.50850938 3 7 C2.34 6.67 1.68 6.34 1 6 C0.375 2.9375 0.375 2.9375 0 0 Z " fill="#1B1B1B" transform="translate(781,247)"/>
<path d="M0 0 C1.46373047 0.02707031 1.46373047 0.02707031 2.95703125 0.0546875 C3.69308594 0.07789063 4.42914062 0.10109375 5.1875 0.125 C5.1875 1.115 5.1875 2.105 5.1875 3.125 C-2.2375 4.61 -2.2375 4.61 -9.8125 6.125 C-10.98914871 9.65494613 -11.01100603 12.41955413 -10.8125 16.125 C-9.09023504 19.37349977 -9.09023504 19.37349977 -5.8125 20.125 C-4.40425107 20.20521999 -2.99252769 20.23265977 -1.58203125 20.22265625 C-0.77958984 20.21943359 0.02285156 20.21621094 0.84960938 20.21289062 C1.68298828 20.20451172 2.51636719 20.19613281 3.375 20.1875 C4.6424707 20.18073242 4.6424707 20.18073242 5.93554688 20.17382812 C8.01956155 20.16205403 10.10353977 20.1441189 12.1875 20.125 C12.1875 21.115 12.1875 22.105 12.1875 23.125 C4.71445502 25.61601499 -3.77360078 24.64513349 -11.10546875 22.07421875 C-12.8125 21.125 -12.8125 21.125 -14.8125 18.125 C-15.43739744 13.21771716 -15.21286451 8.52566827 -12.8125 4.125 C-9.04213149 0.35463149 -5.18226941 -0.12487396 0 0 Z " fill="#1C1C1C" transform="translate(765.8125,191.875)"/>
<path d="M0 0 C0.66 0.33 1.32 0.66 2 1 C1.34 2.32 0.68 3.64 0 5 C-0.66 5 -1.32 5 -2 5 C-3.88433572 9.47019903 -5.10660825 13.98312421 -6.31640625 18.671875 C-7 21 -7 21 -8 22 C-8.23678716 24.69235776 -8.42198025 27.36498156 -8.5625 30.0625 C-8.60568359 30.82111328 -8.64886719 31.57972656 -8.69335938 32.36132812 C-8.79973633 34.24065438 -8.90039934 36.12030244 -9 38 C-9.33 38 -9.66 38 -10 38 C-10.11755481 34.35444442 -10.18769812 30.70938526 -10.25 27.0625 C-10.28351562 26.04091797 -10.31703125 25.01933594 -10.3515625 23.96679688 C-10.44602527 16.57508481 -9.48799581 10.23884389 -4.66625977 4.37915039 C-3.50201889 3.19307344 -2.25707362 2.08719881 -1 1 C-0.67 0.67 -0.34 0.34 0 0 Z " fill="#151515" transform="translate(738,177)"/>
<path d="M0 0 C3.02089478 -0.02716089 6.04154129 -0.04691657 9.0625 -0.0625 C9.91005859 -0.07087891 10.75761719 -0.07925781 11.63085938 -0.08789062 C16.5361722 -0.10683006 21.16444755 0.16673655 26 1 C26 1.99 26 2.98 26 4 C17.09 3.67 8.18 3.34 -1 3 C-0.67 2.01 -0.34 1.02 0 0 Z " fill="#202020" transform="translate(756,228)"/>
<path d="M0 0 C1.258125 -0.020625 2.51625 -0.04125 3.8125 -0.0625 C4.52019531 -0.07410156 5.22789062 -0.08570313 5.95703125 -0.09765625 C8 0 8 0 11 1 C11 3.64 11 6.28 11 9 C8.3125 9.4375 8.3125 9.4375 5 9 C2.89292415 6.92559199 1.34439148 4.62929661 0 2 C0 1.34 0 0.68 0 0 Z " fill="#F2F2F2" transform="translate(789,255)"/>
<path d="M0 0 C0.185625 0.5775 0.37125 1.155 0.5625 1.75 C2.68127108 5.06633734 5.3106558 6.82824821 9 8 C12.41118354 8.03475733 15.64997145 7.62012601 19 7 C19 8.32 19 9.64 19 11 C12.527168 13.15761067 7.86800119 11.87647117 2 9 C1.34 8.67 0.68 8.34 0 8 C0 5.36 0 2.72 0 0 Z " fill="#1B1B1B" transform="translate(781,270)"/>
<path d="M0 0 C1.46373047 0.02707031 1.46373047 0.02707031 2.95703125 0.0546875 C3.69308594 0.07789063 4.42914062 0.10109375 5.1875 0.125 C5.1875 1.115 5.1875 2.105 5.1875 3.125 C4.12789062 3.30675781 3.06828125 3.48851562 1.9765625 3.67578125 C0.58842035 3.9290234 -0.79959412 4.18296617 -2.1875 4.4375 C-3.23550781 4.61442383 -3.23550781 4.61442383 -4.3046875 4.79492188 C-6.16105026 5.14298989 -7.99048054 5.62752727 -9.8125 6.125 C-10.8025 7.61 -10.8025 7.61 -11.8125 9.125 C-12.4725 8.795 -13.1325 8.465 -13.8125 8.125 C-13.23905063 5.25775314 -12.9510485 4.2635485 -10.8125 2.125 C-7.0831766 0.28288171 -4.13515316 -0.09964224 0 0 Z " fill="#252525" transform="translate(765.8125,191.875)"/>
<path d="M0 0 C0.99 0.33 1.98 0.66 3 1 C3.33 7.93 3.66 14.86 4 22 C3.34 22 2.68 22 2 22 C1.67 22.66 1.34 23.32 1 24 C-0.06309567 18.82682579 -0.11693938 13.87630664 -0.0625 8.625 C-0.05798828 7.79355469 -0.05347656 6.96210938 -0.04882812 6.10546875 C-0.03713164 4.07028103 -0.01919935 2.03513077 0 0 Z " fill="#2E2E2E" transform="translate(727,198)"/>
<path d="M0 0 C2.31 0 4.62 0 7 0 C6.67 1.98 6.34 3.96 6 6 C4.125 6.625 4.125 6.625 2 7 C0 5 0 5 -0.125 2.375 C-0.08375 1.59125 -0.0425 0.8075 0 0 Z " fill="#1D1D1D" transform="translate(779,237)"/>
<path d="M0 0 C0.33 0 0.66 0 1 0 C1.433125 1.3303125 1.433125 1.3303125 1.875 2.6875 C2.83148748 5.50382424 3.86798946 8.25083156 5 11 C4.34 11 3.68 11 3 11 C2.67 11.66 2.34 12.32 2 13 C-0.91360308 8.22169095 -1.19876651 5.44893869 0 0 Z " fill="#2F2F2F" transform="translate(771,243)"/>
<path d="M0 0 C1.98 0 3.96 0 6 0 C6 0.99 6 1.98 6 3 C4.02 3.33 2.04 3.66 0 4 C0 2.68 0 1.36 0 0 Z " fill="#1E1E1E" transform="translate(746,189)"/>
<path d="M0 0 C1.9375 0.375 1.9375 0.375 4 1 C4.33 1.66 4.66 2.32 5 3 C2.36 3.99 -0.28 4.98 -3 6 C-2 4 -1 2 0 0 Z " fill="#292929" transform="translate(741,175)"/>
<path d="M0 0 C-0.33 0.66 -0.66 1.32 -1 2 C-3.64860427 2.59355614 -6.29197322 2.74209269 -9 3 C-8.67 2.01 -8.34 1.02 -8 0 C-5.04215769 -1.22393475 -3.00272755 -0.96516243 0 0 Z " fill="#090909" transform="translate(753,174)"/>
<path d="M0 0 C0 1.32 0 2.64 0 4 C-2.97 3.505 -2.97 3.505 -6 3 C-6 2.34 -6 1.68 -6 1 C-4 0 -4 0 0 0 Z " fill="#282828" transform="translate(796,188)"/>
<path d="M0 0 C0.33 0.99 0.66 1.98 1 3 C1.99 3.33 2.98 3.66 4 4 C4 5.32 4 6.64 4 8 C2.68 7.67 1.36 7.34 0 7 C0 4.69 0 2.38 0 0 Z " fill="#333333" transform="translate(752,166)"/>
</svg>
