<?xml version="1.0" encoding="UTF-8"?>
<svg version="1.1" xmlns="http://www.w3.org/2000/svg" width="800" height="300">
<path d="M0 0 C264 0 528 0 800 0 C800 99 800 198 800 300 C536 300 272 300 0 300 C0 201 0 102 0 0 Z " fill="#FEFEFE" transform="translate(0,0)"/>
<path d="M0 0 C3.94278663 2.81627616 5.39908152 6.51742827 7 11 C7 12.32 7 13.64 7 15 C16.24 14.34 25.48 13.68 35 13 C35.66 9.7 36.32 6.4 37 3 C37.99 2.01 38.98 1.02 40 0 C43.30435606 0.23188464 46.02141281 0.51070641 49 2 C50.20303699 4.75990838 51.00139216 7.20368361 50.99609375 10.234375 C51.00819889 17.83640605 54.29212616 21.29212616 59.5546875 26.5546875 C62 29 62 29 63.6953125 31.3203125 C64.12585938 31.87460938 64.55640625 32.42890625 65 33 C65.66 33 66.32 33 67 33 C67.69552287 34.63447875 68.39089821 36.26902037 69.08569336 37.90380859 C69.67488904 39.25463213 70.28374712 40.59713156 70.91625977 41.92822266 C73.88511972 48.24542656 75.81468794 54.72557008 77.6875 61.4375 C78.2939936 63.58247843 78.90198896 65.72703299 79.51171875 67.87109375 C79.77428467 68.80880615 80.03685059 69.74651855 80.30737305 70.71264648 C80.92987234 73.00041577 80.92987234 73.00041577 82 75 C87.50287748 77.57120239 93.0233548 77.26868534 98.96240234 77.22705078 C100.05567841 77.22734283 101.14895447 77.22763489 102.27536011 77.22793579 C105.87896742 77.22654556 109.48236643 77.21099852 113.0859375 77.1953125 C115.58842862 77.19158129 118.0909212 77.18873483 120.59341431 77.18673706 C126.50063139 77.17988827 132.40778195 77.16413491 138.31496489 77.14403808 C145.70345292 77.11944978 153.09195026 77.10873951 160.48046875 77.09765625 C173.65368359 77.07622121 186.82683708 77.04248102 200 77 C199.98582031 76.05769531 199.97164062 75.11539063 199.95703125 74.14453125 C200.00014071 70.98970251 200.07458815 69.47552952 202 67 C204.375 66 204.375 66 207 66 C209.28967371 67.84445938 210.68681224 69.37362447 212 72 C211.91348369 73.54613014 211.75997364 75.08909387 211.5625 76.625 C211.46066406 77.44226563 211.35882813 78.25953125 211.25390625 79.1015625 C211.17011719 79.72804688 211.08632813 80.35453125 211 81 C212.093125 81.04125 213.18625 81.0825 214.3125 81.125 C218 82 218 82 219.9375 84.5 C221.19303314 88.63587387 222.17355085 92.75359888 221 97 C219.2421875 99.28515625 219.2421875 99.28515625 216 101 C211.8468643 101.37002059 207.77838349 101.09720774 203.625 100.8125 C202.51382813 100.75513672 201.40265625 100.69777344 200.2578125 100.63867188 C192.19937846 100.19257999 184.72578704 99.36503685 177 97 C177.02126462 100.40614946 177.02126462 100.40614946 178 104 C180.90074931 105.95098881 180.90074931 105.95098881 184 107 C184.33 107.33 184.66 107.66 185 108 C184.65652938 112.55098565 184.27051118 115.71517586 181 119 C175.34738797 120.04710867 169.2199433 119.4092046 164 117 C162 115 162 115 161.953125 113.125 C162.10007812 112.073125 162.10007812 112.073125 162.25 111 C162.33765625 110.29875 162.4253125 109.5975 162.515625 108.875 C163 107 163 107 165 105 C159.18690183 103.00943023 153.93514348 102.65222052 147.8125 102.6875 C146.88864502 102.68878906 145.96479004 102.69007813 145.01293945 102.69140625 C137.95919654 102.79029338 131.69664171 103.67073332 125 106 C124.13320533 110.01425401 123.7378485 113.92053014 123.4765625 118.01171875 C123 120 123 120 120 122 C114.01019307 122.79382983 109.18831313 122.27682935 104 119 C103.71472895 115.62112287 103.54981302 112.36826645 104 109 C106.43850852 106.81817659 107.7321149 106 111 106 C111.268125 105.278125 111.53625 104.55625 111.8125 103.8125 C112.990626 101.02220157 114.4188404 98.57750674 116 96 C101.57338295 95.87815357 87.16951597 96.00170668 72.75 96.4375 C72.05632324 96.45714813 71.36264648 96.47679626 70.64794922 96.49703979 C68.65578245 96.55449478 66.66382064 96.61892503 64.671875 96.68359375 C63.5281543 96.72025146 62.38443359 96.75690918 61.20605469 96.79467773 C58.07799906 96.99500478 55.07970328 97.42743135 52 98 C52.639375 98.5775 53.27875 99.155 53.9375 99.75 C55.98223868 101.98062401 56.58205199 103.07436391 57 106 C57.61875 106.061875 58.2375 106.12375 58.875 106.1875 C61 107 61 107 62.3125 109.0625 C63.22351087 112.955001 63.34202679 116.19626726 62 120 C58.8782586 123.04560137 56.28755102 124.23176339 52 124.4375 C48.11227537 124.2215153 45.27020251 123.18013501 42 121 C40.5625 119.1875 40.5625 119.1875 40 117 C40.375 114 40.375 114 41 111 C41 109.68 41 108.36 41 107 C28.51145167 101.55286722 11.88072983 103.38712848 -1.4375 104.875 C-2.16533691 104.95339111 -2.89317383 105.03178223 -3.64306641 105.11254883 C-7.76191511 105.5635469 -7.76191511 105.5635469 -11 108 C-11.06175637 110.77903643 -10.86652591 113.50075548 -10.6796875 116.2734375 C-11 119 -11 119 -12.6015625 121.31640625 C-15.71472011 123.50170092 -17.71903524 123.56683597 -21.5 123.5625 C-22.6240625 123.58441406 -23.748125 123.60632813 -24.90625 123.62890625 C-28 123 -28 123 -30.40625 120.7265625 C-32.02889252 117.95057114 -32.48063085 116.91857686 -32 113.8125 C-31 110 -31 110 -29 108.625 C-28.01 108.315625 -28.01 108.315625 -27 108 C-25.87171977 105.74343953 -25.87065521 104.31609559 -25.75 101.8125 C-25.25597588 96.63780667 -23.2802098 93.95307335 -20 90 C-20.66386719 89.53851563 -21.32773438 89.07703125 -22.01171875 88.6015625 C-31.71879673 81.43107862 -35.93813499 72.81919473 -38 61 C-38.29779842 56.97159961 -38.19270309 53.03155139 -38 49 C-37.99226562 47.92363281 -37.98453125 46.84726563 -37.9765625 45.73828125 C-37.72863417 37.68061066 -35.98760697 31.44466069 -31 25 C-28.68415343 23.01271748 -26.89588782 22.21932119 -24 21 C-22.205625 20.195625 -22.205625 20.195625 -20.375 19.375 C-14.75 17.08333333 -14.75 17.08333333 -12 16 C-12.061875 14.80375 -12.12375 13.6075 -12.1875 12.375 C-12.1875 8.24285472 -11.26421886 5.52211822 -9 2 C-5.50875983 -0.32749345 -4.10777749 -0.50299316 0 0 Z " fill="#F9F9F9" transform="translate(201,161)"/>
<path d="M0 0 C2.8125 -0.1875 2.8125 -0.1875 6 0 C7 1 8 2 9 3 C15.47083003 5.07525149 21.41141432 5.24994212 28.16796875 5.16015625 C29.2571611 5.15463745 30.34635345 5.14911865 31.46855164 5.14343262 C33.8178252 5.13109227 36.16707948 5.11448167 38.51629639 5.09402466 C44.77770738 5.04025787 51.03917966 5.01861565 57.30078125 5 C59.23244141 4.9937838 59.23244141 4.9937838 61.203125 4.98744202 C77.41229646 4.95866797 93.61370822 5.33435472 109.81713867 5.73266602 C110.89429642 5.75735962 111.97145416 5.78205322 113.08125305 5.80749512 C115.09527242 5.85391321 117.10919602 5.90477372 119.12297058 5.96081543 C120.44631157 5.99096741 120.44631157 5.99096741 121.79638672 6.02172852 C122.56457733 6.04171402 123.33276794 6.06169952 124.12423706 6.08229065 C126.0924287 6.12361173 126.0924287 6.12361173 128 5 C131.03566911 4.76089183 134.08095166 4.81479913 137.125 4.8125 C138.37023437 4.79413086 138.37023437 4.79413086 139.640625 4.77539062 C146.3283327 4.75966717 153.1906553 5.34226445 159 9 C159.42667969 9.46148437 159.85335937 9.92296875 160.29296875 10.3984375 C162.9975484 12.93591497 166.33120593 14.35011728 169.625 16.01171875 C174.01917804 19.69039741 174.99427916 24.83672162 175.6171875 30.3671875 C175.72209306 31.86858663 175.80765993 33.37144759 175.875 34.875 C175.91254395 35.66366455 175.95008789 36.4523291 175.98876953 37.26489258 C176.27663329 46.52514559 174.29214193 54.04285919 168 61 C162.69554711 66.38085279 158.19286413 67.70523678 150.71362305 67.88330078 C149.57062744 67.88056152 148.42763184 67.87782227 147.25 67.875 C146.0535083 67.8941748 144.8570166 67.91334961 143.62426758 67.93310547 C140.0824586 67.98283335 136.54211111 67.99384427 133 68 C131.18616451 68.02360067 129.37235524 68.04939485 127.55859375 68.078125 C114.02532285 68.24209193 100.1544274 68.25064747 86.72265625 66.47265625 C78.59603524 65.44083973 70.49840803 65.91088485 62.375 66.78125 C56.14473547 67.35509015 49.86288457 66.66520367 43.63769531 66.25537109 C41.63908688 66.12591247 39.63984991 66.00628024 37.640625 65.88671875 C36.36960937 65.80292969 35.09859375 65.71914063 33.7890625 65.6328125 C32.63100098 65.55949707 31.47293945 65.48618164 30.27978516 65.41064453 C26.94747647 64.99342381 24.14301003 64.16096136 21 63 C19.865625 62.62875 18.73125 62.2575 17.5625 61.875 C10.70420537 58.84035636 6.45523899 52.07424207 3.69140625 45.35546875 C2.95117812 42.83367463 2.71897532 40.55745849 2.5625 37.9375 C2.27383191 33.27551038 0.83709453 30.65071581 -1.7890625 26.86328125 C-4.96470506 21.97688932 -6.0453083 15.71367548 -5 10 C-3.57222581 6.52259876 -1.86966857 3.25856521 0 0 Z " fill="#646464" transform="translate(429,216)"/>
<path d="M0 0 C3.94278663 2.81627616 5.39908152 6.51742827 7 11 C7 12.32 7 13.64 7 15 C16.24 14.34 25.48 13.68 35 13 C35.66 9.7 36.32 6.4 37 3 C37.99 2.01 38.98 1.02 40 0 C43.30435606 0.23188464 46.02141281 0.51070641 49 2 C50.20303699 4.75990838 51.00139216 7.20368361 50.99609375 10.234375 C51.00819889 17.83640605 54.29212616 21.29212616 59.5546875 26.5546875 C62 29 62 29 63.6953125 31.3203125 C64.12585938 31.87460938 64.55640625 32.42890625 65 33 C65.66 33 66.32 33 67 33 C67.69552287 34.63447875 68.39089821 36.26902037 69.08569336 37.90380859 C69.67488904 39.25463213 70.28374712 40.59713156 70.91625977 41.92822266 C73.88511972 48.24542656 75.81468794 54.72557008 77.6875 61.4375 C78.2939936 63.58247843 78.90198896 65.72703299 79.51171875 67.87109375 C79.77428467 68.80880615 80.03685059 69.74651855 80.30737305 70.71264648 C80.92987234 73.00041577 80.92987234 73.00041577 82 75 C87.50287748 77.57120239 93.0233548 77.26868534 98.96240234 77.22705078 C100.05567841 77.22734283 101.14895447 77.22763489 102.27536011 77.22793579 C105.87896742 77.22654556 109.48236643 77.21099852 113.0859375 77.1953125 C115.58842862 77.19158129 118.0909212 77.18873483 120.59341431 77.18673706 C126.50063139 77.17988827 132.40778195 77.16413491 138.31496489 77.14403808 C145.70345292 77.11944978 153.09195026 77.10873951 160.48046875 77.09765625 C173.65368359 77.07622121 186.82683708 77.04248102 200 77 C199.98582031 76.05769531 199.97164062 75.11539063 199.95703125 74.14453125 C200.00014071 70.98970251 200.07458815 69.47552952 202 67 C204.375 66 204.375 66 207 66 C209.28967371 67.84445938 210.68681224 69.37362447 212 72 C211.91348369 73.54613014 211.75997364 75.08909387 211.5625 76.625 C211.46066406 77.44226563 211.35882813 78.25953125 211.25390625 79.1015625 C211.17011719 79.72804688 211.08632813 80.35453125 211 81 C212.093125 81.04125 213.18625 81.0825 214.3125 81.125 C218 82 218 82 219.9375 84.5 C221.19303314 88.63587387 222.17355085 92.75359888 221 97 C219.2421875 99.28515625 219.2421875 99.28515625 216 101 C211.8468643 101.37002059 207.77838349 101.09720774 203.625 100.8125 C202.51382813 100.75513672 201.40265625 100.69777344 200.2578125 100.63867188 C192.19937846 100.19257999 184.72578704 99.36503685 177 97 C177.02126462 100.40614946 177.02126462 100.40614946 178 104 C180.90074931 105.95098881 180.90074931 105.95098881 184 107 C184.33 107.33 184.66 107.66 185 108 C184.65652938 112.55098565 184.27051118 115.71517586 181 119 C175.34738797 120.04710867 169.2199433 119.4092046 164 117 C162 115 162 115 161.953125 113.125 C162.10007812 112.073125 162.10007812 112.073125 162.25 111 C162.33765625 110.29875 162.4253125 109.5975 162.515625 108.875 C163 107 163 107 165 105 C159.18690183 103.00943023 153.93514348 102.65222052 147.8125 102.6875 C146.88864502 102.68878906 145.96479004 102.69007813 145.01293945 102.69140625 C137.95919654 102.79029338 131.69664171 103.67073332 125 106 C124.13320533 110.01425401 123.7378485 113.92053014 123.4765625 118.01171875 C123 120 123 120 120 122 C114.01019307 122.79382983 109.18831313 122.27682935 104 119 C103.71472895 115.62112287 103.54981302 112.36826645 104 109 C106.43850852 106.81817659 107.7321149 106 111 106 C111.268125 105.278125 111.53625 104.55625 111.8125 103.8125 C112.990626 101.02220157 114.4188404 98.57750674 116 96 C101.57338295 95.87815357 87.16951597 96.00170668 72.75 96.4375 C72.05632324 96.45714813 71.36264648 96.47679626 70.64794922 96.49703979 C68.65578245 96.55449478 66.66382064 96.61892503 64.671875 96.68359375 C63.5281543 96.72025146 62.38443359 96.75690918 61.20605469 96.79467773 C58.07799906 96.99500478 55.07970328 97.42743135 52 98 C52.639375 98.5775 53.27875 99.155 53.9375 99.75 C55.98223868 101.98062401 56.58205199 103.07436391 57 106 C57.61875 106.061875 58.2375 106.12375 58.875 106.1875 C61 107 61 107 62.3125 109.0625 C63.22351087 112.955001 63.34202679 116.19626726 62 120 C58.8782586 123.04560137 56.28755102 124.23176339 52 124.4375 C48.11227537 124.2215153 45.27020251 123.18013501 42 121 C40.5625 119.1875 40.5625 119.1875 40 117 C40.375 114 40.375 114 41 111 C41 109.68 41 108.36 41 107 C28.51145167 101.55286722 11.88072983 103.38712848 -1.4375 104.875 C-2.16533691 104.95339111 -2.89317383 105.03178223 -3.64306641 105.11254883 C-7.76191511 105.5635469 -7.76191511 105.5635469 -11 108 C-11.06175637 110.77903643 -10.86652591 113.50075548 -10.6796875 116.2734375 C-11 119 -11 119 -12.6015625 121.31640625 C-15.71472011 123.50170092 -17.71903524 123.56683597 -21.5 123.5625 C-22.6240625 123.58441406 -23.748125 123.60632813 -24.90625 123.62890625 C-28 123 -28 123 -30.40625 120.7265625 C-32.02889252 117.95057114 -32.48063085 116.91857686 -32 113.8125 C-31 110 -31 110 -29 108.625 C-28.01 108.315625 -28.01 108.315625 -27 108 C-25.87171977 105.74343953 -25.87065521 104.31609559 -25.75 101.8125 C-25.25597588 96.63780667 -23.2802098 93.95307335 -20 90 C-20.66386719 89.53851563 -21.32773438 89.07703125 -22.01171875 88.6015625 C-31.71879673 81.43107862 -35.93813499 72.81919473 -38 61 C-38.29779842 56.97159961 -38.19270309 53.03155139 -38 49 C-37.99226562 47.92363281 -37.98453125 46.84726563 -37.9765625 45.73828125 C-37.72863417 37.68061066 -35.98760697 31.44466069 -31 25 C-28.68415343 23.01271748 -26.89588782 22.21932119 -24 21 C-22.205625 20.195625 -22.205625 20.195625 -20.375 19.375 C-14.75 17.08333333 -14.75 17.08333333 -12 16 C-12.061875 14.80375 -12.12375 13.6075 -12.1875 12.375 C-12.1875 8.24285472 -11.26421886 5.52211822 -9 2 C-5.50875983 -0.32749345 -4.10777749 -0.50299316 0 0 Z M-7.75 4.3125 C-9.8200064 7.10700864 -10.13775184 9.63351492 -10.125 13 C-10.12757813 13.680625 -10.13015625 14.36125 -10.1328125 15.0625 C-10.06631126 17.21874781 -10.06631126 17.21874781 -9 20 C-9.70125 19.7525 -10.4025 19.505 -11.125 19.25 C-15.18514017 18.89694433 -16.74055101 20.65319672 -20 23 C-21.175625 23.474375 -22.35125 23.94875 -23.5625 24.4375 C-29.05755304 26.93525138 -32.06442024 30.25617051 -34.36230469 35.82861328 C-35.65268057 40.22241231 -35.62452214 44.76243394 -35.75 49.3125 C-35.79253906 50.31345703 -35.83507812 51.31441406 -35.87890625 52.34570312 C-36.28377904 57.33136338 -36.28377904 57.33136338 -35 62 C-34.34 62 -33.68 62 -33 62 C-33.061875 63.175625 -33.12375 64.35125 -33.1875 65.5625 C-33.16518445 71.88895975 -30.70718113 76.81141669 -26.51171875 81.5234375 C-21.08600208 86.82297471 -15.06342106 90.8007687 -7.625 92.5625 C-6.820625 92.7790625 -6.820625 92.7790625 -6 93 C-5.505 93.99 -5.505 93.99 -5 95 C-5.73605469 94.82082031 -6.47210938 94.64164062 -7.23046875 94.45703125 C-13.18456519 93.04886037 -13.18456519 93.04886037 -19.0625 94.0625 C-21.87503379 96.87503379 -22.69827472 99.3729394 -23.41796875 103.25390625 C-23.56878906 104.05699219 -23.71960938 104.86007812 -23.875 105.6875 C-23.99617187 106.45449219 -24.11734375 107.22148437 -24.2421875 108.01171875 C-25 110 -25 110 -27.01171875 111.15234375 C-27.66785156 111.43207031 -28.32398438 111.71179688 -29 112 C-30.08568503 113.84267868 -30.08568503 113.84267868 -30 116 C-28.96649836 118.2299852 -28.96649836 118.2299852 -27 120 C-24.03164137 120.48407934 -24.03164137 120.48407934 -20.8125 120.25 C-19.72582031 120.21390625 -18.63914063 120.1778125 -17.51953125 120.140625 C-16.68808594 120.09421875 -15.85664063 120.0478125 -15 120 C-13.85279125 117.6534285 -13.85279125 117.6534285 -13 115 C-14.26333273 112.19832713 -14.26333273 112.19832713 -16 110 C-15.34 110 -14.68 110 -14 110 C-13.566875 108.824375 -13.566875 108.824375 -13.125 107.625 C-12 105 -12 105 -10 103 C-7.41576402 102.51713238 -4.92006234 102.15239418 -2.3125 101.875 C-1.16672485 101.7497998 -1.16672485 101.7497998 0.00219727 101.62207031 C10.56956296 100.54946354 20.99416767 100.75439935 31.5625 101.6875 C32.31265381 101.74067383 33.06280762 101.79384766 33.83569336 101.84863281 C39.36082091 102.42348 42.11376489 104.00598025 46 108 C46.33 108.99 46.66 109.98 47 111 C45.02 111.99 45.02 111.99 43 113 C42.58219121 115.37305578 42.58219121 115.37305578 43 118 C45.82659106 120.48397396 47.75754118 120.97402227 51.5 121.375 C55.26857562 120.97122404 57.19152574 120.55315842 60 118 C60.38692581 114.84010585 60.43060128 112.86120256 59 110 C57.515 109.505 57.515 109.505 56 109 C55.5875 107.9275 55.175 106.855 54.75 105.75 C53.06571564 101.38166891 50.08754285 99.13734168 46 97 C45.34 97 44.68 97 44 97 C44 96.01 44 95.02 44 94 C45.25768944 94.00700172 45.25768944 94.00700172 46.54078674 94.0141449 C55.31589052 94.04148002 64.06882907 93.87580172 72.83984375 93.59765625 C74.21879233 93.55509944 75.59774444 93.51265718 76.97669983 93.47032166 C79.84315628 93.38180236 82.70955704 93.29169208 85.57592773 93.20043945 C89.20375708 93.08510413 92.83170482 92.97414062 96.45970821 92.86443424 C99.3006444 92.77796682 102.14149673 92.68895044 104.98233223 92.59924126 C106.95545529 92.53740904 108.92864692 92.47777698 110.90184021 92.41822815 C119.61959952 92.13611347 128.30161336 91.63128983 137 91 C137 91.66 137 92.32 137 93 C135.97519531 93.01417969 134.95039063 93.02835937 133.89453125 93.04296875 C132.53381029 93.08989016 131.17313459 93.13813744 129.8125 93.1875 C128.80219727 93.19620117 128.80219727 93.19620117 127.77148438 93.20507812 C123.90543621 93.37480707 122.14705929 93.87951528 119.125 96.35546875 C116.16418832 100.04015534 114 103.19284682 114 108 C112.865625 108.309375 111.73125 108.61875 110.5625 108.9375 C107.21224901 109.62924531 107.21224901 109.62924531 106 111 C105.95919217 112.99958364 105.95745644 115.00045254 106 117 C110.64849515 119.3992233 114.91086074 119.19957409 120 119 C121.82660197 114.87851657 121.82660197 114.87851657 121.125 110.625 C120.75375 110.08875 120.3825 109.5525 120 109 C121.12524797 106.18688008 121.74945634 104.956778 124 103 C136.84215633 98.26228557 152.84220888 98.64323746 166 102 C167.89453125 103.57421875 167.89453125 103.57421875 169 105 C168.67 105.99 168.34 106.98 168 108 C167.01 108.33 166.02 108.66 165 109 C164.26676204 111.01508358 164.26676204 111.01508358 164 113 C169.13936453 116.19474011 172.85168052 117.64719152 179 117 C181.47208796 114.64167228 181.47208796 114.64167228 183 112 C181.77992056 109.3094472 181.77992056 109.3094472 180 107 C178.33382885 106.95936168 176.66611905 106.957279 175 107 C175.1546875 105.14375 175.1546875 105.14375 175.3125 103.25 C175.3314217 99.68641292 175.26246095 99.26936782 172.625 96.5625 C168.69545194 94.2234833 166.59100991 93.90019544 162 94 C162 93.34 162 92.68 162 92 C168.48258374 92.23360662 174.32733096 92.93995568 180.5 95 C191.14799655 98.49446736 201.88974183 98.14791764 213 98 C213 96.68 213 95.36 213 94 C210.525 94.99 210.525 94.99 208 96 C208.185625 95.071875 208.37125 94.14375 208.5625 93.1875 C209.24123881 89.98656229 209.24123881 89.98656229 208 87 C208.99 87.66 209.98 88.32 211 89 C213.64632287 88.6878236 213.64632287 88.6878236 216 88 C215.34 89.65 214.68 91.3 214 93 C214.99 93.99 215.98 94.98 217 96 C217.66 95.67 218.32 95.34 219 95 C219.23168419 91.67919334 219.12057918 89.31918019 217.9375 86.1875 C216.05835439 83.63369197 216.05835439 83.63369197 212.3125 83.1875 C211.219375 83.125625 210.12625 83.06375 209 83 C209.09539062 82.31292969 209.19078125 81.62585938 209.2890625 80.91796875 C209.39992188 80.01691406 209.51078125 79.11585938 209.625 78.1875 C209.74101562 77.29417969 209.85703125 76.40085937 209.9765625 75.48046875 C210.23500743 72.74309609 210.23500743 72.74309609 208 70 C205.41619823 69.74969023 205.41619823 69.74969023 203 70 C201.5216774 72.95664519 201.93967217 75.74229737 202 79 C200.98687744 78.99476318 199.97375488 78.98952637 198.92993164 78.98413086 C195.13355408 78.96588766 191.33718031 78.95449809 187.54077148 78.94506836 C185.90469712 78.94007197 184.26862715 78.93327261 182.63256836 78.92456055 C180.26675323 78.91228747 177.90099766 78.90672462 175.53515625 78.90234375 C174.45646019 78.89460182 174.45646019 78.89460182 173.35597229 78.88670349 C169.84342082 78.88632451 166.53539448 79.05811864 163.03808594 79.49560547 C155.68811628 80.3805617 148.24773321 80.16459139 140.85546875 80.16796875 C139.19639559 80.17118671 137.53732271 80.17455119 135.87825012 80.17805481 C132.41793153 80.18401377 128.95763781 80.18589775 125.49731445 80.18530273 C121.06433533 80.18520061 116.63151456 80.19891919 112.19857311 80.21607494 C108.77994552 80.22718409 105.36135658 80.22922238 101.94271278 80.22869301 C100.30764527 80.2298722 98.67257673 80.23429058 97.03752708 80.24202538 C94.75691852 80.25181529 92.47665902 80.2489527 90.19604492 80.24291992 C88.89970627 80.24434494 87.60336761 80.24576996 86.26774597 80.24723816 C83.21122592 80.01598139 81.46233059 79.79230127 79 78 C78.34301758 75.22436523 78.34301758 75.22436523 78 72 C76.9988694 67.99159588 75.83547259 64.03106772 74.6875 60.0625 C74.39166016 59.00353516 74.09582031 57.94457031 73.79101562 56.85351562 C70.12729697 44.16897782 61.74044054 30.06977358 51.32421875 21.64453125 C48.63122274 18.30013207 49.03883003 13.38830029 48.625 9.25 C48.24707932 6.05495907 48.24707932 6.05495907 46.59765625 4.0546875 C44.96183775 2.74888265 44.96183775 2.74888265 42.4375 3.125 C39.6738389 3.84389168 39.6738389 3.84389168 38 7 C37.67 9.64 37.34 12.28 37 15 C26.44 15.99 15.88 16.98 5 18 C5 16.35 5 14.7 5 13 C4.49220692 10.83219201 4.49220692 10.83219201 3.6875 8.8125 C3.44386719 8.13832031 3.20023438 7.46414062 2.94921875 6.76953125 C1.9944045 4.65609706 1.9944045 4.65609706 -1 3 C-3.9174277 2.63532154 -5.36565787 2.52424341 -7.75 4.3125 Z " fill="#0D0D0D" transform="translate(201,161)"/>
<path d="M0 0 C2.8125 -0.1875 2.8125 -0.1875 6 0 C7 1 8 2 9 3 C15.47083003 5.07525149 21.41141432 5.24994212 28.16796875 5.16015625 C29.2571611 5.15463745 30.34635345 5.14911865 31.46855164 5.14343262 C33.8178252 5.13109227 36.16707948 5.11448167 38.51629639 5.09402466 C44.77770738 5.04025787 51.03917966 5.01861565 57.30078125 5 C59.23244141 4.9937838 59.23244141 4.9937838 61.203125 4.98744202 C77.41229646 4.95866797 93.61370822 5.33435472 109.81713867 5.73266602 C110.89429642 5.75735962 111.97145416 5.78205322 113.08125305 5.80749512 C115.09527242 5.85391321 117.10919602 5.90477372 119.12297058 5.96081543 C120.44631157 5.99096741 120.44631157 5.99096741 121.79638672 6.02172852 C122.56457733 6.04171402 123.33276794 6.06169952 124.12423706 6.08229065 C126.0924287 6.12361173 126.0924287 6.12361173 128 5 C131.03566911 4.76089183 134.08095166 4.81479913 137.125 4.8125 C138.37023437 4.79413086 138.37023437 4.79413086 139.640625 4.77539062 C146.3283327 4.75966717 153.1906553 5.34226445 159 9 C159.42667969 9.46148437 159.85335937 9.92296875 160.29296875 10.3984375 C162.9975484 12.93591497 166.33120593 14.35011728 169.625 16.01171875 C174.01917804 19.69039741 174.99427916 24.83672162 175.6171875 30.3671875 C175.72209306 31.86858663 175.80765993 33.37144759 175.875 34.875 C175.91254395 35.66366455 175.95008789 36.4523291 175.98876953 37.26489258 C176.27663329 46.52514559 174.29214193 54.04285919 168 61 C162.69554711 66.38085279 158.19286413 67.70523678 150.71362305 67.88330078 C149.57062744 67.88056152 148.42763184 67.87782227 147.25 67.875 C146.0535083 67.8941748 144.8570166 67.91334961 143.62426758 67.93310547 C140.0824586 67.98283335 136.54211111 67.99384427 133 68 C131.18616451 68.02360067 129.37235524 68.04939485 127.55859375 68.078125 C114.02532285 68.24209193 100.1544274 68.25064747 86.72265625 66.47265625 C78.59603524 65.44083973 70.49840803 65.91088485 62.375 66.78125 C56.14473547 67.35509015 49.86288457 66.66520367 43.63769531 66.25537109 C41.63908688 66.12591247 39.63984991 66.00628024 37.640625 65.88671875 C36.36960937 65.80292969 35.09859375 65.71914063 33.7890625 65.6328125 C32.63100098 65.55949707 31.47293945 65.48618164 30.27978516 65.41064453 C26.94747647 64.99342381 24.14301003 64.16096136 21 63 C19.865625 62.62875 18.73125 62.2575 17.5625 61.875 C10.70420537 58.84035636 6.45523899 52.07424207 3.69140625 45.35546875 C2.95117812 42.83367463 2.71897532 40.55745849 2.5625 37.9375 C2.27383191 33.27551038 0.83709453 30.65071581 -1.7890625 26.86328125 C-4.96470506 21.97688932 -6.0453083 15.71367548 -5 10 C-3.57222581 6.52259876 -1.86966857 3.25856521 0 0 Z M2 3 C-1.20056327 7.39571031 -3.17210159 11.0337393 -2.6875 16.5703125 C-0.75050496 24.17301803 1.40130732 28.68547017 8 33 C8.309375 32.05125 8.61875 31.1025 8.9375 30.125 C10 27 10 27 11 25 C10.67 24.34 10.34 23.68 10 23 C12.31 23.33 14.62 23.66 17 24 C17 24.66 17 25.32 17 26 C16.401875 26.185625 15.80375 26.37125 15.1875 26.5625 C11.99950687 28.65746692 11.45644444 31.54094446 10 35 C7.8125 36.9375 7.8125 36.9375 6 38 C6.43386428 44.79720708 8.71901136 50.62717707 13.53515625 55.578125 C25.47522139 64.94952365 42.73368679 63.15052382 57 63 C56.98710937 61.8965625 56.97421875 60.793125 56.9609375 59.65625 C57 56 57 56 57.625 53.5 C58.20619921 50.81449175 58.20619921 50.81449175 57 47.5625 C55.9369034 43.77521835 56.32627014 41.78973046 57 38 C56.17657468 35.68019054 56.17657468 35.68019054 55 34 C57.92512762 36.43505389 57.92512762 36.43505389 58.2578125 38.9453125 C58.21398437 39.66460937 58.17015625 40.38390625 58.125 41.125 C57.96429211 45.84675096 58.3919686 50.32341282 59 55 C59.17893286 56.42571265 59.3572786 57.85149906 59.53515625 59.27734375 C59.68855469 60.50582031 59.84195313 61.73429687 60 63 C61.31613281 62.90460938 62.63226563 62.80921875 63.98828125 62.7109375 C80.13303317 61.64939006 80.13303317 61.64939006 87.84765625 63.453125 C102.6439952 66.02002395 120.17962869 66.37125941 135 64 C137.44251927 57.47348346 138.25867587 53.77602761 136 47 C136.9375 44.1875 136.9375 44.1875 138 42 C137.67 41.34 137.34 40.68 137 40 C136.01 40 135.02 40 134 40 C134 39.01 134 38.02 134 37 C135.9375 37.625 135.9375 37.625 138 39 C139.0723094 42.79432556 138.93231135 45.27075458 138 49 C138.165 49.886875 138.33 50.77375 138.5 51.6875 C139.14190299 55.94010731 138.61116813 59.76883603 138 64 C142.67661056 64.08468711 147.17531996 64.1216741 151.8125 63.4375 C155 63 155 63 157.5 63.8125 C160.60164164 64.04512312 161.18668047 63.41175287 163.5625 61.5 C166.91032743 58.34098713 169.11705826 55.18047615 171 51 C171.32226562 50.35546875 171.64453125 49.7109375 171.9765625 49.046875 C175.54148085 40.6770667 173.41424912 31.35760137 170.5625 23 C167.88947491 17.47850029 162.37709586 15.36406801 157 13 C155.91599105 18.7175801 155.91599105 18.7175801 157.25 24.25 C158.42159507 30.10797537 155.88541581 34.90217422 153 40 C152.01 40.66 151.02 41.32 150 42 C150.52851562 41.04738281 151.05703125 40.09476562 151.6015625 39.11328125 C152.27698801 37.84685843 152.95141527 36.57990285 153.625 35.3125 C153.975625 34.68666016 154.32625 34.06082031 154.6875 33.41601562 C156.32195389 30.29420869 157.16831634 28.6373228 156.25 25.16015625 C155.63125 24.09087891 155.63125 24.09087891 155 23 C154.07556986 20.22670957 154.0267192 18.50124151 154.1875 15.5 C154.2816013 12.06955642 154.2816013 12.06955642 152.65625 9.80078125 C148.45579586 6.95312043 144.2592073 7.53860246 139.3125 7.6875 C138.33732422 7.69716797 137.36214844 7.70683594 136.35742188 7.71679688 C131.83867632 7.38617701 131.83867632 7.38617701 128 9 C125.98035801 9.07244053 123.95832876 9.08377188 121.9375 9.0625 C120.83277344 9.05347656 119.72804688 9.04445312 118.58984375 9.03515625 C117.73519531 9.02355469 116.88054687 9.01195312 116 9 C116.01160156 9.61746094 116.02320313 10.23492187 116.03515625 10.87109375 C116.08894661 15.91970297 115.92444046 20.82368002 115.27734375 25.83203125 C115.0915947 27.28401325 114.9381839 28.74047797 114.81640625 30.19921875 C114.44335142 34.31804865 113.90156943 36.97227538 111 40 C111 37.59411466 111.70979414 35.99839035 112.5625 33.75 C113.96505902 29.6916695 113.84584573 27.22922865 113 23 C113.350625 22.01 113.70125 21.02 114.0625 20 C115.41997215 15.65608912 113.96348052 12.92696104 112 9 C104.74 9 97.48 9 90 9 C88.53691078 15.88512576 87.86947155 21.09121505 89 28 C88.67 28.66 88.34 29.32 88 30 C87.34 29.67 86.68 29.34 86 29 C86.495 28.505 86.495 28.505 87 28 C87.13961241 24.92852697 87.04131994 22.20659968 86.4375 19.1875 C86.293125 18.465625 86.14875 17.74375 86 17 C86.33 16.67 86.66 16.34 87 16 C87.04063832 14.33382885 87.042721 12.66611905 87 11 C86.34 11 85.68 11 85 11 C84.505 9.515 84.505 9.515 84 8 C78.21590487 7.97529951 72.43184038 7.95713977 66.64770508 7.94506836 C64.67960068 7.9400365 62.71150003 7.93321042 60.7434082 7.92456055 C57.91616899 7.91244483 55.08897916 7.90676024 52.26171875 7.90234375 C50.93970711 7.89460182 50.93970711 7.89460182 49.59098816 7.88670349 C48.3600518 7.88659019 48.3600518 7.88659019 47.10424805 7.88647461 C46.38254929 7.884254 45.66085052 7.88203339 44.9172821 7.87974548 C42.77773199 7.93174401 42.77773199 7.93174401 40 9 C39.19078631 11.69737896 38.54117383 14.25209793 38 17 C37.7215625 18.2065625 37.7215625 18.2065625 37.4375 19.4375 C36.97731213 21.91344677 36.97731213 21.91344677 36.82421875 24.09375 C36.40332248 29.04547086 35.57856056 32.62765819 33 37 C32.01 37 31.02 37 30 37 C30.639375 36.29875 31.27875 35.5975 31.9375 34.875 C34.20191565 31.71854182 34.59487586 29.80816696 35 26 C35.20625 25.319375 35.4125 24.63875 35.625 23.9375 C36.15393796 21.88232882 36.15393796 21.88232882 35.4375 19.375 C35.293125 18.59125 35.14875 17.8075 35 17 C35.66 16.34 36.32 15.68 37 15 C36.67801034 11.90073181 36.67801034 11.90073181 36 9 C34.51113281 8.94392578 34.51113281 8.94392578 32.9921875 8.88671875 C10.69180146 7.87331587 10.69180146 7.87331587 2 3 Z " fill="#101010" transform="translate(429,216)"/>
<path d="M0 0 C0.68964844 -0.02900391 1.37929687 -0.05800781 2.08984375 -0.08789062 C5.85182763 -0.13464568 7.71361418 0.20357511 10.8671875 2.33203125 C11.86105469 3.31236328 11.86105469 3.31236328 12.875 4.3125 C12.30155063 7.17974686 12.0135485 8.1739515 9.875 10.3125 C6.81524161 10.8122393 3.72095915 10.72917516 0.625 10.75 C-0.64537109 10.79930664 -0.64537109 10.79930664 -1.94140625 10.84960938 C-6.22991548 10.8862918 -9.25861206 10.69915905 -12.734375 8.03515625 C-15.125 5.3125 -15.125 5.3125 -15.125 1.3125 C-10.06040844 0.49925619 -5.12772998 0.07269939 0 0 Z " fill="#0F0F0F" transform="translate(209.125,232.6875)"/>
<path d="M0 0 C0.33 0.99 0.66 1.98 1 3 C1.66 3 2.32 3 3 3 C3.21914063 3.95261719 3.43828125 4.90523437 3.6640625 5.88671875 C5.38891549 13.98459627 5.38891549 13.98459627 10.25 20.375 C11.1575 20.91125 12.065 21.4475 13 22 C13.144375 21.2575 13.28875 20.515 13.4375 19.75 C13.90187492 17.47972261 14.41863569 15.24240521 15 13 C17.31 13.33 19.62 13.66 22 14 C22 14.66 22 15.32 22 16 C21.38125 16.4125 20.7625 16.825 20.125 17.25 C17.36840385 19.52013801 17.04983163 21.64053879 16 25 C14.5 26.875 14.5 26.875 13 28 C12.34 28 11.68 28 11 28 C10.01 30.475 10.01 30.475 9 33 C8.67 33 8.34 33 8 33 C7.98582031 32.3709375 7.97164063 31.741875 7.95703125 31.09375 C7.63073728 25.23809599 6.53814961 21.66177502 3.2109375 16.86328125 C-0.21664757 11.58922294 -0.21195647 6.04075942 0 0 Z " fill="#131313" transform="translate(424,226)"/>
<path d="M0 0 C0 0.99 0 1.98 0 3 C-1.2375 3.04125 -2.475 3.0825 -3.75 3.125 C-7.35813406 3.57841154 -7.83884221 3.82231321 -10.4375 6.6875 C-12.47816407 11.01370783 -13.52944953 14.05868507 -12.25 18.75 C-11.06510167 21.28734531 -11.06510167 21.28734531 -8 23 C-5.03157342 23.45915507 -5.03157342 23.45915507 -1.8125 23.625 C-0.18248047 23.73714844 -0.18248047 23.73714844 1.48046875 23.8515625 C2.72763672 23.92503906 2.72763672 23.92503906 4 24 C4 24.99 4 25.98 4 27 C1.93816367 27.08150744 -0.12461349 27.1394194 -2.1875 27.1875 C-3.91033203 27.23970703 -3.91033203 27.23970703 -5.66796875 27.29296875 C-9.31769959 26.97206627 -11.10979514 26.20554512 -14 24 C-16.73741042 18.8984624 -16.36818393 13.4900545 -15 8 C-11.12747737 0.49867994 -7.84839509 -0.12658702 0 0 Z " fill="#090909" transform="translate(207,200)"/>
<path d="M0 0 C0.33 0 0.66 0 1 0 C1.50588674 8.09418785 -0.88682972 14.6430856 -6 21 C-9.37910814 24.64092766 -12.09547378 26.90897485 -17.1875 27.15234375 C-20.16546891 26.90300909 -23.06154998 26.53871584 -26 26 C-25 24 -25 24 -22.25 22.8125 C-19 22 -19 22 -16.5 22.6875 C-13.74666541 23.30521575 -13.74666541 23.30521575 -10.9375 21 C-5.5370475 15.94573035 -3.49663324 10.00430842 -1.61328125 3.0390625 C-1 1 -1 1 0 0 Z " fill="#060606" transform="translate(603,256)"/>
<path d="M0 0 C2.77109307 -0.05392397 5.54113818 -0.09363455 8.3125 -0.125 C9.09818359 -0.14175781 9.88386719 -0.15851563 10.69335938 -0.17578125 C11.45068359 -0.18222656 12.20800781 -0.18867188 12.98828125 -0.1953125 C13.68477783 -0.20578613 14.38127441 -0.21625977 15.09887695 -0.22705078 C17 0 17 0 20 2 C20 2.66 20 3.32 20 4 C17.31767173 5.34116414 15.18167741 5.16904021 12.1875 5.1875 C11.14980469 5.20167969 10.11210937 5.21585938 9.04296875 5.23046875 C5.90883734 4.99309551 3.7612832 4.49218356 1 3 C0.67 2.01 0.34 1.02 0 0 Z " fill="#DEDEDE" transform="translate(198,236)"/>
<path d="M0 0 C0.66 0.66 1.32 1.32 2 2 C1.67 2.680625 1.34 3.36125 1 4.0625 C-0.18453566 6.99578446 -0.18453566 6.99578446 0.0625 10.25 C-0.02360065 15.41603921 -1.03554646 20.83957907 -4.60546875 24.765625 C-5.06566406 25.17296875 -5.52585937 25.5803125 -6 26 C-6.99 25.67 -7.98 25.34 -9 25 C-8.360625 24.13375 -7.72125 23.2675 -7.0625 22.375 C-4.99019986 18.98396341 -4.42247465 16.88676677 -4 13 C-3.79375 12.319375 -3.5875 11.63875 -3.375 10.9375 C-2.83067246 8.89287506 -2.83067246 8.89287506 -3.6875 6.5 C-3.790625 5.675 -3.89375 4.85 -4 4 C-2.0625 1.6875 -2.0625 1.6875 0 0 Z " fill="#000000" transform="translate(467,229)"/>
<path d="M0 0 C2.60427663 2.60427663 2.50528695 4.39566205 3 8 C3.32871094 9.1446875 3.32871094 9.1446875 3.6640625 10.3125 C4.10572171 13.84577369 3.19396203 15.92627731 1.8125 19.1875 C1.38582031 20.23292969 0.95914063 21.27835938 0.51953125 22.35546875 C-1.09002716 25.15667966 -2.00308155 25.95396637 -5 27 C-4.00734643 24.46170776 -2.98445893 21.96695587 -1.82421875 19.5 C-0.69196301 17.00981554 0.30720879 14.64839171 1 12 C-0.20968895 9.2332494 -0.20968895 9.2332494 -2 7 C-1.58333333 1.58333333 -1.58333333 1.58333333 0 0 Z " fill="#000000" transform="translate(584,231)"/>
<path d="M0 0 C2 2 2 2 2.01171875 4.3203125 C1.90472656 5.24585938 1.79773438 6.17140625 1.6875 7.125 C1.51927734 8.60226563 1.51927734 8.60226563 1.34765625 10.109375 C1.23292969 11.06328125 1.11820313 12.0171875 1 13 C0.93683594 13.76828125 0.87367188 14.5365625 0.80859375 15.328125 C0.42512106 19.6034375 -0.49052942 22.50856266 -3 26 C-3.99 25.34 -4.98 24.68 -6 24 C-5.34 23.34 -4.68 22.68 -4 22 C-3.27982196 19.71171706 -3.27982196 19.71171706 -2.8125 17.125 C-2.63332031 16.26132813 -2.45414063 15.39765625 -2.26953125 14.5078125 C-1.85548873 12.05460461 -1.85548873 12.05460461 -2.5390625 9.9453125 C-3.13919757 7.41253908 -2.55294951 6.12707883 -1.5625 3.75 C-1.27503906 3.04359375 -0.98757813 2.3371875 -0.69140625 1.609375 C-0.34916016 0.81273437 -0.34916016 0.81273437 0 0 Z " fill="#000000" transform="translate(544,231)"/>
<path d="M0 0 C1.875 0.1875 1.875 0.1875 4 1 C6.38879811 4.98133018 5.79447983 7.58622317 5 12 C5.2644354 14.34214207 5.58244638 16.68025766 6 19 C5.01 18.67 4.02 18.34 3 18 C0.62790698 11.22259136 0.62790698 11.22259136 1.875 7.125 C2.24625 6.42375 2.6175 5.7225 3 5 C3 4.34 3 3.68 3 3 C2.01 3 1.02 3 0 3 C0 2.01 0 1.02 0 0 Z " fill="#000000" transform="translate(563,253)"/>
<path d="M0 0 C0.99 0.33 1.98 0.66 3 1 C4.00344253 7.30735307 4.50873071 13.63440427 5 20 C4.01 19.67 3.02 19.34 2 19 C-0.08254633 13.95301272 -0.10550722 9.28186783 1 4 C0.6422386 1.72349255 0.6422386 1.72349255 0 0 Z " fill="#000000" transform="translate(484,250)"/>
<path d="M0 0 C0.66 0.33 1.32 0.66 2 1 C1.814375 1.66 1.62875 2.32 1.4375 3 C1.03842212 5.73653403 1.13760553 7.4471767 1.5625 10.125 C2 14 2 14 0 17 C-0.99 16.67 -1.98 16.34 -3 16 C-2.67 15.34 -2.34 14.68 -2 14 C-1.86270799 10.91092972 -1.91919487 8.31587458 -2.6875 5.3125 C-2.790625 4.549375 -2.89375 3.78625 -3 3 C-1.5625 1.1875 -1.5625 1.1875 0 0 Z " fill="#000000" transform="translate(517,230)"/>
<path d="M0 0 C0.66 0 1.32 0 2 0 C2 1.65 2 3.3 2 5 C2.99 5.33 3.98 5.66 5 6 C5.33 5.01 5.66 4.02 6 3 C6.66 3 7.32 3 8 3 C7.49396008 5.16874252 7.00016187 6.99967627 6 9 C3.625 9.125 3.625 9.125 1 9 C0.34 8.34 -0.32 7.68 -1 7 C-0.625 3.375 -0.625 3.375 0 0 Z " fill="#060606" transform="translate(229,239)"/>
<path d="M0 0 C2 2 2 2 2.125 5.125 C2.08375 6.07375 2.0425 7.0225 2 8 C1.01 8.495 1.01 8.495 0 9 C-0.99 8.01 -1.98 7.02 -3 6 C-2 4 -1 2 0 0 Z " fill="#D8D8D8" transform="translate(418,248)"/>
<path d="M0 0 C0.33 0 0.66 0 1 0 C1.33 5.94 1.66 11.88 2 18 C-0.49059397 13.01881207 -1.2136995 10.24901803 -0.5625 4.75 C-0.46066406 3.85796875 -0.35882812 2.9659375 -0.25390625 2.046875 C-0.17011719 1.37140625 -0.08632813 0.6959375 0 0 Z " fill="#242424" transform="translate(603,242)"/>
<path d="M0 0 C0.99 0 1.98 0 3 0 C3.33 1.65 3.66 3.3 4 5 C2.68 5.33 1.36 5.66 0 6 C-1 3 -1 3 0 0 Z " fill="#020202" transform="translate(225,198)"/>
<path d="M0 0 C0 1.65 0 3.3 0 5 C-1.32 4.67 -2.64 4.34 -4 4 C-4 3.01 -4 2.02 -4 1 C-2 0 -2 0 0 0 Z " fill="#0F0F0F" transform="translate(184,199)"/>
</svg>
