<?xml version="1.0" encoding="UTF-8"?>
<svg version="1.1" xmlns="http://www.w3.org/2000/svg" width="800" height="300">
<path d="M0 0 C264 0 528 0 800 0 C800 99 800 198 800 300 C536 300 272 300 0 300 C0 201 0 102 0 0 Z " fill="#FEFEFE" transform="translate(0,0)"/>
<path d="M0 0 C1.66796875 1.07421875 1.66796875 1.07421875 3 3 C3.29296875 6.35546875 3.29296875 6.35546875 3.1875 10.1875 C3.14689453 12.09595703 3.14689453 12.09595703 3.10546875 14.04296875 C3.07066406 15.01878906 3.03585938 15.99460938 3 17 C3.79696289 16.99476318 4.59392578 16.98952637 5.41503906 16.98413086 C9.02668469 16.963341 12.63831771 16.95033339 16.25 16.9375 C18.13138672 16.92493164 18.13138672 16.92493164 20.05078125 16.91210938 C21.85869141 16.90727539 21.85869141 16.90727539 23.703125 16.90234375 C25.36843262 16.89448853 25.36843262 16.89448853 27.06738281 16.88647461 C29.57157379 16.98341507 31.6181156 17.26769724 34 18 C33.95359375 17.18015625 33.9071875 16.3603125 33.859375 15.515625 C33.82328125 14.43796875 33.7871875 13.3603125 33.75 12.25 C33.70359375 11.18265625 33.6571875 10.1153125 33.609375 9.015625 C34 6 34 6 35.76171875 3.60546875 C38 2 38 2 40.03515625 1.72265625 C45.40422011 2.62267273 45.40422011 2.62267273 47.875 4.1875 C51.58419301 10.16342207 51.21761878 16.20545817 51 23 C51.9178125 23.07476562 52.835625 23.14953125 53.78125 23.2265625 C57.67054437 24.16112595 58.37392236 25.0712421 60.5 28.375 C61.37398437 29.73238281 61.37398437 29.73238281 62.265625 31.1171875 C62.83796875 32.06851563 63.4103125 33.01984375 64 34 C64.55171875 34.91007812 65.1034375 35.82015625 65.671875 36.7578125 C71.38582104 46.68650091 73.37128857 56.35913585 74.9987793 67.57617188 C75.11519775 68.37603516 75.23161621 69.17589844 75.3515625 70 C75.45291504 70.721875 75.55426758 71.44375 75.65869141 72.1875 C75.93149605 74.0913008 75.93149605 74.0913008 77 76 C79.32156597 76.40729228 81.6568787 76.74438677 84 77 C84 77.66 84 78.32 84 79 C86.77254755 80.38627378 89.02443742 80.12722529 92.12695312 80.12939453 C94.0603656 80.13412277 94.0603656 80.13412277 96.03283691 80.13894653 C97.44897495 80.13715519 98.86511268 80.13510385 100.28125 80.1328125 C101.73417171 80.13348637 103.18709332 80.13445709 104.64001465 80.13571167 C107.69328886 80.13718847 110.74653387 80.13503715 113.79980469 80.13037109 C117.68866596 80.12471427 121.57745759 80.12792698 125.46631622 80.13394356 C128.47258005 80.13758439 131.47882781 80.13639383 134.48509216 80.13381577 C135.91702788 80.13315409 137.3489651 80.13394803 138.78089905 80.13629532 C145.87487483 80.14536059 152.87511049 80.08594965 159.92353821 79.23048401 C163.50642064 78.83278967 167.08584419 78.80925453 170.6875 78.8125 C171.4491748 78.81185547 172.21084961 78.81121094 172.99560547 78.81054688 C180.43983789 78.87854485 187.66001586 79.78749525 195 81 C194.94585937 79.90429688 194.89171875 78.80859375 194.8359375 77.6796875 C195 74 195 74 197.625 71.125 C200.96505371 69.02200322 203.1062425 68.27812554 207 68 C210.13107836 71.38583802 210.33550778 73.71109462 210.1875 78.25 C210.14689453 79.86648437 210.14689453 79.86648437 210.10546875 81.515625 C210.07066406 82.33546875 210.03585937 83.1553125 210 84 C210.928125 84.433125 211.85625 84.86625 212.8125 85.3125 C217.62420382 87.85987261 217.62420382 87.85987261 219 90 C219.52352227 93.96381151 219.11749808 96.64097808 217.875 100.4375 C213.12349328 104.6725386 207.10790882 103.3187815 201 103 C195.61211865 102.60628798 190.24622452 102.07356363 184.875 101.5 C182.79919998 101.28401243 180.72321203 101.07005314 178.64700317 100.85803223 C176.79015795 100.66758065 174.93387619 100.47165832 173.07763672 100.27539062 C169.85097526 99.94058326 169.85097526 99.94058326 166 100 C166.47050781 100.56847656 166.94101562 101.13695312 167.42578125 101.72265625 C173.13411736 108.8019385 173.13411736 108.8019385 174.625 112.8125 C175.77233599 116.16546652 175.77233599 116.16546652 178.6875 118.125 C181 120 181 120 181.5625 122.5 C180.81547109 125.82012849 179.65728667 126.89613171 177 129 C170.32654836 130.09499788 163.66276048 129.88303576 158 126 C158.40482192 122.5590137 158.78191087 119.5209907 160.125 116.3125 C161.15274295 114.06986698 161.15274295 114.06986698 160.875 111.8125 C159.64470869 109.26403943 158.66761932 108.9823614 156 108 C153.20385578 107.78030295 150.54371409 107.66726007 147.75 107.6875 C146.98945313 107.69096436 146.22890625 107.69442871 145.4453125 107.69799805 C140.0469943 107.8029267 135.78156259 108.31037104 131 111 C130.67 111.99 130.34 112.98 130 114 C130.33 114.33 130.66 114.66 131 115 C130.75034008 118.80731379 130.49405698 121.89563733 128.9375 125.375 C124.71760348 128.91426805 119.53814263 129.23277863 114.25 128.875 C111.38643105 128.43406983 109.91411471 127.9488778 107.375 126.4375 C105.71029867 123.48643855 105.71026461 121.35069391 106.32421875 118.0390625 C107.52111405 114.42762118 109.17280151 112.57018045 112 110 C114.8125 109.625 114.8125 109.625 117 110 C117.0825 109.278125 117.165 108.55625 117.25 107.8125 C118.1481065 104.44460063 119.77875936 102.64327637 122 100 C121.10321533 100.00523682 120.20643066 100.01047363 119.2824707 100.01586914 C101.51488089 100.10472396 83.76225224 100.03986152 66 99.5625 C65.23007721 99.54285187 64.46015442 99.52320374 63.66690063 99.50296021 C54.75084059 99.27073694 45.88102419 98.87163231 37 98 C37.7425 98.94875 38.485 99.8975 39.25 100.875 C41.47398729 103.90209381 42.61921873 106.67966284 43.75 110.25 C45.09276423 113.95170071 45.09276423 113.95170071 48.1796875 116.19921875 C50.58981926 116.97041424 50.58981926 116.97041424 52.9765625 117.40234375 C55 118 55 118 57 121 C56.70295038 125.15869464 56.33061852 127.50407222 54 131 C52.16821289 131.37231445 52.16821289 131.37231445 49.97265625 131.36328125 C49.18052734 131.36263672 48.38839844 131.36199219 47.57226562 131.36132812 C46.74404297 131.34521484 45.91582031 131.32910156 45.0625 131.3125 C44.23814453 131.31572266 43.41378906 131.31894531 42.56445312 131.32226562 C36.40078221 131.26718814 36.40078221 131.26718814 33 129 C32.74118357 125.57068224 32.74504433 122.78447899 33.8125 119.5 C34.07342332 116.02102235 32.64460169 114.47239916 30.6171875 111.74609375 C27.6608016 108.5540539 25.41757969 106.23595363 21.01953125 105.50390625 C9.38431408 105.71648634 0.4753746 107.5053193 -8 116 C-8.33 116.99 -8.66 117.98 -9 119 C-8.01 119.33 -7.02 119.66 -6 120 C-6.09580122 122.92193714 -6.20258179 125.23088334 -7 128 C-11.49274312 131.99354944 -17.26842767 131.32073976 -22.9765625 131.30078125 C-25.86111799 131.01381643 -27.55500569 130.49681359 -30 129 C-30.48648649 121.7027027 -30.48648649 121.7027027 -28.3125 118.5625 C-26 117 -26 117 -23.5 116.75 C-22.675 116.5025 -21.85 116.255 -21 116 C-20.03327802 114.13322652 -19.08044541 112.25649467 -18.234375 110.33203125 C-15.30802987 104.80346149 -10.42171286 100.36661363 -6 96 C-6.59425781 96.03222656 -7.18851563 96.06445312 -7.80078125 96.09765625 C-17.58567861 95.96069812 -22.91737585 89.94268323 -29.62109375 83.46875 C-31.6991319 81.31223094 -33.49520872 79.16976481 -35.25 76.75 C-37.00461404 74.27226259 -37.00461404 74.27226259 -39 72 C-41.12274238 58.45058053 -42.80390187 39.36485823 -34.546875 27.68359375 C-30.06046508 22.8006577 -24.42231554 20.35856675 -18 19 C-16.68 19 -15.36 19 -14 19 C-14.03480469 18.34773438 -14.06960937 17.69546875 -14.10546875 17.0234375 C-14.27367994 11.59261899 -14.25288817 7.59891087 -11 3 C-7.39637838 0.07814463 -4.59860228 -0.59981769 0 0 Z " fill="#F9F9F9" transform="translate(203,155)"/>
<path d="M0 0 C3 1.125 3 1.125 5 3.6875 C9.32001529 7.19751242 13.01420795 6.59726205 18.4296875 6.49609375 C22.01158558 6.23583078 22.01158558 6.23583078 25.37890625 5.11328125 C29.72194312 3.92796482 33.58676641 3.82463072 38.0625 3.875 C38.917229 3.87959229 39.77195801 3.88418457 40.65258789 3.88891602 C51.61101098 4.03859687 63.01807355 4.52413677 73.78515625 6.68359375 C80.82494371 8.0865849 88.40862453 7.17685983 95.53857422 6.76416016 C105.97627002 6.1740504 116.4101612 5.95654549 126.86279297 5.89282227 C128.52755234 5.88101202 130.19228348 5.86398605 131.85693359 5.84155273 C134.22511537 5.81141051 136.59258459 5.80161354 138.9609375 5.796875 C139.6675351 5.78456848 140.37413269 5.77226196 141.10214233 5.75958252 C146.17862453 5.78191008 149.57350682 6.81558656 154 9.125 C155.125 11.0625 155.125 11.0625 156 13.125 C157.65788785 14.46923339 159.32576317 15.80118483 161 17.125 C166.84894313 23.54457172 170.43621605 29.48716048 171.3125 38.25 C170.50377503 48.27818958 165.21584103 59.73516824 158.5 67.25 C153.59544727 70.92841455 147.51979135 70.25205331 141.61328125 70.1875 C140.79796432 70.18371338 139.9826474 70.17992676 139.1426239 70.17602539 C135.69405414 70.15997515 132.245609 70.13260761 128.79711914 70.10449219 C119.32798193 70.03416536 109.89614519 70.09692316 100.43473816 70.52130127 C85.70750233 71.18117987 71.09029734 71.04011423 56.35986328 70.51074219 C52.44729389 70.37314645 48.53447789 70.26017907 44.62109375 70.1484375 C42.09109647 70.06396567 39.56114587 69.97808136 37.03125 69.890625 C35.88217163 69.85922424 34.73309326 69.82782349 33.54919434 69.79547119 C23.3765977 69.39496198 11.83441329 68.06975681 4.34765625 60.44140625 C-1.82681152 52.93844664 -3.0637654 44.33844549 -4.4609375 34.97265625 C-4.94344294 32.42376882 -5.62919869 30.37782463 -6.625 28 C-8.28641092 23.3583262 -8.40171748 18.75701372 -8.5 13.875 C-8.5304541 13.09366699 -8.5609082 12.31233398 -8.59228516 11.50732422 C-8.59503932 7.23378247 -8.35530653 5.58571414 -5.65625 2.0859375 C-3 0.125 -3 0.125 0 0 Z " fill="#646464" transform="translate(433,214.875)"/>
<path d="M0 0 C1.66796875 1.07421875 1.66796875 1.07421875 3 3 C3.29296875 6.35546875 3.29296875 6.35546875 3.1875 10.1875 C3.14689453 12.09595703 3.14689453 12.09595703 3.10546875 14.04296875 C3.07066406 15.01878906 3.03585938 15.99460938 3 17 C3.79696289 16.99476318 4.59392578 16.98952637 5.41503906 16.98413086 C9.02668469 16.963341 12.63831771 16.95033339 16.25 16.9375 C18.13138672 16.92493164 18.13138672 16.92493164 20.05078125 16.91210938 C21.85869141 16.90727539 21.85869141 16.90727539 23.703125 16.90234375 C25.36843262 16.89448853 25.36843262 16.89448853 27.06738281 16.88647461 C29.57157379 16.98341507 31.6181156 17.26769724 34 18 C33.95359375 17.18015625 33.9071875 16.3603125 33.859375 15.515625 C33.82328125 14.43796875 33.7871875 13.3603125 33.75 12.25 C33.70359375 11.18265625 33.6571875 10.1153125 33.609375 9.015625 C34 6 34 6 35.76171875 3.60546875 C38 2 38 2 40.03515625 1.72265625 C45.40422011 2.62267273 45.40422011 2.62267273 47.875 4.1875 C51.58419301 10.16342207 51.21761878 16.20545817 51 23 C51.9178125 23.07476562 52.835625 23.14953125 53.78125 23.2265625 C57.67054437 24.16112595 58.37392236 25.0712421 60.5 28.375 C61.37398437 29.73238281 61.37398437 29.73238281 62.265625 31.1171875 C62.83796875 32.06851563 63.4103125 33.01984375 64 34 C64.55171875 34.91007812 65.1034375 35.82015625 65.671875 36.7578125 C71.38582104 46.68650091 73.37128857 56.35913585 74.9987793 67.57617188 C75.11519775 68.37603516 75.23161621 69.17589844 75.3515625 70 C75.45291504 70.721875 75.55426758 71.44375 75.65869141 72.1875 C75.93149605 74.0913008 75.93149605 74.0913008 77 76 C79.32156597 76.40729228 81.6568787 76.74438677 84 77 C84 77.66 84 78.32 84 79 C86.77254755 80.38627378 89.02443742 80.12722529 92.12695312 80.12939453 C94.0603656 80.13412277 94.0603656 80.13412277 96.03283691 80.13894653 C97.44897495 80.13715519 98.86511268 80.13510385 100.28125 80.1328125 C101.73417171 80.13348637 103.18709332 80.13445709 104.64001465 80.13571167 C107.69328886 80.13718847 110.74653387 80.13503715 113.79980469 80.13037109 C117.68866596 80.12471427 121.57745759 80.12792698 125.46631622 80.13394356 C128.47258005 80.13758439 131.47882781 80.13639383 134.48509216 80.13381577 C135.91702788 80.13315409 137.3489651 80.13394803 138.78089905 80.13629532 C145.87487483 80.14536059 152.87511049 80.08594965 159.92353821 79.23048401 C163.50642064 78.83278967 167.08584419 78.80925453 170.6875 78.8125 C171.4491748 78.81185547 172.21084961 78.81121094 172.99560547 78.81054688 C180.43983789 78.87854485 187.66001586 79.78749525 195 81 C194.94585937 79.90429688 194.89171875 78.80859375 194.8359375 77.6796875 C195 74 195 74 197.625 71.125 C200.96505371 69.02200322 203.1062425 68.27812554 207 68 C210.13107836 71.38583802 210.33550778 73.71109462 210.1875 78.25 C210.14689453 79.86648437 210.14689453 79.86648437 210.10546875 81.515625 C210.07066406 82.33546875 210.03585937 83.1553125 210 84 C210.928125 84.433125 211.85625 84.86625 212.8125 85.3125 C217.62420382 87.85987261 217.62420382 87.85987261 219 90 C219.52352227 93.96381151 219.11749808 96.64097808 217.875 100.4375 C213.12349328 104.6725386 207.10790882 103.3187815 201 103 C195.61211865 102.60628798 190.24622452 102.07356363 184.875 101.5 C182.79919998 101.28401243 180.72321203 101.07005314 178.64700317 100.85803223 C176.79015795 100.66758065 174.93387619 100.47165832 173.07763672 100.27539062 C169.85097526 99.94058326 169.85097526 99.94058326 166 100 C166.47050781 100.56847656 166.94101562 101.13695312 167.42578125 101.72265625 C173.13411736 108.8019385 173.13411736 108.8019385 174.625 112.8125 C175.77233599 116.16546652 175.77233599 116.16546652 178.6875 118.125 C181 120 181 120 181.5625 122.5 C180.81547109 125.82012849 179.65728667 126.89613171 177 129 C170.32654836 130.09499788 163.66276048 129.88303576 158 126 C158.40482192 122.5590137 158.78191087 119.5209907 160.125 116.3125 C161.15274295 114.06986698 161.15274295 114.06986698 160.875 111.8125 C159.64470869 109.26403943 158.66761932 108.9823614 156 108 C153.20385578 107.78030295 150.54371409 107.66726007 147.75 107.6875 C146.98945313 107.69096436 146.22890625 107.69442871 145.4453125 107.69799805 C140.0469943 107.8029267 135.78156259 108.31037104 131 111 C130.67 111.99 130.34 112.98 130 114 C130.33 114.33 130.66 114.66 131 115 C130.75034008 118.80731379 130.49405698 121.89563733 128.9375 125.375 C124.71760348 128.91426805 119.53814263 129.23277863 114.25 128.875 C111.38643105 128.43406983 109.91411471 127.9488778 107.375 126.4375 C105.71029867 123.48643855 105.71026461 121.35069391 106.32421875 118.0390625 C107.52111405 114.42762118 109.17280151 112.57018045 112 110 C114.8125 109.625 114.8125 109.625 117 110 C117.0825 109.278125 117.165 108.55625 117.25 107.8125 C118.1481065 104.44460063 119.77875936 102.64327637 122 100 C121.10321533 100.00523682 120.20643066 100.01047363 119.2824707 100.01586914 C101.51488089 100.10472396 83.76225224 100.03986152 66 99.5625 C65.23007721 99.54285187 64.46015442 99.52320374 63.66690063 99.50296021 C54.75084059 99.27073694 45.88102419 98.87163231 37 98 C37.7425 98.94875 38.485 99.8975 39.25 100.875 C41.47398729 103.90209381 42.61921873 106.67966284 43.75 110.25 C45.09276423 113.95170071 45.09276423 113.95170071 48.1796875 116.19921875 C50.58981926 116.97041424 50.58981926 116.97041424 52.9765625 117.40234375 C55 118 55 118 57 121 C56.70295038 125.15869464 56.33061852 127.50407222 54 131 C52.16821289 131.37231445 52.16821289 131.37231445 49.97265625 131.36328125 C49.18052734 131.36263672 48.38839844 131.36199219 47.57226562 131.36132812 C46.74404297 131.34521484 45.91582031 131.32910156 45.0625 131.3125 C44.23814453 131.31572266 43.41378906 131.31894531 42.56445312 131.32226562 C36.40078221 131.26718814 36.40078221 131.26718814 33 129 C32.74118357 125.57068224 32.74504433 122.78447899 33.8125 119.5 C34.07342332 116.02102235 32.64460169 114.47239916 30.6171875 111.74609375 C27.6608016 108.5540539 25.41757969 106.23595363 21.01953125 105.50390625 C9.38431408 105.71648634 0.4753746 107.5053193 -8 116 C-8.33 116.99 -8.66 117.98 -9 119 C-8.01 119.33 -7.02 119.66 -6 120 C-6.09580122 122.92193714 -6.20258179 125.23088334 -7 128 C-11.49274312 131.99354944 -17.26842767 131.32073976 -22.9765625 131.30078125 C-25.86111799 131.01381643 -27.55500569 130.49681359 -30 129 C-30.48648649 121.7027027 -30.48648649 121.7027027 -28.3125 118.5625 C-26 117 -26 117 -23.5 116.75 C-22.675 116.5025 -21.85 116.255 -21 116 C-20.03327802 114.13322652 -19.08044541 112.25649467 -18.234375 110.33203125 C-15.30802987 104.80346149 -10.42171286 100.36661363 -6 96 C-6.59425781 96.03222656 -7.18851563 96.06445312 -7.80078125 96.09765625 C-17.58567861 95.96069812 -22.91737585 89.94268323 -29.62109375 83.46875 C-31.6991319 81.31223094 -33.49520872 79.16976481 -35.25 76.75 C-37.00461404 74.27226259 -37.00461404 74.27226259 -39 72 C-41.12274238 58.45058053 -42.80390187 39.36485823 -34.546875 27.68359375 C-30.06046508 22.8006577 -24.42231554 20.35856675 -18 19 C-16.68 19 -15.36 19 -14 19 C-14.03480469 18.34773438 -14.06960937 17.69546875 -14.10546875 17.0234375 C-14.27367994 11.59261899 -14.25288817 7.59891087 -11 3 C-7.39637838 0.07814463 -4.59860228 -0.59981769 0 0 Z M-9.375 4.8125 C-11.9447006 8.27171235 -12.11677347 11.0084425 -12.0625 15.1875 C-12.05347656 16.08855469 -12.04445312 16.98960937 -12.03515625 17.91796875 C-12.02355469 18.60503906 -12.01195312 19.29210937 -12 20 C-12.61746094 20.15855469 -13.23492187 20.31710938 -13.87109375 20.48046875 C-22.3112417 22.80568455 -29.92678835 25.51861827 -35 33 C-39.10913334 44.72942912 -40.07696439 60.17680327 -36 72 C-34.67804018 72.68894445 -33.34486745 73.35691854 -32 74 C-31.7525 74.886875 -31.505 75.77375 -31.25 76.6875 C-29.46660001 81.41350996 -26.1960795 84.25553719 -22 87 C-20.33794933 87.3556353 -18.67166783 87.69272885 -17 88 C-15.75 90 -15.75 90 -15 92 C-11.75714158 95.24285842 -3.66615848 94.97628562 0.62109375 95.12890625 C3.74985053 95.12547935 6.87259937 95.08949636 10 95 C10.33 95.66 10.66 96.32 11 97 C10.28714844 97.03738281 9.57429688 97.07476562 8.83984375 97.11328125 C1.48939494 97.61782081 -3.87570488 98.32203275 -9.625 103.25 C-16.36531579 110.72746466 -16.36531579 110.72746466 -19 120 C-20.3921875 119.9071875 -20.3921875 119.9071875 -21.8125 119.8125 C-24.92436195 119.74414957 -24.92436195 119.74414957 -26.9375 121.1875 C-28.25545189 123.03055434 -28.25545189 123.03055434 -27.75 125.625 C-27.22254355 127.9312407 -27.22254355 127.9312407 -26 129 C-24.08759516 129.15252309 -22.16827201 129.22192773 -20.25 129.25 C-19.20328125 129.27578125 -18.1565625 129.3015625 -17.078125 129.328125 C-13.60325604 128.9577075 -11.76142107 128.11226241 -9 126 C-8.11341534 123.40877257 -8.11341534 123.40877257 -8 121 C-9.32 120.67 -10.64 120.34 -12 120 C-10.96626637 114.57289846 -8.63626354 112.40091787 -4.29296875 109.38671875 C4.49189873 104.07389429 12.72011029 101.96529215 23 103 C25.68859741 104.05970535 27.60561051 105.33433775 30 107 C30.66 107 31.32 107 32 107 C32.268125 107.7425 32.53625 108.485 32.8125 109.25 C33.85544839 112.0068317 33.85544839 112.0068317 35.625 114 C37.37330139 116.54298383 37.38841985 117.97032514 37 121 C36.34 121.99 35.68 122.98 35 124 C35.30840599 126.15274948 35.30840599 126.15274948 36 128 C38.62506802 128.02690844 41.24986173 128.04679404 43.875 128.0625 C44.99455078 128.07506836 44.99455078 128.07506836 46.13671875 128.08789062 C50.19845578 128.20688084 50.19845578 128.20688084 54 127 C54.2502157 124.08365871 54.2502157 124.08365871 54 121 C51.1263413 118.75242209 51.1263413 118.75242209 47.625 118.625 C43.2214809 116.65100868 43.11465447 115.67093054 41.4375 111.3125 C40.8496875 109.70568359 40.8496875 109.70568359 40.25 108.06640625 C38.63419761 104.10264102 36.51068081 100.54995742 33 98 C31.68 98 30.36 98 29 98 C29 97.01 29 96.02 29 95 C30.485 95.495 30.485 95.495 32 96 C70.0167689 99.74863438 109.90029295 98.00805857 148 96 C148.33 96.66 148.66 97.32 149 98 C147.741875 98.185625 146.48375 98.37125 145.1875 98.5625 C144.12595703 98.71912109 144.12595703 98.71912109 143.04296875 98.87890625 C141 99 141 99 138 98 C131.45224637 98.7483147 125.40758671 100.65577083 120.625 105.3125 C118.71404147 108.47293141 118.66229941 110.36971871 119 114 C116.03 113.505 116.03 113.505 113 113 C110.70977463 115.504934 109.15655771 117.26939736 108.4375 120.625 C108.80853861 123.16639457 108.80853861 123.16639457 111 124.875 C115.99335179 126.74750692 120.06571312 125.8409943 124.875 123.75 C127.35852361 121.70474527 128.09270329 120.05181621 129 117 C128.34 116.67 127.68 116.34 127 116 C127.50831021 112.23850448 128.11276908 110.459493 131 108 C136.31925463 105.02855431 142.20601893 104.64455303 148.1875 104.5 C148.86449951 104.46946533 149.54149902 104.43893066 150.23901367 104.4074707 C155.9107649 104.40399409 158.15836683 106.16413505 162 110 C163.58580623 112.27528719 164.07003855 113.25292211 163.8125 116 C162.86632381 118.32904908 161.59058401 120.06363686 160 122 C161.11383901 124.98957083 161.11383901 124.98957083 163.625 126.75 C171.12976051 127.61586766 171.12976051 127.61586766 178 125 C178.41986946 122.71163778 178.41986946 122.71163778 178 120 C177.24976563 119.25234375 176.49953125 118.5046875 175.7265625 117.734375 C171.98113334 113.97821395 169.74832564 109.65565026 167.16015625 105.05859375 C164.80146793 101.71889582 162.42959769 100.15142615 159 98 C159 97.34 159 96.68 159 96 C160.77119803 96.14133499 162.54195287 96.28823208 164.3125 96.4375 C165.29863281 96.51871094 166.28476562 96.59992188 167.30078125 96.68359375 C170 97 170 97 173 98 C174.33647609 98.13342409 175.67766682 98.22319672 177.01953125 98.28125 C177.79490234 98.31863281 178.57027344 98.35601562 179.36914062 98.39453125 C180.57860352 98.44673828 180.57860352 98.44673828 181.8125 98.5 C190.21096244 98.86781587 190.21096244 98.86781587 194.03125 99.5078125 C197.92647958 100.15360056 201.74504557 100.3001648 205.6875 100.375 C206.44611328 100.41238281 207.20472656 100.44976562 207.98632812 100.48828125 C210.47316799 100.5839191 210.47316799 100.5839191 214 100 C216.06597809 97.55039735 217 96.15441759 217 92.9375 C215.52752331 90.08457641 213.66269915 88.7549608 211 87 C209.34340556 86.61975829 207.67669911 86.2785121 206 86 C206.23396484 84.73542969 206.23396484 84.73542969 206.47265625 83.4453125 C206.76462891 81.80175781 206.76462891 81.80175781 207.0625 80.125 C207.25972656 79.03445312 207.45695313 77.94390625 207.66015625 76.8203125 C208.25631899 74.05346717 208.25631899 74.05346717 207 72 C203.62090549 71.69280959 201.59642541 71.65470108 198.625 73.375 C196.13036958 77.4047876 196.68264112 81.38066514 197 86 C195.33984375 85.25130208 193.6796875 84.50260417 192.01953125 83.75390625 C187.99920507 82.25308816 184.09925572 81.87269613 179.83203125 81.8671875 C178.85556641 81.86589844 177.87910156 81.86460937 176.87304688 81.86328125 C175.35807617 81.86908203 175.35807617 81.86908203 173.8125 81.875 C172.82185547 81.87113281 171.83121094 81.86726563 170.81054688 81.86328125 C169.82763672 81.86457031 168.84472656 81.86585938 167.83203125 81.8671875 C166.95264893 81.86831543 166.0732666 81.86944336 165.16723633 81.87060547 C162.57432348 81.97653654 160.07463223 82.20410384 157.49975586 82.49560547 C151.06111397 83.16570375 144.64035394 83.18093341 138.171875 83.203125 C136.86526917 83.20882507 135.55866333 83.21452515 134.21246338 83.22039795 C131.45918395 83.2308305 128.70593305 83.23672364 125.95263672 83.24023438 C122.46557087 83.24570587 118.97889798 83.26973796 115.4919548 83.29820633 C112.11443787 83.3215718 108.73696831 83.32329697 105.359375 83.328125 C104.128703 83.3404718 102.89803101 83.3528186 101.63006592 83.36553955 C93.31687661 83.34453775 84.87885405 82.8615566 77 80 C74.18722577 77.03824821 73.50770797 74.65007279 72.9375 70.640625 C72.78023438 69.60679687 72.62296875 68.57296875 72.4609375 67.5078125 C72.30882812 66.43273437 72.15671875 65.35765625 72 64.25 C70.45011731 53.45335959 68.1063727 45.10195175 62 36 C61.44957031 35.11183594 60.89914062 34.22367188 60.33203125 33.30859375 C59.74808594 32.40238281 59.16414063 31.49617188 58.5625 30.5625 C58.02753906 29.71816406 57.49257813 28.87382812 56.94140625 28.00390625 C54.42850101 25.41010265 52.5303419 25.27309255 49 25 C49.03480469 24.28714844 49.06960937 23.57429688 49.10546875 22.83984375 C49.27845846 16.71930306 49.07425387 12.35147896 46 7 C42.79191085 4.8612739 41.72301503 4.52269038 38 5 C35.91866533 8.122002 35.7262178 8.93266989 35.75 12.5 C35.74484375 13.2734375 35.7396875 14.046875 35.734375 14.84375 C35.87261938 17.29513844 35.87261938 17.29513844 38 20 C25.13 20 12.26 20 -1 20 C-0.34 18.35 0.32 16.7 1 15 C1.27628498 12.13841363 1.27628498 12.13841363 1.1875 9.25 C1.17783203 7.80367187 1.17783203 7.80367187 1.16796875 6.328125 C1.25812405 4.03999413 1.25812405 4.03999413 0 3 C-5.0525546 2.49113459 -5.0525546 2.49113459 -9.375 4.8125 Z " fill="#101010" transform="translate(203,155)"/>
<path d="M0 0 C3 1.125 3 1.125 5 3.6875 C9.32001529 7.19751242 13.01420795 6.59726205 18.4296875 6.49609375 C22.01158558 6.23583078 22.01158558 6.23583078 25.37890625 5.11328125 C29.72194312 3.92796482 33.58676641 3.82463072 38.0625 3.875 C38.917229 3.87959229 39.77195801 3.88418457 40.65258789 3.88891602 C51.61101098 4.03859687 63.01807355 4.52413677 73.78515625 6.68359375 C80.82494371 8.0865849 88.40862453 7.17685983 95.53857422 6.76416016 C105.97627002 6.1740504 116.4101612 5.95654549 126.86279297 5.89282227 C128.52755234 5.88101202 130.19228348 5.86398605 131.85693359 5.84155273 C134.22511537 5.81141051 136.59258459 5.80161354 138.9609375 5.796875 C139.6675351 5.78456848 140.37413269 5.77226196 141.10214233 5.75958252 C146.17862453 5.78191008 149.57350682 6.81558656 154 9.125 C155.125 11.0625 155.125 11.0625 156 13.125 C157.65788785 14.46923339 159.32576317 15.80118483 161 17.125 C166.84894313 23.54457172 170.43621605 29.48716048 171.3125 38.25 C170.50377503 48.27818958 165.21584103 59.73516824 158.5 67.25 C153.59544727 70.92841455 147.51979135 70.25205331 141.61328125 70.1875 C140.79796432 70.18371338 139.9826474 70.17992676 139.1426239 70.17602539 C135.69405414 70.15997515 132.245609 70.13260761 128.79711914 70.10449219 C119.32798193 70.03416536 109.89614519 70.09692316 100.43473816 70.52130127 C85.70750233 71.18117987 71.09029734 71.04011423 56.35986328 70.51074219 C52.44729389 70.37314645 48.53447789 70.26017907 44.62109375 70.1484375 C42.09109647 70.06396567 39.56114587 69.97808136 37.03125 69.890625 C35.88217163 69.85922424 34.73309326 69.82782349 33.54919434 69.79547119 C23.3765977 69.39496198 11.83441329 68.06975681 4.34765625 60.44140625 C-1.82681152 52.93844664 -3.0637654 44.33844549 -4.4609375 34.97265625 C-4.94344294 32.42376882 -5.62919869 30.37782463 -6.625 28 C-8.28641092 23.3583262 -8.40171748 18.75701372 -8.5 13.875 C-8.5304541 13.09366699 -8.5609082 12.31233398 -8.59228516 11.50732422 C-8.59503932 7.23378247 -8.35530653 5.58571414 -5.65625 2.0859375 C-3 0.125 -3 0.125 0 0 Z M-2 3.125 C-5.34219637 6.76799404 -5.86682069 9.94781704 -6.19921875 14.7578125 C-5.95003152 18.96956534 -5.0251107 22.72175764 -3.8125 26.75 C-3.60431641 27.46124023 -3.39613281 28.17248047 -3.18164062 28.90527344 C-2.48498439 31.15772482 -2.48498439 31.15772482 -1 34.125 C1.05763303 35.20031087 1.05763303 35.20031087 3 35.125 C3 33.805 3 32.485 3 31.125 C3.99 31.125 4.98 31.125 6 31.125 C6.1546875 30.01125 6.1546875 30.01125 6.3125 28.875 C7.04253504 25.95485982 8.06789398 24.39312446 10 22.125 C9.39050431 26.2695707 7.96084772 29.4386063 6 33.125 C5.690625 33.8675 5.38125 34.61 5.0625 35.375 C3.7196378 37.58677303 2.28882417 38.01750443 0 39.125 C-1.80310102 44.53430306 0.85118344 50.03032809 3 55.125 C4.89597259 57.55165194 6.29919246 58.5397434 9 60.125 C9.66 60.125 10.32 60.125 11 60.125 C11 60.785 11 61.445 11 62.125 C21.26154022 65.59645722 30.67541799 66.20126388 41.4375 66.25 C42.77143799 66.25713013 42.77143799 66.25713013 44.13232422 66.2644043 C45.39520264 66.26114136 45.39520264 66.26114136 46.68359375 66.2578125 C47.82139282 66.25612061 47.82139282 66.25612061 48.98217773 66.25439453 C51.20626495 66.197839 51.20626495 66.197839 54 65.125 C54.20086443 61.40900809 54.1519437 60.35291555 52 57.125 C52.875 54.4375 52.875 54.4375 54 52.125 C53.01 51.135 52.02 50.145 51 49.125 C51.680625 48.568125 52.36125 48.01125 53.0625 47.4375 C55.28097119 45.29246056 55.28097119 45.29246056 55 42.5 C54.20423043 39.98006227 54.20423043 39.98006227 51.9375 38.8125 C51.298125 38.585625 50.65875 38.35875 50 38.125 C50.495 37.135 50.495 37.135 51 36.125 C52.875 36.75 52.875 36.75 55 38.125 C57.27878599 42.7910856 56.96687605 46.11482411 56 51.125 C54.96234078 57.03965756 55.10030096 61.42590287 57 67.125 C58.95486328 67.10953125 58.95486328 67.10953125 60.94921875 67.09375 C65.58771764 67.09375 70.18493274 67.33249253 74.8125 67.625 C81.91885989 68.03528471 89.0067453 68.23457722 96.125 68.25 C97.43174683 68.25676758 97.43174683 68.25676758 98.76489258 68.26367188 C102.69673607 68.64435259 102.69673607 68.64435259 106 67.125 C108.67250538 67.10412105 111.32900188 67.1313335 114 67.1875 C120.31908812 67.26676106 125.88847363 66.90289858 132 65.125 C132.94125778 61.46455306 133.65698407 57.89817527 134 54.125 C133.34 53.135 132.68 52.145 132 51.125 C133.98 48.155 133.98 48.155 136 45.125 C134.02 43.145 134.02 43.145 132 41.125 C133.32 41.455 134.64 41.785 136 42.125 C136.625 44.5 136.625 44.5 137 47.125 C136.01 48.115 136.01 48.115 135 49.125 C135.165 50.218125 135.33 51.31125 135.5 52.4375 C136.03296631 56.36812655 135.48213276 57.6049347 134 61.125 C134.27701774 62.80194665 134.60458862 64.47196076 135 66.125 C146.213767 67.99624647 146.213767 67.99624647 156.609375 64.953125 C163.05860623 58.23794609 167.90754151 47.33286442 169 38.125 C167.48779932 29.66347263 161.28652745 21.7130244 155 16.125 C154.01 15.63 154.01 15.63 153 15.125 C152.61781233 16.78114657 152.28604898 18.44957024 152 20.125 C152.33 20.455 152.66 20.785 153 21.125 C153.2165625 22.73375 153.2165625 22.73375 153.4375 24.375 C153.82799456 28.02222987 153.82799456 28.02222987 155.125 30.8125 C156.11341176 33.42473109 155.95398577 34.54923842 155 37.125 C152.525 37.62 152.525 37.62 150 38.125 C151 36.125 151 36.125 154 34.125 C153.505 33.238125 153.01 32.35125 152.5 31.4375 C151.05621326 28.24913762 150.69840078 26.54312454 151 23.125 C149.68 22.795 148.36 22.465 147 22.125 C148.98 17.67 148.98 17.67 151 13.125 C145.21350937 9.83307915 141.17561486 8.54587548 134.5625 8.734375 C133.79695801 8.74003479 133.03141602 8.74569458 132.24267578 8.75152588 C129.82777979 8.77369165 127.41443777 8.82384461 125 8.875 C123.35028204 8.89509085 121.70054052 8.91333706 120.05078125 8.9296875 C116.03326695 8.97349057 112.01689574 9.04237398 108 9.125 C108 9.785 108 10.445 108 11.125 C108.99 11.8984375 108.99 11.8984375 110 12.6875 C112.61592046 15.87565306 112.36839565 17.90694411 112.23828125 21.90625 C112 24.125 112 24.125 111.41796875 26.25390625 C110.7829888 28.25792357 110.7829888 28.25792357 112 30.5625 C113.20265703 33.64430863 113.24108827 35.06364894 112 38.125 C109.4375 39.4375 109.4375 39.4375 107 40.125 C108.65 38.145 110.3 36.165 112 34.125 C111.484375 33.238125 110.96875 32.35125 110.4375 31.4375 C108.8982735 27.89058677 108.80781918 26.70154245 110 23.125 C110.33 22.465 110.66 21.805 111 21.125 C110.01 21.125 109.02 21.125 108 21.125 C108.33 20.526875 108.66 19.92875 109 19.3125 C110.20787988 17.07113529 110.20787988 17.07113529 110 14.125 C107.17159994 11.10586005 105.50626342 10.18930472 101.37109375 9.6640625 C100.07300781 9.69242188 98.77492188 9.72078125 97.4375 9.75 C96.13683594 9.76289063 94.83617187 9.77578125 93.49609375 9.7890625 C90.3697929 10.08946683 88.60753355 10.46626365 86 12.125 C86.99 13.61 86.99 13.61 88 15.125 C87.67873872 17.75934254 87.18644952 19.75210097 86 22.125 C85.98012522 23.72917883 86.0072121 25.33415101 86.0625 26.9375 C86.10140325 30.78336422 85.97921869 33.7163456 84 37.125 C83.01 37.62 83.01 37.62 82 38.125 C82.350625 37.01125 82.70125 35.8975 83.0625 34.75 C84.37239331 31.32235524 84.37239331 31.32235524 83 29.125 C83.27942455 27.44845271 83.60828247 25.77891846 84 24.125 C83.01 24.125 82.02 24.125 81 24.125 C82.11179163 20.78962511 83.47411298 19.48792656 86 17.125 C85.06231164 14.06991079 85.06231164 14.06991079 83 11.125 C80.19158076 10.27670567 78.0869318 9.88391153 75.21875 9.6640625 C74.45002563 9.58376801 73.68130127 9.50347351 72.88928223 9.42074585 C70.42796038 9.17084665 67.96495857 8.9606349 65.5 8.75 C63.87214879 8.58708532 62.24453837 8.42174521 60.6171875 8.25390625 C52.40218153 7.43603507 44.26393848 6.85612325 36 7.125 C36.495 8.115 36.495 8.115 37 9.125 C37.31337847 14.66135301 36.4386757 18.2476486 34 23.125 C34.185625 23.74375 34.37125 24.3625 34.5625 25 C35 27.125 35 27.125 34.0625 28.875 C32.44610496 32.2979542 32.87464081 35.36422443 33 39.125 C32.01 39.455 31.02 39.785 30 40.125 C29.67 39.795 29.34 39.465 29 39.125 C29.7734375 38.63 29.7734375 38.63 30.5625 38.125 C32.33834722 35.65425604 32.02853971 34.98054407 31.5625 32.0625 C31.2840625 30.1134375 31.2840625 30.1134375 31 28.125 C31.66 27.465 32.32 26.805 33 26.125 C32.6730244 23.50919521 32.17960932 21.48421863 31 19.125 C31.99 19.125 32.98 19.125 34 19.125 C35.4783226 16.16835481 35.06032783 13.38270263 35 10.125 C34.34 10.125 33.68 10.125 33 10.125 C33 9.465 33 8.805 33 8.125 C32.195625 8.23328125 32.195625 8.23328125 31.375 8.34375 C25.8169062 9.00194532 20.27974669 9.28786142 14.6875 9.375 C13.6655957 9.4069043 13.6655957 9.4069043 12.62304688 9.43945312 C8.2150567 9.46979327 5.48757498 8.84391092 2 6.125 C1.34 5.135 0.68 4.145 0 3.125 C-0.66 3.125 -1.32 3.125 -2 3.125 Z " fill="#0F0F0F" transform="translate(433,214.875)"/>
<path d="M0 0 C1.66796875 1.07421875 1.66796875 1.07421875 3 3 C3.29296875 6.35546875 3.29296875 6.35546875 3.1875 10.1875 C3.14689453 12.09595703 3.14689453 12.09595703 3.10546875 14.04296875 C3.07066406 15.01878906 3.03585938 15.99460938 3 17 C3.79696289 16.99476318 4.59392578 16.98952637 5.41503906 16.98413086 C9.02668469 16.963341 12.63831771 16.95033339 16.25 16.9375 C18.13138672 16.92493164 18.13138672 16.92493164 20.05078125 16.91210938 C21.85869141 16.90727539 21.85869141 16.90727539 23.703125 16.90234375 C25.36843262 16.89448853 25.36843262 16.89448853 27.06738281 16.88647461 C29.57157379 16.98341507 31.6181156 17.26769724 34 18 C33.95359375 17.18015625 33.9071875 16.3603125 33.859375 15.515625 C33.82328125 14.43796875 33.7871875 13.3603125 33.75 12.25 C33.70359375 11.18265625 33.6571875 10.1153125 33.609375 9.015625 C34.08264522 5.36197888 35.19155042 4.27771895 38 2 C38.99 2.495 38.99 2.495 40 3 C39.505 3.639375 39.01 4.27875 38.5 4.9375 C36.09625375 9.84514859 36.2853529 14.85605871 38 20 C25.13 20 12.26 20 -1 20 C-0.67 18.35 -0.34 16.7 0 15 C0.06533435 13.06348981 0.08584303 11.12497139 0.0625 9.1875 C0.05347656 8.21167969 0.04445312 7.23585937 0.03515625 6.23046875 C0.02355469 5.49441406 0.01195312 4.75835937 0 4 C-2.97 4 -5.94 4 -9 4 C-11.08386889 9.27913453 -11.57910004 14.39538469 -12 20 C-12.85722656 20.30292969 -13.71445313 20.60585937 -14.59765625 20.91796875 C-25.59707142 24.74584018 -25.59707142 24.74584018 -33.8125 32.625 C-38.03874247 44.63642597 -39.06513647 59.8045906 -35 72 C-33.18739868 74.22931824 -33.18739868 74.22931824 -31 76 C-30.360625 76.99 -29.72125 77.98 -29.0625 79 C-26.39723848 82.87674403 -23.79522427 85.31610504 -19.375 87 C-17 88 -17 88 -15.65625 89.984375 C-13.03161795 93.17850269 -10.14584696 93.09420809 -6.20703125 93.6953125 C-0.80215685 94.20880848 4.57780799 94.15516607 10 94 C10.33 94.99 10.66 95.98 11 97 C10.04738281 97.18175781 9.09476563 97.36351562 8.11328125 97.55078125 C6.85902344 97.80214844 5.60476562 98.05351562 4.3125 98.3125 C3.07113281 98.55613281 1.82976562 98.79976563 0.55078125 99.05078125 C-2.81927212 99.95168661 -5.09484795 101.13128057 -8 103 C-8.66 103 -9.32 103 -10 103 C-10.26683594 103.55558594 -10.53367188 104.11117187 -10.80859375 104.68359375 C-12.57633549 108.12054737 -14.63626348 111.36947485 -16.66015625 114.66015625 C-18.11979157 117.03104625 -18.11979157 117.03104625 -19 120 C-22.5625 121.1875 -22.5625 121.1875 -26 122 C-26.38218767 123.65614657 -26.71395102 125.32457024 -27 127 C-25.20938728 128.79061272 -22.60322258 128.17289466 -20.1875 128.1875 C-19.12917969 128.20167969 -18.07085937 128.21585938 -16.98046875 128.23046875 C-14.04114611 128.00318168 -12.41755449 127.64706368 -10 126 C-8.71745356 123.46229997 -8.71745356 123.46229997 -8 121 C-9.32 120.67 -10.64 120.34 -12 120 C-12.0625 117.4375 -12.0625 117.4375 -11 114 C-5.18706224 107.97991969 2.26187135 103.30682149 10.6796875 102.76171875 C14.13030773 102.7513044 17.5543026 102.82354892 21 103 C21 103.33 21 103.66 21 104 C20.09121094 104.16435547 20.09121094 104.16435547 19.1640625 104.33203125 C16.43312849 104.84880799 13.71666807 105.41281319 11 106 C10.15050781 106.18304688 9.30101562 106.36609375 8.42578125 106.5546875 C1.87114785 108.22164293 -3.20199127 111.19106186 -8 116 C-8.33 116.99 -8.66 117.98 -9 119 C-8.01 119.33 -7.02 119.66 -6 120 C-6.09580122 122.92193714 -6.20258179 125.23088334 -7 128 C-11.49274312 131.99354944 -17.26842767 131.32073976 -22.9765625 131.30078125 C-25.86111799 131.01381643 -27.55500569 130.49681359 -30 129 C-30.48648649 121.7027027 -30.48648649 121.7027027 -28.3125 118.5625 C-26 117 -26 117 -23.5 116.75 C-22.675 116.5025 -21.85 116.255 -21 116 C-20.03327802 114.13322652 -19.08044541 112.25649467 -18.234375 110.33203125 C-15.30802987 104.80346149 -10.42171286 100.36661363 -6 96 C-6.59425781 96.03222656 -7.18851563 96.06445312 -7.80078125 96.09765625 C-17.58567861 95.96069812 -22.91737585 89.94268323 -29.62109375 83.46875 C-31.6991319 81.31223094 -33.49520872 79.16976481 -35.25 76.75 C-37.00461404 74.27226259 -37.00461404 74.27226259 -39 72 C-41.12274238 58.45058053 -42.80390187 39.36485823 -34.546875 27.68359375 C-30.06046508 22.8006577 -24.42231554 20.35856675 -18 19 C-16.68 19 -15.36 19 -14 19 C-14.03480469 18.34773438 -14.06960937 17.69546875 -14.10546875 17.0234375 C-14.27367994 11.59261899 -14.25288817 7.59891087 -11 3 C-7.39637838 0.07814463 -4.59860228 -0.59981769 0 0 Z " fill="#090909" transform="translate(203,155)"/>
<path d="M0 0 C0.75466553 0.02505615 1.50933105 0.0501123 2.28686523 0.07592773 C5.30380939 0.17520931 8.32080466 0.27277508 11.33782959 0.36956787 C12.73698071 0.4148356 14.13611028 0.46077414 15.53521729 0.50738525 C24.75087286 0.81396954 33.96384076 1.04345489 43.18359375 1.18359375 C45.99066729 1.23181243 48.79771885 1.28115907 51.60476685 1.33084106 C53.45273266 1.36029859 55.30079078 1.38444175 57.14889526 1.40328979 C59.75330049 1.4302407 62.35685507 1.47506154 64.9609375 1.5234375 C65.74597153 1.52665512 66.53100555 1.52987274 67.33982849 1.53318787 C69.51708984 1.58349609 69.51708984 1.58349609 73 2 C73.99 3.485 73.99 3.485 75 5 C63.49099698 5.05406914 51.9979268 4.94805627 40.49316406 4.62768555 C38.10491015 4.56194701 35.71655075 4.50248605 33.328125 4.44335938 C24.85499313 4.22096832 16.43911873 3.84474107 8 3 C9.11375 4.423125 9.11375 4.423125 10.25 5.875 C12.47398729 8.90209381 13.61921873 11.67966284 14.75 15.25 C16.09276423 18.95170071 16.09276423 18.95170071 19.1796875 21.19921875 C21.58981926 21.97041424 21.58981926 21.97041424 23.9765625 22.40234375 C26 23 26 23 28 26 C27.70295038 30.15869464 27.33061852 32.50407222 25 36 C23.16821289 36.37231445 23.16821289 36.37231445 20.97265625 36.36328125 C20.18052734 36.36263672 19.38839844 36.36199219 18.57226562 36.36132812 C17.74404297 36.34521484 16.91582031 36.32910156 16.0625 36.3125 C15.23814453 36.31572266 14.41378906 36.31894531 13.56445312 36.32226562 C7.40078221 36.26718814 7.40078221 36.26718814 4 34 C3.74118357 30.57068224 3.74504433 27.78447899 4.8125 24.5 C5.07799243 20.96010095 3.60513799 19.34818842 1.4375 16.64453125 C-2.44333569 12.20477085 -4.79835101 10.8444425 -10.6875 10.4375 C-11.64011719 10.41558594 -12.59273437 10.39367187 -13.57421875 10.37109375 C-14.37472656 10.24863281 -15.17523438 10.12617188 -16 10 C-16.66 9.01 -17.32 8.02 -18 7 C-9.86375209 6.38048874 -3.41038554 6.52525258 3 12 C6.08062997 15.52709808 8.76933302 18.84277638 9.27734375 23.59375 C9 26 9 26 7 29 C7 29.99 7 30.98 7 32 C12.94 32 18.88 32 25 32 C24.505 29.03 24.505 29.03 24 26 C23.39671875 25.87625 22.7934375 25.7525 22.171875 25.625 C15.75782713 23.96976184 15.75782713 23.96976184 13.6171875 21.23046875 C12.62322719 19.18384969 11.78709353 17.13407833 11 15 C7.82744217 7.71466772 7.82744217 7.71466772 1.75 3.1875 C1.1725 3.125625 0.595 3.06375 0 3 C0 2.01 0 1.02 0 0 Z " fill="#101010" transform="translate(232,250)"/>
<path d="M0 0 C2.35119399 3.52679099 2.21443452 5.02879485 2.125 9.1875 C2.10695313 10.27417969 2.08890625 11.36085937 2.0703125 12.48046875 C2.04710937 13.31191406 2.02390625 14.14335937 2 15 C2.928125 15.433125 3.85625 15.86625 4.8125 16.3125 C7.46835744 17.71854217 9.17676197 18.67030696 11 21 C11 21.66 11 22.32 11 23 C7.12925735 22.47692667 5.69586272 21.69586272 3 19 C-0.10007201 17.79950593 -0.10007201 17.79950593 -3 17 C-2.855625 16.15695313 -2.71125 15.31390625 -2.5625 14.4453125 C-2.2840625 12.80175781 -2.2840625 12.80175781 -2 11.125 C-1.7215625 9.48917969 -1.7215625 9.48917969 -1.4375 7.8203125 C-0.94890292 5.14628036 -0.94890292 5.14628036 -1 3 C-5.96911366 4.12697043 -5.96911366 4.12697043 -10 7 C-10.46162427 9.43252661 -10.46162427 9.43252661 -10.625 12.125 C-10.69976562 13.03507813 -10.77453125 13.94515625 -10.8515625 14.8828125 C-10.90054688 15.58148438 -10.94953125 16.28015625 -11 17 C-13.60109977 16.35854112 -16.17973076 15.67506897 -18.76367188 14.96337891 C-22.78625395 13.96098678 -26.62879822 13.68640004 -30.78125 13.5859375 C-31.48020386 13.56657135 -32.17915771 13.5472052 -32.89929199 13.5272522 C-35.09940964 13.4681785 -37.29958172 13.42136527 -39.5 13.375 C-41.00522929 13.33675343 -42.51043825 13.29769799 -44.015625 13.2578125 C-47.6768957 13.16253875 -51.33832122 13.07824644 -55 13 C-54.67 12.34 -54.34 11.68 -54 11 C-48.48082741 10.04040964 -43.03080274 9.80757523 -37.4375 9.8125 C-36.28145264 9.8115332 -36.28145264 9.8115332 -35.10205078 9.81054688 C-27.622685 9.87808065 -20.37473336 10.78175496 -13 12 C-13.05800781 10.90429688 -13.11601562 9.80859375 -13.17578125 8.6796875 C-13 5 -13 5 -11.79296875 3.2578125 C-4.63374515 -1.7937078 -4.63374515 -1.7937078 0 0 Z " fill="#0A0A0A" transform="translate(411,224)"/>
<path d="M0 0 C-0.33 0.66 -0.66 1.32 -1 2 C-2.32 2 -3.64 2 -5 2 C-5 2.66 -5 3.32 -5 4 C-4.360625 4.2475 -3.72125 4.495 -3.0625 4.75 C-1 6 -1 6 -0.25 7.6875 C0.16708565 11.54554222 0.47927342 15.37047037 -0.625 19.125 C-1.21518521 21.13431286 -1.21518521 21.13431286 0.0625 23.375 C1 26 1 26 0.4375 29.1875 C-1 32 -1 32 -3.625 33.375 C-4.40875 33.58125 -5.1925 33.7875 -6 34 C-6 31 -6 31 -4 28.8125 C-3.01 27.9153125 -3.01 27.9153125 -2 27 C-2.515625 26.113125 -3.03125 25.22625 -3.5625 24.3125 C-5.08979002 20.79309257 -5.21675714 19.548875 -4 16 C-3.67 15.67 -3.34 15.34 -3 15 C-3.66 14.67 -4.32 14.34 -5 14 C-4.42415568 11.61435923 -3.77772405 9.33317216 -3 7 C-8.60944292 3.85871197 -14.68146331 2.77369837 -21 2 C-20.67 1.34 -20.34 0.68 -20 0 C-17.22949974 -0.1946838 -14.45886998 -0.38102792 -11.6875 -0.5625 C-10.90181641 -0.61857422 -10.11613281 -0.67464844 -9.30664062 -0.73242188 C-8.1706543 -0.80493164 -8.1706543 -0.80493164 -7.01171875 -0.87890625 C-6.31522217 -0.9260376 -5.61872559 -0.97316895 -4.90112305 -1.02172852 C-3 -1 -3 -1 0 0 Z " fill="#030303" transform="translate(546,222)"/>
<path d="M0 0 C1.60294922 0.04060547 1.60294922 0.04060547 3.23828125 0.08203125 C4.04652344 0.11683594 4.85476562 0.15164062 5.6875 0.1875 C5.3575 1.1775 5.0275 2.1675 4.6875 3.1875 C3.92824219 3.22488281 3.16898438 3.26226562 2.38671875 3.30078125 C1.39285156 3.36652344 0.39898437 3.43226563 -0.625 3.5 C-1.61113281 3.55800781 -2.59726563 3.61601562 -3.61328125 3.67578125 C-6.28567232 4.00086785 -6.28567232 4.00086785 -8.11328125 5.38671875 C-9.73438426 7.82101349 -9.93006222 9.78547409 -10.1875 12.6875 C-10.28804687 13.6465625 -10.38859375 14.605625 -10.4921875 15.59375 C-10.50095735 18.15314354 -10.50095735 18.15314354 -9.30078125 19.98828125 C-6.25464342 21.82553924 -3.08988558 21.76176845 0.375 21.875 C1.4278418 21.92624023 1.4278418 21.92624023 2.50195312 21.97851562 C4.22991387 22.06079947 5.95868072 22.1258324 7.6875 22.1875 C7.6875 23.1775 7.6875 24.1675 7.6875 25.1875 C-7.07348177 25.66796595 -7.07348177 25.66796595 -11.98046875 21.91015625 C-14.57556821 18.55403056 -13.65559012 14.22493552 -13.3125 10.1875 C-12.21069967 3.87718903 -12.21069967 3.87718903 -9.125 1.5078125 C-5.83161141 -0.03825048 -3.61700486 -0.11924192 0 0 Z " fill="#121212" transform="translate(204.3125,197.8125)"/>
<path d="M0 0 C8.13624791 -0.61951126 14.58961446 -0.47474742 21 5 C24.14429593 8.59999099 26.88477524 11.89640955 27.15234375 16.78125 C27.10207031 17.5134375 27.05179688 18.245625 27 19 C25.68 19.33 24.36 19.66 23 20 C22.87625 18.4221875 22.87625 18.4221875 22.75 16.8125 C21.92300555 12.60861155 20.94950906 11.03143987 18 8 C17.319375 7.2575 16.63875 6.515 15.9375 5.75 C12.09243213 3.45932127 8.84256029 3.4726976 4.42578125 3.37109375 C3.22501953 3.18740234 3.22501953 3.18740234 2 3 C1.34 2.01 0.68 1.02 0 0 Z " fill="#1D1D1D" transform="translate(214,257)"/>
<path d="M0 0 C0.99 0.33 1.98 0.66 3 1 C2.3897536 5.14967549 0.99267393 8.32121736 -1 12 C-1.7115625 13.3921875 -1.7115625 13.3921875 -2.4375 14.8125 C-4 17 -4 17 -6.1875 17.8125 C-6.785625 17.874375 -7.38375 17.93625 -8 18 C-7.67 20.31 -7.34 22.62 -7 25 C-8.32 24.34 -9.64 23.68 -11 23 C-11 19.7 -11 16.4 -11 13 C-8.03 13.495 -8.03 13.495 -5 14 C-5 12.68 -5 11.36 -5 10 C-4.01 10 -3.02 10 -2 10 C-2.226875 9.443125 -2.45375 8.88625 -2.6875 8.3125 C-3.12446199 5.07898125 -1.78001197 3.63441772 0 1 C0 0.67 0 0.34 0 0 Z " fill="#020202" transform="translate(441,236)"/>
<path d="M0 0 C0.66 0.33 1.32 0.66 2 1 C0.125 5.75 0.125 5.75 -1 8 C-0.7215625 8.928125 -0.7215625 8.928125 -0.4375 9.875 C0 12 0 12 -0.9375 13.75 C-2.55389504 17.1729542 -2.12535919 20.23922443 -2 24 C-3.98 24.99 -3.98 24.99 -6 26 C-6.66 25.34 -7.32 24.68 -8 24 C-7.484375 23.67 -6.96875 23.34 -6.4375 23 C-4.66165278 20.52925604 -4.97146029 19.85554407 -5.4375 16.9375 C-5.623125 15.638125 -5.80875 14.33875 -6 13 C-5.34 12.34 -4.68 11.68 -4 11 C-4.32326553 7.40320934 -4.32326553 7.40320934 -5 4 C-4.01 4 -3.02 4 -2 4 C-1.34 2.68 -0.68 1.36 0 0 Z " fill="#000000" transform="translate(469,230)"/>
<path d="M0 0 C0.33 0 0.66 0 1 0 C1.33 4.95 1.66 9.9 2 15 C2.66 15 3.32 15 4 15 C5.32 19.95 6.64 24.9 8 30 C7.34 30 6.68 30 6 30 C5.505 32.475 5.505 32.475 5 35 C4.67 35 4.34 35 4 35 C3.896875 33.865625 3.79375 32.73125 3.6875 31.5625 C3.32311188 28.47055962 2.63850392 25.98588199 1.4375 23.125 C-1.21119158 15.86038475 -0.22162454 7.60910911 0 0 Z " fill="#1C1C1C" transform="translate(425,220)"/>
<path d="M0 0 C-0.33 0.99 -0.66 1.98 -1 3 C-9.91 3 -18.82 3 -28 3 C-28 2.34 -28 1.68 -28 1 C-25.02097935 0.83028977 -22.04182744 0.66416249 -19.0625 0.5 C-18.23169922 0.45230469 -17.40089844 0.40460938 -16.54492188 0.35546875 C-11.02067678 0.05453711 -5.53245695 -0.04466161 0 0 Z " fill="#010101" transform="translate(220,229)"/>
<path d="M0 0 C1 3 1 3 1 6 C3.83269666 7.41634833 6.47466438 7.3463005 9.625 7.5625 C10.81351563 7.64628906 12.00203125 7.73007812 13.2265625 7.81640625 C14.59941406 7.90728516 14.59941406 7.90728516 16 8 C16 8.66 16 9.32 16 10 C13.5622037 10.05397335 11.12560315 10.09365616 8.6875 10.125 C7.65206055 10.15013672 7.65206055 10.15013672 6.59570312 10.17578125 C2.82864604 10.21217794 1.21568296 10.14378864 -2 8 C-2.1875 4.375 -2.1875 4.375 -2 1 C-1.34 0.67 -0.68 0.34 0 0 Z " fill="#060606" transform="translate(238,276)"/>
<path d="M0 0 C3.3 0 6.6 0 10 0 C10 0.33 10 0.66 10 1 C16.6 1.33 23.2 1.66 30 2 C30 2.33 30 2.66 30 3 C19.77 3 9.54 3 -1 3 C-0.67 2.01 -0.34 1.02 0 0 Z " fill="#1F1F1F" transform="translate(546,221)"/>
<path d="M0 0 C0.66 0.66 1.32 1.32 2 2 C1.69903201 6.13830989 1.32101984 8.51847024 -1 12 C-1.66 12 -2.32 12 -3 12 C-2.835 10.906875 -2.67 9.81375 -2.5 8.6875 C-1.93281816 5.12474127 -1.93281816 5.12474127 -2 2 C-1.34 1.34 -0.68 0.68 0 0 Z " fill="#000000" transform="translate(518,241)"/>
<path d="M0 0 C0.625 1.8125 0.625 1.8125 1 4 C0.01 5.485 0.01 5.485 -1 7 C-1.99 7 -2.98 7 -4 7 C-4 6.34 -4 5.68 -4 5 C-8.29 5 -12.58 5 -17 5 C-17 4.67 -17 4.34 -17 4 C-9.08 3.505 -9.08 3.505 -1 3 C-0.67 2.01 -0.34 1.02 0 0 Z " fill="#424242" transform="translate(258,279)"/>
<path d="M0 0 C-0.33 1.32 -0.66 2.64 -1 4 C-1.66 4 -2.32 4 -3 4 C-3.33 4.99 -3.66 5.98 -4 7 C-4.99 7 -5.98 7 -7 7 C-3.86206897 0 -3.86206897 0 0 0 Z " fill="#1A1A1A" transform="translate(196,254)"/>
<path d="M0 0 C2.4375 0.8125 2.4375 0.8125 5 2 C5.33 2.99 5.66 3.98 6 5 C3 5 3 5 0.8125 3 C0.214375 2.34 -0.38375 1.68 -1 1 C-0.67 0.67 -0.34 0.34 0 0 Z " fill="#000000" transform="translate(565,255)"/>
<path d="M0 0 C2.31 0 4.62 0 7 0 C6.67 0.99 6.34 1.98 6 3 C3.69 3 1.38 3 -1 3 C-0.67 2.01 -0.34 1.02 0 0 Z " fill="#222222" transform="translate(213,229)"/>
<path d="M0 0 C0.99 0 1.98 0 3 0 C3 1.65 3 3.3 3 5 C1.68 5 0.36 5 -1 5 C-0.67 3.35 -0.34 1.7 0 0 Z " fill="#020202" transform="translate(226,194)"/>
</svg>
