<?xml version="1.0" encoding="UTF-8"?>
<svg version="1.1" xmlns="http://www.w3.org/2000/svg" width="800" height="300">
<path d="M0 0 C264 0 528 0 800 0 C800 99 800 198 800 300 C536 300 272 300 0 300 C0 201 0 102 0 0 Z " fill="#FEFEFE" transform="translate(0,0)"/>
<path d="M0 0 C4.37356702 0.5085543 7.50480992 1.26052669 11 4 C12.96457553 7.25171122 14 9.18692647 14 13 C22.58 13 31.16 13 40 13 C40.66 9.7 41.32 6.4 42 3 C42.66 2.01 43.32 1.02 44 0 C49.42882581 -0.98855705 55.31549941 -1.00107436 60.125 1.9375 C64.35326274 5.7905862 64.78108939 10.9273539 65.17325211 16.43177986 C65.24424654 19.05472632 65.2477364 21.66939907 65.22705078 24.29321289 C65.22734283 25.27963776 65.22763489 26.26606262 65.22793579 27.28237915 C65.22655284 30.51256393 65.21104062 33.74251223 65.1953125 36.97265625 C65.19157869 39.2242368 65.18873346 41.47581898 65.18673706 43.72740173 C65.1791296 49.63089547 65.15950602 55.53428956 65.1373291 61.43774414 C65.11680833 67.47085218 65.10772205 73.50397644 65.09765625 79.53710938 C65.07625731 91.3581165 65.0421564 103.17904994 65 115 C62.55517578 114.2175293 62.55517578 114.2175293 60 113 C59.70867187 111.85144531 59.41734375 110.70289063 59.1171875 109.51953125 C58.74851562 108.35808594 58.37984375 107.19664062 58 106 C54.91333469 104.34585839 54.91333469 104.34585839 51.125 103.6875 C50.46040771 103.53635742 49.79581543 103.38521484 49.11108398 103.22949219 C47.07978273 102.78030175 45.04503842 102.38136262 43 102 C41.79214844 101.77441406 40.58429688 101.54882812 39.33984375 101.31640625 C36.56389627 100.83665371 33.7891302 100.39473724 31 100 C32.42673359 102.88634122 33.90494836 105.54445319 36 108 C39.55652459 108.90137027 39.55652459 108.90137027 43 109 C45.09807076 110.56365651 45.88333597 111.59905969 46.6171875 114.12109375 C46.70226562 114.88550781 46.78734375 115.64992188 46.875 116.4375 C46.97554687 117.19933594 47.07609375 117.96117187 47.1796875 118.74609375 C46.94204234 121.72699068 46.10543046 122.89912675 44 125 C38.18814266 127.33693564 32.79289053 127.43301402 27 125 C24.8046875 123.75 24.8046875 123.75 23 122 C22.75 119.51171875 22.75 119.51171875 23 116.6875 C23.19130762 111.50169707 22.46208099 109.03909449 19 105 C15.94847281 101.40996801 14.27321884 98.56236752 13 94 C12.34 94 11.68 94 11 94 C10.67 93.34 10.34 92.68 10 92 C8.22403955 91.33975078 8.22403955 91.33975078 6.0625 90.9375 C4.84046875 90.68033203 4.84046875 90.68033203 3.59375 90.41796875 C1.06334774 90.01020815 -1.37952767 89.86737531 -3.9375 89.75 C-9.93793657 89.23594391 -14.16231306 86.40270698 -19 83 C-19.99 82.319375 -20.98 81.63875 -22 80.9375 C-24.24676478 78.76094662 -24.97455557 76.9185726 -26 74 C-26.66 73.67 -27.32 73.34 -28 73 C-30.80116824 66.12557337 -31.28702519 58.95500175 -31.3125 51.625 C-31.31781738 50.86453369 -31.32313477 50.10406738 -31.32861328 49.32055664 C-31.27218314 44.82149062 -30.62911252 41.24538243 -29 37 C-28.81179688 36.23816406 -28.62359375 35.47632813 -28.4296875 34.69140625 C-26.74778847 28.23623039 -23.60334369 24.57722115 -18 21 C-13.55859529 18.95404143 -9.903183 18 -5 18 C-5.103125 16.88625 -5.20625 15.7725 -5.3125 14.625 C-5.3625998 9.03386248 -2.71971933 4.74008226 0 0 Z " fill="#FCFCFC" transform="translate(735,155)"/>
<path d="M0 0 C0 0.99 0 1.98 0 3 C-0.97839844 3.25523437 -0.97839844 3.25523437 -1.9765625 3.515625 C-10.70438755 5.79760769 -10.70438755 5.79760769 -17.1796875 11.75390625 C-21.03176636 18.93789273 -22.37706129 26.31129494 -22.3125 34.375 C-22.30686035 35.11741943 -22.3012207 35.85983887 -22.29541016 36.62475586 C-22.04841651 47.83606638 -18.60466859 55.39533141 -10.6875 63.3125 C-1.77159864 68.91085667 8.77518934 69.06244994 19 70 C19.27199219 70.886875 19.54398438 71.77375 19.82421875 72.6875 C22.0070763 78.83721164 25.52203861 84.46092504 29.8125 89.375 C31.79975605 91.75970726 32.65102136 92.97551847 33 96 C32.01 96.33 31.02 96.66 30 97 C30.91013368 100.06135874 31.70874038 101.74300621 34.125 103.875 C38.23265414 105.48234293 40.68490352 104.9047783 45 104 C45.99 103.34 46.98 102.68 48 102 C47.505 98.535 47.505 98.535 47 95 C45.741875 94.95875 44.48375 94.9175 43.1875 94.875 C40.97265625 94.6171875 40.97265625 94.6171875 39 94 C37.125 91 37.125 91 36 88 C35.01 87.505 35.01 87.505 34 87 C33.71125 86.071875 33.4225 85.14375 33.125 84.1875 C31.91998758 80.77329813 30.54995558 79.46495706 28 77 C28 76.01 28 75.02 28 74 C28.66 74 29.32 74 30 74 C30 74.99 30 75.98 30 77 C34.84293539 78.26246597 39.77678699 79.00584785 44.71289062 79.80664062 C48.74006561 80.49023321 52.21640623 81.41927039 56 83 C57.92792077 83.42148875 59.8665317 83.79676438 61.8125 84.125 C62.78832031 84.29257812 63.76414062 84.46015625 64.76953125 84.6328125 C65.87361328 84.81457031 65.87361328 84.81457031 67 85 C66.9071875 86.670625 66.9071875 86.670625 66.8125 88.375 C66.9053125 90.169375 66.9053125 90.169375 67 92 C68.485 92.99 68.485 92.99 70 94 C69.505 95.485 69.505 95.485 69 97 C66.5625 95.875 66.5625 95.875 64 94 C63.33984375 90.8828125 63.33984375 90.8828125 63 88 C54.05058909 85.48144994 45.22431907 83.30549022 36 82 C37.42673359 84.88634122 38.90494836 87.54445319 41 90 C44.55652459 90.90137027 44.55652459 90.90137027 48 91 C50.09807076 92.56365651 50.88333597 93.59905969 51.6171875 96.12109375 C51.70226562 96.88550781 51.78734375 97.64992188 51.875 98.4375 C51.97554687 99.19933594 52.07609375 99.96117187 52.1796875 100.74609375 C51.94204234 103.72699068 51.10543046 104.89912675 49 107 C43.18814266 109.33693564 37.79289053 109.43301402 32 107 C29.8046875 105.75 29.8046875 105.75 28 104 C27.75 101.51171875 27.75 101.51171875 28 98.6875 C28.19130762 93.50169707 27.46208099 91.03909449 24 87 C20.94847281 83.40996801 19.27321884 80.56236752 18 76 C17.34 76 16.68 76 16 76 C15.67 75.34 15.34 74.68 15 74 C13.22403955 73.33975078 13.22403955 73.33975078 11.0625 72.9375 C9.84046875 72.68033203 9.84046875 72.68033203 8.59375 72.41796875 C6.06334774 72.01020815 3.62047233 71.86737531 1.0625 71.75 C-4.93793657 71.23594391 -9.16231306 68.40270698 -14 65 C-14.99 64.319375 -15.98 63.63875 -17 62.9375 C-19.24676478 60.76094662 -19.97455557 58.9185726 -21 56 C-21.66 55.67 -22.32 55.34 -23 55 C-25.80116824 48.12557337 -26.28702519 40.95500175 -26.3125 33.625 C-26.31781738 32.86453369 -26.32313477 32.10406738 -26.32861328 31.32055664 C-26.27218314 26.82149062 -25.62911252 23.24538243 -24 19 C-23.81179688 18.23816406 -23.62359375 17.47632813 -23.4296875 16.69140625 C-21.74778847 10.23623039 -18.60334369 6.57722115 -13 3 C-8.55859529 0.95404143 -4.903183 0 0 0 Z " fill="#131313" transform="translate(730,173)"/>
<path d="M0 0 C4.37356702 0.5085543 7.50480992 1.26052669 11 4 C12.96457553 7.25171122 14 9.18692647 14 13 C22.58 13 31.16 13 40 13 C40.66 9.7 41.32 6.4 42 3 C42.66 2.01 43.32 1.02 44 0 C49.34563123 -0.97340781 55.30336788 -0.98191841 60.125 1.75 C64.07469392 5.04621658 64.25162742 9.69051719 64.80859375 14.55078125 C64.87175781 15.35902344 64.93492187 16.16726562 65 17 C63.35 17 61.7 17 60 17 C60.04640625 16.39671875 60.0928125 15.7934375 60.140625 15.171875 C60.30978539 11.42618054 60.42242096 8.78723907 58.625 5.4375 C54.45216495 3.15237604 50.70790603 3.75221547 46 4 C44.68 7.96 43.36 11.92 42 16 C32.1 16 22.2 16 12 16 C10.68 12.7 9.36 9.4 8 6 C4.45562879 3.78520009 4.45562879 3.78520009 1 3 C0.49411853 4.91512272 -0.00448391 6.83216922 -0.5 8.75 C-0.7784375 9.81734375 -1.056875 10.8846875 -1.34375 11.984375 C-2.14175989 15.13705302 -2.14175989 15.13705302 -2 19 C-2.99 18.67 -3.98 18.34 -5 18 C-5.67090715 10.75420281 -3.58125682 6.24161903 0 0 Z " fill="#131313" transform="translate(735,155)"/>
<path d="M0 0 C0 0.99 0 1.98 0 3 C-1.22976563 3.19916016 -1.22976563 3.19916016 -2.484375 3.40234375 C-4.10085938 3.66724609 -4.10085938 3.66724609 -5.75 3.9375 C-7.35101562 4.19853516 -7.35101562 4.19853516 -8.984375 4.46484375 C-11.36347593 4.88704171 -13.66915211 5.37202884 -16 6 C-16.05416188 7.60379341 -16.09286638 9.20811406 -16.125 10.8125 C-16.15980469 12.15248047 -16.15980469 12.15248047 -16.1953125 13.51953125 C-16.18285827 16.25402714 -16.18285827 16.25402714 -14 19 C-11.23434618 19.92188461 -9.61716298 20.11785222 -6.76953125 20.09765625 C-5.96708984 20.09443359 -5.16464844 20.09121094 -4.33789062 20.08789062 C-3.50451172 20.07951172 -2.67113281 20.07113281 -1.8125 20.0625 C-0.5450293 20.05573242 -0.5450293 20.05573242 0.74804688 20.04882812 C2.83206155 20.03705403 4.91603977 20.0191189 7 20 C7 20.99 7 21.98 7 23 C-1.01273087 25.31064797 -10.49614645 24.75192677 -18 21 C-19.71915863 15.84252412 -19.50112854 10.35530412 -18.375 5.0625 C-14.11920065 -1.32119902 -6.80306821 -0.3268378 0 0 Z " fill="#0E0E0E" transform="translate(748,192)"/>
<path d="M0 0 C12.88703426 -0.95224391 12.88703426 -0.95224391 17.73046875 3.08984375 C20.44610389 7.17583016 20.62601898 12.21456943 21 17 C19.35 17 17.7 17 16 17 C16.06960938 16.09507812 16.06960938 16.09507812 16.140625 15.171875 C16.17671875 14.37265625 16.2128125 13.5734375 16.25 12.75 C16.29640625 11.96109375 16.3428125 11.1721875 16.390625 10.359375 C15.84197678 7.04553977 14.69337602 5.96003106 12 4 C9.02553277 3.48068918 9.02553277 3.48068918 5.875 3.6875 C4.82054687 3.71199219 3.76609375 3.73648438 2.6796875 3.76171875 C0.0298271 3.83248856 0.0298271 3.83248856 -2 5 C-1.34 3.35 -0.68 1.7 0 0 Z " fill="#202020" transform="translate(779,155)"/>
<path d="M0 0 C3.02089478 -0.02716089 6.04154129 -0.04691657 9.0625 -0.0625 C9.91005859 -0.07087891 10.75761719 -0.07925781 11.63085938 -0.08789062 C16.5361722 -0.10683006 21.16444755 0.16673655 26 1 C26 1.99 26 2.98 26 4 C13.13 3.505 13.13 3.505 0 3 C0 2.01 0 1.02 0 0 Z " fill="#1A1A1A" transform="translate(733,228)"/>
<path d="M0 0 C2.38564077 0.57584432 4.66682784 1.22227595 7 2 C8.89212737 2.22179785 10.78884472 2.40614015 12.6875 2.5625 C13.68136719 2.64628906 14.67523437 2.73007813 15.69921875 2.81640625 C16.83810547 2.90728516 16.83810547 2.90728516 18 3 C18.33 2.01 18.66 1.02 19 0 C20.32 0 21.64 0 23 0 C23 0.66 23 1.32 23 2 C22.01 2.495 22.01 2.495 21 3 C20.67 3.99 20.34 4.98 20 6 C7.35771221 6.40134247 7.35771221 6.40134247 2 4 C0.74609375 1.921875 0.74609375 1.921875 0 0 Z " fill="#1A1A1A" transform="translate(777,244)"/>
<path d="M0 0 C0 0.99 0 1.98 0 3 C-1.56159059 3.48212214 -3.12431928 3.96055873 -4.6875 4.4375 C-5.55761719 4.70433594 -6.42773438 4.97117188 -7.32421875 5.24609375 C-9.87025921 5.96344529 -12.4003423 6.517541 -15 7 C-14.01269344 4.43087971 -13.46442081 3.24027949 -10.9765625 1.953125 C-9.81253906 1.60507813 -9.81253906 1.60507813 -8.625 1.25 C-7.85414063 1.00765625 -7.08328125 0.7653125 -6.2890625 0.515625 C-4 0 -4 0 0 0 Z " fill="#0D0D0D" transform="translate(730,173)"/>
<path d="M0 0 C3.63 0 7.26 0 11 0 C11 0.99 11 1.98 11 3 C6.71 3.66 2.42 4.32 -2 5 C-1.34 3.35 -0.68 1.7 0 0 Z " fill="#1D1D1D" transform="translate(737,192)"/>
<path d="M0 0 C0.53109375 0.13277344 1.0621875 0.26554688 1.609375 0.40234375 C2.79273438 0.69818359 2.79273438 0.69818359 4 1 C6.08333333 1.52083333 8.16666667 2.04166667 10.25 2.5625 C11.86648438 2.96662109 11.86648438 2.96662109 13.515625 3.37890625 C14.33546875 3.58386719 15.1553125 3.78882813 16 4 C16 4.33 16 4.66 16 5 C4.89635502 5.38808856 4.89635502 5.38808856 1 3 C0.67 2.01 0.34 1.02 0 0 Z " fill="#040404" transform="translate(777,244)"/>
<path d="M0 0 C0.66 0 1.32 0 2 0 C2.33 0.99 2.66 1.98 3 3 C3.33 2.01 3.66 1.02 4 0 C4.66 0 5.32 0 6 0 C5.67 2.31 5.34 4.62 5 7 C3.35 6.67 1.7 6.34 0 6 C0 4.02 0 2.04 0 0 Z " fill="#0E0E0E" transform="translate(757,237)"/>
<path d="M0 0 C0.66 0.33 1.32 0.66 2 1 C-0.19471406 5.51135667 -2.41173718 7.06273348 -7 9 C-5.44499019 5.18315774 -2.96404505 2.80804268 0 0 Z " fill="#2A2A2A" transform="translate(715,177)"/>
<path d="M0 0 C1.65 0 3.3 0 5 0 C4.67 1.32 4.34 2.64 4 4 C2.68 4 1.36 4 0 4 C0 2.68 0 1.36 0 0 Z " fill="#0A0A0A" transform="translate(724,189)"/>
<path d="M0 0 C0 1.32 0 2.64 0 4 C-1.65 3.67 -3.3 3.34 -5 3 C-5 2.34 -5 1.68 -5 1 C-3 0 -3 0 0 0 Z " fill="#121212" transform="translate(773,188)"/>
</svg>
