<?xml version="1.0" encoding="UTF-8"?>
<svg version="1.1" xmlns="http://www.w3.org/2000/svg" width="800" height="300">
<path d="M0 0 C264 0 528 0 800 0 C800 99 800 198 800 300 C536 300 272 300 0 300 C0 201 0 102 0 0 Z " fill="#FEFEFE" transform="translate(0,0)"/>
<path d="M0 0 C1.66796875 1.07421875 1.66796875 1.07421875 3 3 C3.29296875 6.35546875 3.29296875 6.35546875 3.1875 10.1875 C3.14689453 12.09595703 3.14689453 12.09595703 3.10546875 14.04296875 C3.07066406 15.01878906 3.03585938 15.99460938 3 17 C3.79696289 16.99476318 4.59392578 16.98952637 5.41503906 16.98413086 C9.02668469 16.963341 12.63831771 16.95033339 16.25 16.9375 C18.13138672 16.92493164 18.13138672 16.92493164 20.05078125 16.91210938 C21.85869141 16.90727539 21.85869141 16.90727539 23.703125 16.90234375 C25.36843262 16.89448853 25.36843262 16.89448853 27.06738281 16.88647461 C29.57157379 16.98341507 31.6181156 17.26769724 34 18 C33.95359375 17.18015625 33.9071875 16.3603125 33.859375 15.515625 C33.82328125 14.43796875 33.7871875 13.3603125 33.75 12.25 C33.70359375 11.18265625 33.6571875 10.1153125 33.609375 9.015625 C34 6 34 6 35.76171875 3.60546875 C38 2 38 2 40.03515625 1.72265625 C45.40422011 2.62267273 45.40422011 2.62267273 47.875 4.1875 C51.58419301 10.16342207 51.21761878 16.20545817 51 23 C51.9178125 23.07476562 52.835625 23.14953125 53.78125 23.2265625 C57.67054437 24.16112595 58.37392236 25.0712421 60.5 28.375 C61.37398437 29.73238281 61.37398437 29.73238281 62.265625 31.1171875 C62.83796875 32.06851563 63.4103125 33.01984375 64 34 C64.55171875 34.91007812 65.1034375 35.82015625 65.671875 36.7578125 C71.38582104 46.68650091 73.37128857 56.35913585 74.9987793 67.57617188 C75.11519775 68.37603516 75.23161621 69.17589844 75.3515625 70 C75.45291504 70.721875 75.55426758 71.44375 75.65869141 72.1875 C75.93149605 74.0913008 75.93149605 74.0913008 77 76 C79.32156597 76.40729228 81.6568787 76.74438677 84 77 C84 77.66 84 78.32 84 79 C86.77254755 80.38627378 89.02443742 80.12722529 92.12695312 80.12939453 C94.0603656 80.13412277 94.0603656 80.13412277 96.03283691 80.13894653 C97.44897495 80.13715519 98.86511268 80.13510385 100.28125 80.1328125 C101.73417171 80.13348637 103.18709332 80.13445709 104.64001465 80.13571167 C107.69328886 80.13718847 110.74653387 80.13503715 113.79980469 80.13037109 C117.68866596 80.12471427 121.57745759 80.12792698 125.46631622 80.13394356 C128.47258005 80.13758439 131.47882781 80.13639383 134.48509216 80.13381577 C135.91702788 80.13315409 137.3489651 80.13394803 138.78089905 80.13629532 C145.87487483 80.14536059 152.87511049 80.08594965 159.92353821 79.23048401 C163.50642064 78.83278967 167.08584419 78.80925453 170.6875 78.8125 C171.4491748 78.81185547 172.21084961 78.81121094 172.99560547 78.81054688 C180.43983789 78.87854485 187.66001586 79.78749525 195 81 C194.94585937 79.90429688 194.89171875 78.80859375 194.8359375 77.6796875 C195 74 195 74 197.625 71.125 C200.96505371 69.02200322 203.1062425 68.27812554 207 68 C210.13107836 71.38583802 210.33550778 73.71109462 210.1875 78.25 C210.14689453 79.86648437 210.14689453 79.86648437 210.10546875 81.515625 C210.07066406 82.33546875 210.03585937 83.1553125 210 84 C210.928125 84.433125 211.85625 84.86625 212.8125 85.3125 C217.62420382 87.85987261 217.62420382 87.85987261 219 90 C219.52352227 93.96381151 219.11749808 96.64097808 217.875 100.4375 C213.12349328 104.6725386 207.10790882 103.3187815 201 103 C195.61211865 102.60628798 190.24622452 102.07356363 184.875 101.5 C182.79919998 101.28401243 180.72321203 101.07005314 178.64700317 100.85803223 C176.79015795 100.66758065 174.93387619 100.47165832 173.07763672 100.27539062 C169.85097526 99.94058326 169.85097526 99.94058326 166 100 C166.47050781 100.56847656 166.94101562 101.13695312 167.42578125 101.72265625 C173.13411736 108.8019385 173.13411736 108.8019385 174.625 112.8125 C175.77233599 116.16546652 175.77233599 116.16546652 178.6875 118.125 C181 120 181 120 181.5625 122.5 C180.81547109 125.82012849 179.65728667 126.89613171 177 129 C170.32654836 130.09499788 163.66276048 129.88303576 158 126 C158.40482192 122.5590137 158.78191087 119.5209907 160.125 116.3125 C161.15274295 114.06986698 161.15274295 114.06986698 160.875 111.8125 C159.64470869 109.26403943 158.66761932 108.9823614 156 108 C153.20385578 107.78030295 150.54371409 107.66726007 147.75 107.6875 C146.98945313 107.69096436 146.22890625 107.69442871 145.4453125 107.69799805 C140.0469943 107.8029267 135.78156259 108.31037104 131 111 C130.67 111.99 130.34 112.98 130 114 C130.33 114.33 130.66 114.66 131 115 C130.75034008 118.80731379 130.49405698 121.89563733 128.9375 125.375 C124.71760348 128.91426805 119.53814263 129.23277863 114.25 128.875 C111.38643105 128.43406983 109.91411471 127.9488778 107.375 126.4375 C105.71029867 123.48643855 105.71026461 121.35069391 106.32421875 118.0390625 C107.52111405 114.42762118 109.17280151 112.57018045 112 110 C114.8125 109.625 114.8125 109.625 117 110 C117.0825 109.278125 117.165 108.55625 117.25 107.8125 C118.1481065 104.44460063 119.77875936 102.64327637 122 100 C121.10321533 100.00523682 120.20643066 100.01047363 119.2824707 100.01586914 C101.51488089 100.10472396 83.76225224 100.03986152 66 99.5625 C65.23007721 99.54285187 64.46015442 99.52320374 63.66690063 99.50296021 C54.75084059 99.27073694 45.88102419 98.87163231 37 98 C37.7425 98.94875 38.485 99.8975 39.25 100.875 C41.47398729 103.90209381 42.61921873 106.67966284 43.75 110.25 C45.09276423 113.95170071 45.09276423 113.95170071 48.1796875 116.19921875 C50.58981926 116.97041424 50.58981926 116.97041424 52.9765625 117.40234375 C55 118 55 118 57 121 C56.70295038 125.15869464 56.33061852 127.50407222 54 131 C52.16821289 131.37231445 52.16821289 131.37231445 49.97265625 131.36328125 C49.18052734 131.36263672 48.38839844 131.36199219 47.57226562 131.36132812 C46.74404297 131.34521484 45.91582031 131.32910156 45.0625 131.3125 C44.23814453 131.31572266 43.41378906 131.31894531 42.56445312 131.32226562 C36.40078221 131.26718814 36.40078221 131.26718814 33 129 C32.74118357 125.57068224 32.74504433 122.78447899 33.8125 119.5 C34.07342332 116.02102235 32.64460169 114.47239916 30.6171875 111.74609375 C27.6608016 108.5540539 25.41757969 106.23595363 21.01953125 105.50390625 C9.38431408 105.71648634 0.4753746 107.5053193 -8 116 C-8.33 116.99 -8.66 117.98 -9 119 C-8.01 119.33 -7.02 119.66 -6 120 C-6.09580122 122.92193714 -6.20258179 125.23088334 -7 128 C-11.49274312 131.99354944 -17.26842767 131.32073976 -22.9765625 131.30078125 C-25.86111799 131.01381643 -27.55500569 130.49681359 -30 129 C-30.48648649 121.7027027 -30.48648649 121.7027027 -28.3125 118.5625 C-26 117 -26 117 -23.5 116.75 C-22.675 116.5025 -21.85 116.255 -21 116 C-20.03327802 114.13322652 -19.08044541 112.25649467 -18.234375 110.33203125 C-15.30802987 104.80346149 -10.42171286 100.36661363 -6 96 C-6.59425781 96.03222656 -7.18851563 96.06445312 -7.80078125 96.09765625 C-17.58567861 95.96069812 -22.91737585 89.94268323 -29.62109375 83.46875 C-31.6991319 81.31223094 -33.49520872 79.16976481 -35.25 76.75 C-37.00461404 74.27226259 -37.00461404 74.27226259 -39 72 C-41.12274238 58.45058053 -42.80390187 39.36485823 -34.546875 27.68359375 C-30.06046508 22.8006577 -24.42231554 20.35856675 -18 19 C-16.68 19 -15.36 19 -14 19 C-14.03480469 18.34773438 -14.06960937 17.69546875 -14.10546875 17.0234375 C-14.27367994 11.59261899 -14.25288817 7.59891087 -11 3 C-7.39637838 0.07814463 -4.59860228 -0.59981769 0 0 Z " fill="#F9F9F9" transform="translate(203,155)"/>
<path d="M0 0 C2.6875 -0.3125 2.6875 -0.3125 6 0 C6.65484375 0.82371094 7.3096875 1.64742187 7.984375 2.49609375 C12.5652212 6.2996202 16.79729447 5.57827168 22.5625 5.375 C23.56474609 5.36082031 24.56699219 5.34664062 25.59960938 5.33203125 C30.47519469 5.2414631 35.34076995 5.04623593 40.20825195 4.75537109 C54.45235002 3.91878154 68.67682983 3.84573931 82.94213867 3.86962891 C85.67653585 3.87416195 88.4108666 3.87421517 91.14526367 3.86962891 C100.43094505 3.85414611 109.7147567 3.89399703 119 4 C120.89718781 4.01987976 120.89718781 4.01987976 122.83270264 4.04016113 C126.4714204 4.08922994 130.10817747 4.16795371 133.74609375 4.2578125 C135.34216209 4.27822098 135.34216209 4.27822098 136.97047424 4.29904175 C147.76141846 4.63593906 157.23194941 7.126133 165.1015625 14.796875 C168.08119031 18.25471468 170.07594107 21.88307979 172 26 C172.5878125 27.06347656 172.5878125 27.06347656 173.1875 28.1484375 C176.97476175 35.43365628 176.77162077 42.60176161 175.375 50.5625 C169.6875 64.78125 169.6875 64.78125 163.4375 67.625 C157.70072769 69.69064707 152.18507829 70.14951793 146.12109375 70.1328125 C145.35992249 70.13413177 144.59875122 70.13545105 143.81451416 70.1368103 C141.35546728 70.1387179 138.89653518 70.13241583 136.4375 70.125 C135.60618561 70.12411377 134.77487122 70.12322754 133.91836548 70.12231445 C121.58858811 70.10680173 109.30284848 69.87542505 97 69 C97 68.34 97 67.68 97 67 C96.29617188 67.16242188 95.59234375 67.32484375 94.8671875 67.4921875 C87.40965184 68.81300444 79.59253259 68.08414043 72.08203125 67.5078125 C66.67319889 67.13155169 61.29977248 66.9117425 55.87890625 66.859375 C21.79509958 66.48121764 21.79509958 66.48121764 10.8125 58.25 C9.32421875 56.69140625 9.32421875 56.69140625 8 55 C7.51144531 54.41089844 7.02289063 53.82179688 6.51953125 53.21484375 C2.55488966 47.4511211 2.40935902 41.64162749 2.45166016 34.85229492 C2.47029608 32.43228376 2.47029608 32.43228376 2 29 C0.13377036 27.1371129 0.13377036 27.1371129 -2 26 C-3.20745835 22.37762495 -3.22246029 19.0229405 -3.25 15.25 C-3.270625 14.5590625 -3.29125 13.868125 -3.3125 13.15625 C-3.35088173 8.05147958 -2.27330153 4.57053254 0 0 Z " fill="#656565" transform="translate(428,216)"/>
<path d="M0 0 C1.66796875 1.07421875 1.66796875 1.07421875 3 3 C3.29296875 6.35546875 3.29296875 6.35546875 3.1875 10.1875 C3.14689453 12.09595703 3.14689453 12.09595703 3.10546875 14.04296875 C3.07066406 15.01878906 3.03585938 15.99460938 3 17 C3.79696289 16.99476318 4.59392578 16.98952637 5.41503906 16.98413086 C9.02668469 16.963341 12.63831771 16.95033339 16.25 16.9375 C18.13138672 16.92493164 18.13138672 16.92493164 20.05078125 16.91210938 C21.85869141 16.90727539 21.85869141 16.90727539 23.703125 16.90234375 C25.36843262 16.89448853 25.36843262 16.89448853 27.06738281 16.88647461 C29.57157379 16.98341507 31.6181156 17.26769724 34 18 C33.95359375 17.18015625 33.9071875 16.3603125 33.859375 15.515625 C33.82328125 14.43796875 33.7871875 13.3603125 33.75 12.25 C33.70359375 11.18265625 33.6571875 10.1153125 33.609375 9.015625 C34 6 34 6 35.76171875 3.60546875 C38 2 38 2 40.03515625 1.72265625 C45.40422011 2.62267273 45.40422011 2.62267273 47.875 4.1875 C51.58419301 10.16342207 51.21761878 16.20545817 51 23 C51.9178125 23.07476562 52.835625 23.14953125 53.78125 23.2265625 C57.67054437 24.16112595 58.37392236 25.0712421 60.5 28.375 C61.37398437 29.73238281 61.37398437 29.73238281 62.265625 31.1171875 C62.83796875 32.06851563 63.4103125 33.01984375 64 34 C64.55171875 34.91007812 65.1034375 35.82015625 65.671875 36.7578125 C71.38582104 46.68650091 73.37128857 56.35913585 74.9987793 67.57617188 C75.11519775 68.37603516 75.23161621 69.17589844 75.3515625 70 C75.45291504 70.721875 75.55426758 71.44375 75.65869141 72.1875 C75.93149605 74.0913008 75.93149605 74.0913008 77 76 C79.32156597 76.40729228 81.6568787 76.74438677 84 77 C84 77.66 84 78.32 84 79 C86.77254755 80.38627378 89.02443742 80.12722529 92.12695312 80.12939453 C94.0603656 80.13412277 94.0603656 80.13412277 96.03283691 80.13894653 C97.44897495 80.13715519 98.86511268 80.13510385 100.28125 80.1328125 C101.73417171 80.13348637 103.18709332 80.13445709 104.64001465 80.13571167 C107.69328886 80.13718847 110.74653387 80.13503715 113.79980469 80.13037109 C117.68866596 80.12471427 121.57745759 80.12792698 125.46631622 80.13394356 C128.47258005 80.13758439 131.47882781 80.13639383 134.48509216 80.13381577 C135.91702788 80.13315409 137.3489651 80.13394803 138.78089905 80.13629532 C145.87487483 80.14536059 152.87511049 80.08594965 159.92353821 79.23048401 C163.50642064 78.83278967 167.08584419 78.80925453 170.6875 78.8125 C171.4491748 78.81185547 172.21084961 78.81121094 172.99560547 78.81054688 C180.43983789 78.87854485 187.66001586 79.78749525 195 81 C194.94585937 79.90429688 194.89171875 78.80859375 194.8359375 77.6796875 C195 74 195 74 197.625 71.125 C200.96505371 69.02200322 203.1062425 68.27812554 207 68 C210.13107836 71.38583802 210.33550778 73.71109462 210.1875 78.25 C210.14689453 79.86648437 210.14689453 79.86648437 210.10546875 81.515625 C210.07066406 82.33546875 210.03585937 83.1553125 210 84 C210.928125 84.433125 211.85625 84.86625 212.8125 85.3125 C217.62420382 87.85987261 217.62420382 87.85987261 219 90 C219.52352227 93.96381151 219.11749808 96.64097808 217.875 100.4375 C213.12349328 104.6725386 207.10790882 103.3187815 201 103 C195.61211865 102.60628798 190.24622452 102.07356363 184.875 101.5 C182.79919998 101.28401243 180.72321203 101.07005314 178.64700317 100.85803223 C176.79015795 100.66758065 174.93387619 100.47165832 173.07763672 100.27539062 C169.85097526 99.94058326 169.85097526 99.94058326 166 100 C166.47050781 100.56847656 166.94101562 101.13695312 167.42578125 101.72265625 C173.13411736 108.8019385 173.13411736 108.8019385 174.625 112.8125 C175.77233599 116.16546652 175.77233599 116.16546652 178.6875 118.125 C181 120 181 120 181.5625 122.5 C180.81547109 125.82012849 179.65728667 126.89613171 177 129 C170.32654836 130.09499788 163.66276048 129.88303576 158 126 C158.40482192 122.5590137 158.78191087 119.5209907 160.125 116.3125 C161.15274295 114.06986698 161.15274295 114.06986698 160.875 111.8125 C159.64470869 109.26403943 158.66761932 108.9823614 156 108 C153.20385578 107.78030295 150.54371409 107.66726007 147.75 107.6875 C146.98945313 107.69096436 146.22890625 107.69442871 145.4453125 107.69799805 C140.0469943 107.8029267 135.78156259 108.31037104 131 111 C130.67 111.99 130.34 112.98 130 114 C130.33 114.33 130.66 114.66 131 115 C130.75034008 118.80731379 130.49405698 121.89563733 128.9375 125.375 C124.71760348 128.91426805 119.53814263 129.23277863 114.25 128.875 C111.38643105 128.43406983 109.91411471 127.9488778 107.375 126.4375 C105.71029867 123.48643855 105.71026461 121.35069391 106.32421875 118.0390625 C107.52111405 114.42762118 109.17280151 112.57018045 112 110 C114.8125 109.625 114.8125 109.625 117 110 C117.0825 109.278125 117.165 108.55625 117.25 107.8125 C118.1481065 104.44460063 119.77875936 102.64327637 122 100 C121.10321533 100.00523682 120.20643066 100.01047363 119.2824707 100.01586914 C101.51488089 100.10472396 83.76225224 100.03986152 66 99.5625 C65.23007721 99.54285187 64.46015442 99.52320374 63.66690063 99.50296021 C54.75084059 99.27073694 45.88102419 98.87163231 37 98 C37.7425 98.94875 38.485 99.8975 39.25 100.875 C41.47398729 103.90209381 42.61921873 106.67966284 43.75 110.25 C45.09276423 113.95170071 45.09276423 113.95170071 48.1796875 116.19921875 C50.58981926 116.97041424 50.58981926 116.97041424 52.9765625 117.40234375 C55 118 55 118 57 121 C56.70295038 125.15869464 56.33061852 127.50407222 54 131 C52.16821289 131.37231445 52.16821289 131.37231445 49.97265625 131.36328125 C49.18052734 131.36263672 48.38839844 131.36199219 47.57226562 131.36132812 C46.74404297 131.34521484 45.91582031 131.32910156 45.0625 131.3125 C44.23814453 131.31572266 43.41378906 131.31894531 42.56445312 131.32226562 C36.40078221 131.26718814 36.40078221 131.26718814 33 129 C32.74118357 125.57068224 32.74504433 122.78447899 33.8125 119.5 C34.07342332 116.02102235 32.64460169 114.47239916 30.6171875 111.74609375 C27.6608016 108.5540539 25.41757969 106.23595363 21.01953125 105.50390625 C9.38431408 105.71648634 0.4753746 107.5053193 -8 116 C-8.33 116.99 -8.66 117.98 -9 119 C-8.01 119.33 -7.02 119.66 -6 120 C-6.09580122 122.92193714 -6.20258179 125.23088334 -7 128 C-11.49274312 131.99354944 -17.26842767 131.32073976 -22.9765625 131.30078125 C-25.86111799 131.01381643 -27.55500569 130.49681359 -30 129 C-30.48648649 121.7027027 -30.48648649 121.7027027 -28.3125 118.5625 C-26 117 -26 117 -23.5 116.75 C-22.675 116.5025 -21.85 116.255 -21 116 C-20.03327802 114.13322652 -19.08044541 112.25649467 -18.234375 110.33203125 C-15.30802987 104.80346149 -10.42171286 100.36661363 -6 96 C-6.59425781 96.03222656 -7.18851563 96.06445312 -7.80078125 96.09765625 C-17.58567861 95.96069812 -22.91737585 89.94268323 -29.62109375 83.46875 C-31.6991319 81.31223094 -33.49520872 79.16976481 -35.25 76.75 C-37.00461404 74.27226259 -37.00461404 74.27226259 -39 72 C-41.12274238 58.45058053 -42.80390187 39.36485823 -34.546875 27.68359375 C-30.06046508 22.8006577 -24.42231554 20.35856675 -18 19 C-16.68 19 -15.36 19 -14 19 C-14.03480469 18.34773438 -14.06960937 17.69546875 -14.10546875 17.0234375 C-14.27367994 11.59261899 -14.25288817 7.59891087 -11 3 C-7.39637838 0.07814463 -4.59860228 -0.59981769 0 0 Z M-9.375 4.8125 C-11.9447006 8.27171235 -12.11677347 11.0084425 -12.0625 15.1875 C-12.05347656 16.08855469 -12.04445312 16.98960937 -12.03515625 17.91796875 C-12.02355469 18.60503906 -12.01195312 19.29210937 -12 20 C-12.61746094 20.15855469 -13.23492187 20.31710938 -13.87109375 20.48046875 C-22.3112417 22.80568455 -29.92678835 25.51861827 -35 33 C-39.10913334 44.72942912 -40.07696439 60.17680327 -36 72 C-34.67804018 72.68894445 -33.34486745 73.35691854 -32 74 C-31.7525 74.886875 -31.505 75.77375 -31.25 76.6875 C-29.46660001 81.41350996 -26.1960795 84.25553719 -22 87 C-20.33794933 87.3556353 -18.67166783 87.69272885 -17 88 C-15.75 90 -15.75 90 -15 92 C-11.75714158 95.24285842 -3.66615848 94.97628562 0.62109375 95.12890625 C3.74985053 95.12547935 6.87259937 95.08949636 10 95 C10.33 95.66 10.66 96.32 11 97 C10.28714844 97.03738281 9.57429688 97.07476562 8.83984375 97.11328125 C1.48939494 97.61782081 -3.87570488 98.32203275 -9.625 103.25 C-16.36531579 110.72746466 -16.36531579 110.72746466 -19 120 C-20.3921875 119.9071875 -20.3921875 119.9071875 -21.8125 119.8125 C-24.92436195 119.74414957 -24.92436195 119.74414957 -26.9375 121.1875 C-28.25545189 123.03055434 -28.25545189 123.03055434 -27.75 125.625 C-27.22254355 127.9312407 -27.22254355 127.9312407 -26 129 C-24.08759516 129.15252309 -22.16827201 129.22192773 -20.25 129.25 C-19.20328125 129.27578125 -18.1565625 129.3015625 -17.078125 129.328125 C-13.60325604 128.9577075 -11.76142107 128.11226241 -9 126 C-8.11341534 123.40877257 -8.11341534 123.40877257 -8 121 C-9.32 120.67 -10.64 120.34 -12 120 C-10.96626637 114.57289846 -8.63626354 112.40091787 -4.29296875 109.38671875 C4.49189873 104.07389429 12.72011029 101.96529215 23 103 C25.68859741 104.05970535 27.60561051 105.33433775 30 107 C30.66 107 31.32 107 32 107 C32.268125 107.7425 32.53625 108.485 32.8125 109.25 C33.85544839 112.0068317 33.85544839 112.0068317 35.625 114 C37.37330139 116.54298383 37.38841985 117.97032514 37 121 C36.34 121.99 35.68 122.98 35 124 C35.30840599 126.15274948 35.30840599 126.15274948 36 128 C38.62506802 128.02690844 41.24986173 128.04679404 43.875 128.0625 C44.99455078 128.07506836 44.99455078 128.07506836 46.13671875 128.08789062 C50.19845578 128.20688084 50.19845578 128.20688084 54 127 C54.2502157 124.08365871 54.2502157 124.08365871 54 121 C51.1263413 118.75242209 51.1263413 118.75242209 47.625 118.625 C43.2214809 116.65100868 43.11465447 115.67093054 41.4375 111.3125 C40.8496875 109.70568359 40.8496875 109.70568359 40.25 108.06640625 C38.63419761 104.10264102 36.51068081 100.54995742 33 98 C31.68 98 30.36 98 29 98 C29 97.01 29 96.02 29 95 C30.485 95.495 30.485 95.495 32 96 C70.0167689 99.74863438 109.90029295 98.00805857 148 96 C148.33 96.66 148.66 97.32 149 98 C147.741875 98.185625 146.48375 98.37125 145.1875 98.5625 C144.12595703 98.71912109 144.12595703 98.71912109 143.04296875 98.87890625 C141 99 141 99 138 98 C131.45224637 98.7483147 125.40758671 100.65577083 120.625 105.3125 C118.71404147 108.47293141 118.66229941 110.36971871 119 114 C116.03 113.505 116.03 113.505 113 113 C110.70977463 115.504934 109.15655771 117.26939736 108.4375 120.625 C108.80853861 123.16639457 108.80853861 123.16639457 111 124.875 C115.99335179 126.74750692 120.06571312 125.8409943 124.875 123.75 C127.35852361 121.70474527 128.09270329 120.05181621 129 117 C128.34 116.67 127.68 116.34 127 116 C127.50831021 112.23850448 128.11276908 110.459493 131 108 C136.31925463 105.02855431 142.20601893 104.64455303 148.1875 104.5 C148.86449951 104.46946533 149.54149902 104.43893066 150.23901367 104.4074707 C155.9107649 104.40399409 158.15836683 106.16413505 162 110 C163.58580623 112.27528719 164.07003855 113.25292211 163.8125 116 C162.86632381 118.32904908 161.59058401 120.06363686 160 122 C161.11383901 124.98957083 161.11383901 124.98957083 163.625 126.75 C171.12976051 127.61586766 171.12976051 127.61586766 178 125 C178.41986946 122.71163778 178.41986946 122.71163778 178 120 C177.24976563 119.25234375 176.49953125 118.5046875 175.7265625 117.734375 C171.98113334 113.97821395 169.74832564 109.65565026 167.16015625 105.05859375 C164.80146793 101.71889582 162.42959769 100.15142615 159 98 C159 97.34 159 96.68 159 96 C160.77119803 96.14133499 162.54195287 96.28823208 164.3125 96.4375 C165.29863281 96.51871094 166.28476562 96.59992188 167.30078125 96.68359375 C170 97 170 97 173 98 C174.33647609 98.13342409 175.67766682 98.22319672 177.01953125 98.28125 C177.79490234 98.31863281 178.57027344 98.35601562 179.36914062 98.39453125 C180.57860352 98.44673828 180.57860352 98.44673828 181.8125 98.5 C190.21096244 98.86781587 190.21096244 98.86781587 194.03125 99.5078125 C197.92647958 100.15360056 201.74504557 100.3001648 205.6875 100.375 C206.44611328 100.41238281 207.20472656 100.44976562 207.98632812 100.48828125 C210.47316799 100.5839191 210.47316799 100.5839191 214 100 C216.06597809 97.55039735 217 96.15441759 217 92.9375 C215.52752331 90.08457641 213.66269915 88.7549608 211 87 C209.34340556 86.61975829 207.67669911 86.2785121 206 86 C206.23396484 84.73542969 206.23396484 84.73542969 206.47265625 83.4453125 C206.76462891 81.80175781 206.76462891 81.80175781 207.0625 80.125 C207.25972656 79.03445312 207.45695313 77.94390625 207.66015625 76.8203125 C208.25631899 74.05346717 208.25631899 74.05346717 207 72 C203.62090549 71.69280959 201.59642541 71.65470108 198.625 73.375 C196.13036958 77.4047876 196.68264112 81.38066514 197 86 C195.33984375 85.25130208 193.6796875 84.50260417 192.01953125 83.75390625 C187.99920507 82.25308816 184.09925572 81.87269613 179.83203125 81.8671875 C178.85556641 81.86589844 177.87910156 81.86460937 176.87304688 81.86328125 C175.35807617 81.86908203 175.35807617 81.86908203 173.8125 81.875 C172.82185547 81.87113281 171.83121094 81.86726563 170.81054688 81.86328125 C169.82763672 81.86457031 168.84472656 81.86585938 167.83203125 81.8671875 C166.95264893 81.86831543 166.0732666 81.86944336 165.16723633 81.87060547 C162.57432348 81.97653654 160.07463223 82.20410384 157.49975586 82.49560547 C151.06111397 83.16570375 144.64035394 83.18093341 138.171875 83.203125 C136.86526917 83.20882507 135.55866333 83.21452515 134.21246338 83.22039795 C131.45918395 83.2308305 128.70593305 83.23672364 125.95263672 83.24023438 C122.46557087 83.24570587 118.97889798 83.26973796 115.4919548 83.29820633 C112.11443787 83.3215718 108.73696831 83.32329697 105.359375 83.328125 C104.128703 83.3404718 102.89803101 83.3528186 101.63006592 83.36553955 C93.31687661 83.34453775 84.87885405 82.8615566 77 80 C74.18722577 77.03824821 73.50770797 74.65007279 72.9375 70.640625 C72.78023438 69.60679687 72.62296875 68.57296875 72.4609375 67.5078125 C72.30882812 66.43273437 72.15671875 65.35765625 72 64.25 C70.45011731 53.45335959 68.1063727 45.10195175 62 36 C61.44957031 35.11183594 60.89914062 34.22367188 60.33203125 33.30859375 C59.74808594 32.40238281 59.16414063 31.49617188 58.5625 30.5625 C58.02753906 29.71816406 57.49257813 28.87382812 56.94140625 28.00390625 C54.42850101 25.41010265 52.5303419 25.27309255 49 25 C49.03480469 24.28714844 49.06960937 23.57429688 49.10546875 22.83984375 C49.27845846 16.71930306 49.07425387 12.35147896 46 7 C42.79191085 4.8612739 41.72301503 4.52269038 38 5 C35.91866533 8.122002 35.7262178 8.93266989 35.75 12.5 C35.74484375 13.2734375 35.7396875 14.046875 35.734375 14.84375 C35.87261938 17.29513844 35.87261938 17.29513844 38 20 C25.13 20 12.26 20 -1 20 C-0.34 18.35 0.32 16.7 1 15 C1.27628498 12.13841363 1.27628498 12.13841363 1.1875 9.25 C1.17783203 7.80367187 1.17783203 7.80367187 1.16796875 6.328125 C1.25812405 4.03999413 1.25812405 4.03999413 0 3 C-5.0525546 2.49113459 -5.0525546 2.49113459 -9.375 4.8125 Z " fill="#101010" transform="translate(203,155)"/>
<path d="M0 0 C2.6875 -0.3125 2.6875 -0.3125 6 0 C6.65484375 0.82371094 7.3096875 1.64742187 7.984375 2.49609375 C12.5652212 6.2996202 16.79729447 5.57827168 22.5625 5.375 C23.56474609 5.36082031 24.56699219 5.34664062 25.59960938 5.33203125 C30.47519469 5.2414631 35.34076995 5.04623593 40.20825195 4.75537109 C54.45235002 3.91878154 68.67682983 3.84573931 82.94213867 3.86962891 C85.67653585 3.87416195 88.4108666 3.87421517 91.14526367 3.86962891 C100.43094505 3.85414611 109.7147567 3.89399703 119 4 C120.89718781 4.01987976 120.89718781 4.01987976 122.83270264 4.04016113 C126.4714204 4.08922994 130.10817747 4.16795371 133.74609375 4.2578125 C135.34216209 4.27822098 135.34216209 4.27822098 136.97047424 4.29904175 C147.76141846 4.63593906 157.23194941 7.126133 165.1015625 14.796875 C168.08119031 18.25471468 170.07594107 21.88307979 172 26 C172.5878125 27.06347656 172.5878125 27.06347656 173.1875 28.1484375 C176.97476175 35.43365628 176.77162077 42.60176161 175.375 50.5625 C169.6875 64.78125 169.6875 64.78125 163.4375 67.625 C157.70072769 69.69064707 152.18507829 70.14951793 146.12109375 70.1328125 C145.35992249 70.13413177 144.59875122 70.13545105 143.81451416 70.1368103 C141.35546728 70.1387179 138.89653518 70.13241583 136.4375 70.125 C135.60618561 70.12411377 134.77487122 70.12322754 133.91836548 70.12231445 C121.58858811 70.10680173 109.30284848 69.87542505 97 69 C97 68.34 97 67.68 97 67 C96.29617188 67.16242188 95.59234375 67.32484375 94.8671875 67.4921875 C87.40965184 68.81300444 79.59253259 68.08414043 72.08203125 67.5078125 C66.67319889 67.13155169 61.29977248 66.9117425 55.87890625 66.859375 C21.79509958 66.48121764 21.79509958 66.48121764 10.8125 58.25 C9.32421875 56.69140625 9.32421875 56.69140625 8 55 C7.51144531 54.41089844 7.02289063 53.82179688 6.51953125 53.21484375 C2.55488966 47.4511211 2.40935902 41.64162749 2.45166016 34.85229492 C2.47029608 32.43228376 2.47029608 32.43228376 2 29 C0.13377036 27.1371129 0.13377036 27.1371129 -2 26 C-3.20745835 22.37762495 -3.22246029 19.0229405 -3.25 15.25 C-3.270625 14.5590625 -3.29125 13.868125 -3.3125 13.15625 C-3.35088173 8.05147958 -2.27330153 4.57053254 0 0 Z M3 3 C-0.71059486 9.13054803 -1.71075839 15.44620807 -0.3125 22.4375 C0.78058442 25.09159104 0.78058442 25.09159104 3 26.3125 C6.24734023 29.05244332 6.35310018 32.93985245 7 37 C9.64573501 34.77122275 9.64573501 34.77122275 12 32 C11.95502158 29.72476911 11.95502158 29.72476911 11 28 C12.32 27.34 13.64 26.68 15 26 C14.67 24.35 14.34 22.7 14 21 C14.99 21.99 15.98 22.98 17 24 C15.39680795 28.66383143 13.08350522 33.14135949 10 37 C9.30648438 37.30550781 8.61296875 37.61101562 7.8984375 37.92578125 C5.77741393 38.86585583 5.77741393 38.86585583 5.07421875 41.29296875 C4.97884902 44.77145414 5.96425246 46.39079722 7.8125 49.3125 C8.35519531 50.19550781 8.89789063 51.07851563 9.45703125 51.98828125 C9.96621094 52.65214844 10.47539062 53.31601562 11 54 C11.66 54 12.32 54 13 54 C13.33 54.99 13.66 55.98 14 57 C16.36401089 58.26080581 18.47896761 59.14504119 21 60 C21.81339844 60.28230469 22.62679688 60.56460938 23.46484375 60.85546875 C33.75725957 63.93020167 46.48210319 64.63478627 57 62 C57.53394179 60.5882217 58.05165104 59.17029756 58.5625 57.75 C58.85253906 56.96109375 59.14257812 56.1721875 59.44140625 55.359375 C60.0610168 52.74227867 59.94248701 51.4926979 59 49 C58.34 48.01 57.68 47.02 57 46 C57.53625 45.443125 58.0725 44.88625 58.625 44.3125 C59.07875 43.549375 59.5325 42.78625 60 42 C59.26145768 39.36186139 59.26145768 39.36186139 58 37 C58 36.34 58 35.68 58 35 C58.99 35.33 59.98 35.66 61 36 C61.94002987 40.38680608 61.74651537 43.61422219 61 48 C61.185625 48.804375 61.37125 49.60875 61.5625 50.4375 C62.16494838 53.96612624 61.00559799 56.60610677 60 60 C60.33 60.99 60.66 61.98 61 63 C62.06927734 63.09087891 62.06927734 63.09087891 63.16015625 63.18359375 C71.41188054 63.9054808 71.41188054 63.9054808 75.5 64.5625 C82.43977973 65.42997247 89.12334905 65.23427068 96 64 C96.66 64.33 97.32 64.66 98 65 C100.56845219 65.03037021 103.120762 64.93311185 105.6875 64.83984375 C108 65 108 65 110 67 C112.52377655 67.27808217 112.52377655 67.27808217 115.4453125 67.1953125 C116.52167969 67.18886719 117.59804688 67.18242187 118.70703125 67.17578125 C119.83496094 67.15902344 120.96289062 67.14226562 122.125 67.125 C123.26066406 67.11597656 124.39632812 67.10695313 125.56640625 67.09765625 C128.37781299 67.07403098 131.18880298 67.04109013 134 67 C134 66.34 134 65.68 134 65 C134.99 64.67 135.98 64.34 137 64 C138.56028793 61.15102982 139.46843274 58.20059445 140 55 C139.01919106 52.38017854 139.01919106 52.38017854 137 51 C136.34 51 135.68 51 135 51 C135.66 50.236875 136.32 49.47375 137 48.6875 C139.29850538 46.15722061 139.29850538 46.15722061 139 43 C137.56249809 41.31201173 137.56249809 41.31201173 136 40 C137.32 40.33 138.64 40.66 140 41 C140.90594807 43.61718331 140.98235878 45.10143704 140.5 47.875 C139.82038781 50.94518924 139.82038781 50.94518924 140.5625 53.75 C141.18730226 58.39138818 140.07980006 62.48447249 139 67 C149.65771916 67.35857747 158.40464935 67.06190317 166.59375 59.53515625 C171.66979043 54.24761413 174.03554301 48.43102855 173.9765625 41.078125 C172.70835554 30.19972752 166.40917284 21.74595342 159 14 C158.01 13.67 157.02 13.34 156 13 C154.39819908 16.38766195 154.39819908 16.38766195 154.125 20.0625 C154.8950733 22.17907441 154.8950733 22.17907441 157.0625 23.5625 C160.20275922 27.5131487 159.47149501 32.13046134 159 37 C158.67 37.66 158.34 38.32 158 39 C157.01 39.33 156.02 39.66 155 40 C155.165 38.9275 155.33 37.855 155.5 36.75 C156.3352003 30.76189263 156.3352003 30.76189263 155 25 C152.50965614 23.70339566 152.50965614 23.70339566 150 23 C150.99 19.7 151.98 16.4 153 13 C146.68439027 7.21069108 141.08633074 7.22890562 132.75 7.1875 C130.97496094 7.14979492 130.97496094 7.14979492 129.1640625 7.11132812 C125.10889692 7.03050193 121.05589005 7 117 7 C116.97111854 10.31248187 116.95324201 13.62493167 116.9375 16.9375 C116.92493164 18.35579102 116.92493164 18.35579102 116.91210938 19.80273438 C116.90727539 21.15141602 116.90727539 21.15141602 116.90234375 22.52734375 C116.89448853 23.77632446 116.89448853 23.77632446 116.88647461 25.05053711 C116.78356708 27.00516798 116.78356708 27.00516798 118 28 C118.26293056 32.03160191 118.29404844 33.55892734 116 37 C113.875 37.6875 113.875 37.6875 112 38 C113.75 34.125 113.75 34.125 116 33 C115.89171875 31.86111328 115.89171875 31.86111328 115.78125 30.69921875 C115.6884375 29.70535156 115.595625 28.71148437 115.5 27.6875 C115.4071875 26.70136719 115.314375 25.71523437 115.21875 24.69921875 C115 22 115 22 115 19 C114.34 19 113.68 19 113 19 C113.556875 17.63875 113.556875 17.63875 114.125 16.25 C115.25131743 13.16467339 115.25131743 13.16467339 114.375 10.75 C112.21694327 8.00338235 109.96584178 7.12449559 106.52636719 6.68115234 C105.62563477 6.64973145 104.72490234 6.61831055 103.796875 6.5859375 C102.8171875 6.54726562 101.8375 6.50859375 100.828125 6.46875 C99.30445313 6.42234375 99.30445313 6.42234375 97.75 6.375 C96.203125 6.31699219 96.203125 6.31699219 94.625 6.2578125 C92.0835106 6.16368326 89.54202567 6.07805021 87 6 C87.495 6.99 87.495 6.99 88 8 C88.66 8 89.32 8 90 8 C90.67228569 12.48190462 91.12701027 15.63283522 90 20 C90.29235267 22.33882138 90.62599214 24.67284 91 27 C91 28.32 91 29.64 91 31 C90.01 30.01 90.01 30.01 89 29 C89.2784375 27.824375 89.2784375 27.824375 89.5625 26.625 C90.29178752 23.94859806 90.29178752 23.94859806 88.6875 21.6875 C88.130625 21.130625 87.57375 20.57375 87 20 C86.34 20 85.68 20 85 20 C85.680625 19.443125 86.36125 18.88625 87.0625 18.3125 C89.25510881 16.18317288 89.25510881 16.18317288 89.0625 13.5 C87.56544541 9.97751862 86.33969805 8.96356171 83 7 C79.03453696 6.4431461 75.1217931 6.53050618 71.125 6.625 C70.0119751 6.63789063 68.8989502 6.65078125 67.75219727 6.6640625 C59.38070792 6.81952868 51.23850267 7.4996548 43 9 C43.04253906 10.093125 43.08507812 11.18625 43.12890625 12.3125 C43 16 43 16 40.9375 19 C38.43457181 22.87550172 39.20915027 24.57124149 40 29 C39.125 32.1875 39.125 32.1875 38 35 C37.65023242 36.32911682 37.30903983 37.66082739 37 39 C35.79371992 36.66785852 34.8345262 34.50357861 34 32 C34.639375 31.7525 35.27875 31.505 35.9375 31.25 C38.12493715 30.18550582 38.12493715 30.18550582 38.875 28.125 C39.02904228 25.50628117 38.24534014 24.27091436 37 22 C37 21.01 37 20.02 37 19 C39 17.3125 39 17.3125 41 16 C40.81171228 13.55519921 40.81171228 13.55519921 40 11 C36.96969085 8.99095526 34.40823739 8.73084337 30.82421875 8.65625 C29.83099609 8.62660156 28.83777344 8.59695312 27.81445312 8.56640625 C26.26661133 8.53353516 26.26661133 8.53353516 24.6875 8.5 C8.56797015 8.15378142 8.56797015 8.15378142 4.0625 4.375 C3.711875 3.92125 3.36125 3.4675 3 3 Z " fill="#111111" transform="translate(428,216)"/>
<path d="M0 0 C1.66796875 1.07421875 1.66796875 1.07421875 3 3 C3.29296875 6.35546875 3.29296875 6.35546875 3.1875 10.1875 C3.14689453 12.09595703 3.14689453 12.09595703 3.10546875 14.04296875 C3.07066406 15.01878906 3.03585938 15.99460938 3 17 C3.79696289 16.99476318 4.59392578 16.98952637 5.41503906 16.98413086 C9.02668469 16.963341 12.63831771 16.95033339 16.25 16.9375 C18.13138672 16.92493164 18.13138672 16.92493164 20.05078125 16.91210938 C21.85869141 16.90727539 21.85869141 16.90727539 23.703125 16.90234375 C25.36843262 16.89448853 25.36843262 16.89448853 27.06738281 16.88647461 C29.57157379 16.98341507 31.6181156 17.26769724 34 18 C33.95359375 17.18015625 33.9071875 16.3603125 33.859375 15.515625 C33.82328125 14.43796875 33.7871875 13.3603125 33.75 12.25 C33.70359375 11.18265625 33.6571875 10.1153125 33.609375 9.015625 C34.08264522 5.36197888 35.19155042 4.27771895 38 2 C38.99 2.495 38.99 2.495 40 3 C39.505 3.639375 39.01 4.27875 38.5 4.9375 C36.09625375 9.84514859 36.2853529 14.85605871 38 20 C25.13 20 12.26 20 -1 20 C-0.67 18.35 -0.34 16.7 0 15 C0.06533435 13.06348981 0.08584303 11.12497139 0.0625 9.1875 C0.05347656 8.21167969 0.04445312 7.23585937 0.03515625 6.23046875 C0.02355469 5.49441406 0.01195312 4.75835937 0 4 C-2.97 4 -5.94 4 -9 4 C-11.08386889 9.27913453 -11.57910004 14.39538469 -12 20 C-12.85722656 20.30292969 -13.71445313 20.60585937 -14.59765625 20.91796875 C-25.59707142 24.74584018 -25.59707142 24.74584018 -33.8125 32.625 C-38.03874247 44.63642597 -39.06513647 59.8045906 -35 72 C-33.18739868 74.22931824 -33.18739868 74.22931824 -31 76 C-30.360625 76.99 -29.72125 77.98 -29.0625 79 C-26.39723848 82.87674403 -23.79522427 85.31610504 -19.375 87 C-17 88 -17 88 -15.65625 89.984375 C-13.03161795 93.17850269 -10.14584696 93.09420809 -6.20703125 93.6953125 C-0.80215685 94.20880848 4.57780799 94.15516607 10 94 C10.33 94.99 10.66 95.98 11 97 C10.04738281 97.18175781 9.09476563 97.36351562 8.11328125 97.55078125 C6.85902344 97.80214844 5.60476562 98.05351562 4.3125 98.3125 C3.07113281 98.55613281 1.82976562 98.79976563 0.55078125 99.05078125 C-2.81927212 99.95168661 -5.09484795 101.13128057 -8 103 C-8.66 103 -9.32 103 -10 103 C-10.26683594 103.55558594 -10.53367188 104.11117187 -10.80859375 104.68359375 C-12.57633549 108.12054737 -14.63626348 111.36947485 -16.66015625 114.66015625 C-18.11979157 117.03104625 -18.11979157 117.03104625 -19 120 C-22.5625 121.1875 -22.5625 121.1875 -26 122 C-26.38218767 123.65614657 -26.71395102 125.32457024 -27 127 C-25.20938728 128.79061272 -22.60322258 128.17289466 -20.1875 128.1875 C-19.12917969 128.20167969 -18.07085937 128.21585938 -16.98046875 128.23046875 C-14.04114611 128.00318168 -12.41755449 127.64706368 -10 126 C-8.71745356 123.46229997 -8.71745356 123.46229997 -8 121 C-9.32 120.67 -10.64 120.34 -12 120 C-12.0625 117.4375 -12.0625 117.4375 -11 114 C-5.18706224 107.97991969 2.26187135 103.30682149 10.6796875 102.76171875 C14.13030773 102.7513044 17.5543026 102.82354892 21 103 C21 103.33 21 103.66 21 104 C20.09121094 104.16435547 20.09121094 104.16435547 19.1640625 104.33203125 C16.43312849 104.84880799 13.71666807 105.41281319 11 106 C10.15050781 106.18304688 9.30101562 106.36609375 8.42578125 106.5546875 C1.87114785 108.22164293 -3.20199127 111.19106186 -8 116 C-8.33 116.99 -8.66 117.98 -9 119 C-8.01 119.33 -7.02 119.66 -6 120 C-6.09580122 122.92193714 -6.20258179 125.23088334 -7 128 C-11.49274312 131.99354944 -17.26842767 131.32073976 -22.9765625 131.30078125 C-25.86111799 131.01381643 -27.55500569 130.49681359 -30 129 C-30.48648649 121.7027027 -30.48648649 121.7027027 -28.3125 118.5625 C-26 117 -26 117 -23.5 116.75 C-22.675 116.5025 -21.85 116.255 -21 116 C-20.03327802 114.13322652 -19.08044541 112.25649467 -18.234375 110.33203125 C-15.30802987 104.80346149 -10.42171286 100.36661363 -6 96 C-6.59425781 96.03222656 -7.18851563 96.06445312 -7.80078125 96.09765625 C-17.58567861 95.96069812 -22.91737585 89.94268323 -29.62109375 83.46875 C-31.6991319 81.31223094 -33.49520872 79.16976481 -35.25 76.75 C-37.00461404 74.27226259 -37.00461404 74.27226259 -39 72 C-41.12274238 58.45058053 -42.80390187 39.36485823 -34.546875 27.68359375 C-30.06046508 22.8006577 -24.42231554 20.35856675 -18 19 C-16.68 19 -15.36 19 -14 19 C-14.03480469 18.34773438 -14.06960937 17.69546875 -14.10546875 17.0234375 C-14.27367994 11.59261899 -14.25288817 7.59891087 -11 3 C-7.39637838 0.07814463 -4.59860228 -0.59981769 0 0 Z " fill="#090909" transform="translate(203,155)"/>
<path d="M0 0 C0.75466553 0.02505615 1.50933105 0.0501123 2.28686523 0.07592773 C5.30380939 0.17520931 8.32080466 0.27277508 11.33782959 0.36956787 C12.73698071 0.4148356 14.13611028 0.46077414 15.53521729 0.50738525 C24.75087286 0.81396954 33.96384076 1.04345489 43.18359375 1.18359375 C45.99066729 1.23181243 48.79771885 1.28115907 51.60476685 1.33084106 C53.45273266 1.36029859 55.30079078 1.38444175 57.14889526 1.40328979 C59.75330049 1.4302407 62.35685507 1.47506154 64.9609375 1.5234375 C65.74597153 1.52665512 66.53100555 1.52987274 67.33982849 1.53318787 C69.51708984 1.58349609 69.51708984 1.58349609 73 2 C73.99 3.485 73.99 3.485 75 5 C63.49099698 5.05406914 51.9979268 4.94805627 40.49316406 4.62768555 C38.10491015 4.56194701 35.71655075 4.50248605 33.328125 4.44335938 C24.85499313 4.22096832 16.43911873 3.84474107 8 3 C9.11375 4.423125 9.11375 4.423125 10.25 5.875 C12.47398729 8.90209381 13.61921873 11.67966284 14.75 15.25 C16.09276423 18.95170071 16.09276423 18.95170071 19.1796875 21.19921875 C21.58981926 21.97041424 21.58981926 21.97041424 23.9765625 22.40234375 C26 23 26 23 28 26 C27.70295038 30.15869464 27.33061852 32.50407222 25 36 C23.16821289 36.37231445 23.16821289 36.37231445 20.97265625 36.36328125 C20.18052734 36.36263672 19.38839844 36.36199219 18.57226562 36.36132812 C17.74404297 36.34521484 16.91582031 36.32910156 16.0625 36.3125 C15.23814453 36.31572266 14.41378906 36.31894531 13.56445312 36.32226562 C7.40078221 36.26718814 7.40078221 36.26718814 4 34 C3.74118357 30.57068224 3.74504433 27.78447899 4.8125 24.5 C5.07799243 20.96010095 3.60513799 19.34818842 1.4375 16.64453125 C-2.44333569 12.20477085 -4.79835101 10.8444425 -10.6875 10.4375 C-11.64011719 10.41558594 -12.59273437 10.39367187 -13.57421875 10.37109375 C-14.37472656 10.24863281 -15.17523438 10.12617188 -16 10 C-16.66 9.01 -17.32 8.02 -18 7 C-9.86375209 6.38048874 -3.41038554 6.52525258 3 12 C6.08062997 15.52709808 8.76933302 18.84277638 9.27734375 23.59375 C9 26 9 26 7 29 C7 29.99 7 30.98 7 32 C12.94 32 18.88 32 25 32 C24.505 29.03 24.505 29.03 24 26 C23.39671875 25.87625 22.7934375 25.7525 22.171875 25.625 C15.75782713 23.96976184 15.75782713 23.96976184 13.6171875 21.23046875 C12.62322719 19.18384969 11.78709353 17.13407833 11 15 C7.82744217 7.71466772 7.82744217 7.71466772 1.75 3.1875 C1.1725 3.125625 0.595 3.06375 0 3 C0 2.01 0 1.02 0 0 Z " fill="#101010" transform="translate(232,250)"/>
<path d="M0 0 C2.35119399 3.52679099 2.21443452 5.02879485 2.125 9.1875 C2.10695313 10.27417969 2.08890625 11.36085937 2.0703125 12.48046875 C2.04710937 13.31191406 2.02390625 14.14335937 2 15 C2.928125 15.433125 3.85625 15.86625 4.8125 16.3125 C7.46835744 17.71854217 9.17676197 18.67030696 11 21 C11 21.66 11 22.32 11 23 C7.12925735 22.47692667 5.69586272 21.69586272 3 19 C-0.10007201 17.79950593 -0.10007201 17.79950593 -3 17 C-2.855625 16.15695313 -2.71125 15.31390625 -2.5625 14.4453125 C-2.2840625 12.80175781 -2.2840625 12.80175781 -2 11.125 C-1.7215625 9.48917969 -1.7215625 9.48917969 -1.4375 7.8203125 C-0.94890292 5.14628036 -0.94890292 5.14628036 -1 3 C-5.96911366 4.12697043 -5.96911366 4.12697043 -10 7 C-10.46162427 9.43252661 -10.46162427 9.43252661 -10.625 12.125 C-10.69976562 13.03507813 -10.77453125 13.94515625 -10.8515625 14.8828125 C-10.90054688 15.58148438 -10.94953125 16.28015625 -11 17 C-13.60109977 16.35854112 -16.17973076 15.67506897 -18.76367188 14.96337891 C-22.78625395 13.96098678 -26.62879822 13.68640004 -30.78125 13.5859375 C-31.48020386 13.56657135 -32.17915771 13.5472052 -32.89929199 13.5272522 C-35.09940964 13.4681785 -37.29958172 13.42136527 -39.5 13.375 C-41.00522929 13.33675343 -42.51043825 13.29769799 -44.015625 13.2578125 C-47.6768957 13.16253875 -51.33832122 13.07824644 -55 13 C-54.67 12.34 -54.34 11.68 -54 11 C-48.48082741 10.04040964 -43.03080274 9.80757523 -37.4375 9.8125 C-36.28145264 9.8115332 -36.28145264 9.8115332 -35.10205078 9.81054688 C-27.622685 9.87808065 -20.37473336 10.78175496 -13 12 C-13.05800781 10.90429688 -13.11601562 9.80859375 -13.17578125 8.6796875 C-13 5 -13 5 -11.79296875 3.2578125 C-4.63374515 -1.7937078 -4.63374515 -1.7937078 0 0 Z " fill="#0A0A0A" transform="translate(411,224)"/>
<path d="M0 0 C1.60294922 0.04060547 1.60294922 0.04060547 3.23828125 0.08203125 C4.04652344 0.11683594 4.85476562 0.15164062 5.6875 0.1875 C5.3575 1.1775 5.0275 2.1675 4.6875 3.1875 C3.92824219 3.22488281 3.16898438 3.26226562 2.38671875 3.30078125 C1.39285156 3.36652344 0.39898437 3.43226563 -0.625 3.5 C-1.61113281 3.55800781 -2.59726563 3.61601562 -3.61328125 3.67578125 C-6.28567232 4.00086785 -6.28567232 4.00086785 -8.11328125 5.38671875 C-9.73438426 7.82101349 -9.93006222 9.78547409 -10.1875 12.6875 C-10.28804687 13.6465625 -10.38859375 14.605625 -10.4921875 15.59375 C-10.50095735 18.15314354 -10.50095735 18.15314354 -9.30078125 19.98828125 C-6.25464342 21.82553924 -3.08988558 21.76176845 0.375 21.875 C1.4278418 21.92624023 1.4278418 21.92624023 2.50195312 21.97851562 C4.22991387 22.06079947 5.95868072 22.1258324 7.6875 22.1875 C7.6875 23.1775 7.6875 24.1675 7.6875 25.1875 C-7.07348177 25.66796595 -7.07348177 25.66796595 -11.98046875 21.91015625 C-14.57556821 18.55403056 -13.65559012 14.22493552 -13.3125 10.1875 C-12.21069967 3.87718903 -12.21069967 3.87718903 -9.125 1.5078125 C-5.83161141 -0.03825048 -3.61700486 -0.11924192 0 0 Z " fill="#121212" transform="translate(204.3125,197.8125)"/>
<path d="M0 0 C8.13624791 -0.61951126 14.58961446 -0.47474742 21 5 C24.14429593 8.59999099 26.88477524 11.89640955 27.15234375 16.78125 C27.10207031 17.5134375 27.05179688 18.245625 27 19 C25.68 19.33 24.36 19.66 23 20 C22.87625 18.4221875 22.87625 18.4221875 22.75 16.8125 C21.92300555 12.60861155 20.94950906 11.03143987 18 8 C17.319375 7.2575 16.63875 6.515 15.9375 5.75 C12.09243213 3.45932127 8.84256029 3.4726976 4.42578125 3.37109375 C3.22501953 3.18740234 3.22501953 3.18740234 2 3 C1.34 2.01 0.68 1.02 0 0 Z " fill="#1D1D1D" transform="translate(214,257)"/>
<path d="M0 0 C1.32 0.66 2.64 1.32 4 2 C2.8656185 9.94067053 -2.50728227 15.50728227 -8 21 C-8.66 21.33 -9.32 21.66 -10 22 C-10 18.04 -10 14.08 -10 10 C-9.34 10 -8.68 10 -8 10 C-7.34 11.32 -6.68 12.64 -6 14 C-4.37168238 12.19038423 -4.37168238 12.19038423 -3 10 C-3.33 9.01 -3.66 8.02 -4 7 C-2.35 6.34 -0.7 5.68 1 5 C0.67 3.35 0.34 1.7 0 0 Z " fill="#010101" transform="translate(442,237)"/>
<path d="M0 0 C0.66 0.33 1.32 0.66 2 1 C1.319375 1.845625 0.63875 2.69125 -0.0625 3.5625 C-2.43065395 7.76406347 -1.82658451 9.37112672 -1 14 C-1.875 17.1875 -1.875 17.1875 -3 20 C-3.34976758 21.32911682 -3.69096017 22.66082739 -4 24 C-4.99 24 -5.98 24 -7 24 C-7 23.01 -7 22.02 -7 21 C-7.66 20.34 -8.32 19.68 -9 19 C-8.13375 18.154375 -7.2675 17.30875 -6.375 16.4375 C-4.93020894 14.85540789 -4.93020894 14.85540789 -4 13 C-4.53219091 9.17352608 -4.53219091 9.17352608 -6 6 C-4.02 4.02 -2.04 2.04 0 0 Z " fill="#000000" transform="translate(470,231)"/>
<path d="M0 0 C1.65 0.33 3.3 0.66 5 1 C5.90594807 3.61718331 5.98235878 5.10143704 5.5 7.875 C4.96376636 11.22646028 5.41081278 13.68582189 6 17 C5.67 17.99 5.34 18.98 5 20 C4.01 19.67 3.02 19.34 2 19 C2.2475 18.4225 2.495 17.845 2.75 17.25 C2.8325 16.5075 2.915 15.765 3 15 C1.14567913 12.72855926 1.14567913 12.72855926 -1 11 C0.33333333 8.33333333 1.66666667 5.66666667 3 3 C2.01 2.67 1.02 2.34 0 2 C0 1.34 0 0.68 0 0 Z " fill="#000000" transform="translate(564,256)"/>
<path d="M0 0 C-0.33 0.99 -0.66 1.98 -1 3 C-9.91 3 -18.82 3 -28 3 C-28 2.34 -28 1.68 -28 1 C-25.02097935 0.83028977 -22.04182744 0.66416249 -19.0625 0.5 C-18.23169922 0.45230469 -17.40089844 0.40460938 -16.54492188 0.35546875 C-11.02067678 0.05453711 -5.53245695 -0.04466161 0 0 Z " fill="#010101" transform="translate(220,229)"/>
<path d="M0 0 C1 3 1 3 1 6 C3.83269666 7.41634833 6.47466438 7.3463005 9.625 7.5625 C10.81351563 7.64628906 12.00203125 7.73007812 13.2265625 7.81640625 C14.59941406 7.90728516 14.59941406 7.90728516 16 8 C16 8.66 16 9.32 16 10 C13.5622037 10.05397335 11.12560315 10.09365616 8.6875 10.125 C7.65206055 10.15013672 7.65206055 10.15013672 6.59570312 10.17578125 C2.82864604 10.21217794 1.21568296 10.14378864 -2 8 C-2.1875 4.375 -2.1875 4.375 -2 1 C-1.34 0.67 -0.68 0.34 0 0 Z " fill="#060606" transform="translate(238,276)"/>
<path d="M0 0 C0.66 0.33 1.32 0.66 2 1 C1.814375 1.515625 1.62875 2.03125 1.4375 2.5625 C0.83752918 5.1713937 0.83752918 5.1713937 1.5 8.5 C1.93772143 11.56405002 2.02210188 13.16082812 1 16 C0.01 15.67 -0.98 15.34 -2 15 C-1.773125 14.113125 -1.54625 13.22625 -1.3125 12.3125 C-0.94548054 8.42209376 -1.73118159 7.08559304 -4 4 C-2.68 2.68 -1.36 1.36 0 0 Z " fill="#000000" transform="translate(518,231)"/>
<path d="M0 0 C0.625 1.8125 0.625 1.8125 1 4 C0.01 5.485 0.01 5.485 -1 7 C-1.99 7 -2.98 7 -4 7 C-4 6.34 -4 5.68 -4 5 C-8.29 5 -12.58 5 -17 5 C-17 4.67 -17 4.34 -17 4 C-9.08 3.505 -9.08 3.505 -1 3 C-0.67 2.01 -0.34 1.02 0 0 Z " fill="#424242" transform="translate(258,279)"/>
<path d="M0 0 C-0.33 1.32 -0.66 2.64 -1 4 C-1.66 4 -2.32 4 -3 4 C-3.33 4.99 -3.66 5.98 -4 7 C-4.99 7 -5.98 7 -7 7 C-3.86206897 0 -3.86206897 0 0 0 Z " fill="#1A1A1A" transform="translate(196,254)"/>
<path d="M0 0 C2.31 0 4.62 0 7 0 C6.67 0.99 6.34 1.98 6 3 C3.69 3 1.38 3 -1 3 C-0.67 2.01 -0.34 1.02 0 0 Z " fill="#222222" transform="translate(213,229)"/>
<path d="M0 0 C0.99 0 1.98 0 3 0 C3 1.65 3 3.3 3 5 C1.68 5 0.36 5 -1 5 C-0.67 3.35 -0.34 1.7 0 0 Z " fill="#020202" transform="translate(226,194)"/>
<path d="M0 0 C0.33 0 0.66 0 1 0 C1 2.97 1 5.94 1 9 C0.01 9 -0.98 9 -2 9 C-1.125 1.125 -1.125 1.125 0 0 Z " fill="#000000" transform="translate(602,255)"/>
</svg>
