<?xml version="1.0" encoding="UTF-8"?>
<svg version="1.1" xmlns="http://www.w3.org/2000/svg" width="800" height="300">
<path d="M0 0 C264 0 528 0 800 0 C800 99 800 198 800 300 C536 300 272 300 0 300 C0 201 0 102 0 0 Z " fill="#FEFEFE" transform="translate(0,0)"/>
<path d="M0 0 C2.6875 -0.3125 2.6875 -0.3125 6 0 C6.65484375 0.82371094 7.3096875 1.64742187 7.984375 2.49609375 C12.5652212 6.2996202 16.79729447 5.57827168 22.5625 5.375 C23.56474609 5.36082031 24.56699219 5.34664062 25.59960938 5.33203125 C30.47519469 5.2414631 35.34076995 5.04623593 40.20825195 4.75537109 C54.45235002 3.91878154 68.67682983 3.84573931 82.94213867 3.86962891 C85.67653585 3.87416195 88.4108666 3.87421517 91.14526367 3.86962891 C100.43094505 3.85414611 109.7147567 3.89399703 119 4 C120.89718781 4.01987976 120.89718781 4.01987976 122.83270264 4.04016113 C126.4714204 4.08922994 130.10817747 4.16795371 133.74609375 4.2578125 C135.34216209 4.27822098 135.34216209 4.27822098 136.97047424 4.29904175 C147.76141846 4.63593906 157.23194941 7.126133 165.1015625 14.796875 C168.08119031 18.25471468 170.07594107 21.88307979 172 26 C172.5878125 27.06347656 172.5878125 27.06347656 173.1875 28.1484375 C176.97476175 35.43365628 176.77162077 42.60176161 175.375 50.5625 C169.6875 64.78125 169.6875 64.78125 163.4375 67.625 C157.70072769 69.69064707 152.18507829 70.14951793 146.12109375 70.1328125 C145.35992249 70.13413177 144.59875122 70.13545105 143.81451416 70.1368103 C141.35546728 70.1387179 138.89653518 70.13241583 136.4375 70.125 C135.60618561 70.12411377 134.77487122 70.12322754 133.91836548 70.12231445 C121.58858811 70.10680173 109.30284848 69.87542505 97 69 C97 68.34 97 67.68 97 67 C96.29617188 67.16242188 95.59234375 67.32484375 94.8671875 67.4921875 C87.40965184 68.81300444 79.59253259 68.08414043 72.08203125 67.5078125 C66.67319889 67.13155169 61.29977248 66.9117425 55.87890625 66.859375 C21.79509958 66.48121764 21.79509958 66.48121764 10.8125 58.25 C9.32421875 56.69140625 9.32421875 56.69140625 8 55 C7.51144531 54.41089844 7.02289063 53.82179688 6.51953125 53.21484375 C2.55488966 47.4511211 2.40935902 41.64162749 2.45166016 34.85229492 C2.47029608 32.43228376 2.47029608 32.43228376 2 29 C0.13377036 27.1371129 0.13377036 27.1371129 -2 26 C-3.20745835 22.37762495 -3.22246029 19.0229405 -3.25 15.25 C-3.270625 14.5590625 -3.29125 13.868125 -3.3125 13.15625 C-3.35088173 8.05147958 -2.27330153 4.57053254 0 0 Z " fill="#656565" transform="translate(428,216)"/>
<path d="M0 0 C5.4645135 -0.33456205 9.19446399 0.31998954 14 3 C16.72720148 6.34302117 17.36643538 8.7249206 17 13 C16.34 13 15.68 13 15 13 C14.79375 11.906875 14.5875 10.81375 14.375 9.6875 C13.34812537 5.84973216 13.34812537 5.84973216 10.25 4.125 C7.14225737 3.04924294 4.24079271 2.49788715 1 2 C-0.0379599 12.03582771 -0.0379599 12.03582771 1 22 C-2.3 22.66 -5.6 23.32 -9 24 C-9.33 24.99 -9.66 25.98 -10 27 C-11.7421875 28.4296875 -11.7421875 28.4296875 -13.875 29.875 C-17.21305327 32.25932377 -19.06090876 34.33727209 -21 38 C-21.66 38 -22.32 38 -23 38 C-25.97030054 51.73764001 -22.8465705 65.59803317 -16.125 77.8125 C-10.94056906 85.49796295 -4.30568836 86.69151857 4.3984375 88.40625 C9.25252007 89.20648921 14.09048853 89.70943708 19 90 C19 90.99 19 91.98 19 93 C18.01 93.33 17.02 93.66 16 94 C14.63330354 96.34644361 14.63330354 96.34644361 13.5 99.1875 C13.06300781 100.18007813 12.62601563 101.17265625 12.17578125 102.1953125 C11.2947847 104.29682587 10.47526181 106.42428937 9.6875 108.5625 C7.46827162 111.76805211 5.70299916 111.88236204 2.00390625 112.59765625 C-0.9596655 113.19268138 -2.75312346 113.95738496 -5 116 C-5.72473045 118.73126029 -5.85973544 121.14795395 -6 124 C-5.360625 124.144375 -4.72125 124.28875 -4.0625 124.4375 C-2 125 -2 125 -1 126 C0.99799572 126.09873816 2.99957158 126.12971799 5 126.125 C6.093125 126.12757813 7.18625 126.13015625 8.3125 126.1328125 C10.91830354 126.30547755 10.91830354 126.30547755 12 125 C12.07226502 123.14712498 12.0838122 121.29166122 12.0625 119.4375 C12.05347656 118.42558594 12.04445312 117.41367187 12.03515625 116.37109375 C12.02355469 115.58863281 12.01195312 114.80617188 12 114 C13.72526042 113.12109375 15.45052083 112.2421875 17.17578125 111.36328125 C19.55533972 109.58498166 20.53323994 107.57431357 22 105 C23.3683291 103.207829 24.7647509 101.43678168 26.1875 99.6875 C27.26064453 98.36298828 27.26064453 98.36298828 28.35546875 97.01171875 C28.89816406 96.34785156 29.44085938 95.68398437 30 95 C33.84893854 96.28297951 34.27343891 97.68437738 36.3125 101.125 C38.48262884 104.68031745 40.6410451 107.9119716 43.4375 111 C46 114 46 114 46 117 C44.35 117.33 42.7 117.66 41 118 C40.67 119.98 40.34 121.96 40 124 C47.80906103 124.68954939 47.80906103 124.68954939 54.9375 122.1875 C55.618125 121.465625 56.29875 120.74375 57 120 C61.60714286 117 61.60714286 117 64 117 C63.67 116.01 63.34 115.02 63 114 C60.15293853 112.57646927 57.34470652 112.77577287 54.19140625 112.671875 C52 112 52 112 50.37890625 109.92578125 C48.76767998 106.50706036 47.52012095 103.03190742 46.375 99.4375 C46.1584375 98.77814453 45.941875 98.11878906 45.71875 97.43945312 C43.44388761 90.4533788 43.44388761 90.4533788 43 88 C44.57361062 86.42638938 46.15144445 86.87023453 48.33203125 86.8671875 C49.21310547 86.86589844 50.09417969 86.86460937 51.00195312 86.86328125 C51.92943359 86.86714844 52.85691406 86.87101562 53.8125 86.875 C54.72837891 86.87113281 55.64425781 86.86726563 56.58789062 86.86328125 C57.91530273 86.86521484 57.91530273 86.86521484 59.26953125 86.8671875 C60.08010986 86.86831543 60.89068848 86.86944336 61.72583008 86.87060547 C64 87 64 87 65.9230957 87.48852539 C68.61954033 88.15257282 71.18577755 88.21988448 73.9609375 88.31640625 C75.73488892 88.37948975 75.73488892 88.37948975 77.54467773 88.44384766 C78.80868408 88.48300293 80.07269043 88.5221582 81.375 88.5625 C83.32998413 88.6251001 83.32998413 88.6251001 85.32446289 88.68896484 C108.27111294 89.37796898 131.12262448 89.02874839 154 87 C153.5311169 92.05245467 151.0359354 95.09658411 148.0625 99 C145.10158329 102.91996895 142.73513397 106.36152305 141 111 C139.3125 111.75 139.3125 111.75 137 112 C135.14375 112.2784375 135.14375 112.2784375 133.25 112.5625 C131.64125 112.7790625 131.64125 112.7790625 130 113 C129.67 114.98 129.34 116.96 129 119 C129.804375 119.185625 129.804375 119.185625 130.625 119.375 C133 120 133 120 135.9375 121.0625 C140.12583868 122.3446445 142.85664215 122.38111928 147 121 C146.65213292 119.02463255 146.65213292 119.02463255 146 117 C145.34 116.67 144.68 116.34 144 116 C145 113 145 113 147.5625 111.5 C153.63645318 107.73503144 158.04881543 100.38419519 161 94 C161.66 94 162.32 94 163 94 C164.14682599 95.68772587 165.21766316 97.42741219 166.25 99.1875 C168.37071754 102.65089405 170.20373971 105.51899152 173.4375 108 C174.283125 108.66 175.12875 109.32 176 110 C176 110.99 176 111.98 176 113 C174 114.6875 174 114.6875 172 116 C172.57452746 119.93075644 172.57452746 119.93075644 175 123 C179.14179117 122.9079602 180.68334675 122.29506326 183.75 119.4375 C184.4925 118.633125 185.235 117.82875 186 117 C186.66 117 187.32 117 188 117 C188 114.03 188 111.06 188 108 C184.37 108 180.74 108 177 108 C175.86988348 105.7941576 174.74584212 103.58554973 173.625 101.375 C173.30789063 100.75753906 172.99078125 100.14007813 172.6640625 99.50390625 C170.76407197 95.74350833 169.23211496 92.04482184 168 88 C168.66 88 169.32 88 170 88 C170.33 86.68 170.66 85.36 171 84 C171.66 84.33 172.32 84.66 173 85 C173 85.66 173 86.32 173 87 C173.70382812 87.02578125 174.40765625 87.0515625 175.1328125 87.078125 C182.36218349 87.49338913 188.79816026 88.90155563 195.71484375 91.015625 C198.55163032 91.86564904 201.35495874 92.57410442 204.25 93.1875 C208 94 208 94 210 95 C211.37548156 95.08308638 212.75485796 95.10736016 214.1328125 95.09765625 C214.93847656 95.09443359 215.74414062 95.09121094 216.57421875 95.08789062 C217.41597656 95.07951172 218.25773438 95.07113281 219.125 95.0625 C219.97449219 95.05798828 220.82398438 95.05347656 221.69921875 95.04882812 C223.79950909 95.03702874 225.8997633 95.01909306 228 95 C228.42648473 91.57458294 228.60783877 88.41007854 228 85 C226.35719824 83.22240425 224.60577646 82.03018882 222.625 80.6484375 C219.89233167 77.87635569 220.09946251 74.71459045 219.97265625 70.9765625 C219.98167969 70.32429688 219.99070312 69.67203125 220 69 C217.60280568 68.32041397 217.60280568 68.32041397 215 68 C214.34 68.66 213.68 69.32 213 70 C213.37083833 73.4117126 214.10858176 76.68901795 215 80 C213.989375 79.87625 212.97875 79.7525 211.9375 79.625 C211.21046875 79.53863281 210.4834375 79.45226562 209.734375 79.36328125 C207.65590889 79.08714218 205.58370067 78.76342085 203.515625 78.41796875 C202.25234375 78.21816406 200.9890625 78.01835937 199.6875 77.8125 C198.49511719 77.61269531 197.30273438 77.41289062 196.07421875 77.20703125 C192.92137758 76.88665559 190.32893238 77.26244323 187.23828125 77.93359375 C178.74358659 79.6459113 170.1277038 79.30154744 161.5 79.25 C160.58513824 79.24689819 159.67027649 79.24379639 158.72769165 79.24060059 C146.44655347 79.19205906 134.17303289 78.97625184 121.90625 78.36120605 C120.45157464 78.28829621 118.99664972 78.22017319 117.54150391 78.15734863 C107.22139158 77.69259305 96.40114065 76.94316403 87.81640625 70.67578125 C85.67697445 67.52414516 84.80153814 64.89683585 83.9375 61.1875 C83.77596436 60.536604 83.61442871 59.88570801 83.44799805 59.21508789 C82.61016223 55.80962506 81.87157324 52.39088017 81.1796875 48.953125 C79.15788152 39.3498379 75.57697213 27.34374652 66.90625 21.6171875 C64.858257 20.84598605 64.858257 20.84598605 62 21 C62.52268466 18.23723823 63.10869587 15.6739124 64 13 C63.56189807 9.42389165 63.56189807 9.42389165 62 6 C58.07062582 3.23157728 54.76961123 2.36405184 50 3 C48.02421261 3.89061215 48.02421261 3.89061215 47 6 C46.67 8.64 46.34 11.28 46 14 C37.42 14.33 28.84 14.66 20 15 C20 14.01 20 13.02 20 12 C22.85160391 11.18565857 25.36626131 10.88118758 28.328125 10.90234375 C29.52695313 10.90717773 29.52695313 10.90717773 30.75 10.91210938 C31.575 10.92048828 32.4 10.92886719 33.25 10.9375 C34.09046875 10.94201172 34.9309375 10.94652344 35.796875 10.95117188 C37.86461401 10.96292039 39.93231624 10.98085478 42 11 C42.14695312 10.22011719 42.29390625 9.44023437 42.4453125 8.63671875 C43.36018368 4.28785925 44.25217138 2.49855241 48 0 C52.49246339 -0.74397483 56.99123888 -0.95018736 61.171875 1.02734375 C65.81182551 4.60645087 68.12072864 9.2297817 69 15 C68.67 15.99 68.34 16.98 68 18 C68.94875 18.7425 69.8975 19.485 70.875 20.25 C73.36434467 22.3069233 74.71592349 24.00382148 76 27 C76.66 27.33 77.32 27.66 78 28 C82.41970963 35.64264419 84.43389994 43.87937257 86.25 52.4375 C86.50523437 53.59443359 86.76046875 54.75136719 87.0234375 55.94335938 C87.49295447 58.07224815 87.95746832 60.20225188 88.41503906 62.33374023 C88.90519681 64.5678858 89.43039092 66.78503629 90 69 C90.77085937 69.20496094 91.54171875 69.40992188 92.3359375 69.62109375 C93.33882813 69.89050781 94.34171875 70.15992188 95.375 70.4375 C96.37273437 70.70433594 97.37046875 70.97117187 98.3984375 71.24609375 C101 72 101 72 103 73 C105.51912108 73.2151084 108.01903239 73.37744924 110.54296875 73.5 C111.68394768 73.5609082 111.68394768 73.5609082 112.84797668 73.62304688 C115.29428642 73.75286845 117.74085526 73.8766681 120.1875 74 C123.36857783 74.16499968 126.54952443 74.33244926 129.73046875 74.5 C130.51340302 74.54066086 131.29633728 74.58132172 132.10299683 74.62321472 C137.1310079 74.8879518 142.15280063 75.20330493 147.17578125 75.55078125 C161.06864692 76.49787408 174.11647569 75.7354809 187.890625 73.5390625 C195.65047036 72.51803022 202.47127949 74.05462258 210 76 C209.79246094 74.90558594 209.58492187 73.81117188 209.37109375 72.68359375 C209 69 209 69 211.0625 66.0625 C214 64 214 64 217.0625 63.4375 C220 64 220 64 222.375 65.375 C224.86963042 69.4047876 224.31735888 73.38066514 224 78 C224.61359375 78.28746094 225.2271875 78.57492188 225.859375 78.87109375 C228.92213101 80.48630632 230.22097837 82.01378512 232 85 C232.61940285 88.1311098 232.85122242 90.91233605 232 94 C229.99138196 96.80967404 228.45067719 98.69519929 224.96655273 99.42724609 C222.60372932 99.56507532 220.30208181 99.53483145 217.9375 99.4375 C217.13505859 99.43169922 216.33261719 99.42589844 215.50585938 99.41992188 C211.35333022 99.33376982 208.7008867 98.95367297 205 97 C202.76065986 96.47325866 200.50867541 95.9989471 198.25 95.5625 C194.1855485 94.74203619 190.42654337 93.90844223 186.625 92.25 C182.12719655 90.69903329 179.61075206 91.09431656 175 92 C175.64268437 93.64706553 176.28923802 95.29262175 176.9375 96.9375 C177.29714844 97.85402344 177.65679687 98.77054687 178.02734375 99.71484375 C178.7996218 101.92418533 178.7996218 101.92418533 180 103 C181.65919896 103.36871088 183.32774271 103.69595322 185 104 C189.88888889 104.88888889 189.88888889 104.88888889 191 106 C191.7000092 110.12741275 191.81257239 113.88635225 191 118 C187.52410919 122.55509884 182.98208158 126.45780335 177.25 127.5 C173.0179597 126.84891688 171.68689993 125.25102216 169.1328125 121.94140625 C167.48966851 119.12539741 167.43484607 117.17899085 168 114 C168.63846531 112.65293494 169.30083082 111.31658068 170 110 C169.566875 109.51789063 169.13375 109.03578125 168.6875 108.5390625 C168.130625 107.90742188 167.57375 107.27578125 167 106.625 C166.443125 105.99851562 165.88625 105.37203125 165.3125 104.7265625 C164 103 164 103 164 101 C162.05000871 101.19471111 162.05000871 101.19471111 160 102 C159.33218217 103.33275713 158.66571547 104.66619149 158 106 C156.81881073 107.29610135 155.60861518 108.5661933 154.375 109.8125 C150.84024571 113.70145257 150.90126414 115.76699918 151 121 C147.96717767 124.7327044 147.96717767 124.7327044 145 126 C139.01370642 126.52917512 133.396419 124.36685044 128 122 C126 120 126 120 125.625 117.125 C126 114 126 114 127.75 111.75 C129.84966294 110.11692883 131.50639995 108.90676366 134 108 C134.75796875 108.14953125 135.5159375 108.2990625 136.296875 108.453125 C139.02556096 108.28474406 139.02556096 108.28474406 140.34204102 106.50292969 C141.75662219 104.37859801 143.04848007 102.21718459 144.3125 100 C144.76689453 99.236875 145.22128906 98.47375 145.68945312 97.6875 C146.80973469 95.80071 147.91198977 93.90552243 149 92 C147.53433594 92.10828125 147.53433594 92.10828125 146.0390625 92.21875 C113.3846633 94.39829081 80.63816977 92.54968454 48 91 C48.27714844 91.73605469 48.55429688 92.47210938 48.83984375 93.23046875 C49.20207031 94.20628906 49.56429687 95.18210937 49.9375 96.1875 C50.29714844 97.15042969 50.65679687 98.11335938 51.02734375 99.10546875 C51.91156562 101.7368278 52.52568586 104.26894908 53 107 C53.75925781 107.18175781 54.51851563 107.36351562 55.30078125 107.55078125 C56.29464844 107.80214844 57.28851563 108.05351562 58.3125 108.3125 C59.29863281 108.55613281 60.28476563 108.79976563 61.30078125 109.05078125 C64.03178049 110.01117606 65.26132636 110.72590699 67 113 C67.5625 115.375 67.5625 115.375 67 118 C63.10400481 121.89599519 58.78608738 124.33083588 54 127 C53.34 127.66 52.68 128.32 52 129 C49.9765625 129.265625 49.9765625 129.265625 47.625 129.25 C46.46871094 129.25773437 46.46871094 129.25773437 45.2890625 129.265625 C42.7324699 128.96895555 41.16523899 128.38206744 39 127 C36.68717413 123.53076119 36.57521414 122.07794425 37 118 C38.5 116.125 38.5 116.125 40 115 C38.14183119 111.04913623 35.72642599 107.60121637 33.2421875 104.0234375 C32 102 32 102 32 100 C30.8553125 101.1446875 30.8553125 101.1446875 29.6875 102.3125 C28.27068016 103.72931984 26.84731526 105.14093976 25.375 106.5 C23.82776997 108.07698762 23.82776997 108.07698762 22.5 110.625 C21 113 21 113 18 114 C18 114.66 18 115.32 18 116 C17.01 116.495 17.01 116.495 16 117 C16 120.63 16 124.26 16 128 C11.37792251 130.7732465 7.33540564 131.9257327 2 131 C-1.84706601 129.55735025 -5.08600033 127.91399967 -8 125 C-8.30078125 122.72265625 -8.30078125 122.72265625 -8.3125 120.0625 C-8.32925781 119.18722656 -8.34601563 118.31195313 -8.36328125 117.41015625 C-7.92587612 114.50823191 -7.30218228 113.76049233 -5 112 C-3.09765625 110.83203125 -3.09765625 110.83203125 -1.0625 109.8125 C-0.05896484 109.29623047 -0.05896484 109.29623047 0.96484375 108.76953125 C3 108 3 108 7 108 C7.268125 107.13375 7.53625 106.2675 7.8125 105.375 C9.39129148 100.88790841 11.36319284 96.95521074 14 93 C13.27296875 92.96261719 12.5459375 92.92523438 11.796875 92.88671875 C-10.28222709 91.44308515 -10.28222709 91.44308515 -17 84 C-25.77842401 71.60818111 -28.54225272 56.87281333 -27 42 C-26.02975422 38.75322631 -24.92475276 36.85963267 -23 34 C-22.54625 33.0925 -22.0925 32.185 -21.625 31.25 C-19.49448062 28.30005009 -17.08743391 26.92236451 -14 25 C-11.96103664 23.40890142 -9.93818652 21.80125975 -7.9296875 20.171875 C-6 19 -6 19 -2 19 C-2.33 18.01 -2.66 17.02 -3 16 C-3.61767656 9.87074793 -2.79102638 5.46575999 0 0 Z " fill="#131313" transform="translate(190,157)"/>
<path d="M0 0 C2.6875 -0.3125 2.6875 -0.3125 6 0 C6.65484375 0.82371094 7.3096875 1.64742187 7.984375 2.49609375 C12.5652212 6.2996202 16.79729447 5.57827168 22.5625 5.375 C23.56474609 5.36082031 24.56699219 5.34664062 25.59960938 5.33203125 C30.47519469 5.2414631 35.34076995 5.04623593 40.20825195 4.75537109 C54.45235002 3.91878154 68.67682983 3.84573931 82.94213867 3.86962891 C85.67653585 3.87416195 88.4108666 3.87421517 91.14526367 3.86962891 C100.43094505 3.85414611 109.7147567 3.89399703 119 4 C120.89718781 4.01987976 120.89718781 4.01987976 122.83270264 4.04016113 C126.4714204 4.08922994 130.10817747 4.16795371 133.74609375 4.2578125 C135.34216209 4.27822098 135.34216209 4.27822098 136.97047424 4.29904175 C147.76141846 4.63593906 157.23194941 7.126133 165.1015625 14.796875 C168.08119031 18.25471468 170.07594107 21.88307979 172 26 C172.5878125 27.06347656 172.5878125 27.06347656 173.1875 28.1484375 C176.97476175 35.43365628 176.77162077 42.60176161 175.375 50.5625 C169.6875 64.78125 169.6875 64.78125 163.4375 67.625 C157.70072769 69.69064707 152.18507829 70.14951793 146.12109375 70.1328125 C145.35992249 70.13413177 144.59875122 70.13545105 143.81451416 70.1368103 C141.35546728 70.1387179 138.89653518 70.13241583 136.4375 70.125 C135.60618561 70.12411377 134.77487122 70.12322754 133.91836548 70.12231445 C121.58858811 70.10680173 109.30284848 69.87542505 97 69 C97 68.34 97 67.68 97 67 C96.29617188 67.16242188 95.59234375 67.32484375 94.8671875 67.4921875 C87.40965184 68.81300444 79.59253259 68.08414043 72.08203125 67.5078125 C66.67319889 67.13155169 61.29977248 66.9117425 55.87890625 66.859375 C21.79509958 66.48121764 21.79509958 66.48121764 10.8125 58.25 C9.32421875 56.69140625 9.32421875 56.69140625 8 55 C7.51144531 54.41089844 7.02289063 53.82179688 6.51953125 53.21484375 C2.55488966 47.4511211 2.40935902 41.64162749 2.45166016 34.85229492 C2.47029608 32.43228376 2.47029608 32.43228376 2 29 C0.13377036 27.1371129 0.13377036 27.1371129 -2 26 C-3.20745835 22.37762495 -3.22246029 19.0229405 -3.25 15.25 C-3.270625 14.5590625 -3.29125 13.868125 -3.3125 13.15625 C-3.35088173 8.05147958 -2.27330153 4.57053254 0 0 Z M3 3 C-0.71059486 9.13054803 -1.71075839 15.44620807 -0.3125 22.4375 C0.78058442 25.09159104 0.78058442 25.09159104 3 26.3125 C6.24734023 29.05244332 6.35310018 32.93985245 7 37 C9.64573501 34.77122275 9.64573501 34.77122275 12 32 C11.95502158 29.72476911 11.95502158 29.72476911 11 28 C12.32 27.34 13.64 26.68 15 26 C14.67 24.35 14.34 22.7 14 21 C14.99 21.99 15.98 22.98 17 24 C15.39680795 28.66383143 13.08350522 33.14135949 10 37 C9.30648438 37.30550781 8.61296875 37.61101562 7.8984375 37.92578125 C5.77741393 38.86585583 5.77741393 38.86585583 5.07421875 41.29296875 C4.97884902 44.77145414 5.96425246 46.39079722 7.8125 49.3125 C8.35519531 50.19550781 8.89789063 51.07851563 9.45703125 51.98828125 C9.96621094 52.65214844 10.47539062 53.31601562 11 54 C11.66 54 12.32 54 13 54 C13.33 54.99 13.66 55.98 14 57 C16.36401089 58.26080581 18.47896761 59.14504119 21 60 C21.81339844 60.28230469 22.62679688 60.56460938 23.46484375 60.85546875 C33.75725957 63.93020167 46.48210319 64.63478627 57 62 C57.53394179 60.5882217 58.05165104 59.17029756 58.5625 57.75 C58.85253906 56.96109375 59.14257812 56.1721875 59.44140625 55.359375 C60.0610168 52.74227867 59.94248701 51.4926979 59 49 C58.34 48.01 57.68 47.02 57 46 C57.53625 45.443125 58.0725 44.88625 58.625 44.3125 C59.07875 43.549375 59.5325 42.78625 60 42 C59.26145768 39.36186139 59.26145768 39.36186139 58 37 C58 36.34 58 35.68 58 35 C58.99 35.33 59.98 35.66 61 36 C61.94002987 40.38680608 61.74651537 43.61422219 61 48 C61.185625 48.804375 61.37125 49.60875 61.5625 50.4375 C62.16494838 53.96612624 61.00559799 56.60610677 60 60 C60.33 60.99 60.66 61.98 61 63 C62.06927734 63.09087891 62.06927734 63.09087891 63.16015625 63.18359375 C71.41188054 63.9054808 71.41188054 63.9054808 75.5 64.5625 C82.43977973 65.42997247 89.12334905 65.23427068 96 64 C96.66 64.33 97.32 64.66 98 65 C100.56845219 65.03037021 103.120762 64.93311185 105.6875 64.83984375 C108 65 108 65 110 67 C112.52377655 67.27808217 112.52377655 67.27808217 115.4453125 67.1953125 C116.52167969 67.18886719 117.59804688 67.18242187 118.70703125 67.17578125 C119.83496094 67.15902344 120.96289062 67.14226562 122.125 67.125 C123.26066406 67.11597656 124.39632812 67.10695313 125.56640625 67.09765625 C128.37781299 67.07403098 131.18880298 67.04109013 134 67 C134 66.34 134 65.68 134 65 C134.99 64.67 135.98 64.34 137 64 C138.56028793 61.15102982 139.46843274 58.20059445 140 55 C139.01919106 52.38017854 139.01919106 52.38017854 137 51 C136.34 51 135.68 51 135 51 C135.66 50.236875 136.32 49.47375 137 48.6875 C139.29850538 46.15722061 139.29850538 46.15722061 139 43 C137.56249809 41.31201173 137.56249809 41.31201173 136 40 C137.32 40.33 138.64 40.66 140 41 C140.90594807 43.61718331 140.98235878 45.10143704 140.5 47.875 C139.82038781 50.94518924 139.82038781 50.94518924 140.5625 53.75 C141.18730226 58.39138818 140.07980006 62.48447249 139 67 C149.65771916 67.35857747 158.40464935 67.06190317 166.59375 59.53515625 C171.66979043 54.24761413 174.03554301 48.43102855 173.9765625 41.078125 C172.70835554 30.19972752 166.40917284 21.74595342 159 14 C158.01 13.67 157.02 13.34 156 13 C154.39819908 16.38766195 154.39819908 16.38766195 154.125 20.0625 C154.8950733 22.17907441 154.8950733 22.17907441 157.0625 23.5625 C160.20275922 27.5131487 159.47149501 32.13046134 159 37 C158.67 37.66 158.34 38.32 158 39 C157.01 39.33 156.02 39.66 155 40 C155.165 38.9275 155.33 37.855 155.5 36.75 C156.3352003 30.76189263 156.3352003 30.76189263 155 25 C152.50965614 23.70339566 152.50965614 23.70339566 150 23 C150.99 19.7 151.98 16.4 153 13 C146.68439027 7.21069108 141.08633074 7.22890562 132.75 7.1875 C130.97496094 7.14979492 130.97496094 7.14979492 129.1640625 7.11132812 C125.10889692 7.03050193 121.05589005 7 117 7 C116.97111854 10.31248187 116.95324201 13.62493167 116.9375 16.9375 C116.92493164 18.35579102 116.92493164 18.35579102 116.91210938 19.80273438 C116.90727539 21.15141602 116.90727539 21.15141602 116.90234375 22.52734375 C116.89448853 23.77632446 116.89448853 23.77632446 116.88647461 25.05053711 C116.78356708 27.00516798 116.78356708 27.00516798 118 28 C118.26293056 32.03160191 118.29404844 33.55892734 116 37 C113.875 37.6875 113.875 37.6875 112 38 C113.75 34.125 113.75 34.125 116 33 C115.89171875 31.86111328 115.89171875 31.86111328 115.78125 30.69921875 C115.6884375 29.70535156 115.595625 28.71148437 115.5 27.6875 C115.4071875 26.70136719 115.314375 25.71523437 115.21875 24.69921875 C115 22 115 22 115 19 C114.34 19 113.68 19 113 19 C113.556875 17.63875 113.556875 17.63875 114.125 16.25 C115.25131743 13.16467339 115.25131743 13.16467339 114.375 10.75 C112.21694327 8.00338235 109.96584178 7.12449559 106.52636719 6.68115234 C105.62563477 6.64973145 104.72490234 6.61831055 103.796875 6.5859375 C102.8171875 6.54726562 101.8375 6.50859375 100.828125 6.46875 C99.30445313 6.42234375 99.30445313 6.42234375 97.75 6.375 C96.203125 6.31699219 96.203125 6.31699219 94.625 6.2578125 C92.0835106 6.16368326 89.54202567 6.07805021 87 6 C87.495 6.99 87.495 6.99 88 8 C88.66 8 89.32 8 90 8 C90.67228569 12.48190462 91.12701027 15.63283522 90 20 C90.29235267 22.33882138 90.62599214 24.67284 91 27 C91 28.32 91 29.64 91 31 C90.01 30.01 90.01 30.01 89 29 C89.2784375 27.824375 89.2784375 27.824375 89.5625 26.625 C90.29178752 23.94859806 90.29178752 23.94859806 88.6875 21.6875 C88.130625 21.130625 87.57375 20.57375 87 20 C86.34 20 85.68 20 85 20 C85.680625 19.443125 86.36125 18.88625 87.0625 18.3125 C89.25510881 16.18317288 89.25510881 16.18317288 89.0625 13.5 C87.56544541 9.97751862 86.33969805 8.96356171 83 7 C79.03453696 6.4431461 75.1217931 6.53050618 71.125 6.625 C70.0119751 6.63789063 68.8989502 6.65078125 67.75219727 6.6640625 C59.38070792 6.81952868 51.23850267 7.4996548 43 9 C43.04253906 10.093125 43.08507812 11.18625 43.12890625 12.3125 C43 16 43 16 40.9375 19 C38.43457181 22.87550172 39.20915027 24.57124149 40 29 C39.125 32.1875 39.125 32.1875 38 35 C37.65023242 36.32911682 37.30903983 37.66082739 37 39 C35.79371992 36.66785852 34.8345262 34.50357861 34 32 C34.639375 31.7525 35.27875 31.505 35.9375 31.25 C38.12493715 30.18550582 38.12493715 30.18550582 38.875 28.125 C39.02904228 25.50628117 38.24534014 24.27091436 37 22 C37 21.01 37 20.02 37 19 C39 17.3125 39 17.3125 41 16 C40.81171228 13.55519921 40.81171228 13.55519921 40 11 C36.96969085 8.99095526 34.40823739 8.73084337 30.82421875 8.65625 C29.83099609 8.62660156 28.83777344 8.59695312 27.81445312 8.56640625 C26.26661133 8.53353516 26.26661133 8.53353516 24.6875 8.5 C8.56797015 8.15378142 8.56797015 8.15378142 4.0625 4.375 C3.711875 3.92125 3.36125 3.4675 3 3 Z " fill="#111111" transform="translate(428,216)"/>
<path d="M0 0 C4.8453001 2.29193152 7.19015168 5.74273583 9 10.6875 C9.97017491 13.87915496 10.09200199 14.72399402 9 18 C9.94875 18.7425 10.8975 19.485 11.875 20.25 C14.36434467 22.3069233 15.71592349 24.00382148 17 27 C17.66 27.33 18.32 27.66 19 28 C23.41970963 35.64264419 25.43389994 43.87937257 27.25 52.4375 C27.50523437 53.59443359 27.76046875 54.75136719 28.0234375 55.94335938 C28.49295447 58.07224815 28.95746832 60.20225188 29.41503906 62.33374023 C29.90519681 64.5678858 30.43039092 66.78503629 31 69 C31.77085937 69.20496094 32.54171875 69.40992188 33.3359375 69.62109375 C34.33882813 69.89050781 35.34171875 70.15992188 36.375 70.4375 C37.37273437 70.70433594 38.37046875 70.97117187 39.3984375 71.24609375 C42 72 42 72 44 73 C46.51912108 73.2151084 49.01903239 73.37744924 51.54296875 73.5 C52.68394768 73.5609082 52.68394768 73.5609082 53.84797668 73.62304688 C56.29428642 73.75286845 58.74085526 73.8766681 61.1875 74 C64.36857783 74.16499968 67.54952443 74.33244926 70.73046875 74.5 C71.51340302 74.54066086 72.29633728 74.58132172 73.10299683 74.62321472 C78.1310079 74.8879518 83.15280063 75.20330493 88.17578125 75.55078125 C102.06864692 76.49787408 115.11647569 75.7354809 128.890625 73.5390625 C136.65047036 72.51803022 143.47127949 74.05462258 151 76 C150.79246094 74.90558594 150.58492187 73.81117188 150.37109375 72.68359375 C150 69 150 69 152.0625 66.0625 C155 64 155 64 158.0625 63.4375 C161 64 161 64 163.375 65.4375 C165.6831311 69.07724519 165.90246905 72.78847779 165 77 C164.01 77.66 163.02 78.32 162 79 C161.67 75.7 161.34 72.4 161 69 C158.60280568 68.32041397 158.60280568 68.32041397 156 68 C155.34 68.66 154.68 69.32 154 70 C154.37083833 73.4117126 155.10858176 76.68901795 156 80 C154.989375 79.87625 153.97875 79.7525 152.9375 79.625 C152.21046875 79.53863281 151.4834375 79.45226562 150.734375 79.36328125 C148.65590889 79.08714218 146.58370067 78.76342085 144.515625 78.41796875 C143.25234375 78.21816406 141.9890625 78.01835937 140.6875 77.8125 C139.49511719 77.61269531 138.30273438 77.41289062 137.07421875 77.20703125 C133.92137758 76.88665559 131.32893238 77.26244323 128.23828125 77.93359375 C119.74358659 79.6459113 111.1277038 79.30154744 102.5 79.25 C101.58513824 79.24689819 100.67027649 79.24379639 99.72769165 79.24060059 C87.44655347 79.19205906 75.17303289 78.97625184 62.90625 78.36120605 C61.45157464 78.28829621 59.99664972 78.22017319 58.54150391 78.15734863 C48.22139158 77.69259305 37.40114065 76.94316403 28.81640625 70.67578125 C26.67697445 67.52414516 25.80153814 64.89683585 24.9375 61.1875 C24.77596436 60.536604 24.61442871 59.88570801 24.44799805 59.21508789 C23.61016223 55.80962506 22.87157324 52.39088017 22.1796875 48.953125 C20.15788152 39.3498379 16.57697213 27.34374652 7.90625 21.6171875 C5.858257 20.84598605 5.858257 20.84598605 3 21 C3.52268466 18.23723823 4.10869587 15.6739124 5 13 C4.56189807 9.42389165 4.56189807 9.42389165 3 6 C-0.92937418 3.23157728 -4.23038877 2.36405184 -9 3 C-10.97578739 3.89061215 -10.97578739 3.89061215 -12 6 C-12.33 8.64 -12.66 11.28 -13 14 C-21.58 14.33 -30.16 14.66 -39 15 C-39 14.01 -39 13.02 -39 12 C-36.14839609 11.18565857 -33.63373869 10.88118758 -30.671875 10.90234375 C-29.47304687 10.90717773 -29.47304687 10.90717773 -28.25 10.91210938 C-27.425 10.92048828 -26.6 10.92886719 -25.75 10.9375 C-24.90953125 10.94201172 -24.0690625 10.94652344 -23.203125 10.95117188 C-21.13538599 10.96292039 -19.06768376 10.98085478 -17 11 C-16.85304687 10.22011719 -16.70609375 9.44023437 -16.5546875 8.63671875 C-14.6442912 -0.44439044 -8.33512879 -1.29217779 0 0 Z " fill="#151515" transform="translate(249,157)"/>
<path d="M0 0 C5.4645135 -0.33456205 9.19446399 0.31998954 14 3 C16.72720148 6.34302117 17.36643538 8.7249206 17 13 C16.34 13 15.68 13 15 13 C14.79375 11.906875 14.5875 10.81375 14.375 9.6875 C13.34812537 5.84973216 13.34812537 5.84973216 10.25 4.125 C7.14225737 3.04924294 4.24079271 2.49788715 1 2 C-0.0379599 12.03582771 -0.0379599 12.03582771 1 22 C-2.3 22.66 -5.6 23.32 -9 24 C-9.33 24.99 -9.66 25.98 -10 27 C-11.7421875 28.4296875 -11.7421875 28.4296875 -13.875 29.875 C-17.21305327 32.25932377 -19.06090876 34.33727209 -21 38 C-21.66 38 -22.32 38 -23 38 C-25.97030054 51.73764001 -22.8465705 65.59803317 -16.125 77.8125 C-10.94056906 85.49796295 -4.30568836 86.69151857 4.3984375 88.40625 C9.25252007 89.20648921 14.09048853 89.70943708 19 90 C19 90.99 19 91.98 19 93 C18.01 93.33 17.02 93.66 16 94 C15.34 94.99 14.68 95.98 14 97 C13.01 96.505 13.01 96.505 12 96 C12.99 94.515 12.99 94.515 14 93 C13.27296875 92.96261719 12.5459375 92.92523438 11.796875 92.88671875 C-10.28222709 91.44308515 -10.28222709 91.44308515 -17 84 C-25.77842401 71.60818111 -28.54225272 56.87281333 -27 42 C-26.02975422 38.75322631 -24.92475276 36.85963267 -23 34 C-22.54625 33.0925 -22.0925 32.185 -21.625 31.25 C-19.49448062 28.30005009 -17.08743391 26.92236451 -14 25 C-11.96103664 23.40890142 -9.93818652 21.80125975 -7.9296875 20.171875 C-6 19 -6 19 -2 19 C-2.33 18.01 -2.66 17.02 -3 16 C-3.61767656 9.87074793 -2.79102638 5.46575999 0 0 Z " fill="#0C0C0C" transform="translate(190,157)"/>
<path d="M0 0 C0.33 0 0.66 0 1 0 C1.11593506 0.55461914 1.23187012 1.10923828 1.35131836 1.68066406 C1.87924434 4.20394445 2.40836027 6.72697388 2.9375 9.25 C3.11990234 10.12269531 3.30230469 10.99539062 3.49023438 11.89453125 C3.66748047 12.73886719 3.84472656 13.58320313 4.02734375 14.453125 C4.18968506 15.22817383 4.35202637 16.00322266 4.51928711 16.80175781 C4.97361933 18.87936437 5.4726508 20.93984981 6 23 C6.77085937 23.20496094 7.54171875 23.40992188 8.3359375 23.62109375 C9.33882813 23.89050781 10.34171875 24.15992188 11.375 24.4375 C12.37273437 24.70433594 13.37046875 24.97117188 14.3984375 25.24609375 C17 26 17 26 19 27 C21.51912108 27.2151084 24.01903239 27.37744924 26.54296875 27.5 C27.30362137 27.54060547 28.06427399 27.58121094 28.84797668 27.62304688 C31.29428642 27.75286845 33.74085526 27.8766681 36.1875 28 C39.36857778 28.16499968 42.54952848 28.33237275 45.73046875 28.5 C46.50760223 28.5405249 47.28473572 28.5810498 48.0854187 28.62280273 C55.39549619 29.00894718 62.69768836 29.48827338 70 30 C69.505 31.485 69.505 31.485 69 33 C59.21202712 33.10555178 49.4773157 32.88076884 39.7043457 32.36523438 C38.1916753 32.28833826 36.67861929 32.21868914 35.1652832 32.15625 C12.88243823 31.23390307 12.88243823 31.23390307 3.8359375 24.72265625 C1.62360466 21.44181372 0.51594085 18.24458756 -0.375 14.4375 C-0.55160156 13.77814453 -0.72820312 13.11878906 -0.91015625 12.43945312 C-1.77975081 8.97846677 -2.29885254 6.36937629 -1 3 C-0.67 2.01 -0.34 1.02 0 0 Z " fill="#1E1E1E" transform="translate(274,203)"/>
<path d="M0 0 C5.4645135 -0.33456205 9.19446399 0.31998954 14 3 C16.72720148 6.34302117 17.36643538 8.7249206 17 13 C16.34 13 15.68 13 15 13 C14.79375 11.906875 14.5875 10.81375 14.375 9.6875 C13.34812537 5.84973216 13.34812537 5.84973216 10.25 4.125 C7.14225737 3.04924294 4.24079271 2.49788715 1 2 C-0.0379599 12.03582771 -0.0379599 12.03582771 1 22 C-2.3 22.66 -5.6 23.32 -9 24 C-9.33 24.99 -9.66 25.98 -10 27 C-11.7421875 28.5 -11.7421875 28.5 -13.875 30 C-15.93405015 31.45881044 -17.81530345 32.80887123 -19.5703125 34.625 C-21 36 -21 36 -24 37 C-23.33333333 35.66666667 -22.66666667 34.33333333 -22 33 C-21.7525 32.34 -21.505 31.68 -21.25 31 C-19.41553007 28.06484812 -16.91959196 26.8382616 -14 25 C-11.96147068 23.40837903 -9.93817208 21.80124804 -7.9296875 20.171875 C-6 19 -6 19 -2 19 C-2.33 18.01 -2.66 17.02 -3 16 C-3.61767656 9.87074793 -2.79102638 5.46575999 0 0 Z " fill="#151515" transform="translate(190,157)"/>
<path d="M0 0 C1.74216797 0.04060547 1.74216797 0.04060547 3.51953125 0.08203125 C4.39996094 0.11683594 5.28039062 0.15164062 6.1875 0.1875 C2.66102614 2.53848257 0.45684328 2.56954378 -3.65625 2.84375 C-6.10313757 3.08024238 -6.10313757 3.08024238 -8.8125 5.1875 C-11.35113031 9.86392425 -11.1810469 14.38654353 -10.5 19.5625 C-10.273125 20.09875 -10.04625 20.635 -9.8125 21.1875 C-6.54076805 22.27807732 -3.75053558 22.47068695 -0.3125 22.6875 C3.12553558 22.90431305 5.91576805 23.09692268 9.1875 24.1875 C8.8575 25.1775 8.5275 26.1675 8.1875 27.1875 C-6.85305427 26.97700878 -6.85305427 26.97700878 -10.6875 23.75 C-14.57402954 19.06330261 -14.15687716 15.0872245 -13.8125 9.1875 C-13.06811068 5.46555339 -12.67453199 3.84651721 -9.65625 1.5390625 C-6.20810831 -0.09975209 -3.79799974 -0.1150909 0 0 Z " fill="#232323" transform="translate(200.8125,193.8125)"/>
<path d="M0 0 C1.32 0.66 2.64 1.32 4 2 C2.8656185 9.94067053 -2.50728227 15.50728227 -8 21 C-8.66 21.33 -9.32 21.66 -10 22 C-10 18.04 -10 14.08 -10 10 C-9.34 10 -8.68 10 -8 10 C-7.34 11.32 -6.68 12.64 -6 14 C-4.37168238 12.19038423 -4.37168238 12.19038423 -3 10 C-3.33 9.01 -3.66 8.02 -4 7 C-2.35 6.34 -0.7 5.68 1 5 C0.67 3.35 0.34 1.7 0 0 Z " fill="#010101" transform="translate(442,237)"/>
<path d="M0 0 C0.66 0.33 1.32 0.66 2 1 C1.319375 1.845625 0.63875 2.69125 -0.0625 3.5625 C-2.43065395 7.76406347 -1.82658451 9.37112672 -1 14 C-1.875 17.1875 -1.875 17.1875 -3 20 C-3.34976758 21.32911682 -3.69096017 22.66082739 -4 24 C-4.99 24 -5.98 24 -7 24 C-7 23.01 -7 22.02 -7 21 C-7.66 20.34 -8.32 19.68 -9 19 C-8.13375 18.154375 -7.2675 17.30875 -6.375 16.4375 C-4.93020894 14.85540789 -4.93020894 14.85540789 -4 13 C-4.53219091 9.17352608 -4.53219091 9.17352608 -6 6 C-4.02 4.02 -2.04 2.04 0 0 Z " fill="#000000" transform="translate(470,231)"/>
<path d="M0 0 C1.65 0.33 3.3 0.66 5 1 C5.90594807 3.61718331 5.98235878 5.10143704 5.5 7.875 C4.96376636 11.22646028 5.41081278 13.68582189 6 17 C5.67 17.99 5.34 18.98 5 20 C4.01 19.67 3.02 19.34 2 19 C2.2475 18.4225 2.495 17.845 2.75 17.25 C2.8325 16.5075 2.915 15.765 3 15 C1.14567913 12.72855926 1.14567913 12.72855926 -1 11 C0.33333333 8.33333333 1.66666667 5.66666667 3 3 C2.01 2.67 1.02 2.34 0 2 C0 1.34 0 0.68 0 0 Z " fill="#000000" transform="translate(564,256)"/>
<path d="M0 0 C0.91120605 0.01047363 1.82241211 0.02094727 2.76123047 0.03173828 C3.74736328 0.03818359 4.73349609 0.04462891 5.74951172 0.05126953 C7.29832031 0.07640625 7.29832031 0.07640625 8.87841797 0.10205078 C9.91869141 0.11107422 10.95896484 0.12009766 12.03076172 0.12939453 C14.60520889 0.15301331 17.17920009 0.18594929 19.75341797 0.22705078 C20.08341797 1.21705078 20.41341797 2.20705078 20.75341797 3.22705078 C17.89918605 3.25423394 15.04521782 3.27397783 12.19091797 3.28955078 C10.99112305 3.30211914 10.99112305 3.30211914 9.76708984 3.31494141 C4.98178693 3.33447325 0.47196746 3.03142096 -4.24658203 2.22705078 C-2.24658203 0.22705078 -2.24658203 0.22705078 0 0 Z " fill="#3C3C3C" transform="translate(195.24658203125,227.77294921875)"/>
<path d="M0 0 C1.89492187 0.01353516 1.89492187 0.01353516 3.828125 0.02734375 C4.79234375 0.03894531 5.7565625 0.05054688 6.75 0.0625 C6.75 0.3925 6.75 0.7225 6.75 1.0625 C9.39 1.3925 12.03 1.7225 14.75 2.0625 C14.75 2.3925 14.75 2.7225 14.75 3.0625 C6.17 3.3925 -2.41 3.7225 -11.25 4.0625 C-11.25 3.0725 -11.25 2.0825 -11.25 1.0625 C-7.49600202 -0.1414337 -3.91782588 -0.03627617 0 0 Z " fill="#3A3A3A" transform="translate(221.25,167.9375)"/>
<path d="M0 0 C-0.66 1.32 -1.32 2.64 -2 4 C-3.36125 3.9690625 -3.36125 3.9690625 -4.75 3.9375 C-7.43791858 3.98919074 -9.49820306 4.07340854 -12 5 C-12.33 5.66 -12.66 6.32 -13 7 C-13.33 7 -13.66 7 -14 7 C-14.33 8.65 -14.66 10.3 -15 12 C-15.33 12 -15.66 12 -16 12 C-16.48837209 6.62790698 -16.48837209 6.62790698 -14.25 3.75 C-9.31767264 -0.08625461 -6.16602706 -0.20553424 0 0 Z " fill="#2D2D2D" transform="translate(332,265)"/>
<path d="M0 0 C1.74216797 0.04060547 1.74216797 0.04060547 3.51953125 0.08203125 C4.39996094 0.11683594 5.28039062 0.15164062 6.1875 0.1875 C2.66102614 2.53848257 0.45684328 2.56954378 -3.65625 2.84375 C-6.10313757 3.08024238 -6.10313757 3.08024238 -8.8125 5.1875 C-10.01700304 7.73933404 -10.01700304 7.73933404 -10.8125 10.1875 C-11.875 8.375 -11.875 8.375 -12.8125 6.1875 C-11.8125 3.1875 -11.8125 3.1875 -9.67578125 1.51171875 C-6.22163234 -0.08576622 -3.78730066 -0.11476669 0 0 Z " fill="#292929" transform="translate(200.8125,193.8125)"/>
<path d="M0 0 C5.28 0 10.56 0 16 0 C15.67 0.99 15.34 1.98 15 3 C10.38 3 5.76 3 1 3 C0.67 2.01 0.34 1.02 0 0 Z " fill="#262626" transform="translate(328,233)"/>
<path d="M0 0 C0.99 0.33 1.98 0.66 3 1 C2.29534531 2.98802578 1.56040302 4.96533728 0.8125 6.9375 C0.40644531 8.03964844 0.00039062 9.14179688 -0.41796875 10.27734375 C-2 13 -2 13 -4.67578125 13.87890625 C-5.44277344 13.91886719 -6.20976562 13.95882813 -7 14 C-7.33 13.01 -7.66 12.02 -8 11 C-6.68 11 -5.36 11 -4 11 C-3.566875 9.6696875 -3.566875 9.6696875 -3.125 8.3125 C-2.16851252 5.49617576 -1.13201054 2.74916844 0 0 Z " fill="#282828" transform="translate(201,254)"/>
<path d="M0 0 C0.66 0.33 1.32 0.66 2 1 C1.814375 1.515625 1.62875 2.03125 1.4375 2.5625 C0.83752918 5.1713937 0.83752918 5.1713937 1.5 8.5 C1.93772143 11.56405002 2.02210188 13.16082812 1 16 C0.01 15.67 -0.98 15.34 -2 15 C-1.773125 14.113125 -1.54625 13.22625 -1.3125 12.3125 C-0.94548054 8.42209376 -1.73118159 7.08559304 -4 4 C-2.68 2.68 -1.36 1.36 0 0 Z " fill="#000000" transform="translate(518,231)"/>
<path d="M0 0 C3.55885219 0.86994165 5.53230654 1.42317806 7.875 4.3125 C9.05205769 7.12436004 9.2582522 8.98705767 9 12 C8.34 12 7.68 12 7 12 C6.79375 10.906875 6.5875 9.81375 6.375 8.6875 C5.34336062 4.7714341 5.34336062 4.7714341 1.875 3.0625 C0.92625 2.711875 -0.0225 2.36125 -1 2 C-0.67 1.34 -0.34 0.68 0 0 Z " fill="#242424" transform="translate(198,158)"/>
<path d="M0 0 C0.33 0 0.66 0 1 0 C1.66 3.96 2.32 7.92 3 12 C2.01 12.33 1.02 12.66 0 13 C-2.41862845 6.74002047 -2.41862845 6.74002047 -1 3 C-0.67 2.01 -0.34 1.02 0 0 Z " fill="#292929" transform="translate(274,203)"/>
<path d="M0 0 C4.62 0 9.24 0 14 0 C13.67 0.99 13.34 1.98 13 3 C8.71 2.34 4.42 1.68 0 1 C0 0.67 0 0.34 0 0 Z " fill="#0F0F0F" transform="translate(196,218)"/>
<path d="M0 0 C0.33 0 0.66 0 1 0 C1 2.97 1 5.94 1 9 C0.01 9 -0.98 9 -2 9 C-1.125 1.125 -1.125 1.125 0 0 Z " fill="#000000" transform="translate(602,255)"/>
</svg>
