<?xml version="1.0" encoding="UTF-8"?>
<svg version="1.1" xmlns="http://www.w3.org/2000/svg" width="800" height="300">
<path d="M0 0 C264 0 528 0 800 0 C800 99 800 198 800 300 C536 300 272 300 0 300 C0 201 0 102 0 0 Z " fill="#FEFEFE" transform="translate(0,0)"/>
<path d="M0 0 C1.25103516 -0.05994141 1.25103516 -0.05994141 2.52734375 -0.12109375 C6.30612063 0.7115181 7.72754572 2.40530243 10.0625 5.4375 C10.84765625 8.91796875 10.84765625 8.91796875 11.125 12.625 C11.32105241 16.26895028 11.32105241 16.26895028 12.0625 19.4375 C13.87955621 20.61987022 13.87955621 20.61987022 16.0625 21.4375 C23.65263177 30.10981853 27.70243971 39.20150331 30.44921875 50.25 C30.85838829 52.39671249 30.85838829 52.39671249 32.0625 53.4375 C32.62594744 56.28977019 33.14384945 59.13381608 33.625 62 C33.76357422 62.80630859 33.90214844 63.61261719 34.04492188 64.44335938 C34.38767763 66.44079811 34.72554388 68.43907472 35.0625 70.4375 C36.87459723 70.89742316 38.68720361 71.35534036 40.5 71.8125 C42.01400391 72.19535156 42.01400391 72.19535156 43.55859375 72.5859375 C44.71488281 72.86695313 45.87117188 73.14796875 47.0625 73.4375 C48.33303223 73.77942383 49.60356445 74.12134766 50.91259766 74.47363281 C57.22501227 75.86230254 63.52892165 75.71679192 69.96484375 75.7109375 C71.31837703 75.71821885 72.67190382 75.72680874 74.02542114 75.73661804 C76.87958107 75.75690785 79.73372219 75.77364839 82.58792114 75.78738403 C106.93885337 75.91559149 130.98437927 76.38931496 155.0625 80.4375 C155.19398438 79.15875 155.32546875 77.88 155.4609375 76.5625 C155.859375 72.6875 155.859375 72.6875 157.6875 70.4375 C161.02872604 69.03066798 163.47903883 68.98142312 167.0625 69.4375 C169.93971671 72.02699504 170.60266849 74.66688161 171.0625 78.4375 C171.000625 79.2625 170.93875 80.0875 170.875 80.9375 C171.13488774 84.40266991 172.7947033 85.89481885 175.0625 88.4375 C176.46185013 91.23620027 176.31515405 93.34248792 176.0625 96.4375 C174.79150391 98.10400391 174.79150391 98.10400391 173.0625 99.4375 C170.09889144 99.7391847 167.3965678 99.86329688 164.4375 99.8125 C163.62224854 99.80524902 162.80699707 99.79799805 161.96704102 99.79052734 C156.14707055 99.65657426 151.42977863 98.70147556 146.0625 96.4375 C137.37292722 93.4873364 128.10860188 94.26184754 119.0625 94.4375 C122.43167941 102.25783106 125.08451089 105.99174813 132.97265625 109.265625 C135.0625 110.4375 135.0625 110.4375 136.3125 113.9375 C135.89450827 119.78938418 133.94697771 123.0821765 130.0625 127.4375 C126.34254984 129.91746677 123.36823798 129.85502611 119.0625 129.4375 C116.44889757 128.61215186 115.46775278 127.96432862 113.8125 125.8125 C112.67502288 122.21048912 112.82234426 119.21995286 113.0625 115.4375 C114.0525 113.9525 114.0525 113.9525 115.0625 112.4375 C112.4225 110.1275 109.7825 107.8175 107.0625 105.4375 C106.0725 106.7575 105.0825 108.0775 104.0625 109.4375 C103.4025 109.4375 102.7425 109.4375 102.0625 109.4375 C101.69125 110.30375 101.69125 110.30375 101.3125 111.1875 C100.0625 113.4375 100.0625 113.4375 97.9375 115.125 C95.73171043 117.84547381 95.89521874 118.50707073 96.0625 121.875 C96.17399402 125.09239872 96.05827869 126.44734972 94.75 129.5 C90.52669941 132.54470508 86.10184939 132.11656127 81.0625 131.4375 C76.66419293 129.98624962 74.42586479 128.52793907 72.0625 124.4375 C72.0625 120.40602439 72.67755339 118.07907768 74.75 114.625 C77.0625 112.4375 77.0625 112.4375 79.83984375 111.77734375 C84.39892242 109.88187225 86.22186277 106.81216135 88.9375 102.8125 C89.43507813 102.10609375 89.93265625 101.3996875 90.4453125 100.671875 C91.66469601 98.93659847 92.86549091 97.18828554 94.0625 95.4375 C92.47926312 95.410307 90.89588938 95.39101694 89.3125 95.375 C88.43078125 95.36339844 87.5490625 95.35179687 86.640625 95.33984375 C84.16948381 95.33296518 84.16948381 95.33296518 82.2875824 95.93551636 C79.44398608 96.57703815 76.79894119 96.56478607 73.88305664 96.56689453 C72.00312767 96.57162277 72.00312767 96.57162277 70.08522034 96.57644653 C68.71436529 96.57465326 67.34351056 96.57260145 65.97265625 96.5703125 C64.54894494 96.57098754 63.12523375 96.57195923 61.70152283 96.57321167 C58.70635896 96.57468734 55.71122486 96.57254369 52.71606445 96.56787109 C48.9420051 96.56226075 45.16801763 96.56548407 41.39396095 96.57132339 C25.25849891 96.59236623 9.17313801 96.4543313 -6.9375 95.4375 C-3.52835309 104.63547147 -0.83190531 109.81788882 8.13671875 114.32421875 C10.0625 115.4375 10.0625 115.4375 11.0625 117.4375 C11.74248475 122.29453392 11.06999233 124.93152045 8.25 128.8125 C6.13791308 131.51388525 5.39702729 132.3259909 2.0625 133.4375 C-3.36541411 133.90915635 -8.2477821 134.28235895 -13.1875 131.8125 C-14.9375 129.4375 -14.9375 129.4375 -15.4375 126.5 C-14.89225167 123.16035401 -13.66906725 121.29835024 -11.9375 118.4375 C-12.0647276 114.4934443 -14.56686498 111.44884719 -16.9375 108.4375 C-19.87199408 106.42708997 -19.87199408 106.42708997 -22.9375 105.4375 C-28.38416071 107.25305357 -31.36952591 112.49083738 -33.9375 117.4375 C-34.05915775 120.26309926 -33.68498646 122.57928551 -33.125 125.33984375 C-33.063125 126.03207031 -33.00125 126.72429687 -32.9375 127.4375 C-35.125 129.9375 -35.125 129.9375 -37.9375 131.4375 C-38.56398437 131.79328125 -39.19046875 132.1490625 -39.8359375 132.515625 C-44.21457251 134.43636452 -49.19742715 133.86285114 -53.75 132.75 C-56.75245249 130.94852851 -58.17959361 129.49755926 -59.9375 126.4375 C-60.55129035 123.30603258 -60.59453112 120.56406188 -59.9375 117.4375 C-57.75 114.4375 -57.75 114.4375 -54.9375 112.4375 C-54.15117187 112.35113281 -53.36484375 112.26476562 -52.5546875 112.17578125 C-48.71294049 111.09206456 -47.53161798 108.82856208 -45.25 105.625 C-44.09951172 104.03751953 -44.09951172 104.03751953 -42.92578125 102.41796875 C-41.39152595 100.11809293 -40.07381823 97.94712262 -38.9375 95.4375 C-39.91589844 95.44910156 -40.89429688 95.46070313 -41.90234375 95.47265625 C-45.91573883 95.5002804 -49.92423811 95.47372804 -53.9375 95.4375 C-54.79988281 95.45683594 -55.66226563 95.47617188 -56.55078125 95.49609375 C-63.71532815 95.29962537 -68.78776024 91.11525052 -73.9375 86.4375 C-80.87161288 78.47882162 -81.61530276 66.45929792 -80.9375 56.4375 C-79.23657162 34.23093501 -79.23657162 34.23093501 -71.890625 27.5859375 C-66.87975739 24.49302266 -62.73645093 23.91032264 -56.9375 24.4375 C-57.2675 23.6125 -57.5975 22.7875 -57.9375 21.9375 C-59.47718135 16.54861529 -59.70523401 12.37511442 -57.625 7.125 C-55.12468001 3.14300891 -55.12468001 3.14300891 -52.9375 1.4375 C-50.34375 1.0390625 -50.34375 1.0390625 -47.4375 1.0625 C-46.4784375 1.05476562 -45.519375 1.04703125 -44.53125 1.0390625 C-41.53260764 1.49969732 -40.72301712 2.03838411 -38.9375 4.4375 C-35.9375 10.65972222 -35.9375 10.65972222 -35.9375 14.4375 C-34.97263672 14.32921875 -34.97263672 14.32921875 -33.98828125 14.21875 C-26.61782493 13.46172738 -19.34284071 13.33154123 -11.9375 13.4375 C-11.751875 11.82875 -11.751875 11.82875 -11.5625 10.1875 C-10.68462644 4.92025862 -10.68462644 4.92025862 -8.9375 2.4375 C-5.93492624 0.60407 -3.500116 0.09168255 0 0 Z " fill="#FCFCFC" transform="translate(243.9375,153.5625)"/>
<path d="M0 0 C2.8125 -0.1875 2.8125 -0.1875 6 0 C7 1 8 2 9 3 C15.47083003 5.07525149 21.41141432 5.24994212 28.16796875 5.16015625 C29.2571611 5.15463745 30.34635345 5.14911865 31.46855164 5.14343262 C33.8178252 5.13109227 36.16707948 5.11448167 38.51629639 5.09402466 C44.77770738 5.04025787 51.03917966 5.01861565 57.30078125 5 C59.23244141 4.9937838 59.23244141 4.9937838 61.203125 4.98744202 C77.41229646 4.95866797 93.61370822 5.33435472 109.81713867 5.73266602 C110.89429642 5.75735962 111.97145416 5.78205322 113.08125305 5.80749512 C115.09527242 5.85391321 117.10919602 5.90477372 119.12297058 5.96081543 C120.44631157 5.99096741 120.44631157 5.99096741 121.79638672 6.02172852 C122.56457733 6.04171402 123.33276794 6.06169952 124.12423706 6.08229065 C126.0924287 6.12361173 126.0924287 6.12361173 128 5 C131.03566911 4.76089183 134.08095166 4.81479913 137.125 4.8125 C138.37023437 4.79413086 138.37023437 4.79413086 139.640625 4.77539062 C146.3283327 4.75966717 153.1906553 5.34226445 159 9 C159.42667969 9.46148437 159.85335937 9.92296875 160.29296875 10.3984375 C162.9975484 12.93591497 166.33120593 14.35011728 169.625 16.01171875 C174.01917804 19.69039741 174.99427916 24.83672162 175.6171875 30.3671875 C175.72209306 31.86858663 175.80765993 33.37144759 175.875 34.875 C175.91254395 35.66366455 175.95008789 36.4523291 175.98876953 37.26489258 C176.27663329 46.52514559 174.29214193 54.04285919 168 61 C162.69554711 66.38085279 158.19286413 67.70523678 150.71362305 67.88330078 C149.57062744 67.88056152 148.42763184 67.87782227 147.25 67.875 C146.0535083 67.8941748 144.8570166 67.91334961 143.62426758 67.93310547 C140.0824586 67.98283335 136.54211111 67.99384427 133 68 C131.18616451 68.02360067 129.37235524 68.04939485 127.55859375 68.078125 C114.02532285 68.24209193 100.1544274 68.25064747 86.72265625 66.47265625 C78.59603524 65.44083973 70.49840803 65.91088485 62.375 66.78125 C56.14473547 67.35509015 49.86288457 66.66520367 43.63769531 66.25537109 C41.63908688 66.12591247 39.63984991 66.00628024 37.640625 65.88671875 C36.36960937 65.80292969 35.09859375 65.71914063 33.7890625 65.6328125 C32.63100098 65.55949707 31.47293945 65.48618164 30.27978516 65.41064453 C26.94747647 64.99342381 24.14301003 64.16096136 21 63 C19.865625 62.62875 18.73125 62.2575 17.5625 61.875 C10.70420537 58.84035636 6.45523899 52.07424207 3.69140625 45.35546875 C2.95117812 42.83367463 2.71897532 40.55745849 2.5625 37.9375 C2.27383191 33.27551038 0.83709453 30.65071581 -1.7890625 26.86328125 C-4.96470506 21.97688932 -6.0453083 15.71367548 -5 10 C-3.57222581 6.52259876 -1.86966857 3.25856521 0 0 Z " fill="#646464" transform="translate(429,216)"/>
<path d="M0 0 C1.25103516 -0.05994141 1.25103516 -0.05994141 2.52734375 -0.12109375 C6.30612063 0.7115181 7.72754572 2.40530243 10.0625 5.4375 C10.84765625 8.91796875 10.84765625 8.91796875 11.125 12.625 C11.32105241 16.26895028 11.32105241 16.26895028 12.0625 19.4375 C13.87955621 20.61987022 13.87955621 20.61987022 16.0625 21.4375 C23.65263177 30.10981853 27.70243971 39.20150331 30.44921875 50.25 C30.85838829 52.39671249 30.85838829 52.39671249 32.0625 53.4375 C32.62594744 56.28977019 33.14384945 59.13381608 33.625 62 C33.76357422 62.80630859 33.90214844 63.61261719 34.04492188 64.44335938 C34.38767763 66.44079811 34.72554388 68.43907472 35.0625 70.4375 C36.87459723 70.89742316 38.68720361 71.35534036 40.5 71.8125 C42.01400391 72.19535156 42.01400391 72.19535156 43.55859375 72.5859375 C44.71488281 72.86695313 45.87117188 73.14796875 47.0625 73.4375 C48.33303223 73.77942383 49.60356445 74.12134766 50.91259766 74.47363281 C57.22501227 75.86230254 63.52892165 75.71679192 69.96484375 75.7109375 C71.31837703 75.71821885 72.67190382 75.72680874 74.02542114 75.73661804 C76.87958107 75.75690785 79.73372219 75.77364839 82.58792114 75.78738403 C106.93885337 75.91559149 130.98437927 76.38931496 155.0625 80.4375 C155.19398438 79.15875 155.32546875 77.88 155.4609375 76.5625 C155.859375 72.6875 155.859375 72.6875 157.6875 70.4375 C161.02872604 69.03066798 163.47903883 68.98142312 167.0625 69.4375 C169.93971671 72.02699504 170.60266849 74.66688161 171.0625 78.4375 C171.000625 79.2625 170.93875 80.0875 170.875 80.9375 C171.13488774 84.40266991 172.7947033 85.89481885 175.0625 88.4375 C176.46185013 91.23620027 176.31515405 93.34248792 176.0625 96.4375 C174.79150391 98.10400391 174.79150391 98.10400391 173.0625 99.4375 C170.09889144 99.7391847 167.3965678 99.86329688 164.4375 99.8125 C163.62224854 99.80524902 162.80699707 99.79799805 161.96704102 99.79052734 C156.14707055 99.65657426 151.42977863 98.70147556 146.0625 96.4375 C137.37292722 93.4873364 128.10860188 94.26184754 119.0625 94.4375 C122.43167941 102.25783106 125.08451089 105.99174813 132.97265625 109.265625 C135.0625 110.4375 135.0625 110.4375 136.3125 113.9375 C135.89450827 119.78938418 133.94697771 123.0821765 130.0625 127.4375 C126.34254984 129.91746677 123.36823798 129.85502611 119.0625 129.4375 C116.44889757 128.61215186 115.46775278 127.96432862 113.8125 125.8125 C112.67502288 122.21048912 112.82234426 119.21995286 113.0625 115.4375 C114.0525 113.9525 114.0525 113.9525 115.0625 112.4375 C112.4225 110.1275 109.7825 107.8175 107.0625 105.4375 C106.0725 106.7575 105.0825 108.0775 104.0625 109.4375 C103.4025 109.4375 102.7425 109.4375 102.0625 109.4375 C101.69125 110.30375 101.69125 110.30375 101.3125 111.1875 C100.0625 113.4375 100.0625 113.4375 97.9375 115.125 C95.73171043 117.84547381 95.89521874 118.50707073 96.0625 121.875 C96.17399402 125.09239872 96.05827869 126.44734972 94.75 129.5 C90.52669941 132.54470508 86.10184939 132.11656127 81.0625 131.4375 C76.66419293 129.98624962 74.42586479 128.52793907 72.0625 124.4375 C72.0625 120.40602439 72.67755339 118.07907768 74.75 114.625 C77.0625 112.4375 77.0625 112.4375 79.83984375 111.77734375 C84.39892242 109.88187225 86.22186277 106.81216135 88.9375 102.8125 C89.43507813 102.10609375 89.93265625 101.3996875 90.4453125 100.671875 C91.66469601 98.93659847 92.86549091 97.18828554 94.0625 95.4375 C92.47926312 95.410307 90.89588938 95.39101694 89.3125 95.375 C88.43078125 95.36339844 87.5490625 95.35179687 86.640625 95.33984375 C84.16948381 95.33296518 84.16948381 95.33296518 82.2875824 95.93551636 C79.44398608 96.57703815 76.79894119 96.56478607 73.88305664 96.56689453 C72.00312767 96.57162277 72.00312767 96.57162277 70.08522034 96.57644653 C68.71436529 96.57465326 67.34351056 96.57260145 65.97265625 96.5703125 C64.54894494 96.57098754 63.12523375 96.57195923 61.70152283 96.57321167 C58.70635896 96.57468734 55.71122486 96.57254369 52.71606445 96.56787109 C48.9420051 96.56226075 45.16801763 96.56548407 41.39396095 96.57132339 C25.25849891 96.59236623 9.17313801 96.4543313 -6.9375 95.4375 C-3.52835309 104.63547147 -0.83190531 109.81788882 8.13671875 114.32421875 C10.0625 115.4375 10.0625 115.4375 11.0625 117.4375 C11.74248475 122.29453392 11.06999233 124.93152045 8.25 128.8125 C6.13791308 131.51388525 5.39702729 132.3259909 2.0625 133.4375 C-3.36541411 133.90915635 -8.2477821 134.28235895 -13.1875 131.8125 C-14.9375 129.4375 -14.9375 129.4375 -15.4375 126.5 C-14.89225167 123.16035401 -13.66906725 121.29835024 -11.9375 118.4375 C-12.0647276 114.4934443 -14.56686498 111.44884719 -16.9375 108.4375 C-19.87199408 106.42708997 -19.87199408 106.42708997 -22.9375 105.4375 C-28.38416071 107.25305357 -31.36952591 112.49083738 -33.9375 117.4375 C-34.05915775 120.26309926 -33.68498646 122.57928551 -33.125 125.33984375 C-33.063125 126.03207031 -33.00125 126.72429687 -32.9375 127.4375 C-35.125 129.9375 -35.125 129.9375 -37.9375 131.4375 C-38.56398437 131.79328125 -39.19046875 132.1490625 -39.8359375 132.515625 C-44.21457251 134.43636452 -49.19742715 133.86285114 -53.75 132.75 C-56.75245249 130.94852851 -58.17959361 129.49755926 -59.9375 126.4375 C-60.55129035 123.30603258 -60.59453112 120.56406188 -59.9375 117.4375 C-57.75 114.4375 -57.75 114.4375 -54.9375 112.4375 C-54.15117187 112.35113281 -53.36484375 112.26476562 -52.5546875 112.17578125 C-48.71294049 111.09206456 -47.53161798 108.82856208 -45.25 105.625 C-44.09951172 104.03751953 -44.09951172 104.03751953 -42.92578125 102.41796875 C-41.39152595 100.11809293 -40.07381823 97.94712262 -38.9375 95.4375 C-39.91589844 95.44910156 -40.89429688 95.46070313 -41.90234375 95.47265625 C-45.91573883 95.5002804 -49.92423811 95.47372804 -53.9375 95.4375 C-54.79988281 95.45683594 -55.66226563 95.47617188 -56.55078125 95.49609375 C-63.71532815 95.29962537 -68.78776024 91.11525052 -73.9375 86.4375 C-80.87161288 78.47882162 -81.61530276 66.45929792 -80.9375 56.4375 C-79.23657162 34.23093501 -79.23657162 34.23093501 -71.890625 27.5859375 C-66.87975739 24.49302266 -62.73645093 23.91032264 -56.9375 24.4375 C-57.2675 23.6125 -57.5975 22.7875 -57.9375 21.9375 C-59.47718135 16.54861529 -59.70523401 12.37511442 -57.625 7.125 C-55.12468001 3.14300891 -55.12468001 3.14300891 -52.9375 1.4375 C-50.34375 1.0390625 -50.34375 1.0390625 -47.4375 1.0625 C-46.4784375 1.05476562 -45.519375 1.04703125 -44.53125 1.0390625 C-41.53260764 1.49969732 -40.72301712 2.03838411 -38.9375 4.4375 C-35.9375 10.65972222 -35.9375 10.65972222 -35.9375 14.4375 C-34.97263672 14.32921875 -34.97263672 14.32921875 -33.98828125 14.21875 C-26.61782493 13.46172738 -19.34284071 13.33154123 -11.9375 13.4375 C-11.751875 11.82875 -11.751875 11.82875 -11.5625 10.1875 C-10.68462644 4.92025862 -10.68462644 4.92025862 -8.9375 2.4375 C-5.93492624 0.60407 -3.500116 0.09168255 0 0 Z M-6.9375 5.4375 C-8.99028746 9.13251742 -9.13167201 12.26280183 -8.9375 16.4375 C-9.51113281 16.42589844 -10.08476562 16.41429687 -10.67578125 16.40234375 C-20.11698895 16.30205778 -29.51646524 16.8907871 -38.9375 17.4375 C-39.13666016 15.81134766 -39.13666016 15.81134766 -39.33984375 14.15234375 C-39.94825843 10.370629 -41.0756021 7.75653539 -42.9375 4.4375 C-46.01125142 4.08283638 -48.87413172 3.94187759 -51.9375 4.4375 C-55.22928151 7.64899415 -55.86430394 9.69334001 -56.3125 14.25 C-56.08605426 18.75278648 -55.06591975 23.08502384 -53.9375 27.4375 C-55.02417969 27.36789063 -55.02417969 27.36789063 -56.1328125 27.296875 C-62.26605863 27.06790048 -66.20981273 27.06438928 -70.9375 31.4375 C-76.46066401 38.59715705 -77.53359598 47.68228634 -77.9375 56.4375 C-78.00195312 57.39785156 -78.06640625 58.35820312 -78.1328125 59.34765625 C-78.48061389 68.14703147 -77.13049426 77.84629863 -71.5625 85 C-65.48557672 90.64285733 -60.76959454 92.42098151 -52.63671875 92.75390625 C-51.66025391 92.79580078 -50.68378906 92.83769531 -49.67773438 92.88085938 C-48.67033203 92.92017578 -47.66292969 92.95949219 -46.625 93 C-45.08489258 93.06477539 -45.08489258 93.06477539 -43.51367188 93.13085938 C-40.98840431 93.23656825 -38.46304438 93.33866468 -35.9375 93.4375 C-37.48212122 98.69391877 -38.90185862 103.05194531 -42.5625 107.25 C-44.91498476 109.97471336 -46.34129373 111.85220556 -46.9375 115.4375 C-48.030625 115.39625 -49.12375 115.355 -50.25 115.3125 C-54.02642229 115.11675334 -54.02642229 115.11675334 -56.9375 117.4375 C-57.56466621 122.21964235 -57.63004884 124.32942186 -55.0625 128.4375 C-50.65461295 131.25854771 -47.03469471 131.31548569 -41.9375 130.4375 C-38.28910743 128.98174611 -38.28910743 128.98174611 -35.9375 126.4375 C-35.34256321 123.46281605 -35.58022613 122.07265355 -37.0625 119.4375 C-37.9375 117.4375 -37.9375 117.4375 -37.3125 114.8125 C-35.9375 112.4375 -35.9375 112.4375 -34.07421875 111.60546875 C-31.22041426 110.04552809 -30.12387673 108.09417075 -28.375 105.375 C-25.26454019 100.5465134 -25.26454019 100.5465134 -21.9375 99.4375 C-21.710625 100.035625 -21.48375 100.63375 -21.25 101.25 C-20.07013355 103.61667735 -20.07013355 103.61667735 -17.5625 104.8125 C-14.3138571 106.82356465 -12.98433525 109.26137633 -10.9375 112.4375 C-10.2775 112.4375 -9.6175 112.4375 -8.9375 112.4375 C-8.628125 113.22125 -8.31875 114.005 -8 114.8125 C-7.00874962 117.36080128 -7.00874962 117.36080128 -5.9375 119.4375 C-7.1440625 119.746875 -7.1440625 119.746875 -8.375 120.0625 C-11.23701799 121.22320429 -11.23701799 121.22320429 -11.9375 124.375 C-12.16576527 127.33035508 -12.16576527 127.33035508 -11 129.3125 C-7.16369399 131.40503055 -3.01244026 131.03091677 1.0703125 129.86328125 C4.51493108 128.50128771 5.97500725 127.56873913 8.0625 124.4375 C8.5625 121.4375 8.5625 121.4375 8.0625 118.4375 C5.22996984 115.27813943 2.16553158 114.90375359 -1.9375 114.4375 C-1.999375 113.7775 -2.06125 113.1175 -2.125 112.4375 C-3.08417928 108.89591496 -4.73840003 106.41447856 -6.7265625 103.36328125 C-8.82945143 100.01900949 -9.9375 97.38757499 -9.9375 93.4375 C-8.82773804 93.43972061 -7.71797607 93.44194122 -6.57458496 93.44422913 C3.90081667 93.46453002 14.3762143 93.4795056 24.85163116 93.48931217 C30.23670778 93.49452335 35.62176848 93.50158891 41.00683594 93.51293945 C46.20692602 93.5238311 51.40700082 93.52979013 56.60710144 93.53237724 C58.58774557 93.53422019 60.56838889 93.53781896 62.54902649 93.54323006 C65.33022854 93.55052383 68.111368 93.55148743 70.89257812 93.55102539 C72.11178452 93.5564183 72.11178452 93.5564183 73.35562134 93.56192017 C78.3479037 93.5529875 83.11683871 93.11810075 88.0625 92.4375 C90.06167047 92.3762509 92.06254774 92.3500006 94.0625 92.375 C95.485625 92.38853516 95.485625 92.38853516 96.9375 92.40234375 C97.63875 92.41394531 98.34 92.42554688 99.0625 92.4375 C97.03824828 96.95313844 94.03609752 100.83623229 91.1640625 104.8359375 C88.82155318 107.84221004 88.82155318 107.84221004 88.0625 111.4375 C86.0825 112.4275 86.0825 112.4275 84.0625 113.4375 C84.0625 114.0975 84.0625 114.7575 84.0625 115.4375 C82.928125 115.56125 81.79375 115.685 80.625 115.8125 C78.8615625 116.121875 78.8615625 116.121875 77.0625 116.4375 C75.5841774 119.39414519 76.00217217 122.17979737 76.0625 125.4375 C76.7225 125.4375 77.3825 125.4375 78.0625 125.4375 C78.0625 126.0975 78.0625 126.7575 78.0625 127.4375 C81.49321316 129.15285658 85.30308819 128.8381478 89.0625 128.4375 C91.5814267 127.11986671 91.5814267 127.11986671 93.0625 125.4375 C92.60423828 123.69726562 92.60423828 123.69726562 92.13671875 121.921875 C91.79071072 119.14156266 91.80769453 117.86338766 93.26025391 115.43554688 C95.04857173 113.41204596 96.91222654 111.54217869 98.875 109.6875 C100.17689633 108.40480568 101.47521461 107.11846728 102.76953125 105.828125 C103.3519458 105.27157227 103.93436035 104.71501953 104.53442383 104.14160156 C106.14274784 102.34800808 107.08839905 100.63064951 108.0625 98.4375 C108.7225 98.7675 109.3825 99.0975 110.0625 99.4375 C110.19527344 100.19417969 110.32804688 100.95085937 110.46484375 101.73046875 C111.18039558 104.97149762 112.38024952 106.34199494 114.625 108.75 C115.26566406 109.44738281 115.90632812 110.14476562 116.56640625 110.86328125 C117.06011719 111.38277344 117.55382812 111.90226562 118.0625 112.4375 C117.72734375 113.00082031 117.3921875 113.56414062 117.046875 114.14453125 C115.90944281 116.79402607 115.95611781 118.28801019 116.3125 121.125 C116.40015625 121.91261719 116.4878125 122.70023437 116.578125 123.51171875 C116.81789063 124.46498047 116.81789063 124.46498047 117.0625 125.4375 C120.29604139 127.0542707 122.49010535 126.91381929 126.0625 126.4375 C129.69772723 123.64241417 131.70970685 120.51663199 133.125 116.1875 C133.29267351 113.48825147 133.29267351 113.48825147 132 111.6875 C129.50064918 110.0750156 126.88040606 109.35638241 124.0625 108.4375 C123.7325 107.7775 123.4025 107.1175 123.0625 106.4375 C122.4025 106.4375 121.7425 106.4375 121.0625 106.4375 C120.6603125 105.385625 120.6603125 105.385625 120.25 104.3125 C118.9943551 101.2725176 117.56014877 98.3647226 116.0625 95.4375 C114.7425 95.4375 113.4225 95.4375 112.0625 95.4375 C113.078125 93.4609375 113.078125 93.4609375 115.0625 91.4375 C117.80007211 91.07535481 120.08547119 90.96487944 122.8125 91.0625 C123.5645874 91.07756592 124.3166748 91.09263184 125.09155273 91.1081543 C143.63765655 91.64727391 143.63765655 91.64727391 150.9375 95.0625 C157.55850698 97.57692437 165.08910354 96.83818134 172.0625 96.4375 C173.31128498 95.39771815 173.31128498 95.39771815 173.3125 93.125 C173.01634058 89.94128623 172.26205664 88.71852171 170.0625 86.4375 C169.0725 86.1075 168.0825 85.7775 167.0625 85.4375 C167.20558594 84.53257812 167.20558594 84.53257812 167.3515625 83.609375 C167.46242188 82.81015625 167.57328125 82.0109375 167.6875 81.1875 C167.80351562 80.39859375 167.91953125 79.6096875 168.0390625 78.796875 C168.06569395 76.11597541 167.42842084 74.71055911 166.0625 72.4375 C161.72065798 72.62214366 161.72065798 72.62214366 158.0625 74.4375 C157.99101801 75.78993917 157.97850546 77.14584367 158 78.5 C158.0309375 80.4490625 158.0309375 80.4490625 158.0625 82.4375 C157.38202103 82.3495668 156.70154205 82.26163361 156.0004425 82.17103577 C140.82485595 80.26911676 125.83141045 79.14905997 110.54296875 78.99609375 C109.75657139 78.98818439 108.97017403 78.98027504 108.15994644 78.97212601 C103.33917761 78.92824571 98.51843604 78.90294417 93.69750977 78.88452148 C87.165398 78.85910978 80.63349856 78.81966129 74.1015873 78.76262093 C71.85267908 78.74652121 69.6039844 78.74254207 67.35502625 78.73960876 C60.62982104 78.70436784 54.50139757 78.49590909 48.0625 76.4375 C46.50166874 76.09643824 44.93948559 75.76138611 43.375 75.4375 C34.80191323 73.4897419 34.80191323 73.4897419 32.4375 70.125 C30.83059023 65.81556015 29.86082694 61.51538961 28.87890625 57.02734375 C28.03566602 53.31950753 27.08199001 49.66318655 26.0625 46 C25.5984375 44.33130859 25.5984375 44.33130859 25.125 42.62890625 C23.37637186 37.37659304 20.85393795 32.89541255 17.6875 28.375 C17.07777344 27.50359375 16.46804688 26.6321875 15.83984375 25.734375 C14.06499939 23.26497241 14.06499939 23.26497241 11.25 21.125 C8.07029011 17.21849927 8.07463236 13.22668144 7.6171875 8.30078125 C7.43414062 7.35589844 7.25109375 6.41101563 7.0625 5.4375 C2.74705002 2.56053335 -2.65225679 2.10453306 -6.9375 5.4375 Z " fill="#1C1C1C" transform="translate(243.9375,153.5625)"/>
<path d="M0 0 C2.8125 -0.1875 2.8125 -0.1875 6 0 C7 1 8 2 9 3 C15.47083003 5.07525149 21.41141432 5.24994212 28.16796875 5.16015625 C29.2571611 5.15463745 30.34635345 5.14911865 31.46855164 5.14343262 C33.8178252 5.13109227 36.16707948 5.11448167 38.51629639 5.09402466 C44.77770738 5.04025787 51.03917966 5.01861565 57.30078125 5 C59.23244141 4.9937838 59.23244141 4.9937838 61.203125 4.98744202 C77.41229646 4.95866797 93.61370822 5.33435472 109.81713867 5.73266602 C110.89429642 5.75735962 111.97145416 5.78205322 113.08125305 5.80749512 C115.09527242 5.85391321 117.10919602 5.90477372 119.12297058 5.96081543 C120.44631157 5.99096741 120.44631157 5.99096741 121.79638672 6.02172852 C122.56457733 6.04171402 123.33276794 6.06169952 124.12423706 6.08229065 C126.0924287 6.12361173 126.0924287 6.12361173 128 5 C131.03566911 4.76089183 134.08095166 4.81479913 137.125 4.8125 C138.37023437 4.79413086 138.37023437 4.79413086 139.640625 4.77539062 C146.3283327 4.75966717 153.1906553 5.34226445 159 9 C159.42667969 9.46148437 159.85335937 9.92296875 160.29296875 10.3984375 C162.9975484 12.93591497 166.33120593 14.35011728 169.625 16.01171875 C174.01917804 19.69039741 174.99427916 24.83672162 175.6171875 30.3671875 C175.72209306 31.86858663 175.80765993 33.37144759 175.875 34.875 C175.91254395 35.66366455 175.95008789 36.4523291 175.98876953 37.26489258 C176.27663329 46.52514559 174.29214193 54.04285919 168 61 C162.69554711 66.38085279 158.19286413 67.70523678 150.71362305 67.88330078 C149.57062744 67.88056152 148.42763184 67.87782227 147.25 67.875 C146.0535083 67.8941748 144.8570166 67.91334961 143.62426758 67.93310547 C140.0824586 67.98283335 136.54211111 67.99384427 133 68 C131.18616451 68.02360067 129.37235524 68.04939485 127.55859375 68.078125 C114.02532285 68.24209193 100.1544274 68.25064747 86.72265625 66.47265625 C78.59603524 65.44083973 70.49840803 65.91088485 62.375 66.78125 C56.14473547 67.35509015 49.86288457 66.66520367 43.63769531 66.25537109 C41.63908688 66.12591247 39.63984991 66.00628024 37.640625 65.88671875 C36.36960937 65.80292969 35.09859375 65.71914063 33.7890625 65.6328125 C32.63100098 65.55949707 31.47293945 65.48618164 30.27978516 65.41064453 C26.94747647 64.99342381 24.14301003 64.16096136 21 63 C19.865625 62.62875 18.73125 62.2575 17.5625 61.875 C10.70420537 58.84035636 6.45523899 52.07424207 3.69140625 45.35546875 C2.95117812 42.83367463 2.71897532 40.55745849 2.5625 37.9375 C2.27383191 33.27551038 0.83709453 30.65071581 -1.7890625 26.86328125 C-4.96470506 21.97688932 -6.0453083 15.71367548 -5 10 C-3.57222581 6.52259876 -1.86966857 3.25856521 0 0 Z M2 3 C-1.20056327 7.39571031 -3.17210159 11.0337393 -2.6875 16.5703125 C-0.75050496 24.17301803 1.40130732 28.68547017 8 33 C8.309375 32.05125 8.61875 31.1025 8.9375 30.125 C10 27 10 27 11 25 C10.67 24.34 10.34 23.68 10 23 C12.31 23.33 14.62 23.66 17 24 C17 24.66 17 25.32 17 26 C16.401875 26.185625 15.80375 26.37125 15.1875 26.5625 C11.99950687 28.65746692 11.45644444 31.54094446 10 35 C7.8125 36.9375 7.8125 36.9375 6 38 C6.43386428 44.79720708 8.71901136 50.62717707 13.53515625 55.578125 C25.47522139 64.94952365 42.73368679 63.15052382 57 63 C56.98710937 61.8965625 56.97421875 60.793125 56.9609375 59.65625 C57 56 57 56 57.625 53.5 C58.20619921 50.81449175 58.20619921 50.81449175 57 47.5625 C55.9369034 43.77521835 56.32627014 41.78973046 57 38 C56.17657468 35.68019054 56.17657468 35.68019054 55 34 C57.92512762 36.43505389 57.92512762 36.43505389 58.2578125 38.9453125 C58.21398437 39.66460937 58.17015625 40.38390625 58.125 41.125 C57.96429211 45.84675096 58.3919686 50.32341282 59 55 C59.17893286 56.42571265 59.3572786 57.85149906 59.53515625 59.27734375 C59.68855469 60.50582031 59.84195313 61.73429687 60 63 C61.31613281 62.90460938 62.63226563 62.80921875 63.98828125 62.7109375 C80.13303317 61.64939006 80.13303317 61.64939006 87.84765625 63.453125 C102.6439952 66.02002395 120.17962869 66.37125941 135 64 C137.44251927 57.47348346 138.25867587 53.77602761 136 47 C136.9375 44.1875 136.9375 44.1875 138 42 C137.67 41.34 137.34 40.68 137 40 C136.01 40 135.02 40 134 40 C134 39.01 134 38.02 134 37 C135.9375 37.625 135.9375 37.625 138 39 C139.0723094 42.79432556 138.93231135 45.27075458 138 49 C138.165 49.886875 138.33 50.77375 138.5 51.6875 C139.14190299 55.94010731 138.61116813 59.76883603 138 64 C142.67661056 64.08468711 147.17531996 64.1216741 151.8125 63.4375 C155 63 155 63 157.5 63.8125 C160.60164164 64.04512312 161.18668047 63.41175287 163.5625 61.5 C166.91032743 58.34098713 169.11705826 55.18047615 171 51 C171.32226562 50.35546875 171.64453125 49.7109375 171.9765625 49.046875 C175.54148085 40.6770667 173.41424912 31.35760137 170.5625 23 C167.88947491 17.47850029 162.37709586 15.36406801 157 13 C155.91599105 18.7175801 155.91599105 18.7175801 157.25 24.25 C158.42159507 30.10797537 155.88541581 34.90217422 153 40 C152.01 40.66 151.02 41.32 150 42 C150.52851562 41.04738281 151.05703125 40.09476562 151.6015625 39.11328125 C152.27698801 37.84685843 152.95141527 36.57990285 153.625 35.3125 C153.975625 34.68666016 154.32625 34.06082031 154.6875 33.41601562 C156.32195389 30.29420869 157.16831634 28.6373228 156.25 25.16015625 C155.63125 24.09087891 155.63125 24.09087891 155 23 C154.07556986 20.22670957 154.0267192 18.50124151 154.1875 15.5 C154.2816013 12.06955642 154.2816013 12.06955642 152.65625 9.80078125 C148.45579586 6.95312043 144.2592073 7.53860246 139.3125 7.6875 C138.33732422 7.69716797 137.36214844 7.70683594 136.35742188 7.71679688 C131.83867632 7.38617701 131.83867632 7.38617701 128 9 C125.98035801 9.07244053 123.95832876 9.08377188 121.9375 9.0625 C120.83277344 9.05347656 119.72804688 9.04445312 118.58984375 9.03515625 C117.73519531 9.02355469 116.88054687 9.01195312 116 9 C116.01160156 9.61746094 116.02320313 10.23492187 116.03515625 10.87109375 C116.08894661 15.91970297 115.92444046 20.82368002 115.27734375 25.83203125 C115.0915947 27.28401325 114.9381839 28.74047797 114.81640625 30.19921875 C114.44335142 34.31804865 113.90156943 36.97227538 111 40 C111 37.59411466 111.70979414 35.99839035 112.5625 33.75 C113.96505902 29.6916695 113.84584573 27.22922865 113 23 C113.350625 22.01 113.70125 21.02 114.0625 20 C115.41997215 15.65608912 113.96348052 12.92696104 112 9 C104.74 9 97.48 9 90 9 C88.53691078 15.88512576 87.86947155 21.09121505 89 28 C88.67 28.66 88.34 29.32 88 30 C87.34 29.67 86.68 29.34 86 29 C86.495 28.505 86.495 28.505 87 28 C87.13961241 24.92852697 87.04131994 22.20659968 86.4375 19.1875 C86.293125 18.465625 86.14875 17.74375 86 17 C86.33 16.67 86.66 16.34 87 16 C87.04063832 14.33382885 87.042721 12.66611905 87 11 C86.34 11 85.68 11 85 11 C84.505 9.515 84.505 9.515 84 8 C78.21590487 7.97529951 72.43184038 7.95713977 66.64770508 7.94506836 C64.67960068 7.9400365 62.71150003 7.93321042 60.7434082 7.92456055 C57.91616899 7.91244483 55.08897916 7.90676024 52.26171875 7.90234375 C50.93970711 7.89460182 50.93970711 7.89460182 49.59098816 7.88670349 C48.3600518 7.88659019 48.3600518 7.88659019 47.10424805 7.88647461 C46.38254929 7.884254 45.66085052 7.88203339 44.9172821 7.87974548 C42.77773199 7.93174401 42.77773199 7.93174401 40 9 C39.19078631 11.69737896 38.54117383 14.25209793 38 17 C37.7215625 18.2065625 37.7215625 18.2065625 37.4375 19.4375 C36.97731213 21.91344677 36.97731213 21.91344677 36.82421875 24.09375 C36.40332248 29.04547086 35.57856056 32.62765819 33 37 C32.01 37 31.02 37 30 37 C30.639375 36.29875 31.27875 35.5975 31.9375 34.875 C34.20191565 31.71854182 34.59487586 29.80816696 35 26 C35.20625 25.319375 35.4125 24.63875 35.625 23.9375 C36.15393796 21.88232882 36.15393796 21.88232882 35.4375 19.375 C35.293125 18.59125 35.14875 17.8075 35 17 C35.66 16.34 36.32 15.68 37 15 C36.67801034 11.90073181 36.67801034 11.90073181 36 9 C34.51113281 8.94392578 34.51113281 8.94392578 32.9921875 8.88671875 C10.69180146 7.87331587 10.69180146 7.87331587 2 3 Z " fill="#101010" transform="translate(429,216)"/>
<path d="M0 0 C3.90775207 -0.45438978 5.48900627 -0.40063118 8.640625 2.0703125 C11.48739469 5.60520863 11.72739705 7.70844793 12.0625 12.1875 C12.25855241 15.83145028 12.25855241 15.83145028 13 19 C14.81705621 20.18237022 14.81705621 20.18237022 17 21 C24.59013177 29.67231853 28.63993971 38.76400331 31.38671875 49.8125 C31.79588829 51.95921249 31.79588829 51.95921249 33 53 C33.56344744 55.85227019 34.08134945 58.69631608 34.5625 61.5625 C34.77036133 62.77196289 34.77036133 62.77196289 34.98242188 64.00585938 C35.32517763 66.00329811 35.66304388 68.00157472 36 70 C37.81209723 70.45992316 39.62470361 70.91784036 41.4375 71.375 C42.44683594 71.63023437 43.45617187 71.88546875 44.49609375 72.1484375 C45.65238281 72.42945313 46.80867188 72.71046875 48 73 C49.27053223 73.34192383 50.54106445 73.68384766 51.85009766 74.03613281 C58.16251227 75.42480254 64.46642165 75.27929192 70.90234375 75.2734375 C72.25587703 75.28071885 73.60940382 75.28930874 74.96292114 75.29911804 C77.81708107 75.31940785 80.67122219 75.33614839 83.52542114 75.34988403 C107.87635337 75.47809149 131.92187927 75.95181496 156 80 C156.13148438 78.72125 156.26296875 77.4425 156.3984375 76.125 C156.796875 72.25 156.796875 72.25 158.625 70 C161.96622604 68.59316798 164.41653883 68.54392312 168 69 C170.87721671 71.58949504 171.54016849 74.22938161 172 78 C171.938125 78.825 171.87625 79.65 171.8125 80.5 C172.07238774 83.96516991 173.7322033 85.45731885 176 88 C177.39935013 90.79870027 177.25265405 92.90498792 177 96 C175.90234375 97.6796875 175.90234375 97.6796875 174 99 C170.86328125 99.29296875 170.86328125 99.29296875 167.3125 99.1875 C165.54326172 99.14689453 165.54326172 99.14689453 163.73828125 99.10546875 C162.83464844 99.07066406 161.93101562 99.03585938 161 99 C161 98.34 161 97.68 161 97 C161.78246094 96.93941406 162.56492187 96.87882812 163.37109375 96.81640625 C164.88896484 96.69072266 164.88896484 96.69072266 166.4375 96.5625 C167.44683594 96.48128906 168.45617187 96.40007812 169.49609375 96.31640625 C171.93640779 96.26788532 171.93640779 96.26788532 173 95 C173.29386153 91.27775401 173.14809171 90.22213757 171 87 C168.94996045 85.80767387 168.94996045 85.80767387 167 85 C167.08378906 84.38511719 167.16757812 83.77023438 167.25390625 83.13671875 C167.35574219 82.32847656 167.45757812 81.52023438 167.5625 80.6875 C167.66691406 79.88699219 167.77132812 79.08648437 167.87890625 78.26171875 C168.14755178 75.83182884 168.14755178 75.83182884 167 73 C163.535 73.495 163.535 73.495 160 74 C159.67 76.64 159.34 79.28 159 82 C152.0523842 82.21413884 145.48988028 82.01652114 138.609375 81.01367188 C130.73660135 79.95329218 122.96972344 79.6921284 115.03353882 79.66447449 C112.67756198 79.6559891 110.32193811 79.63532269 107.96606445 79.61193848 C102.12969612 79.55632548 96.29324267 79.52031158 90.45672607 79.48431396 C85.4861368 79.45293986 80.51572948 79.41370705 75.54528809 79.36405945 C73.2388248 79.3441921 70.9325069 79.33572022 68.62597656 79.32775879 C61.79953974 79.27756471 55.53444672 79.10024925 49 77 C47.45984725 76.68012212 45.91846556 76.36599042 44.375 76.0625 C39.44539783 74.94908986 35.36148502 73.9161641 32.3125 69.625 C30.75981671 65.33663662 29.7903283 61.04133042 28.81640625 56.58984375 C27.97316602 52.88200753 27.01949001 49.22568655 26 45.5625 C25.690625 44.45003906 25.38125 43.33757812 25.0625 42.19140625 C23.31387186 36.93909304 20.79143795 32.45791255 17.625 27.9375 C17.01527344 27.06609375 16.40554688 26.1946875 15.77734375 25.296875 C14.00249939 22.82747241 14.00249939 22.82747241 11.1875 20.6875 C7.99170809 16.76124137 7.96167748 12.71226721 7.45703125 7.765625 C7.30621094 6.85296875 7.15539062 5.9403125 7 5 C6.34 4.67 5.68 4.34 5 4 C5 3.34 5 2.68 5 2 C3.02 2 1.04 2 -1 2 C-0.67 1.34 -0.34 0.68 0 0 Z " fill="#161616" transform="translate(243,154)"/>
<path d="M0 0 C2.87721671 2.58949504 3.54016849 5.22938161 4 9 C3.9071875 10.2375 3.9071875 10.2375 3.8125 11.5 C4.07238774 14.96516991 5.7322033 16.45731885 8 19 C9.39935013 21.79870027 9.25265405 23.90498792 9 27 C7.90234375 28.6796875 7.90234375 28.6796875 6 30 C2.86328125 30.29296875 2.86328125 30.29296875 -0.6875 30.1875 C-1.86699219 30.16042969 -3.04648437 30.13335937 -4.26171875 30.10546875 C-5.16535156 30.07066406 -6.06898438 30.03585938 -7 30 C-7 29.34 -7 28.68 -7 28 C-6.21753906 27.93941406 -5.43507813 27.87882812 -4.62890625 27.81640625 C-3.11103516 27.69072266 -3.11103516 27.69072266 -1.5625 27.5625 C-0.55316406 27.48128906 0.45617187 27.40007812 1.49609375 27.31640625 C3.93640779 27.26788532 3.93640779 27.26788532 5 26 C5.29386153 22.27775401 5.14809171 21.22213757 3 18 C0.94996045 16.80767387 0.94996045 16.80767387 -1 16 C-0.91621094 15.38511719 -0.83242188 14.77023438 -0.74609375 14.13671875 C-0.59333984 12.92435547 -0.59333984 12.92435547 -0.4375 11.6875 C-0.33308594 10.88699219 -0.22867188 10.08648437 -0.12109375 9.26171875 C0.14755178 6.83182884 0.14755178 6.83182884 -1 4 C-3.31 4.33 -5.62 4.66 -8 5 C-8.33 7.64 -8.66 10.28 -9 13 C-18.15706133 13.19716161 -27.03411994 12.63289387 -36.125 11.5625 C-38.50251142 11.29215186 -40.88011464 11.0226097 -43.2578125 10.75390625 C-44.95019043 10.56078857 -44.95019043 10.56078857 -46.67675781 10.36376953 C-51.44537693 9.84178581 -56.22043776 9.40813009 -61 9 C-61 8.67 -61 8.34 -61 8 C-44.39428692 7.58697525 -28.42339094 8.49620422 -12 11 C-11.86851562 9.72125 -11.73703125 8.4425 -11.6015625 7.125 C-11.203125 3.25 -11.203125 3.25 -9.375 1 C-6.03377396 -0.40683202 -3.58346117 -0.45607688 0 0 Z " fill="#191919" transform="translate(411,223)"/>
<path d="M0 0 C24.09 0.33 48.18 0.66 73 1 C73 1.33 73 1.66 73 2 C78.61 2.33 84.22 2.66 90 3 C90 3.33 90 3.66 90 4 C81.75735739 4.02345967 73.51472938 4.04108255 65.27206135 4.05181217 C61.44218557 4.05696907 57.61233308 4.06393089 53.7824707 4.07543945 C36.82867853 4.12508843 19.92843161 4.08219956 3 3 C3 4.65 3 6.3 3 8 C2.01 8.495 2.01 8.495 1 9 C-0.79682816 5.19495213 -1.07349791 4.29399165 0 0 Z " fill="#262626" transform="translate(234,246)"/>
<path d="M0 0 C0 4.96857603 -1.33729623 6.1669353 -4.375 10 C-6.93763723 13.25414251 -9.25802673 16.24100505 -11 20 C-13.50161575 23.24283524 -14.64911442 23.92982288 -18.75 24.75 C-19.8225 24.8325 -20.895 24.915 -22 25 C-22.33 26.65 -22.66 28.3 -23 30 C-23.99 30.33 -24.98 30.66 -26 31 C-26.38021028 27.67316008 -26.13267907 26.21943077 -24.375 23.3125 C-22 21 -22 21 -19.21875 20.33203125 C-14.65716283 18.44428704 -12.83755372 15.36771086 -10.125 11.375 C-8.43375 8.94125 -6.7425 6.5075 -5 4 C-15.56 4 -26.12 4 -37 4 C-36.67 3.34 -36.34 2.68 -36 2 C-33.76611328 1.58935547 -33.76611328 1.58935547 -30.8203125 1.3671875 C-29.74523437 1.28339844 -28.67015625 1.19960937 -27.5625 1.11328125 C-26.428125 1.03464844 -25.29375 0.95601562 -24.125 0.875 C-23.02929688 0.78863281 -21.93359375 0.70226562 -20.8046875 0.61328125 C-13.85738464 0.09470296 -6.96540653 -0.11017339 0 0 Z " fill="#181818" transform="translate(343,245)"/>
<path d="M0 0 C1.27230469 0.01804688 2.54460937 0.03609375 3.85546875 0.0546875 C5.31919922 0.08949219 5.31919922 0.08949219 6.8125 0.125 C6.8125 1.115 6.8125 2.105 6.8125 3.125 C5.92046875 3.13917969 5.0284375 3.15335938 4.109375 3.16796875 C2.35367188 3.23951172 2.35367188 3.23951172 0.5625 3.3125 C-1.17773438 3.36470703 -1.17773438 3.36470703 -2.953125 3.41796875 C-6.31685095 3.86382756 -6.31685095 3.86382756 -8.5703125 6.359375 C-11.06618168 10.62767302 -11.21861661 14.32665419 -10.1875 19.125 C-5.76523552 23.90582647 0.61896196 24.2874397 6.8125 25.125 C6.8125 25.785 6.8125 26.445 6.8125 27.125 C-0.43889001 27.66885425 -5.70581255 27.70209546 -11.76171875 23.4140625 C-13.96021379 21.42638206 -14.17827094 20.23590005 -14.42578125 17.26171875 C-14.45027344 16.12347656 -14.47476563 14.98523438 -14.5 13.8125 C-14.53738281 12.68199219 -14.57476562 11.55148438 -14.61328125 10.38671875 C-14.10019709 6.45621161 -12.93598923 4.92301156 -10.1875 2.125 C-6.4507157 -0.36618953 -4.44298181 -0.0815226 0 0 Z " fill="#161616" transform="translate(202.1875,194.875)"/>
<path d="M0 0 C0.33 0.99 0.66 1.98 1 3 C1.66 3 2.32 3 3 3 C3.21914063 3.95261719 3.43828125 4.90523437 3.6640625 5.88671875 C5.38891549 13.98459627 5.38891549 13.98459627 10.25 20.375 C11.1575 20.91125 12.065 21.4475 13 22 C13.144375 21.2575 13.28875 20.515 13.4375 19.75 C13.90187492 17.47972261 14.41863569 15.24240521 15 13 C17.31 13.33 19.62 13.66 22 14 C22 14.66 22 15.32 22 16 C21.38125 16.4125 20.7625 16.825 20.125 17.25 C17.36840385 19.52013801 17.04983163 21.64053879 16 25 C14.5 26.875 14.5 26.875 13 28 C12.34 28 11.68 28 11 28 C10.01 30.475 10.01 30.475 9 33 C8.67 33 8.34 33 8 33 C7.98582031 32.3709375 7.97164063 31.741875 7.95703125 31.09375 C7.63073728 25.23809599 6.53814961 21.66177502 3.2109375 16.86328125 C-0.21664757 11.58922294 -0.21195647 6.04075942 0 0 Z " fill="#131313" transform="translate(424,226)"/>
<path d="M0 0 C1.66519519 0.34060811 3.33157466 0.67558396 5 1 C5 1.33 5 1.66 5 2 C3.95199219 2.12955078 3.95199219 2.12955078 2.8828125 2.26171875 C0.16723354 2.68097952 -2.3819849 3.1620615 -5 4 C-6.75548759 6.18031152 -6.75548759 6.18031152 -7 9 C-7.309375 10.6396875 -7.309375 10.6396875 -7.625 12.3125 C-7.74875 13.199375 -7.8725 14.08625 -8 15 C-15.02639415 15.74805717 -21.93391809 16.13794954 -29 16 C-28.505 14.515 -28.505 14.515 -28 13 C-24.57735681 11.57389867 -20.90120467 11.90098795 -17.25 11.9375 C-15.49429688 11.95103516 -15.49429688 11.95103516 -13.703125 11.96484375 C-12.81109375 11.97644531 -11.9190625 11.98804688 -11 12 C-10.87625 10.9275 -10.7525 9.855 -10.625 8.75 C-9.74712644 3.48275862 -9.74712644 3.48275862 -8 1 C-4.98099193 -1.11330565 -3.42505804 -1.14168601 0 0 Z " fill="#2B2B2B" transform="translate(243,155)"/>
<path d="M0 0 C0.33 0 0.66 0 1 0 C1.50588674 8.09418785 -0.88682972 14.6430856 -6 21 C-9.37910814 24.64092766 -12.09547378 26.90897485 -17.1875 27.15234375 C-20.16546891 26.90300909 -23.06154998 26.53871584 -26 26 C-25 24 -25 24 -22.25 22.8125 C-19 22 -19 22 -16.5 22.6875 C-13.74666541 23.30521575 -13.74666541 23.30521575 -10.9375 21 C-5.5370475 15.94573035 -3.49663324 10.00430842 -1.61328125 3.0390625 C-1 1 -1 1 0 0 Z " fill="#060606" transform="translate(603,256)"/>
<path d="M0 0 C24.91607643 -0.39357107 24.91607643 -0.39357107 37.16357422 1.28857422 C41.84084667 1.93028365 46.29154161 2.08398588 51 2 C51 2.99 51 3.98 51 5 C42.2021754 5.20867992 33.67173391 4.58363121 24.9375 3.5625 C22.55087441 3.29214512 20.1641566 3.02260292 17.77734375 2.75390625 C16.64280762 2.62516113 15.50827148 2.49641602 14.33935547 2.36376953 C9.56519694 1.84370109 4.78481101 1.40904678 0 1 C0 0.67 0 0.34 0 0 Z " fill="#050505" transform="translate(350,231)"/>
<path d="M0 0 C1.27230469 0.01804688 2.54460937 0.03609375 3.85546875 0.0546875 C5.31919922 0.08949219 5.31919922 0.08949219 6.8125 0.125 C6.8125 1.115 6.8125 2.105 6.8125 3.125 C5.49185547 3.14626953 5.49185547 3.14626953 4.14453125 3.16796875 C-3.3327782 3.12490847 -3.3327782 3.12490847 -9.5 6.6875 C-10.056875 7.491875 -10.61375 8.29625 -11.1875 9.125 C-11.5175 8.795 -11.8475 8.465 -12.1875 8.125 C-12.5175 12.085 -12.8475 16.045 -13.1875 20.125 C-13.5175 20.125 -13.8475 20.125 -14.1875 20.125 C-14.29614945 18.06367858 -14.37338321 16.00068679 -14.4375 13.9375 C-14.48390625 12.78894531 -14.5303125 11.64039063 -14.578125 10.45703125 C-14.10940538 6.45885287 -12.98440508 4.95711792 -10.1875 2.125 C-6.4507157 -0.36618953 -4.44298181 -0.0815226 0 0 Z " fill="#252525" transform="translate(202.1875,194.875)"/>
<path d="M0 0 C0.66 0.66 1.32 1.32 2 2 C1.67 2.680625 1.34 3.36125 1 4.0625 C-0.18453566 6.99578446 -0.18453566 6.99578446 0.0625 10.25 C-0.02360065 15.41603921 -1.03554646 20.83957907 -4.60546875 24.765625 C-5.06566406 25.17296875 -5.52585937 25.5803125 -6 26 C-6.99 25.67 -7.98 25.34 -9 25 C-8.360625 24.13375 -7.72125 23.2675 -7.0625 22.375 C-4.99019986 18.98396341 -4.42247465 16.88676677 -4 13 C-3.79375 12.319375 -3.5875 11.63875 -3.375 10.9375 C-2.83067246 8.89287506 -2.83067246 8.89287506 -3.6875 6.5 C-3.790625 5.675 -3.89375 4.85 -4 4 C-2.0625 1.6875 -2.0625 1.6875 0 0 Z " fill="#000000" transform="translate(467,229)"/>
<path d="M0 0 C2.60427663 2.60427663 2.50528695 4.39566205 3 8 C3.32871094 9.1446875 3.32871094 9.1446875 3.6640625 10.3125 C4.10572171 13.84577369 3.19396203 15.92627731 1.8125 19.1875 C1.38582031 20.23292969 0.95914063 21.27835938 0.51953125 22.35546875 C-1.09002716 25.15667966 -2.00308155 25.95396637 -5 27 C-4.00734643 24.46170776 -2.98445893 21.96695587 -1.82421875 19.5 C-0.69196301 17.00981554 0.30720879 14.64839171 1 12 C-0.20968895 9.2332494 -0.20968895 9.2332494 -2 7 C-1.58333333 1.58333333 -1.58333333 1.58333333 0 0 Z " fill="#000000" transform="translate(584,231)"/>
<path d="M0 0 C2 2 2 2 2.01171875 4.3203125 C1.90472656 5.24585938 1.79773438 6.17140625 1.6875 7.125 C1.51927734 8.60226563 1.51927734 8.60226563 1.34765625 10.109375 C1.23292969 11.06328125 1.11820313 12.0171875 1 13 C0.93683594 13.76828125 0.87367188 14.5365625 0.80859375 15.328125 C0.42512106 19.6034375 -0.49052942 22.50856266 -3 26 C-3.99 25.34 -4.98 24.68 -6 24 C-5.34 23.34 -4.68 22.68 -4 22 C-3.27982196 19.71171706 -3.27982196 19.71171706 -2.8125 17.125 C-2.63332031 16.26132813 -2.45414063 15.39765625 -2.26953125 14.5078125 C-1.85548873 12.05460461 -1.85548873 12.05460461 -2.5390625 9.9453125 C-3.13919757 7.41253908 -2.55294951 6.12707883 -1.5625 3.75 C-1.27503906 3.04359375 -0.98757813 2.3371875 -0.69140625 1.609375 C-0.34916016 0.81273437 -0.34916016 0.81273437 0 0 Z " fill="#000000" transform="translate(544,231)"/>
<path d="M0 0 C0 3.95738678 -0.71710724 5.74860728 -3 9 C-5.94853027 10.11354069 -8.87855742 10.62045352 -12 11 C-12.33 13.64 -12.66 16.28 -13 19 C-13.33 19 -13.66 19 -14 19 C-14.27615058 17.40012764 -14.52007625 15.794667 -14.75 14.1875 C-14.88921875 13.29417969 -15.0284375 12.40085937 -15.171875 11.48046875 C-15 9 -15 9 -13.234375 7.234375 C-11 6 -11 6 -7.5 5.0625 C-3.84817874 3.9539114 -2.40347482 2.88416978 0 0 Z " fill="#141414" transform="translate(200,260)"/>
<path d="M0 0 C0 0.66 0 1.32 0 2 C-3.13850064 2.92553743 -5.93680778 3.11664647 -9.203125 3.09765625 C-10.1828125 3.09443359 -11.1625 3.09121094 -12.171875 3.08789062 C-13.18765625 3.07951172 -14.2034375 3.07113281 -15.25 3.0625 C-16.796875 3.05573242 -16.796875 3.05573242 -18.375 3.04882812 C-20.91672573 3.03706088 -23.45833319 3.02062011 -26 3 C-25.67 2.34 -25.34 1.68 -25 1 C-22.33349537 0.83031334 -19.66684474 0.66418179 -17 0.5 C-16.25621094 0.45230469 -15.51242187 0.40460938 -14.74609375 0.35546875 C-9.82037776 0.05564256 -4.93485224 -0.04486229 0 0 Z " fill="#000000" transform="translate(332,246)"/>
<path d="M0 0 C0.99 0.33 1.98 0.66 3 1 C3.13277344 2.01320312 3.26554688 3.02640625 3.40234375 4.0703125 C3.58067584 5.42188204 3.75906425 6.77344414 3.9375 8.125 C4.02451172 8.79015625 4.11152344 9.4553125 4.20117188 10.140625 C4.72630558 14.10830188 5.31814014 18.05626998 6 22 C5.01 22.33 4.02 22.66 3 23 C0.41283102 15.1768938 -0.38750039 8.2236194 0 0 Z " fill="#262626" transform="translate(163,210)"/>
<path d="M0 0 C0.20496094 0.78246094 0.40992188 1.56492188 0.62109375 2.37109375 C0.89050781 3.38300781 1.15992188 4.39492187 1.4375 5.4375 C1.83775391 6.95150391 1.83775391 6.95150391 2.24609375 8.49609375 C2.75978077 10.91752001 2.75978077 10.91752001 4 12 C4.25 14.9375 4.25 14.9375 4 18 C3.01 18.66 2.02 19.32 1 20 C-0.64681249 13.69239743 -2.26309887 7.48472993 -3 1 C-1 0 -1 0 0 0 Z " fill="#282828" transform="translate(272,195)"/>
<path d="M0 0 C1.875 0.1875 1.875 0.1875 4 1 C6.38879811 4.98133018 5.79447983 7.58622317 5 12 C5.2644354 14.34214207 5.58244638 16.68025766 6 19 C5.01 18.67 4.02 18.34 3 18 C0.62790698 11.22259136 0.62790698 11.22259136 1.875 7.125 C2.24625 6.42375 2.6175 5.7225 3 5 C3 4.34 3 3.68 3 3 C2.01 3 1.02 3 0 3 C0 2.01 0 1.02 0 0 Z " fill="#000000" transform="translate(563,253)"/>
<path d="M0 0 C8.25 0.33 16.5 0.66 25 1 C25 1.66 25 2.32 25 3 C22.33326258 3.02727345 19.66681131 3.04696948 17 3.0625 C15.88431641 3.07506836 15.88431641 3.07506836 14.74609375 3.08789062 C9.73851156 3.10966272 4.95720968 2.71541549 0 2 C0 1.34 0 0.68 0 0 Z " fill="#0B0B0B" transform="translate(193,228)"/>
<path d="M0 0 C0.99 0.33 1.98 0.66 3 1 C4.00344253 7.30735307 4.50873071 13.63440427 5 20 C4.01 19.67 3.02 19.34 2 19 C-0.08254633 13.95301272 -0.10550722 9.28186783 1 4 C0.6422386 1.72349255 0.6422386 1.72349255 0 0 Z " fill="#000000" transform="translate(484,250)"/>
<path d="M0 0 C0.33 0 0.66 0 1 0 C1.56891054 4.83573957 -0.11578192 7.20931338 -3 11 C-5.52730848 13.98681911 -8.72805628 15.89141405 -12 18 C-10.4628015 14.70270923 -8.57926258 11.79483213 -6.5 8.8125 C-5.8915625 7.93207031 -5.283125 7.05164063 -4.65625 6.14453125 C-3 4 -3 4 -1 3 C-0.67 2.01 -0.34 1.02 0 0 Z " fill="#292929" transform="translate(207,247)"/>
<path d="M0 0 C0.66 0.33 1.32 0.66 2 1 C1.814375 1.66 1.62875 2.32 1.4375 3 C1.03842212 5.73653403 1.13760553 7.4471767 1.5625 10.125 C2 14 2 14 0 17 C-0.99 16.67 -1.98 16.34 -3 16 C-2.67 15.34 -2.34 14.68 -2 14 C-1.86270799 10.91092972 -1.91919487 8.31587458 -2.6875 5.3125 C-2.790625 4.549375 -2.89375 3.78625 -3 3 C-1.5625 1.1875 -1.5625 1.1875 0 0 Z " fill="#000000" transform="translate(517,230)"/>
<path d="M0 0 C0.33 0 0.66 0 1 0 C1.02686553 1.97909398 1.04633375 3.95828971 1.0625 5.9375 C1.07410156 7.03964844 1.08570313 8.14179688 1.09765625 9.27734375 C1 12 1 12 0 13 C-0.23287008 14.68183948 -0.41264166 16.3712416 -0.5625 18.0625 C-0.64628906 18.98160156 -0.73007813 19.90070313 -0.81640625 20.84765625 C-0.87699219 21.55792969 -0.93757812 22.26820313 -1 23 C-1.33 23 -1.66 23 -2 23 C-2.05789006 19.54173658 -2.09355821 16.08359707 -2.125 12.625 C-2.14175781 11.64015625 -2.15851563 10.6553125 -2.17578125 9.640625 C-2.18222656 8.69960937 -2.18867188 7.75859375 -2.1953125 6.7890625 C-2.20578613 5.91975098 -2.21625977 5.05043945 -2.22705078 4.15478516 C-2 2 -2 2 0 0 Z " fill="#151515" transform="translate(166,198)"/>
<path d="M0 0 C0.33 0.99 0.66 1.98 1 3 C-1.14419403 7.0707443 -3.7910725 10.36925522 -7.875 12.5 C-8.57625 12.665 -9.2775 12.83 -10 13 C-8.16490101 7.32787586 -4.97304587 3.31536392 0 0 Z " fill="#212121" transform="translate(215,260)"/>
<path d="M0 0 C0.33 0 0.66 0 1 0 C1.125 2.375 1.125 2.375 1 5 C-1 7 -1 7 -4.0390625 7.1953125 C-5.22242188 7.17210937 -6.40578125 7.14890625 -7.625 7.125 C-8.81351562 7.10695312 -10.00203125 7.08890625 -11.2265625 7.0703125 C-12.14179688 7.04710937 -13.05703125 7.02390625 -14 7 C-14 6.34 -14 5.68 -14 5 C-12.86111328 4.96132812 -12.86111328 4.96132812 -11.69921875 4.921875 C-10.20841797 4.83679688 -10.20841797 4.83679688 -8.6875 4.75 C-7.70136719 4.70359375 -6.71523438 4.6571875 -5.69921875 4.609375 C-2.86149964 4.24704536 -2.86149964 4.24704536 -1.20703125 1.953125 C-0.80871094 1.30859375 -0.41039062 0.6640625 0 0 Z " fill="#040404" transform="translate(418,246)"/>
<path d="M0 0 C0 0.33 0 0.66 0 1 C-1.98 1.33 -3.96 1.66 -6 2 C-6 2.66 -6 3.32 -6 4 C-6.99 4.495 -6.99 4.495 -8 5 C-8.46523063 6.89533342 -8.46523063 6.89533342 -8.625 9.0625 C-8.74875 10.361875 -8.8725 11.66125 -9 13 C-9.99 12.34 -10.98 11.68 -12 11 C-11.51714678 3.63648834 -11.51714678 3.63648834 -9.375 1 C-6.17067842 -0.34918804 -3.43707561 -0.19829282 0 0 Z " fill="#252525" transform="translate(411,223)"/>
<path d="M0 0 C-0.33 1.32 -0.66 2.64 -1 4 C-4.3 4 -7.6 4 -11 4 C-10.67 3.01 -10.34 2.02 -10 1 C-6.76421296 -0.31828361 -3.44785988 -0.07836045 0 0 Z " fill="#2D2D2D" transform="translate(225,167)"/>
<path d="M0 0 C1.47726563 0.30550781 1.47726563 0.30550781 2.984375 0.6171875 C4.10585937 0.86855469 4.10585937 0.86855469 5.25 1.125 C5.25 1.455 5.25 1.785 5.25 2.125 C4.51394531 2.17398438 3.77789062 2.22296875 3.01953125 2.2734375 C1.55580078 2.38558594 1.55580078 2.38558594 0.0625 2.5 C-0.90042969 2.56960937 -1.86335937 2.63921875 -2.85546875 2.7109375 C-5.76508938 3.12715853 -8.07890774 3.92374096 -10.75 5.125 C-10.5 3.25 -10.5 3.25 -9.75 1.125 C-6.32954553 -1.28198648 -3.97395341 -0.85156144 0 0 Z " fill="#2F2F2F" transform="translate(184.75,178.875)"/>
<path d="M0 0 C0.33 1.32 0.66 2.64 1 4 C-2.3 4 -5.6 4 -9 4 C-8.67 3.01 -8.34 2.02 -8 1 C-5.36 0.67 -2.72 0.34 0 0 Z " fill="#080808" transform="translate(233,166)"/>
<path d="M0 0 C2.60334924 2.71182212 2.99456691 3.89133813 3.1875 7.75 C3.125625 8.8225 3.06375 9.895 3 11 C2.67 10.01 2.34 9.02 2 8 C1.34 8 0.68 8 0 8 C-1.0625 6.1875 -1.0625 6.1875 -2 4 C-1 1 -1 1 0 0 Z " fill="#191919" transform="translate(268,188)"/>
<path d="M0 0 C2.97 0.33 5.94 0.66 9 1 C8.67 1.99 8.34 2.98 8 4 C5.36 4 2.72 4 0 4 C0 2.68 0 1.36 0 0 Z " fill="#0D0D0D" transform="translate(206,167)"/>
<path d="M0 0 C1.98 0.99 1.98 0.99 4 2 C4.1875 4.875 4.1875 4.875 4 8 C3.01 8.66 2.02 9.32 1 10 C0.67 6.7 0.34 3.4 0 0 Z " fill="#202020" transform="translate(272,205)"/>
<path d="M0 0 C0.33 0 0.66 0 1 0 C1.33 5.94 1.66 11.88 2 18 C-0.49059397 13.01881207 -1.2136995 10.24901803 -0.5625 4.75 C-0.46066406 3.85796875 -0.35882812 2.9659375 -0.25390625 2.046875 C-0.17011719 1.37140625 -0.08632813 0.6959375 0 0 Z " fill="#242424" transform="translate(603,242)"/>
<path d="M0 0 C2.31 0 4.62 0 7 0 C7.33 1.65 7.66 3.3 8 5 C7.01 5.495 7.01 5.495 6 6 C5.67 5.01 5.34 4.02 5 3 C2.03 2.505 2.03 2.505 -1 2 C-0.67 1.34 -0.34 0.68 0 0 Z " fill="#080808" transform="translate(405,224)"/>
<path d="M0 0 C2.29013653 3.4352048 2.17842973 4.985331 2 9 C1.01 9.495 1.01 9.495 0 10 C-0.38922918 8.71254964 -0.76098036 7.41980403 -1.125 6.125 C-1.43824219 5.04605469 -1.43824219 5.04605469 -1.7578125 3.9453125 C-1.83773437 3.30335938 -1.91765625 2.66140625 -2 2 C-1.34 1.34 -0.68 0.68 0 0 Z " fill="#0D0D0D" transform="translate(208,270)"/>
<path d="M0 0 C0.33 0 0.66 0 1 0 C1.3125 2.75 1.3125 2.75 1 6 C-1.5 8.375 -1.5 8.375 -4 10 C-4.33 9.34 -4.66 8.68 -5 8 C-4.0409375 7.13375 -4.0409375 7.13375 -3.0625 6.25 C-1.01776132 4.01937599 -0.41794801 2.92563609 0 0 Z " fill="#232323" transform="translate(210,275)"/>
<path d="M0 0 C2.31 0 4.62 0 7 0 C7 0.66 7 1.32 7 2 C4.36 2.33 1.72 2.66 -1 3 C-0.67 2.01 -0.34 1.02 0 0 Z " fill="#0A0A0A" transform="translate(325,246)"/>
<path d="M0 0 C2.56687367 3.8503105 1.83288724 5.58569763 1 10 C0.01 9.67 -0.98 9.34 -2 9 C-1.125 2.25 -1.125 2.25 0 0 Z " fill="#212121" transform="translate(413,227)"/>
<path d="M0 0 C0.99 0 1.98 0 3 0 C2.67 2.31 2.34 4.62 2 7 C1.01 7 0.02 7 -1 7 C-0.67 4.69 -0.34 2.38 0 0 Z " fill="#232323" transform="translate(166,192)"/>
<path d="M0 0 C1.32 0.33 2.64 0.66 4 1 C3.67 1.99 3.34 2.98 3 4 C1.35 4 -0.3 4 -2 4 C-1.34 2.68 -0.68 1.36 0 0 Z " fill="#181818" transform="translate(184,192)"/>
<path d="M0 0 C2.475 0.99 2.475 0.99 5 2 C4.67 2.99 4.34 3.98 4 5 C2.68 5 1.36 5 0 5 C0 3.35 0 1.7 0 0 Z " fill="#252525" transform="translate(228,190)"/>
<path d="M0 0 C0.66 1.32 1.32 2.64 2 4 C-0.97 4 -3.94 4 -7 4 C-6.67 3.34 -6.34 2.68 -6 2 C-4.02 2 -2.04 2 0 2 C0 1.34 0 0.68 0 0 Z " fill="#000000" transform="translate(188,176)"/>
</svg>
