<?xml version="1.0" encoding="UTF-8"?>
<svg version="1.1" xmlns="http://www.w3.org/2000/svg" width="800" height="300">
<path d="M0 0 C264 0 528 0 800 0 C800 99 800 198 800 300 C536 300 272 300 0 300 C0 201 0 102 0 0 Z " fill="#FEFEFE" transform="translate(0,0)"/>
<path d="M0 0 C1.25103516 -0.05994141 1.25103516 -0.05994141 2.52734375 -0.12109375 C6.30612063 0.7115181 7.72754572 2.40530243 10.0625 5.4375 C10.84765625 8.91796875 10.84765625 8.91796875 11.125 12.625 C11.32105241 16.26895028 11.32105241 16.26895028 12.0625 19.4375 C13.87955621 20.61987022 13.87955621 20.61987022 16.0625 21.4375 C23.65263177 30.10981853 27.70243971 39.20150331 30.44921875 50.25 C30.85838829 52.39671249 30.85838829 52.39671249 32.0625 53.4375 C32.62594744 56.28977019 33.14384945 59.13381608 33.625 62 C33.76357422 62.80630859 33.90214844 63.61261719 34.04492188 64.44335938 C34.38767763 66.44079811 34.72554388 68.43907472 35.0625 70.4375 C36.87459723 70.89742316 38.68720361 71.35534036 40.5 71.8125 C42.01400391 72.19535156 42.01400391 72.19535156 43.55859375 72.5859375 C44.71488281 72.86695313 45.87117188 73.14796875 47.0625 73.4375 C48.33303223 73.77942383 49.60356445 74.12134766 50.91259766 74.47363281 C57.22501227 75.86230254 63.52892165 75.71679192 69.96484375 75.7109375 C71.31837703 75.71821885 72.67190382 75.72680874 74.02542114 75.73661804 C76.87958107 75.75690785 79.73372219 75.77364839 82.58792114 75.78738403 C106.93885337 75.91559149 130.98437927 76.38931496 155.0625 80.4375 C155.19398438 79.15875 155.32546875 77.88 155.4609375 76.5625 C155.859375 72.6875 155.859375 72.6875 157.6875 70.4375 C161.02872604 69.03066798 163.47903883 68.98142312 167.0625 69.4375 C169.93971671 72.02699504 170.60266849 74.66688161 171.0625 78.4375 C171.000625 79.2625 170.93875 80.0875 170.875 80.9375 C171.13488774 84.40266991 172.7947033 85.89481885 175.0625 88.4375 C176.46185013 91.23620027 176.31515405 93.34248792 176.0625 96.4375 C174.79150391 98.10400391 174.79150391 98.10400391 173.0625 99.4375 C170.09889144 99.7391847 167.3965678 99.86329688 164.4375 99.8125 C163.62224854 99.80524902 162.80699707 99.79799805 161.96704102 99.79052734 C156.14707055 99.65657426 151.42977863 98.70147556 146.0625 96.4375 C137.37292722 93.4873364 128.10860188 94.26184754 119.0625 94.4375 C122.43167941 102.25783106 125.08451089 105.99174813 132.97265625 109.265625 C135.0625 110.4375 135.0625 110.4375 136.3125 113.9375 C135.89450827 119.78938418 133.94697771 123.0821765 130.0625 127.4375 C126.34254984 129.91746677 123.36823798 129.85502611 119.0625 129.4375 C116.44889757 128.61215186 115.46775278 127.96432862 113.8125 125.8125 C112.67502288 122.21048912 112.82234426 119.21995286 113.0625 115.4375 C114.0525 113.9525 114.0525 113.9525 115.0625 112.4375 C112.4225 110.1275 109.7825 107.8175 107.0625 105.4375 C106.0725 106.7575 105.0825 108.0775 104.0625 109.4375 C103.4025 109.4375 102.7425 109.4375 102.0625 109.4375 C101.69125 110.30375 101.69125 110.30375 101.3125 111.1875 C100.0625 113.4375 100.0625 113.4375 97.9375 115.125 C95.73171043 117.84547381 95.89521874 118.50707073 96.0625 121.875 C96.17399402 125.09239872 96.05827869 126.44734972 94.75 129.5 C90.52669941 132.54470508 86.10184939 132.11656127 81.0625 131.4375 C76.66419293 129.98624962 74.42586479 128.52793907 72.0625 124.4375 C72.0625 120.40602439 72.67755339 118.07907768 74.75 114.625 C77.0625 112.4375 77.0625 112.4375 79.83984375 111.77734375 C84.39892242 109.88187225 86.22186277 106.81216135 88.9375 102.8125 C89.43507813 102.10609375 89.93265625 101.3996875 90.4453125 100.671875 C91.66469601 98.93659847 92.86549091 97.18828554 94.0625 95.4375 C92.47926312 95.410307 90.89588938 95.39101694 89.3125 95.375 C88.43078125 95.36339844 87.5490625 95.35179687 86.640625 95.33984375 C84.16948381 95.33296518 84.16948381 95.33296518 82.2875824 95.93551636 C79.44398608 96.57703815 76.79894119 96.56478607 73.88305664 96.56689453 C72.00312767 96.57162277 72.00312767 96.57162277 70.08522034 96.57644653 C68.71436529 96.57465326 67.34351056 96.57260145 65.97265625 96.5703125 C64.54894494 96.57098754 63.12523375 96.57195923 61.70152283 96.57321167 C58.70635896 96.57468734 55.71122486 96.57254369 52.71606445 96.56787109 C48.9420051 96.56226075 45.16801763 96.56548407 41.39396095 96.57132339 C25.25849891 96.59236623 9.17313801 96.4543313 -6.9375 95.4375 C-3.52835309 104.63547147 -0.83190531 109.81788882 8.13671875 114.32421875 C10.0625 115.4375 10.0625 115.4375 11.0625 117.4375 C11.74248475 122.29453392 11.06999233 124.93152045 8.25 128.8125 C6.13791308 131.51388525 5.39702729 132.3259909 2.0625 133.4375 C-3.36541411 133.90915635 -8.2477821 134.28235895 -13.1875 131.8125 C-14.9375 129.4375 -14.9375 129.4375 -15.4375 126.5 C-14.89225167 123.16035401 -13.66906725 121.29835024 -11.9375 118.4375 C-12.0647276 114.4934443 -14.56686498 111.44884719 -16.9375 108.4375 C-19.87199408 106.42708997 -19.87199408 106.42708997 -22.9375 105.4375 C-28.38416071 107.25305357 -31.36952591 112.49083738 -33.9375 117.4375 C-34.05915775 120.26309926 -33.68498646 122.57928551 -33.125 125.33984375 C-33.063125 126.03207031 -33.00125 126.72429687 -32.9375 127.4375 C-35.125 129.9375 -35.125 129.9375 -37.9375 131.4375 C-38.56398437 131.79328125 -39.19046875 132.1490625 -39.8359375 132.515625 C-44.21457251 134.43636452 -49.19742715 133.86285114 -53.75 132.75 C-56.75245249 130.94852851 -58.17959361 129.49755926 -59.9375 126.4375 C-60.55129035 123.30603258 -60.59453112 120.56406188 -59.9375 117.4375 C-57.75 114.4375 -57.75 114.4375 -54.9375 112.4375 C-54.15117187 112.35113281 -53.36484375 112.26476562 -52.5546875 112.17578125 C-48.71294049 111.09206456 -47.53161798 108.82856208 -45.25 105.625 C-44.09951172 104.03751953 -44.09951172 104.03751953 -42.92578125 102.41796875 C-41.39152595 100.11809293 -40.07381823 97.94712262 -38.9375 95.4375 C-39.91589844 95.44910156 -40.89429688 95.46070313 -41.90234375 95.47265625 C-45.91573883 95.5002804 -49.92423811 95.47372804 -53.9375 95.4375 C-54.79988281 95.45683594 -55.66226563 95.47617188 -56.55078125 95.49609375 C-63.71532815 95.29962537 -68.78776024 91.11525052 -73.9375 86.4375 C-80.87161288 78.47882162 -81.61530276 66.45929792 -80.9375 56.4375 C-79.23657162 34.23093501 -79.23657162 34.23093501 -71.890625 27.5859375 C-66.87975739 24.49302266 -62.73645093 23.91032264 -56.9375 24.4375 C-57.2675 23.6125 -57.5975 22.7875 -57.9375 21.9375 C-59.47718135 16.54861529 -59.70523401 12.37511442 -57.625 7.125 C-55.12468001 3.14300891 -55.12468001 3.14300891 -52.9375 1.4375 C-50.34375 1.0390625 -50.34375 1.0390625 -47.4375 1.0625 C-46.4784375 1.05476562 -45.519375 1.04703125 -44.53125 1.0390625 C-41.53260764 1.49969732 -40.72301712 2.03838411 -38.9375 4.4375 C-35.9375 10.65972222 -35.9375 10.65972222 -35.9375 14.4375 C-34.97263672 14.32921875 -34.97263672 14.32921875 -33.98828125 14.21875 C-26.61782493 13.46172738 -19.34284071 13.33154123 -11.9375 13.4375 C-11.751875 11.82875 -11.751875 11.82875 -11.5625 10.1875 C-10.68462644 4.92025862 -10.68462644 4.92025862 -8.9375 2.4375 C-5.93492624 0.60407 -3.500116 0.09168255 0 0 Z " fill="#FCFCFC" transform="translate(243.9375,153.5625)"/>
<path d="M0 0 C3 1.125 3 1.125 5 3.6875 C9.32001529 7.19751242 13.01420795 6.59726205 18.4296875 6.49609375 C22.01158558 6.23583078 22.01158558 6.23583078 25.37890625 5.11328125 C29.72194312 3.92796482 33.58676641 3.82463072 38.0625 3.875 C38.917229 3.87959229 39.77195801 3.88418457 40.65258789 3.88891602 C51.61101098 4.03859687 63.01807355 4.52413677 73.78515625 6.68359375 C80.82494371 8.0865849 88.40862453 7.17685983 95.53857422 6.76416016 C105.97627002 6.1740504 116.4101612 5.95654549 126.86279297 5.89282227 C128.52755234 5.88101202 130.19228348 5.86398605 131.85693359 5.84155273 C134.22511537 5.81141051 136.59258459 5.80161354 138.9609375 5.796875 C139.6675351 5.78456848 140.37413269 5.77226196 141.10214233 5.75958252 C146.17862453 5.78191008 149.57350682 6.81558656 154 9.125 C155.125 11.0625 155.125 11.0625 156 13.125 C157.65788785 14.46923339 159.32576317 15.80118483 161 17.125 C166.84894313 23.54457172 170.43621605 29.48716048 171.3125 38.25 C170.50377503 48.27818958 165.21584103 59.73516824 158.5 67.25 C153.59544727 70.92841455 147.51979135 70.25205331 141.61328125 70.1875 C140.79796432 70.18371338 139.9826474 70.17992676 139.1426239 70.17602539 C135.69405414 70.15997515 132.245609 70.13260761 128.79711914 70.10449219 C119.32798193 70.03416536 109.89614519 70.09692316 100.43473816 70.52130127 C85.70750233 71.18117987 71.09029734 71.04011423 56.35986328 70.51074219 C52.44729389 70.37314645 48.53447789 70.26017907 44.62109375 70.1484375 C42.09109647 70.06396567 39.56114587 69.97808136 37.03125 69.890625 C35.88217163 69.85922424 34.73309326 69.82782349 33.54919434 69.79547119 C23.3765977 69.39496198 11.83441329 68.06975681 4.34765625 60.44140625 C-1.82681152 52.93844664 -3.0637654 44.33844549 -4.4609375 34.97265625 C-4.94344294 32.42376882 -5.62919869 30.37782463 -6.625 28 C-8.28641092 23.3583262 -8.40171748 18.75701372 -8.5 13.875 C-8.5304541 13.09366699 -8.5609082 12.31233398 -8.59228516 11.50732422 C-8.59503932 7.23378247 -8.35530653 5.58571414 -5.65625 2.0859375 C-3 0.125 -3 0.125 0 0 Z " fill="#646464" transform="translate(433,214.875)"/>
<path d="M0 0 C1.25103516 -0.05994141 1.25103516 -0.05994141 2.52734375 -0.12109375 C6.30612063 0.7115181 7.72754572 2.40530243 10.0625 5.4375 C10.84765625 8.91796875 10.84765625 8.91796875 11.125 12.625 C11.32105241 16.26895028 11.32105241 16.26895028 12.0625 19.4375 C13.87955621 20.61987022 13.87955621 20.61987022 16.0625 21.4375 C23.65263177 30.10981853 27.70243971 39.20150331 30.44921875 50.25 C30.85838829 52.39671249 30.85838829 52.39671249 32.0625 53.4375 C32.62594744 56.28977019 33.14384945 59.13381608 33.625 62 C33.76357422 62.80630859 33.90214844 63.61261719 34.04492188 64.44335938 C34.38767763 66.44079811 34.72554388 68.43907472 35.0625 70.4375 C36.87459723 70.89742316 38.68720361 71.35534036 40.5 71.8125 C42.01400391 72.19535156 42.01400391 72.19535156 43.55859375 72.5859375 C44.71488281 72.86695313 45.87117188 73.14796875 47.0625 73.4375 C48.33303223 73.77942383 49.60356445 74.12134766 50.91259766 74.47363281 C57.22501227 75.86230254 63.52892165 75.71679192 69.96484375 75.7109375 C71.31837703 75.71821885 72.67190382 75.72680874 74.02542114 75.73661804 C76.87958107 75.75690785 79.73372219 75.77364839 82.58792114 75.78738403 C106.93885337 75.91559149 130.98437927 76.38931496 155.0625 80.4375 C155.19398438 79.15875 155.32546875 77.88 155.4609375 76.5625 C155.859375 72.6875 155.859375 72.6875 157.6875 70.4375 C161.02872604 69.03066798 163.47903883 68.98142312 167.0625 69.4375 C169.93971671 72.02699504 170.60266849 74.66688161 171.0625 78.4375 C171.000625 79.2625 170.93875 80.0875 170.875 80.9375 C171.13488774 84.40266991 172.7947033 85.89481885 175.0625 88.4375 C176.46185013 91.23620027 176.31515405 93.34248792 176.0625 96.4375 C174.79150391 98.10400391 174.79150391 98.10400391 173.0625 99.4375 C170.09889144 99.7391847 167.3965678 99.86329688 164.4375 99.8125 C163.62224854 99.80524902 162.80699707 99.79799805 161.96704102 99.79052734 C156.14707055 99.65657426 151.42977863 98.70147556 146.0625 96.4375 C137.37292722 93.4873364 128.10860188 94.26184754 119.0625 94.4375 C122.43167941 102.25783106 125.08451089 105.99174813 132.97265625 109.265625 C135.0625 110.4375 135.0625 110.4375 136.3125 113.9375 C135.89450827 119.78938418 133.94697771 123.0821765 130.0625 127.4375 C126.34254984 129.91746677 123.36823798 129.85502611 119.0625 129.4375 C116.44889757 128.61215186 115.46775278 127.96432862 113.8125 125.8125 C112.67502288 122.21048912 112.82234426 119.21995286 113.0625 115.4375 C114.0525 113.9525 114.0525 113.9525 115.0625 112.4375 C112.4225 110.1275 109.7825 107.8175 107.0625 105.4375 C106.0725 106.7575 105.0825 108.0775 104.0625 109.4375 C103.4025 109.4375 102.7425 109.4375 102.0625 109.4375 C101.69125 110.30375 101.69125 110.30375 101.3125 111.1875 C100.0625 113.4375 100.0625 113.4375 97.9375 115.125 C95.73171043 117.84547381 95.89521874 118.50707073 96.0625 121.875 C96.17399402 125.09239872 96.05827869 126.44734972 94.75 129.5 C90.52669941 132.54470508 86.10184939 132.11656127 81.0625 131.4375 C76.66419293 129.98624962 74.42586479 128.52793907 72.0625 124.4375 C72.0625 120.40602439 72.67755339 118.07907768 74.75 114.625 C77.0625 112.4375 77.0625 112.4375 79.83984375 111.77734375 C84.39892242 109.88187225 86.22186277 106.81216135 88.9375 102.8125 C89.43507813 102.10609375 89.93265625 101.3996875 90.4453125 100.671875 C91.66469601 98.93659847 92.86549091 97.18828554 94.0625 95.4375 C92.47926312 95.410307 90.89588938 95.39101694 89.3125 95.375 C88.43078125 95.36339844 87.5490625 95.35179687 86.640625 95.33984375 C84.16948381 95.33296518 84.16948381 95.33296518 82.2875824 95.93551636 C79.44398608 96.57703815 76.79894119 96.56478607 73.88305664 96.56689453 C72.00312767 96.57162277 72.00312767 96.57162277 70.08522034 96.57644653 C68.71436529 96.57465326 67.34351056 96.57260145 65.97265625 96.5703125 C64.54894494 96.57098754 63.12523375 96.57195923 61.70152283 96.57321167 C58.70635896 96.57468734 55.71122486 96.57254369 52.71606445 96.56787109 C48.9420051 96.56226075 45.16801763 96.56548407 41.39396095 96.57132339 C25.25849891 96.59236623 9.17313801 96.4543313 -6.9375 95.4375 C-3.52835309 104.63547147 -0.83190531 109.81788882 8.13671875 114.32421875 C10.0625 115.4375 10.0625 115.4375 11.0625 117.4375 C11.74248475 122.29453392 11.06999233 124.93152045 8.25 128.8125 C6.13791308 131.51388525 5.39702729 132.3259909 2.0625 133.4375 C-3.36541411 133.90915635 -8.2477821 134.28235895 -13.1875 131.8125 C-14.9375 129.4375 -14.9375 129.4375 -15.4375 126.5 C-14.89225167 123.16035401 -13.66906725 121.29835024 -11.9375 118.4375 C-12.0647276 114.4934443 -14.56686498 111.44884719 -16.9375 108.4375 C-19.87199408 106.42708997 -19.87199408 106.42708997 -22.9375 105.4375 C-28.38416071 107.25305357 -31.36952591 112.49083738 -33.9375 117.4375 C-34.05915775 120.26309926 -33.68498646 122.57928551 -33.125 125.33984375 C-33.063125 126.03207031 -33.00125 126.72429687 -32.9375 127.4375 C-35.125 129.9375 -35.125 129.9375 -37.9375 131.4375 C-38.56398437 131.79328125 -39.19046875 132.1490625 -39.8359375 132.515625 C-44.21457251 134.43636452 -49.19742715 133.86285114 -53.75 132.75 C-56.75245249 130.94852851 -58.17959361 129.49755926 -59.9375 126.4375 C-60.55129035 123.30603258 -60.59453112 120.56406188 -59.9375 117.4375 C-57.75 114.4375 -57.75 114.4375 -54.9375 112.4375 C-54.15117187 112.35113281 -53.36484375 112.26476562 -52.5546875 112.17578125 C-48.71294049 111.09206456 -47.53161798 108.82856208 -45.25 105.625 C-44.09951172 104.03751953 -44.09951172 104.03751953 -42.92578125 102.41796875 C-41.39152595 100.11809293 -40.07381823 97.94712262 -38.9375 95.4375 C-39.91589844 95.44910156 -40.89429688 95.46070313 -41.90234375 95.47265625 C-45.91573883 95.5002804 -49.92423811 95.47372804 -53.9375 95.4375 C-54.79988281 95.45683594 -55.66226563 95.47617188 -56.55078125 95.49609375 C-63.71532815 95.29962537 -68.78776024 91.11525052 -73.9375 86.4375 C-80.87161288 78.47882162 -81.61530276 66.45929792 -80.9375 56.4375 C-79.23657162 34.23093501 -79.23657162 34.23093501 -71.890625 27.5859375 C-66.87975739 24.49302266 -62.73645093 23.91032264 -56.9375 24.4375 C-57.2675 23.6125 -57.5975 22.7875 -57.9375 21.9375 C-59.47718135 16.54861529 -59.70523401 12.37511442 -57.625 7.125 C-55.12468001 3.14300891 -55.12468001 3.14300891 -52.9375 1.4375 C-50.34375 1.0390625 -50.34375 1.0390625 -47.4375 1.0625 C-46.4784375 1.05476562 -45.519375 1.04703125 -44.53125 1.0390625 C-41.53260764 1.49969732 -40.72301712 2.03838411 -38.9375 4.4375 C-35.9375 10.65972222 -35.9375 10.65972222 -35.9375 14.4375 C-34.97263672 14.32921875 -34.97263672 14.32921875 -33.98828125 14.21875 C-26.61782493 13.46172738 -19.34284071 13.33154123 -11.9375 13.4375 C-11.751875 11.82875 -11.751875 11.82875 -11.5625 10.1875 C-10.68462644 4.92025862 -10.68462644 4.92025862 -8.9375 2.4375 C-5.93492624 0.60407 -3.500116 0.09168255 0 0 Z M-6.9375 5.4375 C-8.99028746 9.13251742 -9.13167201 12.26280183 -8.9375 16.4375 C-9.51113281 16.42589844 -10.08476562 16.41429687 -10.67578125 16.40234375 C-20.11698895 16.30205778 -29.51646524 16.8907871 -38.9375 17.4375 C-39.13666016 15.81134766 -39.13666016 15.81134766 -39.33984375 14.15234375 C-39.94825843 10.370629 -41.0756021 7.75653539 -42.9375 4.4375 C-46.01125142 4.08283638 -48.87413172 3.94187759 -51.9375 4.4375 C-55.22928151 7.64899415 -55.86430394 9.69334001 -56.3125 14.25 C-56.08605426 18.75278648 -55.06591975 23.08502384 -53.9375 27.4375 C-55.02417969 27.36789063 -55.02417969 27.36789063 -56.1328125 27.296875 C-62.26605863 27.06790048 -66.20981273 27.06438928 -70.9375 31.4375 C-76.46066401 38.59715705 -77.53359598 47.68228634 -77.9375 56.4375 C-78.00195312 57.39785156 -78.06640625 58.35820312 -78.1328125 59.34765625 C-78.48061389 68.14703147 -77.13049426 77.84629863 -71.5625 85 C-65.48557672 90.64285733 -60.76959454 92.42098151 -52.63671875 92.75390625 C-51.66025391 92.79580078 -50.68378906 92.83769531 -49.67773438 92.88085938 C-48.67033203 92.92017578 -47.66292969 92.95949219 -46.625 93 C-45.08489258 93.06477539 -45.08489258 93.06477539 -43.51367188 93.13085938 C-40.98840431 93.23656825 -38.46304438 93.33866468 -35.9375 93.4375 C-37.48212122 98.69391877 -38.90185862 103.05194531 -42.5625 107.25 C-44.91498476 109.97471336 -46.34129373 111.85220556 -46.9375 115.4375 C-48.030625 115.39625 -49.12375 115.355 -50.25 115.3125 C-54.02642229 115.11675334 -54.02642229 115.11675334 -56.9375 117.4375 C-57.56466621 122.21964235 -57.63004884 124.32942186 -55.0625 128.4375 C-50.65461295 131.25854771 -47.03469471 131.31548569 -41.9375 130.4375 C-38.28910743 128.98174611 -38.28910743 128.98174611 -35.9375 126.4375 C-35.34256321 123.46281605 -35.58022613 122.07265355 -37.0625 119.4375 C-37.9375 117.4375 -37.9375 117.4375 -37.3125 114.8125 C-35.9375 112.4375 -35.9375 112.4375 -34.07421875 111.60546875 C-31.22041426 110.04552809 -30.12387673 108.09417075 -28.375 105.375 C-25.26454019 100.5465134 -25.26454019 100.5465134 -21.9375 99.4375 C-21.710625 100.035625 -21.48375 100.63375 -21.25 101.25 C-20.07013355 103.61667735 -20.07013355 103.61667735 -17.5625 104.8125 C-14.3138571 106.82356465 -12.98433525 109.26137633 -10.9375 112.4375 C-10.2775 112.4375 -9.6175 112.4375 -8.9375 112.4375 C-8.628125 113.22125 -8.31875 114.005 -8 114.8125 C-7.00874962 117.36080128 -7.00874962 117.36080128 -5.9375 119.4375 C-7.1440625 119.746875 -7.1440625 119.746875 -8.375 120.0625 C-11.23701799 121.22320429 -11.23701799 121.22320429 -11.9375 124.375 C-12.16576527 127.33035508 -12.16576527 127.33035508 -11 129.3125 C-7.16369399 131.40503055 -3.01244026 131.03091677 1.0703125 129.86328125 C4.51493108 128.50128771 5.97500725 127.56873913 8.0625 124.4375 C8.5625 121.4375 8.5625 121.4375 8.0625 118.4375 C5.22996984 115.27813943 2.16553158 114.90375359 -1.9375 114.4375 C-1.999375 113.7775 -2.06125 113.1175 -2.125 112.4375 C-3.08417928 108.89591496 -4.73840003 106.41447856 -6.7265625 103.36328125 C-8.82945143 100.01900949 -9.9375 97.38757499 -9.9375 93.4375 C-8.82773804 93.43972061 -7.71797607 93.44194122 -6.57458496 93.44422913 C3.90081667 93.46453002 14.3762143 93.4795056 24.85163116 93.48931217 C30.23670778 93.49452335 35.62176848 93.50158891 41.00683594 93.51293945 C46.20692602 93.5238311 51.40700082 93.52979013 56.60710144 93.53237724 C58.58774557 93.53422019 60.56838889 93.53781896 62.54902649 93.54323006 C65.33022854 93.55052383 68.111368 93.55148743 70.89257812 93.55102539 C72.11178452 93.5564183 72.11178452 93.5564183 73.35562134 93.56192017 C78.3479037 93.5529875 83.11683871 93.11810075 88.0625 92.4375 C90.06167047 92.3762509 92.06254774 92.3500006 94.0625 92.375 C95.485625 92.38853516 95.485625 92.38853516 96.9375 92.40234375 C97.63875 92.41394531 98.34 92.42554688 99.0625 92.4375 C97.03824828 96.95313844 94.03609752 100.83623229 91.1640625 104.8359375 C88.82155318 107.84221004 88.82155318 107.84221004 88.0625 111.4375 C86.0825 112.4275 86.0825 112.4275 84.0625 113.4375 C84.0625 114.0975 84.0625 114.7575 84.0625 115.4375 C82.928125 115.56125 81.79375 115.685 80.625 115.8125 C78.8615625 116.121875 78.8615625 116.121875 77.0625 116.4375 C75.5841774 119.39414519 76.00217217 122.17979737 76.0625 125.4375 C76.7225 125.4375 77.3825 125.4375 78.0625 125.4375 C78.0625 126.0975 78.0625 126.7575 78.0625 127.4375 C81.49321316 129.15285658 85.30308819 128.8381478 89.0625 128.4375 C91.5814267 127.11986671 91.5814267 127.11986671 93.0625 125.4375 C92.60423828 123.69726562 92.60423828 123.69726562 92.13671875 121.921875 C91.79071072 119.14156266 91.80769453 117.86338766 93.26025391 115.43554688 C95.04857173 113.41204596 96.91222654 111.54217869 98.875 109.6875 C100.17689633 108.40480568 101.47521461 107.11846728 102.76953125 105.828125 C103.3519458 105.27157227 103.93436035 104.71501953 104.53442383 104.14160156 C106.14274784 102.34800808 107.08839905 100.63064951 108.0625 98.4375 C108.7225 98.7675 109.3825 99.0975 110.0625 99.4375 C110.19527344 100.19417969 110.32804688 100.95085937 110.46484375 101.73046875 C111.18039558 104.97149762 112.38024952 106.34199494 114.625 108.75 C115.26566406 109.44738281 115.90632812 110.14476562 116.56640625 110.86328125 C117.06011719 111.38277344 117.55382812 111.90226562 118.0625 112.4375 C117.72734375 113.00082031 117.3921875 113.56414062 117.046875 114.14453125 C115.90944281 116.79402607 115.95611781 118.28801019 116.3125 121.125 C116.40015625 121.91261719 116.4878125 122.70023437 116.578125 123.51171875 C116.81789063 124.46498047 116.81789063 124.46498047 117.0625 125.4375 C120.29604139 127.0542707 122.49010535 126.91381929 126.0625 126.4375 C129.69772723 123.64241417 131.70970685 120.51663199 133.125 116.1875 C133.29267351 113.48825147 133.29267351 113.48825147 132 111.6875 C129.50064918 110.0750156 126.88040606 109.35638241 124.0625 108.4375 C123.7325 107.7775 123.4025 107.1175 123.0625 106.4375 C122.4025 106.4375 121.7425 106.4375 121.0625 106.4375 C120.6603125 105.385625 120.6603125 105.385625 120.25 104.3125 C118.9943551 101.2725176 117.56014877 98.3647226 116.0625 95.4375 C114.7425 95.4375 113.4225 95.4375 112.0625 95.4375 C113.078125 93.4609375 113.078125 93.4609375 115.0625 91.4375 C117.80007211 91.07535481 120.08547119 90.96487944 122.8125 91.0625 C123.5645874 91.07756592 124.3166748 91.09263184 125.09155273 91.1081543 C143.63765655 91.64727391 143.63765655 91.64727391 150.9375 95.0625 C157.55850698 97.57692437 165.08910354 96.83818134 172.0625 96.4375 C173.31128498 95.39771815 173.31128498 95.39771815 173.3125 93.125 C173.01634058 89.94128623 172.26205664 88.71852171 170.0625 86.4375 C169.0725 86.1075 168.0825 85.7775 167.0625 85.4375 C167.20558594 84.53257812 167.20558594 84.53257812 167.3515625 83.609375 C167.46242188 82.81015625 167.57328125 82.0109375 167.6875 81.1875 C167.80351562 80.39859375 167.91953125 79.6096875 168.0390625 78.796875 C168.06569395 76.11597541 167.42842084 74.71055911 166.0625 72.4375 C161.72065798 72.62214366 161.72065798 72.62214366 158.0625 74.4375 C157.99101801 75.78993917 157.97850546 77.14584367 158 78.5 C158.0309375 80.4490625 158.0309375 80.4490625 158.0625 82.4375 C157.38202103 82.3495668 156.70154205 82.26163361 156.0004425 82.17103577 C140.82485595 80.26911676 125.83141045 79.14905997 110.54296875 78.99609375 C109.75657139 78.98818439 108.97017403 78.98027504 108.15994644 78.97212601 C103.33917761 78.92824571 98.51843604 78.90294417 93.69750977 78.88452148 C87.165398 78.85910978 80.63349856 78.81966129 74.1015873 78.76262093 C71.85267908 78.74652121 69.6039844 78.74254207 67.35502625 78.73960876 C60.62982104 78.70436784 54.50139757 78.49590909 48.0625 76.4375 C46.50166874 76.09643824 44.93948559 75.76138611 43.375 75.4375 C34.80191323 73.4897419 34.80191323 73.4897419 32.4375 70.125 C30.83059023 65.81556015 29.86082694 61.51538961 28.87890625 57.02734375 C28.03566602 53.31950753 27.08199001 49.66318655 26.0625 46 C25.5984375 44.33130859 25.5984375 44.33130859 25.125 42.62890625 C23.37637186 37.37659304 20.85393795 32.89541255 17.6875 28.375 C17.07777344 27.50359375 16.46804688 26.6321875 15.83984375 25.734375 C14.06499939 23.26497241 14.06499939 23.26497241 11.25 21.125 C8.07029011 17.21849927 8.07463236 13.22668144 7.6171875 8.30078125 C7.43414062 7.35589844 7.25109375 6.41101563 7.0625 5.4375 C2.74705002 2.56053335 -2.65225679 2.10453306 -6.9375 5.4375 Z " fill="#1C1C1C" transform="translate(243.9375,153.5625)"/>
<path d="M0 0 C3 1.125 3 1.125 5 3.6875 C9.32001529 7.19751242 13.01420795 6.59726205 18.4296875 6.49609375 C22.01158558 6.23583078 22.01158558 6.23583078 25.37890625 5.11328125 C29.72194312 3.92796482 33.58676641 3.82463072 38.0625 3.875 C38.917229 3.87959229 39.77195801 3.88418457 40.65258789 3.88891602 C51.61101098 4.03859687 63.01807355 4.52413677 73.78515625 6.68359375 C80.82494371 8.0865849 88.40862453 7.17685983 95.53857422 6.76416016 C105.97627002 6.1740504 116.4101612 5.95654549 126.86279297 5.89282227 C128.52755234 5.88101202 130.19228348 5.86398605 131.85693359 5.84155273 C134.22511537 5.81141051 136.59258459 5.80161354 138.9609375 5.796875 C139.6675351 5.78456848 140.37413269 5.77226196 141.10214233 5.75958252 C146.17862453 5.78191008 149.57350682 6.81558656 154 9.125 C155.125 11.0625 155.125 11.0625 156 13.125 C157.65788785 14.46923339 159.32576317 15.80118483 161 17.125 C166.84894313 23.54457172 170.43621605 29.48716048 171.3125 38.25 C170.50377503 48.27818958 165.21584103 59.73516824 158.5 67.25 C153.59544727 70.92841455 147.51979135 70.25205331 141.61328125 70.1875 C140.79796432 70.18371338 139.9826474 70.17992676 139.1426239 70.17602539 C135.69405414 70.15997515 132.245609 70.13260761 128.79711914 70.10449219 C119.32798193 70.03416536 109.89614519 70.09692316 100.43473816 70.52130127 C85.70750233 71.18117987 71.09029734 71.04011423 56.35986328 70.51074219 C52.44729389 70.37314645 48.53447789 70.26017907 44.62109375 70.1484375 C42.09109647 70.06396567 39.56114587 69.97808136 37.03125 69.890625 C35.88217163 69.85922424 34.73309326 69.82782349 33.54919434 69.79547119 C23.3765977 69.39496198 11.83441329 68.06975681 4.34765625 60.44140625 C-1.82681152 52.93844664 -3.0637654 44.33844549 -4.4609375 34.97265625 C-4.94344294 32.42376882 -5.62919869 30.37782463 -6.625 28 C-8.28641092 23.3583262 -8.40171748 18.75701372 -8.5 13.875 C-8.5304541 13.09366699 -8.5609082 12.31233398 -8.59228516 11.50732422 C-8.59503932 7.23378247 -8.35530653 5.58571414 -5.65625 2.0859375 C-3 0.125 -3 0.125 0 0 Z M-2 3.125 C-5.34219637 6.76799404 -5.86682069 9.94781704 -6.19921875 14.7578125 C-5.95003152 18.96956534 -5.0251107 22.72175764 -3.8125 26.75 C-3.60431641 27.46124023 -3.39613281 28.17248047 -3.18164062 28.90527344 C-2.48498439 31.15772482 -2.48498439 31.15772482 -1 34.125 C1.05763303 35.20031087 1.05763303 35.20031087 3 35.125 C3 33.805 3 32.485 3 31.125 C3.99 31.125 4.98 31.125 6 31.125 C6.1546875 30.01125 6.1546875 30.01125 6.3125 28.875 C7.04253504 25.95485982 8.06789398 24.39312446 10 22.125 C9.39050431 26.2695707 7.96084772 29.4386063 6 33.125 C5.690625 33.8675 5.38125 34.61 5.0625 35.375 C3.7196378 37.58677303 2.28882417 38.01750443 0 39.125 C-1.80310102 44.53430306 0.85118344 50.03032809 3 55.125 C4.89597259 57.55165194 6.29919246 58.5397434 9 60.125 C9.66 60.125 10.32 60.125 11 60.125 C11 60.785 11 61.445 11 62.125 C21.26154022 65.59645722 30.67541799 66.20126388 41.4375 66.25 C42.77143799 66.25713013 42.77143799 66.25713013 44.13232422 66.2644043 C45.39520264 66.26114136 45.39520264 66.26114136 46.68359375 66.2578125 C47.82139282 66.25612061 47.82139282 66.25612061 48.98217773 66.25439453 C51.20626495 66.197839 51.20626495 66.197839 54 65.125 C54.20086443 61.40900809 54.1519437 60.35291555 52 57.125 C52.875 54.4375 52.875 54.4375 54 52.125 C53.01 51.135 52.02 50.145 51 49.125 C51.680625 48.568125 52.36125 48.01125 53.0625 47.4375 C55.28097119 45.29246056 55.28097119 45.29246056 55 42.5 C54.20423043 39.98006227 54.20423043 39.98006227 51.9375 38.8125 C51.298125 38.585625 50.65875 38.35875 50 38.125 C50.495 37.135 50.495 37.135 51 36.125 C52.875 36.75 52.875 36.75 55 38.125 C57.27878599 42.7910856 56.96687605 46.11482411 56 51.125 C54.96234078 57.03965756 55.10030096 61.42590287 57 67.125 C58.95486328 67.10953125 58.95486328 67.10953125 60.94921875 67.09375 C65.58771764 67.09375 70.18493274 67.33249253 74.8125 67.625 C81.91885989 68.03528471 89.0067453 68.23457722 96.125 68.25 C97.43174683 68.25676758 97.43174683 68.25676758 98.76489258 68.26367188 C102.69673607 68.64435259 102.69673607 68.64435259 106 67.125 C108.67250538 67.10412105 111.32900188 67.1313335 114 67.1875 C120.31908812 67.26676106 125.88847363 66.90289858 132 65.125 C132.94125778 61.46455306 133.65698407 57.89817527 134 54.125 C133.34 53.135 132.68 52.145 132 51.125 C133.98 48.155 133.98 48.155 136 45.125 C134.02 43.145 134.02 43.145 132 41.125 C133.32 41.455 134.64 41.785 136 42.125 C136.625 44.5 136.625 44.5 137 47.125 C136.01 48.115 136.01 48.115 135 49.125 C135.165 50.218125 135.33 51.31125 135.5 52.4375 C136.03296631 56.36812655 135.48213276 57.6049347 134 61.125 C134.27701774 62.80194665 134.60458862 64.47196076 135 66.125 C146.213767 67.99624647 146.213767 67.99624647 156.609375 64.953125 C163.05860623 58.23794609 167.90754151 47.33286442 169 38.125 C167.48779932 29.66347263 161.28652745 21.7130244 155 16.125 C154.01 15.63 154.01 15.63 153 15.125 C152.61781233 16.78114657 152.28604898 18.44957024 152 20.125 C152.33 20.455 152.66 20.785 153 21.125 C153.2165625 22.73375 153.2165625 22.73375 153.4375 24.375 C153.82799456 28.02222987 153.82799456 28.02222987 155.125 30.8125 C156.11341176 33.42473109 155.95398577 34.54923842 155 37.125 C152.525 37.62 152.525 37.62 150 38.125 C151 36.125 151 36.125 154 34.125 C153.505 33.238125 153.01 32.35125 152.5 31.4375 C151.05621326 28.24913762 150.69840078 26.54312454 151 23.125 C149.68 22.795 148.36 22.465 147 22.125 C148.98 17.67 148.98 17.67 151 13.125 C145.21350937 9.83307915 141.17561486 8.54587548 134.5625 8.734375 C133.79695801 8.74003479 133.03141602 8.74569458 132.24267578 8.75152588 C129.82777979 8.77369165 127.41443777 8.82384461 125 8.875 C123.35028204 8.89509085 121.70054052 8.91333706 120.05078125 8.9296875 C116.03326695 8.97349057 112.01689574 9.04237398 108 9.125 C108 9.785 108 10.445 108 11.125 C108.99 11.8984375 108.99 11.8984375 110 12.6875 C112.61592046 15.87565306 112.36839565 17.90694411 112.23828125 21.90625 C112 24.125 112 24.125 111.41796875 26.25390625 C110.7829888 28.25792357 110.7829888 28.25792357 112 30.5625 C113.20265703 33.64430863 113.24108827 35.06364894 112 38.125 C109.4375 39.4375 109.4375 39.4375 107 40.125 C108.65 38.145 110.3 36.165 112 34.125 C111.484375 33.238125 110.96875 32.35125 110.4375 31.4375 C108.8982735 27.89058677 108.80781918 26.70154245 110 23.125 C110.33 22.465 110.66 21.805 111 21.125 C110.01 21.125 109.02 21.125 108 21.125 C108.33 20.526875 108.66 19.92875 109 19.3125 C110.20787988 17.07113529 110.20787988 17.07113529 110 14.125 C107.17159994 11.10586005 105.50626342 10.18930472 101.37109375 9.6640625 C100.07300781 9.69242188 98.77492188 9.72078125 97.4375 9.75 C96.13683594 9.76289063 94.83617187 9.77578125 93.49609375 9.7890625 C90.3697929 10.08946683 88.60753355 10.46626365 86 12.125 C86.99 13.61 86.99 13.61 88 15.125 C87.67873872 17.75934254 87.18644952 19.75210097 86 22.125 C85.98012522 23.72917883 86.0072121 25.33415101 86.0625 26.9375 C86.10140325 30.78336422 85.97921869 33.7163456 84 37.125 C83.01 37.62 83.01 37.62 82 38.125 C82.350625 37.01125 82.70125 35.8975 83.0625 34.75 C84.37239331 31.32235524 84.37239331 31.32235524 83 29.125 C83.27942455 27.44845271 83.60828247 25.77891846 84 24.125 C83.01 24.125 82.02 24.125 81 24.125 C82.11179163 20.78962511 83.47411298 19.48792656 86 17.125 C85.06231164 14.06991079 85.06231164 14.06991079 83 11.125 C80.19158076 10.27670567 78.0869318 9.88391153 75.21875 9.6640625 C74.45002563 9.58376801 73.68130127 9.50347351 72.88928223 9.42074585 C70.42796038 9.17084665 67.96495857 8.9606349 65.5 8.75 C63.87214879 8.58708532 62.24453837 8.42174521 60.6171875 8.25390625 C52.40218153 7.43603507 44.26393848 6.85612325 36 7.125 C36.495 8.115 36.495 8.115 37 9.125 C37.31337847 14.66135301 36.4386757 18.2476486 34 23.125 C34.185625 23.74375 34.37125 24.3625 34.5625 25 C35 27.125 35 27.125 34.0625 28.875 C32.44610496 32.2979542 32.87464081 35.36422443 33 39.125 C32.01 39.455 31.02 39.785 30 40.125 C29.67 39.795 29.34 39.465 29 39.125 C29.7734375 38.63 29.7734375 38.63 30.5625 38.125 C32.33834722 35.65425604 32.02853971 34.98054407 31.5625 32.0625 C31.2840625 30.1134375 31.2840625 30.1134375 31 28.125 C31.66 27.465 32.32 26.805 33 26.125 C32.6730244 23.50919521 32.17960932 21.48421863 31 19.125 C31.99 19.125 32.98 19.125 34 19.125 C35.4783226 16.16835481 35.06032783 13.38270263 35 10.125 C34.34 10.125 33.68 10.125 33 10.125 C33 9.465 33 8.805 33 8.125 C32.195625 8.23328125 32.195625 8.23328125 31.375 8.34375 C25.8169062 9.00194532 20.27974669 9.28786142 14.6875 9.375 C13.6655957 9.4069043 13.6655957 9.4069043 12.62304688 9.43945312 C8.2150567 9.46979327 5.48757498 8.84391092 2 6.125 C1.34 5.135 0.68 4.145 0 3.125 C-0.66 3.125 -1.32 3.125 -2 3.125 Z " fill="#0F0F0F" transform="translate(433,214.875)"/>
<path d="M0 0 C3.90775207 -0.45438978 5.48900627 -0.40063118 8.640625 2.0703125 C11.48739469 5.60520863 11.72739705 7.70844793 12.0625 12.1875 C12.25855241 15.83145028 12.25855241 15.83145028 13 19 C14.81705621 20.18237022 14.81705621 20.18237022 17 21 C24.59013177 29.67231853 28.63993971 38.76400331 31.38671875 49.8125 C31.79588829 51.95921249 31.79588829 51.95921249 33 53 C33.56344744 55.85227019 34.08134945 58.69631608 34.5625 61.5625 C34.77036133 62.77196289 34.77036133 62.77196289 34.98242188 64.00585938 C35.32517763 66.00329811 35.66304388 68.00157472 36 70 C37.81209723 70.45992316 39.62470361 70.91784036 41.4375 71.375 C42.44683594 71.63023437 43.45617187 71.88546875 44.49609375 72.1484375 C45.65238281 72.42945313 46.80867188 72.71046875 48 73 C49.27053223 73.34192383 50.54106445 73.68384766 51.85009766 74.03613281 C58.16251227 75.42480254 64.46642165 75.27929192 70.90234375 75.2734375 C72.25587703 75.28071885 73.60940382 75.28930874 74.96292114 75.29911804 C77.81708107 75.31940785 80.67122219 75.33614839 83.52542114 75.34988403 C107.87635337 75.47809149 131.92187927 75.95181496 156 80 C156.13148438 78.72125 156.26296875 77.4425 156.3984375 76.125 C156.796875 72.25 156.796875 72.25 158.625 70 C161.96622604 68.59316798 164.41653883 68.54392312 168 69 C170.87721671 71.58949504 171.54016849 74.22938161 172 78 C171.938125 78.825 171.87625 79.65 171.8125 80.5 C172.07238774 83.96516991 173.7322033 85.45731885 176 88 C177.39935013 90.79870027 177.25265405 92.90498792 177 96 C175.90234375 97.6796875 175.90234375 97.6796875 174 99 C170.86328125 99.29296875 170.86328125 99.29296875 167.3125 99.1875 C165.54326172 99.14689453 165.54326172 99.14689453 163.73828125 99.10546875 C162.83464844 99.07066406 161.93101562 99.03585938 161 99 C161 98.34 161 97.68 161 97 C161.78246094 96.93941406 162.56492187 96.87882812 163.37109375 96.81640625 C164.88896484 96.69072266 164.88896484 96.69072266 166.4375 96.5625 C167.44683594 96.48128906 168.45617187 96.40007812 169.49609375 96.31640625 C171.93640779 96.26788532 171.93640779 96.26788532 173 95 C173.29386153 91.27775401 173.14809171 90.22213757 171 87 C168.94996045 85.80767387 168.94996045 85.80767387 167 85 C167.08378906 84.38511719 167.16757812 83.77023438 167.25390625 83.13671875 C167.35574219 82.32847656 167.45757812 81.52023438 167.5625 80.6875 C167.66691406 79.88699219 167.77132812 79.08648437 167.87890625 78.26171875 C168.14755178 75.83182884 168.14755178 75.83182884 167 73 C163.535 73.495 163.535 73.495 160 74 C159.67 76.64 159.34 79.28 159 82 C152.0523842 82.21413884 145.48988028 82.01652114 138.609375 81.01367188 C130.73660135 79.95329218 122.96972344 79.6921284 115.03353882 79.66447449 C112.67756198 79.6559891 110.32193811 79.63532269 107.96606445 79.61193848 C102.12969612 79.55632548 96.29324267 79.52031158 90.45672607 79.48431396 C85.4861368 79.45293986 80.51572948 79.41370705 75.54528809 79.36405945 C73.2388248 79.3441921 70.9325069 79.33572022 68.62597656 79.32775879 C61.79953974 79.27756471 55.53444672 79.10024925 49 77 C47.45984725 76.68012212 45.91846556 76.36599042 44.375 76.0625 C39.44539783 74.94908986 35.36148502 73.9161641 32.3125 69.625 C30.75981671 65.33663662 29.7903283 61.04133042 28.81640625 56.58984375 C27.97316602 52.88200753 27.01949001 49.22568655 26 45.5625 C25.690625 44.45003906 25.38125 43.33757812 25.0625 42.19140625 C23.31387186 36.93909304 20.79143795 32.45791255 17.625 27.9375 C17.01527344 27.06609375 16.40554688 26.1946875 15.77734375 25.296875 C14.00249939 22.82747241 14.00249939 22.82747241 11.1875 20.6875 C7.99170809 16.76124137 7.96167748 12.71226721 7.45703125 7.765625 C7.30621094 6.85296875 7.15539062 5.9403125 7 5 C6.34 4.67 5.68 4.34 5 4 C5 3.34 5 2.68 5 2 C3.02 2 1.04 2 -1 2 C-0.67 1.34 -0.34 0.68 0 0 Z " fill="#161616" transform="translate(243,154)"/>
<path d="M0 0 C2.87721671 2.58949504 3.54016849 5.22938161 4 9 C3.9071875 10.2375 3.9071875 10.2375 3.8125 11.5 C4.07238774 14.96516991 5.7322033 16.45731885 8 19 C9.39935013 21.79870027 9.25265405 23.90498792 9 27 C7.90234375 28.6796875 7.90234375 28.6796875 6 30 C2.86328125 30.29296875 2.86328125 30.29296875 -0.6875 30.1875 C-1.86699219 30.16042969 -3.04648437 30.13335937 -4.26171875 30.10546875 C-5.16535156 30.07066406 -6.06898438 30.03585938 -7 30 C-7 29.34 -7 28.68 -7 28 C-6.21753906 27.93941406 -5.43507813 27.87882812 -4.62890625 27.81640625 C-3.11103516 27.69072266 -3.11103516 27.69072266 -1.5625 27.5625 C-0.55316406 27.48128906 0.45617187 27.40007812 1.49609375 27.31640625 C3.93640779 27.26788532 3.93640779 27.26788532 5 26 C5.29386153 22.27775401 5.14809171 21.22213757 3 18 C0.94996045 16.80767387 0.94996045 16.80767387 -1 16 C-0.91621094 15.38511719 -0.83242188 14.77023438 -0.74609375 14.13671875 C-0.59333984 12.92435547 -0.59333984 12.92435547 -0.4375 11.6875 C-0.33308594 10.88699219 -0.22867188 10.08648437 -0.12109375 9.26171875 C0.14755178 6.83182884 0.14755178 6.83182884 -1 4 C-3.31 4.33 -5.62 4.66 -8 5 C-8.33 7.64 -8.66 10.28 -9 13 C-18.15706133 13.19716161 -27.03411994 12.63289387 -36.125 11.5625 C-38.50251142 11.29215186 -40.88011464 11.0226097 -43.2578125 10.75390625 C-44.95019043 10.56078857 -44.95019043 10.56078857 -46.67675781 10.36376953 C-51.44537693 9.84178581 -56.22043776 9.40813009 -61 9 C-61 8.67 -61 8.34 -61 8 C-44.39428692 7.58697525 -28.42339094 8.49620422 -12 11 C-11.86851562 9.72125 -11.73703125 8.4425 -11.6015625 7.125 C-11.203125 3.25 -11.203125 3.25 -9.375 1 C-6.03377396 -0.40683202 -3.58346117 -0.45607688 0 0 Z " fill="#191919" transform="translate(411,223)"/>
<path d="M0 0 C24.09 0.33 48.18 0.66 73 1 C73 1.33 73 1.66 73 2 C78.61 2.33 84.22 2.66 90 3 C90 3.33 90 3.66 90 4 C81.75735739 4.02345967 73.51472938 4.04108255 65.27206135 4.05181217 C61.44218557 4.05696907 57.61233308 4.06393089 53.7824707 4.07543945 C36.82867853 4.12508843 19.92843161 4.08219956 3 3 C3 4.65 3 6.3 3 8 C2.01 8.495 2.01 8.495 1 9 C-0.79682816 5.19495213 -1.07349791 4.29399165 0 0 Z " fill="#262626" transform="translate(234,246)"/>
<path d="M0 0 C0 4.96857603 -1.33729623 6.1669353 -4.375 10 C-6.93763723 13.25414251 -9.25802673 16.24100505 -11 20 C-13.50161575 23.24283524 -14.64911442 23.92982288 -18.75 24.75 C-19.8225 24.8325 -20.895 24.915 -22 25 C-22.33 26.65 -22.66 28.3 -23 30 C-23.99 30.33 -24.98 30.66 -26 31 C-26.38021028 27.67316008 -26.13267907 26.21943077 -24.375 23.3125 C-22 21 -22 21 -19.21875 20.33203125 C-14.65716283 18.44428704 -12.83755372 15.36771086 -10.125 11.375 C-8.43375 8.94125 -6.7425 6.5075 -5 4 C-15.56 4 -26.12 4 -37 4 C-36.67 3.34 -36.34 2.68 -36 2 C-33.76611328 1.58935547 -33.76611328 1.58935547 -30.8203125 1.3671875 C-29.74523437 1.28339844 -28.67015625 1.19960937 -27.5625 1.11328125 C-26.428125 1.03464844 -25.29375 0.95601562 -24.125 0.875 C-23.02929688 0.78863281 -21.93359375 0.70226562 -20.8046875 0.61328125 C-13.85738464 0.09470296 -6.96540653 -0.11017339 0 0 Z " fill="#181818" transform="translate(343,245)"/>
<path d="M0 0 C1.27230469 0.01804688 2.54460937 0.03609375 3.85546875 0.0546875 C5.31919922 0.08949219 5.31919922 0.08949219 6.8125 0.125 C6.8125 1.115 6.8125 2.105 6.8125 3.125 C5.92046875 3.13917969 5.0284375 3.15335938 4.109375 3.16796875 C2.35367188 3.23951172 2.35367188 3.23951172 0.5625 3.3125 C-1.17773438 3.36470703 -1.17773438 3.36470703 -2.953125 3.41796875 C-6.31685095 3.86382756 -6.31685095 3.86382756 -8.5703125 6.359375 C-11.06618168 10.62767302 -11.21861661 14.32665419 -10.1875 19.125 C-5.76523552 23.90582647 0.61896196 24.2874397 6.8125 25.125 C6.8125 25.785 6.8125 26.445 6.8125 27.125 C-0.43889001 27.66885425 -5.70581255 27.70209546 -11.76171875 23.4140625 C-13.96021379 21.42638206 -14.17827094 20.23590005 -14.42578125 17.26171875 C-14.45027344 16.12347656 -14.47476563 14.98523438 -14.5 13.8125 C-14.53738281 12.68199219 -14.57476562 11.55148438 -14.61328125 10.38671875 C-14.10019709 6.45621161 -12.93598923 4.92301156 -10.1875 2.125 C-6.4507157 -0.36618953 -4.44298181 -0.0815226 0 0 Z " fill="#161616" transform="translate(202.1875,194.875)"/>
<path d="M0 0 C-0.33 0.66 -0.66 1.32 -1 2 C-2.32 2 -3.64 2 -5 2 C-5 2.66 -5 3.32 -5 4 C-4.360625 4.2475 -3.72125 4.495 -3.0625 4.75 C-1 6 -1 6 -0.25 7.6875 C0.16708565 11.54554222 0.47927342 15.37047037 -0.625 19.125 C-1.21518521 21.13431286 -1.21518521 21.13431286 0.0625 23.375 C1 26 1 26 0.4375 29.1875 C-1 32 -1 32 -3.625 33.375 C-4.40875 33.58125 -5.1925 33.7875 -6 34 C-6 31 -6 31 -4 28.8125 C-3.01 27.9153125 -3.01 27.9153125 -2 27 C-2.515625 26.113125 -3.03125 25.22625 -3.5625 24.3125 C-5.08979002 20.79309257 -5.21675714 19.548875 -4 16 C-3.67 15.67 -3.34 15.34 -3 15 C-3.66 14.67 -4.32 14.34 -5 14 C-4.42415568 11.61435923 -3.77772405 9.33317216 -3 7 C-8.60944292 3.85871197 -14.68146331 2.77369837 -21 2 C-20.67 1.34 -20.34 0.68 -20 0 C-17.22949974 -0.1946838 -14.45886998 -0.38102792 -11.6875 -0.5625 C-10.90181641 -0.61857422 -10.11613281 -0.67464844 -9.30664062 -0.73242188 C-8.1706543 -0.80493164 -8.1706543 -0.80493164 -7.01171875 -0.87890625 C-6.31522217 -0.9260376 -5.61872559 -0.97316895 -4.90112305 -1.02172852 C-3 -1 -3 -1 0 0 Z " fill="#030303" transform="translate(546,222)"/>
<path d="M0 0 C1.66519519 0.34060811 3.33157466 0.67558396 5 1 C5 1.33 5 1.66 5 2 C3.95199219 2.12955078 3.95199219 2.12955078 2.8828125 2.26171875 C0.16723354 2.68097952 -2.3819849 3.1620615 -5 4 C-6.75548759 6.18031152 -6.75548759 6.18031152 -7 9 C-7.309375 10.6396875 -7.309375 10.6396875 -7.625 12.3125 C-7.74875 13.199375 -7.8725 14.08625 -8 15 C-15.02639415 15.74805717 -21.93391809 16.13794954 -29 16 C-28.505 14.515 -28.505 14.515 -28 13 C-24.57735681 11.57389867 -20.90120467 11.90098795 -17.25 11.9375 C-15.49429688 11.95103516 -15.49429688 11.95103516 -13.703125 11.96484375 C-12.81109375 11.97644531 -11.9190625 11.98804688 -11 12 C-10.87625 10.9275 -10.7525 9.855 -10.625 8.75 C-9.74712644 3.48275862 -9.74712644 3.48275862 -8 1 C-4.98099193 -1.11330565 -3.42505804 -1.14168601 0 0 Z " fill="#2B2B2B" transform="translate(243,155)"/>
<path d="M0 0 C24.91607643 -0.39357107 24.91607643 -0.39357107 37.16357422 1.28857422 C41.84084667 1.93028365 46.29154161 2.08398588 51 2 C51 2.99 51 3.98 51 5 C42.2021754 5.20867992 33.67173391 4.58363121 24.9375 3.5625 C22.55087441 3.29214512 20.1641566 3.02260292 17.77734375 2.75390625 C16.64280762 2.62516113 15.50827148 2.49641602 14.33935547 2.36376953 C9.56519694 1.84370109 4.78481101 1.40904678 0 1 C0 0.67 0 0.34 0 0 Z " fill="#050505" transform="translate(350,231)"/>
<path d="M0 0 C0.99 0.33 1.98 0.66 3 1 C2.3897536 5.14967549 0.99267393 8.32121736 -1 12 C-1.7115625 13.3921875 -1.7115625 13.3921875 -2.4375 14.8125 C-4 17 -4 17 -6.1875 17.8125 C-6.785625 17.874375 -7.38375 17.93625 -8 18 C-7.67 20.31 -7.34 22.62 -7 25 C-8.32 24.34 -9.64 23.68 -11 23 C-11 19.7 -11 16.4 -11 13 C-8.03 13.495 -8.03 13.495 -5 14 C-5 12.68 -5 11.36 -5 10 C-4.01 10 -3.02 10 -2 10 C-2.226875 9.443125 -2.45375 8.88625 -2.6875 8.3125 C-3.12446199 5.07898125 -1.78001197 3.63441772 0 1 C0 0.67 0 0.34 0 0 Z " fill="#020202" transform="translate(441,236)"/>
<path d="M0 0 C1.27230469 0.01804688 2.54460937 0.03609375 3.85546875 0.0546875 C5.31919922 0.08949219 5.31919922 0.08949219 6.8125 0.125 C6.8125 1.115 6.8125 2.105 6.8125 3.125 C5.49185547 3.14626953 5.49185547 3.14626953 4.14453125 3.16796875 C-3.3327782 3.12490847 -3.3327782 3.12490847 -9.5 6.6875 C-10.056875 7.491875 -10.61375 8.29625 -11.1875 9.125 C-11.5175 8.795 -11.8475 8.465 -12.1875 8.125 C-12.5175 12.085 -12.8475 16.045 -13.1875 20.125 C-13.5175 20.125 -13.8475 20.125 -14.1875 20.125 C-14.29614945 18.06367858 -14.37338321 16.00068679 -14.4375 13.9375 C-14.48390625 12.78894531 -14.5303125 11.64039063 -14.578125 10.45703125 C-14.10940538 6.45885287 -12.98440508 4.95711792 -10.1875 2.125 C-6.4507157 -0.36618953 -4.44298181 -0.0815226 0 0 Z " fill="#252525" transform="translate(202.1875,194.875)"/>
<path d="M0 0 C0.66 0.33 1.32 0.66 2 1 C0.125 5.75 0.125 5.75 -1 8 C-0.7215625 8.928125 -0.7215625 8.928125 -0.4375 9.875 C0 12 0 12 -0.9375 13.75 C-2.55389504 17.1729542 -2.12535919 20.23922443 -2 24 C-3.98 24.99 -3.98 24.99 -6 26 C-6.66 25.34 -7.32 24.68 -8 24 C-7.484375 23.67 -6.96875 23.34 -6.4375 23 C-4.66165278 20.52925604 -4.97146029 19.85554407 -5.4375 16.9375 C-5.623125 15.638125 -5.80875 14.33875 -6 13 C-5.34 12.34 -4.68 11.68 -4 11 C-4.32326553 7.40320934 -4.32326553 7.40320934 -5 4 C-4.01 4 -3.02 4 -2 4 C-1.34 2.68 -0.68 1.36 0 0 Z " fill="#000000" transform="translate(469,230)"/>
<path d="M0 0 C0.33 0 0.66 0 1 0 C1.33 4.95 1.66 9.9 2 15 C2.66 15 3.32 15 4 15 C5.32 19.95 6.64 24.9 8 30 C7.34 30 6.68 30 6 30 C5.505 32.475 5.505 32.475 5 35 C4.67 35 4.34 35 4 35 C3.896875 33.865625 3.79375 32.73125 3.6875 31.5625 C3.32311188 28.47055962 2.63850392 25.98588199 1.4375 23.125 C-1.21119158 15.86038475 -0.22162454 7.60910911 0 0 Z " fill="#1C1C1C" transform="translate(425,220)"/>
<path d="M0 0 C0 3.95738678 -0.71710724 5.74860728 -3 9 C-5.94853027 10.11354069 -8.87855742 10.62045352 -12 11 C-12.33 13.64 -12.66 16.28 -13 19 C-13.33 19 -13.66 19 -14 19 C-14.27615058 17.40012764 -14.52007625 15.794667 -14.75 14.1875 C-14.88921875 13.29417969 -15.0284375 12.40085937 -15.171875 11.48046875 C-15 9 -15 9 -13.234375 7.234375 C-11 6 -11 6 -7.5 5.0625 C-3.84817874 3.9539114 -2.40347482 2.88416978 0 0 Z " fill="#141414" transform="translate(200,260)"/>
<path d="M0 0 C0 0.66 0 1.32 0 2 C-3.13850064 2.92553743 -5.93680778 3.11664647 -9.203125 3.09765625 C-10.1828125 3.09443359 -11.1625 3.09121094 -12.171875 3.08789062 C-13.18765625 3.07951172 -14.2034375 3.07113281 -15.25 3.0625 C-16.796875 3.05573242 -16.796875 3.05573242 -18.375 3.04882812 C-20.91672573 3.03706088 -23.45833319 3.02062011 -26 3 C-25.67 2.34 -25.34 1.68 -25 1 C-22.33349537 0.83031334 -19.66684474 0.66418179 -17 0.5 C-16.25621094 0.45230469 -15.51242187 0.40460938 -14.74609375 0.35546875 C-9.82037776 0.05564256 -4.93485224 -0.04486229 0 0 Z " fill="#000000" transform="translate(332,246)"/>
<path d="M0 0 C0.99 0.33 1.98 0.66 3 1 C3.13277344 2.01320312 3.26554688 3.02640625 3.40234375 4.0703125 C3.58067584 5.42188204 3.75906425 6.77344414 3.9375 8.125 C4.02451172 8.79015625 4.11152344 9.4553125 4.20117188 10.140625 C4.72630558 14.10830188 5.31814014 18.05626998 6 22 C5.01 22.33 4.02 22.66 3 23 C0.41283102 15.1768938 -0.38750039 8.2236194 0 0 Z " fill="#262626" transform="translate(163,210)"/>
<path d="M0 0 C0.20496094 0.78246094 0.40992188 1.56492188 0.62109375 2.37109375 C0.89050781 3.38300781 1.15992188 4.39492187 1.4375 5.4375 C1.83775391 6.95150391 1.83775391 6.95150391 2.24609375 8.49609375 C2.75978077 10.91752001 2.75978077 10.91752001 4 12 C4.25 14.9375 4.25 14.9375 4 18 C3.01 18.66 2.02 19.32 1 20 C-0.64681249 13.69239743 -2.26309887 7.48472993 -3 1 C-1 0 -1 0 0 0 Z " fill="#282828" transform="translate(272,195)"/>
<path d="M0 0 C8.25 0.33 16.5 0.66 25 1 C25 1.66 25 2.32 25 3 C22.33326258 3.02727345 19.66681131 3.04696948 17 3.0625 C15.88431641 3.07506836 15.88431641 3.07506836 14.74609375 3.08789062 C9.73851156 3.10966272 4.95720968 2.71541549 0 2 C0 1.34 0 0.68 0 0 Z " fill="#0B0B0B" transform="translate(193,228)"/>
<path d="M0 0 C3.3 0 6.6 0 10 0 C10 0.33 10 0.66 10 1 C16.6 1.33 23.2 1.66 30 2 C30 2.33 30 2.66 30 3 C19.77 3 9.54 3 -1 3 C-0.67 2.01 -0.34 1.02 0 0 Z " fill="#1F1F1F" transform="translate(546,221)"/>
<path d="M0 0 C0.33 0 0.66 0 1 0 C1.56891054 4.83573957 -0.11578192 7.20931338 -3 11 C-5.52730848 13.98681911 -8.72805628 15.89141405 -12 18 C-10.4628015 14.70270923 -8.57926258 11.79483213 -6.5 8.8125 C-5.8915625 7.93207031 -5.283125 7.05164063 -4.65625 6.14453125 C-3 4 -3 4 -1 3 C-0.67 2.01 -0.34 1.02 0 0 Z " fill="#292929" transform="translate(207,247)"/>
<path d="M0 0 C0.33 0 0.66 0 1 0 C1.02686553 1.97909398 1.04633375 3.95828971 1.0625 5.9375 C1.07410156 7.03964844 1.08570313 8.14179688 1.09765625 9.27734375 C1 12 1 12 0 13 C-0.23287008 14.68183948 -0.41264166 16.3712416 -0.5625 18.0625 C-0.64628906 18.98160156 -0.73007813 19.90070313 -0.81640625 20.84765625 C-0.87699219 21.55792969 -0.93757812 22.26820313 -1 23 C-1.33 23 -1.66 23 -2 23 C-2.05789006 19.54173658 -2.09355821 16.08359707 -2.125 12.625 C-2.14175781 11.64015625 -2.15851563 10.6553125 -2.17578125 9.640625 C-2.18222656 8.69960937 -2.18867188 7.75859375 -2.1953125 6.7890625 C-2.20578613 5.91975098 -2.21625977 5.05043945 -2.22705078 4.15478516 C-2 2 -2 2 0 0 Z " fill="#151515" transform="translate(166,198)"/>
<path d="M0 0 C0.33 0.99 0.66 1.98 1 3 C-1.14419403 7.0707443 -3.7910725 10.36925522 -7.875 12.5 C-8.57625 12.665 -9.2775 12.83 -10 13 C-8.16490101 7.32787586 -4.97304587 3.31536392 0 0 Z " fill="#212121" transform="translate(215,260)"/>
<path d="M0 0 C0.33 0 0.66 0 1 0 C1.125 2.375 1.125 2.375 1 5 C-1 7 -1 7 -4.0390625 7.1953125 C-5.22242188 7.17210937 -6.40578125 7.14890625 -7.625 7.125 C-8.81351562 7.10695312 -10.00203125 7.08890625 -11.2265625 7.0703125 C-12.14179688 7.04710937 -13.05703125 7.02390625 -14 7 C-14 6.34 -14 5.68 -14 5 C-12.86111328 4.96132812 -12.86111328 4.96132812 -11.69921875 4.921875 C-10.20841797 4.83679688 -10.20841797 4.83679688 -8.6875 4.75 C-7.70136719 4.70359375 -6.71523438 4.6571875 -5.69921875 4.609375 C-2.86149964 4.24704536 -2.86149964 4.24704536 -1.20703125 1.953125 C-0.80871094 1.30859375 -0.41039062 0.6640625 0 0 Z " fill="#040404" transform="translate(418,246)"/>
<path d="M0 0 C0 0.33 0 0.66 0 1 C-1.98 1.33 -3.96 1.66 -6 2 C-6 2.66 -6 3.32 -6 4 C-6.99 4.495 -6.99 4.495 -8 5 C-8.46523063 6.89533342 -8.46523063 6.89533342 -8.625 9.0625 C-8.74875 10.361875 -8.8725 11.66125 -9 13 C-9.99 12.34 -10.98 11.68 -12 11 C-11.51714678 3.63648834 -11.51714678 3.63648834 -9.375 1 C-6.17067842 -0.34918804 -3.43707561 -0.19829282 0 0 Z " fill="#252525" transform="translate(411,223)"/>
<path d="M0 0 C-0.33 1.32 -0.66 2.64 -1 4 C-4.3 4 -7.6 4 -11 4 C-10.67 3.01 -10.34 2.02 -10 1 C-6.76421296 -0.31828361 -3.44785988 -0.07836045 0 0 Z " fill="#2D2D2D" transform="translate(225,167)"/>
<path d="M0 0 C0.66 0.66 1.32 1.32 2 2 C1.69903201 6.13830989 1.32101984 8.51847024 -1 12 C-1.66 12 -2.32 12 -3 12 C-2.835 10.906875 -2.67 9.81375 -2.5 8.6875 C-1.93281816 5.12474127 -1.93281816 5.12474127 -2 2 C-1.34 1.34 -0.68 0.68 0 0 Z " fill="#000000" transform="translate(518,241)"/>
<path d="M0 0 C1.47726563 0.30550781 1.47726563 0.30550781 2.984375 0.6171875 C4.10585937 0.86855469 4.10585937 0.86855469 5.25 1.125 C5.25 1.455 5.25 1.785 5.25 2.125 C4.51394531 2.17398438 3.77789062 2.22296875 3.01953125 2.2734375 C1.55580078 2.38558594 1.55580078 2.38558594 0.0625 2.5 C-0.90042969 2.56960937 -1.86335937 2.63921875 -2.85546875 2.7109375 C-5.76508938 3.12715853 -8.07890774 3.92374096 -10.75 5.125 C-10.5 3.25 -10.5 3.25 -9.75 1.125 C-6.32954553 -1.28198648 -3.97395341 -0.85156144 0 0 Z " fill="#2F2F2F" transform="translate(184.75,178.875)"/>
<path d="M0 0 C0.33 1.32 0.66 2.64 1 4 C-2.3 4 -5.6 4 -9 4 C-8.67 3.01 -8.34 2.02 -8 1 C-5.36 0.67 -2.72 0.34 0 0 Z " fill="#080808" transform="translate(233,166)"/>
<path d="M0 0 C2.60334924 2.71182212 2.99456691 3.89133813 3.1875 7.75 C3.125625 8.8225 3.06375 9.895 3 11 C2.67 10.01 2.34 9.02 2 8 C1.34 8 0.68 8 0 8 C-1.0625 6.1875 -1.0625 6.1875 -2 4 C-1 1 -1 1 0 0 Z " fill="#191919" transform="translate(268,188)"/>
<path d="M0 0 C2.97 0.33 5.94 0.66 9 1 C8.67 1.99 8.34 2.98 8 4 C5.36 4 2.72 4 0 4 C0 2.68 0 1.36 0 0 Z " fill="#0D0D0D" transform="translate(206,167)"/>
<path d="M0 0 C1.98 0.99 1.98 0.99 4 2 C4.1875 4.875 4.1875 4.875 4 8 C3.01 8.66 2.02 9.32 1 10 C0.67 6.7 0.34 3.4 0 0 Z " fill="#202020" transform="translate(272,205)"/>
<path d="M0 0 C2.31 0 4.62 0 7 0 C7.33 1.65 7.66 3.3 8 5 C7.01 5.495 7.01 5.495 6 6 C5.67 5.01 5.34 4.02 5 3 C2.03 2.505 2.03 2.505 -1 2 C-0.67 1.34 -0.34 0.68 0 0 Z " fill="#080808" transform="translate(405,224)"/>
<path d="M0 0 C2.29013653 3.4352048 2.17842973 4.985331 2 9 C1.01 9.495 1.01 9.495 0 10 C-0.38922918 8.71254964 -0.76098036 7.41980403 -1.125 6.125 C-1.43824219 5.04605469 -1.43824219 5.04605469 -1.7578125 3.9453125 C-1.83773437 3.30335938 -1.91765625 2.66140625 -2 2 C-1.34 1.34 -0.68 0.68 0 0 Z " fill="#0D0D0D" transform="translate(208,270)"/>
<path d="M0 0 C2.4375 0.8125 2.4375 0.8125 5 2 C5.33 2.99 5.66 3.98 6 5 C3 5 3 5 0.8125 3 C0.214375 2.34 -0.38375 1.68 -1 1 C-0.67 0.67 -0.34 0.34 0 0 Z " fill="#000000" transform="translate(565,255)"/>
<path d="M0 0 C0.33 0 0.66 0 1 0 C1.3125 2.75 1.3125 2.75 1 6 C-1.5 8.375 -1.5 8.375 -4 10 C-4.33 9.34 -4.66 8.68 -5 8 C-4.0409375 7.13375 -4.0409375 7.13375 -3.0625 6.25 C-1.01776132 4.01937599 -0.41794801 2.92563609 0 0 Z " fill="#232323" transform="translate(210,275)"/>
<path d="M0 0 C2.31 0 4.62 0 7 0 C7 0.66 7 1.32 7 2 C4.36 2.33 1.72 2.66 -1 3 C-0.67 2.01 -0.34 1.02 0 0 Z " fill="#0A0A0A" transform="translate(325,246)"/>
<path d="M0 0 C2.56687367 3.8503105 1.83288724 5.58569763 1 10 C0.01 9.67 -0.98 9.34 -2 9 C-1.125 2.25 -1.125 2.25 0 0 Z " fill="#212121" transform="translate(413,227)"/>
<path d="M0 0 C0.99 0 1.98 0 3 0 C2.67 2.31 2.34 4.62 2 7 C1.01 7 0.02 7 -1 7 C-0.67 4.69 -0.34 2.38 0 0 Z " fill="#232323" transform="translate(166,192)"/>
<path d="M0 0 C1.32 0.33 2.64 0.66 4 1 C3.67 1.99 3.34 2.98 3 4 C1.35 4 -0.3 4 -2 4 C-1.34 2.68 -0.68 1.36 0 0 Z " fill="#181818" transform="translate(184,192)"/>
<path d="M0 0 C2.475 0.99 2.475 0.99 5 2 C4.67 2.99 4.34 3.98 4 5 C2.68 5 1.36 5 0 5 C0 3.35 0 1.7 0 0 Z " fill="#252525" transform="translate(228,190)"/>
<path d="M0 0 C0.66 1.32 1.32 2.64 2 4 C-0.97 4 -3.94 4 -7 4 C-6.67 3.34 -6.34 2.68 -6 2 C-4.02 2 -2.04 2 0 2 C0 1.34 0 0.68 0 0 Z " fill="#000000" transform="translate(188,176)"/>
</svg>
