<?xml version="1.0" encoding="UTF-8"?>
<svg version="1.1" xmlns="http://www.w3.org/2000/svg" width="800" height="300">
<path d="M0 0 C264 0 528 0 800 0 C800 99 800 198 800 300 C536 300 272 300 0 300 C0 201 0 102 0 0 Z " fill="#FEFEFE" transform="translate(0,0)"/>
<path d="M0 0 C2.9375 1.375 2.9375 1.375 5 3 C5 3.66 5 4.32 5 5 C5.99 5.33 6.98 5.66 8 6 C9.140625 8.625 9.140625 8.625 10.25 12 C12.24931124 17.51617197 14.58145931 21.44609369 18.30859375 25.921875 C27.98407601 37.80953449 31.73914789 54.06542415 33 69 C33.78117187 69.29777344 34.56234375 69.59554687 35.3671875 69.90234375 C37.96549813 70.98561569 39.78086606 72.29866398 42 74 C44.98859187 74.99619729 47.11505278 75.16648129 50.2421875 75.24609375 C51.84513672 75.29540039 51.84513672 75.29540039 53.48046875 75.34570312 C55.67312382 75.40499817 57.86583064 75.46242273 60.05859375 75.51757812 C66.17144891 75.70883038 72.18365433 76.09903228 78.26197815 76.75440979 C90.85536503 78.10141863 103.28408862 78.17062149 115.9375 78 C140.98911527 77.66632273 140.98911527 77.66632273 153 80 C153.20133545 79.32888184 153.4026709 78.65776367 153.61010742 77.96630859 C155.625 71.25 155.625 71.25 159 69 C162.4375 68.5 162.4375 68.5 166 69 C168.59638668 71.59638668 169.98864837 73.41644722 170.015625 77.1796875 C169.7790576 79.13484747 169.3990155 81.07142507 169 83 C169.598125 83.2475 170.19625 83.495 170.8125 83.75 C173.44496795 85.2542674 174.5540968 86.32507908 176 89 C176.5625 92.5 176.5625 92.5 176 96 C172.61386069 99.56917386 169.86291172 100.27732605 165 100.5 C159.16298829 100.30064851 153.89453995 98.75181641 148.359375 96.97265625 C141.58232864 95.01046492 135.05263663 94.86839599 128.0625 94.9375 C127.18787109 94.94201172 126.31324219 94.94652344 125.41210938 94.95117188 C123.27470953 94.96285166 121.13734537 94.98078311 119 95 C121.08139277 99.19441765 123.21601548 103.22675496 126 107 C129.62176584 108.22267708 129.62176584 108.22267708 133 108 C134.9375 109.125 134.9375 109.125 136 111 C136.6875 114.25 136.6875 114.25 136 118 C132.88286586 121.65108767 129.57142315 124.47619228 125 126 C123.315429 126.11740122 121.62611123 126.17506545 119.9375 126.1875 C119.05964844 126.20167969 118.18179688 126.21585937 117.27734375 126.23046875 C115 126 115 126 113 124 C113.19921875 121.35546875 113.19921875 121.35546875 113.6875 118.1875 C114.28227881 113.22913253 114.28227881 113.22913253 111.875 108.9375 C109.28926043 107.19493638 106.74087264 105.48790229 104 104 C103.90589844 104.56203125 103.81179688 105.1240625 103.71484375 105.703125 C102.8240591 108.56531831 101.41128118 110.39770461 99.5625 112.75 C98.94503906 113.54921875 98.32757813 114.3484375 97.69140625 115.171875 C97.13324219 115.77515625 96.57507813 116.3784375 96 117 C95.34 117 94.68 117 94 117 C93.89042969 117.67546875 93.78085937 118.3509375 93.66796875 119.046875 C93.50941406 119.93890625 93.35085938 120.8309375 93.1875 121.75 C92.96126953 123.07257813 92.96126953 123.07257813 92.73046875 124.421875 C91.93021173 127.24631156 90.99272526 128.85769972 89 131 C85.28372873 132.23875709 81.85505169 132.6851752 78 132 C74.96277803 129.55701712 73.15575567 127.2336335 71 124 C71.13899141 120.17773619 71.45483645 117.76726722 73.6875 114.625 C76.46578975 112.67268829 78.64877744 112.3046566 82 112 C82.0825 111.113125 82.165 110.22625 82.25 109.3125 C83.10202627 105.54938397 84.54800953 103.91173868 87 101 C87.638925 98.91473206 87.638925 98.91473206 88 97 C87.02662186 97.00444122 86.05324371 97.00888245 85.05036926 97.01345825 C75.8274113 97.05419714 66.60447187 97.08407627 57.38144398 97.10362434 C52.64105764 97.11401239 47.90074457 97.12807941 43.16040039 97.15087891 C38.57624795 97.17278641 33.9921655 97.18460595 29.40796471 97.18975449 C27.6686868 97.19341838 25.92941225 97.2005719 24.19016457 97.21146011 C14.23535161 97.27123891 4.80309616 96.93304347 -5 95 C-4.54625 95.99 -4.0925 96.98 -3.625 98 C-1.38684085 103.22944295 0 108.26627989 0 114 C1.11375 114.0825 2.2275 114.165 3.375 114.25 C7 115 7 115 8.5 116.75 C9.17133244 119.77099596 9.17788348 121.08993493 8 124 C4.43406418 127.69074358 1.11031967 130.83117443 -4.125 131.25 C-8.69229743 130.95533565 -11.80080753 129.76808104 -16 128 C-16.1535096 124.16226002 -16.24316283 121.53053709 -14.625 118 C-13.67276804 115.10904666 -13.67276804 115.10904666 -15.02734375 113.24609375 C-16.60210239 111.39084375 -18.25032581 109.69069641 -20 108 C-20.50144531 107.48695313 -21.00289062 106.97390625 -21.51953125 106.4453125 C-22.66225937 105.27953222 -23.82859019 104.13695658 -25 103 C-25 103.66 -25 104.32 -25 105 C-25.9075 105.598125 -26.815 106.19625 -27.75 106.8125 C-31.9372961 109.63087238 -34.23011452 112.84517178 -37 117 C-37.99 117 -38.98 117 -40 117 C-40 117.66 -40 118.32 -40 119 C-39.34 119 -38.68 119 -38 119 C-36.67778712 121.722203 -35.97984176 123.57667699 -36.125 126.625 C-37.2413103 129.65498509 -38.21041381 130.38956455 -41 132 C-44.2421875 132.36328125 -44.2421875 132.36328125 -47.875 132.3125 C-49.06867188 132.30863281 -50.26234375 132.30476562 -51.4921875 132.30078125 C-55.04280263 131.99632984 -57.76140676 131.48710914 -61 130 C-63.16529529 127.13524134 -63.19854987 124.92556544 -62.75 121.4375 C-62.66234375 120.67308594 -62.5746875 119.90867187 -62.484375 119.12109375 C-62 117 -62 117 -60 114 C-58.88625 113.87625 -57.7725 113.7525 -56.625 113.625 C-52.96715797 113.33754816 -52.96715797 113.33754816 -50.875 111 C-48.84605431 107.7536869 -46.95635572 104.45995049 -45.1484375 101.0859375 C-44 99 -44 99 -42 96 C-42.71285156 95.96261719 -43.42570312 95.92523438 -44.16015625 95.88671875 C-50.10209101 95.47886051 -54.56125995 94.56544342 -60 92 C-61.30786251 91.70759172 -62.62088335 91.4375551 -63.9375 91.1875 C-70.00712978 89.76143164 -74.31996026 85.95247862 -78.3125 81.3125 C-83.47206765 71.18445979 -84.81656215 59.43356354 -82.109375 48.35546875 C-78.60378313 37.7522877 -73.42493911 30.68839097 -63.625 25.0625 C-61.77382403 24.31321449 -59.89458521 23.6315284 -58 23 C-58.0825 21.741875 -58.165 20.48375 -58.25 19.1875 C-58.27792719 13.33210011 -56.35718694 8.30130396 -54 3 C-53 2 -53 2 -49.3125 1.6875 C-44.88534477 1.7431375 -42.39396767 3.09088485 -39 6 C-36.64264672 9.21457266 -36.82257311 12.09660847 -37 16 C-35.989375 15.835 -34.97875 15.67 -33.9375 15.5 C-27.33558292 14.65237593 -20.6431304 14.92215082 -14 15 C-13.896875 13.783125 -13.79375 12.56625 -13.6875 11.3125 C-13.21780277 7.57476849 -12.32634716 5.04214629 -10 2 C-6.27420911 -0.48386059 -4.41288598 -0.3804212 0 0 Z " fill="#FCFCFC" transform="translate(245,153)"/>
<path d="M0 0 C3 1.125 3 1.125 5 3.6875 C9.32001529 7.19751242 13.01420795 6.59726205 18.4296875 6.49609375 C22.01158558 6.23583078 22.01158558 6.23583078 25.37890625 5.11328125 C29.72194312 3.92796482 33.58676641 3.82463072 38.0625 3.875 C38.917229 3.87959229 39.77195801 3.88418457 40.65258789 3.88891602 C51.61101098 4.03859687 63.01807355 4.52413677 73.78515625 6.68359375 C80.82494371 8.0865849 88.40862453 7.17685983 95.53857422 6.76416016 C105.97627002 6.1740504 116.4101612 5.95654549 126.86279297 5.89282227 C128.52755234 5.88101202 130.19228348 5.86398605 131.85693359 5.84155273 C134.22511537 5.81141051 136.59258459 5.80161354 138.9609375 5.796875 C139.6675351 5.78456848 140.37413269 5.77226196 141.10214233 5.75958252 C146.17862453 5.78191008 149.57350682 6.81558656 154 9.125 C155.125 11.0625 155.125 11.0625 156 13.125 C157.65788785 14.46923339 159.32576317 15.80118483 161 17.125 C166.84894313 23.54457172 170.43621605 29.48716048 171.3125 38.25 C170.50377503 48.27818958 165.21584103 59.73516824 158.5 67.25 C153.59544727 70.92841455 147.51979135 70.25205331 141.61328125 70.1875 C140.79796432 70.18371338 139.9826474 70.17992676 139.1426239 70.17602539 C135.69405414 70.15997515 132.245609 70.13260761 128.79711914 70.10449219 C119.32798193 70.03416536 109.89614519 70.09692316 100.43473816 70.52130127 C85.70750233 71.18117987 71.09029734 71.04011423 56.35986328 70.51074219 C52.44729389 70.37314645 48.53447789 70.26017907 44.62109375 70.1484375 C42.09109647 70.06396567 39.56114587 69.97808136 37.03125 69.890625 C35.88217163 69.85922424 34.73309326 69.82782349 33.54919434 69.79547119 C23.3765977 69.39496198 11.83441329 68.06975681 4.34765625 60.44140625 C-1.82681152 52.93844664 -3.0637654 44.33844549 -4.4609375 34.97265625 C-4.94344294 32.42376882 -5.62919869 30.37782463 -6.625 28 C-8.28641092 23.3583262 -8.40171748 18.75701372 -8.5 13.875 C-8.5304541 13.09366699 -8.5609082 12.31233398 -8.59228516 11.50732422 C-8.59503932 7.23378247 -8.35530653 5.58571414 -5.65625 2.0859375 C-3 0.125 -3 0.125 0 0 Z " fill="#646464" transform="translate(433,214.875)"/>
<path d="M0 0 C3 1.125 3 1.125 5 3.6875 C9.32001529 7.19751242 13.01420795 6.59726205 18.4296875 6.49609375 C22.01158558 6.23583078 22.01158558 6.23583078 25.37890625 5.11328125 C29.72194312 3.92796482 33.58676641 3.82463072 38.0625 3.875 C38.917229 3.87959229 39.77195801 3.88418457 40.65258789 3.88891602 C51.61101098 4.03859687 63.01807355 4.52413677 73.78515625 6.68359375 C80.82494371 8.0865849 88.40862453 7.17685983 95.53857422 6.76416016 C105.97627002 6.1740504 116.4101612 5.95654549 126.86279297 5.89282227 C128.52755234 5.88101202 130.19228348 5.86398605 131.85693359 5.84155273 C134.22511537 5.81141051 136.59258459 5.80161354 138.9609375 5.796875 C139.6675351 5.78456848 140.37413269 5.77226196 141.10214233 5.75958252 C146.17862453 5.78191008 149.57350682 6.81558656 154 9.125 C155.125 11.0625 155.125 11.0625 156 13.125 C157.65788785 14.46923339 159.32576317 15.80118483 161 17.125 C166.84894313 23.54457172 170.43621605 29.48716048 171.3125 38.25 C170.50377503 48.27818958 165.21584103 59.73516824 158.5 67.25 C153.59544727 70.92841455 147.51979135 70.25205331 141.61328125 70.1875 C140.79796432 70.18371338 139.9826474 70.17992676 139.1426239 70.17602539 C135.69405414 70.15997515 132.245609 70.13260761 128.79711914 70.10449219 C119.32798193 70.03416536 109.89614519 70.09692316 100.43473816 70.52130127 C85.70750233 71.18117987 71.09029734 71.04011423 56.35986328 70.51074219 C52.44729389 70.37314645 48.53447789 70.26017907 44.62109375 70.1484375 C42.09109647 70.06396567 39.56114587 69.97808136 37.03125 69.890625 C35.88217163 69.85922424 34.73309326 69.82782349 33.54919434 69.79547119 C23.3765977 69.39496198 11.83441329 68.06975681 4.34765625 60.44140625 C-1.82681152 52.93844664 -3.0637654 44.33844549 -4.4609375 34.97265625 C-4.94344294 32.42376882 -5.62919869 30.37782463 -6.625 28 C-8.28641092 23.3583262 -8.40171748 18.75701372 -8.5 13.875 C-8.5304541 13.09366699 -8.5609082 12.31233398 -8.59228516 11.50732422 C-8.59503932 7.23378247 -8.35530653 5.58571414 -5.65625 2.0859375 C-3 0.125 -3 0.125 0 0 Z M-2 3.125 C-5.34219637 6.76799404 -5.86682069 9.94781704 -6.19921875 14.7578125 C-5.95003152 18.96956534 -5.0251107 22.72175764 -3.8125 26.75 C-3.60431641 27.46124023 -3.39613281 28.17248047 -3.18164062 28.90527344 C-2.48498439 31.15772482 -2.48498439 31.15772482 -1 34.125 C1.05763303 35.20031087 1.05763303 35.20031087 3 35.125 C3 33.805 3 32.485 3 31.125 C3.99 31.125 4.98 31.125 6 31.125 C6.1546875 30.01125 6.1546875 30.01125 6.3125 28.875 C7.04253504 25.95485982 8.06789398 24.39312446 10 22.125 C9.39050431 26.2695707 7.96084772 29.4386063 6 33.125 C5.690625 33.8675 5.38125 34.61 5.0625 35.375 C3.7196378 37.58677303 2.28882417 38.01750443 0 39.125 C-1.80310102 44.53430306 0.85118344 50.03032809 3 55.125 C4.89597259 57.55165194 6.29919246 58.5397434 9 60.125 C9.66 60.125 10.32 60.125 11 60.125 C11 60.785 11 61.445 11 62.125 C21.26154022 65.59645722 30.67541799 66.20126388 41.4375 66.25 C42.77143799 66.25713013 42.77143799 66.25713013 44.13232422 66.2644043 C45.39520264 66.26114136 45.39520264 66.26114136 46.68359375 66.2578125 C47.82139282 66.25612061 47.82139282 66.25612061 48.98217773 66.25439453 C51.20626495 66.197839 51.20626495 66.197839 54 65.125 C54.20086443 61.40900809 54.1519437 60.35291555 52 57.125 C52.875 54.4375 52.875 54.4375 54 52.125 C53.01 51.135 52.02 50.145 51 49.125 C51.680625 48.568125 52.36125 48.01125 53.0625 47.4375 C55.28097119 45.29246056 55.28097119 45.29246056 55 42.5 C54.20423043 39.98006227 54.20423043 39.98006227 51.9375 38.8125 C51.298125 38.585625 50.65875 38.35875 50 38.125 C50.495 37.135 50.495 37.135 51 36.125 C52.875 36.75 52.875 36.75 55 38.125 C57.27878599 42.7910856 56.96687605 46.11482411 56 51.125 C54.96234078 57.03965756 55.10030096 61.42590287 57 67.125 C58.95486328 67.10953125 58.95486328 67.10953125 60.94921875 67.09375 C65.58771764 67.09375 70.18493274 67.33249253 74.8125 67.625 C81.91885989 68.03528471 89.0067453 68.23457722 96.125 68.25 C97.43174683 68.25676758 97.43174683 68.25676758 98.76489258 68.26367188 C102.69673607 68.64435259 102.69673607 68.64435259 106 67.125 C108.67250538 67.10412105 111.32900188 67.1313335 114 67.1875 C120.31908812 67.26676106 125.88847363 66.90289858 132 65.125 C132.94125778 61.46455306 133.65698407 57.89817527 134 54.125 C133.34 53.135 132.68 52.145 132 51.125 C133.98 48.155 133.98 48.155 136 45.125 C134.02 43.145 134.02 43.145 132 41.125 C133.32 41.455 134.64 41.785 136 42.125 C136.625 44.5 136.625 44.5 137 47.125 C136.01 48.115 136.01 48.115 135 49.125 C135.165 50.218125 135.33 51.31125 135.5 52.4375 C136.03296631 56.36812655 135.48213276 57.6049347 134 61.125 C134.27701774 62.80194665 134.60458862 64.47196076 135 66.125 C146.213767 67.99624647 146.213767 67.99624647 156.609375 64.953125 C163.05860623 58.23794609 167.90754151 47.33286442 169 38.125 C167.48779932 29.66347263 161.28652745 21.7130244 155 16.125 C154.01 15.63 154.01 15.63 153 15.125 C152.61781233 16.78114657 152.28604898 18.44957024 152 20.125 C152.33 20.455 152.66 20.785 153 21.125 C153.2165625 22.73375 153.2165625 22.73375 153.4375 24.375 C153.82799456 28.02222987 153.82799456 28.02222987 155.125 30.8125 C156.11341176 33.42473109 155.95398577 34.54923842 155 37.125 C152.525 37.62 152.525 37.62 150 38.125 C151 36.125 151 36.125 154 34.125 C153.505 33.238125 153.01 32.35125 152.5 31.4375 C151.05621326 28.24913762 150.69840078 26.54312454 151 23.125 C149.68 22.795 148.36 22.465 147 22.125 C148.98 17.67 148.98 17.67 151 13.125 C145.21350937 9.83307915 141.17561486 8.54587548 134.5625 8.734375 C133.79695801 8.74003479 133.03141602 8.74569458 132.24267578 8.75152588 C129.82777979 8.77369165 127.41443777 8.82384461 125 8.875 C123.35028204 8.89509085 121.70054052 8.91333706 120.05078125 8.9296875 C116.03326695 8.97349057 112.01689574 9.04237398 108 9.125 C108 9.785 108 10.445 108 11.125 C108.99 11.8984375 108.99 11.8984375 110 12.6875 C112.61592046 15.87565306 112.36839565 17.90694411 112.23828125 21.90625 C112 24.125 112 24.125 111.41796875 26.25390625 C110.7829888 28.25792357 110.7829888 28.25792357 112 30.5625 C113.20265703 33.64430863 113.24108827 35.06364894 112 38.125 C109.4375 39.4375 109.4375 39.4375 107 40.125 C108.65 38.145 110.3 36.165 112 34.125 C111.484375 33.238125 110.96875 32.35125 110.4375 31.4375 C108.8982735 27.89058677 108.80781918 26.70154245 110 23.125 C110.33 22.465 110.66 21.805 111 21.125 C110.01 21.125 109.02 21.125 108 21.125 C108.33 20.526875 108.66 19.92875 109 19.3125 C110.20787988 17.07113529 110.20787988 17.07113529 110 14.125 C107.17159994 11.10586005 105.50626342 10.18930472 101.37109375 9.6640625 C100.07300781 9.69242188 98.77492188 9.72078125 97.4375 9.75 C96.13683594 9.76289063 94.83617187 9.77578125 93.49609375 9.7890625 C90.3697929 10.08946683 88.60753355 10.46626365 86 12.125 C86.99 13.61 86.99 13.61 88 15.125 C87.67873872 17.75934254 87.18644952 19.75210097 86 22.125 C85.98012522 23.72917883 86.0072121 25.33415101 86.0625 26.9375 C86.10140325 30.78336422 85.97921869 33.7163456 84 37.125 C83.01 37.62 83.01 37.62 82 38.125 C82.350625 37.01125 82.70125 35.8975 83.0625 34.75 C84.37239331 31.32235524 84.37239331 31.32235524 83 29.125 C83.27942455 27.44845271 83.60828247 25.77891846 84 24.125 C83.01 24.125 82.02 24.125 81 24.125 C82.11179163 20.78962511 83.47411298 19.48792656 86 17.125 C85.06231164 14.06991079 85.06231164 14.06991079 83 11.125 C80.19158076 10.27670567 78.0869318 9.88391153 75.21875 9.6640625 C74.45002563 9.58376801 73.68130127 9.50347351 72.88928223 9.42074585 C70.42796038 9.17084665 67.96495857 8.9606349 65.5 8.75 C63.87214879 8.58708532 62.24453837 8.42174521 60.6171875 8.25390625 C52.40218153 7.43603507 44.26393848 6.85612325 36 7.125 C36.495 8.115 36.495 8.115 37 9.125 C37.31337847 14.66135301 36.4386757 18.2476486 34 23.125 C34.185625 23.74375 34.37125 24.3625 34.5625 25 C35 27.125 35 27.125 34.0625 28.875 C32.44610496 32.2979542 32.87464081 35.36422443 33 39.125 C32.01 39.455 31.02 39.785 30 40.125 C29.67 39.795 29.34 39.465 29 39.125 C29.7734375 38.63 29.7734375 38.63 30.5625 38.125 C32.33834722 35.65425604 32.02853971 34.98054407 31.5625 32.0625 C31.2840625 30.1134375 31.2840625 30.1134375 31 28.125 C31.66 27.465 32.32 26.805 33 26.125 C32.6730244 23.50919521 32.17960932 21.48421863 31 19.125 C31.99 19.125 32.98 19.125 34 19.125 C35.4783226 16.16835481 35.06032783 13.38270263 35 10.125 C34.34 10.125 33.68 10.125 33 10.125 C33 9.465 33 8.805 33 8.125 C32.195625 8.23328125 32.195625 8.23328125 31.375 8.34375 C25.8169062 9.00194532 20.27974669 9.28786142 14.6875 9.375 C13.6655957 9.4069043 13.6655957 9.4069043 12.62304688 9.43945312 C8.2150567 9.46979327 5.48757498 8.84391092 2 6.125 C1.34 5.135 0.68 4.145 0 3.125 C-0.66 3.125 -1.32 3.125 -2 3.125 Z " fill="#0F0F0F" transform="translate(433,214.875)"/>
<path d="M0 0 C2.9375 1.375 2.9375 1.375 5 3 C5 3.66 5 4.32 5 5 C5.99 5.33 6.98 5.66 8 6 C9.140625 8.625 9.140625 8.625 10.25 12 C12.24931124 17.51617197 14.58145931 21.44609369 18.30859375 25.921875 C27.98407601 37.80953449 31.73914789 54.06542415 33 69 C33.78117187 69.29777344 34.56234375 69.59554687 35.3671875 69.90234375 C37.96549813 70.98561569 39.78086606 72.29866398 42 74 C44.98859187 74.99619729 47.11505278 75.16648129 50.2421875 75.24609375 C51.84513672 75.29540039 51.84513672 75.29540039 53.48046875 75.34570312 C55.67312382 75.40499817 57.86583064 75.46242273 60.05859375 75.51757812 C66.17144891 75.70883038 72.18365433 76.09903228 78.26197815 76.75440979 C90.85536503 78.10141863 103.28408862 78.17062149 115.9375 78 C140.98911527 77.66632273 140.98911527 77.66632273 153 80 C153.20133545 79.32888184 153.4026709 78.65776367 153.61010742 77.96630859 C155.625 71.25 155.625 71.25 159 69 C162.4375 68.5 162.4375 68.5 166 69 C168.59638668 71.59638668 169.98864837 73.41644722 170.015625 77.1796875 C169.7790576 79.13484747 169.3990155 81.07142507 169 83 C169.598125 83.2475 170.19625 83.495 170.8125 83.75 C173.44496795 85.2542674 174.5540968 86.32507908 176 89 C176.3125 92.625 176.3125 92.625 176 96 C174 98 174 98 171.375 98.125 C170.59125 98.08375 169.8075 98.0425 169 98 C169.33 97.01 169.66 96.02 170 95 C170.99 95 171.98 95 173 95 C172.28564795 90.2036919 172.28564795 90.2036919 169.30859375 86.64453125 C167.58340249 85.67912119 165.79400985 84.83056012 164 84 C164.23396484 83.06027344 164.23396484 83.06027344 164.47265625 82.1015625 C164.76462891 80.87566406 164.76462891 80.87566406 165.0625 79.625 C165.25972656 78.81289062 165.45695313 78.00078125 165.66015625 77.1640625 C166.22109319 74.95838716 166.22109319 74.95838716 165 73 C162.69 73 160.38 73 158 73 C157.9175 74.27875 157.835 75.5575 157.75 76.875 C157.609375 79.0546875 157.609375 79.0546875 157 81 C153.59376197 83.34181989 151.02041175 83.06249802 147.00390625 82.6484375 C139.65715435 82.00815438 132.33723587 81.860387 124.96484375 81.7890625 C122.5183915 81.76265355 120.07193969 81.73620393 117.62548828 81.7097168 C116.36867249 81.69645355 115.11185669 81.68319031 113.81695557 81.66952515 C94.72720709 81.45042898 75.6671937 81.11506911 56.625 79.6875 C55.84067596 79.63450745 55.05635193 79.58151489 54.2482605 79.5269165 C52.07212259 79.37569076 49.89985236 79.19907272 47.7265625 79.01171875 C46.53627441 78.91334717 45.34598633 78.81497559 44.11962891 78.71362305 C40.48884921 77.88307296 38.763933 76.43662125 36 74 C34.95199219 73.62230469 33.90398437 73.24460937 32.82421875 72.85546875 C29.58969724 70.73043733 29.47196559 70.21587047 28.64453125 66.61328125 C28.34082 64.85069498 28.06436674 63.08323827 27.8125 61.3125 C26.78325168 54.82584199 25.48650734 49.09259391 23 43 C22.70738281 42.14792969 22.41476562 41.29585937 22.11328125 40.41796875 C19.34043174 32.6945684 14.94014758 24.62676506 8 20 C7.2265625 17.57421875 7.2265625 17.57421875 6.625 14.6875 C5.40032026 9.85223593 4.29325791 6.89545301 0 4 C-3.08681086 3.16600125 -3.08681086 3.16600125 -6 4 C-9.25824681 7.93236684 -10 11.99983601 -10 17 C-10.6297876 17.05534912 -11.2595752 17.11069824 -11.90844727 17.16772461 C-14.79330688 17.42237236 -17.67790132 17.67991392 -20.5625 17.9375 C-21.55314453 18.02451172 -22.54378906 18.11152344 -23.56445312 18.20117188 C-28.73763531 18.66521147 -33.86752079 19.20097448 -39 20 C-39.18175781 19.15695313 -39.36351562 18.31390625 -39.55078125 17.4453125 C-39.80214844 16.34960938 -40.05351562 15.25390625 -40.3125 14.125 C-40.55613281 13.03445312 -40.79976562 11.94390625 -41.05078125 10.8203125 C-41.77902058 7.70557647 -41.77902058 7.70557647 -45 6 C-48.12521833 5.83300768 -48.12521833 5.83300768 -51 6 C-54.13902852 12.80122845 -54.33452052 18.56621057 -54 26 C-54.73605469 26.24234375 -55.47210938 26.4846875 -56.23046875 26.734375 C-65.73772329 29.99974644 -71.56908175 34.11842586 -76.75 43 C-80.73508043 52.56419304 -80.35847092 65.246649 -76.91015625 74.91796875 C-74.35248217 80.76878541 -71.43035743 83.74813684 -66 87 C-63.44401706 87.98642412 -60.98979416 88.8512667 -58.375 89.625 C-57.68148437 89.83664795 -56.98796875 90.0482959 -56.2734375 90.26635742 C-50.26337062 92.04300058 -44.21868682 93.21088633 -38 94 C-38 98.29182103 -38.20358855 98.71772766 -40.75 101.8125 C-42.78692676 104.38017528 -44.57284518 106.86299204 -46.125 109.75 C-47.88387677 112.79871973 -49.21528946 114.87051547 -52 117 C-53.9896995 117.39013716 -55.99019869 117.73202649 -58 118 C-59.36952673 120.73905345 -59.12621361 122.97087332 -59 126 C-58.505 126.99 -58.505 126.99 -58 128 C-55.5622037 128.05397335 -53.12560315 128.09365616 -50.6875 128.125 C-49.65206055 128.15013672 -49.65206055 128.15013672 -48.59570312 128.17578125 C-44.82864604 128.21217794 -43.21568296 128.14378864 -40 126 C-40.27034634 123.56282742 -40.27034634 123.56282742 -41 121 C-41.99 120.34 -42.98 119.68 -44 119 C-43.505 117.515 -43.505 117.515 -43 116 C-40.03984568 117.48007716 -38.30316493 118.47635149 -36.625 121.375 C-35.90017321 124.41927252 -35.91818531 126.06364585 -37 129 C-39.42723402 131.43306872 -40.78662396 131.9760916 -44.2421875 132.36328125 C-46.04042969 132.33814453 -46.04042969 132.33814453 -47.875 132.3125 C-49.06867188 132.30863281 -50.26234375 132.30476562 -51.4921875 132.30078125 C-55.04280263 131.99632984 -57.76140676 131.48710914 -61 130 C-63.16529529 127.13524134 -63.19854987 124.92556544 -62.75 121.4375 C-62.66234375 120.67308594 -62.5746875 119.90867187 -62.484375 119.12109375 C-62 117 -62 117 -60 114 C-58.88625 113.87625 -57.7725 113.7525 -56.625 113.625 C-52.96715797 113.33754816 -52.96715797 113.33754816 -50.875 111 C-48.84605431 107.7536869 -46.95635572 104.45995049 -45.1484375 101.0859375 C-44 99 -44 99 -42 96 C-42.71285156 95.96261719 -43.42570312 95.92523438 -44.16015625 95.88671875 C-50.10209101 95.47886051 -54.56125995 94.56544342 -60 92 C-61.30786251 91.70759172 -62.62088335 91.4375551 -63.9375 91.1875 C-70.00712978 89.76143164 -74.31996026 85.95247862 -78.3125 81.3125 C-83.47206765 71.18445979 -84.81656215 59.43356354 -82.109375 48.35546875 C-78.60378313 37.7522877 -73.42493911 30.68839097 -63.625 25.0625 C-61.77382403 24.31321449 -59.89458521 23.6315284 -58 23 C-58.0825 21.741875 -58.165 20.48375 -58.25 19.1875 C-58.27792719 13.33210011 -56.35718694 8.30130396 -54 3 C-53 2 -53 2 -49.3125 1.6875 C-44.88534477 1.7431375 -42.39396767 3.09088485 -39 6 C-36.64264672 9.21457266 -36.82257311 12.09660847 -37 16 C-35.989375 15.835 -34.97875 15.67 -33.9375 15.5 C-27.33558292 14.65237593 -20.6431304 14.92215082 -14 15 C-13.896875 13.783125 -13.79375 12.56625 -13.6875 11.3125 C-13.21780277 7.57476849 -12.32634716 5.04214629 -10 2 C-6.27420911 -0.48386059 -4.41288598 -0.3804212 0 0 Z " fill="#191919" transform="translate(245,153)"/>
<path d="M0 0 C14.00156133 -0.57012346 27.71156509 3.66856069 40.82421875 8.2421875 C40.82421875 8.5721875 40.82421875 8.9021875 40.82421875 9.2421875 C33.41134211 9.85708049 27.2765926 8.46528728 20.21875 6.21484375 C13.42380994 4.26784712 6.89114812 4.11044219 -0.11328125 4.1796875 C-0.98791016 4.18419922 -1.86253906 4.18871094 -2.76367188 4.19335938 C-4.90107172 4.20503916 -7.03843588 4.22297061 -9.17578125 4.2421875 C-7.09438848 8.43660515 -4.95976577 12.46894246 -2.17578125 16.2421875 C1.44598459 17.46486458 1.44598459 17.46486458 4.82421875 17.2421875 C6.76171875 18.3671875 6.76171875 18.3671875 7.82421875 20.2421875 C8.51171875 23.4921875 8.51171875 23.4921875 7.82421875 27.2421875 C4.70708461 30.89327517 1.3956419 33.71837978 -3.17578125 35.2421875 C-4.86035225 35.35958872 -6.54967002 35.41725295 -8.23828125 35.4296875 C-9.11613281 35.44386719 -9.99398437 35.45804687 -10.8984375 35.47265625 C-13.17578125 35.2421875 -13.17578125 35.2421875 -15.17578125 33.2421875 C-14.9765625 30.59765625 -14.9765625 30.59765625 -14.48828125 27.4296875 C-13.89350244 22.47132003 -13.89350244 22.47132003 -16.30078125 18.1796875 C-18.88652082 16.43712388 -21.43490861 14.73008979 -24.17578125 13.2421875 C-24.26988281 13.80421875 -24.36398437 14.36625 -24.4609375 14.9453125 C-25.35172215 17.80750581 -26.76450007 19.63989211 -28.61328125 21.9921875 C-29.23074219 22.79140625 -29.84820312 23.590625 -30.484375 24.4140625 C-31.32162109 25.31898438 -31.32162109 25.31898438 -32.17578125 26.2421875 C-32.83578125 26.2421875 -33.49578125 26.2421875 -34.17578125 26.2421875 C-34.28535156 26.91765625 -34.39492188 27.593125 -34.5078125 28.2890625 C-34.66636719 29.18109375 -34.82492187 30.073125 -34.98828125 30.9921875 C-35.21451172 32.31476563 -35.21451172 32.31476563 -35.4453125 33.6640625 C-36.24556952 36.48849906 -37.18305599 38.09988722 -39.17578125 40.2421875 C-42.89205252 41.48094459 -46.32072956 41.9273627 -50.17578125 41.2421875 C-53.21300322 38.79920462 -55.02002558 36.475821 -57.17578125 33.2421875 C-57.03678984 29.41992369 -56.7209448 27.00945472 -54.48828125 23.8671875 C-51.7099915 21.91487579 -49.52700381 21.5468441 -46.17578125 21.2421875 C-46.09328125 20.3553125 -46.01078125 19.4684375 -45.92578125 18.5546875 C-45.07375498 14.79157147 -43.62777172 13.15392618 -41.17578125 10.2421875 C-40.53685625 8.15691956 -40.53685625 8.15691956 -40.17578125 6.2421875 C-41.14915939 6.24662872 -42.12253754 6.25106995 -43.12541199 6.25564575 C-52.34836995 6.29638464 -61.57130938 6.32626377 -70.79433727 6.34581184 C-75.53472361 6.35619989 -80.27503668 6.37026691 -85.01538086 6.39306641 C-89.5995333 6.41497391 -94.18361575 6.42679345 -98.76781654 6.43194199 C-100.50709445 6.43560588 -102.246369 6.4427594 -103.98561668 6.45364761 C-113.94042964 6.51342641 -123.37268509 6.17523097 -133.17578125 4.2421875 C-132.49515625 5.7271875 -132.49515625 5.7271875 -131.80078125 7.2421875 C-129.5626221 12.47163045 -128.17578125 17.50846739 -128.17578125 23.2421875 C-126.50515625 23.3659375 -126.50515625 23.3659375 -124.80078125 23.4921875 C-121.17578125 24.2421875 -121.17578125 24.2421875 -119.67578125 25.9921875 C-119.00444881 29.01318346 -118.99789777 30.33212243 -120.17578125 33.2421875 C-123.74171707 36.93293108 -127.06546158 40.07336193 -132.30078125 40.4921875 C-136.86807868 40.19752315 -139.97658878 39.01026854 -144.17578125 37.2421875 C-144.32929085 33.40444752 -144.41894408 30.77272459 -142.80078125 27.2421875 C-141.84854929 24.35123416 -141.84854929 24.35123416 -143.203125 22.48828125 C-144.77788364 20.63303125 -146.42610706 18.93288391 -148.17578125 17.2421875 C-148.67722656 16.72914063 -149.17867187 16.21609375 -149.6953125 15.6875 C-150.83804062 14.52171972 -152.00437144 13.37914408 -153.17578125 12.2421875 C-153.17578125 12.9021875 -153.17578125 13.5621875 -153.17578125 14.2421875 C-154.08328125 14.8403125 -154.99078125 15.4384375 -155.92578125 16.0546875 C-160.11307735 18.87305988 -162.40589577 22.08735928 -165.17578125 26.2421875 C-166.16578125 26.2421875 -167.15578125 26.2421875 -168.17578125 26.2421875 C-167.54060186 20.73729949 -163.140303 16.9316378 -159.05078125 13.6171875 C-156.60991255 11.60081771 -154.91587765 9.8523321 -153.17578125 7.2421875 C-151.42578125 7.3046875 -151.42578125 7.3046875 -149.17578125 8.2421875 C-148.13396058 9.93514609 -147.10030394 11.63663034 -146.1796875 13.3984375 C-144.42593256 16.61934152 -142.23590119 19.40140272 -139.36328125 21.6796875 C-138.17578125 23.2421875 -138.17578125 23.2421875 -138.42578125 26.0546875 C-138.67328125 27.1065625 -138.92078125 28.1584375 -139.17578125 29.2421875 C-139.36140625 30.3559375 -139.54703125 31.4696875 -139.73828125 32.6171875 C-139.88265625 33.4834375 -140.02703125 34.3496875 -140.17578125 35.2421875 C-136.45962093 36.4313588 -133.05480623 36.58245285 -129.17578125 36.2421875 C-126.26222016 34.46871553 -124.60758561 33.29085524 -123.30078125 30.1171875 C-123.01092661 28.15046387 -123.01092661 28.15046387 -124.17578125 26.2421875 C-125.305 26.02304687 -126.43421875 25.80390625 -127.59765625 25.578125 C-128.7784375 25.13726562 -129.95921875 24.69640625 -131.17578125 24.2421875 C-132.34141624 21.56624051 -132.93775198 19.66805115 -133.42578125 16.8671875 C-134.36606761 11.63838499 -134.36606761 11.63838499 -136.84765625 7.015625 C-137.2859375 6.43039063 -137.72421875 5.84515625 -138.17578125 5.2421875 C-137.75878906 3.13134766 -137.75878906 3.13134766 -137.17578125 1.2421875 C-136.50164027 1.31305793 -135.82749929 1.38392836 -135.1329298 1.45694637 C-128.67889181 2.09554309 -122.32190254 2.38201404 -115.83911133 2.35571289 C-114.87190155 2.35585892 -113.90469177 2.35600494 -112.90817261 2.3561554 C-109.753862 2.35546619 -106.59961261 2.34772092 -103.4453125 2.33984375 C-101.24142997 2.33797604 -99.03754703 2.3365538 -96.83366394 2.33555603 C-91.06504141 2.33175867 -85.29644451 2.32195246 -79.52783203 2.31085205 C-73.62858425 2.30057781 -67.72933229 2.29604558 -61.83007812 2.29101562 C-50.27863464 2.28032742 -38.72721009 2.26328482 -27.17578125 2.2421875 C-26.84578125 3.2321875 -26.51578125 4.2221875 -26.17578125 5.2421875 C-30.63078125 5.7371875 -30.63078125 5.7371875 -35.17578125 6.2421875 C-35.17578125 6.9021875 -35.17578125 7.5621875 -35.17578125 8.2421875 C-35.83578125 8.2421875 -36.49578125 8.2421875 -37.17578125 8.2421875 C-37.33046875 9.1084375 -37.33046875 9.1084375 -37.48828125 9.9921875 C-38.17578125 12.2421875 -38.17578125 12.2421875 -39.73828125 14.1796875 C-41.50219635 16.71052221 -41.42741639 18.22256584 -41.17578125 21.2421875 C-41.83578125 21.2421875 -42.49578125 21.2421875 -43.17578125 21.2421875 C-43.17578125 21.9021875 -43.17578125 22.5621875 -43.17578125 23.2421875 C-43.81386719 23.46132813 -44.45195312 23.68046875 -45.109375 23.90625 C-47.61243512 24.86686277 -49.88608651 25.84435887 -52.17578125 27.2421875 C-53.74631885 30.15992396 -53.74631885 30.15992396 -53.17578125 33.2421875 C-51.73916814 35.76225594 -51.73916814 35.76225594 -49.17578125 37.2421875 C-45.06800376 37.74518066 -43.66702142 37.56968095 -40.17578125 35.2421875 C-40.67078125 31.7771875 -40.67078125 31.7771875 -41.17578125 28.2421875 C-39.93828125 27.5615625 -39.93828125 27.5615625 -38.67578125 26.8671875 C-32.19086745 22.5541807 -27.17362578 15.36206825 -24.17578125 8.2421875 C-20.98871183 9.67780436 -18.5540902 11.44485079 -15.92578125 13.7421875 C-15.219375 14.350625 -14.51296875 14.9590625 -13.78515625 15.5859375 C-12.17578125 17.2421875 -12.17578125 17.2421875 -12.17578125 19.2421875 C-11.51578125 19.2421875 -10.85578125 19.2421875 -10.17578125 19.2421875 C-9.55078125 21.5546875 -9.55078125 21.5546875 -9.17578125 24.2421875 C-10.16578125 25.7271875 -10.16578125 25.7271875 -11.17578125 27.2421875 C-11.56078016 28.89768281 -11.9037126 30.5644308 -12.17578125 32.2421875 C-5.56603261 31.94842089 -1.0011269 31.06753315 3.82421875 26.2421875 C3.86485707 24.57601635 3.86693975 22.90830655 3.82421875 21.2421875 C1.18421875 21.2421875 -1.45578125 21.2421875 -4.17578125 21.2421875 C-4.54703125 20.4378125 -4.91828125 19.6334375 -5.30078125 18.8046875 C-7.88968873 13.61448542 -11.06666418 8.35130457 -15.17578125 4.2421875 C-15.17578125 3.2521875 -15.17578125 2.2621875 -15.17578125 1.2421875 C-10.12384679 0.72404038 -5.06303874 0.3861112 0 0 Z " fill="#181818" transform="translate(373.17578125,243.7578125)"/>
<path d="M0 0 C2.9375 1.375 2.9375 1.375 5 3 C5 3.66 5 4.32 5 5 C5.99 5.33 6.98 5.66 8 6 C9.140625 8.625 9.140625 8.625 10.25 12 C12.24137841 17.49428502 14.53711694 21.43139796 18.2890625 25.86328125 C22.93542938 31.66593578 26.16116461 37.58642778 26 45 C25.67 44.34 25.34 43.68 25 43 C24.34 43 23.68 43 23 43 C22.8040625 42.40574219 22.608125 41.81148437 22.40625 41.19921875 C19.52077586 33.20197793 15.22398478 24.81598986 8 20 C7.2265625 17.57421875 7.2265625 17.57421875 6.625 14.6875 C5.40032026 9.85223593 4.29325791 6.89545301 0 4 C-3.08681086 3.16600125 -3.08681086 3.16600125 -6 4 C-9.25824681 7.93236684 -10 11.99983601 -10 17 C-10.6297876 17.05534912 -11.2595752 17.11069824 -11.90844727 17.16772461 C-14.79330688 17.42237236 -17.67790132 17.67991392 -20.5625 17.9375 C-21.55314453 18.02451172 -22.54378906 18.11152344 -23.56445312 18.20117188 C-28.73763531 18.66521147 -33.86752079 19.20097448 -39 20 C-39.18175781 19.15695313 -39.36351562 18.31390625 -39.55078125 17.4453125 C-39.80214844 16.34960938 -40.05351562 15.25390625 -40.3125 14.125 C-40.55613281 13.03445312 -40.79976562 11.94390625 -41.05078125 10.8203125 C-41.77902058 7.70557647 -41.77902058 7.70557647 -45 6 C-48.12521833 5.83300768 -48.12521833 5.83300768 -51 6 C-51.65134925 7.56020867 -52.29582964 9.12328579 -52.9375 10.6875 C-53.29714844 11.55761719 -53.65679687 12.42773438 -54.02734375 13.32421875 C-54.9570312 15.88179265 -55.54162625 18.3221323 -56 21 C-56.33 21 -56.66 21 -57 21 C-57.55253221 13.64825194 -56.51064108 8.488417 -53 2 C-46.94238206 1.58223325 -43.80974903 1.87735797 -39 6 C-36.64264672 9.21457266 -36.82257311 12.09660847 -37 16 C-35.4840625 15.7525 -35.4840625 15.7525 -33.9375 15.5 C-27.33558292 14.65237593 -20.6431304 14.92215082 -14 15 C-13.896875 13.783125 -13.79375 12.56625 -13.6875 11.3125 C-13.21780277 7.57476849 -12.32634716 5.04214629 -10 2 C-6.27420911 -0.48386059 -4.41288598 -0.3804212 0 0 Z " fill="#171717" transform="translate(245,153)"/>
<path d="M0 0 C0.495 1.485 0.495 1.485 1 3 C-3.455 3.495 -3.455 3.495 -8 4 C-8 4.66 -8 5.32 -8 6 C-8.66 6 -9.32 6 -10 6 C-10.103125 6.5775 -10.20625 7.155 -10.3125 7.75 C-11 10 -11 10 -12.5625 11.9375 C-14.3264151 14.46833471 -14.25163514 15.98037834 -14 19 C-14.66 19 -15.32 19 -16 19 C-16 19.66 -16 20.32 -16 21 C-16.62648438 21.25394531 -17.25296875 21.50789063 -17.8984375 21.76953125 C-19.12433594 22.28580078 -19.12433594 22.28580078 -20.375 22.8125 C-21.18710937 23.14894531 -21.99921875 23.48539062 -22.8359375 23.83203125 C-25.30147458 24.94439082 -25.30147458 24.94439082 -27 28 C-27.66 26.68 -28.32 25.36 -29 24 C-25.92000054 20.32769295 -23.7517398 19.43197635 -19 19 C-18.9175 18.113125 -18.835 17.22625 -18.75 16.3125 C-17.89797373 12.54938397 -16.45199047 10.91173868 -14 8 C-13.67 6.68 -13.34 5.36 -13 4 C-35.44 4 -57.88 4 -81 4 C-80.67 3.01 -80.34 2.02 -80 1 C-53.33600764 -0.18352746 -26.68497814 -0.10872105 0 0 Z " fill="#191919" transform="translate(346,246)"/>
<path d="M0 0 C1.75 0.0625 1.75 0.0625 4 1 C5.04182067 2.69295859 6.07547731 4.39444284 6.99609375 6.15625 C8.74984869 9.37715402 10.93988006 12.15921522 13.8125 14.4375 C15 16 15 16 14.8125 18.8125 C12.56692913 27.62204724 12.56692913 27.62204724 9 30 C8.8464904 26.16226002 8.75683717 23.53053709 10.375 20 C11.32723196 17.10904666 11.32723196 17.10904666 9.97265625 15.24609375 C8.39789761 13.39084375 6.74967419 11.69069641 5 10 C4.49855469 9.48695313 3.99710938 8.97390625 3.48046875 8.4453125 C2.33774063 7.27953222 1.17140981 6.13695658 0 5 C0 5.66 0 6.32 0 7 C-0.9075 7.598125 -1.815 8.19625 -2.75 8.8125 C-6.9372961 11.63087238 -9.23011452 14.84517178 -12 19 C-12.99 19 -13.98 19 -15 19 C-14.36482061 13.49511199 -9.96452175 9.6894503 -5.875 6.375 C-3.4341313 4.35863021 -1.7400964 2.6101446 0 0 Z " fill="#181818" transform="translate(220,251)"/>
<path d="M0 0 C1.70736328 0.03673828 1.70736328 0.03673828 3.44921875 0.07421875 C6.3125 0.3125 6.3125 0.3125 8.3125 1.3125 C8.3125 1.9725 8.3125 2.6325 8.3125 3.3125 C7.43207031 3.36148438 6.55164063 3.41046875 5.64453125 3.4609375 C3.90236328 3.57308594 3.90236328 3.57308594 2.125 3.6875 C0.97644531 3.75710937 -0.17210937 3.82671875 -1.35546875 3.8984375 C-4.48709117 4.28759574 -6.84035809 4.9934851 -9.6875 6.3125 C-9.93709784 8.3934844 -10.16144907 10.47750812 -10.375 12.5625 C-10.56642578 14.30273438 -10.56642578 14.30273438 -10.76171875 16.078125 C-10.90305186 19.25841272 -10.90305186 19.25841272 -9.59375 21.6875 C-6.93753431 23.95181501 -4.95011382 23.91410801 -1.5 24.0625 C0.13001953 24.14757812 0.13001953 24.14757812 1.79296875 24.234375 C3.04013672 24.27304688 3.04013672 24.27304688 4.3125 24.3125 C4.6425 25.3025 4.9725 26.2925 5.3125 27.3125 C-7.31574824 27.71696347 -7.31574824 27.71696347 -11.6875 25.3125 C-14.82373451 20.92177169 -15.43161217 16.5824451 -14.6875 11.3125 C-12.15853645 3.32629931 -8.51643072 -0.28161515 0 0 Z " fill="#171717" transform="translate(203.6875,193.6875)"/>
<path d="M0 0 C3 2 3 2 3.51171875 4.3828125 C3.56972656 5.28773438 3.62773437 6.19265625 3.6875 7.125 C3.78611328 8.49011719 3.78611328 8.49011719 3.88671875 9.8828125 C3.92410156 10.58148438 3.96148437 11.28015625 4 12 C3.26394531 12.24234375 2.52789062 12.4846875 1.76953125 12.734375 C-7.73772329 15.99974644 -13.56908175 20.11842586 -18.75 29 C-20.01188411 32.02852186 -20.4756423 34.77894558 -21 38 C-21.99 38.495 -21.99 38.495 -23 39 C-23.47001033 42.27555608 -23.47001033 42.27555608 -23.625 46.0625 C-23.69976562 47.35285156 -23.77453125 48.64320313 -23.8515625 49.97265625 C-23.90054688 50.97167969 -23.94953125 51.97070312 -24 53 C-24.33 53 -24.66 53 -25 53 C-25.05454409 50.64551325 -25.0939279 48.29232125 -25.125 45.9375 C-25.14820313 44.62652344 -25.17140625 43.31554687 -25.1953125 41.96484375 C-24.71511504 32.21683521 -20.76141221 23.15544317 -13.5625 16.5625 C-9.32857345 13.06827775 -5.21124854 10.73708285 0 9 C0 6.03 0 3.06 0 0 Z " fill="#202020" transform="translate(187,167)"/>
<path d="M0 0 C2.59638668 2.59638668 3.98864837 4.41644722 4.015625 8.1796875 C3.7790576 10.13484747 3.3990155 12.07142507 3 14 C3.598125 14.2475 4.19625 14.495 4.8125 14.75 C7.44496795 16.2542674 8.5540968 17.32507908 10 20 C10.3125 23.625 10.3125 23.625 10 27 C8 29 8 29 5.375 29.125 C4.59125 29.08375 3.8075 29.0425 3 29 C3.33 28.01 3.66 27.02 4 26 C4.99 26 5.98 26 7 26 C6.28564795 21.2036919 6.28564795 21.2036919 3.30859375 17.64453125 C1.58340249 16.67912119 -0.20599015 15.83056012 -2 15 C-1.84402344 14.37351563 -1.68804687 13.74703125 -1.52734375 13.1015625 C-1.33269531 12.28429687 -1.13804687 11.46703125 -0.9375 10.625 C-0.74027344 9.81289062 -0.54304688 9.00078125 -0.33984375 8.1640625 C0.22109319 5.95838716 0.22109319 5.95838716 -1 4 C-3.31 4 -5.62 4 -8 4 C-8.33 6.64 -8.66 9.28 -9 12 C-9.99 11.67 -10.98 11.34 -12 11 C-11.51714678 3.63648834 -11.51714678 3.63648834 -9.375 1 C-5.94686222 -0.44342643 -3.67732574 -0.59099878 0 0 Z " fill="#1B1B1B" transform="translate(411,222)"/>
<path d="M0 0 C-0.33 0.66 -0.66 1.32 -1 2 C-2.32 2 -3.64 2 -5 2 C-5 2.66 -5 3.32 -5 4 C-4.360625 4.2475 -3.72125 4.495 -3.0625 4.75 C-1 6 -1 6 -0.25 7.6875 C0.16708565 11.54554222 0.47927342 15.37047037 -0.625 19.125 C-1.21518521 21.13431286 -1.21518521 21.13431286 0.0625 23.375 C1 26 1 26 0.4375 29.1875 C-1 32 -1 32 -3.625 33.375 C-4.40875 33.58125 -5.1925 33.7875 -6 34 C-6 31 -6 31 -4 28.8125 C-3.01 27.9153125 -3.01 27.9153125 -2 27 C-2.515625 26.113125 -3.03125 25.22625 -3.5625 24.3125 C-5.08979002 20.79309257 -5.21675714 19.548875 -4 16 C-3.67 15.67 -3.34 15.34 -3 15 C-3.66 14.67 -4.32 14.34 -5 14 C-4.42415568 11.61435923 -3.77772405 9.33317216 -3 7 C-8.60944292 3.85871197 -14.68146331 2.77369837 -21 2 C-20.67 1.34 -20.34 0.68 -20 0 C-17.22949974 -0.1946838 -14.45886998 -0.38102792 -11.6875 -0.5625 C-10.90181641 -0.61857422 -10.11613281 -0.67464844 -9.30664062 -0.73242188 C-8.1706543 -0.80493164 -8.1706543 -0.80493164 -7.01171875 -0.87890625 C-6.31522217 -0.9260376 -5.61872559 -0.97316895 -4.90112305 -1.02172852 C-3 -1 -3 -1 0 0 Z " fill="#030303" transform="translate(546,222)"/>
<path d="M0 0 C2.96015432 1.48007716 4.69683507 2.47635149 6.375 5.375 C7.09982679 8.41927252 7.08181469 10.06364585 6 13 C3.57276598 15.43306872 2.21337604 15.9760916 -1.2421875 16.36328125 C-2.44101563 16.34652344 -3.63984375 16.32976562 -4.875 16.3125 C-6.06867188 16.30863281 -7.26234375 16.30476563 -8.4921875 16.30078125 C-11.99293764 16.00060557 -14.75916831 15.33756219 -18 14 C-20.44427276 10.88910739 -20.17460721 7.84135867 -20 4 C-19.01 3.67 -18.02 3.34 -17 3 C-16.34 5.97 -15.68 8.94 -15 12 C-12.5622037 12.05397335 -10.12560315 12.09365616 -7.6875 12.125 C-6.65206055 12.15013672 -6.65206055 12.15013672 -5.59570312 12.17578125 C-1.82864604 12.21217794 -0.21568296 12.14378864 3 10 C2.72965366 7.56282742 2.72965366 7.56282742 2 5 C1.01 4.34 0.02 3.68 -1 3 C-0.67 2.01 -0.34 1.02 0 0 Z " fill="#1F1F1F" transform="translate(202,269)"/>
<path d="M0 0 C1.875 0.6875 1.875 0.6875 4 2 C4.29390625 2.7425 4.5878125 3.485 4.890625 4.25 C6.15344661 7.38037469 7.82313533 9.63733305 9.875 12.3125 C18.76603539 24.33964606 18.76603539 24.33964606 18 32 C17.67 31.34 17.34 30.68 17 30 C16.34 30 15.68 30 15 30 C14.8040625 29.40574219 14.608125 28.81148437 14.40625 28.19921875 C11.52077586 20.20197793 7.22398478 11.81598986 0 7 C-0.1875 3.375 -0.1875 3.375 0 0 Z " fill="#0E0E0E" transform="translate(253,166)"/>
<path d="M0 0 C0.99 0.33 1.98 0.66 3 1 C2.3897536 5.14967549 0.99267393 8.32121736 -1 12 C-1.7115625 13.3921875 -1.7115625 13.3921875 -2.4375 14.8125 C-4 17 -4 17 -6.1875 17.8125 C-6.785625 17.874375 -7.38375 17.93625 -8 18 C-7.67 20.31 -7.34 22.62 -7 25 C-8.32 24.34 -9.64 23.68 -11 23 C-11 19.7 -11 16.4 -11 13 C-8.03 13.495 -8.03 13.495 -5 14 C-5 12.68 -5 11.36 -5 10 C-4.01 10 -3.02 10 -2 10 C-2.226875 9.443125 -2.45375 8.88625 -2.6875 8.3125 C-3.12446199 5.07898125 -1.78001197 3.63441772 0 1 C0 0.67 0 0.34 0 0 Z " fill="#020202" transform="translate(441,236)"/>
<path d="M0 0 C5.94 0 11.88 0 18 0 C18 0.33 18 0.66 18 1 C27.57 1.33 37.14 1.66 47 2 C47 2.33 47 2.66 47 3 C31.16 3 15.32 3 -1 3 C-0.67 2.01 -0.34 1.02 0 0 Z " fill="#363636" transform="translate(266,247)"/>
<path d="M0 0 C0.33 0 0.66 0 1 0 C1.5 3.0625 1.5 3.0625 1 7 C-2.08711883 10.66280532 -5.4426685 13.4808895 -10 15 C-11.684571 15.11740122 -13.37388877 15.17506545 -15.0625 15.1875 C-16.37927734 15.20876953 -16.37927734 15.20876953 -17.72265625 15.23046875 C-20 15 -20 15 -22 13 C-22.125 9.875 -22.125 9.875 -22 7 C-20.515 7.99 -20.515 7.99 -19 9 C-19 9.99 -19 10.98 -19 12 C-11.81702143 11.77196893 -6.2006669 10.24710143 -1 5 C-0.19763806 2.39061448 -0.19763806 2.39061448 0 0 Z " fill="#252525" transform="translate(380,264)"/>
<path d="M0 0 C0.99 0 1.98 0 3 0 C2.7416116 3.48824341 1.73533264 4.24214247 -0.9375 6.6875 C-5.35002036 10.01940313 -7.44502458 10.36426068 -13 10 C-15.46754057 9.17748648 -17.65456147 8.14878622 -20 7 C-20 5.02 -20 3.04 -20 1 C-19.67 2.32 -19.34 3.64 -19 5 C-16.94099907 5.27734712 -14.87741707 5.52081942 -12.8125 5.75 C-11.08966797 5.95882813 -11.08966797 5.95882813 -9.33203125 6.171875 C-5.25086757 5.96135776 -3.84523242 4.85043395 -1 2 C-0.67 1.34 -0.34 0.68 0 0 Z " fill="#111111" transform="translate(250,274)"/>
<path d="M0 0 C0.66 0.33 1.32 0.66 2 1 C0.125 5.75 0.125 5.75 -1 8 C-0.7215625 8.928125 -0.7215625 8.928125 -0.4375 9.875 C0 12 0 12 -0.9375 13.75 C-2.55389504 17.1729542 -2.12535919 20.23922443 -2 24 C-3.98 24.99 -3.98 24.99 -6 26 C-6.66 25.34 -7.32 24.68 -8 24 C-7.484375 23.67 -6.96875 23.34 -6.4375 23 C-4.66165278 20.52925604 -4.97146029 19.85554407 -5.4375 16.9375 C-5.623125 15.638125 -5.80875 14.33875 -6 13 C-5.34 12.34 -4.68 11.68 -4 11 C-4.32326553 7.40320934 -4.32326553 7.40320934 -5 4 C-4.01 4 -3.02 4 -2 4 C-1.34 2.68 -0.68 1.36 0 0 Z " fill="#000000" transform="translate(469,230)"/>
<path d="M0 0 C0.33 0 0.66 0 1 0 C1.33 4.95 1.66 9.9 2 15 C2.66 15 3.32 15 4 15 C5.32 19.95 6.64 24.9 8 30 C7.34 30 6.68 30 6 30 C5.505 32.475 5.505 32.475 5 35 C4.67 35 4.34 35 4 35 C3.896875 33.865625 3.79375 32.73125 3.6875 31.5625 C3.32311188 28.47055962 2.63850392 25.98588199 1.4375 23.125 C-1.21119158 15.86038475 -0.22162454 7.60910911 0 0 Z " fill="#1C1C1C" transform="translate(425,220)"/>
<path d="M0 0 C3 2 3 2 3.66015625 3.875 C3.79292969 4.57625 3.92570313 5.2775 4.0625 6 C4.71030055 9.37755496 4.71030055 9.37755496 7 12 C9.89223503 12.46396693 9.89223503 12.46396693 13.125 12.625 C14.76855469 12.73714844 14.76855469 12.73714844 16.4453125 12.8515625 C17.28835937 12.90054688 18.13140625 12.94953125 19 13 C19.33 13.99 19.66 14.98 20 16 C7.37175176 16.40446347 7.37175176 16.40446347 3 14 C-0.3296668 9.33846648 -0.28463992 5.5030385 0 0 Z " fill="#232323" transform="translate(189,205)"/>
<path d="M0 0 C0.99 0 1.98 0 3 0 C6.06446761 7.36897561 7.69121494 14.01790621 8 22 C7.34 22 6.68 22 6 22 C5.67 22.66 5.34 23.32 5 24 C4.80664062 22.89140625 4.61328125 21.7828125 4.4140625 20.640625 C4.15136511 19.17702524 3.88832633 17.71348673 3.625 16.25 C3.43550781 15.15558594 3.43550781 15.15558594 3.2421875 14.0390625 C2.57166763 10.35120322 1.7154963 7.31165374 0 4 C0 2.68 0 1.36 0 0 Z " fill="#212121" transform="translate(269,196)"/>
<path d="M0 0 C4.41110531 1.34783774 6.61650722 3.02751203 9 7 C9.375 10.6875 9.375 10.6875 9 14 C7 16 7 16 4.375 16.125 C3.59125 16.08375 2.8075 16.0425 2 16 C2.33 15.01 2.66 14.02 3 13 C3.99 13 4.98 13 6 13 C4.99042008 7.74944169 4.99042008 7.74944169 1.375 4.0625 C0.59125 3.711875 -0.1925 3.36125 -1 3 C-0.67 2.01 -0.34 1.02 0 0 Z " fill="#070707" transform="translate(412,235)"/>
<path d="M0 0 C0.33 0.99 0.66 1.98 1 3 C-7.58 3 -16.16 3 -25 3 C-25 2.34 -25 1.68 -25 1 C-16.64380043 0.24524649 -8.39004715 -0.13605482 0 0 Z " fill="#1D1D1D" transform="translate(219,227)"/>
<path d="M0 0 C0.99 0.33 1.98 0.66 3 1 C3 1.99 3 2.98 3 4 C-5.35748222 4.84327749 -13.60197746 5.12190678 -22 5 C-21.67 4.34 -21.34 3.68 -21 3 C-16.1975582 1.62787377 -11.13809154 1.64685211 -6.17578125 1.39453125 C-2.79809419 1.48340844 -2.79809419 1.48340844 0 0 Z " fill="#0A0A0A" transform="translate(232,166)"/>
<path d="M0 0 C3.3 0 6.6 0 10 0 C10 0.33 10 0.66 10 1 C16.6 1.33 23.2 1.66 30 2 C30 2.33 30 2.66 30 3 C19.77 3 9.54 3 -1 3 C-0.67 2.01 -0.34 1.02 0 0 Z " fill="#1F1F1F" transform="translate(546,221)"/>
<path d="M0 0 C0.33 0 0.66 0 1 0 C1.36206897 6.27586207 1.36206897 6.27586207 -0.1875 9.375 C-2.41017339 11.36774166 -4.06832781 11.68306247 -7 12 C-6.6875 10.125 -6.6875 10.125 -6 8 C-5.01 7.34 -4.02 6.68 -3 6 C-1.8499169 4.03327085 -1.8499169 4.03327085 -1 2 C-0.67 1.34 -0.34 0.68 0 0 Z " fill="#242424" transform="translate(336,273)"/>
<path d="M0 0 C1.13298556 3.39895668 0.85659602 4.26983438 -0.25 7.5625 C-0.62898437 8.74005859 -0.62898437 8.74005859 -1.015625 9.94140625 C-2 12 -2 12 -5 14 C-5.31416607 8.76389884 -4.77647622 5.48507697 -2 1 C-1.34 0.67 -0.68 0.34 0 0 Z " fill="#272727" transform="translate(234,267)"/>
<path d="M0 0 C0.66 0.66 1.32 1.32 2 2 C1.69903201 6.13830989 1.32101984 8.51847024 -1 12 C-1.66 12 -2.32 12 -3 12 C-2.835 10.906875 -2.67 9.81375 -2.5 8.6875 C-1.93281816 5.12474127 -1.93281816 5.12474127 -2 2 C-1.34 1.34 -0.68 0.68 0 0 Z " fill="#000000" transform="translate(518,241)"/>
<path d="M0 0 C0.66 0.33 1.32 0.66 2 1 C1.34 1.66 0.68 2.32 0 3 C-1.03842565 5.31648799 -2.0421975 7.64903024 -3 10 C-3.99 10 -4.98 10 -6 10 C-5.49477778 5.62140745 -2.82172778 3.18348776 0 0 Z " fill="#232323" transform="translate(211,260)"/>
<path d="M0 0 C0.33 0 0.66 0 1 0 C1.125 3.375 1.125 3.375 1 7 C-1 9 -1 9 -3.625 9.125 C-4.40875 9.08375 -5.1925 9.0425 -6 9 C-5.67 8.01 -5.34 7.02 -5 6 C-4.01 6 -3.02 6 -2 6 C-1.855625 5.38125 -1.71125 4.7625 -1.5625 4.125 C-1 2 -1 2 0 0 Z " fill="#1B1B1B" transform="translate(420,242)"/>
<path d="M0 0 C0.33 0.99 0.66 1.98 1 3 C-3.455 3.495 -3.455 3.495 -8 4 C-7.67 3.01 -7.34 2.02 -7 1 C-4.53721199 -0.231394 -2.7204945 -0.07159196 0 0 Z " fill="#202020" transform="translate(346,246)"/>
<path d="M0 0 C3 2 3 2 3.51171875 4.3828125 C3.56972656 5.28773438 3.62773437 6.19265625 3.6875 7.125 C3.75324219 8.03507813 3.81898438 8.94515625 3.88671875 9.8828125 C3.92410156 10.58148438 3.96148437 11.28015625 4 12 C3.01 11.67 2.02 11.34 1 11 C-0.20272819 8.59454362 -0.10071472 7.05003047 -0.0625 4.375 C-0.05347656 3.55773437 -0.04445312 2.74046875 -0.03515625 1.8984375 C-0.02355469 1.27195313 -0.01195312 0.64546875 0 0 Z " fill="#292929" transform="translate(187,167)"/>
<path d="M0 0 C4.8 2.46153846 4.8 2.46153846 5.8125 5.1875 C5.874375 5.785625 5.93625 6.38375 6 7 C5.01 7.33 4.02 7.66 3 8 C2.67 7.01 2.34 6.02 2 5 C1.01 4.34 0.02 3.68 -1 3 C-0.67 2.01 -0.34 1.02 0 0 Z " fill="#1A1A1A" transform="translate(202,269)"/>
<path d="M0 0 C1.32 0.66 2.64 1.32 4 2 C3.38125 2.433125 2.7625 2.86625 2.125 3.3125 C-0.2197245 4.99740483 -0.2197245 4.99740483 -2 8 C-2.66 6.68 -3.32 5.36 -4 4 C-2.68 2.68 -1.36 1.36 0 0 Z " fill="#2C2C2C" transform="translate(321,266)"/>
<path d="M0 0 C2.4375 0.8125 2.4375 0.8125 5 2 C5.33 2.99 5.66 3.98 6 5 C3 5 3 5 0.8125 3 C0.214375 2.34 -0.38375 1.68 -1 1 C-0.67 0.67 -0.34 0.34 0 0 Z " fill="#000000" transform="translate(565,255)"/>
<path d="M0 0 C1 3 1 3 0.25 5.125 C-1 7 -1 7 -4 8 C-3.67 5.69 -3.34 3.38 -3 1 C-2.01 0.67 -1.02 0.34 0 0 Z " fill="#252525" transform="translate(235,159)"/>
<path d="M0 0 C0.33 2.31 0.66 4.62 1 7 C0.34 7 -0.32 7 -1 7 C-1.33 7.66 -1.66 8.32 -2 9 C-2.33 6.36 -2.66 3.72 -3 1 C-1 0 -1 0 0 0 Z " fill="#262626" transform="translate(243,255)"/>
<path d="M0 0 C0.24042276 4.08718695 -0.57741188 7.17679443 -2 11 C-2.33 11 -2.66 11 -3 11 C-3 7.7 -3 4.4 -3 1 C-1 0 -1 0 0 0 Z " fill="#0C0C0C" transform="translate(193,201)"/>
<path d="M0 0 C1.98 0.495 1.98 0.495 4 1 C4 1.99 4 2.98 4 4 C2.35 4 0.7 4 -1 4 C-0.67 2.68 -0.34 1.36 0 0 Z " fill="#161616" transform="translate(183,190)"/>
<path d="M0 0 C0.33 2.31 0.66 4.62 1 7 C0.01 7.33 -0.98 7.66 -2 8 C-2.33 5.69 -2.66 3.38 -3 1 C-1 0 -1 0 0 0 Z " fill="#2A2A2A" transform="translate(166,220)"/>
</svg>
