<?xml version="1.0" encoding="UTF-8"?>
<svg version="1.1" xmlns="http://www.w3.org/2000/svg" width="800" height="300">
<path d="M0 0 C264 0 528 0 800 0 C800 99 800 198 800 300 C536 300 272 300 0 300 C0 201 0 102 0 0 Z " fill="#FEFEFE" transform="translate(0,0)"/>
<path d="M0 0 C4.42348853 0.44234885 6.39873151 1.49135037 9.75 4.375 C11.34381802 7.34529722 11.75 8.99889977 11.75 12.375 C15.35636233 13.50296398 18.72144004 13.48916035 22.484375 13.47265625 C24.42763672 13.46782227 24.42763672 13.46782227 26.41015625 13.46289062 C27.77343817 13.45453598 29.13671942 13.44607104 30.5 13.4375 C31.87890465 13.43248168 33.25781104 13.42791935 34.63671875 13.42382812 C38.00785659 13.41204093 41.37890628 13.39558635 44.75 13.375 C44.67845703 12.23804688 44.67845703 12.23804688 44.60546875 11.078125 C44.82345765 7.00114345 46.97169253 5.21791927 49.75 2.375 C53.4772844 1.13257187 55.83140751 0.84366542 59.75 1.375 C64.80205409 5.03773921 66.2075033 9.40631962 67.203125 15.3203125 C68.06214897 18.54778826 70.34630601 20.13900559 72.75 22.375 C79.17034267 31.93961605 81.30678944 42.36784167 83.12304688 53.55859375 C84.29563641 60.24088221 85.80925057 67.43425057 90.75 72.375 C93.07275177 72.77547444 95.40739357 73.1147104 97.75 73.375 C97.75 74.035 97.75 74.695 97.75 75.375 C112.2965982 76.22188769 126.79647873 76.53347645 141.36694336 76.50537109 C144.73620934 76.49992121 148.10534694 76.50540245 151.47460938 76.51171875 C153.63802112 76.5110593 155.8014328 76.5097809 157.96484375 76.5078125 C158.96168686 76.50983673 159.95852997 76.51186096 160.98558044 76.51394653 C165.71515419 76.49796419 170.08424878 76.19739939 174.75 75.375 C177.48316398 75.28343382 180.18952526 75.23459365 182.921875 75.2421875 C184.06731781 75.24075241 184.06731781 75.24075241 185.23590088 75.23928833 C186.839397 75.2386113 188.44289594 75.24043213 190.04638672 75.24462891 C192.50624674 75.25001367 194.96592663 75.24465266 197.42578125 75.23828125 C198.98697957 75.23894154 200.54817778 75.24022167 202.109375 75.2421875 C202.84581238 75.24016327 203.58224976 75.23813904 204.34100342 75.23605347 C209.52003684 75.26001842 209.52003684 75.26001842 211.75 76.375 C211.853125 75.446875 211.95625 74.51875 212.0625 73.5625 C212.75 70.375 212.75 70.375 213.8125 68.5 C216.91284966 66.69979697 220.25379537 66.83224243 223.75 67.375 C224.74 68.035 225.73 68.695 226.75 69.375 C227.16416399 71.95589562 227.18915839 74.451065 227.24609375 77.0625 C227.50093654 79.53074832 227.50093654 79.53074832 229.66015625 80.625 C230.34980469 80.8725 231.03945313 81.12 231.75 81.375 C232.41 81.705 233.07 82.035 233.75 82.375 C234.2060284 88.07535501 233.35412752 90.92284247 229.75 95.375 C226.60694562 96.94652719 223.258726 96.51818589 219.8125 96.5 C219.08353516 96.50386719 218.35457031 96.50773437 217.60351562 96.51171875 C214.39142264 96.5058304 211.8178556 96.39761853 208.75 95.375 C206.16557413 94.97806464 203.59492987 94.62279777 201 94.3125 C200.25371338 94.22307129 199.50742676 94.13364258 198.73852539 94.04150391 C191.38850334 93.22681762 184.13834349 93.18141895 176.75 93.375 C177.50259348 98.28321833 179.05712391 100.01783992 182.75 103.375 C183.575 104.220625 184.4 105.06625 185.25 105.9375 C187.71390408 108.42157581 187.71390408 108.42157581 190.5 110.5625 C192.75 112.375 192.75 112.375 193.75 114.375 C193.83225936 117.47147751 193.5403617 120.37821189 192.75 123.375 C189.80395609 126.23439556 188.1639423 126.36798403 184.0625 126.4375 C182.969375 126.416875 181.87625 126.39625 180.75 126.375 C180.09 127.035 179.43 127.695 178.75 128.375 C175.56961748 129.46781866 172.47034494 129.57089739 169.125 129.625 C167.68253906 129.66367187 167.68253906 129.66367187 166.2109375 129.703125 C164.99277344 129.54070312 164.99277344 129.54070312 163.75 129.375 C161.66817754 126.2522663 161.49592652 125.54655089 161.5625 122 C161.57539063 121.20464844 161.58828125 120.40929687 161.6015625 119.58984375 C161.75 117.375 161.75 117.375 162.4375 114.5625 C163.01475087 112.31985784 163.01475087 112.31985784 161.5 110.625 C160.9225 109.8825 160.345 109.14 159.75 108.375 C159.23352858 106.90844213 158.7581511 105.42710727 158.3125 103.9375 C157.10331658 100.02694937 155.47295762 97.47353798 152.75 94.375 C152.75 93.715 152.75 93.055 152.75 92.375 C152.0374707 92.5186499 151.32494141 92.6622998 150.59082031 92.81030273 C142.79149607 94.26208943 135.41518631 94.57095766 127.5 94.4375 C124.64196047 94.40837212 121.78393601 94.39200515 118.92578125 94.37890625 C118.1160939 94.37496857 117.30640656 94.37103088 116.47218323 94.36697388 C102.95099766 94.33063185 89.42959149 94.61350442 75.91072083 94.83811569 C73.68141222 94.875101 71.4520966 94.9116318 69.22277832 94.94802856 C60.73179104 95.08680681 52.24086635 95.2289852 43.75 95.375 C43.44454957 104.19640834 49.06253125 109.18608389 54.75 115.375 C55.306875 115.87902344 55.86375 116.38304687 56.4375 116.90234375 C57.75 118.375 57.75 118.375 58.1875 121.75 C57.6629656 126.09614217 57.20740325 127.65846887 53.75 130.375 C47.48338476 131.40512853 41.28689454 130.61503321 35.875 127.1875 C34.0716469 124.28209778 34.52308296 121.72202633 34.75 118.375 C35.059375 117.364375 35.36875 116.35375 35.6875 115.3125 C36.09466707 112.38603925 36.09466707 112.38603925 34.328125 110.87890625 C33.05518185 109.86633784 31.7709671 108.86779767 30.4765625 107.8828125 C27.98312292 105.70528382 27.37527445 103.5708472 26.75 100.375 C26.75 99.055 26.75 97.735 26.75 96.375 C17.22462704 105.60539562 17.22462704 105.60539562 13.60546875 117.8984375 C13.65891814 120.3672905 13.75577156 122.83570345 13.90234375 125.30078125 C13.75 128.375 13.75 128.375 12.44140625 130.23046875 C7.84017768 133.34400217 2.06956539 132.95828568 -3.25 132.375 C-6.25197464 130.57381522 -7.70166366 129.47167268 -9.25 126.375 C-9.82111477 119.40739978 -9.82111477 119.40739978 -7.625 115.4375 C-4.80599012 112.98941247 -2.92852334 112.62580841 0.75 112.375 C0.6984375 111.65957031 0.646875 110.94414062 0.59375 110.20703125 C0.77602747 106.90325219 1.70027242 104.96823922 3.25 102.0625 C3.94609375 100.73798828 3.94609375 100.73798828 4.65625 99.38671875 C5.0171875 98.72285156 5.378125 98.05898437 5.75 97.375 C4.265 97.13716797 4.265 97.13716797 2.75 96.89453125 C-4.70668453 95.613976 -11.32615939 94.37705305 -17.25 89.375 C-17.88550781 88.84777344 -18.52101562 88.32054687 -19.17578125 87.77734375 C-24.38310552 83.04439271 -26.88737206 78.23327858 -27.54956055 71.18774414 C-27.68971891 67.47444111 -27.70830086 63.77829009 -27.6875 60.0625 C-27.70748047 58.80759766 -27.72746094 57.55269531 -27.74804688 56.25976562 C-27.74185496 44.37748586 -25.08456241 34.67018576 -16.875 25.8125 C-15.575625 24.6059375 -15.575625 24.6059375 -14.25 23.375 C-13.50169922 22.67117187 -13.50169922 22.67117187 -12.73828125 21.953125 C-9.58348906 19.12414258 -8.64338072 18.375 -4.25 18.375 C-4.7759375 17.199375 -4.7759375 17.199375 -5.3125 16 C-6.52230365 11.32209255 -6.30097899 7.08745417 -5.25 2.375 C-3.25 0.375 -3.25 0.375 0 0 Z " fill="#F9F9F9" transform="translate(188.25,154.625)"/>
<path d="M0 0 C2.6875 -0.3125 2.6875 -0.3125 6 0 C6.65484375 0.82371094 7.3096875 1.64742187 7.984375 2.49609375 C12.5652212 6.2996202 16.79729447 5.57827168 22.5625 5.375 C23.56474609 5.36082031 24.56699219 5.34664062 25.59960938 5.33203125 C30.47519469 5.2414631 35.34076995 5.04623593 40.20825195 4.75537109 C54.45235002 3.91878154 68.67682983 3.84573931 82.94213867 3.86962891 C85.67653585 3.87416195 88.4108666 3.87421517 91.14526367 3.86962891 C100.43094505 3.85414611 109.7147567 3.89399703 119 4 C120.89718781 4.01987976 120.89718781 4.01987976 122.83270264 4.04016113 C126.4714204 4.08922994 130.10817747 4.16795371 133.74609375 4.2578125 C135.34216209 4.27822098 135.34216209 4.27822098 136.97047424 4.29904175 C147.76141846 4.63593906 157.23194941 7.126133 165.1015625 14.796875 C168.08119031 18.25471468 170.07594107 21.88307979 172 26 C172.5878125 27.06347656 172.5878125 27.06347656 173.1875 28.1484375 C176.97476175 35.43365628 176.77162077 42.60176161 175.375 50.5625 C169.6875 64.78125 169.6875 64.78125 163.4375 67.625 C157.70072769 69.69064707 152.18507829 70.14951793 146.12109375 70.1328125 C145.35992249 70.13413177 144.59875122 70.13545105 143.81451416 70.1368103 C141.35546728 70.1387179 138.89653518 70.13241583 136.4375 70.125 C135.60618561 70.12411377 134.77487122 70.12322754 133.91836548 70.12231445 C121.58858811 70.10680173 109.30284848 69.87542505 97 69 C97 68.34 97 67.68 97 67 C96.29617188 67.16242188 95.59234375 67.32484375 94.8671875 67.4921875 C87.40965184 68.81300444 79.59253259 68.08414043 72.08203125 67.5078125 C66.67319889 67.13155169 61.29977248 66.9117425 55.87890625 66.859375 C21.79509958 66.48121764 21.79509958 66.48121764 10.8125 58.25 C9.32421875 56.69140625 9.32421875 56.69140625 8 55 C7.51144531 54.41089844 7.02289063 53.82179688 6.51953125 53.21484375 C2.55488966 47.4511211 2.40935902 41.64162749 2.45166016 34.85229492 C2.47029608 32.43228376 2.47029608 32.43228376 2 29 C0.13377036 27.1371129 0.13377036 27.1371129 -2 26 C-3.20745835 22.37762495 -3.22246029 19.0229405 -3.25 15.25 C-3.270625 14.5590625 -3.29125 13.868125 -3.3125 13.15625 C-3.35088173 8.05147958 -2.27330153 4.57053254 0 0 Z " fill="#656565" transform="translate(428,216)"/>
<path d="M0 0 C4.42348853 0.44234885 6.39873151 1.49135037 9.75 4.375 C11.34381802 7.34529722 11.75 8.99889977 11.75 12.375 C15.35636233 13.50296398 18.72144004 13.48916035 22.484375 13.47265625 C24.42763672 13.46782227 24.42763672 13.46782227 26.41015625 13.46289062 C27.77343817 13.45453598 29.13671942 13.44607104 30.5 13.4375 C31.87890465 13.43248168 33.25781104 13.42791935 34.63671875 13.42382812 C38.00785659 13.41204093 41.37890628 13.39558635 44.75 13.375 C44.67845703 12.23804688 44.67845703 12.23804688 44.60546875 11.078125 C44.82345765 7.00114345 46.97169253 5.21791927 49.75 2.375 C53.4772844 1.13257187 55.83140751 0.84366542 59.75 1.375 C64.80205409 5.03773921 66.2075033 9.40631962 67.203125 15.3203125 C68.06214897 18.54778826 70.34630601 20.13900559 72.75 22.375 C79.17034267 31.93961605 81.30678944 42.36784167 83.12304688 53.55859375 C84.29563641 60.24088221 85.80925057 67.43425057 90.75 72.375 C93.07275177 72.77547444 95.40739357 73.1147104 97.75 73.375 C97.75 74.035 97.75 74.695 97.75 75.375 C112.2965982 76.22188769 126.79647873 76.53347645 141.36694336 76.50537109 C144.73620934 76.49992121 148.10534694 76.50540245 151.47460938 76.51171875 C153.63802112 76.5110593 155.8014328 76.5097809 157.96484375 76.5078125 C158.96168686 76.50983673 159.95852997 76.51186096 160.98558044 76.51394653 C165.71515419 76.49796419 170.08424878 76.19739939 174.75 75.375 C177.48316398 75.28343382 180.18952526 75.23459365 182.921875 75.2421875 C184.06731781 75.24075241 184.06731781 75.24075241 185.23590088 75.23928833 C186.839397 75.2386113 188.44289594 75.24043213 190.04638672 75.24462891 C192.50624674 75.25001367 194.96592663 75.24465266 197.42578125 75.23828125 C198.98697957 75.23894154 200.54817778 75.24022167 202.109375 75.2421875 C202.84581238 75.24016327 203.58224976 75.23813904 204.34100342 75.23605347 C209.52003684 75.26001842 209.52003684 75.26001842 211.75 76.375 C211.853125 75.446875 211.95625 74.51875 212.0625 73.5625 C212.75 70.375 212.75 70.375 213.8125 68.5 C216.91284966 66.69979697 220.25379537 66.83224243 223.75 67.375 C224.74 68.035 225.73 68.695 226.75 69.375 C227.16416399 71.95589562 227.18915839 74.451065 227.24609375 77.0625 C227.50093654 79.53074832 227.50093654 79.53074832 229.66015625 80.625 C230.34980469 80.8725 231.03945313 81.12 231.75 81.375 C232.41 81.705 233.07 82.035 233.75 82.375 C234.2060284 88.07535501 233.35412752 90.92284247 229.75 95.375 C226.60694562 96.94652719 223.258726 96.51818589 219.8125 96.5 C219.08353516 96.50386719 218.35457031 96.50773437 217.60351562 96.51171875 C214.39142264 96.5058304 211.8178556 96.39761853 208.75 95.375 C206.16557413 94.97806464 203.59492987 94.62279777 201 94.3125 C200.25371338 94.22307129 199.50742676 94.13364258 198.73852539 94.04150391 C191.38850334 93.22681762 184.13834349 93.18141895 176.75 93.375 C177.50259348 98.28321833 179.05712391 100.01783992 182.75 103.375 C183.575 104.220625 184.4 105.06625 185.25 105.9375 C187.71390408 108.42157581 187.71390408 108.42157581 190.5 110.5625 C192.75 112.375 192.75 112.375 193.75 114.375 C193.83225936 117.47147751 193.5403617 120.37821189 192.75 123.375 C189.80395609 126.23439556 188.1639423 126.36798403 184.0625 126.4375 C182.969375 126.416875 181.87625 126.39625 180.75 126.375 C180.09 127.035 179.43 127.695 178.75 128.375 C175.56961748 129.46781866 172.47034494 129.57089739 169.125 129.625 C167.68253906 129.66367187 167.68253906 129.66367187 166.2109375 129.703125 C164.99277344 129.54070312 164.99277344 129.54070312 163.75 129.375 C161.66817754 126.2522663 161.49592652 125.54655089 161.5625 122 C161.57539063 121.20464844 161.58828125 120.40929687 161.6015625 119.58984375 C161.75 117.375 161.75 117.375 162.4375 114.5625 C163.01475087 112.31985784 163.01475087 112.31985784 161.5 110.625 C160.9225 109.8825 160.345 109.14 159.75 108.375 C159.23352858 106.90844213 158.7581511 105.42710727 158.3125 103.9375 C157.10331658 100.02694937 155.47295762 97.47353798 152.75 94.375 C152.75 93.715 152.75 93.055 152.75 92.375 C152.0374707 92.5186499 151.32494141 92.6622998 150.59082031 92.81030273 C142.79149607 94.26208943 135.41518631 94.57095766 127.5 94.4375 C124.64196047 94.40837212 121.78393601 94.39200515 118.92578125 94.37890625 C118.1160939 94.37496857 117.30640656 94.37103088 116.47218323 94.36697388 C102.95099766 94.33063185 89.42959149 94.61350442 75.91072083 94.83811569 C73.68141222 94.875101 71.4520966 94.9116318 69.22277832 94.94802856 C60.73179104 95.08680681 52.24086635 95.2289852 43.75 95.375 C43.44454957 104.19640834 49.06253125 109.18608389 54.75 115.375 C55.306875 115.87902344 55.86375 116.38304687 56.4375 116.90234375 C57.75 118.375 57.75 118.375 58.1875 121.75 C57.6629656 126.09614217 57.20740325 127.65846887 53.75 130.375 C47.48338476 131.40512853 41.28689454 130.61503321 35.875 127.1875 C34.0716469 124.28209778 34.52308296 121.72202633 34.75 118.375 C35.059375 117.364375 35.36875 116.35375 35.6875 115.3125 C36.09466707 112.38603925 36.09466707 112.38603925 34.328125 110.87890625 C33.05518185 109.86633784 31.7709671 108.86779767 30.4765625 107.8828125 C27.98312292 105.70528382 27.37527445 103.5708472 26.75 100.375 C26.75 99.055 26.75 97.735 26.75 96.375 C17.22462704 105.60539562 17.22462704 105.60539562 13.60546875 117.8984375 C13.65891814 120.3672905 13.75577156 122.83570345 13.90234375 125.30078125 C13.75 128.375 13.75 128.375 12.44140625 130.23046875 C7.84017768 133.34400217 2.06956539 132.95828568 -3.25 132.375 C-6.25197464 130.57381522 -7.70166366 129.47167268 -9.25 126.375 C-9.82111477 119.40739978 -9.82111477 119.40739978 -7.625 115.4375 C-4.80599012 112.98941247 -2.92852334 112.62580841 0.75 112.375 C0.6984375 111.65957031 0.646875 110.94414062 0.59375 110.20703125 C0.77602747 106.90325219 1.70027242 104.96823922 3.25 102.0625 C3.94609375 100.73798828 3.94609375 100.73798828 4.65625 99.38671875 C5.0171875 98.72285156 5.378125 98.05898437 5.75 97.375 C4.265 97.13716797 4.265 97.13716797 2.75 96.89453125 C-4.70668453 95.613976 -11.32615939 94.37705305 -17.25 89.375 C-17.88550781 88.84777344 -18.52101562 88.32054687 -19.17578125 87.77734375 C-24.38310552 83.04439271 -26.88737206 78.23327858 -27.54956055 71.18774414 C-27.68971891 67.47444111 -27.70830086 63.77829009 -27.6875 60.0625 C-27.70748047 58.80759766 -27.72746094 57.55269531 -27.74804688 56.25976562 C-27.74185496 44.37748586 -25.08456241 34.67018576 -16.875 25.8125 C-15.575625 24.6059375 -15.575625 24.6059375 -14.25 23.375 C-13.50169922 22.67117187 -13.50169922 22.67117187 -12.73828125 21.953125 C-9.58348906 19.12414258 -8.64338072 18.375 -4.25 18.375 C-4.7759375 17.199375 -4.7759375 17.199375 -5.3125 16 C-6.52230365 11.32209255 -6.30097899 7.08745417 -5.25 2.375 C-3.25 0.375 -3.25 0.375 0 0 Z M-2.25 3.375 C-4.00953998 8.36036328 -4.38835952 10.59513753 -2.25 15.375 C-2.625 18.1875 -2.625 18.1875 -3.25 20.375 C-4.095625 20.58125 -4.94125 20.7875 -5.8125 21 C-14.62730311 24.52592124 -19.37060681 31.78342287 -23.07470703 40.26293945 C-25.57818804 46.80063096 -25.69949187 52.99734036 -25.625 59.9375 C-25.63660156 61.02224609 -25.64820313 62.10699219 -25.66015625 63.22460938 C-25.6280369 72.04136985 -24.27325921 79.13955262 -18.09375 85.7734375 C-11.07978289 91.86607842 -2.36026223 93.88942765 6.75 94.375 C8.75910738 94.1018725 10.76434187 93.78521081 12.75 93.375 C12.36328125 93.8596875 11.9765625 94.344375 11.578125 94.84375 C6.98827811 100.75147372 2.70001425 106.77488603 1.75 114.375 C0.3578125 114.7771875 0.3578125 114.7771875 -1.0625 115.1875 C-4.85426068 116.47122603 -4.85426068 116.47122603 -7.25 119.375 C-7.57026414 122.88805609 -7.57026414 122.88805609 -6.25 126.375 C-2.44251263 129.48315296 0.08372671 130.73960692 5 130.3125 C8.56429906 129.58852584 8.56429906 129.58852584 10.8125 128.25 C12.6537159 124.5675682 11.10081367 120.50839802 9.9375 116.75 C9.75 114.375 9.75 114.375 11.4375 112 C12.200625 111.13375 12.96375 110.2675 13.75 109.375 C14.3275 108.3025 14.905 107.23 15.5 106.125 C18.14554916 101.35036347 21.70791156 97.03528953 25.75 93.375 C26.74 93.375 27.73 93.375 28.75 93.375 C28.75386719 94.22771484 28.75386719 94.22771484 28.7578125 95.09765625 C29.08426535 101.61583155 30.98269857 104.9881316 35.75 109.375 C37.94817808 111.23749086 37.94817808 111.23749086 39.75 112.375 C39.13722388 115.33675123 38.49627478 116.75558783 36.75 119.375 C36.95011437 122.0431916 37.42356768 123.83734677 38.8125 126.125 C41.88445568 128.10690689 45.1726173 128.38897415 48.75 128.375 C51.96615293 127.46608722 53.39040128 126.73459872 55.75 124.375 C55.67206954 119.38745069 52.63790339 116.7046288 49.3125 113.375 C44.13561749 108.15171777 41.89792729 104.54733781 41.20532227 97.203125 C41.07577904 95.84815918 41.07577904 95.84815918 40.94361877 94.46582031 C40.87972458 93.77584961 40.81583038 93.08587891 40.75 92.375 C41.53038635 92.37722061 42.31077271 92.37944122 43.11480713 92.38172913 C50.47163287 92.40177178 57.82844536 92.41699443 65.18529129 92.42681217 C68.96745214 92.43202924 72.74959042 92.43910557 76.53173828 92.45043945 C80.18216931 92.46131008 83.83257863 92.4672857 87.4830246 92.46987724 C88.87526542 92.47172395 90.26750506 92.4753301 91.65973663 92.48073006 C93.61071106 92.48799576 95.56170736 92.48840853 97.51269531 92.48852539 C98.6230011 92.490746 99.73330688 92.49296661 100.8772583 92.49525452 C103.37228831 92.39081121 105.36391561 92.03452838 107.75 91.375 C110.08175914 91.27971177 112.41629974 91.24513812 114.75 91.25 C115.41499512 91.2504834 116.07999023 91.2509668 116.76513672 91.25146484 C120.84211139 91.27977039 124.82594677 91.54650604 128.875 92 C136.64526466 92.7580746 144.23927986 91.36100773 151.75 89.375 C151.75 88.715 151.75 88.055 151.75 87.375 C152.41 87.375 153.07 87.375 153.75 87.375 C153.811875 88.096875 153.87375 88.81875 153.9375 89.5625 C154.99456647 93.22157625 156.95550071 94.86711602 159.75 97.375 C160.08 95.725 160.41 94.075 160.75 92.375 C161.41 92.375 162.07 92.375 162.75 92.375 C162.57082031 93.09945312 162.39164063 93.82390625 162.20703125 94.5703125 C160.79190003 100.75546452 160.79190003 100.75546452 161.9375 106.875 C163.43215352 108.93659106 164.82020145 110.72088695 166.75 112.375 C166.440625 113.055625 166.13125 113.73625 165.8125 114.4375 C164.59762487 117.79627242 164.01382122 120.81341356 163.75 124.375 C164.74 125.86 164.74 125.86 165.75 127.375 C170.23218108 127.79784727 173.78766352 127.57629804 177.75 125.375 C179.96330851 123.16169149 180.7379208 121.41048264 181.75 118.4375 C182.08007893 115.13612027 182.08007893 115.13612027 179.3125 112.5 C178.466875 111.79875 177.62125 111.0975 176.75 110.375 C175.76 110.705 174.77 111.035 173.75 111.375 C172.03878246 106.85349025 171.39776388 102.81882847 171.125 98 C171.01285156 96.13214844 171.01285156 96.13214844 170.8984375 94.2265625 C170.82496094 92.81503906 170.82496094 92.81503906 170.75 91.375 C175.39095399 90.47138746 179.90896862 90.18192747 184.625 90.1875 C185.69705688 90.1887085 185.69705688 90.1887085 186.79077148 90.18994141 C190.96066405 90.23857823 194.61320308 90.56880184 198.578125 91.796875 C207.2418619 94.10304957 217.80453688 95.65520939 226.75 94.375 C229.50609295 92.95455419 229.50609295 92.95455419 230.75 90.375 C231.55315654 87.23018209 231.55315654 87.23018209 231.75 84.375 C229.39031256 82.27750005 228.20383006 81.40594296 225 81.1875 C223.88625 81.2803125 223.88625 81.2803125 222.75 81.375 C223.28625 80.67375 223.8225 79.9725 224.375 79.25 C226.12179108 76.37803974 226.12179108 76.37803974 224.9375 73.0625 C224.3496875 71.7321875 224.3496875 71.7321875 223.75 70.375 C222.47125 70.313125 221.1925 70.25125 219.875 70.1875 C219.15570313 70.15269531 218.43640625 70.11789063 217.6953125 70.08203125 C217.05335938 70.17871094 216.41140625 70.27539062 215.75 70.375 C213.45986347 73.8102048 213.57157027 75.360331 213.75 79.375 C213.24621826 79.21273926 212.74243652 79.05047852 212.22338867 78.88330078 C208.87461468 78.19510145 205.57863906 78.2323198 202.17578125 78.2421875 C201.45134323 78.24123077 200.72690521 78.24027405 199.98051453 78.23928833 C198.45502637 78.23860967 196.92953529 78.240442 195.40405273 78.24462891 C193.06031899 78.250005 190.71677486 78.24466141 188.37304688 78.23828125 C186.89062458 78.23894163 185.40820239 78.24022196 183.92578125 78.2421875 C183.22165604 78.24016327 182.51753082 78.23813904 181.79206848 78.23605347 C178.48854243 77.96568088 178.48854243 77.96568088 175.75 79.375 C172.63450037 79.4895192 169.5421238 79.53890947 166.42578125 79.54296875 C165.46433197 79.5471582 164.50288269 79.55134766 163.51229858 79.55566406 C160.36232512 79.56552086 157.21248646 79.56544166 154.0625 79.5625 C152.99722076 79.56222809 151.93194153 79.56195618 150.8343811 79.56167603 C137.6834866 79.54617097 124.56380289 79.40356988 111.4375 78.5625 C110.27452393 78.49248779 109.11154785 78.42247559 107.91333008 78.3503418 C91.80904433 77.14681012 91.80904433 77.14681012 86.25390625 72.11328125 C84.51874015 68.95392687 83.56316946 66.06138706 82.6875 62.5625 C82.5225 61.91522949 82.3575 61.26795898 82.1875 60.60107422 C80.99079082 55.76901301 80.09990627 50.90276986 79.25 46 C78.20016405 39.97407133 76.6107543 34.78379458 73.75 29.375 C73.275625 28.281875 72.80125 27.18875 72.3125 26.0625 C70.52610628 22.9899028 68.69446043 21.33797362 65.75 19.375 C65.09 19.375 64.43 19.375 63.75 19.375 C63.976875 18.50875 64.20375 17.6425 64.4375 16.75 C64.88044757 11.9661663 63.11924882 9.33106975 60.4375 5.5 C57.76226447 3.71650965 55.88572432 3.9359986 52.75 4.375 C49.41238955 6.52590451 48.01529067 7.57912799 46.75 11.375 C47.14397335 14.01304589 47.14397335 14.01304589 47.75 16.375 C46.66992676 16.36976318 45.58985352 16.36452637 44.47705078 16.35913086 C40.47771022 16.34105892 36.47837328 16.32955993 32.47900391 16.32006836 C30.74657586 16.31503318 29.01415208 16.30820468 27.28173828 16.29956055 C24.79458567 16.28745935 22.30748913 16.28176362 19.8203125 16.27734375 C19.04317902 16.27218246 18.26604553 16.26702118 17.46536255 16.26170349 C13.47829094 16.17171948 13.47829094 16.17171948 9.75 17.375 C9.73582031 16.78332031 9.72164062 16.19164062 9.70703125 15.58203125 C9.44709683 11.27555016 9.12489196 8.89984874 6.5625 5.3125 C3.30300187 3.06706795 1.62547487 2.92436339 -2.25 3.375 Z " fill="#0C0C0C" transform="translate(188.25,154.625)"/>
<path d="M0 0 C2.6875 -0.3125 2.6875 -0.3125 6 0 C6.65484375 0.82371094 7.3096875 1.64742187 7.984375 2.49609375 C12.5652212 6.2996202 16.79729447 5.57827168 22.5625 5.375 C23.56474609 5.36082031 24.56699219 5.34664062 25.59960938 5.33203125 C30.47519469 5.2414631 35.34076995 5.04623593 40.20825195 4.75537109 C54.45235002 3.91878154 68.67682983 3.84573931 82.94213867 3.86962891 C85.67653585 3.87416195 88.4108666 3.87421517 91.14526367 3.86962891 C100.43094505 3.85414611 109.7147567 3.89399703 119 4 C120.89718781 4.01987976 120.89718781 4.01987976 122.83270264 4.04016113 C126.4714204 4.08922994 130.10817747 4.16795371 133.74609375 4.2578125 C135.34216209 4.27822098 135.34216209 4.27822098 136.97047424 4.29904175 C147.76141846 4.63593906 157.23194941 7.126133 165.1015625 14.796875 C168.08119031 18.25471468 170.07594107 21.88307979 172 26 C172.5878125 27.06347656 172.5878125 27.06347656 173.1875 28.1484375 C176.97476175 35.43365628 176.77162077 42.60176161 175.375 50.5625 C169.6875 64.78125 169.6875 64.78125 163.4375 67.625 C157.70072769 69.69064707 152.18507829 70.14951793 146.12109375 70.1328125 C145.35992249 70.13413177 144.59875122 70.13545105 143.81451416 70.1368103 C141.35546728 70.1387179 138.89653518 70.13241583 136.4375 70.125 C135.60618561 70.12411377 134.77487122 70.12322754 133.91836548 70.12231445 C121.58858811 70.10680173 109.30284848 69.87542505 97 69 C97 68.34 97 67.68 97 67 C96.29617188 67.16242188 95.59234375 67.32484375 94.8671875 67.4921875 C87.40965184 68.81300444 79.59253259 68.08414043 72.08203125 67.5078125 C66.67319889 67.13155169 61.29977248 66.9117425 55.87890625 66.859375 C21.79509958 66.48121764 21.79509958 66.48121764 10.8125 58.25 C9.32421875 56.69140625 9.32421875 56.69140625 8 55 C7.51144531 54.41089844 7.02289063 53.82179688 6.51953125 53.21484375 C2.55488966 47.4511211 2.40935902 41.64162749 2.45166016 34.85229492 C2.47029608 32.43228376 2.47029608 32.43228376 2 29 C0.13377036 27.1371129 0.13377036 27.1371129 -2 26 C-3.20745835 22.37762495 -3.22246029 19.0229405 -3.25 15.25 C-3.270625 14.5590625 -3.29125 13.868125 -3.3125 13.15625 C-3.35088173 8.05147958 -2.27330153 4.57053254 0 0 Z M3 3 C-0.71059486 9.13054803 -1.71075839 15.44620807 -0.3125 22.4375 C0.78058442 25.09159104 0.78058442 25.09159104 3 26.3125 C6.24734023 29.05244332 6.35310018 32.93985245 7 37 C9.64573501 34.77122275 9.64573501 34.77122275 12 32 C11.95502158 29.72476911 11.95502158 29.72476911 11 28 C12.32 27.34 13.64 26.68 15 26 C14.67 24.35 14.34 22.7 14 21 C14.99 21.99 15.98 22.98 17 24 C15.39680795 28.66383143 13.08350522 33.14135949 10 37 C9.30648438 37.30550781 8.61296875 37.61101562 7.8984375 37.92578125 C5.77741393 38.86585583 5.77741393 38.86585583 5.07421875 41.29296875 C4.97884902 44.77145414 5.96425246 46.39079722 7.8125 49.3125 C8.35519531 50.19550781 8.89789063 51.07851563 9.45703125 51.98828125 C9.96621094 52.65214844 10.47539062 53.31601562 11 54 C11.66 54 12.32 54 13 54 C13.33 54.99 13.66 55.98 14 57 C16.36401089 58.26080581 18.47896761 59.14504119 21 60 C21.81339844 60.28230469 22.62679688 60.56460938 23.46484375 60.85546875 C33.75725957 63.93020167 46.48210319 64.63478627 57 62 C57.53394179 60.5882217 58.05165104 59.17029756 58.5625 57.75 C58.85253906 56.96109375 59.14257812 56.1721875 59.44140625 55.359375 C60.0610168 52.74227867 59.94248701 51.4926979 59 49 C58.34 48.01 57.68 47.02 57 46 C57.53625 45.443125 58.0725 44.88625 58.625 44.3125 C59.07875 43.549375 59.5325 42.78625 60 42 C59.26145768 39.36186139 59.26145768 39.36186139 58 37 C58 36.34 58 35.68 58 35 C58.99 35.33 59.98 35.66 61 36 C61.94002987 40.38680608 61.74651537 43.61422219 61 48 C61.185625 48.804375 61.37125 49.60875 61.5625 50.4375 C62.16494838 53.96612624 61.00559799 56.60610677 60 60 C60.33 60.99 60.66 61.98 61 63 C62.06927734 63.09087891 62.06927734 63.09087891 63.16015625 63.18359375 C71.41188054 63.9054808 71.41188054 63.9054808 75.5 64.5625 C82.43977973 65.42997247 89.12334905 65.23427068 96 64 C96.66 64.33 97.32 64.66 98 65 C100.56845219 65.03037021 103.120762 64.93311185 105.6875 64.83984375 C108 65 108 65 110 67 C112.52377655 67.27808217 112.52377655 67.27808217 115.4453125 67.1953125 C116.52167969 67.18886719 117.59804688 67.18242187 118.70703125 67.17578125 C119.83496094 67.15902344 120.96289062 67.14226562 122.125 67.125 C123.26066406 67.11597656 124.39632812 67.10695313 125.56640625 67.09765625 C128.37781299 67.07403098 131.18880298 67.04109013 134 67 C134 66.34 134 65.68 134 65 C134.99 64.67 135.98 64.34 137 64 C138.56028793 61.15102982 139.46843274 58.20059445 140 55 C139.01919106 52.38017854 139.01919106 52.38017854 137 51 C136.34 51 135.68 51 135 51 C135.66 50.236875 136.32 49.47375 137 48.6875 C139.29850538 46.15722061 139.29850538 46.15722061 139 43 C137.56249809 41.31201173 137.56249809 41.31201173 136 40 C137.32 40.33 138.64 40.66 140 41 C140.90594807 43.61718331 140.98235878 45.10143704 140.5 47.875 C139.82038781 50.94518924 139.82038781 50.94518924 140.5625 53.75 C141.18730226 58.39138818 140.07980006 62.48447249 139 67 C149.65771916 67.35857747 158.40464935 67.06190317 166.59375 59.53515625 C171.66979043 54.24761413 174.03554301 48.43102855 173.9765625 41.078125 C172.70835554 30.19972752 166.40917284 21.74595342 159 14 C158.01 13.67 157.02 13.34 156 13 C154.39819908 16.38766195 154.39819908 16.38766195 154.125 20.0625 C154.8950733 22.17907441 154.8950733 22.17907441 157.0625 23.5625 C160.20275922 27.5131487 159.47149501 32.13046134 159 37 C158.67 37.66 158.34 38.32 158 39 C157.01 39.33 156.02 39.66 155 40 C155.165 38.9275 155.33 37.855 155.5 36.75 C156.3352003 30.76189263 156.3352003 30.76189263 155 25 C152.50965614 23.70339566 152.50965614 23.70339566 150 23 C150.99 19.7 151.98 16.4 153 13 C146.68439027 7.21069108 141.08633074 7.22890562 132.75 7.1875 C130.97496094 7.14979492 130.97496094 7.14979492 129.1640625 7.11132812 C125.10889692 7.03050193 121.05589005 7 117 7 C116.97111854 10.31248187 116.95324201 13.62493167 116.9375 16.9375 C116.92493164 18.35579102 116.92493164 18.35579102 116.91210938 19.80273438 C116.90727539 21.15141602 116.90727539 21.15141602 116.90234375 22.52734375 C116.89448853 23.77632446 116.89448853 23.77632446 116.88647461 25.05053711 C116.78356708 27.00516798 116.78356708 27.00516798 118 28 C118.26293056 32.03160191 118.29404844 33.55892734 116 37 C113.875 37.6875 113.875 37.6875 112 38 C113.75 34.125 113.75 34.125 116 33 C115.89171875 31.86111328 115.89171875 31.86111328 115.78125 30.69921875 C115.6884375 29.70535156 115.595625 28.71148437 115.5 27.6875 C115.4071875 26.70136719 115.314375 25.71523437 115.21875 24.69921875 C115 22 115 22 115 19 C114.34 19 113.68 19 113 19 C113.556875 17.63875 113.556875 17.63875 114.125 16.25 C115.25131743 13.16467339 115.25131743 13.16467339 114.375 10.75 C112.21694327 8.00338235 109.96584178 7.12449559 106.52636719 6.68115234 C105.62563477 6.64973145 104.72490234 6.61831055 103.796875 6.5859375 C102.8171875 6.54726562 101.8375 6.50859375 100.828125 6.46875 C99.30445313 6.42234375 99.30445313 6.42234375 97.75 6.375 C96.203125 6.31699219 96.203125 6.31699219 94.625 6.2578125 C92.0835106 6.16368326 89.54202567 6.07805021 87 6 C87.495 6.99 87.495 6.99 88 8 C88.66 8 89.32 8 90 8 C90.67228569 12.48190462 91.12701027 15.63283522 90 20 C90.29235267 22.33882138 90.62599214 24.67284 91 27 C91 28.32 91 29.64 91 31 C90.01 30.01 90.01 30.01 89 29 C89.2784375 27.824375 89.2784375 27.824375 89.5625 26.625 C90.29178752 23.94859806 90.29178752 23.94859806 88.6875 21.6875 C88.130625 21.130625 87.57375 20.57375 87 20 C86.34 20 85.68 20 85 20 C85.680625 19.443125 86.36125 18.88625 87.0625 18.3125 C89.25510881 16.18317288 89.25510881 16.18317288 89.0625 13.5 C87.56544541 9.97751862 86.33969805 8.96356171 83 7 C79.03453696 6.4431461 75.1217931 6.53050618 71.125 6.625 C70.0119751 6.63789063 68.8989502 6.65078125 67.75219727 6.6640625 C59.38070792 6.81952868 51.23850267 7.4996548 43 9 C43.04253906 10.093125 43.08507812 11.18625 43.12890625 12.3125 C43 16 43 16 40.9375 19 C38.43457181 22.87550172 39.20915027 24.57124149 40 29 C39.125 32.1875 39.125 32.1875 38 35 C37.65023242 36.32911682 37.30903983 37.66082739 37 39 C35.79371992 36.66785852 34.8345262 34.50357861 34 32 C34.639375 31.7525 35.27875 31.505 35.9375 31.25 C38.12493715 30.18550582 38.12493715 30.18550582 38.875 28.125 C39.02904228 25.50628117 38.24534014 24.27091436 37 22 C37 21.01 37 20.02 37 19 C39 17.3125 39 17.3125 41 16 C40.81171228 13.55519921 40.81171228 13.55519921 40 11 C36.96969085 8.99095526 34.40823739 8.73084337 30.82421875 8.65625 C29.83099609 8.62660156 28.83777344 8.59695312 27.81445312 8.56640625 C26.26661133 8.53353516 26.26661133 8.53353516 24.6875 8.5 C8.56797015 8.15378142 8.56797015 8.15378142 4.0625 4.375 C3.711875 3.92125 3.36125 3.4675 3 3 Z " fill="#111111" transform="translate(428,216)"/>
<path d="M0 0 C0.66 0 1.32 0 2 0 C2.27714844 0.56589844 2.55429687 1.13179687 2.83984375 1.71484375 C3.20207031 2.44832031 3.56429687 3.18179688 3.9375 3.9375 C4.29714844 4.66839844 4.65679687 5.39929688 5.02734375 6.15234375 C5.86371827 7.96249027 5.86371827 7.96249027 7 9 C7.66 7.68 8.32 6.36 9 5 C9.66 5 10.32 5 11 5 C10.89300781 5.72445312 10.78601563 6.44890625 10.67578125 7.1953125 C9.95368454 13.01867303 9.48060834 16.97229763 13 22 C14.56102491 23.81554159 14.56102491 23.81554159 16 25 C15.690625 25.680625 15.38125 26.36125 15.0625 27.0625 C13.8573559 30.39436899 13.33236849 33.47689403 13 37 C13.33 37.66 13.66 38.32 14 39 C20.31003416 39.30948111 20.31003416 39.30948111 26 37 C28.12531203 33.36640201 29.30923168 31.29315064 28.3125 27.125 C27.17648881 24.86909053 27.17648881 24.86909053 25 24 C25 23.34 25 22.68 25 22 C27.375 22.3125 27.375 22.3125 30 23 C32.30143236 26.45214853 32.13833854 27.23479324 31.625 31.1875 C31.51414062 32.08855469 31.40328125 32.98960937 31.2890625 33.91796875 C31.14597656 34.94857422 31.14597656 34.94857422 31 36 C33.97017694 35.37189827 33.97017694 35.37189827 37 34 C38.43923199 31.49004504 38.43923199 31.49004504 39 29 C38.01 28.01 38.01 28.01 37 27 C33.33333333 23.33333333 29.66666667 19.66666667 26 16 C26.33 15.01 26.66 14.02 27 13 C30.6057793 15.78160117 33.82112835 18.74165656 37 22 C37.94875 22.7425 38.8975 23.485 39.875 24.25 C42.21695644 27.28076716 42.33825464 27.96412869 42.125 31.625 C41.55323393 34.80677227 41.25148522 35.7559114 38.875 38.0625 C35.46836829 39.17335817 32.56321629 39.0672305 29 39 C28.01 39.99 28.01 39.99 27 41 C23.81961748 42.09281866 20.72034494 42.19589739 17.375 42.25 C16.41335938 42.27578125 15.45171875 42.3015625 14.4609375 42.328125 C13.64882813 42.21984375 12.83671875 42.1115625 12 42 C9.91817754 38.8772663 9.74592652 38.17155089 9.8125 34.625 C9.82539063 33.82964844 9.83828125 33.03429687 9.8515625 32.21484375 C10 30 10 30 10.6875 27.1875 C11.26475087 24.94485784 11.26475087 24.94485784 9.75 23.25 C9.1725 22.5075 8.595 21.765 8 21 C7.48352858 19.53344213 7.0081511 18.05210727 6.5625 16.5625 C5.35331658 12.65194937 3.72295762 10.09853798 1 7 C1 6.34 1 5.68 1 5 C-0.06879395 5.21547485 -0.06879395 5.21547485 -1.15917969 5.43530273 C-8.95850393 6.88708943 -16.33481369 7.19595766 -24.25 7.0625 C-27.10803953 7.03337212 -29.96606399 7.01700515 -32.82421875 7.00390625 C-33.6339061 6.99996857 -34.44359344 6.99603088 -35.27781677 6.99197388 C-48.79900234 6.95563185 -62.32040851 7.23850442 -75.83927917 7.46311569 C-78.06858778 7.500101 -80.2979034 7.5366318 -82.52722168 7.57302856 C-91.01820896 7.71180681 -99.50913365 7.8539852 -108 8 C-108.30545043 16.82140834 -102.68746875 21.81108389 -97 28 C-96.443125 28.50402344 -95.88625 29.00804687 -95.3125 29.52734375 C-94 31 -94 31 -93.5625 34.375 C-94.0870344 38.72114217 -94.54259675 40.28346887 -98 43 C-104.26661524 44.03012853 -110.46310546 43.24003321 -115.875 39.8125 C-117.6783531 36.90709778 -117.22691704 34.34702633 -117 31 C-116.690625 29.989375 -116.38125 28.97875 -116.0625 27.9375 C-115.65533293 25.01103925 -115.65533293 25.01103925 -117.421875 23.50390625 C-118.69481815 22.49133784 -119.9790329 21.49279767 -121.2734375 20.5078125 C-123.76687708 18.33028382 -124.37472555 16.1958472 -125 13 C-125 11.68 -125 10.36 -125 9 C-134.52537296 18.23039562 -134.52537296 18.23039562 -138.14453125 30.5234375 C-138.09108186 32.9922905 -137.99422844 35.46070345 -137.84765625 37.92578125 C-138 41 -138 41 -139.30859375 42.85546875 C-143.90982232 45.96900217 -149.68043461 45.58328568 -155 45 C-158.00197464 43.19881522 -159.45166366 42.09667268 -161 39 C-161.039992 37.00039988 -161.04346799 34.99952758 -161 33 C-160.01 32.505 -160.01 32.505 -159 32 C-158.690625 33.6396875 -158.690625 33.6396875 -158.375 35.3125 C-157.3295731 39.1178385 -157.3295731 39.1178385 -154.375 41 C-149.99681374 42.29724037 -147.45499375 41.96524864 -143 41 C-142.34 40.34 -141.68 39.68 -141 39 C-141.09695116 34.65805064 -141.09695116 34.65805064 -143 31 C-143.3125 28.6875 -143.3125 28.6875 -143 26 C-141.71340837 24.62150897 -140.37086915 23.29470975 -139 22 C-138.11501831 20.36114502 -137.23025777 18.72216929 -136.34765625 17.08203125 C-133.4629884 12.62542845 -129.6294308 8.85433143 -126 5 C-124.68 5.33 -123.36 5.66 -122 6 C-121.98582031 6.58007812 -121.97164062 7.16015625 -121.95703125 7.7578125 C-121.58093126 13.91772037 -120.41812751 16.68228448 -116 21 C-114.36927384 22.37705764 -112.7133562 23.72722111 -111 25 C-111.61277612 27.96175123 -112.25372522 29.38058783 -114 32 C-113.6758631 35.32240324 -113.39223697 36.60776303 -111 39 C-104.24291299 40.39107078 -104.24291299 40.39107078 -98 38 C-96.81417745 35.79164224 -96.81417745 35.79164224 -97 33 C-98.87155756 30.59583703 -100.64752518 28.60395524 -102.8125 26.5 C-110.91546688 18.46230443 -110.91546688 18.46230443 -111.05989075 12.54699707 C-111.04921822 11.20212219 -111.04921822 11.20212219 -111.03833008 9.83007812 C-111.03279617 8.9264856 -111.02726227 8.02289307 -111.02156067 7.09191895 C-111.01088814 6.05641907 -111.01088814 6.05641907 -111 5 C-109.82942047 4.9845388 -109.82942047 4.9845388 -108.63519287 4.96876526 C-101.27829231 4.87075936 -93.921475 4.76824052 -86.56470871 4.66066074 C-82.78258883 4.60551287 -79.00046111 4.55210604 -75.21826172 4.50268555 C-71.5677657 4.45492178 -67.91736147 4.40257493 -64.2669754 4.34705925 C-62.87476133 4.32669004 -61.48252214 4.30796813 -60.09026337 4.29092598 C-58.13921812 4.26676164 -56.18825555 4.2361803 -54.23730469 4.20532227 C-53.1269989 4.18977798 -52.01669312 4.1742337 -50.8727417 4.15821838 C-48.39747657 4.02189132 -46.3725925 3.64829219 -44 3 C-41.66824086 2.90471177 -39.33370026 2.87013812 -37 2.875 C-36.33210449 2.8754834 -35.66420898 2.8759668 -34.97607422 2.87646484 C-30.98245458 2.90409905 -27.08895548 3.16381958 -23.125 3.625 C-15.34175939 4.40332406 -7.69840513 3.1036813 0 2 C0 1.34 0 0.68 0 0 Z " fill="#060606" transform="translate(340,242)"/>
<path d="M0 0 C0.99 0.66 1.98 1.32 3 2 C3.41416399 4.58089562 3.43915839 7.076065 3.49609375 9.6875 C3.75093654 12.15574832 3.75093654 12.15574832 5.91015625 13.25 C6.59980469 13.4975 7.28945313 13.745 8 14 C8.99 14.495 8.99 14.495 10 15 C10.4560284 20.70035501 9.60412752 23.54784247 6 28 C2.85694562 29.57152719 -0.491274 29.14318589 -3.9375 29.125 C-4.66646484 29.12886719 -5.39542969 29.13273437 -6.14648438 29.13671875 C-9.35857736 29.1308304 -11.9321444 29.02261853 -15 28 C-17.58442587 27.60306464 -20.15507013 27.24779777 -22.75 26.9375 C-23.49628662 26.84807129 -24.24257324 26.75864258 -25.01147461 26.66650391 C-32.36149666 25.85181762 -39.61165651 25.80641895 -47 26 C-46.29783652 34.56639447 -43.39130136 38.48857187 -37 44 C-35.99040834 44.99031545 -34.98860509 45.98873348 -34 47 C-33.34 47.66 -32.68 48.32 -32 49 C-33.07401108 51.91517292 -33.77810176 53.77810176 -36 56 C-38.625 56.125 -38.625 56.125 -41 56 C-40.97679687 55.31292969 -40.95359375 54.62585938 -40.9296875 53.91796875 C-40.91164063 53.01691406 -40.89359375 52.11585938 -40.875 51.1875 C-40.85179687 50.29417969 -40.82859375 49.40085937 -40.8046875 48.48046875 C-40.81714173 45.74597286 -40.81714173 45.74597286 -43 43 C-46.465 43.495 -46.465 43.495 -50 44 C-52.7376287 39.32950485 -53.33996234 36.01200281 -53.1875 30.625 C-53.16042969 29.37976563 -53.13335937 28.13453125 -53.10546875 26.8515625 C-53.07066406 25.91054687 -53.03585937 24.96953125 -53 24 C-48.31724532 22.16190938 -44.10509666 21.6829161 -39.125 21.75 C-38.05294312 21.75797607 -38.05294312 21.75797607 -36.95922852 21.76611328 C-32.8042468 21.84118328 -29.12440972 22.19763858 -25.171875 23.421875 C-16.65912286 25.68785938 -5.78217255 27.46896052 3 26 C5.65341986 24.00254808 5.96457107 23.16426138 6.6875 19.8125 C6.790625 18.884375 6.89375 17.95625 7 17 C4.08235 15.0549 2.37462715 14.54723683 -1 14 C-0.649375 13.278125 -0.29875 12.55625 0.0625 11.8125 C1.10409017 8.6877295 0.89096572 7.11838004 0 4 C-2.64 4 -5.28 4 -8 4 C-8.66 6.64 -9.32 9.28 -10 12 C-11.11560303 11.99476318 -12.23120605 11.98952637 -13.38061523 11.98413086 C-17.50479333 11.96608225 -21.62896791 11.95456851 -25.75317383 11.94506836 C-27.54094021 11.94002782 -29.32870245 11.93319546 -31.11645508 11.92456055 C-33.68051168 11.9124827 -36.24451397 11.90676906 -38.80859375 11.90234375 C-39.6127623 11.89718246 -40.41693085 11.89202118 -41.24546814 11.88670349 C-43.16401715 11.88650785 -45.08245368 11.93798017 -47 12 C-47.33 12.33 -47.66 12.66 -48 13 C-50.00163877 13.0167793 -52.00394864 12.96262541 -54.00390625 12.87890625 C-55.21884766 12.83056641 -56.43378906 12.78222656 -57.68554688 12.73242188 C-58.96494141 12.67634766 -60.24433594 12.62027344 -61.5625 12.5625 C-62.84576172 12.51029297 -64.12902344 12.45808594 -65.45117188 12.40429688 C-68.63433391 12.2741304 -71.81722004 12.13914999 -75 12 C-74.67 11.34 -74.34 10.68 -74 10 C-72.69804687 9.93941406 -71.39609375 9.87882813 -70.0546875 9.81640625 C-68.32811601 9.73195438 -66.601554 9.64730874 -64.875 9.5625 C-64.0190625 9.52318359 -63.163125 9.48386719 -62.28125 9.44335938 C-61.02441406 9.38051758 -61.02441406 9.38051758 -59.7421875 9.31640625 C-58.9776123 9.27974854 -58.21303711 9.24309082 -57.42529297 9.20532227 C-54.92863887 9.03343972 -54.92863887 9.03343972 -52.21435547 8.48852539 C-48.40512911 7.90959011 -44.6701722 7.85650954 -40.828125 7.8671875 C-39.68268219 7.86575241 -39.68268219 7.86575241 -38.51409912 7.86428833 C-36.910603 7.8636113 -35.30710406 7.86543213 -33.70361328 7.86962891 C-31.24375326 7.87501367 -28.78407337 7.86965266 -26.32421875 7.86328125 C-24.76302043 7.86394154 -23.20182222 7.86522167 -21.640625 7.8671875 C-20.90418762 7.86516327 -20.16775024 7.86313904 -19.40899658 7.86105347 C-14.22996316 7.88501842 -14.22996316 7.88501842 -12 9 C-11.896875 8.071875 -11.79375 7.14375 -11.6875 6.1875 C-11 3 -11 3 -9.9375 1.125 C-6.83715034 -0.67520303 -3.49620463 -0.54275757 0 0 Z " fill="#0B0B0B" transform="translate(412,222)"/>
<path d="M0 0 C0.99 0.495 0.99 0.495 2 1 C2 1.66 2 2.32 2 3 C2.99 3.33 3.98 3.66 5 4 C6.00042031 5.66641441 7.00035171 7.33312236 8 9 C10.52167649 11.38874466 13.15624707 13.58862979 15.8203125 15.81640625 C17.99899144 17.99898964 18.8491344 18.95125775 19 22 C17.375 24.75 17.375 24.75 15 27 C12.3515625 27.140625 12.3515625 27.140625 10 27 C10.02320313 26.31292969 10.04640625 25.62585938 10.0703125 24.91796875 C10.08835937 24.01691406 10.10640625 23.11585938 10.125 22.1875 C10.15980469 20.84751953 10.15980469 20.84751953 10.1953125 19.48046875 C10.18285827 16.74597286 10.18285827 16.74597286 8 14 C6.7934375 13.8453125 6.7934375 13.8453125 5.5625 13.6875 C3 13 3 13 1.1875 10.375 C-0.10598655 6.69877506 -0.23209725 3.86828756 0 0 Z " fill="#E4E4E4" transform="translate(361,251)"/>
<path d="M0 0 C1.05960938 0.00676758 1.05960938 0.00676758 2.140625 0.01367188 C3.88545275 0.02546125 5.630237 0.04339676 7.375 0.0625 C7.045 1.0525 6.715 2.0425 6.375 3.0625 C4.92867187 3.10117188 4.92867187 3.10117188 3.453125 3.140625 C2.18984375 3.19734375 0.9265625 3.2540625 -0.375 3.3125 C-2.25445312 3.38210937 -2.25445312 3.38210937 -4.171875 3.453125 C-7.63804205 3.80895818 -7.63804205 3.80895818 -10.046875 5.79296875 C-11.9033934 8.46286279 -12.16394197 9.89768446 -12.125 13.125 C-12.1353125 13.98222656 -12.145625 14.83945313 -12.15625 15.72265625 C-11.80623196 18.15524515 -11.80623196 18.15524515 -10.015625 19.828125 C-6.90865827 21.43237579 -4.35669541 21.57591523 -0.875 21.75 C0.29546875 21.81574219 1.4659375 21.88148438 2.671875 21.94921875 C3.56390625 21.98660156 4.4559375 22.02398437 5.375 22.0625 C5.375 23.0525 5.375 24.0425 5.375 25.0625 C-8.16948924 25.49630926 -8.16948924 25.49630926 -13.25 21.91796875 C-16.40267332 17.66365106 -15.26855868 11.06470608 -14.625 6.0625 C-11.43071848 0.01702646 -6.13398025 -0.07356249 0 0 Z " fill="#101010" transform="translate(200.625,193.9375)"/>
<path d="M0 0 C1.32 0.66 2.64 1.32 4 2 C2.8656185 9.94067053 -2.50728227 15.50728227 -8 21 C-8.66 21.33 -9.32 21.66 -10 22 C-10 18.04 -10 14.08 -10 10 C-9.34 10 -8.68 10 -8 10 C-7.34 11.32 -6.68 12.64 -6 14 C-4.37168238 12.19038423 -4.37168238 12.19038423 -3 10 C-3.33 9.01 -3.66 8.02 -4 7 C-2.35 6.34 -0.7 5.68 1 5 C0.67 3.35 0.34 1.7 0 0 Z " fill="#010101" transform="translate(442,237)"/>
<path d="M0 0 C0.66 0.33 1.32 0.66 2 1 C1.319375 1.845625 0.63875 2.69125 -0.0625 3.5625 C-2.43065395 7.76406347 -1.82658451 9.37112672 -1 14 C-1.875 17.1875 -1.875 17.1875 -3 20 C-3.34976758 21.32911682 -3.69096017 22.66082739 -4 24 C-4.99 24 -5.98 24 -7 24 C-7 23.01 -7 22.02 -7 21 C-7.66 20.34 -8.32 19.68 -9 19 C-8.13375 18.154375 -7.2675 17.30875 -6.375 16.4375 C-4.93020894 14.85540789 -4.93020894 14.85540789 -4 13 C-4.53219091 9.17352608 -4.53219091 9.17352608 -6 6 C-4.02 4.02 -2.04 2.04 0 0 Z " fill="#000000" transform="translate(470,231)"/>
<path d="M0 0 C1.65 0.33 3.3 0.66 5 1 C5.90594807 3.61718331 5.98235878 5.10143704 5.5 7.875 C4.96376636 11.22646028 5.41081278 13.68582189 6 17 C5.67 17.99 5.34 18.98 5 20 C4.01 19.67 3.02 19.34 2 19 C2.2475 18.4225 2.495 17.845 2.75 17.25 C2.8325 16.5075 2.915 15.765 3 15 C1.14567913 12.72855926 1.14567913 12.72855926 -1 11 C0.33333333 8.33333333 1.66666667 5.66666667 3 3 C2.01 2.67 1.02 2.34 0 2 C0 1.34 0 0.68 0 0 Z " fill="#000000" transform="translate(564,256)"/>
<path d="M0 0 C1.19882813 0.00483398 1.19882813 0.00483398 2.421875 0.00976562 C3.246875 0.01814453 4.071875 0.02652344 4.921875 0.03515625 C5.76234375 0.03966797 6.6028125 0.04417969 7.46875 0.04882812 C9.53648901 0.06057664 11.60419124 0.07851103 13.671875 0.09765625 C13.341875 1.08765625 13.011875 2.07765625 12.671875 3.09765625 C5.741875 3.09765625 -1.188125 3.09765625 -8.328125 3.09765625 C-8.328125 2.43765625 -8.328125 1.77765625 -8.328125 1.09765625 C-5.47652109 0.28331482 -2.96186369 -0.02115617 0 0 Z " fill="#161616" transform="translate(201.328125,225.90234375)"/>
<path d="M0 0 C0.66 0.33 1.32 0.66 2 1 C1.814375 1.515625 1.62875 2.03125 1.4375 2.5625 C0.83752918 5.1713937 0.83752918 5.1713937 1.5 8.5 C1.93772143 11.56405002 2.02210188 13.16082812 1 16 C0.01 15.67 -0.98 15.34 -2 15 C-1.773125 14.113125 -1.54625 13.22625 -1.3125 12.3125 C-0.94548054 8.42209376 -1.73118159 7.08559304 -4 4 C-2.68 2.68 -1.36 1.36 0 0 Z " fill="#000000" transform="translate(518,231)"/>
<path d="M0 0 C0.33 0 0.66 0 1 0 C1 2.97 1 5.94 1 9 C0.01 9 -0.98 9 -2 9 C-1.125 1.125 -1.125 1.125 0 0 Z " fill="#000000" transform="translate(602,255)"/>
</svg>
