<?xml version="1.0" encoding="UTF-8"?>
<svg version="1.1" xmlns="http://www.w3.org/2000/svg" width="800" height="300">
<path d="M0 0 C264 0 528 0 800 0 C800 99 800 198 800 300 C536 300 272 300 0 300 C0 201 0 102 0 0 Z " fill="#FEFEFE" transform="translate(0,0)"/>
<path d="M0 0 C4.42348853 0.44234885 6.39873151 1.49135037 9.75 4.375 C11.34381802 7.34529722 11.75 8.99889977 11.75 12.375 C15.35636233 13.50296398 18.72144004 13.48916035 22.484375 13.47265625 C24.42763672 13.46782227 24.42763672 13.46782227 26.41015625 13.46289062 C27.77343817 13.45453598 29.13671942 13.44607104 30.5 13.4375 C31.87890465 13.43248168 33.25781104 13.42791935 34.63671875 13.42382812 C38.00785659 13.41204093 41.37890628 13.39558635 44.75 13.375 C44.67845703 12.23804688 44.67845703 12.23804688 44.60546875 11.078125 C44.82345765 7.00114345 46.97169253 5.21791927 49.75 2.375 C53.4772844 1.13257187 55.83140751 0.84366542 59.75 1.375 C64.80205409 5.03773921 66.2075033 9.40631962 67.203125 15.3203125 C68.06214897 18.54778826 70.34630601 20.13900559 72.75 22.375 C79.17034267 31.93961605 81.30678944 42.36784167 83.12304688 53.55859375 C84.29563641 60.24088221 85.80925057 67.43425057 90.75 72.375 C93.07275177 72.77547444 95.40739357 73.1147104 97.75 73.375 C97.75 74.035 97.75 74.695 97.75 75.375 C112.2965982 76.22188769 126.79647873 76.53347645 141.36694336 76.50537109 C144.73620934 76.49992121 148.10534694 76.50540245 151.47460938 76.51171875 C153.63802112 76.5110593 155.8014328 76.5097809 157.96484375 76.5078125 C158.96168686 76.50983673 159.95852997 76.51186096 160.98558044 76.51394653 C165.71515419 76.49796419 170.08424878 76.19739939 174.75 75.375 C177.48316398 75.28343382 180.18952526 75.23459365 182.921875 75.2421875 C184.06731781 75.24075241 184.06731781 75.24075241 185.23590088 75.23928833 C186.839397 75.2386113 188.44289594 75.24043213 190.04638672 75.24462891 C192.50624674 75.25001367 194.96592663 75.24465266 197.42578125 75.23828125 C198.98697957 75.23894154 200.54817778 75.24022167 202.109375 75.2421875 C202.84581238 75.24016327 203.58224976 75.23813904 204.34100342 75.23605347 C209.52003684 75.26001842 209.52003684 75.26001842 211.75 76.375 C211.853125 75.446875 211.95625 74.51875 212.0625 73.5625 C212.75 70.375 212.75 70.375 213.8125 68.5 C216.91284966 66.69979697 220.25379537 66.83224243 223.75 67.375 C224.74 68.035 225.73 68.695 226.75 69.375 C227.16416399 71.95589562 227.18915839 74.451065 227.24609375 77.0625 C227.50093654 79.53074832 227.50093654 79.53074832 229.66015625 80.625 C230.34980469 80.8725 231.03945313 81.12 231.75 81.375 C232.41 81.705 233.07 82.035 233.75 82.375 C234.2060284 88.07535501 233.35412752 90.92284247 229.75 95.375 C226.60694562 96.94652719 223.258726 96.51818589 219.8125 96.5 C219.08353516 96.50386719 218.35457031 96.50773437 217.60351562 96.51171875 C214.39142264 96.5058304 211.8178556 96.39761853 208.75 95.375 C206.16557413 94.97806464 203.59492987 94.62279777 201 94.3125 C200.25371338 94.22307129 199.50742676 94.13364258 198.73852539 94.04150391 C191.38850334 93.22681762 184.13834349 93.18141895 176.75 93.375 C177.50259348 98.28321833 179.05712391 100.01783992 182.75 103.375 C183.575 104.220625 184.4 105.06625 185.25 105.9375 C187.71390408 108.42157581 187.71390408 108.42157581 190.5 110.5625 C192.75 112.375 192.75 112.375 193.75 114.375 C193.83225936 117.47147751 193.5403617 120.37821189 192.75 123.375 C189.80395609 126.23439556 188.1639423 126.36798403 184.0625 126.4375 C182.969375 126.416875 181.87625 126.39625 180.75 126.375 C180.09 127.035 179.43 127.695 178.75 128.375 C175.56961748 129.46781866 172.47034494 129.57089739 169.125 129.625 C167.68253906 129.66367187 167.68253906 129.66367187 166.2109375 129.703125 C164.99277344 129.54070312 164.99277344 129.54070312 163.75 129.375 C161.66817754 126.2522663 161.49592652 125.54655089 161.5625 122 C161.57539063 121.20464844 161.58828125 120.40929687 161.6015625 119.58984375 C161.75 117.375 161.75 117.375 162.4375 114.5625 C163.01475087 112.31985784 163.01475087 112.31985784 161.5 110.625 C160.9225 109.8825 160.345 109.14 159.75 108.375 C159.23352858 106.90844213 158.7581511 105.42710727 158.3125 103.9375 C157.10331658 100.02694937 155.47295762 97.47353798 152.75 94.375 C152.75 93.715 152.75 93.055 152.75 92.375 C152.0374707 92.5186499 151.32494141 92.6622998 150.59082031 92.81030273 C142.79149607 94.26208943 135.41518631 94.57095766 127.5 94.4375 C124.64196047 94.40837212 121.78393601 94.39200515 118.92578125 94.37890625 C118.1160939 94.37496857 117.30640656 94.37103088 116.47218323 94.36697388 C102.95099766 94.33063185 89.42959149 94.61350442 75.91072083 94.83811569 C73.68141222 94.875101 71.4520966 94.9116318 69.22277832 94.94802856 C60.73179104 95.08680681 52.24086635 95.2289852 43.75 95.375 C43.44454957 104.19640834 49.06253125 109.18608389 54.75 115.375 C55.306875 115.87902344 55.86375 116.38304687 56.4375 116.90234375 C57.75 118.375 57.75 118.375 58.1875 121.75 C57.6629656 126.09614217 57.20740325 127.65846887 53.75 130.375 C47.48338476 131.40512853 41.28689454 130.61503321 35.875 127.1875 C34.0716469 124.28209778 34.52308296 121.72202633 34.75 118.375 C35.059375 117.364375 35.36875 116.35375 35.6875 115.3125 C36.09466707 112.38603925 36.09466707 112.38603925 34.328125 110.87890625 C33.05518185 109.86633784 31.7709671 108.86779767 30.4765625 107.8828125 C27.98312292 105.70528382 27.37527445 103.5708472 26.75 100.375 C26.75 99.055 26.75 97.735 26.75 96.375 C17.22462704 105.60539562 17.22462704 105.60539562 13.60546875 117.8984375 C13.65891814 120.3672905 13.75577156 122.83570345 13.90234375 125.30078125 C13.75 128.375 13.75 128.375 12.44140625 130.23046875 C7.84017768 133.34400217 2.06956539 132.95828568 -3.25 132.375 C-6.25197464 130.57381522 -7.70166366 129.47167268 -9.25 126.375 C-9.82111477 119.40739978 -9.82111477 119.40739978 -7.625 115.4375 C-4.80599012 112.98941247 -2.92852334 112.62580841 0.75 112.375 C0.6984375 111.65957031 0.646875 110.94414062 0.59375 110.20703125 C0.77602747 106.90325219 1.70027242 104.96823922 3.25 102.0625 C3.94609375 100.73798828 3.94609375 100.73798828 4.65625 99.38671875 C5.0171875 98.72285156 5.378125 98.05898437 5.75 97.375 C4.265 97.13716797 4.265 97.13716797 2.75 96.89453125 C-4.70668453 95.613976 -11.32615939 94.37705305 -17.25 89.375 C-17.88550781 88.84777344 -18.52101562 88.32054687 -19.17578125 87.77734375 C-24.38310552 83.04439271 -26.88737206 78.23327858 -27.54956055 71.18774414 C-27.68971891 67.47444111 -27.70830086 63.77829009 -27.6875 60.0625 C-27.70748047 58.80759766 -27.72746094 57.55269531 -27.74804688 56.25976562 C-27.74185496 44.37748586 -25.08456241 34.67018576 -16.875 25.8125 C-15.575625 24.6059375 -15.575625 24.6059375 -14.25 23.375 C-13.50169922 22.67117187 -13.50169922 22.67117187 -12.73828125 21.953125 C-9.58348906 19.12414258 -8.64338072 18.375 -4.25 18.375 C-4.7759375 17.199375 -4.7759375 17.199375 -5.3125 16 C-6.52230365 11.32209255 -6.30097899 7.08745417 -5.25 2.375 C-3.25 0.375 -3.25 0.375 0 0 Z " fill="#F9F9F9" transform="translate(188.25,154.625)"/>
<path d="M0 0 C2.8125 -0.1875 2.8125 -0.1875 6 0 C7 1 8 2 9 3 C15.47083003 5.07525149 21.41141432 5.24994212 28.16796875 5.16015625 C29.2571611 5.15463745 30.34635345 5.14911865 31.46855164 5.14343262 C33.8178252 5.13109227 36.16707948 5.11448167 38.51629639 5.09402466 C44.77770738 5.04025787 51.03917966 5.01861565 57.30078125 5 C59.23244141 4.9937838 59.23244141 4.9937838 61.203125 4.98744202 C77.41229646 4.95866797 93.61370822 5.33435472 109.81713867 5.73266602 C110.89429642 5.75735962 111.97145416 5.78205322 113.08125305 5.80749512 C115.09527242 5.85391321 117.10919602 5.90477372 119.12297058 5.96081543 C120.44631157 5.99096741 120.44631157 5.99096741 121.79638672 6.02172852 C122.56457733 6.04171402 123.33276794 6.06169952 124.12423706 6.08229065 C126.0924287 6.12361173 126.0924287 6.12361173 128 5 C131.03566911 4.76089183 134.08095166 4.81479913 137.125 4.8125 C138.37023437 4.79413086 138.37023437 4.79413086 139.640625 4.77539062 C146.3283327 4.75966717 153.1906553 5.34226445 159 9 C159.42667969 9.46148437 159.85335937 9.92296875 160.29296875 10.3984375 C162.9975484 12.93591497 166.33120593 14.35011728 169.625 16.01171875 C174.01917804 19.69039741 174.99427916 24.83672162 175.6171875 30.3671875 C175.72209306 31.86858663 175.80765993 33.37144759 175.875 34.875 C175.91254395 35.66366455 175.95008789 36.4523291 175.98876953 37.26489258 C176.27663329 46.52514559 174.29214193 54.04285919 168 61 C162.69554711 66.38085279 158.19286413 67.70523678 150.71362305 67.88330078 C149.57062744 67.88056152 148.42763184 67.87782227 147.25 67.875 C146.0535083 67.8941748 144.8570166 67.91334961 143.62426758 67.93310547 C140.0824586 67.98283335 136.54211111 67.99384427 133 68 C131.18616451 68.02360067 129.37235524 68.04939485 127.55859375 68.078125 C114.02532285 68.24209193 100.1544274 68.25064747 86.72265625 66.47265625 C78.59603524 65.44083973 70.49840803 65.91088485 62.375 66.78125 C56.14473547 67.35509015 49.86288457 66.66520367 43.63769531 66.25537109 C41.63908688 66.12591247 39.63984991 66.00628024 37.640625 65.88671875 C36.36960937 65.80292969 35.09859375 65.71914063 33.7890625 65.6328125 C32.63100098 65.55949707 31.47293945 65.48618164 30.27978516 65.41064453 C26.94747647 64.99342381 24.14301003 64.16096136 21 63 C19.865625 62.62875 18.73125 62.2575 17.5625 61.875 C10.70420537 58.84035636 6.45523899 52.07424207 3.69140625 45.35546875 C2.95117812 42.83367463 2.71897532 40.55745849 2.5625 37.9375 C2.27383191 33.27551038 0.83709453 30.65071581 -1.7890625 26.86328125 C-4.96470506 21.97688932 -6.0453083 15.71367548 -5 10 C-3.57222581 6.52259876 -1.86966857 3.25856521 0 0 Z " fill="#646464" transform="translate(429,216)"/>
<path d="M0 0 C4.42348853 0.44234885 6.39873151 1.49135037 9.75 4.375 C11.34381802 7.34529722 11.75 8.99889977 11.75 12.375 C15.35636233 13.50296398 18.72144004 13.48916035 22.484375 13.47265625 C24.42763672 13.46782227 24.42763672 13.46782227 26.41015625 13.46289062 C27.77343817 13.45453598 29.13671942 13.44607104 30.5 13.4375 C31.87890465 13.43248168 33.25781104 13.42791935 34.63671875 13.42382812 C38.00785659 13.41204093 41.37890628 13.39558635 44.75 13.375 C44.67845703 12.23804688 44.67845703 12.23804688 44.60546875 11.078125 C44.82345765 7.00114345 46.97169253 5.21791927 49.75 2.375 C53.4772844 1.13257187 55.83140751 0.84366542 59.75 1.375 C64.80205409 5.03773921 66.2075033 9.40631962 67.203125 15.3203125 C68.06214897 18.54778826 70.34630601 20.13900559 72.75 22.375 C79.17034267 31.93961605 81.30678944 42.36784167 83.12304688 53.55859375 C84.29563641 60.24088221 85.80925057 67.43425057 90.75 72.375 C93.07275177 72.77547444 95.40739357 73.1147104 97.75 73.375 C97.75 74.035 97.75 74.695 97.75 75.375 C112.2965982 76.22188769 126.79647873 76.53347645 141.36694336 76.50537109 C144.73620934 76.49992121 148.10534694 76.50540245 151.47460938 76.51171875 C153.63802112 76.5110593 155.8014328 76.5097809 157.96484375 76.5078125 C158.96168686 76.50983673 159.95852997 76.51186096 160.98558044 76.51394653 C165.71515419 76.49796419 170.08424878 76.19739939 174.75 75.375 C177.48316398 75.28343382 180.18952526 75.23459365 182.921875 75.2421875 C184.06731781 75.24075241 184.06731781 75.24075241 185.23590088 75.23928833 C186.839397 75.2386113 188.44289594 75.24043213 190.04638672 75.24462891 C192.50624674 75.25001367 194.96592663 75.24465266 197.42578125 75.23828125 C198.98697957 75.23894154 200.54817778 75.24022167 202.109375 75.2421875 C202.84581238 75.24016327 203.58224976 75.23813904 204.34100342 75.23605347 C209.52003684 75.26001842 209.52003684 75.26001842 211.75 76.375 C211.853125 75.446875 211.95625 74.51875 212.0625 73.5625 C212.75 70.375 212.75 70.375 213.8125 68.5 C216.91284966 66.69979697 220.25379537 66.83224243 223.75 67.375 C224.74 68.035 225.73 68.695 226.75 69.375 C227.16416399 71.95589562 227.18915839 74.451065 227.24609375 77.0625 C227.50093654 79.53074832 227.50093654 79.53074832 229.66015625 80.625 C230.34980469 80.8725 231.03945313 81.12 231.75 81.375 C232.41 81.705 233.07 82.035 233.75 82.375 C234.2060284 88.07535501 233.35412752 90.92284247 229.75 95.375 C226.60694562 96.94652719 223.258726 96.51818589 219.8125 96.5 C219.08353516 96.50386719 218.35457031 96.50773437 217.60351562 96.51171875 C214.39142264 96.5058304 211.8178556 96.39761853 208.75 95.375 C206.16557413 94.97806464 203.59492987 94.62279777 201 94.3125 C200.25371338 94.22307129 199.50742676 94.13364258 198.73852539 94.04150391 C191.38850334 93.22681762 184.13834349 93.18141895 176.75 93.375 C177.50259348 98.28321833 179.05712391 100.01783992 182.75 103.375 C183.575 104.220625 184.4 105.06625 185.25 105.9375 C187.71390408 108.42157581 187.71390408 108.42157581 190.5 110.5625 C192.75 112.375 192.75 112.375 193.75 114.375 C193.83225936 117.47147751 193.5403617 120.37821189 192.75 123.375 C189.80395609 126.23439556 188.1639423 126.36798403 184.0625 126.4375 C182.969375 126.416875 181.87625 126.39625 180.75 126.375 C180.09 127.035 179.43 127.695 178.75 128.375 C175.56961748 129.46781866 172.47034494 129.57089739 169.125 129.625 C167.68253906 129.66367187 167.68253906 129.66367187 166.2109375 129.703125 C164.99277344 129.54070312 164.99277344 129.54070312 163.75 129.375 C161.66817754 126.2522663 161.49592652 125.54655089 161.5625 122 C161.57539063 121.20464844 161.58828125 120.40929687 161.6015625 119.58984375 C161.75 117.375 161.75 117.375 162.4375 114.5625 C163.01475087 112.31985784 163.01475087 112.31985784 161.5 110.625 C160.9225 109.8825 160.345 109.14 159.75 108.375 C159.23352858 106.90844213 158.7581511 105.42710727 158.3125 103.9375 C157.10331658 100.02694937 155.47295762 97.47353798 152.75 94.375 C152.75 93.715 152.75 93.055 152.75 92.375 C152.0374707 92.5186499 151.32494141 92.6622998 150.59082031 92.81030273 C142.79149607 94.26208943 135.41518631 94.57095766 127.5 94.4375 C124.64196047 94.40837212 121.78393601 94.39200515 118.92578125 94.37890625 C118.1160939 94.37496857 117.30640656 94.37103088 116.47218323 94.36697388 C102.95099766 94.33063185 89.42959149 94.61350442 75.91072083 94.83811569 C73.68141222 94.875101 71.4520966 94.9116318 69.22277832 94.94802856 C60.73179104 95.08680681 52.24086635 95.2289852 43.75 95.375 C43.44454957 104.19640834 49.06253125 109.18608389 54.75 115.375 C55.306875 115.87902344 55.86375 116.38304687 56.4375 116.90234375 C57.75 118.375 57.75 118.375 58.1875 121.75 C57.6629656 126.09614217 57.20740325 127.65846887 53.75 130.375 C47.48338476 131.40512853 41.28689454 130.61503321 35.875 127.1875 C34.0716469 124.28209778 34.52308296 121.72202633 34.75 118.375 C35.059375 117.364375 35.36875 116.35375 35.6875 115.3125 C36.09466707 112.38603925 36.09466707 112.38603925 34.328125 110.87890625 C33.05518185 109.86633784 31.7709671 108.86779767 30.4765625 107.8828125 C27.98312292 105.70528382 27.37527445 103.5708472 26.75 100.375 C26.75 99.055 26.75 97.735 26.75 96.375 C17.22462704 105.60539562 17.22462704 105.60539562 13.60546875 117.8984375 C13.65891814 120.3672905 13.75577156 122.83570345 13.90234375 125.30078125 C13.75 128.375 13.75 128.375 12.44140625 130.23046875 C7.84017768 133.34400217 2.06956539 132.95828568 -3.25 132.375 C-6.25197464 130.57381522 -7.70166366 129.47167268 -9.25 126.375 C-9.82111477 119.40739978 -9.82111477 119.40739978 -7.625 115.4375 C-4.80599012 112.98941247 -2.92852334 112.62580841 0.75 112.375 C0.6984375 111.65957031 0.646875 110.94414062 0.59375 110.20703125 C0.77602747 106.90325219 1.70027242 104.96823922 3.25 102.0625 C3.94609375 100.73798828 3.94609375 100.73798828 4.65625 99.38671875 C5.0171875 98.72285156 5.378125 98.05898437 5.75 97.375 C4.265 97.13716797 4.265 97.13716797 2.75 96.89453125 C-4.70668453 95.613976 -11.32615939 94.37705305 -17.25 89.375 C-17.88550781 88.84777344 -18.52101562 88.32054687 -19.17578125 87.77734375 C-24.38310552 83.04439271 -26.88737206 78.23327858 -27.54956055 71.18774414 C-27.68971891 67.47444111 -27.70830086 63.77829009 -27.6875 60.0625 C-27.70748047 58.80759766 -27.72746094 57.55269531 -27.74804688 56.25976562 C-27.74185496 44.37748586 -25.08456241 34.67018576 -16.875 25.8125 C-15.575625 24.6059375 -15.575625 24.6059375 -14.25 23.375 C-13.50169922 22.67117187 -13.50169922 22.67117187 -12.73828125 21.953125 C-9.58348906 19.12414258 -8.64338072 18.375 -4.25 18.375 C-4.7759375 17.199375 -4.7759375 17.199375 -5.3125 16 C-6.52230365 11.32209255 -6.30097899 7.08745417 -5.25 2.375 C-3.25 0.375 -3.25 0.375 0 0 Z M-2.25 3.375 C-4.00953998 8.36036328 -4.38835952 10.59513753 -2.25 15.375 C-2.625 18.1875 -2.625 18.1875 -3.25 20.375 C-4.095625 20.58125 -4.94125 20.7875 -5.8125 21 C-14.62730311 24.52592124 -19.37060681 31.78342287 -23.07470703 40.26293945 C-25.57818804 46.80063096 -25.69949187 52.99734036 -25.625 59.9375 C-25.63660156 61.02224609 -25.64820313 62.10699219 -25.66015625 63.22460938 C-25.6280369 72.04136985 -24.27325921 79.13955262 -18.09375 85.7734375 C-11.07978289 91.86607842 -2.36026223 93.88942765 6.75 94.375 C8.75910738 94.1018725 10.76434187 93.78521081 12.75 93.375 C12.36328125 93.8596875 11.9765625 94.344375 11.578125 94.84375 C6.98827811 100.75147372 2.70001425 106.77488603 1.75 114.375 C0.3578125 114.7771875 0.3578125 114.7771875 -1.0625 115.1875 C-4.85426068 116.47122603 -4.85426068 116.47122603 -7.25 119.375 C-7.57026414 122.88805609 -7.57026414 122.88805609 -6.25 126.375 C-2.44251263 129.48315296 0.08372671 130.73960692 5 130.3125 C8.56429906 129.58852584 8.56429906 129.58852584 10.8125 128.25 C12.6537159 124.5675682 11.10081367 120.50839802 9.9375 116.75 C9.75 114.375 9.75 114.375 11.4375 112 C12.200625 111.13375 12.96375 110.2675 13.75 109.375 C14.3275 108.3025 14.905 107.23 15.5 106.125 C18.14554916 101.35036347 21.70791156 97.03528953 25.75 93.375 C26.74 93.375 27.73 93.375 28.75 93.375 C28.75386719 94.22771484 28.75386719 94.22771484 28.7578125 95.09765625 C29.08426535 101.61583155 30.98269857 104.9881316 35.75 109.375 C37.94817808 111.23749086 37.94817808 111.23749086 39.75 112.375 C39.13722388 115.33675123 38.49627478 116.75558783 36.75 119.375 C36.95011437 122.0431916 37.42356768 123.83734677 38.8125 126.125 C41.88445568 128.10690689 45.1726173 128.38897415 48.75 128.375 C51.96615293 127.46608722 53.39040128 126.73459872 55.75 124.375 C55.67206954 119.38745069 52.63790339 116.7046288 49.3125 113.375 C44.13561749 108.15171777 41.89792729 104.54733781 41.20532227 97.203125 C41.07577904 95.84815918 41.07577904 95.84815918 40.94361877 94.46582031 C40.87972458 93.77584961 40.81583038 93.08587891 40.75 92.375 C41.53038635 92.37722061 42.31077271 92.37944122 43.11480713 92.38172913 C50.47163287 92.40177178 57.82844536 92.41699443 65.18529129 92.42681217 C68.96745214 92.43202924 72.74959042 92.43910557 76.53173828 92.45043945 C80.18216931 92.46131008 83.83257863 92.4672857 87.4830246 92.46987724 C88.87526542 92.47172395 90.26750506 92.4753301 91.65973663 92.48073006 C93.61071106 92.48799576 95.56170736 92.48840853 97.51269531 92.48852539 C98.6230011 92.490746 99.73330688 92.49296661 100.8772583 92.49525452 C103.37228831 92.39081121 105.36391561 92.03452838 107.75 91.375 C110.08175914 91.27971177 112.41629974 91.24513812 114.75 91.25 C115.41499512 91.2504834 116.07999023 91.2509668 116.76513672 91.25146484 C120.84211139 91.27977039 124.82594677 91.54650604 128.875 92 C136.64526466 92.7580746 144.23927986 91.36100773 151.75 89.375 C151.75 88.715 151.75 88.055 151.75 87.375 C152.41 87.375 153.07 87.375 153.75 87.375 C153.811875 88.096875 153.87375 88.81875 153.9375 89.5625 C154.99456647 93.22157625 156.95550071 94.86711602 159.75 97.375 C160.08 95.725 160.41 94.075 160.75 92.375 C161.41 92.375 162.07 92.375 162.75 92.375 C162.57082031 93.09945312 162.39164063 93.82390625 162.20703125 94.5703125 C160.79190003 100.75546452 160.79190003 100.75546452 161.9375 106.875 C163.43215352 108.93659106 164.82020145 110.72088695 166.75 112.375 C166.440625 113.055625 166.13125 113.73625 165.8125 114.4375 C164.59762487 117.79627242 164.01382122 120.81341356 163.75 124.375 C164.74 125.86 164.74 125.86 165.75 127.375 C170.23218108 127.79784727 173.78766352 127.57629804 177.75 125.375 C179.96330851 123.16169149 180.7379208 121.41048264 181.75 118.4375 C182.08007893 115.13612027 182.08007893 115.13612027 179.3125 112.5 C178.466875 111.79875 177.62125 111.0975 176.75 110.375 C175.76 110.705 174.77 111.035 173.75 111.375 C172.03878246 106.85349025 171.39776388 102.81882847 171.125 98 C171.01285156 96.13214844 171.01285156 96.13214844 170.8984375 94.2265625 C170.82496094 92.81503906 170.82496094 92.81503906 170.75 91.375 C175.39095399 90.47138746 179.90896862 90.18192747 184.625 90.1875 C185.69705688 90.1887085 185.69705688 90.1887085 186.79077148 90.18994141 C190.96066405 90.23857823 194.61320308 90.56880184 198.578125 91.796875 C207.2418619 94.10304957 217.80453688 95.65520939 226.75 94.375 C229.50609295 92.95455419 229.50609295 92.95455419 230.75 90.375 C231.55315654 87.23018209 231.55315654 87.23018209 231.75 84.375 C229.39031256 82.27750005 228.20383006 81.40594296 225 81.1875 C223.88625 81.2803125 223.88625 81.2803125 222.75 81.375 C223.28625 80.67375 223.8225 79.9725 224.375 79.25 C226.12179108 76.37803974 226.12179108 76.37803974 224.9375 73.0625 C224.3496875 71.7321875 224.3496875 71.7321875 223.75 70.375 C222.47125 70.313125 221.1925 70.25125 219.875 70.1875 C219.15570313 70.15269531 218.43640625 70.11789063 217.6953125 70.08203125 C217.05335938 70.17871094 216.41140625 70.27539062 215.75 70.375 C213.45986347 73.8102048 213.57157027 75.360331 213.75 79.375 C213.24621826 79.21273926 212.74243652 79.05047852 212.22338867 78.88330078 C208.87461468 78.19510145 205.57863906 78.2323198 202.17578125 78.2421875 C201.45134323 78.24123077 200.72690521 78.24027405 199.98051453 78.23928833 C198.45502637 78.23860967 196.92953529 78.240442 195.40405273 78.24462891 C193.06031899 78.250005 190.71677486 78.24466141 188.37304688 78.23828125 C186.89062458 78.23894163 185.40820239 78.24022196 183.92578125 78.2421875 C183.22165604 78.24016327 182.51753082 78.23813904 181.79206848 78.23605347 C178.48854243 77.96568088 178.48854243 77.96568088 175.75 79.375 C172.63450037 79.4895192 169.5421238 79.53890947 166.42578125 79.54296875 C165.46433197 79.5471582 164.50288269 79.55134766 163.51229858 79.55566406 C160.36232512 79.56552086 157.21248646 79.56544166 154.0625 79.5625 C152.99722076 79.56222809 151.93194153 79.56195618 150.8343811 79.56167603 C137.6834866 79.54617097 124.56380289 79.40356988 111.4375 78.5625 C110.27452393 78.49248779 109.11154785 78.42247559 107.91333008 78.3503418 C91.80904433 77.14681012 91.80904433 77.14681012 86.25390625 72.11328125 C84.51874015 68.95392687 83.56316946 66.06138706 82.6875 62.5625 C82.5225 61.91522949 82.3575 61.26795898 82.1875 60.60107422 C80.99079082 55.76901301 80.09990627 50.90276986 79.25 46 C78.20016405 39.97407133 76.6107543 34.78379458 73.75 29.375 C73.275625 28.281875 72.80125 27.18875 72.3125 26.0625 C70.52610628 22.9899028 68.69446043 21.33797362 65.75 19.375 C65.09 19.375 64.43 19.375 63.75 19.375 C63.976875 18.50875 64.20375 17.6425 64.4375 16.75 C64.88044757 11.9661663 63.11924882 9.33106975 60.4375 5.5 C57.76226447 3.71650965 55.88572432 3.9359986 52.75 4.375 C49.41238955 6.52590451 48.01529067 7.57912799 46.75 11.375 C47.14397335 14.01304589 47.14397335 14.01304589 47.75 16.375 C46.66992676 16.36976318 45.58985352 16.36452637 44.47705078 16.35913086 C40.47771022 16.34105892 36.47837328 16.32955993 32.47900391 16.32006836 C30.74657586 16.31503318 29.01415208 16.30820468 27.28173828 16.29956055 C24.79458567 16.28745935 22.30748913 16.28176362 19.8203125 16.27734375 C19.04317902 16.27218246 18.26604553 16.26702118 17.46536255 16.26170349 C13.47829094 16.17171948 13.47829094 16.17171948 9.75 17.375 C9.73582031 16.78332031 9.72164062 16.19164062 9.70703125 15.58203125 C9.44709683 11.27555016 9.12489196 8.89984874 6.5625 5.3125 C3.30300187 3.06706795 1.62547487 2.92436339 -2.25 3.375 Z " fill="#0C0C0C" transform="translate(188.25,154.625)"/>
<path d="M0 0 C2.8125 -0.1875 2.8125 -0.1875 6 0 C7 1 8 2 9 3 C15.47083003 5.07525149 21.41141432 5.24994212 28.16796875 5.16015625 C29.2571611 5.15463745 30.34635345 5.14911865 31.46855164 5.14343262 C33.8178252 5.13109227 36.16707948 5.11448167 38.51629639 5.09402466 C44.77770738 5.04025787 51.03917966 5.01861565 57.30078125 5 C59.23244141 4.9937838 59.23244141 4.9937838 61.203125 4.98744202 C77.41229646 4.95866797 93.61370822 5.33435472 109.81713867 5.73266602 C110.89429642 5.75735962 111.97145416 5.78205322 113.08125305 5.80749512 C115.09527242 5.85391321 117.10919602 5.90477372 119.12297058 5.96081543 C120.44631157 5.99096741 120.44631157 5.99096741 121.79638672 6.02172852 C122.56457733 6.04171402 123.33276794 6.06169952 124.12423706 6.08229065 C126.0924287 6.12361173 126.0924287 6.12361173 128 5 C131.03566911 4.76089183 134.08095166 4.81479913 137.125 4.8125 C138.37023437 4.79413086 138.37023437 4.79413086 139.640625 4.77539062 C146.3283327 4.75966717 153.1906553 5.34226445 159 9 C159.42667969 9.46148437 159.85335937 9.92296875 160.29296875 10.3984375 C162.9975484 12.93591497 166.33120593 14.35011728 169.625 16.01171875 C174.01917804 19.69039741 174.99427916 24.83672162 175.6171875 30.3671875 C175.72209306 31.86858663 175.80765993 33.37144759 175.875 34.875 C175.91254395 35.66366455 175.95008789 36.4523291 175.98876953 37.26489258 C176.27663329 46.52514559 174.29214193 54.04285919 168 61 C162.69554711 66.38085279 158.19286413 67.70523678 150.71362305 67.88330078 C149.57062744 67.88056152 148.42763184 67.87782227 147.25 67.875 C146.0535083 67.8941748 144.8570166 67.91334961 143.62426758 67.93310547 C140.0824586 67.98283335 136.54211111 67.99384427 133 68 C131.18616451 68.02360067 129.37235524 68.04939485 127.55859375 68.078125 C114.02532285 68.24209193 100.1544274 68.25064747 86.72265625 66.47265625 C78.59603524 65.44083973 70.49840803 65.91088485 62.375 66.78125 C56.14473547 67.35509015 49.86288457 66.66520367 43.63769531 66.25537109 C41.63908688 66.12591247 39.63984991 66.00628024 37.640625 65.88671875 C36.36960937 65.80292969 35.09859375 65.71914063 33.7890625 65.6328125 C32.63100098 65.55949707 31.47293945 65.48618164 30.27978516 65.41064453 C26.94747647 64.99342381 24.14301003 64.16096136 21 63 C19.865625 62.62875 18.73125 62.2575 17.5625 61.875 C10.70420537 58.84035636 6.45523899 52.07424207 3.69140625 45.35546875 C2.95117812 42.83367463 2.71897532 40.55745849 2.5625 37.9375 C2.27383191 33.27551038 0.83709453 30.65071581 -1.7890625 26.86328125 C-4.96470506 21.97688932 -6.0453083 15.71367548 -5 10 C-3.57222581 6.52259876 -1.86966857 3.25856521 0 0 Z M2 3 C-1.20056327 7.39571031 -3.17210159 11.0337393 -2.6875 16.5703125 C-0.75050496 24.17301803 1.40130732 28.68547017 8 33 C8.309375 32.05125 8.61875 31.1025 8.9375 30.125 C10 27 10 27 11 25 C10.67 24.34 10.34 23.68 10 23 C12.31 23.33 14.62 23.66 17 24 C17 24.66 17 25.32 17 26 C16.401875 26.185625 15.80375 26.37125 15.1875 26.5625 C11.99950687 28.65746692 11.45644444 31.54094446 10 35 C7.8125 36.9375 7.8125 36.9375 6 38 C6.43386428 44.79720708 8.71901136 50.62717707 13.53515625 55.578125 C25.47522139 64.94952365 42.73368679 63.15052382 57 63 C56.98710937 61.8965625 56.97421875 60.793125 56.9609375 59.65625 C57 56 57 56 57.625 53.5 C58.20619921 50.81449175 58.20619921 50.81449175 57 47.5625 C55.9369034 43.77521835 56.32627014 41.78973046 57 38 C56.17657468 35.68019054 56.17657468 35.68019054 55 34 C57.92512762 36.43505389 57.92512762 36.43505389 58.2578125 38.9453125 C58.21398437 39.66460937 58.17015625 40.38390625 58.125 41.125 C57.96429211 45.84675096 58.3919686 50.32341282 59 55 C59.17893286 56.42571265 59.3572786 57.85149906 59.53515625 59.27734375 C59.68855469 60.50582031 59.84195313 61.73429687 60 63 C61.31613281 62.90460938 62.63226563 62.80921875 63.98828125 62.7109375 C80.13303317 61.64939006 80.13303317 61.64939006 87.84765625 63.453125 C102.6439952 66.02002395 120.17962869 66.37125941 135 64 C137.44251927 57.47348346 138.25867587 53.77602761 136 47 C136.9375 44.1875 136.9375 44.1875 138 42 C137.67 41.34 137.34 40.68 137 40 C136.01 40 135.02 40 134 40 C134 39.01 134 38.02 134 37 C135.9375 37.625 135.9375 37.625 138 39 C139.0723094 42.79432556 138.93231135 45.27075458 138 49 C138.165 49.886875 138.33 50.77375 138.5 51.6875 C139.14190299 55.94010731 138.61116813 59.76883603 138 64 C142.67661056 64.08468711 147.17531996 64.1216741 151.8125 63.4375 C155 63 155 63 157.5 63.8125 C160.60164164 64.04512312 161.18668047 63.41175287 163.5625 61.5 C166.91032743 58.34098713 169.11705826 55.18047615 171 51 C171.32226562 50.35546875 171.64453125 49.7109375 171.9765625 49.046875 C175.54148085 40.6770667 173.41424912 31.35760137 170.5625 23 C167.88947491 17.47850029 162.37709586 15.36406801 157 13 C155.91599105 18.7175801 155.91599105 18.7175801 157.25 24.25 C158.42159507 30.10797537 155.88541581 34.90217422 153 40 C152.01 40.66 151.02 41.32 150 42 C150.52851562 41.04738281 151.05703125 40.09476562 151.6015625 39.11328125 C152.27698801 37.84685843 152.95141527 36.57990285 153.625 35.3125 C153.975625 34.68666016 154.32625 34.06082031 154.6875 33.41601562 C156.32195389 30.29420869 157.16831634 28.6373228 156.25 25.16015625 C155.63125 24.09087891 155.63125 24.09087891 155 23 C154.07556986 20.22670957 154.0267192 18.50124151 154.1875 15.5 C154.2816013 12.06955642 154.2816013 12.06955642 152.65625 9.80078125 C148.45579586 6.95312043 144.2592073 7.53860246 139.3125 7.6875 C138.33732422 7.69716797 137.36214844 7.70683594 136.35742188 7.71679688 C131.83867632 7.38617701 131.83867632 7.38617701 128 9 C125.98035801 9.07244053 123.95832876 9.08377188 121.9375 9.0625 C120.83277344 9.05347656 119.72804688 9.04445312 118.58984375 9.03515625 C117.73519531 9.02355469 116.88054687 9.01195312 116 9 C116.01160156 9.61746094 116.02320313 10.23492187 116.03515625 10.87109375 C116.08894661 15.91970297 115.92444046 20.82368002 115.27734375 25.83203125 C115.0915947 27.28401325 114.9381839 28.74047797 114.81640625 30.19921875 C114.44335142 34.31804865 113.90156943 36.97227538 111 40 C111 37.59411466 111.70979414 35.99839035 112.5625 33.75 C113.96505902 29.6916695 113.84584573 27.22922865 113 23 C113.350625 22.01 113.70125 21.02 114.0625 20 C115.41997215 15.65608912 113.96348052 12.92696104 112 9 C104.74 9 97.48 9 90 9 C88.53691078 15.88512576 87.86947155 21.09121505 89 28 C88.67 28.66 88.34 29.32 88 30 C87.34 29.67 86.68 29.34 86 29 C86.495 28.505 86.495 28.505 87 28 C87.13961241 24.92852697 87.04131994 22.20659968 86.4375 19.1875 C86.293125 18.465625 86.14875 17.74375 86 17 C86.33 16.67 86.66 16.34 87 16 C87.04063832 14.33382885 87.042721 12.66611905 87 11 C86.34 11 85.68 11 85 11 C84.505 9.515 84.505 9.515 84 8 C78.21590487 7.97529951 72.43184038 7.95713977 66.64770508 7.94506836 C64.67960068 7.9400365 62.71150003 7.93321042 60.7434082 7.92456055 C57.91616899 7.91244483 55.08897916 7.90676024 52.26171875 7.90234375 C50.93970711 7.89460182 50.93970711 7.89460182 49.59098816 7.88670349 C48.3600518 7.88659019 48.3600518 7.88659019 47.10424805 7.88647461 C46.38254929 7.884254 45.66085052 7.88203339 44.9172821 7.87974548 C42.77773199 7.93174401 42.77773199 7.93174401 40 9 C39.19078631 11.69737896 38.54117383 14.25209793 38 17 C37.7215625 18.2065625 37.7215625 18.2065625 37.4375 19.4375 C36.97731213 21.91344677 36.97731213 21.91344677 36.82421875 24.09375 C36.40332248 29.04547086 35.57856056 32.62765819 33 37 C32.01 37 31.02 37 30 37 C30.639375 36.29875 31.27875 35.5975 31.9375 34.875 C34.20191565 31.71854182 34.59487586 29.80816696 35 26 C35.20625 25.319375 35.4125 24.63875 35.625 23.9375 C36.15393796 21.88232882 36.15393796 21.88232882 35.4375 19.375 C35.293125 18.59125 35.14875 17.8075 35 17 C35.66 16.34 36.32 15.68 37 15 C36.67801034 11.90073181 36.67801034 11.90073181 36 9 C34.51113281 8.94392578 34.51113281 8.94392578 32.9921875 8.88671875 C10.69180146 7.87331587 10.69180146 7.87331587 2 3 Z " fill="#101010" transform="translate(429,216)"/>
<path d="M0 0 C0.66 0 1.32 0 2 0 C2.27714844 0.56589844 2.55429687 1.13179687 2.83984375 1.71484375 C3.20207031 2.44832031 3.56429687 3.18179688 3.9375 3.9375 C4.29714844 4.66839844 4.65679687 5.39929688 5.02734375 6.15234375 C5.86371827 7.96249027 5.86371827 7.96249027 7 9 C7.66 7.68 8.32 6.36 9 5 C9.66 5 10.32 5 11 5 C10.89300781 5.72445312 10.78601563 6.44890625 10.67578125 7.1953125 C9.95368454 13.01867303 9.48060834 16.97229763 13 22 C14.56102491 23.81554159 14.56102491 23.81554159 16 25 C15.690625 25.680625 15.38125 26.36125 15.0625 27.0625 C13.8573559 30.39436899 13.33236849 33.47689403 13 37 C13.33 37.66 13.66 38.32 14 39 C20.31003416 39.30948111 20.31003416 39.30948111 26 37 C28.12531203 33.36640201 29.30923168 31.29315064 28.3125 27.125 C27.17648881 24.86909053 27.17648881 24.86909053 25 24 C25 23.34 25 22.68 25 22 C27.375 22.3125 27.375 22.3125 30 23 C32.30143236 26.45214853 32.13833854 27.23479324 31.625 31.1875 C31.51414062 32.08855469 31.40328125 32.98960937 31.2890625 33.91796875 C31.14597656 34.94857422 31.14597656 34.94857422 31 36 C33.97017694 35.37189827 33.97017694 35.37189827 37 34 C38.43923199 31.49004504 38.43923199 31.49004504 39 29 C38.01 28.01 38.01 28.01 37 27 C33.33333333 23.33333333 29.66666667 19.66666667 26 16 C26.33 15.01 26.66 14.02 27 13 C30.6057793 15.78160117 33.82112835 18.74165656 37 22 C37.94875 22.7425 38.8975 23.485 39.875 24.25 C42.21695644 27.28076716 42.33825464 27.96412869 42.125 31.625 C41.55323393 34.80677227 41.25148522 35.7559114 38.875 38.0625 C35.46836829 39.17335817 32.56321629 39.0672305 29 39 C28.01 39.99 28.01 39.99 27 41 C23.81961748 42.09281866 20.72034494 42.19589739 17.375 42.25 C16.41335938 42.27578125 15.45171875 42.3015625 14.4609375 42.328125 C13.64882813 42.21984375 12.83671875 42.1115625 12 42 C9.91817754 38.8772663 9.74592652 38.17155089 9.8125 34.625 C9.82539063 33.82964844 9.83828125 33.03429687 9.8515625 32.21484375 C10 30 10 30 10.6875 27.1875 C11.26475087 24.94485784 11.26475087 24.94485784 9.75 23.25 C9.1725 22.5075 8.595 21.765 8 21 C7.48352858 19.53344213 7.0081511 18.05210727 6.5625 16.5625 C5.35331658 12.65194937 3.72295762 10.09853798 1 7 C1 6.34 1 5.68 1 5 C-0.06879395 5.21547485 -0.06879395 5.21547485 -1.15917969 5.43530273 C-8.95850393 6.88708943 -16.33481369 7.19595766 -24.25 7.0625 C-27.10803953 7.03337212 -29.96606399 7.01700515 -32.82421875 7.00390625 C-33.6339061 6.99996857 -34.44359344 6.99603088 -35.27781677 6.99197388 C-48.79900234 6.95563185 -62.32040851 7.23850442 -75.83927917 7.46311569 C-78.06858778 7.500101 -80.2979034 7.5366318 -82.52722168 7.57302856 C-91.01820896 7.71180681 -99.50913365 7.8539852 -108 8 C-108.30545043 16.82140834 -102.68746875 21.81108389 -97 28 C-96.443125 28.50402344 -95.88625 29.00804687 -95.3125 29.52734375 C-94 31 -94 31 -93.5625 34.375 C-94.0870344 38.72114217 -94.54259675 40.28346887 -98 43 C-104.26661524 44.03012853 -110.46310546 43.24003321 -115.875 39.8125 C-117.6783531 36.90709778 -117.22691704 34.34702633 -117 31 C-116.690625 29.989375 -116.38125 28.97875 -116.0625 27.9375 C-115.65533293 25.01103925 -115.65533293 25.01103925 -117.421875 23.50390625 C-118.69481815 22.49133784 -119.9790329 21.49279767 -121.2734375 20.5078125 C-123.76687708 18.33028382 -124.37472555 16.1958472 -125 13 C-125 11.68 -125 10.36 -125 9 C-134.52537296 18.23039562 -134.52537296 18.23039562 -138.14453125 30.5234375 C-138.09108186 32.9922905 -137.99422844 35.46070345 -137.84765625 37.92578125 C-138 41 -138 41 -139.30859375 42.85546875 C-143.90982232 45.96900217 -149.68043461 45.58328568 -155 45 C-158.00197464 43.19881522 -159.45166366 42.09667268 -161 39 C-161.039992 37.00039988 -161.04346799 34.99952758 -161 33 C-160.01 32.505 -160.01 32.505 -159 32 C-158.690625 33.6396875 -158.690625 33.6396875 -158.375 35.3125 C-157.3295731 39.1178385 -157.3295731 39.1178385 -154.375 41 C-149.99681374 42.29724037 -147.45499375 41.96524864 -143 41 C-142.34 40.34 -141.68 39.68 -141 39 C-141.09695116 34.65805064 -141.09695116 34.65805064 -143 31 C-143.3125 28.6875 -143.3125 28.6875 -143 26 C-141.71340837 24.62150897 -140.37086915 23.29470975 -139 22 C-138.11501831 20.36114502 -137.23025777 18.72216929 -136.34765625 17.08203125 C-133.4629884 12.62542845 -129.6294308 8.85433143 -126 5 C-124.68 5.33 -123.36 5.66 -122 6 C-121.98582031 6.58007812 -121.97164062 7.16015625 -121.95703125 7.7578125 C-121.58093126 13.91772037 -120.41812751 16.68228448 -116 21 C-114.36927384 22.37705764 -112.7133562 23.72722111 -111 25 C-111.61277612 27.96175123 -112.25372522 29.38058783 -114 32 C-113.6758631 35.32240324 -113.39223697 36.60776303 -111 39 C-104.24291299 40.39107078 -104.24291299 40.39107078 -98 38 C-96.81417745 35.79164224 -96.81417745 35.79164224 -97 33 C-98.87155756 30.59583703 -100.64752518 28.60395524 -102.8125 26.5 C-110.91546688 18.46230443 -110.91546688 18.46230443 -111.05989075 12.54699707 C-111.04921822 11.20212219 -111.04921822 11.20212219 -111.03833008 9.83007812 C-111.03279617 8.9264856 -111.02726227 8.02289307 -111.02156067 7.09191895 C-111.01088814 6.05641907 -111.01088814 6.05641907 -111 5 C-109.82942047 4.9845388 -109.82942047 4.9845388 -108.63519287 4.96876526 C-101.27829231 4.87075936 -93.921475 4.76824052 -86.56470871 4.66066074 C-82.78258883 4.60551287 -79.00046111 4.55210604 -75.21826172 4.50268555 C-71.5677657 4.45492178 -67.91736147 4.40257493 -64.2669754 4.34705925 C-62.87476133 4.32669004 -61.48252214 4.30796813 -60.09026337 4.29092598 C-58.13921812 4.26676164 -56.18825555 4.2361803 -54.23730469 4.20532227 C-53.1269989 4.18977798 -52.01669312 4.1742337 -50.8727417 4.15821838 C-48.39747657 4.02189132 -46.3725925 3.64829219 -44 3 C-41.66824086 2.90471177 -39.33370026 2.87013812 -37 2.875 C-36.33210449 2.8754834 -35.66420898 2.8759668 -34.97607422 2.87646484 C-30.98245458 2.90409905 -27.08895548 3.16381958 -23.125 3.625 C-15.34175939 4.40332406 -7.69840513 3.1036813 0 2 C0 1.34 0 0.68 0 0 Z " fill="#060606" transform="translate(340,242)"/>
<path d="M0 0 C0.99 0.66 1.98 1.32 3 2 C3.41416399 4.58089562 3.43915839 7.076065 3.49609375 9.6875 C3.75093654 12.15574832 3.75093654 12.15574832 5.91015625 13.25 C6.59980469 13.4975 7.28945313 13.745 8 14 C8.99 14.495 8.99 14.495 10 15 C10.4560284 20.70035501 9.60412752 23.54784247 6 28 C2.85694562 29.57152719 -0.491274 29.14318589 -3.9375 29.125 C-4.66646484 29.12886719 -5.39542969 29.13273437 -6.14648438 29.13671875 C-9.35857736 29.1308304 -11.9321444 29.02261853 -15 28 C-17.58442587 27.60306464 -20.15507013 27.24779777 -22.75 26.9375 C-23.49628662 26.84807129 -24.24257324 26.75864258 -25.01147461 26.66650391 C-32.36149666 25.85181762 -39.61165651 25.80641895 -47 26 C-46.29783652 34.56639447 -43.39130136 38.48857187 -37 44 C-35.99040834 44.99031545 -34.98860509 45.98873348 -34 47 C-33.34 47.66 -32.68 48.32 -32 49 C-33.07401108 51.91517292 -33.77810176 53.77810176 -36 56 C-38.625 56.125 -38.625 56.125 -41 56 C-40.97679687 55.31292969 -40.95359375 54.62585938 -40.9296875 53.91796875 C-40.91164063 53.01691406 -40.89359375 52.11585938 -40.875 51.1875 C-40.85179687 50.29417969 -40.82859375 49.40085937 -40.8046875 48.48046875 C-40.81714173 45.74597286 -40.81714173 45.74597286 -43 43 C-46.465 43.495 -46.465 43.495 -50 44 C-52.7376287 39.32950485 -53.33996234 36.01200281 -53.1875 30.625 C-53.16042969 29.37976563 -53.13335937 28.13453125 -53.10546875 26.8515625 C-53.07066406 25.91054687 -53.03585937 24.96953125 -53 24 C-48.31724532 22.16190938 -44.10509666 21.6829161 -39.125 21.75 C-38.05294312 21.75797607 -38.05294312 21.75797607 -36.95922852 21.76611328 C-32.8042468 21.84118328 -29.12440972 22.19763858 -25.171875 23.421875 C-16.65912286 25.68785938 -5.78217255 27.46896052 3 26 C5.65341986 24.00254808 5.96457107 23.16426138 6.6875 19.8125 C6.790625 18.884375 6.89375 17.95625 7 17 C4.08235 15.0549 2.37462715 14.54723683 -1 14 C-0.649375 13.278125 -0.29875 12.55625 0.0625 11.8125 C1.10409017 8.6877295 0.89096572 7.11838004 0 4 C-2.64 4 -5.28 4 -8 4 C-8.66 6.64 -9.32 9.28 -10 12 C-11.11560303 11.99476318 -12.23120605 11.98952637 -13.38061523 11.98413086 C-17.50479333 11.96608225 -21.62896791 11.95456851 -25.75317383 11.94506836 C-27.54094021 11.94002782 -29.32870245 11.93319546 -31.11645508 11.92456055 C-33.68051168 11.9124827 -36.24451397 11.90676906 -38.80859375 11.90234375 C-39.6127623 11.89718246 -40.41693085 11.89202118 -41.24546814 11.88670349 C-43.16401715 11.88650785 -45.08245368 11.93798017 -47 12 C-47.33 12.33 -47.66 12.66 -48 13 C-50.00163877 13.0167793 -52.00394864 12.96262541 -54.00390625 12.87890625 C-55.21884766 12.83056641 -56.43378906 12.78222656 -57.68554688 12.73242188 C-58.96494141 12.67634766 -60.24433594 12.62027344 -61.5625 12.5625 C-62.84576172 12.51029297 -64.12902344 12.45808594 -65.45117188 12.40429688 C-68.63433391 12.2741304 -71.81722004 12.13914999 -75 12 C-74.67 11.34 -74.34 10.68 -74 10 C-72.69804687 9.93941406 -71.39609375 9.87882813 -70.0546875 9.81640625 C-68.32811601 9.73195438 -66.601554 9.64730874 -64.875 9.5625 C-64.0190625 9.52318359 -63.163125 9.48386719 -62.28125 9.44335938 C-61.02441406 9.38051758 -61.02441406 9.38051758 -59.7421875 9.31640625 C-58.9776123 9.27974854 -58.21303711 9.24309082 -57.42529297 9.20532227 C-54.92863887 9.03343972 -54.92863887 9.03343972 -52.21435547 8.48852539 C-48.40512911 7.90959011 -44.6701722 7.85650954 -40.828125 7.8671875 C-39.68268219 7.86575241 -39.68268219 7.86575241 -38.51409912 7.86428833 C-36.910603 7.8636113 -35.30710406 7.86543213 -33.70361328 7.86962891 C-31.24375326 7.87501367 -28.78407337 7.86965266 -26.32421875 7.86328125 C-24.76302043 7.86394154 -23.20182222 7.86522167 -21.640625 7.8671875 C-20.90418762 7.86516327 -20.16775024 7.86313904 -19.40899658 7.86105347 C-14.22996316 7.88501842 -14.22996316 7.88501842 -12 9 C-11.896875 8.071875 -11.79375 7.14375 -11.6875 6.1875 C-11 3 -11 3 -9.9375 1.125 C-6.83715034 -0.67520303 -3.49620463 -0.54275757 0 0 Z " fill="#0B0B0B" transform="translate(412,222)"/>
<path d="M0 0 C0.33 0.99 0.66 1.98 1 3 C1.66 3 2.32 3 3 3 C3.21914063 3.95261719 3.43828125 4.90523437 3.6640625 5.88671875 C5.38891549 13.98459627 5.38891549 13.98459627 10.25 20.375 C11.1575 20.91125 12.065 21.4475 13 22 C13.144375 21.2575 13.28875 20.515 13.4375 19.75 C13.90187492 17.47972261 14.41863569 15.24240521 15 13 C17.31 13.33 19.62 13.66 22 14 C22 14.66 22 15.32 22 16 C21.38125 16.4125 20.7625 16.825 20.125 17.25 C17.36840385 19.52013801 17.04983163 21.64053879 16 25 C14.5 26.875 14.5 26.875 13 28 C12.34 28 11.68 28 11 28 C10.01 30.475 10.01 30.475 9 33 C8.67 33 8.34 33 8 33 C7.98582031 32.3709375 7.97164063 31.741875 7.95703125 31.09375 C7.63073728 25.23809599 6.53814961 21.66177502 3.2109375 16.86328125 C-0.21664757 11.58922294 -0.21195647 6.04075942 0 0 Z " fill="#131313" transform="translate(424,226)"/>
<path d="M0 0 C0.99 0.495 0.99 0.495 2 1 C2 1.66 2 2.32 2 3 C2.99 3.33 3.98 3.66 5 4 C6.00042031 5.66641441 7.00035171 7.33312236 8 9 C10.52167649 11.38874466 13.15624707 13.58862979 15.8203125 15.81640625 C17.99899144 17.99898964 18.8491344 18.95125775 19 22 C17.375 24.75 17.375 24.75 15 27 C12.3515625 27.140625 12.3515625 27.140625 10 27 C10.02320313 26.31292969 10.04640625 25.62585938 10.0703125 24.91796875 C10.08835937 24.01691406 10.10640625 23.11585938 10.125 22.1875 C10.15980469 20.84751953 10.15980469 20.84751953 10.1953125 19.48046875 C10.18285827 16.74597286 10.18285827 16.74597286 8 14 C6.7934375 13.8453125 6.7934375 13.8453125 5.5625 13.6875 C3 13 3 13 1.1875 10.375 C-0.10598655 6.69877506 -0.23209725 3.86828756 0 0 Z " fill="#E4E4E4" transform="translate(361,251)"/>
<path d="M0 0 C1.05960938 0.00676758 1.05960938 0.00676758 2.140625 0.01367188 C3.88545275 0.02546125 5.630237 0.04339676 7.375 0.0625 C7.045 1.0525 6.715 2.0425 6.375 3.0625 C4.92867187 3.10117188 4.92867187 3.10117188 3.453125 3.140625 C2.18984375 3.19734375 0.9265625 3.2540625 -0.375 3.3125 C-2.25445312 3.38210937 -2.25445312 3.38210937 -4.171875 3.453125 C-7.63804205 3.80895818 -7.63804205 3.80895818 -10.046875 5.79296875 C-11.9033934 8.46286279 -12.16394197 9.89768446 -12.125 13.125 C-12.1353125 13.98222656 -12.145625 14.83945313 -12.15625 15.72265625 C-11.80623196 18.15524515 -11.80623196 18.15524515 -10.015625 19.828125 C-6.90865827 21.43237579 -4.35669541 21.57591523 -0.875 21.75 C0.29546875 21.81574219 1.4659375 21.88148438 2.671875 21.94921875 C3.56390625 21.98660156 4.4559375 22.02398437 5.375 22.0625 C5.375 23.0525 5.375 24.0425 5.375 25.0625 C-8.16948924 25.49630926 -8.16948924 25.49630926 -13.25 21.91796875 C-16.40267332 17.66365106 -15.26855868 11.06470608 -14.625 6.0625 C-11.43071848 0.01702646 -6.13398025 -0.07356249 0 0 Z " fill="#101010" transform="translate(200.625,193.9375)"/>
<path d="M0 0 C0.33 0 0.66 0 1 0 C1.50588674 8.09418785 -0.88682972 14.6430856 -6 21 C-9.37910814 24.64092766 -12.09547378 26.90897485 -17.1875 27.15234375 C-20.16546891 26.90300909 -23.06154998 26.53871584 -26 26 C-25 24 -25 24 -22.25 22.8125 C-19 22 -19 22 -16.5 22.6875 C-13.74666541 23.30521575 -13.74666541 23.30521575 -10.9375 21 C-5.5370475 15.94573035 -3.49663324 10.00430842 -1.61328125 3.0390625 C-1 1 -1 1 0 0 Z " fill="#060606" transform="translate(603,256)"/>
<path d="M0 0 C0.66 0.66 1.32 1.32 2 2 C1.67 2.680625 1.34 3.36125 1 4.0625 C-0.18453566 6.99578446 -0.18453566 6.99578446 0.0625 10.25 C-0.02360065 15.41603921 -1.03554646 20.83957907 -4.60546875 24.765625 C-5.06566406 25.17296875 -5.52585937 25.5803125 -6 26 C-6.99 25.67 -7.98 25.34 -9 25 C-8.360625 24.13375 -7.72125 23.2675 -7.0625 22.375 C-4.99019986 18.98396341 -4.42247465 16.88676677 -4 13 C-3.79375 12.319375 -3.5875 11.63875 -3.375 10.9375 C-2.83067246 8.89287506 -2.83067246 8.89287506 -3.6875 6.5 C-3.790625 5.675 -3.89375 4.85 -4 4 C-2.0625 1.6875 -2.0625 1.6875 0 0 Z " fill="#000000" transform="translate(467,229)"/>
<path d="M0 0 C2.60427663 2.60427663 2.50528695 4.39566205 3 8 C3.32871094 9.1446875 3.32871094 9.1446875 3.6640625 10.3125 C4.10572171 13.84577369 3.19396203 15.92627731 1.8125 19.1875 C1.38582031 20.23292969 0.95914063 21.27835938 0.51953125 22.35546875 C-1.09002716 25.15667966 -2.00308155 25.95396637 -5 27 C-4.00734643 24.46170776 -2.98445893 21.96695587 -1.82421875 19.5 C-0.69196301 17.00981554 0.30720879 14.64839171 1 12 C-0.20968895 9.2332494 -0.20968895 9.2332494 -2 7 C-1.58333333 1.58333333 -1.58333333 1.58333333 0 0 Z " fill="#000000" transform="translate(584,231)"/>
<path d="M0 0 C2 2 2 2 2.01171875 4.3203125 C1.90472656 5.24585938 1.79773438 6.17140625 1.6875 7.125 C1.51927734 8.60226563 1.51927734 8.60226563 1.34765625 10.109375 C1.23292969 11.06328125 1.11820313 12.0171875 1 13 C0.93683594 13.76828125 0.87367188 14.5365625 0.80859375 15.328125 C0.42512106 19.6034375 -0.49052942 22.50856266 -3 26 C-3.99 25.34 -4.98 24.68 -6 24 C-5.34 23.34 -4.68 22.68 -4 22 C-3.27982196 19.71171706 -3.27982196 19.71171706 -2.8125 17.125 C-2.63332031 16.26132813 -2.45414063 15.39765625 -2.26953125 14.5078125 C-1.85548873 12.05460461 -1.85548873 12.05460461 -2.5390625 9.9453125 C-3.13919757 7.41253908 -2.55294951 6.12707883 -1.5625 3.75 C-1.27503906 3.04359375 -0.98757813 2.3371875 -0.69140625 1.609375 C-0.34916016 0.81273437 -0.34916016 0.81273437 0 0 Z " fill="#000000" transform="translate(544,231)"/>
<path d="M0 0 C1.19882813 0.00483398 1.19882813 0.00483398 2.421875 0.00976562 C3.246875 0.01814453 4.071875 0.02652344 4.921875 0.03515625 C5.76234375 0.03966797 6.6028125 0.04417969 7.46875 0.04882812 C9.53648901 0.06057664 11.60419124 0.07851103 13.671875 0.09765625 C13.341875 1.08765625 13.011875 2.07765625 12.671875 3.09765625 C5.741875 3.09765625 -1.188125 3.09765625 -8.328125 3.09765625 C-8.328125 2.43765625 -8.328125 1.77765625 -8.328125 1.09765625 C-5.47652109 0.28331482 -2.96186369 -0.02115617 0 0 Z " fill="#161616" transform="translate(201.328125,225.90234375)"/>
<path d="M0 0 C1.875 0.1875 1.875 0.1875 4 1 C6.38879811 4.98133018 5.79447983 7.58622317 5 12 C5.2644354 14.34214207 5.58244638 16.68025766 6 19 C5.01 18.67 4.02 18.34 3 18 C0.62790698 11.22259136 0.62790698 11.22259136 1.875 7.125 C2.24625 6.42375 2.6175 5.7225 3 5 C3 4.34 3 3.68 3 3 C2.01 3 1.02 3 0 3 C0 2.01 0 1.02 0 0 Z " fill="#000000" transform="translate(563,253)"/>
<path d="M0 0 C0.99 0.33 1.98 0.66 3 1 C4.00344253 7.30735307 4.50873071 13.63440427 5 20 C4.01 19.67 3.02 19.34 2 19 C-0.08254633 13.95301272 -0.10550722 9.28186783 1 4 C0.6422386 1.72349255 0.6422386 1.72349255 0 0 Z " fill="#000000" transform="translate(484,250)"/>
<path d="M0 0 C0.66 0.33 1.32 0.66 2 1 C1.814375 1.66 1.62875 2.32 1.4375 3 C1.03842212 5.73653403 1.13760553 7.4471767 1.5625 10.125 C2 14 2 14 0 17 C-0.99 16.67 -1.98 16.34 -3 16 C-2.67 15.34 -2.34 14.68 -2 14 C-1.86270799 10.91092972 -1.91919487 8.31587458 -2.6875 5.3125 C-2.790625 4.549375 -2.89375 3.78625 -3 3 C-1.5625 1.1875 -1.5625 1.1875 0 0 Z " fill="#000000" transform="translate(517,230)"/>
<path d="M0 0 C0.33 0 0.66 0 1 0 C1.33 5.94 1.66 11.88 2 18 C-0.49059397 13.01881207 -1.2136995 10.24901803 -0.5625 4.75 C-0.46066406 3.85796875 -0.35882812 2.9659375 -0.25390625 2.046875 C-0.17011719 1.37140625 -0.08632813 0.6959375 0 0 Z " fill="#242424" transform="translate(603,242)"/>
</svg>
