<?xml version="1.0" encoding="UTF-8"?>
<svg version="1.1" xmlns="http://www.w3.org/2000/svg" width="800" height="300">
<path d="M0 0 C264 0 528 0 800 0 C800 99 800 198 800 300 C536 300 272 300 0 300 C0 201 0 102 0 0 Z " fill="#FEFEFE" transform="translate(0,0)"/>
<path d="M0 0 C5.74443119 -0.4787026 10.42332391 0.24795023 15 4 C16.53080867 6.67381248 17.1957631 8.98411162 18 12 C19.07314453 11.89171875 19.07314453 11.89171875 20.16796875 11.78125 C27.80033532 11.07034393 35.3373816 10.88876844 43 11 C43.13664063 10.06929687 43.27328125 9.13859375 43.4140625 8.1796875 C44.15552124 4.15603809 44.79498103 2.59453917 48 0 C52.60783128 -0.97122276 56.93660328 -1.03901537 61.203125 1.109375 C65.52244837 4.48498066 67.04089119 7.67161771 68 13 C70.31 13.33 72.62 13.66 75 14 C75 39.74 75 65.48 75 92 C66.09 91.67 57.18 91.34 48 91 C49.64219963 95.84756074 49.64219963 95.84756074 51.29101562 100.69287109 C53 105.77777778 53 105.77777778 53 108 C53.67546875 108.03738281 54.3509375 108.07476562 55.046875 108.11328125 C55.93890625 108.17902344 56.8309375 108.24476563 57.75 108.3125 C58.63171875 108.37050781 59.5134375 108.42851562 60.421875 108.48828125 C63.37638417 109.07470655 64.8336774 109.9276503 67 112 C67.625 114.875 67.625 114.875 67 118 C65.00707574 120.04402488 63.31459112 121.40752305 61 123 C60.33484375 123.54269531 59.6696875 124.08539063 58.984375 124.64453125 C53.72729034 128.68189663 49.8868308 129.61500059 43.28515625 129.30859375 C41 129 41 129 39 128 C37.75424694 124.26274081 37.51106557 120.91147543 38 117 C39.5 115 39.5 115 41 114 C39.515 113.01 39.515 113.01 38 112 C34 106.3277592 34 106.3277592 34 103 C33.34 103 32.68 103 32 103 C32 102.01 32 101.02 32 100 C31.34 100 30.68 100 30 100 C29.62875 100.8353125 29.62875 100.8353125 29.25 101.6875 C25.79555004 108.07823243 20.18599516 113.92172581 15 119 C15.66 119 16.32 119 17 119 C17.29248736 121.92487357 17.5056137 124.1511658 17 127 C13.83543381 130.24570891 11.04714219 131.25475121 6.625 131.5 C0.91788435 131.24892554 -3.97050488 129.02949512 -8 125 C-8.81883392 121.52464382 -8.87433325 118.46553906 -8 115 C-4.47516165 111.10050422 -0.63166979 109.17175471 4.5625 108.625 C5.7690625 108.810625 5.7690625 108.810625 7 109 C7.3403125 107.824375 7.3403125 107.824375 7.6875 106.625 C9.40660933 101.87698375 11.68084721 97.47897448 14 93 C12.89205078 92.92652344 12.89205078 92.92652344 11.76171875 92.8515625 C-10.47264301 91.21294372 -10.47264301 91.21294372 -17 84 C-25.23676171 71.65402977 -28.70943772 56.77442599 -27 42 C-23.67210118 32.44260462 -15.19824454 25.48257604 -7 20 C-4.1875 19.265625 -4.1875 19.265625 -2 19 C-2.33 18.01 -2.66 17.02 -3 16 C-3.61767656 9.87074793 -2.79102638 5.46575999 0 0 Z " fill="#F9F9F9" transform="translate(725,156)"/>
<path d="M0 0 C5.77481791 -0.48123483 10.26953246 0.47661728 15 4 C16.93551992 7.11661994 17.20289203 9.34794339 17 13 C16.34 13 15.68 13 15 13 C14.505 9.535 14.505 9.535 14 6 C13.030625 5.690625 12.06125 5.38125 11.0625 5.0625 C8 4 8 4 7 3 C5.33382885 2.95936168 3.66611905 2.957279 2 3 C0.17144572 7.59232335 -0.12514462 10.97358268 0.375 15.875 C0.48585938 17.02742188 0.59671875 18.17984375 0.7109375 19.3671875 C0.80632813 20.23601562 0.90171875 21.10484375 1 22 C-0.2375 22.268125 -1.475 22.53625 -2.75 22.8125 C-10.85706723 25.52342106 -18.92295186 32.9220231 -22.75 40.5625 C-26.68099765 52.03294954 -22.40916427 64.56930147 -17.54296875 75.17578125 C-14.70365071 80.23261417 -12.14962828 83.11669686 -7 86 C-4.35850181 86.71563602 -1.93072079 87.26735351 0.75 87.6875 C1.44867187 87.80778564 2.14734375 87.92807129 2.8671875 88.05200195 C8.21951543 88.94755405 13.58500224 89.62251218 19 90 C19.33 90.99 19.66 91.98 20 93 C18.68 93 17.36 93 16 93 C15.8453125 93.77150391 15.8453125 93.77150391 15.6875 94.55859375 C13.98761676 100.59511092 11.0962632 108.9551982 5.7109375 112.51171875 C3.46481236 113.22161449 1.32708304 113.65637465 -1 114 C-2.67363977 114.64896236 -4.34461042 115.30580437 -6 116 C-5.93919474 120.10068198 -5.93919474 120.10068198 -5 124 C-0.03206241 127.24436741 4.17047893 127.38863474 10 127 C10.99 126.67 11.98 126.34 13 126 C12.7525 124.91332031 12.7525 124.91332031 12.5 123.8046875 C11.97362345 120.72044988 11.6727166 118.11780499 12 115 C13.80877692 112.87512614 15.63168684 111.6970523 18.0078125 110.25 C20.64856359 108.59305814 21.56460893 106.74029204 23 104 C23.9502911 102.54325004 24.93222214 101.10686254 25.9375 99.6875 C26.42089844 98.99011719 26.90429688 98.29273438 27.40234375 97.57421875 C29 96 29 96 33 96 C34.67578125 98.125 34.67578125 98.125 36.3125 101 C39.41564646 106.19206108 42.85835223 110.60658033 47 115 C45.36587557 116.70840281 44.13093906 117.93453047 42 119 C41.957279 120.66611905 41.95936168 122.33382885 42 124 C43.19503907 125.40523661 43.19503907 125.40523661 46.625 125.375 C50.96600726 125.3594129 53.22131206 123.86063577 56.45703125 121.09375 C58 120 58 120 61 120 C61 119.34 61 118.68 61 118 C61.66 117.67 62.32 117.34 63 117 C63.495 115.515 63.495 115.515 64 114 C62.75283203 113.87044922 62.75283203 113.87044922 61.48046875 113.73828125 C60.39378906 113.59777344 59.30710937 113.45726562 58.1875 113.3125 C57.10855469 113.18488281 56.02960938 113.05726563 54.91796875 112.92578125 C52 112 52 112 50.20703125 109.76171875 C49.00512743 107.01173169 48.18865968 104.41860532 47.5 101.5 C46.4872285 97.49201065 45.19690616 94.51504986 43 91 C43.495 89.515 43.495 89.515 44 88 C47.47914843 87.9705809 50.95826417 87.95306208 54.4375 87.9375 C55.41138672 87.92912109 56.38527344 87.92074219 57.38867188 87.91210938 C63.34778969 87.89217922 69.09067683 88.22390482 75 89 C75 89.99 75 90.98 75 92 C66.09 91.67 57.18 91.34 48 91 C49.64219963 95.84756074 49.64219963 95.84756074 51.29101562 100.69287109 C53 105.77777778 53 105.77777778 53 108 C53.67546875 108.03738281 54.3509375 108.07476562 55.046875 108.11328125 C55.93890625 108.17902344 56.8309375 108.24476563 57.75 108.3125 C58.63171875 108.37050781 59.5134375 108.42851562 60.421875 108.48828125 C63.37638417 109.07470655 64.8336774 109.9276503 67 112 C67.625 114.875 67.625 114.875 67 118 C65.00707574 120.04402488 63.31459112 121.40752305 61 123 C60.33484375 123.54269531 59.6696875 124.08539063 58.984375 124.64453125 C53.72729034 128.68189663 49.8868308 129.61500059 43.28515625 129.30859375 C41 129 41 129 39 128 C37.75424694 124.26274081 37.51106557 120.91147543 38 117 C39.5 115 39.5 115 41 114 C39.515 113.01 39.515 113.01 38 112 C34 106.3277592 34 106.3277592 34 103 C33.34 103 32.68 103 32 103 C32 102.01 32 101.02 32 100 C31.34 100 30.68 100 30 100 C29.62875 100.8353125 29.62875 100.8353125 29.25 101.6875 C25.79555004 108.07823243 20.18599516 113.92172581 15 119 C15.66 119 16.32 119 17 119 C17.29248736 121.92487357 17.5056137 124.1511658 17 127 C13.83543381 130.24570891 11.04714219 131.25475121 6.625 131.5 C0.91788435 131.24892554 -3.97050488 129.02949512 -8 125 C-8.81883392 121.52464382 -8.87433325 118.46553906 -8 115 C-4.47516165 111.10050422 -0.63166979 109.17175471 4.5625 108.625 C5.7690625 108.810625 5.7690625 108.810625 7 109 C7.3403125 107.824375 7.3403125 107.824375 7.6875 106.625 C9.40660933 101.87698375 11.68084721 97.47897448 14 93 C12.89205078 92.92652344 12.89205078 92.92652344 11.76171875 92.8515625 C-10.47264301 91.21294372 -10.47264301 91.21294372 -17 84 C-25.23676171 71.65402977 -28.70943772 56.77442599 -27 42 C-23.67210118 32.44260462 -15.19824454 25.48257604 -7 20 C-4.1875 19.265625 -4.1875 19.265625 -2 19 C-2.33 18.01 -2.66 17.02 -3 16 C-3.61767656 9.87074793 -2.79102638 5.46575999 0 0 Z " fill="#111111" transform="translate(725,156)"/>
<path d="M0 0 C4.44354264 0.87866662 7.12755326 2.90570413 9.765625 6.546875 C10.82671956 8.94150733 11.29665994 10.94151354 11.765625 13.546875 C14.075625 13.876875 16.385625 14.206875 18.765625 14.546875 C18.765625 15.206875 18.765625 15.866875 18.765625 16.546875 C17.6725 16.629375 16.579375 16.711875 15.453125 16.796875 C11.73118557 17.16697799 11.73118557 17.16697799 9.953125 19.609375 C9.56125 20.24875 9.169375 20.888125 8.765625 21.546875 C8.105625 21.546875 7.445625 21.546875 6.765625 21.546875 C6.86101563 20.79921875 6.95640625 20.0515625 7.0546875 19.28125 C7.16554688 18.29640625 7.27640625 17.3115625 7.390625 16.296875 C7.50664063 15.32234375 7.62265625 14.3478125 7.7421875 13.34375 C7.76720015 10.35890745 7.43421984 8.9897851 5.765625 6.546875 C1.77174508 4.00531505 -1.5094694 2.62243695 -6.234375 3.546875 C-9.75613241 7.53202155 -10.234375 9.11074687 -10.234375 14.546875 C-23.599375 15.041875 -23.599375 15.041875 -37.234375 15.546875 C-37.234375 14.886875 -37.234375 14.226875 -37.234375 13.546875 C-29.15483724 11.73343165 -21.50185351 11.31028579 -13.234375 11.546875 C-13.09773437 10.61617187 -12.96109375 9.68546875 -12.8203125 8.7265625 C-11.37946278 0.90755136 -7.34250218 -0.35338246 0 0 Z " fill="#171717" transform="translate(781.234375,155.453125)"/>
<path d="M0 0 C1.74216797 0.04060547 1.74216797 0.04060547 3.51953125 0.08203125 C4.39996094 0.11683594 5.28039062 0.15164062 6.1875 0.1875 C3.46891403 2.90608597 1.53645865 2.58291524 -2.25 2.9375 C-7.40780984 3.51587957 -7.40780984 3.51587957 -11.125 6.875 C-12.04859301 11.32503907 -12.52992658 15.14559357 -11 19.5 C-9.75282008 21.48817478 -9.75282008 21.48817478 -6.8125 23.1875 C-4.05832682 23.48816154 -1.38604853 23.69675299 1.375 23.8125 C2.12458984 23.85117188 2.87417969 23.88984375 3.64648438 23.9296875 C5.49309199 24.02378216 7.3402619 24.10672319 9.1875 24.1875 C8.5275 25.1775 7.8675 26.1675 7.1875 27.1875 C4.78910083 27.12716291 2.3966615 27.04005482 0 26.9375 C-1.01030273 26.91623047 -1.01030273 26.91623047 -2.04101562 26.89453125 C-6.88589254 26.65819579 -9.39805088 25.60819126 -12.8125 22.1875 C-15.65839067 17.918664 -15.31178196 14.19592212 -14.8125 9.1875 C-13.57019617 5.59135733 -12.65332987 3.82112537 -9.625 1.5390625 C-6.19326497 -0.11007683 -3.78733062 -0.11476759 0 0 Z " fill="#131313" transform="translate(736.8125,192.8125)"/>
<path d="M0 0 C5.77481791 -0.48123483 10.26953246 0.47661728 15 4 C16.93551992 7.11661994 17.20289203 9.34794339 17 13 C16.34 13 15.68 13 15 13 C14.67 10.69 14.34 8.38 14 6 C13.030625 5.690625 12.06125 5.38125 11.0625 5.0625 C8 4 8 4 7 3 C5.33382885 2.95936168 3.66611905 2.957279 2 3 C0.17144572 7.59232335 -0.12514462 10.97358268 0.375 15.875 C0.48585938 17.02742188 0.59671875 18.17984375 0.7109375 19.3671875 C0.80632813 20.23601562 0.90171875 21.10484375 1 22 C-3.95 23.485 -3.95 23.485 -9 25 C-8.3125 22.5625 -8.3125 22.5625 -7 20 C-4.375 19.1875 -4.375 19.1875 -2 19 C-2.33 18.01 -2.66 17.02 -3 16 C-3.61767656 9.87074793 -2.79102638 5.46575999 0 0 Z " fill="#121212" transform="translate(725,156)"/>
<path d="M0 0 C4.48444669 -0.11577745 7.4267313 0.24349201 11.01953125 3.06640625 C14.30581827 6.25380038 15.28044364 9.05064177 16.08203125 13.50390625 C18.39203125 13.83390625 20.70203125 14.16390625 23.08203125 14.50390625 C23.08203125 15.16390625 23.08203125 15.82390625 23.08203125 16.50390625 C21.98890625 16.58640625 20.89578125 16.66890625 19.76953125 16.75390625 C16.04759182 17.12400924 16.04759182 17.12400924 14.26953125 19.56640625 C13.87765625 20.20578125 13.48578125 20.84515625 13.08203125 21.50390625 C12.42203125 21.50390625 11.76203125 21.50390625 11.08203125 21.50390625 C11.17742188 20.75625 11.2728125 20.00859375 11.37109375 19.23828125 C11.53738281 17.76101562 11.53738281 17.76101562 11.70703125 16.25390625 C11.82304688 15.279375 11.9390625 14.30484375 12.05859375 13.30078125 C12.08359187 10.31767254 11.74156879 8.94954052 10.08203125 6.50390625 C5.27873601 3.30170942 1.65190982 3.21580908 -3.91796875 3.50390625 C-1.91796875 0.50390625 -1.91796875 0.50390625 0 0 Z " fill="#0A0A0A" transform="translate(776.91796875,155.49609375)"/>
<path d="M0 0 C0.66 0 1.32 0 2 0 C2.1953125 6.0546875 2.1953125 6.0546875 2 8 C1.34 8.66 0.68 9.32 0 10 C-3.53571429 9.46428571 -3.53571429 9.46428571 -5 8 C-5.04080783 6.00041636 -5.04254356 3.99954746 -5 2 C-4.34 2 -3.68 2 -3 2 C-3 3.32 -3 4.64 -3 6 C-2.01 6 -1.02 6 0 6 C0 4.02 0 2.04 0 0 Z " fill="#030303" transform="translate(787,199)"/>
<path d="M0 0 C0.66 0 1.32 0 2 0 C0.41037341 4.03520597 -1.28232318 8.01811282 -3 12 C-3.99 12 -4.98 12 -6 12 C-2.28571429 2.28571429 -2.28571429 2.28571429 0 0 Z " fill="#202020" transform="translate(739,250)"/>
<path d="M0 0 C4.60470588 1.45411765 4.60470588 1.45411765 6.3125 3.8125 C7.09802451 6.31189617 7.14472595 8.39493282 7 11 C6.34 11 5.68 11 5 11 C4.67 8.69 4.34 6.38 4 4 C2.02 3.34 0.04 2.68 -2 2 C-1.34 1.34 -0.68 0.68 0 0 Z " fill="#282828" transform="translate(735,158)"/>
<path d="M0 0 C0.99 0 1.98 0 3 0 C2.979375 0.886875 2.95875 1.77375 2.9375 2.6875 C2.99286219 5.62169631 3.3305734 8.15493696 4 11 C2 10 2 10 0 8 C-0.36933645 5.24627091 -0.18336678 2.79634339 0 0 Z " fill="#010101" transform="translate(796,188)"/>
<path d="M0 0 C0.99 0 1.98 0 3 0 C3 2 3 2 1.6875 3.4375 C1.130625 3.953125 0.57375 4.46875 0 5 C-0.556875 5.556875 -1.11375 6.11375 -1.6875 6.6875 C-2.120625 7.120625 -2.55375 7.55375 -3 8 C-3.33 7.34 -3.66 6.68 -4 6 C-1.68421053 1.68421053 -1.68421053 1.68421053 0 0 Z " fill="#131313" transform="translate(727,194)"/>
<path d="M0 0 C0.33 0 0.66 0 1 0 C1.66 3.63 2.32 7.26 3 11 C2.01 10.67 1.02 10.34 0 10 C-1.49106457 7.01787087 -1.11941467 4.28390342 -1 1 C-0.67 0.67 -0.34 0.34 0 0 Z " fill="#060606" transform="translate(723,164)"/>
<path d="M0 0 C0.33 0.99 0.66 1.98 1 3 C0.01 4.485 0.01 4.485 -1 6 C-3.625 6.1875 -3.625 6.1875 -6 6 C-5.67 5.34 -5.34 4.68 -5 4 C-4.01 4 -3.02 4 -2 4 C-1.34 2.68 -0.68 1.36 0 0 Z " fill="#0B0B0B" transform="translate(734,261)"/>
</svg>
