<?xml version="1.0" encoding="UTF-8"?>
<svg version="1.1" xmlns="http://www.w3.org/2000/svg" width="800" height="300">
<path d="M0 0 C264 0 528 0 800 0 C800 99 800 198 800 300 C536 300 272 300 0 300 C0 201 0 102 0 0 Z " fill="#FEFEFE" transform="translate(0,0)"/>
<path d="M0 0 C4.25080574 0.10442731 6.30125495 0.85643946 9.25 3.9375 C12.40181582 8.05237065 13.27669676 12.03233303 14.37109375 17.015625 C15.74653397 20.82804852 18.12840475 22.60100847 21.375 24.89453125 C26.04513583 29.06564047 27.13076101 35.12322669 28.375 41 C28.54563965 41.77859375 28.7162793 42.5571875 28.89208984 43.359375 C30.30772559 50.05688997 31.15829351 56.75316184 31.8203125 63.5625 C32.0217511 66.72488153 32.0217511 66.72488153 34.3125 68.625 C35.03177295 70.94265729 35.7034893 73.27595874 36.3125 75.625 C38.6225 75.625 40.9325 75.625 43.3125 75.625 C43.3125 76.285 43.3125 76.945 43.3125 77.625 C71.6925 77.625 100.0725 77.625 129.3125 77.625 C129.3125 77.955 129.3125 78.285 129.3125 78.625 C131.2712043 78.48423685 133.22946093 78.3372324 135.1875 78.1875 C136.27804687 78.10628906 137.36859375 78.02507812 138.4921875 77.94140625 C141.25978971 77.79498297 141.25978971 77.79498297 143.3125 76.625 C143.30089844 75.92632812 143.28929687 75.22765625 143.27734375 74.5078125 C143.26832031 73.59773438 143.25929688 72.68765625 143.25 71.75 C143.23839844 70.84507812 143.22679687 69.94015625 143.21484375 69.0078125 C143.3125 66.625 143.3125 66.625 144.3125 64.625 C151.535719 64.13529024 151.535719 64.13529024 155.1875 66.4375 C157.3125 68.625 157.3125 68.625 159.3125 71.625 C160.158125 70.944375 161.00375 70.26375 161.875 69.5625 C165.3125 67.625 165.3125 67.625 169 67.6875 C173.80079953 69.04621685 173.80079953 69.04621685 175.3125 71.625 C175.90751624 75.45010442 175.48108837 77.30079159 173.6875 80.75 C171.15059822 83.82098636 168.7200904 85.59494615 165.3125 87.625 C164.3225 88.285 163.3325 88.945 162.3125 89.625 C163.158125 90.24375 164.00375 90.8625 164.875 91.5 C167.52717661 94.90022643 167.68764149 95.53732191 167.4375 99.625 C166.86755688 103.16075826 166.25506113 104.70946892 164.1875 107.75 C160.62732391 110.07185397 158.48606827 110.10656557 154.3125 109.625 C153.9825 109.295 153.6525 108.965 153.3125 108.625 C153.3125 106.975 153.3125 105.325 153.3125 103.625 C143.0825 103.625 132.8525 103.625 122.3125 103.625 C122.6425 106.925 122.9725 110.225 123.3125 113.625 C124.6325 114.285 125.9525 114.945 127.3125 115.625 C128.87200551 117.18450551 128.59446698 118.71377131 128.6875 120.875 C128.61986725 124.40881129 128.35285003 125.55909495 126.4375 128.6875 C122.61834037 131.05537897 120.02708796 131.18470427 115.6171875 131.19140625 C113.3125 130.625 113.3125 130.625 111.5078125 128.90234375 C109.73721367 125.52894794 110.22845672 122.77359143 110.5 119.0625 C110.26789416 116.04512412 109.22019291 114.91423149 107.3125 112.625 C106.12568274 109.06454823 106.21560168 106.18691663 106.25 102.4375 C106.25902344 101.16519531 106.26804687 99.89289063 106.27734375 98.58203125 C106.29474609 97.11830078 106.29474609 97.11830078 106.3125 95.625 C105.4379718 95.68493134 104.5634436 95.74486267 103.66241455 95.80661011 C79.64527322 97.406782 55.74853194 97.88829237 31.68273926 97.7623291 C27.21559678 97.7413097 22.74842839 97.73261974 18.28125 97.72265625 C9.62493366 97.70165034 0.96873578 97.66784688 -7.6875 97.625 C-7.71972656 98.87667969 -7.75195312 100.12835938 -7.78515625 101.41796875 C-7.80328369 102.12203857 -7.82141113 102.8261084 -7.84008789 103.55151367 C-7.57640858 107.13459913 -6.05203628 109.01794718 -3.6875 111.625 C-1.39123627 112.90850113 0.81871427 113.73100134 3.3125 114.625 C4.95995596 116.27245596 4.4834616 118.17835451 4.5 120.4375 C4.51417969 121.31019531 4.52835937 122.18289063 4.54296875 123.08203125 C4.29421489 125.82675601 3.87093051 127.35863891 2.3125 129.625 C-0.77505674 131.75575344 -3.55256596 131.94969477 -7.25 132 C-8.20003906 132.02835938 -9.15007812 132.05671875 -10.12890625 132.0859375 C-12.6875 131.625 -12.6875 131.625 -14.515625 129.9609375 C-15.96451966 127.07280748 -15.98982575 125.09012093 -15.875 121.875 C-15.83439453 120.39773438 -15.83439453 120.39773438 -15.79296875 118.890625 C-15.75816406 118.14296875 -15.72335938 117.3953125 -15.6875 116.625 C-16.85732422 116.19380859 -16.85732422 116.19380859 -18.05078125 115.75390625 C-21.52139577 114.26796907 -22.70312083 112.8410628 -24.6875 109.625 C-25.56931428 106.65572707 -26.18179158 103.67921268 -26.6875 100.625 C-31.08469064 106.24507798 -35.42843983 111.89945024 -39.6875 117.625 C-38.6975 119.11 -38.6975 119.11 -37.6875 120.625 C-37.12031065 125.56765003 -37.22716391 127.72020148 -39.5 132.1875 C-41.440279 134.22229116 -42.47018447 134.59828355 -45.29296875 134.9453125 C-49.77140945 134.73982399 -52.96222012 134.03741405 -56.875 131.8125 C-59.67134346 126.89479253 -59.66918897 122.14304203 -58.6875 116.625 C-56.5625 114.5 -56.5625 114.5 -53.6875 112.625 C-51.48851298 109.40447866 -49.61574086 106.01214451 -47.6875 102.625 C-47.0275 101.635 -46.3675 100.645 -45.6875 99.625 C-46.3165625 99.65980469 -46.945625 99.69460937 -47.59375 99.73046875 C-54.47134517 99.94798306 -60.15616876 99.62663155 -65.5625 95.03125 C-73.96719202 86.19183253 -78.67078087 73.17173056 -79.0625 61.0625 C-78.59155213 47.20878343 -71.5992809 34.07530122 -61.6875 24.625 C-58.04991611 21.625 -58.04991611 21.625 -55.6875 21.625 C-56.17863281 20.59826172 -56.17863281 20.59826172 -56.6796875 19.55078125 C-57.85598212 16.13587941 -57.88527146 13.41468716 -57.8125 9.8125 C-57.79445312 8.65105469 -57.77640625 7.48960937 -57.7578125 6.29296875 C-57.73460937 5.41253906 -57.71140625 4.53210938 -57.6875 3.625 C-52.39648029 2.71275522 -48.65426304 2.14161848 -43.6875 4.625 C-39.40985268 8.67142314 -39.59158815 10.29638297 -38.6875 16.625 C-28.1275 16.625 -17.5675 16.625 -6.6875 16.625 C-7.1825 15.635 -7.1825 15.635 -7.6875 14.625 C-7.65052443 12.62263053 -7.53575559 10.62124857 -7.375 8.625 C-7.29636719 7.5525 -7.21773438 6.48 -7.13671875 5.375 C-6.38026075 0.74416149 -4.3059601 0.25057654 0 0 Z " fill="#FAFAFA" transform="translate(240.6875,153.375)"/>
<path d="M0 0 C3 1.125 3 1.125 5 3.6875 C9.32001529 7.19751242 13.01420795 6.59726205 18.4296875 6.49609375 C22.01158558 6.23583078 22.01158558 6.23583078 25.37890625 5.11328125 C29.72194312 3.92796482 33.58676641 3.82463072 38.0625 3.875 C38.917229 3.87959229 39.77195801 3.88418457 40.65258789 3.88891602 C51.61101098 4.03859687 63.01807355 4.52413677 73.78515625 6.68359375 C80.82494371 8.0865849 88.40862453 7.17685983 95.53857422 6.76416016 C105.97627002 6.1740504 116.4101612 5.95654549 126.86279297 5.89282227 C128.52755234 5.88101202 130.19228348 5.86398605 131.85693359 5.84155273 C134.22511537 5.81141051 136.59258459 5.80161354 138.9609375 5.796875 C139.6675351 5.78456848 140.37413269 5.77226196 141.10214233 5.75958252 C146.17862453 5.78191008 149.57350682 6.81558656 154 9.125 C155.125 11.0625 155.125 11.0625 156 13.125 C157.65788785 14.46923339 159.32576317 15.80118483 161 17.125 C166.84894313 23.54457172 170.43621605 29.48716048 171.3125 38.25 C170.50377503 48.27818958 165.21584103 59.73516824 158.5 67.25 C153.59544727 70.92841455 147.51979135 70.25205331 141.61328125 70.1875 C140.79796432 70.18371338 139.9826474 70.17992676 139.1426239 70.17602539 C135.69405414 70.15997515 132.245609 70.13260761 128.79711914 70.10449219 C119.32798193 70.03416536 109.89614519 70.09692316 100.43473816 70.52130127 C85.70750233 71.18117987 71.09029734 71.04011423 56.35986328 70.51074219 C52.44729389 70.37314645 48.53447789 70.26017907 44.62109375 70.1484375 C42.09109647 70.06396567 39.56114587 69.97808136 37.03125 69.890625 C35.88217163 69.85922424 34.73309326 69.82782349 33.54919434 69.79547119 C23.34370265 69.39366686 11.63061312 68.08093743 4.2421875 60.265625 C1.11883893 56.4013891 -0.36360238 54.22430173 0 49.125 C1.98 48.465 3.96 47.805 6 47.125 C7.18850483 40.50005449 7.18850483 40.50005449 5.6875 34.125 C1.8790887 29.61132735 -0.2445371 29.68198028 -6 29.125 C-8.04349574 24.01215724 -8.39745054 19.48697684 -8.4375 14.0625 C-8.47037109 13.27294922 -8.50324219 12.48339844 -8.53710938 11.66992188 C-8.5770829 7.33461104 -8.38626114 5.62862263 -5.66015625 2.07421875 C-3 0.125 -3 0.125 0 0 Z " fill="#646464" transform="translate(433,214.875)"/>
<path d="M0 0 C4.25080574 0.10442731 6.30125495 0.85643946 9.25 3.9375 C12.40181582 8.05237065 13.27669676 12.03233303 14.37109375 17.015625 C15.74653397 20.82804852 18.12840475 22.60100847 21.375 24.89453125 C26.04513583 29.06564047 27.13076101 35.12322669 28.375 41 C28.54563965 41.77859375 28.7162793 42.5571875 28.89208984 43.359375 C30.30772559 50.05688997 31.15829351 56.75316184 31.8203125 63.5625 C32.0217511 66.72488153 32.0217511 66.72488153 34.3125 68.625 C35.03177295 70.94265729 35.7034893 73.27595874 36.3125 75.625 C38.6225 75.625 40.9325 75.625 43.3125 75.625 C43.3125 76.285 43.3125 76.945 43.3125 77.625 C70.0425 77.955 96.7725 78.285 124.3125 78.625 C120.01118347 81.8509874 119.18753259 82.0022103 114.10131836 82.01318359 C112.21170631 82.02736832 112.21170631 82.02736832 110.28392029 82.0418396 C108.90672495 82.03646098 107.52953246 82.03030585 106.15234375 82.0234375 C104.72383984 82.02546219 103.29533695 82.02837692 101.86683655 82.03213501 C98.86319195 82.0365612 95.85981466 82.03013243 92.85620117 82.01611328 C89.06387726 81.99925003 85.27219499 82.00900253 81.47989464 82.02642441 C54.77442398 82.13090642 54.77442398 82.13090642 42.87890625 80.2890625 C42.12802231 80.17283539 41.37713837 80.05660828 40.60350037 79.93685913 C37.01027346 79.27322804 34.4448093 78.71696708 32.3125 75.625 C31.59841666 73.64143517 30.92632258 71.64184563 30.3125 69.625 C29.9825 69.295 29.6525 68.965 29.3125 68.625 C29.06331807 67.24431154 28.86901924 65.85361839 28.69921875 64.4609375 C28.58779541 63.59283447 28.47637207 62.72473145 28.36157227 61.83032227 C28.24225342 60.89631592 28.12293457 59.96230957 28 59 C25.91251525 41.8223609 25.91251525 41.8223609 18.3125 26.625 C17.301875 26.08875 16.29125 25.5525 15.25 25 C11.19758526 21.72357957 10.9255606 18.48684924 9.953125 13.5 C9.36287637 10.85107932 8.79918475 8.88643596 7.3125 6.625 C6.3225 6.295 5.3325 5.965 4.3125 5.625 C4.3125 4.965 4.3125 4.305 4.3125 3.625 C1.6725 3.955 -0.9675 4.285 -3.6875 4.625 C-3.8525 5.800625 -4.0175 6.97625 -4.1875 8.1875 C-4.2803125 8.84878906 -4.373125 9.51007813 -4.46875 10.19140625 C-4.75190434 13.34149832 -4.71815093 16.46412304 -4.6875 19.625 C-16.6979862 20.2774986 -28.65749836 20.79131339 -40.6875 20.625 C-42.29475635 17.41048731 -41.74498185 14.18887464 -41.6875 10.625 C-46.14408222 8.31417959 -49.59110271 6.625 -54.6875 6.625 C-54.86002864 11.71459486 -54.65375771 14.9059815 -52.6875 19.625 C-52.96799239 22.20043012 -53.31025368 23.2983599 -55.2890625 25.01171875 C-55.95679688 25.44097656 -56.62453125 25.87023437 -57.3125 26.3125 C-67.58475718 33.66295237 -73.44043789 45.36829759 -75.6875 57.625 C-75.98331741 62.96257497 -75.151684 67.46118013 -73.5 72.5 C-73.27368896 73.20036377 -73.04737793 73.90072754 -72.81420898 74.62231445 C-70.05835857 82.86504682 -67.03490218 89.62251341 -59.6875 94.625 C-55.65258796 95.91192778 -51.62975925 95.73564432 -47.4375 95.6875 C-46.69242188 95.68298828 -45.94734375 95.67847656 -45.1796875 95.67382812 C-43.3489236 95.66209246 -41.51820127 95.6441585 -39.6875 95.625 C-39.375 97.9375 -39.375 97.9375 -39.6875 100.625 C-41.33821396 101.65111949 -43.00720006 102.64808143 -44.6875 103.625 C-46.3875156 106.44137564 -46.3875156 106.44137564 -47.6875 109.625 C-49.75066388 114.40778899 -51.24845604 116.03678666 -55.6875 118.625 C-56.20388071 121.87819845 -56.44587048 123.56069003 -55.6875 126.625 C-52.94243707 129.952349 -51.34156343 130.54606131 -47.0625 131.0625 C-43.7955006 130.87271161 -43.7955006 130.87271161 -41.75 129.4375 C-40.32344673 127.00396796 -40.33178576 125.39957104 -40.6875 122.625 C-41.6775 121.635 -41.6775 121.635 -42.6875 120.625 C-42.75488023 117.1886085 -42.56131478 114.67357773 -40.30078125 111.9609375 C-39.10064417 110.82282998 -37.88463463 109.70130991 -36.65625 108.59375 C-33.72906631 105.66656631 -31.65495145 102.25608731 -29.4609375 98.76171875 C-27.40336128 96.28265665 -25.73028129 95.56483518 -22.6875 94.625 C-22.72230469 95.34945312 -22.75710937 96.07390625 -22.79296875 96.8203125 C-23.13428341 104.73504073 -23.13428341 104.73504073 -19.6875 111.625 C-17.04058707 112.99283271 -14.57120072 113.77407192 -11.6875 114.625 C-11.8525 115.305625 -12.0175 115.98625 -12.1875 116.6875 C-12.76097493 120.05666519 -12.81872252 123.21321459 -12.6875 126.625 C-11.66128893 127.87238223 -11.66128893 127.87238223 -9.47265625 127.7578125 C-8.12494141 127.75394531 -8.12494141 127.75394531 -6.75 127.75 C-5.85410156 127.75257813 -4.95820313 127.75515625 -4.03515625 127.7578125 C-1.66594445 127.77921413 -1.66594445 127.77921413 0.3125 126.625 C0.77901207 124.49923218 0.77901207 124.49923218 0.9375 122.0625 C1.04964844 120.82306641 1.04964844 120.82306641 1.1640625 119.55859375 C1.21304688 118.92050781 1.26203125 118.28242188 1.3125 117.625 C0.260625 117.274375 -0.79125 116.92375 -1.875 116.5625 C-6.24332873 114.64469714 -8.85468507 112.05498765 -10.6875 107.625 C-11.29077988 103.05532824 -11.14620932 99.00112797 -9.6875 94.625 C-8.22410187 94.6095388 -8.22410187 94.6095388 -6.73114014 94.59376526 C2.50691618 94.49559371 11.74491167 94.39282263 20.98286819 94.28566074 C25.73107028 94.23072558 30.47927875 94.17735612 35.22753906 94.12768555 C39.81821228 94.07960384 44.4088195 94.02725172 48.99941254 93.97205925 C50.74227992 93.95183213 52.48516525 93.93308949 54.22806549 93.91592598 C62.80903131 93.8304981 71.30554253 93.65678226 79.8550415 92.84315491 C83.03868734 92.56053448 86.19554716 92.5116816 89.390625 92.52734375 C91.15986328 92.53217773 91.15986328 92.53217773 92.96484375 92.53710938 C94.15207031 92.54548828 95.33929688 92.55386719 96.5625 92.5625 C98.41294922 92.56926758 98.41294922 92.56926758 100.30078125 92.57617188 C103.30474069 92.58781513 106.30859266 92.60416624 109.3125 92.625 C109.27769531 93.63820313 109.24289062 94.65140625 109.20703125 95.6953125 C109.17887405 97.0468583 109.15157597 98.39842219 109.125 99.75 C109.09986328 100.41515625 109.07472656 101.0803125 109.04882812 101.765625 C108.97939917 106.48679402 109.80506664 109.63010618 112.3125 113.625 C112.9725 113.955 113.6325 114.285 114.3125 114.625 C114.22871094 115.32367188 114.14492188 116.02234375 114.05859375 116.7421875 C113.95675781 117.65226562 113.85492188 118.56234375 113.75 119.5 C113.64558594 120.40492188 113.54117188 121.30984375 113.43359375 122.2421875 C113.11575148 124.64153057 113.11575148 124.64153057 114.3125 126.625 C115.76992463 126.70596803 117.22862807 126.76417774 118.6875 126.8125 C119.90566406 126.86470703 119.90566406 126.86470703 121.1484375 126.91796875 C121.86257813 126.82128906 122.57671875 126.72460938 123.3125 126.625 C125.46012184 123.40356724 125.873568 122.3654533 125.3125 118.625 C124.69375 118.2125 124.075 117.8 123.4375 117.375 C120.0097919 114.55218157 119.85702665 110.88709748 119.3125 106.625 C118.91687066 102.335545 118.80855245 98.97272179 120.33203125 94.8984375 C122.3125 92.625 122.3125 92.625 125.9375 92.0234375 C127.39558911 91.99562927 128.85418781 91.98892341 130.3125 92 C137.4045714 91.82479469 143.55762599 90.91663739 150.3125 88.625 C151.10011719 88.37492187 151.88773438 88.12484375 152.69921875 87.8671875 C154.19969413 87.38316318 155.69495626 86.8825734 157.18359375 86.36328125 C158.60283046 85.87110558 160.03320951 85.40996009 161.47265625 84.98046875 C166.71359109 83.30532883 169.34308596 81.31858993 172.3125 76.625 C172.27874167 74.30328408 172.27874167 74.30328408 171.3125 72.625 C169.61137008 71.82030151 169.61137008 71.82030151 167.3125 71.625 C163.02638753 73.22014784 163.02638753 73.22014784 160.3125 76.625 C159.3225 76.625 158.3325 76.625 157.3125 76.625 C156.171875 74.91015625 156.171875 74.91015625 155.0625 72.6875 C153.85402224 70.4647633 153.85402224 70.4647633 152.3125 68.625 C148.64304374 67.49021513 148.64304374 67.49021513 145.3125 67.625 C145.621875 68.6975 145.93125 69.77 146.25 70.875 C146.98062096 73.45366222 147.68732904 76.02012102 148.3125 78.625 C141.30333741 83.03075934 132.46052417 83.82225198 124.3125 83.625 C124.3125 82.635 124.3125 81.645 124.3125 80.625 C125.51648438 80.42003906 126.72046875 80.21507812 127.9609375 80.00390625 C129.53648692 79.73193641 131.11200621 79.45979193 132.6875 79.1875 C133.4815625 79.05279297 134.275625 78.91808594 135.09375 78.77929688 C139.32644983 78.11082411 139.32644983 78.11082411 143.3125 76.625 C143.30089844 75.92632812 143.28929687 75.22765625 143.27734375 74.5078125 C143.26832031 73.59773438 143.25929688 72.68765625 143.25 71.75 C143.23839844 70.84507812 143.22679687 69.94015625 143.21484375 69.0078125 C143.3125 66.625 143.3125 66.625 144.3125 64.625 C151.535719 64.13529024 151.535719 64.13529024 155.1875 66.4375 C157.3125 68.625 157.3125 68.625 159.3125 71.625 C160.158125 70.944375 161.00375 70.26375 161.875 69.5625 C165.3125 67.625 165.3125 67.625 169 67.6875 C173.80079953 69.04621685 173.80079953 69.04621685 175.3125 71.625 C175.90751624 75.45010442 175.48108837 77.30079159 173.6875 80.75 C171.15059822 83.82098636 168.7200904 85.59494615 165.3125 87.625 C164.3225 88.285 163.3325 88.945 162.3125 89.625 C163.158125 90.24375 164.00375 90.8625 164.875 91.5 C167.52717661 94.90022643 167.68764149 95.53732191 167.4375 99.625 C166.86755688 103.16075826 166.25506113 104.70946892 164.1875 107.75 C160.62732391 110.07185397 158.48606827 110.10656557 154.3125 109.625 C153.9825 109.295 153.6525 108.965 153.3125 108.625 C153.3125 106.975 153.3125 105.325 153.3125 103.625 C143.0825 103.625 132.8525 103.625 122.3125 103.625 C122.6425 106.925 122.9725 110.225 123.3125 113.625 C124.6325 114.285 125.9525 114.945 127.3125 115.625 C128.87200551 117.18450551 128.59446698 118.71377131 128.6875 120.875 C128.61986725 124.40881129 128.35285003 125.55909495 126.4375 128.6875 C122.61834037 131.05537897 120.02708796 131.18470427 115.6171875 131.19140625 C113.3125 130.625 113.3125 130.625 111.5078125 128.90234375 C109.73721367 125.52894794 110.22845672 122.77359143 110.5 119.0625 C110.26789416 116.04512412 109.22019291 114.91423149 107.3125 112.625 C106.12568274 109.06454823 106.21560168 106.18691663 106.25 102.4375 C106.25902344 101.16519531 106.26804687 99.89289063 106.27734375 98.58203125 C106.29474609 97.11830078 106.29474609 97.11830078 106.3125 95.625 C105.4379718 95.68493134 104.5634436 95.74486267 103.66241455 95.80661011 C79.64527322 97.406782 55.74853194 97.88829237 31.68273926 97.7623291 C27.21559678 97.7413097 22.74842839 97.73261974 18.28125 97.72265625 C9.62493366 97.70165034 0.96873578 97.66784688 -7.6875 97.625 C-7.71972656 98.87667969 -7.75195312 100.12835938 -7.78515625 101.41796875 C-7.80328369 102.12203857 -7.82141113 102.8261084 -7.84008789 103.55151367 C-7.57640858 107.13459913 -6.05203628 109.01794718 -3.6875 111.625 C-1.39123627 112.90850113 0.81871427 113.73100134 3.3125 114.625 C4.95995596 116.27245596 4.4834616 118.17835451 4.5 120.4375 C4.51417969 121.31019531 4.52835937 122.18289063 4.54296875 123.08203125 C4.29421489 125.82675601 3.87093051 127.35863891 2.3125 129.625 C-0.77505674 131.75575344 -3.55256596 131.94969477 -7.25 132 C-8.20003906 132.02835938 -9.15007812 132.05671875 -10.12890625 132.0859375 C-12.6875 131.625 -12.6875 131.625 -14.515625 129.9609375 C-15.96451966 127.07280748 -15.98982575 125.09012093 -15.875 121.875 C-15.83439453 120.39773438 -15.83439453 120.39773438 -15.79296875 118.890625 C-15.75816406 118.14296875 -15.72335938 117.3953125 -15.6875 116.625 C-16.85732422 116.19380859 -16.85732422 116.19380859 -18.05078125 115.75390625 C-21.52139577 114.26796907 -22.70312083 112.8410628 -24.6875 109.625 C-25.56931428 106.65572707 -26.18179158 103.67921268 -26.6875 100.625 C-31.08469064 106.24507798 -35.42843983 111.89945024 -39.6875 117.625 C-38.6975 119.11 -38.6975 119.11 -37.6875 120.625 C-37.12031065 125.56765003 -37.22716391 127.72020148 -39.5 132.1875 C-41.440279 134.22229116 -42.47018447 134.59828355 -45.29296875 134.9453125 C-49.77140945 134.73982399 -52.96222012 134.03741405 -56.875 131.8125 C-59.67134346 126.89479253 -59.66918897 122.14304203 -58.6875 116.625 C-56.5625 114.5 -56.5625 114.5 -53.6875 112.625 C-51.48851298 109.40447866 -49.61574086 106.01214451 -47.6875 102.625 C-47.0275 101.635 -46.3675 100.645 -45.6875 99.625 C-46.3165625 99.65980469 -46.945625 99.69460937 -47.59375 99.73046875 C-54.47134517 99.94798306 -60.15616876 99.62663155 -65.5625 95.03125 C-73.96719202 86.19183253 -78.67078087 73.17173056 -79.0625 61.0625 C-78.59155213 47.20878343 -71.5992809 34.07530122 -61.6875 24.625 C-58.04991611 21.625 -58.04991611 21.625 -55.6875 21.625 C-56.17863281 20.59826172 -56.17863281 20.59826172 -56.6796875 19.55078125 C-57.85598212 16.13587941 -57.88527146 13.41468716 -57.8125 9.8125 C-57.79445312 8.65105469 -57.77640625 7.48960937 -57.7578125 6.29296875 C-57.73460937 5.41253906 -57.71140625 4.53210938 -57.6875 3.625 C-52.39648029 2.71275522 -48.65426304 2.14161848 -43.6875 4.625 C-39.40985268 8.67142314 -39.59158815 10.29638297 -38.6875 16.625 C-28.1275 16.625 -17.5675 16.625 -6.6875 16.625 C-7.1825 15.635 -7.1825 15.635 -7.6875 14.625 C-7.65052443 12.62263053 -7.53575559 10.62124857 -7.375 8.625 C-7.29636719 7.5525 -7.21773438 6.48 -7.13671875 5.375 C-6.38026075 0.74416149 -4.3059601 0.25057654 0 0 Z " fill="#0B0B0B" transform="translate(240.6875,153.375)"/>
<path d="M0 0 C3 1.125 3 1.125 5 3.6875 C9.32001529 7.19751242 13.01420795 6.59726205 18.4296875 6.49609375 C22.01158558 6.23583078 22.01158558 6.23583078 25.37890625 5.11328125 C29.72194312 3.92796482 33.58676641 3.82463072 38.0625 3.875 C38.917229 3.87959229 39.77195801 3.88418457 40.65258789 3.88891602 C51.61101098 4.03859687 63.01807355 4.52413677 73.78515625 6.68359375 C80.82494371 8.0865849 88.40862453 7.17685983 95.53857422 6.76416016 C105.97627002 6.1740504 116.4101612 5.95654549 126.86279297 5.89282227 C128.52755234 5.88101202 130.19228348 5.86398605 131.85693359 5.84155273 C134.22511537 5.81141051 136.59258459 5.80161354 138.9609375 5.796875 C139.6675351 5.78456848 140.37413269 5.77226196 141.10214233 5.75958252 C146.17862453 5.78191008 149.57350682 6.81558656 154 9.125 C155.125 11.0625 155.125 11.0625 156 13.125 C157.65788785 14.46923339 159.32576317 15.80118483 161 17.125 C166.84894313 23.54457172 170.43621605 29.48716048 171.3125 38.25 C170.50377503 48.27818958 165.21584103 59.73516824 158.5 67.25 C153.59544727 70.92841455 147.51979135 70.25205331 141.61328125 70.1875 C140.79796432 70.18371338 139.9826474 70.17992676 139.1426239 70.17602539 C135.69405414 70.15997515 132.245609 70.13260761 128.79711914 70.10449219 C119.32798193 70.03416536 109.89614519 70.09692316 100.43473816 70.52130127 C85.70750233 71.18117987 71.09029734 71.04011423 56.35986328 70.51074219 C52.44729389 70.37314645 48.53447789 70.26017907 44.62109375 70.1484375 C42.09109647 70.06396567 39.56114587 69.97808136 37.03125 69.890625 C35.88217163 69.85922424 34.73309326 69.82782349 33.54919434 69.79547119 C23.37782064 69.39501013 11.54983745 68.10649148 4.2421875 60.23046875 C0 54.91293605 0 54.91293605 0 50.125 C0.66 50.125 1.32 50.125 2 50.125 C2.268125 50.90875 2.53625 51.6925 2.8125 52.5 C3.84814432 55.40614923 3.84814432 55.40614923 7 57.125 C7 57.785 7 58.445 7 59.125 C8.32 59.455 9.64 59.785 11 60.125 C11 60.785 11 61.445 11 62.125 C11.9590625 62.310625 11.9590625 62.310625 12.9375 62.5 C15.22728344 62.96730274 17.49667035 63.53658435 19.75 64.15625 C26.4563455 65.6507798 33.2285499 65.33757156 40.0625 65.25 C41.41861315 65.23994631 42.77473355 65.2308247 44.13085938 65.22265625 C47.420761 65.19924058 50.71028438 65.16644423 54 65.125 C52.69844994 61.04535719 52.69844994 61.04535719 51 57.125 C51.9375 55 51.9375 55 53 53.125 C52.01 51.805 51.02 50.485 50 49.125 C50.680625 48.568125 51.36125 48.01125 52.0625 47.4375 C54.29301917 45.29222305 54.29301917 45.29222305 53.9375 42.5 C53.13344454 39.80210239 53.13344454 39.80210239 50 38.125 C50.33 37.135 50.66 36.145 51 35.125 C53.54623682 36.09081397 54.9734119 37.09566141 56.8125 39.125 C58.92251205 44.45555675 57.43265412 49.87519856 56.375 55.375 C55.84835282 59.23707931 56.25045005 62.62590009 58 66.125 C77.30580709 66.94645825 77.30580709 66.94645825 96.625 67.25 C97.88425293 67.25676758 97.88425293 67.25676758 99.16894531 67.26367188 C102.88753326 67.60737741 102.88753326 67.60737741 106 66.125 C108.67250538 66.10412105 111.32900188 66.1313335 114 66.1875 C120.31908812 66.26676106 125.88847363 65.90289858 132 64.125 C132.22245393 62.52273045 132.42746669 60.91803233 132.625 59.3125 C132.74101563 58.41917969 132.85703125 57.52585937 132.9765625 56.60546875 C133.23500743 53.86809609 133.23500743 53.86809609 131 51.125 C132.98 48.155 132.98 48.155 135 45.125 C133.02 43.145 133.02 43.145 131 41.125 C131.99 40.795 132.98 40.465 134 40.125 C136.0625 41.875 136.0625 41.875 138 44.125 C137.8125 46.0625 137.8125 46.0625 137 48.125 C136.1791675 51.49041324 135.8799929 52.76497871 137 56.125 C136.3409159 57.79467972 135.67349161 59.46107955 135 61.125 C134.95846842 62.79114912 134.95263898 64.45900639 135 66.125 C139.00172544 66.18502588 142.99815604 66.16924643 147 66.125 C148.17175781 66.15400391 148.17175781 66.15400391 149.3671875 66.18359375 C152.2921784 66.09823409 154.43605645 65.62598549 156.64453125 63.6640625 C162.32126833 56.62203422 166.82195649 47.1075818 168 38.125 C166.50036399 29.60434087 160.2360902 21.81084695 154 16.125 C153.40929986 18.07103274 153.40929986 18.07103274 153 20.125 C153.33 20.455 153.66 20.785 154 21.125 C154.2165625 22.73375 154.2165625 22.73375 154.4375 24.375 C154.82799456 28.02222987 154.82799456 28.02222987 156.125 30.8125 C157.11938461 33.44051646 157.01329656 34.54569966 156 37.125 C155 38.125 155 38.125 152.4375 38.1875 C151.633125 38.166875 150.82875 38.14625 150 38.125 C150.33 37.135 150.66 36.145 151 35.125 C151.66 34.795 152.32 34.465 153 34.125 C152.484375 33.238125 151.96875 32.35125 151.4375 31.4375 C149.9131063 27.92476669 149.85052105 26.67793493 151 23.125 C149.68 22.795 148.36 22.465 147 22.125 C147.55728913 18.78126525 148.35173889 16.09187001 150 13.125 C144.69218909 10.50915974 140.54174246 9.66480324 134.66015625 9.61328125 C133.50972084 9.58635445 133.50972084 9.58635445 132.33604431 9.55888367 C129.91158374 9.5051552 127.48731568 9.47100725 125.0625 9.4375 C123.40817654 9.40429366 121.75387838 9.36980098 120.09960938 9.33398438 C116.06654607 9.24945114 112.03353612 9.18246321 108 9.125 C108 9.785 108 10.445 108 11.125 C108.9590625 11.49625 108.9590625 11.49625 109.9375 11.875 C112 13.125 112 13.125 112.75 14.8125 C113.16708565 18.67054222 113.47927342 22.49547037 112.375 26.25 C111.78481479 28.25931286 111.78481479 28.25931286 113.0625 30.5 C114 33.125 114 33.125 113.4375 36.3125 C112 39.125 112 39.125 109.375 40.5 C108.59125 40.70625 107.8075 40.9125 107 41.125 C107 38.125 107 38.125 109 35.9375 C109.66 35.339375 110.32 34.74125 111 34.125 C110.484375 33.238125 109.96875 32.35125 109.4375 31.4375 C107.91020998 27.91809257 107.78324286 26.673875 109 23.125 C109.495 22.63 109.495 22.63 110 22.125 C109.34 21.795 108.68 21.465 108 21.125 C108.57584432 18.73935923 109.22227595 16.45817216 110 14.125 C109.360625 13.815625 108.72125 13.50625 108.0625 13.1875 C106 12.125 106 12.125 105 11.125 C102.53018231 11.0247926 100.09448776 10.98622962 97.625 11 C96.93921875 10.99613281 96.2534375 10.99226562 95.546875 10.98828125 C92.42777362 10.99434954 89.98024365 11.13158545 87 12.125 C87.99 13.61 87.99 13.61 89 15.125 C88.67873872 17.75934254 88.18644952 19.75210097 87 22.125 C87.00569738 23.70887124 87.05307965 25.29275223 87.125 26.875 C87.19017302 31.37193831 86.44500508 34.25374196 84 38.125 C83.34 38.125 82.68 38.125 82 38.125 C82.2784375 36.454375 82.2784375 36.454375 82.5625 34.75 C83.31680657 31.29931139 83.31680657 31.29931139 82 29.125 C82.9375 26.5 82.9375 26.5 84 24.125 C83.01 24.125 82.02 24.125 81 24.125 C81.56371414 20.85545798 82.49962266 19.29924117 85 17.125 C84.01 15.64 84.01 15.64 83 14.125 C83 13.135 83 12.145 83 11.125 C81.44925781 11.17140625 81.44925781 11.17140625 79.8671875 11.21875 C72.35488848 11.21875 64.89025466 10.06820601 57.44140625 9.19140625 C50.58951797 8.4153024 43.89665248 7.90991526 37 8.125 C37.495 8.62 37.495 8.62 38 9.125 C38.31921534 14.65806581 37.43603821 18.25292357 35 23.125 C35.185625 23.74375 35.37125 24.3625 35.5625 25 C36 27.125 36 27.125 35.0625 28.875 C33.44610496 32.2979542 33.87464081 35.36422443 34 39.125 C32.68 39.785 31.36 40.445 30 41.125 C29.34 40.465 28.68 39.805 28 39.125 C28.7734375 38.63 28.7734375 38.63 29.5625 38.125 C31.33834722 35.65425604 31.02853971 34.98054407 30.5625 32.0625 C30.2840625 30.1134375 30.2840625 30.1134375 30 28.125 C30.66 27.465 31.32 26.805 32 26.125 C31.67673447 22.52820934 31.67673447 22.52820934 31 19.125 C31.99 19.125 32.98 19.125 34 19.125 C34.33 16.155 34.66 13.185 35 10.125 C34.34 10.125 33.68 10.125 33 10.125 C33 9.465 33 8.805 33 8.125 C32.46375 8.269375 31.9275 8.41375 31.375 8.5625 C25.83061763 9.87564319 20.42804529 10.39523902 14.75 10.5 C14.07710938 10.52578125 13.40421875 10.5515625 12.7109375 10.578125 C7.68434991 10.59799294 4.86064733 9.27201252 1 6.125 C0.67 5.465 0.34 4.805 0 4.125 C-0.99 4.455 -1.98 4.785 -3 5.125 C-5.06674677 10.34625499 -5.70105111 15.53691145 -5 21.125 C-3.61785878 24.47661246 -3.61785878 24.47661246 -2 27.125 C-2 27.785 -2 28.445 -2 29.125 C-3.65 28.795 -5.3 28.465 -7 28.125 C-8.14603808 23.46569763 -8.28978482 18.89705021 -8.375 14.125 C-8.41238281 13.3309375 -8.44976562 12.536875 -8.48828125 11.71875 C-8.55365 7.36083309 -8.40063836 5.6489117 -5.6640625 2.0703125 C-3 0.125 -3 0.125 0 0 Z " fill="#0F0F0F" transform="translate(433,214.875)"/>
<path d="M0 0 C7.223219 -0.48970976 7.223219 -0.48970976 10.875 1.8125 C13 4 13 4 15 7 C15.845625 6.319375 16.69125 5.63875 17.5625 4.9375 C21 3 21 3 24.6875 3.0625 C29.48829953 4.42121685 29.48829953 4.42121685 31 7 C31.59501624 10.82510442 31.16858837 12.67579159 29.375 16.125 C26.83809822 19.19598636 24.4075904 20.96994615 21 23 C20.01 23.66 19.02 24.32 18 25 C18.845625 25.61875 19.69125 26.2375 20.5625 26.875 C23.21467661 30.27522643 23.37514149 30.91232191 23.125 35 C22.55505688 38.53575826 21.94256113 40.08446892 19.875 43.125 C16.31482391 45.44685397 14.17356827 45.48156557 10 45 C9.67 44.67 9.34 44.34 9 44 C9 42.35 9 40.7 9 39 C-1.23 39 -11.46 39 -22 39 C-21.505 43.95 -21.505 43.95 -21 49 C-19.68 49.66 -18.36 50.32 -17 51 C-15.44049449 52.55950551 -15.71803302 54.08877131 -15.625 56.25 C-15.69263275 59.78381129 -15.95964997 60.93409495 -17.875 64.0625 C-21.69415963 66.43037897 -24.28541204 66.55970427 -28.6953125 66.56640625 C-31 66 -31 66 -32.8046875 64.27734375 C-34.57528633 60.90394794 -34.08404328 58.14859143 -33.8125 54.4375 C-34.04460584 51.42012412 -35.09230709 50.28923149 -37 48 C-38.18681726 44.43954823 -38.09689832 41.56191663 -38.0625 37.8125 C-38.05347656 36.54019531 -38.04445313 35.26789063 -38.03515625 33.95703125 C-38.02355469 32.98121094 -38.01195312 32.00539062 -38 31 C-38.58563721 31.03029297 -39.17127441 31.06058594 -39.7746582 31.09179688 C-56.19267765 31.91690271 -72.56293581 32.1243493 -89 32 C-88.67 31.34 -88.34 30.68 -88 30 C-85.92822266 29.58935547 -85.92822266 29.58935547 -83.1640625 29.3671875 C-82.1313623 29.2832373 -81.09866211 29.19928711 -80.03466797 29.11279297 C-78.90947754 29.03432129 -77.78428711 28.95584961 -76.625 28.875 C-75.47789551 28.79008301 -74.33079102 28.70516602 -73.14892578 28.61767578 C-60.43665388 27.76123019 -47.73367108 27.80437518 -35 28 C-35.03480469 29.01320312 -35.06960938 30.02640625 -35.10546875 31.0703125 C-35.13362595 32.4218583 -35.16092403 33.77342219 -35.1875 35.125 C-35.21263672 35.79015625 -35.23777344 36.4553125 -35.26367188 37.140625 C-35.33310083 41.86179402 -34.50743336 45.00510618 -32 49 C-31.01 49.495 -31.01 49.495 -30 50 C-30.08378906 50.69867188 -30.16757812 51.39734375 -30.25390625 52.1171875 C-30.35574219 53.02726562 -30.45757812 53.93734375 -30.5625 54.875 C-30.66691406 55.77992188 -30.77132812 56.68484375 -30.87890625 57.6171875 C-31.19674852 60.01653057 -31.19674852 60.01653057 -30 62 C-28.54257537 62.08096803 -27.08387193 62.13917774 -25.625 62.1875 C-24.40683594 62.23970703 -24.40683594 62.23970703 -23.1640625 62.29296875 C-22.44992187 62.19628906 -21.73578125 62.09960938 -21 62 C-18.85237816 58.77856724 -18.438932 57.7404533 -19 54 C-19.61875 53.5875 -20.2375 53.175 -20.875 52.75 C-24.3027081 49.92718157 -24.45547335 46.26209748 -25 42 C-25.39562934 37.710545 -25.50394755 34.34772179 -23.98046875 30.2734375 C-22 28 -22 28 -18.375 27.3984375 C-16.91691089 27.37062927 -15.45831219 27.36392341 -14 27.375 C-6.9079286 27.19979469 -0.75487401 26.29163739 6 24 C7.18142578 23.62488281 7.18142578 23.62488281 8.38671875 23.2421875 C9.88719413 22.75816318 11.38245626 22.2575734 12.87109375 21.73828125 C14.29033046 21.24610558 15.72070951 20.78496009 17.16015625 20.35546875 C22.40109109 18.68032883 25.03058596 16.69358993 28 12 C27.96624167 9.67828408 27.96624167 9.67828408 27 8 C25.29887008 7.19530151 25.29887008 7.19530151 23 7 C18.71388753 8.59514784 18.71388753 8.59514784 16 12 C15.01 12 14.02 12 13 12 C11.859375 10.28515625 11.859375 10.28515625 10.75 8.0625 C9.54152224 5.8397633 9.54152224 5.8397633 8 4 C4.33054374 2.86521513 4.33054374 2.86521513 1 3 C1.309375 4.0725 1.61875 5.145 1.9375 6.25 C2.66812096 8.82866222 3.37482904 11.39512102 4 14 C-3.00916259 18.40575934 -11.85197583 19.19725198 -20 19 C-20 18.01 -20 17.02 -20 16 C-18.79601562 15.79503906 -17.59203125 15.59007812 -16.3515625 15.37890625 C-14.77601308 15.10693641 -13.20049379 14.83479193 -11.625 14.5625 C-10.8309375 14.42779297 -10.036875 14.29308594 -9.21875 14.15429688 C-4.98605017 13.48582411 -4.98605017 13.48582411 -1 12 C-1.01160156 11.30132812 -1.02320313 10.60265625 -1.03515625 9.8828125 C-1.04417969 8.97273437 -1.05320312 8.06265625 -1.0625 7.125 C-1.07410156 6.22007812 -1.08570313 5.31515625 -1.09765625 4.3828125 C-1 2 -1 2 0 0 Z " fill="#0D0D0D" transform="translate(385,218)"/>
<path d="M0 0 C3.2980888 2.02959311 4.4779516 3.23853057 5.57421875 6.9375 C6.30515078 11.08730764 6.18922515 14.27831724 4 18 C1 20 1 20 -2 20 C-2.33 20.99 -2.66 21.98 -3 23 C-3 22.34 -3 21.68 -3 21 C-3.99 21 -4.98 21 -6 21 C-6.20882813 21.59167969 -6.41765625 22.18335938 -6.6328125 22.79296875 C-8.52116291 25.84130585 -10.68070584 26.73878295 -13.875 28.3125 C-14.92429687 28.84488281 -15.97359375 29.37726563 -17.0546875 29.92578125 C-20.03497727 31.01275696 -21.12737292 31.18651988 -24 30 C-23.38125 29.443125 -22.7625 28.88625 -22.125 28.3125 C-19.88833595 25.87848324 -18.87238929 24.1723247 -18 21 C-18.37907282 18.81296615 -18.37907282 18.81296615 -19 17 C-18.67 16.67 -18.34 16.34 -18 16 C-18.09112188 12.98842195 -18.26267664 9.98735529 -18.453125 6.98046875 C-18 4 -18 4 -15.890625 1.6484375 C-10.82161492 -1.24226825 -5.6561643 -0.81941867 0 0 Z " fill="#C9C9C9" transform="translate(435,244)"/>
<path d="M0 0 C21.78 0 43.56 0 66 0 C66 0.33 66 0.66 66 1 C72.93 1.495 72.93 1.495 80 2 C80 2.33 80 2.66 80 3 C54.26 3 28.52 3 2 3 C1.71974586 11.18280534 1.71974586 11.18280534 6 17 C8.29626373 18.28350113 10.50621427 19.10600134 13 20 C14.64745596 21.64745596 14.1709616 23.55335451 14.1875 25.8125 C14.20167969 26.68519531 14.21585938 27.55789063 14.23046875 28.45703125 C13.98592619 31.15528898 13.50215754 32.75440179 12 35 C9.375 35.75 9.375 35.75 7 36 C7.33 35.01 7.66 34.02 8 33 C8.99 32.505 8.99 32.505 10 32 C10.46651207 29.87423218 10.46651207 29.87423218 10.625 27.4375 C10.69976562 26.61121094 10.77453125 25.78492188 10.8515625 24.93359375 C10.90054688 24.29550781 10.94953125 23.65742188 11 23 C9.4221875 22.4740625 9.4221875 22.4740625 7.8125 21.9375 C3.44417127 20.01969714 0.83281493 17.42998765 -1 13 C-1.60327988 8.43032824 -1.45870932 4.37612797 0 0 Z " fill="#0F0F0F" transform="translate(231,248)"/>
<path d="M0 0 C2 2.4375 2 2.4375 2.5 5.9375 C1.75675676 11.1402027 1.75675676 11.1402027 -1 13.4375 C-4.1875 13.6875 -4.1875 13.6875 -7 13.4375 C-7 11.1275 -7 8.8175 -7 6.4375 C-7.66 6.7675 -8.32 7.0975 -9 7.4375 C-11.32416296 7.52336809 -13.65083307 7.54461043 -15.9765625 7.53515625 C-16.66181 7.5337413 -17.3470575 7.53232635 -18.05307007 7.53086853 C-20.24375761 7.52526675 -22.4343433 7.51271406 -24.625 7.5 C-26.10937352 7.49498522 -27.59374865 7.49042228 -29.078125 7.48632812 C-32.71878315 7.47529677 -36.35938164 7.45803099 -40 7.4375 C-39.67 5.7875 -39.34 4.1375 -39 2.4375 C-37.72125 2.52 -36.4425 2.6025 -35.125 2.6875 C-29.05865763 2.72216481 -23.44310547 1.34196079 -17.59814453 -0.13964844 C-11.61548291 -1.60879843 -5.68980806 -2.9634417 0 0 Z " fill="#F0F0F0" transform="translate(403,246.5625)"/>
<path d="M0 0 C-0.33 0.66 -0.66 1.32 -1 2 C-2.32 2 -3.64 2 -5 2 C-5 2.66 -5 3.32 -5 4 C-4.360625 4.2475 -3.72125 4.495 -3.0625 4.75 C-1 6 -1 6 -0.25 7.6875 C0.16708565 11.54554222 0.47927342 15.37047037 -0.625 19.125 C-1.21518521 21.13431286 -1.21518521 21.13431286 0.0625 23.375 C1 26 1 26 0.4375 29.1875 C-1 32 -1 32 -3.625 33.375 C-4.40875 33.58125 -5.1925 33.7875 -6 34 C-6 31 -6 31 -4 28.8125 C-3.01 27.9153125 -3.01 27.9153125 -2 27 C-2.515625 26.113125 -3.03125 25.22625 -3.5625 24.3125 C-5.08979002 20.79309257 -5.21675714 19.548875 -4 16 C-3.67 15.67 -3.34 15.34 -3 15 C-3.66 14.67 -4.32 14.34 -5 14 C-4.42415568 11.61435923 -3.77772405 9.33317216 -3 7 C-8.60944292 3.85871197 -14.68146331 2.77369837 -21 2 C-20.67 1.34 -20.34 0.68 -20 0 C-17.22949974 -0.1946838 -14.45886998 -0.38102792 -11.6875 -0.5625 C-10.90181641 -0.61857422 -10.11613281 -0.67464844 -9.30664062 -0.73242188 C-8.1706543 -0.80493164 -8.1706543 -0.80493164 -7.01171875 -0.87890625 C-6.31522217 -0.9260376 -5.61872559 -0.97316895 -4.90112305 -1.02172852 C-3 -1 -3 -1 0 0 Z " fill="#030303" transform="translate(546,222)"/>
<path d="M0 0 C0.99 0.66 1.98 1.32 3 2 C3 2.66 3 3.32 3 4 C2.19175781 3.96519531 1.38351563 3.93039063 0.55078125 3.89453125 C-1.05216797 3.85392578 -1.05216797 3.85392578 -2.6875 3.8125 C-3.74324219 3.77769531 -4.79898438 3.74289063 -5.88671875 3.70703125 C-9.39678395 4.03733851 -11.20084051 4.89559592 -14 7 C-15.25941717 9.29558468 -15.25941717 9.29558468 -15 12 C-13.09877951 16.04009355 -11.87302728 17.65408353 -7.6875 19.3125 C-4.13140323 19.97550109 -0.59064119 20.56032965 3 21 C3 21.99 3 22.98 3 24 C-12.19286879 22.89158945 -12.19286879 22.89158945 -15.375 19.375 C-17.24030579 15.50090335 -18.58691976 12.3328488 -18 8 C-13.28657329 0.51396934 -8.29846284 -0.5353847 0 0 Z " fill="#040404" transform="translate(204,196)"/>
<path d="M0 0 C1.64510941 0.00015915 3.29022379 0.00585551 4.93530273 0.01586914 C6.23164894 0.01799156 6.23164894 0.01799156 7.55418396 0.02015686 C10.32578941 0.025773 13.09731528 0.0383282 15.86889648 0.05102539 C17.74324428 0.05603831 19.61759334 0.06060158 21.49194336 0.06469727 C26.09679192 0.07574767 30.70158069 0.09302309 35.30639648 0.11352539 C31.73473671 3.52452812 28.8831119 3.48792395 24.05639648 3.47680664 C23.36126953 3.47730515 22.66614258 3.47780365 21.94995117 3.47831726 C20.4841017 3.47598265 19.01824776 3.46629018 17.55249023 3.44970703 C15.31384281 3.4261039 13.07638686 3.42915152 10.83764648 3.43579102 C-1.10611054 3.38911476 -1.10611054 3.38911476 -4.69360352 1.11352539 C-3.69360352 0.11352539 -3.69360352 0.11352539 0 0 Z " fill="#1F1F1F" transform="translate(329.693603515625,231.886474609375)"/>
<path d="M0 0 C10.56 0 21.12 0 32 0 C32 0.33 32 0.66 32 1 C38.93 1.495 38.93 1.495 46 2 C46 2.33 46 2.66 46 3 C40.43156251 3.02481649 34.86315759 3.04291507 29.29467773 3.05493164 C27.40241942 3.05994403 25.51016495 3.06675567 23.61791992 3.07543945 C20.88980152 3.08764098 18.16173457 3.09325938 15.43359375 3.09765625 C14.59477158 3.10281754 13.7559494 3.10797882 12.89170837 3.11329651 C8.1519999 3.11374383 3.67452688 2.79326968 -1 2 C-0.67 1.34 -0.34 0.68 0 0 Z " fill="#2A2A2A" transform="translate(265,248)"/>
<path d="M0 0 C0.33 0 0.66 0 1 0 C3.14285714 7.42857143 3.14285714 7.42857143 4 11 C-3.00916259 15.40575934 -11.85197583 16.19725198 -20 16 C-20 15.01 -20 14.02 -20 13 C-18.79601562 12.79503906 -17.59203125 12.59007812 -16.3515625 12.37890625 C-14.77601308 12.10693641 -13.20049379 11.83479193 -11.625 11.5625 C-10.8309375 11.42779297 -10.036875 11.29308594 -9.21875 11.15429688 C-4.98605017 10.48582411 -4.98605017 10.48582411 -1 9 C-1.020625 7.700625 -1.04125 6.40125 -1.0625 5.0625 C-1.08399454 3.70834367 -1.07148199 2.35243917 -1 1 C-0.67 0.67 -0.34 0.34 0 0 Z " fill="#191919" transform="translate(385,221)"/>
<path d="M0 0 C0.66 0.33 1.32 0.66 2 1 C0.125 5.75 0.125 5.75 -1 8 C-0.7215625 8.928125 -0.7215625 8.928125 -0.4375 9.875 C0 12 0 12 -0.9375 13.75 C-2.55389504 17.1729542 -2.12535919 20.23922443 -2 24 C-3.98 24.99 -3.98 24.99 -6 26 C-6.66 25.34 -7.32 24.68 -8 24 C-7.484375 23.67 -6.96875 23.34 -6.4375 23 C-4.66165278 20.52925604 -4.97146029 19.85554407 -5.4375 16.9375 C-5.623125 15.638125 -5.80875 14.33875 -6 13 C-5.34 12.34 -4.68 11.68 -4 11 C-4.32326553 7.40320934 -4.32326553 7.40320934 -5 4 C-4.01 4 -3.02 4 -2 4 C-1.34 2.68 -0.68 1.36 0 0 Z " fill="#000000" transform="translate(469,230)"/>
<path d="M0 0 C7.59 0.33 15.18 0.66 23 1 C23 1.99 23 2.98 23 4 C20.10410348 4.02706445 17.20846205 4.04687029 14.3125 4.0625 C13.08756836 4.07506836 13.08756836 4.07506836 11.83789062 4.08789062 C7.75500916 4.10442051 3.98348293 4.03035098 0 3 C0 2.01 0 1.02 0 0 Z " fill="#1E1E1E" transform="translate(193,228)"/>
<path d="M0 0 C0.99 0.66 1.98 1.32 3 2 C3 2.66 3 3.32 3 4 C2.19175781 3.96519531 1.38351563 3.93039063 0.55078125 3.89453125 C-1.05216797 3.85392578 -1.05216797 3.85392578 -2.6875 3.8125 C-3.74324219 3.77769531 -4.79898438 3.74289063 -5.88671875 3.70703125 C-10.71676421 4.16155247 -13.80392535 6.46749644 -17 10 C-17.33 9.34 -17.66 8.68 -18 8 C-12.6925153 1.02444868 -8.75756555 -0.56500423 0 0 Z " fill="#0C0C0C" transform="translate(204,196)"/>
<path d="M0 0 C3.3 0 6.6 0 10 0 C10 0.33 10 0.66 10 1 C16.6 1.33 23.2 1.66 30 2 C30 2.33 30 2.66 30 3 C19.77 3 9.54 3 -1 3 C-0.67 2.01 -0.34 1.02 0 0 Z " fill="#1F1F1F" transform="translate(546,221)"/>
<path d="M0 0 C0.99 0.495 0.99 0.495 2 1 C1.96519531 1.72445312 1.93039062 2.44890625 1.89453125 3.1953125 C1.73190359 9.00344326 1.86982276 12.91346199 5 18 C5 18.66 5 19.32 5 20 C3.35 19.67 1.7 19.34 0 19 C0 12.73 0 6.46 0 0 Z " fill="#050505" transform="translate(426,224)"/>
<path d="M0 0 C0.66 0.66 1.32 1.32 2 2 C1.69903201 6.13830989 1.32101984 8.51847024 -1 12 C-1.66 12 -2.32 12 -3 12 C-2.835 10.906875 -2.67 9.81375 -2.5 8.6875 C-1.93281816 5.12474127 -1.93281816 5.12474127 -2 2 C-1.34 1.34 -0.68 0.68 0 0 Z " fill="#000000" transform="translate(518,241)"/>
<path d="M0 0 C0.99 0.33 1.98 0.66 3 1 C2.39301257 5.12751449 0.96189209 8.3321148 -1 12 C-1.66 12 -2.32 12 -3 12 C-3.32803732 7.29813179 -2.65796641 4.87620102 0 1 C0 0.67 0 0.34 0 0 Z " fill="#000000" transform="translate(441,236)"/>
<path d="M0 0 C2.4375 0.8125 2.4375 0.8125 5 2 C5.33 2.99 5.66 3.98 6 5 C3 5 3 5 0.8125 3 C0.214375 2.34 -0.38375 1.68 -1 1 C-0.67 0.67 -0.34 0.34 0 0 Z " fill="#000000" transform="translate(565,255)"/>
<path d="M0 0 C4.95 0 9.9 0 15 0 C15 0.99 15 1.98 15 3 C13.35 3 11.7 3 10 3 C10 2.34 10 1.68 10 1 C6.7 1 3.4 1 0 1 C0 0.67 0 0.34 0 0 Z " fill="#9D9D9D" transform="translate(355,231)"/>
<path d="M0 0 C1.98 0.495 1.98 0.495 4 1 C3.34 2.32 2.68 3.64 2 5 C1.01 5 0.02 5 -1 5 C-0.67 3.35 -0.34 1.7 0 0 Z " fill="#050505" transform="translate(179,193)"/>
<path d="M0 0 C0.66 0 1.32 0 2 0 C2.33 1.65 2.66 3.3 3 5 C1.68 5 0.36 5 -1 5 C-0.67 3.35 -0.34 1.7 0 0 Z " fill="#030303" transform="translate(223,192)"/>
</svg>
