<?xml version="1.0" encoding="UTF-8"?>
<svg version="1.1" xmlns="http://www.w3.org/2000/svg" width="800" height="300">
<path d="M0 0 C264 0 528 0 800 0 C800 99 800 198 800 300 C536 300 272 300 0 300 C0 201 0 102 0 0 Z " fill="#FEFEFE" transform="translate(0,0)"/>
<path d="M0 0 C4.56424354 1.62172756 7.5272917 5.83328741 10.1328125 9.7578125 C11.42444206 13.12504579 11.0725087 13.99902771 10.1328125 17.7578125 C47.7528125 17.7578125 85.3728125 17.7578125 124.1328125 17.7578125 C124.4628125 14.4578125 124.7928125 11.1578125 125.1328125 7.7578125 C126.70199742 6.18862758 128.27366409 6.47522307 130.4453125 6.3828125 C133.8859716 6.44298301 134.82823814 6.52176737 137.6328125 8.6953125 C139.59050296 12.69226385 139.94080365 16.35120947 140.1328125 20.7578125 C141.1228125 21.0878125 142.1128125 21.4178125 143.1328125 21.7578125 C143.1328125 22.4178125 143.1328125 23.0778125 143.1328125 23.7578125 C143.70128906 23.8815625 144.26976562 24.0053125 144.85546875 24.1328125 C151.49914457 25.90741706 155.5501262 28.83102573 159.1328125 34.7578125 C159.91722282 37.11485127 160.41101801 39.31867109 160.74609375 41.77734375 C161.06142556 44.06777042 161.06142556 44.06777042 163.1328125 46.7578125 C163.56961256 50.28405085 163.45694539 53.83245548 163.4453125 57.3828125 C163.46142578 58.34316406 163.47753906 59.30351562 163.49414062 60.29296875 C163.49916908 67.7049057 162.68170185 74.43653244 158.0703125 80.4453125 C148.41989313 88.04245115 137.62154158 91.79142343 126.1328125 95.7578125 C126.9371875 96.2321875 127.7415625 96.7065625 128.5703125 97.1953125 C131.1328125 98.7578125 131.1328125 98.7578125 132.1328125 99.7578125 C132.50041981 102.08599214 132.83522831 104.419651 133.1328125 106.7578125 C133.69871094 106.96277344 134.26460937 107.16773438 134.84765625 107.37890625 C135.58113281 107.64832031 136.31460938 107.91773438 137.0703125 108.1953125 C137.80121094 108.46214844 138.53210938 108.72898437 139.28515625 109.00390625 C141.1328125 109.7578125 141.1328125 109.7578125 142.1328125 110.7578125 C142.70530952 114.86070782 142.33702278 116.45149708 140.0078125 119.9453125 C136.43233675 123.77187504 132.95690233 125.59198615 127.6953125 126.0703125 C123.87721613 125.73539177 120.76434621 124.94361942 117.1328125 123.7578125 C117.09039527 121.42486475 117.09188313 119.09078683 117.1328125 116.7578125 C117.4628125 116.4278125 117.7928125 116.0978125 118.1328125 115.7578125 C118.47638408 112.11595374 118.70438838 109.67681686 116.73828125 106.515625 C112.6696017 103.7706388 108.88748616 104.54600152 104.1328125 104.9453125 C102.72672729 105.03897095 102.72672729 105.03897095 101.29223633 105.13452148 C98.57031163 105.32090317 95.85198521 105.5352265 93.1328125 105.7578125 C91.78259954 105.86000401 90.43234525 105.96165244 89.08203125 106.0625 C86.42949143 106.27216183 83.78104351 106.50011714 81.1328125 106.7578125 C81.1328125 107.7478125 81.1328125 108.7378125 81.1328125 109.7578125 C81.7928125 110.0878125 82.4528125 110.4178125 83.1328125 110.7578125 C83.42315206 114.13865542 83.57211898 117.38626759 83.1328125 120.7578125 C80.49838736 123.60021857 77.90156894 125.56056544 73.99609375 125.99609375 C67.74959405 126.17784489 64.27234491 125.3331394 59.1328125 121.7578125 C58.56418505 112.09114583 58.56418505 112.09114583 62.1328125 107.7578125 C64.7617406 105.37534641 65.52115428 104.7578125 69.1328125 104.7578125 C69.7928125 102.4478125 70.4528125 100.1378125 71.1328125 97.7578125 C70.32577881 97.78810547 69.51874512 97.81839844 68.68725586 97.84960938 C48.49223475 98.58961438 28.34102833 98.89498188 8.1328125 98.7578125 C8.62394531 99.52480469 9.11507812 100.29179687 9.62109375 101.08203125 C11.25431755 103.97287958 11.41171042 105.5040034 11.1328125 108.7578125 C12.2465625 108.8815625 13.3603125 109.0053125 14.5078125 109.1328125 C18.1328125 109.7578125 18.1328125 109.7578125 20.1328125 111.7578125 C20.6365545 115.53587754 20.44781529 117.26280812 18.3828125 120.5078125 C14.33956206 124.55106294 11.25116206 125.05092393 5.5703125 125.0703125 C4.43464844 125.08707031 3.29898438 125.10382813 2.12890625 125.12109375 C-0.8671875 124.7578125 -0.8671875 124.7578125 -2.75390625 123.484375 C-5.02895933 119.95604706 -4.15877376 115.21574381 -3.3671875 111.2578125 C-3.2021875 110.7628125 -3.0371875 110.2678125 -2.8671875 109.7578125 C-7.22321301 107.60542342 -11.22948016 107.45114372 -15.9921875 107.5078125 C-17.19258667 107.51361328 -17.19258667 107.51361328 -18.41723633 107.51953125 C-30.2584013 107.67950196 -42.07264389 108.76313976 -53.8671875 109.7578125 C-54.1971875 110.7478125 -54.5271875 111.7378125 -54.8671875 112.7578125 C-53.2171875 113.4178125 -51.5671875 114.0778125 -49.8671875 114.7578125 C-49.49949948 120.27313283 -49.49949948 120.27313283 -51.2421875 122.5703125 C-54.80373558 125.17298225 -58.46988697 125.30589042 -62.7421875 125.6953125 C-63.82306641 125.83549805 -63.82306641 125.83549805 -64.92578125 125.97851562 C-67.046875 126.16015625 -67.046875 126.16015625 -70.8671875 125.7578125 C-73.6847261 122.6425214 -75.43624172 119.89691052 -75.3671875 115.6328125 C-74.8671875 111.7578125 -74.8671875 111.7578125 -72.9921875 109.2578125 C-70.8671875 107.7578125 -70.8671875 107.7578125 -68.8671875 107.7578125 C-68.6196875 106.8296875 -68.3721875 105.9015625 -68.1171875 104.9453125 C-66.79744001 101.57995641 -65.96202801 100.49866029 -62.8671875 98.7578125 C-62.2071875 98.7578125 -61.5471875 98.7578125 -60.8671875 98.7578125 C-60.8671875 98.0978125 -60.8671875 97.4378125 -60.8671875 96.7578125 C-62.1665625 96.3865625 -62.1665625 96.3865625 -63.4921875 96.0078125 C-67.07778814 94.67981226 -69.83046737 93.07150402 -72.8671875 90.7578125 C-72.8671875 90.0978125 -72.8671875 89.4378125 -72.8671875 88.7578125 C-73.48335937 88.50386719 -74.09953125 88.24992187 -74.734375 87.98828125 C-77.19297419 86.56985864 -77.80544682 85.60834193 -78.9921875 83.0703125 C-79.30414063 82.42707031 -79.61609375 81.78382813 -79.9375 81.12109375 C-82.83112078 73.76546108 -83.20311082 67.3874167 -83.1796875 59.5078125 C-83.19580078 58.43917969 -83.21191406 57.37054688 -83.22851562 56.26953125 C-83.23349996 48.06530948 -82.74278772 38.97414972 -77.4921875 32.2578125 C-73.44466803 28.40303205 -68.70306562 26.0880514 -63.7421875 23.5703125 C-62.70835937 23.04050781 -61.67453125 22.51070312 -60.609375 21.96484375 C-57.8671875 20.7578125 -57.8671875 20.7578125 -54.8671875 20.7578125 C-55.1971875 20.0978125 -55.5271875 19.4378125 -55.8671875 18.7578125 C-56.242488 13.12830507 -55.97789391 9.66315722 -52.8671875 4.7578125 C-50.37963964 3.51403857 -48.64063449 3.62475015 -45.8671875 3.6328125 C-44.9803125 3.63023437 -44.0934375 3.62765625 -43.1796875 3.625 C-40.8671875 3.7578125 -40.8671875 3.7578125 -38.8671875 4.7578125 C-38.8671875 5.4178125 -38.8671875 6.0778125 -38.8671875 6.7578125 C-38.2071875 6.7578125 -37.5471875 6.7578125 -36.8671875 6.7578125 C-35.55092058 10.37754652 -34.8671875 12.85348381 -34.8671875 16.7578125 C-34.30773437 16.685625 -33.74828125 16.6134375 -33.171875 16.5390625 C-25.72636095 15.67720235 -18.35546262 15.6607023 -10.8671875 15.7578125 C-10.92519531 15.09394531 -10.98320312 14.43007812 -11.04296875 13.74609375 C-11.27606953 9.18397855 -11.38205994 6.56230069 -8.8671875 2.6328125 C-5.84856777 0.74617517 -3.60692931 -0.2057184 0 0 Z " fill="#FCFCFC" transform="translate(241.8671875,160.2421875)"/>
<path d="M0 0 C4.56424354 1.62172756 7.5272917 5.83328741 10.1328125 9.7578125 C11.42444206 13.12504579 11.0725087 13.99902771 10.1328125 17.7578125 C47.7528125 17.7578125 85.3728125 17.7578125 124.1328125 17.7578125 C124.4628125 14.4578125 124.7928125 11.1578125 125.1328125 7.7578125 C126.70199742 6.18862758 128.27366409 6.47522307 130.4453125 6.3828125 C133.8859716 6.44298301 134.82823814 6.52176737 137.6328125 8.6953125 C139.59050296 12.69226385 139.94080365 16.35120947 140.1328125 20.7578125 C141.1228125 21.0878125 142.1128125 21.4178125 143.1328125 21.7578125 C143.1328125 22.4178125 143.1328125 23.0778125 143.1328125 23.7578125 C143.70128906 23.8815625 144.26976562 24.0053125 144.85546875 24.1328125 C151.49914457 25.90741706 155.5501262 28.83102573 159.1328125 34.7578125 C159.91722282 37.11485127 160.41101801 39.31867109 160.74609375 41.77734375 C161.06142556 44.06777042 161.06142556 44.06777042 163.1328125 46.7578125 C163.56961256 50.28405085 163.45694539 53.83245548 163.4453125 57.3828125 C163.46142578 58.34316406 163.47753906 59.30351562 163.49414062 60.29296875 C163.49916908 67.7049057 162.68170185 74.43653244 158.0703125 80.4453125 C148.41989313 88.04245115 137.62154158 91.79142343 126.1328125 95.7578125 C126.9371875 96.2321875 127.7415625 96.7065625 128.5703125 97.1953125 C131.1328125 98.7578125 131.1328125 98.7578125 132.1328125 99.7578125 C132.50041981 102.08599214 132.83522831 104.419651 133.1328125 106.7578125 C133.69871094 106.96277344 134.26460937 107.16773438 134.84765625 107.37890625 C135.58113281 107.64832031 136.31460938 107.91773438 137.0703125 108.1953125 C137.80121094 108.46214844 138.53210938 108.72898437 139.28515625 109.00390625 C141.1328125 109.7578125 141.1328125 109.7578125 142.1328125 110.7578125 C142.70530952 114.86070782 142.33702278 116.45149708 140.0078125 119.9453125 C136.43233675 123.77187504 132.95690233 125.59198615 127.6953125 126.0703125 C123.87721613 125.73539177 120.76434621 124.94361942 117.1328125 123.7578125 C117.09039527 121.42486475 117.09188313 119.09078683 117.1328125 116.7578125 C117.4628125 116.4278125 117.7928125 116.0978125 118.1328125 115.7578125 C118.47638408 112.11595374 118.70438838 109.67681686 116.73828125 106.515625 C112.6696017 103.7706388 108.88748616 104.54600152 104.1328125 104.9453125 C102.72672729 105.03897095 102.72672729 105.03897095 101.29223633 105.13452148 C98.57031163 105.32090317 95.85198521 105.5352265 93.1328125 105.7578125 C91.78259954 105.86000401 90.43234525 105.96165244 89.08203125 106.0625 C86.42949143 106.27216183 83.78104351 106.50011714 81.1328125 106.7578125 C81.1328125 107.7478125 81.1328125 108.7378125 81.1328125 109.7578125 C81.7928125 110.0878125 82.4528125 110.4178125 83.1328125 110.7578125 C83.42315206 114.13865542 83.57211898 117.38626759 83.1328125 120.7578125 C80.49838736 123.60021857 77.90156894 125.56056544 73.99609375 125.99609375 C67.74959405 126.17784489 64.27234491 125.3331394 59.1328125 121.7578125 C58.56418505 112.09114583 58.56418505 112.09114583 62.1328125 107.7578125 C64.7617406 105.37534641 65.52115428 104.7578125 69.1328125 104.7578125 C69.7928125 102.4478125 70.4528125 100.1378125 71.1328125 97.7578125 C70.32577881 97.78810547 69.51874512 97.81839844 68.68725586 97.84960938 C48.49223475 98.58961438 28.34102833 98.89498188 8.1328125 98.7578125 C8.62394531 99.52480469 9.11507812 100.29179687 9.62109375 101.08203125 C11.25431755 103.97287958 11.41171042 105.5040034 11.1328125 108.7578125 C12.2465625 108.8815625 13.3603125 109.0053125 14.5078125 109.1328125 C18.1328125 109.7578125 18.1328125 109.7578125 20.1328125 111.7578125 C20.6365545 115.53587754 20.44781529 117.26280812 18.3828125 120.5078125 C14.33956206 124.55106294 11.25116206 125.05092393 5.5703125 125.0703125 C4.43464844 125.08707031 3.29898438 125.10382813 2.12890625 125.12109375 C-0.8671875 124.7578125 -0.8671875 124.7578125 -2.75390625 123.484375 C-5.02895933 119.95604706 -4.15877376 115.21574381 -3.3671875 111.2578125 C-3.2021875 110.7628125 -3.0371875 110.2678125 -2.8671875 109.7578125 C-7.22321301 107.60542342 -11.22948016 107.45114372 -15.9921875 107.5078125 C-17.19258667 107.51361328 -17.19258667 107.51361328 -18.41723633 107.51953125 C-30.2584013 107.67950196 -42.07264389 108.76313976 -53.8671875 109.7578125 C-54.1971875 110.7478125 -54.5271875 111.7378125 -54.8671875 112.7578125 C-53.2171875 113.4178125 -51.5671875 114.0778125 -49.8671875 114.7578125 C-49.49949948 120.27313283 -49.49949948 120.27313283 -51.2421875 122.5703125 C-54.80373558 125.17298225 -58.46988697 125.30589042 -62.7421875 125.6953125 C-63.82306641 125.83549805 -63.82306641 125.83549805 -64.92578125 125.97851562 C-67.046875 126.16015625 -67.046875 126.16015625 -70.8671875 125.7578125 C-73.6847261 122.6425214 -75.43624172 119.89691052 -75.3671875 115.6328125 C-74.8671875 111.7578125 -74.8671875 111.7578125 -72.9921875 109.2578125 C-70.8671875 107.7578125 -70.8671875 107.7578125 -68.8671875 107.7578125 C-68.6196875 106.8296875 -68.3721875 105.9015625 -68.1171875 104.9453125 C-66.79744001 101.57995641 -65.96202801 100.49866029 -62.8671875 98.7578125 C-62.2071875 98.7578125 -61.5471875 98.7578125 -60.8671875 98.7578125 C-60.8671875 98.0978125 -60.8671875 97.4378125 -60.8671875 96.7578125 C-62.1665625 96.3865625 -62.1665625 96.3865625 -63.4921875 96.0078125 C-67.07778814 94.67981226 -69.83046737 93.07150402 -72.8671875 90.7578125 C-72.8671875 90.0978125 -72.8671875 89.4378125 -72.8671875 88.7578125 C-73.48335937 88.50386719 -74.09953125 88.24992187 -74.734375 87.98828125 C-77.19297419 86.56985864 -77.80544682 85.60834193 -78.9921875 83.0703125 C-79.30414063 82.42707031 -79.61609375 81.78382813 -79.9375 81.12109375 C-82.83112078 73.76546108 -83.20311082 67.3874167 -83.1796875 59.5078125 C-83.19580078 58.43917969 -83.21191406 57.37054688 -83.22851562 56.26953125 C-83.23349996 48.06530948 -82.74278772 38.97414972 -77.4921875 32.2578125 C-73.44466803 28.40303205 -68.70306562 26.0880514 -63.7421875 23.5703125 C-62.70835937 23.04050781 -61.67453125 22.51070312 -60.609375 21.96484375 C-57.8671875 20.7578125 -57.8671875 20.7578125 -54.8671875 20.7578125 C-55.1971875 20.0978125 -55.5271875 19.4378125 -55.8671875 18.7578125 C-56.242488 13.12830507 -55.97789391 9.66315722 -52.8671875 4.7578125 C-50.37963964 3.51403857 -48.64063449 3.62475015 -45.8671875 3.6328125 C-44.9803125 3.63023437 -44.0934375 3.62765625 -43.1796875 3.625 C-40.8671875 3.7578125 -40.8671875 3.7578125 -38.8671875 4.7578125 C-38.8671875 5.4178125 -38.8671875 6.0778125 -38.8671875 6.7578125 C-38.2071875 6.7578125 -37.5471875 6.7578125 -36.8671875 6.7578125 C-35.55092058 10.37754652 -34.8671875 12.85348381 -34.8671875 16.7578125 C-34.30773437 16.685625 -33.74828125 16.6134375 -33.171875 16.5390625 C-25.72636095 15.67720235 -18.35546262 15.6607023 -10.8671875 15.7578125 C-10.92519531 15.09394531 -10.98320312 14.43007812 -11.04296875 13.74609375 C-11.27606953 9.18397855 -11.38205994 6.56230069 -8.8671875 2.6328125 C-5.84856777 0.74617517 -3.60692931 -0.2057184 0 0 Z M-7.8046875 5.3203125 C-9.65468923 9.56443411 -9.30833679 13.43436463 -7.8671875 17.7578125 C-14.8575108 18.77723465 -21.81160805 19.07381173 -28.8671875 19.3203125 C-30.02347656 19.36349609 -31.17976563 19.40667969 -32.37109375 19.45117188 C-35.20302604 19.55649167 -38.03503497 19.65862337 -40.8671875 19.7578125 C-40.8671875 19.0978125 -40.8671875 18.4378125 -40.8671875 17.7578125 C-39.8771875 17.7578125 -38.8871875 17.7578125 -37.8671875 17.7578125 C-38.17640634 16.29877992 -38.48967549 14.84060528 -38.8046875 13.3828125 C-38.97871094 12.57070312 -39.15273437 11.75859375 -39.33203125 10.921875 C-39.79049443 8.7283495 -39.79049443 8.7283495 -40.8671875 6.7578125 C-46.42004252 6.26126149 -46.42004252 6.26126149 -51.3671875 8.3203125 C-53.76913856 12.22348298 -53.26361118 15.82524706 -52.3671875 20.1953125 C-52.1196875 20.96875 -52.1196875 20.96875 -51.8671875 21.7578125 C-54.29325572 22.74541549 -56.71062576 23.70466045 -59.19140625 24.546875 C-66.35659932 27.08133999 -73.74109438 31.10875093 -78.0859375 37.5703125 C-80.63872434 44.71811566 -80.11882841 52.65120192 -80.1796875 60.1328125 C-80.20869141 61.31359375 -80.23769531 62.494375 -80.26757812 63.7109375 C-80.33002389 72.33806056 -79.07122632 80.27177192 -72.8671875 86.7578125 C-72.2071875 86.7578125 -71.5471875 86.7578125 -70.8671875 86.7578125 C-70.8671875 87.4178125 -70.8671875 88.0778125 -70.8671875 88.7578125 C-66.62920414 92.21058575 -62.36821587 94.34523537 -56.8671875 94.7578125 C-56.8671875 95.4178125 -56.8671875 96.0778125 -56.8671875 96.7578125 C-50.9271875 97.0878125 -44.9871875 97.4178125 -38.8671875 97.7578125 C-38.5371875 98.4178125 -38.2071875 99.0778125 -37.8671875 99.7578125 C-38.47715576 99.74210205 -39.08712402 99.7263916 -39.71557617 99.71020508 C-42.4951846 99.64761437 -45.27464442 99.60874628 -48.0546875 99.5703125 C-49.01439453 99.54517578 -49.97410156 99.52003906 -50.96289062 99.49414062 C-57.96488665 99.31621532 -57.96488665 99.31621532 -63.8671875 102.7578125 C-63.8671875 103.7478125 -63.8671875 104.7378125 -63.8671875 105.7578125 C-64.5271875 105.7578125 -65.1871875 105.7578125 -65.8671875 105.7578125 C-66.1971875 107.7378125 -66.5271875 109.7178125 -66.8671875 111.7578125 C-68.5171875 111.7578125 -70.1671875 111.7578125 -71.8671875 111.7578125 C-72.25972004 116.20651465 -71.02024707 118.90024743 -68.8671875 122.7578125 C-66.76269812 122.61671264 -64.6585998 122.46977075 -62.5546875 122.3203125 C-61.38292969 122.23910156 -60.21117187 122.15789062 -59.00390625 122.07421875 C-55.84127792 121.8710754 -55.84127792 121.8710754 -52.8671875 120.7578125 C-52.13394954 118.74272892 -52.13394954 118.74272892 -51.8671875 116.7578125 C-54.68228743 114.4804624 -54.68228743 114.4804624 -57.8671875 114.7578125 C-57.8671875 112.1178125 -57.8671875 109.4778125 -57.8671875 106.7578125 C-46.45216233 105.2376189 -35.08536312 104.52673733 -23.57327271 104.45825195 C-22.19227062 104.44966537 -20.81129016 104.4360405 -19.4303894 104.41723633 C-17.4641409 104.39328624 -15.49764412 104.39354006 -13.53125 104.39453125 C-12.39123535 104.39155029 -11.2512207 104.38856934 -10.07666016 104.38549805 C-6.45262757 104.80590347 -4.0476348 106.02310125 -0.8671875 107.7578125 C-0.2071875 107.7578125 0.4528125 107.7578125 1.1328125 107.7578125 C1.4628125 109.4078125 1.7928125 111.0578125 2.1328125 112.7578125 C0.6478125 113.2528125 0.6478125 113.2528125 -0.8671875 113.7578125 C-0.90960473 116.09076025 -0.90811687 118.42483817 -0.8671875 120.7578125 C0.6743067 122.2993067 2.11725064 121.96427565 4.2578125 122.0078125 C8.98093604 121.94001647 12.05538812 121.17098203 16.1328125 118.7578125 C17.63733707 116.21412251 17.63733707 116.21412251 18.1328125 113.7578125 C16.17647275 111.34659391 16.17647275 111.34659391 12.5078125 111.6328125 C11.3940625 111.6740625 10.2803125 111.7153125 9.1328125 111.7578125 C9.1328125 109.7778125 9.1328125 107.7978125 9.1328125 105.7578125 C7.1528125 104.7678125 7.1528125 104.7678125 5.1328125 103.7578125 C5.1328125 102.7678125 5.1328125 101.7778125 5.1328125 100.7578125 C2.56387412 99.47334331 0.36704913 99.42804106 -2.4921875 99.1953125 C-3.49507813 99.11152344 -4.49796875 99.02773438 -5.53125 98.94140625 C-6.30210937 98.88082031 -7.07296875 98.82023437 -7.8671875 98.7578125 C-7.8671875 98.0978125 -7.8671875 97.4378125 -7.8671875 96.7578125 C-7.2071875 96.7578125 -6.5471875 96.7578125 -5.8671875 96.7578125 C-5.8671875 96.0978125 -5.8671875 95.4378125 -5.8671875 94.7578125 C-5.03815918 94.92079834 -4.20913086 95.08378418 -3.35498047 95.25170898 C0.43434414 95.80156688 4.12012429 95.88398736 7.9375 95.85546875 C8.6614798 95.8540538 9.38545959 95.85263885 10.13137817 95.85118103 C12.42356657 95.84562325 14.71565407 95.83307883 17.0078125 95.8203125 C18.57031108 95.81529203 20.13281121 95.81073009 21.6953125 95.80664062 C25.50785085 95.79566769 29.32031462 95.7784326 33.1328125 95.7578125 C33.1328125 95.0978125 33.1328125 94.4378125 33.1328125 93.7578125 C34.0196875 93.9640625 34.9065625 94.1703125 35.8203125 94.3828125 C39.3580836 94.78331489 40.99914217 94.32464766 44.1328125 92.7578125 C44.1328125 93.4178125 44.1328125 94.0778125 44.1328125 94.7578125 C54.89345866 94.88440834 65.62790408 94.70252551 76.3828125 94.3203125 C77.54852783 94.28107666 78.71424316 94.24184082 79.9152832 94.20141602 C81.02347412 94.15944092 82.13166504 94.11746582 83.2734375 94.07421875 C84.25860352 94.03756104 85.24376953 94.00090332 86.25878906 93.96313477 C89.26480067 93.74838317 92.16944812 93.29812931 95.1328125 92.7578125 C95.1328125 93.7478125 95.1328125 94.7378125 95.1328125 95.7578125 C94.03582031 95.80679688 92.93882812 95.85578125 91.80859375 95.90625 C90.35414325 95.98131841 88.89971734 96.05686447 87.4453125 96.1328125 C86.72408203 96.16375 86.00285156 96.1946875 85.25976562 96.2265625 C81.2264511 96.44756604 77.71053123 96.70295174 74.1328125 98.7578125 C72.90915614 100.57516158 72.90915614 100.57516158 72.1953125 102.6953125 C70.35033385 106.85969287 68.42776647 108.07717834 64.1328125 109.7578125 C61.91911199 111.54439007 61.91911199 111.54439007 61.9375 113.921875 C61.96070313 114.73398437 61.98390625 115.54609375 62.0078125 116.3828125 C62.02585937 117.20007813 62.04390625 118.01734375 62.0625 118.859375 C62.08570313 119.48585938 62.10890625 120.11234375 62.1328125 120.7578125 C66.1114604 122.98585533 69.64613773 123.20476094 74.1328125 122.7578125 C77.50102522 121.85984137 77.50102522 121.85984137 80.1328125 120.7578125 C80.1328125 118.1178125 80.1328125 115.4778125 80.1328125 112.7578125 C78.8128125 112.4278125 77.4928125 112.0978125 76.1328125 111.7578125 C77.890625 106.484375 77.890625 106.484375 79.1328125 104.7578125 C85.2503798 102.11613571 91.56341165 102.06112167 98.1328125 101.7578125 C98.81359863 101.71849609 99.49438477 101.67917969 100.19580078 101.63867188 C102.32054371 101.52363647 104.44351655 101.44836612 106.5703125 101.3828125 C107.86839844 101.33382812 109.16648437 101.28484375 110.50390625 101.234375 C115.26613858 101.92128472 116.77665224 103.386466 120.1328125 106.7578125 C122.32499439 111.14217629 121.29055899 117.12682652 120.1328125 121.7578125 C125.20166672 123.37984585 129.58159947 123.53341901 134.3828125 121.1328125 C137.36329869 118.55875624 138.65288185 116.37542076 140.1328125 112.7578125 C138.34623493 110.54411199 138.34623493 110.54411199 135.96875 110.5625 C135.15664063 110.58570313 134.34453125 110.60890625 133.5078125 110.6328125 C132.69054687 110.65085937 131.87328125 110.66890625 131.03125 110.6875 C130.40476562 110.71070313 129.77828125 110.73390625 129.1328125 110.7578125 C129.3596875 109.7059375 129.5865625 108.6540625 129.8203125 107.5703125 C130.36231072 103.87730874 130.36231072 103.87730874 129.2578125 100.9453125 C126.12350593 97.71882045 122.5510307 97.0794159 118.1328125 96.7578125 C115.92462359 97.16147462 115.92462359 97.16147462 114.1328125 97.7578125 C114.1328125 96.7678125 114.1328125 95.7778125 114.1328125 94.7578125 C115.10347656 94.65210938 116.07414063 94.54640625 117.07421875 94.4375 C121.59363422 93.78975878 125.7675106 92.37154565 130.0703125 90.8828125 C130.83021484 90.62628906 131.59011719 90.36976563 132.37304688 90.10546875 C142.65679388 86.79506824 142.65679388 86.79506824 152.1328125 81.7578125 C152.9990625 81.2215625 153.8653125 80.6853125 154.7578125 80.1328125 C159.89426709 74.99635791 160.52406411 67.74651367 160.65136719 60.75170898 C160.64524414 59.82559814 160.63912109 58.8994873 160.6328125 57.9453125 C160.62926758 56.97988525 160.62572266 56.01445801 160.62207031 55.01977539 C160.38817706 44.94456942 157.85557917 37.46569746 151.1328125 29.7578125 C148.26160903 28.36101081 145.63577349 27.6464072 142.5078125 26.9453125 C140.70703125 26.2109375 140.70703125 26.2109375 139.1328125 24.7578125 C137.97739017 21.41704081 137.31723372 18.17677783 136.73828125 14.69140625 C136.39054102 11.6491526 136.39054102 11.6491526 134.1328125 9.7578125 C131.04933424 9.59100141 131.04933424 9.59100141 128.1328125 9.7578125 C127.0937408 16.78563292 127.0937408 16.78563292 128.1328125 23.7578125 C127.4728125 24.0878125 126.8128125 24.4178125 126.1328125 24.7578125 C125.8028125 23.4378125 125.4728125 22.1178125 125.1328125 20.7578125 C97.73665281 19.73627649 70.41780482 19.80697908 43.0168457 20.43920898 C18.79794925 20.97316632 18.79794925 20.97316632 7.1328125 19.7578125 C7.596875 18.0253125 7.596875 18.0253125 8.0703125 16.2578125 C8.43858549 13.35312412 8.29063179 12.05069344 6.88671875 9.4453125 C3.90410944 5.72535434 2.14476456 3.96020291 -2.6171875 3.0078125 C-5.83868181 3.5021239 -5.83868181 3.5021239 -7.8046875 5.3203125 Z " fill="#191919" transform="translate(241.8671875,160.2421875)"/>
<path d="M0 0 C0.886875 -0.00257813 1.77375 -0.00515625 2.6875 -0.0078125 C5 0.125 5 0.125 7 1.125 C7 1.785 7 2.445 7 3.125 C7.66 3.125 8.32 3.125 9 3.125 C10.31626692 6.74473402 11 9.22067131 11 13.125 C11.55945313 13.0528125 12.11890625 12.980625 12.6953125 12.90625 C20.14082655 12.04438985 27.51172488 12.0278898 35 12.125 C34.95359375 11.51011719 34.9071875 10.89523438 34.859375 10.26171875 C34.75067201 7.82754825 34.70815027 5.54563598 35 3.125 C37 1.0625 37 1.0625 39 0.125 C38.835 0.640625 38.67 1.15625 38.5 1.6875 C37.61495559 6.00209151 37.60708716 9.94626148 39 14.125 C35.382926 17.742074 23.59089153 16.5281566 18.6875 16.75 C17.20540039 16.82734375 17.20540039 16.82734375 15.69335938 16.90625 C14.74654297 16.95007813 13.79972656 16.99390625 12.82421875 17.0390625 C11.96916748 17.0798291 11.11411621 17.1205957 10.2331543 17.16259766 C8 17.125 8 17.125 5 16.125 C5 15.465 5 14.805 5 14.125 C5.99 14.125 6.98 14.125 8 14.125 C7.7834375 13.49851563 7.566875 12.87203125 7.34375 12.2265625 C7.0653125 11.40929687 6.786875 10.59203125 6.5 9.75 C6.2215625 8.93789062 5.943125 8.12578125 5.65625 7.2890625 C5 5.125 5 5.125 5 3.125 C3.35232753 3.40609113 1.70686855 3.70018526 0.0625 4 C-0.85402344 4.16242188 -1.77054688 4.32484375 -2.71484375 4.4921875 C-3.46894531 4.70101562 -4.22304687 4.90984375 -5 5.125 C-6.32229189 7.76958379 -6.09677194 9.80261301 -6.0625 12.75 C-6.05347656 13.75289062 -6.04445312 14.75578125 -6.03515625 15.7890625 C-6.02355469 16.55992187 -6.01195312 17.33078125 -6 18.125 C-7.54166667 18.89583333 -9.08333333 19.66666667 -10.625 20.4375 C-11.5428125 20.89898437 -12.460625 21.36046875 -13.40625 21.8359375 C-15.29739672 22.77581464 -17.20642712 23.67995648 -19.125 24.5625 C-27.0855107 28.87977188 -27.0855107 28.87977188 -32 36.125 C-33.22707 42.37411808 -33.32203071 48.71174554 -33.5625 55.0625 C-33.60568359 56.12791016 -33.64886719 57.19332031 -33.69335938 58.29101562 C-33.79874489 60.90223443 -33.90087088 63.51353746 -34 66.125 C-34.33 66.125 -34.66 66.125 -35 66.125 C-35.03758423 65.18648193 -35.03758423 65.18648193 -35.07592773 64.22900391 C-35.19175273 61.40245381 -35.31453985 58.57624831 -35.4375 55.75 C-35.47681641 54.76515625 -35.51613281 53.7803125 -35.55664062 52.765625 C-35.59853516 51.82460937 -35.64042969 50.88359375 -35.68359375 49.9140625 C-35.73858032 48.61009521 -35.73858032 48.61009521 -35.79467773 47.27978516 C-35.87401544 45.0766738 -35.87401544 45.0766738 -37 43.125 C-35.89941688 36.2519707 -34.05766858 30.94182722 -29 26.125 C-25.4083456 23.83101526 -21.67368677 21.86540494 -17.875 19.9375 C-16.84117187 19.40769531 -15.80734375 18.87789062 -14.7421875 18.33203125 C-12 17.125 -12 17.125 -9 17.125 C-9.33 16.465 -9.66 15.805 -10 15.125 C-10.3753005 9.49549257 -10.11070641 6.03034472 -7 1.125 C-4.51245214 -0.11877393 -2.77344699 -0.00806235 0 0 Z " fill="#202020" transform="translate(196,163.875)"/>
<path d="M0 0 C0.8125 1.6875 0.8125 1.6875 1 4 C-6.910013 14.36484462 -21.21730962 17.93212322 -33 22 C-32.195625 22.474375 -31.39125 22.94875 -30.5625 23.4375 C-28 25 -28 25 -27 26 C-26.63239269 28.32817964 -26.29758419 30.6618385 -26 33 C-25.43410156 33.20496094 -24.86820312 33.40992188 -24.28515625 33.62109375 C-23.55167969 33.89050781 -22.81820313 34.15992188 -22.0625 34.4375 C-21.33160156 34.70433594 -20.60070312 34.97117187 -19.84765625 35.24609375 C-18 36 -18 36 -17 37 C-16.42506525 41.12036569 -16.81676936 42.7197649 -19.125 46.25 C-22.0915949 49.08761251 -24.04900049 50.0811629 -28 51 C-27.59007812 50.55269531 -27.18015625 50.10539062 -26.7578125 49.64453125 C-23.74359926 46.26255515 -21.33949455 43.420332 -20 39 C-21.58272601 37.41727399 -23.38034003 37.65264253 -25.5625 37.4375 C-26.38878906 37.35371094 -27.21507812 37.26992188 -28.06640625 37.18359375 C-29.02353516 37.09271484 -29.02353516 37.09271484 -30 37 C-29.95875 35.9275 -29.9175 34.855 -29.875 33.75 C-29.99263713 30.22088616 -30.06601478 28.81741056 -32 26 C-34.03328885 25.08539904 -34.03328885 25.08539904 -36.375 24.75 C-37.14585937 24.60046875 -37.91671875 24.4509375 -38.7109375 24.296875 C-41.27642409 23.91425622 -41.27642409 23.91425622 -45 24 C-45 23.01 -45 22.02 -45 21 C-30.58752977 16.13819337 -30.58752977 16.13819337 -24.5625 14.375 C-15.61821652 11.73034475 -8.53667087 8.89000443 -2 2 C-1.34 1.34 -0.68 0.68 0 0 Z " fill="#111111" transform="translate(401,234)"/>
<path d="M0 0 C4.08489218 3.36072024 8.39691424 7.51740221 9 13 C8.67 14.32 8.34 15.64 8 17 C16.25 17.33 24.5 17.66 33 18 C32.505 19.485 32.505 19.485 32 21 C9.72251309 21.36125654 9.72251309 21.36125654 5 19 C5.12375 17.824375 5.2475 16.64875 5.375 15.4375 C5.35114742 10.97706702 3.97307998 8.48127731 0.92578125 5.28125 C-2.50366536 2.99958978 -6.05846658 3.30629012 -10 4 C-10.99 4.495 -10.99 4.495 -12 5 C-9.59607563 -0.3229754 -5.70987937 -1.5744519 0 0 Z " fill="#131313" transform="translate(244,161)"/>
<path d="M0 0 C0 0.99 0 1.98 0 3 C-0.68707031 3.10957031 -1.37414062 3.21914062 -2.08203125 3.33203125 C-2.98308594 3.49058594 -3.88414062 3.64914063 -4.8125 3.8125 C-5.70582031 3.96332031 -6.59914062 4.11414063 -7.51953125 4.26953125 C-10.25618374 5.07544308 -11.3665932 5.67574245 -13 8 C-13.39966503 10.07728417 -13.39966503 10.07728417 -13.25 12.3125 C-13.23453125 13.05113281 -13.2190625 13.78976563 -13.203125 14.55078125 C-12.96799852 17.38586399 -12.46768488 20.19389069 -12 23 C-5.07 23.495 -5.07 23.495 2 24 C2 24.99 2 25.98 2 27 C0.10489301 27.08160748 -1.79124504 27.13946459 -3.6875 27.1875 C-5.27111328 27.23970703 -5.27111328 27.23970703 -6.88671875 27.29296875 C-10.40249014 26.96212452 -12.19619156 26.10786313 -15 24 C-17.72391921 18.81158246 -17.68930458 12.72384564 -17 7 C-15.01290724 3.10529819 -13.68899816 2.26794373 -9.625 0.6875 C-6.29993 0.05688328 -3.37134527 -0.16445587 0 0 Z " fill="#161616" transform="translate(203,202)"/>
<path d="M0 0 C8.91 0 17.82 0 27 0 C26.67 0.99 26.34 1.98 26 3 C22.41668375 3.02907084 18.83339792 3.04682263 15.25 3.0625 C14.23421875 3.07087891 13.2184375 3.07925781 12.171875 3.08789062 C11.1921875 3.09111328 10.2125 3.09433594 9.203125 3.09765625 C8.30239258 3.10289307 7.40166016 3.10812988 6.47363281 3.11352539 C4.16610196 3.00762312 2.20865595 2.65132813 0 2 C0 1.34 0 0.68 0 0 Z " fill="#282828" transform="translate(190,236)"/>
<path d="M0 0 C0.99 0 1.98 0 3 0 C3 2.31 3 4.62 3 7 C4.32 6.67 5.64 6.34 7 6 C7.33 4.68 7.66 3.36 8 2 C8.99 2 9.98 2 11 2 C11.22223194 4.74086056 11.34781139 6.43963721 9.875 8.8125 C7.14012639 10.54458662 5.16259871 10.40373601 2 10 C-0.4294516 6.3558226 -0.16179575 4.28758728 0 0 Z " fill="#161616" transform="translate(322,186)"/>
<path d="M0 0 C0.99 0 1.98 0 3 0 C2.68657358 3.44769066 2.32465015 5.55940337 0.25 8.375 C-2.42426035 10.30641025 -3.77090768 10.43636383 -7 10 C-8 9 -8 9 -8.09765625 7.15234375 C-8.06510417 5.1015625 -8.03255208 3.05078125 -8 1 C-7.34 1 -6.68 1 -6 1 C-5.67 2.65 -5.34 4.3 -5 6 C-2.9837767 5.28436734 -2.9837767 5.28436734 -1 4 C-0.19471111 1.94999129 -0.19471111 1.94999129 0 0 Z " fill="#151515" transform="translate(356,219)"/>
<path d="M0 0 C0.66 0 1.32 0 2 0 C1.25 6.625 1.25 6.625 -1 10 C-2.32 10 -3.64 10 -5 10 C-5.66 7.03 -6.32 4.06 -7 1 C-6.01 1 -5.02 1 -4 1 C-4 2.98 -4 4.96 -4 7 C-3.34 7 -2.68 7 -2 7 C-1.855625 6.21625 -1.71125 5.4325 -1.5625 4.625 C-1 2 -1 2 0 0 Z " fill="#131313" transform="translate(177,234)"/>
<path d="M0 0 C0.99 0 1.98 0 3 0 C2.67 1.98 2.34 3.96 2 6 C2.66 5.67 3.32 5.34 4 5 C4.65213292 2.97536745 4.65213292 2.97536745 5 1 C6.32 1 7.64 1 9 1 C7.25 6.75 7.25 6.75 5 9 C2.375 8.625 2.375 8.625 0 8 C0 5.36 0 2.72 0 0 Z " fill="#131313" transform="translate(281,208)"/>
<path d="M0 0 C0.99 0 1.98 0 3 0 C3.125 5.75 3.125 5.75 2 8 C-0.64 8 -3.28 8 -6 8 C-6.33 5.69 -6.66 3.38 -7 1 C-6.34 1 -5.68 1 -5 1 C-4.34 2.32 -3.68 3.64 -3 5 C-2.34 5 -1.68 5 -1 5 C-0.67 3.35 -0.34 1.7 0 0 Z " fill="#0E0E0E" transform="translate(247,190)"/>
<path d="M0 0 C0.66 0 1.32 0 2 0 C2.33 0.66 2.66 1.32 3 2 C3.99 2.33 4.98 2.66 6 3 C6 3.99 6 4.98 6 6 C4.33388095 6.042721 2.66617115 6.04063832 1 6 C0 5 0 5 -0.0625 2.4375 C-0.041875 1.633125 -0.02125 0.82875 0 0 Z " fill="#1F1F1F" transform="translate(395,211)"/>
<path d="M0 0 C1.65 0 3.3 0 5 0 C5 0.99 5 1.98 5 3 C3.35 3.33 1.7 3.66 0 4 C0 2.68 0 1.36 0 0 Z " fill="#050505" transform="translate(179,199)"/>
</svg>
