<?xml version="1.0" encoding="UTF-8"?>
<svg version="1.1" xmlns="http://www.w3.org/2000/svg" width="800" height="300">
<path d="M0 0 C264 0 528 0 800 0 C800 99 800 198 800 300 C536 300 272 300 0 300 C0 201 0 102 0 0 Z " fill="#FEFEFE" transform="translate(0,0)"/>
<path d="M0 0 C3.91260733 2.40091813 5.8603576 4.54503427 7 9 C7.19301882 12.7316971 7.18329948 15.45010155 6 19 C7.0828125 19.0928125 7.0828125 19.0928125 8.1875 19.1875 C11.97797492 20.28252609 13.37062037 22.05759898 16 25 C16.57105469 25.56847656 17.14210938 26.13695312 17.73046875 26.72265625 C25.78489697 35.08620965 27.4898489 45.3983776 29.60620117 56.45043945 C29.75935791 57.23894287 29.91251465 58.02744629 30.0703125 58.83984375 C30.20195801 59.54488037 30.33360352 60.24991699 30.46923828 60.97631836 C30.937934 63.05853874 30.937934 63.05853874 32.04248047 65.03735352 C33 67 33 67 33.25 70.5625 C33.62125 72.2640625 33.62125 72.2640625 34 74 C38.34430357 76.73923263 42.80325416 77.82254524 47.8125 78.625 C48.96407593 78.81437134 48.96407593 78.81437134 50.13891602 79.00756836 C57.84733841 80.16257875 65.56700647 80.46379307 73.3527832 80.62158203 C78.80291903 80.75032894 84.15782242 81.10057718 89.56918335 81.73587036 C99.94878852 82.95391305 110.17464812 83.27936862 120.62084961 83.20581055 C123.35604935 83.18720375 126.09091451 83.18530424 128.82617188 83.18554688 C130.58854458 83.18064149 132.35091503 83.1748175 134.11328125 83.16796875 C134.91953445 83.16685593 135.72578766 83.1657431 136.55647278 83.16459656 C140.81127768 83.12883573 144.80915226 82.83917405 149 82 C149 78.7 149 75.4 149 72 C152.09268621 71.28077065 154.48808356 70.90249211 157.625 71.5 C160.49475534 73.31247706 161.14793811 75.29587622 162.62890625 78.2578125 C164.96496883 81.22614274 168.24776261 81.9740737 171.7578125 83.078125 C174 84 174 84 176 87 C176.4375 89.4375 176.4375 89.4375 176 92 C162.45793546 104.81006105 138.65293194 104.2662175 121.06640625 104.16796875 C118.27373737 104.01499453 115.71905105 103.6352923 113 103 C113.33 104.32 113.66 105.64 114 107 C116.91652174 107.16681109 116.91652174 107.16681109 120 107 C120.66 106.34 121.32 105.68 122 105 C126.03143083 104.37288854 127.56402878 104.69389255 130.9375 107.0625 C133 110 133 110 133 113.625 C131.55486862 118.50231839 131.55486862 118.50231839 129 120 C125.8125 120.1875 125.8125 120.1875 123 120 C122.9175 120.886875 122.835 121.77375 122.75 122.6875 C121.86408658 126.60028426 121.03045943 128.35806101 118 131 C112.85685056 131.50588355 108.07904954 130.84650826 103 130 C102.7834375 128.39125 102.7834375 128.39125 102.5625 126.75 C102.376875 125.5125 102.19125 124.275 102 123 C101.90332031 122.32453125 101.80664062 121.6490625 101.70703125 120.953125 C100.75717506 118.32921286 99.41847064 117.54578241 97.125 116 C94.11793672 113.9583039 91.92321289 112.11775506 90 109 C89.57575758 102.84848485 89.57575758 102.84848485 91 100 C89.68515625 99.92652344 89.68515625 99.92652344 88.34375 99.8515625 C81.12094417 99.42582801 73.91815367 98.91566667 66.71191406 98.2644043 C46.95143848 96.50042515 27.21391704 95.44733112 7.3984375 96.7421875 C1.2660408 97.13808663 -4.85673648 97.09153869 -11 97 C-11.23546163 103.55314879 -11.23546163 103.55314879 -8 109 C-5.99219402 110.1825115 -3.97416229 111.17145598 -1.83984375 112.10546875 C0 113 0 113 2 115 C2.61211092 119.93663485 2.63802582 124.54994131 0.625 129.125 C-1 131 -1 131 -3 132 C-4.78859511 132.12207871 -6.58228381 132.17548448 -8.375 132.1875 C-9.33148438 132.20167969 -10.28796875 132.21585938 -11.2734375 132.23046875 C-14.08026714 131.99321524 -15.68714788 131.58942578 -18 130 C-19.06987902 126.79036294 -18.91843351 124.89971555 -18.6875 121.5625 C-18.57606476 118.64526436 -18.57606476 118.64526436 -19 116 C-21.72150183 113.51893124 -21.72150183 113.51893124 -25 112 C-27.92675987 108.29277083 -28.3259948 105.67259219 -28 101 C-34.34359983 104.33038991 -38.89692632 109.55766067 -42 116 C-42.14850609 119.33536654 -41.82032657 122.11545576 -41.109375 125.37109375 C-41 128 -41 128 -42.72265625 130.2890625 C-45.96932198 132.72823847 -49.04161429 133.19376713 -53 133 C-56.13867337 132.30909706 -59.1168365 131.43211841 -62 130 C-63.60957264 126.78085473 -63.6049097 123.48159139 -63 120 C-60.75 117.3125 -60.75 117.3125 -58 115 C-54.98085264 111.50911087 -52.54788425 107.79494429 -50.1484375 103.8671875 C-49.13613657 102.22133769 -48.07181726 100.60772589 -47 99 C-47.76183594 98.89042969 -48.52367187 98.78085938 -49.30859375 98.66796875 C-55.8079513 97.66994006 -61.87244407 96.39720751 -68 94 C-69.051875 93.608125 -70.10375 93.21625 -71.1875 92.8125 C-77.07872105 89.01593532 -80.97834172 82.62654659 -83 76 C-84.85964531 60.65792616 -79.83766042 41.60774271 -71 29 C-66.67955129 24.07862557 -63.59996723 22.69307532 -57 22 C-57.09539062 20.87980469 -57.19078125 19.75960937 -57.2890625 18.60546875 C-57.40161885 17.1328565 -57.5135663 15.66019763 -57.625 14.1875 C-57.68945312 13.44951172 -57.75390625 12.71152344 -57.8203125 11.95117188 C-58.2265625 6.33984375 -58.2265625 6.33984375 -56 3 C-50.84201035 2.91257645 -50.84201035 2.91257645 -48 4 C-45.00107301 7.58304103 -43 11.29739226 -43 16 C-41.16888672 15.89171875 -41.16888672 15.89171875 -39.30078125 15.78125 C-29.85247466 15.2418687 -20.46651477 14.84704016 -11 15 C-11.04125 13.989375 -11.0825 12.97875 -11.125 11.9375 C-10.99698406 7.90499804 -10.43135047 4.76671176 -9 1 C-5.66660588 -0.11113137 -3.49519344 -0.34951934 0 0 Z " fill="#F9F9F9" transform="translate(244,154)"/>
<path d="M0 0 C2.6875 -0.3125 2.6875 -0.3125 6 0 C6.65484375 0.82371094 7.3096875 1.64742187 7.984375 2.49609375 C12.5652212 6.2996202 16.79729447 5.57827168 22.5625 5.375 C23.56474609 5.36082031 24.56699219 5.34664062 25.59960938 5.33203125 C30.47519469 5.2414631 35.34076995 5.04623593 40.20825195 4.75537109 C54.45235002 3.91878154 68.67682983 3.84573931 82.94213867 3.86962891 C85.67653585 3.87416195 88.4108666 3.87421517 91.14526367 3.86962891 C100.43094505 3.85414611 109.7147567 3.89399703 119 4 C120.89718781 4.01987976 120.89718781 4.01987976 122.83270264 4.04016113 C126.4714204 4.08922994 130.10817747 4.16795371 133.74609375 4.2578125 C135.34216209 4.27822098 135.34216209 4.27822098 136.97047424 4.29904175 C147.76141846 4.63593906 157.23194941 7.126133 165.1015625 14.796875 C168.08119031 18.25471468 170.07594107 21.88307979 172 26 C172.5878125 27.06347656 172.5878125 27.06347656 173.1875 28.1484375 C176.97476175 35.43365628 176.77162077 42.60176161 175.375 50.5625 C169.6875 64.78125 169.6875 64.78125 163.4375 67.625 C157.70072769 69.69064707 152.18507829 70.14951793 146.12109375 70.1328125 C145.35992249 70.13413177 144.59875122 70.13545105 143.81451416 70.1368103 C141.35546728 70.1387179 138.89653518 70.13241583 136.4375 70.125 C135.60618561 70.12411377 134.77487122 70.12322754 133.91836548 70.12231445 C121.58858811 70.10680173 109.30284848 69.87542505 97 69 C97 68.34 97 67.68 97 67 C96.29617188 67.16242188 95.59234375 67.32484375 94.8671875 67.4921875 C87.40965184 68.81300444 79.59253259 68.08414043 72.08203125 67.5078125 C66.67319889 67.13155169 61.29977248 66.9117425 55.87890625 66.859375 C18.90517158 66.4491541 18.90517158 66.4491541 9.328125 56.74609375 C6.17351182 52.59870525 3 48.32125735 3 43 C4.3303125 42.8453125 4.3303125 42.8453125 5.6875 42.6875 C9.11892118 41.97531825 11.15229894 41.00108723 14 39 C14.8971875 38.4121875 14.8971875 38.4121875 15.8125 37.8125 C17.45033947 35.31263976 17.58507003 32.94353986 17.50390625 30 C16.59664224 26.39907619 13.94131359 25.08343046 11 23 C11 22.34 11 21.68 11 21 C9.58249437 21.11509661 8.16598831 21.24253658 6.75 21.375 C5.96109375 21.44460937 5.1721875 21.51421875 4.359375 21.5859375 C1.914123 22.01507113 0.15163097 22.78600638 -2 24 C-4.01033194 21.98966806 -3.23043059 18.11960986 -3.25 15.375 C-3.270625 14.67503906 -3.29125 13.97507813 -3.3125 13.25390625 C-3.35067954 8.10921312 -2.29604681 4.60417809 0 0 Z " fill="#656565" transform="translate(428,216)"/>
<path d="M0 0 C3.91260733 2.40091813 5.8603576 4.54503427 7 9 C7.19301882 12.7316971 7.18329948 15.45010155 6 19 C7.0828125 19.0928125 7.0828125 19.0928125 8.1875 19.1875 C11.97797492 20.28252609 13.37062037 22.05759898 16 25 C16.57105469 25.56847656 17.14210938 26.13695312 17.73046875 26.72265625 C25.78489697 35.08620965 27.4898489 45.3983776 29.60620117 56.45043945 C29.75935791 57.23894287 29.91251465 58.02744629 30.0703125 58.83984375 C30.20195801 59.54488037 30.33360352 60.24991699 30.46923828 60.97631836 C30.937934 63.05853874 30.937934 63.05853874 32.04248047 65.03735352 C33 67 33 67 33.25 70.5625 C33.62125 72.2640625 33.62125 72.2640625 34 74 C38.34430357 76.73923263 42.80325416 77.82254524 47.8125 78.625 C48.96407593 78.81437134 48.96407593 78.81437134 50.13891602 79.00756836 C57.84733841 80.16257875 65.56700647 80.46379307 73.3527832 80.62158203 C78.80291903 80.75032894 84.15782242 81.10057718 89.56918335 81.73587036 C99.94878852 82.95391305 110.17464812 83.27936862 120.62084961 83.20581055 C123.35604935 83.18720375 126.09091451 83.18530424 128.82617188 83.18554688 C130.58854458 83.18064149 132.35091503 83.1748175 134.11328125 83.16796875 C134.91953445 83.16685593 135.72578766 83.1657431 136.55647278 83.16459656 C140.81127768 83.12883573 144.80915226 82.83917405 149 82 C149 78.7 149 75.4 149 72 C152.09268621 71.28077065 154.48808356 70.90249211 157.625 71.5 C160.49475534 73.31247706 161.14793811 75.29587622 162.62890625 78.2578125 C164.96496883 81.22614274 168.24776261 81.9740737 171.7578125 83.078125 C174 84 174 84 176 87 C176.4375 89.4375 176.4375 89.4375 176 92 C162.45793546 104.81006105 138.65293194 104.2662175 121.06640625 104.16796875 C118.27373737 104.01499453 115.71905105 103.6352923 113 103 C113.33 104.32 113.66 105.64 114 107 C116.91652174 107.16681109 116.91652174 107.16681109 120 107 C120.66 106.34 121.32 105.68 122 105 C126.03143083 104.37288854 127.56402878 104.69389255 130.9375 107.0625 C133 110 133 110 133 113.625 C131.55486862 118.50231839 131.55486862 118.50231839 129 120 C125.8125 120.1875 125.8125 120.1875 123 120 C122.9175 120.886875 122.835 121.77375 122.75 122.6875 C121.86408658 126.60028426 121.03045943 128.35806101 118 131 C112.85685056 131.50588355 108.07904954 130.84650826 103 130 C102.7834375 128.39125 102.7834375 128.39125 102.5625 126.75 C102.376875 125.5125 102.19125 124.275 102 123 C101.90332031 122.32453125 101.80664062 121.6490625 101.70703125 120.953125 C100.75717506 118.32921286 99.41847064 117.54578241 97.125 116 C94.11793672 113.9583039 91.92321289 112.11775506 90 109 C89.57575758 102.84848485 89.57575758 102.84848485 91 100 C89.68515625 99.92652344 89.68515625 99.92652344 88.34375 99.8515625 C81.12094417 99.42582801 73.91815367 98.91566667 66.71191406 98.2644043 C46.95143848 96.50042515 27.21391704 95.44733112 7.3984375 96.7421875 C1.2660408 97.13808663 -4.85673648 97.09153869 -11 97 C-11.23546163 103.55314879 -11.23546163 103.55314879 -8 109 C-5.99219402 110.1825115 -3.97416229 111.17145598 -1.83984375 112.10546875 C0 113 0 113 2 115 C2.61211092 119.93663485 2.63802582 124.54994131 0.625 129.125 C-1 131 -1 131 -3 132 C-4.78859511 132.12207871 -6.58228381 132.17548448 -8.375 132.1875 C-9.33148438 132.20167969 -10.28796875 132.21585938 -11.2734375 132.23046875 C-14.08026714 131.99321524 -15.68714788 131.58942578 -18 130 C-19.06987902 126.79036294 -18.91843351 124.89971555 -18.6875 121.5625 C-18.57606476 118.64526436 -18.57606476 118.64526436 -19 116 C-21.72150183 113.51893124 -21.72150183 113.51893124 -25 112 C-27.92675987 108.29277083 -28.3259948 105.67259219 -28 101 C-34.34359983 104.33038991 -38.89692632 109.55766067 -42 116 C-42.14850609 119.33536654 -41.82032657 122.11545576 -41.109375 125.37109375 C-41 128 -41 128 -42.72265625 130.2890625 C-45.96932198 132.72823847 -49.04161429 133.19376713 -53 133 C-56.13867337 132.30909706 -59.1168365 131.43211841 -62 130 C-63.60957264 126.78085473 -63.6049097 123.48159139 -63 120 C-60.75 117.3125 -60.75 117.3125 -58 115 C-54.98085264 111.50911087 -52.54788425 107.79494429 -50.1484375 103.8671875 C-49.13613657 102.22133769 -48.07181726 100.60772589 -47 99 C-47.76183594 98.89042969 -48.52367187 98.78085938 -49.30859375 98.66796875 C-55.8079513 97.66994006 -61.87244407 96.39720751 -68 94 C-69.051875 93.608125 -70.10375 93.21625 -71.1875 92.8125 C-77.07872105 89.01593532 -80.97834172 82.62654659 -83 76 C-84.85964531 60.65792616 -79.83766042 41.60774271 -71 29 C-66.67955129 24.07862557 -63.59996723 22.69307532 -57 22 C-57.09539062 20.87980469 -57.19078125 19.75960937 -57.2890625 18.60546875 C-57.40161885 17.1328565 -57.5135663 15.66019763 -57.625 14.1875 C-57.68945312 13.44951172 -57.75390625 12.71152344 -57.8203125 11.95117188 C-58.2265625 6.33984375 -58.2265625 6.33984375 -56 3 C-50.84201035 2.91257645 -50.84201035 2.91257645 -48 4 C-45.00107301 7.58304103 -43 11.29739226 -43 16 C-41.16888672 15.89171875 -41.16888672 15.89171875 -39.30078125 15.78125 C-29.85247466 15.2418687 -20.46651477 14.84704016 -11 15 C-11.04125 13.989375 -11.0825 12.97875 -11.125 11.9375 C-10.99698406 7.90499804 -10.43135047 4.76671176 -9 1 C-5.66660588 -0.11113137 -3.49519344 -0.34951934 0 0 Z M-8 5 C-9.05829332 10.3796577 -9.13855018 12.92853611 -7 18 C-8.35363647 18.03758423 -8.35363647 18.03758423 -9.73461914 18.07592773 C-13.10988834 18.17154627 -16.48501394 18.27074827 -19.86010742 18.37231445 C-21.3157953 18.41539933 -22.77152517 18.45709075 -24.22729492 18.49731445 C-26.33004361 18.55566411 -28.43258606 18.61916516 -30.53515625 18.68359375 C-31.797229 18.72025146 -33.05930176 18.75690918 -34.35961914 18.79467773 C-37.97472628 18.99857453 -41.42749891 19.43443786 -45 20 C-44.896875 19.34 -44.79375 18.68 -44.6875 18 C-45.14683841 13.59035122 -47.11593033 10.33616707 -50 7 C-52.65851769 5.87786106 -52.65851769 5.87786106 -55 6 C-56.32594359 11.96674616 -56.0884587 17.92583615 -56 24 C-57.010625 24.20625 -58.02125 24.4125 -59.0625 24.625 C-64.87639416 26.359791 -68.52963279 29.57923151 -71.66796875 34.74609375 C-76.93814966 44.96113577 -79.69257583 54.58846077 -81 66 C-81.14695313 67.22783203 -81.14695313 67.22783203 -81.296875 68.48046875 C-81.69323603 74.70113488 -79.57455173 79.92514346 -76 85 C-75.01 85.33 -74.02 85.66 -73 86 C-72.7525 86.61875 -72.505 87.2375 -72.25 87.875 C-69.85798107 91.94143218 -64.69949139 92.7668362 -60.4375 94.1875 C-54.4245136 95.62823536 -48.13668594 95.15514094 -42 95 C-43.38249447 98.76240504 -44.98399069 101.24617421 -47.64453125 104.2578125 C-49.21186658 106.27231267 -50.32367682 108.36141281 -51.5 110.625 C-53.49114174 114.36859771 -55.49297131 116.53560146 -59 119 C-61.14915785 122.22373677 -61.38286803 123.26703674 -61 127 C-58.11782368 129.88217632 -55.43964316 129.70936104 -51.484375 130.03515625 C-48.20144288 129.98869966 -46.42862641 129.19359805 -44 127 C-43.505 125.515 -43.505 125.515 -43 124 C-43.33 123.38125 -43.66 122.7625 -44 122.125 C-45.37421748 119.20478785 -45.06216413 118.04487052 -44 115 C-42.82857787 113.16040206 -41.56985913 111.42747096 -40.25 109.69140625 C-38.8776707 107.91908357 -38.8776707 107.91908357 -37.625 105.4375 C-34.75400939 101.13101409 -30.9292132 97.64307107 -26 96 C-26.03480469 96.59167969 -26.06960937 97.18335938 -26.10546875 97.79296875 C-26.27417224 102.71750406 -26.35409579 106.10492102 -23 110 C-21.75222159 110.71223953 -20.5020315 111.42026371 -19.25 112.125 C-17.37109375 113.34375 -17.37109375 113.34375 -16 115 C-15.89902633 117.98530844 -16.29838032 120.55934798 -16.92578125 123.4765625 C-17.29465982 126.09516241 -17.29465982 126.09516241 -15.359375 127.80859375 C-12.68424923 129.15944368 -10.923404 129.43299637 -7.9375 129.4375 C-6.65166016 129.46650391 -6.65166016 129.46650391 -5.33984375 129.49609375 C-2.87920766 129.19156674 -2.87920766 129.19156674 -1.2109375 127.26171875 C0.14399675 124.73105124 0.37445513 123.22493598 0.3125 120.375 C0.30863281 119.59898437 0.30476563 118.82296875 0.30078125 118.0234375 C0.17177255 115.77480351 0.17177255 115.77480351 -2 114 C-3.7015625 113.5359375 -3.7015625 113.5359375 -5.4375 113.0625 C-10.06970509 111.68096515 -10.06970509 111.68096515 -12 109 C-13.09506492 105.71480525 -13.09960608 103.26336585 -13.0625 99.8125 C-13.05347656 98.72582031 -13.04445313 97.63914062 -13.03515625 96.51953125 C-13.02355469 95.68808594 -13.01195312 94.85664063 -13 94 C-11.515 94.495 -11.515 94.495 -10 95 C-8.31336751 94.94909417 -6.62843579 94.82614022 -4.94921875 94.66015625 C-3.94785889 94.56645752 -2.94649902 94.47275879 -1.91479492 94.3762207 C-0.8497876 94.27269287 0.21521973 94.16916504 1.3125 94.0625 C17.93379848 92.57422695 35.53801811 91.6706104 52 95 C54.62758445 95.17876654 57.24477273 95.32323101 59.875 95.4375 C67.28613639 95.80344376 74.67090912 96.35068213 82.0625 97 C83.01302246 97.08306396 83.96354492 97.16612793 84.94287109 97.25170898 C90.63815923 97.76041336 96.31925526 98.34877849 102 99 C101.2265625 100.7634375 101.2265625 100.7634375 100.4375 102.5625 C98.8053564 106.84115682 98.98716519 109.58035721 100 114 C100.66 114 101.32 114 102 114 C102.33 114.99 102.66 115.98 103 117 C105.70879335 118.35439668 108.00933268 118.06501451 111 118 C108.94766315 120.2477975 107.99332739 121.0022242 105 122 C104.16666667 123.91666667 104.16666667 123.91666667 104 126 C104.33 126.66 104.66 127.32 105 128 C109.18319981 129.14951565 112.9063048 129.38735039 117 127.9375 C119.59893431 125.41978239 119.76368265 123.5447602 120 120 C119.401875 119.7525 118.80375 119.505 118.1875 119.25 C115.55475336 117.74557335 114.57416519 116.60079466 113 114 C112.26953125 110.546875 112.26953125 110.546875 111.8125 106.75 C111.65394531 105.48671875 111.49539063 104.2234375 111.33203125 102.921875 C111.22246094 101.95765625 111.11289062 100.9934375 111 100 C111.763125 100.165 112.52625 100.33 113.3125 100.5 C130.42228685 102.8199711 156.67793608 102.46022159 171.41796875 92.33984375 C171.94003906 91.89769531 172.46210938 91.45554687 173 91 C172.42655063 88.13275314 172.1385485 87.1385485 170 85 C167.34462628 84.43479997 164.70855287 84.26211802 162 84 C161.5978125 82.63875 161.5978125 82.63875 161.1875 81.25 C160.07889471 78.21592237 159.31670247 76.23089868 157 74 C154.41537838 73.58282721 154.41537838 73.58282721 152 74 C150.64381501 75.12534105 150.64381501 75.12534105 150.9375 78.0625 C150.9684375 79.5165625 150.9684375 79.5165625 151 81 C151.99 81 152.98 81 154 81 C154 81.99 154 82.98 154 84 C153.34 84 152.68 84 152 84 C152 84.66 152 85.32 152 86 C146.34815702 86.05024891 140.69645015 86.08611132 135.04443359 86.10986328 C133.13034799 86.11978746 131.21627698 86.13333114 129.30224609 86.15087891 C118.96509202 86.24312648 108.84411138 86.07224488 98.58085632 84.77761841 C93.28433366 84.11334901 88.01491783 83.70028926 82.68359375 83.4375 C81.91946167 83.39946259 81.15532959 83.36142517 80.36804199 83.32223511 C77.26935301 83.17277578 74.17031469 83.03235785 71.07104492 82.89550781 C62.85654722 82.52532476 54.99438295 82.08477748 47 80 C43.90297333 79.54677658 40.80576311 79.13953168 37.69921875 78.7578125 C34.35991875 77.82029557 33.09331999 76.75041595 31 74 C30.05859375 71.328125 30.05859375 71.328125 29.4375 68.25 C29.19773437 67.10402344 28.95796875 65.95804688 28.7109375 64.77734375 C28.21963836 62.16697963 27.7437449 59.55801002 27.2890625 56.94140625 C25.09117081 44.34155225 22.23898814 34.3766267 13 25 C11.36803566 23.94431531 9.70265353 22.93741599 8 22 C7.01 21.34 6.02 20.68 5 20 C4.8125 18.046875 4.8125 18.046875 5 15.75 C5.15413557 11.39917322 4.37250495 8.74125781 2 5 C0.11499729 2.68436913 0.11499729 2.68436913 -3 2.75 C-6.11499729 2.68436913 -6.11499729 2.68436913 -8 5 Z " fill="#0F0F0F" transform="translate(244,154)"/>
<path d="M0 0 C2.6875 -0.3125 2.6875 -0.3125 6 0 C6.65484375 0.82371094 7.3096875 1.64742187 7.984375 2.49609375 C12.5652212 6.2996202 16.79729447 5.57827168 22.5625 5.375 C23.56474609 5.36082031 24.56699219 5.34664062 25.59960938 5.33203125 C30.47519469 5.2414631 35.34076995 5.04623593 40.20825195 4.75537109 C54.45235002 3.91878154 68.67682983 3.84573931 82.94213867 3.86962891 C85.67653585 3.87416195 88.4108666 3.87421517 91.14526367 3.86962891 C100.43094505 3.85414611 109.7147567 3.89399703 119 4 C120.89718781 4.01987976 120.89718781 4.01987976 122.83270264 4.04016113 C126.4714204 4.08922994 130.10817747 4.16795371 133.74609375 4.2578125 C135.34216209 4.27822098 135.34216209 4.27822098 136.97047424 4.29904175 C147.76141846 4.63593906 157.23194941 7.126133 165.1015625 14.796875 C168.08119031 18.25471468 170.07594107 21.88307979 172 26 C172.5878125 27.06347656 172.5878125 27.06347656 173.1875 28.1484375 C176.97476175 35.43365628 176.77162077 42.60176161 175.375 50.5625 C169.6875 64.78125 169.6875 64.78125 163.4375 67.625 C157.70072769 69.69064707 152.18507829 70.14951793 146.12109375 70.1328125 C145.35992249 70.13413177 144.59875122 70.13545105 143.81451416 70.1368103 C141.35546728 70.1387179 138.89653518 70.13241583 136.4375 70.125 C135.60618561 70.12411377 134.77487122 70.12322754 133.91836548 70.12231445 C121.58858811 70.10680173 109.30284848 69.87542505 97 69 C97 68.34 97 67.68 97 67 C96.29617188 67.16242188 95.59234375 67.32484375 94.8671875 67.4921875 C87.40965184 68.81300444 79.59253259 68.08414043 72.08203125 67.5078125 C66.67319889 67.13155169 61.29977248 66.9117425 55.87890625 66.859375 C18.90517158 66.4491541 18.90517158 66.4491541 9.328125 56.74609375 C6.17351182 52.59870525 3 48.32125735 3 43 C3.99 43 4.98 43 6 43 C6.29132813 43.66386719 6.58265625 44.32773437 6.8828125 45.01171875 C7.29273438 45.89472656 7.70265625 46.77773438 8.125 47.6875 C8.51945312 48.55761719 8.91390625 49.42773438 9.3203125 50.32421875 C13.38264271 56.79560525 18.7366666 59.03041584 25.8828125 60.81347656 C36.05059187 63.02167685 46.66469952 62.33657041 57 62 C57.41787052 60.0880169 57.80853809 58.1700737 58.1875 56.25 C58.51814453 54.64898437 58.51814453 54.64898437 58.85546875 53.015625 C59.28315168 49.9648936 59.28315168 49.9648936 57.55078125 47.609375 C57.03902344 47.07828125 56.52726562 46.5471875 56 46 C56.53625 45.443125 57.0725 44.88625 57.625 44.3125 C58.07875 43.549375 58.5325 42.78625 59 42 C58.24714403 39.40952023 58.24714403 39.40952023 57 37 C57 36.01 57 35.02 57 34 C58.875 34.625 58.875 34.625 61 36 C63.12026175 40.44245319 62.90564235 43.27053437 62 48 C62.185625 48.804375 62.37125 49.60875 62.5625 50.4375 C63.16517973 53.96748126 62.02235925 56.61343499 61 60 C61.33 60.66 61.66 61.32 62 62 C64.11907132 62.43336532 64.11907132 62.43336532 66.625 62.5625 C69.60766987 62.79875108 72.48073906 63.07866639 75.4375 63.5625 C82.40254967 64.41785698 89.09865575 64.23870281 96 63 C96.66 63.33 97.32 63.66 98 64 C100.5034121 64.03052942 102.99053963 63.93318882 105.4921875 63.83984375 C108 64 108 64 109.83154297 64.98413086 C112.41145017 66.19275435 114.36227984 66.31496325 117.203125 66.4140625 C118.1828125 66.45273437 119.1625 66.49140625 120.171875 66.53125 C121.18765625 66.5621875 122.2034375 66.593125 123.25 66.625 C124.28125 66.66367187 125.3125 66.70234375 126.375 66.7421875 C128.9164894 66.83631674 131.45797433 66.92194979 134 67 C134 66.34 134 65.68 134 65 C134.45375 64.608125 134.9075 64.21625 135.375 63.8125 C137.71848404 61.19861396 138.17605418 58.35916371 139 55 C137.02 53.02 137.02 53.02 135 51 C136.33333333 48.33333333 137.66666667 45.66666667 139 43 C138.01 42.67 137.02 42.34 136 42 C136 41.34 136 40.68 136 40 C137.65 40.33 139.3 40.66 141 41 C141.90594807 43.61718331 141.98235878 45.10143704 141.5 47.875 C140.82103232 50.95481429 140.82103232 50.95481429 141.5625 53.8125 C142.15954695 58.16241351 141.12859128 61.8027597 140 66 C149.25422217 66.34775783 158.37155666 66.15340848 165.52734375 59.6015625 C170.63418377 54.28245773 173.03593989 48.48050599 172.9765625 41.078125 C171.76494615 30.68514917 165.95190166 22.54777895 159 15 C158.01 14.505 158.01 14.505 157 14 C155.70460535 16.13359119 154.96725485 17.47607754 155.125 20 C155.88284231 22.17539077 155.88284231 22.17539077 158.0625 23.5625 C160.8493096 27.06848627 160.3951048 30.08077589 160.3359375 34.44140625 C160 37 160 37 158 40 C157.01 40 156.02 40 155 40 C153.61259265 35.14407429 154.10662026 30.91358857 155 26 C153.35 25.01 151.7 24.02 150 23 C150.66 19.7 151.32 16.4 152 13 C146.26899527 7.84621877 140.1696005 8.33910001 132.75 8.25 C130.955625 8.20552734 130.955625 8.20552734 129.125 8.16015625 C125.41669339 8.07206299 121.70943103 8 118 8 C117.97111486 11.14581423 117.95324077 14.29159469 117.9375 17.4375 C117.92493164 18.78424805 117.92493164 18.78424805 117.91210938 20.15820312 C117.90727539 21.43920898 117.90727539 21.43920898 117.90234375 22.74609375 C117.89448853 23.93223267 117.89448853 23.93223267 117.88647461 25.14233398 C117.79504091 27.01592689 117.79504091 27.01592689 119 28 C119.29502561 31.31903813 119.31653751 33.39857872 117.75 36.375 C116 38 116 38 112 38 C112.3125 36.0625 112.3125 36.0625 113 34 C113.99 33.67 114.98 33.34 116 33 C115.649375 32.360625 115.29875 31.72125 114.9375 31.0625 C113.65009387 26.8569733 114.3091153 23.28535237 115 19 C114.34 19 113.68 19 113 19 C113.2784375 17.6078125 113.2784375 17.6078125 113.5625 16.1875 C114.24123881 12.98656229 114.24123881 12.98656229 113 10 C110.04605311 8.04031242 107.51218695 7.7138605 104.015625 7.5859375 C103.08105469 7.54726562 102.14648438 7.50859375 101.18359375 7.46875 C100.21550781 7.4378125 99.24742187 7.406875 98.25 7.375 C97.26644531 7.33632812 96.28289062 7.29765625 95.26953125 7.2578125 C92.84653963 7.16371574 90.42355204 7.07807672 88 7 C88.65355469 7.6084375 89.30710937 8.216875 89.98046875 8.84375 C92 11 92 11 92.3125 13.5 C92 16 92 16 91.4375 17.875 C90.83003764 20.21918991 90.83003764 20.21918991 91.5 23.5 C91.93772143 26.56405002 92.02210188 28.16082812 91 31 C89.515 30.505 89.515 30.505 88 30 C88.2475 29.0925 88.495 28.185 88.75 27.25 C89.38259327 23.91162152 89.38259327 23.91162152 87.0625 21.625 C86.381875 21.08875 85.70125 20.5525 85 20 C85.495 18.515 85.495 18.515 86 17 C86.99 16.505 86.99 16.505 88 16 C87.6812152 13.0512406 87.46496428 11.44931676 85.29516602 9.35253906 C82.48703184 7.69770837 80.77202679 7.64016889 77.52734375 7.671875 C76.46193359 7.67703125 75.39652344 7.6821875 74.29882812 7.6875 C73.18958984 7.708125 72.08035156 7.72875 70.9375 7.75 C69.31424805 7.75773438 69.31424805 7.75773438 67.65820312 7.765625 C55.66108757 7.67940866 55.66108757 7.67940866 44 10 C44.0825 10.86625 44.165 11.7325 44.25 12.625 C44 16 44 16 41.9375 18.9375 C39.45506191 22.86135376 40.20388733 24.54176905 41 29 C40.125 32.1875 40.125 32.1875 39 35 C38.65023242 36.32911682 38.30903983 37.66082739 38 39 C37.01 39 36.02 39 35 39 C35 38.01 35 37.02 35 36 C34.34 35.34 33.68 34.68 33 34 C33.86625 33.195625 34.7325 32.39125 35.625 31.5625 C37.48699113 29.38756918 38.02349199 28.49819212 37.88671875 25.59765625 C37.36405487 23.34700157 36.7609131 21.18096111 36 19 C36.66 18.5875 37.32 18.175 38 17.75 C38.66 17.1725 39.32 16.595 40 16 C40 14.68 40 13.36 40 12 C36.84172385 10.15663742 34.46259887 9.73197479 30.82421875 9.65625 C29.83099609 9.62660156 28.83777344 9.59695312 27.81445312 9.56640625 C26.26661133 9.53353516 26.26661133 9.53353516 24.6875 9.5 C8.56797015 9.15378142 8.56797015 9.15378142 4.0625 5.375 C3.5365625 4.694375 3.5365625 4.694375 3 4 C0.6969113 10.56654456 -0.33693273 16.03672362 0 23 C-0.99 23 -1.98 23 -3 23 C-3.08172936 20.4784979 -3.14083373 17.95970083 -3.1875 15.4375 C-3.21263672 14.73302734 -3.23777344 14.02855469 -3.26367188 13.30273438 C-3.33532304 8.11996685 -2.32172598 4.63735818 0 0 Z " fill="#111111" transform="translate(428,216)"/>
<path d="M0 0 C1.21405518 0.05873291 1.21405518 0.05873291 2.45263672 0.11865234 C6.389404 0.33374472 10.07033969 0.78037769 13.9375 1.5625 C16.56507622 1.74126598 19.18229469 1.88544046 21.8125 2 C29.21968658 2.37272275 36.60904806 2.88418689 44 3.5 C44.95052246 3.57468506 45.90104492 3.64937012 46.88037109 3.72631836 C52.72214155 4.22758393 58.24092268 5.16896676 63.9375 6.5625 C63.42674862 9.6270083 62.9149183 12.69046299 62.375 15.75 C61.8606465 18.58217084 61.8606465 18.58217084 61.9375 21.5625 C62.5975 21.5625 63.2575 21.5625 63.9375 21.5625 C64.35 22.036875 64.7625 22.51125 65.1875 23 C67.59538428 25.14989668 69.79158584 25.21295398 72.9375 25.5625 C72.4425 27.0475 72.4425 27.0475 71.9375 28.5625 C70.2875 28.8925 68.6375 29.2225 66.9375 29.5625 C66.9375 31.5425 66.9375 33.5225 66.9375 35.5625 C68.35373216 35.61697047 69.77058191 35.65550508 71.1875 35.6875 C71.97640625 35.71070313 72.7653125 35.73390625 73.578125 35.7578125 C76.21220815 35.53975926 77.74243031 35.0258798 79.9375 33.5625 C81.22981642 30.52050528 81.22981642 30.52050528 81.9375 27.5625 C81.174375 27.315 80.41125 27.0675 79.625 26.8125 C76.61045684 25.4103869 75.57222774 24.42327355 73.9375 21.5625 C72.51141414 17.02495409 72.84517345 12.271154 72.9375 7.5625 C76.6875 6.4375 76.6875 6.4375 78.9375 7.5625 C87.32178763 8.09205445 95.77204101 7.22893554 104.125 6.5625 C105.36314453 6.46710938 106.60128906 6.37171875 107.87695312 6.2734375 C110.89744678 6.04019475 113.91758869 5.80314568 116.9375 5.5625 C116.19018555 7.51074219 116.19018555 7.51074219 114.9375 9.5625 C113.11254883 10.20019531 113.11254883 10.20019531 110.89453125 10.390625 C110.07476807 10.46821045 109.25500488 10.5457959 108.41040039 10.62573242 C107.53246826 10.68736572 106.65453613 10.74899902 105.75 10.8125 C104.40699829 10.92525269 104.40699829 10.92525269 103.03686523 11.0402832 C83.50124742 12.56337557 83.50124742 12.56337557 74.9375 10.5625 C75.4325 12.5425 75.4325 12.5425 75.9375 14.5625 C78.85402174 14.72931109 78.85402174 14.72931109 81.9375 14.5625 C82.5975 13.9025 83.2575 13.2425 83.9375 12.5625 C87.96893083 11.93538854 89.50152878 12.25639255 92.875 14.625 C94.9375 17.5625 94.9375 17.5625 94.9375 21.1875 C93.49236862 26.06481839 93.49236862 26.06481839 90.9375 27.5625 C87.75 27.75 87.75 27.75 84.9375 27.5625 C84.855 28.449375 84.7725 29.33625 84.6875 30.25 C83.80158658 34.16278426 82.96795943 35.92056101 79.9375 38.5625 C74.79435056 39.06838355 70.01654954 38.40900826 64.9375 37.5625 C64.7209375 35.95375 64.7209375 35.95375 64.5 34.3125 C64.314375 33.075 64.12875 31.8375 63.9375 30.5625 C63.84082031 29.88703125 63.74414062 29.2115625 63.64453125 28.515625 C62.69467506 25.89171286 61.35597064 25.10828241 59.0625 23.5625 C56.05543672 21.5208039 53.86071289 19.68025506 51.9375 16.5625 C51.51325758 10.41098485 51.51325758 10.41098485 52.9375 7.5625 C52.0609375 7.51351562 51.184375 7.46453125 50.28125 7.4140625 C43.05836847 6.98832355 35.85553671 6.47775305 28.64916992 5.82714844 C7.78778745 3.96302029 -13.12232795 3.3304045 -34.0625 3.5625 C-33.7325 2.5725 -33.4025 1.5825 -33.0625 0.5625 C-22.04409643 -0.9572798 -11.07475577 -0.55002143 0 0 Z " fill="#0C0C0C" transform="translate(282.0625,246.4375)"/>
<path d="M0 0 C0.66 0.33 1.32 0.66 2 1 C-0.39725185 3.46574476 -2.70166386 5.78153338 -5.48046875 7.81640625 C-15.01941606 16.08349392 -17.63743324 32.10716188 -19 44 C-19.09796875 44.81855469 -19.1959375 45.63710937 -19.296875 46.48046875 C-19.76463336 53.82167629 -16.51894681 59.72536915 -12.125 65.4375 C-3.03196591 72.12355448 8.18488895 72.42278902 19 73 C18.35945591 77.14961168 17.21548588 79.11980534 14.39453125 82.2578125 C12.78510808 84.26846441 11.64202506 86.35020034 10.4375 88.625 C8.65816134 91.94307492 6.99733157 94.62280599 4 97 C3.34 97 2.68 97 2 97 C1.67 99.64 1.34 102.28 1 105 C5.13223332 107.26606344 8.47633383 107.06081228 13.01171875 106.6796875 C15.17166625 106.16220635 15.17166625 106.16220635 16.328125 104.06640625 C17.26866073 101.98483825 17.26866073 101.98483825 16.0625 100.0625 C15.711875 99.381875 15.36125 98.70125 15 98 C15.11726006 93.66137761 17.22225263 91.015226 19.75390625 87.6875 C21.11703206 85.9309807 21.11703206 85.9309807 22.3125 83.5 C24.87912 79.69760001 28.2424541 76.62876699 32 74 C32.99 74 33.98 74 35 74 C35.03996094 74.78503906 35.07992187 75.57007813 35.12109375 76.37890625 C35.59499935 82.86273854 35.59499935 82.86273854 39.171875 87.96875 C40.00203125 88.4946875 40.8321875 89.020625 41.6875 89.5625 C44.1328125 91.1328125 44.1328125 91.1328125 46 93 C46.49435189 96.86015199 45.93092176 100.24233772 45 104 C48.23035533 106.15357022 49.31133458 106.29592637 53.0625 106.3125 C53.94035156 106.32925781 54.81820312 106.34601563 55.72265625 106.36328125 C56.47417969 106.24339844 57.22570312 106.12351562 58 106 C60.13586678 102.79619983 60.23132175 101.98060033 60.125 98.3125 C60.10695313 97.50425781 60.08890625 96.69601562 60.0703125 95.86328125 C60.04710937 95.24839844 60.02390625 94.63351562 60 94 C58.7625 93.5875 57.525 93.175 56.25 92.75 C52.68926959 91.41393832 50.3871136 90.05550541 48 87 C46.28543648 81.85630944 46.70940179 77.16239286 48 72 C53.61 72 59.22 72 65 72 C64.505 73.485 64.505 73.485 64 75 C59.38 75 54.76 75 50 75 C49.66459978 81.94949795 49.66459978 81.94949795 53 87 C55.00780598 88.1825115 57.02583771 89.17145598 59.16015625 90.10546875 C61 91 61 91 63 93 C63.61211092 97.93663485 63.63802582 102.54994131 61.625 107.125 C60 109 60 109 58 110 C56.21140489 110.12207871 54.41771619 110.17548448 52.625 110.1875 C51.66851562 110.20167969 50.71203125 110.21585937 49.7265625 110.23046875 C46.91973286 109.99321524 45.31285212 109.58942578 43 108 C41.93012098 104.79036294 42.08156649 102.89971555 42.3125 99.5625 C42.42393524 96.64526436 42.42393524 96.64526436 42 94 C39.27849817 91.51893124 39.27849817 91.51893124 36 90 C33.07324013 86.29277083 32.6740052 83.67259219 33 79 C26.65640017 82.33038991 22.10307368 87.55766067 19 94 C18.85149391 97.33536654 19.17967343 100.11545576 19.890625 103.37109375 C20 106 20 106 18.27734375 108.2890625 C15.03067802 110.72823847 11.95838571 111.19376713 8 111 C4.86132663 110.30909706 1.8831635 109.43211841 -1 108 C-2.60957264 104.78085473 -2.6049097 101.48159139 -2 98 C0.25 95.3125 0.25 95.3125 3 93 C6.01914736 89.50911087 8.45211575 85.79494429 10.8515625 81.8671875 C11.86386343 80.22133769 12.92818274 78.60772589 14 77 C13.23816406 76.89042969 12.47632813 76.78085938 11.69140625 76.66796875 C5.1920487 75.66994006 -0.87244407 74.39720751 -7 72 C-8.051875 71.608125 -9.10375 71.21625 -10.1875 70.8125 C-16.07872105 67.01593532 -19.97834172 60.62654659 -22 54 C-23.85238839 38.71779578 -18.88011645 19.52947938 -10 7 C-6.94125077 3.79270224 -4.22838787 1.40946262 0 0 Z " fill="#080808" transform="translate(183,176)"/>
<path d="M0 0 C3.24795921 2.48779854 5.69495964 5.08487892 7 9 C7.43317063 12.46536507 7.5379313 14.23793066 5.5 17.125 C-2.72631579 23.29473684 -2.72631579 23.29473684 -8.375 22.5625 C-11 21 -11 21 -12.3125 18.9375 C-15.08518803 7.09056025 -15.08518803 7.09056025 -12 2 C-7.98936034 -0.67375977 -4.714982 -0.82035715 0 0 Z " fill="#C8C8C8" transform="translate(439,237)"/>
<path d="M0 0 C5.15798965 -0.08742355 5.15798965 -0.08742355 8 1 C10.99892699 4.58304103 13 8.29739226 13 13 C14.83111328 12.89171875 14.83111328 12.89171875 16.69921875 12.78125 C26.14752534 12.2418687 35.53348523 11.84704016 45 12 C45 10.35 45 8.7 45 7 C45.66 6.67 46.32 6.34 47 6 C47.99 8.97 48.98 11.94 50 15 C47.91795642 17.08204358 43.4661444 16.25821292 40.58984375 16.31640625 C39.32679161 16.3475779 39.32679161 16.3475779 38.03822327 16.37937927 C35.33806821 16.44496812 32.63781283 16.50380276 29.9375 16.5625 C28.11131759 16.60567637 26.28514546 16.64929036 24.45898438 16.69335938 C19.97276008 16.80065894 15.4864345 16.90189966 11 17 C10.80664062 16.37931641 10.61328125 15.75863281 10.4140625 15.11914062 C10.02347656 13.90000977 10.02347656 13.90000977 9.625 12.65625 C9.36976563 11.84994141 9.11453125 11.04363281 8.8515625 10.21289062 C7.76661723 7.39352595 6.40837968 5.80628476 4 4 C3.01 3.67 2.02 3.34 1 3 C1 8.94 1 14.88 1 21 C-0.65 21.33 -2.3 21.66 -4 22 C-3.505 20.515 -3.505 20.515 -3 19 C-2.34 19 -1.68 19 -1 19 C-1.14308594 17.31970703 -1.14308594 17.31970703 -1.2890625 15.60546875 C-1.40161885 14.1328565 -1.5135663 12.66019763 -1.625 11.1875 C-1.68945312 10.44951172 -1.75390625 9.71152344 -1.8203125 8.95117188 C-2.2265625 3.33984375 -2.2265625 3.33984375 0 0 Z " fill="#141414" transform="translate(188,157)"/>
<path d="M0 0 C0 0.66 0 1.32 0 2 C-1.21236328 2.05607422 -1.21236328 2.05607422 -2.44921875 2.11328125 C-3.51785156 2.17902344 -4.58648437 2.24476563 -5.6875 2.3125 C-6.74324219 2.37050781 -7.79898438 2.42851562 -8.88671875 2.48828125 C-12.29063405 3.04777047 -14.2369343 3.96278343 -17 6 C-19.52454805 9.78682207 -19.62183425 12.55434918 -19 17 C-17.45661909 19.17476401 -16.36334727 19.81832637 -14 21 C-12.46331135 21.22467831 -10.92031946 21.40796805 -9.375 21.5625 C-8.55773437 21.64628906 -7.74046875 21.73007813 -6.8984375 21.81640625 C-5.95871094 21.90728516 -5.95871094 21.90728516 -5 22 C-5 22.99 -5 23.98 -5 25 C-16.92689295 24.39425587 -16.92689295 24.39425587 -21 21 C-23.09024132 16.81951735 -22.4322265 11.55359746 -22 7 C-17.14089647 -2.15754127 -9.0029956 -1.20914019 0 0 Z " fill="#060606" transform="translate(209,196)"/>
<path d="M0 0 C1.52299523 2.93720508 2.80100302 5.9168649 4 9 C2.30352146 10.69647854 0.19388388 10.13191891 -2.06835938 10.13867188 C-3.11733398 10.1319043 -3.11733398 10.1319043 -4.1875 10.125 C-4.89841797 10.12306641 -5.60933594 10.12113281 -6.34179688 10.11914062 C-13.25504575 10.06393278 -20.112676 9.60264085 -27 9 C-26.67 8.34 -26.34 7.68 -26 7 C-17.83959762 5.50861612 -9.26230391 5.88006333 -1 6 C-1.020625 5.195625 -1.04125 4.39125 -1.0625 3.5625 C-1 1 -1 1 0 0 Z " fill="#242424" transform="translate(234,163)"/>
<path d="M0 0 C1.375 2.0625 1.375 2.0625 2 4 C0.9375 5.9375 0.9375 5.9375 -1 8 C-4.88245475 9.07845965 -7.0710119 9.39223942 -10.8125 7.8125 C-13.06260912 5.94812387 -13.8080499 4.60503122 -15 2 C-5.13707432 -1.87941743 -5.13707432 -1.87941743 0 0 Z " fill="#EBEBEB" transform="translate(373,263)"/>
<path d="M0 0 C0.66 0.33 1.32 0.66 2 1 C1.319375 1.845625 0.63875 2.69125 -0.0625 3.5625 C-2.43065395 7.76406347 -1.82658451 9.37112672 -1 14 C-1.875 17.1875 -1.875 17.1875 -3 20 C-3.34976758 21.32911682 -3.69096017 22.66082739 -4 24 C-4.99 24 -5.98 24 -7 24 C-7 23.01 -7 22.02 -7 21 C-7.66 20.34 -8.32 19.68 -9 19 C-8.13375 18.154375 -7.2675 17.30875 -6.375 16.4375 C-4.93020894 14.85540789 -4.93020894 14.85540789 -4 13 C-4.53219091 9.17352608 -4.53219091 9.17352608 -6 6 C-4.02 4.02 -2.04 2.04 0 0 Z " fill="#000000" transform="translate(470,231)"/>
<path d="M0 0 C-0.66 1.32 -1.32 2.64 -2 4 C-8.27 4 -14.54 4 -21 4 C-20.67 3.01 -20.34 2.02 -20 1 C-13.28837062 0.11978631 -6.76594019 -0.11381955 0 0 Z " fill="#2B2B2B" transform="translate(269,246)"/>
<path d="M0 0 C1.65 0.33 3.3 0.66 5 1 C5.90594807 3.61718331 5.98235878 5.10143704 5.5 7.875 C4.96376636 11.22646028 5.41081278 13.68582189 6 17 C5.67 17.99 5.34 18.98 5 20 C4.01 19.67 3.02 19.34 2 19 C2.2475 18.4225 2.495 17.845 2.75 17.25 C2.8325 16.5075 2.915 15.765 3 15 C1.14567913 12.72855926 1.14567913 12.72855926 -1 11 C0.33333333 8.33333333 1.66666667 5.66666667 3 3 C2.01 2.67 1.02 2.34 0 2 C0 1.34 0 0.68 0 0 Z " fill="#000000" transform="translate(564,256)"/>
<path d="M0 0 C8.25 0 16.5 0 25 0 C25 0.99 25 1.98 25 3 C16.75 2.67 8.5 2.34 0 2 C0 1.34 0 0.68 0 0 Z " fill="#030303" transform="translate(193,229)"/>
<path d="M0 0 C2.97 0.495 2.97 0.495 6 1 C5.34 4.63 4.68 8.26 4 12 C1.4375 10.5 1.4375 10.5 -1 8 C-1.15374792 5.12271746 -0.61846819 2.85446858 0 0 Z " fill="#DDDDDD" transform="translate(337,254)"/>
<path d="M0 0 C0 0.33 0 0.66 0 1 C2.97 1.33 5.94 1.66 9 2 C9 2.33 9 2.66 9 3 C1.97360585 3.74805717 -4.93391809 4.13794954 -12 4 C-11.67 3.01 -11.34 2.02 -11 1 C-7.50970582 -0.47666292 -3.72563614 -0.07164685 0 0 Z " fill="#353535" transform="translate(379,254)"/>
<path d="M0 0 C2.10494301 0.08708038 4.20902142 0.19525693 6.3125 0.3125 C8.07013672 0.39951172 8.07013672 0.39951172 9.86328125 0.48828125 C13.0983686 1.01604768 14.08684881 1.42380724 16 4 C13.72923158 4.02699725 11.45837179 4.04639453 9.1875 4.0625 C7.29064453 4.07990234 7.29064453 4.07990234 5.35546875 4.09765625 C2 4 2 4 -1 3 C-0.67 2.01 -0.34 1.02 0 0 Z " fill="#191919" transform="translate(269,246)"/>
<path d="M0 0 C0.66 0.33 1.32 0.66 2 1 C1.814375 1.515625 1.62875 2.03125 1.4375 2.5625 C0.83752918 5.1713937 0.83752918 5.1713937 1.5 8.5 C1.93772143 11.56405002 2.02210188 13.16082812 1 16 C0.01 15.67 -0.98 15.34 -2 15 C-1.773125 14.113125 -1.54625 13.22625 -1.3125 12.3125 C-0.94548054 8.42209376 -1.73118159 7.08559304 -4 4 C-2.68 2.68 -1.36 1.36 0 0 Z " fill="#000000" transform="translate(518,231)"/>
<path d="M0 0 C2.97 0.33 5.94 0.66 9 1 C8.34 2.32 7.68 3.64 7 5 C5.02 5 3.04 5 1 5 C0.67 3.35 0.34 1.7 0 0 Z " fill="#DDDDDD" transform="translate(357,257)"/>
<path d="M0 0 C0.66 0.33 1.32 0.66 2 1 C1.525625 1.5775 1.05125 2.155 0.5625 2.75 C-1.11158836 4.86210493 -1.11158836 4.86210493 -1.5 7.1875 C-1.7475 8.0846875 -1.7475 8.0846875 -2 9 C-2.99 9.33 -3.98 9.66 -5 10 C-4.745504 8.51793505 -4.47088238 7.03931385 -4.1875 5.5625 C-4.03667969 4.73878906 -3.88585937 3.91507813 -3.73046875 3.06640625 C-3.48941406 2.38449219 -3.24835938 1.70257813 -3 1 C-2.01 0.67 -1.02 0.34 0 0 Z " fill="#050505" transform="translate(238,154)"/>
<path d="M0 0 C0.66 0 1.32 0 2 0 C4 4.75 4 4.75 4 7 C3.01 6.67 2.02 6.34 1 6 C1 5.01 1 4.02 1 3 C0.34 3 -0.32 3 -1 3 C-0.67 2.01 -0.34 1.02 0 0 Z " fill="#121212" transform="translate(442,236)"/>
<path d="M0 0 C1.32 0 2.64 0 4 0 C4 1.32 4 2.64 4 4 C2.35 4 0.7 4 -1 4 C-0.67 2.68 -0.34 1.36 0 0 Z " fill="#050505" transform="translate(223,192)"/>
<path d="M0 0 C0.33 0 0.66 0 1 0 C1 2.97 1 5.94 1 9 C0.01 9 -0.98 9 -2 9 C-1.125 1.125 -1.125 1.125 0 0 Z " fill="#000000" transform="translate(602,255)"/>
</svg>
