<?xml version="1.0" encoding="UTF-8"?>
<svg version="1.1" xmlns="http://www.w3.org/2000/svg" width="800" height="300">
<path d="M0 0 C264 0 528 0 800 0 C800 99 800 198 800 300 C536 300 272 300 0 300 C0 201 0 102 0 0 Z " fill="#FEFEFE" transform="translate(0,0)"/>
<path d="M0 0 C5.93965342 1.23275826 10.02457059 5.75560588 13.3125 10.6875 C13.3125 12.6675 13.3125 14.6475 13.3125 16.6875 C23.8725 16.3575 34.4325 16.0275 45.3125 15.6875 C45.3125 12.7175 45.3125 9.7475 45.3125 6.6875 C47.39358108 2.14695946 47.39358108 2.14695946 50.3125 0.6875 C55.16405606 -0.065492 58.31124646 -0.0276811 62.375 2.875 C65.77432674 7.68295187 64.68527948 14.10409181 64.3125 19.6875 C65.055 19.90148437 65.7975 20.11546875 66.5625 20.3359375 C73.33648203 23.66519571 77.07377326 33.42715337 79.6027832 40.30810547 C82.91553506 50.24761068 83.19525266 60.28446303 83.3125 70.6875 C84.9625 71.0175 86.6125 71.3475 88.3125 71.6875 C88.6425 72.6775 88.9725 73.6675 89.3125 74.6875 C99.31402518 81.50892858 113.59411654 80.99231594 125.1796875 81.28515625 C127.13311473 81.34506878 129.08654189 81.40498389 131.03996468 81.46504116 C133.74135763 81.54611649 136.44293069 81.6198861 139.14453125 81.69366455 C143.86383734 81.82380077 148.5828373 81.96443558 153.30178833 82.10679626 C155.80061081 82.18145358 158.29953054 82.25295584 160.79855347 82.3205719 C172.82007417 82.66840896 184.79519672 83.41730104 196.75 84.75 C197.58853516 84.84087891 198.42707031 84.93175781 199.29101562 85.02539062 C201.29847757 85.24334364 203.30553867 85.46498437 205.3125 85.6875 C205.60640625 84.74648437 205.9003125 83.80546875 206.203125 82.8359375 C207.42245929 79.37543244 208.3472319 77.82908251 211.3125 75.6875 C214.375 75.125 214.375 75.125 217.3125 75.6875 C219.80338536 78.5105034 220.2871968 80.24047679 220.5 84 C220.438125 84.886875 220.37625 85.77375 220.3125 86.6875 C221.075625 86.914375 221.83875 87.14125 222.625 87.375 C226.00138754 89.02393345 226.92115273 90.20913182 228.3125 93.6875 C228.3125 97.68056579 228.0288734 99.8290166 225.45043945 102.91894531 C220.67876266 105.60828062 216.44988951 104.8626403 211.10546875 104.421875 C210.02493729 104.34962708 208.94440582 104.27737915 207.83113098 104.20294189 C204.38566477 103.96792146 200.94322896 103.70312121 197.5 103.4375 C195.16224722 103.27277152 192.82435653 103.10998788 190.48632812 102.94921875 C184.75992798 102.55118595 179.03572776 102.12869346 173.3125 101.6875 C176.32881609 104.81651538 179.06224603 106.81742316 182.9375 108.8125 C188.11805556 111.49305556 188.11805556 111.49305556 190.3125 113.6875 C190.8814079 117.07100489 190.85022752 120.30141382 190.3125 123.6875 C188.12227082 126.51174288 186.48232793 128.10258603 183.3125 129.6875 C180.96307174 129.94380126 178.60739742 130.14462836 176.25 130.3125 C174.98027344 130.40789062 173.71054687 130.50328125 172.40234375 130.6015625 C171.38269531 130.62992188 170.36304688 130.65828125 169.3125 130.6875 C167.72382134 129.09882134 168.10455961 127.44060484 168.0625 125.25 C168.02382813 124.04537109 168.02382813 124.04537109 167.984375 122.81640625 C168.09265625 122.11386719 168.2009375 121.41132813 168.3125 120.6875 C169.3025 120.0275 170.2925 119.3675 171.3125 118.6875 C170.79300781 118.32398438 170.27351562 117.96046875 169.73828125 117.5859375 C165.23152997 114.33707798 161.45357209 111.30094963 158.3125 106.6875 C158 103.8125 158 103.8125 158.3125 101.6875 C155.60576049 103.57044922 154.91180045 105.50049185 154.3125 108.625 C154.03072686 110.74047904 154.03072686 110.74047904 154.3125 112.6875 C155.96635233 114.03669532 157.634202 115.36883728 159.3125 116.6875 C160.3171768 119.70153039 160.80560334 122.54050343 160.3125 125.6875 C158.81640625 127.9453125 158.81640625 127.9453125 156.3125 129.6875 C153.45007599 130.03286404 151.03051156 130.15913188 148.1875 130.0625 C147.09501953 130.06056641 147.09501953 130.06056641 145.98046875 130.05859375 C140.59398496 129.96898496 140.59398496 129.96898496 138.3125 127.6875 C138.1875 124.5625 138.1875 124.5625 138.3125 121.6875 C138.9725 121.6875 139.6325 121.6875 140.3125 121.6875 C140.15265625 121.13578125 139.9928125 120.5840625 139.828125 120.015625 C138.14922321 112.43512902 139.15157663 105.66787244 142.3125 98.6875 C139.46351837 95.83851837 130.71098953 96.85594097 126.625 96.625 C125.85137115 96.58014465 125.07774231 96.53528931 124.28067017 96.48907471 C97.00838097 94.96938855 69.61549404 95.51292109 42.3125 95.6875 C42.29960937 96.95980469 42.28671875 98.23210937 42.2734375 99.54296875 C42.26256104 100.61647583 42.26256104 100.61647583 42.25146484 101.71166992 C42.33136937 104.29833913 42.66573597 105.66647142 44.3125 107.6875 C46.30357248 108.70515927 48.30468823 109.70327854 50.3125 110.6875 C54.67770905 114.56768582 56.11997572 116.6980824 56.6875 122.5625 C56.66749567 126.18328291 56.36710426 126.62169487 53.875 129.625 C53.029375 130.305625 52.18375 130.98625 51.3125 131.6875 C50.9825 132.0175 50.6525 132.3475 50.3125 132.6875 C45.31490648 133.07193027 42.30625774 132.79375602 38.3125 129.6875 C36.14027713 127.73998984 35.38798683 126.44374074 35.09765625 123.53515625 C35.04518395 119.93788878 35.16665846 117.12502461 36.3125 113.6875 C35.2296875 113.378125 35.2296875 113.378125 34.125 113.0625 C30.40767256 111.24513992 28.64118516 109.08072695 26.3125 105.6875 C26.17578125 102.98828125 26.17578125 102.98828125 26.3125 100.6875 C19.55506971 105.21532131 13.447207 110.0676215 11.4375 118.25 C11.25133655 121.73110497 11.25133655 121.73110497 11.5625 125.375 C11.3125 128.6875 11.3125 128.6875 9.5 131.125 C4.91181413 133.37411072 0.33951173 133.55127446 -4.6875 132.6875 C-7.19826404 130.79060118 -7.66836801 129.74489598 -8.6875 126.6875 C-8.80409598 125.19073294 -8.86248959 123.68874939 -8.875 122.1875 C-8.88917969 121.4140625 -8.90335938 120.640625 -8.91796875 119.84375 C-8.6875 117.6875 -8.6875 117.6875 -6.6875 114.6875 C-5.91019531 114.43226563 -5.13289063 114.17703125 -4.33203125 113.9140625 C-0.66762785 112.21447215 0.71550427 109.45393833 2.625 106.0625 C2.98400391 105.45148438 3.34300781 104.84046875 3.71289062 104.2109375 C4.59207421 102.71046418 5.45403914 101.19992485 6.3125 99.6875 C5.47847656 99.67332031 4.64445312 99.65914063 3.78515625 99.64453125 C-3.99084931 99.314964 -9.31546501 98.17597748 -15.6875 93.6875 C-16.615625 93.089375 -17.54375 92.49125 -18.5 91.875 C-27.3504646 83.0245354 -27.98050858 67.97108735 -28.1875 56.0625 C-28.14410073 46.05745547 -26.39678797 36.14252821 -19.3125 28.5625 C-15.29532816 25.11297201 -11.15865292 21.89781089 -5.75 21.4375 C-5.069375 21.52 -4.38875 21.6025 -3.6875 21.6875 C-4.01105469 21.1615625 -4.33460938 20.635625 -4.66796875 20.09375 C-5.97153686 17.01712948 -5.98852749 14.5221766 -6 11.1875 C-6.01675781 10.0634375 -6.03351563 8.939375 -6.05078125 7.78125 C-5.53484482 3.38746878 -4.37560726 1.11934139 0 0 Z " fill="#F9F9F9" transform="translate(189.6875,154.3125)"/>
<path d="M0 0 C2.6875 -0.3125 2.6875 -0.3125 6 0 C6.65484375 0.82371094 7.3096875 1.64742187 7.984375 2.49609375 C12.5652212 6.2996202 16.79729447 5.57827168 22.5625 5.375 C23.56474609 5.36082031 24.56699219 5.34664062 25.59960938 5.33203125 C30.47519469 5.2414631 35.34076995 5.04623593 40.20825195 4.75537109 C54.45235002 3.91878154 68.67682983 3.84573931 82.94213867 3.86962891 C85.67653585 3.87416195 88.4108666 3.87421517 91.14526367 3.86962891 C100.43094505 3.85414611 109.7147567 3.89399703 119 4 C120.89718781 4.01987976 120.89718781 4.01987976 122.83270264 4.04016113 C126.4714204 4.08922994 130.10817747 4.16795371 133.74609375 4.2578125 C135.34216209 4.27822098 135.34216209 4.27822098 136.97047424 4.29904175 C147.76141846 4.63593906 157.23194941 7.126133 165.1015625 14.796875 C168.08119031 18.25471468 170.07594107 21.88307979 172 26 C172.5878125 27.06347656 172.5878125 27.06347656 173.1875 28.1484375 C176.97476175 35.43365628 176.77162077 42.60176161 175.375 50.5625 C169.6875 64.78125 169.6875 64.78125 163.4375 67.625 C157.70072769 69.69064707 152.18507829 70.14951793 146.12109375 70.1328125 C145.35992249 70.13413177 144.59875122 70.13545105 143.81451416 70.1368103 C141.35546728 70.1387179 138.89653518 70.13241583 136.4375 70.125 C135.60618561 70.12411377 134.77487122 70.12322754 133.91836548 70.12231445 C121.58858811 70.10680173 109.30284848 69.87542505 97 69 C97 68.34 97 67.68 97 67 C96.29617188 67.16242188 95.59234375 67.32484375 94.8671875 67.4921875 C87.40965184 68.81300444 79.59253259 68.08414043 72.08203125 67.5078125 C66.67319889 67.13155169 61.29977248 66.9117425 55.87890625 66.859375 C21.79509958 66.48121764 21.79509958 66.48121764 10.8125 58.25 C9.32421875 56.69140625 9.32421875 56.69140625 8 55 C7.51144531 54.41089844 7.02289063 53.82179688 6.51953125 53.21484375 C2.55488966 47.4511211 2.40935902 41.64162749 2.45166016 34.85229492 C2.47029608 32.43228376 2.47029608 32.43228376 2 29 C0.13377036 27.1371129 0.13377036 27.1371129 -2 26 C-3.20745835 22.37762495 -3.22246029 19.0229405 -3.25 15.25 C-3.270625 14.5590625 -3.29125 13.868125 -3.3125 13.15625 C-3.35088173 8.05147958 -2.27330153 4.57053254 0 0 Z " fill="#656565" transform="translate(428,216)"/>
<path d="M0 0 C2.6875 -0.3125 2.6875 -0.3125 6 0 C6.65484375 0.82371094 7.3096875 1.64742187 7.984375 2.49609375 C12.5652212 6.2996202 16.79729447 5.57827168 22.5625 5.375 C23.56474609 5.36082031 24.56699219 5.34664062 25.59960938 5.33203125 C30.47519469 5.2414631 35.34076995 5.04623593 40.20825195 4.75537109 C54.45235002 3.91878154 68.67682983 3.84573931 82.94213867 3.86962891 C85.67653585 3.87416195 88.4108666 3.87421517 91.14526367 3.86962891 C100.43094505 3.85414611 109.7147567 3.89399703 119 4 C120.89718781 4.01987976 120.89718781 4.01987976 122.83270264 4.04016113 C126.4714204 4.08922994 130.10817747 4.16795371 133.74609375 4.2578125 C135.34216209 4.27822098 135.34216209 4.27822098 136.97047424 4.29904175 C147.76141846 4.63593906 157.23194941 7.126133 165.1015625 14.796875 C168.08119031 18.25471468 170.07594107 21.88307979 172 26 C172.5878125 27.06347656 172.5878125 27.06347656 173.1875 28.1484375 C176.97476175 35.43365628 176.77162077 42.60176161 175.375 50.5625 C169.6875 64.78125 169.6875 64.78125 163.4375 67.625 C157.70072769 69.69064707 152.18507829 70.14951793 146.12109375 70.1328125 C145.35992249 70.13413177 144.59875122 70.13545105 143.81451416 70.1368103 C141.35546728 70.1387179 138.89653518 70.13241583 136.4375 70.125 C135.60618561 70.12411377 134.77487122 70.12322754 133.91836548 70.12231445 C121.58858811 70.10680173 109.30284848 69.87542505 97 69 C97 68.34 97 67.68 97 67 C96.29617188 67.16242188 95.59234375 67.32484375 94.8671875 67.4921875 C87.40965184 68.81300444 79.59253259 68.08414043 72.08203125 67.5078125 C66.67319889 67.13155169 61.29977248 66.9117425 55.87890625 66.859375 C21.79509958 66.48121764 21.79509958 66.48121764 10.8125 58.25 C9.32421875 56.69140625 9.32421875 56.69140625 8 55 C7.51144531 54.41089844 7.02289063 53.82179688 6.51953125 53.21484375 C2.55488966 47.4511211 2.40935902 41.64162749 2.45166016 34.85229492 C2.47029608 32.43228376 2.47029608 32.43228376 2 29 C0.13377036 27.1371129 0.13377036 27.1371129 -2 26 C-3.20745835 22.37762495 -3.22246029 19.0229405 -3.25 15.25 C-3.270625 14.5590625 -3.29125 13.868125 -3.3125 13.15625 C-3.35088173 8.05147958 -2.27330153 4.57053254 0 0 Z M3 3 C-0.71059486 9.13054803 -1.71075839 15.44620807 -0.3125 22.4375 C0.78058442 25.09159104 0.78058442 25.09159104 3 26.3125 C6.24734023 29.05244332 6.35310018 32.93985245 7 37 C9.97 34.525 9.97 34.525 13 32 C10.48971193 36.76954733 10.48971193 36.76954733 7.875 38 C5.77051528 38.85196017 5.77051528 38.85196017 5.20703125 41.23046875 C4.94006764 44.80173662 5.91479667 46.31261769 7.8125 49.3125 C8.35519531 50.19550781 8.89789063 51.07851563 9.45703125 51.98828125 C9.96621094 52.65214844 10.47539062 53.31601562 11 54 C11.66 54 12.32 54 13 54 C13.33 54.99 13.66 55.98 14 57 C16.36401089 58.26080581 18.47896761 59.14504119 21 60 C21.81339844 60.28230469 22.62679688 60.56460938 23.46484375 60.85546875 C33.75725957 63.93020167 46.48210319 64.63478627 57 62 C57.53394179 60.5882217 58.05165104 59.17029756 58.5625 57.75 C58.85253906 56.96109375 59.14257812 56.1721875 59.44140625 55.359375 C60.0610168 52.74227867 59.94248701 51.4926979 59 49 C58.34 48.01 57.68 47.02 57 46 C57.53625 45.443125 58.0725 44.88625 58.625 44.3125 C59.07875 43.549375 59.5325 42.78625 60 42 C59.26145768 39.36186139 59.26145768 39.36186139 58 37 C58 36.34 58 35.68 58 35 C58.99 35.33 59.98 35.66 61 36 C61.94002987 40.38680608 61.74651537 43.61422219 61 48 C61.185625 48.804375 61.37125 49.60875 61.5625 50.4375 C62.16494838 53.96612624 61.00559799 56.60610677 60 60 C60.33 60.99 60.66 61.98 61 63 C62.06927734 63.09087891 62.06927734 63.09087891 63.16015625 63.18359375 C71.41188054 63.9054808 71.41188054 63.9054808 75.5 64.5625 C82.43977973 65.42997247 89.12334905 65.23427068 96 64 C96.66 64.33 97.32 64.66 98 65 C100.56845219 65.03037021 103.120762 64.93311185 105.6875 64.83984375 C108 65 108 65 110 67 C112.52377655 67.27808217 112.52377655 67.27808217 115.4453125 67.1953125 C116.52167969 67.18886719 117.59804688 67.18242187 118.70703125 67.17578125 C119.83496094 67.15902344 120.96289062 67.14226562 122.125 67.125 C123.26066406 67.11597656 124.39632812 67.10695313 125.56640625 67.09765625 C128.37781299 67.07403098 131.18880298 67.04109013 134 67 C134 66.34 134 65.68 134 65 C134.99 64.67 135.98 64.34 137 64 C138.56028793 61.15102982 139.46843274 58.20059445 140 55 C139.01919106 52.38017854 139.01919106 52.38017854 137 51 C136.34 51 135.68 51 135 51 C135.66 50.236875 136.32 49.47375 137 48.6875 C139.29850538 46.15722061 139.29850538 46.15722061 139 43 C137.56249809 41.31201173 137.56249809 41.31201173 136 40 C137.32 40.33 138.64 40.66 140 41 C140.90594807 43.61718331 140.98235878 45.10143704 140.5 47.875 C139.82038781 50.94518924 139.82038781 50.94518924 140.5625 53.75 C141.18730226 58.39138818 140.07980006 62.48447249 139 67 C149.65771916 67.35857747 158.40464935 67.06190317 166.59375 59.53515625 C171.66979043 54.24761413 174.03554301 48.43102855 173.9765625 41.078125 C172.70835554 30.19972752 166.40917284 21.74595342 159 14 C158.01 13.67 157.02 13.34 156 13 C154.39819908 16.38766195 154.39819908 16.38766195 154.125 20.0625 C154.8950733 22.17907441 154.8950733 22.17907441 157.0625 23.5625 C160.20275922 27.5131487 159.47149501 32.13046134 159 37 C158.67 37.66 158.34 38.32 158 39 C157.01 39.33 156.02 39.66 155 40 C155.165 38.9275 155.33 37.855 155.5 36.75 C156.3352003 30.76189263 156.3352003 30.76189263 155 25 C152.50965614 23.70339566 152.50965614 23.70339566 150 23 C150.99 19.7 151.98 16.4 153 13 C146.68439027 7.21069108 141.08633074 7.22890562 132.75 7.1875 C130.97496094 7.14979492 130.97496094 7.14979492 129.1640625 7.11132812 C125.10889692 7.03050193 121.05589005 7 117 7 C116.97111854 10.31248187 116.95324201 13.62493167 116.9375 16.9375 C116.92493164 18.35579102 116.92493164 18.35579102 116.91210938 19.80273438 C116.90727539 21.15141602 116.90727539 21.15141602 116.90234375 22.52734375 C116.89448853 23.77632446 116.89448853 23.77632446 116.88647461 25.05053711 C116.78356708 27.00516798 116.78356708 27.00516798 118 28 C118.26293056 32.03160191 118.29404844 33.55892734 116 37 C113.875 37.6875 113.875 37.6875 112 38 C113.75 34.125 113.75 34.125 116 33 C115.89171875 31.86111328 115.89171875 31.86111328 115.78125 30.69921875 C115.6884375 29.70535156 115.595625 28.71148437 115.5 27.6875 C115.4071875 26.70136719 115.314375 25.71523437 115.21875 24.69921875 C115 22 115 22 115 19 C114.34 19 113.68 19 113 19 C113.556875 17.63875 113.556875 17.63875 114.125 16.25 C115.25131743 13.16467339 115.25131743 13.16467339 114.375 10.75 C112.21694327 8.00338235 109.96584178 7.12449559 106.52636719 6.68115234 C105.62563477 6.64973145 104.72490234 6.61831055 103.796875 6.5859375 C102.8171875 6.54726562 101.8375 6.50859375 100.828125 6.46875 C99.30445313 6.42234375 99.30445313 6.42234375 97.75 6.375 C96.203125 6.31699219 96.203125 6.31699219 94.625 6.2578125 C92.0835106 6.16368326 89.54202567 6.07805021 87 6 C87.495 6.99 87.495 6.99 88 8 C88.66 8 89.32 8 90 8 C90.67228569 12.48190462 91.12701027 15.63283522 90 20 C90.29235267 22.33882138 90.62599214 24.67284 91 27 C91 28.32 91 29.64 91 31 C90.01 30.01 90.01 30.01 89 29 C89.2784375 27.824375 89.2784375 27.824375 89.5625 26.625 C90.29178752 23.94859806 90.29178752 23.94859806 88.6875 21.6875 C88.130625 21.130625 87.57375 20.57375 87 20 C86.34 20 85.68 20 85 20 C85.680625 19.443125 86.36125 18.88625 87.0625 18.3125 C89.25510881 16.18317288 89.25510881 16.18317288 89.0625 13.5 C87.56544541 9.97751862 86.33969805 8.96356171 83 7 C79.03453696 6.4431461 75.1217931 6.53050618 71.125 6.625 C70.0119751 6.63789063 68.8989502 6.65078125 67.75219727 6.6640625 C59.38070792 6.81952868 51.23850267 7.4996548 43 9 C43.04253906 10.093125 43.08507812 11.18625 43.12890625 12.3125 C43 16 43 16 40.9375 19 C38.43457181 22.87550172 39.20915027 24.57124149 40 29 C39.125 32.1875 39.125 32.1875 38 35 C37.65023242 36.32911682 37.30903983 37.66082739 37 39 C35.79371992 36.66785852 34.8345262 34.50357861 34 32 C34.639375 31.7525 35.27875 31.505 35.9375 31.25 C38.12493715 30.18550582 38.12493715 30.18550582 38.875 28.125 C39.02904228 25.50628117 38.24534014 24.27091436 37 22 C37 21.01 37 20.02 37 19 C39 17.3125 39 17.3125 41 16 C40.81171228 13.55519921 40.81171228 13.55519921 40 11 C36.96969085 8.99095526 34.40823739 8.73084337 30.82421875 8.65625 C29.83099609 8.62660156 28.83777344 8.59695312 27.81445312 8.56640625 C26.26661133 8.53353516 26.26661133 8.53353516 24.6875 8.5 C8.56797015 8.15378142 8.56797015 8.15378142 4.0625 4.375 C3.711875 3.92125 3.36125 3.4675 3 3 Z " fill="#111111" transform="translate(428,216)"/>
<path d="M0 0 C4.9336705 1.02396935 7.90174677 4.08952165 11.3125 7.6875 C12.69476016 10.45202033 12.40775387 12.7336363 12.375 15.8125 C12.36597656 16.90820312 12.35695312 18.00390625 12.34765625 19.1328125 C12.33605469 19.97585937 12.32445312 20.81890625 12.3125 21.6875 C11.6525 21.6875 10.9925 21.6875 10.3125 21.6875 C10.23773438 20.87925781 10.16296875 20.07101563 10.0859375 19.23828125 C9.41824353 12.0809141 9.41824353 12.0809141 5.4375 6.4375 C2.32776886 4.36176442 2.32776886 4.36176442 -1.6875 4.6875 C-2.85093227 7.01436453 -2.88645988 8.53471413 -2.9375 11.125 C-2.96328125 11.90746094 -2.9890625 12.68992188 -3.015625 13.49609375 C-2.61573089 16.16681509 -1.74050878 17.00727439 0.3125 18.6875 C-0.125 21 -0.125 21 -1.6875 23.6875 C-3.89654888 24.69521353 -6.11132412 25.34491758 -8.44140625 26.0234375 C-14.44725965 27.79908111 -17.6528722 31.34734329 -20.6875 36.6875 C-27.55785885 49.84825234 -25.58953955 65.84569716 -21.6875 79.6875 C-19.26801405 86.41816501 -16.05855283 89.90385109 -9.66796875 93.28515625 C-4.84432916 95.29129102 0.09091987 95.25157703 5.25 95.375 C6.22001953 95.40916016 7.19003906 95.44332031 8.18945312 95.47851562 C10.56368637 95.56038574 12.93757877 95.62973078 15.3125 95.6875 C14.3125 98.6875 14.3125 98.6875 12.04296875 99.93359375 C8.41248539 102.26562097 6.80542273 105.09862769 4.625 108.75 C0.48925781 115.51074219 0.48925781 115.51074219 -1.6875 117.6875 C-3.0075 117.6875 -4.3275 117.6875 -5.6875 117.6875 C-5.85452456 122.03013862 -5.81749997 124.89710634 -3.6875 128.6875 C-2.2504191 128.74172947 -0.81274538 128.78039723 0.625 128.8125 C1.42550781 128.83570313 2.22601563 128.85890625 3.05078125 128.8828125 C5.59638576 128.84567322 5.59638576 128.84567322 8.3125 126.6875 C7.74624682 122.68131914 7.74624682 122.68131914 6.52734375 118.8515625 C6.08562038 114.40220349 10.1828637 110.93920297 12.82421875 107.60546875 C15.73226438 104.19524884 18.72317323 101.35145346 22.3125 98.6875 C23.075625 98.06875 23.83875 97.45 24.625 96.8125 C26.3125 95.6875 26.3125 95.6875 28.3125 95.6875 C28.37244141 96.64849609 28.37244141 96.64849609 28.43359375 97.62890625 C29.05402323 103.25694214 29.05402323 103.25694214 32.484375 107.5234375 C33.31453125 108.05195313 34.1446875 108.58046875 35 109.125 C37.46484375 110.76953125 37.46484375 110.76953125 39.3125 112.6875 C39.52461992 115.67882373 39.08126686 118.20914011 38.546875 121.15234375 C38.02923825 123.95257044 38.02923825 123.95257044 40.3125 126.875 C44.003973 129.10526494 46.06812478 129.31629633 50.3125 128.6875 C52.10129646 127.50291917 52.10129646 127.50291917 53.3125 125.6875 C53.73642254 122.53421315 53.30291013 119.70250541 52.3125 116.6875 C49.64583333 114.1875 49.64583333 114.1875 46.3125 112.6875 C41.63675068 110.24335831 41.63675068 110.24335831 40 107.4375 C38.8378442 102.78887682 38.84730614 98.26623083 40.3125 93.6875 C48.23075983 92.47405239 56.19266812 92.29043279 64.1875 92.0625 C64.94971863 92.04037445 65.71193726 92.0182489 66.49725342 91.99545288 C126.78017861 90.32853214 126.78017861 90.32853214 146.3125 95.6875 C145.84054966 98.80237222 145.10663095 101.12394238 143.75 104 C142.01742844 108.4444227 141.84759365 110.96095215 142.3125 115.6875 C143.65080958 118.1470774 143.65080958 118.1470774 145.3125 119.6875 C144.3225 121.6675 144.3225 121.6675 143.3125 123.6875 C142.3225 123.6875 141.3325 123.6875 140.3125 123.6875 C140.6425 124.3475 140.9725 125.0075 141.3125 125.6875 C145.9325 125.6875 150.5525 125.6875 155.3125 125.6875 C155.6425 124.0375 155.9725 122.3875 156.3125 120.6875 C157.3025 120.6875 158.2925 120.6875 159.3125 120.6875 C159.6725 126.0875 159.6725 126.0875 158.3046875 128.3671875 C155.17094358 130.44406092 151.87729099 130.08017885 148.25 130 C147.51716797 130.00322266 146.78433594 130.00644531 146.02929688 130.00976562 C140.57971939 129.95471939 140.57971939 129.95471939 138.3125 127.6875 C138.1875 124.5625 138.1875 124.5625 138.3125 121.6875 C138.9725 121.6875 139.6325 121.6875 140.3125 121.6875 C140.15265625 121.13578125 139.9928125 120.5840625 139.828125 120.015625 C138.14922321 112.43512902 139.15157663 105.66787244 142.3125 98.6875 C139.46351837 95.83851837 130.71098953 96.85594097 126.625 96.625 C125.85137115 96.58014465 125.07774231 96.53528931 124.28067017 96.48907471 C97.00838097 94.96938855 69.61549404 95.51292109 42.3125 95.6875 C42.29960937 96.95980469 42.28671875 98.23210937 42.2734375 99.54296875 C42.26256104 100.61647583 42.26256104 100.61647583 42.25146484 101.71166992 C42.33136937 104.29833913 42.66573597 105.66647142 44.3125 107.6875 C46.30357248 108.70515927 48.30468823 109.70327854 50.3125 110.6875 C54.67770905 114.56768582 56.11997572 116.6980824 56.6875 122.5625 C56.66749567 126.18328291 56.36710426 126.62169487 53.875 129.625 C53.029375 130.305625 52.18375 130.98625 51.3125 131.6875 C50.9825 132.0175 50.6525 132.3475 50.3125 132.6875 C45.31490648 133.07193027 42.30625774 132.79375602 38.3125 129.6875 C36.14027713 127.73998984 35.38798683 126.44374074 35.09765625 123.53515625 C35.04518395 119.93788878 35.16665846 117.12502461 36.3125 113.6875 C35.2296875 113.378125 35.2296875 113.378125 34.125 113.0625 C30.40767256 111.24513992 28.64118516 109.08072695 26.3125 105.6875 C26.17578125 102.98828125 26.17578125 102.98828125 26.3125 100.6875 C19.55506971 105.21532131 13.447207 110.0676215 11.4375 118.25 C11.25133655 121.73110497 11.25133655 121.73110497 11.5625 125.375 C11.3125 128.6875 11.3125 128.6875 9.5 131.125 C4.91181413 133.37411072 0.33951173 133.55127446 -4.6875 132.6875 C-7.19826404 130.79060118 -7.66836801 129.74489598 -8.6875 126.6875 C-8.80409598 125.19073294 -8.86248959 123.68874939 -8.875 122.1875 C-8.88917969 121.4140625 -8.90335938 120.640625 -8.91796875 119.84375 C-8.6875 117.6875 -8.6875 117.6875 -6.6875 114.6875 C-5.91019531 114.43226563 -5.13289063 114.17703125 -4.33203125 113.9140625 C-0.66762785 112.21447215 0.71550427 109.45393833 2.625 106.0625 C2.98400391 105.45148438 3.34300781 104.84046875 3.71289062 104.2109375 C4.59207421 102.71046418 5.45403914 101.19992485 6.3125 99.6875 C5.47847656 99.67332031 4.64445312 99.65914063 3.78515625 99.64453125 C-3.99084931 99.314964 -9.31546501 98.17597748 -15.6875 93.6875 C-16.615625 93.089375 -17.54375 92.49125 -18.5 91.875 C-27.3504646 83.0245354 -27.98050858 67.97108735 -28.1875 56.0625 C-28.14410073 46.05745547 -26.39678797 36.14252821 -19.3125 28.5625 C-15.29532816 25.11297201 -11.15865292 21.89781089 -5.75 21.4375 C-5.069375 21.52 -4.38875 21.6025 -3.6875 21.6875 C-4.01105469 21.1615625 -4.33460938 20.635625 -4.66796875 20.09375 C-5.97153686 17.01712948 -5.98852749 14.5221766 -6 11.1875 C-6.01675781 10.0634375 -6.03351563 8.939375 -6.05078125 7.78125 C-5.53484482 3.38746878 -4.37560726 1.11934139 0 0 Z " fill="#090909" transform="translate(189.6875,154.3125)"/>
<path d="M0 0 C3.81273536 2.7233824 3.81273536 2.7233824 5 6 C5.39375467 10.36756822 5.29186509 14.62850956 5 19 C5.7425 19.21398437 6.485 19.42796875 7.25 19.6484375 C14.02398203 22.97769571 17.76127326 32.73965337 20.2902832 39.62060547 C23.60303506 49.56011068 23.88275266 59.59696303 24 70 C25.65 70.33 27.3 70.66 29 71 C29.33 71.99 29.66 72.98 30 74 C40.00152518 80.82142858 54.28161654 80.30481594 65.8671875 80.59765625 C67.82061473 80.65756878 69.77404189 80.71748389 71.72746468 80.77754116 C74.42885763 80.85861649 77.13043069 80.9323861 79.83203125 81.00616455 C84.55133734 81.13630077 89.2703373 81.27693558 93.98928833 81.41929626 C96.48811081 81.49395358 98.98703054 81.56545584 101.48605347 81.6330719 C113.50757417 81.98090896 125.48269672 82.72980104 137.4375 84.0625 C138.27603516 84.15337891 139.11457031 84.24425781 139.97851562 84.33789062 C141.98597757 84.55584364 143.99303867 84.77748437 146 85 C146.29390625 84.05898437 146.5878125 83.11796875 146.890625 82.1484375 C148.10995929 78.68793244 149.0347319 77.14158251 152 75 C155.0625 74.4375 155.0625 74.4375 158 75 C160.49088536 77.8230034 160.9746968 79.55297679 161.1875 83.3125 C161.125625 84.199375 161.06375 85.08625 161 86 C161.763125 86.226875 162.52625 86.45375 163.3125 86.6875 C166.68888754 88.33643345 167.60865273 89.52163182 169 93 C169 96.99306579 168.7163734 99.1415166 166.13793945 102.23144531 C161.36626266 104.92078062 157.13738951 104.1751403 151.79296875 103.734375 C150.71243729 103.66212708 149.63190582 103.58987915 148.51863098 103.51544189 C145.07316477 103.28042146 141.63072896 103.01562121 138.1875 102.75 C135.84974722 102.58527152 133.51185653 102.42248788 131.17382812 102.26171875 C125.44742798 101.86368595 119.72322776 101.44119346 114 101 C117.01631609 104.12901538 119.74974603 106.12992316 123.625 108.125 C128.80555556 110.80555556 128.80555556 110.80555556 131 113 C131.5689079 116.38350489 131.53772752 119.61391382 131 123 C128.80977082 125.82424288 127.16982793 127.41508603 124 129 C121.65057174 129.25630126 119.29489742 129.45712836 116.9375 129.625 C115.66777344 129.72039062 114.39804687 129.81578125 113.08984375 129.9140625 C112.07019531 129.94242188 111.05054688 129.97078125 110 130 C108.41132134 128.41132134 108.79205961 126.75310484 108.75 124.5625 C108.71132813 123.35787109 108.71132813 123.35787109 108.671875 122.12890625 C108.78015625 121.42636719 108.8884375 120.72382813 109 120 C109.99 119.34 110.98 118.68 112 118 C111.48050781 117.63648438 110.96101562 117.27296875 110.42578125 116.8984375 C105.91902997 113.64957798 102.14107209 110.61344963 99 106 C98.6875 103.125 98.6875 103.125 99 101 C96.29326049 102.88294922 95.59930045 104.81299185 95 107.9375 C94.71321718 110.03457771 94.71321718 110.03457771 95 112 C97.32069965 114.42416001 97.32069965 114.42416001 100 116 C100 116.66 100 117.32 100 118 C97.44312331 117.65447612 95.42498625 117.24912987 93.1875 115.9375 C91.24513192 112.76837313 91.52545699 109.55582229 92 106 C92.68691783 103.21505408 93.49942778 101.53544961 95 99 C97.5457852 98.06861517 99.32862688 98 102 98 C101.938125 98.886875 101.87625 99.77375 101.8125 100.6875 C102.02827881 104.49959225 102.64784888 106.02060858 105 109 C109.17680818 112.32246105 112.90715207 113.7777165 118 115 C118 115.99 118 116.98 118 118 C116.34997172 119.35386936 114.6825613 120.68678142 113 122 C112.67 122.99 112.34 123.98 112 125 C116.6135246 126.53784153 120.43721569 126.74741859 124.875 124.625 C127.09664825 123.17239958 127.09664825 123.17239958 128 121 C128.039992 119.00039988 128.04346799 116.99952758 128 115 C127.01257813 114.44570313 126.02515625 113.89140625 125.0078125 113.3203125 C123.71344465 112.58871328 122.41917913 111.85693301 121.125 111.125 C120.47402344 110.76019531 119.82304687 110.39539063 119.15234375 110.01953125 C116.49606646 108.51339464 114.16980999 107.16980999 112 105 C111.59952556 102.67724823 111.2602896 100.34260643 111 98 C111.99 97.67 112.98 97.34 114 97 C114 97.66 114 98.32 114 99 C114.64960693 98.99476318 115.29921387 98.98952637 115.96850586 98.98413086 C118.95816043 98.96313497 121.94779941 98.9502687 124.9375 98.9375 C125.95908203 98.92912109 126.98066406 98.92074219 128.03320312 98.91210938 C133.39028109 98.89499411 138.58031799 99.09295273 143.89379883 99.76635742 C147.38596585 100.1537463 150.86459872 100.18414398 154.375 100.1875 C155.07238281 100.19974609 155.76976562 100.21199219 156.48828125 100.22460938 C160.22002299 100.23535335 161.81339615 100.12440257 165 98 C165.91828794 95.13128132 165.91828794 95.13128132 165 92 C162.53583176 89.93310507 159.86486546 88.44522231 157 87 C157.185625 86.071875 157.37125 85.14375 157.5625 84.1875 C158.24123881 80.98656229 158.24123881 80.98656229 157 78 C153.34683329 79.24976756 152.21934164 79.67098753 150 83 C149.61500109 84.65549531 149.27206865 86.3222433 149 88 C144.93724554 87.86076952 140.87487143 87.71246082 136.8125 87.5625 C135.66201172 87.52318359 134.51152344 87.48386719 133.32617188 87.44335938 C132.21435547 87.40146484 131.10253906 87.35957031 129.95703125 87.31640625 C128.93585205 87.27974854 127.91467285 87.24309082 126.86254883 87.20532227 C124 87 124 87 121.56201172 86.51147461 C118.38720891 85.87766368 115.28288763 85.69066214 112.05078125 85.5 C111.37300629 85.45975708 110.69523132 85.41951416 109.99691772 85.37805176 C107.76900128 85.24776757 105.54079704 85.12359165 103.3125 85 C102.5464444 84.95609131 101.78038879 84.91218262 100.99111938 84.86694336 C92.20252427 84.36536863 83.41736506 83.94802657 74.6171875 83.71875 C73.86223495 83.69893066 73.10728241 83.67911133 72.32945251 83.65869141 C68.73514678 83.56769079 65.14109467 83.48977774 61.54614258 83.4296875 C36.84280005 82.89520003 36.84280005 82.89520003 28 77 C27.30078125 74.8671875 27.30078125 74.8671875 27 73 C25.35 72.67 23.7 72.34 22 72 C21.96559814 71.44763672 21.93119629 70.89527344 21.89575195 70.32617188 C20.82291317 54.26519314 19.24214994 39.0654992 9 26 C8.34 25.01 7.68 24.02 7 23 C6.13632813 22.56558594 5.27265625 22.13117188 4.3828125 21.68359375 C3.20332031 20.85021484 3.20332031 20.85021484 2 20 C1.6171875 17.22265625 1.6171875 17.22265625 1.875 14.0625 C2.24480766 9.67201088 2.24480766 9.67201088 0.76953125 5.63671875 C-0.85990485 3.84005572 -0.85990485 3.84005572 -3.04296875 3.609375 C-3.75066406 3.65578125 -4.45835937 3.7021875 -5.1875 3.75 C-7.0746875 3.87375 -7.0746875 3.87375 -9 4 C-10.67110042 6.96178773 -11.32682752 9.37071192 -11.625 12.75 C-11.69976562 13.54921875 -11.77453125 14.3484375 -11.8515625 15.171875 C-11.90054688 15.77515625 -11.94953125 16.3784375 -12 17 C-23.4103669 18.91025574 -34.44969732 19.22379488 -46 19 C-45.505 17.515 -45.505 17.515 -45 16 C-29.655 15.505 -29.655 15.505 -14 15 C-14 12.03 -14 9.06 -14 6 C-11.0242256 -0.49259869 -6.72081336 -1.13558571 0 0 Z " fill="#090909" transform="translate(249,155)"/>
<path d="M0 0 C-0.47195034 3.11487222 -1.20586905 5.43644238 -2.5625 8.3125 C-4.29507156 12.7569227 -4.46490635 15.27345215 -4 20 C-2.66169042 22.4595774 -2.66169042 22.4595774 -1 24 C-1.66 25.32 -2.32 26.64 -3 28 C-3.99 28 -4.98 28 -6 28 C-5.67 28.66 -5.34 29.32 -5 30 C-0.38 30 4.24 30 9 30 C9.33 28.35 9.66 26.7 10 25 C10.99 25 11.98 25 13 25 C13.36 30.4 13.36 30.4 11.9921875 32.6796875 C8.85844358 34.75656092 5.56479099 34.39267885 1.9375 34.3125 C0.83825195 34.31733398 0.83825195 34.31733398 -0.28320312 34.32226562 C-5.73278061 34.26721939 -5.73278061 34.26721939 -8 32 C-8.125 28.875 -8.125 28.875 -8 26 C-7.34 26 -6.68 26 -6 26 C-6.15984375 25.44828125 -6.3196875 24.8965625 -6.484375 24.328125 C-8.16327679 16.74762902 -7.16092337 9.98037244 -4 3 C-6.88244351 0.11755649 -16.02055474 1.2218536 -20.1875 1 C-21.36727921 0.93513397 -21.36727921 0.93513397 -22.57089233 0.86895752 C-47.0223754 -0.45122804 -71.51930024 -0.66691232 -96 -1 C-95.67 -1.66 -95.34 -2.32 -95 -3 C-26.48406653 -7.21063638 -26.48406653 -7.21063638 0 0 Z " fill="#060606" transform="translate(336,250)"/>
<path d="M0 0 C-0.33 0.99 -0.66 1.98 -1 3 C-2.24716797 3.07347656 -2.24716797 3.07347656 -3.51953125 3.1484375 C-4.60621094 3.22320312 -5.69289062 3.29796875 -6.8125 3.375 C-7.89144531 3.44460937 -8.97039062 3.51421875 -10.08203125 3.5859375 C-13.18626186 3.81195733 -13.18626186 3.81195733 -16 6 C-17.03639388 9.6568216 -17.26766864 13.21440059 -17 17 C-14.6452137 20.56785803 -13.1574054 21.67986659 -9.0625 22.8125 C-6.0300876 22.9981579 -3.03718745 23.07231399 0 23 C-0.33 23.99 -0.66 24.98 -1 26 C-10.66634592 26.61919654 -10.66634592 26.61919654 -15.5 24.375 C-19.36425153 20.70396104 -20.84602283 17.75533971 -21.3125 12.4375 C-21.00706003 9.07766035 -20.69462762 6.90507592 -19 4 C-16.6875 2.3125 -16.6875 2.3125 -14 1 C-13.21625 0.608125 -12.4325 0.21625 -11.625 -0.1875 C-7.74558535 -1.3882712 -3.70899347 -1.85449674 0 0 Z " fill="#090909" transform="translate(209,196)"/>
<path d="M0 0 C0.928125 0.103125 1.85625 0.20625 2.8125 0.3125 C3.080625 0.910625 3.34875 1.50875 3.625 2.125 C4.67297309 4.36819277 4.67297309 4.36819277 6.5 5.75 C7.8125 7.3125 7.8125 7.3125 7.625 9.875 C6.8125 12.3125 6.8125 12.3125 4.8125 14.3125 C2.5 14.75 2.5 14.75 -0.1875 14.3125 C-2.79792301 12.17669936 -4.67331128 10.34087744 -6.1875 7.3125 C-6.1875 2.7744151 -4.47892363 0.43911016 0 0 Z " fill="#C4C4C4" transform="translate(439.1875,232.6875)"/>
<path d="M0 0 C0.33 0 0.66 0 1 0 C1.12117188 0.67546875 1.24234375 1.3509375 1.3671875 2.046875 C1.53476562 2.93890625 1.70234375 3.8309375 1.875 4.75 C2.03742188 5.63171875 2.19984375 6.5134375 2.3671875 7.421875 C2.96796264 9.86947744 3.77997117 11.80599857 5 14 C4.34 14.66 3.68 15.32 3 16 C2.01 16 1.02 16 0 16 C0.33 16.66 0.66 17.32 1 18 C5.62 18 10.24 18 15 18 C15.33 16.35 15.66 14.7 16 13 C16.99 13 17.98 13 19 13 C19.36 18.4 19.36 18.4 17.9921875 20.6796875 C14.85844358 22.75656092 11.56479099 22.39267885 7.9375 22.3125 C6.83825195 22.31733398 6.83825195 22.31733398 5.71679688 22.32226562 C0.26721939 22.26721939 0.26721939 22.26721939 -2 20 C-2.125 16.875 -2.125 16.875 -2 14 C-1.34 14 -0.68 14 0 14 C-0.16242188 13.43667969 -0.32484375 12.87335938 -0.4921875 12.29296875 C-1.02313617 9.89553131 -1.13310671 7.76477875 -1.125 5.3125 C-1.12757813 4.52488281 -1.13015625 3.73726563 -1.1328125 2.92578125 C-1 1 -1 1 0 0 Z " fill="#0D0D0D" transform="translate(330,262)"/>
<path d="M0 0 C-0.33 0.99 -0.66 1.98 -1 3 C-4.79165074 3.0289337 -8.58327327 3.04677601 -12.375 3.0625 C-13.45523438 3.07087891 -14.53546875 3.07925781 -15.6484375 3.08789062 C-17.1953125 3.09272461 -17.1953125 3.09272461 -18.7734375 3.09765625 C-19.72653809 3.10289307 -20.67963867 3.10812988 -21.66162109 3.11352539 C-24 3 -24 3 -26 2 C-26 1.34 -26 0.68 -26 0 C-22.22958744 -0.19670554 -18.45866237 -0.38078426 -14.6875 -0.5625 C-13.61564453 -0.61857422 -12.54378906 -0.67464844 -11.43945312 -0.73242188 C-9.89741211 -0.80493164 -9.89741211 -0.80493164 -8.32421875 -0.87890625 C-7.37635498 -0.9260376 -6.42849121 -0.97316895 -5.4519043 -1.02172852 C-3 -1 -3 -1 0 0 Z " fill="#020202" transform="translate(218,229)"/>
<path d="M0 0 C0.66 0.33 1.32 0.66 2 1 C1.319375 1.845625 0.63875 2.69125 -0.0625 3.5625 C-2.43065395 7.76406347 -1.82658451 9.37112672 -1 14 C-1.875 17.1875 -1.875 17.1875 -3 20 C-3.34976758 21.32911682 -3.69096017 22.66082739 -4 24 C-4.99 24 -5.98 24 -7 24 C-7 23.01 -7 22.02 -7 21 C-7.66 20.34 -8.32 19.68 -9 19 C-8.13375 18.154375 -7.2675 17.30875 -6.375 16.4375 C-4.93020894 14.85540789 -4.93020894 14.85540789 -4 13 C-4.53219091 9.17352608 -4.53219091 9.17352608 -6 6 C-4.02 4.02 -2.04 2.04 0 0 Z " fill="#000000" transform="translate(470,231)"/>
<path d="M0 0 C1.65 0.33 3.3 0.66 5 1 C5.90594807 3.61718331 5.98235878 5.10143704 5.5 7.875 C4.96376636 11.22646028 5.41081278 13.68582189 6 17 C5.67 17.99 5.34 18.98 5 20 C4.01 19.67 3.02 19.34 2 19 C2.2475 18.4225 2.495 17.845 2.75 17.25 C2.8325 16.5075 2.915 15.765 3 15 C1.14567913 12.72855926 1.14567913 12.72855926 -1 11 C0.33333333 8.33333333 1.66666667 5.66666667 3 3 C2.01 2.67 1.02 2.34 0 2 C0 1.34 0 0.68 0 0 Z " fill="#000000" transform="translate(564,256)"/>
<path d="M0 0 C1.9906444 0.14986411 3.98535391 0.24828038 5.98046875 0.31640625 C7.14384766 0.35830078 8.30722656 0.40019531 9.50585938 0.44335938 C10.72080078 0.48267578 11.93574219 0.52199219 13.1875 0.5625 C14.41404297 0.60568359 15.64058594 0.64886719 16.90429688 0.69335938 C19.93608381 0.7995309 22.96795315 0.90157952 26 1 C26 1.33 26 1.66 26 2 C14.45 2 2.9 2 -9 2 C-9 2.99 -9 3.98 -9 5 C-9.99 5.33 -10.98 5.66 -12 6 C-11.67 4.02 -11.34 2.04 -11 0 C-3.375 -1.125 -3.375 -1.125 0 0 Z " fill="#303030" transform="translate(241,248)"/>
<path d="M0 0 C0.66 0 1.32 0 2 0 C2.66 1.32 3.32 2.64 4 4 C5.65 2.68 7.3 1.36 9 0 C9.33 0.66 9.66 1.32 10 2 C9.04270084 3.12588014 8.08412105 4.2506715 7.125 5.375 C6.59132813 6.00148437 6.05765625 6.62796875 5.5078125 7.2734375 C3.76939315 9.26406276 2.38112443 10.80943778 0 12 C0 8.04 0 4.08 0 0 Z " fill="#000000" transform="translate(432,247)"/>
<path d="M0 0 C0.66 0.33 1.32 0.66 2 1 C1.67 1.99 1.34 2.98 1 4 C-5.435 4.495 -5.435 4.495 -12 5 C-11 2 -11 2 -9.375 0.8125 C-6.16446216 -0.28584189 -3.36837637 -0.18713202 0 0 Z " fill="#161616" transform="translate(207,195)"/>
<path d="M0 0 C0.66 0.33 1.32 0.66 2 1 C1.814375 1.515625 1.62875 2.03125 1.4375 2.5625 C0.83752918 5.1713937 0.83752918 5.1713937 1.5 8.5 C1.93772143 11.56405002 2.02210188 13.16082812 1 16 C0.01 15.67 -0.98 15.34 -2 15 C-1.773125 14.113125 -1.54625 13.22625 -1.3125 12.3125 C-0.94548054 8.42209376 -1.73118159 7.08559304 -4 4 C-2.68 2.68 -1.36 1.36 0 0 Z " fill="#000000" transform="translate(518,231)"/>
<path d="M0 0 C3.96 0 7.92 0 12 0 C11.67 0.99 11.34 1.98 11 3 C7.04 3 3.08 3 -1 3 C-0.67 2.01 -0.34 1.02 0 0 Z " fill="#1F1F1F" transform="translate(204,171)"/>
<path d="M0 0 C1.9375 0.3125 1.9375 0.3125 4 1 C4.33 1.99 4.66 2.98 5 4 C3.68 4.33 2.36 4.66 1 5 C0.67 3.35 0.34 1.7 0 0 Z " fill="#101010" transform="translate(225,191)"/>
<path d="M0 0 C0.33 0 0.66 0 1 0 C1 2.97 1 5.94 1 9 C0.01 9 -0.98 9 -2 9 C-1.125 1.125 -1.125 1.125 0 0 Z " fill="#000000" transform="translate(602,255)"/>
<path d="M0 0 C2.475 0.495 2.475 0.495 5 1 C4.67 1.99 4.34 2.98 4 4 C2.68 4 1.36 4 0 4 C0 2.68 0 1.36 0 0 Z " fill="#080808" transform="translate(178,193)"/>
</svg>
