<?xml version="1.0" encoding="UTF-8"?>
<svg version="1.1" xmlns="http://www.w3.org/2000/svg" width="800" height="300">
<path d="M0 0 C264 0 528 0 800 0 C800 99 800 198 800 300 C536 300 272 300 0 300 C0 201 0 102 0 0 Z " fill="#FEFEFE" transform="translate(0,0)"/>
<path d="M0 0 C5.93965342 1.23275826 10.02457059 5.75560588 13.3125 10.6875 C13.3125 12.6675 13.3125 14.6475 13.3125 16.6875 C23.8725 16.3575 34.4325 16.0275 45.3125 15.6875 C45.3125 12.7175 45.3125 9.7475 45.3125 6.6875 C47.39358108 2.14695946 47.39358108 2.14695946 50.3125 0.6875 C55.16405606 -0.065492 58.31124646 -0.0276811 62.375 2.875 C65.77432674 7.68295187 64.68527948 14.10409181 64.3125 19.6875 C65.055 19.90148437 65.7975 20.11546875 66.5625 20.3359375 C73.33648203 23.66519571 77.07377326 33.42715337 79.6027832 40.30810547 C82.91553506 50.24761068 83.19525266 60.28446303 83.3125 70.6875 C84.9625 71.0175 86.6125 71.3475 88.3125 71.6875 C88.6425 72.6775 88.9725 73.6675 89.3125 74.6875 C99.31402518 81.50892858 113.59411654 80.99231594 125.1796875 81.28515625 C127.13311473 81.34506878 129.08654189 81.40498389 131.03996468 81.46504116 C133.74135763 81.54611649 136.44293069 81.6198861 139.14453125 81.69366455 C143.86383734 81.82380077 148.5828373 81.96443558 153.30178833 82.10679626 C155.80061081 82.18145358 158.29953054 82.25295584 160.79855347 82.3205719 C172.82007417 82.66840896 184.79519672 83.41730104 196.75 84.75 C197.58853516 84.84087891 198.42707031 84.93175781 199.29101562 85.02539062 C201.29847757 85.24334364 203.30553867 85.46498437 205.3125 85.6875 C205.60640625 84.74648437 205.9003125 83.80546875 206.203125 82.8359375 C207.42245929 79.37543244 208.3472319 77.82908251 211.3125 75.6875 C214.375 75.125 214.375 75.125 217.3125 75.6875 C219.80338536 78.5105034 220.2871968 80.24047679 220.5 84 C220.438125 84.886875 220.37625 85.77375 220.3125 86.6875 C221.075625 86.914375 221.83875 87.14125 222.625 87.375 C226.00138754 89.02393345 226.92115273 90.20913182 228.3125 93.6875 C228.3125 97.68056579 228.0288734 99.8290166 225.45043945 102.91894531 C220.67876266 105.60828062 216.44988951 104.8626403 211.10546875 104.421875 C210.02493729 104.34962708 208.94440582 104.27737915 207.83113098 104.20294189 C204.38566477 103.96792146 200.94322896 103.70312121 197.5 103.4375 C195.16224722 103.27277152 192.82435653 103.10998788 190.48632812 102.94921875 C184.75992798 102.55118595 179.03572776 102.12869346 173.3125 101.6875 C176.32881609 104.81651538 179.06224603 106.81742316 182.9375 108.8125 C188.11805556 111.49305556 188.11805556 111.49305556 190.3125 113.6875 C190.8814079 117.07100489 190.85022752 120.30141382 190.3125 123.6875 C188.12227082 126.51174288 186.48232793 128.10258603 183.3125 129.6875 C180.96307174 129.94380126 178.60739742 130.14462836 176.25 130.3125 C174.98027344 130.40789062 173.71054687 130.50328125 172.40234375 130.6015625 C171.38269531 130.62992188 170.36304688 130.65828125 169.3125 130.6875 C167.72382134 129.09882134 168.10455961 127.44060484 168.0625 125.25 C168.02382813 124.04537109 168.02382813 124.04537109 167.984375 122.81640625 C168.09265625 122.11386719 168.2009375 121.41132813 168.3125 120.6875 C169.3025 120.0275 170.2925 119.3675 171.3125 118.6875 C170.79300781 118.32398438 170.27351562 117.96046875 169.73828125 117.5859375 C165.23152997 114.33707798 161.45357209 111.30094963 158.3125 106.6875 C158 103.8125 158 103.8125 158.3125 101.6875 C155.60576049 103.57044922 154.91180045 105.50049185 154.3125 108.625 C154.03072686 110.74047904 154.03072686 110.74047904 154.3125 112.6875 C155.96635233 114.03669532 157.634202 115.36883728 159.3125 116.6875 C160.3171768 119.70153039 160.80560334 122.54050343 160.3125 125.6875 C158.81640625 127.9453125 158.81640625 127.9453125 156.3125 129.6875 C153.45007599 130.03286404 151.03051156 130.15913188 148.1875 130.0625 C147.09501953 130.06056641 147.09501953 130.06056641 145.98046875 130.05859375 C140.59398496 129.96898496 140.59398496 129.96898496 138.3125 127.6875 C138.1875 124.5625 138.1875 124.5625 138.3125 121.6875 C138.9725 121.6875 139.6325 121.6875 140.3125 121.6875 C140.15265625 121.13578125 139.9928125 120.5840625 139.828125 120.015625 C138.14922321 112.43512902 139.15157663 105.66787244 142.3125 98.6875 C139.46351837 95.83851837 130.71098953 96.85594097 126.625 96.625 C125.85137115 96.58014465 125.07774231 96.53528931 124.28067017 96.48907471 C97.00838097 94.96938855 69.61549404 95.51292109 42.3125 95.6875 C42.29960937 96.95980469 42.28671875 98.23210937 42.2734375 99.54296875 C42.26256104 100.61647583 42.26256104 100.61647583 42.25146484 101.71166992 C42.33136937 104.29833913 42.66573597 105.66647142 44.3125 107.6875 C46.30357248 108.70515927 48.30468823 109.70327854 50.3125 110.6875 C54.67770905 114.56768582 56.11997572 116.6980824 56.6875 122.5625 C56.66749567 126.18328291 56.36710426 126.62169487 53.875 129.625 C53.029375 130.305625 52.18375 130.98625 51.3125 131.6875 C50.9825 132.0175 50.6525 132.3475 50.3125 132.6875 C45.31490648 133.07193027 42.30625774 132.79375602 38.3125 129.6875 C36.14027713 127.73998984 35.38798683 126.44374074 35.09765625 123.53515625 C35.04518395 119.93788878 35.16665846 117.12502461 36.3125 113.6875 C35.2296875 113.378125 35.2296875 113.378125 34.125 113.0625 C30.40767256 111.24513992 28.64118516 109.08072695 26.3125 105.6875 C26.17578125 102.98828125 26.17578125 102.98828125 26.3125 100.6875 C19.55506971 105.21532131 13.447207 110.0676215 11.4375 118.25 C11.25133655 121.73110497 11.25133655 121.73110497 11.5625 125.375 C11.3125 128.6875 11.3125 128.6875 9.5 131.125 C4.91181413 133.37411072 0.33951173 133.55127446 -4.6875 132.6875 C-7.19826404 130.79060118 -7.66836801 129.74489598 -8.6875 126.6875 C-8.80409598 125.19073294 -8.86248959 123.68874939 -8.875 122.1875 C-8.88917969 121.4140625 -8.90335938 120.640625 -8.91796875 119.84375 C-8.6875 117.6875 -8.6875 117.6875 -6.6875 114.6875 C-5.91019531 114.43226563 -5.13289063 114.17703125 -4.33203125 113.9140625 C-0.66762785 112.21447215 0.71550427 109.45393833 2.625 106.0625 C2.98400391 105.45148438 3.34300781 104.84046875 3.71289062 104.2109375 C4.59207421 102.71046418 5.45403914 101.19992485 6.3125 99.6875 C5.47847656 99.67332031 4.64445312 99.65914063 3.78515625 99.64453125 C-3.99084931 99.314964 -9.31546501 98.17597748 -15.6875 93.6875 C-16.615625 93.089375 -17.54375 92.49125 -18.5 91.875 C-27.3504646 83.0245354 -27.98050858 67.97108735 -28.1875 56.0625 C-28.14410073 46.05745547 -26.39678797 36.14252821 -19.3125 28.5625 C-15.29532816 25.11297201 -11.15865292 21.89781089 -5.75 21.4375 C-5.069375 21.52 -4.38875 21.6025 -3.6875 21.6875 C-4.01105469 21.1615625 -4.33460938 20.635625 -4.66796875 20.09375 C-5.97153686 17.01712948 -5.98852749 14.5221766 -6 11.1875 C-6.01675781 10.0634375 -6.03351563 8.939375 -6.05078125 7.78125 C-5.53484482 3.38746878 -4.37560726 1.11934139 0 0 Z " fill="#F9F9F9" transform="translate(189.6875,154.3125)"/>
<path d="M0 0 C2.8125 -0.1875 2.8125 -0.1875 6 0 C7 1 8 2 9 3 C15.47083003 5.07525149 21.41141432 5.24994212 28.16796875 5.16015625 C29.2571611 5.15463745 30.34635345 5.14911865 31.46855164 5.14343262 C33.8178252 5.13109227 36.16707948 5.11448167 38.51629639 5.09402466 C44.77770738 5.04025787 51.03917966 5.01861565 57.30078125 5 C59.23244141 4.9937838 59.23244141 4.9937838 61.203125 4.98744202 C77.41229646 4.95866797 93.61370822 5.33435472 109.81713867 5.73266602 C110.89429642 5.75735962 111.97145416 5.78205322 113.08125305 5.80749512 C115.09527242 5.85391321 117.10919602 5.90477372 119.12297058 5.96081543 C120.44631157 5.99096741 120.44631157 5.99096741 121.79638672 6.02172852 C122.56457733 6.04171402 123.33276794 6.06169952 124.12423706 6.08229065 C126.0924287 6.12361173 126.0924287 6.12361173 128 5 C131.03566911 4.76089183 134.08095166 4.81479913 137.125 4.8125 C138.37023437 4.79413086 138.37023437 4.79413086 139.640625 4.77539062 C146.3283327 4.75966717 153.1906553 5.34226445 159 9 C159.42667969 9.46148437 159.85335937 9.92296875 160.29296875 10.3984375 C162.9975484 12.93591497 166.33120593 14.35011728 169.625 16.01171875 C174.01917804 19.69039741 174.99427916 24.83672162 175.6171875 30.3671875 C175.72209306 31.86858663 175.80765993 33.37144759 175.875 34.875 C175.91254395 35.66366455 175.95008789 36.4523291 175.98876953 37.26489258 C176.27663329 46.52514559 174.29214193 54.04285919 168 61 C162.69554711 66.38085279 158.19286413 67.70523678 150.71362305 67.88330078 C149.57062744 67.88056152 148.42763184 67.87782227 147.25 67.875 C146.0535083 67.8941748 144.8570166 67.91334961 143.62426758 67.93310547 C140.0824586 67.98283335 136.54211111 67.99384427 133 68 C131.18616451 68.02360067 129.37235524 68.04939485 127.55859375 68.078125 C114.02532285 68.24209193 100.1544274 68.25064747 86.72265625 66.47265625 C78.59603524 65.44083973 70.49840803 65.91088485 62.375 66.78125 C56.14473547 67.35509015 49.86288457 66.66520367 43.63769531 66.25537109 C41.63908688 66.12591247 39.63984991 66.00628024 37.640625 65.88671875 C36.36960937 65.80292969 35.09859375 65.71914063 33.7890625 65.6328125 C32.63100098 65.55949707 31.47293945 65.48618164 30.27978516 65.41064453 C26.94747647 64.99342381 24.14301003 64.16096136 21 63 C19.865625 62.62875 18.73125 62.2575 17.5625 61.875 C10.70420537 58.84035636 6.45523899 52.07424207 3.69140625 45.35546875 C2.95117812 42.83367463 2.71897532 40.55745849 2.5625 37.9375 C2.27383191 33.27551038 0.83709453 30.65071581 -1.7890625 26.86328125 C-4.96470506 21.97688932 -6.0453083 15.71367548 -5 10 C-3.57222581 6.52259876 -1.86966857 3.25856521 0 0 Z " fill="#646464" transform="translate(429,216)"/>
<path d="M0 0 C2.8125 -0.1875 2.8125 -0.1875 6 0 C7 1 8 2 9 3 C15.47083003 5.07525149 21.41141432 5.24994212 28.16796875 5.16015625 C29.2571611 5.15463745 30.34635345 5.14911865 31.46855164 5.14343262 C33.8178252 5.13109227 36.16707948 5.11448167 38.51629639 5.09402466 C44.77770738 5.04025787 51.03917966 5.01861565 57.30078125 5 C59.23244141 4.9937838 59.23244141 4.9937838 61.203125 4.98744202 C77.41229646 4.95866797 93.61370822 5.33435472 109.81713867 5.73266602 C110.89429642 5.75735962 111.97145416 5.78205322 113.08125305 5.80749512 C115.09527242 5.85391321 117.10919602 5.90477372 119.12297058 5.96081543 C120.44631157 5.99096741 120.44631157 5.99096741 121.79638672 6.02172852 C122.56457733 6.04171402 123.33276794 6.06169952 124.12423706 6.08229065 C126.0924287 6.12361173 126.0924287 6.12361173 128 5 C131.03566911 4.76089183 134.08095166 4.81479913 137.125 4.8125 C138.37023437 4.79413086 138.37023437 4.79413086 139.640625 4.77539062 C146.3283327 4.75966717 153.1906553 5.34226445 159 9 C159.42667969 9.46148437 159.85335937 9.92296875 160.29296875 10.3984375 C162.9975484 12.93591497 166.33120593 14.35011728 169.625 16.01171875 C174.01917804 19.69039741 174.99427916 24.83672162 175.6171875 30.3671875 C175.72209306 31.86858663 175.80765993 33.37144759 175.875 34.875 C175.91254395 35.66366455 175.95008789 36.4523291 175.98876953 37.26489258 C176.27663329 46.52514559 174.29214193 54.04285919 168 61 C162.69554711 66.38085279 158.19286413 67.70523678 150.71362305 67.88330078 C149.57062744 67.88056152 148.42763184 67.87782227 147.25 67.875 C146.0535083 67.8941748 144.8570166 67.91334961 143.62426758 67.93310547 C140.0824586 67.98283335 136.54211111 67.99384427 133 68 C131.18616451 68.02360067 129.37235524 68.04939485 127.55859375 68.078125 C114.02532285 68.24209193 100.1544274 68.25064747 86.72265625 66.47265625 C78.59603524 65.44083973 70.49840803 65.91088485 62.375 66.78125 C56.14473547 67.35509015 49.86288457 66.66520367 43.63769531 66.25537109 C41.63908688 66.12591247 39.63984991 66.00628024 37.640625 65.88671875 C36.36960937 65.80292969 35.09859375 65.71914063 33.7890625 65.6328125 C32.63100098 65.55949707 31.47293945 65.48618164 30.27978516 65.41064453 C26.94747647 64.99342381 24.14301003 64.16096136 21 63 C19.865625 62.62875 18.73125 62.2575 17.5625 61.875 C10.70420537 58.84035636 6.45523899 52.07424207 3.69140625 45.35546875 C2.95117812 42.83367463 2.71897532 40.55745849 2.5625 37.9375 C2.27383191 33.27551038 0.83709453 30.65071581 -1.7890625 26.86328125 C-4.96470506 21.97688932 -6.0453083 15.71367548 -5 10 C-3.57222581 6.52259876 -1.86966857 3.25856521 0 0 Z M2 3 C-1.20056327 7.39571031 -3.17210159 11.0337393 -2.6875 16.5703125 C-0.75050496 24.17301803 1.40130732 28.68547017 8 33 C8.309375 32.05125 8.61875 31.1025 8.9375 30.125 C10 27 10 27 11 25 C10.67 24.34 10.34 23.68 10 23 C12.31 23.33 14.62 23.66 17 24 C17 24.66 17 25.32 17 26 C16.401875 26.185625 15.80375 26.37125 15.1875 26.5625 C11.99950687 28.65746692 11.45644444 31.54094446 10 35 C7.8125 36.9375 7.8125 36.9375 6 38 C6.43386428 44.79720708 8.71901136 50.62717707 13.53515625 55.578125 C25.47522139 64.94952365 42.73368679 63.15052382 57 63 C56.98710937 61.8965625 56.97421875 60.793125 56.9609375 59.65625 C57 56 57 56 57.625 53.5 C58.20619921 50.81449175 58.20619921 50.81449175 57 47.5625 C55.9369034 43.77521835 56.32627014 41.78973046 57 38 C56.17657468 35.68019054 56.17657468 35.68019054 55 34 C57.92512762 36.43505389 57.92512762 36.43505389 58.2578125 38.9453125 C58.21398437 39.66460937 58.17015625 40.38390625 58.125 41.125 C57.96429211 45.84675096 58.3919686 50.32341282 59 55 C59.17893286 56.42571265 59.3572786 57.85149906 59.53515625 59.27734375 C59.68855469 60.50582031 59.84195313 61.73429687 60 63 C61.31613281 62.90460938 62.63226563 62.80921875 63.98828125 62.7109375 C80.13303317 61.64939006 80.13303317 61.64939006 87.84765625 63.453125 C102.6439952 66.02002395 120.17962869 66.37125941 135 64 C137.44251927 57.47348346 138.25867587 53.77602761 136 47 C136.9375 44.1875 136.9375 44.1875 138 42 C137.67 41.34 137.34 40.68 137 40 C136.01 40 135.02 40 134 40 C134 39.01 134 38.02 134 37 C135.9375 37.625 135.9375 37.625 138 39 C139.0723094 42.79432556 138.93231135 45.27075458 138 49 C138.165 49.886875 138.33 50.77375 138.5 51.6875 C139.14190299 55.94010731 138.61116813 59.76883603 138 64 C142.67661056 64.08468711 147.17531996 64.1216741 151.8125 63.4375 C155 63 155 63 157.5 63.8125 C160.60164164 64.04512312 161.18668047 63.41175287 163.5625 61.5 C166.91032743 58.34098713 169.11705826 55.18047615 171 51 C171.32226562 50.35546875 171.64453125 49.7109375 171.9765625 49.046875 C175.54148085 40.6770667 173.41424912 31.35760137 170.5625 23 C167.88947491 17.47850029 162.37709586 15.36406801 157 13 C155.91599105 18.7175801 155.91599105 18.7175801 157.25 24.25 C158.42159507 30.10797537 155.88541581 34.90217422 153 40 C152.01 40.66 151.02 41.32 150 42 C150.52851562 41.04738281 151.05703125 40.09476562 151.6015625 39.11328125 C152.27698801 37.84685843 152.95141527 36.57990285 153.625 35.3125 C153.975625 34.68666016 154.32625 34.06082031 154.6875 33.41601562 C156.32195389 30.29420869 157.16831634 28.6373228 156.25 25.16015625 C155.63125 24.09087891 155.63125 24.09087891 155 23 C154.07556986 20.22670957 154.0267192 18.50124151 154.1875 15.5 C154.2816013 12.06955642 154.2816013 12.06955642 152.65625 9.80078125 C148.45579586 6.95312043 144.2592073 7.53860246 139.3125 7.6875 C138.33732422 7.69716797 137.36214844 7.70683594 136.35742188 7.71679688 C131.83867632 7.38617701 131.83867632 7.38617701 128 9 C125.98035801 9.07244053 123.95832876 9.08377188 121.9375 9.0625 C120.83277344 9.05347656 119.72804688 9.04445312 118.58984375 9.03515625 C117.73519531 9.02355469 116.88054687 9.01195312 116 9 C116.01160156 9.61746094 116.02320313 10.23492187 116.03515625 10.87109375 C116.08894661 15.91970297 115.92444046 20.82368002 115.27734375 25.83203125 C115.0915947 27.28401325 114.9381839 28.74047797 114.81640625 30.19921875 C114.44335142 34.31804865 113.90156943 36.97227538 111 40 C111 37.59411466 111.70979414 35.99839035 112.5625 33.75 C113.96505902 29.6916695 113.84584573 27.22922865 113 23 C113.350625 22.01 113.70125 21.02 114.0625 20 C115.41997215 15.65608912 113.96348052 12.92696104 112 9 C104.74 9 97.48 9 90 9 C88.53691078 15.88512576 87.86947155 21.09121505 89 28 C88.67 28.66 88.34 29.32 88 30 C87.34 29.67 86.68 29.34 86 29 C86.495 28.505 86.495 28.505 87 28 C87.13961241 24.92852697 87.04131994 22.20659968 86.4375 19.1875 C86.293125 18.465625 86.14875 17.74375 86 17 C86.33 16.67 86.66 16.34 87 16 C87.04063832 14.33382885 87.042721 12.66611905 87 11 C86.34 11 85.68 11 85 11 C84.505 9.515 84.505 9.515 84 8 C78.21590487 7.97529951 72.43184038 7.95713977 66.64770508 7.94506836 C64.67960068 7.9400365 62.71150003 7.93321042 60.7434082 7.92456055 C57.91616899 7.91244483 55.08897916 7.90676024 52.26171875 7.90234375 C50.93970711 7.89460182 50.93970711 7.89460182 49.59098816 7.88670349 C48.3600518 7.88659019 48.3600518 7.88659019 47.10424805 7.88647461 C46.38254929 7.884254 45.66085052 7.88203339 44.9172821 7.87974548 C42.77773199 7.93174401 42.77773199 7.93174401 40 9 C39.19078631 11.69737896 38.54117383 14.25209793 38 17 C37.7215625 18.2065625 37.7215625 18.2065625 37.4375 19.4375 C36.97731213 21.91344677 36.97731213 21.91344677 36.82421875 24.09375 C36.40332248 29.04547086 35.57856056 32.62765819 33 37 C32.01 37 31.02 37 30 37 C30.639375 36.29875 31.27875 35.5975 31.9375 34.875 C34.20191565 31.71854182 34.59487586 29.80816696 35 26 C35.20625 25.319375 35.4125 24.63875 35.625 23.9375 C36.15393796 21.88232882 36.15393796 21.88232882 35.4375 19.375 C35.293125 18.59125 35.14875 17.8075 35 17 C35.66 16.34 36.32 15.68 37 15 C36.67801034 11.90073181 36.67801034 11.90073181 36 9 C34.51113281 8.94392578 34.51113281 8.94392578 32.9921875 8.88671875 C10.69180146 7.87331587 10.69180146 7.87331587 2 3 Z " fill="#101010" transform="translate(429,216)"/>
<path d="M0 0 C4.9336705 1.02396935 7.90174677 4.08952165 11.3125 7.6875 C12.69476016 10.45202033 12.40775387 12.7336363 12.375 15.8125 C12.36597656 16.90820312 12.35695312 18.00390625 12.34765625 19.1328125 C12.33605469 19.97585937 12.32445312 20.81890625 12.3125 21.6875 C11.6525 21.6875 10.9925 21.6875 10.3125 21.6875 C10.23773438 20.87925781 10.16296875 20.07101563 10.0859375 19.23828125 C9.41824353 12.0809141 9.41824353 12.0809141 5.4375 6.4375 C2.32776886 4.36176442 2.32776886 4.36176442 -1.6875 4.6875 C-2.85093227 7.01436453 -2.88645988 8.53471413 -2.9375 11.125 C-2.96328125 11.90746094 -2.9890625 12.68992188 -3.015625 13.49609375 C-2.61573089 16.16681509 -1.74050878 17.00727439 0.3125 18.6875 C-0.125 21 -0.125 21 -1.6875 23.6875 C-3.89654888 24.69521353 -6.11132412 25.34491758 -8.44140625 26.0234375 C-14.44725965 27.79908111 -17.6528722 31.34734329 -20.6875 36.6875 C-27.55785885 49.84825234 -25.58953955 65.84569716 -21.6875 79.6875 C-19.26801405 86.41816501 -16.05855283 89.90385109 -9.66796875 93.28515625 C-4.84432916 95.29129102 0.09091987 95.25157703 5.25 95.375 C6.22001953 95.40916016 7.19003906 95.44332031 8.18945312 95.47851562 C10.56368637 95.56038574 12.93757877 95.62973078 15.3125 95.6875 C14.3125 98.6875 14.3125 98.6875 12.04296875 99.93359375 C8.41248539 102.26562097 6.80542273 105.09862769 4.625 108.75 C0.48925781 115.51074219 0.48925781 115.51074219 -1.6875 117.6875 C-3.0075 117.6875 -4.3275 117.6875 -5.6875 117.6875 C-5.85452456 122.03013862 -5.81749997 124.89710634 -3.6875 128.6875 C-2.2504191 128.74172947 -0.81274538 128.78039723 0.625 128.8125 C1.42550781 128.83570313 2.22601563 128.85890625 3.05078125 128.8828125 C5.59638576 128.84567322 5.59638576 128.84567322 8.3125 126.6875 C7.74624682 122.68131914 7.74624682 122.68131914 6.52734375 118.8515625 C6.08562038 114.40220349 10.1828637 110.93920297 12.82421875 107.60546875 C15.73226438 104.19524884 18.72317323 101.35145346 22.3125 98.6875 C23.075625 98.06875 23.83875 97.45 24.625 96.8125 C26.3125 95.6875 26.3125 95.6875 28.3125 95.6875 C28.37244141 96.64849609 28.37244141 96.64849609 28.43359375 97.62890625 C29.05402323 103.25694214 29.05402323 103.25694214 32.484375 107.5234375 C33.31453125 108.05195313 34.1446875 108.58046875 35 109.125 C37.46484375 110.76953125 37.46484375 110.76953125 39.3125 112.6875 C39.52461992 115.67882373 39.08126686 118.20914011 38.546875 121.15234375 C38.02923825 123.95257044 38.02923825 123.95257044 40.3125 126.875 C44.003973 129.10526494 46.06812478 129.31629633 50.3125 128.6875 C52.10129646 127.50291917 52.10129646 127.50291917 53.3125 125.6875 C53.73642254 122.53421315 53.30291013 119.70250541 52.3125 116.6875 C49.64583333 114.1875 49.64583333 114.1875 46.3125 112.6875 C41.63675068 110.24335831 41.63675068 110.24335831 40 107.4375 C38.8378442 102.78887682 38.84730614 98.26623083 40.3125 93.6875 C48.23075983 92.47405239 56.19266812 92.29043279 64.1875 92.0625 C64.94971863 92.04037445 65.71193726 92.0182489 66.49725342 91.99545288 C126.78017861 90.32853214 126.78017861 90.32853214 146.3125 95.6875 C145.84054966 98.80237222 145.10663095 101.12394238 143.75 104 C142.01742844 108.4444227 141.84759365 110.96095215 142.3125 115.6875 C143.65080958 118.1470774 143.65080958 118.1470774 145.3125 119.6875 C144.3225 121.6675 144.3225 121.6675 143.3125 123.6875 C142.3225 123.6875 141.3325 123.6875 140.3125 123.6875 C140.6425 124.3475 140.9725 125.0075 141.3125 125.6875 C145.9325 125.6875 150.5525 125.6875 155.3125 125.6875 C155.6425 124.0375 155.9725 122.3875 156.3125 120.6875 C157.3025 120.6875 158.2925 120.6875 159.3125 120.6875 C159.6725 126.0875 159.6725 126.0875 158.3046875 128.3671875 C155.17094358 130.44406092 151.87729099 130.08017885 148.25 130 C147.51716797 130.00322266 146.78433594 130.00644531 146.02929688 130.00976562 C140.57971939 129.95471939 140.57971939 129.95471939 138.3125 127.6875 C138.1875 124.5625 138.1875 124.5625 138.3125 121.6875 C138.9725 121.6875 139.6325 121.6875 140.3125 121.6875 C140.15265625 121.13578125 139.9928125 120.5840625 139.828125 120.015625 C138.14922321 112.43512902 139.15157663 105.66787244 142.3125 98.6875 C139.46351837 95.83851837 130.71098953 96.85594097 126.625 96.625 C125.85137115 96.58014465 125.07774231 96.53528931 124.28067017 96.48907471 C97.00838097 94.96938855 69.61549404 95.51292109 42.3125 95.6875 C42.29960937 96.95980469 42.28671875 98.23210937 42.2734375 99.54296875 C42.26256104 100.61647583 42.26256104 100.61647583 42.25146484 101.71166992 C42.33136937 104.29833913 42.66573597 105.66647142 44.3125 107.6875 C46.30357248 108.70515927 48.30468823 109.70327854 50.3125 110.6875 C54.67770905 114.56768582 56.11997572 116.6980824 56.6875 122.5625 C56.66749567 126.18328291 56.36710426 126.62169487 53.875 129.625 C53.029375 130.305625 52.18375 130.98625 51.3125 131.6875 C50.9825 132.0175 50.6525 132.3475 50.3125 132.6875 C45.31490648 133.07193027 42.30625774 132.79375602 38.3125 129.6875 C36.14027713 127.73998984 35.38798683 126.44374074 35.09765625 123.53515625 C35.04518395 119.93788878 35.16665846 117.12502461 36.3125 113.6875 C35.2296875 113.378125 35.2296875 113.378125 34.125 113.0625 C30.40767256 111.24513992 28.64118516 109.08072695 26.3125 105.6875 C26.17578125 102.98828125 26.17578125 102.98828125 26.3125 100.6875 C19.55506971 105.21532131 13.447207 110.0676215 11.4375 118.25 C11.25133655 121.73110497 11.25133655 121.73110497 11.5625 125.375 C11.3125 128.6875 11.3125 128.6875 9.5 131.125 C4.91181413 133.37411072 0.33951173 133.55127446 -4.6875 132.6875 C-7.19826404 130.79060118 -7.66836801 129.74489598 -8.6875 126.6875 C-8.80409598 125.19073294 -8.86248959 123.68874939 -8.875 122.1875 C-8.88917969 121.4140625 -8.90335938 120.640625 -8.91796875 119.84375 C-8.6875 117.6875 -8.6875 117.6875 -6.6875 114.6875 C-5.91019531 114.43226563 -5.13289063 114.17703125 -4.33203125 113.9140625 C-0.66762785 112.21447215 0.71550427 109.45393833 2.625 106.0625 C2.98400391 105.45148438 3.34300781 104.84046875 3.71289062 104.2109375 C4.59207421 102.71046418 5.45403914 101.19992485 6.3125 99.6875 C5.47847656 99.67332031 4.64445312 99.65914063 3.78515625 99.64453125 C-3.99084931 99.314964 -9.31546501 98.17597748 -15.6875 93.6875 C-16.615625 93.089375 -17.54375 92.49125 -18.5 91.875 C-27.3504646 83.0245354 -27.98050858 67.97108735 -28.1875 56.0625 C-28.14410073 46.05745547 -26.39678797 36.14252821 -19.3125 28.5625 C-15.29532816 25.11297201 -11.15865292 21.89781089 -5.75 21.4375 C-5.069375 21.52 -4.38875 21.6025 -3.6875 21.6875 C-4.01105469 21.1615625 -4.33460938 20.635625 -4.66796875 20.09375 C-5.97153686 17.01712948 -5.98852749 14.5221766 -6 11.1875 C-6.01675781 10.0634375 -6.03351563 8.939375 -6.05078125 7.78125 C-5.53484482 3.38746878 -4.37560726 1.11934139 0 0 Z " fill="#090909" transform="translate(189.6875,154.3125)"/>
<path d="M0 0 C3.81273536 2.7233824 3.81273536 2.7233824 5 6 C5.39375467 10.36756822 5.29186509 14.62850956 5 19 C5.7425 19.21398437 6.485 19.42796875 7.25 19.6484375 C14.02398203 22.97769571 17.76127326 32.73965337 20.2902832 39.62060547 C23.60303506 49.56011068 23.88275266 59.59696303 24 70 C25.65 70.33 27.3 70.66 29 71 C29.33 71.99 29.66 72.98 30 74 C40.00152518 80.82142858 54.28161654 80.30481594 65.8671875 80.59765625 C67.82061473 80.65756878 69.77404189 80.71748389 71.72746468 80.77754116 C74.42885763 80.85861649 77.13043069 80.9323861 79.83203125 81.00616455 C84.55133734 81.13630077 89.2703373 81.27693558 93.98928833 81.41929626 C96.48811081 81.49395358 98.98703054 81.56545584 101.48605347 81.6330719 C113.50757417 81.98090896 125.48269672 82.72980104 137.4375 84.0625 C138.27603516 84.15337891 139.11457031 84.24425781 139.97851562 84.33789062 C141.98597757 84.55584364 143.99303867 84.77748437 146 85 C146.29390625 84.05898437 146.5878125 83.11796875 146.890625 82.1484375 C148.10995929 78.68793244 149.0347319 77.14158251 152 75 C155.0625 74.4375 155.0625 74.4375 158 75 C160.49088536 77.8230034 160.9746968 79.55297679 161.1875 83.3125 C161.125625 84.199375 161.06375 85.08625 161 86 C161.763125 86.226875 162.52625 86.45375 163.3125 86.6875 C166.68888754 88.33643345 167.60865273 89.52163182 169 93 C169 96.99306579 168.7163734 99.1415166 166.13793945 102.23144531 C161.36626266 104.92078062 157.13738951 104.1751403 151.79296875 103.734375 C150.71243729 103.66212708 149.63190582 103.58987915 148.51863098 103.51544189 C145.07316477 103.28042146 141.63072896 103.01562121 138.1875 102.75 C135.84974722 102.58527152 133.51185653 102.42248788 131.17382812 102.26171875 C125.44742798 101.86368595 119.72322776 101.44119346 114 101 C117.01631609 104.12901538 119.74974603 106.12992316 123.625 108.125 C128.80555556 110.80555556 128.80555556 110.80555556 131 113 C131.5689079 116.38350489 131.53772752 119.61391382 131 123 C128.80977082 125.82424288 127.16982793 127.41508603 124 129 C121.65057174 129.25630126 119.29489742 129.45712836 116.9375 129.625 C115.66777344 129.72039062 114.39804687 129.81578125 113.08984375 129.9140625 C112.07019531 129.94242188 111.05054688 129.97078125 110 130 C108.41132134 128.41132134 108.79205961 126.75310484 108.75 124.5625 C108.71132813 123.35787109 108.71132813 123.35787109 108.671875 122.12890625 C108.78015625 121.42636719 108.8884375 120.72382813 109 120 C109.99 119.34 110.98 118.68 112 118 C111.48050781 117.63648438 110.96101562 117.27296875 110.42578125 116.8984375 C105.91902997 113.64957798 102.14107209 110.61344963 99 106 C98.6875 103.125 98.6875 103.125 99 101 C96.29326049 102.88294922 95.59930045 104.81299185 95 107.9375 C94.71321718 110.03457771 94.71321718 110.03457771 95 112 C97.32069965 114.42416001 97.32069965 114.42416001 100 116 C100 116.66 100 117.32 100 118 C97.44312331 117.65447612 95.42498625 117.24912987 93.1875 115.9375 C91.24513192 112.76837313 91.52545699 109.55582229 92 106 C92.68691783 103.21505408 93.49942778 101.53544961 95 99 C97.5457852 98.06861517 99.32862688 98 102 98 C101.938125 98.886875 101.87625 99.77375 101.8125 100.6875 C102.02827881 104.49959225 102.64784888 106.02060858 105 109 C109.17680818 112.32246105 112.90715207 113.7777165 118 115 C118 115.99 118 116.98 118 118 C116.34997172 119.35386936 114.6825613 120.68678142 113 122 C112.67 122.99 112.34 123.98 112 125 C116.6135246 126.53784153 120.43721569 126.74741859 124.875 124.625 C127.09664825 123.17239958 127.09664825 123.17239958 128 121 C128.039992 119.00039988 128.04346799 116.99952758 128 115 C127.01257813 114.44570313 126.02515625 113.89140625 125.0078125 113.3203125 C123.71344465 112.58871328 122.41917913 111.85693301 121.125 111.125 C120.47402344 110.76019531 119.82304687 110.39539063 119.15234375 110.01953125 C116.49606646 108.51339464 114.16980999 107.16980999 112 105 C111.59952556 102.67724823 111.2602896 100.34260643 111 98 C111.99 97.67 112.98 97.34 114 97 C114 97.66 114 98.32 114 99 C114.64960693 98.99476318 115.29921387 98.98952637 115.96850586 98.98413086 C118.95816043 98.96313497 121.94779941 98.9502687 124.9375 98.9375 C125.95908203 98.92912109 126.98066406 98.92074219 128.03320312 98.91210938 C133.39028109 98.89499411 138.58031799 99.09295273 143.89379883 99.76635742 C147.38596585 100.1537463 150.86459872 100.18414398 154.375 100.1875 C155.07238281 100.19974609 155.76976562 100.21199219 156.48828125 100.22460938 C160.22002299 100.23535335 161.81339615 100.12440257 165 98 C165.91828794 95.13128132 165.91828794 95.13128132 165 92 C162.53583176 89.93310507 159.86486546 88.44522231 157 87 C157.185625 86.071875 157.37125 85.14375 157.5625 84.1875 C158.24123881 80.98656229 158.24123881 80.98656229 157 78 C153.34683329 79.24976756 152.21934164 79.67098753 150 83 C149.61500109 84.65549531 149.27206865 86.3222433 149 88 C144.93724554 87.86076952 140.87487143 87.71246082 136.8125 87.5625 C135.66201172 87.52318359 134.51152344 87.48386719 133.32617188 87.44335938 C132.21435547 87.40146484 131.10253906 87.35957031 129.95703125 87.31640625 C128.93585205 87.27974854 127.91467285 87.24309082 126.86254883 87.20532227 C124 87 124 87 121.56201172 86.51147461 C118.38720891 85.87766368 115.28288763 85.69066214 112.05078125 85.5 C111.37300629 85.45975708 110.69523132 85.41951416 109.99691772 85.37805176 C107.76900128 85.24776757 105.54079704 85.12359165 103.3125 85 C102.5464444 84.95609131 101.78038879 84.91218262 100.99111938 84.86694336 C92.20252427 84.36536863 83.41736506 83.94802657 74.6171875 83.71875 C73.86223495 83.69893066 73.10728241 83.67911133 72.32945251 83.65869141 C68.73514678 83.56769079 65.14109467 83.48977774 61.54614258 83.4296875 C36.84280005 82.89520003 36.84280005 82.89520003 28 77 C27.30078125 74.8671875 27.30078125 74.8671875 27 73 C25.35 72.67 23.7 72.34 22 72 C21.96559814 71.44763672 21.93119629 70.89527344 21.89575195 70.32617188 C20.82291317 54.26519314 19.24214994 39.0654992 9 26 C8.34 25.01 7.68 24.02 7 23 C6.13632813 22.56558594 5.27265625 22.13117188 4.3828125 21.68359375 C3.20332031 20.85021484 3.20332031 20.85021484 2 20 C1.6171875 17.22265625 1.6171875 17.22265625 1.875 14.0625 C2.24480766 9.67201088 2.24480766 9.67201088 0.76953125 5.63671875 C-0.85990485 3.84005572 -0.85990485 3.84005572 -3.04296875 3.609375 C-3.75066406 3.65578125 -4.45835937 3.7021875 -5.1875 3.75 C-7.0746875 3.87375 -7.0746875 3.87375 -9 4 C-10.67110042 6.96178773 -11.32682752 9.37071192 -11.625 12.75 C-11.69976562 13.54921875 -11.77453125 14.3484375 -11.8515625 15.171875 C-11.90054688 15.77515625 -11.94953125 16.3784375 -12 17 C-23.4103669 18.91025574 -34.44969732 19.22379488 -46 19 C-45.505 17.515 -45.505 17.515 -45 16 C-29.655 15.505 -29.655 15.505 -14 15 C-14 12.03 -14 9.06 -14 6 C-11.0242256 -0.49259869 -6.72081336 -1.13558571 0 0 Z " fill="#090909" transform="translate(249,155)"/>
<path d="M0 0 C-0.47195034 3.11487222 -1.20586905 5.43644238 -2.5625 8.3125 C-4.29507156 12.7569227 -4.46490635 15.27345215 -4 20 C-2.66169042 22.4595774 -2.66169042 22.4595774 -1 24 C-1.66 25.32 -2.32 26.64 -3 28 C-3.99 28 -4.98 28 -6 28 C-5.67 28.66 -5.34 29.32 -5 30 C-0.38 30 4.24 30 9 30 C9.33 28.35 9.66 26.7 10 25 C10.99 25 11.98 25 13 25 C13.36 30.4 13.36 30.4 11.9921875 32.6796875 C8.85844358 34.75656092 5.56479099 34.39267885 1.9375 34.3125 C0.83825195 34.31733398 0.83825195 34.31733398 -0.28320312 34.32226562 C-5.73278061 34.26721939 -5.73278061 34.26721939 -8 32 C-8.125 28.875 -8.125 28.875 -8 26 C-7.34 26 -6.68 26 -6 26 C-6.15984375 25.44828125 -6.3196875 24.8965625 -6.484375 24.328125 C-8.16327679 16.74762902 -7.16092337 9.98037244 -4 3 C-6.88244351 0.11755649 -16.02055474 1.2218536 -20.1875 1 C-21.36727921 0.93513397 -21.36727921 0.93513397 -22.57089233 0.86895752 C-47.0223754 -0.45122804 -71.51930024 -0.66691232 -96 -1 C-95.67 -1.66 -95.34 -2.32 -95 -3 C-26.48406653 -7.21063638 -26.48406653 -7.21063638 0 0 Z " fill="#060606" transform="translate(336,250)"/>
<path d="M0 0 C0.33 0.99 0.66 1.98 1 3 C1.66 3 2.32 3 3 3 C3.21914063 3.95261719 3.43828125 4.90523437 3.6640625 5.88671875 C5.38891549 13.98459627 5.38891549 13.98459627 10.25 20.375 C11.1575 20.91125 12.065 21.4475 13 22 C13.144375 21.2575 13.28875 20.515 13.4375 19.75 C13.90187492 17.47972261 14.41863569 15.24240521 15 13 C17.31 13.33 19.62 13.66 22 14 C22 14.66 22 15.32 22 16 C21.38125 16.4125 20.7625 16.825 20.125 17.25 C17.36840385 19.52013801 17.04983163 21.64053879 16 25 C14.5 26.875 14.5 26.875 13 28 C12.34 28 11.68 28 11 28 C10.01 30.475 10.01 30.475 9 33 C8.67 33 8.34 33 8 33 C7.98582031 32.3709375 7.97164063 31.741875 7.95703125 31.09375 C7.63073728 25.23809599 6.53814961 21.66177502 3.2109375 16.86328125 C-0.21664757 11.58922294 -0.21195647 6.04075942 0 0 Z " fill="#131313" transform="translate(424,226)"/>
<path d="M0 0 C-0.33 0.99 -0.66 1.98 -1 3 C-2.24716797 3.07347656 -2.24716797 3.07347656 -3.51953125 3.1484375 C-4.60621094 3.22320312 -5.69289062 3.29796875 -6.8125 3.375 C-7.89144531 3.44460937 -8.97039062 3.51421875 -10.08203125 3.5859375 C-13.18626186 3.81195733 -13.18626186 3.81195733 -16 6 C-17.03639388 9.6568216 -17.26766864 13.21440059 -17 17 C-14.6452137 20.56785803 -13.1574054 21.67986659 -9.0625 22.8125 C-6.0300876 22.9981579 -3.03718745 23.07231399 0 23 C-0.33 23.99 -0.66 24.98 -1 26 C-10.66634592 26.61919654 -10.66634592 26.61919654 -15.5 24.375 C-19.36425153 20.70396104 -20.84602283 17.75533971 -21.3125 12.4375 C-21.00706003 9.07766035 -20.69462762 6.90507592 -19 4 C-16.6875 2.3125 -16.6875 2.3125 -14 1 C-13.21625 0.608125 -12.4325 0.21625 -11.625 -0.1875 C-7.74558535 -1.3882712 -3.70899347 -1.85449674 0 0 Z " fill="#090909" transform="translate(209,196)"/>
<path d="M0 0 C0.33 0 0.66 0 1 0 C1.12117188 0.67546875 1.24234375 1.3509375 1.3671875 2.046875 C1.53476562 2.93890625 1.70234375 3.8309375 1.875 4.75 C2.03742188 5.63171875 2.19984375 6.5134375 2.3671875 7.421875 C2.96796264 9.86947744 3.77997117 11.80599857 5 14 C4.34 14.66 3.68 15.32 3 16 C2.01 16 1.02 16 0 16 C0.33 16.66 0.66 17.32 1 18 C5.62 18 10.24 18 15 18 C15.33 16.35 15.66 14.7 16 13 C16.99 13 17.98 13 19 13 C19.36 18.4 19.36 18.4 17.9921875 20.6796875 C14.85844358 22.75656092 11.56479099 22.39267885 7.9375 22.3125 C6.83825195 22.31733398 6.83825195 22.31733398 5.71679688 22.32226562 C0.26721939 22.26721939 0.26721939 22.26721939 -2 20 C-2.125 16.875 -2.125 16.875 -2 14 C-1.34 14 -0.68 14 0 14 C-0.16242188 13.43667969 -0.32484375 12.87335938 -0.4921875 12.29296875 C-1.02313617 9.89553131 -1.13310671 7.76477875 -1.125 5.3125 C-1.12757813 4.52488281 -1.13015625 3.73726563 -1.1328125 2.92578125 C-1 1 -1 1 0 0 Z " fill="#0D0D0D" transform="translate(330,262)"/>
<path d="M0 0 C0.33 0 0.66 0 1 0 C1.50588674 8.09418785 -0.88682972 14.6430856 -6 21 C-9.37910814 24.64092766 -12.09547378 26.90897485 -17.1875 27.15234375 C-20.16546891 26.90300909 -23.06154998 26.53871584 -26 26 C-25 24 -25 24 -22.25 22.8125 C-19 22 -19 22 -16.5 22.6875 C-13.74666541 23.30521575 -13.74666541 23.30521575 -10.9375 21 C-5.5370475 15.94573035 -3.49663324 10.00430842 -1.61328125 3.0390625 C-1 1 -1 1 0 0 Z " fill="#060606" transform="translate(603,256)"/>
<path d="M0 0 C-0.33 0.99 -0.66 1.98 -1 3 C-4.79165074 3.0289337 -8.58327327 3.04677601 -12.375 3.0625 C-13.45523438 3.07087891 -14.53546875 3.07925781 -15.6484375 3.08789062 C-17.1953125 3.09272461 -17.1953125 3.09272461 -18.7734375 3.09765625 C-19.72653809 3.10289307 -20.67963867 3.10812988 -21.66162109 3.11352539 C-24 3 -24 3 -26 2 C-26 1.34 -26 0.68 -26 0 C-22.22958744 -0.19670554 -18.45866237 -0.38078426 -14.6875 -0.5625 C-13.61564453 -0.61857422 -12.54378906 -0.67464844 -11.43945312 -0.73242188 C-9.89741211 -0.80493164 -9.89741211 -0.80493164 -8.32421875 -0.87890625 C-7.37635498 -0.9260376 -6.42849121 -0.97316895 -5.4519043 -1.02172852 C-3 -1 -3 -1 0 0 Z " fill="#020202" transform="translate(218,229)"/>
<path d="M0 0 C0.66 0.66 1.32 1.32 2 2 C1.67 2.680625 1.34 3.36125 1 4.0625 C-0.18453566 6.99578446 -0.18453566 6.99578446 0.0625 10.25 C-0.02360065 15.41603921 -1.03554646 20.83957907 -4.60546875 24.765625 C-5.06566406 25.17296875 -5.52585937 25.5803125 -6 26 C-6.99 25.67 -7.98 25.34 -9 25 C-8.360625 24.13375 -7.72125 23.2675 -7.0625 22.375 C-4.99019986 18.98396341 -4.42247465 16.88676677 -4 13 C-3.79375 12.319375 -3.5875 11.63875 -3.375 10.9375 C-2.83067246 8.89287506 -2.83067246 8.89287506 -3.6875 6.5 C-3.790625 5.675 -3.89375 4.85 -4 4 C-2.0625 1.6875 -2.0625 1.6875 0 0 Z " fill="#000000" transform="translate(467,229)"/>
<path d="M0 0 C2.60427663 2.60427663 2.50528695 4.39566205 3 8 C3.32871094 9.1446875 3.32871094 9.1446875 3.6640625 10.3125 C4.10572171 13.84577369 3.19396203 15.92627731 1.8125 19.1875 C1.38582031 20.23292969 0.95914063 21.27835938 0.51953125 22.35546875 C-1.09002716 25.15667966 -2.00308155 25.95396637 -5 27 C-4.00734643 24.46170776 -2.98445893 21.96695587 -1.82421875 19.5 C-0.69196301 17.00981554 0.30720879 14.64839171 1 12 C-0.20968895 9.2332494 -0.20968895 9.2332494 -2 7 C-1.58333333 1.58333333 -1.58333333 1.58333333 0 0 Z " fill="#000000" transform="translate(584,231)"/>
<path d="M0 0 C2 2 2 2 2.01171875 4.3203125 C1.90472656 5.24585938 1.79773438 6.17140625 1.6875 7.125 C1.51927734 8.60226563 1.51927734 8.60226563 1.34765625 10.109375 C1.23292969 11.06328125 1.11820313 12.0171875 1 13 C0.93683594 13.76828125 0.87367188 14.5365625 0.80859375 15.328125 C0.42512106 19.6034375 -0.49052942 22.50856266 -3 26 C-3.99 25.34 -4.98 24.68 -6 24 C-5.34 23.34 -4.68 22.68 -4 22 C-3.27982196 19.71171706 -3.27982196 19.71171706 -2.8125 17.125 C-2.63332031 16.26132813 -2.45414063 15.39765625 -2.26953125 14.5078125 C-1.85548873 12.05460461 -1.85548873 12.05460461 -2.5390625 9.9453125 C-3.13919757 7.41253908 -2.55294951 6.12707883 -1.5625 3.75 C-1.27503906 3.04359375 -0.98757813 2.3371875 -0.69140625 1.609375 C-0.34916016 0.81273437 -0.34916016 0.81273437 0 0 Z " fill="#000000" transform="translate(544,231)"/>
<path d="M0 0 C1.9906444 0.14986411 3.98535391 0.24828038 5.98046875 0.31640625 C7.14384766 0.35830078 8.30722656 0.40019531 9.50585938 0.44335938 C10.72080078 0.48267578 11.93574219 0.52199219 13.1875 0.5625 C14.41404297 0.60568359 15.64058594 0.64886719 16.90429688 0.69335938 C19.93608381 0.7995309 22.96795315 0.90157952 26 1 C26 1.33 26 1.66 26 2 C14.45 2 2.9 2 -9 2 C-9 2.99 -9 3.98 -9 5 C-9.99 5.33 -10.98 5.66 -12 6 C-11.67 4.02 -11.34 2.04 -11 0 C-3.375 -1.125 -3.375 -1.125 0 0 Z " fill="#303030" transform="translate(241,248)"/>
<path d="M0 0 C1.875 0.1875 1.875 0.1875 4 1 C6.38879811 4.98133018 5.79447983 7.58622317 5 12 C5.2644354 14.34214207 5.58244638 16.68025766 6 19 C5.01 18.67 4.02 18.34 3 18 C0.62790698 11.22259136 0.62790698 11.22259136 1.875 7.125 C2.24625 6.42375 2.6175 5.7225 3 5 C3 4.34 3 3.68 3 3 C2.01 3 1.02 3 0 3 C0 2.01 0 1.02 0 0 Z " fill="#000000" transform="translate(563,253)"/>
<path d="M0 0 C0.99 0.33 1.98 0.66 3 1 C4.00344253 7.30735307 4.50873071 13.63440427 5 20 C4.01 19.67 3.02 19.34 2 19 C-0.08254633 13.95301272 -0.10550722 9.28186783 1 4 C0.6422386 1.72349255 0.6422386 1.72349255 0 0 Z " fill="#000000" transform="translate(484,250)"/>
<path d="M0 0 C0.66 0.33 1.32 0.66 2 1 C1.814375 1.66 1.62875 2.32 1.4375 3 C1.03842212 5.73653403 1.13760553 7.4471767 1.5625 10.125 C2 14 2 14 0 17 C-0.99 16.67 -1.98 16.34 -3 16 C-2.67 15.34 -2.34 14.68 -2 14 C-1.86270799 10.91092972 -1.91919487 8.31587458 -2.6875 5.3125 C-2.790625 4.549375 -2.89375 3.78625 -3 3 C-1.5625 1.1875 -1.5625 1.1875 0 0 Z " fill="#000000" transform="translate(517,230)"/>
<path d="M0 0 C0.66 0.33 1.32 0.66 2 1 C1.67 1.99 1.34 2.98 1 4 C-5.435 4.495 -5.435 4.495 -12 5 C-11 2 -11 2 -9.375 0.8125 C-6.16446216 -0.28584189 -3.36837637 -0.18713202 0 0 Z " fill="#161616" transform="translate(207,195)"/>
<path d="M0 0 C3.96 0 7.92 0 12 0 C11.67 0.99 11.34 1.98 11 3 C7.04 3 3.08 3 -1 3 C-0.67 2.01 -0.34 1.02 0 0 Z " fill="#1F1F1F" transform="translate(204,171)"/>
<path d="M0 0 C0.33 0 0.66 0 1 0 C1.33 5.94 1.66 11.88 2 18 C-0.49059397 13.01881207 -1.2136995 10.24901803 -0.5625 4.75 C-0.46066406 3.85796875 -0.35882812 2.9659375 -0.25390625 2.046875 C-0.17011719 1.37140625 -0.08632813 0.6959375 0 0 Z " fill="#242424" transform="translate(603,242)"/>
<path d="M0 0 C1.9375 0.3125 1.9375 0.3125 4 1 C4.33 1.99 4.66 2.98 5 4 C3.68 4.33 2.36 4.66 1 5 C0.67 3.35 0.34 1.7 0 0 Z " fill="#101010" transform="translate(225,191)"/>
<path d="M0 0 C2.475 0.495 2.475 0.495 5 1 C4.67 1.99 4.34 2.98 4 4 C2.68 4 1.36 4 0 4 C0 2.68 0 1.36 0 0 Z " fill="#080808" transform="translate(178,193)"/>
</svg>
