<?xml version="1.0" encoding="UTF-8"?>
<svg version="1.1" xmlns="http://www.w3.org/2000/svg" width="800" height="300">
<path d="M0 0 C264 0 528 0 800 0 C800 99 800 198 800 300 C536 300 272 300 0 300 C0 201 0 102 0 0 Z " fill="#FEFEFE" transform="translate(0,0)"/>
<path d="M0 0 C3.12356778 2.44820177 3.54557701 3.90816476 4.3125 7.8125 C4.45924726 11.48624168 4.43017757 15.13834472 4.3125 18.8125 C5.055 18.915625 5.7975 19.01875 6.5625 19.125 C9.58597408 19.88086852 11.09385543 20.6377407 13.3125 22.8125 C14.18359375 24.9921875 14.18359375 24.9921875 14.75 27.6875 C14.98460937 28.74839844 15.21921875 29.80929688 15.4609375 30.90234375 C15.59081055 31.51062012 15.72068359 32.11889648 15.85449219 32.74560547 C16.37896775 35.1124552 16.95598723 37.46331264 17.5390625 39.81640625 C19.71174353 48.63121495 21.78253469 57.26367974 22.66015625 66.31640625 C23.50158255 69.53599551 24.70017362 70.78372995 27.3125 72.8125 C29.6432294 73.70219589 29.6432294 73.70219589 32.0625 74.0625 C32.86171875 74.21203125 33.6609375 74.3615625 34.484375 74.515625 C35.08765625 74.61359375 35.6909375 74.7115625 36.3125 74.8125 C36.3125 75.4725 36.3125 76.1325 36.3125 76.8125 C46.39776995 77.79142448 56.24375216 77.81309972 66.35321045 77.46014404 C70.55007522 77.31484272 74.74770431 77.19578222 78.9453125 77.07421875 C79.76432037 77.05002869 80.58332825 77.02583862 81.42715454 77.00091553 C127.99313579 75.6528179 127.99313579 75.6528179 140.3125 81.8125 C144.53529846 82.22649985 147.26672028 82.07763693 150.8125 79.8125 C154.37359004 77.5507266 157.07139087 77.32314125 161.3125 77.8125 C162.3025 78.4725 163.2925 79.1325 164.3125 79.8125 C164.67578125 81.87109375 164.67578125 81.87109375 164.625 84.25 C164.62113281 85.03246094 164.61726562 85.81492187 164.61328125 86.62109375 C164.3125 88.8125 164.3125 88.8125 162.3125 91.8125 C163.3025 92.1425 164.2925 92.4725 165.3125 92.8125 C167.58955935 96.04832118 167.7161398 98.93755789 167.3125 102.8125 C166.375 105.1875 166.375 105.1875 164.3125 106.8125 C158.31450899 107.87801138 153.62953882 106.52758365 148.3125 103.8125 C148.065 104.410625 147.8175 105.00875 147.5625 105.625 C146.0582326 108.25746795 144.98742092 109.3665968 142.3125 110.8125 C138.5625 111 138.5625 111 135.3125 110.8125 C134.9825 109.1625 134.6525 107.5125 134.3125 105.8125 C133.384375 106.29976562 133.384375 106.29976562 132.4375 106.796875 C128.03888235 108.22642574 123.90707965 108.10245287 119.3125 108.0625 C118.42304688 108.07023437 117.53359375 108.07796875 116.6171875 108.0859375 C112.08642591 108.07241284 108.41986644 107.96886738 104.3125 105.8125 C104.3125 104.8225 104.3125 103.8325 104.3125 102.8125 C103.6525 102.8125 102.9925 102.8125 102.3125 102.8125 C100.13063775 108.91651939 98.99182036 114.18638615 99.3046875 120.68359375 C99.3125 122.8125 99.3125 122.8125 98.3125 125.8125 C93.65035571 129.21198021 90.06534112 130.50345556 84.26953125 130.1875 C82.3125 129.8125 82.3125 129.8125 80.25 128.3125 C78.90077426 124.71456468 78.42631523 121.54305201 79.3125 117.8125 C80.73322177 116.25961807 82.16155482 114.71229396 83.64453125 113.21875 C87.50441539 107.65039255 88.66161413 100.30647139 90.3125 93.8125 C74.30041566 93.61248357 58.47726589 93.56425622 42.52270508 95.09887695 C33.36640286 95.93099668 24.26751359 95.95496375 15.07885742 95.82617188 C14.00611572 95.81263672 12.93337402 95.79910156 11.828125 95.78515625 C10.88227539 95.76718994 9.93642578 95.74922363 8.96191406 95.73071289 C6.29556652 95.81302273 3.91465371 96.2494905 1.3125 96.8125 C-2.55272859 97.10919132 -6.41839695 97.31832537 -10.2890625 97.53125 C-13.6735735 97.67624331 -13.6735735 97.67624331 -16.6875 98.8125 C-16.61387408 101.90478877 -16.38903709 104.07588606 -14.203125 106.37109375 C-12.96877786 107.3865289 -11.72359608 108.38891498 -10.46875 109.37890625 C-6.22136741 112.79730408 -3.85568863 116.5025517 -2.6875 121.8125 C-2.75883896 125.95015963 -3.04740918 128.03238932 -5.6875 131.25 C-9.80442008 133.39422921 -13.15199511 133.97422581 -17.6875 132.8125 C-20.54452427 130.93502691 -22.21569356 128.89093484 -23.6875 125.8125 C-24.46247974 121.28418701 -23.88859122 117.20988356 -22.6875 112.8125 C-23.62722656 112.30589844 -23.62722656 112.30589844 -24.5859375 111.7890625 C-25.40320313 111.34304688 -26.22046875 110.89703125 -27.0625 110.4375 C-28.28066406 109.77621094 -28.28066406 109.77621094 -29.5234375 109.1015625 C-31.6875 107.8125 -31.6875 107.8125 -33.6875 105.8125 C-33.8125 102.6875 -33.8125 102.6875 -33.6875 99.8125 C-39.51100605 103.36341832 -44.78087495 107.53310492 -48.25 113.5 C-48.93779525 115.80715105 -48.93779525 115.80715105 -47.703125 117.640625 C-46.45379367 120.31227199 -46.57163092 121.96001882 -46.875 124.875 C-46.95105469 125.73222656 -47.02710938 126.58945312 -47.10546875 127.47265625 C-47.79460934 130.24309391 -48.29566123 131.24702613 -50.6875 132.8125 C-54.78311079 133.18116257 -58.6861273 132.73546856 -62.6875 131.8125 C-65.54431742 129.22143303 -67.43752192 126.66233781 -67.9609375 122.7890625 C-67.99445313 122.01304687 -68.02796875 121.23703125 -68.0625 120.4375 C-68.11148438 119.66664063 -68.16046875 118.89578125 -68.2109375 118.1015625 C-67.44934697 114.77102481 -65.34920649 113.87292891 -62.6875 111.8125 C-60.6182853 108.81380467 -60.6182853 108.81380467 -58.875 105.5625 C-58.27042969 104.48484375 -57.66585937 103.4071875 -57.04296875 102.296875 C-56.59566406 101.47703125 -56.14835937 100.6571875 -55.6875 99.8125 C-57.58320507 97.50618028 -57.58320507 97.50618028 -60.75 97.4375 C-67.95701453 96.29352944 -73.87737125 93.79817245 -78.41015625 87.921875 C-82.33424022 81.44173634 -84.04415385 74.11045756 -85.29296875 66.7109375 C-85.50694539 64.81024173 -85.50694539 64.81024173 -86.6875 63.8125 C-87.82839673 52.20795041 -86.78066444 38.73802148 -79.66796875 29.06640625 C-74.99778047 24.60887103 -69.95012555 22.23380509 -63.6875 20.8125 C-63.59662109 19.86890625 -63.59662109 19.86890625 -63.50390625 18.90625 C-63.23971972 16.20748302 -62.96377859 13.51005349 -62.6875 10.8125 C-62.6153125 10.04035156 -62.543125 9.26820313 -62.46875 8.47265625 C-62.09232394 4.86299925 -61.73886819 2.88955228 -59.6875 -0.1875 C-57.5234375 -0.48046875 -57.5234375 -0.48046875 -55.0625 -0.375 C-54.24523437 -0.34792969 -53.42796875 -0.32085937 -52.5859375 -0.29296875 C-51.95945313 -0.25816406 -51.33296875 -0.22335938 -50.6875 -0.1875 C-48.56338592 3.41425866 -47.47759114 6.41298734 -47.08984375 10.53515625 C-47.01113037 11.33832275 -46.93241699 12.14148926 -46.85131836 12.96899414 C-46.77022827 13.88152954 -46.77022827 13.88152954 -46.6875 14.8125 C-45.92606689 14.69132812 -45.16463379 14.57015625 -44.38012695 14.4453125 C-40.92069967 13.89707564 -37.46037382 13.35472904 -34 12.8125 C-32.80181641 12.62171875 -31.60363281 12.4309375 -30.36914062 12.234375 C-29.21220703 12.05390625 -28.05527344 11.8734375 -26.86328125 11.6875 C-25.26867065 11.43613281 -25.26867065 11.43613281 -23.6418457 11.1796875 C-20.94979003 10.84509931 -18.39587469 10.74243695 -15.6875 10.8125 C-15.44966797 9.78189453 -15.44966797 9.78189453 -15.20703125 8.73046875 C-13.30370606 1.38005821 -13.30370606 1.38005821 -10.3125 -1.375 C-6.18098399 -2.65380258 -3.86357412 -1.70716066 0 0 Z " fill="#F9F9F9" transform="translate(249.6875,155.1875)"/>
<path d="M0 0 C3.68388462 0.29471077 3.66986134 0.79486134 6.125 3.25 C12.59583003 5.32525149 18.53641432 5.49994212 25.29296875 5.41015625 C26.3821611 5.40463745 27.47135345 5.39911865 28.59355164 5.39343262 C30.9428252 5.38109227 33.29207948 5.36448167 35.64129639 5.34402466 C41.90270738 5.29025787 48.16417966 5.26861565 54.42578125 5.25 C56.35744141 5.2437838 56.35744141 5.2437838 58.328125 5.23744202 C74.53729646 5.20866797 90.73870822 5.58435472 106.94213867 5.98266602 C108.01929642 6.00735962 109.09645416 6.03205322 110.20625305 6.05749512 C112.22027242 6.10391321 114.23419602 6.15477372 116.24797058 6.21081543 C117.57131157 6.24096741 117.57131157 6.24096741 118.92138672 6.27172852 C119.68957733 6.29171402 120.45776794 6.31169952 121.24923706 6.33229065 C123.2174287 6.37361173 123.2174287 6.37361173 125.125 5.25 C128.16066911 5.01089183 131.20595166 5.06479913 134.25 5.0625 C135.49523437 5.04413086 135.49523437 5.04413086 136.765625 5.02539062 C143.4533327 5.00966717 150.3156553 5.59226445 156.125 9.25 C156.55167969 9.71148437 156.97835937 10.17296875 157.41796875 10.6484375 C160.1225484 13.18591497 163.45620593 14.60011728 166.75 16.26171875 C171.14417804 19.94039741 172.11927916 25.08672162 172.7421875 30.6171875 C172.84709306 32.11858663 172.93265993 33.62144759 173 35.125 C173.03754395 35.91366455 173.07508789 36.7023291 173.11376953 37.51489258 C173.40163329 46.77514559 171.41714193 54.29285919 165.125 61.25 C159.82054711 66.63085279 155.31786413 67.95523678 147.83862305 68.13330078 C146.69562744 68.13056152 145.55263184 68.12782227 144.375 68.125 C143.1785083 68.1441748 141.9820166 68.16334961 140.74926758 68.18310547 C137.2074586 68.23283335 133.66711111 68.24384427 130.125 68.25 C128.31116451 68.27360067 126.49735524 68.29939485 124.68359375 68.328125 C111.15032285 68.49209193 97.2794274 68.50064747 83.84765625 66.72265625 C75.72103524 65.69083973 67.62340803 66.16088485 59.5 67.03125 C53.26973547 67.60509015 46.98788457 66.91520367 40.76269531 66.50537109 C38.76408688 66.37591247 36.76484991 66.25628024 34.765625 66.13671875 C33.49460937 66.05292969 32.22359375 65.96914063 30.9140625 65.8828125 C29.75600098 65.80949707 28.59793945 65.73618164 27.40478516 65.66064453 C24.07247647 65.24342381 21.26801003 64.41096136 18.125 63.25 C16.990625 62.87875 15.85625 62.5075 14.6875 62.125 C7.84557044 59.09759754 3.57175904 52.34024769 0.83203125 45.625 C-0.17490461 42.24258562 -0.50395679 38.92877775 -0.69921875 35.4140625 C-0.80323833 33.06797913 -0.80323833 33.06797913 -1.875 30.25 C-0.225 29.59 1.425 28.93 3.125 28.25 C3.125 27.59 3.125 26.93 3.125 26.25 C3.785 26.25 4.445 26.25 5.125 26.25 C5.70811831 22.57381936 6.17877761 18.97678869 6.125 15.25 C4.43583369 12.63893869 4.43583369 12.63893869 2.125 11.25 C1.795 10.59 1.465 9.93 1.125 9.25 C-1.19656597 8.84270772 -3.5318787 8.50561323 -5.875 8.25 C-3.71305668 0.32287449 -3.71305668 0.32287449 0 0 Z " fill="#656565" transform="translate(431.875,215.75)"/>
<path d="M0 0 C3.12356778 2.44820177 3.54557701 3.90816476 4.3125 7.8125 C4.45924726 11.48624168 4.43017757 15.13834472 4.3125 18.8125 C5.055 18.915625 5.7975 19.01875 6.5625 19.125 C9.58597408 19.88086852 11.09385543 20.6377407 13.3125 22.8125 C14.18359375 24.9921875 14.18359375 24.9921875 14.75 27.6875 C14.98460937 28.74839844 15.21921875 29.80929688 15.4609375 30.90234375 C15.59081055 31.51062012 15.72068359 32.11889648 15.85449219 32.74560547 C16.37896775 35.1124552 16.95598723 37.46331264 17.5390625 39.81640625 C19.71174353 48.63121495 21.78253469 57.26367974 22.66015625 66.31640625 C23.50158255 69.53599551 24.70017362 70.78372995 27.3125 72.8125 C29.6432294 73.70219589 29.6432294 73.70219589 32.0625 74.0625 C32.86171875 74.21203125 33.6609375 74.3615625 34.484375 74.515625 C35.08765625 74.61359375 35.6909375 74.7115625 36.3125 74.8125 C36.3125 75.4725 36.3125 76.1325 36.3125 76.8125 C46.39776995 77.79142448 56.24375216 77.81309972 66.35321045 77.46014404 C70.55007522 77.31484272 74.74770431 77.19578222 78.9453125 77.07421875 C79.76432037 77.05002869 80.58332825 77.02583862 81.42715454 77.00091553 C127.99313579 75.6528179 127.99313579 75.6528179 140.3125 81.8125 C144.53529846 82.22649985 147.26672028 82.07763693 150.8125 79.8125 C154.37359004 77.5507266 157.07139087 77.32314125 161.3125 77.8125 C162.3025 78.4725 163.2925 79.1325 164.3125 79.8125 C164.67578125 81.87109375 164.67578125 81.87109375 164.625 84.25 C164.62113281 85.03246094 164.61726562 85.81492187 164.61328125 86.62109375 C164.3125 88.8125 164.3125 88.8125 162.3125 91.8125 C163.3025 92.1425 164.2925 92.4725 165.3125 92.8125 C167.58955935 96.04832118 167.7161398 98.93755789 167.3125 102.8125 C166.375 105.1875 166.375 105.1875 164.3125 106.8125 C158.31450899 107.87801138 153.62953882 106.52758365 148.3125 103.8125 C148.065 104.410625 147.8175 105.00875 147.5625 105.625 C146.0582326 108.25746795 144.98742092 109.3665968 142.3125 110.8125 C138.5625 111 138.5625 111 135.3125 110.8125 C134.9825 109.1625 134.6525 107.5125 134.3125 105.8125 C133.384375 106.29976562 133.384375 106.29976562 132.4375 106.796875 C128.03888235 108.22642574 123.90707965 108.10245287 119.3125 108.0625 C118.42304688 108.07023437 117.53359375 108.07796875 116.6171875 108.0859375 C112.08642591 108.07241284 108.41986644 107.96886738 104.3125 105.8125 C104.3125 104.8225 104.3125 103.8325 104.3125 102.8125 C103.6525 102.8125 102.9925 102.8125 102.3125 102.8125 C100.13063775 108.91651939 98.99182036 114.18638615 99.3046875 120.68359375 C99.3125 122.8125 99.3125 122.8125 98.3125 125.8125 C93.65035571 129.21198021 90.06534112 130.50345556 84.26953125 130.1875 C82.3125 129.8125 82.3125 129.8125 80.25 128.3125 C78.90077426 124.71456468 78.42631523 121.54305201 79.3125 117.8125 C80.73322177 116.25961807 82.16155482 114.71229396 83.64453125 113.21875 C87.50441539 107.65039255 88.66161413 100.30647139 90.3125 93.8125 C74.30041566 93.61248357 58.47726589 93.56425622 42.52270508 95.09887695 C33.36640286 95.93099668 24.26751359 95.95496375 15.07885742 95.82617188 C14.00611572 95.81263672 12.93337402 95.79910156 11.828125 95.78515625 C10.88227539 95.76718994 9.93642578 95.74922363 8.96191406 95.73071289 C6.29556652 95.81302273 3.91465371 96.2494905 1.3125 96.8125 C-2.55272859 97.10919132 -6.41839695 97.31832537 -10.2890625 97.53125 C-13.6735735 97.67624331 -13.6735735 97.67624331 -16.6875 98.8125 C-16.61387408 101.90478877 -16.38903709 104.07588606 -14.203125 106.37109375 C-12.96877786 107.3865289 -11.72359608 108.38891498 -10.46875 109.37890625 C-6.22136741 112.79730408 -3.85568863 116.5025517 -2.6875 121.8125 C-2.75883896 125.95015963 -3.04740918 128.03238932 -5.6875 131.25 C-9.80442008 133.39422921 -13.15199511 133.97422581 -17.6875 132.8125 C-20.54452427 130.93502691 -22.21569356 128.89093484 -23.6875 125.8125 C-24.46247974 121.28418701 -23.88859122 117.20988356 -22.6875 112.8125 C-23.62722656 112.30589844 -23.62722656 112.30589844 -24.5859375 111.7890625 C-25.40320313 111.34304688 -26.22046875 110.89703125 -27.0625 110.4375 C-28.28066406 109.77621094 -28.28066406 109.77621094 -29.5234375 109.1015625 C-31.6875 107.8125 -31.6875 107.8125 -33.6875 105.8125 C-33.8125 102.6875 -33.8125 102.6875 -33.6875 99.8125 C-39.51100605 103.36341832 -44.78087495 107.53310492 -48.25 113.5 C-48.93779525 115.80715105 -48.93779525 115.80715105 -47.703125 117.640625 C-46.45379367 120.31227199 -46.57163092 121.96001882 -46.875 124.875 C-46.95105469 125.73222656 -47.02710938 126.58945312 -47.10546875 127.47265625 C-47.79460934 130.24309391 -48.29566123 131.24702613 -50.6875 132.8125 C-54.78311079 133.18116257 -58.6861273 132.73546856 -62.6875 131.8125 C-65.54431742 129.22143303 -67.43752192 126.66233781 -67.9609375 122.7890625 C-67.99445313 122.01304687 -68.02796875 121.23703125 -68.0625 120.4375 C-68.11148438 119.66664063 -68.16046875 118.89578125 -68.2109375 118.1015625 C-67.44934697 114.77102481 -65.34920649 113.87292891 -62.6875 111.8125 C-60.6182853 108.81380467 -60.6182853 108.81380467 -58.875 105.5625 C-58.27042969 104.48484375 -57.66585937 103.4071875 -57.04296875 102.296875 C-56.59566406 101.47703125 -56.14835937 100.6571875 -55.6875 99.8125 C-57.58320507 97.50618028 -57.58320507 97.50618028 -60.75 97.4375 C-67.95701453 96.29352944 -73.87737125 93.79817245 -78.41015625 87.921875 C-82.33424022 81.44173634 -84.04415385 74.11045756 -85.29296875 66.7109375 C-85.50694539 64.81024173 -85.50694539 64.81024173 -86.6875 63.8125 C-87.82839673 52.20795041 -86.78066444 38.73802148 -79.66796875 29.06640625 C-74.99778047 24.60887103 -69.95012555 22.23380509 -63.6875 20.8125 C-63.59662109 19.86890625 -63.59662109 19.86890625 -63.50390625 18.90625 C-63.23971972 16.20748302 -62.96377859 13.51005349 -62.6875 10.8125 C-62.6153125 10.04035156 -62.543125 9.26820313 -62.46875 8.47265625 C-62.09232394 4.86299925 -61.73886819 2.88955228 -59.6875 -0.1875 C-57.5234375 -0.48046875 -57.5234375 -0.48046875 -55.0625 -0.375 C-54.24523437 -0.34792969 -53.42796875 -0.32085937 -52.5859375 -0.29296875 C-51.95945313 -0.25816406 -51.33296875 -0.22335938 -50.6875 -0.1875 C-48.56338592 3.41425866 -47.47759114 6.41298734 -47.08984375 10.53515625 C-47.01113037 11.33832275 -46.93241699 12.14148926 -46.85131836 12.96899414 C-46.77022827 13.88152954 -46.77022827 13.88152954 -46.6875 14.8125 C-45.92606689 14.69132812 -45.16463379 14.57015625 -44.38012695 14.4453125 C-40.92069967 13.89707564 -37.46037382 13.35472904 -34 12.8125 C-32.80181641 12.62171875 -31.60363281 12.4309375 -30.36914062 12.234375 C-29.21220703 12.05390625 -28.05527344 11.8734375 -26.86328125 11.6875 C-25.26867065 11.43613281 -25.26867065 11.43613281 -23.6418457 11.1796875 C-20.94979003 10.84509931 -18.39587469 10.74243695 -15.6875 10.8125 C-15.44966797 9.78189453 -15.44966797 9.78189453 -15.20703125 8.73046875 C-13.30370606 1.38005821 -13.30370606 1.38005821 -10.3125 -1.375 C-6.18098399 -2.65380258 -3.86357412 -1.70716066 0 0 Z M-9.8125 2.375 C-12.16863321 5.43797317 -12.94550931 8.03509287 -13.6875 11.8125 C-13.42250396 14.14558448 -13.42250396 14.14558448 -12.6875 15.8125 C-13.7707959 15.30541504 -13.7707959 15.30541504 -14.87597656 14.78808594 C-17.90847609 13.73582229 -19.53141159 13.74068844 -22.671875 14.203125 C-23.60773438 14.33589844 -24.54359375 14.46867187 -25.5078125 14.60546875 C-26.47460938 14.75628906 -27.44140625 14.90710938 -28.4375 15.0625 C-29.38882813 15.19785156 -30.34015625 15.33320313 -31.3203125 15.47265625 C-37.18017604 16.33156775 -42.92213845 17.46013124 -48.6875 18.8125 C-48.73648438 18.07644531 -48.78546875 17.34039062 -48.8359375 16.58203125 C-48.91070312 15.60621094 -48.98546875 14.63039062 -49.0625 13.625 C-49.16691406 12.18060547 -49.16691406 12.18060547 -49.2734375 10.70703125 C-49.68965853 7.79741062 -50.48624096 5.48359226 -51.6875 2.8125 C-53.9975 2.8125 -56.3075 2.8125 -58.6875 2.8125 C-61.08655547 12.7384471 -61.08655547 12.7384471 -62.6875 22.8125 C-63.32816406 23.02003906 -63.96882813 23.22757813 -64.62890625 23.44140625 C-71.62647962 25.93383551 -77.10955219 28.99114722 -80.7109375 35.7265625 C-81.51994327 37.73706198 -82.13167647 39.71837615 -82.6875 41.8125 C-82.89117187 42.51246094 -83.09484375 43.21242187 -83.3046875 43.93359375 C-85.33846162 51.74830116 -85.79988735 59.30615403 -82.6875 66.8125 C-82.24601385 68.89071531 -81.83086465 70.97464149 -81.4375 73.0625 C-80.04103802 79.32176869 -77.80211487 83.91319086 -73.6875 88.8125 C-73.10484375 89.51761719 -72.5221875 90.22273438 -71.921875 90.94921875 C-69.00771981 93.37937964 -66.58331322 93.83931866 -62.875 94.5625 C-61.10189453 94.92601562 -61.10189453 94.92601562 -59.29296875 95.296875 C-55.70352253 95.81020859 -52.30793209 95.90521273 -48.6875 95.8125 C-49.50154297 96.79089844 -49.50154297 96.79089844 -50.33203125 97.7890625 C-57.09639241 105.38625617 -57.09639241 105.38625617 -59.6875 114.8125 C-61.6675 115.3075 -61.6675 115.3075 -63.6875 115.8125 C-63.6875 119.1125 -63.6875 122.4125 -63.6875 125.8125 C-62.2025 126.3075 -62.2025 126.3075 -60.6875 126.8125 C-60.6875 127.8025 -60.6875 128.7925 -60.6875 129.8125 C-59.22957116 129.86649736 -57.77107288 129.90529177 -56.3125 129.9375 C-55.50039062 129.96070313 -54.68828125 129.98390625 -53.8515625 130.0078125 C-51.47407757 130.02620051 -51.47407757 130.02620051 -49.6875 127.8125 C-49.28702556 125.48974823 -48.9477896 123.15510643 -48.6875 120.8125 C-50.3375 120.4825 -51.9875 120.1525 -53.6875 119.8125 C-51.00017043 111.30262303 -46.7908338 106.18799585 -39.6875 100.8125 C-39.1925 100.27625 -38.6975 99.74 -38.1875 99.1875 C-36.22943756 97.39260943 -34.17265681 96.6856632 -31.6875 95.8125 C-31.790625 97.05 -31.89375 98.2875 -32 99.5625 C-31.98828457 102.88968183 -31.97128543 103.50291589 -29.625 106.0625 C-26.33208555 108.02423627 -23.04775287 109.96765529 -19.6875 111.8125 C-19.831875 112.493125 -19.97625 113.17375 -20.125 113.875 C-20.4034375 115.3290625 -20.4034375 115.3290625 -20.6875 116.8125 C-21.0278125 118.5759375 -21.0278125 118.5759375 -21.375 120.375 C-21.68862817 123.82490982 -21.70970689 125.0825207 -19.6875 127.8125 C-15.97736601 130.28592266 -14.07689738 130.19753486 -9.6875 129.8125 C-7.05125359 129.08564412 -7.05125359 129.08564412 -5.6875 126.8125 C-5.22141222 121.96138232 -6.1631824 118.59148615 -8.875 114.5625 C-11.70606628 111.7943463 -14.6253813 109.31786985 -17.6875 106.8125 C-18.81006131 104.56737738 -18.82163762 103.29793351 -18.8125 100.8125 C-18.81636719 99.760625 -18.81636719 99.760625 -18.8203125 98.6875 C-18.6875 96.8125 -18.6875 96.8125 -17.6875 94.8125 C-16.37394531 94.75191406 -15.06039062 94.69132812 -13.70703125 94.62890625 C-11.97134459 94.54446744 -10.23566802 94.45982112 -8.5 94.375 C-7.63568359 94.33568359 -6.77136719 94.29636719 -5.88085938 94.25585938 C-5.03974609 94.21396484 -4.19863281 94.17207031 -3.33203125 94.12890625 C-2.56221924 94.09224854 -1.79240723 94.05559082 -0.99926758 94.01782227 C1.35148782 93.85510241 1.35148782 93.85510241 3.7734375 93.29443359 C6.45648928 92.78516973 8.8536737 92.73076957 11.58203125 92.78515625 C13.13748657 92.80557983 13.13748657 92.80557983 14.72436523 92.82641602 C15.84657471 92.84244873 16.96878418 92.85848145 18.125 92.875 C28.53583388 92.95367129 38.86708976 92.59088338 49.25 91.875 C63.93321979 90.86280304 78.5988221 90.24095227 93.3125 89.8125 C87.60406527 115.05131547 87.60406527 115.05131547 81.3125 119.8125 C80.72847867 122.39832128 80.72847867 122.39832128 81.3125 124.8125 C83.71700178 127.21700178 84.39483942 127.10859139 87.6875 127.125 C90.58261463 127.0505276 92.16730651 126.88146691 94.8125 125.625 C96.65771809 123.39536148 97.00459738 121.66059926 97.3125 118.8125 C96.6525 118.4825 95.9925 118.1525 95.3125 117.8125 C95.725 116.575 96.1375 115.3375 96.5625 114.0625 C96.96662109 112.84433594 96.96662109 112.84433594 97.37890625 111.6015625 C98.04418288 109.61408337 98.71978862 107.63004916 99.40234375 105.6484375 C99.76457031 104.58882813 100.12679687 103.52921875 100.5 102.4375 C100.84417969 101.43976563 101.18835938 100.44203125 101.54296875 99.4140625 C102.45432354 96.78520035 102.45432354 96.78520035 102.3125 93.8125 C103.3025 93.8125 104.2925 93.8125 105.3125 93.8125 C105.24739583 95.79817708 105.18229167 97.78385417 105.1171875 99.76953125 C105.17995538 102.12609719 105.17995538 102.12609719 107.3125 104.8125 C109.50139123 105.26122529 109.50139123 105.26122529 112.0390625 105.17578125 C112.98910156 105.17513672 113.93914062 105.17449219 114.91796875 105.17382812 C116.41263672 105.1496582 116.41263672 105.1496582 117.9375 105.125 C118.91074219 105.12822266 119.88398438 105.13144531 120.88671875 105.13476562 C126.695952 105.09176323 131.74394843 104.4724839 137.3125 102.8125 C136.9825 104.4625 136.6525 106.1125 136.3125 107.8125 C139.73006151 108.12318741 141.71356977 108.1750104 144.6875 106.375 C147.07423366 102.61130462 146.64637931 99.15293107 146.3125 94.8125 C143.21214527 93.08614837 143.21214527 93.08614837 139.6875 93.0625 C137.15649771 93.6609338 137.15649771 93.6609338 135.3125 95.8125 C132.14859804 96.90876428 129.14119089 96.94664476 125.8125 96.9375 C124.40484375 96.94136719 124.40484375 96.94136719 122.96875 96.9453125 C120.5910737 96.82642868 118.58566904 96.48801722 116.3125 95.8125 C115.9825 94.1625 115.6525 92.5125 115.3125 90.8125 C116.3025 90.8125 117.2925 90.8125 118.3125 90.8125 C117.9825 91.8025 117.6525 92.7925 117.3125 93.8125 C119.09465749 95.59465749 121.65538464 94.98532247 124.0625 95 C125.10921875 95.01417969 126.1559375 95.02835937 127.234375 95.04296875 C131.73540943 94.70596237 134.58521505 93.29735663 138.3125 90.8125 C144.37632979 91.34441489 144.37632979 91.34441489 147.3125 92.8125 C147.3434375 94.42125 147.3434375 94.42125 147.375 96.0625 C147.91716346 99.79707553 147.91716346 99.79707553 150.19921875 101.38671875 C154.3324233 103.77099708 157.44990729 105.29467306 162.3125 104.8125 C164.41014165 103.29355194 164.41014165 103.29355194 165.3125 100.8125 C165.03870879 97.65624655 165.03870879 97.65624655 163.3125 94.8125 C160.32897106 93.02870585 160.32897106 93.02870585 157.3125 91.8125 C156.9825 91.1525 156.6525 90.4925 156.3125 89.8125 C157.240625 89.626875 157.240625 89.626875 158.1875 89.4375 C160.50370832 88.94052644 160.50370832 88.94052644 162.3125 86.8125 C162.5625773 84.27059998 162.5625773 84.27059998 162.3125 81.8125 C161.16336031 80.44642985 161.16336031 80.44642985 158.0625 80.5625 C154.06533332 80.82897778 152.57994506 81.66286509 149.3125 83.8125 C143.90535943 85.71230615 138.83764954 83.7929187 133.69604492 81.79663086 C129.76498875 80.65325201 126.07432723 80.46057777 122.015625 80.3984375 C121.20504135 80.37907135 120.3944577 80.3597052 119.55931091 80.3397522 C116.89381459 80.27931282 114.22828881 80.23306752 111.5625 80.1875 C109.70287349 80.14878982 107.8432544 80.10972192 105.98364258 80.0703125 C90.50903052 79.7641053 75.03453128 79.74048526 59.55761719 79.84912109 C58.70442398 79.85342133 57.85123077 79.85772156 56.97218323 79.8621521 C55.38470074 79.87044152 53.79723187 79.8828526 52.20982361 79.90029907 C48.42813692 79.91771216 44.99700051 79.64016886 41.3125 78.8125 C38.97948014 78.77425377 36.64538492 78.76675716 34.3125 78.8125 C34.3125 78.1525 34.3125 77.4925 34.3125 76.8125 C33.62542969 76.71453125 32.93835938 76.6165625 32.23046875 76.515625 C31.32941406 76.36609375 30.42835938 76.2165625 29.5 76.0625 C28.16001953 75.85367188 28.16001953 75.85367188 26.79296875 75.640625 C23.69224189 74.6054217 23.02170554 73.56049505 21.3125 70.8125 C20.66821289 68.40917969 20.66821289 68.40917969 20.28515625 65.734375 C20.13481934 64.74550293 19.98448242 63.75663086 19.82958984 62.73779297 C19.6795752 61.68994629 19.52956055 60.64209961 19.375 59.5625 C17.33426422 39.31444026 17.33426422 39.31444026 8.5 22.4375 C5.26117308 20.78633334 3.81998861 20.71506976 0.3125 20.8125 C-0.6775 19.3275 -0.6775 19.3275 -1.6875 17.8125 C-0.6975 17.8125 0.2925 17.8125 1.3125 17.8125 C3.18534445 14.06681111 2.63877263 10.00883296 1.5625 6.0625 C0.11416857 3.45550342 -1.08856712 2.26484484 -3.6875 0.8125 C-7.59000241 0.41757303 -7.59000241 0.41757303 -9.8125 2.375 Z " fill="#0B0B0B" transform="translate(249.6875,155.1875)"/>
<path d="M0 0 C3.68388462 0.29471077 3.66986134 0.79486134 6.125 3.25 C12.59583003 5.32525149 18.53641432 5.49994212 25.29296875 5.41015625 C26.3821611 5.40463745 27.47135345 5.39911865 28.59355164 5.39343262 C30.9428252 5.38109227 33.29207948 5.36448167 35.64129639 5.34402466 C41.90270738 5.29025787 48.16417966 5.26861565 54.42578125 5.25 C56.35744141 5.2437838 56.35744141 5.2437838 58.328125 5.23744202 C74.53729646 5.20866797 90.73870822 5.58435472 106.94213867 5.98266602 C108.01929642 6.00735962 109.09645416 6.03205322 110.20625305 6.05749512 C112.22027242 6.10391321 114.23419602 6.15477372 116.24797058 6.21081543 C117.57131157 6.24096741 117.57131157 6.24096741 118.92138672 6.27172852 C119.68957733 6.29171402 120.45776794 6.31169952 121.24923706 6.33229065 C123.2174287 6.37361173 123.2174287 6.37361173 125.125 5.25 C128.16066911 5.01089183 131.20595166 5.06479913 134.25 5.0625 C135.49523437 5.04413086 135.49523437 5.04413086 136.765625 5.02539062 C143.4533327 5.00966717 150.3156553 5.59226445 156.125 9.25 C156.55167969 9.71148437 156.97835937 10.17296875 157.41796875 10.6484375 C160.1225484 13.18591497 163.45620593 14.60011728 166.75 16.26171875 C171.14417804 19.94039741 172.11927916 25.08672162 172.7421875 30.6171875 C172.84709306 32.11858663 172.93265993 33.62144759 173 35.125 C173.03754395 35.91366455 173.07508789 36.7023291 173.11376953 37.51489258 C173.40163329 46.77514559 171.41714193 54.29285919 165.125 61.25 C159.82054711 66.63085279 155.31786413 67.95523678 147.83862305 68.13330078 C146.69562744 68.13056152 145.55263184 68.12782227 144.375 68.125 C143.1785083 68.1441748 141.9820166 68.16334961 140.74926758 68.18310547 C137.2074586 68.23283335 133.66711111 68.24384427 130.125 68.25 C128.31116451 68.27360067 126.49735524 68.29939485 124.68359375 68.328125 C111.15032285 68.49209193 97.2794274 68.50064747 83.84765625 66.72265625 C75.72103524 65.69083973 67.62340803 66.16088485 59.5 67.03125 C53.26973547 67.60509015 46.98788457 66.91520367 40.76269531 66.50537109 C38.76408688 66.37591247 36.76484991 66.25628024 34.765625 66.13671875 C33.49460937 66.05292969 32.22359375 65.96914063 30.9140625 65.8828125 C29.75600098 65.80949707 28.59793945 65.73618164 27.40478516 65.66064453 C24.07247647 65.24342381 21.26801003 64.41096136 18.125 63.25 C16.990625 62.87875 15.85625 62.5075 14.6875 62.125 C7.84557044 59.09759754 3.57175904 52.34024769 0.83203125 45.625 C-0.17490461 42.24258562 -0.50395679 38.92877775 -0.69921875 35.4140625 C-0.80323833 33.06797913 -0.80323833 33.06797913 -1.875 30.25 C2.125 30.25 2.125 30.25 5.125 32.25 C5.269375 31.5075 5.41375 30.765 5.5625 30 C6.02687492 27.72972261 6.54363569 25.49240521 7.125 23.25 C9.435 23.58 11.745 23.91 14.125 24.25 C14.125 24.91 14.125 25.57 14.125 26.25 C13.320625 27.03375 12.51625 27.8175 11.6875 28.625 C9.15079874 31.22357202 8.79025847 31.92370766 8.125 35.25 C6.6875 37 6.6875 37 5.125 38.25 C4.465 38.25 3.805 38.25 3.125 38.25 C4.98691763 45.77335824 7.11375995 52.04100796 13.3125 57 C22.26882395 60.98058842 31.02857927 61.89185898 40.75 62.4375 C42.04035156 62.51935547 43.33070313 62.60121094 44.66015625 62.68554688 C47.81461508 62.88416095 50.96931911 63.07205768 54.125 63.25 C53.94839844 62.1465625 53.77179688 61.043125 53.58984375 59.90625 C53.125 56.25 53.125 56.25 53.6875 53.75 C54.34600967 51.06842643 54.34600967 51.06842643 53.125 47.8125 C52.06248057 44.02727455 52.36850073 42.03249633 53.125 38.25 C52.7672386 35.97349255 52.7672386 35.97349255 52.125 34.25 C53.115 34.58 54.105 34.91 55.125 35.25 C56.09895271 41.09371628 56.47799932 46.93686407 56.84375 52.84765625 C57.10675783 56.02932043 57.5516783 59.11106367 58.125 62.25 C59.99091797 62.10691406 59.99091797 62.10691406 61.89453125 61.9609375 C69.83962146 61.40902849 77.15731462 60.91903173 84.96875 62.703125 C100.29476799 65.35862317 116.62622208 64.39724066 132.125 64.25 C132.35123047 63.10337891 132.35123047 63.10337891 132.58203125 61.93359375 C132.96240372 60.05362332 133.37540286 58.18009688 133.8125 56.3125 C134.34801344 53.19725185 134.34801344 53.19725185 133.0625 50.1875 C131.93314313 46.64884848 132.50547737 45.48904526 134.125 42.25 C134.125 41.59 134.125 40.93 134.125 40.25 C133.135 40.25 132.145 40.25 131.125 40.25 C131.125 39.26 131.125 38.27 131.125 37.25 C133 37.4375 133 37.4375 135.125 38.25 C137.50845186 42.22241977 136.93393334 44.84580736 136.125 49.25 C136.29 50.19875 136.455 51.1475 136.625 52.125 C137.260089 56.09430627 136.74023328 59.2851633 136.125 63.25 C140.45673365 63.33840273 144.57925589 63.33186162 148.875 62.6875 C152.125 62.25 152.125 62.25 154.6875 63 C157.38951295 63.5354971 157.38951295 63.5354971 160.1875 61.25 C163.29036333 58.35399422 165.35836164 55.08679609 167.125 51.25 C167.61033203 50.28126953 167.61033203 50.28126953 168.10546875 49.29296875 C171.12346771 42.18946902 169.70416962 35.59921246 168.125 28.25 C167.97289062 27.43660156 167.82078125 26.62320313 167.6640625 25.78515625 C166.40064068 21.01528111 164.12599769 19.30208886 159.9375 16.75 C158.34550302 15.89364683 156.74488772 15.05234589 155.125 14.25 C154.31451085 18.22139686 153.87325337 20.60804608 155.375 24.4375 C156.52935183 30.30545516 154.16981087 35.20846643 151.125 40.25 C148.9453125 41.60546875 148.9453125 41.60546875 147.125 42.25 C148.11765357 39.71170776 149.14054107 37.21695587 150.30078125 34.75 C150.67589844 33.925 151.05101562 33.1 151.4375 32.25 C152.01951172 31.0125 152.01951172 31.0125 152.61328125 29.75 C153.31818012 26.30621926 151.951831 25.16675191 150.125 22.25 C149.83203125 19.13671875 149.83203125 19.13671875 149.9375 15.9375 C149.97810547 14.33455078 149.97810547 14.33455078 150.01953125 12.69921875 C150.05433594 11.89097656 150.08914063 11.08273438 150.125 10.25 C145.2306531 8.97585184 140.39324755 9.10242917 135.375 9.125 C134.49972656 9.12113281 133.62445312 9.11726562 132.72265625 9.11328125 C131.47548828 9.11521484 131.47548828 9.11521484 130.203125 9.1171875 C129.44418945 9.11831543 128.68525391 9.11944336 127.90332031 9.12060547 C126.10005033 9.05697389 126.10005033 9.05697389 125.125 10.25 C123.10091245 10.15997602 121.07955713 10.00358962 119.0625 9.8125 C117.95777344 9.71066406 116.85304688 9.60882813 115.71484375 9.50390625 C114.86019531 9.42011719 114.00554687 9.33632812 113.125 9.25 C113.62 10.24 113.62 10.24 114.125 11.25 C114.30042986 16.24975088 114.02664807 21.05539891 113.40234375 26.015625 C113.22043505 27.48114294 113.06579703 28.95035859 112.94140625 30.421875 C112.54181021 34.76034625 111.67387053 37.70374535 109.125 41.25 C107.64 40.26 107.64 40.26 106.125 39.25 C107.115 38.26 107.115 38.26 108.125 37.25 C108.84517804 34.96171706 108.84517804 34.96171706 109.3125 32.375 C109.49167969 31.51132813 109.67085937 30.64765625 109.85546875 29.7578125 C110.12719527 27.22957443 109.75847643 25.67151474 109.125 23.25 C109.475625 22.3425 109.82625 21.435 110.1875 20.5 C111.64265094 16.47639451 111.64265094 16.47639451 109.125 9.25 C101.865 9.25 94.605 9.25 87.125 9.25 C87.125 11.23 87.125 13.21 87.125 15.25 C86.8465625 16.425625 86.8465625 16.425625 86.5625 17.625 C86.13477476 20.19135144 86.28918474 21.83689814 86.6875 24.375 C87.125 28.25 87.125 28.25 85.125 31.25 C83.64 30.755 83.64 30.755 82.125 30.25 C82.455 29.59 82.785 28.93 83.125 28.25 C83.25826226 25.25159924 83.22971455 22.6688582 82.5 19.75 C82.00884975 16.47566499 82.92359964 14.28883622 84.125 11.25 C83.465 11.25 82.805 11.25 82.125 11.25 C81.135 10.26 81.135 10.26 80.125 9.25 C78.18631877 8.95879727 78.18631877 8.95879727 75.95068359 9.02294922 C75.08994232 9.02310028 74.22920105 9.02325134 73.34237671 9.02340698 C72.41212677 9.03372955 71.48187683 9.04405212 70.5234375 9.0546875 C69.57183746 9.0575174 68.62023743 9.06034729 67.63980103 9.06326294 C64.59307408 9.07448011 61.54663846 9.09958737 58.5 9.125 C56.43750424 9.13502782 54.37500388 9.14415401 52.3125 9.15234375 C47.24988733 9.17442446 42.1874931 9.2089647 37.125 9.25 C37.145625 10.18972656 37.16625 11.12945312 37.1875 12.09765625 C37.125 15.25 37.125 15.25 36.125 17.6875 C34.91923 20.2963309 34.91923 20.2963309 35.1875 23.5 C35.10139935 28.66603921 34.08945354 34.08957907 30.51953125 38.015625 C30.05933594 38.42296875 29.59914063 38.8303125 29.125 39.25 C28.135 38.92 27.145 38.59 26.125 38.25 C27.0840625 36.950625 27.0840625 36.950625 28.0625 35.625 C30.13480014 32.23396341 30.70252535 30.13676677 31.125 26.25 C31.33125 25.569375 31.5375 24.88875 31.75 24.1875 C32.27893796 22.13232882 32.27893796 22.13232882 31.5625 19.625 C31.418125 18.84125 31.27375 18.0575 31.125 17.25 C31.785 16.59 32.445 15.93 33.125 15.25 C33.29181109 12.16652174 33.29181109 12.16652174 33.125 9.25 C32.13242187 9.28480469 31.13984375 9.31960937 30.1171875 9.35546875 C8.5598749 9.87324994 8.5598749 9.87324994 0.125 4.25 C-0.5246875 5.24 -0.5246875 5.24 -1.1875 6.25 C-1.744375 6.91 -2.30125 7.57 -2.875 8.25 C-3.865 8.25 -4.855 8.25 -5.875 8.25 C-3.71305668 0.32287449 -3.71305668 0.32287449 0 0 Z " fill="#101010" transform="translate(431.875,215.75)"/>
<path d="M0 0 C1.45847275 0.03646182 2.91682462 0.07813008 4.375 0.125 C5.57125 0.125 6.7675 0.125 8 0.125 C12.31541553 1.40364164 13.86781727 3.26193426 16.34765625 6.92578125 C18.37136342 11.25789965 16.80162329 14.84513012 15.375 19.125 C14.715 19.125 14.055 19.125 13.375 19.125 C13.375 19.785 13.375 20.445 13.375 21.125 C11.9828125 21.99125 11.9828125 21.99125 10.5625 22.875 C7.01863286 25.37655328 6.04595679 27.19825153 4.375 31.125 C3.385 32.61 3.385 32.61 2.375 34.125 C1.715 34.125 1.055 34.125 0.375 34.125 C0.375 34.785 0.375 35.445 0.375 36.125 C-3.585 38.105 -7.545 40.085 -11.625 42.125 C-11.955 41.465 -12.285 40.805 -12.625 40.125 C-14.64963255 39.47286708 -14.64963255 39.47286708 -16.625 39.125 C-15.99851562 39.08761719 -15.37203125 39.05023438 -14.7265625 39.01171875 C-13.90929687 38.94597656 -13.09203125 38.88023437 -12.25 38.8125 C-11.43789063 38.75449219 -10.62578125 38.69648438 -9.7890625 38.63671875 C-7.24578662 38.29509472 -7.24578662 38.29509472 -5.625 35.125 C-5.29224136 31.21508592 -5.42112081 28.43081879 -7.625 25.125 C-8.285 24.795 -8.945 24.465 -9.625 24.125 C-9.295 23.135 -8.965 22.145 -8.625 21.125 C-8.39126336 17.64059275 -8.24367672 14.15724692 -8.1015625 10.66796875 C-7.32800018 4.91697676 -6.14108037 0.21176139 0 0 Z " fill="#C9C9C9" transform="translate(421.625,222.875)"/>
<path d="M0 0 C0.9389209 0.14872559 1.8778418 0.29745117 2.84521484 0.45068359 C12.72169903 1.90917305 22.22868851 2.12646556 32.19158936 1.7230835 C35.52820003 1.58859471 38.86555645 1.48347982 42.20315552 1.37686157 C43.85755511 1.32392903 45.51191466 1.26972862 47.16622925 1.21420288 C93.35832866 -0.32083567 93.35832866 -0.32083567 106 6 C110.32397361 6.42391898 113.08790562 6.19229272 116.75 3.9375 C117.8225 3.298125 118.895 2.65875 120 2 C123 3 123 3 126 5 C125.07767578 5.16435547 125.07767578 5.16435547 124.13671875 5.33203125 C122.92435547 5.56986328 122.92435547 5.56986328 121.6875 5.8125 C120.48673828 6.03873047 120.48673828 6.03873047 119.26171875 6.26953125 C116.9267879 6.82421496 116.9267879 6.82421496 115.5 8.58203125 C114 10 114 10 111.80078125 10.1796875 C110.97964844 10.07914063 110.15851563 9.97859375 109.3125 9.875 C108.50425781 9.78992188 107.69601562 9.70484375 106.86328125 9.6171875 C104 9 104 9 100.35180664 7.4934082 C96.00544639 5.84652114 92.12299071 5.52788204 87.5078125 5.48828125 C86.70037598 5.47037537 85.89293945 5.45246948 85.06103516 5.434021 C82.4157431 5.37951842 79.77063675 5.34579545 77.125 5.3125 C75.26935146 5.2781711 73.4137198 5.24291815 71.55810547 5.20678711 C61.80925941 5.03238215 52.06272853 4.9816989 42.3125 5.015625 C40.89636917 5.01981697 40.89636917 5.01981697 39.45162964 5.02409363 C34.92067039 5.03988888 30.3905231 5.06964607 25.85986328 5.12426758 C17.02783841 5.20289553 8.67546071 4.93402681 0 3 C0 2.01 0 1.02 0 0 Z " fill="#0E0E0E" transform="translate(284,231)"/>
<path d="M0 0 C0.66 0.33 1.32 0.66 2 1 C1.31164062 1.70962891 1.31164062 1.70962891 0.609375 2.43359375 C-8.32050342 12.05760138 -11.18995632 22.48253067 -11.265625 35.421875 C-10.9717877 38.27382531 -10.09503111 40.35904261 -9 43 C-8.55851385 45.07821531 -8.14336465 47.16214149 -7.75 49.25 C-6.35915452 55.50880467 -4.08608924 60.08392388 0 65 C0.41765625 65.54140625 0.8353125 66.0828125 1.265625 66.640625 C3.87689228 68.68729395 6.51815669 68.99388897 9.75 69.625 C10.94109375 69.86476563 12.1321875 70.10453125 13.359375 70.3515625 C16.8982833 70.98188308 20.4383808 71.51598508 24 72 C22.32258336 75.96480297 19.87873138 78.84041677 17 82 C15.515 82.495 15.515 82.495 14 83 C14.33 82.236875 14.66 81.47375 15 80.6875 C16.17436686 78.00930865 16.17436686 78.00930865 16 75 C14.87896744 73.66895382 14.87896744 73.66895382 12 73.6875 C4.85465018 72.70446419 -1.27215451 69.87900053 -5.72265625 64.109375 C-9.64674022 57.62923634 -11.35665385 50.29795756 -12.60546875 42.8984375 C-12.81944539 40.99774173 -12.81944539 40.99774173 -14 40 C-15.13196686 28.48627998 -14.2716529 14.43529535 -6.6640625 5.1484375 C-4.52220103 3.2363025 -2.41290499 1.55077771 0 0 Z " fill="#040404" transform="translate(177,179)"/>
<path d="M0 0 C2.1640625 -0.29296875 2.1640625 -0.29296875 4.625 -0.1875 C5.44226563 -0.16042969 6.25953125 -0.13335937 7.1015625 -0.10546875 C8.04128906 -0.05326172 8.04128906 -0.05326172 9 0 C11.99862039 5.08461719 12.56214095 9.22026059 13 15 C17.95 14.34 22.9 13.68 28 13 C28 13.33 28 13.66 28 14 C29.98 14.33 31.96 14.66 34 15 C34 15.33 34 15.66 34 16 C31.10496617 16.50505263 28.20912047 17.0042022 25.3125 17.5 C24.49587891 17.64308594 23.67925781 17.78617188 22.83789062 17.93359375 C18.85021752 18.61165962 15.06269596 19.19858392 11 19 C10.49595192 16.89679937 9.99689492 14.79240209 9.5 12.6875 C9.2215625 11.51574219 8.943125 10.34398437 8.65625 9.13671875 C8 6 8 6 8 3 C5.69 3 3.38 3 1 3 C0.91959473 3.59538574 0.83918945 4.19077148 0.75634766 4.80419922 C0.38791016 7.49573761 0.00662173 10.18530069 -0.375 12.875 C-0.50132812 13.81214844 -0.62765625 14.74929687 -0.7578125 15.71484375 C-0.88671875 16.61074219 -1.015625 17.50664062 -1.1484375 18.4296875 C-1.26364746 19.25710449 -1.37885742 20.08452148 -1.49755859 20.93701172 C-2 23 -2 23 -4 25 C-6.63233792 25.8563027 -9.29546818 26.38929927 -12 27 C-11.375 25.125 -11.375 25.125 -10 23 C-6.875 21.75 -6.875 21.75 -4 21 C-3.93941406 20.3709375 -3.87882813 19.741875 -3.81640625 19.09375 C-3.55221972 16.39498302 -3.27627859 13.69755349 -3 11 C-2.9278125 10.22785156 -2.855625 9.45570313 -2.78125 8.66015625 C-2.40482394 5.05049925 -2.05136819 3.07705228 0 0 Z " fill="#0D0D0D" transform="translate(190,155)"/>
<path d="M0 0 C8.58 0 17.16 0 26 0 C25.2841869 6.44231788 24.50665994 11.74056673 22.75 17.8125 C22.55792969 18.54919922 22.36585938 19.28589844 22.16796875 20.04492188 C20.76954338 24.91302528 19.25032357 27.00641662 15 30 C14.49864801 32.62778044 14.49864801 32.62778044 15 35 C16.58272601 36.58272601 18.38034003 36.34735747 20.5625 36.5625 C21.38878906 36.64628906 22.21507812 36.73007812 23.06640625 36.81640625 C24.02353516 36.90728516 24.02353516 36.90728516 25 37 C24.67 37.99 24.34 38.98 24 40 C15.84615385 40.61538462 15.84615385 40.61538462 12.9375 38.5 C11.58827426 34.90206468 11.11381523 31.73055201 12 28 C13.42072177 26.44711807 14.84905482 24.89979396 16.33203125 23.40625 C20.19191539 17.83789255 21.34911413 10.49397139 23 4 C21.31699331 2.31699331 19.17991273 2.77190923 16.87109375 2.68359375 C15.83662109 2.64169922 14.80214844 2.59980469 13.73632812 2.55664062 C12.64771484 2.51732422 11.55910156 2.47800781 10.4375 2.4375 C9.34501953 2.39431641 8.25253906 2.35113281 7.12695312 2.30664062 C4.41810436 2.20017932 1.70916008 2.09816484 -1 2 C-0.67 1.34 -0.34 0.68 0 0 Z " fill="#050505" transform="translate(317,245)"/>
<path d="M0 0 C0.91136719 0.14872559 1.82273437 0.29745117 2.76171875 0.45068359 C14.268292 2.12944111 25.40126048 2.0482199 37 1.625 C38.85413119 1.5665715 40.70829836 1.50927336 42.5625 1.453125 C47.04218689 1.31506436 51.52111322 1.16187977 56 1 C55.34 2.32 54.68 3.64 54 5 C48.2382937 5.04989487 42.47671658 5.08595113 36.71484375 5.10986328 C34.7597433 5.11984485 32.80465748 5.13343487 30.84960938 5.15087891 C10.01657633 5.3319431 10.01657633 5.3319431 0 3 C0 2.01 0 1.02 0 0 Z " fill="#171717" transform="translate(284,231)"/>
<path d="M0 0 C0.33 0.99 0.66 1.98 1 3 C-0.13888672 3.11214844 -0.13888672 3.11214844 -1.30078125 3.2265625 C-7.52911541 3.87102538 -7.52911541 3.87102538 -12.1875 7.625 C-13.3115836 12.29427036 -14.1061756 16.63389466 -11.98828125 21.1640625 C-9.0079363 23.91605096 -5.69147105 23.92477623 -1.8125 24.25 C-0.68811523 24.36601562 -0.68811523 24.36601562 0.45898438 24.484375 C2.30441097 24.67244395 4.1520687 24.83838576 6 25 C6 25.66 6 26.32 6 27 C3.60347472 27.08139142 1.20974564 27.14067009 -1.1875 27.1875 C-1.86103516 27.21263672 -2.53457031 27.23777344 -3.22851562 27.26367188 C-7.69795374 27.32907829 -10.5083992 26.84051619 -14 24 C-17.07969959 19.5764315 -16.62681867 14.15632981 -16 9 C-14.63283422 5.73041014 -12.49769227 3.49769227 -10 1 C-6.68421778 -0.18420794 -3.49088913 -0.07933839 0 0 Z " fill="#070707" transform="translate(207,196)"/>
<path d="M0 0 C1.66565749 0.15222973 3.33656496 0.24917215 5.0078125 0.31640625 C5.99394531 0.35830078 6.98007812 0.40019531 7.99609375 0.44335938 C9.54490234 0.50233398 9.54490234 0.50233398 11.125 0.5625 C12.68541016 0.62727539 12.68541016 0.62727539 14.27734375 0.69335938 C16.85142528 0.7996288 19.42560508 0.90166583 22 1 C22 1.33 22 1.66 22 2 C21.1028125 2.02505615 20.205625 2.0501123 19.28125 2.07592773 C15.91900569 2.17166313 12.55689888 2.27085629 9.19482422 2.37231445 C7.74597085 2.41534491 6.2970771 2.45703893 4.84814453 2.49731445 C-4.33444251 2.67878009 -4.33444251 2.67878009 -13.46875 3.53125 C-17.51508863 4.0683746 -21.42638283 4.11153428 -25.5 4.0625 C-26.22703125 4.05798828 -26.9540625 4.05347656 -27.703125 4.04882812 C-29.46878681 4.03721193 -31.2344053 4.01928441 -33 4 C-32.67 3.01 -32.34 2.02 -32 1 C-27.76464533 0.68966056 -23.52884811 0.38668716 -19.29248047 0.09057617 C-17.8509292 -0.01123197 -16.40951937 -0.11506361 -14.96826172 -0.22094727 C-12.89844939 -0.37265753 -10.82824008 -0.51712036 -8.7578125 -0.66015625 C-7.5114502 -0.74918213 -6.26508789 -0.83820801 -4.98095703 -0.92993164 C-2 -1 -2 -1 0 0 Z " fill="#181818" transform="translate(317,246)"/>
<path d="M0 0 C0.33 0 0.66 0 1 0 C1.50588674 8.09418785 -0.88682972 14.6430856 -6 21 C-9.37910814 24.64092766 -12.09547378 26.90897485 -17.1875 27.15234375 C-20.16546891 26.90300909 -23.06154998 26.53871584 -26 26 C-25 24 -25 24 -22.25 22.8125 C-19 22 -19 22 -16.5 22.6875 C-13.74666541 23.30521575 -13.74666541 23.30521575 -10.9375 21 C-5.5370475 15.94573035 -3.49663324 10.00430842 -1.61328125 3.0390625 C-1 1 -1 1 0 0 Z " fill="#060606" transform="translate(603,256)"/>
<path d="M0 0 C9.24 0 18.48 0 28 0 C27.67 0.99 27.34 1.98 27 3 C18.42 3 9.84 3 1 3 C0.67 2.01 0.34 1.02 0 0 Z " fill="#222222" transform="translate(193,230)"/>
<path d="M0 0 C0.66 0.66 1.32 1.32 2 2 C1.67 2.680625 1.34 3.36125 1 4.0625 C-0.18453566 6.99578446 -0.18453566 6.99578446 0.0625 10.25 C-0.02360065 15.41603921 -1.03554646 20.83957907 -4.60546875 24.765625 C-5.06566406 25.17296875 -5.52585937 25.5803125 -6 26 C-6.99 25.67 -7.98 25.34 -9 25 C-8.360625 24.13375 -7.72125 23.2675 -7.0625 22.375 C-4.99019986 18.98396341 -4.42247465 16.88676677 -4 13 C-3.79375 12.319375 -3.5875 11.63875 -3.375 10.9375 C-2.83067246 8.89287506 -2.83067246 8.89287506 -3.6875 6.5 C-3.790625 5.675 -3.89375 4.85 -4 4 C-2.0625 1.6875 -2.0625 1.6875 0 0 Z " fill="#000000" transform="translate(467,229)"/>
<path d="M0 0 C2.60427663 2.60427663 2.50528695 4.39566205 3 8 C3.32871094 9.1446875 3.32871094 9.1446875 3.6640625 10.3125 C4.10572171 13.84577369 3.19396203 15.92627731 1.8125 19.1875 C1.38582031 20.23292969 0.95914063 21.27835938 0.51953125 22.35546875 C-1.09002716 25.15667966 -2.00308155 25.95396637 -5 27 C-4.00734643 24.46170776 -2.98445893 21.96695587 -1.82421875 19.5 C-0.69196301 17.00981554 0.30720879 14.64839171 1 12 C-0.20968895 9.2332494 -0.20968895 9.2332494 -2 7 C-1.58333333 1.58333333 -1.58333333 1.58333333 0 0 Z " fill="#000000" transform="translate(584,231)"/>
<path d="M0 0 C2 2 2 2 2.01171875 4.3203125 C1.90472656 5.24585938 1.79773438 6.17140625 1.6875 7.125 C1.51927734 8.60226563 1.51927734 8.60226563 1.34765625 10.109375 C1.23292969 11.06328125 1.11820313 12.0171875 1 13 C0.93683594 13.76828125 0.87367188 14.5365625 0.80859375 15.328125 C0.42512106 19.6034375 -0.49052942 22.50856266 -3 26 C-3.99 25.34 -4.98 24.68 -6 24 C-5.34 23.34 -4.68 22.68 -4 22 C-3.27982196 19.71171706 -3.27982196 19.71171706 -2.8125 17.125 C-2.63332031 16.26132813 -2.45414063 15.39765625 -2.26953125 14.5078125 C-1.85548873 12.05460461 -1.85548873 12.05460461 -2.5390625 9.9453125 C-3.13919757 7.41253908 -2.55294951 6.12707883 -1.5625 3.75 C-1.27503906 3.04359375 -0.98757813 2.3371875 -0.69140625 1.609375 C-0.34916016 0.81273437 -0.34916016 0.81273437 0 0 Z " fill="#000000" transform="translate(544,231)"/>
<path d="M0 0 C1.875 0.1875 1.875 0.1875 4 1 C6.38879811 4.98133018 5.79447983 7.58622317 5 12 C5.2644354 14.34214207 5.58244638 16.68025766 6 19 C5.01 18.67 4.02 18.34 3 18 C0.62790698 11.22259136 0.62790698 11.22259136 1.875 7.125 C2.24625 6.42375 2.6175 5.7225 3 5 C3 4.34 3 3.68 3 3 C2.01 3 1.02 3 0 3 C0 2.01 0 1.02 0 0 Z " fill="#000000" transform="translate(563,253)"/>
<path d="M0 0 C0.99 0.33 1.98 0.66 3 1 C4.00344253 7.30735307 4.50873071 13.63440427 5 20 C4.01 19.67 3.02 19.34 2 19 C-0.08254633 13.95301272 -0.10550722 9.28186783 1 4 C0.6422386 1.72349255 0.6422386 1.72349255 0 0 Z " fill="#000000" transform="translate(484,250)"/>
<path d="M0 0 C0.66 0.33 1.32 0.66 2 1 C1.814375 1.66 1.62875 2.32 1.4375 3 C1.03842212 5.73653403 1.13760553 7.4471767 1.5625 10.125 C2 14 2 14 0 17 C-0.99 16.67 -1.98 16.34 -3 16 C-2.67 15.34 -2.34 14.68 -2 14 C-1.86270799 10.91092972 -1.91919487 8.31587458 -2.6875 5.3125 C-2.790625 4.549375 -2.89375 3.78625 -3 3 C-1.5625 1.1875 -1.5625 1.1875 0 0 Z " fill="#000000" transform="translate(517,230)"/>
<path d="M0 0 C0.99 0.66 1.98 1.32 3 2 C2.07767578 2.16435547 2.07767578 2.16435547 1.13671875 2.33203125 C0.32847656 2.49058594 -0.47976563 2.64914063 -1.3125 2.8125 C-2.51326172 3.03873047 -2.51326172 3.03873047 -3.73828125 3.26953125 C-6.26421426 4.08533345 -7.17956204 5.13876791 -9 7 C-9.99 7 -10.98 7 -12 7 C-12 6.01 -12 5.02 -12 4 C-10.56988027 3.13353333 -9.13059381 2.28218171 -7.6875 1.4375 C-6.48673828 0.72400391 -6.48673828 0.72400391 -5.26171875 -0.00390625 C-3 -1 -3 -1 0 0 Z " fill="#1C1C1C" transform="translate(407,234)"/>
<path d="M0 0 C3 3 3 3 3.07421875 5.26171875 C2.94660156 6.06222656 2.81898438 6.86273438 2.6875 7.6875 C2.50767578 8.89986328 2.50767578 8.89986328 2.32421875 10.13671875 C2.21722656 10.75160156 2.11023438 11.36648437 2 12 C1.34 12 0.68 12 0 12 C-0.99 11.01 -1.98 10.02 -3 9 C-2.01 6.03 -1.02 3.06 0 0 Z " fill="#F5F5F5" transform="translate(415,238)"/>
<path d="M0 0 C2.97 0 5.94 0 9 0 C9 0.33 9 0.66 9 1 C11.97 1.495 11.97 1.495 15 2 C15 2.33 15 2.66 15 3 C9.72 3 4.44 3 -1 3 C-0.67 2.01 -0.34 1.02 0 0 Z " fill="#2B2B2B" transform="translate(285,247)"/>
<path d="M0 0 C0 0.33 0 0.66 0 1 C-5.72040011 1.8320582 -11.22240116 2.12036664 -17 2 C-11.93175831 -3.51412806 -6.52474877 -1.91242636 0 0 Z " fill="#222222" transform="translate(224,170)"/>
<path d="M0 0 C0.33 0 0.66 0 1 0 C1.33 5.94 1.66 11.88 2 18 C-0.49059397 13.01881207 -1.2136995 10.24901803 -0.5625 4.75 C-0.46066406 3.85796875 -0.35882812 2.9659375 -0.25390625 2.046875 C-0.17011719 1.37140625 -0.08632813 0.6959375 0 0 Z " fill="#242424" transform="translate(603,242)"/>
<path d="M0 0 C1.32 0 2.64 0 4 0 C4 1.65 4 3.3 4 5 C2.68 4.67 1.36 4.34 0 4 C0 2.68 0 1.36 0 0 Z " fill="#020202" transform="translate(179,194)"/>
<path d="M0 0 C2.475 0.495 2.475 0.495 5 1 C4.67 1.99 4.34 2.98 4 4 C2.68 4 1.36 4 0 4 C0 2.68 0 1.36 0 0 Z " fill="#080808" transform="translate(225,191)"/>
</svg>
