<?xml version="1.0" encoding="UTF-8"?>
<svg version="1.1" xmlns="http://www.w3.org/2000/svg" width="800" height="300">
<path d="M0 0 C264 0 528 0 800 0 C800 99 800 198 800 300 C536 300 272 300 0 300 C0 201 0 102 0 0 Z " fill="#FEFEFE" transform="translate(0,0)"/>
<path d="M0 0 C3.12356778 2.44820177 3.54557701 3.90816476 4.3125 7.8125 C4.45924726 11.48624168 4.43017757 15.13834472 4.3125 18.8125 C5.055 18.915625 5.7975 19.01875 6.5625 19.125 C9.58597408 19.88086852 11.09385543 20.6377407 13.3125 22.8125 C14.18359375 24.9921875 14.18359375 24.9921875 14.75 27.6875 C14.98460937 28.74839844 15.21921875 29.80929688 15.4609375 30.90234375 C15.59081055 31.51062012 15.72068359 32.11889648 15.85449219 32.74560547 C16.37896775 35.1124552 16.95598723 37.46331264 17.5390625 39.81640625 C19.71174353 48.63121495 21.78253469 57.26367974 22.66015625 66.31640625 C23.50158255 69.53599551 24.70017362 70.78372995 27.3125 72.8125 C29.6432294 73.70219589 29.6432294 73.70219589 32.0625 74.0625 C32.86171875 74.21203125 33.6609375 74.3615625 34.484375 74.515625 C35.08765625 74.61359375 35.6909375 74.7115625 36.3125 74.8125 C36.3125 75.4725 36.3125 76.1325 36.3125 76.8125 C46.39776995 77.79142448 56.24375216 77.81309972 66.35321045 77.46014404 C70.55007522 77.31484272 74.74770431 77.19578222 78.9453125 77.07421875 C79.76432037 77.05002869 80.58332825 77.02583862 81.42715454 77.00091553 C127.99313579 75.6528179 127.99313579 75.6528179 140.3125 81.8125 C144.53529846 82.22649985 147.26672028 82.07763693 150.8125 79.8125 C154.37359004 77.5507266 157.07139087 77.32314125 161.3125 77.8125 C162.3025 78.4725 163.2925 79.1325 164.3125 79.8125 C164.67578125 81.87109375 164.67578125 81.87109375 164.625 84.25 C164.62113281 85.03246094 164.61726562 85.81492187 164.61328125 86.62109375 C164.3125 88.8125 164.3125 88.8125 162.3125 91.8125 C163.3025 92.1425 164.2925 92.4725 165.3125 92.8125 C167.58955935 96.04832118 167.7161398 98.93755789 167.3125 102.8125 C166.375 105.1875 166.375 105.1875 164.3125 106.8125 C158.31450899 107.87801138 153.62953882 106.52758365 148.3125 103.8125 C148.065 104.410625 147.8175 105.00875 147.5625 105.625 C146.0582326 108.25746795 144.98742092 109.3665968 142.3125 110.8125 C138.5625 111 138.5625 111 135.3125 110.8125 C134.9825 109.1625 134.6525 107.5125 134.3125 105.8125 C133.384375 106.29976562 133.384375 106.29976562 132.4375 106.796875 C128.03888235 108.22642574 123.90707965 108.10245287 119.3125 108.0625 C118.42304688 108.07023437 117.53359375 108.07796875 116.6171875 108.0859375 C112.08642591 108.07241284 108.41986644 107.96886738 104.3125 105.8125 C104.3125 104.8225 104.3125 103.8325 104.3125 102.8125 C103.6525 102.8125 102.9925 102.8125 102.3125 102.8125 C100.13063775 108.91651939 98.99182036 114.18638615 99.3046875 120.68359375 C99.3125 122.8125 99.3125 122.8125 98.3125 125.8125 C93.65035571 129.21198021 90.06534112 130.50345556 84.26953125 130.1875 C82.3125 129.8125 82.3125 129.8125 80.25 128.3125 C78.90077426 124.71456468 78.42631523 121.54305201 79.3125 117.8125 C80.73322177 116.25961807 82.16155482 114.71229396 83.64453125 113.21875 C87.50441539 107.65039255 88.66161413 100.30647139 90.3125 93.8125 C74.30041566 93.61248357 58.47726589 93.56425622 42.52270508 95.09887695 C33.36640286 95.93099668 24.26751359 95.95496375 15.07885742 95.82617188 C14.00611572 95.81263672 12.93337402 95.79910156 11.828125 95.78515625 C10.88227539 95.76718994 9.93642578 95.74922363 8.96191406 95.73071289 C6.29556652 95.81302273 3.91465371 96.2494905 1.3125 96.8125 C-2.55272859 97.10919132 -6.41839695 97.31832537 -10.2890625 97.53125 C-13.6735735 97.67624331 -13.6735735 97.67624331 -16.6875 98.8125 C-16.61387408 101.90478877 -16.38903709 104.07588606 -14.203125 106.37109375 C-12.96877786 107.3865289 -11.72359608 108.38891498 -10.46875 109.37890625 C-6.22136741 112.79730408 -3.85568863 116.5025517 -2.6875 121.8125 C-2.75883896 125.95015963 -3.04740918 128.03238932 -5.6875 131.25 C-9.80442008 133.39422921 -13.15199511 133.97422581 -17.6875 132.8125 C-20.54452427 130.93502691 -22.21569356 128.89093484 -23.6875 125.8125 C-24.46247974 121.28418701 -23.88859122 117.20988356 -22.6875 112.8125 C-23.62722656 112.30589844 -23.62722656 112.30589844 -24.5859375 111.7890625 C-25.40320313 111.34304688 -26.22046875 110.89703125 -27.0625 110.4375 C-28.28066406 109.77621094 -28.28066406 109.77621094 -29.5234375 109.1015625 C-31.6875 107.8125 -31.6875 107.8125 -33.6875 105.8125 C-33.8125 102.6875 -33.8125 102.6875 -33.6875 99.8125 C-39.51100605 103.36341832 -44.78087495 107.53310492 -48.25 113.5 C-48.93779525 115.80715105 -48.93779525 115.80715105 -47.703125 117.640625 C-46.45379367 120.31227199 -46.57163092 121.96001882 -46.875 124.875 C-46.95105469 125.73222656 -47.02710938 126.58945312 -47.10546875 127.47265625 C-47.79460934 130.24309391 -48.29566123 131.24702613 -50.6875 132.8125 C-54.78311079 133.18116257 -58.6861273 132.73546856 -62.6875 131.8125 C-65.54431742 129.22143303 -67.43752192 126.66233781 -67.9609375 122.7890625 C-67.99445313 122.01304687 -68.02796875 121.23703125 -68.0625 120.4375 C-68.11148438 119.66664063 -68.16046875 118.89578125 -68.2109375 118.1015625 C-67.44934697 114.77102481 -65.34920649 113.87292891 -62.6875 111.8125 C-60.6182853 108.81380467 -60.6182853 108.81380467 -58.875 105.5625 C-58.27042969 104.48484375 -57.66585937 103.4071875 -57.04296875 102.296875 C-56.59566406 101.47703125 -56.14835937 100.6571875 -55.6875 99.8125 C-57.58320507 97.50618028 -57.58320507 97.50618028 -60.75 97.4375 C-67.95701453 96.29352944 -73.87737125 93.79817245 -78.41015625 87.921875 C-82.33424022 81.44173634 -84.04415385 74.11045756 -85.29296875 66.7109375 C-85.50694539 64.81024173 -85.50694539 64.81024173 -86.6875 63.8125 C-87.82839673 52.20795041 -86.78066444 38.73802148 -79.66796875 29.06640625 C-74.99778047 24.60887103 -69.95012555 22.23380509 -63.6875 20.8125 C-63.59662109 19.86890625 -63.59662109 19.86890625 -63.50390625 18.90625 C-63.23971972 16.20748302 -62.96377859 13.51005349 -62.6875 10.8125 C-62.6153125 10.04035156 -62.543125 9.26820313 -62.46875 8.47265625 C-62.09232394 4.86299925 -61.73886819 2.88955228 -59.6875 -0.1875 C-57.5234375 -0.48046875 -57.5234375 -0.48046875 -55.0625 -0.375 C-54.24523437 -0.34792969 -53.42796875 -0.32085937 -52.5859375 -0.29296875 C-51.95945313 -0.25816406 -51.33296875 -0.22335938 -50.6875 -0.1875 C-48.56338592 3.41425866 -47.47759114 6.41298734 -47.08984375 10.53515625 C-47.01113037 11.33832275 -46.93241699 12.14148926 -46.85131836 12.96899414 C-46.77022827 13.88152954 -46.77022827 13.88152954 -46.6875 14.8125 C-45.92606689 14.69132812 -45.16463379 14.57015625 -44.38012695 14.4453125 C-40.92069967 13.89707564 -37.46037382 13.35472904 -34 12.8125 C-32.80181641 12.62171875 -31.60363281 12.4309375 -30.36914062 12.234375 C-29.21220703 12.05390625 -28.05527344 11.8734375 -26.86328125 11.6875 C-25.26867065 11.43613281 -25.26867065 11.43613281 -23.6418457 11.1796875 C-20.94979003 10.84509931 -18.39587469 10.74243695 -15.6875 10.8125 C-15.44966797 9.78189453 -15.44966797 9.78189453 -15.20703125 8.73046875 C-13.30370606 1.38005821 -13.30370606 1.38005821 -10.3125 -1.375 C-6.18098399 -2.65380258 -3.86357412 -1.70716066 0 0 Z " fill="#F9F9F9" transform="translate(249.6875,155.1875)"/>
<path d="M0 0 C0.66 0.845625 1.32 1.69125 2 2.5625 C6.32001529 6.07251242 10.01420795 5.47226205 15.4296875 5.37109375 C19.01158558 5.11083078 19.01158558 5.11083078 22.37890625 3.98828125 C26.72194312 2.80296482 30.58676641 2.69963072 35.0625 2.75 C35.917229 2.75459229 36.77195801 2.75918457 37.65258789 2.76391602 C48.61101098 2.91359687 60.01807355 3.39913677 70.78515625 5.55859375 C77.82494371 6.9615849 85.40862453 6.05185983 92.53857422 5.63916016 C102.97627002 5.0490504 113.4101612 4.83154549 123.86279297 4.76782227 C125.52755234 4.75601202 127.19228348 4.73898605 128.85693359 4.71655273 C131.22511537 4.68641051 133.59258459 4.67661354 135.9609375 4.671875 C136.6675351 4.65956848 137.37413269 4.64726196 138.10214233 4.63458252 C143.17862453 4.65691008 146.57350682 5.69058656 151 8 C152.125 9.9375 152.125 9.9375 153 12 C154.65788785 13.34423339 156.32576317 14.67618483 158 16 C163.84894313 22.41957172 167.43621605 28.36216048 168.3125 37.125 C167.50377503 47.15318958 162.21584103 58.61016824 155.5 66.125 C150.59544727 69.80341455 144.51979135 69.12705331 138.61328125 69.0625 C137.79796432 69.05871338 136.9826474 69.05492676 136.1426239 69.05102539 C132.69405414 69.03497515 129.245609 69.00760761 125.79711914 68.97949219 C116.32798193 68.90916536 106.89614519 68.97192316 97.43473816 69.39630127 C82.70750233 70.05617987 68.09029734 69.91511423 53.35986328 69.38574219 C49.44729389 69.24814645 45.53447789 69.13517907 41.62109375 69.0234375 C39.09109647 68.93896567 36.56114587 68.85308136 34.03125 68.765625 C32.88217163 68.73422424 31.73309326 68.70282349 30.54919434 68.67047119 C20.3765977 68.26996198 8.83441329 66.94475681 1.34765625 59.31640625 C-2.75343899 54.33292377 -4.52989745 49.21885106 -6 43 C-6.27457031 41.98873047 -6.27457031 41.98873047 -6.5546875 40.95703125 C-7.34457926 37.48566481 -7.28335496 34.5702725 -7 31 C-5.125 29 -5.125 29 -3 28 C-2.34 28 -1.68 28 -1 28 C-1 27.34 -1 26.68 -1 26 C-0.34 26 0.32 26 1 26 C1.27599507 24.23303157 1.51996915 22.46103785 1.75 20.6875 C1.88921875 19.70136719 2.0284375 18.71523437 2.171875 17.69921875 C2.08679688 16.36310547 2.08679688 16.36310547 2 15 C0.06783244 13.31114242 0.06783244 13.31114242 -2 12 C-2 11.01 -2 10.02 -2 9 C-4.97 8.67 -7.94 8.34 -11 8 C-10.51970669 2.59670027 -10.51970669 2.59670027 -8.3125 0.0625 C-5.04648863 -1.43809982 -3.39944043 -1.11002137 0 0 Z " fill="#646464" transform="translate(436,216)"/>
<path d="M0 0 C3.12356778 2.44820177 3.54557701 3.90816476 4.3125 7.8125 C4.45924726 11.48624168 4.43017757 15.13834472 4.3125 18.8125 C5.055 18.915625 5.7975 19.01875 6.5625 19.125 C9.58597408 19.88086852 11.09385543 20.6377407 13.3125 22.8125 C14.18359375 24.9921875 14.18359375 24.9921875 14.75 27.6875 C14.98460937 28.74839844 15.21921875 29.80929688 15.4609375 30.90234375 C15.59081055 31.51062012 15.72068359 32.11889648 15.85449219 32.74560547 C16.37896775 35.1124552 16.95598723 37.46331264 17.5390625 39.81640625 C19.71174353 48.63121495 21.78253469 57.26367974 22.66015625 66.31640625 C23.50158255 69.53599551 24.70017362 70.78372995 27.3125 72.8125 C29.6432294 73.70219589 29.6432294 73.70219589 32.0625 74.0625 C32.86171875 74.21203125 33.6609375 74.3615625 34.484375 74.515625 C35.08765625 74.61359375 35.6909375 74.7115625 36.3125 74.8125 C36.3125 75.4725 36.3125 76.1325 36.3125 76.8125 C46.39776995 77.79142448 56.24375216 77.81309972 66.35321045 77.46014404 C70.55007522 77.31484272 74.74770431 77.19578222 78.9453125 77.07421875 C79.76432037 77.05002869 80.58332825 77.02583862 81.42715454 77.00091553 C127.99313579 75.6528179 127.99313579 75.6528179 140.3125 81.8125 C144.53529846 82.22649985 147.26672028 82.07763693 150.8125 79.8125 C154.37359004 77.5507266 157.07139087 77.32314125 161.3125 77.8125 C162.3025 78.4725 163.2925 79.1325 164.3125 79.8125 C164.67578125 81.87109375 164.67578125 81.87109375 164.625 84.25 C164.62113281 85.03246094 164.61726562 85.81492187 164.61328125 86.62109375 C164.3125 88.8125 164.3125 88.8125 162.3125 91.8125 C163.3025 92.1425 164.2925 92.4725 165.3125 92.8125 C167.58955935 96.04832118 167.7161398 98.93755789 167.3125 102.8125 C166.375 105.1875 166.375 105.1875 164.3125 106.8125 C158.31450899 107.87801138 153.62953882 106.52758365 148.3125 103.8125 C148.065 104.410625 147.8175 105.00875 147.5625 105.625 C146.0582326 108.25746795 144.98742092 109.3665968 142.3125 110.8125 C138.5625 111 138.5625 111 135.3125 110.8125 C134.9825 109.1625 134.6525 107.5125 134.3125 105.8125 C133.384375 106.29976562 133.384375 106.29976562 132.4375 106.796875 C128.03888235 108.22642574 123.90707965 108.10245287 119.3125 108.0625 C118.42304688 108.07023437 117.53359375 108.07796875 116.6171875 108.0859375 C112.08642591 108.07241284 108.41986644 107.96886738 104.3125 105.8125 C104.3125 104.8225 104.3125 103.8325 104.3125 102.8125 C103.6525 102.8125 102.9925 102.8125 102.3125 102.8125 C100.13063775 108.91651939 98.99182036 114.18638615 99.3046875 120.68359375 C99.3125 122.8125 99.3125 122.8125 98.3125 125.8125 C93.65035571 129.21198021 90.06534112 130.50345556 84.26953125 130.1875 C82.3125 129.8125 82.3125 129.8125 80.25 128.3125 C78.90077426 124.71456468 78.42631523 121.54305201 79.3125 117.8125 C80.73322177 116.25961807 82.16155482 114.71229396 83.64453125 113.21875 C87.50441539 107.65039255 88.66161413 100.30647139 90.3125 93.8125 C74.30041566 93.61248357 58.47726589 93.56425622 42.52270508 95.09887695 C33.36640286 95.93099668 24.26751359 95.95496375 15.07885742 95.82617188 C14.00611572 95.81263672 12.93337402 95.79910156 11.828125 95.78515625 C10.88227539 95.76718994 9.93642578 95.74922363 8.96191406 95.73071289 C6.29556652 95.81302273 3.91465371 96.2494905 1.3125 96.8125 C-2.55272859 97.10919132 -6.41839695 97.31832537 -10.2890625 97.53125 C-13.6735735 97.67624331 -13.6735735 97.67624331 -16.6875 98.8125 C-16.61387408 101.90478877 -16.38903709 104.07588606 -14.203125 106.37109375 C-12.96877786 107.3865289 -11.72359608 108.38891498 -10.46875 109.37890625 C-6.22136741 112.79730408 -3.85568863 116.5025517 -2.6875 121.8125 C-2.75883896 125.95015963 -3.04740918 128.03238932 -5.6875 131.25 C-9.80442008 133.39422921 -13.15199511 133.97422581 -17.6875 132.8125 C-20.54452427 130.93502691 -22.21569356 128.89093484 -23.6875 125.8125 C-24.46247974 121.28418701 -23.88859122 117.20988356 -22.6875 112.8125 C-23.62722656 112.30589844 -23.62722656 112.30589844 -24.5859375 111.7890625 C-25.40320313 111.34304688 -26.22046875 110.89703125 -27.0625 110.4375 C-28.28066406 109.77621094 -28.28066406 109.77621094 -29.5234375 109.1015625 C-31.6875 107.8125 -31.6875 107.8125 -33.6875 105.8125 C-33.8125 102.6875 -33.8125 102.6875 -33.6875 99.8125 C-39.51100605 103.36341832 -44.78087495 107.53310492 -48.25 113.5 C-48.93779525 115.80715105 -48.93779525 115.80715105 -47.703125 117.640625 C-46.45379367 120.31227199 -46.57163092 121.96001882 -46.875 124.875 C-46.95105469 125.73222656 -47.02710938 126.58945312 -47.10546875 127.47265625 C-47.79460934 130.24309391 -48.29566123 131.24702613 -50.6875 132.8125 C-54.78311079 133.18116257 -58.6861273 132.73546856 -62.6875 131.8125 C-65.54431742 129.22143303 -67.43752192 126.66233781 -67.9609375 122.7890625 C-67.99445313 122.01304687 -68.02796875 121.23703125 -68.0625 120.4375 C-68.11148438 119.66664063 -68.16046875 118.89578125 -68.2109375 118.1015625 C-67.44934697 114.77102481 -65.34920649 113.87292891 -62.6875 111.8125 C-60.6182853 108.81380467 -60.6182853 108.81380467 -58.875 105.5625 C-58.27042969 104.48484375 -57.66585937 103.4071875 -57.04296875 102.296875 C-56.59566406 101.47703125 -56.14835937 100.6571875 -55.6875 99.8125 C-57.58320507 97.50618028 -57.58320507 97.50618028 -60.75 97.4375 C-67.95701453 96.29352944 -73.87737125 93.79817245 -78.41015625 87.921875 C-82.33424022 81.44173634 -84.04415385 74.11045756 -85.29296875 66.7109375 C-85.50694539 64.81024173 -85.50694539 64.81024173 -86.6875 63.8125 C-87.82839673 52.20795041 -86.78066444 38.73802148 -79.66796875 29.06640625 C-74.99778047 24.60887103 -69.95012555 22.23380509 -63.6875 20.8125 C-63.59662109 19.86890625 -63.59662109 19.86890625 -63.50390625 18.90625 C-63.23971972 16.20748302 -62.96377859 13.51005349 -62.6875 10.8125 C-62.6153125 10.04035156 -62.543125 9.26820313 -62.46875 8.47265625 C-62.09232394 4.86299925 -61.73886819 2.88955228 -59.6875 -0.1875 C-57.5234375 -0.48046875 -57.5234375 -0.48046875 -55.0625 -0.375 C-54.24523437 -0.34792969 -53.42796875 -0.32085937 -52.5859375 -0.29296875 C-51.95945313 -0.25816406 -51.33296875 -0.22335938 -50.6875 -0.1875 C-48.56338592 3.41425866 -47.47759114 6.41298734 -47.08984375 10.53515625 C-47.01113037 11.33832275 -46.93241699 12.14148926 -46.85131836 12.96899414 C-46.77022827 13.88152954 -46.77022827 13.88152954 -46.6875 14.8125 C-45.92606689 14.69132812 -45.16463379 14.57015625 -44.38012695 14.4453125 C-40.92069967 13.89707564 -37.46037382 13.35472904 -34 12.8125 C-32.80181641 12.62171875 -31.60363281 12.4309375 -30.36914062 12.234375 C-29.21220703 12.05390625 -28.05527344 11.8734375 -26.86328125 11.6875 C-25.26867065 11.43613281 -25.26867065 11.43613281 -23.6418457 11.1796875 C-20.94979003 10.84509931 -18.39587469 10.74243695 -15.6875 10.8125 C-15.44966797 9.78189453 -15.44966797 9.78189453 -15.20703125 8.73046875 C-13.30370606 1.38005821 -13.30370606 1.38005821 -10.3125 -1.375 C-6.18098399 -2.65380258 -3.86357412 -1.70716066 0 0 Z M-9.8125 2.375 C-12.16863321 5.43797317 -12.94550931 8.03509287 -13.6875 11.8125 C-13.42250396 14.14558448 -13.42250396 14.14558448 -12.6875 15.8125 C-13.7707959 15.30541504 -13.7707959 15.30541504 -14.87597656 14.78808594 C-17.90847609 13.73582229 -19.53141159 13.74068844 -22.671875 14.203125 C-23.60773438 14.33589844 -24.54359375 14.46867187 -25.5078125 14.60546875 C-26.47460938 14.75628906 -27.44140625 14.90710938 -28.4375 15.0625 C-29.38882813 15.19785156 -30.34015625 15.33320313 -31.3203125 15.47265625 C-37.18017604 16.33156775 -42.92213845 17.46013124 -48.6875 18.8125 C-48.73648438 18.07644531 -48.78546875 17.34039062 -48.8359375 16.58203125 C-48.91070312 15.60621094 -48.98546875 14.63039062 -49.0625 13.625 C-49.16691406 12.18060547 -49.16691406 12.18060547 -49.2734375 10.70703125 C-49.68965853 7.79741062 -50.48624096 5.48359226 -51.6875 2.8125 C-53.9975 2.8125 -56.3075 2.8125 -58.6875 2.8125 C-61.08655547 12.7384471 -61.08655547 12.7384471 -62.6875 22.8125 C-63.32816406 23.02003906 -63.96882813 23.22757813 -64.62890625 23.44140625 C-71.62647962 25.93383551 -77.10955219 28.99114722 -80.7109375 35.7265625 C-81.51994327 37.73706198 -82.13167647 39.71837615 -82.6875 41.8125 C-82.89117187 42.51246094 -83.09484375 43.21242187 -83.3046875 43.93359375 C-85.33846162 51.74830116 -85.79988735 59.30615403 -82.6875 66.8125 C-82.24601385 68.89071531 -81.83086465 70.97464149 -81.4375 73.0625 C-80.04103802 79.32176869 -77.80211487 83.91319086 -73.6875 88.8125 C-73.10484375 89.51761719 -72.5221875 90.22273438 -71.921875 90.94921875 C-69.00771981 93.37937964 -66.58331322 93.83931866 -62.875 94.5625 C-61.10189453 94.92601562 -61.10189453 94.92601562 -59.29296875 95.296875 C-55.70352253 95.81020859 -52.30793209 95.90521273 -48.6875 95.8125 C-49.50154297 96.79089844 -49.50154297 96.79089844 -50.33203125 97.7890625 C-57.09639241 105.38625617 -57.09639241 105.38625617 -59.6875 114.8125 C-61.6675 115.3075 -61.6675 115.3075 -63.6875 115.8125 C-63.6875 119.1125 -63.6875 122.4125 -63.6875 125.8125 C-62.2025 126.3075 -62.2025 126.3075 -60.6875 126.8125 C-60.6875 127.8025 -60.6875 128.7925 -60.6875 129.8125 C-59.22957116 129.86649736 -57.77107288 129.90529177 -56.3125 129.9375 C-55.50039062 129.96070313 -54.68828125 129.98390625 -53.8515625 130.0078125 C-51.47407757 130.02620051 -51.47407757 130.02620051 -49.6875 127.8125 C-49.28702556 125.48974823 -48.9477896 123.15510643 -48.6875 120.8125 C-50.3375 120.4825 -51.9875 120.1525 -53.6875 119.8125 C-51.00017043 111.30262303 -46.7908338 106.18799585 -39.6875 100.8125 C-39.1925 100.27625 -38.6975 99.74 -38.1875 99.1875 C-36.22943756 97.39260943 -34.17265681 96.6856632 -31.6875 95.8125 C-31.790625 97.05 -31.89375 98.2875 -32 99.5625 C-31.98828457 102.88968183 -31.97128543 103.50291589 -29.625 106.0625 C-26.33208555 108.02423627 -23.04775287 109.96765529 -19.6875 111.8125 C-19.831875 112.493125 -19.97625 113.17375 -20.125 113.875 C-20.4034375 115.3290625 -20.4034375 115.3290625 -20.6875 116.8125 C-21.0278125 118.5759375 -21.0278125 118.5759375 -21.375 120.375 C-21.68862817 123.82490982 -21.70970689 125.0825207 -19.6875 127.8125 C-15.97736601 130.28592266 -14.07689738 130.19753486 -9.6875 129.8125 C-7.05125359 129.08564412 -7.05125359 129.08564412 -5.6875 126.8125 C-5.22141222 121.96138232 -6.1631824 118.59148615 -8.875 114.5625 C-11.70606628 111.7943463 -14.6253813 109.31786985 -17.6875 106.8125 C-18.81006131 104.56737738 -18.82163762 103.29793351 -18.8125 100.8125 C-18.81636719 99.760625 -18.81636719 99.760625 -18.8203125 98.6875 C-18.6875 96.8125 -18.6875 96.8125 -17.6875 94.8125 C-16.37394531 94.75191406 -15.06039062 94.69132812 -13.70703125 94.62890625 C-11.97134459 94.54446744 -10.23566802 94.45982112 -8.5 94.375 C-7.63568359 94.33568359 -6.77136719 94.29636719 -5.88085938 94.25585938 C-5.03974609 94.21396484 -4.19863281 94.17207031 -3.33203125 94.12890625 C-2.56221924 94.09224854 -1.79240723 94.05559082 -0.99926758 94.01782227 C1.35148782 93.85510241 1.35148782 93.85510241 3.7734375 93.29443359 C6.45648928 92.78516973 8.8536737 92.73076957 11.58203125 92.78515625 C13.13748657 92.80557983 13.13748657 92.80557983 14.72436523 92.82641602 C15.84657471 92.84244873 16.96878418 92.85848145 18.125 92.875 C28.53583388 92.95367129 38.86708976 92.59088338 49.25 91.875 C63.93321979 90.86280304 78.5988221 90.24095227 93.3125 89.8125 C87.60406527 115.05131547 87.60406527 115.05131547 81.3125 119.8125 C80.72847867 122.39832128 80.72847867 122.39832128 81.3125 124.8125 C83.71700178 127.21700178 84.39483942 127.10859139 87.6875 127.125 C90.58261463 127.0505276 92.16730651 126.88146691 94.8125 125.625 C96.65771809 123.39536148 97.00459738 121.66059926 97.3125 118.8125 C96.6525 118.4825 95.9925 118.1525 95.3125 117.8125 C95.725 116.575 96.1375 115.3375 96.5625 114.0625 C96.96662109 112.84433594 96.96662109 112.84433594 97.37890625 111.6015625 C98.04418288 109.61408337 98.71978862 107.63004916 99.40234375 105.6484375 C99.76457031 104.58882813 100.12679687 103.52921875 100.5 102.4375 C100.84417969 101.43976563 101.18835938 100.44203125 101.54296875 99.4140625 C102.45432354 96.78520035 102.45432354 96.78520035 102.3125 93.8125 C103.3025 93.8125 104.2925 93.8125 105.3125 93.8125 C105.24739583 95.79817708 105.18229167 97.78385417 105.1171875 99.76953125 C105.17995538 102.12609719 105.17995538 102.12609719 107.3125 104.8125 C109.50139123 105.26122529 109.50139123 105.26122529 112.0390625 105.17578125 C112.98910156 105.17513672 113.93914062 105.17449219 114.91796875 105.17382812 C116.41263672 105.1496582 116.41263672 105.1496582 117.9375 105.125 C118.91074219 105.12822266 119.88398438 105.13144531 120.88671875 105.13476562 C126.695952 105.09176323 131.74394843 104.4724839 137.3125 102.8125 C136.9825 104.4625 136.6525 106.1125 136.3125 107.8125 C139.73006151 108.12318741 141.71356977 108.1750104 144.6875 106.375 C147.07423366 102.61130462 146.64637931 99.15293107 146.3125 94.8125 C143.21214527 93.08614837 143.21214527 93.08614837 139.6875 93.0625 C137.15649771 93.6609338 137.15649771 93.6609338 135.3125 95.8125 C132.14859804 96.90876428 129.14119089 96.94664476 125.8125 96.9375 C124.40484375 96.94136719 124.40484375 96.94136719 122.96875 96.9453125 C120.5910737 96.82642868 118.58566904 96.48801722 116.3125 95.8125 C115.9825 94.1625 115.6525 92.5125 115.3125 90.8125 C116.3025 90.8125 117.2925 90.8125 118.3125 90.8125 C117.9825 91.8025 117.6525 92.7925 117.3125 93.8125 C119.09465749 95.59465749 121.65538464 94.98532247 124.0625 95 C125.10921875 95.01417969 126.1559375 95.02835937 127.234375 95.04296875 C131.73540943 94.70596237 134.58521505 93.29735663 138.3125 90.8125 C144.37632979 91.34441489 144.37632979 91.34441489 147.3125 92.8125 C147.3434375 94.42125 147.3434375 94.42125 147.375 96.0625 C147.91716346 99.79707553 147.91716346 99.79707553 150.19921875 101.38671875 C154.3324233 103.77099708 157.44990729 105.29467306 162.3125 104.8125 C164.41014165 103.29355194 164.41014165 103.29355194 165.3125 100.8125 C165.03870879 97.65624655 165.03870879 97.65624655 163.3125 94.8125 C160.32897106 93.02870585 160.32897106 93.02870585 157.3125 91.8125 C156.9825 91.1525 156.6525 90.4925 156.3125 89.8125 C157.240625 89.626875 157.240625 89.626875 158.1875 89.4375 C160.50370832 88.94052644 160.50370832 88.94052644 162.3125 86.8125 C162.5625773 84.27059998 162.5625773 84.27059998 162.3125 81.8125 C161.16336031 80.44642985 161.16336031 80.44642985 158.0625 80.5625 C154.06533332 80.82897778 152.57994506 81.66286509 149.3125 83.8125 C143.90535943 85.71230615 138.83764954 83.7929187 133.69604492 81.79663086 C129.76498875 80.65325201 126.07432723 80.46057777 122.015625 80.3984375 C121.20504135 80.37907135 120.3944577 80.3597052 119.55931091 80.3397522 C116.89381459 80.27931282 114.22828881 80.23306752 111.5625 80.1875 C109.70287349 80.14878982 107.8432544 80.10972192 105.98364258 80.0703125 C90.50903052 79.7641053 75.03453128 79.74048526 59.55761719 79.84912109 C58.70442398 79.85342133 57.85123077 79.85772156 56.97218323 79.8621521 C55.38470074 79.87044152 53.79723187 79.8828526 52.20982361 79.90029907 C48.42813692 79.91771216 44.99700051 79.64016886 41.3125 78.8125 C38.97948014 78.77425377 36.64538492 78.76675716 34.3125 78.8125 C34.3125 78.1525 34.3125 77.4925 34.3125 76.8125 C33.62542969 76.71453125 32.93835938 76.6165625 32.23046875 76.515625 C31.32941406 76.36609375 30.42835938 76.2165625 29.5 76.0625 C28.16001953 75.85367188 28.16001953 75.85367188 26.79296875 75.640625 C23.69224189 74.6054217 23.02170554 73.56049505 21.3125 70.8125 C20.66821289 68.40917969 20.66821289 68.40917969 20.28515625 65.734375 C20.13481934 64.74550293 19.98448242 63.75663086 19.82958984 62.73779297 C19.6795752 61.68994629 19.52956055 60.64209961 19.375 59.5625 C17.33426422 39.31444026 17.33426422 39.31444026 8.5 22.4375 C5.26117308 20.78633334 3.81998861 20.71506976 0.3125 20.8125 C-0.6775 19.3275 -0.6775 19.3275 -1.6875 17.8125 C-0.6975 17.8125 0.2925 17.8125 1.3125 17.8125 C3.18534445 14.06681111 2.63877263 10.00883296 1.5625 6.0625 C0.11416857 3.45550342 -1.08856712 2.26484484 -3.6875 0.8125 C-7.59000241 0.41757303 -7.59000241 0.41757303 -9.8125 2.375 Z " fill="#0B0B0B" transform="translate(249.6875,155.1875)"/>
<path d="M0 0 C0.66 0.845625 1.32 1.69125 2 2.5625 C6.32001529 6.07251242 10.01420795 5.47226205 15.4296875 5.37109375 C19.01158558 5.11083078 19.01158558 5.11083078 22.37890625 3.98828125 C26.72194312 2.80296482 30.58676641 2.69963072 35.0625 2.75 C35.917229 2.75459229 36.77195801 2.75918457 37.65258789 2.76391602 C48.61101098 2.91359687 60.01807355 3.39913677 70.78515625 5.55859375 C77.82494371 6.9615849 85.40862453 6.05185983 92.53857422 5.63916016 C102.97627002 5.0490504 113.4101612 4.83154549 123.86279297 4.76782227 C125.52755234 4.75601202 127.19228348 4.73898605 128.85693359 4.71655273 C131.22511537 4.68641051 133.59258459 4.67661354 135.9609375 4.671875 C136.6675351 4.65956848 137.37413269 4.64726196 138.10214233 4.63458252 C143.17862453 4.65691008 146.57350682 5.69058656 151 8 C152.125 9.9375 152.125 9.9375 153 12 C154.65788785 13.34423339 156.32576317 14.67618483 158 16 C163.84894313 22.41957172 167.43621605 28.36216048 168.3125 37.125 C167.50377503 47.15318958 162.21584103 58.61016824 155.5 66.125 C150.59544727 69.80341455 144.51979135 69.12705331 138.61328125 69.0625 C137.79796432 69.05871338 136.9826474 69.05492676 136.1426239 69.05102539 C132.69405414 69.03497515 129.245609 69.00760761 125.79711914 68.97949219 C116.32798193 68.90916536 106.89614519 68.97192316 97.43473816 69.39630127 C82.70750233 70.05617987 68.09029734 69.91511423 53.35986328 69.38574219 C49.44729389 69.24814645 45.53447789 69.13517907 41.62109375 69.0234375 C39.09109647 68.93896567 36.56114587 68.85308136 34.03125 68.765625 C32.88217163 68.73422424 31.73309326 68.70282349 30.54919434 68.67047119 C20.3765977 68.26996198 8.83441329 66.94475681 1.34765625 59.31640625 C-2.75343899 54.33292377 -4.52989745 49.21885106 -6 43 C-6.28230469 41.99453125 -6.28230469 41.99453125 -6.5703125 40.96875 C-7.29520481 37.64742525 -7.05649898 34.38993877 -7 31 C-6.01 30.67 -5.02 30.34 -4 30 C-3.67 30.99 -3.34 31.98 -3 33 C-2.34 33 -1.68 33 -1 33 C-0.71125 32.4225 -0.4225 31.845 -0.125 31.25 C0.5750124 29.8499752 1.28209756 28.45343598 2 27.0625 C3.12113992 24.75014892 4.06884819 22.39439037 5 20 C5.99 20.33 6.98 20.66 8 21 C8.125 23.375 8.125 23.375 8 26 C7.34 26.66 6.68 27.32 6 28 C5.7834375 29.0209375 5.7834375 29.0209375 5.5625 30.0625 C5.376875 30.701875 5.19125 31.34125 5 32 C3.515 32.495 3.515 32.495 2 33 C2.33 33.99 2.66 34.98 3 36 C0 38 0 38 -3 38 C-2.71515154 39.73030291 -2.42180062 41.45920714 -2.125 43.1875 C-1.88136719 44.63189453 -1.88136719 44.63189453 -1.6328125 46.10546875 C-0.61536843 50.75933327 -0.05258354 53.29827764 4 56 C4 56.66 4 57.32 4 58 C5.32 58.33 6.64 58.66 8 59 C8 59.66 8 60.32 8 61 C8.9590625 61.185625 8.9590625 61.185625 9.9375 61.375 C12.22728344 61.84230274 14.49667035 62.41158435 16.75 63.03125 C23.4563455 64.5257798 30.2285499 64.21257156 37.0625 64.125 C38.41861315 64.11494631 39.77473355 64.1058247 41.13085938 64.09765625 C44.420761 64.07424058 47.71028438 64.04144423 51 64 C49.69844994 59.92035719 49.69844994 59.92035719 48 56 C48.9375 53.875 48.9375 53.875 50 52 C49.01 50.68 48.02 49.36 47 48 C47.680625 47.443125 48.36125 46.88625 49.0625 46.3125 C51.29301917 44.16722305 51.29301917 44.16722305 50.9375 41.375 C50.13344454 38.67710239 50.13344454 38.67710239 47 37 C47.33 36.01 47.66 35.02 48 34 C50.54623682 34.96581397 51.9734119 35.97066141 53.8125 38 C55.92251205 43.33055675 54.43265412 48.75019856 53.375 54.25 C52.84835282 58.11207931 53.25045005 61.50090009 55 65 C74.30580709 65.82145825 74.30580709 65.82145825 93.625 66.125 C94.88425293 66.13176758 94.88425293 66.13176758 96.16894531 66.13867188 C99.88753326 66.48237741 99.88753326 66.48237741 103 65 C105.67250538 64.97912105 108.32900188 65.0063335 111 65.0625 C117.31908812 65.14176106 122.88847363 64.77789858 129 63 C129.22245393 61.39773045 129.42746669 59.79303233 129.625 58.1875 C129.74101563 57.29417969 129.85703125 56.40085937 129.9765625 55.48046875 C130.23500743 52.74309609 130.23500743 52.74309609 128 50 C129.98 47.03 129.98 47.03 132 44 C130.02 42.02 130.02 42.02 128 40 C128.99 39.67 129.98 39.34 131 39 C133.0625 40.75 133.0625 40.75 135 43 C134.8125 44.9375 134.8125 44.9375 134 47 C133.1791675 50.36541324 132.8799929 51.63997871 134 55 C133.3409159 56.66967972 132.67349161 58.33607955 132 60 C131.95846842 61.66614912 131.95263898 63.33400639 132 65 C136.00172544 65.06002588 139.99815604 65.04424643 144 65 C145.17175781 65.02900391 145.17175781 65.02900391 146.3671875 65.05859375 C149.2921784 64.97323409 151.43605645 64.50098549 153.64453125 62.5390625 C159.32126833 55.49703422 163.82195649 45.9825818 165 37 C163.50036399 28.47934087 157.2360902 20.68584695 151 15 C150.40929986 16.94603274 150.40929986 16.94603274 150 19 C150.33 19.33 150.66 19.66 151 20 C151.2165625 21.60875 151.2165625 21.60875 151.4375 23.25 C151.82799456 26.89722987 151.82799456 26.89722987 153.125 29.6875 C154.11938461 32.31551646 154.01329656 33.42069966 153 36 C152 37 152 37 149.4375 37.0625 C148.633125 37.041875 147.82875 37.02125 147 37 C147.33 36.01 147.66 35.02 148 34 C148.66 33.67 149.32 33.34 150 33 C149.484375 32.113125 148.96875 31.22625 148.4375 30.3125 C146.9131063 26.79976669 146.85052105 25.55293493 148 22 C146.68 21.67 145.36 21.34 144 21 C144.55728913 17.65626525 145.35173889 14.96687001 147 12 C141.69218909 9.38415974 137.54174246 8.53980324 131.66015625 8.48828125 C130.50972084 8.46135445 130.50972084 8.46135445 129.33604431 8.43388367 C126.91158374 8.3801552 124.48731568 8.34600725 122.0625 8.3125 C120.40817654 8.27929366 118.75387838 8.24480098 117.09960938 8.20898438 C113.06654607 8.12445114 109.03353612 8.05746321 105 8 C105 8.66 105 9.32 105 10 C105.9590625 10.37125 105.9590625 10.37125 106.9375 10.75 C109 12 109 12 109.75 13.6875 C110.16708565 17.54554222 110.47927342 21.37047037 109.375 25.125 C108.78481479 27.13431286 108.78481479 27.13431286 110.0625 29.375 C111 32 111 32 110.4375 35.1875 C109 38 109 38 106.375 39.375 C105.59125 39.58125 104.8075 39.7875 104 40 C104 37 104 37 106 34.8125 C106.66 34.214375 107.32 33.61625 108 33 C107.484375 32.113125 106.96875 31.22625 106.4375 30.3125 C104.91020998 26.79309257 104.78324286 25.548875 106 22 C106.495 21.505 106.495 21.505 107 21 C106.34 20.67 105.68 20.34 105 20 C105.57584432 17.61435923 106.22227595 15.33317216 107 13 C106.360625 12.690625 105.72125 12.38125 105.0625 12.0625 C103 11 103 11 102 10 C99.53018231 9.8997926 97.09448776 9.86122962 94.625 9.875 C93.93921875 9.87113281 93.2534375 9.86726562 92.546875 9.86328125 C89.42777362 9.86934954 86.98024365 10.00658545 84 11 C84.99 12.485 84.99 12.485 86 14 C85.67873872 16.63434254 85.18644952 18.62710097 84 21 C84.00569738 22.58387124 84.05307965 24.16775223 84.125 25.75 C84.19017302 30.24693831 83.44500508 33.12874196 81 37 C80.34 37 79.68 37 79 37 C79.2784375 35.329375 79.2784375 35.329375 79.5625 33.625 C80.31680657 30.17431139 80.31680657 30.17431139 79 28 C79.9375 25.375 79.9375 25.375 81 23 C80.01 23 79.02 23 78 23 C78.56371414 19.73045798 79.49962266 18.17424117 82 16 C81.01 14.515 81.01 14.515 80 13 C80 12.01 80 11.02 80 10 C78.44925781 10.04640625 78.44925781 10.04640625 76.8671875 10.09375 C69.35488848 10.09375 61.89025466 8.94320601 54.44140625 8.06640625 C47.58951797 7.2903024 40.89665248 6.78491526 34 7 C34.495 7.495 34.495 7.495 35 8 C35.31921534 13.53306581 34.43603821 17.12792357 32 22 C32.185625 22.61875 32.37125 23.2375 32.5625 23.875 C33 26 33 26 32.0625 27.75 C30.44610496 31.1729542 30.87464081 34.23922443 31 38 C29.68 38.66 28.36 39.32 27 40 C26.34 39.34 25.68 38.68 25 38 C25.7734375 37.505 25.7734375 37.505 26.5625 37 C28.33834722 34.52925604 28.02853971 33.85554407 27.5625 30.9375 C27.2840625 28.9884375 27.2840625 28.9884375 27 27 C27.66 26.34 28.32 25.68 29 25 C28.67673447 21.40320934 28.67673447 21.40320934 28 18 C28.99 18 29.98 18 31 18 C31.33 15.03 31.66 12.06 32 9 C31.34 9 30.68 9 30 9 C30 8.34 30 7.68 30 7 C29.46375 7.144375 28.9275 7.28875 28.375 7.4375 C22.83061763 8.75064319 17.42804529 9.27023902 11.75 9.375 C11.07710938 9.40078125 10.40421875 9.4265625 9.7109375 9.453125 C4.68434991 9.47299294 1.86064733 8.14701252 -2 5 C-2.33 4.34 -2.66 3.68 -3 3 C-6.27773504 3.75150023 -6.27773504 3.75150023 -8 7 C-8.66 7 -9.32 7 -10 7 C-10.25 4.6875 -10.25 4.6875 -10 2 C-6.8984606 -1.5786993 -4.33958952 -1.41700882 0 0 Z " fill="#0F0F0F" transform="translate(436,216)"/>
<path d="M0 0 C2.3149807 0.06438632 4.62813201 0.20150433 6.9375 0.375 C8.83822266 0.51035156 8.83822266 0.51035156 10.77734375 0.6484375 C14 1 14 1 16 2 C16 2.99 16 3.98 16 5 C16.639375 5.226875 17.27875 5.45375 17.9375 5.6875 C20 7 20 7 20.875 9.1875 C21.03430502 12.77186305 20.12776388 15.61670837 19 19 C18.34 19 17.68 19 17 19 C17 19.66 17 20.32 17 21 C15.6078125 21.86625 15.6078125 21.86625 14.1875 22.75 C10.64363286 25.25155328 9.67095679 27.07325153 8 31 C7.01 32.485 7.01 32.485 6 34 C5.34 34 4.68 34 4 34 C4 34.66 4 35.32 4 36 C0.04 37.98 -3.92 39.96 -8 42 C-8.33 41.34 -8.66 40.68 -9 40 C-11.02463255 39.34786708 -11.02463255 39.34786708 -13 39 C-12.37351562 38.96261719 -11.74703125 38.92523438 -11.1015625 38.88671875 C-10.28429687 38.82097656 -9.46703125 38.75523437 -8.625 38.6875 C-7.81289063 38.62949219 -7.00078125 38.57148438 -6.1640625 38.51171875 C-3.62078662 38.17009472 -3.62078662 38.17009472 -2 35 C-1.66724136 31.09008592 -1.79612081 28.30581879 -4 25 C-4.66 24.67 -5.32 24.34 -6 24 C-5.67 23.01 -5.34 22.02 -5 21 C-4.76626336 17.51559275 -4.61867672 14.03224692 -4.4765625 10.54296875 C-3.94694938 6.60559906 -2.89316061 2.89316061 0 0 Z " fill="#C9C9C9" transform="translate(418,223)"/>
<path d="M0 0 C0.9389209 0.14872559 1.8778418 0.29745117 2.84521484 0.45068359 C12.72169903 1.90917305 22.22868851 2.12646556 32.19158936 1.7230835 C35.52820003 1.58859471 38.86555645 1.48347982 42.20315552 1.37686157 C43.85755511 1.32392903 45.51191466 1.26972862 47.16622925 1.21420288 C93.35832866 -0.32083567 93.35832866 -0.32083567 106 6 C110.32397361 6.42391898 113.08790562 6.19229272 116.75 3.9375 C117.8225 3.298125 118.895 2.65875 120 2 C123 3 123 3 126 5 C125.07767578 5.16435547 125.07767578 5.16435547 124.13671875 5.33203125 C122.92435547 5.56986328 122.92435547 5.56986328 121.6875 5.8125 C120.48673828 6.03873047 120.48673828 6.03873047 119.26171875 6.26953125 C116.9267879 6.82421496 116.9267879 6.82421496 115.5 8.58203125 C114 10 114 10 111.80078125 10.1796875 C110.97964844 10.07914063 110.15851563 9.97859375 109.3125 9.875 C108.50425781 9.78992188 107.69601562 9.70484375 106.86328125 9.6171875 C104 9 104 9 100.35180664 7.4934082 C96.00544639 5.84652114 92.12299071 5.52788204 87.5078125 5.48828125 C86.70037598 5.47037537 85.89293945 5.45246948 85.06103516 5.434021 C82.4157431 5.37951842 79.77063675 5.34579545 77.125 5.3125 C75.26935146 5.2781711 73.4137198 5.24291815 71.55810547 5.20678711 C61.80925941 5.03238215 52.06272853 4.9816989 42.3125 5.015625 C40.89636917 5.01981697 40.89636917 5.01981697 39.45162964 5.02409363 C34.92067039 5.03988888 30.3905231 5.06964607 25.85986328 5.12426758 C17.02783841 5.20289553 8.67546071 4.93402681 0 3 C0 2.01 0 1.02 0 0 Z " fill="#0E0E0E" transform="translate(284,231)"/>
<path d="M0 0 C0.66 0.33 1.32 0.66 2 1 C1.31164062 1.70962891 1.31164062 1.70962891 0.609375 2.43359375 C-8.32050342 12.05760138 -11.18995632 22.48253067 -11.265625 35.421875 C-10.9717877 38.27382531 -10.09503111 40.35904261 -9 43 C-8.55851385 45.07821531 -8.14336465 47.16214149 -7.75 49.25 C-6.35915452 55.50880467 -4.08608924 60.08392388 0 65 C0.41765625 65.54140625 0.8353125 66.0828125 1.265625 66.640625 C3.87689228 68.68729395 6.51815669 68.99388897 9.75 69.625 C10.94109375 69.86476563 12.1321875 70.10453125 13.359375 70.3515625 C16.8982833 70.98188308 20.4383808 71.51598508 24 72 C22.32258336 75.96480297 19.87873138 78.84041677 17 82 C15.515 82.495 15.515 82.495 14 83 C14.33 82.236875 14.66 81.47375 15 80.6875 C16.17436686 78.00930865 16.17436686 78.00930865 16 75 C14.87896744 73.66895382 14.87896744 73.66895382 12 73.6875 C4.85465018 72.70446419 -1.27215451 69.87900053 -5.72265625 64.109375 C-9.64674022 57.62923634 -11.35665385 50.29795756 -12.60546875 42.8984375 C-12.81944539 40.99774173 -12.81944539 40.99774173 -14 40 C-15.13196686 28.48627998 -14.2716529 14.43529535 -6.6640625 5.1484375 C-4.52220103 3.2363025 -2.41290499 1.55077771 0 0 Z " fill="#040404" transform="translate(177,179)"/>
<path d="M0 0 C2.1640625 -0.29296875 2.1640625 -0.29296875 4.625 -0.1875 C5.44226563 -0.16042969 6.25953125 -0.13335937 7.1015625 -0.10546875 C8.04128906 -0.05326172 8.04128906 -0.05326172 9 0 C11.99862039 5.08461719 12.56214095 9.22026059 13 15 C17.95 14.34 22.9 13.68 28 13 C28 13.33 28 13.66 28 14 C29.98 14.33 31.96 14.66 34 15 C34 15.33 34 15.66 34 16 C31.10496617 16.50505263 28.20912047 17.0042022 25.3125 17.5 C24.49587891 17.64308594 23.67925781 17.78617188 22.83789062 17.93359375 C18.85021752 18.61165962 15.06269596 19.19858392 11 19 C10.49595192 16.89679937 9.99689492 14.79240209 9.5 12.6875 C9.2215625 11.51574219 8.943125 10.34398437 8.65625 9.13671875 C8 6 8 6 8 3 C5.69 3 3.38 3 1 3 C0.91959473 3.59538574 0.83918945 4.19077148 0.75634766 4.80419922 C0.38791016 7.49573761 0.00662173 10.18530069 -0.375 12.875 C-0.50132812 13.81214844 -0.62765625 14.74929687 -0.7578125 15.71484375 C-0.88671875 16.61074219 -1.015625 17.50664062 -1.1484375 18.4296875 C-1.26364746 19.25710449 -1.37885742 20.08452148 -1.49755859 20.93701172 C-2 23 -2 23 -4 25 C-6.63233792 25.8563027 -9.29546818 26.38929927 -12 27 C-11.375 25.125 -11.375 25.125 -10 23 C-6.875 21.75 -6.875 21.75 -4 21 C-3.93941406 20.3709375 -3.87882813 19.741875 -3.81640625 19.09375 C-3.55221972 16.39498302 -3.27627859 13.69755349 -3 11 C-2.9278125 10.22785156 -2.855625 9.45570313 -2.78125 8.66015625 C-2.40482394 5.05049925 -2.05136819 3.07705228 0 0 Z " fill="#0D0D0D" transform="translate(190,155)"/>
<path d="M0 0 C8.58 0 17.16 0 26 0 C25.2841869 6.44231788 24.50665994 11.74056673 22.75 17.8125 C22.55792969 18.54919922 22.36585938 19.28589844 22.16796875 20.04492188 C20.76954338 24.91302528 19.25032357 27.00641662 15 30 C14.49864801 32.62778044 14.49864801 32.62778044 15 35 C16.58272601 36.58272601 18.38034003 36.34735747 20.5625 36.5625 C21.38878906 36.64628906 22.21507812 36.73007812 23.06640625 36.81640625 C24.02353516 36.90728516 24.02353516 36.90728516 25 37 C24.67 37.99 24.34 38.98 24 40 C15.84615385 40.61538462 15.84615385 40.61538462 12.9375 38.5 C11.58827426 34.90206468 11.11381523 31.73055201 12 28 C13.42072177 26.44711807 14.84905482 24.89979396 16.33203125 23.40625 C20.19191539 17.83789255 21.34911413 10.49397139 23 4 C21.31699331 2.31699331 19.17991273 2.77190923 16.87109375 2.68359375 C15.83662109 2.64169922 14.80214844 2.59980469 13.73632812 2.55664062 C12.64771484 2.51732422 11.55910156 2.47800781 10.4375 2.4375 C9.34501953 2.39431641 8.25253906 2.35113281 7.12695312 2.30664062 C4.41810436 2.20017932 1.70916008 2.09816484 -1 2 C-0.67 1.34 -0.34 0.68 0 0 Z " fill="#050505" transform="translate(317,245)"/>
<path d="M0 0 C0.91136719 0.14872559 1.82273437 0.29745117 2.76171875 0.45068359 C14.268292 2.12944111 25.40126048 2.0482199 37 1.625 C38.85413119 1.5665715 40.70829836 1.50927336 42.5625 1.453125 C47.04218689 1.31506436 51.52111322 1.16187977 56 1 C55.34 2.32 54.68 3.64 54 5 C48.2382937 5.04989487 42.47671658 5.08595113 36.71484375 5.10986328 C34.7597433 5.11984485 32.80465748 5.13343487 30.84960938 5.15087891 C10.01657633 5.3319431 10.01657633 5.3319431 0 3 C0 2.01 0 1.02 0 0 Z " fill="#171717" transform="translate(284,231)"/>
<path d="M0 0 C-0.33 0.66 -0.66 1.32 -1 2 C-2.32 2 -3.64 2 -5 2 C-5 2.66 -5 3.32 -5 4 C-4.360625 4.2475 -3.72125 4.495 -3.0625 4.75 C-1 6 -1 6 -0.25 7.6875 C0.16708565 11.54554222 0.47927342 15.37047037 -0.625 19.125 C-1.21518521 21.13431286 -1.21518521 21.13431286 0.0625 23.375 C1 26 1 26 0.4375 29.1875 C-1 32 -1 32 -3.625 33.375 C-4.40875 33.58125 -5.1925 33.7875 -6 34 C-6 31 -6 31 -4 28.8125 C-3.01 27.9153125 -3.01 27.9153125 -2 27 C-2.515625 26.113125 -3.03125 25.22625 -3.5625 24.3125 C-5.08979002 20.79309257 -5.21675714 19.548875 -4 16 C-3.67 15.67 -3.34 15.34 -3 15 C-3.66 14.67 -4.32 14.34 -5 14 C-4.42415568 11.61435923 -3.77772405 9.33317216 -3 7 C-8.60944292 3.85871197 -14.68146331 2.77369837 -21 2 C-20.67 1.34 -20.34 0.68 -20 0 C-17.22949974 -0.1946838 -14.45886998 -0.38102792 -11.6875 -0.5625 C-10.90181641 -0.61857422 -10.11613281 -0.67464844 -9.30664062 -0.73242188 C-8.1706543 -0.80493164 -8.1706543 -0.80493164 -7.01171875 -0.87890625 C-6.31522217 -0.9260376 -5.61872559 -0.97316895 -4.90112305 -1.02172852 C-3 -1 -3 -1 0 0 Z " fill="#030303" transform="translate(546,222)"/>
<path d="M0 0 C0.33 0.99 0.66 1.98 1 3 C-0.13888672 3.11214844 -0.13888672 3.11214844 -1.30078125 3.2265625 C-7.52911541 3.87102538 -7.52911541 3.87102538 -12.1875 7.625 C-13.3115836 12.29427036 -14.1061756 16.63389466 -11.98828125 21.1640625 C-9.0079363 23.91605096 -5.69147105 23.92477623 -1.8125 24.25 C-0.68811523 24.36601562 -0.68811523 24.36601562 0.45898438 24.484375 C2.30441097 24.67244395 4.1520687 24.83838576 6 25 C6 25.66 6 26.32 6 27 C3.60347472 27.08139142 1.20974564 27.14067009 -1.1875 27.1875 C-1.86103516 27.21263672 -2.53457031 27.23777344 -3.22851562 27.26367188 C-7.69795374 27.32907829 -10.5083992 26.84051619 -14 24 C-17.07969959 19.5764315 -16.62681867 14.15632981 -16 9 C-14.63283422 5.73041014 -12.49769227 3.49769227 -10 1 C-6.68421778 -0.18420794 -3.49088913 -0.07933839 0 0 Z " fill="#070707" transform="translate(207,196)"/>
<path d="M0 0 C1.66565749 0.15222973 3.33656496 0.24917215 5.0078125 0.31640625 C5.99394531 0.35830078 6.98007812 0.40019531 7.99609375 0.44335938 C9.54490234 0.50233398 9.54490234 0.50233398 11.125 0.5625 C12.68541016 0.62727539 12.68541016 0.62727539 14.27734375 0.69335938 C16.85142528 0.7996288 19.42560508 0.90166583 22 1 C22 1.33 22 1.66 22 2 C21.1028125 2.02505615 20.205625 2.0501123 19.28125 2.07592773 C15.91900569 2.17166313 12.55689888 2.27085629 9.19482422 2.37231445 C7.74597085 2.41534491 6.2970771 2.45703893 4.84814453 2.49731445 C-4.33444251 2.67878009 -4.33444251 2.67878009 -13.46875 3.53125 C-17.51508863 4.0683746 -21.42638283 4.11153428 -25.5 4.0625 C-26.22703125 4.05798828 -26.9540625 4.05347656 -27.703125 4.04882812 C-29.46878681 4.03721193 -31.2344053 4.01928441 -33 4 C-32.67 3.01 -32.34 2.02 -32 1 C-27.76464533 0.68966056 -23.52884811 0.38668716 -19.29248047 0.09057617 C-17.8509292 -0.01123197 -16.40951937 -0.11506361 -14.96826172 -0.22094727 C-12.89844939 -0.37265753 -10.82824008 -0.51712036 -8.7578125 -0.66015625 C-7.5114502 -0.74918213 -6.26508789 -0.83820801 -4.98095703 -0.92993164 C-2 -1 -2 -1 0 0 Z " fill="#181818" transform="translate(317,246)"/>
<path d="M0 0 C9.24 0 18.48 0 28 0 C27.67 0.99 27.34 1.98 27 3 C18.42 3 9.84 3 1 3 C0.67 2.01 0.34 1.02 0 0 Z " fill="#222222" transform="translate(193,230)"/>
<path d="M0 0 C0.66 0.33 1.32 0.66 2 1 C0.125 5.75 0.125 5.75 -1 8 C-0.7215625 8.928125 -0.7215625 8.928125 -0.4375 9.875 C0 12 0 12 -0.9375 13.75 C-2.55389504 17.1729542 -2.12535919 20.23922443 -2 24 C-3.98 24.99 -3.98 24.99 -6 26 C-6.66 25.34 -7.32 24.68 -8 24 C-7.484375 23.67 -6.96875 23.34 -6.4375 23 C-4.66165278 20.52925604 -4.97146029 19.85554407 -5.4375 16.9375 C-5.623125 15.638125 -5.80875 14.33875 -6 13 C-5.34 12.34 -4.68 11.68 -4 11 C-4.32326553 7.40320934 -4.32326553 7.40320934 -5 4 C-4.01 4 -3.02 4 -2 4 C-1.34 2.68 -0.68 1.36 0 0 Z " fill="#000000" transform="translate(469,230)"/>
<path d="M0 0 C3.3 0 6.6 0 10 0 C10 0.33 10 0.66 10 1 C16.6 1.33 23.2 1.66 30 2 C30 2.33 30 2.66 30 3 C19.77 3 9.54 3 -1 3 C-0.67 2.01 -0.34 1.02 0 0 Z " fill="#1F1F1F" transform="translate(546,221)"/>
<path d="M0 0 C0.99 0.66 1.98 1.32 3 2 C2.07767578 2.16435547 2.07767578 2.16435547 1.13671875 2.33203125 C0.32847656 2.49058594 -0.47976563 2.64914063 -1.3125 2.8125 C-2.51326172 3.03873047 -2.51326172 3.03873047 -3.73828125 3.26953125 C-6.26421426 4.08533345 -7.17956204 5.13876791 -9 7 C-9.99 7 -10.98 7 -12 7 C-12 6.01 -12 5.02 -12 4 C-10.56988027 3.13353333 -9.13059381 2.28218171 -7.6875 1.4375 C-6.48673828 0.72400391 -6.48673828 0.72400391 -5.26171875 -0.00390625 C-3 -1 -3 -1 0 0 Z " fill="#1C1C1C" transform="translate(407,234)"/>
<path d="M0 0 C3 3 3 3 3.07421875 5.26171875 C2.94660156 6.06222656 2.81898438 6.86273438 2.6875 7.6875 C2.50767578 8.89986328 2.50767578 8.89986328 2.32421875 10.13671875 C2.21722656 10.75160156 2.11023438 11.36648437 2 12 C1.34 12 0.68 12 0 12 C-0.99 11.01 -1.98 10.02 -3 9 C-2.01 6.03 -1.02 3.06 0 0 Z " fill="#F5F5F5" transform="translate(415,238)"/>
<path d="M0 0 C2.97 0 5.94 0 9 0 C9 0.33 9 0.66 9 1 C11.97 1.495 11.97 1.495 15 2 C15 2.33 15 2.66 15 3 C9.72 3 4.44 3 -1 3 C-0.67 2.01 -0.34 1.02 0 0 Z " fill="#2B2B2B" transform="translate(285,247)"/>
<path d="M0 0 C0 0.33 0 0.66 0 1 C-5.72040011 1.8320582 -11.22240116 2.12036664 -17 2 C-11.93175831 -3.51412806 -6.52474877 -1.91242636 0 0 Z " fill="#222222" transform="translate(224,170)"/>
<path d="M0 0 C0.66 0.66 1.32 1.32 2 2 C1.69903201 6.13830989 1.32101984 8.51847024 -1 12 C-1.66 12 -2.32 12 -3 12 C-2.835 10.906875 -2.67 9.81375 -2.5 8.6875 C-1.93281816 5.12474127 -1.93281816 5.12474127 -2 2 C-1.34 1.34 -0.68 0.68 0 0 Z " fill="#000000" transform="translate(518,241)"/>
<path d="M0 0 C2.4375 0.8125 2.4375 0.8125 5 2 C5.33 2.99 5.66 3.98 6 5 C3 5 3 5 0.8125 3 C0.214375 2.34 -0.38375 1.68 -1 1 C-0.67 0.67 -0.34 0.34 0 0 Z " fill="#000000" transform="translate(565,255)"/>
<path d="M0 0 C1.32 0 2.64 0 4 0 C4 1.65 4 3.3 4 5 C2.68 4.67 1.36 4.34 0 4 C0 2.68 0 1.36 0 0 Z " fill="#020202" transform="translate(179,194)"/>
<path d="M0 0 C2.475 0.495 2.475 0.495 5 1 C4.67 1.99 4.34 2.98 4 4 C2.68 4 1.36 4 0 4 C0 2.68 0 1.36 0 0 Z " fill="#080808" transform="translate(225,191)"/>
</svg>
