<?xml version="1.0" encoding="UTF-8"?>
<svg version="1.1" xmlns="http://www.w3.org/2000/svg" width="800" height="300">
<path d="M0 0 C264 0 528 0 800 0 C800 99 800 198 800 300 C536 300 272 300 0 300 C0 201 0 102 0 0 Z " fill="#FEFEFE" transform="translate(0,0)"/>
<path d="M0 0 C4.57301228 0.10959289 8.08821013 0.48939767 12.125 2.75 C15.1394186 7.97499225 13.85791914 13.19842798 13 19 C14.051875 19.2475 15.10375 19.495 16.1875 19.75 C22.03270742 21.4587804 25.09556837 24.62408628 28.03881836 29.92358398 C29.78149289 33.68823903 30.57056317 37.6476949 31.4375 41.6875 C31.85984417 43.54446047 32.28304468 45.40122634 32.70703125 47.2578125 C32.91924316 48.20301758 33.13145508 49.14822266 33.35009766 50.12207031 C34.40169356 54.77879929 35.50096067 59.42278446 36.625 64.0625 C36.81892334 64.90063232 37.01284668 65.73876465 37.21264648 66.60229492 C37.40286377 67.38451416 37.59308105 68.1667334 37.7890625 68.97265625 C38.03197021 69.99758179 38.03197021 69.99758179 38.27978516 71.04321289 C39.21517965 73.58463217 40.06240644 75.07481231 42 77 C52.71472967 80.48559365 64.16383876 80.45186012 75.3125 80.3125 C76.91267811 80.3024237 78.51285718 80.29249843 80.11303711 80.28271484 C91.44217265 80.18136012 102.7511117 79.75348697 114.0625 79.125 C114.78426422 79.08597565 115.50602844 79.04695129 116.24966431 79.00674438 C124.10174309 78.56847259 131.80873286 77.86779899 139.54467773 76.39794922 C142 76 142 76 146 76 C145.649375 75.29875 145.29875 74.5975 144.9375 73.875 C143.80306527 70.39606684 143.93850882 68.48775675 145 65 C146.75 63.0625 146.75 63.0625 149 62 C152.47083713 62.08899582 153.68877912 62.67962556 156.125 65.1875 C158.80704029 67.31002661 158.80704029 67.31002661 161.5859375 66.640625 C162.54757812 66.40859375 163.50921875 66.1765625 164.5 65.9375 C167.3984375 65.2578125 167.3984375 65.2578125 170 65 C173.125 67.3125 173.125 67.3125 175 70 C175.33 70.33 175.66 70.66 176 71 C176.44545011 74.83087094 176.08930386 76.81795753 174.375 80.3125 C172 83 172 83 168.75 83.875 C167.8425 83.91625 166.935 83.9575 166 84 C165.87625 85.11375 165.7525 86.2275 165.625 87.375 C165 91 165 91 163 93 C161.14345782 93.43881906 159.28627369 93.87511803 157.42578125 94.296875 C153.5994435 95.40595841 150.09792572 97.15428433 146.515625 98.87890625 C142.40809344 100.70943662 139.05458367 101.1374607 134.5625 101.125 C133.17224609 101.12886719 133.17224609 101.12886719 131.75390625 101.1328125 C129 101 129 101 126.58984375 100.4921875 C123.3637016 99.87907451 120.27577183 99.93576918 117 100 C116.32391731 102.85222385 115.65894885 105.70631293 115 108.5625 C114.80921875 109.36236328 114.6184375 110.16222656 114.421875 110.98632812 C113.32554544 115.78276996 112.98104496 120.05905328 113 125 C110.89430205 127.68658014 108.84898175 129.10067884 106 131 C103.37109375 131.265625 103.37109375 131.265625 100.4375 131.25 C99.46683594 131.25515625 98.49617187 131.2603125 97.49609375 131.265625 C95 131 95 131 93 129 C92.43147314 125.61876128 92.46028645 122.38400393 93 119 C95.3125 116.5 95.3125 116.5 98 114 C99.34864976 110.7530407 100.17400478 107.41239275 101 104 C101.20625 103.19949219 101.4125 102.39898437 101.625 101.57421875 C102.09922323 99.72013765 102.55207547 97.86060958 103 96 C101.1746875 95.9690625 101.1746875 95.9690625 99.3125 95.9375 C98.62800781 95.92589844 97.94351563 95.91429687 97.23828125 95.90234375 C94.97342262 95.93994847 94.97342262 95.93994847 92.69702148 96.48632812 C87.76694806 97.42530472 82.75623243 97.39591006 77.75 97.5625 C76.50597412 97.60568359 75.26194824 97.64886719 73.98022461 97.69335938 C60.76955807 98.11377226 47.55643129 98.05937706 34.34082031 97.96313477 C25.82793646 97.91318422 17.4352803 98.03414843 8.94848633 98.77514648 C4.63002738 99.10447502 0.32769006 99.08974472 -4 99 C-2.9322883 106.22266824 -2.9322883 106.22266824 1.16796875 111.99609375 C2.75890668 113.0103483 4.38259753 113.97562357 6.0390625 114.87890625 C8 116 8 116 9 118 C9.12148305 119.62165752 9.17543652 121.24884327 9.1875 122.875 C9.20167969 123.73867188 9.21585937 124.60234375 9.23046875 125.4921875 C8.98243618 128.19111813 8.47382301 129.73785306 7 132 C2.98141405 134.6790573 -0.27641721 134.69610694 -5 134 C-7.87029869 132.20606332 -9.49131638 131.01736724 -11 128 C-11.23029956 125.62876754 -11.41119942 123.25258057 -11.5625 120.875 C-11.64628906 119.59367187 -11.73007813 118.31234375 -11.81640625 116.9921875 C-11.87699219 116.00476563 -11.93757813 115.01734375 -12 114 C-13.65 113.67 -15.3 113.34 -17 113 C-17 112.34 -17 111.68 -17 111 C-17.9590625 110.5359375 -17.9590625 110.5359375 -18.9375 110.0625 C-21 109 -21 109 -22 108 C-22.04063832 106.33382885 -22.042721 104.66611905 -22 103 C-28.27918501 104.712505 -32.29696145 109.65832199 -36 114.75 C-37.34382386 117.09231069 -37.34382386 117.09231069 -36 120 C-35.85779721 121.66267874 -35.77979433 123.3315173 -35.75 125 C-35.72421875 125.86625 -35.6984375 126.7325 -35.671875 127.625 C-36 130 -36 130 -37.2421875 131.79296875 C-40.5033862 134.03232519 -44.20321604 133.39369113 -48 133 C-51.21932007 132.0410536 -52.63128979 131.36871021 -55 129 C-55.265625 126.72265625 -55.265625 126.72265625 -55.25 124.0625 C-55.25515625 123.18722656 -55.2603125 122.31195313 -55.265625 121.41015625 C-55 119 -55 119 -53 116 C-50.375 115.3125 -50.375 115.3125 -48 115 C-47.896875 113.948125 -47.79375 112.89625 -47.6875 111.8125 C-46.64837651 106.05008791 -44.66510335 103.34733189 -40 100 C-41.14662109 100.0309375 -41.14662109 100.0309375 -42.31640625 100.0625 C-52.38041483 99.86872848 -59.91773971 96.79027603 -68 91 C-70.18070844 88.45262377 -71.17759406 86.22435346 -72 83 C-72.391875 81.865625 -72.78375 80.73125 -73.1875 79.5625 C-76.47868299 65.13192841 -76.94858044 47.94804094 -69 35 C-68.68675781 34.39542969 -68.37351563 33.79085937 -68.05078125 33.16796875 C-64.43833801 27.00398568 -58.34166717 24.76120437 -52 22 C-52.02320313 21.03578125 -52.04640625 20.0715625 -52.0703125 19.078125 C-52.09738281 17.18320313 -52.09738281 17.18320313 -52.125 15.25 C-52.14820313 13.99703125 -52.17140625 12.7440625 -52.1953125 11.453125 C-52.01472805 8.26039184 -51.79769093 6.58968064 -50 4 C-47.37684968 2.68842484 -45.76966564 3.10350012 -42.875 3.4375 C-41.96492188 3.53933594 -41.05484375 3.64117187 -40.1171875 3.74609375 C-39.41851562 3.82988281 -38.71984375 3.91367188 -38 4 C-35.52923139 9.0444859 -34.83491321 12.27011256 -35 18 C-33.16888672 17.65775391 -33.16888672 17.65775391 -31.30078125 17.30859375 C-21.55274549 15.57563166 -12.87134977 14.52904483 -3 16 C-2.92652344 14.77023438 -2.92652344 14.77023438 -2.8515625 13.515625 C-2.77679688 12.43796875 -2.70203125 11.3603125 -2.625 10.25 C-2.55539063 9.18265625 -2.48578125 8.1153125 -2.4140625 7.015625 C-2.0271777 4.19793568 -1.44313834 2.4169634 0 0 Z " fill="#F9F9F9" transform="translate(237,153)"/>
<path d="M0 0 C0.8772876 0.00008057 1.7545752 0.00016113 2.65844727 0.00024414 C13.70046062 0.09278858 25.18423627 0.56982228 36.03515625 2.74609375 C43.07494371 4.1490849 50.65862453 3.23935983 57.78857422 2.82666016 C68.22627002 2.2365504 78.6601612 2.01904549 89.11279297 1.95532227 C90.77755234 1.94351202 92.44228348 1.92648605 94.10693359 1.90405273 C96.47511537 1.87391051 98.84258459 1.86411354 101.2109375 1.859375 C101.9175351 1.84706848 102.62413269 1.83476196 103.35214233 1.82208252 C108.42862453 1.84441008 111.82350682 2.87808656 116.25 5.1875 C117.375 7.125 117.375 7.125 118.25 9.1875 C119.90788785 10.53173339 121.57576317 11.86368483 123.25 13.1875 C129.09894313 19.60707172 132.68621605 25.54966048 133.5625 34.3125 C132.75377503 44.34068958 127.46584103 55.79766824 120.75 63.3125 C115.84544727 66.99091455 109.76979135 66.31455331 103.86328125 66.25 C103.04796432 66.24621338 102.2326474 66.24242676 101.3926239 66.23852539 C97.94405414 66.22247515 94.495609 66.19510761 91.04711914 66.16699219 C81.57798193 66.09666536 72.14614519 66.15942316 62.68473816 66.58380127 C47.95750233 67.24367987 33.34029734 67.10261423 18.60986328 66.57324219 C14.69729389 66.43564645 10.78447789 66.32267907 6.87109375 66.2109375 C4.34109647 66.12646567 1.81114587 66.04058136 -0.71875 65.953125 C-1.86782837 65.92172424 -3.01690674 65.89032349 -4.20080566 65.85797119 C-14.3734023 65.45746198 -25.91558671 64.13225681 -33.40234375 56.50390625 C-39.56891191 49.01054592 -40.78777168 40.44471993 -42.2109375 31.09765625 C-42.86567205 27.56303858 -43.91891269 24.29529044 -45.1640625 20.9296875 C-45.75 19.1875 -45.75 19.1875 -45.75 17.1875 C-44.615625 17.043125 -43.48125 16.89875 -42.3125 16.75 C-38.94222799 16.57578522 -38.94222799 16.57578522 -37.75 15.1875 C-36.08382885 15.14686168 -34.41611905 15.144779 -32.75 15.1875 C-32.75 14.5275 -32.75 13.8675 -32.75 13.1875 C-32.275625 12.795625 -31.80125 12.40375 -31.3125 12 C-29.0177077 9.33804094 -29.15603971 6.6053294 -28.75 3.1875 C-26.83574219 2.98833984 -26.83574219 2.98833984 -24.8828125 2.78515625 C-23.21352004 2.60697335 -21.54425036 2.42857686 -19.875 2.25 C-19.03324219 2.16298828 -18.19148438 2.07597656 -17.32421875 1.98632812 C-16.11572266 1.85581055 -16.11572266 1.85581055 -14.8828125 1.72265625 C-14.13918457 1.644104 -13.39555664 1.56555176 -12.62939453 1.48461914 C-3.22123512 -0.00274511 -3.22123512 -0.00274511 0 0 Z " fill="#646464" transform="translate(470.75,218.8125)"/>
<path d="M0 0 C4.57301228 0.10959289 8.08821013 0.48939767 12.125 2.75 C15.1394186 7.97499225 13.85791914 13.19842798 13 19 C14.051875 19.2475 15.10375 19.495 16.1875 19.75 C22.03270742 21.4587804 25.09556837 24.62408628 28.03881836 29.92358398 C29.78149289 33.68823903 30.57056317 37.6476949 31.4375 41.6875 C31.85984417 43.54446047 32.28304468 45.40122634 32.70703125 47.2578125 C32.91924316 48.20301758 33.13145508 49.14822266 33.35009766 50.12207031 C34.40169356 54.77879929 35.50096067 59.42278446 36.625 64.0625 C36.81892334 64.90063232 37.01284668 65.73876465 37.21264648 66.60229492 C37.40286377 67.38451416 37.59308105 68.1667334 37.7890625 68.97265625 C38.03197021 69.99758179 38.03197021 69.99758179 38.27978516 71.04321289 C39.21517965 73.58463217 40.06240644 75.07481231 42 77 C52.71472967 80.48559365 64.16383876 80.45186012 75.3125 80.3125 C76.91267811 80.3024237 78.51285718 80.29249843 80.11303711 80.28271484 C91.44217265 80.18136012 102.7511117 79.75348697 114.0625 79.125 C114.78426422 79.08597565 115.50602844 79.04695129 116.24966431 79.00674438 C124.10174309 78.56847259 131.80873286 77.86779899 139.54467773 76.39794922 C142 76 142 76 146 76 C145.649375 75.29875 145.29875 74.5975 144.9375 73.875 C143.80306527 70.39606684 143.93850882 68.48775675 145 65 C146.75 63.0625 146.75 63.0625 149 62 C152.47083713 62.08899582 153.68877912 62.67962556 156.125 65.1875 C158.80704029 67.31002661 158.80704029 67.31002661 161.5859375 66.640625 C162.54757812 66.40859375 163.50921875 66.1765625 164.5 65.9375 C167.3984375 65.2578125 167.3984375 65.2578125 170 65 C173.125 67.3125 173.125 67.3125 175 70 C175.33 70.33 175.66 70.66 176 71 C176.44545011 74.83087094 176.08930386 76.81795753 174.375 80.3125 C172 83 172 83 168.75 83.875 C167.8425 83.91625 166.935 83.9575 166 84 C165.87625 85.11375 165.7525 86.2275 165.625 87.375 C165 91 165 91 163 93 C161.14345782 93.43881906 159.28627369 93.87511803 157.42578125 94.296875 C153.5994435 95.40595841 150.09792572 97.15428433 146.515625 98.87890625 C142.40809344 100.70943662 139.05458367 101.1374607 134.5625 101.125 C133.17224609 101.12886719 133.17224609 101.12886719 131.75390625 101.1328125 C129 101 129 101 126.58984375 100.4921875 C123.3637016 99.87907451 120.27577183 99.93576918 117 100 C116.32391731 102.85222385 115.65894885 105.70631293 115 108.5625 C114.80921875 109.36236328 114.6184375 110.16222656 114.421875 110.98632812 C113.32554544 115.78276996 112.98104496 120.05905328 113 125 C110.89430205 127.68658014 108.84898175 129.10067884 106 131 C103.37109375 131.265625 103.37109375 131.265625 100.4375 131.25 C99.46683594 131.25515625 98.49617187 131.2603125 97.49609375 131.265625 C95 131 95 131 93 129 C92.43147314 125.61876128 92.46028645 122.38400393 93 119 C95.3125 116.5 95.3125 116.5 98 114 C99.34864976 110.7530407 100.17400478 107.41239275 101 104 C101.20625 103.19949219 101.4125 102.39898437 101.625 101.57421875 C102.09922323 99.72013765 102.55207547 97.86060958 103 96 C101.1746875 95.9690625 101.1746875 95.9690625 99.3125 95.9375 C98.62800781 95.92589844 97.94351563 95.91429687 97.23828125 95.90234375 C94.97342262 95.93994847 94.97342262 95.93994847 92.69702148 96.48632812 C87.76694806 97.42530472 82.75623243 97.39591006 77.75 97.5625 C76.50597412 97.60568359 75.26194824 97.64886719 73.98022461 97.69335938 C60.76955807 98.11377226 47.55643129 98.05937706 34.34082031 97.96313477 C25.82793646 97.91318422 17.4352803 98.03414843 8.94848633 98.77514648 C4.63002738 99.10447502 0.32769006 99.08974472 -4 99 C-2.9322883 106.22266824 -2.9322883 106.22266824 1.16796875 111.99609375 C2.75890668 113.0103483 4.38259753 113.97562357 6.0390625 114.87890625 C8 116 8 116 9 118 C9.12148305 119.62165752 9.17543652 121.24884327 9.1875 122.875 C9.20167969 123.73867188 9.21585937 124.60234375 9.23046875 125.4921875 C8.98243618 128.19111813 8.47382301 129.73785306 7 132 C2.98141405 134.6790573 -0.27641721 134.69610694 -5 134 C-7.87029869 132.20606332 -9.49131638 131.01736724 -11 128 C-11.23029956 125.62876754 -11.41119942 123.25258057 -11.5625 120.875 C-11.64628906 119.59367187 -11.73007813 118.31234375 -11.81640625 116.9921875 C-11.87699219 116.00476563 -11.93757813 115.01734375 -12 114 C-13.65 113.67 -15.3 113.34 -17 113 C-17 112.34 -17 111.68 -17 111 C-17.9590625 110.5359375 -17.9590625 110.5359375 -18.9375 110.0625 C-21 109 -21 109 -22 108 C-22.04063832 106.33382885 -22.042721 104.66611905 -22 103 C-28.27918501 104.712505 -32.29696145 109.65832199 -36 114.75 C-37.34382386 117.09231069 -37.34382386 117.09231069 -36 120 C-35.85779721 121.66267874 -35.77979433 123.3315173 -35.75 125 C-35.72421875 125.86625 -35.6984375 126.7325 -35.671875 127.625 C-36 130 -36 130 -37.2421875 131.79296875 C-40.5033862 134.03232519 -44.20321604 133.39369113 -48 133 C-51.21932007 132.0410536 -52.63128979 131.36871021 -55 129 C-55.265625 126.72265625 -55.265625 126.72265625 -55.25 124.0625 C-55.25515625 123.18722656 -55.2603125 122.31195313 -55.265625 121.41015625 C-55 119 -55 119 -53 116 C-50.375 115.3125 -50.375 115.3125 -48 115 C-47.896875 113.948125 -47.79375 112.89625 -47.6875 111.8125 C-46.64837651 106.05008791 -44.66510335 103.34733189 -40 100 C-41.14662109 100.0309375 -41.14662109 100.0309375 -42.31640625 100.0625 C-52.38041483 99.86872848 -59.91773971 96.79027603 -68 91 C-70.18070844 88.45262377 -71.17759406 86.22435346 -72 83 C-72.391875 81.865625 -72.78375 80.73125 -73.1875 79.5625 C-76.47868299 65.13192841 -76.94858044 47.94804094 -69 35 C-68.68675781 34.39542969 -68.37351563 33.79085937 -68.05078125 33.16796875 C-64.43833801 27.00398568 -58.34166717 24.76120437 -52 22 C-52.02320313 21.03578125 -52.04640625 20.0715625 -52.0703125 19.078125 C-52.09738281 17.18320313 -52.09738281 17.18320313 -52.125 15.25 C-52.14820313 13.99703125 -52.17140625 12.7440625 -52.1953125 11.453125 C-52.01472805 8.26039184 -51.79769093 6.58968064 -50 4 C-47.37684968 2.68842484 -45.76966564 3.10350012 -42.875 3.4375 C-41.96492188 3.53933594 -41.05484375 3.64117187 -40.1171875 3.74609375 C-39.41851562 3.82988281 -38.71984375 3.91367188 -38 4 C-35.52923139 9.0444859 -34.83491321 12.27011256 -35 18 C-33.16888672 17.65775391 -33.16888672 17.65775391 -31.30078125 17.30859375 C-21.55274549 15.57563166 -12.87134977 14.52904483 -3 16 C-2.92652344 14.77023438 -2.92652344 14.77023438 -2.8515625 13.515625 C-2.77679688 12.43796875 -2.70203125 11.3603125 -2.625 10.25 C-2.55539063 9.18265625 -2.48578125 8.1153125 -2.4140625 7.015625 C-2.0271777 4.19793568 -1.44313834 2.4169634 0 0 Z M2 3 C-0.85793316 5.85793316 -0.40799941 8.14665584 -0.625 12.125 C-0.69976562 13.40632812 -0.77453125 14.68765625 -0.8515625 16.0078125 C-0.92503906 17.48894531 -0.92503906 17.48894531 -1 19 C-2.10408203 18.76023438 -2.10408203 18.76023438 -3.23046875 18.515625 C-13.0005892 16.6966463 -22.4409397 19.01836881 -32 21 C-33.66649844 21.33417334 -35.33308578 21.66790684 -37 22 C-36.95359375 21.34773438 -36.9071875 20.69546875 -36.859375 20.0234375 C-36.67478167 15.55364187 -36.76711817 12.54028583 -38.5625 8.375 C-40.87740215 5.66030144 -40.87740215 5.66030144 -44.625 5.4375 C-46.295625 5.7159375 -46.295625 5.7159375 -48 6 C-50.24666134 9.36999202 -50.2457371 10.56105462 -50.1875 14.5 C-50.18105469 15.4590625 -50.17460937 16.418125 -50.16796875 17.40625 C-50.10292931 20.11497767 -50.10292931 20.11497767 -49 23 C-50 25 -50 25 -52.6875 25.9375 C-53.780625 26.288125 -54.87375 26.63875 -56 27 C-62.62488077 29.25527856 -65.64159383 34.15042166 -69 40 C-71.47137172 45.46397819 -72.61575294 51.03834857 -73 57 C-73.05285156 57.639375 -73.10570312 58.27875 -73.16015625 58.9375 C-73.38530348 64.10609726 -72.62788626 69.10548825 -71.75 74.1875 C-71.58612793 75.20360352 -71.58612793 75.20360352 -71.41894531 76.24023438 C-70.3590257 81.90983063 -68.30913374 86.04086435 -63.88671875 89.79296875 C-54.59591889 95.684293 -48.05241447 97.44874465 -37 97 C-37 97.66 -37 98.32 -37 99 C-36.34 99 -35.68 99 -35 99 C-35.495 100.485 -35.495 100.485 -36 102 C-36.928125 102.4125 -37.85625 102.825 -38.8125 103.25 C-43.12106573 105.61548707 -43.99942907 107.53718792 -46 112 C-46.3384885 114.79473589 -46.3384885 114.79473589 -46 117 C-46.969375 117.28875 -47.93875 117.5775 -48.9375 117.875 C-52.10664203 118.64214682 -52.10664203 118.64214682 -53 121 C-53.45271628 125.08451393 -53.45271628 125.08451393 -51.765625 128.63671875 C-49.62027849 130.29319205 -48.1802237 130.58017539 -45.5 130.875 C-44.33984375 131.02582031 -44.33984375 131.02582031 -43.15625 131.1796875 C-40.92430462 131.18504103 -40.92430462 131.18504103 -39.23828125 129.6875 C-37.34046501 127.10120153 -37.68710834 125.12891663 -38 122 C-38.40347656 121.22140625 -38.80695313 120.4428125 -39.22265625 119.640625 C-40 117 -40 117 -38.796875 114.3515625 C-33.45700838 107.23853407 -27.6524746 100.8841582 -19 98 C-19.226875 99.258125 -19.45375 100.51625 -19.6875 101.8125 C-20.17337577 105.10494072 -20.17337577 105.10494072 -18.6875 108 C-17.04016021 109.16993413 -17.04016021 109.16993413 -15 109 C-14.67 109.99 -14.34 110.98 -14 112 C-11.49552484 113.21869929 -11.49552484 113.21869929 -9 114 C-9.08701172 115.21236328 -9.08701172 115.21236328 -9.17578125 116.44921875 C-9.54787225 123.20040499 -9.54787225 123.20040499 -6.9375 129.25 C-3.29917198 131.41751457 -1.17093474 131.54067673 3 131 C6.24849977 129.27773504 6.24849977 129.27773504 7 126 C7.8344592 122.6288837 7.8344592 122.6288837 7 119 C4.84598574 117.29271149 2.56650702 115.99127179 0.19921875 114.59765625 C-4.2429008 111.37061025 -4.68272369 106.61522483 -5.6875 101.5 C-5.790625 100.675 -5.89375 99.85 -6 99 C-6.66 99 -7.32 99 -8 99 C-8 98.01 -8 97.02 -8 96 C-7.0821875 96.01160156 -6.164375 96.02320313 -5.21875 96.03515625 C0.54045405 96.07750334 6.09174675 96.07151606 11.79882812 95.22338867 C20.26288026 94.36440379 29.01410844 94.96088436 37.50390625 95.32421875 C56.31761502 96.10984243 74.34617591 95.79827353 93.04882812 93.37597656 C95.76435097 93.03002147 98.47979594 92.73717016 101.203125 92.4609375 C104.79980149 92.24016708 104.79980149 92.24016708 107 91 C106.78794922 91.74685059 106.57589844 92.49370117 106.35742188 93.26318359 C105.40225519 96.63303263 104.45107874 100.00399505 103.5 103.375 C102.99919922 105.1384375 102.99919922 105.1384375 102.48828125 106.9375 C102.01455078 108.61972656 102.01455078 108.61972656 101.53125 110.3359375 C101.23798828 111.37282715 100.94472656 112.4097168 100.64257812 113.47802734 C99.91769882 115.88925546 99.91769882 115.88925546 100 118 C99.360625 118.309375 98.72125 118.61875 98.0625 118.9375 C96.06389179 119.8345163 96.06389179 119.8345163 95 121 C94.83333333 124 94.83333333 124 95 127 C96.56033623 128.56033623 98.08947136 128.20707559 100.25 128.25 C104.28906991 128.19211524 106.90369384 127.80602746 110 125 C110.87754191 122.79561167 110.87754191 122.79561167 111 120 C111.74742034 111.49364475 113.29458176 103.11625471 116 95 C117.216875 95.495 118.43375 95.99 119.6875 96.5 C132.03899153 100.61066989 143.18073617 97.48137057 154.43359375 92.17578125 C157.2311971 90.89407865 160.05076903 89.8767984 163 89 C163.33 86.69 163.66 84.38 164 82 C160.44727895 79.43611957 160.44727895 79.43611957 156.1875 79.3125 C155.465625 79.539375 154.74375 79.76625 154 80 C153.67 81.65 153.34 83.3 153 85 C149.83601018 85.67980581 146.66846323 86.34138686 143.5 87 C142.1696875 87.28617188 142.1696875 87.28617188 140.8125 87.578125 C135.422217 88.68788915 130.50240809 89.2056975 125 89 C124.67 88.34 124.34 87.68 124 87 C125.72476563 87.04060547 125.72476563 87.04060547 127.484375 87.08203125 C131.85507356 87.07914312 135.96539408 86.50613668 140.25 85.6875 C141.29027344 85.51057617 141.29027344 85.51057617 142.3515625 85.33007812 C146.25026791 84.60187166 149.1624596 83.84456402 152 81 C152.33 80.01 152.66 79.02 153 78 C157.28086459 76.74092218 159.93390435 77.19284638 164 79 C164.99 80.485 164.99 80.485 166 82 C169.23495393 81.03825694 170.77726248 80.27303309 172.9375 77.625 C174.29768001 75.08920645 174.29768001 75.08920645 173.25 72.8125 C172.63125 71.9153125 172.63125 71.9153125 172 71 C171.67 70.34 171.34 69.68 171 69 C167.24480125 68.92336329 163.99528427 69.00103906 160.3125 69.8125 C159.219375 69.874375 158.12625 69.93625 157 70 C154.5625 67.5625 154.5625 67.5625 153 65 C150.525 65.495 150.525 65.495 148 66 C146.91338967 69.91179717 147.12161465 71.47802746 149 75 C148.67 75.99 148.34 76.98 148 78 C136.63731573 80.23873787 125.50209794 81.64129348 113.9375 82.1875 C113.17119263 82.22603088 112.40488525 82.26456177 111.61535645 82.30426025 C87.0884488 83.52536781 63.17491501 84.2360415 39 79 C36.69304624 72.86375498 34.54021404 66.8115108 33 60.4375 C32.83757812 59.77693604 32.67515625 59.11637207 32.5078125 58.43579102 C31.60340086 54.70987593 30.77640114 50.9733774 30 47.21875 C29.83242188 46.42154541 29.66484375 45.62434082 29.4921875 44.80297852 C29.17361778 43.271916 28.86561112 41.73860148 28.5703125 40.20288086 C27.35865192 34.36844289 25.64440714 29.07641828 20.78125 25.2578125 C20.0284375 24.88398438 19.275625 24.51015625 18.5 24.125 C17.7471875 23.73570312 16.994375 23.34640625 16.21875 22.9453125 C14.15112667 22.06438848 12.19385871 21.468688 10 21 C10.17917969 20.10796875 10.35835938 19.2159375 10.54296875 18.296875 C10.86201172 16.54117188 10.86201172 16.54117188 11.1875 14.75 C11.51814453 13.00976562 11.51814453 13.00976562 11.85546875 11.234375 C12.26808522 8.03519928 12.26808522 8.03519928 10.7734375 5.6328125 C8.07151087 3.14513556 5.58113781 3.13022319 2 3 Z " fill="#0D0D0D" transform="translate(237,153)"/>
<path d="M0 0 C0.8772876 0.00008057 1.7545752 0.00016113 2.65844727 0.00024414 C13.70046062 0.09278858 25.18423627 0.56982228 36.03515625 2.74609375 C43.07494371 4.1490849 50.65862453 3.23935983 57.78857422 2.82666016 C68.22627002 2.2365504 78.6601612 2.01904549 89.11279297 1.95532227 C90.77755234 1.94351202 92.44228348 1.92648605 94.10693359 1.90405273 C96.47511537 1.87391051 98.84258459 1.86411354 101.2109375 1.859375 C101.9175351 1.84706848 102.62413269 1.83476196 103.35214233 1.82208252 C108.42862453 1.84441008 111.82350682 2.87808656 116.25 5.1875 C117.375 7.125 117.375 7.125 118.25 9.1875 C119.90788785 10.53173339 121.57576317 11.86368483 123.25 13.1875 C129.09894313 19.60707172 132.68621605 25.54966048 133.5625 34.3125 C132.75377503 44.34068958 127.46584103 55.79766824 120.75 63.3125 C115.84544727 66.99091455 109.76979135 66.31455331 103.86328125 66.25 C103.04796432 66.24621338 102.2326474 66.24242676 101.3926239 66.23852539 C97.94405414 66.22247515 94.495609 66.19510761 91.04711914 66.16699219 C81.57798193 66.09666536 72.14614519 66.15942316 62.68473816 66.58380127 C47.95750233 67.24367987 33.34029734 67.10261423 18.60986328 66.57324219 C14.69729389 66.43564645 10.78447789 66.32267907 6.87109375 66.2109375 C4.34109647 66.12646567 1.81114587 66.04058136 -0.71875 65.953125 C-1.86782837 65.92172424 -3.01690674 65.89032349 -4.20080566 65.85797119 C-14.3734023 65.45746198 -25.91558671 64.13225681 -33.40234375 56.50390625 C-39.56891191 49.01054592 -40.78777168 40.44471993 -42.2109375 31.09765625 C-42.86567205 27.56303858 -43.91891269 24.29529044 -45.1640625 20.9296875 C-45.75 19.1875 -45.75 19.1875 -45.75 17.1875 C-44.43 17.1875 -43.11 17.1875 -41.75 17.1875 C-41.49605469 18.11433594 -41.24210937 19.04117188 -40.98046875 19.99609375 C-40.63628906 21.19363281 -40.29210937 22.39117187 -39.9375 23.625 C-39.60105469 24.81996094 -39.26460938 26.01492187 -38.91796875 27.24609375 C-38.53253906 28.21675781 -38.14710938 29.18742187 -37.75 30.1875 C-36.76 30.5175 -35.77 30.8475 -34.75 31.1875 C-34.75 29.8675 -34.75 28.5475 -34.75 27.1875 C-33.76 27.1875 -32.77 27.1875 -31.75 27.1875 C-31.976875 26.630625 -32.20375 26.07375 -32.4375 25.5 C-32.75 23.1875 -32.75 23.1875 -31.5 20.4375 C-30.9225 19.695 -30.345 18.9525 -29.75 18.1875 C-28.76 18.1875 -27.77 18.1875 -26.75 18.1875 C-27.3602464 22.33717549 -28.75732607 25.50871736 -30.75 29.1875 C-31.224375 30.115625 -31.69875 31.04375 -32.1875 32 C-34.01072201 34.55251081 -34.78917537 34.62208585 -37.75 35.1875 C-37.46515154 36.91780291 -37.17180062 38.64670714 -36.875 40.375 C-36.63136719 41.81939453 -36.63136719 41.81939453 -36.3828125 43.29296875 C-35.36536843 47.94683327 -34.80258354 50.48577764 -30.75 53.1875 C-30.75 53.8475 -30.75 54.5075 -30.75 55.1875 C-29.43 55.5175 -28.11 55.8475 -26.75 56.1875 C-26.75 56.8475 -26.75 57.5075 -26.75 58.1875 C-25.7909375 58.373125 -25.7909375 58.373125 -24.8125 58.5625 C-22.52271656 59.02980274 -20.25332965 59.59908435 -18 60.21875 C-11.2936545 61.7132798 -4.5214501 61.40007156 2.3125 61.3125 C3.66861315 61.30244631 5.02473355 61.2933247 6.38085938 61.28515625 C9.670761 61.26174058 12.96028438 61.22894423 16.25 61.1875 C14.94844994 57.10785719 14.94844994 57.10785719 13.25 53.1875 C14.1875 51.0625 14.1875 51.0625 15.25 49.1875 C14.26 47.8675 13.27 46.5475 12.25 45.1875 C12.930625 44.630625 13.61125 44.07375 14.3125 43.5 C16.54301917 41.35472305 16.54301917 41.35472305 16.1875 38.5625 C15.38344454 35.86460239 15.38344454 35.86460239 12.25 34.1875 C12.58 33.1975 12.91 32.2075 13.25 31.1875 C15.79623682 32.15331397 17.2234119 33.15816141 19.0625 35.1875 C21.17251205 40.51805675 19.68265412 45.93769856 18.625 51.4375 C18.09835282 55.29957931 18.50045005 58.68840009 20.25 62.1875 C39.55580709 63.00895825 39.55580709 63.00895825 58.875 63.3125 C59.71450195 63.31701172 60.55400391 63.32152344 61.41894531 63.32617188 C65.13753326 63.66987741 65.13753326 63.66987741 68.25 62.1875 C70.92250538 62.16662105 73.57900188 62.1938335 76.25 62.25 C82.56908812 62.32926106 88.13847363 61.96539858 94.25 60.1875 C94.47245393 58.58523045 94.67746669 56.98053233 94.875 55.375 C94.99101563 54.48167969 95.10703125 53.58835937 95.2265625 52.66796875 C95.48500743 49.93059609 95.48500743 49.93059609 93.25 47.1875 C95.23 44.2175 95.23 44.2175 97.25 41.1875 C95.27 39.2075 95.27 39.2075 93.25 37.1875 C94.24 36.8575 95.23 36.5275 96.25 36.1875 C98.3125 37.9375 98.3125 37.9375 100.25 40.1875 C100.0625 42.125 100.0625 42.125 99.25 44.1875 C98.4291675 47.55291324 98.1299929 48.82747871 99.25 52.1875 C98.5909159 53.85717972 97.92349161 55.52357955 97.25 57.1875 C97.20846842 58.85364912 97.20263898 60.52150639 97.25 62.1875 C101.25172544 62.24752588 105.24815604 62.23174643 109.25 62.1875 C110.03117188 62.20683594 110.81234375 62.22617187 111.6171875 62.24609375 C114.5421784 62.16073409 116.68605645 61.68848549 118.89453125 59.7265625 C124.57126833 52.68453422 129.07195649 43.1700818 130.25 34.1875 C128.75036399 25.66684087 122.4860902 17.87334695 116.25 12.1875 C115.65929986 14.13353274 115.65929986 14.13353274 115.25 16.1875 C115.58 16.5175 115.91 16.8475 116.25 17.1875 C116.4665625 18.79625 116.4665625 18.79625 116.6875 20.4375 C117.07799456 24.08472987 117.07799456 24.08472987 118.375 26.875 C119.36938461 29.50301646 119.26329656 30.60819966 118.25 33.1875 C117.25 34.1875 117.25 34.1875 114.6875 34.25 C113.883125 34.229375 113.07875 34.20875 112.25 34.1875 C112.58 33.1975 112.91 32.2075 113.25 31.1875 C114.24 30.6925 114.24 30.6925 115.25 30.1875 C114.734375 29.300625 114.21875 28.41375 113.6875 27.5 C112.1631063 23.98726669 112.10052105 22.74043493 113.25 19.1875 C111.93 18.8575 110.61 18.5275 109.25 18.1875 C109.80728913 14.84376525 110.60173889 12.15437001 112.25 9.1875 C106.94218909 6.57165974 102.79174246 5.72730324 96.91015625 5.67578125 C95.75972084 5.64885445 95.75972084 5.64885445 94.58604431 5.62138367 C92.16158374 5.5676552 89.73731568 5.53350725 87.3125 5.5 C85.65817654 5.46679366 84.00387838 5.43230098 82.34960938 5.39648438 C78.31654607 5.31195114 74.28353612 5.24496321 70.25 5.1875 C70.25 5.8475 70.25 6.5075 70.25 7.1875 C70.889375 7.435 71.52875 7.6825 72.1875 7.9375 C74.25 9.1875 74.25 9.1875 75 10.875 C75.41708565 14.73304222 75.72927342 18.55797037 74.625 22.3125 C74.03481479 24.32181286 74.03481479 24.32181286 75.3125 26.5625 C76.25 29.1875 76.25 29.1875 75.6875 32.375 C74.25 35.1875 74.25 35.1875 71.625 36.5625 C70.84125 36.76875 70.0575 36.975 69.25 37.1875 C69.25 34.1875 69.25 34.1875 71.25 32 C71.91 31.401875 72.57 30.80375 73.25 30.1875 C72.734375 29.300625 72.21875 28.41375 71.6875 27.5 C70.16020998 23.98059257 70.03324286 22.736375 71.25 19.1875 C71.745 18.6925 71.745 18.6925 72.25 18.1875 C71.59 17.8575 70.93 17.5275 70.25 17.1875 C70.82584432 14.80185923 71.47227595 12.52067216 72.25 10.1875 C71.610625 9.878125 70.97125 9.56875 70.3125 9.25 C68.25 8.1875 68.25 8.1875 67.25 7.1875 C64.78018231 7.0872926 62.34448776 7.04872962 59.875 7.0625 C59.18921875 7.05863281 58.5034375 7.05476562 57.796875 7.05078125 C54.67777362 7.05684954 52.23024365 7.19408545 49.25 8.1875 C50.24 9.6725 50.24 9.6725 51.25 11.1875 C50.92873872 13.82184254 50.43644952 15.81460097 49.25 18.1875 C49.25569738 19.77137124 49.30307965 21.35525223 49.375 22.9375 C49.44017302 27.43443831 48.69500508 30.31624196 46.25 34.1875 C45.59 34.1875 44.93 34.1875 44.25 34.1875 C44.5284375 32.516875 44.5284375 32.516875 44.8125 30.8125 C45.56680657 27.36181139 45.56680657 27.36181139 44.25 25.1875 C45.1875 22.5625 45.1875 22.5625 46.25 20.1875 C45.26 20.1875 44.27 20.1875 43.25 20.1875 C43.81371414 16.91795798 44.74962266 15.36174117 47.25 13.1875 C46.26 11.7025 46.26 11.7025 45.25 10.1875 C45.25 9.1975 45.25 8.2075 45.25 7.1875 C43.69925781 7.23390625 43.69925781 7.23390625 42.1171875 7.28125 C34.60488848 7.28125 27.14025466 6.13070601 19.69140625 5.25390625 C12.83951797 4.4778024 6.14665248 3.97241526 -0.75 4.1875 C-0.255 4.6825 -0.255 4.6825 0.25 5.1875 C0.56921534 10.72056581 -0.31396179 14.31542357 -2.75 19.1875 C-2.564375 19.80625 -2.37875 20.425 -2.1875 21.0625 C-1.75 23.1875 -1.75 23.1875 -2.6875 24.9375 C-4.30389504 28.3604542 -3.87535919 31.42672443 -3.75 35.1875 C-5.07 35.8475 -6.39 36.5075 -7.75 37.1875 C-8.41 36.5275 -9.07 35.8675 -9.75 35.1875 C-8.9765625 34.6925 -8.9765625 34.6925 -8.1875 34.1875 C-6.41165278 31.71675604 -6.72146029 31.04304407 -7.1875 28.125 C-7.4659375 26.1759375 -7.4659375 26.1759375 -7.75 24.1875 C-7.09 23.5275 -6.43 22.8675 -5.75 22.1875 C-6.07326553 18.59070934 -6.07326553 18.59070934 -6.75 15.1875 C-5.76 15.1875 -4.77 15.1875 -3.75 15.1875 C-3.42 12.2175 -3.09 9.2475 -2.75 6.1875 C-3.41 6.1875 -4.07 6.1875 -4.75 6.1875 C-4.75 5.5275 -4.75 4.8675 -4.75 4.1875 C-5.30945313 4.331875 -5.86890625 4.47625 -6.4453125 4.625 C-13.91479903 6.35427019 -21.10996753 6.38565646 -28.75 6.1875 C-28.75 5.1975 -28.75 4.2075 -28.75 3.1875 C-26.83574219 2.98833984 -26.83574219 2.98833984 -24.8828125 2.78515625 C-23.21352004 2.60697335 -21.54425036 2.42857686 -19.875 2.25 C-19.03324219 2.16298828 -18.19148438 2.07597656 -17.32421875 1.98632812 C-16.11572266 1.85581055 -16.11572266 1.85581055 -14.8828125 1.72265625 C-14.13918457 1.644104 -13.39555664 1.56555176 -12.62939453 1.48461914 C-3.22123512 -0.00274511 -3.22123512 -0.00274511 0 0 Z " fill="#101010" transform="translate(470.75,218.8125)"/>
<path d="M0 0 C4.57301228 0.10959289 8.08821013 0.48939767 12.125 2.75 C15.1394186 7.97499225 13.85791914 13.19842798 13 19 C14.051875 19.2475 15.10375 19.495 16.1875 19.75 C22.03270742 21.4587804 25.09556837 24.62408628 28.03881836 29.92358398 C29.78149289 33.68823903 30.57056317 37.6476949 31.4375 41.6875 C31.85984417 43.54446047 32.28304468 45.40122634 32.70703125 47.2578125 C32.91924316 48.20301758 33.13145508 49.14822266 33.35009766 50.12207031 C34.40169356 54.77879929 35.50096067 59.42278446 36.625 64.0625 C36.81892334 64.90063232 37.01284668 65.73876465 37.21264648 66.60229492 C38.49730385 72.40158867 38.49730385 72.40158867 42 77 C45.20939964 78.11959152 45.20939964 78.11959152 49 78.6875 C49.68900391 78.80778564 50.37800781 78.92807129 51.08789062 79.05200195 C59.66323731 80.43700062 68.33065048 80.72672703 77 81 C76.67 81.99 76.34 82.98 76 84 C64.08330062 84.83789293 50.24433909 84.23403685 39 80 C35.2290577 76.43985572 34.73982788 73.01747928 34 68 C33.4983085 66.11617816 32.99597411 64.23244896 32.47363281 62.35424805 C31.11991575 57.35671425 30.0528557 52.29138468 29.00390625 47.22265625 C28.83576416 46.4248877 28.66762207 45.62711914 28.49438477 44.80517578 C28.17454094 43.27340027 27.86567863 41.73927294 27.57006836 40.20263672 C26.4098306 34.61338385 24.77901304 29.10497807 20.03515625 25.51171875 C19.38417969 25.23972656 18.73320312 24.96773437 18.0625 24.6875 C17.41410156 24.40261719 16.76570313 24.11773437 16.09765625 23.82421875 C15.05931641 23.41623047 15.05931641 23.41623047 14 23 C13.09121094 22.63519531 12.18242187 22.27039063 11.24609375 21.89453125 C10.50488281 21.59933594 9.76367188 21.30414063 9 21 C9.16757813 20.09636719 9.33515625 19.19273437 9.5078125 18.26171875 C9.71148437 17.08222656 9.91515625 15.90273437 10.125 14.6875 C10.33382812 13.51574219 10.54265625 12.34398437 10.7578125 11.13671875 C11.33711288 7.83713728 11.33711288 7.83713728 9 5 C5.48055874 4.17567358 5.48055874 4.17567358 2 4 C0.04848373 5.95151627 0.29031251 9.45168745 -0.0625 12.0625 C-0.23910156 13.35285156 -0.41570312 14.64320313 -0.59765625 15.97265625 C-0.73042969 16.97167969 -0.86320312 17.97070312 -1 19 C-1.8971875 18.96519531 -2.794375 18.93039063 -3.71875 18.89453125 C-11.63199139 18.72285969 -18.88555344 19.26143638 -26.63085938 20.93286133 C-30.15745589 21.69223466 -33.38966939 22.16599221 -37 22 C-37.05607422 21.00419922 -37.05607422 21.00419922 -37.11328125 19.98828125 C-37.44708218 12.87596616 -37.44708218 12.87596616 -41 7 C-44.62599422 6.58274322 -44.62599422 6.58274322 -48 7 C-49.29758261 9.59516521 -49.13269102 11.54183027 -49.125 14.4375 C-49.12757813 15.40558594 -49.13015625 16.37367188 -49.1328125 17.37109375 C-49.11213973 20.11017829 -49.11213973 20.11017829 -48 23 C-50.46524646 26.6978697 -51.84725472 26.72223222 -56 28 C-62.96082693 30.22154051 -65.73449532 35.8577412 -69 42 C-70.82274053 46.88825869 -71.58884847 51.81165927 -72 57 C-72.05414063 57.64195312 -72.10828125 58.28390625 -72.1640625 58.9453125 C-72.38013859 64.11149539 -71.62748888 69.10778865 -70.75 74.1875 C-70.58612793 75.20360352 -70.58612793 75.20360352 -70.41894531 76.24023438 C-69.27434556 82.36279159 -67.18711017 86.43526212 -62.08984375 90.08203125 C-61.04957031 90.65308594 -60.00929687 91.22414063 -58.9375 91.8125 C-57.89464844 92.39644531 -56.85179687 92.98039062 -55.77734375 93.58203125 C-51.5263025 95.75239408 -48.03762339 96.2350162 -43.3125 96.5625 C-41.54326172 96.68818359 -41.54326172 96.68818359 -39.73828125 96.81640625 C-38.83464844 96.87699219 -37.93101562 96.93757813 -37 97 C-37 97.66 -37 98.32 -37 99 C-36.34 99 -35.68 99 -35 99 C-35.125 100.875 -35.125 100.875 -36 103 C-36.969375 103.309375 -37.93875 103.61875 -38.9375 103.9375 C-42.12866673 104.66855549 -42.12866673 104.66855549 -43.25 107.1875 C-43.82294142 109.33603033 -44.30681404 111.50850237 -44.75 113.6875 C-46 117 -46 117 -49.125 118.4375 C-50.07375 118.623125 -51.0225 118.80875 -52 119 C-52.04125 120.27875 -52.0825 121.5575 -52.125 122.875 C-52.14820313 123.59429687 -52.17140625 124.31359375 -52.1953125 125.0546875 C-52.18331689 127.23863645 -52.18331689 127.23863645 -50 129 C-47.86916641 129.53601501 -47.86916641 129.53601501 -45.5 129.75 C-44.30890625 129.89695312 -44.30890625 129.89695312 -43.09375 130.046875 C-40.77552621 130.23626145 -40.77552621 130.23626145 -39 128 C-38.70670744 124.70045872 -38.68448998 122.60690462 -40.2265625 119.640625 C-41 117 -41 117 -39.7265625 114.31640625 C-35.33164883 108.55727217 -31.12699719 103.89899821 -25 100 C-24.01 99.34 -23.02 98.68 -22 98 C-21.01 98 -20.02 98 -19 98 C-19.103125 99.216875 -19.20625 100.43375 -19.3125 101.6875 C-19.3125 105.23983413 -19.09375906 105.8767738 -16.8125 108.875 C-14.16301554 111.09322387 -14.16301554 111.09322387 -11.25 112 C-10.5075 112.33 -9.765 112.66 -9 113 C-8.0795792 115.40725439 -7.97153594 117.40344074 -8.09375 119.96484375 C-8.24818837 123.42040235 -8.3257795 125.51133075 -6.375 128.4375 C-3.56852703 130.2838638 -1.28795689 130.49965873 2 131 C2.66 131.99 3.32 132.98 4 134 C-3.99651568 134.6271777 -3.99651568 134.6271777 -8 132.125 C-11.39925959 128.51328669 -11.251734 125.75846572 -11.5625 120.875 C-11.64628906 119.59367187 -11.73007813 118.31234375 -11.81640625 116.9921875 C-11.87699219 116.00476563 -11.93757813 115.01734375 -12 114 C-13.65 113.67 -15.3 113.34 -17 113 C-17 112.34 -17 111.68 -17 111 C-17.9590625 110.5359375 -17.9590625 110.5359375 -18.9375 110.0625 C-21 109 -21 109 -22 108 C-22.04063832 106.33382885 -22.042721 104.66611905 -22 103 C-28.27918501 104.712505 -32.29696145 109.65832199 -36 114.75 C-37.34382386 117.09231069 -37.34382386 117.09231069 -36 120 C-35.85779721 121.66267874 -35.77979433 123.3315173 -35.75 125 C-35.72421875 125.86625 -35.6984375 126.7325 -35.671875 127.625 C-36 130 -36 130 -37.2421875 131.79296875 C-40.5033862 134.03232519 -44.20321604 133.39369113 -48 133 C-51.21932007 132.0410536 -52.63128979 131.36871021 -55 129 C-55.265625 126.72265625 -55.265625 126.72265625 -55.25 124.0625 C-55.25515625 123.18722656 -55.2603125 122.31195313 -55.265625 121.41015625 C-55 119 -55 119 -53 116 C-50.375 115.3125 -50.375 115.3125 -48 115 C-47.896875 113.948125 -47.79375 112.89625 -47.6875 111.8125 C-46.64837651 106.05008791 -44.66510335 103.34733189 -40 100 C-41.14662109 100.0309375 -41.14662109 100.0309375 -42.31640625 100.0625 C-52.38041483 99.86872848 -59.91773971 96.79027603 -68 91 C-70.18070844 88.45262377 -71.17759406 86.22435346 -72 83 C-72.391875 81.865625 -72.78375 80.73125 -73.1875 79.5625 C-76.47868299 65.13192841 -76.94858044 47.94804094 -69 35 C-68.68675781 34.39542969 -68.37351563 33.79085937 -68.05078125 33.16796875 C-64.43833801 27.00398568 -58.34166717 24.76120437 -52 22 C-52.02320313 21.03578125 -52.04640625 20.0715625 -52.0703125 19.078125 C-52.09738281 17.18320313 -52.09738281 17.18320313 -52.125 15.25 C-52.14820313 13.99703125 -52.17140625 12.7440625 -52.1953125 11.453125 C-52.01472805 8.26039184 -51.79769093 6.58968064 -50 4 C-47.37684968 2.68842484 -45.76966564 3.10350012 -42.875 3.4375 C-41.96492188 3.53933594 -41.05484375 3.64117187 -40.1171875 3.74609375 C-39.41851562 3.82988281 -38.71984375 3.91367188 -38 4 C-35.52923139 9.0444859 -34.83491321 12.27011256 -35 18 C-33.16888672 17.65775391 -33.16888672 17.65775391 -31.30078125 17.30859375 C-21.55274549 15.57563166 -12.87134977 14.52904483 -3 16 C-2.92652344 14.77023438 -2.92652344 14.77023438 -2.8515625 13.515625 C-2.77679688 12.43796875 -2.70203125 11.3603125 -2.625 10.25 C-2.55539063 9.18265625 -2.48578125 8.1153125 -2.4140625 7.015625 C-2.0271777 4.19793568 -1.44313834 2.4169634 0 0 Z " fill="#080808" transform="translate(237,153)"/>
<path d="M0 0 C1.60520004 0.06023265 3.20934327 0.14908599 4.8125 0.25 C6.15248047 0.31960937 6.15248047 0.31960937 7.51953125 0.390625 C10 1 10 1 11.76953125 2.76953125 C13.76405967 6.38500976 14.13849394 9.90349513 14 14 C12.6875 17.0625 12.6875 17.0625 11 19 C10.34 19 9.68 19 9 19 C9 19.66 9 20.32 9 21 C4.14783889 22.9906302 -0.79512468 23.92200649 -6 23 C-7.765625 21.6328125 -7.765625 21.6328125 -9 20 C-9.042721 18.33388095 -9.04063832 16.66617115 -9 15 C-9.350625 14.360625 -9.70125 13.72125 -10.0625 13.0625 C-11.38726372 10.14801982 -10.69338127 8.05087758 -10 5 C-4.375 3 -4.375 3 -1 3 C-0.67 2.01 -0.34 1.02 0 0 Z " fill="#CACACA" transform="translate(429,213)"/>
<path d="M0 0 C-2 3 -2 3 -3.98632812 3.69091797 C-12.78513943 5.16470198 -21.60358142 5.67703343 -30.5 6.125 C-31.29426392 6.16735779 -32.08852783 6.20971558 -32.90686035 6.25335693 C-44.60941673 6.87744208 -56.27930216 7.28509806 -68 7 C-67.67 6.01 -67.34 5.02 -67 4 C-66.04398895 3.95028549 -66.04398895 3.95028549 -65.06866455 3.89956665 C-58.38370293 3.55058753 -51.69930197 3.19203192 -45.01513672 2.828125 C-42.52665904 2.69387436 -40.03805213 2.56199598 -37.54931641 2.43261719 C-33.95437911 2.24530583 -30.36000632 2.04922444 -26.765625 1.8515625 C-25.66825012 1.79626373 -24.57087524 1.74096497 -23.44024658 1.68399048 C-16.96991008 1.31835384 -10.73560009 0.54664666 -4.371521 -0.69009399 C-2 -1 -2 -1 0 0 Z " fill="#1B1B1B" transform="translate(381,230)"/>
<path d="M0 0 C-0.33 0.66 -0.66 1.32 -1 2 C-2.32 2 -3.64 2 -5 2 C-5 2.66 -5 3.32 -5 4 C-4.360625 4.2475 -3.72125 4.495 -3.0625 4.75 C-1 6 -1 6 -0.25 7.6875 C0.16708565 11.54554222 0.47927342 15.37047037 -0.625 19.125 C-1.21518521 21.13431286 -1.21518521 21.13431286 0.0625 23.375 C1 26 1 26 0.4375 29.1875 C-1 32 -1 32 -3.625 33.375 C-4.40875 33.58125 -5.1925 33.7875 -6 34 C-6 31 -6 31 -4 28.8125 C-3.01 27.9153125 -3.01 27.9153125 -2 27 C-2.515625 26.113125 -3.03125 25.22625 -3.5625 24.3125 C-5.08979002 20.79309257 -5.21675714 19.548875 -4 16 C-3.67 15.67 -3.34 15.34 -3 15 C-3.66 14.67 -4.32 14.34 -5 14 C-4.42415568 11.61435923 -3.77772405 9.33317216 -3 7 C-8.60944292 3.85871197 -14.68146331 2.77369837 -21 2 C-20.67 1.34 -20.34 0.68 -20 0 C-17.22949974 -0.1946838 -14.45886998 -0.38102792 -11.6875 -0.5625 C-10.90181641 -0.61857422 -10.11613281 -0.67464844 -9.30664062 -0.73242188 C-8.1706543 -0.80493164 -8.1706543 -0.80493164 -7.01171875 -0.87890625 C-6.31522217 -0.9260376 -5.61872559 -0.97316895 -4.90112305 -1.02172852 C-3 -1 -3 -1 0 0 Z " fill="#030303" transform="translate(546,222)"/>
<path d="M0 0 C1.32 0 2.64 0 4 0 C4.25394531 0.92683594 4.50789063 1.85367188 4.76953125 2.80859375 C5.28580078 4.60490234 5.28580078 4.60490234 5.8125 6.4375 C6.14894531 7.63246094 6.48539062 8.82742187 6.83203125 10.05859375 C7.21746094 11.02925781 7.60289062 11.99992188 8 13 C8.99 13.33 9.98 13.66 11 14 C11 12.68 11 11.36 11 10 C11.99 10 12.98 10 14 10 C13.773125 9.443125 13.54625 8.88625 13.3125 8.3125 C13 6 13 6 14.25 3.25 C14.8275 2.5075 15.405 1.765 16 1 C16.99 1 17.98 1 19 1 C18.3897536 5.14967549 16.99267393 8.32121736 15 12 C14.2884375 13.3921875 14.2884375 13.3921875 13.5625 14.8125 C12 17 12 17 9.8125 17.8125 C9.214375 17.874375 8.61625 17.93625 8 18 C8.33 20.31 8.66 22.62 9 25 C7.06640625 24.34765625 7.06640625 24.34765625 5 23 C4.27734375 20.49609375 4.27734375 20.49609375 3.9375 17.4375 C3.29166946 12.60249835 2.2759096 8.31013188 0.5859375 3.7421875 C0 2 0 2 0 0 Z " fill="#020202" transform="translate(425,236)"/>
<path d="M0 0 C0.66 0 1.32 0 2 0 C1.8453125 1.8253125 1.8453125 1.8253125 1.6875 3.6875 C1.6875 7.23983413 1.90624094 7.8767738 4.1875 10.875 C6.83698446 13.09322387 6.83698446 13.09322387 9.75 14 C10.86375 14.495 10.86375 14.495 12 15 C12.9204208 17.40725439 13.02846406 19.40344074 12.90625 21.96484375 C12.75181163 25.42040235 12.6742205 27.51133075 14.625 30.4375 C17.43147297 32.2838638 19.71204311 32.49965873 23 33 C23.66 33.99 24.32 34.98 25 36 C17.00348432 36.6271777 17.00348432 36.6271777 13 34.125 C9.60074041 30.51328669 9.748266 27.75846572 9.4375 22.875 C9.35371094 21.59367187 9.26992187 20.31234375 9.18359375 18.9921875 C9.12300781 18.00476563 9.06242188 17.01734375 9 16 C7.35 15.67 5.7 15.34 4 15 C4 14.34 4 13.68 4 13 C3.360625 12.690625 2.72125 12.38125 2.0625 12.0625 C0 11 0 11 -1 10 C-1.04063832 8.33382885 -1.042721 6.66611905 -1 5 C-1.66 5 -2.32 5 -3 5 C-1.125 1.125 -1.125 1.125 0 0 Z " fill="#0B0B0B" transform="translate(216,251)"/>
<path d="M0 0 C0.66 0.33 1.32 0.66 2 1 C2 1.66 2 2.32 2 3 C-7.36907648 7.05932907 -15.01487938 8.00025033 -25 6 C-27.33301986 5.96175377 -29.66711508 5.95425716 -32 6 C-32.16435547 6.84884766 -32.16435547 6.84884766 -32.33203125 7.71484375 C-32.49058594 8.44832031 -32.64914062 9.18179687 -32.8125 9.9375 C-32.96332031 10.66839844 -33.11414063 11.39929688 -33.26953125 12.15234375 C-33.51058594 12.76207031 -33.75164062 13.37179687 -34 14 C-34.99 14.33 -35.98 14.66 -37 15 C-36.71715982 13.22773547 -36.42339502 11.457212 -36.125 9.6875 C-35.96257812 8.70136719 -35.80015625 7.71523437 -35.6328125 6.69921875 C-35 4 -35 4 -33 1 C-31.783125 1.33 -30.56625 1.66 -29.3125 2 C-19.14301154 4.24562837 -9.76338951 3.25446317 0 0 Z " fill="#141414" transform="translate(386,247)"/>
<path d="M0 0 C1.58941406 0.05414063 1.58941406 0.05414063 3.2109375 0.109375 C4.00757813 0.15578125 4.80421875 0.2021875 5.625 0.25 C5.295 1.24 4.965 2.23 4.625 3.25 C3.87734375 3.29898438 3.1296875 3.34796875 2.359375 3.3984375 C1.37453125 3.47320312 0.3896875 3.54796875 -0.625 3.625 C-2.08679688 3.72941406 -2.08679688 3.72941406 -3.578125 3.8359375 C-6.27133189 4.23465249 -8.04463279 4.88507063 -10.375 6.25 C-10.31483797 8.0217719 -10.22600672 9.79258679 -10.125 11.5625 C-10.07859375 12.54863281 -10.0321875 13.53476563 -9.984375 14.55078125 C-9.61066338 17.33988206 -9.61066338 17.33988206 -7.5625 19.03125 C-4.62585641 20.66738 -1.62408178 21.43772956 1.625 22.25 C1.625 23.24 1.625 24.23 1.625 25.25 C0.92375 25.105625 0.2225 24.96125 -0.5 24.8125 C-3.40286273 24.19807803 -3.40286273 24.19807803 -6.5 23.9375 C-9.375 23.25 -9.375 23.25 -11.01953125 21.67578125 C-12.9020497 18.30677849 -12.88079668 15.59070454 -12.9375 11.75 C-12.98003906 10.4403125 -13.02257812 9.130625 -13.06640625 7.78125 C-12.375 4.25 -12.375 4.25 -9.73828125 1.796875 C-6.12947837 0.13707716 -3.93588594 -0.17492826 0 0 Z " fill="#0B0B0B" transform="translate(202.375,195.75)"/>
<path d="M0 0 C0.66 0.33 1.32 0.66 2 1 C0.125 5.75 0.125 5.75 -1 8 C-0.7215625 8.928125 -0.7215625 8.928125 -0.4375 9.875 C0 12 0 12 -0.9375 13.75 C-2.55389504 17.1729542 -2.12535919 20.23922443 -2 24 C-3.98 24.99 -3.98 24.99 -6 26 C-6.66 25.34 -7.32 24.68 -8 24 C-7.484375 23.67 -6.96875 23.34 -6.4375 23 C-4.66165278 20.52925604 -4.97146029 19.85554407 -5.4375 16.9375 C-5.623125 15.638125 -5.80875 14.33875 -6 13 C-5.34 12.34 -4.68 11.68 -4 11 C-4.32326553 7.40320934 -4.32326553 7.40320934 -5 4 C-4.01 4 -3.02 4 -2 4 C-1.34 2.68 -0.68 1.36 0 0 Z " fill="#000000" transform="translate(469,230)"/>
<path d="M0 0 C1.32 0 2.64 0 4 0 C5.32 4.62 6.64 9.24 8 14 C7.34 14 6.68 14 6 14 C5.67 15.65 5.34 17.3 5 19 C4.67 19 4.34 19 4 19 C3.896875 17.865625 3.79375 16.73125 3.6875 15.5625 C3.18868597 11.44728422 2.03577097 7.76809827 0.62109375 3.8828125 C0 2 0 2 0 0 Z " fill="#151515" transform="translate(425,236)"/>
<path d="M0 0 C0 0.99 0 1.98 0 3 C-7.59 3 -15.18 3 -23 3 C-23 2.34 -23 1.68 -23 1 C-15.307359 0.15199233 -7.73708326 -0.12152487 0 0 Z " fill="#111111" transform="translate(216,228)"/>
<path d="M0 0 C0.33 0 0.66 0 1 0 C1.0861953 4.99932751 0.8372965 8.97622101 0 14 C-4.29 13.67 -8.58 13.34 -13 13 C-13 12.01 -13 11.02 -13 10 C-9.37 10.33 -5.74 10.66 -2 11 C-1.855625 9.370625 -1.71125 7.74125 -1.5625 6.0625 C-1.125 1.125 -1.125 1.125 0 0 Z " fill="#020202" transform="translate(236,158)"/>
<path d="M0 0 C3.3 0 6.6 0 10 0 C10 0.33 10 0.66 10 1 C16.6 1.33 23.2 1.66 30 2 C30 2.33 30 2.66 30 3 C19.77 3 9.54 3 -1 3 C-0.67 2.01 -0.34 1.02 0 0 Z " fill="#1F1F1F" transform="translate(546,221)"/>
<path d="M0 0 C-0.99 1.485 -0.99 1.485 -2 3 C-5.2578125 3.29296875 -5.2578125 3.29296875 -9.125 3.1875 C-11.04699219 3.14689453 -11.04699219 3.14689453 -13.0078125 3.10546875 C-13.99523437 3.07066406 -14.98265625 3.03585938 -16 3 C-16 2.01 -16 1.02 -16 0 C-13.89651926 -0.19504458 -11.79217415 -0.38078496 -9.6875 -0.5625 C-8.51574219 -0.66691406 -7.34398437 -0.77132812 -6.13671875 -0.87890625 C-3 -1 -3 -1 0 0 Z " fill="#080808" transform="translate(458,222)"/>
<path d="M0 0 C0.66 0.66 1.32 1.32 2 2 C1.69903201 6.13830989 1.32101984 8.51847024 -1 12 C-1.66 12 -2.32 12 -3 12 C-2.835 10.906875 -2.67 9.81375 -2.5 8.6875 C-1.93281816 5.12474127 -1.93281816 5.12474127 -2 2 C-1.34 1.34 -0.68 0.68 0 0 Z " fill="#000000" transform="translate(518,241)"/>
<path d="M0 0 C2.4375 0.8125 2.4375 0.8125 5 2 C5.33 2.99 5.66 3.98 6 5 C3 5 3 5 0.8125 3 C0.214375 2.34 -0.38375 1.68 -1 1 C-0.67 0.67 -0.34 0.34 0 0 Z " fill="#000000" transform="translate(565,255)"/>
<path d="M0 0 C0.33 0 0.66 0 1 0 C0.67 2.64 0.34 5.28 0 8 C-0.99 8.33 -1.98 8.66 -3 9 C-2.69181644 7.68647977 -2.37832335 6.37420428 -2.0625 5.0625 C-1.88847656 4.33160156 -1.71445312 3.60070312 -1.53515625 2.84765625 C-1 1 -1 1 0 0 Z " fill="#020202" transform="translate(350,261)"/>
<path d="M0 0 C1.32 0 2.64 0 4 0 C3.67 1.65 3.34 3.3 3 5 C2.01 5 1.02 5 0 5 C0 3.35 0 1.7 0 0 Z " fill="#050505" transform="translate(179,193)"/>
<path d="M0 0 C1.65 0 3.3 0 5 0 C4.67 1.32 4.34 2.64 4 4 C2.68 3.67 1.36 3.34 0 3 C0 2.01 0 1.02 0 0 Z " fill="#050505" transform="translate(224,191)"/>
</svg>
