<?xml version="1.0" encoding="UTF-8"?>
<svg version="1.1" xmlns="http://www.w3.org/2000/svg" width="800" height="300">
<path d="M0 0 C264 0 528 0 800 0 C800 99 800 198 800 300 C536 300 272 300 0 300 C0 201 0 102 0 0 Z " fill="#FEFEFE" transform="translate(0,0)"/>
<path d="M0 0 C5.87711622 -0.48975968 10.09611773 0.62928552 15 4 C17 7 17 7 18 12 C30.375 11.505 30.375 11.505 43 11 C43.33 9.02 43.66 7.04 44 5 C46.08177525 1.91091414 47.5970943 0.29434908 51.30859375 -0.484375 C56.54333557 -0.77121017 60.54685724 -0.05964681 64.66015625 3.2890625 C67.19363808 6.52423755 67.4616254 9.99210023 68 14 C72.95 14 77.9 14 83 14 C83 39.74 83 65.48 83 92 C71.78 92 60.56 92 49 92 C50.65 96.95 52.3 101.9 54 107 C58.07099893 108.7082408 58.07099893 108.7082408 60.8359375 108.76953125 C63 109 63 109 66.125 111.3125 C68 114 68 114 67.9140625 116.44140625 C66.71702906 119.79207677 65.21143829 120.70619827 62.25 122.625 C61.38890625 123.19476563 60.5278125 123.76453125 59.640625 124.3515625 C58.76921875 124.89554687 57.8978125 125.43953125 57 126 C56.16210938 126.55945313 55.32421875 127.11890625 54.4609375 127.6953125 C51.81547589 129.09782707 50.33369631 129.35167341 47.375 129.25 C46.61960937 129.23453125 45.86421875 129.2190625 45.0859375 129.203125 C43 129 43 129 40 128 C37.52657734 124.28986601 37.61496514 122.38939738 38 118 C39.51953125 115.77734375 39.51953125 115.77734375 41 114 C40.4225 113.22914063 39.845 112.45828125 39.25 111.6640625 C38.5075 110.66117187 37.765 109.65828125 37 108.625 C36.2575 107.62726563 35.515 106.62953125 34.75 105.6015625 C33 103 33 103 33 101 C28.95944944 103.10690801 26.88736449 105.18025768 24.4375 109 C21.38256446 113.74114707 21.38256446 113.74114707 18.77734375 115.50390625 C17.89755859 116.24447266 17.89755859 116.24447266 17 117 C16.74137153 119.38601555 16.74137153 119.38601555 17.125 121.9375 C17.29804835 126.67902485 17.29804835 126.67902485 14.5625 129.625 C9.38914377 131.62173398 4.99594549 132.09595271 -0.28515625 130.1640625 C-3.30227336 128.70752321 -5.62027058 127.37972942 -8 125 C-8.68530813 121.57345936 -8.69462485 118.42466203 -8 115 C-5.60970207 111.77418759 -2.61077652 110.36977826 1.24609375 109.484375 C3.15342363 109.2259845 5.07790765 109.10116276 7 109 C7.2475 108.175 7.495 107.35 7.75 106.5 C11.22222222 96.77777778 11.22222222 96.77777778 14 94 C13.00987915 93.85751831 13.00987915 93.85751831 11.99975586 93.7121582 C8.97569017 93.26545436 5.95696729 92.78925799 2.9375 92.3125 C1.89916016 92.16361328 0.86082031 92.01472656 -0.20898438 91.86132812 C-7.82339344 90.62851904 -12.83567549 88.93163925 -17.8203125 82.73828125 C-24.12060895 71.024257 -29.06205383 56.41280886 -27 43 C-26.03162557 40.02605822 -24.72365932 37.59737628 -23 35 C-22.38125 33.9275 -21.7625 32.855 -21.125 31.75 C-18.72263534 28.6410575 -16.33685883 27.04297479 -13 25 C-12.154375 24.29875 -11.30875 23.5975 -10.4375 22.875 C-8.00207104 21.00159311 -5.85445724 20.07338991 -3 19 C-3.05220703 17.948125 -3.05220703 17.948125 -3.10546875 16.875 C-3.28894664 10.4445369 -2.6553877 5.86398118 0 0 Z " fill="#F9F9F9" transform="translate(717,156)"/>
<path d="M0 0 C5.87711622 -0.48975968 10.09611773 0.62928552 15 4 C17.29013653 7.4352048 17.17842973 8.985331 17 13 C16.34 13 15.68 13 15 13 C14.814375 11.906875 14.62875 10.81375 14.4375 9.6875 C13.3364902 5.72410335 13.3364902 5.72410335 9.625 4.0625 C5.98983152 2.81248638 5.98983152 2.81248638 2 3 C0.17144572 7.59232335 -0.12514462 10.97358268 0.375 15.875 C0.48585938 17.02742188 0.59671875 18.17984375 0.7109375 19.3671875 C0.80632813 20.23601562 0.90171875 21.10484375 1 22 C-0.258125 22.28875 -1.51625 22.5775 -2.8125 22.875 C-9.45151423 25.04930355 -14.34507316 29.94607944 -19 35 C-19.33 35.99 -19.66 36.98 -20 38 C-20.66 38 -21.32 38 -22 38 C-22.144375 38.969375 -22.28875 39.93875 -22.4375 40.9375 C-23 44 -23 44 -24 45 C-24.48249014 52.19414397 -23.17742957 57.80066204 -20.8125 64.5625 C-20.37454102 65.90344727 -20.37454102 65.90344727 -19.92773438 67.27148438 C-17.68116498 73.87591526 -15.20075176 80.39436289 -9.66796875 84.8984375 C-6.28376301 86.29572303 -2.90491956 87.02470567 0.6875 87.625 C1.39068359 87.74979736 2.09386719 87.87459473 2.81835938 88.00317383 C8.18821971 88.93034838 13.56198003 89.62090726 19 90 C19.33 90.99 19.66 91.98 20 93 C18.68 93 17.36 93 16 93 C15.88785156 93.51304687 15.77570312 94.02609375 15.66015625 94.5546875 C11.66706084 109.34567995 11.66706084 109.34567995 7.03515625 112.21875 C5 112.625 5 112.625 2.96875 112.8046875 C-0.46284582 113.14512359 -2.50140123 114.75126111 -5 117 C-5.50169415 120.16926564 -5.50169415 120.16926564 -5 123 C0.360543 126.57369533 3.5502423 127.64497577 10 127 C10.99 126.34 11.98 125.68 13 125 C12.67 121.7 12.34 118.4 12 115 C13.8871875 113.9171875 13.8871875 113.9171875 15.8125 112.8125 C19.40471051 110.5579483 21.01704473 108.79347964 23 105 C25.27210836 101.95167362 27.63374922 98.9756414 30 96 C31.82421875 96.21484375 31.82421875 96.21484375 34 97 C35.45703125 99.00390625 35.45703125 99.00390625 36.8125 101.5625 C39.33260141 106.07283534 42.16256842 109.63242097 45.77734375 113.30859375 C46.18082031 113.86675781 46.58429688 114.42492187 47 115 C46.505 116.485 46.505 116.485 46 118 C43.9375 118.6875 43.9375 118.6875 42 119 C41.957279 120.66611905 41.95936168 122.33382885 42 124 C43.16893124 125.36754688 43.16893124 125.36754688 46.375 125.5 C52.42780122 125.45605952 57.54518398 121.85196746 62 118 C62.87693705 115.88208613 62.87693705 115.88208613 63 114 C60.70370006 112.85185003 58.92301914 112.69230191 56.375 112.4375 C55.14910156 112.31181641 55.14910156 112.31181641 53.8984375 112.18359375 C53.27195312 112.12300781 52.64546875 112.06242187 52 112 C51.608125 110.9275 51.21625 109.855 50.8125 108.75 C49.03313309 103.99083203 47.06328071 99.31643102 45.0859375 94.63671875 C44.32299233 92.78424396 43.63354149 90.90062446 43 89 C44.64663676 87.35336324 46.55450082 87.8700122 48.8203125 87.8671875 C50.32658203 87.86428711 50.32658203 87.86428711 51.86328125 87.86132812 C52.93964844 87.86583984 54.01601563 87.87035156 55.125 87.875 C56.20910156 87.87693359 57.29320312 87.87886719 58.41015625 87.88085938 C66.64383901 87.92491594 74.79929048 88.26403889 83 89 C83 89.99 83 90.98 83 92 C71.78 92 60.56 92 49 92 C50.65 96.95 52.3 101.9 54 107 C58.07099893 108.7082408 58.07099893 108.7082408 60.8359375 108.76953125 C63 109 63 109 66.125 111.3125 C68 114 68 114 67.9140625 116.44140625 C66.71702906 119.79207677 65.21143829 120.70619827 62.25 122.625 C61.38890625 123.19476563 60.5278125 123.76453125 59.640625 124.3515625 C58.76921875 124.89554687 57.8978125 125.43953125 57 126 C56.16210938 126.55945313 55.32421875 127.11890625 54.4609375 127.6953125 C51.81547589 129.09782707 50.33369631 129.35167341 47.375 129.25 C46.61960937 129.23453125 45.86421875 129.2190625 45.0859375 129.203125 C43 129 43 129 40 128 C37.52657734 124.28986601 37.61496514 122.38939738 38 118 C39.51953125 115.77734375 39.51953125 115.77734375 41 114 C40.4225 113.22914063 39.845 112.45828125 39.25 111.6640625 C38.5075 110.66117187 37.765 109.65828125 37 108.625 C36.2575 107.62726563 35.515 106.62953125 34.75 105.6015625 C33 103 33 103 33 101 C28.95944944 103.10690801 26.88736449 105.18025768 24.4375 109 C21.38256446 113.74114707 21.38256446 113.74114707 18.77734375 115.50390625 C17.89755859 116.24447266 17.89755859 116.24447266 17 117 C16.74137153 119.38601555 16.74137153 119.38601555 17.125 121.9375 C17.29804835 126.67902485 17.29804835 126.67902485 14.5625 129.625 C9.38914377 131.62173398 4.99594549 132.09595271 -0.28515625 130.1640625 C-3.30227336 128.70752321 -5.62027058 127.37972942 -8 125 C-8.68530813 121.57345936 -8.69462485 118.42466203 -8 115 C-5.60970207 111.77418759 -2.61077652 110.36977826 1.24609375 109.484375 C3.15342363 109.2259845 5.07790765 109.10116276 7 109 C7.2475 108.175 7.495 107.35 7.75 106.5 C11.22222222 96.77777778 11.22222222 96.77777778 14 94 C13.00987915 93.85751831 13.00987915 93.85751831 11.99975586 93.7121582 C8.97569017 93.26545436 5.95696729 92.78925799 2.9375 92.3125 C1.89916016 92.16361328 0.86082031 92.01472656 -0.20898438 91.86132812 C-7.82339344 90.62851904 -12.83567549 88.93163925 -17.8203125 82.73828125 C-24.12060895 71.024257 -29.06205383 56.41280886 -27 43 C-26.03162557 40.02605822 -24.72365932 37.59737628 -23 35 C-22.38125 33.9275 -21.7625 32.855 -21.125 31.75 C-18.72263534 28.6410575 -16.33685883 27.04297479 -13 25 C-12.154375 24.29875 -11.30875 23.5975 -10.4375 22.875 C-8.00207104 21.00159311 -5.85445724 20.07338991 -3 19 C-3.05220703 17.948125 -3.05220703 17.948125 -3.10546875 16.875 C-3.28894664 10.4445369 -2.6553877 5.86398118 0 0 Z " fill="#0E0E0E" transform="translate(717,156)"/>
<path d="M0 0 C1.50626953 -0.00290039 1.50626953 -0.00290039 3.04296875 -0.00585938 C4.11933594 -0.00134766 5.19570313 0.00316406 6.3046875 0.0078125 C7.38878906 0.00974609 8.47289062 0.01167969 9.58984375 0.01367188 C17.82352651 0.05772844 25.97897798 0.39685139 34.1796875 1.1328125 C34.1796875 2.1228125 34.1796875 3.1128125 34.1796875 4.1328125 C22.9596875 4.1328125 11.7396875 4.1328125 0.1796875 4.1328125 C1.8296875 9.0828125 3.4796875 14.0328125 5.1796875 19.1328125 C9.25068643 20.8410533 9.25068643 20.8410533 12.015625 20.90234375 C14.1796875 21.1328125 14.1796875 21.1328125 17.3046875 23.4453125 C19.1796875 26.1328125 19.1796875 26.1328125 19.1015625 28.56640625 C17.88396264 31.95608045 16.29172078 32.92608925 13.3046875 34.8828125 C12.42039062 35.47578125 11.53609375 36.06875 10.625 36.6796875 C8.1796875 38.1328125 8.1796875 38.1328125 5.1796875 39.1328125 C6.91955736 35.25156436 8.86665922 33.03317475 12.3671875 30.6328125 C12.9653125 30.1378125 13.5634375 29.6428125 14.1796875 29.1328125 C14.1796875 28.1428125 14.1796875 27.1528125 14.1796875 26.1328125 C11.88338756 24.98466253 10.10270664 24.82511441 7.5546875 24.5703125 C6.73742187 24.48652344 5.92015625 24.40273438 5.078125 24.31640625 C4.13839844 24.22552734 4.13839844 24.22552734 3.1796875 24.1328125 C2.7878125 23.0603125 2.3959375 21.9878125 1.9921875 20.8828125 C0.21282059 16.12364453 -1.75703179 11.44924352 -3.734375 6.76953125 C-4.49732017 4.91705646 -5.18677101 3.03343696 -5.8203125 1.1328125 C-4.17367574 -0.51382426 -2.26581168 0.0028247 0 0 Z " fill="#141414" transform="translate(765.8203125,243.8671875)"/>
<path d="M0 0 C4.07304095 0.76766037 6.92993904 2.18079451 9.5078125 5.47265625 C10.64946878 8.53413811 11.06794997 11.19812405 11.5078125 14.47265625 C16.4578125 14.47265625 21.4078125 14.47265625 26.5078125 14.47265625 C26.5078125 15.13265625 26.5078125 15.79265625 26.5078125 16.47265625 C25.45980469 16.4984375 24.41179688 16.52421875 23.33203125 16.55078125 C21.95308348 16.60706483 20.57417885 16.66441213 19.1953125 16.72265625 C18.50501953 16.73683594 17.81472656 16.75101563 17.10351562 16.765625 C14.81094527 16.83575037 14.81094527 16.83575037 11.5078125 17.47265625 C9.63174297 19.40180475 9.63174297 19.40180475 8.5078125 21.47265625 C7.8478125 21.47265625 7.1878125 21.47265625 6.5078125 21.47265625 C6.60320313 20.725 6.69859375 19.97734375 6.796875 19.20703125 C6.90773438 18.2221875 7.01859375 17.23734375 7.1328125 16.22265625 C7.24882813 15.248125 7.36484375 14.27359375 7.484375 13.26953125 C7.50938765 10.2846887 7.17640734 8.91556635 5.5078125 6.47265625 C1.50695037 3.92665308 -1.75105425 2.62978812 -6.4921875 3.47265625 C-9.58386193 7.09737799 -9.6743266 9.56549086 -10.4921875 14.47265625 C-19.0721875 14.80265625 -27.6521875 15.13265625 -36.4921875 15.47265625 C-36.4921875 14.81265625 -36.4921875 14.15265625 -36.4921875 13.47265625 C-33.7019208 12.54256735 -31.72689208 12.28566856 -28.82421875 12.15625 C-27.93154297 12.11435547 -27.03886719 12.07246094 -26.11914062 12.02929688 C-25.19037109 11.98998047 -24.26160156 11.95066406 -23.3046875 11.91015625 C-22.36431641 11.86697266 -21.42394531 11.82378906 -20.45507812 11.77929688 C-18.13425896 11.6732696 -15.81333425 11.57120596 -13.4921875 11.47265625 C-13.30462891 10.07660156 -13.30462891 10.07660156 -13.11328125 8.65234375 C-11.66709758 1.24861098 -6.86067171 -0.39935253 0 0 Z " fill="#111111" transform="translate(773.4921875,155.52734375)"/>
<path d="M0 0 C1.50433594 0.01353516 1.50433594 0.01353516 3.0390625 0.02734375 C3.80992187 0.03894531 4.58078125 0.05054688 5.375 0.0625 C2.85019307 2.58730693 1.23676966 2.61988633 -2.25 3.1875 C-3.25289062 3.35507813 -4.25578125 3.52265625 -5.2890625 3.6953125 C-6.05992187 3.81648437 -6.83078125 3.93765625 -7.625 4.0625 C-9.04609687 8.50342772 -10.23894419 12.35559454 -9.625 17.0625 C-8.05638091 19.82210765 -6.8297339 21.69346036 -3.70263672 22.65136719 C-1.42403544 23.00239083 0.82509796 23.21671487 3.125 23.375 C3.91777344 23.44783203 4.71054687 23.52066406 5.52734375 23.59570312 C7.47482846 23.77168066 9.42479058 23.91985368 11.375 24.0625 C11.045 25.0525 10.715 26.0425 10.375 27.0625 C7.81008544 27.00221999 5.25078243 26.91512053 2.6875 26.8125 C1.96626953 26.79832031 1.24503906 26.78414062 0.50195312 26.76953125 C-4.41672599 26.54493403 -7.03996243 25.70739905 -10.625 22.0625 C-13.47332025 17.79001963 -13.37216094 14.07809521 -12.625 9.0625 C-9.69319935 2.37058326 -7.37083936 -0.08570743 0 0 Z " fill="#252525" transform="translate(726.625,192.9375)"/>
<path d="M0 0 C5.87711622 -0.48975968 10.09611773 0.62928552 15 4 C17.29013653 7.4352048 17.17842973 8.985331 17 13 C16.34 13 15.68 13 15 13 C14.814375 11.906875 14.62875 10.81375 14.4375 9.6875 C13.3364902 5.72410335 13.3364902 5.72410335 9.625 4.0625 C5.98983152 2.81248638 5.98983152 2.81248638 2 3 C-0.10428384 8.12919186 -0.21755666 12.5610835 0 18 C-0.33 17.34 -0.66 16.68 -1 16 C-1.66 16 -2.32 16 -3 16 C-3.33266291 9.79029227 -2.45029331 5.71735105 0 0 Z " fill="#131313" transform="translate(717,156)"/>
<path d="M0 0 C0.66 0 1.32 0 2 0 C1.57074219 1.04607422 1.57074219 1.04607422 1.1328125 2.11328125 C0.3651626 4.06946495 -0.34712944 6.04811564 -1.0078125 8.04296875 C-3.9789642 16.4058258 -3.9789642 16.4058258 -6.859375 18.08203125 C-8.875 18.5 -8.875 18.5 -10.9375 18.71875 C-15.25116699 19.30697732 -18.97093413 21.97093413 -22 25 C-21.68988845 21.92472717 -21.53019713 20.44365669 -19.109375 18.41796875 C-17.94148437 17.80888672 -17.94148437 17.80888672 -16.75 17.1875 C-15.98171875 16.76855469 -15.2134375 16.34960938 -14.421875 15.91796875 C-11.77939171 14.91638234 -9.80172996 14.82613378 -7 15 C-6.7525 14.175 -6.505 13.35 -6.25 12.5 C-2.77777778 2.77777778 -2.77777778 2.77777778 0 0 Z " fill="#171717" transform="translate(731,250)"/>
<path d="M0 0 C1.50433594 0.01353516 1.50433594 0.01353516 3.0390625 0.02734375 C3.80992187 0.03894531 4.58078125 0.05054688 5.375 0.0625 C2.85019307 2.58730693 1.23676966 2.61988633 -2.25 3.1875 C-3.25289062 3.35507813 -4.25578125 3.52265625 -5.2890625 3.6953125 C-6.05992187 3.81648437 -6.83078125 3.93765625 -7.625 4.0625 C-9.2162689 8.935761 -9.83692221 12.87040596 -9.625 18.0625 C-10.285 18.0625 -10.945 18.0625 -11.625 18.0625 C-12.31367618 7.31149957 -12.31367618 7.31149957 -9.75 3.4375 C-6.5190757 -0.17353304 -4.70285759 -0.05468439 0 0 Z " fill="#1B1B1B" transform="translate(726.625,192.9375)"/>
<path d="M0 0 C0.99 0 1.98 0 3 0 C3 2.64 3 5.28 3 8 C3.66 7.67 4.32 7.34 5 7 C5 5.02 5 3.04 5 1 C5.99 1 6.98 1 8 1 C8.1953125 7.0546875 8.1953125 7.0546875 8 9 C7.34 9.66 6.68 10.32 6 11 C3.06546739 10.63318342 2.13562754 10.13562754 0 8 C-0.26991906 5.31160615 -0.08737357 2.70858064 0 0 Z " fill="#040404" transform="translate(788,188)"/>
<path d="M0 0 C0.66 0 1.32 0 2 0 C2.1953125 6.0546875 2.1953125 6.0546875 2 8 C1.34 8.66 0.68 9.32 0 10 C-3.53571429 9.46428571 -3.53571429 9.46428571 -5 8 C-5.04080783 6.00041636 -5.04254356 3.99954746 -5 2 C-4.01 2.33 -3.02 2.66 -2 3 C-2 3.99 -2 4.98 -2 6 C-1.34 6 -0.68 6 0 6 C0 4.02 0 2.04 0 0 Z " fill="#0C0C0C" transform="translate(779,199)"/>
<path d="M0 0 C3.15353929 0.84094381 5.46501019 1.50067618 7.875 3.75 C9.31217164 6.62434327 9.21618085 8.82934761 9 12 C8.34 12 7.68 12 7 12 C6.814375 10.906875 6.62875 9.81375 6.4375 8.6875 C5.42483472 5.0509502 5.42483472 5.0509502 3.30859375 3.8671875 C1.16349857 2.94073788 1.16349857 2.94073788 -2 2 C-1.34 1.34 -0.68 0.68 0 0 Z " fill="#252525" transform="translate(725,157)"/>
<path d="M0 0 C0.66 0 1.32 0 2 0 C0.41037341 4.03520597 -1.28232318 8.01811282 -3 12 C-3.99 12 -4.98 12 -6 12 C-2.28571429 2.28571429 -2.28571429 2.28571429 0 0 Z " fill="#1E1E1E" transform="translate(731,250)"/>
<path d="M0 0 C0.66 0 1.32 0 2 0 C1.67 4.29 1.34 8.58 1 13 C0.34 13 -0.32 13 -1 13 C-1.02696365 11.20841511 -1.04637917 9.41671527 -1.0625 7.625 C-1.07410156 6.62726563 -1.08570313 5.62953125 -1.09765625 4.6015625 C-1 2 -1 2 0 0 Z " fill="#111111" transform="translate(716,198)"/>
<path d="M0 0 C1.32 0.33 2.64 0.66 4 1 C3.67 2.65 3.34 4.3 3 6 C2.34 6 1.68 6 1 6 C0.67 4.02 0.34 2.04 0 0 Z " fill="#D4D4D4" transform="translate(790,190)"/>
</svg>
