<?xml version="1.0" encoding="UTF-8"?>
<svg version="1.1" xmlns="http://www.w3.org/2000/svg" width="800" height="300">
<path d="M0 0 C264 0 528 0 800 0 C800 99 800 198 800 300 C536 300 272 300 0 300 C0 201 0 102 0 0 Z " fill="#FEFEFE" transform="translate(0,0)"/>
<path d="M0 0 C4.22699387 2.39263804 4.22699387 2.39263804 6 5 C7.31619367 9.95603788 7.4826532 15.05782266 6 20 C6.825 20.45375 7.65 20.9075 8.5 21.375 C12.63688409 24.08367411 15.31612631 27.95138424 18.265625 31.85546875 C19.82319959 34.08419662 19.82319959 34.08419662 22 35 C23.01529541 37.32671865 24.01488198 39.6603447 25 42 C25.66 42.66 26.32 43.32 27 44 C27.47070312 45.8125 27.47070312 45.8125 27.78125 48 C27.89992432 48.80066895 28.01859863 49.60133789 28.14086914 50.42626953 C28.31863892 51.70026611 28.31863892 51.70026611 28.5 53 C28.75786177 54.72675005 29.01696586 56.45331506 29.27734375 58.1796875 C29.40093262 59.01081055 29.52452148 59.84193359 29.65185547 60.69824219 C30.28003754 64.8514684 31.01206638 68.91654104 32 73 C32.66 73.33 33.32 73.66 34 74 C34.33 74.99 34.66 75.98 35 77 C46.17415451 79.58582594 57.33570799 79.25551838 68.734375 79.1953125 C70.82472599 79.19157586 72.91507875 79.18873197 75.00543213 79.18673706 C80.46993973 79.17915188 85.93433864 79.15954807 91.39880371 79.1373291 C96.98981253 79.1167597 102.58083914 79.10771176 108.171875 79.09765625 C119.11463072 79.07629674 130.05730627 79.04222354 141 79 C140.95746094 78.05898437 140.91492188 77.11796875 140.87109375 76.1484375 C141 73 141 73 143.0625 70.625 C146.68040983 68.62360308 148.92018168 68.54668685 153 69 C153.99 69.66 154.98 70.32 156 71 C156.29296875 73.3828125 156.29296875 73.3828125 156.1875 76.125 C156.14689453 77.49011719 156.14689453 77.49011719 156.10546875 78.8828125 C156.07066406 79.58148438 156.03585937 80.28015625 156 81 C157.051875 80.9175 158.10375 80.835 159.1875 80.75 C163.56887825 81.03730349 164.94845581 81.94845581 168 85 C169.44430855 87.88861709 169.37688506 89.79647701 169 93 C166.36016334 96.7122703 164.84371904 97.85517502 160.32617188 98.63061523 C156.13926287 99.0550238 151.98640708 99.12855524 147.78125 99.09765625 C147.03790405 99.0962413 146.29455811 99.09482635 145.52868652 99.09336853 C143.18574771 99.08783109 140.84290927 99.07529091 138.5 99.0625 C136.89843889 99.05747689 135.29687627 99.05291542 133.6953125 99.04882812 C129.79683712 99.03788227 125.8984355 99.02066196 122 99 C122.66 100.65 123.32 102.3 124 104 C125.66611905 104.042721 127.33382885 104.04063832 129 104 C129.33 103.67 129.66 103.34 130 103 C133.82011276 102.639612 136.15684085 102.45951337 139.4375 104.5625 C141.6232026 107.97219606 141.55004566 110.012169 141 114 C138.97333762 117.70390021 137.51955484 119.65363011 134 122 C131.6875 122.4375 131.6875 122.4375 129 122 C127.53697211 120.76455423 126.07740894 119.5231374 124.671875 118.22265625 C122.73396091 116.80544338 121.28647861 116.48196047 118.9375 116.0625 C114.19206189 115.10978298 112.68542241 112.94915061 110 109 C109.31641559 107.67526056 108.64564462 106.34363881 108 105 C107.13116294 106.57533086 106.28040932 108.16064509 105.4375 109.75 C104.96183594 110.63171875 104.48617187 111.5134375 103.99609375 112.421875 C102.88766766 115.29074253 103.00170758 116.18026175 104 119 C104.3666269 124.04111993 104.01600662 126.898231 101 131 C100 132 100 132 96.3125 132.1875 C92.54229901 132.1333499 89.47264027 131.57095631 86 130 C83.29135423 125.93703134 83.87086321 123.26913475 84.3828125 118.54296875 C85 116 85 116 87.4375 113.8125 C90 113 90 113 92 113 C92.66 108.38 93.32 103.76 94 99 C72.11910705 97.9939689 50.28306461 97.87441518 28.38311768 97.93133545 C23.92338554 97.9417764 19.46364721 97.94617638 15.00390625 97.95117188 C6.33592122 97.96172777 -2.33203479 97.97867201 -11 98 C-10.72212646 98.75345703 -10.44425293 99.50691406 -10.15795898 100.28320312 C-9.79516846 101.27255859 -9.43237793 102.26191406 -9.05859375 103.28125 C-8.69822021 104.26158203 -8.33784668 105.24191406 -7.96655273 106.25195312 C-7 109 -7 109 -6.0625 112.5 C-5.20331102 115.22917927 -5.20331102 115.22917927 -2.4375 116.4375 C0 118 0 118 1 121.3125 C1 125.4794227 0.25830258 127.53189246 -2 131 C-5.20624887 133.13749925 -6.22458103 133.29574999 -9.9375 133.3125 C-10.79214844 133.32925781 -11.64679688 133.34601563 -12.52734375 133.36328125 C-15.53711517 132.92108734 -16.88490262 132.17816221 -19 130 C-19.42578125 127.9140625 -19.42578125 127.9140625 -19.3125 125.625 C-19.2815625 124.82707031 -19.250625 124.02914062 -19.21875 123.20703125 C-19 121 -19 121 -18.3125 118.3125 C-17.84581863 114.85905787 -19.27567689 112.95598247 -21 110 C-21.45375 109.154375 -21.9075 108.30875 -22.375 107.4375 C-24.2788592 104.5817112 -26.51203727 102.35347826 -29 100 C-30.27653929 101.70407382 -31.5459704 103.41347351 -32.8125 105.125 C-33.52019531 106.07632813 -34.22789062 107.02765625 -34.95703125 108.0078125 C-38.34246287 112.96620756 -40.41324809 116.48157442 -39.9375 122.5625 C-39.85301919 126.21008318 -39.91430859 127.81790576 -41.5 131.1875 C-44.37850288 133.27441459 -46.42736756 133.59199907 -49.96484375 133.3671875 C-53.02375555 132.8152917 -55.39054337 131.65477738 -58 130 C-59.98799751 126.02400498 -59.67252339 121.31169198 -59 117 C-56.25 114.3125 -56.25 114.3125 -53 112 C-51.76569691 110.01008187 -50.8079915 108.00573521 -49.859375 105.8671875 C-49 104 -49 104 -47 101 C-49.56642536 99.71678732 -51.56861009 99.85445893 -54.4375 99.75 C-60.20391558 99.3336523 -64.50816153 97.77558398 -69.625 95.15625 C-71.89399566 93.91505022 -71.89399566 93.91505022 -74.15625 93.62890625 C-76 93 -76 93 -77.34375 91.05859375 C-84.44730228 74.95560869 -86.85655042 61.02029537 -81.15625 43.98046875 C-77.01203654 33.29791851 -69.81724107 28.31767225 -60 23 C-60.03480469 22.07058594 -60.06960937 21.14117187 -60.10546875 20.18359375 C-60.3970276 6.86907289 -60.3970276 6.86907289 -57 2 C-54.125 0.8125 -54.125 0.8125 -51 1 C-47.78117748 3.0483416 -46.12054594 4.81918109 -44 8 C-43.505 12.455 -43.505 12.455 -43 17 C-32.77 17 -22.54 17 -12 17 C-11.67 14.69 -11.34 12.38 -11 10 C-9.57441253 3.89033943 -9.57441253 3.89033943 -7.75 1.0625 C-4.96174821 -0.63036716 -3.20246661 -0.5023477 0 0 Z " fill="#F8F8F8" transform="translate(246,153)"/>
<path d="M0 0 C2.6875 -0.3125 2.6875 -0.3125 6 0 C6.65484375 0.82371094 7.3096875 1.64742187 7.984375 2.49609375 C12.5652212 6.2996202 16.79729447 5.57827168 22.5625 5.375 C23.56474609 5.36082031 24.56699219 5.34664062 25.59960938 5.33203125 C30.47519469 5.2414631 35.34076995 5.04623593 40.20825195 4.75537109 C54.45235002 3.91878154 68.67682983 3.84573931 82.94213867 3.86962891 C85.67653585 3.87416195 88.4108666 3.87421517 91.14526367 3.86962891 C100.43094505 3.85414611 109.7147567 3.89399703 119 4 C120.89718781 4.01987976 120.89718781 4.01987976 122.83270264 4.04016113 C126.4714204 4.08922994 130.10817747 4.16795371 133.74609375 4.2578125 C135.34216209 4.27822098 135.34216209 4.27822098 136.97047424 4.29904175 C147.76141846 4.63593906 157.23194941 7.126133 165.1015625 14.796875 C168.08119031 18.25471468 170.07594107 21.88307979 172 26 C172.5878125 27.06347656 172.5878125 27.06347656 173.1875 28.1484375 C176.97476175 35.43365628 176.77162077 42.60176161 175.375 50.5625 C169.6875 64.78125 169.6875 64.78125 163.4375 67.625 C157.70072769 69.69064707 152.18507829 70.14951793 146.12109375 70.1328125 C145.35992249 70.13413177 144.59875122 70.13545105 143.81451416 70.1368103 C141.35546728 70.1387179 138.89653518 70.13241583 136.4375 70.125 C135.60618561 70.12411377 134.77487122 70.12322754 133.91836548 70.12231445 C121.58858811 70.10680173 109.30284848 69.87542505 97 69 C97 68.34 97 67.68 97 67 C96.29617188 67.16242188 95.59234375 67.32484375 94.8671875 67.4921875 C87.40965184 68.81300444 79.59253259 68.08414043 72.08203125 67.5078125 C66.67319889 67.13155169 61.29977248 66.9117425 55.87890625 66.859375 C21.79509958 66.48121764 21.79509958 66.48121764 10.8125 58.25 C9.32421875 56.69140625 9.32421875 56.69140625 8 55 C7.51144531 54.41089844 7.02289063 53.82179688 6.51953125 53.21484375 C2.55488966 47.4511211 2.40935902 41.64162749 2.45166016 34.85229492 C2.47029608 32.43228376 2.47029608 32.43228376 2 29 C0.13377036 27.1371129 0.13377036 27.1371129 -2 26 C-3.20745835 22.37762495 -3.22246029 19.0229405 -3.25 15.25 C-3.270625 14.5590625 -3.29125 13.868125 -3.3125 13.15625 C-3.35088173 8.05147958 -2.27330153 4.57053254 0 0 Z " fill="#656565" transform="translate(428,216)"/>
<path d="M0 0 C4.22699387 2.39263804 4.22699387 2.39263804 6 5 C7.31619367 9.95603788 7.4826532 15.05782266 6 20 C6.825 20.45375 7.65 20.9075 8.5 21.375 C12.63688409 24.08367411 15.31612631 27.95138424 18.265625 31.85546875 C19.82319959 34.08419662 19.82319959 34.08419662 22 35 C23.01529541 37.32671865 24.01488198 39.6603447 25 42 C25.66 42.66 26.32 43.32 27 44 C27.47070312 45.8125 27.47070312 45.8125 27.78125 48 C27.89992432 48.80066895 28.01859863 49.60133789 28.14086914 50.42626953 C28.31863892 51.70026611 28.31863892 51.70026611 28.5 53 C28.75786177 54.72675005 29.01696586 56.45331506 29.27734375 58.1796875 C29.40093262 59.01081055 29.52452148 59.84193359 29.65185547 60.69824219 C30.28003754 64.8514684 31.01206638 68.91654104 32 73 C32.66 73.33 33.32 73.66 34 74 C34.33 74.99 34.66 75.98 35 77 C46.17415451 79.58582594 57.33570799 79.25551838 68.734375 79.1953125 C70.82472599 79.19157586 72.91507875 79.18873197 75.00543213 79.18673706 C80.46993973 79.17915188 85.93433864 79.15954807 91.39880371 79.1373291 C96.98981253 79.1167597 102.58083914 79.10771176 108.171875 79.09765625 C119.11463072 79.07629674 130.05730627 79.04222354 141 79 C140.95746094 78.05898437 140.91492188 77.11796875 140.87109375 76.1484375 C141 73 141 73 143.0625 70.625 C146.68040983 68.62360308 148.92018168 68.54668685 153 69 C153.99 69.66 154.98 70.32 156 71 C156.29296875 73.3828125 156.29296875 73.3828125 156.1875 76.125 C156.14689453 77.49011719 156.14689453 77.49011719 156.10546875 78.8828125 C156.07066406 79.58148438 156.03585937 80.28015625 156 81 C157.051875 80.9175 158.10375 80.835 159.1875 80.75 C163.56887825 81.03730349 164.94845581 81.94845581 168 85 C169.44430855 87.88861709 169.37688506 89.79647701 169 93 C166.36016334 96.7122703 164.84371904 97.85517502 160.32617188 98.63061523 C156.13926287 99.0550238 151.98640708 99.12855524 147.78125 99.09765625 C147.03790405 99.0962413 146.29455811 99.09482635 145.52868652 99.09336853 C143.18574771 99.08783109 140.84290927 99.07529091 138.5 99.0625 C136.89843889 99.05747689 135.29687627 99.05291542 133.6953125 99.04882812 C129.79683712 99.03788227 125.8984355 99.02066196 122 99 C122.66 100.65 123.32 102.3 124 104 C125.66611905 104.042721 127.33382885 104.04063832 129 104 C129.33 103.67 129.66 103.34 130 103 C133.82011276 102.639612 136.15684085 102.45951337 139.4375 104.5625 C141.6232026 107.97219606 141.55004566 110.012169 141 114 C138.97333762 117.70390021 137.51955484 119.65363011 134 122 C131.6875 122.4375 131.6875 122.4375 129 122 C127.53697211 120.76455423 126.07740894 119.5231374 124.671875 118.22265625 C122.73396091 116.80544338 121.28647861 116.48196047 118.9375 116.0625 C114.19206189 115.10978298 112.68542241 112.94915061 110 109 C109.31641559 107.67526056 108.64564462 106.34363881 108 105 C107.13116294 106.57533086 106.28040932 108.16064509 105.4375 109.75 C104.96183594 110.63171875 104.48617187 111.5134375 103.99609375 112.421875 C102.88766766 115.29074253 103.00170758 116.18026175 104 119 C104.3666269 124.04111993 104.01600662 126.898231 101 131 C100 132 100 132 96.3125 132.1875 C92.54229901 132.1333499 89.47264027 131.57095631 86 130 C83.29135423 125.93703134 83.87086321 123.26913475 84.3828125 118.54296875 C85 116 85 116 87.4375 113.8125 C90 113 90 113 92 113 C92.99 108.71 93.98 104.42 95 100 C95.66 100 96.32 100 97 100 C96.36934845 105.7809725 95.34844868 111.3443706 94 117 C91.03 117.495 91.03 117.495 88 118 C86.80011955 123.28199593 86.80011955 123.28199593 89 128 C91.13713301 128.40171173 91.13713301 128.40171173 93.5 128.25 C94.2940625 128.23453125 95.088125 128.2190625 95.90625 128.203125 C98.05735328 128.12080522 98.05735328 128.12080522 100 127 C101.08759087 122.90607154 101.08759087 122.90607154 100 119 C99.18656609 113.57710725 101.25563178 110.06890336 103.80859375 105.46484375 C105.02110639 102.956334 105.5746838 100.74255618 106 98 C106.99 98 107.98 98 109 98 C109.38671875 98.83144531 109.7734375 99.66289062 110.171875 100.51953125 C110.69265625 101.60621094 111.2134375 102.69289063 111.75 103.8125 C112.26046875 104.89144531 112.7709375 105.97039062 113.296875 107.08203125 C114.98963359 109.9822392 116.09336713 111.38335848 119 113 C121.02314367 113.4204509 121.02314367 113.4204509 123.0625 113.4375 C127 114 127 114 129 116.0625 C129.33 116.701875 129.66 117.34125 130 118 C132.40877257 117.88658466 132.40877257 117.88658466 135 117 C137.00719496 114.82137181 137.00719496 114.82137181 138 112 C137.78670551 109.25760857 137.78670551 109.25760857 137 107 C135.00045254 106.95745644 132.99958364 106.95919217 131 107 C130.67 107.33 130.34 107.66 130 108 C126.6875 108.4375 126.6875 108.4375 123 108 C120.5 105.4375 120.5 105.4375 119 102 C119.25623299 99.65694639 119.58079021 97.31944362 120 95 C120.92554688 95.09539062 121.85109375 95.19078125 122.8046875 95.2890625 C132.23870916 96.11738638 141.43164842 95.8974183 150.875 95.1875 C152.02210449 95.10516113 153.16920898 95.02282227 154.35107422 94.93798828 C155.4288916 94.84888184 156.50670898 94.75977539 157.6171875 94.66796875 C158.58253418 94.58828857 159.54788086 94.5086084 160.54248047 94.42651367 C163.24618322 94.12783691 163.24618322 94.12783691 166 92 C165.42547254 88.06924356 165.42547254 88.06924356 163 85 C160.57284794 84.32059533 160.57284794 84.32059533 157.875 83.875 C156.96492187 83.70742187 156.05484375 83.53984375 155.1171875 83.3671875 C154.06917969 83.18542969 154.06917969 83.18542969 153 83 C152.875 75.25 152.875 75.25 154 73 C149.9899066 72.82135369 149.9899066 72.82135369 146 73 C143.23776722 75.76223278 143.42143709 78.20706617 143 82 C124.73803084 82.97755856 106.49909707 83.21824518 88.21606445 83.24023438 C84.32167347 83.24576109 80.4276245 83.26996302 76.53334141 83.29820633 C73.46592807 83.31703779 70.39859527 83.32204847 67.33112907 83.32357025 C65.89658623 83.32653725 64.46204261 83.33435473 63.02755928 83.34775543 C55.14682546 83.41630574 47.46928589 83.00100712 39.67944336 81.79199219 C38.95601777 81.6923177 38.23259218 81.5926432 37.48724461 81.48994827 C33.9594152 80.87343296 32.31389672 80.39788827 30.06129456 77.5425415 C28.98462192 74.96315875 28.3661731 72.69682297 27.9375 69.9375 C27.78152344 68.98230469 27.62554687 68.02710938 27.46484375 67.04296875 C27.31144531 66.03878906 27.15804687 65.03460938 27 64 C25.02224943 51.49501018 22.51848918 43.0120195 14.6875 32.9375 C14.22666016 32.32583984 13.76582031 31.71417969 13.29101562 31.08398438 C10.8925367 27.99831955 8.97909762 25.98608961 5.671875 23.78515625 C4.79015625 23.19605469 3.9084375 22.60695312 3 22 C2.50421185 18.03369483 2.9486485 14.8111492 4 11 C4 9.68 4 8.36 4 7 C2.68 6.34 1.36 5.68 0 5 C0 4.34 0 3.68 0 3 C-1.98 3 -3.96 3 -6 3 C-6.50980881 4.70543184 -7.00738268 6.41452318 -7.5 8.125 C-7.7784375 9.07632813 -8.056875 10.02765625 -8.34375 11.0078125 C-9.21422926 14.46623223 -9.21422926 14.46623223 -9 20 C-20.88 20.33 -32.76 20.66 -45 21 C-45.66 17.37 -46.32 13.74 -47 10 C-49.5162737 5.75425988 -49.5162737 5.75425988 -53.1875 5.25 C-54.115625 5.1675 -55.04375 5.085 -56 5 C-56.74464946 11.87368733 -57.18225237 18.16920852 -56 25 C-59.27987898 27.29591528 -62.41220391 29.22647918 -66.0625 30.875 C-74.01558165 34.78337156 -77.49277853 42.62905774 -80.25 50.625 C-82.29778374 60.03373611 -81.33044645 69.42500035 -78.65625 78.57421875 C-78 81 -78 81 -78 84 C-77.34 84 -76.68 84 -76 84 C-75.77054688 84.76828125 -75.54109375 85.5365625 -75.3046875 86.328125 C-73.69936071 89.61568047 -72.40955136 90.24904775 -69.125 91.75 C-68.26132813 92.15734375 -67.39765625 92.5646875 -66.5078125 92.984375 C-62.7928592 94.48887322 -59.45101828 95.1273167 -55.453125 95.31640625 C-54.60878906 95.35830078 -53.76445312 95.40019531 -52.89453125 95.44335938 C-52.02183594 95.48267578 -51.14914063 95.52199219 -50.25 95.5625 C-49.36183594 95.60568359 -48.47367188 95.64886719 -47.55859375 95.69335938 C-45.37254037 95.79913615 -43.18637911 95.90122546 -41 96 C-42.19554519 100.00047812 -43.55288857 103.12298622 -46 106.5 C-48.36054212 109.9026351 -49.96040117 112.94556456 -51 117 C-52.65 117 -54.3 117 -56 117 C-56.0270043 118.45823212 -56.04639787 119.91660675 -56.0625 121.375 C-56.07410156 122.18710937 -56.08570313 122.99921875 -56.09765625 123.8359375 C-56.14466334 126.04937142 -56.14466334 126.04937142 -55 128 C-52.64400765 128.46751788 -52.64400765 128.46751788 -49.9375 128.625 C-49.01839844 128.69976562 -48.09929687 128.77453125 -47.15234375 128.8515625 C-46.08693359 128.92503906 -46.08693359 128.92503906 -45 129 C-42.75077159 126.33424558 -42.75077159 126.33424558 -43.234375 124.125 C-43.40453125 123.42375 -43.5746875 122.7225 -43.75 122 C-44.75455745 114.63324535 -40.2523634 109.07472732 -36.07421875 103.37109375 C-34.87510873 101.82441561 -33.65814645 100.29129137 -32.41796875 98.77734375 C-30.93705006 97.04761438 -30.93705006 97.04761438 -30 95 C-28.68 95 -27.36 95 -26 95 C-25.62488281 95.70125 -25.24976563 96.4025 -24.86328125 97.125 C-22.43433296 101.62803763 -20.02362976 106.03079107 -17.125 110.25 C-14.79424663 113.87312624 -14.4693143 116.66606678 -15 121 C-15.33 121.33 -15.66 121.66 -16 122 C-16.16666667 125 -16.16666667 125 -16 128 C-14.33315985 129.66684015 -12.34356931 129.21072764 -10.0625 129.25 C-9.16660156 129.27578125 -8.27070313 129.3015625 -7.34765625 129.328125 C-6.18556641 129.16570312 -6.18556641 129.16570312 -5 129 C-2.87491756 125.81237635 -2.4979837 123.73487777 -2 120 C-2.93199219 119.83242188 -3.86398438 119.66484375 -4.82421875 119.4921875 C-8 118 -8 118 -9.64453125 114.4453125 C-10.05908149 113.01226664 -10.44767374 111.57150411 -10.8125 110.125 C-11.01552734 109.40441406 -11.21855469 108.68382812 -11.42773438 107.94140625 C-12.3478336 104.64362487 -13.17250549 101.32195067 -14 98 C-14.66 98 -15.32 98 -16 98 C-15.505 96.515 -15.505 96.515 -15 95 C5.9567945 94.41138756 26.90892773 93.8982736 47.875 93.875 C48.66844818 93.87250244 49.46189636 93.87000488 50.27938843 93.86743164 C52.51703379 93.86159631 54.75454101 93.86298486 56.9921875 93.8671875 C58.25401855 93.86831543 59.51584961 93.86944336 60.81591797 93.87060547 C63.47131788 93.97851545 65.46460388 94.35459767 68 95 C70.0976396 95.08120233 72.19768762 95.10755808 74.296875 95.09765625 C75.50214844 95.09443359 76.70742188 95.09121094 77.94921875 95.08789062 C79.83060547 95.07532227 79.83060547 95.07532227 81.75 95.0625 C83.65458984 95.05573242 83.65458984 95.05573242 85.59765625 95.04882812 C88.73181836 95.03704556 91.86588541 95.02059416 95 95 C95.33 95.99 95.66 96.98 96 98 C60.69 98 25.38 98 -11 98 C-9.68 101.63 -8.36 105.26 -7 109 C-6.690625 110.155 -6.38125 111.31 -6.0625 112.5 C-5.20331102 115.22917927 -5.20331102 115.22917927 -2.4375 116.4375 C0 118 0 118 1 121.3125 C1 125.4794227 0.25830258 127.53189246 -2 131 C-5.20624887 133.13749925 -6.22458103 133.29574999 -9.9375 133.3125 C-10.79214844 133.32925781 -11.64679688 133.34601563 -12.52734375 133.36328125 C-15.53711517 132.92108734 -16.88490262 132.17816221 -19 130 C-19.42578125 127.9140625 -19.42578125 127.9140625 -19.3125 125.625 C-19.2815625 124.82707031 -19.250625 124.02914062 -19.21875 123.20703125 C-19 121 -19 121 -18.3125 118.3125 C-17.84581863 114.85905787 -19.27567689 112.95598247 -21 110 C-21.45375 109.154375 -21.9075 108.30875 -22.375 107.4375 C-24.2788592 104.5817112 -26.51203727 102.35347826 -29 100 C-30.27653929 101.70407382 -31.5459704 103.41347351 -32.8125 105.125 C-33.52019531 106.07632813 -34.22789062 107.02765625 -34.95703125 108.0078125 C-38.34246287 112.96620756 -40.41324809 116.48157442 -39.9375 122.5625 C-39.85301919 126.21008318 -39.91430859 127.81790576 -41.5 131.1875 C-44.37850288 133.27441459 -46.42736756 133.59199907 -49.96484375 133.3671875 C-53.02375555 132.8152917 -55.39054337 131.65477738 -58 130 C-59.98799751 126.02400498 -59.67252339 121.31169198 -59 117 C-56.25 114.3125 -56.25 114.3125 -53 112 C-51.76569691 110.01008187 -50.8079915 108.00573521 -49.859375 105.8671875 C-49 104 -49 104 -47 101 C-49.56642536 99.71678732 -51.56861009 99.85445893 -54.4375 99.75 C-60.20391558 99.3336523 -64.50816153 97.77558398 -69.625 95.15625 C-71.89399566 93.91505022 -71.89399566 93.91505022 -74.15625 93.62890625 C-76 93 -76 93 -77.34375 91.05859375 C-84.44730228 74.95560869 -86.85655042 61.02029537 -81.15625 43.98046875 C-77.01203654 33.29791851 -69.81724107 28.31767225 -60 23 C-60.03480469 22.07058594 -60.06960937 21.14117187 -60.10546875 20.18359375 C-60.3970276 6.86907289 -60.3970276 6.86907289 -57 2 C-54.125 0.8125 -54.125 0.8125 -51 1 C-47.78117748 3.0483416 -46.12054594 4.81918109 -44 8 C-43.505 12.455 -43.505 12.455 -43 17 C-32.77 17 -22.54 17 -12 17 C-11.67 14.69 -11.34 12.38 -11 10 C-9.57441253 3.89033943 -9.57441253 3.89033943 -7.75 1.0625 C-4.96174821 -0.63036716 -3.20246661 -0.5023477 0 0 Z " fill="#0C0C0C" transform="translate(246,153)"/>
<path d="M0 0 C2.6875 -0.3125 2.6875 -0.3125 6 0 C6.65484375 0.82371094 7.3096875 1.64742187 7.984375 2.49609375 C12.5652212 6.2996202 16.79729447 5.57827168 22.5625 5.375 C23.56474609 5.36082031 24.56699219 5.34664062 25.59960938 5.33203125 C30.47519469 5.2414631 35.34076995 5.04623593 40.20825195 4.75537109 C54.45235002 3.91878154 68.67682983 3.84573931 82.94213867 3.86962891 C85.67653585 3.87416195 88.4108666 3.87421517 91.14526367 3.86962891 C100.43094505 3.85414611 109.7147567 3.89399703 119 4 C120.89718781 4.01987976 120.89718781 4.01987976 122.83270264 4.04016113 C126.4714204 4.08922994 130.10817747 4.16795371 133.74609375 4.2578125 C135.34216209 4.27822098 135.34216209 4.27822098 136.97047424 4.29904175 C147.76141846 4.63593906 157.23194941 7.126133 165.1015625 14.796875 C168.08119031 18.25471468 170.07594107 21.88307979 172 26 C172.5878125 27.06347656 172.5878125 27.06347656 173.1875 28.1484375 C176.97476175 35.43365628 176.77162077 42.60176161 175.375 50.5625 C169.6875 64.78125 169.6875 64.78125 163.4375 67.625 C157.70072769 69.69064707 152.18507829 70.14951793 146.12109375 70.1328125 C145.35992249 70.13413177 144.59875122 70.13545105 143.81451416 70.1368103 C141.35546728 70.1387179 138.89653518 70.13241583 136.4375 70.125 C135.60618561 70.12411377 134.77487122 70.12322754 133.91836548 70.12231445 C121.58858811 70.10680173 109.30284848 69.87542505 97 69 C97 68.34 97 67.68 97 67 C96.29617188 67.16242188 95.59234375 67.32484375 94.8671875 67.4921875 C87.40965184 68.81300444 79.59253259 68.08414043 72.08203125 67.5078125 C66.67319889 67.13155169 61.29977248 66.9117425 55.87890625 66.859375 C21.79509958 66.48121764 21.79509958 66.48121764 10.8125 58.25 C9.32421875 56.69140625 9.32421875 56.69140625 8 55 C7.51144531 54.41089844 7.02289063 53.82179688 6.51953125 53.21484375 C2.55488966 47.4511211 2.40935902 41.64162749 2.45166016 34.85229492 C2.47029608 32.43228376 2.47029608 32.43228376 2 29 C0.13377036 27.1371129 0.13377036 27.1371129 -2 26 C-3.20745835 22.37762495 -3.22246029 19.0229405 -3.25 15.25 C-3.270625 14.5590625 -3.29125 13.868125 -3.3125 13.15625 C-3.35088173 8.05147958 -2.27330153 4.57053254 0 0 Z M3 3 C-0.71059486 9.13054803 -1.71075839 15.44620807 -0.3125 22.4375 C0.78058442 25.09159104 0.78058442 25.09159104 3 26.3125 C6.24734023 29.05244332 6.35310018 32.93985245 7 37 C9.64573501 34.77122275 9.64573501 34.77122275 12 32 C11.95502158 29.72476911 11.95502158 29.72476911 11 28 C12.32 27.34 13.64 26.68 15 26 C14.67 24.35 14.34 22.7 14 21 C14.99 21.99 15.98 22.98 17 24 C15.39680795 28.66383143 13.08350522 33.14135949 10 37 C9.30648438 37.30550781 8.61296875 37.61101562 7.8984375 37.92578125 C5.77741393 38.86585583 5.77741393 38.86585583 5.07421875 41.29296875 C4.97884902 44.77145414 5.96425246 46.39079722 7.8125 49.3125 C8.35519531 50.19550781 8.89789063 51.07851563 9.45703125 51.98828125 C9.96621094 52.65214844 10.47539062 53.31601562 11 54 C11.66 54 12.32 54 13 54 C13.33 54.99 13.66 55.98 14 57 C16.36401089 58.26080581 18.47896761 59.14504119 21 60 C21.81339844 60.28230469 22.62679688 60.56460938 23.46484375 60.85546875 C33.75725957 63.93020167 46.48210319 64.63478627 57 62 C57.53394179 60.5882217 58.05165104 59.17029756 58.5625 57.75 C58.85253906 56.96109375 59.14257812 56.1721875 59.44140625 55.359375 C60.0610168 52.74227867 59.94248701 51.4926979 59 49 C58.34 48.01 57.68 47.02 57 46 C57.53625 45.443125 58.0725 44.88625 58.625 44.3125 C59.07875 43.549375 59.5325 42.78625 60 42 C59.26145768 39.36186139 59.26145768 39.36186139 58 37 C58 36.34 58 35.68 58 35 C58.99 35.33 59.98 35.66 61 36 C61.94002987 40.38680608 61.74651537 43.61422219 61 48 C61.185625 48.804375 61.37125 49.60875 61.5625 50.4375 C62.16494838 53.96612624 61.00559799 56.60610677 60 60 C60.33 60.99 60.66 61.98 61 63 C62.06927734 63.09087891 62.06927734 63.09087891 63.16015625 63.18359375 C71.41188054 63.9054808 71.41188054 63.9054808 75.5 64.5625 C82.43977973 65.42997247 89.12334905 65.23427068 96 64 C96.66 64.33 97.32 64.66 98 65 C100.56845219 65.03037021 103.120762 64.93311185 105.6875 64.83984375 C108 65 108 65 110 67 C112.52377655 67.27808217 112.52377655 67.27808217 115.4453125 67.1953125 C116.52167969 67.18886719 117.59804688 67.18242187 118.70703125 67.17578125 C119.83496094 67.15902344 120.96289062 67.14226562 122.125 67.125 C123.26066406 67.11597656 124.39632812 67.10695313 125.56640625 67.09765625 C128.37781299 67.07403098 131.18880298 67.04109013 134 67 C134 66.34 134 65.68 134 65 C134.99 64.67 135.98 64.34 137 64 C138.56028793 61.15102982 139.46843274 58.20059445 140 55 C139.01919106 52.38017854 139.01919106 52.38017854 137 51 C136.34 51 135.68 51 135 51 C135.66 50.236875 136.32 49.47375 137 48.6875 C139.29850538 46.15722061 139.29850538 46.15722061 139 43 C137.56249809 41.31201173 137.56249809 41.31201173 136 40 C137.32 40.33 138.64 40.66 140 41 C140.90594807 43.61718331 140.98235878 45.10143704 140.5 47.875 C139.82038781 50.94518924 139.82038781 50.94518924 140.5625 53.75 C141.18730226 58.39138818 140.07980006 62.48447249 139 67 C149.65771916 67.35857747 158.40464935 67.06190317 166.59375 59.53515625 C171.66979043 54.24761413 174.03554301 48.43102855 173.9765625 41.078125 C172.70835554 30.19972752 166.40917284 21.74595342 159 14 C158.01 13.67 157.02 13.34 156 13 C154.39819908 16.38766195 154.39819908 16.38766195 154.125 20.0625 C154.8950733 22.17907441 154.8950733 22.17907441 157.0625 23.5625 C160.20275922 27.5131487 159.47149501 32.13046134 159 37 C158.67 37.66 158.34 38.32 158 39 C157.01 39.33 156.02 39.66 155 40 C155.165 38.9275 155.33 37.855 155.5 36.75 C156.3352003 30.76189263 156.3352003 30.76189263 155 25 C152.50965614 23.70339566 152.50965614 23.70339566 150 23 C150.99 19.7 151.98 16.4 153 13 C146.68439027 7.21069108 141.08633074 7.22890562 132.75 7.1875 C130.97496094 7.14979492 130.97496094 7.14979492 129.1640625 7.11132812 C125.10889692 7.03050193 121.05589005 7 117 7 C116.97111854 10.31248187 116.95324201 13.62493167 116.9375 16.9375 C116.92493164 18.35579102 116.92493164 18.35579102 116.91210938 19.80273438 C116.90727539 21.15141602 116.90727539 21.15141602 116.90234375 22.52734375 C116.89448853 23.77632446 116.89448853 23.77632446 116.88647461 25.05053711 C116.78356708 27.00516798 116.78356708 27.00516798 118 28 C118.26293056 32.03160191 118.29404844 33.55892734 116 37 C113.875 37.6875 113.875 37.6875 112 38 C113.75 34.125 113.75 34.125 116 33 C115.89171875 31.86111328 115.89171875 31.86111328 115.78125 30.69921875 C115.6884375 29.70535156 115.595625 28.71148437 115.5 27.6875 C115.4071875 26.70136719 115.314375 25.71523437 115.21875 24.69921875 C115 22 115 22 115 19 C114.34 19 113.68 19 113 19 C113.556875 17.63875 113.556875 17.63875 114.125 16.25 C115.25131743 13.16467339 115.25131743 13.16467339 114.375 10.75 C112.21694327 8.00338235 109.96584178 7.12449559 106.52636719 6.68115234 C105.62563477 6.64973145 104.72490234 6.61831055 103.796875 6.5859375 C102.8171875 6.54726562 101.8375 6.50859375 100.828125 6.46875 C99.30445313 6.42234375 99.30445313 6.42234375 97.75 6.375 C96.203125 6.31699219 96.203125 6.31699219 94.625 6.2578125 C92.0835106 6.16368326 89.54202567 6.07805021 87 6 C87.495 6.99 87.495 6.99 88 8 C88.66 8 89.32 8 90 8 C90.67228569 12.48190462 91.12701027 15.63283522 90 20 C90.29235267 22.33882138 90.62599214 24.67284 91 27 C91 28.32 91 29.64 91 31 C90.01 30.01 90.01 30.01 89 29 C89.2784375 27.824375 89.2784375 27.824375 89.5625 26.625 C90.29178752 23.94859806 90.29178752 23.94859806 88.6875 21.6875 C88.130625 21.130625 87.57375 20.57375 87 20 C86.34 20 85.68 20 85 20 C85.680625 19.443125 86.36125 18.88625 87.0625 18.3125 C89.25510881 16.18317288 89.25510881 16.18317288 89.0625 13.5 C87.56544541 9.97751862 86.33969805 8.96356171 83 7 C79.03453696 6.4431461 75.1217931 6.53050618 71.125 6.625 C70.0119751 6.63789063 68.8989502 6.65078125 67.75219727 6.6640625 C59.38070792 6.81952868 51.23850267 7.4996548 43 9 C43.04253906 10.093125 43.08507812 11.18625 43.12890625 12.3125 C43 16 43 16 40.9375 19 C38.43457181 22.87550172 39.20915027 24.57124149 40 29 C39.125 32.1875 39.125 32.1875 38 35 C37.65023242 36.32911682 37.30903983 37.66082739 37 39 C35.79371992 36.66785852 34.8345262 34.50357861 34 32 C34.639375 31.7525 35.27875 31.505 35.9375 31.25 C38.12493715 30.18550582 38.12493715 30.18550582 38.875 28.125 C39.02904228 25.50628117 38.24534014 24.27091436 37 22 C37 21.01 37 20.02 37 19 C39 17.3125 39 17.3125 41 16 C40.81171228 13.55519921 40.81171228 13.55519921 40 11 C36.96969085 8.99095526 34.40823739 8.73084337 30.82421875 8.65625 C29.83099609 8.62660156 28.83777344 8.59695312 27.81445312 8.56640625 C26.26661133 8.53353516 26.26661133 8.53353516 24.6875 8.5 C8.56797015 8.15378142 8.56797015 8.15378142 4.0625 4.375 C3.711875 3.92125 3.36125 3.4675 3 3 Z " fill="#111111" transform="translate(428,216)"/>
<path d="M0 0 C4.22699387 2.39263804 4.22699387 2.39263804 6 5 C7.31619367 9.95603788 7.4826532 15.05782266 6 20 C6.825 20.45375 7.65 20.9075 8.5 21.375 C12.63688409 24.08367411 15.31612631 27.95138424 18.265625 31.85546875 C19.82319959 34.08419662 19.82319959 34.08419662 22 35 C23.01529541 37.32671865 24.01488198 39.6603447 25 42 C25.66 42.66 26.32 43.32 27 44 C27.47070312 45.8125 27.47070312 45.8125 27.78125 48 C27.89992432 48.80066895 28.01859863 49.60133789 28.14086914 50.42626953 C28.31863892 51.70026611 28.31863892 51.70026611 28.5 53 C28.75786177 54.72675005 29.01696586 56.45331506 29.27734375 58.1796875 C29.40093262 59.01081055 29.52452148 59.84193359 29.65185547 60.69824219 C30.28003754 64.8514684 31.01206638 68.91654104 32 73 C32.66 73.33 33.32 73.66 34 74 C34.33 74.99 34.66 75.98 35 77 C43.95193153 78.79694706 52.61771468 79.33269542 61.734375 79.4140625 C63.10729059 79.43282682 64.48019529 79.45240389 65.85308838 79.4727478 C69.42359924 79.52352038 72.99414728 79.56343511 76.56481934 79.60089111 C80.22559381 79.64128008 83.88622108 79.69221096 87.546875 79.7421875 C94.69780823 79.83829453 101.84883443 79.92290237 109 80 C109 80.33 109 80.66 109 81 C112.3 81.33 115.6 81.66 119 82 C119 82.33 119 82.66 119 83 C110.16677595 83.07011968 101.33365058 83.12312089 92.50020695 83.15543652 C88.39660231 83.17096177 84.2931908 83.19195316 80.18969727 83.22631836 C76.21499731 83.25938913 72.24048074 83.27695119 68.26565361 83.28463173 C66.76411497 83.29009112 65.26258408 83.3007457 63.76112556 83.31719017 C55.61820977 83.40266572 47.6834358 83.04819597 39.62670898 81.79418945 C38.90649346 81.69438121 38.18627794 81.59457296 37.44423771 81.49174023 C33.93059302 80.87270327 32.30565691 80.38812516 30.06459045 77.54240417 C28.98433365 74.96258637 28.36643485 72.69850784 27.9375 69.9375 C27.78152344 68.98230469 27.62554687 68.02710938 27.46484375 67.04296875 C27.31144531 66.03878906 27.15804687 65.03460938 27 64 C25.02224943 51.49501018 22.51848918 43.0120195 14.6875 32.9375 C14.22666016 32.32583984 13.76582031 31.71417969 13.29101562 31.08398438 C10.8925367 27.99831955 8.97909762 25.98608961 5.671875 23.78515625 C4.79015625 23.19605469 3.9084375 22.60695312 3 22 C2.50421185 18.03369483 2.9486485 14.8111492 4 11 C4 9.68 4 8.36 4 7 C2.68 6.34 1.36 5.68 0 5 C0 4.34 0 3.68 0 3 C-1.98 3 -3.96 3 -6 3 C-6.50980881 4.70543184 -7.00738268 6.41452318 -7.5 8.125 C-7.7784375 9.07632813 -8.056875 10.02765625 -8.34375 11.0078125 C-9.21422926 14.46623223 -9.21422926 14.46623223 -9 20 C-20.88 20.33 -32.76 20.66 -45 21 C-45.66 17.37 -46.32 13.74 -47 10 C-49.38949213 5.87917162 -49.38949213 5.87917162 -52.04296875 5.609375 C-52.75066406 5.65578125 -53.45835937 5.7021875 -54.1875 5.75 C-56.0746875 5.87375 -56.0746875 5.87375 -58 6 C-57.67 4.68 -57.34 3.36 -57 2 C-54.3125 1.25 -54.3125 1.25 -51 1 C-47.78117748 3.0483416 -46.12054594 4.81918109 -44 8 C-43.67 10.97 -43.34 13.94 -43 17 C-32.77 17 -22.54 17 -12 17 C-11.67 14.69 -11.34 12.38 -11 10 C-9.57441253 3.89033943 -9.57441253 3.89033943 -7.75 1.0625 C-4.96174821 -0.63036716 -3.20246661 -0.5023477 0 0 Z " fill="#151515" transform="translate(246,153)"/>
<path d="M0 0 C1.01699627 3.05098881 0.97671918 4.1267462 0.5 7.1875 C-0.08272581 11.68702844 0.26890703 15.53220962 1 20 C-2.27987898 22.29591528 -5.41220391 24.22647918 -9.0625 25.875 C-15.75765535 29.16519063 -19.31452961 35.26122616 -22 42 C-22.38268126 43.47204725 -22.73818572 44.95150259 -23.0625 46.4375 C-23.371875 47.613125 -23.68125 48.78875 -24 50 C-25.485 50.495 -25.485 50.495 -27 51 C-25.81424758 41.75930871 -22.79063547 31.98835977 -15.6875 25.5625 C-11.74497059 22.58350356 -7.38937529 20.24943042 -3 18 C-3.03480469 17.03578125 -3.06960937 16.0715625 -3.10546875 15.078125 C-3.13253906 13.81484375 -3.15960938 12.5515625 -3.1875 11.25 C-3.22230469 9.99703125 -3.25710937 8.7440625 -3.29296875 7.453125 C-2.98802939 3.85890643 -2.45605371 2.55274874 0 0 Z " fill="#070707" transform="translate(189,158)"/>
<path d="M0 0 C0 0.99 0 1.98 0 3 C-0.74765625 3.06058594 -1.4953125 3.12117187 -2.265625 3.18359375 C-3.25046875 3.26738281 -4.2353125 3.35117188 -5.25 3.4375 C-6.22453125 3.51871094 -7.1990625 3.59992188 -8.203125 3.68359375 C-10.56461753 3.95074584 -12.71901065 4.35371968 -15 5 C-16.32342867 12.73878548 -16.32342867 12.73878548 -14 20 C-11.50494038 22.49505962 -10.32671112 22.35948376 -6.875 22.625 C-5.96492187 22.69976562 -5.05484375 22.77453125 -4.1171875 22.8515625 C-3.41851562 22.90054688 -2.71984375 22.94953125 -2 23 C-2 23.99 -2 24.98 -2 26 C-11.46503918 26.89511754 -11.46503918 26.89511754 -14.80859375 24.9453125 C-18.21727523 21.20284322 -19.14215404 16.90431432 -19 12 C-18.74978656 8.78892753 -18.28936745 5.96434012 -17 3 C-12.13488063 -1.11663946 -6.04627368 -0.29047934 0 0 Z " fill="#0D0D0D" transform="translate(208,195)"/>
<path d="M0 0 C2.75 2.5 2.75 2.5 5 5 C5.33 5.33 5.66 5.66 6 6 C6.23192865 7.51469448 6.41215238 9.03754562 6.5625 10.5625 C6.64628906 11.38878906 6.73007813 12.21507812 6.81640625 13.06640625 C6.87699219 13.70449219 6.93757812 14.34257812 7 15 C9.64 15 12.28 15 15 15 C15 15.33 15 15.66 15 16 C21.93 16.33 28.86 16.66 36 17 C36 17.33 36 17.66 36 18 C20.655 18.495 20.655 18.495 5 19 C4.34 15.37 3.68 11.74 3 8 C0.61050787 3.87917162 0.61050787 3.87917162 -2.04296875 3.609375 C-2.75066406 3.65578125 -3.45835937 3.7021875 -4.1875 3.75 C-6.0746875 3.87375 -6.0746875 3.87375 -8 4 C-7.625 2.0625 -7.625 2.0625 -7 0 C-4.19664415 -1.40167793 -2.9650644 -0.96536981 0 0 Z " fill="#1B1B1B" transform="translate(196,155)"/>
<path d="M0 0 C0.66 0.33 1.32 0.66 2 1 C1.54625 1.598125 1.0925 2.19625 0.625 2.8125 C-2.06426523 8.08759717 -3 14.09169694 -3 20 C-11.91 19.67 -20.82 19.34 -30 19 C-29.67 18.34 -29.34 17.68 -29 17 C-21.41 17 -13.82 17 -6 17 C-5.67 14.69 -5.34 12.38 -5 10 C-3.25323475 2.51386322 -3.25323475 2.51386322 0 0 Z " fill="#020202" transform="translate(240,153)"/>
<path d="M0 0 C1.32 0.66 2.64 1.32 4 2 C2.8656185 9.94067053 -2.50728227 15.50728227 -8 21 C-8.66 21.33 -9.32 21.66 -10 22 C-10 18.04 -10 14.08 -10 10 C-9.34 10 -8.68 10 -8 10 C-7.34 11.32 -6.68 12.64 -6 14 C-4.37168238 12.19038423 -4.37168238 12.19038423 -3 10 C-3.33 9.01 -3.66 8.02 -4 7 C-2.35 6.34 -0.7 5.68 1 5 C0.67 3.35 0.34 1.7 0 0 Z " fill="#010101" transform="translate(442,237)"/>
<path d="M0 0 C0.66 0.33 1.32 0.66 2 1 C1.319375 1.845625 0.63875 2.69125 -0.0625 3.5625 C-2.43065395 7.76406347 -1.82658451 9.37112672 -1 14 C-1.875 17.1875 -1.875 17.1875 -3 20 C-3.34976758 21.32911682 -3.69096017 22.66082739 -4 24 C-4.99 24 -5.98 24 -7 24 C-7 23.01 -7 22.02 -7 21 C-7.66 20.34 -8.32 19.68 -9 19 C-8.13375 18.154375 -7.2675 17.30875 -6.375 16.4375 C-4.93020894 14.85540789 -4.93020894 14.85540789 -4 13 C-4.53219091 9.17352608 -4.53219091 9.17352608 -6 6 C-4.02 4.02 -2.04 2.04 0 0 Z " fill="#000000" transform="translate(470,231)"/>
<path d="M0 0 C1.65 0.33 3.3 0.66 5 1 C5.90594807 3.61718331 5.98235878 5.10143704 5.5 7.875 C4.96376636 11.22646028 5.41081278 13.68582189 6 17 C5.67 17.99 5.34 18.98 5 20 C4.01 19.67 3.02 19.34 2 19 C2.2475 18.4225 2.495 17.845 2.75 17.25 C2.8325 16.5075 2.915 15.765 3 15 C1.14567913 12.72855926 1.14567913 12.72855926 -1 11 C0.33333333 8.33333333 1.66666667 5.66666667 3 3 C2.01 2.67 1.02 2.34 0 2 C0 1.34 0 0.68 0 0 Z " fill="#000000" transform="translate(564,256)"/>
<path d="M0 0 C0.66 0.33 1.32 0.66 2 1 C1.814375 1.515625 1.62875 2.03125 1.4375 2.5625 C0.83752918 5.1713937 0.83752918 5.1713937 1.5 8.5 C1.93772143 11.56405002 2.02210188 13.16082812 1 16 C0.01 15.67 -0.98 15.34 -2 15 C-1.773125 14.113125 -1.54625 13.22625 -1.3125 12.3125 C-0.94548054 8.42209376 -1.73118159 7.08559304 -4 4 C-2.68 2.68 -1.36 1.36 0 0 Z " fill="#000000" transform="translate(518,231)"/>
<path d="M0 0 C2.64 0 5.28 0 8 0 C8 0.99 8 1.98 8 3 C5.03 2.67 2.06 2.34 -1 2 C-0.67 1.34 -0.34 0.68 0 0 Z " fill="#020202" transform="translate(200,195)"/>
<path d="M0 0 C0.33 0 0.66 0 1 0 C1 2.97 1 5.94 1 9 C0.01 9 -0.98 9 -2 9 C-1.125 1.125 -1.125 1.125 0 0 Z " fill="#000000" transform="translate(602,255)"/>
</svg>
