<?xml version="1.0" encoding="UTF-8"?>
<svg version="1.1" xmlns="http://www.w3.org/2000/svg" width="800" height="300">
<path d="M0 0 C264 0 528 0 800 0 C800 99 800 198 800 300 C536 300 272 300 0 300 C0 201 0 102 0 0 Z " fill="#FEFEFE" transform="translate(0,0)"/>
<path d="M0 0 C2.8125 1.8125 2.8125 1.8125 5 5 C5.70027777 8.66616011 5.92818902 12.27235735 6 16 C6.79148438 15.68417969 7.58296875 15.36835938 8.3984375 15.04296875 C12.84611204 13.75497623 17.0185701 13.50738742 21.625 13.3125 C22.470625 13.26544922 23.31625 13.21839844 24.1875 13.16992188 C28.04022309 12.98457794 31.26683814 12.91357715 35 14 C35.07347656 13.09507812 35.07347656 13.09507812 35.1484375 12.171875 C35.22320312 11.37265625 35.29796875 10.5734375 35.375 9.75 C35.44460937 8.96109375 35.51421875 8.1721875 35.5859375 7.359375 C36.03571912 4.7964684 36.47937275 3.12136889 38 1 C41.30263115 -0.10471286 44.53657599 -0.20175286 48 0 C50.5 1.25 50.5 1.25 52 4 C53.30616693 9.01203588 54 13.82042019 54 19 C55.32 19 56.64 19 58 19 C69.87979607 29.60696078 74.87040788 45.57074142 78.65454102 60.43188477 C78.91936279 61.46756592 79.18418457 62.50324707 79.45703125 63.5703125 C79.68366455 64.49602051 79.91029785 65.42172852 80.14379883 66.37548828 C81.39730012 70.21784326 83.14580728 73.14580728 86 76 C88.14372843 76.35408342 88.14372843 76.35408342 90.62109375 76.37890625 C92.02584961 76.43014648 92.02584961 76.43014648 93.45898438 76.48242188 C94.44189453 76.50884766 95.42480469 76.53527344 96.4375 76.5625 C98.35294947 76.62370063 100.26831758 76.68750307 102.18359375 76.75390625 C103.46061157 76.78979858 103.46061157 76.78979858 104.76342773 76.82641602 C107.45483785 76.97076184 110.0899799 77.22127249 112.76831055 77.50537109 C125.77227304 78.71235249 138.97897198 78.17530234 152.02587891 78.08764648 C155.60303867 78.06588442 159.17917804 78.06637047 162.75634766 78.08569336 C167.10090979 78.10894948 171.44371223 78.09341687 175.78810501 78.05013847 C177.43627031 78.04020291 179.0845775 78.04387883 180.73267746 78.06160164 C189.45510941 78.54034289 189.45510941 78.54034289 197.03692627 75.22042847 C198.40481194 73.12462768 198.40481194 73.12462768 199.20132446 70.90892029 C200 69 200 69 203 67 C209.32258065 66.5483871 209.32258065 66.5483871 213 69 C213.42915004 73.54899046 212.99170782 76.89210262 211 81 C212.36125 81.2784375 212.36125 81.2784375 213.75 81.5625 C217.23248063 83.10282797 218.66328661 84.51731261 220.37109375 87.92578125 C221.52635352 91.73598584 221.15957229 95.22762522 220 99 C218.375 101.0625 218.375 101.0625 216 102 C211.28734176 102.20932576 207.2568171 101.73039168 202.6875 100.625 C191.28097947 98.1939133 179.6160614 97.73516035 168 97 C168.956581 98.77178053 169.91532988 100.54239076 170.875 102.3125 C171.40867187 103.29863281 171.94234375 104.28476562 172.4921875 105.30078125 C174.75261075 109.7529239 174.75261075 109.7529239 179 111.9375 C182 113 182 113 183.375 114.6875 C184.27650066 118.02305245 184.42292741 120.5561625 184 124 C181.5625 126.875 181.5625 126.875 179 129 C178.67 129.33 178.34 129.66 178 130 C175.8579034 130.15154969 173.70976538 130.22177745 171.5625 130.25 C169.80099609 130.28867187 169.80099609 130.28867187 168.00390625 130.328125 C167.01261719 130.21984375 166.02132812 130.1115625 165 130 C162.69397855 126.54096783 162.91641816 125.73074324 163.25 121.75 C163.35853252 117.42012373 163.02881146 115.32382519 160.0625 112.125 C159.24072266 111.32255859 159.24072266 111.32255859 158.40234375 110.50390625 C156.53516464 108.50149969 156.16337475 106.69568342 156 104 C155.34 104 154.68 104 154 104 C153.79375 104.66 153.5875 105.32 153.375 106 C152.08075888 108.82379881 150.811518 110.4309536 148.8125 112.75 C146.96076454 115.1047309 146.0181996 116.31865248 145.9375 119.33984375 C146.18369601 120.88113333 146.45764925 122.41829492 146.76171875 123.94921875 C147 126 147 126 145.625 129 C144 131 144 131 143 132 C138.09126309 132.43610679 133.36649743 132.51404398 129 130 C126.52758772 126.29138158 126.45080645 123.30060794 127 119 C128.31507269 116.17259371 129.85155183 114.17318953 131.875 111.8125 C134.30656376 108.59425385 136.01129579 105.3104223 137.75 101.6875 C138.06582031 101.04232422 138.38164062 100.39714844 138.70703125 99.73242188 C139.47691708 98.15765541 140.23924891 96.5791996 141 95 C124.38514868 94.84920897 107.79677497 95.10360614 91.1875 95.5 C73.45276547 95.92304694 55.7401302 96.13909632 38 96 C38.874361 98.7793262 39.77292611 101.54641711 40.6875 104.3125 C40.93177734 105.09818359 41.17605469 105.88386719 41.42773438 106.69335938 C43.01957043 111.48370595 43.01957043 111.48370595 46.59375 114.94140625 C47.3878125 115.29074219 48.181875 115.64007813 49 116 C51.16758179 117.94334919 51.9138194 119.25803892 52.25 122.15234375 C52.41156396 128.38265406 52.41156396 128.38265406 50 132 C45.61952896 133.46015701 41.56102423 133.85837458 37 133 C34.33147166 131.13263254 33.12389262 129.02751936 32 126 C31.5771932 123.44302557 31.37548569 120.94640426 31.234375 118.359375 C30.80533737 114.04039621 28.53319606 110.86891209 26.3125 107.25 C25 105 25 105 25 103 C22.69003575 102.61217947 22.69003575 102.61217947 20 103 C17.60661321 104.96800787 17.60661321 104.96800787 15.5 107.625 C14.72785156 108.54410156 13.95570313 109.46320313 13.16015625 110.41015625 C12.44730469 111.26480469 11.73445313 112.11945313 11 113 C10.44183594 113.55558594 9.88367188 114.11117187 9.30859375 114.68359375 C7.30556955 116.69803119 6.06956345 118.32835287 5.7734375 121.1875 C5.79917331 122.75223708 5.85829427 124.3168334 5.953125 125.87890625 C6.0138331 128.62594777 5.27973139 130.59109385 4 133 C2.36372273 134.63627727 0.56755367 134.40407321 -1.6875 134.5625 C-4.8442315 134.53079681 -6.45480033 134.41076688 -8.99609375 132.49609375 C-11.67765973 129.21005006 -13.36602753 126.14481378 -13.6875 121.875 C-12.80127128 116.87989267 -11.76934655 115.35963496 -8 112 C-6.00326516 111.64763503 -4.00349261 111.31165441 -2 111 C-0.81971716 108.84902067 -0.81971716 108.84902067 0 106 C1.57856728 103.2765932 3.28442332 100.63884504 5 98 C2.21526594 96.48459757 -0.25860183 95.61311816 -3.37109375 95.03515625 C-4.19287109 94.87466797 -5.01464844 94.71417969 -5.86132812 94.54882812 C-7.5742949 94.22545532 -9.28783906 93.90512575 -11.00195312 93.58789062 C-18.58463946 92.09748008 -23.38757295 89.46541394 -28.3515625 83.4609375 C-33.60146877 75.62339971 -34.35000938 66.93396644 -34.4375 57.75 C-34.44773193 56.92274414 -34.45796387 56.09548828 -34.46850586 55.24316406 C-34.33067463 45.58533975 -31.20338403 37.41618046 -25 30 C-20.67109193 25.95622959 -16.67682133 23.73368833 -11 22 C-11.05220703 20.10314453 -11.05220703 20.10314453 -11.10546875 18.16796875 C-11.13360677 16.50782577 -11.16090691 14.84766844 -11.1875 13.1875 C-11.21263672 12.35412109 -11.23777344 11.52074219 -11.26367188 10.66210938 C-11.27333984 9.85966797 -11.28300781 9.05722656 -11.29296875 8.23046875 C-11.3086792 7.49207764 -11.32438965 6.75368652 -11.34057617 5.99291992 C-10.90426964 3.43982299 -9.98707807 2.60542381 -8 1 C-5.11138291 -0.44430855 -3.20352299 -0.37688506 0 0 Z " fill="#F9F9F9" transform="translate(198,153)"/>
<path d="M0 0 C2.8125 -0.1875 2.8125 -0.1875 6 0 C7 1 8 2 9 3 C15.47083003 5.07525149 21.41141432 5.24994212 28.16796875 5.16015625 C29.2571611 5.15463745 30.34635345 5.14911865 31.46855164 5.14343262 C33.8178252 5.13109227 36.16707948 5.11448167 38.51629639 5.09402466 C44.77770738 5.04025787 51.03917966 5.01861565 57.30078125 5 C59.23244141 4.9937838 59.23244141 4.9937838 61.203125 4.98744202 C77.41229646 4.95866797 93.61370822 5.33435472 109.81713867 5.73266602 C110.89429642 5.75735962 111.97145416 5.78205322 113.08125305 5.80749512 C115.09527242 5.85391321 117.10919602 5.90477372 119.12297058 5.96081543 C120.44631157 5.99096741 120.44631157 5.99096741 121.79638672 6.02172852 C122.56457733 6.04171402 123.33276794 6.06169952 124.12423706 6.08229065 C126.0924287 6.12361173 126.0924287 6.12361173 128 5 C131.03566911 4.76089183 134.08095166 4.81479913 137.125 4.8125 C138.37023437 4.79413086 138.37023437 4.79413086 139.640625 4.77539062 C146.3283327 4.75966717 153.1906553 5.34226445 159 9 C159.42667969 9.46148437 159.85335937 9.92296875 160.29296875 10.3984375 C162.9975484 12.93591497 166.33120593 14.35011728 169.625 16.01171875 C174.01917804 19.69039741 174.99427916 24.83672162 175.6171875 30.3671875 C175.72209306 31.86858663 175.80765993 33.37144759 175.875 34.875 C175.91254395 35.66366455 175.95008789 36.4523291 175.98876953 37.26489258 C176.27663329 46.52514559 174.29214193 54.04285919 168 61 C162.69554711 66.38085279 158.19286413 67.70523678 150.71362305 67.88330078 C149.57062744 67.88056152 148.42763184 67.87782227 147.25 67.875 C146.0535083 67.8941748 144.8570166 67.91334961 143.62426758 67.93310547 C140.0824586 67.98283335 136.54211111 67.99384427 133 68 C131.18616451 68.02360067 129.37235524 68.04939485 127.55859375 68.078125 C114.02532285 68.24209193 100.1544274 68.25064747 86.72265625 66.47265625 C78.59603524 65.44083973 70.49840803 65.91088485 62.375 66.78125 C56.14473547 67.35509015 49.86288457 66.66520367 43.63769531 66.25537109 C41.63908688 66.12591247 39.63984991 66.00628024 37.640625 65.88671875 C36.36960937 65.80292969 35.09859375 65.71914063 33.7890625 65.6328125 C32.63100098 65.55949707 31.47293945 65.48618164 30.27978516 65.41064453 C26.94747647 64.99342381 24.14301003 64.16096136 21 63 C19.865625 62.62875 18.73125 62.2575 17.5625 61.875 C10.70420537 58.84035636 6.45523899 52.07424207 3.69140625 45.35546875 C2.95117812 42.83367463 2.71897532 40.55745849 2.5625 37.9375 C2.27383191 33.27551038 0.83709453 30.65071581 -1.7890625 26.86328125 C-4.96470506 21.97688932 -6.0453083 15.71367548 -5 10 C-3.57222581 6.52259876 -1.86966857 3.25856521 0 0 Z " fill="#646464" transform="translate(429,216)"/>
<path d="M0 0 C2.8125 1.8125 2.8125 1.8125 5 5 C5.70027777 8.66616011 5.92818902 12.27235735 6 16 C6.79148438 15.68417969 7.58296875 15.36835938 8.3984375 15.04296875 C12.84611204 13.75497623 17.0185701 13.50738742 21.625 13.3125 C22.470625 13.26544922 23.31625 13.21839844 24.1875 13.16992188 C28.04022309 12.98457794 31.26683814 12.91357715 35 14 C35.07347656 13.09507812 35.07347656 13.09507812 35.1484375 12.171875 C35.22320312 11.37265625 35.29796875 10.5734375 35.375 9.75 C35.44460937 8.96109375 35.51421875 8.1721875 35.5859375 7.359375 C36.03571912 4.7964684 36.47937275 3.12136889 38 1 C41.30263115 -0.10471286 44.53657599 -0.20175286 48 0 C50.5 1.25 50.5 1.25 52 4 C53.30616693 9.01203588 54 13.82042019 54 19 C55.32 19 56.64 19 58 19 C69.87979607 29.60696078 74.87040788 45.57074142 78.65454102 60.43188477 C78.91936279 61.46756592 79.18418457 62.50324707 79.45703125 63.5703125 C79.68366455 64.49602051 79.91029785 65.42172852 80.14379883 66.37548828 C81.39730012 70.21784326 83.14580728 73.14580728 86 76 C88.14372843 76.35408342 88.14372843 76.35408342 90.62109375 76.37890625 C92.02584961 76.43014648 92.02584961 76.43014648 93.45898438 76.48242188 C94.44189453 76.50884766 95.42480469 76.53527344 96.4375 76.5625 C98.35294947 76.62370063 100.26831758 76.68750307 102.18359375 76.75390625 C103.46061157 76.78979858 103.46061157 76.78979858 104.76342773 76.82641602 C107.45483785 76.97076184 110.0899799 77.22127249 112.76831055 77.50537109 C125.77227304 78.71235249 138.97897198 78.17530234 152.02587891 78.08764648 C155.60303867 78.06588442 159.17917804 78.06637047 162.75634766 78.08569336 C167.10090979 78.10894948 171.44371223 78.09341687 175.78810501 78.05013847 C177.43627031 78.04020291 179.0845775 78.04387883 180.73267746 78.06160164 C189.45510941 78.54034289 189.45510941 78.54034289 197.03692627 75.22042847 C198.40481194 73.12462768 198.40481194 73.12462768 199.20132446 70.90892029 C200 69 200 69 203 67 C209.32258065 66.5483871 209.32258065 66.5483871 213 69 C213.42915004 73.54899046 212.99170782 76.89210262 211 81 C212.36125 81.2784375 212.36125 81.2784375 213.75 81.5625 C217.23248063 83.10282797 218.66328661 84.51731261 220.37109375 87.92578125 C221.52635352 91.73598584 221.15957229 95.22762522 220 99 C218.375 101.0625 218.375 101.0625 216 102 C211.28734176 102.20932576 207.2568171 101.73039168 202.6875 100.625 C191.28097947 98.1939133 179.6160614 97.73516035 168 97 C168.956581 98.77178053 169.91532988 100.54239076 170.875 102.3125 C171.40867187 103.29863281 171.94234375 104.28476562 172.4921875 105.30078125 C174.75261075 109.7529239 174.75261075 109.7529239 179 111.9375 C182 113 182 113 183.375 114.6875 C184.27650066 118.02305245 184.42292741 120.5561625 184 124 C181.5625 126.875 181.5625 126.875 179 129 C178.67 129.33 178.34 129.66 178 130 C175.8579034 130.15154969 173.70976538 130.22177745 171.5625 130.25 C169.80099609 130.28867187 169.80099609 130.28867187 168.00390625 130.328125 C167.01261719 130.21984375 166.02132812 130.1115625 165 130 C162.69397855 126.54096783 162.91641816 125.73074324 163.25 121.75 C163.35853252 117.42012373 163.02881146 115.32382519 160.0625 112.125 C159.24072266 111.32255859 159.24072266 111.32255859 158.40234375 110.50390625 C156.53516464 108.50149969 156.16337475 106.69568342 156 104 C155.34 104 154.68 104 154 104 C153.79375 104.66 153.5875 105.32 153.375 106 C152.08075888 108.82379881 150.811518 110.4309536 148.8125 112.75 C146.96076454 115.1047309 146.0181996 116.31865248 145.9375 119.33984375 C146.18369601 120.88113333 146.45764925 122.41829492 146.76171875 123.94921875 C147 126 147 126 145.625 129 C144 131 144 131 143 132 C138.09126309 132.43610679 133.36649743 132.51404398 129 130 C126.52758772 126.29138158 126.45080645 123.30060794 127 119 C128.31507269 116.17259371 129.85155183 114.17318953 131.875 111.8125 C134.30656376 108.59425385 136.01129579 105.3104223 137.75 101.6875 C138.06582031 101.04232422 138.38164062 100.39714844 138.70703125 99.73242188 C139.47691708 98.15765541 140.23924891 96.5791996 141 95 C124.38514868 94.84920897 107.79677497 95.10360614 91.1875 95.5 C73.45276547 95.92304694 55.7401302 96.13909632 38 96 C38.874361 98.7793262 39.77292611 101.54641711 40.6875 104.3125 C40.93177734 105.09818359 41.17605469 105.88386719 41.42773438 106.69335938 C43.01957043 111.48370595 43.01957043 111.48370595 46.59375 114.94140625 C47.3878125 115.29074219 48.181875 115.64007813 49 116 C51.16758179 117.94334919 51.9138194 119.25803892 52.25 122.15234375 C52.41156396 128.38265406 52.41156396 128.38265406 50 132 C45.61952896 133.46015701 41.56102423 133.85837458 37 133 C34.33147166 131.13263254 33.12389262 129.02751936 32 126 C31.5771932 123.44302557 31.37548569 120.94640426 31.234375 118.359375 C30.80533737 114.04039621 28.53319606 110.86891209 26.3125 107.25 C25 105 25 105 25 103 C22.69003575 102.61217947 22.69003575 102.61217947 20 103 C17.60661321 104.96800787 17.60661321 104.96800787 15.5 107.625 C14.72785156 108.54410156 13.95570313 109.46320313 13.16015625 110.41015625 C12.44730469 111.26480469 11.73445313 112.11945313 11 113 C10.44183594 113.55558594 9.88367188 114.11117187 9.30859375 114.68359375 C7.30556955 116.69803119 6.06956345 118.32835287 5.7734375 121.1875 C5.79917331 122.75223708 5.85829427 124.3168334 5.953125 125.87890625 C6.0138331 128.62594777 5.27973139 130.59109385 4 133 C2.36372273 134.63627727 0.56755367 134.40407321 -1.6875 134.5625 C-4.8442315 134.53079681 -6.45480033 134.41076688 -8.99609375 132.49609375 C-11.67765973 129.21005006 -13.36602753 126.14481378 -13.6875 121.875 C-12.80127128 116.87989267 -11.76934655 115.35963496 -8 112 C-6.00326516 111.64763503 -4.00349261 111.31165441 -2 111 C-0.81971716 108.84902067 -0.81971716 108.84902067 0 106 C1.57856728 103.2765932 3.28442332 100.63884504 5 98 C2.21526594 96.48459757 -0.25860183 95.61311816 -3.37109375 95.03515625 C-4.19287109 94.87466797 -5.01464844 94.71417969 -5.86132812 94.54882812 C-7.5742949 94.22545532 -9.28783906 93.90512575 -11.00195312 93.58789062 C-18.58463946 92.09748008 -23.38757295 89.46541394 -28.3515625 83.4609375 C-33.60146877 75.62339971 -34.35000938 66.93396644 -34.4375 57.75 C-34.44773193 56.92274414 -34.45796387 56.09548828 -34.46850586 55.24316406 C-34.33067463 45.58533975 -31.20338403 37.41618046 -25 30 C-20.67109193 25.95622959 -16.67682133 23.73368833 -11 22 C-11.05220703 20.10314453 -11.05220703 20.10314453 -11.10546875 18.16796875 C-11.13360677 16.50782577 -11.16090691 14.84766844 -11.1875 13.1875 C-11.21263672 12.35412109 -11.23777344 11.52074219 -11.26367188 10.66210938 C-11.27333984 9.85966797 -11.28300781 9.05722656 -11.29296875 8.23046875 C-11.3086792 7.49207764 -11.32438965 6.75368652 -11.34057617 5.99291992 C-10.90426964 3.43982299 -9.98707807 2.60542381 -8 1 C-5.11138291 -0.44430855 -3.20352299 -0.37688506 0 0 Z M-9 5 C-9.68164579 12.15728079 -8.13724956 18.19387788 -6 25 C-6.86625 24.938125 -7.7325 24.87625 -8.625 24.8125 C-15.28290348 25.18238353 -20.64244718 29.144162 -25 34 C-32.26411282 45.09161621 -33.95322566 57.00064859 -31.28125 69.984375 C-29.56670929 76.53834513 -28.10772823 80.39441402 -23 85 C-22.51789063 85.55558594 -22.03578125 86.11117187 -21.5390625 86.68359375 C-13.90735436 93.21122229 0.4312738 93.12907402 10 94 C0.57006369 112.1910828 0.57006369 112.1910828 -8 116 C-10.05945016 117.63450124 -10.05945016 117.63450124 -11 120 C-10.93172242 123.82354429 -10.50774917 126.2079113 -8.4375 129.4375 C-4.85236684 131.73566228 -2.20922245 131.28061483 2 131 C3.77818351 127.97776415 4.08162664 126.36629943 3.5625 122.9375 C3.35764 116.04054683 8.58907419 111.75818462 13 107 C17.12807643 102.59664728 17.12807643 102.59664728 19 97 C19.763125 97.474375 20.52625 97.94875 21.3125 98.4375 C23.96410548 100.10106097 23.96410548 100.10106097 27 101 C27.72045764 102.9812585 28.38001259 104.98504093 29 107 C30.54633087 109.77050947 32.23957932 112.35936897 34 115 C34.0546875 117.05078125 34.0546875 117.05078125 33.875 119.3125 C33.81239082 122.8015391 34.07832496 124.1754479 35.5625 127.5 C37.86263893 130.25750706 37.86263893 130.25750706 41.4375 131.0625 C45.39559072 130.99305981 47.11150086 130.71343859 50 128 C50.83399875 125.08681086 50.83399875 125.08681086 50 122 C47.53856432 119.0728873 45.17875822 117.11917214 42 115 C41.12451172 113.16821289 41.12451172 113.16821289 40.4296875 110.97265625 C40.17316406 110.18052734 39.91664063 109.38839844 39.65234375 108.57226562 C39.39582031 107.74404297 39.13929688 106.91582031 38.875 106.0625 C38.61074219 105.23814453 38.34648437 104.41378906 38.07421875 103.56445312 C37.58359123 102.03155343 37.09728807 100.4972582 36.61669922 98.96118164 C36.09495304 97.30196268 35.5500206 95.65006181 35 94 C71.6947655 92.4955908 108.27169715 91.69746044 145 92 C143.45546015 95.40428273 141.88626866 98.79664243 140.3125 102.1875 C139.87744141 103.14720703 139.44238281 104.10691406 138.99414062 105.09570312 C136.52800637 110.3750572 134.27563542 114.07629954 130 118 C128.98400739 121.61947369 128.56790292 123.82716507 129.875 127.375 C133.13943802 129.87133496 136.93123915 130.4054019 141 130 C142.92356757 128.90458906 142.92356757 128.90458906 144 127 C143.916295 124.73541297 143.916295 124.73541297 143.3125 122.3125 C142.91308471 119.31688535 142.69646798 117.61385954 144.046875 114.8828125 C145.07284016 113.56598092 146.13865938 112.27941586 147.23828125 111.0234375 C149.7327939 108.15834315 151.66344059 104.98175844 153.703125 101.78515625 C155 100 155 100 157 99 C157.09474609 99.85271484 157.09474609 99.85271484 157.19140625 100.72265625 C157.96775473 105.6177377 158.82371392 108.22024386 162.6875 111.4375 C164.5859375 113.10546875 164.5859375 113.10546875 166 115 C166.17812477 117.76941605 165.85388675 120.05825131 165.26953125 122.765625 C164.71996695 125.28450187 164.71996695 125.28450187 167 128 C171.40937286 128.96157247 175.09291374 128.51023602 179 126.3125 C181.264831 123.69378916 182 122.45855456 182 119 C181.00719496 116.17862819 181.00719496 116.17862819 179 114 C178.18789063 113.87109375 177.37578125 113.7421875 176.5390625 113.609375 C174 113 174 113 172.59375 111.25 C172.05234375 110.13625 172.05234375 110.13625 171.5 109 C171.09394531 108.19691406 170.68789063 107.39382813 170.26953125 106.56640625 C169.85058594 105.71949219 169.43164062 104.87257813 169 104 C168.07115495 102.30772066 167.13404191 100.61994492 166.1875 98.9375 C165.45833333 97.625 164.72916667 96.3125 164 95 C166.81219705 94.80615821 169.62454196 94.61963397 172.4375 94.4375 C173.23994141 94.38142578 174.04238281 94.32535156 174.86914062 94.26757812 C176.91062111 94.1383705 178.95546369 94.0648727 181 94 C181.33 94.33 181.66 94.66 182 95 C185.45990802 95.45046942 188.918976 95.81793728 192.390625 96.16210938 C197.12511938 96.66937663 201.41588238 97.65790291 206 99 C208.48532003 99.30674174 208.48532003 99.30674174 210.75 99.25 C211.85601562 99.25773437 211.85601562 99.25773437 212.984375 99.265625 C215.31384055 99.10944286 215.31384055 99.10944286 218 97 C217.91253716 95.56138706 217.80434652 94.12402492 217.6875 92.6875 C217.60048828 91.48673828 217.60048828 91.48673828 217.51171875 90.26171875 C216.74521152 86.87387383 215.02136075 85.65393333 212.17578125 83.83203125 C211.56089844 83.49558594 210.94601562 83.15914063 210.3125 82.8125 C209.219375 82.214375 208.12625 81.61625 207 81 C207.474375 80.46375 207.94875 79.9275 208.4375 79.375 C210.28186076 76.57157164 210.62456847 74.30379742 211 71 C208.074084 69.537042 206.24382653 69.55476891 203 70 C199.33775957 73.49947419 197.78160543 76.06664099 197 81 C196.02155121 80.98747192 195.04310242 80.97494385 194.03500366 80.96203613 C184.71183745 80.84284671 175.3886533 80.7251557 166.06545067 80.60884857 C161.27490678 80.54904053 156.48437016 80.48874521 151.69384766 80.42724609 C122.34798109 80.03644386 122.34798109 80.03644386 93 80 C93 80.66 93 81.32 93 82 C87.59186991 79.94491057 81.82429525 77.69240985 79.11572266 72.21020508 C78.42928919 70.15525567 77.88208221 68.10626883 77.375 66 C76.96249244 64.47128591 76.54972974 62.94264065 76.13671875 61.4140625 C75.75650122 59.94304664 75.37750892 58.4717133 75 57 C71.75850841 44.72371268 66.83187844 29.73313853 56 22 C54.515 21.505 54.515 21.505 53 21 C52.84144531 19.95199219 52.68289062 18.90398437 52.51953125 17.82421875 C52.28499044 16.44511877 52.04925031 15.06622239 51.8125 13.6875 C51.71130859 12.99720703 51.61011719 12.30691406 51.50585938 11.59570312 C50.87516941 8.06724847 50.38528728 6.31920241 47.5859375 4 C44.96202062 2.76238417 44.96202062 2.76238417 41.8125 3.3125 C38.67471017 5.1951739 38.49679345 5.58635071 37.625 8.9375 C37.1582345 11.38573079 37 13.49029035 37 16 C35.81664062 15.97679687 34.63328125 15.95359375 33.4140625 15.9296875 C22.08772099 15.73104746 22.08772099 15.73104746 10.9453125 17.5625 C9 18 9 18 5 18 C4.81824219 17.08476562 4.63648438 16.16953125 4.44921875 15.2265625 C4.19785156 14.03804687 3.94648438 12.84953125 3.6875 11.625 C3.44386719 10.44164062 3.20023438 9.25828125 2.94921875 8.0390625 C2.26236391 4.72074996 2.26236391 4.72074996 -1 3 C-4.75698557 2.62430144 -5.75366476 2.8357765 -9 5 Z " fill="#0F0F0F" transform="translate(198,153)"/>
<path d="M0 0 C2.8125 -0.1875 2.8125 -0.1875 6 0 C7 1 8 2 9 3 C15.47083003 5.07525149 21.41141432 5.24994212 28.16796875 5.16015625 C29.2571611 5.15463745 30.34635345 5.14911865 31.46855164 5.14343262 C33.8178252 5.13109227 36.16707948 5.11448167 38.51629639 5.09402466 C44.77770738 5.04025787 51.03917966 5.01861565 57.30078125 5 C59.23244141 4.9937838 59.23244141 4.9937838 61.203125 4.98744202 C77.41229646 4.95866797 93.61370822 5.33435472 109.81713867 5.73266602 C110.89429642 5.75735962 111.97145416 5.78205322 113.08125305 5.80749512 C115.09527242 5.85391321 117.10919602 5.90477372 119.12297058 5.96081543 C120.44631157 5.99096741 120.44631157 5.99096741 121.79638672 6.02172852 C122.56457733 6.04171402 123.33276794 6.06169952 124.12423706 6.08229065 C126.0924287 6.12361173 126.0924287 6.12361173 128 5 C131.03566911 4.76089183 134.08095166 4.81479913 137.125 4.8125 C138.37023437 4.79413086 138.37023437 4.79413086 139.640625 4.77539062 C146.3283327 4.75966717 153.1906553 5.34226445 159 9 C159.42667969 9.46148437 159.85335937 9.92296875 160.29296875 10.3984375 C162.9975484 12.93591497 166.33120593 14.35011728 169.625 16.01171875 C174.01917804 19.69039741 174.99427916 24.83672162 175.6171875 30.3671875 C175.72209306 31.86858663 175.80765993 33.37144759 175.875 34.875 C175.91254395 35.66366455 175.95008789 36.4523291 175.98876953 37.26489258 C176.27663329 46.52514559 174.29214193 54.04285919 168 61 C162.69554711 66.38085279 158.19286413 67.70523678 150.71362305 67.88330078 C149.57062744 67.88056152 148.42763184 67.87782227 147.25 67.875 C146.0535083 67.8941748 144.8570166 67.91334961 143.62426758 67.93310547 C140.0824586 67.98283335 136.54211111 67.99384427 133 68 C131.18616451 68.02360067 129.37235524 68.04939485 127.55859375 68.078125 C114.02532285 68.24209193 100.1544274 68.25064747 86.72265625 66.47265625 C78.59603524 65.44083973 70.49840803 65.91088485 62.375 66.78125 C56.14473547 67.35509015 49.86288457 66.66520367 43.63769531 66.25537109 C41.63908688 66.12591247 39.63984991 66.00628024 37.640625 65.88671875 C36.36960937 65.80292969 35.09859375 65.71914063 33.7890625 65.6328125 C32.63100098 65.55949707 31.47293945 65.48618164 30.27978516 65.41064453 C26.94747647 64.99342381 24.14301003 64.16096136 21 63 C19.865625 62.62875 18.73125 62.2575 17.5625 61.875 C10.70420537 58.84035636 6.45523899 52.07424207 3.69140625 45.35546875 C2.95117812 42.83367463 2.71897532 40.55745849 2.5625 37.9375 C2.27383191 33.27551038 0.83709453 30.65071581 -1.7890625 26.86328125 C-4.96470506 21.97688932 -6.0453083 15.71367548 -5 10 C-3.57222581 6.52259876 -1.86966857 3.25856521 0 0 Z M2 3 C-1.20056327 7.39571031 -3.17210159 11.0337393 -2.6875 16.5703125 C-0.75050496 24.17301803 1.40130732 28.68547017 8 33 C8.309375 32.05125 8.61875 31.1025 8.9375 30.125 C10 27 10 27 11 25 C10.67 24.34 10.34 23.68 10 23 C12.31 23.33 14.62 23.66 17 24 C17 24.66 17 25.32 17 26 C16.401875 26.185625 15.80375 26.37125 15.1875 26.5625 C11.99950687 28.65746692 11.45644444 31.54094446 10 35 C7.8125 36.9375 7.8125 36.9375 6 38 C6.43386428 44.79720708 8.71901136 50.62717707 13.53515625 55.578125 C25.47522139 64.94952365 42.73368679 63.15052382 57 63 C56.98710937 61.8965625 56.97421875 60.793125 56.9609375 59.65625 C57 56 57 56 57.625 53.5 C58.20619921 50.81449175 58.20619921 50.81449175 57 47.5625 C55.9369034 43.77521835 56.32627014 41.78973046 57 38 C56.17657468 35.68019054 56.17657468 35.68019054 55 34 C57.92512762 36.43505389 57.92512762 36.43505389 58.2578125 38.9453125 C58.21398437 39.66460937 58.17015625 40.38390625 58.125 41.125 C57.96429211 45.84675096 58.3919686 50.32341282 59 55 C59.17893286 56.42571265 59.3572786 57.85149906 59.53515625 59.27734375 C59.68855469 60.50582031 59.84195313 61.73429687 60 63 C61.31613281 62.90460938 62.63226563 62.80921875 63.98828125 62.7109375 C80.13303317 61.64939006 80.13303317 61.64939006 87.84765625 63.453125 C102.6439952 66.02002395 120.17962869 66.37125941 135 64 C137.44251927 57.47348346 138.25867587 53.77602761 136 47 C136.9375 44.1875 136.9375 44.1875 138 42 C137.67 41.34 137.34 40.68 137 40 C136.01 40 135.02 40 134 40 C134 39.01 134 38.02 134 37 C135.9375 37.625 135.9375 37.625 138 39 C139.0723094 42.79432556 138.93231135 45.27075458 138 49 C138.165 49.886875 138.33 50.77375 138.5 51.6875 C139.14190299 55.94010731 138.61116813 59.76883603 138 64 C142.67661056 64.08468711 147.17531996 64.1216741 151.8125 63.4375 C155 63 155 63 157.5 63.8125 C160.60164164 64.04512312 161.18668047 63.41175287 163.5625 61.5 C166.91032743 58.34098713 169.11705826 55.18047615 171 51 C171.32226562 50.35546875 171.64453125 49.7109375 171.9765625 49.046875 C175.54148085 40.6770667 173.41424912 31.35760137 170.5625 23 C167.88947491 17.47850029 162.37709586 15.36406801 157 13 C155.91599105 18.7175801 155.91599105 18.7175801 157.25 24.25 C158.42159507 30.10797537 155.88541581 34.90217422 153 40 C152.01 40.66 151.02 41.32 150 42 C150.52851562 41.04738281 151.05703125 40.09476562 151.6015625 39.11328125 C152.27698801 37.84685843 152.95141527 36.57990285 153.625 35.3125 C153.975625 34.68666016 154.32625 34.06082031 154.6875 33.41601562 C156.32195389 30.29420869 157.16831634 28.6373228 156.25 25.16015625 C155.63125 24.09087891 155.63125 24.09087891 155 23 C154.07556986 20.22670957 154.0267192 18.50124151 154.1875 15.5 C154.2816013 12.06955642 154.2816013 12.06955642 152.65625 9.80078125 C148.45579586 6.95312043 144.2592073 7.53860246 139.3125 7.6875 C138.33732422 7.69716797 137.36214844 7.70683594 136.35742188 7.71679688 C131.83867632 7.38617701 131.83867632 7.38617701 128 9 C125.98035801 9.07244053 123.95832876 9.08377188 121.9375 9.0625 C120.83277344 9.05347656 119.72804688 9.04445312 118.58984375 9.03515625 C117.73519531 9.02355469 116.88054687 9.01195312 116 9 C116.01160156 9.61746094 116.02320313 10.23492187 116.03515625 10.87109375 C116.08894661 15.91970297 115.92444046 20.82368002 115.27734375 25.83203125 C115.0915947 27.28401325 114.9381839 28.74047797 114.81640625 30.19921875 C114.44335142 34.31804865 113.90156943 36.97227538 111 40 C111 37.59411466 111.70979414 35.99839035 112.5625 33.75 C113.96505902 29.6916695 113.84584573 27.22922865 113 23 C113.350625 22.01 113.70125 21.02 114.0625 20 C115.41997215 15.65608912 113.96348052 12.92696104 112 9 C104.74 9 97.48 9 90 9 C88.53691078 15.88512576 87.86947155 21.09121505 89 28 C88.67 28.66 88.34 29.32 88 30 C87.34 29.67 86.68 29.34 86 29 C86.495 28.505 86.495 28.505 87 28 C87.13961241 24.92852697 87.04131994 22.20659968 86.4375 19.1875 C86.293125 18.465625 86.14875 17.74375 86 17 C86.33 16.67 86.66 16.34 87 16 C87.04063832 14.33382885 87.042721 12.66611905 87 11 C86.34 11 85.68 11 85 11 C84.505 9.515 84.505 9.515 84 8 C78.21590487 7.97529951 72.43184038 7.95713977 66.64770508 7.94506836 C64.67960068 7.9400365 62.71150003 7.93321042 60.7434082 7.92456055 C57.91616899 7.91244483 55.08897916 7.90676024 52.26171875 7.90234375 C50.93970711 7.89460182 50.93970711 7.89460182 49.59098816 7.88670349 C48.3600518 7.88659019 48.3600518 7.88659019 47.10424805 7.88647461 C46.38254929 7.884254 45.66085052 7.88203339 44.9172821 7.87974548 C42.77773199 7.93174401 42.77773199 7.93174401 40 9 C39.19078631 11.69737896 38.54117383 14.25209793 38 17 C37.7215625 18.2065625 37.7215625 18.2065625 37.4375 19.4375 C36.97731213 21.91344677 36.97731213 21.91344677 36.82421875 24.09375 C36.40332248 29.04547086 35.57856056 32.62765819 33 37 C32.01 37 31.02 37 30 37 C30.639375 36.29875 31.27875 35.5975 31.9375 34.875 C34.20191565 31.71854182 34.59487586 29.80816696 35 26 C35.20625 25.319375 35.4125 24.63875 35.625 23.9375 C36.15393796 21.88232882 36.15393796 21.88232882 35.4375 19.375 C35.293125 18.59125 35.14875 17.8075 35 17 C35.66 16.34 36.32 15.68 37 15 C36.67801034 11.90073181 36.67801034 11.90073181 36 9 C34.51113281 8.94392578 34.51113281 8.94392578 32.9921875 8.88671875 C10.69180146 7.87331587 10.69180146 7.87331587 2 3 Z " fill="#101010" transform="translate(429,216)"/>
<path d="M0 0 C2.8125 1.8125 2.8125 1.8125 5 5 C5.70027777 8.66616011 5.92818902 12.27235735 6 16 C7.98 15.67 9.96 15.34 12 15 C12 15.99 12 16.98 12 18 C9.69 18.33 7.38 18.66 5 19 C3.23384882 14.29026351 2.51405169 9.96916636 2 5 C0.72125 4.814375 -0.5575 4.62875 -1.875 4.4375 C-2.59429687 4.33308594 -3.31359375 4.22867188 -4.0546875 4.12109375 C-6.08140667 3.8315703 -6.08140667 3.8315703 -8 5 C-8.22731216 11.93302093 -7.42002108 18.2168636 -6 25 C-7.175625 25.2475 -8.35125 25.495 -9.5625 25.75 C-18.01513836 27.92651711 -22.39764561 31.76772882 -27 39 C-32.93379511 49.43529484 -32.28013122 62.34349034 -29.3125 73.6875 C-27.60172462 79.67873393 -24.77727742 82.93687963 -19.8125 86.625 C-10.53210156 91.16208368 -0.09420043 92.34886049 10 94 C8.59902868 101.68690845 3.11460185 110.17268275 -3 115 C-4.65583225 115.69313908 -6.32110979 116.36474424 -8 117 C-10.35618542 119.88599388 -10.35618542 119.88599388 -9.8125 123.5 C-9.20466412 126.83367036 -9.20466412 126.83367036 -7.9375 128.9375 C-4.72427107 130.69959328 -1.6157826 130.17782537 2 130 C2.144375 128.9275 2.28875 127.855 2.4375 126.75 C2.83749442 124.08337051 3.27591924 121.58600271 4 119 C6 121 6 121 6.25 124.3125 C6.00655446 127.9033217 5.65776419 131.34223581 3 134 C-0.45011569 134.63024712 -3.56003902 134.7108215 -7 134 C-10.50130366 131.36203149 -12.45708358 128.13203673 -13.53515625 123.8984375 C-13.81502204 120.18124576 -13.02783252 117.5007307 -10.875 114.5625 C-7.65849709 111.69561697 -6.11265026 111.6397456 -2 111 C-0.81971716 108.84902067 -0.81971716 108.84902067 0 106 C1.57856728 103.2765932 3.28442332 100.63884504 5 98 C2.21526594 96.48459757 -0.25860183 95.61311816 -3.37109375 95.03515625 C-4.19287109 94.87466797 -5.01464844 94.71417969 -5.86132812 94.54882812 C-7.5742949 94.22545532 -9.28783906 93.90512575 -11.00195312 93.58789062 C-18.58463946 92.09748008 -23.38757295 89.46541394 -28.3515625 83.4609375 C-33.60146877 75.62339971 -34.35000938 66.93396644 -34.4375 57.75 C-34.44773193 56.92274414 -34.45796387 56.09548828 -34.46850586 55.24316406 C-34.33067463 45.58533975 -31.20338403 37.41618046 -25 30 C-20.67109193 25.95622959 -16.67682133 23.73368833 -11 22 C-11.05220703 20.10314453 -11.05220703 20.10314453 -11.10546875 18.16796875 C-11.13360677 16.50782577 -11.16090691 14.84766844 -11.1875 13.1875 C-11.21263672 12.35412109 -11.23777344 11.52074219 -11.26367188 10.66210938 C-11.27333984 9.85966797 -11.28300781 9.05722656 -11.29296875 8.23046875 C-11.3086792 7.49207764 -11.32438965 6.75368652 -11.34057617 5.99291992 C-10.90426964 3.43982299 -9.98707807 2.60542381 -8 1 C-5.11138291 -0.44430855 -3.20352299 -0.37688506 0 0 Z " fill="#080808" transform="translate(198,153)"/>
<path d="M0 0 C0 0.33 0 0.66 0 1 C7.59 1.33 15.18 1.66 23 2 C23 2.33 23 2.66 23 3 C-10.96615434 4.55665694 -44.99924288 5.26659218 -79 5 C-78.125639 7.7793262 -77.22707389 10.54641711 -76.3125 13.3125 C-75.94608398 14.49102539 -75.94608398 14.49102539 -75.57226562 15.69335938 C-73.98042957 20.48370595 -73.98042957 20.48370595 -70.40625 23.94140625 C-69.6121875 24.29074219 -68.818125 24.64007813 -68 25 C-65.83241821 26.94334919 -65.0861806 28.25803892 -64.75 31.15234375 C-64.58843604 37.38265406 -64.58843604 37.38265406 -67 41 C-71.38047104 42.46015701 -75.43897577 42.85837458 -80 42 C-82.66852834 40.13263254 -83.87610738 38.02751936 -85 35 C-85.4228068 32.44302557 -85.62451431 29.94640426 -85.765625 27.359375 C-86.19466263 23.04039621 -88.46680394 19.86891209 -90.6875 16.25 C-92 14 -92 14 -92 12 C-94.30996425 11.61217947 -94.30996425 11.61217947 -97 12 C-99.39338679 13.96800787 -99.39338679 13.96800787 -101.5 16.625 C-102.27601563 17.53378906 -103.05203125 18.44257813 -103.8515625 19.37890625 C-105.53525505 21.43301116 -107.20724986 23.49550058 -108.875 25.5625 C-111 28 -111 28 -114 29 C-112.56490997 24.37204693 -109.88603199 21.4466962 -106.5625 18.0625 C-102.84593994 14.27756696 -100.17135921 10.93892213 -98 6 C-93.72361306 6.4751541 -91.76648508 8.87883735 -89 12 C-87.4375 14.375 -87.4375 14.375 -86 17 C-85.278125 18.0725 -84.55625 19.145 -83.8125 20.25 C-81.69924399 23.88861374 -81.86276932 26.80032594 -82.03125 30.9140625 C-81.98338212 34.10924371 -81.21095906 35.71771968 -79 38 C-75.38775116 38.98515877 -73.09106096 39.41963883 -69.5625 38.0625 C-69.046875 37.711875 -68.53125 37.36125 -68 37 C-67.92572162 33.65747276 -67.93453047 31.1964086 -69 28 C-69.78375 27.71125 -70.5675 27.4225 -71.375 27.125 C-74.79721327 25.65833717 -75.29570389 24.28907016 -77 21 C-77.9622684 18.48183847 -78.85475887 15.99610342 -79.6875 13.4375 C-79.91244141 12.77814453 -80.13738281 12.11878906 -80.36914062 11.43945312 C-81.48033792 8.07884124 -82 5.58289277 -82 2 C-74.85242121 1.73402369 -67.70467723 1.47301388 -60.55670929 1.21769714 C-57.23465469 1.09889494 -53.91270007 0.97813947 -50.59082031 0.85449219 C-33.71936923 0.22772865 -16.88352588 -0.15585162 0 0 Z " fill="#0D0D0D" transform="translate(315,244)"/>
<path d="M0 0 C4.10415189 -0.02898097 8.20827753 -0.0467922 12.3125 -0.0625 C13.47974609 -0.07087891 14.64699219 -0.07925781 15.84960938 -0.08789062 C17.52700195 -0.09272461 17.52700195 -0.09272461 19.23828125 -0.09765625 C20.26993408 -0.10289307 21.30158691 -0.10812988 22.36450195 -0.11352539 C25 0 25 0 28 1 C26.99988648 5.43568868 25.15860194 9.32909398 23.25 13.4375 C22.74726563 14.56381836 22.74726563 14.56381836 22.234375 15.71289062 C20.0720235 20.369318 17.7509056 23.41523332 14 27 C12.93318991 30.54573858 12.93318991 30.54573858 13 34 C14.62193588 37.14041531 14.62193588 37.14041531 17.09375 37.58203125 C17.8878125 37.65808594 18.681875 37.73414063 19.5 37.8125 C20.69109375 37.94591797 20.69109375 37.94591797 21.90625 38.08203125 C24.22410302 38.22848506 24.22410302 38.22848506 26 36 C25.78860282 33.81711633 25.78860282 33.81711633 25.25 31.375 C24.75620661 27.27181207 24.95320893 25.28402006 27.5 22 C28.05171875 21.3709375 28.6034375 20.741875 29.171875 20.09375 C31.26694637 17.69426655 32.9803604 15.14702394 34.75 12.5 C36.484375 9.90625 36.484375 9.90625 38 8 C38.66 8 39.32 8 40 8 C40.21914063 8.65226563 40.43828125 9.30453125 40.6640625 9.9765625 C42.90853526 16.21337927 42.90853526 16.21337927 47.3125 21 C48.875 22.359375 48.875 22.359375 50 24 C50.13622314 26.74149071 49.83429291 29.13306241 49.33203125 31.828125 C48.77991739 34.04087224 48.77991739 34.04087224 50 36 C54.87067653 36.47751731 57.97209714 36.69897394 62.125 33.875 C64.23980411 31.13259259 64.23980411 31.13259259 64.25 27.875 C63.25155765 24.65993133 63.25155765 24.65993133 59.75 23.6875 C59.11964844 23.46964844 58.48929687 23.25179688 57.83984375 23.02734375 C54.11682527 20.94846082 52.78195956 16.70524695 51 13 C50.24000906 11.68119219 49.47022025 10.36794601 48.6875 9.0625 C47 6 47 6 47 4 C51.455 3.505 51.455 3.505 56 3 C55.67 3.99 55.34 4.98 55 6 C53.68 6 52.36 6 51 6 C51.956581 7.77178053 52.91532988 9.54239076 53.875 11.3125 C54.40867187 12.29863281 54.94234375 13.28476562 55.4921875 14.30078125 C57.75261075 18.7529239 57.75261075 18.7529239 62 20.9375 C65 22 65 22 66.375 23.6875 C67.27650066 27.02305245 67.42292741 29.5561625 67 33 C64.5625 35.875 64.5625 35.875 62 38 C61.67 38.33 61.34 38.66 61 39 C58.8579034 39.15154969 56.70976538 39.22177745 54.5625 39.25 C53.38816406 39.27578125 52.21382813 39.3015625 51.00390625 39.328125 C50.01261719 39.21984375 49.02132812 39.1115625 48 39 C45.69397855 35.54096783 45.91641816 34.73074324 46.25 30.75 C46.35853252 26.42012373 46.02881146 24.32382519 43.0625 21.125 C42.51464844 20.59003906 41.96679688 20.05507813 41.40234375 19.50390625 C39.53516464 17.50149969 39.16337475 15.69568342 39 13 C38.34 13 37.68 13 37 13 C36.79375 13.66 36.5875 14.32 36.375 15 C35.08075888 17.82379881 33.811518 19.4309536 31.8125 21.75 C29.96076454 24.1047309 29.0181996 25.31865248 28.9375 28.33984375 C29.18369601 29.88113333 29.45764925 31.41829492 29.76171875 32.94921875 C30 35 30 35 28.625 38 C27 40 27 40 26 41 C21.09126309 41.43610679 16.36649743 41.51404398 12 39 C9.52758772 35.29138158 9.45080645 32.30060794 10 28 C11.31507269 25.17259371 12.85155183 23.17318953 14.875 20.8125 C17.30656376 17.59425385 19.01129579 14.3104223 20.75 10.6875 C21.06582031 10.04232422 21.38164062 9.39714844 21.70703125 8.73242188 C22.47691708 7.15765541 23.23924891 5.5791996 24 4 C22.28556781 2.28556781 19.99554759 2.76947033 17.65234375 2.68359375 C16.57275391 2.64169922 15.49316406 2.59980469 14.38085938 2.55664062 C12.67639648 2.49766602 12.67639648 2.49766602 10.9375 2.4375 C9.79732422 2.39431641 8.65714844 2.35113281 7.48242188 2.30664062 C4.65507805 2.20017161 1.82764262 2.09815793 -1 2 C-0.67 1.34 -0.34 0.68 0 0 Z " fill="#050505" transform="translate(315,244)"/>
<path d="M0 0 C0 0.33 0 0.66 0 1 C7.59 1.33 15.18 1.66 23 2 C23 2.33 23 2.66 23 3 C-0.65660521 4.29833361 -24.31696563 4.10107664 -48 4 C-47.67 3.01 -47.34 2.02 -47 1 C-31.32185453 0.16831508 -15.69927268 -0.13553629 0 0 Z " fill="#2E2E2E" transform="translate(315,244)"/>
<path d="M0 0 C0.33 0.99 0.66 1.98 1 3 C1.66 3 2.32 3 3 3 C3.21914063 3.95261719 3.43828125 4.90523437 3.6640625 5.88671875 C5.38891549 13.98459627 5.38891549 13.98459627 10.25 20.375 C11.1575 20.91125 12.065 21.4475 13 22 C13.144375 21.2575 13.28875 20.515 13.4375 19.75 C13.90187492 17.47972261 14.41863569 15.24240521 15 13 C17.31 13.33 19.62 13.66 22 14 C22 14.66 22 15.32 22 16 C21.38125 16.4125 20.7625 16.825 20.125 17.25 C17.36840385 19.52013801 17.04983163 21.64053879 16 25 C14.5 26.875 14.5 26.875 13 28 C12.34 28 11.68 28 11 28 C10.01 30.475 10.01 30.475 9 33 C8.67 33 8.34 33 8 33 C7.98582031 32.3709375 7.97164063 31.741875 7.95703125 31.09375 C7.63073728 25.23809599 6.53814961 21.66177502 3.2109375 16.86328125 C-0.21664757 11.58922294 -0.21195647 6.04075942 0 0 Z " fill="#131313" transform="translate(424,226)"/>
<path d="M0 0 C1.56814453 0.05027344 1.56814453 0.05027344 3.16796875 0.1015625 C5.8125 0.375 5.8125 0.375 7.8125 1.375 C7.8125 2.035 7.8125 2.695 7.8125 3.375 C6.82507813 3.41238281 5.83765625 3.44976562 4.8203125 3.48828125 C2.89832031 3.58689453 2.89832031 3.58689453 0.9375 3.6875 C-0.33867187 3.74550781 -1.61484375 3.80351562 -2.9296875 3.86328125 C-4.00476563 4.03214844 -5.07984375 4.20101562 -6.1875 4.375 C-8.39816083 7.69099124 -8.51025195 8.98774489 -8.5625 12.875 C-8.59085938 13.8340625 -8.61921875 14.793125 -8.6484375 15.78125 C-8.4090094 18.44237828 -8.4090094 18.44237828 -6.5859375 20.17578125 C-3.47583654 21.73083173 -0.90105287 21.88932236 2.5625 22.0625 C3.73296875 22.12824219 4.9034375 22.19398438 6.109375 22.26171875 C7.00140625 22.29910156 7.8934375 22.33648437 8.8125 22.375 C8.4825 23.365 8.1525 24.355 7.8125 25.375 C-5.49714467 25.60850254 -5.49714467 25.60850254 -9.35546875 22.79296875 C-11.88705254 19.45170997 -11.75411736 17.09191782 -11.75 12.9375 C-11.77191406 11.63941406 -11.79382813 10.34132812 -11.81640625 9.00390625 C-10.61488948 2.07093062 -6.78544894 -0.32030691 0 0 Z " fill="#0A0A0A" transform="translate(200.1875,193.625)"/>
<path d="M0 0 C0.33 0 0.66 0 1 0 C1.50588674 8.09418785 -0.88682972 14.6430856 -6 21 C-9.37910814 24.64092766 -12.09547378 26.90897485 -17.1875 27.15234375 C-20.16546891 26.90300909 -23.06154998 26.53871584 -26 26 C-25 24 -25 24 -22.25 22.8125 C-19 22 -19 22 -16.5 22.6875 C-13.74666541 23.30521575 -13.74666541 23.30521575 -10.9375 21 C-5.5370475 15.94573035 -3.49663324 10.00430842 -1.61328125 3.0390625 C-1 1 -1 1 0 0 Z " fill="#060606" transform="translate(603,256)"/>
<path d="M0 0 C0.66 0.66 1.32 1.32 2 2 C1.67 2.680625 1.34 3.36125 1 4.0625 C-0.18453566 6.99578446 -0.18453566 6.99578446 0.0625 10.25 C-0.02360065 15.41603921 -1.03554646 20.83957907 -4.60546875 24.765625 C-5.06566406 25.17296875 -5.52585937 25.5803125 -6 26 C-6.99 25.67 -7.98 25.34 -9 25 C-8.360625 24.13375 -7.72125 23.2675 -7.0625 22.375 C-4.99019986 18.98396341 -4.42247465 16.88676677 -4 13 C-3.79375 12.319375 -3.5875 11.63875 -3.375 10.9375 C-2.83067246 8.89287506 -2.83067246 8.89287506 -3.6875 6.5 C-3.790625 5.675 -3.89375 4.85 -4 4 C-2.0625 1.6875 -2.0625 1.6875 0 0 Z " fill="#000000" transform="translate(467,229)"/>
<path d="M0 0 C2.60427663 2.60427663 2.50528695 4.39566205 3 8 C3.32871094 9.1446875 3.32871094 9.1446875 3.6640625 10.3125 C4.10572171 13.84577369 3.19396203 15.92627731 1.8125 19.1875 C1.38582031 20.23292969 0.95914063 21.27835938 0.51953125 22.35546875 C-1.09002716 25.15667966 -2.00308155 25.95396637 -5 27 C-4.00734643 24.46170776 -2.98445893 21.96695587 -1.82421875 19.5 C-0.69196301 17.00981554 0.30720879 14.64839171 1 12 C-0.20968895 9.2332494 -0.20968895 9.2332494 -2 7 C-1.58333333 1.58333333 -1.58333333 1.58333333 0 0 Z " fill="#000000" transform="translate(584,231)"/>
<path d="M0 0 C2 2 2 2 2.01171875 4.3203125 C1.90472656 5.24585938 1.79773438 6.17140625 1.6875 7.125 C1.51927734 8.60226563 1.51927734 8.60226563 1.34765625 10.109375 C1.23292969 11.06328125 1.11820313 12.0171875 1 13 C0.93683594 13.76828125 0.87367188 14.5365625 0.80859375 15.328125 C0.42512106 19.6034375 -0.49052942 22.50856266 -3 26 C-3.99 25.34 -4.98 24.68 -6 24 C-5.34 23.34 -4.68 22.68 -4 22 C-3.27982196 19.71171706 -3.27982196 19.71171706 -2.8125 17.125 C-2.63332031 16.26132813 -2.45414063 15.39765625 -2.26953125 14.5078125 C-1.85548873 12.05460461 -1.85548873 12.05460461 -2.5390625 9.9453125 C-3.13919757 7.41253908 -2.55294951 6.12707883 -1.5625 3.75 C-1.27503906 3.04359375 -0.98757813 2.3371875 -0.69140625 1.609375 C-0.34916016 0.81273437 -0.34916016 0.81273437 0 0 Z " fill="#000000" transform="translate(544,231)"/>
<path d="M0 0 C1.875 0.1875 1.875 0.1875 4 1 C6.38879811 4.98133018 5.79447983 7.58622317 5 12 C5.2644354 14.34214207 5.58244638 16.68025766 6 19 C5.01 18.67 4.02 18.34 3 18 C0.62790698 11.22259136 0.62790698 11.22259136 1.875 7.125 C2.24625 6.42375 2.6175 5.7225 3 5 C3 4.34 3 3.68 3 3 C2.01 3 1.02 3 0 3 C0 2.01 0 1.02 0 0 Z " fill="#000000" transform="translate(563,253)"/>
<path d="M0 0 C11.385 0.99 11.385 0.99 23 2 C22.67 2.99 22.34 3.98 22 5 C15.07 4.34 8.14 3.68 1 3 C0.67 2.01 0.34 1.02 0 0 Z " fill="#080808" transform="translate(193,228)"/>
<path d="M0 0 C0.99 0.33 1.98 0.66 3 1 C4.00344253 7.30735307 4.50873071 13.63440427 5 20 C4.01 19.67 3.02 19.34 2 19 C-0.08254633 13.95301272 -0.10550722 9.28186783 1 4 C0.6422386 1.72349255 0.6422386 1.72349255 0 0 Z " fill="#000000" transform="translate(484,250)"/>
<path d="M0 0 C0.66 0.33 1.32 0.66 2 1 C1.814375 1.66 1.62875 2.32 1.4375 3 C1.03842212 5.73653403 1.13760553 7.4471767 1.5625 10.125 C2 14 2 14 0 17 C-0.99 16.67 -1.98 16.34 -3 16 C-2.67 15.34 -2.34 14.68 -2 14 C-1.86270799 10.91092972 -1.91919487 8.31587458 -2.6875 5.3125 C-2.790625 4.549375 -2.89375 3.78625 -3 3 C-1.5625 1.1875 -1.5625 1.1875 0 0 Z " fill="#000000" transform="translate(517,230)"/>
<path d="M0 0 C0.33 0 0.66 0 1 0 C1.33 5.94 1.66 11.88 2 18 C-0.49059397 13.01881207 -1.2136995 10.24901803 -0.5625 4.75 C-0.46066406 3.85796875 -0.35882812 2.9659375 -0.25390625 2.046875 C-0.17011719 1.37140625 -0.08632813 0.6959375 0 0 Z " fill="#242424" transform="translate(603,242)"/>
<path d="M0 0 C1.32 0 2.64 0 4 0 C4 1.32 4 2.64 4 4 C2.68 4.33 1.36 4.66 0 5 C0 3.35 0 1.7 0 0 Z " fill="#050505" transform="translate(226,191)"/>
</svg>
