<?xml version="1.0" encoding="UTF-8"?>
<svg version="1.1" xmlns="http://www.w3.org/2000/svg" width="800" height="300">
<path d="M0 0 C264 0 528 0 800 0 C800 99 800 198 800 300 C536 300 272 300 0 300 C0 201 0 102 0 0 Z " fill="#FEFEFE" transform="translate(0,0)"/>
<path d="M0 0 C1.25103516 -0.05994141 1.25103516 -0.05994141 2.52734375 -0.12109375 C6.30612063 0.7115181 7.72754572 2.40530243 10.0625 5.4375 C10.84765625 8.91796875 10.84765625 8.91796875 11.125 12.625 C11.32105241 16.26895028 11.32105241 16.26895028 12.0625 19.4375 C13.87955621 20.61987022 13.87955621 20.61987022 16.0625 21.4375 C23.65263177 30.10981853 27.70243971 39.20150331 30.44921875 50.25 C30.85838829 52.39671249 30.85838829 52.39671249 32.0625 53.4375 C32.62594744 56.28977019 33.14384945 59.13381608 33.625 62 C33.76357422 62.80630859 33.90214844 63.61261719 34.04492188 64.44335938 C34.38767763 66.44079811 34.72554388 68.43907472 35.0625 70.4375 C36.87459723 70.89742316 38.68720361 71.35534036 40.5 71.8125 C42.01400391 72.19535156 42.01400391 72.19535156 43.55859375 72.5859375 C44.71488281 72.86695313 45.87117188 73.14796875 47.0625 73.4375 C48.33303223 73.77942383 49.60356445 74.12134766 50.91259766 74.47363281 C57.22501227 75.86230254 63.52892165 75.71679192 69.96484375 75.7109375 C71.31837703 75.71821885 72.67190382 75.72680874 74.02542114 75.73661804 C76.87958107 75.75690785 79.73372219 75.77364839 82.58792114 75.78738403 C106.93885337 75.91559149 130.98437927 76.38931496 155.0625 80.4375 C155.19398438 79.15875 155.32546875 77.88 155.4609375 76.5625 C155.859375 72.6875 155.859375 72.6875 157.6875 70.4375 C161.02872604 69.03066798 163.47903883 68.98142312 167.0625 69.4375 C169.93971671 72.02699504 170.60266849 74.66688161 171.0625 78.4375 C171.000625 79.2625 170.93875 80.0875 170.875 80.9375 C171.13488774 84.40266991 172.7947033 85.89481885 175.0625 88.4375 C176.46185013 91.23620027 176.31515405 93.34248792 176.0625 96.4375 C174.79150391 98.10400391 174.79150391 98.10400391 173.0625 99.4375 C170.09889144 99.7391847 167.3965678 99.86329688 164.4375 99.8125 C163.62224854 99.80524902 162.80699707 99.79799805 161.96704102 99.79052734 C156.14707055 99.65657426 151.42977863 98.70147556 146.0625 96.4375 C137.37292722 93.4873364 128.10860188 94.26184754 119.0625 94.4375 C122.43167941 102.25783106 125.08451089 105.99174813 132.97265625 109.265625 C135.0625 110.4375 135.0625 110.4375 136.3125 113.9375 C135.89450827 119.78938418 133.94697771 123.0821765 130.0625 127.4375 C126.34254984 129.91746677 123.36823798 129.85502611 119.0625 129.4375 C116.44889757 128.61215186 115.46775278 127.96432862 113.8125 125.8125 C112.67502288 122.21048912 112.82234426 119.21995286 113.0625 115.4375 C114.0525 113.9525 114.0525 113.9525 115.0625 112.4375 C112.4225 110.1275 109.7825 107.8175 107.0625 105.4375 C106.0725 106.7575 105.0825 108.0775 104.0625 109.4375 C103.4025 109.4375 102.7425 109.4375 102.0625 109.4375 C101.69125 110.30375 101.69125 110.30375 101.3125 111.1875 C100.0625 113.4375 100.0625 113.4375 97.9375 115.125 C95.73171043 117.84547381 95.89521874 118.50707073 96.0625 121.875 C96.17399402 125.09239872 96.05827869 126.44734972 94.75 129.5 C90.52669941 132.54470508 86.10184939 132.11656127 81.0625 131.4375 C76.66419293 129.98624962 74.42586479 128.52793907 72.0625 124.4375 C72.0625 120.40602439 72.67755339 118.07907768 74.75 114.625 C77.0625 112.4375 77.0625 112.4375 79.83984375 111.77734375 C84.39892242 109.88187225 86.22186277 106.81216135 88.9375 102.8125 C89.43507813 102.10609375 89.93265625 101.3996875 90.4453125 100.671875 C91.66469601 98.93659847 92.86549091 97.18828554 94.0625 95.4375 C92.47926312 95.410307 90.89588938 95.39101694 89.3125 95.375 C88.43078125 95.36339844 87.5490625 95.35179687 86.640625 95.33984375 C84.16948381 95.33296518 84.16948381 95.33296518 82.2875824 95.93551636 C79.44398608 96.57703815 76.79894119 96.56478607 73.88305664 96.56689453 C72.00312767 96.57162277 72.00312767 96.57162277 70.08522034 96.57644653 C68.71436529 96.57465326 67.34351056 96.57260145 65.97265625 96.5703125 C64.54894494 96.57098754 63.12523375 96.57195923 61.70152283 96.57321167 C58.70635896 96.57468734 55.71122486 96.57254369 52.71606445 96.56787109 C48.9420051 96.56226075 45.16801763 96.56548407 41.39396095 96.57132339 C25.25849891 96.59236623 9.17313801 96.4543313 -6.9375 95.4375 C-3.52835309 104.63547147 -0.83190531 109.81788882 8.13671875 114.32421875 C10.0625 115.4375 10.0625 115.4375 11.0625 117.4375 C11.74248475 122.29453392 11.06999233 124.93152045 8.25 128.8125 C6.13791308 131.51388525 5.39702729 132.3259909 2.0625 133.4375 C-3.36541411 133.90915635 -8.2477821 134.28235895 -13.1875 131.8125 C-14.9375 129.4375 -14.9375 129.4375 -15.4375 126.5 C-14.89225167 123.16035401 -13.66906725 121.29835024 -11.9375 118.4375 C-12.0647276 114.4934443 -14.56686498 111.44884719 -16.9375 108.4375 C-19.87199408 106.42708997 -19.87199408 106.42708997 -22.9375 105.4375 C-28.38416071 107.25305357 -31.36952591 112.49083738 -33.9375 117.4375 C-34.05915775 120.26309926 -33.68498646 122.57928551 -33.125 125.33984375 C-33.063125 126.03207031 -33.00125 126.72429687 -32.9375 127.4375 C-35.125 129.9375 -35.125 129.9375 -37.9375 131.4375 C-38.56398437 131.79328125 -39.19046875 132.1490625 -39.8359375 132.515625 C-44.21457251 134.43636452 -49.19742715 133.86285114 -53.75 132.75 C-56.75245249 130.94852851 -58.17959361 129.49755926 -59.9375 126.4375 C-60.55129035 123.30603258 -60.59453112 120.56406188 -59.9375 117.4375 C-57.75 114.4375 -57.75 114.4375 -54.9375 112.4375 C-54.15117187 112.35113281 -53.36484375 112.26476562 -52.5546875 112.17578125 C-48.71294049 111.09206456 -47.53161798 108.82856208 -45.25 105.625 C-44.09951172 104.03751953 -44.09951172 104.03751953 -42.92578125 102.41796875 C-41.39152595 100.11809293 -40.07381823 97.94712262 -38.9375 95.4375 C-39.91589844 95.44910156 -40.89429688 95.46070313 -41.90234375 95.47265625 C-45.91573883 95.5002804 -49.92423811 95.47372804 -53.9375 95.4375 C-54.79988281 95.45683594 -55.66226563 95.47617188 -56.55078125 95.49609375 C-63.71532815 95.29962537 -68.78776024 91.11525052 -73.9375 86.4375 C-80.87161288 78.47882162 -81.61530276 66.45929792 -80.9375 56.4375 C-79.23657162 34.23093501 -79.23657162 34.23093501 -71.890625 27.5859375 C-66.87975739 24.49302266 -62.73645093 23.91032264 -56.9375 24.4375 C-57.2675 23.6125 -57.5975 22.7875 -57.9375 21.9375 C-59.47718135 16.54861529 -59.70523401 12.37511442 -57.625 7.125 C-55.12468001 3.14300891 -55.12468001 3.14300891 -52.9375 1.4375 C-50.34375 1.0390625 -50.34375 1.0390625 -47.4375 1.0625 C-46.4784375 1.05476562 -45.519375 1.04703125 -44.53125 1.0390625 C-41.53260764 1.49969732 -40.72301712 2.03838411 -38.9375 4.4375 C-35.9375 10.65972222 -35.9375 10.65972222 -35.9375 14.4375 C-34.97263672 14.32921875 -34.97263672 14.32921875 -33.98828125 14.21875 C-26.61782493 13.46172738 -19.34284071 13.33154123 -11.9375 13.4375 C-11.751875 11.82875 -11.751875 11.82875 -11.5625 10.1875 C-10.68462644 4.92025862 -10.68462644 4.92025862 -8.9375 2.4375 C-5.93492624 0.60407 -3.500116 0.09168255 0 0 Z " fill="#FCFCFC" transform="translate(243.9375,153.5625)"/>
<path d="M0 0 C2.6875 -0.3125 2.6875 -0.3125 6 0 C6.65484375 0.82371094 7.3096875 1.64742187 7.984375 2.49609375 C12.5652212 6.2996202 16.79729447 5.57827168 22.5625 5.375 C23.56474609 5.36082031 24.56699219 5.34664062 25.59960938 5.33203125 C30.47519469 5.2414631 35.34076995 5.04623593 40.20825195 4.75537109 C54.45235002 3.91878154 68.67682983 3.84573931 82.94213867 3.86962891 C85.67653585 3.87416195 88.4108666 3.87421517 91.14526367 3.86962891 C100.43094505 3.85414611 109.7147567 3.89399703 119 4 C120.89718781 4.01987976 120.89718781 4.01987976 122.83270264 4.04016113 C126.4714204 4.08922994 130.10817747 4.16795371 133.74609375 4.2578125 C135.34216209 4.27822098 135.34216209 4.27822098 136.97047424 4.29904175 C147.76141846 4.63593906 157.23194941 7.126133 165.1015625 14.796875 C168.08119031 18.25471468 170.07594107 21.88307979 172 26 C172.5878125 27.06347656 172.5878125 27.06347656 173.1875 28.1484375 C176.97476175 35.43365628 176.77162077 42.60176161 175.375 50.5625 C169.6875 64.78125 169.6875 64.78125 163.4375 67.625 C157.70072769 69.69064707 152.18507829 70.14951793 146.12109375 70.1328125 C145.35992249 70.13413177 144.59875122 70.13545105 143.81451416 70.1368103 C141.35546728 70.1387179 138.89653518 70.13241583 136.4375 70.125 C135.60618561 70.12411377 134.77487122 70.12322754 133.91836548 70.12231445 C121.58858811 70.10680173 109.30284848 69.87542505 97 69 C97 68.34 97 67.68 97 67 C96.29617188 67.16242188 95.59234375 67.32484375 94.8671875 67.4921875 C87.40965184 68.81300444 79.59253259 68.08414043 72.08203125 67.5078125 C66.67319889 67.13155169 61.29977248 66.9117425 55.87890625 66.859375 C21.79509958 66.48121764 21.79509958 66.48121764 10.8125 58.25 C9.32421875 56.69140625 9.32421875 56.69140625 8 55 C7.51144531 54.41089844 7.02289063 53.82179688 6.51953125 53.21484375 C2.55488966 47.4511211 2.40935902 41.64162749 2.45166016 34.85229492 C2.47029608 32.43228376 2.47029608 32.43228376 2 29 C0.13377036 27.1371129 0.13377036 27.1371129 -2 26 C-3.20745835 22.37762495 -3.22246029 19.0229405 -3.25 15.25 C-3.270625 14.5590625 -3.29125 13.868125 -3.3125 13.15625 C-3.35088173 8.05147958 -2.27330153 4.57053254 0 0 Z " fill="#656565" transform="translate(428,216)"/>
<path d="M0 0 C1.25103516 -0.05994141 1.25103516 -0.05994141 2.52734375 -0.12109375 C6.30612063 0.7115181 7.72754572 2.40530243 10.0625 5.4375 C10.84765625 8.91796875 10.84765625 8.91796875 11.125 12.625 C11.32105241 16.26895028 11.32105241 16.26895028 12.0625 19.4375 C13.87955621 20.61987022 13.87955621 20.61987022 16.0625 21.4375 C23.65263177 30.10981853 27.70243971 39.20150331 30.44921875 50.25 C30.85838829 52.39671249 30.85838829 52.39671249 32.0625 53.4375 C32.62594744 56.28977019 33.14384945 59.13381608 33.625 62 C33.76357422 62.80630859 33.90214844 63.61261719 34.04492188 64.44335938 C34.38767763 66.44079811 34.72554388 68.43907472 35.0625 70.4375 C36.87459723 70.89742316 38.68720361 71.35534036 40.5 71.8125 C42.01400391 72.19535156 42.01400391 72.19535156 43.55859375 72.5859375 C44.71488281 72.86695313 45.87117188 73.14796875 47.0625 73.4375 C48.33303223 73.77942383 49.60356445 74.12134766 50.91259766 74.47363281 C57.22501227 75.86230254 63.52892165 75.71679192 69.96484375 75.7109375 C71.31837703 75.71821885 72.67190382 75.72680874 74.02542114 75.73661804 C76.87958107 75.75690785 79.73372219 75.77364839 82.58792114 75.78738403 C106.93885337 75.91559149 130.98437927 76.38931496 155.0625 80.4375 C155.19398438 79.15875 155.32546875 77.88 155.4609375 76.5625 C155.859375 72.6875 155.859375 72.6875 157.6875 70.4375 C161.02872604 69.03066798 163.47903883 68.98142312 167.0625 69.4375 C169.93971671 72.02699504 170.60266849 74.66688161 171.0625 78.4375 C171.000625 79.2625 170.93875 80.0875 170.875 80.9375 C171.13488774 84.40266991 172.7947033 85.89481885 175.0625 88.4375 C176.46185013 91.23620027 176.31515405 93.34248792 176.0625 96.4375 C174.79150391 98.10400391 174.79150391 98.10400391 173.0625 99.4375 C170.09889144 99.7391847 167.3965678 99.86329688 164.4375 99.8125 C163.62224854 99.80524902 162.80699707 99.79799805 161.96704102 99.79052734 C156.14707055 99.65657426 151.42977863 98.70147556 146.0625 96.4375 C137.37292722 93.4873364 128.10860188 94.26184754 119.0625 94.4375 C122.43167941 102.25783106 125.08451089 105.99174813 132.97265625 109.265625 C135.0625 110.4375 135.0625 110.4375 136.3125 113.9375 C135.89450827 119.78938418 133.94697771 123.0821765 130.0625 127.4375 C126.34254984 129.91746677 123.36823798 129.85502611 119.0625 129.4375 C116.44889757 128.61215186 115.46775278 127.96432862 113.8125 125.8125 C112.67502288 122.21048912 112.82234426 119.21995286 113.0625 115.4375 C114.0525 113.9525 114.0525 113.9525 115.0625 112.4375 C112.4225 110.1275 109.7825 107.8175 107.0625 105.4375 C106.0725 106.7575 105.0825 108.0775 104.0625 109.4375 C103.4025 109.4375 102.7425 109.4375 102.0625 109.4375 C101.69125 110.30375 101.69125 110.30375 101.3125 111.1875 C100.0625 113.4375 100.0625 113.4375 97.9375 115.125 C95.73171043 117.84547381 95.89521874 118.50707073 96.0625 121.875 C96.17399402 125.09239872 96.05827869 126.44734972 94.75 129.5 C90.52669941 132.54470508 86.10184939 132.11656127 81.0625 131.4375 C76.66419293 129.98624962 74.42586479 128.52793907 72.0625 124.4375 C72.0625 120.40602439 72.67755339 118.07907768 74.75 114.625 C77.0625 112.4375 77.0625 112.4375 79.83984375 111.77734375 C84.39892242 109.88187225 86.22186277 106.81216135 88.9375 102.8125 C89.43507813 102.10609375 89.93265625 101.3996875 90.4453125 100.671875 C91.66469601 98.93659847 92.86549091 97.18828554 94.0625 95.4375 C92.47926312 95.410307 90.89588938 95.39101694 89.3125 95.375 C88.43078125 95.36339844 87.5490625 95.35179687 86.640625 95.33984375 C84.16948381 95.33296518 84.16948381 95.33296518 82.2875824 95.93551636 C79.44398608 96.57703815 76.79894119 96.56478607 73.88305664 96.56689453 C72.00312767 96.57162277 72.00312767 96.57162277 70.08522034 96.57644653 C68.71436529 96.57465326 67.34351056 96.57260145 65.97265625 96.5703125 C64.54894494 96.57098754 63.12523375 96.57195923 61.70152283 96.57321167 C58.70635896 96.57468734 55.71122486 96.57254369 52.71606445 96.56787109 C48.9420051 96.56226075 45.16801763 96.56548407 41.39396095 96.57132339 C25.25849891 96.59236623 9.17313801 96.4543313 -6.9375 95.4375 C-3.52835309 104.63547147 -0.83190531 109.81788882 8.13671875 114.32421875 C10.0625 115.4375 10.0625 115.4375 11.0625 117.4375 C11.74248475 122.29453392 11.06999233 124.93152045 8.25 128.8125 C6.13791308 131.51388525 5.39702729 132.3259909 2.0625 133.4375 C-3.36541411 133.90915635 -8.2477821 134.28235895 -13.1875 131.8125 C-14.9375 129.4375 -14.9375 129.4375 -15.4375 126.5 C-14.89225167 123.16035401 -13.66906725 121.29835024 -11.9375 118.4375 C-12.0647276 114.4934443 -14.56686498 111.44884719 -16.9375 108.4375 C-19.87199408 106.42708997 -19.87199408 106.42708997 -22.9375 105.4375 C-28.38416071 107.25305357 -31.36952591 112.49083738 -33.9375 117.4375 C-34.05915775 120.26309926 -33.68498646 122.57928551 -33.125 125.33984375 C-33.063125 126.03207031 -33.00125 126.72429687 -32.9375 127.4375 C-35.125 129.9375 -35.125 129.9375 -37.9375 131.4375 C-38.56398437 131.79328125 -39.19046875 132.1490625 -39.8359375 132.515625 C-44.21457251 134.43636452 -49.19742715 133.86285114 -53.75 132.75 C-56.75245249 130.94852851 -58.17959361 129.49755926 -59.9375 126.4375 C-60.55129035 123.30603258 -60.59453112 120.56406188 -59.9375 117.4375 C-57.75 114.4375 -57.75 114.4375 -54.9375 112.4375 C-54.15117187 112.35113281 -53.36484375 112.26476562 -52.5546875 112.17578125 C-48.71294049 111.09206456 -47.53161798 108.82856208 -45.25 105.625 C-44.09951172 104.03751953 -44.09951172 104.03751953 -42.92578125 102.41796875 C-41.39152595 100.11809293 -40.07381823 97.94712262 -38.9375 95.4375 C-39.91589844 95.44910156 -40.89429688 95.46070313 -41.90234375 95.47265625 C-45.91573883 95.5002804 -49.92423811 95.47372804 -53.9375 95.4375 C-54.79988281 95.45683594 -55.66226563 95.47617188 -56.55078125 95.49609375 C-63.71532815 95.29962537 -68.78776024 91.11525052 -73.9375 86.4375 C-80.87161288 78.47882162 -81.61530276 66.45929792 -80.9375 56.4375 C-79.23657162 34.23093501 -79.23657162 34.23093501 -71.890625 27.5859375 C-66.87975739 24.49302266 -62.73645093 23.91032264 -56.9375 24.4375 C-57.2675 23.6125 -57.5975 22.7875 -57.9375 21.9375 C-59.47718135 16.54861529 -59.70523401 12.37511442 -57.625 7.125 C-55.12468001 3.14300891 -55.12468001 3.14300891 -52.9375 1.4375 C-50.34375 1.0390625 -50.34375 1.0390625 -47.4375 1.0625 C-46.4784375 1.05476562 -45.519375 1.04703125 -44.53125 1.0390625 C-41.53260764 1.49969732 -40.72301712 2.03838411 -38.9375 4.4375 C-35.9375 10.65972222 -35.9375 10.65972222 -35.9375 14.4375 C-34.97263672 14.32921875 -34.97263672 14.32921875 -33.98828125 14.21875 C-26.61782493 13.46172738 -19.34284071 13.33154123 -11.9375 13.4375 C-11.751875 11.82875 -11.751875 11.82875 -11.5625 10.1875 C-10.68462644 4.92025862 -10.68462644 4.92025862 -8.9375 2.4375 C-5.93492624 0.60407 -3.500116 0.09168255 0 0 Z M-6.9375 5.4375 C-8.99028746 9.13251742 -9.13167201 12.26280183 -8.9375 16.4375 C-9.51113281 16.42589844 -10.08476562 16.41429687 -10.67578125 16.40234375 C-20.11698895 16.30205778 -29.51646524 16.8907871 -38.9375 17.4375 C-39.13666016 15.81134766 -39.13666016 15.81134766 -39.33984375 14.15234375 C-39.94825843 10.370629 -41.0756021 7.75653539 -42.9375 4.4375 C-46.01125142 4.08283638 -48.87413172 3.94187759 -51.9375 4.4375 C-55.22928151 7.64899415 -55.86430394 9.69334001 -56.3125 14.25 C-56.08605426 18.75278648 -55.06591975 23.08502384 -53.9375 27.4375 C-55.02417969 27.36789063 -55.02417969 27.36789063 -56.1328125 27.296875 C-62.26605863 27.06790048 -66.20981273 27.06438928 -70.9375 31.4375 C-76.46066401 38.59715705 -77.53359598 47.68228634 -77.9375 56.4375 C-78.00195312 57.39785156 -78.06640625 58.35820312 -78.1328125 59.34765625 C-78.48061389 68.14703147 -77.13049426 77.84629863 -71.5625 85 C-65.48557672 90.64285733 -60.76959454 92.42098151 -52.63671875 92.75390625 C-51.66025391 92.79580078 -50.68378906 92.83769531 -49.67773438 92.88085938 C-48.67033203 92.92017578 -47.66292969 92.95949219 -46.625 93 C-45.08489258 93.06477539 -45.08489258 93.06477539 -43.51367188 93.13085938 C-40.98840431 93.23656825 -38.46304438 93.33866468 -35.9375 93.4375 C-37.48212122 98.69391877 -38.90185862 103.05194531 -42.5625 107.25 C-44.91498476 109.97471336 -46.34129373 111.85220556 -46.9375 115.4375 C-48.030625 115.39625 -49.12375 115.355 -50.25 115.3125 C-54.02642229 115.11675334 -54.02642229 115.11675334 -56.9375 117.4375 C-57.56466621 122.21964235 -57.63004884 124.32942186 -55.0625 128.4375 C-50.65461295 131.25854771 -47.03469471 131.31548569 -41.9375 130.4375 C-38.28910743 128.98174611 -38.28910743 128.98174611 -35.9375 126.4375 C-35.34256321 123.46281605 -35.58022613 122.07265355 -37.0625 119.4375 C-37.9375 117.4375 -37.9375 117.4375 -37.3125 114.8125 C-35.9375 112.4375 -35.9375 112.4375 -34.07421875 111.60546875 C-31.22041426 110.04552809 -30.12387673 108.09417075 -28.375 105.375 C-25.26454019 100.5465134 -25.26454019 100.5465134 -21.9375 99.4375 C-21.710625 100.035625 -21.48375 100.63375 -21.25 101.25 C-20.07013355 103.61667735 -20.07013355 103.61667735 -17.5625 104.8125 C-14.3138571 106.82356465 -12.98433525 109.26137633 -10.9375 112.4375 C-10.2775 112.4375 -9.6175 112.4375 -8.9375 112.4375 C-8.628125 113.22125 -8.31875 114.005 -8 114.8125 C-7.00874962 117.36080128 -7.00874962 117.36080128 -5.9375 119.4375 C-7.1440625 119.746875 -7.1440625 119.746875 -8.375 120.0625 C-11.23701799 121.22320429 -11.23701799 121.22320429 -11.9375 124.375 C-12.16576527 127.33035508 -12.16576527 127.33035508 -11 129.3125 C-7.16369399 131.40503055 -3.01244026 131.03091677 1.0703125 129.86328125 C4.51493108 128.50128771 5.97500725 127.56873913 8.0625 124.4375 C8.5625 121.4375 8.5625 121.4375 8.0625 118.4375 C5.22996984 115.27813943 2.16553158 114.90375359 -1.9375 114.4375 C-1.999375 113.7775 -2.06125 113.1175 -2.125 112.4375 C-3.08417928 108.89591496 -4.73840003 106.41447856 -6.7265625 103.36328125 C-8.82945143 100.01900949 -9.9375 97.38757499 -9.9375 93.4375 C-8.82773804 93.43972061 -7.71797607 93.44194122 -6.57458496 93.44422913 C3.90081667 93.46453002 14.3762143 93.4795056 24.85163116 93.48931217 C30.23670778 93.49452335 35.62176848 93.50158891 41.00683594 93.51293945 C46.20692602 93.5238311 51.40700082 93.52979013 56.60710144 93.53237724 C58.58774557 93.53422019 60.56838889 93.53781896 62.54902649 93.54323006 C65.33022854 93.55052383 68.111368 93.55148743 70.89257812 93.55102539 C72.11178452 93.5564183 72.11178452 93.5564183 73.35562134 93.56192017 C78.3479037 93.5529875 83.11683871 93.11810075 88.0625 92.4375 C90.06167047 92.3762509 92.06254774 92.3500006 94.0625 92.375 C95.485625 92.38853516 95.485625 92.38853516 96.9375 92.40234375 C97.63875 92.41394531 98.34 92.42554688 99.0625 92.4375 C97.77060976 95.16815432 96.3456119 97.55583573 94.53125 99.96875 C94.05042969 100.61457031 93.56960938 101.26039063 93.07421875 101.92578125 C92.06640625 103.26692708 91.05859375 104.60807292 90.05078125 105.94921875 C89.56996094 106.59503906 89.08914063 107.24085938 88.59375 107.90625 C88.15611328 108.48826172 87.71847656 109.07027344 87.26757812 109.66992188 C85.98016064 111.43669846 85.98016064 111.43669846 85.12695312 113.61914062 C84.77568359 114.21919922 84.42441406 114.81925781 84.0625 115.4375 C81.74093403 115.84479228 79.4056213 116.18188677 77.0625 116.4375 C75.5841774 119.39414519 76.00217217 122.17979737 76.0625 125.4375 C76.7225 125.4375 77.3825 125.4375 78.0625 125.4375 C78.0625 126.0975 78.0625 126.7575 78.0625 127.4375 C81.49321316 129.15285658 85.30308819 128.8381478 89.0625 128.4375 C91.5814267 127.11986671 91.5814267 127.11986671 93.0625 125.4375 C92.60423828 123.69726562 92.60423828 123.69726562 92.13671875 121.921875 C91.79071072 119.14156266 91.80769453 117.86338766 93.26025391 115.43554688 C95.04857173 113.41204596 96.91222654 111.54217869 98.875 109.6875 C100.17689633 108.40480568 101.47521461 107.11846728 102.76953125 105.828125 C103.3519458 105.27157227 103.93436035 104.71501953 104.53442383 104.14160156 C106.14274784 102.34800808 107.08839905 100.63064951 108.0625 98.4375 C108.7225 98.7675 109.3825 99.0975 110.0625 99.4375 C110.19527344 100.19417969 110.32804688 100.95085937 110.46484375 101.73046875 C111.18039558 104.97149762 112.38024952 106.34199494 114.625 108.75 C115.26566406 109.44738281 115.90632812 110.14476562 116.56640625 110.86328125 C117.06011719 111.38277344 117.55382812 111.90226562 118.0625 112.4375 C117.72734375 113.00082031 117.3921875 113.56414062 117.046875 114.14453125 C115.90944281 116.79402607 115.95611781 118.28801019 116.3125 121.125 C116.40015625 121.91261719 116.4878125 122.70023437 116.578125 123.51171875 C116.81789063 124.46498047 116.81789063 124.46498047 117.0625 125.4375 C120.29604139 127.0542707 122.49010535 126.91381929 126.0625 126.4375 C129.69772723 123.64241417 131.70970685 120.51663199 133.125 116.1875 C133.29267351 113.48825147 133.29267351 113.48825147 132 111.6875 C129.50064918 110.0750156 126.88040606 109.35638241 124.0625 108.4375 C123.7325 107.7775 123.4025 107.1175 123.0625 106.4375 C122.4025 106.4375 121.7425 106.4375 121.0625 106.4375 C120.6603125 105.385625 120.6603125 105.385625 120.25 104.3125 C118.9943551 101.2725176 117.56014877 98.3647226 116.0625 95.4375 C114.7425 95.4375 113.4225 95.4375 112.0625 95.4375 C113.078125 93.4609375 113.078125 93.4609375 115.0625 91.4375 C117.80007211 91.07535481 120.08547119 90.96487944 122.8125 91.0625 C123.5645874 91.07756592 124.3166748 91.09263184 125.09155273 91.1081543 C143.63765655 91.64727391 143.63765655 91.64727391 150.9375 95.0625 C157.55850698 97.57692437 165.08910354 96.83818134 172.0625 96.4375 C173.31128498 95.39771815 173.31128498 95.39771815 173.3125 93.125 C173.01634058 89.94128623 172.26205664 88.71852171 170.0625 86.4375 C169.0725 86.1075 168.0825 85.7775 167.0625 85.4375 C167.20558594 84.53257812 167.20558594 84.53257812 167.3515625 83.609375 C167.46242188 82.81015625 167.57328125 82.0109375 167.6875 81.1875 C167.80351562 80.39859375 167.91953125 79.6096875 168.0390625 78.796875 C168.06569395 76.11597541 167.42842084 74.71055911 166.0625 72.4375 C161.72065798 72.62214366 161.72065798 72.62214366 158.0625 74.4375 C157.99101801 75.78993917 157.97850546 77.14584367 158 78.5 C158.0309375 80.4490625 158.0309375 80.4490625 158.0625 82.4375 C157.38202103 82.3495668 156.70154205 82.26163361 156.0004425 82.17103577 C140.82485595 80.26911676 125.83141045 79.14905997 110.54296875 78.99609375 C109.75657139 78.98818439 108.97017403 78.98027504 108.15994644 78.97212601 C103.33917761 78.92824571 98.51843604 78.90294417 93.69750977 78.88452148 C87.165398 78.85910978 80.63349856 78.81966129 74.1015873 78.76262093 C71.85267908 78.74652121 69.6039844 78.74254207 67.35502625 78.73960876 C60.62982104 78.70436784 54.50139757 78.49590909 48.0625 76.4375 C46.50166874 76.09643824 44.93948559 75.76138611 43.375 75.4375 C34.80191323 73.4897419 34.80191323 73.4897419 32.4375 70.125 C30.83059023 65.81556015 29.86082694 61.51538961 28.87890625 57.02734375 C28.03566602 53.31950753 27.08199001 49.66318655 26.0625 46 C25.5984375 44.33130859 25.5984375 44.33130859 25.125 42.62890625 C23.37637186 37.37659304 20.85393795 32.89541255 17.6875 28.375 C17.07777344 27.50359375 16.46804688 26.6321875 15.83984375 25.734375 C14.06499939 23.26497241 14.06499939 23.26497241 11.25 21.125 C8.07029011 17.21849927 8.07463236 13.22668144 7.6171875 8.30078125 C7.43414062 7.35589844 7.25109375 6.41101563 7.0625 5.4375 C2.74705002 2.56053335 -2.65225679 2.10453306 -6.9375 5.4375 Z " fill="#1C1C1C" transform="translate(243.9375,153.5625)"/>
<path d="M0 0 C2.6875 -0.3125 2.6875 -0.3125 6 0 C6.65484375 0.82371094 7.3096875 1.64742187 7.984375 2.49609375 C12.5652212 6.2996202 16.79729447 5.57827168 22.5625 5.375 C23.56474609 5.36082031 24.56699219 5.34664062 25.59960938 5.33203125 C30.47519469 5.2414631 35.34076995 5.04623593 40.20825195 4.75537109 C54.45235002 3.91878154 68.67682983 3.84573931 82.94213867 3.86962891 C85.67653585 3.87416195 88.4108666 3.87421517 91.14526367 3.86962891 C100.43094505 3.85414611 109.7147567 3.89399703 119 4 C120.89718781 4.01987976 120.89718781 4.01987976 122.83270264 4.04016113 C126.4714204 4.08922994 130.10817747 4.16795371 133.74609375 4.2578125 C135.34216209 4.27822098 135.34216209 4.27822098 136.97047424 4.29904175 C147.76141846 4.63593906 157.23194941 7.126133 165.1015625 14.796875 C168.08119031 18.25471468 170.07594107 21.88307979 172 26 C172.5878125 27.06347656 172.5878125 27.06347656 173.1875 28.1484375 C176.97476175 35.43365628 176.77162077 42.60176161 175.375 50.5625 C169.6875 64.78125 169.6875 64.78125 163.4375 67.625 C157.70072769 69.69064707 152.18507829 70.14951793 146.12109375 70.1328125 C145.35992249 70.13413177 144.59875122 70.13545105 143.81451416 70.1368103 C141.35546728 70.1387179 138.89653518 70.13241583 136.4375 70.125 C135.60618561 70.12411377 134.77487122 70.12322754 133.91836548 70.12231445 C121.58858811 70.10680173 109.30284848 69.87542505 97 69 C97 68.34 97 67.68 97 67 C96.29617188 67.16242188 95.59234375 67.32484375 94.8671875 67.4921875 C87.40965184 68.81300444 79.59253259 68.08414043 72.08203125 67.5078125 C66.67319889 67.13155169 61.29977248 66.9117425 55.87890625 66.859375 C21.79509958 66.48121764 21.79509958 66.48121764 10.8125 58.25 C9.32421875 56.69140625 9.32421875 56.69140625 8 55 C7.51144531 54.41089844 7.02289063 53.82179688 6.51953125 53.21484375 C2.55488966 47.4511211 2.40935902 41.64162749 2.45166016 34.85229492 C2.47029608 32.43228376 2.47029608 32.43228376 2 29 C0.13377036 27.1371129 0.13377036 27.1371129 -2 26 C-3.20745835 22.37762495 -3.22246029 19.0229405 -3.25 15.25 C-3.270625 14.5590625 -3.29125 13.868125 -3.3125 13.15625 C-3.35088173 8.05147958 -2.27330153 4.57053254 0 0 Z M3 3 C-0.71059486 9.13054803 -1.71075839 15.44620807 -0.3125 22.4375 C0.78058442 25.09159104 0.78058442 25.09159104 3 26.3125 C6.24734023 29.05244332 6.35310018 32.93985245 7 37 C9.64573501 34.77122275 9.64573501 34.77122275 12 32 C11.95502158 29.72476911 11.95502158 29.72476911 11 28 C12.32 27.34 13.64 26.68 15 26 C14.67 24.35 14.34 22.7 14 21 C14.99 21.99 15.98 22.98 17 24 C15.39680795 28.66383143 13.08350522 33.14135949 10 37 C9.30648438 37.30550781 8.61296875 37.61101562 7.8984375 37.92578125 C5.77741393 38.86585583 5.77741393 38.86585583 5.07421875 41.29296875 C4.97884902 44.77145414 5.96425246 46.39079722 7.8125 49.3125 C8.35519531 50.19550781 8.89789063 51.07851563 9.45703125 51.98828125 C9.96621094 52.65214844 10.47539062 53.31601562 11 54 C11.66 54 12.32 54 13 54 C13.33 54.99 13.66 55.98 14 57 C16.36401089 58.26080581 18.47896761 59.14504119 21 60 C21.81339844 60.28230469 22.62679688 60.56460938 23.46484375 60.85546875 C33.75725957 63.93020167 46.48210319 64.63478627 57 62 C57.53394179 60.5882217 58.05165104 59.17029756 58.5625 57.75 C58.85253906 56.96109375 59.14257812 56.1721875 59.44140625 55.359375 C60.0610168 52.74227867 59.94248701 51.4926979 59 49 C58.34 48.01 57.68 47.02 57 46 C57.53625 45.443125 58.0725 44.88625 58.625 44.3125 C59.07875 43.549375 59.5325 42.78625 60 42 C59.26145768 39.36186139 59.26145768 39.36186139 58 37 C58 36.34 58 35.68 58 35 C58.99 35.33 59.98 35.66 61 36 C61.94002987 40.38680608 61.74651537 43.61422219 61 48 C61.185625 48.804375 61.37125 49.60875 61.5625 50.4375 C62.16494838 53.96612624 61.00559799 56.60610677 60 60 C60.33 60.99 60.66 61.98 61 63 C62.06927734 63.09087891 62.06927734 63.09087891 63.16015625 63.18359375 C71.41188054 63.9054808 71.41188054 63.9054808 75.5 64.5625 C82.43977973 65.42997247 89.12334905 65.23427068 96 64 C96.66 64.33 97.32 64.66 98 65 C100.56845219 65.03037021 103.120762 64.93311185 105.6875 64.83984375 C108 65 108 65 110 67 C112.52377655 67.27808217 112.52377655 67.27808217 115.4453125 67.1953125 C116.52167969 67.18886719 117.59804688 67.18242187 118.70703125 67.17578125 C119.83496094 67.15902344 120.96289062 67.14226562 122.125 67.125 C123.26066406 67.11597656 124.39632812 67.10695313 125.56640625 67.09765625 C128.37781299 67.07403098 131.18880298 67.04109013 134 67 C134 66.34 134 65.68 134 65 C134.99 64.67 135.98 64.34 137 64 C138.56028793 61.15102982 139.46843274 58.20059445 140 55 C139.01919106 52.38017854 139.01919106 52.38017854 137 51 C136.34 51 135.68 51 135 51 C135.66 50.236875 136.32 49.47375 137 48.6875 C139.29850538 46.15722061 139.29850538 46.15722061 139 43 C137.56249809 41.31201173 137.56249809 41.31201173 136 40 C137.32 40.33 138.64 40.66 140 41 C140.90594807 43.61718331 140.98235878 45.10143704 140.5 47.875 C139.82038781 50.94518924 139.82038781 50.94518924 140.5625 53.75 C141.18730226 58.39138818 140.07980006 62.48447249 139 67 C149.65771916 67.35857747 158.40464935 67.06190317 166.59375 59.53515625 C171.66979043 54.24761413 174.03554301 48.43102855 173.9765625 41.078125 C172.70835554 30.19972752 166.40917284 21.74595342 159 14 C158.01 13.67 157.02 13.34 156 13 C154.39819908 16.38766195 154.39819908 16.38766195 154.125 20.0625 C154.8950733 22.17907441 154.8950733 22.17907441 157.0625 23.5625 C160.20275922 27.5131487 159.47149501 32.13046134 159 37 C158.67 37.66 158.34 38.32 158 39 C157.01 39.33 156.02 39.66 155 40 C155.165 38.9275 155.33 37.855 155.5 36.75 C156.3352003 30.76189263 156.3352003 30.76189263 155 25 C152.50965614 23.70339566 152.50965614 23.70339566 150 23 C150.99 19.7 151.98 16.4 153 13 C146.68439027 7.21069108 141.08633074 7.22890562 132.75 7.1875 C130.97496094 7.14979492 130.97496094 7.14979492 129.1640625 7.11132812 C125.10889692 7.03050193 121.05589005 7 117 7 C116.97111854 10.31248187 116.95324201 13.62493167 116.9375 16.9375 C116.92493164 18.35579102 116.92493164 18.35579102 116.91210938 19.80273438 C116.90727539 21.15141602 116.90727539 21.15141602 116.90234375 22.52734375 C116.89448853 23.77632446 116.89448853 23.77632446 116.88647461 25.05053711 C116.78356708 27.00516798 116.78356708 27.00516798 118 28 C118.26293056 32.03160191 118.29404844 33.55892734 116 37 C113.875 37.6875 113.875 37.6875 112 38 C113.75 34.125 113.75 34.125 116 33 C115.89171875 31.86111328 115.89171875 31.86111328 115.78125 30.69921875 C115.6884375 29.70535156 115.595625 28.71148437 115.5 27.6875 C115.4071875 26.70136719 115.314375 25.71523437 115.21875 24.69921875 C115 22 115 22 115 19 C114.34 19 113.68 19 113 19 C113.556875 17.63875 113.556875 17.63875 114.125 16.25 C115.25131743 13.16467339 115.25131743 13.16467339 114.375 10.75 C112.21694327 8.00338235 109.96584178 7.12449559 106.52636719 6.68115234 C105.62563477 6.64973145 104.72490234 6.61831055 103.796875 6.5859375 C102.8171875 6.54726562 101.8375 6.50859375 100.828125 6.46875 C99.30445313 6.42234375 99.30445313 6.42234375 97.75 6.375 C96.203125 6.31699219 96.203125 6.31699219 94.625 6.2578125 C92.0835106 6.16368326 89.54202567 6.07805021 87 6 C87.495 6.99 87.495 6.99 88 8 C88.66 8 89.32 8 90 8 C90.67228569 12.48190462 91.12701027 15.63283522 90 20 C90.29235267 22.33882138 90.62599214 24.67284 91 27 C91 28.32 91 29.64 91 31 C90.01 30.01 90.01 30.01 89 29 C89.2784375 27.824375 89.2784375 27.824375 89.5625 26.625 C90.29178752 23.94859806 90.29178752 23.94859806 88.6875 21.6875 C88.130625 21.130625 87.57375 20.57375 87 20 C86.34 20 85.68 20 85 20 C85.680625 19.443125 86.36125 18.88625 87.0625 18.3125 C89.25510881 16.18317288 89.25510881 16.18317288 89.0625 13.5 C87.56544541 9.97751862 86.33969805 8.96356171 83 7 C79.03453696 6.4431461 75.1217931 6.53050618 71.125 6.625 C70.0119751 6.63789063 68.8989502 6.65078125 67.75219727 6.6640625 C59.38070792 6.81952868 51.23850267 7.4996548 43 9 C43.04253906 10.093125 43.08507812 11.18625 43.12890625 12.3125 C43 16 43 16 40.9375 19 C38.43457181 22.87550172 39.20915027 24.57124149 40 29 C39.125 32.1875 39.125 32.1875 38 35 C37.65023242 36.32911682 37.30903983 37.66082739 37 39 C35.79371992 36.66785852 34.8345262 34.50357861 34 32 C34.639375 31.7525 35.27875 31.505 35.9375 31.25 C38.12493715 30.18550582 38.12493715 30.18550582 38.875 28.125 C39.02904228 25.50628117 38.24534014 24.27091436 37 22 C37 21.01 37 20.02 37 19 C39 17.3125 39 17.3125 41 16 C40.81171228 13.55519921 40.81171228 13.55519921 40 11 C36.96969085 8.99095526 34.40823739 8.73084337 30.82421875 8.65625 C29.83099609 8.62660156 28.83777344 8.59695312 27.81445312 8.56640625 C26.26661133 8.53353516 26.26661133 8.53353516 24.6875 8.5 C8.56797015 8.15378142 8.56797015 8.15378142 4.0625 4.375 C3.711875 3.92125 3.36125 3.4675 3 3 Z " fill="#111111" transform="translate(428,216)"/>
<path d="M0 0 C3.90775207 -0.45438978 5.48900627 -0.40063118 8.640625 2.0703125 C11.48739469 5.60520863 11.72739705 7.70844793 12.0625 12.1875 C12.25855241 15.83145028 12.25855241 15.83145028 13 19 C14.81705621 20.18237022 14.81705621 20.18237022 17 21 C24.59013177 29.67231853 28.63993971 38.76400331 31.38671875 49.8125 C31.79588829 51.95921249 31.79588829 51.95921249 33 53 C33.56344744 55.85227019 34.08134945 58.69631608 34.5625 61.5625 C34.77036133 62.77196289 34.77036133 62.77196289 34.98242188 64.00585938 C35.32517763 66.00329811 35.66304388 68.00157472 36 70 C37.81209723 70.45992316 39.62470361 70.91784036 41.4375 71.375 C42.44683594 71.63023437 43.45617187 71.88546875 44.49609375 72.1484375 C45.65238281 72.42945313 46.80867188 72.71046875 48 73 C49.27053223 73.34192383 50.54106445 73.68384766 51.85009766 74.03613281 C58.16251227 75.42480254 64.46642165 75.27929192 70.90234375 75.2734375 C72.25587703 75.28071885 73.60940382 75.28930874 74.96292114 75.29911804 C77.81708107 75.31940785 80.67122219 75.33614839 83.52542114 75.34988403 C107.87635337 75.47809149 131.92187927 75.95181496 156 80 C156.13148438 78.72125 156.26296875 77.4425 156.3984375 76.125 C156.796875 72.25 156.796875 72.25 158.625 70 C161.96622604 68.59316798 164.41653883 68.54392312 168 69 C170.87721671 71.58949504 171.54016849 74.22938161 172 78 C171.938125 78.825 171.87625 79.65 171.8125 80.5 C172.07238774 83.96516991 173.7322033 85.45731885 176 88 C177.39935013 90.79870027 177.25265405 92.90498792 177 96 C175.90234375 97.6796875 175.90234375 97.6796875 174 99 C170.86328125 99.29296875 170.86328125 99.29296875 167.3125 99.1875 C165.54326172 99.14689453 165.54326172 99.14689453 163.73828125 99.10546875 C162.83464844 99.07066406 161.93101562 99.03585938 161 99 C161 98.34 161 97.68 161 97 C161.78246094 96.93941406 162.56492187 96.87882812 163.37109375 96.81640625 C164.88896484 96.69072266 164.88896484 96.69072266 166.4375 96.5625 C167.44683594 96.48128906 168.45617187 96.40007812 169.49609375 96.31640625 C171.93640779 96.26788532 171.93640779 96.26788532 173 95 C173.29386153 91.27775401 173.14809171 90.22213757 171 87 C168.94996045 85.80767387 168.94996045 85.80767387 167 85 C167.08378906 84.38511719 167.16757812 83.77023438 167.25390625 83.13671875 C167.35574219 82.32847656 167.45757812 81.52023438 167.5625 80.6875 C167.66691406 79.88699219 167.77132812 79.08648437 167.87890625 78.26171875 C168.14755178 75.83182884 168.14755178 75.83182884 167 73 C163.535 73.495 163.535 73.495 160 74 C159.67 76.64 159.34 79.28 159 82 C152.0523842 82.21413884 145.48988028 82.01652114 138.609375 81.01367188 C130.73660135 79.95329218 122.96972344 79.6921284 115.03353882 79.66447449 C112.67756198 79.6559891 110.32193811 79.63532269 107.96606445 79.61193848 C102.12969612 79.55632548 96.29324267 79.52031158 90.45672607 79.48431396 C85.4861368 79.45293986 80.51572948 79.41370705 75.54528809 79.36405945 C73.2388248 79.3441921 70.9325069 79.33572022 68.62597656 79.32775879 C61.79953974 79.27756471 55.53444672 79.10024925 49 77 C47.45984725 76.68012212 45.91846556 76.36599042 44.375 76.0625 C39.44539783 74.94908986 35.36148502 73.9161641 32.3125 69.625 C30.75981671 65.33663662 29.7903283 61.04133042 28.81640625 56.58984375 C27.97316602 52.88200753 27.01949001 49.22568655 26 45.5625 C25.690625 44.45003906 25.38125 43.33757812 25.0625 42.19140625 C23.31387186 36.93909304 20.79143795 32.45791255 17.625 27.9375 C17.01527344 27.06609375 16.40554688 26.1946875 15.77734375 25.296875 C14.00249939 22.82747241 14.00249939 22.82747241 11.1875 20.6875 C7.99170809 16.76124137 7.96167748 12.71226721 7.45703125 7.765625 C7.30621094 6.85296875 7.15539062 5.9403125 7 5 C6.34 4.67 5.68 4.34 5 4 C5 3.34 5 2.68 5 2 C3.02 2 1.04 2 -1 2 C-0.67 1.34 -0.34 0.68 0 0 Z " fill="#161616" transform="translate(243,154)"/>
<path d="M0 0 C2.87721671 2.58949504 3.54016849 5.22938161 4 9 C3.9071875 10.2375 3.9071875 10.2375 3.8125 11.5 C4.07238774 14.96516991 5.7322033 16.45731885 8 19 C9.39935013 21.79870027 9.25265405 23.90498792 9 27 C7.90234375 28.6796875 7.90234375 28.6796875 6 30 C2.86328125 30.29296875 2.86328125 30.29296875 -0.6875 30.1875 C-1.86699219 30.16042969 -3.04648437 30.13335937 -4.26171875 30.10546875 C-5.16535156 30.07066406 -6.06898438 30.03585938 -7 30 C-7 29.34 -7 28.68 -7 28 C-6.21753906 27.93941406 -5.43507813 27.87882812 -4.62890625 27.81640625 C-3.11103516 27.69072266 -3.11103516 27.69072266 -1.5625 27.5625 C-0.55316406 27.48128906 0.45617187 27.40007812 1.49609375 27.31640625 C3.93640779 27.26788532 3.93640779 27.26788532 5 26 C5.29386153 22.27775401 5.14809171 21.22213757 3 18 C0.94996045 16.80767387 0.94996045 16.80767387 -1 16 C-0.91621094 15.38511719 -0.83242188 14.77023438 -0.74609375 14.13671875 C-0.59333984 12.92435547 -0.59333984 12.92435547 -0.4375 11.6875 C-0.33308594 10.88699219 -0.22867188 10.08648437 -0.12109375 9.26171875 C0.14755178 6.83182884 0.14755178 6.83182884 -1 4 C-3.31 4.33 -5.62 4.66 -8 5 C-8.33 7.64 -8.66 10.28 -9 13 C-18.15706133 13.19716161 -27.03411994 12.63289387 -36.125 11.5625 C-38.50251142 11.29215186 -40.88011464 11.0226097 -43.2578125 10.75390625 C-44.95019043 10.56078857 -44.95019043 10.56078857 -46.67675781 10.36376953 C-51.44537693 9.84178581 -56.22043776 9.40813009 -61 9 C-61 8.67 -61 8.34 -61 8 C-44.39428692 7.58697525 -28.42339094 8.49620422 -12 11 C-11.86851562 9.72125 -11.73703125 8.4425 -11.6015625 7.125 C-11.203125 3.25 -11.203125 3.25 -9.375 1 C-6.03377396 -0.40683202 -3.58346117 -0.45607688 0 0 Z " fill="#191919" transform="translate(411,223)"/>
<path d="M0 0 C24.09 0.33 48.18 0.66 73 1 C73 1.33 73 1.66 73 2 C78.61 2.33 84.22 2.66 90 3 C90 3.33 90 3.66 90 4 C81.75735739 4.02345967 73.51472938 4.04108255 65.27206135 4.05181217 C61.44218557 4.05696907 57.61233308 4.06393089 53.7824707 4.07543945 C36.82867853 4.12508843 19.92843161 4.08219956 3 3 C3 4.65 3 6.3 3 8 C2.01 8.495 2.01 8.495 1 9 C-0.79682816 5.19495213 -1.07349791 4.29399165 0 0 Z " fill="#262626" transform="translate(234,246)"/>
<path d="M0 0 C1.27230469 0.01804688 2.54460937 0.03609375 3.85546875 0.0546875 C5.31919922 0.08949219 5.31919922 0.08949219 6.8125 0.125 C6.8125 1.115 6.8125 2.105 6.8125 3.125 C5.92046875 3.13917969 5.0284375 3.15335938 4.109375 3.16796875 C2.35367188 3.23951172 2.35367188 3.23951172 0.5625 3.3125 C-1.17773438 3.36470703 -1.17773438 3.36470703 -2.953125 3.41796875 C-6.31685095 3.86382756 -6.31685095 3.86382756 -8.5703125 6.359375 C-11.06618168 10.62767302 -11.21861661 14.32665419 -10.1875 19.125 C-5.76523552 23.90582647 0.61896196 24.2874397 6.8125 25.125 C6.8125 25.785 6.8125 26.445 6.8125 27.125 C-0.43889001 27.66885425 -5.70581255 27.70209546 -11.76171875 23.4140625 C-13.96021379 21.42638206 -14.17827094 20.23590005 -14.42578125 17.26171875 C-14.45027344 16.12347656 -14.47476563 14.98523438 -14.5 13.8125 C-14.53738281 12.68199219 -14.57476562 11.55148438 -14.61328125 10.38671875 C-14.10019709 6.45621161 -12.93598923 4.92301156 -10.1875 2.125 C-6.4507157 -0.36618953 -4.44298181 -0.0815226 0 0 Z " fill="#161616" transform="translate(202.1875,194.875)"/>
<path d="M0 0 C0 4.73486992 -1.57817509 6.5989416 -4.375 10.125 C-4.7875 10.66253906 -5.2 11.20007813 -5.625 11.75390625 C-7.32555839 13.95366081 -9.03237562 16.03237562 -11 18 C-11.99 18 -12.98 18 -14 18 C-12 13 -12 13 -5 4 C-15.56 4 -26.12 4 -37 4 C-36.67 3.34 -36.34 2.68 -36 2 C-33.76611328 1.58935547 -33.76611328 1.58935547 -30.8203125 1.3671875 C-29.74523437 1.28339844 -28.67015625 1.19960937 -27.5625 1.11328125 C-26.428125 1.03464844 -25.29375 0.95601562 -24.125 0.875 C-23.02929688 0.78863281 -21.93359375 0.70226562 -20.8046875 0.61328125 C-13.85738464 0.09470296 -6.96540653 -0.11017339 0 0 Z " fill="#1A1A1A" transform="translate(343,245)"/>
<path d="M0 0 C1.66519519 0.34060811 3.33157466 0.67558396 5 1 C5 1.33 5 1.66 5 2 C3.95199219 2.12955078 3.95199219 2.12955078 2.8828125 2.26171875 C0.16723354 2.68097952 -2.3819849 3.1620615 -5 4 C-6.75548759 6.18031152 -6.75548759 6.18031152 -7 9 C-7.309375 10.6396875 -7.309375 10.6396875 -7.625 12.3125 C-7.74875 13.199375 -7.8725 14.08625 -8 15 C-15.02639415 15.74805717 -21.93391809 16.13794954 -29 16 C-28.505 14.515 -28.505 14.515 -28 13 C-24.57735681 11.57389867 -20.90120467 11.90098795 -17.25 11.9375 C-15.49429688 11.95103516 -15.49429688 11.95103516 -13.703125 11.96484375 C-12.81109375 11.97644531 -11.9190625 11.98804688 -11 12 C-10.87625 10.9275 -10.7525 9.855 -10.625 8.75 C-9.74712644 3.48275862 -9.74712644 3.48275862 -8 1 C-4.98099193 -1.11330565 -3.42505804 -1.14168601 0 0 Z " fill="#2B2B2B" transform="translate(243,155)"/>
<path d="M0 0 C24.91607643 -0.39357107 24.91607643 -0.39357107 37.16357422 1.28857422 C41.84084667 1.93028365 46.29154161 2.08398588 51 2 C51 2.99 51 3.98 51 5 C42.2021754 5.20867992 33.67173391 4.58363121 24.9375 3.5625 C22.55087441 3.29214512 20.1641566 3.02260292 17.77734375 2.75390625 C16.64280762 2.62516113 15.50827148 2.49641602 14.33935547 2.36376953 C9.56519694 1.84370109 4.78481101 1.40904678 0 1 C0 0.67 0 0.34 0 0 Z " fill="#050505" transform="translate(350,231)"/>
<path d="M0 0 C1.32 0.66 2.64 1.32 4 2 C2.8656185 9.94067053 -2.50728227 15.50728227 -8 21 C-8.66 21.33 -9.32 21.66 -10 22 C-10 18.04 -10 14.08 -10 10 C-9.34 10 -8.68 10 -8 10 C-7.34 11.32 -6.68 12.64 -6 14 C-4.37168238 12.19038423 -4.37168238 12.19038423 -3 10 C-3.33 9.01 -3.66 8.02 -4 7 C-2.35 6.34 -0.7 5.68 1 5 C0.67 3.35 0.34 1.7 0 0 Z " fill="#010101" transform="translate(442,237)"/>
<path d="M0 0 C1.27230469 0.01804688 2.54460937 0.03609375 3.85546875 0.0546875 C5.31919922 0.08949219 5.31919922 0.08949219 6.8125 0.125 C6.8125 1.115 6.8125 2.105 6.8125 3.125 C5.49185547 3.14626953 5.49185547 3.14626953 4.14453125 3.16796875 C-3.3327782 3.12490847 -3.3327782 3.12490847 -9.5 6.6875 C-10.056875 7.491875 -10.61375 8.29625 -11.1875 9.125 C-11.5175 8.795 -11.8475 8.465 -12.1875 8.125 C-12.5175 12.085 -12.8475 16.045 -13.1875 20.125 C-13.5175 20.125 -13.8475 20.125 -14.1875 20.125 C-14.29614945 18.06367858 -14.37338321 16.00068679 -14.4375 13.9375 C-14.48390625 12.78894531 -14.5303125 11.64039063 -14.578125 10.45703125 C-14.10940538 6.45885287 -12.98440508 4.95711792 -10.1875 2.125 C-6.4507157 -0.36618953 -4.44298181 -0.0815226 0 0 Z " fill="#252525" transform="translate(202.1875,194.875)"/>
<path d="M0 0 C0.66 0.33 1.32 0.66 2 1 C1.319375 1.845625 0.63875 2.69125 -0.0625 3.5625 C-2.43065395 7.76406347 -1.82658451 9.37112672 -1 14 C-1.875 17.1875 -1.875 17.1875 -3 20 C-3.34976758 21.32911682 -3.69096017 22.66082739 -4 24 C-4.99 24 -5.98 24 -7 24 C-7 23.01 -7 22.02 -7 21 C-7.66 20.34 -8.32 19.68 -9 19 C-8.13375 18.154375 -7.2675 17.30875 -6.375 16.4375 C-4.93020894 14.85540789 -4.93020894 14.85540789 -4 13 C-4.53219091 9.17352608 -4.53219091 9.17352608 -6 6 C-4.02 4.02 -2.04 2.04 0 0 Z " fill="#000000" transform="translate(470,231)"/>
<path d="M0 0 C1.65 0.33 3.3 0.66 5 1 C5.90594807 3.61718331 5.98235878 5.10143704 5.5 7.875 C4.96376636 11.22646028 5.41081278 13.68582189 6 17 C5.67 17.99 5.34 18.98 5 20 C4.01 19.67 3.02 19.34 2 19 C2.2475 18.4225 2.495 17.845 2.75 17.25 C2.8325 16.5075 2.915 15.765 3 15 C1.14567913 12.72855926 1.14567913 12.72855926 -1 11 C0.33333333 8.33333333 1.66666667 5.66666667 3 3 C2.01 2.67 1.02 2.34 0 2 C0 1.34 0 0.68 0 0 Z " fill="#000000" transform="translate(564,256)"/>
<path d="M0 0 C0 3.95738678 -0.71710724 5.74860728 -3 9 C-5.94853027 10.11354069 -8.87855742 10.62045352 -12 11 C-12.33 13.64 -12.66 16.28 -13 19 C-13.33 19 -13.66 19 -14 19 C-14.27615058 17.40012764 -14.52007625 15.794667 -14.75 14.1875 C-14.88921875 13.29417969 -15.0284375 12.40085937 -15.171875 11.48046875 C-15 9 -15 9 -13.234375 7.234375 C-11 6 -11 6 -7.5 5.0625 C-3.84817874 3.9539114 -2.40347482 2.88416978 0 0 Z " fill="#141414" transform="translate(200,260)"/>
<path d="M0 0 C0 0.66 0 1.32 0 2 C-3.13850064 2.92553743 -5.93680778 3.11664647 -9.203125 3.09765625 C-10.1828125 3.09443359 -11.1625 3.09121094 -12.171875 3.08789062 C-13.18765625 3.07951172 -14.2034375 3.07113281 -15.25 3.0625 C-16.796875 3.05573242 -16.796875 3.05573242 -18.375 3.04882812 C-20.91672573 3.03706088 -23.45833319 3.02062011 -26 3 C-25.67 2.34 -25.34 1.68 -25 1 C-22.33349537 0.83031334 -19.66684474 0.66418179 -17 0.5 C-16.25621094 0.45230469 -15.51242187 0.40460938 -14.74609375 0.35546875 C-9.82037776 0.05564256 -4.93485224 -0.04486229 0 0 Z " fill="#000000" transform="translate(332,246)"/>
<path d="M0 0 C0.99 0.33 1.98 0.66 3 1 C3.13277344 2.01320312 3.26554688 3.02640625 3.40234375 4.0703125 C3.58067584 5.42188204 3.75906425 6.77344414 3.9375 8.125 C4.02451172 8.79015625 4.11152344 9.4553125 4.20117188 10.140625 C4.72630558 14.10830188 5.31814014 18.05626998 6 22 C5.01 22.33 4.02 22.66 3 23 C0.41283102 15.1768938 -0.38750039 8.2236194 0 0 Z " fill="#262626" transform="translate(163,210)"/>
<path d="M0 0 C0.20496094 0.78246094 0.40992188 1.56492188 0.62109375 2.37109375 C0.89050781 3.38300781 1.15992188 4.39492187 1.4375 5.4375 C1.83775391 6.95150391 1.83775391 6.95150391 2.24609375 8.49609375 C2.75978077 10.91752001 2.75978077 10.91752001 4 12 C4.25 14.9375 4.25 14.9375 4 18 C3.01 18.66 2.02 19.32 1 20 C-0.64681249 13.69239743 -2.26309887 7.48472993 -3 1 C-1 0 -1 0 0 0 Z " fill="#282828" transform="translate(272,195)"/>
<path d="M0 0 C8.25 0.33 16.5 0.66 25 1 C25 1.66 25 2.32 25 3 C22.33326258 3.02727345 19.66681131 3.04696948 17 3.0625 C15.88431641 3.07506836 15.88431641 3.07506836 14.74609375 3.08789062 C9.73851156 3.10966272 4.95720968 2.71541549 0 2 C0 1.34 0 0.68 0 0 Z " fill="#0B0B0B" transform="translate(193,228)"/>
<path d="M0 0 C0.33 0 0.66 0 1 0 C1.56891054 4.83573957 -0.11578192 7.20931338 -3 11 C-5.52730848 13.98681911 -8.72805628 15.89141405 -12 18 C-10.4628015 14.70270923 -8.57926258 11.79483213 -6.5 8.8125 C-5.8915625 7.93207031 -5.283125 7.05164063 -4.65625 6.14453125 C-3 4 -3 4 -1 3 C-0.67 2.01 -0.34 1.02 0 0 Z " fill="#292929" transform="translate(207,247)"/>
<path d="M0 0 C0.33 0 0.66 0 1 0 C1.02686553 1.97909398 1.04633375 3.95828971 1.0625 5.9375 C1.07410156 7.03964844 1.08570313 8.14179688 1.09765625 9.27734375 C1 12 1 12 0 13 C-0.23287008 14.68183948 -0.41264166 16.3712416 -0.5625 18.0625 C-0.64628906 18.98160156 -0.73007813 19.90070313 -0.81640625 20.84765625 C-0.87699219 21.55792969 -0.93757812 22.26820313 -1 23 C-1.33 23 -1.66 23 -2 23 C-2.05789006 19.54173658 -2.09355821 16.08359707 -2.125 12.625 C-2.14175781 11.64015625 -2.15851563 10.6553125 -2.17578125 9.640625 C-2.18222656 8.69960937 -2.18867188 7.75859375 -2.1953125 6.7890625 C-2.20578613 5.91975098 -2.21625977 5.05043945 -2.22705078 4.15478516 C-2 2 -2 2 0 0 Z " fill="#151515" transform="translate(166,198)"/>
<path d="M0 0 C0.33 0.99 0.66 1.98 1 3 C-1.14419403 7.0707443 -3.7910725 10.36925522 -7.875 12.5 C-8.57625 12.665 -9.2775 12.83 -10 13 C-8.16490101 7.32787586 -4.97304587 3.31536392 0 0 Z " fill="#212121" transform="translate(215,260)"/>
<path d="M0 0 C0.66 0.33 1.32 0.66 2 1 C1.814375 1.515625 1.62875 2.03125 1.4375 2.5625 C0.83752918 5.1713937 0.83752918 5.1713937 1.5 8.5 C1.93772143 11.56405002 2.02210188 13.16082812 1 16 C0.01 15.67 -0.98 15.34 -2 15 C-1.773125 14.113125 -1.54625 13.22625 -1.3125 12.3125 C-0.94548054 8.42209376 -1.73118159 7.08559304 -4 4 C-2.68 2.68 -1.36 1.36 0 0 Z " fill="#000000" transform="translate(518,231)"/>
<path d="M0 0 C0.33 0 0.66 0 1 0 C1.125 2.375 1.125 2.375 1 5 C-1 7 -1 7 -4.0390625 7.1953125 C-5.22242188 7.17210937 -6.40578125 7.14890625 -7.625 7.125 C-8.81351562 7.10695312 -10.00203125 7.08890625 -11.2265625 7.0703125 C-12.14179688 7.04710937 -13.05703125 7.02390625 -14 7 C-14 6.34 -14 5.68 -14 5 C-12.86111328 4.96132812 -12.86111328 4.96132812 -11.69921875 4.921875 C-10.20841797 4.83679688 -10.20841797 4.83679688 -8.6875 4.75 C-7.70136719 4.70359375 -6.71523438 4.6571875 -5.69921875 4.609375 C-2.86149964 4.24704536 -2.86149964 4.24704536 -1.20703125 1.953125 C-0.80871094 1.30859375 -0.41039062 0.6640625 0 0 Z " fill="#040404" transform="translate(418,246)"/>
<path d="M0 0 C0 0.33 0 0.66 0 1 C-1.98 1.33 -3.96 1.66 -6 2 C-6 2.66 -6 3.32 -6 4 C-6.99 4.495 -6.99 4.495 -8 5 C-8.46523063 6.89533342 -8.46523063 6.89533342 -8.625 9.0625 C-8.74875 10.361875 -8.8725 11.66125 -9 13 C-9.99 12.34 -10.98 11.68 -12 11 C-11.51714678 3.63648834 -11.51714678 3.63648834 -9.375 1 C-6.17067842 -0.34918804 -3.43707561 -0.19829282 0 0 Z " fill="#252525" transform="translate(411,223)"/>
<path d="M0 0 C-0.33 1.32 -0.66 2.64 -1 4 C-4.3 4 -7.6 4 -11 4 C-10.67 3.01 -10.34 2.02 -10 1 C-6.76421296 -0.31828361 -3.44785988 -0.07836045 0 0 Z " fill="#2D2D2D" transform="translate(225,167)"/>
<path d="M0 0 C1.47726563 0.30550781 1.47726563 0.30550781 2.984375 0.6171875 C4.10585937 0.86855469 4.10585937 0.86855469 5.25 1.125 C5.25 1.455 5.25 1.785 5.25 2.125 C4.51394531 2.17398438 3.77789062 2.22296875 3.01953125 2.2734375 C1.55580078 2.38558594 1.55580078 2.38558594 0.0625 2.5 C-0.90042969 2.56960937 -1.86335937 2.63921875 -2.85546875 2.7109375 C-5.76508938 3.12715853 -8.07890774 3.92374096 -10.75 5.125 C-10.5 3.25 -10.5 3.25 -9.75 1.125 C-6.32954553 -1.28198648 -3.97395341 -0.85156144 0 0 Z " fill="#2F2F2F" transform="translate(184.75,178.875)"/>
<path d="M0 0 C0.33 1.32 0.66 2.64 1 4 C-2.3 4 -5.6 4 -9 4 C-8.67 3.01 -8.34 2.02 -8 1 C-5.36 0.67 -2.72 0.34 0 0 Z " fill="#080808" transform="translate(233,166)"/>
<path d="M0 0 C2.60334924 2.71182212 2.99456691 3.89133813 3.1875 7.75 C3.125625 8.8225 3.06375 9.895 3 11 C2.67 10.01 2.34 9.02 2 8 C1.34 8 0.68 8 0 8 C-1.0625 6.1875 -1.0625 6.1875 -2 4 C-1 1 -1 1 0 0 Z " fill="#191919" transform="translate(268,188)"/>
<path d="M0 0 C2.97 0.33 5.94 0.66 9 1 C8.67 1.99 8.34 2.98 8 4 C5.36 4 2.72 4 0 4 C0 2.68 0 1.36 0 0 Z " fill="#0D0D0D" transform="translate(206,167)"/>
<path d="M0 0 C1.98 0.99 1.98 0.99 4 2 C4.1875 4.875 4.1875 4.875 4 8 C3.01 8.66 2.02 9.32 1 10 C0.67 6.7 0.34 3.4 0 0 Z " fill="#202020" transform="translate(272,205)"/>
<path d="M0 0 C2.31 0 4.62 0 7 0 C7.33 1.65 7.66 3.3 8 5 C7.01 5.495 7.01 5.495 6 6 C5.67 5.01 5.34 4.02 5 3 C2.03 2.505 2.03 2.505 -1 2 C-0.67 1.34 -0.34 0.68 0 0 Z " fill="#080808" transform="translate(405,224)"/>
<path d="M0 0 C2.29013653 3.4352048 2.17842973 4.985331 2 9 C1.01 9.495 1.01 9.495 0 10 C-0.38922918 8.71254964 -0.76098036 7.41980403 -1.125 6.125 C-1.43824219 5.04605469 -1.43824219 5.04605469 -1.7578125 3.9453125 C-1.83773437 3.30335938 -1.91765625 2.66140625 -2 2 C-1.34 1.34 -0.68 0.68 0 0 Z " fill="#0D0D0D" transform="translate(208,270)"/>
<path d="M0 0 C0.33 0 0.66 0 1 0 C1.3125 2.75 1.3125 2.75 1 6 C-1.5 8.375 -1.5 8.375 -4 10 C-4.33 9.34 -4.66 8.68 -5 8 C-4.0409375 7.13375 -4.0409375 7.13375 -3.0625 6.25 C-1.01776132 4.01937599 -0.41794801 2.92563609 0 0 Z " fill="#232323" transform="translate(210,275)"/>
<path d="M0 0 C2.31 0 4.62 0 7 0 C7 0.66 7 1.32 7 2 C4.36 2.33 1.72 2.66 -1 3 C-0.67 2.01 -0.34 1.02 0 0 Z " fill="#0A0A0A" transform="translate(325,246)"/>
<path d="M0 0 C2.56687367 3.8503105 1.83288724 5.58569763 1 10 C0.01 9.67 -0.98 9.34 -2 9 C-1.125 2.25 -1.125 2.25 0 0 Z " fill="#212121" transform="translate(413,227)"/>
<path d="M0 0 C0.99 0 1.98 0 3 0 C2.67 2.31 2.34 4.62 2 7 C1.01 7 0.02 7 -1 7 C-0.67 4.69 -0.34 2.38 0 0 Z " fill="#232323" transform="translate(166,192)"/>
<path d="M0 0 C1.32 0.33 2.64 0.66 4 1 C3.67 1.99 3.34 2.98 3 4 C1.35 4 -0.3 4 -2 4 C-1.34 2.68 -0.68 1.36 0 0 Z " fill="#181818" transform="translate(184,192)"/>
<path d="M0 0 C2.475 0.99 2.475 0.99 5 2 C4.67 2.99 4.34 3.98 4 5 C2.68 5 1.36 5 0 5 C0 3.35 0 1.7 0 0 Z " fill="#252525" transform="translate(228,190)"/>
<path d="M0 0 C0.66 1.32 1.32 2.64 2 4 C-0.97 4 -3.94 4 -7 4 C-6.67 3.34 -6.34 2.68 -6 2 C-4.02 2 -2.04 2 0 2 C0 1.34 0 0.68 0 0 Z " fill="#000000" transform="translate(188,176)"/>
<path d="M0 0 C0.33 0 0.66 0 1 0 C1 2.97 1 5.94 1 9 C0.01 9 -0.98 9 -2 9 C-1.125 1.125 -1.125 1.125 0 0 Z " fill="#000000" transform="translate(602,255)"/>
</svg>
