<?xml version="1.0" encoding="UTF-8"?>
<svg version="1.1" xmlns="http://www.w3.org/2000/svg" width="800" height="300">
<path d="M0 0 C264 0 528 0 800 0 C800 99 800 198 800 300 C536 300 272 300 0 300 C0 201 0 102 0 0 Z " fill="#FEFEFE" transform="translate(0,0)"/>
<path d="M0 0 C2.9375 1.375 2.9375 1.375 5 3 C5 3.66 5 4.32 5 5 C5.99 5.33 6.98 5.66 8 6 C9.140625 8.625 9.140625 8.625 10.25 12 C12.24931124 17.51617197 14.58145931 21.44609369 18.30859375 25.921875 C27.98407601 37.80953449 31.73914789 54.06542415 33 69 C33.78117187 69.29777344 34.56234375 69.59554687 35.3671875 69.90234375 C37.96549813 70.98561569 39.78086606 72.29866398 42 74 C44.98859187 74.99619729 47.11505278 75.16648129 50.2421875 75.24609375 C51.84513672 75.29540039 51.84513672 75.29540039 53.48046875 75.34570312 C55.67312382 75.40499817 57.86583064 75.46242273 60.05859375 75.51757812 C66.17144891 75.70883038 72.18365433 76.09903228 78.26197815 76.75440979 C90.85536503 78.10141863 103.28408862 78.17062149 115.9375 78 C140.98911527 77.66632273 140.98911527 77.66632273 153 80 C153.20133545 79.32888184 153.4026709 78.65776367 153.61010742 77.96630859 C155.625 71.25 155.625 71.25 159 69 C162.4375 68.5 162.4375 68.5 166 69 C168.59638668 71.59638668 169.98864837 73.41644722 170.015625 77.1796875 C169.7790576 79.13484747 169.3990155 81.07142507 169 83 C169.598125 83.2475 170.19625 83.495 170.8125 83.75 C173.44496795 85.2542674 174.5540968 86.32507908 176 89 C176.5625 92.5 176.5625 92.5 176 96 C172.61386069 99.56917386 169.86291172 100.27732605 165 100.5 C159.16298829 100.30064851 153.89453995 98.75181641 148.359375 96.97265625 C141.58232864 95.01046492 135.05263663 94.86839599 128.0625 94.9375 C127.18787109 94.94201172 126.31324219 94.94652344 125.41210938 94.95117188 C123.27470953 94.96285166 121.13734537 94.98078311 119 95 C121.08139277 99.19441765 123.21601548 103.22675496 126 107 C129.62176584 108.22267708 129.62176584 108.22267708 133 108 C134.9375 109.125 134.9375 109.125 136 111 C136.6875 114.25 136.6875 114.25 136 118 C132.88286586 121.65108767 129.57142315 124.47619228 125 126 C123.315429 126.11740122 121.62611123 126.17506545 119.9375 126.1875 C119.05964844 126.20167969 118.18179688 126.21585937 117.27734375 126.23046875 C115 126 115 126 113 124 C113.19921875 121.35546875 113.19921875 121.35546875 113.6875 118.1875 C114.28227881 113.22913253 114.28227881 113.22913253 111.875 108.9375 C109.28926043 107.19493638 106.74087264 105.48790229 104 104 C103.90589844 104.56203125 103.81179688 105.1240625 103.71484375 105.703125 C102.8240591 108.56531831 101.41128118 110.39770461 99.5625 112.75 C98.94503906 113.54921875 98.32757813 114.3484375 97.69140625 115.171875 C97.13324219 115.77515625 96.57507813 116.3784375 96 117 C95.34 117 94.68 117 94 117 C93.89042969 117.67546875 93.78085937 118.3509375 93.66796875 119.046875 C93.50941406 119.93890625 93.35085938 120.8309375 93.1875 121.75 C92.96126953 123.07257813 92.96126953 123.07257813 92.73046875 124.421875 C91.93021173 127.24631156 90.99272526 128.85769972 89 131 C85.28372873 132.23875709 81.85505169 132.6851752 78 132 C74.96277803 129.55701712 73.15575567 127.2336335 71 124 C71.13899141 120.17773619 71.45483645 117.76726722 73.6875 114.625 C76.46578975 112.67268829 78.64877744 112.3046566 82 112 C82.0825 111.113125 82.165 110.22625 82.25 109.3125 C83.10202627 105.54938397 84.54800953 103.91173868 87 101 C87.638925 98.91473206 87.638925 98.91473206 88 97 C87.02662186 97.00444122 86.05324371 97.00888245 85.05036926 97.01345825 C75.8274113 97.05419714 66.60447187 97.08407627 57.38144398 97.10362434 C52.64105764 97.11401239 47.90074457 97.12807941 43.16040039 97.15087891 C38.57624795 97.17278641 33.9921655 97.18460595 29.40796471 97.18975449 C27.6686868 97.19341838 25.92941225 97.2005719 24.19016457 97.21146011 C14.23535161 97.27123891 4.80309616 96.93304347 -5 95 C-4.54625 95.99 -4.0925 96.98 -3.625 98 C-1.38684085 103.22944295 0 108.26627989 0 114 C1.11375 114.0825 2.2275 114.165 3.375 114.25 C7 115 7 115 8.5 116.75 C9.17133244 119.77099596 9.17788348 121.08993493 8 124 C4.43406418 127.69074358 1.11031967 130.83117443 -4.125 131.25 C-8.69229743 130.95533565 -11.80080753 129.76808104 -16 128 C-16.1535096 124.16226002 -16.24316283 121.53053709 -14.625 118 C-13.67276804 115.10904666 -13.67276804 115.10904666 -15.02734375 113.24609375 C-16.60210239 111.39084375 -18.25032581 109.69069641 -20 108 C-20.50144531 107.48695313 -21.00289062 106.97390625 -21.51953125 106.4453125 C-22.66225937 105.27953222 -23.82859019 104.13695658 -25 103 C-25 103.66 -25 104.32 -25 105 C-25.9075 105.598125 -26.815 106.19625 -27.75 106.8125 C-31.9372961 109.63087238 -34.23011452 112.84517178 -37 117 C-37.99 117 -38.98 117 -40 117 C-40 117.66 -40 118.32 -40 119 C-39.34 119 -38.68 119 -38 119 C-36.67778712 121.722203 -35.97984176 123.57667699 -36.125 126.625 C-37.2413103 129.65498509 -38.21041381 130.38956455 -41 132 C-44.2421875 132.36328125 -44.2421875 132.36328125 -47.875 132.3125 C-49.06867188 132.30863281 -50.26234375 132.30476562 -51.4921875 132.30078125 C-55.04280263 131.99632984 -57.76140676 131.48710914 -61 130 C-63.16529529 127.13524134 -63.19854987 124.92556544 -62.75 121.4375 C-62.66234375 120.67308594 -62.5746875 119.90867187 -62.484375 119.12109375 C-62 117 -62 117 -60 114 C-58.88625 113.87625 -57.7725 113.7525 -56.625 113.625 C-52.96715797 113.33754816 -52.96715797 113.33754816 -50.875 111 C-48.84605431 107.7536869 -46.95635572 104.45995049 -45.1484375 101.0859375 C-44 99 -44 99 -42 96 C-42.71285156 95.96261719 -43.42570312 95.92523438 -44.16015625 95.88671875 C-50.10209101 95.47886051 -54.56125995 94.56544342 -60 92 C-61.30786251 91.70759172 -62.62088335 91.4375551 -63.9375 91.1875 C-70.00712978 89.76143164 -74.31996026 85.95247862 -78.3125 81.3125 C-83.47206765 71.18445979 -84.81656215 59.43356354 -82.109375 48.35546875 C-78.60378313 37.7522877 -73.42493911 30.68839097 -63.625 25.0625 C-61.77382403 24.31321449 -59.89458521 23.6315284 -58 23 C-58.0825 21.741875 -58.165 20.48375 -58.25 19.1875 C-58.27792719 13.33210011 -56.35718694 8.30130396 -54 3 C-53 2 -53 2 -49.3125 1.6875 C-44.88534477 1.7431375 -42.39396767 3.09088485 -39 6 C-36.64264672 9.21457266 -36.82257311 12.09660847 -37 16 C-35.989375 15.835 -34.97875 15.67 -33.9375 15.5 C-27.33558292 14.65237593 -20.6431304 14.92215082 -14 15 C-13.896875 13.783125 -13.79375 12.56625 -13.6875 11.3125 C-13.21780277 7.57476849 -12.32634716 5.04214629 -10 2 C-6.27420911 -0.48386059 -4.41288598 -0.3804212 0 0 Z " fill="#FCFCFC" transform="translate(245,153)"/>
<path d="M0 0 C2.8125 -0.1875 2.8125 -0.1875 6 0 C7 1 8 2 9 3 C15.47083003 5.07525149 21.41141432 5.24994212 28.16796875 5.16015625 C29.2571611 5.15463745 30.34635345 5.14911865 31.46855164 5.14343262 C33.8178252 5.13109227 36.16707948 5.11448167 38.51629639 5.09402466 C44.77770738 5.04025787 51.03917966 5.01861565 57.30078125 5 C59.23244141 4.9937838 59.23244141 4.9937838 61.203125 4.98744202 C77.41229646 4.95866797 93.61370822 5.33435472 109.81713867 5.73266602 C110.89429642 5.75735962 111.97145416 5.78205322 113.08125305 5.80749512 C115.09527242 5.85391321 117.10919602 5.90477372 119.12297058 5.96081543 C120.44631157 5.99096741 120.44631157 5.99096741 121.79638672 6.02172852 C122.56457733 6.04171402 123.33276794 6.06169952 124.12423706 6.08229065 C126.0924287 6.12361173 126.0924287 6.12361173 128 5 C131.03566911 4.76089183 134.08095166 4.81479913 137.125 4.8125 C138.37023437 4.79413086 138.37023437 4.79413086 139.640625 4.77539062 C146.3283327 4.75966717 153.1906553 5.34226445 159 9 C159.42667969 9.46148437 159.85335937 9.92296875 160.29296875 10.3984375 C162.9975484 12.93591497 166.33120593 14.35011728 169.625 16.01171875 C174.01917804 19.69039741 174.99427916 24.83672162 175.6171875 30.3671875 C175.72209306 31.86858663 175.80765993 33.37144759 175.875 34.875 C175.91254395 35.66366455 175.95008789 36.4523291 175.98876953 37.26489258 C176.27663329 46.52514559 174.29214193 54.04285919 168 61 C162.69554711 66.38085279 158.19286413 67.70523678 150.71362305 67.88330078 C149.57062744 67.88056152 148.42763184 67.87782227 147.25 67.875 C146.0535083 67.8941748 144.8570166 67.91334961 143.62426758 67.93310547 C140.0824586 67.98283335 136.54211111 67.99384427 133 68 C131.18616451 68.02360067 129.37235524 68.04939485 127.55859375 68.078125 C114.02532285 68.24209193 100.1544274 68.25064747 86.72265625 66.47265625 C78.59603524 65.44083973 70.49840803 65.91088485 62.375 66.78125 C56.14473547 67.35509015 49.86288457 66.66520367 43.63769531 66.25537109 C41.63908688 66.12591247 39.63984991 66.00628024 37.640625 65.88671875 C36.36960937 65.80292969 35.09859375 65.71914063 33.7890625 65.6328125 C32.63100098 65.55949707 31.47293945 65.48618164 30.27978516 65.41064453 C26.94747647 64.99342381 24.14301003 64.16096136 21 63 C19.865625 62.62875 18.73125 62.2575 17.5625 61.875 C10.70420537 58.84035636 6.45523899 52.07424207 3.69140625 45.35546875 C2.95117812 42.83367463 2.71897532 40.55745849 2.5625 37.9375 C2.27383191 33.27551038 0.83709453 30.65071581 -1.7890625 26.86328125 C-4.96470506 21.97688932 -6.0453083 15.71367548 -5 10 C-3.57222581 6.52259876 -1.86966857 3.25856521 0 0 Z " fill="#646464" transform="translate(429,216)"/>
<path d="M0 0 C2.8125 -0.1875 2.8125 -0.1875 6 0 C7 1 8 2 9 3 C15.47083003 5.07525149 21.41141432 5.24994212 28.16796875 5.16015625 C29.2571611 5.15463745 30.34635345 5.14911865 31.46855164 5.14343262 C33.8178252 5.13109227 36.16707948 5.11448167 38.51629639 5.09402466 C44.77770738 5.04025787 51.03917966 5.01861565 57.30078125 5 C59.23244141 4.9937838 59.23244141 4.9937838 61.203125 4.98744202 C77.41229646 4.95866797 93.61370822 5.33435472 109.81713867 5.73266602 C110.89429642 5.75735962 111.97145416 5.78205322 113.08125305 5.80749512 C115.09527242 5.85391321 117.10919602 5.90477372 119.12297058 5.96081543 C120.44631157 5.99096741 120.44631157 5.99096741 121.79638672 6.02172852 C122.56457733 6.04171402 123.33276794 6.06169952 124.12423706 6.08229065 C126.0924287 6.12361173 126.0924287 6.12361173 128 5 C131.03566911 4.76089183 134.08095166 4.81479913 137.125 4.8125 C138.37023437 4.79413086 138.37023437 4.79413086 139.640625 4.77539062 C146.3283327 4.75966717 153.1906553 5.34226445 159 9 C159.42667969 9.46148437 159.85335937 9.92296875 160.29296875 10.3984375 C162.9975484 12.93591497 166.33120593 14.35011728 169.625 16.01171875 C174.01917804 19.69039741 174.99427916 24.83672162 175.6171875 30.3671875 C175.72209306 31.86858663 175.80765993 33.37144759 175.875 34.875 C175.91254395 35.66366455 175.95008789 36.4523291 175.98876953 37.26489258 C176.27663329 46.52514559 174.29214193 54.04285919 168 61 C162.69554711 66.38085279 158.19286413 67.70523678 150.71362305 67.88330078 C149.57062744 67.88056152 148.42763184 67.87782227 147.25 67.875 C146.0535083 67.8941748 144.8570166 67.91334961 143.62426758 67.93310547 C140.0824586 67.98283335 136.54211111 67.99384427 133 68 C131.18616451 68.02360067 129.37235524 68.04939485 127.55859375 68.078125 C114.02532285 68.24209193 100.1544274 68.25064747 86.72265625 66.47265625 C78.59603524 65.44083973 70.49840803 65.91088485 62.375 66.78125 C56.14473547 67.35509015 49.86288457 66.66520367 43.63769531 66.25537109 C41.63908688 66.12591247 39.63984991 66.00628024 37.640625 65.88671875 C36.36960937 65.80292969 35.09859375 65.71914063 33.7890625 65.6328125 C32.63100098 65.55949707 31.47293945 65.48618164 30.27978516 65.41064453 C26.94747647 64.99342381 24.14301003 64.16096136 21 63 C19.865625 62.62875 18.73125 62.2575 17.5625 61.875 C10.70420537 58.84035636 6.45523899 52.07424207 3.69140625 45.35546875 C2.95117812 42.83367463 2.71897532 40.55745849 2.5625 37.9375 C2.27383191 33.27551038 0.83709453 30.65071581 -1.7890625 26.86328125 C-4.96470506 21.97688932 -6.0453083 15.71367548 -5 10 C-3.57222581 6.52259876 -1.86966857 3.25856521 0 0 Z M2 3 C-1.20056327 7.39571031 -3.17210159 11.0337393 -2.6875 16.5703125 C-0.75050496 24.17301803 1.40130732 28.68547017 8 33 C8.309375 32.05125 8.61875 31.1025 8.9375 30.125 C10 27 10 27 11 25 C10.67 24.34 10.34 23.68 10 23 C12.31 23.33 14.62 23.66 17 24 C17 24.66 17 25.32 17 26 C16.401875 26.185625 15.80375 26.37125 15.1875 26.5625 C11.99950687 28.65746692 11.45644444 31.54094446 10 35 C7.8125 36.9375 7.8125 36.9375 6 38 C6.43386428 44.79720708 8.71901136 50.62717707 13.53515625 55.578125 C25.47522139 64.94952365 42.73368679 63.15052382 57 63 C56.98710937 61.8965625 56.97421875 60.793125 56.9609375 59.65625 C57 56 57 56 57.625 53.5 C58.20619921 50.81449175 58.20619921 50.81449175 57 47.5625 C55.9369034 43.77521835 56.32627014 41.78973046 57 38 C56.17657468 35.68019054 56.17657468 35.68019054 55 34 C57.92512762 36.43505389 57.92512762 36.43505389 58.2578125 38.9453125 C58.21398437 39.66460937 58.17015625 40.38390625 58.125 41.125 C57.96429211 45.84675096 58.3919686 50.32341282 59 55 C59.17893286 56.42571265 59.3572786 57.85149906 59.53515625 59.27734375 C59.68855469 60.50582031 59.84195313 61.73429687 60 63 C61.31613281 62.90460938 62.63226563 62.80921875 63.98828125 62.7109375 C80.13303317 61.64939006 80.13303317 61.64939006 87.84765625 63.453125 C102.6439952 66.02002395 120.17962869 66.37125941 135 64 C137.44251927 57.47348346 138.25867587 53.77602761 136 47 C136.9375 44.1875 136.9375 44.1875 138 42 C137.67 41.34 137.34 40.68 137 40 C136.01 40 135.02 40 134 40 C134 39.01 134 38.02 134 37 C135.9375 37.625 135.9375 37.625 138 39 C139.0723094 42.79432556 138.93231135 45.27075458 138 49 C138.165 49.886875 138.33 50.77375 138.5 51.6875 C139.14190299 55.94010731 138.61116813 59.76883603 138 64 C142.67661056 64.08468711 147.17531996 64.1216741 151.8125 63.4375 C155 63 155 63 157.5 63.8125 C160.60164164 64.04512312 161.18668047 63.41175287 163.5625 61.5 C166.91032743 58.34098713 169.11705826 55.18047615 171 51 C171.32226562 50.35546875 171.64453125 49.7109375 171.9765625 49.046875 C175.54148085 40.6770667 173.41424912 31.35760137 170.5625 23 C167.88947491 17.47850029 162.37709586 15.36406801 157 13 C155.91599105 18.7175801 155.91599105 18.7175801 157.25 24.25 C158.42159507 30.10797537 155.88541581 34.90217422 153 40 C152.01 40.66 151.02 41.32 150 42 C150.52851562 41.04738281 151.05703125 40.09476562 151.6015625 39.11328125 C152.27698801 37.84685843 152.95141527 36.57990285 153.625 35.3125 C153.975625 34.68666016 154.32625 34.06082031 154.6875 33.41601562 C156.32195389 30.29420869 157.16831634 28.6373228 156.25 25.16015625 C155.63125 24.09087891 155.63125 24.09087891 155 23 C154.07556986 20.22670957 154.0267192 18.50124151 154.1875 15.5 C154.2816013 12.06955642 154.2816013 12.06955642 152.65625 9.80078125 C148.45579586 6.95312043 144.2592073 7.53860246 139.3125 7.6875 C138.33732422 7.69716797 137.36214844 7.70683594 136.35742188 7.71679688 C131.83867632 7.38617701 131.83867632 7.38617701 128 9 C125.98035801 9.07244053 123.95832876 9.08377188 121.9375 9.0625 C120.83277344 9.05347656 119.72804688 9.04445312 118.58984375 9.03515625 C117.73519531 9.02355469 116.88054687 9.01195312 116 9 C116.01160156 9.61746094 116.02320313 10.23492187 116.03515625 10.87109375 C116.08894661 15.91970297 115.92444046 20.82368002 115.27734375 25.83203125 C115.0915947 27.28401325 114.9381839 28.74047797 114.81640625 30.19921875 C114.44335142 34.31804865 113.90156943 36.97227538 111 40 C111 37.59411466 111.70979414 35.99839035 112.5625 33.75 C113.96505902 29.6916695 113.84584573 27.22922865 113 23 C113.350625 22.01 113.70125 21.02 114.0625 20 C115.41997215 15.65608912 113.96348052 12.92696104 112 9 C104.74 9 97.48 9 90 9 C88.53691078 15.88512576 87.86947155 21.09121505 89 28 C88.67 28.66 88.34 29.32 88 30 C87.34 29.67 86.68 29.34 86 29 C86.495 28.505 86.495 28.505 87 28 C87.13961241 24.92852697 87.04131994 22.20659968 86.4375 19.1875 C86.293125 18.465625 86.14875 17.74375 86 17 C86.33 16.67 86.66 16.34 87 16 C87.04063832 14.33382885 87.042721 12.66611905 87 11 C86.34 11 85.68 11 85 11 C84.505 9.515 84.505 9.515 84 8 C78.21590487 7.97529951 72.43184038 7.95713977 66.64770508 7.94506836 C64.67960068 7.9400365 62.71150003 7.93321042 60.7434082 7.92456055 C57.91616899 7.91244483 55.08897916 7.90676024 52.26171875 7.90234375 C50.93970711 7.89460182 50.93970711 7.89460182 49.59098816 7.88670349 C48.3600518 7.88659019 48.3600518 7.88659019 47.10424805 7.88647461 C46.38254929 7.884254 45.66085052 7.88203339 44.9172821 7.87974548 C42.77773199 7.93174401 42.77773199 7.93174401 40 9 C39.19078631 11.69737896 38.54117383 14.25209793 38 17 C37.7215625 18.2065625 37.7215625 18.2065625 37.4375 19.4375 C36.97731213 21.91344677 36.97731213 21.91344677 36.82421875 24.09375 C36.40332248 29.04547086 35.57856056 32.62765819 33 37 C32.01 37 31.02 37 30 37 C30.639375 36.29875 31.27875 35.5975 31.9375 34.875 C34.20191565 31.71854182 34.59487586 29.80816696 35 26 C35.20625 25.319375 35.4125 24.63875 35.625 23.9375 C36.15393796 21.88232882 36.15393796 21.88232882 35.4375 19.375 C35.293125 18.59125 35.14875 17.8075 35 17 C35.66 16.34 36.32 15.68 37 15 C36.67801034 11.90073181 36.67801034 11.90073181 36 9 C34.51113281 8.94392578 34.51113281 8.94392578 32.9921875 8.88671875 C10.69180146 7.87331587 10.69180146 7.87331587 2 3 Z " fill="#101010" transform="translate(429,216)"/>
<path d="M0 0 C2.9375 1.375 2.9375 1.375 5 3 C5 3.66 5 4.32 5 5 C5.99 5.33 6.98 5.66 8 6 C9.140625 8.625 9.140625 8.625 10.25 12 C12.24931124 17.51617197 14.58145931 21.44609369 18.30859375 25.921875 C27.98407601 37.80953449 31.73914789 54.06542415 33 69 C33.78117187 69.29777344 34.56234375 69.59554687 35.3671875 69.90234375 C37.96549813 70.98561569 39.78086606 72.29866398 42 74 C44.98859187 74.99619729 47.11505278 75.16648129 50.2421875 75.24609375 C51.84513672 75.29540039 51.84513672 75.29540039 53.48046875 75.34570312 C55.67312382 75.40499817 57.86583064 75.46242273 60.05859375 75.51757812 C66.17144891 75.70883038 72.18365433 76.09903228 78.26197815 76.75440979 C90.85536503 78.10141863 103.28408862 78.17062149 115.9375 78 C140.98911527 77.66632273 140.98911527 77.66632273 153 80 C153.20133545 79.32888184 153.4026709 78.65776367 153.61010742 77.96630859 C155.625 71.25 155.625 71.25 159 69 C162.4375 68.5 162.4375 68.5 166 69 C168.59638668 71.59638668 169.98864837 73.41644722 170.015625 77.1796875 C169.7790576 79.13484747 169.3990155 81.07142507 169 83 C169.598125 83.2475 170.19625 83.495 170.8125 83.75 C173.44496795 85.2542674 174.5540968 86.32507908 176 89 C176.3125 92.625 176.3125 92.625 176 96 C174 98 174 98 171.375 98.125 C170.59125 98.08375 169.8075 98.0425 169 98 C169.33 97.01 169.66 96.02 170 95 C170.99 95 171.98 95 173 95 C172.28564795 90.2036919 172.28564795 90.2036919 169.30859375 86.64453125 C167.58340249 85.67912119 165.79400985 84.83056012 164 84 C164.23396484 83.06027344 164.23396484 83.06027344 164.47265625 82.1015625 C164.76462891 80.87566406 164.76462891 80.87566406 165.0625 79.625 C165.25972656 78.81289062 165.45695313 78.00078125 165.66015625 77.1640625 C166.22109319 74.95838716 166.22109319 74.95838716 165 73 C162.69 73 160.38 73 158 73 C157.9175 74.27875 157.835 75.5575 157.75 76.875 C157.609375 79.0546875 157.609375 79.0546875 157 81 C153.59376197 83.34181989 151.02041175 83.06249802 147.00390625 82.6484375 C139.65715435 82.00815438 132.33723587 81.860387 124.96484375 81.7890625 C122.5183915 81.76265355 120.07193969 81.73620393 117.62548828 81.7097168 C116.36867249 81.69645355 115.11185669 81.68319031 113.81695557 81.66952515 C94.72720709 81.45042898 75.6671937 81.11506911 56.625 79.6875 C55.84067596 79.63450745 55.05635193 79.58151489 54.2482605 79.5269165 C52.07212259 79.37569076 49.89985236 79.19907272 47.7265625 79.01171875 C46.53627441 78.91334717 45.34598633 78.81497559 44.11962891 78.71362305 C40.48884921 77.88307296 38.763933 76.43662125 36 74 C34.95199219 73.62230469 33.90398437 73.24460937 32.82421875 72.85546875 C29.58969724 70.73043733 29.47196559 70.21587047 28.64453125 66.61328125 C28.34082 64.85069498 28.06436674 63.08323827 27.8125 61.3125 C26.78325168 54.82584199 25.48650734 49.09259391 23 43 C22.70738281 42.14792969 22.41476562 41.29585937 22.11328125 40.41796875 C19.34043174 32.6945684 14.94014758 24.62676506 8 20 C7.2265625 17.57421875 7.2265625 17.57421875 6.625 14.6875 C5.40032026 9.85223593 4.29325791 6.89545301 0 4 C-3.08681086 3.16600125 -3.08681086 3.16600125 -6 4 C-9.25824681 7.93236684 -10 11.99983601 -10 17 C-10.6297876 17.05534912 -11.2595752 17.11069824 -11.90844727 17.16772461 C-14.79330688 17.42237236 -17.67790132 17.67991392 -20.5625 17.9375 C-21.55314453 18.02451172 -22.54378906 18.11152344 -23.56445312 18.20117188 C-28.73763531 18.66521147 -33.86752079 19.20097448 -39 20 C-39.18175781 19.15695313 -39.36351562 18.31390625 -39.55078125 17.4453125 C-39.80214844 16.34960938 -40.05351562 15.25390625 -40.3125 14.125 C-40.55613281 13.03445312 -40.79976562 11.94390625 -41.05078125 10.8203125 C-41.77902058 7.70557647 -41.77902058 7.70557647 -45 6 C-48.12521833 5.83300768 -48.12521833 5.83300768 -51 6 C-54.13902852 12.80122845 -54.33452052 18.56621057 -54 26 C-54.73605469 26.24234375 -55.47210938 26.4846875 -56.23046875 26.734375 C-65.73772329 29.99974644 -71.56908175 34.11842586 -76.75 43 C-80.73508043 52.56419304 -80.35847092 65.246649 -76.91015625 74.91796875 C-74.35248217 80.76878541 -71.43035743 83.74813684 -66 87 C-63.44401706 87.98642412 -60.98979416 88.8512667 -58.375 89.625 C-57.68148437 89.83664795 -56.98796875 90.0482959 -56.2734375 90.26635742 C-50.26337062 92.04300058 -44.21868682 93.21088633 -38 94 C-38 98.29182103 -38.20358855 98.71772766 -40.75 101.8125 C-42.78692676 104.38017528 -44.57284518 106.86299204 -46.125 109.75 C-47.88387677 112.79871973 -49.21528946 114.87051547 -52 117 C-53.9896995 117.39013716 -55.99019869 117.73202649 -58 118 C-59.36952673 120.73905345 -59.12621361 122.97087332 -59 126 C-58.505 126.99 -58.505 126.99 -58 128 C-55.5622037 128.05397335 -53.12560315 128.09365616 -50.6875 128.125 C-49.65206055 128.15013672 -49.65206055 128.15013672 -48.59570312 128.17578125 C-44.82864604 128.21217794 -43.21568296 128.14378864 -40 126 C-40.27034634 123.56282742 -40.27034634 123.56282742 -41 121 C-41.99 120.34 -42.98 119.68 -44 119 C-43.505 117.515 -43.505 117.515 -43 116 C-40.03984568 117.48007716 -38.30316493 118.47635149 -36.625 121.375 C-35.90017321 124.41927252 -35.91818531 126.06364585 -37 129 C-39.42723402 131.43306872 -40.78662396 131.9760916 -44.2421875 132.36328125 C-46.04042969 132.33814453 -46.04042969 132.33814453 -47.875 132.3125 C-49.06867188 132.30863281 -50.26234375 132.30476562 -51.4921875 132.30078125 C-55.04280263 131.99632984 -57.76140676 131.48710914 -61 130 C-63.16529529 127.13524134 -63.19854987 124.92556544 -62.75 121.4375 C-62.66234375 120.67308594 -62.5746875 119.90867187 -62.484375 119.12109375 C-62 117 -62 117 -60 114 C-58.88625 113.87625 -57.7725 113.7525 -56.625 113.625 C-52.96715797 113.33754816 -52.96715797 113.33754816 -50.875 111 C-48.84605431 107.7536869 -46.95635572 104.45995049 -45.1484375 101.0859375 C-44 99 -44 99 -42 96 C-42.71285156 95.96261719 -43.42570312 95.92523438 -44.16015625 95.88671875 C-50.10209101 95.47886051 -54.56125995 94.56544342 -60 92 C-61.30786251 91.70759172 -62.62088335 91.4375551 -63.9375 91.1875 C-70.00712978 89.76143164 -74.31996026 85.95247862 -78.3125 81.3125 C-83.47206765 71.18445979 -84.81656215 59.43356354 -82.109375 48.35546875 C-78.60378313 37.7522877 -73.42493911 30.68839097 -63.625 25.0625 C-61.77382403 24.31321449 -59.89458521 23.6315284 -58 23 C-58.0825 21.741875 -58.165 20.48375 -58.25 19.1875 C-58.27792719 13.33210011 -56.35718694 8.30130396 -54 3 C-53 2 -53 2 -49.3125 1.6875 C-44.88534477 1.7431375 -42.39396767 3.09088485 -39 6 C-36.64264672 9.21457266 -36.82257311 12.09660847 -37 16 C-35.989375 15.835 -34.97875 15.67 -33.9375 15.5 C-27.33558292 14.65237593 -20.6431304 14.92215082 -14 15 C-13.896875 13.783125 -13.79375 12.56625 -13.6875 11.3125 C-13.21780277 7.57476849 -12.32634716 5.04214629 -10 2 C-6.27420911 -0.48386059 -4.41288598 -0.3804212 0 0 Z " fill="#191919" transform="translate(245,153)"/>
<path d="M0 0 C14.00156133 -0.57012346 27.71156509 3.66856069 40.82421875 8.2421875 C40.82421875 8.5721875 40.82421875 8.9021875 40.82421875 9.2421875 C33.41134211 9.85708049 27.2765926 8.46528728 20.21875 6.21484375 C13.42380994 4.26784712 6.89114812 4.11044219 -0.11328125 4.1796875 C-0.98791016 4.18419922 -1.86253906 4.18871094 -2.76367188 4.19335938 C-4.90107172 4.20503916 -7.03843588 4.22297061 -9.17578125 4.2421875 C-7.09438848 8.43660515 -4.95976577 12.46894246 -2.17578125 16.2421875 C1.44598459 17.46486458 1.44598459 17.46486458 4.82421875 17.2421875 C6.76171875 18.3671875 6.76171875 18.3671875 7.82421875 20.2421875 C8.51171875 23.4921875 8.51171875 23.4921875 7.82421875 27.2421875 C4.70708461 30.89327517 1.3956419 33.71837978 -3.17578125 35.2421875 C-4.86035225 35.35958872 -6.54967002 35.41725295 -8.23828125 35.4296875 C-9.11613281 35.44386719 -9.99398437 35.45804687 -10.8984375 35.47265625 C-13.17578125 35.2421875 -13.17578125 35.2421875 -15.17578125 33.2421875 C-14.9765625 30.59765625 -14.9765625 30.59765625 -14.48828125 27.4296875 C-13.89350244 22.47132003 -13.89350244 22.47132003 -16.30078125 18.1796875 C-18.88652082 16.43712388 -21.43490861 14.73008979 -24.17578125 13.2421875 C-24.26988281 13.80421875 -24.36398437 14.36625 -24.4609375 14.9453125 C-25.35172215 17.80750581 -26.76450007 19.63989211 -28.61328125 21.9921875 C-29.23074219 22.79140625 -29.84820312 23.590625 -30.484375 24.4140625 C-31.32162109 25.31898438 -31.32162109 25.31898438 -32.17578125 26.2421875 C-32.83578125 26.2421875 -33.49578125 26.2421875 -34.17578125 26.2421875 C-34.28535156 26.91765625 -34.39492188 27.593125 -34.5078125 28.2890625 C-34.66636719 29.18109375 -34.82492187 30.073125 -34.98828125 30.9921875 C-35.21451172 32.31476563 -35.21451172 32.31476563 -35.4453125 33.6640625 C-36.24556952 36.48849906 -37.18305599 38.09988722 -39.17578125 40.2421875 C-42.89205252 41.48094459 -46.32072956 41.9273627 -50.17578125 41.2421875 C-53.21300322 38.79920462 -55.02002558 36.475821 -57.17578125 33.2421875 C-57.03678984 29.41992369 -56.7209448 27.00945472 -54.48828125 23.8671875 C-51.7099915 21.91487579 -49.52700381 21.5468441 -46.17578125 21.2421875 C-46.09328125 20.3553125 -46.01078125 19.4684375 -45.92578125 18.5546875 C-45.07375498 14.79157147 -43.62777172 13.15392618 -41.17578125 10.2421875 C-40.53685625 8.15691956 -40.53685625 8.15691956 -40.17578125 6.2421875 C-41.14915939 6.24662872 -42.12253754 6.25106995 -43.12541199 6.25564575 C-52.34836995 6.29638464 -61.57130938 6.32626377 -70.79433727 6.34581184 C-75.53472361 6.35619989 -80.27503668 6.37026691 -85.01538086 6.39306641 C-89.5995333 6.41497391 -94.18361575 6.42679345 -98.76781654 6.43194199 C-100.50709445 6.43560588 -102.246369 6.4427594 -103.98561668 6.45364761 C-113.94042964 6.51342641 -123.37268509 6.17523097 -133.17578125 4.2421875 C-132.49515625 5.7271875 -132.49515625 5.7271875 -131.80078125 7.2421875 C-129.5626221 12.47163045 -128.17578125 17.50846739 -128.17578125 23.2421875 C-126.50515625 23.3659375 -126.50515625 23.3659375 -124.80078125 23.4921875 C-121.17578125 24.2421875 -121.17578125 24.2421875 -119.67578125 25.9921875 C-119.00444881 29.01318346 -118.99789777 30.33212243 -120.17578125 33.2421875 C-123.74171707 36.93293108 -127.06546158 40.07336193 -132.30078125 40.4921875 C-136.86807868 40.19752315 -139.97658878 39.01026854 -144.17578125 37.2421875 C-144.32929085 33.40444752 -144.41894408 30.77272459 -142.80078125 27.2421875 C-141.84854929 24.35123416 -141.84854929 24.35123416 -143.203125 22.48828125 C-144.77788364 20.63303125 -146.42610706 18.93288391 -148.17578125 17.2421875 C-148.67722656 16.72914063 -149.17867187 16.21609375 -149.6953125 15.6875 C-150.83804062 14.52171972 -152.00437144 13.37914408 -153.17578125 12.2421875 C-153.17578125 12.9021875 -153.17578125 13.5621875 -153.17578125 14.2421875 C-154.08328125 14.8403125 -154.99078125 15.4384375 -155.92578125 16.0546875 C-160.11307735 18.87305988 -162.40589577 22.08735928 -165.17578125 26.2421875 C-166.16578125 26.2421875 -167.15578125 26.2421875 -168.17578125 26.2421875 C-167.54060186 20.73729949 -163.140303 16.9316378 -159.05078125 13.6171875 C-156.60991255 11.60081771 -154.91587765 9.8523321 -153.17578125 7.2421875 C-151.42578125 7.3046875 -151.42578125 7.3046875 -149.17578125 8.2421875 C-148.13396058 9.93514609 -147.10030394 11.63663034 -146.1796875 13.3984375 C-144.42593256 16.61934152 -142.23590119 19.40140272 -139.36328125 21.6796875 C-138.17578125 23.2421875 -138.17578125 23.2421875 -138.42578125 26.0546875 C-138.67328125 27.1065625 -138.92078125 28.1584375 -139.17578125 29.2421875 C-139.36140625 30.3559375 -139.54703125 31.4696875 -139.73828125 32.6171875 C-139.88265625 33.4834375 -140.02703125 34.3496875 -140.17578125 35.2421875 C-136.45962093 36.4313588 -133.05480623 36.58245285 -129.17578125 36.2421875 C-126.26222016 34.46871553 -124.60758561 33.29085524 -123.30078125 30.1171875 C-123.01092661 28.15046387 -123.01092661 28.15046387 -124.17578125 26.2421875 C-125.305 26.02304687 -126.43421875 25.80390625 -127.59765625 25.578125 C-128.7784375 25.13726562 -129.95921875 24.69640625 -131.17578125 24.2421875 C-132.34141624 21.56624051 -132.93775198 19.66805115 -133.42578125 16.8671875 C-134.36606761 11.63838499 -134.36606761 11.63838499 -136.84765625 7.015625 C-137.2859375 6.43039063 -137.72421875 5.84515625 -138.17578125 5.2421875 C-137.75878906 3.13134766 -137.75878906 3.13134766 -137.17578125 1.2421875 C-136.50164027 1.31305793 -135.82749929 1.38392836 -135.1329298 1.45694637 C-128.67889181 2.09554309 -122.32190254 2.38201404 -115.83911133 2.35571289 C-114.87190155 2.35585892 -113.90469177 2.35600494 -112.90817261 2.3561554 C-109.753862 2.35546619 -106.59961261 2.34772092 -103.4453125 2.33984375 C-101.24142997 2.33797604 -99.03754703 2.3365538 -96.83366394 2.33555603 C-91.06504141 2.33175867 -85.29644451 2.32195246 -79.52783203 2.31085205 C-73.62858425 2.30057781 -67.72933229 2.29604558 -61.83007812 2.29101562 C-50.27863464 2.28032742 -38.72721009 2.26328482 -27.17578125 2.2421875 C-26.84578125 3.2321875 -26.51578125 4.2221875 -26.17578125 5.2421875 C-30.63078125 5.7371875 -30.63078125 5.7371875 -35.17578125 6.2421875 C-35.17578125 6.9021875 -35.17578125 7.5621875 -35.17578125 8.2421875 C-35.83578125 8.2421875 -36.49578125 8.2421875 -37.17578125 8.2421875 C-37.33046875 9.1084375 -37.33046875 9.1084375 -37.48828125 9.9921875 C-38.17578125 12.2421875 -38.17578125 12.2421875 -39.61328125 14.0546875 C-41.44143946 16.28331343 -41.44143946 16.28331343 -41.80078125 19.7421875 C-43.17578125 23.2421875 -43.17578125 23.2421875 -45.265625 24.37109375 C-46.89666618 24.98692131 -48.52816746 25.60153183 -50.16015625 26.21484375 C-52.51089128 27.14457671 -52.51089128 27.14457671 -53.48828125 30.2421875 C-53.40298627 33.29348421 -53.40298627 33.29348421 -51.61328125 35.6171875 C-48.53312479 37.67062514 -46.81386305 37.70662347 -43.17578125 37.2421875 C-42.18578125 36.5821875 -41.19578125 35.9221875 -40.17578125 35.2421875 C-40.67078125 31.7771875 -40.67078125 31.7771875 -41.17578125 28.2421875 C-39.93828125 27.5615625 -39.93828125 27.5615625 -38.67578125 26.8671875 C-32.19086745 22.5541807 -27.17362578 15.36206825 -24.17578125 8.2421875 C-20.98871183 9.67780436 -18.5540902 11.44485079 -15.92578125 13.7421875 C-15.219375 14.350625 -14.51296875 14.9590625 -13.78515625 15.5859375 C-12.17578125 17.2421875 -12.17578125 17.2421875 -12.17578125 19.2421875 C-11.51578125 19.2421875 -10.85578125 19.2421875 -10.17578125 19.2421875 C-9.55078125 21.5546875 -9.55078125 21.5546875 -9.17578125 24.2421875 C-10.16578125 25.7271875 -10.16578125 25.7271875 -11.17578125 27.2421875 C-11.56078016 28.89768281 -11.9037126 30.5644308 -12.17578125 32.2421875 C-5.56603261 31.94842089 -1.0011269 31.06753315 3.82421875 26.2421875 C3.86485707 24.57601635 3.86693975 22.90830655 3.82421875 21.2421875 C1.18421875 21.2421875 -1.45578125 21.2421875 -4.17578125 21.2421875 C-4.54703125 20.4378125 -4.91828125 19.6334375 -5.30078125 18.8046875 C-7.88968873 13.61448542 -11.06666418 8.35130457 -15.17578125 4.2421875 C-15.17578125 3.2521875 -15.17578125 2.2621875 -15.17578125 1.2421875 C-10.12384679 0.72404038 -5.06303874 0.3861112 0 0 Z " fill="#181818" transform="translate(373.17578125,243.7578125)"/>
<path d="M0 0 C2.9375 1.375 2.9375 1.375 5 3 C5 3.66 5 4.32 5 5 C5.99 5.33 6.98 5.66 8 6 C9.140625 8.625 9.140625 8.625 10.25 12 C12.24137841 17.49428502 14.53711694 21.43139796 18.2890625 25.86328125 C22.93542938 31.66593578 26.16116461 37.58642778 26 45 C25.67 44.34 25.34 43.68 25 43 C24.34 43 23.68 43 23 43 C22.8040625 42.40574219 22.608125 41.81148437 22.40625 41.19921875 C19.52077586 33.20197793 15.22398478 24.81598986 8 20 C7.2265625 17.57421875 7.2265625 17.57421875 6.625 14.6875 C5.40032026 9.85223593 4.29325791 6.89545301 0 4 C-3.08681086 3.16600125 -3.08681086 3.16600125 -6 4 C-9.25824681 7.93236684 -10 11.99983601 -10 17 C-10.6297876 17.05534912 -11.2595752 17.11069824 -11.90844727 17.16772461 C-14.79330688 17.42237236 -17.67790132 17.67991392 -20.5625 17.9375 C-21.55314453 18.02451172 -22.54378906 18.11152344 -23.56445312 18.20117188 C-28.73763531 18.66521147 -33.86752079 19.20097448 -39 20 C-39.18175781 19.15695313 -39.36351562 18.31390625 -39.55078125 17.4453125 C-39.80214844 16.34960938 -40.05351562 15.25390625 -40.3125 14.125 C-40.55613281 13.03445312 -40.79976562 11.94390625 -41.05078125 10.8203125 C-41.77902058 7.70557647 -41.77902058 7.70557647 -45 6 C-48.12521833 5.83300768 -48.12521833 5.83300768 -51 6 C-51.65134925 7.56020867 -52.29582964 9.12328579 -52.9375 10.6875 C-53.29714844 11.55761719 -53.65679687 12.42773438 -54.02734375 13.32421875 C-54.9570312 15.88179265 -55.54162625 18.3221323 -56 21 C-56.33 21 -56.66 21 -57 21 C-57.55253221 13.64825194 -56.51064108 8.488417 -53 2 C-46.94238206 1.58223325 -43.80974903 1.87735797 -39 6 C-36.64264672 9.21457266 -36.82257311 12.09660847 -37 16 C-35.4840625 15.7525 -35.4840625 15.7525 -33.9375 15.5 C-27.33558292 14.65237593 -20.6431304 14.92215082 -14 15 C-13.896875 13.783125 -13.79375 12.56625 -13.6875 11.3125 C-13.21780277 7.57476849 -12.32634716 5.04214629 -10 2 C-6.27420911 -0.48386059 -4.41288598 -0.3804212 0 0 Z " fill="#171717" transform="translate(245,153)"/>
<path d="M0 0 C0.495 1.485 0.495 1.485 1 3 C-3.455 3.495 -3.455 3.495 -8 4 C-8 4.66 -8 5.32 -8 6 C-9.65 6.66 -11.3 7.32 -13 8 C-13 6.68 -13 5.36 -13 4 C-35.44 4 -57.88 4 -81 4 C-80.67 3.01 -80.34 2.02 -80 1 C-53.33600764 -0.18352746 -26.68497814 -0.10872105 0 0 Z " fill="#181818" transform="translate(346,246)"/>
<path d="M0 0 C1.75 0.0625 1.75 0.0625 4 1 C5.04182067 2.69295859 6.07547731 4.39444284 6.99609375 6.15625 C8.74984869 9.37715402 10.93988006 12.15921522 13.8125 14.4375 C15 16 15 16 14.8125 18.8125 C12.56692913 27.62204724 12.56692913 27.62204724 9 30 C8.8464904 26.16226002 8.75683717 23.53053709 10.375 20 C11.32723196 17.10904666 11.32723196 17.10904666 9.97265625 15.24609375 C8.39789761 13.39084375 6.74967419 11.69069641 5 10 C4.49855469 9.48695313 3.99710938 8.97390625 3.48046875 8.4453125 C2.33774063 7.27953222 1.17140981 6.13695658 0 5 C0 5.66 0 6.32 0 7 C-0.9075 7.598125 -1.815 8.19625 -2.75 8.8125 C-6.9372961 11.63087238 -9.23011452 14.84517178 -12 19 C-12.99 19 -13.98 19 -15 19 C-14.36482061 13.49511199 -9.96452175 9.6894503 -5.875 6.375 C-3.4341313 4.35863021 -1.7400964 2.6101446 0 0 Z " fill="#181818" transform="translate(220,251)"/>
<path d="M0 0 C1.70736328 0.03673828 1.70736328 0.03673828 3.44921875 0.07421875 C6.3125 0.3125 6.3125 0.3125 8.3125 1.3125 C8.3125 1.9725 8.3125 2.6325 8.3125 3.3125 C7.43207031 3.36148438 6.55164063 3.41046875 5.64453125 3.4609375 C3.90236328 3.57308594 3.90236328 3.57308594 2.125 3.6875 C0.97644531 3.75710937 -0.17210937 3.82671875 -1.35546875 3.8984375 C-4.48709117 4.28759574 -6.84035809 4.9934851 -9.6875 6.3125 C-9.93709784 8.3934844 -10.16144907 10.47750812 -10.375 12.5625 C-10.56642578 14.30273438 -10.56642578 14.30273438 -10.76171875 16.078125 C-10.90305186 19.25841272 -10.90305186 19.25841272 -9.59375 21.6875 C-6.93753431 23.95181501 -4.95011382 23.91410801 -1.5 24.0625 C0.13001953 24.14757812 0.13001953 24.14757812 1.79296875 24.234375 C3.04013672 24.27304688 3.04013672 24.27304688 4.3125 24.3125 C4.6425 25.3025 4.9725 26.2925 5.3125 27.3125 C-7.31574824 27.71696347 -7.31574824 27.71696347 -11.6875 25.3125 C-14.82373451 20.92177169 -15.43161217 16.5824451 -14.6875 11.3125 C-12.15853645 3.32629931 -8.51643072 -0.28161515 0 0 Z " fill="#171717" transform="translate(203.6875,193.6875)"/>
<path d="M0 0 C0.33 0.99 0.66 1.98 1 3 C1.66 3 2.32 3 3 3 C3.21914063 3.95261719 3.43828125 4.90523437 3.6640625 5.88671875 C5.38891549 13.98459627 5.38891549 13.98459627 10.25 20.375 C11.1575 20.91125 12.065 21.4475 13 22 C13.144375 21.2575 13.28875 20.515 13.4375 19.75 C13.90187492 17.47972261 14.41863569 15.24240521 15 13 C17.31 13.33 19.62 13.66 22 14 C22 14.66 22 15.32 22 16 C21.38125 16.4125 20.7625 16.825 20.125 17.25 C17.36840385 19.52013801 17.04983163 21.64053879 16 25 C14.5 26.875 14.5 26.875 13 28 C12.34 28 11.68 28 11 28 C10.01 30.475 10.01 30.475 9 33 C8.67 33 8.34 33 8 33 C7.98582031 32.3709375 7.97164063 31.741875 7.95703125 31.09375 C7.63073728 25.23809599 6.53814961 21.66177502 3.2109375 16.86328125 C-0.21664757 11.58922294 -0.21195647 6.04075942 0 0 Z " fill="#131313" transform="translate(424,226)"/>
<path d="M0 0 C3 2 3 2 3.51171875 4.3828125 C3.56972656 5.28773438 3.62773437 6.19265625 3.6875 7.125 C3.78611328 8.49011719 3.78611328 8.49011719 3.88671875 9.8828125 C3.92410156 10.58148438 3.96148437 11.28015625 4 12 C3.26394531 12.24234375 2.52789062 12.4846875 1.76953125 12.734375 C-7.73772329 15.99974644 -13.56908175 20.11842586 -18.75 29 C-20.01188411 32.02852186 -20.4756423 34.77894558 -21 38 C-21.99 38.495 -21.99 38.495 -23 39 C-23.47001033 42.27555608 -23.47001033 42.27555608 -23.625 46.0625 C-23.69976562 47.35285156 -23.77453125 48.64320313 -23.8515625 49.97265625 C-23.90054688 50.97167969 -23.94953125 51.97070312 -24 53 C-24.33 53 -24.66 53 -25 53 C-25.05454409 50.64551325 -25.0939279 48.29232125 -25.125 45.9375 C-25.14820313 44.62652344 -25.17140625 43.31554687 -25.1953125 41.96484375 C-24.71511504 32.21683521 -20.76141221 23.15544317 -13.5625 16.5625 C-9.32857345 13.06827775 -5.21124854 10.73708285 0 9 C0 6.03 0 3.06 0 0 Z " fill="#202020" transform="translate(187,167)"/>
<path d="M0 0 C2.59638668 2.59638668 3.98864837 4.41644722 4.015625 8.1796875 C3.7790576 10.13484747 3.3990155 12.07142507 3 14 C3.598125 14.2475 4.19625 14.495 4.8125 14.75 C7.44496795 16.2542674 8.5540968 17.32507908 10 20 C10.3125 23.625 10.3125 23.625 10 27 C8 29 8 29 5.375 29.125 C4.59125 29.08375 3.8075 29.0425 3 29 C3.33 28.01 3.66 27.02 4 26 C4.99 26 5.98 26 7 26 C6.28564795 21.2036919 6.28564795 21.2036919 3.30859375 17.64453125 C1.58340249 16.67912119 -0.20599015 15.83056012 -2 15 C-1.84402344 14.37351563 -1.68804687 13.74703125 -1.52734375 13.1015625 C-1.33269531 12.28429687 -1.13804687 11.46703125 -0.9375 10.625 C-0.74027344 9.81289062 -0.54304688 9.00078125 -0.33984375 8.1640625 C0.22109319 5.95838716 0.22109319 5.95838716 -1 4 C-3.31 4 -5.62 4 -8 4 C-8.33 6.64 -8.66 9.28 -9 12 C-9.99 11.67 -10.98 11.34 -12 11 C-11.51714678 3.63648834 -11.51714678 3.63648834 -9.375 1 C-5.94686222 -0.44342643 -3.67732574 -0.59099878 0 0 Z " fill="#1B1B1B" transform="translate(411,222)"/>
<path d="M0 0 C2.96015432 1.48007716 4.69683507 2.47635149 6.375 5.375 C7.09982679 8.41927252 7.08181469 10.06364585 6 13 C3.57276598 15.43306872 2.21337604 15.9760916 -1.2421875 16.36328125 C-2.44101563 16.34652344 -3.63984375 16.32976562 -4.875 16.3125 C-6.06867188 16.30863281 -7.26234375 16.30476563 -8.4921875 16.30078125 C-11.99293764 16.00060557 -14.75916831 15.33756219 -18 14 C-20.44427276 10.88910739 -20.17460721 7.84135867 -20 4 C-19.01 3.67 -18.02 3.34 -17 3 C-16.34 5.97 -15.68 8.94 -15 12 C-12.5622037 12.05397335 -10.12560315 12.09365616 -7.6875 12.125 C-6.65206055 12.15013672 -6.65206055 12.15013672 -5.59570312 12.17578125 C-1.82864604 12.21217794 -0.21568296 12.14378864 3 10 C2.72965366 7.56282742 2.72965366 7.56282742 2 5 C1.01 4.34 0.02 3.68 -1 3 C-0.67 2.01 -0.34 1.02 0 0 Z " fill="#1F1F1F" transform="translate(202,269)"/>
<path d="M0 0 C0.33 0 0.66 0 1 0 C1.50588674 8.09418785 -0.88682972 14.6430856 -6 21 C-9.37910814 24.64092766 -12.09547378 26.90897485 -17.1875 27.15234375 C-20.16546891 26.90300909 -23.06154998 26.53871584 -26 26 C-25 24 -25 24 -22.25 22.8125 C-19 22 -19 22 -16.5 22.6875 C-13.74666541 23.30521575 -13.74666541 23.30521575 -10.9375 21 C-5.5370475 15.94573035 -3.49663324 10.00430842 -1.61328125 3.0390625 C-1 1 -1 1 0 0 Z " fill="#060606" transform="translate(603,256)"/>
<path d="M0 0 C1.875 0.6875 1.875 0.6875 4 2 C4.29390625 2.7425 4.5878125 3.485 4.890625 4.25 C6.15344661 7.38037469 7.82313533 9.63733305 9.875 12.3125 C18.76603539 24.33964606 18.76603539 24.33964606 18 32 C17.67 31.34 17.34 30.68 17 30 C16.34 30 15.68 30 15 30 C14.8040625 29.40574219 14.608125 28.81148437 14.40625 28.19921875 C11.52077586 20.20197793 7.22398478 11.81598986 0 7 C-0.1875 3.375 -0.1875 3.375 0 0 Z " fill="#0E0E0E" transform="translate(253,166)"/>
<path d="M0 0 C5.94 0 11.88 0 18 0 C18 0.33 18 0.66 18 1 C27.57 1.33 37.14 1.66 47 2 C47 2.33 47 2.66 47 3 C31.16 3 15.32 3 -1 3 C-0.67 2.01 -0.34 1.02 0 0 Z " fill="#363636" transform="translate(266,247)"/>
<path d="M0 0 C0.33 0 0.66 0 1 0 C1.5 3.0625 1.5 3.0625 1 7 C-2.08711883 10.66280532 -5.4426685 13.4808895 -10 15 C-11.684571 15.11740122 -13.37388877 15.17506545 -15.0625 15.1875 C-16.37927734 15.20876953 -16.37927734 15.20876953 -17.72265625 15.23046875 C-20 15 -20 15 -22 13 C-22.125 9.875 -22.125 9.875 -22 7 C-20.515 7.99 -20.515 7.99 -19 9 C-19 9.99 -19 10.98 -19 12 C-11.81702143 11.77196893 -6.2006669 10.24710143 -1 5 C-0.19763806 2.39061448 -0.19763806 2.39061448 0 0 Z " fill="#252525" transform="translate(380,264)"/>
<path d="M0 0 C0.99 0 1.98 0 3 0 C2.7416116 3.48824341 1.73533264 4.24214247 -0.9375 6.6875 C-5.35002036 10.01940313 -7.44502458 10.36426068 -13 10 C-15.46754057 9.17748648 -17.65456147 8.14878622 -20 7 C-20 5.02 -20 3.04 -20 1 C-19.67 2.32 -19.34 3.64 -19 5 C-16.94099907 5.27734712 -14.87741707 5.52081942 -12.8125 5.75 C-11.08966797 5.95882813 -11.08966797 5.95882813 -9.33203125 6.171875 C-5.25086757 5.96135776 -3.84523242 4.85043395 -1 2 C-0.67 1.34 -0.34 0.68 0 0 Z " fill="#111111" transform="translate(250,274)"/>
<path d="M0 0 C0.66 0.66 1.32 1.32 2 2 C1.67 2.680625 1.34 3.36125 1 4.0625 C-0.18453566 6.99578446 -0.18453566 6.99578446 0.0625 10.25 C-0.02360065 15.41603921 -1.03554646 20.83957907 -4.60546875 24.765625 C-5.06566406 25.17296875 -5.52585937 25.5803125 -6 26 C-6.99 25.67 -7.98 25.34 -9 25 C-8.360625 24.13375 -7.72125 23.2675 -7.0625 22.375 C-4.99019986 18.98396341 -4.42247465 16.88676677 -4 13 C-3.79375 12.319375 -3.5875 11.63875 -3.375 10.9375 C-2.83067246 8.89287506 -2.83067246 8.89287506 -3.6875 6.5 C-3.790625 5.675 -3.89375 4.85 -4 4 C-2.0625 1.6875 -2.0625 1.6875 0 0 Z " fill="#000000" transform="translate(467,229)"/>
<path d="M0 0 C3 2 3 2 3.66015625 3.875 C3.79292969 4.57625 3.92570313 5.2775 4.0625 6 C4.71030055 9.37755496 4.71030055 9.37755496 7 12 C9.89223503 12.46396693 9.89223503 12.46396693 13.125 12.625 C14.76855469 12.73714844 14.76855469 12.73714844 16.4453125 12.8515625 C17.28835937 12.90054688 18.13140625 12.94953125 19 13 C19.33 13.99 19.66 14.98 20 16 C7.37175176 16.40446347 7.37175176 16.40446347 3 14 C-0.3296668 9.33846648 -0.28463992 5.5030385 0 0 Z " fill="#232323" transform="translate(189,205)"/>
<path d="M0 0 C2.60427663 2.60427663 2.50528695 4.39566205 3 8 C3.32871094 9.1446875 3.32871094 9.1446875 3.6640625 10.3125 C4.10572171 13.84577369 3.19396203 15.92627731 1.8125 19.1875 C1.38582031 20.23292969 0.95914063 21.27835938 0.51953125 22.35546875 C-1.09002716 25.15667966 -2.00308155 25.95396637 -5 27 C-4.00734643 24.46170776 -2.98445893 21.96695587 -1.82421875 19.5 C-0.69196301 17.00981554 0.30720879 14.64839171 1 12 C-0.20968895 9.2332494 -0.20968895 9.2332494 -2 7 C-1.58333333 1.58333333 -1.58333333 1.58333333 0 0 Z " fill="#000000" transform="translate(584,231)"/>
<path d="M0 0 C0.99 0 1.98 0 3 0 C6.06446761 7.36897561 7.69121494 14.01790621 8 22 C7.34 22 6.68 22 6 22 C5.67 22.66 5.34 23.32 5 24 C4.80664062 22.89140625 4.61328125 21.7828125 4.4140625 20.640625 C4.15136511 19.17702524 3.88832633 17.71348673 3.625 16.25 C3.43550781 15.15558594 3.43550781 15.15558594 3.2421875 14.0390625 C2.57166763 10.35120322 1.7154963 7.31165374 0 4 C0 2.68 0 1.36 0 0 Z " fill="#212121" transform="translate(269,196)"/>
<path d="M0 0 C4.41110531 1.34783774 6.61650722 3.02751203 9 7 C9.375 10.6875 9.375 10.6875 9 14 C7 16 7 16 4.375 16.125 C3.59125 16.08375 2.8075 16.0425 2 16 C2.33 15.01 2.66 14.02 3 13 C3.99 13 4.98 13 6 13 C4.99042008 7.74944169 4.99042008 7.74944169 1.375 4.0625 C0.59125 3.711875 -0.1925 3.36125 -1 3 C-0.67 2.01 -0.34 1.02 0 0 Z " fill="#070707" transform="translate(412,235)"/>
<path d="M0 0 C0.33 0.99 0.66 1.98 1 3 C-7.58 3 -16.16 3 -25 3 C-25 2.34 -25 1.68 -25 1 C-16.64380043 0.24524649 -8.39004715 -0.13605482 0 0 Z " fill="#1D1D1D" transform="translate(219,227)"/>
<path d="M0 0 C2 2 2 2 2.01171875 4.3203125 C1.90472656 5.24585938 1.79773438 6.17140625 1.6875 7.125 C1.51927734 8.60226563 1.51927734 8.60226563 1.34765625 10.109375 C1.23292969 11.06328125 1.11820313 12.0171875 1 13 C0.93683594 13.76828125 0.87367188 14.5365625 0.80859375 15.328125 C0.42512106 19.6034375 -0.49052942 22.50856266 -3 26 C-3.99 25.34 -4.98 24.68 -6 24 C-5.34 23.34 -4.68 22.68 -4 22 C-3.27982196 19.71171706 -3.27982196 19.71171706 -2.8125 17.125 C-2.63332031 16.26132813 -2.45414063 15.39765625 -2.26953125 14.5078125 C-1.85548873 12.05460461 -1.85548873 12.05460461 -2.5390625 9.9453125 C-3.13919757 7.41253908 -2.55294951 6.12707883 -1.5625 3.75 C-1.27503906 3.04359375 -0.98757813 2.3371875 -0.69140625 1.609375 C-0.34916016 0.81273437 -0.34916016 0.81273437 0 0 Z " fill="#000000" transform="translate(544,231)"/>
<path d="M0 0 C0.99 0.33 1.98 0.66 3 1 C3 1.99 3 2.98 3 4 C-5.35748222 4.84327749 -13.60197746 5.12190678 -22 5 C-21.67 4.34 -21.34 3.68 -21 3 C-16.1975582 1.62787377 -11.13809154 1.64685211 -6.17578125 1.39453125 C-2.79809419 1.48340844 -2.79809419 1.48340844 0 0 Z " fill="#0A0A0A" transform="translate(232,166)"/>
<path d="M0 0 C1.875 0.1875 1.875 0.1875 4 1 C6.38879811 4.98133018 5.79447983 7.58622317 5 12 C5.2644354 14.34214207 5.58244638 16.68025766 6 19 C5.01 18.67 4.02 18.34 3 18 C0.62790698 11.22259136 0.62790698 11.22259136 1.875 7.125 C2.24625 6.42375 2.6175 5.7225 3 5 C3 4.34 3 3.68 3 3 C2.01 3 1.02 3 0 3 C0 2.01 0 1.02 0 0 Z " fill="#000000" transform="translate(563,253)"/>
<path d="M0 0 C0.99 0.33 1.98 0.66 3 1 C4.00344253 7.30735307 4.50873071 13.63440427 5 20 C4.01 19.67 3.02 19.34 2 19 C-0.08254633 13.95301272 -0.10550722 9.28186783 1 4 C0.6422386 1.72349255 0.6422386 1.72349255 0 0 Z " fill="#000000" transform="translate(484,250)"/>
<path d="M0 0 C0.66 0.33 1.32 0.66 2 1 C1.814375 1.66 1.62875 2.32 1.4375 3 C1.03842212 5.73653403 1.13760553 7.4471767 1.5625 10.125 C2 14 2 14 0 17 C-0.99 16.67 -1.98 16.34 -3 16 C-2.67 15.34 -2.34 14.68 -2 14 C-1.86270799 10.91092972 -1.91919487 8.31587458 -2.6875 5.3125 C-2.790625 4.549375 -2.89375 3.78625 -3 3 C-1.5625 1.1875 -1.5625 1.1875 0 0 Z " fill="#000000" transform="translate(517,230)"/>
<path d="M0 0 C0.33 0 0.66 0 1 0 C1.36206897 6.27586207 1.36206897 6.27586207 -0.1875 9.375 C-2.41017339 11.36774166 -4.06832781 11.68306247 -7 12 C-6.6875 10.125 -6.6875 10.125 -6 8 C-5.01 7.34 -4.02 6.68 -3 6 C-1.8499169 4.03327085 -1.8499169 4.03327085 -1 2 C-0.67 1.34 -0.34 0.68 0 0 Z " fill="#242424" transform="translate(336,273)"/>
<path d="M0 0 C1.13298556 3.39895668 0.85659602 4.26983438 -0.25 7.5625 C-0.62898437 8.74005859 -0.62898437 8.74005859 -1.015625 9.94140625 C-2 12 -2 12 -5 14 C-5.31416607 8.76389884 -4.77647622 5.48507697 -2 1 C-1.34 0.67 -0.68 0.34 0 0 Z " fill="#272727" transform="translate(234,267)"/>
<path d="M0 0 C0.66 0.33 1.32 0.66 2 1 C1.34 1.66 0.68 2.32 0 3 C-1.03842565 5.31648799 -2.0421975 7.64903024 -3 10 C-3.99 10 -4.98 10 -6 10 C-5.49477778 5.62140745 -2.82172778 3.18348776 0 0 Z " fill="#232323" transform="translate(211,260)"/>
<path d="M0 0 C-1.66666667 3.33333333 -3.33333333 6.66666667 -5 10 C-5.99 9.67 -6.98 9.34 -8 9 C-7.53918323 4.85264908 -4.48412936 0 0 0 Z " fill="#232323" transform="translate(336,253)"/>
<path d="M0 0 C0.33 0 0.66 0 1 0 C1.125 3.375 1.125 3.375 1 7 C-1 9 -1 9 -3.625 9.125 C-4.40875 9.08375 -5.1925 9.0425 -6 9 C-5.67 8.01 -5.34 7.02 -5 6 C-4.01 6 -3.02 6 -2 6 C-1.855625 5.38125 -1.71125 4.7625 -1.5625 4.125 C-1 2 -1 2 0 0 Z " fill="#1B1B1B" transform="translate(420,242)"/>
<path d="M0 0 C0.33 0.99 0.66 1.98 1 3 C-3.455 3.495 -3.455 3.495 -8 4 C-7.67 3.01 -7.34 2.02 -7 1 C-4.53721199 -0.231394 -2.7204945 -0.07159196 0 0 Z " fill="#202020" transform="translate(346,246)"/>
<path d="M0 0 C0 1.98 0 3.96 0 6 C-2.64 6.33 -5.28 6.66 -8 7 C-6.625 5.5 -6.625 5.5 -5 4 C-4.34 4 -3.68 4 -3 4 C-3 3.01 -3 2.02 -3 1 C-1 0 -1 0 0 0 Z " fill="#121212" transform="translate(330,261)"/>
<path d="M0 0 C3 2 3 2 3.51171875 4.3828125 C3.56972656 5.28773438 3.62773437 6.19265625 3.6875 7.125 C3.75324219 8.03507813 3.81898438 8.94515625 3.88671875 9.8828125 C3.92410156 10.58148438 3.96148437 11.28015625 4 12 C3.01 11.67 2.02 11.34 1 11 C-0.20272819 8.59454362 -0.10071472 7.05003047 -0.0625 4.375 C-0.05347656 3.55773437 -0.04445312 2.74046875 -0.03515625 1.8984375 C-0.02355469 1.27195313 -0.01195312 0.64546875 0 0 Z " fill="#292929" transform="translate(187,167)"/>
<path d="M0 0 C0.33 0 0.66 0 1 0 C1.33 5.94 1.66 11.88 2 18 C-0.49059397 13.01881207 -1.2136995 10.24901803 -0.5625 4.75 C-0.46066406 3.85796875 -0.35882812 2.9659375 -0.25390625 2.046875 C-0.17011719 1.37140625 -0.08632813 0.6959375 0 0 Z " fill="#242424" transform="translate(603,242)"/>
<path d="M0 0 C4.8 2.46153846 4.8 2.46153846 5.8125 5.1875 C5.874375 5.785625 5.93625 6.38375 6 7 C5.01 7.33 4.02 7.66 3 8 C2.67 7.01 2.34 6.02 2 5 C1.01 4.34 0.02 3.68 -1 3 C-0.67 2.01 -0.34 1.02 0 0 Z " fill="#1A1A1A" transform="translate(202,269)"/>
<path d="M0 0 C1.32 0.66 2.64 1.32 4 2 C3.38125 2.433125 2.7625 2.86625 2.125 3.3125 C-0.2197245 4.99740483 -0.2197245 4.99740483 -2 8 C-2.66 6.68 -3.32 5.36 -4 4 C-2.68 2.68 -1.36 1.36 0 0 Z " fill="#2C2C2C" transform="translate(321,266)"/>
<path d="M0 0 C1 3 1 3 0.25 5.125 C-1 7 -1 7 -4 8 C-3.67 5.69 -3.34 3.38 -3 1 C-2.01 0.67 -1.02 0.34 0 0 Z " fill="#252525" transform="translate(235,159)"/>
<path d="M0 0 C0.33 2.31 0.66 4.62 1 7 C0.34 7 -0.32 7 -1 7 C-1.33 7.66 -1.66 8.32 -2 9 C-2.33 6.36 -2.66 3.72 -3 1 C-1 0 -1 0 0 0 Z " fill="#262626" transform="translate(243,255)"/>
<path d="M0 0 C0.24042276 4.08718695 -0.57741188 7.17679443 -2 11 C-2.33 11 -2.66 11 -3 11 C-3 7.7 -3 4.4 -3 1 C-1 0 -1 0 0 0 Z " fill="#0C0C0C" transform="translate(193,201)"/>
<path d="M0 0 C1.98 0.495 1.98 0.495 4 1 C4 1.99 4 2.98 4 4 C2.35 4 0.7 4 -1 4 C-0.67 2.68 -0.34 1.36 0 0 Z " fill="#161616" transform="translate(183,190)"/>
<path d="M0 0 C0.33 2.31 0.66 4.62 1 7 C0.01 7.33 -0.98 7.66 -2 8 C-2.33 5.69 -2.66 3.38 -3 1 C-1 0 -1 0 0 0 Z " fill="#2A2A2A" transform="translate(166,220)"/>
</svg>
