<?xml version="1.0" encoding="UTF-8"?>
<svg version="1.1" xmlns="http://www.w3.org/2000/svg" width="800" height="300">
<path d="M0 0 C264 0 528 0 800 0 C800 99 800 198 800 300 C536 300 272 300 0 300 C0 201 0 102 0 0 Z " fill="#FEFEFE" transform="translate(0,0)"/>
<path d="M0 0 C3 1.125 3 1.125 5 3.6875 C9.32001529 7.19751242 13.01420795 6.59726205 18.4296875 6.49609375 C22.01158558 6.23583078 22.01158558 6.23583078 25.37890625 5.11328125 C29.72194312 3.92796482 33.58676641 3.82463072 38.0625 3.875 C38.917229 3.87959229 39.77195801 3.88418457 40.65258789 3.88891602 C51.61101098 4.03859687 63.01807355 4.52413677 73.78515625 6.68359375 C80.82494371 8.0865849 88.40862453 7.17685983 95.53857422 6.76416016 C105.97627002 6.1740504 116.4101612 5.95654549 126.86279297 5.89282227 C128.52755234 5.88101202 130.19228348 5.86398605 131.85693359 5.84155273 C134.22511537 5.81141051 136.59258459 5.80161354 138.9609375 5.796875 C139.6675351 5.78456848 140.37413269 5.77226196 141.10214233 5.75958252 C146.17862453 5.78191008 149.57350682 6.81558656 154 9.125 C155.125 11.0625 155.125 11.0625 156 13.125 C157.65788785 14.46923339 159.32576317 15.80118483 161 17.125 C166.84894313 23.54457172 170.43621605 29.48716048 171.3125 38.25 C170.50377503 48.27818958 165.21584103 59.73516824 158.5 67.25 C153.59544727 70.92841455 147.51979135 70.25205331 141.61328125 70.1875 C140.79796432 70.18371338 139.9826474 70.17992676 139.1426239 70.17602539 C135.69405414 70.15997515 132.245609 70.13260761 128.79711914 70.10449219 C119.32798193 70.03416536 109.89614519 70.09692316 100.43473816 70.52130127 C85.70750233 71.18117987 71.09029734 71.04011423 56.35986328 70.51074219 C52.44729389 70.37314645 48.53447789 70.26017907 44.62109375 70.1484375 C42.09109647 70.06396567 39.56114587 69.97808136 37.03125 69.890625 C35.88217163 69.85922424 34.73309326 69.82782349 33.54919434 69.79547119 C23.3765977 69.39496198 11.83441329 68.06975681 4.34765625 60.44140625 C-1.82681152 52.93844664 -3.0637654 44.33844549 -4.4609375 34.97265625 C-4.94344294 32.42376882 -5.62919869 30.37782463 -6.625 28 C-8.28641092 23.3583262 -8.40171748 18.75701372 -8.5 13.875 C-8.5304541 13.09366699 -8.5609082 12.31233398 -8.59228516 11.50732422 C-8.59503932 7.23378247 -8.35530653 5.58571414 -5.65625 2.0859375 C-3 0.125 -3 0.125 0 0 Z " fill="#646464" transform="translate(433,214.875)"/>
<path d="M0 0 C5.4645135 -0.33456205 9.19446399 0.31998954 14 3 C16.72720148 6.34302117 17.36643538 8.7249206 17 13 C16.34 13 15.68 13 15 13 C14.79375 11.906875 14.5875 10.81375 14.375 9.6875 C13.34812537 5.84973216 13.34812537 5.84973216 10.25 4.125 C7.14225737 3.04924294 4.24079271 2.49788715 1 2 C-0.0379599 12.03582771 -0.0379599 12.03582771 1 22 C-2.3 22.66 -5.6 23.32 -9 24 C-9.33 24.99 -9.66 25.98 -10 27 C-11.7421875 28.4296875 -11.7421875 28.4296875 -13.875 29.875 C-17.21305327 32.25932377 -19.06090876 34.33727209 -21 38 C-21.66 38 -22.32 38 -23 38 C-25.97030054 51.73764001 -22.8465705 65.59803317 -16.125 77.8125 C-10.94056906 85.49796295 -4.30568836 86.69151857 4.3984375 88.40625 C9.25252007 89.20648921 14.09048853 89.70943708 19 90 C19 90.99 19 91.98 19 93 C18.01 93.33 17.02 93.66 16 94 C14.63330354 96.34644361 14.63330354 96.34644361 13.5 99.1875 C13.06300781 100.18007813 12.62601563 101.17265625 12.17578125 102.1953125 C11.2947847 104.29682587 10.47526181 106.42428937 9.6875 108.5625 C7.46827162 111.76805211 5.70299916 111.88236204 2.00390625 112.59765625 C-0.9596655 113.19268138 -2.75312346 113.95738496 -5 116 C-5.72473045 118.73126029 -5.85973544 121.14795395 -6 124 C-5.360625 124.144375 -4.72125 124.28875 -4.0625 124.4375 C-2 125 -2 125 -1 126 C0.99799572 126.09873816 2.99957158 126.12971799 5 126.125 C6.093125 126.12757813 7.18625 126.13015625 8.3125 126.1328125 C10.91830354 126.30547755 10.91830354 126.30547755 12 125 C12.07226502 123.14712498 12.0838122 121.29166122 12.0625 119.4375 C12.05347656 118.42558594 12.04445312 117.41367187 12.03515625 116.37109375 C12.02355469 115.58863281 12.01195312 114.80617188 12 114 C13.72526042 113.12109375 15.45052083 112.2421875 17.17578125 111.36328125 C19.55533972 109.58498166 20.53323994 107.57431357 22 105 C23.3683291 103.207829 24.7647509 101.43678168 26.1875 99.6875 C27.26064453 98.36298828 27.26064453 98.36298828 28.35546875 97.01171875 C28.89816406 96.34785156 29.44085938 95.68398437 30 95 C33.84893854 96.28297951 34.27343891 97.68437738 36.3125 101.125 C38.48262884 104.68031745 40.6410451 107.9119716 43.4375 111 C46 114 46 114 46 117 C44.35 117.33 42.7 117.66 41 118 C40.67 119.98 40.34 121.96 40 124 C47.80906103 124.68954939 47.80906103 124.68954939 54.9375 122.1875 C55.618125 121.465625 56.29875 120.74375 57 120 C61.60714286 117 61.60714286 117 64 117 C63.67 116.01 63.34 115.02 63 114 C60.15293853 112.57646927 57.34470652 112.77577287 54.19140625 112.671875 C52 112 52 112 50.37890625 109.92578125 C48.76767998 106.50706036 47.52012095 103.03190742 46.375 99.4375 C46.1584375 98.77814453 45.941875 98.11878906 45.71875 97.43945312 C43.44388761 90.4533788 43.44388761 90.4533788 43 88 C44.57361062 86.42638938 46.15144445 86.87023453 48.33203125 86.8671875 C49.21310547 86.86589844 50.09417969 86.86460937 51.00195312 86.86328125 C51.92943359 86.86714844 52.85691406 86.87101562 53.8125 86.875 C54.72837891 86.87113281 55.64425781 86.86726563 56.58789062 86.86328125 C57.91530273 86.86521484 57.91530273 86.86521484 59.26953125 86.8671875 C60.08010986 86.86831543 60.89068848 86.86944336 61.72583008 86.87060547 C64 87 64 87 65.9230957 87.48852539 C68.61954033 88.15257282 71.18577755 88.21988448 73.9609375 88.31640625 C75.73488892 88.37948975 75.73488892 88.37948975 77.54467773 88.44384766 C78.80868408 88.48300293 80.07269043 88.5221582 81.375 88.5625 C83.32998413 88.6251001 83.32998413 88.6251001 85.32446289 88.68896484 C108.27111294 89.37796898 131.12262448 89.02874839 154 87 C153.5311169 92.05245467 151.0359354 95.09658411 148.0625 99 C145.10158329 102.91996895 142.73513397 106.36152305 141 111 C139.3125 111.75 139.3125 111.75 137 112 C135.14375 112.2784375 135.14375 112.2784375 133.25 112.5625 C131.64125 112.7790625 131.64125 112.7790625 130 113 C129.67 114.98 129.34 116.96 129 119 C129.804375 119.185625 129.804375 119.185625 130.625 119.375 C133 120 133 120 135.9375 121.0625 C140.12583868 122.3446445 142.85664215 122.38111928 147 121 C146.65213292 119.02463255 146.65213292 119.02463255 146 117 C145.34 116.67 144.68 116.34 144 116 C145 113 145 113 147.5625 111.5 C153.63645318 107.73503144 158.04881543 100.38419519 161 94 C161.66 94 162.32 94 163 94 C164.14682599 95.68772587 165.21766316 97.42741219 166.25 99.1875 C168.37071754 102.65089405 170.20373971 105.51899152 173.4375 108 C174.283125 108.66 175.12875 109.32 176 110 C176 110.99 176 111.98 176 113 C174 114.6875 174 114.6875 172 116 C172.57452746 119.93075644 172.57452746 119.93075644 175 123 C179.14179117 122.9079602 180.68334675 122.29506326 183.75 119.4375 C184.4925 118.633125 185.235 117.82875 186 117 C186.66 117 187.32 117 188 117 C188 114.03 188 111.06 188 108 C184.37 108 180.74 108 177 108 C175.86988348 105.7941576 174.74584212 103.58554973 173.625 101.375 C173.30789063 100.75753906 172.99078125 100.14007813 172.6640625 99.50390625 C170.76407197 95.74350833 169.23211496 92.04482184 168 88 C168.66 88 169.32 88 170 88 C170.33 86.68 170.66 85.36 171 84 C171.66 84.33 172.32 84.66 173 85 C173 85.66 173 86.32 173 87 C173.70382812 87.02578125 174.40765625 87.0515625 175.1328125 87.078125 C182.36218349 87.49338913 188.79816026 88.90155563 195.71484375 91.015625 C198.55163032 91.86564904 201.35495874 92.57410442 204.25 93.1875 C208 94 208 94 210 95 C211.37548156 95.08308638 212.75485796 95.10736016 214.1328125 95.09765625 C214.93847656 95.09443359 215.74414062 95.09121094 216.57421875 95.08789062 C217.41597656 95.07951172 218.25773438 95.07113281 219.125 95.0625 C219.97449219 95.05798828 220.82398438 95.05347656 221.69921875 95.04882812 C223.79950909 95.03702874 225.8997633 95.01909306 228 95 C228.42648473 91.57458294 228.60783877 88.41007854 228 85 C226.35719824 83.22240425 224.60577646 82.03018882 222.625 80.6484375 C219.89233167 77.87635569 220.09946251 74.71459045 219.97265625 70.9765625 C219.98167969 70.32429688 219.99070312 69.67203125 220 69 C217.60280568 68.32041397 217.60280568 68.32041397 215 68 C214.34 68.66 213.68 69.32 213 70 C213.37083833 73.4117126 214.10858176 76.68901795 215 80 C213.989375 79.87625 212.97875 79.7525 211.9375 79.625 C211.21046875 79.53863281 210.4834375 79.45226562 209.734375 79.36328125 C207.65590889 79.08714218 205.58370067 78.76342085 203.515625 78.41796875 C202.25234375 78.21816406 200.9890625 78.01835937 199.6875 77.8125 C198.49511719 77.61269531 197.30273438 77.41289062 196.07421875 77.20703125 C192.92137758 76.88665559 190.32893238 77.26244323 187.23828125 77.93359375 C178.74358659 79.6459113 170.1277038 79.30154744 161.5 79.25 C160.58513824 79.24689819 159.67027649 79.24379639 158.72769165 79.24060059 C146.44655347 79.19205906 134.17303289 78.97625184 121.90625 78.36120605 C120.45157464 78.28829621 118.99664972 78.22017319 117.54150391 78.15734863 C107.22139158 77.69259305 96.40114065 76.94316403 87.81640625 70.67578125 C85.67697445 67.52414516 84.80153814 64.89683585 83.9375 61.1875 C83.77596436 60.536604 83.61442871 59.88570801 83.44799805 59.21508789 C82.61016223 55.80962506 81.87157324 52.39088017 81.1796875 48.953125 C79.15788152 39.3498379 75.57697213 27.34374652 66.90625 21.6171875 C64.858257 20.84598605 64.858257 20.84598605 62 21 C62.52268466 18.23723823 63.10869587 15.6739124 64 13 C63.56189807 9.42389165 63.56189807 9.42389165 62 6 C58.07062582 3.23157728 54.76961123 2.36405184 50 3 C48.02421261 3.89061215 48.02421261 3.89061215 47 6 C46.67 8.64 46.34 11.28 46 14 C37.42 14.33 28.84 14.66 20 15 C20 14.01 20 13.02 20 12 C22.85160391 11.18565857 25.36626131 10.88118758 28.328125 10.90234375 C29.52695313 10.90717773 29.52695313 10.90717773 30.75 10.91210938 C31.575 10.92048828 32.4 10.92886719 33.25 10.9375 C34.09046875 10.94201172 34.9309375 10.94652344 35.796875 10.95117188 C37.86461401 10.96292039 39.93231624 10.98085478 42 11 C42.14695312 10.22011719 42.29390625 9.44023437 42.4453125 8.63671875 C43.36018368 4.28785925 44.25217138 2.49855241 48 0 C52.49246339 -0.74397483 56.99123888 -0.95018736 61.171875 1.02734375 C65.81182551 4.60645087 68.12072864 9.2297817 69 15 C68.67 15.99 68.34 16.98 68 18 C68.94875 18.7425 69.8975 19.485 70.875 20.25 C73.36434467 22.3069233 74.71592349 24.00382148 76 27 C76.66 27.33 77.32 27.66 78 28 C82.41970963 35.64264419 84.43389994 43.87937257 86.25 52.4375 C86.50523437 53.59443359 86.76046875 54.75136719 87.0234375 55.94335938 C87.49295447 58.07224815 87.95746832 60.20225188 88.41503906 62.33374023 C88.90519681 64.5678858 89.43039092 66.78503629 90 69 C90.77085937 69.20496094 91.54171875 69.40992188 92.3359375 69.62109375 C93.33882813 69.89050781 94.34171875 70.15992188 95.375 70.4375 C96.37273437 70.70433594 97.37046875 70.97117187 98.3984375 71.24609375 C101 72 101 72 103 73 C105.51912108 73.2151084 108.01903239 73.37744924 110.54296875 73.5 C111.68394768 73.5609082 111.68394768 73.5609082 112.84797668 73.62304688 C115.29428642 73.75286845 117.74085526 73.8766681 120.1875 74 C123.36857783 74.16499968 126.54952443 74.33244926 129.73046875 74.5 C130.51340302 74.54066086 131.29633728 74.58132172 132.10299683 74.62321472 C137.1310079 74.8879518 142.15280063 75.20330493 147.17578125 75.55078125 C161.06864692 76.49787408 174.11647569 75.7354809 187.890625 73.5390625 C195.65047036 72.51803022 202.47127949 74.05462258 210 76 C209.79246094 74.90558594 209.58492187 73.81117188 209.37109375 72.68359375 C209 69 209 69 211.0625 66.0625 C214 64 214 64 217.0625 63.4375 C220 64 220 64 222.375 65.375 C224.86963042 69.4047876 224.31735888 73.38066514 224 78 C224.61359375 78.28746094 225.2271875 78.57492188 225.859375 78.87109375 C228.92213101 80.48630632 230.22097837 82.01378512 232 85 C232.61940285 88.1311098 232.85122242 90.91233605 232 94 C229.99138196 96.80967404 228.45067719 98.69519929 224.96655273 99.42724609 C222.60372932 99.56507532 220.30208181 99.53483145 217.9375 99.4375 C217.13505859 99.43169922 216.33261719 99.42589844 215.50585938 99.41992188 C211.35333022 99.33376982 208.7008867 98.95367297 205 97 C202.76065986 96.47325866 200.50867541 95.9989471 198.25 95.5625 C194.1855485 94.74203619 190.42654337 93.90844223 186.625 92.25 C182.12719655 90.69903329 179.61075206 91.09431656 175 92 C175.64268437 93.64706553 176.28923802 95.29262175 176.9375 96.9375 C177.29714844 97.85402344 177.65679687 98.77054687 178.02734375 99.71484375 C178.7996218 101.92418533 178.7996218 101.92418533 180 103 C181.65919896 103.36871088 183.32774271 103.69595322 185 104 C189.88888889 104.88888889 189.88888889 104.88888889 191 106 C191.7000092 110.12741275 191.81257239 113.88635225 191 118 C187.52410919 122.55509884 182.98208158 126.45780335 177.25 127.5 C173.0179597 126.84891688 171.68689993 125.25102216 169.1328125 121.94140625 C167.48966851 119.12539741 167.43484607 117.17899085 168 114 C168.63846531 112.65293494 169.30083082 111.31658068 170 110 C169.566875 109.51789063 169.13375 109.03578125 168.6875 108.5390625 C168.130625 107.90742188 167.57375 107.27578125 167 106.625 C166.443125 105.99851562 165.88625 105.37203125 165.3125 104.7265625 C164 103 164 103 164 101 C162.05000871 101.19471111 162.05000871 101.19471111 160 102 C159.33218217 103.33275713 158.66571547 104.66619149 158 106 C156.81881073 107.29610135 155.60861518 108.5661933 154.375 109.8125 C150.84024571 113.70145257 150.90126414 115.76699918 151 121 C147.96717767 124.7327044 147.96717767 124.7327044 145 126 C139.01370642 126.52917512 133.396419 124.36685044 128 122 C126 120 126 120 125.625 117.125 C126 114 126 114 127.75 111.75 C129.84966294 110.11692883 131.50639995 108.90676366 134 108 C134.75796875 108.14953125 135.5159375 108.2990625 136.296875 108.453125 C139.02556096 108.28474406 139.02556096 108.28474406 140.34204102 106.50292969 C141.75662219 104.37859801 143.04848007 102.21718459 144.3125 100 C144.76689453 99.236875 145.22128906 98.47375 145.68945312 97.6875 C146.80973469 95.80071 147.91198977 93.90552243 149 92 C147.53433594 92.10828125 147.53433594 92.10828125 146.0390625 92.21875 C113.3846633 94.39829081 80.63816977 92.54968454 48 91 C48.27714844 91.73605469 48.55429688 92.47210938 48.83984375 93.23046875 C49.20207031 94.20628906 49.56429687 95.18210937 49.9375 96.1875 C50.29714844 97.15042969 50.65679687 98.11335938 51.02734375 99.10546875 C51.91156562 101.7368278 52.52568586 104.26894908 53 107 C53.75925781 107.18175781 54.51851563 107.36351562 55.30078125 107.55078125 C56.29464844 107.80214844 57.28851563 108.05351562 58.3125 108.3125 C59.29863281 108.55613281 60.28476563 108.79976563 61.30078125 109.05078125 C64.03178049 110.01117606 65.26132636 110.72590699 67 113 C67.5625 115.375 67.5625 115.375 67 118 C63.10400481 121.89599519 58.78608738 124.33083588 54 127 C53.34 127.66 52.68 128.32 52 129 C49.9765625 129.265625 49.9765625 129.265625 47.625 129.25 C46.46871094 129.25773437 46.46871094 129.25773437 45.2890625 129.265625 C42.7324699 128.96895555 41.16523899 128.38206744 39 127 C36.68717413 123.53076119 36.57521414 122.07794425 37 118 C38.5 116.125 38.5 116.125 40 115 C38.14183119 111.04913623 35.72642599 107.60121637 33.2421875 104.0234375 C32 102 32 102 32 100 C30.8553125 101.1446875 30.8553125 101.1446875 29.6875 102.3125 C28.27068016 103.72931984 26.84731526 105.14093976 25.375 106.5 C23.82776997 108.07698762 23.82776997 108.07698762 22.5 110.625 C21 113 21 113 18 114 C18 114.66 18 115.32 18 116 C17.01 116.495 17.01 116.495 16 117 C16 120.63 16 124.26 16 128 C11.37792251 130.7732465 7.33540564 131.9257327 2 131 C-1.84706601 129.55735025 -5.08600033 127.91399967 -8 125 C-8.30078125 122.72265625 -8.30078125 122.72265625 -8.3125 120.0625 C-8.32925781 119.18722656 -8.34601563 118.31195313 -8.36328125 117.41015625 C-7.92587612 114.50823191 -7.30218228 113.76049233 -5 112 C-3.09765625 110.83203125 -3.09765625 110.83203125 -1.0625 109.8125 C-0.05896484 109.29623047 -0.05896484 109.29623047 0.96484375 108.76953125 C3 108 3 108 7 108 C7.268125 107.13375 7.53625 106.2675 7.8125 105.375 C9.39129148 100.88790841 11.36319284 96.95521074 14 93 C13.27296875 92.96261719 12.5459375 92.92523438 11.796875 92.88671875 C-10.28222709 91.44308515 -10.28222709 91.44308515 -17 84 C-25.77842401 71.60818111 -28.54225272 56.87281333 -27 42 C-26.02975422 38.75322631 -24.92475276 36.85963267 -23 34 C-22.54625 33.0925 -22.0925 32.185 -21.625 31.25 C-19.49448062 28.30005009 -17.08743391 26.92236451 -14 25 C-11.96103664 23.40890142 -9.93818652 21.80125975 -7.9296875 20.171875 C-6 19 -6 19 -2 19 C-2.33 18.01 -2.66 17.02 -3 16 C-3.61767656 9.87074793 -2.79102638 5.46575999 0 0 Z " fill="#131313" transform="translate(190,157)"/>
<path d="M0 0 C3 1.125 3 1.125 5 3.6875 C9.32001529 7.19751242 13.01420795 6.59726205 18.4296875 6.49609375 C22.01158558 6.23583078 22.01158558 6.23583078 25.37890625 5.11328125 C29.72194312 3.92796482 33.58676641 3.82463072 38.0625 3.875 C38.917229 3.87959229 39.77195801 3.88418457 40.65258789 3.88891602 C51.61101098 4.03859687 63.01807355 4.52413677 73.78515625 6.68359375 C80.82494371 8.0865849 88.40862453 7.17685983 95.53857422 6.76416016 C105.97627002 6.1740504 116.4101612 5.95654549 126.86279297 5.89282227 C128.52755234 5.88101202 130.19228348 5.86398605 131.85693359 5.84155273 C134.22511537 5.81141051 136.59258459 5.80161354 138.9609375 5.796875 C139.6675351 5.78456848 140.37413269 5.77226196 141.10214233 5.75958252 C146.17862453 5.78191008 149.57350682 6.81558656 154 9.125 C155.125 11.0625 155.125 11.0625 156 13.125 C157.65788785 14.46923339 159.32576317 15.80118483 161 17.125 C166.84894313 23.54457172 170.43621605 29.48716048 171.3125 38.25 C170.50377503 48.27818958 165.21584103 59.73516824 158.5 67.25 C153.59544727 70.92841455 147.51979135 70.25205331 141.61328125 70.1875 C140.79796432 70.18371338 139.9826474 70.17992676 139.1426239 70.17602539 C135.69405414 70.15997515 132.245609 70.13260761 128.79711914 70.10449219 C119.32798193 70.03416536 109.89614519 70.09692316 100.43473816 70.52130127 C85.70750233 71.18117987 71.09029734 71.04011423 56.35986328 70.51074219 C52.44729389 70.37314645 48.53447789 70.26017907 44.62109375 70.1484375 C42.09109647 70.06396567 39.56114587 69.97808136 37.03125 69.890625 C35.88217163 69.85922424 34.73309326 69.82782349 33.54919434 69.79547119 C23.3765977 69.39496198 11.83441329 68.06975681 4.34765625 60.44140625 C-1.82681152 52.93844664 -3.0637654 44.33844549 -4.4609375 34.97265625 C-4.94344294 32.42376882 -5.62919869 30.37782463 -6.625 28 C-8.28641092 23.3583262 -8.40171748 18.75701372 -8.5 13.875 C-8.5304541 13.09366699 -8.5609082 12.31233398 -8.59228516 11.50732422 C-8.59503932 7.23378247 -8.35530653 5.58571414 -5.65625 2.0859375 C-3 0.125 -3 0.125 0 0 Z M-2 3.125 C-5.34219637 6.76799404 -5.86682069 9.94781704 -6.19921875 14.7578125 C-5.95003152 18.96956534 -5.0251107 22.72175764 -3.8125 26.75 C-3.60431641 27.46124023 -3.39613281 28.17248047 -3.18164062 28.90527344 C-2.48498439 31.15772482 -2.48498439 31.15772482 -1 34.125 C1.05763303 35.20031087 1.05763303 35.20031087 3 35.125 C3 33.805 3 32.485 3 31.125 C3.99 31.125 4.98 31.125 6 31.125 C6.1546875 30.01125 6.1546875 30.01125 6.3125 28.875 C7.04253504 25.95485982 8.06789398 24.39312446 10 22.125 C9.39050431 26.2695707 7.96084772 29.4386063 6 33.125 C5.690625 33.8675 5.38125 34.61 5.0625 35.375 C3.7196378 37.58677303 2.28882417 38.01750443 0 39.125 C-1.80310102 44.53430306 0.85118344 50.03032809 3 55.125 C4.89597259 57.55165194 6.29919246 58.5397434 9 60.125 C9.66 60.125 10.32 60.125 11 60.125 C11 60.785 11 61.445 11 62.125 C21.26154022 65.59645722 30.67541799 66.20126388 41.4375 66.25 C42.77143799 66.25713013 42.77143799 66.25713013 44.13232422 66.2644043 C45.39520264 66.26114136 45.39520264 66.26114136 46.68359375 66.2578125 C47.82139282 66.25612061 47.82139282 66.25612061 48.98217773 66.25439453 C51.20626495 66.197839 51.20626495 66.197839 54 65.125 C54.20086443 61.40900809 54.1519437 60.35291555 52 57.125 C52.875 54.4375 52.875 54.4375 54 52.125 C53.01 51.135 52.02 50.145 51 49.125 C51.680625 48.568125 52.36125 48.01125 53.0625 47.4375 C55.28097119 45.29246056 55.28097119 45.29246056 55 42.5 C54.20423043 39.98006227 54.20423043 39.98006227 51.9375 38.8125 C51.298125 38.585625 50.65875 38.35875 50 38.125 C50.495 37.135 50.495 37.135 51 36.125 C52.875 36.75 52.875 36.75 55 38.125 C57.27878599 42.7910856 56.96687605 46.11482411 56 51.125 C54.96234078 57.03965756 55.10030096 61.42590287 57 67.125 C58.95486328 67.10953125 58.95486328 67.10953125 60.94921875 67.09375 C65.58771764 67.09375 70.18493274 67.33249253 74.8125 67.625 C81.91885989 68.03528471 89.0067453 68.23457722 96.125 68.25 C97.43174683 68.25676758 97.43174683 68.25676758 98.76489258 68.26367188 C102.69673607 68.64435259 102.69673607 68.64435259 106 67.125 C108.67250538 67.10412105 111.32900188 67.1313335 114 67.1875 C120.31908812 67.26676106 125.88847363 66.90289858 132 65.125 C132.94125778 61.46455306 133.65698407 57.89817527 134 54.125 C133.34 53.135 132.68 52.145 132 51.125 C133.98 48.155 133.98 48.155 136 45.125 C134.02 43.145 134.02 43.145 132 41.125 C133.32 41.455 134.64 41.785 136 42.125 C136.625 44.5 136.625 44.5 137 47.125 C136.01 48.115 136.01 48.115 135 49.125 C135.165 50.218125 135.33 51.31125 135.5 52.4375 C136.03296631 56.36812655 135.48213276 57.6049347 134 61.125 C134.27701774 62.80194665 134.60458862 64.47196076 135 66.125 C146.213767 67.99624647 146.213767 67.99624647 156.609375 64.953125 C163.05860623 58.23794609 167.90754151 47.33286442 169 38.125 C167.48779932 29.66347263 161.28652745 21.7130244 155 16.125 C154.01 15.63 154.01 15.63 153 15.125 C152.61781233 16.78114657 152.28604898 18.44957024 152 20.125 C152.33 20.455 152.66 20.785 153 21.125 C153.2165625 22.73375 153.2165625 22.73375 153.4375 24.375 C153.82799456 28.02222987 153.82799456 28.02222987 155.125 30.8125 C156.11341176 33.42473109 155.95398577 34.54923842 155 37.125 C152.525 37.62 152.525 37.62 150 38.125 C151 36.125 151 36.125 154 34.125 C153.505 33.238125 153.01 32.35125 152.5 31.4375 C151.05621326 28.24913762 150.69840078 26.54312454 151 23.125 C149.68 22.795 148.36 22.465 147 22.125 C148.98 17.67 148.98 17.67 151 13.125 C145.21350937 9.83307915 141.17561486 8.54587548 134.5625 8.734375 C133.79695801 8.74003479 133.03141602 8.74569458 132.24267578 8.75152588 C129.82777979 8.77369165 127.41443777 8.82384461 125 8.875 C123.35028204 8.89509085 121.70054052 8.91333706 120.05078125 8.9296875 C116.03326695 8.97349057 112.01689574 9.04237398 108 9.125 C108 9.785 108 10.445 108 11.125 C108.99 11.8984375 108.99 11.8984375 110 12.6875 C112.61592046 15.87565306 112.36839565 17.90694411 112.23828125 21.90625 C112 24.125 112 24.125 111.41796875 26.25390625 C110.7829888 28.25792357 110.7829888 28.25792357 112 30.5625 C113.20265703 33.64430863 113.24108827 35.06364894 112 38.125 C109.4375 39.4375 109.4375 39.4375 107 40.125 C108.65 38.145 110.3 36.165 112 34.125 C111.484375 33.238125 110.96875 32.35125 110.4375 31.4375 C108.8982735 27.89058677 108.80781918 26.70154245 110 23.125 C110.33 22.465 110.66 21.805 111 21.125 C110.01 21.125 109.02 21.125 108 21.125 C108.33 20.526875 108.66 19.92875 109 19.3125 C110.20787988 17.07113529 110.20787988 17.07113529 110 14.125 C107.17159994 11.10586005 105.50626342 10.18930472 101.37109375 9.6640625 C100.07300781 9.69242188 98.77492188 9.72078125 97.4375 9.75 C96.13683594 9.76289063 94.83617187 9.77578125 93.49609375 9.7890625 C90.3697929 10.08946683 88.60753355 10.46626365 86 12.125 C86.99 13.61 86.99 13.61 88 15.125 C87.67873872 17.75934254 87.18644952 19.75210097 86 22.125 C85.98012522 23.72917883 86.0072121 25.33415101 86.0625 26.9375 C86.10140325 30.78336422 85.97921869 33.7163456 84 37.125 C83.01 37.62 83.01 37.62 82 38.125 C82.350625 37.01125 82.70125 35.8975 83.0625 34.75 C84.37239331 31.32235524 84.37239331 31.32235524 83 29.125 C83.27942455 27.44845271 83.60828247 25.77891846 84 24.125 C83.01 24.125 82.02 24.125 81 24.125 C82.11179163 20.78962511 83.47411298 19.48792656 86 17.125 C85.06231164 14.06991079 85.06231164 14.06991079 83 11.125 C80.19158076 10.27670567 78.0869318 9.88391153 75.21875 9.6640625 C74.45002563 9.58376801 73.68130127 9.50347351 72.88928223 9.42074585 C70.42796038 9.17084665 67.96495857 8.9606349 65.5 8.75 C63.87214879 8.58708532 62.24453837 8.42174521 60.6171875 8.25390625 C52.40218153 7.43603507 44.26393848 6.85612325 36 7.125 C36.495 8.115 36.495 8.115 37 9.125 C37.31337847 14.66135301 36.4386757 18.2476486 34 23.125 C34.185625 23.74375 34.37125 24.3625 34.5625 25 C35 27.125 35 27.125 34.0625 28.875 C32.44610496 32.2979542 32.87464081 35.36422443 33 39.125 C32.01 39.455 31.02 39.785 30 40.125 C29.67 39.795 29.34 39.465 29 39.125 C29.7734375 38.63 29.7734375 38.63 30.5625 38.125 C32.33834722 35.65425604 32.02853971 34.98054407 31.5625 32.0625 C31.2840625 30.1134375 31.2840625 30.1134375 31 28.125 C31.66 27.465 32.32 26.805 33 26.125 C32.6730244 23.50919521 32.17960932 21.48421863 31 19.125 C31.99 19.125 32.98 19.125 34 19.125 C35.4783226 16.16835481 35.06032783 13.38270263 35 10.125 C34.34 10.125 33.68 10.125 33 10.125 C33 9.465 33 8.805 33 8.125 C32.195625 8.23328125 32.195625 8.23328125 31.375 8.34375 C25.8169062 9.00194532 20.27974669 9.28786142 14.6875 9.375 C13.6655957 9.4069043 13.6655957 9.4069043 12.62304688 9.43945312 C8.2150567 9.46979327 5.48757498 8.84391092 2 6.125 C1.34 5.135 0.68 4.145 0 3.125 C-0.66 3.125 -1.32 3.125 -2 3.125 Z " fill="#0F0F0F" transform="translate(433,214.875)"/>
<path d="M0 0 C4.8453001 2.29193152 7.19015168 5.74273583 9 10.6875 C9.97017491 13.87915496 10.09200199 14.72399402 9 18 C9.94875 18.7425 10.8975 19.485 11.875 20.25 C14.36434467 22.3069233 15.71592349 24.00382148 17 27 C17.66 27.33 18.32 27.66 19 28 C23.41970963 35.64264419 25.43389994 43.87937257 27.25 52.4375 C27.50523437 53.59443359 27.76046875 54.75136719 28.0234375 55.94335938 C28.49295447 58.07224815 28.95746832 60.20225188 29.41503906 62.33374023 C29.90519681 64.5678858 30.43039092 66.78503629 31 69 C31.77085937 69.20496094 32.54171875 69.40992188 33.3359375 69.62109375 C34.33882813 69.89050781 35.34171875 70.15992188 36.375 70.4375 C37.37273437 70.70433594 38.37046875 70.97117187 39.3984375 71.24609375 C42 72 42 72 44 73 C46.51912108 73.2151084 49.01903239 73.37744924 51.54296875 73.5 C52.68394768 73.5609082 52.68394768 73.5609082 53.84797668 73.62304688 C56.29428642 73.75286845 58.74085526 73.8766681 61.1875 74 C64.36857783 74.16499968 67.54952443 74.33244926 70.73046875 74.5 C71.51340302 74.54066086 72.29633728 74.58132172 73.10299683 74.62321472 C78.1310079 74.8879518 83.15280063 75.20330493 88.17578125 75.55078125 C102.06864692 76.49787408 115.11647569 75.7354809 128.890625 73.5390625 C136.65047036 72.51803022 143.47127949 74.05462258 151 76 C150.79246094 74.90558594 150.58492187 73.81117188 150.37109375 72.68359375 C150 69 150 69 152.0625 66.0625 C155 64 155 64 158.0625 63.4375 C161 64 161 64 163.375 65.4375 C165.6831311 69.07724519 165.90246905 72.78847779 165 77 C164.01 77.66 163.02 78.32 162 79 C161.67 75.7 161.34 72.4 161 69 C158.60280568 68.32041397 158.60280568 68.32041397 156 68 C155.34 68.66 154.68 69.32 154 70 C154.37083833 73.4117126 155.10858176 76.68901795 156 80 C154.989375 79.87625 153.97875 79.7525 152.9375 79.625 C152.21046875 79.53863281 151.4834375 79.45226562 150.734375 79.36328125 C148.65590889 79.08714218 146.58370067 78.76342085 144.515625 78.41796875 C143.25234375 78.21816406 141.9890625 78.01835937 140.6875 77.8125 C139.49511719 77.61269531 138.30273438 77.41289062 137.07421875 77.20703125 C133.92137758 76.88665559 131.32893238 77.26244323 128.23828125 77.93359375 C119.74358659 79.6459113 111.1277038 79.30154744 102.5 79.25 C101.58513824 79.24689819 100.67027649 79.24379639 99.72769165 79.24060059 C87.44655347 79.19205906 75.17303289 78.97625184 62.90625 78.36120605 C61.45157464 78.28829621 59.99664972 78.22017319 58.54150391 78.15734863 C48.22139158 77.69259305 37.40114065 76.94316403 28.81640625 70.67578125 C26.67697445 67.52414516 25.80153814 64.89683585 24.9375 61.1875 C24.77596436 60.536604 24.61442871 59.88570801 24.44799805 59.21508789 C23.61016223 55.80962506 22.87157324 52.39088017 22.1796875 48.953125 C20.15788152 39.3498379 16.57697213 27.34374652 7.90625 21.6171875 C5.858257 20.84598605 5.858257 20.84598605 3 21 C3.52268466 18.23723823 4.10869587 15.6739124 5 13 C4.56189807 9.42389165 4.56189807 9.42389165 3 6 C-0.92937418 3.23157728 -4.23038877 2.36405184 -9 3 C-10.97578739 3.89061215 -10.97578739 3.89061215 -12 6 C-12.33 8.64 -12.66 11.28 -13 14 C-21.58 14.33 -30.16 14.66 -39 15 C-39 14.01 -39 13.02 -39 12 C-36.14839609 11.18565857 -33.63373869 10.88118758 -30.671875 10.90234375 C-29.47304687 10.90717773 -29.47304687 10.90717773 -28.25 10.91210938 C-27.425 10.92048828 -26.6 10.92886719 -25.75 10.9375 C-24.90953125 10.94201172 -24.0690625 10.94652344 -23.203125 10.95117188 C-21.13538599 10.96292039 -19.06768376 10.98085478 -17 11 C-16.85304687 10.22011719 -16.70609375 9.44023437 -16.5546875 8.63671875 C-14.6442912 -0.44439044 -8.33512879 -1.29217779 0 0 Z " fill="#151515" transform="translate(249,157)"/>
<path d="M0 0 C5.4645135 -0.33456205 9.19446399 0.31998954 14 3 C16.72720148 6.34302117 17.36643538 8.7249206 17 13 C16.34 13 15.68 13 15 13 C14.79375 11.906875 14.5875 10.81375 14.375 9.6875 C13.34812537 5.84973216 13.34812537 5.84973216 10.25 4.125 C7.14225737 3.04924294 4.24079271 2.49788715 1 2 C-0.0379599 12.03582771 -0.0379599 12.03582771 1 22 C-2.3 22.66 -5.6 23.32 -9 24 C-9.33 24.99 -9.66 25.98 -10 27 C-11.7421875 28.4296875 -11.7421875 28.4296875 -13.875 29.875 C-17.21305327 32.25932377 -19.06090876 34.33727209 -21 38 C-21.66 38 -22.32 38 -23 38 C-25.97030054 51.73764001 -22.8465705 65.59803317 -16.125 77.8125 C-10.94056906 85.49796295 -4.30568836 86.69151857 4.3984375 88.40625 C9.25252007 89.20648921 14.09048853 89.70943708 19 90 C19 90.99 19 91.98 19 93 C18.01 93.33 17.02 93.66 16 94 C15.34 94.99 14.68 95.98 14 97 C13.01 96.505 13.01 96.505 12 96 C12.99 94.515 12.99 94.515 14 93 C13.27296875 92.96261719 12.5459375 92.92523438 11.796875 92.88671875 C-10.28222709 91.44308515 -10.28222709 91.44308515 -17 84 C-25.77842401 71.60818111 -28.54225272 56.87281333 -27 42 C-26.02975422 38.75322631 -24.92475276 36.85963267 -23 34 C-22.54625 33.0925 -22.0925 32.185 -21.625 31.25 C-19.49448062 28.30005009 -17.08743391 26.92236451 -14 25 C-11.96103664 23.40890142 -9.93818652 21.80125975 -7.9296875 20.171875 C-6 19 -6 19 -2 19 C-2.33 18.01 -2.66 17.02 -3 16 C-3.61767656 9.87074793 -2.79102638 5.46575999 0 0 Z " fill="#0C0C0C" transform="translate(190,157)"/>
<path d="M0 0 C0.33 0 0.66 0 1 0 C1.11593506 0.55461914 1.23187012 1.10923828 1.35131836 1.68066406 C1.87924434 4.20394445 2.40836027 6.72697388 2.9375 9.25 C3.11990234 10.12269531 3.30230469 10.99539062 3.49023438 11.89453125 C3.66748047 12.73886719 3.84472656 13.58320313 4.02734375 14.453125 C4.18968506 15.22817383 4.35202637 16.00322266 4.51928711 16.80175781 C4.97361933 18.87936437 5.4726508 20.93984981 6 23 C6.77085937 23.20496094 7.54171875 23.40992188 8.3359375 23.62109375 C9.33882813 23.89050781 10.34171875 24.15992188 11.375 24.4375 C12.37273437 24.70433594 13.37046875 24.97117188 14.3984375 25.24609375 C17 26 17 26 19 27 C21.51912108 27.2151084 24.01903239 27.37744924 26.54296875 27.5 C27.30362137 27.54060547 28.06427399 27.58121094 28.84797668 27.62304688 C31.29428642 27.75286845 33.74085526 27.8766681 36.1875 28 C39.36857778 28.16499968 42.54952848 28.33237275 45.73046875 28.5 C46.50760223 28.5405249 47.28473572 28.5810498 48.0854187 28.62280273 C55.39549619 29.00894718 62.69768836 29.48827338 70 30 C69.505 31.485 69.505 31.485 69 33 C59.21202712 33.10555178 49.4773157 32.88076884 39.7043457 32.36523438 C38.1916753 32.28833826 36.67861929 32.21868914 35.1652832 32.15625 C12.88243823 31.23390307 12.88243823 31.23390307 3.8359375 24.72265625 C1.62360466 21.44181372 0.51594085 18.24458756 -0.375 14.4375 C-0.55160156 13.77814453 -0.72820312 13.11878906 -0.91015625 12.43945312 C-1.77975081 8.97846677 -2.29885254 6.36937629 -1 3 C-0.67 2.01 -0.34 1.02 0 0 Z " fill="#1E1E1E" transform="translate(274,203)"/>
<path d="M0 0 C5.4645135 -0.33456205 9.19446399 0.31998954 14 3 C16.72720148 6.34302117 17.36643538 8.7249206 17 13 C16.34 13 15.68 13 15 13 C14.79375 11.906875 14.5875 10.81375 14.375 9.6875 C13.34812537 5.84973216 13.34812537 5.84973216 10.25 4.125 C7.14225737 3.04924294 4.24079271 2.49788715 1 2 C-0.0379599 12.03582771 -0.0379599 12.03582771 1 22 C-2.3 22.66 -5.6 23.32 -9 24 C-9.33 24.99 -9.66 25.98 -10 27 C-11.7421875 28.5 -11.7421875 28.5 -13.875 30 C-15.93405015 31.45881044 -17.81530345 32.80887123 -19.5703125 34.625 C-21 36 -21 36 -24 37 C-23.33333333 35.66666667 -22.66666667 34.33333333 -22 33 C-21.7525 32.34 -21.505 31.68 -21.25 31 C-19.41553007 28.06484812 -16.91959196 26.8382616 -14 25 C-11.96147068 23.40837903 -9.93817208 21.80124804 -7.9296875 20.171875 C-6 19 -6 19 -2 19 C-2.33 18.01 -2.66 17.02 -3 16 C-3.61767656 9.87074793 -2.79102638 5.46575999 0 0 Z " fill="#151515" transform="translate(190,157)"/>
<path d="M0 0 C-0.33 0.66 -0.66 1.32 -1 2 C-2.32 2 -3.64 2 -5 2 C-5 2.66 -5 3.32 -5 4 C-4.360625 4.2475 -3.72125 4.495 -3.0625 4.75 C-1 6 -1 6 -0.25 7.6875 C0.16708565 11.54554222 0.47927342 15.37047037 -0.625 19.125 C-1.21518521 21.13431286 -1.21518521 21.13431286 0.0625 23.375 C1 26 1 26 0.4375 29.1875 C-1 32 -1 32 -3.625 33.375 C-4.40875 33.58125 -5.1925 33.7875 -6 34 C-6 31 -6 31 -4 28.8125 C-3.01 27.9153125 -3.01 27.9153125 -2 27 C-2.515625 26.113125 -3.03125 25.22625 -3.5625 24.3125 C-5.08979002 20.79309257 -5.21675714 19.548875 -4 16 C-3.67 15.67 -3.34 15.34 -3 15 C-3.66 14.67 -4.32 14.34 -5 14 C-4.42415568 11.61435923 -3.77772405 9.33317216 -3 7 C-8.60944292 3.85871197 -14.68146331 2.77369837 -21 2 C-20.67 1.34 -20.34 0.68 -20 0 C-17.22949974 -0.1946838 -14.45886998 -0.38102792 -11.6875 -0.5625 C-10.90181641 -0.61857422 -10.11613281 -0.67464844 -9.30664062 -0.73242188 C-8.1706543 -0.80493164 -8.1706543 -0.80493164 -7.01171875 -0.87890625 C-6.31522217 -0.9260376 -5.61872559 -0.97316895 -4.90112305 -1.02172852 C-3 -1 -3 -1 0 0 Z " fill="#030303" transform="translate(546,222)"/>
<path d="M0 0 C1.74216797 0.04060547 1.74216797 0.04060547 3.51953125 0.08203125 C4.39996094 0.11683594 5.28039062 0.15164062 6.1875 0.1875 C2.66102614 2.53848257 0.45684328 2.56954378 -3.65625 2.84375 C-6.10313757 3.08024238 -6.10313757 3.08024238 -8.8125 5.1875 C-11.35113031 9.86392425 -11.1810469 14.38654353 -10.5 19.5625 C-10.273125 20.09875 -10.04625 20.635 -9.8125 21.1875 C-6.54076805 22.27807732 -3.75053558 22.47068695 -0.3125 22.6875 C3.12553558 22.90431305 5.91576805 23.09692268 9.1875 24.1875 C8.8575 25.1775 8.5275 26.1675 8.1875 27.1875 C-6.85305427 26.97700878 -6.85305427 26.97700878 -10.6875 23.75 C-14.57402954 19.06330261 -14.15687716 15.0872245 -13.8125 9.1875 C-13.06811068 5.46555339 -12.67453199 3.84651721 -9.65625 1.5390625 C-6.20810831 -0.09975209 -3.79799974 -0.1150909 0 0 Z " fill="#232323" transform="translate(200.8125,193.8125)"/>
<path d="M0 0 C0.99 0.33 1.98 0.66 3 1 C2.3897536 5.14967549 0.99267393 8.32121736 -1 12 C-1.7115625 13.3921875 -1.7115625 13.3921875 -2.4375 14.8125 C-4 17 -4 17 -6.1875 17.8125 C-6.785625 17.874375 -7.38375 17.93625 -8 18 C-7.67 20.31 -7.34 22.62 -7 25 C-8.32 24.34 -9.64 23.68 -11 23 C-11 19.7 -11 16.4 -11 13 C-8.03 13.495 -8.03 13.495 -5 14 C-5 12.68 -5 11.36 -5 10 C-4.01 10 -3.02 10 -2 10 C-2.226875 9.443125 -2.45375 8.88625 -2.6875 8.3125 C-3.12446199 5.07898125 -1.78001197 3.63441772 0 1 C0 0.67 0 0.34 0 0 Z " fill="#020202" transform="translate(441,236)"/>
<path d="M0 0 C0.66 0.33 1.32 0.66 2 1 C0.125 5.75 0.125 5.75 -1 8 C-0.7215625 8.928125 -0.7215625 8.928125 -0.4375 9.875 C0 12 0 12 -0.9375 13.75 C-2.55389504 17.1729542 -2.12535919 20.23922443 -2 24 C-3.98 24.99 -3.98 24.99 -6 26 C-6.66 25.34 -7.32 24.68 -8 24 C-7.484375 23.67 -6.96875 23.34 -6.4375 23 C-4.66165278 20.52925604 -4.97146029 19.85554407 -5.4375 16.9375 C-5.623125 15.638125 -5.80875 14.33875 -6 13 C-5.34 12.34 -4.68 11.68 -4 11 C-4.32326553 7.40320934 -4.32326553 7.40320934 -5 4 C-4.01 4 -3.02 4 -2 4 C-1.34 2.68 -0.68 1.36 0 0 Z " fill="#000000" transform="translate(469,230)"/>
<path d="M0 0 C0.33 0 0.66 0 1 0 C1.33 4.95 1.66 9.9 2 15 C2.66 15 3.32 15 4 15 C5.32 19.95 6.64 24.9 8 30 C7.34 30 6.68 30 6 30 C5.505 32.475 5.505 32.475 5 35 C4.67 35 4.34 35 4 35 C3.896875 33.865625 3.79375 32.73125 3.6875 31.5625 C3.32311188 28.47055962 2.63850392 25.98588199 1.4375 23.125 C-1.21119158 15.86038475 -0.22162454 7.60910911 0 0 Z " fill="#1C1C1C" transform="translate(425,220)"/>
<path d="M0 0 C0.91120605 0.01047363 1.82241211 0.02094727 2.76123047 0.03173828 C3.74736328 0.03818359 4.73349609 0.04462891 5.74951172 0.05126953 C7.29832031 0.07640625 7.29832031 0.07640625 8.87841797 0.10205078 C9.91869141 0.11107422 10.95896484 0.12009766 12.03076172 0.12939453 C14.60520889 0.15301331 17.17920009 0.18594929 19.75341797 0.22705078 C20.08341797 1.21705078 20.41341797 2.20705078 20.75341797 3.22705078 C17.89918605 3.25423394 15.04521782 3.27397783 12.19091797 3.28955078 C10.99112305 3.30211914 10.99112305 3.30211914 9.76708984 3.31494141 C4.98178693 3.33447325 0.47196746 3.03142096 -4.24658203 2.22705078 C-2.24658203 0.22705078 -2.24658203 0.22705078 0 0 Z " fill="#3C3C3C" transform="translate(195.24658203125,227.77294921875)"/>
<path d="M0 0 C1.89492187 0.01353516 1.89492187 0.01353516 3.828125 0.02734375 C4.79234375 0.03894531 5.7565625 0.05054688 6.75 0.0625 C6.75 0.3925 6.75 0.7225 6.75 1.0625 C9.39 1.3925 12.03 1.7225 14.75 2.0625 C14.75 2.3925 14.75 2.7225 14.75 3.0625 C6.17 3.3925 -2.41 3.7225 -11.25 4.0625 C-11.25 3.0725 -11.25 2.0825 -11.25 1.0625 C-7.49600202 -0.1414337 -3.91782588 -0.03627617 0 0 Z " fill="#3A3A3A" transform="translate(221.25,167.9375)"/>
<path d="M0 0 C-0.66 1.32 -1.32 2.64 -2 4 C-3.36125 3.9690625 -3.36125 3.9690625 -4.75 3.9375 C-7.43791858 3.98919074 -9.49820306 4.07340854 -12 5 C-12.33 5.66 -12.66 6.32 -13 7 C-13.33 7 -13.66 7 -14 7 C-14.33 8.65 -14.66 10.3 -15 12 C-15.33 12 -15.66 12 -16 12 C-16.48837209 6.62790698 -16.48837209 6.62790698 -14.25 3.75 C-9.31767264 -0.08625461 -6.16602706 -0.20553424 0 0 Z " fill="#2D2D2D" transform="translate(332,265)"/>
<path d="M0 0 C3.3 0 6.6 0 10 0 C10 0.33 10 0.66 10 1 C16.6 1.33 23.2 1.66 30 2 C30 2.33 30 2.66 30 3 C19.77 3 9.54 3 -1 3 C-0.67 2.01 -0.34 1.02 0 0 Z " fill="#1F1F1F" transform="translate(546,221)"/>
<path d="M0 0 C1.74216797 0.04060547 1.74216797 0.04060547 3.51953125 0.08203125 C4.39996094 0.11683594 5.28039062 0.15164062 6.1875 0.1875 C2.66102614 2.53848257 0.45684328 2.56954378 -3.65625 2.84375 C-6.10313757 3.08024238 -6.10313757 3.08024238 -8.8125 5.1875 C-10.01700304 7.73933404 -10.01700304 7.73933404 -10.8125 10.1875 C-11.875 8.375 -11.875 8.375 -12.8125 6.1875 C-11.8125 3.1875 -11.8125 3.1875 -9.67578125 1.51171875 C-6.22163234 -0.08576622 -3.78730066 -0.11476669 0 0 Z " fill="#292929" transform="translate(200.8125,193.8125)"/>
<path d="M0 0 C5.28 0 10.56 0 16 0 C15.67 0.99 15.34 1.98 15 3 C10.38 3 5.76 3 1 3 C0.67 2.01 0.34 1.02 0 0 Z " fill="#262626" transform="translate(328,233)"/>
<path d="M0 0 C1.32 0.66 2.64 1.32 4 2 C3.28972656 2.98742187 2.57945312 3.97484375 1.84765625 4.9921875 C0.91919608 6.28640471 -0.00918525 7.58067848 -0.9375 8.875 C-1.40607422 9.52597656 -1.87464844 10.17695313 -2.35742188 10.84765625 C-4.87145581 14.30397839 -4.87145581 14.30397839 -7 18 C-7.66 18 -8.32 18 -9 18 C-7.18704792 12.97317832 -4.39942714 8.85750339 -1.4609375 4.42578125 C0.17197169 2.18641014 0.17197169 2.18641014 0 0 Z " fill="#1B1B1B" transform="translate(339,247)"/>
<path d="M0 0 C0.99 0.33 1.98 0.66 3 1 C2.29534531 2.98802578 1.56040302 4.96533728 0.8125 6.9375 C0.40644531 8.03964844 0.00039062 9.14179688 -0.41796875 10.27734375 C-2 13 -2 13 -4.67578125 13.87890625 C-5.44277344 13.91886719 -6.20976562 13.95882813 -7 14 C-7.33 13.01 -7.66 12.02 -8 11 C-6.68 11 -5.36 11 -4 11 C-3.566875 9.6696875 -3.566875 9.6696875 -3.125 8.3125 C-2.16851252 5.49617576 -1.13201054 2.74916844 0 0 Z " fill="#282828" transform="translate(201,254)"/>
<path d="M0 0 C0.66 0.66 1.32 1.32 2 2 C1.69903201 6.13830989 1.32101984 8.51847024 -1 12 C-1.66 12 -2.32 12 -3 12 C-2.835 10.906875 -2.67 9.81375 -2.5 8.6875 C-1.93281816 5.12474127 -1.93281816 5.12474127 -2 2 C-1.34 1.34 -0.68 0.68 0 0 Z " fill="#000000" transform="translate(518,241)"/>
<path d="M0 0 C3.55885219 0.86994165 5.53230654 1.42317806 7.875 4.3125 C9.05205769 7.12436004 9.2582522 8.98705767 9 12 C8.34 12 7.68 12 7 12 C6.79375 10.906875 6.5875 9.81375 6.375 8.6875 C5.34336062 4.7714341 5.34336062 4.7714341 1.875 3.0625 C0.92625 2.711875 -0.0225 2.36125 -1 2 C-0.67 1.34 -0.34 0.68 0 0 Z " fill="#242424" transform="translate(198,158)"/>
<path d="M0 0 C0.33 0 0.66 0 1 0 C1.66 3.96 2.32 7.92 3 12 C2.01 12.33 1.02 12.66 0 13 C-2.41862845 6.74002047 -2.41862845 6.74002047 -1 3 C-0.67 2.01 -0.34 1.02 0 0 Z " fill="#292929" transform="translate(274,203)"/>
<path d="M0 0 C4.62 0 9.24 0 14 0 C13.67 0.99 13.34 1.98 13 3 C8.71 2.34 4.42 1.68 0 1 C0 0.67 0 0.34 0 0 Z " fill="#0F0F0F" transform="translate(196,218)"/>
<path d="M0 0 C2.4375 0.8125 2.4375 0.8125 5 2 C5.33 2.99 5.66 3.98 6 5 C3 5 3 5 0.8125 3 C0.214375 2.34 -0.38375 1.68 -1 1 C-0.67 0.67 -0.34 0.34 0 0 Z " fill="#000000" transform="translate(565,255)"/>
</svg>
