<?xml version="1.0" encoding="UTF-8"?>
<svg version="1.1" xmlns="http://www.w3.org/2000/svg" width="800" height="300">
<path d="M0 0 C264 0 528 0 800 0 C800 99 800 198 800 300 C536 300 272 300 0 300 C0 201 0 102 0 0 Z " fill="#FEFEFE" transform="translate(0,0)"/>
<path d="M0 0 C2.21988256 1.46944439 4.01475245 2.83174852 5.76953125 4.8359375 C6.31279904 8.45772276 6.40855625 10.5578875 4.76953125 13.8359375 C5.85234375 13.92875 5.85234375 13.92875 6.95703125 14.0234375 C12.97000075 15.76051758 17.67846457 22.53214003 20.76953125 27.8359375 C24.13522387 35.90363699 25.35748698 44.56818464 26.875 53.125 C27.07738281 54.20265625 27.27976562 55.2803125 27.48828125 56.390625 C27.66294922 57.36499512 27.83761719 58.33936523 28.01757812 59.34326172 C28.82989322 62.03603352 29.58868602 63.11069869 31.76953125 64.8359375 C32.42953125 65.1659375 33.08953125 65.4959375 33.76953125 65.8359375 C33.76953125 66.4959375 33.76953125 67.1559375 33.76953125 67.8359375 C34.63578125 68.0215625 34.63578125 68.0215625 35.51953125 68.2109375 C37.76953125 68.8359375 37.76953125 68.8359375 39.55786133 69.80517578 C49.34070915 74.3645293 62.00865803 73.07962622 72.58203125 72.9609375 C74.16080154 72.95087647 75.73957812 72.9417562 77.31835938 72.93359375 C81.13557578 72.91185314 84.95248134 72.87750015 88.76953125 72.8359375 C89.09953125 71.8459375 89.42953125 70.8559375 89.76953125 69.8359375 C90.68130127 69.75553223 91.59307129 69.67512695 92.5324707 69.59228516 C95.96774963 69.28689799 99.4025572 68.97694852 102.8371582 68.6640625 C104.31388587 68.53044234 105.79077176 68.39855757 107.26782227 68.26855469 C115.09379309 67.57857421 122.83400998 66.81827444 130.54101562 65.22851562 C133.66918202 64.67745388 136.6026033 64.69518515 139.76953125 64.8359375 C139.85203125 64.1140625 139.93453125 63.3921875 140.01953125 62.6484375 C140.97588108 59.06212564 141.99588675 57.32510564 144.76953125 54.8359375 C147.72234733 54.21029132 149.68773417 54.43828626 152.76953125 54.8359375 C155.05966778 58.2711423 154.94796098 59.8212685 154.76953125 63.8359375 C156.16171875 64.42375 156.16171875 64.42375 157.58203125 65.0234375 C161.10688188 67.02776433 162.31805737 68.07918157 163.76953125 71.8359375 C163.67351547 77.21282114 162.46306577 79.9958826 158.76953125 83.8359375 C155.53515625 85.41796875 155.53515625 85.41796875 152.01953125 86.6484375 C150.8490625 87.06738281 149.67859375 87.48632812 148.47265625 87.91796875 C147.13460937 88.37236328 147.13460937 88.37236328 145.76953125 88.8359375 C146.14078125 90.6303125 146.14078125 90.6303125 146.51953125 92.4609375 C146.97658624 96.04120159 146.7867969 96.80263946 145.01953125 100.2109375 C142.40546576 103.26068058 140.87762925 104.71805473 136.83203125 105.1484375 C133.76953125 104.8359375 133.76953125 104.8359375 131.89453125 103.2109375 C129.63665187 101.39506831 129.63665187 101.39506831 125.95703125 102.6484375 C125.25578125 102.8546875 124.55453125 103.0609375 123.83203125 103.2734375 C116.70245993 105.21786604 108.28363632 103.09299003 101.76953125 99.8359375 C101.46660156 100.33222656 101.16367187 100.82851562 100.8515625 101.33984375 C97.99293766 105.97521388 95.09614037 110.52033648 91.76953125 114.8359375 C91.10953125 114.8359375 90.44953125 114.8359375 89.76953125 114.8359375 C89.78113281 115.54621094 89.79273438 116.25648438 89.8046875 116.98828125 C89.81371094 117.90738281 89.82273437 118.82648438 89.83203125 119.7734375 C89.84363281 120.68996094 89.85523438 121.60648437 89.8671875 122.55078125 C89.76953125 124.8359375 89.76953125 124.8359375 88.76953125 125.8359375 C86.31460624 126.01657734 83.91448876 126.11395493 81.45703125 126.1484375 C80.77962891 126.17744141 80.10222656 126.20644531 79.40429688 126.23632812 C76.01333288 126.27941955 74.11840302 126.09125077 71.3515625 124.06640625 C68.80381632 120.47439867 68.76953125 118.24871353 68.76953125 113.8359375 C70.08203125 111.4609375 70.08203125 111.4609375 72.76953125 109.8359375 C74.41124297 109.57890183 76.05792561 109.35272969 77.70703125 109.1484375 C80.90651937 108.62934651 82.32131635 108.34093981 84.49609375 105.890625 C86.80023016 101.80785697 87.83761948 98.49549636 88.76953125 93.8359375 C56.42953125 93.8359375 24.08953125 93.8359375 -9.23046875 93.8359375 C-3.25337932 104.12089668 -3.25337932 104.12089668 6.45703125 109.0234375 C7.22402344 109.14074219 7.99101562 109.25804687 8.78125 109.37890625 C10.76953125 109.8359375 10.76953125 109.8359375 12.76953125 111.8359375 C13.39791999 116.53961207 13.4428242 121.82599808 10.76953125 125.8359375 C7.0632826 129.0367886 3.48677758 131.14321007 -1.48046875 131.2734375 C-7.32175506 130.5919541 -7.32175506 130.5919541 -9.23046875 128.8359375 C-10.10546875 125.3984375 -10.10546875 125.3984375 -10.23046875 121.8359375 C-9.24046875 120.3509375 -9.24046875 120.3509375 -8.23046875 118.8359375 C-7.57046875 118.8359375 -6.91046875 118.8359375 -6.23046875 118.8359375 C-6.23046875 118.1759375 -6.23046875 117.5159375 -6.23046875 116.8359375 C-6.82472656 116.72765625 -7.41898437 116.619375 -8.03125 116.5078125 C-10.49885136 115.75394495 -11.56958475 114.85673501 -13.41796875 113.0859375 C-16.76791055 110.05503778 -20.26054058 108.07607475 -24.3125 106.109375 C-26.56121827 104.61633598 -27.24316248 103.31203894 -28.23046875 100.8359375 C-28.87628906 100.95710938 -29.52210938 101.07828125 -30.1875 101.203125 C-43.71889362 103.60952879 -57.46920064 105.33035432 -71.23046875 104.8359375 C-71.37355469 105.62355469 -71.51664063 106.41117187 -71.6640625 107.22265625 C-72.23046875 109.8359375 -72.23046875 109.8359375 -73.29296875 111.6484375 C-76.44996588 113.58337123 -79.69466 113.47127813 -83.23046875 112.8359375 C-86.51028626 110.76822646 -88.07792882 109.06474739 -90.23046875 105.8359375 C-90.54367694 100.19819012 -90.17798262 95.31294441 -87.10546875 90.5234375 C-83.27706018 88.27632812 -81.49147332 88.80741915 -77.23046875 89.8359375 C-75.28140625 90.114375 -75.28140625 90.114375 -73.29296875 90.3984375 C-72.28234375 90.5428125 -71.27171875 90.6871875 -70.23046875 90.8359375 C-71.19146484 90.23072266 -71.19146484 90.23072266 -72.171875 89.61328125 C-80.11249308 84.03946439 -85.00964063 77.25031756 -87.23046875 67.8359375 C-89.01240335 54.34710701 -88.24041153 39.12347753 -80.046875 27.80859375 C-76.91585721 24.4082411 -73.19989117 22.1419829 -69.23046875 19.8359375 C-68.24046875 19.1759375 -67.25046875 18.5159375 -66.23046875 17.8359375 C-64.24076925 17.44580034 -62.24027006 17.10391101 -60.23046875 16.8359375 C-60.1325 16.18367188 -60.03453125 15.53140625 -59.93359375 14.859375 C-58.98400739 9.30920644 -58.16545375 4.98953278 -54.23046875 0.8359375 C-50.98046875 0.4609375 -50.98046875 0.4609375 -48.23046875 0.8359375 C-48.23046875 1.4959375 -48.23046875 2.1559375 -48.23046875 2.8359375 C-47.24046875 3.1659375 -46.25046875 3.4959375 -45.23046875 3.8359375 C-43.28536875 6.7535875 -42.77770558 8.46131035 -42.23046875 11.8359375 C-41.39773437 11.51109375 -40.565 11.18625 -39.70703125 10.8515625 C-35.85056864 9.72495545 -32.61707151 9.56985893 -28.60546875 9.5859375 C-26.66800781 9.57820312 -26.66800781 9.57820312 -24.69140625 9.5703125 C-21.54636671 9.81169251 -19.84423587 10.16418797 -17.23046875 11.8359375 C-17.31296875 10.7840625 -17.39546875 9.7321875 -17.48046875 8.6484375 C-17.19043292 4.22539105 -16.36165993 2.88015115 -13.23046875 -0.1640625 C-9.01423305 -3.36258613 -4.48983358 -2.34320562 0 0 Z " fill="#FBFBFB" transform="translate(242.23046875,155.1640625)"/>
<path d="M0 0 C3 1.125 3 1.125 5 3.6875 C9.32001529 7.19751242 13.01420795 6.59726205 18.4296875 6.49609375 C22.01158558 6.23583078 22.01158558 6.23583078 25.37890625 5.11328125 C29.72194312 3.92796482 33.58676641 3.82463072 38.0625 3.875 C38.917229 3.87959229 39.77195801 3.88418457 40.65258789 3.88891602 C51.61101098 4.03859687 63.01807355 4.52413677 73.78515625 6.68359375 C80.82494371 8.0865849 88.40862453 7.17685983 95.53857422 6.76416016 C105.97627002 6.1740504 116.4101612 5.95654549 126.86279297 5.89282227 C128.52755234 5.88101202 130.19228348 5.86398605 131.85693359 5.84155273 C134.22511537 5.81141051 136.59258459 5.80161354 138.9609375 5.796875 C139.6675351 5.78456848 140.37413269 5.77226196 141.10214233 5.75958252 C146.17862453 5.78191008 149.57350682 6.81558656 154 9.125 C155.125 11.0625 155.125 11.0625 156 13.125 C157.65788785 14.46923339 159.32576317 15.80118483 161 17.125 C166.84894313 23.54457172 170.43621605 29.48716048 171.3125 38.25 C170.50377503 48.27818958 165.21584103 59.73516824 158.5 67.25 C153.59544727 70.92841455 147.51979135 70.25205331 141.61328125 70.1875 C140.79796432 70.18371338 139.9826474 70.17992676 139.1426239 70.17602539 C135.69405414 70.15997515 132.245609 70.13260761 128.79711914 70.10449219 C119.32798193 70.03416536 109.89614519 70.09692316 100.43473816 70.52130127 C85.70750233 71.18117987 71.09029734 71.04011423 56.35986328 70.51074219 C52.44729389 70.37314645 48.53447789 70.26017907 44.62109375 70.1484375 C42.09109647 70.06396567 39.56114587 69.97808136 37.03125 69.890625 C35.88217163 69.85922424 34.73309326 69.82782349 33.54919434 69.79547119 C23.3765977 69.39496198 11.83441329 68.06975681 4.34765625 60.44140625 C-1.82681152 52.93844664 -3.0637654 44.33844549 -4.4609375 34.97265625 C-4.94344294 32.42376882 -5.62919869 30.37782463 -6.625 28 C-8.28641092 23.3583262 -8.40171748 18.75701372 -8.5 13.875 C-8.5304541 13.09366699 -8.5609082 12.31233398 -8.59228516 11.50732422 C-8.59503932 7.23378247 -8.35530653 5.58571414 -5.65625 2.0859375 C-3 0.125 -3 0.125 0 0 Z " fill="#646464" transform="translate(433,214.875)"/>
<path d="M0 0 C2.21988256 1.46944439 4.01475245 2.83174852 5.76953125 4.8359375 C6.31279904 8.45772276 6.40855625 10.5578875 4.76953125 13.8359375 C5.85234375 13.92875 5.85234375 13.92875 6.95703125 14.0234375 C12.97000075 15.76051758 17.67846457 22.53214003 20.76953125 27.8359375 C24.13522387 35.90363699 25.35748698 44.56818464 26.875 53.125 C27.07738281 54.20265625 27.27976562 55.2803125 27.48828125 56.390625 C27.66294922 57.36499512 27.83761719 58.33936523 28.01757812 59.34326172 C28.82989322 62.03603352 29.58868602 63.11069869 31.76953125 64.8359375 C32.42953125 65.1659375 33.08953125 65.4959375 33.76953125 65.8359375 C33.76953125 66.4959375 33.76953125 67.1559375 33.76953125 67.8359375 C34.63578125 68.0215625 34.63578125 68.0215625 35.51953125 68.2109375 C37.76953125 68.8359375 37.76953125 68.8359375 39.55786133 69.80517578 C49.34070915 74.3645293 62.00865803 73.07962622 72.58203125 72.9609375 C74.16080154 72.95087647 75.73957812 72.9417562 77.31835938 72.93359375 C81.13557578 72.91185314 84.95248134 72.87750015 88.76953125 72.8359375 C89.09953125 71.8459375 89.42953125 70.8559375 89.76953125 69.8359375 C90.68130127 69.75553223 91.59307129 69.67512695 92.5324707 69.59228516 C95.96774963 69.28689799 99.4025572 68.97694852 102.8371582 68.6640625 C104.31388587 68.53044234 105.79077176 68.39855757 107.26782227 68.26855469 C115.09379309 67.57857421 122.83400998 66.81827444 130.54101562 65.22851562 C133.66918202 64.67745388 136.6026033 64.69518515 139.76953125 64.8359375 C139.85203125 64.1140625 139.93453125 63.3921875 140.01953125 62.6484375 C140.97588108 59.06212564 141.99588675 57.32510564 144.76953125 54.8359375 C147.72234733 54.21029132 149.68773417 54.43828626 152.76953125 54.8359375 C155.05966778 58.2711423 154.94796098 59.8212685 154.76953125 63.8359375 C156.16171875 64.42375 156.16171875 64.42375 157.58203125 65.0234375 C161.10688188 67.02776433 162.31805737 68.07918157 163.76953125 71.8359375 C163.67351547 77.21282114 162.46306577 79.9958826 158.76953125 83.8359375 C155.53515625 85.41796875 155.53515625 85.41796875 152.01953125 86.6484375 C150.8490625 87.06738281 149.67859375 87.48632812 148.47265625 87.91796875 C147.13460937 88.37236328 147.13460937 88.37236328 145.76953125 88.8359375 C146.14078125 90.6303125 146.14078125 90.6303125 146.51953125 92.4609375 C146.97658624 96.04120159 146.7867969 96.80263946 145.01953125 100.2109375 C142.40546576 103.26068058 140.87762925 104.71805473 136.83203125 105.1484375 C133.76953125 104.8359375 133.76953125 104.8359375 131.89453125 103.2109375 C129.63665187 101.39506831 129.63665187 101.39506831 125.95703125 102.6484375 C125.25578125 102.8546875 124.55453125 103.0609375 123.83203125 103.2734375 C116.70245993 105.21786604 108.28363632 103.09299003 101.76953125 99.8359375 C101.46660156 100.33222656 101.16367187 100.82851562 100.8515625 101.33984375 C97.99293766 105.97521388 95.09614037 110.52033648 91.76953125 114.8359375 C91.10953125 114.8359375 90.44953125 114.8359375 89.76953125 114.8359375 C89.78113281 115.54621094 89.79273438 116.25648438 89.8046875 116.98828125 C89.81371094 117.90738281 89.82273437 118.82648438 89.83203125 119.7734375 C89.84363281 120.68996094 89.85523438 121.60648437 89.8671875 122.55078125 C89.76953125 124.8359375 89.76953125 124.8359375 88.76953125 125.8359375 C86.31460624 126.01657734 83.91448876 126.11395493 81.45703125 126.1484375 C80.77962891 126.17744141 80.10222656 126.20644531 79.40429688 126.23632812 C76.01333288 126.27941955 74.11840302 126.09125077 71.3515625 124.06640625 C68.80381632 120.47439867 68.76953125 118.24871353 68.76953125 113.8359375 C70.08203125 111.4609375 70.08203125 111.4609375 72.76953125 109.8359375 C74.41124297 109.57890183 76.05792561 109.35272969 77.70703125 109.1484375 C80.90651937 108.62934651 82.32131635 108.34093981 84.49609375 105.890625 C86.80023016 101.80785697 87.83761948 98.49549636 88.76953125 93.8359375 C56.42953125 93.8359375 24.08953125 93.8359375 -9.23046875 93.8359375 C-3.25337932 104.12089668 -3.25337932 104.12089668 6.45703125 109.0234375 C7.22402344 109.14074219 7.99101562 109.25804687 8.78125 109.37890625 C10.76953125 109.8359375 10.76953125 109.8359375 12.76953125 111.8359375 C13.39791999 116.53961207 13.4428242 121.82599808 10.76953125 125.8359375 C7.0632826 129.0367886 3.48677758 131.14321007 -1.48046875 131.2734375 C-7.32175506 130.5919541 -7.32175506 130.5919541 -9.23046875 128.8359375 C-10.10546875 125.3984375 -10.10546875 125.3984375 -10.23046875 121.8359375 C-9.24046875 120.3509375 -9.24046875 120.3509375 -8.23046875 118.8359375 C-7.57046875 118.8359375 -6.91046875 118.8359375 -6.23046875 118.8359375 C-6.23046875 118.1759375 -6.23046875 117.5159375 -6.23046875 116.8359375 C-6.82472656 116.72765625 -7.41898437 116.619375 -8.03125 116.5078125 C-10.49885136 115.75394495 -11.56958475 114.85673501 -13.41796875 113.0859375 C-16.76791055 110.05503778 -20.26054058 108.07607475 -24.3125 106.109375 C-26.56121827 104.61633598 -27.24316248 103.31203894 -28.23046875 100.8359375 C-28.87628906 100.95710938 -29.52210938 101.07828125 -30.1875 101.203125 C-43.71889362 103.60952879 -57.46920064 105.33035432 -71.23046875 104.8359375 C-71.37355469 105.62355469 -71.51664063 106.41117187 -71.6640625 107.22265625 C-72.23046875 109.8359375 -72.23046875 109.8359375 -73.29296875 111.6484375 C-76.44996588 113.58337123 -79.69466 113.47127813 -83.23046875 112.8359375 C-86.51028626 110.76822646 -88.07792882 109.06474739 -90.23046875 105.8359375 C-90.54367694 100.19819012 -90.17798262 95.31294441 -87.10546875 90.5234375 C-83.27706018 88.27632812 -81.49147332 88.80741915 -77.23046875 89.8359375 C-75.28140625 90.114375 -75.28140625 90.114375 -73.29296875 90.3984375 C-72.28234375 90.5428125 -71.27171875 90.6871875 -70.23046875 90.8359375 C-71.19146484 90.23072266 -71.19146484 90.23072266 -72.171875 89.61328125 C-80.11249308 84.03946439 -85.00964063 77.25031756 -87.23046875 67.8359375 C-89.01240335 54.34710701 -88.24041153 39.12347753 -80.046875 27.80859375 C-76.91585721 24.4082411 -73.19989117 22.1419829 -69.23046875 19.8359375 C-68.24046875 19.1759375 -67.25046875 18.5159375 -66.23046875 17.8359375 C-64.24076925 17.44580034 -62.24027006 17.10391101 -60.23046875 16.8359375 C-60.1325 16.18367188 -60.03453125 15.53140625 -59.93359375 14.859375 C-58.98400739 9.30920644 -58.16545375 4.98953278 -54.23046875 0.8359375 C-50.98046875 0.4609375 -50.98046875 0.4609375 -48.23046875 0.8359375 C-48.23046875 1.4959375 -48.23046875 2.1559375 -48.23046875 2.8359375 C-47.24046875 3.1659375 -46.25046875 3.4959375 -45.23046875 3.8359375 C-43.28536875 6.7535875 -42.77770558 8.46131035 -42.23046875 11.8359375 C-41.39773437 11.51109375 -40.565 11.18625 -39.70703125 10.8515625 C-35.85056864 9.72495545 -32.61707151 9.56985893 -28.60546875 9.5859375 C-26.66800781 9.57820312 -26.66800781 9.57820312 -24.69140625 9.5703125 C-21.54636671 9.81169251 -19.84423587 10.16418797 -17.23046875 11.8359375 C-17.31296875 10.7840625 -17.39546875 9.7321875 -17.48046875 8.6484375 C-17.19043292 4.22539105 -16.36165993 2.88015115 -13.23046875 -0.1640625 C-9.01423305 -3.36258613 -4.48983358 -2.34320562 0 0 Z M-13.23046875 4.8359375 C-14.49073673 7.35647345 -14.1492132 8.6901473 -13.79296875 11.4609375 C-13.64021484 12.68683594 -13.64021484 12.68683594 -13.484375 13.9375 C-13.40058594 14.56398437 -13.31679687 15.19046875 -13.23046875 15.8359375 C-14.24109375 15.5059375 -15.25171875 15.1759375 -16.29296875 14.8359375 C-26.02177301 12.41669665 -36.61472492 13.30190618 -46.23046875 15.8359375 C-46.12734375 14.6190625 -46.02421875 13.4021875 -45.91796875 12.1484375 C-45.88455354 8.38588523 -46.13716577 7.94790108 -48.73046875 4.8359375 C-49.55546875 4.1759375 -50.38046875 3.5159375 -51.23046875 2.8359375 C-54.78927328 4.02220568 -55.68115426 5.48837944 -57.4453125 8.71484375 C-58.79999349 12.37450433 -58.54398271 15.99539145 -58.23046875 19.8359375 C-58.91109375 19.9390625 -59.59171875 20.0421875 -60.29296875 20.1484375 C-65.65294967 21.40290112 -70.71182809 23.68658189 -75.23046875 26.8359375 C-75.23046875 27.4959375 -75.23046875 28.1559375 -75.23046875 28.8359375 C-75.89046875 28.8359375 -76.55046875 28.8359375 -77.23046875 28.8359375 C-78.0375689 30.13900377 -78.82517052 31.45414715 -79.60546875 32.7734375 C-80.26675781 33.86978516 -80.26675781 33.86978516 -80.94140625 34.98828125 C-84.11046569 41.98902166 -84.59378259 49.2399333 -84.60546875 56.8359375 C-84.62996094 57.67382812 -84.65445313 58.51171875 -84.6796875 59.375 C-84.72213301 68.51493298 -81.02348623 76.83921678 -74.66796875 83.46484375 C-67.84705357 89.78332545 -60.74711061 90.15150711 -51.79296875 90.4609375 C-50.87064453 90.49960938 -49.94832031 90.53828125 -48.99804688 90.578125 C-46.74237732 90.67162426 -44.48669959 90.7573766 -42.23046875 90.8359375 C-49.47338169 92.02197889 -56.66573277 93.0574923 -63.98828125 93.58984375 C-66.39771899 93.77455543 -66.39771899 93.77455543 -69.23046875 94.8359375 C-72.66796875 95.1484375 -72.66796875 95.1484375 -76.23046875 94.8359375 C-77.60242449 93.54237923 -78.94229531 92.21295048 -80.23046875 90.8359375 C-82.38779007 90.75025247 -82.38779007 90.75025247 -84.23046875 91.8359375 C-86.9972077 95.98604593 -87.54639417 99.87590848 -87.23046875 104.8359375 C-85.37405126 108.1099346 -85.37405126 108.1099346 -82.23046875 109.8359375 C-79.10284608 110.42036713 -79.10284608 110.42036713 -76.23046875 109.8359375 C-75.24046875 108.8459375 -75.24046875 108.8459375 -74.23046875 107.8359375 C-74.55088272 105.23313182 -74.55088272 105.23313182 -75.23046875 102.8359375 C-58.57655432 101.00909571 -41.9218425 99.28365869 -25.23046875 97.8359375 C-25.72546875 99.3209375 -25.72546875 99.3209375 -26.23046875 100.8359375 C-25.67359375 101.19945312 -25.11671875 101.56296875 -24.54296875 101.9375 C-20.64119053 104.50792822 -16.8107865 107.11292857 -13.10546875 109.9609375 C-9.63459069 112.60939867 -6.06766961 114.7574537 -2.23046875 116.8359375 C-3.46796875 117.91875 -3.46796875 117.91875 -4.73046875 119.0234375 C-7.47454681 121.56511116 -7.47454681 121.56511116 -7.54296875 124.6484375 C-7.43984375 125.3703125 -7.33671875 126.0921875 -7.23046875 126.8359375 C-1.58695269 128.10284927 1.79207258 127.89898899 6.76953125 124.8359375 C9.06879512 121.02778172 9.86075221 118.83936801 9.45703125 114.3984375 C9.23015625 113.5528125 9.00328125 112.7071875 8.76953125 111.8359375 C8.14046875 111.79597656 7.51140625 111.75601563 6.86328125 111.71484375 C-0.08475066 110.86726757 -3.26650516 108.58053366 -7.61328125 103.16015625 C-9.45884179 100.5077202 -10.8732175 97.76474283 -12.23046875 94.8359375 C-13.71546875 93.8459375 -13.71546875 93.8459375 -15.23046875 92.8359375 C-15.23046875 92.1759375 -15.23046875 91.5159375 -15.23046875 90.8359375 C-4.33613775 90.70371107 6.55821262 90.57321858 17.45258904 90.44478607 C22.51430127 90.38506294 27.57600573 90.32479912 32.63769531 90.26318359 C43.14997847 90.13556338 53.66224644 90.01584283 64.17483139 89.91574097 C68.88437449 89.86975871 73.59329475 89.81058987 78.30238914 89.73104095 C81.3355803 89.68238405 84.36895913 89.65128424 87.40234375 89.6171875 C88.96491409 89.58232239 88.96491409 89.58232239 90.55905151 89.54675293 C91.95318771 89.53617859 91.95318771 89.53617859 93.37548828 89.52539062 C94.16182648 89.51286255 94.94816467 89.50033447 95.7583313 89.48742676 C97.76953125 89.8359375 97.76953125 89.8359375 100.76953125 92.8359375 C97.79953125 92.8359375 94.82953125 92.8359375 91.76953125 92.8359375 C91.51558594 93.63257813 91.26164063 94.42921875 91 95.25 C89.23592214 100.68098127 87.37935574 105.74677975 84.76953125 110.8359375 C84.76953125 111.8259375 84.76953125 112.8159375 84.76953125 113.8359375 C83.77953125 113.5059375 82.78953125 113.1759375 81.76953125 112.8359375 C76.62009847 112.4342036 76.62009847 112.4342036 71.76953125 113.8359375 C72.09913341 118.85128802 72.09913341 118.85128802 74.76953125 122.8359375 C77.66836208 123.07933301 77.66836208 123.07933301 80.89453125 122.9609375 C81.99023438 122.94289063 83.0859375 122.92484375 84.21484375 122.90625 C85.05789063 122.88304687 85.9009375 122.85984375 86.76953125 122.8359375 C86.91390625 121.7428125 87.05828125 120.6496875 87.20703125 119.5234375 C87.76953125 115.8359375 87.76953125 115.8359375 88.76953125 112.8359375 C89.42953125 112.8359375 90.08953125 112.8359375 90.76953125 112.8359375 C92.25493461 111.22093913 92.25493461 111.22093913 93.70703125 109.1484375 C94.23554688 108.42140625 94.7640625 107.694375 95.30859375 106.9453125 C96.90810808 104.6358533 98.36797368 102.27022171 99.76953125 99.8359375 C100.09953125 99.5059375 100.42953125 99.1759375 100.76953125 98.8359375 C100.81016957 97.16976635 100.81225225 95.50205655 100.76953125 93.8359375 C102.08953125 93.8359375 103.40953125 93.8359375 104.76953125 93.8359375 C105.09953125 93.1759375 105.42953125 92.5159375 105.76953125 91.8359375 C108.10546875 91.2734375 108.10546875 91.2734375 111.14453125 90.8359375 C112.22347656 90.66964844 113.30242187 90.50335938 114.4140625 90.33203125 C116.07501953 90.08646484 116.07501953 90.08646484 117.76953125 89.8359375 C119.79229335 89.53617574 121.81335039 89.22455283 123.83203125 88.8984375 C124.70988281 88.76566406 125.58773437 88.63289063 126.4921875 88.49609375 C128.84266109 88.02844288 128.84266109 88.02844288 130.20703125 86.26953125 C131.76953125 84.8359375 131.76953125 84.8359375 134.484375 84.6484375 C135.54785156 84.7103125 136.61132812 84.7721875 137.70703125 84.8359375 C145.46409175 85.00079673 153.39194315 84.61306549 159.58203125 79.5234375 C161.49268298 75.19933096 160.20736745 72.1494461 158.76953125 67.8359375 C155.79953125 67.5059375 152.82953125 67.1759375 149.76953125 66.8359375 C150.42953125 65.5159375 151.08953125 64.1959375 151.76953125 62.8359375 C151.4614967 59.65071546 151.4614967 59.65071546 150.76953125 56.8359375 C148.33235867 57.10628384 148.33235867 57.10628384 145.76953125 57.8359375 C143.82443125 60.7535875 143.31676808 62.46131035 142.76953125 65.8359375 C136.95056671 68.17562515 131.01199574 68.66001107 124.83203125 69.3359375 C122.59496535 69.59169044 120.35798575 69.84819929 118.12109375 70.10546875 C117.03731445 70.22873535 115.95353516 70.35200195 114.83691406 70.47900391 C110.7874679 70.95021453 106.74651689 71.47399877 102.70703125 72.0234375 C101.54042969 72.18199219 100.37382812 72.34054688 99.171875 72.50390625 C97.98271484 72.66826172 97.98271484 72.66826172 96.76953125 72.8359375 C96.76953125 73.4959375 96.76953125 74.1559375 96.76953125 74.8359375 C96.15464844 74.82433594 95.53976562 74.81273437 94.90625 74.80078125 C94.09800781 74.79175781 93.28976562 74.78273438 92.45703125 74.7734375 C91.25626953 74.75603516 91.25626953 74.75603516 90.03125 74.73828125 C87.60091791 74.73935895 87.60091791 74.73935895 84.76953125 75.8359375 C45.06449858 78.08822126 45.06449858 78.08822126 30.6875 68.140625 C28.70052239 66.66175799 28.70052239 66.66175799 25.76953125 65.8359375 C25.58777344 64.78277344 25.40601563 63.72960937 25.21875 62.64453125 C24.55516038 58.82052355 23.87525367 54.99959448 23.18847656 51.1796875 C22.92093963 49.6829774 22.65691037 48.18563322 22.39746094 46.6875 C20.42912621 35.3655085 17.96142425 25.48313479 8.76953125 17.8359375 C6.23332508 16.92310065 4.50639157 16.8359375 1.76953125 16.8359375 C2.04796875 15.2271875 2.04796875 15.2271875 2.33203125 13.5859375 C2.9219385 9.52691028 2.9219385 9.52691028 1.76953125 5.8359375 C-0.67183575 3.3945705 -2.29964479 1.99883169 -5.73046875 1.3984375 C-8.78980617 1.93382155 -10.7227837 3.02483163 -13.23046875 4.8359375 Z " fill="#191919" transform="translate(242.23046875,155.1640625)"/>
<path d="M0 0 C3 1.125 3 1.125 5 3.6875 C9.32001529 7.19751242 13.01420795 6.59726205 18.4296875 6.49609375 C22.01158558 6.23583078 22.01158558 6.23583078 25.37890625 5.11328125 C29.72194312 3.92796482 33.58676641 3.82463072 38.0625 3.875 C38.917229 3.87959229 39.77195801 3.88418457 40.65258789 3.88891602 C51.61101098 4.03859687 63.01807355 4.52413677 73.78515625 6.68359375 C80.82494371 8.0865849 88.40862453 7.17685983 95.53857422 6.76416016 C105.97627002 6.1740504 116.4101612 5.95654549 126.86279297 5.89282227 C128.52755234 5.88101202 130.19228348 5.86398605 131.85693359 5.84155273 C134.22511537 5.81141051 136.59258459 5.80161354 138.9609375 5.796875 C139.6675351 5.78456848 140.37413269 5.77226196 141.10214233 5.75958252 C146.17862453 5.78191008 149.57350682 6.81558656 154 9.125 C155.125 11.0625 155.125 11.0625 156 13.125 C157.65788785 14.46923339 159.32576317 15.80118483 161 17.125 C166.84894313 23.54457172 170.43621605 29.48716048 171.3125 38.25 C170.50377503 48.27818958 165.21584103 59.73516824 158.5 67.25 C153.59544727 70.92841455 147.51979135 70.25205331 141.61328125 70.1875 C140.79796432 70.18371338 139.9826474 70.17992676 139.1426239 70.17602539 C135.69405414 70.15997515 132.245609 70.13260761 128.79711914 70.10449219 C119.32798193 70.03416536 109.89614519 70.09692316 100.43473816 70.52130127 C85.70750233 71.18117987 71.09029734 71.04011423 56.35986328 70.51074219 C52.44729389 70.37314645 48.53447789 70.26017907 44.62109375 70.1484375 C42.09109647 70.06396567 39.56114587 69.97808136 37.03125 69.890625 C35.88217163 69.85922424 34.73309326 69.82782349 33.54919434 69.79547119 C23.3765977 69.39496198 11.83441329 68.06975681 4.34765625 60.44140625 C-1.82681152 52.93844664 -3.0637654 44.33844549 -4.4609375 34.97265625 C-4.94344294 32.42376882 -5.62919869 30.37782463 -6.625 28 C-8.28641092 23.3583262 -8.40171748 18.75701372 -8.5 13.875 C-8.5304541 13.09366699 -8.5609082 12.31233398 -8.59228516 11.50732422 C-8.59503932 7.23378247 -8.35530653 5.58571414 -5.65625 2.0859375 C-3 0.125 -3 0.125 0 0 Z M-2 3.125 C-5.34219637 6.76799404 -5.86682069 9.94781704 -6.19921875 14.7578125 C-5.95003152 18.96956534 -5.0251107 22.72175764 -3.8125 26.75 C-3.60431641 27.46124023 -3.39613281 28.17248047 -3.18164062 28.90527344 C-2.48498439 31.15772482 -2.48498439 31.15772482 -1 34.125 C1.05763303 35.20031087 1.05763303 35.20031087 3 35.125 C3 33.805 3 32.485 3 31.125 C3.99 31.125 4.98 31.125 6 31.125 C6.1546875 30.01125 6.1546875 30.01125 6.3125 28.875 C7.04253504 25.95485982 8.06789398 24.39312446 10 22.125 C9.39050431 26.2695707 7.96084772 29.4386063 6 33.125 C5.690625 33.8675 5.38125 34.61 5.0625 35.375 C3.7196378 37.58677303 2.28882417 38.01750443 0 39.125 C-1.80310102 44.53430306 0.85118344 50.03032809 3 55.125 C4.89597259 57.55165194 6.29919246 58.5397434 9 60.125 C9.66 60.125 10.32 60.125 11 60.125 C11 60.785 11 61.445 11 62.125 C21.26154022 65.59645722 30.67541799 66.20126388 41.4375 66.25 C42.77143799 66.25713013 42.77143799 66.25713013 44.13232422 66.2644043 C45.39520264 66.26114136 45.39520264 66.26114136 46.68359375 66.2578125 C47.82139282 66.25612061 47.82139282 66.25612061 48.98217773 66.25439453 C51.20626495 66.197839 51.20626495 66.197839 54 65.125 C54.20086443 61.40900809 54.1519437 60.35291555 52 57.125 C52.875 54.4375 52.875 54.4375 54 52.125 C53.01 51.135 52.02 50.145 51 49.125 C51.680625 48.568125 52.36125 48.01125 53.0625 47.4375 C55.28097119 45.29246056 55.28097119 45.29246056 55 42.5 C54.20423043 39.98006227 54.20423043 39.98006227 51.9375 38.8125 C51.298125 38.585625 50.65875 38.35875 50 38.125 C50.495 37.135 50.495 37.135 51 36.125 C52.875 36.75 52.875 36.75 55 38.125 C57.27878599 42.7910856 56.96687605 46.11482411 56 51.125 C54.96234078 57.03965756 55.10030096 61.42590287 57 67.125 C58.95486328 67.10953125 58.95486328 67.10953125 60.94921875 67.09375 C65.58771764 67.09375 70.18493274 67.33249253 74.8125 67.625 C81.91885989 68.03528471 89.0067453 68.23457722 96.125 68.25 C97.43174683 68.25676758 97.43174683 68.25676758 98.76489258 68.26367188 C102.69673607 68.64435259 102.69673607 68.64435259 106 67.125 C108.67250538 67.10412105 111.32900188 67.1313335 114 67.1875 C120.31908812 67.26676106 125.88847363 66.90289858 132 65.125 C132.94125778 61.46455306 133.65698407 57.89817527 134 54.125 C133.34 53.135 132.68 52.145 132 51.125 C133.98 48.155 133.98 48.155 136 45.125 C134.02 43.145 134.02 43.145 132 41.125 C133.32 41.455 134.64 41.785 136 42.125 C136.625 44.5 136.625 44.5 137 47.125 C136.01 48.115 136.01 48.115 135 49.125 C135.165 50.218125 135.33 51.31125 135.5 52.4375 C136.03296631 56.36812655 135.48213276 57.6049347 134 61.125 C134.27701774 62.80194665 134.60458862 64.47196076 135 66.125 C146.213767 67.99624647 146.213767 67.99624647 156.609375 64.953125 C163.05860623 58.23794609 167.90754151 47.33286442 169 38.125 C167.48779932 29.66347263 161.28652745 21.7130244 155 16.125 C154.01 15.63 154.01 15.63 153 15.125 C152.61781233 16.78114657 152.28604898 18.44957024 152 20.125 C152.33 20.455 152.66 20.785 153 21.125 C153.2165625 22.73375 153.2165625 22.73375 153.4375 24.375 C153.82799456 28.02222987 153.82799456 28.02222987 155.125 30.8125 C156.11341176 33.42473109 155.95398577 34.54923842 155 37.125 C152.525 37.62 152.525 37.62 150 38.125 C151 36.125 151 36.125 154 34.125 C153.505 33.238125 153.01 32.35125 152.5 31.4375 C151.05621326 28.24913762 150.69840078 26.54312454 151 23.125 C149.68 22.795 148.36 22.465 147 22.125 C148.98 17.67 148.98 17.67 151 13.125 C145.21350937 9.83307915 141.17561486 8.54587548 134.5625 8.734375 C133.79695801 8.74003479 133.03141602 8.74569458 132.24267578 8.75152588 C129.82777979 8.77369165 127.41443777 8.82384461 125 8.875 C123.35028204 8.89509085 121.70054052 8.91333706 120.05078125 8.9296875 C116.03326695 8.97349057 112.01689574 9.04237398 108 9.125 C108 9.785 108 10.445 108 11.125 C108.99 11.8984375 108.99 11.8984375 110 12.6875 C112.61592046 15.87565306 112.36839565 17.90694411 112.23828125 21.90625 C112 24.125 112 24.125 111.41796875 26.25390625 C110.7829888 28.25792357 110.7829888 28.25792357 112 30.5625 C113.20265703 33.64430863 113.24108827 35.06364894 112 38.125 C109.4375 39.4375 109.4375 39.4375 107 40.125 C108.65 38.145 110.3 36.165 112 34.125 C111.484375 33.238125 110.96875 32.35125 110.4375 31.4375 C108.8982735 27.89058677 108.80781918 26.70154245 110 23.125 C110.33 22.465 110.66 21.805 111 21.125 C110.01 21.125 109.02 21.125 108 21.125 C108.33 20.526875 108.66 19.92875 109 19.3125 C110.20787988 17.07113529 110.20787988 17.07113529 110 14.125 C107.17159994 11.10586005 105.50626342 10.18930472 101.37109375 9.6640625 C100.07300781 9.69242188 98.77492188 9.72078125 97.4375 9.75 C96.13683594 9.76289063 94.83617187 9.77578125 93.49609375 9.7890625 C90.3697929 10.08946683 88.60753355 10.46626365 86 12.125 C86.99 13.61 86.99 13.61 88 15.125 C87.67873872 17.75934254 87.18644952 19.75210097 86 22.125 C85.98012522 23.72917883 86.0072121 25.33415101 86.0625 26.9375 C86.10140325 30.78336422 85.97921869 33.7163456 84 37.125 C83.01 37.62 83.01 37.62 82 38.125 C82.350625 37.01125 82.70125 35.8975 83.0625 34.75 C84.37239331 31.32235524 84.37239331 31.32235524 83 29.125 C83.27942455 27.44845271 83.60828247 25.77891846 84 24.125 C83.01 24.125 82.02 24.125 81 24.125 C82.11179163 20.78962511 83.47411298 19.48792656 86 17.125 C85.06231164 14.06991079 85.06231164 14.06991079 83 11.125 C80.19158076 10.27670567 78.0869318 9.88391153 75.21875 9.6640625 C74.45002563 9.58376801 73.68130127 9.50347351 72.88928223 9.42074585 C70.42796038 9.17084665 67.96495857 8.9606349 65.5 8.75 C63.87214879 8.58708532 62.24453837 8.42174521 60.6171875 8.25390625 C52.40218153 7.43603507 44.26393848 6.85612325 36 7.125 C36.495 8.115 36.495 8.115 37 9.125 C37.31337847 14.66135301 36.4386757 18.2476486 34 23.125 C34.185625 23.74375 34.37125 24.3625 34.5625 25 C35 27.125 35 27.125 34.0625 28.875 C32.44610496 32.2979542 32.87464081 35.36422443 33 39.125 C32.01 39.455 31.02 39.785 30 40.125 C29.67 39.795 29.34 39.465 29 39.125 C29.7734375 38.63 29.7734375 38.63 30.5625 38.125 C32.33834722 35.65425604 32.02853971 34.98054407 31.5625 32.0625 C31.2840625 30.1134375 31.2840625 30.1134375 31 28.125 C31.66 27.465 32.32 26.805 33 26.125 C32.6730244 23.50919521 32.17960932 21.48421863 31 19.125 C31.99 19.125 32.98 19.125 34 19.125 C35.4783226 16.16835481 35.06032783 13.38270263 35 10.125 C34.34 10.125 33.68 10.125 33 10.125 C33 9.465 33 8.805 33 8.125 C32.195625 8.23328125 32.195625 8.23328125 31.375 8.34375 C25.8169062 9.00194532 20.27974669 9.28786142 14.6875 9.375 C13.6655957 9.4069043 13.6655957 9.4069043 12.62304688 9.43945312 C8.2150567 9.46979327 5.48757498 8.84391092 2 6.125 C1.34 5.135 0.68 4.145 0 3.125 C-0.66 3.125 -1.32 3.125 -2 3.125 Z " fill="#0F0F0F" transform="translate(433,214.875)"/>
<path d="M0 0 C1.27875 0.165 2.5575 0.33 3.875 0.5 C6.16513653 3.9352048 6.05342973 5.485331 5.875 9.5 C6.803125 9.891875 7.73125 10.28375 8.6875 10.6875 C12.21235063 12.69182683 13.42352612 13.74324407 14.875 17.5 C14.77898422 22.87688364 13.56853452 25.6599451 9.875 29.5 C6.640625 31.08203125 6.640625 31.08203125 3.125 32.3125 C1.95453125 32.73144531 0.7840625 33.15039062 -0.421875 33.58203125 C-1.31390625 33.88496094 -2.2059375 34.18789062 -3.125 34.5 C-2.8775 35.69625 -2.63 36.8925 -2.375 38.125 C-1.91794501 41.70526409 -2.10773435 42.46670196 -3.875 45.875 C-6.48906549 48.92474308 -8.016902 50.38211723 -12.0625 50.8125 C-15.125 50.5 -15.125 50.5 -17 48.875 C-19.25787938 47.05913081 -19.25787938 47.05913081 -22.9375 48.3125 C-23.63875 48.51875 -24.34 48.725 -25.0625 48.9375 C-32.19207132 50.88192854 -40.61089493 48.75705253 -47.125 45.5 C-47.42792969 45.99628906 -47.73085938 46.49257812 -48.04296875 47.00390625 C-50.90159359 51.63927638 -53.79839088 56.18439898 -57.125 60.5 C-57.785 60.5 -58.445 60.5 -59.125 60.5 C-59.11339844 61.21027344 -59.10179687 61.92054688 -59.08984375 62.65234375 C-59.08082031 63.57144531 -59.07179688 64.49054688 -59.0625 65.4375 C-59.05089844 66.35402344 -59.03929687 67.27054687 -59.02734375 68.21484375 C-59.125 70.5 -59.125 70.5 -60.125 71.5 C-62.57992501 71.68063984 -64.98004249 71.77801743 -67.4375 71.8125 C-68.45360352 71.85600586 -68.45360352 71.85600586 -69.49023438 71.90039062 C-72.90518143 71.94378682 -74.79438683 71.73944567 -77.58984375 69.71484375 C-79.74070986 66.61168577 -79.40816807 64.18118496 -79.125 60.5 C-77.31418854 62.14619224 -76.22182199 63.22216298 -75.40625 65.5625 C-74.23814517 67.81936411 -74.23814517 67.81936411 -71.3046875 68.109375 C-70.21414063 68.15578125 -69.12359375 68.2021875 -68 68.25 C-66.35644531 68.33507812 -66.35644531 68.33507812 -64.6796875 68.421875 C-63.83664062 68.44765625 -62.99359375 68.4734375 -62.125 68.5 C-62.16625 67.406875 -62.2075 66.31375 -62.25 65.1875 C-62.125 61.5 -62.125 61.5 -60.125 58.5 C-59.465 58.5 -58.805 58.5 -58.125 58.5 C-57.856875 57.736875 -57.58875 56.97375 -57.3125 56.1875 C-56.13974509 53.53337046 -55.16818638 52.46145892 -53.125 50.5 C-50.74990923 46.98486566 -49.35072725 43.55432859 -48.125 39.5 C-46.805 39.5 -45.485 39.5 -44.125 39.5 C-43.795 38.51 -43.465 37.52 -43.125 36.5 C-41.87783203 36.30083984 -41.87783203 36.30083984 -40.60546875 36.09765625 C-39.51878906 35.92105469 -38.43210937 35.74445313 -37.3125 35.5625 C-36.23355469 35.38847656 -35.15460938 35.21445313 -34.04296875 35.03515625 C-31.07566644 34.56128079 -31.07566644 34.56128079 -28.125 33.5 C-26.73060336 33.43334624 -25.33330125 33.41461801 -23.9375 33.4375 C-22.679375 33.458125 -21.42125 33.47875 -20.125 33.5 C-19.795 32.51 -19.465 31.52 -19.125 30.5 C-16.39166414 29.13333207 -14.30114982 29.51524641 -11.25 29.625 C0.06304765 29.70294811 0.06304765 29.70294811 9.73046875 24.6875 C11.12167771 22.02853407 11.03714016 20.68413914 10.5625 17.75 C10.335625 16.3475 10.10875 14.945 9.875 13.5 C6.905 13.5 3.935 13.5 0.875 13.5 C0.875 10.38531795 1.35327708 7.56512217 1.875 4.5 C1.875 3.84 1.875 3.18 1.875 2.5 C-0.59455394 2.91622598 -0.59455394 2.91622598 -3.125 4.5 C-3.96545464 6.36866661 -3.96545464 6.36866661 -4.5625 8.5 C-5.83006951 12.33041497 -5.83006951 12.33041497 -8.625 13.9375 C-13.44283318 14.71179462 -18.25777917 15.17089966 -23.125 15.5 C-23.125 14.18 -23.125 12.86 -23.125 11.5 C-18.505 11.17 -13.885 10.84 -9.125 10.5 C-8.795 8.85 -8.465 7.2 -8.125 5.5 C-5.95000583 1.58501049 -4.42040753 0.16847288 0 0 Z " fill="#1E1E1E" transform="translate(391.125,209.5)"/>
<path d="M0 0 C3.72532004 -0.04557218 7.45064205 -0.07564711 11.17614746 -0.10253906 C12.7387178 -0.12483582 12.7387178 -0.12483582 14.33285522 -0.14758301 C15.26227936 -0.15140991 16.19170349 -0.15523682 17.14929199 -0.15917969 C18.32879929 -0.17011658 18.32879929 -0.17011658 19.53213501 -0.18127441 C21.54333496 0.05371094 21.54333496 0.05371094 24.54333496 2.05371094 C24.54333496 2.71371094 24.54333496 3.37371094 24.54333496 4.05371094 C21.57333496 4.05371094 18.60333496 4.05371094 15.54333496 4.05371094 C15.44149902 4.88128906 15.33966309 5.70886719 15.23474121 6.56152344 C14.4338948 10.60647647 13.06413241 14.13761357 11.48083496 17.92871094 C11.1991748 18.61707031 10.91751465 19.30542969 10.62731934 20.01464844 C9.9381823 21.69661002 9.24152698 23.37548791 8.54333496 25.05371094 C4.25333496 25.05371094 -0.03666504 25.05371094 -4.45666504 25.05371094 C-4.78666504 26.04371094 -5.11666504 27.03371094 -5.45666504 28.05371094 C-6.11666504 28.71371094 -6.77666504 29.37371094 -7.45666504 30.05371094 C-7.09319307 23.63237278 -7.09319307 23.63237278 -4.39416504 21.17871094 C-1.67247832 20.13636283 -0.26961643 19.9925208 2.54333496 19.92871094 C5.40290088 19.68005303 6.25061764 19.40036879 8.13317871 17.17089844 C10.47898172 13.05044446 11.59978867 9.7714424 12.54333496 5.05371094 C-19.79666504 5.05371094 -52.13666504 5.05371094 -85.45666504 5.05371094 C-79.47957561 15.33867012 -79.47957561 15.33867012 -69.76916504 20.24121094 C-69.00217285 20.35851562 -68.23518066 20.47582031 -67.44494629 20.59667969 C-65.45666504 21.05371094 -65.45666504 21.05371094 -63.45666504 23.05371094 C-62.8282763 27.75738551 -62.78337209 33.04377152 -65.45666504 37.05371094 C-69.16291368 40.25456204 -72.73941871 42.36098351 -77.70666504 42.49121094 C-83.54795135 41.80972754 -83.54795135 41.80972754 -85.45666504 40.05371094 C-86.33166504 36.61621094 -86.33166504 36.61621094 -86.45666504 33.05371094 C-85.79666504 32.06371094 -85.13666504 31.07371094 -84.45666504 30.05371094 C-83.79666504 30.05371094 -83.13666504 30.05371094 -82.45666504 30.05371094 C-82.45666504 29.39371094 -82.45666504 28.73371094 -82.45666504 28.05371094 C-83.05092285 27.94542969 -83.64518066 27.83714844 -84.25744629 27.72558594 C-86.72504765 26.97171838 -87.79578104 26.07450845 -89.64416504 24.30371094 C-92.99410684 21.27281121 -96.48673686 19.29384819 -100.53869629 17.32714844 C-102.78741456 15.83410942 -103.46935877 14.52981238 -104.45666504 12.05371094 C-105.0560791 12.17488281 -105.65549316 12.29605469 -106.27307129 12.42089844 C-117.24188603 14.44927101 -128.34835174 15.17554992 -139.45666504 16.05371094 C-139.78666504 15.39371094 -140.11666504 14.73371094 -140.45666504 14.05371094 C-140.12666504 13.39371094 -139.79666504 12.73371094 -139.45666504 12.05371094 C-137.14685059 11.55126953 -137.14685059 11.55126953 -134.09338379 11.20214844 C-132.9777002 11.07324219 -131.8620166 10.94433594 -130.71252441 10.81152344 C-129.53496582 10.68519531 -128.35740723 10.55886719 -127.14416504 10.42871094 C-126.00914551 10.29464844 -124.87412598 10.16058594 -123.70471191 10.02246094 C-116.25839208 9.18990036 -108.9466498 8.88482163 -101.45666504 9.05371094 C-101.34870605 9.67246094 -101.24074707 10.29121094 -101.1295166 10.92871094 C-100.05867959 14.31062868 -97.14510942 15.4076677 -94.20666504 17.05371094 C-90.00673595 19.48624905 -86.1998339 21.96575881 -82.45666504 25.05371094 C-80.80639563 26.08054523 -79.14422637 27.08939018 -77.45666504 28.05371094 C-78.73728989 29.76121073 -80.07434061 31.4274469 -81.45666504 33.05371094 C-82.11666504 33.05371094 -82.77666504 33.05371094 -83.45666504 33.05371094 C-83.45666504 34.70371094 -83.45666504 36.35371094 -83.45666504 38.05371094 C-78.264571 38.26563314 -74.32992604 37.64497984 -69.45666504 36.05371094 C-68.01699713 29.60495 -68.01699713 29.60495 -67.45666504 23.05371094 C-68.63229004 23.17746094 -69.80791504 23.30121094 -71.01916504 23.42871094 C-75.53430452 23.42073366 -77.67080692 21.91411158 -80.85510254 18.83886719 C-83.92494435 15.41711668 -86.56756997 11.88129525 -88.58166504 7.74121094 C-89.46967892 5.69597173 -89.46967892 5.69597173 -92.45666504 4.05371094 C-92.12666504 3.06371094 -91.79666504 2.07371094 -91.45666504 1.05371094 C-80.56233404 0.92148451 -69.66798367 0.79099202 -58.77360725 0.66255951 C-53.71189502 0.60283638 -48.65019056 0.54257256 -43.58850098 0.48095703 C-32.20209515 0.34266635 -20.81566589 0.214095 -9.42895508 0.10351562 C-6.28591222 0.07285161 -3.14295395 0.03869637 0 0 Z " fill="#222222" transform="translate(318.4566650390625,243.9462890625)"/>
<path d="M0 0 C0.99 0 1.98 0 3 0 C3.27972656 0.58007812 3.55945313 1.16015625 3.84765625 1.7578125 C7.27570744 8.43755211 10.84347738 13.48421602 18.07421875 16.12109375 C22.79517109 17.36275686 27.58094768 17.45717098 32.4375 17.625 C33.82098633 17.68300781 33.82098633 17.68300781 35.23242188 17.7421875 C37.48809143 17.83568676 39.74376916 17.9214391 42 18 C42.495 18.99 42.495 18.99 43 20 C42.25838623 20.08564209 41.51677246 20.17128418 40.75268555 20.25952148 C37.39723147 20.64888351 34.04236938 21.04313318 30.6875 21.4375 C29.52025391 21.57220703 28.35300781 21.70691406 27.15039062 21.84570312 C25.47299805 22.04389648 25.47299805 22.04389648 23.76171875 22.24609375 C22.73006592 22.36654053 21.69841309 22.4869873 20.63549805 22.61108398 C17.89982186 22.93653488 17.89982186 22.93653488 15 24 C11.5625 24.3125 11.5625 24.3125 8 24 C6.62804426 22.70644173 5.28817344 21.37701298 4 20 C1.78141747 20.13641377 1.78141747 20.13641377 0 21 C-1.97454988 26.89883171 -1.97454988 26.89883171 -2 33 C-0.47981752 35.43695474 -0.47981752 35.43695474 2 37 C5.167832 37.33448259 5.167832 37.33448259 8 37 C8.5534764 34.92446352 9 33.15634036 9 31 C11.52475462 29.73762269 13.31200466 29.90143596 16.125 29.9375 C17.03507812 29.94652344 17.94515625 29.95554687 18.8828125 29.96484375 C19.58148438 29.97644531 20.28015625 29.98804688 21 30 C21 30.99 21 31.98 21 33 C18.36 33 15.72 33 13 33 C12.896875 33.763125 12.79375 34.52625 12.6875 35.3125 C11.64768683 39.3772242 11.64768683 39.3772242 9 41 C4.3050013 41.5300805 2.13684981 41.71670966 -1.875 39.1875 C-4.41868281 36.56900299 -5.94578123 34.97593792 -6.15234375 31.2578125 C-5.57939474 22.90317415 -5.57939474 22.90317415 -2.875 18.6875 C0.95340857 16.44039062 2.73899543 16.97148165 7 18 C8.299375 18.185625 9.59875 18.37125 10.9375 18.5625 C11.948125 18.706875 12.95875 18.85125 14 19 C13.32453125 18.5153125 12.6490625 18.030625 11.953125 17.53125 C6.14959087 13.17021279 2.55198521 9.84396033 0 3 C0 2.01 0 1.02 0 0 Z " fill="#101010" transform="translate(158,227)"/>
<path d="M0 0 C0.05414063 0.86625 0.05414063 0.86625 0.109375 1.75 C1.44950092 5.13558126 4.20815835 6.29603619 7.25 8 C11.44992909 10.43253811 15.25683114 12.91204787 19 16 C20.6502694 17.0268343 22.31243867 18.03567924 24 19 C22.71937515 20.7074998 21.38232443 22.37373596 20 24 C19.34 24 18.68 24 18 24 C18 25.65 18 27.3 18 29 C23.19209404 29.21192221 27.126739 28.5912689 32 27 C32.0825 26.278125 32.165 25.55625 32.25 24.8125 C33.14750201 21.44686746 34.7114278 19.58387184 37 17 C37.62467866 25.12082262 37.62467866 25.12082262 35.3125 28.375 C34.549375 28.91125 33.78625 29.4475 33 30 C32.2575 30.5775 31.515 31.155 30.75 31.75 C26.32271846 33.7624007 22.31848883 33.53503588 17.5625 32.4375 C16 31 16 31 15.125 27.5625 C15 24 15 24 17 21 C17.66 21 18.32 21 19 21 C19 20.34 19 19.68 19 19 C18.40574219 18.89171875 17.81148437 18.7834375 17.19921875 18.671875 C14.73161739 17.91800745 13.660884 17.02079751 11.8125 15.25 C8.4625582 12.21910028 4.96992817 10.24013725 0.91796875 8.2734375 C-1.33074952 6.78039848 -2.01269373 5.47610144 -3 3 C-3.59941406 3.12117188 -4.19882813 3.24234375 -4.81640625 3.3671875 C-15.78522099 5.39556007 -26.8916867 6.12183898 -38 7 C-38.33 6.34 -38.66 5.68 -39 5 C-38.67 4.34 -38.34 3.68 -38 3 C-36.01318359 2.49755859 -36.01318359 2.49755859 -33.3984375 2.1484375 C-31.9599646 1.95471558 -31.9599646 1.95471558 -30.49243164 1.75708008 C-29.4636792 1.63099365 -28.43492676 1.50490723 -27.375 1.375 C-26.33786865 1.24311279 -25.3007373 1.11122559 -24.23217773 0.9753418 C-16.10275817 0.0006683 -8.17915535 -0.34887392 0 0 Z " fill="#191919" transform="translate(217,253)"/>
<path d="M0 0 C2.64 0 5.28 0 8 0 C8 1.32 8 2.64 8 4 C9.32 4.66 10.64 5.32 12 6 C11.40425532 11.36170213 11.40425532 11.36170213 9.8125 13.875 C7.19985125 15.49664405 5.00479298 15.20031953 2 15 C1.34 13.68 0.68 12.36 0 11 C-0.75023437 11.22816406 -1.50046875 11.45632812 -2.2734375 11.69140625 C-10.35873994 13.96221537 -17.25904898 15.08601845 -25.125 11.625 C-25.74375 11.08875 -26.3625 10.5525 -27 10 C-27 9.01 -27 8.02 -27 7 C-21.25 6.875 -21.25 6.875 -19 8 C-19 7.34 -19 6.68 -19 6 C-10.09 5.01 -10.09 5.01 -1 4 C-0.67 2.68 -0.34 1.36 0 0 Z " fill="#F8F8F8" transform="translate(374,242)"/>
<path d="M0 0 C1.21236328 0.01353516 1.21236328 0.01353516 2.44921875 0.02734375 C3.37154297 0.04474609 3.37154297 0.04474609 4.3125 0.0625 C4.6425 1.0525 4.9725 2.0425 5.3125 3.0625 C4.06533203 3.11857422 4.06533203 3.11857422 2.79296875 3.17578125 C1.70628906 3.24152344 0.61960938 3.30726563 -0.5 3.375 C-2.11841797 3.46201172 -2.11841797 3.46201172 -3.76953125 3.55078125 C-6.65821555 3.84819481 -6.65821555 3.84819481 -8.578125 5.3671875 C-10.2242818 7.88279332 -9.74897856 10.12837358 -9.2734375 12.9921875 C-8.37110813 16.18041796 -6.74701797 18.50370495 -4.6875 21.0625 C-1.49925432 22.65662284 1.94146662 22.16424735 5.4375 22.125 C6.56865234 22.11823242 6.56865234 22.11823242 7.72265625 22.11132812 C9.58597127 22.09953499 11.44924555 22.08159942 13.3125 22.0625 C13.3125 23.0525 13.3125 24.0425 13.3125 25.0625 C7.30534953 26.66440679 0.36780231 27.0832743 -5.5625 25 C-10.34490046 22.03491171 -11.91311101 18.38566697 -13.6875 13.0625 C-14.27605586 7.76549728 -14.27605586 7.76549728 -13.6875 5.0625 C-9.38896989 1.33710724 -5.61115187 -0.08132104 0 0 Z " fill="#1E1E1E" transform="translate(190.6875,192.9375)"/>
<path d="M0 0 C0.66 0.33 1.32 0.66 2 1 C1.2884375 1.928125 1.2884375 1.928125 0.5625 2.875 C-1.58348143 7.16696287 -2.25864836 11.20692258 -2 16 C-0.64237846 18.77564845 -0.64237846 18.77564845 2 20 C5.167832 20.33448259 5.167832 20.33448259 8 20 C8.5534764 17.92446352 9 16.15634036 9 14 C11.52475462 12.73762269 13.31200466 12.90143596 16.125 12.9375 C17.03507812 12.94652344 17.94515625 12.95554687 18.8828125 12.96484375 C19.93082031 12.98224609 19.93082031 12.98224609 21 13 C21 13.99 21 14.98 21 16 C18.36 16 15.72 16 13 16 C12.896875 16.763125 12.79375 17.52625 12.6875 18.3125 C11.64768683 22.3772242 11.64768683 22.3772242 9 24 C4.3050013 24.5300805 2.13684981 24.71670966 -1.875 22.1875 C-4.41868281 19.56900299 -5.94578123 17.97593792 -6.15234375 14.2578125 C-5.50109154 4.76137123 -5.50109154 4.76137123 -2.4375 1.75 C-1.633125 1.1725 -0.82875 0.595 0 0 Z " fill="#151515" transform="translate(158,244)"/>
<path d="M0 0 C-0.33 0.66 -0.66 1.32 -1 2 C-2.32 2 -3.64 2 -5 2 C-5 2.66 -5 3.32 -5 4 C-4.360625 4.2475 -3.72125 4.495 -3.0625 4.75 C-1 6 -1 6 -0.25 7.6875 C0.16708565 11.54554222 0.47927342 15.37047037 -0.625 19.125 C-1.21518521 21.13431286 -1.21518521 21.13431286 0.0625 23.375 C1 26 1 26 0.4375 29.1875 C-1 32 -1 32 -3.625 33.375 C-4.40875 33.58125 -5.1925 33.7875 -6 34 C-6 31 -6 31 -4 28.8125 C-3.01 27.9153125 -3.01 27.9153125 -2 27 C-2.515625 26.113125 -3.03125 25.22625 -3.5625 24.3125 C-5.08979002 20.79309257 -5.21675714 19.548875 -4 16 C-3.67 15.67 -3.34 15.34 -3 15 C-3.66 14.67 -4.32 14.34 -5 14 C-4.42415568 11.61435923 -3.77772405 9.33317216 -3 7 C-8.60944292 3.85871197 -14.68146331 2.77369837 -21 2 C-20.67 1.34 -20.34 0.68 -20 0 C-17.22949974 -0.1946838 -14.45886998 -0.38102792 -11.6875 -0.5625 C-10.90181641 -0.61857422 -10.11613281 -0.67464844 -9.30664062 -0.73242188 C-8.1706543 -0.80493164 -8.1706543 -0.80493164 -7.01171875 -0.87890625 C-6.31522217 -0.9260376 -5.61872559 -0.97316895 -4.90112305 -1.02172852 C-3 -1 -3 -1 0 0 Z " fill="#030303" transform="translate(546,222)"/>
<path d="M0 0 C0.33 0.99 0.66 1.98 1 3 C0.01 4.485 0.01 4.485 -1 6 C-3.08320028 12.32513207 -3.28192139 18.65044209 -3.1875 25.25 C-3.18685547 26.12140625 -3.18621094 26.9928125 -3.18554688 27.890625 C-3.15703151 32.04753163 -3.04637509 35.94843563 -2 40 C-3.485 40.495 -3.485 40.495 -5 41 C-7.55884177 36.116792 -7.34479281 31.31235392 -7.3125 25.9375 C-7.30831055 25.00244629 -7.30412109 24.06739258 -7.29980469 23.10400391 C-7.18894213 16.29539184 -6.9980824 9.24227604 -4 3 C-1.890625 1.1953125 -1.890625 1.1953125 0 0 Z " fill="#121212" transform="translate(162,187)"/>
<path d="M0 0 C1.27875 0.165 2.5575 0.33 3.875 0.5 C6.16513653 3.9352048 6.05342973 5.485331 5.875 9.5 C2.875 7.5 2.875 7.5 2.1875 4.875 C2.084375 4.09125 1.98125 3.3075 1.875 2.5 C-0.59455394 2.91622598 -0.59455394 2.91622598 -3.125 4.5 C-3.96545464 6.36866661 -3.96545464 6.36866661 -4.5625 8.5 C-5.83006951 12.33041497 -5.83006951 12.33041497 -8.625 13.9375 C-13.44283318 14.71179462 -18.25777917 15.17089966 -23.125 15.5 C-23.125 14.18 -23.125 12.86 -23.125 11.5 C-18.505 11.17 -13.885 10.84 -9.125 10.5 C-8.795 8.85 -8.465 7.2 -8.125 5.5 C-5.95000583 1.58501049 -4.42040753 0.16847288 0 0 Z " fill="#161616" transform="translate(391.125,209.5)"/>
<path d="M0 0 C0.99 0.33 1.98 0.66 3 1 C1.17272355 7.63079863 -1.08515322 13.7682586 -4 20 C-8.29 20 -12.58 20 -17 20 C-17.33 20.99 -17.66 21.98 -18 23 C-18.66 23.66 -19.32 24.32 -20 25 C-19.63652803 18.57866184 -19.63652803 18.57866184 -16.9375 16.125 C-14.21581328 15.0826519 -12.81295139 14.93880986 -10 14.875 C-7.14043408 14.62634209 -6.29271732 14.34665786 -4.41015625 12.1171875 C-2.14423733 8.13705165 -0.76235778 4.52599774 0 0 Z " fill="#101010" transform="translate(331,249)"/>
<path d="M0 0 C0.33 1.32 0.66 2.64 1 4 C1.928125 4.103125 2.85625 4.20625 3.8125 4.3125 C7 5 7 5 8.8125 6.0625 C10.75888604 9.23818248 11.32036819 12.34913751 11 16 C9.84470326 18.90490479 8.40547977 20.99640426 6 23 C2.1875 23.9375 2.1875 23.9375 -1 24 C1.08439082 20.87341377 1.8463034 20.5768483 5 19 C7.23551759 15.64672361 7.17283528 15.09256343 6.625 11.3125 C6.41875 9.889375 6.2125 8.46625 6 7 C3.03 7 0.06 7 -3 7 C-3 3.48283697 -2.17554415 2.62878252 0 0 Z " fill="#131313" transform="translate(395,216)"/>
<path d="M0 0 C0.33 0.66 0.66 1.32 1 2 C0.34249689 3.33787589 -0.3256926 4.67051448 -1 6 C-1.44811137 8.35564596 -1.44811137 8.35564596 -1.625 10.75 C-1.69976562 11.54921875 -1.77453125 12.3484375 -1.8515625 13.171875 C-1.90054688 13.77515625 -1.94953125 14.3784375 -2 15 C-3.89564426 15.79211929 -5.79152371 16.58367576 -7.6875 17.375 C-8.74324219 17.81585938 -9.79898438 18.25671875 -10.88671875 18.7109375 C-13.58356657 19.82757462 -16.28716264 20.92291801 -19 22 C-19 22.66 -19 23.32 -19 24 C-19.66 24 -20.32 24 -21 24 C-21.268125 24.639375 -21.53625 25.27875 -21.8125 25.9375 C-23 28 -23 28 -26 29 C-24.74919437 23.62153578 -22.41147136 21.06082264 -18 18 C-17.35289062 17.54238281 -16.70578125 17.08476562 -16.0390625 16.61328125 C-12.05631719 13.95048793 -8.88838417 12.36662881 -4 12 C-3.87882812 11.30132812 -3.75765625 10.60265625 -3.6328125 9.8828125 C-3.46523437 8.97273437 -3.29765625 8.06265625 -3.125 7.125 C-2.96257812 6.22007812 -2.80015625 5.31515625 -2.6328125 4.3828125 C-2 2 -2 2 0 0 Z " fill="#131313" transform="translate(186,160)"/>
<path d="M0 0 C0.66 0.66 1.32 1.32 2 2 C-0.97 2.99 -3.94 3.98 -7 5 C-6.67 7.64 -6.34 10.28 -6 13 C-9 12 -9 12 -10.0625 10 C-10.371875 9.34 -10.68125 8.68 -11 8 C-11.66 7.67 -12.32 7.34 -13 7 C-13 5.68 -13 4.36 -13 3 C-15.31 3 -17.62 3 -20 3 C-19.67 2.01 -19.34 1.02 -19 0 C-17.89591797 0.01740234 -17.89591797 0.01740234 -16.76953125 0.03515625 C-15.79371094 0.04417969 -14.81789063 0.05320313 -13.8125 0.0625 C-12.36810547 0.07990234 -12.36810547 0.07990234 -10.89453125 0.09765625 C-8.01664622 0.08459095 -8.01664622 0.08459095 -5.32421875 -0.56640625 C-3 -1 -3 -1 0 0 Z " fill="#262626" transform="translate(395,239)"/>
<path d="M0 0 C0.33 0 0.66 0 1 0 C1.62467866 8.12082262 1.62467866 8.12082262 -0.6875 11.375 C-1.450625 11.91125 -2.21375 12.4475 -3 13 C-3.7425 13.5775 -4.485 14.155 -5.25 14.75 C-9.13081421 16.51400646 -11.73892526 16.33818053 -16 16 C-18.5 15 -18.5 15 -20 14 C-20 12.35 -20 10.7 -20 9 C-19.525625 9.515625 -19.05125 10.03125 -18.5625 10.5625 C-14.69541164 12.73184225 -11.23523359 11.8423669 -7 11 C-6.01 10.67 -5.02 10.34 -4 10 C-3.896875 9.278125 -3.79375 8.55625 -3.6875 7.8125 C-2.93659472 4.74061475 -1.78158272 2.59814146 0 0 Z " fill="#141414" transform="translate(253,270)"/>
<path d="M0 0 C0.33 0 0.66 0 1 0 C0.76435605 4.08449505 0.59037881 6.34214932 -2.1875 9.4375 C-5.50640398 11.28133554 -7.25905831 11.55716153 -11 11 C-11.61230469 10.48953125 -12.22460938 9.9790625 -12.85546875 9.453125 C-15.62024153 7.57972705 -16.99375047 7.84120073 -20.25 8.3125 C-21.14203125 8.43238281 -22.0340625 8.55226563 -22.953125 8.67578125 C-23.62859375 8.78277344 -24.3040625 8.88976562 -25 9 C-22.63347921 5.17067834 -22.63347921 5.17067834 -19.73828125 4.390625 C-18.93777344 4.34421875 -18.13726562 4.2978125 -17.3125 4.25 C-16.50425781 4.19328125 -15.69601562 4.1365625 -14.86328125 4.078125 C-14.24839844 4.05234375 -13.63351562 4.0265625 -13 4 C-12.01 5.485 -12.01 5.485 -11 7 C-8.13023717 7.83483326 -8.13023717 7.83483326 -5 7 C-3.39723306 5.28640343 -2.20585537 3.52993885 -0.98046875 1.53125 C-0.65691406 1.0259375 -0.33335937 0.520625 0 0 Z " fill="#161616" transform="translate(387,249)"/>
<path d="M0 0 C0.99 0.33 1.98 0.66 3 1 C2.3897536 5.14967549 0.99267393 8.32121736 -1 12 C-1.7115625 13.3921875 -1.7115625 13.3921875 -2.4375 14.8125 C-4 17 -4 17 -6.1875 17.8125 C-6.785625 17.874375 -7.38375 17.93625 -8 18 C-7.67 20.31 -7.34 22.62 -7 25 C-8.32 24.34 -9.64 23.68 -11 23 C-11 19.7 -11 16.4 -11 13 C-8.03 13.495 -8.03 13.495 -5 14 C-5 12.68 -5 11.36 -5 10 C-4.01 10 -3.02 10 -2 10 C-2.226875 9.443125 -2.45375 8.88625 -2.6875 8.3125 C-3.12446199 5.07898125 -1.78001197 3.63441772 0 1 C0 0.67 0 0.34 0 0 Z " fill="#020202" transform="translate(441,236)"/>
<path d="M0 0 C1.81081146 1.64619224 2.90317801 2.72216298 3.71875 5.0625 C4.88685483 7.31936411 4.88685483 7.31936411 7.8203125 7.609375 C8.91085937 7.65578125 10.00140625 7.7021875 11.125 7.75 C12.76855469 7.83507812 12.76855469 7.83507812 14.4453125 7.921875 C15.28835938 7.94765625 16.13140625 7.9734375 17 8 C17 5.69 17 3.38 17 1 C17.66 0.67 18.32 0.34 19 0 C19 3.63 19 7.26 19 11 C16.5821288 11.10826289 14.16912444 11.18739789 11.75 11.25 C10.72712891 11.30027344 10.72712891 11.30027344 9.68359375 11.3515625 C6.24786458 11.41827569 4.35028366 11.25273631 1.53125 9.21875 C-0.61256358 6.11240788 -0.28311533 3.68049928 0 0 Z " fill="#161616" transform="translate(312,270)"/>
<path d="M0 0 C0.66 0.33 1.32 0.66 2 1 C0.125 5.75 0.125 5.75 -1 8 C-0.7215625 8.928125 -0.7215625 8.928125 -0.4375 9.875 C0 12 0 12 -0.9375 13.75 C-2.55389504 17.1729542 -2.12535919 20.23922443 -2 24 C-3.98 24.99 -3.98 24.99 -6 26 C-6.66 25.34 -7.32 24.68 -8 24 C-7.484375 23.67 -6.96875 23.34 -6.4375 23 C-4.66165278 20.52925604 -4.97146029 19.85554407 -5.4375 16.9375 C-5.623125 15.638125 -5.80875 14.33875 -6 13 C-5.34 12.34 -4.68 11.68 -4 11 C-4.32326553 7.40320934 -4.32326553 7.40320934 -5 4 C-4.01 4 -3.02 4 -2 4 C-1.34 2.68 -0.68 1.36 0 0 Z " fill="#000000" transform="translate(469,230)"/>
<path d="M0 0 C0.33 0 0.66 0 1 0 C1.33 4.95 1.66 9.9 2 15 C2.66 15 3.32 15 4 15 C5.32 19.95 6.64 24.9 8 30 C7.34 30 6.68 30 6 30 C5.505 32.475 5.505 32.475 5 35 C4.67 35 4.34 35 4 35 C3.896875 33.865625 3.79375 32.73125 3.6875 31.5625 C3.32311188 28.47055962 2.63850392 25.98588199 1.4375 23.125 C-1.21119158 15.86038475 -0.22162454 7.60910911 0 0 Z " fill="#1C1C1C" transform="translate(425,220)"/>
<path d="M0 0 C-0.33 0.99 -0.66 1.98 -1 3 C-10.4994651 4.61693023 -19.36774517 5.26349633 -29 5 C-28.67 4.34 -28.34 3.68 -28 3 C-25.85449219 2.49755859 -25.85449219 2.49755859 -23.046875 2.1484375 C-22.03496094 2.01953125 -21.02304687 1.890625 -19.98046875 1.7578125 C-18.91441406 1.63148438 -17.84835937 1.50515625 -16.75 1.375 C-15.69941406 1.2409375 -14.64882813 1.106875 -13.56640625 0.96875 C-9.01122508 0.4029607 -4.59592692 -0.07802049 0 0 Z " fill="#0A0A0A" transform="translate(369,222)"/>
<path d="M0 0 C0.99 0.33 1.98 0.66 3 1 C3.06058594 2.31355469 3.12117187 3.62710938 3.18359375 4.98046875 C3.26803256 6.71615541 3.35267888 8.45183198 3.4375 10.1875 C3.47681641 11.05181641 3.51613281 11.91613281 3.55664062 12.80664062 C3.76347016 16.95914122 4.00103531 20.94537862 5 25 C4.01 25.33 3.02 25.66 2 26 C0.40754605 22.48172372 -0.24261382 19.77302648 -0.1953125 15.91796875 C-0.18886719 14.98662109 -0.18242187 14.05527344 -0.17578125 13.09570312 C-0.15902344 12.13599609 -0.14226562 11.17628906 -0.125 10.1875 C-0.11597656 9.20845703 -0.10695312 8.22941406 -0.09765625 7.22070312 C-0.07417182 4.81354939 -0.0413284 2.40690257 0 0 Z " fill="#343434" transform="translate(155,202)"/>
<path d="M0 0 C13.365 0.495 13.365 0.495 27 1 C27 1.66 27 2.32 27 3 C18.42 3 9.84 3 1 3 C0.67 2.01 0.34 1.02 0 0 Z " fill="#0A0A0A" transform="translate(182,228)"/>
<path d="M0 0 C0.99 0 1.98 0 3 0 C3.50478485 2.41575607 4.00397642 4.83244361 4.5 7.25 C4.64308594 7.93191406 4.78617187 8.61382812 4.93359375 9.31640625 C5.61251049 12.64633121 6 15.58332551 6 19 C5.34 19 4.68 19 4 19 C3.67 19.66 3.34 20.32 3 21 C2.49078672 18.81462633 1.99305563 16.62657569 1.5 14.4375 C1.2215625 13.21933594 0.943125 12.00117188 0.65625 10.74609375 C0.01362446 7.07777293 -0.11474823 3.71497397 0 0 Z " fill="#212121" transform="translate(263,192)"/>
<path d="M0 0 C0.33 0 0.66 0 1 0 C1 1.98 1 3.96 1 6 C-0.7491497 6.33776684 -2.49936145 6.67003671 -4.25 7 C-5.71179688 7.2784375 -5.71179688 7.2784375 -7.203125 7.5625 C-10 8 -10 8 -14 8 C-14 6.68 -14 5.36 -14 4 C-9.38 3.67 -4.76 3.34 0 3 C0 2.01 0 1.02 0 0 Z " fill="#333333" transform="translate(382,217)"/>
<path d="M0 0 C3.3 0 6.6 0 10 0 C10 0.33 10 0.66 10 1 C16.6 1.33 23.2 1.66 30 2 C30 2.33 30 2.66 30 3 C19.77 3 9.54 3 -1 3 C-0.67 2.01 -0.34 1.02 0 0 Z " fill="#1F1F1F" transform="translate(546,221)"/>
<path d="M0 0 C0 0.33 0 0.66 0 1 C-2.31 1.33 -4.62 1.66 -7 2 C-5.35 2.33 -3.7 2.66 -2 3 C-2 3.33 -2 3.66 -2 4 C-6.455 4.495 -6.455 4.495 -11 5 C-11.33 5.99 -11.66 6.98 -12 8 C-12.66 8.66 -13.32 9.32 -14 10 C-13.63768116 3.59903382 -13.63768116 3.59903382 -10.9375 1.0625 C-7.07163509 -0.33579156 -4.09806991 -0.20837644 0 0 Z " fill="#454545" transform="translate(325,264)"/>
<path d="M0 0 C-1.98 0.99 -1.98 0.99 -4 2 C-2.68 2.66 -1.36 3.32 0 4 C-5.94 4.495 -5.94 4.495 -12 5 C-12.33 4.34 -12.66 3.68 -13 3 C-12.67 2.34 -12.34 1.68 -12 1 C-7.973409 0.22565558 -4.09613971 -0.12412545 0 0 Z " fill="#444444" transform="translate(191,255)"/>
<path d="M0 0 C0.99 0.33 1.98 0.66 3 1 C2.57316761 2.58624235 2.13303842 4.1689098 1.6875 5.75 C1.44386719 6.63171875 1.20023437 7.5134375 0.94921875 8.421875 C-0.02125331 11.05772505 -1.21005644 12.85407326 -3 15 C-3.66 14.67 -4.32 14.34 -5 14 C-4.731875 13.360625 -4.46375 12.72125 -4.1875 12.0625 C-2.64635858 8.08797739 -1.32390688 4.05115505 0 0 Z " fill="#282828" transform="translate(331,249)"/>
<path d="M0 0 C0.66 0.66 1.32 1.32 2 2 C1.69903201 6.13830989 1.32101984 8.51847024 -1 12 C-1.66 12 -2.32 12 -3 12 C-2.835 10.906875 -2.67 9.81375 -2.5 8.6875 C-1.93281816 5.12474127 -1.93281816 5.12474127 -2 2 C-1.34 1.34 -0.68 0.68 0 0 Z " fill="#000000" transform="translate(518,241)"/>
<path d="M0 0 C0.66 0.33 1.32 0.66 2 1 C1.2884375 2.0828125 1.2884375 2.0828125 0.5625 3.1875 C-0.94152903 5.89475226 -1.56599182 7.96194275 -2 11 C-2.99 10.67 -3.98 10.34 -5 10 C-4.50769231 3.47692308 -4.50769231 3.47692308 -1.9375 1.0625 C-0.9784375 0.5365625 -0.9784375 0.5365625 0 0 Z " fill="#1B1B1B" transform="translate(158,244)"/>
<path d="M0 0 C0.99 0 1.98 0 3 0 C3.33 3.3 3.66 6.6 4 10 C3.34 10 2.68 10 2 10 C1.67 10.66 1.34 11.32 1 12 C0.01751476 7.9472484 -0.08159574 4.16138263 0 0 Z " fill="#2B2B2B" transform="translate(263,192)"/>
<path d="M0 0 C2.4375 0.8125 2.4375 0.8125 5 2 C5.33 2.99 5.66 3.98 6 5 C3 5 3 5 0.8125 3 C0.214375 2.34 -0.38375 1.68 -1 1 C-0.67 0.67 -0.34 0.34 0 0 Z " fill="#000000" transform="translate(565,255)"/>
<path d="M0 0 C0.99 0 1.98 0 3 0 C3.33 1.65 3.66 3.3 4 5 C3.01 5.33 2.02 5.66 1 6 C0.67 4.02 0.34 2.04 0 0 Z " fill="#242424" transform="translate(156,222)"/>
<path d="M0 0 C0 0.99 0 1.98 0 3 C-2.64 3 -5.28 3 -8 3 C-7.67 2.34 -7.34 1.68 -7 1 C-4.61370553 0.38812962 -2.46459429 0 0 0 Z " fill="#121212" transform="translate(204,215)"/>
</svg>
