<?xml version="1.0" encoding="UTF-8"?>
<svg version="1.1" xmlns="http://www.w3.org/2000/svg" width="800" height="300">
<path d="M0 0 C264 0 528 0 800 0 C800 99 800 198 800 300 C536 300 272 300 0 300 C0 201 0 102 0 0 Z " fill="#FEFEFE" transform="translate(0,0)"/>
<path d="M0 0 C5.77481791 -0.48123483 10.26953246 0.47661728 15 4 C16.93551992 7.11661994 17.20289203 9.34794339 17 13 C16.34 13 15.68 13 15 13 C14.62875 11.906875 14.2575 10.81375 13.875 9.6875 C12.57260133 6.64652197 12.05031813 6.03281617 9.125 4.125 C6.39495733 3.14218464 3.86592693 2.42145984 1 2 C-0.37004923 8.85024615 -0.37004923 15.14975385 1 22 C0.443125 22.13535156 -0.11375 22.27070313 -0.6875 22.41015625 C-6.46987964 24.04133429 -10.07758864 26.38479861 -14.37109375 30.57421875 C-16 32 -16 32 -18 32 C-18.28617188 32.57492188 -18.57234375 33.14984375 -18.8671875 33.7421875 C-19.58485299 35.17256906 -20.31750433 36.59561031 -21.0703125 38.0078125 C-26.66120477 49.23101105 -23.43178545 59.64960578 -19.72753906 71.02441406 C-18.34479044 74.77917977 -16.34571274 77.78302252 -14 81 C-14 81.66 -14 82.32 -14 83 C-13.278125 83.28875 -12.55625 83.5775 -11.8125 83.875 C-10.13108181 84.54756728 -8.45950627 85.24708285 -6.8125 86 C1.51690239 88.96156529 10.23766623 89.47810551 19 90 C18.60573806 92.75983355 18.14406027 93.86010676 16.109375 95.8359375 C13.48347969 98.52991157 12.59275986 101.12592578 11.25 104.625 C8.59670215 110.64361993 8.59670215 110.64361993 6.01171875 112.1875 C3.9375 112.625 3.9375 112.625 0 113 C-3.03824575 113.92020732 -3.03824575 113.92020732 -5 116 C-5.71913365 118.81758922 -5.70481792 121.18072831 -5 124 C-2.66160743 126.49428541 -0.87026214 126.9166625 2.48828125 127.23828125 C5.04915388 127.30869598 7.46050211 127.34609086 10 127 C10.66 126.34 11.32 125.68 12 125 C11.97595367 122.7227477 11.97595367 122.7227477 11.6875 120.1875 C11.58596167 115.44904449 11.58596167 115.44904449 13.33984375 113.546875 C14.56566181 112.78509748 15.80786515 112.04925812 17.0625 111.3359375 C20.10670327 109.23691024 21.65016114 106.32581623 23.578125 103.2265625 C25.48187586 100.24541418 27.67816529 97.66328099 30 95 C33.60556713 96.20185571 33.72441649 96.8570662 35.375 100.125 C39.54082525 108.02341821 39.54082525 108.02341821 46 114 C45.75 115.875 45.75 115.875 45 118 C42.9375 119.25 42.9375 119.25 41 120 C41 121.32 41 122.64 41 124 C44.10136046 125.55068023 46.67150681 125.73509125 50 125 C55.06256093 122.39898729 59.81113701 119.78329448 63 115 C59.96474514 112.97649676 58.80573798 112.67875982 55.3125 112.375 C53.15625 112.1875 53.15625 112.1875 51 112 C50.59007812 110.81921875 50.18015625 109.6384375 49.7578125 108.421875 C49.21368147 106.86453448 48.6694029 105.3072455 48.125 103.75 C47.85558594 102.97269531 47.58617187 102.19539063 47.30859375 101.39453125 C47.04433594 100.64042969 46.78007813 99.88632813 46.5078125 99.109375 C46.14647217 98.07248535 46.14647217 98.07248535 45.77783203 97.01464844 C45.02773374 94.95423069 45.02773374 94.95423069 43.90576172 92.93066406 C43 91 43 91 43 88 C58.69543984 87.85972298 74.32190062 88.26035566 90 89 C90 89.99 90 90.98 90 92 C75.9600871 92.1100174 62.00388241 92.07870346 48 91 C49.6663945 101.00121192 49.6663945 101.00121192 55.41796875 108.58984375 C57.94157759 109.21981405 60.43083783 109.61073301 63 110 C65.6875 111.875 65.6875 111.875 67 114 C67.125 116.4375 67.125 116.4375 66 119 C64.00877115 120.99122885 62.29550538 122.43597642 60 124 C59.31292969 124.47050781 58.62585938 124.94101562 57.91796875 125.42578125 C52.57775568 128.74587869 48.26185342 129.8801802 42 129 C39 128 39 128 37 125 C36.92094936 122.66800612 36.91201231 120.33167378 37 118 C38.32 117.34 39.64 116.68 41 116 C39.57253413 113.68074204 38.13385146 111.36993512 36.6875 109.0625 C36.28337891 108.40314453 35.87925781 107.74378906 35.46289062 107.06445312 C33.05675299 103.0602014 33.05675299 103.0602014 29 101 C28.73960937 101.56589844 28.47921875 102.13179688 28.2109375 102.71484375 C26.88698788 105.2132648 25.35655073 107.32811904 23.625 109.5625 C23.03976562 110.32691406 22.45453125 111.09132813 21.8515625 111.87890625 C20 114 20 114 17.7890625 115.421875 C15.71606032 116.90718956 15.71606032 116.90718956 15.609375 119.69921875 C15.65578125 120.68535156 15.7021875 121.67148437 15.75 122.6875 C15.80414062 124.17830078 15.80414062 124.17830078 15.859375 125.69921875 C15.90578125 126.45847656 15.9521875 127.21773438 16 128 C10.99329643 131.08104835 6.74604585 131.92774699 1 131 C-2.50412767 129.58640304 -5.31679023 127.68320977 -8 125 C-8.56043191 121.61381138 -8.51194925 118.39097565 -8 115 C-5.84157187 112.26599104 -4.03365056 111.27936502 -0.6875 110.375 C3.88966608 109.03534164 6.75720781 107.81779925 9.203125 103.6328125 C11.00090312 100.16901668 12.5394936 96.61741321 14 93 C13.20078125 92.96261719 12.4015625 92.92523438 11.578125 92.88671875 C-9.75262854 91.60987787 -9.75262854 91.60987787 -16.4765625 84.90234375 C-26.07053299 72.9221806 -28.60465622 57.00618068 -27 42 C-24.86323328 34.86648648 -19.83588741 29.4114545 -14.125 24.8125 C-13.30257812 24.13832031 -12.48015625 23.46414062 -11.6328125 22.76953125 C-8.82521803 20.88252785 -6.24123021 19.92134095 -3 19 C-3.05220703 17.82244141 -3.05220703 17.82244141 -3.10546875 16.62109375 C-3.27019021 10.22833246 -3.07880961 5.64448429 0 0 Z " fill="#101010" transform="translate(710,156)"/>
<path d="M0 0 C4.48035444 2.19944673 6.86312614 4.50131818 9 9 C9.495 10.98 9.495 10.98 10 13 C17.26 13 24.52 13 32 13 C32 13.66 32 14.32 32 15 C29.64415361 16.1779232 28.16077841 16.13940514 25.53515625 16.17578125 C24.21161133 16.21155273 24.21161133 16.21155273 22.86132812 16.24804688 C20.99958033 16.29092034 19.13752914 16.32222289 17.27539062 16.34179688 C16.39173828 16.36951172 15.50808594 16.39722656 14.59765625 16.42578125 C13.38348022 16.44765503 13.38348022 16.44765503 12.14477539 16.4699707 C9.27299028 17.17966285 8.67409827 18.65159188 7 21 C6.01 21 5.02 21 4 21 C4.875 16.125 4.875 16.125 6 15 C5.95142366 11.98826678 5.90288321 9.81022399 5 7 C1.77199378 4.48058051 -1.18424058 3.7954435 -5.1875 3.5 C-9.05737067 3.59126475 -9.05737067 3.59126475 -11 6.1875 C-12.27917472 9.28768083 -12.27917472 9.28768083 -12 14 C-25.365 14.495 -25.365 14.495 -39 15 C-39 14.34 -39 13.68 -39 13 C-30.92437827 11.56205146 -23.2056037 10.70400628 -15 11 C-14.9175 9.741875 -14.835 8.48375 -14.75 7.1875 C-14.56203306 4.32100424 -14.32388843 3.32243601 -12.2578125 1.265625 C-8.31670198 -0.94357882 -4.38452496 -0.62339217 0 0 Z " fill="#111111" transform="translate(768,156)"/>
<path d="M0 0 C5.77481791 -0.48123483 10.26953246 0.47661728 15 4 C16.93551992 7.11661994 17.20289203 9.34794339 17 13 C16.34 13 15.68 13 15 13 C14.62875 11.906875 14.2575 10.81375 13.875 9.6875 C12.57260133 6.64652197 12.05031813 6.03281617 9.125 4.125 C6.39495733 3.14218464 3.86592693 2.42145984 1 2 C-0.37004923 8.85024615 -0.37004923 15.14975385 1 22 C0.443125 22.13535156 -0.11375 22.27070313 -0.6875 22.41015625 C-6.46987964 24.04133429 -10.07758864 26.38479861 -14.37109375 30.57421875 C-16 32 -16 32 -18 32 C-18.268125 32.598125 -18.53625 33.19625 -18.8125 33.8125 C-19.99917406 35.99847854 -21.09599113 37.41332594 -23 39 C-23.66 39 -24.32 39 -25 39 C-22.88379502 32.82773548 -19.14937619 28.8586098 -14.125 24.8125 C-13.30257812 24.13832031 -12.48015625 23.46414062 -11.6328125 22.76953125 C-8.82521803 20.88252785 -6.24123021 19.92134095 -3 19 C-3.05220703 17.82244141 -3.05220703 17.82244141 -3.10546875 16.62109375 C-3.27019021 10.22833246 -3.07880961 5.64448429 0 0 Z " fill="#121212" transform="translate(710,156)"/>
<path d="M0 0 C1.75570312 0.04060547 1.75570312 0.04060547 3.546875 0.08203125 C4.43890625 0.11683594 5.3309375 0.15164062 6.25 0.1875 C5.92 0.8475 5.59 1.5075 5.25 2.1875 C3.13363372 2.50233135 1.00551785 2.73996854 -1.125 2.9375 C-6.2909342 3.51444552 -6.2909342 3.51444552 -10.0625 6.8125 C-10.91800707 11.012262 -11.29488692 13.89651549 -10.75 18.1875 C-8.00230393 21.81256747 -6.49662571 23.04745932 -1.98046875 23.89453125 C-0.63365134 23.95365982 0.71443526 23.98838987 2.0625 24 C2.75537109 24.02513672 3.44824219 24.05027344 4.16210938 24.07617188 C5.85747122 24.13463263 7.55379287 24.16403047 9.25 24.1875 C8.92 25.1775 8.59 26.1675 8.25 27.1875 C5.68508544 27.12721999 3.12578243 27.04012053 0.5625 26.9375 C-0.15873047 26.92332031 -0.87996094 26.90914062 -1.62304688 26.89453125 C-6.51162977 26.67130829 -9.22941602 25.87637193 -12.75 22.1875 C-14.57486599 16.71290202 -14.46726665 11.1599833 -12.5 5.75 C-8.96117462 0.56814855 -6.21796425 -0.18653893 0 0 Z " fill="#101010" transform="translate(720.75,192.8125)"/>
<path d="M0 0 C0 0.33 0 0.66 0 1 C-1.093125 1.061875 -2.18625 1.12375 -3.3125 1.1875 C-7.07263213 1.62960266 -7.07263213 1.62960266 -8.9375 4.25 C-10.30033273 7.28597859 -10.30033273 7.28597859 -10 12 C-23.365 12.495 -23.365 12.495 -37 13 C-37 12.34 -37 11.68 -37 11 C-28.92437827 9.56205146 -21.2056037 8.70400628 -13 9 C-12.9175 7.741875 -12.835 6.48375 -12.75 5.1875 C-12.37776456 2.39325262 -12.13753451 1.18704693 -10.4375 -1.125 C-6.58315382 -2.50861145 -3.8537583 -1.2203568 0 0 Z " fill="#1D1D1D" transform="translate(766,158)"/>
<path d="M0 0 C0.66 0.33 1.32 0.66 2 1 C-0.32216997 5.51533049 -2.98560245 8.01055501 -7 11 C-7.66 11 -8.32 11 -9 11 C-9.268125 11.598125 -9.53625 12.19625 -9.8125 12.8125 C-10.99917406 14.99847854 -12.09599113 16.41332594 -14 18 C-14.66 18 -15.32 18 -16 18 C-13.81863628 11.63768916 -9.99538157 7.75957254 -4.75 3.6875 C-3.41195312 2.64142578 -3.41195312 2.64142578 -2.046875 1.57421875 C-1.37140625 1.05472656 -0.6959375 0.53523437 0 0 Z " fill="#1D1D1D" transform="translate(701,177)"/>
<path d="M0 0 C1.75570312 0.04060547 1.75570312 0.04060547 3.546875 0.08203125 C4.43890625 0.11683594 5.3309375 0.15164062 6.25 0.1875 C5.92 0.8475 5.59 1.5075 5.25 2.1875 C3.15328312 2.47700484 1.04638794 2.69437222 -1.0625 2.875 C-5.63739421 3.39175129 -5.63739421 3.39175129 -9.46484375 5.66015625 C-11.54241766 9.22731146 -12.35285225 13.11673558 -12.75 17.1875 C-13.08 17.1875 -13.41 17.1875 -13.75 17.1875 C-14.03971178 11.58640552 -13.90976306 8.03999327 -10.75 3.1875 C-7.33668077 -0.16260961 -4.67300308 -0.14019009 0 0 Z " fill="#1D1D1D" transform="translate(720.75,192.8125)"/>
<path d="M0 0 C0.99 0 1.98 0 3 0 C3 2.64 3 5.28 3 8 C3.66 8 4.32 8 5 8 C5 5.69 5 3.38 5 1 C5.99 1 6.98 1 8 1 C8.1953125 7.0546875 8.1953125 7.0546875 8 9 C7.34 9.66 6.68 10.32 6 11 C3.06546739 10.63318342 2.13562754 10.13562754 0 8 C-0.26991906 5.31160615 -0.08737357 2.70858064 0 0 Z " fill="#0F0F0F" transform="translate(781,188)"/>
<path d="M0 0 C0.66 0 1.32 0 2 0 C2.1953125 6.0546875 2.1953125 6.0546875 2 8 C1.34 8.66 0.68 9.32 0 10 C-3.53571429 9.46428571 -3.53571429 9.46428571 -5 8 C-5.04080783 6.00041636 -5.04254356 3.99954746 -5 2 C-4.34 2 -3.68 2 -3 2 C-3 3.32 -3 4.64 -3 6 C-2.34 5.67 -1.68 5.34 -1 5 C-0.34444881 2.47266765 -0.34444881 2.47266765 0 0 Z " fill="#080808" transform="translate(772,199)"/>
<path d="M0 0 C3.37462715 0.54723683 5.08235 1.0549 8 3 C9.99767079 6.04907647 10.20016822 8.39697197 10 12 C9.34 12 8.68 12 8 12 C7.62875 10.906875 7.2575 9.81375 6.875 8.6875 C5.5201201 5.45411511 5.02341962 5.01423545 1.8125 3.0625 C0.884375 2.711875 -0.04375 2.36125 -1 2 C-0.67 1.34 -0.34 0.68 0 0 Z " fill="#272727" transform="translate(717,157)"/>
<path d="M0 0 C0 0.66 0 1.32 0 2 C-0.67546875 2.26554687 -1.3509375 2.53109375 -2.046875 2.8046875 C-3.38492188 3.33449219 -3.38492188 3.33449219 -4.75 3.875 C-5.63171875 4.22304688 -6.5134375 4.57109375 -7.421875 4.9296875 C-9.6740248 5.8646709 -11.83649459 6.87780794 -14 8 C-12.627162 4.63159336 -11.40170355 3.3079798 -8.125 1.75 C-7.44695313 1.41484375 -6.76890625 1.0796875 -6.0703125 0.734375 C-4 0 -4 0 0 0 Z " fill="#090909" transform="translate(716,265)"/>
<path d="M0 0 C2.31 0 4.62 0 7 0 C7 0.66 7 1.32 7 2 C5.02 2 3.04 2 1 2 C0.67 3.98 0.34 5.96 0 8 C-0.66 7.67 -1.32 7.34 -2 7 C-1.125 2.25 -1.125 2.25 0 0 Z " fill="#0B0B0B" transform="translate(710,156)"/>
<path d="M0 0 C0.99 0.33 1.98 0.66 3 1 C1.68 3.64 0.36 6.28 -1 9 C-1.66 9 -2.32 9 -3 9 C-3 8.34 -3 7.68 -3 7 C-3.66 6.67 -4.32 6.34 -5 6 C-4.01 5.67 -3.02 5.34 -2 5 C-0.78130071 2.49552484 -0.78130071 2.49552484 0 0 Z " fill="#242424" transform="translate(719,258)"/>
<path d="M0 0 C1.32 0.33 2.64 0.66 4 1 C3.67 2.32 3.34 3.64 3 5 C2.01 4.67 1.02 4.34 0 4 C0 2.68 0 1.36 0 0 Z " fill="#1E1E1E" transform="translate(748,190)"/>
</svg>
