<?xml version="1.0" encoding="UTF-8"?>
<svg version="1.1" xmlns="http://www.w3.org/2000/svg" width="800" height="300">
<path d="M0 0 C264 0 528 0 800 0 C800 99 800 198 800 300 C536 300 272 300 0 300 C0 201 0 102 0 0 Z " fill="#FEFEFE" transform="translate(0,0)"/>
<path d="M0 0 C2.92850092 2.13845909 4.69845473 3.64878617 5.359375 7.3046875 C5.36291553 9.54938148 5.23679702 11.68470881 4.92578125 13.90625 C6.00859375 14.2465625 6.00859375 14.2465625 7.11328125 14.59375 C14.0584556 17.83483136 19.34096933 25.56737693 21.93505859 32.66943359 C22.89515974 35.80620564 23.54991836 38.84400178 24.109375 42.07421875 C24.31498047 43.21439453 24.52058594 44.35457031 24.73242188 45.52929688 C25.15488846 47.91629847 25.57150575 50.30434231 25.98242188 52.69335938 C26.18931641 53.82966797 26.39621094 54.96597656 26.609375 56.13671875 C26.79040771 57.17207764 26.97144043 58.20743652 27.15795898 59.27416992 C27.97091934 62.06098252 28.66560551 63.14539461 30.92578125 64.90625 C31.58578125 65.23625 32.24578125 65.56625 32.92578125 65.90625 C32.92578125 66.56625 32.92578125 67.22625 32.92578125 67.90625 C33.79203125 68.091875 33.79203125 68.091875 34.67578125 68.28125 C36.92578125 68.90625 36.92578125 68.90625 38.69873047 69.87573242 C47.38237024 73.8938911 58.44584597 73.19360605 67.80078125 73.09375 C69.55648437 73.0927832 69.55648437 73.0927832 71.34765625 73.09179688 C79.69502295 73.09618726 79.69502295 73.09618726 87.92578125 71.90625 C88.25578125 71.24625 88.58578125 70.58625 88.92578125 69.90625 C90.81738281 69.54321289 90.81738281 69.54321289 93.31640625 69.37890625 C94.24396729 69.3104248 95.17152832 69.24194336 96.12719727 69.17138672 C97.13322998 69.1045166 98.1392627 69.03764648 99.17578125 68.96875 C108.21894814 68.28847094 117.13816878 67.27917576 126.09667969 65.87133789 C130.42452996 65.20376226 134.52848024 64.74945807 138.92578125 64.90625 C139.00828125 64.37 139.09078125 63.83375 139.17578125 63.28125 C140.26438231 59.83401329 141.51631362 57.62462373 143.92578125 54.90625 C146.92182886 54.16465406 148.77191887 54.44843127 151.92578125 54.90625 C154.35523285 58.5504274 154.087577 60.61866272 153.92578125 64.90625 C155.03953125 64.9990625 155.03953125 64.9990625 156.17578125 65.09375 C159.90079174 66.19432128 160.97248905 67.57841884 162.92578125 70.90625 C163.56676657 74.36757073 163.56070085 76.6097335 161.99609375 79.8046875 C157.7338895 85.78186151 151.85981212 86.72813796 144.92578125 87.90625 C145.25578125 88.89625 145.58578125 89.88625 145.92578125 90.90625 C146.29446705 95.88350826 146.09034433 98.95054615 142.92578125 102.90625 C139.72634424 105.2230837 136.80083089 105.31848932 132.92578125 104.90625 C132.45140625 104.390625 131.97703125 103.875 131.48828125 103.34375 C130.97265625 102.869375 130.45703125 102.395 129.92578125 101.90625 C126.42231363 102.17574751 123.1553475 102.85223441 119.73828125 103.65625 C113.21699326 104.08387544 107.07369097 101.95555324 100.92578125 99.90625 C100.62285156 100.47472656 100.31992187 101.04320312 100.0078125 101.62890625 C97.27949492 106.65740542 94.46872824 111.40574977 90.92578125 115.90625 C90.26578125 115.90625 89.60578125 115.90625 88.92578125 115.90625 C88.93738281 116.54433594 88.94898438 117.18242187 88.9609375 117.83984375 C88.96996094 118.66613281 88.97898437 119.49242187 88.98828125 120.34375 C88.99988281 121.16746094 89.01148438 121.99117188 89.0234375 122.83984375 C88.92578125 124.90625 88.92578125 124.90625 87.92578125 125.90625 C85.65854356 126.05876793 83.38546961 126.1281694 81.11328125 126.15625 C79.86933594 126.18203125 78.62539063 126.2078125 77.34375 126.234375 C73.73243494 125.88768875 72.3127912 125.6084153 69.92578125 122.90625 C69.31640625 120.42578125 69.31640625 120.42578125 69.17578125 117.71875 C69.1190625 116.81769531 69.06234375 115.91664063 69.00390625 114.98828125 C68.96523438 113.95767578 68.96523438 113.95767578 68.92578125 112.90625 C73.83502422 108.97885562 76.66498677 108.47447107 82.92578125 108.90625 C83.04953125 108.33003906 83.17328125 107.75382812 83.30078125 107.16015625 C83.94062928 104.8527043 84.81606034 102.96119542 85.92578125 100.84375 C87.145516 98.50741984 88.08679948 96.4231953 88.92578125 93.90625 C56.25578125 93.90625 23.58578125 93.90625 -10.07421875 93.90625 C-4.09712932 104.19120918 -4.09712932 104.19120918 5.61328125 109.09375 C6.38027344 109.21105469 7.14726562 109.32835937 7.9375 109.44921875 C9.92578125 109.90625 9.92578125 109.90625 11.92578125 111.90625 C12.52869757 116.33024641 12.39345138 120.56169837 10.92578125 124.78125 C7.04840581 128.9009614 2.75133797 130.69326838 -2.82421875 131.34375 C-6.32970761 130.87185727 -7.84779165 130.66701961 -10.07421875 127.90625 C-10.59660681 121.95102612 -10.59660681 121.95102612 -9.07421875 118.90625 C-8.41421875 118.90625 -7.75421875 118.90625 -7.07421875 118.90625 C-7.07421875 118.24625 -7.07421875 117.58625 -7.07421875 116.90625 C-8.24984375 116.535 -8.24984375 116.535 -9.44921875 116.15625 C-12.07421875 114.90625 -12.07421875 114.90625 -13.01171875 112.90625 C-14.60909127 109.89943115 -16.89375481 109.88485429 -20.07421875 108.90625 C-25.49519777 105.6111451 -25.49519777 105.6111451 -27.51171875 103.15625 C-30.14829009 101.04699293 -32.83366387 101.67884264 -36.07421875 101.90625 C-36.6971582 102.06536865 -37.32009766 102.2244873 -37.96191406 102.38842773 C-40.45744277 103.00019569 -42.87312975 103.22597197 -45.43359375 103.44140625 C-46.46742188 103.52841797 -47.50125 103.61542969 -48.56640625 103.70507812 C-49.64148438 103.79208984 -50.7165625 103.87910156 -51.82421875 103.96875 C-53.41363281 104.10506836 -53.41363281 104.10506836 -55.03515625 104.24414062 C-60.73724355 104.7145982 -66.3531786 105.00989203 -72.07421875 104.90625 C-71.95046875 106.0509375 -71.95046875 106.0509375 -71.82421875 107.21875 C-72.07421875 109.90625 -72.07421875 109.90625 -73.63671875 111.71875 C-77.13295962 113.42204684 -79.21744596 113.49457127 -83.07421875 112.90625 C-86.0063272 111.34892392 -88.13811574 109.61219813 -90.07421875 106.90625 C-90.47326313 103.76377551 -90.51516366 101.91163765 -90.07421875 98.90625 C-89.99171875 97.648125 -89.90921875 96.39 -89.82421875 95.09375 C-89.07421875 91.90625 -89.07421875 91.90625 -87.44921875 89.90625 C-84.02816672 88.46580704 -81.6770218 89.1734765 -78.07421875 89.90625 C-76.12515625 90.1846875 -76.12515625 90.1846875 -74.13671875 90.46875 C-73.12609375 90.613125 -72.11546875 90.7575 -71.07421875 90.90625 C-71.72648437 90.46796875 -72.37875 90.0296875 -73.05078125 89.578125 C-79.88908342 84.61581723 -85.34819568 79.44079376 -87.07421875 70.90625 C-88.56931 56.43346312 -88.91300726 39.13226409 -79.9375 26.8828125 C-74.40397625 21.01286907 -68.0455584 18.2014848 -60.07421875 17.90625 C-60.13222656 17.349375 -60.19023437 16.7925 -60.25 16.21875 C-60.57732651 10.68225589 -59.80445832 6.95890408 -56.56640625 2.39453125 C-55.07421875 0.90625 -55.07421875 0.90625 -52.07421875 0.03125 C-47.81460519 1.27363729 -46.41213158 3.19309432 -44.07421875 6.90625 C-43.76171875 10.28125 -43.76171875 10.28125 -44.07421875 12.90625 C-43.22859375 12.41125 -42.38296875 11.91625 -41.51171875 11.40625 C-35.56644214 8.82507024 -28.4088937 9.35006987 -22.07421875 9.90625 C-19.6171875 10.92578125 -19.6171875 10.92578125 -18.07421875 11.90625 C-18.15671875 10.854375 -18.23921875 9.8025 -18.32421875 8.71875 C-18.03418292 4.29570355 -17.20540993 2.95046365 -14.07421875 -0.09375 C-9.83026 -3.42828902 -4.48095792 -2.36284033 0 0 Z " fill="#FBFBFB" transform="translate(229.07421875,155.09375)"/>
<path d="M0 0 C2.6875 -0.3125 2.6875 -0.3125 6 0 C6.65484375 0.82371094 7.3096875 1.64742187 7.984375 2.49609375 C12.5652212 6.2996202 16.79729447 5.57827168 22.5625 5.375 C23.56474609 5.36082031 24.56699219 5.34664062 25.59960938 5.33203125 C30.47519469 5.2414631 35.34076995 5.04623593 40.20825195 4.75537109 C54.45235002 3.91878154 68.67682983 3.84573931 82.94213867 3.86962891 C85.67653585 3.87416195 88.4108666 3.87421517 91.14526367 3.86962891 C100.43094505 3.85414611 109.7147567 3.89399703 119 4 C120.89718781 4.01987976 120.89718781 4.01987976 122.83270264 4.04016113 C126.4714204 4.08922994 130.10817747 4.16795371 133.74609375 4.2578125 C135.34216209 4.27822098 135.34216209 4.27822098 136.97047424 4.29904175 C147.76141846 4.63593906 157.23194941 7.126133 165.1015625 14.796875 C168.08119031 18.25471468 170.07594107 21.88307979 172 26 C172.5878125 27.06347656 172.5878125 27.06347656 173.1875 28.1484375 C176.97476175 35.43365628 176.77162077 42.60176161 175.375 50.5625 C169.6875 64.78125 169.6875 64.78125 163.4375 67.625 C157.70072769 69.69064707 152.18507829 70.14951793 146.12109375 70.1328125 C145.35992249 70.13413177 144.59875122 70.13545105 143.81451416 70.1368103 C141.35546728 70.1387179 138.89653518 70.13241583 136.4375 70.125 C135.60618561 70.12411377 134.77487122 70.12322754 133.91836548 70.12231445 C121.58858811 70.10680173 109.30284848 69.87542505 97 69 C97 68.34 97 67.68 97 67 C96.29617188 67.16242188 95.59234375 67.32484375 94.8671875 67.4921875 C87.40965184 68.81300444 79.59253259 68.08414043 72.08203125 67.5078125 C66.67319889 67.13155169 61.29977248 66.9117425 55.87890625 66.859375 C21.79509958 66.48121764 21.79509958 66.48121764 10.8125 58.25 C9.32421875 56.69140625 9.32421875 56.69140625 8 55 C7.51144531 54.41089844 7.02289063 53.82179688 6.51953125 53.21484375 C2.55488966 47.4511211 2.40935902 41.64162749 2.45166016 34.85229492 C2.47029608 32.43228376 2.47029608 32.43228376 2 29 C0.13377036 27.1371129 0.13377036 27.1371129 -2 26 C-3.20745835 22.37762495 -3.22246029 19.0229405 -3.25 15.25 C-3.270625 14.5590625 -3.29125 13.868125 -3.3125 13.15625 C-3.35088173 8.05147958 -2.27330153 4.57053254 0 0 Z " fill="#656565" transform="translate(428,216)"/>
<path d="M0 0 C2.92850092 2.13845909 4.69845473 3.64878617 5.359375 7.3046875 C5.36291553 9.54938148 5.23679702 11.68470881 4.92578125 13.90625 C6.00859375 14.2465625 6.00859375 14.2465625 7.11328125 14.59375 C14.0584556 17.83483136 19.34096933 25.56737693 21.93505859 32.66943359 C22.89515974 35.80620564 23.54991836 38.84400178 24.109375 42.07421875 C24.31498047 43.21439453 24.52058594 44.35457031 24.73242188 45.52929688 C25.15488846 47.91629847 25.57150575 50.30434231 25.98242188 52.69335938 C26.18931641 53.82966797 26.39621094 54.96597656 26.609375 56.13671875 C26.79040771 57.17207764 26.97144043 58.20743652 27.15795898 59.27416992 C27.97091934 62.06098252 28.66560551 63.14539461 30.92578125 64.90625 C31.58578125 65.23625 32.24578125 65.56625 32.92578125 65.90625 C32.92578125 66.56625 32.92578125 67.22625 32.92578125 67.90625 C33.79203125 68.091875 33.79203125 68.091875 34.67578125 68.28125 C36.92578125 68.90625 36.92578125 68.90625 38.69873047 69.87573242 C47.38237024 73.8938911 58.44584597 73.19360605 67.80078125 73.09375 C69.55648437 73.0927832 69.55648437 73.0927832 71.34765625 73.09179688 C79.69502295 73.09618726 79.69502295 73.09618726 87.92578125 71.90625 C88.25578125 71.24625 88.58578125 70.58625 88.92578125 69.90625 C90.81738281 69.54321289 90.81738281 69.54321289 93.31640625 69.37890625 C94.24396729 69.3104248 95.17152832 69.24194336 96.12719727 69.17138672 C97.13322998 69.1045166 98.1392627 69.03764648 99.17578125 68.96875 C108.21894814 68.28847094 117.13816878 67.27917576 126.09667969 65.87133789 C130.42452996 65.20376226 134.52848024 64.74945807 138.92578125 64.90625 C139.00828125 64.37 139.09078125 63.83375 139.17578125 63.28125 C140.26438231 59.83401329 141.51631362 57.62462373 143.92578125 54.90625 C146.92182886 54.16465406 148.77191887 54.44843127 151.92578125 54.90625 C154.35523285 58.5504274 154.087577 60.61866272 153.92578125 64.90625 C155.03953125 64.9990625 155.03953125 64.9990625 156.17578125 65.09375 C159.90079174 66.19432128 160.97248905 67.57841884 162.92578125 70.90625 C163.56676657 74.36757073 163.56070085 76.6097335 161.99609375 79.8046875 C157.7338895 85.78186151 151.85981212 86.72813796 144.92578125 87.90625 C145.25578125 88.89625 145.58578125 89.88625 145.92578125 90.90625 C146.29446705 95.88350826 146.09034433 98.95054615 142.92578125 102.90625 C139.72634424 105.2230837 136.80083089 105.31848932 132.92578125 104.90625 C132.45140625 104.390625 131.97703125 103.875 131.48828125 103.34375 C130.97265625 102.869375 130.45703125 102.395 129.92578125 101.90625 C126.42231363 102.17574751 123.1553475 102.85223441 119.73828125 103.65625 C113.21699326 104.08387544 107.07369097 101.95555324 100.92578125 99.90625 C100.62285156 100.47472656 100.31992187 101.04320312 100.0078125 101.62890625 C97.27949492 106.65740542 94.46872824 111.40574977 90.92578125 115.90625 C90.26578125 115.90625 89.60578125 115.90625 88.92578125 115.90625 C88.93738281 116.54433594 88.94898438 117.18242187 88.9609375 117.83984375 C88.96996094 118.66613281 88.97898437 119.49242187 88.98828125 120.34375 C88.99988281 121.16746094 89.01148438 121.99117188 89.0234375 122.83984375 C88.92578125 124.90625 88.92578125 124.90625 87.92578125 125.90625 C85.65854356 126.05876793 83.38546961 126.1281694 81.11328125 126.15625 C79.86933594 126.18203125 78.62539063 126.2078125 77.34375 126.234375 C73.73243494 125.88768875 72.3127912 125.6084153 69.92578125 122.90625 C69.31640625 120.42578125 69.31640625 120.42578125 69.17578125 117.71875 C69.1190625 116.81769531 69.06234375 115.91664063 69.00390625 114.98828125 C68.96523438 113.95767578 68.96523438 113.95767578 68.92578125 112.90625 C73.83502422 108.97885562 76.66498677 108.47447107 82.92578125 108.90625 C83.04953125 108.33003906 83.17328125 107.75382812 83.30078125 107.16015625 C83.94062928 104.8527043 84.81606034 102.96119542 85.92578125 100.84375 C87.145516 98.50741984 88.08679948 96.4231953 88.92578125 93.90625 C56.25578125 93.90625 23.58578125 93.90625 -10.07421875 93.90625 C-4.09712932 104.19120918 -4.09712932 104.19120918 5.61328125 109.09375 C6.38027344 109.21105469 7.14726562 109.32835937 7.9375 109.44921875 C9.92578125 109.90625 9.92578125 109.90625 11.92578125 111.90625 C12.52869757 116.33024641 12.39345138 120.56169837 10.92578125 124.78125 C7.04840581 128.9009614 2.75133797 130.69326838 -2.82421875 131.34375 C-6.32970761 130.87185727 -7.84779165 130.66701961 -10.07421875 127.90625 C-10.59660681 121.95102612 -10.59660681 121.95102612 -9.07421875 118.90625 C-8.41421875 118.90625 -7.75421875 118.90625 -7.07421875 118.90625 C-7.07421875 118.24625 -7.07421875 117.58625 -7.07421875 116.90625 C-8.24984375 116.535 -8.24984375 116.535 -9.44921875 116.15625 C-12.07421875 114.90625 -12.07421875 114.90625 -13.01171875 112.90625 C-14.60909127 109.89943115 -16.89375481 109.88485429 -20.07421875 108.90625 C-25.49519777 105.6111451 -25.49519777 105.6111451 -27.51171875 103.15625 C-30.14829009 101.04699293 -32.83366387 101.67884264 -36.07421875 101.90625 C-36.6971582 102.06536865 -37.32009766 102.2244873 -37.96191406 102.38842773 C-40.45744277 103.00019569 -42.87312975 103.22597197 -45.43359375 103.44140625 C-46.46742188 103.52841797 -47.50125 103.61542969 -48.56640625 103.70507812 C-49.64148438 103.79208984 -50.7165625 103.87910156 -51.82421875 103.96875 C-53.41363281 104.10506836 -53.41363281 104.10506836 -55.03515625 104.24414062 C-60.73724355 104.7145982 -66.3531786 105.00989203 -72.07421875 104.90625 C-71.95046875 106.0509375 -71.95046875 106.0509375 -71.82421875 107.21875 C-72.07421875 109.90625 -72.07421875 109.90625 -73.63671875 111.71875 C-77.13295962 113.42204684 -79.21744596 113.49457127 -83.07421875 112.90625 C-86.0063272 111.34892392 -88.13811574 109.61219813 -90.07421875 106.90625 C-90.47326313 103.76377551 -90.51516366 101.91163765 -90.07421875 98.90625 C-89.99171875 97.648125 -89.90921875 96.39 -89.82421875 95.09375 C-89.07421875 91.90625 -89.07421875 91.90625 -87.44921875 89.90625 C-84.02816672 88.46580704 -81.6770218 89.1734765 -78.07421875 89.90625 C-76.12515625 90.1846875 -76.12515625 90.1846875 -74.13671875 90.46875 C-73.12609375 90.613125 -72.11546875 90.7575 -71.07421875 90.90625 C-71.72648437 90.46796875 -72.37875 90.0296875 -73.05078125 89.578125 C-79.88908342 84.61581723 -85.34819568 79.44079376 -87.07421875 70.90625 C-88.56931 56.43346312 -88.91300726 39.13226409 -79.9375 26.8828125 C-74.40397625 21.01286907 -68.0455584 18.2014848 -60.07421875 17.90625 C-60.13222656 17.349375 -60.19023437 16.7925 -60.25 16.21875 C-60.57732651 10.68225589 -59.80445832 6.95890408 -56.56640625 2.39453125 C-55.07421875 0.90625 -55.07421875 0.90625 -52.07421875 0.03125 C-47.81460519 1.27363729 -46.41213158 3.19309432 -44.07421875 6.90625 C-43.76171875 10.28125 -43.76171875 10.28125 -44.07421875 12.90625 C-43.22859375 12.41125 -42.38296875 11.91625 -41.51171875 11.40625 C-35.56644214 8.82507024 -28.4088937 9.35006987 -22.07421875 9.90625 C-19.6171875 10.92578125 -19.6171875 10.92578125 -18.07421875 11.90625 C-18.15671875 10.854375 -18.23921875 9.8025 -18.32421875 8.71875 C-18.03418292 4.29570355 -17.20540993 2.95046365 -14.07421875 -0.09375 C-9.83026 -3.42828902 -4.48095792 -2.36284033 0 0 Z M-13.57421875 3.84375 C-15.65794846 8.09803149 -14.9840228 11.36711892 -14.07421875 15.90625 C-15.08484375 15.57625 -16.09546875 15.24625 -17.13671875 14.90625 C-26.86552301 12.48700915 -37.45847492 13.37221868 -47.07421875 15.90625 C-47.0278125 15.30296875 -46.98140625 14.6996875 -46.93359375 14.078125 C-46.65219255 8.88242626 -46.65219255 8.88242626 -48.82421875 4.28125 C-50.92939783 2.75325901 -50.92939783 2.75325901 -53.13671875 2.78125 C-56.27000299 4.60057634 -56.88121318 6.50618413 -58.07421875 9.90625 C-58.30891005 13.25684285 -58.25309248 16.55402373 -58.07421875 19.90625 C-59.04359375 19.968125 -60.01296875 20.03 -61.01171875 20.09375 C-67.11630103 20.98529143 -72.83057475 24.12604474 -76.88671875 28.78125 C-84.97632792 40.33783453 -87.02780078 52.92347937 -85.07421875 66.90625 C-82.97530216 74.76136851 -78.48416463 81.46862284 -72.26171875 86.671875 C-66.09939639 90.14918548 -59.52374004 90.29325358 -52.63671875 90.53125 C-51.71439453 90.56992188 -50.79207031 90.60859375 -49.84179688 90.6484375 C-47.58612732 90.74193676 -45.33044959 90.8276891 -43.07421875 90.90625 C-50.70500667 92.34708902 -58.35593268 93.37627271 -66.07421875 94.21875 C-66.99420654 94.33138184 -67.91419434 94.44401367 -68.86206055 94.56005859 C-69.73644775 94.64980957 -70.61083496 94.73956055 -71.51171875 94.83203125 C-72.29417969 94.91880127 -73.07664063 95.00557129 -73.8828125 95.0949707 C-76.70024662 94.85233739 -77.87433368 93.60964879 -80.07421875 91.90625 C-83.26657147 92.13198891 -83.26657147 92.13198891 -86.07421875 92.90625 C-88.08229713 99.42562991 -88.08229713 99.42562991 -87.3046875 105.97265625 C-85.11997186 108.85093241 -83.43072536 109.85032739 -79.88671875 110.40625 C-76.94674492 110.16039188 -76.94674492 110.16039188 -75.07421875 107.90625 C-74.90740766 104.82277174 -74.90740766 104.82277174 -75.07421875 101.90625 C-74.35298828 101.92292725 -73.63175781 101.93960449 -72.88867188 101.95678711 C-65.32990212 102.05473962 -58.06034077 101.46844953 -50.57421875 100.46875 C-42.41615832 99.40972228 -34.27878412 98.5212258 -26.07421875 97.90625 C-26.56921875 99.39125 -26.56921875 99.39125 -27.07421875 100.90625 C-26.51734375 101.26976562 -25.96046875 101.63328125 -25.38671875 102.0078125 C-21.45924589 104.59516793 -17.61083087 107.21962865 -13.88671875 110.09375 C-8.50702781 114.32461044 -8.50702781 114.32461044 -2.07421875 115.90625 C-3.3035589 119.59427044 -5.01281253 120.62981973 -8.07421875 122.90625 C-7.57665783 125.66266416 -7.57665783 125.66266416 -6.07421875 127.90625 C-2.03209904 127.8734539 1.74935591 127.50954505 5.36328125 125.65625 C8.15894105 122.52511102 8.8734374 119.81354332 9.11328125 115.65625 C9.23459091 112.99593674 9.23459091 112.99593674 7.92578125 111.90625 C6.68828125 111.761875 5.45078125 111.6175 4.17578125 111.46875 C0.8046043 111.06929277 -2.0866605 110.6263593 -5.07421875 108.90625 C-5.69921875 107.03125 -5.69921875 107.03125 -6.07421875 104.90625 C-7.42585545 102.65869247 -7.42585545 102.65869247 -9.07421875 100.90625 C-9.73421875 100.90625 -10.39421875 100.90625 -11.07421875 100.90625 C-11.15671875 100.390625 -11.23921875 99.875 -11.32421875 99.34375 C-12.395621 95.86169268 -14.2094548 93.03424115 -16.07421875 89.90625 C-14.58921875 90.40125 -14.58921875 90.40125 -13.07421875 90.90625 C-10.49722167 90.96863467 -7.95065822 90.9730321 -5.37524414 90.92797852 C-4.59072876 90.91837097 -3.80621338 90.90876343 -2.9979248 90.89886475 C-0.38915372 90.86576388 2.21945491 90.82538605 4.828125 90.78515625 C6.66247405 90.76080277 8.49682997 90.73696201 10.33119202 90.71360779 C15.18835156 90.65063013 20.04540898 90.58176201 24.90246582 90.51135254 C32.56861343 90.40104598 40.2348716 90.29857299 47.90114212 90.19721603 C49.76629537 90.17254701 51.63144585 90.1476682 53.49659348 90.12257767 C68.97407622 89.91594462 84.44689285 89.83240456 99.92578125 89.90625 C99.92578125 90.89625 99.92578125 91.88625 99.92578125 92.90625 C97.28578125 92.90625 94.64578125 92.90625 91.92578125 92.90625 C88.96162306 99.8304298 86.20013329 106.72408567 83.92578125 113.90625 C83.26578125 113.57625 82.60578125 113.24625 81.92578125 112.90625 C80.42928763 112.78619547 78.92703332 112.73093549 77.42578125 112.71875 C76.2346875 112.69748047 76.2346875 112.69748047 75.01953125 112.67578125 C72.70544808 112.70958697 72.70544808 112.70958697 70.92578125 114.90625 C71.2784191 119.40942123 71.2784191 119.40942123 73.92578125 122.90625 C77.05392639 123.14985073 77.05392639 123.14985073 80.55078125 123.03125 C81.73929688 123.01320313 82.9278125 122.99515625 84.15234375 122.9765625 C85.06757813 122.95335937 85.9828125 122.93015625 86.92578125 122.90625 C86.92578125 121.771875 86.92578125 120.6375 86.92578125 119.46875 C87.5259969 114.33963445 90.38938946 111.64316201 93.91796875 108.08203125 C95.99886294 105.82705447 97.41926072 103.57063916 98.92578125 100.90625 C99.91578125 99.42125 99.91578125 99.42125 100.92578125 97.90625 C100.92578125 96.58625 100.92578125 95.26625 100.92578125 93.90625 C101.91578125 93.90625 102.90578125 93.90625 103.92578125 93.90625 C104.01601563 94.53015625 104.10625 95.1540625 104.19921875 95.796875 C104.71839451 98.00431431 104.71839451 98.00431431 106.52734375 98.953125 C113.62168338 101.41833954 118.78380755 101.39041477 125.92578125 98.90625 C128.67578125 98.59375 128.67578125 98.59375 130.92578125 98.90625 C131.91578125 100.39125 131.91578125 100.39125 132.92578125 101.90625 C136.53324119 102.45521129 138.26450107 102.35870486 141.30078125 100.28125 C143.33890045 97.3024604 143.2473064 95.44302664 142.92578125 91.90625 C142.26578125 91.57625 141.60578125 91.24625 140.92578125 90.90625 C139.80078125 88.84375 139.80078125 88.84375 138.92578125 86.90625 C136.61578125 86.90625 134.30578125 86.90625 131.92578125 86.90625 C131.59578125 88.55625 131.26578125 90.20625 130.92578125 91.90625 C130.22195313 91.88304687 129.518125 91.85984375 128.79296875 91.8359375 C120.66714596 91.68742377 112.93532965 92.57922423 104.92578125 93.90625 C104.92578125 92.91625 104.92578125 91.92625 104.92578125 90.90625 C106.10140625 90.9475 107.27703125 90.98875 108.48828125 91.03125 C112.59622999 91.03846959 115.98763853 90.10175761 119.92578125 88.90625 C121.34003614 88.73863461 122.75706021 88.59301754 124.17578125 88.46875 C127.84947126 88.34001347 127.84947126 88.34001347 129.21875 86.37109375 C131.93822324 84.03744966 134.50028315 84.73593066 137.98828125 84.90625 C145.69224184 85.10969476 152.52265967 84.75537505 158.61328125 79.65625 C160.35838514 75.99984186 159.87697663 73.78420041 158.92578125 69.90625 C158.59578125 69.24625 158.26578125 68.58625 157.92578125 67.90625 C154.95578125 67.90625 151.98578125 67.90625 148.92578125 67.90625 C149.91578125 65.92625 149.91578125 65.92625 150.92578125 63.90625 C151.09302862 60.73929044 151.09302862 60.73929044 150.92578125 57.90625 C149.14436378 57.04266377 149.14436378 57.04266377 146.92578125 56.90625 C144.53127272 58.38313989 144.53127272 58.38313989 142.92578125 60.90625 C142.7797599 64.00794801 142.7797599 64.00794801 142.92578125 66.90625 C140.16596188 67.22872977 137.40603864 67.55028454 134.64599609 67.87084961 C132.27249305 68.14658276 129.89912214 68.42345551 127.52587891 68.70141602 C122.19809306 69.32048211 116.87350021 69.9295068 111.53125 70.41015625 C104.23323301 71.07428318 97.54175848 71.90850342 90.48828125 74.03125 C78.82764589 77.24509315 65.92423525 76.78024569 53.92578125 75.90625 C53.59578125 75.57625 53.26578125 75.24625 52.92578125 74.90625 C49.20725341 74.44315344 45.4869087 74.06883476 41.7578125 73.69921875 C37.59760043 72.83833898 35.28264277 71.45199214 31.92578125 68.90625 C28.66181725 66.62023308 28.66181725 66.62023308 24.92578125 65.90625 C24.96703125 64.689375 25.00828125 63.4725 25.05078125 62.21875 C25.05709898 58.61132688 24.34147498 56.23729408 22.92578125 52.90625 C22.7048447 51.49441158 22.51943154 50.07671393 22.36328125 48.65625 C22.34340714 45.11707486 22.34340714 45.11707486 20.92578125 43.90625 C20.69291117 42.22441052 20.51313959 40.5350084 20.36328125 38.84375 C20.23759766 37.46509766 20.23759766 37.46509766 20.109375 36.05859375 C20.04878906 35.34832031 19.98820312 34.63804687 19.92578125 33.90625 C19.26578125 33.90625 18.60578125 33.90625 17.92578125 33.90625 C17.90515625 33.101875 17.88453125 32.2975 17.86328125 31.46875 C16.26179673 25.38310882 12.13534959 20.37929556 6.92578125 16.90625 C4.30046601 16.73911431 4.30046601 16.73911431 1.92578125 16.90625 C1.99539062 16.24238281 2.065 15.57851562 2.13671875 14.89453125 C2.54275594 9.79611717 2.54275594 9.79611717 0.8359375 5.12890625 C-1.84418067 2.67627822 -4.15905422 1.89162319 -7.69921875 1.28125 C-11.14038727 1.65180816 -11.14038727 1.65180816 -13.57421875 3.84375 Z " fill="#131313" transform="translate(229.07421875,155.09375)"/>
<path d="M0 0 C2.6875 -0.3125 2.6875 -0.3125 6 0 C6.65484375 0.82371094 7.3096875 1.64742187 7.984375 2.49609375 C12.5652212 6.2996202 16.79729447 5.57827168 22.5625 5.375 C23.56474609 5.36082031 24.56699219 5.34664062 25.59960938 5.33203125 C30.47519469 5.2414631 35.34076995 5.04623593 40.20825195 4.75537109 C54.45235002 3.91878154 68.67682983 3.84573931 82.94213867 3.86962891 C85.67653585 3.87416195 88.4108666 3.87421517 91.14526367 3.86962891 C100.43094505 3.85414611 109.7147567 3.89399703 119 4 C120.89718781 4.01987976 120.89718781 4.01987976 122.83270264 4.04016113 C126.4714204 4.08922994 130.10817747 4.16795371 133.74609375 4.2578125 C135.34216209 4.27822098 135.34216209 4.27822098 136.97047424 4.29904175 C147.76141846 4.63593906 157.23194941 7.126133 165.1015625 14.796875 C168.08119031 18.25471468 170.07594107 21.88307979 172 26 C172.5878125 27.06347656 172.5878125 27.06347656 173.1875 28.1484375 C176.97476175 35.43365628 176.77162077 42.60176161 175.375 50.5625 C169.6875 64.78125 169.6875 64.78125 163.4375 67.625 C157.70072769 69.69064707 152.18507829 70.14951793 146.12109375 70.1328125 C145.35992249 70.13413177 144.59875122 70.13545105 143.81451416 70.1368103 C141.35546728 70.1387179 138.89653518 70.13241583 136.4375 70.125 C135.60618561 70.12411377 134.77487122 70.12322754 133.91836548 70.12231445 C121.58858811 70.10680173 109.30284848 69.87542505 97 69 C97 68.34 97 67.68 97 67 C96.29617188 67.16242188 95.59234375 67.32484375 94.8671875 67.4921875 C87.40965184 68.81300444 79.59253259 68.08414043 72.08203125 67.5078125 C66.67319889 67.13155169 61.29977248 66.9117425 55.87890625 66.859375 C21.79509958 66.48121764 21.79509958 66.48121764 10.8125 58.25 C9.32421875 56.69140625 9.32421875 56.69140625 8 55 C7.51144531 54.41089844 7.02289063 53.82179688 6.51953125 53.21484375 C2.55488966 47.4511211 2.40935902 41.64162749 2.45166016 34.85229492 C2.47029608 32.43228376 2.47029608 32.43228376 2 29 C0.13377036 27.1371129 0.13377036 27.1371129 -2 26 C-3.20745835 22.37762495 -3.22246029 19.0229405 -3.25 15.25 C-3.270625 14.5590625 -3.29125 13.868125 -3.3125 13.15625 C-3.35088173 8.05147958 -2.27330153 4.57053254 0 0 Z M3 3 C-0.71059486 9.13054803 -1.71075839 15.44620807 -0.3125 22.4375 C0.78058442 25.09159104 0.78058442 25.09159104 3 26.3125 C6.24734023 29.05244332 6.35310018 32.93985245 7 37 C9.64573501 34.77122275 9.64573501 34.77122275 12 32 C11.95502158 29.72476911 11.95502158 29.72476911 11 28 C12.32 27.34 13.64 26.68 15 26 C14.67 24.35 14.34 22.7 14 21 C14.99 21.99 15.98 22.98 17 24 C15.39680795 28.66383143 13.08350522 33.14135949 10 37 C9.30648438 37.30550781 8.61296875 37.61101562 7.8984375 37.92578125 C5.77741393 38.86585583 5.77741393 38.86585583 5.07421875 41.29296875 C4.97884902 44.77145414 5.96425246 46.39079722 7.8125 49.3125 C8.35519531 50.19550781 8.89789063 51.07851563 9.45703125 51.98828125 C9.96621094 52.65214844 10.47539062 53.31601562 11 54 C11.66 54 12.32 54 13 54 C13.33 54.99 13.66 55.98 14 57 C16.36401089 58.26080581 18.47896761 59.14504119 21 60 C21.81339844 60.28230469 22.62679688 60.56460938 23.46484375 60.85546875 C33.75725957 63.93020167 46.48210319 64.63478627 57 62 C57.53394179 60.5882217 58.05165104 59.17029756 58.5625 57.75 C58.85253906 56.96109375 59.14257812 56.1721875 59.44140625 55.359375 C60.0610168 52.74227867 59.94248701 51.4926979 59 49 C58.34 48.01 57.68 47.02 57 46 C57.53625 45.443125 58.0725 44.88625 58.625 44.3125 C59.07875 43.549375 59.5325 42.78625 60 42 C59.26145768 39.36186139 59.26145768 39.36186139 58 37 C58 36.34 58 35.68 58 35 C58.99 35.33 59.98 35.66 61 36 C61.94002987 40.38680608 61.74651537 43.61422219 61 48 C61.185625 48.804375 61.37125 49.60875 61.5625 50.4375 C62.16494838 53.96612624 61.00559799 56.60610677 60 60 C60.33 60.99 60.66 61.98 61 63 C62.06927734 63.09087891 62.06927734 63.09087891 63.16015625 63.18359375 C71.41188054 63.9054808 71.41188054 63.9054808 75.5 64.5625 C82.43977973 65.42997247 89.12334905 65.23427068 96 64 C96.66 64.33 97.32 64.66 98 65 C100.56845219 65.03037021 103.120762 64.93311185 105.6875 64.83984375 C108 65 108 65 110 67 C112.52377655 67.27808217 112.52377655 67.27808217 115.4453125 67.1953125 C116.52167969 67.18886719 117.59804688 67.18242187 118.70703125 67.17578125 C119.83496094 67.15902344 120.96289062 67.14226562 122.125 67.125 C123.26066406 67.11597656 124.39632812 67.10695313 125.56640625 67.09765625 C128.37781299 67.07403098 131.18880298 67.04109013 134 67 C134 66.34 134 65.68 134 65 C134.99 64.67 135.98 64.34 137 64 C138.56028793 61.15102982 139.46843274 58.20059445 140 55 C139.01919106 52.38017854 139.01919106 52.38017854 137 51 C136.34 51 135.68 51 135 51 C135.66 50.236875 136.32 49.47375 137 48.6875 C139.29850538 46.15722061 139.29850538 46.15722061 139 43 C137.56249809 41.31201173 137.56249809 41.31201173 136 40 C137.32 40.33 138.64 40.66 140 41 C140.90594807 43.61718331 140.98235878 45.10143704 140.5 47.875 C139.82038781 50.94518924 139.82038781 50.94518924 140.5625 53.75 C141.18730226 58.39138818 140.07980006 62.48447249 139 67 C149.65771916 67.35857747 158.40464935 67.06190317 166.59375 59.53515625 C171.66979043 54.24761413 174.03554301 48.43102855 173.9765625 41.078125 C172.70835554 30.19972752 166.40917284 21.74595342 159 14 C158.01 13.67 157.02 13.34 156 13 C154.39819908 16.38766195 154.39819908 16.38766195 154.125 20.0625 C154.8950733 22.17907441 154.8950733 22.17907441 157.0625 23.5625 C160.20275922 27.5131487 159.47149501 32.13046134 159 37 C158.67 37.66 158.34 38.32 158 39 C157.01 39.33 156.02 39.66 155 40 C155.165 38.9275 155.33 37.855 155.5 36.75 C156.3352003 30.76189263 156.3352003 30.76189263 155 25 C152.50965614 23.70339566 152.50965614 23.70339566 150 23 C150.99 19.7 151.98 16.4 153 13 C146.68439027 7.21069108 141.08633074 7.22890562 132.75 7.1875 C130.97496094 7.14979492 130.97496094 7.14979492 129.1640625 7.11132812 C125.10889692 7.03050193 121.05589005 7 117 7 C116.97111854 10.31248187 116.95324201 13.62493167 116.9375 16.9375 C116.92493164 18.35579102 116.92493164 18.35579102 116.91210938 19.80273438 C116.90727539 21.15141602 116.90727539 21.15141602 116.90234375 22.52734375 C116.89448853 23.77632446 116.89448853 23.77632446 116.88647461 25.05053711 C116.78356708 27.00516798 116.78356708 27.00516798 118 28 C118.26293056 32.03160191 118.29404844 33.55892734 116 37 C113.875 37.6875 113.875 37.6875 112 38 C113.75 34.125 113.75 34.125 116 33 C115.89171875 31.86111328 115.89171875 31.86111328 115.78125 30.69921875 C115.6884375 29.70535156 115.595625 28.71148437 115.5 27.6875 C115.4071875 26.70136719 115.314375 25.71523437 115.21875 24.69921875 C115 22 115 22 115 19 C114.34 19 113.68 19 113 19 C113.556875 17.63875 113.556875 17.63875 114.125 16.25 C115.25131743 13.16467339 115.25131743 13.16467339 114.375 10.75 C112.21694327 8.00338235 109.96584178 7.12449559 106.52636719 6.68115234 C105.62563477 6.64973145 104.72490234 6.61831055 103.796875 6.5859375 C102.8171875 6.54726562 101.8375 6.50859375 100.828125 6.46875 C99.30445313 6.42234375 99.30445313 6.42234375 97.75 6.375 C96.203125 6.31699219 96.203125 6.31699219 94.625 6.2578125 C92.0835106 6.16368326 89.54202567 6.07805021 87 6 C87.495 6.99 87.495 6.99 88 8 C88.66 8 89.32 8 90 8 C90.67228569 12.48190462 91.12701027 15.63283522 90 20 C90.29235267 22.33882138 90.62599214 24.67284 91 27 C91 28.32 91 29.64 91 31 C90.01 30.01 90.01 30.01 89 29 C89.2784375 27.824375 89.2784375 27.824375 89.5625 26.625 C90.29178752 23.94859806 90.29178752 23.94859806 88.6875 21.6875 C88.130625 21.130625 87.57375 20.57375 87 20 C86.34 20 85.68 20 85 20 C85.680625 19.443125 86.36125 18.88625 87.0625 18.3125 C89.25510881 16.18317288 89.25510881 16.18317288 89.0625 13.5 C87.56544541 9.97751862 86.33969805 8.96356171 83 7 C79.03453696 6.4431461 75.1217931 6.53050618 71.125 6.625 C70.0119751 6.63789063 68.8989502 6.65078125 67.75219727 6.6640625 C59.38070792 6.81952868 51.23850267 7.4996548 43 9 C43.04253906 10.093125 43.08507812 11.18625 43.12890625 12.3125 C43 16 43 16 40.9375 19 C38.43457181 22.87550172 39.20915027 24.57124149 40 29 C39.125 32.1875 39.125 32.1875 38 35 C37.65023242 36.32911682 37.30903983 37.66082739 37 39 C35.79371992 36.66785852 34.8345262 34.50357861 34 32 C34.639375 31.7525 35.27875 31.505 35.9375 31.25 C38.12493715 30.18550582 38.12493715 30.18550582 38.875 28.125 C39.02904228 25.50628117 38.24534014 24.27091436 37 22 C37 21.01 37 20.02 37 19 C39 17.3125 39 17.3125 41 16 C40.81171228 13.55519921 40.81171228 13.55519921 40 11 C36.96969085 8.99095526 34.40823739 8.73084337 30.82421875 8.65625 C29.83099609 8.62660156 28.83777344 8.59695312 27.81445312 8.56640625 C26.26661133 8.53353516 26.26661133 8.53353516 24.6875 8.5 C8.56797015 8.15378142 8.56797015 8.15378142 4.0625 4.375 C3.711875 3.92125 3.36125 3.4675 3 3 Z " fill="#111111" transform="translate(428,216)"/>
<path d="M0 0 C1.4537075 -0.0100985 1.4537075 -0.0100985 2.93678284 -0.020401 C3.81543503 -0.02132248 4.69408722 -0.02224396 5.59936523 -0.02319336 C6.72350075 -0.02687172 6.72350075 -0.02687172 7.87034607 -0.03062439 C10.00540152 0.09356619 11.88864746 0.50447762 13.94140625 1.08984375 C13.94140625 2.07984375 13.94140625 3.06984375 13.94140625 4.08984375 C11.30140625 4.41984375 8.66140625 4.74984375 5.94140625 5.08984375 C3.30140625 11.68984375 0.66140625 18.28984375 -2.05859375 25.08984375 C-5.68859375 25.08984375 -9.31859375 25.08984375 -13.05859375 25.08984375 C-14.30897428 28.7874107 -14.30897428 28.7874107 -13.53515625 31.29296875 C-12.11067403 33.41276091 -12.11067403 33.41276091 -9.01953125 33.69921875 C-7.83617187 33.745625 -6.6528125 33.79203125 -5.43359375 33.83984375 C-3.65082031 33.92492187 -3.65082031 33.92492187 -1.83203125 34.01171875 C-0.91679687 34.0375 -0.0015625 34.06328125 0.94140625 34.08984375 C0.77640625 32.95546875 0.61140625 31.82109375 0.44140625 30.65234375 C0.40347476 26.37367221 1.90427755 24.50724084 4.75390625 21.40234375 C5.46160156 20.69722656 6.16929687 19.99210937 6.8984375 19.265625 C9.00127351 17.02608454 10.3777414 14.71984738 11.94140625 12.08984375 C12.60140625 11.75984375 13.26140625 11.42984375 13.94140625 11.08984375 C13.32305092 15.10915338 11.24274487 17.80221715 8.94140625 21.08984375 C7.88953125 22.76046875 7.88953125 22.76046875 6.81640625 24.46484375 C6.19765625 25.33109375 5.57890625 26.19734375 4.94140625 27.08984375 C4.28140625 27.08984375 3.62140625 27.08984375 2.94140625 27.08984375 C2.95300781 27.72792969 2.96460938 28.36601562 2.9765625 29.0234375 C2.98558594 29.84972656 2.99460937 30.67601562 3.00390625 31.52734375 C3.01550781 32.35105469 3.02710938 33.17476563 3.0390625 34.0234375 C2.94140625 36.08984375 2.94140625 36.08984375 1.94140625 37.08984375 C-0.32583144 37.24236168 -2.59890539 37.31176315 -4.87109375 37.33984375 C-6.11503906 37.365625 -7.35898437 37.39140625 -8.640625 37.41796875 C-12.25194006 37.0712825 -13.6715838 36.79200905 -16.05859375 34.08984375 C-16.66796875 31.609375 -16.66796875 31.609375 -16.80859375 28.90234375 C-16.8653125 28.00128906 -16.92203125 27.10023438 -16.98046875 26.171875 C-17.00625 25.48480469 -17.03203125 24.79773438 -17.05859375 24.08984375 C-12.14935078 20.16244937 -9.31938823 19.65806482 -3.05859375 20.08984375 C-2.87296875 19.22552734 -2.87296875 19.22552734 -2.68359375 18.34375 C-2.04374572 16.03629805 -1.16831466 14.14478917 -0.05859375 12.02734375 C1.161141 9.69101359 2.10242448 7.60678905 2.94140625 5.08984375 C-29.39859375 5.08984375 -61.73859375 5.08984375 -95.05859375 5.08984375 C-95.38859375 4.42984375 -95.71859375 3.76984375 -96.05859375 3.08984375 C-95.34832031 3.02925781 -94.63804687 2.96867188 -93.90625 2.90625 C-92.52759766 2.78056641 -92.52759766 2.78056641 -91.12109375 2.65234375 C-90.20457031 2.57113281 -89.28804687 2.48992187 -88.34375 2.40625 C-86.09699643 2.32939399 -86.09699643 2.32939399 -85.05859375 1.08984375 C-82.977749 0.96580294 -80.89270936 0.91182403 -78.80834961 0.88452148 C-77.82720184 0.86967209 -77.82720184 0.86967209 -76.82623291 0.85452271 C-74.6420053 0.82271519 -72.45775749 0.79802012 -70.2734375 0.7734375 C-68.74051909 0.75282956 -67.20760588 0.73183219 -65.67469788 0.71046448 C-62.438843 0.66636515 -59.2029691 0.62550521 -55.96704102 0.5871582 C-51.89371499 0.53885395 -47.82048732 0.48509938 -43.74725914 0.42920494 C-29.16560296 0.22955953 -14.58300864 0.05323324 0 0 Z " fill="#212121" transform="translate(315.05859375,243.91015625)"/>
<path d="M0 0 C2.31 0 4.62 0 7 0 C7.28875 0.639375 7.5775 1.27875 7.875 1.9375 C8.82823451 4.15206079 8.82823451 4.15206079 11 5 C11.32152515 8.53677664 11.4131192 10.3962104 9.375 13.375 C6.33871982 15.45245486 4.60745994 15.54896129 1 15 C0.34 14.01 -0.32 13.02 -1 12 C-2.258125 12.144375 -3.51625 12.28875 -4.8125 12.4375 C-5.87404297 12.55931641 -5.87404297 12.55931641 -6.95703125 12.68359375 C-9.19396393 12.97170735 -9.19396393 12.97170735 -12 14 C-17.25582975 14.41222194 -22.49480687 13.94485795 -27 11 C-27.7265625 8.890625 -27.7265625 8.890625 -28 7 C-18.91214765 5.60950893 -10.21627045 4.69107473 -1 5 C-0.67 3.35 -0.34 1.7 0 0 Z " fill="#F7F7F7" transform="translate(361,242)"/>
<path d="M0 0 C0.33 0 0.66 0 1 0 C0.835 1.258125 0.67 2.51625 0.5 3.8125 C0.3129249 5.87324912 0.15026239 7.93624002 0 10 C-0.05285156 10.69722168 -0.10570312 11.39444336 -0.16015625 12.11279297 C-1.02305539 25.08117141 0.14847585 34.82334591 8.77734375 45.12109375 C15.18019868 51.17549399 23.05162688 51.33520741 31.4375 51.625 C32.82098633 51.68300781 32.82098633 51.68300781 34.23242188 51.7421875 C36.48809143 51.83568676 38.74376916 51.9214391 41 52 C41.33 52.66 41.66 53.32 42 54 C37.65961508 54.59758371 33.3180387 55.18527477 28.97509766 55.76391602 C27.49849553 55.96206001 26.02225016 56.16288207 24.54638672 56.36645508 C22.42243613 56.65894524 20.29738024 56.94171579 18.171875 57.22265625 C16.8940918 57.39547119 15.61630859 57.56828613 14.29980469 57.74633789 C8.79099207 58.16981054 4.94886417 56.18892069 0 54 C0.33 53.01 0.66 52.02 1 51 C1.680625 51.144375 2.36125 51.28875 3.0625 51.4375 C6.36273082 52.06945909 9.67144426 52.54313941 13 53 C12.34773437 52.56171875 11.69546875 52.1234375 11.0234375 51.671875 C4.20174942 46.72162348 -1.30910915 41.5301093 -3 33 C-3.98705933 22.58811607 -4.66260557 10.94730377 -1 1 C-0.67 0.67 -0.34 0.34 0 0 Z " fill="#0D0D0D" transform="translate(145,193)"/>
<path d="M0 0 C0.66 0.66 1.32 1.32 2 2 C-0.08058657 4.08058657 -4.41960849 3.38043408 -7.23828125 3.5234375 C-10.28462043 4.04911413 -11.71491661 4.97002093 -14 7 C-13.59573665 12.86181863 -12.7971314 16.2823519 -9 21 C-5.81175432 22.59412284 -2.37103338 22.10174735 1.125 22.0625 C2.25615234 22.05573242 2.25615234 22.05573242 3.41015625 22.04882812 C5.27347127 22.03703499 7.13674555 22.01909942 9 22 C9 22.99 9 23.98 9 25 C-6.24276957 26.7547155 -6.24276957 26.7547155 -12 23 C-15.59985578 19.30541117 -16.90465862 16.51701249 -17.09765625 11.421875 C-17.08025391 10.09929687 -17.08025391 10.09929687 -17.0625 8.75 C-17.05347656 7.85796875 -17.04445312 6.9659375 -17.03515625 6.046875 C-17.02355469 5.37140625 -17.01195312 4.6959375 -17 4 C-11.43890122 0.13140954 -6.78760781 -1.06715589 0 0 Z " fill="#0C0C0C" transform="translate(181,193)"/>
<path d="M0 0 C0.99 0 1.98 0 3 0 C3.185625 0.61875 3.37125 1.2375 3.5625 1.875 C5.77267991 5.14222247 8.2176961 5.25594022 12 6 C16.91940197 6.34522119 20.38551901 5.60503687 25 4 C27.75 3.6875 27.75 3.6875 30 4 C30.99 5.485 30.99 5.485 32 7 C35.97475764 7.61829563 37.5419102 7.31867116 40.875 5 C41.926875 4.01 41.926875 4.01 43 3 C43.495 4.485 43.495 4.485 44 6 C39.26551982 10.89229619 39.26551982 10.89229619 35.0625 11.25 C32 11 32 11 30.5625 9.4375 C30.046875 8.963125 29.53125 8.48875 29 8 C25.49653238 8.26949751 22.22956625 8.94598441 18.8125 9.75 C13.22573795 10.11634505 8.33987627 8.52137519 3 7 C1.66810333 6.66097176 0.33537002 6.32507814 -1 6 C-0.67 4.02 -0.34 2.04 0 0 Z " fill="#131313" transform="translate(330,249)"/>
<path d="M0 0 C0.33 0.99 0.66 1.98 1 3 C-0.3567482 5.3632729 -1.72775351 7.48791953 -3.3125 9.6875 C-3.72951172 10.29400391 -4.14652344 10.90050781 -4.57617188 11.52539062 C-5.65862011 13.06015375 -6.82397149 14.53570872 -8 16 C-8.66 16 -9.32 16 -10 16 C-9.98839844 16.63808594 -9.97679687 17.27617187 -9.96484375 17.93359375 C-9.95582031 18.75988281 -9.94679688 19.58617187 -9.9375 20.4375 C-9.92589844 21.26121094 -9.91429687 22.08492188 -9.90234375 22.93359375 C-10 25 -10 25 -11 26 C-13.26723769 26.15251793 -15.54031164 26.2219194 -17.8125 26.25 C-19.05644531 26.27578125 -20.30039062 26.3015625 -21.58203125 26.328125 C-25.19334631 25.98143875 -26.61299005 25.7021653 -29 23 C-29.609375 20.51953125 -29.609375 20.51953125 -29.75 17.8125 C-29.80671875 16.91144531 -29.8634375 16.01039063 -29.921875 15.08203125 C-29.94765625 14.39496094 -29.9734375 13.70789063 -30 13 C-28.68 12.34 -27.36 11.68 -26 11 C-26.20625 12.0725 -26.4125 13.145 -26.625 14.25 C-27.13086111 18.56223487 -27.13086111 18.56223487 -25 22 C-21.89069059 22.70672206 -21.89069059 22.70672206 -18.375 22.75 C-16.59222656 22.83507812 -16.59222656 22.83507812 -14.7734375 22.921875 C-13.40058594 22.96054687 -13.40058594 22.96054687 -12 23 C-12.165 21.865625 -12.33 20.73125 -12.5 19.5625 C-12.53793149 15.28382846 -11.0371287 13.41739709 -8.1875 10.3125 C-7.47980469 9.60738281 -6.77210938 8.90226562 -6.04296875 8.17578125 C-3.93710735 5.93301873 -2.51322848 3.66746282 -1 1 C-0.67 0.67 -0.34 0.34 0 0 Z " fill="#0D0D0D" transform="translate(328,255)"/>
<path d="M0 0 C0 2.31 0 4.62 0 7 C-10.96823696 9.0361826 -21.91627746 10.73201021 -33 12 C-33 11.34 -33 10.68 -33 10 C-36.96 10 -40.92 10 -45 10 C-45 9.67 -45 9.34 -45 9 C-44.23300781 8.96261719 -43.46601563 8.92523438 -42.67578125 8.88671875 C-34.12419176 8.38017861 -25.74865123 7.32966584 -17.28637695 6.01635742 C-12.80875508 5.33535509 -8.54663949 4.82800541 -4 5 C-3.814375 4.0409375 -3.814375 4.0409375 -3.625 3.0625 C-3.41875 2.381875 -3.2125 1.70125 -3 1 C-1 0 -1 0 0 0 Z " fill="#111111" transform="translate(372,215)"/>
<path d="M0 0 C1.32 0.66 2.64 1.32 4 2 C2.8656185 9.94067053 -2.50728227 15.50728227 -8 21 C-8.66 21.33 -9.32 21.66 -10 22 C-10 18.04 -10 14.08 -10 10 C-9.34 10 -8.68 10 -8 10 C-7.34 11.32 -6.68 12.64 -6 14 C-4.37168238 12.19038423 -4.37168238 12.19038423 -3 10 C-3.33 9.01 -3.66 8.02 -4 7 C-2.35 6.34 -0.7 5.68 1 5 C0.67 3.35 0.34 1.7 0 0 Z " fill="#010101" transform="translate(442,237)"/>
<path d="M0 0 C0.66 0.33 1.32 0.66 2 1 C0.91430728 4.03993963 0.08521464 4.94964589 -2.75 6.625 C-6.78581546 9.05240979 -8.47050122 12.88315934 -10.60546875 16.953125 C-11.06566406 17.62859375 -11.52585938 18.3040625 -12 19 C-12.99 19 -13.98 19 -15 19 C-12.8792785 11.24126282 -10.40434439 5.89722402 -3.3125 1.5625 C-2.219375 1.046875 -1.12625 0.53125 0 0 Z " fill="#1C1C1C" transform="translate(159,175)"/>
<path d="M0 0 C0.99 0.33 1.98 0.66 3 1 C1.35 4.96 -0.3 8.92 -2 13 C-5.96 13 -9.92 13 -14 13 C-13.67 11.68 -13.34 10.36 -13 9 C-9.78548731 7.39274365 -6.56387464 7.94251815 -3 8 C-2.87625 7.4225 -2.7525 6.845 -2.625 6.25 C-1.99351176 3.97664233 -1.11141809 2.0746471 0 0 Z " fill="#272727" transform="translate(315,256)"/>
<path d="M0 0 C0.66 0.33 1.32 0.66 2 1 C1.319375 1.845625 0.63875 2.69125 -0.0625 3.5625 C-2.43065395 7.76406347 -1.82658451 9.37112672 -1 14 C-1.875 17.1875 -1.875 17.1875 -3 20 C-3.34976758 21.32911682 -3.69096017 22.66082739 -4 24 C-4.99 24 -5.98 24 -7 24 C-7 23.01 -7 22.02 -7 21 C-7.66 20.34 -8.32 19.68 -9 19 C-8.13375 18.154375 -7.2675 17.30875 -6.375 16.4375 C-4.93020894 14.85540789 -4.93020894 14.85540789 -4 13 C-4.53219091 9.17352608 -4.53219091 9.17352608 -6 6 C-4.02 4.02 -2.04 2.04 0 0 Z " fill="#000000" transform="translate(470,231)"/>
<path d="M0 0 C4.27587998 -0.08384078 7.76358987 0.15271797 12 1 C12.33 5.29 12.66 9.58 13 14 C12.01 14 11.02 14 10 14 C10 12.02 10 10.04 10 8 C9.01 7.67 8.02 7.34 7 7 C6.67 6.01 6.34 5.02 6 4 C3.69 3.67 1.38 3.34 -1 3 C-0.67 2.01 -0.34 1.02 0 0 Z " fill="#1B1B1B" transform="translate(362,239)"/>
<path d="M0 0 C1.65 0.33 3.3 0.66 5 1 C5.90594807 3.61718331 5.98235878 5.10143704 5.5 7.875 C4.96376636 11.22646028 5.41081278 13.68582189 6 17 C5.67 17.99 5.34 18.98 5 20 C4.01 19.67 3.02 19.34 2 19 C2.2475 18.4225 2.495 17.845 2.75 17.25 C2.8325 16.5075 2.915 15.765 3 15 C1.14567913 12.72855926 1.14567913 12.72855926 -1 11 C0.33333333 8.33333333 1.66666667 5.66666667 3 3 C2.01 2.67 1.02 2.34 0 2 C0 1.34 0 0.68 0 0 Z " fill="#000000" transform="translate(564,256)"/>
<path d="M0 0 C0.99 0 1.98 0 3 0 C3.18304688 0.62390625 3.36609375 1.2478125 3.5546875 1.890625 C4.91662203 4.34008964 4.91662203 4.34008964 8.2578125 5.046875 C9.53398437 5.27890625 10.81015625 5.5109375 12.125 5.75 C13.40632813 5.99234375 14.68765625 6.2346875 16.0078125 6.484375 C16.99523437 6.65453125 17.98265625 6.8246875 19 7 C19 7.99 19 8.98 19 10 C12.44638413 9.47148259 6.11647732 8.53639635 0 6 C-1.24546405 3.50907189 -0.7767578 2.58919267 0 0 Z " fill="#0B0B0B" transform="translate(330,249)"/>
<path d="M0 0 C-0.33 0.99 -0.66 1.98 -1 3 C-9.17413104 4.18896451 -16.84317822 4.3883952 -25 3 C-25 2.67 -25 2.34 -25 2 C-8.29157175 -0.29612756 -8.29157175 -0.29612756 0 0 Z " fill="#1E1E1E" transform="translate(182,255)"/>
<path d="M0 0 C12.87 0.495 12.87 0.495 26 1 C26 1.66 26 2.32 26 3 C17.75 3 9.5 3 1 3 C0.67 2.01 0.34 1.02 0 0 Z " fill="#010101" transform="translate(169,228)"/>
<path d="M0 0 C0.309375 0.639375 0.61875 1.27875 0.9375 1.9375 C1.8345163 3.93610821 1.8345163 3.93610821 3 5 C4.46282033 4.90966647 5.92182192 4.75296509 7.375 4.5625 C9.9721428 4.22833993 12.37411693 4 15 4 C14.1875 5.9375 14.1875 5.9375 13 8 C8.65693925 9.44768692 4.75868747 9.85679646 0.5625 7.8125 C-1 6 -1 6 -1.3125 3.375 C-1 1 -1 1 0 0 Z " fill="#0D0D0D" transform="translate(220,277)"/>
<path d="M0 0 C0.33 0.99 0.66 1.98 1 3 C-0.3333826 5.36881909 -1.68068973 7.48617267 -3.25 9.6875 C-3.65863281 10.29400391 -4.06726563 10.90050781 -4.48828125 11.52539062 C-5.703125 13.26171875 -5.703125 13.26171875 -8 16 C-8.99 16 -9.98 16 -11 16 C-9.34540386 12.08913641 -6.70698566 9.23517798 -4 6 C-2.9731657 4.3497306 -1.96432076 2.68756133 -1 1 C-0.67 0.67 -0.34 0.34 0 0 Z " fill="#202020" transform="translate(328,255)"/>
<path d="M0 0 C0.66 0.33 1.32 0.66 2 1 C1.814375 1.515625 1.62875 2.03125 1.4375 2.5625 C0.83752918 5.1713937 0.83752918 5.1713937 1.5 8.5 C1.93772143 11.56405002 2.02210188 13.16082812 1 16 C0.01 15.67 -0.98 15.34 -2 15 C-1.773125 14.113125 -1.54625 13.22625 -1.3125 12.3125 C-0.94548054 8.42209376 -1.73118159 7.08559304 -4 4 C-2.68 2.68 -1.36 1.36 0 0 Z " fill="#000000" transform="translate(518,231)"/>
<path d="M0 0 C1.62463842 -0.05395478 3.24978541 -0.09277195 4.875 -0.125 C5.77992188 -0.14820313 6.68484375 -0.17140625 7.6171875 -0.1953125 C10 0 10 0 12 2 C10.18884044 3.81115956 7.38721773 3.38199448 4.9375 3.5625 C3.83277344 3.64628906 2.72804687 3.73007813 1.58984375 3.81640625 C0.73519531 3.87699219 -0.11945313 3.93757812 -1 4 C-0.67 2.68 -0.34 1.36 0 0 Z " fill="#383838" transform="translate(171,193)"/>
<path d="M0 0 C0.33 0 0.66 0 1 0 C1 2.97 1 5.94 1 9 C-3.95 10.485 -3.95 10.485 -9 12 C-8.67 10.68 -8.34 9.36 -8 8 C-5.36 7.67 -2.72 7.34 0 7 C0 4.69 0 2.38 0 0 Z " fill="#060606" transform="translate(169,166)"/>
<path d="M0 0 C0 2.31 0 4.62 0 7 C-1.32 7.33 -2.64 7.66 -4 8 C-4 7.34 -4 6.68 -4 6 C-5.98 6 -7.96 6 -10 6 C-10 5.67 -10 5.34 -10 5 C-8.02 5 -6.04 5 -4 5 C-3.814375 4.0409375 -3.814375 4.0409375 -3.625 3.0625 C-3.41875 2.381875 -3.2125 1.70125 -3 1 C-1 0 -1 0 0 0 Z " fill="#2E2E2E" transform="translate(372,215)"/>
<path d="M0 0 C-0.33 0.99 -0.66 1.98 -1 3 C-2.98 3.33 -4.96 3.66 -7 4 C-7 3.34 -7 2.68 -7 2 C-10.96 2 -14.92 2 -19 2 C-19 1.67 -19 1.34 -19 1 C-16.77100213 0.83109082 -14.54179338 0.66496313 -12.3125 0.5 C-10.45044922 0.36078125 -10.45044922 0.36078125 -8.55078125 0.21875 C-5.68500671 0.04220063 -2.86900043 -0.04388528 0 0 Z " fill="#363636" transform="translate(346,223)"/>
<path d="M0 0 C2.97 0 5.94 0 9 0 C8.67 0.99 8.34 1.98 8 3 C3.545 3.495 3.545 3.495 -1 4 C-0.67 2.68 -0.34 1.36 0 0 Z " fill="#1E1E1E" transform="translate(346,222)"/>
<path d="M0 0 C2.31 0 4.62 0 7 0 C7 0.99 7 1.98 7 3 C4.36 3.33 1.72 3.66 -1 4 C-0.67 2.68 -0.34 1.36 0 0 Z " fill="#1C1C1C" transform="translate(183,215)"/>
<path d="M0 0 C0.99 0.33 1.98 0.66 3 1 C2.52433594 1.82757813 2.52433594 1.82757813 2.0390625 2.671875 C0.87290025 5.28477989 0.59954289 7.40579002 0.375 10.25 C0.30023438 11.14203125 0.22546875 12.0340625 0.1484375 12.953125 C0.09945312 13.62859375 0.05046875 14.3040625 0 15 C-0.33 15 -0.66 15 -1 15 C-1.22304441 13.25181409 -1.4278645 11.50129677 -1.625 9.75 C-1.74101562 8.77546875 -1.85703125 7.8009375 -1.9765625 6.796875 C-2.00112537 3.86570607 -1.5312717 2.45471036 0 0 Z " fill="#212121" transform="translate(171,160)"/>
<path d="M0 0 C-2.39509338 2.89932357 -4.31245243 3.50168276 -8 4 C-7.1875 2.0625 -7.1875 2.0625 -6 0 C-3 -1 -3 -1 0 0 Z " fill="#0C0C0C" transform="translate(381,239)"/>
<path d="M0 0 C0.33 0 0.66 0 1 0 C1 2.97 1 5.94 1 9 C0.01 9 -0.98 9 -2 9 C-1.125 1.125 -1.125 1.125 0 0 Z " fill="#000000" transform="translate(602,255)"/>
<path d="M0 0 C2.875 -0.125 2.875 -0.125 6 0 C6.66 0.66 7.32 1.32 8 2 C4.52176885 3.15941038 2.54104422 2.70820884 -1 2 C-0.67 1.34 -0.34 0.68 0 0 Z " fill="#090909" transform="translate(175,193)"/>
</svg>
