<?xml version="1.0" encoding="UTF-8"?>
<svg version="1.1" xmlns="http://www.w3.org/2000/svg" width="800" height="300">
<path d="M0 0 C264 0 528 0 800 0 C800 99 800 198 800 300 C536 300 272 300 0 300 C0 201 0 102 0 0 Z " fill="#FEFEFE" transform="translate(0,0)"/>
<path d="M0 0 C4.60318234 0 6.47731945 0.51140732 9.875 3.6875 C12 7 12 7 13 13 C21.58 12.67 30.16 12.34 39 12 C39.99 9.03 40.98 6.06 42 3 C42.66 2.01 43.32 1.02 44 0 C49.22662188 -0.94796573 53.80790294 -0.58559154 58.5625 1.75 C62.1641791 5.07462687 62.1641791 5.07462687 63 8 C63.0777346 10.33203812 63.08967728 12.66839059 63 15 C63.5775 15.25136719 64.155 15.50273437 64.75 15.76171875 C71.05767813 19.23313189 75.08155089 25.13731884 77.25 31.875 C78.52925248 36.62331706 79.49266446 41.41430737 80.43847656 46.23681641 C82.11382753 57.63422006 82.11382753 57.63422006 88 67 C90.98582392 68.20524819 93.79469014 68.91262344 96.96484375 69.46484375 C100 70 100 70 102.76712036 71.02223206 C106.2876827 72.08700816 109.08973785 72.22198594 112.76123047 72.17944336 C113.73348824 72.17265312 113.73348824 72.17265312 114.72538757 72.16572571 C116.12491803 72.15482122 117.52441901 72.13935507 118.92385483 72.11976433 C121.15509087 72.08932669 123.38606023 72.07271018 125.61746216 72.05970764 C131.95937251 72.02021471 138.30096305 71.95567349 144.64257812 71.88354492 C148.53337169 71.8402484 152.42405409 71.8125087 156.31503677 71.79324532 C157.78114368 71.78283593 159.24722366 71.76662658 160.71319199 71.74394035 C172.74342202 71.55827891 184.76335456 72.27751082 196 77 C198.54290625 77.58350505 198.54290625 77.58350505 201 77 C201.639375 76.195625 202.27875 75.39125 202.9375 74.5625 C205 72 205 72 208 71 C211 71 211 71 213.1796875 72.12109375 C215 74 215 74 215.3203125 76.84765625 C215.25585938 77.90855469 215.19140625 78.96945313 215.125 80.0625 C214.90928359 83.19918561 214.90928359 83.19918561 215 86 C215.66 86.66 216.32 87.32 217 88 C217.3359375 90.2421875 217.3359375 90.2421875 217.375 92.875 C217.40335938 93.73867187 217.43171875 94.60234375 217.4609375 95.4921875 C216.84024064 98.86919923 215.7699145 100.00566156 213 102 C204.42271479 103.19739879 196.91533104 99.96347838 189.296875 96.43359375 C182.6839279 93.5580587 176.15552702 92.68889013 169 93 C170.03837833 101.14659558 170.03837833 101.14659558 174 108 C176.01325322 108.2876076 178.03039646 108.5693432 180.05859375 108.71875 C182 109 182 109 184.5 110.5625 C186.62205027 114.01083169 186.62781268 117.11354057 186 121 C184.43564712 125.0226217 183.61276337 126.59149109 180 129 C177.22265625 129.3359375 177.22265625 129.3359375 174.0625 129.375 C173.02222656 129.40335938 171.98195313 129.43171875 170.91015625 129.4609375 C168 129 168 129 165.61328125 127.2421875 C163.74710134 124.64851373 163.69167955 123.83879705 164.125 120.75 C164.41880065 114.98771629 161.60232566 112.18896394 158 108 C155 103.5 155 103.5 155 100 C154.38253906 100.19335938 153.76507813 100.38671875 153.12890625 100.5859375 C148.12854737 102.12333856 143.15753607 103.45119825 138.0390625 104.52734375 C135.75334032 105.02357346 135.75334032 105.02357346 132.625 106.125 C130 107 130 107 127 107 C126.95875 107.721875 126.9175 108.44375 126.875 109.1875 C125.67456278 113.04604822 123.45742554 115.09725574 120 117 C116.4375 117.6875 116.4375 117.6875 113 117 C108.87101904 113.40958177 107.30457003 110.40860769 106.91796875 104.96484375 C107.05142432 101.76826507 107.66944673 98.33055327 110 96 C114.13570354 95.82401262 117.96427334 96.1241486 122.0625 96.6875 C126.6074994 97.19786412 129.02524218 96.36592728 133 94 C134.32 94 135.64 94 137 94 C137 93.34 137 92.68 137 92 C136.00411865 92.15412354 135.0082373 92.30824707 133.98217773 92.46704102 C130.09421577 93.02028831 126.20490176 93.3124213 122.28515625 93.52734375 C121.55603531 93.56866928 120.82691437 93.60999481 120.07569885 93.65257263 C111.20179397 94.13090197 102.32092313 94.34754309 93.4375 94.5625 C91.7324153 94.605862 90.02733711 94.64948066 88.32226562 94.69335938 C84.21491232 94.79851541 80.10748813 94.90025542 76 95 C76.00652588 95.6185083 76.01305176 96.2370166 76.01977539 96.87426758 C76.02485107 97.68532959 76.02992676 98.4963916 76.03515625 99.33203125 C76.04168213 100.13616455 76.04820801 100.94029785 76.05493164 101.76879883 C75.93657463 106.57619775 74.15351548 109.10140412 70.8125 112.375 C67.85125314 114.79108008 67.23149332 115 63.1875 115 C60 114 60 114 58 112 C57.875 108.375 57.875 108.375 58 105 C56.72125 104.896875 55.4425 104.79375 54.125 104.6875 C49.69602903 104.20850471 45.73561036 103.05768044 41.5078125 101.69921875 C37.69070116 100.63494627 33.94423559 100.31808352 30 100 C30.66 100.94875 31.32 101.8975 32 102.875 C34 106 34 106 34 108 C35.258125 108.103125 36.51625 108.20625 37.8125 108.3125 C40.33231669 108.51904235 41.66199559 108.74939719 43.70703125 110.265625 C45.28130077 112.37733397 45.58481583 113.83023917 45.875 116.4375 C45.97554688 117.19933594 46.07609375 117.96117187 46.1796875 118.74609375 C45.94204234 121.72699068 45.10543046 122.89912675 43 125 C38.38737996 126.85472484 33.99912259 127.1611488 29.125 126.375 C23.86666667 124.06133333 23.86666667 124.06133333 22 121 C22.00565453 119.26971342 22.07656445 117.53923591 22.1875 115.8125 C22.43047839 109.92615249 20.64084741 107.38631239 16.82421875 103.07421875 C14.1640849 100.04952694 11 96.1544285 11 92 C10.41621582 91.94054199 9.83243164 91.88108398 9.23095703 91.81982422 C-14.66151063 89.25840074 -14.66151063 89.25840074 -22.875 80 C-23.57625 79.01 -24.2775 78.02 -25 77 C-25.721875 76.071875 -26.44375 75.14375 -27.1875 74.1875 C-30.9591228 67.55464611 -31.36498142 60.19157119 -31.3125 52.6875 C-31.30831055 51.8622583 -31.30412109 51.0370166 -31.29980469 50.18676758 C-31.13315469 41.11232042 -30.07367777 32.14550326 -24 25 C-19.5584164 20.798502 -14.73291323 18.14906799 -8.5625 17.8125 C-7.2940625 17.9053125 -7.2940625 17.9053125 -6 18 C-6.12375 16.5459375 -6.12375 16.5459375 -6.25 15.0625 C-6.26974681 10.22453098 -4.32570983 6.16760411 -2 2 C-1.34 1.34 -0.68 0.68 0 0 Z " fill="#FAFAFA" transform="translate(144,155)"/>
<path d="M0 0 C2.6875 -0.3125 2.6875 -0.3125 6 0 C6.65484375 0.82371094 7.3096875 1.64742187 7.984375 2.49609375 C12.5652212 6.2996202 16.79729447 5.57827168 22.5625 5.375 C23.56474609 5.36082031 24.56699219 5.34664062 25.59960938 5.33203125 C30.47519469 5.2414631 35.34076995 5.04623593 40.20825195 4.75537109 C54.45235002 3.91878154 68.67682983 3.84573931 82.94213867 3.86962891 C85.67653585 3.87416195 88.4108666 3.87421517 91.14526367 3.86962891 C100.43094505 3.85414611 109.7147567 3.89399703 119 4 C120.89718781 4.01987976 120.89718781 4.01987976 122.83270264 4.04016113 C126.4714204 4.08922994 130.10817747 4.16795371 133.74609375 4.2578125 C135.34216209 4.27822098 135.34216209 4.27822098 136.97047424 4.29904175 C147.76141846 4.63593906 157.23194941 7.126133 165.1015625 14.796875 C168.08119031 18.25471468 170.07594107 21.88307979 172 26 C172.5878125 27.06347656 172.5878125 27.06347656 173.1875 28.1484375 C176.97476175 35.43365628 176.77162077 42.60176161 175.375 50.5625 C169.6875 64.78125 169.6875 64.78125 163.4375 67.625 C157.70072769 69.69064707 152.18507829 70.14951793 146.12109375 70.1328125 C145.35992249 70.13413177 144.59875122 70.13545105 143.81451416 70.1368103 C141.35546728 70.1387179 138.89653518 70.13241583 136.4375 70.125 C135.60618561 70.12411377 134.77487122 70.12322754 133.91836548 70.12231445 C121.58858811 70.10680173 109.30284848 69.87542505 97 69 C97 68.34 97 67.68 97 67 C96.29617188 67.16242188 95.59234375 67.32484375 94.8671875 67.4921875 C87.40965184 68.81300444 79.59253259 68.08414043 72.08203125 67.5078125 C66.67319889 67.13155169 61.29977248 66.9117425 55.87890625 66.859375 C21.79509958 66.48121764 21.79509958 66.48121764 10.8125 58.25 C9.32421875 56.69140625 9.32421875 56.69140625 8 55 C7.51144531 54.41089844 7.02289063 53.82179688 6.51953125 53.21484375 C2.55488966 47.4511211 2.40935902 41.64162749 2.45166016 34.85229492 C2.47029608 32.43228376 2.47029608 32.43228376 2 29 C0.13377036 27.1371129 0.13377036 27.1371129 -2 26 C-3.20745835 22.37762495 -3.22246029 19.0229405 -3.25 15.25 C-3.270625 14.5590625 -3.29125 13.868125 -3.3125 13.15625 C-3.35088173 8.05147958 -2.27330153 4.57053254 0 0 Z " fill="#656565" transform="translate(428,216)"/>
<path d="M0 0 C4.60318234 0 6.47731945 0.51140732 9.875 3.6875 C12 7 12 7 13 13 C21.58 12.67 30.16 12.34 39 12 C39.99 9.03 40.98 6.06 42 3 C42.66 2.01 43.32 1.02 44 0 C49.22662188 -0.94796573 53.80790294 -0.58559154 58.5625 1.75 C62.1641791 5.07462687 62.1641791 5.07462687 63 8 C63.0777346 10.33203812 63.08967728 12.66839059 63 15 C63.5775 15.25136719 64.155 15.50273437 64.75 15.76171875 C71.05767813 19.23313189 75.08155089 25.13731884 77.25 31.875 C78.52925248 36.62331706 79.49266446 41.41430737 80.43847656 46.23681641 C82.11382753 57.63422006 82.11382753 57.63422006 88 67 C90.98582392 68.20524819 93.79469014 68.91262344 96.96484375 69.46484375 C100 70 100 70 102.76712036 71.02223206 C106.2876827 72.08700816 109.08973785 72.22198594 112.76123047 72.17944336 C113.73348824 72.17265312 113.73348824 72.17265312 114.72538757 72.16572571 C116.12491803 72.15482122 117.52441901 72.13935507 118.92385483 72.11976433 C121.15509087 72.08932669 123.38606023 72.07271018 125.61746216 72.05970764 C131.95937251 72.02021471 138.30096305 71.95567349 144.64257812 71.88354492 C148.53337169 71.8402484 152.42405409 71.8125087 156.31503677 71.79324532 C157.78114368 71.78283593 159.24722366 71.76662658 160.71319199 71.74394035 C172.74342202 71.55827891 184.76335456 72.27751082 196 77 C198.54290625 77.58350505 198.54290625 77.58350505 201 77 C201.639375 76.195625 202.27875 75.39125 202.9375 74.5625 C205 72 205 72 208 71 C211 71 211 71 213.1796875 72.12109375 C215 74 215 74 215.3203125 76.84765625 C215.25585938 77.90855469 215.19140625 78.96945313 215.125 80.0625 C214.90928359 83.19918561 214.90928359 83.19918561 215 86 C215.66 86.66 216.32 87.32 217 88 C217.3359375 90.2421875 217.3359375 90.2421875 217.375 92.875 C217.40335938 93.73867187 217.43171875 94.60234375 217.4609375 95.4921875 C216.84024064 98.86919923 215.7699145 100.00566156 213 102 C204.42271479 103.19739879 196.91533104 99.96347838 189.296875 96.43359375 C182.6839279 93.5580587 176.15552702 92.68889013 169 93 C170.03837833 101.14659558 170.03837833 101.14659558 174 108 C176.01325322 108.2876076 178.03039646 108.5693432 180.05859375 108.71875 C182 109 182 109 184.5 110.5625 C186.62205027 114.01083169 186.62781268 117.11354057 186 121 C184.43564712 125.0226217 183.61276337 126.59149109 180 129 C177.22265625 129.3359375 177.22265625 129.3359375 174.0625 129.375 C173.02222656 129.40335938 171.98195313 129.43171875 170.91015625 129.4609375 C168 129 168 129 165.61328125 127.2421875 C163.74710134 124.64851373 163.69167955 123.83879705 164.125 120.75 C164.41880065 114.98771629 161.60232566 112.18896394 158 108 C155 103.5 155 103.5 155 100 C154.38253906 100.19335938 153.76507813 100.38671875 153.12890625 100.5859375 C148.12854737 102.12333856 143.15753607 103.45119825 138.0390625 104.52734375 C135.75334032 105.02357346 135.75334032 105.02357346 132.625 106.125 C130 107 130 107 127 107 C126.95875 107.721875 126.9175 108.44375 126.875 109.1875 C125.67456278 113.04604822 123.45742554 115.09725574 120 117 C116.4375 117.6875 116.4375 117.6875 113 117 C108.87101904 113.40958177 107.30457003 110.40860769 106.91796875 104.96484375 C107.05142432 101.76826507 107.66944673 98.33055327 110 96 C114.13570354 95.82401262 117.96427334 96.1241486 122.0625 96.6875 C126.6074994 97.19786412 129.02524218 96.36592728 133 94 C134.32 94 135.64 94 137 94 C137 93.34 137 92.68 137 92 C136.00411865 92.15412354 135.0082373 92.30824707 133.98217773 92.46704102 C130.09421577 93.02028831 126.20490176 93.3124213 122.28515625 93.52734375 C121.55603531 93.56866928 120.82691437 93.60999481 120.07569885 93.65257263 C111.20179397 94.13090197 102.32092313 94.34754309 93.4375 94.5625 C91.7324153 94.605862 90.02733711 94.64948066 88.32226562 94.69335938 C84.21491232 94.79851541 80.10748813 94.90025542 76 95 C76.00652588 95.6185083 76.01305176 96.2370166 76.01977539 96.87426758 C76.02485107 97.68532959 76.02992676 98.4963916 76.03515625 99.33203125 C76.04168213 100.13616455 76.04820801 100.94029785 76.05493164 101.76879883 C75.93657463 106.57619775 74.15351548 109.10140412 70.8125 112.375 C67.85125314 114.79108008 67.23149332 115 63.1875 115 C60 114 60 114 58 112 C57.875 108.375 57.875 108.375 58 105 C56.72125 104.896875 55.4425 104.79375 54.125 104.6875 C49.69602903 104.20850471 45.73561036 103.05768044 41.5078125 101.69921875 C37.69070116 100.63494627 33.94423559 100.31808352 30 100 C30.66 100.94875 31.32 101.8975 32 102.875 C34 106 34 106 34 108 C35.258125 108.103125 36.51625 108.20625 37.8125 108.3125 C40.33231669 108.51904235 41.66199559 108.74939719 43.70703125 110.265625 C45.28130077 112.37733397 45.58481583 113.83023917 45.875 116.4375 C45.97554688 117.19933594 46.07609375 117.96117187 46.1796875 118.74609375 C45.94204234 121.72699068 45.10543046 122.89912675 43 125 C38.38737996 126.85472484 33.99912259 127.1611488 29.125 126.375 C23.86666667 124.06133333 23.86666667 124.06133333 22 121 C22.00565453 119.26971342 22.07656445 117.53923591 22.1875 115.8125 C22.43047839 109.92615249 20.64084741 107.38631239 16.82421875 103.07421875 C14.1640849 100.04952694 11 96.1544285 11 92 C10.41621582 91.94054199 9.83243164 91.88108398 9.23095703 91.81982422 C-14.66151063 89.25840074 -14.66151063 89.25840074 -22.875 80 C-23.57625 79.01 -24.2775 78.02 -25 77 C-25.721875 76.071875 -26.44375 75.14375 -27.1875 74.1875 C-30.9591228 67.55464611 -31.36498142 60.19157119 -31.3125 52.6875 C-31.30831055 51.8622583 -31.30412109 51.0370166 -31.29980469 50.18676758 C-31.13315469 41.11232042 -30.07367777 32.14550326 -24 25 C-19.5584164 20.798502 -14.73291323 18.14906799 -8.5625 17.8125 C-7.2940625 17.9053125 -7.2940625 17.9053125 -6 18 C-6 18.99 -6 19.98 -6 21 C-6.65226562 21.17015625 -7.30453125 21.3403125 -7.9765625 21.515625 C-16.70438755 23.79760769 -16.70438755 23.79760769 -23.1796875 29.75390625 C-29.06633363 40.73228644 -29.71029428 53.9709704 -26.875 66 C-24.02333119 74.97397199 -18.12969762 80.60147503 -10 85 C-7.31151246 85.66939843 -7.31151246 85.66939843 -4.48046875 85.94921875 C-3.45888672 86.07490234 -2.43730469 86.20058594 -1.38476562 86.33007812 C0.19788086 86.50700195 0.19788086 86.50700195 1.8125 86.6875 C3.42415039 86.88182617 3.42415039 86.88182617 5.06835938 87.08007812 C7.711182 87.39721684 10.35479857 87.70347556 13 88 C13.26039063 88.87527344 13.52078125 89.75054687 13.7890625 90.65234375 C14.99529963 93.98700574 16.44393956 96.59844872 18.375 99.5625 C18.96023437 100.47128906 19.54546875 101.38007813 20.1484375 102.31640625 C21.98785408 105.05208719 21.98785408 105.05208719 24.171875 107.703125 C25.93614149 109.91976751 26.80597412 111.18662473 27 114 C26.34 114.66 25.68 115.32 25 116 C25.36681658 118.93453261 25.86437246 119.86437246 28 122 C32.08084268 122.99415421 35.90572635 123.25077104 40 122.3125 C42.09584162 121.15980177 42.09584162 121.15980177 43 119.1875 C43 115.90308864 42.17393737 114.44567955 40 112 C36.37400578 111.58274322 36.37400578 111.58274322 33 112 C32.5875 111.154375 32.175 110.30875 31.75 109.4375 C28.43607584 102.35185554 28.43607584 102.35185554 23 97 C22.3125 94.375 22.3125 94.375 22 92 C22.66 92 23.32 92 24 92 C24 92.99 24 93.98 24 95 C24.969375 95.144375 25.93875 95.28875 26.9375 95.4375 C30 96 30 96 31 97 C32.95250863 97.32840359 34.91263633 97.6118124 36.875 97.875 C42.2690467 98.66249529 47.37875829 99.82181161 52.609375 101.3359375 C55.38152846 102.10598013 58.14975248 102.61483142 61 103 C61 105.31 61 107.62 61 110 C65.92290686 110.39739246 65.92290686 110.39739246 70.375 108.5625 C72.72161501 104.86206863 73.45787059 101.36985267 73 97 C70.29077413 93.61346767 68.43248137 93.0850783 64.1875 92.25 C63.135625 92.1675 62.08375 92.085 61 92 C61 92.99 61 93.98 61 95 C54.34656702 95.32194031 48.10348744 94.94275287 42 92 C41.67 91.01 41.34 90.02 41 89 C43.38564077 89.57584432 45.66682784 90.22227595 48 91 C49.89212737 91.22179785 51.78884472 91.40614015 53.6875 91.5625 C55.17830078 91.68818359 55.17830078 91.68818359 56.69921875 91.81640625 C57.45847656 91.87699219 58.21773438 91.93757813 59 92 C59.495 90.515 59.495 90.515 60 89 C61.47906892 88.97310784 62.95827483 88.95365379 64.4375 88.9375 C65.26121094 88.92589844 66.08492188 88.91429687 66.93359375 88.90234375 C69 89 69 89 70 90 C72.64738089 90.09511266 75.26859001 90.12555635 77.91625977 90.11352539 C78.74545929 90.11367142 79.57465881 90.11381744 80.4289856 90.1139679 C83.18315198 90.11326851 85.93725161 90.10547493 88.69140625 90.09765625 C90.59569766 90.09579216 92.49998955 90.09436822 94.40428162 90.09336853 C99.42667963 90.08954263 104.44904892 90.07971173 109.47143555 90.06866455 C114.5922812 90.05845198 119.71313148 90.05387124 124.83398438 90.04882812 C134.88933557 90.03808953 144.9446654 90.02101224 155 90 C155.33 90.99 155.66 91.98 156 93 C155.030625 93.06316406 154.06125 93.12632812 153.0625 93.19140625 C144.29338809 93.93614084 137.12529098 95.74346215 129.23046875 99.69946289 C124.46925826 102.04523895 124.46925826 102.04523895 121.609375 101.76953125 C120 101 120 101 119 100 C116.32941149 99.85884839 113.67567762 99.95752893 111 100 C109.8899384 104.66225873 110.0546671 107.5974045 112 112 C114.7459726 113.3729863 116.9589047 113.12412634 120 113 C120.99 112.67 121.98 112.34 123 112 C123.33 109.69 123.66 107.38 124 105 C124.87011719 104.71125 125.74023438 104.4225 126.63671875 104.125 C128.72586629 103.42619107 130.81236543 102.71934474 132.89453125 102 C138.21356365 100.17714552 143.43573733 98.53621916 148.96484375 97.4921875 C151.42273742 96.89776408 153.67220504 95.97969805 156 95 C156.20753906 95.60585937 156.41507813 96.21171875 156.62890625 96.8359375 C158.83995482 102.84924951 161.63428295 107.67548123 165.51171875 112.7734375 C167.65167615 115.97494857 168.16596977 117.95676143 167.5625 121.75 C167.376875 122.4925 167.19125 123.235 167 124 C169.88415883 125.44207941 172.41721528 125.09394887 175.625 125.0625 C177.40777344 125.04896484 177.40777344 125.04896484 179.2265625 125.03515625 C180.14179688 125.02355469 181.05703125 125.01195312 182 125 C182.22162329 123.37675914 182.42689803 121.751279 182.625 120.125 C182.74101562 119.22007812 182.85703125 118.31515625 182.9765625 117.3828125 C182.98429688 116.59648437 182.99203125 115.81015625 183 115 C180.63288209 112.63288209 179.89980191 112.77762608 176.6875 112.4375 C173.70599663 111.83158157 172.35691711 111.3945735 170.296875 109.1171875 C167.45608907 104.30091251 166.41012606 100.54481502 167 95 C166.34 95 165.68 95 165 95 C165.33 93.35 165.66 91.7 166 90 C177.15142052 89.71447287 185.65682257 90.33802866 195.7421875 95.046875 C201.68325925 97.55487069 207.6062109 98.27207613 214 98 C214 95.36 214 92.72 214 90 C212.35 89.34 210.7 88.68 209 88 C209.54723683 84.62537285 210.0549 82.91765 212 80 C211.6878236 77.35367713 211.6878236 77.35367713 211 75 C208.59122743 75.11341534 208.59122743 75.11341534 206 76 C205.54625 76.845625 205.0925 77.69125 204.625 78.5625 C204.08875 79.366875 203.5525 80.17125 203 81 C198.1427225 81.76192588 194.60711223 80.64721427 190.20275879 78.83335876 C183.60677471 76.33793295 177.08941002 75.71666521 170.09375 75.83984375 C169.26302979 75.84554382 168.43230957 75.8512439 167.57641602 75.8571167 C165.80196829 75.86968069 164.02754596 75.88643192 162.25317383 75.90707397 C157.5647336 75.95888712 152.87618153 75.97044867 148.1875 75.984375 C146.77277405 75.98935249 146.77277405 75.98935249 145.32946777 75.99443054 C137.08235737 76.01632655 128.84053128 75.94756466 120.59594727 75.73855591 C119.21764517 75.70498137 117.83921036 75.67641498 116.46069336 75.65328979 C109.28107746 75.52846832 102.82883846 75.07725619 96.01953125 72.69921875 C92.75114641 71.56761162 89.45372521 71 86 71 C80.51274393 62.40141317 78.61181666 53.74915544 76.91333008 43.80664062 C75.12489877 33.90544687 71.87698759 25.53622375 64 19 C61.89412844 18.33082825 61.89412844 18.33082825 60 18 C60.05800781 17.40832031 60.11601562 16.81664062 60.17578125 16.20703125 C60.4179096 11.96632611 60.3898004 9.63667398 58.125 5.9375 C53.57847918 3.11865709 50.29296952 3.64713537 45 4 C43.68 7.96 42.36 11.92 41 16 C31.1 16 21.2 16 11 16 C10.01 13.03 9.02 10.06 8 7 C6.25213315 4.78625275 6.25213315 4.78625275 4 4 C1.93161504 4.0363856 1.93161504 4.0363856 0 5 C-1.14724066 7.17316366 -1.14724066 7.17316366 -1.75 9.8125 C-2.11351562 11.12154297 -2.11351562 11.12154297 -2.484375 12.45703125 C-3.1324807 15.2209178 -3.1324807 15.2209178 -3 19 C-3.66 19 -4.32 19 -5 19 C-6.45369052 16.09261897 -6.29639413 14.26033542 -6 11 C-4.54756856 6.904281 -3.09642272 3.09642272 0 0 Z " fill="#0A0A0A" transform="translate(144,155)"/>
<path d="M0 0 C2.6875 -0.3125 2.6875 -0.3125 6 0 C6.65484375 0.82371094 7.3096875 1.64742187 7.984375 2.49609375 C12.5652212 6.2996202 16.79729447 5.57827168 22.5625 5.375 C23.56474609 5.36082031 24.56699219 5.34664062 25.59960938 5.33203125 C30.47519469 5.2414631 35.34076995 5.04623593 40.20825195 4.75537109 C54.45235002 3.91878154 68.67682983 3.84573931 82.94213867 3.86962891 C85.67653585 3.87416195 88.4108666 3.87421517 91.14526367 3.86962891 C100.43094505 3.85414611 109.7147567 3.89399703 119 4 C120.89718781 4.01987976 120.89718781 4.01987976 122.83270264 4.04016113 C126.4714204 4.08922994 130.10817747 4.16795371 133.74609375 4.2578125 C135.34216209 4.27822098 135.34216209 4.27822098 136.97047424 4.29904175 C147.76141846 4.63593906 157.23194941 7.126133 165.1015625 14.796875 C168.08119031 18.25471468 170.07594107 21.88307979 172 26 C172.5878125 27.06347656 172.5878125 27.06347656 173.1875 28.1484375 C176.97476175 35.43365628 176.77162077 42.60176161 175.375 50.5625 C169.6875 64.78125 169.6875 64.78125 163.4375 67.625 C157.70072769 69.69064707 152.18507829 70.14951793 146.12109375 70.1328125 C145.35992249 70.13413177 144.59875122 70.13545105 143.81451416 70.1368103 C141.35546728 70.1387179 138.89653518 70.13241583 136.4375 70.125 C135.60618561 70.12411377 134.77487122 70.12322754 133.91836548 70.12231445 C121.58858811 70.10680173 109.30284848 69.87542505 97 69 C97 68.34 97 67.68 97 67 C96.29617188 67.16242188 95.59234375 67.32484375 94.8671875 67.4921875 C87.40965184 68.81300444 79.59253259 68.08414043 72.08203125 67.5078125 C66.67319889 67.13155169 61.29977248 66.9117425 55.87890625 66.859375 C21.79509958 66.48121764 21.79509958 66.48121764 10.8125 58.25 C9.32421875 56.69140625 9.32421875 56.69140625 8 55 C7.51144531 54.41089844 7.02289063 53.82179688 6.51953125 53.21484375 C2.55488966 47.4511211 2.40935902 41.64162749 2.45166016 34.85229492 C2.47029608 32.43228376 2.47029608 32.43228376 2 29 C0.13377036 27.1371129 0.13377036 27.1371129 -2 26 C-3.20745835 22.37762495 -3.22246029 19.0229405 -3.25 15.25 C-3.270625 14.5590625 -3.29125 13.868125 -3.3125 13.15625 C-3.35088173 8.05147958 -2.27330153 4.57053254 0 0 Z M3 3 C-0.71059486 9.13054803 -1.71075839 15.44620807 -0.3125 22.4375 C0.78058442 25.09159104 0.78058442 25.09159104 3 26.3125 C6.24734023 29.05244332 6.35310018 32.93985245 7 37 C9.64573501 34.77122275 9.64573501 34.77122275 12 32 C11.95502158 29.72476911 11.95502158 29.72476911 11 28 C12.32 27.34 13.64 26.68 15 26 C14.67 24.35 14.34 22.7 14 21 C14.99 21.99 15.98 22.98 17 24 C15.39680795 28.66383143 13.08350522 33.14135949 10 37 C9.30648438 37.30550781 8.61296875 37.61101562 7.8984375 37.92578125 C5.77741393 38.86585583 5.77741393 38.86585583 5.07421875 41.29296875 C4.97884902 44.77145414 5.96425246 46.39079722 7.8125 49.3125 C8.35519531 50.19550781 8.89789063 51.07851563 9.45703125 51.98828125 C9.96621094 52.65214844 10.47539062 53.31601562 11 54 C11.66 54 12.32 54 13 54 C13.33 54.99 13.66 55.98 14 57 C16.36401089 58.26080581 18.47896761 59.14504119 21 60 C21.81339844 60.28230469 22.62679688 60.56460938 23.46484375 60.85546875 C33.75725957 63.93020167 46.48210319 64.63478627 57 62 C57.53394179 60.5882217 58.05165104 59.17029756 58.5625 57.75 C58.85253906 56.96109375 59.14257812 56.1721875 59.44140625 55.359375 C60.0610168 52.74227867 59.94248701 51.4926979 59 49 C58.34 48.01 57.68 47.02 57 46 C57.53625 45.443125 58.0725 44.88625 58.625 44.3125 C59.07875 43.549375 59.5325 42.78625 60 42 C59.26145768 39.36186139 59.26145768 39.36186139 58 37 C58 36.34 58 35.68 58 35 C58.99 35.33 59.98 35.66 61 36 C61.94002987 40.38680608 61.74651537 43.61422219 61 48 C61.185625 48.804375 61.37125 49.60875 61.5625 50.4375 C62.16494838 53.96612624 61.00559799 56.60610677 60 60 C60.33 60.99 60.66 61.98 61 63 C62.06927734 63.09087891 62.06927734 63.09087891 63.16015625 63.18359375 C71.41188054 63.9054808 71.41188054 63.9054808 75.5 64.5625 C82.43977973 65.42997247 89.12334905 65.23427068 96 64 C96.66 64.33 97.32 64.66 98 65 C100.56845219 65.03037021 103.120762 64.93311185 105.6875 64.83984375 C108 65 108 65 110 67 C112.52377655 67.27808217 112.52377655 67.27808217 115.4453125 67.1953125 C116.52167969 67.18886719 117.59804688 67.18242187 118.70703125 67.17578125 C119.83496094 67.15902344 120.96289062 67.14226562 122.125 67.125 C123.26066406 67.11597656 124.39632812 67.10695313 125.56640625 67.09765625 C128.37781299 67.07403098 131.18880298 67.04109013 134 67 C134 66.34 134 65.68 134 65 C134.99 64.67 135.98 64.34 137 64 C138.56028793 61.15102982 139.46843274 58.20059445 140 55 C139.01919106 52.38017854 139.01919106 52.38017854 137 51 C136.34 51 135.68 51 135 51 C135.66 50.236875 136.32 49.47375 137 48.6875 C139.29850538 46.15722061 139.29850538 46.15722061 139 43 C137.56249809 41.31201173 137.56249809 41.31201173 136 40 C137.32 40.33 138.64 40.66 140 41 C140.90594807 43.61718331 140.98235878 45.10143704 140.5 47.875 C139.82038781 50.94518924 139.82038781 50.94518924 140.5625 53.75 C141.18730226 58.39138818 140.07980006 62.48447249 139 67 C149.65771916 67.35857747 158.40464935 67.06190317 166.59375 59.53515625 C171.66979043 54.24761413 174.03554301 48.43102855 173.9765625 41.078125 C172.70835554 30.19972752 166.40917284 21.74595342 159 14 C158.01 13.67 157.02 13.34 156 13 C154.39819908 16.38766195 154.39819908 16.38766195 154.125 20.0625 C154.8950733 22.17907441 154.8950733 22.17907441 157.0625 23.5625 C160.20275922 27.5131487 159.47149501 32.13046134 159 37 C158.67 37.66 158.34 38.32 158 39 C157.01 39.33 156.02 39.66 155 40 C155.165 38.9275 155.33 37.855 155.5 36.75 C156.3352003 30.76189263 156.3352003 30.76189263 155 25 C152.50965614 23.70339566 152.50965614 23.70339566 150 23 C150.99 19.7 151.98 16.4 153 13 C146.68439027 7.21069108 141.08633074 7.22890562 132.75 7.1875 C130.97496094 7.14979492 130.97496094 7.14979492 129.1640625 7.11132812 C125.10889692 7.03050193 121.05589005 7 117 7 C116.97111854 10.31248187 116.95324201 13.62493167 116.9375 16.9375 C116.92493164 18.35579102 116.92493164 18.35579102 116.91210938 19.80273438 C116.90727539 21.15141602 116.90727539 21.15141602 116.90234375 22.52734375 C116.89448853 23.77632446 116.89448853 23.77632446 116.88647461 25.05053711 C116.78356708 27.00516798 116.78356708 27.00516798 118 28 C118.26293056 32.03160191 118.29404844 33.55892734 116 37 C113.875 37.6875 113.875 37.6875 112 38 C113.75 34.125 113.75 34.125 116 33 C115.89171875 31.86111328 115.89171875 31.86111328 115.78125 30.69921875 C115.6884375 29.70535156 115.595625 28.71148437 115.5 27.6875 C115.4071875 26.70136719 115.314375 25.71523437 115.21875 24.69921875 C115 22 115 22 115 19 C114.34 19 113.68 19 113 19 C113.556875 17.63875 113.556875 17.63875 114.125 16.25 C115.25131743 13.16467339 115.25131743 13.16467339 114.375 10.75 C112.21694327 8.00338235 109.96584178 7.12449559 106.52636719 6.68115234 C105.62563477 6.64973145 104.72490234 6.61831055 103.796875 6.5859375 C102.8171875 6.54726562 101.8375 6.50859375 100.828125 6.46875 C99.30445313 6.42234375 99.30445313 6.42234375 97.75 6.375 C96.203125 6.31699219 96.203125 6.31699219 94.625 6.2578125 C92.0835106 6.16368326 89.54202567 6.07805021 87 6 C87.495 6.99 87.495 6.99 88 8 C88.66 8 89.32 8 90 8 C90.67228569 12.48190462 91.12701027 15.63283522 90 20 C90.29235267 22.33882138 90.62599214 24.67284 91 27 C91 28.32 91 29.64 91 31 C90.01 30.01 90.01 30.01 89 29 C89.2784375 27.824375 89.2784375 27.824375 89.5625 26.625 C90.29178752 23.94859806 90.29178752 23.94859806 88.6875 21.6875 C88.130625 21.130625 87.57375 20.57375 87 20 C86.34 20 85.68 20 85 20 C85.680625 19.443125 86.36125 18.88625 87.0625 18.3125 C89.25510881 16.18317288 89.25510881 16.18317288 89.0625 13.5 C87.56544541 9.97751862 86.33969805 8.96356171 83 7 C79.03453696 6.4431461 75.1217931 6.53050618 71.125 6.625 C70.0119751 6.63789063 68.8989502 6.65078125 67.75219727 6.6640625 C59.38070792 6.81952868 51.23850267 7.4996548 43 9 C43.04253906 10.093125 43.08507812 11.18625 43.12890625 12.3125 C43 16 43 16 40.9375 19 C38.43457181 22.87550172 39.20915027 24.57124149 40 29 C39.125 32.1875 39.125 32.1875 38 35 C37.65023242 36.32911682 37.30903983 37.66082739 37 39 C35.79371992 36.66785852 34.8345262 34.50357861 34 32 C34.639375 31.7525 35.27875 31.505 35.9375 31.25 C38.12493715 30.18550582 38.12493715 30.18550582 38.875 28.125 C39.02904228 25.50628117 38.24534014 24.27091436 37 22 C37 21.01 37 20.02 37 19 C39 17.3125 39 17.3125 41 16 C40.81171228 13.55519921 40.81171228 13.55519921 40 11 C36.96969085 8.99095526 34.40823739 8.73084337 30.82421875 8.65625 C29.83099609 8.62660156 28.83777344 8.59695312 27.81445312 8.56640625 C26.26661133 8.53353516 26.26661133 8.53353516 24.6875 8.5 C8.56797015 8.15378142 8.56797015 8.15378142 4.0625 4.375 C3.711875 3.92125 3.36125 3.4675 3 3 Z " fill="#111111" transform="translate(428,216)"/>
<path d="M0 0 C2.38564077 0.57584432 4.66682784 1.22227595 7 2 C8.89212737 2.22179785 10.78884472 2.40614015 12.6875 2.5625 C13.68136719 2.64628906 14.67523438 2.73007813 15.69921875 2.81640625 C16.83810547 2.90728516 16.83810547 2.90728516 18 3 C18.33 2.01 18.66 1.02 19 0 C20.47906892 -0.02689216 21.95827483 -0.04634621 23.4375 -0.0625 C24.26121094 -0.07410156 25.08492187 -0.08570313 25.93359375 -0.09765625 C28 0 28 0 29 1 C31.64738089 1.09511266 34.26859001 1.12555635 36.91625977 1.11352539 C37.74545929 1.11367142 38.57465881 1.11381744 39.4289856 1.1139679 C42.18315198 1.11326851 44.93725161 1.10547493 47.69140625 1.09765625 C49.59569766 1.09579216 51.49998955 1.09436822 53.40428162 1.09336853 C58.42667963 1.08954263 63.44904892 1.07971173 68.47143555 1.06866455 C73.5922812 1.05845198 78.71313148 1.05387124 83.83398438 1.04882812 C93.88933557 1.03808953 103.9446654 1.02101224 114 1 C114.495 2.485 114.495 2.485 115 4 C114.030625 4.06316406 113.06125 4.12632812 112.0625 4.19140625 C103.29338809 4.93614084 96.12529098 6.74346215 88.23046875 10.69946289 C83.46925826 13.04523895 83.46925826 13.04523895 80.609375 12.76953125 C79 12 79 12 78 11 C75.32941149 10.85884839 72.67567762 10.95752893 70 11 C68.8899384 15.66225873 69.0546671 18.5974045 71 23 C73.7459726 24.3729863 75.9589047 24.12412634 79 24 C79.99 23.67 80.98 23.34 82 23 C82.33 20.69 82.66 18.38 83 16 C83.86625 15.71382813 84.7325 15.42765625 85.625 15.1328125 C87.75645647 14.41739308 89.88241576 13.6851798 92 12.9296875 C92.99 12.58164062 93.98 12.23359375 95 11.875 C95.99 11.52179688 96.98 11.16859375 98 10.8046875 C101.13049203 9.96499823 103.77450175 9.85600454 107 10 C106.67 10.99 106.34 11.98 106 13 C103.70703125 13.87890625 103.70703125 13.87890625 100.8125 14.5625 C97.64199909 15.3438167 94.59590191 16.13710471 91.5 17.1875 C89 18 89 18 86 18 C85.95875 18.721875 85.9175 19.44375 85.875 20.1875 C84.67456278 24.04604822 82.45742554 26.09725574 79 28 C75.4375 28.6875 75.4375 28.6875 72 28 C67.87101904 24.40958177 66.30457003 21.40860769 65.91796875 15.96484375 C66.05142432 12.76826507 66.66944673 9.33055327 69 7 C73.13570354 6.82401262 76.96427334 7.1241486 81.0625 7.6875 C85.6074994 8.19786412 88.02524218 7.36592728 92 5 C93.32 5 94.64 5 96 5 C96 4.34 96 3.68 96 3 C95.00411865 3.15412354 94.0082373 3.30824707 92.98217773 3.46704102 C89.09421577 4.02028831 85.20490176 4.3124213 81.28515625 4.52734375 C80.55603531 4.56866928 79.82691437 4.60999481 79.07569885 4.65257263 C70.20179397 5.13090197 61.32092313 5.34754309 52.4375 5.5625 C50.7324153 5.605862 49.02733711 5.64948066 47.32226562 5.69335938 C43.21491232 5.79851541 39.10748813 5.90025542 35 6 C35.00725098 6.6177832 35.01450195 7.23556641 35.02197266 7.87207031 C35.0276123 8.68256836 35.03325195 9.49306641 35.0390625 10.328125 C35.04631348 11.1315332 35.05356445 11.93494141 35.06103516 12.76269531 C34.96043718 16.45021478 34.21989865 18.82876752 31.53125 21.41015625 C30.06061604 22.65533925 28.53354454 23.83317263 27 25 C27 22 27 22 28.9375 19.875 C31.66556355 16.07224475 32.4975701 12.67017552 32 8 C29.29077413 4.61346767 27.43248137 4.0850783 23.1875 3.25 C22.135625 3.1675 21.08375 3.085 20 3 C20 3.99 20 4.98 20 6 C13.34656702 6.32194031 7.10348744 5.94275287 1 3 C0.67 2.01 0.34 1.02 0 0 Z " fill="#101010" transform="translate(185,244)"/>
<path d="M0 0 C0 0.99 0 1.98 0 3 C-0.83144531 3.12117187 -1.66289062 3.24234375 -2.51953125 3.3671875 C-3.60621094 3.53476563 -4.69289062 3.70234375 -5.8125 3.875 C-6.89144531 4.03742188 -7.97039062 4.19984375 -9.08203125 4.3671875 C-12.17321793 4.85132338 -12.17321793 4.85132338 -15 7 C-15.61824717 9.12376704 -15.61824717 9.12376704 -15.75 11.5 C-15.82734375 12.2940625 -15.9046875 13.088125 -15.984375 13.90625 C-16.15884436 16.06054111 -16.15884436 16.06054111 -15 18 C-12.14561434 19.77251905 -10.0051311 20.24293044 -6.671875 20.1953125 C-5.87265625 20.18886719 -5.0734375 20.18242187 -4.25 20.17578125 C-3.425 20.15902344 -2.6 20.14226562 -1.75 20.125 C-0.48929688 20.11146484 -0.48929688 20.11146484 0.796875 20.09765625 C2.86470604 20.07415817 4.93238995 20.03828908 7 20 C7 20.99 7 21.98 7 23 C-0.77330715 25.24683004 -9.78979377 24.85072553 -17 21 C-19.8416328 16.73755081 -19.50403317 13.00032912 -19 8 C-17.66028209 4.50184767 -16.48161448 3.34065414 -13.4375 1.1875 C-8.88036758 -0.38678211 -4.77242384 -0.25465503 0 0 Z " fill="#0B0B0B" transform="translate(156,192)"/>
<path d="M0 0 C1.32 0.66 2.64 1.32 4 2 C2.8656185 9.94067053 -2.50728227 15.50728227 -8 21 C-8.66 21.33 -9.32 21.66 -10 22 C-10 18.04 -10 14.08 -10 10 C-9.34 10 -8.68 10 -8 10 C-7.34 11.32 -6.68 12.64 -6 14 C-4.37168238 12.19038423 -4.37168238 12.19038423 -3 10 C-3.33 9.01 -3.66 8.02 -4 7 C-2.35 6.34 -0.7 5.68 1 5 C0.67 3.35 0.34 1.7 0 0 Z " fill="#010101" transform="translate(442,237)"/>
<path d="M0 0 C0 0.66 0 1.32 0 2 C-7.14118894 5.54020643 -12.18785618 6.4346174 -20 5 C-21.37440984 4.80822188 -22.74935155 4.62018169 -24.125 4.4375 C-25.07375 4.293125 -26.0225 4.14875 -27 4 C-26.015625 2.54296875 -26.015625 2.54296875 -24 1 C-21.18686612 0.61771728 -18.57177583 0.3969121 -15.75 0.3125 C-15.01136719 0.27833984 -14.27273438 0.24417969 -13.51171875 0.20898438 C-9.00584992 0.01428634 -4.50952881 -0.02982493 0 0 Z " fill="#D4D4D4" transform="translate(281,247)"/>
<path d="M0 0 C0.66 0.33 1.32 0.66 2 1 C1.319375 1.845625 0.63875 2.69125 -0.0625 3.5625 C-2.43065395 7.76406347 -1.82658451 9.37112672 -1 14 C-1.875 17.1875 -1.875 17.1875 -3 20 C-3.34976758 21.32911682 -3.69096017 22.66082739 -4 24 C-4.99 24 -5.98 24 -7 24 C-7 23.01 -7 22.02 -7 21 C-7.66 20.34 -8.32 19.68 -9 19 C-8.13375 18.154375 -7.2675 17.30875 -6.375 16.4375 C-4.93020894 14.85540789 -4.93020894 14.85540789 -4 13 C-4.53219091 9.17352608 -4.53219091 9.17352608 -6 6 C-4.02 4.02 -2.04 2.04 0 0 Z " fill="#000000" transform="translate(470,231)"/>
<path d="M0 0 C2.85423192 -0.02718316 5.70820015 -0.04692705 8.5625 -0.0625 C9.36236328 -0.07087891 10.16222656 -0.07925781 10.98632812 -0.08789062 C15.77163104 -0.10742247 20.28145051 0.19562982 25 1 C25 1.99 25 2.98 25 4 C24.06994141 3.89171875 24.06994141 3.89171875 23.12109375 3.78125 C15.05200562 2.93558138 7.10374993 2.90157389 -1 3 C-0.67 2.01 -0.34 1.02 0 0 Z " fill="#1A1A1A" transform="translate(142,228)"/>
<path d="M0 0 C1.65 0.33 3.3 0.66 5 1 C5.90594807 3.61718331 5.98235878 5.10143704 5.5 7.875 C4.96376636 11.22646028 5.41081278 13.68582189 6 17 C5.67 17.99 5.34 18.98 5 20 C4.01 19.67 3.02 19.34 2 19 C2.2475 18.4225 2.495 17.845 2.75 17.25 C2.8325 16.5075 2.915 15.765 3 15 C1.14567913 12.72855926 1.14567913 12.72855926 -1 11 C0.33333333 8.33333333 1.66666667 5.66666667 3 3 C2.01 2.67 1.02 2.34 0 2 C0 1.34 0 0.68 0 0 Z " fill="#000000" transform="translate(564,256)"/>
<path d="M0 0 C-0.33 0.99 -0.66 1.98 -1 3 C-3.2578125 3.87890625 -3.2578125 3.87890625 -6.125 4.5625 C-7.11371094 4.80742187 -8.10242188 5.05234375 -9.12109375 5.3046875 C-10.07113281 5.53414063 -11.02117187 5.76359375 -12 6 C-13.39825062 6.38720786 -14.79462914 6.78136517 -16.1875 7.1875 C-17.115625 7.455625 -18.04375 7.72375 -19 8 C-18.85546875 6.140625 -18.85546875 6.140625 -18 4 C-15.48828125 2.734375 -15.48828125 2.734375 -12.3125 1.75 C-11.27738281 1.41484375 -10.24226563 1.0796875 -9.17578125 0.734375 C-5.99908308 -0.00021203 -3.24736123 -0.13632101 0 0 Z " fill="#272727" transform="translate(292,254)"/>
<path d="M0 0 C5.61 0 11.22 0 17 0 C16.67 0.99 16.34 1.98 16 3 C10.39 3 4.78 3 -1 3 C-0.67 2.01 -0.34 1.02 0 0 Z " fill="#1D1D1D" transform="translate(257,245)"/>
<path d="M0 0 C0.66 0.33 1.32 0.66 2 1 C1.814375 1.515625 1.62875 2.03125 1.4375 2.5625 C0.83752918 5.1713937 0.83752918 5.1713937 1.5 8.5 C1.93772143 11.56405002 2.02210188 13.16082812 1 16 C0.01 15.67 -0.98 15.34 -2 15 C-1.773125 14.113125 -1.54625 13.22625 -1.3125 12.3125 C-0.94548054 8.42209376 -1.73118159 7.08559304 -4 4 C-2.68 2.68 -1.36 1.36 0 0 Z " fill="#000000" transform="translate(518,231)"/>
<path d="M0 0 C0.91007813 0.00902344 1.82015625 0.01804688 2.7578125 0.02734375 C3.45648438 0.03894531 4.15515625 0.05054688 4.875 0.0625 C4.875 1.0525 4.875 2.0425 4.875 3.0625 C0.585 3.7225 -3.705 4.3825 -8.125 5.0625 C-7.795 3.7425 -7.465 2.4225 -7.125 1.0625 C-4.60024538 -0.19987731 -2.81299534 -0.03606404 0 0 Z " fill="#1A1A1A" transform="translate(151.125,191.9375)"/>
<path d="M0 0 C1.58246707 -0.08153933 3.16616273 -0.13943557 4.75 -0.1875 C6.07257813 -0.23970703 6.07257813 -0.23970703 7.421875 -0.29296875 C10 0 10 0 14 3 C9.38 3 4.76 3 0 3 C0 2.01 0 1.02 0 0 Z " fill="#272727" transform="translate(299,227)"/>
<path d="M0 0 C0.53109375 0.13277344 1.0621875 0.26554688 1.609375 0.40234375 C2.79273438 0.69818359 2.79273438 0.69818359 4 1 C6.08333333 1.52083333 8.16666667 2.04166667 10.25 2.5625 C11.86648437 2.96662109 11.86648437 2.96662109 13.515625 3.37890625 C14.33546875 3.58386719 15.1553125 3.78882813 16 4 C16 4.33 16 4.66 16 5 C9.86946489 5.32712342 5.37330889 5.39366878 0 2 C0 1.34 0 0.68 0 0 Z " fill="#010101" transform="translate(185,244)"/>
<path d="M0 0 C1.85772162 0.08984301 3.71247985 0.24611861 5.5625 0.4375 C7.08037109 0.59025391 7.08037109 0.59025391 8.62890625 0.74609375 C9.80259766 0.87177734 9.80259766 0.87177734 11 1 C11 1.99 11 2.98 11 4 C2.42857143 3.14285714 2.42857143 3.14285714 -1 1 C-0.67 0.67 -0.34 0.34 0 0 Z " fill="#0C0C0C" transform="translate(156,228)"/>
<path d="M0 0 C0 0.99 0 1.98 0 3 C-2.97 3.66 -5.94 4.32 -9 5 C-8.67 3.68 -8.34 2.36 -8 1 C-5.29120665 -0.35439668 -2.99066732 -0.06501451 0 0 Z " fill="#161616" transform="translate(138,173)"/>
<path d="M0 0 C0.66 0.33 1.32 0.66 2 1 C1 4 1 4 -0.84765625 4.94921875 C-1.57855469 5.19285156 -2.30945313 5.43648437 -3.0625 5.6875 C-4.16271484 6.06455078 -4.16271484 6.06455078 -5.28515625 6.44921875 C-5.85105469 6.63097656 -6.41695313 6.81273437 -7 7 C-6.68359375 5.11328125 -6.68359375 5.11328125 -6 3 C-3.0625 1.1875 -3.0625 1.1875 0 0 Z " fill="#1D1D1D" transform="translate(277,249)"/>
<path d="M0 0 C1.65 0 3.3 0 5 0 C4.67 1.32 4.34 2.64 4 4 C2.68 4 1.36 4 0 4 C0 2.68 0 1.36 0 0 Z " fill="#020202" transform="translate(132,189)"/>
<path d="M0 0 C0.33 0 0.66 0 1 0 C1 2.97 1 5.94 1 9 C0.01 9 -0.98 9 -2 9 C-1.125 1.125 -1.125 1.125 0 0 Z " fill="#000000" transform="translate(602,255)"/>
<path d="M0 0 C1.98 0 3.96 0 6 0 C5.67 0.99 5.34 1.98 5 3 C3.02 3 1.04 3 -1 3 C-0.67 2.01 -0.34 1.02 0 0 Z " fill="#1B1B1B" transform="translate(286,254)"/>
<path d="M0 0 C1.32 0 2.64 0 4 0 C4 1.32 4 2.64 4 4 C2.35 3.67 0.7 3.34 -1 3 C-0.67 2.01 -0.34 1.02 0 0 Z " fill="#151515" transform="translate(177,188)"/>
</svg>
