<?xml version="1.0" encoding="UTF-8"?>
<svg version="1.1" xmlns="http://www.w3.org/2000/svg" width="800" height="300">
<path d="M0 0 C264 0 528 0 800 0 C800 99 800 198 800 300 C536 300 272 300 0 300 C0 201 0 102 0 0 Z " fill="#FEFEFE" transform="translate(0,0)"/>
<path d="M0 0 C5.87711622 -0.48975968 10.09611773 0.62928552 15 4 C17 7 17 7 18 12 C30.375 11.505 30.375 11.505 43 11 C43.33 9.02 43.66 7.04 44 5 C46.08177525 1.91091414 47.5970943 0.29434908 51.30859375 -0.484375 C56.44517768 -0.76583165 60.54280949 -0.13036211 64.59375 3.15625 C67.43338128 6.87932213 68.16774798 11.47413424 69 16 C69.66 16 70.32 16 71 16 C72.91847864 18.87771795 74.50079488 21.88626628 76 25 C76.66 25 77.32 25 78 25 C78.79556657 26.70652065 79.5862638 28.4153117 80.375 30.125 C80.81585938 31.07632813 81.25671875 32.02765625 81.7109375 33.0078125 C84.18079543 38.74087668 85.29953057 43.70525909 85.5 49.9375 C85.67179488 55.24798295 86.07812561 60.02833151 88 65 C91.47957529 66.47082547 91.47957529 66.47082547 95 67 C95.33 67.33 95.66 67.66 96 68 C97.155 68.165 98.31 68.33 99.5 68.5 C103 69 103 69 104 70 C107.26991731 70.52046683 110.57870117 70.75853802 113.875 71.0625 C114.77992188 71.15337891 115.68484375 71.24425781 116.6171875 71.33789062 C126.1841175 72.24158501 135.47731597 72.13151193 145.04394531 71.28735352 C192.03260372 67.15636674 192.03260372 67.15636674 208 75 C208.13019531 74.06929688 208.26039063 73.13859375 208.39453125 72.1796875 C209.12457977 68.34575528 210.13170235 66.63573298 213 64 C216 63.375 216 63.375 219 64 C221.375 65.9375 221.375 65.9375 223 69 C223.10728098 71.35605528 222.99871002 73.64954998 222.875 76.00390625 C222.91625 76.66261719 222.9575 77.32132812 223 78 C224.31337396 79.0260734 225.64664105 80.02727325 227 81 C227.35948527 84.77459531 227.2732868 87.70188769 226.5 91.375 C223.20743508 94.94194533 217.4523177 95.11818352 212.8125 95.375 C208.93933109 95.30278838 205.8307689 94.3437007 202.1875 93.0625 C193.34187901 90.08236817 184.25885586 90.18462325 175 90 C175.64219502 91.98035021 176.28885644 93.95925256 176.9375 95.9375 C177.29714844 97.03964844 177.65679687 98.14179688 178.02734375 99.27734375 C178.73856668 101.88123475 178.73856668 101.88123475 180 103 C182.25543624 103.24261665 184.50945523 103.38332133 186.7734375 103.5234375 C189.48949551 104.10476921 190.39924985 104.7418885 192 107 C192.94239319 111.17867366 192.93786082 115.31497673 190.828125 119.10546875 C187.06342205 123.65610195 183.43445379 126.6087485 177.5 127.5625 C174 127 174 127 171.0625 124.4375 C168.58491231 121.00137019 168.5328977 118.20392074 169 114 C169.23074219 113.35804688 169.46148437 112.71609375 169.69921875 112.0546875 C170.22178628 109.90491174 170.22178628 109.90491174 168.85546875 107.859375 C168.30503906 107.16328125 167.75460937 106.4671875 167.1875 105.75 C166.64480469 105.04359375 166.10210937 104.3371875 165.54296875 103.609375 C164.77919922 102.81273437 164.77919922 102.81273437 164 102 C163.34 102 162.68 102 162 102 C160.43802886 103.71641978 158.94860958 105.49938639 157.5 107.3125 C156.7059375 108.29863281 155.911875 109.28476562 155.09375 110.30078125 C152.94750264 113.00109783 152.94750264 113.00109783 151 116 C151.20625 116.61875 151.4125 117.2375 151.625 117.875 C152 120 152 120 150.1875 122.6875 C147.62906678 125.3921294 146.78782499 125.89724022 143.125 126.375 C137.37207306 126.35057144 132.12307278 123.35543576 127 121 C126.58331531 116.74981621 126.55977918 114.64657432 129 111.0625 C133.03031789 108.29165645 135.19839142 108.59308402 140 109 C140.24492187 108.30519531 140.48984375 107.61039062 140.7421875 106.89453125 C142.20250025 103.53399786 144.06281778 100.71425133 146.125 97.6875 C146.84945312 96.61886719 147.57390625 95.55023438 148.3203125 94.44921875 C149.15175781 93.23685547 149.15175781 93.23685547 150 92 C148.7944043 92.16226074 147.58880859 92.32452148 146.34667969 92.49169922 C140.05308171 93.18671375 133.77842176 93.14326298 127.453125 93.1328125 C126.16492859 93.13376923 124.87673218 93.13472595 123.54949951 93.13571167 C120.83311756 93.13717779 118.1167687 93.13507068 115.40039062 93.13037109 C111.95706137 93.12469739 108.5138105 93.12794478 105.07048416 93.13394356 C101.73969191 93.13847643 98.40891946 93.13527891 95.078125 93.1328125 C93.86102844 93.13483673 92.64393188 93.13686096 91.38995361 93.13894653 C84.5140904 93.1204411 77.72828118 92.83326815 70.87867737 92.22361755 C66.47915533 91.88185978 62.09732281 91.89115586 57.6875 91.9375 C56.83994141 91.94201172 55.99238281 91.94652344 55.11914062 91.95117188 C53.0793947 91.96269586 51.03968637 91.98061544 49 92 C50.26566466 97.22802185 51.62781159 102.15701026 54 107 C56.43313888 108.42556419 58.04825333 108.59704912 60.8359375 108.76953125 C63 109 63 109 66.125 111.3125 C68 114 68 114 67.9140625 116.44140625 C66.71702906 119.79207677 65.21143829 120.70619827 62.25 122.625 C61.38890625 123.19476563 60.5278125 123.76453125 59.640625 124.3515625 C58.76921875 124.89554687 57.8978125 125.43953125 57 126 C56.16210938 126.55945313 55.32421875 127.11890625 54.4609375 127.6953125 C51.81547589 129.09782707 50.33369631 129.35167341 47.375 129.25 C46.61960937 129.23453125 45.86421875 129.2190625 45.0859375 129.203125 C43 129 43 129 40 128 C37.52657734 124.28986601 37.61496514 122.38939738 38 118 C39.51953125 115.77734375 39.51953125 115.77734375 41 114 C40.4225 113.22914063 39.845 112.45828125 39.25 111.6640625 C38.5075 110.66117187 37.765 109.65828125 37 108.625 C36.2575 107.62726563 35.515 106.62953125 34.75 105.6015625 C33 103 33 103 33 101 C28.98052572 102.5162749 27.37553539 104.94379267 25 108.4375 C21.38806972 113.73546804 21.38806972 113.73546804 18.7421875 115.5390625 C18.16726562 116.02117187 17.59234375 116.50328125 17 117 C16.74137153 119.38601555 16.74137153 119.38601555 17.125 121.9375 C17.29804835 126.67902485 17.29804835 126.67902485 14.5625 129.625 C9.38914377 131.62173398 4.99594549 132.09595271 -0.28515625 130.1640625 C-3.30227336 128.70752321 -5.62027058 127.37972942 -8 125 C-8.68530813 121.57345936 -8.69462485 118.42466203 -8 115 C-5.60970207 111.77418759 -2.61077652 110.36977826 1.24609375 109.484375 C3.15342363 109.2259845 5.07790765 109.10116276 7 109 C7.3403125 107.824375 7.3403125 107.824375 7.6875 106.625 C9.40660933 101.87698375 11.68084721 97.47897448 14 93 C12.89205078 92.92652344 12.89205078 92.92652344 11.76171875 92.8515625 C-10.33346142 91.22320106 -10.33346142 91.22320106 -16 85 C-23.83976695 74.39211781 -28.00270443 58.87392928 -27.42578125 45.76953125 C-26.78320155 41.58981561 -25.31889839 38.49433998 -23 35 C-22.38125 33.9275 -21.7625 32.855 -21.125 31.75 C-18.71737257 28.63424685 -16.3344341 27.06734914 -13 25 C-11.94625715 24.11840326 -10.9044393 23.22235797 -9.875 22.3125 C-7.22098673 20.1777502 -6.16696335 19.61844134 -3 19 C-3.05220703 17.82244141 -3.05220703 17.82244141 -3.10546875 16.62109375 C-3.27019021 10.22833246 -3.07880961 5.64448429 0 0 Z " fill="#F9F9F9" transform="translate(120,156)"/>
<path d="M0 0 C2.8125 -0.1875 2.8125 -0.1875 6 0 C7 1 8 2 9 3 C15.47083003 5.07525149 21.41141432 5.24994212 28.16796875 5.16015625 C29.2571611 5.15463745 30.34635345 5.14911865 31.46855164 5.14343262 C33.8178252 5.13109227 36.16707948 5.11448167 38.51629639 5.09402466 C44.77770738 5.04025787 51.03917966 5.01861565 57.30078125 5 C59.23244141 4.9937838 59.23244141 4.9937838 61.203125 4.98744202 C77.41229646 4.95866797 93.61370822 5.33435472 109.81713867 5.73266602 C110.89429642 5.75735962 111.97145416 5.78205322 113.08125305 5.80749512 C115.09527242 5.85391321 117.10919602 5.90477372 119.12297058 5.96081543 C120.44631157 5.99096741 120.44631157 5.99096741 121.79638672 6.02172852 C122.56457733 6.04171402 123.33276794 6.06169952 124.12423706 6.08229065 C126.0924287 6.12361173 126.0924287 6.12361173 128 5 C131.03566911 4.76089183 134.08095166 4.81479913 137.125 4.8125 C138.37023437 4.79413086 138.37023437 4.79413086 139.640625 4.77539062 C146.3283327 4.75966717 153.1906553 5.34226445 159 9 C159.42667969 9.46148437 159.85335937 9.92296875 160.29296875 10.3984375 C162.9975484 12.93591497 166.33120593 14.35011728 169.625 16.01171875 C174.01917804 19.69039741 174.99427916 24.83672162 175.6171875 30.3671875 C175.72209306 31.86858663 175.80765993 33.37144759 175.875 34.875 C175.91254395 35.66366455 175.95008789 36.4523291 175.98876953 37.26489258 C176.27663329 46.52514559 174.29214193 54.04285919 168 61 C162.69554711 66.38085279 158.19286413 67.70523678 150.71362305 67.88330078 C149.57062744 67.88056152 148.42763184 67.87782227 147.25 67.875 C146.0535083 67.8941748 144.8570166 67.91334961 143.62426758 67.93310547 C140.0824586 67.98283335 136.54211111 67.99384427 133 68 C131.18616451 68.02360067 129.37235524 68.04939485 127.55859375 68.078125 C114.02532285 68.24209193 100.1544274 68.25064747 86.72265625 66.47265625 C78.59603524 65.44083973 70.49840803 65.91088485 62.375 66.78125 C56.14473547 67.35509015 49.86288457 66.66520367 43.63769531 66.25537109 C41.63908688 66.12591247 39.63984991 66.00628024 37.640625 65.88671875 C36.36960937 65.80292969 35.09859375 65.71914063 33.7890625 65.6328125 C32.63100098 65.55949707 31.47293945 65.48618164 30.27978516 65.41064453 C26.94747647 64.99342381 24.14301003 64.16096136 21 63 C19.865625 62.62875 18.73125 62.2575 17.5625 61.875 C10.70420537 58.84035636 6.45523899 52.07424207 3.69140625 45.35546875 C2.95117812 42.83367463 2.71897532 40.55745849 2.5625 37.9375 C2.27383191 33.27551038 0.83709453 30.65071581 -1.7890625 26.86328125 C-4.96470506 21.97688932 -6.0453083 15.71367548 -5 10 C-3.57222581 6.52259876 -1.86966857 3.25856521 0 0 Z " fill="#646464" transform="translate(429,216)"/>
<path d="M0 0 C5.87711622 -0.48975968 10.09611773 0.62928552 15 4 C17.29013653 7.4352048 17.17842973 8.985331 17 13 C16.34 13 15.68 13 15 13 C14.814375 11.906875 14.62875 10.81375 14.4375 9.6875 C13.3364902 5.72410335 13.3364902 5.72410335 9.625 4.0625 C5.98983152 2.81248638 5.98983152 2.81248638 2 3 C0.17144572 7.59232335 -0.12514462 10.97358268 0.375 15.875 C0.48585938 17.02742188 0.59671875 18.17984375 0.7109375 19.3671875 C0.80632812 20.23601562 0.90171875 21.10484375 1 22 C-0.258125 22.28875 -1.51625 22.5775 -2.8125 22.875 C-12.10118333 26.00057591 -19.01520518 33.68428179 -23.29296875 42.28515625 C-25.51504599 50.8174418 -23.06749883 58.13720195 -20.25 66.25 C-19.90195313 67.3121875 -19.55390625 68.374375 -19.1953125 69.46875 C-17.05276508 75.78529721 -15.1920553 80.59359686 -9.73046875 84.7109375 C-6.34180395 86.31073633 -2.97884478 87.01235275 0.6875 87.625 C1.39068359 87.74979736 2.09386719 87.87459473 2.81835938 88.00317383 C8.18821971 88.93034838 13.56198003 89.62090726 19 90 C19.33 90.99 19.66 91.98 20 93 C18.68 93 17.36 93 16 93 C15.88785156 93.51304687 15.77570313 94.02609375 15.66015625 94.5546875 C11.66706084 109.34567995 11.66706084 109.34567995 7.03515625 112.21875 C5 112.625 5 112.625 2.96875 112.8046875 C-0.46284582 113.14512359 -2.50140123 114.75126111 -5 117 C-5.50169415 120.16926564 -5.50169415 120.16926564 -5 123 C0.27469741 126.59128334 4.56751271 128.12666783 11 127 C11.66 126.34 12.32 125.68 13 125 C13.02253443 122.55036823 13.02253443 122.55036823 12.625 119.875 C12.51414063 118.96492188 12.40328125 118.05484375 12.2890625 117.1171875 C12.19367188 116.41851562 12.09828125 115.71984375 12 115 C12.81404297 114.54560547 12.81404297 114.54560547 13.64453125 114.08203125 C18.07710809 111.48637814 20.58333049 109.62319385 23 105 C25.27210836 101.95167362 27.63374922 98.9756414 30 96 C31.82421875 96.21484375 31.82421875 96.21484375 34 97 C35.45703125 99.00390625 35.45703125 99.00390625 36.8125 101.5625 C39.33260141 106.07283534 42.16256842 109.63242097 45.77734375 113.30859375 C46.18082031 113.86675781 46.58429688 114.42492187 47 115 C46.505 116.485 46.505 116.485 46 118 C43.9375 118.6875 43.9375 118.6875 42 119 C41.957279 120.66611905 41.95936168 122.33382885 42 124 C43.22820201 125.42759955 43.22820201 125.42759955 46.875 125.5625 C53.4395209 125.54135823 58.456703 121.44139127 63 117 C63 116.01 63 115.02 63 114 C60.70370006 112.85185003 58.92301914 112.69230191 56.375 112.4375 C55.14910156 112.31181641 55.14910156 112.31181641 53.8984375 112.18359375 C53.27195312 112.12300781 52.64546875 112.06242187 52 112 C51.608125 110.9275 51.21625 109.855 50.8125 108.75 C49.03313309 103.99083203 47.06328071 99.31643102 45.0859375 94.63671875 C44.32299233 92.78424396 43.63354149 90.90062446 43 89 C44.57484437 87.42515563 46.14125405 87.87021162 48.328125 87.8671875 C49.25834473 87.86525391 50.18856445 87.86332031 51.14697266 87.86132812 C52.17097168 87.86583984 53.1949707 87.87035156 54.25 87.875 C55.31395996 87.87693359 56.37791992 87.87886719 57.47412109 87.88085938 C65.86494347 87.92452998 74.2406285 88.18207753 82.625 88.5 C99.5768368 89.13704426 116.39273898 89.22463966 133.33618164 88.3581543 C140.23353588 88.00884947 147.09281193 87.88270813 154 88 C154.33 88.66 154.66 89.32 155 90 C154.64695801 90.48879639 154.29391602 90.97759277 153.93017578 91.48120117 C152.32301736 93.71277843 150.7239655 95.95004599 149.125 98.1875 C148.56941406 98.95642578 148.01382813 99.72535156 147.44140625 100.51757812 C144.22554109 104.99073823 144.22554109 104.99073823 141.9375 109.96875 C141 112 141 112 138.6171875 112.92578125 C137.71226562 113.05339844 136.80734375 113.18101562 135.875 113.3125 C134.96492187 113.45300781 134.05484375 113.59351563 133.1171875 113.73828125 C132.41851562 113.82464844 131.71984375 113.91101563 131 114 C130.67 115.65 130.34 117.3 130 119 C135.10334017 120.905247 139.46342706 122.42589023 145 122 C146.21690533 120.23470405 146.21690533 120.23470405 147 118 C146.10318584 115.87269715 146.10318584 115.87269715 145 114 C145.50789062 113.6596875 146.01578125 113.319375 146.5390625 112.96875 C153.13467158 108.32465072 158.53838915 102.87715472 161 95 C161.99 95 162.98 95 164 95 C165.6484375 97.01171875 165.6484375 97.01171875 167.375 99.6875 C169.37438331 102.68657496 171.24720294 105.46248183 173.875 107.9375 C176 110 176 110 177 113 C175.02 114.485 175.02 114.485 173 116 C173.27540704 119.81813447 173.27540704 119.81813447 175 123 C178.49734228 122.61140641 181.65788261 122.11403913 185 121 C186.1500831 119.03327085 186.1500831 119.03327085 187 117 C187.33 116.67 187.66 116.34 188 116 C188.04092937 113.66702567 188.04241723 111.33294775 188 109 C187.33613281 109.020625 186.67226563 109.04125 185.98828125 109.0625 C178.98337186 108.89888168 178.98337186 108.89888168 176.36328125 106.50390625 C175.01602861 104.39165211 173.98978303 102.30199539 173 100 C172.5978125 99.12601562 172.195625 98.25203125 171.78125 97.3515625 C168.82213376 90.53359873 168.82213376 90.53359873 170 87 C182.14756627 86.58837909 193.08425285 86.44479404 204.7578125 90.09765625 C210.73610915 91.76149544 216.35289914 91.98617483 222.1875 89.8125 C224.20008168 88.1107595 224.20008168 88.1107595 224.625 85.5 C224.41875 84.675 224.2125 83.85 224 83 C223.175 82.62875 222.35 82.2575 221.5 81.875 C220.675 81.25625 219.85 80.6375 219 80 C218.53322527 76.3042424 218.71678182 72.7070113 219 69 C217.68 68.34 216.36 67.68 215 67 C211.77806038 71.60823232 211.77806038 71.60823232 211.25 76.9375 C211.62125 77.9584375 211.62125 77.9584375 212 79 C207.33193605 78.65421749 203.85456952 78.02116031 199.640625 75.9765625 C192.89673444 73.21493249 186.31583988 73.48412399 179.125 73.625 C177.74235721 73.63873852 176.35970703 73.65175243 174.97705078 73.6640625 C165.63539835 73.78329489 156.41815419 74.46868628 147.140625 75.546875 C129.26029935 77.60189885 101.59176999 77.25424646 86 67 C83.01328407 61.84229486 82.48735013 57.05030751 82.0625 51.1875 C80.89372886 38.71175346 76.64315343 27.53048188 67 19 C66.67 19.66 66.34 20.32 66 21 C65.01 21 64.02 21 63 21 C63.09539062 20.25234375 63.19078125 19.5046875 63.2890625 18.734375 C63.39992188 17.74953125 63.51078125 16.7646875 63.625 15.75 C63.79902344 14.28820312 63.79902344 14.28820312 63.9765625 12.796875 C64.00157515 9.81203245 63.66859484 8.4429101 62 6 C57.97361204 3.43775311 54.7703431 2.25794663 50 3 C46.24198058 6.23967191 46.75626381 8.70615331 46 14 C37.42 14.33 28.84 14.66 20 15 C20 14.34 20 13.68 20 13 C22.7902667 12.0699111 24.76529542 11.81301231 27.66796875 11.68359375 C28.56064453 11.64169922 29.45332031 11.59980469 30.37304688 11.55664062 C31.30181641 11.51732422 32.23058594 11.47800781 33.1875 11.4375 C34.12787109 11.39431641 35.06824219 11.35113281 36.03710938 11.30664062 C38.35792854 11.20061335 40.67885325 11.09854971 43 11 C43.12503906 10.06929687 43.25007813 9.13859375 43.37890625 8.1796875 C44.21960233 3.87574654 45.39982205 2.49808266 49 0 C53.92610476 -1.03356513 58.53727356 -0.73794972 62.9375 1.8125 C67.30648525 5.35714841 68.02642483 10.70560549 69 16 C69.66 16 70.32 16 71 16 C72.91847864 18.87771795 74.50079488 21.88626628 76 25 C76.66 25 77.32 25 78 25 C78.79556657 26.70652065 79.5862638 28.4153117 80.375 30.125 C80.81585938 31.07632813 81.25671875 32.02765625 81.7109375 33.0078125 C84.18079543 38.74087668 85.29953057 43.70525909 85.5 49.9375 C85.67179488 55.24798295 86.07812561 60.02833151 88 65 C91.47957529 66.47082547 91.47957529 66.47082547 95 67 C95.33 67.33 95.66 67.66 96 68 C97.155 68.165 98.31 68.33 99.5 68.5 C103 69 103 69 104 70 C107.26991731 70.52046683 110.57870117 70.75853802 113.875 71.0625 C114.77992188 71.15337891 115.68484375 71.24425781 116.6171875 71.33789062 C126.1841175 72.24158501 135.47731597 72.13151193 145.04394531 71.28735352 C192.03260372 67.15636674 192.03260372 67.15636674 208 75 C208.13019531 74.06929688 208.26039063 73.13859375 208.39453125 72.1796875 C209.12457977 68.34575528 210.13170235 66.63573298 213 64 C216 63.375 216 63.375 219 64 C221.375 65.9375 221.375 65.9375 223 69 C223.10728098 71.35605528 222.99871002 73.64954998 222.875 76.00390625 C222.91625 76.66261719 222.9575 77.32132812 223 78 C224.31337396 79.0260734 225.64664105 80.02727325 227 81 C227.35948527 84.77459531 227.2732868 87.70188769 226.5 91.375 C223.20743508 94.94194533 217.4523177 95.11818352 212.8125 95.375 C208.93933109 95.30278838 205.8307689 94.3437007 202.1875 93.0625 C193.34187901 90.08236817 184.25885586 90.18462325 175 90 C175.64219502 91.98035021 176.28885644 93.95925256 176.9375 95.9375 C177.29714844 97.03964844 177.65679687 98.14179688 178.02734375 99.27734375 C178.73856668 101.88123475 178.73856668 101.88123475 180 103 C182.25543624 103.24261665 184.50945523 103.38332133 186.7734375 103.5234375 C189.48949551 104.10476921 190.39924985 104.7418885 192 107 C192.94239319 111.17867366 192.93786082 115.31497673 190.828125 119.10546875 C187.06342205 123.65610195 183.43445379 126.6087485 177.5 127.5625 C174 127 174 127 171.0625 124.4375 C168.58491231 121.00137019 168.5328977 118.20392074 169 114 C169.23074219 113.35804688 169.46148437 112.71609375 169.69921875 112.0546875 C170.22178628 109.90491174 170.22178628 109.90491174 168.85546875 107.859375 C168.30503906 107.16328125 167.75460937 106.4671875 167.1875 105.75 C166.64480469 105.04359375 166.10210937 104.3371875 165.54296875 103.609375 C164.77919922 102.81273437 164.77919922 102.81273437 164 102 C163.34 102 162.68 102 162 102 C160.43802886 103.71641978 158.94860958 105.49938639 157.5 107.3125 C156.7059375 108.29863281 155.911875 109.28476562 155.09375 110.30078125 C152.94750264 113.00109783 152.94750264 113.00109783 151 116 C151.20625 116.61875 151.4125 117.2375 151.625 117.875 C152 120 152 120 150.1875 122.6875 C147.62906678 125.3921294 146.78782499 125.89724022 143.125 126.375 C137.37207306 126.35057144 132.12307278 123.35543576 127 121 C126.58331531 116.74981621 126.55977918 114.64657432 129 111.0625 C133.03031789 108.29165645 135.19839142 108.59308402 140 109 C140.24492187 108.30519531 140.48984375 107.61039062 140.7421875 106.89453125 C142.20250025 103.53399786 144.06281778 100.71425133 146.125 97.6875 C146.84945312 96.61886719 147.57390625 95.55023438 148.3203125 94.44921875 C149.15175781 93.23685547 149.15175781 93.23685547 150 92 C148.7944043 92.16226074 147.58880859 92.32452148 146.34667969 92.49169922 C140.05308171 93.18671375 133.77842176 93.14326298 127.453125 93.1328125 C126.16492859 93.13376923 124.87673218 93.13472595 123.54949951 93.13571167 C120.83311756 93.13717779 118.1167687 93.13507068 115.40039062 93.13037109 C111.95706137 93.12469739 108.5138105 93.12794478 105.07048416 93.13394356 C101.73969191 93.13847643 98.40891946 93.13527891 95.078125 93.1328125 C93.86102844 93.13483673 92.64393188 93.13686096 91.38995361 93.13894653 C84.5140904 93.1204411 77.72828118 92.83326815 70.87867737 92.22361755 C66.47915533 91.88185978 62.09732281 91.89115586 57.6875 91.9375 C56.83994141 91.94201172 55.99238281 91.94652344 55.11914062 91.95117188 C53.0793947 91.96269586 51.03968637 91.98061544 49 92 C50.26566466 97.22802185 51.62781159 102.15701026 54 107 C56.43313888 108.42556419 58.04825333 108.59704912 60.8359375 108.76953125 C63 109 63 109 66.125 111.3125 C68 114 68 114 67.9140625 116.44140625 C66.71702906 119.79207677 65.21143829 120.70619827 62.25 122.625 C61.38890625 123.19476563 60.5278125 123.76453125 59.640625 124.3515625 C58.76921875 124.89554687 57.8978125 125.43953125 57 126 C56.16210938 126.55945313 55.32421875 127.11890625 54.4609375 127.6953125 C51.81547589 129.09782707 50.33369631 129.35167341 47.375 129.25 C46.61960937 129.23453125 45.86421875 129.2190625 45.0859375 129.203125 C43 129 43 129 40 128 C37.52657734 124.28986601 37.61496514 122.38939738 38 118 C39.51953125 115.77734375 39.51953125 115.77734375 41 114 C40.4225 113.22914063 39.845 112.45828125 39.25 111.6640625 C38.5075 110.66117187 37.765 109.65828125 37 108.625 C36.2575 107.62726563 35.515 106.62953125 34.75 105.6015625 C33 103 33 103 33 101 C28.98052572 102.5162749 27.37553539 104.94379267 25 108.4375 C21.38806972 113.73546804 21.38806972 113.73546804 18.7421875 115.5390625 C18.16726562 116.02117187 17.59234375 116.50328125 17 117 C16.74137153 119.38601555 16.74137153 119.38601555 17.125 121.9375 C17.29804835 126.67902485 17.29804835 126.67902485 14.5625 129.625 C9.38914377 131.62173398 4.99594549 132.09595271 -0.28515625 130.1640625 C-3.30227336 128.70752321 -5.62027058 127.37972942 -8 125 C-8.68530813 121.57345936 -8.69462485 118.42466203 -8 115 C-5.60970207 111.77418759 -2.61077652 110.36977826 1.24609375 109.484375 C3.15342363 109.2259845 5.07790765 109.10116276 7 109 C7.3403125 107.824375 7.3403125 107.824375 7.6875 106.625 C9.40660933 101.87698375 11.68084721 97.47897448 14 93 C12.89205078 92.92652344 12.89205078 92.92652344 11.76171875 92.8515625 C-10.33346142 91.22320106 -10.33346142 91.22320106 -16 85 C-23.83976695 74.39211781 -28.00270443 58.87392928 -27.42578125 45.76953125 C-26.78320155 41.58981561 -25.31889839 38.49433998 -23 35 C-22.38125 33.9275 -21.7625 32.855 -21.125 31.75 C-18.71737257 28.63424685 -16.3344341 27.06734914 -13 25 C-11.94625715 24.11840326 -10.9044393 23.22235797 -9.875 22.3125 C-7.22098673 20.1777502 -6.16696335 19.61844134 -3 19 C-3.05220703 17.82244141 -3.05220703 17.82244141 -3.10546875 16.62109375 C-3.27019021 10.22833246 -3.07880961 5.64448429 0 0 Z " fill="#121212" transform="translate(120,156)"/>
<path d="M0 0 C2.8125 -0.1875 2.8125 -0.1875 6 0 C7 1 8 2 9 3 C15.47083003 5.07525149 21.41141432 5.24994212 28.16796875 5.16015625 C29.2571611 5.15463745 30.34635345 5.14911865 31.46855164 5.14343262 C33.8178252 5.13109227 36.16707948 5.11448167 38.51629639 5.09402466 C44.77770738 5.04025787 51.03917966 5.01861565 57.30078125 5 C59.23244141 4.9937838 59.23244141 4.9937838 61.203125 4.98744202 C77.41229646 4.95866797 93.61370822 5.33435472 109.81713867 5.73266602 C110.89429642 5.75735962 111.97145416 5.78205322 113.08125305 5.80749512 C115.09527242 5.85391321 117.10919602 5.90477372 119.12297058 5.96081543 C120.44631157 5.99096741 120.44631157 5.99096741 121.79638672 6.02172852 C122.56457733 6.04171402 123.33276794 6.06169952 124.12423706 6.08229065 C126.0924287 6.12361173 126.0924287 6.12361173 128 5 C131.03566911 4.76089183 134.08095166 4.81479913 137.125 4.8125 C138.37023437 4.79413086 138.37023437 4.79413086 139.640625 4.77539062 C146.3283327 4.75966717 153.1906553 5.34226445 159 9 C159.42667969 9.46148437 159.85335937 9.92296875 160.29296875 10.3984375 C162.9975484 12.93591497 166.33120593 14.35011728 169.625 16.01171875 C174.01917804 19.69039741 174.99427916 24.83672162 175.6171875 30.3671875 C175.72209306 31.86858663 175.80765993 33.37144759 175.875 34.875 C175.91254395 35.66366455 175.95008789 36.4523291 175.98876953 37.26489258 C176.27663329 46.52514559 174.29214193 54.04285919 168 61 C162.69554711 66.38085279 158.19286413 67.70523678 150.71362305 67.88330078 C149.57062744 67.88056152 148.42763184 67.87782227 147.25 67.875 C146.0535083 67.8941748 144.8570166 67.91334961 143.62426758 67.93310547 C140.0824586 67.98283335 136.54211111 67.99384427 133 68 C131.18616451 68.02360067 129.37235524 68.04939485 127.55859375 68.078125 C114.02532285 68.24209193 100.1544274 68.25064747 86.72265625 66.47265625 C78.59603524 65.44083973 70.49840803 65.91088485 62.375 66.78125 C56.14473547 67.35509015 49.86288457 66.66520367 43.63769531 66.25537109 C41.63908688 66.12591247 39.63984991 66.00628024 37.640625 65.88671875 C36.36960937 65.80292969 35.09859375 65.71914063 33.7890625 65.6328125 C32.63100098 65.55949707 31.47293945 65.48618164 30.27978516 65.41064453 C26.94747647 64.99342381 24.14301003 64.16096136 21 63 C19.865625 62.62875 18.73125 62.2575 17.5625 61.875 C10.70420537 58.84035636 6.45523899 52.07424207 3.69140625 45.35546875 C2.95117812 42.83367463 2.71897532 40.55745849 2.5625 37.9375 C2.27383191 33.27551038 0.83709453 30.65071581 -1.7890625 26.86328125 C-4.96470506 21.97688932 -6.0453083 15.71367548 -5 10 C-3.57222581 6.52259876 -1.86966857 3.25856521 0 0 Z M2 3 C-1.20056327 7.39571031 -3.17210159 11.0337393 -2.6875 16.5703125 C-0.75050496 24.17301803 1.40130732 28.68547017 8 33 C8.309375 32.05125 8.61875 31.1025 8.9375 30.125 C10 27 10 27 11 25 C10.67 24.34 10.34 23.68 10 23 C12.31 23.33 14.62 23.66 17 24 C17 24.66 17 25.32 17 26 C16.401875 26.185625 15.80375 26.37125 15.1875 26.5625 C11.99950687 28.65746692 11.45644444 31.54094446 10 35 C7.8125 36.9375 7.8125 36.9375 6 38 C6.43386428 44.79720708 8.71901136 50.62717707 13.53515625 55.578125 C25.47522139 64.94952365 42.73368679 63.15052382 57 63 C56.98710937 61.8965625 56.97421875 60.793125 56.9609375 59.65625 C57 56 57 56 57.625 53.5 C58.20619921 50.81449175 58.20619921 50.81449175 57 47.5625 C55.9369034 43.77521835 56.32627014 41.78973046 57 38 C56.17657468 35.68019054 56.17657468 35.68019054 55 34 C57.92512762 36.43505389 57.92512762 36.43505389 58.2578125 38.9453125 C58.21398437 39.66460937 58.17015625 40.38390625 58.125 41.125 C57.96429211 45.84675096 58.3919686 50.32341282 59 55 C59.17893286 56.42571265 59.3572786 57.85149906 59.53515625 59.27734375 C59.68855469 60.50582031 59.84195313 61.73429687 60 63 C61.31613281 62.90460938 62.63226563 62.80921875 63.98828125 62.7109375 C80.13303317 61.64939006 80.13303317 61.64939006 87.84765625 63.453125 C102.6439952 66.02002395 120.17962869 66.37125941 135 64 C137.44251927 57.47348346 138.25867587 53.77602761 136 47 C136.9375 44.1875 136.9375 44.1875 138 42 C137.67 41.34 137.34 40.68 137 40 C136.01 40 135.02 40 134 40 C134 39.01 134 38.02 134 37 C135.9375 37.625 135.9375 37.625 138 39 C139.0723094 42.79432556 138.93231135 45.27075458 138 49 C138.165 49.886875 138.33 50.77375 138.5 51.6875 C139.14190299 55.94010731 138.61116813 59.76883603 138 64 C142.67661056 64.08468711 147.17531996 64.1216741 151.8125 63.4375 C155 63 155 63 157.5 63.8125 C160.60164164 64.04512312 161.18668047 63.41175287 163.5625 61.5 C166.91032743 58.34098713 169.11705826 55.18047615 171 51 C171.32226562 50.35546875 171.64453125 49.7109375 171.9765625 49.046875 C175.54148085 40.6770667 173.41424912 31.35760137 170.5625 23 C167.88947491 17.47850029 162.37709586 15.36406801 157 13 C155.91599105 18.7175801 155.91599105 18.7175801 157.25 24.25 C158.42159507 30.10797537 155.88541581 34.90217422 153 40 C152.01 40.66 151.02 41.32 150 42 C150.52851562 41.04738281 151.05703125 40.09476562 151.6015625 39.11328125 C152.27698801 37.84685843 152.95141527 36.57990285 153.625 35.3125 C153.975625 34.68666016 154.32625 34.06082031 154.6875 33.41601562 C156.32195389 30.29420869 157.16831634 28.6373228 156.25 25.16015625 C155.63125 24.09087891 155.63125 24.09087891 155 23 C154.07556986 20.22670957 154.0267192 18.50124151 154.1875 15.5 C154.2816013 12.06955642 154.2816013 12.06955642 152.65625 9.80078125 C148.45579586 6.95312043 144.2592073 7.53860246 139.3125 7.6875 C138.33732422 7.69716797 137.36214844 7.70683594 136.35742188 7.71679688 C131.83867632 7.38617701 131.83867632 7.38617701 128 9 C125.98035801 9.07244053 123.95832876 9.08377188 121.9375 9.0625 C120.83277344 9.05347656 119.72804688 9.04445312 118.58984375 9.03515625 C117.73519531 9.02355469 116.88054687 9.01195312 116 9 C116.01160156 9.61746094 116.02320313 10.23492187 116.03515625 10.87109375 C116.08894661 15.91970297 115.92444046 20.82368002 115.27734375 25.83203125 C115.0915947 27.28401325 114.9381839 28.74047797 114.81640625 30.19921875 C114.44335142 34.31804865 113.90156943 36.97227538 111 40 C111 37.59411466 111.70979414 35.99839035 112.5625 33.75 C113.96505902 29.6916695 113.84584573 27.22922865 113 23 C113.350625 22.01 113.70125 21.02 114.0625 20 C115.41997215 15.65608912 113.96348052 12.92696104 112 9 C104.74 9 97.48 9 90 9 C88.53691078 15.88512576 87.86947155 21.09121505 89 28 C88.67 28.66 88.34 29.32 88 30 C87.34 29.67 86.68 29.34 86 29 C86.495 28.505 86.495 28.505 87 28 C87.13961241 24.92852697 87.04131994 22.20659968 86.4375 19.1875 C86.293125 18.465625 86.14875 17.74375 86 17 C86.33 16.67 86.66 16.34 87 16 C87.04063832 14.33382885 87.042721 12.66611905 87 11 C86.34 11 85.68 11 85 11 C84.505 9.515 84.505 9.515 84 8 C78.21590487 7.97529951 72.43184038 7.95713977 66.64770508 7.94506836 C64.67960068 7.9400365 62.71150003 7.93321042 60.7434082 7.92456055 C57.91616899 7.91244483 55.08897916 7.90676024 52.26171875 7.90234375 C50.93970711 7.89460182 50.93970711 7.89460182 49.59098816 7.88670349 C48.3600518 7.88659019 48.3600518 7.88659019 47.10424805 7.88647461 C46.38254929 7.884254 45.66085052 7.88203339 44.9172821 7.87974548 C42.77773199 7.93174401 42.77773199 7.93174401 40 9 C39.19078631 11.69737896 38.54117383 14.25209793 38 17 C37.7215625 18.2065625 37.7215625 18.2065625 37.4375 19.4375 C36.97731213 21.91344677 36.97731213 21.91344677 36.82421875 24.09375 C36.40332248 29.04547086 35.57856056 32.62765819 33 37 C32.01 37 31.02 37 30 37 C30.639375 36.29875 31.27875 35.5975 31.9375 34.875 C34.20191565 31.71854182 34.59487586 29.80816696 35 26 C35.20625 25.319375 35.4125 24.63875 35.625 23.9375 C36.15393796 21.88232882 36.15393796 21.88232882 35.4375 19.375 C35.293125 18.59125 35.14875 17.8075 35 17 C35.66 16.34 36.32 15.68 37 15 C36.67801034 11.90073181 36.67801034 11.90073181 36 9 C34.51113281 8.94392578 34.51113281 8.94392578 32.9921875 8.88671875 C10.69180146 7.87331587 10.69180146 7.87331587 2 3 Z " fill="#101010" transform="translate(429,216)"/>
<path d="M0 0 C0.93021973 -0.00193359 1.86043945 -0.00386719 2.81884766 -0.00585938 C3.84284668 -0.00134766 4.8668457 0.00316406 5.921875 0.0078125 C6.98583496 0.00974609 8.04979492 0.01167969 9.14599609 0.01367188 C17.53681847 0.05734248 25.9125035 0.31489003 34.296875 0.6328125 C51.2487118 1.26985676 68.06461398 1.35745216 85.00805664 0.4909668 C91.90541088 0.14166197 98.76468693 0.01552063 105.671875 0.1328125 C106.166875 1.1228125 106.166875 1.1228125 106.671875 2.1328125 C105.351875 4.1128125 104.031875 6.0928125 102.671875 8.1328125 C101.681875 7.6378125 101.681875 7.6378125 100.671875 7.1328125 C101.001875 6.1428125 101.331875 5.1528125 101.671875 4.1328125 C100.4662793 4.29507324 99.26068359 4.45733398 98.01855469 4.62451172 C91.72495671 5.31952625 85.45029676 5.27607548 79.125 5.265625 C77.83680359 5.26658173 76.54860718 5.26753845 75.22137451 5.26852417 C72.50499256 5.26999029 69.7886437 5.26788318 67.07226562 5.26318359 C63.62893637 5.25750989 60.1856855 5.26075728 56.74235916 5.26675606 C53.41156691 5.27128893 50.08079446 5.26809141 46.75 5.265625 C45.53290344 5.26764923 44.31580688 5.26967346 43.06182861 5.27175903 C36.1859654 5.2532536 29.40015618 4.96608065 22.55055237 4.35643005 C18.15103033 4.01467228 13.76919781 4.02396836 9.359375 4.0703125 C8.08803711 4.07708008 8.08803711 4.07708008 6.79101562 4.08398438 C4.7512697 4.09550836 2.71156137 4.11342794 0.671875 4.1328125 C1.93753966 9.36083435 3.29968659 14.28982276 5.671875 19.1328125 C8.10501388 20.55837669 9.72012833 20.72986162 12.5078125 20.90234375 C14.671875 21.1328125 14.671875 21.1328125 17.796875 23.4453125 C19.671875 26.1328125 19.671875 26.1328125 19.59375 28.56640625 C18.37615014 31.95608045 16.78390828 32.92608925 13.796875 34.8828125 C12.91257813 35.47578125 12.02828125 36.06875 11.1171875 36.6796875 C8.671875 38.1328125 8.671875 38.1328125 5.671875 39.1328125 C7.41174486 35.25156436 9.35884672 33.03317475 12.859375 30.6328125 C13.4575 30.1378125 14.055625 29.6428125 14.671875 29.1328125 C14.671875 28.1428125 14.671875 27.1528125 14.671875 26.1328125 C12.37557506 24.98466253 10.59489414 24.82511441 8.046875 24.5703125 C7.22960937 24.48652344 6.41234375 24.40273438 5.5703125 24.31640625 C4.63058594 24.22552734 4.63058594 24.22552734 3.671875 24.1328125 C3.28 23.0603125 2.888125 21.9878125 2.484375 20.8828125 C0.70500809 16.12364453 -1.26484429 11.44924352 -3.2421875 6.76953125 C-4.00513267 4.91705646 -4.69458351 3.03343696 -5.328125 1.1328125 C-3.75328063 -0.44203187 -2.18687095 0.00302412 0 0 Z " fill="#191919" transform="translate(168.328125,243.8671875)"/>
<path d="M0 0 C0.33 0.99 0.66 1.98 1 3 C1.66 3 2.32 3 3 3 C3.21914063 3.95261719 3.43828125 4.90523437 3.6640625 5.88671875 C5.38891549 13.98459627 5.38891549 13.98459627 10.25 20.375 C11.1575 20.91125 12.065 21.4475 13 22 C13.144375 21.2575 13.28875 20.515 13.4375 19.75 C13.90187492 17.47972261 14.41863569 15.24240521 15 13 C17.31 13.33 19.62 13.66 22 14 C22 14.66 22 15.32 22 16 C21.38125 16.4125 20.7625 16.825 20.125 17.25 C17.36840385 19.52013801 17.04983163 21.64053879 16 25 C14.5 26.875 14.5 26.875 13 28 C12.34 28 11.68 28 11 28 C10.01 30.475 10.01 30.475 9 33 C8.67 33 8.34 33 8 33 C7.98582031 32.3709375 7.97164063 31.741875 7.95703125 31.09375 C7.63073728 25.23809599 6.53814961 21.66177502 3.2109375 16.86328125 C-0.21664757 11.58922294 -0.21195647 6.04075942 0 0 Z " fill="#131313" transform="translate(424,226)"/>
<path d="M0 0 C0.98484375 0.02707031 1.9696875 0.05414063 2.984375 0.08203125 C3.73203125 0.11683594 4.4796875 0.15164062 5.25 0.1875 C4.92 0.8475 4.59 1.5075 4.25 2.1875 C1.52734375 2.8203125 1.52734375 2.8203125 -1.8125 3.3125 C-2.91722656 3.48007813 -4.02195312 3.64765625 -5.16015625 3.8203125 C-6.44212891 4.00207031 -6.44212891 4.00207031 -7.75 4.1875 C-9.17109687 8.62842772 -10.36394419 12.48059454 -9.75 17.1875 C-8.17976352 19.8601564 -6.90051933 21.75801375 -3.92138672 22.87011719 C-1.78546381 23.3485882 0.3320412 23.6993202 2.5 24 C3.24507812 24.12052734 3.99015625 24.24105469 4.7578125 24.36523438 C6.58562338 24.65815279 8.41751435 24.92541194 10.25 25.1875 C10.25 25.8475 10.25 26.5075 10.25 27.1875 C7.68508544 27.12721999 5.12578243 27.04012053 2.5625 26.9375 C1.84126953 26.92332031 1.12003906 26.90914062 0.37695312 26.89453125 C-4.54172599 26.66993403 -7.16496243 25.83239905 -10.75 22.1875 C-13.59316661 17.92275008 -13.25671891 14.19232365 -12.75 9.1875 C-10.30089725 2.45246744 -7.1974954 -0.25705341 0 0 Z " fill="#1B1B1B" transform="translate(129.75,192.8125)"/>
<path d="M0 0 C0.33 0 0.66 0 1 0 C1.50588674 8.09418785 -0.88682972 14.6430856 -6 21 C-9.37910814 24.64092766 -12.09547378 26.90897485 -17.1875 27.15234375 C-20.16546891 26.90300909 -23.06154998 26.53871584 -26 26 C-25 24 -25 24 -22.25 22.8125 C-19 22 -19 22 -16.5 22.6875 C-13.74666541 23.30521575 -13.74666541 23.30521575 -10.9375 21 C-5.5370475 15.94573035 -3.49663324 10.00430842 -1.61328125 3.0390625 C-1 1 -1 1 0 0 Z " fill="#060606" transform="translate(603,256)"/>
<path d="M0 0 C5.87711622 -0.48975968 10.09611773 0.62928552 15 4 C17.29013653 7.4352048 17.17842973 8.985331 17 13 C16.34 13 15.68 13 15 13 C14.814375 11.906875 14.62875 10.81375 14.4375 9.6875 C13.3364902 5.72410335 13.3364902 5.72410335 9.625 4.0625 C5.98983152 2.81248638 5.98983152 2.81248638 2 3 C-0.10428384 8.12919186 -0.21755666 12.5610835 0 18 C-0.33 17.34 -0.66 16.68 -1 16 C-1.66 16 -2.32 16 -3 16 C-3.37952295 9.80112515 -2.8352113 5.5522888 0 0 Z " fill="#111111" transform="translate(120,156)"/>
<path d="M0 0 C0.66 0.99 1.32 1.98 2 3 C1.57847656 3.83144531 1.15695313 4.66289062 0.72265625 5.51953125 C0.17480469 6.60621094 -0.37304688 7.69289063 -0.9375 8.8125 C-1.75541016 10.43091797 -1.75541016 10.43091797 -2.58984375 12.08203125 C-4.0585207 14.96211527 -4.0585207 14.96211527 -5 18 C-6.92470397 18.49776827 -8.85287333 18.98627145 -10.796875 19.40234375 C-15.11588732 20.57399071 -18.83476463 22.83476463 -22 26 C-21.68988845 22.92472717 -21.53019713 21.44365669 -19.109375 19.41796875 C-17.94148438 18.80888672 -17.94148438 18.80888672 -16.75 18.1875 C-15.98171875 17.76855469 -15.2134375 17.34960938 -14.421875 16.91796875 C-11.77939171 15.91638234 -9.80172996 15.82613378 -7 16 C-6.6596875 14.824375 -6.6596875 14.824375 -6.3125 13.625 C-4.59339067 8.87698375 -2.31915279 4.47897448 0 0 Z " fill="#212121" transform="translate(134,249)"/>
<path d="M0 0 C0.66 0.66 1.32 1.32 2 2 C1.67 2.680625 1.34 3.36125 1 4.0625 C-0.18453566 6.99578446 -0.18453566 6.99578446 0.0625 10.25 C-0.02360065 15.41603921 -1.03554646 20.83957907 -4.60546875 24.765625 C-5.06566406 25.17296875 -5.52585937 25.5803125 -6 26 C-6.99 25.67 -7.98 25.34 -9 25 C-8.360625 24.13375 -7.72125 23.2675 -7.0625 22.375 C-4.99019986 18.98396341 -4.42247465 16.88676677 -4 13 C-3.79375 12.319375 -3.5875 11.63875 -3.375 10.9375 C-2.83067246 8.89287506 -2.83067246 8.89287506 -3.6875 6.5 C-3.790625 5.675 -3.89375 4.85 -4 4 C-2.0625 1.6875 -2.0625 1.6875 0 0 Z " fill="#000000" transform="translate(467,229)"/>
<path d="M0 0 C2.60427663 2.60427663 2.50528695 4.39566205 3 8 C3.32871094 9.1446875 3.32871094 9.1446875 3.6640625 10.3125 C4.10572171 13.84577369 3.19396203 15.92627731 1.8125 19.1875 C1.38582031 20.23292969 0.95914063 21.27835938 0.51953125 22.35546875 C-1.09002716 25.15667966 -2.00308155 25.95396637 -5 27 C-4.00734643 24.46170776 -2.98445893 21.96695587 -1.82421875 19.5 C-0.69196301 17.00981554 0.30720879 14.64839171 1 12 C-0.20968895 9.2332494 -0.20968895 9.2332494 -2 7 C-1.58333333 1.58333333 -1.58333333 1.58333333 0 0 Z " fill="#000000" transform="translate(584,231)"/>
<path d="M0 0 C2 2 2 2 2.01171875 4.3203125 C1.90472656 5.24585938 1.79773438 6.17140625 1.6875 7.125 C1.51927734 8.60226563 1.51927734 8.60226563 1.34765625 10.109375 C1.23292969 11.06328125 1.11820313 12.0171875 1 13 C0.93683594 13.76828125 0.87367188 14.5365625 0.80859375 15.328125 C0.42512106 19.6034375 -0.49052942 22.50856266 -3 26 C-3.99 25.34 -4.98 24.68 -6 24 C-5.34 23.34 -4.68 22.68 -4 22 C-3.27982196 19.71171706 -3.27982196 19.71171706 -2.8125 17.125 C-2.63332031 16.26132813 -2.45414063 15.39765625 -2.26953125 14.5078125 C-1.85548873 12.05460461 -1.85548873 12.05460461 -2.5390625 9.9453125 C-3.13919757 7.41253908 -2.55294951 6.12707883 -1.5625 3.75 C-1.27503906 3.04359375 -0.98757813 2.3371875 -0.69140625 1.609375 C-0.34916016 0.81273437 -0.34916016 0.81273437 0 0 Z " fill="#000000" transform="translate(544,231)"/>
<path d="M0 0 C1.875 0.1875 1.875 0.1875 4 1 C6.38879811 4.98133018 5.79447983 7.58622317 5 12 C5.2644354 14.34214207 5.58244638 16.68025766 6 19 C5.01 18.67 4.02 18.34 3 18 C0.62790698 11.22259136 0.62790698 11.22259136 1.875 7.125 C2.24625 6.42375 2.6175 5.7225 3 5 C3 4.34 3 3.68 3 3 C2.01 3 1.02 3 0 3 C0 2.01 0 1.02 0 0 Z " fill="#000000" transform="translate(563,253)"/>
<path d="M0 0 C0.99 0.33 1.98 0.66 3 1 C4.00344253 7.30735307 4.50873071 13.63440427 5 20 C4.01 19.67 3.02 19.34 2 19 C-0.08254633 13.95301272 -0.10550722 9.28186783 1 4 C0.6422386 1.72349255 0.6422386 1.72349255 0 0 Z " fill="#000000" transform="translate(484,250)"/>
<path d="M0 0 C0.66 0.33 1.32 0.66 2 1 C1.814375 1.66 1.62875 2.32 1.4375 3 C1.03842212 5.73653403 1.13760553 7.4471767 1.5625 10.125 C2 14 2 14 0 17 C-0.99 16.67 -1.98 16.34 -3 16 C-2.67 15.34 -2.34 14.68 -2 14 C-1.86270799 10.91092972 -1.91919487 8.31587458 -2.6875 5.3125 C-2.790625 4.549375 -2.89375 3.78625 -3 3 C-1.5625 1.1875 -1.5625 1.1875 0 0 Z " fill="#000000" transform="translate(517,230)"/>
<path d="M0 0 C3.15353929 0.84094381 5.46501019 1.50067618 7.875 3.75 C9.31217164 6.62434327 9.21618085 8.82934761 9 12 C8.34 12 7.68 12 7 12 C6.814375 10.906875 6.62875 9.81375 6.4375 8.6875 C5.42483472 5.0509502 5.42483472 5.0509502 3.30859375 3.8671875 C1.16349857 2.94073788 1.16349857 2.94073788 -2 2 C-1.34 1.34 -0.68 0.68 0 0 Z " fill="#252525" transform="translate(128,157)"/>
<path d="M0 0 C0.66 0.99 1.32 1.98 2 3 C0.35 6.3 -1.3 9.6 -3 13 C-3.99 13 -4.98 13 -6 13 C-4.31326082 8.50202887 -2.18326108 4.27113698 0 0 Z " fill="#222222" transform="translate(134,249)"/>
<path d="M0 0 C0.66 0 1.32 0 2 0 C0.50328459 4.49014624 -1.83368341 8.47848764 -5 12 C-5.66 12 -6.32 12 -7 12 C-5.50328459 7.50985376 -3.16631659 3.52151236 0 0 Z " fill="#0A0A0A" transform="translate(268,251)"/>
<path d="M0 0 C1 3 1 3 0 6 C-4.455 6.495 -4.455 6.495 -9 7 C-8.34 6.01 -7.68 5.02 -7 4 C-4.375 3.8125 -4.375 3.8125 -2 4 C-1.34 2.68 -0.68 1.36 0 0 Z " fill="#0F0F0F" transform="translate(129,261)"/>
<path d="M0 0 C0.33 0 0.66 0 1 0 C1.33 5.94 1.66 11.88 2 18 C-0.49059397 13.01881207 -1.2136995 10.24901803 -0.5625 4.75 C-0.46066406 3.85796875 -0.35882812 2.9659375 -0.25390625 2.046875 C-0.17011719 1.37140625 -0.08632813 0.6959375 0 0 Z " fill="#242424" transform="translate(603,242)"/>
<path d="M0 0 C0.96070434 2.88211302 1.10581883 4.69850044 1.0625 7.6875 C1.05347656 8.49574219 1.04445313 9.30398437 1.03515625 10.13671875 C1.02355469 10.75160156 1.01195313 11.36648437 1 12 C0.67 11.34 0.34 10.68 0 10 C-0.66 10 -1.32 10 -2 10 C-2 7.03 -2 4.06 -2 1 C-1.34 0.67 -0.68 0.34 0 0 Z " fill="#191919" transform="translate(119,162)"/>
</svg>
