<?xml version="1.0" encoding="UTF-8"?>
<svg version="1.1" xmlns="http://www.w3.org/2000/svg" width="800" height="300">
<path d="M0 0 C264 0 528 0 800 0 C800 99 800 198 800 300 C536 300 272 300 0 300 C0 201 0 102 0 0 Z " fill="#FEFEFE" transform="translate(0,0)"/>
<path d="M0 0 C4.88023339 0.3200153 8.13596776 1.51359161 11.5625 5.0625 C13.06838287 7.69779503 13.95426603 10.3452081 14.8125 13.25 C15.45574219 13.105625 16.09898437 12.96125 16.76171875 12.8125 C24.18329771 11.28795311 31.25110122 11.03361657 38.8125 11.25 C38.93753906 10.31929687 39.06257813 9.38859375 39.19140625 8.4296875 C40.03210233 4.12574654 41.21232205 2.74808266 44.8125 0.25 C49.82978556 -0.7116464 53.66654827 -0.31255812 58.25 1.9375 C61.75475106 5.10032413 63.33266111 7.98726607 65 12.375 C66.81490114 16.80182235 69.75251043 20.36534669 72.6796875 24.11328125 C79.28589211 33.82899975 80.93244615 42.5745517 82.10742188 54.14453125 C82.77809077 60.70033179 82.77809077 60.70033179 86.453125 65.90234375 C90.13257072 67.37840046 93.76446444 68.56604728 97.625 69.4375 C98.33857666 69.60475586 99.05215332 69.77201172 99.78735352 69.94433594 C114.89226752 73.39393681 129.91366486 72.46164824 145.25 71.25 C154.84048854 70.50491184 164.37930392 70.03319628 174 70 C175.05566162 69.99097656 176.11132324 69.98195313 177.19897461 69.97265625 C186.47133423 70.00850011 194.24268731 71.82207492 202.8125 75.25 C203.07804688 74.62351562 203.34359375 73.99703125 203.6171875 73.3515625 C203.97039062 72.53429687 204.32359375 71.71703125 204.6875 70.875 C205.03554688 70.06289062 205.38359375 69.25078125 205.7421875 68.4140625 C206.8125 66.25 206.8125 66.25 208.8125 64.25 C212.25752033 63.80064952 214.15995776 63.87221239 217.1875 65.625 C219.06215743 68.65329278 218.91904586 69.77687594 218.75 73.25 C218.56580151 75.86642136 218.56580151 75.86642136 218.8125 78.25 C221.23130929 80.51877535 221.23130929 80.51877535 223.8125 82.25 C224.57249656 86.13442688 223.93889393 87.98204488 222.25 91.5625 C219.8125 94.25 219.8125 94.25 216.625 95.125 C215.366875 95.16625 214.10875 95.2075 212.8125 95.25 C212.15378906 95.31058594 211.49507812 95.37117188 210.81640625 95.43359375 C206.08317777 95.72019291 202.46297859 94.88968578 198 93.3125 C189.15437901 90.33236817 180.07135586 90.43462325 170.8125 90.25 C171.08964844 91.00925781 171.36679687 91.76851563 171.65234375 92.55078125 C172.01457031 93.54464844 172.37679687 94.53851563 172.75 95.5625 C173.28947266 97.04169922 173.28947266 97.04169922 173.83984375 98.55078125 C174.52135965 100.4420563 175.1767811 102.34284329 175.8125 104.25 C176.42738281 104.21519531 177.04226563 104.18039062 177.67578125 104.14453125 C178.48402344 104.11746094 179.29226563 104.09039062 180.125 104.0625 C181.32576172 104.01029297 181.32576172 104.01029297 182.55078125 103.95703125 C184.8125 104.25 184.8125 104.25 186.55859375 105.4375 C188.74884537 108.60347118 188.57758798 111.62598205 188.5078125 115.37890625 C187.23523602 120.63364621 183.13100239 123.33462113 178.8125 126.25 C175.63371306 127.83939347 173.3168228 127.66576711 169.8125 127.25 C166.03037715 123.95070134 164.9673895 122.55549722 164.375 117.5625 C164.8125 114.25 164.8125 114.25 166.8125 111.25 C165.85520084 110.12411986 164.89662105 108.9993285 163.9375 107.875 C163.40382813 107.24851562 162.87015625 106.62203125 162.3203125 105.9765625 C161.19817993 104.69163349 160.01878025 103.45628025 158.8125 102.25 C158.1525 102.25 157.4925 102.25 156.8125 102.25 C156.56886719 102.81976563 156.32523438 103.38953125 156.07421875 103.9765625 C154.5926122 106.6462065 152.7715657 108.45943814 150.625 110.625 C148.43756034 112.90999389 148.43756034 112.90999389 146.8125 115.25 C147.12053455 118.43522204 147.12053455 118.43522204 147.8125 121.25 C144.81670603 124.69516307 143.14314473 125.98387105 138.6875 126.875 C132.99868902 125.95744984 128.02523277 123.64665874 122.8125 121.25 C122.39795636 117.02165483 122.34754657 114.91837056 124.8125 111.375 C127.8125 109.25 127.8125 109.25 131.6875 109.1875 C133.80045892 109.18677094 133.80045892 109.18677094 135.8125 108.25 C138.70221179 104.5249809 140.76048171 100.48159448 142.8125 96.25 C143.20695313 95.46238281 143.60140625 94.67476563 144.0078125 93.86328125 C144.27335938 93.33089844 144.53890625 92.79851562 144.8125 92.25 C143.68610107 92.41226074 142.55970215 92.57452148 141.39916992 92.74169922 C136.72945378 93.32230108 132.12653492 93.39406037 127.42578125 93.3828125 C126.53863434 93.38413177 125.65148743 93.38545105 124.73745728 93.3868103 C121.866602 93.38871752 118.9958453 93.38240286 116.125 93.375 C115.14363068 93.37411377 114.16226135 93.37322754 113.15115356 93.37231445 C99.85041514 93.35821794 86.58144647 93.15322394 73.29150391 92.6081543 C63.79310744 92.2189907 54.31733018 92.14347015 44.8125 92.25 C46.07816466 97.47802185 47.44031159 102.40701026 49.8125 107.25 C52.24563888 108.67556419 53.86075333 108.84704912 56.6484375 109.01953125 C58.8125 109.25 58.8125 109.25 61.9375 111.5625 C63.8125 114.25 63.8125 114.25 64 116.75 C62.338581 120.24772421 59.93382369 122.11884412 56.8125 124.25 C56.13703125 124.72050781 55.4615625 125.19101562 54.765625 125.67578125 C49.23092299 129.15950326 44.32625768 130.489602 37.8125 129.25 C35.1875 127.6875 35.1875 127.6875 33.8125 125.25 C33.33715173 121.44721385 33.13344212 119.23645748 35.33984375 116.03125 C36.06880859 115.14953125 36.06880859 115.14953125 36.8125 114.25 C33.54529209 109.86105071 30.26351522 105.49740335 26.8125 101.25 C22.63432625 105.93656504 22.63432625 105.93656504 19.125 111.125 C17.8125 113.25 17.8125 113.25 14.8125 114.25 C14.3175 115.735 14.3175 115.735 13.8125 117.25 C13.1525 117.25 12.4925 117.25 11.8125 117.25 C12.1425 117.91 12.4725 118.57 12.8125 119.25 C12.88200541 120.79023996 12.89702357 122.33334988 12.875 123.875 C12.86597656 124.69226563 12.85695312 125.50953125 12.84765625 126.3515625 C12.83605469 126.97804688 12.82445312 127.60453125 12.8125 128.25 C7.80734695 131.33009418 3.55598265 132.28401488 -2.1875 131.25 C-10.3880814 127.84883721 -10.3880814 127.84883721 -12.1875 124.25 C-12.85808266 121.08687426 -13.01012766 118.39285951 -12.1875 115.25 C-8.7877772 111.67290036 -5.03924835 109.39729816 -0.09375 109.00390625 C3.10592068 108.52393213 3.10592068 108.52393213 4.7109375 105.30859375 C5.19820312 104.11363281 5.68546875 102.91867187 6.1875 101.6875 C6.69023438 100.48996094 7.19296875 99.29242188 7.7109375 98.05859375 C8.07445312 97.13175781 8.43796875 96.20492187 8.8125 95.25 C9.4725 95.25 10.1325 95.25 10.8125 95.25 C10.8125 94.59 10.8125 93.93 10.8125 93.25 C9.99007812 93.20101562 9.16765625 93.15203125 8.3203125 93.1015625 C-13.44489845 91.64384629 -13.44489845 91.64384629 -20.1875 85.25 C-28.62782642 73.8399291 -32.53870052 57.30978918 -31.1875 43.25 C-30.21268592 40.30625452 -28.84644328 37.85691087 -27.1875 35.25 C-26.73375 34.3425 -26.28 33.435 -25.8125 32.5 C-23.68019395 29.54757625 -21.27298005 28.19270966 -18.1875 26.25 C-15.85042741 24.4043119 -13.53867866 22.531798 -11.23828125 20.640625 C-9.1875 19.25 -9.1875 19.25 -6.1875 19.25 C-6.21070312 18.45335937 -6.23390625 17.65671875 -6.2578125 16.8359375 C-6.43977712 6.1520149 -6.43977712 6.1520149 -4.1875 1.25 C-3.1875 0.25 -3.1875 0.25 0 0 Z " fill="#FAFAFA" transform="translate(117.1875,155.75)"/>
<path d="M0 0 C2.8125 -0.1875 2.8125 -0.1875 6 0 C7 1 8 2 9 3 C15.47083003 5.07525149 21.41141432 5.24994212 28.16796875 5.16015625 C29.2571611 5.15463745 30.34635345 5.14911865 31.46855164 5.14343262 C33.8178252 5.13109227 36.16707948 5.11448167 38.51629639 5.09402466 C44.77770738 5.04025787 51.03917966 5.01861565 57.30078125 5 C59.23244141 4.9937838 59.23244141 4.9937838 61.203125 4.98744202 C77.41229646 4.95866797 93.61370822 5.33435472 109.81713867 5.73266602 C110.89429642 5.75735962 111.97145416 5.78205322 113.08125305 5.80749512 C115.09527242 5.85391321 117.10919602 5.90477372 119.12297058 5.96081543 C120.44631157 5.99096741 120.44631157 5.99096741 121.79638672 6.02172852 C122.56457733 6.04171402 123.33276794 6.06169952 124.12423706 6.08229065 C126.0924287 6.12361173 126.0924287 6.12361173 128 5 C131.03566911 4.76089183 134.08095166 4.81479913 137.125 4.8125 C138.37023437 4.79413086 138.37023437 4.79413086 139.640625 4.77539062 C146.3283327 4.75966717 153.1906553 5.34226445 159 9 C159.42667969 9.46148437 159.85335937 9.92296875 160.29296875 10.3984375 C162.9975484 12.93591497 166.33120593 14.35011728 169.625 16.01171875 C174.01917804 19.69039741 174.99427916 24.83672162 175.6171875 30.3671875 C175.72209306 31.86858663 175.80765993 33.37144759 175.875 34.875 C175.91254395 35.66366455 175.95008789 36.4523291 175.98876953 37.26489258 C176.27663329 46.52514559 174.29214193 54.04285919 168 61 C162.69554711 66.38085279 158.19286413 67.70523678 150.71362305 67.88330078 C149.57062744 67.88056152 148.42763184 67.87782227 147.25 67.875 C146.0535083 67.8941748 144.8570166 67.91334961 143.62426758 67.93310547 C140.0824586 67.98283335 136.54211111 67.99384427 133 68 C131.18616451 68.02360067 129.37235524 68.04939485 127.55859375 68.078125 C114.02532285 68.24209193 100.1544274 68.25064747 86.72265625 66.47265625 C78.59603524 65.44083973 70.49840803 65.91088485 62.375 66.78125 C56.14473547 67.35509015 49.86288457 66.66520367 43.63769531 66.25537109 C41.63908688 66.12591247 39.63984991 66.00628024 37.640625 65.88671875 C36.36960937 65.80292969 35.09859375 65.71914063 33.7890625 65.6328125 C32.63100098 65.55949707 31.47293945 65.48618164 30.27978516 65.41064453 C26.94747647 64.99342381 24.14301003 64.16096136 21 63 C19.865625 62.62875 18.73125 62.2575 17.5625 61.875 C10.70420537 58.84035636 6.45523899 52.07424207 3.69140625 45.35546875 C2.95117812 42.83367463 2.71897532 40.55745849 2.5625 37.9375 C2.27383191 33.27551038 0.83709453 30.65071581 -1.7890625 26.86328125 C-4.96470506 21.97688932 -6.0453083 15.71367548 -5 10 C-3.57222581 6.52259876 -1.86966857 3.25856521 0 0 Z " fill="#646464" transform="translate(429,216)"/>
<path d="M0 0 C4.91432378 0.32225074 8.12384767 1.56134767 11.625 5.0625 C13.09168267 7.76428386 13.46742025 10.2132982 13.8125 13.25 C13.1525 13.25 12.4925 13.25 11.8125 13.25 C11.44125 12.156875 11.07 11.06375 10.6875 9.9375 C9.38510133 6.89652197 8.86281813 6.28281617 5.9375 4.375 C3.20745733 3.39218464 0.67842693 2.67145984 -2.1875 2.25 C-2.93802396 5.07248328 -3.49319258 7.85421384 -3.875 10.75 C-3.98199219 11.5028125 -4.08898437 12.255625 -4.19921875 13.03125 C-4.18547424 15.63354478 -3.40027697 16.98243232 -2.1875 19.25 C-2.1875 20.24 -2.1875 21.23 -2.1875 22.25 C-2.72117187 22.37375 -3.25484375 22.4975 -3.8046875 22.625 C-12.83269809 25.12410328 -19.64890211 30.78440635 -25.1875 38.25 C-30.48705918 49.37907427 -26.02244156 62.32201889 -22.1875 73.25 C-19.6208954 79.52031249 -17.1996747 82.8518143 -11.1875 86.25 C-8.54600181 86.96563602 -6.11822079 87.51735351 -3.4375 87.9375 C-2.73882812 88.05778564 -2.04015625 88.17807129 -1.3203125 88.30200195 C4.03201543 89.19755405 9.39750224 89.87251218 14.8125 90.25 C15.1425 91.24 15.4725 92.23 15.8125 93.25 C14.8225 93.58 13.8325 93.91 12.8125 94.25 C11.18534327 96.85604 11.18534327 96.85604 9.75 100 C9.24339844 101.04671875 8.73679688 102.0934375 8.21484375 103.171875 C6.78613003 106.16661479 6.78613003 106.16661479 5.8671875 109.0703125 C5.34511719 110.14925781 5.34511719 110.14925781 4.8125 111.25 C2.84358415 111.83099156 0.86688587 112.40215625 -1.14453125 112.8125 C-4.11798707 113.44926301 -5.95354868 114.15567064 -8.1875 116.25 C-8.90636492 119.06653633 -8.89773502 121.43253877 -8.1875 124.25 C-5.30250415 127.22806023 -2.53921117 127.43924142 1.4375 127.5625 C4.94081715 127.54456493 5.73995875 127.29836083 8.8125 125.25 C9.12392059 121.66866323 8.73639881 118.69226816 7.8125 115.25 C8.62654297 114.79560547 8.62654297 114.79560547 9.45703125 114.33203125 C13.88960809 111.73637814 16.39583049 109.87319385 18.8125 105.25 C19.92619042 103.62335364 21.07552217 102.02081505 22.25 100.4375 C22.82621094 99.64730469 23.40242188 98.85710937 23.99609375 98.04296875 C25.8125 96.25 25.8125 96.25 29.8125 96.25 C30.39257812 97.35408203 30.39257812 97.35408203 30.984375 98.48046875 C35.58757085 107.45414656 35.58757085 107.45414656 42.8125 114.25 C42.3175 116.23 42.3175 116.23 41.8125 118.25 C40.4925 118.25 39.1725 118.25 37.8125 118.25 C37.8125 120.23 37.8125 122.21 37.8125 124.25 C41.19744669 125.94247334 44.19745919 126.07133727 47.8125 125.25 C51.81770782 122.98687337 55.49226836 120.44206094 58.8125 117.25 C58.8125 116.26 58.8125 115.27 58.8125 114.25 C56.51620006 113.10185003 54.73551914 112.94230191 52.1875 112.6875 C50.96160156 112.56181641 50.96160156 112.56181641 49.7109375 112.43359375 C49.08445312 112.37300781 48.45796875 112.31242187 47.8125 112.25 C45.74600643 106.77379203 43.73900203 101.28032698 41.77734375 95.765625 C40.91083235 93.5063807 39.93747373 91.38995002 38.8125 89.25 C40.38734437 87.67515563 41.95375405 88.12021162 44.140625 88.1171875 C45.07076416 88.11525391 46.00090332 88.11332031 46.95922852 88.11132812 C48.4953479 88.1180957 48.4953479 88.1180957 50.0625 88.125 C51.12718506 88.12693359 52.19187012 88.12886719 53.28881836 88.13085938 C61.65815929 88.17439615 70.01214114 88.43188101 78.375 88.75 C95.69228813 89.40214885 112.89052807 89.4970866 130.19946289 88.6081543 C137.07991647 88.2576585 143.92210248 88.13299325 150.8125 88.25 C149.92810705 92.61973214 147.56598565 95.61787042 144.9375 99.125 C142.36754943 102.56888188 140.06002492 105.68902968 138.31640625 109.640625 C136.8125 112.25 136.8125 112.25 134.33203125 113.0546875 C133.43871094 113.07789063 132.54539063 113.10109375 131.625 113.125 C130.72394531 113.16367187 129.82289063 113.20234375 128.89453125 113.2421875 C128.20746094 113.24476563 127.52039063 113.24734375 126.8125 113.25 C126.8125 115.23 126.8125 117.21 126.8125 119.25 C132.83731126 121.74302535 137.37002705 123.39749098 143.8125 121.25 C143.0390625 120.1053125 143.0390625 120.1053125 142.25 118.9375 C141.775625 118.050625 141.30125 117.16375 140.8125 116.25 C141.8125 113.25 141.8125 113.25 144.375 111.75 C150.44895318 107.98503144 154.86131543 100.63419519 157.8125 94.25 C161.98896884 98.1944428 165.46129182 102.2097816 167.8125 107.5 C169.09432353 109.74319118 170.45496152 110.30698461 172.8125 111.25 C172.8125 111.91 172.8125 112.57 172.8125 113.25 C170.8125 114.875 170.8125 114.875 168.8125 116.25 C169.1425 118.23 169.4725 120.21 169.8125 122.25 C173.34972984 123.15487275 175.1839202 123.53571809 178.5625 122 C181.02331851 120.27635231 181.02331851 120.27635231 182.8125 117.25 C183.4725 117.25 184.1325 117.25 184.8125 117.25 C184.4825 114.61 184.1525 111.97 183.8125 109.25 C183.16023437 109.31703125 182.50796875 109.3840625 181.8359375 109.453125 C178.79762109 109.50690051 176.6652502 109.33737115 173.8125 108.25 C171.04226596 104.55445068 169.49989951 100.52369408 167.8125 96.25 C166.95978516 94.66251953 166.95978516 94.66251953 166.08984375 93.04296875 C164.8125 90.25 164.8125 90.25 165.8125 87.25 C189.6375202 86.49263293 189.6375202 86.49263293 199.69921875 90.359375 C205.89617838 92.13215643 212.42650309 91.54511667 218.8125 91.25 C219.1425 88.61 219.4725 85.97 219.8125 83.25 C218.9875 82.981875 218.1625 82.71375 217.3125 82.4375 C214.8125 80.25 214.8125 80.25 214.48046875 77.6015625 C214.49845038 74.80362123 214.59937688 72.03954481 214.8125 69.25 C213.4925 68.59 212.1725 67.93 210.8125 67.25 C209.08985506 70.54549466 207.51804068 73.58118845 206.8125 77.25 C207.4725 77.25 208.1325 77.25 208.8125 77.25 C208.8125 77.91 208.8125 78.57 208.8125 79.25 C203.84874809 78.93484115 200.35720547 78.55720167 195.9609375 76.2265625 C189.38625966 73.20890003 182.44556284 73.74043301 175.375 73.875 C173.90487342 73.88808645 172.43473945 73.90036445 170.96459961 73.91186523 C160.82355668 74.02821363 150.77209068 74.69557166 140.6706543 75.59912109 C131.5932937 76.37352022 122.86390149 76.1670073 113.8125 75.25 C113.11979004 75.18796387 112.42708008 75.12592773 111.71337891 75.06201172 C90.11753862 73.09875351 90.11753862 73.09875351 81.625 66.9375 C78.73582444 62.6365682 78.71494509 57.03804324 78.19921875 52.01171875 C76.84019249 38.79209964 72.65577527 28.54642664 62.8125 19.25 C62.4825 19.91 62.1525 20.57 61.8125 21.25 C60.8225 21.25 59.8325 21.25 58.8125 21.25 C59.0909375 19.455625 59.0909375 19.455625 59.375 17.625 C59.81310096 13.93056652 59.98294321 10.84493272 58.8125 7.25 C54.81536373 3.62759525 49.97221913 3.57599533 44.8125 3.25 C42.84146975 7.43843928 42.8125 9.24852013 42.8125 14.25 C29.4475 14.745 29.4475 14.745 15.8125 15.25 C15.8125 14.59 15.8125 13.93 15.8125 13.25 C23.54138819 11.29596958 30.86292008 11.02571718 38.8125 11.25 C38.93753906 10.31929687 39.06257813 9.38859375 39.19140625 8.4296875 C40.03210233 4.12574654 41.21232205 2.74808266 44.8125 0.25 C49.82978556 -0.7116464 53.66654827 -0.31255812 58.25 1.9375 C61.75475106 5.10032413 63.33266111 7.98726607 65 12.375 C66.81490114 16.80182235 69.75251043 20.36534669 72.6796875 24.11328125 C79.28589211 33.82899975 80.93244615 42.5745517 82.10742188 54.14453125 C82.77809077 60.70033179 82.77809077 60.70033179 86.453125 65.90234375 C90.13257072 67.37840046 93.76446444 68.56604728 97.625 69.4375 C98.33857666 69.60475586 99.05215332 69.77201172 99.78735352 69.94433594 C114.89226752 73.39393681 129.91366486 72.46164824 145.25 71.25 C154.84048854 70.50491184 164.37930392 70.03319628 174 70 C175.05566162 69.99097656 176.11132324 69.98195313 177.19897461 69.97265625 C186.47133423 70.00850011 194.24268731 71.82207492 202.8125 75.25 C203.07804688 74.62351562 203.34359375 73.99703125 203.6171875 73.3515625 C203.97039062 72.53429687 204.32359375 71.71703125 204.6875 70.875 C205.03554688 70.06289062 205.38359375 69.25078125 205.7421875 68.4140625 C206.8125 66.25 206.8125 66.25 208.8125 64.25 C212.25752033 63.80064952 214.15995776 63.87221239 217.1875 65.625 C219.06215743 68.65329278 218.91904586 69.77687594 218.75 73.25 C218.56580151 75.86642136 218.56580151 75.86642136 218.8125 78.25 C221.23130929 80.51877535 221.23130929 80.51877535 223.8125 82.25 C224.57249656 86.13442688 223.93889393 87.98204488 222.25 91.5625 C219.8125 94.25 219.8125 94.25 216.625 95.125 C215.366875 95.16625 214.10875 95.2075 212.8125 95.25 C212.15378906 95.31058594 211.49507812 95.37117188 210.81640625 95.43359375 C206.08317777 95.72019291 202.46297859 94.88968578 198 93.3125 C189.15437901 90.33236817 180.07135586 90.43462325 170.8125 90.25 C171.08964844 91.00925781 171.36679687 91.76851563 171.65234375 92.55078125 C172.01457031 93.54464844 172.37679687 94.53851563 172.75 95.5625 C173.28947266 97.04169922 173.28947266 97.04169922 173.83984375 98.55078125 C174.52135965 100.4420563 175.1767811 102.34284329 175.8125 104.25 C176.42738281 104.21519531 177.04226563 104.18039062 177.67578125 104.14453125 C178.48402344 104.11746094 179.29226563 104.09039062 180.125 104.0625 C181.32576172 104.01029297 181.32576172 104.01029297 182.55078125 103.95703125 C184.8125 104.25 184.8125 104.25 186.55859375 105.4375 C188.74884537 108.60347118 188.57758798 111.62598205 188.5078125 115.37890625 C187.23523602 120.63364621 183.13100239 123.33462113 178.8125 126.25 C175.63371306 127.83939347 173.3168228 127.66576711 169.8125 127.25 C166.03037715 123.95070134 164.9673895 122.55549722 164.375 117.5625 C164.8125 114.25 164.8125 114.25 166.8125 111.25 C165.85520084 110.12411986 164.89662105 108.9993285 163.9375 107.875 C163.40382813 107.24851562 162.87015625 106.62203125 162.3203125 105.9765625 C161.19817993 104.69163349 160.01878025 103.45628025 158.8125 102.25 C158.1525 102.25 157.4925 102.25 156.8125 102.25 C156.56886719 102.81976563 156.32523438 103.38953125 156.07421875 103.9765625 C154.5926122 106.6462065 152.7715657 108.45943814 150.625 110.625 C148.43756034 112.90999389 148.43756034 112.90999389 146.8125 115.25 C147.12053455 118.43522204 147.12053455 118.43522204 147.8125 121.25 C144.81670603 124.69516307 143.14314473 125.98387105 138.6875 126.875 C132.99868902 125.95744984 128.02523277 123.64665874 122.8125 121.25 C122.39795636 117.02165483 122.34754657 114.91837056 124.8125 111.375 C127.8125 109.25 127.8125 109.25 131.6875 109.1875 C133.80045892 109.18677094 133.80045892 109.18677094 135.8125 108.25 C138.70221179 104.5249809 140.76048171 100.48159448 142.8125 96.25 C143.20695313 95.46238281 143.60140625 94.67476563 144.0078125 93.86328125 C144.27335938 93.33089844 144.53890625 92.79851562 144.8125 92.25 C143.68610107 92.41226074 142.55970215 92.57452148 141.39916992 92.74169922 C136.72945378 93.32230108 132.12653492 93.39406037 127.42578125 93.3828125 C126.53863434 93.38413177 125.65148743 93.38545105 124.73745728 93.3868103 C121.866602 93.38871752 118.9958453 93.38240286 116.125 93.375 C115.14363068 93.37411377 114.16226135 93.37322754 113.15115356 93.37231445 C99.85041514 93.35821794 86.58144647 93.15322394 73.29150391 92.6081543 C63.79310744 92.2189907 54.31733018 92.14347015 44.8125 92.25 C46.07816466 97.47802185 47.44031159 102.40701026 49.8125 107.25 C52.24563888 108.67556419 53.86075333 108.84704912 56.6484375 109.01953125 C58.8125 109.25 58.8125 109.25 61.9375 111.5625 C63.8125 114.25 63.8125 114.25 64 116.75 C62.338581 120.24772421 59.93382369 122.11884412 56.8125 124.25 C56.13703125 124.72050781 55.4615625 125.19101562 54.765625 125.67578125 C49.23092299 129.15950326 44.32625768 130.489602 37.8125 129.25 C35.1875 127.6875 35.1875 127.6875 33.8125 125.25 C33.33715173 121.44721385 33.13344212 119.23645748 35.33984375 116.03125 C36.06880859 115.14953125 36.06880859 115.14953125 36.8125 114.25 C33.54529209 109.86105071 30.26351522 105.49740335 26.8125 101.25 C22.63432625 105.93656504 22.63432625 105.93656504 19.125 111.125 C17.8125 113.25 17.8125 113.25 14.8125 114.25 C14.3175 115.735 14.3175 115.735 13.8125 117.25 C13.1525 117.25 12.4925 117.25 11.8125 117.25 C12.1425 117.91 12.4725 118.57 12.8125 119.25 C12.88200541 120.79023996 12.89702357 122.33334988 12.875 123.875 C12.86597656 124.69226563 12.85695312 125.50953125 12.84765625 126.3515625 C12.83605469 126.97804688 12.82445312 127.60453125 12.8125 128.25 C7.80734695 131.33009418 3.55598265 132.28401488 -2.1875 131.25 C-10.3880814 127.84883721 -10.3880814 127.84883721 -12.1875 124.25 C-12.85808266 121.08687426 -13.01012766 118.39285951 -12.1875 115.25 C-8.7877772 111.67290036 -5.03924835 109.39729816 -0.09375 109.00390625 C3.10592068 108.52393213 3.10592068 108.52393213 4.7109375 105.30859375 C5.19820312 104.11363281 5.68546875 102.91867187 6.1875 101.6875 C6.69023438 100.48996094 7.19296875 99.29242188 7.7109375 98.05859375 C8.07445312 97.13175781 8.43796875 96.20492187 8.8125 95.25 C9.4725 95.25 10.1325 95.25 10.8125 95.25 C10.8125 94.59 10.8125 93.93 10.8125 93.25 C9.99007812 93.20101562 9.16765625 93.15203125 8.3203125 93.1015625 C-13.44489845 91.64384629 -13.44489845 91.64384629 -20.1875 85.25 C-28.62782642 73.8399291 -32.53870052 57.30978918 -31.1875 43.25 C-30.21268592 40.30625452 -28.84644328 37.85691087 -27.1875 35.25 C-26.73375 34.3425 -26.28 33.435 -25.8125 32.5 C-23.68019395 29.54757625 -21.27298005 28.19270966 -18.1875 26.25 C-15.85042741 24.4043119 -13.53867866 22.531798 -11.23828125 20.640625 C-9.1875 19.25 -9.1875 19.25 -6.1875 19.25 C-6.21070312 18.45335937 -6.23390625 17.65671875 -6.2578125 16.8359375 C-6.43977712 6.1520149 -6.43977712 6.1520149 -4.1875 1.25 C-3.1875 0.25 -3.1875 0.25 0 0 Z " fill="#111111" transform="translate(117.1875,155.75)"/>
<path d="M0 0 C2.8125 -0.1875 2.8125 -0.1875 6 0 C7 1 8 2 9 3 C15.47083003 5.07525149 21.41141432 5.24994212 28.16796875 5.16015625 C29.2571611 5.15463745 30.34635345 5.14911865 31.46855164 5.14343262 C33.8178252 5.13109227 36.16707948 5.11448167 38.51629639 5.09402466 C44.77770738 5.04025787 51.03917966 5.01861565 57.30078125 5 C59.23244141 4.9937838 59.23244141 4.9937838 61.203125 4.98744202 C77.41229646 4.95866797 93.61370822 5.33435472 109.81713867 5.73266602 C110.89429642 5.75735962 111.97145416 5.78205322 113.08125305 5.80749512 C115.09527242 5.85391321 117.10919602 5.90477372 119.12297058 5.96081543 C120.44631157 5.99096741 120.44631157 5.99096741 121.79638672 6.02172852 C122.56457733 6.04171402 123.33276794 6.06169952 124.12423706 6.08229065 C126.0924287 6.12361173 126.0924287 6.12361173 128 5 C131.03566911 4.76089183 134.08095166 4.81479913 137.125 4.8125 C138.37023437 4.79413086 138.37023437 4.79413086 139.640625 4.77539062 C146.3283327 4.75966717 153.1906553 5.34226445 159 9 C159.42667969 9.46148437 159.85335937 9.92296875 160.29296875 10.3984375 C162.9975484 12.93591497 166.33120593 14.35011728 169.625 16.01171875 C174.01917804 19.69039741 174.99427916 24.83672162 175.6171875 30.3671875 C175.72209306 31.86858663 175.80765993 33.37144759 175.875 34.875 C175.91254395 35.66366455 175.95008789 36.4523291 175.98876953 37.26489258 C176.27663329 46.52514559 174.29214193 54.04285919 168 61 C162.69554711 66.38085279 158.19286413 67.70523678 150.71362305 67.88330078 C149.57062744 67.88056152 148.42763184 67.87782227 147.25 67.875 C146.0535083 67.8941748 144.8570166 67.91334961 143.62426758 67.93310547 C140.0824586 67.98283335 136.54211111 67.99384427 133 68 C131.18616451 68.02360067 129.37235524 68.04939485 127.55859375 68.078125 C114.02532285 68.24209193 100.1544274 68.25064747 86.72265625 66.47265625 C78.59603524 65.44083973 70.49840803 65.91088485 62.375 66.78125 C56.14473547 67.35509015 49.86288457 66.66520367 43.63769531 66.25537109 C41.63908688 66.12591247 39.63984991 66.00628024 37.640625 65.88671875 C36.36960937 65.80292969 35.09859375 65.71914063 33.7890625 65.6328125 C32.63100098 65.55949707 31.47293945 65.48618164 30.27978516 65.41064453 C26.94747647 64.99342381 24.14301003 64.16096136 21 63 C19.865625 62.62875 18.73125 62.2575 17.5625 61.875 C10.70420537 58.84035636 6.45523899 52.07424207 3.69140625 45.35546875 C2.95117812 42.83367463 2.71897532 40.55745849 2.5625 37.9375 C2.27383191 33.27551038 0.83709453 30.65071581 -1.7890625 26.86328125 C-4.96470506 21.97688932 -6.0453083 15.71367548 -5 10 C-3.57222581 6.52259876 -1.86966857 3.25856521 0 0 Z M2 3 C-1.20056327 7.39571031 -3.17210159 11.0337393 -2.6875 16.5703125 C-0.75050496 24.17301803 1.40130732 28.68547017 8 33 C8.309375 32.05125 8.61875 31.1025 8.9375 30.125 C10 27 10 27 11 25 C10.67 24.34 10.34 23.68 10 23 C12.31 23.33 14.62 23.66 17 24 C17 24.66 17 25.32 17 26 C16.401875 26.185625 15.80375 26.37125 15.1875 26.5625 C11.99950687 28.65746692 11.45644444 31.54094446 10 35 C7.8125 36.9375 7.8125 36.9375 6 38 C6.43386428 44.79720708 8.71901136 50.62717707 13.53515625 55.578125 C25.47522139 64.94952365 42.73368679 63.15052382 57 63 C56.98710937 61.8965625 56.97421875 60.793125 56.9609375 59.65625 C57 56 57 56 57.625 53.5 C58.20619921 50.81449175 58.20619921 50.81449175 57 47.5625 C55.9369034 43.77521835 56.32627014 41.78973046 57 38 C56.17657468 35.68019054 56.17657468 35.68019054 55 34 C57.92512762 36.43505389 57.92512762 36.43505389 58.2578125 38.9453125 C58.21398437 39.66460937 58.17015625 40.38390625 58.125 41.125 C57.96429211 45.84675096 58.3919686 50.32341282 59 55 C59.17893286 56.42571265 59.3572786 57.85149906 59.53515625 59.27734375 C59.68855469 60.50582031 59.84195313 61.73429687 60 63 C61.31613281 62.90460938 62.63226563 62.80921875 63.98828125 62.7109375 C80.13303317 61.64939006 80.13303317 61.64939006 87.84765625 63.453125 C102.6439952 66.02002395 120.17962869 66.37125941 135 64 C137.44251927 57.47348346 138.25867587 53.77602761 136 47 C136.9375 44.1875 136.9375 44.1875 138 42 C137.67 41.34 137.34 40.68 137 40 C136.01 40 135.02 40 134 40 C134 39.01 134 38.02 134 37 C135.9375 37.625 135.9375 37.625 138 39 C139.0723094 42.79432556 138.93231135 45.27075458 138 49 C138.165 49.886875 138.33 50.77375 138.5 51.6875 C139.14190299 55.94010731 138.61116813 59.76883603 138 64 C142.67661056 64.08468711 147.17531996 64.1216741 151.8125 63.4375 C155 63 155 63 157.5 63.8125 C160.60164164 64.04512312 161.18668047 63.41175287 163.5625 61.5 C166.91032743 58.34098713 169.11705826 55.18047615 171 51 C171.32226562 50.35546875 171.64453125 49.7109375 171.9765625 49.046875 C175.54148085 40.6770667 173.41424912 31.35760137 170.5625 23 C167.88947491 17.47850029 162.37709586 15.36406801 157 13 C155.91599105 18.7175801 155.91599105 18.7175801 157.25 24.25 C158.42159507 30.10797537 155.88541581 34.90217422 153 40 C152.01 40.66 151.02 41.32 150 42 C150.52851562 41.04738281 151.05703125 40.09476562 151.6015625 39.11328125 C152.27698801 37.84685843 152.95141527 36.57990285 153.625 35.3125 C153.975625 34.68666016 154.32625 34.06082031 154.6875 33.41601562 C156.32195389 30.29420869 157.16831634 28.6373228 156.25 25.16015625 C155.63125 24.09087891 155.63125 24.09087891 155 23 C154.07556986 20.22670957 154.0267192 18.50124151 154.1875 15.5 C154.2816013 12.06955642 154.2816013 12.06955642 152.65625 9.80078125 C148.45579586 6.95312043 144.2592073 7.53860246 139.3125 7.6875 C138.33732422 7.69716797 137.36214844 7.70683594 136.35742188 7.71679688 C131.83867632 7.38617701 131.83867632 7.38617701 128 9 C125.98035801 9.07244053 123.95832876 9.08377188 121.9375 9.0625 C120.83277344 9.05347656 119.72804688 9.04445312 118.58984375 9.03515625 C117.73519531 9.02355469 116.88054687 9.01195312 116 9 C116.01160156 9.61746094 116.02320313 10.23492187 116.03515625 10.87109375 C116.08894661 15.91970297 115.92444046 20.82368002 115.27734375 25.83203125 C115.0915947 27.28401325 114.9381839 28.74047797 114.81640625 30.19921875 C114.44335142 34.31804865 113.90156943 36.97227538 111 40 C111 37.59411466 111.70979414 35.99839035 112.5625 33.75 C113.96505902 29.6916695 113.84584573 27.22922865 113 23 C113.350625 22.01 113.70125 21.02 114.0625 20 C115.41997215 15.65608912 113.96348052 12.92696104 112 9 C104.74 9 97.48 9 90 9 C88.53691078 15.88512576 87.86947155 21.09121505 89 28 C88.67 28.66 88.34 29.32 88 30 C87.34 29.67 86.68 29.34 86 29 C86.495 28.505 86.495 28.505 87 28 C87.13961241 24.92852697 87.04131994 22.20659968 86.4375 19.1875 C86.293125 18.465625 86.14875 17.74375 86 17 C86.33 16.67 86.66 16.34 87 16 C87.04063832 14.33382885 87.042721 12.66611905 87 11 C86.34 11 85.68 11 85 11 C84.505 9.515 84.505 9.515 84 8 C78.21590487 7.97529951 72.43184038 7.95713977 66.64770508 7.94506836 C64.67960068 7.9400365 62.71150003 7.93321042 60.7434082 7.92456055 C57.91616899 7.91244483 55.08897916 7.90676024 52.26171875 7.90234375 C50.93970711 7.89460182 50.93970711 7.89460182 49.59098816 7.88670349 C48.3600518 7.88659019 48.3600518 7.88659019 47.10424805 7.88647461 C46.38254929 7.884254 45.66085052 7.88203339 44.9172821 7.87974548 C42.77773199 7.93174401 42.77773199 7.93174401 40 9 C39.19078631 11.69737896 38.54117383 14.25209793 38 17 C37.7215625 18.2065625 37.7215625 18.2065625 37.4375 19.4375 C36.97731213 21.91344677 36.97731213 21.91344677 36.82421875 24.09375 C36.40332248 29.04547086 35.57856056 32.62765819 33 37 C32.01 37 31.02 37 30 37 C30.639375 36.29875 31.27875 35.5975 31.9375 34.875 C34.20191565 31.71854182 34.59487586 29.80816696 35 26 C35.20625 25.319375 35.4125 24.63875 35.625 23.9375 C36.15393796 21.88232882 36.15393796 21.88232882 35.4375 19.375 C35.293125 18.59125 35.14875 17.8075 35 17 C35.66 16.34 36.32 15.68 37 15 C36.67801034 11.90073181 36.67801034 11.90073181 36 9 C34.51113281 8.94392578 34.51113281 8.94392578 32.9921875 8.88671875 C10.69180146 7.87331587 10.69180146 7.87331587 2 3 Z " fill="#101010" transform="translate(429,216)"/>
<path d="M0 0 C5.75357073 2.82448017 7.96249405 6.2697212 10.1875 12.125 C12.00240114 16.55182235 14.94001043 20.11534669 17.8671875 23.86328125 C24.47339211 33.57899975 26.11994615 42.3245517 27.29492188 53.89453125 C27.96559077 60.45033179 27.96559077 60.45033179 31.640625 65.65234375 C35.32007072 67.12840046 38.95196444 68.31604728 42.8125 69.1875 C43.52607666 69.35475586 44.23965332 69.52201172 44.97485352 69.69433594 C60.07976752 73.14393681 75.10116486 72.21164824 90.4375 71 C100.02798854 70.25491184 109.56680392 69.78319628 119.1875 69.75 C120.24316162 69.74097656 121.29882324 69.73195313 122.38647461 69.72265625 C131.65883423 69.75850011 139.43018731 71.57207492 148 75 C148.26554688 74.37351562 148.53109375 73.74703125 148.8046875 73.1015625 C149.15789062 72.28429687 149.51109375 71.46703125 149.875 70.625 C150.22304688 69.81289062 150.57109375 69.00078125 150.9296875 68.1640625 C152 66 152 66 154 64 C157.44502033 63.55064952 159.34745776 63.62221239 162.375 65.375 C164.24965743 68.40329278 164.10654586 69.52687594 163.9375 73 C163.75330151 75.61642136 163.75330151 75.61642136 164 78 C166.41880929 80.26877535 166.41880929 80.26877535 169 82 C169.3125 85.25 169.3125 85.25 169 88 C168.01 87.67 167.02 87.34 166 87 C165.690625 86.195625 165.38125 85.39125 165.0625 84.5625 C164.12804732 81.51824821 164.12804732 81.51824821 160 80 C160 76.37 160 72.74 160 69 C158.68 68.34 157.36 67.68 156 67 C154.27735506 70.29549466 152.70554068 73.33118845 152 77 C152.66 77 153.32 77 154 77 C154 77.66 154 78.32 154 79 C149.03624809 78.68484115 145.54470547 78.30720167 141.1484375 75.9765625 C134.57375966 72.95890003 127.63306284 73.49043301 120.5625 73.625 C119.09237342 73.63808645 117.62223945 73.65036445 116.15209961 73.66186523 C106.01105668 73.77821363 95.95959068 74.44557166 85.8581543 75.34912109 C76.7807937 76.12352022 68.05140149 75.9170073 59 75 C58.30729004 74.93796387 57.61458008 74.87592773 56.90087891 74.81201172 C35.30503862 72.84875351 35.30503862 72.84875351 26.8125 66.6875 C23.92332444 62.3865682 23.90244509 56.78804324 23.38671875 51.76171875 C22.02769249 38.54209964 17.84327527 28.29642664 8 19 C7.67 19.66 7.34 20.32 7 21 C6.01 21 5.02 21 4 21 C4.2784375 19.205625 4.2784375 19.205625 4.5625 17.375 C5.00060096 13.68056652 5.17044321 10.59493272 4 7 C0.00286373 3.37759525 -4.84028087 3.32599533 -10 3 C-11.97103025 7.18843928 -12 8.99852013 -12 14 C-25.365 14.495 -25.365 14.495 -39 15 C-39 14.34 -39 13.68 -39 13 C-31.27111181 11.04596958 -23.94957992 10.77571718 -16 11 C-15.81244141 9.60394531 -15.81244141 9.60394531 -15.62109375 8.1796875 C-13.95590859 -0.34522268 -7.48244548 -1.29503864 0 0 Z " fill="#171717" transform="translate(172,156)"/>
<path d="M0 0 C5.75357073 2.82448017 7.96249405 6.2697212 10.1875 12.125 C11.60568633 15.58417407 13.63268473 18.32975792 15.875 21.3125 C25.60675023 34.42531787 27.42428064 45.85376445 27 62 C23.77027668 59.22889415 23.56173428 57.0075624 23.22924805 52.79248047 C23.17422119 51.99471191 23.11919434 51.19694336 23.0625 50.375 C22.44638254 43.56740706 21.57727186 37.94567254 18 32 C17.60554688 31.29617187 17.21109375 30.59234375 16.8046875 29.8671875 C14.32403501 25.63915716 11.61416246 22.3043771 8 19 C7.67 19.66 7.34 20.32 7 21 C6.01 21 5.02 21 4 21 C4.2784375 19.205625 4.2784375 19.205625 4.5625 17.375 C5.00060096 13.68056652 5.17044321 10.59493272 4 7 C0.00286373 3.37759525 -4.84028087 3.32599533 -10 3 C-11.97103025 7.18843928 -12 8.99852013 -12 14 C-25.365 14.495 -25.365 14.495 -39 15 C-39 14.34 -39 13.68 -39 13 C-31.27111181 11.04596958 -23.94957992 10.77571718 -16 11 C-15.81244141 9.60394531 -15.81244141 9.60394531 -15.62109375 8.1796875 C-13.95590859 -0.34522268 -7.48244548 -1.29503864 0 0 Z " fill="#1E1E1E" transform="translate(172,156)"/>
<path d="M0 0 C4.91432378 0.32225074 8.12384767 1.56134767 11.625 5.0625 C13.09168267 7.76428386 13.46742025 10.2132982 13.8125 13.25 C13.1525 13.25 12.4925 13.25 11.8125 13.25 C11.44125 12.156875 11.07 11.06375 10.6875 9.9375 C9.38510133 6.89652197 8.86281813 6.28281617 5.9375 4.375 C3.20745733 3.39218464 0.67842693 2.67145984 -2.1875 2.25 C-2.93802396 5.07248328 -3.49319258 7.85421384 -3.875 10.75 C-3.98199219 11.5028125 -4.08898437 12.255625 -4.19921875 13.03125 C-4.18547424 15.63354478 -3.40027697 16.98243232 -2.1875 19.25 C-2.1875 20.24 -2.1875 21.23 -2.1875 22.25 C-2.72117187 22.37375 -3.25484375 22.4975 -3.8046875 22.625 C-12.67702824 25.08101128 -19.91593379 30.71919112 -25.1875 38.25 C-27.07781968 42.70139796 -27.54037184 46.81740255 -27.8125 51.625 C-27.88726562 52.87023437 -27.96203125 54.11546875 -28.0390625 55.3984375 C-28.08804688 56.33945313 -28.13703125 57.28046875 -28.1875 58.25 C-30.49703344 56.45505757 -31.13846377 55.54819329 -31.62109375 52.61328125 C-31.62990446 45.7321132 -30.8829876 41.0571948 -27.1875 35.25 C-26.73375 34.3425 -26.28 33.435 -25.8125 32.5 C-23.68019395 29.54757625 -21.27298005 28.19270966 -18.1875 26.25 C-15.85042741 24.4043119 -13.53867866 22.531798 -11.23828125 20.640625 C-9.1875 19.25 -9.1875 19.25 -6.1875 19.25 C-6.21070312 18.45335937 -6.23390625 17.65671875 -6.2578125 16.8359375 C-6.43977712 6.1520149 -6.43977712 6.1520149 -4.1875 1.25 C-3.1875 0.25 -3.1875 0.25 0 0 Z " fill="#181818" transform="translate(117.1875,155.75)"/>
<path d="M0 0 C0.33 0 0.66 0 1 0 C1.165 0.9075 1.33 1.815 1.5 2.75 C3.20332578 6.44053919 4.77822353 7.51799754 8.4609375 9.125 C21.9668852 13.77935736 35.46769038 14.14496218 49.5625 14.0625 C51.06314955 14.0574746 52.56380072 14.05291353 54.06445312 14.04882812 C57.70966977 14.03790576 61.35482422 14.02069856 65 14 C64.67 14.99 64.34 15.98 64 17 C52.38081594 18.11105101 41.18159269 18.02211001 29.5625 16.8125 C28.41555664 16.6993042 27.26861328 16.5861084 26.08691406 16.46948242 C5.13739984 14.07899644 5.13739984 14.07899644 -0.375 7.9375 C-0.91125 6.968125 -1.4475 5.99875 -2 5 C-1 2 -1 2 0 0 Z " fill="#131313" transform="translate(199,214)"/>
<path d="M0 0 C0.33 0.99 0.66 1.98 1 3 C1.66 3 2.32 3 3 3 C3.21914063 3.95261719 3.43828125 4.90523437 3.6640625 5.88671875 C5.38891549 13.98459627 5.38891549 13.98459627 10.25 20.375 C11.1575 20.91125 12.065 21.4475 13 22 C13.144375 21.2575 13.28875 20.515 13.4375 19.75 C13.90187492 17.47972261 14.41863569 15.24240521 15 13 C17.31 13.33 19.62 13.66 22 14 C22 14.66 22 15.32 22 16 C21.38125 16.4125 20.7625 16.825 20.125 17.25 C17.36840385 19.52013801 17.04983163 21.64053879 16 25 C14.5 26.875 14.5 26.875 13 28 C12.34 28 11.68 28 11 28 C10.01 30.475 10.01 30.475 9 33 C8.67 33 8.34 33 8 33 C7.98582031 32.3709375 7.97164063 31.741875 7.95703125 31.09375 C7.63073728 25.23809599 6.53814961 21.66177502 3.2109375 16.86328125 C-0.21664757 11.58922294 -0.21195647 6.04075942 0 0 Z " fill="#131313" transform="translate(424,226)"/>
<path d="M0 0 C1.26328125 0.02707031 2.5265625 0.05414063 3.828125 0.08203125 C4.79234375 0.11683594 5.7565625 0.15164062 6.75 0.1875 C6.75 0.8475 6.75 1.5075 6.75 2.1875 C5.94175781 2.20167969 5.13351563 2.21585938 4.30078125 2.23046875 C-2.41712918 2.51703359 -2.41712918 2.51703359 -8.5 5.125 C-10.92356313 9.36623547 -11.51454039 13.42687736 -10.25 18.1875 C-7.52017388 21.86366584 -6.01950539 23.0431679 -1.48046875 23.89453125 C-0.13365134 23.95365982 1.21443526 23.98838987 2.5625 24 C3.25537109 24.02513672 3.94824219 24.05027344 4.66210938 24.07617188 C6.35747122 24.13463263 8.05379287 24.16403047 9.75 24.1875 C9.42 25.1775 9.09 26.1675 8.75 27.1875 C6.18508544 27.12721999 3.62578243 27.04012053 1.0625 26.9375 C0.34126953 26.92332031 -0.37996094 26.90914062 -1.12304688 26.89453125 C-5.98095737 26.67270885 -8.79623567 25.92056283 -12.25 22.1875 C-12.25 21.1975 -12.25 20.2075 -12.25 19.1875 C-12.91 19.1875 -13.57 19.1875 -14.25 19.1875 C-14.25 15.8875 -14.25 12.5875 -14.25 9.1875 C-13.59 9.1875 -12.93 9.1875 -12.25 9.1875 C-12.1675 8.259375 -12.085 7.33125 -12 6.375 C-11.25 3.1875 -11.25 3.1875 -9.65625 1.5 C-6.33614668 -0.31096545 -3.75491376 -0.10430316 0 0 Z " fill="#2A2A2A" transform="translate(124.25,192.8125)"/>
<path d="M0 0 C0.33 0 0.66 0 1 0 C1.50588674 8.09418785 -0.88682972 14.6430856 -6 21 C-9.37910814 24.64092766 -12.09547378 26.90897485 -17.1875 27.15234375 C-20.16546891 26.90300909 -23.06154998 26.53871584 -26 26 C-25 24 -25 24 -22.25 22.8125 C-19 22 -19 22 -16.5 22.6875 C-13.74666541 23.30521575 -13.74666541 23.30521575 -10.9375 21 C-5.5370475 15.94573035 -3.49663324 10.00430842 -1.61328125 3.0390625 C-1 1 -1 1 0 0 Z " fill="#060606" transform="translate(603,256)"/>
<path d="M0 0 C1.32 0.33 2.64 0.66 4 1 C2.53743342 5.1363211 0.48155363 8.45421154 -2 12.0625 C-4.7851837 16.02038321 -4.7851837 16.02038321 -6.9296875 20.32421875 C-8 22 -8 22 -10.3828125 22.609375 C-11.28773438 22.65578125 -12.19265625 22.7021875 -13.125 22.75 C-14.03507813 22.80671875 -14.94515625 22.8634375 -15.8828125 22.921875 C-16.58148438 22.94765625 -17.28015625 22.9734375 -18 23 C-18.103125 23.94875 -18.20625 24.8975 -18.3125 25.875 C-19 29 -19 29 -22 31 C-22.41454364 26.77165483 -22.46495343 24.66837056 -20 21.125 C-17 19 -17 19 -13.125 18.9375 C-11.00925507 18.937292 -11.00925507 18.937292 -9 18 C-6.81210098 15.1291981 -5.18873584 12.18991004 -3.54296875 8.98046875 C-2.20975015 6.40516294 -0.81367614 4.24939413 1 2 C0.67 1.34 0.34 0.68 0 0 Z " fill="#1E1E1E" transform="translate(262,246)"/>
<path d="M0 0 C0.66 0.66 1.32 1.32 2 2 C1.67 2.680625 1.34 3.36125 1 4.0625 C-0.18453566 6.99578446 -0.18453566 6.99578446 0.0625 10.25 C-0.02360065 15.41603921 -1.03554646 20.83957907 -4.60546875 24.765625 C-5.06566406 25.17296875 -5.52585937 25.5803125 -6 26 C-6.99 25.67 -7.98 25.34 -9 25 C-8.360625 24.13375 -7.72125 23.2675 -7.0625 22.375 C-4.99019986 18.98396341 -4.42247465 16.88676677 -4 13 C-3.79375 12.319375 -3.5875 11.63875 -3.375 10.9375 C-2.83067246 8.89287506 -2.83067246 8.89287506 -3.6875 6.5 C-3.790625 5.675 -3.89375 4.85 -4 4 C-2.0625 1.6875 -2.0625 1.6875 0 0 Z " fill="#000000" transform="translate(467,229)"/>
<path d="M0 0 C4.91432378 0.32225074 8.12384767 1.56134767 11.625 5.0625 C13.09168267 7.76428386 13.46742025 10.2132982 13.8125 13.25 C13.1525 13.25 12.4925 13.25 11.8125 13.25 C11.44125 12.156875 11.07 11.06375 10.6875 9.9375 C9.38510133 6.89652197 8.86281813 6.28281617 5.9375 4.375 C3.20745733 3.39218464 0.67842693 2.67145984 -2.1875 2.25 C-3.1755383 5.86457345 -3.5548245 9.40756127 -3.90625 13.12890625 C-4.1875 15.25 -4.1875 15.25 -5.1875 18.25 C-7.38406797 13.85686406 -6.47794809 8.33433952 -5.25 3.75 C-3.78232759 0.29665314 -3.78232759 0.29665314 0 0 Z " fill="#101010" transform="translate(117.1875,155.75)"/>
<path d="M0 0 C2.60427663 2.60427663 2.50528695 4.39566205 3 8 C3.32871094 9.1446875 3.32871094 9.1446875 3.6640625 10.3125 C4.10572171 13.84577369 3.19396203 15.92627731 1.8125 19.1875 C1.38582031 20.23292969 0.95914063 21.27835938 0.51953125 22.35546875 C-1.09002716 25.15667966 -2.00308155 25.95396637 -5 27 C-4.00734643 24.46170776 -2.98445893 21.96695587 -1.82421875 19.5 C-0.69196301 17.00981554 0.30720879 14.64839171 1 12 C-0.20968895 9.2332494 -0.20968895 9.2332494 -2 7 C-1.58333333 1.58333333 -1.58333333 1.58333333 0 0 Z " fill="#000000" transform="translate(584,231)"/>
<path d="M0 0 C2 2 2 2 2.01171875 4.3203125 C1.90472656 5.24585938 1.79773438 6.17140625 1.6875 7.125 C1.51927734 8.60226563 1.51927734 8.60226563 1.34765625 10.109375 C1.23292969 11.06328125 1.11820313 12.0171875 1 13 C0.93683594 13.76828125 0.87367188 14.5365625 0.80859375 15.328125 C0.42512106 19.6034375 -0.49052942 22.50856266 -3 26 C-3.99 25.34 -4.98 24.68 -6 24 C-5.34 23.34 -4.68 22.68 -4 22 C-3.27982196 19.71171706 -3.27982196 19.71171706 -2.8125 17.125 C-2.63332031 16.26132813 -2.45414063 15.39765625 -2.26953125 14.5078125 C-1.85548873 12.05460461 -1.85548873 12.05460461 -2.5390625 9.9453125 C-3.13919757 7.41253908 -2.55294951 6.12707883 -1.5625 3.75 C-1.27503906 3.04359375 -0.98757813 2.3371875 -0.69140625 1.609375 C-0.34916016 0.81273437 -0.34916016 0.81273437 0 0 Z " fill="#000000" transform="translate(544,231)"/>
<path d="M0 0 C0.99 0.66 1.98 1.32 3 2 C3 2.99 3 3.98 3 5 C-10.365 5.495 -10.365 5.495 -24 6 C-24 5.34 -24 4.68 -24 4 C-21.00293305 3.13036913 -18.35043474 2.88236901 -15.234375 2.90234375 C-14.34492188 2.90556641 -13.45546875 2.90878906 -12.5390625 2.91210938 C-11.61867187 2.92048828 -10.69828125 2.92886719 -9.75 2.9375 C-8.81414062 2.94201172 -7.87828125 2.94652344 -6.9140625 2.95117188 C-4.60930959 2.96293082 -2.30468773 2.97936574 0 3 C0 2.01 0 1.02 0 0 Z " fill="#0B0B0B" transform="translate(157,165)"/>
<path d="M0 0 C1.27230469 0.01804688 2.54460937 0.03609375 3.85546875 0.0546875 C5.31919922 0.08949219 5.31919922 0.08949219 6.8125 0.125 C6.8125 0.785 6.8125 1.445 6.8125 2.125 C6.00425781 2.13917969 5.19601563 2.15335938 4.36328125 2.16796875 C-2.32918094 2.41809458 -2.32918094 2.41809458 -8.3125 5.125 C-10.72990729 8.99285166 -11.53423783 12.64966665 -12.1875 17.125 C-12.5175 17.125 -12.8475 17.125 -13.1875 17.125 C-13.50115567 11.16554222 -13.03752662 7.40282708 -10.1875 2.125 C-6.4507157 -0.36618953 -4.44298181 -0.0815226 0 0 Z " fill="#232323" transform="translate(124.1875,192.875)"/>
<path d="M0 0 C2.203125 0.55078125 2.203125 0.55078125 5.890625 1.86328125 C5.890625 2.19328125 5.890625 2.52328125 5.890625 2.86328125 C3.250625 2.86328125 0.610625 2.86328125 -2.109375 2.86328125 C-2.3775 3.60578125 -2.645625 4.34828125 -2.921875 5.11328125 C-4.13319534 7.91844414 -4.93090842 9.72112245 -7.109375 11.86328125 C-10.46484375 12.25390625 -10.46484375 12.25390625 -14.296875 12.11328125 C-15.56917969 12.0771875 -16.84148437 12.04109375 -18.15234375 12.00390625 C-19.12816406 11.9575 -20.10398438 11.91109375 -21.109375 11.86328125 C-21.109375 11.53328125 -21.109375 11.20328125 -21.109375 10.86328125 C-16.819375 10.86328125 -12.529375 10.86328125 -8.109375 10.86328125 C-7.779375 8.88328125 -7.449375 6.90328125 -7.109375 4.86328125 C-3.60521988 -0.23367166 -3.60521988 -0.23367166 0 0 Z " fill="#3B3B3B" transform="translate(164.109375,156.13671875)"/>
<path d="M0 0 C6.12913259 -0.4226988 9.04691633 -0.00963916 14 4 C16 6 16 6 16.125 9.125 C16.08375 10.07375 16.0425 11.0225 16 12 C15.46375 11.2575 14.9275 10.515 14.375 9.75 C9.86643355 4.52955464 5.86359876 2.5490879 -1 2 C-0.67 1.34 -0.34 0.68 0 0 Z " fill="#111111" transform="translate(164,156)"/>
<path d="M0 0 C1.875 0.1875 1.875 0.1875 4 1 C6.38879811 4.98133018 5.79447983 7.58622317 5 12 C5.2644354 14.34214207 5.58244638 16.68025766 6 19 C5.01 18.67 4.02 18.34 3 18 C0.62790698 11.22259136 0.62790698 11.22259136 1.875 7.125 C2.24625 6.42375 2.6175 5.7225 3 5 C3 4.34 3 3.68 3 3 C2.01 3 1.02 3 0 3 C0 2.01 0 1.02 0 0 Z " fill="#000000" transform="translate(563,253)"/>
<path d="M0 0 C0.99 0 1.98 0 3 0 C3.33 1.98 3.66 3.96 4 6 C3.12988281 6.25523437 3.12988281 6.25523437 2.2421875 6.515625 C-2.80356871 8.08097511 -6.75955006 9.84684491 -11 13 C-9.43903239 9.16853404 -7.08588695 6.71851946 -4 4 C-1.6875 3.1875 -1.6875 3.1875 0 3 C0 2.01 0 1.02 0 0 Z " fill="#2A2A2A" transform="translate(111,172)"/>
<path d="M0 0 C0.99 0.33 1.98 0.66 3 1 C4.00344253 7.30735307 4.50873071 13.63440427 5 20 C4.01 19.67 3.02 19.34 2 19 C-0.08254633 13.95301272 -0.10550722 9.28186783 1 4 C0.6422386 1.72349255 0.6422386 1.72349255 0 0 Z " fill="#000000" transform="translate(484,250)"/>
<path d="M0 0 C0.33 0 0.66 0 1 0 C0.94199219 0.67546875 0.88398438 1.3509375 0.82421875 2.046875 C0.68629339 4.77385643 0.63572473 7.29150621 1 10 C3.41880929 12.26877535 3.41880929 12.26877535 6 14 C6.3125 17.25 6.3125 17.25 6 20 C5.01 19.67 4.02 19.34 3 19 C2.690625 18.195625 2.38125 17.39125 2.0625 16.5625 C1.23391841 13.85842507 1.23391841 13.85842507 -1.125 12.6875 C-1.74375 12.460625 -2.3625 12.23375 -3 12 C-3 10.68 -3 9.36 -3 8 C-2.34 7.67 -1.68 7.34 -1 7 C-0.59270772 4.67843403 -0.25561323 2.3431213 0 0 Z " fill="#242424" transform="translate(335,224)"/>
<path d="M0 0 C0.66 0.33 1.32 0.66 2 1 C1.814375 1.66 1.62875 2.32 1.4375 3 C1.03842212 5.73653403 1.13760553 7.4471767 1.5625 10.125 C2 14 2 14 0 17 C-0.99 16.67 -1.98 16.34 -3 16 C-2.67 15.34 -2.34 14.68 -2 14 C-1.86270799 10.91092972 -1.91919487 8.31587458 -2.6875 5.3125 C-2.790625 4.549375 -2.89375 3.78625 -3 3 C-1.5625 1.1875 -1.5625 1.1875 0 0 Z " fill="#000000" transform="translate(517,230)"/>
<path d="M0 0 C1.75 0.9375 1.75 0.9375 2.75 2.9375 C0.77 3.2675 -1.21 3.5975 -3.25 3.9375 C-3.353125 4.88625 -3.45625 5.835 -3.5625 6.8125 C-4.25 9.9375 -4.25 9.9375 -7.25 11.9375 C-7.68497796 7.50072479 -7.72502251 5.57086334 -5 1.9375 C-2.25 -0.0625 -2.25 -0.0625 0 0 Z " fill="#2E2E2E" transform="translate(247.25,265.0625)"/>
<path d="M0 0 C0.66 0 1.32 0 2 0 C1.34 2.31 0.68 4.62 0 7 C-2.375 7.625 -2.375 7.625 -5 8 C-5.66 7.34 -6.32 6.68 -7 6 C-6.21625 5.7525 -5.4325 5.505 -4.625 5.25 C-1.67682892 3.84610901 -1.0975223 2.99324263 0 0 Z " fill="#111111" transform="translate(255,260)"/>
<path d="M0 0 C0.33 0 0.66 0 1 0 C1.33 5.94 1.66 11.88 2 18 C-0.49059397 13.01881207 -1.2136995 10.24901803 -0.5625 4.75 C-0.46066406 3.85796875 -0.35882812 2.9659375 -0.25390625 2.046875 C-0.17011719 1.37140625 -0.08632813 0.6959375 0 0 Z " fill="#242424" transform="translate(603,242)"/>
<path d="M0 0 C-2.54456151 2.96865509 -5.48994665 4.3619751 -9 6 C-8.8125 4.1875 -8.8125 4.1875 -8 2 C-3.744 -1.248 -3.744 -1.248 0 0 Z " fill="#212121" transform="translate(117,266)"/>
<path d="M0 0 C0.66 0 1.32 0 2 0 C1.67 1.65 1.34 3.3 1 5 C-0.98 5 -2.96 5 -5 5 C-4 3 -4 3 -1 2 C-0.67 1.34 -0.34 0.68 0 0 Z " fill="#181818" transform="translate(121,262)"/>
</svg>
