<?xml version="1.0" encoding="UTF-8"?>
<svg version="1.1" xmlns="http://www.w3.org/2000/svg" width="800" height="300">
<path d="M0 0 C264 0 528 0 800 0 C800 99 800 198 800 300 C536 300 272 300 0 300 C0 201 0 102 0 0 Z " fill="#FEFEFE" transform="translate(0,0)"/>
<path d="M0 0 C5.19072722 0.70382742 8.33641885 2.11240314 12 5.875 C13.72218033 8.55394719 14.16516148 10.4073422 14.6875 13.5 C15.33074219 13.355625 15.97398438 13.21125 16.63671875 13.0625 C24.05829771 11.53795311 31.12610122 11.28361657 38.6875 11.5 C38.81253906 10.56929687 38.93757813 9.63859375 39.06640625 8.6796875 C39.90710233 4.37574654 41.08732205 2.99808266 44.6875 0.5 C49.70478556 -0.4616464 53.54154827 -0.06255812 58.125 2.1875 C61.62975106 5.35032413 63.20766111 8.23726607 64.875 12.625 C66.74864494 17.1938882 69.78891981 20.93710421 72.75 24.8515625 C79.77090794 34.4486907 81.24184227 44.54831808 82.24023438 56.171875 C82.85532255 61.80294511 82.85532255 61.80294511 86.48046875 66.03125 C104.81511196 74.42811461 125.55544471 73.02931015 145.125 71.5 C154.7156026 70.75580619 164.25422403 70.28319655 173.875 70.25 C174.93066162 70.24097656 175.98632324 70.23195313 177.07397461 70.22265625 C186.34633423 70.25850011 194.11768731 72.07207492 202.6875 75.5 C202.95304688 74.87351562 203.21859375 74.24703125 203.4921875 73.6015625 C203.84539062 72.78429687 204.19859375 71.96703125 204.5625 71.125 C204.91054688 70.31289062 205.25859375 69.50078125 205.6171875 68.6640625 C206.6875 66.5 206.6875 66.5 208.6875 64.5 C212.74011287 64.15509678 214.23504176 64.19836118 217.6875 66.5 C218.67733807 69.46951422 218.66277787 70.90136868 218.4375 73.9375 C218.32819522 76.31959909 218.32819522 76.31959909 218.6875 78.5 C221.1265706 80.70142332 221.1265706 80.70142332 223.6875 82.5 C224.44749656 86.38442688 223.81389393 88.23204488 222.125 91.8125 C219.6875 94.5 219.6875 94.5 216.5 95.375 C215.241875 95.41625 213.98375 95.4575 212.6875 95.5 C212.02878906 95.56058594 211.37007812 95.62117188 210.69140625 95.68359375 C205.95817777 95.97019291 202.33797859 95.13968578 197.875 93.5625 C189.02937901 90.58236817 179.94635586 90.68462325 170.6875 90.5 C170.96464844 91.25925781 171.24179687 92.01851563 171.52734375 92.80078125 C171.88957031 93.79464844 172.25179687 94.78851563 172.625 95.8125 C173.16447266 97.29169922 173.16447266 97.29169922 173.71484375 98.80078125 C174.39635965 100.6920563 175.0517811 102.59284329 175.6875 104.5 C176.30238281 104.46519531 176.91726563 104.43039062 177.55078125 104.39453125 C178.35902344 104.36746094 179.16726563 104.34039062 180 104.3125 C181.20076172 104.26029297 181.20076172 104.26029297 182.42578125 104.20703125 C184.6875 104.5 184.6875 104.5 186.43359375 105.6875 C188.62384537 108.85347118 188.45258798 111.87598205 188.3828125 115.62890625 C187.11023602 120.88364621 183.00600239 123.58462113 178.6875 126.5 C175.50871306 128.08939347 173.1918228 127.91576711 169.6875 127.5 C165.90537715 124.20070134 164.8423895 122.80549722 164.25 117.8125 C164.6875 114.5 164.6875 114.5 166.6875 111.5 C165.73020084 110.37411986 164.77162105 109.2493285 163.8125 108.125 C163.27882813 107.49851562 162.74515625 106.87203125 162.1953125 106.2265625 C161.07317993 104.94163349 159.89378025 103.70628025 158.6875 102.5 C158.0275 102.5 157.3675 102.5 156.6875 102.5 C156.44386719 103.06976563 156.20023438 103.63953125 155.94921875 104.2265625 C154.4676122 106.8962065 152.6465657 108.70943814 150.5 110.875 C148.31256034 113.15999389 148.31256034 113.15999389 146.6875 115.5 C146.99553455 118.68522204 146.99553455 118.68522204 147.6875 121.5 C144.49703354 125.26311428 142.87049918 126.29949166 138 127.125 C132.44732418 126.80154316 127.55026021 124.00289128 122.6875 121.5 C122.27295636 117.27165483 122.22254657 115.16837056 124.6875 111.625 C127.70810271 109.48540641 128.31469423 109.27910717 131.75 109.125 C133.6990625 108.815625 133.6990625 108.815625 135.6875 108.5 C137.7550874 105.77488786 137.7550874 105.77488786 138.6796875 103.62109375 C139.88081497 101.09313943 141.36556359 98.87653662 142.9375 96.5625 C143.45828125 95.79035156 143.9790625 95.01820313 144.515625 94.22265625 C144.90234375 93.65417969 145.2890625 93.08570313 145.6875 92.5 C144.39811523 92.66226074 143.10873047 92.82452148 141.78027344 92.99169922 C136.90637811 93.53066814 132.10283694 93.64460987 127.203125 93.6328125 C125.87452705 93.63479141 125.87452705 93.63479141 124.51908875 93.6368103 C121.65852269 93.6387144 118.79805601 93.63240899 115.9375 93.625 C114.95862823 93.62411377 113.97975647 93.62322754 112.97122192 93.62231445 C99.68873706 93.60820854 86.43796941 93.40243772 73.16625977 92.8581543 C63.6679462 92.46896537 54.19224783 92.39347107 44.6875 92.5 C45.10322266 93.62148437 45.10322266 93.62148437 45.52734375 94.765625 C45.88957031 95.75046875 46.25179687 96.7353125 46.625 97.75 C47.16447266 99.21179688 47.16447266 99.21179688 47.71484375 100.703125 C48.50129655 102.96457161 49.16001601 105.16796552 49.6875 107.5 C50.57501953 107.62955078 50.57501953 107.62955078 51.48046875 107.76171875 C55.69495552 108.51111362 58.31236169 109.22239765 61.8125 111.8125 C63.6875 114.5 63.6875 114.5 63.875 117 C62.213581 120.49772421 59.80882369 122.36884412 56.6875 124.5 C56.01203125 124.97050781 55.3365625 125.44101562 54.640625 125.92578125 C49.10592299 129.40950326 44.20125768 130.739602 37.6875 129.5 C35.0625 127.9375 35.0625 127.9375 33.6875 125.5 C33.21215173 121.69721385 33.00844212 119.48645748 35.21484375 116.28125 C35.94380859 115.39953125 35.94380859 115.39953125 36.6875 114.5 C33.42029209 110.11105071 30.13851522 105.74740335 26.6875 101.5 C26.3575 102.16 26.0275 102.82 25.6875 103.5 C25.0275 103.5 24.3675 103.5 23.6875 103.5 C23.44 104.03625 23.1925 104.5725 22.9375 105.125 C18.7087766 113.15957447 18.7087766 113.15957447 14.6875 114.5 C14.1925 115.985 14.1925 115.985 13.6875 117.5 C13.0275 117.5 12.3675 117.5 11.6875 117.5 C12.0175 118.16 12.3475 118.82 12.6875 119.5 C12.75700541 121.04023996 12.77202357 122.58334988 12.75 124.125 C12.74097656 124.94226563 12.73195312 125.75953125 12.72265625 126.6015625 C12.71105469 127.22804688 12.69945312 127.85453125 12.6875 128.5 C7.68234695 131.58009418 3.43098265 132.53401488 -2.3125 131.5 C-10.5130814 128.09883721 -10.5130814 128.09883721 -12.3125 124.5 C-12.98308266 121.33687426 -13.13512766 118.64285951 -12.3125 115.5 C-8.9127772 111.92290036 -5.16424835 109.64729816 -0.21875 109.25390625 C2.98092068 108.77393213 2.98092068 108.77393213 4.5859375 105.55859375 C5.07320312 104.36363281 5.56046875 103.16867187 6.0625 101.9375 C6.56523438 100.73996094 7.06796875 99.54242188 7.5859375 98.30859375 C7.94945312 97.38175781 8.31296875 96.45492187 8.6875 95.5 C9.3475 95.5 10.0075 95.5 10.6875 95.5 C10.6875 94.84 10.6875 94.18 10.6875 93.5 C9.23730469 93.44392578 9.23730469 93.44392578 7.7578125 93.38671875 C-12.77774793 92.34977461 -12.77774793 92.34977461 -20.3125 85.5 C-28.56458451 73.76462353 -32.68468735 57.7781657 -31.3125 43.5 C-30.33768592 40.55625452 -28.97144328 38.10691087 -27.3125 35.5 C-26.85875 34.5925 -26.405 33.685 -25.9375 32.75 C-23.80519395 29.79757625 -21.39798005 28.44270966 -18.3125 26.5 C-15.97542741 24.6543119 -13.66367866 22.781798 -11.36328125 20.890625 C-9.3125 19.5 -9.3125 19.5 -6.3125 19.5 C-6.34730469 18.54738281 -6.38210937 17.59476563 -6.41796875 16.61328125 C-6.44503906 15.35902344 -6.47210938 14.10476562 -6.5 12.8125 C-6.53480469 11.57113281 -6.56960937 10.32976562 -6.60546875 9.05078125 C-6.18339073 3.93519559 -5.34559056 0.80688159 0 0 Z " fill="#FAFAFA" transform="translate(110.3125,155.5)"/>
<path d="M0 0 C2.8125 -0.1875 2.8125 -0.1875 6 0 C7 1 8 2 9 3 C15.47083003 5.07525149 21.41141432 5.24994212 28.16796875 5.16015625 C29.2571611 5.15463745 30.34635345 5.14911865 31.46855164 5.14343262 C33.8178252 5.13109227 36.16707948 5.11448167 38.51629639 5.09402466 C44.77770738 5.04025787 51.03917966 5.01861565 57.30078125 5 C59.23244141 4.9937838 59.23244141 4.9937838 61.203125 4.98744202 C77.41229646 4.95866797 93.61370822 5.33435472 109.81713867 5.73266602 C110.89429642 5.75735962 111.97145416 5.78205322 113.08125305 5.80749512 C115.09527242 5.85391321 117.10919602 5.90477372 119.12297058 5.96081543 C120.44631157 5.99096741 120.44631157 5.99096741 121.79638672 6.02172852 C122.56457733 6.04171402 123.33276794 6.06169952 124.12423706 6.08229065 C126.0924287 6.12361173 126.0924287 6.12361173 128 5 C131.03566911 4.76089183 134.08095166 4.81479913 137.125 4.8125 C138.37023437 4.79413086 138.37023437 4.79413086 139.640625 4.77539062 C146.3283327 4.75966717 153.1906553 5.34226445 159 9 C159.42667969 9.46148437 159.85335937 9.92296875 160.29296875 10.3984375 C162.9975484 12.93591497 166.33120593 14.35011728 169.625 16.01171875 C174.01917804 19.69039741 174.99427916 24.83672162 175.6171875 30.3671875 C175.72209306 31.86858663 175.80765993 33.37144759 175.875 34.875 C175.91254395 35.66366455 175.95008789 36.4523291 175.98876953 37.26489258 C176.27663329 46.52514559 174.29214193 54.04285919 168 61 C162.69554711 66.38085279 158.19286413 67.70523678 150.71362305 67.88330078 C149.57062744 67.88056152 148.42763184 67.87782227 147.25 67.875 C146.0535083 67.8941748 144.8570166 67.91334961 143.62426758 67.93310547 C140.0824586 67.98283335 136.54211111 67.99384427 133 68 C131.18616451 68.02360067 129.37235524 68.04939485 127.55859375 68.078125 C114.02532285 68.24209193 100.1544274 68.25064747 86.72265625 66.47265625 C78.59603524 65.44083973 70.49840803 65.91088485 62.375 66.78125 C56.14473547 67.35509015 49.86288457 66.66520367 43.63769531 66.25537109 C41.63908688 66.12591247 39.63984991 66.00628024 37.640625 65.88671875 C36.36960937 65.80292969 35.09859375 65.71914063 33.7890625 65.6328125 C32.63100098 65.55949707 31.47293945 65.48618164 30.27978516 65.41064453 C26.94747647 64.99342381 24.14301003 64.16096136 21 63 C19.865625 62.62875 18.73125 62.2575 17.5625 61.875 C10.70420537 58.84035636 6.45523899 52.07424207 3.69140625 45.35546875 C2.95117812 42.83367463 2.71897532 40.55745849 2.5625 37.9375 C2.27383191 33.27551038 0.83709453 30.65071581 -1.7890625 26.86328125 C-4.96470506 21.97688932 -6.0453083 15.71367548 -5 10 C-3.57222581 6.52259876 -1.86966857 3.25856521 0 0 Z " fill="#646464" transform="translate(429,216)"/>
<path d="M0 0 C4.79416508 0.65005628 8.06500165 1.93158492 11.5625 5.3125 C13.02282369 8.15201828 12.90207149 10.35295141 12.6875 13.5 C12.419375 12.9225 12.15125 12.345 11.875 11.75 C9.46737444 7.17030127 9.46737444 7.17030127 5.20703125 4.453125 C4.31371094 4.22109375 3.42039063 3.9890625 2.5 3.75 C1.59894531 3.50765625 0.69789062 3.2653125 -0.23046875 3.015625 C-0.91753906 2.84546875 -1.60460937 2.6753125 -2.3125 2.5 C-3.06302396 5.32248328 -3.61819258 8.10421384 -4 11 C-4.10699219 11.7528125 -4.21398437 12.505625 -4.32421875 13.28125 C-4.31047424 15.88354478 -3.52527697 17.23243232 -2.3125 19.5 C-2.3125 20.49 -2.3125 21.48 -2.3125 22.5 C-2.84617187 22.62375 -3.37984375 22.7475 -3.9296875 22.875 C-12.95769809 25.37410328 -19.77390211 31.03440635 -25.3125 38.5 C-30.61205918 49.62907427 -26.14744156 62.57201889 -22.3125 73.5 C-19.7458954 79.77031249 -17.3246747 83.1018143 -11.3125 86.5 C-8.67100181 87.21563602 -6.24322079 87.76735351 -3.5625 88.1875 C-2.86382812 88.30778564 -2.16515625 88.42807129 -1.4453125 88.55200195 C3.90701543 89.44755405 9.27250224 90.12251218 14.6875 90.5 C15.0175 91.49 15.3475 92.48 15.6875 93.5 C14.6975 93.83 13.7075 94.16 12.6875 94.5 C11.06034327 97.10604 11.06034327 97.10604 9.625 100.25 C9.11839844 101.29671875 8.61179688 102.3434375 8.08984375 103.421875 C6.66113003 106.41661479 6.66113003 106.41661479 5.7421875 109.3203125 C5.22011719 110.39925781 5.22011719 110.39925781 4.6875 111.5 C2.71858415 112.08099156 0.74188587 112.65215625 -1.26953125 113.0625 C-4.24298707 113.69926301 -6.07854868 114.40567064 -8.3125 116.5 C-9.03163365 119.31758922 -9.01731792 121.68072831 -8.3125 124.5 C-5.97410743 126.99428541 -4.18276214 127.4166625 -0.82421875 127.73828125 C1.73665388 127.80869598 4.14800211 127.84609086 6.6875 127.5 C8.99636319 125.6308634 8.99636319 125.6308634 8.875 122.625 C8.72044874 120.04914569 8.35441787 117.96492844 7.6875 115.5 C8.50154297 115.04560547 8.50154297 115.04560547 9.33203125 114.58203125 C13.76460809 111.98637814 16.27083049 110.12319385 18.6875 105.5 C19.80119042 103.87335364 20.95052217 102.27081505 22.125 100.6875 C22.70121094 99.89730469 23.27742188 99.10710937 23.87109375 98.29296875 C25.6875 96.5 25.6875 96.5 29.6875 96.5 C30.26757812 97.60408203 30.26757812 97.60408203 30.859375 98.73046875 C35.46257085 107.70414656 35.46257085 107.70414656 42.6875 114.5 C42.1925 116.48 42.1925 116.48 41.6875 118.5 C40.3675 118.5 39.0475 118.5 37.6875 118.5 C37.6875 120.48 37.6875 122.46 37.6875 124.5 C41.07244669 126.19247334 44.07245919 126.32133727 47.6875 125.5 C51.69270782 123.23687337 55.36726836 120.69206094 58.6875 117.5 C58.6875 116.51 58.6875 115.52 58.6875 114.5 C56.39120006 113.35185003 54.61051914 113.19230191 52.0625 112.9375 C50.83660156 112.81181641 50.83660156 112.81181641 49.5859375 112.68359375 C48.95945312 112.62300781 48.33296875 112.56242187 47.6875 112.5 C45.62100643 107.02379203 43.61400203 101.53032698 41.65234375 96.015625 C40.78583235 93.7563807 39.81247373 91.63995002 38.6875 89.5 C40.26234437 87.92515563 41.82875405 88.37021162 44.015625 88.3671875 C44.94576416 88.36525391 45.87590332 88.36332031 46.83422852 88.36132812 C48.3703479 88.3680957 48.3703479 88.3680957 49.9375 88.375 C51.00218506 88.37693359 52.06687012 88.37886719 53.16381836 88.38085938 C61.53315929 88.42439615 69.88714114 88.68188101 78.25 89 C95.56728813 89.65214885 112.76552807 89.7470866 130.07446289 88.8581543 C136.95491647 88.5076585 143.79710248 88.38299325 150.6875 88.5 C149.80310705 92.86973214 147.44098565 95.86787042 144.8125 99.375 C142.24254943 102.81888188 139.93502492 105.93902968 138.19140625 109.890625 C136.6875 112.5 136.6875 112.5 134.20703125 113.3046875 C133.31371094 113.32789063 132.42039063 113.35109375 131.5 113.375 C130.59894531 113.41367187 129.69789063 113.45234375 128.76953125 113.4921875 C128.08246094 113.49476563 127.39539063 113.49734375 126.6875 113.5 C126.6875 115.48 126.6875 117.46 126.6875 119.5 C132.71231126 121.99302535 137.24502705 123.64749098 143.6875 121.5 C142.9140625 120.3553125 142.9140625 120.3553125 142.125 119.1875 C141.650625 118.300625 141.17625 117.41375 140.6875 116.5 C141.6875 113.5 141.6875 113.5 144.25 112 C150.32395318 108.23503144 154.73631543 100.88419519 157.6875 94.5 C161.86396884 98.4444428 165.33629182 102.4597816 167.6875 107.75 C168.96932353 109.99319118 170.32996152 110.55698461 172.6875 111.5 C172.6875 112.16 172.6875 112.82 172.6875 113.5 C170.6875 115.125 170.6875 115.125 168.6875 116.5 C169.0175 118.48 169.3475 120.46 169.6875 122.5 C173.22472984 123.40487275 175.0589202 123.78571809 178.4375 122.25 C180.89831851 120.52635231 180.89831851 120.52635231 182.6875 117.5 C183.3475 117.5 184.0075 117.5 184.6875 117.5 C184.3575 114.86 184.0275 112.22 183.6875 109.5 C183.03523437 109.56703125 182.38296875 109.6340625 181.7109375 109.703125 C178.67518006 109.75685522 176.53890327 109.58259556 173.6875 108.5 C170.88932629 104.81910344 169.33611225 100.79506875 167.6875 96.5 C167.0461191 95.12291749 166.40131429 93.74741225 165.75 92.375 C165.399375 91.42625 165.04875 90.4775 164.6875 89.5 C165.0175 88.84 165.3475 88.18 165.6875 87.5 C189.5125202 86.74263293 189.5125202 86.74263293 199.57421875 90.609375 C205.77117838 92.38215643 212.30150309 91.79511667 218.6875 91.5 C219.0175 88.86 219.3475 86.22 219.6875 83.5 C218.8625 83.231875 218.0375 82.96375 217.1875 82.6875 C214.6875 80.5 214.6875 80.5 214.35546875 77.8515625 C214.37345038 75.05362123 214.47437688 72.28954481 214.6875 69.5 C213.3675 68.84 212.0475 68.18 210.6875 67.5 C208.96485506 70.79549466 207.39304068 73.83118845 206.6875 77.5 C207.3475 77.5 208.0075 77.5 208.6875 77.5 C208.6875 78.16 208.6875 78.82 208.6875 79.5 C203.64769081 79.17485102 199.77217394 78.66986683 195.21484375 76.4765625 C188.86431728 73.86881308 182.90889221 73.98291253 176.125 74.125 C174.82506104 74.13571533 173.52512207 74.14643066 172.18579102 74.1574707 C165.24148567 74.23840958 158.33118301 74.54644942 151.40625 75.06640625 C150.72252823 75.11756088 150.03880646 75.16871552 149.33436584 75.22142029 C148.65047287 75.27282669 147.9665799 75.32423309 147.26196289 75.37719727 C145.88298827 75.48080483 144.50400064 75.58423938 143.125 75.6875 C142.44533173 75.73881073 141.76566345 75.79012146 141.06539917 75.84298706 C126.54109568 76.89532909 112.03762415 76.18053598 97.6875 73.5 C97.3575 73.17 97.0275 72.84 96.6875 72.5 C95.27708775 72.17945176 93.85878557 71.89325589 92.4375 71.625 C87.82333137 70.6289255 84.42706009 69.33933535 81.12109375 65.84375 C79.20031454 62.70351151 79.0110028 60.02516244 78.625 56.375 C78.46695953 55.02709399 78.30679852 53.67943495 78.14453125 52.33203125 C77.99371094 51.06746094 77.84289062 49.80289063 77.6875 48.5 C75.9912179 36.84389639 71.34431861 27.67588424 62.6875 19.5 C62.3575 20.16 62.0275 20.82 61.6875 21.5 C60.6975 21.5 59.7075 21.5 58.6875 21.5 C58.9659375 19.705625 58.9659375 19.705625 59.25 17.875 C59.68810096 14.18056652 59.85794321 11.09493272 58.6875 7.5 C54.69036373 3.87759525 49.84721913 3.82599533 44.6875 3.5 C42.71646975 7.68843928 42.6875 9.49852013 42.6875 14.5 C29.3225 14.995 29.3225 14.995 15.6875 15.5 C15.6875 14.84 15.6875 14.18 15.6875 13.5 C23.41638819 11.54596958 30.73792008 11.27571718 38.6875 11.5 C38.81253906 10.56929687 38.93757813 9.63859375 39.06640625 8.6796875 C39.90710233 4.37574654 41.08732205 2.99808266 44.6875 0.5 C49.70478556 -0.4616464 53.54154827 -0.06255812 58.125 2.1875 C61.62975106 5.35032413 63.20766111 8.23726607 64.875 12.625 C66.74864494 17.1938882 69.78891981 20.93710421 72.75 24.8515625 C79.77090794 34.4486907 81.24184227 44.54831808 82.24023438 56.171875 C82.85532255 61.80294511 82.85532255 61.80294511 86.48046875 66.03125 C104.81511196 74.42811461 125.55544471 73.02931015 145.125 71.5 C154.7156026 70.75580619 164.25422403 70.28319655 173.875 70.25 C174.93066162 70.24097656 175.98632324 70.23195313 177.07397461 70.22265625 C186.34633423 70.25850011 194.11768731 72.07207492 202.6875 75.5 C202.95304688 74.87351562 203.21859375 74.24703125 203.4921875 73.6015625 C203.84539062 72.78429687 204.19859375 71.96703125 204.5625 71.125 C204.91054688 70.31289062 205.25859375 69.50078125 205.6171875 68.6640625 C206.6875 66.5 206.6875 66.5 208.6875 64.5 C212.74011287 64.15509678 214.23504176 64.19836118 217.6875 66.5 C218.67733807 69.46951422 218.66277787 70.90136868 218.4375 73.9375 C218.32819522 76.31959909 218.32819522 76.31959909 218.6875 78.5 C221.1265706 80.70142332 221.1265706 80.70142332 223.6875 82.5 C224.44749656 86.38442688 223.81389393 88.23204488 222.125 91.8125 C219.6875 94.5 219.6875 94.5 216.5 95.375 C215.241875 95.41625 213.98375 95.4575 212.6875 95.5 C212.02878906 95.56058594 211.37007812 95.62117188 210.69140625 95.68359375 C205.95817777 95.97019291 202.33797859 95.13968578 197.875 93.5625 C189.02937901 90.58236817 179.94635586 90.68462325 170.6875 90.5 C170.96464844 91.25925781 171.24179687 92.01851563 171.52734375 92.80078125 C171.88957031 93.79464844 172.25179687 94.78851563 172.625 95.8125 C173.16447266 97.29169922 173.16447266 97.29169922 173.71484375 98.80078125 C174.39635965 100.6920563 175.0517811 102.59284329 175.6875 104.5 C176.30238281 104.46519531 176.91726563 104.43039062 177.55078125 104.39453125 C178.35902344 104.36746094 179.16726563 104.34039062 180 104.3125 C181.20076172 104.26029297 181.20076172 104.26029297 182.42578125 104.20703125 C184.6875 104.5 184.6875 104.5 186.43359375 105.6875 C188.62384537 108.85347118 188.45258798 111.87598205 188.3828125 115.62890625 C187.11023602 120.88364621 183.00600239 123.58462113 178.6875 126.5 C175.50871306 128.08939347 173.1918228 127.91576711 169.6875 127.5 C165.90537715 124.20070134 164.8423895 122.80549722 164.25 117.8125 C164.6875 114.5 164.6875 114.5 166.6875 111.5 C165.73020084 110.37411986 164.77162105 109.2493285 163.8125 108.125 C163.27882813 107.49851562 162.74515625 106.87203125 162.1953125 106.2265625 C161.07317993 104.94163349 159.89378025 103.70628025 158.6875 102.5 C158.0275 102.5 157.3675 102.5 156.6875 102.5 C156.44386719 103.06976563 156.20023438 103.63953125 155.94921875 104.2265625 C154.4676122 106.8962065 152.6465657 108.70943814 150.5 110.875 C148.31256034 113.15999389 148.31256034 113.15999389 146.6875 115.5 C146.99553455 118.68522204 146.99553455 118.68522204 147.6875 121.5 C144.49703354 125.26311428 142.87049918 126.29949166 138 127.125 C132.44732418 126.80154316 127.55026021 124.00289128 122.6875 121.5 C122.27295636 117.27165483 122.22254657 115.16837056 124.6875 111.625 C127.70810271 109.48540641 128.31469423 109.27910717 131.75 109.125 C133.6990625 108.815625 133.6990625 108.815625 135.6875 108.5 C137.7550874 105.77488786 137.7550874 105.77488786 138.6796875 103.62109375 C139.88081497 101.09313943 141.36556359 98.87653662 142.9375 96.5625 C143.45828125 95.79035156 143.9790625 95.01820313 144.515625 94.22265625 C144.90234375 93.65417969 145.2890625 93.08570313 145.6875 92.5 C144.39811523 92.66226074 143.10873047 92.82452148 141.78027344 92.99169922 C136.90637811 93.53066814 132.10283694 93.64460987 127.203125 93.6328125 C125.87452705 93.63479141 125.87452705 93.63479141 124.51908875 93.6368103 C121.65852269 93.6387144 118.79805601 93.63240899 115.9375 93.625 C114.95862823 93.62411377 113.97975647 93.62322754 112.97122192 93.62231445 C99.68873706 93.60820854 86.43796941 93.40243772 73.16625977 92.8581543 C63.6679462 92.46896537 54.19224783 92.39347107 44.6875 92.5 C45.10322266 93.62148437 45.10322266 93.62148437 45.52734375 94.765625 C45.88957031 95.75046875 46.25179687 96.7353125 46.625 97.75 C47.16447266 99.21179688 47.16447266 99.21179688 47.71484375 100.703125 C48.50129655 102.96457161 49.16001601 105.16796552 49.6875 107.5 C50.57501953 107.62955078 50.57501953 107.62955078 51.48046875 107.76171875 C55.69495552 108.51111362 58.31236169 109.22239765 61.8125 111.8125 C63.6875 114.5 63.6875 114.5 63.875 117 C62.213581 120.49772421 59.80882369 122.36884412 56.6875 124.5 C56.01203125 124.97050781 55.3365625 125.44101562 54.640625 125.92578125 C49.10592299 129.40950326 44.20125768 130.739602 37.6875 129.5 C35.0625 127.9375 35.0625 127.9375 33.6875 125.5 C33.21215173 121.69721385 33.00844212 119.48645748 35.21484375 116.28125 C35.94380859 115.39953125 35.94380859 115.39953125 36.6875 114.5 C33.42029209 110.11105071 30.13851522 105.74740335 26.6875 101.5 C26.3575 102.16 26.0275 102.82 25.6875 103.5 C25.0275 103.5 24.3675 103.5 23.6875 103.5 C23.44 104.03625 23.1925 104.5725 22.9375 105.125 C18.7087766 113.15957447 18.7087766 113.15957447 14.6875 114.5 C14.1925 115.985 14.1925 115.985 13.6875 117.5 C13.0275 117.5 12.3675 117.5 11.6875 117.5 C12.0175 118.16 12.3475 118.82 12.6875 119.5 C12.75700541 121.04023996 12.77202357 122.58334988 12.75 124.125 C12.74097656 124.94226563 12.73195312 125.75953125 12.72265625 126.6015625 C12.71105469 127.22804688 12.69945312 127.85453125 12.6875 128.5 C7.68234695 131.58009418 3.43098265 132.53401488 -2.3125 131.5 C-10.5130814 128.09883721 -10.5130814 128.09883721 -12.3125 124.5 C-12.98308266 121.33687426 -13.13512766 118.64285951 -12.3125 115.5 C-8.9127772 111.92290036 -5.16424835 109.64729816 -0.21875 109.25390625 C2.98092068 108.77393213 2.98092068 108.77393213 4.5859375 105.55859375 C5.07320312 104.36363281 5.56046875 103.16867187 6.0625 101.9375 C6.56523438 100.73996094 7.06796875 99.54242188 7.5859375 98.30859375 C7.94945312 97.38175781 8.31296875 96.45492187 8.6875 95.5 C9.3475 95.5 10.0075 95.5 10.6875 95.5 C10.6875 94.84 10.6875 94.18 10.6875 93.5 C9.23730469 93.44392578 9.23730469 93.44392578 7.7578125 93.38671875 C-12.77774793 92.34977461 -12.77774793 92.34977461 -20.3125 85.5 C-28.56458451 73.76462353 -32.68468735 57.7781657 -31.3125 43.5 C-30.33768592 40.55625452 -28.97144328 38.10691087 -27.3125 35.5 C-26.85875 34.5925 -26.405 33.685 -25.9375 32.75 C-23.80519395 29.79757625 -21.39798005 28.44270966 -18.3125 26.5 C-15.97542741 24.6543119 -13.66367866 22.781798 -11.36328125 20.890625 C-9.3125 19.5 -9.3125 19.5 -6.3125 19.5 C-6.34730469 18.54738281 -6.38210937 17.59476563 -6.41796875 16.61328125 C-6.44503906 15.35902344 -6.47210938 14.10476562 -6.5 12.8125 C-6.53480469 11.57113281 -6.56960937 10.32976562 -6.60546875 9.05078125 C-6.18339073 3.93519559 -5.34559056 0.80688159 0 0 Z " fill="#111111" transform="translate(110.3125,155.5)"/>
<path d="M0 0 C2.8125 -0.1875 2.8125 -0.1875 6 0 C7 1 8 2 9 3 C15.47083003 5.07525149 21.41141432 5.24994212 28.16796875 5.16015625 C29.2571611 5.15463745 30.34635345 5.14911865 31.46855164 5.14343262 C33.8178252 5.13109227 36.16707948 5.11448167 38.51629639 5.09402466 C44.77770738 5.04025787 51.03917966 5.01861565 57.30078125 5 C59.23244141 4.9937838 59.23244141 4.9937838 61.203125 4.98744202 C77.41229646 4.95866797 93.61370822 5.33435472 109.81713867 5.73266602 C110.89429642 5.75735962 111.97145416 5.78205322 113.08125305 5.80749512 C115.09527242 5.85391321 117.10919602 5.90477372 119.12297058 5.96081543 C120.44631157 5.99096741 120.44631157 5.99096741 121.79638672 6.02172852 C122.56457733 6.04171402 123.33276794 6.06169952 124.12423706 6.08229065 C126.0924287 6.12361173 126.0924287 6.12361173 128 5 C131.03566911 4.76089183 134.08095166 4.81479913 137.125 4.8125 C138.37023437 4.79413086 138.37023437 4.79413086 139.640625 4.77539062 C146.3283327 4.75966717 153.1906553 5.34226445 159 9 C159.42667969 9.46148437 159.85335937 9.92296875 160.29296875 10.3984375 C162.9975484 12.93591497 166.33120593 14.35011728 169.625 16.01171875 C174.01917804 19.69039741 174.99427916 24.83672162 175.6171875 30.3671875 C175.72209306 31.86858663 175.80765993 33.37144759 175.875 34.875 C175.91254395 35.66366455 175.95008789 36.4523291 175.98876953 37.26489258 C176.27663329 46.52514559 174.29214193 54.04285919 168 61 C162.69554711 66.38085279 158.19286413 67.70523678 150.71362305 67.88330078 C149.57062744 67.88056152 148.42763184 67.87782227 147.25 67.875 C146.0535083 67.8941748 144.8570166 67.91334961 143.62426758 67.93310547 C140.0824586 67.98283335 136.54211111 67.99384427 133 68 C131.18616451 68.02360067 129.37235524 68.04939485 127.55859375 68.078125 C114.02532285 68.24209193 100.1544274 68.25064747 86.72265625 66.47265625 C78.59603524 65.44083973 70.49840803 65.91088485 62.375 66.78125 C56.14473547 67.35509015 49.86288457 66.66520367 43.63769531 66.25537109 C41.63908688 66.12591247 39.63984991 66.00628024 37.640625 65.88671875 C36.36960937 65.80292969 35.09859375 65.71914063 33.7890625 65.6328125 C32.63100098 65.55949707 31.47293945 65.48618164 30.27978516 65.41064453 C26.94747647 64.99342381 24.14301003 64.16096136 21 63 C19.865625 62.62875 18.73125 62.2575 17.5625 61.875 C10.70420537 58.84035636 6.45523899 52.07424207 3.69140625 45.35546875 C2.95117812 42.83367463 2.71897532 40.55745849 2.5625 37.9375 C2.27383191 33.27551038 0.83709453 30.65071581 -1.7890625 26.86328125 C-4.96470506 21.97688932 -6.0453083 15.71367548 -5 10 C-3.57222581 6.52259876 -1.86966857 3.25856521 0 0 Z M2 3 C-1.20056327 7.39571031 -3.17210159 11.0337393 -2.6875 16.5703125 C-0.75050496 24.17301803 1.40130732 28.68547017 8 33 C8.309375 32.05125 8.61875 31.1025 8.9375 30.125 C10 27 10 27 11 25 C10.67 24.34 10.34 23.68 10 23 C12.31 23.33 14.62 23.66 17 24 C17 24.66 17 25.32 17 26 C16.401875 26.185625 15.80375 26.37125 15.1875 26.5625 C11.99950687 28.65746692 11.45644444 31.54094446 10 35 C7.8125 36.9375 7.8125 36.9375 6 38 C6.43386428 44.79720708 8.71901136 50.62717707 13.53515625 55.578125 C25.47522139 64.94952365 42.73368679 63.15052382 57 63 C56.98710937 61.8965625 56.97421875 60.793125 56.9609375 59.65625 C57 56 57 56 57.625 53.5 C58.20619921 50.81449175 58.20619921 50.81449175 57 47.5625 C55.9369034 43.77521835 56.32627014 41.78973046 57 38 C56.17657468 35.68019054 56.17657468 35.68019054 55 34 C57.92512762 36.43505389 57.92512762 36.43505389 58.2578125 38.9453125 C58.21398437 39.66460937 58.17015625 40.38390625 58.125 41.125 C57.96429211 45.84675096 58.3919686 50.32341282 59 55 C59.17893286 56.42571265 59.3572786 57.85149906 59.53515625 59.27734375 C59.68855469 60.50582031 59.84195313 61.73429687 60 63 C61.31613281 62.90460938 62.63226563 62.80921875 63.98828125 62.7109375 C80.13303317 61.64939006 80.13303317 61.64939006 87.84765625 63.453125 C102.6439952 66.02002395 120.17962869 66.37125941 135 64 C137.44251927 57.47348346 138.25867587 53.77602761 136 47 C136.9375 44.1875 136.9375 44.1875 138 42 C137.67 41.34 137.34 40.68 137 40 C136.01 40 135.02 40 134 40 C134 39.01 134 38.02 134 37 C135.9375 37.625 135.9375 37.625 138 39 C139.0723094 42.79432556 138.93231135 45.27075458 138 49 C138.165 49.886875 138.33 50.77375 138.5 51.6875 C139.14190299 55.94010731 138.61116813 59.76883603 138 64 C142.67661056 64.08468711 147.17531996 64.1216741 151.8125 63.4375 C155 63 155 63 157.5 63.8125 C160.60164164 64.04512312 161.18668047 63.41175287 163.5625 61.5 C166.91032743 58.34098713 169.11705826 55.18047615 171 51 C171.32226562 50.35546875 171.64453125 49.7109375 171.9765625 49.046875 C175.54148085 40.6770667 173.41424912 31.35760137 170.5625 23 C167.88947491 17.47850029 162.37709586 15.36406801 157 13 C155.91599105 18.7175801 155.91599105 18.7175801 157.25 24.25 C158.42159507 30.10797537 155.88541581 34.90217422 153 40 C152.01 40.66 151.02 41.32 150 42 C150.52851562 41.04738281 151.05703125 40.09476562 151.6015625 39.11328125 C152.27698801 37.84685843 152.95141527 36.57990285 153.625 35.3125 C153.975625 34.68666016 154.32625 34.06082031 154.6875 33.41601562 C156.32195389 30.29420869 157.16831634 28.6373228 156.25 25.16015625 C155.63125 24.09087891 155.63125 24.09087891 155 23 C154.07556986 20.22670957 154.0267192 18.50124151 154.1875 15.5 C154.2816013 12.06955642 154.2816013 12.06955642 152.65625 9.80078125 C148.45579586 6.95312043 144.2592073 7.53860246 139.3125 7.6875 C138.33732422 7.69716797 137.36214844 7.70683594 136.35742188 7.71679688 C131.83867632 7.38617701 131.83867632 7.38617701 128 9 C125.98035801 9.07244053 123.95832876 9.08377188 121.9375 9.0625 C120.83277344 9.05347656 119.72804688 9.04445312 118.58984375 9.03515625 C117.73519531 9.02355469 116.88054687 9.01195312 116 9 C116.01160156 9.61746094 116.02320313 10.23492187 116.03515625 10.87109375 C116.08894661 15.91970297 115.92444046 20.82368002 115.27734375 25.83203125 C115.0915947 27.28401325 114.9381839 28.74047797 114.81640625 30.19921875 C114.44335142 34.31804865 113.90156943 36.97227538 111 40 C111 37.59411466 111.70979414 35.99839035 112.5625 33.75 C113.96505902 29.6916695 113.84584573 27.22922865 113 23 C113.350625 22.01 113.70125 21.02 114.0625 20 C115.41997215 15.65608912 113.96348052 12.92696104 112 9 C104.74 9 97.48 9 90 9 C88.53691078 15.88512576 87.86947155 21.09121505 89 28 C88.67 28.66 88.34 29.32 88 30 C87.34 29.67 86.68 29.34 86 29 C86.495 28.505 86.495 28.505 87 28 C87.13961241 24.92852697 87.04131994 22.20659968 86.4375 19.1875 C86.293125 18.465625 86.14875 17.74375 86 17 C86.33 16.67 86.66 16.34 87 16 C87.04063832 14.33382885 87.042721 12.66611905 87 11 C86.34 11 85.68 11 85 11 C84.505 9.515 84.505 9.515 84 8 C78.21590487 7.97529951 72.43184038 7.95713977 66.64770508 7.94506836 C64.67960068 7.9400365 62.71150003 7.93321042 60.7434082 7.92456055 C57.91616899 7.91244483 55.08897916 7.90676024 52.26171875 7.90234375 C50.93970711 7.89460182 50.93970711 7.89460182 49.59098816 7.88670349 C48.3600518 7.88659019 48.3600518 7.88659019 47.10424805 7.88647461 C46.38254929 7.884254 45.66085052 7.88203339 44.9172821 7.87974548 C42.77773199 7.93174401 42.77773199 7.93174401 40 9 C39.19078631 11.69737896 38.54117383 14.25209793 38 17 C37.7215625 18.2065625 37.7215625 18.2065625 37.4375 19.4375 C36.97731213 21.91344677 36.97731213 21.91344677 36.82421875 24.09375 C36.40332248 29.04547086 35.57856056 32.62765819 33 37 C32.01 37 31.02 37 30 37 C30.639375 36.29875 31.27875 35.5975 31.9375 34.875 C34.20191565 31.71854182 34.59487586 29.80816696 35 26 C35.20625 25.319375 35.4125 24.63875 35.625 23.9375 C36.15393796 21.88232882 36.15393796 21.88232882 35.4375 19.375 C35.293125 18.59125 35.14875 17.8075 35 17 C35.66 16.34 36.32 15.68 37 15 C36.67801034 11.90073181 36.67801034 11.90073181 36 9 C34.51113281 8.94392578 34.51113281 8.94392578 32.9921875 8.88671875 C10.69180146 7.87331587 10.69180146 7.87331587 2 3 Z " fill="#101010" transform="translate(429,216)"/>
<path d="M0 0 C5.75357073 2.82448017 7.96249405 6.2697212 10.1875 12.125 C12.06114494 16.6938882 15.10141981 20.43710421 18.0625 24.3515625 C25.08340794 33.9486907 26.55434227 44.04831808 27.55273438 55.671875 C28.16782255 61.30294511 28.16782255 61.30294511 31.79296875 65.53125 C50.12761196 73.92811461 70.86794471 72.52931015 90.4375 71 C100.0281026 70.25580619 109.56672403 69.78319655 119.1875 69.75 C120.24316162 69.74097656 121.29882324 69.73195313 122.38647461 69.72265625 C131.65883423 69.75850011 139.43018731 71.57207492 148 75 C148.26554688 74.37351562 148.53109375 73.74703125 148.8046875 73.1015625 C149.15789062 72.28429687 149.51109375 71.46703125 149.875 70.625 C150.22304688 69.81289062 150.57109375 69.00078125 150.9296875 68.1640625 C152 66 152 66 154 64 C158.05261287 63.65509678 159.54754176 63.69836118 163 66 C163.98983807 68.96951422 163.97527787 70.40136868 163.75 73.4375 C163.64069522 75.81959909 163.64069522 75.81959909 164 78 C166.4390706 80.20142332 166.4390706 80.20142332 169 82 C169.3125 85.25 169.3125 85.25 169 88 C168.01 87.67 167.02 87.34 166 87 C165.690625 86.195625 165.38125 85.39125 165.0625 84.5625 C164.12804732 81.51824821 164.12804732 81.51824821 160 80 C160 76.37 160 72.74 160 69 C158.68 68.34 157.36 67.68 156 67 C154.27735506 70.29549466 152.70554068 73.33118845 152 77 C152.66 77 153.32 77 154 77 C154 77.66 154 78.32 154 79 C148.96019081 78.67485102 145.08467394 78.16986683 140.52734375 75.9765625 C134.17681728 73.36881308 128.22139221 73.48291253 121.4375 73.625 C120.13756104 73.63571533 118.83762207 73.64643066 117.49829102 73.6574707 C110.55398567 73.73840958 103.64368301 74.04644942 96.71875 74.56640625 C96.03502823 74.61756088 95.35130646 74.66871552 94.64686584 74.72142029 C93.96297287 74.77282669 93.2790799 74.82423309 92.57446289 74.87719727 C91.19548827 74.98080483 89.81650064 75.08423938 88.4375 75.1875 C87.75783173 75.23881073 87.07816345 75.29012146 86.37789917 75.34298706 C71.85359568 76.39532909 57.35012415 75.68053598 43 73 C42.67 72.67 42.34 72.34 42 72 C40.58958775 71.67945176 39.17128557 71.39325589 37.75 71.125 C33.13583137 70.1289255 29.73956009 68.83933535 26.43359375 65.34375 C24.51281454 62.20351151 24.3235028 59.52516244 23.9375 55.875 C23.77945953 54.52709399 23.61929852 53.17943495 23.45703125 51.83203125 C23.30621094 50.56746094 23.15539062 49.30289063 23 48 C21.3037179 36.34389639 16.65681861 27.17588424 8 19 C7.67 19.66 7.34 20.32 7 21 C6.01 21 5.02 21 4 21 C4.2784375 19.205625 4.2784375 19.205625 4.5625 17.375 C5.00060096 13.68056652 5.17044321 10.59493272 4 7 C0.00286373 3.37759525 -4.84028087 3.32599533 -10 3 C-11.97103025 7.18843928 -12 8.99852013 -12 14 C-25.365 14.495 -25.365 14.495 -39 15 C-39 14.34 -39 13.68 -39 13 C-31.27111181 11.04596958 -23.94957992 10.77571718 -16 11 C-15.81244141 9.60394531 -15.81244141 9.60394531 -15.62109375 8.1796875 C-13.95590859 -0.34522268 -7.48244548 -1.29503864 0 0 Z " fill="#1A1A1A" transform="translate(165,156)"/>
<path d="M0 0 C4.79416508 0.65005628 8.06500165 1.93158492 11.5625 5.3125 C13.02282369 8.15201828 12.90207149 10.35295141 12.6875 13.5 C12.419375 12.9225 12.15125 12.345 11.875 11.75 C9.46737444 7.17030127 9.46737444 7.17030127 5.20703125 4.453125 C4.31371094 4.22109375 3.42039063 3.9890625 2.5 3.75 C1.59894531 3.50765625 0.69789062 3.2653125 -0.23046875 3.015625 C-0.91753906 2.84546875 -1.60460937 2.6753125 -2.3125 2.5 C-3.06302396 5.32248328 -3.61819258 8.10421384 -4 11 C-4.10699219 11.7528125 -4.21398437 12.505625 -4.32421875 13.28125 C-4.31047424 15.88354478 -3.52527697 17.23243232 -2.3125 19.5 C-2.3125 20.49 -2.3125 21.48 -2.3125 22.5 C-2.84617187 22.62375 -3.37984375 22.7475 -3.9296875 22.875 C-12.80202824 25.33101128 -20.04093379 30.96919112 -25.3125 38.5 C-27.20281968 42.95139796 -27.66537184 47.06740255 -27.9375 51.875 C-28.01226562 53.12023437 -28.08703125 54.36546875 -28.1640625 55.6484375 C-28.21304688 56.58945313 -28.26203125 57.53046875 -28.3125 58.5 C-30.62203344 56.70505757 -31.26346377 55.79819329 -31.74609375 52.86328125 C-31.75490446 45.9821132 -31.0079876 41.3071948 -27.3125 35.5 C-26.85875 34.5925 -26.405 33.685 -25.9375 32.75 C-23.80519395 29.79757625 -21.39798005 28.44270966 -18.3125 26.5 C-15.97542741 24.6543119 -13.66367866 22.781798 -11.36328125 20.890625 C-9.3125 19.5 -9.3125 19.5 -6.3125 19.5 C-6.34730469 18.54738281 -6.38210937 17.59476563 -6.41796875 16.61328125 C-6.44503906 15.35902344 -6.47210938 14.10476562 -6.5 12.8125 C-6.53480469 11.57113281 -6.56960937 10.32976562 -6.60546875 9.05078125 C-6.18339073 3.93519559 -5.34559056 0.80688159 0 0 Z " fill="#1D1D1D" transform="translate(110.3125,155.5)"/>
<path d="M0 0 C0.33 0 0.66 0 1 0 C1.165 0.9075 1.33 1.815 1.5 2.75 C3.34642528 6.75058811 4.89095063 7.50064295 8.8125 9.1953125 C21.99270473 14.04374496 36.01567184 14.29205581 49.875 14.125 C51.3528584 14.11493329 52.83072358 14.10581407 54.30859375 14.09765625 C57.87254028 14.07597371 61.43622415 14.04165536 65 14 C64.67 14.99 64.34 15.98 64 17 C47.94139468 18.65985584 31.93073955 17.60639098 16 15 C15.67 14.67 15.34 14.34 15 14 C13.58958775 13.67945176 12.17128557 13.39325589 10.75 13.125 C5.90566619 12.07923905 2.56571176 10.67009254 -0.875 7 C-1.24625 6.34 -1.6175 5.68 -2 5 C-1 2 -1 2 0 0 Z " fill="#131313" transform="translate(192,214)"/>
<path d="M0 0 C0.33 0.99 0.66 1.98 1 3 C1.66 3 2.32 3 3 3 C3.21914063 3.95261719 3.43828125 4.90523437 3.6640625 5.88671875 C5.38891549 13.98459627 5.38891549 13.98459627 10.25 20.375 C11.1575 20.91125 12.065 21.4475 13 22 C13.144375 21.2575 13.28875 20.515 13.4375 19.75 C13.90187492 17.47972261 14.41863569 15.24240521 15 13 C17.31 13.33 19.62 13.66 22 14 C22 14.66 22 15.32 22 16 C21.38125 16.4125 20.7625 16.825 20.125 17.25 C17.36840385 19.52013801 17.04983163 21.64053879 16 25 C14.5 26.875 14.5 26.875 13 28 C12.34 28 11.68 28 11 28 C10.01 30.475 10.01 30.475 9 33 C8.67 33 8.34 33 8 33 C7.98582031 32.3709375 7.97164063 31.741875 7.95703125 31.09375 C7.63073728 25.23809599 6.53814961 21.66177502 3.2109375 16.86328125 C-0.21664757 11.58922294 -0.21195647 6.04075942 0 0 Z " fill="#131313" transform="translate(424,226)"/>
<path d="M0 0 C1.27230469 0.01804688 2.54460937 0.03609375 3.85546875 0.0546875 C5.31919922 0.08949219 5.31919922 0.08949219 6.8125 0.125 C6.8125 0.785 6.8125 1.445 6.8125 2.125 C5.58273438 2.18107422 5.58273438 2.18107422 4.328125 2.23828125 C3.25046875 2.30402344 2.1728125 2.36976563 1.0625 2.4375 C-0.00484375 2.49550781 -1.0721875 2.55351562 -2.171875 2.61328125 C-5.39563508 3.16031826 -6.83406662 3.90477983 -9.1875 6.125 C-10.71515591 9.56222581 -10.96797486 14.45891623 -10.1875 18.125 C-7.83894943 21.51667303 -6.37827657 22.08439294 -2.296875 22.953125 C-0.84557173 23.11144899 0.60780812 23.2516339 2.0625 23.375 C2.80757812 23.45234375 3.55265625 23.5296875 4.3203125 23.609375 C6.14949628 23.79698359 7.98085874 23.96313403 9.8125 24.125 C9.4825 25.115 9.1525 26.105 8.8125 27.125 C6.24758544 27.06471999 3.68828243 26.97762053 1.125 26.875 C0.40376953 26.86082031 -0.31746094 26.84664062 -1.06054688 26.83203125 C-5.91845737 26.61020885 -8.73373567 25.85806283 -12.1875 22.125 C-12.1875 21.135 -12.1875 20.145 -12.1875 19.125 C-12.8475 19.125 -13.5075 19.125 -14.1875 19.125 C-14.69123716 12.17062862 -14.34715645 7.8296717 -10.1875 2.125 C-6.4507157 -0.36618953 -4.44298181 -0.0815226 0 0 Z " fill="#333333" transform="translate(117.1875,192.875)"/>
<path d="M0 0 C2.203125 0.55078125 2.203125 0.55078125 5.890625 1.86328125 C5.890625 2.19328125 5.890625 2.52328125 5.890625 2.86328125 C3.250625 2.86328125 0.610625 2.86328125 -2.109375 2.86328125 C-4.08040525 7.05172053 -4.109375 8.86180138 -4.109375 13.86328125 C-17.474375 14.35828125 -17.474375 14.35828125 -31.109375 14.86328125 C-31.109375 14.20328125 -31.109375 13.54328125 -31.109375 12.86328125 C-23.38048681 10.90925083 -16.05895492 10.63899843 -8.109375 10.86328125 C-7.98691406 9.93515625 -7.86445313 9.00703125 -7.73828125 8.05078125 C-6.8970992 3.78739895 -4.95334966 -0.32105044 0 0 Z " fill="#1B1B1B" transform="translate(157.109375,156.13671875)"/>
<path d="M0 0 C0.33 0 0.66 0 1 0 C1.50588674 8.09418785 -0.88682972 14.6430856 -6 21 C-9.37910814 24.64092766 -12.09547378 26.90897485 -17.1875 27.15234375 C-20.16546891 26.90300909 -23.06154998 26.53871584 -26 26 C-25 24 -25 24 -22.25 22.8125 C-19 22 -19 22 -16.5 22.6875 C-13.74666541 23.30521575 -13.74666541 23.30521575 -10.9375 21 C-5.5370475 15.94573035 -3.49663324 10.00430842 -1.61328125 3.0390625 C-1 1 -1 1 0 0 Z " fill="#060606" transform="translate(603,256)"/>
<path d="M0 0 C0.66 0.66 1.32 1.32 2 2 C1.67 2.680625 1.34 3.36125 1 4.0625 C-0.18453566 6.99578446 -0.18453566 6.99578446 0.0625 10.25 C-0.02360065 15.41603921 -1.03554646 20.83957907 -4.60546875 24.765625 C-5.06566406 25.17296875 -5.52585937 25.5803125 -6 26 C-6.99 25.67 -7.98 25.34 -9 25 C-8.360625 24.13375 -7.72125 23.2675 -7.0625 22.375 C-4.99019986 18.98396341 -4.42247465 16.88676677 -4 13 C-3.79375 12.319375 -3.5875 11.63875 -3.375 10.9375 C-2.83067246 8.89287506 -2.83067246 8.89287506 -3.6875 6.5 C-3.790625 5.675 -3.89375 4.85 -4 4 C-2.0625 1.6875 -2.0625 1.6875 0 0 Z " fill="#000000" transform="translate(467,229)"/>
<path d="M0 0 C4.79416508 0.65005628 8.06500165 1.93158492 11.5625 5.3125 C13.02282369 8.15201828 12.90207149 10.35295141 12.6875 13.5 C12.419375 12.9225 12.15125 12.345 11.875 11.75 C9.46737444 7.17030127 9.46737444 7.17030127 5.20703125 4.453125 C4.31371094 4.22109375 3.42039062 3.9890625 2.5 3.75 C1.59894531 3.50765625 0.69789062 3.2653125 -0.23046875 3.015625 C-0.91753906 2.84546875 -1.60460937 2.6753125 -2.3125 2.5 C-3.3005383 6.11457345 -3.6798245 9.65756127 -4.03125 13.37890625 C-4.3125 15.5 -4.3125 15.5 -5.3125 18.5 C-7.27812398 14.56875204 -6.64053988 9.7954656 -6.3125 5.5 C-4.91326822 1.30230465 -4.39806497 0.66385886 0 0 Z " fill="#0F0F0F" transform="translate(110.3125,155.5)"/>
<path d="M0 0 C2.60427663 2.60427663 2.50528695 4.39566205 3 8 C3.32871094 9.1446875 3.32871094 9.1446875 3.6640625 10.3125 C4.10572171 13.84577369 3.19396203 15.92627731 1.8125 19.1875 C1.38582031 20.23292969 0.95914063 21.27835938 0.51953125 22.35546875 C-1.09002716 25.15667966 -2.00308155 25.95396637 -5 27 C-4.00734643 24.46170776 -2.98445893 21.96695587 -1.82421875 19.5 C-0.69196301 17.00981554 0.30720879 14.64839171 1 12 C-0.20968895 9.2332494 -0.20968895 9.2332494 -2 7 C-1.58333333 1.58333333 -1.58333333 1.58333333 0 0 Z " fill="#000000" transform="translate(584,231)"/>
<path d="M0 0 C0.99 0.33 1.98 0.66 3 1 C1.05877269 5.85306828 1.05877269 5.85306828 -1 8 C-3.68559375 8.67460066 -6.09037447 8.81178898 -8.85546875 8.83203125 C-9.56316406 8.88746094 -10.27085937 8.94289063 -11 9 C-11.33 9.66 -11.66 10.32 -12 11 C-12.33 11 -12.66 11 -13 11 C-13.33 12.98 -13.66 14.96 -14 17 C-14.33 17 -14.66 17 -15 17 C-15.41454364 12.77165483 -15.46495343 10.66837056 -13 7.125 C-10.03735151 5.02645732 -9.21609769 4.71648342 -5.8125 4.4375 C-4.554375 4.293125 -3.29625 4.14875 -2 4 C-0.4100567 2.07935207 -0.4100567 2.07935207 0 0 Z " fill="#212121" transform="translate(248,260)"/>
<path d="M0 0 C2 2 2 2 2.01171875 4.3203125 C1.90472656 5.24585938 1.79773438 6.17140625 1.6875 7.125 C1.51927734 8.60226563 1.51927734 8.60226563 1.34765625 10.109375 C1.23292969 11.06328125 1.11820313 12.0171875 1 13 C0.93683594 13.76828125 0.87367188 14.5365625 0.80859375 15.328125 C0.42512106 19.6034375 -0.49052942 22.50856266 -3 26 C-3.99 25.34 -4.98 24.68 -6 24 C-5.34 23.34 -4.68 22.68 -4 22 C-3.27982196 19.71171706 -3.27982196 19.71171706 -2.8125 17.125 C-2.63332031 16.26132813 -2.45414063 15.39765625 -2.26953125 14.5078125 C-1.85548873 12.05460461 -1.85548873 12.05460461 -2.5390625 9.9453125 C-3.13919757 7.41253908 -2.55294951 6.12707883 -1.5625 3.75 C-1.27503906 3.04359375 -0.98757813 2.3371875 -0.69140625 1.609375 C-0.34916016 0.81273437 -0.34916016 0.81273437 0 0 Z " fill="#000000" transform="translate(544,231)"/>
<path d="M0 0 C1.27230469 0.01804688 2.54460937 0.03609375 3.85546875 0.0546875 C5.31919922 0.08949219 5.31919922 0.08949219 6.8125 0.125 C6.8125 0.785 6.8125 1.445 6.8125 2.125 C5.58273438 2.18107422 5.58273438 2.18107422 4.328125 2.23828125 C3.25046875 2.30402344 2.1728125 2.36976563 1.0625 2.4375 C-0.00484375 2.49550781 -1.0721875 2.55351562 -2.171875 2.61328125 C-5.4105088 3.16284217 -6.83193208 3.88420453 -9.1875 6.125 C-11.01082615 9.67568777 -11.63853508 13.19075142 -12.1875 17.125 C-12.5175 17.125 -12.8475 17.125 -13.1875 17.125 C-13.75239945 6.35006602 -13.75239945 6.35006602 -10.1875 2.125 C-6.4507157 -0.36618953 -4.44298181 -0.0815226 0 0 Z " fill="#292929" transform="translate(117.1875,192.875)"/>
<path d="M0 0 C6.12913259 -0.4226988 9.04691633 -0.00963916 14 4 C16 6 16 6 16.125 9.125 C16.08375 10.07375 16.0425 11.0225 16 12 C15.46375 11.2575 14.9275 10.515 14.375 9.75 C9.86643355 4.52955464 5.86359876 2.5490879 -1 2 C-0.67 1.34 -0.34 0.68 0 0 Z " fill="#111111" transform="translate(157,156)"/>
<path d="M0 0 C1.875 0.1875 1.875 0.1875 4 1 C6.38879811 4.98133018 5.79447983 7.58622317 5 12 C5.2644354 14.34214207 5.58244638 16.68025766 6 19 C5.01 18.67 4.02 18.34 3 18 C0.62790698 11.22259136 0.62790698 11.22259136 1.875 7.125 C2.24625 6.42375 2.6175 5.7225 3 5 C3 4.34 3 3.68 3 3 C2.01 3 1.02 3 0 3 C0 2.01 0 1.02 0 0 Z " fill="#000000" transform="translate(563,253)"/>
<path d="M0 0 C0.99 0.33 1.98 0.66 3 1 C4.00344253 7.30735307 4.50873071 13.63440427 5 20 C4.01 19.67 3.02 19.34 2 19 C-0.08254633 13.95301272 -0.10550722 9.28186783 1 4 C0.6422386 1.72349255 0.6422386 1.72349255 0 0 Z " fill="#000000" transform="translate(484,250)"/>
<path d="M0 0 C0.33 0 0.66 0 1 0 C0.94199219 0.60328125 0.88398438 1.2065625 0.82421875 1.828125 C0.68455245 4.30221369 0.63721333 6.54585486 1 9 C3.4390706 11.20142332 3.4390706 11.20142332 6 13 C6.3125 16.25 6.3125 16.25 6 19 C5.01 18.67 4.02 18.34 3 18 C2.690625 17.195625 2.38125 16.39125 2.0625 15.5625 C1.23391841 12.85842507 1.23391841 12.85842507 -1.125 11.6875 C-1.74375 11.460625 -2.3625 11.23375 -3 11 C-3 9.68 -3 8.36 -3 7 C-2.34 6.67 -1.68 6.34 -1 6 C-0.34227572 2.97065509 -0.34227572 2.97065509 0 0 Z " fill="#232323" transform="translate(328,225)"/>
<path d="M0 0 C0.66 0.33 1.32 0.66 2 1 C1.814375 1.66 1.62875 2.32 1.4375 3 C1.03842212 5.73653403 1.13760553 7.4471767 1.5625 10.125 C2 14 2 14 0 17 C-0.99 16.67 -1.98 16.34 -3 16 C-2.67 15.34 -2.34 14.68 -2 14 C-1.86270799 10.91092972 -1.91919487 8.31587458 -2.6875 5.3125 C-2.790625 4.549375 -2.89375 3.78625 -3 3 C-1.5625 1.1875 -1.5625 1.1875 0 0 Z " fill="#000000" transform="translate(517,230)"/>
<path d="M0 0 C0.99 0.33 1.98 0.66 3 1 C2.66226563 1.66386719 2.32453125 2.32773438 1.9765625 3.01171875 C1.30753906 4.33623047 1.30753906 4.33623047 0.625 5.6875 C0.18414062 6.55761719 -0.25671875 7.42773438 -0.7109375 8.32421875 C-1.92664268 10.84772799 -2.99260958 13.38737532 -4 16 C-4.66 16 -5.32 16 -6 16 C-5.37183502 12.05050296 -4.1354471 8.80107972 -2.4375 5.1875 C-1.98246094 4.21167969 -1.52742188 3.23585937 -1.05859375 2.23046875 C-0.70925781 1.49441406 -0.35992187 0.75835937 0 0 Z " fill="#222222" transform="translate(119,251)"/>
<path d="M0 0 C2.203125 0.55078125 2.203125 0.55078125 5.890625 1.86328125 C5.890625 2.19328125 5.890625 2.52328125 5.890625 2.86328125 C3.250625 2.86328125 0.610625 2.86328125 -2.109375 2.86328125 C-2.769375 4.51328125 -3.429375 6.16328125 -4.109375 7.86328125 C-4.769375 7.86328125 -5.429375 7.86328125 -6.109375 7.86328125 C-6.769375 8.85328125 -7.429375 9.84328125 -8.109375 10.86328125 C-7.84462647 7.06855225 -7.22302847 5.02859539 -5.046875 1.86328125 C-2.109375 -0.13671875 -2.109375 -0.13671875 0 0 Z " fill="#313131" transform="translate(157.109375,156.13671875)"/>
<path d="M0 0 C1.32 0.33 2.64 0.66 4 1 C2.40956621 6.08938811 -0.7446951 9.87456643 -4 14 C-4.66 13.67 -5.32 13.34 -6 13 C-5.48308594 12.22914063 -4.96617187 11.45828125 -4.43359375 10.6640625 C-3.44552734 9.15972656 -3.44552734 9.15972656 -2.4375 7.625 C-1.77621094 6.62726563 -1.11492187 5.62953125 -0.43359375 4.6015625 C0.03949219 3.74304688 0.51257813 2.88453125 1 2 C0.67 1.34 0.34 0.68 0 0 Z " fill="#191919" transform="translate(255,246)"/>
<path d="M0 0 C0.33 0 0.66 0 1 0 C1.33 5.94 1.66 11.88 2 18 C-0.49059397 13.01881207 -1.2136995 10.24901803 -0.5625 4.75 C-0.46066406 3.85796875 -0.35882812 2.9659375 -0.25390625 2.046875 C-0.17011719 1.37140625 -0.08632813 0.6959375 0 0 Z " fill="#242424" transform="translate(603,242)"/>
<path d="M0 0 C1.01243785 3.03731356 1.00685724 4.40386023 0.625 7.5 C0.53476563 8.2734375 0.44453125 9.046875 0.3515625 9.84375 C0 12 0 12 -1 15 C-2.30089831 12.39820337 -2.16840078 10.4030812 -2.1875 7.5 C-2.20167969 6.5203125 -2.21585937 5.540625 -2.23046875 4.53125 C-2 2 -2 2 0 0 Z " fill="#090909" transform="translate(106,159)"/>
<path d="M0 0 C2.31 0 4.62 0 7 0 C6.67 0.99 6.34 1.98 6 3 C4.35 2.67 2.7 2.34 1 2 C0.67 2.99 0.34 3.98 0 5 C-0.66 4.67 -1.32 4.34 -2 4 C-1.34 2.68 -0.68 1.36 0 0 Z " fill="#222222" transform="translate(107,156)"/>
</svg>
