<?xml version="1.0" encoding="UTF-8"?>
<svg version="1.1" xmlns="http://www.w3.org/2000/svg" width="800" height="300">
<path d="M0 0 C264 0 528 0 800 0 C800 99 800 198 800 300 C536 300 272 300 0 300 C0 201 0 102 0 0 Z " fill="#FEFEFE" transform="translate(0,0)"/>
<path d="M0 0 C3 1.125 3 1.125 5 3.6875 C9.32001529 7.19751242 13.01420795 6.59726205 18.4296875 6.49609375 C22.01158558 6.23583078 22.01158558 6.23583078 25.37890625 5.11328125 C29.72194312 3.92796482 33.58676641 3.82463072 38.0625 3.875 C38.917229 3.87959229 39.77195801 3.88418457 40.65258789 3.88891602 C51.61101098 4.03859687 63.01807355 4.52413677 73.78515625 6.68359375 C80.82494371 8.0865849 88.40862453 7.17685983 95.53857422 6.76416016 C105.97627002 6.1740504 116.4101612 5.95654549 126.86279297 5.89282227 C128.52755234 5.88101202 130.19228348 5.86398605 131.85693359 5.84155273 C134.22511537 5.81141051 136.59258459 5.80161354 138.9609375 5.796875 C139.6675351 5.78456848 140.37413269 5.77226196 141.10214233 5.75958252 C146.17862453 5.78191008 149.57350682 6.81558656 154 9.125 C155.125 11.0625 155.125 11.0625 156 13.125 C157.65788785 14.46923339 159.32576317 15.80118483 161 17.125 C166.84894313 23.54457172 170.43621605 29.48716048 171.3125 38.25 C170.50377503 48.27818958 165.21584103 59.73516824 158.5 67.25 C153.59544727 70.92841455 147.51979135 70.25205331 141.61328125 70.1875 C140.79796432 70.18371338 139.9826474 70.17992676 139.1426239 70.17602539 C135.69405414 70.15997515 132.245609 70.13260761 128.79711914 70.10449219 C119.32798193 70.03416536 109.89614519 70.09692316 100.43473816 70.52130127 C85.70750233 71.18117987 71.09029734 71.04011423 56.35986328 70.51074219 C52.44729389 70.37314645 48.53447789 70.26017907 44.62109375 70.1484375 C42.09109647 70.06396567 39.56114587 69.97808136 37.03125 69.890625 C35.88217163 69.85922424 34.73309326 69.82782349 33.54919434 69.79547119 C23.3765977 69.39496198 11.83441329 68.06975681 4.34765625 60.44140625 C-1.82681152 52.93844664 -3.0637654 44.33844549 -4.4609375 34.97265625 C-4.94344294 32.42376882 -5.62919869 30.37782463 -6.625 28 C-8.28641092 23.3583262 -8.40171748 18.75701372 -8.5 13.875 C-8.5304541 13.09366699 -8.5609082 12.31233398 -8.59228516 11.50732422 C-8.59503932 7.23378247 -8.35530653 5.58571414 -5.65625 2.0859375 C-3 0.125 -3 0.125 0 0 Z " fill="#646464" transform="translate(433,214.875)"/>
<path d="M0 0 C5.77481791 -0.48123483 10.26953246 0.47661728 15 4 C16.93551992 7.11661994 17.20289203 9.34794339 17 13 C16.34 13 15.68 13 15 13 C14.62875 11.906875 14.2575 10.81375 13.875 9.6875 C12.57260133 6.64652197 12.05031813 6.03281617 9.125 4.125 C6.39495733 3.14218464 3.86592693 2.42145984 1 2 C-0.37004923 8.85024615 -0.37004923 15.14975385 1 22 C0.443125 22.13535156 -0.11375 22.27070313 -0.6875 22.41015625 C-6.46987964 24.04133429 -10.07758864 26.38479861 -14.37109375 30.57421875 C-16 32 -16 32 -18 32 C-18.28617188 32.57492188 -18.57234375 33.14984375 -18.8671875 33.7421875 C-19.58485299 35.17256906 -20.31750433 36.59561031 -21.0703125 38.0078125 C-26.45121835 48.80948276 -23.68018949 57.95943152 -20 69 C-19.67644531 69.97066406 -19.35289063 70.94132812 -19.01953125 71.94140625 C-16.65475751 78.41799065 -14.07527825 82.37191152 -7.8125 85.6875 C0.78078388 88.95849193 9.90627185 89.45836729 19 90 C18.505 91.98 18.505 91.98 18 94 C17.01 94 16.02 94 15 94 C14.82984375 94.556875 14.6596875 95.11375 14.484375 95.6875 C13.70421762 98.14416579 12.86668807 100.57252303 12 103 C11.73316406 103.76183594 11.46632812 104.52367187 11.19140625 105.30859375 C9.03358262 110.5353221 9.03358262 110.5353221 6.140625 111.8359375 C4.10120779 112.3036234 2.06275687 112.6528033 0 113 C-3.03824575 113.92020732 -3.03824575 113.92020732 -5 116 C-5.71913365 118.81758922 -5.70481792 121.18072831 -5 124 C-2.66160743 126.49428541 -0.87026214 126.9166625 2.48828125 127.23828125 C5.04915388 127.30869598 7.46050211 127.34609086 10 127 C10.66 126.34 11.32 125.68 12 125 C11.97595367 122.7227477 11.97595367 122.7227477 11.6875 120.1875 C11.58596167 115.44904449 11.58596167 115.44904449 13.33984375 113.546875 C14.56566181 112.78509748 15.80786515 112.04925812 17.0625 111.3359375 C20.10670327 109.23691024 21.65016114 106.32581623 23.578125 103.2265625 C25.48187586 100.24541418 27.67816529 97.66328099 30 95 C34.02207763 96.34069254 34.39126537 98.06976834 36.375 101.75 C39.12987893 106.75444663 39.12987893 106.75444663 42.875 111 C45.05799964 113.0545879 45.67396379 114.06567414 46 117 C45.175 117.4125 44.35 117.825 43.5 118.25 C42.2625 119.11625 42.2625 119.11625 41 120 C41 121.32 41 122.64 41 124 C44.38494669 125.69247334 47.38495919 125.82133727 51 125 C55.00520782 122.73687337 58.67976836 120.19206094 62 117 C62 116.01 62 115.02 62 114 C59.70370006 112.85185003 57.92301914 112.69230191 55.375 112.4375 C54.14910156 112.31181641 54.14910156 112.31181641 52.8984375 112.18359375 C52.27195312 112.12300781 51.64546875 112.06242187 51 112 C50.60167969 110.84242188 50.20335937 109.68484375 49.79296875 108.4921875 C49.25802501 106.95305112 48.72285685 105.41399273 48.1875 103.875 C47.92646484 103.11445313 47.66542969 102.35390625 47.39648438 101.5703125 C45.87195297 97.20375341 44.17844114 93.09520766 42 89 C43.53096502 87.46903498 44.90391174 87.87035203 47.0390625 87.8671875 C48.35100586 87.86428711 48.35100586 87.86428711 49.68945312 87.86132812 C50.65818359 87.86583984 51.62691406 87.87035156 52.625 87.875 C54.14383789 87.87790039 54.14383789 87.87790039 55.69335938 87.88085938 C64.3016275 87.92739055 72.8974794 88.19687416 81.5 88.5 C99.19604852 89.12035562 116.77115515 89.26376103 134.45776367 88.3581543 C140.98163245 88.02527325 147.46658781 87.87594787 154 88 C153.39874814 90.94452 152.51613203 93.02230229 150.8203125 95.49609375 C150.38589844 96.13740234 149.95148438 96.77871094 149.50390625 97.43945312 C149.04886719 98.09880859 148.59382812 98.75816406 148.125 99.4375 C147.2307258 100.7479854 146.33747391 102.05916908 145.4453125 103.37109375 C145.01887451 103.99056885 144.59243652 104.61004395 144.15307617 105.24829102 C142.86036731 107.15425203 142.86036731 107.15425203 141.43359375 109.9296875 C140 112 140 112 138.02734375 112.63671875 C137.33769531 112.65347656 136.64804688 112.67023438 135.9375 112.6875 C131.99557113 112.5717978 131.99557113 112.5717978 130 115 C130 116.32 130 117.64 130 119 C135.79622721 121.32637691 139.86090397 122.43680971 146 121 C145.835 120.4225 145.67 119.845 145.5 119.25 C145 117 145 117 145 113 C146.63282423 111.94564578 148.30628164 110.95346521 150 110 C152.21543928 107.71315915 152.21543928 107.71315915 154.1875 105.125 C154.86167969 104.28195312 155.53585938 103.43890625 156.23046875 102.5703125 C157.93273146 100.09771015 159.01315441 97.8238966 160 95 C160.99 95 161.98 95 163 95 C164.61328125 96.9765625 164.61328125 96.9765625 166.3125 99.625 C168.48767359 102.89238842 170.59367651 105.79095487 173.4375 108.5 C174.283125 109.325 175.12875 110.15 176 111 C176 111.66 176 112.32 176 113 C174 114.625 174 114.625 172 116 C172.33 117.98 172.66 119.96 173 122 C176.50928577 122.89772427 178.3470071 123.30371763 181.6875 121.75 C185.61535366 118.9615534 185.61535366 118.9615534 187.51171875 114.73828125 C187.56972656 113.93777344 187.62773437 113.13726562 187.6875 112.3125 C187.8421875 110.1778125 187.8421875 110.1778125 188 108 C184.37 108 180.74 108 177 108 C175.86988348 105.7941576 174.74584212 103.58554973 173.625 101.375 C173.30789063 100.75753906 172.99078125 100.14007813 172.6640625 99.50390625 C170.76407197 95.74350833 169.23211496 92.04482184 168 88 C178.76711804 84.41096065 192.73740333 86.23672692 203.16796875 90.10546875 C209.39048478 92.07092554 215.71906773 91.37956191 222 90 C222.66 87.36 223.32 84.72 224 82 C222.35 81.34 220.7 80.68 219 80 C218.67 76.04 218.34 72.08 218 68 C215.525 68.495 215.525 68.495 213 69 C211.75702373 70.82861881 211.75702373 70.82861881 211.1875 73.0625 C210.95417969 73.79597656 210.72085938 74.52945313 210.48046875 75.28515625 C210.32191406 75.85105469 210.16335938 76.41695313 210 77 C210.66 77 211.32 77 212 77 C212 77.66 212 78.32 212 79 C210.31074322 78.74034932 208.62364695 78.46663334 206.9375 78.1875 C205.52791016 77.96126953 205.52791016 77.96126953 204.08984375 77.73046875 C201 77 201 77 197.74536133 75.47705078 C194.09689761 73.88877426 190.98734407 73.62663227 186.984375 73.63671875 C186.01045555 73.63488335 186.01045555 73.63488335 185.01686096 73.63301086 C182.92746344 73.63480207 180.83920417 73.65996518 178.75 73.6875 C177.30363067 73.69615149 175.8572602 73.70461394 174.41088867 73.71289062 C165.98677822 73.79079777 157.62588573 74.10835149 149.27441406 75.2878418 C137.73661125 76.89348605 126.27124444 75.8198947 114.75 74.5625 C113.42062495 74.42592482 112.09119791 74.28985481 110.76171875 74.15429688 C101.13375235 73.13375235 101.13375235 73.13375235 100 72 C98.989375 71.896875 97.97875 71.79375 96.9375 71.6875 C92.38679984 70.8929333 88.99525357 69.23111563 85 67 C85 66.01 85 65.02 85 64 C84.34 64 83.68 64 83 64 C82.93268677 63.07102905 82.93268677 63.07102905 82.86401367 62.12329102 C82.65036252 59.2686669 82.4190398 56.41572669 82.1875 53.5625 C82.11724609 52.58861328 82.04699219 51.61472656 81.97460938 50.61132812 C81.46498824 44.51625933 80.71288156 38.560712 78 33 C77.34 32.67 76.68 32.34 76 32 C76 31.01 76 30.02 76 29 C75.34 29 74.68 29 74 29 C73.4121875 27.63875 73.4121875 27.63875 72.8125 26.25 C70.9212628 22.85881606 69.1445327 21.20967163 66 19 C65.67 19.66 65.34 20.32 65 21 C64.01 21 63.02 21 62 21 C62.165 20.38125 62.33 19.7625 62.5 19.125 C63.20075317 14.74529271 63.07734251 10.42571011 63 6 C58.0585102 4.02340408 54.24772017 3.3978026 49 4 C45.81073389 7.48825981 46 9.13135166 46 14 C37.42 14.33 28.84 14.66 20 15 C19.505 14.01 19.505 14.01 19 13 C26.7558343 11.29005228 34.06603268 10.75076542 42 11 C42.144375 10.236875 42.28875 9.47375 42.4375 8.6875 C43.53623188 3.43800322 43.53623188 3.43800322 45.7578125 1.33984375 C49.65357129 -0.98810967 53.60676004 -0.62463127 58 0 C63.75357073 2.82448017 65.96249405 6.2697212 68.1875 12.125 C70.00240114 16.55182235 72.94001043 20.11534669 75.8671875 23.86328125 C81.58961232 32.27922838 83.85455542 39.8068117 85.0625 49.875 C85.3295149 52.0826639 85.61147511 54.28858445 85.91015625 56.4921875 C86.02496338 57.45495605 86.13977051 58.41772461 86.25805664 59.40966797 C87.1696738 62.59237876 88.47435278 63.90671335 91 66 C108.01295973 74.14705114 130.33578076 72.58446506 148.5625 71 C158.0889666 70.23915517 167.56739867 69.78303081 177.125 69.75 C178.71356812 69.73646484 178.71356812 69.73646484 180.33422852 69.72265625 C188.35102262 69.75347279 195.49533993 70.98249966 203.0625 73.625 C203.81660156 73.88539063 204.57070313 74.14578125 205.34765625 74.4140625 C205.89292969 74.60742188 206.43820312 74.80078125 207 75 C207.19335938 74.37351562 207.38671875 73.74703125 207.5859375 73.1015625 C207.84632813 72.28429687 208.10671875 71.46703125 208.375 70.625 C208.63023437 69.81289062 208.88546875 69.00078125 209.1484375 68.1640625 C210 66 210 66 212 64 C215.44502033 63.55064952 217.34745776 63.62221239 220.375 65.375 C222.86963042 69.4047876 222.31735888 73.38066514 222 78 C222.639375 78.28875 223.27875 78.5775 223.9375 78.875 C226 80 226 80 227 82 C227.37960139 86.02377473 227.38341583 88.32164891 225.375 91.875 C222.4153362 94.52312024 220.94681123 94.77659559 217 95 C216.36320313 95.061875 215.72640625 95.12375 215.0703125 95.1875 C210.32900476 95.46537884 206.71499431 94.65672824 202.25 93.0625 C193.10431311 89.97760204 183.57133931 90.15746353 174 90 C174.6180287 91.79408332 175.24466081 93.58520478 175.875 95.375 C176.39707031 96.87160156 176.39707031 96.87160156 176.9296875 98.3984375 C177.84782502 101.10442118 177.84782502 101.10442118 180 103 C182.00538329 103.22282037 184.01299827 103.44187467 186.02734375 103.55859375 C188.59558807 104.1332702 189.46158209 104.87131298 191 107 C191.95905909 110.8054973 191.92268566 114.19003391 191 118 C187.26120689 122.73730613 182.75848943 126.63567121 176.6875 127.4375 C173 127 173 127 170.0625 124.4375 C167.59152923 121.00740242 167.44581126 118.19600048 168 114 C168.99 112.515 168.99 112.515 170 111 C167.69 108.03 165.38 105.06 163 102 C156.25425226 107.29818857 156.25425226 107.29818857 151 114 C151 115.19625 151 116.3925 151 117.625 C151 121 151 121 148.4375 123.9375 C144.88555703 126.43793537 142.34311316 126.65146697 138 126 C133.8715602 124.60936764 129.89584278 122.94792139 126 121 C125.625 117.8125 125.625 117.8125 126 114 C129.27677199 110.32362167 130.62500165 109.09649111 135.5625 108.75 C139.06480071 108.37586367 139.06480071 108.37586367 140.5546875 105.94921875 C141.81077431 103.66768254 142.95457528 101.38472459 144 99 C144.66 99 145.32 99 146 99 C146.433125 98.1028125 146.433125 98.1028125 146.875 97.1875 C148 95 148 95 150 92 C148.75476563 92.16113281 147.50953125 92.32226562 146.2265625 92.48828125 C137.63422789 93.33729647 129.00010831 93.19426391 120.375 93.1875 C119.43555542 93.1882251 118.49611084 93.1889502 117.52819824 93.18969727 C94.32614713 93.18774678 71.16930656 92.14717662 48 91 C48.67476453 93.61915425 49.38274874 96.22060478 50.11328125 98.82421875 C50.29991333 99.56377808 50.48654541 100.3033374 50.67883301 101.06530762 C51.84913124 105.12180657 52.34245951 106.59796096 56.07617188 108.88085938 C59.16937947 109.86867783 59.16937947 109.86867783 62.35546875 110.39453125 C65 111 65 111 67 114 C67 116.375 67 116.375 66 119 C64.00877115 120.99122885 62.29550538 122.43597642 60 124 C59.31292969 124.47050781 58.62585938 124.94101562 57.91796875 125.42578125 C52.57775568 128.74587869 48.26185342 129.8801802 42 129 C39 128 39 128 37 125 C36.92094936 122.66800612 36.91201231 120.33167378 37 118 C38.32 117.34 39.64 116.68 41 116 C40.3503125 115.09636719 39.700625 114.19273437 39.03125 113.26171875 C38.18713141 112.07057362 37.34340155 110.87915294 36.5 109.6875 C36.07074219 109.09259766 35.64148438 108.49769531 35.19921875 107.88476562 C32 103.33984375 32 103.33984375 32 100 C28.33207571 103.45216403 25.41965171 107.07645874 22.4921875 111.171875 C21 113 21 113 18.125 114.8125 C15.39679717 117.62094409 15.69239006 118.91129924 15.6875 122.75 C15.76772791 124.50126074 15.86439136 126.25215533 16 128 C10.99395393 131.08064374 6.74197092 132.11649435 1 131 C-2.66035929 129.58577027 -5.42729061 127.99070108 -8 125 C-9.05806931 121.43951279 -8.96169993 118.57555102 -8 115 C-5.84157187 112.26599104 -4.03365056 111.27936502 -0.6875 110.375 C3.88966608 109.03534164 6.75720781 107.81779925 9.203125 103.6328125 C11.00090312 100.16901668 12.5394936 96.61741321 14 93 C13.45214844 93.04640625 12.90429688 93.0928125 12.33984375 93.140625 C2.30200471 93.59763231 -9.06825717 91.42200769 -17 85 C-18.828125 82.1953125 -18.828125 82.1953125 -20.25 79.125 C-20.72953125 78.11695313 -21.2090625 77.10890625 -21.703125 76.0703125 C-26.36130701 65.04220689 -29.73057333 51.2332789 -26.2421875 39.4375 C-23.41463883 33.55976103 -19.18008426 28.88333889 -14.125 24.8125 C-13.30257812 24.13832031 -12.48015625 23.46414062 -11.6328125 22.76953125 C-8.82521803 20.88252785 -6.24123021 19.92134095 -3 19 C-3.05220703 17.82244141 -3.05220703 17.82244141 -3.10546875 16.62109375 C-3.27019021 10.22833246 -3.07880961 5.64448429 0 0 Z " fill="#121212" transform="translate(93,156)"/>
<path d="M0 0 C3 1.125 3 1.125 5 3.6875 C9.32001529 7.19751242 13.01420795 6.59726205 18.4296875 6.49609375 C22.01158558 6.23583078 22.01158558 6.23583078 25.37890625 5.11328125 C29.72194312 3.92796482 33.58676641 3.82463072 38.0625 3.875 C38.917229 3.87959229 39.77195801 3.88418457 40.65258789 3.88891602 C51.61101098 4.03859687 63.01807355 4.52413677 73.78515625 6.68359375 C80.82494371 8.0865849 88.40862453 7.17685983 95.53857422 6.76416016 C105.97627002 6.1740504 116.4101612 5.95654549 126.86279297 5.89282227 C128.52755234 5.88101202 130.19228348 5.86398605 131.85693359 5.84155273 C134.22511537 5.81141051 136.59258459 5.80161354 138.9609375 5.796875 C139.6675351 5.78456848 140.37413269 5.77226196 141.10214233 5.75958252 C146.17862453 5.78191008 149.57350682 6.81558656 154 9.125 C155.125 11.0625 155.125 11.0625 156 13.125 C157.65788785 14.46923339 159.32576317 15.80118483 161 17.125 C166.84894313 23.54457172 170.43621605 29.48716048 171.3125 38.25 C170.50377503 48.27818958 165.21584103 59.73516824 158.5 67.25 C153.59544727 70.92841455 147.51979135 70.25205331 141.61328125 70.1875 C140.79796432 70.18371338 139.9826474 70.17992676 139.1426239 70.17602539 C135.69405414 70.15997515 132.245609 70.13260761 128.79711914 70.10449219 C119.32798193 70.03416536 109.89614519 70.09692316 100.43473816 70.52130127 C85.70750233 71.18117987 71.09029734 71.04011423 56.35986328 70.51074219 C52.44729389 70.37314645 48.53447789 70.26017907 44.62109375 70.1484375 C42.09109647 70.06396567 39.56114587 69.97808136 37.03125 69.890625 C35.88217163 69.85922424 34.73309326 69.82782349 33.54919434 69.79547119 C23.3765977 69.39496198 11.83441329 68.06975681 4.34765625 60.44140625 C-1.82681152 52.93844664 -3.0637654 44.33844549 -4.4609375 34.97265625 C-4.94344294 32.42376882 -5.62919869 30.37782463 -6.625 28 C-8.28641092 23.3583262 -8.40171748 18.75701372 -8.5 13.875 C-8.5304541 13.09366699 -8.5609082 12.31233398 -8.59228516 11.50732422 C-8.59503932 7.23378247 -8.35530653 5.58571414 -5.65625 2.0859375 C-3 0.125 -3 0.125 0 0 Z M-2 3.125 C-5.34219637 6.76799404 -5.86682069 9.94781704 -6.19921875 14.7578125 C-5.95003152 18.96956534 -5.0251107 22.72175764 -3.8125 26.75 C-3.60431641 27.46124023 -3.39613281 28.17248047 -3.18164062 28.90527344 C-2.48498439 31.15772482 -2.48498439 31.15772482 -1 34.125 C1.05763303 35.20031087 1.05763303 35.20031087 3 35.125 C3 33.805 3 32.485 3 31.125 C3.99 31.125 4.98 31.125 6 31.125 C6.1546875 30.01125 6.1546875 30.01125 6.3125 28.875 C7.04253504 25.95485982 8.06789398 24.39312446 10 22.125 C9.39050431 26.2695707 7.96084772 29.4386063 6 33.125 C5.690625 33.8675 5.38125 34.61 5.0625 35.375 C3.7196378 37.58677303 2.28882417 38.01750443 0 39.125 C-1.80310102 44.53430306 0.85118344 50.03032809 3 55.125 C4.89597259 57.55165194 6.29919246 58.5397434 9 60.125 C9.66 60.125 10.32 60.125 11 60.125 C11 60.785 11 61.445 11 62.125 C21.26154022 65.59645722 30.67541799 66.20126388 41.4375 66.25 C42.77143799 66.25713013 42.77143799 66.25713013 44.13232422 66.2644043 C45.39520264 66.26114136 45.39520264 66.26114136 46.68359375 66.2578125 C47.82139282 66.25612061 47.82139282 66.25612061 48.98217773 66.25439453 C51.20626495 66.197839 51.20626495 66.197839 54 65.125 C54.20086443 61.40900809 54.1519437 60.35291555 52 57.125 C52.875 54.4375 52.875 54.4375 54 52.125 C53.01 51.135 52.02 50.145 51 49.125 C51.680625 48.568125 52.36125 48.01125 53.0625 47.4375 C55.28097119 45.29246056 55.28097119 45.29246056 55 42.5 C54.20423043 39.98006227 54.20423043 39.98006227 51.9375 38.8125 C51.298125 38.585625 50.65875 38.35875 50 38.125 C50.495 37.135 50.495 37.135 51 36.125 C52.875 36.75 52.875 36.75 55 38.125 C57.27878599 42.7910856 56.96687605 46.11482411 56 51.125 C54.96234078 57.03965756 55.10030096 61.42590287 57 67.125 C58.95486328 67.10953125 58.95486328 67.10953125 60.94921875 67.09375 C65.58771764 67.09375 70.18493274 67.33249253 74.8125 67.625 C81.91885989 68.03528471 89.0067453 68.23457722 96.125 68.25 C97.43174683 68.25676758 97.43174683 68.25676758 98.76489258 68.26367188 C102.69673607 68.64435259 102.69673607 68.64435259 106 67.125 C108.67250538 67.10412105 111.32900188 67.1313335 114 67.1875 C120.31908812 67.26676106 125.88847363 66.90289858 132 65.125 C132.94125778 61.46455306 133.65698407 57.89817527 134 54.125 C133.34 53.135 132.68 52.145 132 51.125 C133.98 48.155 133.98 48.155 136 45.125 C134.02 43.145 134.02 43.145 132 41.125 C133.32 41.455 134.64 41.785 136 42.125 C136.625 44.5 136.625 44.5 137 47.125 C136.01 48.115 136.01 48.115 135 49.125 C135.165 50.218125 135.33 51.31125 135.5 52.4375 C136.03296631 56.36812655 135.48213276 57.6049347 134 61.125 C134.27701774 62.80194665 134.60458862 64.47196076 135 66.125 C146.213767 67.99624647 146.213767 67.99624647 156.609375 64.953125 C163.05860623 58.23794609 167.90754151 47.33286442 169 38.125 C167.48779932 29.66347263 161.28652745 21.7130244 155 16.125 C154.01 15.63 154.01 15.63 153 15.125 C152.61781233 16.78114657 152.28604898 18.44957024 152 20.125 C152.33 20.455 152.66 20.785 153 21.125 C153.2165625 22.73375 153.2165625 22.73375 153.4375 24.375 C153.82799456 28.02222987 153.82799456 28.02222987 155.125 30.8125 C156.11341176 33.42473109 155.95398577 34.54923842 155 37.125 C152.525 37.62 152.525 37.62 150 38.125 C151 36.125 151 36.125 154 34.125 C153.505 33.238125 153.01 32.35125 152.5 31.4375 C151.05621326 28.24913762 150.69840078 26.54312454 151 23.125 C149.68 22.795 148.36 22.465 147 22.125 C148.98 17.67 148.98 17.67 151 13.125 C145.21350937 9.83307915 141.17561486 8.54587548 134.5625 8.734375 C133.79695801 8.74003479 133.03141602 8.74569458 132.24267578 8.75152588 C129.82777979 8.77369165 127.41443777 8.82384461 125 8.875 C123.35028204 8.89509085 121.70054052 8.91333706 120.05078125 8.9296875 C116.03326695 8.97349057 112.01689574 9.04237398 108 9.125 C108 9.785 108 10.445 108 11.125 C108.99 11.8984375 108.99 11.8984375 110 12.6875 C112.61592046 15.87565306 112.36839565 17.90694411 112.23828125 21.90625 C112 24.125 112 24.125 111.41796875 26.25390625 C110.7829888 28.25792357 110.7829888 28.25792357 112 30.5625 C113.20265703 33.64430863 113.24108827 35.06364894 112 38.125 C109.4375 39.4375 109.4375 39.4375 107 40.125 C108.65 38.145 110.3 36.165 112 34.125 C111.484375 33.238125 110.96875 32.35125 110.4375 31.4375 C108.8982735 27.89058677 108.80781918 26.70154245 110 23.125 C110.33 22.465 110.66 21.805 111 21.125 C110.01 21.125 109.02 21.125 108 21.125 C108.33 20.526875 108.66 19.92875 109 19.3125 C110.20787988 17.07113529 110.20787988 17.07113529 110 14.125 C107.17159994 11.10586005 105.50626342 10.18930472 101.37109375 9.6640625 C100.07300781 9.69242188 98.77492188 9.72078125 97.4375 9.75 C96.13683594 9.76289063 94.83617187 9.77578125 93.49609375 9.7890625 C90.3697929 10.08946683 88.60753355 10.46626365 86 12.125 C86.99 13.61 86.99 13.61 88 15.125 C87.67873872 17.75934254 87.18644952 19.75210097 86 22.125 C85.98012522 23.72917883 86.0072121 25.33415101 86.0625 26.9375 C86.10140325 30.78336422 85.97921869 33.7163456 84 37.125 C83.01 37.62 83.01 37.62 82 38.125 C82.350625 37.01125 82.70125 35.8975 83.0625 34.75 C84.37239331 31.32235524 84.37239331 31.32235524 83 29.125 C83.27942455 27.44845271 83.60828247 25.77891846 84 24.125 C83.01 24.125 82.02 24.125 81 24.125 C82.11179163 20.78962511 83.47411298 19.48792656 86 17.125 C85.06231164 14.06991079 85.06231164 14.06991079 83 11.125 C80.19158076 10.27670567 78.0869318 9.88391153 75.21875 9.6640625 C74.45002563 9.58376801 73.68130127 9.50347351 72.88928223 9.42074585 C70.42796038 9.17084665 67.96495857 8.9606349 65.5 8.75 C63.87214879 8.58708532 62.24453837 8.42174521 60.6171875 8.25390625 C52.40218153 7.43603507 44.26393848 6.85612325 36 7.125 C36.495 8.115 36.495 8.115 37 9.125 C37.31337847 14.66135301 36.4386757 18.2476486 34 23.125 C34.185625 23.74375 34.37125 24.3625 34.5625 25 C35 27.125 35 27.125 34.0625 28.875 C32.44610496 32.2979542 32.87464081 35.36422443 33 39.125 C32.01 39.455 31.02 39.785 30 40.125 C29.67 39.795 29.34 39.465 29 39.125 C29.7734375 38.63 29.7734375 38.63 30.5625 38.125 C32.33834722 35.65425604 32.02853971 34.98054407 31.5625 32.0625 C31.2840625 30.1134375 31.2840625 30.1134375 31 28.125 C31.66 27.465 32.32 26.805 33 26.125 C32.6730244 23.50919521 32.17960932 21.48421863 31 19.125 C31.99 19.125 32.98 19.125 34 19.125 C35.4783226 16.16835481 35.06032783 13.38270263 35 10.125 C34.34 10.125 33.68 10.125 33 10.125 C33 9.465 33 8.805 33 8.125 C32.195625 8.23328125 32.195625 8.23328125 31.375 8.34375 C25.8169062 9.00194532 20.27974669 9.28786142 14.6875 9.375 C13.6655957 9.4069043 13.6655957 9.4069043 12.62304688 9.43945312 C8.2150567 9.46979327 5.48757498 8.84391092 2 6.125 C1.34 5.135 0.68 4.145 0 3.125 C-0.66 3.125 -1.32 3.125 -2 3.125 Z " fill="#0F0F0F" transform="translate(433,214.875)"/>
<path d="M0 0 C5.77481791 -0.48123483 10.26953246 0.47661728 15 4 C16.93551992 7.11661994 17.20289203 9.34794339 17 13 C16.34 13 15.68 13 15 13 C14.62875 11.906875 14.2575 10.81375 13.875 9.6875 C12.57260133 6.64652197 12.05031813 6.03281617 9.125 4.125 C6.39495733 3.14218464 3.86592693 2.42145984 1 2 C-0.37004923 8.85024615 -0.37004923 15.14975385 1 22 C0.443125 22.13535156 -0.11375 22.27070313 -0.6875 22.41015625 C-6.46987964 24.04133429 -10.07758864 26.38479861 -14.37109375 30.57421875 C-16 32 -16 32 -18 32 C-18.2475 32.639375 -18.495 33.27875 -18.75 33.9375 C-20 36 -20 36 -22.125 36.75 C-22.74375 36.8325 -23.3625 36.915 -24 37 C-22.42525801 33.1347242 -20.02964023 30.832055 -17 28 C-16.37480469 27.40445313 -15.74960938 26.80890625 -15.10546875 26.1953125 C-11.26801011 22.65868714 -8.22717602 20.1761146 -3 19 C-3.05220703 17.82244141 -3.05220703 17.82244141 -3.10546875 16.62109375 C-3.27019021 10.22833246 -3.07880961 5.64448429 0 0 Z " fill="#0C0C0C" transform="translate(93,156)"/>
<path d="M0 0 C0 0.66 0 1.32 0 2 C-0.71027344 2.27714844 -1.42054687 2.55429687 -2.15234375 2.83984375 C-3.53099609 3.38318359 -3.53099609 3.38318359 -4.9375 3.9375 C-5.85402344 4.29714844 -6.77054687 4.65679687 -7.71484375 5.02734375 C-9.92418533 5.7996218 -9.92418533 5.7996218 -11 7 C-11.28309917 9.92535811 -11.47978275 12.15557372 -11 15 C-8.66160743 17.49428541 -6.87026214 17.9166625 -3.51171875 18.23828125 C-0.95084612 18.30869598 1.46050211 18.34609086 4 18 C6.25714799 16.20280375 6.25714799 16.20280375 6.0546875 13.72265625 C5.93504674 11.95145277 5.81005907 10.18060222 5.6796875 8.41015625 C6 6 6 6 8.0078125 4.18359375 C8.99394531 3.59771484 8.99394531 3.59771484 10 3 C10.66 3.33 11.32 3.66 12 4 C11.34 4.66 10.68 5.32 10 6 C9.75639927 9.12814514 9.75639927 9.12814514 9.875 12.625 C9.90207031 14.40777344 9.90207031 14.40777344 9.9296875 16.2265625 C9.95289062 17.14179688 9.97609375 18.05703125 10 19 C4.99395393 22.08064374 0.74197092 23.11649435 -5 22 C-8.66035929 20.58577027 -11.42729061 18.99070108 -14 16 C-15.0562633 12.44559015 -14.98643148 9.56585789 -14 6 C-10.16916893 1.62190735 -5.72272131 0 0 0 Z " fill="#090909" transform="translate(99,265)"/>
<path d="M0 0 C-0.33 0.66 -0.66 1.32 -1 2 C-2.32 2 -3.64 2 -5 2 C-5 2.66 -5 3.32 -5 4 C-4.360625 4.2475 -3.72125 4.495 -3.0625 4.75 C-1 6 -1 6 -0.25 7.6875 C0.16708565 11.54554222 0.47927342 15.37047037 -0.625 19.125 C-1.21518521 21.13431286 -1.21518521 21.13431286 0.0625 23.375 C1 26 1 26 0.4375 29.1875 C-1 32 -1 32 -3.625 33.375 C-4.40875 33.58125 -5.1925 33.7875 -6 34 C-6 31 -6 31 -4 28.8125 C-3.01 27.9153125 -3.01 27.9153125 -2 27 C-2.515625 26.113125 -3.03125 25.22625 -3.5625 24.3125 C-5.08979002 20.79309257 -5.21675714 19.548875 -4 16 C-3.67 15.67 -3.34 15.34 -3 15 C-3.66 14.67 -4.32 14.34 -5 14 C-4.42415568 11.61435923 -3.77772405 9.33317216 -3 7 C-8.60944292 3.85871197 -14.68146331 2.77369837 -21 2 C-20.67 1.34 -20.34 0.68 -20 0 C-17.22949974 -0.1946838 -14.45886998 -0.38102792 -11.6875 -0.5625 C-10.90181641 -0.61857422 -10.11613281 -0.67464844 -9.30664062 -0.73242188 C-8.1706543 -0.80493164 -8.1706543 -0.80493164 -7.01171875 -0.87890625 C-6.31522217 -0.9260376 -5.61872559 -0.97316895 -4.90112305 -1.02172852 C-3 -1 -3 -1 0 0 Z " fill="#030303" transform="translate(546,222)"/>
<path d="M0 0 C1.75570312 0.04060547 1.75570312 0.04060547 3.546875 0.08203125 C4.43890625 0.11683594 5.3309375 0.15164062 6.25 0.1875 C5.92 0.8475 5.59 1.5075 5.25 2.1875 C3.13363372 2.50233135 1.00551785 2.73996854 -1.125 2.9375 C-6.2909342 3.51444552 -6.2909342 3.51444552 -10.0625 6.8125 C-10.91800707 11.012262 -11.29488692 13.89651549 -10.75 18.1875 C-8.00230393 21.81256747 -6.49662571 23.04745932 -1.98046875 23.89453125 C-0.63365134 23.95365982 0.71443526 23.98838987 2.0625 24 C2.75537109 24.02513672 3.44824219 24.05027344 4.16210938 24.07617188 C5.85747122 24.13463263 7.55379287 24.16403047 9.25 24.1875 C8.92 25.1775 8.59 26.1675 8.25 27.1875 C5.68508544 27.12721999 3.12578243 27.04012053 0.5625 26.9375 C-0.15873047 26.92332031 -0.87996094 26.90914062 -1.62304688 26.89453125 C-6.51162977 26.67130829 -9.22941602 25.87637193 -12.75 22.1875 C-14.57486599 16.71290202 -14.46726665 11.1599833 -12.5 5.75 C-8.96117462 0.56814855 -6.21796425 -0.18653893 0 0 Z " fill="#171717" transform="translate(103.75,192.8125)"/>
<path d="M0 0 C0.66 0.33 1.32 0.66 2 1 C1.566875 1.804375 1.566875 1.804375 1.125 2.625 C-0.65946551 6.39220496 -2 9.80734719 -2 14 C-10.58 14.33 -19.16 14.66 -28 15 C-28.33 14.34 -28.66 13.68 -29 13 C-21.2441657 11.29005228 -13.93396732 10.75076542 -6 11 C-5.855625 10.236875 -5.71125 9.47375 -5.5625 8.6875 C-4.62559525 4.2111773 -3.76444884 2.5501105 0 0 Z " fill="#1C1C1C" transform="translate(141,156)"/>
<path d="M0 0 C0.99 0.33 1.98 0.66 3 1 C2.3897536 5.14967549 0.99267393 8.32121736 -1 12 C-1.7115625 13.3921875 -1.7115625 13.3921875 -2.4375 14.8125 C-4 17 -4 17 -6.1875 17.8125 C-6.785625 17.874375 -7.38375 17.93625 -8 18 C-7.67 20.31 -7.34 22.62 -7 25 C-8.32 24.34 -9.64 23.68 -11 23 C-11 19.7 -11 16.4 -11 13 C-8.03 13.495 -8.03 13.495 -5 14 C-5 12.68 -5 11.36 -5 10 C-4.01 10 -3.02 10 -2 10 C-2.226875 9.443125 -2.45375 8.88625 -2.6875 8.3125 C-3.12446199 5.07898125 -1.78001197 3.63441772 0 1 C0 0.67 0 0.34 0 0 Z " fill="#020202" transform="translate(441,236)"/>
<path d="M0 0 C0.66 0.33 1.32 0.66 2 1 C0.125 5.75 0.125 5.75 -1 8 C-0.7215625 8.928125 -0.7215625 8.928125 -0.4375 9.875 C0 12 0 12 -0.9375 13.75 C-2.55389504 17.1729542 -2.12535919 20.23922443 -2 24 C-3.98 24.99 -3.98 24.99 -6 26 C-6.66 25.34 -7.32 24.68 -8 24 C-7.484375 23.67 -6.96875 23.34 -6.4375 23 C-4.66165278 20.52925604 -4.97146029 19.85554407 -5.4375 16.9375 C-5.623125 15.638125 -5.80875 14.33875 -6 13 C-5.34 12.34 -4.68 11.68 -4 11 C-4.32326553 7.40320934 -4.32326553 7.40320934 -5 4 C-4.01 4 -3.02 4 -2 4 C-1.34 2.68 -0.68 1.36 0 0 Z " fill="#000000" transform="translate(469,230)"/>
<path d="M0 0 C0.33 0 0.66 0 1 0 C1.33 4.95 1.66 9.9 2 15 C2.66 15 3.32 15 4 15 C5.32 19.95 6.64 24.9 8 30 C7.34 30 6.68 30 6 30 C5.505 32.475 5.505 32.475 5 35 C4.67 35 4.34 35 4 35 C3.896875 33.865625 3.79375 32.73125 3.6875 31.5625 C3.32311188 28.47055962 2.63850392 25.98588199 1.4375 23.125 C-1.21119158 15.86038475 -0.22162454 7.60910911 0 0 Z " fill="#1C1C1C" transform="translate(425,220)"/>
<path d="M0 0 C0.66 0.33 1.32 0.66 2 1 C-0.32216997 5.51533049 -2.98560245 8.01055501 -7 11 C-7.66 11 -8.32 11 -9 11 C-9.2475 11.639375 -9.495 12.27875 -9.75 12.9375 C-11 15 -11 15 -13.125 15.75 C-14.053125 15.87375 -14.053125 15.87375 -15 16 C-12.22625482 9.19171638 -5.43482117 4.67961029 0 0 Z " fill="#1D1D1D" transform="translate(84,177)"/>
<path d="M0 0 C-0.5 1.9375 -0.5 1.9375 -2 4 C-4.00124965 4.3227822 -6.00756504 4.63630773 -8.02734375 4.80859375 C-10.51704792 5.05016901 -12.06468183 5.37433274 -14 7 C-14.81584568 10.05908413 -14.81584568 10.05908413 -15 13 C-15.33 13 -15.66 13 -16 13 C-16.375 9.8125 -16.375 9.8125 -16 6 C-12.73967008 2.34206887 -11.10058955 1.24250278 -6.3125 0.1875 C-4.21076959 0.06853413 -2.10509468 0 0 0 Z " fill="#1D1D1D" transform="translate(235,264)"/>
<path d="M0 0 C3.3 0 6.6 0 10 0 C10 0.33 10 0.66 10 1 C16.6 1.33 23.2 1.66 30 2 C30 2.33 30 2.66 30 3 C19.77 3 9.54 3 -1 3 C-0.67 2.01 -0.34 1.02 0 0 Z " fill="#1F1F1F" transform="translate(546,221)"/>
<path d="M0 0 C4.62 0 9.24 0 14 0 C13.67 0.99 13.34 1.98 13 3 C6.565 3.495 6.565 3.495 0 4 C-0.33 3.34 -0.66 2.68 -1 2 C-0.67 1.34 -0.34 0.68 0 0 Z " fill="#2C2C2C" transform="translate(229,228)"/>
<path d="M0 0 C3.37462715 0.54723683 5.08235 1.0549 8 3 C9.99767079 6.04907647 10.20016822 8.39697197 10 12 C9.34 12 8.68 12 8 12 C7.62875 10.906875 7.2575 9.81375 6.875 8.6875 C5.5201201 5.45411511 5.02341962 5.01423545 1.8125 3.0625 C0.884375 2.711875 -0.04375 2.36125 -1 2 C-0.67 1.34 -0.34 0.68 0 0 Z " fill="#262626" transform="translate(100,157)"/>
<path d="M0 0 C0.33 0.99 0.66 1.98 1 3 C-0.58203125 5.69921875 -0.58203125 5.69921875 -2.8125 8.6875 C-3.90498047 10.17830078 -3.90498047 10.17830078 -5.01953125 11.69921875 C-5.99986328 12.83810547 -5.99986328 12.83810547 -7 14 C-7.66 14 -8.32 14 -9 14 C-7.80100302 10.9168649 -6.52299523 7.93720508 -5 5 C-4.34 5 -3.68 5 -3 5 C-2.690625 4.360625 -2.38125 3.72125 -2.0625 3.0625 C-1 1 -1 1 0 0 Z " fill="#1B1B1B" transform="translate(242,250)"/>
<path d="M0 0 C0.66 0.66 1.32 1.32 2 2 C1.69903201 6.13830989 1.32101984 8.51847024 -1 12 C-1.66 12 -2.32 12 -3 12 C-2.835 10.906875 -2.67 9.81375 -2.5 8.6875 C-1.93281816 5.12474127 -1.93281816 5.12474127 -2 2 C-1.34 1.34 -0.68 0.68 0 0 Z " fill="#000000" transform="translate(518,241)"/>
<path d="M0 0 C2 3 2 3 2 6 C-1.3 6.66 -4.6 7.32 -8 8 C-5.76511761 3.53023521 -5.34120361 3.55838078 -1 2 C-0.67 1.34 -0.34 0.68 0 0 Z " fill="#131313" transform="translate(92,172)"/>
<path d="M0 0 C0.99 0.33 1.98 0.66 3 1 C1.68 3.64 0.36 6.28 -1 9 C-1.66 9 -2.32 9 -3 9 C-3 8.34 -3 7.68 -3 7 C-3.66 6.67 -4.32 6.34 -5 6 C-4.01 5.67 -3.02 5.34 -2 5 C-0.78130071 2.49552484 -0.78130071 2.49552484 0 0 Z " fill="#242424" transform="translate(102,258)"/>
<path d="M0 0 C2.4375 0.8125 2.4375 0.8125 5 2 C5.33 2.99 5.66 3.98 6 5 C3 5 3 5 0.8125 3 C0.214375 2.34 -0.38375 1.68 -1 1 C-0.67 0.67 -0.34 0.34 0 0 Z " fill="#000000" transform="translate(565,255)"/>
<path d="M0 0 C0.66 0.33 1.32 0.66 2 1 C1.34 2.32 0.68 3.64 0 5 C-0.66 5 -1.32 5 -2 5 C-2.33 6.98 -2.66 8.96 -3 11 C-3.33 11 -3.66 11 -4 11 C-4.49230769 4.6 -4.49230769 4.6 -2 1.5625 C-1.34 1.046875 -0.68 0.53125 0 0 Z " fill="#3F3F3F" transform="translate(223,266)"/>
<path d="M0 0 C1.32 0.33 2.64 0.66 4 1 C3.67 2.32 3.34 3.64 3 5 C2.01 4.67 1.02 4.34 0 4 C0 2.68 0 1.36 0 0 Z " fill="#1E1E1E" transform="translate(131,190)"/>
</svg>
