<?xml version="1.0" encoding="UTF-8"?>
<svg version="1.1" xmlns="http://www.w3.org/2000/svg" width="800" height="300">
<path d="M0 0 C264 0 528 0 800 0 C800 99 800 198 800 300 C536 300 272 300 0 300 C0 201 0 102 0 0 Z " fill="#FEFEFE" transform="translate(0,0)"/>
<path d="M0 0 C2.92850092 2.13845909 4.69845473 3.64878617 5.359375 7.3046875 C5.36291553 9.54938148 5.23679702 11.68470881 4.92578125 13.90625 C6.00859375 14.2465625 6.00859375 14.2465625 7.11328125 14.59375 C14.0584556 17.83483136 19.34096933 25.56737693 21.93505859 32.66943359 C22.89515974 35.80620564 23.54991836 38.84400178 24.109375 42.07421875 C24.31498047 43.21439453 24.52058594 44.35457031 24.73242188 45.52929688 C25.15488846 47.91629847 25.57150575 50.30434231 25.98242188 52.69335938 C26.18931641 53.82966797 26.39621094 54.96597656 26.609375 56.13671875 C26.79040771 57.17207764 26.97144043 58.20743652 27.15795898 59.27416992 C27.97091934 62.06098252 28.66560551 63.14539461 30.92578125 64.90625 C31.58578125 65.23625 32.24578125 65.56625 32.92578125 65.90625 C32.92578125 66.56625 32.92578125 67.22625 32.92578125 67.90625 C33.79203125 68.091875 33.79203125 68.091875 34.67578125 68.28125 C36.92578125 68.90625 36.92578125 68.90625 38.69873047 69.87573242 C47.38237024 73.8938911 58.44584597 73.19360605 67.80078125 73.09375 C69.55648437 73.0927832 69.55648437 73.0927832 71.34765625 73.09179688 C79.69502295 73.09618726 79.69502295 73.09618726 87.92578125 71.90625 C88.25578125 71.24625 88.58578125 70.58625 88.92578125 69.90625 C90.81738281 69.54321289 90.81738281 69.54321289 93.31640625 69.37890625 C94.24396729 69.3104248 95.17152832 69.24194336 96.12719727 69.17138672 C97.13322998 69.1045166 98.1392627 69.03764648 99.17578125 68.96875 C108.21894814 68.28847094 117.13816878 67.27917576 126.09667969 65.87133789 C130.42452996 65.20376226 134.52848024 64.74945807 138.92578125 64.90625 C139.00828125 64.37 139.09078125 63.83375 139.17578125 63.28125 C140.26438231 59.83401329 141.51631362 57.62462373 143.92578125 54.90625 C146.92182886 54.16465406 148.77191887 54.44843127 151.92578125 54.90625 C154.35523285 58.5504274 154.087577 60.61866272 153.92578125 64.90625 C155.03953125 64.9990625 155.03953125 64.9990625 156.17578125 65.09375 C159.90079174 66.19432128 160.97248905 67.57841884 162.92578125 70.90625 C163.56676657 74.36757073 163.56070085 76.6097335 161.99609375 79.8046875 C157.7338895 85.78186151 151.85981212 86.72813796 144.92578125 87.90625 C145.25578125 88.89625 145.58578125 89.88625 145.92578125 90.90625 C146.29644898 95.91026435 146.0245996 98.88926324 142.92578125 102.90625 C139.23092022 105.36949069 137.29285033 105.29616688 132.92578125 104.90625 C132.43078125 104.390625 131.93578125 103.875 131.42578125 103.34375 C130.93078125 102.869375 130.43578125 102.395 129.92578125 101.90625 C126.42231363 102.17574751 123.1553475 102.85223441 119.73828125 103.65625 C113.21699326 104.08387544 107.07369097 101.95555324 100.92578125 99.90625 C100.62285156 100.47472656 100.31992188 101.04320312 100.0078125 101.62890625 C97.27949492 106.65740542 94.46872824 111.40574977 90.92578125 115.90625 C90.26578125 115.90625 89.60578125 115.90625 88.92578125 115.90625 C88.92578125 119.20625 88.92578125 122.50625 88.92578125 125.90625 C86.50843583 125.98742951 84.09383176 126.04681926 81.67578125 126.09375 C80.99386719 126.11888672 80.31195313 126.14402344 79.609375 126.16992188 C76.54566196 126.21453906 74.26152785 126.06981886 71.48828125 124.71875 C69.45189075 122.35653702 69.33619957 120.80680266 69.17578125 117.71875 C69.1190625 116.81769531 69.06234375 115.91664063 69.00390625 114.98828125 C68.96523438 113.95767578 68.96523438 113.95767578 68.92578125 112.90625 C73.83502422 108.97885562 76.66498677 108.47447107 82.92578125 108.90625 C83.04953125 108.33003906 83.17328125 107.75382812 83.30078125 107.16015625 C83.94062928 104.8527043 84.81606034 102.96119542 85.92578125 100.84375 C87.145516 98.50741984 88.08679948 96.4231953 88.92578125 93.90625 C56.25578125 93.90625 23.58578125 93.90625 -10.07421875 93.90625 C-4.09712932 104.19120918 -4.09712932 104.19120918 5.61328125 109.09375 C6.38027344 109.21105469 7.14726562 109.32835937 7.9375 109.44921875 C9.92578125 109.90625 9.92578125 109.90625 11.92578125 111.90625 C12.52869757 116.33024641 12.39345138 120.56169837 10.92578125 124.78125 C7.04840581 128.9009614 2.75133797 130.69326838 -2.82421875 131.34375 C-6.32970761 130.87185727 -7.84779165 130.66701961 -10.07421875 127.90625 C-10.59660681 121.95102612 -10.59660681 121.95102612 -9.07421875 118.90625 C-8.41421875 118.90625 -7.75421875 118.90625 -7.07421875 118.90625 C-7.07421875 118.24625 -7.07421875 117.58625 -7.07421875 116.90625 C-8.24984375 116.535 -8.24984375 116.535 -9.44921875 116.15625 C-12.07421875 114.90625 -12.07421875 114.90625 -13.01171875 112.90625 C-14.60909127 109.89943115 -16.89375481 109.88485429 -20.07421875 108.90625 C-25.49519777 105.6111451 -25.49519777 105.6111451 -27.51171875 103.15625 C-30.14829009 101.04699293 -32.83366387 101.67884264 -36.07421875 101.90625 C-36.6971582 102.06536865 -37.32009766 102.2244873 -37.96191406 102.38842773 C-40.45744277 103.00019569 -42.87312975 103.22597197 -45.43359375 103.44140625 C-46.46742187 103.52841797 -47.50125 103.61542969 -48.56640625 103.70507812 C-49.64148438 103.79208984 -50.7165625 103.87910156 -51.82421875 103.96875 C-53.41363281 104.10506836 -53.41363281 104.10506836 -55.03515625 104.24414062 C-60.73724355 104.7145982 -66.3531786 105.00989203 -72.07421875 104.90625 C-71.95046875 106.0509375 -71.95046875 106.0509375 -71.82421875 107.21875 C-72.07421875 109.90625 -72.07421875 109.90625 -73.63671875 111.71875 C-77.13295962 113.42204684 -79.21744596 113.49457127 -83.07421875 112.90625 C-86.27890461 111.48471619 -88.23942866 109.90863379 -90.07421875 106.90625 C-91.25481689 100.90550277 -91.23328789 95.8029086 -88.01171875 90.53125 C-84.13977392 88.38932307 -82.3281802 88.87943172 -78.07421875 89.90625 C-76.12515625 90.1846875 -76.12515625 90.1846875 -74.13671875 90.46875 C-73.12609375 90.613125 -72.11546875 90.7575 -71.07421875 90.90625 C-71.72648437 90.46796875 -72.37875 90.0296875 -73.05078125 89.578125 C-79.88908342 84.61581723 -85.34819568 79.44079376 -87.07421875 70.90625 C-88.5711354 56.41579289 -88.89783822 39.15501077 -79.94140625 26.87890625 C-74.84584271 21.49551799 -68.23004527 18.46186446 -61.07421875 16.90625 C-60.98140625 15.17375 -60.98140625 15.17375 -60.88671875 13.40625 C-60.25636766 8.50351932 -58.51349084 4.50227175 -55.07421875 0.90625 C-52.07421875 0.03125 -52.07421875 0.03125 -49.07421875 0.90625 C-45.72123233 3.96767239 -44.18484154 5.71152384 -43.76171875 10.28125 C-43.86484375 11.1475 -43.96796875 12.01375 -44.07421875 12.90625 C-43.22859375 12.41125 -42.38296875 11.91625 -41.51171875 11.40625 C-35.56644214 8.82507024 -28.4088937 9.35006987 -22.07421875 9.90625 C-19.6171875 10.92578125 -19.6171875 10.92578125 -18.07421875 11.90625 C-18.15671875 10.854375 -18.23921875 9.8025 -18.32421875 8.71875 C-18.03418292 4.29570355 -17.20540993 2.95046365 -14.07421875 -0.09375 C-9.83026 -3.42828902 -4.48095792 -2.36284033 0 0 Z " fill="#FBFBFB" transform="translate(146.07421875,155.09375)"/>
<path d="M0 0 C3 1.125 3 1.125 5 3.6875 C9.32001529 7.19751242 13.01420795 6.59726205 18.4296875 6.49609375 C22.01158558 6.23583078 22.01158558 6.23583078 25.37890625 5.11328125 C29.72194312 3.92796482 33.58676641 3.82463072 38.0625 3.875 C38.917229 3.87959229 39.77195801 3.88418457 40.65258789 3.88891602 C51.61101098 4.03859687 63.01807355 4.52413677 73.78515625 6.68359375 C80.82494371 8.0865849 88.40862453 7.17685983 95.53857422 6.76416016 C105.97627002 6.1740504 116.4101612 5.95654549 126.86279297 5.89282227 C128.52755234 5.88101202 130.19228348 5.86398605 131.85693359 5.84155273 C134.22511537 5.81141051 136.59258459 5.80161354 138.9609375 5.796875 C139.6675351 5.78456848 140.37413269 5.77226196 141.10214233 5.75958252 C146.17862453 5.78191008 149.57350682 6.81558656 154 9.125 C155.125 11.0625 155.125 11.0625 156 13.125 C157.65788785 14.46923339 159.32576317 15.80118483 161 17.125 C166.84894313 23.54457172 170.43621605 29.48716048 171.3125 38.25 C170.50377503 48.27818958 165.21584103 59.73516824 158.5 67.25 C153.59544727 70.92841455 147.51979135 70.25205331 141.61328125 70.1875 C140.79796432 70.18371338 139.9826474 70.17992676 139.1426239 70.17602539 C135.69405414 70.15997515 132.245609 70.13260761 128.79711914 70.10449219 C119.32798193 70.03416536 109.89614519 70.09692316 100.43473816 70.52130127 C85.70750233 71.18117987 71.09029734 71.04011423 56.35986328 70.51074219 C52.44729389 70.37314645 48.53447789 70.26017907 44.62109375 70.1484375 C42.09109647 70.06396567 39.56114587 69.97808136 37.03125 69.890625 C35.88217163 69.85922424 34.73309326 69.82782349 33.54919434 69.79547119 C23.3765977 69.39496198 11.83441329 68.06975681 4.34765625 60.44140625 C-1.82681152 52.93844664 -3.0637654 44.33844549 -4.4609375 34.97265625 C-4.94344294 32.42376882 -5.62919869 30.37782463 -6.625 28 C-8.28641092 23.3583262 -8.40171748 18.75701372 -8.5 13.875 C-8.5304541 13.09366699 -8.5609082 12.31233398 -8.59228516 11.50732422 C-8.59503932 7.23378247 -8.35530653 5.58571414 -5.65625 2.0859375 C-3 0.125 -3 0.125 0 0 Z " fill="#646464" transform="translate(433,214.875)"/>
<path d="M0 0 C2.92850092 2.13845909 4.69845473 3.64878617 5.359375 7.3046875 C5.36291553 9.54938148 5.23679702 11.68470881 4.92578125 13.90625 C6.00859375 14.2465625 6.00859375 14.2465625 7.11328125 14.59375 C14.0584556 17.83483136 19.34096933 25.56737693 21.93505859 32.66943359 C22.89515974 35.80620564 23.54991836 38.84400178 24.109375 42.07421875 C24.31498047 43.21439453 24.52058594 44.35457031 24.73242188 45.52929688 C25.15488846 47.91629847 25.57150575 50.30434231 25.98242188 52.69335938 C26.18931641 53.82966797 26.39621094 54.96597656 26.609375 56.13671875 C26.79040771 57.17207764 26.97144043 58.20743652 27.15795898 59.27416992 C27.97091934 62.06098252 28.66560551 63.14539461 30.92578125 64.90625 C31.58578125 65.23625 32.24578125 65.56625 32.92578125 65.90625 C32.92578125 66.56625 32.92578125 67.22625 32.92578125 67.90625 C33.79203125 68.091875 33.79203125 68.091875 34.67578125 68.28125 C36.92578125 68.90625 36.92578125 68.90625 38.69873047 69.87573242 C47.38237024 73.8938911 58.44584597 73.19360605 67.80078125 73.09375 C69.55648437 73.0927832 69.55648437 73.0927832 71.34765625 73.09179688 C79.69502295 73.09618726 79.69502295 73.09618726 87.92578125 71.90625 C88.25578125 71.24625 88.58578125 70.58625 88.92578125 69.90625 C90.81738281 69.54321289 90.81738281 69.54321289 93.31640625 69.37890625 C94.24396729 69.3104248 95.17152832 69.24194336 96.12719727 69.17138672 C97.13322998 69.1045166 98.1392627 69.03764648 99.17578125 68.96875 C108.21894814 68.28847094 117.13816878 67.27917576 126.09667969 65.87133789 C130.42452996 65.20376226 134.52848024 64.74945807 138.92578125 64.90625 C139.00828125 64.37 139.09078125 63.83375 139.17578125 63.28125 C140.26438231 59.83401329 141.51631362 57.62462373 143.92578125 54.90625 C146.92182886 54.16465406 148.77191887 54.44843127 151.92578125 54.90625 C154.35523285 58.5504274 154.087577 60.61866272 153.92578125 64.90625 C155.03953125 64.9990625 155.03953125 64.9990625 156.17578125 65.09375 C159.90079174 66.19432128 160.97248905 67.57841884 162.92578125 70.90625 C163.56676657 74.36757073 163.56070085 76.6097335 161.99609375 79.8046875 C157.7338895 85.78186151 151.85981212 86.72813796 144.92578125 87.90625 C145.25578125 88.89625 145.58578125 89.88625 145.92578125 90.90625 C146.29644898 95.91026435 146.0245996 98.88926324 142.92578125 102.90625 C139.23092022 105.36949069 137.29285033 105.29616688 132.92578125 104.90625 C132.43078125 104.390625 131.93578125 103.875 131.42578125 103.34375 C130.93078125 102.869375 130.43578125 102.395 129.92578125 101.90625 C126.42231363 102.17574751 123.1553475 102.85223441 119.73828125 103.65625 C113.21699326 104.08387544 107.07369097 101.95555324 100.92578125 99.90625 C100.62285156 100.47472656 100.31992188 101.04320312 100.0078125 101.62890625 C97.27949492 106.65740542 94.46872824 111.40574977 90.92578125 115.90625 C90.26578125 115.90625 89.60578125 115.90625 88.92578125 115.90625 C88.92578125 119.20625 88.92578125 122.50625 88.92578125 125.90625 C86.50843583 125.98742951 84.09383176 126.04681926 81.67578125 126.09375 C80.99386719 126.11888672 80.31195313 126.14402344 79.609375 126.16992188 C76.54566196 126.21453906 74.26152785 126.06981886 71.48828125 124.71875 C69.45189075 122.35653702 69.33619957 120.80680266 69.17578125 117.71875 C69.1190625 116.81769531 69.06234375 115.91664063 69.00390625 114.98828125 C68.96523438 113.95767578 68.96523438 113.95767578 68.92578125 112.90625 C73.83502422 108.97885562 76.66498677 108.47447107 82.92578125 108.90625 C83.04953125 108.33003906 83.17328125 107.75382812 83.30078125 107.16015625 C83.94062928 104.8527043 84.81606034 102.96119542 85.92578125 100.84375 C87.145516 98.50741984 88.08679948 96.4231953 88.92578125 93.90625 C56.25578125 93.90625 23.58578125 93.90625 -10.07421875 93.90625 C-4.09712932 104.19120918 -4.09712932 104.19120918 5.61328125 109.09375 C6.38027344 109.21105469 7.14726562 109.32835937 7.9375 109.44921875 C9.92578125 109.90625 9.92578125 109.90625 11.92578125 111.90625 C12.52869757 116.33024641 12.39345138 120.56169837 10.92578125 124.78125 C7.04840581 128.9009614 2.75133797 130.69326838 -2.82421875 131.34375 C-6.32970761 130.87185727 -7.84779165 130.66701961 -10.07421875 127.90625 C-10.59660681 121.95102612 -10.59660681 121.95102612 -9.07421875 118.90625 C-8.41421875 118.90625 -7.75421875 118.90625 -7.07421875 118.90625 C-7.07421875 118.24625 -7.07421875 117.58625 -7.07421875 116.90625 C-8.24984375 116.535 -8.24984375 116.535 -9.44921875 116.15625 C-12.07421875 114.90625 -12.07421875 114.90625 -13.01171875 112.90625 C-14.60909127 109.89943115 -16.89375481 109.88485429 -20.07421875 108.90625 C-25.49519777 105.6111451 -25.49519777 105.6111451 -27.51171875 103.15625 C-30.14829009 101.04699293 -32.83366387 101.67884264 -36.07421875 101.90625 C-36.6971582 102.06536865 -37.32009766 102.2244873 -37.96191406 102.38842773 C-40.45744277 103.00019569 -42.87312975 103.22597197 -45.43359375 103.44140625 C-46.46742187 103.52841797 -47.50125 103.61542969 -48.56640625 103.70507812 C-49.64148438 103.79208984 -50.7165625 103.87910156 -51.82421875 103.96875 C-53.41363281 104.10506836 -53.41363281 104.10506836 -55.03515625 104.24414062 C-60.73724355 104.7145982 -66.3531786 105.00989203 -72.07421875 104.90625 C-71.95046875 106.0509375 -71.95046875 106.0509375 -71.82421875 107.21875 C-72.07421875 109.90625 -72.07421875 109.90625 -73.63671875 111.71875 C-77.13295962 113.42204684 -79.21744596 113.49457127 -83.07421875 112.90625 C-86.27890461 111.48471619 -88.23942866 109.90863379 -90.07421875 106.90625 C-91.25481689 100.90550277 -91.23328789 95.8029086 -88.01171875 90.53125 C-84.13977392 88.38932307 -82.3281802 88.87943172 -78.07421875 89.90625 C-76.12515625 90.1846875 -76.12515625 90.1846875 -74.13671875 90.46875 C-73.12609375 90.613125 -72.11546875 90.7575 -71.07421875 90.90625 C-71.72648437 90.46796875 -72.37875 90.0296875 -73.05078125 89.578125 C-79.88908342 84.61581723 -85.34819568 79.44079376 -87.07421875 70.90625 C-88.5711354 56.41579289 -88.89783822 39.15501077 -79.94140625 26.87890625 C-74.84584271 21.49551799 -68.23004527 18.46186446 -61.07421875 16.90625 C-60.98140625 15.17375 -60.98140625 15.17375 -60.88671875 13.40625 C-60.25636766 8.50351932 -58.51349084 4.50227175 -55.07421875 0.90625 C-52.07421875 0.03125 -52.07421875 0.03125 -49.07421875 0.90625 C-45.72123233 3.96767239 -44.18484154 5.71152384 -43.76171875 10.28125 C-43.86484375 11.1475 -43.96796875 12.01375 -44.07421875 12.90625 C-43.22859375 12.41125 -42.38296875 11.91625 -41.51171875 11.40625 C-35.56644214 8.82507024 -28.4088937 9.35006987 -22.07421875 9.90625 C-19.6171875 10.92578125 -19.6171875 10.92578125 -18.07421875 11.90625 C-18.15671875 10.854375 -18.23921875 9.8025 -18.32421875 8.71875 C-18.03418292 4.29570355 -17.20540993 2.95046365 -14.07421875 -0.09375 C-9.83026 -3.42828902 -4.48095792 -2.36284033 0 0 Z M-13.57421875 3.84375 C-15.65794846 8.09803149 -14.9840228 11.36711892 -14.07421875 15.90625 C-15.08484375 15.57625 -16.09546875 15.24625 -17.13671875 14.90625 C-26.86552301 12.48700915 -37.45847492 13.37221868 -47.07421875 15.90625 C-47.0278125 15.30296875 -46.98140625 14.6996875 -46.93359375 14.078125 C-46.65219255 8.88242626 -46.65219255 8.88242626 -48.82421875 4.28125 C-50.92939783 2.75325901 -50.92939783 2.75325901 -53.13671875 2.78125 C-56.27000299 4.60057634 -56.88121318 6.50618413 -58.07421875 9.90625 C-58.30891005 13.25684285 -58.25309248 16.55402373 -58.07421875 19.90625 C-59.04359375 19.968125 -60.01296875 20.03 -61.01171875 20.09375 C-67.11630103 20.98529143 -72.83057475 24.12604474 -76.88671875 28.78125 C-84.97632792 40.33783453 -87.02780078 52.92347937 -85.07421875 66.90625 C-82.97530216 74.76136851 -78.48416463 81.46862284 -72.26171875 86.671875 C-66.09939639 90.14918548 -59.52374004 90.29325358 -52.63671875 90.53125 C-51.71439453 90.56992188 -50.79207031 90.60859375 -49.84179688 90.6484375 C-47.58612732 90.74193676 -45.33044959 90.8276891 -43.07421875 90.90625 C-50.70500667 92.34708902 -58.35593268 93.37627271 -66.07421875 94.21875 C-66.99420654 94.33138184 -67.91419434 94.44401367 -68.86206055 94.56005859 C-69.73644775 94.64980957 -70.61083496 94.73956055 -71.51171875 94.83203125 C-72.29417969 94.91880127 -73.07664062 95.00557129 -73.8828125 95.0949707 C-76.70024662 94.85233739 -77.87433368 93.60964879 -80.07421875 91.90625 C-83.26657147 92.13198891 -83.26657147 92.13198891 -86.07421875 92.90625 C-88.08229713 99.42562991 -88.08229713 99.42562991 -87.3046875 105.97265625 C-85.11997186 108.85093241 -83.43072536 109.85032739 -79.88671875 110.40625 C-76.94674492 110.16039188 -76.94674492 110.16039188 -75.07421875 107.90625 C-74.90740766 104.82277174 -74.90740766 104.82277174 -75.07421875 101.90625 C-74.35298828 101.92292725 -73.63175781 101.93960449 -72.88867188 101.95678711 C-65.32990212 102.05473962 -58.06034077 101.46844953 -50.57421875 100.46875 C-42.41615832 99.40972228 -34.27878412 98.5212258 -26.07421875 97.90625 C-26.56921875 99.39125 -26.56921875 99.39125 -27.07421875 100.90625 C-26.51734375 101.26976562 -25.96046875 101.63328125 -25.38671875 102.0078125 C-21.45924589 104.59516793 -17.61083087 107.21962865 -13.88671875 110.09375 C-8.50702781 114.32461044 -8.50702781 114.32461044 -2.07421875 115.90625 C-3.3035589 119.59427044 -5.01281253 120.62981973 -8.07421875 122.90625 C-7.57665783 125.66266416 -7.57665783 125.66266416 -6.07421875 127.90625 C-2.03209904 127.8734539 1.74935591 127.50954505 5.36328125 125.65625 C8.15894105 122.52511102 8.8734374 119.81354332 9.11328125 115.65625 C9.23459091 112.99593674 9.23459091 112.99593674 7.92578125 111.90625 C6.68828125 111.761875 5.45078125 111.6175 4.17578125 111.46875 C0.8046043 111.06929277 -2.0866605 110.6263593 -5.07421875 108.90625 C-5.69921875 107.03125 -5.69921875 107.03125 -6.07421875 104.90625 C-7.42585545 102.65869247 -7.42585545 102.65869247 -9.07421875 100.90625 C-9.73421875 100.90625 -10.39421875 100.90625 -11.07421875 100.90625 C-11.15671875 100.390625 -11.23921875 99.875 -11.32421875 99.34375 C-12.395621 95.86169268 -14.2094548 93.03424115 -16.07421875 89.90625 C-14.58921875 90.40125 -14.58921875 90.40125 -13.07421875 90.90625 C-10.49722167 90.96863467 -7.95065822 90.9730321 -5.37524414 90.92797852 C-4.59072876 90.91837097 -3.80621338 90.90876343 -2.9979248 90.89886475 C-0.38915372 90.86576388 2.21945491 90.82538605 4.828125 90.78515625 C6.66247405 90.76080277 8.49682997 90.73696201 10.33119202 90.71360779 C15.18835156 90.65063013 20.04540898 90.58176201 24.90246582 90.51135254 C32.56861343 90.40104598 40.2348716 90.29857299 47.90114212 90.19721603 C49.76629537 90.17254701 51.63144585 90.1476682 53.49659348 90.12257767 C68.97407622 89.91594462 84.44689285 89.83240456 99.92578125 89.90625 C99.92578125 90.89625 99.92578125 91.88625 99.92578125 92.90625 C97.28578125 92.90625 94.64578125 92.90625 91.92578125 92.90625 C88.96162306 99.8304298 86.20013329 106.72408567 83.92578125 113.90625 C83.26578125 113.57625 82.60578125 113.24625 81.92578125 112.90625 C80.42928763 112.78619547 78.92703332 112.73093549 77.42578125 112.71875 C76.2346875 112.69748047 76.2346875 112.69748047 75.01953125 112.67578125 C72.70544808 112.70958697 72.70544808 112.70958697 70.92578125 114.90625 C71.2784191 119.40942123 71.2784191 119.40942123 73.92578125 122.90625 C77.05392639 123.14985073 77.05392639 123.14985073 80.55078125 123.03125 C81.73929688 123.01320313 82.9278125 122.99515625 84.15234375 122.9765625 C85.06757813 122.95335937 85.9828125 122.93015625 86.92578125 122.90625 C86.92578125 121.771875 86.92578125 120.6375 86.92578125 119.46875 C87.5259969 114.33963445 90.38938946 111.64316201 93.91796875 108.08203125 C95.99886294 105.82705447 97.41926072 103.57063916 98.92578125 100.90625 C99.91578125 99.42125 99.91578125 99.42125 100.92578125 97.90625 C100.92578125 96.58625 100.92578125 95.26625 100.92578125 93.90625 C101.91578125 93.90625 102.90578125 93.90625 103.92578125 93.90625 C104.01601562 94.53015625 104.10625 95.1540625 104.19921875 95.796875 C104.71839451 98.00431431 104.71839451 98.00431431 106.52734375 98.953125 C113.62168338 101.41833954 118.78380755 101.39041477 125.92578125 98.90625 C128.67578125 98.59375 128.67578125 98.59375 130.92578125 98.90625 C131.91578125 100.39125 131.91578125 100.39125 132.92578125 101.90625 C135.79650485 102.65762168 135.79650485 102.65762168 138.92578125 101.90625 C141.2529735 100.08111699 142.2904086 98.48320085 143.92578125 95.90625 C144.04183202 93.60916681 144.04183202 93.60916681 142.92578125 91.90625 C142.26578125 91.57625 141.60578125 91.24625 140.92578125 90.90625 C139.80078125 88.84375 139.80078125 88.84375 138.92578125 86.90625 C136.61578125 86.90625 134.30578125 86.90625 131.92578125 86.90625 C131.59578125 88.55625 131.26578125 90.20625 130.92578125 91.90625 C130.22195313 91.88304687 129.518125 91.85984375 128.79296875 91.8359375 C120.66714596 91.68742377 112.93532965 92.57922423 104.92578125 93.90625 C104.92578125 92.91625 104.92578125 91.92625 104.92578125 90.90625 C106.10140625 90.9475 107.27703125 90.98875 108.48828125 91.03125 C112.59622999 91.03846959 115.98763853 90.10175761 119.92578125 88.90625 C121.34003614 88.73863461 122.75706021 88.59301754 124.17578125 88.46875 C127.84453085 88.32804603 127.84453085 88.32804603 129.2890625 86.37109375 C130.92578125 84.90625 130.92578125 84.90625 133.640625 84.71875 C134.70410156 84.780625 135.76757812 84.8425 136.86328125 84.90625 C144.6171543 85.07104149 152.49230719 84.65302924 158.73828125 79.65625 C160.31360935 76.00812177 159.86067814 73.71775272 158.92578125 69.90625 C158.59578125 69.24625 158.26578125 68.58625 157.92578125 67.90625 C154.95578125 67.90625 151.98578125 67.90625 148.92578125 67.90625 C149.91578125 65.92625 149.91578125 65.92625 150.92578125 63.90625 C151.09302862 60.73929044 151.09302862 60.73929044 150.92578125 57.90625 C149.14436378 57.04266377 149.14436378 57.04266377 146.92578125 56.90625 C144.53127272 58.38313989 144.53127272 58.38313989 142.92578125 60.90625 C142.7797599 64.00794801 142.7797599 64.00794801 142.92578125 66.90625 C140.16596188 67.22872977 137.40603864 67.55028454 134.64599609 67.87084961 C132.27249305 68.14658276 129.89912214 68.42345551 127.52587891 68.70141602 C122.19809306 69.32048211 116.87350021 69.9295068 111.53125 70.41015625 C104.23323301 71.07428318 97.54175848 71.90850342 90.48828125 74.03125 C78.82764589 77.24509315 65.92423525 76.78024569 53.92578125 75.90625 C53.59578125 75.57625 53.26578125 75.24625 52.92578125 74.90625 C49.20725341 74.44315344 45.4869087 74.06883476 41.7578125 73.69921875 C37.59760043 72.83833898 35.28264277 71.45199214 31.92578125 68.90625 C28.66181725 66.62023308 28.66181725 66.62023308 24.92578125 65.90625 C24.86519531 65.05160156 24.80460937 64.19695312 24.7421875 63.31640625 C24.65839844 62.21167969 24.57460937 61.10695312 24.48828125 59.96875 C24.40707031 58.86660156 24.32585937 57.76445312 24.2421875 56.62890625 C24.22160041 53.99515097 24.22160041 53.99515097 22.92578125 52.90625 C22.60654633 50.8489583 22.41416773 48.79011479 22.20703125 46.71875 C22.10580082 44.8894967 22.10580082 44.8894967 20.92578125 43.90625 C20.69291117 42.22441052 20.51313959 40.5350084 20.36328125 38.84375 C20.23759766 37.46509766 20.23759766 37.46509766 20.109375 36.05859375 C20.04878906 35.34832031 19.98820312 34.63804687 19.92578125 33.90625 C19.26578125 33.90625 18.60578125 33.90625 17.92578125 33.90625 C17.92578125 32.25625 17.92578125 30.60625 17.92578125 28.90625 C17.28640625 28.65875 16.64703125 28.41125 15.98828125 28.15625 C15.30765625 27.74375 14.62703125 27.33125 13.92578125 26.90625 C13.70921875 26.0090625 13.70921875 26.0090625 13.48828125 25.09375 C12.63742586 21.78486795 10.38234781 20.17857407 7.92578125 17.90625 C7.43078125 17.41125 7.43078125 17.41125 6.92578125 16.90625 C4.92619761 16.86544217 2.92532871 16.86370644 0.92578125 16.90625 C1.20421875 15.2975 1.20421875 15.2975 1.48828125 13.65625 C2.0781885 9.59722278 2.0781885 9.59722278 0.92578125 5.90625 C-1.89648007 2.91797331 -3.54956521 1.98909003 -7.63671875 1.34375 C-11.13558415 1.63575839 -11.13558415 1.63575839 -13.57421875 3.84375 Z " fill="#141414" transform="translate(146.07421875,155.09375)"/>
<path d="M0 0 C3 1.125 3 1.125 5 3.6875 C9.32001529 7.19751242 13.01420795 6.59726205 18.4296875 6.49609375 C22.01158558 6.23583078 22.01158558 6.23583078 25.37890625 5.11328125 C29.72194312 3.92796482 33.58676641 3.82463072 38.0625 3.875 C38.917229 3.87959229 39.77195801 3.88418457 40.65258789 3.88891602 C51.61101098 4.03859687 63.01807355 4.52413677 73.78515625 6.68359375 C80.82494371 8.0865849 88.40862453 7.17685983 95.53857422 6.76416016 C105.97627002 6.1740504 116.4101612 5.95654549 126.86279297 5.89282227 C128.52755234 5.88101202 130.19228348 5.86398605 131.85693359 5.84155273 C134.22511537 5.81141051 136.59258459 5.80161354 138.9609375 5.796875 C139.6675351 5.78456848 140.37413269 5.77226196 141.10214233 5.75958252 C146.17862453 5.78191008 149.57350682 6.81558656 154 9.125 C155.125 11.0625 155.125 11.0625 156 13.125 C157.65788785 14.46923339 159.32576317 15.80118483 161 17.125 C166.84894313 23.54457172 170.43621605 29.48716048 171.3125 38.25 C170.50377503 48.27818958 165.21584103 59.73516824 158.5 67.25 C153.59544727 70.92841455 147.51979135 70.25205331 141.61328125 70.1875 C140.79796432 70.18371338 139.9826474 70.17992676 139.1426239 70.17602539 C135.69405414 70.15997515 132.245609 70.13260761 128.79711914 70.10449219 C119.32798193 70.03416536 109.89614519 70.09692316 100.43473816 70.52130127 C85.70750233 71.18117987 71.09029734 71.04011423 56.35986328 70.51074219 C52.44729389 70.37314645 48.53447789 70.26017907 44.62109375 70.1484375 C42.09109647 70.06396567 39.56114587 69.97808136 37.03125 69.890625 C35.88217163 69.85922424 34.73309326 69.82782349 33.54919434 69.79547119 C23.3765977 69.39496198 11.83441329 68.06975681 4.34765625 60.44140625 C-1.82681152 52.93844664 -3.0637654 44.33844549 -4.4609375 34.97265625 C-4.94344294 32.42376882 -5.62919869 30.37782463 -6.625 28 C-8.28641092 23.3583262 -8.40171748 18.75701372 -8.5 13.875 C-8.5304541 13.09366699 -8.5609082 12.31233398 -8.59228516 11.50732422 C-8.59503932 7.23378247 -8.35530653 5.58571414 -5.65625 2.0859375 C-3 0.125 -3 0.125 0 0 Z M-2 3.125 C-5.34219637 6.76799404 -5.86682069 9.94781704 -6.19921875 14.7578125 C-5.95003152 18.96956534 -5.0251107 22.72175764 -3.8125 26.75 C-3.60431641 27.46124023 -3.39613281 28.17248047 -3.18164062 28.90527344 C-2.48498439 31.15772482 -2.48498439 31.15772482 -1 34.125 C1.05763303 35.20031087 1.05763303 35.20031087 3 35.125 C3 33.805 3 32.485 3 31.125 C3.99 31.125 4.98 31.125 6 31.125 C6.1546875 30.01125 6.1546875 30.01125 6.3125 28.875 C7.04253504 25.95485982 8.06789398 24.39312446 10 22.125 C9.39050431 26.2695707 7.96084772 29.4386063 6 33.125 C5.690625 33.8675 5.38125 34.61 5.0625 35.375 C3.7196378 37.58677303 2.28882417 38.01750443 0 39.125 C-1.80310102 44.53430306 0.85118344 50.03032809 3 55.125 C4.89597259 57.55165194 6.29919246 58.5397434 9 60.125 C9.66 60.125 10.32 60.125 11 60.125 C11 60.785 11 61.445 11 62.125 C21.26154022 65.59645722 30.67541799 66.20126388 41.4375 66.25 C42.77143799 66.25713013 42.77143799 66.25713013 44.13232422 66.2644043 C45.39520264 66.26114136 45.39520264 66.26114136 46.68359375 66.2578125 C47.82139282 66.25612061 47.82139282 66.25612061 48.98217773 66.25439453 C51.20626495 66.197839 51.20626495 66.197839 54 65.125 C54.20086443 61.40900809 54.1519437 60.35291555 52 57.125 C52.875 54.4375 52.875 54.4375 54 52.125 C53.01 51.135 52.02 50.145 51 49.125 C51.680625 48.568125 52.36125 48.01125 53.0625 47.4375 C55.28097119 45.29246056 55.28097119 45.29246056 55 42.5 C54.20423043 39.98006227 54.20423043 39.98006227 51.9375 38.8125 C51.298125 38.585625 50.65875 38.35875 50 38.125 C50.495 37.135 50.495 37.135 51 36.125 C52.875 36.75 52.875 36.75 55 38.125 C57.27878599 42.7910856 56.96687605 46.11482411 56 51.125 C54.96234078 57.03965756 55.10030096 61.42590287 57 67.125 C58.95486328 67.10953125 58.95486328 67.10953125 60.94921875 67.09375 C65.58771764 67.09375 70.18493274 67.33249253 74.8125 67.625 C81.91885989 68.03528471 89.0067453 68.23457722 96.125 68.25 C97.43174683 68.25676758 97.43174683 68.25676758 98.76489258 68.26367188 C102.69673607 68.64435259 102.69673607 68.64435259 106 67.125 C108.67250538 67.10412105 111.32900188 67.1313335 114 67.1875 C120.31908812 67.26676106 125.88847363 66.90289858 132 65.125 C132.94125778 61.46455306 133.65698407 57.89817527 134 54.125 C133.34 53.135 132.68 52.145 132 51.125 C133.98 48.155 133.98 48.155 136 45.125 C134.02 43.145 134.02 43.145 132 41.125 C133.32 41.455 134.64 41.785 136 42.125 C136.625 44.5 136.625 44.5 137 47.125 C136.01 48.115 136.01 48.115 135 49.125 C135.165 50.218125 135.33 51.31125 135.5 52.4375 C136.03296631 56.36812655 135.48213276 57.6049347 134 61.125 C134.27701774 62.80194665 134.60458862 64.47196076 135 66.125 C146.213767 67.99624647 146.213767 67.99624647 156.609375 64.953125 C163.05860623 58.23794609 167.90754151 47.33286442 169 38.125 C167.48779932 29.66347263 161.28652745 21.7130244 155 16.125 C154.01 15.63 154.01 15.63 153 15.125 C152.61781233 16.78114657 152.28604898 18.44957024 152 20.125 C152.33 20.455 152.66 20.785 153 21.125 C153.2165625 22.73375 153.2165625 22.73375 153.4375 24.375 C153.82799456 28.02222987 153.82799456 28.02222987 155.125 30.8125 C156.11341176 33.42473109 155.95398577 34.54923842 155 37.125 C152.525 37.62 152.525 37.62 150 38.125 C151 36.125 151 36.125 154 34.125 C153.505 33.238125 153.01 32.35125 152.5 31.4375 C151.05621326 28.24913762 150.69840078 26.54312454 151 23.125 C149.68 22.795 148.36 22.465 147 22.125 C148.98 17.67 148.98 17.67 151 13.125 C145.21350937 9.83307915 141.17561486 8.54587548 134.5625 8.734375 C133.79695801 8.74003479 133.03141602 8.74569458 132.24267578 8.75152588 C129.82777979 8.77369165 127.41443777 8.82384461 125 8.875 C123.35028204 8.89509085 121.70054052 8.91333706 120.05078125 8.9296875 C116.03326695 8.97349057 112.01689574 9.04237398 108 9.125 C108 9.785 108 10.445 108 11.125 C108.99 11.8984375 108.99 11.8984375 110 12.6875 C112.61592046 15.87565306 112.36839565 17.90694411 112.23828125 21.90625 C112 24.125 112 24.125 111.41796875 26.25390625 C110.7829888 28.25792357 110.7829888 28.25792357 112 30.5625 C113.20265703 33.64430863 113.24108827 35.06364894 112 38.125 C109.4375 39.4375 109.4375 39.4375 107 40.125 C108.65 38.145 110.3 36.165 112 34.125 C111.484375 33.238125 110.96875 32.35125 110.4375 31.4375 C108.8982735 27.89058677 108.80781918 26.70154245 110 23.125 C110.33 22.465 110.66 21.805 111 21.125 C110.01 21.125 109.02 21.125 108 21.125 C108.33 20.526875 108.66 19.92875 109 19.3125 C110.20787988 17.07113529 110.20787988 17.07113529 110 14.125 C107.17159994 11.10586005 105.50626342 10.18930472 101.37109375 9.6640625 C100.07300781 9.69242188 98.77492188 9.72078125 97.4375 9.75 C96.13683594 9.76289063 94.83617187 9.77578125 93.49609375 9.7890625 C90.3697929 10.08946683 88.60753355 10.46626365 86 12.125 C86.99 13.61 86.99 13.61 88 15.125 C87.67873872 17.75934254 87.18644952 19.75210097 86 22.125 C85.98012522 23.72917883 86.0072121 25.33415101 86.0625 26.9375 C86.10140325 30.78336422 85.97921869 33.7163456 84 37.125 C83.01 37.62 83.01 37.62 82 38.125 C82.350625 37.01125 82.70125 35.8975 83.0625 34.75 C84.37239331 31.32235524 84.37239331 31.32235524 83 29.125 C83.27942455 27.44845271 83.60828247 25.77891846 84 24.125 C83.01 24.125 82.02 24.125 81 24.125 C82.11179163 20.78962511 83.47411298 19.48792656 86 17.125 C85.06231164 14.06991079 85.06231164 14.06991079 83 11.125 C80.19158076 10.27670567 78.0869318 9.88391153 75.21875 9.6640625 C74.45002563 9.58376801 73.68130127 9.50347351 72.88928223 9.42074585 C70.42796038 9.17084665 67.96495857 8.9606349 65.5 8.75 C63.87214879 8.58708532 62.24453837 8.42174521 60.6171875 8.25390625 C52.40218153 7.43603507 44.26393848 6.85612325 36 7.125 C36.495 8.115 36.495 8.115 37 9.125 C37.31337847 14.66135301 36.4386757 18.2476486 34 23.125 C34.185625 23.74375 34.37125 24.3625 34.5625 25 C35 27.125 35 27.125 34.0625 28.875 C32.44610496 32.2979542 32.87464081 35.36422443 33 39.125 C32.01 39.455 31.02 39.785 30 40.125 C29.67 39.795 29.34 39.465 29 39.125 C29.7734375 38.63 29.7734375 38.63 30.5625 38.125 C32.33834722 35.65425604 32.02853971 34.98054407 31.5625 32.0625 C31.2840625 30.1134375 31.2840625 30.1134375 31 28.125 C31.66 27.465 32.32 26.805 33 26.125 C32.6730244 23.50919521 32.17960932 21.48421863 31 19.125 C31.99 19.125 32.98 19.125 34 19.125 C35.4783226 16.16835481 35.06032783 13.38270263 35 10.125 C34.34 10.125 33.68 10.125 33 10.125 C33 9.465 33 8.805 33 8.125 C32.195625 8.23328125 32.195625 8.23328125 31.375 8.34375 C25.8169062 9.00194532 20.27974669 9.28786142 14.6875 9.375 C13.6655957 9.4069043 13.6655957 9.4069043 12.62304688 9.43945312 C8.2150567 9.46979327 5.48757498 8.84391092 2 6.125 C1.34 5.135 0.68 4.145 0 3.125 C-0.66 3.125 -1.32 3.125 -2 3.125 Z " fill="#0F0F0F" transform="translate(433,214.875)"/>
<path d="M0 0 C0.96938507 -0.00673233 1.93877014 -0.01346466 2.93753052 -0.020401 C4.25598465 -0.02178322 4.25598465 -0.02178322 5.60107422 -0.02319336 C6.72580643 -0.02687172 6.72580643 -0.02687172 7.8732605 -0.03062439 C10.00872836 0.09353072 11.89217584 0.50432335 13.9453125 1.08984375 C13.9453125 2.07984375 13.9453125 3.06984375 13.9453125 4.08984375 C11.3053125 4.41984375 8.6653125 4.74984375 5.9453125 5.08984375 C3.3053125 11.68984375 0.6653125 18.28984375 -2.0546875 25.08984375 C-5.6846875 25.08984375 -9.3146875 25.08984375 -13.0546875 25.08984375 C-14.30506803 28.7874107 -14.30506803 28.7874107 -13.53125 31.29296875 C-12.10676778 33.41276091 -12.10676778 33.41276091 -9.015625 33.69921875 C-7.83226562 33.745625 -6.64890625 33.79203125 -5.4296875 33.83984375 C-3.64691406 33.92492187 -3.64691406 33.92492187 -1.828125 34.01171875 C-0.91289062 34.0375 0.00234375 34.06328125 0.9453125 34.08984375 C0.7803125 32.95546875 0.6153125 31.82109375 0.4453125 30.65234375 C0.40738101 26.37367221 1.9081838 24.50724084 4.7578125 21.40234375 C5.46550781 20.69722656 6.17320312 19.99210937 6.90234375 19.265625 C9.00517976 17.02608454 10.38164765 14.71984738 11.9453125 12.08984375 C12.6053125 11.75984375 13.2653125 11.42984375 13.9453125 11.08984375 C13.32695717 15.10915338 11.24665112 17.80221715 8.9453125 21.08984375 C7.8934375 22.76046875 7.8934375 22.76046875 6.8203125 24.46484375 C6.2015625 25.33109375 5.5828125 26.19734375 4.9453125 27.08984375 C4.2853125 27.08984375 3.6253125 27.08984375 2.9453125 27.08984375 C2.9453125 30.38984375 2.9453125 33.68984375 2.9453125 37.08984375 C0.52796708 37.17102326 -1.88663699 37.23041301 -4.3046875 37.27734375 C-4.98660156 37.30248047 -5.66851562 37.32761719 -6.37109375 37.35351562 C-9.43480679 37.39813281 -11.7189409 37.25341261 -14.4921875 35.90234375 C-16.528578 33.54013077 -16.64426918 31.99039641 -16.8046875 28.90234375 C-16.86140625 28.00128906 -16.918125 27.10023438 -16.9765625 26.171875 C-17.00234375 25.48480469 -17.028125 24.79773438 -17.0546875 24.08984375 C-12.14544453 20.16244937 -9.31548198 19.65806482 -3.0546875 20.08984375 C-2.8690625 19.22552734 -2.8690625 19.22552734 -2.6796875 18.34375 C-2.03983947 16.03629805 -1.16440841 14.14478917 -0.0546875 12.02734375 C1.16504725 9.69101359 2.10633073 7.60678905 2.9453125 5.08984375 C-29.3946875 5.08984375 -61.7346875 5.08984375 -95.0546875 5.08984375 C-95.3846875 4.42984375 -95.7146875 3.76984375 -96.0546875 3.08984375 C-95.11496094 2.99896484 -95.11496094 2.99896484 -94.15625 2.90625 C-92.93035156 2.78056641 -92.93035156 2.78056641 -91.6796875 2.65234375 C-90.86757812 2.57113281 -90.05546875 2.48992187 -89.21875 2.40625 C-87.01195945 2.19894261 -87.01195945 2.19894261 -85.0546875 1.08984375 C-82.93576983 0.96900813 -80.81309555 0.91237151 -78.69091797 0.88452148 C-78.03667343 0.87462189 -77.38242889 0.86472229 -76.70835876 0.85452271 C-74.52956803 0.82278417 -72.35075706 0.79804668 -70.171875 0.7734375 C-68.64038591 0.75282365 -67.10890194 0.73182617 -65.5774231 0.71046448 C-62.34754431 0.66640506 -59.11764652 0.62553789 -55.88769531 0.5871582 C-51.82224528 0.53881587 -47.75689272 0.48506385 -43.69153976 0.42920494 C-29.12845474 0.22956444 -14.56443991 0.05315489 0 0 Z " fill="#212121" transform="translate(232.0546875,243.91015625)"/>
<path d="M0 0 C0.33 0 0.66 0 1 0 C0.835 1.258125 0.67 2.51625 0.5 3.8125 C0.3129249 5.87324912 0.15026239 7.93624002 0 10 C-0.05285156 10.69722168 -0.10570312 11.39444336 -0.16015625 12.11279297 C-1.02305539 25.08117141 0.14847585 34.82334591 8.77734375 45.12109375 C15.18019868 51.17549399 23.05162688 51.33520741 31.4375 51.625 C32.82098633 51.68300781 32.82098633 51.68300781 34.23242188 51.7421875 C36.48809143 51.83568676 38.74376916 51.9214391 41 52 C41.33 52.66 41.66 53.32 42 54 C37.65961508 54.59758371 33.3180387 55.18527477 28.97509766 55.76391602 C27.49849553 55.96206001 26.02225016 56.16288207 24.54638672 56.36645508 C22.42243613 56.65894524 20.29738024 56.94171579 18.171875 57.22265625 C16.8940918 57.39547119 15.61630859 57.56828613 14.29980469 57.74633789 C8.79099207 58.16981054 4.94886417 56.18892069 0 54 C0.33 53.01 0.66 52.02 1 51 C1.680625 51.144375 2.36125 51.28875 3.0625 51.4375 C6.36273082 52.06945909 9.67144426 52.54313941 13 53 C12.34773438 52.56171875 11.69546875 52.1234375 11.0234375 51.671875 C4.20174942 46.72162348 -1.30910915 41.5301093 -3 33 C-3.98705933 22.58811607 -4.66260557 10.94730377 -1 1 C-0.67 0.67 -0.34 0.34 0 0 Z " fill="#0D0D0D" transform="translate(62,193)"/>
<path d="M0 0 C0.66 0.33 1.32 0.66 2 1 C2 1.66 2 2.32 2 3 C0.77023438 3.05607422 0.77023438 3.05607422 -0.484375 3.11328125 C-1.56203125 3.17902344 -2.6396875 3.24476563 -3.75 3.3125 C-4.81734375 3.37050781 -5.8846875 3.42851562 -6.984375 3.48828125 C-10.1821068 4.03090154 -11.62598691 4.85071145 -14 7 C-13.59573665 12.86181863 -12.7971314 16.2823519 -9 21 C-5.81175432 22.59412284 -2.37103338 22.10174735 1.125 22.0625 C2.25615234 22.05573242 2.25615234 22.05573242 3.41015625 22.04882812 C5.27347127 22.03703499 7.13674555 22.01909942 9 22 C9 22.99 9 23.98 9 25 C-6.45019093 26.77859341 -6.45019093 26.77859341 -12 23 C-16.26273843 18.25616511 -18.63634245 13.57195665 -18.52734375 7.0078125 C-17.83095454 4.35637506 -16.85143903 3.56791481 -14.625 2 C-9.87586348 -0.52721908 -5.26910412 -0.68557117 0 0 Z " fill="#181818" transform="translate(98,193)"/>
<path d="M0 0 C-0.33 0.66 -0.66 1.32 -1 2 C-2.32 2 -3.64 2 -5 2 C-5 2.66 -5 3.32 -5 4 C-4.360625 4.2475 -3.72125 4.495 -3.0625 4.75 C-1 6 -1 6 -0.25 7.6875 C0.16708565 11.54554222 0.47927342 15.37047037 -0.625 19.125 C-1.21518521 21.13431286 -1.21518521 21.13431286 0.0625 23.375 C1 26 1 26 0.4375 29.1875 C-1 32 -1 32 -3.625 33.375 C-4.40875 33.58125 -5.1925 33.7875 -6 34 C-6 31 -6 31 -4 28.8125 C-3.01 27.9153125 -3.01 27.9153125 -2 27 C-2.515625 26.113125 -3.03125 25.22625 -3.5625 24.3125 C-5.08979002 20.79309257 -5.21675714 19.548875 -4 16 C-3.67 15.67 -3.34 15.34 -3 15 C-3.66 14.67 -4.32 14.34 -5 14 C-4.42415568 11.61435923 -3.77772405 9.33317216 -3 7 C-8.60944292 3.85871197 -14.68146331 2.77369837 -21 2 C-20.67 1.34 -20.34 0.68 -20 0 C-17.22949974 -0.1946838 -14.45886998 -0.38102792 -11.6875 -0.5625 C-10.90181641 -0.61857422 -10.11613281 -0.67464844 -9.30664062 -0.73242188 C-8.1706543 -0.80493164 -8.1706543 -0.80493164 -7.01171875 -0.87890625 C-6.31522217 -0.9260376 -5.61872559 -0.97316895 -4.90112305 -1.02172852 C-3 -1 -3 -1 0 0 Z " fill="#030303" transform="translate(546,222)"/>
<path d="M0 0 C0.99 0 1.98 0 3 0 C3.185625 0.61875 3.37125 1.2375 3.5625 1.875 C5.77267991 5.14222247 8.2176961 5.25594022 12 6 C16.91940197 6.34522119 20.38551901 5.60503687 25 4 C27.75 3.6875 27.75 3.6875 30 4 C30.99 5.485 30.99 5.485 32 7 C35.97475764 7.61829563 37.5419102 7.31867116 40.875 5 C41.926875 4.01 41.926875 4.01 43 3 C43.495 4.485 43.495 4.485 44 6 C41.18565365 9.4113289 39.83940026 10.88422065 35.375 11.5 C32 11 32 11 30.5 9.4375 C30.005 8.963125 29.51 8.48875 29 8 C25.49653238 8.26949751 22.22956625 8.94598441 18.8125 9.75 C13.22573795 10.11634505 8.33987627 8.52137519 3 7 C1.66810333 6.66097176 0.33537002 6.32507814 -1 6 C-0.67 4.02 -0.34 2.04 0 0 Z " fill="#151515" transform="translate(247,249)"/>
<path d="M0 0 C0.33 0.99 0.66 1.98 1 3 C-0.3567482 5.3632729 -1.72775351 7.48791953 -3.3125 9.6875 C-3.72951172 10.29400391 -4.14652344 10.90050781 -4.57617188 11.52539062 C-5.65862011 13.06015375 -6.82397149 14.53570872 -8 16 C-8.66 16 -9.32 16 -10 16 C-10 19.3 -10 22.6 -10 26 C-12.41734542 26.08117951 -14.83194949 26.14056926 -17.25 26.1875 C-17.93191406 26.21263672 -18.61382812 26.23777344 -19.31640625 26.26367188 C-22.38011929 26.30828906 -24.6642534 26.16356886 -27.4375 24.8125 C-29.4738905 22.45028702 -29.58958168 20.90055266 -29.75 17.8125 C-29.80671875 16.91144531 -29.8634375 16.01039063 -29.921875 15.08203125 C-29.94765625 14.39496094 -29.9734375 13.70789063 -30 13 C-28.68 12.34 -27.36 11.68 -26 11 C-26.20625 12.0725 -26.4125 13.145 -26.625 14.25 C-27.13086111 18.56223487 -27.13086111 18.56223487 -25 22 C-21.89069059 22.70672206 -21.89069059 22.70672206 -18.375 22.75 C-16.59222656 22.83507812 -16.59222656 22.83507812 -14.7734375 22.921875 C-13.40058594 22.96054687 -13.40058594 22.96054687 -12 23 C-12.165 21.865625 -12.33 20.73125 -12.5 19.5625 C-12.53793149 15.28382846 -11.0371287 13.41739709 -8.1875 10.3125 C-7.47980469 9.60738281 -6.77210938 8.90226562 -6.04296875 8.17578125 C-3.93710735 5.93301873 -2.51322848 3.66746282 -1 1 C-0.67 0.67 -0.34 0.34 0 0 Z " fill="#0F0F0F" transform="translate(245,255)"/>
<path d="M0 0 C0 2.31 0 4.62 0 7 C-10.96823696 9.0361826 -21.91627746 10.73201021 -33 12 C-33 11.34 -33 10.68 -33 10 C-36.96 10 -40.92 10 -45 10 C-45 9.67 -45 9.34 -45 9 C-44.23300781 8.96261719 -43.46601563 8.92523438 -42.67578125 8.88671875 C-34.12419176 8.38017861 -25.74865123 7.32966584 -17.28637695 6.01635742 C-12.80875508 5.33535509 -8.54663949 4.82800541 -4 5 C-3.814375 4.0409375 -3.814375 4.0409375 -3.625 3.0625 C-3.41875 2.381875 -3.2125 1.70125 -3 1 C-1 0 -1 0 0 0 Z " fill="#161616" transform="translate(289,215)"/>
<path d="M0 0 C0.99 0.33 1.98 0.66 3 1 C2.3897536 5.14967549 0.99267393 8.32121736 -1 12 C-1.7115625 13.3921875 -1.7115625 13.3921875 -2.4375 14.8125 C-4 17 -4 17 -6.1875 17.8125 C-6.785625 17.874375 -7.38375 17.93625 -8 18 C-7.67 20.31 -7.34 22.62 -7 25 C-8.32 24.34 -9.64 23.68 -11 23 C-11 19.7 -11 16.4 -11 13 C-8.03 13.495 -8.03 13.495 -5 14 C-5 12.68 -5 11.36 -5 10 C-4.01 10 -3.02 10 -2 10 C-2.226875 9.443125 -2.45375 8.88625 -2.6875 8.3125 C-3.12446199 5.07898125 -1.78001197 3.63441772 0 1 C0 0.67 0 0.34 0 0 Z " fill="#020202" transform="translate(441,236)"/>
<path d="M0 0 C0.66 0.33 1.32 0.66 2 1 C0.125 5.75 0.125 5.75 -1 8 C-0.7215625 8.928125 -0.7215625 8.928125 -0.4375 9.875 C0 12 0 12 -0.9375 13.75 C-2.55389504 17.1729542 -2.12535919 20.23922443 -2 24 C-3.98 24.99 -3.98 24.99 -6 26 C-6.66 25.34 -7.32 24.68 -8 24 C-7.484375 23.67 -6.96875 23.34 -6.4375 23 C-4.66165278 20.52925604 -4.97146029 19.85554407 -5.4375 16.9375 C-5.623125 15.638125 -5.80875 14.33875 -6 13 C-5.34 12.34 -4.68 11.68 -4 11 C-4.32326553 7.40320934 -4.32326553 7.40320934 -5 4 C-4.01 4 -3.02 4 -2 4 C-1.34 2.68 -0.68 1.36 0 0 Z " fill="#000000" transform="translate(469,230)"/>
<path d="M0 0 C0.33 0 0.66 0 1 0 C1.33 4.95 1.66 9.9 2 15 C2.66 15 3.32 15 4 15 C5.32 19.95 6.64 24.9 8 30 C7.34 30 6.68 30 6 30 C5.505 32.475 5.505 32.475 5 35 C4.67 35 4.34 35 4 35 C3.896875 33.865625 3.79375 32.73125 3.6875 31.5625 C3.32311188 28.47055962 2.63850392 25.98588199 1.4375 23.125 C-1.21119158 15.86038475 -0.22162454 7.60910911 0 0 Z " fill="#1C1C1C" transform="translate(425,220)"/>
<path d="M0 0 C0.66 0.33 1.32 0.66 2 1 C0.91430728 4.03993963 0.08521464 4.94964589 -2.75 6.625 C-6.78581546 9.05240979 -8.47050122 12.88315934 -10.60546875 16.953125 C-11.06566406 17.62859375 -11.52585937 18.3040625 -12 19 C-12.99 19 -13.98 19 -15 19 C-12.8792785 11.24126282 -10.40434439 5.89722402 -3.3125 1.5625 C-2.219375 1.046875 -1.12625 0.53125 0 0 Z " fill="#1C1C1C" transform="translate(76,175)"/>
<path d="M0 0 C0.99 0.33 1.98 0.66 3 1 C1.35 4.96 -0.3 8.92 -2 13 C-5.96 13 -9.92 13 -14 13 C-13.67 11.68 -13.34 10.36 -13 9 C-9.78548731 7.39274365 -6.56387464 7.94251815 -3 8 C-2.87625 7.4225 -2.7525 6.845 -2.625 6.25 C-1.99351176 3.97664233 -1.11141809 2.0746471 0 0 Z " fill="#272727" transform="translate(232,256)"/>
<path d="M0 0 C0.99 0 1.98 0 3 0 C3.18304688 0.62390625 3.36609375 1.2478125 3.5546875 1.890625 C4.91662203 4.34008964 4.91662203 4.34008964 8.2578125 5.046875 C9.53398437 5.27890625 10.81015625 5.5109375 12.125 5.75 C13.40632813 5.99234375 14.68765625 6.2346875 16.0078125 6.484375 C16.99523437 6.65453125 17.98265625 6.8246875 19 7 C19 7.99 19 8.98 19 10 C12.44638413 9.47148259 6.11647732 8.53639635 0 6 C-1.24546405 3.50907189 -0.7767578 2.58919267 0 0 Z " fill="#070707" transform="translate(247,249)"/>
<path d="M0 0 C-0.33 0.99 -0.66 1.98 -1 3 C-9.17413104 4.18896451 -16.84317822 4.3883952 -25 3 C-25 2.67 -25 2.34 -25 2 C-8.29157175 -0.29612756 -8.29157175 -0.29612756 0 0 Z " fill="#1E1E1E" transform="translate(99,255)"/>
<path d="M0 0 C12.87 0.495 12.87 0.495 26 1 C26 1.66 26 2.32 26 3 C17.75 3 9.5 3 1 3 C0.67 2.01 0.34 1.02 0 0 Z " fill="#010101" transform="translate(86,228)"/>
<path d="M0 0 C0.309375 0.639375 0.61875 1.27875 0.9375 1.9375 C1.8345163 3.93610821 1.8345163 3.93610821 3 5 C4.46282033 4.90966647 5.92182192 4.75296509 7.375 4.5625 C9.9721428 4.22833993 12.37411693 4 15 4 C14.1875 5.9375 14.1875 5.9375 13 8 C8.65693925 9.44768692 4.75868747 9.85679646 0.5625 7.8125 C-1 6 -1 6 -1.3125 3.375 C-1 1 -1 1 0 0 Z " fill="#0D0D0D" transform="translate(137,277)"/>
<path d="M0 0 C3.3 0 6.6 0 10 0 C10 0.33 10 0.66 10 1 C16.6 1.33 23.2 1.66 30 2 C30 2.33 30 2.66 30 3 C19.77 3 9.54 3 -1 3 C-0.67 2.01 -0.34 1.02 0 0 Z " fill="#1F1F1F" transform="translate(546,221)"/>
<path d="M0 0 C0.33 0.99 0.66 1.98 1 3 C-0.3333826 5.36881909 -1.68068973 7.48617267 -3.25 9.6875 C-3.65863281 10.29400391 -4.06726563 10.90050781 -4.48828125 11.52539062 C-5.703125 13.26171875 -5.703125 13.26171875 -8 16 C-8.99 16 -9.98 16 -11 16 C-9.34540386 12.08913641 -6.70698566 9.23517798 -4 6 C-2.9731657 4.3497306 -1.96432076 2.68756133 -1 1 C-0.67 0.67 -0.34 0.34 0 0 Z " fill="#202020" transform="translate(245,255)"/>
<path d="M0 0 C0.66 0.33 1.32 0.66 2 1 C1.67 1.99 1.34 2.98 1 4 C0.34 4 -0.32 4 -1 4 C-1.33 6.64 -1.66 9.28 -2 12 C-2.99 12 -3.98 12 -5 12 C-5.3125 8.8125 -5.3125 8.8125 -5 5 C-2.5 2.0625 -2.5 2.0625 0 0 Z " fill="#252525" transform="translate(61,244)"/>
<path d="M0 0 C1.62490954 -0.02698189 3.24994633 -0.04638757 4.875 -0.0625 C5.77992187 -0.07410156 6.68484375 -0.08570313 7.6171875 -0.09765625 C10 0 10 0 12 1 C12 1.66 12 2.32 12 3 C5.565 3.495 5.565 3.495 -1 4 C-0.67 2.68 -0.34 1.36 0 0 Z " fill="#383838" transform="translate(88,193)"/>
<path d="M0 0 C0.33 0 0.66 0 1 0 C1 2.97 1 5.94 1 9 C-3.95 10.485 -3.95 10.485 -9 12 C-8.67 10.68 -8.34 9.36 -8 8 C-5.69 7.34 -3.38 6.68 -1 6 C-0.67 4.02 -0.34 2.04 0 0 Z " fill="#070707" transform="translate(86,166)"/>
<path d="M0 0 C0.66 0.66 1.32 1.32 2 2 C1.69903201 6.13830989 1.32101984 8.51847024 -1 12 C-1.66 12 -2.32 12 -3 12 C-2.835 10.906875 -2.67 9.81375 -2.5 8.6875 C-1.93281816 5.12474127 -1.93281816 5.12474127 -2 2 C-1.34 1.34 -0.68 0.68 0 0 Z " fill="#000000" transform="translate(518,241)"/>
<path d="M0 0 C0 2.31 0 4.62 0 7 C-1.32 7.33 -2.64 7.66 -4 8 C-4 7.34 -4 6.68 -4 6 C-5.98 6 -7.96 6 -10 6 C-10 5.67 -10 5.34 -10 5 C-8.02 5 -6.04 5 -4 5 C-3.814375 4.0409375 -3.814375 4.0409375 -3.625 3.0625 C-3.41875 2.381875 -3.2125 1.70125 -3 1 C-1 0 -1 0 0 0 Z " fill="#2E2E2E" transform="translate(289,215)"/>
<path d="M0 0 C-0.33 0.99 -0.66 1.98 -1 3 C-2.98 3.33 -4.96 3.66 -7 4 C-7 3.34 -7 2.68 -7 2 C-10.96 2 -14.92 2 -19 2 C-19 1.67 -19 1.34 -19 1 C-16.77100213 0.83109082 -14.54179338 0.66496313 -12.3125 0.5 C-10.45044922 0.36078125 -10.45044922 0.36078125 -8.55078125 0.21875 C-5.68500671 0.04220063 -2.86900043 -0.04388528 0 0 Z " fill="#363636" transform="translate(263,223)"/>
<path d="M0 0 C2.4375 0.8125 2.4375 0.8125 5 2 C5.33 2.99 5.66 3.98 6 5 C3 5 3 5 0.8125 3 C0.214375 2.34 -0.38375 1.68 -1 1 C-0.67 0.67 -0.34 0.34 0 0 Z " fill="#000000" transform="translate(565,255)"/>
<path d="M0 0 C0.99 0.33 1.98 0.66 3 1 C2.52433594 1.82757813 2.52433594 1.82757813 2.0390625 2.671875 C0.87290025 5.28477989 0.59954289 7.40579002 0.375 10.25 C0.30023438 11.14203125 0.22546875 12.0340625 0.1484375 12.953125 C0.09945312 13.62859375 0.05046875 14.3040625 0 15 C-0.33 15 -0.66 15 -1 15 C-1.22304441 13.25181409 -1.4278645 11.50129677 -1.625 9.75 C-1.74101563 8.77546875 -1.85703125 7.8009375 -1.9765625 6.796875 C-2.00112537 3.86570607 -1.5312717 2.45471036 0 0 Z " fill="#212121" transform="translate(88,160)"/>
<path d="M0 0 C5.75 -0.125 5.75 -0.125 8 1 C8 1.66 8 2.32 8 3 C5.03 2.67 2.06 2.34 -1 2 C-0.67 1.34 -0.34 0.68 0 0 Z " fill="#111111" transform="translate(92,193)"/>
</svg>
