<?xml version="1.0" encoding="UTF-8"?>
<svg version="1.1" xmlns="http://www.w3.org/2000/svg" width="800" height="300">
<path d="M0 0 C264 0 528 0 800 0 C800 99 800 198 800 300 C536 300 272 300 0 300 C0 201 0 102 0 0 Z " fill="#FEFEFE" transform="translate(0,0)"/>
<path d="M0 0 C3.18707269 1.22483578 3.80293364 2.10912321 6 5 C6.476819 8.39474394 6.3567213 11.59793576 6 15 C6.61101562 15.12246094 7.22203125 15.24492187 7.8515625 15.37109375 C13.44568556 17.00864614 18.04527927 24.1319765 21 29 C24.0531202 35.90099592 25.29732034 42.97441523 26.625 50.375 C27.05213461 52.71661295 27.48169568 55.05778501 27.9140625 57.3984375 C28.0992041 58.42630371 28.2843457 59.45416992 28.47509766 60.51318359 C28.88752643 62.9857629 28.88752643 62.9857629 30 65 C32.01669827 66.13350534 32.01669827 66.13350534 34 67 C34 67.66 34 68.32 34 69 C34.50273437 69.12246094 35.00546875 69.24492187 35.5234375 69.37109375 C37.49566032 69.87192636 39.45711155 70.41512675 41.4140625 70.97265625 C50.85375404 73.49188678 59.85093282 74.3798284 69.625 74.375 C71.27749756 74.37705444 71.27749756 74.37705444 72.96337891 74.37915039 C82.5775433 74.63603663 82.5775433 74.63603663 91 71 C92.38473825 70.80803005 93.77790888 70.67619424 95.171875 70.5703125 C96.05415771 70.4986084 96.93644043 70.4269043 97.84545898 70.35302734 C98.80395752 70.27777832 99.76245605 70.2025293 100.75 70.125 C109.56930971 69.38963448 118.29069285 68.34548762 127.03222656 66.96533203 C131.75658431 66.23785958 136.21913829 65.85844016 141 66 C141.0825 65.0925 141.165 64.185 141.25 63.25 C142.12131932 59.47428296 142.81249593 58.18092383 146 56 C149.625 55.5625 149.625 55.5625 153 56 C155.4294516 59.6441774 155.16179575 61.71241272 155 66 C156.11375 66.0928125 156.11375 66.0928125 157.25 66.1875 C160.97501049 67.28807128 162.0467078 68.67216884 164 72 C164.64098532 75.46132073 164.6349196 77.7034835 163.0703125 80.8984375 C158.80810825 86.87561151 152.93403087 87.82188796 146 89 C146.33 89.99 146.66 90.98 147 92 C147.37066773 97.00401435 147.09881835 99.98301324 144 104 C140.51131349 106.32579101 139.10281481 106.41865457 135 106 C134.360625 105.484375 133.72125 104.96875 133.0625 104.4375 C130.96359936 102.65189178 130.96359936 102.65189178 127.6875 103.25 C125.38898213 103.71749516 123.09572589 104.21277038 120.8125 104.75 C114.28238176 105.17820447 107.46630271 103.64420181 102 100 C101.731875 100.721875 101.46375 101.44375 101.1875 102.1875 C98.9393414 107.51208616 95.86015687 111.74392961 92 116 C91.34 116 90.68 116 90 116 C90 119.63 90 123.26 90 127 C87.5821288 127.10826289 85.16912444 127.18739789 82.75 127.25 C82.06808594 127.28351563 81.38617188 127.31703125 80.68359375 127.3515625 C77.27222109 127.41780275 75.36828881 127.26849442 72.578125 125.234375 C70.03788668 121.63779996 70 119.41294208 70 115 C71.3125 112.625 71.3125 112.625 74 111 C75.64262333 110.76770983 77.28910448 110.56198218 78.9375 110.375 C82.3251178 109.83537947 83.5816623 109.53380648 85.7265625 106.796875 C87.6725719 102.9048562 88.94350821 99.22596715 90 95 C57.33 95 24.66 95 -9 95 C-3.42410722 104.81390544 -3.42410722 104.81390544 5.5625 109.0625 C6.32691406 109.17722656 7.09132813 109.29195313 7.87890625 109.41015625 C10.45741053 110.12719888 11.44694566 110.82377652 13 113 C13.76129634 117.40357688 13.46435076 121.66499157 12 125.875 C8.33947519 129.76430762 4.0768999 131.71493531 -1.1875 132.4375 C-4.55485577 131.9136891 -6.43259397 131.26535826 -9 129 C-9.608676 125.42402849 -9.44405832 123.70309234 -7.5 120.625 C-7.005 120.08875 -6.51 119.5525 -6 119 C-7.36125 118.13375 -7.36125 118.13375 -8.75 117.25 C-12 115 -12 115 -13.8125 113.0625 C-16.55378882 110.47785625 -19.54270679 108.96201421 -22.87890625 107.24609375 C-25 106 -25 106 -26.33984375 104.34765625 C-29.78511709 101.55090495 -34.75312005 102.97454591 -38.90234375 103.40234375 C-40.24797977 103.57626949 -41.59304143 103.75469512 -42.9375 103.9375 C-44.27994792 104.11328125 -45.62239583 104.2890625 -46.96484375 104.46484375 C-48.99659087 104.73267168 -51.02750546 105.00384215 -53.05712891 105.28735352 C-57.23542712 105.85075889 -61.286003 106.11038633 -65.5 106.0625 C-67.06234375 106.04896484 -67.06234375 106.04896484 -68.65625 106.03515625 C-69.4296875 106.02355469 -70.203125 106.01195312 -71 106 C-70.95166016 107.18142578 -70.95166016 107.18142578 -70.90234375 108.38671875 C-71 111 -71 111 -72.5625 112.8125 C-76.00570514 114.48995891 -78.20740642 114.52311636 -82 114 C-84.97046873 112.20976215 -87.42502414 110.14995172 -89 107 C-89.04003069 101.57984419 -88.83046319 96.59941058 -86.3125 91.75 C-84 90 -84 90 -80.9375 89.5625 C-78 90 -78 90 -75 92 C-71.87478167 92.16699232 -71.87478167 92.16699232 -69 92 C-69.72445312 91.58492188 -70.44890625 91.16984375 -71.1953125 90.7421875 C-78.70006872 85.9591562 -83.24901998 80.97977733 -85.57519531 72.234375 C-88.11582969 58.87122224 -87.43378169 42.69781812 -80.125 31 C-75.31597162 24.45830698 -68.88471281 20.2211782 -61 18.25 C-60.34 18.1675 -59.68 18.085 -59 18 C-59.0825 17.01 -59.165 16.02 -59.25 15 C-59.27825307 10.38533109 -57.35366383 6.87551072 -55 3 C-54 2 -54 2 -51.25 1.625 C-48 2 -48 2 -45.1875 4.0625 C-42.6474352 7.47344416 -42.24692316 9.80230628 -42 14 C-41.17757812 13.51144531 -40.35515625 13.02289063 -39.5078125 12.51953125 C-35.50486673 10.78551577 -32.15002124 10.58835758 -27.875 10.6875 C-27.17246094 10.68427734 -26.46992187 10.68105469 -25.74609375 10.67773438 C-22.01728278 10.71650273 -19.16465713 10.942153 -16 13 C-16.0825 11.7625 -16.165 10.525 -16.25 9.25 C-16.26153532 5.99127351 -16.19423516 5.25250571 -14.125 2.5625 C-9.65566982 -0.72377219 -5.41005412 -0.69486934 0 0 Z " fill="#FAFAFA" transform="translate(138,154)"/>
<path d="M0 0 C3 1.125 3 1.125 5 3.6875 C9.32001529 7.19751242 13.01420795 6.59726205 18.4296875 6.49609375 C22.01158558 6.23583078 22.01158558 6.23583078 25.37890625 5.11328125 C29.72194312 3.92796482 33.58676641 3.82463072 38.0625 3.875 C38.917229 3.87959229 39.77195801 3.88418457 40.65258789 3.88891602 C51.61101098 4.03859687 63.01807355 4.52413677 73.78515625 6.68359375 C80.82494371 8.0865849 88.40862453 7.17685983 95.53857422 6.76416016 C105.97627002 6.1740504 116.4101612 5.95654549 126.86279297 5.89282227 C128.52755234 5.88101202 130.19228348 5.86398605 131.85693359 5.84155273 C134.22511537 5.81141051 136.59258459 5.80161354 138.9609375 5.796875 C139.6675351 5.78456848 140.37413269 5.77226196 141.10214233 5.75958252 C146.17862453 5.78191008 149.57350682 6.81558656 154 9.125 C155.125 11.0625 155.125 11.0625 156 13.125 C157.65788785 14.46923339 159.32576317 15.80118483 161 17.125 C166.84894313 23.54457172 170.43621605 29.48716048 171.3125 38.25 C170.50377503 48.27818958 165.21584103 59.73516824 158.5 67.25 C153.59544727 70.92841455 147.51979135 70.25205331 141.61328125 70.1875 C140.79796432 70.18371338 139.9826474 70.17992676 139.1426239 70.17602539 C135.69405414 70.15997515 132.245609 70.13260761 128.79711914 70.10449219 C119.32798193 70.03416536 109.89614519 70.09692316 100.43473816 70.52130127 C85.70750233 71.18117987 71.09029734 71.04011423 56.35986328 70.51074219 C52.44729389 70.37314645 48.53447789 70.26017907 44.62109375 70.1484375 C42.09109647 70.06396567 39.56114587 69.97808136 37.03125 69.890625 C35.88217163 69.85922424 34.73309326 69.82782349 33.54919434 69.79547119 C23.3765977 69.39496198 11.83441329 68.06975681 4.34765625 60.44140625 C-1.82681152 52.93844664 -3.0637654 44.33844549 -4.4609375 34.97265625 C-4.94344294 32.42376882 -5.62919869 30.37782463 -6.625 28 C-8.28641092 23.3583262 -8.40171748 18.75701372 -8.5 13.875 C-8.5304541 13.09366699 -8.5609082 12.31233398 -8.59228516 11.50732422 C-8.59503932 7.23378247 -8.35530653 5.58571414 -5.65625 2.0859375 C-3 0.125 -3 0.125 0 0 Z " fill="#646464" transform="translate(433,214.875)"/>
<path d="M0 0 C3.18707269 1.22483578 3.80293364 2.10912321 6 5 C6.476819 8.39474394 6.3567213 11.59793576 6 15 C6.61101562 15.12246094 7.22203125 15.24492187 7.8515625 15.37109375 C13.44568556 17.00864614 18.04527927 24.1319765 21 29 C24.0531202 35.90099592 25.29732034 42.97441523 26.625 50.375 C27.05213461 52.71661295 27.48169568 55.05778501 27.9140625 57.3984375 C28.0992041 58.42630371 28.2843457 59.45416992 28.47509766 60.51318359 C28.88752643 62.9857629 28.88752643 62.9857629 30 65 C32.01669827 66.13350534 32.01669827 66.13350534 34 67 C34 67.66 34 68.32 34 69 C34.50273437 69.12246094 35.00546875 69.24492187 35.5234375 69.37109375 C37.49566032 69.87192636 39.45711155 70.41512675 41.4140625 70.97265625 C50.85375404 73.49188678 59.85093282 74.3798284 69.625 74.375 C71.27749756 74.37705444 71.27749756 74.37705444 72.96337891 74.37915039 C82.5775433 74.63603663 82.5775433 74.63603663 91 71 C92.38473825 70.80803005 93.77790888 70.67619424 95.171875 70.5703125 C96.05415771 70.4986084 96.93644043 70.4269043 97.84545898 70.35302734 C98.80395752 70.27777832 99.76245605 70.2025293 100.75 70.125 C109.56930971 69.38963448 118.29069285 68.34548762 127.03222656 66.96533203 C131.75658431 66.23785958 136.21913829 65.85844016 141 66 C141.0825 65.0925 141.165 64.185 141.25 63.25 C142.12131932 59.47428296 142.81249593 58.18092383 146 56 C149.625 55.5625 149.625 55.5625 153 56 C155.4294516 59.6441774 155.16179575 61.71241272 155 66 C156.11375 66.0928125 156.11375 66.0928125 157.25 66.1875 C160.97501049 67.28807128 162.0467078 68.67216884 164 72 C164.64098532 75.46132073 164.6349196 77.7034835 163.0703125 80.8984375 C158.80810825 86.87561151 152.93403087 87.82188796 146 89 C146.33 89.99 146.66 90.98 147 92 C147.37066773 97.00401435 147.09881835 99.98301324 144 104 C140.51131349 106.32579101 139.10281481 106.41865457 135 106 C134.360625 105.484375 133.72125 104.96875 133.0625 104.4375 C130.96359936 102.65189178 130.96359936 102.65189178 127.6875 103.25 C125.38898213 103.71749516 123.09572589 104.21277038 120.8125 104.75 C114.28238176 105.17820447 107.46630271 103.64420181 102 100 C101.731875 100.721875 101.46375 101.44375 101.1875 102.1875 C98.9393414 107.51208616 95.86015687 111.74392961 92 116 C91.34 116 90.68 116 90 116 C90 119.63 90 123.26 90 127 C87.5821288 127.10826289 85.16912444 127.18739789 82.75 127.25 C82.06808594 127.28351563 81.38617188 127.31703125 80.68359375 127.3515625 C77.27222109 127.41780275 75.36828881 127.26849442 72.578125 125.234375 C70.03788668 121.63779996 70 119.41294208 70 115 C71.3125 112.625 71.3125 112.625 74 111 C75.64262333 110.76770983 77.28910448 110.56198218 78.9375 110.375 C82.3251178 109.83537947 83.5816623 109.53380648 85.7265625 106.796875 C87.6725719 102.9048562 88.94350821 99.22596715 90 95 C57.33 95 24.66 95 -9 95 C-3.42410722 104.81390544 -3.42410722 104.81390544 5.5625 109.0625 C6.32691406 109.17722656 7.09132813 109.29195313 7.87890625 109.41015625 C10.45741053 110.12719888 11.44694566 110.82377652 13 113 C13.76129634 117.40357688 13.46435076 121.66499157 12 125.875 C8.33947519 129.76430762 4.0768999 131.71493531 -1.1875 132.4375 C-4.55485577 131.9136891 -6.43259397 131.26535826 -9 129 C-9.608676 125.42402849 -9.44405832 123.70309234 -7.5 120.625 C-7.005 120.08875 -6.51 119.5525 -6 119 C-7.36125 118.13375 -7.36125 118.13375 -8.75 117.25 C-12 115 -12 115 -13.8125 113.0625 C-16.55378882 110.47785625 -19.54270679 108.96201421 -22.87890625 107.24609375 C-25 106 -25 106 -26.33984375 104.34765625 C-29.78511709 101.55090495 -34.75312005 102.97454591 -38.90234375 103.40234375 C-40.24797977 103.57626949 -41.59304143 103.75469512 -42.9375 103.9375 C-44.27994792 104.11328125 -45.62239583 104.2890625 -46.96484375 104.46484375 C-48.99659087 104.73267168 -51.02750546 105.00384215 -53.05712891 105.28735352 C-57.23542712 105.85075889 -61.286003 106.11038633 -65.5 106.0625 C-67.06234375 106.04896484 -67.06234375 106.04896484 -68.65625 106.03515625 C-69.4296875 106.02355469 -70.203125 106.01195312 -71 106 C-70.95166016 107.18142578 -70.95166016 107.18142578 -70.90234375 108.38671875 C-71 111 -71 111 -72.5625 112.8125 C-76.00570514 114.48995891 -78.20740642 114.52311636 -82 114 C-84.97046873 112.20976215 -87.42502414 110.14995172 -89 107 C-89.04003069 101.57984419 -88.83046319 96.59941058 -86.3125 91.75 C-84 90 -84 90 -80.9375 89.5625 C-78 90 -78 90 -75 92 C-71.87478167 92.16699232 -71.87478167 92.16699232 -69 92 C-69.72445312 91.58492188 -70.44890625 91.16984375 -71.1953125 90.7421875 C-78.70006872 85.9591562 -83.24901998 80.97977733 -85.57519531 72.234375 C-88.11582969 58.87122224 -87.43378169 42.69781812 -80.125 31 C-75.31597162 24.45830698 -68.88471281 20.2211782 -61 18.25 C-60.34 18.1675 -59.68 18.085 -59 18 C-59.0825 17.01 -59.165 16.02 -59.25 15 C-59.27825307 10.38533109 -57.35366383 6.87551072 -55 3 C-54 2 -54 2 -51.25 1.625 C-48 2 -48 2 -45.1875 4.0625 C-42.6474352 7.47344416 -42.24692316 9.80230628 -42 14 C-41.17757812 13.51144531 -40.35515625 13.02289063 -39.5078125 12.51953125 C-35.50486673 10.78551577 -32.15002124 10.58835758 -27.875 10.6875 C-27.17246094 10.68427734 -26.46992187 10.68105469 -25.74609375 10.67773438 C-22.01728278 10.71650273 -19.16465713 10.942153 -16 13 C-16.0825 11.7625 -16.165 10.525 -16.25 9.25 C-16.26153532 5.99127351 -16.19423516 5.25250571 -14.125 2.5625 C-9.65566982 -0.72377219 -5.41005412 -0.69486934 0 0 Z M-11.375 4.375 C-13.86963042 8.4047876 -13.31735888 12.38066514 -13 17 C-13.98097656 16.67515625 -14.96195312 16.3503125 -15.97265625 16.015625 C-20.163095 14.82287251 -24.10343293 14.70318739 -28.4375 14.75 C-29.50581055 14.73839844 -29.50581055 14.73839844 -30.59570312 14.7265625 C-35.6898934 14.74507 -40.10048724 15.6080302 -45 17 C-44.896875 15.783125 -44.79375 14.56625 -44.6875 13.3125 C-44.65408479 9.54994773 -44.90669702 9.11196358 -47.5 6 C-48.325 5.34 -49.15 4.68 -50 4 C-52.93576279 5.012332 -53.97512741 5.96357942 -55.75 8.5625 C-57.30903894 12.84985708 -57.27038392 16.49360134 -57 21 C-57.61746094 21.06316406 -58.23492187 21.12632812 -58.87109375 21.19140625 C-67.16275861 22.39035322 -72.69259035 25.70815793 -77.82421875 32.3671875 C-83.13683346 40.62553773 -84.35929341 48.87938845 -84.375 58.5625 C-84.39949219 59.36107422 -84.42398438 60.15964844 -84.44921875 60.98242188 C-84.47822081 66.91334285 -83.03787215 70.94837051 -80 76 C-79.4225 77.010625 -78.845 78.02125 -78.25 79.0625 C-73.42729984 85.35880299 -68.87183974 89.30866094 -61 91 C-57.52369043 91.35114942 -54.05359168 91.50435752 -50.5625 91.625 C-49.64017578 91.66367188 -48.71785156 91.70234375 -47.76757812 91.7421875 C-45.51190857 91.83568676 -43.25623084 91.9214391 -41 92 C-48.3281847 93.03975712 -55.66090839 94.04020155 -63 95 C-63.71655762 95.09522949 -64.43311523 95.19045898 -65.17138672 95.28857422 C-66.84105152 95.50337719 -68.51417013 95.69091303 -70.1875 95.875 C-71.06792969 95.97554688 -71.94835937 96.07609375 -72.85546875 96.1796875 C-75.59162353 95.95042863 -76.22705881 95.00797086 -78 93 C-80.5 92.41666667 -80.5 92.41666667 -83 93 C-86.14466651 95.69542844 -86.75556307 99.06215009 -87.140625 103.03125 C-86.91058949 106.25174707 -85.27488664 107.85510688 -83 110 C-80.23749964 111.38125018 -78.05268901 111.19079306 -75 111 C-72.71271266 109.16116119 -72.71271266 109.16116119 -72.875 106.375 C-72.91625 105.59125 -72.9575 104.8075 -73 104 C-68.09301872 103.44644512 -63.18578526 102.89519777 -58.27832031 102.34594727 C-56.61418925 102.15938333 -54.95012473 101.97222474 -53.28613281 101.78442383 C-43.8663818 100.72172629 -34.45507155 99.70337653 -25 99 C-25.495 100.485 -25.495 100.485 -26 102 C-25.04738281 102.60328125 -24.09476563 103.2065625 -23.11328125 103.828125 C-21.846258 104.63526573 -20.5793363 105.44256588 -19.3125 106.25 C-18.68666016 106.64574219 -18.06082031 107.04148437 -17.41601562 107.44921875 C-13.7613735 109.78359749 -10.38513619 112.28235546 -7 115 C-4.3205355 116.24016669 -4.3205355 116.24016669 -2 117 C-2 117.99 -2 118.98 -2 120 C-4.5 122.1875 -4.5 122.1875 -7 124 C-6.67 125.32 -6.34 126.64 -6 128 C0.28851034 129.29616272 0.28851034 129.29616272 6 127 C6 126.34 6 125.68 6 125 C6.66 125 7.32 125 8 125 C10.47954966 120.83565666 10.47954966 120.83565666 10.6875 116.125 C10.460625 115.42375 10.23375 114.7225 10 114 C9.46375 113.87625 8.9275 113.7525 8.375 113.625 C5.53522296 112.87769025 2.77934321 111.94615939 0 111 C-1.485 110.505 -1.485 110.505 -3 110 C-3.96875 108.29296875 -3.96875 108.29296875 -5 106 C-6.14489576 104.09094033 -7.31319795 102.19579393 -8.5 100.3125 C-9.1084375 99.33925781 -9.716875 98.36601562 -10.34375 97.36328125 C-11.78368551 94.9099091 -11.78368551 94.9099091 -14 94 C-14 93.34 -14 92.68 -14 92 C-3.14021225 91.86762326 7.71959646 91.73712683 18.57943344 91.60884857 C23.62539503 91.54918961 28.67134812 91.48895011 33.71728516 91.42724609 C56.14567231 91.15340087 78.56960355 90.90391302 101 91 C101 91.99 101 92.98 101 94 C98.36 94 95.72 94 93 94 C90.03584181 100.9241798 87.27435204 107.81783567 85 115 C84.34 114.67 83.68 114.34 83 114 C81.50350638 113.87994547 80.00125207 113.82468549 78.5 113.8125 C77.30890625 113.79123047 77.30890625 113.79123047 76.09375 113.76953125 C73.77966683 113.80333697 73.77966683 113.80333697 72 116 C72.35299007 119.44165321 73.04581692 121.06872538 75 124 C78.12557959 124.36530232 78.12557959 124.36530232 81.625 124.1875 C82.81351563 124.16042969 84.00203125 124.13335937 85.2265625 124.10546875 C86.59941406 124.05326172 86.59941406 124.05326172 88 124 C88 122.865625 88 121.73125 88 120.5625 C88.60021565 115.43338445 91.46360821 112.73691201 94.9921875 109.17578125 C97.06663274 106.92779293 98.46915101 104.63743412 100 102 C100.66 101.34 101.32 100.68 102 100 C102.16687448 97.41645782 102.16687448 97.41645782 102 95 C102.99 95 103.98 95 105 95 C105.13728516 95.93585938 105.13728516 95.93585938 105.27734375 96.890625 C105.88084822 99.46196337 105.88084822 99.46196337 109.5625 100.75 C115.78585806 102.79099377 120.94468976 102.61851253 127 100 C129.625 99.6875 129.625 99.6875 132 100 C132.45375 100.515625 132.9075 101.03125 133.375 101.5625 C135.07544706 103.39301907 135.07544706 103.39301907 138.5 102.9375 C141.97336139 102.283069 141.97336139 102.283069 144 100.25 C145.27491703 97.38143668 145.02973923 95.93079626 144 93 C143.34 92.67 142.68 92.34 142 92 C141.375 89.9375 141.375 89.9375 141 88 C137.59679066 87.32326553 137.59679066 87.32326553 134 87 C133.34 87.66 132.68 88.32 132 89 C132 90.32 132 91.64 132 93 C131.29617188 92.97679687 130.59234375 92.95359375 129.8671875 92.9296875 C121.74136471 92.78117377 114.0095484 93.67297423 106 95 C106.33 94.34 106.66 93.68 107 93 C109.3359375 92.4375 109.3359375 92.4375 112.375 92 C113.45265625 91.83371094 114.5303125 91.66742188 115.640625 91.49609375 C117.81753709 91.17461952 119.99461095 90.85423805 122.171875 90.53515625 C123.14640625 90.37917969 124.1209375 90.22320312 125.125 90.0625 C126.01445312 89.92972656 126.90390625 89.79695313 127.8203125 89.66015625 C130.36457444 89.14164055 130.36457444 89.14164055 132 86 C135.0546875 85.84765625 135.0546875 85.84765625 138.875 86.0625 C146.04742374 86.28782989 152.5458862 85.41688378 159 82 C160.88943269 80.15402903 160.88943269 80.15402903 162 78 C161.76261647 74.12273569 161.17282078 72.25923117 159 69 C156.79274927 68.63637182 156.79274927 68.63637182 154.375 68.8125 C153.55773437 68.83957031 152.74046875 68.86664063 151.8984375 68.89453125 C150.95871094 68.94673828 150.95871094 68.94673828 150 69 C150.7734375 67.9171875 150.7734375 67.9171875 151.5625 66.8125 C153.21442982 63.5804634 153.06351675 62.38391693 152 59 C149.25913944 58.77776806 147.56036279 58.65218861 145.1875 60.125 C143.52371484 62.75202921 143.92145968 64.94932865 144 68 C140.06270055 68.46006613 136.12511733 68.91766329 132.1875 69.375 C130.42696289 69.58080688 130.42696289 69.58080688 128.63085938 69.79077148 C123.12858576 70.42913407 117.62776536 71.05052877 112.11328125 71.57421875 C110.80677612 71.70014404 110.80677612 71.70014404 109.47387695 71.82861328 C107.85462134 71.98170189 106.23465575 72.12749905 104.61401367 72.26513672 C100.35317805 72.55719765 100.35317805 72.55719765 97 75 C88.03910486 77.45628598 78.46234862 77.20878144 69.25 77.25 C67.52825562 77.26377686 67.52825562 77.26377686 65.77172852 77.27783203 C59.68198505 77.25584581 54.02456295 76.85447334 48.08789062 75.46533203 C45.74167469 74.89883776 45.74167469 74.89883776 42.25 74.625 C38.35700042 73.87634623 36.16906435 72.34235191 33 70 C32.14792969 69.56300781 31.29585938 69.12601562 30.41796875 68.67578125 C27.43536779 66.60867978 27.15657164 65.56734568 26.4375 62.0625 C26.20933594 61.00933594 25.98117188 59.95617187 25.74609375 58.87109375 C25.34186194 56.77374443 24.93793028 54.67633674 24.53564453 52.57861328 C24.19779819 50.81950508 23.8578217 49.06080484 23.51586914 47.30249023 C23.17773357 45.54748181 22.84971994 43.79048611 22.53295898 42.03149414 C20.8034685 32.86887435 16.72845799 25.54428487 10 19 C7.36435132 17.90511587 5.89764916 17.87926462 3 18 C3.06960937 17.25234375 3.13921875 16.5046875 3.2109375 15.734375 C3.37600201 12.73177294 3.4117566 9.9809462 3 7 C-0.00781903 3.92056623 -1.91717325 3.17325228 -6.125 2.5 C-9.02971354 2.83468542 -9.02971354 2.83468542 -11.375 4.375 Z " fill="#101010" transform="translate(138,154)"/>
<path d="M0 0 C3 1.125 3 1.125 5 3.6875 C9.32001529 7.19751242 13.01420795 6.59726205 18.4296875 6.49609375 C22.01158558 6.23583078 22.01158558 6.23583078 25.37890625 5.11328125 C29.72194312 3.92796482 33.58676641 3.82463072 38.0625 3.875 C38.917229 3.87959229 39.77195801 3.88418457 40.65258789 3.88891602 C51.61101098 4.03859687 63.01807355 4.52413677 73.78515625 6.68359375 C80.82494371 8.0865849 88.40862453 7.17685983 95.53857422 6.76416016 C105.97627002 6.1740504 116.4101612 5.95654549 126.86279297 5.89282227 C128.52755234 5.88101202 130.19228348 5.86398605 131.85693359 5.84155273 C134.22511537 5.81141051 136.59258459 5.80161354 138.9609375 5.796875 C139.6675351 5.78456848 140.37413269 5.77226196 141.10214233 5.75958252 C146.17862453 5.78191008 149.57350682 6.81558656 154 9.125 C155.125 11.0625 155.125 11.0625 156 13.125 C157.65788785 14.46923339 159.32576317 15.80118483 161 17.125 C166.84894313 23.54457172 170.43621605 29.48716048 171.3125 38.25 C170.50377503 48.27818958 165.21584103 59.73516824 158.5 67.25 C153.59544727 70.92841455 147.51979135 70.25205331 141.61328125 70.1875 C140.79796432 70.18371338 139.9826474 70.17992676 139.1426239 70.17602539 C135.69405414 70.15997515 132.245609 70.13260761 128.79711914 70.10449219 C119.32798193 70.03416536 109.89614519 70.09692316 100.43473816 70.52130127 C85.70750233 71.18117987 71.09029734 71.04011423 56.35986328 70.51074219 C52.44729389 70.37314645 48.53447789 70.26017907 44.62109375 70.1484375 C42.09109647 70.06396567 39.56114587 69.97808136 37.03125 69.890625 C35.88217163 69.85922424 34.73309326 69.82782349 33.54919434 69.79547119 C23.3765977 69.39496198 11.83441329 68.06975681 4.34765625 60.44140625 C-1.82681152 52.93844664 -3.0637654 44.33844549 -4.4609375 34.97265625 C-4.94344294 32.42376882 -5.62919869 30.37782463 -6.625 28 C-8.28641092 23.3583262 -8.40171748 18.75701372 -8.5 13.875 C-8.5304541 13.09366699 -8.5609082 12.31233398 -8.59228516 11.50732422 C-8.59503932 7.23378247 -8.35530653 5.58571414 -5.65625 2.0859375 C-3 0.125 -3 0.125 0 0 Z M-2 3.125 C-5.34219637 6.76799404 -5.86682069 9.94781704 -6.19921875 14.7578125 C-5.95003152 18.96956534 -5.0251107 22.72175764 -3.8125 26.75 C-3.60431641 27.46124023 -3.39613281 28.17248047 -3.18164062 28.90527344 C-2.48498439 31.15772482 -2.48498439 31.15772482 -1 34.125 C1.05763303 35.20031087 1.05763303 35.20031087 3 35.125 C3 33.805 3 32.485 3 31.125 C3.99 31.125 4.98 31.125 6 31.125 C6.1546875 30.01125 6.1546875 30.01125 6.3125 28.875 C7.04253504 25.95485982 8.06789398 24.39312446 10 22.125 C9.39050431 26.2695707 7.96084772 29.4386063 6 33.125 C5.690625 33.8675 5.38125 34.61 5.0625 35.375 C3.7196378 37.58677303 2.28882417 38.01750443 0 39.125 C-1.80310102 44.53430306 0.85118344 50.03032809 3 55.125 C4.89597259 57.55165194 6.29919246 58.5397434 9 60.125 C9.66 60.125 10.32 60.125 11 60.125 C11 60.785 11 61.445 11 62.125 C21.26154022 65.59645722 30.67541799 66.20126388 41.4375 66.25 C42.77143799 66.25713013 42.77143799 66.25713013 44.13232422 66.2644043 C45.39520264 66.26114136 45.39520264 66.26114136 46.68359375 66.2578125 C47.82139282 66.25612061 47.82139282 66.25612061 48.98217773 66.25439453 C51.20626495 66.197839 51.20626495 66.197839 54 65.125 C54.20086443 61.40900809 54.1519437 60.35291555 52 57.125 C52.875 54.4375 52.875 54.4375 54 52.125 C53.01 51.135 52.02 50.145 51 49.125 C51.680625 48.568125 52.36125 48.01125 53.0625 47.4375 C55.28097119 45.29246056 55.28097119 45.29246056 55 42.5 C54.20423043 39.98006227 54.20423043 39.98006227 51.9375 38.8125 C51.298125 38.585625 50.65875 38.35875 50 38.125 C50.495 37.135 50.495 37.135 51 36.125 C52.875 36.75 52.875 36.75 55 38.125 C57.27878599 42.7910856 56.96687605 46.11482411 56 51.125 C54.96234078 57.03965756 55.10030096 61.42590287 57 67.125 C58.95486328 67.10953125 58.95486328 67.10953125 60.94921875 67.09375 C65.58771764 67.09375 70.18493274 67.33249253 74.8125 67.625 C81.91885989 68.03528471 89.0067453 68.23457722 96.125 68.25 C97.43174683 68.25676758 97.43174683 68.25676758 98.76489258 68.26367188 C102.69673607 68.64435259 102.69673607 68.64435259 106 67.125 C108.67250538 67.10412105 111.32900188 67.1313335 114 67.1875 C120.31908812 67.26676106 125.88847363 66.90289858 132 65.125 C132.94125778 61.46455306 133.65698407 57.89817527 134 54.125 C133.34 53.135 132.68 52.145 132 51.125 C133.98 48.155 133.98 48.155 136 45.125 C134.02 43.145 134.02 43.145 132 41.125 C133.32 41.455 134.64 41.785 136 42.125 C136.625 44.5 136.625 44.5 137 47.125 C136.01 48.115 136.01 48.115 135 49.125 C135.165 50.218125 135.33 51.31125 135.5 52.4375 C136.03296631 56.36812655 135.48213276 57.6049347 134 61.125 C134.27701774 62.80194665 134.60458862 64.47196076 135 66.125 C146.213767 67.99624647 146.213767 67.99624647 156.609375 64.953125 C163.05860623 58.23794609 167.90754151 47.33286442 169 38.125 C167.48779932 29.66347263 161.28652745 21.7130244 155 16.125 C154.01 15.63 154.01 15.63 153 15.125 C152.61781233 16.78114657 152.28604898 18.44957024 152 20.125 C152.33 20.455 152.66 20.785 153 21.125 C153.2165625 22.73375 153.2165625 22.73375 153.4375 24.375 C153.82799456 28.02222987 153.82799456 28.02222987 155.125 30.8125 C156.11341176 33.42473109 155.95398577 34.54923842 155 37.125 C152.525 37.62 152.525 37.62 150 38.125 C151 36.125 151 36.125 154 34.125 C153.505 33.238125 153.01 32.35125 152.5 31.4375 C151.05621326 28.24913762 150.69840078 26.54312454 151 23.125 C149.68 22.795 148.36 22.465 147 22.125 C148.98 17.67 148.98 17.67 151 13.125 C145.21350937 9.83307915 141.17561486 8.54587548 134.5625 8.734375 C133.79695801 8.74003479 133.03141602 8.74569458 132.24267578 8.75152588 C129.82777979 8.77369165 127.41443777 8.82384461 125 8.875 C123.35028204 8.89509085 121.70054052 8.91333706 120.05078125 8.9296875 C116.03326695 8.97349057 112.01689574 9.04237398 108 9.125 C108 9.785 108 10.445 108 11.125 C108.99 11.8984375 108.99 11.8984375 110 12.6875 C112.61592046 15.87565306 112.36839565 17.90694411 112.23828125 21.90625 C112 24.125 112 24.125 111.41796875 26.25390625 C110.7829888 28.25792357 110.7829888 28.25792357 112 30.5625 C113.20265703 33.64430863 113.24108827 35.06364894 112 38.125 C109.4375 39.4375 109.4375 39.4375 107 40.125 C108.65 38.145 110.3 36.165 112 34.125 C111.484375 33.238125 110.96875 32.35125 110.4375 31.4375 C108.8982735 27.89058677 108.80781918 26.70154245 110 23.125 C110.33 22.465 110.66 21.805 111 21.125 C110.01 21.125 109.02 21.125 108 21.125 C108.33 20.526875 108.66 19.92875 109 19.3125 C110.20787988 17.07113529 110.20787988 17.07113529 110 14.125 C107.17159994 11.10586005 105.50626342 10.18930472 101.37109375 9.6640625 C100.07300781 9.69242188 98.77492188 9.72078125 97.4375 9.75 C96.13683594 9.76289063 94.83617187 9.77578125 93.49609375 9.7890625 C90.3697929 10.08946683 88.60753355 10.46626365 86 12.125 C86.99 13.61 86.99 13.61 88 15.125 C87.67873872 17.75934254 87.18644952 19.75210097 86 22.125 C85.98012522 23.72917883 86.0072121 25.33415101 86.0625 26.9375 C86.10140325 30.78336422 85.97921869 33.7163456 84 37.125 C83.01 37.62 83.01 37.62 82 38.125 C82.350625 37.01125 82.70125 35.8975 83.0625 34.75 C84.37239331 31.32235524 84.37239331 31.32235524 83 29.125 C83.27942455 27.44845271 83.60828247 25.77891846 84 24.125 C83.01 24.125 82.02 24.125 81 24.125 C82.11179163 20.78962511 83.47411298 19.48792656 86 17.125 C85.06231164 14.06991079 85.06231164 14.06991079 83 11.125 C80.19158076 10.27670567 78.0869318 9.88391153 75.21875 9.6640625 C74.45002563 9.58376801 73.68130127 9.50347351 72.88928223 9.42074585 C70.42796038 9.17084665 67.96495857 8.9606349 65.5 8.75 C63.87214879 8.58708532 62.24453837 8.42174521 60.6171875 8.25390625 C52.40218153 7.43603507 44.26393848 6.85612325 36 7.125 C36.495 8.115 36.495 8.115 37 9.125 C37.31337847 14.66135301 36.4386757 18.2476486 34 23.125 C34.185625 23.74375 34.37125 24.3625 34.5625 25 C35 27.125 35 27.125 34.0625 28.875 C32.44610496 32.2979542 32.87464081 35.36422443 33 39.125 C32.01 39.455 31.02 39.785 30 40.125 C29.67 39.795 29.34 39.465 29 39.125 C29.7734375 38.63 29.7734375 38.63 30.5625 38.125 C32.33834722 35.65425604 32.02853971 34.98054407 31.5625 32.0625 C31.2840625 30.1134375 31.2840625 30.1134375 31 28.125 C31.66 27.465 32.32 26.805 33 26.125 C32.6730244 23.50919521 32.17960932 21.48421863 31 19.125 C31.99 19.125 32.98 19.125 34 19.125 C35.4783226 16.16835481 35.06032783 13.38270263 35 10.125 C34.34 10.125 33.68 10.125 33 10.125 C33 9.465 33 8.805 33 8.125 C32.195625 8.23328125 32.195625 8.23328125 31.375 8.34375 C25.8169062 9.00194532 20.27974669 9.28786142 14.6875 9.375 C13.6655957 9.4069043 13.6655957 9.4069043 12.62304688 9.43945312 C8.2150567 9.46979327 5.48757498 8.84391092 2 6.125 C1.34 5.135 0.68 4.145 0 3.125 C-0.66 3.125 -1.32 3.125 -2 3.125 Z " fill="#0F0F0F" transform="translate(433,214.875)"/>
<path d="M0 0 C1.4537075 -0.0100985 1.4537075 -0.0100985 2.93678284 -0.020401 C3.81543503 -0.02132248 4.69408722 -0.02224396 5.59936523 -0.02319336 C6.72350075 -0.02687172 6.72350075 -0.02687172 7.87034607 -0.03062439 C10.00540152 0.09356619 11.88864746 0.50447762 13.94140625 1.08984375 C13.94140625 2.07984375 13.94140625 3.06984375 13.94140625 4.08984375 C11.30140625 4.08984375 8.66140625 4.08984375 5.94140625 4.08984375 C5.73515625 5.14171875 5.52890625 6.19359375 5.31640625 7.27734375 C3.77542853 13.56589253 0.75299847 19.28982961 -2.05859375 25.08984375 C-5.68859375 25.08984375 -9.31859375 25.08984375 -13.05859375 25.08984375 C-14.30897428 28.7874107 -14.30897428 28.7874107 -13.53515625 31.29296875 C-12.11067403 33.41276091 -12.11067403 33.41276091 -9.01953125 33.69921875 C-7.83617187 33.745625 -6.6528125 33.79203125 -5.43359375 33.83984375 C-3.65082031 33.92492187 -3.65082031 33.92492187 -1.83203125 34.01171875 C-0.91679687 34.0375 -0.0015625 34.06328125 0.94140625 34.08984375 C0.77640625 32.95546875 0.61140625 31.82109375 0.44140625 30.65234375 C0.40347476 26.37367221 1.90427755 24.50724084 4.75390625 21.40234375 C5.46160156 20.69722656 6.16929687 19.99210937 6.8984375 19.265625 C9.03807538 17.14334244 9.03807538 17.14334244 10.515625 14.4453125 C11.94140625 12.08984375 11.94140625 12.08984375 14.94140625 10.08984375 C12.62909483 16.31529758 9.37794806 21.19827202 4.94140625 26.08984375 C4.28140625 26.08984375 3.62140625 26.08984375 2.94140625 26.08984375 C2.94140625 29.71984375 2.94140625 33.34984375 2.94140625 37.08984375 C0.52353505 37.19810664 -1.88946931 37.27724164 -4.30859375 37.33984375 C-5.33146484 37.39011719 -5.33146484 37.39011719 -6.375 37.44140625 C-9.78637266 37.5076465 -11.69030494 37.35833817 -14.48046875 35.32421875 C-17.02070707 31.72764371 -17.05859375 29.50278583 -17.05859375 25.08984375 C-15.74609375 22.71484375 -15.74609375 22.71484375 -13.05859375 21.08984375 C-11.41597042 20.85755358 -9.76948927 20.65182593 -8.12109375 20.46484375 C-4.73347595 19.92522322 -3.47693145 19.62365023 -1.33203125 16.88671875 C0.61397815 12.99469995 1.88491446 9.3158109 2.94140625 5.08984375 C-29.39859375 5.08984375 -61.73859375 5.08984375 -95.05859375 5.08984375 C-95.38859375 4.42984375 -95.71859375 3.76984375 -96.05859375 3.08984375 C-95.34832031 3.02925781 -94.63804687 2.96867188 -93.90625 2.90625 C-92.52759766 2.78056641 -92.52759766 2.78056641 -91.12109375 2.65234375 C-90.20457031 2.57113281 -89.28804687 2.48992187 -88.34375 2.40625 C-86.09699643 2.32939399 -86.09699643 2.32939399 -85.05859375 1.08984375 C-82.977749 0.96580294 -80.89270936 0.91182403 -78.80834961 0.88452148 C-77.82720184 0.86967209 -77.82720184 0.86967209 -76.82623291 0.85452271 C-74.6420053 0.82271519 -72.45775749 0.79802012 -70.2734375 0.7734375 C-68.74051909 0.75282956 -67.20760588 0.73183219 -65.67469788 0.71046448 C-62.438843 0.66636515 -59.2029691 0.62550521 -55.96704102 0.5871582 C-51.89371499 0.53885395 -47.82048732 0.48509938 -43.74725914 0.42920494 C-29.16560296 0.22955953 -14.58300864 0.05323324 0 0 Z " fill="#212121" transform="translate(225.05859375,243.91015625)"/>
<path d="M0 0 C2.4294516 3.6441774 2.16179575 5.71241272 2 10 C2.7425 10.061875 3.485 10.12375 4.25 10.1875 C7.97501049 11.28807128 9.0467078 12.67216884 11 16 C11.64098532 19.46132073 11.6349196 21.7034835 10.0703125 24.8984375 C5.80810825 30.87561151 -0.06596913 31.82188796 -7 33 C-6.67 33.99 -6.34 34.98 -6 36 C-5.62933227 41.00401435 -5.90118165 43.98301324 -9 48 C-12.48868651 50.32579101 -13.89718519 50.41865457 -18 50 C-18.639375 49.484375 -19.27875 48.96875 -19.9375 48.4375 C-22.03640064 46.65189178 -22.03640064 46.65189178 -25.3125 47.25 C-27.61101787 47.71749516 -29.90427411 48.21277038 -32.1875 48.75 C-38.71761824 49.17820447 -45.53369729 47.64420181 -51 44 C-51.1875 41.375 -51.1875 41.375 -51 39 C-50.01 39 -49.02 39 -48 39 C-47.814375 39.61875 -47.62875 40.2375 -47.4375 40.875 C-45.21655969 44.15812915 -42.81113595 44.26236078 -39 45 C-34.18650477 45.43759048 -30.44378888 44.92163843 -26 43 C-23.1875 42.875 -23.1875 42.875 -21 43 C-20.67 43.99 -20.34 44.98 -20 46 C-14.95203239 46.44187074 -14.95203239 46.44187074 -10.5625 44.25 C-8.61973613 41.90897434 -8.61973613 41.90897434 -9 38 C-9.99 37.34 -10.98 36.68 -12 36 C-12 34.68 -12 33.36 -12 32 C-14.31 32 -16.62 32 -19 32 C-19.99 34.475 -19.99 34.475 -21 37 C-24.02038089 37.33794471 -27.04119756 37.67048433 -30.0625 38 C-30.91005859 38.09539062 -31.75761719 38.19078125 -32.63085938 38.2890625 C-37.45472589 38.81056158 -42.14836264 39.10532727 -47 39 C-46.67 38.01 -46.34 37.02 -46 36 C-44.125 35.6875 -42.25 35.375 -40.375 35.0625 C-39.33085937 34.88847656 -38.28671875 34.71445313 -37.2109375 34.53515625 C-36.15132812 34.35855469 -35.09171875 34.18195313 -34 34 C-32.9378125 33.814375 -31.875625 33.62875 -30.78125 33.4375 C-28.13339658 33.02098373 -25.67462044 32.92133469 -23 33 C-22.34 31.68 -21.68 30.36 -21 29 C-20.05640625 29.04640625 -19.1128125 29.0928125 -18.140625 29.140625 C-9.53743447 29.38248176 -1.87204942 29.00978326 6 25 C8.34111027 22.17941514 8.34111027 22.17941514 7.6875 19 C7.04448305 15.97290882 7.04448305 15.97290882 6 13 C3.03 13 0.06 13 -3 13 C-2.67 12.278125 -2.34 11.55625 -2 10.8125 C-0.99396471 7.98302573 -0.83022598 5.97104534 -1 3 C-3.99405579 3.46853622 -3.99405579 3.46853622 -7 5 C-8.46022435 8.52451159 -8.46022435 8.52451159 -9 12 C-12.63 12.66 -16.26 13.32 -20 14 C-19.67 12.68 -19.34 11.36 -19 10 C-16.69 10 -14.38 10 -12 10 C-11.9175 9.0925 -11.835 8.185 -11.75 7.25 C-10.19190563 0.49825771 -6.6501055 -0.86205071 0 0 Z " fill="#0E0E0E" transform="translate(291,210)"/>
<path d="M0 0 C0 0.99 0 1.98 0 3 C2.04343648 4.45703304 4.01384325 5.70646462 6.1875 6.9375 C10.38322154 9.36512484 14.23388743 11.93680912 18 15 C19.97711651 16.04451438 21.97250996 17.05698138 24 18 C23.8125 19.8125 23.8125 19.8125 23 22 C20.4375 23.75 20.4375 23.75 18 25 C18 21 18 21 19 20 C17.63875 19.13375 17.63875 19.13375 16.25 18.25 C13 16 13 16 11.1875 14.0625 C8.44621118 11.47785625 5.45729321 9.96201421 2.12109375 8.24609375 C0 7 0 7 -1.33984375 5.34765625 C-4.41774727 2.8491228 -8.22911938 3.82230219 -11.98535156 4.19921875 C-14.0361047 4.44083332 -16.07999555 4.71393132 -18.125 5 C-22.43109382 5.59560924 -26.64145033 6.1356747 -31 6 C-30.67 4.68 -30.34 3.36 -30 2 C-19.90994238 0.53235526 -10.2165875 -0.28734152 0 0 Z " fill="#121212" transform="translate(113,253)"/>
<path d="M0 0 C1.50433594 0.01353516 1.50433594 0.01353516 3.0390625 0.02734375 C3.80992188 0.03894531 4.58078125 0.05054688 5.375 0.0625 C5.705 1.0525 6.035 2.0425 6.375 3.0625 C5.14523438 3.11857422 5.14523438 3.11857422 3.890625 3.17578125 C2.81296875 3.24152344 1.7353125 3.30726563 0.625 3.375 C-0.44234375 3.43300781 -1.5096875 3.49101562 -2.609375 3.55078125 C-5.8071068 4.09340154 -7.25098691 4.91321145 -9.625 7.0625 C-9.07402718 14.06730391 -9.07402718 14.06730391 -5.625 20.0625 C-1.4844667 22.22669889 2.0662138 22.27387918 6.6875 22.1875 C7.94175781 22.16945312 9.19601563 22.15140625 10.48828125 22.1328125 C11.44089844 22.10960937 12.39351562 22.08640625 13.375 22.0625 C13.375 23.0525 13.375 24.0425 13.375 25.0625 C7.6075928 26.70654251 1.19255638 27.02763949 -4.5 24.9375 C-9.020409 22.2252546 -10.97906689 19.00029932 -12.625 14.0625 C-13.01957593 11.00171818 -13.13257589 8.11347245 -12.625 5.0625 C-8.61180415 0.83808332 -5.66155708 -0.06583206 0 0 Z " fill="#0C0C0C" transform="translate(86.625,192.9375)"/>
<path d="M0 0 C-0.33 0.66 -0.66 1.32 -1 2 C-2.32 2 -3.64 2 -5 2 C-5 2.66 -5 3.32 -5 4 C-4.360625 4.2475 -3.72125 4.495 -3.0625 4.75 C-1 6 -1 6 -0.25 7.6875 C0.16708565 11.54554222 0.47927342 15.37047037 -0.625 19.125 C-1.21518521 21.13431286 -1.21518521 21.13431286 0.0625 23.375 C1 26 1 26 0.4375 29.1875 C-1 32 -1 32 -3.625 33.375 C-4.40875 33.58125 -5.1925 33.7875 -6 34 C-6 31 -6 31 -4 28.8125 C-3.01 27.9153125 -3.01 27.9153125 -2 27 C-2.515625 26.113125 -3.03125 25.22625 -3.5625 24.3125 C-5.08979002 20.79309257 -5.21675714 19.548875 -4 16 C-3.67 15.67 -3.34 15.34 -3 15 C-3.66 14.67 -4.32 14.34 -5 14 C-4.42415568 11.61435923 -3.77772405 9.33317216 -3 7 C-8.60944292 3.85871197 -14.68146331 2.77369837 -21 2 C-20.67 1.34 -20.34 0.68 -20 0 C-17.22949974 -0.1946838 -14.45886998 -0.38102792 -11.6875 -0.5625 C-10.90181641 -0.61857422 -10.11613281 -0.67464844 -9.30664062 -0.73242188 C-8.1706543 -0.80493164 -8.1706543 -0.80493164 -7.01171875 -0.87890625 C-6.31522217 -0.9260376 -5.61872559 -0.97316895 -4.90112305 -1.02172852 C-3 -1 -3 -1 0 0 Z " fill="#030303" transform="translate(546,222)"/>
<path d="M0 0 C0.33 0.66 0.66 1.32 1 2 C-1.43930572 7.15738924 -5.1444527 11.83184076 -9 16 C-9.66 16 -10.32 16 -11 16 C-11 19.63 -11 23.26 -11 27 C-13.4178712 27.10826289 -15.83087556 27.18739789 -18.25 27.25 C-19.27287109 27.30027344 -19.27287109 27.30027344 -20.31640625 27.3515625 C-23.72736738 27.41779475 -25.63510179 27.26458053 -28.4296875 25.23828125 C-30.90470985 21.71045089 -30.86369575 19.29358399 -31 15 C-30.34 14.01 -29.68 13.02 -29 12 C-28.34 12.33 -27.68 12.66 -27 13 C-27.20625 13.9075 -27.4125 14.815 -27.625 15.75 C-28.02577681 19.22339902 -28.11526443 20.28694344 -26 23 C-22.89069059 23.70672206 -22.89069059 23.70672206 -19.375 23.75 C-17.59222656 23.83507812 -17.59222656 23.83507812 -15.7734375 23.921875 C-14.40058594 23.96054687 -14.40058594 23.96054687 -13 24 C-13.165 22.865625 -13.33 21.73125 -13.5 20.5625 C-13.53793149 16.28382846 -12.0371287 14.41739709 -9.1875 11.3125 C-8.47980469 10.60738281 -7.77210938 9.90226562 -7.04296875 9.17578125 C-4.93511892 6.93090103 -3.53733881 4.65620431 -2 2 C-1.34 1.34 -0.68 0.68 0 0 Z " fill="#0C0C0C" transform="translate(239,254)"/>
<path d="M0 0 C-0.33 0.99 -0.66 1.98 -1 3 C-12.73292188 4.89446549 -24.08394997 6.54072832 -36 6 C-35.67 5.01 -35.34 4.02 -35 3 C-34.15179688 2.95101562 -33.30359375 2.90203125 -32.4296875 2.8515625 C-24.95107416 2.37490363 -17.65601031 1.59961442 -10.25390625 0.40234375 C-6.80501021 -0.02411038 -3.47162894 -0.06583367 0 0 Z " fill="#1E1E1E" transform="translate(272,221)"/>
<path d="M0 0 C0.99 0.33 1.98 0.66 3 1 C2.3897536 5.14967549 0.99267393 8.32121736 -1 12 C-1.7115625 13.3921875 -1.7115625 13.3921875 -2.4375 14.8125 C-4 17 -4 17 -6.1875 17.8125 C-6.785625 17.874375 -7.38375 17.93625 -8 18 C-7.67 20.31 -7.34 22.62 -7 25 C-8.32 24.34 -9.64 23.68 -11 23 C-11 19.7 -11 16.4 -11 13 C-8.03 13.495 -8.03 13.495 -5 14 C-5 12.68 -5 11.36 -5 10 C-4.01 10 -3.02 10 -2 10 C-2.226875 9.443125 -2.45375 8.88625 -2.6875 8.3125 C-3.12446199 5.07898125 -1.78001197 3.63441772 0 1 C0 0.67 0 0.34 0 0 Z " fill="#020202" transform="translate(441,236)"/>
<path d="M0 0 C0.66 0.33 1.32 0.66 2 1 C0.125 5.75 0.125 5.75 -1 8 C-0.7215625 8.928125 -0.7215625 8.928125 -0.4375 9.875 C0 12 0 12 -0.9375 13.75 C-2.55389504 17.1729542 -2.12535919 20.23922443 -2 24 C-3.98 24.99 -3.98 24.99 -6 26 C-6.66 25.34 -7.32 24.68 -8 24 C-7.484375 23.67 -6.96875 23.34 -6.4375 23 C-4.66165278 20.52925604 -4.97146029 19.85554407 -5.4375 16.9375 C-5.623125 15.638125 -5.80875 14.33875 -6 13 C-5.34 12.34 -4.68 11.68 -4 11 C-4.32326553 7.40320934 -4.32326553 7.40320934 -5 4 C-4.01 4 -3.02 4 -2 4 C-1.34 2.68 -0.68 1.36 0 0 Z " fill="#000000" transform="translate(469,230)"/>
<path d="M0 0 C0.33 0 0.66 0 1 0 C1.33 4.95 1.66 9.9 2 15 C2.66 15 3.32 15 4 15 C5.32 19.95 6.64 24.9 8 30 C7.34 30 6.68 30 6 30 C5.505 32.475 5.505 32.475 5 35 C4.67 35 4.34 35 4 35 C3.896875 33.865625 3.79375 32.73125 3.6875 31.5625 C3.32311188 28.47055962 2.63850392 25.98588199 1.4375 23.125 C-1.21119158 15.86038475 -0.22162454 7.60910911 0 0 Z " fill="#1C1C1C" transform="translate(425,220)"/>
<path d="M0 0 C0.99 0 1.98 0 3 0 C3.18304688 0.62390625 3.36609375 1.2478125 3.5546875 1.890625 C4.91662203 4.34008964 4.91662203 4.34008964 8.2578125 5.046875 C9.53398437 5.27890625 10.81015625 5.5109375 12.125 5.75 C13.40632812 5.99234375 14.68765625 6.2346875 16.0078125 6.484375 C16.99523437 6.65453125 17.98265625 6.8246875 19 7 C18.67 7.99 18.34 8.98 18 10 C5.33029613 8.25740319 5.33029613 8.25740319 0 5 C0 3.35 0 1.7 0 0 Z " fill="#030303" transform="translate(240,249)"/>
<path d="M0 0 C12.87 0.495 12.87 0.495 26 1 C26 1.66 26 2.32 26 3 C17.75 3 9.5 3 1 3 C0.67 2.01 0.34 1.02 0 0 Z " fill="#000000" transform="translate(79,228)"/>
<path d="M0 0 C3.3 0 6.6 0 10 0 C10 0.33 10 0.66 10 1 C16.6 1.33 23.2 1.66 30 2 C30 2.33 30 2.66 30 3 C19.77 3 9.54 3 -1 3 C-0.67 2.01 -0.34 1.02 0 0 Z " fill="#1F1F1F" transform="translate(546,221)"/>
<path d="M0 0 C0.33 0.66 0.66 1.32 1 2 C-1.1727369 6.58358196 -4.21300384 10.63378119 -8 14 C-8.33 13.34 -8.66 12.68 -9 12 C-8.401875 11.278125 -7.80375 10.55625 -7.1875 9.8125 C-5.2242398 7.28830832 -3.6304801 4.74217108 -2 2 C-1.34 1.34 -0.68 0.68 0 0 Z " fill="#151515" transform="translate(239,254)"/>
<path d="M0 0 C0.66 0.66 1.32 1.32 2 2 C1.69903201 6.13830989 1.32101984 8.51847024 -1 12 C-1.66 12 -2.32 12 -3 12 C-2.835 10.906875 -2.67 9.81375 -2.5 8.6875 C-1.93281816 5.12474127 -1.93281816 5.12474127 -2 2 C-1.34 1.34 -0.68 0.68 0 0 Z " fill="#000000" transform="translate(518,241)"/>
<path d="M0 0 C2.97 0 5.94 0 9 0 C8.67 0.99 8.34 1.98 8 3 C3.545 3.495 3.545 3.495 -1 4 C-0.67 2.68 -0.34 1.36 0 0 Z " fill="#2A2A2A" transform="translate(83,255)"/>
<path d="M0 0 C2.31 0 4.62 0 7 0 C7 0.99 7 1.98 7 3 C4.69 3.33 2.38 3.66 0 4 C-0.33 3.34 -0.66 2.68 -1 2 C-0.67 1.34 -0.34 0.68 0 0 Z " fill="#242424" transform="translate(93,215)"/>
<path d="M0 0 C2.31 0 4.62 0 7 0 C7.33 0.99 7.66 1.98 8 3 C5.03 3 2.06 3 -1 3 C-0.67 2.01 -0.34 1.02 0 0 Z " fill="#282828" transform="translate(85,193)"/>
<path d="M0 0 C2.4375 0.8125 2.4375 0.8125 5 2 C5.33 2.99 5.66 3.98 6 5 C3 5 3 5 0.8125 3 C0.214375 2.34 -0.38375 1.68 -1 1 C-0.67 0.67 -0.34 0.34 0 0 Z " fill="#000000" transform="translate(565,255)"/>
<path d="M0 0 C0.33 0.66 0.66 1.32 1 2 C0.22265625 3.9453125 0.22265625 3.9453125 -0.9375 6.125 C-1.31777344 6.84945313 -1.69804687 7.57390625 -2.08984375 8.3203125 C-2.39019531 8.87460937 -2.69054687 9.42890625 -3 10 C-3.66 9.67 -4.32 9.34 -5 9 C-3.90931332 5.22454612 -3.0916909 2.52956528 0 0 Z " fill="#181818" transform="translate(229,252)"/>
<path d="M0 0 C0.33 0 0.66 0 1 0 C0.67 3.3 0.34 6.6 0 10 C-0.66 9.67 -1.32 9.34 -2 9 C-1.125 1.125 -1.125 1.125 0 0 Z " fill="#020202" transform="translate(55,193)"/>
<path d="M0 0 C2.31 0 4.62 0 7 0 C6.67 0.99 6.34 1.98 6 3 C3.69 3 1.38 3 -1 3 C-0.67 2.01 -0.34 1.02 0 0 Z " fill="#1C1C1C" transform="translate(76,256)"/>
</svg>
