<?xml version="1.0" encoding="UTF-8"?>
<svg version="1.1" xmlns="http://www.w3.org/2000/svg" width="800" height="300">
<path d="M0 0 C264 0 528 0 800 0 C800 99 800 198 800 300 C536 300 272 300 0 300 C0 201 0 102 0 0 Z " fill="#FEFEFE" transform="translate(0,0)"/>
<path d="M0 0 C3.18707269 1.22483578 3.80293364 2.10912321 6 5 C6.476819 8.39474394 6.3567213 11.59793576 6 15 C6.61101562 15.12246094 7.22203125 15.24492187 7.8515625 15.37109375 C13.44568556 17.00864614 18.04527927 24.1319765 21 29 C24.0531202 35.90099592 25.29732034 42.97441523 26.625 50.375 C27.05213461 52.71661295 27.48169568 55.05778501 27.9140625 57.3984375 C28.0992041 58.42630371 28.2843457 59.45416992 28.47509766 60.51318359 C28.88752643 62.9857629 28.88752643 62.9857629 30 65 C32.01669827 66.13350534 32.01669827 66.13350534 34 67 C34 67.66 34 68.32 34 69 C34.86625 69.185625 34.86625 69.185625 35.75 69.375 C38 70 38 70 39.7890625 70.96875 C48.55850278 75.05908964 59.92271627 74.20636797 69.375 74.25 C70.49213379 74.25918457 71.60926758 74.26836914 72.76025391 74.27783203 C82.47286741 74.65199059 82.47286741 74.65199059 91 71 C92.38473825 70.80803005 93.77790888 70.67619424 95.171875 70.5703125 C96.05415771 70.4986084 96.93644043 70.4269043 97.84545898 70.35302734 C98.80395752 70.27777832 99.76245605 70.2025293 100.75 70.125 C109.56930971 69.38963448 118.29069285 68.34548762 127.03222656 66.96533203 C131.75658431 66.23785958 136.21913829 65.85844016 141 66 C141.0825 65.0925 141.165 64.185 141.25 63.25 C142.12131932 59.47428296 142.81249593 58.18092383 146 56 C149.625 55.5625 149.625 55.5625 153 56 C155.4294516 59.6441774 155.16179575 61.71241272 155 66 C156.11375 66.0928125 156.11375 66.0928125 157.25 66.1875 C160.97501049 67.28807128 162.0467078 68.67216884 164 72 C164.64098532 75.46132073 164.6349196 77.7034835 163.0703125 80.8984375 C158.80810825 86.87561151 152.93403087 87.82188796 146 89 C146.33 89.66 146.66 90.32 147 91 C147.34708476 96.29304255 147.51351894 99.73358414 144 104 C141.24544558 106.16429276 139.94563262 105.99625053 136.375 105.75 C133 105 133 105 131 103 C127.52518877 103.34066777 124.21021582 103.95053745 120.8125 104.75 C114.28238176 105.17820447 107.46630271 103.64420181 102 100 C101.731875 100.721875 101.46375 101.44375 101.1875 102.1875 C99.99977466 105.00053369 98.63421214 107.42297317 97 110 C96.34 111.093125 95.68 112.18625 95 113.3125 C94.34 114.199375 93.68 115.08625 93 116 C92.01 116 91.02 116 90 116 C90 119.63 90 123.26 90 127 C87.5821288 127.10826289 85.16912444 127.18739789 82.75 127.25 C82.06808594 127.28351563 81.38617188 127.31703125 80.68359375 127.3515625 C77.27222109 127.41780275 75.36828881 127.26849442 72.578125 125.234375 C70.03788668 121.63779996 70 119.41294208 70 115 C71.3125 112.625 71.3125 112.625 74 111 C75.64262333 110.76770983 77.28910448 110.56198218 78.9375 110.375 C82.3251178 109.83537947 83.5816623 109.53380648 85.7265625 106.796875 C87.6725719 102.9048562 88.94350821 99.22596715 90 95 C57.33 95 24.66 95 -9 95 C-3.42410722 104.81390544 -3.42410722 104.81390544 5.5625 109.0625 C6.32691406 109.17722656 7.09132813 109.29195313 7.87890625 109.41015625 C10.45741053 110.12719888 11.44694566 110.82377652 13 113 C13.76129634 117.40357688 13.46435076 121.66499157 12 125.875 C8.33947519 129.76430762 4.0768999 131.71493531 -1.1875 132.4375 C-4.55485577 131.9136891 -6.43259397 131.26535826 -9 129 C-9.608676 125.42402849 -9.44405832 123.70309234 -7.5 120.625 C-7.005 120.08875 -6.51 119.5525 -6 119 C-7.36125 118.13375 -7.36125 118.13375 -8.75 117.25 C-12 115 -12 115 -13.875 113 C-16.40578502 110.61808469 -18.99218294 109.4677162 -22.12109375 108.015625 C-24 107 -24 107 -26.0625 104.75 C-28.00120195 102.64614188 -28.00120195 102.64614188 -31.5 102.6875 C-34.75588451 102.88250959 -34.75588451 102.88250959 -36.88378906 103.48608398 C-39.38046544 104.09239499 -41.79907089 104.31973543 -44.359375 104.53515625 C-45.39320312 104.62216797 -46.42703125 104.70917969 -47.4921875 104.79882812 C-48.56726563 104.88583984 -49.64234375 104.97285156 -50.75 105.0625 C-52.33941406 105.19881836 -52.33941406 105.19881836 -53.9609375 105.33789062 C-59.6630248 105.8083482 -65.27895985 106.10364203 -71 106 C-70.87625 107.1446875 -70.87625 107.1446875 -70.75 108.3125 C-71 111 -71 111 -72.5625 112.8125 C-76.00570514 114.48995891 -78.20740642 114.52311636 -82 114 C-84.97046873 112.20976215 -87.42502414 110.14995172 -89 107 C-89.04003069 101.57984419 -88.83046319 96.59941058 -86.3125 91.75 C-84 90 -84 90 -80.9375 89.5625 C-78 90 -78 90 -75 92 C-71.87478167 92.16699232 -71.87478167 92.16699232 -69 92 C-69.72445312 91.58492188 -70.44890625 91.16984375 -71.1953125 90.7421875 C-78.70006872 85.9591562 -83.24901998 80.97977733 -85.57519531 72.234375 C-88.11582969 58.87122224 -87.43378169 42.69781812 -80.125 31 C-75.31597162 24.45830698 -68.88471281 20.2211782 -61 18.25 C-60.34 18.1675 -59.68 18.085 -59 18 C-59.0825 17.01 -59.165 16.02 -59.25 15 C-59.27825307 10.38533109 -57.35366383 6.87551072 -55 3 C-54 2 -54 2 -51.25 1.5625 C-48 2 -48 2 -45.125 4.625 C-42.86145693 8.220039 -42.50651825 9.85475329 -43 14 C-42.01515625 13.51144531 -41.0303125 13.02289063 -40.015625 12.51953125 C-35.86652466 10.7447776 -32.21315219 10.58341529 -27.75 10.6875 C-27.04359375 10.68427734 -26.3371875 10.68105469 -25.609375 10.67773438 C-21.87841778 10.71659851 -20.17544109 10.88303927 -17 13 C-17.103125 11.948125 -17.20625 10.89625 -17.3125 9.8125 C-17 6 -17 6 -14.625 3.125 C-9.95602068 -0.65464993 -5.87185943 -0.75418378 0 0 Z " fill="#FAFAFA" transform="translate(131,154)"/>
<path d="M0 0 C3 1.125 3 1.125 5 3.6875 C9.32001529 7.19751242 13.01420795 6.59726205 18.4296875 6.49609375 C22.01158558 6.23583078 22.01158558 6.23583078 25.37890625 5.11328125 C29.72194312 3.92796482 33.58676641 3.82463072 38.0625 3.875 C38.917229 3.87959229 39.77195801 3.88418457 40.65258789 3.88891602 C51.61101098 4.03859687 63.01807355 4.52413677 73.78515625 6.68359375 C80.82494371 8.0865849 88.40862453 7.17685983 95.53857422 6.76416016 C105.97627002 6.1740504 116.4101612 5.95654549 126.86279297 5.89282227 C128.52755234 5.88101202 130.19228348 5.86398605 131.85693359 5.84155273 C134.22511537 5.81141051 136.59258459 5.80161354 138.9609375 5.796875 C139.6675351 5.78456848 140.37413269 5.77226196 141.10214233 5.75958252 C146.17862453 5.78191008 149.57350682 6.81558656 154 9.125 C155.125 11.0625 155.125 11.0625 156 13.125 C157.65788785 14.46923339 159.32576317 15.80118483 161 17.125 C166.84894313 23.54457172 170.43621605 29.48716048 171.3125 38.25 C170.50377503 48.27818958 165.21584103 59.73516824 158.5 67.25 C153.59544727 70.92841455 147.51979135 70.25205331 141.61328125 70.1875 C140.79796432 70.18371338 139.9826474 70.17992676 139.1426239 70.17602539 C135.69405414 70.15997515 132.245609 70.13260761 128.79711914 70.10449219 C119.32798193 70.03416536 109.89614519 70.09692316 100.43473816 70.52130127 C85.70750233 71.18117987 71.09029734 71.04011423 56.35986328 70.51074219 C52.44729389 70.37314645 48.53447789 70.26017907 44.62109375 70.1484375 C42.09109647 70.06396567 39.56114587 69.97808136 37.03125 69.890625 C35.88217163 69.85922424 34.73309326 69.82782349 33.54919434 69.79547119 C23.3765977 69.39496198 11.83441329 68.06975681 4.34765625 60.44140625 C-1.82681152 52.93844664 -3.0637654 44.33844549 -4.4609375 34.97265625 C-4.94344294 32.42376882 -5.62919869 30.37782463 -6.625 28 C-8.28641092 23.3583262 -8.40171748 18.75701372 -8.5 13.875 C-8.5304541 13.09366699 -8.5609082 12.31233398 -8.59228516 11.50732422 C-8.59503932 7.23378247 -8.35530653 5.58571414 -5.65625 2.0859375 C-3 0.125 -3 0.125 0 0 Z " fill="#646464" transform="translate(433,214.875)"/>
<path d="M0 0 C3.18707269 1.22483578 3.80293364 2.10912321 6 5 C6.476819 8.39474394 6.3567213 11.59793576 6 15 C6.61101562 15.12246094 7.22203125 15.24492187 7.8515625 15.37109375 C13.44568556 17.00864614 18.04527927 24.1319765 21 29 C24.0531202 35.90099592 25.29732034 42.97441523 26.625 50.375 C27.05213461 52.71661295 27.48169568 55.05778501 27.9140625 57.3984375 C28.0992041 58.42630371 28.2843457 59.45416992 28.47509766 60.51318359 C28.88752643 62.9857629 28.88752643 62.9857629 30 65 C32.01669827 66.13350534 32.01669827 66.13350534 34 67 C34 67.66 34 68.32 34 69 C34.86625 69.185625 34.86625 69.185625 35.75 69.375 C38 70 38 70 39.7890625 70.96875 C48.55850278 75.05908964 59.92271627 74.20636797 69.375 74.25 C70.49213379 74.25918457 71.60926758 74.26836914 72.76025391 74.27783203 C82.47286741 74.65199059 82.47286741 74.65199059 91 71 C92.38473825 70.80803005 93.77790888 70.67619424 95.171875 70.5703125 C96.05415771 70.4986084 96.93644043 70.4269043 97.84545898 70.35302734 C98.80395752 70.27777832 99.76245605 70.2025293 100.75 70.125 C109.56930971 69.38963448 118.29069285 68.34548762 127.03222656 66.96533203 C131.75658431 66.23785958 136.21913829 65.85844016 141 66 C141.0825 65.0925 141.165 64.185 141.25 63.25 C142.12131932 59.47428296 142.81249593 58.18092383 146 56 C149.625 55.5625 149.625 55.5625 153 56 C155.4294516 59.6441774 155.16179575 61.71241272 155 66 C156.11375 66.0928125 156.11375 66.0928125 157.25 66.1875 C160.97501049 67.28807128 162.0467078 68.67216884 164 72 C164.64098532 75.46132073 164.6349196 77.7034835 163.0703125 80.8984375 C158.80810825 86.87561151 152.93403087 87.82188796 146 89 C146.33 89.66 146.66 90.32 147 91 C147.34708476 96.29304255 147.51351894 99.73358414 144 104 C141.24544558 106.16429276 139.94563262 105.99625053 136.375 105.75 C133 105 133 105 131 103 C127.52518877 103.34066777 124.21021582 103.95053745 120.8125 104.75 C114.28238176 105.17820447 107.46630271 103.64420181 102 100 C101.731875 100.721875 101.46375 101.44375 101.1875 102.1875 C99.99977466 105.00053369 98.63421214 107.42297317 97 110 C96.34 111.093125 95.68 112.18625 95 113.3125 C94.34 114.199375 93.68 115.08625 93 116 C92.01 116 91.02 116 90 116 C90 119.63 90 123.26 90 127 C87.5821288 127.10826289 85.16912444 127.18739789 82.75 127.25 C82.06808594 127.28351563 81.38617188 127.31703125 80.68359375 127.3515625 C77.27222109 127.41780275 75.36828881 127.26849442 72.578125 125.234375 C70.03788668 121.63779996 70 119.41294208 70 115 C71.3125 112.625 71.3125 112.625 74 111 C75.64262333 110.76770983 77.28910448 110.56198218 78.9375 110.375 C82.3251178 109.83537947 83.5816623 109.53380648 85.7265625 106.796875 C87.6725719 102.9048562 88.94350821 99.22596715 90 95 C57.33 95 24.66 95 -9 95 C-3.42410722 104.81390544 -3.42410722 104.81390544 5.5625 109.0625 C6.32691406 109.17722656 7.09132813 109.29195313 7.87890625 109.41015625 C10.45741053 110.12719888 11.44694566 110.82377652 13 113 C13.76129634 117.40357688 13.46435076 121.66499157 12 125.875 C8.33947519 129.76430762 4.0768999 131.71493531 -1.1875 132.4375 C-4.55485577 131.9136891 -6.43259397 131.26535826 -9 129 C-9.608676 125.42402849 -9.44405832 123.70309234 -7.5 120.625 C-7.005 120.08875 -6.51 119.5525 -6 119 C-7.36125 118.13375 -7.36125 118.13375 -8.75 117.25 C-12 115 -12 115 -13.875 113 C-16.40578502 110.61808469 -18.99218294 109.4677162 -22.12109375 108.015625 C-24 107 -24 107 -26.0625 104.75 C-28.00120195 102.64614188 -28.00120195 102.64614188 -31.5 102.6875 C-34.75588451 102.88250959 -34.75588451 102.88250959 -36.88378906 103.48608398 C-39.38046544 104.09239499 -41.79907089 104.31973543 -44.359375 104.53515625 C-45.39320312 104.62216797 -46.42703125 104.70917969 -47.4921875 104.79882812 C-48.56726563 104.88583984 -49.64234375 104.97285156 -50.75 105.0625 C-52.33941406 105.19881836 -52.33941406 105.19881836 -53.9609375 105.33789062 C-59.6630248 105.8083482 -65.27895985 106.10364203 -71 106 C-70.87625 107.1446875 -70.87625 107.1446875 -70.75 108.3125 C-71 111 -71 111 -72.5625 112.8125 C-76.00570514 114.48995891 -78.20740642 114.52311636 -82 114 C-84.97046873 112.20976215 -87.42502414 110.14995172 -89 107 C-89.04003069 101.57984419 -88.83046319 96.59941058 -86.3125 91.75 C-84 90 -84 90 -80.9375 89.5625 C-78 90 -78 90 -75 92 C-71.87478167 92.16699232 -71.87478167 92.16699232 -69 92 C-69.72445312 91.58492188 -70.44890625 91.16984375 -71.1953125 90.7421875 C-78.70006872 85.9591562 -83.24901998 80.97977733 -85.57519531 72.234375 C-88.11582969 58.87122224 -87.43378169 42.69781812 -80.125 31 C-75.31597162 24.45830698 -68.88471281 20.2211782 -61 18.25 C-60.34 18.1675 -59.68 18.085 -59 18 C-59.0825 17.01 -59.165 16.02 -59.25 15 C-59.27825307 10.38533109 -57.35366383 6.87551072 -55 3 C-54 2 -54 2 -51.25 1.5625 C-48 2 -48 2 -45.125 4.625 C-42.86145693 8.220039 -42.50651825 9.85475329 -43 14 C-42.01515625 13.51144531 -41.0303125 13.02289063 -40.015625 12.51953125 C-35.86652466 10.7447776 -32.21315219 10.58341529 -27.75 10.6875 C-27.04359375 10.68427734 -26.3371875 10.68105469 -25.609375 10.67773438 C-21.87841778 10.71659851 -20.17544109 10.88303927 -17 13 C-17.103125 11.948125 -17.20625 10.89625 -17.3125 9.8125 C-17 6 -17 6 -14.625 3.125 C-9.95602068 -0.65464993 -5.87185943 -0.75418378 0 0 Z M-14 8 C-14.11745427 10.88830721 -13.63072433 13.1374819 -13 16 C-14.99954746 16.04254356 -17.00041636 16.04080783 -19 16 C-19.495 15.505 -19.495 15.505 -20 15 C-22.69956731 14.87173327 -25.36230563 14.81477098 -28.0625 14.8125 C-29.17141602 14.79413086 -29.17141602 14.79413086 -30.30273438 14.77539062 C-35.5209834 14.76169443 -39.98355907 15.55941027 -45 17 C-44.896875 15.783125 -44.79375 14.56625 -44.6875 13.3125 C-44.65408479 9.54994773 -44.90669702 9.11196358 -47.5 6 C-48.325 5.34 -49.15 4.68 -50 4 C-52.93576279 5.012332 -53.97512741 5.96357942 -55.75 8.5625 C-57.30903894 12.84985708 -57.27038392 16.49360134 -57 21 C-57.61746094 21.06316406 -58.23492187 21.12632812 -58.87109375 21.19140625 C-67.16275861 22.39035322 -72.69259035 25.70815793 -77.82421875 32.3671875 C-83.13683346 40.62553773 -84.35929341 48.87938845 -84.375 58.5625 C-84.39949219 59.36107422 -84.42398438 60.15964844 -84.44921875 60.98242188 C-84.47822081 66.91334285 -83.03787215 70.94837051 -80 76 C-79.4225 77.010625 -78.845 78.02125 -78.25 79.0625 C-73.44827594 85.33141753 -68.86530636 89.37323985 -61 91 C-57.5147498 91.21793728 -54.0526889 91.19033111 -50.5625 91.125 C-49.64017578 91.11597656 -48.71785156 91.10695313 -47.76757812 91.09765625 C-45.51144191 91.0742766 -43.25586316 91.04150916 -41 91 C-41 91.66 -41 92.32 -41 93 C-41.61101562 93.04898438 -42.22203125 93.09796875 -42.8515625 93.1484375 C-44.22441406 93.26058594 -44.22441406 93.26058594 -45.625 93.375 C-46.69878906 93.46007812 -47.77257812 93.54515625 -48.87890625 93.6328125 C-52.12277452 93.9058236 -55.35469076 94.25573608 -58.58984375 94.6171875 C-59.57194824 94.72111816 -60.55405273 94.82504883 -61.56591797 94.93212891 C-63.55203489 95.142812 -65.53683792 95.36630284 -67.52001953 95.60302734 C-68.90423096 95.74538818 -68.90423096 95.74538818 -70.31640625 95.890625 C-71.14599854 95.98375977 -71.97559082 96.07689453 -72.83032227 96.17285156 C-75.59130283 95.95289272 -76.20628802 95.01820699 -78 93 C-80.5 92.41666667 -80.5 92.41666667 -83 93 C-86.14466651 95.69542844 -86.75556307 99.06215009 -87.140625 103.03125 C-86.91058949 106.25174707 -85.27488664 107.85510688 -83 110 C-80.23749964 111.38125018 -78.05268901 111.19079306 -75 111 C-72.71271266 109.16116119 -72.71271266 109.16116119 -72.875 106.375 C-72.91625 105.59125 -72.9575 104.8075 -73 104 C-68.09301872 103.44644512 -63.18578526 102.89519777 -58.27832031 102.34594727 C-56.61418925 102.15938333 -54.95012473 101.97222474 -53.28613281 101.78442383 C-43.8663818 100.72172629 -34.45507155 99.70337653 -25 99 C-25.495 100.485 -25.495 100.485 -26 102 C-25.04738281 102.60328125 -24.09476563 103.2065625 -23.11328125 103.828125 C-21.846258 104.63526573 -20.5793363 105.44256588 -19.3125 106.25 C-18.68666016 106.64574219 -18.06082031 107.04148437 -17.41601562 107.44921875 C-13.7613735 109.78359749 -10.38513619 112.28235546 -7 115 C-4.3205355 116.24016669 -4.3205355 116.24016669 -2 117 C-2 117.99 -2 118.98 -2 120 C-4.5 122.1875 -4.5 122.1875 -7 124 C-6.67 125.32 -6.34 126.64 -6 128 C-0.19388201 129.24079022 -0.19388201 129.24079022 5.3125 127.4375 C8.29840763 124.72935122 9.70331936 122.81376658 11 119 C10.78892707 115.72114468 10.78892707 115.72114468 10 113 C9.09507812 112.92652344 9.09507812 112.92652344 8.171875 112.8515625 C6.97304687 112.73941406 6.97304687 112.73941406 5.75 112.625 C4.96109375 112.55539062 4.1721875 112.48578125 3.359375 112.4140625 C0.82346675 111.969019 -0.85285884 111.42225162 -3 110 C-4.03125 108.23046875 -4.03125 108.23046875 -5 106 C-6.14489576 104.09094033 -7.31319795 102.19579393 -8.5 100.3125 C-9.1084375 99.33925781 -9.716875 98.36601562 -10.34375 97.36328125 C-11.78368551 94.9099091 -11.78368551 94.9099091 -14 94 C-14 93.34 -14 92.68 -14 92 C-3.14021225 91.86762326 7.71959646 91.73712683 18.57943344 91.60884857 C23.62539503 91.54918961 28.67134812 91.48895011 33.71728516 91.42724609 C56.14567231 91.15340087 78.56960355 90.90391302 101 91 C101 91.99 101 92.98 101 94 C98.36 94 95.72 94 93 94 C91.66087415 97.12254943 90.32969342 100.24842358 89 103.375 C88.6184375 104.26445312 88.236875 105.15390625 87.84375 106.0703125 C87.30234375 107.34648437 87.30234375 107.34648437 86.75 108.6484375 C86.41484375 109.43395996 86.0796875 110.21948242 85.734375 111.02880859 C84.88362899 112.96176935 84.88362899 112.96176935 85 115 C84.34 114.67 83.68 114.34 83 114 C81.50350638 113.87994547 80.00125207 113.82468549 78.5 113.8125 C77.30890625 113.79123047 77.30890625 113.79123047 76.09375 113.76953125 C73.77966683 113.80333697 73.77966683 113.80333697 72 116 C72.35263785 120.50317123 72.35263785 120.50317123 75 124 C78.12814514 124.24360073 78.12814514 124.24360073 81.625 124.125 C82.81351563 124.10695313 84.00203125 124.08890625 85.2265625 124.0703125 C86.14179688 124.04710937 87.05703125 124.02390625 88 124 C88 122.865625 88 121.73125 88 120.5625 C88.60021565 115.43338445 91.46360821 112.73691201 94.9921875 109.17578125 C97.06663274 106.92779293 98.46915101 104.63743412 100 102 C100.66 101.34 101.32 100.68 102 100 C102.16687448 97.41645782 102.16687448 97.41645782 102 95 C102.99 95 103.98 95 105 95 C105.13728516 95.93585938 105.13728516 95.93585938 105.27734375 96.890625 C105.88084822 99.46196337 105.88084822 99.46196337 109.5625 100.75 C115.78585806 102.79099377 120.94468976 102.61851253 127 100 C129.625 99.6875 129.625 99.6875 132 100 C132.45375 100.515625 132.9075 101.03125 133.375 101.5625 C135.07544706 103.39301907 135.07544706 103.39301907 138.5 102.9375 C141.97336139 102.283069 141.97336139 102.283069 144 100.25 C145.27491703 97.38143668 145.02973923 95.93079626 144 93 C143.34 92.67 142.68 92.34 142 92 C141.375 89.9375 141.375 89.9375 141 88 C137.59679066 87.32326553 137.59679066 87.32326553 134 87 C133.34 87.66 132.68 88.32 132 89 C132 90.32 132 91.64 132 93 C131.29617188 92.97679687 130.59234375 92.95359375 129.8671875 92.9296875 C121.74136471 92.78117377 114.0095484 93.67297423 106 95 C106.33 94.34 106.66 93.68 107 93 C109.3359375 92.4375 109.3359375 92.4375 112.375 92 C113.45265625 91.83371094 114.5303125 91.66742188 115.640625 91.49609375 C117.81753709 91.17461952 119.99461095 90.85423805 122.171875 90.53515625 C123.14640625 90.37917969 124.1209375 90.22320312 125.125 90.0625 C126.01445312 89.92972656 126.90390625 89.79695313 127.8203125 89.66015625 C130.36457444 89.14164055 130.36457444 89.14164055 132 86 C135.0546875 85.84765625 135.0546875 85.84765625 138.875 86.0625 C146.04742374 86.28782989 152.5458862 85.41688378 159 82 C160.88943269 80.15402903 160.88943269 80.15402903 162 78 C161.76261647 74.12273569 161.17282078 72.25923117 159 69 C156.79274927 68.63637182 156.79274927 68.63637182 154.375 68.8125 C153.55773437 68.83957031 152.74046875 68.86664063 151.8984375 68.89453125 C150.95871094 68.94673828 150.95871094 68.94673828 150 69 C150.515625 68.29875 151.03125 67.5975 151.5625 66.875 C153.30443767 63.39112465 152.94693195 61.7016431 152 58 C149.37344067 58.35494045 147.42031739 58.72461964 145.1875 60.1875 C143.49614456 62.76904252 143.92227469 64.97689471 144 68 C143.34330322 68.06993164 142.68660645 68.13986328 142.01000977 68.21191406 C114.90597088 71.11838347 114.90597088 71.11838347 88.125 76.10546875 C81.93949263 77.36259083 75.79004047 77.29198025 69.5 77.25 C68.34113281 77.25773437 67.18226563 77.26546875 65.98828125 77.2734375 C59.064598 77.25779076 52.72658882 76.60513772 46 75 C44.66695642 74.74845955 43.33366985 74.49819852 42 74.25 C36.73789319 72.81390568 32.02018244 70.74725262 28 67 C26.11051247 63.15740583 25.63747819 59.20910255 25 55 C24.52831286 52.43227264 24.03219938 49.87039496 23.52685547 47.30908203 C23.1819938 45.55217321 22.84977366 43.79272417 22.53173828 42.03076172 C20.80627018 32.8683645 16.72713182 25.542995 10 19 C7.36435132 17.90511587 5.89764916 17.87926462 3 18 C3.06960937 17.25234375 3.13921875 16.5046875 3.2109375 15.734375 C3.37600201 12.73177294 3.4117566 9.9809462 3 7 C0.02205868 3.95115532 -1.91747284 3.19883152 -6.0625 2.4375 C-10.19694348 3.22920194 -11.62542177 4.54606803 -14 8 Z " fill="#0F0F0F" transform="translate(131,154)"/>
<path d="M0 0 C3 1.125 3 1.125 5 3.6875 C9.32001529 7.19751242 13.01420795 6.59726205 18.4296875 6.49609375 C22.01158558 6.23583078 22.01158558 6.23583078 25.37890625 5.11328125 C29.72194312 3.92796482 33.58676641 3.82463072 38.0625 3.875 C38.917229 3.87959229 39.77195801 3.88418457 40.65258789 3.88891602 C51.61101098 4.03859687 63.01807355 4.52413677 73.78515625 6.68359375 C80.82494371 8.0865849 88.40862453 7.17685983 95.53857422 6.76416016 C105.97627002 6.1740504 116.4101612 5.95654549 126.86279297 5.89282227 C128.52755234 5.88101202 130.19228348 5.86398605 131.85693359 5.84155273 C134.22511537 5.81141051 136.59258459 5.80161354 138.9609375 5.796875 C139.6675351 5.78456848 140.37413269 5.77226196 141.10214233 5.75958252 C146.17862453 5.78191008 149.57350682 6.81558656 154 9.125 C155.125 11.0625 155.125 11.0625 156 13.125 C157.65788785 14.46923339 159.32576317 15.80118483 161 17.125 C166.84894313 23.54457172 170.43621605 29.48716048 171.3125 38.25 C170.50377503 48.27818958 165.21584103 59.73516824 158.5 67.25 C153.59544727 70.92841455 147.51979135 70.25205331 141.61328125 70.1875 C140.79796432 70.18371338 139.9826474 70.17992676 139.1426239 70.17602539 C135.69405414 70.15997515 132.245609 70.13260761 128.79711914 70.10449219 C119.32798193 70.03416536 109.89614519 70.09692316 100.43473816 70.52130127 C85.70750233 71.18117987 71.09029734 71.04011423 56.35986328 70.51074219 C52.44729389 70.37314645 48.53447789 70.26017907 44.62109375 70.1484375 C42.09109647 70.06396567 39.56114587 69.97808136 37.03125 69.890625 C35.88217163 69.85922424 34.73309326 69.82782349 33.54919434 69.79547119 C23.3765977 69.39496198 11.83441329 68.06975681 4.34765625 60.44140625 C-1.82681152 52.93844664 -3.0637654 44.33844549 -4.4609375 34.97265625 C-4.94344294 32.42376882 -5.62919869 30.37782463 -6.625 28 C-8.28641092 23.3583262 -8.40171748 18.75701372 -8.5 13.875 C-8.5304541 13.09366699 -8.5609082 12.31233398 -8.59228516 11.50732422 C-8.59503932 7.23378247 -8.35530653 5.58571414 -5.65625 2.0859375 C-3 0.125 -3 0.125 0 0 Z M-2 3.125 C-5.34219637 6.76799404 -5.86682069 9.94781704 -6.19921875 14.7578125 C-5.95003152 18.96956534 -5.0251107 22.72175764 -3.8125 26.75 C-3.60431641 27.46124023 -3.39613281 28.17248047 -3.18164062 28.90527344 C-2.48498439 31.15772482 -2.48498439 31.15772482 -1 34.125 C1.05763303 35.20031087 1.05763303 35.20031087 3 35.125 C3 33.805 3 32.485 3 31.125 C3.99 31.125 4.98 31.125 6 31.125 C6.1546875 30.01125 6.1546875 30.01125 6.3125 28.875 C7.04253504 25.95485982 8.06789398 24.39312446 10 22.125 C9.39050431 26.2695707 7.96084772 29.4386063 6 33.125 C5.690625 33.8675 5.38125 34.61 5.0625 35.375 C3.7196378 37.58677303 2.28882417 38.01750443 0 39.125 C-1.80310102 44.53430306 0.85118344 50.03032809 3 55.125 C4.89597259 57.55165194 6.29919246 58.5397434 9 60.125 C9.66 60.125 10.32 60.125 11 60.125 C11 60.785 11 61.445 11 62.125 C21.26154022 65.59645722 30.67541799 66.20126388 41.4375 66.25 C42.77143799 66.25713013 42.77143799 66.25713013 44.13232422 66.2644043 C45.39520264 66.26114136 45.39520264 66.26114136 46.68359375 66.2578125 C47.82139282 66.25612061 47.82139282 66.25612061 48.98217773 66.25439453 C51.20626495 66.197839 51.20626495 66.197839 54 65.125 C54.20086443 61.40900809 54.1519437 60.35291555 52 57.125 C52.875 54.4375 52.875 54.4375 54 52.125 C53.01 51.135 52.02 50.145 51 49.125 C51.680625 48.568125 52.36125 48.01125 53.0625 47.4375 C55.28097119 45.29246056 55.28097119 45.29246056 55 42.5 C54.20423043 39.98006227 54.20423043 39.98006227 51.9375 38.8125 C51.298125 38.585625 50.65875 38.35875 50 38.125 C50.495 37.135 50.495 37.135 51 36.125 C52.875 36.75 52.875 36.75 55 38.125 C57.27878599 42.7910856 56.96687605 46.11482411 56 51.125 C54.96234078 57.03965756 55.10030096 61.42590287 57 67.125 C58.95486328 67.10953125 58.95486328 67.10953125 60.94921875 67.09375 C65.58771764 67.09375 70.18493274 67.33249253 74.8125 67.625 C81.91885989 68.03528471 89.0067453 68.23457722 96.125 68.25 C97.43174683 68.25676758 97.43174683 68.25676758 98.76489258 68.26367188 C102.69673607 68.64435259 102.69673607 68.64435259 106 67.125 C108.67250538 67.10412105 111.32900188 67.1313335 114 67.1875 C120.31908812 67.26676106 125.88847363 66.90289858 132 65.125 C132.94125778 61.46455306 133.65698407 57.89817527 134 54.125 C133.34 53.135 132.68 52.145 132 51.125 C133.98 48.155 133.98 48.155 136 45.125 C134.02 43.145 134.02 43.145 132 41.125 C133.32 41.455 134.64 41.785 136 42.125 C136.625 44.5 136.625 44.5 137 47.125 C136.01 48.115 136.01 48.115 135 49.125 C135.165 50.218125 135.33 51.31125 135.5 52.4375 C136.03296631 56.36812655 135.48213276 57.6049347 134 61.125 C134.27701774 62.80194665 134.60458862 64.47196076 135 66.125 C146.213767 67.99624647 146.213767 67.99624647 156.609375 64.953125 C163.05860623 58.23794609 167.90754151 47.33286442 169 38.125 C167.48779932 29.66347263 161.28652745 21.7130244 155 16.125 C154.01 15.63 154.01 15.63 153 15.125 C152.61781233 16.78114657 152.28604898 18.44957024 152 20.125 C152.33 20.455 152.66 20.785 153 21.125 C153.2165625 22.73375 153.2165625 22.73375 153.4375 24.375 C153.82799456 28.02222987 153.82799456 28.02222987 155.125 30.8125 C156.11341176 33.42473109 155.95398577 34.54923842 155 37.125 C152.525 37.62 152.525 37.62 150 38.125 C151 36.125 151 36.125 154 34.125 C153.505 33.238125 153.01 32.35125 152.5 31.4375 C151.05621326 28.24913762 150.69840078 26.54312454 151 23.125 C149.68 22.795 148.36 22.465 147 22.125 C148.98 17.67 148.98 17.67 151 13.125 C145.21350937 9.83307915 141.17561486 8.54587548 134.5625 8.734375 C133.79695801 8.74003479 133.03141602 8.74569458 132.24267578 8.75152588 C129.82777979 8.77369165 127.41443777 8.82384461 125 8.875 C123.35028204 8.89509085 121.70054052 8.91333706 120.05078125 8.9296875 C116.03326695 8.97349057 112.01689574 9.04237398 108 9.125 C108 9.785 108 10.445 108 11.125 C108.99 11.8984375 108.99 11.8984375 110 12.6875 C112.61592046 15.87565306 112.36839565 17.90694411 112.23828125 21.90625 C112 24.125 112 24.125 111.41796875 26.25390625 C110.7829888 28.25792357 110.7829888 28.25792357 112 30.5625 C113.20265703 33.64430863 113.24108827 35.06364894 112 38.125 C109.4375 39.4375 109.4375 39.4375 107 40.125 C108.65 38.145 110.3 36.165 112 34.125 C111.484375 33.238125 110.96875 32.35125 110.4375 31.4375 C108.8982735 27.89058677 108.80781918 26.70154245 110 23.125 C110.33 22.465 110.66 21.805 111 21.125 C110.01 21.125 109.02 21.125 108 21.125 C108.33 20.526875 108.66 19.92875 109 19.3125 C110.20787988 17.07113529 110.20787988 17.07113529 110 14.125 C107.17159994 11.10586005 105.50626342 10.18930472 101.37109375 9.6640625 C100.07300781 9.69242188 98.77492188 9.72078125 97.4375 9.75 C96.13683594 9.76289063 94.83617187 9.77578125 93.49609375 9.7890625 C90.3697929 10.08946683 88.60753355 10.46626365 86 12.125 C86.99 13.61 86.99 13.61 88 15.125 C87.67873872 17.75934254 87.18644952 19.75210097 86 22.125 C85.98012522 23.72917883 86.0072121 25.33415101 86.0625 26.9375 C86.10140325 30.78336422 85.97921869 33.7163456 84 37.125 C83.01 37.62 83.01 37.62 82 38.125 C82.350625 37.01125 82.70125 35.8975 83.0625 34.75 C84.37239331 31.32235524 84.37239331 31.32235524 83 29.125 C83.27942455 27.44845271 83.60828247 25.77891846 84 24.125 C83.01 24.125 82.02 24.125 81 24.125 C82.11179163 20.78962511 83.47411298 19.48792656 86 17.125 C85.06231164 14.06991079 85.06231164 14.06991079 83 11.125 C80.19158076 10.27670567 78.0869318 9.88391153 75.21875 9.6640625 C74.45002563 9.58376801 73.68130127 9.50347351 72.88928223 9.42074585 C70.42796038 9.17084665 67.96495857 8.9606349 65.5 8.75 C63.87214879 8.58708532 62.24453837 8.42174521 60.6171875 8.25390625 C52.40218153 7.43603507 44.26393848 6.85612325 36 7.125 C36.495 8.115 36.495 8.115 37 9.125 C37.31337847 14.66135301 36.4386757 18.2476486 34 23.125 C34.185625 23.74375 34.37125 24.3625 34.5625 25 C35 27.125 35 27.125 34.0625 28.875 C32.44610496 32.2979542 32.87464081 35.36422443 33 39.125 C32.01 39.455 31.02 39.785 30 40.125 C29.67 39.795 29.34 39.465 29 39.125 C29.7734375 38.63 29.7734375 38.63 30.5625 38.125 C32.33834722 35.65425604 32.02853971 34.98054407 31.5625 32.0625 C31.2840625 30.1134375 31.2840625 30.1134375 31 28.125 C31.66 27.465 32.32 26.805 33 26.125 C32.6730244 23.50919521 32.17960932 21.48421863 31 19.125 C31.99 19.125 32.98 19.125 34 19.125 C35.4783226 16.16835481 35.06032783 13.38270263 35 10.125 C34.34 10.125 33.68 10.125 33 10.125 C33 9.465 33 8.805 33 8.125 C32.195625 8.23328125 32.195625 8.23328125 31.375 8.34375 C25.8169062 9.00194532 20.27974669 9.28786142 14.6875 9.375 C13.6655957 9.4069043 13.6655957 9.4069043 12.62304688 9.43945312 C8.2150567 9.46979327 5.48757498 8.84391092 2 6.125 C1.34 5.135 0.68 4.145 0 3.125 C-0.66 3.125 -1.32 3.125 -2 3.125 Z " fill="#0F0F0F" transform="translate(433,214.875)"/>
<path d="M0 0 C1.4537075 -0.0100985 1.4537075 -0.0100985 2.93678284 -0.020401 C3.81543503 -0.02132248 4.69408722 -0.02224396 5.59936523 -0.02319336 C6.72350075 -0.02687172 6.72350075 -0.02687172 7.87034607 -0.03062439 C10.00540152 0.09356619 11.88864746 0.50447762 13.94140625 1.08984375 C13.94140625 2.07984375 13.94140625 3.06984375 13.94140625 4.08984375 C11.30140625 4.08984375 8.66140625 4.08984375 5.94140625 4.08984375 C5.54953125 5.32734375 5.15765625 6.56484375 4.75390625 7.83984375 C2.80259448 13.72192297 0.37894446 19.39583157 -2.05859375 25.08984375 C-5.68859375 25.08984375 -9.31859375 25.08984375 -13.05859375 25.08984375 C-14.30897428 28.7874107 -14.30897428 28.7874107 -13.53515625 31.29296875 C-12.11067403 33.41276091 -12.11067403 33.41276091 -9.01953125 33.69921875 C-7.83617187 33.745625 -6.6528125 33.79203125 -5.43359375 33.83984375 C-3.65082031 33.92492187 -3.65082031 33.92492187 -1.83203125 34.01171875 C-0.91679687 34.0375 -0.0015625 34.06328125 0.94140625 34.08984375 C0.77640625 32.95546875 0.61140625 31.82109375 0.44140625 30.65234375 C0.40347476 26.37367221 1.90427755 24.50724084 4.75390625 21.40234375 C5.46160156 20.69722656 6.16929687 19.99210937 6.8984375 19.265625 C9.03807538 17.14334244 9.03807538 17.14334244 10.515625 14.4453125 C11.94140625 12.08984375 11.94140625 12.08984375 14.94140625 10.08984375 C13.6018739 13.69627699 12.0008116 16.84231993 9.94140625 20.08984375 C9.28140625 21.18296875 8.62140625 22.27609375 7.94140625 23.40234375 C7.28140625 24.28921875 6.62140625 25.17609375 5.94140625 26.08984375 C4.95140625 26.08984375 3.96140625 26.08984375 2.94140625 26.08984375 C2.94140625 29.71984375 2.94140625 33.34984375 2.94140625 37.08984375 C0.52353505 37.19810664 -1.88946931 37.27724164 -4.30859375 37.33984375 C-5.33146484 37.39011719 -5.33146484 37.39011719 -6.375 37.44140625 C-9.78637266 37.5076465 -11.69030494 37.35833817 -14.48046875 35.32421875 C-17.02070707 31.72764371 -17.05859375 29.50278583 -17.05859375 25.08984375 C-15.74609375 22.71484375 -15.74609375 22.71484375 -13.05859375 21.08984375 C-11.41597042 20.85755358 -9.76948927 20.65182593 -8.12109375 20.46484375 C-4.73347595 19.92522322 -3.47693145 19.62365023 -1.33203125 16.88671875 C0.61397815 12.99469995 1.88491446 9.3158109 2.94140625 5.08984375 C-29.39859375 5.08984375 -61.73859375 5.08984375 -95.05859375 5.08984375 C-95.38859375 4.42984375 -95.71859375 3.76984375 -96.05859375 3.08984375 C-95.34832031 3.02925781 -94.63804688 2.96867188 -93.90625 2.90625 C-92.52759766 2.78056641 -92.52759766 2.78056641 -91.12109375 2.65234375 C-90.20457031 2.57113281 -89.28804687 2.48992187 -88.34375 2.40625 C-86.09699643 2.32939399 -86.09699643 2.32939399 -85.05859375 1.08984375 C-82.977749 0.96580294 -80.89270936 0.91182403 -78.80834961 0.88452148 C-77.82720184 0.86967209 -77.82720184 0.86967209 -76.82623291 0.85452271 C-74.6420053 0.82271519 -72.45775749 0.79802012 -70.2734375 0.7734375 C-68.74051909 0.75282956 -67.20760588 0.73183219 -65.67469788 0.71046448 C-62.438843 0.66636515 -59.2029691 0.62550521 -55.96704102 0.5871582 C-51.89371499 0.53885395 -47.82048732 0.48509938 -43.74725914 0.42920494 C-29.16560296 0.22955953 -14.58300864 0.05323324 0 0 Z " fill="#212121" transform="translate(218.05859375,243.91015625)"/>
<path d="M0 0 C2.4294516 3.6441774 2.16179575 5.71241272 2 10 C2.7425 10.061875 3.485 10.12375 4.25 10.1875 C7.97501049 11.28807128 9.0467078 12.67216884 11 16 C11.64098532 19.46132073 11.6349196 21.7034835 10.0703125 24.8984375 C5.80810825 30.87561151 -0.06596913 31.82188796 -7 33 C-6.67 33.66 -6.34 34.32 -6 35 C-5.65291524 40.29304255 -5.48648106 43.73358414 -9 48 C-11.75455442 50.16429276 -13.05436738 49.99625053 -16.625 49.75 C-20 49 -20 49 -22 47 C-25.47481123 47.34066777 -28.78978418 47.95053745 -32.1875 48.75 C-38.71761824 49.17820447 -45.53369729 47.64420181 -51 44 C-51.1875 41.375 -51.1875 41.375 -51 39 C-50.01 39 -49.02 39 -48 39 C-47.814375 39.61875 -47.62875 40.2375 -47.4375 40.875 C-45.21655969 44.15812915 -42.81113595 44.26236078 -39 45 C-34.18650477 45.43759048 -30.44378888 44.92163843 -26 43 C-23.375 42.6875 -23.375 42.6875 -21 43 C-20.319375 43.7734375 -20.319375 43.7734375 -19.625 44.5625 C-17.91638213 46.40632507 -17.91638213 46.40632507 -14.4375 45.875 C-10.74557606 45.34366067 -10.74557606 45.34366067 -9 42 C-9 40.68 -9 39.36 -9 38 C-9.99 37.34 -10.98 36.68 -12 36 C-12 34.68 -12 33.36 -12 32 C-14.31 32 -16.62 32 -19 32 C-19.99 34.475 -19.99 34.475 -21 37 C-24.02038089 37.33794471 -27.04119756 37.67048433 -30.0625 38 C-30.91005859 38.09539062 -31.75761719 38.19078125 -32.63085938 38.2890625 C-37.45472589 38.81056158 -42.14836264 39.10532727 -47 39 C-46.67 38.01 -46.34 37.02 -46 36 C-44.125 35.6875 -42.25 35.375 -40.375 35.0625 C-39.33085937 34.88847656 -38.28671875 34.71445313 -37.2109375 34.53515625 C-36.15132812 34.35855469 -35.09171875 34.18195313 -34 34 C-32.9378125 33.814375 -31.875625 33.62875 -30.78125 33.4375 C-28.13339658 33.02098373 -25.67462044 32.92133469 -23 33 C-22.34 31.68 -21.68 30.36 -21 29 C-20.05640625 29.04640625 -19.1128125 29.0928125 -18.140625 29.140625 C-9.53743447 29.38248176 -1.87204942 29.00978326 6 25 C8.34111027 22.17941514 8.34111027 22.17941514 7.6875 19 C7.04448305 15.97290882 7.04448305 15.97290882 6 13 C3.03 13 0.06 13 -3 13 C-2.67 12.29875 -2.34 11.5975 -2 10.875 C-0.90955438 7.73996884 -0.84677357 5.29436818 -1 2 C-3.91517292 3.07401108 -5.77810176 3.77810176 -8 6 C-8.39764263 7.98821313 -8.73775349 9.98944339 -9 12 C-12.63 12.66 -16.26 13.32 -20 14 C-19.67 12.68 -19.34 11.36 -19 10 C-16.69 10 -14.38 10 -12 10 C-11.9175 9.0925 -11.835 8.185 -11.75 7.25 C-10.19190563 0.49825771 -6.6501055 -0.86205071 0 0 Z " fill="#0C0C0C" transform="translate(284,210)"/>
<path d="M0 0 C4.95 0.33 9.9 0.66 15 1 C15 1.33 15 1.66 15 2 C10.545 2.495 10.545 2.495 6 3 C6.33153884 8.30462144 9.46112316 12.2456412 13 16 C15.74113223 17.67934979 17.27683599 18.0339974 20.5625 18.4375 C24.15570392 19.02547882 24.9217744 19.18974269 27 22 C27.76129634 26.40357688 27.46435076 30.66499157 26 34.875 C22.33947519 38.76430762 18.0768999 40.71493531 12.8125 41.4375 C9.48072276 40.91922354 7.57243713 40.19413755 5 38 C4.6875 35.3125 4.6875 35.3125 5 33 C5.99 32.505 5.99 32.505 7 32 C7.33 33.32 7.66 34.64 8 36 C13.49541888 37.10722149 13.49541888 37.10722149 18.8125 35.9375 C21.56468184 33.49985323 22.71734522 31.44291546 24 28 C24.25196823 24.74899636 24.25196823 24.74899636 24 22 C23.40832031 22.05800781 22.81664062 22.11601562 22.20703125 22.17578125 C15.73291984 22.54542872 15.73291984 22.54542872 12.3125 20 C11.549375 19.01 10.78625 18.02 10 17 C9.484375 16.34902344 8.96875 15.69804687 8.4375 15.02734375 C4.37254993 9.79958344 4.37254993 9.79958344 3.01171875 6.87890625 C2.01103101 4.66818908 2.01103101 4.66818908 -1 3 C-0.67 2.01 -0.34 1.02 0 0 Z " fill="#0D0D0D" transform="translate(117,245)"/>
<path d="M0 0 C0.33 0.66 0.66 1.32 1 2 C0.14453125 3.734375 0.14453125 3.734375 -1.1875 5.75 C-1.88552734 6.80960937 -1.88552734 6.80960937 -2.59765625 7.890625 C-3.06042969 8.58671875 -3.52320313 9.2828125 -4 10 C-4.55494141 10.92039062 -4.55494141 10.92039062 -5.12109375 11.859375 C-6.125 13.5 -6.125 13.5 -8 16 C-8.99 16 -9.98 16 -11 16 C-11 19.63 -11 23.26 -11 27 C-13.4178712 27.10826289 -15.83087556 27.18739789 -18.25 27.25 C-19.27287109 27.30027344 -19.27287109 27.30027344 -20.31640625 27.3515625 C-23.72777891 27.41780275 -25.63171119 27.26849442 -28.421875 25.234375 C-30.96211332 21.63779996 -31 19.41294208 -31 15 C-29.6875 12.625 -29.6875 12.625 -27 11 C-24.45360836 10.35091978 -21.93948072 9.8752919 -19.33984375 9.4921875 C-16.74352283 9.09735466 -16.74352283 9.09735466 -14 7 C-14.875 12.75 -14.875 12.75 -16 15 C-19.63 15 -23.26 15 -27 15 C-28.25038053 18.69756695 -28.25038053 18.69756695 -27.4765625 21.203125 C-26.05208028 23.32291716 -26.05208028 23.32291716 -22.9609375 23.609375 C-21.18589844 23.67898438 -21.18589844 23.67898438 -19.375 23.75 C-17.59222656 23.83507812 -17.59222656 23.83507812 -15.7734375 23.921875 C-14.40058594 23.96054687 -14.40058594 23.96054687 -13 24 C-13.165 22.865625 -13.33 21.73125 -13.5 20.5625 C-13.53793149 16.28382846 -12.0371287 14.41739709 -9.1875 11.3125 C-8.47980469 10.60738281 -7.77210938 9.90226562 -7.04296875 9.17578125 C-4.93511892 6.93090103 -3.53733881 4.65620431 -2 2 C-1.34 1.34 -0.68 0.68 0 0 Z " fill="#0C0C0C" transform="translate(232,254)"/>
<path d="M0 0 C1.50433594 0.01353516 1.50433594 0.01353516 3.0390625 0.02734375 C3.80992188 0.03894531 4.58078125 0.05054688 5.375 0.0625 C5.705 1.0525 6.035 2.0425 6.375 3.0625 C5.14523438 3.11857422 5.14523438 3.11857422 3.890625 3.17578125 C2.81296875 3.24152344 1.7353125 3.30726563 0.625 3.375 C-0.44234375 3.43300781 -1.5096875 3.49101562 -2.609375 3.55078125 C-5.8071068 4.09340154 -7.25098691 4.91321145 -9.625 7.0625 C-9.07402718 14.06730391 -9.07402718 14.06730391 -5.625 20.0625 C-1.4844667 22.22669889 2.0662138 22.27387918 6.6875 22.1875 C7.94175781 22.16945312 9.19601563 22.15140625 10.48828125 22.1328125 C11.44089844 22.10960937 12.39351562 22.08640625 13.375 22.0625 C13.375 23.0525 13.375 24.0425 13.375 25.0625 C7.6075928 26.70654251 1.19255638 27.02763949 -4.5 24.9375 C-9.020409 22.2252546 -10.97906689 19.00029932 -12.625 14.0625 C-13.01957593 11.00171818 -13.13257589 8.11347245 -12.625 5.0625 C-8.61180415 0.83808332 -5.66155708 -0.06583206 0 0 Z " fill="#0C0C0C" transform="translate(79.625,192.9375)"/>
<path d="M0 0 C-0.33 0.66 -0.66 1.32 -1 2 C-2.32 2 -3.64 2 -5 2 C-5 2.66 -5 3.32 -5 4 C-4.360625 4.2475 -3.72125 4.495 -3.0625 4.75 C-1 6 -1 6 -0.25 7.6875 C0.16708565 11.54554222 0.47927342 15.37047037 -0.625 19.125 C-1.21518521 21.13431286 -1.21518521 21.13431286 0.0625 23.375 C1 26 1 26 0.4375 29.1875 C-1 32 -1 32 -3.625 33.375 C-4.40875 33.58125 -5.1925 33.7875 -6 34 C-6 31 -6 31 -4 28.8125 C-3.01 27.9153125 -3.01 27.9153125 -2 27 C-2.515625 26.113125 -3.03125 25.22625 -3.5625 24.3125 C-5.08979002 20.79309257 -5.21675714 19.548875 -4 16 C-3.67 15.67 -3.34 15.34 -3 15 C-3.66 14.67 -4.32 14.34 -5 14 C-4.42415568 11.61435923 -3.77772405 9.33317216 -3 7 C-8.60944292 3.85871197 -14.68146331 2.77369837 -21 2 C-20.67 1.34 -20.34 0.68 -20 0 C-17.22949974 -0.1946838 -14.45886998 -0.38102792 -11.6875 -0.5625 C-10.90181641 -0.61857422 -10.11613281 -0.67464844 -9.30664062 -0.73242188 C-8.1706543 -0.80493164 -8.1706543 -0.80493164 -7.01171875 -0.87890625 C-6.31522217 -0.9260376 -5.61872559 -0.97316895 -4.90112305 -1.02172852 C-3 -1 -3 -1 0 0 Z " fill="#030303" transform="translate(546,222)"/>
<path d="M0 0 C-0.33 0.99 -0.66 1.98 -1 3 C-12.73292188 4.89446549 -24.08394997 6.54072832 -36 6 C-35.67 5.01 -35.34 4.02 -35 3 C-34.15179688 2.95101562 -33.30359375 2.90203125 -32.4296875 2.8515625 C-24.95107416 2.37490363 -17.65601031 1.59961442 -10.25390625 0.40234375 C-6.80501021 -0.02411038 -3.47162894 -0.06583367 0 0 Z " fill="#1D1D1D" transform="translate(265,221)"/>
<path d="M0 0 C0.99 0.33 1.98 0.66 3 1 C2.3897536 5.14967549 0.99267393 8.32121736 -1 12 C-1.7115625 13.3921875 -1.7115625 13.3921875 -2.4375 14.8125 C-4 17 -4 17 -6.1875 17.8125 C-6.785625 17.874375 -7.38375 17.93625 -8 18 C-7.67 20.31 -7.34 22.62 -7 25 C-8.32 24.34 -9.64 23.68 -11 23 C-11 19.7 -11 16.4 -11 13 C-8.03 13.495 -8.03 13.495 -5 14 C-5 12.68 -5 11.36 -5 10 C-4.01 10 -3.02 10 -2 10 C-2.226875 9.443125 -2.45375 8.88625 -2.6875 8.3125 C-3.12446199 5.07898125 -1.78001197 3.63441772 0 1 C0 0.67 0 0.34 0 0 Z " fill="#020202" transform="translate(441,236)"/>
<path d="M0 0 C0.66 0.33 1.32 0.66 2 1 C0.125 5.75 0.125 5.75 -1 8 C-0.7215625 8.928125 -0.7215625 8.928125 -0.4375 9.875 C0 12 0 12 -0.9375 13.75 C-2.55389504 17.1729542 -2.12535919 20.23922443 -2 24 C-3.98 24.99 -3.98 24.99 -6 26 C-6.66 25.34 -7.32 24.68 -8 24 C-7.484375 23.67 -6.96875 23.34 -6.4375 23 C-4.66165278 20.52925604 -4.97146029 19.85554407 -5.4375 16.9375 C-5.623125 15.638125 -5.80875 14.33875 -6 13 C-5.34 12.34 -4.68 11.68 -4 11 C-4.32326553 7.40320934 -4.32326553 7.40320934 -5 4 C-4.01 4 -3.02 4 -2 4 C-1.34 2.68 -0.68 1.36 0 0 Z " fill="#000000" transform="translate(469,230)"/>
<path d="M0 0 C0.33 0 0.66 0 1 0 C1.33 4.95 1.66 9.9 2 15 C2.66 15 3.32 15 4 15 C5.32 19.95 6.64 24.9 8 30 C7.34 30 6.68 30 6 30 C5.505 32.475 5.505 32.475 5 35 C4.67 35 4.34 35 4 35 C3.896875 33.865625 3.79375 32.73125 3.6875 31.5625 C3.32311188 28.47055962 2.63850392 25.98588199 1.4375 23.125 C-1.21119158 15.86038475 -0.22162454 7.60910911 0 0 Z " fill="#1C1C1C" transform="translate(425,220)"/>
<path d="M0 0 C0.99 0 1.98 0 3 0 C3.18304688 0.62390625 3.36609375 1.2478125 3.5546875 1.890625 C4.91662203 4.34008964 4.91662203 4.34008964 8.2578125 5.046875 C9.53398437 5.27890625 10.81015625 5.5109375 12.125 5.75 C13.40632812 5.99234375 14.68765625 6.2346875 16.0078125 6.484375 C16.99523437 6.65453125 17.98265625 6.8246875 19 7 C18.67 7.99 18.34 8.98 18 10 C5.33029613 8.25740319 5.33029613 8.25740319 0 5 C0 3.35 0 1.7 0 0 Z " fill="#020202" transform="translate(233,249)"/>
<path d="M0 0 C0.625 1.75 0.625 1.75 1 4 C0.34 5.32 -0.32 6.64 -1 8 C-4.96 8 -8.92 8 -13 8 C-12.67 6.68 -12.34 5.36 -12 4 C-10.95199219 3.81824219 -10.95199219 3.81824219 -9.8828125 3.6328125 C-8.51769531 3.38144531 -8.51769531 3.38144531 -7.125 3.125 C-5.76761719 2.88136719 -5.76761719 2.88136719 -4.3828125 2.6328125 C-1.83494012 2.16955297 -1.83494012 2.16955297 0 0 Z " fill="#272727" transform="translate(217,261)"/>
<path d="M0 0 C0.33 0.99 0.66 1.98 1 3 C-3.51217573 9.18335192 -9.77535116 9.69892854 -17 11 C-16.37109375 9.12890625 -16.37109375 9.12890625 -15 7 C-12.28515625 5.83984375 -12.28515625 5.83984375 -9.0625 4.9375 C-3.89064665 3.50226796 -3.89064665 3.50226796 0 0 Z " fill="#131313" transform="translate(293,232)"/>
<path d="M0 0 C12.87 0.495 12.87 0.495 26 1 C26 1.66 26 2.32 26 3 C17.75 3 9.5 3 1 3 C0.67 2.01 0.34 1.02 0 0 Z " fill="#000000" transform="translate(72,228)"/>
<path d="M0 0 C3.3 0 6.6 0 10 0 C10 0.33 10 0.66 10 1 C16.6 1.33 23.2 1.66 30 2 C30 2.33 30 2.66 30 3 C19.77 3 9.54 3 -1 3 C-0.67 2.01 -0.34 1.02 0 0 Z " fill="#1F1F1F" transform="translate(546,221)"/>
<path d="M0 0 C-0.33 0.99 -0.66 1.98 -1 3 C-8.92 3.495 -8.92 3.495 -17 4 C-16.67 3.01 -16.34 2.02 -16 1 C-10.61509359 0.08342019 -5.45769811 -0.11138159 0 0 Z " fill="#1D1D1D" transform="translate(85,255)"/>
<path d="M0 0 C0.33 0.66 0.66 1.32 1 2 C-0.39374137 4.82566744 -2.26155675 7.37529156 -4 10 C-4.66 11.134375 -5.32 12.26875 -6 13.4375 C-8 16 -8 16 -10.75 16.875 C-11.4925 16.91625 -12.235 16.9575 -13 17 C-11.57703109 15.10270812 -10.15397863 13.20547983 -8.73046875 11.30859375 C-7.58556873 9.78119892 -6.44231245 8.25257048 -5.30078125 6.72265625 C-4.76839844 6.00980469 -4.23601562 5.29695313 -3.6875 4.5625 C-3.19636719 3.90378906 -2.70523438 3.24507813 -2.19921875 2.56640625 C-1 1 -1 1 0 0 Z " fill="#181818" transform="translate(232,254)"/>
<path d="M0 0 C0.66 0.66 1.32 1.32 2 2 C1.69903201 6.13830989 1.32101984 8.51847024 -1 12 C-1.66 12 -2.32 12 -3 12 C-2.835 10.906875 -2.67 9.81375 -2.5 8.6875 C-1.93281816 5.12474127 -1.93281816 5.12474127 -2 2 C-1.34 1.34 -0.68 0.68 0 0 Z " fill="#000000" transform="translate(518,241)"/>
<path d="M0 0 C0.99 0.33 1.98 0.66 3 1 C0.525 6.94 0.525 6.94 -2 13 C-2.66 12.67 -3.32 12.34 -4 12 C-2.66666667 8 -1.33333333 4 0 0 Z " fill="#0F0F0F" transform="translate(221,249)"/>
<path d="M0 0 C2.31 0 4.62 0 7 0 C7 0.99 7 1.98 7 3 C4.69 3.33 2.38 3.66 0 4 C-0.33 3.34 -0.66 2.68 -1 2 C-0.67 1.34 -0.34 0.68 0 0 Z " fill="#242424" transform="translate(86,215)"/>
<path d="M0 0 C2.31 0 4.62 0 7 0 C7.33 0.99 7.66 1.98 8 3 C5.03 3 2.06 3 -1 3 C-0.67 2.01 -0.34 1.02 0 0 Z " fill="#282828" transform="translate(78,193)"/>
<path d="M0 0 C0.66 0.33 1.32 0.66 2 1 C0.7508258 4.45925163 -0.67527795 7.14693203 -3 10 C-4 7 -4 7 -3.22265625 5.17578125 C-2.1484375 3.45052083 -1.07421875 1.72526042 0 0 Z " fill="#1D1D1D" transform="translate(77,156)"/>
<path d="M0 0 C2.4375 0.8125 2.4375 0.8125 5 2 C5.33 2.99 5.66 3.98 6 5 C3 5 3 5 0.8125 3 C0.214375 2.34 -0.38375 1.68 -1 1 C-0.67 0.67 -0.34 0.34 0 0 Z " fill="#000000" transform="translate(565,255)"/>
<path d="M0 0 C0.33 0 0.66 0 1 0 C0.67 3.3 0.34 6.6 0 10 C-0.66 9.67 -1.32 9.34 -2 9 C-2.25 3.375 -2.25 3.375 0 0 Z " fill="#060606" transform="translate(48,193)"/>
</svg>
