<?xml version="1.0" encoding="UTF-8"?>
<svg version="1.1" xmlns="http://www.w3.org/2000/svg" width="800" height="300">
<path d="M0 0 C264 0 528 0 800 0 C800 99 800 198 800 300 C536 300 272 300 0 300 C0 201 0 102 0 0 Z " fill="#FEFEFE" transform="translate(0,0)"/>
<path d="M0 0 C3.14191176 1.42913347 5.23623147 3.01004992 7 6 C7.26807264 9.17047455 6.81026667 11.93596639 6 15 C6.61746094 15.14953125 7.23492187 15.2990625 7.87109375 15.453125 C11.64153152 16.42167782 13.48773638 17.19219968 15.625 20.5625 C16.305625 21.7690625 16.305625 21.7690625 17 23 C17.66 23.33 18.32 23.66 19 24 C19 24.99 19 25.98 19 27 C19.66 27 20.32 27 21 27 C23.59740547 33.35458269 25.43894707 39.12405476 25.82421875 46.00390625 C25.88333665 48.07252963 25.88333665 48.07252963 27 50 C27.04022391 52.3329866 27.04320247 54.66706666 27 57 C27.66 57 28.32 57 29 57 C29.37125 58.918125 29.37125 58.918125 29.75 60.875 C30.47237979 64.16973713 30.47237979 64.16973713 32.9375 66.3125 C33.618125 66.539375 34.29875 66.76625 35 67 C35.391875 67.4640625 35.78375 67.928125 36.1875 68.40625 C48.01992224 78.81062128 75.40225546 74.32679642 90 74 C90.33 73.01 90.66 72.02 91 71 C91.66418945 70.9498877 92.32837891 70.89977539 93.01269531 70.84814453 C108.69792021 69.72306461 108.69792021 69.72306461 124.2421875 67.44140625 C129.78401525 66.55439983 135.4011092 66.31473055 141 66 C141.13277344 65.23300781 141.26554688 64.46601563 141.40234375 63.67578125 C142.20153866 60.09768638 143.26582165 58.4537498 146 56 C148.80112571 55.57152953 151.14215347 55.76184612 154 56 C155.60725635 59.21451269 155.05748185 62.43612536 155 66 C155.928125 66.103125 156.85625 66.20625 157.8125 66.3125 C161 67 161 67 162.8125 68.0625 C164.80212335 71.30872758 165.51033274 74.27523379 165 78 C162.70708682 82.65204767 159.71432434 85.36245898 154.859375 87.16796875 C151.91312994 87.91151164 149.00064991 88.52699115 146 89 C146.33128906 89.58910156 146.66257812 90.17820312 147.00390625 90.78515625 C148.53517766 94.18998326 147.93627251 96.44216446 147 100 C144.5 102.875 144.5 102.875 142 105 C141.67 105.33 141.34 105.66 141 106 C138.1875 106.25 138.1875 106.25 135 106 C134.401875 105.46375 133.80375 104.9275 133.1875 104.375 C131.15569779 102.76688761 131.15569779 102.76688761 129.10546875 103.28125 C128.00138672 103.57515625 128.00138672 103.57515625 126.875 103.875 C118.4958331 106.08655061 110.91846785 104.0411507 103 101 C102.43732422 101.85271484 102.43732422 101.85271484 101.86328125 102.72265625 C101.35152344 103.49480469 100.83976563 104.26695312 100.3125 105.0625 C99.76851562 105.88878906 99.22453125 106.71507812 98.6640625 107.56640625 C97.25013052 109.63419879 95.75580428 111.55108387 94.1875 113.5 C91.68714176 116.90304348 91.33783224 120.02424933 91.140625 124.1796875 C91 126 91 126 90 127 C87.54507499 127.18063984 85.14495751 127.27801743 82.6875 127.3125 C81.67139648 127.35600586 81.67139648 127.35600586 80.63476562 127.40039062 C77.24380163 127.44348205 75.34887177 127.25531327 72.58203125 125.23046875 C70.03428507 121.63846117 70 119.41277603 70 115 C71.3125 112.625 71.3125 112.625 74 111 C75.64262333 110.76770983 77.28910448 110.56198218 78.9375 110.375 C82.3251178 109.83537947 83.5816623 109.53380648 85.7265625 106.796875 C87.6725719 102.9048562 88.94350821 99.22596715 90 95 C57.66 95 25.32 95 -8 95 C-5.7747348 99.45053041 -4.00098756 102.27463613 -1 106 C-1 106.66 -1 107.32 -1 108 C3.29 108.99 7.58 109.98 12 111 C12 111.66 12 112.32 12 113 C12.66 113 13.32 113 14 113 C14.57904085 122.84369449 14.57904085 122.84369449 11 127 C7.62670451 130.22158643 4.63267401 132.31113203 -0.125 132.5 C-4.02483539 131.99679543 -6.13077439 131.68989901 -9 129 C-9.608676 125.42402849 -9.44405832 123.70309234 -7.5 120.625 C-7.005 120.08875 -6.51 119.5525 -6 119 C-7.36125 118.13375 -7.36125 118.13375 -8.75 117.25 C-12 115 -12 115 -13.8125 113.0625 C-16.55378882 110.47785625 -19.54270679 108.96201421 -22.87890625 107.24609375 C-25 106 -25 106 -26.23046875 104.39941406 C-28.00382589 102.7081297 -28.00382589 102.7081297 -30.90405273 102.93481445 C-32.06880127 103.0762085 -33.2335498 103.21760254 -34.43359375 103.36328125 C-35.72330078 103.50830078 -37.01300781 103.65332031 -38.34179688 103.80273438 C-39.70715859 103.97162996 -41.07239307 104.14155725 -42.4375 104.3125 C-51.66655027 105.42187433 -60.69491466 106.26567216 -70 106 C-70.13148437 106.78761719 -70.26296875 107.57523437 -70.3984375 108.38671875 C-71 111 -71 111 -72.625 112.8125 C-76.03215469 114.51607735 -78.23207391 114.51971394 -82 114 C-84.97046873 112.20976215 -87.42502414 110.14995172 -89 107 C-89.11697217 101.34355994 -88.96841169 96.50958293 -85.875 91.6875 C-83 90 -83 90 -79.25 90.125 C-76 91 -76 91 -75 92 C-73.00041636 92.04080783 -70.99954746 92.04254356 -69 92 C-69.64066406 91.58492188 -70.28132813 91.16984375 -70.94140625 90.7421875 C-78.45267101 85.39139084 -83.79881737 79.12374249 -86 70 C-87.81666829 55.97363085 -87.11856304 40.53667688 -78.53515625 28.83203125 C-76.55094892 26.46410952 -74.58287094 24.70091501 -72 23 C-71.4534375 22.63003906 -70.906875 22.26007813 -70.34375 21.87890625 C-66.41800886 19.39088171 -63.61950014 18.54931706 -59 19 C-59.0825 17.845 -59.165 16.69 -59.25 15.5 C-59.27604655 10.6292957 -57.53385113 7.0806197 -55 3 C-54 2 -54 2 -51.3125 1.5625 C-47.23535029 2.10099147 -45.88871224 3.36710743 -43.19140625 6.33203125 C-41.6503106 8.48956516 -41.15489396 10.36680276 -41 13 C-40.16726562 12.67515625 -39.33453125 12.3503125 -38.4765625 12.015625 C-34.62009989 10.88901795 -31.38660276 10.73392143 -27.375 10.75 C-25.43753906 10.74226562 -25.43753906 10.74226562 -23.4609375 10.734375 C-20.31589796 10.97575501 -18.61376712 11.32825047 -16 13 C-16.0825 11.948125 -16.165 10.89625 -16.25 9.8125 C-15.96269651 5.43112175 -15.05154419 4.05154419 -12 1 C-8.22600007 -0.88699997 -4.10056515 -0.62240721 0 0 Z " fill="#FBFBFB" transform="translate(124,154)"/>
<path d="M0 0 C2.6875 -0.3125 2.6875 -0.3125 6 0 C6.65484375 0.82371094 7.3096875 1.64742187 7.984375 2.49609375 C12.5652212 6.2996202 16.79729447 5.57827168 22.5625 5.375 C23.56474609 5.36082031 24.56699219 5.34664062 25.59960938 5.33203125 C30.47519469 5.2414631 35.34076995 5.04623593 40.20825195 4.75537109 C54.45235002 3.91878154 68.67682983 3.84573931 82.94213867 3.86962891 C85.67653585 3.87416195 88.4108666 3.87421517 91.14526367 3.86962891 C100.43094505 3.85414611 109.7147567 3.89399703 119 4 C120.89718781 4.01987976 120.89718781 4.01987976 122.83270264 4.04016113 C126.4714204 4.08922994 130.10817747 4.16795371 133.74609375 4.2578125 C135.34216209 4.27822098 135.34216209 4.27822098 136.97047424 4.29904175 C147.76141846 4.63593906 157.23194941 7.126133 165.1015625 14.796875 C168.08119031 18.25471468 170.07594107 21.88307979 172 26 C172.5878125 27.06347656 172.5878125 27.06347656 173.1875 28.1484375 C176.97476175 35.43365628 176.77162077 42.60176161 175.375 50.5625 C169.6875 64.78125 169.6875 64.78125 163.4375 67.625 C157.70072769 69.69064707 152.18507829 70.14951793 146.12109375 70.1328125 C145.35992249 70.13413177 144.59875122 70.13545105 143.81451416 70.1368103 C141.35546728 70.1387179 138.89653518 70.13241583 136.4375 70.125 C135.60618561 70.12411377 134.77487122 70.12322754 133.91836548 70.12231445 C121.58858811 70.10680173 109.30284848 69.87542505 97 69 C97 68.34 97 67.68 97 67 C96.29617188 67.16242188 95.59234375 67.32484375 94.8671875 67.4921875 C87.40965184 68.81300444 79.59253259 68.08414043 72.08203125 67.5078125 C66.67319889 67.13155169 61.29977248 66.9117425 55.87890625 66.859375 C21.79509958 66.48121764 21.79509958 66.48121764 10.8125 58.25 C9.32421875 56.69140625 9.32421875 56.69140625 8 55 C7.51144531 54.41089844 7.02289063 53.82179688 6.51953125 53.21484375 C2.55488966 47.4511211 2.40935902 41.64162749 2.45166016 34.85229492 C2.47029608 32.43228376 2.47029608 32.43228376 2 29 C0.13377036 27.1371129 0.13377036 27.1371129 -2 26 C-3.20745835 22.37762495 -3.22246029 19.0229405 -3.25 15.25 C-3.270625 14.5590625 -3.29125 13.868125 -3.3125 13.15625 C-3.35088173 8.05147958 -2.27330153 4.57053254 0 0 Z " fill="#656565" transform="translate(428,216)"/>
<path d="M0 0 C3.14191176 1.42913347 5.23623147 3.01004992 7 6 C7.26807264 9.17047455 6.81026667 11.93596639 6 15 C6.61746094 15.14953125 7.23492187 15.2990625 7.87109375 15.453125 C11.64153152 16.42167782 13.48773638 17.19219968 15.625 20.5625 C16.305625 21.7690625 16.305625 21.7690625 17 23 C17.66 23.33 18.32 23.66 19 24 C19 24.99 19 25.98 19 27 C19.66 27 20.32 27 21 27 C23.59740547 33.35458269 25.43894707 39.12405476 25.82421875 46.00390625 C25.88333665 48.07252963 25.88333665 48.07252963 27 50 C27.04022391 52.3329866 27.04320247 54.66706666 27 57 C27.66 57 28.32 57 29 57 C29.37125 58.918125 29.37125 58.918125 29.75 60.875 C30.47237979 64.16973713 30.47237979 64.16973713 32.9375 66.3125 C33.618125 66.539375 34.29875 66.76625 35 67 C35.391875 67.4640625 35.78375 67.928125 36.1875 68.40625 C48.01992224 78.81062128 75.40225546 74.32679642 90 74 C90.33 73.01 90.66 72.02 91 71 C91.66418945 70.9498877 92.32837891 70.89977539 93.01269531 70.84814453 C108.69792021 69.72306461 108.69792021 69.72306461 124.2421875 67.44140625 C129.78401525 66.55439983 135.4011092 66.31473055 141 66 C141.13277344 65.23300781 141.26554688 64.46601563 141.40234375 63.67578125 C142.20153866 60.09768638 143.26582165 58.4537498 146 56 C148.80112571 55.57152953 151.14215347 55.76184612 154 56 C155.60725635 59.21451269 155.05748185 62.43612536 155 66 C155.928125 66.103125 156.85625 66.20625 157.8125 66.3125 C161 67 161 67 162.8125 68.0625 C164.80212335 71.30872758 165.51033274 74.27523379 165 78 C162.70708682 82.65204767 159.71432434 85.36245898 154.859375 87.16796875 C151.91312994 87.91151164 149.00064991 88.52699115 146 89 C146.33128906 89.58910156 146.66257812 90.17820312 147.00390625 90.78515625 C148.53517766 94.18998326 147.93627251 96.44216446 147 100 C144.5 102.875 144.5 102.875 142 105 C141.67 105.33 141.34 105.66 141 106 C138.1875 106.25 138.1875 106.25 135 106 C134.401875 105.46375 133.80375 104.9275 133.1875 104.375 C131.15569779 102.76688761 131.15569779 102.76688761 129.10546875 103.28125 C128.00138672 103.57515625 128.00138672 103.57515625 126.875 103.875 C118.4958331 106.08655061 110.91846785 104.0411507 103 101 C102.43732422 101.85271484 102.43732422 101.85271484 101.86328125 102.72265625 C101.35152344 103.49480469 100.83976563 104.26695312 100.3125 105.0625 C99.76851562 105.88878906 99.22453125 106.71507812 98.6640625 107.56640625 C97.25013052 109.63419879 95.75580428 111.55108387 94.1875 113.5 C91.68714176 116.90304348 91.33783224 120.02424933 91.140625 124.1796875 C91 126 91 126 90 127 C87.54507499 127.18063984 85.14495751 127.27801743 82.6875 127.3125 C81.67139648 127.35600586 81.67139648 127.35600586 80.63476562 127.40039062 C77.24380163 127.44348205 75.34887177 127.25531327 72.58203125 125.23046875 C70.03428507 121.63846117 70 119.41277603 70 115 C71.3125 112.625 71.3125 112.625 74 111 C75.64262333 110.76770983 77.28910448 110.56198218 78.9375 110.375 C82.3251178 109.83537947 83.5816623 109.53380648 85.7265625 106.796875 C87.6725719 102.9048562 88.94350821 99.22596715 90 95 C57.66 95 25.32 95 -8 95 C-5.7747348 99.45053041 -4.00098756 102.27463613 -1 106 C-1 106.66 -1 107.32 -1 108 C3.29 108.99 7.58 109.98 12 111 C12 111.66 12 112.32 12 113 C12.66 113 13.32 113 14 113 C14.57904085 122.84369449 14.57904085 122.84369449 11 127 C7.62670451 130.22158643 4.63267401 132.31113203 -0.125 132.5 C-4.02483539 131.99679543 -6.13077439 131.68989901 -9 129 C-9.608676 125.42402849 -9.44405832 123.70309234 -7.5 120.625 C-7.005 120.08875 -6.51 119.5525 -6 119 C-7.36125 118.13375 -7.36125 118.13375 -8.75 117.25 C-12 115 -12 115 -13.8125 113.0625 C-16.55378882 110.47785625 -19.54270679 108.96201421 -22.87890625 107.24609375 C-25 106 -25 106 -26.23046875 104.39941406 C-28.00382589 102.7081297 -28.00382589 102.7081297 -30.90405273 102.93481445 C-32.06880127 103.0762085 -33.2335498 103.21760254 -34.43359375 103.36328125 C-35.72330078 103.50830078 -37.01300781 103.65332031 -38.34179688 103.80273438 C-39.70715859 103.97162996 -41.07239307 104.14155725 -42.4375 104.3125 C-51.66655027 105.42187433 -60.69491466 106.26567216 -70 106 C-70.13148437 106.78761719 -70.26296875 107.57523437 -70.3984375 108.38671875 C-71 111 -71 111 -72.625 112.8125 C-76.03215469 114.51607735 -78.23207391 114.51971394 -82 114 C-84.97046873 112.20976215 -87.42502414 110.14995172 -89 107 C-89.11697217 101.34355994 -88.96841169 96.50958293 -85.875 91.6875 C-83 90 -83 90 -79.25 90.125 C-76 91 -76 91 -75 92 C-73.00041636 92.04080783 -70.99954746 92.04254356 -69 92 C-69.64066406 91.58492188 -70.28132813 91.16984375 -70.94140625 90.7421875 C-78.45267101 85.39139084 -83.79881737 79.12374249 -86 70 C-87.81666829 55.97363085 -87.11856304 40.53667688 -78.53515625 28.83203125 C-76.55094892 26.46410952 -74.58287094 24.70091501 -72 23 C-71.4534375 22.63003906 -70.906875 22.26007813 -70.34375 21.87890625 C-66.41800886 19.39088171 -63.61950014 18.54931706 -59 19 C-59.0825 17.845 -59.165 16.69 -59.25 15.5 C-59.27604655 10.6292957 -57.53385113 7.0806197 -55 3 C-54 2 -54 2 -51.3125 1.5625 C-47.23535029 2.10099147 -45.88871224 3.36710743 -43.19140625 6.33203125 C-41.6503106 8.48956516 -41.15489396 10.36680276 -41 13 C-40.16726562 12.67515625 -39.33453125 12.3503125 -38.4765625 12.015625 C-34.62009989 10.88901795 -31.38660276 10.73392143 -27.375 10.75 C-25.43753906 10.74226562 -25.43753906 10.74226562 -23.4609375 10.734375 C-20.31589796 10.97575501 -18.61376712 11.32825047 -16 13 C-16.0825 11.948125 -16.165 10.89625 -16.25 9.8125 C-15.96269651 5.43112175 -15.05154419 4.05154419 -12 1 C-8.22600007 -0.88699997 -4.10056515 -0.62240721 0 0 Z M-13 7 C-13.40040892 10.80388473 -13.20776206 13.37671381 -12 17 C-12.99 16.67 -13.98 16.34 -15 16 C-24.60624214 13.60272032 -35.56422127 14.30406322 -45 17 C-44.896875 15.783125 -44.79375 14.56625 -44.6875 13.3125 C-44.65408479 9.54994773 -44.90669702 9.11196358 -47.5 6 C-48.325 5.34 -49.15 4.68 -50 4 C-52.93576279 5.012332 -53.97512741 5.96357942 -55.75 8.5625 C-57.30903894 12.84985708 -57.27038392 16.49360134 -57 21 C-58.175625 21.0928125 -58.175625 21.0928125 -59.375 21.1875 C-67.86043219 23.08940721 -74.43056804 26.994709 -79.125 34.3125 C-83.30545319 41.44690979 -83.28443686 48.58434291 -83.1875 56.625 C-83.1865332 58.16027344 -83.1865332 58.16027344 -83.18554688 59.7265625 C-83.15870789 64.30708273 -83.01118959 68.5164711 -82 73 C-81.34 73 -80.68 73 -80 73 C-79.9175 73.53625 -79.835 74.0725 -79.75 74.625 C-77.51576787 81.70006842 -72.21723693 86.27162532 -66 90 C-58.18355523 93.03824137 -49.239271 92.1977425 -41 92 C-48.07977236 93.46135582 -55.03245284 94.32883436 -62.25 94.75390625 C-65.08839777 94.90146001 -65.08839777 94.90146001 -68 96 C-72.30379794 96.39849981 -74.31312143 96.46766201 -77.9375 94 C-78.618125 93.34 -79.29875 92.68 -80 92 C-82.01432266 92.50256112 -82.01432266 92.50256112 -84 94 C-86.03705223 98.94712684 -86.39299801 102.8260074 -85 108 C-82.67991026 110.66380673 -81.39770636 110.96022936 -77.875 111.3125 C-74.87217348 111.28987808 -74.87217348 111.28987808 -73 109 C-73.32041397 106.39719432 -73.32041397 106.39719432 -74 104 C-57.67638054 102.22209187 -41.35126986 100.50417526 -25 99 C-24.86948242 99.63156006 -24.73896484 100.26312012 -24.60449219 100.91381836 C-23.80307486 103.67961442 -22.71553965 104.15825467 -20.25 105.5625 C-19.528125 105.9853125 -18.80625 106.408125 -18.0625 106.84375 C-17.381875 107.2253125 -16.70125 107.606875 -16 108 C-13.26612676 109.55333707 -11.19005729 110.80400342 -9 113.0625 C-6.79185467 115.20164079 -4.89268359 116.03577214 -2 117 C-2 117.99 -2 118.98 -2 120 C-4.5 122.1875 -4.5 122.1875 -7 124 C-6.67 125.32 -6.34 126.64 -6 128 C-0.19388201 129.24079022 -0.19388201 129.24079022 5.3125 127.4375 C8.29840763 124.72935122 9.70331936 122.81376658 11 119 C10.78892707 115.72114468 10.78892707 115.72114468 10 113 C9.09507812 112.92652344 9.09507812 112.92652344 8.171875 112.8515625 C6.97304687 112.73941406 6.97304687 112.73941406 5.75 112.625 C4.96109375 112.55539062 4.1721875 112.48578125 3.359375 112.4140625 C0.82346675 111.969019 -0.85285884 111.42225162 -3 110 C-4.03125 108.23046875 -4.03125 108.23046875 -5 106 C-6.14489576 104.09094033 -7.31319795 102.19579393 -8.5 100.3125 C-9.1084375 99.33925781 -9.716875 98.36601562 -10.34375 97.36328125 C-11.78368551 94.9099091 -11.78368551 94.9099091 -14 94 C-14 93.34 -14 92.68 -14 92 C-3.08839739 91.86784824 7.82322381 91.73735798 18.73486996 91.60884857 C23.80445752 91.54909345 28.87403766 91.48881767 33.94360352 91.42724609 C72.66268996 90.95783328 72.66268996 90.95783328 88.12890625 90.90625 C89.1232518 90.8997644 90.11759735 90.89327881 91.14207458 90.88659668 C92.02661819 90.88599243 92.9111618 90.88538818 93.82250977 90.88476562 C94.93977196 90.88168396 94.93977196 90.88168396 96.0796051 90.87854004 C98 91 98 91 101 92 C101.33 92.66 101.66 93.32 102 94 C99.03 94 96.06 94 93 94 C92.59007812 95.10859375 92.18015625 96.2171875 91.7578125 97.359375 C91.21365899 98.82296029 90.66938165 100.28649955 90.125 101.75 C89.85558594 102.47960937 89.58617187 103.20921875 89.30859375 103.9609375 C88.91220703 105.02441406 88.91220703 105.02441406 88.5078125 106.109375 C88.26691895 106.75874023 88.02602539 107.40810547 87.77783203 108.07714844 C86.96009365 110.09865109 85.97520962 112.04958075 85 114 C81.37 114 77.74 114 74 114 C71.59168065 117.69801273 71.59168065 117.69801273 72.75 120.6875 C73.78534865 123.13191422 73.78534865 123.13191422 76 124 C78.04055005 124.07065617 80.08334257 124.08421976 82.125 124.0625 C83.22070312 124.05347656 84.31640625 124.04445313 85.4453125 124.03515625 C86.28835937 124.02355469 87.13140625 124.01195312 88 124 C88 122.865625 88 121.73125 88 120.5625 C88.60021565 115.43338445 91.46360821 112.73691201 94.9921875 109.17578125 C97.06663274 106.92779293 98.46915101 104.63743412 100 102 C100.66 101.34 101.32 100.68 102 100 C102.16687448 97.41645782 102.16687448 97.41645782 102 95 C102.99 95 103.98 95 105 95 C105.13728516 95.93585938 105.13728516 95.93585938 105.27734375 96.890625 C105.88084822 99.46196337 105.88084822 99.46196337 109.5625 100.75 C114.97033956 102.52036608 119.70554933 102.76481689 125.1875 100.9375 C128.33467248 99.88844251 129.88249382 99.96083127 133 101 C133.66 101.66 134.32 102.32 135 103 C137.9149255 103.5838196 137.9149255 103.5838196 141 103 C143.5714939 100.9315113 143.5714939 100.9315113 145 98 C145.02302257 95.27566639 145.02302257 95.27566639 144 93 C143.34 92.67 142.68 92.34 142 92 C141.375 89.9375 141.375 89.9375 141 88 C138.36 88 135.72 88 133 88 C132.67 89.65 132.34 91.3 132 93 C131.05640625 92.98259766 131.05640625 92.98259766 130.09375 92.96484375 C124.61930912 92.90713127 119.41542194 93.19771527 114 94 C114 94.66 114 95.32 114 96 C111.36 95.67 108.72 95.34 106 95 C106.33 94.34 106.66 93.68 107 93 C109.36678954 92.37621814 111.66040395 91.87325439 114.0625 91.4375 C114.7433667 91.30601562 115.4242334 91.17453125 116.12573242 91.0390625 C119.68118185 90.36708638 123.20989452 89.82690309 126.8125 89.5 C127.864375 89.335 128.91625 89.17 130 89 C130.99 87.515 130.99 87.515 132 86 C134.80078125 85.84765625 134.80078125 85.84765625 138.3125 86.0625 C145.66416482 86.22165975 152.31991948 85.19696616 159 82 C160.92846066 80.16503309 160.92846066 80.16503309 162 78 C161.76261647 74.12273569 161.17282078 72.25923117 159 69 C156.79274927 68.63637182 156.79274927 68.63637182 154.375 68.8125 C153.55773437 68.83957031 152.74046875 68.86664063 151.8984375 68.89453125 C150.95871094 68.94673828 150.95871094 68.94673828 150 69 C150.515625 68.29875 151.03125 67.5975 151.5625 66.875 C153.30443767 63.39112465 152.94693195 61.7016431 152 58 C149.37344067 58.35494045 147.42031739 58.72461964 145.1875 60.1875 C143.49614456 62.76904252 143.92227469 64.97689471 144 68 C128.69612111 70.26902936 113.36766664 72.21555283 98 74 C98 74.66 98 75.32 98 76 C47.93643155 80.69608012 47.93643155 80.69608012 30.29296875 69.171875 C26.02695131 65.1311498 25.75427398 60.62759103 25 55 C24.53668352 52.43141102 24.03930234 49.8713868 23.53125 47.3112793 C23.1836797 45.55378113 22.84977342 43.79351155 22.53125 42.03051758 C20.80742126 32.86818826 16.72660948 25.54248695 10 19 C7.36435132 17.90511587 5.89764916 17.87926462 3 18 C3.2784375 16.39125 3.2784375 16.39125 3.5625 14.75 C4.15240725 10.69097278 4.15240725 10.69097278 3 7 C0.37186063 4.29677093 -1.25954841 3.1234086 -5 2.5 C-8.83417929 3.13902988 -10.44296344 4.06692865 -13 7 Z " fill="#161616" transform="translate(124,154)"/>
<path d="M0 0 C2.6875 -0.3125 2.6875 -0.3125 6 0 C6.65484375 0.82371094 7.3096875 1.64742187 7.984375 2.49609375 C12.5652212 6.2996202 16.79729447 5.57827168 22.5625 5.375 C23.56474609 5.36082031 24.56699219 5.34664062 25.59960938 5.33203125 C30.47519469 5.2414631 35.34076995 5.04623593 40.20825195 4.75537109 C54.45235002 3.91878154 68.67682983 3.84573931 82.94213867 3.86962891 C85.67653585 3.87416195 88.4108666 3.87421517 91.14526367 3.86962891 C100.43094505 3.85414611 109.7147567 3.89399703 119 4 C120.89718781 4.01987976 120.89718781 4.01987976 122.83270264 4.04016113 C126.4714204 4.08922994 130.10817747 4.16795371 133.74609375 4.2578125 C135.34216209 4.27822098 135.34216209 4.27822098 136.97047424 4.29904175 C147.76141846 4.63593906 157.23194941 7.126133 165.1015625 14.796875 C168.08119031 18.25471468 170.07594107 21.88307979 172 26 C172.5878125 27.06347656 172.5878125 27.06347656 173.1875 28.1484375 C176.97476175 35.43365628 176.77162077 42.60176161 175.375 50.5625 C169.6875 64.78125 169.6875 64.78125 163.4375 67.625 C157.70072769 69.69064707 152.18507829 70.14951793 146.12109375 70.1328125 C145.35992249 70.13413177 144.59875122 70.13545105 143.81451416 70.1368103 C141.35546728 70.1387179 138.89653518 70.13241583 136.4375 70.125 C135.60618561 70.12411377 134.77487122 70.12322754 133.91836548 70.12231445 C121.58858811 70.10680173 109.30284848 69.87542505 97 69 C97 68.34 97 67.68 97 67 C96.29617188 67.16242188 95.59234375 67.32484375 94.8671875 67.4921875 C87.40965184 68.81300444 79.59253259 68.08414043 72.08203125 67.5078125 C66.67319889 67.13155169 61.29977248 66.9117425 55.87890625 66.859375 C21.79509958 66.48121764 21.79509958 66.48121764 10.8125 58.25 C9.32421875 56.69140625 9.32421875 56.69140625 8 55 C7.51144531 54.41089844 7.02289063 53.82179688 6.51953125 53.21484375 C2.55488966 47.4511211 2.40935902 41.64162749 2.45166016 34.85229492 C2.47029608 32.43228376 2.47029608 32.43228376 2 29 C0.13377036 27.1371129 0.13377036 27.1371129 -2 26 C-3.20745835 22.37762495 -3.22246029 19.0229405 -3.25 15.25 C-3.270625 14.5590625 -3.29125 13.868125 -3.3125 13.15625 C-3.35088173 8.05147958 -2.27330153 4.57053254 0 0 Z M3 3 C-0.71059486 9.13054803 -1.71075839 15.44620807 -0.3125 22.4375 C0.78058442 25.09159104 0.78058442 25.09159104 3 26.3125 C6.24734023 29.05244332 6.35310018 32.93985245 7 37 C9.64573501 34.77122275 9.64573501 34.77122275 12 32 C11.95502158 29.72476911 11.95502158 29.72476911 11 28 C12.32 27.34 13.64 26.68 15 26 C14.67 24.35 14.34 22.7 14 21 C14.99 21.99 15.98 22.98 17 24 C15.39680795 28.66383143 13.08350522 33.14135949 10 37 C9.30648438 37.30550781 8.61296875 37.61101562 7.8984375 37.92578125 C5.77741393 38.86585583 5.77741393 38.86585583 5.07421875 41.29296875 C4.97884902 44.77145414 5.96425246 46.39079722 7.8125 49.3125 C8.35519531 50.19550781 8.89789063 51.07851563 9.45703125 51.98828125 C9.96621094 52.65214844 10.47539062 53.31601562 11 54 C11.66 54 12.32 54 13 54 C13.33 54.99 13.66 55.98 14 57 C16.36401089 58.26080581 18.47896761 59.14504119 21 60 C21.81339844 60.28230469 22.62679688 60.56460938 23.46484375 60.85546875 C33.75725957 63.93020167 46.48210319 64.63478627 57 62 C57.53394179 60.5882217 58.05165104 59.17029756 58.5625 57.75 C58.85253906 56.96109375 59.14257812 56.1721875 59.44140625 55.359375 C60.0610168 52.74227867 59.94248701 51.4926979 59 49 C58.34 48.01 57.68 47.02 57 46 C57.53625 45.443125 58.0725 44.88625 58.625 44.3125 C59.07875 43.549375 59.5325 42.78625 60 42 C59.26145768 39.36186139 59.26145768 39.36186139 58 37 C58 36.34 58 35.68 58 35 C58.99 35.33 59.98 35.66 61 36 C61.94002987 40.38680608 61.74651537 43.61422219 61 48 C61.185625 48.804375 61.37125 49.60875 61.5625 50.4375 C62.16494838 53.96612624 61.00559799 56.60610677 60 60 C60.33 60.99 60.66 61.98 61 63 C62.06927734 63.09087891 62.06927734 63.09087891 63.16015625 63.18359375 C71.41188054 63.9054808 71.41188054 63.9054808 75.5 64.5625 C82.43977973 65.42997247 89.12334905 65.23427068 96 64 C96.66 64.33 97.32 64.66 98 65 C100.56845219 65.03037021 103.120762 64.93311185 105.6875 64.83984375 C108 65 108 65 110 67 C112.52377655 67.27808217 112.52377655 67.27808217 115.4453125 67.1953125 C116.52167969 67.18886719 117.59804688 67.18242187 118.70703125 67.17578125 C119.83496094 67.15902344 120.96289062 67.14226562 122.125 67.125 C123.26066406 67.11597656 124.39632812 67.10695313 125.56640625 67.09765625 C128.37781299 67.07403098 131.18880298 67.04109013 134 67 C134 66.34 134 65.68 134 65 C134.99 64.67 135.98 64.34 137 64 C138.56028793 61.15102982 139.46843274 58.20059445 140 55 C139.01919106 52.38017854 139.01919106 52.38017854 137 51 C136.34 51 135.68 51 135 51 C135.66 50.236875 136.32 49.47375 137 48.6875 C139.29850538 46.15722061 139.29850538 46.15722061 139 43 C137.56249809 41.31201173 137.56249809 41.31201173 136 40 C137.32 40.33 138.64 40.66 140 41 C140.90594807 43.61718331 140.98235878 45.10143704 140.5 47.875 C139.82038781 50.94518924 139.82038781 50.94518924 140.5625 53.75 C141.18730226 58.39138818 140.07980006 62.48447249 139 67 C149.65771916 67.35857747 158.40464935 67.06190317 166.59375 59.53515625 C171.66979043 54.24761413 174.03554301 48.43102855 173.9765625 41.078125 C172.70835554 30.19972752 166.40917284 21.74595342 159 14 C158.01 13.67 157.02 13.34 156 13 C154.39819908 16.38766195 154.39819908 16.38766195 154.125 20.0625 C154.8950733 22.17907441 154.8950733 22.17907441 157.0625 23.5625 C160.20275922 27.5131487 159.47149501 32.13046134 159 37 C158.67 37.66 158.34 38.32 158 39 C157.01 39.33 156.02 39.66 155 40 C155.165 38.9275 155.33 37.855 155.5 36.75 C156.3352003 30.76189263 156.3352003 30.76189263 155 25 C152.50965614 23.70339566 152.50965614 23.70339566 150 23 C150.99 19.7 151.98 16.4 153 13 C146.68439027 7.21069108 141.08633074 7.22890562 132.75 7.1875 C130.97496094 7.14979492 130.97496094 7.14979492 129.1640625 7.11132812 C125.10889692 7.03050193 121.05589005 7 117 7 C116.97111854 10.31248187 116.95324201 13.62493167 116.9375 16.9375 C116.92493164 18.35579102 116.92493164 18.35579102 116.91210938 19.80273438 C116.90727539 21.15141602 116.90727539 21.15141602 116.90234375 22.52734375 C116.89448853 23.77632446 116.89448853 23.77632446 116.88647461 25.05053711 C116.78356708 27.00516798 116.78356708 27.00516798 118 28 C118.26293056 32.03160191 118.29404844 33.55892734 116 37 C113.875 37.6875 113.875 37.6875 112 38 C113.75 34.125 113.75 34.125 116 33 C115.89171875 31.86111328 115.89171875 31.86111328 115.78125 30.69921875 C115.6884375 29.70535156 115.595625 28.71148437 115.5 27.6875 C115.4071875 26.70136719 115.314375 25.71523437 115.21875 24.69921875 C115 22 115 22 115 19 C114.34 19 113.68 19 113 19 C113.556875 17.63875 113.556875 17.63875 114.125 16.25 C115.25131743 13.16467339 115.25131743 13.16467339 114.375 10.75 C112.21694327 8.00338235 109.96584178 7.12449559 106.52636719 6.68115234 C105.62563477 6.64973145 104.72490234 6.61831055 103.796875 6.5859375 C102.8171875 6.54726562 101.8375 6.50859375 100.828125 6.46875 C99.30445313 6.42234375 99.30445313 6.42234375 97.75 6.375 C96.203125 6.31699219 96.203125 6.31699219 94.625 6.2578125 C92.0835106 6.16368326 89.54202567 6.07805021 87 6 C87.495 6.99 87.495 6.99 88 8 C88.66 8 89.32 8 90 8 C90.67228569 12.48190462 91.12701027 15.63283522 90 20 C90.29235267 22.33882138 90.62599214 24.67284 91 27 C91 28.32 91 29.64 91 31 C90.01 30.01 90.01 30.01 89 29 C89.2784375 27.824375 89.2784375 27.824375 89.5625 26.625 C90.29178752 23.94859806 90.29178752 23.94859806 88.6875 21.6875 C88.130625 21.130625 87.57375 20.57375 87 20 C86.34 20 85.68 20 85 20 C85.680625 19.443125 86.36125 18.88625 87.0625 18.3125 C89.25510881 16.18317288 89.25510881 16.18317288 89.0625 13.5 C87.56544541 9.97751862 86.33969805 8.96356171 83 7 C79.03453696 6.4431461 75.1217931 6.53050618 71.125 6.625 C70.0119751 6.63789063 68.8989502 6.65078125 67.75219727 6.6640625 C59.38070792 6.81952868 51.23850267 7.4996548 43 9 C43.04253906 10.093125 43.08507812 11.18625 43.12890625 12.3125 C43 16 43 16 40.9375 19 C38.43457181 22.87550172 39.20915027 24.57124149 40 29 C39.125 32.1875 39.125 32.1875 38 35 C37.65023242 36.32911682 37.30903983 37.66082739 37 39 C35.79371992 36.66785852 34.8345262 34.50357861 34 32 C34.639375 31.7525 35.27875 31.505 35.9375 31.25 C38.12493715 30.18550582 38.12493715 30.18550582 38.875 28.125 C39.02904228 25.50628117 38.24534014 24.27091436 37 22 C37 21.01 37 20.02 37 19 C39 17.3125 39 17.3125 41 16 C40.81171228 13.55519921 40.81171228 13.55519921 40 11 C36.96969085 8.99095526 34.40823739 8.73084337 30.82421875 8.65625 C29.83099609 8.62660156 28.83777344 8.59695312 27.81445312 8.56640625 C26.26661133 8.53353516 26.26661133 8.53353516 24.6875 8.5 C8.56797015 8.15378142 8.56797015 8.15378142 4.0625 4.375 C3.711875 3.92125 3.36125 3.4675 3 3 Z " fill="#111111" transform="translate(428,216)"/>
<path d="M0 0 C3.57574179 -0.04370246 7.1513344 -0.07549059 10.72723389 -0.10253906 C11.71320053 -0.11740356 12.69916718 -0.13226807 13.7150116 -0.14758301 C14.59633255 -0.15140991 15.4776535 -0.15523682 16.38568115 -0.15917969 C17.49508812 -0.17011658 17.49508812 -0.17011658 18.62690735 -0.18127441 C20.98723869 0.09142226 22.60866063 0.88516428 24.66082764 2.05371094 C24.66082764 2.71371094 24.66082764 3.37371094 24.66082764 4.05371094 C21.69082764 4.05371094 18.72082764 4.05371094 15.66082764 4.05371094 C15.50227295 4.73175781 15.34371826 5.40980469 15.18035889 6.10839844 C13.45569927 12.98797988 11.01219682 18.80386029 7.66082764 25.05371094 C4.03082764 25.05371094 0.40082764 25.05371094 -3.33917236 25.05371094 C-4.71127657 28.34312532 -4.71127657 28.34312532 -3.33917236 33.05371094 C3.59082764 33.54871094 3.59082764 33.54871094 10.66082764 34.05371094 C10.57832764 32.81621094 10.49582764 31.57871094 10.41082764 30.30371094 C10.39922318 27.03125402 10.4882643 26.28379538 12.53582764 23.55371094 C14.66082764 22.05371094 14.66082764 22.05371094 16.66082764 22.05371094 C16.35145264 22.69308594 16.04207764 23.33246094 15.72332764 23.99121094 C14.53268256 27.42307027 14.19921357 30.5601374 13.90692139 34.16308594 C13.66082764 36.05371094 13.66082764 36.05371094 12.66082764 37.05371094 C10.20590262 37.23435078 7.80578515 37.33172837 5.34832764 37.36621094 C4.67092529 37.39521484 3.99352295 37.42421875 3.29559326 37.45410156 C-0.09537073 37.49719299 -1.99030059 37.30902421 -4.75714111 35.28417969 C-7.3048873 31.6921721 -7.33917236 29.46648697 -7.33917236 25.05371094 C-6.02667236 22.67871094 -6.02667236 22.67871094 -3.33917236 21.05371094 C-1.69654903 20.82142077 -0.05006789 20.61569312 1.59832764 20.42871094 C4.98594544 19.8890904 6.24248993 19.58751742 8.38739014 16.85058594 C10.33339954 12.95856714 11.60433585 9.27967809 12.66082764 5.05371094 C-19.67917236 5.05371094 -52.01917236 5.05371094 -85.33917236 5.05371094 C-83.11390716 9.50424134 -81.34015993 12.32834706 -78.33917236 16.05371094 C-78.33917236 16.71371094 -78.33917236 17.37371094 -78.33917236 18.05371094 C-74.04917236 19.04371094 -69.75917236 20.03371094 -65.33917236 21.05371094 C-65.33917236 21.71371094 -65.33917236 22.37371094 -65.33917236 23.05371094 C-64.67917236 23.05371094 -64.01917236 23.05371094 -63.33917236 23.05371094 C-62.76013151 32.89740543 -62.76013151 32.89740543 -66.33917236 37.05371094 C-69.71246785 40.27529737 -72.70649836 42.36484297 -77.46417236 42.55371094 C-81.36400775 42.05050637 -83.46994676 41.74360994 -86.33917236 39.05371094 C-86.94784837 35.47773942 -86.78323068 33.75680327 -84.83917236 30.67871094 C-84.34417236 30.14246094 -83.84917236 29.60621094 -83.33917236 29.05371094 C-84.70042236 28.18746094 -84.70042236 28.18746094 -86.08917236 27.30371094 C-89.33917236 25.05371094 -89.33917236 25.05371094 -91.15167236 23.11621094 C-93.89296119 20.53156719 -96.88187916 19.01572515 -100.21807861 17.29980469 C-102.33917236 16.05371094 -102.33917236 16.05371094 -103.55426025 14.453125 C-106.34572695 12.26454791 -108.57153826 13.01392427 -112.01885986 13.41699219 C-112.668638 13.48782516 -113.31841614 13.55865814 -113.98788452 13.63163757 C-116.06538595 13.86115383 -118.13944509 14.11294316 -120.21417236 14.36621094 C-122.28206365 14.6040353 -124.35041504 14.83727172 -126.41903687 15.06864929 C-128.30199756 15.28160301 -130.1836686 15.50586945 -132.06524658 15.73071289 C-134.85575291 16.00601788 -137.53912763 16.11823572 -140.33917236 16.05371094 C-140.00917236 14.73371094 -139.67917236 13.41371094 -139.33917236 12.05371094 C-135.42401887 11.54137995 -131.50686771 11.04619586 -127.58917236 10.55371094 C-126.49733643 10.410625 -125.40550049 10.26753906 -124.28057861 10.12011719 C-118.76518288 9.43477216 -113.25268646 8.8818128 -107.69854736 8.64746094 C-106.7391626 8.60298828 -105.77977783 8.55851563 -104.7913208 8.51269531 C-102.33917236 9.05371094 -102.33917236 9.05371094 -100.66412354 11.4753418 C-100.22688965 12.32620361 -99.78965576 13.17706543 -99.33917236 14.05371094 C-96.78985394 15.78176626 -96.78985394 15.78176626 -93.90167236 17.11621094 C-89.99489105 19.03505183 -87.35112012 20.92762621 -84.33917236 24.05371094 C-82.37037913 25.11383037 -80.37481369 26.12841942 -78.33917236 27.05371094 C-78.73411409 29.91703846 -79.0422963 30.82880483 -81.40167236 32.61621094 C-82.04104736 33.09058594 -82.68042236 33.56496094 -83.33917236 34.05371094 C-83.33917236 35.04371094 -83.33917236 36.03371094 -83.33917236 37.05371094 C-77.84375349 38.16093243 -77.84375349 38.16093243 -72.52667236 36.99121094 C-69.77449052 34.55356417 -68.62182714 32.4966264 -67.33917236 29.05371094 C-67.08720414 25.8027073 -67.08720414 25.8027073 -67.33917236 23.05371094 C-67.87542236 23.25996094 -68.41167236 23.46621094 -68.96417236 23.67871094 C-72.32519185 24.20939822 -74.24649116 23.44226168 -77.33917236 22.05371094 C-81.44198567 18.66888996 -84.06134478 14.5692382 -86.91339111 10.14746094 C-88.49203143 7.82923844 -90.23886251 5.91167734 -92.33917236 4.05371094 C-92.00917236 3.06371094 -91.67917236 2.07371094 -91.33917236 1.05371094 C-80.42756975 0.92155918 -69.51594856 0.79106892 -58.60430241 0.66255951 C-53.53471484 0.60280439 -48.4651347 0.54252861 -43.39556885 0.48095703 C-32.01467305 0.34303923 -20.63375312 0.21475051 -9.25256348 0.10351562 C-6.16831087 0.07314023 -3.0841537 0.0391277 0 0 Z " fill="#1D1D1D" transform="translate(201.33917236328125,243.9462890625)"/>
<path d="M0 0 C1.2375 0.103125 2.475 0.20625 3.75 0.3125 C5.35725635 3.52701269 4.80748185 6.74862536 4.75 10.3125 C5.678125 10.415625 6.60625 10.51875 7.5625 10.625 C10.75 11.3125 10.75 11.3125 12.5625 12.375 C14.55212335 15.62122758 15.26033274 18.58773379 14.75 22.3125 C12.45708682 26.96454767 9.46432434 29.67495898 4.609375 31.48046875 C1.66312994 32.22401164 -1.24935009 32.83949115 -4.25 33.3125 C-3.91871094 33.90160156 -3.58742188 34.49070313 -3.24609375 35.09765625 C-1.71482234 38.50248326 -2.31372749 40.75466446 -3.25 44.3125 C-5.75 47.1875 -5.75 47.1875 -8.25 49.3125 C-8.58 49.6425 -8.91 49.9725 -9.25 50.3125 C-12.0625 50.5625 -12.0625 50.5625 -15.25 50.3125 C-16.1471875 49.508125 -16.1471875 49.508125 -17.0625 48.6875 C-19.09430221 47.07938761 -19.09430221 47.07938761 -21.14453125 47.59375 C-22.24861328 47.88765625 -22.24861328 47.88765625 -23.375 48.1875 C-31.7541669 50.39905061 -39.33153215 48.3536507 -47.25 45.3125 C-47.64832031 45.92738281 -48.04664063 46.54226563 -48.45703125 47.17578125 C-48.98683594 47.98402344 -49.51664063 48.79226563 -50.0625 49.625 C-50.84560547 50.82576172 -50.84560547 50.82576172 -51.64453125 52.05078125 C-53.05389849 54.0362402 -54.47096657 55.6616852 -56.25 57.3125 C-56.25 52.96587304 -55.99191122 52.55525548 -53.375 49.4375 C-50.79370229 46.18652599 -49.27028821 43.39365284 -48.25 39.3125 C-47.26 39.3125 -46.27 39.3125 -45.25 39.3125 C-44.92 40.3025 -44.59 41.2925 -44.25 42.3125 C-37.708713 45.41100437 -32.12655195 46.60468398 -25.0625 44.25 C-21.91532752 43.20094251 -20.36750618 43.27333127 -17.25 44.3125 C-16.59 44.9725 -15.93 45.6325 -15.25 46.3125 C-12.29230823 46.81260524 -12.29230823 46.81260524 -9.25 46.3125 C-7.25966359 44.65876504 -7.25966359 44.65876504 -6.25 42.3125 C-6.25 40.9925 -6.25 39.6725 -6.25 38.3125 C-7.24 37.6525 -8.23 36.9925 -9.25 36.3125 C-9.25 34.9925 -9.25 33.6725 -9.25 32.3125 C-11.89 32.6425 -14.53 32.9725 -17.25 33.3125 C-17.58 34.6325 -17.91 35.9525 -18.25 37.3125 C-24.19 37.6425 -30.13 37.9725 -36.25 38.3125 C-36.25 38.9725 -36.25 39.6325 -36.25 40.3125 C-38.89 39.9825 -41.53 39.6525 -44.25 39.3125 C-43.92 38.3225 -43.59 37.3325 -43.25 36.3125 C-27.50512528 32.86830866 -27.50512528 32.86830866 -20.25 33.3125 C-19.59 31.9925 -18.93 30.6725 -18.25 29.3125 C-17.39019531 29.35890625 -16.53039062 29.4053125 -15.64453125 29.453125 C-6.99266628 29.71730408 0.79608961 28.96007547 8.75 25.3125 C11.09111027 22.49191514 11.09111027 22.49191514 10.4375 19.3125 C9.79448305 16.28540882 9.79448305 16.28540882 8.75 13.3125 C5.78 13.3125 2.81 13.3125 -0.25 13.3125 C0.08 12.61125 0.41 11.91 0.75 11.1875 C1.84044562 8.05246884 1.90322643 5.60686818 1.75 2.3125 C-1.16517292 3.38651108 -3.02810176 4.09060176 -5.25 6.3125 C-5.64764263 8.30071313 -5.98775349 10.30194339 -6.25 12.3125 C-7.24 11.9825 -8.23 11.6525 -9.25 11.3125 C-8.66123496 4.98327577 -7.00352818 0.01239563 0 0 Z " fill="#121212" transform="translate(274.25,209.6875)"/>
<path d="M0 0 C0.33 0.99 0.66 1.98 1 3 C0.08476563 3.13277344 -0.83046875 3.26554688 -1.7734375 3.40234375 C-2.96195313 3.57894531 -4.15046875 3.75554687 -5.375 3.9375 C-6.55835937 4.11152344 -7.74171875 4.28554687 -8.9609375 4.46484375 C-11.90702381 4.83462786 -11.90702381 4.83462786 -14 6 C-14.46651207 8.12576782 -14.46651207 8.12576782 -14.625 10.5625 C-14.69976562 11.38878906 -14.77453125 12.21507812 -14.8515625 13.06640625 C-14.90054688 13.70449219 -14.94953125 14.34257812 -15 15 C-14.34 15 -13.68 15 -13 15 C-13 15.99 -13 16.98 -13 18 C-12.34 18 -11.68 18 -11 18 C-11 18.99 -11 19.98 -11 21 C-6.84373632 22.00926479 -2.95634906 22.10239579 1.3125 22.0625 C2.56675781 22.05347656 3.82101563 22.04445312 5.11328125 22.03515625 C6.06589844 22.02355469 7.01851562 22.01195312 8 22 C8 22.99 8 23.98 8 25 C-7.40139096 26.77297566 -7.40139096 26.77297566 -13 23 C-16.45080535 18.64108798 -18.13921721 15.03913949 -18.25 9.5 C-18.27578125 8.7265625 -18.3015625 7.953125 -18.328125 7.15625 C-17.91786989 4.46028784 -17.11846448 3.6616392 -15 2 C-9.99343982 -0.26487246 -5.37723694 -0.21508948 0 0 Z " fill="#181818" transform="translate(78,193)"/>
<path d="M0 0 C2.50357861 0.8345262 4.66785852 1.79371992 7 3 C5.02 3.33 3.04 3.66 1 4 C0.67 5.32 0.34 6.64 0 8 C-5.94 8.33 -11.88 8.66 -18 9 C-18 9.66 -18 10.32 -18 11 C-20.64 10.67 -23.28 10.34 -26 10 C-25.67 9.01 -25.34 8.02 -25 7 C-9.25512528 3.55580866 -9.25512528 3.55580866 -2 4 C-1.34 2.68 -0.68 1.36 0 0 Z " fill="#1E1E1E" transform="translate(256,239)"/>
<path d="M0 0 C0 0.99 0 1.98 0 3 C-9.812261 5.0710305 -18.97015874 6.16593487 -29 6 C-26.45312169 2.80767992 -24.21479852 2.42846172 -20.25 1.875 C-18.64318359 1.64296875 -18.64318359 1.64296875 -17.00390625 1.40625 C-16.01261719 1.2721875 -15.02132812 1.138125 -14 1 C-12.1128125 0.690625 -12.1128125 0.690625 -10.1875 0.375 C-6.76502984 -0.02764355 -3.44294093 -0.0702641 0 0 Z " fill="#292929" transform="translate(265,220)"/>
<path d="M0 0 C1.32 0.66 2.64 1.32 4 2 C2.8656185 9.94067053 -2.50728227 15.50728227 -8 21 C-8.66 21.33 -9.32 21.66 -10 22 C-10 18.04 -10 14.08 -10 10 C-9.34 10 -8.68 10 -8 10 C-7.34 11.32 -6.68 12.64 -6 14 C-4.37168238 12.19038423 -4.37168238 12.19038423 -3 10 C-3.33 9.01 -3.66 8.02 -4 7 C-2.35 6.34 -0.7 5.68 1 5 C0.67 3.35 0.34 1.7 0 0 Z " fill="#010101" transform="translate(442,237)"/>
<path d="M0 0 C0.66 0.33 1.32 0.66 2 1 C1.319375 1.845625 0.63875 2.69125 -0.0625 3.5625 C-2.43065395 7.76406347 -1.82658451 9.37112672 -1 14 C-1.875 17.1875 -1.875 17.1875 -3 20 C-3.34976758 21.32911682 -3.69096017 22.66082739 -4 24 C-4.99 24 -5.98 24 -7 24 C-7 23.01 -7 22.02 -7 21 C-7.66 20.34 -8.32 19.68 -9 19 C-8.13375 18.154375 -7.2675 17.30875 -6.375 16.4375 C-4.93020894 14.85540789 -4.93020894 14.85540789 -4 13 C-4.53219091 9.17352608 -4.53219091 9.17352608 -6 6 C-4.02 4.02 -2.04 2.04 0 0 Z " fill="#000000" transform="translate(470,231)"/>
<path d="M0 0 C1.65 0.33 3.3 0.66 5 1 C5.90594807 3.61718331 5.98235878 5.10143704 5.5 7.875 C4.96376636 11.22646028 5.41081278 13.68582189 6 17 C5.67 17.99 5.34 18.98 5 20 C4.01 19.67 3.02 19.34 2 19 C2.2475 18.4225 2.495 17.845 2.75 17.25 C2.8325 16.5075 2.915 15.765 3 15 C1.14567913 12.72855926 1.14567913 12.72855926 -1 11 C0.33333333 8.33333333 1.66666667 5.66666667 3 3 C2.01 2.67 1.02 2.34 0 2 C0 1.34 0 0.68 0 0 Z " fill="#000000" transform="translate(564,256)"/>
<path d="M0 0 C12.87 0.495 12.87 0.495 26 1 C26 1.66 26 2.32 26 3 C17.75 3 9.5 3 1 3 C0.67 2.01 0.34 1.02 0 0 Z " fill="#020202" transform="translate(65,228)"/>
<path d="M0 0 C0.66 0.33 1.32 0.66 2 1 C1.814375 1.515625 1.62875 2.03125 1.4375 2.5625 C0.83752918 5.1713937 0.83752918 5.1713937 1.5 8.5 C1.93772143 11.56405002 2.02210188 13.16082812 1 16 C0.01 15.67 -0.98 15.34 -2 15 C-1.773125 14.113125 -1.54625 13.22625 -1.3125 12.3125 C-0.94548054 8.42209376 -1.73118159 7.08559304 -4 4 C-2.68 2.68 -1.36 1.36 0 0 Z " fill="#000000" transform="translate(518,231)"/>
<path d="M0 0 C-0.309375 0.639375 -0.61875 1.27875 -0.9375 1.9375 C-2.31935403 5.92049104 -2.6536543 9.81650849 -3 14 C-3.33 14 -3.66 14 -4 14 C-5 6.375 -5 6.375 -5 3 C-2.55555556 0 -2.55555556 0 0 0 Z " fill="#4A4A4A" transform="translate(218,266)"/>
<path d="M0 0 C0.99 0.33 1.98 0.66 3 1 C2.01 3.64 1.02 6.28 0 9 C-0.99 8.67 -1.98 8.34 -3 8 C-1.125 2.25 -1.125 2.25 0 0 Z " fill="#242424" transform="translate(212,255)"/>
<path d="M0 0 C0 2.31 0 4.62 0 7 C-1.98 7.99 -1.98 7.99 -4 9 C-3.4140625 2.84765625 -3.4140625 2.84765625 -3 1 C-1 0 -1 0 0 0 Z " fill="#1A1A1A" transform="translate(39,248)"/>
<path d="M0 0 C0.33 0 0.66 0 1 0 C0.67 2.97 0.34 5.94 0 9 C-0.99 9.33 -1.98 9.66 -3 10 C-2.69201674 8.51988629 -2.378482 7.04092675 -2.0625 5.5625 C-1.88847656 4.73878906 -1.71445312 3.91507813 -1.53515625 3.06640625 C-1 1 -1 1 0 0 Z " fill="#020202" transform="translate(41,194)"/>
<path d="M0 0 C0.33 0 0.66 0 1 0 C1 2.97 1 5.94 1 9 C0.01 9 -0.98 9 -2 9 C-1.125 1.125 -1.125 1.125 0 0 Z " fill="#000000" transform="translate(602,255)"/>
</svg>
