<?xml version="1.0" encoding="UTF-8"?>
<svg version="1.1" xmlns="http://www.w3.org/2000/svg" width="800" height="300">
<path d="M0 0 C264 0 528 0 800 0 C800 99 800 198 800 300 C536 300 272 300 0 300 C0 201 0 102 0 0 Z " fill="#FEFEFE" transform="translate(0,0)"/>
<path d="M0 0 C3.35899288 1.42866256 5.84699472 3.02307929 8 6 C8.36434934 9.20106921 7.87691015 11.91711275 7 15 C7.61746094 15.14953125 8.23492187 15.2990625 8.87109375 15.453125 C12.64153152 16.42167782 14.48773638 17.19219968 16.625 20.5625 C17.305625 21.7690625 17.305625 21.7690625 18 23 C18.66 23.33 19.32 23.66 20 24 C20 24.99 20 25.98 20 27 C20.66 27 21.32 27 22 27 C24.22167107 33.05910292 25.58471324 38.80993534 26.47265625 45.203125 C26.90870122 48.01431053 26.90870122 48.01431053 28.03515625 50.57421875 C29.01932824 53.04859448 29.25555407 54.92090728 29.375 57.5625 C29.67377518 60.67388293 29.81762548 61.7590051 31.75 64.3125 C32.86375 65.1478125 32.86375 65.1478125 34 66 C34.72316406 66.64839844 35.44632812 67.29679687 36.19140625 67.96484375 C39.4084628 70.2959793 42.37260653 71.37427381 46.1875 72.25 C46.92274902 72.41983398 47.65799805 72.58966797 48.41552734 72.76464844 C62.25669785 75.4575675 76.97352767 74.31400747 91 74 C91.33 73.01 91.66 72.02 92 71 C92.66418945 70.9498877 93.32837891 70.89977539 94.01269531 70.84814453 C109.69792021 69.72306461 109.69792021 69.72306461 125.2421875 67.44140625 C130.78401525 66.55439983 136.4011092 66.31473055 142 66 C142.13277344 65.23300781 142.26554688 64.46601563 142.40234375 63.67578125 C143.20153866 60.09768638 144.26582165 58.4537498 147 56 C149.80112571 55.57152953 152.14215347 55.76184612 155 56 C156.60725635 59.21451269 156.05748185 62.43612536 156 66 C156.928125 66.103125 157.85625 66.20625 158.8125 66.3125 C162 67 162 67 163.8125 68.0625 C165.80212335 71.30872758 166.51033274 74.27523379 166 78 C163.70708682 82.65204767 160.71432434 85.36245898 155.859375 87.16796875 C152.91312994 87.91151164 150.00064991 88.52699115 147 89 C147.50660156 89.85851562 147.50660156 89.85851562 148.0234375 90.734375 C149.58478542 94.35670217 148.63949529 97.16302825 148 101 C147.34 101 146.68 101 146 101 C145.67 101.99 145.34 102.98 145 104 C142.27578219 106.09555216 140.86310689 105.9905591 137.375 105.75 C134 105 134 105 132 103 C130.10362476 103.24665337 130.10362476 103.24665337 128 103.9375 C119.54474057 106.02421467 111.97356076 104.06230957 104 101 C103.41992188 101.87011719 103.41992188 101.87011719 102.828125 102.7578125 C101.75140073 104.3728989 100.67184988 105.98610359 99.58984375 107.59765625 C98.64298779 109.02840911 97.71212842 110.47028526 96.81640625 111.93359375 C95.8125 113.5625 95.8125 113.5625 94 116 C93.01 116 92.02 116 91 116 C91 119.63 91 123.26 91 127 C88.5821288 127.10826289 86.16912444 127.18739789 83.75 127.25 C83.06808594 127.28351563 82.38617188 127.31703125 81.68359375 127.3515625 C78.27222109 127.41780275 76.36828881 127.26849442 73.578125 125.234375 C71.03788668 121.63779996 71 119.41294208 71 115 C72.3125 112.625 72.3125 112.625 75 111 C76.64171172 110.74296433 78.28839436 110.51679219 79.9375 110.3125 C83.13698812 109.79340901 84.5517851 109.50500231 86.7265625 107.0546875 C89.03069891 102.97191947 90.06808823 99.65955886 91 95 C42.49 95.495 42.49 95.495 -7 96 C-5.02 98.97 -3.04 101.94 -1 105 C-0.67 105.99 -0.34 106.98 0 108 C2.99271817 108.96083447 2.99271817 108.96083447 6.5 109.5625 C8.67905713 109.98173164 10.850677 110.44822488 13 111 C14.84593445 114.69186889 14.34449699 118.96172979 14 123 C12.20212362 127.59457298 9.3604287 129.77864953 5 132 C1.06544361 132.69433348 -2.23870801 132.2854845 -6 130.875 C-8 129 -8 129 -8.5 126.0625 C-7.97013347 122.81706751 -7.20261503 121.38616629 -5 119 C-6.36125 118.13375 -6.36125 118.13375 -7.75 117.25 C-11 115 -11 115 -12.8125 113.0625 C-15.55378882 110.47785625 -18.54270679 108.96201421 -21.87890625 107.24609375 C-24 106 -24 106 -25.25170898 104.4152832 C-27.86988439 102.29580787 -29.7924858 102.82893251 -33.09375 103.109375 C-34.28871094 103.20476562 -35.48367187 103.30015625 -36.71484375 103.3984375 C-37.96394531 103.51445312 -39.21304688 103.63046875 -40.5 103.75 C-41.74910156 103.85054688 -42.99820313 103.95109375 -44.28515625 104.0546875 C-50.74190567 104.5141573 -50.74190567 104.5141573 -57 106 C-59.06145107 106.068991 -61.12501401 106.08467727 -63.1875 106.0625 C-64.27417969 106.05347656 -65.36085938 106.04445313 -66.48046875 106.03515625 C-67.31191406 106.02355469 -68.14335938 106.01195312 -69 106 C-69.13148437 106.78761719 -69.26296875 107.57523437 -69.3984375 108.38671875 C-70 111 -70 111 -71.625 112.8125 C-75.03215469 114.51607735 -77.23207391 114.51971394 -81 114 C-83.97046873 112.20976215 -86.42502414 110.14995172 -88 107 C-88.04003069 101.57984419 -87.83046319 96.59941058 -85.3125 91.75 C-83 90 -83 90 -79.9375 89.5625 C-77 90 -77 90 -74 92 C-70.87478167 92.16699232 -70.87478167 92.16699232 -68 92 C-68.64066406 91.58492188 -69.28132813 91.16984375 -69.94140625 90.7421875 C-77.45267101 85.39139084 -82.79881737 79.12374249 -85 70 C-86.8372363 55.81482673 -85.99913583 40.72535401 -77.5 28.83984375 C-73.02180639 23.3470594 -67.38075263 19.77104884 -60.4375 18.1875 C-59.633125 18.125625 -58.82875 18.06375 -58 18 C-58.0825 17.01 -58.165 16.02 -58.25 15 C-58.27825307 10.38533109 -56.35366383 6.87551072 -54 3 C-53 2 -53 2 -50.3125 1.5625 C-46.25808778 2.09798841 -44.82265133 3.31506886 -42.125 6.265625 C-40.44046611 8.86261474 -40.57244318 11.00710226 -41 14 C-40.154375 13.505 -39.30875 13.01 -38.4375 12.5 C-32.49222339 9.91882024 -25.33467495 10.44381987 -19 11 C-16.54296875 12.01953125 -16.54296875 12.01953125 -15 13 C-15.0825 11.948125 -15.165 10.89625 -15.25 9.8125 C-14.96269651 5.43112175 -14.05154419 4.05154419 -11 1 C-7.4534478 -0.7732761 -3.86296588 -0.62345335 0 0 Z " fill="#FBFBFB" transform="translate(116,154)"/>
<path d="M0 0 C2.6875 -0.3125 2.6875 -0.3125 6 0 C6.65484375 0.82371094 7.3096875 1.64742187 7.984375 2.49609375 C12.5652212 6.2996202 16.79729447 5.57827168 22.5625 5.375 C23.56474609 5.36082031 24.56699219 5.34664062 25.59960938 5.33203125 C30.47519469 5.2414631 35.34076995 5.04623593 40.20825195 4.75537109 C54.45235002 3.91878154 68.67682983 3.84573931 82.94213867 3.86962891 C85.67653585 3.87416195 88.4108666 3.87421517 91.14526367 3.86962891 C100.43094505 3.85414611 109.7147567 3.89399703 119 4 C120.89718781 4.01987976 120.89718781 4.01987976 122.83270264 4.04016113 C126.4714204 4.08922994 130.10817747 4.16795371 133.74609375 4.2578125 C135.34216209 4.27822098 135.34216209 4.27822098 136.97047424 4.29904175 C147.76141846 4.63593906 157.23194941 7.126133 165.1015625 14.796875 C168.08119031 18.25471468 170.07594107 21.88307979 172 26 C172.5878125 27.06347656 172.5878125 27.06347656 173.1875 28.1484375 C176.97476175 35.43365628 176.77162077 42.60176161 175.375 50.5625 C169.6875 64.78125 169.6875 64.78125 163.4375 67.625 C157.70072769 69.69064707 152.18507829 70.14951793 146.12109375 70.1328125 C145.35992249 70.13413177 144.59875122 70.13545105 143.81451416 70.1368103 C141.35546728 70.1387179 138.89653518 70.13241583 136.4375 70.125 C135.60618561 70.12411377 134.77487122 70.12322754 133.91836548 70.12231445 C121.58858811 70.10680173 109.30284848 69.87542505 97 69 C97 68.34 97 67.68 97 67 C96.29617188 67.16242188 95.59234375 67.32484375 94.8671875 67.4921875 C87.40965184 68.81300444 79.59253259 68.08414043 72.08203125 67.5078125 C66.67319889 67.13155169 61.29977248 66.9117425 55.87890625 66.859375 C21.79509958 66.48121764 21.79509958 66.48121764 10.8125 58.25 C9.32421875 56.69140625 9.32421875 56.69140625 8 55 C7.51144531 54.41089844 7.02289063 53.82179688 6.51953125 53.21484375 C2.55488966 47.4511211 2.40935902 41.64162749 2.45166016 34.85229492 C2.47029608 32.43228376 2.47029608 32.43228376 2 29 C0.13377036 27.1371129 0.13377036 27.1371129 -2 26 C-3.20745835 22.37762495 -3.22246029 19.0229405 -3.25 15.25 C-3.270625 14.5590625 -3.29125 13.868125 -3.3125 13.15625 C-3.35088173 8.05147958 -2.27330153 4.57053254 0 0 Z " fill="#656565" transform="translate(428,216)"/>
<path d="M0 0 C3.35899288 1.42866256 5.84699472 3.02307929 8 6 C8.36434934 9.20106921 7.87691015 11.91711275 7 15 C7.61746094 15.14953125 8.23492187 15.2990625 8.87109375 15.453125 C12.64153152 16.42167782 14.48773638 17.19219968 16.625 20.5625 C17.305625 21.7690625 17.305625 21.7690625 18 23 C18.66 23.33 19.32 23.66 20 24 C20 24.99 20 25.98 20 27 C20.66 27 21.32 27 22 27 C24.22167107 33.05910292 25.58471324 38.80993534 26.47265625 45.203125 C26.90870122 48.01431053 26.90870122 48.01431053 28.03515625 50.57421875 C29.01932824 53.04859448 29.25555407 54.92090728 29.375 57.5625 C29.67377518 60.67388293 29.81762548 61.7590051 31.75 64.3125 C32.86375 65.1478125 32.86375 65.1478125 34 66 C34.72316406 66.64839844 35.44632812 67.29679687 36.19140625 67.96484375 C39.4084628 70.2959793 42.37260653 71.37427381 46.1875 72.25 C46.92274902 72.41983398 47.65799805 72.58966797 48.41552734 72.76464844 C62.25669785 75.4575675 76.97352767 74.31400747 91 74 C91.33 73.01 91.66 72.02 92 71 C92.66418945 70.9498877 93.32837891 70.89977539 94.01269531 70.84814453 C109.69792021 69.72306461 109.69792021 69.72306461 125.2421875 67.44140625 C130.78401525 66.55439983 136.4011092 66.31473055 142 66 C142.13277344 65.23300781 142.26554688 64.46601563 142.40234375 63.67578125 C143.20153866 60.09768638 144.26582165 58.4537498 147 56 C149.80112571 55.57152953 152.14215347 55.76184612 155 56 C156.60725635 59.21451269 156.05748185 62.43612536 156 66 C156.928125 66.103125 157.85625 66.20625 158.8125 66.3125 C162 67 162 67 163.8125 68.0625 C165.80212335 71.30872758 166.51033274 74.27523379 166 78 C163.70708682 82.65204767 160.71432434 85.36245898 155.859375 87.16796875 C152.91312994 87.91151164 150.00064991 88.52699115 147 89 C147.50660156 89.85851562 147.50660156 89.85851562 148.0234375 90.734375 C149.58478542 94.35670217 148.63949529 97.16302825 148 101 C147.34 101 146.68 101 146 101 C145.67 101.99 145.34 102.98 145 104 C142.27578219 106.09555216 140.86310689 105.9905591 137.375 105.75 C134 105 134 105 132 103 C130.10362476 103.24665337 130.10362476 103.24665337 128 103.9375 C119.54474057 106.02421467 111.97356076 104.06230957 104 101 C103.41992188 101.87011719 103.41992188 101.87011719 102.828125 102.7578125 C101.75140073 104.3728989 100.67184988 105.98610359 99.58984375 107.59765625 C98.64298779 109.02840911 97.71212842 110.47028526 96.81640625 111.93359375 C95.8125 113.5625 95.8125 113.5625 94 116 C93.01 116 92.02 116 91 116 C91 119.63 91 123.26 91 127 C88.5821288 127.10826289 86.16912444 127.18739789 83.75 127.25 C83.06808594 127.28351563 82.38617188 127.31703125 81.68359375 127.3515625 C78.27222109 127.41780275 76.36828881 127.26849442 73.578125 125.234375 C71.03788668 121.63779996 71 119.41294208 71 115 C72.3125 112.625 72.3125 112.625 75 111 C76.64171172 110.74296433 78.28839436 110.51679219 79.9375 110.3125 C83.13698812 109.79340901 84.5517851 109.50500231 86.7265625 107.0546875 C89.03069891 102.97191947 90.06808823 99.65955886 91 95 C42.49 95.495 42.49 95.495 -7 96 C-5.02 98.97 -3.04 101.94 -1 105 C-0.67 105.99 -0.34 106.98 0 108 C2.99271817 108.96083447 2.99271817 108.96083447 6.5 109.5625 C8.67905713 109.98173164 10.850677 110.44822488 13 111 C14.84593445 114.69186889 14.34449699 118.96172979 14 123 C12.20212362 127.59457298 9.3604287 129.77864953 5 132 C1.06544361 132.69433348 -2.23870801 132.2854845 -6 130.875 C-8 129 -8 129 -8.5 126.0625 C-7.97013347 122.81706751 -7.20261503 121.38616629 -5 119 C-6.36125 118.13375 -6.36125 118.13375 -7.75 117.25 C-11 115 -11 115 -12.8125 113.0625 C-15.55378882 110.47785625 -18.54270679 108.96201421 -21.87890625 107.24609375 C-24 106 -24 106 -25.25170898 104.4152832 C-27.86988439 102.29580787 -29.7924858 102.82893251 -33.09375 103.109375 C-34.28871094 103.20476562 -35.48367187 103.30015625 -36.71484375 103.3984375 C-37.96394531 103.51445312 -39.21304688 103.63046875 -40.5 103.75 C-41.74910156 103.85054688 -42.99820313 103.95109375 -44.28515625 104.0546875 C-50.74190567 104.5141573 -50.74190567 104.5141573 -57 106 C-59.06145107 106.068991 -61.12501401 106.08467727 -63.1875 106.0625 C-64.27417969 106.05347656 -65.36085938 106.04445313 -66.48046875 106.03515625 C-67.31191406 106.02355469 -68.14335938 106.01195312 -69 106 C-69.13148437 106.78761719 -69.26296875 107.57523437 -69.3984375 108.38671875 C-70 111 -70 111 -71.625 112.8125 C-75.03215469 114.51607735 -77.23207391 114.51971394 -81 114 C-83.97046873 112.20976215 -86.42502414 110.14995172 -88 107 C-88.04003069 101.57984419 -87.83046319 96.59941058 -85.3125 91.75 C-83 90 -83 90 -79.9375 89.5625 C-77 90 -77 90 -74 92 C-70.87478167 92.16699232 -70.87478167 92.16699232 -68 92 C-68.64066406 91.58492188 -69.28132813 91.16984375 -69.94140625 90.7421875 C-77.45267101 85.39139084 -82.79881737 79.12374249 -85 70 C-86.8372363 55.81482673 -85.99913583 40.72535401 -77.5 28.83984375 C-73.02180639 23.3470594 -67.38075263 19.77104884 -60.4375 18.1875 C-59.633125 18.125625 -58.82875 18.06375 -58 18 C-58.0825 17.01 -58.165 16.02 -58.25 15 C-58.27825307 10.38533109 -56.35366383 6.87551072 -54 3 C-53 2 -53 2 -50.3125 1.5625 C-46.25808778 2.09798841 -44.82265133 3.31506886 -42.125 6.265625 C-40.44046611 8.86261474 -40.57244318 11.00710226 -41 14 C-40.154375 13.505 -39.30875 13.01 -38.4375 12.5 C-32.49222339 9.91882024 -25.33467495 10.44381987 -19 11 C-16.54296875 12.01953125 -16.54296875 12.01953125 -15 13 C-15.0825 11.948125 -15.165 10.89625 -15.25 9.8125 C-14.96269651 5.43112175 -14.05154419 4.05154419 -11 1 C-7.4534478 -0.7732761 -3.86296588 -0.62345335 0 0 Z M-12 8 C-12.41518709 10.80770268 -12.24244863 13.13910614 -12 16 C-12.99257812 15.83886719 -13.98515625 15.67773438 -15.0078125 15.51171875 C-18.96071825 14.95028292 -22.88594906 14.80865328 -26.875 14.8125 C-27.92010742 14.8115332 -27.92010742 14.8115332 -28.98632812 14.81054688 C-34.27769701 14.86469111 -38.9283778 15.55096509 -44 17 C-43.896875 15.783125 -43.79375 14.56625 -43.6875 13.3125 C-43.65408479 9.54994773 -43.90669702 9.11196358 -46.5 6 C-47.325 5.34 -48.15 4.68 -49 4 C-51.93576279 5.012332 -52.97512741 5.96357942 -54.75 8.5625 C-56.30903894 12.84985708 -56.27038392 16.49360134 -56 21 C-57.9490625 21.309375 -57.9490625 21.309375 -59.9375 21.625 C-66.93133135 23.2110027 -72.77940325 26.71577659 -76.875 32.6875 C-81.32436534 40.92421439 -82.27617342 48.95354981 -82.375 58.1875 C-82.38893799 59.03086914 -82.40287598 59.87423828 -82.41723633 60.74316406 C-82.34710918 70.0218059 -79.24988626 77.1407144 -73 84 C-64.27207873 92.48391487 -54.49416908 92.23061224 -42.9296875 92.0703125 C-41.96289062 92.04710937 -40.99609375 92.02390625 -40 92 C-47.07977236 93.46135582 -54.03245284 94.32883436 -61.25 94.75390625 C-64.08839777 94.90146001 -64.08839777 94.90146001 -67 96 C-71.30379794 96.39849981 -73.31312143 96.46766201 -76.9375 94 C-77.618125 93.34 -78.29875 92.68 -79 92 C-82.16115776 93.36983503 -82.9927092 93.9890638 -85 97 C-85.8476609 101.76474651 -85.65866879 105.05074203 -82.875 109.0625 C-79.54330259 111.30777434 -77.93672752 111.61237984 -74 111 C-73.01 110.01 -73.01 110.01 -72 109 C-72.32041397 106.39719432 -72.32041397 106.39719432 -73 104 C-56.67638054 102.22209187 -40.35126986 100.50417526 -24 99 C-23.86948242 99.63156006 -23.73896484 100.26312012 -23.60449219 100.91381836 C-22.80307486 103.67961442 -21.71553965 104.15825467 -19.25 105.5625 C-18.528125 105.9853125 -17.80625 106.408125 -17.0625 106.84375 C-16.381875 107.2253125 -15.70125 107.606875 -15 108 C-12.30214103 109.53287442 -10.22167444 110.77117477 -8.0625 113 C-5.61538491 115.37296009 -3.08665282 116.59697599 0 118 C-0.804375 118.7425 -1.60875 119.485 -2.4375 120.25 C-4.76988591 122.75304829 -5.63534394 123.7180955 -6 127 C-2.58044297 129.42218623 0.15505555 128.99895628 4.09765625 128.484375 C6.31011969 128.03320659 6.31011969 128.03320659 9 126 C11.56810865 121.23065537 12.41370507 118.26926434 11 113 C10.09507813 112.92652344 10.09507813 112.92652344 9.171875 112.8515625 C7.97304687 112.73941406 7.97304687 112.73941406 6.75 112.625 C5.96109375 112.55539062 5.1721875 112.48578125 4.359375 112.4140625 C1.82346675 111.969019 0.14714116 111.42225162 -2 110 C-3.03125 108.23046875 -3.03125 108.23046875 -4 106 C-5.14489576 104.09094033 -6.31319795 102.19579393 -7.5 100.3125 C-8.1084375 99.33925781 -8.716875 98.36601562 -9.34375 97.36328125 C-10.78368551 94.9099091 -10.78368551 94.9099091 -13 94 C-13 93.34 -13 92.68 -13 92 C-2.08839739 91.86784824 8.82322381 91.73735798 19.73486996 91.60884857 C24.80445752 91.54909345 29.87403766 91.48881767 34.94360352 91.42724609 C73.66268996 90.95783328 73.66268996 90.95783328 89.12890625 90.90625 C90.1232518 90.8997644 91.11759735 90.89327881 92.14207458 90.88659668 C93.02661819 90.88599243 93.9111618 90.88538818 94.82250977 90.88476562 C95.93977196 90.88168396 95.93977196 90.88168396 97.0796051 90.87854004 C99 91 99 91 102 92 C102.33 92.66 102.66 93.32 103 94 C100.03 94 97.06 94 94 94 C93.59007812 95.10859375 93.18015625 96.2171875 92.7578125 97.359375 C92.21365899 98.82296029 91.66938165 100.28649955 91.125 101.75 C90.85558594 102.47960937 90.58617187 103.20921875 90.30859375 103.9609375 C89.02634981 107.40110416 87.75382129 110.76479567 86 114 C85.21753906 113.98839844 84.43507812 113.97679687 83.62890625 113.96484375 C82.11103516 113.95130859 82.11103516 113.95130859 80.5625 113.9375 C79.55316406 113.92589844 78.54382813 113.91429687 77.50390625 113.90234375 C75.05978933 113.71387324 75.05978933 113.71387324 74 115 C73.58119043 119.05832662 73.58119043 119.05832662 75.12890625 122.68359375 C77.83394418 124.58672065 79.92291068 124.29280933 83.1875 124.1875 C84.81751953 124.14689453 84.81751953 124.14689453 86.48046875 124.10546875 C87.31191406 124.07066406 88.14335937 124.03585937 89 124 C89 122.865625 89 121.73125 89 120.5625 C89.60021565 115.43338445 92.46360821 112.73691201 95.9921875 109.17578125 C98.06663274 106.92779293 99.46915101 104.63743412 101 102 C101.66 101.34 102.32 100.68 103 100 C103.16687448 97.41645782 103.16687448 97.41645782 103 95 C103.99 95 104.98 95 106 95 C106.13728516 95.93585938 106.13728516 95.93585938 106.27734375 96.890625 C106.88084822 99.46196337 106.88084822 99.46196337 110.5625 100.75 C115.97033956 102.52036608 120.70554933 102.76481689 126.1875 100.9375 C129.33467248 99.88844251 130.88249382 99.96083127 134 101 C134.66 101.66 135.32 102.32 136 103 C139.73781379 102.8640795 142.13526148 102.75664621 145 100.25 C146.27491703 97.38143668 146.02973923 95.93079626 145 93 C144.34 92.67 143.68 92.34 143 92 C142.375 89.9375 142.375 89.9375 142 88 C139.36 88 136.72 88 134 88 C133.67 89.65 133.34 91.3 133 93 C132.46375 92.97679687 131.9275 92.95359375 131.375 92.9296875 C123.13802201 92.74002024 115.13780076 93.86918898 107 95 C107.33 94.34 107.66 93.68 108 93 C110.25454769 92.55375705 112.53128164 92.21707259 114.8125 91.9375 C120.45783807 91.23283224 120.45783807 91.23283224 126 90 C126.845625 89.87625 127.69125 89.7525 128.5625 89.625 C131.05658996 89.24367189 131.05658996 89.24367189 132.25 87.45703125 C134.90461829 85.24682451 137.05456441 85.85507363 140.4375 86.0625 C147.47620715 86.21583283 153.70155998 85.28614262 160 82 C161.89376329 80.15525391 161.89376329 80.15525391 163 78 C162.76261647 74.12273569 162.17282078 72.25923117 160 69 C157.79274927 68.63637182 157.79274927 68.63637182 155.375 68.8125 C154.55773437 68.83957031 153.74046875 68.86664063 152.8984375 68.89453125 C151.95871094 68.94673828 151.95871094 68.94673828 151 69 C151.515625 68.29875 152.03125 67.5975 152.5625 66.875 C154.30443767 63.39112465 153.94693195 61.7016431 153 58 C150.37344067 58.35494045 148.42031739 58.72461964 146.1875 60.1875 C144.49614456 62.76904252 144.92227469 64.97689471 145 68 C138.48885505 69.09762345 132.02941245 70.0610712 125.4375 70.5 C120.22881445 70.85641666 115.17680853 71.54980983 110.0390625 72.46484375 C105.83756269 73.20469655 101.61900308 73.8171544 97.3984375 74.4375 C95.53675579 74.74564042 93.67650446 75.07431852 91.83740234 75.49682617 C73.89853975 79.55274245 50.95156681 79.22552541 34.1875 71.0625 C30.13424907 68.41503246 28.25334555 66.50757221 27 61.8125 C26.6324586 59.54695184 26.30489811 57.27482577 26 55 C25.53668352 52.43141102 25.03930234 49.8713868 24.53125 47.3112793 C24.1836797 45.55378113 23.84977342 43.79351155 23.53125 42.03051758 C21.80742126 32.86818826 17.72660948 25.54248695 11 19 C8.36435132 17.90511587 6.89764916 17.87926462 4 18 C4.2784375 16.39125 4.2784375 16.39125 4.5625 14.75 C5.1938064 10.67461693 5.1938064 10.67461693 4 7 C1.20028235 4.70932192 -1.01221104 3.21683172 -4.5625 2.4375 C-8.33347256 3.30772444 -9.74045065 4.90118946 -12 8 Z " fill="#151515" transform="translate(116,154)"/>
<path d="M0 0 C2.6875 -0.3125 2.6875 -0.3125 6 0 C6.65484375 0.82371094 7.3096875 1.64742187 7.984375 2.49609375 C12.5652212 6.2996202 16.79729447 5.57827168 22.5625 5.375 C23.56474609 5.36082031 24.56699219 5.34664062 25.59960938 5.33203125 C30.47519469 5.2414631 35.34076995 5.04623593 40.20825195 4.75537109 C54.45235002 3.91878154 68.67682983 3.84573931 82.94213867 3.86962891 C85.67653585 3.87416195 88.4108666 3.87421517 91.14526367 3.86962891 C100.43094505 3.85414611 109.7147567 3.89399703 119 4 C120.89718781 4.01987976 120.89718781 4.01987976 122.83270264 4.04016113 C126.4714204 4.08922994 130.10817747 4.16795371 133.74609375 4.2578125 C135.34216209 4.27822098 135.34216209 4.27822098 136.97047424 4.29904175 C147.76141846 4.63593906 157.23194941 7.126133 165.1015625 14.796875 C168.08119031 18.25471468 170.07594107 21.88307979 172 26 C172.5878125 27.06347656 172.5878125 27.06347656 173.1875 28.1484375 C176.97476175 35.43365628 176.77162077 42.60176161 175.375 50.5625 C169.6875 64.78125 169.6875 64.78125 163.4375 67.625 C157.70072769 69.69064707 152.18507829 70.14951793 146.12109375 70.1328125 C145.35992249 70.13413177 144.59875122 70.13545105 143.81451416 70.1368103 C141.35546728 70.1387179 138.89653518 70.13241583 136.4375 70.125 C135.60618561 70.12411377 134.77487122 70.12322754 133.91836548 70.12231445 C121.58858811 70.10680173 109.30284848 69.87542505 97 69 C97 68.34 97 67.68 97 67 C96.29617188 67.16242188 95.59234375 67.32484375 94.8671875 67.4921875 C87.40965184 68.81300444 79.59253259 68.08414043 72.08203125 67.5078125 C66.67319889 67.13155169 61.29977248 66.9117425 55.87890625 66.859375 C21.79509958 66.48121764 21.79509958 66.48121764 10.8125 58.25 C9.32421875 56.69140625 9.32421875 56.69140625 8 55 C7.51144531 54.41089844 7.02289063 53.82179688 6.51953125 53.21484375 C2.55488966 47.4511211 2.40935902 41.64162749 2.45166016 34.85229492 C2.47029608 32.43228376 2.47029608 32.43228376 2 29 C0.13377036 27.1371129 0.13377036 27.1371129 -2 26 C-3.20745835 22.37762495 -3.22246029 19.0229405 -3.25 15.25 C-3.270625 14.5590625 -3.29125 13.868125 -3.3125 13.15625 C-3.35088173 8.05147958 -2.27330153 4.57053254 0 0 Z M3 3 C-0.71059486 9.13054803 -1.71075839 15.44620807 -0.3125 22.4375 C0.78058442 25.09159104 0.78058442 25.09159104 3 26.3125 C6.24734023 29.05244332 6.35310018 32.93985245 7 37 C9.64573501 34.77122275 9.64573501 34.77122275 12 32 C11.95502158 29.72476911 11.95502158 29.72476911 11 28 C12.32 27.34 13.64 26.68 15 26 C14.67 24.35 14.34 22.7 14 21 C14.99 21.99 15.98 22.98 17 24 C15.39680795 28.66383143 13.08350522 33.14135949 10 37 C9.30648438 37.30550781 8.61296875 37.61101562 7.8984375 37.92578125 C5.77741393 38.86585583 5.77741393 38.86585583 5.07421875 41.29296875 C4.97884902 44.77145414 5.96425246 46.39079722 7.8125 49.3125 C8.35519531 50.19550781 8.89789063 51.07851563 9.45703125 51.98828125 C9.96621094 52.65214844 10.47539062 53.31601562 11 54 C11.66 54 12.32 54 13 54 C13.33 54.99 13.66 55.98 14 57 C16.36401089 58.26080581 18.47896761 59.14504119 21 60 C21.81339844 60.28230469 22.62679688 60.56460938 23.46484375 60.85546875 C33.75725957 63.93020167 46.48210319 64.63478627 57 62 C57.53394179 60.5882217 58.05165104 59.17029756 58.5625 57.75 C58.85253906 56.96109375 59.14257812 56.1721875 59.44140625 55.359375 C60.0610168 52.74227867 59.94248701 51.4926979 59 49 C58.34 48.01 57.68 47.02 57 46 C57.53625 45.443125 58.0725 44.88625 58.625 44.3125 C59.07875 43.549375 59.5325 42.78625 60 42 C59.26145768 39.36186139 59.26145768 39.36186139 58 37 C58 36.34 58 35.68 58 35 C58.99 35.33 59.98 35.66 61 36 C61.94002987 40.38680608 61.74651537 43.61422219 61 48 C61.185625 48.804375 61.37125 49.60875 61.5625 50.4375 C62.16494838 53.96612624 61.00559799 56.60610677 60 60 C60.33 60.99 60.66 61.98 61 63 C62.06927734 63.09087891 62.06927734 63.09087891 63.16015625 63.18359375 C71.41188054 63.9054808 71.41188054 63.9054808 75.5 64.5625 C82.43977973 65.42997247 89.12334905 65.23427068 96 64 C96.66 64.33 97.32 64.66 98 65 C100.56845219 65.03037021 103.120762 64.93311185 105.6875 64.83984375 C108 65 108 65 110 67 C112.52377655 67.27808217 112.52377655 67.27808217 115.4453125 67.1953125 C116.52167969 67.18886719 117.59804688 67.18242187 118.70703125 67.17578125 C119.83496094 67.15902344 120.96289062 67.14226562 122.125 67.125 C123.26066406 67.11597656 124.39632812 67.10695313 125.56640625 67.09765625 C128.37781299 67.07403098 131.18880298 67.04109013 134 67 C134 66.34 134 65.68 134 65 C134.99 64.67 135.98 64.34 137 64 C138.56028793 61.15102982 139.46843274 58.20059445 140 55 C139.01919106 52.38017854 139.01919106 52.38017854 137 51 C136.34 51 135.68 51 135 51 C135.66 50.236875 136.32 49.47375 137 48.6875 C139.29850538 46.15722061 139.29850538 46.15722061 139 43 C137.56249809 41.31201173 137.56249809 41.31201173 136 40 C137.32 40.33 138.64 40.66 140 41 C140.90594807 43.61718331 140.98235878 45.10143704 140.5 47.875 C139.82038781 50.94518924 139.82038781 50.94518924 140.5625 53.75 C141.18730226 58.39138818 140.07980006 62.48447249 139 67 C149.65771916 67.35857747 158.40464935 67.06190317 166.59375 59.53515625 C171.66979043 54.24761413 174.03554301 48.43102855 173.9765625 41.078125 C172.70835554 30.19972752 166.40917284 21.74595342 159 14 C158.01 13.67 157.02 13.34 156 13 C154.39819908 16.38766195 154.39819908 16.38766195 154.125 20.0625 C154.8950733 22.17907441 154.8950733 22.17907441 157.0625 23.5625 C160.20275922 27.5131487 159.47149501 32.13046134 159 37 C158.67 37.66 158.34 38.32 158 39 C157.01 39.33 156.02 39.66 155 40 C155.165 38.9275 155.33 37.855 155.5 36.75 C156.3352003 30.76189263 156.3352003 30.76189263 155 25 C152.50965614 23.70339566 152.50965614 23.70339566 150 23 C150.99 19.7 151.98 16.4 153 13 C146.68439027 7.21069108 141.08633074 7.22890562 132.75 7.1875 C130.97496094 7.14979492 130.97496094 7.14979492 129.1640625 7.11132812 C125.10889692 7.03050193 121.05589005 7 117 7 C116.97111854 10.31248187 116.95324201 13.62493167 116.9375 16.9375 C116.92493164 18.35579102 116.92493164 18.35579102 116.91210938 19.80273438 C116.90727539 21.15141602 116.90727539 21.15141602 116.90234375 22.52734375 C116.89448853 23.77632446 116.89448853 23.77632446 116.88647461 25.05053711 C116.78356708 27.00516798 116.78356708 27.00516798 118 28 C118.26293056 32.03160191 118.29404844 33.55892734 116 37 C113.875 37.6875 113.875 37.6875 112 38 C113.75 34.125 113.75 34.125 116 33 C115.89171875 31.86111328 115.89171875 31.86111328 115.78125 30.69921875 C115.6884375 29.70535156 115.595625 28.71148437 115.5 27.6875 C115.4071875 26.70136719 115.314375 25.71523437 115.21875 24.69921875 C115 22 115 22 115 19 C114.34 19 113.68 19 113 19 C113.556875 17.63875 113.556875 17.63875 114.125 16.25 C115.25131743 13.16467339 115.25131743 13.16467339 114.375 10.75 C112.21694327 8.00338235 109.96584178 7.12449559 106.52636719 6.68115234 C105.62563477 6.64973145 104.72490234 6.61831055 103.796875 6.5859375 C102.8171875 6.54726562 101.8375 6.50859375 100.828125 6.46875 C99.30445313 6.42234375 99.30445313 6.42234375 97.75 6.375 C96.203125 6.31699219 96.203125 6.31699219 94.625 6.2578125 C92.0835106 6.16368326 89.54202567 6.07805021 87 6 C87.495 6.99 87.495 6.99 88 8 C88.66 8 89.32 8 90 8 C90.67228569 12.48190462 91.12701027 15.63283522 90 20 C90.29235267 22.33882138 90.62599214 24.67284 91 27 C91 28.32 91 29.64 91 31 C90.01 30.01 90.01 30.01 89 29 C89.2784375 27.824375 89.2784375 27.824375 89.5625 26.625 C90.29178752 23.94859806 90.29178752 23.94859806 88.6875 21.6875 C88.130625 21.130625 87.57375 20.57375 87 20 C86.34 20 85.68 20 85 20 C85.680625 19.443125 86.36125 18.88625 87.0625 18.3125 C89.25510881 16.18317288 89.25510881 16.18317288 89.0625 13.5 C87.56544541 9.97751862 86.33969805 8.96356171 83 7 C79.03453696 6.4431461 75.1217931 6.53050618 71.125 6.625 C70.0119751 6.63789063 68.8989502 6.65078125 67.75219727 6.6640625 C59.38070792 6.81952868 51.23850267 7.4996548 43 9 C43.04253906 10.093125 43.08507812 11.18625 43.12890625 12.3125 C43 16 43 16 40.9375 19 C38.43457181 22.87550172 39.20915027 24.57124149 40 29 C39.125 32.1875 39.125 32.1875 38 35 C37.65023242 36.32911682 37.30903983 37.66082739 37 39 C35.79371992 36.66785852 34.8345262 34.50357861 34 32 C34.639375 31.7525 35.27875 31.505 35.9375 31.25 C38.12493715 30.18550582 38.12493715 30.18550582 38.875 28.125 C39.02904228 25.50628117 38.24534014 24.27091436 37 22 C37 21.01 37 20.02 37 19 C39 17.3125 39 17.3125 41 16 C40.81171228 13.55519921 40.81171228 13.55519921 40 11 C36.96969085 8.99095526 34.40823739 8.73084337 30.82421875 8.65625 C29.83099609 8.62660156 28.83777344 8.59695312 27.81445312 8.56640625 C26.26661133 8.53353516 26.26661133 8.53353516 24.6875 8.5 C8.56797015 8.15378142 8.56797015 8.15378142 4.0625 4.375 C3.711875 3.92125 3.36125 3.4675 3 3 Z " fill="#111111" transform="translate(428,216)"/>
<path d="M0 0 C1.85625 0.1546875 1.85625 0.1546875 3.75 0.3125 C5.35725635 3.52701269 4.80748185 6.74862536 4.75 10.3125 C5.678125 10.415625 6.60625 10.51875 7.5625 10.625 C10.75 11.3125 10.75 11.3125 12.5625 12.375 C14.55212335 15.62122758 15.26033274 18.58773379 14.75 22.3125 C12.45708682 26.96454767 9.46432434 29.67495898 4.609375 31.48046875 C1.66312994 32.22401164 -1.24935009 32.83949115 -4.25 33.3125 C-3.74339844 34.17101562 -3.74339844 34.17101562 -3.2265625 35.046875 C-1.66521458 38.66920217 -2.61050471 41.47552825 -3.25 45.3125 C-3.91 45.3125 -4.57 45.3125 -5.25 45.3125 C-5.58 46.3025 -5.91 47.2925 -6.25 48.3125 C-8.97421781 50.40805216 -10.38689311 50.3030591 -13.875 50.0625 C-17.25 49.3125 -17.25 49.3125 -19.25 47.3125 C-21.14637524 47.55915337 -21.14637524 47.55915337 -23.25 48.25 C-31.70525943 50.33671467 -39.27643924 48.37480957 -47.25 45.3125 C-47.83007812 46.18261719 -47.83007812 46.18261719 -48.421875 47.0703125 C-49.49859927 48.6853989 -50.57815012 50.29860359 -51.66015625 51.91015625 C-52.60701221 53.34090911 -53.53787158 54.78278526 -54.43359375 56.24609375 C-55.4375 57.875 -55.4375 57.875 -57.25 60.3125 C-58.24 60.3125 -59.23 60.3125 -60.25 60.3125 C-60.25 63.9425 -60.25 67.5725 -60.25 71.3125 C-62.6678712 71.42076289 -65.08087556 71.49989789 -67.5 71.5625 C-68.18191406 71.59601563 -68.86382812 71.62953125 -69.56640625 71.6640625 C-73.01474107 71.73102046 -74.88511791 71.58382258 -77.6875 69.5 C-79.6206303 66.79361758 -79.95183526 64.59231213 -80.25 61.3125 C-79.26 60.8175 -79.26 60.8175 -78.25 60.3125 C-77.26 63.7775 -77.26 63.7775 -76.25 67.3125 C-69.32 67.8075 -69.32 67.8075 -62.25 68.3125 C-62.415 67.178125 -62.58 66.04375 -62.75 64.875 C-62.78793149 60.59632846 -61.2871287 58.72989709 -58.4375 55.625 C-57.72980469 54.91988281 -57.02210938 54.21476562 -56.29296875 53.48828125 C-54.18511892 51.24340103 -52.78733881 48.96870431 -51.25 46.3125 C-50.59 45.6525 -49.93 44.9925 -49.25 44.3125 C-48.60232207 41.74188689 -48.60232207 41.74188689 -48.25 39.3125 C-47.26 39.3125 -46.27 39.3125 -45.25 39.3125 C-44.92 40.3025 -44.59 41.2925 -44.25 42.3125 C-37.708713 45.41100437 -32.12655195 46.60468398 -25.0625 44.25 C-21.91532752 43.20094251 -20.36750618 43.27333127 -17.25 44.3125 C-16.59 44.9725 -15.93 45.6325 -15.25 46.3125 C-11.72105052 46.22506309 -11.72105052 46.22506309 -8.25 45.3125 C-5.88019987 42.35872502 -5.88019987 42.35872502 -6.25 38.3125 C-7.735 37.3225 -7.735 37.3225 -9.25 36.3125 C-9.25 34.9925 -9.25 33.6725 -9.25 32.3125 C-11.89 32.6425 -14.53 32.9725 -17.25 33.3125 C-17.58 34.6325 -17.91 35.9525 -18.25 37.3125 C-21.27038089 37.65044471 -24.29119756 37.98298433 -27.3125 38.3125 C-28.16005859 38.40789062 -29.00761719 38.50328125 -29.88085938 38.6015625 C-34.70472589 39.12306158 -39.39836264 39.41782727 -44.25 39.3125 C-43.92 38.3225 -43.59 37.3325 -43.25 36.3125 C-41.80367187 36.11333984 -41.80367187 36.11333984 -40.328125 35.91015625 C-39.06484375 35.73355469 -37.8015625 35.55695313 -36.5 35.375 C-35.24703125 35.20097656 -33.9940625 35.02695313 -32.703125 34.84765625 C-30.14428691 34.45109424 -27.74872397 33.94853883 -25.25 33.3125 C-23.58376361 33.27463099 -21.91602403 33.26622155 -20.25 33.3125 C-19.92 32.3225 -19.59 31.3325 -19.25 30.3125 C-16.40085918 28.88792959 -14.04984008 29.37034318 -10.875 29.5 C-3.82804366 29.55811923 2.40955821 28.49335922 8.75 25.3125 C11.09111027 22.49191514 11.09111027 22.49191514 10.4375 19.3125 C9.79448305 16.28540882 9.79448305 16.28540882 8.75 13.3125 C5.78 13.3125 2.81 13.3125 -0.25 13.3125 C0.08 12.61125 0.41 11.91 0.75 11.1875 C1.84044562 8.05246884 1.90322643 5.60686818 1.75 2.3125 C-1.16517292 3.38651108 -3.02810176 4.09060176 -5.25 6.3125 C-5.64764263 8.30071313 -5.98775349 10.30194339 -6.25 12.3125 C-7.24 11.9825 -8.23 11.6525 -9.25 11.3125 C-8.66123496 4.98327577 -7.00352818 0.01239563 0 0 Z " fill="#111111" transform="translate(267.25,209.6875)"/>
<path d="M0 0 C3.52343021 -0.04377963 7.04671952 -0.07491375 10.5703125 -0.10186768 C12.09507202 -0.12453453 12.09507202 -0.12453453 13.65063477 -0.1476593 C14.57416748 -0.15180344 15.4977002 -0.15594757 16.44921875 -0.16021729 C17.24013916 -0.16790634 18.03105957 -0.1755954 18.84594727 -0.18351746 C21.27845732 0.07976982 22.90024542 0.83781873 25.0078125 2.05047607 C25.0078125 2.71047607 25.0078125 3.37047607 25.0078125 4.05047607 C22.0378125 4.05047607 19.0678125 4.05047607 16.0078125 4.05047607 C15.76998047 5.06754639 15.76998047 5.06754639 15.52734375 6.10516357 C13.81463582 12.93707033 11.3936332 18.88105574 8.0078125 25.05047607 C7.23695313 25.01567139 6.46609375 24.9808667 5.671875 24.94500732 C4.16753906 24.90440186 4.16753906 24.90440186 2.6328125 24.86297607 C1.63507813 24.82817139 0.63734375 24.7933667 -0.390625 24.75750732 C-1.67839844 24.90252686 -1.67839844 24.90252686 -2.9921875 25.05047607 C-3.9821875 26.53547607 -3.9821875 26.53547607 -4.9921875 28.05047607 C-5.6521875 27.72047607 -6.3121875 27.39047607 -6.9921875 27.05047607 C-5.54833723 22.47828356 -5.54833723 22.47828356 -3.3671875 20.80047607 C-0.9921875 20.05047607 -0.9921875 20.05047607 2.9453125 19.98797607 C5.81640631 19.7040806 6.71121994 19.40158933 8.6015625 17.16375732 C10.94385689 13.04431515 12.06475123 9.7657824 13.0078125 5.05047607 C-19.3321875 5.05047607 -51.6721875 5.05047607 -84.9921875 5.05047607 C-85.3221875 4.39047607 -85.6521875 3.73047607 -85.9921875 3.05047607 C-85.28191406 2.98989014 -84.57164063 2.9293042 -83.83984375 2.86688232 C-82.46119141 2.74119873 -82.46119141 2.74119873 -81.0546875 2.61297607 C-80.13816406 2.53176514 -79.22164063 2.4505542 -78.27734375 2.36688232 C-76.03059018 2.29002631 -76.03059018 2.29002631 -74.9921875 1.05047607 C-72.91663894 0.9264365 -70.83688494 0.87245649 -68.7578125 0.84515381 C-67.77907417 0.83030441 -67.77907417 0.83030441 -66.78056335 0.81515503 C-64.60114236 0.78334274 -62.4217012 0.75864819 -60.2421875 0.73406982 C-58.71166474 0.71345991 -57.18114716 0.69246249 -55.65063477 0.6710968 C-52.41897614 0.62699291 -49.18729842 0.58613602 -45.95556641 0.54779053 C-41.89126579 0.49952827 -37.82706514 0.44575022 -33.76286316 0.38985252 C-25.25611964 0.27304032 -16.7493379 0.17494599 -8.2421875 0.09313965 C-5.49469182 0.06652893 -2.74742213 0.03473762 0 0 Z " fill="#212121" transform="translate(193.9921875,243.94952392578125)"/>
<path d="M0 0 C4.95 0.33 9.9 0.66 15 1 C15 1.33 15 1.66 15 2 C10.545 2.495 10.545 2.495 6 3 C6.97270601 6.71396841 8.12631819 9.376162 10.625 12.25 C13 15 13 15 13 17 C13.92683594 17.19335938 14.85367188 17.38671875 15.80859375 17.5859375 C17.00613281 17.84632813 18.20367187 18.10671875 19.4375 18.375 C21.22994141 18.75785156 21.22994141 18.75785156 23.05859375 19.1484375 C24.02925781 19.42945313 24.99992187 19.71046875 26 20 C27.84593445 23.69186889 27.34449699 27.96172979 27 32 C25.20212362 36.59457298 22.3604287 38.77864953 18 41 C13.92932689 41.71835408 10.7428689 41.37143445 7 39.5 C6.34 39.005 5.68 38.51 5 38 C5.33 36.35 5.66 34.7 6 33 C6.66 33.99 7.32 34.98 8 36 C13.40534019 37.17115704 16.80744353 37.2068365 22 35 C23.43966791 28.55123906 23.43966791 28.55123906 24 22 C23.46375 22.20625 22.9275 22.4125 22.375 22.625 C19.01398052 23.15568729 17.09268121 22.38855075 14 21 C9.89718669 17.61517902 7.27782758 13.51552726 4.42578125 9.09375 C2.84714093 6.7755275 1.10030985 4.85796641 -1 3 C-0.67 2.01 -0.34 1.02 0 0 Z " fill="#131313" transform="translate(103,245)"/>
<path d="M0 0 C0.33 0.99 0.66 1.98 1 3 C0.08476563 3.13277344 -0.83046875 3.26554688 -1.7734375 3.40234375 C-2.96195313 3.57894531 -4.15046875 3.75554687 -5.375 3.9375 C-6.55835937 4.11152344 -7.74171875 4.28554687 -8.9609375 4.46484375 C-11.90702381 4.83462786 -11.90702381 4.83462786 -14 6 C-14.46651207 8.12576782 -14.46651207 8.12576782 -14.625 10.5625 C-14.69976562 11.38878906 -14.77453125 12.21507812 -14.8515625 13.06640625 C-14.90054688 13.70449219 -14.94953125 14.34257812 -15 15 C-14.34 15 -13.68 15 -13 15 C-13 15.99 -13 16.98 -13 18 C-12.34 18 -11.68 18 -11 18 C-11 18.99 -11 19.98 -11 21 C-6.84373632 22.00926479 -2.95634906 22.10239579 1.3125 22.0625 C2.56675781 22.05347656 3.82101563 22.04445312 5.11328125 22.03515625 C6.06589844 22.02355469 7.01851562 22.01195312 8 22 C8 22.99 8 23.98 8 25 C-7.40139096 26.77297566 -7.40139096 26.77297566 -13 23 C-16.45080535 18.64108798 -18.13921721 15.03913949 -18.25 9.5 C-18.27578125 8.7265625 -18.3015625 7.953125 -18.328125 7.15625 C-17.91786989 4.46028784 -17.11846448 3.6616392 -15 2 C-9.99343982 -0.26487246 -5.37723694 -0.21508948 0 0 Z " fill="#151515" transform="translate(71,193)"/>
<path d="M0 0 C0 0.99 0 1.98 0 3 C-9.58509917 5.3569916 -19.17876611 5.61683071 -29 6 C-26.21015014 2.95160361 -24.37077022 2.45023442 -20.25 1.875 C-18.64318359 1.64296875 -18.64318359 1.64296875 -17.00390625 1.40625 C-16.01261719 1.2721875 -15.02132812 1.138125 -14 1 C-12.1128125 0.690625 -12.1128125 0.690625 -10.1875 0.375 C-6.76502984 -0.02764355 -3.44294093 -0.0702641 0 0 Z " fill="#242424" transform="translate(258,220)"/>
<path d="M0 0 C1.32 0.66 2.64 1.32 4 2 C2.8656185 9.94067053 -2.50728227 15.50728227 -8 21 C-8.66 21.33 -9.32 21.66 -10 22 C-10 18.04 -10 14.08 -10 10 C-9.34 10 -8.68 10 -8 10 C-7.34 11.32 -6.68 12.64 -6 14 C-4.37168238 12.19038423 -4.37168238 12.19038423 -3 10 C-3.33 9.01 -3.66 8.02 -4 7 C-2.35 6.34 -0.7 5.68 1 5 C0.67 3.35 0.34 1.7 0 0 Z " fill="#010101" transform="translate(442,237)"/>
<path d="M0 0 C0.99 0 1.98 0 3 0 C0.60526316 9.39473684 0.60526316 9.39473684 -2 12 C-4.88812164 12.22385137 -7.61750518 12.12047102 -10.50390625 11.8828125 C-11.73947266 11.94082031 -11.73947266 11.94082031 -13 12 C-13.99 13.485 -13.99 13.485 -15 15 C-15.66 14.67 -16.32 14.34 -17 14 C-15.55614973 9.42780749 -15.55614973 9.42780749 -13.375 7.75 C-11.09272528 7.02928167 -9.30797006 6.88918356 -6.9375 6.75 C-4.85762222 6.62123313 -4.85762222 6.62123313 -3 6 C-0.91367303 3.08158143 -0.91367303 3.08158143 0 0 Z " fill="#272727" transform="translate(204,257)"/>
<path d="M0 0 C0.66 0.33 1.32 0.66 2 1 C1.319375 1.845625 0.63875 2.69125 -0.0625 3.5625 C-2.43065395 7.76406347 -1.82658451 9.37112672 -1 14 C-1.875 17.1875 -1.875 17.1875 -3 20 C-3.34976758 21.32911682 -3.69096017 22.66082739 -4 24 C-4.99 24 -5.98 24 -7 24 C-7 23.01 -7 22.02 -7 21 C-7.66 20.34 -8.32 19.68 -9 19 C-8.13375 18.154375 -7.2675 17.30875 -6.375 16.4375 C-4.93020894 14.85540789 -4.93020894 14.85540789 -4 13 C-4.53219091 9.17352608 -4.53219091 9.17352608 -6 6 C-4.02 4.02 -2.04 2.04 0 0 Z " fill="#000000" transform="translate(470,231)"/>
<path d="M0 0 C0.99 0.33 1.98 0.66 3 1 C0.59829722 3.47032286 -1.67177708 5.77024395 -4.5 7.75 C-7.55706568 10.50135911 -9.00089322 13.40787167 -10.7890625 17.07421875 C-12 19 -12 19 -15 20 C-12.91347095 12.41262163 -8.98714057 5.7909984 -2.5 1.25 C-1.675 0.8375 -0.85 0.425 0 0 Z " fill="#0B0B0B" transform="translate(48,175)"/>
<path d="M0 0 C1.65 0.33 3.3 0.66 5 1 C5.90594807 3.61718331 5.98235878 5.10143704 5.5 7.875 C4.96376636 11.22646028 5.41081278 13.68582189 6 17 C5.67 17.99 5.34 18.98 5 20 C4.01 19.67 3.02 19.34 2 19 C2.2475 18.4225 2.495 17.845 2.75 17.25 C2.8325 16.5075 2.915 15.765 3 15 C1.14567913 12.72855926 1.14567913 12.72855926 -1 11 C0.33333333 8.33333333 1.66666667 5.66666667 3 3 C2.01 2.67 1.02 2.34 0 2 C0 1.34 0 0.68 0 0 Z " fill="#000000" transform="translate(564,256)"/>
<path d="M0 0 C12.87 0.495 12.87 0.495 26 1 C26 1.66 26 2.32 26 3 C17.75 3 9.5 3 1 3 C0.67 2.01 0.34 1.02 0 0 Z " fill="#020202" transform="translate(58,228)"/>
<path d="M0 0 C0.66 0.99 1.32 1.98 2 3 C1.401875 3.721875 0.80375 4.44375 0.1875 5.1875 C-1.78429175 7.72266082 -3.38086797 10.23398278 -5 13 C-7.54071242 17.31921112 -9.07793526 19.63275979 -14 21 C-12.67688973 18.10688328 -11.19694261 15.91418867 -9.0625 13.5625 C-6.6773311 10.84734414 -4.75420466 8.17427511 -3 5 C-2 3.33333333 -1 1.66666667 0 0 Z " fill="#141414" transform="translate(219,251)"/>
<path d="M0 0 C0.66 0 1.32 0 2 0 C1.84660156 1.1034375 1.69320312 2.206875 1.53515625 3.34375 C0.90498324 8.3851341 0.66239916 13.42686479 0.4375 18.5 C0.39431641 19.4178125 0.35113281 20.335625 0.30664062 21.28125 C0.20166544 23.52072061 0.09950752 25.76028092 0 28 C-0.33 28 -0.66 28 -1 28 C-1.06058594 26.72382813 -1.12117188 25.44765625 -1.18359375 24.1328125 C-1.26799568 22.46352984 -1.35264386 20.79425963 -1.4375 19.125 C-1.47681641 18.28324219 -1.51613281 17.44148438 -1.55664062 16.57421875 C-1.59853516 15.76855469 -1.64042969 14.96289062 -1.68359375 14.1328125 C-1.73858032 13.01737061 -1.73858032 13.01737061 -1.79467773 11.87939453 C-1.89955865 9.91135688 -1.89955865 9.91135688 -3 8 C-1.37209302 1.37209302 -1.37209302 1.37209302 0 0 Z " fill="#484848" transform="translate(34,194)"/>
<path d="M0 0 C0.66 0.33 1.32 0.66 2 1 C1.814375 1.515625 1.62875 2.03125 1.4375 2.5625 C0.83752918 5.1713937 0.83752918 5.1713937 1.5 8.5 C1.93772143 11.56405002 2.02210188 13.16082812 1 16 C0.01 15.67 -0.98 15.34 -2 15 C-1.773125 14.113125 -1.54625 13.22625 -1.3125 12.3125 C-0.94548054 8.42209376 -1.73118159 7.08559304 -4 4 C-2.68 2.68 -1.36 1.36 0 0 Z " fill="#000000" transform="translate(518,231)"/>
<path d="M0 0 C0.33 0 0.66 0 1 0 C1.33 3.3 1.66 6.6 2 10 C-2.95 11.485 -2.95 11.485 -8 13 C-8 11.68 -8 10.36 -8 9 C-5.36 8.34 -2.72 7.68 0 7 C0 4.69 0 2.38 0 0 Z " fill="#232323" transform="translate(58,165)"/>
<path d="M0 0 C1.09658936 3.28976808 0.79953138 4.71303767 0 8 C-0.99 8.33 -1.98 8.66 -3 9 C-2.4140625 2.84765625 -2.4140625 2.84765625 -2 1 C-1.34 0.67 -0.68 0.34 0 0 Z " fill="#050505" transform="translate(31,248)"/>
<path d="M0 0 C0.33 0 0.66 0 1 0 C1 2.97 1 5.94 1 9 C0.01 9 -0.98 9 -2 9 C-1.125 1.125 -1.125 1.125 0 0 Z " fill="#000000" transform="translate(602,255)"/>
<path d="M0 0 C0.66 0.99 1.32 1.98 2 3 C-1.625 7.875 -1.625 7.875 -5 9 C-3.50163895 5.88801935 -1.80066242 2.9465385 0 0 Z " fill="#242424" transform="translate(219,251)"/>
</svg>
