<?xml version="1.0" encoding="UTF-8"?>
<svg version="1.1" xmlns="http://www.w3.org/2000/svg" width="800" height="300">
<path d="M0 0 C264 0 528 0 800 0 C800 99 800 198 800 300 C536 300 272 300 0 300 C0 201 0 102 0 0 Z " fill="#FEFEFE" transform="translate(0,0)"/>
<path d="M0 0 C8.08108108 1.05405405 8.08108108 1.05405405 11.125 4.1875 C13 7 13 7 14 13 C26.375 12.505 26.375 12.505 39 12 C39.99 9.03 40.98 6.06 42 3 C42.66 2.01 43.32 1.02 44 0 C49.63895008 -1.02681944 55.36427899 -1.01351282 60.1875 2.3125 C63 5 63 5 64 8 C64.03954234 10.33299825 64.04401732 12.66708189 64 15 C64.5775 15.25136719 65.155 15.50273437 65.75 15.76171875 C72.05767813 19.23313189 76.08155089 25.13731884 78.25 31.875 C79.5292168 36.62318463 80.49322927 41.41392939 81.43774414 46.23657227 C83.071359 57.68561664 83.071359 57.68561664 89 67 C96.38769392 70.40896203 104.3341992 71.21390189 112.3671875 71.60546875 C113.17273071 71.64629074 113.97827393 71.68711273 114.80822754 71.72917175 C121.80190945 72.03612033 128.78238165 72.02509603 135.78125 71.95703125 C137.45409561 71.94184952 137.45409561 71.94184952 139.16073608 71.92636108 C143.76285924 71.88091825 148.36462042 71.83193212 152.96630859 71.75317383 C167.54625935 71.51701534 180.88086546 72.19762556 195 76 C195 76.66 195 77.32 195 78 C197.31 78 199.62 78 202 78 C202.37125 76.824375 202.37125 76.824375 202.75 75.625 C204 73 204 73 205.8125 71.625 C208.5968215 70.82947957 210.24769279 71.15313624 213 72 C213.99 72.66 214.98 73.32 216 74 C216.22265625 76.71484375 216.22265625 76.71484375 216.0625 79.9375 C215.74889245 84.77777569 215.74889245 84.77777569 218 89 C218.53067985 93.70030721 218.59900756 95.91291221 216.3125 100.0625 C210.935734 103.20740087 205.95001719 102.23149962 200 101 C196.88238436 99.91019678 193.92230403 98.64655864 190.91796875 97.27734375 C184.14835074 94.31393667 177.39675899 92.50688273 170 93 C171.03721436 101.15192874 171.03721436 101.15192874 175 108 C177.28346421 108.65302808 179.5627524 109.07394669 181.8984375 109.5 C184 110 184 110 186.125 111.5625 C187.52617767 115.46578064 186.9444268 119.01636517 186 123 C183.79452055 127.60273973 183.79452055 127.60273973 181 129 C178.87960174 129.17431846 176.75206692 129.26709071 174.625 129.3125 C172.91183594 129.36857422 172.91183594 129.36857422 171.1640625 129.42578125 C168 129 168 129 165.58203125 127.25390625 C163.75035706 124.64433586 163.6763958 123.72470974 164.0625 120.625 C164.24410208 116.78630766 164.17184896 116.23390553 161.75 112.9375 C161.07130859 112.24720703 161.07130859 112.24720703 160.37890625 111.54296875 C157.6904544 108.53464444 155 104.10584675 155 100 C154.29746094 100.31066406 153.59492188 100.62132812 152.87109375 100.94140625 C149.89494464 102.0387347 147.20065746 102.51342467 144.0625 102.9375 C139.49030809 103.63875643 136.07648895 104.75793108 132 107 C130.68 107 129.36 107 128 107 C127.6596875 108.0828125 127.6596875 108.0828125 127.3125 109.1875 C125.66099387 112.7264417 124.11841749 114.62729104 121 117 C117.98395537 117.69554906 116.18311337 117.45473048 113 117 C109.21269327 114.40868487 107.91988299 111.43216352 107 107 C107.12328767 98.87671233 107.12328767 98.87671233 110 96 C114.13997567 95.8028583 117.07703567 95.69234522 121 97 C126.34523648 97.40341407 129.32441779 96.50595379 134 94 C114.98769941 93.79916584 96.00059936 94.41301246 77 95 C77.020625 96.2478125 77.04125 97.495625 77.0625 98.78125 C77.12456179 102.53598841 76.40450563 105.48873592 75 109 C74.34 109 73.68 109 73 109 C72.505 110.485 72.505 110.485 72 112 C70.4375 113.75 70.4375 113.75 68 115 C65.08331466 115.10396106 62.9102666 114.65715697 60 114 C57.70986347 110.5647952 57.82157027 109.014669 58 105 C56.700625 104.896875 55.40125 104.79375 54.0625 104.6875 C49.85309512 104.23296332 46.24887085 103.1323078 42.28515625 101.69921875 C38.56138738 100.55980913 34.87356955 100.30742615 31 100 C32.42673359 102.88634122 33.90494836 105.54445319 36 108 C39.55652459 108.90137027 39.55652459 108.90137027 43 109 C44.875 110.0625 44.875 110.0625 46 112 C47.31966126 117.03120854 47.64086406 118.82508256 45.125 123.4375 C42.20133874 126.42631248 39.29033654 126.92549959 35.20703125 127.1015625 C30.5528937 126.8873898 27.80730205 125.61425156 24.125 122.8125 C21.4787451 119.31010381 21.57953618 117.28873093 22 113 C22.66 113 23.32 113 24 113 C23.39671875 112.13117188 22.7934375 111.26234375 22.171875 110.3671875 C21.36455497 109.20314467 20.55726491 108.03908106 19.75 106.875 C19.35425781 106.30523437 18.95851562 105.73546875 18.55078125 105.1484375 C17.75638094 104.00241738 16.96406131 102.85495219 16.17382812 101.70605469 C15.39081188 100.56801028 14.60303206 99.43322886 13.81054688 98.30175781 C11 94.22472994 11 94.22472994 11 92 C10.41621582 91.94054199 9.83243164 91.88108398 9.23095703 91.81982422 C-4.05582861 90.39539685 -14.44156147 89.08274107 -24 79 C-31.9392365 67.24992998 -32.54691748 53.01762423 -30.43359375 39.33203125 C-28.24281893 30.09866095 -24.91706451 25.16873442 -17 20 C-12.94214581 17.82261483 -9.57260058 17.82068233 -5 18 C-5.268125 17.05125 -5.53625 16.1025 -5.8125 15.125 C-6.63552328 9.76986185 -3.67819186 5.45228073 -1 1 C-0.67 0.67 -0.34 0.34 0 0 Z " fill="#FCFCFC" transform="translate(47,155)"/>
<path d="M0 0 C2.6875 -0.3125 2.6875 -0.3125 6 0 C6.65484375 0.82371094 7.3096875 1.64742187 7.984375 2.49609375 C12.5652212 6.2996202 16.79729447 5.57827168 22.5625 5.375 C23.56474609 5.36082031 24.56699219 5.34664062 25.59960938 5.33203125 C30.47519469 5.2414631 35.34076995 5.04623593 40.20825195 4.75537109 C54.45235002 3.91878154 68.67682983 3.84573931 82.94213867 3.86962891 C85.67653585 3.87416195 88.4108666 3.87421517 91.14526367 3.86962891 C100.43094505 3.85414611 109.7147567 3.89399703 119 4 C120.89718781 4.01987976 120.89718781 4.01987976 122.83270264 4.04016113 C126.4714204 4.08922994 130.10817747 4.16795371 133.74609375 4.2578125 C135.34216209 4.27822098 135.34216209 4.27822098 136.97047424 4.29904175 C147.76141846 4.63593906 157.23194941 7.126133 165.1015625 14.796875 C168.08119031 18.25471468 170.07594107 21.88307979 172 26 C172.5878125 27.06347656 172.5878125 27.06347656 173.1875 28.1484375 C176.97476175 35.43365628 176.77162077 42.60176161 175.375 50.5625 C169.6875 64.78125 169.6875 64.78125 163.4375 67.625 C157.70072769 69.69064707 152.18507829 70.14951793 146.12109375 70.1328125 C145.35992249 70.13413177 144.59875122 70.13545105 143.81451416 70.1368103 C141.35546728 70.1387179 138.89653518 70.13241583 136.4375 70.125 C135.60618561 70.12411377 134.77487122 70.12322754 133.91836548 70.12231445 C121.58858811 70.10680173 109.30284848 69.87542505 97 69 C97 68.34 97 67.68 97 67 C96.29617188 67.16242188 95.59234375 67.32484375 94.8671875 67.4921875 C87.40965184 68.81300444 79.59253259 68.08414043 72.08203125 67.5078125 C66.67319889 67.13155169 61.29977248 66.9117425 55.87890625 66.859375 C21.79509958 66.48121764 21.79509958 66.48121764 10.8125 58.25 C9.32421875 56.69140625 9.32421875 56.69140625 8 55 C7.51144531 54.41089844 7.02289063 53.82179688 6.51953125 53.21484375 C2.55488966 47.4511211 2.40935902 41.64162749 2.45166016 34.85229492 C2.47029608 32.43228376 2.47029608 32.43228376 2 29 C0.13377036 27.1371129 0.13377036 27.1371129 -2 26 C-3.20745835 22.37762495 -3.22246029 19.0229405 -3.25 15.25 C-3.270625 14.5590625 -3.29125 13.868125 -3.3125 13.15625 C-3.35088173 8.05147958 -2.27330153 4.57053254 0 0 Z " fill="#656565" transform="translate(428,216)"/>
<path d="M0 0 C8.08108108 1.05405405 8.08108108 1.05405405 11.125 4.1875 C13 7 13 7 14 13 C26.375 12.505 26.375 12.505 39 12 C39.99 9.03 40.98 6.06 42 3 C42.66 2.01 43.32 1.02 44 0 C49.63895008 -1.02681944 55.36427899 -1.01351282 60.1875 2.3125 C63 5 63 5 64 8 C64.03954234 10.33299825 64.04401732 12.66708189 64 15 C64.5775 15.25136719 65.155 15.50273437 65.75 15.76171875 C72.05767813 19.23313189 76.08155089 25.13731884 78.25 31.875 C79.5292168 36.62318463 80.49322927 41.41392939 81.43774414 46.23657227 C83.071359 57.68561664 83.071359 57.68561664 89 67 C96.38769392 70.40896203 104.3341992 71.21390189 112.3671875 71.60546875 C113.17273071 71.64629074 113.97827393 71.68711273 114.80822754 71.72917175 C121.80190945 72.03612033 128.78238165 72.02509603 135.78125 71.95703125 C137.45409561 71.94184952 137.45409561 71.94184952 139.16073608 71.92636108 C143.76285924 71.88091825 148.36462042 71.83193212 152.96630859 71.75317383 C167.54625935 71.51701534 180.88086546 72.19762556 195 76 C195 76.66 195 77.32 195 78 C197.31 78 199.62 78 202 78 C202.37125 76.824375 202.37125 76.824375 202.75 75.625 C204 73 204 73 205.8125 71.625 C208.5968215 70.82947957 210.24769279 71.15313624 213 72 C213.99 72.66 214.98 73.32 216 74 C216.22265625 76.71484375 216.22265625 76.71484375 216.0625 79.9375 C215.74889245 84.77777569 215.74889245 84.77777569 218 89 C218.53067985 93.70030721 218.59900756 95.91291221 216.3125 100.0625 C210.935734 103.20740087 205.95001719 102.23149962 200 101 C196.88238436 99.91019678 193.92230403 98.64655864 190.91796875 97.27734375 C184.14835074 94.31393667 177.39675899 92.50688273 170 93 C171.03721436 101.15192874 171.03721436 101.15192874 175 108 C177.28346421 108.65302808 179.5627524 109.07394669 181.8984375 109.5 C184 110 184 110 186.125 111.5625 C187.52617767 115.46578064 186.9444268 119.01636517 186 123 C183.79452055 127.60273973 183.79452055 127.60273973 181 129 C178.87960174 129.17431846 176.75206692 129.26709071 174.625 129.3125 C172.91183594 129.36857422 172.91183594 129.36857422 171.1640625 129.42578125 C168 129 168 129 165.58203125 127.25390625 C163.75035706 124.64433586 163.6763958 123.72470974 164.0625 120.625 C164.24410208 116.78630766 164.17184896 116.23390553 161.75 112.9375 C161.07130859 112.24720703 161.07130859 112.24720703 160.37890625 111.54296875 C157.6904544 108.53464444 155 104.10584675 155 100 C154.29746094 100.31066406 153.59492188 100.62132812 152.87109375 100.94140625 C149.89494464 102.0387347 147.20065746 102.51342467 144.0625 102.9375 C139.49030809 103.63875643 136.07648895 104.75793108 132 107 C130.68 107 129.36 107 128 107 C127.6596875 108.0828125 127.6596875 108.0828125 127.3125 109.1875 C125.66099387 112.7264417 124.11841749 114.62729104 121 117 C117.98395537 117.69554906 116.18311337 117.45473048 113 117 C109.21269327 114.40868487 107.91988299 111.43216352 107 107 C107.12328767 98.87671233 107.12328767 98.87671233 110 96 C114.13997567 95.8028583 117.07703567 95.69234522 121 97 C126.34523648 97.40341407 129.32441779 96.50595379 134 94 C114.98769941 93.79916584 96.00059936 94.41301246 77 95 C77.020625 96.2478125 77.04125 97.495625 77.0625 98.78125 C77.12456179 102.53598841 76.40450563 105.48873592 75 109 C74.34 109 73.68 109 73 109 C72.505 110.485 72.505 110.485 72 112 C70.4375 113.75 70.4375 113.75 68 115 C65.08331466 115.10396106 62.9102666 114.65715697 60 114 C57.70986347 110.5647952 57.82157027 109.014669 58 105 C56.700625 104.896875 55.40125 104.79375 54.0625 104.6875 C49.85309512 104.23296332 46.24887085 103.1323078 42.28515625 101.69921875 C38.56138738 100.55980913 34.87356955 100.30742615 31 100 C32.42673359 102.88634122 33.90494836 105.54445319 36 108 C39.55652459 108.90137027 39.55652459 108.90137027 43 109 C44.875 110.0625 44.875 110.0625 46 112 C47.31966126 117.03120854 47.64086406 118.82508256 45.125 123.4375 C42.20133874 126.42631248 39.29033654 126.92549959 35.20703125 127.1015625 C30.5528937 126.8873898 27.80730205 125.61425156 24.125 122.8125 C21.4787451 119.31010381 21.57953618 117.28873093 22 113 C22.66 113 23.32 113 24 113 C23.39671875 112.13117188 22.7934375 111.26234375 22.171875 110.3671875 C21.36455497 109.20314467 20.55726491 108.03908106 19.75 106.875 C19.35425781 106.30523437 18.95851562 105.73546875 18.55078125 105.1484375 C17.75638094 104.00241738 16.96406131 102.85495219 16.17382812 101.70605469 C15.39081188 100.56801028 14.60303206 99.43322886 13.81054688 98.30175781 C11 94.22472994 11 94.22472994 11 92 C10.41621582 91.94054199 9.83243164 91.88108398 9.23095703 91.81982422 C-4.05582861 90.39539685 -14.44156147 89.08274107 -24 79 C-31.9392365 67.24992998 -32.54691748 53.01762423 -30.43359375 39.33203125 C-28.24281893 30.09866095 -24.91706451 25.16873442 -17 20 C-12.94214581 17.82261483 -9.57260058 17.82068233 -5 18 C-5.268125 17.05125 -5.53625 16.1025 -5.8125 15.125 C-6.63552328 9.76986185 -3.67819186 5.45228073 -1 1 C-0.67 0.67 -0.34 0.34 0 0 Z M1 3 C-2.05498079 8.78217394 -3.64451156 12.5589964 -2 19 C-2.52722656 19.11859375 -3.05445312 19.2371875 -3.59765625 19.359375 C-15.30761922 22.38500191 -15.30761922 22.38500191 -24 30 C-29.23481314 41.49913953 -30.4570645 56.85420435 -26.04296875 68.89453125 C-22.3647872 76.31977414 -16.6655656 82.63052062 -9 86 C-1.37538074 88.03155974 6.15399494 88.24647136 14 88 C13.93296875 88.71027344 13.8659375 89.42054688 13.796875 90.15234375 C14.05350345 93.75007717 15.26811481 95.5688541 17.25 98.5625 C17.85328125 99.49191406 18.4565625 100.42132813 19.078125 101.37890625 C20.88712882 103.8460639 22.83642905 105.84995137 25 108 C26.06011943 109.96879323 27.07470849 111.96435867 28 114 C27.01 114.33 26.02 114.66 25 115 C25 116.65 25 118.3 25 120 C29.90360711 123.35696669 29.90360711 123.35696669 35.6875 123.875 C39.60036106 122.94685815 39.60036106 122.94685815 43 121 C43.99764302 118.29211182 44.11190099 116.5754908 43.5625 113.75 C42.7890625 112.88375 42.7890625 112.88375 42 112 C40.80375 112.020625 39.6075 112.04125 38.375 112.0625 C36.23828125 111.93359375 36.23828125 111.93359375 34 111 C30.1656695 106.20213722 26.94760792 100.84282375 25 95 C25.86625 95.45375 26.7325 95.9075 27.625 96.375 C32.44774615 98.4800101 37.5086032 98.8768089 42.6953125 99.47265625 C45.78092216 99.96504077 48.12462829 100.84154366 51 102 C52.92903132 102.2759478 54.8689032 102.48449903 56.8125 102.625 C57.78832031 102.69976562 58.76414062 102.77453125 59.76953125 102.8515625 C60.87361328 102.92503906 60.87361328 102.92503906 62 103 C61.67 103.66 61.34 104.32 61 105 C60.960008 106.99960012 60.95653201 109.00047242 61 111 C65.18774791 111.41056352 67.33324208 111.44933686 70.875 109.0625 C73.60260555 105.13153906 74.48216798 101.7770346 74 97 C72.15014823 94.44848032 70.7804657 93.39023285 68 92 C66.00039988 91.960008 63.99952758 91.95653201 62 92 C61.67 92.66 61.34 93.32 61 94 C53.7515055 94.41640288 47.83085645 93.44166784 41 91 C41 90.34 41 89.68 41 89 C42.11375 89.495 43.2275 89.99 44.375 90.5 C49.26619193 92.36706789 53.8307192 92.28600529 59 92 C59 91.34 59 90.68 59 90 C60.43739513 89.97287934 61.87493863 89.95354933 63.3125 89.9375 C64.51326172 89.92009766 64.51326172 89.92009766 65.73828125 89.90234375 C68 90 68 90 71 91 C73.69271286 91.09122131 76.35900425 91.12602134 79.05151367 91.11352539 C79.87125168 91.11367142 80.69098969 91.11381744 81.53556824 91.1139679 C84.24639528 91.11327096 86.9571537 91.10548878 89.66796875 91.09765625 C91.54698143 91.09579129 93.4259946 91.09436776 95.30500793 91.09336853 C100.25175315 91.08954948 105.19846902 91.07972438 110.14520264 91.06866455 C115.19250085 91.0584373 120.23980379 91.05386809 125.28710938 91.04882812 C135.19141914 91.03810159 145.09570713 91.02103248 155 91 C155.33 91.66 155.66 92.32 156 93 C155.27554688 92.97679687 154.55109375 92.95359375 153.8046875 92.9296875 C148.4292646 92.82934627 144.00340144 92.82460807 139 95 C138.2678125 95.31453125 137.535625 95.6290625 136.78125 95.953125 C133.77389462 97.26151987 130.79404977 98.58238864 127.890625 100.109375 C125.44720612 101.26040703 123.669058 101.28095347 121 101 C120.34 100.34 119.68 99.68 119 99 C116.31160615 98.73008094 113.70858064 98.91262643 111 99 C109.67036453 104.92292164 110.28843945 107.78546048 113 113 C114.09923541 114.30746709 114.09923541 114.30746709 116.8125 114.3125 C120.0436513 114.26810313 120.0436513 114.26810313 122.3125 112.3125 C124.15705705 109.78477367 124.4907044 108.04064599 125 105 C125.64066406 104.89042969 126.28132812 104.78085937 126.94140625 104.66796875 C132.36847084 103.67314171 136.9199644 102.18967052 142 100 C145.97643597 98.89682735 149.98002849 97.93073232 154 97 C154 96.34 154 95.68 154 95 C154.99 95 155.98 95 157 95 C157.0825 95.825 157.165 96.65 157.25 97.5 C158.54566243 103.54642467 160.9916848 108.08874914 165.3125 112.5 C167.97434111 115.38753337 167.97434111 115.38753337 168.08984375 118.14453125 C167.7823825 120.10592197 167.39569699 122.05448982 167 124 C168.8628949 126.30060534 168.8628949 126.30060534 171.8203125 126.1953125 C172.91085938 126.17210937 174.00140625 126.14890625 175.125 126.125 C176.22070312 126.10695313 177.31640625 126.08890625 178.4453125 126.0703125 C179.28835937 126.04710937 180.13140625 126.02390625 181 126 C183.37813717 121.83825995 184.65793917 118.82488726 184 114 C180.52964218 111.68642812 178.09247216 111.51155902 174 111 C171 110 171 110 169.9375 108.0625 C168.62369003 103.77072076 167.80528566 99.41193738 167 95 C166.34 95 165.68 95 165 95 C165.33 93.68 165.66 92.36 166 91 C177.06003528 90.65256434 186.50064938 91.7190743 196.72265625 96.046875 C202.15229937 98.31931569 207.09788807 99.57863842 213 99 C215.30019361 95.54970958 215.43132515 94.05445642 215 90 C212.32357511 87.81509993 212.32357511 87.81509993 210 88 C210.54723683 84.62537285 211.0549 82.91765 213 80 C212.68493373 76.85778033 212.68493373 76.85778033 212 74 C209.63460948 74.12056596 209.63460948 74.12056596 207 75 C206.071875 76.2684375 206.071875 76.2684375 205.125 77.5625 C203 80 203 80 199.6875 80.5 C196.34273917 80.04647311 193.92690014 79.196992 190.8894043 77.79516602 C181.98590029 74.04807821 172.11403335 74.79346191 162.66320801 74.90734863 C158.10372087 74.95896862 153.54410939 74.96782087 148.984375 74.98046875 C147.60194611 74.98513657 147.60194611 74.98513657 146.19158936 74.98989868 C137.92625568 75.012709 129.664421 74.97483956 121.40087891 74.79348755 C119.99117104 74.76498537 118.58130887 74.74315719 117.17138672 74.72872925 C108.78768415 74.63761857 101.61644413 73.67103634 93.69824219 70.84863281 C90.83547039 69.79998394 90.83547039 69.79998394 87 70 C81.1398564 61.94481979 79.53171152 53.41137072 77.82543945 43.76953125 C76.31955637 35.51081821 74.20166145 27.88411644 68.5625 21.4375 C67.72912109 20.44556641 67.72912109 20.44556641 66.87890625 19.43359375 C64.46810186 17.59416503 62.9597696 17.72077645 60 18 C60.17789063 16.98679688 60.17789063 16.98679688 60.359375 15.953125 C61.36349341 10.37748023 61.36349341 10.37748023 59.1875 5.4375 C55.77973147 3.19810925 53.93561663 2.88544081 49.875 2.9375 C48.26625 2.958125 46.6575 2.97875 45 3 C43.68 6.96 42.36 10.92 41 15 C31.43 15 21.86 15 12 15 C11.34 13.02 10.68 11.04 10 9 C8.53078352 6.57129521 7.04783902 5.04783902 5 3 C3.68 3 2.36 3 1 3 Z " fill="#1B1B1B" transform="translate(47,155)"/>
<path d="M0 0 C2.6875 -0.3125 2.6875 -0.3125 6 0 C6.65484375 0.82371094 7.3096875 1.64742187 7.984375 2.49609375 C12.5652212 6.2996202 16.79729447 5.57827168 22.5625 5.375 C23.56474609 5.36082031 24.56699219 5.34664062 25.59960938 5.33203125 C30.47519469 5.2414631 35.34076995 5.04623593 40.20825195 4.75537109 C54.45235002 3.91878154 68.67682983 3.84573931 82.94213867 3.86962891 C85.67653585 3.87416195 88.4108666 3.87421517 91.14526367 3.86962891 C100.43094505 3.85414611 109.7147567 3.89399703 119 4 C120.89718781 4.01987976 120.89718781 4.01987976 122.83270264 4.04016113 C126.4714204 4.08922994 130.10817747 4.16795371 133.74609375 4.2578125 C135.34216209 4.27822098 135.34216209 4.27822098 136.97047424 4.29904175 C147.76141846 4.63593906 157.23194941 7.126133 165.1015625 14.796875 C168.08119031 18.25471468 170.07594107 21.88307979 172 26 C172.5878125 27.06347656 172.5878125 27.06347656 173.1875 28.1484375 C176.97476175 35.43365628 176.77162077 42.60176161 175.375 50.5625 C169.6875 64.78125 169.6875 64.78125 163.4375 67.625 C157.70072769 69.69064707 152.18507829 70.14951793 146.12109375 70.1328125 C145.35992249 70.13413177 144.59875122 70.13545105 143.81451416 70.1368103 C141.35546728 70.1387179 138.89653518 70.13241583 136.4375 70.125 C135.60618561 70.12411377 134.77487122 70.12322754 133.91836548 70.12231445 C121.58858811 70.10680173 109.30284848 69.87542505 97 69 C97 68.34 97 67.68 97 67 C96.29617188 67.16242188 95.59234375 67.32484375 94.8671875 67.4921875 C87.40965184 68.81300444 79.59253259 68.08414043 72.08203125 67.5078125 C66.67319889 67.13155169 61.29977248 66.9117425 55.87890625 66.859375 C21.79509958 66.48121764 21.79509958 66.48121764 10.8125 58.25 C9.32421875 56.69140625 9.32421875 56.69140625 8 55 C7.51144531 54.41089844 7.02289063 53.82179688 6.51953125 53.21484375 C2.55488966 47.4511211 2.40935902 41.64162749 2.45166016 34.85229492 C2.47029608 32.43228376 2.47029608 32.43228376 2 29 C0.13377036 27.1371129 0.13377036 27.1371129 -2 26 C-3.20745835 22.37762495 -3.22246029 19.0229405 -3.25 15.25 C-3.270625 14.5590625 -3.29125 13.868125 -3.3125 13.15625 C-3.35088173 8.05147958 -2.27330153 4.57053254 0 0 Z M3 3 C-0.71059486 9.13054803 -1.71075839 15.44620807 -0.3125 22.4375 C0.78058442 25.09159104 0.78058442 25.09159104 3 26.3125 C6.24734023 29.05244332 6.35310018 32.93985245 7 37 C9.64573501 34.77122275 9.64573501 34.77122275 12 32 C11.95502158 29.72476911 11.95502158 29.72476911 11 28 C12.32 27.34 13.64 26.68 15 26 C14.67 24.35 14.34 22.7 14 21 C14.99 21.99 15.98 22.98 17 24 C15.39680795 28.66383143 13.08350522 33.14135949 10 37 C9.30648438 37.30550781 8.61296875 37.61101562 7.8984375 37.92578125 C5.77741393 38.86585583 5.77741393 38.86585583 5.07421875 41.29296875 C4.97884902 44.77145414 5.96425246 46.39079722 7.8125 49.3125 C8.35519531 50.19550781 8.89789063 51.07851563 9.45703125 51.98828125 C9.96621094 52.65214844 10.47539062 53.31601562 11 54 C11.66 54 12.32 54 13 54 C13.33 54.99 13.66 55.98 14 57 C16.36401089 58.26080581 18.47896761 59.14504119 21 60 C21.81339844 60.28230469 22.62679688 60.56460938 23.46484375 60.85546875 C33.75725957 63.93020167 46.48210319 64.63478627 57 62 C57.53394179 60.5882217 58.05165104 59.17029756 58.5625 57.75 C58.85253906 56.96109375 59.14257812 56.1721875 59.44140625 55.359375 C60.0610168 52.74227867 59.94248701 51.4926979 59 49 C58.34 48.01 57.68 47.02 57 46 C57.53625 45.443125 58.0725 44.88625 58.625 44.3125 C59.07875 43.549375 59.5325 42.78625 60 42 C59.26145768 39.36186139 59.26145768 39.36186139 58 37 C58 36.34 58 35.68 58 35 C58.99 35.33 59.98 35.66 61 36 C61.94002987 40.38680608 61.74651537 43.61422219 61 48 C61.185625 48.804375 61.37125 49.60875 61.5625 50.4375 C62.16494838 53.96612624 61.00559799 56.60610677 60 60 C60.33 60.99 60.66 61.98 61 63 C62.06927734 63.09087891 62.06927734 63.09087891 63.16015625 63.18359375 C71.41188054 63.9054808 71.41188054 63.9054808 75.5 64.5625 C82.43977973 65.42997247 89.12334905 65.23427068 96 64 C96.66 64.33 97.32 64.66 98 65 C100.56845219 65.03037021 103.120762 64.93311185 105.6875 64.83984375 C108 65 108 65 110 67 C112.52377655 67.27808217 112.52377655 67.27808217 115.4453125 67.1953125 C116.52167969 67.18886719 117.59804688 67.18242187 118.70703125 67.17578125 C119.83496094 67.15902344 120.96289062 67.14226562 122.125 67.125 C123.26066406 67.11597656 124.39632812 67.10695313 125.56640625 67.09765625 C128.37781299 67.07403098 131.18880298 67.04109013 134 67 C134 66.34 134 65.68 134 65 C134.99 64.67 135.98 64.34 137 64 C138.56028793 61.15102982 139.46843274 58.20059445 140 55 C139.01919106 52.38017854 139.01919106 52.38017854 137 51 C136.34 51 135.68 51 135 51 C135.66 50.236875 136.32 49.47375 137 48.6875 C139.29850538 46.15722061 139.29850538 46.15722061 139 43 C137.56249809 41.31201173 137.56249809 41.31201173 136 40 C137.32 40.33 138.64 40.66 140 41 C140.90594807 43.61718331 140.98235878 45.10143704 140.5 47.875 C139.82038781 50.94518924 139.82038781 50.94518924 140.5625 53.75 C141.18730226 58.39138818 140.07980006 62.48447249 139 67 C149.65771916 67.35857747 158.40464935 67.06190317 166.59375 59.53515625 C171.66979043 54.24761413 174.03554301 48.43102855 173.9765625 41.078125 C172.70835554 30.19972752 166.40917284 21.74595342 159 14 C158.01 13.67 157.02 13.34 156 13 C154.39819908 16.38766195 154.39819908 16.38766195 154.125 20.0625 C154.8950733 22.17907441 154.8950733 22.17907441 157.0625 23.5625 C160.20275922 27.5131487 159.47149501 32.13046134 159 37 C158.67 37.66 158.34 38.32 158 39 C157.01 39.33 156.02 39.66 155 40 C155.165 38.9275 155.33 37.855 155.5 36.75 C156.3352003 30.76189263 156.3352003 30.76189263 155 25 C152.50965614 23.70339566 152.50965614 23.70339566 150 23 C150.99 19.7 151.98 16.4 153 13 C146.68439027 7.21069108 141.08633074 7.22890562 132.75 7.1875 C130.97496094 7.14979492 130.97496094 7.14979492 129.1640625 7.11132812 C125.10889692 7.03050193 121.05589005 7 117 7 C116.97111854 10.31248187 116.95324201 13.62493167 116.9375 16.9375 C116.92493164 18.35579102 116.92493164 18.35579102 116.91210938 19.80273438 C116.90727539 21.15141602 116.90727539 21.15141602 116.90234375 22.52734375 C116.89448853 23.77632446 116.89448853 23.77632446 116.88647461 25.05053711 C116.78356708 27.00516798 116.78356708 27.00516798 118 28 C118.26293056 32.03160191 118.29404844 33.55892734 116 37 C113.875 37.6875 113.875 37.6875 112 38 C113.75 34.125 113.75 34.125 116 33 C115.89171875 31.86111328 115.89171875 31.86111328 115.78125 30.69921875 C115.6884375 29.70535156 115.595625 28.71148437 115.5 27.6875 C115.4071875 26.70136719 115.314375 25.71523437 115.21875 24.69921875 C115 22 115 22 115 19 C114.34 19 113.68 19 113 19 C113.556875 17.63875 113.556875 17.63875 114.125 16.25 C115.25131743 13.16467339 115.25131743 13.16467339 114.375 10.75 C112.21694327 8.00338235 109.96584178 7.12449559 106.52636719 6.68115234 C105.62563477 6.64973145 104.72490234 6.61831055 103.796875 6.5859375 C102.8171875 6.54726562 101.8375 6.50859375 100.828125 6.46875 C99.30445313 6.42234375 99.30445313 6.42234375 97.75 6.375 C96.203125 6.31699219 96.203125 6.31699219 94.625 6.2578125 C92.0835106 6.16368326 89.54202567 6.07805021 87 6 C87.495 6.99 87.495 6.99 88 8 C88.66 8 89.32 8 90 8 C90.67228569 12.48190462 91.12701027 15.63283522 90 20 C90.29235267 22.33882138 90.62599214 24.67284 91 27 C91 28.32 91 29.64 91 31 C90.01 30.01 90.01 30.01 89 29 C89.2784375 27.824375 89.2784375 27.824375 89.5625 26.625 C90.29178752 23.94859806 90.29178752 23.94859806 88.6875 21.6875 C88.130625 21.130625 87.57375 20.57375 87 20 C86.34 20 85.68 20 85 20 C85.680625 19.443125 86.36125 18.88625 87.0625 18.3125 C89.25510881 16.18317288 89.25510881 16.18317288 89.0625 13.5 C87.56544541 9.97751862 86.33969805 8.96356171 83 7 C79.03453696 6.4431461 75.1217931 6.53050618 71.125 6.625 C70.0119751 6.63789063 68.8989502 6.65078125 67.75219727 6.6640625 C59.38070792 6.81952868 51.23850267 7.4996548 43 9 C43.04253906 10.093125 43.08507812 11.18625 43.12890625 12.3125 C43 16 43 16 40.9375 19 C38.43457181 22.87550172 39.20915027 24.57124149 40 29 C39.125 32.1875 39.125 32.1875 38 35 C37.65023242 36.32911682 37.30903983 37.66082739 37 39 C35.79371992 36.66785852 34.8345262 34.50357861 34 32 C34.639375 31.7525 35.27875 31.505 35.9375 31.25 C38.12493715 30.18550582 38.12493715 30.18550582 38.875 28.125 C39.02904228 25.50628117 38.24534014 24.27091436 37 22 C37 21.01 37 20.02 37 19 C39 17.3125 39 17.3125 41 16 C40.81171228 13.55519921 40.81171228 13.55519921 40 11 C36.96969085 8.99095526 34.40823739 8.73084337 30.82421875 8.65625 C29.83099609 8.62660156 28.83777344 8.59695312 27.81445312 8.56640625 C26.26661133 8.53353516 26.26661133 8.53353516 24.6875 8.5 C8.56797015 8.15378142 8.56797015 8.15378142 4.0625 4.375 C3.711875 3.92125 3.36125 3.4675 3 3 Z " fill="#111111" transform="translate(428,216)"/>
<path d="M0 0 C2.64 0 5.28 0 8 0 C7.01 1.485 7.01 1.485 6 3 C6.33 3.66 6.66 4.32 7 5 C5.39125 5.680625 5.39125 5.680625 3.75 6.375 C1.71546456 7.23702205 -0.19370454 8.10824666 -2.125 9.1875 C-4.55715809 10.24143517 -6.37752185 10.27605033 -9 10 C-9.66 9.34 -10.32 8.68 -11 8 C-13.65537372 7.43479997 -16.29144713 7.26211802 -19 7 C-19.34615998 12.65394631 -18.43425238 16.03006806 -16 21 C-11.92077998 21.36223443 -11.92077998 21.36223443 -8.25 19.875 C-6.59516846 17.39275268 -5.82418592 14.85295126 -5 12 C-4.35933594 11.89042969 -3.71867187 11.78085937 -3.05859375 11.66796875 C1.00030159 10.92393875 4.5868191 10.18363596 8.375 8.5 C13.43970882 6.40425842 18.59412154 5.75451506 24 5 C24 4.34 24 3.68 24 3 C24.99 3 25.98 3 27 3 C27.20753906 3.68964844 27.41507813 4.37929687 27.62890625 5.08984375 C29.6939886 11.38877695 32.14777871 16.02796919 36.51171875 21.02734375 C38.06946267 23.09206994 38.76905237 24.42735078 39 27 C38.34 27.66 37.68 28.32 37 29 C35 28 35 28 34.125 25.75 C33.12400665 22.92540649 33.12400665 22.92540649 31.125 20.6875 C28.36759075 17.2001883 25 12.60072065 25 8 C24.29746094 8.31066406 23.59492188 8.62132812 22.87109375 8.94140625 C19.89494464 10.0387347 17.20065746 10.51342467 14.0625 10.9375 C9.49030809 11.63875643 6.07648895 12.75793108 2 15 C0.68 15 -0.64 15 -2 15 C-2.226875 15.721875 -2.45375 16.44375 -2.6875 17.1875 C-4.33900613 20.7264417 -5.88158251 22.62729104 -9 25 C-12.01604463 25.69554906 -13.81688663 25.45473048 -17 25 C-20.78730673 22.40868487 -22.08011701 19.43216352 -23 15 C-22.87671233 6.87671233 -22.87671233 6.87671233 -20 4 C-15.86002433 3.8028583 -12.92296433 3.69234522 -9 5 C-3.73428531 5.39741243 -0.5556846 4.6667422 4 2 C2.68 1.34 1.36 0.68 0 0 Z " fill="#1F1F1F" transform="translate(177,247)"/>
<path d="M0 0 C8.31338818 1.29319372 8.31338818 1.29319372 11.125 4.1875 C13 7 13 7 14 13 C26.375 12.505 26.375 12.505 39 12 C39.99 9.03 40.98 6.06 42 3 C42.66 2.01 43.32 1.02 44 0 C44.66 0.33 45.32 0.66 46 1 C45.35814255 3.31367222 44.71172608 5.6258957 44.0625 7.9375 C43.88009766 8.59685547 43.69769531 9.25621094 43.50976562 9.93554688 C42.11328125 14.88671875 42.11328125 14.88671875 41 16 C38.85441173 16.08775605 36.70595579 16.10695219 34.55859375 16.09765625 C33.25341797 16.09443359 31.94824219 16.09121094 30.60351562 16.08789062 C29.2148431 16.07953401 27.82617123 16.07106905 26.4375 16.0625 C25.04492344 16.05748666 23.65234519 16.05292347 22.25976562 16.04882812 C18.8398013 16.03699434 15.41992156 16.0205088 12 16 C11.74605469 15.38511719 11.49210937 14.77023438 11.23046875 14.13671875 C10.88628906 13.32847656 10.54210938 12.52023438 10.1875 11.6875 C9.85105469 10.88699219 9.51460937 10.08648437 9.16796875 9.26171875 C8.00272285 7.00527267 6.94130319 5.61775266 5 4 C2.89667109 3.28552357 2.89667109 3.28552357 1 3 C0.81824219 3.61488281 0.63648438 4.22976562 0.44921875 4.86328125 C0.19785156 5.67152344 -0.05351563 6.47976562 -0.3125 7.3125 C-0.55613281 8.11300781 -0.79976562 8.91351563 -1.05078125 9.73828125 C-2.04182023 12.09964573 -3.08074943 13.33879993 -5 15 C-4.7242265 8.7950962 -3.89359206 4.89839001 0 0 Z " fill="#191919" transform="translate(47,155)"/>
<path d="M0 0 C0 1.98 0 3.96 0 6 C-0.495 4.515 -0.495 4.515 -1 3 C-1.66 3 -2.32 3 -3 3 C-3 2.34 -3 1.68 -3 1 C-6.38333186 2.03379585 -7.77899477 2.69059268 -9.875 5.625 C-12 8 -12 8 -15.3125 8.5 C-18.65475559 8.0468128 -21.06766987 7.20120958 -24.1015625 5.796875 C-31.94486287 2.50462546 -40.67479131 2.65122683 -49.04370117 2.42919922 C-49.88263916 2.40100098 -50.72157715 2.37280273 -51.5859375 2.34375 C-52.71588135 2.31571289 -52.71588135 2.31571289 -53.86865234 2.28710938 C-56.25535547 1.9656016 -57.91702336 1.18218215 -60 0 C-57.58716237 -2.41283763 -50.82253663 -1.30793264 -47.44042969 -1.33007812 C-37.98846886 -1.22977433 -29.1271606 0.68723532 -20 3 C-20 3.66 -20 4.32 -20 5 C-17.69 5 -15.38 5 -13 5 C-12.7525 4.21625 -12.505 3.4325 -12.25 2.625 C-11 0 -11 0 -9.1875 -1.375 C-5.76029082 -2.35420262 -3.12982904 -1.56491452 0 0 Z " fill="#121212" transform="translate(262,228)"/>
<path d="M0 0 C1.46373047 0.02707031 1.46373047 0.02707031 2.95703125 0.0546875 C3.69308594 0.07789063 4.42914063 0.10109375 5.1875 0.125 C5.1875 1.115 5.1875 2.105 5.1875 3.125 C4.19169922 3.19847656 4.19169922 3.19847656 3.17578125 3.2734375 C-3.57801312 3.72239875 -3.57801312 3.72239875 -9.8125 6.125 C-10.98914871 9.65494613 -11.01100603 12.41955413 -10.8125 16.125 C-9.09023504 19.37349977 -9.09023504 19.37349977 -5.8125 20.125 C-4.40425107 20.20521999 -2.99252769 20.23265977 -1.58203125 20.22265625 C-0.77958984 20.21943359 0.02285156 20.21621094 0.84960938 20.21289062 C1.68298828 20.20451172 2.51636719 20.19613281 3.375 20.1875 C4.6424707 20.18073242 4.6424707 20.18073242 5.93554688 20.17382812 C8.01956155 20.16205403 10.10353977 20.1441189 12.1875 20.125 C12.1875 21.115 12.1875 22.105 12.1875 23.125 C4.71445502 25.61601499 -3.77360078 24.64513349 -11.10546875 22.07421875 C-12.8125 21.125 -12.8125 21.125 -14.8125 18.125 C-15.43739744 13.21771716 -15.21286451 8.52566827 -12.8125 4.125 C-9.04213149 0.35463149 -5.18226941 -0.12487396 0 0 Z " fill="#1C1C1C" transform="translate(54.8125,191.875)"/>
<path d="M0 0 C0.7211499 0.00141495 1.4422998 0.0028299 2.18530273 0.00428772 C4.45691324 0.00982244 6.72842 0.02236202 9 0.03515625 C10.55338398 0.04017971 12.10676952 0.04474113 13.66015625 0.04882812 C17.44014328 0.05977036 21.22005414 0.07698865 25 0.09765625 C25.495 1.58265625 25.495 1.58265625 26 3.09765625 C24.35451172 3.29681641 24.35451172 3.29681641 22.67578125 3.5 C21.22134199 3.6782861 19.76691558 3.85667705 18.3125 4.03515625 C17.59126953 4.12216797 16.87003906 4.20917969 16.12695312 4.29882812 C12.37989416 4.7607943 8.69207089 5.28933304 5 6.09765625 C5.66 5.10765625 6.32 4.11765625 7 3.09765625 C-0.92 3.09765625 -8.84 3.09765625 -17 3.09765625 C-16.67 2.43765625 -16.34 1.77765625 -16 1.09765625 C-10.65838183 0.16968188 -5.4181106 -0.04109124 0 0 Z " fill="#0B0B0B" transform="translate(177,244.90234375)"/>
<path d="M0 0 C2.64 0 5.28 0 8 0 C7.01 1.485 7.01 1.485 6 3 C6.33 3.66 6.66 4.32 7 5 C5.39125 5.680625 5.39125 5.680625 3.75 6.375 C1.71546456 7.23702205 -0.19370454 8.10824666 -2.125 9.1875 C-4.55715809 10.24143517 -6.37752185 10.27605033 -9 10 C-9.66 9.34 -10.32 8.68 -11 8 C-13.65537372 7.43479997 -16.29144713 7.26211802 -19 7 C-19.33 10.3 -19.66 13.6 -20 17 C-20.33 16.34 -20.66 15.68 -21 15 C-21.66 15 -22.32 15 -23 15 C-22.88590407 13.54077307 -22.75834456 12.08259402 -22.625 10.625 C-22.55539063 9.81289063 -22.48578125 9.00078125 -22.4140625 8.1640625 C-22 6 -22 6 -20 4 C-15.86002433 3.8028583 -12.92296433 3.69234522 -9 5 C-3.73428531 5.39741243 -0.5556846 4.6667422 4 2 C2.68 1.34 1.36 0.68 0 0 Z " fill="#282828" transform="translate(177,247)"/>
<path d="M0 0 C0.33 0 0.66 0 1 0 C1.20625 0.78375 1.4125 1.5675 1.625 2.375 C3.79690622 8.10093457 6.74170776 13.75837412 11.1171875 18.1015625 C13.49624527 20.50036349 14.12166281 22.7794303 15 26 C14.34 26.33 13.68 26.66 13 27 C12.67 27.66 12.34 28.32 12 29 C11 31 11 31 9 32 C9 29.69 9 27.38 9 25 C9.66 25 10.32 25 11 25 C10.38511719 24.11957031 9.77023438 23.23914063 9.13671875 22.33203125 C8.32022829 21.15891277 7.50382675 19.9857324 6.6875 18.8125 C6.28337891 18.23435547 5.87925781 17.65621094 5.46289062 17.06054688 C-1.0557437 7.6800731 -1.0557437 7.6800731 -0.6875 3.1875 C-0.460625 2.135625 -0.23375 1.08375 0 0 Z " fill="#242424" transform="translate(60,243)"/>
<path d="M0 0 C2 1.75 2 1.75 4 4 C4 5.32 4 6.64 4 8 C3.05640625 8.36351562 3.05640625 8.36351562 2.09375 8.734375 C-2.19897229 10.41526023 -6.39879657 12.13908647 -10.5 14.25 C-14 16 -14 16 -16 16 C-16.33 16.99 -16.66 17.98 -17 19 C-19.0625 19.6875 -19.0625 19.6875 -21 20 C-19.67472296 14.36757258 -15.61596506 11.96101635 -11 9 C-6.94214581 6.82261483 -3.57260058 6.82068233 1 7 C0.67 4.69 0.34 2.38 0 0 Z " fill="#242424" transform="translate(41,166)"/>
<path d="M0 0 C1.32 0.66 2.64 1.32 4 2 C2.8656185 9.94067053 -2.50728227 15.50728227 -8 21 C-8.66 21.33 -9.32 21.66 -10 22 C-10 18.04 -10 14.08 -10 10 C-9.34 10 -8.68 10 -8 10 C-7.34 11.32 -6.68 12.64 -6 14 C-4.37168238 12.19038423 -4.37168238 12.19038423 -3 10 C-3.33 9.01 -3.66 8.02 -4 7 C-2.35 6.34 -0.7 5.68 1 5 C0.67 3.35 0.34 1.7 0 0 Z " fill="#010101" transform="translate(442,237)"/>
<path d="M0 0 C0.66 1.98 1.32 3.96 2 6 C3.91541138 6.10841951 5.83259773 6.18578079 7.75 6.25 C8.81734375 6.29640625 9.8846875 6.3428125 10.984375 6.390625 C14.63802112 5.91735478 15.72228105 4.80844958 18 2 C17.6875 4.875 17.6875 4.875 17 8 C13.46763908 10.35490728 11.75279632 10.32743705 7.5625 10.375 C6.42941406 10.40335937 5.29632813 10.43171875 4.12890625 10.4609375 C0.39176421 9.91039723 -0.76506368 8.9907907 -3 6 C-3.25 3.25 -3.25 3.25 -3 1 C-1 0 -1 0 0 0 Z " fill="#0F0F0F" transform="translate(214,274)"/>
<path d="M0 0 C3.02089478 -0.02716089 6.04154129 -0.04691657 9.0625 -0.0625 C9.91005859 -0.07087891 10.75761719 -0.07925781 11.63085938 -0.08789062 C16.5361722 -0.10683006 21.16444755 0.16673655 26 1 C26 1.99 26 2.98 26 4 C17.09 3.67 8.18 3.34 -1 3 C-0.67 2.01 -0.34 1.02 0 0 Z " fill="#202020" transform="translate(45,228)"/>
<path d="M0 0 C2.24658203 -0.34057617 2.24658203 -0.34057617 5.0078125 -0.29296875 C5.99394531 -0.28330078 6.98007813 -0.27363281 7.99609375 -0.26367188 C9.02863281 -0.23853516 10.06117188 -0.21339844 11.125 -0.1875 C12.68541016 -0.16719727 12.68541016 -0.16719727 14.27734375 -0.14648438 C16.85207627 -0.11105228 19.4257833 -0.06165221 22 0 C20.43388934 3.13222131 18.18298914 3.70322665 15 5 C9.1515058 5.56235521 3.67844833 4.27965033 -2 3 C-1.34 2.01 -0.68 1.02 0 0 Z " fill="#DDDDDD" transform="translate(160,248)"/>
<path d="M0 0 C0.33 0 0.66 0 1 0 C0.96519531 1.24716797 0.96519531 1.24716797 0.9296875 2.51953125 C0.91164063 3.60621094 0.89359375 4.69289062 0.875 5.8125 C0.85179687 6.89144531 0.82859375 7.97039062 0.8046875 9.08203125 C0.76976283 12.19402868 0.76976283 12.19402868 3 15 C3.25760279 17.69452521 3.08900053 20.28548375 3 23 C2.01 22.67 1.02 22.34 0 22 C-1.1875 18.4375 -1.1875 18.4375 -2 15 C-3.32 14.67 -4.64 14.34 -6 14 C-5.21998106 8.85187497 -3.73783993 3.73783993 0 0 Z " fill="#252525" transform="translate(262,229)"/>
<path d="M0 0 C0.66 0.33 1.32 0.66 2 1 C1.319375 1.845625 0.63875 2.69125 -0.0625 3.5625 C-2.43065395 7.76406347 -1.82658451 9.37112672 -1 14 C-1.875 17.1875 -1.875 17.1875 -3 20 C-3.34976758 21.32911682 -3.69096017 22.66082739 -4 24 C-4.99 24 -5.98 24 -7 24 C-7 23.01 -7 22.02 -7 21 C-7.66 20.34 -8.32 19.68 -9 19 C-8.13375 18.154375 -7.2675 17.30875 -6.375 16.4375 C-4.93020894 14.85540789 -4.93020894 14.85540789 -4 13 C-4.53219091 9.17352608 -4.53219091 9.17352608 -6 6 C-4.02 4.02 -2.04 2.04 0 0 Z " fill="#000000" transform="translate(470,231)"/>
<path d="M0 0 C0.68449219 0.14308594 1.36898437 0.28617188 2.07421875 0.43359375 C5.31053736 1.06011738 8.55335919 1.56869079 11.8125 2.0625 C13.55466797 2.32740234 13.55466797 2.32740234 15.33203125 2.59765625 C16.21246094 2.73042969 17.09289062 2.86320313 18 3 C18 2.34 18 1.68 18 1 C19.8125 0.3125 19.8125 0.3125 22 0 C23.75 1.4375 23.75 1.4375 25 3 C23.68 3 22.36 3 21 3 C20.67 3.99 20.34 4.98 20 6 C12.30415843 6.42579451 6.93348093 5.46674047 0 2 C0 1.34 0 0.68 0 0 Z " fill="#343434" transform="translate(88,244)"/>
<path d="M0 0 C1.65 0.33 3.3 0.66 5 1 C5.90594807 3.61718331 5.98235878 5.10143704 5.5 7.875 C4.96376636 11.22646028 5.41081278 13.68582189 6 17 C5.67 17.99 5.34 18.98 5 20 C4.01 19.67 3.02 19.34 2 19 C2.2475 18.4225 2.495 17.845 2.75 17.25 C2.8325 16.5075 2.915 15.765 3 15 C1.14567913 12.72855926 1.14567913 12.72855926 -1 11 C0.33333333 8.33333333 1.66666667 5.66666667 3 3 C2.01 2.67 1.02 2.34 0 2 C0 1.34 0 0.68 0 0 Z " fill="#000000" transform="translate(564,256)"/>
<path d="M0 0 C1.46373047 0.02707031 1.46373047 0.02707031 2.95703125 0.0546875 C3.69308594 0.07789063 4.42914063 0.10109375 5.1875 0.125 C5.1875 1.115 5.1875 2.105 5.1875 3.125 C4.19169922 3.19847656 4.19169922 3.19847656 3.17578125 3.2734375 C-3.56681906 3.74617876 -3.56681906 3.74617876 -9.8125 6.125 C-10.8025 7.61 -10.8025 7.61 -11.8125 9.125 C-12.4725 8.795 -13.1325 8.465 -13.8125 8.125 C-13.23905063 5.25775314 -12.9510485 4.2635485 -10.8125 2.125 C-7.0831766 0.28288171 -4.13515316 -0.09964224 0 0 Z " fill="#1F1F1F" transform="translate(54.8125,191.875)"/>
<path d="M0 0 C1.60517097 0.08733576 3.20921662 0.19552224 4.8125 0.3125 C6.15248047 0.39951172 6.15248047 0.39951172 7.51953125 0.48828125 C10.37959896 1.07831097 11.3225978 1.63443279 13 4 C13.66957496 6.67318858 13.77362708 9.23825037 14 12 C12.68 12.33 11.36 12.66 10 13 C9.67 10.03 9.34 7.06 9 4 C6.36 4 3.72 4 1 4 C0.67 2.68 0.34 1.36 0 0 Z " fill="#202020" transform="translate(80,263)"/>
<path d="M0 0 C1.20186843 3.6056053 0.66097664 5.02284268 -0.375 8.625 C-0.65085937 9.60726562 -0.92671875 10.58953125 -1.2109375 11.6015625 C-2 14 -2 14 -3 15 C-3.23678716 17.69235776 -3.42198025 20.36498156 -3.5625 23.0625 C-3.60568359 23.82111328 -3.64886719 24.57972656 -3.69335938 25.36132812 C-3.79973633 27.24065438 -3.90039934 29.12030244 -4 31 C-4.33 31 -4.66 31 -5 31 C-5.05837668 27.29173349 -5.09372277 23.5835863 -5.125 19.875 C-5.15013672 18.30492187 -5.15013672 18.30492187 -5.17578125 16.703125 C-5.24020035 6.52490798 -5.24020035 6.52490798 -3 2 C-2.01 1.34 -1.02 0.68 0 0 Z " fill="#121212" transform="translate(22,184)"/>
<path d="M0 0 C0.99 0.33 1.98 0.66 3 1 C3.33 7.93 3.66 14.86 4 22 C3.34 22 2.68 22 2 22 C1.67 22.66 1.34 23.32 1 24 C-0.06309567 18.82682579 -0.11693938 13.87630664 -0.0625 8.625 C-0.05798828 7.79355469 -0.05347656 6.96210938 -0.04882812 6.10546875 C-0.03713164 4.07028103 -0.01919935 2.03513077 0 0 Z " fill="#2E2E2E" transform="translate(16,198)"/>
<path d="M0 0 C0.66 0.33 1.32 0.66 2 1 C1.814375 1.515625 1.62875 2.03125 1.4375 2.5625 C0.83752918 5.1713937 0.83752918 5.1713937 1.5 8.5 C1.93772143 11.56405002 2.02210188 13.16082812 1 16 C0.01 15.67 -0.98 15.34 -2 15 C-1.773125 14.113125 -1.54625 13.22625 -1.3125 12.3125 C-0.94548054 8.42209376 -1.73118159 7.08559304 -4 4 C-2.68 2.68 -1.36 1.36 0 0 Z " fill="#000000" transform="translate(518,231)"/>
<path d="M0 0 C1.67110042 2.96178773 2.32682752 5.37071192 2.625 8.75 C2.69976562 9.54921875 2.77453125 10.3484375 2.8515625 11.171875 C2.92503906 12.07679688 2.92503906 12.07679688 3 13 C2.34 13 1.68 13 1 13 C0.67 13.66 0.34 14.32 0 15 C-0.36552803 13.58622218 -0.71695495 12.16879424 -1.0625 10.75 C-1.25972656 9.96109375 -1.45695312 9.1721875 -1.66015625 8.359375 C-2.13314515 5.07563594 -1.46415031 2.92830061 0 0 Z " fill="#292929" transform="translate(127,199)"/>
<path d="M0 0 C3.80718548 0.72753266 7.55485569 1.61276572 11.3125 2.5625 C12.38113281 2.83191406 13.44976562 3.10132813 14.55078125 3.37890625 C15.76314453 3.68634766 15.76314453 3.68634766 17 4 C17 4.33 17 4.66 17 5 C5.47835991 5.55353075 5.47835991 5.55353075 0 2 C0 1.34 0 0.68 0 0 Z " fill="#101010" transform="translate(88,244)"/>
<path d="M0 0 C-1.27192363 2.54384726 -2.19948469 2.69368156 -4.8125 3.6875 C-5.49957031 3.95949219 -6.18664062 4.23148437 -6.89453125 4.51171875 C-9.29376496 5.06812731 -10.6894364 4.77364938 -13 4 C-4.33663366 -1.44554455 -4.33663366 -1.44554455 0 0 Z " fill="#090909" transform="translate(190,256)"/>
<path d="M0 0 C2.10633718 1.70828921 2.93801608 2.52148416 3.29296875 5.26171875 C3.25816406 6.06222656 3.22335938 6.86273438 3.1875 7.6875 C3.16042969 8.49574219 3.13335937 9.30398437 3.10546875 10.13671875 C3.07066406 10.75160156 3.03585938 11.36648437 3 12 C0.89366282 10.29171079 0.06198392 9.47851584 -0.29296875 6.73828125 C-0.25816406 5.93777344 -0.22335938 5.13726562 -0.1875 4.3125 C-0.16042969 3.50425781 -0.13335937 2.69601563 -0.10546875 1.86328125 C-0.07066406 1.24839844 -0.03585938 0.63351563 0 0 Z " fill="#151515" transform="translate(124,191)"/>
<path d="M0 0 C2.0625 0.25 2.0625 0.25 4 1 C4.33 1.66 4.66 2.32 5 3 C4.071875 3.1546875 4.071875 3.1546875 3.125 3.3125 C0.63473516 3.87525373 0.63473516 3.87525373 -1 7 C-1.66 6.67 -2.32 6.34 -3 6 C-2.42655063 3.13275314 -2.1385485 2.1385485 0 0 Z " fill="#252525" transform="translate(44,194)"/>
<path d="M0 0 C0.66 0.33 1.32 0.66 2 1 C1.34 2.32 0.68 3.64 0 5 C-0.66 5 -1.32 5 -2 5 C-2.33 5.99 -2.66 6.98 -3 8 C-5.0625 8.6875 -5.0625 8.6875 -7 9 C-5.64978174 4.58110387 -3.73884332 2.65654657 0 0 Z " fill="#1F1F1F" transform="translate(27,177)"/>
<path d="M0 0 C1.98 0 3.96 0 6 0 C6 0.99 6 1.98 6 3 C4.02 3.33 2.04 3.66 0 4 C0 2.68 0 1.36 0 0 Z " fill="#1E1E1E" transform="translate(35,189)"/>
<path d="M0 0 C0 1.32 0 2.64 0 4 C-2.97 3.505 -2.97 3.505 -6 3 C-6 2.34 -6 1.68 -6 1 C-4 0 -4 0 0 0 Z " fill="#2B2B2B" transform="translate(85,188)"/>
<path d="M0 0 C2 1.75 2 1.75 4 4 C4 5.32 4 6.64 4 8 C2.68 7.67 1.36 7.34 0 7 C0 4.69 0 2.38 0 0 Z " fill="#383838" transform="translate(41,166)"/>
<path d="M0 0 C0.33 0 0.66 0 1 0 C1 2.97 1 5.94 1 9 C0.01 9 -0.98 9 -2 9 C-1.125 1.125 -1.125 1.125 0 0 Z " fill="#000000" transform="translate(602,255)"/>
<path d="M0 0 C0.33 0 0.66 0 1 0 C1 2.97 1 5.94 1 9 C0.67 8.34 0.34 7.68 0 7 C-0.66 7 -1.32 7 -2 7 C-1.125 2.25 -1.125 2.25 0 0 Z " fill="#111111" transform="translate(156,255)"/>
</svg>
