<?xml version="1.0" encoding="UTF-8"?>
<svg version="1.1" xmlns="http://www.w3.org/2000/svg" width="800" height="300">
<path d="M0 0 C264 0 528 0 800 0 C800 99 800 198 800 300 C536 300 272 300 0 300 C0 201 0 102 0 0 Z " fill="#FEFEFE" transform="translate(0,0)"/>
<path d="M0 0 C5.87711622 -0.48975968 10.09611773 0.62928552 15 4 C16.99097846 6.98646769 17.94124926 9.59687262 19 13 C19.84256348 12.76228882 19.84256348 12.76228882 20.70214844 12.51977539 C23.09674429 11.97811638 25.31438553 11.79358526 27.765625 11.68359375 C29.09980469 11.62075195 29.09980469 11.62075195 30.4609375 11.55664062 C31.84152344 11.49766602 31.84152344 11.49766602 33.25 11.4375 C34.18585937 11.39431641 35.12171875 11.35113281 36.0859375 11.30664062 C38.39048641 11.2008195 40.69513839 11.09873443 43 11 C43.13664063 10.06929687 43.27328125 9.13859375 43.4140625 8.1796875 C44.15552124 4.15603809 44.79498103 2.59453917 48 0 C53.27606011 -1.03681688 58.38288225 -0.88403423 63.0625 1.9375 C65.7883535 4.29735184 66.51774831 6.17739897 67.18359375 9.69140625 C67.3427124 10.49908447 67.50183105 11.3067627 67.66577148 12.13891602 C67.77606689 12.75307373 67.8863623 13.36723145 68 14 C71.27116732 13.86111494 74.541834 13.71269508 77.8125 13.5625 C78.74126953 13.52318359 79.67003906 13.48386719 80.62695312 13.44335938 C81.51962891 13.40146484 82.41230469 13.35957031 83.33203125 13.31640625 C84.15421143 13.27974854 84.9763916 13.24309082 85.82348633 13.20532227 C88.17905178 13.06572228 88.17905178 13.06572228 91 12 C95.95 12 100.9 12 106 12 C106 38.73 106 65.46 106 93 C87.19 92.505 87.19 92.505 68 92 C61.73 92 55.46 92 49 92 C50.80062724 101.39026218 50.80062724 101.39026218 56.41796875 108.5234375 C59.04258392 109.22215954 59.04258392 109.22215954 61.6796875 109.61328125 C64 110 64 110 66.6875 111.875 C68 114 68 114 67.87890625 116.40625 C66.72626898 119.80781066 65.23669576 120.68983322 62.25 122.625 C61.38890625 123.19476563 60.5278125 123.76453125 59.640625 124.3515625 C58.76921875 124.89554687 57.8978125 125.43953125 57 126 C56.16210938 126.55945313 55.32421875 127.11890625 54.4609375 127.6953125 C51.81547589 129.09782707 50.33369631 129.35167341 47.375 129.25 C46.61960937 129.23453125 45.86421875 129.2190625 45.0859375 129.203125 C43 129 43 129 40 128 C37.52657734 124.28986601 37.61496514 122.38939738 38 118 C39.51953125 115.77734375 39.51953125 115.77734375 41 114 C40.4225 113.22914063 39.845 112.45828125 39.25 111.6640625 C38.5075 110.66117187 37.765 109.65828125 37 108.625 C36.2575 107.62726563 35.515 106.62953125 34.75 105.6015625 C33 103 33 103 33 101 C28.98052572 102.5162749 27.37553539 104.94379267 25 108.4375 C21.38806972 113.73546804 21.38806972 113.73546804 18.7421875 115.5390625 C18.16726563 116.02117187 17.59234375 116.50328125 17 117 C16.74137153 119.38601555 16.74137153 119.38601555 17.125 121.9375 C17.29804835 126.67902485 17.29804835 126.67902485 14.5625 129.625 C9.38914377 131.62173398 4.99594549 132.09595271 -0.28515625 130.1640625 C-3.30227336 128.70752321 -5.62027058 127.37972942 -8 125 C-8.68512668 121.57436662 -8.69660102 118.423605 -8 115 C-5.14739786 111.30635711 -1.3873631 110.09078823 3 109.0625 C6.92464308 107.80538776 8.20215397 105.36621979 10.05078125 101.79272461 C11.44229402 98.88980277 12.74647136 95.9653787 14 93 C12.89205078 92.92652344 12.89205078 92.92652344 11.76171875 92.8515625 C-10.33346142 91.22320106 -10.33346142 91.22320106 -16 85 C-23.83976695 74.39211781 -28.00270443 58.87392928 -27.42578125 45.76953125 C-26.78334809 41.59076879 -25.32041942 38.49259005 -23 35 C-22.360625 33.906875 -21.72125 32.81375 -21.0625 31.6875 C-18.85569188 28.81196215 -17.13342459 27.74888814 -14 26 C-12.20845018 24.47476164 -10.47033752 22.90548656 -8.74609375 21.3046875 C-6.83220377 19.87462206 -5.33274839 19.41856755 -3 19 C-3.05220703 17.82244141 -3.05220703 17.82244141 -3.10546875 16.62109375 C-3.27019021 10.22833246 -3.07880961 5.64448429 0 0 Z " fill="#FAFAFA" transform="translate(694,156)"/>
<path d="M0 0 C5.87711622 -0.48975968 10.09611773 0.62928552 15 4 C17.29013653 7.4352048 17.17842973 8.985331 17 13 C16.34 13 15.68 13 15 13 C14.814375 11.906875 14.62875 10.81375 14.4375 9.6875 C13.3364902 5.72410335 13.3364902 5.72410335 9.625 4.0625 C5.98983152 2.81248638 5.98983152 2.81248638 2 3 C0.17144572 7.59232335 -0.12514462 10.97358268 0.375 15.875 C0.48585938 17.02742188 0.59671875 18.17984375 0.7109375 19.3671875 C0.80632813 20.23601562 0.90171875 21.10484375 1 22 C-0.258125 22.28875 -1.51625 22.5775 -2.8125 22.875 C-11.16841404 25.68670567 -17.97374764 32.42283566 -22.1875 40.0625 C-26.93857093 51.32236407 -21.9166684 62.04446045 -17.953125 72.85546875 C-15.53655933 78.76813147 -12.36488331 82.42341112 -7 86 C-4.47188955 86.5997447 -1.99211597 87.11520632 0.5625 87.5625 C1.27470703 87.69180908 1.98691406 87.82111816 2.72070312 87.9543457 C8.12456923 88.90980303 13.52323078 89.61820599 19 90 C19.33 90.99 19.66 91.98 20 93 C18.68 93 17.36 93 16 93 C15.88785156 93.51304687 15.77570312 94.02609375 15.66015625 94.5546875 C11.66706084 109.34567995 11.66706084 109.34567995 7.03515625 112.21875 C5 112.625 5 112.625 2.96875 112.8046875 C-0.46284582 113.14512359 -2.50140123 114.75126111 -5 117 C-5.91666667 120 -5.91666667 120 -5 123 C-2.78174689 125.80978728 -1.11309862 126.858204 2.453125 127.3125 C8.05455213 127.46291617 8.05455213 127.46291617 13 125 C12.67 121.7 12.34 118.4 12 115 C13.8871875 113.9171875 13.8871875 113.9171875 15.8125 112.8125 C19.40471051 110.5579483 21.01704473 108.79347964 23 105 C25.27210836 101.95167362 27.63374922 98.9756414 30 96 C31.82421875 96.21484375 31.82421875 96.21484375 34 97 C35.45703125 99.00390625 35.45703125 99.00390625 36.8125 101.5625 C39.33260141 106.07283534 42.16256842 109.63242097 45.77734375 113.30859375 C46.18082031 113.86675781 46.58429688 114.42492187 47 115 C46.505 116.485 46.505 116.485 46 118 C43.9375 118.6875 43.9375 118.6875 42 119 C41.957279 120.66611905 41.95936168 122.33382885 42 124 C43.22820201 125.42759955 43.22820201 125.42759955 46.875 125.5625 C53.4395209 125.54135823 58.456703 121.44139127 63 117 C63 116.01 63 115.02 63 114 C60.70370006 112.85185003 58.92301914 112.69230191 56.375 112.4375 C55.14910156 112.31181641 55.14910156 112.31181641 53.8984375 112.18359375 C53.27195312 112.12300781 52.64546875 112.06242187 52 112 C51.608125 110.9275 51.21625 109.855 50.8125 108.75 C49.03313309 103.99083203 47.06328071 99.31643102 45.0859375 94.63671875 C44.32299233 92.78424396 43.63354149 90.90062446 43 89 C44.57484437 87.42515563 46.14125405 87.87021162 48.328125 87.8671875 C49.25939209 87.86517334 50.19065918 87.86315918 51.15014648 87.86108398 C52.17309814 87.86567627 53.1960498 87.87026855 54.25 87.875 C55.83180054 87.87898804 55.83180054 87.87898804 57.44555664 87.88305664 C66.11380943 87.93288506 74.77410543 88.15063997 83.4375 88.4375 C84.65018555 88.47665527 85.86287109 88.51581055 87.11230469 88.55615234 C93.45705434 88.78659761 99.7013568 89.1983545 106 90 C106 90.99 106 91.98 106 93 C104.9483667 92.96970703 103.8967334 92.93941406 102.81323242 92.90820312 C98.81167868 92.79366643 94.81003087 92.68273748 90.80834961 92.57275391 C89.09510701 92.52519487 87.38188924 92.47673044 85.66870117 92.42724609 C73.44227434 92.07494094 61.23140403 91.93761698 49 92 C50.80632649 101.4492078 50.80632649 101.4492078 56.41796875 108.5234375 C59.04258392 109.22215954 59.04258392 109.22215954 61.6796875 109.61328125 C64 110 64 110 66.6875 111.875 C68 114 68 114 67.87890625 116.40625 C66.72626898 119.80781066 65.23669576 120.68983322 62.25 122.625 C61.38890625 123.19476563 60.5278125 123.76453125 59.640625 124.3515625 C58.76921875 124.89554687 57.8978125 125.43953125 57 126 C56.16210938 126.55945313 55.32421875 127.11890625 54.4609375 127.6953125 C51.81547589 129.09782707 50.33369631 129.35167341 47.375 129.25 C46.61960937 129.23453125 45.86421875 129.2190625 45.0859375 129.203125 C43 129 43 129 40 128 C37.52657734 124.28986601 37.61496514 122.38939738 38 118 C39.51953125 115.77734375 39.51953125 115.77734375 41 114 C40.4225 113.22914063 39.845 112.45828125 39.25 111.6640625 C38.5075 110.66117187 37.765 109.65828125 37 108.625 C36.2575 107.62726563 35.515 106.62953125 34.75 105.6015625 C33 103 33 103 33 101 C28.98052572 102.5162749 27.37553539 104.94379267 25 108.4375 C21.38806972 113.73546804 21.38806972 113.73546804 18.7421875 115.5390625 C18.16726563 116.02117187 17.59234375 116.50328125 17 117 C16.74137153 119.38601555 16.74137153 119.38601555 17.125 121.9375 C17.29804835 126.67902485 17.29804835 126.67902485 14.5625 129.625 C9.38914377 131.62173398 4.99594549 132.09595271 -0.28515625 130.1640625 C-3.30227336 128.70752321 -5.62027058 127.37972942 -8 125 C-8.68512668 121.57436662 -8.69660102 118.423605 -8 115 C-5.14739786 111.30635711 -1.3873631 110.09078823 3 109.0625 C6.92464308 107.80538776 8.20215397 105.36621979 10.05078125 101.79272461 C11.44229402 98.88980277 12.74647136 95.9653787 14 93 C12.89205078 92.92652344 12.89205078 92.92652344 11.76171875 92.8515625 C-10.33346142 91.22320106 -10.33346142 91.22320106 -16 85 C-23.83976695 74.39211781 -28.00270443 58.87392928 -27.42578125 45.76953125 C-26.78334809 41.59076879 -25.32041942 38.49259005 -23 35 C-22.360625 33.906875 -21.72125 32.81375 -21.0625 31.6875 C-18.85569188 28.81196215 -17.13342459 27.74888814 -14 26 C-12.20845018 24.47476164 -10.47033752 22.90548656 -8.74609375 21.3046875 C-6.83220377 19.87462206 -5.33274839 19.41856755 -3 19 C-3.05220703 17.82244141 -3.05220703 17.82244141 -3.10546875 16.62109375 C-3.27019021 10.22833246 -3.07880961 5.64448429 0 0 Z " fill="#0F0F0F" transform="translate(694,156)"/>
<path d="M0 0 C4.30348632 0.73548283 7.00595158 2.07867829 9.765625 5.47265625 C10.48999023 7.74047852 10.48999023 7.74047852 10.94921875 10.1640625 C11.1083374 10.97174072 11.26745605 11.77941895 11.43139648 12.61157227 C11.54169189 13.22572998 11.6519873 13.8398877 11.765625 14.47265625 C15.03679232 14.33377119 18.307459 14.18535133 21.578125 14.03515625 C22.50689453 13.99583984 23.43566406 13.95652344 24.39257812 13.91601562 C25.28525391 13.87412109 26.17792969 13.83222656 27.09765625 13.7890625 C27.91983643 13.75240479 28.7420166 13.71574707 29.58911133 13.67797852 C31.94467678 13.53837853 31.94467678 13.53837853 34.765625 12.47265625 C37.33828318 12.40236504 39.88203931 12.37894793 42.453125 12.41015625 C43.15501953 12.41466797 43.85691406 12.41917969 44.58007812 12.42382812 C46.30863038 12.43558698 48.03713865 12.45352171 49.765625 12.47265625 C49.765625 13.46265625 49.765625 14.45265625 49.765625 15.47265625 C37.225625 16.13265625 24.685625 16.79265625 11.765625 17.47265625 C11.105625 18.79265625 10.445625 20.11265625 9.765625 21.47265625 C8.775625 21.47265625 7.785625 21.47265625 6.765625 21.47265625 C6.86101563 20.725 6.95640625 19.97734375 7.0546875 19.20703125 C7.16554688 18.2221875 7.27640625 17.23734375 7.390625 16.22265625 C7.50664063 15.248125 7.62265625 14.27359375 7.7421875 13.26953125 C7.76720015 10.2846887 7.43421984 8.91556635 5.765625 6.47265625 C1.73923704 3.91040936 -1.4640319 2.73060288 -6.234375 3.47265625 C-9.99239442 6.71232816 -9.47811119 9.17880956 -10.234375 14.47265625 C-18.814375 14.80265625 -27.394375 15.13265625 -36.234375 15.47265625 C-36.234375 14.81265625 -36.234375 14.15265625 -36.234375 13.47265625 C-33.4441083 12.54256735 -31.46907958 12.28566856 -28.56640625 12.15625 C-27.67373047 12.11435547 -26.78105469 12.07246094 -25.86132812 12.02929688 C-24.93255859 11.98998047 -24.00378906 11.95066406 -23.046875 11.91015625 C-22.10650391 11.86697266 -21.16613281 11.82378906 -20.19726562 11.77929688 C-17.87644646 11.6732696 -15.55552175 11.57120596 -13.234375 11.47265625 C-13.09773437 10.54195312 -12.96109375 9.61125 -12.8203125 8.65234375 C-11.37303299 0.79844028 -7.35072256 -0.3832596 0 0 Z " fill="#0C0C0C" transform="translate(750.234375,155.52734375)"/>
<path d="M0 0 C0.98484375 0.02707031 1.9696875 0.05414063 2.984375 0.08203125 C3.73203125 0.11683594 4.4796875 0.15164062 5.25 0.1875 C4.92 0.8475 4.59 1.5075 4.25 2.1875 C1.52734375 2.8203125 1.52734375 2.8203125 -1.8125 3.3125 C-2.91722656 3.48007813 -4.02195312 3.64765625 -5.16015625 3.8203125 C-6.44212891 4.00207031 -6.44212891 4.00207031 -7.75 4.1875 C-9.17109687 8.62842772 -10.36394419 12.48059454 -9.75 17.1875 C-8.18138091 19.94710765 -6.9547339 21.81846036 -3.82763672 22.77636719 C-1.54903544 23.12739083 0.70009796 23.34171487 3 23.5 C3.79277344 23.57283203 4.58554687 23.64566406 5.40234375 23.72070312 C7.34982846 23.89668066 9.29979058 24.04485368 11.25 24.1875 C10.92 25.1775 10.59 26.1675 10.25 27.1875 C7.68508544 27.12721999 5.12578243 27.04012053 2.5625 26.9375 C1.84126953 26.92332031 1.12003906 26.90914062 0.37695312 26.89453125 C-4.54172599 26.66993403 -7.16496243 25.83239905 -10.75 22.1875 C-13.59316661 17.92275008 -13.25671891 14.19232365 -12.75 9.1875 C-10.30089725 2.45246744 -7.1974954 -0.25705341 0 0 Z " fill="#242424" transform="translate(703.75,192.8125)"/>
<path d="M0 0 C0.99 0.33 1.98 0.66 3 1 C1.99088542 2.33463542 0.98177083 3.66927083 -0.02734375 5.00390625 C-1.46390105 7.69307036 -1.46390105 7.69307036 -2 14 C-10.58 14.33 -19.16 14.66 -28 15 C-28 14.34 -28 13.68 -28 13 C-25.2097333 12.0699111 -23.23470458 11.81301231 -20.33203125 11.68359375 C-19.43935547 11.64169922 -18.54667969 11.59980469 -17.62695312 11.55664062 C-16.69818359 11.51732422 -15.76941406 11.47800781 -14.8125 11.4375 C-13.87212891 11.39431641 -12.93175781 11.35113281 -11.96289062 11.30664062 C-9.64207146 11.20061335 -7.32114675 11.09854971 -5 11 C-4.87753906 10.06929687 -4.75507812 9.13859375 -4.62890625 8.1796875 C-3.89766582 4.48260853 -2.50861092 2.75137972 0 0 Z " fill="#0E0E0E" transform="translate(742,156)"/>
<path d="M0 0 C5.87711622 -0.48975968 10.09611773 0.62928552 15 4 C17.29013653 7.4352048 17.17842973 8.985331 17 13 C16.34 13 15.68 13 15 13 C14.814375 11.906875 14.62875 10.81375 14.4375 9.6875 C13.3364902 5.72410335 13.3364902 5.72410335 9.625 4.0625 C5.98983152 2.81248638 5.98983152 2.81248638 2 3 C-0.10428384 8.12919186 -0.21755666 12.5610835 0 18 C-0.33 17.34 -0.66 16.68 -1 16 C-1.66 16 -2.32 16 -3 16 C-3.37952295 9.80112515 -2.8352113 5.5522888 0 0 Z " fill="#0F0F0F" transform="translate(694,156)"/>
<path d="M0 0 C0.70189453 0.00451172 1.40378906 0.00902344 2.12695312 0.01367188 C3.85550538 0.02543073 5.58401365 0.04336546 7.3125 0.0625 C7.3125 1.0525 7.3125 2.0425 7.3125 3.0625 C-5.0377912 3.95837605 -17.30672367 4.17772956 -29.6875 4.0625 C-29.6875 3.7325 -29.6875 3.4025 -29.6875 3.0625 C-23.4175 3.0625 -17.1475 3.0625 -10.6875 3.0625 C-10.6875 2.4025 -10.6875 1.7425 -10.6875 1.0625 C-7.06882441 -0.1437252 -3.76243749 -0.04566918 0 0 Z " fill="#262626" transform="translate(792.6875,167.9375)"/>
<path d="M0 0 C1.49080078 0.02707031 1.49080078 0.02707031 3.01171875 0.0546875 C3.77097656 0.07789063 4.53023437 0.10109375 5.3125 0.125 C4.9825 0.785 4.6525 1.445 4.3125 2.125 C1.58984375 2.7578125 1.58984375 2.7578125 -1.75 3.25 C-2.85472656 3.41757813 -3.95945312 3.58515625 -5.09765625 3.7578125 C-6.37962891 3.93957031 -6.37962891 3.93957031 -7.6875 4.125 C-9.2787689 8.998261 -9.89942221 12.93290596 -9.6875 18.125 C-10.3475 18.125 -11.0075 18.125 -11.6875 18.125 C-12.25062292 6.21599299 -12.25062292 6.21599299 -8.6875 2.125 C-5.26655758 -0.15562828 -4.00562778 -0.09425007 0 0 Z " fill="#191919" transform="translate(703.6875,192.875)"/>
<path d="M0 0 C0.99 0 1.98 0 3 0 C3 2.64 3 5.28 3 8 C3.66 7.67 4.32 7.34 5 7 C5 5.02 5 3.04 5 1 C5.99 1 6.98 1 8 1 C8.1953125 7.0546875 8.1953125 7.0546875 8 9 C7.34 9.66 6.68 10.32 6 11 C3.06546739 10.63318342 2.13562754 10.13562754 0 8 C-0.26991906 5.31160615 -0.08737357 2.70858064 0 0 Z " fill="#040404" transform="translate(765,188)"/>
<path d="M0 0 C0.66 0.99 1.32 1.98 2 3 C1.57847656 3.83144531 1.15695312 4.66289062 0.72265625 5.51953125 C0.17480469 6.60621094 -0.37304688 7.69289063 -0.9375 8.8125 C-1.48277344 9.89144531 -2.02804687 10.97039062 -2.58984375 12.08203125 C-4.0585207 14.96211527 -4.0585207 14.96211527 -5 18 C-5.66 18 -6.32 18 -7 18 C-8 15 -8 15 -6.34765625 11.42578125 C-5.59612277 10.04907832 -4.8339433 8.67814591 -4.0625 7.3125 C-3.48338867 6.2596582 -3.48338867 6.2596582 -2.89257812 5.18554688 C-1.93738227 3.45204328 -0.96984614 1.72534991 0 0 Z " fill="#242424" transform="translate(708,249)"/>
<path d="M0 0 C0.66 0 1.32 0 2 0 C2.1953125 6.0546875 2.1953125 6.0546875 2 8 C1.34 8.66 0.68 9.32 0 10 C-3.53571429 9.46428571 -3.53571429 9.46428571 -5 8 C-5.04080783 6.00041636 -5.04254356 3.99954746 -5 2 C-4.34 2 -3.68 2 -3 2 C-2.67 2.99 -2.34 3.98 -2 5 C-1.34 5.33 -0.68 5.66 0 6 C0 4.02 0 2.04 0 0 Z " fill="#070707" transform="translate(756,199)"/>
<path d="M0 0 C0 0.66 0 1.32 0 2 C-0.66386719 2.24234375 -1.32773437 2.4846875 -2.01171875 2.734375 C-6.95731756 4.61153659 -11.07130813 6.33322093 -15 10 C-14.68988845 6.92472717 -14.53019713 5.44365669 -12.109375 3.41796875 C-11.33078125 3.01191406 -10.5521875 2.60585938 -9.75 2.1875 C-8.98171875 1.76855469 -8.2134375 1.34960938 -7.421875 0.91796875 C-4.77939171 -0.08361766 -2.80172996 -0.17386622 0 0 Z " fill="#181818" transform="translate(701,265)"/>
<path d="M0 0 C3.15353929 0.84094381 5.46501019 1.50067618 7.875 3.75 C9.31217164 6.62434327 9.21618085 8.82934761 9 12 C8.34 12 7.68 12 7 12 C6.814375 10.906875 6.62875 9.81375 6.4375 8.6875 C5.42483472 5.0509502 5.42483472 5.0509502 3.30859375 3.8671875 C1.16349857 2.94073788 1.16349857 2.94073788 -2 2 C-1.34 1.34 -0.68 0.68 0 0 Z " fill="#252525" transform="translate(702,157)"/>
<path d="M0 0 C0.96070434 2.88211302 1.10581883 4.69850044 1.0625 7.6875 C1.05347656 8.49574219 1.04445313 9.30398437 1.03515625 10.13671875 C1.02355469 10.75160156 1.01195312 11.36648437 1 12 C0.67 11.34 0.34 10.68 0 10 C-0.66 10 -1.32 10 -2 10 C-2 7.03 -2 4.06 -2 1 C-1.34 0.67 -0.68 0.34 0 0 Z " fill="#191919" transform="translate(693,162)"/>
<path d="M0 0 C1.32 0.33 2.64 0.66 4 1 C3.67 2.65 3.34 4.3 3 6 C2.34 6 1.68 6 1 6 C0.67 4.02 0.34 2.04 0 0 Z " fill="#D1D1D1" transform="translate(767,190)"/>
</svg>
