<?xml version="1.0" encoding="UTF-8"?>
<svg version="1.1" xmlns="http://www.w3.org/2000/svg" width="800" height="300">
<path d="M0 0 C264 0 528 0 800 0 C800 99 800 198 800 300 C536 300 272 300 0 300 C0 201 0 102 0 0 Z " fill="#FEFEFE" transform="translate(0,0)"/>
<path d="M0 0 C8.08108108 1.05405405 8.08108108 1.05405405 11.125 4.1875 C13 7 13 7 14 13 C26.375 12.505 26.375 12.505 39 12 C39.99 9.03 40.98 6.06 42 3 C42.66 2.01 43.32 1.02 44 0 C49.63895008 -1.02681944 55.36427899 -1.01351282 60.1875 2.3125 C63 5 63 5 64 8 C64.03954234 10.33299825 64.04401732 12.66708189 64 15 C64.5775 15.25136719 65.155 15.50273437 65.75 15.76171875 C72.02701807 19.21625821 76.07333474 25.109753 78.25 31.8125 C79.33908723 35.84545183 80.18399254 39.89609726 80.94921875 44 C81.11454102 44.8768042 81.27986328 45.7536084 81.45019531 46.65698242 C81.76691242 48.38290023 82.06548954 50.11228041 82.34277344 51.8449707 C82.7739101 54.2813773 83.32618048 56.61970861 84 59 C84.20125488 59.72880371 84.40250977 60.45760742 84.60986328 61.20849609 C86.29603026 65.13981605 88.38379841 66.69147554 92.19580078 68.60009766 C106.42828903 73.87737764 122.2183372 72.50743141 137.1461792 72.22674561 C142.87303064 72.12299654 148.60034559 72.06001206 154.32784081 72.00493813 C156.29573059 71.98128082 158.26340979 71.94175059 160.23103333 71.9016571 C168.36361194 71.79327008 176.00796379 72.51676717 184 74 C185.66262627 74.29580208 185.66262627 74.29580208 187.35884094 74.59757996 C189.90836228 75.05283516 192.45493219 75.52056839 195 76 C195 76.66 195 77.32 195 78 C197.31 78 199.62 78 202 78 C202.37125 76.824375 202.37125 76.824375 202.75 75.625 C204 73 204 73 205.8125 71.625 C208.5968215 70.82947957 210.24769279 71.15313624 213 72 C213.99 72.66 214.98 73.32 216 74 C216.24257107 77.2747094 216.30245982 80.03762784 215.3125 83.1875 C215.209375 83.785625 215.10625 84.38375 215 85 C215.474375 85.5775 215.94875 86.155 216.4375 86.75 C218.34272735 89.49352739 218.56667857 91.7096947 218.38671875 95.0234375 C218 97 218 97 216.3125 100.0625 C210.93496229 103.20785224 205.94966289 102.23096474 200 101 C189.48229342 97.48229342 189.48229342 97.48229342 187 95 C181.31570502 93.5081448 175.8647193 92.7450122 170 93 C171.03721436 101.15192874 171.03721436 101.15192874 175 108 C177.28346421 108.65302808 179.5627524 109.07394669 181.8984375 109.5 C184 110 184 110 186.125 111.5625 C187.52617767 115.46578064 186.9444268 119.01636517 186 123 C183.79452055 127.60273973 183.79452055 127.60273973 181 129 C178.87960174 129.17431846 176.75206692 129.26709071 174.625 129.3125 C172.91183594 129.36857422 172.91183594 129.36857422 171.1640625 129.42578125 C168 129 168 129 165.578125 127.24609375 C163.75551315 124.65202986 163.69458764 123.81806761 164.125 120.75 C164.37797139 115.78033629 162.66421927 113.56152211 159.53515625 109.85546875 C157.16653937 106.99263665 155 103.7920499 155 100 C154.35933594 100.20496094 153.71867188 100.40992188 153.05859375 100.62109375 C149.09854117 101.85455275 145.37187136 102.95041715 141.25 103.5 C137.67487086 104.05001987 135.19937106 105.3647659 132 107 C130.68 107 129.36 107 128 107 C127.6596875 108.0828125 127.6596875 108.0828125 127.3125 109.1875 C125.66099387 112.7264417 124.11841749 114.62729104 121 117 C117.98395537 117.69554906 116.18311337 117.45473048 113 117 C109.21269327 114.40868487 107.91988299 111.43216352 107 107 C107.12328767 98.87671233 107.12328767 98.87671233 110 96 C114.13997567 95.8028583 117.07703567 95.69234522 121 97 C126.79998915 97.43773503 128.44277013 96.77861493 134 94 C105.785 94.495 105.785 94.495 77 95 C77 97.64 77 100.28 77 103 C76 106.5 76 106.5 75 109 C74.34 109 73.68 109 73 109 C72.505 110.485 72.505 110.485 72 112 C68.89043581 114.56081757 67.38616355 115.01309029 63.3125 114.875 C60 114 60 114 58 111 C57.61500109 109.34450469 57.27206865 107.6777567 57 106 C54.1685963 105.18022393 51.33517098 104.36905726 48.5 103.5625 C47.70851563 103.33240234 46.91703125 103.10230469 46.1015625 102.86523438 C41.0598354 101.43950007 36.21491823 100.52029574 31 100 C32.42673359 102.88634122 33.90494836 105.54445319 36 108 C39.55652459 108.90137027 39.55652459 108.90137027 43 109 C44.875 110.0625 44.875 110.0625 46 112 C47.73178156 118.60241719 47.73178156 118.60241719 46.046875 121.8203125 C43.89451172 124.50428358 42.27955927 125.90681358 39 127 C32.49152453 127.50065196 28.6982657 125.84913285 23 123 C21.8422494 119.52674819 21.93133348 116.63932552 22 113 C22.66 113 23.32 113 24 113 C23.39671875 112.14277344 22.7934375 111.28554688 22.171875 110.40234375 C21.36403447 109.24777968 20.5567801 108.09280533 19.75 106.9375 C19.33395508 106.34348389 18.91791016 105.74946777 18.48925781 105.13745117 C16.3839547 102.10350865 14.43241599 99.10723132 12.75 95.8125 C10.64926259 92.43631488 9.73782641 92.13406162 6 91 C4.12852762 90.78290116 2.25588878 90.56948817 0.37792969 90.41845703 C-9.79544399 89.58871379 -16.89046453 86.5643032 -24 79 C-31.9392365 67.24992998 -32.54691748 53.01762423 -30.43359375 39.33203125 C-28.52881933 31.30405529 -25.95890101 26.14113719 -19.19140625 21.29296875 C-14.66346714 18.62140396 -10.24626376 18 -5 18 C-5.268125 17.05125 -5.53625 16.1025 -5.8125 15.125 C-6.63552328 9.76986185 -3.67819186 5.45228073 -1 1 C-0.67 0.67 -0.34 0.34 0 0 Z " fill="#FCFCFC" transform="translate(40,155)"/>
<path d="M0 0 C2.6875 -0.3125 2.6875 -0.3125 6 0 C6.65484375 0.82371094 7.3096875 1.64742187 7.984375 2.49609375 C12.5652212 6.2996202 16.79729447 5.57827168 22.5625 5.375 C23.56474609 5.36082031 24.56699219 5.34664062 25.59960938 5.33203125 C30.47519469 5.2414631 35.34076995 5.04623593 40.20825195 4.75537109 C54.45235002 3.91878154 68.67682983 3.84573931 82.94213867 3.86962891 C85.67653585 3.87416195 88.4108666 3.87421517 91.14526367 3.86962891 C100.43094505 3.85414611 109.7147567 3.89399703 119 4 C120.89718781 4.01987976 120.89718781 4.01987976 122.83270264 4.04016113 C126.4714204 4.08922994 130.10817747 4.16795371 133.74609375 4.2578125 C135.34216209 4.27822098 135.34216209 4.27822098 136.97047424 4.29904175 C147.76141846 4.63593906 157.23194941 7.126133 165.1015625 14.796875 C168.08119031 18.25471468 170.07594107 21.88307979 172 26 C172.5878125 27.06347656 172.5878125 27.06347656 173.1875 28.1484375 C176.97476175 35.43365628 176.77162077 42.60176161 175.375 50.5625 C169.6875 64.78125 169.6875 64.78125 163.4375 67.625 C157.70072769 69.69064707 152.18507829 70.14951793 146.12109375 70.1328125 C145.35992249 70.13413177 144.59875122 70.13545105 143.81451416 70.1368103 C141.35546728 70.1387179 138.89653518 70.13241583 136.4375 70.125 C135.60618561 70.12411377 134.77487122 70.12322754 133.91836548 70.12231445 C121.58858811 70.10680173 109.30284848 69.87542505 97 69 C97 68.34 97 67.68 97 67 C96.29617188 67.16242188 95.59234375 67.32484375 94.8671875 67.4921875 C87.40965184 68.81300444 79.59253259 68.08414043 72.08203125 67.5078125 C66.67319889 67.13155169 61.29977248 66.9117425 55.87890625 66.859375 C21.79509958 66.48121764 21.79509958 66.48121764 10.8125 58.25 C9.32421875 56.69140625 9.32421875 56.69140625 8 55 C7.51144531 54.41089844 7.02289063 53.82179688 6.51953125 53.21484375 C2.55488966 47.4511211 2.40935902 41.64162749 2.45166016 34.85229492 C2.47029608 32.43228376 2.47029608 32.43228376 2 29 C0.13377036 27.1371129 0.13377036 27.1371129 -2 26 C-3.20745835 22.37762495 -3.22246029 19.0229405 -3.25 15.25 C-3.270625 14.5590625 -3.29125 13.868125 -3.3125 13.15625 C-3.35088173 8.05147958 -2.27330153 4.57053254 0 0 Z " fill="#656565" transform="translate(428,216)"/>
<path d="M0 0 C8.08108108 1.05405405 8.08108108 1.05405405 11.125 4.1875 C13 7 13 7 14 13 C26.375 12.505 26.375 12.505 39 12 C39.99 9.03 40.98 6.06 42 3 C42.66 2.01 43.32 1.02 44 0 C49.63895008 -1.02681944 55.36427899 -1.01351282 60.1875 2.3125 C63 5 63 5 64 8 C64.03954234 10.33299825 64.04401732 12.66708189 64 15 C64.5775 15.25136719 65.155 15.50273437 65.75 15.76171875 C72.02701807 19.21625821 76.07333474 25.109753 78.25 31.8125 C79.33908723 35.84545183 80.18399254 39.89609726 80.94921875 44 C81.11454102 44.8768042 81.27986328 45.7536084 81.45019531 46.65698242 C81.76691242 48.38290023 82.06548954 50.11228041 82.34277344 51.8449707 C82.7739101 54.2813773 83.32618048 56.61970861 84 59 C84.20125488 59.72880371 84.40250977 60.45760742 84.60986328 61.20849609 C86.29603026 65.13981605 88.38379841 66.69147554 92.19580078 68.60009766 C106.42828903 73.87737764 122.2183372 72.50743141 137.1461792 72.22674561 C142.87303064 72.12299654 148.60034559 72.06001206 154.32784081 72.00493813 C156.29573059 71.98128082 158.26340979 71.94175059 160.23103333 71.9016571 C168.36361194 71.79327008 176.00796379 72.51676717 184 74 C185.66262627 74.29580208 185.66262627 74.29580208 187.35884094 74.59757996 C189.90836228 75.05283516 192.45493219 75.52056839 195 76 C195 76.66 195 77.32 195 78 C197.31 78 199.62 78 202 78 C202.37125 76.824375 202.37125 76.824375 202.75 75.625 C204 73 204 73 205.8125 71.625 C208.5968215 70.82947957 210.24769279 71.15313624 213 72 C213.99 72.66 214.98 73.32 216 74 C216.24257107 77.2747094 216.30245982 80.03762784 215.3125 83.1875 C215.209375 83.785625 215.10625 84.38375 215 85 C215.474375 85.5775 215.94875 86.155 216.4375 86.75 C218.34272735 89.49352739 218.56667857 91.7096947 218.38671875 95.0234375 C218 97 218 97 216.3125 100.0625 C210.93496229 103.20785224 205.94966289 102.23096474 200 101 C189.48229342 97.48229342 189.48229342 97.48229342 187 95 C181.31570502 93.5081448 175.8647193 92.7450122 170 93 C171.03721436 101.15192874 171.03721436 101.15192874 175 108 C177.28346421 108.65302808 179.5627524 109.07394669 181.8984375 109.5 C184 110 184 110 186.125 111.5625 C187.52617767 115.46578064 186.9444268 119.01636517 186 123 C183.79452055 127.60273973 183.79452055 127.60273973 181 129 C178.87960174 129.17431846 176.75206692 129.26709071 174.625 129.3125 C172.91183594 129.36857422 172.91183594 129.36857422 171.1640625 129.42578125 C168 129 168 129 165.578125 127.24609375 C163.75551315 124.65202986 163.69458764 123.81806761 164.125 120.75 C164.37797139 115.78033629 162.66421927 113.56152211 159.53515625 109.85546875 C157.16653937 106.99263665 155 103.7920499 155 100 C154.35933594 100.20496094 153.71867188 100.40992188 153.05859375 100.62109375 C149.09854117 101.85455275 145.37187136 102.95041715 141.25 103.5 C137.67487086 104.05001987 135.19937106 105.3647659 132 107 C130.68 107 129.36 107 128 107 C127.6596875 108.0828125 127.6596875 108.0828125 127.3125 109.1875 C125.66099387 112.7264417 124.11841749 114.62729104 121 117 C117.98395537 117.69554906 116.18311337 117.45473048 113 117 C109.21269327 114.40868487 107.91988299 111.43216352 107 107 C107.12328767 98.87671233 107.12328767 98.87671233 110 96 C114.13997567 95.8028583 117.07703567 95.69234522 121 97 C126.79998915 97.43773503 128.44277013 96.77861493 134 94 C105.785 94.495 105.785 94.495 77 95 C77 97.64 77 100.28 77 103 C76 106.5 76 106.5 75 109 C74.34 109 73.68 109 73 109 C72.505 110.485 72.505 110.485 72 112 C68.89043581 114.56081757 67.38616355 115.01309029 63.3125 114.875 C60 114 60 114 58 111 C57.61500109 109.34450469 57.27206865 107.6777567 57 106 C54.1685963 105.18022393 51.33517098 104.36905726 48.5 103.5625 C47.70851563 103.33240234 46.91703125 103.10230469 46.1015625 102.86523438 C41.0598354 101.43950007 36.21491823 100.52029574 31 100 C32.42673359 102.88634122 33.90494836 105.54445319 36 108 C39.55652459 108.90137027 39.55652459 108.90137027 43 109 C44.875 110.0625 44.875 110.0625 46 112 C47.73178156 118.60241719 47.73178156 118.60241719 46.046875 121.8203125 C43.89451172 124.50428358 42.27955927 125.90681358 39 127 C32.49152453 127.50065196 28.6982657 125.84913285 23 123 C21.8422494 119.52674819 21.93133348 116.63932552 22 113 C22.66 113 23.32 113 24 113 C23.39671875 112.14277344 22.7934375 111.28554688 22.171875 110.40234375 C21.36403447 109.24777968 20.5567801 108.09280533 19.75 106.9375 C19.33395508 106.34348389 18.91791016 105.74946777 18.48925781 105.13745117 C16.3839547 102.10350865 14.43241599 99.10723132 12.75 95.8125 C10.64926259 92.43631488 9.73782641 92.13406162 6 91 C4.12852762 90.78290116 2.25588878 90.56948817 0.37792969 90.41845703 C-9.79544399 89.58871379 -16.89046453 86.5643032 -24 79 C-31.9392365 67.24992998 -32.54691748 53.01762423 -30.43359375 39.33203125 C-28.52881933 31.30405529 -25.95890101 26.14113719 -19.19140625 21.29296875 C-14.66346714 18.62140396 -10.24626376 18 -5 18 C-5.268125 17.05125 -5.53625 16.1025 -5.8125 15.125 C-6.63552328 9.76986185 -3.67819186 5.45228073 -1 1 C-0.67 0.67 -0.34 0.34 0 0 Z M1 3 C-2.05498079 8.78217394 -3.64451156 12.5589964 -2 19 C-3.299375 19.226875 -4.59875 19.45375 -5.9375 19.6875 C-12.60147914 21.18820711 -17.83879187 24.02672302 -22.875 28.625 C-29.36004302 38.92477421 -29.46084615 52.41488239 -27.4609375 64.16796875 C-25.0902175 72.77811116 -20.19194174 78.82546997 -13 84 C-4.52349143 88.44007592 4.66762489 88.13791687 14 88 C13.93296875 88.71027344 13.8659375 89.42054688 13.796875 90.15234375 C14.05350345 93.75007717 15.26811481 95.5688541 17.25 98.5625 C17.85328125 99.49191406 18.4565625 100.42132813 19.078125 101.37890625 C20.88712882 103.8460639 22.83642905 105.84995137 25 108 C26.06011943 109.96879323 27.07470849 111.96435867 28 114 C27.01 114.33 26.02 114.66 25 115 C25 116.65 25 118.3 25 120 C29.90360711 123.35696669 29.90360711 123.35696669 35.6875 123.875 C39.60036106 122.94685815 39.60036106 122.94685815 43 121 C43.99764302 118.29211182 44.11190099 116.5754908 43.5625 113.75 C42.7890625 112.88375 42.7890625 112.88375 42 112 C40.80375 112.020625 39.6075 112.04125 38.375 112.0625 C36.23828125 111.93359375 36.23828125 111.93359375 34 111 C30.1656695 106.20213722 26.94760792 100.84282375 25 95 C25.886875 95.45375 26.77375 95.9075 27.6875 96.375 C32.23766563 98.35292914 36.92533779 98.85613502 41.81640625 99.47265625 C45 100 45 100 48.03515625 101.01953125 C51.05844637 102.01932812 53.70742159 102.39322597 56.875 102.625 C57.84179688 102.69976562 58.80859375 102.77453125 59.8046875 102.8515625 C60.89136719 102.92503906 60.89136719 102.92503906 62 103 C61.67 103.66 61.34 104.32 61 105 C60.960008 106.99960012 60.95653201 109.00047242 61 111 C63.74961511 111.94607807 63.74961511 111.94607807 67 112 C71.33506056 108.55165637 73.69113162 105.47094703 74.375 100 C73.91351426 96.30811405 72.86604482 95.27597677 70 93 C67.29120665 91.64560332 64.99066732 91.93498549 62 92 C61.67 92.66 61.34 93.32 61 94 C53.78528371 94.35482211 47.87581298 93.1591338 41 91 C41 90.34 41 89.68 41 89 C41.6290625 89.2165625 42.258125 89.433125 42.90625 89.65625 C48.51445928 91.48060724 53.10968596 92.32723967 59 92 C59 91.34 59 90.68 59 90 C60.43739513 89.97287934 61.87493863 89.95354933 63.3125 89.9375 C64.51326172 89.92009766 64.51326172 89.92009766 65.73828125 89.90234375 C68 90 68 90 71 91 C73.75370229 91.09133385 76.48158822 91.12600326 79.23510742 91.11352539 C80.07435257 91.11367142 80.91359772 91.11381744 81.77827454 91.1139679 C84.55403217 91.11327087 87.32972282 91.10548829 90.10546875 91.09765625 C92.02932193 91.09579132 93.95317559 91.09436777 95.87702942 91.09336853 C100.94214182 91.08954924 106.00722558 91.07972394 111.07232666 91.06866455 C116.24027112 91.05843781 121.40822021 91.0538682 126.57617188 91.04882812 C136.71746051 91.03810117 146.85872787 91.02103177 157 91 C157 91.66 157 92.32 157 93 C156.20335937 92.97679687 155.40671875 92.95359375 154.5859375 92.9296875 C146.59230963 92.76122919 146.59230963 92.76122919 139 95 C138.26910156 95.31453125 137.53820312 95.6290625 136.78515625 95.953125 C133.7758421 97.26025011 130.79518524 98.58179146 127.890625 100.109375 C125.44720612 101.26040703 123.669058 101.28095347 121 101 C120.34 100.34 119.68 99.68 119 99 C116.31160615 98.73008094 113.70858064 98.91262643 111 99 C109.67036453 104.92292164 110.28843945 107.78546048 113 113 C114.09923541 114.30746709 114.09923541 114.30746709 116.8125 114.3125 C120.0436513 114.26810313 120.0436513 114.26810313 122.3125 112.3125 C124.15705705 109.78477367 124.4907044 108.04064599 125 105 C125.64066406 104.89042969 126.28132812 104.78085937 126.94140625 104.66796875 C132.36847084 103.67314171 136.9199644 102.18967052 142 100 C145.97643597 98.89682735 149.98002849 97.93073232 154 97 C154 96.34 154 95.68 154 95 C154.99 95 155.98 95 157 95 C156.93296875 95.69996094 156.8659375 96.39992188 156.796875 97.12109375 C157.05704013 100.80843408 158.35067306 102.90626553 160.25 106.0625 C160.85328125 107.08472656 161.4565625 108.10695313 162.078125 109.16015625 C163.87162708 112.036317 163.87162708 112.036317 166.2578125 114.11328125 C168 116 168 116 168.1015625 118.0703125 C167.94429687 118.74835938 167.78703125 119.42640625 167.625 120.125 C167.41875 121.40375 167.2125 122.6825 167 124 C168.8628949 126.30060534 168.8628949 126.30060534 171.8203125 126.1953125 C172.91085938 126.17210937 174.00140625 126.14890625 175.125 126.125 C176.22070312 126.10695313 177.31640625 126.08890625 178.4453125 126.0703125 C179.28835937 126.04710937 180.13140625 126.02390625 181 126 C183.91360308 121.22169095 184.19876651 118.44893869 183 113 C182.40832031 112.92523438 181.81664062 112.85046875 181.20703125 112.7734375 C176.37526349 111.96945657 172.95940864 111.12950784 169.9296875 106.9296875 C168.11619103 103.16553936 167.54450423 99.112226 167 95 C166.34 95 165.68 95 165 95 C165.33 93.68 165.66 92.36 166 91 C177.77892688 90.42697112 188.09706347 92.67642172 199 97 C203.81372872 98.60457624 207.91151675 99.49887091 213 99 C215.30019361 95.54970958 215.43132515 94.05445642 215 90 C212.32357511 87.81509993 212.32357511 87.81509993 210 88 C210.54723683 84.62537285 211.0549 82.91765 213 80 C212.68493373 76.85778033 212.68493373 76.85778033 212 74 C209.63460948 74.12056596 209.63460948 74.12056596 207 75 C206.071875 76.2684375 206.071875 76.2684375 205.125 77.5625 C203 80 203 80 199.75 80.5 C196.223948 80.02985973 193.5147371 79.25696252 190.28515625 77.8515625 C183.74922954 75.41595221 177.87563353 74.7223874 170.97265625 74.83984375 C170.11841568 74.84558914 169.26417511 74.85133453 168.38404846 74.85725403 C166.55663866 74.86990764 164.72925362 74.88671436 162.9019165 74.90734863 C158.07925474 74.9585598 153.2564854 74.96774676 148.43359375 74.98046875 C146.98134399 74.98513657 146.98134399 74.98513657 145.49975586 74.98989868 C137.22882485 75.01172562 128.96138729 74.98166478 120.69235229 74.79348755 C118.69365366 74.75144416 116.69457656 74.72877074 114.69555664 74.70678711 C107.24327157 74.51158841 100.86875782 73.39381512 93.81787109 70.94628906 C91.06041504 69.92016488 91.06041504 69.92016488 88.29711914 69.64331055 C86 69 86 69 84.50805664 67.13891602 C81.36915359 60.51835992 79.69747004 54.13797858 78.4375 46.9375 C76.78010642 37.63149861 74.95707381 28.74769407 68.5625 21.4375 C67.72912109 20.44556641 67.72912109 20.44556641 66.87890625 19.43359375 C64.46810186 17.59416503 62.9597696 17.72077645 60 18 C60.17789063 16.98679688 60.17789063 16.98679688 60.359375 15.953125 C61.36349341 10.37748023 61.36349341 10.37748023 59.1875 5.4375 C55.77973147 3.19810925 53.93561663 2.88544081 49.875 2.9375 C48.26625 2.958125 46.6575 2.97875 45 3 C43.68 6.96 42.36 10.92 41 15 C31.43 15 21.86 15 12 15 C11.01 12.36 10.02 9.72 9 7 C7.22845348 4.47409152 7.22845348 4.47409152 5 3 C3.68 3 2.36 3 1 3 Z " fill="#1A1A1A" transform="translate(40,155)"/>
<path d="M0 0 C2.6875 -0.3125 2.6875 -0.3125 6 0 C6.65484375 0.82371094 7.3096875 1.64742187 7.984375 2.49609375 C12.5652212 6.2996202 16.79729447 5.57827168 22.5625 5.375 C23.56474609 5.36082031 24.56699219 5.34664062 25.59960938 5.33203125 C30.47519469 5.2414631 35.34076995 5.04623593 40.20825195 4.75537109 C54.45235002 3.91878154 68.67682983 3.84573931 82.94213867 3.86962891 C85.67653585 3.87416195 88.4108666 3.87421517 91.14526367 3.86962891 C100.43094505 3.85414611 109.7147567 3.89399703 119 4 C120.89718781 4.01987976 120.89718781 4.01987976 122.83270264 4.04016113 C126.4714204 4.08922994 130.10817747 4.16795371 133.74609375 4.2578125 C135.34216209 4.27822098 135.34216209 4.27822098 136.97047424 4.29904175 C147.76141846 4.63593906 157.23194941 7.126133 165.1015625 14.796875 C168.08119031 18.25471468 170.07594107 21.88307979 172 26 C172.5878125 27.06347656 172.5878125 27.06347656 173.1875 28.1484375 C176.97476175 35.43365628 176.77162077 42.60176161 175.375 50.5625 C169.6875 64.78125 169.6875 64.78125 163.4375 67.625 C157.70072769 69.69064707 152.18507829 70.14951793 146.12109375 70.1328125 C145.35992249 70.13413177 144.59875122 70.13545105 143.81451416 70.1368103 C141.35546728 70.1387179 138.89653518 70.13241583 136.4375 70.125 C135.60618561 70.12411377 134.77487122 70.12322754 133.91836548 70.12231445 C121.58858811 70.10680173 109.30284848 69.87542505 97 69 C97 68.34 97 67.68 97 67 C96.29617188 67.16242188 95.59234375 67.32484375 94.8671875 67.4921875 C87.40965184 68.81300444 79.59253259 68.08414043 72.08203125 67.5078125 C66.67319889 67.13155169 61.29977248 66.9117425 55.87890625 66.859375 C21.79509958 66.48121764 21.79509958 66.48121764 10.8125 58.25 C9.32421875 56.69140625 9.32421875 56.69140625 8 55 C7.51144531 54.41089844 7.02289063 53.82179688 6.51953125 53.21484375 C2.55488966 47.4511211 2.40935902 41.64162749 2.45166016 34.85229492 C2.47029608 32.43228376 2.47029608 32.43228376 2 29 C0.13377036 27.1371129 0.13377036 27.1371129 -2 26 C-3.20745835 22.37762495 -3.22246029 19.0229405 -3.25 15.25 C-3.270625 14.5590625 -3.29125 13.868125 -3.3125 13.15625 C-3.35088173 8.05147958 -2.27330153 4.57053254 0 0 Z M3 3 C-0.71059486 9.13054803 -1.71075839 15.44620807 -0.3125 22.4375 C0.78058442 25.09159104 0.78058442 25.09159104 3 26.3125 C6.24734023 29.05244332 6.35310018 32.93985245 7 37 C9.64573501 34.77122275 9.64573501 34.77122275 12 32 C11.95502158 29.72476911 11.95502158 29.72476911 11 28 C12.32 27.34 13.64 26.68 15 26 C14.67 24.35 14.34 22.7 14 21 C14.99 21.99 15.98 22.98 17 24 C15.39680795 28.66383143 13.08350522 33.14135949 10 37 C9.30648438 37.30550781 8.61296875 37.61101562 7.8984375 37.92578125 C5.77741393 38.86585583 5.77741393 38.86585583 5.07421875 41.29296875 C4.97884902 44.77145414 5.96425246 46.39079722 7.8125 49.3125 C8.35519531 50.19550781 8.89789063 51.07851563 9.45703125 51.98828125 C9.96621094 52.65214844 10.47539062 53.31601562 11 54 C11.66 54 12.32 54 13 54 C13.33 54.99 13.66 55.98 14 57 C16.36401089 58.26080581 18.47896761 59.14504119 21 60 C21.81339844 60.28230469 22.62679688 60.56460938 23.46484375 60.85546875 C33.75725957 63.93020167 46.48210319 64.63478627 57 62 C57.53394179 60.5882217 58.05165104 59.17029756 58.5625 57.75 C58.85253906 56.96109375 59.14257812 56.1721875 59.44140625 55.359375 C60.0610168 52.74227867 59.94248701 51.4926979 59 49 C58.34 48.01 57.68 47.02 57 46 C57.53625 45.443125 58.0725 44.88625 58.625 44.3125 C59.07875 43.549375 59.5325 42.78625 60 42 C59.26145768 39.36186139 59.26145768 39.36186139 58 37 C58 36.34 58 35.68 58 35 C58.99 35.33 59.98 35.66 61 36 C61.94002987 40.38680608 61.74651537 43.61422219 61 48 C61.185625 48.804375 61.37125 49.60875 61.5625 50.4375 C62.16494838 53.96612624 61.00559799 56.60610677 60 60 C60.33 60.99 60.66 61.98 61 63 C62.06927734 63.09087891 62.06927734 63.09087891 63.16015625 63.18359375 C71.41188054 63.9054808 71.41188054 63.9054808 75.5 64.5625 C82.43977973 65.42997247 89.12334905 65.23427068 96 64 C96.66 64.33 97.32 64.66 98 65 C100.56845219 65.03037021 103.120762 64.93311185 105.6875 64.83984375 C108 65 108 65 110 67 C112.52377655 67.27808217 112.52377655 67.27808217 115.4453125 67.1953125 C116.52167969 67.18886719 117.59804688 67.18242187 118.70703125 67.17578125 C119.83496094 67.15902344 120.96289062 67.14226562 122.125 67.125 C123.26066406 67.11597656 124.39632812 67.10695313 125.56640625 67.09765625 C128.37781299 67.07403098 131.18880298 67.04109013 134 67 C134 66.34 134 65.68 134 65 C134.99 64.67 135.98 64.34 137 64 C138.56028793 61.15102982 139.46843274 58.20059445 140 55 C139.01919106 52.38017854 139.01919106 52.38017854 137 51 C136.34 51 135.68 51 135 51 C135.66 50.236875 136.32 49.47375 137 48.6875 C139.29850538 46.15722061 139.29850538 46.15722061 139 43 C137.56249809 41.31201173 137.56249809 41.31201173 136 40 C137.32 40.33 138.64 40.66 140 41 C140.90594807 43.61718331 140.98235878 45.10143704 140.5 47.875 C139.82038781 50.94518924 139.82038781 50.94518924 140.5625 53.75 C141.18730226 58.39138818 140.07980006 62.48447249 139 67 C149.65771916 67.35857747 158.40464935 67.06190317 166.59375 59.53515625 C171.66979043 54.24761413 174.03554301 48.43102855 173.9765625 41.078125 C172.70835554 30.19972752 166.40917284 21.74595342 159 14 C158.01 13.67 157.02 13.34 156 13 C154.39819908 16.38766195 154.39819908 16.38766195 154.125 20.0625 C154.8950733 22.17907441 154.8950733 22.17907441 157.0625 23.5625 C160.20275922 27.5131487 159.47149501 32.13046134 159 37 C158.67 37.66 158.34 38.32 158 39 C157.01 39.33 156.02 39.66 155 40 C155.165 38.9275 155.33 37.855 155.5 36.75 C156.3352003 30.76189263 156.3352003 30.76189263 155 25 C152.50965614 23.70339566 152.50965614 23.70339566 150 23 C150.99 19.7 151.98 16.4 153 13 C146.68439027 7.21069108 141.08633074 7.22890562 132.75 7.1875 C130.97496094 7.14979492 130.97496094 7.14979492 129.1640625 7.11132812 C125.10889692 7.03050193 121.05589005 7 117 7 C116.97111854 10.31248187 116.95324201 13.62493167 116.9375 16.9375 C116.92493164 18.35579102 116.92493164 18.35579102 116.91210938 19.80273438 C116.90727539 21.15141602 116.90727539 21.15141602 116.90234375 22.52734375 C116.89448853 23.77632446 116.89448853 23.77632446 116.88647461 25.05053711 C116.78356708 27.00516798 116.78356708 27.00516798 118 28 C118.26293056 32.03160191 118.29404844 33.55892734 116 37 C113.875 37.6875 113.875 37.6875 112 38 C113.75 34.125 113.75 34.125 116 33 C115.89171875 31.86111328 115.89171875 31.86111328 115.78125 30.69921875 C115.6884375 29.70535156 115.595625 28.71148437 115.5 27.6875 C115.4071875 26.70136719 115.314375 25.71523437 115.21875 24.69921875 C115 22 115 22 115 19 C114.34 19 113.68 19 113 19 C113.556875 17.63875 113.556875 17.63875 114.125 16.25 C115.25131743 13.16467339 115.25131743 13.16467339 114.375 10.75 C112.21694327 8.00338235 109.96584178 7.12449559 106.52636719 6.68115234 C105.62563477 6.64973145 104.72490234 6.61831055 103.796875 6.5859375 C102.8171875 6.54726562 101.8375 6.50859375 100.828125 6.46875 C99.30445313 6.42234375 99.30445313 6.42234375 97.75 6.375 C96.203125 6.31699219 96.203125 6.31699219 94.625 6.2578125 C92.0835106 6.16368326 89.54202567 6.07805021 87 6 C87.495 6.99 87.495 6.99 88 8 C88.66 8 89.32 8 90 8 C90.67228569 12.48190462 91.12701027 15.63283522 90 20 C90.29235267 22.33882138 90.62599214 24.67284 91 27 C91 28.32 91 29.64 91 31 C90.01 30.01 90.01 30.01 89 29 C89.2784375 27.824375 89.2784375 27.824375 89.5625 26.625 C90.29178752 23.94859806 90.29178752 23.94859806 88.6875 21.6875 C88.130625 21.130625 87.57375 20.57375 87 20 C86.34 20 85.68 20 85 20 C85.680625 19.443125 86.36125 18.88625 87.0625 18.3125 C89.25510881 16.18317288 89.25510881 16.18317288 89.0625 13.5 C87.56544541 9.97751862 86.33969805 8.96356171 83 7 C79.03453696 6.4431461 75.1217931 6.53050618 71.125 6.625 C70.0119751 6.63789063 68.8989502 6.65078125 67.75219727 6.6640625 C59.38070792 6.81952868 51.23850267 7.4996548 43 9 C43.04253906 10.093125 43.08507812 11.18625 43.12890625 12.3125 C43 16 43 16 40.9375 19 C38.43457181 22.87550172 39.20915027 24.57124149 40 29 C39.125 32.1875 39.125 32.1875 38 35 C37.65023242 36.32911682 37.30903983 37.66082739 37 39 C35.79371992 36.66785852 34.8345262 34.50357861 34 32 C34.639375 31.7525 35.27875 31.505 35.9375 31.25 C38.12493715 30.18550582 38.12493715 30.18550582 38.875 28.125 C39.02904228 25.50628117 38.24534014 24.27091436 37 22 C37 21.01 37 20.02 37 19 C39 17.3125 39 17.3125 41 16 C40.81171228 13.55519921 40.81171228 13.55519921 40 11 C36.96969085 8.99095526 34.40823739 8.73084337 30.82421875 8.65625 C29.83099609 8.62660156 28.83777344 8.59695312 27.81445312 8.56640625 C26.26661133 8.53353516 26.26661133 8.53353516 24.6875 8.5 C8.56797015 8.15378142 8.56797015 8.15378142 4.0625 4.375 C3.711875 3.92125 3.36125 3.4675 3 3 Z " fill="#111111" transform="translate(428,216)"/>
<path d="M0 0 C2.70014863 2.30177356 3.45014849 3.90420908 3.9921875 7.38671875 C4.14042969 8.24330078 4.28867188 9.09988281 4.44140625 9.98242188 C4.72722177 11.76555023 5.00857857 13.54939982 5.28515625 15.33398438 C6.75447495 24.1369398 6.75447495 24.1369398 12 31 C26.6977925 38.3483348 44.1693525 36.5271553 60.1461792 36.22674561 C65.87303064 36.12299654 71.60034559 36.06001206 77.32784081 36.00493813 C79.29573059 35.98128082 81.26340979 35.94175059 83.23103333 35.9016571 C91.36361194 35.79327008 99.00796379 36.51676717 107 38 C108.66262627 38.29580208 108.66262627 38.29580208 110.35884094 38.59757996 C112.90836228 39.05283516 115.45493219 39.52056839 118 40 C118 40.66 118 41.32 118 42 C120.31 42 122.62 42 125 42 C125.2475 41.21625 125.495 40.4325 125.75 39.625 C127 37 127 37 128.8125 35.625 C131.5968215 34.82947957 133.24769279 35.15313624 136 36 C136.99 36.66 137.98 37.32 139 38 C139.24257107 41.2747094 139.30245982 44.03762784 138.3125 47.1875 C138.1578125 48.0846875 138.1578125 48.0846875 138 49 C138.474375 49.5775 138.94875 50.155 139.4375 50.75 C141.34272735 53.49352739 141.56667857 55.7096947 141.38671875 59.0234375 C141 61 141 61 139.3125 64.0625 C133.93496229 67.20785224 128.94966289 66.23096474 123 65 C112.48229342 61.48229342 112.48229342 61.48229342 110 59 C104.31570502 57.5081448 98.8647193 56.7450122 93 57 C94.03721436 65.15192874 94.03721436 65.15192874 98 72 C100.28346421 72.65302808 102.5627524 73.07394669 104.8984375 73.5 C107 74 107 74 109.125 75.5625 C110.52617767 79.46578064 109.9444268 83.01636517 109 87 C106.79452055 91.60273973 106.79452055 91.60273973 104 93 C101.87960174 93.17431846 99.75206692 93.26709071 97.625 93.3125 C95.91183594 93.36857422 95.91183594 93.36857422 94.1640625 93.42578125 C91 93 91 93 88.578125 91.24609375 C86.75551315 88.65202986 86.69458764 87.81806761 87.125 84.75 C87.37797139 79.78033629 85.66421927 77.56152211 82.53515625 73.85546875 C80.16653937 70.99263665 78 67.7920499 78 64 C77.35933594 64.20496094 76.71867187 64.40992188 76.05859375 64.62109375 C72.09854117 65.85455275 68.37187136 66.95041715 64.25 67.5 C60.67487086 68.05001987 58.19937106 69.3647659 55 71 C53.68 71 52.36 71 51 71 C50.6596875 72.0828125 50.6596875 72.0828125 50.3125 73.1875 C48.66099387 76.7264417 47.11841749 78.62729104 44 81 C40.98395537 81.69554906 39.18311337 81.45473048 36 81 C32.21269327 78.40868487 30.91988299 75.43216352 30 71 C30.12328767 62.87671233 30.12328767 62.87671233 33 60 C37.13997567 59.8028583 40.07703567 59.69234522 44 61 C50.28039415 61.62803941 54.53365013 59.77655866 60 57 C57.69 56.67 55.38 56.34 53 56 C53.495 55.01 53.495 55.01 54 54 C57.95831809 53.97107143 61.91660917 53.95322573 65.875 53.9375 C67.56689453 53.92493164 67.56689453 53.92493164 69.29296875 53.91210938 C70.36933594 53.90888672 71.44570312 53.90566406 72.5546875 53.90234375 C73.54968262 53.89710693 74.54467773 53.89187012 75.56982422 53.88647461 C78 54 78 54 80 55 C80 55.66 80 56.32 80 57 C78.93523437 57.06316406 77.87046875 57.12632812 76.7734375 57.19140625 C67.26723215 57.93332177 60.21702486 59.74130073 51.953125 64.5390625 C48.9308677 66.03420037 47.30970274 66.49761265 44 66 C43.01 65.01 43.01 65.01 42 64 C39.34462628 63.43479997 36.70855287 63.26211802 34 63 C33.65384002 68.65394631 34.56574762 72.03006806 37 77 C41.07922002 77.36223443 41.07922002 77.36223443 44.75 75.875 C46.40483154 73.39275268 47.17581408 70.85295126 48 68 C48.96099609 67.83564453 48.96099609 67.83564453 49.94140625 67.66796875 C54.00030159 66.92393875 57.5868191 66.18363596 61.375 64.5 C66.43970882 62.40425842 71.59412154 61.75451506 77 61 C77 60.34 77 59.68 77 59 C77.99 59 78.98 59 80 59 C80.37125 60.2375 80.37125 60.2375 80.75 61.5 C82.81656739 67.28638869 84.97603614 72.08304493 89.3125 76.5 C91.17379206 78.51950189 91.96619592 79.41054132 92.125 82.1796875 C91.8465242 84.13598002 91.43217678 86.07182667 91 88 C92.08552366 89.31262571 92.08552366 89.31262571 94.72265625 89.09765625 C95.82480469 89.08605469 96.92695313 89.07445312 98.0625 89.0625 C99.16722656 89.05347656 100.27195312 89.04445313 101.41015625 89.03515625 C102.26480469 89.02355469 103.11945313 89.01195312 104 89 C105.84670417 84.79038695 106.18085487 81.61179928 106 77 C105.41992188 77.00902344 104.83984375 77.01804687 104.2421875 77.02734375 C100.64768104 76.89091859 97.97664611 76.7817188 95.1015625 74.48046875 C90.71156354 69.39449435 89.87225546 65.77046071 90 59 C89.34 59 88.68 59 88 59 C88.33 57.35 88.66 55.7 89 54 C100.77892688 53.42697112 111.09706347 55.67642172 122 60 C126.85943846 61.61981282 130.87615786 62.20913641 136 62 C137.35439668 59.29120665 137.06501451 56.99066732 137 54 C135.35 53.34 133.7 52.68 132 52 C132.54723683 48.62537285 133.0549 46.91765 135 44 C135.16699232 40.87478167 135.16699232 40.87478167 135 38 C131.61666814 39.03379585 130.22100523 39.69059268 128.125 42.625 C126 45 126 45 122.75 45.5 C119.223948 45.02985973 116.5147371 44.25696252 113.28515625 42.8515625 C106.74922954 40.41595221 100.87563353 39.7223874 93.97265625 39.83984375 C92.69129539 39.84846184 92.69129539 39.84846184 91.38404846 39.85725403 C89.55663866 39.86990764 87.72925362 39.88671436 85.9019165 39.90734863 C81.07925474 39.9585598 76.2564854 39.96774676 71.43359375 39.98046875 C69.98134399 39.98513657 69.98134399 39.98513657 68.49975586 39.98989868 C60.22882485 40.01172562 51.96138729 39.98166478 43.69235229 39.79348755 C41.69365366 39.75144416 39.69457656 39.72877074 37.69555664 39.70678711 C30.24327157 39.51158841 23.86875782 38.39381512 16.81787109 35.94628906 C14.05555017 34.93359492 14.05555017 34.93359492 11.29150391 34.56152344 C9 34 9 34 6.4375 31 C1.34333391 22.08520935 -0.73761479 10.14220336 0 0 Z " fill="#171717" transform="translate(117,191)"/>
<path d="M0 0 C1.46373047 0.02707031 1.46373047 0.02707031 2.95703125 0.0546875 C3.69308594 0.07789063 4.42914063 0.10109375 5.1875 0.125 C5.1875 1.115 5.1875 2.105 5.1875 3.125 C4.19169922 3.19847656 4.19169922 3.19847656 3.17578125 3.2734375 C-3.57801312 3.72239875 -3.57801312 3.72239875 -9.8125 6.125 C-10.98914871 9.65494613 -11.01100603 12.41955413 -10.8125 16.125 C-9.09023504 19.37349977 -9.09023504 19.37349977 -5.8125 20.125 C-4.40425107 20.20521999 -2.99252769 20.23265977 -1.58203125 20.22265625 C-0.77958984 20.21943359 0.02285156 20.21621094 0.84960938 20.21289062 C1.68298828 20.20451172 2.51636719 20.19613281 3.375 20.1875 C4.6424707 20.18073242 4.6424707 20.18073242 5.93554688 20.17382812 C8.01956155 20.16205403 10.10353977 20.1441189 12.1875 20.125 C12.1875 21.115 12.1875 22.105 12.1875 23.125 C5.56833172 25.33138943 -2.96976447 25.13149169 -9.5625 22.8125 C-12.8125 21.125 -12.8125 21.125 -14.8125 18.125 C-15.43739744 13.21771716 -15.21286451 8.52566827 -12.8125 4.125 C-9.04213149 0.35463149 -5.18226941 -0.12487396 0 0 Z " fill="#1C1C1C" transform="translate(47.8125,191.875)"/>
<path d="M0 0 C0.99 0.66 1.98 1.32 3 2 C3.24257107 5.2747094 3.30245982 8.03762784 2.3125 11.1875 C2.1578125 12.0846875 2.1578125 12.0846875 2 13 C2.474375 13.5775 2.94875 14.155 3.4375 14.75 C5.79767557 18.14865282 5.20396741 20.92065177 5 25 C4.01 24.67 3.02 24.34 2 24 C0.8125 20.4375 0.8125 20.4375 0 17 C-1.32 16.67 -2.64 16.34 -4 16 C-3.45276317 12.62537285 -2.9451 10.91765 -1 8 C-0.83300768 4.87478167 -0.83300768 4.87478167 -1 2 C-4.37503669 3.1858237 -6.64722731 4.27573689 -9 7 C-9.66 6.67 -10.32 6.34 -11 6 C-9.55369928 1.42004773 -9.55369928 1.42004773 -7.1875 -0.375 C-4.4031785 -1.17052043 -2.75230721 -0.84686376 0 0 Z " fill="#1D1D1D" transform="translate(253,227)"/>
<path d="M0 0 C3.95831809 -0.02892857 7.91660917 -0.04677427 11.875 -0.0625 C13.56689453 -0.07506836 13.56689453 -0.07506836 15.29296875 -0.08789062 C16.36933594 -0.09111328 17.44570312 -0.09433594 18.5546875 -0.09765625 C19.54968262 -0.10289307 20.54467773 -0.10812988 21.56982422 -0.11352539 C24 0 24 0 26 1 C26 1.66 26 2.32 26 3 C24.36804688 3.11214844 24.36804688 3.11214844 22.703125 3.2265625 C12.84927206 4.05586384 5.5498743 5.76134869 -3 11 C-3.33 10.34 -3.66 9.68 -4 9 C-0.98112756 5.51668565 1.56909529 4.20842856 6 3 C3.69 2.67 1.38 2.34 -1 2 C-0.67 1.34 -0.34 0.68 0 0 Z " fill="#111111" transform="translate(171,245)"/>
<path d="M0 0 C10.01875543 0.40692424 19.24020175 1.60892462 29 4 C29 4.66 29 5.32 29 6 C33.455 5.505 33.455 5.505 38 5 C37.67 6.32 37.34 7.64 37 9 C32.00666807 9.31208325 28.62334493 8.66199614 24.0078125 6.79296875 C16.0581697 3.65332383 7.41745077 3.0302609 -1 2 C-0.67 1.34 -0.34 0.68 0 0 Z " fill="#0A0A0A" transform="translate(206,227)"/>
<path d="M0 0 C0.33 0 0.66 0 1 0 C1.20625 0.78375 1.4125 1.5675 1.625 2.375 C3.79690622 8.10093457 6.74170776 13.75837412 11.1171875 18.1015625 C13.49624527 20.50036349 14.12166281 22.7794303 15 26 C14.34 26.33 13.68 26.66 13 27 C12.67 27.66 12.34 28.32 12 29 C11 31 11 31 9 32 C9 29.69 9 27.38 9 25 C9.66 25 10.32 25 11 25 C10.38511719 24.11957031 9.77023438 23.23914063 9.13671875 22.33203125 C8.32022829 21.15891277 7.50382675 19.9857324 6.6875 18.8125 C6.28337891 18.23435547 5.87925781 17.65621094 5.46289062 17.06054688 C-1.0557437 7.6800731 -1.0557437 7.6800731 -0.6875 3.1875 C-0.460625 2.135625 -0.23375 1.08375 0 0 Z " fill="#242424" transform="translate(53,243)"/>
<path d="M0 0 C0.33 0.66 0.66 1.32 1 2 C-0.51980469 2.27263672 -0.51980469 2.27263672 -2.0703125 2.55078125 C-3.42196353 2.80421582 -4.77352119 3.05814865 -6.125 3.3125 C-6.79015625 3.43044922 -7.4553125 3.54839844 -8.140625 3.66992188 C-12.54667864 4.51225566 -16.02304456 5.98898995 -20 8 C-21.32 8 -22.64 8 -24 8 C-24.33 8.66 -24.66 9.32 -25 10 C-25.99 10.33 -26.98 10.66 -28 11 C-28.042721 9.33388095 -28.04063832 7.66617115 -28 6 C-26.42184465 4.42184465 -24.54488353 4.49866574 -22.375 4.125 C-19.13519446 3.51119069 -16.2469866 2.81503868 -13.25 1.4375 C-8.86730144 -0.50100129 -4.61921216 -1.88190125 0 0 Z " fill="#272727" transform="translate(192,254)"/>
<path d="M0 0 C0.99 0 1.98 0 3 0 C3.2475 0.825 3.495 1.65 3.75 2.5 C5.82523597 8.3106607 8.06596786 13.15523832 12.3125 17.6875 C15.01528025 20.64091401 15.01528025 20.64091401 14.875 23.9375 C14.441875 24.9584375 14.441875 24.9584375 14 26 C13.01 25.67 12.02 25.34 11 25 C10.31653318 23.34015202 9.65411685 21.67163195 9 20 C8.2151998 18.83501977 7.4000908 17.69012224 6.5625 16.5625 C1 9.02514793 1 9.02514793 1 5 C-0.32 4.67 -1.64 4.34 -3 4 C-2.67 3.34 -2.34 2.68 -2 2 C-1.34 2 -0.68 2 0 2 C0 1.34 0 0.68 0 0 Z " fill="#1D1D1D" transform="translate(194,250)"/>
<path d="M0 0 C0.33 0 0.66 0 1 0 C1.29363808 4.99184736 1.07836372 7.97444744 -2 12 C-4.81207235 13.40603618 -7.24009466 13.24557505 -10.375 13.3125 C-12.08816406 13.36857422 -12.08816406 13.36857422 -13.8359375 13.42578125 C-17 13 -17 13 -19.3984375 11.15234375 C-21.32922899 8.55754836 -21.35133034 7.16197302 -21 4 C-20.01 3.67 -19.02 3.34 -18 3 C-17.34 4.98 -16.68 6.96 -16 9 C-12.04 9 -8.08 9 -4 9 C-2.68 6.03 -1.36 3.06 0 0 Z " fill="#0E0E0E" transform="translate(225,271)"/>
<path d="M0 0 C1.32 0.66 2.64 1.32 4 2 C2.8656185 9.94067053 -2.50728227 15.50728227 -8 21 C-8.66 21.33 -9.32 21.66 -10 22 C-10 18.04 -10 14.08 -10 10 C-9.34 10 -8.68 10 -8 10 C-7.34 11.32 -6.68 12.64 -6 14 C-4.37168238 12.19038423 -4.37168238 12.19038423 -3 10 C-3.33 9.01 -3.66 8.02 -4 7 C-2.35 6.34 -0.7 5.68 1 5 C0.67 3.35 0.34 1.7 0 0 Z " fill="#010101" transform="translate(442,237)"/>
<path d="M0 0 C1.74271938 2.297221 3.39911152 4.59866729 5 7 C7.09063583 7.64860264 7.09063583 7.64860264 9.4375 7.9375 C13.7537106 8.79102718 13.7537106 8.79102718 16.0625 10.75 C17.25500809 13.61201942 17.20925212 15.93096897 17 19 C16.01 18.67 15.02 18.34 14 18 C13.67 16.02 13.34 14.04 13 12 C12.12988281 12.01353516 12.12988281 12.01353516 11.2421875 12.02734375 C7.62057632 11.88988986 4.96287339 11.74317013 2.03125 9.48046875 C0.43785108 7.695411 -0.92499732 6.14065751 -2 4 C-1 1 -1 1 0 0 Z " fill="#1F1F1F" transform="translate(210,256)"/>
<path d="M0 0 C0.33 0 0.66 0 1 0 C1.1799928 5.21979128 0.97094808 9.07262981 -1 14 C-1.66 14 -2.32 14 -3 14 C-3.33 14.99 -3.66 15.98 -4 17 C-7.17360264 19.61355512 -8.58923992 20.02738401 -12.75 19.75 C-16 19 -16 19 -17 18 C-17.04092937 15.66702567 -17.04241723 13.33294775 -17 11 C-16.79375 11.639375 -16.5875 12.27875 -16.375 12.9375 C-15.10852594 15.27092448 -15.10852594 15.27092448 -12.1875 16.0625 C-8.81473876 16.32016485 -8.81473876 16.32016485 -6.1875 13.75 C-3.85710129 11.14313307 -3.85710129 11.14313307 -3 8 C-2.34 7.67 -1.68 7.34 -1 7 C-0.59270772 4.67843403 -0.25561323 2.3431213 0 0 Z " fill="#161616" transform="translate(116,250)"/>
<path d="M0 0 C3.02089478 -0.02716089 6.04154129 -0.04691657 9.0625 -0.0625 C9.91005859 -0.07087891 10.75761719 -0.07925781 11.63085938 -0.08789062 C16.5361722 -0.10683006 21.16444755 0.16673655 26 1 C26 1.99 26 2.98 26 4 C13.13 3.505 13.13 3.505 0 3 C0 2.01 0 1.02 0 0 Z " fill="#1A1A1A" transform="translate(38,228)"/>
<path d="M0 0 C0.66 0.33 1.32 0.66 2 1 C1.319375 1.845625 0.63875 2.69125 -0.0625 3.5625 C-2.43065395 7.76406347 -1.82658451 9.37112672 -1 14 C-1.875 17.1875 -1.875 17.1875 -3 20 C-3.34976758 21.32911682 -3.69096017 22.66082739 -4 24 C-4.99 24 -5.98 24 -7 24 C-7 23.01 -7 22.02 -7 21 C-7.66 20.34 -8.32 19.68 -9 19 C-8.13375 18.154375 -7.2675 17.30875 -6.375 16.4375 C-4.93020894 14.85540789 -4.93020894 14.85540789 -4 13 C-4.53219091 9.17352608 -4.53219091 9.17352608 -6 6 C-4.02 4.02 -2.04 2.04 0 0 Z " fill="#000000" transform="translate(470,231)"/>
<path d="M0 0 C5.94 0 11.88 0 18 0 C18 0.33 18 0.66 18 1 C20.31 1.33 22.62 1.66 25 2 C24.67 2.66 24.34 3.32 24 4 C16.08 4 8.16 4 0 4 C0 2.68 0 1.36 0 0 Z " fill="#3A3A3A" transform="translate(153,245)"/>
<path d="M0 0 C-1.56611066 3.13222131 -3.81701086 3.70322665 -7 5 C-12.58597592 5.52697886 -17.62164699 4.36593092 -23 3 C-23 2.67 -23 2.34 -23 2 C-15.27111181 0.04596958 -7.94957992 -0.22428282 0 0 Z " fill="#E9E9E9" transform="translate(175,248)"/>
<path d="M0 0 C1.65 0.33 3.3 0.66 5 1 C5.90594807 3.61718331 5.98235878 5.10143704 5.5 7.875 C4.96376636 11.22646028 5.41081278 13.68582189 6 17 C5.67 17.99 5.34 18.98 5 20 C4.01 19.67 3.02 19.34 2 19 C2.2475 18.4225 2.495 17.845 2.75 17.25 C2.8325 16.5075 2.915 15.765 3 15 C1.14567913 12.72855926 1.14567913 12.72855926 -1 11 C0.33333333 8.33333333 1.66666667 5.66666667 3 3 C2.01 2.67 1.02 2.34 0 2 C0 1.34 0 0.68 0 0 Z " fill="#000000" transform="translate(564,256)"/>
<path d="M0 0 C1.46373047 0.02707031 1.46373047 0.02707031 2.95703125 0.0546875 C3.69308594 0.07789063 4.42914063 0.10109375 5.1875 0.125 C5.1875 1.115 5.1875 2.105 5.1875 3.125 C4.19169922 3.19847656 4.19169922 3.19847656 3.17578125 3.2734375 C-3.56681906 3.74617876 -3.56681906 3.74617876 -9.8125 6.125 C-10.8025 7.61 -10.8025 7.61 -11.8125 9.125 C-12.4725 8.795 -13.1325 8.465 -13.8125 8.125 C-13.23905063 5.25775314 -12.9510485 4.2635485 -10.8125 2.125 C-7.0831766 0.28288171 -4.13515316 -0.09964224 0 0 Z " fill="#222222" transform="translate(47.8125,191.875)"/>
<path d="M0 0 C0.33 0.99 0.66 1.98 1 3 C-5 9 -5 9 -8.875 9.25 C-12.69612711 9.20891261 -12.69612711 9.20891261 -15 7.625 C-16 6 -16 6 -16 4 C-15.34773437 4.13019531 -14.69546875 4.26039063 -14.0234375 4.39453125 C-8.87374947 5.33393076 -8.87374947 5.33393076 -4 3.953125 C-2.174891 2.44533192 -2.174891 2.44533192 0 0 Z " fill="#101010" transform="translate(166,263)"/>
<path d="M0 0 C1.8125 0.8125 1.8125 0.8125 2.8125 2.8125 C2.29300781 3.04324219 1.77351563 3.27398437 1.23828125 3.51171875 C-3.44734524 5.70296367 -6.59442758 8.01410916 -10.1875 11.8125 C-11.1775 12.1425 -12.1675 12.4725 -13.1875 12.8125 C-11.78570868 8.35225488 -9.6323567 5.92927511 -6.1875 2.8125 C-5.1665625 1.884375 -5.1665625 1.884375 -4.125 0.9375 C-2.1875 -0.1875 -2.1875 -0.1875 0 0 Z " fill="#222222" transform="translate(25.1875,175.1875)"/>
<path d="M0 0 C1.32660757 3.9975108 0.19942777 6.18934007 -1.23046875 10.07421875 C-2.84492018 16.21241225 -2.77520721 22.68254754 -3 29 C-3.33 29 -3.66 29 -4 29 C-4.08736736 25.27098186 -4.14051482 21.54222835 -4.1875 17.8125 C-4.21263672 16.75740234 -4.23777344 15.70230469 -4.26367188 14.61523438 C-4.27333984 13.59365234 -4.28300781 12.57207031 -4.29296875 11.51953125 C-4.31653442 10.11344604 -4.31653442 10.11344604 -4.34057617 8.67895508 C-3.89633929 5.18461003 -2.50536206 2.50536206 0 0 Z " fill="#101010" transform="translate(14,186)"/>
<path d="M0 0 C0.99 0.33 1.98 0.66 3 1 C3.33 7.93 3.66 14.86 4 22 C3.34 22 2.68 22 2 22 C1.67 22.66 1.34 23.32 1 24 C-0.06309567 18.82682579 -0.11693938 13.87630664 -0.0625 8.625 C-0.05798828 7.79355469 -0.05347656 6.96210938 -0.04882812 6.10546875 C-0.03713164 4.07028103 -0.01919935 2.03513077 0 0 Z " fill="#2E2E2E" transform="translate(9,198)"/>
<path d="M0 0 C-0.33 1.98 -0.66 3.96 -1 6 C-3 3 -3 3 -3 1 C-6.37503669 2.1858237 -8.64722731 3.27573689 -11 6 C-11.66 5.67 -12.32 5.34 -13 5 C-11.55369928 0.42004773 -11.55369928 0.42004773 -9.1875 -1.375 C-5.76029082 -2.35420262 -3.12982904 -1.56491452 0 0 Z " fill="#181818" transform="translate(255,228)"/>
<path d="M0 0 C0.66 0.33 1.32 0.66 2 1 C1.814375 1.515625 1.62875 2.03125 1.4375 2.5625 C0.83752918 5.1713937 0.83752918 5.1713937 1.5 8.5 C1.93772143 11.56405002 2.02210188 13.16082812 1 16 C0.01 15.67 -0.98 15.34 -2 15 C-1.773125 14.113125 -1.54625 13.22625 -1.3125 12.3125 C-0.94548054 8.42209376 -1.73118159 7.08559304 -4 4 C-2.68 2.68 -1.36 1.36 0 0 Z " fill="#000000" transform="translate(518,231)"/>
<path d="M0 0 C3.63 0.33 7.26 0.66 11 1 C11 1.99 11 2.98 11 4 C7.04 3.67 3.08 3.34 -1 3 C-0.67 2.01 -0.34 1.02 0 0 Z " fill="#222222" transform="translate(53,228)"/>
<path d="M0 0 C2.625 0.9375 2.625 0.9375 5 2 C4.0409375 2.1546875 4.0409375 2.1546875 3.0625 2.3125 C2.381875 2.539375 1.70125 2.76625 1 3 C0.67 3.99 0.34 4.98 0 6 C-2.97 6 -5.94 6 -9 6 C-9 5.67 -9 5.34 -9 5 C-7.02 4.67 -5.04 4.34 -3 4 C-2.67 3.01 -2.34 2.02 -2 1 C-1.34 0.67 -0.68 0.34 0 0 Z " fill="#2D2D2D" transform="translate(101,244)"/>
<path d="M0 0 C1.4540625 0.0309375 1.4540625 0.0309375 2.9375 0.0625 C3.2675 1.0525 3.5975 2.0425 3.9375 3.0625 C2.6175 3.0625 1.2975 3.0625 -0.0625 3.0625 C-0.3925 3.7225 -0.7225 4.3825 -1.0625 5.0625 C-2.0525 5.3925 -3.0425 5.7225 -4.0625 6.0625 C-4.105221 4.39638095 -4.10313832 2.72867115 -4.0625 1.0625 C-3.0625 0.0625 -3.0625 0.0625 0 0 Z " fill="#2F2F2F" transform="translate(168.0625,258.9375)"/>
<path d="M0 0 C0.33 0 0.66 0 1 0 C1.125 3.375 1.125 3.375 1 7 C-1 9 -1 9 -4 11 C-4.66 11.99 -5.32 12.98 -6 14 C-5.46604696 9.46139912 -3.5802582 6.70912117 -1 3 C-0.67 2.01 -0.34 1.02 0 0 Z " fill="#272727" transform="translate(255,229)"/>
<path d="M0 0 C1.85776765 3.13498292 2.20140476 5.37471432 2 9 C1.01 9 0.02 9 -1 9 C-1.625 5.625 -1.625 5.625 -2 2 C-1.34 1.34 -0.68 0.68 0 0 Z " fill="#2A2A2A" transform="translate(120,199)"/>
<path d="M0 0 C1.98 0 3.96 0 6 0 C6 0.99 6 1.98 6 3 C4.02 3.33 2.04 3.66 0 4 C0 2.68 0 1.36 0 0 Z " fill="#1E1E1E" transform="translate(28,189)"/>
<path d="M0 0 C-0.33 0.66 -0.66 1.32 -1 2 C-3.64860427 2.59355614 -6.29197322 2.74209269 -9 3 C-8.67 2.01 -8.34 1.02 -8 0 C-5.04215769 -1.22393475 -3.00272755 -0.96516243 0 0 Z " fill="#090909" transform="translate(35,174)"/>
<path d="M0 0 C0.99 0 1.98 0 3 0 C3.33 2.31 3.66 4.62 4 7 C2.68 6.67 1.36 6.34 0 6 C0 4.02 0 2.04 0 0 Z " fill="#1E1E1E" transform="translate(120,208)"/>
<path d="M0 0 C0 1.32 0 2.64 0 4 C-2.97 3.505 -2.97 3.505 -6 3 C-6 2.34 -6 1.68 -6 1 C-4 0 -4 0 0 0 Z " fill="#2B2B2B" transform="translate(78,188)"/>
<path d="M0 0 C0.33 0.99 0.66 1.98 1 3 C1.99 3.33 2.98 3.66 4 4 C4 5.32 4 6.64 4 8 C2.68 7.67 1.36 7.34 0 7 C0 4.69 0 2.38 0 0 Z " fill="#333333" transform="translate(34,166)"/>
<path d="M0 0 C0.99 0.33 1.98 0.66 3 1 C0.63707344 3.52588702 -0.66462511 4.88820837 -4 6 C-3.6875 4.125 -3.6875 4.125 -3 2 C-2.01 1.34 -1.02 0.68 0 0 Z " fill="#181818" transform="translate(171,250)"/>
<path d="M0 0 C0.33 0 0.66 0 1 0 C1 2.97 1 5.94 1 9 C0.01 9 -0.98 9 -2 9 C-1.125 1.125 -1.125 1.125 0 0 Z " fill="#000000" transform="translate(602,255)"/>
<path d="M0 0 C0.66 0.33 1.32 0.66 2 1 C2 1.66 2 2.32 2 3 C-0.31 3.33 -2.62 3.66 -5 4 C-3 1 -3 1 0 0 Z " fill="#0F0F0F" transform="translate(175,257)"/>
</svg>
