<?xml version="1.0" encoding="UTF-8"?>
<svg version="1.1" xmlns="http://www.w3.org/2000/svg" width="800" height="300">
<path d="M0 0 C264 0 528 0 800 0 C800 99 800 198 800 300 C536 300 272 300 0 300 C0 201 0 102 0 0 Z " fill="#FEFEFE" transform="translate(0,0)"/>
<path d="M0 0 C4.37776879 0.65817489 7.46138303 1.2264894 11 4 C12.96457553 7.25171122 14 9.18692647 14 13 C22.58 13 31.16 13 40 13 C40.66 9.7 41.32 6.4 42 3 C42.66 2.01 43.32 1.02 44 0 C49.63895008 -1.02681944 55.36427899 -1.01351282 60.1875 2.3125 C63 5 63 5 64 8 C64.03954234 10.33299825 64.04401732 12.66708189 64 15 C64.5775 15.25136719 65.155 15.50273437 65.75 15.76171875 C72.05767813 19.23313189 76.08155089 25.13731884 78.25 31.875 C79.52918107 36.62305202 80.4937945 41.41355182 81.43701172 46.23632812 C83.08787081 57.67393287 83.08787081 57.67393287 89 67 C103.96162519 73.85842662 120.63290662 72.49925596 136.67987061 72.16845703 C142.98016307 72.04007467 149.28074827 71.94531618 155.58203125 71.8828125 C156.25360386 71.87559425 156.92517647 71.86837601 157.61709976 71.86093903 C169.9976256 71.75407259 183.13334412 72.04444804 195 76 C195 76.66 195 77.32 195 78 C198.43793339 77.81870185 198.43793339 77.81870185 202 77 C203.24174796 75.0998823 203.24174796 75.0998823 204 73 C206.42027298 71.24738853 207.57146151 70.95819137 210.5625 71.25 C213 72 213 72 216 74 C216.22265625 76.71484375 216.22265625 76.71484375 216.0625 79.9375 C215.74889245 84.77777569 215.74889245 84.77777569 218 89 C218.66992163 93.22985401 218.68330476 96.8326877 216.5 100.5625 C212.28780609 102.9845115 208.33719644 102.61330687 203.796875 101.421875 C201.50782464 100.66952978 199.25661604 99.84431212 197 99 C195.43957908 98.47297042 193.87708742 97.95202875 192.3125 97.4375 C189.78578628 96.59819162 187.26613562 95.74597002 184.75 94.875 C179.70454877 93.26962915 175.30645215 92.89595192 170 93 C170.28427417 94.58467728 170.57774818 96.1677057 170.875 97.75 C171.11863281 99.07257813 171.11863281 99.07257813 171.3671875 100.421875 C171.99365633 102.9741554 172.49225591 104.8454004 174 107 C176.29814274 108.02195506 176.29814274 108.02195506 178.9375 108.5625 C182.48311949 109.4032139 184.79504869 109.98870727 187 113 C187.55218463 118.61387712 187.12509183 122.13874605 184 127 C180.42878282 129.38081145 178.73325367 129.26906871 174.5 129.25 C173.3553125 129.25515625 172.210625 129.2603125 171.03125 129.265625 C168 129 168 129 165 127 C164.82703173 124.16598141 165.07042188 121.45812578 165.28515625 118.62890625 C165.2926133 115.84998458 165.2926133 115.84998458 162.99609375 114.33984375 C162.33738281 113.89769531 161.67867187 113.45554687 161 113 C161 112.01 161 111.02 161 110 C160.34 110 159.68 110 159 110 C157.02 105.545 157.02 105.545 155 101 C153.700625 101.28875 152.40125 101.5775 151.0625 101.875 C143.375 103.58333333 135.6875 105.29166667 128 107 C127.95875 107.721875 127.9175 108.44375 127.875 109.1875 C126.67670118 113.03917478 124.46156072 115.11046798 121 117 C116.70631061 117.67795096 114.8124795 117.51221534 111.125 115.1875 C107.72711744 111.68967972 107.84095511 108.62121116 107.8125 103.9375 C107.79832031 102.87402344 107.78414062 101.81054688 107.76953125 100.71484375 C108 98 108 98 110 96 C114.13997567 95.8028583 117.07703567 95.69234522 121 97 C127.90874351 97.69087435 129.88171804 96.16368087 137 93 C117.2 93.66 97.4 94.32 77 95 C77 97.97 77 100.94 77 104 C76.05965682 108.49275076 73.41642494 111.06635831 69.9453125 113.8984375 C68 115 68 115 64.1875 115 C61 114 61 114 59 112 C58.60235737 110.01178687 58.26224651 108.01055661 58 106 C49.05058909 103.48144994 40.22431907 101.30549022 31 100 C32.42673359 102.88634122 33.90494836 105.54445319 36 108 C39.55652459 108.90137027 39.55652459 108.90137027 43 109 C45.09807076 110.56365651 45.88333597 111.59905969 46.6171875 114.12109375 C46.70226562 114.88550781 46.78734375 115.64992188 46.875 116.4375 C46.97554688 117.19933594 47.07609375 117.96117187 47.1796875 118.74609375 C46.94204234 121.72699068 46.10543046 122.89912675 44 125 C38.18814266 127.33693564 32.79289053 127.43301402 27 125 C24.80859375 123.71875 24.80859375 123.71875 23 122 C22.71484375 119.73046875 22.71484375 119.73046875 22.9375 117.1875 C23.17210628 110.97043353 21.48317361 107.73639837 17.4375 103 C14.99524406 99.99414653 13.97182848 97.71061785 13 94 C12.34 94 11.68 94 11 94 C10.67 93.34 10.34 92.68 10 92 C8.22403955 91.33975078 8.22403955 91.33975078 6.0625 90.9375 C5.24910156 90.76734375 4.43570313 90.5971875 3.59765625 90.421875 C1.05151963 90.0083671 -1.42637365 89.83249303 -4 89.6875 C-11.89151653 88.98902726 -18.43598081 84.42831141 -24 79 C-25.25 76.25 -25.25 76.25 -26 74 C-26.66 73.67 -27.32 73.34 -28 73 C-31.03235794 66.46234755 -31.28898304 59.45083815 -31.3125 52.375 C-31.31781738 51.58818848 -31.32313477 50.80137695 -31.32861328 49.99072266 C-31.26277554 44.44995719 -30.39393059 39.35709786 -29 34 C-28.34 34 -27.68 34 -27 34 C-27.144375 33.319375 -27.28875 32.63875 -27.4375 31.9375 C-26.84496419 27.9590453 -25.16300692 26.34930035 -22.2734375 23.6484375 C-17.14972579 19.93330633 -11.29234882 18 -5 18 C-5.433125 16.6078125 -5.433125 16.6078125 -5.875 15.1875 C-6.78551433 9.44061733 -2.91636152 4.67463165 0 0 Z " fill="#FBFBFB" transform="translate(33,155)"/>
<path d="M0 0 C2.8125 -0.1875 2.8125 -0.1875 6 0 C7 1 8 2 9 3 C15.47083003 5.07525149 21.41141432 5.24994212 28.16796875 5.16015625 C29.2571611 5.15463745 30.34635345 5.14911865 31.46855164 5.14343262 C33.8178252 5.13109227 36.16707948 5.11448167 38.51629639 5.09402466 C44.77770738 5.04025787 51.03917966 5.01861565 57.30078125 5 C59.23244141 4.9937838 59.23244141 4.9937838 61.203125 4.98744202 C77.41229646 4.95866797 93.61370822 5.33435472 109.81713867 5.73266602 C110.89429642 5.75735962 111.97145416 5.78205322 113.08125305 5.80749512 C115.09527242 5.85391321 117.10919602 5.90477372 119.12297058 5.96081543 C120.44631157 5.99096741 120.44631157 5.99096741 121.79638672 6.02172852 C122.56457733 6.04171402 123.33276794 6.06169952 124.12423706 6.08229065 C126.0924287 6.12361173 126.0924287 6.12361173 128 5 C131.03566911 4.76089183 134.08095166 4.81479913 137.125 4.8125 C138.37023437 4.79413086 138.37023437 4.79413086 139.640625 4.77539062 C146.3283327 4.75966717 153.1906553 5.34226445 159 9 C159.42667969 9.46148437 159.85335937 9.92296875 160.29296875 10.3984375 C162.9975484 12.93591497 166.33120593 14.35011728 169.625 16.01171875 C174.01917804 19.69039741 174.99427916 24.83672162 175.6171875 30.3671875 C175.72209306 31.86858663 175.80765993 33.37144759 175.875 34.875 C175.91254395 35.66366455 175.95008789 36.4523291 175.98876953 37.26489258 C176.27663329 46.52514559 174.29214193 54.04285919 168 61 C162.69554711 66.38085279 158.19286413 67.70523678 150.71362305 67.88330078 C149.57062744 67.88056152 148.42763184 67.87782227 147.25 67.875 C146.0535083 67.8941748 144.8570166 67.91334961 143.62426758 67.93310547 C140.0824586 67.98283335 136.54211111 67.99384427 133 68 C131.18616451 68.02360067 129.37235524 68.04939485 127.55859375 68.078125 C114.02532285 68.24209193 100.1544274 68.25064747 86.72265625 66.47265625 C78.59603524 65.44083973 70.49840803 65.91088485 62.375 66.78125 C56.14473547 67.35509015 49.86288457 66.66520367 43.63769531 66.25537109 C41.63908688 66.12591247 39.63984991 66.00628024 37.640625 65.88671875 C36.36960937 65.80292969 35.09859375 65.71914063 33.7890625 65.6328125 C32.63100098 65.55949707 31.47293945 65.48618164 30.27978516 65.41064453 C26.94747647 64.99342381 24.14301003 64.16096136 21 63 C19.865625 62.62875 18.73125 62.2575 17.5625 61.875 C10.70420537 58.84035636 6.45523899 52.07424207 3.69140625 45.35546875 C2.95117812 42.83367463 2.71897532 40.55745849 2.5625 37.9375 C2.27383191 33.27551038 0.83709453 30.65071581 -1.7890625 26.86328125 C-4.96470506 21.97688932 -6.0453083 15.71367548 -5 10 C-3.57222581 6.52259876 -1.86966857 3.25856521 0 0 Z " fill="#646464" transform="translate(429,216)"/>
<path d="M0 0 C4.37776879 0.65817489 7.46138303 1.2264894 11 4 C12.96457553 7.25171122 14 9.18692647 14 13 C22.58 13 31.16 13 40 13 C40.66 9.7 41.32 6.4 42 3 C42.66 2.01 43.32 1.02 44 0 C49.63895008 -1.02681944 55.36427899 -1.01351282 60.1875 2.3125 C63 5 63 5 64 8 C64.03954234 10.33299825 64.04401732 12.66708189 64 15 C64.5775 15.25136719 65.155 15.50273437 65.75 15.76171875 C72.05767813 19.23313189 76.08155089 25.13731884 78.25 31.875 C79.52918107 36.62305202 80.4937945 41.41355182 81.43701172 46.23632812 C83.08787081 57.67393287 83.08787081 57.67393287 89 67 C103.96162519 73.85842662 120.63290662 72.49925596 136.67987061 72.16845703 C142.98016307 72.04007467 149.28074827 71.94531618 155.58203125 71.8828125 C156.25360386 71.87559425 156.92517647 71.86837601 157.61709976 71.86093903 C169.9976256 71.75407259 183.13334412 72.04444804 195 76 C195 76.66 195 77.32 195 78 C198.43793339 77.81870185 198.43793339 77.81870185 202 77 C203.24174796 75.0998823 203.24174796 75.0998823 204 73 C206.42027298 71.24738853 207.57146151 70.95819137 210.5625 71.25 C213 72 213 72 216 74 C216.22265625 76.71484375 216.22265625 76.71484375 216.0625 79.9375 C215.74889245 84.77777569 215.74889245 84.77777569 218 89 C218.66992163 93.22985401 218.68330476 96.8326877 216.5 100.5625 C212.28780609 102.9845115 208.33719644 102.61330687 203.796875 101.421875 C201.50782464 100.66952978 199.25661604 99.84431212 197 99 C195.43957908 98.47297042 193.87708742 97.95202875 192.3125 97.4375 C189.78578628 96.59819162 187.26613562 95.74597002 184.75 94.875 C179.70454877 93.26962915 175.30645215 92.89595192 170 93 C170.28427417 94.58467728 170.57774818 96.1677057 170.875 97.75 C171.11863281 99.07257813 171.11863281 99.07257813 171.3671875 100.421875 C171.99365633 102.9741554 172.49225591 104.8454004 174 107 C176.29814274 108.02195506 176.29814274 108.02195506 178.9375 108.5625 C182.48311949 109.4032139 184.79504869 109.98870727 187 113 C187.55218463 118.61387712 187.12509183 122.13874605 184 127 C180.42878282 129.38081145 178.73325367 129.26906871 174.5 129.25 C173.3553125 129.25515625 172.210625 129.2603125 171.03125 129.265625 C168 129 168 129 165 127 C164.82703173 124.16598141 165.07042188 121.45812578 165.28515625 118.62890625 C165.2926133 115.84998458 165.2926133 115.84998458 162.99609375 114.33984375 C162.33738281 113.89769531 161.67867187 113.45554687 161 113 C161 112.01 161 111.02 161 110 C160.34 110 159.68 110 159 110 C157.02 105.545 157.02 105.545 155 101 C153.700625 101.28875 152.40125 101.5775 151.0625 101.875 C143.375 103.58333333 135.6875 105.29166667 128 107 C127.95875 107.721875 127.9175 108.44375 127.875 109.1875 C126.67670118 113.03917478 124.46156072 115.11046798 121 117 C116.70631061 117.67795096 114.8124795 117.51221534 111.125 115.1875 C107.72711744 111.68967972 107.84095511 108.62121116 107.8125 103.9375 C107.79832031 102.87402344 107.78414062 101.81054688 107.76953125 100.71484375 C108 98 108 98 110 96 C114.13997567 95.8028583 117.07703567 95.69234522 121 97 C127.90874351 97.69087435 129.88171804 96.16368087 137 93 C117.2 93.66 97.4 94.32 77 95 C77 97.97 77 100.94 77 104 C76.05965682 108.49275076 73.41642494 111.06635831 69.9453125 113.8984375 C68 115 68 115 64.1875 115 C61 114 61 114 59 112 C58.60235737 110.01178687 58.26224651 108.01055661 58 106 C49.05058909 103.48144994 40.22431907 101.30549022 31 100 C32.42673359 102.88634122 33.90494836 105.54445319 36 108 C39.55652459 108.90137027 39.55652459 108.90137027 43 109 C45.09807076 110.56365651 45.88333597 111.59905969 46.6171875 114.12109375 C46.70226562 114.88550781 46.78734375 115.64992188 46.875 116.4375 C46.97554688 117.19933594 47.07609375 117.96117187 47.1796875 118.74609375 C46.94204234 121.72699068 46.10543046 122.89912675 44 125 C38.18814266 127.33693564 32.79289053 127.43301402 27 125 C24.80859375 123.71875 24.80859375 123.71875 23 122 C22.71484375 119.73046875 22.71484375 119.73046875 22.9375 117.1875 C23.17210628 110.97043353 21.48317361 107.73639837 17.4375 103 C14.99524406 99.99414653 13.97182848 97.71061785 13 94 C12.34 94 11.68 94 11 94 C10.67 93.34 10.34 92.68 10 92 C8.22403955 91.33975078 8.22403955 91.33975078 6.0625 90.9375 C5.24910156 90.76734375 4.43570313 90.5971875 3.59765625 90.421875 C1.05151963 90.0083671 -1.42637365 89.83249303 -4 89.6875 C-11.89151653 88.98902726 -18.43598081 84.42831141 -24 79 C-25.25 76.25 -25.25 76.25 -26 74 C-26.66 73.67 -27.32 73.34 -28 73 C-31.03235794 66.46234755 -31.28898304 59.45083815 -31.3125 52.375 C-31.31781738 51.58818848 -31.32313477 50.80137695 -31.32861328 49.99072266 C-31.26277554 44.44995719 -30.39393059 39.35709786 -29 34 C-28.34 34 -27.68 34 -27 34 C-27.144375 33.319375 -27.28875 32.63875 -27.4375 31.9375 C-26.84496419 27.9590453 -25.16300692 26.34930035 -22.2734375 23.6484375 C-17.14972579 19.93330633 -11.29234882 18 -5 18 C-5.433125 16.6078125 -5.433125 16.6078125 -5.875 15.1875 C-6.78551433 9.44061733 -2.91636152 4.67463165 0 0 Z M1 3 C-2.73512552 10.70426512 -2.73512552 10.70426512 -2 19 C-2.99 18.67 -3.98 18.34 -5 18 C-5 18.99 -5 19.98 -5 21 C-6.7325 21.0928125 -6.7325 21.0928125 -8.5 21.1875 C-14.74241409 21.98440393 -19.19945289 24.95613571 -23.3125 29.625 C-28.89123407 40.78246814 -30.01631504 54.44599912 -26.875 66.5625 C-24.25238553 73.80239346 -19.31651656 79.66513569 -13 84 C-4.10816384 87.82909701 4.43763813 88.1392577 14 88 C13.93425781 88.71285156 13.86851563 89.42570312 13.80078125 90.16015625 C14.05060949 93.72143325 15.21893905 95.47836254 17.1875 98.4375 C17.82300781 99.3965625 18.45851562 100.355625 19.11328125 101.34375 C20.62645362 103.47409619 22.16264884 105.4690494 23.875 107.4375 C25.82143264 109.78466877 26.65635116 111.02171009 27 114 C26.01 114.495 26.01 114.495 25 115 C25.34801553 117.57531492 25.70964005 119.54832896 27.125 121.75 C30.07947321 123.71964881 32.47428237 123.88247608 36 124 C38.83385735 123.37274304 40.43205172 122.54076897 43 121 C44.22089675 118.19911921 44.1385954 116.71277635 43.5625 113.75 C41.31541027 111.2332595 39.11621643 111.69575773 35.91015625 111.48046875 C34 111 34 111 32 107.9375 C31.505 106.4834375 31.505 106.4834375 31 105 C30.34 105 29.68 105 29 105 C28.9175 104.0925 28.835 103.185 28.75 102.25 C27.89440357 98.54241549 26.75605229 97.49767239 24 95 C23.67 94.01 23.34 93.02 23 92 C23.66 92 24.32 92 25 92 C25 92.99 25 93.98 25 95 C30.74174823 98.00758241 36.28357198 98.73607774 42.6953125 99.47265625 C45.78092216 99.96504077 48.12462829 100.84154366 51 102 C52.92903132 102.2759478 54.8689032 102.48449903 56.8125 102.625 C57.78832031 102.69976562 58.76414062 102.77453125 59.76953125 102.8515625 C60.87361328 102.92503906 60.87361328 102.92503906 62 103 C61.67 105.31 61.34 107.62 61 110 C63.65956849 112.19345981 63.65956849 112.19345981 65.875 111.9375 C69.6206703 110.2849984 72.09361992 107.3811506 74.3125 104 C75.14427957 101.58027761 75.14114911 99.5406839 75 97 C74.34 97 73.68 97 73 97 C72.67 96.01 72.34 95.02 72 94 C68.3558226 91.5705484 66.28758728 91.83820425 62 92 C62 92.99 62 93.98 62 95 C59.76980273 94.71632132 57.54086546 94.42272612 55.3125 94.125 C54.07113281 93.96257812 52.82976562 93.80015625 51.55078125 93.6328125 C48.40068066 93.07140843 45.85205309 92.42867224 43 91 C42.67 90.34 42.34 89.68 42 89 C42.928125 89.495 43.85625 89.99 44.8125 90.5 C49.73968438 92.659445 54.72281389 92.25765646 60 92 C60.33 91.34 60.66 90.68 61 90 C67.625 89.875 67.625 89.875 71 91 C73.75370229 91.09133385 76.48158822 91.12600326 79.23510742 91.11352539 C80.07435257 91.11367142 80.91359772 91.11381744 81.77827454 91.1139679 C84.55403217 91.11327087 87.32972282 91.10548829 90.10546875 91.09765625 C92.02932193 91.09579132 93.95317559 91.09436777 95.87702942 91.09336853 C100.94214182 91.08954924 106.00722558 91.07972394 111.07232666 91.06866455 C116.24027112 91.05843781 121.40822021 91.0538682 126.57617188 91.04882812 C136.71746051 91.03810117 146.85872787 91.02103177 157 91 C157 91.66 157 92.32 157 93 C156.27296875 92.95359375 155.5459375 92.9071875 154.796875 92.859375 C145.03207114 92.50884358 137.09738468 94.74314925 128.5 99.3125 C125 101 125 101 122.84375 100.66796875 C121 100 121 100 120 99 C117.32941149 98.85884839 114.67567762 98.95752893 112 99 C110.37405612 103.19322369 109.49248612 105.64871776 111.3125 109.875 C112.69344324 112.78884526 112.69344324 112.78884526 114 114 C116.83073436 114.50169415 116.83073436 114.50169415 120 114 C123.44391324 111.24486941 125.14785121 109.28823264 126 105 C126.8353125 104.83564453 126.8353125 104.83564453 127.6875 104.66796875 C132.31356805 103.70680934 136.57366783 102.46859568 140.95703125 100.71875 C143.18372234 99.93536346 145.37321757 99.45903123 147.6875 99 C151.28598057 98.2653621 153.96846854 97.15140942 157 95 C157.14308594 96.29357422 157.14308594 96.29357422 157.2890625 97.61328125 C158.07733987 101.36842673 159.40417088 103.90694268 161.375 107.1875 C162.28378906 108.72470703 162.28378906 108.72470703 163.2109375 110.29296875 C164.82027373 112.96534693 164.82027373 112.96534693 166.75390625 114.609375 C168 116 168 116 168.00390625 117.97265625 C167.78541016 119.00712891 167.78541016 119.00712891 167.5625 120.0625 C167.376875 121.361875 167.19125 122.66125 167 124 C169.68459392 126.68459392 171.19740198 126.32966548 174.9375 126.375 C175.99839844 126.40335937 177.05929688 126.43171875 178.15234375 126.4609375 C181.07321923 126.26277955 181.07321923 126.26277955 182.859375 124.234375 C184.70873535 120.61165541 184.32551043 118.03632936 184 114 C181.45884755 111.45884755 179.44778721 111.56437677 175.97265625 111.24609375 C174 111 174 111 171 110 C170.26953125 108.15234375 170.26953125 108.15234375 169.8125 105.9375 C169.65394531 105.20402344 169.49539062 104.47054687 169.33203125 103.71484375 C169.22246094 103.14894531 169.11289063 102.58304687 169 102 C168.34 102 167.68 102 167 102 C167 98.37 167 94.74 167 91 C178.43493092 90.54260276 188.41280539 92.80162972 199 97 C203.83118004 98.61039335 207.89547372 99.400355 213 99 C215.18331689 97.23863645 215.18331689 97.23863645 215.1953125 95.0546875 C215.17210937 94.33539063 215.14890625 93.61609375 215.125 92.875 C215.08375 91.59625 215.0425 90.3175 215 89 C214.01 88.67 213.02 88.34 212 88 C211.01 88.495 211.01 88.495 210 89 C211.875 82.125 211.875 82.125 213 81 C213.04080783 79.00041636 213.04254356 76.99954746 213 75 C211.35 74.67 209.7 74.34 208 74 C205.02324541 77.09327895 205.02324541 77.09327895 204 81 C195.87714814 79.3100863 187.87547723 77.62515908 180 75 C177.21770485 74.92601263 174.4611468 74.90841958 171.6796875 74.9375 C169.94458078 74.94626553 168.20947331 74.95488561 166.47436523 74.96337891 C165.56065155 74.96960266 164.64693787 74.97582642 163.70553589 74.98223877 C149.64670287 75.07045605 135.58951678 75.07113036 121.53497314 74.68261719 C120.15236563 74.64463722 118.76966969 74.60973394 117.38690186 74.578125 C107.95439749 74.35604084 99.80979939 73.52391975 91 70 C89.68 70 88.36 70 87 70 C84.1404295 66.48681339 82.53050734 63.50931237 82 59 C81.34 59 80.68 59 80 59 C79.98582031 58.25878906 79.97164063 57.51757812 79.95703125 56.75390625 C79.64534218 49.87147467 78.60437665 43.66523531 76.6875 37.0625 C76.48680908 36.35359619 76.28611816 35.64469238 76.0793457 34.91430664 C73.99809125 28.08834037 70.47999147 22.65799275 65 18 C63.68 18 62.36 18 61 18 C61.05800781 17.33613281 61.11601563 16.67226562 61.17578125 15.98828125 C61.40477862 11.5064755 61.47666548 8.79444247 59.125 4.875 C54.73773073 2.24263844 50.99183607 2.56382015 46 3 C43.36157824 7.70327357 42.80868862 10.33917966 42 16 C32.1 16 22.2 16 12 16 C11.505 13.03 11.505 13.03 11 10 C9.44839606 6.63063481 9.44839606 6.63063481 7 4 C3.86734521 3.0311941 3.86734521 3.0311941 1 3 Z " fill="#121212" transform="translate(33,155)"/>
<path d="M0 0 C2.8125 -0.1875 2.8125 -0.1875 6 0 C7 1 8 2 9 3 C15.47083003 5.07525149 21.41141432 5.24994212 28.16796875 5.16015625 C29.2571611 5.15463745 30.34635345 5.14911865 31.46855164 5.14343262 C33.8178252 5.13109227 36.16707948 5.11448167 38.51629639 5.09402466 C44.77770738 5.04025787 51.03917966 5.01861565 57.30078125 5 C59.23244141 4.9937838 59.23244141 4.9937838 61.203125 4.98744202 C77.41229646 4.95866797 93.61370822 5.33435472 109.81713867 5.73266602 C110.89429642 5.75735962 111.97145416 5.78205322 113.08125305 5.80749512 C115.09527242 5.85391321 117.10919602 5.90477372 119.12297058 5.96081543 C120.44631157 5.99096741 120.44631157 5.99096741 121.79638672 6.02172852 C122.56457733 6.04171402 123.33276794 6.06169952 124.12423706 6.08229065 C126.0924287 6.12361173 126.0924287 6.12361173 128 5 C131.03566911 4.76089183 134.08095166 4.81479913 137.125 4.8125 C138.37023437 4.79413086 138.37023437 4.79413086 139.640625 4.77539062 C146.3283327 4.75966717 153.1906553 5.34226445 159 9 C159.42667969 9.46148437 159.85335937 9.92296875 160.29296875 10.3984375 C162.9975484 12.93591497 166.33120593 14.35011728 169.625 16.01171875 C174.01917804 19.69039741 174.99427916 24.83672162 175.6171875 30.3671875 C175.72209306 31.86858663 175.80765993 33.37144759 175.875 34.875 C175.91254395 35.66366455 175.95008789 36.4523291 175.98876953 37.26489258 C176.27663329 46.52514559 174.29214193 54.04285919 168 61 C162.69554711 66.38085279 158.19286413 67.70523678 150.71362305 67.88330078 C149.57062744 67.88056152 148.42763184 67.87782227 147.25 67.875 C146.0535083 67.8941748 144.8570166 67.91334961 143.62426758 67.93310547 C140.0824586 67.98283335 136.54211111 67.99384427 133 68 C131.18616451 68.02360067 129.37235524 68.04939485 127.55859375 68.078125 C114.02532285 68.24209193 100.1544274 68.25064747 86.72265625 66.47265625 C78.59603524 65.44083973 70.49840803 65.91088485 62.375 66.78125 C56.14473547 67.35509015 49.86288457 66.66520367 43.63769531 66.25537109 C41.63908688 66.12591247 39.63984991 66.00628024 37.640625 65.88671875 C36.36960937 65.80292969 35.09859375 65.71914063 33.7890625 65.6328125 C32.63100098 65.55949707 31.47293945 65.48618164 30.27978516 65.41064453 C26.94747647 64.99342381 24.14301003 64.16096136 21 63 C19.865625 62.62875 18.73125 62.2575 17.5625 61.875 C10.70420537 58.84035636 6.45523899 52.07424207 3.69140625 45.35546875 C2.95117812 42.83367463 2.71897532 40.55745849 2.5625 37.9375 C2.27383191 33.27551038 0.83709453 30.65071581 -1.7890625 26.86328125 C-4.96470506 21.97688932 -6.0453083 15.71367548 -5 10 C-3.57222581 6.52259876 -1.86966857 3.25856521 0 0 Z M2 3 C-1.20056327 7.39571031 -3.17210159 11.0337393 -2.6875 16.5703125 C-0.75050496 24.17301803 1.40130732 28.68547017 8 33 C8.309375 32.05125 8.61875 31.1025 8.9375 30.125 C10 27 10 27 11 25 C10.67 24.34 10.34 23.68 10 23 C12.31 23.33 14.62 23.66 17 24 C17 24.66 17 25.32 17 26 C16.401875 26.185625 15.80375 26.37125 15.1875 26.5625 C11.99950687 28.65746692 11.45644444 31.54094446 10 35 C7.8125 36.9375 7.8125 36.9375 6 38 C6.43386428 44.79720708 8.71901136 50.62717707 13.53515625 55.578125 C25.47522139 64.94952365 42.73368679 63.15052382 57 63 C56.98710937 61.8965625 56.97421875 60.793125 56.9609375 59.65625 C57 56 57 56 57.625 53.5 C58.20619921 50.81449175 58.20619921 50.81449175 57 47.5625 C55.9369034 43.77521835 56.32627014 41.78973046 57 38 C56.17657468 35.68019054 56.17657468 35.68019054 55 34 C57.92512762 36.43505389 57.92512762 36.43505389 58.2578125 38.9453125 C58.21398437 39.66460937 58.17015625 40.38390625 58.125 41.125 C57.96429211 45.84675096 58.3919686 50.32341282 59 55 C59.17893286 56.42571265 59.3572786 57.85149906 59.53515625 59.27734375 C59.68855469 60.50582031 59.84195313 61.73429687 60 63 C61.31613281 62.90460938 62.63226563 62.80921875 63.98828125 62.7109375 C80.13303317 61.64939006 80.13303317 61.64939006 87.84765625 63.453125 C102.6439952 66.02002395 120.17962869 66.37125941 135 64 C137.44251927 57.47348346 138.25867587 53.77602761 136 47 C136.9375 44.1875 136.9375 44.1875 138 42 C137.67 41.34 137.34 40.68 137 40 C136.01 40 135.02 40 134 40 C134 39.01 134 38.02 134 37 C135.9375 37.625 135.9375 37.625 138 39 C139.0723094 42.79432556 138.93231135 45.27075458 138 49 C138.165 49.886875 138.33 50.77375 138.5 51.6875 C139.14190299 55.94010731 138.61116813 59.76883603 138 64 C142.67661056 64.08468711 147.17531996 64.1216741 151.8125 63.4375 C155 63 155 63 157.5 63.8125 C160.60164164 64.04512312 161.18668047 63.41175287 163.5625 61.5 C166.91032743 58.34098713 169.11705826 55.18047615 171 51 C171.32226562 50.35546875 171.64453125 49.7109375 171.9765625 49.046875 C175.54148085 40.6770667 173.41424912 31.35760137 170.5625 23 C167.88947491 17.47850029 162.37709586 15.36406801 157 13 C155.91599105 18.7175801 155.91599105 18.7175801 157.25 24.25 C158.42159507 30.10797537 155.88541581 34.90217422 153 40 C152.01 40.66 151.02 41.32 150 42 C150.52851562 41.04738281 151.05703125 40.09476562 151.6015625 39.11328125 C152.27698801 37.84685843 152.95141527 36.57990285 153.625 35.3125 C153.975625 34.68666016 154.32625 34.06082031 154.6875 33.41601562 C156.32195389 30.29420869 157.16831634 28.6373228 156.25 25.16015625 C155.63125 24.09087891 155.63125 24.09087891 155 23 C154.07556986 20.22670957 154.0267192 18.50124151 154.1875 15.5 C154.2816013 12.06955642 154.2816013 12.06955642 152.65625 9.80078125 C148.45579586 6.95312043 144.2592073 7.53860246 139.3125 7.6875 C138.33732422 7.69716797 137.36214844 7.70683594 136.35742188 7.71679688 C131.83867632 7.38617701 131.83867632 7.38617701 128 9 C125.98035801 9.07244053 123.95832876 9.08377188 121.9375 9.0625 C120.83277344 9.05347656 119.72804688 9.04445312 118.58984375 9.03515625 C117.73519531 9.02355469 116.88054687 9.01195312 116 9 C116.01160156 9.61746094 116.02320313 10.23492187 116.03515625 10.87109375 C116.08894661 15.91970297 115.92444046 20.82368002 115.27734375 25.83203125 C115.0915947 27.28401325 114.9381839 28.74047797 114.81640625 30.19921875 C114.44335142 34.31804865 113.90156943 36.97227538 111 40 C111 37.59411466 111.70979414 35.99839035 112.5625 33.75 C113.96505902 29.6916695 113.84584573 27.22922865 113 23 C113.350625 22.01 113.70125 21.02 114.0625 20 C115.41997215 15.65608912 113.96348052 12.92696104 112 9 C104.74 9 97.48 9 90 9 C88.53691078 15.88512576 87.86947155 21.09121505 89 28 C88.67 28.66 88.34 29.32 88 30 C87.34 29.67 86.68 29.34 86 29 C86.495 28.505 86.495 28.505 87 28 C87.13961241 24.92852697 87.04131994 22.20659968 86.4375 19.1875 C86.293125 18.465625 86.14875 17.74375 86 17 C86.33 16.67 86.66 16.34 87 16 C87.04063832 14.33382885 87.042721 12.66611905 87 11 C86.34 11 85.68 11 85 11 C84.505 9.515 84.505 9.515 84 8 C78.21590487 7.97529951 72.43184038 7.95713977 66.64770508 7.94506836 C64.67960068 7.9400365 62.71150003 7.93321042 60.7434082 7.92456055 C57.91616899 7.91244483 55.08897916 7.90676024 52.26171875 7.90234375 C50.93970711 7.89460182 50.93970711 7.89460182 49.59098816 7.88670349 C48.3600518 7.88659019 48.3600518 7.88659019 47.10424805 7.88647461 C46.38254929 7.884254 45.66085052 7.88203339 44.9172821 7.87974548 C42.77773199 7.93174401 42.77773199 7.93174401 40 9 C39.19078631 11.69737896 38.54117383 14.25209793 38 17 C37.7215625 18.2065625 37.7215625 18.2065625 37.4375 19.4375 C36.97731213 21.91344677 36.97731213 21.91344677 36.82421875 24.09375 C36.40332248 29.04547086 35.57856056 32.62765819 33 37 C32.01 37 31.02 37 30 37 C30.639375 36.29875 31.27875 35.5975 31.9375 34.875 C34.20191565 31.71854182 34.59487586 29.80816696 35 26 C35.20625 25.319375 35.4125 24.63875 35.625 23.9375 C36.15393796 21.88232882 36.15393796 21.88232882 35.4375 19.375 C35.293125 18.59125 35.14875 17.8075 35 17 C35.66 16.34 36.32 15.68 37 15 C36.67801034 11.90073181 36.67801034 11.90073181 36 9 C34.51113281 8.94392578 34.51113281 8.94392578 32.9921875 8.88671875 C10.69180146 7.87331587 10.69180146 7.87331587 2 3 Z " fill="#101010" transform="translate(429,216)"/>
<path d="M0 0 C0 0.99 0 1.98 0 3 C-1.22976562 3.19916016 -1.22976562 3.19916016 -2.484375 3.40234375 C-4.10085937 3.66724609 -4.10085937 3.66724609 -5.75 3.9375 C-7.35101563 4.19853516 -7.35101563 4.19853516 -8.984375 4.46484375 C-11.36347593 4.88704171 -13.66915211 5.37202884 -16 6 C-16.05416188 7.60379341 -16.09286638 9.20811406 -16.125 10.8125 C-16.15980469 12.15248047 -16.15980469 12.15248047 -16.1953125 13.51953125 C-16.18285827 16.25402714 -16.18285827 16.25402714 -14 19 C-11.23434618 19.92188461 -9.61716298 20.11785222 -6.76953125 20.09765625 C-5.96708984 20.09443359 -5.16464844 20.09121094 -4.33789062 20.08789062 C-3.50451172 20.07951172 -2.67113281 20.07113281 -1.8125 20.0625 C-0.5450293 20.05573242 -0.5450293 20.05573242 0.74804688 20.04882812 C2.83206155 20.03705403 4.91603977 20.0191189 7 20 C7 20.99 7 21.98 7 23 C-1.57723672 25.47343571 -9.77866878 23.99605997 -18 21 C-18 20.01 -18 19.02 -18 18 C-18.66 18 -19.32 18 -20 18 C-20.40547064 7.66049879 -20.40547064 7.66049879 -18 4 C-12.21537468 -0.55385398 -7.1785353 -0.46731875 0 0 Z " fill="#0C0C0C" transform="translate(46,192)"/>
<path d="M0 0 C0.33 0.99 0.66 1.98 1 3 C1.66 3 2.32 3 3 3 C3.21914063 3.95261719 3.43828125 4.90523437 3.6640625 5.88671875 C5.38891549 13.98459627 5.38891549 13.98459627 10.25 20.375 C11.1575 20.91125 12.065 21.4475 13 22 C13.144375 21.2575 13.28875 20.515 13.4375 19.75 C13.90187492 17.47972261 14.41863569 15.24240521 15 13 C17.31 13.33 19.62 13.66 22 14 C22 14.66 22 15.32 22 16 C21.38125 16.4125 20.7625 16.825 20.125 17.25 C17.36840385 19.52013801 17.04983163 21.64053879 16 25 C14.5 26.875 14.5 26.875 13 28 C12.34 28 11.68 28 11 28 C10.01 30.475 10.01 30.475 9 33 C8.67 33 8.34 33 8 33 C7.98582031 32.3709375 7.97164063 31.741875 7.95703125 31.09375 C7.63073728 25.23809599 6.53814961 21.66177502 3.2109375 16.86328125 C-0.21664757 11.58922294 -0.21195647 6.04075942 0 0 Z " fill="#131313" transform="translate(424,226)"/>
<path d="M0 0 C0 0.99 0 1.98 0 3 C-0.97839844 3.25523437 -0.97839844 3.25523437 -1.9765625 3.515625 C-10.70438755 5.79760769 -10.70438755 5.79760769 -17.1796875 11.75390625 C-19.62995553 16.3235667 -20.91755845 20.94860609 -22 26 C-22.66 26 -23.32 26 -24 26 C-24.33 31.94 -24.66 37.88 -25 44 C-25.33 44 -25.66 44 -26 44 C-26.05455703 41.02058002 -26.09393851 38.04218469 -26.125 35.0625 C-26.14175781 34.23169922 -26.15851562 33.40089844 -26.17578125 32.54492188 C-26.22107288 26.72494733 -25.4456695 21.6403877 -24 16 C-23.34 16 -22.68 16 -22 16 C-22.144375 15.319375 -22.28875 14.63875 -22.4375 13.9375 C-21.84496419 9.9590453 -20.16300692 8.34930035 -17.2734375 5.6484375 C-12.14972579 1.93330633 -6.29234882 0 0 0 Z " fill="#3E3E3E" transform="translate(28,173)"/>
<path d="M0 0 C0.33 0 0.66 0 1 0 C1.50588674 8.09418785 -0.88682972 14.6430856 -6 21 C-9.37910814 24.64092766 -12.09547378 26.90897485 -17.1875 27.15234375 C-20.16546891 26.90300909 -23.06154998 26.53871584 -26 26 C-25 24 -25 24 -22.25 22.8125 C-19 22 -19 22 -16.5 22.6875 C-13.74666541 23.30521575 -13.74666541 23.30521575 -10.9375 21 C-5.5370475 15.94573035 -3.49663324 10.00430842 -1.61328125 3.0390625 C-1 1 -1 1 0 0 Z " fill="#060606" transform="translate(603,256)"/>
<path d="M0 0 C10.01875543 0.40692424 19.24020175 1.60892462 29 4 C29 4.66 29 5.32 29 6 C34.445 5.01 34.445 5.01 40 4 C39.34 5.65 38.68 7.3 38 9 C33.0144501 9.31159687 29.67697823 8.66037403 25.07421875 6.79296875 C16.82702088 3.64008519 7.70430058 3.07800297 -1 2 C-0.67 1.34 -0.34 0.68 0 0 Z " fill="#060606" transform="translate(199,227)"/>
<path d="M0 0 C3.95831809 -0.02892857 7.91660917 -0.04677427 11.875 -0.0625 C13.56689453 -0.07506836 13.56689453 -0.07506836 15.29296875 -0.08789062 C16.36933594 -0.09111328 17.44570312 -0.09433594 18.5546875 -0.09765625 C19.54968262 -0.10289307 20.54467773 -0.10812988 21.56982422 -0.11352539 C24 0 24 0 26 1 C26 1.66 26 2.32 26 3 C24.91460937 3.13277344 23.82921875 3.26554688 22.7109375 3.40234375 C21.26561678 3.58066254 19.82030474 3.75905169 18.375 3.9375 C17.66214844 4.02451172 16.94929688 4.11152344 16.21484375 4.20117188 C12.12408039 4.70782605 8.06157365 5.2889043 4 6 C4.66 5.01 5.32 4.02 6 3 C3.69 3 1.38 3 -1 3 C-0.67 2.01 -0.34 1.02 0 0 Z " fill="#0D0D0D" transform="translate(164,245)"/>
<path d="M0 0 C-1.84136386 3.68272773 -6.26452895 4.70812421 -10 6 C-15.82630589 6.63559701 -21.33239658 5.2772064 -27 4 C-26.015625 2.54296875 -26.015625 2.54296875 -24 1 C-21.18686612 0.61771728 -18.57177583 0.3969121 -15.75 0.3125 C-15.01136719 0.27833984 -14.27273437 0.24417969 -13.51171875 0.20898438 C-9.00584992 0.01428634 -4.50952881 -0.02982493 0 0 Z " fill="#D5D5D5" transform="translate(171,247)"/>
<path d="M0 0 C0 0.99 0 1.98 0 3 C-1.22976562 3.19916016 -1.22976562 3.19916016 -2.484375 3.40234375 C-4.10085937 3.66724609 -4.10085937 3.66724609 -5.75 3.9375 C-7.35101563 4.19853516 -7.35101563 4.19853516 -8.984375 4.46484375 C-11.36347593 4.88704171 -13.66915211 5.37202884 -16 6 C-16.33 7.32 -16.66 8.64 -17 10 C-17.33 10 -17.66 10 -18 10 C-18.33 12.64 -18.66 15.28 -19 18 C-19.33 18 -19.66 18 -20 18 C-20.40547064 7.66049879 -20.40547064 7.66049879 -18 4 C-12.21537468 -0.55385398 -7.1785353 -0.46731875 0 0 Z " fill="#1D1D1D" transform="translate(46,192)"/>
<path d="M0 0 C3.02089478 -0.02716089 6.04154129 -0.04691657 9.0625 -0.0625 C9.91005859 -0.07087891 10.75761719 -0.07925781 11.63085938 -0.08789062 C16.5361722 -0.10683006 21.16444755 0.16673655 26 1 C26 1.99 26 2.98 26 4 C13.13 3.505 13.13 3.505 0 3 C0 2.01 0 1.02 0 0 Z " fill="#1A1A1A" transform="translate(31,228)"/>
<path d="M0 0 C0.66 0.66 1.32 1.32 2 2 C1.67 2.680625 1.34 3.36125 1 4.0625 C-0.18453566 6.99578446 -0.18453566 6.99578446 0.0625 10.25 C-0.02360065 15.41603921 -1.03554646 20.83957907 -4.60546875 24.765625 C-5.06566406 25.17296875 -5.52585937 25.5803125 -6 26 C-6.99 25.67 -7.98 25.34 -9 25 C-8.360625 24.13375 -7.72125 23.2675 -7.0625 22.375 C-4.99019986 18.98396341 -4.42247465 16.88676677 -4 13 C-3.79375 12.319375 -3.5875 11.63875 -3.375 10.9375 C-2.83067246 8.89287506 -2.83067246 8.89287506 -3.6875 6.5 C-3.790625 5.675 -3.89375 4.85 -4 4 C-2.0625 1.6875 -2.0625 1.6875 0 0 Z " fill="#000000" transform="translate(467,229)"/>
<path d="M0 0 C2.60427663 2.60427663 2.50528695 4.39566205 3 8 C3.32871094 9.1446875 3.32871094 9.1446875 3.6640625 10.3125 C4.10572171 13.84577369 3.19396203 15.92627731 1.8125 19.1875 C1.38582031 20.23292969 0.95914063 21.27835938 0.51953125 22.35546875 C-1.09002716 25.15667966 -2.00308155 25.95396637 -5 27 C-4.00734643 24.46170776 -2.98445893 21.96695587 -1.82421875 19.5 C-0.69196301 17.00981554 0.30720879 14.64839171 1 12 C-0.20968895 9.2332494 -0.20968895 9.2332494 -2 7 C-1.58333333 1.58333333 -1.58333333 1.58333333 0 0 Z " fill="#000000" transform="translate(584,231)"/>
<path d="M0 0 C2 2 2 2 2.01171875 4.3203125 C1.90472656 5.24585938 1.79773438 6.17140625 1.6875 7.125 C1.51927734 8.60226563 1.51927734 8.60226563 1.34765625 10.109375 C1.23292969 11.06328125 1.11820313 12.0171875 1 13 C0.93683594 13.76828125 0.87367188 14.5365625 0.80859375 15.328125 C0.42512106 19.6034375 -0.49052942 22.50856266 -3 26 C-3.99 25.34 -4.98 24.68 -6 24 C-5.34 23.34 -4.68 22.68 -4 22 C-3.27982196 19.71171706 -3.27982196 19.71171706 -2.8125 17.125 C-2.63332031 16.26132813 -2.45414063 15.39765625 -2.26953125 14.5078125 C-1.85548873 12.05460461 -1.85548873 12.05460461 -2.5390625 9.9453125 C-3.13919757 7.41253908 -2.55294951 6.12707883 -1.5625 3.75 C-1.27503906 3.04359375 -0.98757813 2.3371875 -0.69140625 1.609375 C-0.34916016 0.81273437 -0.34916016 0.81273437 0 0 Z " fill="#000000" transform="translate(544,231)"/>
<path d="M0 0 C1.875 0.1875 1.875 0.1875 4 1 C6.38879811 4.98133018 5.79447983 7.58622317 5 12 C5.2644354 14.34214207 5.58244638 16.68025766 6 19 C5.01 18.67 4.02 18.34 3 18 C0.62790698 11.22259136 0.62790698 11.22259136 1.875 7.125 C2.24625 6.42375 2.6175 5.7225 3 5 C3 4.34 3 3.68 3 3 C2.01 3 1.02 3 0 3 C0 2.01 0 1.02 0 0 Z " fill="#000000" transform="translate(563,253)"/>
<path d="M0 0 C5.61 0 11.22 0 17 0 C16.67 0.99 16.34 1.98 16 3 C10.39 3 4.78 3 -1 3 C-0.67 2.01 -0.34 1.02 0 0 Z " fill="#1D1D1D" transform="translate(147,245)"/>
<path d="M0 0 C0.99 0.33 1.98 0.66 3 1 C4.00344253 7.30735307 4.50873071 13.63440427 5 20 C4.01 19.67 3.02 19.34 2 19 C-0.08254633 13.95301272 -0.10550722 9.28186783 1 4 C0.6422386 1.72349255 0.6422386 1.72349255 0 0 Z " fill="#000000" transform="translate(484,250)"/>
<path d="M0 0 C0.66 0.33 1.32 0.66 2 1 C1.814375 1.66 1.62875 2.32 1.4375 3 C1.03842212 5.73653403 1.13760553 7.4471767 1.5625 10.125 C2 14 2 14 0 17 C-0.99 16.67 -1.98 16.34 -3 16 C-2.67 15.34 -2.34 14.68 -2 14 C-1.86270799 10.91092972 -1.91919487 8.31587458 -2.6875 5.3125 C-2.790625 4.549375 -2.89375 3.78625 -3 3 C-1.5625 1.1875 -1.5625 1.1875 0 0 Z " fill="#000000" transform="translate(517,230)"/>
<path d="M0 0 C0 0.99 0 1.98 0 3 C-1.56159059 3.48212214 -3.12431928 3.96055873 -4.6875 4.4375 C-5.55761719 4.70433594 -6.42773438 4.97117188 -7.32421875 5.24609375 C-9.87025921 5.96344529 -12.4003423 6.517541 -15 7 C-14.01269344 4.43087971 -13.46442081 3.24027949 -10.9765625 1.953125 C-9.81253906 1.60507813 -9.81253906 1.60507813 -8.625 1.25 C-7.85414062 1.00765625 -7.08328125 0.7653125 -6.2890625 0.515625 C-4 0 -4 0 0 0 Z " fill="#0E0E0E" transform="translate(28,173)"/>
<path d="M0 0 C-2.45091043 2.68433048 -4.28241384 3.91789741 -8.04296875 4.09765625 C-8.75066406 4.08605469 -9.45835937 4.07445312 -10.1875 4.0625 C-12.0746875 4.0315625 -12.0746875 4.0315625 -14 4 C-13.67 3.01 -13.34 2.02 -13 1 C-11.39796533 0.63631108 -9.79325797 0.28438048 -8.1875 -0.0625 C-7.29417969 -0.25972656 -6.40085938 -0.45695313 -5.48046875 -0.66015625 C-3 -1 -3 -1 0 0 Z " fill="#222222" transform="translate(185,254)"/>
<path d="M0 0 C-0.33 4.29 -0.66 8.58 -1 13 C-1.99 12.67 -2.98 12.34 -4 12 C-4.75 8.8125 -4.75 8.8125 -5 5 C-1.80851064 0 -1.80851064 0 0 0 Z " fill="#1F1F1F" transform="translate(32,161)"/>
<path d="M0 0 C0.99 0.33 1.98 0.66 3 1 C2.01 2.485 2.01 2.485 1 4 C0.34 4 -0.32 4 -1 4 C-1.33 5.32 -1.66 6.64 -2 8 C-2.33 8 -2.66 8 -3 8 C-3.33 10.64 -3.66 13.28 -4 16 C-4.33 16 -4.66 16 -5 16 C-5.38647343 6.14492754 -5.38647343 6.14492754 -3 2 C-2.01 1.34 -1.02 0.68 0 0 Z " fill="#3B3B3B" transform="translate(31,194)"/>
<path d="M0 0 C0.99 0 1.98 0 3 0 C3.4375 2.125 3.4375 2.125 3 5 C0.87310854 7.276147 -1.5023433 9.1458722 -4 11 C-4 7.80389448 -3.45328458 6.58282374 -2 3.8125 C-1.62875 3.09707031 -1.2575 2.38164062 -0.875 1.64453125 C-0.441875 0.83048828 -0.441875 0.83048828 0 0 Z " fill="#1F1F1F" transform="translate(106,258)"/>
<path d="M0 0 C1.98 0.66 3.96 1.32 6 2 C6 2.33 6 2.66 6 3 C4.35 3 2.7 3 1 3 C1 3.99 1 4.98 1 6 C-1.97 6 -4.94 6 -8 6 C-7.67 5.01 -7.34 4.02 -7 3 C-5.02 3 -3.04 3 -1 3 C-0.67 2.01 -0.34 1.02 0 0 Z " fill="#2B2B2B" transform="translate(94,244)"/>
<path d="M0 0 C1.58246707 -0.08153933 3.16616273 -0.13943557 4.75 -0.1875 C6.07257813 -0.23970703 6.07257813 -0.23970703 7.421875 -0.29296875 C10.44671583 0.05076316 11.75583602 1.00227459 14 3 C3.44191344 3.18451025 3.44191344 3.18451025 -1 2 C-0.67 1.34 -0.34 0.68 0 0 Z " fill="#1B1B1B" transform="translate(189,227)"/>
<path d="M0 0 C0.33 0 0.66 0 1 0 C1.33 5.94 1.66 11.88 2 18 C-0.49059397 13.01881207 -1.2136995 10.24901803 -0.5625 4.75 C-0.46066406 3.85796875 -0.35882812 2.9659375 -0.25390625 2.046875 C-0.17011719 1.37140625 -0.08632813 0.6959375 0 0 Z " fill="#242424" transform="translate(603,242)"/>
<path d="M0 0 C0.66 0.33 1.32 0.66 2 1 C-0.19471406 5.51135667 -2.41173718 7.06273348 -7 9 C-5.44499019 5.18315774 -2.96404505 2.80804268 0 0 Z " fill="#2A2A2A" transform="translate(13,177)"/>
<path d="M0 0 C0 0.66 0 1.32 0 2 C-4.455 3.485 -4.455 3.485 -9 5 C-7 1 -7 1 -4.5 -0.3125 C-2 -1 -2 -1 0 0 Z " fill="#111111" transform="translate(172,257)"/>
<path d="M0 0 C1.65 0 3.3 0 5 0 C4.67 1.32 4.34 2.64 4 4 C2.68 4 1.36 4 0 4 C0 2.68 0 1.36 0 0 Z " fill="#0A0A0A" transform="translate(22,189)"/>
<path d="M0 0 C0 1.32 0 2.64 0 4 C-1.65 3.67 -3.3 3.34 -5 3 C-5 2.34 -5 1.68 -5 1 C-3 0 -3 0 0 0 Z " fill="#121212" transform="translate(71,188)"/>
</svg>
