<?xml version="1.0" encoding="UTF-8"?>
<svg version="1.1" xmlns="http://www.w3.org/2000/svg" width="800" height="300">
<path d="M0 0 C264 0 528 0 800 0 C800 99 800 198 800 300 C536 300 272 300 0 300 C0 201 0 102 0 0 Z " fill="#FEFEFE" transform="translate(0,0)"/>
<path d="M0 0 C2.8125 -0.1875 2.8125 -0.1875 6 0 C7 1 8 2 9 3 C15.47083003 5.07525149 21.41141432 5.24994212 28.16796875 5.16015625 C29.2571611 5.15463745 30.34635345 5.14911865 31.46855164 5.14343262 C33.8178252 5.13109227 36.16707948 5.11448167 38.51629639 5.09402466 C44.77770738 5.04025787 51.03917966 5.01861565 57.30078125 5 C59.23244141 4.9937838 59.23244141 4.9937838 61.203125 4.98744202 C77.41229646 4.95866797 93.61370822 5.33435472 109.81713867 5.73266602 C110.89429642 5.75735962 111.97145416 5.78205322 113.08125305 5.80749512 C115.09527242 5.85391321 117.10919602 5.90477372 119.12297058 5.96081543 C120.44631157 5.99096741 120.44631157 5.99096741 121.79638672 6.02172852 C122.56457733 6.04171402 123.33276794 6.06169952 124.12423706 6.08229065 C126.0924287 6.12361173 126.0924287 6.12361173 128 5 C131.03566911 4.76089183 134.08095166 4.81479913 137.125 4.8125 C138.37023437 4.79413086 138.37023437 4.79413086 139.640625 4.77539062 C146.3283327 4.75966717 153.1906553 5.34226445 159 9 C159.42667969 9.46148437 159.85335937 9.92296875 160.29296875 10.3984375 C162.9975484 12.93591497 166.33120593 14.35011728 169.625 16.01171875 C174.01917804 19.69039741 174.99427916 24.83672162 175.6171875 30.3671875 C175.72209306 31.86858663 175.80765993 33.37144759 175.875 34.875 C175.91254395 35.66366455 175.95008789 36.4523291 175.98876953 37.26489258 C176.27663329 46.52514559 174.29214193 54.04285919 168 61 C162.69554711 66.38085279 158.19286413 67.70523678 150.71362305 67.88330078 C149.57062744 67.88056152 148.42763184 67.87782227 147.25 67.875 C146.0535083 67.8941748 144.8570166 67.91334961 143.62426758 67.93310547 C140.0824586 67.98283335 136.54211111 67.99384427 133 68 C131.18616451 68.02360067 129.37235524 68.04939485 127.55859375 68.078125 C114.02532285 68.24209193 100.1544274 68.25064747 86.72265625 66.47265625 C78.59603524 65.44083973 70.49840803 65.91088485 62.375 66.78125 C56.14473547 67.35509015 49.86288457 66.66520367 43.63769531 66.25537109 C41.63908688 66.12591247 39.63984991 66.00628024 37.640625 65.88671875 C36.36960937 65.80292969 35.09859375 65.71914063 33.7890625 65.6328125 C32.63100098 65.55949707 31.47293945 65.48618164 30.27978516 65.41064453 C26.94747647 64.99342381 24.14301003 64.16096136 21 63 C19.865625 62.62875 18.73125 62.2575 17.5625 61.875 C10.70420537 58.84035636 6.45523899 52.07424207 3.69140625 45.35546875 C2.95117812 42.83367463 2.71897532 40.55745849 2.5625 37.9375 C2.27383191 33.27551038 0.83709453 30.65071581 -1.7890625 26.86328125 C-4.96470506 21.97688932 -6.0453083 15.71367548 -5 10 C-3.57222581 6.52259876 -1.86966857 3.25856521 0 0 Z " fill="#646464" transform="translate(429,216)"/>
<path d="M0 0 C5.75357073 2.82448017 7.96249405 6.2697212 10.1875 12.125 C12.00240114 16.55182235 14.94001043 20.11534669 17.8671875 23.86328125 C23.58961232 32.27922838 25.85455542 39.8068117 27.0625 49.875 C27.3295149 52.0826639 27.61147511 54.28858445 27.91015625 56.4921875 C28.02496338 57.45495605 28.13977051 58.41772461 28.25805664 59.40966797 C29.17319353 62.6046671 30.44618888 63.91577765 33 66 C36.07292976 67.29918099 36.07292976 67.29918099 39.4375 68.1875 C40.54996094 68.51105469 41.66242188 68.83460938 42.80859375 69.16796875 C48.09793612 70.54695275 53.17022751 71.24772685 58.625 71.5625 C59.33575684 71.6042334 60.04651367 71.6459668 60.77880859 71.68896484 C71.6916444 72.29372503 83.51581612 72.94440865 94.22216797 70.49072266 C97.69241786 69.87767974 101.09755641 69.83769779 104.609375 69.83203125 C105.33562073 69.82870285 106.06186646 69.82537445 106.81011963 69.82194519 C108.34313325 69.81689846 109.87615777 69.81453617 111.40917969 69.81469727 C113.7287049 69.81251999 116.04774685 69.79436607 118.3671875 69.77539062 C125.8260732 69.74664984 132.7795619 69.91243292 140 72 C141.01191406 72.28101563 142.02382812 72.56203125 143.06640625 72.8515625 C143.89011719 73.10679687 144.71382812 73.36203125 145.5625 73.625 C146.40941406 73.88539063 147.25632813 74.14578125 148.12890625 74.4140625 C149.05509766 74.70410156 149.05509766 74.70410156 150 75 C150.1546875 73.39125 150.1546875 73.39125 150.3125 71.75 C151.30784983 66.32081911 151.30784983 66.32081911 154 64 C157.50817286 63.40286419 159.28935606 63.58857456 162.375 65.375 C164.86963042 69.4047876 164.31735888 73.38066514 164 78 C164.639375 78.28875 165.27875 78.5775 165.9375 78.875 C168 80 168 80 169 82 C169.45751634 90.23529412 169.45751634 90.23529412 167 93 C159.02617433 95.79783357 152.20511187 95.88528163 144.25 93.0625 C135.10431311 89.97760204 125.57133931 90.15746353 116 90 C116.6180287 91.79408332 117.24466081 93.58520478 117.875 95.375 C118.39707031 96.87160156 118.39707031 96.87160156 118.9296875 98.3984375 C119.84782502 101.10442118 119.84782502 101.10442118 122 103 C124.00538329 103.22282037 126.01299827 103.44187467 128.02734375 103.55859375 C130.59558807 104.1332702 131.46158209 104.87131298 133 107 C133.95905909 110.8054973 133.92268566 114.19003391 133 118 C129.26120689 122.73730613 124.75848943 126.63567121 118.6875 127.4375 C115 127 115 127 112.0625 124.4375 C109.59152923 121.00740242 109.44581126 118.19600048 110 114 C110.99 112.515 110.99 112.515 112 111 C109.69 108.03 107.38 105.06 105 102 C98.25425226 107.29818857 98.25425226 107.29818857 93 114 C93 115.19625 93 116.3925 93 117.625 C93 121 93 121 90.4375 123.9375 C86.88555703 126.43793537 84.34311316 126.65146697 80 126 C75.8715602 124.60936764 71.89584278 122.94792139 68 121 C67.625 117.8125 67.625 117.8125 68 114 C71.99698999 109.5155722 74.89515195 108.36629088 81 108 C81.33 107.01 81.66 106.02 82 105 C82.66 105 83.32 105 84 105 C84.20625 104.34 84.4125 103.68 84.625 103 C86.51386473 98.8788406 89.2202531 95.55557304 92 92 C91.3884758 92.07064667 90.7769516 92.14129333 90.14689636 92.21408081 C84.23797301 92.85677668 78.42929619 93.14728284 72.48828125 93.1328125 C71.16987244 93.13485939 71.16987244 93.13485939 69.8248291 93.13694763 C66.98734671 93.13895908 64.14997161 93.13267958 61.3125 93.125 C60.34001312 93.12378143 59.36752625 93.12256287 58.36557007 93.12130737 C35.55498384 93.08783777 12.76123257 92.58956602 -10 91 C-8.40326813 99.31642467 -8.40326813 99.31642467 -5 107 C-1.82720374 108.99831242 0.68621528 109.72040207 4.35546875 110.39453125 C7 111 7 111 9 114 C9 116.375 9 116.375 8 119 C6.00877115 120.99122885 4.29550538 122.43597642 2 124 C1.31292969 124.47050781 0.62585938 124.94101562 -0.08203125 125.42578125 C-5.42224432 128.74587869 -9.73814658 129.8801802 -16 129 C-19 128 -19 128 -21 125 C-21.07905064 122.66800612 -21.08798769 120.33167378 -21 118 C-19.02 117.01 -19.02 117.01 -17 116 C-17.6496875 115.01257813 -18.299375 114.02515625 -18.96875 113.0078125 C-19.81273833 111.71369707 -20.65647535 110.41941771 -21.5 109.125 C-21.92925781 108.47402344 -22.35851563 107.82304687 -22.80078125 107.15234375 C-26 102.2265625 -26 102.2265625 -26 100 C-29.66792429 103.45216403 -32.58034829 107.07645874 -35.5078125 111.171875 C-37 113 -37 113 -39.875 114.8125 C-42.60320283 117.62094409 -42.30760994 118.91129924 -42.3125 122.75 C-42.23227209 124.50126074 -42.13560864 126.25215533 -42 128 C-47.01174745 131.08415227 -51.24954747 131.9200724 -57 131 C-60.85948845 129.48297564 -64.40364021 127.26488357 -67 124 C-67.36926463 120.86702036 -66.87308671 118.02011126 -66 115 C-63.80671813 112.38221196 -61.98271073 111.26770969 -58.69140625 110.37109375 C-54.11031778 109.03930091 -51.24309985 107.81832566 -48.796875 103.6328125 C-46.99909688 100.16901668 -45.4605064 96.61741321 -44 93 C-44.79921875 92.96261719 -45.5984375 92.92523438 -46.421875 92.88671875 C-65.83393265 91.72472938 -65.83393265 91.72472938 -72.75 86.6875 C-75 84 -75 84 -75.375 80.6875 C-75.25125 79.800625 -75.1275 78.91375 -75 78 C-73.5 79.375 -73.5 79.375 -72 81 C-72 81.66 -72 82.32 -72 83 C-71.278125 83.28875 -70.55625 83.5775 -69.8125 83.875 C-68.08814793 84.56474083 -66.37136936 85.27431395 -64.66918945 86.01708984 C-61.89151084 87.03995037 -59.41438931 87.49096891 -56.48046875 87.8515625 C-55.45888672 87.98046875 -54.43730469 88.109375 -53.38476562 88.2421875 C-52.32966797 88.36851562 -51.27457031 88.49484375 -50.1875 88.625 C-49.11306641 88.7590625 -48.03863281 88.893125 -46.93164062 89.03125 C-44.28844239 89.36018134 -41.64463748 89.68288499 -39 90 C-39.56078862 92.76880418 -39.8042281 93.80989092 -41.890625 95.8359375 C-44.51652031 98.52991157 -45.40724014 101.12592578 -46.75 104.625 C-49.40329785 110.64361993 -49.40329785 110.64361993 -51.98828125 112.1875 C-54.0625 112.625 -54.0625 112.625 -58 113 C-61.03824575 113.92020732 -61.03824575 113.92020732 -63 116 C-63.71913365 118.81758922 -63.70481792 121.18072831 -63 124 C-60.66160743 126.49428541 -58.87026214 126.9166625 -55.51171875 127.23828125 C-52.95084612 127.30869598 -50.53949789 127.34609086 -48 127 C-47.01 126.01 -47.01 126.01 -46 125 C-46.02404633 122.7227477 -46.02404633 122.7227477 -46.3125 120.1875 C-46.41403833 115.44904449 -46.41403833 115.44904449 -44.66015625 113.546875 C-43.43433819 112.78509748 -42.19213485 112.04925812 -40.9375 111.3359375 C-37.89329673 109.23691024 -36.34983886 106.32581623 -34.421875 103.2265625 C-32.51812414 100.24541418 -30.32183471 97.66328099 -28 95 C-24.39443287 96.20185571 -24.27558351 96.8570662 -22.625 100.125 C-18.45917475 108.02341821 -18.45917475 108.02341821 -12 114 C-12.25 115.875 -12.25 115.875 -13 118 C-15.0625 119.25 -15.0625 119.25 -17 120 C-17 121.32 -17 122.64 -17 124 C-13.61505331 125.69247334 -10.61504081 125.82133727 -7 125 C-2.99479218 122.73687337 0.67976836 120.19206094 4 117 C4 116.01 4 115.02 4 114 C1.70370006 112.85185003 -0.07698086 112.69230191 -2.625 112.4375 C-3.85089844 112.31181641 -3.85089844 112.31181641 -5.1015625 112.18359375 C-5.72804688 112.12300781 -6.35453125 112.06242187 -7 112 C-7.40992187 110.81921875 -7.81984375 109.6384375 -8.2421875 108.421875 C-8.78631853 106.86453448 -9.3305971 105.3072455 -9.875 103.75 C-10.14441406 102.97269531 -10.41382812 102.19539063 -10.69140625 101.39453125 C-10.95566406 100.64042969 -11.21992187 99.88632813 -11.4921875 99.109375 C-11.73308105 98.41811523 -11.97397461 97.72685547 -12.22216797 97.01464844 C-12.97226626 94.95423069 -12.97226626 94.95423069 -14.09423828 92.93066406 C-15 91 -15 91 -15 88 C-2.34154682 87.87931559 10.28650275 88.06322289 22.9375 88.5 C40.81310997 89.10593064 58.58917616 89.27301076 76.45800781 88.3581543 C82.9817933 88.02524689 89.46667047 87.87594944 96 88 C95.39874814 90.94452 94.51613203 93.02230229 92.8203125 95.49609375 C92.38589844 96.13740234 91.95148438 96.77871094 91.50390625 97.43945312 C91.04886719 98.09880859 90.59382812 98.75816406 90.125 99.4375 C89.2307258 100.7479854 88.33747391 102.05916908 87.4453125 103.37109375 C87.01887451 103.99056885 86.59243652 104.61004395 86.15307617 105.24829102 C84.86036731 107.15425203 84.86036731 107.15425203 83.43359375 109.9296875 C82 112 82 112 80.02734375 112.63671875 C79.33769531 112.65347656 78.64804688 112.67023438 77.9375 112.6875 C73.99557113 112.5717978 73.99557113 112.5717978 72 115 C72 116.32 72 117.64 72 119 C77.79622721 121.32637691 81.86090397 122.43680971 88 121 C87.835 120.4225 87.67 119.845 87.5 119.25 C87 117 87 117 87 113 C88.37084808 112.14321995 89.74556655 111.29215273 91.13671875 110.46875 C95.86778602 106.73943911 100.10085352 100.69743944 102 95 C102.99 95 103.98 95 105 95 C106.61328125 96.9765625 106.61328125 96.9765625 108.3125 99.625 C110.48767359 102.89238842 112.59367651 105.79095487 115.4375 108.5 C116.283125 109.325 117.12875 110.15 118 111 C118 111.66 118 112.32 118 113 C116 114.625 116 114.625 114 116 C114.33 117.98 114.66 119.96 115 122 C118.29389244 122.94111212 120.8013783 123.57458486 123.98828125 122.046875 C126.88883754 119.86094852 128.68309053 118.15512566 129.66015625 114.59375 C130.00798825 111.85571842 130.00798825 111.85571842 130 108 C126.37 108 122.74 108 119 108 C117.86988348 105.7941576 116.74584212 103.58554973 115.625 101.375 C115.30789062 100.75753906 114.99078125 100.14007813 114.6640625 99.50390625 C112.76407197 95.74350833 111.23211496 92.04482184 110 88 C112.8765075 85.1234925 121.69579346 86.69042994 125.57495117 86.66992188 C132.82017868 86.73431913 138.46088521 87.54471698 145.23828125 90.10546875 C151.4104822 92.10466821 157.7617703 91.3701826 164 90 C164.66 87.36 165.32 84.72 166 82 C164.35 81.34 162.7 80.68 161 80 C160.67 76.04 160.34 72.08 160 68 C157.525 68.495 157.525 68.495 155 69 C153.75702373 70.82861881 153.75702373 70.82861881 153.1875 73.0625 C152.95417969 73.79597656 152.72085938 74.52945313 152.48046875 75.28515625 C152.32191406 75.85105469 152.16335937 76.41695313 152 77 C152.66 77.33 153.32 77.66 154 78 C150.43790164 79.18736612 149.11768682 78.70533503 145.5625 77.6875 C144.61503906 77.42324219 143.66757813 77.15898437 142.69140625 76.88671875 C140 76 140 76 138.25195312 74.96118164 C135.18508228 73.65217573 132.60738837 73.74064163 129.27734375 73.734375 C128.62381927 73.73173645 127.9702948 73.7290979 127.29696655 73.72637939 C125.17694988 73.72255395 123.05746282 73.73520616 120.9375 73.75 C120.21613861 73.75177246 119.49477722 73.75354492 118.7515564 73.75537109 C109.54270979 73.7820118 100.40830316 73.99663898 91.27514648 75.28808594 C79.73649185 76.89182624 68.27204715 75.8199823 56.75 74.5625 C55.42062495 74.42592482 54.09119791 74.28985481 52.76171875 74.15429688 C43.13375235 73.13375235 43.13375235 73.13375235 42 72 C40.989375 71.896875 39.97875 71.79375 38.9375 71.6875 C34.50862928 70.91420511 30.66576565 69.65451995 27 67 C24.82710491 63.80746158 24.74920982 60.98545408 24.625 57.1875 C24.22221148 50.47689134 22.71394315 44.53314346 20.83984375 38.1171875 C20 35 20 35 20 32 C19.34 32 18.68 32 18 32 C18 31.01 18 30.02 18 29 C17.34 29 16.68 29 16 29 C15.4121875 27.63875 15.4121875 27.63875 14.8125 26.25 C12.9212628 22.85881606 11.1445327 21.20967163 8 19 C7.67 19.66 7.34 20.32 7 21 C6.01 21 5.02 21 4 21 C4.165 20.360625 4.33 19.72125 4.5 19.0625 C5.15932515 15.02413348 5.08003779 11.08192742 5 7 C0.01650719 4.00990431 -3.32356134 3.25554903 -9 4 C-12.18926611 7.48825981 -12 9.13135166 -12 14 C-20.58 14.33 -29.16 14.66 -38 15 C-38.495 14.01 -38.495 14.01 -39 13 C-30.92046224 11.18655665 -23.26747851 10.76341079 -15 11 C-14.9175 9.741875 -14.835 8.48375 -14.75 7.1875 C-14.56203306 4.32100424 -14.32388843 3.32243601 -12.2578125 1.265625 C-8.31670198 -0.94357882 -4.38452496 -0.62339217 0 0 Z " fill="#131313" transform="translate(75,156)"/>
<path d="M0 0 C2.8125 -0.1875 2.8125 -0.1875 6 0 C7 1 8 2 9 3 C15.47083003 5.07525149 21.41141432 5.24994212 28.16796875 5.16015625 C29.2571611 5.15463745 30.34635345 5.14911865 31.46855164 5.14343262 C33.8178252 5.13109227 36.16707948 5.11448167 38.51629639 5.09402466 C44.77770738 5.04025787 51.03917966 5.01861565 57.30078125 5 C59.23244141 4.9937838 59.23244141 4.9937838 61.203125 4.98744202 C77.41229646 4.95866797 93.61370822 5.33435472 109.81713867 5.73266602 C110.89429642 5.75735962 111.97145416 5.78205322 113.08125305 5.80749512 C115.09527242 5.85391321 117.10919602 5.90477372 119.12297058 5.96081543 C120.44631157 5.99096741 120.44631157 5.99096741 121.79638672 6.02172852 C122.56457733 6.04171402 123.33276794 6.06169952 124.12423706 6.08229065 C126.0924287 6.12361173 126.0924287 6.12361173 128 5 C131.03566911 4.76089183 134.08095166 4.81479913 137.125 4.8125 C138.37023437 4.79413086 138.37023437 4.79413086 139.640625 4.77539062 C146.3283327 4.75966717 153.1906553 5.34226445 159 9 C159.42667969 9.46148437 159.85335937 9.92296875 160.29296875 10.3984375 C162.9975484 12.93591497 166.33120593 14.35011728 169.625 16.01171875 C174.01917804 19.69039741 174.99427916 24.83672162 175.6171875 30.3671875 C175.72209306 31.86858663 175.80765993 33.37144759 175.875 34.875 C175.91254395 35.66366455 175.95008789 36.4523291 175.98876953 37.26489258 C176.27663329 46.52514559 174.29214193 54.04285919 168 61 C162.69554711 66.38085279 158.19286413 67.70523678 150.71362305 67.88330078 C149.57062744 67.88056152 148.42763184 67.87782227 147.25 67.875 C146.0535083 67.8941748 144.8570166 67.91334961 143.62426758 67.93310547 C140.0824586 67.98283335 136.54211111 67.99384427 133 68 C131.18616451 68.02360067 129.37235524 68.04939485 127.55859375 68.078125 C114.02532285 68.24209193 100.1544274 68.25064747 86.72265625 66.47265625 C78.59603524 65.44083973 70.49840803 65.91088485 62.375 66.78125 C56.14473547 67.35509015 49.86288457 66.66520367 43.63769531 66.25537109 C41.63908688 66.12591247 39.63984991 66.00628024 37.640625 65.88671875 C36.36960937 65.80292969 35.09859375 65.71914063 33.7890625 65.6328125 C32.63100098 65.55949707 31.47293945 65.48618164 30.27978516 65.41064453 C26.94747647 64.99342381 24.14301003 64.16096136 21 63 C19.865625 62.62875 18.73125 62.2575 17.5625 61.875 C10.70420537 58.84035636 6.45523899 52.07424207 3.69140625 45.35546875 C2.95117812 42.83367463 2.71897532 40.55745849 2.5625 37.9375 C2.27383191 33.27551038 0.83709453 30.65071581 -1.7890625 26.86328125 C-4.96470506 21.97688932 -6.0453083 15.71367548 -5 10 C-3.57222581 6.52259876 -1.86966857 3.25856521 0 0 Z M2 3 C-1.20056327 7.39571031 -3.17210159 11.0337393 -2.6875 16.5703125 C-0.75050496 24.17301803 1.40130732 28.68547017 8 33 C8.309375 32.05125 8.61875 31.1025 8.9375 30.125 C10 27 10 27 11 25 C10.67 24.34 10.34 23.68 10 23 C12.31 23.33 14.62 23.66 17 24 C17 24.66 17 25.32 17 26 C16.401875 26.185625 15.80375 26.37125 15.1875 26.5625 C11.99950687 28.65746692 11.45644444 31.54094446 10 35 C7.8125 36.9375 7.8125 36.9375 6 38 C6.43386428 44.79720708 8.71901136 50.62717707 13.53515625 55.578125 C25.47522139 64.94952365 42.73368679 63.15052382 57 63 C56.98710937 61.8965625 56.97421875 60.793125 56.9609375 59.65625 C57 56 57 56 57.625 53.5 C58.20619921 50.81449175 58.20619921 50.81449175 57 47.5625 C55.9369034 43.77521835 56.32627014 41.78973046 57 38 C56.17657468 35.68019054 56.17657468 35.68019054 55 34 C57.92512762 36.43505389 57.92512762 36.43505389 58.2578125 38.9453125 C58.21398437 39.66460937 58.17015625 40.38390625 58.125 41.125 C57.96429211 45.84675096 58.3919686 50.32341282 59 55 C59.17893286 56.42571265 59.3572786 57.85149906 59.53515625 59.27734375 C59.68855469 60.50582031 59.84195313 61.73429687 60 63 C61.31613281 62.90460938 62.63226563 62.80921875 63.98828125 62.7109375 C80.13303317 61.64939006 80.13303317 61.64939006 87.84765625 63.453125 C102.6439952 66.02002395 120.17962869 66.37125941 135 64 C137.44251927 57.47348346 138.25867587 53.77602761 136 47 C136.9375 44.1875 136.9375 44.1875 138 42 C137.67 41.34 137.34 40.68 137 40 C136.01 40 135.02 40 134 40 C134 39.01 134 38.02 134 37 C135.9375 37.625 135.9375 37.625 138 39 C139.0723094 42.79432556 138.93231135 45.27075458 138 49 C138.165 49.886875 138.33 50.77375 138.5 51.6875 C139.14190299 55.94010731 138.61116813 59.76883603 138 64 C142.67661056 64.08468711 147.17531996 64.1216741 151.8125 63.4375 C155 63 155 63 157.5 63.8125 C160.60164164 64.04512312 161.18668047 63.41175287 163.5625 61.5 C166.91032743 58.34098713 169.11705826 55.18047615 171 51 C171.32226562 50.35546875 171.64453125 49.7109375 171.9765625 49.046875 C175.54148085 40.6770667 173.41424912 31.35760137 170.5625 23 C167.88947491 17.47850029 162.37709586 15.36406801 157 13 C155.91599105 18.7175801 155.91599105 18.7175801 157.25 24.25 C158.42159507 30.10797537 155.88541581 34.90217422 153 40 C152.01 40.66 151.02 41.32 150 42 C150.52851562 41.04738281 151.05703125 40.09476562 151.6015625 39.11328125 C152.27698801 37.84685843 152.95141527 36.57990285 153.625 35.3125 C153.975625 34.68666016 154.32625 34.06082031 154.6875 33.41601562 C156.32195389 30.29420869 157.16831634 28.6373228 156.25 25.16015625 C155.63125 24.09087891 155.63125 24.09087891 155 23 C154.07556986 20.22670957 154.0267192 18.50124151 154.1875 15.5 C154.2816013 12.06955642 154.2816013 12.06955642 152.65625 9.80078125 C148.45579586 6.95312043 144.2592073 7.53860246 139.3125 7.6875 C138.33732422 7.69716797 137.36214844 7.70683594 136.35742188 7.71679688 C131.83867632 7.38617701 131.83867632 7.38617701 128 9 C125.98035801 9.07244053 123.95832876 9.08377188 121.9375 9.0625 C120.83277344 9.05347656 119.72804688 9.04445312 118.58984375 9.03515625 C117.73519531 9.02355469 116.88054687 9.01195312 116 9 C116.01160156 9.61746094 116.02320313 10.23492187 116.03515625 10.87109375 C116.08894661 15.91970297 115.92444046 20.82368002 115.27734375 25.83203125 C115.0915947 27.28401325 114.9381839 28.74047797 114.81640625 30.19921875 C114.44335142 34.31804865 113.90156943 36.97227538 111 40 C111 37.59411466 111.70979414 35.99839035 112.5625 33.75 C113.96505902 29.6916695 113.84584573 27.22922865 113 23 C113.350625 22.01 113.70125 21.02 114.0625 20 C115.41997215 15.65608912 113.96348052 12.92696104 112 9 C104.74 9 97.48 9 90 9 C88.53691078 15.88512576 87.86947155 21.09121505 89 28 C88.67 28.66 88.34 29.32 88 30 C87.34 29.67 86.68 29.34 86 29 C86.495 28.505 86.495 28.505 87 28 C87.13961241 24.92852697 87.04131994 22.20659968 86.4375 19.1875 C86.293125 18.465625 86.14875 17.74375 86 17 C86.33 16.67 86.66 16.34 87 16 C87.04063832 14.33382885 87.042721 12.66611905 87 11 C86.34 11 85.68 11 85 11 C84.505 9.515 84.505 9.515 84 8 C78.21590487 7.97529951 72.43184038 7.95713977 66.64770508 7.94506836 C64.67960068 7.9400365 62.71150003 7.93321042 60.7434082 7.92456055 C57.91616899 7.91244483 55.08897916 7.90676024 52.26171875 7.90234375 C50.93970711 7.89460182 50.93970711 7.89460182 49.59098816 7.88670349 C48.3600518 7.88659019 48.3600518 7.88659019 47.10424805 7.88647461 C46.38254929 7.884254 45.66085052 7.88203339 44.9172821 7.87974548 C42.77773199 7.93174401 42.77773199 7.93174401 40 9 C39.19078631 11.69737896 38.54117383 14.25209793 38 17 C37.7215625 18.2065625 37.7215625 18.2065625 37.4375 19.4375 C36.97731213 21.91344677 36.97731213 21.91344677 36.82421875 24.09375 C36.40332248 29.04547086 35.57856056 32.62765819 33 37 C32.01 37 31.02 37 30 37 C30.639375 36.29875 31.27875 35.5975 31.9375 34.875 C34.20191565 31.71854182 34.59487586 29.80816696 35 26 C35.20625 25.319375 35.4125 24.63875 35.625 23.9375 C36.15393796 21.88232882 36.15393796 21.88232882 35.4375 19.375 C35.293125 18.59125 35.14875 17.8075 35 17 C35.66 16.34 36.32 15.68 37 15 C36.67801034 11.90073181 36.67801034 11.90073181 36 9 C34.51113281 8.94392578 34.51113281 8.94392578 32.9921875 8.88671875 C10.69180146 7.87331587 10.69180146 7.87331587 2 3 Z " fill="#101010" transform="translate(429,216)"/>
<path d="M0 0 C0.33 0.99 0.66 1.98 1 3 C1.66 3 2.32 3 3 3 C3.21914063 3.95261719 3.43828125 4.90523437 3.6640625 5.88671875 C5.38891549 13.98459627 5.38891549 13.98459627 10.25 20.375 C11.1575 20.91125 12.065 21.4475 13 22 C13.144375 21.2575 13.28875 20.515 13.4375 19.75 C13.90187492 17.47972261 14.41863569 15.24240521 15 13 C17.31 13.33 19.62 13.66 22 14 C22 14.66 22 15.32 22 16 C21.38125 16.4125 20.7625 16.825 20.125 17.25 C17.36840385 19.52013801 17.04983163 21.64053879 16 25 C14.5 26.875 14.5 26.875 13 28 C12.34 28 11.68 28 11 28 C10.01 30.475 10.01 30.475 9 33 C8.67 33 8.34 33 8 33 C7.98582031 32.3709375 7.97164063 31.741875 7.95703125 31.09375 C7.63073728 25.23809599 6.53814961 21.66177502 3.2109375 16.86328125 C-0.21664757 11.58922294 -0.21195647 6.04075942 0 0 Z " fill="#131313" transform="translate(424,226)"/>
<path d="M0 0 C5.77481791 -0.48123483 10.26953246 0.47661728 15 4 C16.93551992 7.11661994 17.20289203 9.34794339 17 13 C16.34 13 15.68 13 15 13 C14.62875 11.906875 14.2575 10.81375 13.875 9.6875 C12.57260133 6.64652197 12.05031813 6.03281617 9.125 4.125 C6.39495733 3.14218464 3.86592693 2.42145984 1 2 C-0.37004923 8.85024615 -0.37004923 15.14975385 1 22 C0.443125 22.13535156 -0.11375 22.27070313 -0.6875 22.41015625 C-7.17270986 24.2395989 -11.25391536 27.27977959 -16 32 C-16.33 30.68 -16.66 29.36 -17 28 C-8.92255125 20.33257403 -8.92255125 20.33257403 -3 19 C-3.03480469 18.21496094 -3.06960938 17.42992187 -3.10546875 16.62109375 C-3.27019021 10.22833246 -3.07880961 5.64448429 0 0 Z " fill="#141414" transform="translate(17,156)"/>
<path d="M0 0 C1.75570313 0.04060547 1.75570313 0.04060547 3.546875 0.08203125 C4.43890625 0.11683594 5.3309375 0.15164062 6.25 0.1875 C5.92 0.8475 5.59 1.5075 5.25 2.1875 C3.13363372 2.50233135 1.00551785 2.73996854 -1.125 2.9375 C-6.2909342 3.51444552 -6.2909342 3.51444552 -10.0625 6.8125 C-10.91800707 11.012262 -11.29488692 13.89651549 -10.75 18.1875 C-8.00230393 21.81256747 -6.49662571 23.04745932 -1.98046875 23.89453125 C-0.63365134 23.95365982 0.71443526 23.98838987 2.0625 24 C2.75537109 24.02513672 3.44824219 24.05027344 4.16210938 24.07617188 C5.85747122 24.13463263 7.55379287 24.16403047 9.25 24.1875 C8.92 25.1775 8.59 26.1675 8.25 27.1875 C5.87246262 27.12700287 3.50080939 27.03982887 1.125 26.9375 C0.12726562 26.91623047 0.12726562 26.91623047 -0.890625 26.89453125 C-5.90518843 26.64871932 -8.90684914 25.38817883 -12.75 22.1875 C-14.57486599 16.71290202 -14.46726665 11.1599833 -12.5 5.75 C-8.96117462 0.56814855 -6.21796425 -0.18653893 0 0 Z " fill="#111111" transform="translate(27.75,192.8125)"/>
<path d="M0 0 C0 0.33 0 0.66 0 1 C-1.093125 1.061875 -2.18625 1.12375 -3.3125 1.1875 C-7.07263213 1.62960266 -7.07263213 1.62960266 -8.9375 4.25 C-10.30033273 7.28597859 -10.30033273 7.28597859 -10 12 C-18.58 12.33 -27.16 12.66 -36 13 C-36.33 12.34 -36.66 11.68 -37 11 C-28.92046224 9.18655665 -21.26747851 8.76341079 -13 9 C-12.9175 7.741875 -12.835 6.48375 -12.75 5.1875 C-12.37776456 2.39325262 -12.13753451 1.18704693 -10.4375 -1.125 C-6.58315382 -2.50861145 -3.8537583 -1.2203568 0 0 Z " fill="#1D1D1D" transform="translate(73,158)"/>
<path d="M0 0 C0.33 0 0.66 0 1 0 C1.50588674 8.09418785 -0.88682972 14.6430856 -6 21 C-9.37910814 24.64092766 -12.09547378 26.90897485 -17.1875 27.15234375 C-20.16546891 26.90300909 -23.06154998 26.53871584 -26 26 C-25 24 -25 24 -22.25 22.8125 C-19 22 -19 22 -16.5 22.6875 C-13.74666541 23.30521575 -13.74666541 23.30521575 -10.9375 21 C-5.5370475 15.94573035 -3.49663324 10.00430842 -1.61328125 3.0390625 C-1 1 -1 1 0 0 Z " fill="#060606" transform="translate(603,256)"/>
<path d="M0 0 C0.33 0.99 0.66 1.98 1 3 C-0.328125 5.3046875 -0.328125 5.3046875 -2.25 7.875 C-4.17381301 10.47453246 -5.95911818 12.92370873 -7.48828125 15.77734375 C-7.98714844 16.51082031 -8.48601562 17.24429687 -9 18 C-12.9375 18.6875 -12.9375 18.6875 -15.0625 18.84375 C-17.54947037 19.04431213 -19.0710872 19.37971325 -21 21 C-21.81584568 24.05908413 -21.81584568 24.05908413 -22 27 C-22.33 27 -22.66 27 -23 27 C-23.375 23.8125 -23.375 23.8125 -23 20 C-19.00301001 15.5155722 -16.10484805 14.36629088 -10 14 C-9.67 13.01 -9.34 12.02 -9 11 C-8.34 11 -7.68 11 -7 11 C-6.773125 10.29875 -6.54625 9.5975 -6.3125 8.875 C-4.68343133 5.30656387 -2.59359269 2.93485489 0 0 Z " fill="#1E1E1E" transform="translate(166,250)"/>
<path d="M0 0 C0.66 0.66 1.32 1.32 2 2 C1.67 2.680625 1.34 3.36125 1 4.0625 C-0.18453566 6.99578446 -0.18453566 6.99578446 0.0625 10.25 C-0.02360065 15.41603921 -1.03554646 20.83957907 -4.60546875 24.765625 C-5.06566406 25.17296875 -5.52585937 25.5803125 -6 26 C-6.99 25.67 -7.98 25.34 -9 25 C-8.360625 24.13375 -7.72125 23.2675 -7.0625 22.375 C-4.99019986 18.98396341 -4.42247465 16.88676677 -4 13 C-3.79375 12.319375 -3.5875 11.63875 -3.375 10.9375 C-2.83067246 8.89287506 -2.83067246 8.89287506 -3.6875 6.5 C-3.790625 5.675 -3.89375 4.85 -4 4 C-2.0625 1.6875 -2.0625 1.6875 0 0 Z " fill="#000000" transform="translate(467,229)"/>
<path d="M0 0 C2.60427663 2.60427663 2.50528695 4.39566205 3 8 C3.32871094 9.1446875 3.32871094 9.1446875 3.6640625 10.3125 C4.10572171 13.84577369 3.19396203 15.92627731 1.8125 19.1875 C1.38582031 20.23292969 0.95914063 21.27835938 0.51953125 22.35546875 C-1.09002716 25.15667966 -2.00308155 25.95396637 -5 27 C-4.00734643 24.46170776 -2.98445893 21.96695587 -1.82421875 19.5 C-0.69196301 17.00981554 0.30720879 14.64839171 1 12 C-0.20968895 9.2332494 -0.20968895 9.2332494 -2 7 C-1.58333333 1.58333333 -1.58333333 1.58333333 0 0 Z " fill="#000000" transform="translate(584,231)"/>
<path d="M0 0 C2 2 2 2 2.01171875 4.3203125 C1.90472656 5.24585938 1.79773438 6.17140625 1.6875 7.125 C1.51927734 8.60226563 1.51927734 8.60226563 1.34765625 10.109375 C1.23292969 11.06328125 1.11820313 12.0171875 1 13 C0.93683594 13.76828125 0.87367188 14.5365625 0.80859375 15.328125 C0.42512106 19.6034375 -0.49052942 22.50856266 -3 26 C-3.99 25.34 -4.98 24.68 -6 24 C-5.34 23.34 -4.68 22.68 -4 22 C-3.27982196 19.71171706 -3.27982196 19.71171706 -2.8125 17.125 C-2.63332031 16.26132813 -2.45414063 15.39765625 -2.26953125 14.5078125 C-1.85548873 12.05460461 -1.85548873 12.05460461 -2.5390625 9.9453125 C-3.13919757 7.41253908 -2.55294951 6.12707883 -1.5625 3.75 C-1.27503906 3.04359375 -0.98757813 2.3371875 -0.69140625 1.609375 C-0.34916016 0.81273437 -0.34916016 0.81273437 0 0 Z " fill="#000000" transform="translate(544,231)"/>
<path d="M0 0 C1.75570313 0.04060547 1.75570313 0.04060547 3.546875 0.08203125 C4.43890625 0.11683594 5.3309375 0.15164062 6.25 0.1875 C5.92 0.8475 5.59 1.5075 5.25 2.1875 C3.15328312 2.47700484 1.04638794 2.69437222 -1.0625 2.875 C-5.63739421 3.39175129 -5.63739421 3.39175129 -9.46484375 5.66015625 C-11.54241766 9.22731146 -12.35285225 13.11673558 -12.75 17.1875 C-13.08 17.1875 -13.41 17.1875 -13.75 17.1875 C-14.03971178 11.58640552 -13.90976306 8.03999327 -10.75 3.1875 C-7.33668077 -0.16260961 -4.67300308 -0.14019009 0 0 Z " fill="#1C1C1C" transform="translate(27.75,192.8125)"/>
<path d="M0 0 C1.875 0.1875 1.875 0.1875 4 1 C6.38879811 4.98133018 5.79447983 7.58622317 5 12 C5.2644354 14.34214207 5.58244638 16.68025766 6 19 C5.01 18.67 4.02 18.34 3 18 C0.62790698 11.22259136 0.62790698 11.22259136 1.875 7.125 C2.24625 6.42375 2.6175 5.7225 3 5 C3 4.34 3 3.68 3 3 C2.01 3 1.02 3 0 3 C0 2.01 0 1.02 0 0 Z " fill="#000000" transform="translate(563,253)"/>
<path d="M0 0 C0.99 0.33 1.98 0.66 3 1 C4.00344253 7.30735307 4.50873071 13.63440427 5 20 C4.01 19.67 3.02 19.34 2 19 C-0.08254633 13.95301272 -0.10550722 9.28186783 1 4 C0.6422386 1.72349255 0.6422386 1.72349255 0 0 Z " fill="#000000" transform="translate(484,250)"/>
<path d="M0 0 C0.66 0.33 1.32 0.66 2 1 C1.814375 1.66 1.62875 2.32 1.4375 3 C1.03842212 5.73653403 1.13760553 7.4471767 1.5625 10.125 C2 14 2 14 0 17 C-0.99 16.67 -1.98 16.34 -3 16 C-2.67 15.34 -2.34 14.68 -2 14 C-1.86270799 10.91092972 -1.91919487 8.31587458 -2.6875 5.3125 C-2.790625 4.549375 -2.89375 3.78625 -3 3 C-1.5625 1.1875 -1.5625 1.1875 0 0 Z " fill="#000000" transform="translate(517,230)"/>
<path d="M0 0 C0 0.66 0 1.32 0 2 C-0.67546875 2.23074219 -1.3509375 2.46148437 -2.046875 2.69921875 C-7.32395501 4.6285558 -10.94749592 6.00499332 -14 11 C-14.3125 8.75 -14.3125 8.75 -14 6 C-9.80316336 1.80316336 -5.89969168 0 0 0 Z " fill="#080808" transform="translate(23,265)"/>
<path d="M0 0 C3.37462715 0.54723683 5.08235 1.0549 8 3 C9.99767079 6.04907647 10.20016822 8.39697197 10 12 C9.34 12 8.68 12 8 12 C7.62875 10.906875 7.2575 9.81375 6.875 8.6875 C5.5201201 5.45411511 5.02341962 5.01423545 1.8125 3.0625 C0.884375 2.711875 -0.04375 2.36125 -1 2 C-0.67 1.34 -0.34 0.68 0 0 Z " fill="#262626" transform="translate(24,157)"/>
<path d="M0 0 C2.31 0 4.62 0 7 0 C7 0.66 7 1.32 7 2 C5.02 2 3.04 2 1 2 C0.87625 2.639375 0.7525 3.27875 0.625 3.9375 C0.41875 4.618125 0.2125 5.29875 0 6 C-0.99 6.495 -0.99 6.495 -2 7 C-1.125 2.25 -1.125 2.25 0 0 Z " fill="#080808" transform="translate(17,156)"/>
<path d="M0 0 C0.99 0.33 1.98 0.66 3 1 C1.68 3.64 0.36 6.28 -1 9 C-1.66 9 -2.32 9 -3 9 C-3 8.34 -3 7.68 -3 7 C-3.66 6.67 -4.32 6.34 -5 6 C-4.01 5.67 -3.02 5.34 -2 5 C-0.78130071 2.49552484 -0.78130071 2.49552484 0 0 Z " fill="#242424" transform="translate(26,258)"/>
<path d="M0 0 C0.33 0 0.66 0 1 0 C1.33 5.94 1.66 11.88 2 18 C-0.49059397 13.01881207 -1.2136995 10.24901803 -0.5625 4.75 C-0.46066406 3.85796875 -0.35882812 2.9659375 -0.25390625 2.046875 C-0.17011719 1.37140625 -0.08632813 0.6959375 0 0 Z " fill="#242424" transform="translate(603,242)"/>
<path d="M0 0 C0.66 0.33 1.32 0.66 2 1 C1.34 2.32 0.68 3.64 0 5 C-0.66 5 -1.32 5 -2 5 C-2.33 6.98 -2.66 8.96 -3 11 C-3.33 11 -3.66 11 -4 11 C-4.49230769 4.6 -4.49230769 4.6 -2 1.5625 C-1.34 1.046875 -0.68 0.53125 0 0 Z " fill="#414141" transform="translate(147,266)"/>
<path d="M0 0 C0.33 0.99 0.66 1.98 1 3 C0.00390625 4.82421875 0.00390625 4.82421875 -1.4375 6.6875 C-1.91058594 7.31011719 -2.38367188 7.93273437 -2.87109375 8.57421875 C-3.24363281 9.04472656 -3.61617187 9.51523437 -4 10 C-4.66 9.34 -5.32 8.68 -6 8 C-4.02 5.36 -2.04 2.72 0 0 Z " fill="#181818" transform="translate(166,250)"/>
<path d="M0 0 C0.66 0.33 1.32 0.66 2 1 C-0.10618315 3.94865641 -2.39391727 6.4837822 -5 9 C-4.5206753 4.68607774 -3.2542015 2.83430453 0 0 Z " fill="#282828" transform="translate(5,179)"/>
<path d="M0 0 C1.32 0.33 2.64 0.66 4 1 C3.67 2.32 3.34 3.64 3 5 C2.01 4.67 1.02 4.34 0 4 C0 2.68 0 1.36 0 0 Z " fill="#212121" transform="translate(55,190)"/>
<path d="M0 0 C0.66 0.33 1.32 0.66 2 1 C0.75 3.4375 0.75 3.4375 -1 6 C-2.32 6.33 -3.64 6.66 -5 7 C-3.35 4.69 -1.7 2.38 0 0 Z " fill="#1B1B1B" transform="translate(8,177)"/>
</svg>
