<?xml version="1.0" encoding="UTF-8"?>
<svg version="1.1" xmlns="http://www.w3.org/2000/svg" width="800" height="300">
<path d="M0 0 C264 0 528 0 800 0 C800 99 800 198 800 300 C536 300 272 300 0 300 C0 201 0 102 0 0 Z " fill="#FEFEFE" transform="translate(0,0)"/>
<path d="M0 0 C5.07739919 -0.4231166 8.5478232 0.33265962 13.203125 2.34375 C15 4 15 4 18 12 C30.375 11.505 30.375 11.505 43 11 C43.33 9.02 43.66 7.04 44 5 C45.375 2.125 45.375 2.125 48 0 C52.58302427 -0.96599402 56.91109092 -1.03504504 61.16796875 1.07421875 C65.12700845 4.15534773 66.85354747 7.35332431 68.33984375 12.0703125 C69.65338587 15.90989717 72.24400871 19.00202085 74.671875 22.20703125 C82.27551587 32.52393713 84.46730365 42.28457866 85.96191406 54.82739258 C86.12385254 56.15033325 86.12385254 56.15033325 86.2890625 57.5 C86.37881348 58.2940625 86.46856445 59.088125 86.56103516 59.90625 C86.92553041 62.29147489 86.92553041 62.29147489 89 65 C93.73598897 67.41442575 97.70253909 68.3257777 103 69 C103.94875 69.33 104.8975 69.66 105.875 70 C119.20255663 74.26481812 135.04814363 72.14231802 148.75 71 C192.72552324 67.49674826 192.72552324 67.49674826 208 75 C208.13019531 74.06929688 208.26039063 73.13859375 208.39453125 72.1796875 C209.12457977 68.34575528 210.13170235 66.63573298 213 64 C216.0625 63.4375 216.0625 63.4375 219 64 C220.875 65.4375 220.875 65.4375 222 68 C222 69.4797534 221.95380818 70.95984665 221.875 72.4375 C221.71652443 74.7977169 221.71652443 74.7977169 222 77 C223.62553283 78.70680947 225.29115995 80.37660195 227 82 C227.41753358 85.3999163 227.21932782 87.98560881 226.5 91.3125 C223.56694026 94.61219221 219.09399765 94.73923803 214.9296875 95.2578125 C210.24052939 95.51736 206.60517657 94.61603076 202.1875 93.0625 C193.34187901 90.08236817 184.25885586 90.18462325 175 90 C175.64219502 91.98035021 176.28885644 93.95925256 176.9375 95.9375 C177.29714844 97.03964844 177.65679687 98.14179688 178.02734375 99.27734375 C178.73856668 101.88123475 178.73856668 101.88123475 180 103 C182.28684338 103.2819396 184.57363273 103.44777005 186.87109375 103.62109375 C189 104 189 104 191 106 C191.84100236 110.9046067 192.30138309 115.97137342 189.5390625 120.27734375 C186.03035511 123.77864881 182.64447381 126.78682747 177.625 127.4375 C174 127 174 127 171.0625 125.0625 C168.2554628 120.89447506 168.60908676 117.85601115 169 113 C169.03620728 108.73134966 169.03620728 108.73134966 166.5 105.875 C164 103 164 103 164 101 C159.16019671 104.77740744 154.35670524 108.80156268 151 114 C150.96045766 116.33299825 150.95598268 118.66708189 151 121 C147.7459891 124.8234628 146.20515527 125.79914079 141.25 126.625 C135.95845347 126.31735195 131.51029759 123.58787566 127 121 C126.63432836 114.66169154 126.63432836 114.66169154 128.3125 111.625 C131.73085985 108.33324607 135.51834178 108.91544041 140 109 C140.10634766 108.21882813 140.10634766 108.21882813 140.21484375 107.421875 C141.34415605 103.93842413 143.44888755 101.19546298 145.5625 98.25 C146.19961914 97.34701172 146.19961914 97.34701172 146.84960938 96.42578125 C147.89435522 94.94670286 148.94646016 93.47282741 150 92 C148.75476563 92.16113281 147.50953125 92.32226562 146.2265625 92.48828125 C137.63422789 93.33729647 129.00010831 93.19426391 120.375 93.1875 C119.43555542 93.1882251 118.49611084 93.1889502 117.52819824 93.18969727 C94.32614713 93.18774678 71.16930656 92.14717662 48 91 C48.3609375 92.05960937 48.721875 93.11921875 49.09375 94.2109375 C49.56265793 95.59890499 50.03139931 96.98692875 50.5 98.375 C50.73847656 99.07367188 50.97695313 99.77234375 51.22265625 100.4921875 C53 105.7734375 53 105.7734375 53 108 C53.67546875 108.03738281 54.3509375 108.07476562 55.046875 108.11328125 C55.93890625 108.17902344 56.8309375 108.24476563 57.75 108.3125 C58.63171875 108.37050781 59.5134375 108.42851562 60.421875 108.48828125 C63.37638417 109.07470655 64.8336774 109.9276503 67 112 C67.625 114.875 67.625 114.875 67 118 C65.00707574 120.04402488 63.31459112 121.40752305 61 123 C60.33484375 123.54269531 59.6696875 124.08539063 58.984375 124.64453125 C53.72729034 128.68189663 49.8868308 129.61500059 43.28515625 129.30859375 C41 129 41 129 39 128 C37.75424694 124.26274081 37.51106557 120.91147543 38 117 C39.5 115 39.5 115 41 114 C40.01 113.34 39.02 112.68 38 112 C36.6484375 109.94140625 36.6484375 109.94140625 35.375 107.5625 C34.94960938 106.78003906 34.52421875 105.99757813 34.0859375 105.19140625 C33 103 33 103 32 100 C31.34 100 30.68 100 30 100 C29.62875 100.8353125 29.62875 100.8353125 29.25 101.6875 C27.76258717 104.43921374 26.0172356 106.60112523 24 109 C23.13568359 110.03833984 23.13568359 110.03833984 22.25390625 111.09765625 C21.63386719 111.82855469 21.01382812 112.55945313 20.375 113.3125 C19.78460937 114.00988281 19.19421875 114.70726562 18.5859375 115.42578125 C17 117 17 117 15 117 C15.495 117.99 15.495 117.99 16 119 C16.40609659 122.05732719 16.47507553 124.94833839 16 128 C13.26216018 130.91447465 10.53116764 131.2114019 6.6875 131.4375 C0.93150546 131.25461723 -3.93698606 129.06301394 -8 125 C-8.68512668 121.57436662 -8.69660102 118.423605 -8 115 C-5.14739786 111.30635711 -1.3873631 110.09078823 3 109.0625 C6.92464308 107.80538776 8.20215397 105.36621979 10.05078125 101.79272461 C11.44229402 98.88980277 12.74647136 95.9653787 14 93 C12.205625 93.0928125 12.205625 93.0928125 10.375 93.1875 C3.76761514 93.20860986 -2.63801985 91.68662386 -9 90 C-10.83267759 88.16732241 -10.16602841 85.24449479 -10.19287109 82.78369141 C-10.20104858 82.13487503 -10.20922607 81.48605865 -10.21765137 80.81758118 C-10.24254202 78.66225114 -10.25902996 76.50698707 -10.2734375 74.3515625 C-10.27876118 73.61704235 -10.28408485 72.8825222 -10.28956985 72.12574387 C-10.31631665 68.23846224 -10.33568708 64.35121291 -10.35009766 60.46386719 C-10.36675528 56.44277809 -10.41153644 52.42250712 -10.4624691 48.40172768 C-10.49607936 45.31510446 -10.5076681 42.22867692 -10.51332474 39.14188766 C-10.52005398 37.65944537 -10.53531959 36.1770167 -10.55921555 34.69475174 C-10.59074309 32.62085029 -10.59092484 30.54917455 -10.58349609 28.47509766 C-10.59158295 27.29452789 -10.5996698 26.11395813 -10.60800171 24.89761353 C-10 22 -10 22 -7.65103149 20.0953064 C-5 19 -5 19 -2 19 C-2.33 18.01 -2.66 17.02 -3 16 C-3.61767656 9.87074793 -2.79102638 5.46575999 0 0 Z " fill="#F9F9F9" transform="translate(10,156)"/>
<path d="M0 0 C2.8125 -0.1875 2.8125 -0.1875 6 0 C7 1 8 2 9 3 C15.47083003 5.07525149 21.41141432 5.24994212 28.16796875 5.16015625 C29.2571611 5.15463745 30.34635345 5.14911865 31.46855164 5.14343262 C33.8178252 5.13109227 36.16707948 5.11448167 38.51629639 5.09402466 C44.77770738 5.04025787 51.03917966 5.01861565 57.30078125 5 C59.23244141 4.9937838 59.23244141 4.9937838 61.203125 4.98744202 C77.41229646 4.95866797 93.61370822 5.33435472 109.81713867 5.73266602 C110.89429642 5.75735962 111.97145416 5.78205322 113.08125305 5.80749512 C115.09527242 5.85391321 117.10919602 5.90477372 119.12297058 5.96081543 C120.44631157 5.99096741 120.44631157 5.99096741 121.79638672 6.02172852 C122.56457733 6.04171402 123.33276794 6.06169952 124.12423706 6.08229065 C126.0924287 6.12361173 126.0924287 6.12361173 128 5 C131.03566911 4.76089183 134.08095166 4.81479913 137.125 4.8125 C138.37023437 4.79413086 138.37023437 4.79413086 139.640625 4.77539062 C146.3283327 4.75966717 153.1906553 5.34226445 159 9 C159.42667969 9.46148437 159.85335937 9.92296875 160.29296875 10.3984375 C162.9975484 12.93591497 166.33120593 14.35011728 169.625 16.01171875 C174.01917804 19.69039741 174.99427916 24.83672162 175.6171875 30.3671875 C175.72209306 31.86858663 175.80765993 33.37144759 175.875 34.875 C175.91254395 35.66366455 175.95008789 36.4523291 175.98876953 37.26489258 C176.27663329 46.52514559 174.29214193 54.04285919 168 61 C162.69554711 66.38085279 158.19286413 67.70523678 150.71362305 67.88330078 C149.57062744 67.88056152 148.42763184 67.87782227 147.25 67.875 C146.0535083 67.8941748 144.8570166 67.91334961 143.62426758 67.93310547 C140.0824586 67.98283335 136.54211111 67.99384427 133 68 C131.18616451 68.02360067 129.37235524 68.04939485 127.55859375 68.078125 C114.02532285 68.24209193 100.1544274 68.25064747 86.72265625 66.47265625 C78.59603524 65.44083973 70.49840803 65.91088485 62.375 66.78125 C56.14473547 67.35509015 49.86288457 66.66520367 43.63769531 66.25537109 C41.63908688 66.12591247 39.63984991 66.00628024 37.640625 65.88671875 C36.36960937 65.80292969 35.09859375 65.71914063 33.7890625 65.6328125 C32.63100098 65.55949707 31.47293945 65.48618164 30.27978516 65.41064453 C26.94747647 64.99342381 24.14301003 64.16096136 21 63 C19.865625 62.62875 18.73125 62.2575 17.5625 61.875 C10.70420537 58.84035636 6.45523899 52.07424207 3.69140625 45.35546875 C2.95117812 42.83367463 2.71897532 40.55745849 2.5625 37.9375 C2.27383191 33.27551038 0.83709453 30.65071581 -1.7890625 26.86328125 C-4.96470506 21.97688932 -6.0453083 15.71367548 -5 10 C-3.57222581 6.52259876 -1.86966857 3.25856521 0 0 Z " fill="#646464" transform="translate(429,216)"/>
<path d="M0 0 C4.47612864 0.88003095 7.0835 2.89997379 9.76171875 6.54296875 C10.7246478 8.54015493 11.43559635 10.49973598 12.1015625 12.61328125 C13.41510462 16.45286592 16.00572746 19.5449896 18.43359375 22.75 C26.03723462 33.06690588 28.2290224 42.82754741 29.72363281 55.37036133 C29.88557129 56.693302 29.88557129 56.693302 30.05078125 58.04296875 C30.14053223 58.83703125 30.2302832 59.63109375 30.32275391 60.44921875 C30.68724916 62.83444364 30.68724916 62.83444364 32.76171875 65.54296875 C37.49770772 67.9573945 41.46425784 68.86874645 46.76171875 69.54296875 C47.71046875 69.87296875 48.65921875 70.20296875 49.63671875 70.54296875 C62.96427538 74.80778687 78.80986238 72.68528677 92.51171875 71.54296875 C136.48724199 68.03971701 136.48724199 68.03971701 151.76171875 75.54296875 C151.89191406 74.61226563 152.02210938 73.6815625 152.15625 72.72265625 C152.88629852 68.88872403 153.8934211 67.17870173 156.76171875 64.54296875 C159.82421875 63.98046875 159.82421875 63.98046875 162.76171875 64.54296875 C164.63671875 65.98046875 164.63671875 65.98046875 165.76171875 68.54296875 C165.76171875 70.02272215 165.71552693 71.5028154 165.63671875 72.98046875 C165.47824318 75.34068565 165.47824318 75.34068565 165.76171875 77.54296875 C167.38725158 79.24977822 169.0528787 80.9195707 170.76171875 82.54296875 C171.17925233 85.94288505 170.98104657 88.52857756 170.26171875 91.85546875 C167.32865901 95.15516096 162.8557164 95.28220678 158.69140625 95.80078125 C154.00224814 96.06032875 150.36689532 95.15899951 145.94921875 93.60546875 C137.10359776 90.62533692 128.02057461 90.727592 118.76171875 90.54296875 C119.40391377 92.52331896 120.05057519 94.50222131 120.69921875 96.48046875 C121.05886719 97.58261719 121.41851562 98.68476563 121.7890625 99.8203125 C122.50028543 102.4242035 122.50028543 102.4242035 123.76171875 103.54296875 C126.04856213 103.82490835 128.33535148 103.9907388 130.6328125 104.1640625 C132.76171875 104.54296875 132.76171875 104.54296875 134.76171875 106.54296875 C135.60272111 111.44757545 136.06310184 116.51434217 133.30078125 120.8203125 C129.79207386 124.32161756 126.40619256 127.32979622 121.38671875 127.98046875 C117.76171875 127.54296875 117.76171875 127.54296875 114.82421875 125.60546875 C112.01718155 121.43744381 112.37080551 118.3989799 112.76171875 113.54296875 C112.79792603 109.27431841 112.79792603 109.27431841 110.26171875 106.41796875 C107.76171875 103.54296875 107.76171875 103.54296875 107.76171875 101.54296875 C102.92191546 105.32037619 98.11842399 109.34453143 94.76171875 114.54296875 C94.72217641 116.875967 94.71770143 119.21005064 94.76171875 121.54296875 C91.50770785 125.36643155 89.96687402 126.34210954 85.01171875 127.16796875 C79.72017222 126.8603207 75.27201634 124.13084441 70.76171875 121.54296875 C70.39604711 115.20466029 70.39604711 115.20466029 72.07421875 112.16796875 C75.4925786 108.87621482 79.28006053 109.45840916 83.76171875 109.54296875 C83.86806641 108.76179688 83.86806641 108.76179688 83.9765625 107.96484375 C85.1058748 104.48139288 87.2106063 101.73843173 89.32421875 98.79296875 C89.96133789 97.88998047 89.96133789 97.88998047 90.61132812 96.96875 C91.65607397 95.48967161 92.70817891 94.01579616 93.76171875 92.54296875 C92.51648438 92.70410156 91.27125 92.86523438 89.98828125 93.03125 C81.39594664 93.88026522 72.76182706 93.73723266 64.13671875 93.73046875 C63.19727417 93.73119385 62.25782959 93.73191895 61.28991699 93.73266602 C38.08786588 93.73071553 14.93102531 92.69014537 -8.23828125 91.54296875 C-7.87734375 92.60257812 -7.51640625 93.6621875 -7.14453125 94.75390625 C-6.67562332 96.14187374 -6.20688194 97.5298975 -5.73828125 98.91796875 C-5.49980469 99.61664063 -5.26132812 100.3153125 -5.015625 101.03515625 C-3.23828125 106.31640625 -3.23828125 106.31640625 -3.23828125 108.54296875 C-2.5628125 108.58035156 -1.88734375 108.61773437 -1.19140625 108.65625 C-0.299375 108.72199219 0.59265625 108.78773438 1.51171875 108.85546875 C2.3934375 108.91347656 3.27515625 108.97148437 4.18359375 109.03125 C7.13810292 109.6176753 8.59539615 110.47061905 10.76171875 112.54296875 C11.38671875 115.41796875 11.38671875 115.41796875 10.76171875 118.54296875 C8.76879449 120.58699363 7.07630987 121.9504918 4.76171875 123.54296875 C4.0965625 124.08566406 3.43140625 124.62835938 2.74609375 125.1875 C-2.51099091 129.22486538 -6.35145045 130.15796934 -12.953125 129.8515625 C-15.23828125 129.54296875 -15.23828125 129.54296875 -17.23828125 128.54296875 C-18.48403431 124.80570956 -18.72721568 121.45444418 -18.23828125 117.54296875 C-16.73828125 115.54296875 -16.73828125 115.54296875 -15.23828125 114.54296875 C-16.22828125 113.88296875 -17.21828125 113.22296875 -18.23828125 112.54296875 C-19.58984375 110.484375 -19.58984375 110.484375 -20.86328125 108.10546875 C-21.28867187 107.32300781 -21.7140625 106.54054688 -22.15234375 105.734375 C-23.23828125 103.54296875 -23.23828125 103.54296875 -24.23828125 100.54296875 C-24.89828125 100.54296875 -25.55828125 100.54296875 -26.23828125 100.54296875 C-26.60953125 101.37828125 -26.60953125 101.37828125 -26.98828125 102.23046875 C-28.47569408 104.98218249 -30.22104565 107.14409398 -32.23828125 109.54296875 C-33.10259766 110.58130859 -33.10259766 110.58130859 -33.984375 111.640625 C-34.60441406 112.37152344 -35.22445312 113.10242188 -35.86328125 113.85546875 C-36.45367187 114.55285156 -37.0440625 115.25023437 -37.65234375 115.96875 C-39.23828125 117.54296875 -39.23828125 117.54296875 -41.23828125 117.54296875 C-40.74328125 118.53296875 -40.74328125 118.53296875 -40.23828125 119.54296875 C-39.83218466 122.60029594 -39.76320572 125.49130714 -40.23828125 128.54296875 C-42.97612107 131.4574434 -45.70711361 131.75437065 -49.55078125 131.98046875 C-55.30677579 131.79758598 -60.17526731 129.60598269 -64.23828125 125.54296875 C-64.92340793 122.11733537 -64.93488227 118.96657375 -64.23828125 115.54296875 C-61.38567911 111.84932586 -57.62564435 110.63375698 -53.23828125 109.60546875 C-49.31363817 108.34835651 -48.03612728 105.90918854 -46.1875 102.33569336 C-44.79598723 99.43277152 -43.49180989 96.50834745 -42.23828125 93.54296875 C-44.03265625 93.63578125 -44.03265625 93.63578125 -45.86328125 93.73046875 C-52.4948443 93.76230025 -58.82262983 92.0761543 -65.23828125 90.54296875 C-65.73328125 88.06796875 -65.73328125 88.06796875 -66.23828125 85.54296875 C-65.65304688 85.73632812 -65.0678125 85.9296875 -64.46484375 86.12890625 C-55.52036811 88.84179526 -46.50395859 89.67654128 -37.23828125 90.54296875 C-36.90828125 91.53296875 -36.57828125 92.52296875 -36.23828125 93.54296875 C-37.55828125 93.54296875 -38.87828125 93.54296875 -40.23828125 93.54296875 C-40.47611328 94.36087891 -40.47611328 94.36087891 -40.71875 95.1953125 C-45.28298018 109.94710617 -45.28298018 109.94710617 -50.38671875 112.703125 C-52.65684888 113.45355008 -54.90661691 114.02013624 -57.23828125 114.54296875 C-58.91192102 115.19193111 -60.58289167 115.84877312 -62.23828125 116.54296875 C-62.17747599 120.64365073 -62.17747599 120.64365073 -61.23828125 124.54296875 C-56.27034366 127.78733616 -52.06780232 127.93160349 -46.23828125 127.54296875 C-44.75328125 127.04796875 -44.75328125 127.04796875 -43.23828125 126.54296875 C-43.48578125 125.45628906 -43.48578125 125.45628906 -43.73828125 124.34765625 C-44.2646578 121.26341863 -44.56556465 118.66077374 -44.23828125 115.54296875 C-42.42950433 113.41809489 -40.60659441 112.24002105 -38.23046875 110.79296875 C-35.58971766 109.13602689 -34.67367232 107.28326079 -33.23828125 104.54296875 C-32.28799015 103.08621879 -31.30605911 101.64983129 -30.30078125 100.23046875 C-29.81738281 99.53308594 -29.33398438 98.83570313 -28.8359375 98.1171875 C-27.23828125 96.54296875 -27.23828125 96.54296875 -23.23828125 96.54296875 C-21.5625 98.66796875 -21.5625 98.66796875 -19.92578125 101.54296875 C-16.82263479 106.73502983 -13.37992902 111.14954908 -9.23828125 115.54296875 C-10.87240568 117.25137156 -12.10734219 118.47749922 -14.23828125 119.54296875 C-14.28100225 121.2090878 -14.27891957 122.8767976 -14.23828125 124.54296875 C-13.04324218 125.94820536 -13.04324218 125.94820536 -9.61328125 125.91796875 C-5.27227399 125.90238165 -3.01696919 124.40360452 0.21875 121.63671875 C1.76171875 120.54296875 1.76171875 120.54296875 4.76171875 120.54296875 C4.76171875 119.88296875 4.76171875 119.22296875 4.76171875 118.54296875 C5.42171875 118.21296875 6.08171875 117.88296875 6.76171875 117.54296875 C7.25671875 116.05796875 7.25671875 116.05796875 7.76171875 114.54296875 C6.91867188 114.43339844 6.075625 114.32382812 5.20703125 114.2109375 C3.56347656 113.97310547 3.56347656 113.97310547 1.88671875 113.73046875 C0.25089844 113.50423828 0.25089844 113.50423828 -1.41796875 113.2734375 C-4.23828125 112.54296875 -4.23828125 112.54296875 -6.23828125 109.54296875 C-7.29272712 106.30705794 -8.21116733 103.04332953 -9.140625 99.76953125 C-10.11107537 96.51939204 -10.11107537 96.51939204 -11.9296875 93.81640625 C-12.36152344 93.06617188 -12.79335938 92.3159375 -13.23828125 91.54296875 C-12.74328125 90.05796875 -12.74328125 90.05796875 -12.23828125 88.54296875 C0.25541246 88.42498004 12.7124022 88.59668181 25.19921875 89.04296875 C42.91579859 89.66489138 60.51243234 89.80777644 78.21948242 88.90112305 C84.7433512 88.568242 91.22830656 88.41891662 97.76171875 88.54296875 C97.28520786 93.57492378 94.83305124 96.6367829 91.88671875 100.54296875 C90.99175083 101.75001482 90.09848571 102.95832553 89.20703125 104.16796875 C88.78059326 104.73990967 88.35415527 105.31185059 87.91479492 105.90112305 C86.6056085 107.69777401 86.6056085 107.69777401 85.1953125 110.4375 C83.76171875 112.54296875 83.76171875 112.54296875 81.7890625 113.1796875 C81.09941406 113.19644531 80.40976563 113.21320313 79.69921875 113.23046875 C75.75728988 113.11476655 75.75728988 113.11476655 73.76171875 115.54296875 C73.11919525 117.61170909 73.11919525 117.61170909 72.76171875 119.54296875 C81.13686269 122.36520055 81.13686269 122.36520055 89.76171875 121.54296875 C89.76171875 120.22296875 89.76171875 118.90296875 89.76171875 117.54296875 C89.76171875 113.54296875 89.76171875 113.54296875 91.046875 112.19140625 C91.63339844 111.77117187 92.21992188 111.3509375 92.82421875 110.91796875 C97.94356185 106.85168808 101.84169642 101.38301342 104.76171875 95.54296875 C108.1104368 96.92060592 109.42902402 98.18836115 111.13671875 101.35546875 C113.49457324 105.38806102 116.02890915 107.76506393 119.76171875 110.54296875 C119.44921875 112.41796875 119.44921875 112.41796875 118.76171875 114.54296875 C117.77171875 115.20296875 116.78171875 115.86296875 115.76171875 116.54296875 C116.37449487 119.50471998 117.01544397 120.92355658 118.76171875 123.54296875 C121.53533688 124.25618484 123.12181941 123.90012187 125.609375 122.51171875 C128.53140318 120.35169792 130.43693413 118.71105378 131.4296875 115.140625 C131.76744642 112.39894163 131.76744642 112.39894163 131.76171875 108.54296875 C128.13171875 108.54296875 124.50171875 108.54296875 120.76171875 108.54296875 C119.60564605 106.33948815 118.46187154 104.13093719 117.32421875 101.91796875 C116.99873047 101.30050781 116.67324219 100.68304688 116.33789062 100.046875 C114.37912247 96.21011264 113.22950617 92.82552967 112.76171875 88.54296875 C122.39124554 83.72820535 138.89568837 87.62408597 148.62109375 90.64453125 C154.95675774 92.45697244 160.64249212 92.14364007 166.76171875 89.54296875 C168.00832199 88.49242274 168.00832199 88.49242274 168.13671875 86.16796875 C168.01296875 85.30171875 167.88921875 84.43546875 167.76171875 83.54296875 C166.93671875 83.17171875 166.11171875 82.80046875 165.26171875 82.41796875 C164.43671875 81.79921875 163.61171875 81.18046875 162.76171875 80.54296875 C162.29494402 76.84721115 162.47850057 73.24998005 162.76171875 69.54296875 C161.11171875 69.21296875 159.46171875 68.88296875 157.76171875 68.54296875 C156.44171875 71.51296875 155.12171875 74.48296875 153.76171875 77.54296875 C154.42171875 77.54296875 155.08171875 77.54296875 155.76171875 77.54296875 C155.76171875 78.20296875 155.76171875 78.86296875 155.76171875 79.54296875 C154.07246197 79.28331807 152.3853657 79.00960209 150.69921875 78.73046875 C149.28962891 78.50423828 149.28962891 78.50423828 147.8515625 78.2734375 C144.76171875 77.54296875 144.76171875 77.54296875 141.58691406 76.02001953 C137.59244494 74.28251297 133.77748209 74.12589359 129.46875 74.1796875 C128.29916748 74.17792007 128.29916748 74.17792007 127.10595703 74.17611694 C124.59501787 74.17801993 122.08500033 74.20321699 119.57421875 74.23046875 C117.84139105 74.23843704 116.10856224 74.24616736 114.37573242 74.25366211 C104.93895818 74.32332654 95.66204698 74.71475237 86.29150391 75.89233398 C77.73111968 76.9148506 69.32127933 76.35191099 60.76171875 75.54296875 C60.07706543 75.48093262 59.39241211 75.41889648 58.68701172 75.35498047 C37.60182524 73.33382138 37.60182524 73.33382138 29.96875 67.35546875 C27.25909718 63.90245984 26.95678722 61.69874612 26.57421875 57.35546875 C26.43444485 56.01539867 26.29251353 54.67555187 26.1484375 53.3359375 C26.02082031 52.08425781 25.89320312 50.83257812 25.76171875 49.54296875 C24.35175135 39.80496961 21.34686069 32.05103276 15.12890625 24.3671875 C13.73445587 22.50659228 12.7377721 20.64845526 11.76171875 18.54296875 C11.10171875 18.54296875 10.44171875 18.54296875 9.76171875 18.54296875 C9.26671875 20.02796875 9.26671875 20.02796875 8.76171875 21.54296875 C8.10171875 21.54296875 7.44171875 21.54296875 6.76171875 21.54296875 C6.85710937 20.7953125 6.9525 20.04765625 7.05078125 19.27734375 C7.16164063 18.2925 7.2725 17.30765625 7.38671875 16.29296875 C7.56074219 14.83117187 7.56074219 14.83117187 7.73828125 13.33984375 C7.7632939 10.3550012 7.43031359 8.98587885 5.76171875 6.54296875 C1.76783883 4.0014088 -1.51337565 2.6185307 -6.23828125 3.54296875 C-9.76003866 7.5281153 -10.23828125 9.10684062 -10.23828125 14.54296875 C-23.60328125 15.03796875 -23.60328125 15.03796875 -37.23828125 15.54296875 C-37.23828125 14.88296875 -37.23828125 14.22296875 -37.23828125 13.54296875 C-34.28319678 12.70925516 -31.53718512 12.36407341 -28.47265625 12.2265625 C-27.13847656 12.1637207 -27.13847656 12.1637207 -25.77734375 12.09960938 C-24.39675781 12.04063477 -24.39675781 12.04063477 -22.98828125 11.98046875 C-22.05242188 11.93728516 -21.1165625 11.89410156 -20.15234375 11.84960938 C-17.84779484 11.74378825 -15.54314286 11.64170318 -13.23828125 11.54296875 C-13.10164063 10.61226562 -12.965 9.6815625 -12.82421875 8.72265625 C-11.38345044 0.90408686 -7.3438744 -0.36278151 0 0 Z " fill="#131313" transform="translate(66.23828125,155.45703125)"/>
<path d="M0 0 C2.8125 -0.1875 2.8125 -0.1875 6 0 C7 1 8 2 9 3 C15.47083003 5.07525149 21.41141432 5.24994212 28.16796875 5.16015625 C29.2571611 5.15463745 30.34635345 5.14911865 31.46855164 5.14343262 C33.8178252 5.13109227 36.16707948 5.11448167 38.51629639 5.09402466 C44.77770738 5.04025787 51.03917966 5.01861565 57.30078125 5 C59.23244141 4.9937838 59.23244141 4.9937838 61.203125 4.98744202 C77.41229646 4.95866797 93.61370822 5.33435472 109.81713867 5.73266602 C110.89429642 5.75735962 111.97145416 5.78205322 113.08125305 5.80749512 C115.09527242 5.85391321 117.10919602 5.90477372 119.12297058 5.96081543 C120.44631157 5.99096741 120.44631157 5.99096741 121.79638672 6.02172852 C122.56457733 6.04171402 123.33276794 6.06169952 124.12423706 6.08229065 C126.0924287 6.12361173 126.0924287 6.12361173 128 5 C131.03566911 4.76089183 134.08095166 4.81479913 137.125 4.8125 C138.37023437 4.79413086 138.37023437 4.79413086 139.640625 4.77539062 C146.3283327 4.75966717 153.1906553 5.34226445 159 9 C159.42667969 9.46148437 159.85335937 9.92296875 160.29296875 10.3984375 C162.9975484 12.93591497 166.33120593 14.35011728 169.625 16.01171875 C174.01917804 19.69039741 174.99427916 24.83672162 175.6171875 30.3671875 C175.72209306 31.86858663 175.80765993 33.37144759 175.875 34.875 C175.91254395 35.66366455 175.95008789 36.4523291 175.98876953 37.26489258 C176.27663329 46.52514559 174.29214193 54.04285919 168 61 C162.69554711 66.38085279 158.19286413 67.70523678 150.71362305 67.88330078 C149.57062744 67.88056152 148.42763184 67.87782227 147.25 67.875 C146.0535083 67.8941748 144.8570166 67.91334961 143.62426758 67.93310547 C140.0824586 67.98283335 136.54211111 67.99384427 133 68 C131.18616451 68.02360067 129.37235524 68.04939485 127.55859375 68.078125 C114.02532285 68.24209193 100.1544274 68.25064747 86.72265625 66.47265625 C78.59603524 65.44083973 70.49840803 65.91088485 62.375 66.78125 C56.14473547 67.35509015 49.86288457 66.66520367 43.63769531 66.25537109 C41.63908688 66.12591247 39.63984991 66.00628024 37.640625 65.88671875 C36.36960937 65.80292969 35.09859375 65.71914063 33.7890625 65.6328125 C32.63100098 65.55949707 31.47293945 65.48618164 30.27978516 65.41064453 C26.94747647 64.99342381 24.14301003 64.16096136 21 63 C19.865625 62.62875 18.73125 62.2575 17.5625 61.875 C10.70420537 58.84035636 6.45523899 52.07424207 3.69140625 45.35546875 C2.95117812 42.83367463 2.71897532 40.55745849 2.5625 37.9375 C2.27383191 33.27551038 0.83709453 30.65071581 -1.7890625 26.86328125 C-4.96470506 21.97688932 -6.0453083 15.71367548 -5 10 C-3.57222581 6.52259876 -1.86966857 3.25856521 0 0 Z M2 3 C-1.20056327 7.39571031 -3.17210159 11.0337393 -2.6875 16.5703125 C-0.75050496 24.17301803 1.40130732 28.68547017 8 33 C8.309375 32.05125 8.61875 31.1025 8.9375 30.125 C10 27 10 27 11 25 C10.67 24.34 10.34 23.68 10 23 C12.31 23.33 14.62 23.66 17 24 C17 24.66 17 25.32 17 26 C16.401875 26.185625 15.80375 26.37125 15.1875 26.5625 C11.99950687 28.65746692 11.45644444 31.54094446 10 35 C7.8125 36.9375 7.8125 36.9375 6 38 C6.43386428 44.79720708 8.71901136 50.62717707 13.53515625 55.578125 C25.47522139 64.94952365 42.73368679 63.15052382 57 63 C56.98710937 61.8965625 56.97421875 60.793125 56.9609375 59.65625 C57 56 57 56 57.625 53.5 C58.20619921 50.81449175 58.20619921 50.81449175 57 47.5625 C55.9369034 43.77521835 56.32627014 41.78973046 57 38 C56.17657468 35.68019054 56.17657468 35.68019054 55 34 C57.92512762 36.43505389 57.92512762 36.43505389 58.2578125 38.9453125 C58.21398437 39.66460937 58.17015625 40.38390625 58.125 41.125 C57.96429211 45.84675096 58.3919686 50.32341282 59 55 C59.17893286 56.42571265 59.3572786 57.85149906 59.53515625 59.27734375 C59.68855469 60.50582031 59.84195313 61.73429687 60 63 C61.31613281 62.90460938 62.63226563 62.80921875 63.98828125 62.7109375 C80.13303317 61.64939006 80.13303317 61.64939006 87.84765625 63.453125 C102.6439952 66.02002395 120.17962869 66.37125941 135 64 C137.44251927 57.47348346 138.25867587 53.77602761 136 47 C136.9375 44.1875 136.9375 44.1875 138 42 C137.67 41.34 137.34 40.68 137 40 C136.01 40 135.02 40 134 40 C134 39.01 134 38.02 134 37 C135.9375 37.625 135.9375 37.625 138 39 C139.0723094 42.79432556 138.93231135 45.27075458 138 49 C138.165 49.886875 138.33 50.77375 138.5 51.6875 C139.14190299 55.94010731 138.61116813 59.76883603 138 64 C142.67661056 64.08468711 147.17531996 64.1216741 151.8125 63.4375 C155 63 155 63 157.5 63.8125 C160.60164164 64.04512312 161.18668047 63.41175287 163.5625 61.5 C166.91032743 58.34098713 169.11705826 55.18047615 171 51 C171.32226562 50.35546875 171.64453125 49.7109375 171.9765625 49.046875 C175.54148085 40.6770667 173.41424912 31.35760137 170.5625 23 C167.88947491 17.47850029 162.37709586 15.36406801 157 13 C155.91599105 18.7175801 155.91599105 18.7175801 157.25 24.25 C158.42159507 30.10797537 155.88541581 34.90217422 153 40 C152.01 40.66 151.02 41.32 150 42 C150.52851562 41.04738281 151.05703125 40.09476562 151.6015625 39.11328125 C152.27698801 37.84685843 152.95141527 36.57990285 153.625 35.3125 C153.975625 34.68666016 154.32625 34.06082031 154.6875 33.41601562 C156.32195389 30.29420869 157.16831634 28.6373228 156.25 25.16015625 C155.63125 24.09087891 155.63125 24.09087891 155 23 C154.07556986 20.22670957 154.0267192 18.50124151 154.1875 15.5 C154.2816013 12.06955642 154.2816013 12.06955642 152.65625 9.80078125 C148.45579586 6.95312043 144.2592073 7.53860246 139.3125 7.6875 C138.33732422 7.69716797 137.36214844 7.70683594 136.35742188 7.71679688 C131.83867632 7.38617701 131.83867632 7.38617701 128 9 C125.98035801 9.07244053 123.95832876 9.08377188 121.9375 9.0625 C120.83277344 9.05347656 119.72804688 9.04445312 118.58984375 9.03515625 C117.73519531 9.02355469 116.88054687 9.01195312 116 9 C116.01160156 9.61746094 116.02320313 10.23492187 116.03515625 10.87109375 C116.08894661 15.91970297 115.92444046 20.82368002 115.27734375 25.83203125 C115.0915947 27.28401325 114.9381839 28.74047797 114.81640625 30.19921875 C114.44335142 34.31804865 113.90156943 36.97227538 111 40 C111 37.59411466 111.70979414 35.99839035 112.5625 33.75 C113.96505902 29.6916695 113.84584573 27.22922865 113 23 C113.350625 22.01 113.70125 21.02 114.0625 20 C115.41997215 15.65608912 113.96348052 12.92696104 112 9 C104.74 9 97.48 9 90 9 C88.53691078 15.88512576 87.86947155 21.09121505 89 28 C88.67 28.66 88.34 29.32 88 30 C87.34 29.67 86.68 29.34 86 29 C86.495 28.505 86.495 28.505 87 28 C87.13961241 24.92852697 87.04131994 22.20659968 86.4375 19.1875 C86.293125 18.465625 86.14875 17.74375 86 17 C86.33 16.67 86.66 16.34 87 16 C87.04063832 14.33382885 87.042721 12.66611905 87 11 C86.34 11 85.68 11 85 11 C84.505 9.515 84.505 9.515 84 8 C78.21590487 7.97529951 72.43184038 7.95713977 66.64770508 7.94506836 C64.67960068 7.9400365 62.71150003 7.93321042 60.7434082 7.92456055 C57.91616899 7.91244483 55.08897916 7.90676024 52.26171875 7.90234375 C50.93970711 7.89460182 50.93970711 7.89460182 49.59098816 7.88670349 C48.3600518 7.88659019 48.3600518 7.88659019 47.10424805 7.88647461 C46.38254929 7.884254 45.66085052 7.88203339 44.9172821 7.87974548 C42.77773199 7.93174401 42.77773199 7.93174401 40 9 C39.19078631 11.69737896 38.54117383 14.25209793 38 17 C37.7215625 18.2065625 37.7215625 18.2065625 37.4375 19.4375 C36.97731213 21.91344677 36.97731213 21.91344677 36.82421875 24.09375 C36.40332248 29.04547086 35.57856056 32.62765819 33 37 C32.01 37 31.02 37 30 37 C30.639375 36.29875 31.27875 35.5975 31.9375 34.875 C34.20191565 31.71854182 34.59487586 29.80816696 35 26 C35.20625 25.319375 35.4125 24.63875 35.625 23.9375 C36.15393796 21.88232882 36.15393796 21.88232882 35.4375 19.375 C35.293125 18.59125 35.14875 17.8075 35 17 C35.66 16.34 36.32 15.68 37 15 C36.67801034 11.90073181 36.67801034 11.90073181 36 9 C34.51113281 8.94392578 34.51113281 8.94392578 32.9921875 8.88671875 C10.69180146 7.87331587 10.69180146 7.87331587 2 3 Z " fill="#101010" transform="translate(429,216)"/>
<path d="M0 0 C4.47612864 0.88003095 7.0835 2.89997379 9.76171875 6.54296875 C10.7246478 8.54015493 11.43559635 10.49973598 12.1015625 12.61328125 C13.41510462 16.45286592 16.00572746 19.5449896 18.43359375 22.75 C26.03723462 33.06690588 28.2290224 42.82754741 29.72363281 55.37036133 C29.88557129 56.693302 29.88557129 56.693302 30.05078125 58.04296875 C30.14053223 58.83703125 30.2302832 59.63109375 30.32275391 60.44921875 C30.68724916 62.83444364 30.68724916 62.83444364 32.76171875 65.54296875 C37.49770772 67.9573945 41.46425784 68.86874645 46.76171875 69.54296875 C48.15221436 70.03192627 48.15221436 70.03192627 49.57080078 70.53076172 C52.89030564 71.58375844 55.78490214 71.94451431 59.25390625 72.17578125 C61.05214844 72.30146484 61.05214844 72.30146484 62.88671875 72.4296875 C64.12421875 72.50832031 65.36171875 72.58695312 66.63671875 72.66796875 C68.52777344 72.79751953 68.52777344 72.79751953 70.45703125 72.9296875 C73.55819183 73.14113027 76.6596538 73.34531618 79.76171875 73.54296875 C79.76171875 74.53296875 79.76171875 75.52296875 79.76171875 76.54296875 C39.60183273 74.90026082 39.60183273 74.90026082 29.96875 67.35546875 C27.25909718 63.90245984 26.95678722 61.69874612 26.57421875 57.35546875 C26.43444485 56.01539867 26.29251353 54.67555187 26.1484375 53.3359375 C26.02082031 52.08425781 25.89320312 50.83257812 25.76171875 49.54296875 C24.35175135 39.80496961 21.34686069 32.05103276 15.12890625 24.3671875 C13.73445587 22.50659228 12.7377721 20.64845526 11.76171875 18.54296875 C11.10171875 18.54296875 10.44171875 18.54296875 9.76171875 18.54296875 C9.26671875 20.02796875 9.26671875 20.02796875 8.76171875 21.54296875 C8.10171875 21.54296875 7.44171875 21.54296875 6.76171875 21.54296875 C6.85710937 20.7953125 6.9525 20.04765625 7.05078125 19.27734375 C7.16164062 18.2925 7.2725 17.30765625 7.38671875 16.29296875 C7.50273438 15.3184375 7.61875 14.34390625 7.73828125 13.33984375 C7.7632939 10.3550012 7.43031359 8.98587885 5.76171875 6.54296875 C1.76783883 4.0014088 -1.51337565 2.6185307 -6.23828125 3.54296875 C-9.76003866 7.5281153 -10.23828125 9.10684062 -10.23828125 14.54296875 C-23.60328125 15.03796875 -23.60328125 15.03796875 -37.23828125 15.54296875 C-37.23828125 14.88296875 -37.23828125 14.22296875 -37.23828125 13.54296875 C-34.28319678 12.70925516 -31.53718512 12.36407341 -28.47265625 12.2265625 C-27.13847656 12.1637207 -27.13847656 12.1637207 -25.77734375 12.09960938 C-24.39675781 12.04063477 -24.39675781 12.04063477 -22.98828125 11.98046875 C-22.05242188 11.93728516 -21.1165625 11.89410156 -20.15234375 11.84960938 C-17.84779484 11.74378825 -15.54314286 11.64170318 -13.23828125 11.54296875 C-13.10164063 10.61226562 -12.965 9.6815625 -12.82421875 8.72265625 C-11.38345044 0.90408686 -7.3438744 -0.36278151 0 0 Z " fill="#050505" transform="translate(66.23828125,155.45703125)"/>
<path d="M0 0 C1.05960937 0.22010742 2.11921875 0.44021484 3.2109375 0.66699219 C10.13762646 2.09916137 16.94427198 3.38107649 24 4 C23.33487635 5.66728305 22.66786181 7.33381189 22 9 C21.51853516 10.25490234 21.51853516 10.25490234 21.02734375 11.53515625 C18.95637575 16.33772362 17.42986206 19.3211865 12.5 21.4375 C11.01000957 21.98631314 9.51042078 22.51020776 8 23 C4.96175425 23.92020732 4.96175425 23.92020732 3 26 C2.28227003 29.32961947 2.07016977 32.59995556 2 36 C1.67 36 1.34 36 1 36 C0.14083904 31.55852431 -0.11697565 27.37230176 -0.09765625 22.8515625 C-0.09553383 21.86547501 -0.09553383 21.86547501 -0.09336853 20.85946655 C-0.08781762 18.78126269 -0.07527465 16.70317073 -0.0625 14.625 C-0.05747864 13.20703282 -0.05291685 11.78906393 -0.04882812 10.37109375 C-0.03786437 6.91402678 -0.02063421 3.45702433 0 0 Z " fill="#F8F8F8" transform="translate(0,245)"/>
<path d="M0 0 C0.33 0.99 0.66 1.98 1 3 C1.66 3 2.32 3 3 3 C3.21914063 3.95261719 3.43828125 4.90523437 3.6640625 5.88671875 C5.38891549 13.98459627 5.38891549 13.98459627 10.25 20.375 C11.1575 20.91125 12.065 21.4475 13 22 C13.144375 21.2575 13.28875 20.515 13.4375 19.75 C13.90187492 17.47972261 14.41863569 15.24240521 15 13 C17.31 13.33 19.62 13.66 22 14 C22 14.66 22 15.32 22 16 C21.38125 16.4125 20.7625 16.825 20.125 17.25 C17.36840385 19.52013801 17.04983163 21.64053879 16 25 C14.5 26.875 14.5 26.875 13 28 C12.34 28 11.68 28 11 28 C10.01 30.475 10.01 30.475 9 33 C8.67 33 8.34 33 8 33 C7.98582031 32.3709375 7.97164063 31.741875 7.95703125 31.09375 C7.63073728 25.23809599 6.53814961 21.66177502 3.2109375 16.86328125 C-0.21664757 11.58922294 -0.21195647 6.04075942 0 0 Z " fill="#131313" transform="translate(424,226)"/>
<path d="M0 0 C5.77481791 -0.48123483 10.26953246 0.47661728 15 4 C16.93551992 7.11661994 17.20289203 9.34794339 17 13 C16.34 13 15.68 13 15 13 C14.67 10.69 14.34 8.38 14 6 C13.030625 5.690625 12.06125 5.38125 11.0625 5.0625 C8 4 8 4 7 3 C5.33382885 2.95936168 3.66611905 2.957279 2 3 C0.17144572 7.59232335 -0.12514462 10.97358268 0.375 15.875 C0.48585938 17.02742188 0.59671875 18.17984375 0.7109375 19.3671875 C0.80632813 20.23601562 0.90171875 21.10484375 1 22 C0.37351562 22.20496094 -0.25296875 22.40992188 -0.8984375 22.62109375 C-1.71570312 22.89050781 -2.53296875 23.15992188 -3.375 23.4375 C-4.18710938 23.70433594 -4.99921875 23.97117188 -5.8359375 24.24609375 C-8.01031799 24.95179729 -8.01031799 24.95179729 -10 26 C-10 24.68 -10 23.36 -10 22 C-7.12645755 19.82542733 -5.63563409 19 -2 19 C-2.33 18.01 -2.66 17.02 -3 16 C-3.61767656 9.87074793 -2.79102638 5.46575999 0 0 Z " fill="#111111" transform="translate(10,156)"/>
<path d="M0 0 C0.66 0.33 1.32 0.66 2 1 C1.34 1.66 0.68 2.32 0 3 C-0.02216617 6.32935866 0.19899728 9.61190784 0.41796875 12.93359375 C0 16 0 16 -2.2421875 17.8828125 C-7.00279636 19.8113311 -11.43008534 19.93411574 -16.2890625 18.16796875 C-19.30113904 16.7057425 -21.62151544 15.37848456 -24 13 C-24.26991906 10.31160615 -24.08737357 7.70858064 -24 5 C-23.34 4.67 -22.68 4.34 -22 4 C-21.979375 5.258125 -21.95875 6.51625 -21.9375 7.8125 C-21.72892971 10.01247726 -21.72892971 10.01247726 -21 12 C-16.03206241 15.24436741 -11.82952107 15.38863474 -6 15 C-5.01 14.67 -4.02 14.34 -3 14 C-3.11859375 13.24074219 -3.2371875 12.48148437 -3.359375 11.69921875 C-3.48828125 10.70535156 -3.6171875 9.71148437 -3.75 8.6875 C-3.88921875 7.70136719 -4.0284375 6.71523438 -4.171875 5.69921875 C-4 3 -4 3 -2.015625 1.14453125 C-1.35046875 0.76683594 -0.6853125 0.38914062 0 0 Z " fill="#0D0D0D" transform="translate(26,268)"/>
<path d="M0 0 C-2.44558634 2.44558634 -3.57408069 2.3351289 -6.9375 2.75 C-11.19451576 3.50081022 -11.19451576 3.50081022 -14.125 6.6875 C-15.29923323 11.1328115 -15.73268562 14.914664 -14.1875 19.3125 C-12.94032008 21.30067478 -12.94032008 21.30067478 -10 23 C-7.24582682 23.30066154 -4.57354853 23.50925299 -1.8125 23.625 C-1.06291016 23.66367188 -0.31332031 23.70234375 0.45898438 23.7421875 C2.30559199 23.83628216 4.1527619 23.91922319 6 24 C5.34 24.99 4.68 25.98 4 27 C1.60160083 26.93966291 -0.7908385 26.85255482 -3.1875 26.75 C-4.19780273 26.72873047 -4.19780273 26.72873047 -5.22851562 26.70703125 C-10.07339254 26.47069579 -12.58555088 25.42069126 -16 22 C-18.84589067 17.731164 -18.49928196 14.00842212 -18 9 C-16.7762146 5.45746332 -15.69083992 3.62803629 -12.9375 1.125 C-8.6406741 -0.5205929 -4.54770019 -0.23842312 0 0 Z " fill="#090909" transform="translate(25,193)"/>
<path d="M0 0 C0.33 0 0.66 0 1 0 C1.50588674 8.09418785 -0.88682972 14.6430856 -6 21 C-9.37910814 24.64092766 -12.09547378 26.90897485 -17.1875 27.15234375 C-20.16546891 26.90300909 -23.06154998 26.53871584 -26 26 C-25 24 -25 24 -22.25 22.8125 C-19 22 -19 22 -16.5 22.6875 C-13.74666541 23.30521575 -13.74666541 23.30521575 -10.9375 21 C-5.5370475 15.94573035 -3.49663324 10.00430842 -1.61328125 3.0390625 C-1 1 -1 1 0 0 Z " fill="#060606" transform="translate(603,256)"/>
<path d="M0 0 C0.66 0.33 1.32 0.66 2 1 C1.566875 1.77923828 1.566875 1.77923828 1.125 2.57421875 C0.75375 3.27160156 0.3825 3.96898437 0 4.6875 C-0.37125 5.37199219 -0.7425 6.05648437 -1.125 6.76171875 C-2.30341075 9.37559673 -2.30341075 9.37559673 -2 14 C-15.365 14.495 -15.365 14.495 -29 15 C-29 14.34 -29 13.68 -29 13 C-26.04491553 12.16628641 -23.29890387 11.82110466 -20.234375 11.68359375 C-18.90019531 11.62075195 -18.90019531 11.62075195 -17.5390625 11.55664062 C-16.15847656 11.49766602 -16.15847656 11.49766602 -14.75 11.4375 C-13.81414063 11.39431641 -12.87828125 11.35113281 -11.9140625 11.30664062 C-9.60951359 11.2008195 -7.30486161 11.09873443 -5 11 C-4.87753906 10.06929687 -4.75507812 9.13859375 -4.62890625 8.1796875 C-3.89766582 4.48260853 -2.50861092 2.75137972 0 0 Z " fill="#0F0F0F" transform="translate(58,156)"/>
<path d="M0 0 C0.66 0.66 1.32 1.32 2 2 C1.67 2.680625 1.34 3.36125 1 4.0625 C-0.18453566 6.99578446 -0.18453566 6.99578446 0.0625 10.25 C-0.02360065 15.41603921 -1.03554646 20.83957907 -4.60546875 24.765625 C-5.06566406 25.17296875 -5.52585937 25.5803125 -6 26 C-6.99 25.67 -7.98 25.34 -9 25 C-8.360625 24.13375 -7.72125 23.2675 -7.0625 22.375 C-4.99019986 18.98396341 -4.42247465 16.88676677 -4 13 C-3.79375 12.319375 -3.5875 11.63875 -3.375 10.9375 C-2.83067246 8.89287506 -2.83067246 8.89287506 -3.6875 6.5 C-3.790625 5.675 -3.89375 4.85 -4 4 C-2.0625 1.6875 -2.0625 1.6875 0 0 Z " fill="#000000" transform="translate(467,229)"/>
<path d="M0 0 C2.60427663 2.60427663 2.50528695 4.39566205 3 8 C3.32871094 9.1446875 3.32871094 9.1446875 3.6640625 10.3125 C4.10572171 13.84577369 3.19396203 15.92627731 1.8125 19.1875 C1.38582031 20.23292969 0.95914063 21.27835938 0.51953125 22.35546875 C-1.09002716 25.15667966 -2.00308155 25.95396637 -5 27 C-4.00734643 24.46170776 -2.98445893 21.96695587 -1.82421875 19.5 C-0.69196301 17.00981554 0.30720879 14.64839171 1 12 C-0.20968895 9.2332494 -0.20968895 9.2332494 -2 7 C-1.58333333 1.58333333 -1.58333333 1.58333333 0 0 Z " fill="#000000" transform="translate(584,231)"/>
<path d="M0 0 C2 2 2 2 2.01171875 4.3203125 C1.90472656 5.24585938 1.79773438 6.17140625 1.6875 7.125 C1.51927734 8.60226563 1.51927734 8.60226563 1.34765625 10.109375 C1.23292969 11.06328125 1.11820313 12.0171875 1 13 C0.93683594 13.76828125 0.87367188 14.5365625 0.80859375 15.328125 C0.42512106 19.6034375 -0.49052942 22.50856266 -3 26 C-3.99 25.34 -4.98 24.68 -6 24 C-5.34 23.34 -4.68 22.68 -4 22 C-3.27982196 19.71171706 -3.27982196 19.71171706 -2.8125 17.125 C-2.63332031 16.26132813 -2.45414063 15.39765625 -2.26953125 14.5078125 C-1.85548873 12.05460461 -1.85548873 12.05460461 -2.5390625 9.9453125 C-3.13919757 7.41253908 -2.55294951 6.12707883 -1.5625 3.75 C-1.27503906 3.04359375 -0.98757813 2.3371875 -0.69140625 1.609375 C-0.34916016 0.81273437 -0.34916016 0.81273437 0 0 Z " fill="#000000" transform="translate(544,231)"/>
<path d="M0 0 C1.875 0.1875 1.875 0.1875 4 1 C6.38879811 4.98133018 5.79447983 7.58622317 5 12 C5.2644354 14.34214207 5.58244638 16.68025766 6 19 C5.01 18.67 4.02 18.34 3 18 C0.62790698 11.22259136 0.62790698 11.22259136 1.875 7.125 C2.24625 6.42375 2.6175 5.7225 3 5 C3 4.34 3 3.68 3 3 C2.01 3 1.02 3 0 3 C0 2.01 0 1.02 0 0 Z " fill="#000000" transform="translate(563,253)"/>
<path d="M0 0 C0.99 0.33 1.98 0.66 3 1 C4.00344253 7.30735307 4.50873071 13.63440427 5 20 C4.01 19.67 3.02 19.34 2 19 C-0.08254633 13.95301272 -0.10550722 9.28186783 1 4 C0.6422386 1.72349255 0.6422386 1.72349255 0 0 Z " fill="#000000" transform="translate(484,250)"/>
<path d="M0 0 C0.66 0.33 1.32 0.66 2 1 C1.814375 1.66 1.62875 2.32 1.4375 3 C1.03842212 5.73653403 1.13760553 7.4471767 1.5625 10.125 C2 14 2 14 0 17 C-0.99 16.67 -1.98 16.34 -3 16 C-2.67 15.34 -2.34 14.68 -2 14 C-1.86270799 10.91092972 -1.91919487 8.31587458 -2.6875 5.3125 C-2.790625 4.549375 -2.89375 3.78625 -3 3 C-1.5625 1.1875 -1.5625 1.1875 0 0 Z " fill="#000000" transform="translate(517,230)"/>
<path d="M0 0 C-2.85844182 2.85844182 -5.77691961 2.70789309 -9.6875 3.2421875 C-12.16625785 3.76562399 -12.16625785 3.76562399 -13.125 6.0078125 C-13.41375 6.66523438 -13.7025 7.32265625 -14 8 C-14.99 8.33 -15.98 8.66 -17 9 C-16.18221657 5.65452231 -15.54207779 3.50819792 -13 1.125 C-8.66810933 -0.499459 -4.57459564 -0.23983317 0 0 Z " fill="#141414" transform="translate(25,193)"/>
<path d="M0 0 C4.62 0 9.24 0 14 0 C13.67 0.99 13.34 1.98 13 3 C8.38 3 3.76 3 -1 3 C-0.67 2.01 -0.34 1.02 0 0 Z " fill="#1D1D1D" transform="translate(146,228)"/>
<path d="M0 0 C4.60470588 1.45411765 4.60470588 1.45411765 6.3125 3.8125 C7.09802451 6.31189617 7.14472595 8.39493282 7 11 C6.34 11 5.68 11 5 11 C4.67 8.69 4.34 6.38 4 4 C2.02 3.34 0.04 2.68 -2 2 C-1.34 1.34 -0.68 0.68 0 0 Z " fill="#262626" transform="translate(20,158)"/>
<path d="M0 0 C0.99 0.33 1.98 0.66 3 1 C0.525 5.455 0.525 5.455 -2 10 C-2.66 9.67 -3.32 9.34 -4 9 C-3.35455571 5.51460083 -1.89865603 2.97180943 0 0 Z " fill="#1F1F1F" transform="translate(154,256)"/>
<path d="M0 0 C0.33 0 0.66 0 1 0 C1.33 5.94 1.66 11.88 2 18 C-0.49059397 13.01881207 -1.2136995 10.24901803 -0.5625 4.75 C-0.46066406 3.85796875 -0.35882812 2.9659375 -0.25390625 2.046875 C-0.17011719 1.37140625 -0.08632813 0.6959375 0 0 Z " fill="#242424" transform="translate(603,242)"/>
<path d="M0 0 C0.33 0 0.66 0 1 0 C1.66 3.63 2.32 7.26 3 11 C2.01 10.67 1.02 10.34 0 10 C-1.49106457 7.01787087 -1.11941467 4.28390342 -1 1 C-0.67 0.67 -0.34 0.34 0 0 Z " fill="#060606" transform="translate(8,164)"/>
<path d="M0 0 C-2 3 -2 3 -5.125 3.6875 C-6.07375 3.790625 -7.0225 3.89375 -8 4 C-7 1 -7 1 -5.125 -0.25 C-3 -1 -3 -1 0 0 Z " fill="#1C1C1C" transform="translate(20,264)"/>
<path d="M0 0 C0.99 0.33 1.98 0.66 3 1 C2.34 2.98 1.68 4.96 1 7 C0.01 7 -0.98 7 -2 7 C-1.34 4.69 -0.68 2.38 0 0 Z " fill="#191919" transform="translate(9,158)"/>
</svg>
