<?xml version="1.0" encoding="UTF-8"?>
<svg version="1.1" xmlns="http://www.w3.org/2000/svg" width="800" height="300">
<path d="M0 0 C264 0 528 0 800 0 C800 99 800 198 800 300 C536 300 272 300 0 300 C0 201 0 102 0 0 Z " fill="#FEFEFE" transform="translate(0,0)"/>
<path d="M0 0 C5.07739919 -0.4231166 8.5478232 0.33265962 13.203125 2.34375 C15 4 15 4 18 12 C30.375 11.505 30.375 11.505 43 11 C43.33 9.02 43.66 7.04 44 5 C45.375 2.125 45.375 2.125 48 0 C52.58302427 -0.96599402 56.91109092 -1.03504504 61.16796875 1.07421875 C65.12700845 4.15534773 66.85354747 7.35332431 68.33984375 12.0703125 C69.65624765 15.91826235 72.26328259 19.01197245 74.671875 22.2421875 C81.6154447 31.7673408 84.38268033 39.81889028 85.22973633 51.4921875 C85.64032572 56.58594062 86.57030678 60.4695744 89 65 C93.57664425 67.64037168 97.81763858 68.34042673 103 69 C103.94875 69.33 104.8975 69.66 105.875 70 C119.0367367 74.21175574 134.65219936 72.1837346 148.1875 71 C157.57600218 70.20997223 166.93126928 69.7303393 176.35049438 69.64550781 C178.3148106 69.62560971 180.27890351 69.58654459 182.24291992 69.546875 C191.53995325 69.52733957 200.12642968 70.75095312 208 76 C208.0825 74.948125 208.165 73.89625 208.25 72.8125 C209.07310726 68.62837141 209.73896582 66.74613405 213 64 C216.625 64 216.625 64 220 65 C222.47965099 68.71947649 222.31806296 71.26083217 222.4609375 75.625 C223.16151425 78.71159903 224.50274139 79.19587813 227 81 C227.35948527 84.77459531 227.2732868 87.70188769 226.5 91.375 C223.20743508 94.94194533 217.4523177 95.11818352 212.8125 95.375 C208.93933109 95.30278838 205.8307689 94.3437007 202.1875 93.0625 C193.34187901 90.08236817 184.25885586 90.18462325 175 90 C175.64219502 91.98035021 176.28885644 93.95925256 176.9375 95.9375 C177.29714844 97.03964844 177.65679687 98.14179688 178.02734375 99.27734375 C178.73856668 101.88123475 178.73856668 101.88123475 180 103 C182.25543624 103.24261665 184.50945523 103.38332133 186.7734375 103.5234375 C189.48845629 104.10454679 190.39160604 104.75025268 192 107 C192.90273884 110.45742836 192.82008643 113.53000929 192 117 C189.00029105 121.20098129 185.26689825 124.15540117 181 127 C177.06665768 127.43703804 174.66173912 127.30975023 171.0625 125.625 C167.92082673 121.62650674 168.64721716 117.89192208 169 113 C169.03620728 108.73134966 169.03620728 108.73134966 166.5 105.875 C164 103 164 103 164 101 C159.16019671 104.77740744 154.35670524 108.80156268 151 114 C150.96045766 116.33299825 150.95598268 118.66708189 151 121 C147.7459891 124.8234628 146.20515527 125.79914079 141.25 126.625 C135.95845347 126.31735195 131.51029759 123.58787566 127 121 C126.63432836 114.66169154 126.63432836 114.66169154 128.3125 111.625 C131.73085985 108.33324607 135.51834178 108.91544041 140 109 C140.25523437 108.29488281 140.51046875 107.58976562 140.7734375 106.86328125 C142.11550522 103.7303652 143.76729867 101.04285575 145.625 98.1875 C146.25664062 97.21167969 146.88828125 96.23585938 147.5390625 95.23046875 C148.02117187 94.49441406 148.50328125 93.75835937 149 93 C148.67 92.67 148.34 92.34 148 92 C146.09280078 92.23151662 144.18605413 92.4679791 142.28295898 92.73110962 C138.61697857 93.16289437 134.96886463 93.16224504 131.28125 93.16796875 C130.44519226 93.17202225 129.60913452 93.17607574 128.7477417 93.18025208 C125.99845607 93.18974507 123.24929993 93.1896363 120.5 93.1875 C119.5555603 93.1882251 118.61112061 93.1889502 117.63806152 93.18969727 C94.39912207 93.18775185 71.20615386 92.14900103 48 91 C48.3609375 92.05960937 48.721875 93.11921875 49.09375 94.2109375 C49.56265793 95.59890499 50.03139931 96.98692875 50.5 98.375 C50.73847656 99.07367188 50.97695313 99.77234375 51.22265625 100.4921875 C53 105.7734375 53 105.7734375 53 108 C53.67546875 108.03738281 54.3509375 108.07476562 55.046875 108.11328125 C55.93890625 108.17902344 56.8309375 108.24476563 57.75 108.3125 C58.63171875 108.37050781 59.5134375 108.42851562 60.421875 108.48828125 C63.37638417 109.07470655 64.8336774 109.9276503 67 112 C67.625 114.875 67.625 114.875 67 118 C65.00707574 120.04402488 63.31459112 121.40752305 61 123 C60.33484375 123.54269531 59.6696875 124.08539063 58.984375 124.64453125 C53.72729034 128.68189663 49.8868308 129.61500059 43.28515625 129.30859375 C41 129 41 129 39 128 C39 127.01 39 126.02 39 125 C38.34 125 37.68 125 37 125 C36.75 121.75 36.75 121.75 37 118 C39.015625 115.765625 39.015625 115.765625 41 114 C40.4946875 113.37351562 39.989375 112.74703125 39.46875 112.1015625 C38.8190625 111.28429687 38.169375 110.46703125 37.5 109.625 C36.8503125 108.81289063 36.200625 108.00078125 35.53125 107.1640625 C34 105 34 105 34 103 C33.34 103 32.68 103 32 103 C32 102.01 32 101.02 32 100 C31.34 100 30.68 100 30 100 C29.62875 100.8353125 29.62875 100.8353125 29.25 101.6875 C27.76756602 104.43000286 26.00337342 106.60708175 24 109 C23.49726563 109.60714844 22.99453125 110.21429688 22.4765625 110.83984375 C18.25836268 115.87081866 18.25836268 115.87081866 16 117 C16.05800781 117.75925781 16.11601562 118.51851563 16.17578125 119.30078125 C16.54286397 127.38708907 16.54286397 127.38708907 14.0625 130.1875 C7.81151822 131.84592374 2.9394217 131.4720936 -3 129 C-3.07014914 113.21409533 -3.12301704 97.4282329 -3.15543652 81.64221096 C-3.17089101 74.31212077 -3.1919533 66.98212755 -3.22631836 59.65209961 C-3.25626427 53.26161239 -3.27558531 46.87119543 -3.28226548 40.48063999 C-3.28616899 37.0983425 -3.29531288 33.71624594 -3.31719017 30.33401299 C-3.33896805 26.55385297 -3.34196668 22.77410915 -3.34057617 18.99389648 C-3.351362 17.87827332 -3.36214783 16.76265015 -3.3732605 15.61322021 C-3.34939397 9.61677785 -2.85442044 5.30917078 0 0 Z " fill="#F9F9F9" transform="translate(3,156)"/>
<path d="M0 0 C2.8125 -0.1875 2.8125 -0.1875 6 0 C7 1 8 2 9 3 C15.47083003 5.07525149 21.41141432 5.24994212 28.16796875 5.16015625 C29.2571611 5.15463745 30.34635345 5.14911865 31.46855164 5.14343262 C33.8178252 5.13109227 36.16707948 5.11448167 38.51629639 5.09402466 C44.77770738 5.04025787 51.03917966 5.01861565 57.30078125 5 C59.23244141 4.9937838 59.23244141 4.9937838 61.203125 4.98744202 C77.41229646 4.95866797 93.61370822 5.33435472 109.81713867 5.73266602 C110.89429642 5.75735962 111.97145416 5.78205322 113.08125305 5.80749512 C115.09527242 5.85391321 117.10919602 5.90477372 119.12297058 5.96081543 C120.44631157 5.99096741 120.44631157 5.99096741 121.79638672 6.02172852 C122.56457733 6.04171402 123.33276794 6.06169952 124.12423706 6.08229065 C126.0924287 6.12361173 126.0924287 6.12361173 128 5 C131.03566911 4.76089183 134.08095166 4.81479913 137.125 4.8125 C138.37023437 4.79413086 138.37023437 4.79413086 139.640625 4.77539062 C146.3283327 4.75966717 153.1906553 5.34226445 159 9 C159.42667969 9.46148437 159.85335937 9.92296875 160.29296875 10.3984375 C162.9975484 12.93591497 166.33120593 14.35011728 169.625 16.01171875 C174.01917804 19.69039741 174.99427916 24.83672162 175.6171875 30.3671875 C175.72209306 31.86858663 175.80765993 33.37144759 175.875 34.875 C175.91254395 35.66366455 175.95008789 36.4523291 175.98876953 37.26489258 C176.27663329 46.52514559 174.29214193 54.04285919 168 61 C162.69554711 66.38085279 158.19286413 67.70523678 150.71362305 67.88330078 C149.57062744 67.88056152 148.42763184 67.87782227 147.25 67.875 C146.0535083 67.8941748 144.8570166 67.91334961 143.62426758 67.93310547 C140.0824586 67.98283335 136.54211111 67.99384427 133 68 C131.18616451 68.02360067 129.37235524 68.04939485 127.55859375 68.078125 C114.02532285 68.24209193 100.1544274 68.25064747 86.72265625 66.47265625 C78.59603524 65.44083973 70.49840803 65.91088485 62.375 66.78125 C56.14473547 67.35509015 49.86288457 66.66520367 43.63769531 66.25537109 C41.63908688 66.12591247 39.63984991 66.00628024 37.640625 65.88671875 C36.36960937 65.80292969 35.09859375 65.71914063 33.7890625 65.6328125 C32.63100098 65.55949707 31.47293945 65.48618164 30.27978516 65.41064453 C26.94747647 64.99342381 24.14301003 64.16096136 21 63 C19.865625 62.62875 18.73125 62.2575 17.5625 61.875 C10.70420537 58.84035636 6.45523899 52.07424207 3.69140625 45.35546875 C2.95117812 42.83367463 2.71897532 40.55745849 2.5625 37.9375 C2.27383191 33.27551038 0.83709453 30.65071581 -1.7890625 26.86328125 C-4.96470506 21.97688932 -6.0453083 15.71367548 -5 10 C-3.57222581 6.52259876 -1.86966857 3.25856521 0 0 Z " fill="#646464" transform="translate(429,216)"/>
<path d="M0 0 C4.47612864 0.88003095 7.0835 2.89997379 9.76171875 6.54296875 C10.7246478 8.54015493 11.43559635 10.49973598 12.1015625 12.61328125 C13.4179664 16.4612311 16.02500134 19.5549412 18.43359375 22.78515625 C25.37716345 32.31030955 28.14439908 40.36185903 28.99145508 52.03515625 C29.40204447 57.12890937 30.33202553 61.01254315 32.76171875 65.54296875 C37.338363 68.18334043 41.57935733 68.88339548 46.76171875 69.54296875 C47.71046875 69.87296875 48.65921875 70.20296875 49.63671875 70.54296875 C62.79845545 74.75472449 78.41391811 72.72670335 91.94921875 71.54296875 C101.33772093 70.75294098 110.69298803 70.27330805 120.11221313 70.18847656 C122.07652935 70.16857846 124.04062226 70.12951334 126.00463867 70.08984375 C135.301672 70.07030832 143.88814843 71.29392187 151.76171875 76.54296875 C151.84421875 75.49109375 151.92671875 74.43921875 152.01171875 73.35546875 C152.83482601 69.17134016 153.50068457 67.2891028 156.76171875 64.54296875 C160.38671875 64.54296875 160.38671875 64.54296875 163.76171875 65.54296875 C166.24136974 69.26244524 166.07978171 71.80380092 166.22265625 76.16796875 C166.923233 79.25456778 168.26446014 79.73884688 170.76171875 81.54296875 C171.12120402 85.31756406 171.03500555 88.24485644 170.26171875 91.91796875 C166.96915383 95.48491408 161.21403645 95.66115227 156.57421875 95.91796875 C152.70104984 95.84575713 149.59248765 94.88666945 145.94921875 93.60546875 C137.10359776 90.62533692 128.02057461 90.727592 118.76171875 90.54296875 C119.40391377 92.52331896 120.05057519 94.50222131 120.69921875 96.48046875 C121.05886719 97.58261719 121.41851562 98.68476563 121.7890625 99.8203125 C122.50028543 102.4242035 122.50028543 102.4242035 123.76171875 103.54296875 C126.01715499 103.7855854 128.27117398 103.92629008 130.53515625 104.06640625 C133.25017504 104.64751554 134.15332479 105.29322143 135.76171875 107.54296875 C136.66445759 111.00039711 136.58180518 114.07297804 135.76171875 117.54296875 C132.7620098 121.74395004 129.028617 124.69836992 124.76171875 127.54296875 C120.82837643 127.98000679 118.42345787 127.85271898 114.82421875 126.16796875 C111.68254548 122.16947549 112.40893591 118.43489083 112.76171875 113.54296875 C112.79792603 109.27431841 112.79792603 109.27431841 110.26171875 106.41796875 C107.76171875 103.54296875 107.76171875 103.54296875 107.76171875 101.54296875 C102.92191546 105.32037619 98.11842399 109.34453143 94.76171875 114.54296875 C94.72217641 116.875967 94.71770143 119.21005064 94.76171875 121.54296875 C91.50770785 125.36643155 89.96687402 126.34210954 85.01171875 127.16796875 C79.72017222 126.8603207 75.27201634 124.13084441 70.76171875 121.54296875 C70.39604711 115.20466029 70.39604711 115.20466029 72.07421875 112.16796875 C75.4925786 108.87621482 79.28006053 109.45840916 83.76171875 109.54296875 C84.01695312 108.83785156 84.2721875 108.13273437 84.53515625 107.40625 C85.87722397 104.27333395 87.52901742 101.5858245 89.38671875 98.73046875 C90.01835937 97.75464844 90.65 96.77882813 91.30078125 95.7734375 C91.78289062 95.03738281 92.265 94.30132812 92.76171875 93.54296875 C92.43171875 93.21296875 92.10171875 92.88296875 91.76171875 92.54296875 C89.85451953 92.77448537 87.94777288 93.01094785 86.04467773 93.27407837 C82.37869732 93.70586312 78.73058338 93.70521379 75.04296875 93.7109375 C74.20691101 93.714991 73.37085327 93.71904449 72.50946045 93.72322083 C69.76017482 93.73271382 67.01101868 93.73260505 64.26171875 93.73046875 C63.31727905 93.73119385 62.37283936 93.73191895 61.39978027 93.73266602 C38.16084082 93.7307206 14.96787261 92.69196978 -8.23828125 91.54296875 C-7.87734375 92.60257812 -7.51640625 93.6621875 -7.14453125 94.75390625 C-6.67562332 96.14187374 -6.20688194 97.5298975 -5.73828125 98.91796875 C-5.49980469 99.61664063 -5.26132812 100.3153125 -5.015625 101.03515625 C-3.23828125 106.31640625 -3.23828125 106.31640625 -3.23828125 108.54296875 C-2.5628125 108.58035156 -1.88734375 108.61773437 -1.19140625 108.65625 C-0.299375 108.72199219 0.59265625 108.78773438 1.51171875 108.85546875 C2.3934375 108.91347656 3.27515625 108.97148437 4.18359375 109.03125 C7.13810292 109.6176753 8.59539615 110.47061905 10.76171875 112.54296875 C11.38671875 115.41796875 11.38671875 115.41796875 10.76171875 118.54296875 C8.76879449 120.58699363 7.07630987 121.9504918 4.76171875 123.54296875 C4.0965625 124.08566406 3.43140625 124.62835938 2.74609375 125.1875 C-2.51099091 129.22486538 -6.35145045 130.15796934 -12.953125 129.8515625 C-15.23828125 129.54296875 -15.23828125 129.54296875 -17.23828125 128.54296875 C-17.23828125 127.55296875 -17.23828125 126.56296875 -17.23828125 125.54296875 C-17.89828125 125.54296875 -18.55828125 125.54296875 -19.23828125 125.54296875 C-19.48828125 122.29296875 -19.48828125 122.29296875 -19.23828125 118.54296875 C-17.22265625 116.30859375 -17.22265625 116.30859375 -15.23828125 114.54296875 C-15.74359375 113.91648437 -16.24890625 113.29 -16.76953125 112.64453125 C-17.41921875 111.82726562 -18.06890625 111.01 -18.73828125 110.16796875 C-19.38796875 109.35585938 -20.03765625 108.54375 -20.70703125 107.70703125 C-22.23828125 105.54296875 -22.23828125 105.54296875 -22.23828125 103.54296875 C-22.89828125 103.54296875 -23.55828125 103.54296875 -24.23828125 103.54296875 C-24.23828125 102.55296875 -24.23828125 101.56296875 -24.23828125 100.54296875 C-24.89828125 100.54296875 -25.55828125 100.54296875 -26.23828125 100.54296875 C-26.60953125 101.37828125 -26.60953125 101.37828125 -26.98828125 102.23046875 C-28.47071523 104.97297161 -30.23490783 107.1500505 -32.23828125 109.54296875 C-32.74101563 110.15011719 -33.24375 110.75726563 -33.76171875 111.3828125 C-37.97991857 116.41378741 -37.97991857 116.41378741 -40.23828125 117.54296875 C-40.18027344 118.30222656 -40.12226562 119.06148438 -40.0625 119.84375 C-39.69541728 127.93005782 -39.69541728 127.93005782 -42.17578125 130.73046875 C-48.0818014 132.29737205 -53.70478079 132.39896899 -59.23828125 129.54296875 C-59.23828125 128.55296875 -59.23828125 127.56296875 -59.23828125 126.54296875 C-58.24828125 126.87296875 -57.25828125 127.20296875 -56.23828125 127.54296875 C-54.57459867 127.66063051 -52.90607322 127.71805958 -51.23828125 127.73046875 C-50.37203125 127.74464844 -49.50578125 127.75882812 -48.61328125 127.7734375 C-45.97106588 127.70552813 -45.97106588 127.70552813 -43.23828125 125.54296875 C-43.40328125 124.89070313 -43.56828125 124.2384375 -43.73828125 123.56640625 C-44.27360154 120.73088159 -44.56576106 118.41703496 -44.23828125 115.54296875 C-42.42306194 113.48542648 -40.55578084 112.27239324 -38.23046875 110.828125 C-35.61150599 109.13863726 -34.67423702 107.28433885 -33.23828125 104.54296875 C-32.28799015 103.08621879 -31.30605911 101.64983129 -30.30078125 100.23046875 C-29.81738281 99.53308594 -29.33398438 98.83570313 -28.8359375 98.1171875 C-27.23828125 96.54296875 -27.23828125 96.54296875 -23.23828125 96.54296875 C-21.52734375 98.703125 -21.52734375 98.703125 -19.86328125 101.60546875 C-17.72018565 105.20198123 -15.61915484 108.44475664 -12.80078125 111.54296875 C-10.23828125 114.54296875 -10.23828125 114.54296875 -10.23828125 117.54296875 C-12.73828125 119.23046875 -12.73828125 119.23046875 -15.23828125 120.54296875 C-14.74072033 123.29938291 -14.74072033 123.29938291 -13.23828125 125.54296875 C-8.2643632 126.057512 -5.47460142 126.09900786 -1.42578125 123.04296875 C-0.61173828 122.346875 -0.61173828 122.346875 0.21875 121.63671875 C1.76171875 120.54296875 1.76171875 120.54296875 4.76171875 120.54296875 C4.76171875 119.88296875 4.76171875 119.22296875 4.76171875 118.54296875 C5.42171875 118.21296875 6.08171875 117.88296875 6.76171875 117.54296875 C7.25671875 116.05796875 7.25671875 116.05796875 7.76171875 114.54296875 C6.51455078 114.41341797 6.51455078 114.41341797 5.2421875 114.28125 C4.15550781 114.14074219 3.06882813 114.00023437 1.94921875 113.85546875 C0.87027344 113.72785156 -0.20867188 113.60023438 -1.3203125 113.46875 C-4.23828125 112.54296875 -4.23828125 112.54296875 -6.03125 110.3046875 C-7.23315382 107.55470044 -8.04962157 104.96157407 -8.73828125 102.04296875 C-9.75105275 98.0349794 -11.04137509 95.05801861 -13.23828125 91.54296875 C-12.74328125 90.05796875 -12.74328125 90.05796875 -12.23828125 88.54296875 C0.25541246 88.42498004 12.7124022 88.59668181 25.19921875 89.04296875 C42.91579859 89.66489138 60.51243234 89.80777644 78.21948242 88.90112305 C84.7433512 88.568242 91.22830656 88.41891662 97.76171875 88.54296875 C97.76171875 91.88347461 97.32666707 92.52982804 95.4609375 95.16015625 C94.97818359 95.84980469 94.49542969 96.53945312 93.99804688 97.25 C93.23137695 98.32314453 93.23137695 98.32314453 92.44921875 99.41796875 C91.45179479 100.83109328 90.45566857 102.24513483 89.4609375 103.66015625 C88.74997925 104.66067017 88.74997925 104.66067017 88.0246582 105.68139648 C86.62460271 107.67786011 86.62460271 107.67786011 85.16015625 110.5078125 C83.76171875 112.54296875 83.76171875 112.54296875 81.7890625 113.1796875 C81.09941406 113.19644531 80.40976563 113.21320313 79.69921875 113.23046875 C75.75728988 113.11476655 75.75728988 113.11476655 73.76171875 115.54296875 C73.11919525 117.61170909 73.11919525 117.61170909 72.76171875 119.54296875 C81.13686269 122.36520055 81.13686269 122.36520055 89.76171875 121.54296875 C89.76171875 120.22296875 89.76171875 118.90296875 89.76171875 117.54296875 C89.76171875 113.54296875 89.76171875 113.54296875 91.046875 112.19140625 C91.63339844 111.77117187 92.21992188 111.3509375 92.82421875 110.91796875 C97.94356185 106.85168808 101.84169642 101.38301342 104.76171875 95.54296875 C108.1104368 96.92060592 109.42902402 98.18836115 111.13671875 101.35546875 C113.49457324 105.38806102 116.02890915 107.76506393 119.76171875 110.54296875 C119.44921875 112.41796875 119.44921875 112.41796875 118.76171875 114.54296875 C117.77171875 115.20296875 116.78171875 115.86296875 115.76171875 116.54296875 C116.37449487 119.50471998 117.01544397 120.92355658 118.76171875 123.54296875 C121.53533688 124.25618484 123.12181941 123.90012187 125.609375 122.51171875 C128.53140318 120.35169792 130.43693413 118.71105378 131.4296875 115.140625 C131.76744642 112.39894163 131.76744642 112.39894163 131.76171875 108.54296875 C128.13171875 108.54296875 124.50171875 108.54296875 120.76171875 108.54296875 C119.60564605 106.33948815 118.46187154 104.13093719 117.32421875 101.91796875 C116.99873047 101.30050781 116.67324219 100.68304688 116.33789062 100.046875 C114.37912247 96.21011264 113.22950617 92.82552967 112.76171875 88.54296875 C122.39124554 83.72820535 138.89568837 87.62408597 148.62109375 90.64453125 C154.95675774 92.45697244 160.64249212 92.14364007 166.76171875 89.54296875 C168.00832199 88.49242274 168.00832199 88.49242274 168.13671875 86.16796875 C168.01296875 85.30171875 167.88921875 84.43546875 167.76171875 83.54296875 C166.93671875 83.17171875 166.11171875 82.80046875 165.26171875 82.41796875 C164.43671875 81.79921875 163.61171875 81.18046875 162.76171875 80.54296875 C162.29494402 76.84721115 162.47850057 73.24998005 162.76171875 69.54296875 C161.11171875 69.21296875 159.46171875 68.88296875 157.76171875 68.54296875 C157.24609375 69.61546875 156.73046875 70.68796875 156.19921875 71.79296875 C155.90917969 72.39625 155.61914062 72.99953125 155.3203125 73.62109375 C154.64409931 75.94764541 155.00417968 77.27536834 155.76171875 79.54296875 C154.07246197 79.28331807 152.3853657 79.00960209 150.69921875 78.73046875 C149.28962891 78.50423828 149.28962891 78.50423828 147.8515625 78.2734375 C144.76171875 77.54296875 144.76171875 77.54296875 141.60229492 76.02001953 C137.44736155 74.2125073 133.70369085 74.12497507 129.22265625 74.1796875 C128.01858627 74.17893974 128.01858627 74.17893974 126.79019165 74.17817688 C125.09756995 74.18050639 123.40494406 74.19016825 121.71240234 74.20678711 C119.16471144 74.23021138 116.61808271 74.22735977 114.0703125 74.22070312 C105.73691734 74.23605954 97.7251581 74.55597623 89.50415039 76.09204102 C72.65177492 78.86301382 44.41994586 77.18325164 29.76171875 67.54296875 C26.77500282 62.38526361 26.24906888 57.59327626 25.82421875 51.73046875 C24.77045617 40.48235155 21.45151665 30.01546463 13.078125 21.9140625 C11.76171875 20.54296875 11.76171875 20.54296875 11.76171875 18.54296875 C11.10171875 18.54296875 10.44171875 18.54296875 9.76171875 18.54296875 C9.26671875 20.02796875 9.26671875 20.02796875 8.76171875 21.54296875 C8.10171875 21.54296875 7.44171875 21.54296875 6.76171875 21.54296875 C6.85710937 20.7953125 6.9525 20.04765625 7.05078125 19.27734375 C7.16164063 18.2925 7.2725 17.30765625 7.38671875 16.29296875 C7.56074219 14.83117187 7.56074219 14.83117187 7.73828125 13.33984375 C7.7632939 10.3550012 7.43031359 8.98587885 5.76171875 6.54296875 C1.76783883 4.0014088 -1.51337565 2.6185307 -6.23828125 3.54296875 C-9.76003866 7.5281153 -10.23828125 9.10684062 -10.23828125 14.54296875 C-18.81828125 14.87296875 -27.39828125 15.20296875 -36.23828125 15.54296875 C-36.23828125 14.88296875 -36.23828125 14.22296875 -36.23828125 13.54296875 C-33.83286196 12.34025911 -32.13461534 12.33980212 -29.44921875 12.2265625 C-28.03769531 12.1637207 -28.03769531 12.1637207 -26.59765625 12.09960938 C-25.12039062 12.04063477 -25.12039062 12.04063477 -23.61328125 11.98046875 C-22.12441406 11.91569336 -22.12441406 11.91569336 -20.60546875 11.84960938 C-18.14988287 11.74335806 -15.69419422 11.64131911 -13.23828125 11.54296875 C-13.10164063 10.61226562 -12.965 9.6815625 -12.82421875 8.72265625 C-11.38345044 0.90408686 -7.3438744 -0.36278151 0 0 Z " fill="#151515" transform="translate(59.23828125,155.45703125)"/>
<path d="M0 0 C2.8125 -0.1875 2.8125 -0.1875 6 0 C7 1 8 2 9 3 C15.47083003 5.07525149 21.41141432 5.24994212 28.16796875 5.16015625 C29.2571611 5.15463745 30.34635345 5.14911865 31.46855164 5.14343262 C33.8178252 5.13109227 36.16707948 5.11448167 38.51629639 5.09402466 C44.77770738 5.04025787 51.03917966 5.01861565 57.30078125 5 C59.23244141 4.9937838 59.23244141 4.9937838 61.203125 4.98744202 C77.41229646 4.95866797 93.61370822 5.33435472 109.81713867 5.73266602 C110.89429642 5.75735962 111.97145416 5.78205322 113.08125305 5.80749512 C115.09527242 5.85391321 117.10919602 5.90477372 119.12297058 5.96081543 C120.44631157 5.99096741 120.44631157 5.99096741 121.79638672 6.02172852 C122.56457733 6.04171402 123.33276794 6.06169952 124.12423706 6.08229065 C126.0924287 6.12361173 126.0924287 6.12361173 128 5 C131.03566911 4.76089183 134.08095166 4.81479913 137.125 4.8125 C138.37023437 4.79413086 138.37023437 4.79413086 139.640625 4.77539062 C146.3283327 4.75966717 153.1906553 5.34226445 159 9 C159.42667969 9.46148437 159.85335937 9.92296875 160.29296875 10.3984375 C162.9975484 12.93591497 166.33120593 14.35011728 169.625 16.01171875 C174.01917804 19.69039741 174.99427916 24.83672162 175.6171875 30.3671875 C175.72209306 31.86858663 175.80765993 33.37144759 175.875 34.875 C175.91254395 35.66366455 175.95008789 36.4523291 175.98876953 37.26489258 C176.27663329 46.52514559 174.29214193 54.04285919 168 61 C162.69554711 66.38085279 158.19286413 67.70523678 150.71362305 67.88330078 C149.57062744 67.88056152 148.42763184 67.87782227 147.25 67.875 C146.0535083 67.8941748 144.8570166 67.91334961 143.62426758 67.93310547 C140.0824586 67.98283335 136.54211111 67.99384427 133 68 C131.18616451 68.02360067 129.37235524 68.04939485 127.55859375 68.078125 C114.02532285 68.24209193 100.1544274 68.25064747 86.72265625 66.47265625 C78.59603524 65.44083973 70.49840803 65.91088485 62.375 66.78125 C56.14473547 67.35509015 49.86288457 66.66520367 43.63769531 66.25537109 C41.63908688 66.12591247 39.63984991 66.00628024 37.640625 65.88671875 C36.36960937 65.80292969 35.09859375 65.71914063 33.7890625 65.6328125 C32.63100098 65.55949707 31.47293945 65.48618164 30.27978516 65.41064453 C26.94747647 64.99342381 24.14301003 64.16096136 21 63 C19.865625 62.62875 18.73125 62.2575 17.5625 61.875 C10.70420537 58.84035636 6.45523899 52.07424207 3.69140625 45.35546875 C2.95117812 42.83367463 2.71897532 40.55745849 2.5625 37.9375 C2.27383191 33.27551038 0.83709453 30.65071581 -1.7890625 26.86328125 C-4.96470506 21.97688932 -6.0453083 15.71367548 -5 10 C-3.57222581 6.52259876 -1.86966857 3.25856521 0 0 Z M2 3 C-1.20056327 7.39571031 -3.17210159 11.0337393 -2.6875 16.5703125 C-0.75050496 24.17301803 1.40130732 28.68547017 8 33 C8.309375 32.05125 8.61875 31.1025 8.9375 30.125 C10 27 10 27 11 25 C10.67 24.34 10.34 23.68 10 23 C12.31 23.33 14.62 23.66 17 24 C17 24.66 17 25.32 17 26 C16.401875 26.185625 15.80375 26.37125 15.1875 26.5625 C11.99950687 28.65746692 11.45644444 31.54094446 10 35 C7.8125 36.9375 7.8125 36.9375 6 38 C6.43386428 44.79720708 8.71901136 50.62717707 13.53515625 55.578125 C25.47522139 64.94952365 42.73368679 63.15052382 57 63 C56.98710937 61.8965625 56.97421875 60.793125 56.9609375 59.65625 C57 56 57 56 57.625 53.5 C58.20619921 50.81449175 58.20619921 50.81449175 57 47.5625 C55.9369034 43.77521835 56.32627014 41.78973046 57 38 C56.17657468 35.68019054 56.17657468 35.68019054 55 34 C57.92512762 36.43505389 57.92512762 36.43505389 58.2578125 38.9453125 C58.21398437 39.66460937 58.17015625 40.38390625 58.125 41.125 C57.96429211 45.84675096 58.3919686 50.32341282 59 55 C59.17893286 56.42571265 59.3572786 57.85149906 59.53515625 59.27734375 C59.68855469 60.50582031 59.84195313 61.73429687 60 63 C61.31613281 62.90460938 62.63226563 62.80921875 63.98828125 62.7109375 C80.13303317 61.64939006 80.13303317 61.64939006 87.84765625 63.453125 C102.6439952 66.02002395 120.17962869 66.37125941 135 64 C137.44251927 57.47348346 138.25867587 53.77602761 136 47 C136.9375 44.1875 136.9375 44.1875 138 42 C137.67 41.34 137.34 40.68 137 40 C136.01 40 135.02 40 134 40 C134 39.01 134 38.02 134 37 C135.9375 37.625 135.9375 37.625 138 39 C139.0723094 42.79432556 138.93231135 45.27075458 138 49 C138.165 49.886875 138.33 50.77375 138.5 51.6875 C139.14190299 55.94010731 138.61116813 59.76883603 138 64 C142.67661056 64.08468711 147.17531996 64.1216741 151.8125 63.4375 C155 63 155 63 157.5 63.8125 C160.60164164 64.04512312 161.18668047 63.41175287 163.5625 61.5 C166.91032743 58.34098713 169.11705826 55.18047615 171 51 C171.32226562 50.35546875 171.64453125 49.7109375 171.9765625 49.046875 C175.54148085 40.6770667 173.41424912 31.35760137 170.5625 23 C167.88947491 17.47850029 162.37709586 15.36406801 157 13 C155.91599105 18.7175801 155.91599105 18.7175801 157.25 24.25 C158.42159507 30.10797537 155.88541581 34.90217422 153 40 C152.01 40.66 151.02 41.32 150 42 C150.52851562 41.04738281 151.05703125 40.09476562 151.6015625 39.11328125 C152.27698801 37.84685843 152.95141527 36.57990285 153.625 35.3125 C153.975625 34.68666016 154.32625 34.06082031 154.6875 33.41601562 C156.32195389 30.29420869 157.16831634 28.6373228 156.25 25.16015625 C155.63125 24.09087891 155.63125 24.09087891 155 23 C154.07556986 20.22670957 154.0267192 18.50124151 154.1875 15.5 C154.2816013 12.06955642 154.2816013 12.06955642 152.65625 9.80078125 C148.45579586 6.95312043 144.2592073 7.53860246 139.3125 7.6875 C138.33732422 7.69716797 137.36214844 7.70683594 136.35742188 7.71679688 C131.83867632 7.38617701 131.83867632 7.38617701 128 9 C125.98035801 9.07244053 123.95832876 9.08377188 121.9375 9.0625 C120.83277344 9.05347656 119.72804688 9.04445312 118.58984375 9.03515625 C117.73519531 9.02355469 116.88054687 9.01195312 116 9 C116.01160156 9.61746094 116.02320313 10.23492187 116.03515625 10.87109375 C116.08894661 15.91970297 115.92444046 20.82368002 115.27734375 25.83203125 C115.0915947 27.28401325 114.9381839 28.74047797 114.81640625 30.19921875 C114.44335142 34.31804865 113.90156943 36.97227538 111 40 C111 37.59411466 111.70979414 35.99839035 112.5625 33.75 C113.96505902 29.6916695 113.84584573 27.22922865 113 23 C113.350625 22.01 113.70125 21.02 114.0625 20 C115.41997215 15.65608912 113.96348052 12.92696104 112 9 C104.74 9 97.48 9 90 9 C88.53691078 15.88512576 87.86947155 21.09121505 89 28 C88.67 28.66 88.34 29.32 88 30 C87.34 29.67 86.68 29.34 86 29 C86.495 28.505 86.495 28.505 87 28 C87.13961241 24.92852697 87.04131994 22.20659968 86.4375 19.1875 C86.293125 18.465625 86.14875 17.74375 86 17 C86.33 16.67 86.66 16.34 87 16 C87.04063832 14.33382885 87.042721 12.66611905 87 11 C86.34 11 85.68 11 85 11 C84.505 9.515 84.505 9.515 84 8 C78.21590487 7.97529951 72.43184038 7.95713977 66.64770508 7.94506836 C64.67960068 7.9400365 62.71150003 7.93321042 60.7434082 7.92456055 C57.91616899 7.91244483 55.08897916 7.90676024 52.26171875 7.90234375 C50.93970711 7.89460182 50.93970711 7.89460182 49.59098816 7.88670349 C48.3600518 7.88659019 48.3600518 7.88659019 47.10424805 7.88647461 C46.38254929 7.884254 45.66085052 7.88203339 44.9172821 7.87974548 C42.77773199 7.93174401 42.77773199 7.93174401 40 9 C39.19078631 11.69737896 38.54117383 14.25209793 38 17 C37.7215625 18.2065625 37.7215625 18.2065625 37.4375 19.4375 C36.97731213 21.91344677 36.97731213 21.91344677 36.82421875 24.09375 C36.40332248 29.04547086 35.57856056 32.62765819 33 37 C32.01 37 31.02 37 30 37 C30.639375 36.29875 31.27875 35.5975 31.9375 34.875 C34.20191565 31.71854182 34.59487586 29.80816696 35 26 C35.20625 25.319375 35.4125 24.63875 35.625 23.9375 C36.15393796 21.88232882 36.15393796 21.88232882 35.4375 19.375 C35.293125 18.59125 35.14875 17.8075 35 17 C35.66 16.34 36.32 15.68 37 15 C36.67801034 11.90073181 36.67801034 11.90073181 36 9 C34.51113281 8.94392578 34.51113281 8.94392578 32.9921875 8.88671875 C10.69180146 7.87331587 10.69180146 7.87331587 2 3 Z " fill="#101010" transform="translate(429,216)"/>
<path d="M0 0 C4.47612864 0.88003095 7.0835 2.89997379 9.76171875 6.54296875 C10.7246478 8.54015493 11.43559635 10.49973598 12.1015625 12.61328125 C13.4179664 16.4612311 16.02500134 19.5549412 18.43359375 22.78515625 C25.37716345 32.31030955 28.14439908 40.36185903 28.99145508 52.03515625 C29.40204447 57.12890937 30.33202553 61.01254315 32.76171875 65.54296875 C37.338363 68.18334043 41.57935733 68.88339548 46.76171875 69.54296875 C48.15221436 70.03192627 48.15221436 70.03192627 49.57080078 70.53076172 C52.89030564 71.58375844 55.78490214 71.94451431 59.25390625 72.17578125 C61.05214844 72.30146484 61.05214844 72.30146484 62.88671875 72.4296875 C64.12421875 72.50832031 65.36171875 72.58695312 66.63671875 72.66796875 C68.52777344 72.79751953 68.52777344 72.79751953 70.45703125 72.9296875 C73.55819183 73.14113027 76.6596538 73.34531618 79.76171875 73.54296875 C79.76171875 74.53296875 79.76171875 75.52296875 79.76171875 76.54296875 C39.48777877 74.89559553 39.48777877 74.89559553 29.96875 67.3203125 C27.35402976 64.02993004 26.97239999 62.06842267 26.57421875 57.91796875 C26.43371094 56.68433594 26.29320312 55.45070312 26.1484375 54.1796875 C26.02082031 52.97957031 25.89320312 51.77945313 25.76171875 50.54296875 C24.35783967 40.32220423 21.66425494 32.44325311 15.12890625 24.3671875 C13.73445587 22.50659228 12.7377721 20.64845526 11.76171875 18.54296875 C11.10171875 18.54296875 10.44171875 18.54296875 9.76171875 18.54296875 C9.26671875 20.02796875 9.26671875 20.02796875 8.76171875 21.54296875 C8.10171875 21.54296875 7.44171875 21.54296875 6.76171875 21.54296875 C6.85710937 20.7953125 6.9525 20.04765625 7.05078125 19.27734375 C7.16164062 18.2925 7.2725 17.30765625 7.38671875 16.29296875 C7.50273438 15.3184375 7.61875 14.34390625 7.73828125 13.33984375 C7.7632939 10.3550012 7.43031359 8.98587885 5.76171875 6.54296875 C1.76783883 4.0014088 -1.51337565 2.6185307 -6.23828125 3.54296875 C-9.76003866 7.5281153 -10.23828125 9.10684062 -10.23828125 14.54296875 C-18.81828125 14.87296875 -27.39828125 15.20296875 -36.23828125 15.54296875 C-36.23828125 14.88296875 -36.23828125 14.22296875 -36.23828125 13.54296875 C-33.83286196 12.34025911 -32.13461534 12.33980212 -29.44921875 12.2265625 C-28.03769531 12.1637207 -28.03769531 12.1637207 -26.59765625 12.09960938 C-25.12039062 12.04063477 -25.12039062 12.04063477 -23.61328125 11.98046875 C-22.62070312 11.93728516 -21.628125 11.89410156 -20.60546875 11.84960938 C-18.14988287 11.74335806 -15.69419422 11.64131911 -13.23828125 11.54296875 C-13.10164063 10.61226562 -12.965 9.6815625 -12.82421875 8.72265625 C-11.38345044 0.90408686 -7.3438744 -0.36278151 0 0 Z " fill="#080808" transform="translate(59.23828125,155.45703125)"/>
<path d="M0 0 C0.33 0.99 0.66 1.98 1 3 C1.66 3 2.32 3 3 3 C3.21914063 3.95261719 3.43828125 4.90523437 3.6640625 5.88671875 C5.38891549 13.98459627 5.38891549 13.98459627 10.25 20.375 C11.1575 20.91125 12.065 21.4475 13 22 C13.144375 21.2575 13.28875 20.515 13.4375 19.75 C13.90187492 17.47972261 14.41863569 15.24240521 15 13 C17.31 13.33 19.62 13.66 22 14 C22 14.66 22 15.32 22 16 C21.38125 16.4125 20.7625 16.825 20.125 17.25 C17.36840385 19.52013801 17.04983163 21.64053879 16 25 C14.5 26.875 14.5 26.875 13 28 C12.34 28 11.68 28 11 28 C10.01 30.475 10.01 30.475 9 33 C8.67 33 8.34 33 8 33 C7.98582031 32.3709375 7.97164063 31.741875 7.95703125 31.09375 C7.63073728 25.23809599 6.53814961 21.66177502 3.2109375 16.86328125 C-0.21664757 11.58922294 -0.21195647 6.04075942 0 0 Z " fill="#131313" transform="translate(424,226)"/>
<path d="M0 0 C7.26 0.66 14.52 1.32 22 2 C22.33 2.99 22.66 3.98 23 5 C21.68 5 20.36 5 19 5 C18.89429687 5.51433594 18.78859375 6.02867187 18.6796875 6.55859375 C17.02620206 12.49783744 14.56246348 17.98044573 11 23 C7.38690323 24.9641667 4.08191492 25.68998115 0 26 C1.75 22.125 1.75 22.125 4 21 C5.99960012 20.960008 8.00047242 20.95653201 10 21 C10.226875 20.21625 10.45375 19.4325 10.6875 18.625 C12.40660933 13.87698375 14.68084721 9.47897448 17 5 C16.03900391 5.03480469 16.03900391 5.03480469 15.05859375 5.0703125 C9.59012904 5.18440863 5.16901723 4.79791904 0 3 C0 2.01 0 1.02 0 0 Z " fill="#181818" transform="translate(0,244)"/>
<path d="M0 0 C1.74216797 0.04060547 1.74216797 0.04060547 3.51953125 0.08203125 C4.39996094 0.11683594 5.28039062 0.15164062 6.1875 0.1875 C3.46891403 2.90608597 1.53645865 2.58291524 -2.25 2.9375 C-7.40780984 3.51587957 -7.40780984 3.51587957 -11.125 6.875 C-12.04859301 11.32503907 -12.52992658 15.14559357 -11 19.5 C-9.75282008 21.48817478 -9.75282008 21.48817478 -6.8125 23.1875 C-3.94371271 23.57265717 -3.94371271 23.57265717 -0.8125 23.6875 C4.85416667 23.96527778 4.85416667 23.96527778 8.1875 26.1875 C2.92888571 27.83948674 -2.46159776 27.14641682 -7.8125 26.1875 C-11.28730689 24.10261586 -12.57355179 22.54592232 -14.8125 19.1875 C-15.58770227 13.33824651 -15.29432551 8.11008089 -11.8125 3.1875 C-7.81952003 0.17850438 -4.94057077 -0.14971427 0 0 Z " fill="#0E0E0E" transform="translate(14.8125,192.8125)"/>
<path d="M0 0 C0.33 0 0.66 0 1 0 C1.50588674 8.09418785 -0.88682972 14.6430856 -6 21 C-9.37910814 24.64092766 -12.09547378 26.90897485 -17.1875 27.15234375 C-20.16546891 26.90300909 -23.06154998 26.53871584 -26 26 C-25 24 -25 24 -22.25 22.8125 C-19 22 -19 22 -16.5 22.6875 C-13.74666541 23.30521575 -13.74666541 23.30521575 -10.9375 21 C-5.5370475 15.94573035 -3.49663324 10.00430842 -1.61328125 3.0390625 C-1 1 -1 1 0 0 Z " fill="#060606" transform="translate(603,256)"/>
<path d="M0 0 C5.77481791 -0.48123483 10.26953246 0.47661728 15 4 C16.93551992 7.11661994 17.20289203 9.34794339 17 13 C16.34 13 15.68 13 15 13 C14.67 10.69 14.34 8.38 14 6 C10.00999834 4.57499941 6.19469571 3.59924224 2 3 C0.17144572 7.59232335 -0.12514462 10.97358268 0.375 15.875 C0.48585937 17.02742188 0.59671875 18.17984375 0.7109375 19.3671875 C0.85402344 20.67042969 0.85402344 20.67042969 1 22 C-0.32 22 -1.64 22 -3 22 C-3.55353075 6.07061503 -3.55353075 6.07061503 0 0 Z " fill="#161616" transform="translate(3,156)"/>
<path d="M0 0 C0.66 0.33 1.32 0.66 2 1 C1.34 1.66 0.68 2.32 0 3 C-0.02216617 6.32935866 0.19899728 9.61190784 0.41796875 12.93359375 C0 16 0 16 -2.23046875 17.890625 C-7.2326584 19.89432297 -11.97711401 19.6605342 -17.0625 18 C-17.701875 17.67 -18.34125 17.34 -19 17 C-19 16.01 -19 15.02 -19 14 C-18.01 14.33 -17.02 14.66 -16 15 C-14.33631742 15.11766176 -12.66779197 15.17509083 -11 15.1875 C-10.13375 15.20167969 -9.2675 15.21585937 -8.375 15.23046875 C-5.73278463 15.16255938 -5.73278463 15.16255938 -3 13 C-3.11859375 12.31292969 -3.2371875 11.62585938 -3.359375 10.91796875 C-3.48828125 10.01691406 -3.6171875 9.11585938 -3.75 8.1875 C-3.88921875 7.29417969 -4.0284375 6.40085937 -4.171875 5.48046875 C-4 3 -4 3 -2.015625 1.17578125 C-1.35046875 0.78777344 -0.6853125 0.39976562 0 0 Z " fill="#070707" transform="translate(19,268)"/>
<path d="M0 0 C0.66 0.66 1.32 1.32 2 2 C1.67 2.680625 1.34 3.36125 1 4.0625 C-0.18453566 6.99578446 -0.18453566 6.99578446 0.0625 10.25 C-0.02360065 15.41603921 -1.03554646 20.83957907 -4.60546875 24.765625 C-5.06566406 25.17296875 -5.52585937 25.5803125 -6 26 C-6.99 25.67 -7.98 25.34 -9 25 C-8.360625 24.13375 -7.72125 23.2675 -7.0625 22.375 C-4.99019986 18.98396341 -4.42247465 16.88676677 -4 13 C-3.79375 12.319375 -3.5875 11.63875 -3.375 10.9375 C-2.83067246 8.89287506 -2.83067246 8.89287506 -3.6875 6.5 C-3.790625 5.675 -3.89375 4.85 -4 4 C-2.0625 1.6875 -2.0625 1.6875 0 0 Z " fill="#000000" transform="translate(467,229)"/>
<path d="M0 0 C2.60427663 2.60427663 2.50528695 4.39566205 3 8 C3.32871094 9.1446875 3.32871094 9.1446875 3.6640625 10.3125 C4.10572171 13.84577369 3.19396203 15.92627731 1.8125 19.1875 C1.38582031 20.23292969 0.95914063 21.27835938 0.51953125 22.35546875 C-1.09002716 25.15667966 -2.00308155 25.95396637 -5 27 C-4.00734643 24.46170776 -2.98445893 21.96695587 -1.82421875 19.5 C-0.69196301 17.00981554 0.30720879 14.64839171 1 12 C-0.20968895 9.2332494 -0.20968895 9.2332494 -2 7 C-1.58333333 1.58333333 -1.58333333 1.58333333 0 0 Z " fill="#000000" transform="translate(584,231)"/>
<path d="M0 0 C2 2 2 2 2.01171875 4.3203125 C1.90472656 5.24585938 1.79773438 6.17140625 1.6875 7.125 C1.51927734 8.60226563 1.51927734 8.60226563 1.34765625 10.109375 C1.23292969 11.06328125 1.11820313 12.0171875 1 13 C0.93683594 13.76828125 0.87367188 14.5365625 0.80859375 15.328125 C0.42512106 19.6034375 -0.49052942 22.50856266 -3 26 C-3.99 25.34 -4.98 24.68 -6 24 C-5.34 23.34 -4.68 22.68 -4 22 C-3.27982196 19.71171706 -3.27982196 19.71171706 -2.8125 17.125 C-2.63332031 16.26132813 -2.45414063 15.39765625 -2.26953125 14.5078125 C-1.85548873 12.05460461 -1.85548873 12.05460461 -2.5390625 9.9453125 C-3.13919757 7.41253908 -2.55294951 6.12707883 -1.5625 3.75 C-1.27503906 3.04359375 -0.98757813 2.3371875 -0.69140625 1.609375 C-0.34916016 0.81273437 -0.34916016 0.81273437 0 0 Z " fill="#000000" transform="translate(544,231)"/>
<path d="M0 0 C1.875 0.1875 1.875 0.1875 4 1 C6.38879811 4.98133018 5.79447983 7.58622317 5 12 C5.2644354 14.34214207 5.58244638 16.68025766 6 19 C5.01 18.67 4.02 18.34 3 18 C0.62790698 11.22259136 0.62790698 11.22259136 1.875 7.125 C2.24625 6.42375 2.6175 5.7225 3 5 C3 4.34 3 3.68 3 3 C2.01 3 1.02 3 0 3 C0 2.01 0 1.02 0 0 Z " fill="#000000" transform="translate(563,253)"/>
<path d="M0 0 C0.99 0.33 1.98 0.66 3 1 C4.00344253 7.30735307 4.50873071 13.63440427 5 20 C4.01 19.67 3.02 19.34 2 19 C-0.08254633 13.95301272 -0.10550722 9.28186783 1 4 C0.6422386 1.72349255 0.6422386 1.72349255 0 0 Z " fill="#000000" transform="translate(484,250)"/>
<path d="M0 0 C4.62 0 9.24 0 14 0 C13.67 0.99 13.34 1.98 13 3 C6.565 3.495 6.565 3.495 0 4 C-0.33 3.34 -0.66 2.68 -1 2 C-0.67 1.34 -0.34 0.68 0 0 Z " fill="#2C2C2C" transform="translate(139,228)"/>
<path d="M0 0 C0.66 0.33 1.32 0.66 2 1 C1.814375 1.66 1.62875 2.32 1.4375 3 C1.03842212 5.73653403 1.13760553 7.4471767 1.5625 10.125 C2 14 2 14 0 17 C-0.99 16.67 -1.98 16.34 -3 16 C-2.67 15.34 -2.34 14.68 -2 14 C-1.86270799 10.91092972 -1.91919487 8.31587458 -2.6875 5.3125 C-2.790625 4.549375 -2.89375 3.78625 -3 3 C-1.5625 1.1875 -1.5625 1.1875 0 0 Z " fill="#000000" transform="translate(517,230)"/>
<path d="M0 0 C0.33 0.99 0.66 1.98 1 3 C-1.42182607 6.6327391 -2.50445117 6.68131947 -6.625 7.6875 C-7.62789063 7.93886719 -8.63078125 8.19023437 -9.6640625 8.44921875 C-10.43492188 8.63097656 -11.20578125 8.81273437 -12 9 C-10.25 5.125 -10.25 5.125 -8 4 C-6.00039988 3.960008 -3.99952758 3.95653201 -2 4 C-1.34 2.68 -0.68 1.36 0 0 Z " fill="#0B0B0B" transform="translate(12,261)"/>
<path d="M0 0 C4.60470588 1.45411765 4.60470588 1.45411765 6.3125 3.8125 C7.09802451 6.31189617 7.14472595 8.39493282 7 11 C6.34 11 5.68 11 5 11 C4.67 8.69 4.34 6.38 4 4 C2.02 3.34 0.04 2.68 -2 2 C-1.34 1.34 -0.68 0.68 0 0 Z " fill="#282828" transform="translate(13,158)"/>
<path d="M0 0 C0.33 0 0.66 0 1 0 C1.33 5.94 1.66 11.88 2 18 C-0.49059397 13.01881207 -1.2136995 10.24901803 -0.5625 4.75 C-0.46066406 3.85796875 -0.35882812 2.9659375 -0.25390625 2.046875 C-0.17011719 1.37140625 -0.08632813 0.6959375 0 0 Z " fill="#242424" transform="translate(603,242)"/>
<path d="M0 0 C0.99 0 1.98 0 3 0 C3 2 3 2 1.6875 3.4375 C1.130625 3.953125 0.57375 4.46875 0 5 C-0.556875 5.556875 -1.11375 6.11375 -1.6875 6.6875 C-2.120625 7.120625 -2.55375 7.55375 -3 8 C-3.33 7.34 -3.66 6.68 -4 6 C-1.68421053 1.68421053 -1.68421053 1.68421053 0 0 Z " fill="#111111" transform="translate(5,194)"/>
<path d="M0 0 C0.625 1.875 0.625 1.875 1 4 C0.34 4.66 -0.32 5.32 -1 6 C-4.125 5.625 -4.125 5.625 -7 5 C-6.67 4.34 -6.34 3.68 -6 3 C-4.35 3 -2.7 3 -1 3 C-0.67 2.01 -0.34 1.02 0 0 Z " fill="#060606" transform="translate(144,262)"/>
<path d="M0 0 C0.99 0.33 1.98 0.66 3 1 C2 3 2 3 -1.0625 4.125 C-2.031875 4.41375 -3.00125 4.7025 -4 5 C-2.25 1.125 -2.25 1.125 0 0 Z " fill="#181818" transform="translate(4,265)"/>
</svg>
