<?xml version="1.0" encoding="UTF-8"?>
<svg version="1.1" xmlns="http://www.w3.org/2000/svg" width="800" height="300">
<path d="M0 0 C264 0 528 0 800 0 C800 99 800 198 800 300 C536 300 272 300 0 300 C0 201 0 102 0 0 Z " fill="#FEFEFE" transform="translate(0,0)"/>
<path d="M0 0 C7.1 1.18333333 7.1 1.18333333 11 4 C13 7 13 7 14 12 C26.375 11.505 26.375 11.505 39 11 C39.33 9.02 39.66 7.04 40 5 C41.375 2.125 41.375 2.125 44 0 C49.19290391 -1.02047557 54.34981418 -0.89432458 59 1.8125 C63.30648142 5.36508899 64.03343524 10.74372878 65 16 C65.66 16 66.32 16 67 16 C68.91847864 18.87771795 70.50079488 21.88626628 72 25 C72.66 25 73.32 25 74 25 C80.47375083 37.99867755 82.56193302 50.72084079 84 65 C85.7015625 65.4640625 85.7015625 65.4640625 87.4375 65.9375 C91 67 91 67 92 68 C93.5778125 68.2165625 93.5778125 68.2165625 95.1875 68.4375 C99 69 99 69 101.7578125 69.99609375 C105.47246846 71.14629445 108.80653054 71.41973815 112.6875 71.625 C113.99074219 71.69976562 115.29398437 71.77453125 116.63671875 71.8515625 C124.82853968 72.17531225 132.87643889 72.00805346 141.04394531 71.28735352 C188.03260372 67.15636674 188.03260372 67.15636674 204 75 C204.13019531 74.06929688 204.26039063 73.13859375 204.39453125 72.1796875 C205.12457977 68.34575528 206.13170235 66.63573298 209 64 C212 63.375 212 63.375 215 64 C217.375 65.9375 217.375 65.9375 219 69 C219.10728098 71.35605528 218.99871002 73.64954998 218.875 76.00390625 C218.91625 76.66261719 218.9575 77.32132812 219 78 C220.31337396 79.0260734 221.64664105 80.02727325 223 81 C223.35948527 84.77459531 223.2732868 87.70188769 222.5 91.375 C219.20743508 94.94194533 213.4523177 95.11818352 208.8125 95.375 C204.93933109 95.30278838 201.8307689 94.3437007 198.1875 93.0625 C189.34187901 90.08236817 180.25885586 90.18462325 171 90 C171.64219502 91.98035021 172.28885644 93.95925256 172.9375 95.9375 C173.29714844 97.03964844 173.65679687 98.14179688 174.02734375 99.27734375 C174.73856668 101.88123475 174.73856668 101.88123475 176 103 C178.25543624 103.24261665 180.50945523 103.38332133 182.7734375 103.5234375 C185.48949551 104.10476921 186.39924985 104.7418885 188 107 C188.94239319 111.17867366 188.93786082 115.31497673 186.828125 119.10546875 C183.06342205 123.65610195 179.43445379 126.6087485 173.5 127.5625 C170 127 170 127 167.0625 124.4375 C164.58491231 121.00137019 164.5328977 118.20392074 165 114 C165.23332031 113.35804688 165.46664062 112.71609375 165.70703125 112.0546875 C166.22863849 109.89472739 166.22863849 109.89472739 164.78515625 107.859375 C163.93244141 106.81523437 163.93244141 106.81523437 163.0625 105.75 C162.49660156 105.04359375 161.93070313 104.3371875 161.34765625 103.609375 C160.68056641 102.81273437 160.68056641 102.81273437 160 102 C156.27037715 103.24320762 155.32521873 104.7955123 152.9375 107.875 C152.24527344 108.75929688 151.55304688 109.64359375 150.83984375 110.5546875 C149.50451974 112.32944934 148.23199273 114.1520109 147 116 C147.20625 116.61875 147.4125 117.2375 147.625 117.875 C148 120 148 120 146.1875 122.6875 C143.59197639 125.43133924 142.79624127 125.91529348 139.0625 126.3125 C134.16574549 126.27108981 126.53622019 124.53622019 123 121 C122.50681837 116.72575917 122.5475449 114.66454343 125 111.0625 C129.03031789 108.29165645 131.19839142 108.59308402 136 109 C136.24492187 108.30519531 136.48984375 107.61039062 136.7421875 106.89453125 C138.20250025 103.53399786 140.06281778 100.71425133 142.125 97.6875 C142.84945312 96.61886719 143.57390625 95.55023438 144.3203125 94.44921875 C145.15175781 93.23685547 145.15175781 93.23685547 146 92 C144.71061523 92.16226074 143.42123047 92.32452148 142.09277344 92.49169922 C137.21887811 93.03066814 132.41533694 93.14460987 127.515625 93.1328125 C126.18702705 93.13479141 126.18702705 93.13479141 124.83158875 93.1368103 C121.97102269 93.1387144 119.11055601 93.13240899 116.25 93.125 C115.27112823 93.12411377 114.29225647 93.12322754 113.28372192 93.12231445 C100.00123706 93.10820854 86.75046941 92.90243772 73.47875977 92.3581543 C63.9804462 91.96896537 54.50474783 91.89347107 45 92 C46.78702712 101.46077425 46.78702712 101.46077425 52.41796875 108.5234375 C55.04258392 109.22215954 55.04258392 109.22215954 57.6796875 109.61328125 C60 110 60 110 62.6875 111.875 C64 114 64 114 63.87890625 116.40625 C62.72626898 119.80781066 61.23669576 120.68983322 58.25 122.625 C56.95835938 123.47964844 56.95835938 123.47964844 55.640625 124.3515625 C54.76921875 124.89554687 53.8978125 125.43953125 53 126 C52.16210938 126.55945313 51.32421875 127.11890625 50.4609375 127.6953125 C47.81547589 129.09782707 46.33369631 129.35167341 43.375 129.25 C42.61960938 129.23453125 41.86421875 129.2190625 41.0859375 129.203125 C39 129 39 129 36 128 C33.52657734 124.28986601 33.61496514 122.38939738 34 118 C35.51953125 115.77734375 35.51953125 115.77734375 37 114 C36.4225 113.22914063 35.845 112.45828125 35.25 111.6640625 C34.5075 110.66117187 33.765 109.65828125 33 108.625 C32.2575 107.62726563 31.515 106.62953125 30.75 105.6015625 C29 103 29 103 29 101 C24.95944944 103.10690801 22.88736449 105.18025768 20.4375 109 C17.38256446 113.74114707 17.38256446 113.74114707 14.77734375 115.50390625 C13.89755859 116.24447266 13.89755859 116.24447266 13 117 C12.74137153 119.38601555 12.74137153 119.38601555 13.125 121.9375 C13.23046875 124.61328125 13.23046875 124.61328125 13 127 C10.4375 129.625 10.4375 129.625 7 131 C4.69 131 2.38 131 0 131 C0 87.77 0 44.54 0 0 Z " fill="#FAFAFA" transform="translate(0,156)"/>
<path d="M0 0 C3 1.125 3 1.125 5 3.6875 C9.32001529 7.19751242 13.01420795 6.59726205 18.4296875 6.49609375 C22.01158558 6.23583078 22.01158558 6.23583078 25.37890625 5.11328125 C29.72194312 3.92796482 33.58676641 3.82463072 38.0625 3.875 C38.917229 3.87959229 39.77195801 3.88418457 40.65258789 3.88891602 C51.61101098 4.03859687 63.01807355 4.52413677 73.78515625 6.68359375 C80.82494371 8.0865849 88.40862453 7.17685983 95.53857422 6.76416016 C105.97627002 6.1740504 116.4101612 5.95654549 126.86279297 5.89282227 C128.52755234 5.88101202 130.19228348 5.86398605 131.85693359 5.84155273 C134.22511537 5.81141051 136.59258459 5.80161354 138.9609375 5.796875 C139.6675351 5.78456848 140.37413269 5.77226196 141.10214233 5.75958252 C146.17862453 5.78191008 149.57350682 6.81558656 154 9.125 C155.125 11.0625 155.125 11.0625 156 13.125 C157.65788785 14.46923339 159.32576317 15.80118483 161 17.125 C166.84894313 23.54457172 170.43621605 29.48716048 171.3125 38.25 C170.50377503 48.27818958 165.21584103 59.73516824 158.5 67.25 C153.59544727 70.92841455 147.51979135 70.25205331 141.61328125 70.1875 C140.79796432 70.18371338 139.9826474 70.17992676 139.1426239 70.17602539 C135.69405414 70.15997515 132.245609 70.13260761 128.79711914 70.10449219 C119.32798193 70.03416536 109.89614519 70.09692316 100.43473816 70.52130127 C85.70750233 71.18117987 71.09029734 71.04011423 56.35986328 70.51074219 C52.44729389 70.37314645 48.53447789 70.26017907 44.62109375 70.1484375 C42.09109647 70.06396567 39.56114587 69.97808136 37.03125 69.890625 C35.88217163 69.85922424 34.73309326 69.82782349 33.54919434 69.79547119 C23.3765977 69.39496198 11.83441329 68.06975681 4.34765625 60.44140625 C-1.82681152 52.93844664 -3.0637654 44.33844549 -4.4609375 34.97265625 C-4.94344294 32.42376882 -5.62919869 30.37782463 -6.625 28 C-8.28641092 23.3583262 -8.40171748 18.75701372 -8.5 13.875 C-8.5304541 13.09366699 -8.5609082 12.31233398 -8.59228516 11.50732422 C-8.59503932 7.23378247 -8.35530653 5.58571414 -5.65625 2.0859375 C-3 0.125 -3 0.125 0 0 Z " fill="#646464" transform="translate(433,214.875)"/>
<path d="M0 0 C4.29197832 0.72241219 7.12877693 1.92424962 9.76171875 5.46484375 C11.1739519 9.06882226 12.06252045 12.66253681 12.76171875 16.46484375 C13.42171875 16.46484375 14.08171875 16.46484375 14.76171875 16.46484375 C16.68019739 19.3425617 18.26251363 22.35111003 19.76171875 25.46484375 C20.42171875 25.46484375 21.08171875 25.46484375 21.76171875 25.46484375 C28.23546958 38.4635213 30.32365177 51.18568454 31.76171875 65.46484375 C33.46328125 65.92890625 33.46328125 65.92890625 35.19921875 66.40234375 C38.76171875 67.46484375 38.76171875 67.46484375 39.76171875 68.46484375 C41.33953125 68.68140625 41.33953125 68.68140625 42.94921875 68.90234375 C46.76171875 69.46484375 46.76171875 69.46484375 49.51953125 70.4609375 C53.23418721 71.6111382 56.56824929 71.8845819 60.44921875 72.08984375 C61.75246094 72.16460937 63.05570312 72.239375 64.3984375 72.31640625 C72.59025843 72.640156 80.63815764 72.47289721 88.80566406 71.75219727 C135.79432247 67.62121049 135.79432247 67.62121049 151.76171875 75.46484375 C151.89191406 74.53414063 152.02210938 73.6034375 152.15625 72.64453125 C152.88629852 68.81059903 153.8934211 67.10057673 156.76171875 64.46484375 C159.76171875 63.83984375 159.76171875 63.83984375 162.76171875 64.46484375 C165.13671875 66.40234375 165.13671875 66.40234375 166.76171875 69.46484375 C166.86899973 71.82089903 166.76042877 74.11439373 166.63671875 76.46875 C166.67796875 77.12746094 166.71921875 77.78617187 166.76171875 78.46484375 C168.07509271 79.49091715 169.4083598 80.492117 170.76171875 81.46484375 C171.12120402 85.23943906 171.03500555 88.16673144 170.26171875 91.83984375 C166.96915383 95.40678908 161.21403645 95.58302727 156.57421875 95.83984375 C152.70104984 95.76763213 149.59248765 94.80854445 145.94921875 93.52734375 C137.10359776 90.54721192 128.02057461 90.649467 118.76171875 90.46484375 C119.40391377 92.44519396 120.05057519 94.42409631 120.69921875 96.40234375 C121.05886719 97.50449219 121.41851562 98.60664063 121.7890625 99.7421875 C122.50028543 102.3460785 122.50028543 102.3460785 123.76171875 103.46484375 C126.01715499 103.7074604 128.27117398 103.84816508 130.53515625 103.98828125 C133.25121426 104.56961296 134.1609686 105.20673225 135.76171875 107.46484375 C136.70411194 111.64351741 136.69957957 115.77982048 134.58984375 119.5703125 C130.8251408 124.1209457 127.19617254 127.07359225 121.26171875 128.02734375 C117.76171875 127.46484375 117.76171875 127.46484375 114.82421875 124.90234375 C112.34663106 121.46621394 112.29461645 118.66876449 112.76171875 114.46484375 C112.99503906 113.82289063 113.22835937 113.1809375 113.46875 112.51953125 C113.99035724 110.35957114 113.99035724 110.35957114 112.546875 108.32421875 C111.69416016 107.28007812 111.69416016 107.28007812 110.82421875 106.21484375 C110.25832031 105.5084375 109.69242188 104.80203125 109.109375 104.07421875 C108.44228516 103.27757812 108.44228516 103.27757812 107.76171875 102.46484375 C104.0320959 103.70805137 103.08693748 105.26035605 100.69921875 108.33984375 C100.00699219 109.22414063 99.31476563 110.1084375 98.6015625 111.01953125 C97.26623849 112.79429309 95.99371148 114.61685465 94.76171875 116.46484375 C94.96796875 117.08359375 95.17421875 117.70234375 95.38671875 118.33984375 C95.76171875 120.46484375 95.76171875 120.46484375 93.94921875 123.15234375 C91.35369514 125.89618299 90.55796002 126.38013723 86.82421875 126.77734375 C81.92746424 126.73593356 74.29793894 125.00106394 70.76171875 121.46484375 C70.26853712 117.19060292 70.30926365 115.12938718 72.76171875 111.52734375 C76.79203664 108.7565002 78.96011017 109.05792777 83.76171875 109.46484375 C84.00664062 108.77003906 84.2515625 108.07523437 84.50390625 107.359375 C85.964219 103.99884161 87.82453653 101.17909508 89.88671875 98.15234375 C90.61117187 97.08371094 91.335625 96.01507813 92.08203125 94.9140625 C92.91347656 93.70169922 92.91347656 93.70169922 93.76171875 92.46484375 C92.47233398 92.62710449 91.18294922 92.78936523 89.85449219 92.95654297 C84.98059686 93.49551189 80.17705569 93.60945362 75.27734375 93.59765625 C73.9487458 93.59963516 73.9487458 93.59963516 72.5933075 93.60165405 C69.73274144 93.60355815 66.87227476 93.59725274 64.01171875 93.58984375 C63.03284698 93.58895752 62.05397522 93.58807129 61.04544067 93.5871582 C47.76295581 93.57305229 34.51218816 93.36728147 21.24047852 92.82299805 C11.74216495 92.43380912 2.26646658 92.35831482 -7.23828125 92.46484375 C-5.45125413 101.925618 -5.45125413 101.925618 0.1796875 108.98828125 C2.80430267 109.68700329 2.80430267 109.68700329 5.44140625 110.078125 C7.76171875 110.46484375 7.76171875 110.46484375 10.44921875 112.33984375 C11.76171875 114.46484375 11.76171875 114.46484375 11.640625 116.87109375 C10.48798773 120.27265441 8.99841451 121.15467697 6.01171875 123.08984375 C4.72007813 123.94449219 4.72007813 123.94449219 3.40234375 124.81640625 C2.5309375 125.36039062 1.65953125 125.904375 0.76171875 126.46484375 C-0.07617188 127.02429688 -0.9140625 127.58375 -1.77734375 128.16015625 C-4.42280536 129.56267082 -5.90458494 129.81651716 -8.86328125 129.71484375 C-9.61867187 129.699375 -10.3740625 129.68390625 -11.15234375 129.66796875 C-13.23828125 129.46484375 -13.23828125 129.46484375 -16.23828125 128.46484375 C-18.71170391 124.75470976 -18.62331611 122.85424113 -18.23828125 118.46484375 C-16.71875 116.2421875 -16.71875 116.2421875 -15.23828125 114.46484375 C-15.81578125 113.69398438 -16.39328125 112.923125 -16.98828125 112.12890625 C-17.73078125 111.12601562 -18.47328125 110.123125 -19.23828125 109.08984375 C-19.98078125 108.09210938 -20.72328125 107.094375 -21.48828125 106.06640625 C-23.23828125 103.46484375 -23.23828125 103.46484375 -23.23828125 101.46484375 C-27.27883181 103.57175176 -29.35091676 105.64510143 -31.80078125 109.46484375 C-34.85571679 114.20599082 -34.85571679 114.20599082 -37.4609375 115.96875 C-38.34072266 116.70931641 -38.34072266 116.70931641 -39.23828125 117.46484375 C-39.49690972 119.8508593 -39.49690972 119.8508593 -39.11328125 122.40234375 C-39.0078125 125.078125 -39.0078125 125.078125 -39.23828125 127.46484375 C-42.53017898 130.83703166 -44.42696463 131.41250074 -49.11328125 131.71484375 C-50.14453125 131.63234375 -51.17578125 131.54984375 -52.23828125 131.46484375 C-52.23828125 130.47484375 -52.23828125 129.48484375 -52.23828125 128.46484375 C-51.67238281 128.33207031 -51.10648438 128.19929688 -50.5234375 128.0625 C-49.42322266 127.79759766 -49.42322266 127.79759766 -48.30078125 127.52734375 C-47.56988281 127.35332031 -46.83898438 127.17929687 -46.0859375 127 C-44.23858227 126.62596806 -44.23858227 126.62596806 -43.23828125 125.46484375 C-43.32791187 123.77342719 -43.48405801 122.08524773 -43.67578125 120.40234375 C-43.77761719 119.48324219 -43.87945312 118.56414062 -43.984375 117.6171875 C-44.06816406 116.90691406 -44.15195312 116.19664062 -44.23828125 115.46484375 C-38.48828125 111.46484375 -38.48828125 111.46484375 -36.23828125 111.46484375 C-35.99335937 110.74941406 -35.7484375 110.03398437 -35.49609375 109.296875 C-34.08468449 106.11901254 -32.32546606 103.82837376 -30.11328125 101.15234375 C-29.02660156 99.82783203 -29.02660156 99.82783203 -27.91796875 98.4765625 C-27.36367188 97.81269531 -26.809375 97.14882812 -26.23828125 96.46484375 C-24.44921875 96.6484375 -24.44921875 96.6484375 -22.23828125 97.46484375 C-20.52734375 99.6875 -20.52734375 99.6875 -18.86328125 102.52734375 C-15.91196292 107.41008639 -12.75151011 111.97357315 -9.23828125 116.46484375 C-9.56828125 117.12484375 -9.89828125 117.78484375 -10.23828125 118.46484375 C-12.30078125 119.08984375 -12.30078125 119.08984375 -14.23828125 119.46484375 C-14.28100225 121.1309628 -14.27891957 122.7986726 -14.23828125 124.46484375 C-13.01007924 125.8924433 -13.01007924 125.8924433 -9.36328125 126.02734375 C-2.74589829 126.00606599 2.09814146 121.82029182 6.76171875 117.46484375 C7.25671875 115.97984375 7.25671875 115.97984375 7.76171875 114.46484375 C6.51455078 114.3875 6.51455078 114.3875 5.2421875 114.30859375 C1.91937176 113.96172805 -1.05959605 113.50118221 -4.23828125 112.46484375 C-6.17578125 109.08984375 -6.17578125 109.08984375 -6.6640625 106.9609375 C-7.38135209 103.84292358 -8.59348421 101.08674868 -9.86328125 98.15234375 C-11.08267116 95.2664543 -12.24741728 92.43743567 -13.23828125 89.46484375 C-11.66343688 87.88999938 -10.0970272 88.33505537 -7.91015625 88.33203125 C-6.97993652 88.33009766 -6.0497168 88.32816406 -5.09130859 88.32617188 C-4.06730957 88.33068359 -3.04331055 88.33519531 -1.98828125 88.33984375 C-0.92432129 88.34177734 0.13963867 88.34371094 1.23583984 88.34570312 C9.62666222 88.38937373 18.00234725 88.64692128 26.38671875 88.96484375 C43.33855555 89.60188801 60.15445773 89.68948341 77.09790039 88.82299805 C83.99525463 88.47369322 90.85453068 88.34755188 97.76171875 88.46484375 C98.09171875 89.12484375 98.42171875 89.78484375 98.76171875 90.46484375 C98.28545044 91.14474365 98.28545044 91.14474365 97.79956055 91.83837891 C96.34532005 93.91935117 94.89724348 96.00454206 93.44921875 98.08984375 C92.94970703 98.80269531 92.45019531 99.51554687 91.93554688 100.25 C89.7221556 103.44549203 87.79831829 106.38381493 86.19140625 109.94140625 C84.76171875 112.46484375 84.76171875 112.46484375 82.5703125 113.19921875 C81.39662109 113.20695312 81.39662109 113.20695312 80.19921875 113.21484375 C76.53762779 113.15417312 76.53762779 113.15417312 73.76171875 115.46484375 C73.11919525 117.53358409 73.11919525 117.53358409 72.76171875 119.46484375 C73.29796875 119.58859375 73.83421875 119.71234375 74.38671875 119.83984375 C76.76171875 120.46484375 76.76171875 120.46484375 79.63671875 121.52734375 C82.85135615 122.49173497 85.42729261 122.62362595 88.76171875 122.46484375 C89.97862408 120.6995478 89.97862408 120.6995478 90.76171875 118.46484375 C89.86490459 116.3375409 89.86490459 116.3375409 88.76171875 114.46484375 C89.26960937 114.12453125 89.7775 113.78421875 90.30078125 113.43359375 C96.89639033 108.78949447 102.3001079 103.34199847 104.76171875 95.46484375 C105.75171875 95.46484375 106.74171875 95.46484375 107.76171875 95.46484375 C109.41015625 97.4765625 109.41015625 97.4765625 111.13671875 100.15234375 C113.13610206 103.15141871 115.00892169 105.92732558 117.63671875 108.40234375 C119.76171875 110.46484375 119.76171875 110.46484375 120.76171875 113.46484375 C118.78171875 114.94984375 118.78171875 114.94984375 116.76171875 116.46484375 C117.03712579 120.28297822 117.03712579 120.28297822 118.76171875 123.46484375 C122.25906103 123.07625016 125.41960136 122.57888288 128.76171875 121.46484375 C129.97053971 119.46467909 129.97053971 119.46467909 130.76171875 117.46484375 C131.42171875 117.46484375 132.08171875 117.46484375 132.76171875 117.46484375 C132.43171875 114.82484375 132.10171875 112.18484375 131.76171875 109.46484375 C131.09785156 109.48546875 130.43398437 109.50609375 129.75 109.52734375 C122.74509061 109.36372543 122.74509061 109.36372543 120.125 106.96875 C118.77774736 104.85649586 117.75150178 102.76683914 116.76171875 100.46484375 C116.35953125 99.59085937 115.95734375 98.716875 115.54296875 97.81640625 C112.58385251 90.99844248 112.58385251 90.99844248 113.76171875 87.46484375 C125.90928502 87.05322284 136.8459716 86.90963779 148.51953125 90.5625 C154.4978279 92.22633919 160.11461789 92.45101858 165.94921875 90.27734375 C167.96180043 88.57560325 167.96180043 88.57560325 168.38671875 85.96484375 C168.18046875 85.13984375 167.97421875 84.31484375 167.76171875 83.46484375 C166.93671875 83.09359375 166.11171875 82.72234375 165.26171875 82.33984375 C164.43671875 81.72109375 163.61171875 81.10234375 162.76171875 80.46484375 C162.29494402 76.76908615 162.47850057 73.17185505 162.76171875 69.46484375 C161.44171875 68.80484375 160.12171875 68.14484375 158.76171875 67.46484375 C158.08109375 68.51671875 157.40046875 69.56859375 156.69921875 70.65234375 C156.31636719 71.24402344 155.93351563 71.83570313 155.5390625 72.4453125 C154.51886902 75.0957649 155.02251198 76.77301531 155.76171875 79.46484375 C154.07246197 79.20519307 152.3853657 78.93147709 150.69921875 78.65234375 C149.28962891 78.42611328 149.28962891 78.42611328 147.8515625 78.1953125 C144.76171875 77.46484375 144.76171875 77.46484375 141.81640625 75.91015625 C135.94296931 73.29216695 129.2455086 74.06876265 122.94921875 74.15234375 C121.51668445 74.16034971 120.08414857 74.16807735 118.65161133 74.17553711 C108.63478746 74.26342062 98.72135255 74.9213074 88.74365234 75.81420898 C79.3093167 76.61359108 70.17383964 76.3953279 60.76171875 75.46484375 C60.0857666 75.40280762 59.40981445 75.34077148 58.71337891 75.27685547 C37.60247235 73.25620321 37.60247235 73.25620321 29.96875 67.27734375 C27.25909718 63.82433484 26.95678722 61.62062112 26.57421875 57.27734375 C26.43444485 55.93727367 26.29251353 54.59742687 26.1484375 53.2578125 C26.02082031 52.00613281 25.89320312 50.75445312 25.76171875 49.46484375 C24.03344332 37.52843684 19.49004636 27.90827045 10.76171875 19.46484375 C8.78171875 20.45484375 8.78171875 20.45484375 6.76171875 21.46484375 C6.85710938 20.7171875 6.9525 19.96953125 7.05078125 19.19921875 C7.16164062 18.214375 7.2725 17.22953125 7.38671875 16.21484375 C7.50273438 15.2403125 7.61875 14.26578125 7.73828125 13.26171875 C7.7632939 10.2768762 7.43031359 8.90775385 5.76171875 6.46484375 C1.73533079 3.90259686 -1.46793815 2.72279038 -6.23828125 3.46484375 C-9.99630067 6.70451566 -9.48201744 9.17099706 -10.23828125 14.46484375 C-18.81828125 14.79484375 -27.39828125 15.12484375 -36.23828125 15.46484375 C-36.23828125 14.80484375 -36.23828125 14.14484375 -36.23828125 13.46484375 C-33.44801455 12.53475485 -31.47298583 12.27785606 -28.5703125 12.1484375 C-27.67763672 12.10654297 -26.78496094 12.06464844 -25.86523438 12.02148438 C-24.93646484 11.98216797 -24.00769531 11.94285156 -23.05078125 11.90234375 C-21.64022461 11.83756836 -21.64022461 11.83756836 -20.20117188 11.77148438 C-17.88035271 11.6654571 -15.559428 11.56339346 -13.23828125 11.46484375 C-13.10164063 10.53414062 -12.965 9.6034375 -12.82421875 8.64453125 C-11.37756946 0.79404777 -7.35211252 -0.40245209 0 0 Z " fill="#141414" transform="translate(52.23828125,155.53515625)"/>
<path d="M0 0 C3 1.125 3 1.125 5 3.6875 C9.32001529 7.19751242 13.01420795 6.59726205 18.4296875 6.49609375 C22.01158558 6.23583078 22.01158558 6.23583078 25.37890625 5.11328125 C29.72194312 3.92796482 33.58676641 3.82463072 38.0625 3.875 C38.917229 3.87959229 39.77195801 3.88418457 40.65258789 3.88891602 C51.61101098 4.03859687 63.01807355 4.52413677 73.78515625 6.68359375 C80.82494371 8.0865849 88.40862453 7.17685983 95.53857422 6.76416016 C105.97627002 6.1740504 116.4101612 5.95654549 126.86279297 5.89282227 C128.52755234 5.88101202 130.19228348 5.86398605 131.85693359 5.84155273 C134.22511537 5.81141051 136.59258459 5.80161354 138.9609375 5.796875 C139.6675351 5.78456848 140.37413269 5.77226196 141.10214233 5.75958252 C146.17862453 5.78191008 149.57350682 6.81558656 154 9.125 C155.125 11.0625 155.125 11.0625 156 13.125 C157.65788785 14.46923339 159.32576317 15.80118483 161 17.125 C166.84894313 23.54457172 170.43621605 29.48716048 171.3125 38.25 C170.50377503 48.27818958 165.21584103 59.73516824 158.5 67.25 C153.59544727 70.92841455 147.51979135 70.25205331 141.61328125 70.1875 C140.79796432 70.18371338 139.9826474 70.17992676 139.1426239 70.17602539 C135.69405414 70.15997515 132.245609 70.13260761 128.79711914 70.10449219 C119.32798193 70.03416536 109.89614519 70.09692316 100.43473816 70.52130127 C85.70750233 71.18117987 71.09029734 71.04011423 56.35986328 70.51074219 C52.44729389 70.37314645 48.53447789 70.26017907 44.62109375 70.1484375 C42.09109647 70.06396567 39.56114587 69.97808136 37.03125 69.890625 C35.88217163 69.85922424 34.73309326 69.82782349 33.54919434 69.79547119 C23.3765977 69.39496198 11.83441329 68.06975681 4.34765625 60.44140625 C-1.82681152 52.93844664 -3.0637654 44.33844549 -4.4609375 34.97265625 C-4.94344294 32.42376882 -5.62919869 30.37782463 -6.625 28 C-8.28641092 23.3583262 -8.40171748 18.75701372 -8.5 13.875 C-8.5304541 13.09366699 -8.5609082 12.31233398 -8.59228516 11.50732422 C-8.59503932 7.23378247 -8.35530653 5.58571414 -5.65625 2.0859375 C-3 0.125 -3 0.125 0 0 Z M-2 3.125 C-5.34219637 6.76799404 -5.86682069 9.94781704 -6.19921875 14.7578125 C-5.95003152 18.96956534 -5.0251107 22.72175764 -3.8125 26.75 C-3.60431641 27.46124023 -3.39613281 28.17248047 -3.18164062 28.90527344 C-2.48498439 31.15772482 -2.48498439 31.15772482 -1 34.125 C1.05763303 35.20031087 1.05763303 35.20031087 3 35.125 C3 33.805 3 32.485 3 31.125 C3.99 31.125 4.98 31.125 6 31.125 C6.1546875 30.01125 6.1546875 30.01125 6.3125 28.875 C7.04253504 25.95485982 8.06789398 24.39312446 10 22.125 C9.39050431 26.2695707 7.96084772 29.4386063 6 33.125 C5.690625 33.8675 5.38125 34.61 5.0625 35.375 C3.7196378 37.58677303 2.28882417 38.01750443 0 39.125 C-1.80310102 44.53430306 0.85118344 50.03032809 3 55.125 C4.89597259 57.55165194 6.29919246 58.5397434 9 60.125 C9.66 60.125 10.32 60.125 11 60.125 C11 60.785 11 61.445 11 62.125 C21.26154022 65.59645722 30.67541799 66.20126388 41.4375 66.25 C42.77143799 66.25713013 42.77143799 66.25713013 44.13232422 66.2644043 C45.39520264 66.26114136 45.39520264 66.26114136 46.68359375 66.2578125 C47.82139282 66.25612061 47.82139282 66.25612061 48.98217773 66.25439453 C51.20626495 66.197839 51.20626495 66.197839 54 65.125 C54.20086443 61.40900809 54.1519437 60.35291555 52 57.125 C52.875 54.4375 52.875 54.4375 54 52.125 C53.01 51.135 52.02 50.145 51 49.125 C51.680625 48.568125 52.36125 48.01125 53.0625 47.4375 C55.28097119 45.29246056 55.28097119 45.29246056 55 42.5 C54.20423043 39.98006227 54.20423043 39.98006227 51.9375 38.8125 C51.298125 38.585625 50.65875 38.35875 50 38.125 C50.495 37.135 50.495 37.135 51 36.125 C52.875 36.75 52.875 36.75 55 38.125 C57.27878599 42.7910856 56.96687605 46.11482411 56 51.125 C54.96234078 57.03965756 55.10030096 61.42590287 57 67.125 C58.95486328 67.10953125 58.95486328 67.10953125 60.94921875 67.09375 C65.58771764 67.09375 70.18493274 67.33249253 74.8125 67.625 C81.91885989 68.03528471 89.0067453 68.23457722 96.125 68.25 C97.43174683 68.25676758 97.43174683 68.25676758 98.76489258 68.26367188 C102.69673607 68.64435259 102.69673607 68.64435259 106 67.125 C108.67250538 67.10412105 111.32900188 67.1313335 114 67.1875 C120.31908812 67.26676106 125.88847363 66.90289858 132 65.125 C132.94125778 61.46455306 133.65698407 57.89817527 134 54.125 C133.34 53.135 132.68 52.145 132 51.125 C133.98 48.155 133.98 48.155 136 45.125 C134.02 43.145 134.02 43.145 132 41.125 C133.32 41.455 134.64 41.785 136 42.125 C136.625 44.5 136.625 44.5 137 47.125 C136.01 48.115 136.01 48.115 135 49.125 C135.165 50.218125 135.33 51.31125 135.5 52.4375 C136.03296631 56.36812655 135.48213276 57.6049347 134 61.125 C134.27701774 62.80194665 134.60458862 64.47196076 135 66.125 C146.213767 67.99624647 146.213767 67.99624647 156.609375 64.953125 C163.05860623 58.23794609 167.90754151 47.33286442 169 38.125 C167.48779932 29.66347263 161.28652745 21.7130244 155 16.125 C154.01 15.63 154.01 15.63 153 15.125 C152.61781233 16.78114657 152.28604898 18.44957024 152 20.125 C152.33 20.455 152.66 20.785 153 21.125 C153.2165625 22.73375 153.2165625 22.73375 153.4375 24.375 C153.82799456 28.02222987 153.82799456 28.02222987 155.125 30.8125 C156.11341176 33.42473109 155.95398577 34.54923842 155 37.125 C152.525 37.62 152.525 37.62 150 38.125 C151 36.125 151 36.125 154 34.125 C153.505 33.238125 153.01 32.35125 152.5 31.4375 C151.05621326 28.24913762 150.69840078 26.54312454 151 23.125 C149.68 22.795 148.36 22.465 147 22.125 C148.98 17.67 148.98 17.67 151 13.125 C145.21350937 9.83307915 141.17561486 8.54587548 134.5625 8.734375 C133.79695801 8.74003479 133.03141602 8.74569458 132.24267578 8.75152588 C129.82777979 8.77369165 127.41443777 8.82384461 125 8.875 C123.35028204 8.89509085 121.70054052 8.91333706 120.05078125 8.9296875 C116.03326695 8.97349057 112.01689574 9.04237398 108 9.125 C108 9.785 108 10.445 108 11.125 C108.99 11.8984375 108.99 11.8984375 110 12.6875 C112.61592046 15.87565306 112.36839565 17.90694411 112.23828125 21.90625 C112 24.125 112 24.125 111.41796875 26.25390625 C110.7829888 28.25792357 110.7829888 28.25792357 112 30.5625 C113.20265703 33.64430863 113.24108827 35.06364894 112 38.125 C109.4375 39.4375 109.4375 39.4375 107 40.125 C108.65 38.145 110.3 36.165 112 34.125 C111.484375 33.238125 110.96875 32.35125 110.4375 31.4375 C108.8982735 27.89058677 108.80781918 26.70154245 110 23.125 C110.33 22.465 110.66 21.805 111 21.125 C110.01 21.125 109.02 21.125 108 21.125 C108.33 20.526875 108.66 19.92875 109 19.3125 C110.20787988 17.07113529 110.20787988 17.07113529 110 14.125 C107.17159994 11.10586005 105.50626342 10.18930472 101.37109375 9.6640625 C100.07300781 9.69242188 98.77492188 9.72078125 97.4375 9.75 C96.13683594 9.76289063 94.83617187 9.77578125 93.49609375 9.7890625 C90.3697929 10.08946683 88.60753355 10.46626365 86 12.125 C86.99 13.61 86.99 13.61 88 15.125 C87.67873872 17.75934254 87.18644952 19.75210097 86 22.125 C85.98012522 23.72917883 86.0072121 25.33415101 86.0625 26.9375 C86.10140325 30.78336422 85.97921869 33.7163456 84 37.125 C83.01 37.62 83.01 37.62 82 38.125 C82.350625 37.01125 82.70125 35.8975 83.0625 34.75 C84.37239331 31.32235524 84.37239331 31.32235524 83 29.125 C83.27942455 27.44845271 83.60828247 25.77891846 84 24.125 C83.01 24.125 82.02 24.125 81 24.125 C82.11179163 20.78962511 83.47411298 19.48792656 86 17.125 C85.06231164 14.06991079 85.06231164 14.06991079 83 11.125 C80.19158076 10.27670567 78.0869318 9.88391153 75.21875 9.6640625 C74.45002563 9.58376801 73.68130127 9.50347351 72.88928223 9.42074585 C70.42796038 9.17084665 67.96495857 8.9606349 65.5 8.75 C63.87214879 8.58708532 62.24453837 8.42174521 60.6171875 8.25390625 C52.40218153 7.43603507 44.26393848 6.85612325 36 7.125 C36.495 8.115 36.495 8.115 37 9.125 C37.31337847 14.66135301 36.4386757 18.2476486 34 23.125 C34.185625 23.74375 34.37125 24.3625 34.5625 25 C35 27.125 35 27.125 34.0625 28.875 C32.44610496 32.2979542 32.87464081 35.36422443 33 39.125 C32.01 39.455 31.02 39.785 30 40.125 C29.67 39.795 29.34 39.465 29 39.125 C29.7734375 38.63 29.7734375 38.63 30.5625 38.125 C32.33834722 35.65425604 32.02853971 34.98054407 31.5625 32.0625 C31.2840625 30.1134375 31.2840625 30.1134375 31 28.125 C31.66 27.465 32.32 26.805 33 26.125 C32.6730244 23.50919521 32.17960932 21.48421863 31 19.125 C31.99 19.125 32.98 19.125 34 19.125 C35.4783226 16.16835481 35.06032783 13.38270263 35 10.125 C34.34 10.125 33.68 10.125 33 10.125 C33 9.465 33 8.805 33 8.125 C32.195625 8.23328125 32.195625 8.23328125 31.375 8.34375 C25.8169062 9.00194532 20.27974669 9.28786142 14.6875 9.375 C13.6655957 9.4069043 13.6655957 9.4069043 12.62304688 9.43945312 C8.2150567 9.46979327 5.48757498 8.84391092 2 6.125 C1.34 5.135 0.68 4.145 0 3.125 C-0.66 3.125 -1.32 3.125 -2 3.125 Z " fill="#0F0F0F" transform="translate(433,214.875)"/>
<path d="M0 0 C1.7890625 0.18359375 1.7890625 0.18359375 4 1 C5.7109375 3.22265625 5.7109375 3.22265625 7.375 6.0625 C10.32631833 10.94524264 13.48677114 15.5087294 17 20 C16.67 20.66 16.34 21.32 16 22 C13.9375 22.625 13.9375 22.625 12 23 C11.957279 24.66611905 11.95936168 26.33382885 12 28 C13.57027317 29.57027317 15.14269947 29.16974386 17.3125 29.1875 C18.09238281 29.20167969 18.87226562 29.21585937 19.67578125 29.23046875 C22.2032668 28.97984413 23.81718031 28.26373772 26 27 C24.25 31.875 24.25 31.875 22 33 C20.52331663 33.0952699 19.04224543 33.12985959 17.5625 33.125 C16.38880859 33.12886719 16.38880859 33.12886719 15.19140625 33.1328125 C13 33 13 33 10 32 C7.52657734 28.28986601 7.61496514 26.38939738 8 22 C9.51953125 19.77734375 9.51953125 19.77734375 11 18 C10.4225 17.22914063 9.845 16.45828125 9.25 15.6640625 C8.5075 14.66117187 7.765 13.65828125 7 12.625 C5.88625 11.12839844 5.88625 11.12839844 4.75 9.6015625 C3 7 3 7 3 5 C-1.04055056 7.10690801 -3.11263551 9.18025768 -5.5625 13 C-8.61743554 17.74114707 -8.61743554 17.74114707 -11.22265625 19.50390625 C-11.80917969 19.99761719 -12.39570313 20.49132812 -13 21 C-13.25862847 23.38601555 -13.25862847 23.38601555 -12.875 25.9375 C-12.76953125 28.61328125 -12.76953125 28.61328125 -13 31 C-16.29189773 34.37218791 -18.18868338 34.94765699 -22.875 35.25 C-23.90625 35.1675 -24.9375 35.085 -26 35 C-26 34.01 -26 33.02 -26 32 C-25.15115234 31.80083984 -25.15115234 31.80083984 -24.28515625 31.59765625 C-23.18494141 31.33275391 -23.18494141 31.33275391 -22.0625 31.0625 C-20.96615234 30.80146484 -20.96615234 30.80146484 -19.84765625 30.53515625 C-18.00030102 30.16112431 -18.00030102 30.16112431 -17 29 C-17.08963062 27.30858344 -17.24577676 25.62040398 -17.4375 23.9375 C-17.53933594 23.01839844 -17.64117187 22.09929687 -17.74609375 21.15234375 C-17.82988281 20.44207031 -17.91367187 19.73179687 -18 19 C-12.25 15 -12.25 15 -10 15 C-9.75507813 14.28457031 -9.51015625 13.56914062 -9.2578125 12.83203125 C-7.84640324 9.65416879 -6.08718481 7.36353001 -3.875 4.6875 C-3.15054687 3.80449219 -2.42609375 2.92148438 -1.6796875 2.01171875 C-1.12539063 1.34785156 -0.57109375 0.68398437 0 0 Z " fill="#0D0D0D" transform="translate(26,252)"/>
<path d="M0 0 C4.95 0.33 9.9 0.66 15 1 C15.33 1.99 15.66 2.98 16 4 C14.68 4 13.36 4 12 4 C11.89816406 4.51046875 11.79632813 5.0209375 11.69140625 5.546875 C10.74320834 8.91110263 9.33686428 12.05516367 7.9375 15.25 C7.65583984 15.8996875 7.37417969 16.549375 7.08398438 17.21875 C6.3920615 18.81369086 5.696401 20.40700934 5 22 C3.35 22 1.7 22 0 22 C0 14.74 0 7.48 0 0 Z " fill="#F6F6F6" transform="translate(0,245)"/>
<path d="M0 0 C-0.33 0.66 -0.66 1.32 -1 2 C-2.32 2 -3.64 2 -5 2 C-5 2.66 -5 3.32 -5 4 C-4.360625 4.2475 -3.72125 4.495 -3.0625 4.75 C-1 6 -1 6 -0.25 7.6875 C0.16708565 11.54554222 0.47927342 15.37047037 -0.625 19.125 C-1.21518521 21.13431286 -1.21518521 21.13431286 0.0625 23.375 C1 26 1 26 0.4375 29.1875 C-1 32 -1 32 -3.625 33.375 C-4.40875 33.58125 -5.1925 33.7875 -6 34 C-6 31 -6 31 -4 28.8125 C-3.01 27.9153125 -3.01 27.9153125 -2 27 C-2.515625 26.113125 -3.03125 25.22625 -3.5625 24.3125 C-5.08979002 20.79309257 -5.21675714 19.548875 -4 16 C-3.67 15.67 -3.34 15.34 -3 15 C-3.66 14.67 -4.32 14.34 -5 14 C-4.42415568 11.61435923 -3.77772405 9.33317216 -3 7 C-8.60944292 3.85871197 -14.68146331 2.77369837 -21 2 C-20.67 1.34 -20.34 0.68 -20 0 C-17.22949974 -0.1946838 -14.45886998 -0.38102792 -11.6875 -0.5625 C-10.90181641 -0.61857422 -10.11613281 -0.67464844 -9.30664062 -0.73242188 C-8.1706543 -0.80493164 -8.1706543 -0.80493164 -7.01171875 -0.87890625 C-6.31522217 -0.9260376 -5.61872559 -0.97316895 -4.90112305 -1.02172852 C-3 -1 -3 -1 0 0 Z " fill="#030303" transform="translate(546,222)"/>
<path d="M0 0 C4.95 0.33 9.9 0.66 15 1 C15.33 1.99 15.66 2.98 16 4 C14.68 4 13.36 4 12 4 C11.89816406 4.51046875 11.79632813 5.0209375 11.69140625 5.546875 C10.74320834 8.91110263 9.33686428 12.05516367 7.9375 15.25 C7.65583984 15.8996875 7.37417969 16.549375 7.08398438 17.21875 C6.3920615 18.81369086 5.696401 20.40700934 5 22 C3.35 22 1.7 22 0 22 C0.495 20.515 0.495 20.515 1 19 C1.66 18.67 2.32 18.34 3 18 C4.2776108 15.66156757 5.47161883 13.3356889 6.625 10.9375 C6.94984375 10.27427734 7.2746875 9.61105469 7.609375 8.92773438 C8.41165115 7.28778753 9.2065288 5.64422508 10 4 C6.7 3.67 3.4 3.34 0 3 C0 2.01 0 1.02 0 0 Z " fill="#222222" transform="translate(0,245)"/>
<path d="M0 0 C0.99 0.33 1.98 0.66 3 1 C1.99088542 2.33463542 0.98177083 3.66927083 -0.02734375 5.00390625 C-1.46390105 7.69307036 -1.46390105 7.69307036 -2 14 C-10.58 14.33 -19.16 14.66 -28 15 C-28 14.34 -28 13.68 -28 13 C-25.2097333 12.0699111 -23.23470458 11.81301231 -20.33203125 11.68359375 C-19.43935547 11.64169922 -18.54667969 11.59980469 -17.62695312 11.55664062 C-16.69818359 11.51732422 -15.76941406 11.47800781 -14.8125 11.4375 C-13.87212891 11.39431641 -12.93175781 11.35113281 -11.96289062 11.30664062 C-9.64207146 11.20061335 -7.32114675 11.09854971 -5 11 C-4.87753906 10.06929687 -4.75507812 9.13859375 -4.62890625 8.1796875 C-3.89766582 4.48260853 -2.50861092 2.75137972 0 0 Z " fill="#0E0E0E" transform="translate(44,156)"/>
<path d="M0 0 C0.99 0.33 1.98 0.66 3 1 C2.3897536 5.14967549 0.99267393 8.32121736 -1 12 C-1.7115625 13.3921875 -1.7115625 13.3921875 -2.4375 14.8125 C-4 17 -4 17 -6.1875 17.8125 C-6.785625 17.874375 -7.38375 17.93625 -8 18 C-7.67 20.31 -7.34 22.62 -7 25 C-8.32 24.34 -9.64 23.68 -11 23 C-11 19.7 -11 16.4 -11 13 C-8.03 13.495 -8.03 13.495 -5 14 C-5 12.68 -5 11.36 -5 10 C-4.01 10 -3.02 10 -2 10 C-2.226875 9.443125 -2.45375 8.88625 -2.6875 8.3125 C-3.12446199 5.07898125 -1.78001197 3.63441772 0 1 C0 0.67 0 0.34 0 0 Z " fill="#020202" transform="translate(441,236)"/>
<path d="M0 0 C0.66 0.33 1.32 0.66 2 1 C0.125 5.75 0.125 5.75 -1 8 C-0.7215625 8.928125 -0.7215625 8.928125 -0.4375 9.875 C0 12 0 12 -0.9375 13.75 C-2.55389504 17.1729542 -2.12535919 20.23922443 -2 24 C-3.98 24.99 -3.98 24.99 -6 26 C-6.66 25.34 -7.32 24.68 -8 24 C-7.484375 23.67 -6.96875 23.34 -6.4375 23 C-4.66165278 20.52925604 -4.97146029 19.85554407 -5.4375 16.9375 C-5.623125 15.638125 -5.80875 14.33875 -6 13 C-5.34 12.34 -4.68 11.68 -4 11 C-4.32326553 7.40320934 -4.32326553 7.40320934 -5 4 C-4.01 4 -3.02 4 -2 4 C-1.34 2.68 -0.68 1.36 0 0 Z " fill="#000000" transform="translate(469,230)"/>
<path d="M0 0 C0.33 0 0.66 0 1 0 C1.33 4.95 1.66 9.9 2 15 C2.66 15 3.32 15 4 15 C5.32 19.95 6.64 24.9 8 30 C7.34 30 6.68 30 6 30 C5.505 32.475 5.505 32.475 5 35 C4.67 35 4.34 35 4 35 C3.896875 33.865625 3.79375 32.73125 3.6875 31.5625 C3.32311188 28.47055962 2.63850392 25.98588199 1.4375 23.125 C-1.21119158 15.86038475 -0.22162454 7.60910911 0 0 Z " fill="#1C1C1C" transform="translate(425,220)"/>
<path d="M0 0 C3.3 0 6.6 0 10 0 C10 0.33 10 0.66 10 1 C16.6 1.33 23.2 1.66 30 2 C30 2.33 30 2.66 30 3 C19.77 3 9.54 3 -1 3 C-0.67 2.01 -0.34 1.02 0 0 Z " fill="#1F1F1F" transform="translate(546,221)"/>
<path d="M0 0 C4.95 0.33 9.9 0.66 15 1 C15.33 1.99 15.66 2.98 16 4 C14.68 4 13.36 4 12 4 C11.67 4.66 11.34 5.32 11 6 C11 5.34 11 4.68 11 4 C9.9275 4.020625 8.855 4.04125 7.75 4.0625 C4.85209576 4.0142016 2.71387859 3.86844115 0 3 C0 2.01 0 1.02 0 0 Z " fill="#060606" transform="translate(0,245)"/>
<path d="M0 0 C5.61 0.33 11.22 0.66 17 1 C16.67 1.99 16.34 2.98 16 4 C10.72 3.67 5.44 3.34 0 3 C0 2.01 0 1.02 0 0 Z " fill="#252525" transform="translate(0,216)"/>
<path d="M0 0 C4.37967072 0.50926404 7.40979428 1.40707365 11 4 C13.29013653 7.4352048 13.17842973 8.985331 13 13 C12.34 13 11.68 13 11 13 C10.855625 11.9275 10.71125 10.855 10.5625 9.75 C9.82277106 7.00799724 9.30028494 6.19049155 6.86328125 4.64453125 C4.59881623 3.65982668 2.34355399 2.77636254 0 2 C0 1.34 0 0.68 0 0 Z " fill="#1F1F1F" transform="translate(0,156)"/>
<path d="M0 0 C0.66 0.66 1.32 1.32 2 2 C1.69903201 6.13830989 1.32101984 8.51847024 -1 12 C-1.66 12 -2.32 12 -3 12 C-2.835 10.906875 -2.67 9.81375 -2.5 8.6875 C-1.93281816 5.12474127 -1.93281816 5.12474127 -2 2 C-1.34 1.34 -0.68 0.68 0 0 Z " fill="#000000" transform="translate(518,241)"/>
<path d="M0 0 C2.4375 0.8125 2.4375 0.8125 5 2 C5.33 2.99 5.66 3.98 6 5 C3 5 3 5 0.8125 3 C0.214375 2.34 -0.38375 1.68 -1 1 C-0.67 0.67 -0.34 0.34 0 0 Z " fill="#000000" transform="translate(565,255)"/>
<path d="M0 0 C3.63 0 7.26 0 11 0 C8.60236815 2.39763185 7.66726502 2.34280586 4.375 2.625 C3.55773437 2.69976562 2.74046875 2.77453125 1.8984375 2.8515625 C1.27195313 2.90054688 0.64546875 2.94953125 0 3 C0 2.01 0 1.02 0 0 Z " fill="#191919" transform="translate(0,193)"/>
</svg>
