<?xml version="1.0" encoding="UTF-8"?>
<svg version="1.1" xmlns="http://www.w3.org/2000/svg" width="800" height="300">
<path d="M0 0 C264 0 528 0 800 0 C800 99 800 198 800 300 C536 300 272 300 0 300 C0 201 0 102 0 0 Z " fill="#FEFEFE" transform="translate(0,0)"/>
<path d="M0 0 C4.14242198 0.76902998 6.92081125 2.07811919 9.50390625 5.46484375 C10.92063186 9.06737459 11.80468225 12.66239706 12.50390625 16.46484375 C13.16390625 16.46484375 13.82390625 16.46484375 14.50390625 16.46484375 C16.42238489 19.3425617 18.00470113 22.35111003 19.50390625 25.46484375 C20.16390625 25.46484375 20.82390625 25.46484375 21.50390625 25.46484375 C24.8314684 32.03106371 27.10938601 38.03953084 28.14453125 45.34765625 C28.29026862 47.44414018 28.29026862 47.44414018 29.50390625 48.46484375 C29.71456993 50.75288542 29.87255466 53.04588197 30.00390625 55.33984375 C30.2822294 60.49215567 30.2822294 60.49215567 31.50390625 65.46484375 C33.8141971 66.20743724 36.14965825 66.87628175 38.50390625 67.46484375 C38.83390625 67.79484375 39.16390625 68.12484375 39.50390625 68.46484375 C40.65890625 68.62984375 41.81390625 68.79484375 43.00390625 68.96484375 C46.50390625 69.46484375 46.50390625 69.46484375 47.50390625 70.46484375 C50.77382356 70.98531058 54.08260742 71.22338177 57.37890625 71.52734375 C58.28382812 71.61822266 59.18875 71.70910156 60.12109375 71.80273438 C69.68802375 72.70642876 78.98122222 72.59635568 88.54785156 71.75219727 C135.53650997 67.62121049 135.53650997 67.62121049 151.50390625 75.46484375 C151.63410156 74.53414063 151.76429688 73.6034375 151.8984375 72.64453125 C152.62848602 68.81059903 153.6356086 67.10057673 156.50390625 64.46484375 C159.50390625 63.83984375 159.50390625 63.83984375 162.50390625 64.46484375 C164.87890625 66.40234375 164.87890625 66.40234375 166.50390625 69.46484375 C166.61118723 71.82089903 166.50261627 74.11439373 166.37890625 76.46875 C166.42015625 77.12746094 166.46140625 77.78617187 166.50390625 78.46484375 C167.81728021 79.49091715 169.1505473 80.492117 170.50390625 81.46484375 C170.86339152 85.23943906 170.77719305 88.16673144 170.00390625 91.83984375 C166.71134133 95.40678908 160.95622395 95.58302727 156.31640625 95.83984375 C152.44323734 95.76763213 149.33467515 94.80854445 145.69140625 93.52734375 C136.84578526 90.54721192 127.76276211 90.649467 118.50390625 90.46484375 C119.14610127 92.44519396 119.79276269 94.42409631 120.44140625 96.40234375 C120.80105469 97.50449219 121.16070312 98.60664063 121.53125 99.7421875 C122.24247293 102.3460785 122.24247293 102.3460785 123.50390625 103.46484375 C125.75934249 103.7074604 128.01336148 103.84816508 130.27734375 103.98828125 C132.99340176 104.56961296 133.9031561 105.20673225 135.50390625 107.46484375 C136.44629944 111.64351741 136.44176707 115.77982048 134.33203125 119.5703125 C130.5673283 124.1209457 126.93836004 127.07359225 121.00390625 128.02734375 C117.50390625 127.46484375 117.50390625 127.46484375 114.56640625 124.90234375 C112.08881856 121.46621394 112.03680395 118.66876449 112.50390625 114.46484375 C112.73464844 113.82289063 112.96539062 113.1809375 113.203125 112.51953125 C113.72569253 110.36975549 113.72569253 110.36975549 112.359375 108.32421875 C111.80894531 107.628125 111.25851563 106.93203125 110.69140625 106.21484375 C110.14871094 105.5084375 109.60601562 104.80203125 109.046875 104.07421875 C108.28310547 103.27757812 108.28310547 103.27757812 107.50390625 102.46484375 C106.84390625 102.46484375 106.18390625 102.46484375 105.50390625 102.46484375 C103.94193511 104.18126353 102.45251583 105.96423014 101.00390625 107.77734375 C100.20984375 108.76347656 99.41578125 109.74960937 98.59765625 110.765625 C96.45140889 113.46594158 96.45140889 113.46594158 94.50390625 116.46484375 C94.81608265 119.11116662 94.81608265 119.11116662 95.50390625 121.46484375 C90.60453518 126.24471796 90.60453518 126.24471796 86.37890625 127.08984375 C80.69009527 126.17229359 75.71663902 123.86150249 70.50390625 121.46484375 C70.08722156 117.21465996 70.06368543 115.11141807 72.50390625 111.52734375 C76.53422414 108.7565002 78.70229767 109.05792777 83.50390625 109.46484375 C83.74882812 108.77003906 83.99375 108.07523437 84.24609375 107.359375 C85.7064065 103.99884161 87.56672403 101.17909508 89.62890625 98.15234375 C90.35335937 97.08371094 91.0778125 96.01507813 91.82421875 94.9140625 C92.65566406 93.70169922 92.65566406 93.70169922 93.50390625 92.46484375 C92.29831055 92.62710449 91.09271484 92.78936523 89.85058594 92.95654297 C83.55698796 93.6515575 77.28232801 93.60810673 70.95703125 93.59765625 C69.66883484 93.59861298 68.38063843 93.5995697 67.05340576 93.60055542 C64.33702381 93.60202154 61.62067495 93.59991443 58.90429688 93.59521484 C55.46096762 93.58954114 52.01771675 93.59278853 48.57439041 93.59878731 C45.24359816 93.60332018 41.91282571 93.60012266 38.58203125 93.59765625 C37.36493469 93.59968048 36.14783813 93.60170471 34.89385986 93.60379028 C28.01799665 93.58528485 21.23218743 93.2981119 14.38258362 92.6884613 C9.98306158 92.34670353 5.60122906 92.35599961 1.19140625 92.40234375 C-0.07993164 92.40911133 -0.07993164 92.40911133 -1.37695312 92.41601562 C-3.41669905 92.42753961 -5.45640738 92.44545919 -7.49609375 92.46484375 C-6.23042909 97.6928656 -4.86828216 102.62185401 -2.49609375 107.46484375 C-0.06295487 108.89040794 1.55215958 109.06189287 4.33984375 109.234375 C6.50390625 109.46484375 6.50390625 109.46484375 9.62890625 111.77734375 C11.50390625 114.46484375 11.50390625 114.46484375 11.41796875 116.90625 C10.22093531 120.25692052 8.71534454 121.17104202 5.75390625 123.08984375 C4.46226563 123.94449219 4.46226563 123.94449219 3.14453125 124.81640625 C2.273125 125.36039062 1.40171875 125.904375 0.50390625 126.46484375 C-0.33398438 127.02429688 -1.171875 127.58375 -2.03515625 128.16015625 C-4.68061786 129.56267082 -6.16239744 129.81651716 -9.12109375 129.71484375 C-9.87648437 129.699375 -10.631875 129.68390625 -11.41015625 129.66796875 C-13.49609375 129.46484375 -13.49609375 129.46484375 -16.49609375 128.46484375 C-18.96951641 124.75470976 -18.88112861 122.85424113 -18.49609375 118.46484375 C-16.9765625 116.2421875 -16.9765625 116.2421875 -15.49609375 114.46484375 C-16.07359375 113.69398438 -16.65109375 112.923125 -17.24609375 112.12890625 C-17.98859375 111.12601562 -18.73109375 110.123125 -19.49609375 109.08984375 C-20.23859375 108.09210938 -20.98109375 107.094375 -21.74609375 106.06640625 C-23.49609375 103.46484375 -23.49609375 103.46484375 -23.49609375 101.46484375 C-27.53664431 103.57175176 -29.60872926 105.64510143 -32.05859375 109.46484375 C-35.1132568 114.20556793 -35.1132568 114.20556793 -37.7109375 115.96484375 C-39.7601383 117.33441425 -39.7601383 117.33441425 -39.74609375 119.83984375 C-39.66359375 120.70609375 -39.58109375 121.57234375 -39.49609375 122.46484375 C-39.24609375 125.08984375 -39.24609375 125.08984375 -39.49609375 127.46484375 C-41.54033913 129.44094761 -42.61377625 130.46484375 -45.49609375 130.46484375 C-45.49609375 88.22484375 -45.49609375 45.98484375 -45.49609375 2.46484375 C-41.49609375 4.46484375 -41.49609375 4.46484375 -39.49609375 7.46484375 C-39.16609375 9.11484375 -38.83609375 10.76484375 -38.49609375 12.46484375 C-26.12109375 11.96984375 -26.12109375 11.96984375 -13.49609375 11.46484375 C-13.16609375 9.48484375 -12.83609375 7.50484375 -12.49609375 5.46484375 C-9.0747139 0.38795752 -5.81885849 -0.35554873 0 0 Z " fill="#FAFAFA" transform="translate(45.49609375,155.53515625)"/>
<path d="M0 0 C3 1.125 3 1.125 5 3.6875 C9.32001529 7.19751242 13.01420795 6.59726205 18.4296875 6.49609375 C22.01158558 6.23583078 22.01158558 6.23583078 25.37890625 5.11328125 C29.72194312 3.92796482 33.58676641 3.82463072 38.0625 3.875 C38.917229 3.87959229 39.77195801 3.88418457 40.65258789 3.88891602 C51.61101098 4.03859687 63.01807355 4.52413677 73.78515625 6.68359375 C80.82494371 8.0865849 88.40862453 7.17685983 95.53857422 6.76416016 C105.97627002 6.1740504 116.4101612 5.95654549 126.86279297 5.89282227 C128.52755234 5.88101202 130.19228348 5.86398605 131.85693359 5.84155273 C134.22511537 5.81141051 136.59258459 5.80161354 138.9609375 5.796875 C139.6675351 5.78456848 140.37413269 5.77226196 141.10214233 5.75958252 C146.17862453 5.78191008 149.57350682 6.81558656 154 9.125 C155.125 11.0625 155.125 11.0625 156 13.125 C157.65788785 14.46923339 159.32576317 15.80118483 161 17.125 C166.84894313 23.54457172 170.43621605 29.48716048 171.3125 38.25 C170.50377503 48.27818958 165.21584103 59.73516824 158.5 67.25 C153.59544727 70.92841455 147.51979135 70.25205331 141.61328125 70.1875 C140.79796432 70.18371338 139.9826474 70.17992676 139.1426239 70.17602539 C135.69405414 70.15997515 132.245609 70.13260761 128.79711914 70.10449219 C119.32798193 70.03416536 109.89614519 70.09692316 100.43473816 70.52130127 C85.70750233 71.18117987 71.09029734 71.04011423 56.35986328 70.51074219 C52.44729389 70.37314645 48.53447789 70.26017907 44.62109375 70.1484375 C42.09109647 70.06396567 39.56114587 69.97808136 37.03125 69.890625 C35.88217163 69.85922424 34.73309326 69.82782349 33.54919434 69.79547119 C23.3765977 69.39496198 11.83441329 68.06975681 4.34765625 60.44140625 C-1.82681152 52.93844664 -3.0637654 44.33844549 -4.4609375 34.97265625 C-4.94344294 32.42376882 -5.62919869 30.37782463 -6.625 28 C-8.28641092 23.3583262 -8.40171748 18.75701372 -8.5 13.875 C-8.5304541 13.09366699 -8.5609082 12.31233398 -8.59228516 11.50732422 C-8.59503932 7.23378247 -8.35530653 5.58571414 -5.65625 2.0859375 C-3 0.125 -3 0.125 0 0 Z " fill="#646464" transform="translate(433,214.875)"/>
<path d="M0 0 C4.14242198 0.76902998 6.92081125 2.07811919 9.50390625 5.46484375 C10.92063186 9.06737459 11.80468225 12.66239706 12.50390625 16.46484375 C13.16390625 16.46484375 13.82390625 16.46484375 14.50390625 16.46484375 C16.42238489 19.3425617 18.00470113 22.35111003 19.50390625 25.46484375 C20.16390625 25.46484375 20.82390625 25.46484375 21.50390625 25.46484375 C24.8314684 32.03106371 27.10938601 38.03953084 28.14453125 45.34765625 C28.29026862 47.44414018 28.29026862 47.44414018 29.50390625 48.46484375 C29.71456993 50.75288542 29.87255466 53.04588197 30.00390625 55.33984375 C30.2822294 60.49215567 30.2822294 60.49215567 31.50390625 65.46484375 C33.8141971 66.20743724 36.14965825 66.87628175 38.50390625 67.46484375 C38.83390625 67.79484375 39.16390625 68.12484375 39.50390625 68.46484375 C40.65890625 68.62984375 41.81390625 68.79484375 43.00390625 68.96484375 C46.50390625 69.46484375 46.50390625 69.46484375 47.50390625 70.46484375 C50.77382356 70.98531058 54.08260742 71.22338177 57.37890625 71.52734375 C58.28382812 71.61822266 59.18875 71.70910156 60.12109375 71.80273438 C69.68802375 72.70642876 78.98122222 72.59635568 88.54785156 71.75219727 C135.53650997 67.62121049 135.53650997 67.62121049 151.50390625 75.46484375 C151.63410156 74.53414063 151.76429688 73.6034375 151.8984375 72.64453125 C152.62848602 68.81059903 153.6356086 67.10057673 156.50390625 64.46484375 C159.50390625 63.83984375 159.50390625 63.83984375 162.50390625 64.46484375 C164.87890625 66.40234375 164.87890625 66.40234375 166.50390625 69.46484375 C166.61118723 71.82089903 166.50261627 74.11439373 166.37890625 76.46875 C166.42015625 77.12746094 166.46140625 77.78617187 166.50390625 78.46484375 C167.81728021 79.49091715 169.1505473 80.492117 170.50390625 81.46484375 C170.86339152 85.23943906 170.77719305 88.16673144 170.00390625 91.83984375 C166.71134133 95.40678908 160.95622395 95.58302727 156.31640625 95.83984375 C152.44323734 95.76763213 149.33467515 94.80854445 145.69140625 93.52734375 C136.84578526 90.54721192 127.76276211 90.649467 118.50390625 90.46484375 C119.14610127 92.44519396 119.79276269 94.42409631 120.44140625 96.40234375 C120.80105469 97.50449219 121.16070312 98.60664063 121.53125 99.7421875 C122.24247293 102.3460785 122.24247293 102.3460785 123.50390625 103.46484375 C125.75934249 103.7074604 128.01336148 103.84816508 130.27734375 103.98828125 C132.99340176 104.56961296 133.9031561 105.20673225 135.50390625 107.46484375 C136.44629944 111.64351741 136.44176707 115.77982048 134.33203125 119.5703125 C130.5673283 124.1209457 126.93836004 127.07359225 121.00390625 128.02734375 C117.50390625 127.46484375 117.50390625 127.46484375 114.56640625 124.90234375 C112.08881856 121.46621394 112.03680395 118.66876449 112.50390625 114.46484375 C112.73464844 113.82289063 112.96539062 113.1809375 113.203125 112.51953125 C113.72569253 110.36975549 113.72569253 110.36975549 112.359375 108.32421875 C111.80894531 107.628125 111.25851563 106.93203125 110.69140625 106.21484375 C110.14871094 105.5084375 109.60601562 104.80203125 109.046875 104.07421875 C108.28310547 103.27757812 108.28310547 103.27757812 107.50390625 102.46484375 C106.84390625 102.46484375 106.18390625 102.46484375 105.50390625 102.46484375 C103.94193511 104.18126353 102.45251583 105.96423014 101.00390625 107.77734375 C100.20984375 108.76347656 99.41578125 109.74960937 98.59765625 110.765625 C96.45140889 113.46594158 96.45140889 113.46594158 94.50390625 116.46484375 C94.81608265 119.11116662 94.81608265 119.11116662 95.50390625 121.46484375 C90.60453518 126.24471796 90.60453518 126.24471796 86.37890625 127.08984375 C80.69009527 126.17229359 75.71663902 123.86150249 70.50390625 121.46484375 C70.08722156 117.21465996 70.06368543 115.11141807 72.50390625 111.52734375 C76.53422414 108.7565002 78.70229767 109.05792777 83.50390625 109.46484375 C83.74882812 108.77003906 83.99375 108.07523437 84.24609375 107.359375 C85.7064065 103.99884161 87.56672403 101.17909508 89.62890625 98.15234375 C90.35335937 97.08371094 91.0778125 96.01507813 91.82421875 94.9140625 C92.65566406 93.70169922 92.65566406 93.70169922 93.50390625 92.46484375 C92.29831055 92.62710449 91.09271484 92.78936523 89.85058594 92.95654297 C83.55698796 93.6515575 77.28232801 93.60810673 70.95703125 93.59765625 C69.66883484 93.59861298 68.38063843 93.5995697 67.05340576 93.60055542 C64.33702381 93.60202154 61.62067495 93.59991443 58.90429688 93.59521484 C55.46096762 93.58954114 52.01771675 93.59278853 48.57439041 93.59878731 C45.24359816 93.60332018 41.91282571 93.60012266 38.58203125 93.59765625 C37.36493469 93.59968048 36.14783813 93.60170471 34.89385986 93.60379028 C28.01799665 93.58528485 21.23218743 93.2981119 14.38258362 92.6884613 C9.98306158 92.34670353 5.60122906 92.35599961 1.19140625 92.40234375 C-0.07993164 92.40911133 -0.07993164 92.40911133 -1.37695312 92.41601562 C-3.41669905 92.42753961 -5.45640738 92.44545919 -7.49609375 92.46484375 C-6.23042909 97.6928656 -4.86828216 102.62185401 -2.49609375 107.46484375 C-0.06295487 108.89040794 1.55215958 109.06189287 4.33984375 109.234375 C6.50390625 109.46484375 6.50390625 109.46484375 9.62890625 111.77734375 C11.50390625 114.46484375 11.50390625 114.46484375 11.41796875 116.90625 C10.22093531 120.25692052 8.71534454 121.17104202 5.75390625 123.08984375 C4.46226563 123.94449219 4.46226563 123.94449219 3.14453125 124.81640625 C2.273125 125.36039062 1.40171875 125.904375 0.50390625 126.46484375 C-0.33398438 127.02429688 -1.171875 127.58375 -2.03515625 128.16015625 C-4.68061786 129.56267082 -6.16239744 129.81651716 -9.12109375 129.71484375 C-9.87648437 129.699375 -10.631875 129.68390625 -11.41015625 129.66796875 C-13.49609375 129.46484375 -13.49609375 129.46484375 -16.49609375 128.46484375 C-18.96951641 124.75470976 -18.88112861 122.85424113 -18.49609375 118.46484375 C-16.9765625 116.2421875 -16.9765625 116.2421875 -15.49609375 114.46484375 C-16.07359375 113.69398438 -16.65109375 112.923125 -17.24609375 112.12890625 C-17.98859375 111.12601562 -18.73109375 110.123125 -19.49609375 109.08984375 C-20.23859375 108.09210938 -20.98109375 107.094375 -21.74609375 106.06640625 C-23.49609375 103.46484375 -23.49609375 103.46484375 -23.49609375 101.46484375 C-27.53664431 103.57175176 -29.60872926 105.64510143 -32.05859375 109.46484375 C-35.1132568 114.20556793 -35.1132568 114.20556793 -37.7109375 115.96484375 C-39.7601383 117.33441425 -39.7601383 117.33441425 -39.74609375 119.83984375 C-39.66359375 120.70609375 -39.58109375 121.57234375 -39.49609375 122.46484375 C-39.24609375 125.08984375 -39.24609375 125.08984375 -39.49609375 127.46484375 C-41.54033913 129.44094761 -42.61377625 130.46484375 -45.49609375 130.46484375 C-44.62109375 126.58984375 -44.62109375 126.58984375 -43.49609375 125.46484375 C-43.58572437 123.77342719 -43.74187051 122.08524773 -43.93359375 120.40234375 C-44.03542969 119.48324219 -44.13726562 118.56414062 -44.2421875 117.6171875 C-44.32597656 116.90691406 -44.40976562 116.19664062 -44.49609375 115.46484375 C-43.68205078 115.01044922 -43.68205078 115.01044922 -42.8515625 114.546875 C-38.41898566 111.95122189 -35.91276326 110.0880376 -33.49609375 105.46484375 C-31.22398539 102.41651737 -28.86234453 99.44048515 -26.49609375 96.46484375 C-24.671875 96.6796875 -24.671875 96.6796875 -22.49609375 97.46484375 C-21.0390625 99.46875 -21.0390625 99.46875 -19.68359375 102.02734375 C-17.16349234 106.53767909 -14.33352533 110.09726472 -10.71875 113.7734375 C-10.31527344 114.33160156 -9.91179688 114.88976562 -9.49609375 115.46484375 C-9.99109375 116.94984375 -9.99109375 116.94984375 -10.49609375 118.46484375 C-12.55859375 119.15234375 -12.55859375 119.15234375 -14.49609375 119.46484375 C-14.53881475 121.1309628 -14.53673207 122.7986726 -14.49609375 124.46484375 C-13.32716251 125.83239063 -13.32716251 125.83239063 -10.12109375 125.96484375 C-4.06829253 125.92090327 1.04909023 122.31681121 5.50390625 118.46484375 C6.3808433 116.34692988 6.3808433 116.34692988 6.50390625 114.46484375 C4.20760631 113.31669378 2.42692539 113.15714566 -0.12109375 112.90234375 C-0.93835937 112.81855469 -1.755625 112.73476563 -2.59765625 112.6484375 C-3.22414062 112.58785156 -3.850625 112.52726562 -4.49609375 112.46484375 C-4.88796875 111.39234375 -5.27984375 110.31984375 -5.68359375 109.21484375 C-7.46296066 104.45567578 -9.43281304 99.78127477 -11.41015625 95.1015625 C-12.17310142 93.24908771 -12.86255226 91.36546821 -13.49609375 89.46484375 C-11.92124938 87.88999938 -10.3548397 88.33505537 -8.16796875 88.33203125 C-7.23774902 88.33009766 -6.3075293 88.32816406 -5.34912109 88.32617188 C-4.32512207 88.33068359 -3.30112305 88.33519531 -2.24609375 88.33984375 C-1.18213379 88.34177734 -0.11817383 88.34371094 0.97802734 88.34570312 C9.36884972 88.38937373 17.74453475 88.64692128 26.12890625 88.96484375 C43.08074305 89.60188801 59.89664523 89.68948341 76.84008789 88.82299805 C83.73744213 88.47369322 90.59671818 88.34755188 97.50390625 88.46484375 C97.83390625 89.12484375 98.16390625 89.78484375 98.50390625 90.46484375 C98.02763794 91.14474365 98.02763794 91.14474365 97.54174805 91.83837891 C96.08750755 93.91935117 94.63943098 96.00454206 93.19140625 98.08984375 C92.69189453 98.80269531 92.19238281 99.51554687 91.67773438 100.25 C89.47208786 103.43431086 87.55562907 106.34873129 85.97265625 109.90234375 C84.50390625 112.46484375 84.50390625 112.46484375 82.0234375 113.48828125 C81.13011719 113.60429687 80.23679687 113.7203125 79.31640625 113.83984375 C77.96482422 114.03707031 77.96482422 114.03707031 76.5859375 114.23828125 C75.55533203 114.35042969 75.55533203 114.35042969 74.50390625 114.46484375 C74.17390625 116.11484375 73.84390625 117.76484375 73.50390625 119.46484375 C78.60724642 121.37009075 82.96733331 122.89073398 88.50390625 122.46484375 C89.72081158 120.6995478 89.72081158 120.6995478 90.50390625 118.46484375 C89.60709209 116.3375409 89.60709209 116.3375409 88.50390625 114.46484375 C89.01179687 114.12453125 89.5196875 113.78421875 90.04296875 113.43359375 C96.63857783 108.78949447 102.0422954 103.34199847 104.50390625 95.46484375 C105.49390625 95.46484375 106.48390625 95.46484375 107.50390625 95.46484375 C109.15234375 97.4765625 109.15234375 97.4765625 110.87890625 100.15234375 C112.87828956 103.15141871 114.75110919 105.92732558 117.37890625 108.40234375 C119.50390625 110.46484375 119.50390625 110.46484375 120.50390625 113.46484375 C118.52390625 114.94984375 118.52390625 114.94984375 116.50390625 116.46484375 C116.77931329 120.28297822 116.77931329 120.28297822 118.50390625 123.46484375 C122.00124853 123.07625016 125.16178886 122.57888288 128.50390625 121.46484375 C129.65398935 119.4981146 129.65398935 119.4981146 130.50390625 117.46484375 C130.83390625 117.13484375 131.16390625 116.80484375 131.50390625 116.46484375 C131.54483562 114.13186942 131.54632348 111.7977915 131.50390625 109.46484375 C130.84003906 109.48546875 130.17617187 109.50609375 129.4921875 109.52734375 C122.48727811 109.36372543 122.48727811 109.36372543 119.8671875 106.96875 C118.51993486 104.85649586 117.49368928 102.76683914 116.50390625 100.46484375 C116.10171875 99.59085937 115.69953125 98.716875 115.28515625 97.81640625 C112.32604001 90.99844248 112.32604001 90.99844248 113.50390625 87.46484375 C125.65147252 87.05322284 136.5881591 86.90963779 148.26171875 90.5625 C154.2400154 92.22633919 159.85680539 92.45101858 165.69140625 90.27734375 C167.70398793 88.57560325 167.70398793 88.57560325 168.12890625 85.96484375 C167.92265625 85.13984375 167.71640625 84.31484375 167.50390625 83.46484375 C166.67890625 83.09359375 165.85390625 82.72234375 165.00390625 82.33984375 C164.17890625 81.72109375 163.35390625 81.10234375 162.50390625 80.46484375 C162.03713152 76.76908615 162.22068807 73.17185505 162.50390625 69.46484375 C161.18390625 68.80484375 159.86390625 68.14484375 158.50390625 67.46484375 C156.00867598 70.39402711 154.89827056 72.61979177 154.50390625 76.46484375 C154.83390625 77.45484375 155.16390625 78.44484375 155.50390625 79.46484375 C150.82926766 79.11857422 147.33525429 78.47783149 143.109375 76.44140625 C136.53144121 73.74823159 130.20926075 73.94675911 123.19140625 74.08984375 C121.87213135 74.10273438 120.55285645 74.115625 119.19360352 74.12890625 C109.70073169 74.25418477 100.33348261 74.98296945 90.90234375 76.01171875 C72.8627309 77.95574152 45.24485735 77.81720222 29.50390625 67.46484375 C26.51719032 62.30713861 25.99125638 57.51515126 25.56640625 51.65234375 C24.39763511 39.17659721 20.14705968 27.99532563 10.50390625 19.46484375 C8.52390625 20.45484375 8.52390625 20.45484375 6.50390625 21.46484375 C6.59929688 20.7171875 6.6946875 19.96953125 6.79296875 19.19921875 C6.90382812 18.214375 7.0146875 17.22953125 7.12890625 16.21484375 C7.24492188 15.2403125 7.3609375 14.26578125 7.48046875 13.26171875 C7.5054814 10.2768762 7.17250109 8.90775385 5.50390625 6.46484375 C1.50304412 3.91884058 -1.7549605 2.62197562 -6.49609375 3.46484375 C-9.58776818 7.08956549 -9.67823285 9.55767836 -10.49609375 14.46484375 C-19.07609375 14.79484375 -27.65609375 15.12484375 -36.49609375 15.46484375 C-36.49609375 14.80484375 -36.49609375 14.14484375 -36.49609375 13.46484375 C-33.70582705 12.53475485 -31.73079833 12.27785606 -28.828125 12.1484375 C-27.93544922 12.10654297 -27.04277344 12.06464844 -26.12304688 12.02148438 C-25.19427734 11.98216797 -24.26550781 11.94285156 -23.30859375 11.90234375 C-21.89803711 11.83756836 -21.89803711 11.83756836 -20.45898438 11.77148438 C-18.13816521 11.6654571 -15.8172405 11.56339346 -13.49609375 11.46484375 C-13.30853516 10.06878906 -13.30853516 10.06878906 -13.1171875 8.64453125 C-11.67175285 1.24463311 -6.86180234 -0.41927555 0 0 Z " fill="#161616" transform="translate(45.49609375,155.53515625)"/>
<path d="M0 0 C3 1.125 3 1.125 5 3.6875 C9.32001529 7.19751242 13.01420795 6.59726205 18.4296875 6.49609375 C22.01158558 6.23583078 22.01158558 6.23583078 25.37890625 5.11328125 C29.72194312 3.92796482 33.58676641 3.82463072 38.0625 3.875 C38.917229 3.87959229 39.77195801 3.88418457 40.65258789 3.88891602 C51.61101098 4.03859687 63.01807355 4.52413677 73.78515625 6.68359375 C80.82494371 8.0865849 88.40862453 7.17685983 95.53857422 6.76416016 C105.97627002 6.1740504 116.4101612 5.95654549 126.86279297 5.89282227 C128.52755234 5.88101202 130.19228348 5.86398605 131.85693359 5.84155273 C134.22511537 5.81141051 136.59258459 5.80161354 138.9609375 5.796875 C139.6675351 5.78456848 140.37413269 5.77226196 141.10214233 5.75958252 C146.17862453 5.78191008 149.57350682 6.81558656 154 9.125 C155.125 11.0625 155.125 11.0625 156 13.125 C157.65788785 14.46923339 159.32576317 15.80118483 161 17.125 C166.84894313 23.54457172 170.43621605 29.48716048 171.3125 38.25 C170.50377503 48.27818958 165.21584103 59.73516824 158.5 67.25 C153.59544727 70.92841455 147.51979135 70.25205331 141.61328125 70.1875 C140.79796432 70.18371338 139.9826474 70.17992676 139.1426239 70.17602539 C135.69405414 70.15997515 132.245609 70.13260761 128.79711914 70.10449219 C119.32798193 70.03416536 109.89614519 70.09692316 100.43473816 70.52130127 C85.70750233 71.18117987 71.09029734 71.04011423 56.35986328 70.51074219 C52.44729389 70.37314645 48.53447789 70.26017907 44.62109375 70.1484375 C42.09109647 70.06396567 39.56114587 69.97808136 37.03125 69.890625 C35.88217163 69.85922424 34.73309326 69.82782349 33.54919434 69.79547119 C23.3765977 69.39496198 11.83441329 68.06975681 4.34765625 60.44140625 C-1.82681152 52.93844664 -3.0637654 44.33844549 -4.4609375 34.97265625 C-4.94344294 32.42376882 -5.62919869 30.37782463 -6.625 28 C-8.28641092 23.3583262 -8.40171748 18.75701372 -8.5 13.875 C-8.5304541 13.09366699 -8.5609082 12.31233398 -8.59228516 11.50732422 C-8.59503932 7.23378247 -8.35530653 5.58571414 -5.65625 2.0859375 C-3 0.125 -3 0.125 0 0 Z M-2 3.125 C-5.34219637 6.76799404 -5.86682069 9.94781704 -6.19921875 14.7578125 C-5.95003152 18.96956534 -5.0251107 22.72175764 -3.8125 26.75 C-3.60431641 27.46124023 -3.39613281 28.17248047 -3.18164062 28.90527344 C-2.48498439 31.15772482 -2.48498439 31.15772482 -1 34.125 C1.05763303 35.20031087 1.05763303 35.20031087 3 35.125 C3 33.805 3 32.485 3 31.125 C3.99 31.125 4.98 31.125 6 31.125 C6.1546875 30.01125 6.1546875 30.01125 6.3125 28.875 C7.04253504 25.95485982 8.06789398 24.39312446 10 22.125 C9.39050431 26.2695707 7.96084772 29.4386063 6 33.125 C5.690625 33.8675 5.38125 34.61 5.0625 35.375 C3.7196378 37.58677303 2.28882417 38.01750443 0 39.125 C-1.80310102 44.53430306 0.85118344 50.03032809 3 55.125 C4.89597259 57.55165194 6.29919246 58.5397434 9 60.125 C9.66 60.125 10.32 60.125 11 60.125 C11 60.785 11 61.445 11 62.125 C21.26154022 65.59645722 30.67541799 66.20126388 41.4375 66.25 C42.77143799 66.25713013 42.77143799 66.25713013 44.13232422 66.2644043 C45.39520264 66.26114136 45.39520264 66.26114136 46.68359375 66.2578125 C47.82139282 66.25612061 47.82139282 66.25612061 48.98217773 66.25439453 C51.20626495 66.197839 51.20626495 66.197839 54 65.125 C54.20086443 61.40900809 54.1519437 60.35291555 52 57.125 C52.875 54.4375 52.875 54.4375 54 52.125 C53.01 51.135 52.02 50.145 51 49.125 C51.680625 48.568125 52.36125 48.01125 53.0625 47.4375 C55.28097119 45.29246056 55.28097119 45.29246056 55 42.5 C54.20423043 39.98006227 54.20423043 39.98006227 51.9375 38.8125 C51.298125 38.585625 50.65875 38.35875 50 38.125 C50.495 37.135 50.495 37.135 51 36.125 C52.875 36.75 52.875 36.75 55 38.125 C57.27878599 42.7910856 56.96687605 46.11482411 56 51.125 C54.96234078 57.03965756 55.10030096 61.42590287 57 67.125 C58.95486328 67.10953125 58.95486328 67.10953125 60.94921875 67.09375 C65.58771764 67.09375 70.18493274 67.33249253 74.8125 67.625 C81.91885989 68.03528471 89.0067453 68.23457722 96.125 68.25 C97.43174683 68.25676758 97.43174683 68.25676758 98.76489258 68.26367188 C102.69673607 68.64435259 102.69673607 68.64435259 106 67.125 C108.67250538 67.10412105 111.32900188 67.1313335 114 67.1875 C120.31908812 67.26676106 125.88847363 66.90289858 132 65.125 C132.94125778 61.46455306 133.65698407 57.89817527 134 54.125 C133.34 53.135 132.68 52.145 132 51.125 C133.98 48.155 133.98 48.155 136 45.125 C134.02 43.145 134.02 43.145 132 41.125 C133.32 41.455 134.64 41.785 136 42.125 C136.625 44.5 136.625 44.5 137 47.125 C136.01 48.115 136.01 48.115 135 49.125 C135.165 50.218125 135.33 51.31125 135.5 52.4375 C136.03296631 56.36812655 135.48213276 57.6049347 134 61.125 C134.27701774 62.80194665 134.60458862 64.47196076 135 66.125 C146.213767 67.99624647 146.213767 67.99624647 156.609375 64.953125 C163.05860623 58.23794609 167.90754151 47.33286442 169 38.125 C167.48779932 29.66347263 161.28652745 21.7130244 155 16.125 C154.01 15.63 154.01 15.63 153 15.125 C152.61781233 16.78114657 152.28604898 18.44957024 152 20.125 C152.33 20.455 152.66 20.785 153 21.125 C153.2165625 22.73375 153.2165625 22.73375 153.4375 24.375 C153.82799456 28.02222987 153.82799456 28.02222987 155.125 30.8125 C156.11341176 33.42473109 155.95398577 34.54923842 155 37.125 C152.525 37.62 152.525 37.62 150 38.125 C151 36.125 151 36.125 154 34.125 C153.505 33.238125 153.01 32.35125 152.5 31.4375 C151.05621326 28.24913762 150.69840078 26.54312454 151 23.125 C149.68 22.795 148.36 22.465 147 22.125 C148.98 17.67 148.98 17.67 151 13.125 C145.21350937 9.83307915 141.17561486 8.54587548 134.5625 8.734375 C133.79695801 8.74003479 133.03141602 8.74569458 132.24267578 8.75152588 C129.82777979 8.77369165 127.41443777 8.82384461 125 8.875 C123.35028204 8.89509085 121.70054052 8.91333706 120.05078125 8.9296875 C116.03326695 8.97349057 112.01689574 9.04237398 108 9.125 C108 9.785 108 10.445 108 11.125 C108.99 11.8984375 108.99 11.8984375 110 12.6875 C112.61592046 15.87565306 112.36839565 17.90694411 112.23828125 21.90625 C112 24.125 112 24.125 111.41796875 26.25390625 C110.7829888 28.25792357 110.7829888 28.25792357 112 30.5625 C113.20265703 33.64430863 113.24108827 35.06364894 112 38.125 C109.4375 39.4375 109.4375 39.4375 107 40.125 C108.65 38.145 110.3 36.165 112 34.125 C111.484375 33.238125 110.96875 32.35125 110.4375 31.4375 C108.8982735 27.89058677 108.80781918 26.70154245 110 23.125 C110.33 22.465 110.66 21.805 111 21.125 C110.01 21.125 109.02 21.125 108 21.125 C108.33 20.526875 108.66 19.92875 109 19.3125 C110.20787988 17.07113529 110.20787988 17.07113529 110 14.125 C107.17159994 11.10586005 105.50626342 10.18930472 101.37109375 9.6640625 C100.07300781 9.69242188 98.77492188 9.72078125 97.4375 9.75 C96.13683594 9.76289063 94.83617187 9.77578125 93.49609375 9.7890625 C90.3697929 10.08946683 88.60753355 10.46626365 86 12.125 C86.99 13.61 86.99 13.61 88 15.125 C87.67873872 17.75934254 87.18644952 19.75210097 86 22.125 C85.98012522 23.72917883 86.0072121 25.33415101 86.0625 26.9375 C86.10140325 30.78336422 85.97921869 33.7163456 84 37.125 C83.01 37.62 83.01 37.62 82 38.125 C82.350625 37.01125 82.70125 35.8975 83.0625 34.75 C84.37239331 31.32235524 84.37239331 31.32235524 83 29.125 C83.27942455 27.44845271 83.60828247 25.77891846 84 24.125 C83.01 24.125 82.02 24.125 81 24.125 C82.11179163 20.78962511 83.47411298 19.48792656 86 17.125 C85.06231164 14.06991079 85.06231164 14.06991079 83 11.125 C80.19158076 10.27670567 78.0869318 9.88391153 75.21875 9.6640625 C74.45002563 9.58376801 73.68130127 9.50347351 72.88928223 9.42074585 C70.42796038 9.17084665 67.96495857 8.9606349 65.5 8.75 C63.87214879 8.58708532 62.24453837 8.42174521 60.6171875 8.25390625 C52.40218153 7.43603507 44.26393848 6.85612325 36 7.125 C36.495 8.115 36.495 8.115 37 9.125 C37.31337847 14.66135301 36.4386757 18.2476486 34 23.125 C34.185625 23.74375 34.37125 24.3625 34.5625 25 C35 27.125 35 27.125 34.0625 28.875 C32.44610496 32.2979542 32.87464081 35.36422443 33 39.125 C32.01 39.455 31.02 39.785 30 40.125 C29.67 39.795 29.34 39.465 29 39.125 C29.7734375 38.63 29.7734375 38.63 30.5625 38.125 C32.33834722 35.65425604 32.02853971 34.98054407 31.5625 32.0625 C31.2840625 30.1134375 31.2840625 30.1134375 31 28.125 C31.66 27.465 32.32 26.805 33 26.125 C32.6730244 23.50919521 32.17960932 21.48421863 31 19.125 C31.99 19.125 32.98 19.125 34 19.125 C35.4783226 16.16835481 35.06032783 13.38270263 35 10.125 C34.34 10.125 33.68 10.125 33 10.125 C33 9.465 33 8.805 33 8.125 C32.195625 8.23328125 32.195625 8.23328125 31.375 8.34375 C25.8169062 9.00194532 20.27974669 9.28786142 14.6875 9.375 C13.6655957 9.4069043 13.6655957 9.4069043 12.62304688 9.43945312 C8.2150567 9.46979327 5.48757498 8.84391092 2 6.125 C1.34 5.135 0.68 4.145 0 3.125 C-0.66 3.125 -1.32 3.125 -2 3.125 Z " fill="#0F0F0F" transform="translate(433,214.875)"/>
<path d="M0 0 C1.82421875 0.21484375 1.82421875 0.21484375 4 1 C5.45703125 3.00390625 5.45703125 3.00390625 6.8125 5.5625 C9.33260141 10.07283534 12.16256842 13.63242097 15.77734375 17.30859375 C16.18082031 17.86675781 16.58429687 18.42492187 17 19 C16.505 20.485 16.505 20.485 16 22 C13.9375 22.6875 13.9375 22.6875 12 23 C11.957279 24.66611905 11.95936168 26.33382885 12 28 C13.20708564 29.43072341 13.20708564 29.43072341 16.75 29.1875 C20.23584286 29.15615249 22.84479083 28.57760458 26 27 C24.25 31.875 24.25 31.875 22 33 C20.52331663 33.0952699 19.04224543 33.12985959 17.5625 33.125 C16.38880859 33.12886719 16.38880859 33.12886719 15.19140625 33.1328125 C13 33 13 33 10 32 C7.52657734 28.28986601 7.61496514 26.38939738 8 22 C9.51953125 19.77734375 9.51953125 19.77734375 11 18 C10.4225 17.22914063 9.845 16.45828125 9.25 15.6640625 C8.5075 14.66117187 7.765 13.65828125 7 12.625 C5.88625 11.12839844 5.88625 11.12839844 4.75 9.6015625 C3 7 3 7 3 5 C-1.04055056 7.10690801 -3.11263551 9.18025768 -5.5625 13 C-8.61716305 17.74072418 -8.61716305 17.74072418 -11.21484375 19.5 C-13.26404455 20.8695705 -13.26404455 20.8695705 -13.25 23.375 C-13.1675 24.24125 -13.085 25.1075 -13 26 C-12.75 28.625 -12.75 28.625 -13 31 C-15.04424538 32.97610386 -16.1176825 34 -19 34 C-18.125 30.125 -18.125 30.125 -17 29 C-17.08963062 27.30858344 -17.24577676 25.62040398 -17.4375 23.9375 C-17.53933594 23.01839844 -17.64117188 22.09929687 -17.74609375 21.15234375 C-17.82988281 20.44207031 -17.91367187 19.73179687 -18 19 C-17.45730469 18.69707031 -16.91460938 18.39414062 -16.35546875 18.08203125 C-11.92289191 15.48637814 -9.41666951 13.62319385 -7 9 C-4.72789164 5.95167362 -2.36625078 2.9756414 0 0 Z " fill="#0E0E0E" transform="translate(19,252)"/>
<path d="M0 0 C-0.33 0.66 -0.66 1.32 -1 2 C-2.32 2 -3.64 2 -5 2 C-5 2.66 -5 3.32 -5 4 C-4.360625 4.2475 -3.72125 4.495 -3.0625 4.75 C-1 6 -1 6 -0.25 7.6875 C0.16708565 11.54554222 0.47927342 15.37047037 -0.625 19.125 C-1.21518521 21.13431286 -1.21518521 21.13431286 0.0625 23.375 C1 26 1 26 0.4375 29.1875 C-1 32 -1 32 -3.625 33.375 C-4.40875 33.58125 -5.1925 33.7875 -6 34 C-6 31 -6 31 -4 28.8125 C-3.01 27.9153125 -3.01 27.9153125 -2 27 C-2.515625 26.113125 -3.03125 25.22625 -3.5625 24.3125 C-5.08979002 20.79309257 -5.21675714 19.548875 -4 16 C-3.67 15.67 -3.34 15.34 -3 15 C-3.66 14.67 -4.32 14.34 -5 14 C-4.42415568 11.61435923 -3.77772405 9.33317216 -3 7 C-8.60944292 3.85871197 -14.68146331 2.77369837 -21 2 C-20.67 1.34 -20.34 0.68 -20 0 C-17.22949974 -0.1946838 -14.45886998 -0.38102792 -11.6875 -0.5625 C-10.90181641 -0.61857422 -10.11613281 -0.67464844 -9.30664062 -0.73242188 C-8.1706543 -0.80493164 -8.1706543 -0.80493164 -7.01171875 -0.87890625 C-6.31522217 -0.9260376 -5.61872559 -0.97316895 -4.90112305 -1.02172852 C-3 -1 -3 -1 0 0 Z " fill="#030303" transform="translate(546,222)"/>
<path d="M0 0 C0.99 0.33 1.98 0.66 3 1 C2.3897536 5.14967549 0.99267393 8.32121736 -1 12 C-1.7115625 13.3921875 -1.7115625 13.3921875 -2.4375 14.8125 C-4 17 -4 17 -6.1875 17.8125 C-6.785625 17.874375 -7.38375 17.93625 -8 18 C-7.67 20.31 -7.34 22.62 -7 25 C-8.32 24.34 -9.64 23.68 -11 23 C-11 19.7 -11 16.4 -11 13 C-8.03 13.495 -8.03 13.495 -5 14 C-5 12.68 -5 11.36 -5 10 C-4.01 10 -3.02 10 -2 10 C-2.226875 9.443125 -2.45375 8.88625 -2.6875 8.3125 C-3.12446199 5.07898125 -1.78001197 3.63441772 0 1 C0 0.67 0 0.34 0 0 Z " fill="#020202" transform="translate(441,236)"/>
<path d="M0 0 C0.66 0.33 1.32 0.66 2 1 C0.125 5.75 0.125 5.75 -1 8 C-0.7215625 8.928125 -0.7215625 8.928125 -0.4375 9.875 C0 12 0 12 -0.9375 13.75 C-2.55389504 17.1729542 -2.12535919 20.23922443 -2 24 C-3.98 24.99 -3.98 24.99 -6 26 C-6.66 25.34 -7.32 24.68 -8 24 C-7.484375 23.67 -6.96875 23.34 -6.4375 23 C-4.66165278 20.52925604 -4.97146029 19.85554407 -5.4375 16.9375 C-5.623125 15.638125 -5.80875 14.33875 -6 13 C-5.34 12.34 -4.68 11.68 -4 11 C-4.32326553 7.40320934 -4.32326553 7.40320934 -5 4 C-4.01 4 -3.02 4 -2 4 C-1.34 2.68 -0.68 1.36 0 0 Z " fill="#000000" transform="translate(469,230)"/>
<path d="M0 0 C0.33 0 0.66 0 1 0 C1.33 4.95 1.66 9.9 2 15 C2.66 15 3.32 15 4 15 C5.32 19.95 6.64 24.9 8 30 C7.34 30 6.68 30 6 30 C5.505 32.475 5.505 32.475 5 35 C4.67 35 4.34 35 4 35 C3.896875 33.865625 3.79375 32.73125 3.6875 31.5625 C3.32311188 28.47055962 2.63850392 25.98588199 1.4375 23.125 C-1.21119158 15.86038475 -0.22162454 7.60910911 0 0 Z " fill="#1C1C1C" transform="translate(425,220)"/>
<path d="M0 0 C2.64 0 5.28 0 8 0 C8.33 0.99 8.66 1.98 9 3 C7.68 3 6.36 3 5 3 C4.896875 3.515625 4.79375 4.03125 4.6875 4.5625 C3.75736134 7.86026435 2.38604488 10.86633332 1 14 C0.67 14 0.34 14 0 14 C0 9.38 0 4.76 0 0 Z " fill="#5F5F5F" transform="translate(0,246)"/>
<path d="M0 0 C3.3 0 6.6 0 10 0 C10 0.33 10 0.66 10 1 C16.6 1.33 23.2 1.66 30 2 C30 2.33 30 2.66 30 3 C19.77 3 9.54 3 -1 3 C-0.67 2.01 -0.34 1.02 0 0 Z " fill="#1F1F1F" transform="translate(546,221)"/>
<path d="M0 0 C0.66 0.66 1.32 1.32 2 2 C1.69903201 6.13830989 1.32101984 8.51847024 -1 12 C-1.66 12 -2.32 12 -3 12 C-2.835 10.906875 -2.67 9.81375 -2.5 8.6875 C-1.93281816 5.12474127 -1.93281816 5.12474127 -2 2 C-1.34 1.34 -0.68 0.68 0 0 Z " fill="#000000" transform="translate(518,241)"/>
<path d="M0 0 C2.64 0 5.28 0 8 0 C8.33 0.99 8.66 1.98 9 3 C5.62182575 3.84454356 3.32534757 4.10844919 0 3 C0 2.01 0 1.02 0 0 Z " fill="#050505" transform="translate(0,246)"/>
<path d="M0 0 C2.29633824 3.44450737 2.54016485 5.93812283 3 10 C2.01 10.66 1.02 11.32 0 12 C0 8.04 0 4.08 0 0 Z " fill="#E6E6E6" transform="translate(0,271)"/>
<path d="M0 0 C3.16115776 1.36983503 3.9927092 1.9890638 6 5 C6.125 8.1875 6.125 8.1875 6 11 C5.34 11 4.68 11 4 11 C3.566875 9.2984375 3.566875 9.2984375 3.125 7.5625 C2.75375 6.386875 2.3825 5.21125 2 4 C1.34 3.67 0.68 3.34 0 3 C0 2.01 0 1.02 0 0 Z " fill="#262626" transform="translate(0,158)"/>
<path d="M0 0 C2.4375 0.8125 2.4375 0.8125 5 2 C5.33 2.99 5.66 3.98 6 5 C3 5 3 5 0.8125 3 C0.214375 2.34 -0.38375 1.68 -1 1 C-0.67 0.67 -0.34 0.34 0 0 Z " fill="#000000" transform="translate(565,255)"/>
<path d="M0 0 C2.97 0.33 5.94 0.66 9 1 C9 1.66 9 2.32 9 3 C6.03 2.67 3.06 2.34 0 2 C0 1.34 0 0.68 0 0 Z " fill="#050505" transform="translate(0,217)"/>
</svg>
